<?xml version="1.0" encoding="utf-8"?>
<svg xmlns="http://www.w3.org/2000/svg" xmlns:xlink="http://www.w3.org/1999/xlink" width="600" height="400" viewBox="0 0 2400 1600">
<defs>
  <clipPath id="clip060">
    <rect x="0" y="0" width="2400" height="1600"/>
  </clipPath>
</defs>
<path clip-path="url(#clip060)" d="M0 1600 L2400 1600 L2400 0 L0 0  Z" fill="#ffffff" fill-rule="evenodd" fill-opacity="1"/>
<defs>
  <clipPath id="clip061">
    <rect x="480" y="0" width="1681" height="1600"/>
  </clipPath>
</defs>
<path clip-path="url(#clip060)" d="M156.274 1486.45 L2352.76 1486.45 L2352.76 47.2441 L156.274 47.2441  Z" fill="#ffffff" fill-rule="evenodd" fill-opacity="1"/>
<defs>
  <clipPath id="clip062">
    <rect x="156" y="47" width="2197" height="1440"/>
  </clipPath>
</defs>
<polyline clip-path="url(#clip062)" style="stroke:#000000; stroke-linecap:round; stroke-linejoin:round; stroke-width:2; stroke-opacity:0.1; fill:none" points="218.439,1486.45 218.439,47.2441 "/>
<polyline clip-path="url(#clip062)" style="stroke:#000000; stroke-linecap:round; stroke-linejoin:round; stroke-width:2; stroke-opacity:0.1; fill:none" points="736.477,1486.45 736.477,47.2441 "/>
<polyline clip-path="url(#clip062)" style="stroke:#000000; stroke-linecap:round; stroke-linejoin:round; stroke-width:2; stroke-opacity:0.1; fill:none" points="1254.52,1486.45 1254.52,47.2441 "/>
<polyline clip-path="url(#clip062)" style="stroke:#000000; stroke-linecap:round; stroke-linejoin:round; stroke-width:2; stroke-opacity:0.1; fill:none" points="1772.55,1486.45 1772.55,47.2441 "/>
<polyline clip-path="url(#clip062)" style="stroke:#000000; stroke-linecap:round; stroke-linejoin:round; stroke-width:2; stroke-opacity:0.1; fill:none" points="2290.59,1486.45 2290.59,47.2441 "/>
<polyline clip-path="url(#clip060)" style="stroke:#000000; stroke-linecap:round; stroke-linejoin:round; stroke-width:4; stroke-opacity:1; fill:none" points="156.274,1486.45 2352.76,1486.45 "/>
<polyline clip-path="url(#clip060)" style="stroke:#000000; stroke-linecap:round; stroke-linejoin:round; stroke-width:4; stroke-opacity:1; fill:none" points="218.439,1486.45 218.439,1467.55 "/>
<polyline clip-path="url(#clip060)" style="stroke:#000000; stroke-linecap:round; stroke-linejoin:round; stroke-width:4; stroke-opacity:1; fill:none" points="736.477,1486.45 736.477,1467.55 "/>
<polyline clip-path="url(#clip060)" style="stroke:#000000; stroke-linecap:round; stroke-linejoin:round; stroke-width:4; stroke-opacity:1; fill:none" points="1254.52,1486.45 1254.52,1467.55 "/>
<polyline clip-path="url(#clip060)" style="stroke:#000000; stroke-linecap:round; stroke-linejoin:round; stroke-width:4; stroke-opacity:1; fill:none" points="1772.55,1486.45 1772.55,1467.55 "/>
<polyline clip-path="url(#clip060)" style="stroke:#000000; stroke-linecap:round; stroke-linejoin:round; stroke-width:4; stroke-opacity:1; fill:none" points="2290.59,1486.45 2290.59,1467.55 "/>
<path clip-path="url(#clip060)" d="M164.967 1532.02 L194.643 1532.02 L194.643 1535.95 L164.967 1535.95 L164.967 1532.02 Z" fill="#000000" fill-rule="nonzero" fill-opacity="1" /><path clip-path="url(#clip060)" d="M205.545 1544.91 L213.184 1544.91 L213.184 1518.55 L204.874 1520.21 L204.874 1515.95 L213.138 1514.29 L217.814 1514.29 L217.814 1544.91 L225.453 1544.91 L225.453 1548.85 L205.545 1548.85 L205.545 1544.91 Z" fill="#000000" fill-rule="nonzero" fill-opacity="1" /><path clip-path="url(#clip060)" d="M234.897 1542.97 L239.781 1542.97 L239.781 1548.85 L234.897 1548.85 L234.897 1542.97 Z" fill="#000000" fill-rule="nonzero" fill-opacity="1" /><path clip-path="url(#clip060)" d="M259.966 1517.37 Q256.355 1517.37 254.527 1520.93 Q252.721 1524.47 252.721 1531.6 Q252.721 1538.71 254.527 1542.27 Q256.355 1545.82 259.966 1545.82 Q263.601 1545.82 265.406 1542.27 Q267.235 1538.71 267.235 1531.6 Q267.235 1524.47 265.406 1520.93 Q263.601 1517.37 259.966 1517.37 M259.966 1513.66 Q265.776 1513.66 268.832 1518.27 Q271.911 1522.85 271.911 1531.6 Q271.911 1540.33 268.832 1544.94 Q265.776 1549.52 259.966 1549.52 Q254.156 1549.52 251.077 1544.94 Q248.022 1540.33 248.022 1531.6 Q248.022 1522.85 251.077 1518.27 Q254.156 1513.66 259.966 1513.66 Z" fill="#000000" fill-rule="nonzero" fill-opacity="1" /><path clip-path="url(#clip060)" d="M683.503 1532.02 L713.178 1532.02 L713.178 1535.95 L683.503 1535.95 L683.503 1532.02 Z" fill="#000000" fill-rule="nonzero" fill-opacity="1" /><path clip-path="url(#clip060)" d="M733.271 1517.37 Q729.66 1517.37 727.831 1520.93 Q726.026 1524.47 726.026 1531.6 Q726.026 1538.71 727.831 1542.27 Q729.66 1545.82 733.271 1545.82 Q736.905 1545.82 738.711 1542.27 Q740.539 1538.71 740.539 1531.6 Q740.539 1524.47 738.711 1520.93 Q736.905 1517.37 733.271 1517.37 M733.271 1513.66 Q739.081 1513.66 742.137 1518.27 Q745.215 1522.85 745.215 1531.6 Q745.215 1540.33 742.137 1544.94 Q739.081 1549.52 733.271 1549.52 Q727.461 1549.52 724.382 1544.94 Q721.327 1540.33 721.327 1531.6 Q721.327 1522.85 724.382 1518.27 Q727.461 1513.66 733.271 1513.66 Z" fill="#000000" fill-rule="nonzero" fill-opacity="1" /><path clip-path="url(#clip060)" d="M753.433 1542.97 L758.317 1542.97 L758.317 1548.85 L753.433 1548.85 L753.433 1542.97 Z" fill="#000000" fill-rule="nonzero" fill-opacity="1" /><path clip-path="url(#clip060)" d="M768.548 1514.29 L786.905 1514.29 L786.905 1518.22 L772.831 1518.22 L772.831 1526.7 Q773.849 1526.35 774.868 1526.19 Q775.886 1526 776.905 1526 Q782.692 1526 786.072 1529.17 Q789.451 1532.34 789.451 1537.76 Q789.451 1543.34 785.979 1546.44 Q782.507 1549.52 776.187 1549.52 Q774.011 1549.52 771.743 1549.15 Q769.498 1548.78 767.09 1548.04 L767.09 1543.34 Q769.173 1544.47 771.396 1545.03 Q773.618 1545.58 776.095 1545.58 Q780.099 1545.58 782.437 1543.48 Q784.775 1541.37 784.775 1537.76 Q784.775 1534.15 782.437 1532.04 Q780.099 1529.94 776.095 1529.94 Q774.22 1529.94 772.345 1530.35 Q770.493 1530.77 768.548 1531.65 L768.548 1514.29 Z" fill="#000000" fill-rule="nonzero" fill-opacity="1" /><path clip-path="url(#clip060)" d="M1231.9 1517.37 Q1228.29 1517.37 1226.46 1520.93 Q1224.65 1524.47 1224.65 1531.6 Q1224.65 1538.71 1226.46 1542.27 Q1228.29 1545.82 1231.9 1545.82 Q1235.53 1545.82 1237.34 1542.27 Q1239.17 1538.71 1239.17 1531.6 Q1239.17 1524.47 1237.34 1520.93 Q1235.53 1517.37 1231.9 1517.37 M1231.9 1513.66 Q1237.71 1513.66 1240.77 1518.27 Q1243.84 1522.85 1243.84 1531.6 Q1243.84 1540.33 1240.77 1544.94 Q1237.71 1549.52 1231.9 1549.52 Q1226.09 1549.52 1223.01 1544.94 Q1219.96 1540.33 1219.96 1531.6 Q1219.96 1522.85 1223.01 1518.27 Q1226.09 1513.66 1231.9 1513.66 Z" fill="#000000" fill-rule="nonzero" fill-opacity="1" /><path clip-path="url(#clip060)" d="M1252.06 1542.97 L1256.95 1542.97 L1256.95 1548.85 L1252.06 1548.85 L1252.06 1542.97 Z" fill="#000000" fill-rule="nonzero" fill-opacity="1" /><path clip-path="url(#clip060)" d="M1277.13 1517.37 Q1273.52 1517.37 1271.69 1520.93 Q1269.89 1524.47 1269.89 1531.6 Q1269.89 1538.71 1271.69 1542.27 Q1273.52 1545.82 1277.13 1545.82 Q1280.76 1545.82 1282.57 1542.27 Q1284.4 1538.71 1284.4 1531.6 Q1284.4 1524.47 1282.57 1520.93 Q1280.76 1517.37 1277.13 1517.37 M1277.13 1513.66 Q1282.94 1513.66 1286 1518.27 Q1289.08 1522.85 1289.08 1531.6 Q1289.08 1540.33 1286 1544.94 Q1282.94 1549.52 1277.13 1549.52 Q1271.32 1549.52 1268.24 1544.94 Q1265.19 1540.33 1265.19 1531.6 Q1265.19 1522.85 1268.24 1518.27 Q1271.32 1513.66 1277.13 1513.66 Z" fill="#000000" fill-rule="nonzero" fill-opacity="1" /><path clip-path="url(#clip060)" d="M1750.44 1517.37 Q1746.82 1517.37 1745 1520.93 Q1743.19 1524.47 1743.19 1531.6 Q1743.19 1538.71 1745 1542.27 Q1746.82 1545.82 1750.44 1545.82 Q1754.07 1545.82 1755.88 1542.27 Q1757.7 1538.71 1757.7 1531.6 Q1757.7 1524.47 1755.88 1520.93 Q1754.07 1517.37 1750.44 1517.37 M1750.44 1513.66 Q1756.25 1513.66 1759.3 1518.27 Q1762.38 1522.85 1762.38 1531.6 Q1762.38 1540.33 1759.3 1544.94 Q1756.25 1549.52 1750.44 1549.52 Q1744.63 1549.52 1741.55 1544.94 Q1738.49 1540.33 1738.49 1531.6 Q1738.49 1522.85 1741.55 1518.27 Q1744.63 1513.66 1750.44 1513.66 Z" fill="#000000" fill-rule="nonzero" fill-opacity="1" /><path clip-path="url(#clip060)" d="M1770.6 1542.97 L1775.48 1542.97 L1775.48 1548.85 L1770.6 1548.85 L1770.6 1542.97 Z" fill="#000000" fill-rule="nonzero" fill-opacity="1" /><path clip-path="url(#clip060)" d="M1785.71 1514.29 L1804.07 1514.29 L1804.07 1518.22 L1790 1518.22 L1790 1526.7 Q1791.01 1526.35 1792.03 1526.19 Q1793.05 1526 1794.07 1526 Q1799.86 1526 1803.24 1529.17 Q1806.62 1532.34 1806.62 1537.76 Q1806.62 1543.34 1803.14 1546.44 Q1799.67 1549.52 1793.35 1549.52 Q1791.18 1549.52 1788.91 1549.15 Q1786.66 1548.78 1784.25 1548.04 L1784.25 1543.34 Q1786.34 1544.47 1788.56 1545.03 Q1790.78 1545.58 1793.26 1545.58 Q1797.26 1545.58 1799.6 1543.48 Q1801.94 1541.37 1801.94 1537.76 Q1801.94 1534.15 1799.6 1532.04 Q1797.26 1529.94 1793.26 1529.94 Q1791.38 1529.94 1789.51 1530.35 Q1787.66 1530.77 1785.71 1531.65 L1785.71 1514.29 Z" fill="#000000" fill-rule="nonzero" fill-opacity="1" /><path clip-path="url(#clip060)" d="M2257.74 1544.91 L2265.38 1544.91 L2265.38 1518.55 L2257.07 1520.21 L2257.07 1515.95 L2265.34 1514.29 L2270.01 1514.29 L2270.01 1544.91 L2277.65 1544.91 L2277.65 1548.85 L2257.74 1548.85 L2257.74 1544.91 Z" fill="#000000" fill-rule="nonzero" fill-opacity="1" /><path clip-path="url(#clip060)" d="M2287.1 1542.97 L2291.98 1542.97 L2291.98 1548.85 L2287.1 1548.85 L2287.1 1542.97 Z" fill="#000000" fill-rule="nonzero" fill-opacity="1" /><path clip-path="url(#clip060)" d="M2312.17 1517.37 Q2308.55 1517.37 2306.73 1520.93 Q2304.92 1524.47 2304.92 1531.6 Q2304.92 1538.71 2306.73 1542.27 Q2308.55 1545.82 2312.17 1545.82 Q2315.8 1545.82 2317.61 1542.27 Q2319.43 1538.71 2319.43 1531.6 Q2319.43 1524.47 2317.61 1520.93 Q2315.8 1517.37 2312.17 1517.37 M2312.17 1513.66 Q2317.98 1513.66 2321.03 1518.27 Q2324.11 1522.85 2324.11 1531.6 Q2324.11 1540.33 2321.03 1544.94 Q2317.98 1549.52 2312.17 1549.52 Q2306.36 1549.52 2303.28 1544.94 Q2300.22 1540.33 2300.22 1531.6 Q2300.22 1522.85 2303.28 1518.27 Q2306.36 1513.66 2312.17 1513.66 Z" fill="#000000" fill-rule="nonzero" fill-opacity="1" /><polyline clip-path="url(#clip062)" style="stroke:#000000; stroke-linecap:round; stroke-linejoin:round; stroke-width:2; stroke-opacity:0.1; fill:none" points="156.274,1255.06 2352.76,1255.06 "/>
<polyline clip-path="url(#clip062)" style="stroke:#000000; stroke-linecap:round; stroke-linejoin:round; stroke-width:2; stroke-opacity:0.1; fill:none" points="156.274,981.167 2352.76,981.167 "/>
<polyline clip-path="url(#clip062)" style="stroke:#000000; stroke-linecap:round; stroke-linejoin:round; stroke-width:2; stroke-opacity:0.1; fill:none" points="156.274,707.27 2352.76,707.27 "/>
<polyline clip-path="url(#clip062)" style="stroke:#000000; stroke-linecap:round; stroke-linejoin:round; stroke-width:2; stroke-opacity:0.1; fill:none" points="156.274,433.374 2352.76,433.374 "/>
<polyline clip-path="url(#clip062)" style="stroke:#000000; stroke-linecap:round; stroke-linejoin:round; stroke-width:2; stroke-opacity:0.1; fill:none" points="156.274,159.477 2352.76,159.477 "/>
<polyline clip-path="url(#clip060)" style="stroke:#000000; stroke-linecap:round; stroke-linejoin:round; stroke-width:4; stroke-opacity:1; fill:none" points="156.274,1486.45 156.274,47.2441 "/>
<polyline clip-path="url(#clip060)" style="stroke:#000000; stroke-linecap:round; stroke-linejoin:round; stroke-width:4; stroke-opacity:1; fill:none" points="156.274,1255.06 175.172,1255.06 "/>
<polyline clip-path="url(#clip060)" style="stroke:#000000; stroke-linecap:round; stroke-linejoin:round; stroke-width:4; stroke-opacity:1; fill:none" points="156.274,981.167 175.172,981.167 "/>
<polyline clip-path="url(#clip060)" style="stroke:#000000; stroke-linecap:round; stroke-linejoin:round; stroke-width:4; stroke-opacity:1; fill:none" points="156.274,707.27 175.172,707.27 "/>
<polyline clip-path="url(#clip060)" style="stroke:#000000; stroke-linecap:round; stroke-linejoin:round; stroke-width:4; stroke-opacity:1; fill:none" points="156.274,433.374 175.172,433.374 "/>
<polyline clip-path="url(#clip060)" style="stroke:#000000; stroke-linecap:round; stroke-linejoin:round; stroke-width:4; stroke-opacity:1; fill:none" points="156.274,159.477 175.172,159.477 "/>
<path clip-path="url(#clip060)" d="M63.0985 1240.86 Q59.4875 1240.86 57.6588 1244.43 Q55.8532 1247.97 55.8532 1255.1 Q55.8532 1262.21 57.6588 1265.77 Q59.4875 1269.31 63.0985 1269.31 Q66.7328 1269.31 68.5383 1265.77 Q70.367 1262.21 70.367 1255.1 Q70.367 1247.97 68.5383 1244.43 Q66.7328 1240.86 63.0985 1240.86 M63.0985 1237.16 Q68.9087 1237.16 71.9642 1241.77 Q75.0429 1246.35 75.0429 1255.1 Q75.0429 1263.83 71.9642 1268.43 Q68.9087 1273.02 63.0985 1273.02 Q57.2884 1273.02 54.2097 1268.43 Q51.1542 1263.83 51.1542 1255.1 Q51.1542 1246.35 54.2097 1241.77 Q57.2884 1237.16 63.0985 1237.16 Z" fill="#000000" fill-rule="nonzero" fill-opacity="1" /><path clip-path="url(#clip060)" d="M83.2605 1266.46 L88.1447 1266.46 L88.1447 1272.34 L83.2605 1272.34 L83.2605 1266.46 Z" fill="#000000" fill-rule="nonzero" fill-opacity="1" /><path clip-path="url(#clip060)" d="M108.33 1240.86 Q104.719 1240.86 102.89 1244.43 Q101.084 1247.97 101.084 1255.1 Q101.084 1262.21 102.89 1265.77 Q104.719 1269.31 108.33 1269.31 Q111.964 1269.31 113.77 1265.77 Q115.598 1262.21 115.598 1255.1 Q115.598 1247.97 113.77 1244.43 Q111.964 1240.86 108.33 1240.86 M108.33 1237.16 Q114.14 1237.16 117.195 1241.77 Q120.274 1246.35 120.274 1255.1 Q120.274 1263.83 117.195 1268.43 Q114.14 1273.02 108.33 1273.02 Q102.52 1273.02 99.4409 1268.43 Q96.3854 1263.83 96.3854 1255.1 Q96.3854 1246.35 99.4409 1241.77 Q102.52 1237.16 108.33 1237.16 Z" fill="#000000" fill-rule="nonzero" fill-opacity="1" /><path clip-path="url(#clip060)" d="M63.7467 966.966 Q60.1356 966.966 58.3069 970.531 Q56.5014 974.072 56.5014 981.202 Q56.5014 988.308 58.3069 991.873 Q60.1356 995.415 63.7467 995.415 Q67.3809 995.415 69.1865 991.873 Q71.0152 988.308 71.0152 981.202 Q71.0152 974.072 69.1865 970.531 Q67.3809 966.966 63.7467 966.966 M63.7467 963.262 Q69.5568 963.262 72.6124 967.869 Q75.6911 972.452 75.6911 981.202 Q75.6911 989.929 72.6124 994.535 Q69.5568 999.118 63.7467 999.118 Q57.9365 999.118 54.8578 994.535 Q51.8023 989.929 51.8023 981.202 Q51.8023 972.452 54.8578 967.869 Q57.9365 963.262 63.7467 963.262 Z" fill="#000000" fill-rule="nonzero" fill-opacity="1" /><path clip-path="url(#clip060)" d="M83.9086 992.568 L88.7928 992.568 L88.7928 998.447 L83.9086 998.447 L83.9086 992.568 Z" fill="#000000" fill-rule="nonzero" fill-opacity="1" /><path clip-path="url(#clip060)" d="M113.145 979.813 Q116.501 980.531 118.376 982.799 Q120.274 985.068 120.274 988.401 Q120.274 993.517 116.756 996.318 Q113.237 999.118 106.756 999.118 Q104.58 999.118 102.265 998.679 Q99.9733 998.262 97.5197 997.405 L97.5197 992.892 Q99.4641 994.026 101.779 994.605 Q104.094 995.183 106.617 995.183 Q111.015 995.183 113.307 993.447 Q115.621 991.711 115.621 988.401 Q115.621 985.345 113.469 983.632 Q111.339 981.896 107.52 981.896 L103.492 981.896 L103.492 978.054 L107.705 978.054 Q111.154 978.054 112.983 976.688 Q114.811 975.299 114.811 972.707 Q114.811 970.044 112.913 968.632 Q111.038 967.197 107.52 967.197 Q105.598 967.197 103.399 967.614 Q101.2 968.031 98.5613 968.91 L98.5613 964.744 Q101.223 964.003 103.538 963.632 Q105.876 963.262 107.936 963.262 Q113.26 963.262 116.362 965.693 Q119.464 968.1 119.464 972.22 Q119.464 975.091 117.82 977.081 Q116.177 979.049 113.145 979.813 Z" fill="#000000" fill-rule="nonzero" fill-opacity="1" /><path clip-path="url(#clip060)" d="M62.9365 693.069 Q59.3254 693.069 57.4967 696.634 Q55.6912 700.176 55.6912 707.305 Q55.6912 714.412 57.4967 717.976 Q59.3254 721.518 62.9365 721.518 Q66.5707 721.518 68.3763 717.976 Q70.205 714.412 70.205 707.305 Q70.205 700.176 68.3763 696.634 Q66.5707 693.069 62.9365 693.069 M62.9365 689.365 Q68.7467 689.365 71.8022 693.972 Q74.8809 698.555 74.8809 707.305 Q74.8809 716.032 71.8022 720.638 Q68.7467 725.222 62.9365 725.222 Q57.1264 725.222 54.0477 720.638 Q50.9921 716.032 50.9921 707.305 Q50.9921 698.555 54.0477 693.972 Q57.1264 689.365 62.9365 689.365 Z" fill="#000000" fill-rule="nonzero" fill-opacity="1" /><path clip-path="url(#clip060)" d="M83.0984 718.671 L87.9827 718.671 L87.9827 724.55 L83.0984 724.55 L83.0984 718.671 Z" fill="#000000" fill-rule="nonzero" fill-opacity="1" /><path clip-path="url(#clip060)" d="M108.746 705.407 Q105.598 705.407 103.746 707.56 Q101.918 709.713 101.918 713.462 Q101.918 717.189 103.746 719.365 Q105.598 721.518 108.746 721.518 Q111.895 721.518 113.723 719.365 Q115.575 717.189 115.575 713.462 Q115.575 709.713 113.723 707.56 Q111.895 705.407 108.746 705.407 M118.029 690.754 L118.029 695.014 Q116.27 694.18 114.464 693.74 Q112.682 693.301 110.922 693.301 Q106.293 693.301 103.839 696.426 Q101.409 699.551 101.061 705.87 Q102.427 703.856 104.487 702.791 Q106.547 701.703 109.024 701.703 Q114.233 701.703 117.242 704.875 Q120.274 708.023 120.274 713.462 Q120.274 718.787 117.126 722.004 Q113.978 725.222 108.746 725.222 Q102.751 725.222 99.5798 720.638 Q96.4085 716.032 96.4085 707.305 Q96.4085 699.111 100.297 694.25 Q104.186 689.365 110.737 689.365 Q112.496 689.365 114.279 689.713 Q116.084 690.06 118.029 690.754 Z" fill="#000000" fill-rule="nonzero" fill-opacity="1" /><path clip-path="url(#clip060)" d="M63.2837 419.172 Q59.6726 419.172 57.8439 422.737 Q56.0384 426.279 56.0384 433.408 Q56.0384 440.515 57.8439 444.08 Q59.6726 447.621 63.2837 447.621 Q66.918 447.621 68.7235 444.08 Q70.5522 440.515 70.5522 433.408 Q70.5522 426.279 68.7235 422.737 Q66.918 419.172 63.2837 419.172 M63.2837 415.469 Q69.0939 415.469 72.1494 420.075 Q75.2281 424.658 75.2281 433.408 Q75.2281 442.135 72.1494 446.742 Q69.0939 451.325 63.2837 451.325 Q57.4736 451.325 54.3949 446.742 Q51.3393 442.135 51.3393 433.408 Q51.3393 424.658 54.3949 420.075 Q57.4736 415.469 63.2837 415.469 Z" fill="#000000" fill-rule="nonzero" fill-opacity="1" /><path clip-path="url(#clip060)" d="M83.4457 444.774 L88.3299 444.774 L88.3299 450.654 L83.4457 450.654 L83.4457 444.774 Z" fill="#000000" fill-rule="nonzero" fill-opacity="1" /><path clip-path="url(#clip060)" d="M98.6539 449.936 L98.6539 445.677 Q100.413 446.51 102.219 446.95 Q104.024 447.39 105.76 447.39 Q110.39 447.39 112.82 444.288 Q115.274 441.163 115.621 434.82 Q114.279 436.811 112.219 437.876 Q110.158 438.941 107.658 438.941 Q102.473 438.941 99.4409 435.816 Q96.4317 432.668 96.4317 427.228 Q96.4317 421.904 99.5798 418.686 Q102.728 415.469 107.959 415.469 Q113.955 415.469 117.103 420.075 Q120.274 424.658 120.274 433.408 Q120.274 441.58 116.385 446.464 Q112.52 451.325 105.969 451.325 Q104.209 451.325 102.404 450.978 Q100.598 450.631 98.6539 449.936 M107.959 435.283 Q111.108 435.283 112.936 433.131 Q114.788 430.978 114.788 427.228 Q114.788 423.501 112.936 421.348 Q111.108 419.172 107.959 419.172 Q104.811 419.172 102.959 421.348 Q101.131 423.501 101.131 427.228 Q101.131 430.978 102.959 433.131 Q104.811 435.283 107.959 435.283 Z" fill="#000000" fill-rule="nonzero" fill-opacity="1" /><path clip-path="url(#clip060)" d="M55.506 172.822 L63.1448 172.822 L63.1448 146.456 L54.8347 148.123 L54.8347 143.864 L63.0985 142.197 L67.7744 142.197 L67.7744 172.822 L75.4133 172.822 L75.4133 176.757 L55.506 176.757 L55.506 172.822 Z" fill="#000000" fill-rule="nonzero" fill-opacity="1" /><path clip-path="url(#clip060)" d="M84.8577 170.877 L89.7419 170.877 L89.7419 176.757 L84.8577 176.757 L84.8577 170.877 Z" fill="#000000" fill-rule="nonzero" fill-opacity="1" /><path clip-path="url(#clip060)" d="M103.955 172.822 L120.274 172.822 L120.274 176.757 L98.3298 176.757 L98.3298 172.822 Q100.992 170.067 105.575 165.438 Q110.182 160.785 111.362 159.442 Q113.608 156.919 114.487 155.183 Q115.39 153.424 115.39 151.734 Q115.39 148.979 113.445 147.243 Q111.524 145.507 108.422 145.507 Q106.223 145.507 103.77 146.271 Q101.339 147.035 98.5613 148.586 L98.5613 143.864 Q101.385 142.729 103.839 142.151 Q106.293 141.572 108.33 141.572 Q113.7 141.572 116.895 144.257 Q120.089 146.942 120.089 151.433 Q120.089 153.563 119.279 155.484 Q118.492 157.382 116.385 159.975 Q115.807 160.646 112.705 163.863 Q109.603 167.058 103.955 172.822 Z" fill="#000000" fill-rule="nonzero" fill-opacity="1" /><polyline clip-path="url(#clip062)" style="stroke:#009af9; stroke-linecap:round; stroke-linejoin:round; stroke-width:16; stroke-opacity:1; fill:none" stroke-dasharray="8, 16" points="218.439,1117.18 228.852,1103.21 239.264,1090.18 249.677,1079.19 260.09,1071.82 270.503,1070.07 280.916,1076.13 291.329,1091.66 301.741,1116.67 312.154,1148.45 322.567,1181.72 332.98,1210.96 343.393,1234.33 353.805,1255.9 364.218,1282.73 374.631,1317.88 385.044,1356.4 395.457,1389.54 405.87,1412.25 416.282,1425.56 426.695,1433.01 437.108,1436.66 447.521,1436.13 457.934,1430.1 468.347,1417.89 478.759,1399.94 489.172,1377.26 499.585,1350.79 509.998,1321.38 520.411,1289.98 530.824,1257.7 541.236,1225.35 551.649,1193.46 562.062,1162.77 572.475,1134.78 582.888,1111.41 593.301,1094.08 603.713,1083.04 614.126,1077.44 624.539,1076.31 634.952,1079.42 645.365,1087.58 655.777,1101.91 666.19,1122.73 676.603,1148.99 687.016,1178.82 697.429,1210.66 707.842,1243.55 718.254,1276.35 728.667,1307.25 739.08,1334.98 749.493,1360.5 759.906,1386.05 770.319,1411.56 780.731,1432.88 791.144,1444.68 801.557,1444.69 811.97,1433.74 822.383,1413.47 832.796,1389.15 843.208,1372.79 853.621,1372.63 864.034,1377.74 874.447,1362.22 884.86,1312.21 895.273,1246.69 905.685,1198.48 916.098,1175.17 926.511,1156.31 936.924,1128.46 947.337,1101.89 957.749,1088.13 968.162,1082.32 978.575,1074.46 988.988,1065.49 999.401,1065.52 1009.81,1080.94 1020.23,1107.85 1030.64,1136.7 1041.05,1162.47 1051.46,1188.26 1061.88,1218.18 1072.29,1251.48 1082.7,1283.97 1093.12,1313.61 1103.53,1343.8 1113.94,1377.48 1124.35,1409.96 1134.77,1431.08 1145.18,1433.78 1155.59,1421.14 1166.01,1405.85 1176.42,1400.95 1186.83,1410.66 1197.24,1429.48 1207.66,1445.72 1218.07,1440.54 1228.48,1381.25 1238.9,1222.71 1249.31,947.28 1259.72,629.565 1270.13,401.879 1280.55,316.974 1290.96,323.199 1301.37,351.474 1311.79,363.51 1322.2,353.141 1332.61,335.396 1343.02,325.614 1353.44,323.673 1363.85,323.432 1374.26,322.347 1384.68,320.11 1395.09,324.469 1405.5,343.061 1415.91,369.697 1426.33,390.339 1436.74,394.796 1447.15,380.682 1457.57,352.415 1467.98,319.713 1478.39,294.757 1488.8,285.93 1499.22,292.725 1509.63,309.221 1520.04,331.607 1530.45,358.37 1540.87,384.95 1551.28,402.5 1561.69,405.151 1572.11,398.701 1582.52,387.873 1592.93,357.482 1603.34,300.853 1613.76,248.116 1624.17,234.518 1634.58,266.701 1645,326.847 1655.41,390.104 1665.82,436.133 1676.23,453.155 1686.65,438.566 1697.06,397.784 1707.47,341.36 1717.89,282.658 1728.3,236.771 1738.71,217.885 1749.12,234.583 1759.54,285.349 1769.95,357.61 1780.36,431.568 1790.78,485.581 1801.19,500.774 1811.6,466.693 1822.01,388.395 1832.43,289.966 1842.84,207.33 1853.25,170.225 1863.67,186.396 1874.08,242.94 1884.49,320.583 1894.9,403.419 1905.32,477.34 1915.73,524.889 1926.14,526.215 1936.56,469.177 1946.97,362.432 1957.38,239.627 1967.79,147.177 1978.21,120.779 1988.62,166.677 1999.03,261.979 2009.45,371.905 2019.86,467.328 2030.27,530.487 2040.68,551.098 2051.1,521.794 2061.51,439.942 2071.92,317.239 2082.33,188.44 2092.75,102.722 2103.16,95.7226 2113.57,168.568 2123.99,293.983 2134.4,433.321 2144.81,545.091 2155.22,593.608 2165.64,563.687 2176.05,467.008 2186.46,336.262 2196.88,214.552 2207.29,140.146 2217.7,130.013 2228.11,175.215 2238.53,251.994 2248.94,336.892 2259.35,414.843 2269.77,479.496 2280.18,530.24 2290.59,569.25 "/>
<polyline clip-path="url(#clip062)" style="stroke:#e26f46; stroke-linecap:round; stroke-linejoin:round; stroke-width:4; stroke-opacity:1; fill:none" points="218.439,1117.94 228.852,1098.48 239.264,1084.13 249.677,1075.37 260.09,1072.47 270.503,1075.52 280.916,1084.44 291.329,1098.93 301.741,1118.51 312.154,1142.55 322.567,1170.26 332.98,1200.74 343.393,1232.99 353.805,1265.96 364.218,1298.58 374.631,1329.78 385.044,1358.53 395.457,1383.91 405.87,1405.09 416.282,1421.37 426.695,1432.22 437.108,1437.29 447.521,1436.41 457.934,1429.62 468.347,1417.12 478.759,1399.34 489.172,1376.85 499.585,1350.38 509.998,1320.8 520.411,1289.08 530.824,1256.25 541.236,1223.38 551.649,1191.54 562.062,1161.78 572.475,1135.06 582.888,1112.25 593.301,1094.11 603.713,1081.22 614.126,1074.01 624.539,1072.7 634.952,1077.35 645.365,1087.79 655.777,1103.7 666.19,1124.54 676.603,1149.65 687.016,1178.2 697.429,1209.25 707.842,1241.8 718.254,1274.78 728.667,1307.12 739.08,1337.76 749.493,1365.7 759.906,1390.03 770.319,1409.96 780.731,1424.83 791.144,1434.16 801.557,1437.64 811.97,1435.17 822.383,1426.81 832.796,1412.85 843.208,1393.75 853.621,1370.11 864.034,1342.72 874.447,1312.47 884.86,1280.35 895.273,1247.4 905.685,1214.7 916.098,1183.32 926.511,1154.28 936.924,1128.53 947.337,1106.91 957.749,1090.12 968.162,1078.72 978.575,1073.07 988.988,1073.37 999.401,1079.59 1009.81,1091.54 1020.23,1108.83 1030.64,1130.89 1041.05,1157 1051.46,1186.31 1061.88,1217.87 1072.29,1250.64 1082.7,1283.55 1093.12,1315.54 1103.53,1345.55 1113.94,1372.61 1124.35,1395.83 1134.77,1414.46 1145.18,1427.89 1155.59,1435.67 1166.01,1437.56 1176.42,1433.5 1186.83,1423.61 1197.24,1408.22 1207.66,1387.83 1218.07,1363.11 1228.48,1334.86 1238.9,1304.01 1249.31,1271.56 1259.72,340.749 1270.13,339.24 1280.55,340.613 1290.96,345.185 1301.37,351.554 1311.79,357.029 1322.2,358.651 1332.61,354.438 1343.02,344.395 1353.44,330.856 1363.85,317.973 1374.26,310.446 1384.68,311.89 1395.09,323.373 1405.5,342.688 1415.91,364.67 1426.33,382.57 1436.74,390.12 1447.15,383.657 1457.57,363.602 1467.98,334.756 1478.39,305.194 1488.8,284.007 1499.22,278.518 1509.63,291.824 1520.04,321.467 1530.45,359.75 1540.87,395.713 1551.28,418.267 1561.69,419.603 1572.11,397.813 1582.52,357.878 1592.93,310.607 1603.34,269.716 1613.76,247.858 1624.17,252.718 1634.58,284.408 1645,335 1655.41,390.461 1665.82,434.546 1676.23,453.553 1686.65,440.556 1697.06,397.816 1707.47,336.557 1717.89,274.044 1728.3,228.717 1738.71,214.757 1749.12,237.679 1759.54,292.315 1769.95,363.889 1780.36,432.001 1790.78,476.438 1801.19,483.169 1811.6,448.737 1822.01,381.692 1832.43,300.519 1842.84,228.553 1853.25,187.267 1863.67,189.877 1874.08,237.154 1884.49,316.767 1894.9,406.463 1905.32,480.285 1915.73,516.082 1926.14,502.142 1936.56,440.973 1946.97,349.005 1957.38,252.204 1967.79,178.741 1978.21,150.796 1988.62,177.877 1999.03,253.66 2009.45,357.392 2019.86,459.557 2030.27,530.275 2040.68,548.038 2051.1,506.231 2061.51,415.467 2071.92,300.943 2082.33,195.447 2092.75,129.979 2103.16,124.638 2113.57,182.485 2123.99,288.217 2134.4,412.191 2144.81,518.727 2155.22,576.375 2165.64,567.196 2176.05,492.311 2186.46,372.014 2196.88,240.29 2207.29,135.222 2217.7,87.9763 2228.11,113.571 2238.53,206.141 2248.94,340.2 2259.35,477.64 2269.77,578.569 2280.18,612.877 2290.59,569.22 "/>
<path clip-path="url(#clip060)" d="M229.49 250.738 L675.966 250.738 L675.966 95.2176 L229.49 95.2176  Z" fill="#ffffff" fill-rule="evenodd" fill-opacity="1"/>
<polyline clip-path="url(#clip060)" style="stroke:#000000; stroke-linecap:round; stroke-linejoin:round; stroke-width:4; stroke-opacity:1; fill:none" points="229.49,250.738 675.966,250.738 675.966,95.2176 229.49,95.2176 229.49,250.738 "/>
<polyline clip-path="url(#clip060)" style="stroke:#009af9; stroke-linecap:round; stroke-linejoin:round; stroke-width:16; stroke-opacity:1; fill:none" stroke-dasharray="8, 16" points="253.896,147.058 400.328,147.058 "/>
<path clip-path="url(#clip060)" d="M429.409 133.62 L429.409 146.606 L435.289 146.606 Q438.552 146.606 440.335 144.916 Q442.117 143.227 442.117 140.102 Q442.117 137 440.335 135.31 Q438.552 133.62 435.289 133.62 L429.409 133.62 M424.733 129.778 L435.289 129.778 Q441.099 129.778 444.062 132.416 Q447.048 135.032 447.048 140.102 Q447.048 145.217 444.062 147.833 Q441.099 150.449 435.289 150.449 L429.409 150.449 L429.409 164.338 L424.733 164.338 L424.733 129.778 Z" fill="#000000" fill-rule="nonzero" fill-opacity="1" /><path clip-path="url(#clip060)" d="M467.325 142.393 Q466.608 141.977 465.751 141.791 Q464.918 141.583 463.899 141.583 Q460.288 141.583 458.344 143.944 Q456.423 146.282 456.423 150.68 L456.423 164.338 L452.14 164.338 L452.14 138.412 L456.423 138.412 L456.423 142.44 Q457.765 140.078 459.918 138.944 Q462.071 137.787 465.149 137.787 Q465.589 137.787 466.122 137.856 Q466.654 137.903 467.302 138.018 L467.325 142.393 Z" fill="#000000" fill-rule="nonzero" fill-opacity="1" /><path clip-path="url(#clip060)" d="M492.927 150.31 L492.927 152.393 L473.344 152.393 Q473.622 156.791 475.983 159.106 Q478.367 161.398 482.603 161.398 Q485.057 161.398 487.348 160.796 Q489.663 160.194 491.932 158.99 L491.932 163.018 Q489.64 163.99 487.233 164.5 Q484.825 165.009 482.348 165.009 Q476.145 165.009 472.511 161.398 Q468.899 157.787 468.899 151.629 Q468.899 145.264 472.325 141.537 Q475.774 137.787 481.608 137.787 Q486.839 137.787 489.872 141.166 Q492.927 144.523 492.927 150.31 M488.668 149.06 Q488.622 145.565 486.7 143.481 Q484.802 141.398 481.654 141.398 Q478.089 141.398 475.936 143.412 Q473.807 145.426 473.483 149.083 L488.668 149.06 Z" fill="#000000" fill-rule="nonzero" fill-opacity="1" /><path clip-path="url(#clip060)" d="M516.978 142.347 L516.978 128.319 L521.237 128.319 L521.237 164.338 L516.978 164.338 L516.978 160.449 Q515.635 162.763 513.575 163.898 Q511.538 165.009 508.668 165.009 Q503.969 165.009 501.006 161.259 Q498.066 157.509 498.066 151.398 Q498.066 145.287 501.006 141.537 Q503.969 137.787 508.668 137.787 Q511.538 137.787 513.575 138.921 Q515.635 140.032 516.978 142.347 M502.464 151.398 Q502.464 156.097 504.385 158.782 Q506.33 161.444 509.709 161.444 Q513.089 161.444 515.033 158.782 Q516.978 156.097 516.978 151.398 Q516.978 146.699 515.033 144.037 Q513.089 141.352 509.709 141.352 Q506.33 141.352 504.385 144.037 Q502.464 146.699 502.464 151.398 Z" fill="#000000" fill-rule="nonzero" fill-opacity="1" /><path clip-path="url(#clip060)" d="M530.01 138.412 L534.269 138.412 L534.269 164.338 L530.01 164.338 L530.01 138.412 M530.01 128.319 L534.269 128.319 L534.269 133.713 L530.01 133.713 L530.01 128.319 Z" fill="#000000" fill-rule="nonzero" fill-opacity="1" /><path clip-path="url(#clip060)" d="M561.839 139.407 L561.839 143.389 Q560.033 142.393 558.205 141.907 Q556.399 141.398 554.547 141.398 Q550.404 141.398 548.112 144.037 Q545.82 146.652 545.82 151.398 Q545.82 156.143 548.112 158.782 Q550.404 161.398 554.547 161.398 Q556.399 161.398 558.205 160.912 Q560.033 160.402 561.839 159.407 L561.839 163.342 Q560.056 164.176 558.135 164.592 Q556.237 165.009 554.084 165.009 Q548.228 165.009 544.779 161.328 Q541.33 157.648 541.33 151.398 Q541.33 145.055 544.802 141.421 Q548.297 137.787 554.362 137.787 Q556.33 137.787 558.205 138.203 Q560.08 138.597 561.839 139.407 Z" fill="#000000" fill-rule="nonzero" fill-opacity="1" /><path clip-path="url(#clip060)" d="M573.459 131.051 L573.459 138.412 L582.232 138.412 L582.232 141.722 L573.459 141.722 L573.459 155.796 Q573.459 158.967 574.316 159.87 Q575.195 160.773 577.857 160.773 L582.232 160.773 L582.232 164.338 L577.857 164.338 Q572.927 164.338 571.052 162.509 Q569.177 160.657 569.177 155.796 L569.177 141.722 L566.052 141.722 L566.052 138.412 L569.177 138.412 L569.177 131.051 L573.459 131.051 Z" fill="#000000" fill-rule="nonzero" fill-opacity="1" /><path clip-path="url(#clip060)" d="M587.834 138.412 L592.093 138.412 L592.093 164.338 L587.834 164.338 L587.834 138.412 M587.834 128.319 L592.093 128.319 L592.093 133.713 L587.834 133.713 L587.834 128.319 Z" fill="#000000" fill-rule="nonzero" fill-opacity="1" /><path clip-path="url(#clip060)" d="M611.051 141.398 Q607.626 141.398 605.635 144.083 Q603.644 146.745 603.644 151.398 Q603.644 156.051 605.612 158.736 Q607.602 161.398 611.051 161.398 Q614.454 161.398 616.445 158.713 Q618.436 156.027 618.436 151.398 Q618.436 146.791 616.445 144.106 Q614.454 141.398 611.051 141.398 M611.051 137.787 Q616.607 137.787 619.778 141.398 Q622.95 145.009 622.95 151.398 Q622.95 157.764 619.778 161.398 Q616.607 165.009 611.051 165.009 Q605.473 165.009 602.302 161.398 Q599.153 157.764 599.153 151.398 Q599.153 145.009 602.302 141.398 Q605.473 137.787 611.051 137.787 Z" fill="#000000" fill-rule="nonzero" fill-opacity="1" /><path clip-path="url(#clip060)" d="M651.561 148.689 L651.561 164.338 L647.301 164.338 L647.301 148.828 Q647.301 145.148 645.866 143.319 Q644.431 141.49 641.561 141.49 Q638.112 141.49 636.121 143.69 Q634.13 145.889 634.13 149.685 L634.13 164.338 L629.848 164.338 L629.848 138.412 L634.13 138.412 L634.13 142.44 Q635.658 140.102 637.718 138.944 Q639.801 137.787 642.51 137.787 Q646.977 137.787 649.269 140.565 Q651.561 143.319 651.561 148.689 Z" fill="#000000" fill-rule="nonzero" fill-opacity="1" /><polyline clip-path="url(#clip060)" style="stroke:#e26f46; stroke-linecap:round; stroke-linejoin:round; stroke-width:4; stroke-opacity:1; fill:none" points="253.896,198.898 400.328,198.898 "/>
<path clip-path="url(#clip060)" d="M424.733 181.618 L446.585 181.618 L446.585 185.553 L429.409 185.553 L429.409 195.784 L445.867 195.784 L445.867 199.719 L429.409 199.719 L429.409 212.242 L447.001 212.242 L447.001 216.178 L424.733 216.178 L424.733 181.618 Z" fill="#000000" fill-rule="nonzero" fill-opacity="1" /><path clip-path="url(#clip060)" d="M476.052 190.252 L466.677 202.867 L476.538 216.178 L471.515 216.178 L463.969 205.992 L456.423 216.178 L451.4 216.178 L461.469 202.613 L452.256 190.252 L457.279 190.252 L464.154 199.488 L471.029 190.252 L476.052 190.252 Z" fill="#000000" fill-rule="nonzero" fill-opacity="1" /><path clip-path="url(#clip060)" d="M494.339 203.145 Q489.177 203.145 487.186 204.326 Q485.196 205.506 485.196 208.354 Q485.196 210.622 486.677 211.965 Q488.182 213.284 490.751 213.284 Q494.293 213.284 496.422 210.784 Q498.575 208.261 498.575 204.094 L498.575 203.145 L494.339 203.145 M502.834 201.386 L502.834 216.178 L498.575 216.178 L498.575 212.242 Q497.117 214.603 494.941 215.738 Q492.765 216.849 489.617 216.849 Q485.635 216.849 483.274 214.627 Q480.936 212.381 480.936 208.631 Q480.936 204.256 483.853 202.034 Q486.793 199.812 492.603 199.812 L498.575 199.812 L498.575 199.395 Q498.575 196.455 496.631 194.858 Q494.71 193.238 491.214 193.238 Q488.992 193.238 486.885 193.77 Q484.779 194.303 482.835 195.367 L482.835 191.432 Q485.173 190.53 487.372 190.09 Q489.571 189.627 491.654 189.627 Q497.279 189.627 500.057 192.543 Q502.834 195.46 502.834 201.386 Z" fill="#000000" fill-rule="nonzero" fill-opacity="1" /><path clip-path="url(#clip060)" d="M530.265 191.247 L530.265 195.229 Q528.459 194.233 526.631 193.747 Q524.825 193.238 522.973 193.238 Q518.83 193.238 516.538 195.877 Q514.246 198.492 514.246 203.238 Q514.246 207.983 516.538 210.622 Q518.83 213.238 522.973 213.238 Q524.825 213.238 526.631 212.752 Q528.459 212.242 530.265 211.247 L530.265 215.182 Q528.482 216.016 526.561 216.432 Q524.663 216.849 522.51 216.849 Q516.654 216.849 513.205 213.168 Q509.756 209.488 509.756 203.238 Q509.756 196.895 513.228 193.261 Q516.723 189.627 522.788 189.627 Q524.756 189.627 526.631 190.043 Q528.506 190.437 530.265 191.247 Z" fill="#000000" fill-rule="nonzero" fill-opacity="1" /><path clip-path="url(#clip060)" d="M541.885 182.891 L541.885 190.252 L550.658 190.252 L550.658 193.562 L541.885 193.562 L541.885 207.636 Q541.885 210.807 542.742 211.71 Q543.621 212.613 546.283 212.613 L550.658 212.613 L550.658 216.178 L546.283 216.178 Q541.353 216.178 539.478 214.349 Q537.603 212.497 537.603 207.636 L537.603 193.562 L534.478 193.562 L534.478 190.252 L537.603 190.252 L537.603 182.891 L541.885 182.891 Z" fill="#000000" fill-rule="nonzero" fill-opacity="1" /></svg>
