<?xml version="1.0" encoding="utf-8"?>
<svg xmlns="http://www.w3.org/2000/svg" xmlns:xlink="http://www.w3.org/1999/xlink" width="600" height="400" viewBox="0 0 2400 1600">
<defs>
  <clipPath id="clip030">
    <rect x="0" y="0" width="2400" height="1600"/>
  </clipPath>
</defs>
<path clip-path="url(#clip030)" d="M0 1600 L2400 1600 L2400 0 L0 0  Z" fill="#ffffff" fill-rule="evenodd" fill-opacity="1"/>
<defs>
  <clipPath id="clip031">
    <rect x="480" y="0" width="1681" height="1600"/>
  </clipPath>
</defs>
<path clip-path="url(#clip030)" d="M156.274 1486.45 L2352.76 1486.45 L2352.76 47.2441 L156.274 47.2441  Z" fill="#ffffff" fill-rule="evenodd" fill-opacity="1"/>
<defs>
  <clipPath id="clip032">
    <rect x="156" y="47" width="2197" height="1440"/>
  </clipPath>
</defs>
<polyline clip-path="url(#clip032)" style="stroke:#000000; stroke-linecap:round; stroke-linejoin:round; stroke-width:2; stroke-opacity:0.1; fill:none" points="218.439,1486.45 218.439,47.2441 "/>
<polyline clip-path="url(#clip032)" style="stroke:#000000; stroke-linecap:round; stroke-linejoin:round; stroke-width:2; stroke-opacity:0.1; fill:none" points="736.477,1486.45 736.477,47.2441 "/>
<polyline clip-path="url(#clip032)" style="stroke:#000000; stroke-linecap:round; stroke-linejoin:round; stroke-width:2; stroke-opacity:0.1; fill:none" points="1254.52,1486.45 1254.52,47.2441 "/>
<polyline clip-path="url(#clip032)" style="stroke:#000000; stroke-linecap:round; stroke-linejoin:round; stroke-width:2; stroke-opacity:0.1; fill:none" points="1772.55,1486.45 1772.55,47.2441 "/>
<polyline clip-path="url(#clip032)" style="stroke:#000000; stroke-linecap:round; stroke-linejoin:round; stroke-width:2; stroke-opacity:0.1; fill:none" points="2290.59,1486.45 2290.59,47.2441 "/>
<polyline clip-path="url(#clip030)" style="stroke:#000000; stroke-linecap:round; stroke-linejoin:round; stroke-width:4; stroke-opacity:1; fill:none" points="156.274,1486.45 2352.76,1486.45 "/>
<polyline clip-path="url(#clip030)" style="stroke:#000000; stroke-linecap:round; stroke-linejoin:round; stroke-width:4; stroke-opacity:1; fill:none" points="218.439,1486.45 218.439,1467.55 "/>
<polyline clip-path="url(#clip030)" style="stroke:#000000; stroke-linecap:round; stroke-linejoin:round; stroke-width:4; stroke-opacity:1; fill:none" points="736.477,1486.45 736.477,1467.55 "/>
<polyline clip-path="url(#clip030)" style="stroke:#000000; stroke-linecap:round; stroke-linejoin:round; stroke-width:4; stroke-opacity:1; fill:none" points="1254.52,1486.45 1254.52,1467.55 "/>
<polyline clip-path="url(#clip030)" style="stroke:#000000; stroke-linecap:round; stroke-linejoin:round; stroke-width:4; stroke-opacity:1; fill:none" points="1772.55,1486.45 1772.55,1467.55 "/>
<polyline clip-path="url(#clip030)" style="stroke:#000000; stroke-linecap:round; stroke-linejoin:round; stroke-width:4; stroke-opacity:1; fill:none" points="2290.59,1486.45 2290.59,1467.55 "/>
<path clip-path="url(#clip030)" d="M164.967 1532.02 L194.643 1532.02 L194.643 1535.95 L164.967 1535.95 L164.967 1532.02 Z" fill="#000000" fill-rule="nonzero" fill-opacity="1" /><path clip-path="url(#clip030)" d="M205.545 1544.91 L213.184 1544.91 L213.184 1518.55 L204.874 1520.21 L204.874 1515.95 L213.138 1514.29 L217.814 1514.29 L217.814 1544.91 L225.453 1544.91 L225.453 1548.85 L205.545 1548.85 L205.545 1544.91 Z" fill="#000000" fill-rule="nonzero" fill-opacity="1" /><path clip-path="url(#clip030)" d="M234.897 1542.97 L239.781 1542.97 L239.781 1548.85 L234.897 1548.85 L234.897 1542.97 Z" fill="#000000" fill-rule="nonzero" fill-opacity="1" /><path clip-path="url(#clip030)" d="M259.966 1517.37 Q256.355 1517.37 254.527 1520.93 Q252.721 1524.47 252.721 1531.6 Q252.721 1538.71 254.527 1542.27 Q256.355 1545.82 259.966 1545.82 Q263.601 1545.82 265.406 1542.27 Q267.235 1538.71 267.235 1531.6 Q267.235 1524.47 265.406 1520.93 Q263.601 1517.37 259.966 1517.37 M259.966 1513.66 Q265.776 1513.66 268.832 1518.27 Q271.911 1522.85 271.911 1531.6 Q271.911 1540.33 268.832 1544.94 Q265.776 1549.52 259.966 1549.52 Q254.156 1549.52 251.077 1544.94 Q248.022 1540.33 248.022 1531.6 Q248.022 1522.85 251.077 1518.27 Q254.156 1513.66 259.966 1513.66 Z" fill="#000000" fill-rule="nonzero" fill-opacity="1" /><path clip-path="url(#clip030)" d="M683.503 1532.02 L713.178 1532.02 L713.178 1535.95 L683.503 1535.95 L683.503 1532.02 Z" fill="#000000" fill-rule="nonzero" fill-opacity="1" /><path clip-path="url(#clip030)" d="M733.271 1517.37 Q729.66 1517.37 727.831 1520.93 Q726.026 1524.47 726.026 1531.6 Q726.026 1538.71 727.831 1542.27 Q729.66 1545.82 733.271 1545.82 Q736.905 1545.82 738.711 1542.27 Q740.539 1538.71 740.539 1531.6 Q740.539 1524.47 738.711 1520.93 Q736.905 1517.37 733.271 1517.37 M733.271 1513.66 Q739.081 1513.66 742.137 1518.27 Q745.215 1522.85 745.215 1531.6 Q745.215 1540.33 742.137 1544.94 Q739.081 1549.52 733.271 1549.52 Q727.461 1549.52 724.382 1544.94 Q721.327 1540.33 721.327 1531.6 Q721.327 1522.85 724.382 1518.27 Q727.461 1513.66 733.271 1513.66 Z" fill="#000000" fill-rule="nonzero" fill-opacity="1" /><path clip-path="url(#clip030)" d="M753.433 1542.97 L758.317 1542.97 L758.317 1548.85 L753.433 1548.85 L753.433 1542.97 Z" fill="#000000" fill-rule="nonzero" fill-opacity="1" /><path clip-path="url(#clip030)" d="M768.548 1514.29 L786.905 1514.29 L786.905 1518.22 L772.831 1518.22 L772.831 1526.7 Q773.849 1526.35 774.868 1526.19 Q775.886 1526 776.905 1526 Q782.692 1526 786.072 1529.17 Q789.451 1532.34 789.451 1537.76 Q789.451 1543.34 785.979 1546.44 Q782.507 1549.52 776.187 1549.52 Q774.011 1549.52 771.743 1549.15 Q769.498 1548.78 767.09 1548.04 L767.09 1543.34 Q769.173 1544.47 771.396 1545.03 Q773.618 1545.58 776.095 1545.58 Q780.099 1545.58 782.437 1543.48 Q784.775 1541.37 784.775 1537.76 Q784.775 1534.15 782.437 1532.04 Q780.099 1529.94 776.095 1529.94 Q774.22 1529.94 772.345 1530.35 Q770.493 1530.77 768.548 1531.65 L768.548 1514.29 Z" fill="#000000" fill-rule="nonzero" fill-opacity="1" /><path clip-path="url(#clip030)" d="M1231.9 1517.37 Q1228.29 1517.37 1226.46 1520.93 Q1224.65 1524.47 1224.65 1531.6 Q1224.65 1538.71 1226.46 1542.27 Q1228.29 1545.82 1231.9 1545.82 Q1235.53 1545.82 1237.34 1542.27 Q1239.17 1538.71 1239.17 1531.6 Q1239.17 1524.47 1237.34 1520.93 Q1235.53 1517.37 1231.9 1517.37 M1231.9 1513.66 Q1237.71 1513.66 1240.77 1518.27 Q1243.84 1522.85 1243.84 1531.6 Q1243.84 1540.33 1240.77 1544.94 Q1237.71 1549.52 1231.9 1549.52 Q1226.09 1549.52 1223.01 1544.94 Q1219.96 1540.33 1219.96 1531.6 Q1219.96 1522.85 1223.01 1518.27 Q1226.09 1513.66 1231.9 1513.66 Z" fill="#000000" fill-rule="nonzero" fill-opacity="1" /><path clip-path="url(#clip030)" d="M1252.06 1542.97 L1256.95 1542.97 L1256.95 1548.85 L1252.06 1548.85 L1252.06 1542.97 Z" fill="#000000" fill-rule="nonzero" fill-opacity="1" /><path clip-path="url(#clip030)" d="M1277.13 1517.37 Q1273.52 1517.37 1271.69 1520.93 Q1269.89 1524.47 1269.89 1531.6 Q1269.89 1538.71 1271.69 1542.27 Q1273.52 1545.82 1277.13 1545.82 Q1280.76 1545.82 1282.57 1542.27 Q1284.4 1538.71 1284.4 1531.6 Q1284.4 1524.47 1282.57 1520.93 Q1280.76 1517.37 1277.13 1517.37 M1277.13 1513.66 Q1282.94 1513.66 1286 1518.27 Q1289.08 1522.85 1289.08 1531.6 Q1289.08 1540.33 1286 1544.94 Q1282.94 1549.52 1277.13 1549.52 Q1271.32 1549.52 1268.24 1544.94 Q1265.19 1540.33 1265.19 1531.6 Q1265.19 1522.85 1268.24 1518.27 Q1271.32 1513.66 1277.13 1513.66 Z" fill="#000000" fill-rule="nonzero" fill-opacity="1" /><path clip-path="url(#clip030)" d="M1750.44 1517.37 Q1746.82 1517.37 1745 1520.93 Q1743.19 1524.47 1743.19 1531.6 Q1743.19 1538.71 1745 1542.27 Q1746.82 1545.82 1750.44 1545.82 Q1754.07 1545.82 1755.88 1542.27 Q1757.7 1538.71 1757.7 1531.6 Q1757.7 1524.47 1755.88 1520.93 Q1754.07 1517.37 1750.44 1517.37 M1750.44 1513.66 Q1756.25 1513.66 1759.3 1518.27 Q1762.38 1522.85 1762.38 1531.6 Q1762.38 1540.33 1759.3 1544.94 Q1756.25 1549.52 1750.44 1549.52 Q1744.63 1549.52 1741.55 1544.94 Q1738.49 1540.33 1738.49 1531.6 Q1738.49 1522.85 1741.55 1518.27 Q1744.63 1513.66 1750.44 1513.66 Z" fill="#000000" fill-rule="nonzero" fill-opacity="1" /><path clip-path="url(#clip030)" d="M1770.6 1542.97 L1775.48 1542.97 L1775.48 1548.85 L1770.6 1548.85 L1770.6 1542.97 Z" fill="#000000" fill-rule="nonzero" fill-opacity="1" /><path clip-path="url(#clip030)" d="M1785.71 1514.29 L1804.07 1514.29 L1804.07 1518.22 L1790 1518.22 L1790 1526.7 Q1791.01 1526.35 1792.03 1526.19 Q1793.05 1526 1794.07 1526 Q1799.86 1526 1803.24 1529.17 Q1806.62 1532.34 1806.62 1537.76 Q1806.62 1543.34 1803.14 1546.44 Q1799.67 1549.52 1793.35 1549.52 Q1791.18 1549.52 1788.91 1549.15 Q1786.66 1548.78 1784.25 1548.04 L1784.25 1543.34 Q1786.34 1544.47 1788.56 1545.03 Q1790.78 1545.58 1793.26 1545.58 Q1797.26 1545.58 1799.6 1543.48 Q1801.94 1541.37 1801.94 1537.76 Q1801.94 1534.15 1799.6 1532.04 Q1797.26 1529.94 1793.26 1529.94 Q1791.38 1529.94 1789.51 1530.35 Q1787.66 1530.77 1785.71 1531.65 L1785.71 1514.29 Z" fill="#000000" fill-rule="nonzero" fill-opacity="1" /><path clip-path="url(#clip030)" d="M2257.74 1544.91 L2265.38 1544.91 L2265.38 1518.55 L2257.07 1520.21 L2257.07 1515.95 L2265.34 1514.29 L2270.01 1514.29 L2270.01 1544.91 L2277.65 1544.91 L2277.65 1548.85 L2257.74 1548.85 L2257.74 1544.91 Z" fill="#000000" fill-rule="nonzero" fill-opacity="1" /><path clip-path="url(#clip030)" d="M2287.1 1542.97 L2291.98 1542.97 L2291.98 1548.85 L2287.1 1548.85 L2287.1 1542.97 Z" fill="#000000" fill-rule="nonzero" fill-opacity="1" /><path clip-path="url(#clip030)" d="M2312.17 1517.37 Q2308.55 1517.37 2306.73 1520.93 Q2304.92 1524.47 2304.92 1531.6 Q2304.92 1538.71 2306.73 1542.27 Q2308.55 1545.82 2312.17 1545.82 Q2315.8 1545.82 2317.61 1542.27 Q2319.43 1538.71 2319.43 1531.6 Q2319.43 1524.47 2317.61 1520.93 Q2315.8 1517.37 2312.17 1517.37 M2312.17 1513.66 Q2317.98 1513.66 2321.03 1518.27 Q2324.11 1522.85 2324.11 1531.6 Q2324.11 1540.33 2321.03 1544.94 Q2317.98 1549.52 2312.17 1549.52 Q2306.36 1549.52 2303.28 1544.94 Q2300.22 1540.33 2300.22 1531.6 Q2300.22 1522.85 2303.28 1518.27 Q2306.36 1513.66 2312.17 1513.66 Z" fill="#000000" fill-rule="nonzero" fill-opacity="1" /><polyline clip-path="url(#clip032)" style="stroke:#000000; stroke-linecap:round; stroke-linejoin:round; stroke-width:2; stroke-opacity:0.1; fill:none" points="156.274,1237.29 2352.76,1237.29 "/>
<polyline clip-path="url(#clip032)" style="stroke:#000000; stroke-linecap:round; stroke-linejoin:round; stroke-width:2; stroke-opacity:0.1; fill:none" points="156.274,967.566 2352.76,967.566 "/>
<polyline clip-path="url(#clip032)" style="stroke:#000000; stroke-linecap:round; stroke-linejoin:round; stroke-width:2; stroke-opacity:0.1; fill:none" points="156.274,697.84 2352.76,697.84 "/>
<polyline clip-path="url(#clip032)" style="stroke:#000000; stroke-linecap:round; stroke-linejoin:round; stroke-width:2; stroke-opacity:0.1; fill:none" points="156.274,428.114 2352.76,428.114 "/>
<polyline clip-path="url(#clip032)" style="stroke:#000000; stroke-linecap:round; stroke-linejoin:round; stroke-width:2; stroke-opacity:0.1; fill:none" points="156.274,158.388 2352.76,158.388 "/>
<polyline clip-path="url(#clip030)" style="stroke:#000000; stroke-linecap:round; stroke-linejoin:round; stroke-width:4; stroke-opacity:1; fill:none" points="156.274,1486.45 156.274,47.2441 "/>
<polyline clip-path="url(#clip030)" style="stroke:#000000; stroke-linecap:round; stroke-linejoin:round; stroke-width:4; stroke-opacity:1; fill:none" points="156.274,1237.29 175.172,1237.29 "/>
<polyline clip-path="url(#clip030)" style="stroke:#000000; stroke-linecap:round; stroke-linejoin:round; stroke-width:4; stroke-opacity:1; fill:none" points="156.274,967.566 175.172,967.566 "/>
<polyline clip-path="url(#clip030)" style="stroke:#000000; stroke-linecap:round; stroke-linejoin:round; stroke-width:4; stroke-opacity:1; fill:none" points="156.274,697.84 175.172,697.84 "/>
<polyline clip-path="url(#clip030)" style="stroke:#000000; stroke-linecap:round; stroke-linejoin:round; stroke-width:4; stroke-opacity:1; fill:none" points="156.274,428.114 175.172,428.114 "/>
<polyline clip-path="url(#clip030)" style="stroke:#000000; stroke-linecap:round; stroke-linejoin:round; stroke-width:4; stroke-opacity:1; fill:none" points="156.274,158.388 175.172,158.388 "/>
<path clip-path="url(#clip030)" d="M63.0985 1223.09 Q59.4875 1223.09 57.6588 1226.66 Q55.8532 1230.2 55.8532 1237.33 Q55.8532 1244.43 57.6588 1248 Q59.4875 1251.54 63.0985 1251.54 Q66.7328 1251.54 68.5383 1248 Q70.367 1244.43 70.367 1237.33 Q70.367 1230.2 68.5383 1226.66 Q66.7328 1223.09 63.0985 1223.09 M63.0985 1219.39 Q68.9087 1219.39 71.9642 1223.99 Q75.0429 1228.58 75.0429 1237.33 Q75.0429 1246.05 71.9642 1250.66 Q68.9087 1255.24 63.0985 1255.24 Q57.2884 1255.24 54.2097 1250.66 Q51.1542 1246.05 51.1542 1237.33 Q51.1542 1228.58 54.2097 1223.99 Q57.2884 1219.39 63.0985 1219.39 Z" fill="#000000" fill-rule="nonzero" fill-opacity="1" /><path clip-path="url(#clip030)" d="M83.2605 1248.69 L88.1447 1248.69 L88.1447 1254.57 L83.2605 1254.57 L83.2605 1248.69 Z" fill="#000000" fill-rule="nonzero" fill-opacity="1" /><path clip-path="url(#clip030)" d="M108.33 1223.09 Q104.719 1223.09 102.89 1226.66 Q101.084 1230.2 101.084 1237.33 Q101.084 1244.43 102.89 1248 Q104.719 1251.54 108.33 1251.54 Q111.964 1251.54 113.77 1248 Q115.598 1244.43 115.598 1237.33 Q115.598 1230.2 113.77 1226.66 Q111.964 1223.09 108.33 1223.09 M108.33 1219.39 Q114.14 1219.39 117.195 1223.99 Q120.274 1228.58 120.274 1237.33 Q120.274 1246.05 117.195 1250.66 Q114.14 1255.24 108.33 1255.24 Q102.52 1255.24 99.4409 1250.66 Q96.3854 1246.05 96.3854 1237.33 Q96.3854 1228.58 99.4409 1223.99 Q102.52 1219.39 108.33 1219.39 Z" fill="#000000" fill-rule="nonzero" fill-opacity="1" /><path clip-path="url(#clip030)" d="M63.7467 953.365 Q60.1356 953.365 58.3069 956.93 Q56.5014 960.471 56.5014 967.601 Q56.5014 974.707 58.3069 978.272 Q60.1356 981.814 63.7467 981.814 Q67.3809 981.814 69.1865 978.272 Q71.0152 974.707 71.0152 967.601 Q71.0152 960.471 69.1865 956.93 Q67.3809 953.365 63.7467 953.365 M63.7467 949.661 Q69.5568 949.661 72.6124 954.268 Q75.6911 958.851 75.6911 967.601 Q75.6911 976.328 72.6124 980.934 Q69.5568 985.517 63.7467 985.517 Q57.9365 985.517 54.8578 980.934 Q51.8023 976.328 51.8023 967.601 Q51.8023 958.851 54.8578 954.268 Q57.9365 949.661 63.7467 949.661 Z" fill="#000000" fill-rule="nonzero" fill-opacity="1" /><path clip-path="url(#clip030)" d="M83.9086 978.967 L88.7928 978.967 L88.7928 984.846 L83.9086 984.846 L83.9086 978.967 Z" fill="#000000" fill-rule="nonzero" fill-opacity="1" /><path clip-path="url(#clip030)" d="M113.145 966.212 Q116.501 966.93 118.376 969.198 Q120.274 971.467 120.274 974.8 Q120.274 979.916 116.756 982.717 Q113.237 985.517 106.756 985.517 Q104.58 985.517 102.265 985.078 Q99.9733 984.661 97.5197 983.804 L97.5197 979.291 Q99.4641 980.425 101.779 981.004 Q104.094 981.582 106.617 981.582 Q111.015 981.582 113.307 979.846 Q115.621 978.11 115.621 974.8 Q115.621 971.744 113.469 970.031 Q111.339 968.295 107.52 968.295 L103.492 968.295 L103.492 964.453 L107.705 964.453 Q111.154 964.453 112.983 963.087 Q114.811 961.698 114.811 959.106 Q114.811 956.444 112.913 955.031 Q111.038 953.596 107.52 953.596 Q105.598 953.596 103.399 954.013 Q101.2 954.43 98.5613 955.309 L98.5613 951.143 Q101.223 950.402 103.538 950.032 Q105.876 949.661 107.936 949.661 Q113.26 949.661 116.362 952.092 Q119.464 954.499 119.464 958.619 Q119.464 961.49 117.82 963.481 Q116.177 965.448 113.145 966.212 Z" fill="#000000" fill-rule="nonzero" fill-opacity="1" /><path clip-path="url(#clip030)" d="M62.9365 683.639 Q59.3254 683.639 57.4967 687.204 Q55.6912 690.745 55.6912 697.875 Q55.6912 704.981 57.4967 708.546 Q59.3254 712.088 62.9365 712.088 Q66.5707 712.088 68.3763 708.546 Q70.205 704.981 70.205 697.875 Q70.205 690.745 68.3763 687.204 Q66.5707 683.639 62.9365 683.639 M62.9365 679.935 Q68.7467 679.935 71.8022 684.542 Q74.8809 689.125 74.8809 697.875 Q74.8809 706.602 71.8022 711.208 Q68.7467 715.791 62.9365 715.791 Q57.1264 715.791 54.0477 711.208 Q50.9921 706.602 50.9921 697.875 Q50.9921 689.125 54.0477 684.542 Q57.1264 679.935 62.9365 679.935 Z" fill="#000000" fill-rule="nonzero" fill-opacity="1" /><path clip-path="url(#clip030)" d="M83.0984 709.241 L87.9827 709.241 L87.9827 715.12 L83.0984 715.12 L83.0984 709.241 Z" fill="#000000" fill-rule="nonzero" fill-opacity="1" /><path clip-path="url(#clip030)" d="M108.746 695.977 Q105.598 695.977 103.746 698.13 Q101.918 700.282 101.918 704.032 Q101.918 707.759 103.746 709.935 Q105.598 712.088 108.746 712.088 Q111.895 712.088 113.723 709.935 Q115.575 707.759 115.575 704.032 Q115.575 700.282 113.723 698.13 Q111.895 695.977 108.746 695.977 M118.029 681.324 L118.029 685.583 Q116.27 684.75 114.464 684.31 Q112.682 683.87 110.922 683.87 Q106.293 683.87 103.839 686.995 Q101.409 690.12 101.061 696.44 Q102.427 694.426 104.487 693.361 Q106.547 692.273 109.024 692.273 Q114.233 692.273 117.242 695.444 Q120.274 698.592 120.274 704.032 Q120.274 709.356 117.126 712.574 Q113.978 715.791 108.746 715.791 Q102.751 715.791 99.5798 711.208 Q96.4085 706.602 96.4085 697.875 Q96.4085 689.68 100.297 684.819 Q104.186 679.935 110.737 679.935 Q112.496 679.935 114.279 680.282 Q116.084 680.63 118.029 681.324 Z" fill="#000000" fill-rule="nonzero" fill-opacity="1" /><path clip-path="url(#clip030)" d="M63.2837 413.913 Q59.6726 413.913 57.8439 417.478 Q56.0384 421.019 56.0384 428.149 Q56.0384 435.255 57.8439 438.82 Q59.6726 442.362 63.2837 442.362 Q66.918 442.362 68.7235 438.82 Q70.5522 435.255 70.5522 428.149 Q70.5522 421.019 68.7235 417.478 Q66.918 413.913 63.2837 413.913 M63.2837 410.209 Q69.0939 410.209 72.1494 414.816 Q75.2281 419.399 75.2281 428.149 Q75.2281 436.876 72.1494 441.482 Q69.0939 446.065 63.2837 446.065 Q57.4736 446.065 54.3949 441.482 Q51.3393 436.876 51.3393 428.149 Q51.3393 419.399 54.3949 414.816 Q57.4736 410.209 63.2837 410.209 Z" fill="#000000" fill-rule="nonzero" fill-opacity="1" /><path clip-path="url(#clip030)" d="M83.4457 439.515 L88.3299 439.515 L88.3299 445.394 L83.4457 445.394 L83.4457 439.515 Z" fill="#000000" fill-rule="nonzero" fill-opacity="1" /><path clip-path="url(#clip030)" d="M98.6539 444.677 L98.6539 440.417 Q100.413 441.251 102.219 441.69 Q104.024 442.13 105.76 442.13 Q110.39 442.13 112.82 439.028 Q115.274 435.903 115.621 429.561 Q114.279 431.552 112.219 432.616 Q110.158 433.681 107.658 433.681 Q102.473 433.681 99.4409 430.556 Q96.4317 427.408 96.4317 421.968 Q96.4317 416.644 99.5798 413.427 Q102.728 410.209 107.959 410.209 Q113.955 410.209 117.103 414.816 Q120.274 419.399 120.274 428.149 Q120.274 436.32 116.385 441.204 Q112.52 446.065 105.969 446.065 Q104.209 446.065 102.404 445.718 Q100.598 445.371 98.6539 444.677 M107.959 430.024 Q111.108 430.024 112.936 427.871 Q114.788 425.718 114.788 421.968 Q114.788 418.242 112.936 416.089 Q111.108 413.913 107.959 413.913 Q104.811 413.913 102.959 416.089 Q101.131 418.242 101.131 421.968 Q101.131 425.718 102.959 427.871 Q104.811 430.024 107.959 430.024 Z" fill="#000000" fill-rule="nonzero" fill-opacity="1" /><path clip-path="url(#clip030)" d="M55.506 171.733 L63.1448 171.733 L63.1448 145.367 L54.8347 147.034 L54.8347 142.775 L63.0985 141.108 L67.7744 141.108 L67.7744 171.733 L75.4133 171.733 L75.4133 175.668 L55.506 175.668 L55.506 171.733 Z" fill="#000000" fill-rule="nonzero" fill-opacity="1" /><path clip-path="url(#clip030)" d="M84.8577 169.789 L89.7419 169.789 L89.7419 175.668 L84.8577 175.668 L84.8577 169.789 Z" fill="#000000" fill-rule="nonzero" fill-opacity="1" /><path clip-path="url(#clip030)" d="M103.955 171.733 L120.274 171.733 L120.274 175.668 L98.3298 175.668 L98.3298 171.733 Q100.992 168.978 105.575 164.349 Q110.182 159.696 111.362 158.353 Q113.608 155.83 114.487 154.094 Q115.39 152.335 115.39 150.645 Q115.39 147.891 113.445 146.154 Q111.524 144.418 108.422 144.418 Q106.223 144.418 103.77 145.182 Q101.339 145.946 98.5613 147.497 L98.5613 142.775 Q101.385 141.641 103.839 141.062 Q106.293 140.483 108.33 140.483 Q113.7 140.483 116.895 143.168 Q120.089 145.854 120.089 150.344 Q120.089 152.474 119.279 154.395 Q118.492 156.293 116.385 158.886 Q115.807 159.557 112.705 162.775 Q109.603 165.969 103.955 171.733 Z" fill="#000000" fill-rule="nonzero" fill-opacity="1" /><polyline clip-path="url(#clip032)" style="stroke:#009af9; stroke-linecap:round; stroke-linejoin:round; stroke-width:16; stroke-opacity:1; fill:none" stroke-dasharray="8, 16" points="218.439,1102.24 228.852,1088.18 239.264,1078.63 249.677,1068.67 260.09,1058.23 270.503,1051.36 280.916,1053.89 291.329,1070.28 301.741,1100.79 312.154,1139.95 322.567,1177.9 332.98,1205.28 343.393,1219.94 353.805,1230.05 364.218,1249.15 374.631,1285.17 385.044,1333.3 395.457,1379.42 405.87,1410.3 416.282,1421.34 426.695,1417.01 437.108,1406.22 447.521,1396.94 457.934,1392.72 468.347,1391.76 478.759,1388.16 489.172,1374.79 499.585,1347.39 509.998,1307.79 520.411,1263.7 530.824,1224.07 541.236,1193.36 551.649,1169.97 562.062,1149.33 572.475,1127.95 582.888,1105.18 593.301,1082.8 603.713,1063.97 614.126,1052.06 624.539,1049.65 634.952,1057.35 645.365,1073.41 655.777,1094.43 666.19,1117.1 676.603,1139.76 687.016,1162.85 697.429,1188.04 707.842,1216.85 718.254,1249.56 728.667,1284.78 739.08,1319.8 749.493,1351.36 759.906,1376.77 770.319,1394.82 780.731,1405.94 791.144,1411.52 801.557,1412.81 811.97,1410.2 822.383,1403.33 832.796,1391.67 843.208,1375 853.621,1353.46 864.034,1327.39 874.447,1297.25 884.86,1263.86 895.273,1228.81 905.685,1194.31 916.098,1162.52 926.511,1134.84 936.924,1111.65 947.337,1092.73 957.749,1077.81 968.162,1066.92 978.575,1060.48 988.988,1059.19 999.401,1063.75 1009.81,1074.54 1020.23,1091.41 1030.64,1113.57 1041.05,1139.84 1051.46,1168.94 1061.88,1199.83 1072.29,1231.75 1082.7,1264.18 1093.12,1296.57 1103.53,1328.02 1113.94,1357.08 1124.35,1381.69 1134.77,1399.54 1145.18,1408.67 1155.59,1408.58 1166.01,1401.44 1176.42,1393.27 1186.83,1393.4 1197.24,1409.75 1207.66,1437.56 1218.07,1445.72 1228.48,1376.79 1238.9,1181.92 1249.31,881.256 1259.72,579.537 1270.13,384.425 1280.55,316.928 1290.96,323.715 1301.37,346.366 1311.79,357.26 1322.2,353.475 1332.61,341.105 1343.02,326.849 1353.44,315.81 1363.85,311.136 1374.26,313.885 1384.68,323.142 1395.09,336.516 1405.5,350.853 1415.91,362.947 1426.33,370.075 1436.74,370.357 1447.15,363.001 1457.57,348.548 1467.98,329.166 1478.39,308.81 1488.8,292.894 1499.22,287.093 1509.63,295.306 1520.04,317.643 1530.45,349.533 1540.87,382.547 1551.28,406.562 1561.69,412.55 1572.11,395.622 1582.52,357.872 1592.93,309.539 1603.34,266.468 1613.76,243.91 1624.17,250.087 1634.58,283.411 1645,334.068 1655.41,387.794 1665.82,429.689 1676.23,447.435 1686.65,434.153 1697.06,391.007 1707.47,328.668 1717.89,265.738 1728.3,222.861 1738.71,214.511 1749.12,243.195 1759.54,299.411 1769.95,366.363 1780.36,425.891 1790.78,462.87 1801.19,467.654 1811.6,437.435 1822.01,377.322 1832.43,300.943 1842.84,229.209 1853.25,185.471 1863.67,187.016 1874.08,236.453 1884.49,318.92 1894.9,408.063 1905.32,476.938 1915.73,506.82 1926.14,490.493 1936.56,431.761 1946.97,344.191 1957.38,249.823 1967.79,175.757 1978.21,146.595 1988.62,174.45 1999.03,252.51 2009.45,357.153 2019.86,457.29 2030.27,524.781 2040.68,541.288 2051.1,501.427 2061.51,413.862 2071.92,300.389 2082.33,191.755 2092.75,120.116 2103.16,110.098 2113.57,170.71 2123.99,289.721 2134.4,432.645 2144.81,550.216 2155.22,596.549 2165.64,552.246 2176.05,437.227 2186.46,300.554 2196.88,192.736 2207.29,141.603 2217.7,147.263 2228.11,193.04 2238.53,259.451 2248.94,332.218 2259.35,403.342 2269.77,468.335 2280.18,523.023 2290.59,561.939 "/>
<polyline clip-path="url(#clip032)" style="stroke:#e26f46; stroke-linecap:round; stroke-linejoin:round; stroke-width:4; stroke-opacity:1; fill:none" points="218.439,1102.25 228.852,1083.09 239.264,1068.97 249.677,1060.33 260.09,1057.48 270.503,1060.49 280.916,1069.27 291.329,1083.53 301.741,1102.82 312.154,1126.49 322.567,1153.78 332.98,1183.79 343.393,1215.55 353.805,1248.02 364.218,1280.14 374.631,1310.87 385.044,1339.19 395.457,1364.18 405.87,1385.03 416.282,1401.06 426.695,1411.75 437.108,1416.74 447.521,1415.88 457.934,1409.19 468.347,1396.88 478.759,1379.37 489.172,1357.22 499.585,1331.16 509.998,1302.03 520.411,1270.79 530.824,1238.46 541.236,1206.09 551.649,1174.74 562.062,1145.43 572.475,1119.11 582.888,1096.66 593.301,1078.79 603.713,1066.1 614.126,1058.99 624.539,1057.71 634.952,1062.28 645.365,1072.57 655.777,1088.23 666.19,1108.76 676.603,1133.48 687.016,1161.59 697.429,1192.18 707.842,1224.23 718.254,1256.71 728.667,1288.56 739.08,1318.73 749.493,1346.25 759.906,1370.2 770.319,1389.83 780.731,1404.47 791.144,1413.66 801.557,1417.09 811.97,1414.65 822.383,1406.43 832.796,1392.68 843.208,1373.86 853.621,1350.59 864.034,1323.62 874.447,1293.83 884.86,1262.19 895.273,1229.75 905.685,1197.54 916.098,1166.64 926.511,1138.04 936.924,1112.68 947.337,1091.39 957.749,1074.86 968.162,1063.63 978.575,1058.07 988.988,1058.36 999.401,1064.49 1009.81,1076.26 1020.23,1093.28 1030.64,1115 1041.05,1140.72 1051.46,1169.59 1061.88,1200.66 1072.29,1232.93 1082.7,1265.35 1093.12,1296.85 1103.53,1326.4 1113.94,1353.05 1124.35,1375.92 1134.77,1394.26 1145.18,1407.48 1155.59,1415.15 1166.01,1417.01 1176.42,1413.01 1186.83,1403.27 1197.24,1388.11 1207.66,1368.04 1218.07,1343.69 1228.48,1315.87 1238.9,1285.49 1249.31,1253.53 1259.72,336.9 1270.13,335.414 1280.55,336.766 1290.96,341.268 1301.37,347.54 1311.79,352.932 1322.2,354.529 1332.61,350.38 1343.02,340.49 1353.44,327.157 1363.85,314.47 1374.26,307.059 1384.68,308.48 1395.09,319.789 1405.5,338.809 1415.91,360.456 1426.33,378.084 1436.74,385.519 1447.15,379.155 1457.57,359.405 1467.98,330.999 1478.39,301.887 1488.8,281.022 1499.22,275.617 1509.63,288.72 1520.04,317.911 1530.45,355.612 1540.87,391.027 1551.28,413.238 1561.69,414.553 1572.11,393.095 1582.52,353.769 1592.93,307.217 1603.34,266.949 1613.76,245.423 1624.17,250.209 1634.58,281.417 1645,331.238 1655.41,385.855 1665.82,429.269 1676.23,447.987 1686.65,435.187 1697.06,393.098 1707.47,332.772 1717.89,271.211 1728.3,226.574 1738.71,212.826 1749.12,235.4 1759.54,289.203 1769.95,359.687 1780.36,426.762 1790.78,470.523 1801.19,477.151 1811.6,443.243 1822.01,377.219 1832.43,297.283 1842.84,226.412 1853.25,185.755 1863.67,188.325 1874.08,234.883 1884.49,313.283 1894.9,401.614 1905.32,474.311 1915.73,509.563 1926.14,495.835 1936.56,435.598 1946.97,345.03 1957.38,249.703 1967.79,177.358 1978.21,149.84 1988.62,176.508 1999.03,251.137 2009.45,353.289 2019.86,453.899 2030.27,523.54 2040.68,541.033 2051.1,499.862 2061.51,410.481 2071.92,297.7 2082.33,193.811 2092.75,129.339 2103.16,124.08 2113.57,181.046 2123.99,285.168 2134.4,407.254 2144.81,512.168 2155.22,568.937 2165.64,559.899 2176.05,486.154 2186.46,367.689 2196.88,237.97 2207.29,134.502 2217.7,87.9763 2228.11,113.181 2238.53,204.342 2248.94,336.359 2259.35,471.707 2269.77,571.098 2280.18,604.884 2290.59,561.892 "/>
<path clip-path="url(#clip030)" d="M229.49 250.738 L675.966 250.738 L675.966 95.2176 L229.49 95.2176  Z" fill="#ffffff" fill-rule="evenodd" fill-opacity="1"/>
<polyline clip-path="url(#clip030)" style="stroke:#000000; stroke-linecap:round; stroke-linejoin:round; stroke-width:4; stroke-opacity:1; fill:none" points="229.49,250.738 675.966,250.738 675.966,95.2176 229.49,95.2176 229.49,250.738 "/>
<polyline clip-path="url(#clip030)" style="stroke:#009af9; stroke-linecap:round; stroke-linejoin:round; stroke-width:16; stroke-opacity:1; fill:none" stroke-dasharray="8, 16" points="253.896,147.058 400.328,147.058 "/>
<path clip-path="url(#clip030)" d="M429.409 133.62 L429.409 146.606 L435.289 146.606 Q438.552 146.606 440.335 144.916 Q442.117 143.227 442.117 140.102 Q442.117 137 440.335 135.31 Q438.552 133.62 435.289 133.62 L429.409 133.62 M424.733 129.778 L435.289 129.778 Q441.099 129.778 444.062 132.416 Q447.048 135.032 447.048 140.102 Q447.048 145.217 444.062 147.833 Q441.099 150.449 435.289 150.449 L429.409 150.449 L429.409 164.338 L424.733 164.338 L424.733 129.778 Z" fill="#000000" fill-rule="nonzero" fill-opacity="1" /><path clip-path="url(#clip030)" d="M467.325 142.393 Q466.608 141.977 465.751 141.791 Q464.918 141.583 463.899 141.583 Q460.288 141.583 458.344 143.944 Q456.423 146.282 456.423 150.68 L456.423 164.338 L452.14 164.338 L452.14 138.412 L456.423 138.412 L456.423 142.44 Q457.765 140.078 459.918 138.944 Q462.071 137.787 465.149 137.787 Q465.589 137.787 466.122 137.856 Q466.654 137.903 467.302 138.018 L467.325 142.393 Z" fill="#000000" fill-rule="nonzero" fill-opacity="1" /><path clip-path="url(#clip030)" d="M492.927 150.31 L492.927 152.393 L473.344 152.393 Q473.622 156.791 475.983 159.106 Q478.367 161.398 482.603 161.398 Q485.057 161.398 487.348 160.796 Q489.663 160.194 491.932 158.99 L491.932 163.018 Q489.64 163.99 487.233 164.5 Q484.825 165.009 482.348 165.009 Q476.145 165.009 472.511 161.398 Q468.899 157.787 468.899 151.629 Q468.899 145.264 472.325 141.537 Q475.774 137.787 481.608 137.787 Q486.839 137.787 489.872 141.166 Q492.927 144.523 492.927 150.31 M488.668 149.06 Q488.622 145.565 486.7 143.481 Q484.802 141.398 481.654 141.398 Q478.089 141.398 475.936 143.412 Q473.807 145.426 473.483 149.083 L488.668 149.06 Z" fill="#000000" fill-rule="nonzero" fill-opacity="1" /><path clip-path="url(#clip030)" d="M516.978 142.347 L516.978 128.319 L521.237 128.319 L521.237 164.338 L516.978 164.338 L516.978 160.449 Q515.635 162.763 513.575 163.898 Q511.538 165.009 508.668 165.009 Q503.969 165.009 501.006 161.259 Q498.066 157.509 498.066 151.398 Q498.066 145.287 501.006 141.537 Q503.969 137.787 508.668 137.787 Q511.538 137.787 513.575 138.921 Q515.635 140.032 516.978 142.347 M502.464 151.398 Q502.464 156.097 504.385 158.782 Q506.33 161.444 509.709 161.444 Q513.089 161.444 515.033 158.782 Q516.978 156.097 516.978 151.398 Q516.978 146.699 515.033 144.037 Q513.089 141.352 509.709 141.352 Q506.33 141.352 504.385 144.037 Q502.464 146.699 502.464 151.398 Z" fill="#000000" fill-rule="nonzero" fill-opacity="1" /><path clip-path="url(#clip030)" d="M530.01 138.412 L534.269 138.412 L534.269 164.338 L530.01 164.338 L530.01 138.412 M530.01 128.319 L534.269 128.319 L534.269 133.713 L530.01 133.713 L530.01 128.319 Z" fill="#000000" fill-rule="nonzero" fill-opacity="1" /><path clip-path="url(#clip030)" d="M561.839 139.407 L561.839 143.389 Q560.033 142.393 558.205 141.907 Q556.399 141.398 554.547 141.398 Q550.404 141.398 548.112 144.037 Q545.82 146.652 545.82 151.398 Q545.82 156.143 548.112 158.782 Q550.404 161.398 554.547 161.398 Q556.399 161.398 558.205 160.912 Q560.033 160.402 561.839 159.407 L561.839 163.342 Q560.056 164.176 558.135 164.592 Q556.237 165.009 554.084 165.009 Q548.228 165.009 544.779 161.328 Q541.33 157.648 541.33 151.398 Q541.33 145.055 544.802 141.421 Q548.297 137.787 554.362 137.787 Q556.33 137.787 558.205 138.203 Q560.08 138.597 561.839 139.407 Z" fill="#000000" fill-rule="nonzero" fill-opacity="1" /><path clip-path="url(#clip030)" d="M573.459 131.051 L573.459 138.412 L582.232 138.412 L582.232 141.722 L573.459 141.722 L573.459 155.796 Q573.459 158.967 574.316 159.87 Q575.195 160.773 577.857 160.773 L582.232 160.773 L582.232 164.338 L577.857 164.338 Q572.927 164.338 571.052 162.509 Q569.177 160.657 569.177 155.796 L569.177 141.722 L566.052 141.722 L566.052 138.412 L569.177 138.412 L569.177 131.051 L573.459 131.051 Z" fill="#000000" fill-rule="nonzero" fill-opacity="1" /><path clip-path="url(#clip030)" d="M587.834 138.412 L592.093 138.412 L592.093 164.338 L587.834 164.338 L587.834 138.412 M587.834 128.319 L592.093 128.319 L592.093 133.713 L587.834 133.713 L587.834 128.319 Z" fill="#000000" fill-rule="nonzero" fill-opacity="1" /><path clip-path="url(#clip030)" d="M611.051 141.398 Q607.626 141.398 605.635 144.083 Q603.644 146.745 603.644 151.398 Q603.644 156.051 605.612 158.736 Q607.602 161.398 611.051 161.398 Q614.454 161.398 616.445 158.713 Q618.436 156.027 618.436 151.398 Q618.436 146.791 616.445 144.106 Q614.454 141.398 611.051 141.398 M611.051 137.787 Q616.607 137.787 619.778 141.398 Q622.95 145.009 622.95 151.398 Q622.95 157.764 619.778 161.398 Q616.607 165.009 611.051 165.009 Q605.473 165.009 602.302 161.398 Q599.153 157.764 599.153 151.398 Q599.153 145.009 602.302 141.398 Q605.473 137.787 611.051 137.787 Z" fill="#000000" fill-rule="nonzero" fill-opacity="1" /><path clip-path="url(#clip030)" d="M651.561 148.689 L651.561 164.338 L647.301 164.338 L647.301 148.828 Q647.301 145.148 645.866 143.319 Q644.431 141.49 641.561 141.49 Q638.112 141.49 636.121 143.69 Q634.13 145.889 634.13 149.685 L634.13 164.338 L629.848 164.338 L629.848 138.412 L634.13 138.412 L634.13 142.44 Q635.658 140.102 637.718 138.944 Q639.801 137.787 642.51 137.787 Q646.977 137.787 649.269 140.565 Q651.561 143.319 651.561 148.689 Z" fill="#000000" fill-rule="nonzero" fill-opacity="1" /><polyline clip-path="url(#clip030)" style="stroke:#e26f46; stroke-linecap:round; stroke-linejoin:round; stroke-width:4; stroke-opacity:1; fill:none" points="253.896,198.898 400.328,198.898 "/>
<path clip-path="url(#clip030)" d="M424.733 181.618 L446.585 181.618 L446.585 185.553 L429.409 185.553 L429.409 195.784 L445.867 195.784 L445.867 199.719 L429.409 199.719 L429.409 212.242 L447.001 212.242 L447.001 216.178 L424.733 216.178 L424.733 181.618 Z" fill="#000000" fill-rule="nonzero" fill-opacity="1" /><path clip-path="url(#clip030)" d="M476.052 190.252 L466.677 202.867 L476.538 216.178 L471.515 216.178 L463.969 205.992 L456.423 216.178 L451.4 216.178 L461.469 202.613 L452.256 190.252 L457.279 190.252 L464.154 199.488 L471.029 190.252 L476.052 190.252 Z" fill="#000000" fill-rule="nonzero" fill-opacity="1" /><path clip-path="url(#clip030)" d="M494.339 203.145 Q489.177 203.145 487.186 204.326 Q485.196 205.506 485.196 208.354 Q485.196 210.622 486.677 211.965 Q488.182 213.284 490.751 213.284 Q494.293 213.284 496.422 210.784 Q498.575 208.261 498.575 204.094 L498.575 203.145 L494.339 203.145 M502.834 201.386 L502.834 216.178 L498.575 216.178 L498.575 212.242 Q497.117 214.603 494.941 215.738 Q492.765 216.849 489.617 216.849 Q485.635 216.849 483.274 214.627 Q480.936 212.381 480.936 208.631 Q480.936 204.256 483.853 202.034 Q486.793 199.812 492.603 199.812 L498.575 199.812 L498.575 199.395 Q498.575 196.455 496.631 194.858 Q494.71 193.238 491.214 193.238 Q488.992 193.238 486.885 193.77 Q484.779 194.303 482.835 195.367 L482.835 191.432 Q485.173 190.53 487.372 190.09 Q489.571 189.627 491.654 189.627 Q497.279 189.627 500.057 192.543 Q502.834 195.46 502.834 201.386 Z" fill="#000000" fill-rule="nonzero" fill-opacity="1" /><path clip-path="url(#clip030)" d="M530.265 191.247 L530.265 195.229 Q528.459 194.233 526.631 193.747 Q524.825 193.238 522.973 193.238 Q518.83 193.238 516.538 195.877 Q514.246 198.492 514.246 203.238 Q514.246 207.983 516.538 210.622 Q518.83 213.238 522.973 213.238 Q524.825 213.238 526.631 212.752 Q528.459 212.242 530.265 211.247 L530.265 215.182 Q528.482 216.016 526.561 216.432 Q524.663 216.849 522.51 216.849 Q516.654 216.849 513.205 213.168 Q509.756 209.488 509.756 203.238 Q509.756 196.895 513.228 193.261 Q516.723 189.627 522.788 189.627 Q524.756 189.627 526.631 190.043 Q528.506 190.437 530.265 191.247 Z" fill="#000000" fill-rule="nonzero" fill-opacity="1" /><path clip-path="url(#clip030)" d="M541.885 182.891 L541.885 190.252 L550.658 190.252 L550.658 193.562 L541.885 193.562 L541.885 207.636 Q541.885 210.807 542.742 211.71 Q543.621 212.613 546.283 212.613 L550.658 212.613 L550.658 216.178 L546.283 216.178 Q541.353 216.178 539.478 214.349 Q537.603 212.497 537.603 207.636 L537.603 193.562 L534.478 193.562 L534.478 190.252 L537.603 190.252 L537.603 182.891 L541.885 182.891 Z" fill="#000000" fill-rule="nonzero" fill-opacity="1" /></svg>
