<?xml version="1.0" encoding="utf-8"?>
<svg xmlns="http://www.w3.org/2000/svg" xmlns:xlink="http://www.w3.org/1999/xlink" width="600" height="400" viewBox="0 0 2400 1600">
<defs>
  <clipPath id="clip600">
    <rect x="0" y="0" width="2400" height="1600"/>
  </clipPath>
</defs>
<path clip-path="url(#clip600)" d="M0 1600 L2400 1600 L2400 0 L0 0  Z" fill="#ffffff" fill-rule="evenodd" fill-opacity="1"/>
<defs>
  <clipPath id="clip601">
    <rect x="480" y="0" width="1681" height="1600"/>
  </clipPath>
</defs>
<path clip-path="url(#clip600)" d="M156.274 1486.45 L2352.76 1486.45 L2352.76 47.2441 L156.274 47.2441  Z" fill="#ffffff" fill-rule="evenodd" fill-opacity="1"/>
<defs>
  <clipPath id="clip602">
    <rect x="156" y="47" width="2197" height="1440"/>
  </clipPath>
</defs>
<polyline clip-path="url(#clip602)" style="stroke:#000000; stroke-linecap:round; stroke-linejoin:round; stroke-width:2; stroke-opacity:0.1; fill:none" points="218.439,1486.45 218.439,47.2441 "/>
<polyline clip-path="url(#clip602)" style="stroke:#000000; stroke-linecap:round; stroke-linejoin:round; stroke-width:2; stroke-opacity:0.1; fill:none" points="736.477,1486.45 736.477,47.2441 "/>
<polyline clip-path="url(#clip602)" style="stroke:#000000; stroke-linecap:round; stroke-linejoin:round; stroke-width:2; stroke-opacity:0.1; fill:none" points="1254.52,1486.45 1254.52,47.2441 "/>
<polyline clip-path="url(#clip602)" style="stroke:#000000; stroke-linecap:round; stroke-linejoin:round; stroke-width:2; stroke-opacity:0.1; fill:none" points="1772.55,1486.45 1772.55,47.2441 "/>
<polyline clip-path="url(#clip602)" style="stroke:#000000; stroke-linecap:round; stroke-linejoin:round; stroke-width:2; stroke-opacity:0.1; fill:none" points="2290.59,1486.45 2290.59,47.2441 "/>
<polyline clip-path="url(#clip600)" style="stroke:#000000; stroke-linecap:round; stroke-linejoin:round; stroke-width:4; stroke-opacity:1; fill:none" points="156.274,1486.45 2352.76,1486.45 "/>
<polyline clip-path="url(#clip600)" style="stroke:#000000; stroke-linecap:round; stroke-linejoin:round; stroke-width:4; stroke-opacity:1; fill:none" points="218.439,1486.45 218.439,1467.55 "/>
<polyline clip-path="url(#clip600)" style="stroke:#000000; stroke-linecap:round; stroke-linejoin:round; stroke-width:4; stroke-opacity:1; fill:none" points="736.477,1486.45 736.477,1467.55 "/>
<polyline clip-path="url(#clip600)" style="stroke:#000000; stroke-linecap:round; stroke-linejoin:round; stroke-width:4; stroke-opacity:1; fill:none" points="1254.52,1486.45 1254.52,1467.55 "/>
<polyline clip-path="url(#clip600)" style="stroke:#000000; stroke-linecap:round; stroke-linejoin:round; stroke-width:4; stroke-opacity:1; fill:none" points="1772.55,1486.45 1772.55,1467.55 "/>
<polyline clip-path="url(#clip600)" style="stroke:#000000; stroke-linecap:round; stroke-linejoin:round; stroke-width:4; stroke-opacity:1; fill:none" points="2290.59,1486.45 2290.59,1467.55 "/>
<path clip-path="url(#clip600)" d="M164.967 1532.02 L194.643 1532.02 L194.643 1535.95 L164.967 1535.95 L164.967 1532.02 Z" fill="#000000" fill-rule="nonzero" fill-opacity="1" /><path clip-path="url(#clip600)" d="M205.545 1544.91 L213.184 1544.91 L213.184 1518.55 L204.874 1520.21 L204.874 1515.95 L213.138 1514.29 L217.814 1514.29 L217.814 1544.91 L225.453 1544.91 L225.453 1548.85 L205.545 1548.85 L205.545 1544.91 Z" fill="#000000" fill-rule="nonzero" fill-opacity="1" /><path clip-path="url(#clip600)" d="M234.897 1542.97 L239.781 1542.97 L239.781 1548.85 L234.897 1548.85 L234.897 1542.97 Z" fill="#000000" fill-rule="nonzero" fill-opacity="1" /><path clip-path="url(#clip600)" d="M259.966 1517.37 Q256.355 1517.37 254.527 1520.93 Q252.721 1524.47 252.721 1531.6 Q252.721 1538.71 254.527 1542.27 Q256.355 1545.82 259.966 1545.82 Q263.601 1545.82 265.406 1542.27 Q267.235 1538.71 267.235 1531.6 Q267.235 1524.47 265.406 1520.93 Q263.601 1517.37 259.966 1517.37 M259.966 1513.66 Q265.776 1513.66 268.832 1518.27 Q271.911 1522.85 271.911 1531.6 Q271.911 1540.33 268.832 1544.94 Q265.776 1549.52 259.966 1549.52 Q254.156 1549.52 251.077 1544.94 Q248.022 1540.33 248.022 1531.6 Q248.022 1522.85 251.077 1518.27 Q254.156 1513.66 259.966 1513.66 Z" fill="#000000" fill-rule="nonzero" fill-opacity="1" /><path clip-path="url(#clip600)" d="M683.503 1532.02 L713.178 1532.02 L713.178 1535.95 L683.503 1535.95 L683.503 1532.02 Z" fill="#000000" fill-rule="nonzero" fill-opacity="1" /><path clip-path="url(#clip600)" d="M733.271 1517.37 Q729.66 1517.37 727.831 1520.93 Q726.026 1524.47 726.026 1531.6 Q726.026 1538.71 727.831 1542.27 Q729.66 1545.82 733.271 1545.82 Q736.905 1545.82 738.711 1542.27 Q740.539 1538.71 740.539 1531.6 Q740.539 1524.47 738.711 1520.93 Q736.905 1517.37 733.271 1517.37 M733.271 1513.66 Q739.081 1513.66 742.137 1518.27 Q745.215 1522.85 745.215 1531.6 Q745.215 1540.33 742.137 1544.94 Q739.081 1549.52 733.271 1549.52 Q727.461 1549.52 724.382 1544.94 Q721.327 1540.33 721.327 1531.6 Q721.327 1522.85 724.382 1518.27 Q727.461 1513.66 733.271 1513.66 Z" fill="#000000" fill-rule="nonzero" fill-opacity="1" /><path clip-path="url(#clip600)" d="M753.433 1542.97 L758.317 1542.97 L758.317 1548.85 L753.433 1548.85 L753.433 1542.97 Z" fill="#000000" fill-rule="nonzero" fill-opacity="1" /><path clip-path="url(#clip600)" d="M768.548 1514.29 L786.905 1514.29 L786.905 1518.22 L772.831 1518.22 L772.831 1526.7 Q773.849 1526.35 774.868 1526.19 Q775.886 1526 776.905 1526 Q782.692 1526 786.072 1529.17 Q789.451 1532.34 789.451 1537.76 Q789.451 1543.34 785.979 1546.44 Q782.507 1549.52 776.187 1549.52 Q774.011 1549.52 771.743 1549.15 Q769.498 1548.78 767.09 1548.04 L767.09 1543.34 Q769.173 1544.47 771.396 1545.03 Q773.618 1545.58 776.095 1545.58 Q780.099 1545.58 782.437 1543.48 Q784.775 1541.37 784.775 1537.76 Q784.775 1534.15 782.437 1532.04 Q780.099 1529.94 776.095 1529.94 Q774.22 1529.94 772.345 1530.35 Q770.493 1530.77 768.548 1531.65 L768.548 1514.29 Z" fill="#000000" fill-rule="nonzero" fill-opacity="1" /><path clip-path="url(#clip600)" d="M1231.9 1517.37 Q1228.29 1517.37 1226.46 1520.93 Q1224.65 1524.47 1224.65 1531.6 Q1224.65 1538.71 1226.46 1542.27 Q1228.29 1545.82 1231.9 1545.82 Q1235.53 1545.82 1237.34 1542.27 Q1239.17 1538.71 1239.17 1531.6 Q1239.17 1524.47 1237.34 1520.93 Q1235.53 1517.37 1231.9 1517.37 M1231.9 1513.66 Q1237.71 1513.66 1240.77 1518.27 Q1243.84 1522.85 1243.84 1531.6 Q1243.84 1540.33 1240.77 1544.94 Q1237.71 1549.52 1231.9 1549.52 Q1226.09 1549.52 1223.01 1544.94 Q1219.96 1540.33 1219.96 1531.6 Q1219.96 1522.85 1223.01 1518.27 Q1226.09 1513.66 1231.9 1513.66 Z" fill="#000000" fill-rule="nonzero" fill-opacity="1" /><path clip-path="url(#clip600)" d="M1252.06 1542.97 L1256.95 1542.97 L1256.95 1548.85 L1252.06 1548.85 L1252.06 1542.97 Z" fill="#000000" fill-rule="nonzero" fill-opacity="1" /><path clip-path="url(#clip600)" d="M1277.13 1517.37 Q1273.52 1517.37 1271.69 1520.93 Q1269.89 1524.47 1269.89 1531.6 Q1269.89 1538.71 1271.69 1542.27 Q1273.52 1545.82 1277.13 1545.82 Q1280.76 1545.82 1282.57 1542.27 Q1284.4 1538.71 1284.4 1531.6 Q1284.4 1524.47 1282.57 1520.93 Q1280.76 1517.37 1277.13 1517.37 M1277.13 1513.66 Q1282.94 1513.66 1286 1518.27 Q1289.08 1522.85 1289.08 1531.6 Q1289.08 1540.33 1286 1544.94 Q1282.94 1549.52 1277.13 1549.52 Q1271.32 1549.52 1268.24 1544.94 Q1265.19 1540.33 1265.19 1531.6 Q1265.19 1522.85 1268.24 1518.27 Q1271.32 1513.66 1277.13 1513.66 Z" fill="#000000" fill-rule="nonzero" fill-opacity="1" /><path clip-path="url(#clip600)" d="M1750.44 1517.37 Q1746.82 1517.37 1745 1520.93 Q1743.19 1524.47 1743.19 1531.6 Q1743.19 1538.71 1745 1542.27 Q1746.82 1545.82 1750.44 1545.82 Q1754.07 1545.82 1755.88 1542.27 Q1757.7 1538.71 1757.7 1531.6 Q1757.7 1524.47 1755.88 1520.93 Q1754.07 1517.37 1750.44 1517.37 M1750.44 1513.66 Q1756.25 1513.66 1759.3 1518.27 Q1762.38 1522.85 1762.38 1531.6 Q1762.38 1540.33 1759.3 1544.94 Q1756.25 1549.52 1750.44 1549.52 Q1744.63 1549.52 1741.55 1544.94 Q1738.49 1540.33 1738.49 1531.6 Q1738.49 1522.85 1741.55 1518.27 Q1744.63 1513.66 1750.44 1513.66 Z" fill="#000000" fill-rule="nonzero" fill-opacity="1" /><path clip-path="url(#clip600)" d="M1770.6 1542.97 L1775.48 1542.97 L1775.48 1548.85 L1770.6 1548.85 L1770.6 1542.97 Z" fill="#000000" fill-rule="nonzero" fill-opacity="1" /><path clip-path="url(#clip600)" d="M1785.71 1514.29 L1804.07 1514.29 L1804.07 1518.22 L1790 1518.22 L1790 1526.7 Q1791.01 1526.35 1792.03 1526.19 Q1793.05 1526 1794.07 1526 Q1799.86 1526 1803.24 1529.17 Q1806.62 1532.34 1806.62 1537.76 Q1806.62 1543.34 1803.14 1546.44 Q1799.67 1549.52 1793.35 1549.52 Q1791.18 1549.52 1788.91 1549.15 Q1786.66 1548.78 1784.25 1548.04 L1784.25 1543.34 Q1786.34 1544.47 1788.56 1545.03 Q1790.78 1545.58 1793.26 1545.58 Q1797.26 1545.58 1799.6 1543.48 Q1801.94 1541.37 1801.94 1537.76 Q1801.94 1534.15 1799.6 1532.04 Q1797.26 1529.94 1793.26 1529.94 Q1791.38 1529.94 1789.51 1530.35 Q1787.66 1530.77 1785.71 1531.65 L1785.71 1514.29 Z" fill="#000000" fill-rule="nonzero" fill-opacity="1" /><path clip-path="url(#clip600)" d="M2257.74 1544.91 L2265.38 1544.91 L2265.38 1518.55 L2257.07 1520.21 L2257.07 1515.95 L2265.34 1514.29 L2270.01 1514.29 L2270.01 1544.91 L2277.65 1544.91 L2277.65 1548.85 L2257.74 1548.85 L2257.74 1544.91 Z" fill="#000000" fill-rule="nonzero" fill-opacity="1" /><path clip-path="url(#clip600)" d="M2287.1 1542.97 L2291.98 1542.97 L2291.98 1548.85 L2287.1 1548.85 L2287.1 1542.97 Z" fill="#000000" fill-rule="nonzero" fill-opacity="1" /><path clip-path="url(#clip600)" d="M2312.17 1517.37 Q2308.55 1517.37 2306.73 1520.93 Q2304.92 1524.47 2304.92 1531.6 Q2304.92 1538.71 2306.73 1542.27 Q2308.55 1545.82 2312.17 1545.82 Q2315.8 1545.82 2317.61 1542.27 Q2319.43 1538.71 2319.43 1531.6 Q2319.43 1524.47 2317.61 1520.93 Q2315.8 1517.37 2312.17 1517.37 M2312.17 1513.66 Q2317.98 1513.66 2321.03 1518.27 Q2324.11 1522.85 2324.11 1531.6 Q2324.11 1540.33 2321.03 1544.94 Q2317.98 1549.52 2312.17 1549.52 Q2306.36 1549.52 2303.28 1544.94 Q2300.22 1540.33 2300.22 1531.6 Q2300.22 1522.85 2303.28 1518.27 Q2306.36 1513.66 2312.17 1513.66 Z" fill="#000000" fill-rule="nonzero" fill-opacity="1" /><polyline clip-path="url(#clip602)" style="stroke:#000000; stroke-linecap:round; stroke-linejoin:round; stroke-width:2; stroke-opacity:0.1; fill:none" points="156.274,1250.05 2352.76,1250.05 "/>
<polyline clip-path="url(#clip602)" style="stroke:#000000; stroke-linecap:round; stroke-linejoin:round; stroke-width:2; stroke-opacity:0.1; fill:none" points="156.274,977.33 2352.76,977.33 "/>
<polyline clip-path="url(#clip602)" style="stroke:#000000; stroke-linecap:round; stroke-linejoin:round; stroke-width:2; stroke-opacity:0.1; fill:none" points="156.274,704.61 2352.76,704.61 "/>
<polyline clip-path="url(#clip602)" style="stroke:#000000; stroke-linecap:round; stroke-linejoin:round; stroke-width:2; stroke-opacity:0.1; fill:none" points="156.274,431.89 2352.76,431.89 "/>
<polyline clip-path="url(#clip602)" style="stroke:#000000; stroke-linecap:round; stroke-linejoin:round; stroke-width:2; stroke-opacity:0.1; fill:none" points="156.274,159.17 2352.76,159.17 "/>
<polyline clip-path="url(#clip600)" style="stroke:#000000; stroke-linecap:round; stroke-linejoin:round; stroke-width:4; stroke-opacity:1; fill:none" points="156.274,1486.45 156.274,47.2441 "/>
<polyline clip-path="url(#clip600)" style="stroke:#000000; stroke-linecap:round; stroke-linejoin:round; stroke-width:4; stroke-opacity:1; fill:none" points="156.274,1250.05 175.172,1250.05 "/>
<polyline clip-path="url(#clip600)" style="stroke:#000000; stroke-linecap:round; stroke-linejoin:round; stroke-width:4; stroke-opacity:1; fill:none" points="156.274,977.33 175.172,977.33 "/>
<polyline clip-path="url(#clip600)" style="stroke:#000000; stroke-linecap:round; stroke-linejoin:round; stroke-width:4; stroke-opacity:1; fill:none" points="156.274,704.61 175.172,704.61 "/>
<polyline clip-path="url(#clip600)" style="stroke:#000000; stroke-linecap:round; stroke-linejoin:round; stroke-width:4; stroke-opacity:1; fill:none" points="156.274,431.89 175.172,431.89 "/>
<polyline clip-path="url(#clip600)" style="stroke:#000000; stroke-linecap:round; stroke-linejoin:round; stroke-width:4; stroke-opacity:1; fill:none" points="156.274,159.17 175.172,159.17 "/>
<path clip-path="url(#clip600)" d="M63.0985 1235.85 Q59.4875 1235.85 57.6588 1239.41 Q55.8532 1242.96 55.8532 1250.09 Q55.8532 1257.19 57.6588 1260.76 Q59.4875 1264.3 63.0985 1264.3 Q66.7328 1264.3 68.5383 1260.76 Q70.367 1257.19 70.367 1250.09 Q70.367 1242.96 68.5383 1239.41 Q66.7328 1235.85 63.0985 1235.85 M63.0985 1232.15 Q68.9087 1232.15 71.9642 1236.75 Q75.0429 1241.34 75.0429 1250.09 Q75.0429 1258.81 71.9642 1263.42 Q68.9087 1268 63.0985 1268 Q57.2884 1268 54.2097 1263.42 Q51.1542 1258.81 51.1542 1250.09 Q51.1542 1241.34 54.2097 1236.75 Q57.2884 1232.15 63.0985 1232.15 Z" fill="#000000" fill-rule="nonzero" fill-opacity="1" /><path clip-path="url(#clip600)" d="M83.2605 1261.45 L88.1447 1261.45 L88.1447 1267.33 L83.2605 1267.33 L83.2605 1261.45 Z" fill="#000000" fill-rule="nonzero" fill-opacity="1" /><path clip-path="url(#clip600)" d="M108.33 1235.85 Q104.719 1235.85 102.89 1239.41 Q101.084 1242.96 101.084 1250.09 Q101.084 1257.19 102.89 1260.76 Q104.719 1264.3 108.33 1264.3 Q111.964 1264.3 113.77 1260.76 Q115.598 1257.19 115.598 1250.09 Q115.598 1242.96 113.77 1239.41 Q111.964 1235.85 108.33 1235.85 M108.33 1232.15 Q114.14 1232.15 117.195 1236.75 Q120.274 1241.34 120.274 1250.09 Q120.274 1258.81 117.195 1263.42 Q114.14 1268 108.33 1268 Q102.52 1268 99.4409 1263.42 Q96.3854 1258.81 96.3854 1250.09 Q96.3854 1241.34 99.4409 1236.75 Q102.52 1232.15 108.33 1232.15 Z" fill="#000000" fill-rule="nonzero" fill-opacity="1" /><path clip-path="url(#clip600)" d="M63.7467 963.129 Q60.1356 963.129 58.3069 966.694 Q56.5014 970.235 56.5014 977.365 Q56.5014 984.471 58.3069 988.036 Q60.1356 991.578 63.7467 991.578 Q67.3809 991.578 69.1865 988.036 Q71.0152 984.471 71.0152 977.365 Q71.0152 970.235 69.1865 966.694 Q67.3809 963.129 63.7467 963.129 M63.7467 959.425 Q69.5568 959.425 72.6124 964.032 Q75.6911 968.615 75.6911 977.365 Q75.6911 986.092 72.6124 990.698 Q69.5568 995.282 63.7467 995.282 Q57.9365 995.282 54.8578 990.698 Q51.8023 986.092 51.8023 977.365 Q51.8023 968.615 54.8578 964.032 Q57.9365 959.425 63.7467 959.425 Z" fill="#000000" fill-rule="nonzero" fill-opacity="1" /><path clip-path="url(#clip600)" d="M83.9086 988.731 L88.7928 988.731 L88.7928 994.61 L83.9086 994.61 L83.9086 988.731 Z" fill="#000000" fill-rule="nonzero" fill-opacity="1" /><path clip-path="url(#clip600)" d="M113.145 975.976 Q116.501 976.694 118.376 978.962 Q120.274 981.231 120.274 984.564 Q120.274 989.68 116.756 992.481 Q113.237 995.282 106.756 995.282 Q104.58 995.282 102.265 994.842 Q99.9733 994.425 97.5197 993.569 L97.5197 989.055 Q99.4641 990.189 101.779 990.768 Q104.094 991.346 106.617 991.346 Q111.015 991.346 113.307 989.61 Q115.621 987.874 115.621 984.564 Q115.621 981.508 113.469 979.795 Q111.339 978.059 107.52 978.059 L103.492 978.059 L103.492 974.217 L107.705 974.217 Q111.154 974.217 112.983 972.851 Q114.811 971.462 114.811 968.87 Q114.811 966.208 112.913 964.796 Q111.038 963.36 107.52 963.36 Q105.598 963.36 103.399 963.777 Q101.2 964.194 98.5613 965.073 L98.5613 960.907 Q101.223 960.166 103.538 959.796 Q105.876 959.425 107.936 959.425 Q113.26 959.425 116.362 961.856 Q119.464 964.263 119.464 968.384 Q119.464 971.254 117.82 973.245 Q116.177 975.212 113.145 975.976 Z" fill="#000000" fill-rule="nonzero" fill-opacity="1" /><path clip-path="url(#clip600)" d="M62.9365 690.409 Q59.3254 690.409 57.4967 693.974 Q55.6912 697.515 55.6912 704.645 Q55.6912 711.751 57.4967 715.316 Q59.3254 718.858 62.9365 718.858 Q66.5707 718.858 68.3763 715.316 Q70.205 711.751 70.205 704.645 Q70.205 697.515 68.3763 693.974 Q66.5707 690.409 62.9365 690.409 M62.9365 686.705 Q68.7467 686.705 71.8022 691.312 Q74.8809 695.895 74.8809 704.645 Q74.8809 713.372 71.8022 717.978 Q68.7467 722.561 62.9365 722.561 Q57.1264 722.561 54.0477 717.978 Q50.9921 713.372 50.9921 704.645 Q50.9921 695.895 54.0477 691.312 Q57.1264 686.705 62.9365 686.705 Z" fill="#000000" fill-rule="nonzero" fill-opacity="1" /><path clip-path="url(#clip600)" d="M83.0984 716.01 L87.9827 716.01 L87.9827 721.89 L83.0984 721.89 L83.0984 716.01 Z" fill="#000000" fill-rule="nonzero" fill-opacity="1" /><path clip-path="url(#clip600)" d="M108.746 702.747 Q105.598 702.747 103.746 704.899 Q101.918 707.052 101.918 710.802 Q101.918 714.529 103.746 716.705 Q105.598 718.858 108.746 718.858 Q111.895 718.858 113.723 716.705 Q115.575 714.529 115.575 710.802 Q115.575 707.052 113.723 704.899 Q111.895 702.747 108.746 702.747 M118.029 688.094 L118.029 692.353 Q116.27 691.52 114.464 691.08 Q112.682 690.64 110.922 690.64 Q106.293 690.64 103.839 693.765 Q101.409 696.89 101.061 703.21 Q102.427 701.196 104.487 700.131 Q106.547 699.043 109.024 699.043 Q114.233 699.043 117.242 702.214 Q120.274 705.362 120.274 710.802 Q120.274 716.126 117.126 719.344 Q113.978 722.561 108.746 722.561 Q102.751 722.561 99.5798 717.978 Q96.4085 713.372 96.4085 704.645 Q96.4085 696.45 100.297 691.589 Q104.186 686.705 110.737 686.705 Q112.496 686.705 114.279 687.052 Q116.084 687.4 118.029 688.094 Z" fill="#000000" fill-rule="nonzero" fill-opacity="1" /><path clip-path="url(#clip600)" d="M63.2837 417.689 Q59.6726 417.689 57.8439 421.253 Q56.0384 424.795 56.0384 431.925 Q56.0384 439.031 57.8439 442.596 Q59.6726 446.138 63.2837 446.138 Q66.918 446.138 68.7235 442.596 Q70.5522 439.031 70.5522 431.925 Q70.5522 424.795 68.7235 421.253 Q66.918 417.689 63.2837 417.689 M63.2837 413.985 Q69.0939 413.985 72.1494 418.591 Q75.2281 423.175 75.2281 431.925 Q75.2281 440.651 72.1494 445.258 Q69.0939 449.841 63.2837 449.841 Q57.4736 449.841 54.3949 445.258 Q51.3393 440.651 51.3393 431.925 Q51.3393 423.175 54.3949 418.591 Q57.4736 413.985 63.2837 413.985 Z" fill="#000000" fill-rule="nonzero" fill-opacity="1" /><path clip-path="url(#clip600)" d="M83.4457 443.29 L88.3299 443.29 L88.3299 449.17 L83.4457 449.17 L83.4457 443.29 Z" fill="#000000" fill-rule="nonzero" fill-opacity="1" /><path clip-path="url(#clip600)" d="M98.6539 448.452 L98.6539 444.193 Q100.413 445.026 102.219 445.466 Q104.024 445.906 105.76 445.906 Q110.39 445.906 112.82 442.804 Q115.274 439.679 115.621 433.337 Q114.279 435.327 112.219 436.392 Q110.158 437.457 107.658 437.457 Q102.473 437.457 99.4409 434.332 Q96.4317 431.184 96.4317 425.744 Q96.4317 420.42 99.5798 417.203 Q102.728 413.985 107.959 413.985 Q113.955 413.985 117.103 418.591 Q120.274 423.175 120.274 431.925 Q120.274 440.096 116.385 444.98 Q112.52 449.841 105.969 449.841 Q104.209 449.841 102.404 449.494 Q100.598 449.147 98.6539 448.452 M107.959 433.8 Q111.108 433.8 112.936 431.647 Q114.788 429.494 114.788 425.744 Q114.788 422.017 112.936 419.865 Q111.108 417.689 107.959 417.689 Q104.811 417.689 102.959 419.865 Q101.131 422.017 101.131 425.744 Q101.131 429.494 102.959 431.647 Q104.811 433.8 107.959 433.8 Z" fill="#000000" fill-rule="nonzero" fill-opacity="1" /><path clip-path="url(#clip600)" d="M55.506 172.515 L63.1448 172.515 L63.1448 146.149 L54.8347 147.816 L54.8347 143.556 L63.0985 141.89 L67.7744 141.89 L67.7744 172.515 L75.4133 172.515 L75.4133 176.45 L55.506 176.45 L55.506 172.515 Z" fill="#000000" fill-rule="nonzero" fill-opacity="1" /><path clip-path="url(#clip600)" d="M84.8577 170.57 L89.7419 170.57 L89.7419 176.45 L84.8577 176.45 L84.8577 170.57 Z" fill="#000000" fill-rule="nonzero" fill-opacity="1" /><path clip-path="url(#clip600)" d="M103.955 172.515 L120.274 172.515 L120.274 176.45 L98.3298 176.45 L98.3298 172.515 Q100.992 169.76 105.575 165.13 Q110.182 160.478 111.362 159.135 Q113.608 156.612 114.487 154.876 Q115.39 153.117 115.39 151.427 Q115.39 148.672 113.445 146.936 Q111.524 145.2 108.422 145.2 Q106.223 145.2 103.77 145.964 Q101.339 146.728 98.5613 148.279 L98.5613 143.556 Q101.385 142.422 103.839 141.844 Q106.293 141.265 108.33 141.265 Q113.7 141.265 116.895 143.95 Q120.089 146.635 120.089 151.126 Q120.089 153.255 119.279 155.177 Q118.492 157.075 116.385 159.667 Q115.807 160.339 112.705 163.556 Q109.603 166.751 103.955 172.515 Z" fill="#000000" fill-rule="nonzero" fill-opacity="1" /><polyline clip-path="url(#clip602)" style="stroke:#009af9; stroke-linecap:round; stroke-linejoin:round; stroke-width:16; stroke-opacity:1; fill:none" stroke-dasharray="8, 16" points="218.439,1108.01 228.852,1091.03 239.264,1076.31 249.677,1065.94 260.09,1061.53 270.503,1063.94 280.916,1073.16 291.329,1088.46 301.741,1108.78 312.154,1133.21 322.567,1161.02 332.98,1191.48 343.393,1223.68 353.805,1256.53 364.218,1288.92 374.631,1319.85 385.044,1348.43 395.457,1373.89 405.87,1395.47 416.282,1412.47 426.695,1424.24 437.108,1430.27 447.521,1430.33 457.934,1424.54 468.347,1413.32 478.759,1397.19 489.172,1376.46 499.585,1351.12 509.998,1321.4 520.411,1288.42 530.824,1254.33 541.236,1221.4 551.649,1190.86 562.062,1162.72 572.475,1136.7 582.888,1113.3 593.301,1093.88 603.713,1079.88 614.126,1071.96 624.539,1069.95 634.952,1073.44 645.365,1082.17 655.777,1096.22 666.19,1115.72 676.603,1140.64 687.016,1170.38 697.429,1203.54 707.842,1237.88 718.254,1270.85 728.667,1301.24 739.08,1330.49 749.493,1360.08 759.906,1387.14 770.319,1406.6 780.731,1417.11 791.144,1421.94 801.557,1425.3 811.97,1429.93 822.383,1435.24 832.796,1432.57 843.208,1407.39 853.621,1357.88 864.034,1299.53 874.447,1251.07 884.86,1230.25 895.273,1240.46 905.685,1243.9 916.098,1217.45 926.511,1174.98 936.924,1126.74 947.337,1080.9 957.749,1052.52 968.162,1052.12 978.575,1070.9 988.988,1087.35 999.401,1088.99 1009.81,1088.13 1020.23,1104.68 1030.64,1132.26 1041.05,1164.17 1051.46,1200.15 1061.88,1224.16 1072.29,1216.87 1082.7,1205.61 1093.12,1239.76 1103.53,1327.15 1113.94,1395.27 1124.35,1433.36 1134.77,1445.72 1145.18,1432.51 1155.59,1417.33 1166.01,1409.46 1176.42,1408.12 1186.83,1409.2 1197.24,1406.96 1207.66,1396.37 1218.07,1377.66 1228.48,1344.58 1238.9,1258.32 1249.31,1048.04 1259.72,701.226 1270.13,388.954 1280.55,349.303 1290.96,375.361 1301.37,382.615 1311.79,374.604 1322.2,347.968 1332.61,313.065 1343.02,293.232 1353.44,303.662 1363.85,341.573 1374.26,380.603 1384.68,384.283 1395.09,362.14 1405.5,323.822 1415.91,270.74 1426.33,327.179 1436.74,366.746 1447.15,387.299 1457.57,357.076 1467.98,313.915 1478.39,303.177 1488.8,285.12 1499.22,252.748 1509.63,236.883 1520.04,274.259 1530.45,358.429 1540.87,451.282 1551.28,497.111 1561.69,458.811 1572.11,394.347 1582.52,340.175 1592.93,290.421 1603.34,251.685 1613.76,244.411 1624.17,272.384 1634.58,316.731 1645,357.683 1655.41,386.951 1665.82,404.409 1676.23,411.459 1686.65,407.875 1697.06,391.032 1707.47,353.691 1717.89,290.962 1728.3,230.139 1738.71,218.43 1749.12,262.558 1759.54,332.446 1769.95,399.604 1780.36,448.275 1790.78,471.241 1801.19,466.644 1811.6,436.865 1822.01,386.637 1832.43,322.543 1842.84,255.895 1853.25,205.472 1863.67,193.042 1874.08,229.748 1884.49,305.271 1894.9,393.085 1905.32,465.642 1915.73,503.458 1926.14,495.149 1936.56,436.905 1946.97,339.403 1957.38,241.4 1967.79,183.451 1978.21,163.202 1988.62,189.881 1999.03,273.223 2009.45,384.069 2019.86,488.077 2030.27,555.141 2040.68,554.002 2051.1,487.761 2061.51,391.186 2071.92,292.779 2082.33,216.698 2092.75,183.915 2103.16,192.315 2113.57,223.536 2123.99,292.721 2134.4,414.857 2144.81,526.973 2155.22,583.642 2165.64,578.139 2176.05,511.176 2186.46,391.35 2196.88,250.868 2207.29,153.014 2217.7,137.832 2228.11,182.352 2238.53,252.471 2248.94,327.708 2259.35,398.122 2269.77,460.275 2280.18,513.459 2290.59,557.078 "/>
<polyline clip-path="url(#clip602)" style="stroke:#e26f46; stroke-linecap:round; stroke-linejoin:round; stroke-width:4; stroke-opacity:1; fill:none" points="218.439,1113.51 228.852,1094.14 239.264,1079.86 249.677,1071.13 260.09,1068.24 270.503,1071.28 280.916,1080.16 291.329,1094.59 301.741,1114.08 312.154,1138.02 322.567,1165.61 332.98,1195.96 343.393,1228.07 353.805,1260.9 364.218,1293.38 374.631,1324.44 385.044,1353.08 395.457,1378.35 405.87,1399.43 416.282,1415.64 426.695,1426.45 437.108,1431.49 447.521,1430.62 457.934,1423.85 468.347,1411.41 478.759,1393.71 489.172,1371.31 499.585,1344.96 509.998,1315.51 520.411,1283.92 530.824,1251.23 541.236,1218.5 551.649,1186.8 562.062,1157.16 572.475,1130.56 582.888,1107.85 593.301,1089.79 603.713,1076.96 614.126,1069.77 624.539,1068.47 634.952,1073.1 645.365,1083.5 655.777,1099.34 666.19,1120.09 676.603,1145.09 687.016,1173.51 697.429,1204.43 707.842,1236.84 718.254,1269.68 728.667,1301.88 739.08,1332.39 749.493,1360.21 759.906,1384.44 770.319,1404.28 780.731,1419.08 791.144,1428.37 801.557,1431.84 811.97,1429.38 822.383,1421.06 832.796,1407.16 843.208,1388.14 853.621,1364.6 864.034,1337.33 874.447,1307.21 884.86,1275.23 895.273,1242.42 905.685,1209.86 916.098,1178.61 926.511,1149.7 936.924,1124.06 947.337,1102.53 957.749,1085.82 968.162,1074.46 978.575,1068.84 988.988,1069.13 999.401,1075.33 1009.81,1087.23 1020.23,1104.44 1030.64,1126.4 1041.05,1152.41 1051.46,1181.59 1061.88,1213.01 1072.29,1245.64 1082.7,1278.42 1093.12,1310.27 1103.53,1340.15 1113.94,1367.09 1124.35,1390.21 1134.77,1408.76 1145.18,1422.13 1155.59,1429.88 1166.01,1431.76 1176.42,1427.72 1186.83,1417.87 1197.24,1402.55 1207.66,1382.24 1218.07,1357.63 1228.48,1329.5 1238.9,1298.78 1249.31,1266.47 1259.72,339.663 1270.13,338.161 1280.55,339.528 1290.96,344.08 1301.37,350.422 1311.79,355.874 1322.2,357.488 1332.61,353.293 1343.02,343.293 1353.44,329.813 1363.85,316.985 1374.26,309.491 1384.68,310.928 1395.09,322.362 1405.5,341.594 1415.91,363.481 1426.33,381.304 1436.74,388.822 1447.15,382.387 1457.57,362.418 1467.98,333.696 1478.39,304.261 1488.8,283.165 1499.22,277.7 1509.63,290.948 1520.04,320.464 1530.45,358.583 1540.87,394.391 1551.28,416.848 1561.69,418.179 1572.11,396.482 1582.52,356.719 1592.93,309.65 1603.34,268.936 1613.76,247.171 1624.17,252.01 1634.58,283.565 1645,333.938 1655.41,389.161 1665.82,433.058 1676.23,451.983 1686.65,439.041 1697.06,396.485 1707.47,335.489 1717.89,273.245 1728.3,228.112 1738.71,214.212 1749.12,237.036 1759.54,291.437 1769.95,362.704 1780.36,430.523 1790.78,474.769 1801.19,481.471 1811.6,447.187 1822.01,380.43 1832.43,299.606 1842.84,227.949 1853.25,186.84 1863.67,189.439 1874.08,236.514 1884.49,315.784 1894.9,405.095 1905.32,478.6 1915.73,514.243 1926.14,500.363 1936.56,439.456 1946.97,347.883 1957.38,251.498 1967.79,178.351 1978.21,150.526 1988.62,177.491 1999.03,252.948 2009.45,356.235 2019.86,457.961 2030.27,528.375 2040.68,546.062 2051.1,504.434 2061.51,414.061 2071.92,300.028 2082.33,194.986 2092.75,129.798 2103.16,124.481 2113.57,182.079 2123.99,287.357 2134.4,410.798 2144.81,516.876 2155.22,574.276 2165.64,565.137 2176.05,490.575 2186.46,370.794 2196.88,239.636 2207.29,135.019 2217.7,87.9763 2228.11,113.461 2238.53,205.633 2248.94,339.117 2259.35,475.966 2269.77,576.461 2280.18,610.622 2290.59,567.153 "/>
<path clip-path="url(#clip600)" d="M229.49 250.738 L675.966 250.738 L675.966 95.2176 L229.49 95.2176  Z" fill="#ffffff" fill-rule="evenodd" fill-opacity="1"/>
<polyline clip-path="url(#clip600)" style="stroke:#000000; stroke-linecap:round; stroke-linejoin:round; stroke-width:4; stroke-opacity:1; fill:none" points="229.49,250.738 675.966,250.738 675.966,95.2176 229.49,95.2176 229.49,250.738 "/>
<polyline clip-path="url(#clip600)" style="stroke:#009af9; stroke-linecap:round; stroke-linejoin:round; stroke-width:16; stroke-opacity:1; fill:none" stroke-dasharray="8, 16" points="253.896,147.058 400.328,147.058 "/>
<path clip-path="url(#clip600)" d="M429.409 133.62 L429.409 146.606 L435.289 146.606 Q438.552 146.606 440.335 144.916 Q442.117 143.227 442.117 140.102 Q442.117 137 440.335 135.31 Q438.552 133.62 435.289 133.62 L429.409 133.62 M424.733 129.778 L435.289 129.778 Q441.099 129.778 444.062 132.416 Q447.048 135.032 447.048 140.102 Q447.048 145.217 444.062 147.833 Q441.099 150.449 435.289 150.449 L429.409 150.449 L429.409 164.338 L424.733 164.338 L424.733 129.778 Z" fill="#000000" fill-rule="nonzero" fill-opacity="1" /><path clip-path="url(#clip600)" d="M467.325 142.393 Q466.608 141.977 465.751 141.791 Q464.918 141.583 463.899 141.583 Q460.288 141.583 458.344 143.944 Q456.423 146.282 456.423 150.68 L456.423 164.338 L452.14 164.338 L452.14 138.412 L456.423 138.412 L456.423 142.44 Q457.765 140.078 459.918 138.944 Q462.071 137.787 465.149 137.787 Q465.589 137.787 466.122 137.856 Q466.654 137.903 467.302 138.018 L467.325 142.393 Z" fill="#000000" fill-rule="nonzero" fill-opacity="1" /><path clip-path="url(#clip600)" d="M492.927 150.31 L492.927 152.393 L473.344 152.393 Q473.622 156.791 475.983 159.106 Q478.367 161.398 482.603 161.398 Q485.057 161.398 487.348 160.796 Q489.663 160.194 491.932 158.99 L491.932 163.018 Q489.64 163.99 487.233 164.5 Q484.825 165.009 482.348 165.009 Q476.145 165.009 472.511 161.398 Q468.899 157.787 468.899 151.629 Q468.899 145.264 472.325 141.537 Q475.774 137.787 481.608 137.787 Q486.839 137.787 489.872 141.166 Q492.927 144.523 492.927 150.31 M488.668 149.06 Q488.622 145.565 486.7 143.481 Q484.802 141.398 481.654 141.398 Q478.089 141.398 475.936 143.412 Q473.807 145.426 473.483 149.083 L488.668 149.06 Z" fill="#000000" fill-rule="nonzero" fill-opacity="1" /><path clip-path="url(#clip600)" d="M516.978 142.347 L516.978 128.319 L521.237 128.319 L521.237 164.338 L516.978 164.338 L516.978 160.449 Q515.635 162.763 513.575 163.898 Q511.538 165.009 508.668 165.009 Q503.969 165.009 501.006 161.259 Q498.066 157.509 498.066 151.398 Q498.066 145.287 501.006 141.537 Q503.969 137.787 508.668 137.787 Q511.538 137.787 513.575 138.921 Q515.635 140.032 516.978 142.347 M502.464 151.398 Q502.464 156.097 504.385 158.782 Q506.33 161.444 509.709 161.444 Q513.089 161.444 515.033 158.782 Q516.978 156.097 516.978 151.398 Q516.978 146.699 515.033 144.037 Q513.089 141.352 509.709 141.352 Q506.33 141.352 504.385 144.037 Q502.464 146.699 502.464 151.398 Z" fill="#000000" fill-rule="nonzero" fill-opacity="1" /><path clip-path="url(#clip600)" d="M530.01 138.412 L534.269 138.412 L534.269 164.338 L530.01 164.338 L530.01 138.412 M530.01 128.319 L534.269 128.319 L534.269 133.713 L530.01 133.713 L530.01 128.319 Z" fill="#000000" fill-rule="nonzero" fill-opacity="1" /><path clip-path="url(#clip600)" d="M561.839 139.407 L561.839 143.389 Q560.033 142.393 558.205 141.907 Q556.399 141.398 554.547 141.398 Q550.404 141.398 548.112 144.037 Q545.82 146.652 545.82 151.398 Q545.82 156.143 548.112 158.782 Q550.404 161.398 554.547 161.398 Q556.399 161.398 558.205 160.912 Q560.033 160.402 561.839 159.407 L561.839 163.342 Q560.056 164.176 558.135 164.592 Q556.237 165.009 554.084 165.009 Q548.228 165.009 544.779 161.328 Q541.33 157.648 541.33 151.398 Q541.33 145.055 544.802 141.421 Q548.297 137.787 554.362 137.787 Q556.33 137.787 558.205 138.203 Q560.08 138.597 561.839 139.407 Z" fill="#000000" fill-rule="nonzero" fill-opacity="1" /><path clip-path="url(#clip600)" d="M573.459 131.051 L573.459 138.412 L582.232 138.412 L582.232 141.722 L573.459 141.722 L573.459 155.796 Q573.459 158.967 574.316 159.87 Q575.195 160.773 577.857 160.773 L582.232 160.773 L582.232 164.338 L577.857 164.338 Q572.927 164.338 571.052 162.509 Q569.177 160.657 569.177 155.796 L569.177 141.722 L566.052 141.722 L566.052 138.412 L569.177 138.412 L569.177 131.051 L573.459 131.051 Z" fill="#000000" fill-rule="nonzero" fill-opacity="1" /><path clip-path="url(#clip600)" d="M587.834 138.412 L592.093 138.412 L592.093 164.338 L587.834 164.338 L587.834 138.412 M587.834 128.319 L592.093 128.319 L592.093 133.713 L587.834 133.713 L587.834 128.319 Z" fill="#000000" fill-rule="nonzero" fill-opacity="1" /><path clip-path="url(#clip600)" d="M611.051 141.398 Q607.626 141.398 605.635 144.083 Q603.644 146.745 603.644 151.398 Q603.644 156.051 605.612 158.736 Q607.602 161.398 611.051 161.398 Q614.454 161.398 616.445 158.713 Q618.436 156.027 618.436 151.398 Q618.436 146.791 616.445 144.106 Q614.454 141.398 611.051 141.398 M611.051 137.787 Q616.607 137.787 619.778 141.398 Q622.95 145.009 622.95 151.398 Q622.95 157.764 619.778 161.398 Q616.607 165.009 611.051 165.009 Q605.473 165.009 602.302 161.398 Q599.153 157.764 599.153 151.398 Q599.153 145.009 602.302 141.398 Q605.473 137.787 611.051 137.787 Z" fill="#000000" fill-rule="nonzero" fill-opacity="1" /><path clip-path="url(#clip600)" d="M651.561 148.689 L651.561 164.338 L647.301 164.338 L647.301 148.828 Q647.301 145.148 645.866 143.319 Q644.431 141.49 641.561 141.49 Q638.112 141.49 636.121 143.69 Q634.13 145.889 634.13 149.685 L634.13 164.338 L629.848 164.338 L629.848 138.412 L634.13 138.412 L634.13 142.44 Q635.658 140.102 637.718 138.944 Q639.801 137.787 642.51 137.787 Q646.977 137.787 649.269 140.565 Q651.561 143.319 651.561 148.689 Z" fill="#000000" fill-rule="nonzero" fill-opacity="1" /><polyline clip-path="url(#clip600)" style="stroke:#e26f46; stroke-linecap:round; stroke-linejoin:round; stroke-width:4; stroke-opacity:1; fill:none" points="253.896,198.898 400.328,198.898 "/>
<path clip-path="url(#clip600)" d="M424.733 181.618 L446.585 181.618 L446.585 185.553 L429.409 185.553 L429.409 195.784 L445.867 195.784 L445.867 199.719 L429.409 199.719 L429.409 212.242 L447.001 212.242 L447.001 216.178 L424.733 216.178 L424.733 181.618 Z" fill="#000000" fill-rule="nonzero" fill-opacity="1" /><path clip-path="url(#clip600)" d="M476.052 190.252 L466.677 202.867 L476.538 216.178 L471.515 216.178 L463.969 205.992 L456.423 216.178 L451.4 216.178 L461.469 202.613 L452.256 190.252 L457.279 190.252 L464.154 199.488 L471.029 190.252 L476.052 190.252 Z" fill="#000000" fill-rule="nonzero" fill-opacity="1" /><path clip-path="url(#clip600)" d="M494.339 203.145 Q489.177 203.145 487.186 204.326 Q485.196 205.506 485.196 208.354 Q485.196 210.622 486.677 211.965 Q488.182 213.284 490.751 213.284 Q494.293 213.284 496.422 210.784 Q498.575 208.261 498.575 204.094 L498.575 203.145 L494.339 203.145 M502.834 201.386 L502.834 216.178 L498.575 216.178 L498.575 212.242 Q497.117 214.603 494.941 215.738 Q492.765 216.849 489.617 216.849 Q485.635 216.849 483.274 214.627 Q480.936 212.381 480.936 208.631 Q480.936 204.256 483.853 202.034 Q486.793 199.812 492.603 199.812 L498.575 199.812 L498.575 199.395 Q498.575 196.455 496.631 194.858 Q494.71 193.238 491.214 193.238 Q488.992 193.238 486.885 193.77 Q484.779 194.303 482.835 195.367 L482.835 191.432 Q485.173 190.53 487.372 190.09 Q489.571 189.627 491.654 189.627 Q497.279 189.627 500.057 192.543 Q502.834 195.46 502.834 201.386 Z" fill="#000000" fill-rule="nonzero" fill-opacity="1" /><path clip-path="url(#clip600)" d="M530.265 191.247 L530.265 195.229 Q528.459 194.233 526.631 193.747 Q524.825 193.238 522.973 193.238 Q518.83 193.238 516.538 195.877 Q514.246 198.492 514.246 203.238 Q514.246 207.983 516.538 210.622 Q518.83 213.238 522.973 213.238 Q524.825 213.238 526.631 212.752 Q528.459 212.242 530.265 211.247 L530.265 215.182 Q528.482 216.016 526.561 216.432 Q524.663 216.849 522.51 216.849 Q516.654 216.849 513.205 213.168 Q509.756 209.488 509.756 203.238 Q509.756 196.895 513.228 193.261 Q516.723 189.627 522.788 189.627 Q524.756 189.627 526.631 190.043 Q528.506 190.437 530.265 191.247 Z" fill="#000000" fill-rule="nonzero" fill-opacity="1" /><path clip-path="url(#clip600)" d="M541.885 182.891 L541.885 190.252 L550.658 190.252 L550.658 193.562 L541.885 193.562 L541.885 207.636 Q541.885 210.807 542.742 211.71 Q543.621 212.613 546.283 212.613 L550.658 212.613 L550.658 216.178 L546.283 216.178 Q541.353 216.178 539.478 214.349 Q537.603 212.497 537.603 207.636 L537.603 193.562 L534.478 193.562 L534.478 190.252 L537.603 190.252 L537.603 182.891 L541.885 182.891 Z" fill="#000000" fill-rule="nonzero" fill-opacity="1" /></svg>
