<?xml version="1.0" encoding="utf-8"?>
<svg xmlns="http://www.w3.org/2000/svg" xmlns:xlink="http://www.w3.org/1999/xlink" width="600" height="400" viewBox="0 0 2400 1600">
<defs>
  <clipPath id="clip510">
    <rect x="0" y="0" width="2400" height="1600"/>
  </clipPath>
</defs>
<path clip-path="url(#clip510)" d="M0 1600 L2400 1600 L2400 0 L0 0  Z" fill="#ffffff" fill-rule="evenodd" fill-opacity="1"/>
<defs>
  <clipPath id="clip511">
    <rect x="480" y="0" width="1681" height="1600"/>
  </clipPath>
</defs>
<path clip-path="url(#clip510)" d="M192.941 1486.45 L2352.76 1486.45 L2352.76 47.2441 L192.941 47.2441  Z" fill="#ffffff" fill-rule="evenodd" fill-opacity="1"/>
<defs>
  <clipPath id="clip512">
    <rect x="192" y="47" width="2161" height="1440"/>
  </clipPath>
</defs>
<polyline clip-path="url(#clip512)" style="stroke:#000000; stroke-linecap:round; stroke-linejoin:round; stroke-width:2; stroke-opacity:0.1; fill:none" points="254.067,1486.45 254.067,47.2441 "/>
<polyline clip-path="url(#clip512)" style="stroke:#000000; stroke-linecap:round; stroke-linejoin:round; stroke-width:2; stroke-opacity:0.1; fill:none" points="763.458,1486.45 763.458,47.2441 "/>
<polyline clip-path="url(#clip512)" style="stroke:#000000; stroke-linecap:round; stroke-linejoin:round; stroke-width:2; stroke-opacity:0.1; fill:none" points="1272.85,1486.45 1272.85,47.2441 "/>
<polyline clip-path="url(#clip512)" style="stroke:#000000; stroke-linecap:round; stroke-linejoin:round; stroke-width:2; stroke-opacity:0.1; fill:none" points="1782.24,1486.45 1782.24,47.2441 "/>
<polyline clip-path="url(#clip512)" style="stroke:#000000; stroke-linecap:round; stroke-linejoin:round; stroke-width:2; stroke-opacity:0.1; fill:none" points="2291.63,1486.45 2291.63,47.2441 "/>
<polyline clip-path="url(#clip510)" style="stroke:#000000; stroke-linecap:round; stroke-linejoin:round; stroke-width:4; stroke-opacity:1; fill:none" points="192.941,1486.45 2352.76,1486.45 "/>
<polyline clip-path="url(#clip510)" style="stroke:#000000; stroke-linecap:round; stroke-linejoin:round; stroke-width:4; stroke-opacity:1; fill:none" points="254.067,1486.45 254.067,1467.55 "/>
<polyline clip-path="url(#clip510)" style="stroke:#000000; stroke-linecap:round; stroke-linejoin:round; stroke-width:4; stroke-opacity:1; fill:none" points="763.458,1486.45 763.458,1467.55 "/>
<polyline clip-path="url(#clip510)" style="stroke:#000000; stroke-linecap:round; stroke-linejoin:round; stroke-width:4; stroke-opacity:1; fill:none" points="1272.85,1486.45 1272.85,1467.55 "/>
<polyline clip-path="url(#clip510)" style="stroke:#000000; stroke-linecap:round; stroke-linejoin:round; stroke-width:4; stroke-opacity:1; fill:none" points="1782.24,1486.45 1782.24,1467.55 "/>
<polyline clip-path="url(#clip510)" style="stroke:#000000; stroke-linecap:round; stroke-linejoin:round; stroke-width:4; stroke-opacity:1; fill:none" points="2291.63,1486.45 2291.63,1467.55 "/>
<path clip-path="url(#clip510)" d="M200.596 1532.02 L230.271 1532.02 L230.271 1535.95 L200.596 1535.95 L200.596 1532.02 Z" fill="#000000" fill-rule="nonzero" fill-opacity="1" /><path clip-path="url(#clip510)" d="M241.174 1544.91 L248.813 1544.91 L248.813 1518.55 L240.503 1520.21 L240.503 1515.95 L248.767 1514.29 L253.442 1514.29 L253.442 1544.91 L261.081 1544.91 L261.081 1548.85 L241.174 1548.85 L241.174 1544.91 Z" fill="#000000" fill-rule="nonzero" fill-opacity="1" /><path clip-path="url(#clip510)" d="M270.526 1542.97 L275.41 1542.97 L275.41 1548.85 L270.526 1548.85 L270.526 1542.97 Z" fill="#000000" fill-rule="nonzero" fill-opacity="1" /><path clip-path="url(#clip510)" d="M295.595 1517.37 Q291.984 1517.37 290.155 1520.93 Q288.35 1524.47 288.35 1531.6 Q288.35 1538.71 290.155 1542.27 Q291.984 1545.82 295.595 1545.82 Q299.229 1545.82 301.035 1542.27 Q302.864 1538.71 302.864 1531.6 Q302.864 1524.47 301.035 1520.93 Q299.229 1517.37 295.595 1517.37 M295.595 1513.66 Q301.405 1513.66 304.461 1518.27 Q307.539 1522.85 307.539 1531.6 Q307.539 1540.33 304.461 1544.94 Q301.405 1549.52 295.595 1549.52 Q289.785 1549.52 286.706 1544.94 Q283.651 1540.33 283.651 1531.6 Q283.651 1522.85 286.706 1518.27 Q289.785 1513.66 295.595 1513.66 Z" fill="#000000" fill-rule="nonzero" fill-opacity="1" /><path clip-path="url(#clip510)" d="M710.484 1532.02 L740.159 1532.02 L740.159 1535.95 L710.484 1535.95 L710.484 1532.02 Z" fill="#000000" fill-rule="nonzero" fill-opacity="1" /><path clip-path="url(#clip510)" d="M760.252 1517.37 Q756.641 1517.37 754.812 1520.93 Q753.007 1524.47 753.007 1531.6 Q753.007 1538.71 754.812 1542.27 Q756.641 1545.82 760.252 1545.82 Q763.886 1545.82 765.692 1542.27 Q767.52 1538.71 767.52 1531.6 Q767.52 1524.47 765.692 1520.93 Q763.886 1517.37 760.252 1517.37 M760.252 1513.66 Q766.062 1513.66 769.118 1518.27 Q772.196 1522.85 772.196 1531.6 Q772.196 1540.33 769.118 1544.94 Q766.062 1549.52 760.252 1549.52 Q754.442 1549.52 751.363 1544.94 Q748.307 1540.33 748.307 1531.6 Q748.307 1522.85 751.363 1518.27 Q754.442 1513.66 760.252 1513.66 Z" fill="#000000" fill-rule="nonzero" fill-opacity="1" /><path clip-path="url(#clip510)" d="M780.414 1542.97 L785.298 1542.97 L785.298 1548.85 L780.414 1548.85 L780.414 1542.97 Z" fill="#000000" fill-rule="nonzero" fill-opacity="1" /><path clip-path="url(#clip510)" d="M795.529 1514.29 L813.886 1514.29 L813.886 1518.22 L799.812 1518.22 L799.812 1526.7 Q800.83 1526.35 801.849 1526.19 Q802.867 1526 803.886 1526 Q809.673 1526 813.053 1529.17 Q816.432 1532.34 816.432 1537.76 Q816.432 1543.34 812.96 1546.44 Q809.488 1549.52 803.168 1549.52 Q800.992 1549.52 798.724 1549.15 Q796.479 1548.78 794.071 1548.04 L794.071 1543.34 Q796.154 1544.47 798.377 1545.03 Q800.599 1545.58 803.076 1545.58 Q807.08 1545.58 809.418 1543.48 Q811.756 1541.37 811.756 1537.76 Q811.756 1534.15 809.418 1532.04 Q807.08 1529.94 803.076 1529.94 Q801.201 1529.94 799.326 1530.35 Q797.474 1530.77 795.529 1531.65 L795.529 1514.29 Z" fill="#000000" fill-rule="nonzero" fill-opacity="1" /><path clip-path="url(#clip510)" d="M1250.23 1517.37 Q1246.62 1517.37 1244.79 1520.93 Q1242.99 1524.47 1242.99 1531.6 Q1242.99 1538.71 1244.79 1542.27 Q1246.62 1545.82 1250.23 1545.82 Q1253.87 1545.82 1255.67 1542.27 Q1257.5 1538.71 1257.5 1531.6 Q1257.5 1524.47 1255.67 1520.93 Q1253.87 1517.37 1250.23 1517.37 M1250.23 1513.66 Q1256.04 1513.66 1259.1 1518.27 Q1262.18 1522.85 1262.18 1531.6 Q1262.18 1540.33 1259.1 1544.94 Q1256.04 1549.52 1250.23 1549.52 Q1244.42 1549.52 1241.34 1544.94 Q1238.29 1540.33 1238.29 1531.6 Q1238.29 1522.85 1241.34 1518.27 Q1244.42 1513.66 1250.23 1513.66 Z" fill="#000000" fill-rule="nonzero" fill-opacity="1" /><path clip-path="url(#clip510)" d="M1270.39 1542.97 L1275.28 1542.97 L1275.28 1548.85 L1270.39 1548.85 L1270.39 1542.97 Z" fill="#000000" fill-rule="nonzero" fill-opacity="1" /><path clip-path="url(#clip510)" d="M1295.46 1517.37 Q1291.85 1517.37 1290.02 1520.93 Q1288.22 1524.47 1288.22 1531.6 Q1288.22 1538.71 1290.02 1542.27 Q1291.85 1545.82 1295.46 1545.82 Q1299.1 1545.82 1300.9 1542.27 Q1302.73 1538.71 1302.73 1531.6 Q1302.73 1524.47 1300.9 1520.93 Q1299.1 1517.37 1295.46 1517.37 M1295.46 1513.66 Q1301.27 1513.66 1304.33 1518.27 Q1307.41 1522.85 1307.41 1531.6 Q1307.41 1540.33 1304.33 1544.94 Q1301.27 1549.52 1295.46 1549.52 Q1289.65 1549.52 1286.58 1544.94 Q1283.52 1540.33 1283.52 1531.6 Q1283.52 1522.85 1286.58 1518.27 Q1289.65 1513.66 1295.46 1513.66 Z" fill="#000000" fill-rule="nonzero" fill-opacity="1" /><path clip-path="url(#clip510)" d="M1760.12 1517.37 Q1756.51 1517.37 1754.68 1520.93 Q1752.88 1524.47 1752.88 1531.6 Q1752.88 1538.71 1754.68 1542.27 Q1756.51 1545.82 1760.12 1545.82 Q1763.75 1545.82 1765.56 1542.27 Q1767.39 1538.71 1767.39 1531.6 Q1767.39 1524.47 1765.56 1520.93 Q1763.75 1517.37 1760.12 1517.37 M1760.12 1513.66 Q1765.93 1513.66 1768.99 1518.27 Q1772.07 1522.85 1772.07 1531.6 Q1772.07 1540.33 1768.99 1544.94 Q1765.93 1549.52 1760.12 1549.52 Q1754.31 1549.52 1751.23 1544.94 Q1748.18 1540.33 1748.18 1531.6 Q1748.18 1522.85 1751.23 1518.27 Q1754.31 1513.66 1760.12 1513.66 Z" fill="#000000" fill-rule="nonzero" fill-opacity="1" /><path clip-path="url(#clip510)" d="M1780.28 1542.97 L1785.17 1542.97 L1785.17 1548.85 L1780.28 1548.85 L1780.28 1542.97 Z" fill="#000000" fill-rule="nonzero" fill-opacity="1" /><path clip-path="url(#clip510)" d="M1795.4 1514.29 L1813.75 1514.29 L1813.75 1518.22 L1799.68 1518.22 L1799.68 1526.7 Q1800.7 1526.35 1801.72 1526.19 Q1802.74 1526 1803.75 1526 Q1809.54 1526 1812.92 1529.17 Q1816.3 1532.34 1816.3 1537.76 Q1816.3 1543.34 1812.83 1546.44 Q1809.36 1549.52 1803.04 1549.52 Q1800.86 1549.52 1798.59 1549.15 Q1796.35 1548.78 1793.94 1548.04 L1793.94 1543.34 Q1796.02 1544.47 1798.25 1545.03 Q1800.47 1545.58 1802.94 1545.58 Q1806.95 1545.58 1809.29 1543.48 Q1811.63 1541.37 1811.63 1537.76 Q1811.63 1534.15 1809.29 1532.04 Q1806.95 1529.94 1802.94 1529.94 Q1801.07 1529.94 1799.19 1530.35 Q1797.34 1530.77 1795.4 1531.65 L1795.4 1514.29 Z" fill="#000000" fill-rule="nonzero" fill-opacity="1" /><path clip-path="url(#clip510)" d="M2258.78 1544.91 L2266.42 1544.91 L2266.42 1518.55 L2258.11 1520.21 L2258.11 1515.95 L2266.37 1514.29 L2271.05 1514.29 L2271.05 1544.91 L2278.69 1544.91 L2278.69 1548.85 L2258.78 1548.85 L2258.78 1544.91 Z" fill="#000000" fill-rule="nonzero" fill-opacity="1" /><path clip-path="url(#clip510)" d="M2288.13 1542.97 L2293.02 1542.97 L2293.02 1548.85 L2288.13 1548.85 L2288.13 1542.97 Z" fill="#000000" fill-rule="nonzero" fill-opacity="1" /><path clip-path="url(#clip510)" d="M2313.2 1517.37 Q2309.59 1517.37 2307.76 1520.93 Q2305.96 1524.47 2305.96 1531.6 Q2305.96 1538.71 2307.76 1542.27 Q2309.59 1545.82 2313.2 1545.82 Q2316.84 1545.82 2318.64 1542.27 Q2320.47 1538.71 2320.47 1531.6 Q2320.47 1524.47 2318.64 1520.93 Q2316.84 1517.37 2313.2 1517.37 M2313.2 1513.66 Q2319.01 1513.66 2322.07 1518.27 Q2325.15 1522.85 2325.15 1531.6 Q2325.15 1540.33 2322.07 1544.94 Q2319.01 1549.52 2313.2 1549.52 Q2307.39 1549.52 2304.31 1544.94 Q2301.26 1540.33 2301.26 1531.6 Q2301.26 1522.85 2304.31 1518.27 Q2307.39 1513.66 2313.2 1513.66 Z" fill="#000000" fill-rule="nonzero" fill-opacity="1" /><polyline clip-path="url(#clip512)" style="stroke:#000000; stroke-linecap:round; stroke-linejoin:round; stroke-width:2; stroke-opacity:0.1; fill:none" points="192.941,1462.23 2352.76,1462.23 "/>
<polyline clip-path="url(#clip512)" style="stroke:#000000; stroke-linecap:round; stroke-linejoin:round; stroke-width:2; stroke-opacity:0.1; fill:none" points="192.941,1094.19 2352.76,1094.19 "/>
<polyline clip-path="url(#clip512)" style="stroke:#000000; stroke-linecap:round; stroke-linejoin:round; stroke-width:2; stroke-opacity:0.1; fill:none" points="192.941,726.155 2352.76,726.155 "/>
<polyline clip-path="url(#clip512)" style="stroke:#000000; stroke-linecap:round; stroke-linejoin:round; stroke-width:2; stroke-opacity:0.1; fill:none" points="192.941,358.12 2352.76,358.12 "/>
<polyline clip-path="url(#clip510)" style="stroke:#000000; stroke-linecap:round; stroke-linejoin:round; stroke-width:4; stroke-opacity:1; fill:none" points="192.941,1486.45 192.941,47.2441 "/>
<polyline clip-path="url(#clip510)" style="stroke:#000000; stroke-linecap:round; stroke-linejoin:round; stroke-width:4; stroke-opacity:1; fill:none" points="192.941,1462.23 211.838,1462.23 "/>
<polyline clip-path="url(#clip510)" style="stroke:#000000; stroke-linecap:round; stroke-linejoin:round; stroke-width:4; stroke-opacity:1; fill:none" points="192.941,1094.19 211.838,1094.19 "/>
<polyline clip-path="url(#clip510)" style="stroke:#000000; stroke-linecap:round; stroke-linejoin:round; stroke-width:4; stroke-opacity:1; fill:none" points="192.941,726.155 211.838,726.155 "/>
<polyline clip-path="url(#clip510)" style="stroke:#000000; stroke-linecap:round; stroke-linejoin:round; stroke-width:4; stroke-opacity:1; fill:none" points="192.941,358.12 211.838,358.12 "/>
<path clip-path="url(#clip510)" d="M50.9921 1462.68 L80.6679 1462.68 L80.6679 1466.61 L50.9921 1466.61 L50.9921 1462.68 Z" fill="#000000" fill-rule="nonzero" fill-opacity="1" /><path clip-path="url(#clip510)" d="M100.76 1448.03 Q97.1493 1448.03 95.3206 1451.59 Q93.515 1455.13 93.515 1462.26 Q93.515 1469.37 95.3206 1472.93 Q97.1493 1476.47 100.76 1476.47 Q104.395 1476.47 106.2 1472.93 Q108.029 1469.37 108.029 1462.26 Q108.029 1455.13 106.2 1451.59 Q104.395 1448.03 100.76 1448.03 M100.76 1444.32 Q106.571 1444.32 109.626 1448.93 Q112.705 1453.51 112.705 1462.26 Q112.705 1470.99 109.626 1475.59 Q106.571 1480.18 100.76 1480.18 Q94.9502 1480.18 91.8715 1475.59 Q88.816 1470.99 88.816 1462.26 Q88.816 1453.51 91.8715 1448.93 Q94.9502 1444.32 100.76 1444.32 Z" fill="#000000" fill-rule="nonzero" fill-opacity="1" /><path clip-path="url(#clip510)" d="M120.922 1473.63 L125.807 1473.63 L125.807 1479.51 L120.922 1479.51 L120.922 1473.63 Z" fill="#000000" fill-rule="nonzero" fill-opacity="1" /><path clip-path="url(#clip510)" d="M136.038 1444.95 L154.394 1444.95 L154.394 1448.88 L140.32 1448.88 L140.32 1457.35 Q141.339 1457.01 142.357 1456.84 Q143.376 1456.66 144.394 1456.66 Q150.181 1456.66 153.561 1459.83 Q156.941 1463 156.941 1468.42 Q156.941 1474 153.468 1477.1 Q149.996 1480.18 143.677 1480.18 Q141.501 1480.18 139.232 1479.81 Q136.987 1479.44 134.58 1478.7 L134.58 1474 Q136.663 1475.13 138.885 1475.69 Q141.107 1476.24 143.584 1476.24 Q147.589 1476.24 149.927 1474.14 Q152.265 1472.03 152.265 1468.42 Q152.265 1464.81 149.927 1462.7 Q147.589 1460.59 143.584 1460.59 Q141.709 1460.59 139.834 1461.01 Q137.982 1461.43 136.038 1462.31 L136.038 1444.95 Z" fill="#000000" fill-rule="nonzero" fill-opacity="1" /><path clip-path="url(#clip510)" d="M99.765 1079.99 Q96.1539 1079.99 94.3252 1083.55 Q92.5197 1087.1 92.5197 1094.23 Q92.5197 1101.33 94.3252 1104.9 Q96.1539 1108.44 99.765 1108.44 Q103.399 1108.44 105.205 1104.9 Q107.033 1101.33 107.033 1094.23 Q107.033 1087.1 105.205 1083.55 Q103.399 1079.99 99.765 1079.99 M99.765 1076.29 Q105.575 1076.29 108.631 1080.89 Q111.709 1085.48 111.709 1094.23 Q111.709 1102.95 108.631 1107.56 Q105.575 1112.14 99.765 1112.14 Q93.9549 1112.14 90.8762 1107.56 Q87.8206 1102.95 87.8206 1094.23 Q87.8206 1085.48 90.8762 1080.89 Q93.9549 1076.29 99.765 1076.29 Z" fill="#000000" fill-rule="nonzero" fill-opacity="1" /><path clip-path="url(#clip510)" d="M119.927 1105.59 L124.811 1105.59 L124.811 1111.47 L119.927 1111.47 L119.927 1105.59 Z" fill="#000000" fill-rule="nonzero" fill-opacity="1" /><path clip-path="url(#clip510)" d="M144.996 1079.99 Q141.385 1079.99 139.556 1083.55 Q137.751 1087.1 137.751 1094.23 Q137.751 1101.33 139.556 1104.9 Q141.385 1108.44 144.996 1108.44 Q148.63 1108.44 150.436 1104.9 Q152.265 1101.33 152.265 1094.23 Q152.265 1087.1 150.436 1083.55 Q148.63 1079.99 144.996 1079.99 M144.996 1076.29 Q150.806 1076.29 153.862 1080.89 Q156.941 1085.48 156.941 1094.23 Q156.941 1102.95 153.862 1107.56 Q150.806 1112.14 144.996 1112.14 Q139.186 1112.14 136.107 1107.56 Q133.052 1102.95 133.052 1094.23 Q133.052 1085.48 136.107 1080.89 Q139.186 1076.29 144.996 1076.29 Z" fill="#000000" fill-rule="nonzero" fill-opacity="1" /><path clip-path="url(#clip510)" d="M100.76 711.954 Q97.1493 711.954 95.3206 715.519 Q93.515 719.06 93.515 726.19 Q93.515 733.296 95.3206 736.861 Q97.1493 740.403 100.76 740.403 Q104.395 740.403 106.2 736.861 Q108.029 733.296 108.029 726.19 Q108.029 719.06 106.2 715.519 Q104.395 711.954 100.76 711.954 M100.76 708.25 Q106.571 708.25 109.626 712.857 Q112.705 717.44 112.705 726.19 Q112.705 734.917 109.626 739.523 Q106.571 744.106 100.76 744.106 Q94.9502 744.106 91.8715 739.523 Q88.816 734.917 88.816 726.19 Q88.816 717.44 91.8715 712.857 Q94.9502 708.25 100.76 708.25 Z" fill="#000000" fill-rule="nonzero" fill-opacity="1" /><path clip-path="url(#clip510)" d="M120.922 737.556 L125.807 737.556 L125.807 743.435 L120.922 743.435 L120.922 737.556 Z" fill="#000000" fill-rule="nonzero" fill-opacity="1" /><path clip-path="url(#clip510)" d="M136.038 708.875 L154.394 708.875 L154.394 712.81 L140.32 712.81 L140.32 721.283 Q141.339 720.935 142.357 720.773 Q143.376 720.588 144.394 720.588 Q150.181 720.588 153.561 723.759 Q156.941 726.931 156.941 732.347 Q156.941 737.926 153.468 741.028 Q149.996 744.106 143.677 744.106 Q141.501 744.106 139.232 743.736 Q136.987 743.366 134.58 742.625 L134.58 737.926 Q136.663 739.06 138.885 739.616 Q141.107 740.171 143.584 740.171 Q147.589 740.171 149.927 738.065 Q152.265 735.958 152.265 732.347 Q152.265 728.736 149.927 726.63 Q147.589 724.523 143.584 724.523 Q141.709 724.523 139.834 724.94 Q137.982 725.357 136.038 726.236 L136.038 708.875 Z" fill="#000000" fill-rule="nonzero" fill-opacity="1" /><path clip-path="url(#clip510)" d="M90.5752 371.464 L98.2141 371.464 L98.2141 345.099 L89.904 346.765 L89.904 342.506 L98.1678 340.84 L102.844 340.84 L102.844 371.464 L110.483 371.464 L110.483 375.4 L90.5752 375.4 L90.5752 371.464 Z" fill="#000000" fill-rule="nonzero" fill-opacity="1" /><path clip-path="url(#clip510)" d="M119.927 369.52 L124.811 369.52 L124.811 375.4 L119.927 375.4 L119.927 369.52 Z" fill="#000000" fill-rule="nonzero" fill-opacity="1" /><path clip-path="url(#clip510)" d="M144.996 343.918 Q141.385 343.918 139.556 347.483 Q137.751 351.025 137.751 358.154 Q137.751 365.261 139.556 368.825 Q141.385 372.367 144.996 372.367 Q148.63 372.367 150.436 368.825 Q152.265 365.261 152.265 358.154 Q152.265 351.025 150.436 347.483 Q148.63 343.918 144.996 343.918 M144.996 340.215 Q150.806 340.215 153.862 344.821 Q156.941 349.404 156.941 358.154 Q156.941 366.881 153.862 371.488 Q150.806 376.071 144.996 376.071 Q139.186 376.071 136.107 371.488 Q133.052 366.881 133.052 358.154 Q133.052 349.404 136.107 344.821 Q139.186 340.215 144.996 340.215 Z" fill="#000000" fill-rule="nonzero" fill-opacity="1" /><polyline clip-path="url(#clip512)" style="stroke:#009af9; stroke-linecap:round; stroke-linejoin:round; stroke-width:16; stroke-opacity:1; fill:none" stroke-dasharray="8, 16" points="254.067,983.635 264.306,898.199 274.545,873.03 284.785,905.729 295.023,945.511 305.262,949.899 315.501,931.46 325.741,941.028 335.98,981.958 346.218,997.981 356.457,988.184 366.697,1011.05 376.936,1069.67 387.175,1131.39 397.414,1198.44 407.653,1245.85 417.892,1203.37 428.131,1128.35 438.37,1121.83 448.609,1174.89 458.848,1228.72 469.087,1246.92 479.326,1230.77 489.565,1210.42 499.804,1212.97 510.043,1234.51 520.282,1240.75 530.521,1202.92 540.76,1146.03 550.999,1142.11 561.238,1137.57 571.477,1089.94 581.716,1053.98 591.955,999.135 602.194,935.757 612.433,912.979 622.672,936.886 632.911,973.403 643.15,984.909 653.389,963.659 663.628,945.092 673.867,973.622 684.106,1046.34 694.345,1099.36 704.584,1078.27 714.823,992.07 725.062,900.754 735.301,882.924 745.54,985.891 755.779,1188.75 766.018,1390.81 776.257,1445.72 786.496,1333.27 796.735,1191.3 806.974,1124.67 817.213,1144.2 827.452,1198.75 837.691,1246.14 847.93,1291.57 858.169,1327.33 868.408,1294.93 878.647,1176.88 888.886,1039.98 899.125,992.086 909.364,1047.56 919.603,1088.75 929.842,1080.04 940.081,1067.85 950.32,1045.94 960.559,993.739 970.798,951.896 981.037,960.19 991.276,982.774 1001.51,953.732 1011.75,881.656 1021.99,844.388 1032.23,880.228 1042.47,963.494 1052.71,1055.07 1062.95,1114.25 1073.19,1118.7 1083.43,1081.12 1093.67,1034.45 1103.9,1016.99 1114.14,1058.49 1124.38,1148.6 1134.62,1215.02 1144.86,1194.21 1155.1,1150.82 1165.34,1209.86 1175.58,1271.39 1185.82,1287.91 1196.06,1274.03 1206.29,1241 1216.53,1205.17 1226.77,1185.33 1237.01,1184.48 1247.25,1175.15 1257.49,1072.59 1267.73,748.753 1277.97,389.381 1288.21,325.918 1298.45,383.828 1308.68,416.561 1318.92,415.847 1329.16,392.124 1339.4,356.44 1349.64,325.746 1359.88,314.261 1370.12,324.243 1380.36,354.014 1390.6,364.658 1400.84,311.867 1411.07,316.161 1421.31,372.136 1431.55,440.392 1441.79,475.194 1452.03,448.539 1462.27,374.963 1472.51,293.075 1482.75,251.255 1492.99,272.095 1503.23,321.285 1513.46,361.374 1523.7,382.464 1533.94,377.063 1544.18,369.866 1554.42,404.62 1564.66,461.369 1574.9,466.972 1585.14,400.732 1595.38,334.049 1605.62,323.243 1615.85,318.668 1626.09,282.528 1636.33,316.378 1646.57,445.089 1656.81,488.633 1667.05,409.221 1677.29,315.555 1687.53,287.951 1697.77,328.402 1708.01,388.862 1718.24,434.221 1728.48,452.387 1738.72,410.94 1748.96,287.457 1759.2,146.269 1769.44,87.9763 1779.68,185.391 1789.92,388.383 1800.16,564.874 1810.4,633.592 1820.63,579.149 1830.87,429.152 1841.11,246.736 1851.35,124.817 1861.59,127.65 1871.83,211.485 1882.07,293.628 1892.31,352.67 1902.55,404.311 1912.79,461.172 1923.02,514.222 1933.26,528.554 1943.5,472.975 1953.74,369.68 1963.98,292.648 1974.22,261.828 1984.46,215.107 1994.7,212.959 2004.94,298.234 2015.18,395.618 2025.41,481.059 2035.65,526.909 2045.89,511.638 2056.13,443.925 2066.37,357.113 2076.61,288.506 2086.85,258.819 2097.09,265.613 2107.33,291.239 2117.57,302.017 2127.8,288.576 2138.04,317.084 2148.28,417.132 2158.52,507.855 2168.76,549.657 2179,543.773 2189.24,457.415 2199.48,300.838 2209.72,192.996 2219.96,205.376 2230.2,272.055 2240.43,319.029 2250.67,352.402 2260.91,433.809 2271.15,551.337 2281.39,596.502 2291.63,541.249 "/>
<polyline clip-path="url(#clip512)" style="stroke:#e26f46; stroke-linecap:round; stroke-linejoin:round; stroke-width:4; stroke-opacity:1; fill:none" points="254.067,983.635 264.306,967.949 274.545,956.384 284.785,949.316 295.023,946.977 305.262,949.442 315.501,956.632 325.741,968.311 335.98,984.098 346.218,1003.48 356.457,1025.82 366.697,1050.39 376.936,1076.39 387.175,1102.98 397.414,1129.27 407.653,1154.42 417.892,1177.61 428.131,1198.07 438.37,1215.14 448.609,1228.27 458.848,1237.02 469.087,1241.11 479.326,1240.4 489.565,1234.92 499.804,1224.85 510.043,1210.51 520.282,1192.38 530.521,1171.04 540.76,1147.19 550.999,1121.62 561.238,1095.15 571.477,1068.65 581.716,1042.98 591.955,1018.98 602.194,997.439 612.433,979.055 622.672,964.428 632.911,954.037 643.15,948.22 653.389,947.167 663.628,950.912 673.867,959.334 684.106,972.157 694.345,988.963 704.584,1009.2 714.823,1032.22 725.062,1057.25 735.301,1083.5 745.54,1110.09 755.779,1136.16 766.018,1160.86 776.257,1183.39 786.496,1203 796.735,1219.07 806.974,1231.06 817.213,1238.58 827.452,1241.39 837.691,1239.39 847.93,1232.66 858.169,1221.41 868.408,1206 878.647,1186.95 888.886,1164.86 899.125,1140.48 909.364,1114.58 919.603,1088.01 929.842,1061.65 940.081,1036.35 950.32,1012.94 960.559,992.176 970.798,974.745 981.037,961.212 991.276,952.019 1001.51,947.466 1011.75,947.702 1021.99,952.719 1032.23,962.353 1042.47,976.29 1052.71,994.075 1062.95,1015.13 1073.19,1038.76 1083.43,1064.2 1093.67,1090.62 1103.9,1117.16 1114.14,1142.95 1124.38,1167.14 1134.62,1188.96 1144.86,1207.68 1155.1,1222.7 1165.34,1233.52 1175.58,1239.8 1185.82,1241.32 1196.06,1238.05 1206.29,1230.07 1216.53,1217.67 1226.77,1201.23 1237.01,1181.3 1247.25,1158.52 1257.49,1133.65 1267.73,1107.49 1277.97,357.05 1288.21,355.834 1298.45,356.941 1308.68,360.627 1318.92,365.762 1329.16,370.176 1339.4,371.483 1349.64,368.087 1359.88,359.99 1370.12,349.075 1380.36,338.688 1390.6,332.62 1400.84,333.784 1411.07,343.042 1421.31,358.614 1431.55,376.336 1441.79,390.767 1452.03,396.855 1462.27,391.644 1472.51,375.475 1482.75,352.219 1492.99,328.386 1503.23,311.304 1513.46,306.879 1523.7,317.606 1533.94,341.505 1544.18,372.37 1554.42,401.364 1564.66,419.548 1574.9,420.625 1585.14,403.057 1595.38,370.861 1605.62,332.749 1615.85,299.783 1626.09,282.16 1636.33,286.078 1646.57,311.628 1656.81,352.415 1667.05,397.129 1677.29,432.672 1687.53,447.996 1697.77,437.517 1708.01,403.059 1718.24,353.671 1728.48,303.272 1738.72,266.728 1748.96,255.473 1759.2,273.954 1769.44,318.002 1779.68,375.707 1789.92,430.62 1800.16,466.446 1810.4,471.872 1820.63,444.113 1830.87,390.06 1841.11,324.617 1851.35,266.596 1861.59,233.31 1871.83,235.414 1882.07,273.53 1892.31,337.716 1902.55,410.031 1912.79,469.548 1923.02,498.408 1933.26,487.169 1943.5,437.853 1953.74,363.707 1963.98,285.663 1974.22,226.436 1984.46,203.907 1994.7,225.74 2004.94,286.838 2015.18,370.469 2025.41,452.836 2035.65,509.851 2045.89,524.172 2056.13,490.466 2066.37,417.29 2076.61,324.958 2086.85,239.905 2097.09,187.123 2107.33,182.818 2117.57,229.455 2127.8,314.698 2138.04,414.649 2148.28,500.54 2158.52,547.017 2168.76,539.617 2179,479.244 2189.24,382.257 2199.48,276.058 2209.72,191.35 2219.96,153.26 2230.2,173.895 2240.43,248.527 2250.67,356.608 2260.91,467.415 2271.15,548.786 2281.39,576.446 2291.63,541.249 "/>
<path clip-path="url(#clip510)" d="M264.934 250.738 L707.743 250.738 L707.743 95.2176 L264.934 95.2176  Z" fill="#ffffff" fill-rule="evenodd" fill-opacity="1"/>
<polyline clip-path="url(#clip510)" style="stroke:#000000; stroke-linecap:round; stroke-linejoin:round; stroke-width:4; stroke-opacity:1; fill:none" points="264.934,250.738 707.743,250.738 707.743,95.2176 264.934,95.2176 264.934,250.738 "/>
<polyline clip-path="url(#clip510)" style="stroke:#009af9; stroke-linecap:round; stroke-linejoin:round; stroke-width:16; stroke-opacity:1; fill:none" stroke-dasharray="8, 16" points="288.932,147.058 432.92,147.058 "/>
<path clip-path="url(#clip510)" d="M461.594 133.62 L461.594 146.606 L467.474 146.606 Q470.737 146.606 472.52 144.916 Q474.302 143.227 474.302 140.102 Q474.302 137 472.52 135.31 Q470.737 133.62 467.474 133.62 L461.594 133.62 M456.918 129.778 L467.474 129.778 Q473.284 129.778 476.247 132.416 Q479.233 135.032 479.233 140.102 Q479.233 145.217 476.247 147.833 Q473.284 150.449 467.474 150.449 L461.594 150.449 L461.594 164.338 L456.918 164.338 L456.918 129.778 Z" fill="#000000" fill-rule="nonzero" fill-opacity="1" /><path clip-path="url(#clip510)" d="M499.51 142.393 Q498.793 141.977 497.936 141.791 Q497.103 141.583 496.085 141.583 Q492.473 141.583 490.529 143.944 Q488.608 146.282 488.608 150.68 L488.608 164.338 L484.325 164.338 L484.325 138.412 L488.608 138.412 L488.608 142.44 Q489.95 140.078 492.103 138.944 Q494.256 137.787 497.335 137.787 Q497.774 137.787 498.307 137.856 Q498.839 137.903 499.487 138.018 L499.51 142.393 Z" fill="#000000" fill-rule="nonzero" fill-opacity="1" /><path clip-path="url(#clip510)" d="M525.112 150.31 L525.112 152.393 L505.529 152.393 Q505.807 156.791 508.168 159.106 Q510.552 161.398 514.788 161.398 Q517.242 161.398 519.533 160.796 Q521.848 160.194 524.117 158.99 L524.117 163.018 Q521.825 163.99 519.418 164.5 Q517.01 165.009 514.533 165.009 Q508.33 165.009 504.696 161.398 Q501.084 157.787 501.084 151.629 Q501.084 145.264 504.51 141.537 Q507.959 137.787 513.793 137.787 Q519.024 137.787 522.057 141.166 Q525.112 144.523 525.112 150.31 M520.853 149.06 Q520.807 145.565 518.885 143.481 Q516.987 141.398 513.839 141.398 Q510.274 141.398 508.121 143.412 Q505.992 145.426 505.668 149.083 L520.853 149.06 Z" fill="#000000" fill-rule="nonzero" fill-opacity="1" /><path clip-path="url(#clip510)" d="M549.163 142.347 L549.163 128.319 L553.422 128.319 L553.422 164.338 L549.163 164.338 L549.163 160.449 Q547.82 162.763 545.76 163.898 Q543.723 165.009 540.853 165.009 Q536.154 165.009 533.191 161.259 Q530.251 157.509 530.251 151.398 Q530.251 145.287 533.191 141.537 Q536.154 137.787 540.853 137.787 Q543.723 137.787 545.76 138.921 Q547.82 140.032 549.163 142.347 M534.649 151.398 Q534.649 156.097 536.57 158.782 Q538.515 161.444 541.894 161.444 Q545.274 161.444 547.218 158.782 Q549.163 156.097 549.163 151.398 Q549.163 146.699 547.218 144.037 Q545.274 141.352 541.894 141.352 Q538.515 141.352 536.57 144.037 Q534.649 146.699 534.649 151.398 Z" fill="#000000" fill-rule="nonzero" fill-opacity="1" /><path clip-path="url(#clip510)" d="M562.195 138.412 L566.455 138.412 L566.455 164.338 L562.195 164.338 L562.195 138.412 M562.195 128.319 L566.455 128.319 L566.455 133.713 L562.195 133.713 L562.195 128.319 Z" fill="#000000" fill-rule="nonzero" fill-opacity="1" /><path clip-path="url(#clip510)" d="M594.024 139.407 L594.024 143.389 Q592.218 142.393 590.39 141.907 Q588.584 141.398 586.732 141.398 Q582.589 141.398 580.297 144.037 Q578.005 146.652 578.005 151.398 Q578.005 156.143 580.297 158.782 Q582.589 161.398 586.732 161.398 Q588.584 161.398 590.39 160.912 Q592.218 160.402 594.024 159.407 L594.024 163.342 Q592.241 164.176 590.32 164.592 Q588.422 165.009 586.269 165.009 Q580.413 165.009 576.964 161.328 Q573.515 157.648 573.515 151.398 Q573.515 145.055 576.987 141.421 Q580.482 137.787 586.547 137.787 Q588.515 137.787 590.39 138.203 Q592.265 138.597 594.024 139.407 Z" fill="#000000" fill-rule="nonzero" fill-opacity="1" /><path clip-path="url(#clip510)" d="M605.644 131.051 L605.644 138.412 L614.417 138.412 L614.417 141.722 L605.644 141.722 L605.644 155.796 Q605.644 158.967 606.501 159.87 Q607.38 160.773 610.042 160.773 L614.417 160.773 L614.417 164.338 L610.042 164.338 Q605.112 164.338 603.237 162.509 Q601.362 160.657 601.362 155.796 L601.362 141.722 L598.237 141.722 L598.237 138.412 L601.362 138.412 L601.362 131.051 L605.644 131.051 Z" fill="#000000" fill-rule="nonzero" fill-opacity="1" /><path clip-path="url(#clip510)" d="M620.019 138.412 L624.278 138.412 L624.278 164.338 L620.019 164.338 L620.019 138.412 M620.019 128.319 L624.278 128.319 L624.278 133.713 L620.019 133.713 L620.019 128.319 Z" fill="#000000" fill-rule="nonzero" fill-opacity="1" /><path clip-path="url(#clip510)" d="M643.237 141.398 Q639.811 141.398 637.82 144.083 Q635.829 146.745 635.829 151.398 Q635.829 156.051 637.797 158.736 Q639.787 161.398 643.237 161.398 Q646.639 161.398 648.63 158.713 Q650.621 156.027 650.621 151.398 Q650.621 146.791 648.63 144.106 Q646.639 141.398 643.237 141.398 M643.237 137.787 Q648.792 137.787 651.963 141.398 Q655.135 145.009 655.135 151.398 Q655.135 157.764 651.963 161.398 Q648.792 165.009 643.237 165.009 Q637.658 165.009 634.487 161.398 Q631.338 157.764 631.338 151.398 Q631.338 145.009 634.487 141.398 Q637.658 137.787 643.237 137.787 Z" fill="#000000" fill-rule="nonzero" fill-opacity="1" /><path clip-path="url(#clip510)" d="M683.746 148.689 L683.746 164.338 L679.486 164.338 L679.486 148.828 Q679.486 145.148 678.051 143.319 Q676.616 141.49 673.746 141.49 Q670.297 141.49 668.306 143.69 Q666.315 145.889 666.315 149.685 L666.315 164.338 L662.033 164.338 L662.033 138.412 L666.315 138.412 L666.315 142.44 Q667.843 140.102 669.903 138.944 Q671.986 137.787 674.695 137.787 Q679.162 137.787 681.454 140.565 Q683.746 143.319 683.746 148.689 Z" fill="#000000" fill-rule="nonzero" fill-opacity="1" /><polyline clip-path="url(#clip510)" style="stroke:#e26f46; stroke-linecap:round; stroke-linejoin:round; stroke-width:4; stroke-opacity:1; fill:none" points="288.932,198.898 432.92,198.898 "/>
<path clip-path="url(#clip510)" d="M456.918 181.618 L478.77 181.618 L478.77 185.553 L461.594 185.553 L461.594 195.784 L478.052 195.784 L478.052 199.719 L461.594 199.719 L461.594 212.242 L479.186 212.242 L479.186 216.178 L456.918 216.178 L456.918 181.618 Z" fill="#000000" fill-rule="nonzero" fill-opacity="1" /><path clip-path="url(#clip510)" d="M508.237 190.252 L498.862 202.867 L508.723 216.178 L503.7 216.178 L496.154 205.992 L488.608 216.178 L483.585 216.178 L493.654 202.613 L484.441 190.252 L489.464 190.252 L496.339 199.488 L503.214 190.252 L508.237 190.252 Z" fill="#000000" fill-rule="nonzero" fill-opacity="1" /><path clip-path="url(#clip510)" d="M526.524 203.145 Q521.362 203.145 519.371 204.326 Q517.381 205.506 517.381 208.354 Q517.381 210.622 518.862 211.965 Q520.367 213.284 522.936 213.284 Q526.478 213.284 528.607 210.784 Q530.76 208.261 530.76 204.094 L530.76 203.145 L526.524 203.145 M535.019 201.386 L535.019 216.178 L530.76 216.178 L530.76 212.242 Q529.302 214.603 527.126 215.738 Q524.95 216.849 521.802 216.849 Q517.821 216.849 515.459 214.627 Q513.121 212.381 513.121 208.631 Q513.121 204.256 516.038 202.034 Q518.978 199.812 524.788 199.812 L530.76 199.812 L530.76 199.395 Q530.76 196.455 528.816 194.858 Q526.895 193.238 523.399 193.238 Q521.177 193.238 519.07 193.77 Q516.964 194.303 515.02 195.367 L515.02 191.432 Q517.358 190.53 519.557 190.09 Q521.756 189.627 523.839 189.627 Q529.464 189.627 532.242 192.543 Q535.019 195.46 535.019 201.386 Z" fill="#000000" fill-rule="nonzero" fill-opacity="1" /><path clip-path="url(#clip510)" d="M562.45 191.247 L562.45 195.229 Q560.644 194.233 558.816 193.747 Q557.01 193.238 555.158 193.238 Q551.015 193.238 548.723 195.877 Q546.431 198.492 546.431 203.238 Q546.431 207.983 548.723 210.622 Q551.015 213.238 555.158 213.238 Q557.01 213.238 558.816 212.752 Q560.644 212.242 562.45 211.247 L562.45 215.182 Q560.667 216.016 558.746 216.432 Q556.848 216.849 554.695 216.849 Q548.839 216.849 545.39 213.168 Q541.941 209.488 541.941 203.238 Q541.941 196.895 545.413 193.261 Q548.908 189.627 554.973 189.627 Q556.941 189.627 558.816 190.043 Q560.691 190.437 562.45 191.247 Z" fill="#000000" fill-rule="nonzero" fill-opacity="1" /><path clip-path="url(#clip510)" d="M574.07 182.891 L574.07 190.252 L582.843 190.252 L582.843 193.562 L574.07 193.562 L574.07 207.636 Q574.07 210.807 574.927 211.71 Q575.806 212.613 578.468 212.613 L582.843 212.613 L582.843 216.178 L578.468 216.178 Q573.538 216.178 571.663 214.349 Q569.788 212.497 569.788 207.636 L569.788 193.562 L566.663 193.562 L566.663 190.252 L569.788 190.252 L569.788 182.891 L574.07 182.891 Z" fill="#000000" fill-rule="nonzero" fill-opacity="1" /></svg>
