<?xml version="1.0" encoding="utf-8"?>
<svg xmlns="http://www.w3.org/2000/svg" xmlns:xlink="http://www.w3.org/1999/xlink" width="600" height="400" viewBox="0 0 2400 1600">
<defs>
  <clipPath id="clip710">
    <rect x="0" y="0" width="2400" height="1600"/>
  </clipPath>
</defs>
<path clip-path="url(#clip710)" d="M0 1600 L2400 1600 L2400 0 L0 0  Z" fill="#ffffff" fill-rule="evenodd" fill-opacity="1"/>
<defs>
  <clipPath id="clip711">
    <rect x="480" y="0" width="1681" height="1600"/>
  </clipPath>
</defs>
<path clip-path="url(#clip710)" d="M156.274 1486.45 L2352.76 1486.45 L2352.76 47.2441 L156.274 47.2441  Z" fill="#ffffff" fill-rule="evenodd" fill-opacity="1"/>
<defs>
  <clipPath id="clip712">
    <rect x="156" y="47" width="2197" height="1440"/>
  </clipPath>
</defs>
<polyline clip-path="url(#clip712)" style="stroke:#000000; stroke-linecap:round; stroke-linejoin:round; stroke-width:2; stroke-opacity:0.1; fill:none" points="218.439,1486.45 218.439,47.2441 "/>
<polyline clip-path="url(#clip712)" style="stroke:#000000; stroke-linecap:round; stroke-linejoin:round; stroke-width:2; stroke-opacity:0.1; fill:none" points="736.477,1486.45 736.477,47.2441 "/>
<polyline clip-path="url(#clip712)" style="stroke:#000000; stroke-linecap:round; stroke-linejoin:round; stroke-width:2; stroke-opacity:0.1; fill:none" points="1254.52,1486.45 1254.52,47.2441 "/>
<polyline clip-path="url(#clip712)" style="stroke:#000000; stroke-linecap:round; stroke-linejoin:round; stroke-width:2; stroke-opacity:0.1; fill:none" points="1772.55,1486.45 1772.55,47.2441 "/>
<polyline clip-path="url(#clip712)" style="stroke:#000000; stroke-linecap:round; stroke-linejoin:round; stroke-width:2; stroke-opacity:0.1; fill:none" points="2290.59,1486.45 2290.59,47.2441 "/>
<polyline clip-path="url(#clip710)" style="stroke:#000000; stroke-linecap:round; stroke-linejoin:round; stroke-width:4; stroke-opacity:1; fill:none" points="156.274,1486.45 2352.76,1486.45 "/>
<polyline clip-path="url(#clip710)" style="stroke:#000000; stroke-linecap:round; stroke-linejoin:round; stroke-width:4; stroke-opacity:1; fill:none" points="218.439,1486.45 218.439,1467.55 "/>
<polyline clip-path="url(#clip710)" style="stroke:#000000; stroke-linecap:round; stroke-linejoin:round; stroke-width:4; stroke-opacity:1; fill:none" points="736.477,1486.45 736.477,1467.55 "/>
<polyline clip-path="url(#clip710)" style="stroke:#000000; stroke-linecap:round; stroke-linejoin:round; stroke-width:4; stroke-opacity:1; fill:none" points="1254.52,1486.45 1254.52,1467.55 "/>
<polyline clip-path="url(#clip710)" style="stroke:#000000; stroke-linecap:round; stroke-linejoin:round; stroke-width:4; stroke-opacity:1; fill:none" points="1772.55,1486.45 1772.55,1467.55 "/>
<polyline clip-path="url(#clip710)" style="stroke:#000000; stroke-linecap:round; stroke-linejoin:round; stroke-width:4; stroke-opacity:1; fill:none" points="2290.59,1486.45 2290.59,1467.55 "/>
<path clip-path="url(#clip710)" d="M164.967 1532.02 L194.643 1532.02 L194.643 1535.95 L164.967 1535.95 L164.967 1532.02 Z" fill="#000000" fill-rule="nonzero" fill-opacity="1" /><path clip-path="url(#clip710)" d="M205.545 1544.91 L213.184 1544.91 L213.184 1518.55 L204.874 1520.21 L204.874 1515.95 L213.138 1514.29 L217.814 1514.29 L217.814 1544.91 L225.453 1544.91 L225.453 1548.85 L205.545 1548.85 L205.545 1544.91 Z" fill="#000000" fill-rule="nonzero" fill-opacity="1" /><path clip-path="url(#clip710)" d="M234.897 1542.97 L239.781 1542.97 L239.781 1548.85 L234.897 1548.85 L234.897 1542.97 Z" fill="#000000" fill-rule="nonzero" fill-opacity="1" /><path clip-path="url(#clip710)" d="M259.966 1517.37 Q256.355 1517.37 254.527 1520.93 Q252.721 1524.47 252.721 1531.6 Q252.721 1538.71 254.527 1542.27 Q256.355 1545.82 259.966 1545.82 Q263.601 1545.82 265.406 1542.27 Q267.235 1538.71 267.235 1531.6 Q267.235 1524.47 265.406 1520.93 Q263.601 1517.37 259.966 1517.37 M259.966 1513.66 Q265.776 1513.66 268.832 1518.27 Q271.911 1522.85 271.911 1531.6 Q271.911 1540.33 268.832 1544.94 Q265.776 1549.52 259.966 1549.52 Q254.156 1549.52 251.077 1544.94 Q248.022 1540.33 248.022 1531.6 Q248.022 1522.85 251.077 1518.27 Q254.156 1513.66 259.966 1513.66 Z" fill="#000000" fill-rule="nonzero" fill-opacity="1" /><path clip-path="url(#clip710)" d="M683.503 1532.02 L713.178 1532.02 L713.178 1535.95 L683.503 1535.95 L683.503 1532.02 Z" fill="#000000" fill-rule="nonzero" fill-opacity="1" /><path clip-path="url(#clip710)" d="M733.271 1517.37 Q729.66 1517.37 727.831 1520.93 Q726.026 1524.47 726.026 1531.6 Q726.026 1538.71 727.831 1542.27 Q729.66 1545.82 733.271 1545.82 Q736.905 1545.82 738.711 1542.27 Q740.539 1538.71 740.539 1531.6 Q740.539 1524.47 738.711 1520.93 Q736.905 1517.37 733.271 1517.37 M733.271 1513.66 Q739.081 1513.66 742.137 1518.27 Q745.215 1522.85 745.215 1531.6 Q745.215 1540.33 742.137 1544.94 Q739.081 1549.52 733.271 1549.52 Q727.461 1549.52 724.382 1544.94 Q721.327 1540.33 721.327 1531.6 Q721.327 1522.85 724.382 1518.27 Q727.461 1513.66 733.271 1513.66 Z" fill="#000000" fill-rule="nonzero" fill-opacity="1" /><path clip-path="url(#clip710)" d="M753.433 1542.97 L758.317 1542.97 L758.317 1548.85 L753.433 1548.85 L753.433 1542.97 Z" fill="#000000" fill-rule="nonzero" fill-opacity="1" /><path clip-path="url(#clip710)" d="M768.548 1514.29 L786.905 1514.29 L786.905 1518.22 L772.831 1518.22 L772.831 1526.7 Q773.849 1526.35 774.868 1526.19 Q775.886 1526 776.905 1526 Q782.692 1526 786.072 1529.17 Q789.451 1532.34 789.451 1537.76 Q789.451 1543.34 785.979 1546.44 Q782.507 1549.52 776.187 1549.52 Q774.011 1549.52 771.743 1549.15 Q769.498 1548.78 767.09 1548.04 L767.09 1543.34 Q769.173 1544.47 771.396 1545.03 Q773.618 1545.58 776.095 1545.58 Q780.099 1545.58 782.437 1543.48 Q784.775 1541.37 784.775 1537.76 Q784.775 1534.15 782.437 1532.04 Q780.099 1529.94 776.095 1529.94 Q774.22 1529.94 772.345 1530.35 Q770.493 1530.77 768.548 1531.65 L768.548 1514.29 Z" fill="#000000" fill-rule="nonzero" fill-opacity="1" /><path clip-path="url(#clip710)" d="M1231.9 1517.37 Q1228.29 1517.37 1226.46 1520.93 Q1224.65 1524.47 1224.65 1531.6 Q1224.65 1538.71 1226.46 1542.27 Q1228.29 1545.82 1231.9 1545.82 Q1235.53 1545.82 1237.34 1542.27 Q1239.17 1538.71 1239.17 1531.6 Q1239.17 1524.47 1237.34 1520.93 Q1235.53 1517.37 1231.9 1517.37 M1231.9 1513.66 Q1237.71 1513.66 1240.77 1518.27 Q1243.84 1522.85 1243.84 1531.6 Q1243.84 1540.33 1240.77 1544.94 Q1237.71 1549.52 1231.9 1549.52 Q1226.09 1549.52 1223.01 1544.94 Q1219.96 1540.33 1219.96 1531.6 Q1219.96 1522.85 1223.01 1518.27 Q1226.09 1513.66 1231.9 1513.66 Z" fill="#000000" fill-rule="nonzero" fill-opacity="1" /><path clip-path="url(#clip710)" d="M1252.06 1542.97 L1256.95 1542.97 L1256.95 1548.85 L1252.06 1548.85 L1252.06 1542.97 Z" fill="#000000" fill-rule="nonzero" fill-opacity="1" /><path clip-path="url(#clip710)" d="M1277.13 1517.37 Q1273.52 1517.37 1271.69 1520.93 Q1269.89 1524.47 1269.89 1531.6 Q1269.89 1538.71 1271.69 1542.27 Q1273.52 1545.82 1277.13 1545.82 Q1280.76 1545.82 1282.57 1542.27 Q1284.4 1538.71 1284.4 1531.6 Q1284.4 1524.47 1282.57 1520.93 Q1280.76 1517.37 1277.13 1517.37 M1277.13 1513.66 Q1282.94 1513.66 1286 1518.27 Q1289.08 1522.85 1289.08 1531.6 Q1289.08 1540.33 1286 1544.94 Q1282.94 1549.52 1277.13 1549.52 Q1271.32 1549.52 1268.24 1544.94 Q1265.19 1540.33 1265.19 1531.6 Q1265.19 1522.85 1268.24 1518.27 Q1271.32 1513.66 1277.13 1513.66 Z" fill="#000000" fill-rule="nonzero" fill-opacity="1" /><path clip-path="url(#clip710)" d="M1750.44 1517.37 Q1746.82 1517.37 1745 1520.93 Q1743.19 1524.47 1743.19 1531.6 Q1743.19 1538.71 1745 1542.27 Q1746.82 1545.82 1750.44 1545.82 Q1754.07 1545.82 1755.88 1542.27 Q1757.7 1538.71 1757.7 1531.6 Q1757.7 1524.47 1755.88 1520.93 Q1754.07 1517.37 1750.44 1517.37 M1750.44 1513.66 Q1756.25 1513.66 1759.3 1518.27 Q1762.38 1522.85 1762.38 1531.6 Q1762.38 1540.33 1759.3 1544.94 Q1756.25 1549.52 1750.44 1549.52 Q1744.63 1549.52 1741.55 1544.94 Q1738.49 1540.33 1738.49 1531.6 Q1738.49 1522.85 1741.55 1518.27 Q1744.63 1513.66 1750.44 1513.66 Z" fill="#000000" fill-rule="nonzero" fill-opacity="1" /><path clip-path="url(#clip710)" d="M1770.6 1542.97 L1775.48 1542.97 L1775.48 1548.85 L1770.6 1548.85 L1770.6 1542.97 Z" fill="#000000" fill-rule="nonzero" fill-opacity="1" /><path clip-path="url(#clip710)" d="M1785.71 1514.29 L1804.07 1514.29 L1804.07 1518.22 L1790 1518.22 L1790 1526.7 Q1791.01 1526.35 1792.03 1526.19 Q1793.05 1526 1794.07 1526 Q1799.86 1526 1803.24 1529.17 Q1806.62 1532.34 1806.62 1537.76 Q1806.62 1543.34 1803.14 1546.44 Q1799.67 1549.52 1793.35 1549.52 Q1791.18 1549.52 1788.91 1549.15 Q1786.66 1548.78 1784.25 1548.04 L1784.25 1543.34 Q1786.34 1544.47 1788.56 1545.03 Q1790.78 1545.58 1793.26 1545.58 Q1797.26 1545.58 1799.6 1543.48 Q1801.94 1541.37 1801.94 1537.76 Q1801.94 1534.15 1799.6 1532.04 Q1797.26 1529.94 1793.26 1529.94 Q1791.38 1529.94 1789.51 1530.35 Q1787.66 1530.77 1785.71 1531.65 L1785.71 1514.29 Z" fill="#000000" fill-rule="nonzero" fill-opacity="1" /><path clip-path="url(#clip710)" d="M2257.74 1544.91 L2265.38 1544.91 L2265.38 1518.55 L2257.07 1520.21 L2257.07 1515.95 L2265.34 1514.29 L2270.01 1514.29 L2270.01 1544.91 L2277.65 1544.91 L2277.65 1548.85 L2257.74 1548.85 L2257.74 1544.91 Z" fill="#000000" fill-rule="nonzero" fill-opacity="1" /><path clip-path="url(#clip710)" d="M2287.1 1542.97 L2291.98 1542.97 L2291.98 1548.85 L2287.1 1548.85 L2287.1 1542.97 Z" fill="#000000" fill-rule="nonzero" fill-opacity="1" /><path clip-path="url(#clip710)" d="M2312.17 1517.37 Q2308.55 1517.37 2306.73 1520.93 Q2304.92 1524.47 2304.92 1531.6 Q2304.92 1538.71 2306.73 1542.27 Q2308.55 1545.82 2312.17 1545.82 Q2315.8 1545.82 2317.61 1542.27 Q2319.43 1538.71 2319.43 1531.6 Q2319.43 1524.47 2317.61 1520.93 Q2315.8 1517.37 2312.17 1517.37 M2312.17 1513.66 Q2317.98 1513.66 2321.03 1518.27 Q2324.11 1522.85 2324.11 1531.6 Q2324.11 1540.33 2321.03 1544.94 Q2317.98 1549.52 2312.17 1549.52 Q2306.36 1549.52 2303.28 1544.94 Q2300.22 1540.33 2300.22 1531.6 Q2300.22 1522.85 2303.28 1518.27 Q2306.36 1513.66 2312.17 1513.66 Z" fill="#000000" fill-rule="nonzero" fill-opacity="1" /><polyline clip-path="url(#clip712)" style="stroke:#000000; stroke-linecap:round; stroke-linejoin:round; stroke-width:2; stroke-opacity:0.1; fill:none" points="156.274,1247.4 2352.76,1247.4 "/>
<polyline clip-path="url(#clip712)" style="stroke:#000000; stroke-linecap:round; stroke-linejoin:round; stroke-width:2; stroke-opacity:0.1; fill:none" points="156.274,975.301 2352.76,975.301 "/>
<polyline clip-path="url(#clip712)" style="stroke:#000000; stroke-linecap:round; stroke-linejoin:round; stroke-width:2; stroke-opacity:0.1; fill:none" points="156.274,703.203 2352.76,703.203 "/>
<polyline clip-path="url(#clip712)" style="stroke:#000000; stroke-linecap:round; stroke-linejoin:round; stroke-width:2; stroke-opacity:0.1; fill:none" points="156.274,431.105 2352.76,431.105 "/>
<polyline clip-path="url(#clip712)" style="stroke:#000000; stroke-linecap:round; stroke-linejoin:round; stroke-width:2; stroke-opacity:0.1; fill:none" points="156.274,159.007 2352.76,159.007 "/>
<polyline clip-path="url(#clip710)" style="stroke:#000000; stroke-linecap:round; stroke-linejoin:round; stroke-width:4; stroke-opacity:1; fill:none" points="156.274,1486.45 156.274,47.2441 "/>
<polyline clip-path="url(#clip710)" style="stroke:#000000; stroke-linecap:round; stroke-linejoin:round; stroke-width:4; stroke-opacity:1; fill:none" points="156.274,1247.4 175.172,1247.4 "/>
<polyline clip-path="url(#clip710)" style="stroke:#000000; stroke-linecap:round; stroke-linejoin:round; stroke-width:4; stroke-opacity:1; fill:none" points="156.274,975.301 175.172,975.301 "/>
<polyline clip-path="url(#clip710)" style="stroke:#000000; stroke-linecap:round; stroke-linejoin:round; stroke-width:4; stroke-opacity:1; fill:none" points="156.274,703.203 175.172,703.203 "/>
<polyline clip-path="url(#clip710)" style="stroke:#000000; stroke-linecap:round; stroke-linejoin:round; stroke-width:4; stroke-opacity:1; fill:none" points="156.274,431.105 175.172,431.105 "/>
<polyline clip-path="url(#clip710)" style="stroke:#000000; stroke-linecap:round; stroke-linejoin:round; stroke-width:4; stroke-opacity:1; fill:none" points="156.274,159.007 175.172,159.007 "/>
<path clip-path="url(#clip710)" d="M63.0985 1233.2 Q59.4875 1233.2 57.6588 1236.76 Q55.8532 1240.3 55.8532 1247.43 Q55.8532 1254.54 57.6588 1258.11 Q59.4875 1261.65 63.0985 1261.65 Q66.7328 1261.65 68.5383 1258.11 Q70.367 1254.54 70.367 1247.43 Q70.367 1240.3 68.5383 1236.76 Q66.7328 1233.2 63.0985 1233.2 M63.0985 1229.49 Q68.9087 1229.49 71.9642 1234.1 Q75.0429 1238.68 75.0429 1247.43 Q75.0429 1256.16 71.9642 1260.77 Q68.9087 1265.35 63.0985 1265.35 Q57.2884 1265.35 54.2097 1260.77 Q51.1542 1256.16 51.1542 1247.43 Q51.1542 1238.68 54.2097 1234.1 Q57.2884 1229.49 63.0985 1229.49 Z" fill="#000000" fill-rule="nonzero" fill-opacity="1" /><path clip-path="url(#clip710)" d="M83.2605 1258.8 L88.1447 1258.8 L88.1447 1264.68 L83.2605 1264.68 L83.2605 1258.8 Z" fill="#000000" fill-rule="nonzero" fill-opacity="1" /><path clip-path="url(#clip710)" d="M108.33 1233.2 Q104.719 1233.2 102.89 1236.76 Q101.084 1240.3 101.084 1247.43 Q101.084 1254.54 102.89 1258.11 Q104.719 1261.65 108.33 1261.65 Q111.964 1261.65 113.77 1258.11 Q115.598 1254.54 115.598 1247.43 Q115.598 1240.3 113.77 1236.76 Q111.964 1233.2 108.33 1233.2 M108.33 1229.49 Q114.14 1229.49 117.195 1234.1 Q120.274 1238.68 120.274 1247.43 Q120.274 1256.16 117.195 1260.77 Q114.14 1265.35 108.33 1265.35 Q102.52 1265.35 99.4409 1260.77 Q96.3854 1256.16 96.3854 1247.43 Q96.3854 1238.68 99.4409 1234.1 Q102.52 1229.49 108.33 1229.49 Z" fill="#000000" fill-rule="nonzero" fill-opacity="1" /><path clip-path="url(#clip710)" d="M63.7467 961.1 Q60.1356 961.1 58.3069 964.665 Q56.5014 968.207 56.5014 975.336 Q56.5014 982.443 58.3069 986.007 Q60.1356 989.549 63.7467 989.549 Q67.3809 989.549 69.1865 986.007 Q71.0152 982.443 71.0152 975.336 Q71.0152 968.207 69.1865 964.665 Q67.3809 961.1 63.7467 961.1 M63.7467 957.396 Q69.5568 957.396 72.6124 962.003 Q75.6911 966.586 75.6911 975.336 Q75.6911 984.063 72.6124 988.669 Q69.5568 993.253 63.7467 993.253 Q57.9365 993.253 54.8578 988.669 Q51.8023 984.063 51.8023 975.336 Q51.8023 966.586 54.8578 962.003 Q57.9365 957.396 63.7467 957.396 Z" fill="#000000" fill-rule="nonzero" fill-opacity="1" /><path clip-path="url(#clip710)" d="M83.9086 986.702 L88.7928 986.702 L88.7928 992.581 L83.9086 992.581 L83.9086 986.702 Z" fill="#000000" fill-rule="nonzero" fill-opacity="1" /><path clip-path="url(#clip710)" d="M113.145 973.947 Q116.501 974.665 118.376 976.933 Q120.274 979.202 120.274 982.535 Q120.274 987.651 116.756 990.452 Q113.237 993.253 106.756 993.253 Q104.58 993.253 102.265 992.813 Q99.9733 992.396 97.5197 991.54 L97.5197 987.026 Q99.4641 988.16 101.779 988.739 Q104.094 989.318 106.617 989.318 Q111.015 989.318 113.307 987.581 Q115.621 985.845 115.621 982.535 Q115.621 979.48 113.469 977.767 Q111.339 976.031 107.52 976.031 L103.492 976.031 L103.492 972.188 L107.705 972.188 Q111.154 972.188 112.983 970.822 Q114.811 969.433 114.811 966.841 Q114.811 964.179 112.913 962.767 Q111.038 961.332 107.52 961.332 Q105.598 961.332 103.399 961.748 Q101.2 962.165 98.5613 963.045 L98.5613 958.878 Q101.223 958.137 103.538 957.767 Q105.876 957.396 107.936 957.396 Q113.26 957.396 116.362 959.827 Q119.464 962.234 119.464 966.355 Q119.464 969.225 117.82 971.216 Q116.177 973.183 113.145 973.947 Z" fill="#000000" fill-rule="nonzero" fill-opacity="1" /><path clip-path="url(#clip710)" d="M62.9365 689.002 Q59.3254 689.002 57.4967 692.567 Q55.6912 696.109 55.6912 703.238 Q55.6912 710.345 57.4967 713.909 Q59.3254 717.451 62.9365 717.451 Q66.5707 717.451 68.3763 713.909 Q70.205 710.345 70.205 703.238 Q70.205 696.109 68.3763 692.567 Q66.5707 689.002 62.9365 689.002 M62.9365 685.298 Q68.7467 685.298 71.8022 689.905 Q74.8809 694.488 74.8809 703.238 Q74.8809 711.965 71.8022 716.571 Q68.7467 721.155 62.9365 721.155 Q57.1264 721.155 54.0477 716.571 Q50.9921 711.965 50.9921 703.238 Q50.9921 694.488 54.0477 689.905 Q57.1264 685.298 62.9365 685.298 Z" fill="#000000" fill-rule="nonzero" fill-opacity="1" /><path clip-path="url(#clip710)" d="M83.0984 714.604 L87.9827 714.604 L87.9827 720.483 L83.0984 720.483 L83.0984 714.604 Z" fill="#000000" fill-rule="nonzero" fill-opacity="1" /><path clip-path="url(#clip710)" d="M108.746 701.34 Q105.598 701.34 103.746 703.493 Q101.918 705.646 101.918 709.395 Q101.918 713.122 103.746 715.298 Q105.598 717.451 108.746 717.451 Q111.895 717.451 113.723 715.298 Q115.575 713.122 115.575 709.395 Q115.575 705.646 113.723 703.493 Q111.895 701.34 108.746 701.34 M118.029 686.687 L118.029 690.947 Q116.27 690.113 114.464 689.673 Q112.682 689.234 110.922 689.234 Q106.293 689.234 103.839 692.359 Q101.409 695.484 101.061 701.803 Q102.427 699.789 104.487 698.724 Q106.547 697.636 109.024 697.636 Q114.233 697.636 117.242 700.808 Q120.274 703.956 120.274 709.395 Q120.274 714.72 117.126 717.937 Q113.978 721.155 108.746 721.155 Q102.751 721.155 99.5798 716.571 Q96.4085 711.965 96.4085 703.238 Q96.4085 695.044 100.297 690.183 Q104.186 685.298 110.737 685.298 Q112.496 685.298 114.279 685.646 Q116.084 685.993 118.029 686.687 Z" fill="#000000" fill-rule="nonzero" fill-opacity="1" /><path clip-path="url(#clip710)" d="M63.2837 416.904 Q59.6726 416.904 57.8439 420.469 Q56.0384 424.011 56.0384 431.14 Q56.0384 438.247 57.8439 441.811 Q59.6726 445.353 63.2837 445.353 Q66.918 445.353 68.7235 441.811 Q70.5522 438.247 70.5522 431.14 Q70.5522 424.011 68.7235 420.469 Q66.918 416.904 63.2837 416.904 M63.2837 413.2 Q69.0939 413.2 72.1494 417.807 Q75.2281 422.39 75.2281 431.14 Q75.2281 439.867 72.1494 444.473 Q69.0939 449.057 63.2837 449.057 Q57.4736 449.057 54.3949 444.473 Q51.3393 439.867 51.3393 431.14 Q51.3393 422.39 54.3949 417.807 Q57.4736 413.2 63.2837 413.2 Z" fill="#000000" fill-rule="nonzero" fill-opacity="1" /><path clip-path="url(#clip710)" d="M83.4457 442.506 L88.3299 442.506 L88.3299 448.385 L83.4457 448.385 L83.4457 442.506 Z" fill="#000000" fill-rule="nonzero" fill-opacity="1" /><path clip-path="url(#clip710)" d="M98.6539 447.668 L98.6539 443.409 Q100.413 444.242 102.219 444.682 Q104.024 445.122 105.76 445.122 Q110.39 445.122 112.82 442.02 Q115.274 438.895 115.621 432.552 Q114.279 434.543 112.219 435.608 Q110.158 436.672 107.658 436.672 Q102.473 436.672 99.4409 433.548 Q96.4317 430.399 96.4317 424.96 Q96.4317 419.636 99.5798 416.418 Q102.728 413.2 107.959 413.2 Q113.955 413.2 117.103 417.807 Q120.274 422.39 120.274 431.14 Q120.274 439.311 116.385 444.196 Q112.52 449.057 105.969 449.057 Q104.209 449.057 102.404 448.709 Q100.598 448.362 98.6539 447.668 M107.959 433.015 Q111.108 433.015 112.936 430.862 Q114.788 428.71 114.788 424.96 Q114.788 421.233 112.936 419.08 Q111.108 416.904 107.959 416.904 Q104.811 416.904 102.959 419.08 Q101.131 421.233 101.131 424.96 Q101.131 428.71 102.959 430.862 Q104.811 433.015 107.959 433.015 Z" fill="#000000" fill-rule="nonzero" fill-opacity="1" /><path clip-path="url(#clip710)" d="M55.506 172.352 L63.1448 172.352 L63.1448 145.987 L54.8347 147.653 L54.8347 143.394 L63.0985 141.727 L67.7744 141.727 L67.7744 172.352 L75.4133 172.352 L75.4133 176.287 L55.506 176.287 L55.506 172.352 Z" fill="#000000" fill-rule="nonzero" fill-opacity="1" /><path clip-path="url(#clip710)" d="M84.8577 170.408 L89.7419 170.408 L89.7419 176.287 L84.8577 176.287 L84.8577 170.408 Z" fill="#000000" fill-rule="nonzero" fill-opacity="1" /><path clip-path="url(#clip710)" d="M103.955 172.352 L120.274 172.352 L120.274 176.287 L98.3298 176.287 L98.3298 172.352 Q100.992 169.598 105.575 164.968 Q110.182 160.315 111.362 158.973 Q113.608 156.45 114.487 154.713 Q115.39 152.954 115.39 151.264 Q115.39 148.51 113.445 146.774 Q111.524 145.038 108.422 145.038 Q106.223 145.038 103.77 145.801 Q101.339 146.565 98.5613 148.116 L98.5613 143.394 Q101.385 142.26 103.839 141.681 Q106.293 141.102 108.33 141.102 Q113.7 141.102 116.895 143.788 Q120.089 146.473 120.089 150.963 Q120.089 153.093 119.279 155.014 Q118.492 156.912 116.385 159.505 Q115.807 160.176 112.705 163.394 Q109.603 166.588 103.955 172.352 Z" fill="#000000" fill-rule="nonzero" fill-opacity="1" /><polyline clip-path="url(#clip712)" style="stroke:#009af9; stroke-linecap:round; stroke-linejoin:round; stroke-width:16; stroke-opacity:1; fill:none" stroke-dasharray="8, 16" points="218.439,1111.17 228.852,1099.27 239.264,1086.06 249.677,1074.09 260.09,1066.3 270.503,1065.3 280.916,1072.69 291.329,1088.52 301.741,1111.29 312.154,1138.55 322.567,1167.8 332.98,1197.26 343.393,1226.2 353.805,1254.89 364.218,1284.36 374.631,1315.69 385.044,1348.66 395.457,1380.31 405.87,1405.57 416.282,1420.55 426.695,1425.51 437.108,1424.16 447.521,1420.32 457.934,1415.11 468.347,1406.84 478.759,1392.87 489.172,1371.81 499.585,1344.47 509.998,1313.29 520.411,1280.76 530.824,1248.24 541.236,1216.05 551.649,1184.46 562.062,1154.52 572.475,1127.8 582.888,1105.47 593.301,1087.71 603.713,1074.28 614.126,1065.6 624.539,1063.22 634.952,1068.93 645.365,1082.7 655.777,1101.66 666.19,1122.62 676.603,1145.07 687.016,1169.75 697.429,1196.28 707.842,1225.53 718.254,1260.93 728.667,1301.58 739.08,1338.46 749.493,1364.73 759.906,1383.04 770.319,1401.93 780.731,1426.17 791.144,1445.72 801.557,1444.94 811.97,1423.07 822.383,1394.12 832.796,1372.96 843.208,1365.3 853.621,1363.46 864.034,1352.4 874.447,1324.43 884.86,1284.03 895.273,1239.55 905.685,1197.81 916.098,1164.22 926.511,1140.52 936.924,1121.52 947.337,1101.35 957.749,1085.18 968.162,1078.49 978.575,1068.15 988.988,1047.29 999.401,1034.54 1009.81,1053.01 1020.23,1098.07 1030.64,1132.16 1041.05,1143.36 1051.46,1161.95 1061.88,1205.24 1072.29,1264.14 1082.7,1320.58 1093.12,1354.09 1103.53,1351.22 1113.94,1331.58 1124.35,1339.41 1134.77,1376.55 1145.18,1413.29 1155.59,1433.12 1166.01,1433.37 1176.42,1420.7 1186.83,1409.85 1197.24,1413.07 1207.66,1425.64 1218.07,1422.15 1228.48,1366.8 1238.9,1222.81 1249.31,961.991 1259.72,634.889 1270.13,396.164 1280.55,319.101 1290.96,331.033 1301.37,353.016 1311.79,359.344 1322.2,353.771 1332.61,345.704 1343.02,339.424 1353.44,330.448 1363.85,314.91 1374.26,309.687 1384.68,332.447 1395.09,349.445 1405.5,325.019 1415.91,301.68 1426.33,322.529 1436.74,363.057 1447.15,387.635 1457.57,385.102 1467.98,358.943 1478.39,318.818 1488.8,279.669 1499.22,259.251 1509.63,269.954 1520.04,309.184 1530.45,358.9 1540.87,398.885 1551.28,419.074 1561.69,417.853 1572.11,395.784 1582.52,356.051 1592.93,308.286 1603.34,267.247 1613.76,246.762 1624.17,254.489 1634.58,289.036 1645,339.527 1655.41,389.183 1665.82,422.689 1676.23,432.823 1686.65,421.364 1697.06,393.157 1707.47,348.524 1717.89,286.651 1728.3,226.599 1738.71,210.849 1749.12,255.194 1759.54,325.101 1769.95,386.815 1780.36,434.207 1790.78,466.191 1801.19,472.596 1811.6,443.411 1822.01,379.85 1832.43,297.421 1842.84,222.183 1853.25,180.567 1863.67,187.132 1874.08,239.012 1884.49,319.765 1894.9,406.968 1905.32,478.006 1915.73,513.726 1926.14,502.192 1936.56,443.033 1946.97,349.837 1957.38,247.878 1967.79,167.79 1978.21,137.177 1988.62,170.197 1999.03,258.534 2009.45,372.722 2019.86,475.298 2030.27,535.953 2040.68,540.337 2051.1,490.971 2061.51,402.323 2071.92,295.421 2082.33,195.902 2092.75,131.922 2103.16,125.94 2113.57,182.966 2123.99,286.219 2134.4,405.328 2144.81,508.648 2155.22,569.03 2165.64,564.533 2176.05,486.503 2186.46,355.726 2196.88,222.571 2207.29,138.567 2217.7,125.86 2228.11,172.556 2238.53,250.538 2248.94,334.913 2259.35,411.778 2269.77,476.068 2280.18,527.131 2290.59,566.059 "/>
<polyline clip-path="url(#clip712)" style="stroke:#e26f46; stroke-linecap:round; stroke-linejoin:round; stroke-width:4; stroke-opacity:1; fill:none" points="218.439,1111.17 228.852,1091.84 239.264,1077.59 249.677,1068.88 260.09,1066 270.503,1069.04 280.916,1077.9 291.329,1092.29 301.741,1111.74 312.154,1135.62 322.567,1163.15 332.98,1193.43 343.393,1225.47 353.805,1258.23 364.218,1290.63 374.631,1321.62 385.044,1350.19 395.457,1375.4 405.87,1396.44 416.282,1412.61 426.695,1423.39 437.108,1428.43 447.521,1427.56 457.934,1420.8 468.347,1408.39 478.759,1390.73 489.172,1368.38 499.585,1342.09 509.998,1312.71 520.411,1281.19 530.824,1248.58 541.236,1215.92 551.649,1184.29 562.062,1154.72 572.475,1128.18 582.888,1105.53 593.301,1087.5 603.713,1074.7 614.126,1067.53 624.539,1066.24 634.952,1070.85 645.365,1081.23 655.777,1097.03 666.19,1117.74 676.603,1142.68 687.016,1171.04 697.429,1201.89 707.842,1234.22 718.254,1266.99 728.667,1299.11 739.08,1329.55 749.493,1357.31 759.906,1381.48 770.319,1401.28 780.731,1416.05 791.144,1425.32 801.557,1428.78 811.97,1426.32 822.383,1418.02 832.796,1404.15 843.208,1385.17 853.621,1361.69 864.034,1334.48 874.447,1304.43 884.86,1272.52 895.273,1239.79 905.685,1207.3 916.098,1176.13 926.511,1147.28 936.924,1121.7 947.337,1100.22 957.749,1083.54 968.162,1072.21 978.575,1066.6 988.988,1066.89 999.401,1073.08 1009.81,1084.95 1020.23,1102.12 1030.64,1124.04 1041.05,1149.98 1051.46,1179.1 1061.88,1210.45 1072.29,1243 1082.7,1275.7 1093.12,1307.48 1103.53,1337.29 1113.94,1364.17 1124.35,1387.24 1134.77,1405.75 1145.18,1419.09 1155.59,1426.82 1166.01,1428.7 1176.42,1424.66 1186.83,1414.84 1197.24,1399.55 1207.66,1379.29 1218.07,1354.73 1228.48,1326.67 1238.9,1296.02 1249.31,1263.78 1259.72,339.089 1270.13,337.59 1280.55,338.954 1290.96,343.496 1301.37,349.823 1311.79,355.262 1322.2,356.873 1332.61,352.688 1343.02,342.711 1353.44,329.261 1363.85,316.462 1374.26,308.985 1384.68,310.42 1395.09,321.827 1405.5,341.015 1415.91,362.852 1426.33,380.635 1436.74,388.136 1447.15,381.715 1457.57,361.792 1467.98,333.136 1478.39,303.768 1488.8,282.72 1499.22,277.267 1509.63,290.485 1520.04,319.934 1530.45,357.966 1540.87,393.692 1551.28,416.098 1561.69,417.425 1572.11,395.778 1582.52,356.106 1592.93,309.145 1603.34,268.523 1613.76,246.808 1624.17,251.636 1634.58,283.118 1645,333.377 1655.41,388.474 1665.82,432.27 1676.23,451.153 1686.65,438.24 1697.06,395.781 1707.47,334.924 1717.89,272.822 1728.3,227.792 1738.71,213.924 1749.12,236.696 1759.54,290.973 1769.95,362.077 1780.36,429.741 1790.78,473.887 1801.19,480.573 1811.6,446.368 1822.01,379.763 1832.43,299.123 1842.84,227.63 1853.25,186.615 1863.67,189.207 1874.08,236.175 1884.49,315.265 1894.9,404.372 1905.32,477.709 1915.73,513.27 1926.14,499.422 1936.56,438.655 1946.97,347.29 1957.38,251.125 1967.79,178.145 1978.21,150.384 1988.62,177.286 1999.03,252.572 2009.45,355.623 2019.86,457.117 2030.27,527.371 2040.68,545.017 2051.1,503.484 2061.51,413.317 2071.92,299.544 2082.33,194.742 2092.75,129.703 2103.16,124.398 2113.57,181.864 2123.99,286.902 2134.4,410.062 2144.81,515.898 2155.22,573.167 2165.64,564.049 2176.05,489.656 2186.46,370.148 2196.88,239.29 2207.29,134.911 2217.7,87.9763 2228.11,113.403 2238.53,205.365 2248.94,338.544 2259.35,475.081 2269.77,575.347 2280.18,609.43 2290.59,566.06 "/>
<path clip-path="url(#clip710)" d="M229.49 250.738 L675.966 250.738 L675.966 95.2176 L229.49 95.2176  Z" fill="#ffffff" fill-rule="evenodd" fill-opacity="1"/>
<polyline clip-path="url(#clip710)" style="stroke:#000000; stroke-linecap:round; stroke-linejoin:round; stroke-width:4; stroke-opacity:1; fill:none" points="229.49,250.738 675.966,250.738 675.966,95.2176 229.49,95.2176 229.49,250.738 "/>
<polyline clip-path="url(#clip710)" style="stroke:#009af9; stroke-linecap:round; stroke-linejoin:round; stroke-width:16; stroke-opacity:1; fill:none" stroke-dasharray="8, 16" points="253.896,147.058 400.328,147.058 "/>
<path clip-path="url(#clip710)" d="M429.409 133.62 L429.409 146.606 L435.289 146.606 Q438.552 146.606 440.335 144.916 Q442.117 143.227 442.117 140.102 Q442.117 137 440.335 135.31 Q438.552 133.62 435.289 133.62 L429.409 133.62 M424.733 129.778 L435.289 129.778 Q441.099 129.778 444.062 132.416 Q447.048 135.032 447.048 140.102 Q447.048 145.217 444.062 147.833 Q441.099 150.449 435.289 150.449 L429.409 150.449 L429.409 164.338 L424.733 164.338 L424.733 129.778 Z" fill="#000000" fill-rule="nonzero" fill-opacity="1" /><path clip-path="url(#clip710)" d="M467.325 142.393 Q466.608 141.977 465.751 141.791 Q464.918 141.583 463.899 141.583 Q460.288 141.583 458.344 143.944 Q456.423 146.282 456.423 150.68 L456.423 164.338 L452.14 164.338 L452.14 138.412 L456.423 138.412 L456.423 142.44 Q457.765 140.078 459.918 138.944 Q462.071 137.787 465.149 137.787 Q465.589 137.787 466.122 137.856 Q466.654 137.903 467.302 138.018 L467.325 142.393 Z" fill="#000000" fill-rule="nonzero" fill-opacity="1" /><path clip-path="url(#clip710)" d="M492.927 150.31 L492.927 152.393 L473.344 152.393 Q473.622 156.791 475.983 159.106 Q478.367 161.398 482.603 161.398 Q485.057 161.398 487.348 160.796 Q489.663 160.194 491.932 158.99 L491.932 163.018 Q489.64 163.99 487.233 164.5 Q484.825 165.009 482.348 165.009 Q476.145 165.009 472.511 161.398 Q468.899 157.787 468.899 151.629 Q468.899 145.264 472.325 141.537 Q475.774 137.787 481.608 137.787 Q486.839 137.787 489.872 141.166 Q492.927 144.523 492.927 150.31 M488.668 149.06 Q488.622 145.565 486.7 143.481 Q484.802 141.398 481.654 141.398 Q478.089 141.398 475.936 143.412 Q473.807 145.426 473.483 149.083 L488.668 149.06 Z" fill="#000000" fill-rule="nonzero" fill-opacity="1" /><path clip-path="url(#clip710)" d="M516.978 142.347 L516.978 128.319 L521.237 128.319 L521.237 164.338 L516.978 164.338 L516.978 160.449 Q515.635 162.763 513.575 163.898 Q511.538 165.009 508.668 165.009 Q503.969 165.009 501.006 161.259 Q498.066 157.509 498.066 151.398 Q498.066 145.287 501.006 141.537 Q503.969 137.787 508.668 137.787 Q511.538 137.787 513.575 138.921 Q515.635 140.032 516.978 142.347 M502.464 151.398 Q502.464 156.097 504.385 158.782 Q506.33 161.444 509.709 161.444 Q513.089 161.444 515.033 158.782 Q516.978 156.097 516.978 151.398 Q516.978 146.699 515.033 144.037 Q513.089 141.352 509.709 141.352 Q506.33 141.352 504.385 144.037 Q502.464 146.699 502.464 151.398 Z" fill="#000000" fill-rule="nonzero" fill-opacity="1" /><path clip-path="url(#clip710)" d="M530.01 138.412 L534.269 138.412 L534.269 164.338 L530.01 164.338 L530.01 138.412 M530.01 128.319 L534.269 128.319 L534.269 133.713 L530.01 133.713 L530.01 128.319 Z" fill="#000000" fill-rule="nonzero" fill-opacity="1" /><path clip-path="url(#clip710)" d="M561.839 139.407 L561.839 143.389 Q560.033 142.393 558.205 141.907 Q556.399 141.398 554.547 141.398 Q550.404 141.398 548.112 144.037 Q545.82 146.652 545.82 151.398 Q545.82 156.143 548.112 158.782 Q550.404 161.398 554.547 161.398 Q556.399 161.398 558.205 160.912 Q560.033 160.402 561.839 159.407 L561.839 163.342 Q560.056 164.176 558.135 164.592 Q556.237 165.009 554.084 165.009 Q548.228 165.009 544.779 161.328 Q541.33 157.648 541.33 151.398 Q541.33 145.055 544.802 141.421 Q548.297 137.787 554.362 137.787 Q556.33 137.787 558.205 138.203 Q560.08 138.597 561.839 139.407 Z" fill="#000000" fill-rule="nonzero" fill-opacity="1" /><path clip-path="url(#clip710)" d="M573.459 131.051 L573.459 138.412 L582.232 138.412 L582.232 141.722 L573.459 141.722 L573.459 155.796 Q573.459 158.967 574.316 159.87 Q575.195 160.773 577.857 160.773 L582.232 160.773 L582.232 164.338 L577.857 164.338 Q572.927 164.338 571.052 162.509 Q569.177 160.657 569.177 155.796 L569.177 141.722 L566.052 141.722 L566.052 138.412 L569.177 138.412 L569.177 131.051 L573.459 131.051 Z" fill="#000000" fill-rule="nonzero" fill-opacity="1" /><path clip-path="url(#clip710)" d="M587.834 138.412 L592.093 138.412 L592.093 164.338 L587.834 164.338 L587.834 138.412 M587.834 128.319 L592.093 128.319 L592.093 133.713 L587.834 133.713 L587.834 128.319 Z" fill="#000000" fill-rule="nonzero" fill-opacity="1" /><path clip-path="url(#clip710)" d="M611.051 141.398 Q607.626 141.398 605.635 144.083 Q603.644 146.745 603.644 151.398 Q603.644 156.051 605.612 158.736 Q607.602 161.398 611.051 161.398 Q614.454 161.398 616.445 158.713 Q618.436 156.027 618.436 151.398 Q618.436 146.791 616.445 144.106 Q614.454 141.398 611.051 141.398 M611.051 137.787 Q616.607 137.787 619.778 141.398 Q622.95 145.009 622.95 151.398 Q622.95 157.764 619.778 161.398 Q616.607 165.009 611.051 165.009 Q605.473 165.009 602.302 161.398 Q599.153 157.764 599.153 151.398 Q599.153 145.009 602.302 141.398 Q605.473 137.787 611.051 137.787 Z" fill="#000000" fill-rule="nonzero" fill-opacity="1" /><path clip-path="url(#clip710)" d="M651.561 148.689 L651.561 164.338 L647.301 164.338 L647.301 148.828 Q647.301 145.148 645.866 143.319 Q644.431 141.49 641.561 141.49 Q638.112 141.49 636.121 143.69 Q634.13 145.889 634.13 149.685 L634.13 164.338 L629.848 164.338 L629.848 138.412 L634.13 138.412 L634.13 142.44 Q635.658 140.102 637.718 138.944 Q639.801 137.787 642.51 137.787 Q646.977 137.787 649.269 140.565 Q651.561 143.319 651.561 148.689 Z" fill="#000000" fill-rule="nonzero" fill-opacity="1" /><polyline clip-path="url(#clip710)" style="stroke:#e26f46; stroke-linecap:round; stroke-linejoin:round; stroke-width:4; stroke-opacity:1; fill:none" points="253.896,198.898 400.328,198.898 "/>
<path clip-path="url(#clip710)" d="M424.733 181.618 L446.585 181.618 L446.585 185.553 L429.409 185.553 L429.409 195.784 L445.867 195.784 L445.867 199.719 L429.409 199.719 L429.409 212.242 L447.001 212.242 L447.001 216.178 L424.733 216.178 L424.733 181.618 Z" fill="#000000" fill-rule="nonzero" fill-opacity="1" /><path clip-path="url(#clip710)" d="M476.052 190.252 L466.677 202.867 L476.538 216.178 L471.515 216.178 L463.969 205.992 L456.423 216.178 L451.4 216.178 L461.469 202.613 L452.256 190.252 L457.279 190.252 L464.154 199.488 L471.029 190.252 L476.052 190.252 Z" fill="#000000" fill-rule="nonzero" fill-opacity="1" /><path clip-path="url(#clip710)" d="M494.339 203.145 Q489.177 203.145 487.186 204.326 Q485.196 205.506 485.196 208.354 Q485.196 210.622 486.677 211.965 Q488.182 213.284 490.751 213.284 Q494.293 213.284 496.422 210.784 Q498.575 208.261 498.575 204.094 L498.575 203.145 L494.339 203.145 M502.834 201.386 L502.834 216.178 L498.575 216.178 L498.575 212.242 Q497.117 214.603 494.941 215.738 Q492.765 216.849 489.617 216.849 Q485.635 216.849 483.274 214.627 Q480.936 212.381 480.936 208.631 Q480.936 204.256 483.853 202.034 Q486.793 199.812 492.603 199.812 L498.575 199.812 L498.575 199.395 Q498.575 196.455 496.631 194.858 Q494.71 193.238 491.214 193.238 Q488.992 193.238 486.885 193.77 Q484.779 194.303 482.835 195.367 L482.835 191.432 Q485.173 190.53 487.372 190.09 Q489.571 189.627 491.654 189.627 Q497.279 189.627 500.057 192.543 Q502.834 195.46 502.834 201.386 Z" fill="#000000" fill-rule="nonzero" fill-opacity="1" /><path clip-path="url(#clip710)" d="M530.265 191.247 L530.265 195.229 Q528.459 194.233 526.631 193.747 Q524.825 193.238 522.973 193.238 Q518.83 193.238 516.538 195.877 Q514.246 198.492 514.246 203.238 Q514.246 207.983 516.538 210.622 Q518.83 213.238 522.973 213.238 Q524.825 213.238 526.631 212.752 Q528.459 212.242 530.265 211.247 L530.265 215.182 Q528.482 216.016 526.561 216.432 Q524.663 216.849 522.51 216.849 Q516.654 216.849 513.205 213.168 Q509.756 209.488 509.756 203.238 Q509.756 196.895 513.228 193.261 Q516.723 189.627 522.788 189.627 Q524.756 189.627 526.631 190.043 Q528.506 190.437 530.265 191.247 Z" fill="#000000" fill-rule="nonzero" fill-opacity="1" /><path clip-path="url(#clip710)" d="M541.885 182.891 L541.885 190.252 L550.658 190.252 L550.658 193.562 L541.885 193.562 L541.885 207.636 Q541.885 210.807 542.742 211.71 Q543.621 212.613 546.283 212.613 L550.658 212.613 L550.658 216.178 L546.283 216.178 Q541.353 216.178 539.478 214.349 Q537.603 212.497 537.603 207.636 L537.603 193.562 L534.478 193.562 L534.478 190.252 L537.603 190.252 L537.603 182.891 L541.885 182.891 Z" fill="#000000" fill-rule="nonzero" fill-opacity="1" /></svg>
