<?xml version="1.0" encoding="utf-8"?>
<svg xmlns="http://www.w3.org/2000/svg" xmlns:xlink="http://www.w3.org/1999/xlink" width="600" height="400" viewBox="0 0 2400 1600">
<defs>
  <clipPath id="clip650">
    <rect x="0" y="0" width="2400" height="1600"/>
  </clipPath>
</defs>
<path clip-path="url(#clip650)" d="M0 1600 L2400 1600 L2400 0 L0 0  Z" fill="#ffffff" fill-rule="evenodd" fill-opacity="1"/>
<defs>
  <clipPath id="clip651">
    <rect x="480" y="0" width="1681" height="1600"/>
  </clipPath>
</defs>
<path clip-path="url(#clip650)" d="M192.339 1486.45 L2352.76 1486.45 L2352.76 47.2441 L192.339 47.2441  Z" fill="#ffffff" fill-rule="evenodd" fill-opacity="1"/>
<defs>
  <clipPath id="clip652">
    <rect x="192" y="47" width="2161" height="1440"/>
  </clipPath>
</defs>
<polyline clip-path="url(#clip652)" style="stroke:#000000; stroke-linecap:round; stroke-linejoin:round; stroke-width:2; stroke-opacity:0.1; fill:none" points="253.483,1486.45 253.483,47.2441 "/>
<polyline clip-path="url(#clip652)" style="stroke:#000000; stroke-linecap:round; stroke-linejoin:round; stroke-width:2; stroke-opacity:0.1; fill:none" points="763.015,1486.45 763.015,47.2441 "/>
<polyline clip-path="url(#clip652)" style="stroke:#000000; stroke-linecap:round; stroke-linejoin:round; stroke-width:2; stroke-opacity:0.1; fill:none" points="1272.55,1486.45 1272.55,47.2441 "/>
<polyline clip-path="url(#clip652)" style="stroke:#000000; stroke-linecap:round; stroke-linejoin:round; stroke-width:2; stroke-opacity:0.1; fill:none" points="1782.08,1486.45 1782.08,47.2441 "/>
<polyline clip-path="url(#clip652)" style="stroke:#000000; stroke-linecap:round; stroke-linejoin:round; stroke-width:2; stroke-opacity:0.1; fill:none" points="2291.61,1486.45 2291.61,47.2441 "/>
<polyline clip-path="url(#clip650)" style="stroke:#000000; stroke-linecap:round; stroke-linejoin:round; stroke-width:4; stroke-opacity:1; fill:none" points="192.339,1486.45 2352.76,1486.45 "/>
<polyline clip-path="url(#clip650)" style="stroke:#000000; stroke-linecap:round; stroke-linejoin:round; stroke-width:4; stroke-opacity:1; fill:none" points="253.483,1486.45 253.483,1467.55 "/>
<polyline clip-path="url(#clip650)" style="stroke:#000000; stroke-linecap:round; stroke-linejoin:round; stroke-width:4; stroke-opacity:1; fill:none" points="763.015,1486.45 763.015,1467.55 "/>
<polyline clip-path="url(#clip650)" style="stroke:#000000; stroke-linecap:round; stroke-linejoin:round; stroke-width:4; stroke-opacity:1; fill:none" points="1272.55,1486.45 1272.55,1467.55 "/>
<polyline clip-path="url(#clip650)" style="stroke:#000000; stroke-linecap:round; stroke-linejoin:round; stroke-width:4; stroke-opacity:1; fill:none" points="1782.08,1486.45 1782.08,1467.55 "/>
<polyline clip-path="url(#clip650)" style="stroke:#000000; stroke-linecap:round; stroke-linejoin:round; stroke-width:4; stroke-opacity:1; fill:none" points="2291.61,1486.45 2291.61,1467.55 "/>
<path clip-path="url(#clip650)" d="M200.011 1532.02 L229.686 1532.02 L229.686 1535.95 L200.011 1535.95 L200.011 1532.02 Z" fill="#000000" fill-rule="nonzero" fill-opacity="1" /><path clip-path="url(#clip650)" d="M240.589 1544.91 L248.228 1544.91 L248.228 1518.55 L239.918 1520.21 L239.918 1515.95 L248.182 1514.29 L252.858 1514.29 L252.858 1544.91 L260.497 1544.91 L260.497 1548.85 L240.589 1548.85 L240.589 1544.91 Z" fill="#000000" fill-rule="nonzero" fill-opacity="1" /><path clip-path="url(#clip650)" d="M269.941 1542.97 L274.825 1542.97 L274.825 1548.85 L269.941 1548.85 L269.941 1542.97 Z" fill="#000000" fill-rule="nonzero" fill-opacity="1" /><path clip-path="url(#clip650)" d="M295.01 1517.37 Q291.399 1517.37 289.57 1520.93 Q287.765 1524.47 287.765 1531.6 Q287.765 1538.71 289.57 1542.27 Q291.399 1545.82 295.01 1545.82 Q298.644 1545.82 300.45 1542.27 Q302.279 1538.71 302.279 1531.6 Q302.279 1524.47 300.45 1520.93 Q298.644 1517.37 295.01 1517.37 M295.01 1513.66 Q300.82 1513.66 303.876 1518.27 Q306.955 1522.85 306.955 1531.6 Q306.955 1540.33 303.876 1544.94 Q300.82 1549.52 295.01 1549.52 Q289.2 1549.52 286.121 1544.94 Q283.066 1540.33 283.066 1531.6 Q283.066 1522.85 286.121 1518.27 Q289.2 1513.66 295.01 1513.66 Z" fill="#000000" fill-rule="nonzero" fill-opacity="1" /><path clip-path="url(#clip650)" d="M710.041 1532.02 L739.717 1532.02 L739.717 1535.95 L710.041 1535.95 L710.041 1532.02 Z" fill="#000000" fill-rule="nonzero" fill-opacity="1" /><path clip-path="url(#clip650)" d="M759.809 1517.37 Q756.198 1517.37 754.369 1520.93 Q752.564 1524.47 752.564 1531.6 Q752.564 1538.71 754.369 1542.27 Q756.198 1545.82 759.809 1545.82 Q763.443 1545.82 765.249 1542.27 Q767.077 1538.71 767.077 1531.6 Q767.077 1524.47 765.249 1520.93 Q763.443 1517.37 759.809 1517.37 M759.809 1513.66 Q765.619 1513.66 768.675 1518.27 Q771.753 1522.85 771.753 1531.6 Q771.753 1540.33 768.675 1544.94 Q765.619 1549.52 759.809 1549.52 Q753.999 1549.52 750.92 1544.94 Q747.865 1540.33 747.865 1531.6 Q747.865 1522.85 750.92 1518.27 Q753.999 1513.66 759.809 1513.66 Z" fill="#000000" fill-rule="nonzero" fill-opacity="1" /><path clip-path="url(#clip650)" d="M779.971 1542.97 L784.855 1542.97 L784.855 1548.85 L779.971 1548.85 L779.971 1542.97 Z" fill="#000000" fill-rule="nonzero" fill-opacity="1" /><path clip-path="url(#clip650)" d="M795.087 1514.29 L813.443 1514.29 L813.443 1518.22 L799.369 1518.22 L799.369 1526.7 Q800.387 1526.35 801.406 1526.19 Q802.425 1526 803.443 1526 Q809.23 1526 812.61 1529.17 Q815.989 1532.34 815.989 1537.76 Q815.989 1543.34 812.517 1546.44 Q809.045 1549.52 802.725 1549.52 Q800.55 1549.52 798.281 1549.15 Q796.036 1548.78 793.628 1548.04 L793.628 1543.34 Q795.712 1544.47 797.934 1545.03 Q800.156 1545.58 802.633 1545.58 Q806.637 1545.58 808.975 1543.48 Q811.313 1541.37 811.313 1537.76 Q811.313 1534.15 808.975 1532.04 Q806.637 1529.94 802.633 1529.94 Q800.758 1529.94 798.883 1530.35 Q797.031 1530.77 795.087 1531.65 L795.087 1514.29 Z" fill="#000000" fill-rule="nonzero" fill-opacity="1" /><path clip-path="url(#clip650)" d="M1249.93 1517.37 Q1246.32 1517.37 1244.49 1520.93 Q1242.69 1524.47 1242.69 1531.6 Q1242.69 1538.71 1244.49 1542.27 Q1246.32 1545.82 1249.93 1545.82 Q1253.57 1545.82 1255.37 1542.27 Q1257.2 1538.71 1257.2 1531.6 Q1257.2 1524.47 1255.37 1520.93 Q1253.57 1517.37 1249.93 1517.37 M1249.93 1513.66 Q1255.74 1513.66 1258.8 1518.27 Q1261.88 1522.85 1261.88 1531.6 Q1261.88 1540.33 1258.8 1544.94 Q1255.74 1549.52 1249.93 1549.52 Q1244.12 1549.52 1241.04 1544.94 Q1237.99 1540.33 1237.99 1531.6 Q1237.99 1522.85 1241.04 1518.27 Q1244.12 1513.66 1249.93 1513.66 Z" fill="#000000" fill-rule="nonzero" fill-opacity="1" /><path clip-path="url(#clip650)" d="M1270.09 1542.97 L1274.98 1542.97 L1274.98 1548.85 L1270.09 1548.85 L1270.09 1542.97 Z" fill="#000000" fill-rule="nonzero" fill-opacity="1" /><path clip-path="url(#clip650)" d="M1295.16 1517.37 Q1291.55 1517.37 1289.72 1520.93 Q1287.92 1524.47 1287.92 1531.6 Q1287.92 1538.71 1289.72 1542.27 Q1291.55 1545.82 1295.16 1545.82 Q1298.8 1545.82 1300.6 1542.27 Q1302.43 1538.71 1302.43 1531.6 Q1302.43 1524.47 1300.6 1520.93 Q1298.8 1517.37 1295.16 1517.37 M1295.16 1513.66 Q1300.97 1513.66 1304.03 1518.27 Q1307.11 1522.85 1307.11 1531.6 Q1307.11 1540.33 1304.03 1544.94 Q1300.97 1549.52 1295.16 1549.52 Q1289.35 1549.52 1286.27 1544.94 Q1283.22 1540.33 1283.22 1531.6 Q1283.22 1522.85 1286.27 1518.27 Q1289.35 1513.66 1295.16 1513.66 Z" fill="#000000" fill-rule="nonzero" fill-opacity="1" /><path clip-path="url(#clip650)" d="M1759.96 1517.37 Q1756.35 1517.37 1754.52 1520.93 Q1752.72 1524.47 1752.72 1531.6 Q1752.72 1538.71 1754.52 1542.27 Q1756.35 1545.82 1759.96 1545.82 Q1763.6 1545.82 1765.4 1542.27 Q1767.23 1538.71 1767.23 1531.6 Q1767.23 1524.47 1765.4 1520.93 Q1763.6 1517.37 1759.96 1517.37 M1759.96 1513.66 Q1765.77 1513.66 1768.83 1518.27 Q1771.91 1522.85 1771.91 1531.6 Q1771.91 1540.33 1768.83 1544.94 Q1765.77 1549.52 1759.96 1549.52 Q1754.15 1549.52 1751.07 1544.94 Q1748.02 1540.33 1748.02 1531.6 Q1748.02 1522.85 1751.07 1518.27 Q1754.15 1513.66 1759.96 1513.66 Z" fill="#000000" fill-rule="nonzero" fill-opacity="1" /><path clip-path="url(#clip650)" d="M1780.12 1542.97 L1785.01 1542.97 L1785.01 1548.85 L1780.12 1548.85 L1780.12 1542.97 Z" fill="#000000" fill-rule="nonzero" fill-opacity="1" /><path clip-path="url(#clip650)" d="M1795.24 1514.29 L1813.6 1514.29 L1813.6 1518.22 L1799.52 1518.22 L1799.52 1526.7 Q1800.54 1526.35 1801.56 1526.19 Q1802.58 1526 1803.6 1526 Q1809.38 1526 1812.76 1529.17 Q1816.14 1532.34 1816.14 1537.76 Q1816.14 1543.34 1812.67 1546.44 Q1809.2 1549.52 1802.88 1549.52 Q1800.7 1549.52 1798.43 1549.15 Q1796.19 1548.78 1793.78 1548.04 L1793.78 1543.34 Q1795.86 1544.47 1798.09 1545.03 Q1800.31 1545.58 1802.79 1545.58 Q1806.79 1545.58 1809.13 1543.48 Q1811.47 1541.37 1811.47 1537.76 Q1811.47 1534.15 1809.13 1532.04 Q1806.79 1529.94 1802.79 1529.94 Q1800.91 1529.94 1799.04 1530.35 Q1797.18 1530.77 1795.24 1531.65 L1795.24 1514.29 Z" fill="#000000" fill-rule="nonzero" fill-opacity="1" /><path clip-path="url(#clip650)" d="M2258.76 1544.91 L2266.4 1544.91 L2266.4 1518.55 L2258.09 1520.21 L2258.09 1515.95 L2266.36 1514.29 L2271.03 1514.29 L2271.03 1544.91 L2278.67 1544.91 L2278.67 1548.85 L2258.76 1548.85 L2258.76 1544.91 Z" fill="#000000" fill-rule="nonzero" fill-opacity="1" /><path clip-path="url(#clip650)" d="M2288.12 1542.97 L2293 1542.97 L2293 1548.85 L2288.12 1548.85 L2288.12 1542.97 Z" fill="#000000" fill-rule="nonzero" fill-opacity="1" /><path clip-path="url(#clip650)" d="M2313.19 1517.37 Q2309.57 1517.37 2307.75 1520.93 Q2305.94 1524.47 2305.94 1531.6 Q2305.94 1538.71 2307.75 1542.27 Q2309.57 1545.82 2313.19 1545.82 Q2316.82 1545.82 2318.63 1542.27 Q2320.45 1538.71 2320.45 1531.6 Q2320.45 1524.47 2318.63 1520.93 Q2316.82 1517.37 2313.19 1517.37 M2313.19 1513.66 Q2319 1513.66 2322.05 1518.27 Q2325.13 1522.85 2325.13 1531.6 Q2325.13 1540.33 2322.05 1544.94 Q2319 1549.52 2313.19 1549.52 Q2307.38 1549.52 2304.3 1544.94 Q2301.24 1540.33 2301.24 1531.6 Q2301.24 1522.85 2304.3 1518.27 Q2307.38 1513.66 2313.19 1513.66 Z" fill="#000000" fill-rule="nonzero" fill-opacity="1" /><polyline clip-path="url(#clip652)" style="stroke:#000000; stroke-linecap:round; stroke-linejoin:round; stroke-width:2; stroke-opacity:0.1; fill:none" points="192.339,1376.27 2352.76,1376.27 "/>
<polyline clip-path="url(#clip652)" style="stroke:#000000; stroke-linecap:round; stroke-linejoin:round; stroke-width:2; stroke-opacity:0.1; fill:none" points="192.339,1208.1 2352.76,1208.1 "/>
<polyline clip-path="url(#clip652)" style="stroke:#000000; stroke-linecap:round; stroke-linejoin:round; stroke-width:2; stroke-opacity:0.1; fill:none" points="192.339,1039.94 2352.76,1039.94 "/>
<polyline clip-path="url(#clip652)" style="stroke:#000000; stroke-linecap:round; stroke-linejoin:round; stroke-width:2; stroke-opacity:0.1; fill:none" points="192.339,871.776 2352.76,871.776 "/>
<polyline clip-path="url(#clip652)" style="stroke:#000000; stroke-linecap:round; stroke-linejoin:round; stroke-width:2; stroke-opacity:0.1; fill:none" points="192.339,703.611 2352.76,703.611 "/>
<polyline clip-path="url(#clip652)" style="stroke:#000000; stroke-linecap:round; stroke-linejoin:round; stroke-width:2; stroke-opacity:0.1; fill:none" points="192.339,535.447 2352.76,535.447 "/>
<polyline clip-path="url(#clip652)" style="stroke:#000000; stroke-linecap:round; stroke-linejoin:round; stroke-width:2; stroke-opacity:0.1; fill:none" points="192.339,367.282 2352.76,367.282 "/>
<polyline clip-path="url(#clip652)" style="stroke:#000000; stroke-linecap:round; stroke-linejoin:round; stroke-width:2; stroke-opacity:0.1; fill:none" points="192.339,199.118 2352.76,199.118 "/>
<polyline clip-path="url(#clip650)" style="stroke:#000000; stroke-linecap:round; stroke-linejoin:round; stroke-width:4; stroke-opacity:1; fill:none" points="192.339,1486.45 192.339,47.2441 "/>
<polyline clip-path="url(#clip650)" style="stroke:#000000; stroke-linecap:round; stroke-linejoin:round; stroke-width:4; stroke-opacity:1; fill:none" points="192.339,1376.27 211.236,1376.27 "/>
<polyline clip-path="url(#clip650)" style="stroke:#000000; stroke-linecap:round; stroke-linejoin:round; stroke-width:4; stroke-opacity:1; fill:none" points="192.339,1208.1 211.236,1208.1 "/>
<polyline clip-path="url(#clip650)" style="stroke:#000000; stroke-linecap:round; stroke-linejoin:round; stroke-width:4; stroke-opacity:1; fill:none" points="192.339,1039.94 211.236,1039.94 "/>
<polyline clip-path="url(#clip650)" style="stroke:#000000; stroke-linecap:round; stroke-linejoin:round; stroke-width:4; stroke-opacity:1; fill:none" points="192.339,871.776 211.236,871.776 "/>
<polyline clip-path="url(#clip650)" style="stroke:#000000; stroke-linecap:round; stroke-linejoin:round; stroke-width:4; stroke-opacity:1; fill:none" points="192.339,703.611 211.236,703.611 "/>
<polyline clip-path="url(#clip650)" style="stroke:#000000; stroke-linecap:round; stroke-linejoin:round; stroke-width:4; stroke-opacity:1; fill:none" points="192.339,535.447 211.236,535.447 "/>
<polyline clip-path="url(#clip650)" style="stroke:#000000; stroke-linecap:round; stroke-linejoin:round; stroke-width:4; stroke-opacity:1; fill:none" points="192.339,367.282 211.236,367.282 "/>
<polyline clip-path="url(#clip650)" style="stroke:#000000; stroke-linecap:round; stroke-linejoin:round; stroke-width:4; stroke-opacity:1; fill:none" points="192.339,199.118 211.236,199.118 "/>
<path clip-path="url(#clip650)" d="M50.9921 1376.72 L80.6679 1376.72 L80.6679 1380.66 L50.9921 1380.66 L50.9921 1376.72 Z" fill="#000000" fill-rule="nonzero" fill-opacity="1" /><path clip-path="url(#clip650)" d="M100.76 1362.07 Q97.1493 1362.07 95.3206 1365.63 Q93.515 1369.17 93.515 1376.3 Q93.515 1383.41 95.3206 1386.97 Q97.1493 1390.52 100.76 1390.52 Q104.395 1390.52 106.2 1386.97 Q108.029 1383.41 108.029 1376.3 Q108.029 1369.17 106.2 1365.63 Q104.395 1362.07 100.76 1362.07 M100.76 1358.36 Q106.571 1358.36 109.626 1362.97 Q112.705 1367.55 112.705 1376.3 Q112.705 1385.03 109.626 1389.64 Q106.571 1394.22 100.76 1394.22 Q94.9502 1394.22 91.8715 1389.64 Q88.816 1385.03 88.816 1376.3 Q88.816 1367.55 91.8715 1362.97 Q94.9502 1358.36 100.76 1358.36 Z" fill="#000000" fill-rule="nonzero" fill-opacity="1" /><path clip-path="url(#clip650)" d="M120.922 1387.67 L125.807 1387.67 L125.807 1393.55 L120.922 1393.55 L120.922 1387.67 Z" fill="#000000" fill-rule="nonzero" fill-opacity="1" /><path clip-path="url(#clip650)" d="M140.019 1389.61 L156.339 1389.61 L156.339 1393.55 L134.394 1393.55 L134.394 1389.61 Q137.056 1386.86 141.64 1382.23 Q146.246 1377.58 147.427 1376.23 Q149.672 1373.71 150.552 1371.97 Q151.455 1370.22 151.455 1368.53 Q151.455 1365.77 149.51 1364.04 Q147.589 1362.3 144.487 1362.3 Q142.288 1362.3 139.834 1363.06 Q137.404 1363.83 134.626 1365.38 L134.626 1360.66 Q137.45 1359.52 139.904 1358.94 Q142.357 1358.36 144.394 1358.36 Q149.765 1358.36 152.959 1361.05 Q156.154 1363.73 156.154 1368.22 Q156.154 1370.35 155.343 1372.28 Q154.556 1374.17 152.45 1376.77 Q151.871 1377.44 148.769 1380.66 Q145.668 1383.85 140.019 1389.61 Z" fill="#000000" fill-rule="nonzero" fill-opacity="1" /><path clip-path="url(#clip650)" d="M99.1632 1193.9 Q95.5521 1193.9 93.7234 1197.47 Q91.9178 1201.01 91.9178 1208.14 Q91.9178 1215.25 93.7234 1218.81 Q95.5521 1222.35 99.1632 1222.35 Q102.797 1222.35 104.603 1218.81 Q106.432 1215.25 106.432 1208.14 Q106.432 1201.01 104.603 1197.47 Q102.797 1193.9 99.1632 1193.9 M99.1632 1190.2 Q104.973 1190.2 108.029 1194.81 Q111.108 1199.39 111.108 1208.14 Q111.108 1216.87 108.029 1221.47 Q104.973 1226.06 99.1632 1226.06 Q93.353 1226.06 90.2743 1221.47 Q87.2188 1216.87 87.2188 1208.14 Q87.2188 1199.39 90.2743 1194.81 Q93.353 1190.2 99.1632 1190.2 Z" fill="#000000" fill-rule="nonzero" fill-opacity="1" /><path clip-path="url(#clip650)" d="M119.325 1219.5 L124.209 1219.5 L124.209 1225.38 L119.325 1225.38 L119.325 1219.5 Z" fill="#000000" fill-rule="nonzero" fill-opacity="1" /><path clip-path="url(#clip650)" d="M144.394 1193.9 Q140.783 1193.9 138.955 1197.47 Q137.149 1201.01 137.149 1208.14 Q137.149 1215.25 138.955 1218.81 Q140.783 1222.35 144.394 1222.35 Q148.029 1222.35 149.834 1218.81 Q151.663 1215.25 151.663 1208.14 Q151.663 1201.01 149.834 1197.47 Q148.029 1193.9 144.394 1193.9 M144.394 1190.2 Q150.205 1190.2 153.26 1194.81 Q156.339 1199.39 156.339 1208.14 Q156.339 1216.87 153.26 1221.47 Q150.205 1226.06 144.394 1226.06 Q138.584 1226.06 135.506 1221.47 Q132.45 1216.87 132.45 1208.14 Q132.45 1199.39 135.506 1194.81 Q138.584 1190.2 144.394 1190.2 Z" fill="#000000" fill-rule="nonzero" fill-opacity="1" /><path clip-path="url(#clip650)" d="M100.76 1025.74 Q97.1493 1025.74 95.3206 1029.3 Q93.515 1032.85 93.515 1039.97 Q93.515 1047.08 95.3206 1050.65 Q97.1493 1054.19 100.76 1054.19 Q104.395 1054.19 106.2 1050.65 Q108.029 1047.08 108.029 1039.97 Q108.029 1032.85 106.2 1029.3 Q104.395 1025.74 100.76 1025.74 M100.76 1022.04 Q106.571 1022.04 109.626 1026.64 Q112.705 1031.22 112.705 1039.97 Q112.705 1048.7 109.626 1053.31 Q106.571 1057.89 100.76 1057.89 Q94.9502 1057.89 91.8715 1053.31 Q88.816 1048.7 88.816 1039.97 Q88.816 1031.22 91.8715 1026.64 Q94.9502 1022.04 100.76 1022.04 Z" fill="#000000" fill-rule="nonzero" fill-opacity="1" /><path clip-path="url(#clip650)" d="M120.922 1051.34 L125.807 1051.34 L125.807 1057.22 L120.922 1057.22 L120.922 1051.34 Z" fill="#000000" fill-rule="nonzero" fill-opacity="1" /><path clip-path="url(#clip650)" d="M140.019 1053.28 L156.339 1053.28 L156.339 1057.22 L134.394 1057.22 L134.394 1053.28 Q137.056 1050.53 141.64 1045.9 Q146.246 1041.25 147.427 1039.91 Q149.672 1037.38 150.552 1035.65 Q151.455 1033.89 151.455 1032.2 Q151.455 1029.44 149.51 1027.71 Q147.589 1025.97 144.487 1025.97 Q142.288 1025.97 139.834 1026.73 Q137.404 1027.5 134.626 1029.05 L134.626 1024.33 Q137.45 1023.19 139.904 1022.61 Q142.357 1022.04 144.394 1022.04 Q149.765 1022.04 152.959 1024.72 Q156.154 1027.41 156.154 1031.9 Q156.154 1034.03 155.343 1035.95 Q154.556 1037.85 152.45 1040.44 Q151.871 1041.11 148.769 1044.33 Q145.668 1047.52 140.019 1053.28 Z" fill="#000000" fill-rule="nonzero" fill-opacity="1" /><path clip-path="url(#clip650)" d="M98.6771 857.574 Q95.066 857.574 93.2373 861.139 Q91.4317 864.681 91.4317 871.81 Q91.4317 878.917 93.2373 882.482 Q95.066 886.023 98.6771 886.023 Q102.311 886.023 104.117 882.482 Q105.946 878.917 105.946 871.81 Q105.946 864.681 104.117 861.139 Q102.311 857.574 98.6771 857.574 M98.6771 853.871 Q104.487 853.871 107.543 858.477 Q110.621 863.06 110.621 871.81 Q110.621 880.537 107.543 885.144 Q104.487 889.727 98.6771 889.727 Q92.8669 889.727 89.7882 885.144 Q86.7327 880.537 86.7327 871.81 Q86.7327 863.06 89.7882 858.477 Q92.8669 853.871 98.6771 853.871 Z" fill="#000000" fill-rule="nonzero" fill-opacity="1" /><path clip-path="url(#clip650)" d="M118.839 883.176 L123.723 883.176 L123.723 889.056 L118.839 889.056 L118.839 883.176 Z" fill="#000000" fill-rule="nonzero" fill-opacity="1" /><path clip-path="url(#clip650)" d="M146.756 858.57 L134.95 877.019 L146.756 877.019 L146.756 858.57 M145.529 854.496 L151.408 854.496 L151.408 877.019 L156.339 877.019 L156.339 880.907 L151.408 880.907 L151.408 889.056 L146.756 889.056 L146.756 880.907 L131.154 880.907 L131.154 876.394 L145.529 854.496 Z" fill="#000000" fill-rule="nonzero" fill-opacity="1" /><path clip-path="url(#clip650)" d="M99.0011 689.41 Q95.39 689.41 93.5613 692.975 Q91.7558 696.516 91.7558 703.646 Q91.7558 710.752 93.5613 714.317 Q95.39 717.859 99.0011 717.859 Q102.635 717.859 104.441 714.317 Q106.27 710.752 106.27 703.646 Q106.27 696.516 104.441 692.975 Q102.635 689.41 99.0011 689.41 M99.0011 685.706 Q104.811 685.706 107.867 690.313 Q110.946 694.896 110.946 703.646 Q110.946 712.373 107.867 716.979 Q104.811 721.562 99.0011 721.562 Q93.191 721.562 90.1123 716.979 Q87.0567 712.373 87.0567 703.646 Q87.0567 694.896 90.1123 690.313 Q93.191 685.706 99.0011 685.706 Z" fill="#000000" fill-rule="nonzero" fill-opacity="1" /><path clip-path="url(#clip650)" d="M119.163 715.012 L124.047 715.012 L124.047 720.891 L119.163 720.891 L119.163 715.012 Z" fill="#000000" fill-rule="nonzero" fill-opacity="1" /><path clip-path="url(#clip650)" d="M144.811 701.748 Q141.663 701.748 139.811 703.9 Q137.982 706.053 137.982 709.803 Q137.982 713.53 139.811 715.706 Q141.663 717.859 144.811 717.859 Q147.959 717.859 149.788 715.706 Q151.64 713.53 151.64 709.803 Q151.64 706.053 149.788 703.9 Q147.959 701.748 144.811 701.748 M154.093 687.095 L154.093 691.354 Q152.334 690.521 150.529 690.081 Q148.746 689.641 146.987 689.641 Q142.357 689.641 139.904 692.766 Q137.473 695.891 137.126 702.211 Q138.492 700.197 140.552 699.132 Q142.612 698.044 145.089 698.044 Q150.297 698.044 153.306 701.215 Q156.339 704.363 156.339 709.803 Q156.339 715.127 153.191 718.345 Q150.043 721.562 144.811 721.562 Q138.816 721.562 135.644 716.979 Q132.473 712.373 132.473 703.646 Q132.473 695.451 136.362 690.59 Q140.251 685.706 146.802 685.706 Q148.561 685.706 150.343 686.053 Q152.149 686.401 154.093 687.095 Z" fill="#000000" fill-rule="nonzero" fill-opacity="1" /><path clip-path="url(#clip650)" d="M99.2558 521.245 Q95.6447 521.245 93.816 524.81 Q92.0104 528.352 92.0104 535.481 Q92.0104 542.588 93.816 546.153 Q95.6447 549.694 99.2558 549.694 Q102.89 549.694 104.696 546.153 Q106.524 542.588 106.524 535.481 Q106.524 528.352 104.696 524.81 Q102.89 521.245 99.2558 521.245 M99.2558 517.542 Q105.066 517.542 108.121 522.148 Q111.2 526.731 111.2 535.481 Q111.2 544.208 108.121 548.815 Q105.066 553.398 99.2558 553.398 Q93.4456 553.398 90.3669 548.815 Q87.3114 544.208 87.3114 535.481 Q87.3114 526.731 90.3669 522.148 Q93.4456 517.542 99.2558 517.542 Z" fill="#000000" fill-rule="nonzero" fill-opacity="1" /><path clip-path="url(#clip650)" d="M119.418 546.847 L124.302 546.847 L124.302 552.727 L119.418 552.727 L119.418 546.847 Z" fill="#000000" fill-rule="nonzero" fill-opacity="1" /><path clip-path="url(#clip650)" d="M144.487 536.315 Q141.154 536.315 139.232 538.097 Q137.334 539.88 137.334 543.005 Q137.334 546.129 139.232 547.912 Q141.154 549.694 144.487 549.694 Q147.82 549.694 149.742 547.912 Q151.663 546.106 151.663 543.005 Q151.663 539.88 149.742 538.097 Q147.843 536.315 144.487 536.315 M139.811 534.324 Q136.802 533.583 135.112 531.523 Q133.445 529.463 133.445 526.5 Q133.445 522.356 136.385 519.949 Q139.348 517.542 144.487 517.542 Q149.649 517.542 152.589 519.949 Q155.529 522.356 155.529 526.5 Q155.529 529.463 153.839 531.523 Q152.172 533.583 149.186 534.324 Q152.566 535.111 154.441 537.403 Q156.339 539.694 156.339 543.005 Q156.339 548.028 153.26 550.713 Q150.205 553.398 144.487 553.398 Q138.769 553.398 135.691 550.713 Q132.635 548.028 132.635 543.005 Q132.635 539.694 134.533 537.403 Q136.431 535.111 139.811 534.324 M138.098 526.94 Q138.098 529.625 139.765 531.13 Q141.455 532.634 144.487 532.634 Q147.496 532.634 149.186 531.13 Q150.899 529.625 150.899 526.94 Q150.899 524.255 149.186 522.75 Q147.496 521.245 144.487 521.245 Q141.455 521.245 139.765 522.75 Q138.098 524.255 138.098 526.94 Z" fill="#000000" fill-rule="nonzero" fill-opacity="1" /><path clip-path="url(#clip650)" d="M89.9734 380.627 L97.6122 380.627 L97.6122 354.261 L89.3021 355.928 L89.3021 351.669 L97.566 350.002 L102.242 350.002 L102.242 380.627 L109.881 380.627 L109.881 384.562 L89.9734 384.562 L89.9734 380.627 Z" fill="#000000" fill-rule="nonzero" fill-opacity="1" /><path clip-path="url(#clip650)" d="M119.325 378.683 L124.209 378.683 L124.209 384.562 L119.325 384.562 L119.325 378.683 Z" fill="#000000" fill-rule="nonzero" fill-opacity="1" /><path clip-path="url(#clip650)" d="M144.394 353.081 Q140.783 353.081 138.955 356.646 Q137.149 360.187 137.149 367.317 Q137.149 374.423 138.955 377.988 Q140.783 381.53 144.394 381.53 Q148.029 381.53 149.834 377.988 Q151.663 374.423 151.663 367.317 Q151.663 360.187 149.834 356.646 Q148.029 353.081 144.394 353.081 M144.394 349.377 Q150.205 349.377 153.26 353.984 Q156.339 358.567 156.339 367.317 Q156.339 376.044 153.26 380.65 Q150.205 385.234 144.394 385.234 Q138.584 385.234 135.506 380.65 Q132.45 376.044 132.45 367.317 Q132.45 358.567 135.506 353.984 Q138.584 349.377 144.394 349.377 Z" fill="#000000" fill-rule="nonzero" fill-opacity="1" /><path clip-path="url(#clip650)" d="M91.5706 212.463 L99.2095 212.463 L99.2095 186.097 L90.8993 187.764 L90.8993 183.504 L99.1632 181.838 L103.839 181.838 L103.839 212.463 L111.478 212.463 L111.478 216.398 L91.5706 216.398 L91.5706 212.463 Z" fill="#000000" fill-rule="nonzero" fill-opacity="1" /><path clip-path="url(#clip650)" d="M120.922 210.518 L125.807 210.518 L125.807 216.398 L120.922 216.398 L120.922 210.518 Z" fill="#000000" fill-rule="nonzero" fill-opacity="1" /><path clip-path="url(#clip650)" d="M140.019 212.463 L156.339 212.463 L156.339 216.398 L134.394 216.398 L134.394 212.463 Q137.056 209.708 141.64 205.078 Q146.246 200.426 147.427 199.083 Q149.672 196.56 150.552 194.824 Q151.455 193.065 151.455 191.375 Q151.455 188.62 149.51 186.884 Q147.589 185.148 144.487 185.148 Q142.288 185.148 139.834 185.912 Q137.404 186.676 134.626 188.227 L134.626 183.504 Q137.45 182.37 139.904 181.791 Q142.357 181.213 144.394 181.213 Q149.765 181.213 152.959 183.898 Q156.154 186.583 156.154 191.074 Q156.154 193.203 155.343 195.125 Q154.556 197.023 152.45 199.615 Q151.871 200.287 148.769 203.504 Q145.668 206.699 140.019 212.463 Z" fill="#000000" fill-rule="nonzero" fill-opacity="1" /><polyline clip-path="url(#clip652)" style="stroke:#009af9; stroke-linecap:round; stroke-linejoin:round; stroke-width:16; stroke-opacity:1; fill:none" stroke-dasharray="8, 16" points="253.483,1081.81 263.725,1024.3 273.966,969.37 284.208,985.259 294.45,1037.01 304.692,1075.02 314.934,1094.21 325.176,1097.42 335.418,1086.57 345.659,1076.63 355.901,1088.15 366.143,1126.65 376.385,1183 386.627,1225.82 396.869,1224.48 407.111,1236.64 417.352,1294.76 427.594,1344.47 437.836,1370.41 448.078,1382.63 458.32,1378.21 468.562,1358.11 478.803,1337.07 489.045,1330.93 499.287,1343.85 509.529,1365.66 519.771,1371.22 530.013,1339.78 540.255,1282.58 550.497,1221.98 560.738,1167.12 570.98,1132.66 581.222,1129.96 591.464,1141.4 601.706,1134.23 611.948,1098.54 622.19,1062.11 632.431,1052.42 642.673,1071.72 652.915,1090.91 663.157,1076.12 673.399,1027.98 683.641,970.915 693.882,958.927 704.124,1037.96 714.366,1170.54 724.608,1250.74 734.85,1262.12 745.092,1252.6 755.334,1247.84 765.575,1252.14 775.817,1268.49 786.059,1304.72 796.301,1358.67 806.543,1402.37 816.785,1419.49 827.027,1408.73 837.268,1368.13 847.51,1337.36 857.752,1337.56 867.994,1336.05 878.236,1313.23 888.478,1270.47 898.72,1229.44 908.961,1211.56 919.203,1201.33 929.445,1176.95 939.687,1152.89 949.929,1137.24 960.171,1093.57 970.413,1005.04 980.654,932.924 990.896,943.504 1001.14,1029.96 1011.38,1109.08 1021.62,1116.33 1031.86,1095.91 1042.11,1078.99 1052.35,1064.19 1062.59,1061.84 1072.83,1096.87 1083.07,1164.73 1093.31,1226.41 1103.56,1256.66 1113.8,1266.53 1124.04,1286.91 1134.28,1345.3 1144.52,1430.77 1154.77,1445.72 1165.01,1388.71 1175.25,1347.6 1185.49,1340.34 1195.73,1350.75 1205.98,1358.48 1216.22,1353.82 1226.46,1339.68 1236.7,1322.99 1246.94,1296.32 1257.18,1202.39 1267.43,822.018 1277.67,287.635 1287.91,283.467 1298.15,414.999 1308.39,445.029 1318.64,422.12 1328.88,392.145 1339.12,381.377 1349.36,396.775 1359.6,419.179 1369.84,403.344 1380.09,302.937 1390.33,138.331 1400.57,87.9763 1410.81,237.53 1421.05,399.874 1431.3,465.676 1441.54,458.811 1451.78,424.804 1462.02,406.738 1472.26,411.7 1482.51,402.259 1492.75,359.623 1502.99,308.687 1513.23,277.905 1523.47,273.724 1533.71,304.405 1543.96,390.321 1554.2,481.471 1564.44,510.734 1574.68,469.164 1584.92,418.458 1595.17,404.518 1605.41,390.633 1615.65,339.581 1625.89,281.208 1636.13,264.907 1646.38,296.001 1656.62,350.833 1666.86,411.033 1677.1,462.115 1687.34,491.323 1697.58,485.811 1707.83,424.63 1718.07,319.004 1728.31,222.449 1738.55,188.207 1748.79,235.119 1759.04,320.544 1769.28,392.744 1779.52,439.527 1789.76,462.155 1800,457.401 1810.24,424.097 1820.49,378.87 1830.73,368.425 1840.97,416.507 1851.21,433.586 1861.45,355.977 1871.7,259.246 1881.94,237.078 1892.18,295.101 1902.42,396.958 1912.66,490.319 1922.91,522.996 1933.15,475.935 1943.39,387.746 1953.63,332.51 1963.87,330.59 1974.11,332.548 1984.36,299.557 1994.6,258.482 2004.84,258.296 2015.08,316.354 2025.32,418.453 2035.57,519.034 2045.81,566.459 2056.05,539.349 2066.29,448.173 2076.53,330.209 2086.77,234.996 2097.02,191.817 2107.26,195.878 2117.5,233.659 2127.74,316.51 2137.98,439.527 2148.23,529.538 2158.47,566.31 2168.71,581.043 2178.95,541.064 2189.19,427.428 2199.44,283.007 2209.68,177.221 2219.92,150.97 2230.16,194.627 2240.4,272.392 2250.64,363.482 2260.89,464.44 2271.13,536.926 2281.37,548.632 2291.61,576.473 "/>
<polyline clip-path="url(#clip652)" style="stroke:#e26f46; stroke-linecap:round; stroke-linejoin:round; stroke-width:4; stroke-opacity:1; fill:none" points="253.483,1081.82 263.725,1063.9 273.966,1050.69 284.208,1042.61 294.45,1039.94 304.692,1042.76 314.934,1050.97 325.176,1064.31 335.418,1082.34 345.659,1104.48 355.901,1130 366.143,1158.07 376.385,1187.78 386.627,1218.14 396.869,1248.18 407.111,1276.91 417.352,1303.39 427.594,1326.77 437.836,1346.27 448.078,1361.26 458.32,1371.26 468.562,1375.93 478.803,1375.12 489.045,1368.86 499.287,1357.35 509.529,1340.98 519.771,1320.26 530.013,1295.89 540.255,1268.65 550.497,1239.43 560.738,1209.2 570.98,1178.92 581.222,1149.6 591.464,1122.19 601.706,1097.58 611.948,1076.58 622.19,1059.88 632.431,1048.01 642.673,1041.36 652.915,1040.16 663.157,1044.44 673.399,1054.06 683.641,1068.7 693.882,1087.9 704.124,1111.02 714.366,1137.31 724.608,1165.91 734.85,1195.89 745.092,1226.26 755.334,1256.05 765.575,1284.26 775.817,1310 786.059,1332.4 796.301,1350.75 806.543,1364.45 816.785,1373.04 827.027,1376.25 837.268,1373.97 847.51,1366.28 857.752,1353.42 867.994,1335.83 878.236,1314.06 888.478,1288.84 898.72,1260.98 908.961,1231.39 919.203,1201.05 929.445,1170.93 939.687,1142.03 949.929,1115.29 960.171,1091.57 970.413,1071.66 980.654,1056.2 990.896,1045.7 1001.14,1040.5 1011.38,1040.77 1021.62,1046.5 1031.86,1057.5 1042.11,1073.43 1052.35,1093.74 1062.59,1117.79 1072.83,1144.79 1083.07,1173.85 1093.31,1204.03 1103.56,1234.34 1113.8,1263.8 1124.04,1291.44 1134.28,1316.36 1144.52,1337.75 1154.77,1354.9 1165.01,1367.27 1175.25,1374.44 1185.49,1376.18 1195.73,1372.43 1205.98,1363.33 1216.22,1349.15 1226.46,1330.37 1236.7,1307.61 1246.94,1281.59 1257.18,1253.18 1267.43,1223.29 1277.67,366.061 1287.91,364.671 1298.15,365.936 1308.39,370.147 1318.64,376.012 1328.88,381.055 1339.12,382.548 1349.36,378.668 1359.6,369.419 1369.84,356.95 1380.09,345.085 1390.33,338.154 1400.57,339.483 1410.81,350.059 1421.05,367.847 1431.3,388.091 1441.54,404.576 1451.78,411.53 1462.02,405.578 1472.26,387.108 1482.51,360.542 1492.75,333.317 1502.99,313.804 1513.23,308.749 1523.47,321.003 1533.71,348.303 1543.96,383.561 1554.2,416.681 1564.44,437.452 1574.68,438.682 1584.92,418.615 1595.17,381.837 1605.41,338.301 1615.65,300.643 1625.89,280.513 1636.13,284.989 1646.38,314.174 1656.62,360.766 1666.86,411.843 1677.1,452.444 1687.34,469.949 1697.58,457.979 1707.83,418.617 1718.07,362.201 1728.31,304.629 1738.55,262.884 1748.79,250.028 1759.04,271.139 1769.28,321.456 1779.52,387.372 1789.76,450.1 1800,491.025 1810.24,497.223 1820.49,465.513 1830.73,403.768 1840.97,329.011 1851.21,262.734 1861.45,224.711 1871.7,227.115 1881.94,270.655 1892.18,343.975 1902.42,426.581 1912.66,494.568 1922.91,527.535 1933.15,514.697 1943.39,458.363 1953.63,373.664 1963.87,284.515 1974.11,216.859 1984.36,191.123 1994.6,216.063 2004.84,285.856 2015.08,381.389 2025.32,475.478 2035.57,540.606 2045.81,556.965 2056.05,518.463 2066.29,434.874 2076.53,329.402 2086.77,232.245 2097.02,171.951 2107.26,167.033 2117.5,220.307 2127.74,317.682 2137.98,431.856 2148.23,529.971 2158.47,583.062 2168.71,574.609 2178.95,505.644 2189.19,394.855 2199.44,273.543 2209.68,176.78 2219.92,133.269 2230.16,156.84 2240.4,242.093 2250.64,365.556 2260.89,492.132 2271.13,585.082 2281.37,616.679 2291.61,576.473 "/>
<path clip-path="url(#clip650)" d="M264.353 250.738 L707.222 250.738 L707.222 95.2176 L264.353 95.2176  Z" fill="#ffffff" fill-rule="evenodd" fill-opacity="1"/>
<polyline clip-path="url(#clip650)" style="stroke:#000000; stroke-linecap:round; stroke-linejoin:round; stroke-width:4; stroke-opacity:1; fill:none" points="264.353,250.738 707.222,250.738 707.222,95.2176 264.353,95.2176 264.353,250.738 "/>
<polyline clip-path="url(#clip650)" style="stroke:#009af9; stroke-linecap:round; stroke-linejoin:round; stroke-width:16; stroke-opacity:1; fill:none" stroke-dasharray="8, 16" points="288.357,147.058 432.385,147.058 "/>
<path clip-path="url(#clip650)" d="M461.066 133.62 L461.066 146.606 L466.945 146.606 Q470.209 146.606 471.992 144.916 Q473.774 143.227 473.774 140.102 Q473.774 137 471.992 135.31 Q470.209 133.62 466.945 133.62 L461.066 133.62 M456.39 129.778 L466.945 129.778 Q472.755 129.778 475.718 132.416 Q478.704 135.032 478.704 140.102 Q478.704 145.217 475.718 147.833 Q472.755 150.449 466.945 150.449 L461.066 150.449 L461.066 164.338 L456.39 164.338 L456.39 129.778 Z" fill="#000000" fill-rule="nonzero" fill-opacity="1" /><path clip-path="url(#clip650)" d="M498.982 142.393 Q498.265 141.977 497.408 141.791 Q496.575 141.583 495.556 141.583 Q491.945 141.583 490.001 143.944 Q488.079 146.282 488.079 150.68 L488.079 164.338 L483.797 164.338 L483.797 138.412 L488.079 138.412 L488.079 142.44 Q489.422 140.078 491.575 138.944 Q493.728 137.787 496.806 137.787 Q497.246 137.787 497.778 137.856 Q498.311 137.903 498.959 138.018 L498.982 142.393 Z" fill="#000000" fill-rule="nonzero" fill-opacity="1" /><path clip-path="url(#clip650)" d="M524.584 150.31 L524.584 152.393 L505.001 152.393 Q505.278 156.791 507.639 159.106 Q510.024 161.398 514.26 161.398 Q516.714 161.398 519.005 160.796 Q521.32 160.194 523.588 158.99 L523.588 163.018 Q521.297 163.99 518.889 164.5 Q516.482 165.009 514.005 165.009 Q507.802 165.009 504.167 161.398 Q500.556 157.787 500.556 151.629 Q500.556 145.264 503.982 141.537 Q507.431 137.787 513.264 137.787 Q518.496 137.787 521.528 141.166 Q524.584 144.523 524.584 150.31 M520.325 149.06 Q520.278 145.565 518.357 143.481 Q516.459 141.398 513.311 141.398 Q509.746 141.398 507.593 143.412 Q505.464 145.426 505.14 149.083 L520.325 149.06 Z" fill="#000000" fill-rule="nonzero" fill-opacity="1" /><path clip-path="url(#clip650)" d="M548.635 142.347 L548.635 128.319 L552.894 128.319 L552.894 164.338 L548.635 164.338 L548.635 160.449 Q547.292 162.763 545.232 163.898 Q543.195 165.009 540.325 165.009 Q535.625 165.009 532.663 161.259 Q529.723 157.509 529.723 151.398 Q529.723 145.287 532.663 141.537 Q535.625 137.787 540.325 137.787 Q543.195 137.787 545.232 138.921 Q547.292 140.032 548.635 142.347 M534.121 151.398 Q534.121 156.097 536.042 158.782 Q537.987 161.444 541.366 161.444 Q544.746 161.444 546.69 158.782 Q548.635 156.097 548.635 151.398 Q548.635 146.699 546.69 144.037 Q544.746 141.352 541.366 141.352 Q537.987 141.352 536.042 144.037 Q534.121 146.699 534.121 151.398 Z" fill="#000000" fill-rule="nonzero" fill-opacity="1" /><path clip-path="url(#clip650)" d="M561.667 138.412 L565.926 138.412 L565.926 164.338 L561.667 164.338 L561.667 138.412 M561.667 128.319 L565.926 128.319 L565.926 133.713 L561.667 133.713 L561.667 128.319 Z" fill="#000000" fill-rule="nonzero" fill-opacity="1" /><path clip-path="url(#clip650)" d="M593.496 139.407 L593.496 143.389 Q591.69 142.393 589.861 141.907 Q588.056 141.398 586.204 141.398 Q582.06 141.398 579.769 144.037 Q577.477 146.652 577.477 151.398 Q577.477 156.143 579.769 158.782 Q582.06 161.398 586.204 161.398 Q588.056 161.398 589.861 160.912 Q591.69 160.402 593.496 159.407 L593.496 163.342 Q591.713 164.176 589.792 164.592 Q587.894 165.009 585.741 165.009 Q579.884 165.009 576.435 161.328 Q572.986 157.648 572.986 151.398 Q572.986 145.055 576.459 141.421 Q579.954 137.787 586.019 137.787 Q587.986 137.787 589.861 138.203 Q591.736 138.597 593.496 139.407 Z" fill="#000000" fill-rule="nonzero" fill-opacity="1" /><path clip-path="url(#clip650)" d="M605.116 131.051 L605.116 138.412 L613.889 138.412 L613.889 141.722 L605.116 141.722 L605.116 155.796 Q605.116 158.967 605.972 159.87 Q606.852 160.773 609.514 160.773 L613.889 160.773 L613.889 164.338 L609.514 164.338 Q604.583 164.338 602.708 162.509 Q600.833 160.657 600.833 155.796 L600.833 141.722 L597.708 141.722 L597.708 138.412 L600.833 138.412 L600.833 131.051 L605.116 131.051 Z" fill="#000000" fill-rule="nonzero" fill-opacity="1" /><path clip-path="url(#clip650)" d="M619.491 138.412 L623.75 138.412 L623.75 164.338 L619.491 164.338 L619.491 138.412 M619.491 128.319 L623.75 128.319 L623.75 133.713 L619.491 133.713 L619.491 128.319 Z" fill="#000000" fill-rule="nonzero" fill-opacity="1" /><path clip-path="url(#clip650)" d="M642.708 141.398 Q639.282 141.398 637.292 144.083 Q635.301 146.745 635.301 151.398 Q635.301 156.051 637.268 158.736 Q639.259 161.398 642.708 161.398 Q646.111 161.398 648.102 158.713 Q650.092 156.027 650.092 151.398 Q650.092 146.791 648.102 144.106 Q646.111 141.398 642.708 141.398 M642.708 137.787 Q648.264 137.787 651.435 141.398 Q654.606 145.009 654.606 151.398 Q654.606 157.764 651.435 161.398 Q648.264 165.009 642.708 165.009 Q637.13 165.009 633.958 161.398 Q630.81 157.764 630.81 151.398 Q630.81 145.009 633.958 141.398 Q637.13 137.787 642.708 137.787 Z" fill="#000000" fill-rule="nonzero" fill-opacity="1" /><path clip-path="url(#clip650)" d="M683.217 148.689 L683.217 164.338 L678.958 164.338 L678.958 148.828 Q678.958 145.148 677.523 143.319 Q676.088 141.49 673.217 141.49 Q669.768 141.49 667.778 143.69 Q665.787 145.889 665.787 149.685 L665.787 164.338 L661.504 164.338 L661.504 138.412 L665.787 138.412 L665.787 142.44 Q667.315 140.102 669.375 138.944 Q671.458 137.787 674.166 137.787 Q678.634 137.787 680.926 140.565 Q683.217 143.319 683.217 148.689 Z" fill="#000000" fill-rule="nonzero" fill-opacity="1" /><polyline clip-path="url(#clip650)" style="stroke:#e26f46; stroke-linecap:round; stroke-linejoin:round; stroke-width:4; stroke-opacity:1; fill:none" points="288.357,198.898 432.385,198.898 "/>
<path clip-path="url(#clip650)" d="M456.39 181.618 L478.242 181.618 L478.242 185.553 L461.066 185.553 L461.066 195.784 L477.524 195.784 L477.524 199.719 L461.066 199.719 L461.066 212.242 L478.658 212.242 L478.658 216.178 L456.39 216.178 L456.39 181.618 Z" fill="#000000" fill-rule="nonzero" fill-opacity="1" /><path clip-path="url(#clip650)" d="M507.709 190.252 L498.334 202.867 L508.195 216.178 L503.172 216.178 L495.626 205.992 L488.079 216.178 L483.056 216.178 L493.126 202.613 L483.913 190.252 L488.936 190.252 L495.811 199.488 L502.686 190.252 L507.709 190.252 Z" fill="#000000" fill-rule="nonzero" fill-opacity="1" /><path clip-path="url(#clip650)" d="M525.996 203.145 Q520.834 203.145 518.843 204.326 Q516.852 205.506 516.852 208.354 Q516.852 210.622 518.334 211.965 Q519.838 213.284 522.408 213.284 Q525.95 213.284 528.079 210.784 Q530.232 208.261 530.232 204.094 L530.232 203.145 L525.996 203.145 M534.491 201.386 L534.491 216.178 L530.232 216.178 L530.232 212.242 Q528.774 214.603 526.598 215.738 Q524.422 216.849 521.274 216.849 Q517.292 216.849 514.931 214.627 Q512.593 212.381 512.593 208.631 Q512.593 204.256 515.51 202.034 Q518.45 199.812 524.26 199.812 L530.232 199.812 L530.232 199.395 Q530.232 196.455 528.288 194.858 Q526.366 193.238 522.871 193.238 Q520.649 193.238 518.542 193.77 Q516.436 194.303 514.491 195.367 L514.491 191.432 Q516.829 190.53 519.028 190.09 Q521.227 189.627 523.311 189.627 Q528.936 189.627 531.713 192.543 Q534.491 195.46 534.491 201.386 Z" fill="#000000" fill-rule="nonzero" fill-opacity="1" /><path clip-path="url(#clip650)" d="M561.922 191.247 L561.922 195.229 Q560.116 194.233 558.287 193.747 Q556.482 193.238 554.63 193.238 Q550.486 193.238 548.195 195.877 Q545.903 198.492 545.903 203.238 Q545.903 207.983 548.195 210.622 Q550.486 213.238 554.63 213.238 Q556.482 213.238 558.287 212.752 Q560.116 212.242 561.922 211.247 L561.922 215.182 Q560.139 216.016 558.218 216.432 Q556.32 216.849 554.167 216.849 Q548.311 216.849 544.862 213.168 Q541.412 209.488 541.412 203.238 Q541.412 196.895 544.885 193.261 Q548.38 189.627 554.445 189.627 Q556.412 189.627 558.287 190.043 Q560.162 190.437 561.922 191.247 Z" fill="#000000" fill-rule="nonzero" fill-opacity="1" /><path clip-path="url(#clip650)" d="M573.542 182.891 L573.542 190.252 L582.315 190.252 L582.315 193.562 L573.542 193.562 L573.542 207.636 Q573.542 210.807 574.398 211.71 Q575.278 212.613 577.94 212.613 L582.315 212.613 L582.315 216.178 L577.94 216.178 Q573.01 216.178 571.135 214.349 Q569.26 212.497 569.26 207.636 L569.26 193.562 L566.135 193.562 L566.135 190.252 L569.26 190.252 L569.26 182.891 L573.542 182.891 Z" fill="#000000" fill-rule="nonzero" fill-opacity="1" /></svg>
