<?xml version="1.0" encoding="utf-8"?>
<svg xmlns="http://www.w3.org/2000/svg" xmlns:xlink="http://www.w3.org/1999/xlink" width="600" height="400" viewBox="0 0 2400 1600">
<defs>
  <clipPath id="clip570">
    <rect x="0" y="0" width="2400" height="1600"/>
  </clipPath>
</defs>
<path clip-path="url(#clip570)" d="M0 1600 L2400 1600 L2400 0 L0 0  Z" fill="#ffffff" fill-rule="evenodd" fill-opacity="1"/>
<defs>
  <clipPath id="clip571">
    <rect x="480" y="0" width="1681" height="1600"/>
  </clipPath>
</defs>
<path clip-path="url(#clip570)" d="M156.274 1486.45 L2352.76 1486.45 L2352.76 47.2441 L156.274 47.2441  Z" fill="#ffffff" fill-rule="evenodd" fill-opacity="1"/>
<defs>
  <clipPath id="clip572">
    <rect x="156" y="47" width="2197" height="1440"/>
  </clipPath>
</defs>
<polyline clip-path="url(#clip572)" style="stroke:#000000; stroke-linecap:round; stroke-linejoin:round; stroke-width:2; stroke-opacity:0.1; fill:none" points="218.439,1486.45 218.439,47.2441 "/>
<polyline clip-path="url(#clip572)" style="stroke:#000000; stroke-linecap:round; stroke-linejoin:round; stroke-width:2; stroke-opacity:0.1; fill:none" points="736.477,1486.45 736.477,47.2441 "/>
<polyline clip-path="url(#clip572)" style="stroke:#000000; stroke-linecap:round; stroke-linejoin:round; stroke-width:2; stroke-opacity:0.1; fill:none" points="1254.52,1486.45 1254.52,47.2441 "/>
<polyline clip-path="url(#clip572)" style="stroke:#000000; stroke-linecap:round; stroke-linejoin:round; stroke-width:2; stroke-opacity:0.1; fill:none" points="1772.55,1486.45 1772.55,47.2441 "/>
<polyline clip-path="url(#clip572)" style="stroke:#000000; stroke-linecap:round; stroke-linejoin:round; stroke-width:2; stroke-opacity:0.1; fill:none" points="2290.59,1486.45 2290.59,47.2441 "/>
<polyline clip-path="url(#clip570)" style="stroke:#000000; stroke-linecap:round; stroke-linejoin:round; stroke-width:4; stroke-opacity:1; fill:none" points="156.274,1486.45 2352.76,1486.45 "/>
<polyline clip-path="url(#clip570)" style="stroke:#000000; stroke-linecap:round; stroke-linejoin:round; stroke-width:4; stroke-opacity:1; fill:none" points="218.439,1486.45 218.439,1467.55 "/>
<polyline clip-path="url(#clip570)" style="stroke:#000000; stroke-linecap:round; stroke-linejoin:round; stroke-width:4; stroke-opacity:1; fill:none" points="736.477,1486.45 736.477,1467.55 "/>
<polyline clip-path="url(#clip570)" style="stroke:#000000; stroke-linecap:round; stroke-linejoin:round; stroke-width:4; stroke-opacity:1; fill:none" points="1254.52,1486.45 1254.52,1467.55 "/>
<polyline clip-path="url(#clip570)" style="stroke:#000000; stroke-linecap:round; stroke-linejoin:round; stroke-width:4; stroke-opacity:1; fill:none" points="1772.55,1486.45 1772.55,1467.55 "/>
<polyline clip-path="url(#clip570)" style="stroke:#000000; stroke-linecap:round; stroke-linejoin:round; stroke-width:4; stroke-opacity:1; fill:none" points="2290.59,1486.45 2290.59,1467.55 "/>
<path clip-path="url(#clip570)" d="M164.967 1532.02 L194.643 1532.02 L194.643 1535.95 L164.967 1535.95 L164.967 1532.02 Z" fill="#000000" fill-rule="nonzero" fill-opacity="1" /><path clip-path="url(#clip570)" d="M205.545 1544.91 L213.184 1544.91 L213.184 1518.55 L204.874 1520.21 L204.874 1515.95 L213.138 1514.29 L217.814 1514.29 L217.814 1544.91 L225.453 1544.91 L225.453 1548.85 L205.545 1548.85 L205.545 1544.91 Z" fill="#000000" fill-rule="nonzero" fill-opacity="1" /><path clip-path="url(#clip570)" d="M234.897 1542.97 L239.781 1542.97 L239.781 1548.85 L234.897 1548.85 L234.897 1542.97 Z" fill="#000000" fill-rule="nonzero" fill-opacity="1" /><path clip-path="url(#clip570)" d="M259.966 1517.37 Q256.355 1517.37 254.527 1520.93 Q252.721 1524.47 252.721 1531.6 Q252.721 1538.71 254.527 1542.27 Q256.355 1545.82 259.966 1545.82 Q263.601 1545.82 265.406 1542.27 Q267.235 1538.71 267.235 1531.6 Q267.235 1524.47 265.406 1520.93 Q263.601 1517.37 259.966 1517.37 M259.966 1513.66 Q265.776 1513.66 268.832 1518.27 Q271.911 1522.85 271.911 1531.6 Q271.911 1540.33 268.832 1544.94 Q265.776 1549.52 259.966 1549.52 Q254.156 1549.52 251.077 1544.94 Q248.022 1540.33 248.022 1531.6 Q248.022 1522.85 251.077 1518.27 Q254.156 1513.66 259.966 1513.66 Z" fill="#000000" fill-rule="nonzero" fill-opacity="1" /><path clip-path="url(#clip570)" d="M683.503 1532.02 L713.178 1532.02 L713.178 1535.95 L683.503 1535.95 L683.503 1532.02 Z" fill="#000000" fill-rule="nonzero" fill-opacity="1" /><path clip-path="url(#clip570)" d="M733.271 1517.37 Q729.66 1517.37 727.831 1520.93 Q726.026 1524.47 726.026 1531.6 Q726.026 1538.71 727.831 1542.27 Q729.66 1545.82 733.271 1545.82 Q736.905 1545.82 738.711 1542.27 Q740.539 1538.71 740.539 1531.6 Q740.539 1524.47 738.711 1520.93 Q736.905 1517.37 733.271 1517.37 M733.271 1513.66 Q739.081 1513.66 742.137 1518.27 Q745.215 1522.85 745.215 1531.6 Q745.215 1540.33 742.137 1544.94 Q739.081 1549.52 733.271 1549.52 Q727.461 1549.52 724.382 1544.94 Q721.327 1540.33 721.327 1531.6 Q721.327 1522.85 724.382 1518.27 Q727.461 1513.66 733.271 1513.66 Z" fill="#000000" fill-rule="nonzero" fill-opacity="1" /><path clip-path="url(#clip570)" d="M753.433 1542.97 L758.317 1542.97 L758.317 1548.85 L753.433 1548.85 L753.433 1542.97 Z" fill="#000000" fill-rule="nonzero" fill-opacity="1" /><path clip-path="url(#clip570)" d="M768.548 1514.29 L786.905 1514.29 L786.905 1518.22 L772.831 1518.22 L772.831 1526.7 Q773.849 1526.35 774.868 1526.19 Q775.886 1526 776.905 1526 Q782.692 1526 786.072 1529.17 Q789.451 1532.34 789.451 1537.76 Q789.451 1543.34 785.979 1546.44 Q782.507 1549.52 776.187 1549.52 Q774.011 1549.52 771.743 1549.15 Q769.498 1548.78 767.09 1548.04 L767.09 1543.34 Q769.173 1544.47 771.396 1545.03 Q773.618 1545.58 776.095 1545.58 Q780.099 1545.58 782.437 1543.48 Q784.775 1541.37 784.775 1537.76 Q784.775 1534.15 782.437 1532.04 Q780.099 1529.94 776.095 1529.94 Q774.22 1529.94 772.345 1530.35 Q770.493 1530.77 768.548 1531.65 L768.548 1514.29 Z" fill="#000000" fill-rule="nonzero" fill-opacity="1" /><path clip-path="url(#clip570)" d="M1231.9 1517.37 Q1228.29 1517.37 1226.46 1520.93 Q1224.65 1524.47 1224.65 1531.6 Q1224.65 1538.71 1226.46 1542.27 Q1228.29 1545.82 1231.9 1545.82 Q1235.53 1545.82 1237.34 1542.27 Q1239.17 1538.71 1239.17 1531.6 Q1239.17 1524.47 1237.34 1520.93 Q1235.53 1517.37 1231.9 1517.37 M1231.9 1513.66 Q1237.71 1513.66 1240.77 1518.27 Q1243.84 1522.85 1243.84 1531.6 Q1243.84 1540.33 1240.77 1544.94 Q1237.71 1549.52 1231.9 1549.52 Q1226.09 1549.52 1223.01 1544.94 Q1219.96 1540.33 1219.96 1531.6 Q1219.96 1522.85 1223.01 1518.27 Q1226.09 1513.66 1231.9 1513.66 Z" fill="#000000" fill-rule="nonzero" fill-opacity="1" /><path clip-path="url(#clip570)" d="M1252.06 1542.97 L1256.95 1542.97 L1256.95 1548.85 L1252.06 1548.85 L1252.06 1542.97 Z" fill="#000000" fill-rule="nonzero" fill-opacity="1" /><path clip-path="url(#clip570)" d="M1277.13 1517.37 Q1273.52 1517.37 1271.69 1520.93 Q1269.89 1524.47 1269.89 1531.6 Q1269.89 1538.71 1271.69 1542.27 Q1273.52 1545.82 1277.13 1545.82 Q1280.76 1545.82 1282.57 1542.27 Q1284.4 1538.71 1284.4 1531.6 Q1284.4 1524.47 1282.57 1520.93 Q1280.76 1517.37 1277.13 1517.37 M1277.13 1513.66 Q1282.94 1513.66 1286 1518.27 Q1289.08 1522.85 1289.08 1531.6 Q1289.08 1540.33 1286 1544.94 Q1282.94 1549.52 1277.13 1549.52 Q1271.32 1549.52 1268.24 1544.94 Q1265.19 1540.33 1265.19 1531.6 Q1265.19 1522.85 1268.24 1518.27 Q1271.32 1513.66 1277.13 1513.66 Z" fill="#000000" fill-rule="nonzero" fill-opacity="1" /><path clip-path="url(#clip570)" d="M1750.44 1517.37 Q1746.82 1517.37 1745 1520.93 Q1743.19 1524.47 1743.19 1531.6 Q1743.19 1538.71 1745 1542.27 Q1746.82 1545.82 1750.44 1545.82 Q1754.07 1545.82 1755.88 1542.27 Q1757.7 1538.71 1757.7 1531.6 Q1757.7 1524.47 1755.88 1520.93 Q1754.07 1517.37 1750.44 1517.37 M1750.44 1513.66 Q1756.25 1513.66 1759.3 1518.27 Q1762.38 1522.85 1762.38 1531.6 Q1762.38 1540.33 1759.3 1544.94 Q1756.25 1549.52 1750.44 1549.52 Q1744.63 1549.52 1741.55 1544.94 Q1738.49 1540.33 1738.49 1531.6 Q1738.49 1522.85 1741.55 1518.27 Q1744.63 1513.66 1750.44 1513.66 Z" fill="#000000" fill-rule="nonzero" fill-opacity="1" /><path clip-path="url(#clip570)" d="M1770.6 1542.97 L1775.48 1542.97 L1775.48 1548.85 L1770.6 1548.85 L1770.6 1542.97 Z" fill="#000000" fill-rule="nonzero" fill-opacity="1" /><path clip-path="url(#clip570)" d="M1785.71 1514.29 L1804.07 1514.29 L1804.07 1518.22 L1790 1518.22 L1790 1526.7 Q1791.01 1526.35 1792.03 1526.19 Q1793.05 1526 1794.07 1526 Q1799.86 1526 1803.24 1529.17 Q1806.62 1532.34 1806.62 1537.76 Q1806.62 1543.34 1803.14 1546.44 Q1799.67 1549.52 1793.35 1549.52 Q1791.18 1549.52 1788.91 1549.15 Q1786.66 1548.78 1784.25 1548.04 L1784.25 1543.34 Q1786.34 1544.47 1788.56 1545.03 Q1790.78 1545.58 1793.26 1545.58 Q1797.26 1545.58 1799.6 1543.48 Q1801.94 1541.37 1801.94 1537.76 Q1801.94 1534.15 1799.6 1532.04 Q1797.26 1529.94 1793.26 1529.94 Q1791.38 1529.94 1789.51 1530.35 Q1787.66 1530.77 1785.71 1531.65 L1785.71 1514.29 Z" fill="#000000" fill-rule="nonzero" fill-opacity="1" /><path clip-path="url(#clip570)" d="M2257.74 1544.91 L2265.38 1544.91 L2265.38 1518.55 L2257.07 1520.21 L2257.07 1515.95 L2265.34 1514.29 L2270.01 1514.29 L2270.01 1544.91 L2277.65 1544.91 L2277.65 1548.85 L2257.74 1548.85 L2257.74 1544.91 Z" fill="#000000" fill-rule="nonzero" fill-opacity="1" /><path clip-path="url(#clip570)" d="M2287.1 1542.97 L2291.98 1542.97 L2291.98 1548.85 L2287.1 1548.85 L2287.1 1542.97 Z" fill="#000000" fill-rule="nonzero" fill-opacity="1" /><path clip-path="url(#clip570)" d="M2312.17 1517.37 Q2308.55 1517.37 2306.73 1520.93 Q2304.92 1524.47 2304.92 1531.6 Q2304.92 1538.71 2306.73 1542.27 Q2308.55 1545.82 2312.17 1545.82 Q2315.8 1545.82 2317.61 1542.27 Q2319.43 1538.71 2319.43 1531.6 Q2319.43 1524.47 2317.61 1520.93 Q2315.8 1517.37 2312.17 1517.37 M2312.17 1513.66 Q2317.98 1513.66 2321.03 1518.27 Q2324.11 1522.85 2324.11 1531.6 Q2324.11 1540.33 2321.03 1544.94 Q2317.98 1549.52 2312.17 1549.52 Q2306.36 1549.52 2303.28 1544.94 Q2300.22 1540.33 2300.22 1531.6 Q2300.22 1522.85 2303.28 1518.27 Q2306.36 1513.66 2312.17 1513.66 Z" fill="#000000" fill-rule="nonzero" fill-opacity="1" /><polyline clip-path="url(#clip572)" style="stroke:#000000; stroke-linecap:round; stroke-linejoin:round; stroke-width:2; stroke-opacity:0.1; fill:none" points="156.274,1251.85 2352.76,1251.85 "/>
<polyline clip-path="url(#clip572)" style="stroke:#000000; stroke-linecap:round; stroke-linejoin:round; stroke-width:2; stroke-opacity:0.1; fill:none" points="156.274,978.707 2352.76,978.707 "/>
<polyline clip-path="url(#clip572)" style="stroke:#000000; stroke-linecap:round; stroke-linejoin:round; stroke-width:2; stroke-opacity:0.1; fill:none" points="156.274,705.565 2352.76,705.565 "/>
<polyline clip-path="url(#clip572)" style="stroke:#000000; stroke-linecap:round; stroke-linejoin:round; stroke-width:2; stroke-opacity:0.1; fill:none" points="156.274,432.423 2352.76,432.423 "/>
<polyline clip-path="url(#clip572)" style="stroke:#000000; stroke-linecap:round; stroke-linejoin:round; stroke-width:2; stroke-opacity:0.1; fill:none" points="156.274,159.28 2352.76,159.28 "/>
<polyline clip-path="url(#clip570)" style="stroke:#000000; stroke-linecap:round; stroke-linejoin:round; stroke-width:4; stroke-opacity:1; fill:none" points="156.274,1486.45 156.274,47.2441 "/>
<polyline clip-path="url(#clip570)" style="stroke:#000000; stroke-linecap:round; stroke-linejoin:round; stroke-width:4; stroke-opacity:1; fill:none" points="156.274,1251.85 175.172,1251.85 "/>
<polyline clip-path="url(#clip570)" style="stroke:#000000; stroke-linecap:round; stroke-linejoin:round; stroke-width:4; stroke-opacity:1; fill:none" points="156.274,978.707 175.172,978.707 "/>
<polyline clip-path="url(#clip570)" style="stroke:#000000; stroke-linecap:round; stroke-linejoin:round; stroke-width:4; stroke-opacity:1; fill:none" points="156.274,705.565 175.172,705.565 "/>
<polyline clip-path="url(#clip570)" style="stroke:#000000; stroke-linecap:round; stroke-linejoin:round; stroke-width:4; stroke-opacity:1; fill:none" points="156.274,432.423 175.172,432.423 "/>
<polyline clip-path="url(#clip570)" style="stroke:#000000; stroke-linecap:round; stroke-linejoin:round; stroke-width:4; stroke-opacity:1; fill:none" points="156.274,159.28 175.172,159.28 "/>
<path clip-path="url(#clip570)" d="M63.0985 1237.65 Q59.4875 1237.65 57.6588 1241.21 Q55.8532 1244.76 55.8532 1251.88 Q55.8532 1258.99 57.6588 1262.56 Q59.4875 1266.1 63.0985 1266.1 Q66.7328 1266.1 68.5383 1262.56 Q70.367 1258.99 70.367 1251.88 Q70.367 1244.76 68.5383 1241.21 Q66.7328 1237.65 63.0985 1237.65 M63.0985 1233.94 Q68.9087 1233.94 71.9642 1238.55 Q75.0429 1243.13 75.0429 1251.88 Q75.0429 1260.61 71.9642 1265.22 Q68.9087 1269.8 63.0985 1269.8 Q57.2884 1269.8 54.2097 1265.22 Q51.1542 1260.61 51.1542 1251.88 Q51.1542 1243.13 54.2097 1238.55 Q57.2884 1233.94 63.0985 1233.94 Z" fill="#000000" fill-rule="nonzero" fill-opacity="1" /><path clip-path="url(#clip570)" d="M83.2605 1263.25 L88.1447 1263.25 L88.1447 1269.13 L83.2605 1269.13 L83.2605 1263.25 Z" fill="#000000" fill-rule="nonzero" fill-opacity="1" /><path clip-path="url(#clip570)" d="M108.33 1237.65 Q104.719 1237.65 102.89 1241.21 Q101.084 1244.76 101.084 1251.88 Q101.084 1258.99 102.89 1262.56 Q104.719 1266.1 108.33 1266.1 Q111.964 1266.1 113.77 1262.56 Q115.598 1258.99 115.598 1251.88 Q115.598 1244.76 113.77 1241.21 Q111.964 1237.65 108.33 1237.65 M108.33 1233.94 Q114.14 1233.94 117.195 1238.55 Q120.274 1243.13 120.274 1251.88 Q120.274 1260.61 117.195 1265.22 Q114.14 1269.8 108.33 1269.8 Q102.52 1269.8 99.4409 1265.22 Q96.3854 1260.61 96.3854 1251.88 Q96.3854 1243.13 99.4409 1238.55 Q102.52 1233.94 108.33 1233.94 Z" fill="#000000" fill-rule="nonzero" fill-opacity="1" /><path clip-path="url(#clip570)" d="M63.7467 964.506 Q60.1356 964.506 58.3069 968.071 Q56.5014 971.613 56.5014 978.742 Q56.5014 985.849 58.3069 989.413 Q60.1356 992.955 63.7467 992.955 Q67.3809 992.955 69.1865 989.413 Q71.0152 985.849 71.0152 978.742 Q71.0152 971.613 69.1865 968.071 Q67.3809 964.506 63.7467 964.506 M63.7467 960.802 Q69.5568 960.802 72.6124 965.409 Q75.6911 969.992 75.6911 978.742 Q75.6911 987.469 72.6124 992.075 Q69.5568 996.659 63.7467 996.659 Q57.9365 996.659 54.8578 992.075 Q51.8023 987.469 51.8023 978.742 Q51.8023 969.992 54.8578 965.409 Q57.9365 960.802 63.7467 960.802 Z" fill="#000000" fill-rule="nonzero" fill-opacity="1" /><path clip-path="url(#clip570)" d="M83.9086 990.108 L88.7928 990.108 L88.7928 995.987 L83.9086 995.987 L83.9086 990.108 Z" fill="#000000" fill-rule="nonzero" fill-opacity="1" /><path clip-path="url(#clip570)" d="M113.145 977.353 Q116.501 978.071 118.376 980.339 Q120.274 982.608 120.274 985.941 Q120.274 991.057 116.756 993.858 Q113.237 996.659 106.756 996.659 Q104.58 996.659 102.265 996.219 Q99.9733 995.802 97.5197 994.946 L97.5197 990.432 Q99.4641 991.566 101.779 992.145 Q104.094 992.724 106.617 992.724 Q111.015 992.724 113.307 990.987 Q115.621 989.251 115.621 985.941 Q115.621 982.886 113.469 981.173 Q111.339 979.437 107.52 979.437 L103.492 979.437 L103.492 975.594 L107.705 975.594 Q111.154 975.594 112.983 974.228 Q114.811 972.839 114.811 970.247 Q114.811 967.585 112.913 966.173 Q111.038 964.738 107.52 964.738 Q105.598 964.738 103.399 965.154 Q101.2 965.571 98.5613 966.451 L98.5613 962.284 Q101.223 961.543 103.538 961.173 Q105.876 960.802 107.936 960.802 Q113.26 960.802 116.362 963.233 Q119.464 965.64 119.464 969.761 Q119.464 972.631 117.82 974.622 Q116.177 976.589 113.145 977.353 Z" fill="#000000" fill-rule="nonzero" fill-opacity="1" /><path clip-path="url(#clip570)" d="M62.9365 691.364 Q59.3254 691.364 57.4967 694.928 Q55.6912 698.47 55.6912 705.6 Q55.6912 712.706 57.4967 716.271 Q59.3254 719.813 62.9365 719.813 Q66.5707 719.813 68.3763 716.271 Q70.205 712.706 70.205 705.6 Q70.205 698.47 68.3763 694.928 Q66.5707 691.364 62.9365 691.364 M62.9365 687.66 Q68.7467 687.66 71.8022 692.266 Q74.8809 696.85 74.8809 705.6 Q74.8809 714.327 71.8022 718.933 Q68.7467 723.516 62.9365 723.516 Q57.1264 723.516 54.0477 718.933 Q50.9921 714.327 50.9921 705.6 Q50.9921 696.85 54.0477 692.266 Q57.1264 687.66 62.9365 687.66 Z" fill="#000000" fill-rule="nonzero" fill-opacity="1" /><path clip-path="url(#clip570)" d="M83.0984 716.965 L87.9827 716.965 L87.9827 722.845 L83.0984 722.845 L83.0984 716.965 Z" fill="#000000" fill-rule="nonzero" fill-opacity="1" /><path clip-path="url(#clip570)" d="M108.746 703.702 Q105.598 703.702 103.746 705.854 Q101.918 708.007 101.918 711.757 Q101.918 715.484 103.746 717.66 Q105.598 719.813 108.746 719.813 Q111.895 719.813 113.723 717.66 Q115.575 715.484 115.575 711.757 Q115.575 708.007 113.723 705.854 Q111.895 703.702 108.746 703.702 M118.029 689.049 L118.029 693.308 Q116.27 692.475 114.464 692.035 Q112.682 691.595 110.922 691.595 Q106.293 691.595 103.839 694.72 Q101.409 697.845 101.061 704.165 Q102.427 702.151 104.487 701.086 Q106.547 699.998 109.024 699.998 Q114.233 699.998 117.242 703.169 Q120.274 706.317 120.274 711.757 Q120.274 717.081 117.126 720.299 Q113.978 723.516 108.746 723.516 Q102.751 723.516 99.5798 718.933 Q96.4085 714.327 96.4085 705.6 Q96.4085 697.405 100.297 692.544 Q104.186 687.66 110.737 687.66 Q112.496 687.66 114.279 688.007 Q116.084 688.354 118.029 689.049 Z" fill="#000000" fill-rule="nonzero" fill-opacity="1" /><path clip-path="url(#clip570)" d="M63.2837 418.221 Q59.6726 418.221 57.8439 421.786 Q56.0384 425.328 56.0384 432.457 Q56.0384 439.564 57.8439 443.128 Q59.6726 446.67 63.2837 446.67 Q66.918 446.67 68.7235 443.128 Q70.5522 439.564 70.5522 432.457 Q70.5522 425.328 68.7235 421.786 Q66.918 418.221 63.2837 418.221 M63.2837 414.518 Q69.0939 414.518 72.1494 419.124 Q75.2281 423.707 75.2281 432.457 Q75.2281 441.184 72.1494 445.79 Q69.0939 450.374 63.2837 450.374 Q57.4736 450.374 54.3949 445.79 Q51.3393 441.184 51.3393 432.457 Q51.3393 423.707 54.3949 419.124 Q57.4736 414.518 63.2837 414.518 Z" fill="#000000" fill-rule="nonzero" fill-opacity="1" /><path clip-path="url(#clip570)" d="M83.4457 443.823 L88.3299 443.823 L88.3299 449.703 L83.4457 449.703 L83.4457 443.823 Z" fill="#000000" fill-rule="nonzero" fill-opacity="1" /><path clip-path="url(#clip570)" d="M98.6539 448.985 L98.6539 444.726 Q100.413 445.559 102.219 445.999 Q104.024 446.439 105.76 446.439 Q110.39 446.439 112.82 443.337 Q115.274 440.212 115.621 433.869 Q114.279 435.86 112.219 436.925 Q110.158 437.99 107.658 437.99 Q102.473 437.99 99.4409 434.865 Q96.4317 431.716 96.4317 426.277 Q96.4317 420.953 99.5798 417.735 Q102.728 414.518 107.959 414.518 Q113.955 414.518 117.103 419.124 Q120.274 423.707 120.274 432.457 Q120.274 440.628 116.385 445.513 Q112.52 450.374 105.969 450.374 Q104.209 450.374 102.404 450.027 Q100.598 449.679 98.6539 448.985 M107.959 434.332 Q111.108 434.332 112.936 432.179 Q114.788 430.027 114.788 426.277 Q114.788 422.55 112.936 420.397 Q111.108 418.221 107.959 418.221 Q104.811 418.221 102.959 420.397 Q101.131 422.55 101.131 426.277 Q101.131 430.027 102.959 432.179 Q104.811 434.332 107.959 434.332 Z" fill="#000000" fill-rule="nonzero" fill-opacity="1" /><path clip-path="url(#clip570)" d="M55.506 172.625 L63.1448 172.625 L63.1448 146.259 L54.8347 147.926 L54.8347 143.667 L63.0985 142 L67.7744 142 L67.7744 172.625 L75.4133 172.625 L75.4133 176.56 L55.506 176.56 L55.506 172.625 Z" fill="#000000" fill-rule="nonzero" fill-opacity="1" /><path clip-path="url(#clip570)" d="M84.8577 170.68 L89.7419 170.68 L89.7419 176.56 L84.8577 176.56 L84.8577 170.68 Z" fill="#000000" fill-rule="nonzero" fill-opacity="1" /><path clip-path="url(#clip570)" d="M103.955 172.625 L120.274 172.625 L120.274 176.56 L98.3298 176.56 L98.3298 172.625 Q100.992 169.87 105.575 165.241 Q110.182 160.588 111.362 159.245 Q113.608 156.722 114.487 154.986 Q115.39 153.227 115.39 151.537 Q115.39 148.782 113.445 147.046 Q111.524 145.31 108.422 145.31 Q106.223 145.31 103.77 146.074 Q101.339 146.838 98.5613 148.389 L98.5613 143.667 Q101.385 142.532 103.839 141.954 Q106.293 141.375 108.33 141.375 Q113.7 141.375 116.895 144.06 Q120.089 146.745 120.089 151.236 Q120.089 153.366 119.279 155.287 Q118.492 157.185 116.385 159.778 Q115.807 160.449 112.705 163.667 Q109.603 166.861 103.955 172.625 Z" fill="#000000" fill-rule="nonzero" fill-opacity="1" /><polyline clip-path="url(#clip572)" style="stroke:#009af9; stroke-linecap:round; stroke-linejoin:round; stroke-width:16; stroke-opacity:1; fill:none" stroke-dasharray="8, 16" points="218.439,1115.09 228.852,1096.87 239.264,1083.67 249.677,1074.74 260.09,1069.91 270.503,1070.15 280.916,1077.26 291.329,1092.51 301.741,1115.21 312.154,1142.66 322.567,1171.73 332.98,1200.86 343.393,1230.32 353.805,1261 364.218,1292.88 374.631,1324.72 385.044,1354.72 395.457,1381.21 405.87,1402.92 416.282,1418.96 426.695,1428.87 437.108,1432.71 447.521,1431 457.934,1424.35 468.347,1412.97 478.759,1396.56 489.172,1374.86 499.585,1348.19 509.998,1317.78 520.411,1285.33 530.824,1252.38 541.236,1219.9 551.649,1188.49 562.062,1158.81 572.475,1131.9 582.888,1108.98 593.301,1091.05 603.713,1078.63 614.126,1071.84 624.539,1070.62 634.952,1074.98 645.365,1084.96 655.777,1100.52 666.19,1121.27 676.603,1146.49 687.016,1175.17 697.429,1206.28 707.842,1238.77 718.254,1271.65 728.667,1303.82 739.08,1334.21 749.493,1361.88 759.906,1386.12 770.319,1406.37 780.731,1421.97 791.144,1431.94 801.557,1435.19 811.97,1431.23 822.383,1420.86 832.796,1405.91 843.208,1387.87 853.621,1366.77 864.034,1341.6 874.447,1311.8 884.86,1278.45 895.273,1244.21 905.685,1212.17 916.098,1183.88 926.511,1157.02 936.924,1126.09 947.337,1090.53 957.749,1061.44 968.162,1053.82 978.575,1068.08 988.988,1086.48 999.401,1095.81 1009.81,1099.8 1020.23,1107.37 1030.64,1122.72 1041.05,1146.51 1051.46,1178.11 1061.88,1214.01 1072.29,1248.14 1082.7,1277.38 1093.12,1305.47 1103.53,1339.12 1113.94,1379.07 1124.35,1414.75 1134.77,1432.22 1145.18,1430.45 1155.59,1421.8 1166.01,1415.16 1176.42,1411 1186.83,1411.4 1197.24,1422.26 1207.66,1442.02 1218.07,1445.72 1228.48,1383.26 1238.9,1211.38 1249.31,940.202 1259.72,643.83 1270.13,414.329 1280.55,299.452 1290.96,282.495 1301.37,312.429 1311.79,345.296 1322.2,363.091 1332.61,365.269 1343.02,354.25 1353.44,334.259 1363.85,316.323 1374.26,311.978 1384.68,318.72 1395.09,327.264 1405.5,340.772 1415.91,363.108 1426.33,384.773 1436.74,392.697 1447.15,381.389 1457.57,353.871 1467.98,319.531 1478.39,293.083 1488.8,286.389 1499.22,298.387 1509.63,317.951 1520.04,336.659 1530.45,357.504 1540.87,387.225 1551.28,414.929 1561.69,418.421 1572.11,397.046 1582.52,360.091 1592.93,313.03 1603.34,269.647 1613.76,247.387 1624.17,255.257 1634.58,290.22 1645,340.263 1655.41,390.22 1665.82,426.895 1676.23,441.533 1686.65,430.581 1697.06,395.645 1707.47,343.193 1717.89,284.719 1728.3,236.431 1738.71,215.738 1749.12,233.616 1759.54,287.425 1769.95,360.751 1780.36,430.655 1790.78,476.255 1801.19,484.032 1811.6,450.209 1822.01,381.928 1832.43,297.031 1842.84,220.768 1853.25,178.521 1863.67,186.191 1874.08,242.769 1884.49,329.933 1894.9,419.523 1905.32,484.612 1915.73,508.46 1926.14,488 1936.56,430.816 1946.97,347.374 1957.38,248.297 1967.79,157.094 1978.21,117.142 1988.62,159.559 1999.03,266.838 2009.45,389.166 2019.86,485.577 2030.27,538.318 2040.68,543.619 2051.1,502.346 2061.51,418.737 2071.92,305.737 2082.33,191.788 2092.75,117.23 2103.16,112.911 2113.57,178.783 2123.99,287.557 2134.4,405.551 2144.81,505.325 2155.22,565.464 2165.64,568.384 2176.05,503.431 2186.46,378.359 2196.88,234.507 2207.29,137.953 2217.7,128.279 2228.11,184.367 2238.53,261.332 2248.94,335.093 2259.35,401.524 2269.77,461.553 2280.18,516.428 2290.59,567.883 "/>
<polyline clip-path="url(#clip572)" style="stroke:#e26f46; stroke-linecap:round; stroke-linejoin:round; stroke-width:4; stroke-opacity:1; fill:none" points="218.439,1115.1 228.852,1095.7 239.264,1081.39 249.677,1072.65 260.09,1069.76 270.503,1072.8 280.916,1081.7 291.329,1096.14 301.741,1115.67 312.154,1139.64 322.567,1167.28 332.98,1197.67 343.393,1229.84 353.805,1262.72 364.218,1295.25 374.631,1326.36 385.044,1355.03 395.457,1380.35 405.87,1401.46 416.282,1417.7 426.695,1428.52 437.108,1433.57 447.521,1432.7 457.934,1425.92 468.347,1413.46 478.759,1395.73 489.172,1373.3 499.585,1346.91 509.998,1317.41 520.411,1285.77 530.824,1253.03 541.236,1220.25 551.649,1188.5 562.062,1158.82 572.475,1132.17 582.888,1109.43 593.301,1091.34 603.713,1078.49 614.126,1071.29 624.539,1069.99 634.952,1074.62 645.365,1085.04 655.777,1100.9 666.19,1121.69 676.603,1146.73 687.016,1175.19 697.429,1206.16 707.842,1238.62 718.254,1271.51 728.667,1303.76 739.08,1334.32 749.493,1362.18 759.906,1386.45 770.319,1406.32 780.731,1421.15 791.144,1430.45 801.557,1433.92 811.97,1431.46 822.383,1423.13 832.796,1409.21 843.208,1390.15 853.621,1366.58 864.034,1339.27 874.447,1309.1 884.86,1277.07 895.273,1244.21 905.685,1211.6 916.098,1180.3 926.511,1151.34 936.924,1125.66 947.337,1104.1 957.749,1087.36 968.162,1075.99 978.575,1070.36 988.988,1070.65 999.401,1076.86 1009.81,1088.77 1020.23,1106.01 1030.64,1128.01 1041.05,1154.05 1051.46,1183.29 1061.88,1214.76 1072.29,1247.44 1082.7,1280.26 1093.12,1312.16 1103.53,1342.09 1113.94,1369.07 1124.35,1392.23 1134.77,1410.81 1145.18,1424.2 1155.59,1431.96 1166.01,1433.85 1176.42,1429.79 1186.83,1419.93 1197.24,1404.58 1207.66,1384.25 1218.07,1359.6 1228.48,1331.43 1238.9,1300.66 1249.31,1268.3 1259.72,340.053 1270.13,338.548 1280.55,339.917 1290.96,344.477 1301.37,350.828 1311.79,356.288 1322.2,357.905 1332.61,353.704 1343.02,343.689 1353.44,330.187 1363.85,317.339 1374.26,309.834 1384.68,311.273 1395.09,322.725 1405.5,341.987 1415.91,363.908 1426.33,381.759 1436.74,389.288 1447.15,382.843 1457.57,362.843 1467.98,334.077 1478.39,304.596 1488.8,283.467 1499.22,277.993 1509.63,291.262 1520.04,320.824 1530.45,359.002 1540.87,394.865 1551.28,417.358 1561.69,418.69 1572.11,396.96 1582.52,357.135 1592.93,309.994 1603.34,269.216 1613.76,247.417 1624.17,252.264 1634.58,283.867 1645,334.319 1655.41,389.628 1665.82,433.592 1676.23,452.547 1686.65,439.585 1697.06,396.963 1707.47,335.872 1717.89,273.531 1728.3,228.329 1738.71,214.408 1749.12,237.267 1759.54,291.752 1769.95,363.129 1780.36,431.053 1790.78,475.368 1801.19,482.08 1811.6,447.743 1822.01,380.883 1832.43,299.934 1842.84,228.166 1853.25,186.993 1863.67,189.596 1874.08,236.744 1884.49,316.137 1894.9,405.586 1905.32,479.205 1915.73,514.903 1926.14,501.002 1936.56,440.001 1946.97,348.286 1957.38,251.751 1967.79,178.491 1978.21,150.623 1988.62,177.629 1999.03,253.204 2009.45,356.65 2019.86,458.534 2030.27,529.057 2040.68,546.771 2051.1,505.079 2061.51,414.566 2071.92,300.356 2082.33,195.151 2092.75,129.863 2103.16,124.537 2113.57,182.225 2123.99,287.666 2134.4,411.298 2144.81,517.541 2155.22,575.03 2165.64,565.876 2176.05,491.198 2186.46,371.232 2196.88,239.87 2207.29,135.091 2217.7,87.9763 2228.11,113.5 2238.53,205.816 2248.94,339.505 2259.35,476.567 2269.77,577.218 2280.18,611.432 2290.59,567.895 "/>
<path clip-path="url(#clip570)" d="M229.49 250.738 L675.966 250.738 L675.966 95.2176 L229.49 95.2176  Z" fill="#ffffff" fill-rule="evenodd" fill-opacity="1"/>
<polyline clip-path="url(#clip570)" style="stroke:#000000; stroke-linecap:round; stroke-linejoin:round; stroke-width:4; stroke-opacity:1; fill:none" points="229.49,250.738 675.966,250.738 675.966,95.2176 229.49,95.2176 229.49,250.738 "/>
<polyline clip-path="url(#clip570)" style="stroke:#009af9; stroke-linecap:round; stroke-linejoin:round; stroke-width:16; stroke-opacity:1; fill:none" stroke-dasharray="8, 16" points="253.896,147.058 400.328,147.058 "/>
<path clip-path="url(#clip570)" d="M429.409 133.62 L429.409 146.606 L435.289 146.606 Q438.552 146.606 440.335 144.916 Q442.117 143.227 442.117 140.102 Q442.117 137 440.335 135.31 Q438.552 133.62 435.289 133.62 L429.409 133.62 M424.733 129.778 L435.289 129.778 Q441.099 129.778 444.062 132.416 Q447.048 135.032 447.048 140.102 Q447.048 145.217 444.062 147.833 Q441.099 150.449 435.289 150.449 L429.409 150.449 L429.409 164.338 L424.733 164.338 L424.733 129.778 Z" fill="#000000" fill-rule="nonzero" fill-opacity="1" /><path clip-path="url(#clip570)" d="M467.325 142.393 Q466.608 141.977 465.751 141.791 Q464.918 141.583 463.899 141.583 Q460.288 141.583 458.344 143.944 Q456.423 146.282 456.423 150.68 L456.423 164.338 L452.14 164.338 L452.14 138.412 L456.423 138.412 L456.423 142.44 Q457.765 140.078 459.918 138.944 Q462.071 137.787 465.149 137.787 Q465.589 137.787 466.122 137.856 Q466.654 137.903 467.302 138.018 L467.325 142.393 Z" fill="#000000" fill-rule="nonzero" fill-opacity="1" /><path clip-path="url(#clip570)" d="M492.927 150.31 L492.927 152.393 L473.344 152.393 Q473.622 156.791 475.983 159.106 Q478.367 161.398 482.603 161.398 Q485.057 161.398 487.348 160.796 Q489.663 160.194 491.932 158.99 L491.932 163.018 Q489.64 163.99 487.233 164.5 Q484.825 165.009 482.348 165.009 Q476.145 165.009 472.511 161.398 Q468.899 157.787 468.899 151.629 Q468.899 145.264 472.325 141.537 Q475.774 137.787 481.608 137.787 Q486.839 137.787 489.872 141.166 Q492.927 144.523 492.927 150.31 M488.668 149.06 Q488.622 145.565 486.7 143.481 Q484.802 141.398 481.654 141.398 Q478.089 141.398 475.936 143.412 Q473.807 145.426 473.483 149.083 L488.668 149.06 Z" fill="#000000" fill-rule="nonzero" fill-opacity="1" /><path clip-path="url(#clip570)" d="M516.978 142.347 L516.978 128.319 L521.237 128.319 L521.237 164.338 L516.978 164.338 L516.978 160.449 Q515.635 162.763 513.575 163.898 Q511.538 165.009 508.668 165.009 Q503.969 165.009 501.006 161.259 Q498.066 157.509 498.066 151.398 Q498.066 145.287 501.006 141.537 Q503.969 137.787 508.668 137.787 Q511.538 137.787 513.575 138.921 Q515.635 140.032 516.978 142.347 M502.464 151.398 Q502.464 156.097 504.385 158.782 Q506.33 161.444 509.709 161.444 Q513.089 161.444 515.033 158.782 Q516.978 156.097 516.978 151.398 Q516.978 146.699 515.033 144.037 Q513.089 141.352 509.709 141.352 Q506.33 141.352 504.385 144.037 Q502.464 146.699 502.464 151.398 Z" fill="#000000" fill-rule="nonzero" fill-opacity="1" /><path clip-path="url(#clip570)" d="M530.01 138.412 L534.269 138.412 L534.269 164.338 L530.01 164.338 L530.01 138.412 M530.01 128.319 L534.269 128.319 L534.269 133.713 L530.01 133.713 L530.01 128.319 Z" fill="#000000" fill-rule="nonzero" fill-opacity="1" /><path clip-path="url(#clip570)" d="M561.839 139.407 L561.839 143.389 Q560.033 142.393 558.205 141.907 Q556.399 141.398 554.547 141.398 Q550.404 141.398 548.112 144.037 Q545.82 146.652 545.82 151.398 Q545.82 156.143 548.112 158.782 Q550.404 161.398 554.547 161.398 Q556.399 161.398 558.205 160.912 Q560.033 160.402 561.839 159.407 L561.839 163.342 Q560.056 164.176 558.135 164.592 Q556.237 165.009 554.084 165.009 Q548.228 165.009 544.779 161.328 Q541.33 157.648 541.33 151.398 Q541.33 145.055 544.802 141.421 Q548.297 137.787 554.362 137.787 Q556.33 137.787 558.205 138.203 Q560.08 138.597 561.839 139.407 Z" fill="#000000" fill-rule="nonzero" fill-opacity="1" /><path clip-path="url(#clip570)" d="M573.459 131.051 L573.459 138.412 L582.232 138.412 L582.232 141.722 L573.459 141.722 L573.459 155.796 Q573.459 158.967 574.316 159.87 Q575.195 160.773 577.857 160.773 L582.232 160.773 L582.232 164.338 L577.857 164.338 Q572.927 164.338 571.052 162.509 Q569.177 160.657 569.177 155.796 L569.177 141.722 L566.052 141.722 L566.052 138.412 L569.177 138.412 L569.177 131.051 L573.459 131.051 Z" fill="#000000" fill-rule="nonzero" fill-opacity="1" /><path clip-path="url(#clip570)" d="M587.834 138.412 L592.093 138.412 L592.093 164.338 L587.834 164.338 L587.834 138.412 M587.834 128.319 L592.093 128.319 L592.093 133.713 L587.834 133.713 L587.834 128.319 Z" fill="#000000" fill-rule="nonzero" fill-opacity="1" /><path clip-path="url(#clip570)" d="M611.051 141.398 Q607.626 141.398 605.635 144.083 Q603.644 146.745 603.644 151.398 Q603.644 156.051 605.612 158.736 Q607.602 161.398 611.051 161.398 Q614.454 161.398 616.445 158.713 Q618.436 156.027 618.436 151.398 Q618.436 146.791 616.445 144.106 Q614.454 141.398 611.051 141.398 M611.051 137.787 Q616.607 137.787 619.778 141.398 Q622.95 145.009 622.95 151.398 Q622.95 157.764 619.778 161.398 Q616.607 165.009 611.051 165.009 Q605.473 165.009 602.302 161.398 Q599.153 157.764 599.153 151.398 Q599.153 145.009 602.302 141.398 Q605.473 137.787 611.051 137.787 Z" fill="#000000" fill-rule="nonzero" fill-opacity="1" /><path clip-path="url(#clip570)" d="M651.561 148.689 L651.561 164.338 L647.301 164.338 L647.301 148.828 Q647.301 145.148 645.866 143.319 Q644.431 141.49 641.561 141.49 Q638.112 141.49 636.121 143.69 Q634.13 145.889 634.13 149.685 L634.13 164.338 L629.848 164.338 L629.848 138.412 L634.13 138.412 L634.13 142.44 Q635.658 140.102 637.718 138.944 Q639.801 137.787 642.51 137.787 Q646.977 137.787 649.269 140.565 Q651.561 143.319 651.561 148.689 Z" fill="#000000" fill-rule="nonzero" fill-opacity="1" /><polyline clip-path="url(#clip570)" style="stroke:#e26f46; stroke-linecap:round; stroke-linejoin:round; stroke-width:4; stroke-opacity:1; fill:none" points="253.896,198.898 400.328,198.898 "/>
<path clip-path="url(#clip570)" d="M424.733 181.618 L446.585 181.618 L446.585 185.553 L429.409 185.553 L429.409 195.784 L445.867 195.784 L445.867 199.719 L429.409 199.719 L429.409 212.242 L447.001 212.242 L447.001 216.178 L424.733 216.178 L424.733 181.618 Z" fill="#000000" fill-rule="nonzero" fill-opacity="1" /><path clip-path="url(#clip570)" d="M476.052 190.252 L466.677 202.867 L476.538 216.178 L471.515 216.178 L463.969 205.992 L456.423 216.178 L451.4 216.178 L461.469 202.613 L452.256 190.252 L457.279 190.252 L464.154 199.488 L471.029 190.252 L476.052 190.252 Z" fill="#000000" fill-rule="nonzero" fill-opacity="1" /><path clip-path="url(#clip570)" d="M494.339 203.145 Q489.177 203.145 487.186 204.326 Q485.196 205.506 485.196 208.354 Q485.196 210.622 486.677 211.965 Q488.182 213.284 490.751 213.284 Q494.293 213.284 496.422 210.784 Q498.575 208.261 498.575 204.094 L498.575 203.145 L494.339 203.145 M502.834 201.386 L502.834 216.178 L498.575 216.178 L498.575 212.242 Q497.117 214.603 494.941 215.738 Q492.765 216.849 489.617 216.849 Q485.635 216.849 483.274 214.627 Q480.936 212.381 480.936 208.631 Q480.936 204.256 483.853 202.034 Q486.793 199.812 492.603 199.812 L498.575 199.812 L498.575 199.395 Q498.575 196.455 496.631 194.858 Q494.71 193.238 491.214 193.238 Q488.992 193.238 486.885 193.77 Q484.779 194.303 482.835 195.367 L482.835 191.432 Q485.173 190.53 487.372 190.09 Q489.571 189.627 491.654 189.627 Q497.279 189.627 500.057 192.543 Q502.834 195.46 502.834 201.386 Z" fill="#000000" fill-rule="nonzero" fill-opacity="1" /><path clip-path="url(#clip570)" d="M530.265 191.247 L530.265 195.229 Q528.459 194.233 526.631 193.747 Q524.825 193.238 522.973 193.238 Q518.83 193.238 516.538 195.877 Q514.246 198.492 514.246 203.238 Q514.246 207.983 516.538 210.622 Q518.83 213.238 522.973 213.238 Q524.825 213.238 526.631 212.752 Q528.459 212.242 530.265 211.247 L530.265 215.182 Q528.482 216.016 526.561 216.432 Q524.663 216.849 522.51 216.849 Q516.654 216.849 513.205 213.168 Q509.756 209.488 509.756 203.238 Q509.756 196.895 513.228 193.261 Q516.723 189.627 522.788 189.627 Q524.756 189.627 526.631 190.043 Q528.506 190.437 530.265 191.247 Z" fill="#000000" fill-rule="nonzero" fill-opacity="1" /><path clip-path="url(#clip570)" d="M541.885 182.891 L541.885 190.252 L550.658 190.252 L550.658 193.562 L541.885 193.562 L541.885 207.636 Q541.885 210.807 542.742 211.71 Q543.621 212.613 546.283 212.613 L550.658 212.613 L550.658 216.178 L546.283 216.178 Q541.353 216.178 539.478 214.349 Q537.603 212.497 537.603 207.636 L537.603 193.562 L534.478 193.562 L534.478 190.252 L537.603 190.252 L537.603 182.891 L541.885 182.891 Z" fill="#000000" fill-rule="nonzero" fill-opacity="1" /></svg>
