<?xml version="1.0" encoding="utf-8"?>
<svg xmlns="http://www.w3.org/2000/svg" xmlns:xlink="http://www.w3.org/1999/xlink" width="600" height="400" viewBox="0 0 2400 1600">
<defs>
  <clipPath id="clip540">
    <rect x="0" y="0" width="2400" height="1600"/>
  </clipPath>
</defs>
<path clip-path="url(#clip540)" d="M0 1600 L2400 1600 L2400 0 L0 0  Z" fill="#ffffff" fill-rule="evenodd" fill-opacity="1"/>
<defs>
  <clipPath id="clip541">
    <rect x="480" y="0" width="1681" height="1600"/>
  </clipPath>
</defs>
<path clip-path="url(#clip540)" d="M156.274 1486.45 L2352.76 1486.45 L2352.76 47.2441 L156.274 47.2441  Z" fill="#ffffff" fill-rule="evenodd" fill-opacity="1"/>
<defs>
  <clipPath id="clip542">
    <rect x="156" y="47" width="2197" height="1440"/>
  </clipPath>
</defs>
<polyline clip-path="url(#clip542)" style="stroke:#000000; stroke-linecap:round; stroke-linejoin:round; stroke-width:2; stroke-opacity:0.1; fill:none" points="218.439,1486.45 218.439,47.2441 "/>
<polyline clip-path="url(#clip542)" style="stroke:#000000; stroke-linecap:round; stroke-linejoin:round; stroke-width:2; stroke-opacity:0.1; fill:none" points="736.477,1486.45 736.477,47.2441 "/>
<polyline clip-path="url(#clip542)" style="stroke:#000000; stroke-linecap:round; stroke-linejoin:round; stroke-width:2; stroke-opacity:0.1; fill:none" points="1254.52,1486.45 1254.52,47.2441 "/>
<polyline clip-path="url(#clip542)" style="stroke:#000000; stroke-linecap:round; stroke-linejoin:round; stroke-width:2; stroke-opacity:0.1; fill:none" points="1772.55,1486.45 1772.55,47.2441 "/>
<polyline clip-path="url(#clip542)" style="stroke:#000000; stroke-linecap:round; stroke-linejoin:round; stroke-width:2; stroke-opacity:0.1; fill:none" points="2290.59,1486.45 2290.59,47.2441 "/>
<polyline clip-path="url(#clip540)" style="stroke:#000000; stroke-linecap:round; stroke-linejoin:round; stroke-width:4; stroke-opacity:1; fill:none" points="156.274,1486.45 2352.76,1486.45 "/>
<polyline clip-path="url(#clip540)" style="stroke:#000000; stroke-linecap:round; stroke-linejoin:round; stroke-width:4; stroke-opacity:1; fill:none" points="218.439,1486.45 218.439,1467.55 "/>
<polyline clip-path="url(#clip540)" style="stroke:#000000; stroke-linecap:round; stroke-linejoin:round; stroke-width:4; stroke-opacity:1; fill:none" points="736.477,1486.45 736.477,1467.55 "/>
<polyline clip-path="url(#clip540)" style="stroke:#000000; stroke-linecap:round; stroke-linejoin:round; stroke-width:4; stroke-opacity:1; fill:none" points="1254.52,1486.45 1254.52,1467.55 "/>
<polyline clip-path="url(#clip540)" style="stroke:#000000; stroke-linecap:round; stroke-linejoin:round; stroke-width:4; stroke-opacity:1; fill:none" points="1772.55,1486.45 1772.55,1467.55 "/>
<polyline clip-path="url(#clip540)" style="stroke:#000000; stroke-linecap:round; stroke-linejoin:round; stroke-width:4; stroke-opacity:1; fill:none" points="2290.59,1486.45 2290.59,1467.55 "/>
<path clip-path="url(#clip540)" d="M164.967 1532.02 L194.643 1532.02 L194.643 1535.95 L164.967 1535.95 L164.967 1532.02 Z" fill="#000000" fill-rule="nonzero" fill-opacity="1" /><path clip-path="url(#clip540)" d="M205.545 1544.91 L213.184 1544.91 L213.184 1518.55 L204.874 1520.21 L204.874 1515.95 L213.138 1514.29 L217.814 1514.29 L217.814 1544.91 L225.453 1544.91 L225.453 1548.85 L205.545 1548.85 L205.545 1544.91 Z" fill="#000000" fill-rule="nonzero" fill-opacity="1" /><path clip-path="url(#clip540)" d="M234.897 1542.97 L239.781 1542.97 L239.781 1548.85 L234.897 1548.85 L234.897 1542.97 Z" fill="#000000" fill-rule="nonzero" fill-opacity="1" /><path clip-path="url(#clip540)" d="M259.966 1517.37 Q256.355 1517.37 254.527 1520.93 Q252.721 1524.47 252.721 1531.6 Q252.721 1538.71 254.527 1542.27 Q256.355 1545.82 259.966 1545.82 Q263.601 1545.82 265.406 1542.27 Q267.235 1538.71 267.235 1531.6 Q267.235 1524.47 265.406 1520.93 Q263.601 1517.37 259.966 1517.37 M259.966 1513.66 Q265.776 1513.66 268.832 1518.27 Q271.911 1522.85 271.911 1531.6 Q271.911 1540.33 268.832 1544.94 Q265.776 1549.52 259.966 1549.52 Q254.156 1549.52 251.077 1544.94 Q248.022 1540.33 248.022 1531.6 Q248.022 1522.85 251.077 1518.27 Q254.156 1513.66 259.966 1513.66 Z" fill="#000000" fill-rule="nonzero" fill-opacity="1" /><path clip-path="url(#clip540)" d="M683.503 1532.02 L713.178 1532.02 L713.178 1535.95 L683.503 1535.95 L683.503 1532.02 Z" fill="#000000" fill-rule="nonzero" fill-opacity="1" /><path clip-path="url(#clip540)" d="M733.271 1517.37 Q729.66 1517.37 727.831 1520.93 Q726.026 1524.47 726.026 1531.6 Q726.026 1538.71 727.831 1542.27 Q729.66 1545.82 733.271 1545.82 Q736.905 1545.82 738.711 1542.27 Q740.539 1538.71 740.539 1531.6 Q740.539 1524.47 738.711 1520.93 Q736.905 1517.37 733.271 1517.37 M733.271 1513.66 Q739.081 1513.66 742.137 1518.27 Q745.215 1522.85 745.215 1531.6 Q745.215 1540.33 742.137 1544.94 Q739.081 1549.52 733.271 1549.52 Q727.461 1549.52 724.382 1544.94 Q721.327 1540.33 721.327 1531.6 Q721.327 1522.85 724.382 1518.27 Q727.461 1513.66 733.271 1513.66 Z" fill="#000000" fill-rule="nonzero" fill-opacity="1" /><path clip-path="url(#clip540)" d="M753.433 1542.97 L758.317 1542.97 L758.317 1548.85 L753.433 1548.85 L753.433 1542.97 Z" fill="#000000" fill-rule="nonzero" fill-opacity="1" /><path clip-path="url(#clip540)" d="M768.548 1514.29 L786.905 1514.29 L786.905 1518.22 L772.831 1518.22 L772.831 1526.7 Q773.849 1526.35 774.868 1526.19 Q775.886 1526 776.905 1526 Q782.692 1526 786.072 1529.17 Q789.451 1532.34 789.451 1537.76 Q789.451 1543.34 785.979 1546.44 Q782.507 1549.52 776.187 1549.52 Q774.011 1549.52 771.743 1549.15 Q769.498 1548.78 767.09 1548.04 L767.09 1543.34 Q769.173 1544.47 771.396 1545.03 Q773.618 1545.58 776.095 1545.58 Q780.099 1545.58 782.437 1543.48 Q784.775 1541.37 784.775 1537.76 Q784.775 1534.15 782.437 1532.04 Q780.099 1529.94 776.095 1529.94 Q774.22 1529.94 772.345 1530.35 Q770.493 1530.77 768.548 1531.65 L768.548 1514.29 Z" fill="#000000" fill-rule="nonzero" fill-opacity="1" /><path clip-path="url(#clip540)" d="M1231.9 1517.37 Q1228.29 1517.37 1226.46 1520.93 Q1224.65 1524.47 1224.65 1531.6 Q1224.65 1538.71 1226.46 1542.27 Q1228.29 1545.82 1231.9 1545.82 Q1235.53 1545.82 1237.34 1542.27 Q1239.17 1538.71 1239.17 1531.6 Q1239.17 1524.47 1237.34 1520.93 Q1235.53 1517.37 1231.9 1517.37 M1231.9 1513.66 Q1237.71 1513.66 1240.77 1518.27 Q1243.84 1522.85 1243.84 1531.6 Q1243.84 1540.33 1240.77 1544.94 Q1237.71 1549.52 1231.9 1549.52 Q1226.09 1549.52 1223.01 1544.94 Q1219.96 1540.33 1219.96 1531.6 Q1219.96 1522.85 1223.01 1518.27 Q1226.09 1513.66 1231.9 1513.66 Z" fill="#000000" fill-rule="nonzero" fill-opacity="1" /><path clip-path="url(#clip540)" d="M1252.06 1542.97 L1256.95 1542.97 L1256.95 1548.85 L1252.06 1548.85 L1252.06 1542.97 Z" fill="#000000" fill-rule="nonzero" fill-opacity="1" /><path clip-path="url(#clip540)" d="M1277.13 1517.37 Q1273.52 1517.37 1271.69 1520.93 Q1269.89 1524.47 1269.89 1531.6 Q1269.89 1538.71 1271.69 1542.27 Q1273.52 1545.82 1277.13 1545.82 Q1280.76 1545.82 1282.57 1542.27 Q1284.4 1538.71 1284.4 1531.6 Q1284.4 1524.47 1282.57 1520.93 Q1280.76 1517.37 1277.13 1517.37 M1277.13 1513.66 Q1282.94 1513.66 1286 1518.27 Q1289.08 1522.85 1289.08 1531.6 Q1289.08 1540.33 1286 1544.94 Q1282.94 1549.52 1277.13 1549.52 Q1271.32 1549.52 1268.24 1544.94 Q1265.19 1540.33 1265.19 1531.6 Q1265.19 1522.85 1268.24 1518.27 Q1271.32 1513.66 1277.13 1513.66 Z" fill="#000000" fill-rule="nonzero" fill-opacity="1" /><path clip-path="url(#clip540)" d="M1750.44 1517.37 Q1746.82 1517.37 1745 1520.93 Q1743.19 1524.47 1743.19 1531.6 Q1743.19 1538.71 1745 1542.27 Q1746.82 1545.82 1750.44 1545.82 Q1754.07 1545.82 1755.88 1542.27 Q1757.7 1538.71 1757.7 1531.6 Q1757.7 1524.47 1755.88 1520.93 Q1754.07 1517.37 1750.44 1517.37 M1750.44 1513.66 Q1756.25 1513.66 1759.3 1518.27 Q1762.38 1522.85 1762.38 1531.6 Q1762.38 1540.33 1759.3 1544.94 Q1756.25 1549.52 1750.44 1549.52 Q1744.63 1549.52 1741.55 1544.94 Q1738.49 1540.33 1738.49 1531.6 Q1738.49 1522.85 1741.55 1518.27 Q1744.63 1513.66 1750.44 1513.66 Z" fill="#000000" fill-rule="nonzero" fill-opacity="1" /><path clip-path="url(#clip540)" d="M1770.6 1542.97 L1775.48 1542.97 L1775.48 1548.85 L1770.6 1548.85 L1770.6 1542.97 Z" fill="#000000" fill-rule="nonzero" fill-opacity="1" /><path clip-path="url(#clip540)" d="M1785.71 1514.29 L1804.07 1514.29 L1804.07 1518.22 L1790 1518.22 L1790 1526.7 Q1791.01 1526.35 1792.03 1526.19 Q1793.05 1526 1794.07 1526 Q1799.86 1526 1803.24 1529.17 Q1806.62 1532.34 1806.62 1537.76 Q1806.62 1543.34 1803.14 1546.44 Q1799.67 1549.52 1793.35 1549.52 Q1791.18 1549.52 1788.91 1549.15 Q1786.66 1548.78 1784.25 1548.04 L1784.25 1543.34 Q1786.34 1544.47 1788.56 1545.03 Q1790.78 1545.58 1793.26 1545.58 Q1797.26 1545.58 1799.6 1543.48 Q1801.94 1541.37 1801.94 1537.76 Q1801.94 1534.15 1799.6 1532.04 Q1797.26 1529.94 1793.26 1529.94 Q1791.38 1529.94 1789.51 1530.35 Q1787.66 1530.77 1785.71 1531.65 L1785.71 1514.29 Z" fill="#000000" fill-rule="nonzero" fill-opacity="1" /><path clip-path="url(#clip540)" d="M2257.74 1544.91 L2265.38 1544.91 L2265.38 1518.55 L2257.07 1520.21 L2257.07 1515.95 L2265.34 1514.29 L2270.01 1514.29 L2270.01 1544.91 L2277.65 1544.91 L2277.65 1548.85 L2257.74 1548.85 L2257.74 1544.91 Z" fill="#000000" fill-rule="nonzero" fill-opacity="1" /><path clip-path="url(#clip540)" d="M2287.1 1542.97 L2291.98 1542.97 L2291.98 1548.85 L2287.1 1548.85 L2287.1 1542.97 Z" fill="#000000" fill-rule="nonzero" fill-opacity="1" /><path clip-path="url(#clip540)" d="M2312.17 1517.37 Q2308.55 1517.37 2306.73 1520.93 Q2304.92 1524.47 2304.92 1531.6 Q2304.92 1538.71 2306.73 1542.27 Q2308.55 1545.82 2312.17 1545.82 Q2315.8 1545.82 2317.61 1542.27 Q2319.43 1538.71 2319.43 1531.6 Q2319.43 1524.47 2317.61 1520.93 Q2315.8 1517.37 2312.17 1517.37 M2312.17 1513.66 Q2317.98 1513.66 2321.03 1518.27 Q2324.11 1522.85 2324.11 1531.6 Q2324.11 1540.33 2321.03 1544.94 Q2317.98 1549.52 2312.17 1549.52 Q2306.36 1549.52 2303.28 1544.94 Q2300.22 1540.33 2300.22 1531.6 Q2300.22 1522.85 2303.28 1518.27 Q2306.36 1513.66 2312.17 1513.66 Z" fill="#000000" fill-rule="nonzero" fill-opacity="1" /><polyline clip-path="url(#clip542)" style="stroke:#000000; stroke-linecap:round; stroke-linejoin:round; stroke-width:2; stroke-opacity:0.1; fill:none" points="156.274,1232.06 2352.76,1232.06 "/>
<polyline clip-path="url(#clip542)" style="stroke:#000000; stroke-linecap:round; stroke-linejoin:round; stroke-width:2; stroke-opacity:0.1; fill:none" points="156.274,963.564 2352.76,963.564 "/>
<polyline clip-path="url(#clip542)" style="stroke:#000000; stroke-linecap:round; stroke-linejoin:round; stroke-width:2; stroke-opacity:0.1; fill:none" points="156.274,695.065 2352.76,695.065 "/>
<polyline clip-path="url(#clip542)" style="stroke:#000000; stroke-linecap:round; stroke-linejoin:round; stroke-width:2; stroke-opacity:0.1; fill:none" points="156.274,426.566 2352.76,426.566 "/>
<polyline clip-path="url(#clip542)" style="stroke:#000000; stroke-linecap:round; stroke-linejoin:round; stroke-width:2; stroke-opacity:0.1; fill:none" points="156.274,158.068 2352.76,158.068 "/>
<polyline clip-path="url(#clip540)" style="stroke:#000000; stroke-linecap:round; stroke-linejoin:round; stroke-width:4; stroke-opacity:1; fill:none" points="156.274,1486.45 156.274,47.2441 "/>
<polyline clip-path="url(#clip540)" style="stroke:#000000; stroke-linecap:round; stroke-linejoin:round; stroke-width:4; stroke-opacity:1; fill:none" points="156.274,1232.06 175.172,1232.06 "/>
<polyline clip-path="url(#clip540)" style="stroke:#000000; stroke-linecap:round; stroke-linejoin:round; stroke-width:4; stroke-opacity:1; fill:none" points="156.274,963.564 175.172,963.564 "/>
<polyline clip-path="url(#clip540)" style="stroke:#000000; stroke-linecap:round; stroke-linejoin:round; stroke-width:4; stroke-opacity:1; fill:none" points="156.274,695.065 175.172,695.065 "/>
<polyline clip-path="url(#clip540)" style="stroke:#000000; stroke-linecap:round; stroke-linejoin:round; stroke-width:4; stroke-opacity:1; fill:none" points="156.274,426.566 175.172,426.566 "/>
<polyline clip-path="url(#clip540)" style="stroke:#000000; stroke-linecap:round; stroke-linejoin:round; stroke-width:4; stroke-opacity:1; fill:none" points="156.274,158.068 175.172,158.068 "/>
<path clip-path="url(#clip540)" d="M63.0985 1217.86 Q59.4875 1217.86 57.6588 1221.43 Q55.8532 1224.97 55.8532 1232.1 Q55.8532 1239.2 57.6588 1242.77 Q59.4875 1246.31 63.0985 1246.31 Q66.7328 1246.31 68.5383 1242.77 Q70.367 1239.2 70.367 1232.1 Q70.367 1224.97 68.5383 1221.43 Q66.7328 1217.86 63.0985 1217.86 M63.0985 1214.16 Q68.9087 1214.16 71.9642 1218.76 Q75.0429 1223.35 75.0429 1232.1 Q75.0429 1240.82 71.9642 1245.43 Q68.9087 1250.01 63.0985 1250.01 Q57.2884 1250.01 54.2097 1245.43 Q51.1542 1240.82 51.1542 1232.1 Q51.1542 1223.35 54.2097 1218.76 Q57.2884 1214.16 63.0985 1214.16 Z" fill="#000000" fill-rule="nonzero" fill-opacity="1" /><path clip-path="url(#clip540)" d="M83.2605 1243.46 L88.1447 1243.46 L88.1447 1249.34 L83.2605 1249.34 L83.2605 1243.46 Z" fill="#000000" fill-rule="nonzero" fill-opacity="1" /><path clip-path="url(#clip540)" d="M108.33 1217.86 Q104.719 1217.86 102.89 1221.43 Q101.084 1224.97 101.084 1232.1 Q101.084 1239.2 102.89 1242.77 Q104.719 1246.31 108.33 1246.31 Q111.964 1246.31 113.77 1242.77 Q115.598 1239.2 115.598 1232.1 Q115.598 1224.97 113.77 1221.43 Q111.964 1217.86 108.33 1217.86 M108.33 1214.16 Q114.14 1214.16 117.195 1218.76 Q120.274 1223.35 120.274 1232.1 Q120.274 1240.82 117.195 1245.43 Q114.14 1250.01 108.33 1250.01 Q102.52 1250.01 99.4409 1245.43 Q96.3854 1240.82 96.3854 1232.1 Q96.3854 1223.35 99.4409 1218.76 Q102.52 1214.16 108.33 1214.16 Z" fill="#000000" fill-rule="nonzero" fill-opacity="1" /><path clip-path="url(#clip540)" d="M63.7467 949.362 Q60.1356 949.362 58.3069 952.927 Q56.5014 956.469 56.5014 963.598 Q56.5014 970.705 58.3069 974.27 Q60.1356 977.811 63.7467 977.811 Q67.3809 977.811 69.1865 974.27 Q71.0152 970.705 71.0152 963.598 Q71.0152 956.469 69.1865 952.927 Q67.3809 949.362 63.7467 949.362 M63.7467 945.659 Q69.5568 945.659 72.6124 950.265 Q75.6911 954.848 75.6911 963.598 Q75.6911 972.325 72.6124 976.932 Q69.5568 981.515 63.7467 981.515 Q57.9365 981.515 54.8578 976.932 Q51.8023 972.325 51.8023 963.598 Q51.8023 954.848 54.8578 950.265 Q57.9365 945.659 63.7467 945.659 Z" fill="#000000" fill-rule="nonzero" fill-opacity="1" /><path clip-path="url(#clip540)" d="M83.9086 974.964 L88.7928 974.964 L88.7928 980.844 L83.9086 980.844 L83.9086 974.964 Z" fill="#000000" fill-rule="nonzero" fill-opacity="1" /><path clip-path="url(#clip540)" d="M113.145 962.209 Q116.501 962.927 118.376 965.196 Q120.274 967.464 120.274 970.797 Q120.274 975.913 116.756 978.714 Q113.237 981.515 106.756 981.515 Q104.58 981.515 102.265 981.075 Q99.9733 980.658 97.5197 979.802 L97.5197 975.288 Q99.4641 976.422 101.779 977.001 Q104.094 977.58 106.617 977.58 Q111.015 977.58 113.307 975.844 Q115.621 974.107 115.621 970.797 Q115.621 967.742 113.469 966.029 Q111.339 964.293 107.52 964.293 L103.492 964.293 L103.492 960.45 L107.705 960.45 Q111.154 960.45 112.983 959.084 Q114.811 957.696 114.811 955.103 Q114.811 952.441 112.913 951.029 Q111.038 949.594 107.52 949.594 Q105.598 949.594 103.399 950.01 Q101.2 950.427 98.5613 951.307 L98.5613 947.14 Q101.223 946.399 103.538 946.029 Q105.876 945.659 107.936 945.659 Q113.26 945.659 116.362 948.089 Q119.464 950.497 119.464 954.617 Q119.464 957.487 117.82 959.478 Q116.177 961.446 113.145 962.209 Z" fill="#000000" fill-rule="nonzero" fill-opacity="1" /><path clip-path="url(#clip540)" d="M62.9365 680.864 Q59.3254 680.864 57.4967 684.428 Q55.6912 687.97 55.6912 695.1 Q55.6912 702.206 57.4967 705.771 Q59.3254 709.313 62.9365 709.313 Q66.5707 709.313 68.3763 705.771 Q70.205 702.206 70.205 695.1 Q70.205 687.97 68.3763 684.428 Q66.5707 680.864 62.9365 680.864 M62.9365 677.16 Q68.7467 677.16 71.8022 681.766 Q74.8809 686.35 74.8809 695.1 Q74.8809 703.826 71.8022 708.433 Q68.7467 713.016 62.9365 713.016 Q57.1264 713.016 54.0477 708.433 Q50.9921 703.826 50.9921 695.1 Q50.9921 686.35 54.0477 681.766 Q57.1264 677.16 62.9365 677.16 Z" fill="#000000" fill-rule="nonzero" fill-opacity="1" /><path clip-path="url(#clip540)" d="M83.0984 706.465 L87.9827 706.465 L87.9827 712.345 L83.0984 712.345 L83.0984 706.465 Z" fill="#000000" fill-rule="nonzero" fill-opacity="1" /><path clip-path="url(#clip540)" d="M108.746 693.202 Q105.598 693.202 103.746 695.354 Q101.918 697.507 101.918 701.257 Q101.918 704.984 103.746 707.16 Q105.598 709.313 108.746 709.313 Q111.895 709.313 113.723 707.16 Q115.575 704.984 115.575 701.257 Q115.575 697.507 113.723 695.354 Q111.895 693.202 108.746 693.202 M118.029 678.549 L118.029 682.808 Q116.27 681.975 114.464 681.535 Q112.682 681.095 110.922 681.095 Q106.293 681.095 103.839 684.22 Q101.409 687.345 101.061 693.665 Q102.427 691.651 104.487 690.586 Q106.547 689.498 109.024 689.498 Q114.233 689.498 117.242 692.669 Q120.274 695.817 120.274 701.257 Q120.274 706.581 117.126 709.799 Q113.978 713.016 108.746 713.016 Q102.751 713.016 99.5798 708.433 Q96.4085 703.826 96.4085 695.1 Q96.4085 686.905 100.297 682.044 Q104.186 677.16 110.737 677.16 Q112.496 677.16 114.279 677.507 Q116.084 677.854 118.029 678.549 Z" fill="#000000" fill-rule="nonzero" fill-opacity="1" /><path clip-path="url(#clip540)" d="M63.2837 412.365 Q59.6726 412.365 57.8439 415.93 Q56.0384 419.471 56.0384 426.601 Q56.0384 433.708 57.8439 437.272 Q59.6726 440.814 63.2837 440.814 Q66.918 440.814 68.7235 437.272 Q70.5522 433.708 70.5522 426.601 Q70.5522 419.471 68.7235 415.93 Q66.918 412.365 63.2837 412.365 M63.2837 408.661 Q69.0939 408.661 72.1494 413.268 Q75.2281 417.851 75.2281 426.601 Q75.2281 435.328 72.1494 439.934 Q69.0939 444.518 63.2837 444.518 Q57.4736 444.518 54.3949 439.934 Q51.3393 435.328 51.3393 426.601 Q51.3393 417.851 54.3949 413.268 Q57.4736 408.661 63.2837 408.661 Z" fill="#000000" fill-rule="nonzero" fill-opacity="1" /><path clip-path="url(#clip540)" d="M83.4457 437.967 L88.3299 437.967 L88.3299 443.846 L83.4457 443.846 L83.4457 437.967 Z" fill="#000000" fill-rule="nonzero" fill-opacity="1" /><path clip-path="url(#clip540)" d="M98.6539 443.129 L98.6539 438.87 Q100.413 439.703 102.219 440.143 Q104.024 440.582 105.76 440.582 Q110.39 440.582 112.82 437.481 Q115.274 434.356 115.621 428.013 Q114.279 430.004 112.219 431.069 Q110.158 432.133 107.658 432.133 Q102.473 432.133 99.4409 429.008 Q96.4317 425.86 96.4317 420.421 Q96.4317 415.097 99.5798 411.879 Q102.728 408.661 107.959 408.661 Q113.955 408.661 117.103 413.268 Q120.274 417.851 120.274 426.601 Q120.274 434.772 116.385 439.657 Q112.52 444.518 105.969 444.518 Q104.209 444.518 102.404 444.17 Q100.598 443.823 98.6539 443.129 M107.959 428.476 Q111.108 428.476 112.936 426.323 Q114.788 424.171 114.788 420.421 Q114.788 416.694 112.936 414.541 Q111.108 412.365 107.959 412.365 Q104.811 412.365 102.959 414.541 Q101.131 416.694 101.131 420.421 Q101.131 424.171 102.959 426.323 Q104.811 428.476 107.959 428.476 Z" fill="#000000" fill-rule="nonzero" fill-opacity="1" /><path clip-path="url(#clip540)" d="M55.506 171.413 L63.1448 171.413 L63.1448 145.047 L54.8347 146.714 L54.8347 142.454 L63.0985 140.788 L67.7744 140.788 L67.7744 171.413 L75.4133 171.413 L75.4133 175.348 L55.506 175.348 L55.506 171.413 Z" fill="#000000" fill-rule="nonzero" fill-opacity="1" /><path clip-path="url(#clip540)" d="M84.8577 169.468 L89.7419 169.468 L89.7419 175.348 L84.8577 175.348 L84.8577 169.468 Z" fill="#000000" fill-rule="nonzero" fill-opacity="1" /><path clip-path="url(#clip540)" d="M103.955 171.413 L120.274 171.413 L120.274 175.348 L98.3298 175.348 L98.3298 171.413 Q100.992 168.658 105.575 164.028 Q110.182 159.376 111.362 158.033 Q113.608 155.51 114.487 153.774 Q115.39 152.015 115.39 150.325 Q115.39 147.57 113.445 145.834 Q111.524 144.098 108.422 144.098 Q106.223 144.098 103.77 144.862 Q101.339 145.626 98.5613 147.177 L98.5613 142.454 Q101.385 141.32 103.839 140.741 Q106.293 140.163 108.33 140.163 Q113.7 140.163 116.895 142.848 Q120.089 145.533 120.089 150.024 Q120.089 152.153 119.279 154.075 Q118.492 155.973 116.385 158.565 Q115.807 159.237 112.705 162.454 Q109.603 165.649 103.955 171.413 Z" fill="#000000" fill-rule="nonzero" fill-opacity="1" /><polyline clip-path="url(#clip542)" style="stroke:#009af9; stroke-linecap:round; stroke-linejoin:round; stroke-width:16; stroke-opacity:1; fill:none" stroke-dasharray="8, 16" points="218.439,1097.61 228.852,1113.29 239.264,1107.5 249.677,1084.19 260.09,1054.94 270.503,1034.9 280.916,1035.42 291.329,1058.15 301.741,1095.32 312.154,1135.31 322.567,1169.21 332.98,1194.29 343.393,1213.78 353.805,1233.83 364.218,1259.73 374.631,1292.84 385.044,1329.82 395.457,1364.32 405.87,1390.31 416.282,1405.03 426.695,1409.7 437.108,1407.85 447.521,1402.78 457.934,1395.84 468.347,1386.5 478.759,1373.27 489.172,1354.88 499.585,1330.84 509.998,1301.64 520.411,1268.57 530.824,1233.44 541.236,1198.31 551.649,1165.17 562.062,1135.7 572.475,1110.97 582.888,1091.34 593.301,1076.55 603.713,1066 614.126,1059.2 624.539,1056.2 634.952,1057.75 645.365,1064.98 655.777,1078.89 666.19,1099.83 676.603,1127.17 687.016,1159.26 697.429,1193.48 707.842,1226.63 718.254,1255.85 728.667,1280.1 739.08,1301.31 749.493,1323.97 759.906,1352.71 770.319,1388.21 780.731,1423.84 791.144,1445.72 801.557,1439.37 811.97,1402.54 822.383,1354.31 832.796,1324.98 843.208,1328.64 853.621,1348.22 864.034,1353.06 874.447,1327.3 884.86,1278.6 895.273,1225.31 905.685,1180.96 916.098,1148.71 926.511,1125.02 936.924,1105.32 947.337,1087.37 957.749,1071.66 968.162,1060.05 978.575,1054.33 988.988,1055.36 999.401,1062.85 1009.81,1075.81 1020.23,1092.99 1030.64,1113.37 1041.05,1136.35 1051.46,1161.78 1061.88,1189.83 1072.29,1220.62 1082.7,1253.9 1093.12,1288.67 1103.53,1322.97 1113.94,1354.11 1124.35,1379.21 1134.77,1395.97 1145.18,1403.44 1155.59,1402.47 1166.01,1395.98 1176.42,1389.08 1186.83,1388.65 1197.24,1400.38 1207.66,1421.08 1218.07,1426.36 1228.48,1364.88 1238.9,1183.33 1249.31,889.661 1259.72,585.948 1270.13,386.216 1280.55,313.93 1290.96,317.278 1301.37,340.168 1311.79,353.963 1322.2,352.741 1332.61,341.204 1343.02,326.679 1353.44,315.289 1363.85,310.607 1374.26,313.605 1384.68,323.112 1395.09,336.427 1405.5,350.066 1415.91,360.611 1426.33,365.516 1436.74,363.634 1447.15,355.371 1457.57,342.498 1467.98,327.734 1478.39,314.211 1488.8,304.905 1499.22,302.086 1509.63,306.843 1520.04,318.831 1530.45,336.338 1540.87,356.679 1551.28,376.648 1561.69,392.601 1572.11,399.974 1582.52,392.772 1592.93,364.445 1603.34,312.069 1613.76,244.29 1624.17,188.112 1634.58,182.695 1645,252.647 1655.41,378.112 1665.82,496.524 1676.23,544.194 1686.65,501.342 1697.06,399.78 1707.47,292.479 1717.89,218.854 1728.3,192.254 1738.71,207.143 1749.12,250.688 1759.54,309.711 1769.95,372.446 1780.36,427.672 1790.78,463.849 1801.19,470.186 1811.6,440.188 1822.01,376.408 1832.43,293.613 1842.84,217.12 1853.25,174.547 1863.67,183.435 1874.08,241.977 1884.49,329.687 1894.9,417.381 1905.32,479.121 1915.73,499.631 1926.14,476.081 1936.56,416.441 1946.97,336.426 1957.38,255.813 1967.79,194.391 1978.21,167.962 1988.62,184.969 1999.03,244.161 2009.45,333.62 2019.86,431.725 2030.27,510.907 2040.68,544.681 2051.1,516.925 2061.51,430.118 2071.92,307.925 2082.33,188.999 2092.75,113.214 2103.16,106.417 2113.57,171.127 2123.99,286.845 2134.4,418.018 2144.81,525.224 2155.22,576.322 2165.64,555.719 2176.05,469.678 2186.46,345.213 2196.88,221.588 2207.29,136.743 2217.7,113.796 2228.11,153.443 2238.53,236.046 2248.94,332.622 2259.35,418.642 2269.77,482.836 2280.18,527.042 2290.59,559.692 "/>
<polyline clip-path="url(#clip542)" style="stroke:#e26f46; stroke-linecap:round; stroke-linejoin:round; stroke-width:4; stroke-opacity:1; fill:none" points="218.439,1097.64 228.852,1078.56 239.264,1064.5 249.677,1055.91 260.09,1053.06 270.503,1056.06 280.916,1064.8 291.329,1079 301.741,1098.2 312.154,1121.76 322.567,1148.93 332.98,1178.81 343.393,1210.42 353.805,1242.75 364.218,1274.72 374.631,1305.3 385.044,1333.49 395.457,1358.37 405.87,1379.13 416.282,1395.09 426.695,1405.73 437.108,1410.7 447.521,1409.84 457.934,1403.17 468.347,1390.93 478.759,1373.49 489.172,1351.45 499.585,1325.5 509.998,1296.51 520.411,1265.41 530.824,1233.22 541.236,1201 551.649,1169.79 562.062,1140.61 572.475,1114.42 582.888,1092.07 593.301,1074.28 603.713,1061.65 614.126,1054.57 624.539,1053.29 634.952,1057.85 645.365,1068.09 655.777,1083.68 666.19,1104.11 676.603,1128.73 687.016,1156.71 697.429,1187.15 707.842,1219.06 718.254,1251.39 728.667,1283.09 739.08,1313.13 749.493,1340.52 759.906,1364.37 770.319,1383.9 780.731,1398.48 791.144,1407.62 801.557,1411.04 811.97,1408.61 822.383,1400.43 832.796,1386.74 843.208,1368.01 853.621,1344.84 864.034,1317.99 874.447,1288.34 884.86,1256.85 895.273,1224.55 905.685,1192.5 916.098,1161.73 926.511,1133.26 936.924,1108.02 947.337,1086.83 957.749,1070.37 968.162,1059.19 978.575,1053.66 988.988,1053.95 999.401,1060.05 1009.81,1071.76 1020.23,1088.71 1030.64,1110.33 1041.05,1135.93 1051.46,1164.66 1061.88,1195.6 1072.29,1227.72 1082.7,1259.99 1093.12,1291.35 1103.53,1320.77 1113.94,1347.29 1124.35,1370.06 1134.77,1388.32 1145.18,1401.48 1155.59,1409.11 1166.01,1410.96 1176.42,1406.98 1186.83,1397.28 1197.24,1382.2 1207.66,1362.21 1218.07,1337.98 1228.48,1310.28 1238.9,1280.04 1249.31,1248.23 1259.72,335.767 1270.13,334.288 1280.55,335.634 1290.96,340.116 1301.37,346.359 1311.79,351.727 1322.2,353.316 1332.61,349.186 1343.02,339.341 1353.44,326.069 1363.85,313.44 1374.26,306.062 1384.68,307.477 1395.09,318.734 1405.5,337.668 1415.91,359.216 1426.33,376.764 1436.74,384.165 1447.15,377.83 1457.57,358.17 1467.98,329.893 1478.39,300.913 1488.8,280.144 1499.22,274.763 1509.63,287.806 1520.04,316.865 1530.45,354.394 1540.87,389.648 1551.28,411.758 1561.69,413.067 1572.11,391.707 1582.52,352.559 1592.93,306.219 1603.34,266.134 1613.76,244.707 1624.17,249.471 1634.58,280.537 1645,330.131 1655.41,384.499 1665.82,427.716 1676.23,446.348 1686.65,433.607 1697.06,391.709 1707.47,331.658 1717.89,270.377 1728.3,225.943 1738.71,212.258 1749.12,234.729 1759.54,288.288 1769.95,358.451 1780.36,425.22 1790.78,468.782 1801.19,475.38 1811.6,441.627 1822.01,375.903 1832.43,296.33 1842.84,225.782 1853.25,185.31 1863.67,187.868 1874.08,234.214 1884.49,312.258 1894.9,400.186 1905.32,472.553 1915.73,507.644 1926.14,493.979 1936.56,434.016 1946.97,343.86 1957.38,248.967 1967.79,176.952 1978.21,149.558 1988.62,176.105 1999.03,250.394 2009.45,352.082 2019.86,452.234 2030.27,521.558 2040.68,538.971 2051.1,497.988 2061.51,409.013 2071.92,296.746 2082.33,193.329 2092.75,129.151 2103.16,123.916 2113.57,180.622 2123.99,284.271 2134.4,405.801 2144.81,510.237 2155.22,566.749 2165.64,557.751 2176.05,484.343 2186.46,366.416 2196.88,237.288 2207.29,134.29 2217.7,87.9763 2228.11,113.066 2238.53,203.812 2248.94,335.229 2259.35,469.96 2269.77,568.9 2280.18,602.532 2290.59,559.735 "/>
<path clip-path="url(#clip540)" d="M229.49 250.738 L675.966 250.738 L675.966 95.2176 L229.49 95.2176  Z" fill="#ffffff" fill-rule="evenodd" fill-opacity="1"/>
<polyline clip-path="url(#clip540)" style="stroke:#000000; stroke-linecap:round; stroke-linejoin:round; stroke-width:4; stroke-opacity:1; fill:none" points="229.49,250.738 675.966,250.738 675.966,95.2176 229.49,95.2176 229.49,250.738 "/>
<polyline clip-path="url(#clip540)" style="stroke:#009af9; stroke-linecap:round; stroke-linejoin:round; stroke-width:16; stroke-opacity:1; fill:none" stroke-dasharray="8, 16" points="253.896,147.058 400.328,147.058 "/>
<path clip-path="url(#clip540)" d="M429.409 133.62 L429.409 146.606 L435.289 146.606 Q438.552 146.606 440.335 144.916 Q442.117 143.227 442.117 140.102 Q442.117 137 440.335 135.31 Q438.552 133.62 435.289 133.62 L429.409 133.62 M424.733 129.778 L435.289 129.778 Q441.099 129.778 444.062 132.416 Q447.048 135.032 447.048 140.102 Q447.048 145.217 444.062 147.833 Q441.099 150.449 435.289 150.449 L429.409 150.449 L429.409 164.338 L424.733 164.338 L424.733 129.778 Z" fill="#000000" fill-rule="nonzero" fill-opacity="1" /><path clip-path="url(#clip540)" d="M467.325 142.393 Q466.608 141.977 465.751 141.791 Q464.918 141.583 463.899 141.583 Q460.288 141.583 458.344 143.944 Q456.423 146.282 456.423 150.68 L456.423 164.338 L452.14 164.338 L452.14 138.412 L456.423 138.412 L456.423 142.44 Q457.765 140.078 459.918 138.944 Q462.071 137.787 465.149 137.787 Q465.589 137.787 466.122 137.856 Q466.654 137.903 467.302 138.018 L467.325 142.393 Z" fill="#000000" fill-rule="nonzero" fill-opacity="1" /><path clip-path="url(#clip540)" d="M492.927 150.31 L492.927 152.393 L473.344 152.393 Q473.622 156.791 475.983 159.106 Q478.367 161.398 482.603 161.398 Q485.057 161.398 487.348 160.796 Q489.663 160.194 491.932 158.99 L491.932 163.018 Q489.64 163.99 487.233 164.5 Q484.825 165.009 482.348 165.009 Q476.145 165.009 472.511 161.398 Q468.899 157.787 468.899 151.629 Q468.899 145.264 472.325 141.537 Q475.774 137.787 481.608 137.787 Q486.839 137.787 489.872 141.166 Q492.927 144.523 492.927 150.31 M488.668 149.06 Q488.622 145.565 486.7 143.481 Q484.802 141.398 481.654 141.398 Q478.089 141.398 475.936 143.412 Q473.807 145.426 473.483 149.083 L488.668 149.06 Z" fill="#000000" fill-rule="nonzero" fill-opacity="1" /><path clip-path="url(#clip540)" d="M516.978 142.347 L516.978 128.319 L521.237 128.319 L521.237 164.338 L516.978 164.338 L516.978 160.449 Q515.635 162.763 513.575 163.898 Q511.538 165.009 508.668 165.009 Q503.969 165.009 501.006 161.259 Q498.066 157.509 498.066 151.398 Q498.066 145.287 501.006 141.537 Q503.969 137.787 508.668 137.787 Q511.538 137.787 513.575 138.921 Q515.635 140.032 516.978 142.347 M502.464 151.398 Q502.464 156.097 504.385 158.782 Q506.33 161.444 509.709 161.444 Q513.089 161.444 515.033 158.782 Q516.978 156.097 516.978 151.398 Q516.978 146.699 515.033 144.037 Q513.089 141.352 509.709 141.352 Q506.33 141.352 504.385 144.037 Q502.464 146.699 502.464 151.398 Z" fill="#000000" fill-rule="nonzero" fill-opacity="1" /><path clip-path="url(#clip540)" d="M530.01 138.412 L534.269 138.412 L534.269 164.338 L530.01 164.338 L530.01 138.412 M530.01 128.319 L534.269 128.319 L534.269 133.713 L530.01 133.713 L530.01 128.319 Z" fill="#000000" fill-rule="nonzero" fill-opacity="1" /><path clip-path="url(#clip540)" d="M561.839 139.407 L561.839 143.389 Q560.033 142.393 558.205 141.907 Q556.399 141.398 554.547 141.398 Q550.404 141.398 548.112 144.037 Q545.82 146.652 545.82 151.398 Q545.82 156.143 548.112 158.782 Q550.404 161.398 554.547 161.398 Q556.399 161.398 558.205 160.912 Q560.033 160.402 561.839 159.407 L561.839 163.342 Q560.056 164.176 558.135 164.592 Q556.237 165.009 554.084 165.009 Q548.228 165.009 544.779 161.328 Q541.33 157.648 541.33 151.398 Q541.33 145.055 544.802 141.421 Q548.297 137.787 554.362 137.787 Q556.33 137.787 558.205 138.203 Q560.08 138.597 561.839 139.407 Z" fill="#000000" fill-rule="nonzero" fill-opacity="1" /><path clip-path="url(#clip540)" d="M573.459 131.051 L573.459 138.412 L582.232 138.412 L582.232 141.722 L573.459 141.722 L573.459 155.796 Q573.459 158.967 574.316 159.87 Q575.195 160.773 577.857 160.773 L582.232 160.773 L582.232 164.338 L577.857 164.338 Q572.927 164.338 571.052 162.509 Q569.177 160.657 569.177 155.796 L569.177 141.722 L566.052 141.722 L566.052 138.412 L569.177 138.412 L569.177 131.051 L573.459 131.051 Z" fill="#000000" fill-rule="nonzero" fill-opacity="1" /><path clip-path="url(#clip540)" d="M587.834 138.412 L592.093 138.412 L592.093 164.338 L587.834 164.338 L587.834 138.412 M587.834 128.319 L592.093 128.319 L592.093 133.713 L587.834 133.713 L587.834 128.319 Z" fill="#000000" fill-rule="nonzero" fill-opacity="1" /><path clip-path="url(#clip540)" d="M611.051 141.398 Q607.626 141.398 605.635 144.083 Q603.644 146.745 603.644 151.398 Q603.644 156.051 605.612 158.736 Q607.602 161.398 611.051 161.398 Q614.454 161.398 616.445 158.713 Q618.436 156.027 618.436 151.398 Q618.436 146.791 616.445 144.106 Q614.454 141.398 611.051 141.398 M611.051 137.787 Q616.607 137.787 619.778 141.398 Q622.95 145.009 622.95 151.398 Q622.95 157.764 619.778 161.398 Q616.607 165.009 611.051 165.009 Q605.473 165.009 602.302 161.398 Q599.153 157.764 599.153 151.398 Q599.153 145.009 602.302 141.398 Q605.473 137.787 611.051 137.787 Z" fill="#000000" fill-rule="nonzero" fill-opacity="1" /><path clip-path="url(#clip540)" d="M651.561 148.689 L651.561 164.338 L647.301 164.338 L647.301 148.828 Q647.301 145.148 645.866 143.319 Q644.431 141.49 641.561 141.49 Q638.112 141.49 636.121 143.69 Q634.13 145.889 634.13 149.685 L634.13 164.338 L629.848 164.338 L629.848 138.412 L634.13 138.412 L634.13 142.44 Q635.658 140.102 637.718 138.944 Q639.801 137.787 642.51 137.787 Q646.977 137.787 649.269 140.565 Q651.561 143.319 651.561 148.689 Z" fill="#000000" fill-rule="nonzero" fill-opacity="1" /><polyline clip-path="url(#clip540)" style="stroke:#e26f46; stroke-linecap:round; stroke-linejoin:round; stroke-width:4; stroke-opacity:1; fill:none" points="253.896,198.898 400.328,198.898 "/>
<path clip-path="url(#clip540)" d="M424.733 181.618 L446.585 181.618 L446.585 185.553 L429.409 185.553 L429.409 195.784 L445.867 195.784 L445.867 199.719 L429.409 199.719 L429.409 212.242 L447.001 212.242 L447.001 216.178 L424.733 216.178 L424.733 181.618 Z" fill="#000000" fill-rule="nonzero" fill-opacity="1" /><path clip-path="url(#clip540)" d="M476.052 190.252 L466.677 202.867 L476.538 216.178 L471.515 216.178 L463.969 205.992 L456.423 216.178 L451.4 216.178 L461.469 202.613 L452.256 190.252 L457.279 190.252 L464.154 199.488 L471.029 190.252 L476.052 190.252 Z" fill="#000000" fill-rule="nonzero" fill-opacity="1" /><path clip-path="url(#clip540)" d="M494.339 203.145 Q489.177 203.145 487.186 204.326 Q485.196 205.506 485.196 208.354 Q485.196 210.622 486.677 211.965 Q488.182 213.284 490.751 213.284 Q494.293 213.284 496.422 210.784 Q498.575 208.261 498.575 204.094 L498.575 203.145 L494.339 203.145 M502.834 201.386 L502.834 216.178 L498.575 216.178 L498.575 212.242 Q497.117 214.603 494.941 215.738 Q492.765 216.849 489.617 216.849 Q485.635 216.849 483.274 214.627 Q480.936 212.381 480.936 208.631 Q480.936 204.256 483.853 202.034 Q486.793 199.812 492.603 199.812 L498.575 199.812 L498.575 199.395 Q498.575 196.455 496.631 194.858 Q494.71 193.238 491.214 193.238 Q488.992 193.238 486.885 193.77 Q484.779 194.303 482.835 195.367 L482.835 191.432 Q485.173 190.53 487.372 190.09 Q489.571 189.627 491.654 189.627 Q497.279 189.627 500.057 192.543 Q502.834 195.46 502.834 201.386 Z" fill="#000000" fill-rule="nonzero" fill-opacity="1" /><path clip-path="url(#clip540)" d="M530.265 191.247 L530.265 195.229 Q528.459 194.233 526.631 193.747 Q524.825 193.238 522.973 193.238 Q518.83 193.238 516.538 195.877 Q514.246 198.492 514.246 203.238 Q514.246 207.983 516.538 210.622 Q518.83 213.238 522.973 213.238 Q524.825 213.238 526.631 212.752 Q528.459 212.242 530.265 211.247 L530.265 215.182 Q528.482 216.016 526.561 216.432 Q524.663 216.849 522.51 216.849 Q516.654 216.849 513.205 213.168 Q509.756 209.488 509.756 203.238 Q509.756 196.895 513.228 193.261 Q516.723 189.627 522.788 189.627 Q524.756 189.627 526.631 190.043 Q528.506 190.437 530.265 191.247 Z" fill="#000000" fill-rule="nonzero" fill-opacity="1" /><path clip-path="url(#clip540)" d="M541.885 182.891 L541.885 190.252 L550.658 190.252 L550.658 193.562 L541.885 193.562 L541.885 207.636 Q541.885 210.807 542.742 211.71 Q543.621 212.613 546.283 212.613 L550.658 212.613 L550.658 216.178 L546.283 216.178 Q541.353 216.178 539.478 214.349 Q537.603 212.497 537.603 207.636 L537.603 193.562 L534.478 193.562 L534.478 190.252 L537.603 190.252 L537.603 182.891 L541.885 182.891 Z" fill="#000000" fill-rule="nonzero" fill-opacity="1" /></svg>
