<?xml version="1.0" encoding="utf-8"?>
<svg xmlns="http://www.w3.org/2000/svg" xmlns:xlink="http://www.w3.org/1999/xlink" width="600" height="400" viewBox="0 0 2400 1600">
<defs>
  <clipPath id="clip740">
    <rect x="0" y="0" width="2400" height="1600"/>
  </clipPath>
</defs>
<path clip-path="url(#clip740)" d="M0 1600 L2400 1600 L2400 0 L0 0  Z" fill="#ffffff" fill-rule="evenodd" fill-opacity="1"/>
<defs>
  <clipPath id="clip741">
    <rect x="480" y="0" width="1681" height="1600"/>
  </clipPath>
</defs>
<path clip-path="url(#clip740)" d="M156.274 1486.45 L2352.76 1486.45 L2352.76 47.2441 L156.274 47.2441  Z" fill="#ffffff" fill-rule="evenodd" fill-opacity="1"/>
<defs>
  <clipPath id="clip742">
    <rect x="156" y="47" width="2197" height="1440"/>
  </clipPath>
</defs>
<polyline clip-path="url(#clip742)" style="stroke:#000000; stroke-linecap:round; stroke-linejoin:round; stroke-width:2; stroke-opacity:0.1; fill:none" points="218.439,1486.45 218.439,47.2441 "/>
<polyline clip-path="url(#clip742)" style="stroke:#000000; stroke-linecap:round; stroke-linejoin:round; stroke-width:2; stroke-opacity:0.1; fill:none" points="736.477,1486.45 736.477,47.2441 "/>
<polyline clip-path="url(#clip742)" style="stroke:#000000; stroke-linecap:round; stroke-linejoin:round; stroke-width:2; stroke-opacity:0.1; fill:none" points="1254.52,1486.45 1254.52,47.2441 "/>
<polyline clip-path="url(#clip742)" style="stroke:#000000; stroke-linecap:round; stroke-linejoin:round; stroke-width:2; stroke-opacity:0.1; fill:none" points="1772.55,1486.45 1772.55,47.2441 "/>
<polyline clip-path="url(#clip742)" style="stroke:#000000; stroke-linecap:round; stroke-linejoin:round; stroke-width:2; stroke-opacity:0.1; fill:none" points="2290.59,1486.45 2290.59,47.2441 "/>
<polyline clip-path="url(#clip740)" style="stroke:#000000; stroke-linecap:round; stroke-linejoin:round; stroke-width:4; stroke-opacity:1; fill:none" points="156.274,1486.45 2352.76,1486.45 "/>
<polyline clip-path="url(#clip740)" style="stroke:#000000; stroke-linecap:round; stroke-linejoin:round; stroke-width:4; stroke-opacity:1; fill:none" points="218.439,1486.45 218.439,1467.55 "/>
<polyline clip-path="url(#clip740)" style="stroke:#000000; stroke-linecap:round; stroke-linejoin:round; stroke-width:4; stroke-opacity:1; fill:none" points="736.477,1486.45 736.477,1467.55 "/>
<polyline clip-path="url(#clip740)" style="stroke:#000000; stroke-linecap:round; stroke-linejoin:round; stroke-width:4; stroke-opacity:1; fill:none" points="1254.52,1486.45 1254.52,1467.55 "/>
<polyline clip-path="url(#clip740)" style="stroke:#000000; stroke-linecap:round; stroke-linejoin:round; stroke-width:4; stroke-opacity:1; fill:none" points="1772.55,1486.45 1772.55,1467.55 "/>
<polyline clip-path="url(#clip740)" style="stroke:#000000; stroke-linecap:round; stroke-linejoin:round; stroke-width:4; stroke-opacity:1; fill:none" points="2290.59,1486.45 2290.59,1467.55 "/>
<path clip-path="url(#clip740)" d="M164.967 1532.02 L194.643 1532.02 L194.643 1535.95 L164.967 1535.95 L164.967 1532.02 Z" fill="#000000" fill-rule="nonzero" fill-opacity="1" /><path clip-path="url(#clip740)" d="M205.545 1544.91 L213.184 1544.91 L213.184 1518.55 L204.874 1520.21 L204.874 1515.95 L213.138 1514.29 L217.814 1514.29 L217.814 1544.91 L225.453 1544.91 L225.453 1548.85 L205.545 1548.85 L205.545 1544.91 Z" fill="#000000" fill-rule="nonzero" fill-opacity="1" /><path clip-path="url(#clip740)" d="M234.897 1542.97 L239.781 1542.97 L239.781 1548.85 L234.897 1548.85 L234.897 1542.97 Z" fill="#000000" fill-rule="nonzero" fill-opacity="1" /><path clip-path="url(#clip740)" d="M259.966 1517.37 Q256.355 1517.37 254.527 1520.93 Q252.721 1524.47 252.721 1531.6 Q252.721 1538.71 254.527 1542.27 Q256.355 1545.82 259.966 1545.82 Q263.601 1545.82 265.406 1542.27 Q267.235 1538.71 267.235 1531.6 Q267.235 1524.47 265.406 1520.93 Q263.601 1517.37 259.966 1517.37 M259.966 1513.66 Q265.776 1513.66 268.832 1518.27 Q271.911 1522.85 271.911 1531.6 Q271.911 1540.33 268.832 1544.94 Q265.776 1549.52 259.966 1549.52 Q254.156 1549.52 251.077 1544.94 Q248.022 1540.33 248.022 1531.6 Q248.022 1522.85 251.077 1518.27 Q254.156 1513.66 259.966 1513.66 Z" fill="#000000" fill-rule="nonzero" fill-opacity="1" /><path clip-path="url(#clip740)" d="M683.503 1532.02 L713.178 1532.02 L713.178 1535.95 L683.503 1535.95 L683.503 1532.02 Z" fill="#000000" fill-rule="nonzero" fill-opacity="1" /><path clip-path="url(#clip740)" d="M733.271 1517.37 Q729.66 1517.37 727.831 1520.93 Q726.026 1524.47 726.026 1531.6 Q726.026 1538.71 727.831 1542.27 Q729.66 1545.82 733.271 1545.82 Q736.905 1545.82 738.711 1542.27 Q740.539 1538.71 740.539 1531.6 Q740.539 1524.47 738.711 1520.93 Q736.905 1517.37 733.271 1517.37 M733.271 1513.66 Q739.081 1513.66 742.137 1518.27 Q745.215 1522.85 745.215 1531.6 Q745.215 1540.33 742.137 1544.94 Q739.081 1549.52 733.271 1549.52 Q727.461 1549.52 724.382 1544.94 Q721.327 1540.33 721.327 1531.6 Q721.327 1522.85 724.382 1518.27 Q727.461 1513.66 733.271 1513.66 Z" fill="#000000" fill-rule="nonzero" fill-opacity="1" /><path clip-path="url(#clip740)" d="M753.433 1542.97 L758.317 1542.97 L758.317 1548.85 L753.433 1548.85 L753.433 1542.97 Z" fill="#000000" fill-rule="nonzero" fill-opacity="1" /><path clip-path="url(#clip740)" d="M768.548 1514.29 L786.905 1514.29 L786.905 1518.22 L772.831 1518.22 L772.831 1526.7 Q773.849 1526.35 774.868 1526.19 Q775.886 1526 776.905 1526 Q782.692 1526 786.072 1529.17 Q789.451 1532.34 789.451 1537.76 Q789.451 1543.34 785.979 1546.44 Q782.507 1549.52 776.187 1549.52 Q774.011 1549.52 771.743 1549.15 Q769.498 1548.78 767.09 1548.04 L767.09 1543.34 Q769.173 1544.47 771.396 1545.03 Q773.618 1545.58 776.095 1545.58 Q780.099 1545.58 782.437 1543.48 Q784.775 1541.37 784.775 1537.76 Q784.775 1534.15 782.437 1532.04 Q780.099 1529.94 776.095 1529.94 Q774.22 1529.94 772.345 1530.35 Q770.493 1530.77 768.548 1531.65 L768.548 1514.29 Z" fill="#000000" fill-rule="nonzero" fill-opacity="1" /><path clip-path="url(#clip740)" d="M1231.9 1517.37 Q1228.29 1517.37 1226.46 1520.93 Q1224.65 1524.47 1224.65 1531.6 Q1224.65 1538.71 1226.46 1542.27 Q1228.29 1545.82 1231.9 1545.82 Q1235.53 1545.82 1237.34 1542.27 Q1239.17 1538.71 1239.17 1531.6 Q1239.17 1524.47 1237.34 1520.93 Q1235.53 1517.37 1231.9 1517.37 M1231.9 1513.66 Q1237.71 1513.66 1240.77 1518.27 Q1243.84 1522.85 1243.84 1531.6 Q1243.84 1540.33 1240.77 1544.94 Q1237.71 1549.52 1231.9 1549.52 Q1226.09 1549.52 1223.01 1544.94 Q1219.96 1540.33 1219.96 1531.6 Q1219.96 1522.85 1223.01 1518.27 Q1226.09 1513.66 1231.9 1513.66 Z" fill="#000000" fill-rule="nonzero" fill-opacity="1" /><path clip-path="url(#clip740)" d="M1252.06 1542.97 L1256.95 1542.97 L1256.95 1548.85 L1252.06 1548.85 L1252.06 1542.97 Z" fill="#000000" fill-rule="nonzero" fill-opacity="1" /><path clip-path="url(#clip740)" d="M1277.13 1517.37 Q1273.52 1517.37 1271.69 1520.93 Q1269.89 1524.47 1269.89 1531.6 Q1269.89 1538.71 1271.69 1542.27 Q1273.52 1545.82 1277.13 1545.82 Q1280.76 1545.82 1282.57 1542.27 Q1284.4 1538.71 1284.4 1531.6 Q1284.4 1524.47 1282.57 1520.93 Q1280.76 1517.37 1277.13 1517.37 M1277.13 1513.66 Q1282.94 1513.66 1286 1518.27 Q1289.08 1522.85 1289.08 1531.6 Q1289.08 1540.33 1286 1544.94 Q1282.94 1549.52 1277.13 1549.52 Q1271.32 1549.52 1268.24 1544.94 Q1265.19 1540.33 1265.19 1531.6 Q1265.19 1522.85 1268.24 1518.27 Q1271.32 1513.66 1277.13 1513.66 Z" fill="#000000" fill-rule="nonzero" fill-opacity="1" /><path clip-path="url(#clip740)" d="M1750.44 1517.37 Q1746.82 1517.37 1745 1520.93 Q1743.19 1524.47 1743.19 1531.6 Q1743.19 1538.71 1745 1542.27 Q1746.82 1545.82 1750.44 1545.82 Q1754.07 1545.82 1755.88 1542.27 Q1757.7 1538.71 1757.7 1531.6 Q1757.7 1524.47 1755.88 1520.93 Q1754.07 1517.37 1750.44 1517.37 M1750.44 1513.66 Q1756.25 1513.66 1759.3 1518.27 Q1762.38 1522.85 1762.38 1531.6 Q1762.38 1540.33 1759.3 1544.94 Q1756.25 1549.52 1750.44 1549.52 Q1744.63 1549.52 1741.55 1544.94 Q1738.49 1540.33 1738.49 1531.6 Q1738.49 1522.85 1741.55 1518.27 Q1744.63 1513.66 1750.44 1513.66 Z" fill="#000000" fill-rule="nonzero" fill-opacity="1" /><path clip-path="url(#clip740)" d="M1770.6 1542.97 L1775.48 1542.97 L1775.48 1548.85 L1770.6 1548.85 L1770.6 1542.97 Z" fill="#000000" fill-rule="nonzero" fill-opacity="1" /><path clip-path="url(#clip740)" d="M1785.71 1514.29 L1804.07 1514.29 L1804.07 1518.22 L1790 1518.22 L1790 1526.7 Q1791.01 1526.35 1792.03 1526.19 Q1793.05 1526 1794.07 1526 Q1799.86 1526 1803.24 1529.17 Q1806.62 1532.34 1806.62 1537.76 Q1806.62 1543.34 1803.14 1546.44 Q1799.67 1549.52 1793.35 1549.52 Q1791.18 1549.52 1788.91 1549.15 Q1786.66 1548.78 1784.25 1548.04 L1784.25 1543.34 Q1786.34 1544.47 1788.56 1545.03 Q1790.78 1545.58 1793.26 1545.58 Q1797.26 1545.58 1799.6 1543.48 Q1801.94 1541.37 1801.94 1537.76 Q1801.94 1534.15 1799.6 1532.04 Q1797.26 1529.94 1793.26 1529.94 Q1791.38 1529.94 1789.51 1530.35 Q1787.66 1530.77 1785.71 1531.65 L1785.71 1514.29 Z" fill="#000000" fill-rule="nonzero" fill-opacity="1" /><path clip-path="url(#clip740)" d="M2257.74 1544.91 L2265.38 1544.91 L2265.38 1518.55 L2257.07 1520.21 L2257.07 1515.95 L2265.34 1514.29 L2270.01 1514.29 L2270.01 1544.91 L2277.65 1544.91 L2277.65 1548.85 L2257.74 1548.85 L2257.74 1544.91 Z" fill="#000000" fill-rule="nonzero" fill-opacity="1" /><path clip-path="url(#clip740)" d="M2287.1 1542.97 L2291.98 1542.97 L2291.98 1548.85 L2287.1 1548.85 L2287.1 1542.97 Z" fill="#000000" fill-rule="nonzero" fill-opacity="1" /><path clip-path="url(#clip740)" d="M2312.17 1517.37 Q2308.55 1517.37 2306.73 1520.93 Q2304.92 1524.47 2304.92 1531.6 Q2304.92 1538.71 2306.73 1542.27 Q2308.55 1545.82 2312.17 1545.82 Q2315.8 1545.82 2317.61 1542.27 Q2319.43 1538.71 2319.43 1531.6 Q2319.43 1524.47 2317.61 1520.93 Q2315.8 1517.37 2312.17 1517.37 M2312.17 1513.66 Q2317.98 1513.66 2321.03 1518.27 Q2324.11 1522.85 2324.11 1531.6 Q2324.11 1540.33 2321.03 1544.94 Q2317.98 1549.52 2312.17 1549.52 Q2306.36 1549.52 2303.28 1544.94 Q2300.22 1540.33 2300.22 1531.6 Q2300.22 1522.85 2303.28 1518.27 Q2306.36 1513.66 2312.17 1513.66 Z" fill="#000000" fill-rule="nonzero" fill-opacity="1" /><polyline clip-path="url(#clip742)" style="stroke:#000000; stroke-linecap:round; stroke-linejoin:round; stroke-width:2; stroke-opacity:0.1; fill:none" points="156.274,1234.97 2352.76,1234.97 "/>
<polyline clip-path="url(#clip742)" style="stroke:#000000; stroke-linecap:round; stroke-linejoin:round; stroke-width:2; stroke-opacity:0.1; fill:none" points="156.274,965.79 2352.76,965.79 "/>
<polyline clip-path="url(#clip742)" style="stroke:#000000; stroke-linecap:round; stroke-linejoin:round; stroke-width:2; stroke-opacity:0.1; fill:none" points="156.274,696.609 2352.76,696.609 "/>
<polyline clip-path="url(#clip742)" style="stroke:#000000; stroke-linecap:round; stroke-linejoin:round; stroke-width:2; stroke-opacity:0.1; fill:none" points="156.274,427.427 2352.76,427.427 "/>
<polyline clip-path="url(#clip742)" style="stroke:#000000; stroke-linecap:round; stroke-linejoin:round; stroke-width:2; stroke-opacity:0.1; fill:none" points="156.274,158.246 2352.76,158.246 "/>
<polyline clip-path="url(#clip740)" style="stroke:#000000; stroke-linecap:round; stroke-linejoin:round; stroke-width:4; stroke-opacity:1; fill:none" points="156.274,1486.45 156.274,47.2441 "/>
<polyline clip-path="url(#clip740)" style="stroke:#000000; stroke-linecap:round; stroke-linejoin:round; stroke-width:4; stroke-opacity:1; fill:none" points="156.274,1234.97 175.172,1234.97 "/>
<polyline clip-path="url(#clip740)" style="stroke:#000000; stroke-linecap:round; stroke-linejoin:round; stroke-width:4; stroke-opacity:1; fill:none" points="156.274,965.79 175.172,965.79 "/>
<polyline clip-path="url(#clip740)" style="stroke:#000000; stroke-linecap:round; stroke-linejoin:round; stroke-width:4; stroke-opacity:1; fill:none" points="156.274,696.609 175.172,696.609 "/>
<polyline clip-path="url(#clip740)" style="stroke:#000000; stroke-linecap:round; stroke-linejoin:round; stroke-width:4; stroke-opacity:1; fill:none" points="156.274,427.427 175.172,427.427 "/>
<polyline clip-path="url(#clip740)" style="stroke:#000000; stroke-linecap:round; stroke-linejoin:round; stroke-width:4; stroke-opacity:1; fill:none" points="156.274,158.246 175.172,158.246 "/>
<path clip-path="url(#clip740)" d="M63.0985 1220.77 Q59.4875 1220.77 57.6588 1224.33 Q55.8532 1227.88 55.8532 1235.01 Q55.8532 1242.11 57.6588 1245.68 Q59.4875 1249.22 63.0985 1249.22 Q66.7328 1249.22 68.5383 1245.68 Q70.367 1242.11 70.367 1235.01 Q70.367 1227.88 68.5383 1224.33 Q66.7328 1220.77 63.0985 1220.77 M63.0985 1217.07 Q68.9087 1217.07 71.9642 1221.67 Q75.0429 1226.26 75.0429 1235.01 Q75.0429 1243.73 71.9642 1248.34 Q68.9087 1252.92 63.0985 1252.92 Q57.2884 1252.92 54.2097 1248.34 Q51.1542 1243.73 51.1542 1235.01 Q51.1542 1226.26 54.2097 1221.67 Q57.2884 1217.07 63.0985 1217.07 Z" fill="#000000" fill-rule="nonzero" fill-opacity="1" /><path clip-path="url(#clip740)" d="M83.2605 1246.37 L88.1447 1246.37 L88.1447 1252.25 L83.2605 1252.25 L83.2605 1246.37 Z" fill="#000000" fill-rule="nonzero" fill-opacity="1" /><path clip-path="url(#clip740)" d="M108.33 1220.77 Q104.719 1220.77 102.89 1224.33 Q101.084 1227.88 101.084 1235.01 Q101.084 1242.11 102.89 1245.68 Q104.719 1249.22 108.33 1249.22 Q111.964 1249.22 113.77 1245.68 Q115.598 1242.11 115.598 1235.01 Q115.598 1227.88 113.77 1224.33 Q111.964 1220.77 108.33 1220.77 M108.33 1217.07 Q114.14 1217.07 117.195 1221.67 Q120.274 1226.26 120.274 1235.01 Q120.274 1243.73 117.195 1248.34 Q114.14 1252.92 108.33 1252.92 Q102.52 1252.92 99.4409 1248.34 Q96.3854 1243.73 96.3854 1235.01 Q96.3854 1226.26 99.4409 1221.67 Q102.52 1217.07 108.33 1217.07 Z" fill="#000000" fill-rule="nonzero" fill-opacity="1" /><path clip-path="url(#clip740)" d="M63.7467 951.589 Q60.1356 951.589 58.3069 955.153 Q56.5014 958.695 56.5014 965.825 Q56.5014 972.931 58.3069 976.496 Q60.1356 980.038 63.7467 980.038 Q67.3809 980.038 69.1865 976.496 Q71.0152 972.931 71.0152 965.825 Q71.0152 958.695 69.1865 955.153 Q67.3809 951.589 63.7467 951.589 M63.7467 947.885 Q69.5568 947.885 72.6124 952.491 Q75.6911 957.075 75.6911 965.825 Q75.6911 974.551 72.6124 979.158 Q69.5568 983.741 63.7467 983.741 Q57.9365 983.741 54.8578 979.158 Q51.8023 974.551 51.8023 965.825 Q51.8023 957.075 54.8578 952.491 Q57.9365 947.885 63.7467 947.885 Z" fill="#000000" fill-rule="nonzero" fill-opacity="1" /><path clip-path="url(#clip740)" d="M83.9086 977.19 L88.7928 977.19 L88.7928 983.07 L83.9086 983.07 L83.9086 977.19 Z" fill="#000000" fill-rule="nonzero" fill-opacity="1" /><path clip-path="url(#clip740)" d="M113.145 964.436 Q116.501 965.153 118.376 967.422 Q120.274 969.69 120.274 973.024 Q120.274 978.139 116.756 980.94 Q113.237 983.741 106.756 983.741 Q104.58 983.741 102.265 983.301 Q99.9733 982.885 97.5197 982.028 L97.5197 977.514 Q99.4641 978.649 101.779 979.227 Q104.094 979.806 106.617 979.806 Q111.015 979.806 113.307 978.07 Q115.621 976.334 115.621 973.024 Q115.621 969.968 113.469 968.255 Q111.339 966.519 107.52 966.519 L103.492 966.519 L103.492 962.677 L107.705 962.677 Q111.154 962.677 112.983 961.311 Q114.811 959.922 114.811 957.329 Q114.811 954.667 112.913 953.255 Q111.038 951.82 107.52 951.82 Q105.598 951.82 103.399 952.237 Q101.2 952.653 98.5613 953.533 L98.5613 949.366 Q101.223 948.626 103.538 948.255 Q105.876 947.885 107.936 947.885 Q113.26 947.885 116.362 950.315 Q119.464 952.723 119.464 956.843 Q119.464 959.714 117.82 961.704 Q116.177 963.672 113.145 964.436 Z" fill="#000000" fill-rule="nonzero" fill-opacity="1" /><path clip-path="url(#clip740)" d="M62.9365 682.407 Q59.3254 682.407 57.4967 685.972 Q55.6912 689.514 55.6912 696.643 Q55.6912 703.75 57.4967 707.315 Q59.3254 710.856 62.9365 710.856 Q66.5707 710.856 68.3763 707.315 Q70.205 703.75 70.205 696.643 Q70.205 689.514 68.3763 685.972 Q66.5707 682.407 62.9365 682.407 M62.9365 678.704 Q68.7467 678.704 71.8022 683.31 Q74.8809 687.893 74.8809 696.643 Q74.8809 705.37 71.8022 709.977 Q68.7467 714.56 62.9365 714.56 Q57.1264 714.56 54.0477 709.977 Q50.9921 705.37 50.9921 696.643 Q50.9921 687.893 54.0477 683.31 Q57.1264 678.704 62.9365 678.704 Z" fill="#000000" fill-rule="nonzero" fill-opacity="1" /><path clip-path="url(#clip740)" d="M83.0984 708.009 L87.9827 708.009 L87.9827 713.889 L83.0984 713.889 L83.0984 708.009 Z" fill="#000000" fill-rule="nonzero" fill-opacity="1" /><path clip-path="url(#clip740)" d="M108.746 694.745 Q105.598 694.745 103.746 696.898 Q101.918 699.051 101.918 702.801 Q101.918 706.528 103.746 708.703 Q105.598 710.856 108.746 710.856 Q111.895 710.856 113.723 708.703 Q115.575 706.528 115.575 702.801 Q115.575 699.051 113.723 696.898 Q111.895 694.745 108.746 694.745 M118.029 680.093 L118.029 684.352 Q116.27 683.518 114.464 683.079 Q112.682 682.639 110.922 682.639 Q106.293 682.639 103.839 685.764 Q101.409 688.889 101.061 695.208 Q102.427 693.194 104.487 692.129 Q106.547 691.042 109.024 691.042 Q114.233 691.042 117.242 694.213 Q120.274 697.361 120.274 702.801 Q120.274 708.125 117.126 711.342 Q113.978 714.56 108.746 714.56 Q102.751 714.56 99.5798 709.977 Q96.4085 705.37 96.4085 696.643 Q96.4085 688.449 100.297 683.588 Q104.186 678.704 110.737 678.704 Q112.496 678.704 114.279 679.051 Q116.084 679.398 118.029 680.093 Z" fill="#000000" fill-rule="nonzero" fill-opacity="1" /><path clip-path="url(#clip740)" d="M63.2837 413.226 Q59.6726 413.226 57.8439 416.791 Q56.0384 420.332 56.0384 427.462 Q56.0384 434.568 57.8439 438.133 Q59.6726 441.675 63.2837 441.675 Q66.918 441.675 68.7235 438.133 Q70.5522 434.568 70.5522 427.462 Q70.5522 420.332 68.7235 416.791 Q66.918 413.226 63.2837 413.226 M63.2837 409.522 Q69.0939 409.522 72.1494 414.129 Q75.2281 418.712 75.2281 427.462 Q75.2281 436.189 72.1494 440.795 Q69.0939 445.379 63.2837 445.379 Q57.4736 445.379 54.3949 440.795 Q51.3393 436.189 51.3393 427.462 Q51.3393 418.712 54.3949 414.129 Q57.4736 409.522 63.2837 409.522 Z" fill="#000000" fill-rule="nonzero" fill-opacity="1" /><path clip-path="url(#clip740)" d="M83.4457 438.828 L88.3299 438.828 L88.3299 444.707 L83.4457 444.707 L83.4457 438.828 Z" fill="#000000" fill-rule="nonzero" fill-opacity="1" /><path clip-path="url(#clip740)" d="M98.6539 443.99 L98.6539 439.73 Q100.413 440.564 102.219 441.004 Q104.024 441.443 105.76 441.443 Q110.39 441.443 112.82 438.342 Q115.274 435.217 115.621 428.874 Q114.279 430.865 112.219 431.93 Q110.158 432.994 107.658 432.994 Q102.473 432.994 99.4409 429.869 Q96.4317 426.721 96.4317 421.282 Q96.4317 415.957 99.5798 412.74 Q102.728 409.522 107.959 409.522 Q113.955 409.522 117.103 414.129 Q120.274 418.712 120.274 427.462 Q120.274 435.633 116.385 440.518 Q112.52 445.379 105.969 445.379 Q104.209 445.379 102.404 445.031 Q100.598 444.684 98.6539 443.99 M107.959 429.337 Q111.108 429.337 112.936 427.184 Q114.788 425.031 114.788 421.282 Q114.788 417.555 112.936 415.402 Q111.108 413.226 107.959 413.226 Q104.811 413.226 102.959 415.402 Q101.131 417.555 101.131 421.282 Q101.131 425.031 102.959 427.184 Q104.811 429.337 107.959 429.337 Z" fill="#000000" fill-rule="nonzero" fill-opacity="1" /><path clip-path="url(#clip740)" d="M55.506 171.591 L63.1448 171.591 L63.1448 145.225 L54.8347 146.892 L54.8347 142.633 L63.0985 140.966 L67.7744 140.966 L67.7744 171.591 L75.4133 171.591 L75.4133 175.526 L55.506 175.526 L55.506 171.591 Z" fill="#000000" fill-rule="nonzero" fill-opacity="1" /><path clip-path="url(#clip740)" d="M84.8577 169.646 L89.7419 169.646 L89.7419 175.526 L84.8577 175.526 L84.8577 169.646 Z" fill="#000000" fill-rule="nonzero" fill-opacity="1" /><path clip-path="url(#clip740)" d="M103.955 171.591 L120.274 171.591 L120.274 175.526 L98.3298 175.526 L98.3298 171.591 Q100.992 168.836 105.575 164.207 Q110.182 159.554 111.362 158.211 Q113.608 155.688 114.487 153.952 Q115.39 152.193 115.39 150.503 Q115.39 147.748 113.445 146.012 Q111.524 144.276 108.422 144.276 Q106.223 144.276 103.77 145.04 Q101.339 145.804 98.5613 147.355 L98.5613 142.633 Q101.385 141.498 103.839 140.92 Q106.293 140.341 108.33 140.341 Q113.7 140.341 116.895 143.026 Q120.089 145.711 120.089 150.202 Q120.089 152.332 119.279 154.253 Q118.492 156.151 116.385 158.744 Q115.807 159.415 112.705 162.633 Q109.603 165.827 103.955 171.591 Z" fill="#000000" fill-rule="nonzero" fill-opacity="1" /><polyline clip-path="url(#clip742)" style="stroke:#009af9; stroke-linecap:round; stroke-linejoin:round; stroke-width:16; stroke-opacity:1; fill:none" stroke-dasharray="8, 16" points="218.439,1098.37 228.852,1083 239.264,1070.68 249.677,1062.55 260.09,1059.27 270.503,1061.19 280.916,1068.44 291.329,1081.02 301.741,1098.82 312.154,1121.57 322.567,1148.79 332.98,1179.67 343.393,1212.98 353.805,1247.06 364.218,1280.1 374.631,1310.52 385.044,1337.43 395.457,1360.68 405.87,1380.4 416.282,1396.52 426.695,1408.37 437.108,1414.83 447.521,1414.79 457.934,1407.84 468.347,1394.63 478.759,1376.45 489.172,1354.4 499.585,1328.85 509.998,1299.79 520.411,1267.79 530.824,1234.49 541.236,1201.98 551.649,1171.75 562.062,1144.27 572.475,1119.42 582.888,1097.1 593.301,1077.88 603.713,1063.17 614.126,1054.77 624.539,1053.7 634.952,1059.56 645.365,1071.05 655.777,1087.11 666.19,1107.33 676.603,1131.55 687.016,1159.32 697.429,1189.75 707.842,1221.75 718.254,1254.23 728.667,1286.12 739.08,1316.36 749.493,1343.91 759.906,1367.79 770.319,1387.22 780.731,1401.65 791.144,1410.72 801.557,1414.21 811.97,1412 822.383,1404 832.796,1390.34 843.208,1371.43 853.621,1348.04 864.034,1321.12 874.447,1291.57 884.86,1260.11 895.273,1227.4 905.685,1194.3 916.098,1162.23 926.511,1133.35 936.924,1110.46 947.337,1094.71 957.749,1080.95 968.162,1061.21 978.575,1053.78 988.988,1087.86 999.401,1107.24 1009.81,1104.25 1020.23,1095.97 1030.64,1086.52 1041.05,1081.96 1051.46,1105.59 1061.88,1185.44 1072.29,1251.24 1082.7,1269.3 1093.12,1273.59 1103.53,1310.43 1113.94,1390.03 1124.35,1435.53 1134.77,1445.72 1145.18,1419.57 1155.59,1392.06 1166.01,1383.19 1176.42,1389.73 1186.83,1397.13 1197.24,1386.42 1207.66,1366.22 1218.07,1343.32 1228.48,1315.04 1238.9,1278.47 1249.31,1216.91 1259.72,1037.01 1270.13,575.602 1280.55,232.473 1290.96,147.138 1301.37,258.836 1311.79,348.059 1322.2,350.781 1332.61,353.875 1343.02,346.662 1353.44,328.544 1363.85,321.045 1374.26,357.677 1384.68,367.455 1395.09,339.423 1405.5,337.706 1415.91,383.159 1426.33,426.635 1436.74,423.17 1447.15,363.213 1457.57,272.048 1467.98,219.363 1478.39,241.493 1488.8,290.757 1499.22,327.036 1509.63,340.596 1520.04,340.261 1530.45,353.557 1540.87,383.592 1551.28,407.573 1561.69,411.839 1572.11,392.511 1582.52,352.403 1592.93,303.757 1603.34,262.347 1613.76,244.936 1624.17,259.398 1634.58,296.303 1645,341.66 1655.41,386.076 1665.82,421.719 1676.23,439.599 1686.65,430.342 1697.06,391.99 1707.47,334.173 1717.89,271.68 1728.3,223.35 1738.71,211.105 1749.12,244.644 1759.54,308.789 1769.95,377.011 1780.36,430.186 1790.78,459.686 1801.19,461.894 1811.6,434.114 1822.01,375.777 1832.43,294.83 1842.84,214.453 1853.25,168.695 1863.67,181.046 1874.08,246.856 1884.49,338.75 1894.9,425.184 1905.32,482.554 1915.73,497.238 1926.14,468.006 1936.56,407.288 1946.97,333.15 1957.38,259.371 1967.79,196.916 1978.21,162.664 1988.62,178.657 1999.03,251.415 2009.45,357.509 2019.86,460.342 2030.27,527.273 2040.68,536.079 2051.1,484.381 2061.51,392.031 2071.92,288.043 2082.33,197.599 2092.75,140.136 2103.16,132.061 2113.57,183.037 2123.99,284.613 2134.4,406.32 2144.81,509.416 2155.22,565.123 2165.64,559.833 2176.05,491.295 2186.46,371.315 2196.88,234.383 2207.29,136.499 2217.7,117.973 2228.11,167.757 2238.53,248.51 2248.94,332.301 2259.35,406.9 2269.77,469.246 2280.18,519.983 2290.59,560.851 "/>
<polyline clip-path="url(#clip742)" style="stroke:#e26f46; stroke-linecap:round; stroke-linejoin:round; stroke-width:4; stroke-opacity:1; fill:none" points="218.439,1100.2 228.852,1081.08 239.264,1066.98 249.677,1058.37 260.09,1055.52 270.503,1058.52 280.916,1067.29 291.329,1081.52 301.741,1100.77 312.154,1124.39 322.567,1151.63 332.98,1181.58 343.393,1213.28 353.805,1245.68 364.218,1277.74 374.631,1308.4 385.044,1336.66 395.457,1361.6 405.87,1382.41 416.282,1398.41 426.695,1409.08 437.108,1414.06 447.521,1413.2 457.934,1406.52 468.347,1394.24 478.759,1376.76 489.172,1354.66 499.585,1328.65 509.998,1299.58 520.411,1268.4 530.824,1236.14 541.236,1203.83 551.649,1172.54 562.062,1143.29 572.475,1117.03 582.888,1094.62 593.301,1076.79 603.713,1064.12 614.126,1057.03 624.539,1055.75 634.952,1060.31 645.365,1070.58 655.777,1086.21 666.19,1106.7 676.603,1131.37 687.016,1159.43 697.429,1189.95 707.842,1221.93 718.254,1254.35 728.667,1286.13 739.08,1316.24 749.493,1343.7 759.906,1367.62 770.319,1387.2 780.731,1401.81 791.144,1410.98 801.557,1414.4 811.97,1411.97 822.383,1403.76 832.796,1390.05 843.208,1371.27 853.621,1348.04 864.034,1321.12 874.447,1291.39 884.86,1259.82 895.273,1227.44 905.685,1195.3 916.098,1164.46 926.511,1135.92 936.924,1110.62 947.337,1089.37 957.749,1072.87 968.162,1061.66 978.575,1056.11 988.988,1056.4 999.401,1062.52 1009.81,1074.26 1020.23,1091.25 1030.64,1112.93 1041.05,1138.59 1051.46,1167.4 1061.88,1198.42 1072.29,1230.62 1082.7,1262.97 1093.12,1294.41 1103.53,1323.9 1113.94,1350.49 1124.35,1373.32 1134.77,1391.62 1145.18,1404.82 1155.59,1412.47 1166.01,1414.33 1176.42,1410.33 1186.83,1400.61 1197.24,1385.49 1207.66,1365.45 1218.07,1341.15 1228.48,1313.39 1238.9,1283.07 1249.31,1251.18 1259.72,336.397 1270.13,334.914 1280.55,336.264 1290.96,340.757 1301.37,347.016 1311.79,352.397 1322.2,353.991 1332.61,349.85 1343.02,339.98 1353.44,326.674 1363.85,314.013 1374.26,306.616 1384.68,308.035 1395.09,319.321 1405.5,338.303 1415.91,359.906 1426.33,377.498 1436.74,384.919 1447.15,378.567 1457.57,358.857 1467.98,330.508 1478.39,301.455 1488.8,280.632 1499.22,275.238 1509.63,288.314 1520.04,317.447 1530.45,355.072 1540.87,390.415 1551.28,412.581 1561.69,413.894 1572.11,392.479 1582.52,353.232 1592.93,306.774 1603.34,266.587 1613.76,245.105 1624.17,249.882 1634.58,281.027 1645,330.747 1655.41,385.253 1665.82,428.58 1676.23,447.26 1686.65,434.486 1697.06,392.482 1707.47,332.277 1717.89,270.84 1728.3,226.294 1738.71,212.574 1749.12,235.102 1759.54,288.797 1769.95,359.139 1780.36,426.078 1790.78,469.75 1801.19,476.365 1811.6,442.526 1822.01,376.635 1832.43,296.86 1842.84,226.133 1853.25,185.557 1863.67,188.122 1874.08,234.586 1884.49,312.828 1894.9,400.98 1905.32,473.531 1915.73,508.711 1926.14,495.012 1936.56,434.896 1946.97,344.511 1957.38,249.376 1967.79,177.178 1978.21,149.715 1988.62,176.329 1999.03,250.807 2009.45,352.754 2019.86,453.16 2030.27,522.661 2040.68,540.118 2051.1,499.03 2061.51,409.829 2071.92,297.276 2082.33,193.597 2092.75,129.256 2103.16,124.007 2113.57,180.858 2123.99,284.77 2134.4,406.61 2144.81,511.311 2155.22,567.966 2165.64,558.946 2176.05,485.35 2186.46,367.124 2196.88,237.668 2207.29,134.408 2217.7,87.9763 2228.11,113.13 2238.53,204.107 2248.94,335.858 2259.35,470.932 2269.77,570.122 2280.18,603.84 2290.59,560.935 "/>
<path clip-path="url(#clip740)" d="M229.49 250.738 L675.966 250.738 L675.966 95.2176 L229.49 95.2176  Z" fill="#ffffff" fill-rule="evenodd" fill-opacity="1"/>
<polyline clip-path="url(#clip740)" style="stroke:#000000; stroke-linecap:round; stroke-linejoin:round; stroke-width:4; stroke-opacity:1; fill:none" points="229.49,250.738 675.966,250.738 675.966,95.2176 229.49,95.2176 229.49,250.738 "/>
<polyline clip-path="url(#clip740)" style="stroke:#009af9; stroke-linecap:round; stroke-linejoin:round; stroke-width:16; stroke-opacity:1; fill:none" stroke-dasharray="8, 16" points="253.896,147.058 400.328,147.058 "/>
<path clip-path="url(#clip740)" d="M429.409 133.62 L429.409 146.606 L435.289 146.606 Q438.552 146.606 440.335 144.916 Q442.117 143.227 442.117 140.102 Q442.117 137 440.335 135.31 Q438.552 133.62 435.289 133.62 L429.409 133.62 M424.733 129.778 L435.289 129.778 Q441.099 129.778 444.062 132.416 Q447.048 135.032 447.048 140.102 Q447.048 145.217 444.062 147.833 Q441.099 150.449 435.289 150.449 L429.409 150.449 L429.409 164.338 L424.733 164.338 L424.733 129.778 Z" fill="#000000" fill-rule="nonzero" fill-opacity="1" /><path clip-path="url(#clip740)" d="M467.325 142.393 Q466.608 141.977 465.751 141.791 Q464.918 141.583 463.899 141.583 Q460.288 141.583 458.344 143.944 Q456.423 146.282 456.423 150.68 L456.423 164.338 L452.14 164.338 L452.14 138.412 L456.423 138.412 L456.423 142.44 Q457.765 140.078 459.918 138.944 Q462.071 137.787 465.149 137.787 Q465.589 137.787 466.122 137.856 Q466.654 137.903 467.302 138.018 L467.325 142.393 Z" fill="#000000" fill-rule="nonzero" fill-opacity="1" /><path clip-path="url(#clip740)" d="M492.927 150.31 L492.927 152.393 L473.344 152.393 Q473.622 156.791 475.983 159.106 Q478.367 161.398 482.603 161.398 Q485.057 161.398 487.348 160.796 Q489.663 160.194 491.932 158.99 L491.932 163.018 Q489.64 163.99 487.233 164.5 Q484.825 165.009 482.348 165.009 Q476.145 165.009 472.511 161.398 Q468.899 157.787 468.899 151.629 Q468.899 145.264 472.325 141.537 Q475.774 137.787 481.608 137.787 Q486.839 137.787 489.872 141.166 Q492.927 144.523 492.927 150.31 M488.668 149.06 Q488.622 145.565 486.7 143.481 Q484.802 141.398 481.654 141.398 Q478.089 141.398 475.936 143.412 Q473.807 145.426 473.483 149.083 L488.668 149.06 Z" fill="#000000" fill-rule="nonzero" fill-opacity="1" /><path clip-path="url(#clip740)" d="M516.978 142.347 L516.978 128.319 L521.237 128.319 L521.237 164.338 L516.978 164.338 L516.978 160.449 Q515.635 162.763 513.575 163.898 Q511.538 165.009 508.668 165.009 Q503.969 165.009 501.006 161.259 Q498.066 157.509 498.066 151.398 Q498.066 145.287 501.006 141.537 Q503.969 137.787 508.668 137.787 Q511.538 137.787 513.575 138.921 Q515.635 140.032 516.978 142.347 M502.464 151.398 Q502.464 156.097 504.385 158.782 Q506.33 161.444 509.709 161.444 Q513.089 161.444 515.033 158.782 Q516.978 156.097 516.978 151.398 Q516.978 146.699 515.033 144.037 Q513.089 141.352 509.709 141.352 Q506.33 141.352 504.385 144.037 Q502.464 146.699 502.464 151.398 Z" fill="#000000" fill-rule="nonzero" fill-opacity="1" /><path clip-path="url(#clip740)" d="M530.01 138.412 L534.269 138.412 L534.269 164.338 L530.01 164.338 L530.01 138.412 M530.01 128.319 L534.269 128.319 L534.269 133.713 L530.01 133.713 L530.01 128.319 Z" fill="#000000" fill-rule="nonzero" fill-opacity="1" /><path clip-path="url(#clip740)" d="M561.839 139.407 L561.839 143.389 Q560.033 142.393 558.205 141.907 Q556.399 141.398 554.547 141.398 Q550.404 141.398 548.112 144.037 Q545.82 146.652 545.82 151.398 Q545.82 156.143 548.112 158.782 Q550.404 161.398 554.547 161.398 Q556.399 161.398 558.205 160.912 Q560.033 160.402 561.839 159.407 L561.839 163.342 Q560.056 164.176 558.135 164.592 Q556.237 165.009 554.084 165.009 Q548.228 165.009 544.779 161.328 Q541.33 157.648 541.33 151.398 Q541.33 145.055 544.802 141.421 Q548.297 137.787 554.362 137.787 Q556.33 137.787 558.205 138.203 Q560.08 138.597 561.839 139.407 Z" fill="#000000" fill-rule="nonzero" fill-opacity="1" /><path clip-path="url(#clip740)" d="M573.459 131.051 L573.459 138.412 L582.232 138.412 L582.232 141.722 L573.459 141.722 L573.459 155.796 Q573.459 158.967 574.316 159.87 Q575.195 160.773 577.857 160.773 L582.232 160.773 L582.232 164.338 L577.857 164.338 Q572.927 164.338 571.052 162.509 Q569.177 160.657 569.177 155.796 L569.177 141.722 L566.052 141.722 L566.052 138.412 L569.177 138.412 L569.177 131.051 L573.459 131.051 Z" fill="#000000" fill-rule="nonzero" fill-opacity="1" /><path clip-path="url(#clip740)" d="M587.834 138.412 L592.093 138.412 L592.093 164.338 L587.834 164.338 L587.834 138.412 M587.834 128.319 L592.093 128.319 L592.093 133.713 L587.834 133.713 L587.834 128.319 Z" fill="#000000" fill-rule="nonzero" fill-opacity="1" /><path clip-path="url(#clip740)" d="M611.051 141.398 Q607.626 141.398 605.635 144.083 Q603.644 146.745 603.644 151.398 Q603.644 156.051 605.612 158.736 Q607.602 161.398 611.051 161.398 Q614.454 161.398 616.445 158.713 Q618.436 156.027 618.436 151.398 Q618.436 146.791 616.445 144.106 Q614.454 141.398 611.051 141.398 M611.051 137.787 Q616.607 137.787 619.778 141.398 Q622.95 145.009 622.95 151.398 Q622.95 157.764 619.778 161.398 Q616.607 165.009 611.051 165.009 Q605.473 165.009 602.302 161.398 Q599.153 157.764 599.153 151.398 Q599.153 145.009 602.302 141.398 Q605.473 137.787 611.051 137.787 Z" fill="#000000" fill-rule="nonzero" fill-opacity="1" /><path clip-path="url(#clip740)" d="M651.561 148.689 L651.561 164.338 L647.301 164.338 L647.301 148.828 Q647.301 145.148 645.866 143.319 Q644.431 141.49 641.561 141.49 Q638.112 141.49 636.121 143.69 Q634.13 145.889 634.13 149.685 L634.13 164.338 L629.848 164.338 L629.848 138.412 L634.13 138.412 L634.13 142.44 Q635.658 140.102 637.718 138.944 Q639.801 137.787 642.51 137.787 Q646.977 137.787 649.269 140.565 Q651.561 143.319 651.561 148.689 Z" fill="#000000" fill-rule="nonzero" fill-opacity="1" /><polyline clip-path="url(#clip740)" style="stroke:#e26f46; stroke-linecap:round; stroke-linejoin:round; stroke-width:4; stroke-opacity:1; fill:none" points="253.896,198.898 400.328,198.898 "/>
<path clip-path="url(#clip740)" d="M424.733 181.618 L446.585 181.618 L446.585 185.553 L429.409 185.553 L429.409 195.784 L445.867 195.784 L445.867 199.719 L429.409 199.719 L429.409 212.242 L447.001 212.242 L447.001 216.178 L424.733 216.178 L424.733 181.618 Z" fill="#000000" fill-rule="nonzero" fill-opacity="1" /><path clip-path="url(#clip740)" d="M476.052 190.252 L466.677 202.867 L476.538 216.178 L471.515 216.178 L463.969 205.992 L456.423 216.178 L451.4 216.178 L461.469 202.613 L452.256 190.252 L457.279 190.252 L464.154 199.488 L471.029 190.252 L476.052 190.252 Z" fill="#000000" fill-rule="nonzero" fill-opacity="1" /><path clip-path="url(#clip740)" d="M494.339 203.145 Q489.177 203.145 487.186 204.326 Q485.196 205.506 485.196 208.354 Q485.196 210.622 486.677 211.965 Q488.182 213.284 490.751 213.284 Q494.293 213.284 496.422 210.784 Q498.575 208.261 498.575 204.094 L498.575 203.145 L494.339 203.145 M502.834 201.386 L502.834 216.178 L498.575 216.178 L498.575 212.242 Q497.117 214.603 494.941 215.738 Q492.765 216.849 489.617 216.849 Q485.635 216.849 483.274 214.627 Q480.936 212.381 480.936 208.631 Q480.936 204.256 483.853 202.034 Q486.793 199.812 492.603 199.812 L498.575 199.812 L498.575 199.395 Q498.575 196.455 496.631 194.858 Q494.71 193.238 491.214 193.238 Q488.992 193.238 486.885 193.77 Q484.779 194.303 482.835 195.367 L482.835 191.432 Q485.173 190.53 487.372 190.09 Q489.571 189.627 491.654 189.627 Q497.279 189.627 500.057 192.543 Q502.834 195.46 502.834 201.386 Z" fill="#000000" fill-rule="nonzero" fill-opacity="1" /><path clip-path="url(#clip740)" d="M530.265 191.247 L530.265 195.229 Q528.459 194.233 526.631 193.747 Q524.825 193.238 522.973 193.238 Q518.83 193.238 516.538 195.877 Q514.246 198.492 514.246 203.238 Q514.246 207.983 516.538 210.622 Q518.83 213.238 522.973 213.238 Q524.825 213.238 526.631 212.752 Q528.459 212.242 530.265 211.247 L530.265 215.182 Q528.482 216.016 526.561 216.432 Q524.663 216.849 522.51 216.849 Q516.654 216.849 513.205 213.168 Q509.756 209.488 509.756 203.238 Q509.756 196.895 513.228 193.261 Q516.723 189.627 522.788 189.627 Q524.756 189.627 526.631 190.043 Q528.506 190.437 530.265 191.247 Z" fill="#000000" fill-rule="nonzero" fill-opacity="1" /><path clip-path="url(#clip740)" d="M541.885 182.891 L541.885 190.252 L550.658 190.252 L550.658 193.562 L541.885 193.562 L541.885 207.636 Q541.885 210.807 542.742 211.71 Q543.621 212.613 546.283 212.613 L550.658 212.613 L550.658 216.178 L546.283 216.178 Q541.353 216.178 539.478 214.349 Q537.603 212.497 537.603 207.636 L537.603 193.562 L534.478 193.562 L534.478 190.252 L537.603 190.252 L537.603 182.891 L541.885 182.891 Z" fill="#000000" fill-rule="nonzero" fill-opacity="1" /></svg>
