<?xml version="1.0" encoding="utf-8"?>
<svg xmlns="http://www.w3.org/2000/svg" xmlns:xlink="http://www.w3.org/1999/xlink" width="600" height="400" viewBox="0 0 2400 1600">
<defs>
  <clipPath id="clip550">
    <rect x="0" y="0" width="2400" height="1600"/>
  </clipPath>
</defs>
<path clip-path="url(#clip550)" d="M0 1600 L2400 1600 L2400 0 L0 0  Z" fill="#ffffff" fill-rule="evenodd" fill-opacity="1"/>
<defs>
  <clipPath id="clip551">
    <rect x="480" y="0" width="1681" height="1600"/>
  </clipPath>
</defs>
<path clip-path="url(#clip550)" d="M223.103 1486.45 L2352.76 1486.45 L2352.76 47.2441 L223.103 47.2441  Z" fill="#ffffff" fill-rule="evenodd" fill-opacity="1"/>
<defs>
  <clipPath id="clip552">
    <rect x="223" y="47" width="2131" height="1440"/>
  </clipPath>
</defs>
<polyline clip-path="url(#clip552)" style="stroke:#000000; stroke-linecap:round; stroke-linejoin:round; stroke-width:2; stroke-opacity:0.1; fill:none" points="283.376,1486.45 283.376,47.2441 "/>
<polyline clip-path="url(#clip552)" style="stroke:#000000; stroke-linecap:round; stroke-linejoin:round; stroke-width:2; stroke-opacity:0.1; fill:none" points="785.652,1486.45 785.652,47.2441 "/>
<polyline clip-path="url(#clip552)" style="stroke:#000000; stroke-linecap:round; stroke-linejoin:round; stroke-width:2; stroke-opacity:0.1; fill:none" points="1287.93,1486.45 1287.93,47.2441 "/>
<polyline clip-path="url(#clip552)" style="stroke:#000000; stroke-linecap:round; stroke-linejoin:round; stroke-width:2; stroke-opacity:0.1; fill:none" points="1790.21,1486.45 1790.21,47.2441 "/>
<polyline clip-path="url(#clip552)" style="stroke:#000000; stroke-linecap:round; stroke-linejoin:round; stroke-width:2; stroke-opacity:0.1; fill:none" points="2292.48,1486.45 2292.48,47.2441 "/>
<polyline clip-path="url(#clip550)" style="stroke:#000000; stroke-linecap:round; stroke-linejoin:round; stroke-width:4; stroke-opacity:1; fill:none" points="223.103,1486.45 2352.76,1486.45 "/>
<polyline clip-path="url(#clip550)" style="stroke:#000000; stroke-linecap:round; stroke-linejoin:round; stroke-width:4; stroke-opacity:1; fill:none" points="283.376,1486.45 283.376,1467.55 "/>
<polyline clip-path="url(#clip550)" style="stroke:#000000; stroke-linecap:round; stroke-linejoin:round; stroke-width:4; stroke-opacity:1; fill:none" points="785.652,1486.45 785.652,1467.55 "/>
<polyline clip-path="url(#clip550)" style="stroke:#000000; stroke-linecap:round; stroke-linejoin:round; stroke-width:4; stroke-opacity:1; fill:none" points="1287.93,1486.45 1287.93,1467.55 "/>
<polyline clip-path="url(#clip550)" style="stroke:#000000; stroke-linecap:round; stroke-linejoin:round; stroke-width:4; stroke-opacity:1; fill:none" points="1790.21,1486.45 1790.21,1467.55 "/>
<polyline clip-path="url(#clip550)" style="stroke:#000000; stroke-linecap:round; stroke-linejoin:round; stroke-width:4; stroke-opacity:1; fill:none" points="2292.48,1486.45 2292.48,1467.55 "/>
<path clip-path="url(#clip550)" d="M229.904 1532.02 L259.58 1532.02 L259.58 1535.95 L229.904 1535.95 L229.904 1532.02 Z" fill="#000000" fill-rule="nonzero" fill-opacity="1" /><path clip-path="url(#clip550)" d="M270.482 1544.91 L278.121 1544.91 L278.121 1518.55 L269.811 1520.21 L269.811 1515.95 L278.075 1514.29 L282.751 1514.29 L282.751 1544.91 L290.39 1544.91 L290.39 1548.85 L270.482 1548.85 L270.482 1544.91 Z" fill="#000000" fill-rule="nonzero" fill-opacity="1" /><path clip-path="url(#clip550)" d="M299.834 1542.97 L304.718 1542.97 L304.718 1548.85 L299.834 1548.85 L299.834 1542.97 Z" fill="#000000" fill-rule="nonzero" fill-opacity="1" /><path clip-path="url(#clip550)" d="M324.903 1517.37 Q321.292 1517.37 319.463 1520.93 Q317.658 1524.47 317.658 1531.6 Q317.658 1538.71 319.463 1542.27 Q321.292 1545.82 324.903 1545.82 Q328.538 1545.82 330.343 1542.27 Q332.172 1538.71 332.172 1531.6 Q332.172 1524.47 330.343 1520.93 Q328.538 1517.37 324.903 1517.37 M324.903 1513.66 Q330.713 1513.66 333.769 1518.27 Q336.848 1522.85 336.848 1531.6 Q336.848 1540.33 333.769 1544.94 Q330.713 1549.52 324.903 1549.52 Q319.093 1549.52 316.014 1544.94 Q312.959 1540.33 312.959 1531.6 Q312.959 1522.85 316.014 1518.27 Q319.093 1513.66 324.903 1513.66 Z" fill="#000000" fill-rule="nonzero" fill-opacity="1" /><path clip-path="url(#clip550)" d="M732.678 1532.02 L762.354 1532.02 L762.354 1535.95 L732.678 1535.95 L732.678 1532.02 Z" fill="#000000" fill-rule="nonzero" fill-opacity="1" /><path clip-path="url(#clip550)" d="M782.446 1517.37 Q778.835 1517.37 777.007 1520.93 Q775.201 1524.47 775.201 1531.6 Q775.201 1538.71 777.007 1542.27 Q778.835 1545.82 782.446 1545.82 Q786.081 1545.82 787.886 1542.27 Q789.715 1538.71 789.715 1531.6 Q789.715 1524.47 787.886 1520.93 Q786.081 1517.37 782.446 1517.37 M782.446 1513.66 Q788.257 1513.66 791.312 1518.27 Q794.391 1522.85 794.391 1531.6 Q794.391 1540.33 791.312 1544.94 Q788.257 1549.52 782.446 1549.52 Q776.636 1549.52 773.558 1544.94 Q770.502 1540.33 770.502 1531.6 Q770.502 1522.85 773.558 1518.27 Q776.636 1513.66 782.446 1513.66 Z" fill="#000000" fill-rule="nonzero" fill-opacity="1" /><path clip-path="url(#clip550)" d="M802.608 1542.97 L807.493 1542.97 L807.493 1548.85 L802.608 1548.85 L802.608 1542.97 Z" fill="#000000" fill-rule="nonzero" fill-opacity="1" /><path clip-path="url(#clip550)" d="M817.724 1514.29 L836.08 1514.29 L836.08 1518.22 L822.006 1518.22 L822.006 1526.7 Q823.025 1526.35 824.043 1526.19 Q825.062 1526 826.08 1526 Q831.867 1526 835.247 1529.17 Q838.627 1532.34 838.627 1537.76 Q838.627 1543.34 835.155 1546.44 Q831.682 1549.52 825.363 1549.52 Q823.187 1549.52 820.918 1549.15 Q818.673 1548.78 816.266 1548.04 L816.266 1543.34 Q818.349 1544.47 820.571 1545.03 Q822.793 1545.58 825.27 1545.58 Q829.275 1545.58 831.613 1543.48 Q833.951 1541.37 833.951 1537.76 Q833.951 1534.15 831.613 1532.04 Q829.275 1529.94 825.27 1529.94 Q823.395 1529.94 821.52 1530.35 Q819.668 1530.77 817.724 1531.65 L817.724 1514.29 Z" fill="#000000" fill-rule="nonzero" fill-opacity="1" /><path clip-path="url(#clip550)" d="M1265.31 1517.37 Q1261.7 1517.37 1259.87 1520.93 Q1258.07 1524.47 1258.07 1531.6 Q1258.07 1538.71 1259.87 1542.27 Q1261.7 1545.82 1265.31 1545.82 Q1268.95 1545.82 1270.75 1542.27 Q1272.58 1538.71 1272.58 1531.6 Q1272.58 1524.47 1270.75 1520.93 Q1268.95 1517.37 1265.31 1517.37 M1265.31 1513.66 Q1271.12 1513.66 1274.18 1518.27 Q1277.26 1522.85 1277.26 1531.6 Q1277.26 1540.33 1274.18 1544.94 Q1271.12 1549.52 1265.31 1549.52 Q1259.5 1549.52 1256.42 1544.94 Q1253.37 1540.33 1253.37 1531.6 Q1253.37 1522.85 1256.42 1518.27 Q1259.5 1513.66 1265.31 1513.66 Z" fill="#000000" fill-rule="nonzero" fill-opacity="1" /><path clip-path="url(#clip550)" d="M1285.48 1542.97 L1290.36 1542.97 L1290.36 1548.85 L1285.48 1548.85 L1285.48 1542.97 Z" fill="#000000" fill-rule="nonzero" fill-opacity="1" /><path clip-path="url(#clip550)" d="M1310.54 1517.37 Q1306.93 1517.37 1305.11 1520.93 Q1303.3 1524.47 1303.3 1531.6 Q1303.3 1538.71 1305.11 1542.27 Q1306.93 1545.82 1310.54 1545.82 Q1314.18 1545.82 1315.98 1542.27 Q1317.81 1538.71 1317.81 1531.6 Q1317.81 1524.47 1315.98 1520.93 Q1314.18 1517.37 1310.54 1517.37 M1310.54 1513.66 Q1316.35 1513.66 1319.41 1518.27 Q1322.49 1522.85 1322.49 1531.6 Q1322.49 1540.33 1319.41 1544.94 Q1316.35 1549.52 1310.54 1549.52 Q1304.73 1549.52 1301.66 1544.94 Q1298.6 1540.33 1298.6 1531.6 Q1298.6 1522.85 1301.66 1518.27 Q1304.73 1513.66 1310.54 1513.66 Z" fill="#000000" fill-rule="nonzero" fill-opacity="1" /><path clip-path="url(#clip550)" d="M1768.09 1517.37 Q1764.48 1517.37 1762.65 1520.93 Q1760.84 1524.47 1760.84 1531.6 Q1760.84 1538.71 1762.65 1542.27 Q1764.48 1545.82 1768.09 1545.82 Q1771.72 1545.82 1773.53 1542.27 Q1775.36 1538.71 1775.36 1531.6 Q1775.36 1524.47 1773.53 1520.93 Q1771.72 1517.37 1768.09 1517.37 M1768.09 1513.66 Q1773.9 1513.66 1776.95 1518.27 Q1780.03 1522.85 1780.03 1531.6 Q1780.03 1540.33 1776.95 1544.94 Q1773.9 1549.52 1768.09 1549.52 Q1762.28 1549.52 1759.2 1544.94 Q1756.14 1540.33 1756.14 1531.6 Q1756.14 1522.85 1759.2 1518.27 Q1762.28 1513.66 1768.09 1513.66 Z" fill="#000000" fill-rule="nonzero" fill-opacity="1" /><path clip-path="url(#clip550)" d="M1788.25 1542.97 L1793.13 1542.97 L1793.13 1548.85 L1788.25 1548.85 L1788.25 1542.97 Z" fill="#000000" fill-rule="nonzero" fill-opacity="1" /><path clip-path="url(#clip550)" d="M1803.37 1514.29 L1821.72 1514.29 L1821.72 1518.22 L1807.65 1518.22 L1807.65 1526.7 Q1808.67 1526.35 1809.69 1526.19 Q1810.7 1526 1811.72 1526 Q1817.51 1526 1820.89 1529.17 Q1824.27 1532.34 1824.27 1537.76 Q1824.27 1543.34 1820.8 1546.44 Q1817.32 1549.52 1811 1549.52 Q1808.83 1549.52 1806.56 1549.15 Q1804.31 1548.78 1801.91 1548.04 L1801.91 1543.34 Q1803.99 1544.47 1806.21 1545.03 Q1808.44 1545.58 1810.91 1545.58 Q1814.92 1545.58 1817.25 1543.48 Q1819.59 1541.37 1819.59 1537.76 Q1819.59 1534.15 1817.25 1532.04 Q1814.92 1529.94 1810.91 1529.94 Q1809.04 1529.94 1807.16 1530.35 Q1805.31 1530.77 1803.37 1531.65 L1803.37 1514.29 Z" fill="#000000" fill-rule="nonzero" fill-opacity="1" /><path clip-path="url(#clip550)" d="M2259.64 1544.91 L2267.27 1544.91 L2267.27 1518.55 L2258.96 1520.21 L2258.96 1515.95 L2267.23 1514.29 L2271.9 1514.29 L2271.9 1544.91 L2279.54 1544.91 L2279.54 1548.85 L2259.64 1548.85 L2259.64 1544.91 Z" fill="#000000" fill-rule="nonzero" fill-opacity="1" /><path clip-path="url(#clip550)" d="M2288.99 1542.97 L2293.87 1542.97 L2293.87 1548.85 L2288.99 1548.85 L2288.99 1542.97 Z" fill="#000000" fill-rule="nonzero" fill-opacity="1" /><path clip-path="url(#clip550)" d="M2314.06 1517.37 Q2310.45 1517.37 2308.62 1520.93 Q2306.81 1524.47 2306.81 1531.6 Q2306.81 1538.71 2308.62 1542.27 Q2310.45 1545.82 2314.06 1545.82 Q2317.69 1545.82 2319.5 1542.27 Q2321.33 1538.71 2321.33 1531.6 Q2321.33 1524.47 2319.5 1520.93 Q2317.69 1517.37 2314.06 1517.37 M2314.06 1513.66 Q2319.87 1513.66 2322.92 1518.27 Q2326 1522.85 2326 1531.6 Q2326 1540.33 2322.92 1544.94 Q2319.87 1549.52 2314.06 1549.52 Q2308.25 1549.52 2305.17 1544.94 Q2302.11 1540.33 2302.11 1531.6 Q2302.11 1522.85 2305.17 1518.27 Q2308.25 1513.66 2314.06 1513.66 Z" fill="#000000" fill-rule="nonzero" fill-opacity="1" /><polyline clip-path="url(#clip552)" style="stroke:#000000; stroke-linecap:round; stroke-linejoin:round; stroke-width:2; stroke-opacity:0.1; fill:none" points="223.103,1324.68 2352.76,1324.68 "/>
<polyline clip-path="url(#clip552)" style="stroke:#000000; stroke-linecap:round; stroke-linejoin:round; stroke-width:2; stroke-opacity:0.1; fill:none" points="223.103,1131.87 2352.76,1131.87 "/>
<polyline clip-path="url(#clip552)" style="stroke:#000000; stroke-linecap:round; stroke-linejoin:round; stroke-width:2; stroke-opacity:0.1; fill:none" points="223.103,939.063 2352.76,939.063 "/>
<polyline clip-path="url(#clip552)" style="stroke:#000000; stroke-linecap:round; stroke-linejoin:round; stroke-width:2; stroke-opacity:0.1; fill:none" points="223.103,746.256 2352.76,746.256 "/>
<polyline clip-path="url(#clip552)" style="stroke:#000000; stroke-linecap:round; stroke-linejoin:round; stroke-width:2; stroke-opacity:0.1; fill:none" points="223.103,553.449 2352.76,553.449 "/>
<polyline clip-path="url(#clip552)" style="stroke:#000000; stroke-linecap:round; stroke-linejoin:round; stroke-width:2; stroke-opacity:0.1; fill:none" points="223.103,360.642 2352.76,360.642 "/>
<polyline clip-path="url(#clip552)" style="stroke:#000000; stroke-linecap:round; stroke-linejoin:round; stroke-width:2; stroke-opacity:0.1; fill:none" points="223.103,167.835 2352.76,167.835 "/>
<polyline clip-path="url(#clip550)" style="stroke:#000000; stroke-linecap:round; stroke-linejoin:round; stroke-width:4; stroke-opacity:1; fill:none" points="223.103,1486.45 223.103,47.2441 "/>
<polyline clip-path="url(#clip550)" style="stroke:#000000; stroke-linecap:round; stroke-linejoin:round; stroke-width:4; stroke-opacity:1; fill:none" points="223.103,1324.68 242,1324.68 "/>
<polyline clip-path="url(#clip550)" style="stroke:#000000; stroke-linecap:round; stroke-linejoin:round; stroke-width:4; stroke-opacity:1; fill:none" points="223.103,1131.87 242,1131.87 "/>
<polyline clip-path="url(#clip550)" style="stroke:#000000; stroke-linecap:round; stroke-linejoin:round; stroke-width:4; stroke-opacity:1; fill:none" points="223.103,939.063 242,939.063 "/>
<polyline clip-path="url(#clip550)" style="stroke:#000000; stroke-linecap:round; stroke-linejoin:round; stroke-width:4; stroke-opacity:1; fill:none" points="223.103,746.256 242,746.256 "/>
<polyline clip-path="url(#clip550)" style="stroke:#000000; stroke-linecap:round; stroke-linejoin:round; stroke-width:4; stroke-opacity:1; fill:none" points="223.103,553.449 242,553.449 "/>
<polyline clip-path="url(#clip550)" style="stroke:#000000; stroke-linecap:round; stroke-linejoin:round; stroke-width:4; stroke-opacity:1; fill:none" points="223.103,360.642 242,360.642 "/>
<polyline clip-path="url(#clip550)" style="stroke:#000000; stroke-linecap:round; stroke-linejoin:round; stroke-width:4; stroke-opacity:1; fill:none" points="223.103,167.835 242,167.835 "/>
<path clip-path="url(#clip550)" d="M50.9921 1325.13 L80.6679 1325.13 L80.6679 1329.06 L50.9921 1329.06 L50.9921 1325.13 Z" fill="#000000" fill-rule="nonzero" fill-opacity="1" /><path clip-path="url(#clip550)" d="M100.76 1310.47 Q97.1493 1310.47 95.3206 1314.04 Q93.515 1317.58 93.515 1324.71 Q93.515 1331.82 95.3206 1335.38 Q97.1493 1338.92 100.76 1338.92 Q104.395 1338.92 106.2 1335.38 Q108.029 1331.82 108.029 1324.71 Q108.029 1317.58 106.2 1314.04 Q104.395 1310.47 100.76 1310.47 M100.76 1306.77 Q106.571 1306.77 109.626 1311.38 Q112.705 1315.96 112.705 1324.71 Q112.705 1333.44 109.626 1338.04 Q106.571 1342.63 100.76 1342.63 Q94.9502 1342.63 91.8715 1338.04 Q88.816 1333.44 88.816 1324.71 Q88.816 1315.96 91.8715 1311.38 Q94.9502 1306.77 100.76 1306.77 Z" fill="#000000" fill-rule="nonzero" fill-opacity="1" /><path clip-path="url(#clip550)" d="M120.922 1336.08 L125.807 1336.08 L125.807 1341.96 L120.922 1341.96 L120.922 1336.08 Z" fill="#000000" fill-rule="nonzero" fill-opacity="1" /><path clip-path="url(#clip550)" d="M140.019 1338.02 L156.339 1338.02 L156.339 1341.96 L134.394 1341.96 L134.394 1338.02 Q137.056 1335.27 141.64 1330.64 Q146.246 1325.98 147.427 1324.64 Q149.672 1322.12 150.552 1320.38 Q151.455 1318.62 151.455 1316.93 Q151.455 1314.18 149.51 1312.44 Q147.589 1310.71 144.487 1310.71 Q142.288 1310.71 139.834 1311.47 Q137.404 1312.23 134.626 1313.79 L134.626 1309.06 Q137.45 1307.93 139.904 1307.35 Q142.357 1306.77 144.394 1306.77 Q149.765 1306.77 152.959 1309.46 Q156.154 1312.14 156.154 1316.63 Q156.154 1318.76 155.343 1320.68 Q154.556 1322.58 152.45 1325.17 Q151.871 1325.85 148.769 1329.06 Q145.668 1332.26 140.019 1338.02 Z" fill="#000000" fill-rule="nonzero" fill-opacity="1" /><path clip-path="url(#clip550)" d="M166.2 1307.4 L184.556 1307.4 L184.556 1311.33 L170.482 1311.33 L170.482 1319.8 Q171.501 1319.46 172.519 1319.29 Q173.538 1319.11 174.556 1319.11 Q180.343 1319.11 183.723 1322.28 Q187.103 1325.45 187.103 1330.87 Q187.103 1336.45 183.63 1339.55 Q180.158 1342.63 173.839 1342.63 Q171.663 1342.63 169.394 1342.26 Q167.149 1341.89 164.742 1341.15 L164.742 1336.45 Q166.825 1337.58 169.047 1338.14 Q171.269 1338.69 173.746 1338.69 Q177.751 1338.69 180.089 1336.59 Q182.427 1334.48 182.427 1330.87 Q182.427 1327.26 180.089 1325.15 Q177.751 1323.04 173.746 1323.04 Q171.871 1323.04 169.996 1323.46 Q168.144 1323.88 166.2 1324.76 L166.2 1307.4 Z" fill="#000000" fill-rule="nonzero" fill-opacity="1" /><path clip-path="url(#clip550)" d="M99.765 1117.67 Q96.1539 1117.67 94.3252 1121.23 Q92.5197 1124.77 92.5197 1131.9 Q92.5197 1139.01 94.3252 1142.58 Q96.1539 1146.12 99.765 1146.12 Q103.399 1146.12 105.205 1142.58 Q107.033 1139.01 107.033 1131.9 Q107.033 1124.77 105.205 1121.23 Q103.399 1117.67 99.765 1117.67 M99.765 1113.96 Q105.575 1113.96 108.631 1118.57 Q111.709 1123.15 111.709 1131.9 Q111.709 1140.63 108.631 1145.24 Q105.575 1149.82 99.765 1149.82 Q93.9549 1149.82 90.8762 1145.24 Q87.8206 1140.63 87.8206 1131.9 Q87.8206 1123.15 90.8762 1118.57 Q93.9549 1113.96 99.765 1113.96 Z" fill="#000000" fill-rule="nonzero" fill-opacity="1" /><path clip-path="url(#clip550)" d="M119.927 1143.27 L124.811 1143.27 L124.811 1149.15 L119.927 1149.15 L119.927 1143.27 Z" fill="#000000" fill-rule="nonzero" fill-opacity="1" /><path clip-path="url(#clip550)" d="M144.996 1117.67 Q141.385 1117.67 139.556 1121.23 Q137.751 1124.77 137.751 1131.9 Q137.751 1139.01 139.556 1142.58 Q141.385 1146.12 144.996 1146.12 Q148.63 1146.12 150.436 1142.58 Q152.265 1139.01 152.265 1131.9 Q152.265 1124.77 150.436 1121.23 Q148.63 1117.67 144.996 1117.67 M144.996 1113.96 Q150.806 1113.96 153.862 1118.57 Q156.941 1123.15 156.941 1131.9 Q156.941 1140.63 153.862 1145.24 Q150.806 1149.82 144.996 1149.82 Q139.186 1149.82 136.107 1145.24 Q133.052 1140.63 133.052 1131.9 Q133.052 1123.15 136.107 1118.57 Q139.186 1113.96 144.996 1113.96 Z" fill="#000000" fill-rule="nonzero" fill-opacity="1" /><path clip-path="url(#clip550)" d="M175.158 1117.67 Q171.547 1117.67 169.718 1121.23 Q167.913 1124.77 167.913 1131.9 Q167.913 1139.01 169.718 1142.58 Q171.547 1146.12 175.158 1146.12 Q178.792 1146.12 180.598 1142.58 Q182.427 1139.01 182.427 1131.9 Q182.427 1124.77 180.598 1121.23 Q178.792 1117.67 175.158 1117.67 M175.158 1113.96 Q180.968 1113.96 184.024 1118.57 Q187.103 1123.15 187.103 1131.9 Q187.103 1140.63 184.024 1145.24 Q180.968 1149.82 175.158 1149.82 Q169.348 1149.82 166.269 1145.24 Q163.214 1140.63 163.214 1131.9 Q163.214 1123.15 166.269 1118.57 Q169.348 1113.96 175.158 1113.96 Z" fill="#000000" fill-rule="nonzero" fill-opacity="1" /><path clip-path="url(#clip550)" d="M100.76 924.861 Q97.1493 924.861 95.3206 928.426 Q93.515 931.968 93.515 939.097 Q93.515 946.204 95.3206 949.769 Q97.1493 953.31 100.76 953.31 Q104.395 953.31 106.2 949.769 Q108.029 946.204 108.029 939.097 Q108.029 931.968 106.2 928.426 Q104.395 924.861 100.76 924.861 M100.76 921.158 Q106.571 921.158 109.626 925.764 Q112.705 930.347 112.705 939.097 Q112.705 947.824 109.626 952.431 Q106.571 957.014 100.76 957.014 Q94.9502 957.014 91.8715 952.431 Q88.816 947.824 88.816 939.097 Q88.816 930.347 91.8715 925.764 Q94.9502 921.158 100.76 921.158 Z" fill="#000000" fill-rule="nonzero" fill-opacity="1" /><path clip-path="url(#clip550)" d="M120.922 950.463 L125.807 950.463 L125.807 956.343 L120.922 956.343 L120.922 950.463 Z" fill="#000000" fill-rule="nonzero" fill-opacity="1" /><path clip-path="url(#clip550)" d="M140.019 952.407 L156.339 952.407 L156.339 956.343 L134.394 956.343 L134.394 952.407 Q137.056 949.653 141.64 945.023 Q146.246 940.37 147.427 939.028 Q149.672 936.505 150.552 934.769 Q151.455 933.009 151.455 931.32 Q151.455 928.565 149.51 926.829 Q147.589 925.093 144.487 925.093 Q142.288 925.093 139.834 925.857 Q137.404 926.621 134.626 928.171 L134.626 923.449 Q137.45 922.315 139.904 921.736 Q142.357 921.158 144.394 921.158 Q149.765 921.158 152.959 923.843 Q156.154 926.528 156.154 931.019 Q156.154 933.148 155.343 935.07 Q154.556 936.968 152.45 939.56 Q151.871 940.232 148.769 943.449 Q145.668 946.644 140.019 952.407 Z" fill="#000000" fill-rule="nonzero" fill-opacity="1" /><path clip-path="url(#clip550)" d="M166.2 921.783 L184.556 921.783 L184.556 925.718 L170.482 925.718 L170.482 934.19 Q171.501 933.843 172.519 933.681 Q173.538 933.495 174.556 933.495 Q180.343 933.495 183.723 936.667 Q187.103 939.838 187.103 945.255 Q187.103 950.833 183.63 953.935 Q180.158 957.014 173.839 957.014 Q171.663 957.014 169.394 956.643 Q167.149 956.273 164.742 955.532 L164.742 950.833 Q166.825 951.968 169.047 952.523 Q171.269 953.079 173.746 953.079 Q177.751 953.079 180.089 950.972 Q182.427 948.866 182.427 945.255 Q182.427 941.644 180.089 939.537 Q177.751 937.431 173.746 937.431 Q171.871 937.431 169.996 937.847 Q168.144 938.264 166.2 939.144 L166.2 921.783 Z" fill="#000000" fill-rule="nonzero" fill-opacity="1" /><path clip-path="url(#clip550)" d="M99.765 732.054 Q96.1539 732.054 94.3252 735.619 Q92.5197 739.161 92.5197 746.29 Q92.5197 753.397 94.3252 756.962 Q96.1539 760.503 99.765 760.503 Q103.399 760.503 105.205 756.962 Q107.033 753.397 107.033 746.29 Q107.033 739.161 105.205 735.619 Q103.399 732.054 99.765 732.054 M99.765 728.351 Q105.575 728.351 108.631 732.957 Q111.709 737.541 111.709 746.29 Q111.709 755.017 108.631 759.624 Q105.575 764.207 99.765 764.207 Q93.9549 764.207 90.8762 759.624 Q87.8206 755.017 87.8206 746.29 Q87.8206 737.541 90.8762 732.957 Q93.9549 728.351 99.765 728.351 Z" fill="#000000" fill-rule="nonzero" fill-opacity="1" /><path clip-path="url(#clip550)" d="M119.927 757.656 L124.811 757.656 L124.811 763.536 L119.927 763.536 L119.927 757.656 Z" fill="#000000" fill-rule="nonzero" fill-opacity="1" /><path clip-path="url(#clip550)" d="M135.043 728.976 L153.399 728.976 L153.399 732.911 L139.325 732.911 L139.325 741.383 Q140.343 741.036 141.362 740.874 Q142.381 740.689 143.399 740.689 Q149.186 740.689 152.566 743.86 Q155.945 747.031 155.945 752.448 Q155.945 758.027 152.473 761.128 Q149.001 764.207 142.681 764.207 Q140.506 764.207 138.237 763.837 Q135.992 763.466 133.584 762.726 L133.584 758.027 Q135.668 759.161 137.89 759.716 Q140.112 760.272 142.589 760.272 Q146.593 760.272 148.931 758.165 Q151.269 756.059 151.269 752.448 Q151.269 748.837 148.931 746.73 Q146.593 744.624 142.589 744.624 Q140.714 744.624 138.839 745.04 Q136.987 745.457 135.043 746.337 L135.043 728.976 Z" fill="#000000" fill-rule="nonzero" fill-opacity="1" /><path clip-path="url(#clip550)" d="M175.158 732.054 Q171.547 732.054 169.718 735.619 Q167.913 739.161 167.913 746.29 Q167.913 753.397 169.718 756.962 Q171.547 760.503 175.158 760.503 Q178.792 760.503 180.598 756.962 Q182.427 753.397 182.427 746.29 Q182.427 739.161 180.598 735.619 Q178.792 732.054 175.158 732.054 M175.158 728.351 Q180.968 728.351 184.024 732.957 Q187.103 737.541 187.103 746.29 Q187.103 755.017 184.024 759.624 Q180.968 764.207 175.158 764.207 Q169.348 764.207 166.269 759.624 Q163.214 755.017 163.214 746.29 Q163.214 737.541 166.269 732.957 Q169.348 728.351 175.158 728.351 Z" fill="#000000" fill-rule="nonzero" fill-opacity="1" /><path clip-path="url(#clip550)" d="M100.76 539.248 Q97.1493 539.248 95.3206 542.812 Q93.515 546.354 93.515 553.484 Q93.515 560.59 95.3206 564.155 Q97.1493 567.697 100.76 567.697 Q104.395 567.697 106.2 564.155 Q108.029 560.59 108.029 553.484 Q108.029 546.354 106.2 542.812 Q104.395 539.248 100.76 539.248 M100.76 535.544 Q106.571 535.544 109.626 540.15 Q112.705 544.734 112.705 553.484 Q112.705 562.21 109.626 566.817 Q106.571 571.4 100.76 571.4 Q94.9502 571.4 91.8715 566.817 Q88.816 562.21 88.816 553.484 Q88.816 544.734 91.8715 540.15 Q94.9502 535.544 100.76 535.544 Z" fill="#000000" fill-rule="nonzero" fill-opacity="1" /><path clip-path="url(#clip550)" d="M120.922 564.849 L125.807 564.849 L125.807 570.729 L120.922 570.729 L120.922 564.849 Z" fill="#000000" fill-rule="nonzero" fill-opacity="1" /><path clip-path="url(#clip550)" d="M134.811 536.169 L157.033 536.169 L157.033 538.16 L144.487 570.729 L139.603 570.729 L151.408 540.104 L134.811 540.104 L134.811 536.169 Z" fill="#000000" fill-rule="nonzero" fill-opacity="1" /><path clip-path="url(#clip550)" d="M166.2 536.169 L184.556 536.169 L184.556 540.104 L170.482 540.104 L170.482 548.576 Q171.501 548.229 172.519 548.067 Q173.538 547.882 174.556 547.882 Q180.343 547.882 183.723 551.053 Q187.103 554.224 187.103 559.641 Q187.103 565.22 183.63 568.322 Q180.158 571.4 173.839 571.4 Q171.663 571.4 169.394 571.03 Q167.149 570.66 164.742 569.919 L164.742 565.22 Q166.825 566.354 169.047 566.91 Q171.269 567.465 173.746 567.465 Q177.751 567.465 180.089 565.359 Q182.427 563.252 182.427 559.641 Q182.427 556.03 180.089 553.923 Q177.751 551.817 173.746 551.817 Q171.871 551.817 169.996 552.234 Q168.144 552.65 166.2 553.53 L166.2 536.169 Z" fill="#000000" fill-rule="nonzero" fill-opacity="1" /><path clip-path="url(#clip550)" d="M90.5752 373.987 L98.2141 373.987 L98.2141 347.621 L89.904 349.288 L89.904 345.029 L98.1678 343.362 L102.844 343.362 L102.844 373.987 L110.483 373.987 L110.483 377.922 L90.5752 377.922 L90.5752 373.987 Z" fill="#000000" fill-rule="nonzero" fill-opacity="1" /><path clip-path="url(#clip550)" d="M119.927 372.043 L124.811 372.043 L124.811 377.922 L119.927 377.922 L119.927 372.043 Z" fill="#000000" fill-rule="nonzero" fill-opacity="1" /><path clip-path="url(#clip550)" d="M144.996 346.441 Q141.385 346.441 139.556 350.006 Q137.751 353.547 137.751 360.677 Q137.751 367.783 139.556 371.348 Q141.385 374.89 144.996 374.89 Q148.63 374.89 150.436 371.348 Q152.265 367.783 152.265 360.677 Q152.265 353.547 150.436 350.006 Q148.63 346.441 144.996 346.441 M144.996 342.737 Q150.806 342.737 153.862 347.344 Q156.941 351.927 156.941 360.677 Q156.941 369.404 153.862 374.01 Q150.806 378.593 144.996 378.593 Q139.186 378.593 136.107 374.01 Q133.052 369.404 133.052 360.677 Q133.052 351.927 136.107 347.344 Q139.186 342.737 144.996 342.737 Z" fill="#000000" fill-rule="nonzero" fill-opacity="1" /><path clip-path="url(#clip550)" d="M175.158 346.441 Q171.547 346.441 169.718 350.006 Q167.913 353.547 167.913 360.677 Q167.913 367.783 169.718 371.348 Q171.547 374.89 175.158 374.89 Q178.792 374.89 180.598 371.348 Q182.427 367.783 182.427 360.677 Q182.427 353.547 180.598 350.006 Q178.792 346.441 175.158 346.441 M175.158 342.737 Q180.968 342.737 184.024 347.344 Q187.103 351.927 187.103 360.677 Q187.103 369.404 184.024 374.01 Q180.968 378.593 175.158 378.593 Q169.348 378.593 166.269 374.01 Q163.214 369.404 163.214 360.677 Q163.214 351.927 166.269 347.344 Q169.348 342.737 175.158 342.737 Z" fill="#000000" fill-rule="nonzero" fill-opacity="1" /><path clip-path="url(#clip550)" d="M91.5706 181.18 L99.2095 181.18 L99.2095 154.815 L90.8993 156.481 L90.8993 152.222 L99.1632 150.555 L103.839 150.555 L103.839 181.18 L111.478 181.18 L111.478 185.115 L91.5706 185.115 L91.5706 181.18 Z" fill="#000000" fill-rule="nonzero" fill-opacity="1" /><path clip-path="url(#clip550)" d="M120.922 179.236 L125.807 179.236 L125.807 185.115 L120.922 185.115 L120.922 179.236 Z" fill="#000000" fill-rule="nonzero" fill-opacity="1" /><path clip-path="url(#clip550)" d="M140.019 181.18 L156.339 181.18 L156.339 185.115 L134.394 185.115 L134.394 181.18 Q137.056 178.426 141.64 173.796 Q146.246 169.143 147.427 167.801 Q149.672 165.277 150.552 163.541 Q151.455 161.782 151.455 160.092 Q151.455 157.338 149.51 155.602 Q147.589 153.866 144.487 153.866 Q142.288 153.866 139.834 154.629 Q137.404 155.393 134.626 156.944 L134.626 152.222 Q137.45 151.088 139.904 150.509 Q142.357 149.93 144.394 149.93 Q149.765 149.93 152.959 152.616 Q156.154 155.301 156.154 159.791 Q156.154 161.921 155.343 163.842 Q154.556 165.74 152.45 168.333 Q151.871 169.004 148.769 172.222 Q145.668 175.416 140.019 181.18 Z" fill="#000000" fill-rule="nonzero" fill-opacity="1" /><path clip-path="url(#clip550)" d="M166.2 150.555 L184.556 150.555 L184.556 154.491 L170.482 154.491 L170.482 162.963 Q171.501 162.615 172.519 162.453 Q173.538 162.268 174.556 162.268 Q180.343 162.268 183.723 165.44 Q187.103 168.611 187.103 174.027 Q187.103 179.606 183.63 182.708 Q180.158 185.787 173.839 185.787 Q171.663 185.787 169.394 185.416 Q167.149 185.046 164.742 184.305 L164.742 179.606 Q166.825 180.74 169.047 181.296 Q171.269 181.851 173.746 181.851 Q177.751 181.851 180.089 179.745 Q182.427 177.639 182.427 174.027 Q182.427 170.416 180.089 168.31 Q177.751 166.203 173.746 166.203 Q171.871 166.203 169.996 166.62 Q168.144 167.037 166.2 167.916 L166.2 150.555 Z" fill="#000000" fill-rule="nonzero" fill-opacity="1" /><polyline clip-path="url(#clip552)" style="stroke:#009af9; stroke-linecap:round; stroke-linejoin:round; stroke-width:16; stroke-opacity:1; fill:none" stroke-dasharray="8, 16" points="283.376,1015.24 293.472,1171.73 303.568,1219.36 313.664,1131.21 323.76,974.219 333.856,866.052 343.952,859.333 354.048,916.591 364.144,992.742 374.24,1073.19 384.336,1136.13 394.432,1146.25 404.528,1114.73 414.624,1091.15 424.72,1103.41 434.816,1145.6 444.912,1204.18 455.008,1270.45 465.104,1321.83 475.2,1326.32 485.296,1294.03 495.392,1280.37 505.488,1303.06 515.584,1316.22 525.68,1284.81 535.776,1236.41 545.872,1215.58 555.968,1211.87 566.064,1187.44 576.16,1157.14 586.256,1150.11 596.352,1139.2 606.448,1088.75 616.544,1011.15 626.64,941.512 636.736,915.246 646.832,943.056 656.928,999.552 667.024,1042.92 677.12,1044.53 687.216,1003.97 697.312,958.961 707.408,954.947 717.504,981.542 727.6,1021.31 737.696,1078.75 747.792,1123.9 757.888,1143.35 767.984,1157.01 778.08,1189.41 788.176,1241.46 798.272,1279.72 808.369,1278.99 818.465,1275.2 828.561,1340.67 838.657,1445.72 848.753,1445.43 858.849,1253.15 868.945,920.717 879.041,726.776 889.137,924.914 899.233,1250.5 909.329,1407.36 919.425,1379.35 929.521,1257.4 939.617,1114.04 949.713,976.264 959.809,892.778 969.905,915.398 980.001,1009.98 990.097,1077.32 1000.19,1060.94 1010.29,988.327 1020.38,966.848 1030.48,1060.38 1040.58,1157.83 1050.67,1124.37 1060.77,1023.99 1070.86,976.701 1080.96,983.782 1091.06,1027.97 1101.15,1097.39 1111.25,1141.97 1121.34,1135.44 1131.44,1133.85 1141.54,1192.62 1151.63,1259.3 1161.73,1258.63 1171.83,1240.58 1181.92,1258.24 1192.02,1296.8 1202.11,1319.52 1212.21,1309.41 1222.31,1275.18 1232.4,1242.86 1242.5,1238.91 1252.59,1255.61 1262.69,1229.64 1272.79,1082.49 1282.88,778.482 1292.98,477.344 1303.07,369.644 1313.17,373.22 1323.27,403.104 1333.36,421.5 1343.46,406.612 1353.55,369.042 1363.65,333.561 1373.75,318.193 1383.84,330.653 1393.94,364.132 1404.03,386.743 1414.13,362.374 1424.23,329.851 1434.32,377.945 1444.42,451.466 1454.51,448.92 1464.61,400.065 1474.71,399.234 1484.8,444.026 1494.9,448.003 1504.99,389.005 1515.09,296.719 1525.19,188.625 1535.28,154.859 1545.38,254.67 1555.47,389.241 1565.57,438.286 1575.67,413.103 1585.76,393.917 1595.86,420.971 1605.95,467.678 1616.05,457.967 1626.15,377.452 1636.24,291.096 1646.34,228.287 1656.43,185.611 1666.53,212.578 1676.63,385.935 1686.72,698.758 1696.82,909.395 1706.91,764.653 1717.01,437.298 1727.11,186.861 1737.2,110.253 1747.3,165.38 1757.39,231.895 1767.49,273.722 1777.59,324.607 1787.68,389.918 1797.78,435.773 1807.87,431.036 1817.97,387.536 1828.07,353.045 1838.16,362.774 1848.26,383.681 1858.35,358.964 1868.45,308.563 1878.55,264.84 1888.64,261.069 1898.74,316.274 1908.83,400.172 1918.93,482.165 1929.03,542.265 1939.12,554.138 1949.22,501.6 1959.31,397.235 1969.41,279.597 1979.51,201.926 1989.6,191.586 1999.7,224.983 2009.79,291.199 2019.89,398.958 2029.99,509.03 2040.08,550.471 2050.18,512.918 2060.27,447.48 2070.37,389.794 2080.47,324.763 2090.56,226.2 2100.66,118.839 2110.75,87.9763 2120.85,178.65 2130.95,335.393 2141.04,484.487 2151.14,584.645 2161.23,610.71 2171.33,548.301 2181.43,418.222 2191.52,284.277 2201.62,208.641 2211.71,216.332 2221.81,298.404 2231.91,398.188 2242,430.703 2252.1,357.654 2262.19,248.004 2272.29,224.545 2282.39,340.978 2292.48,554.016 "/>
<polyline clip-path="url(#clip552)" style="stroke:#e26f46; stroke-linecap:round; stroke-linejoin:round; stroke-width:4; stroke-opacity:1; fill:none" points="283.376,1016.03 293.472,999.598 303.568,987.481 313.664,980.075 323.76,977.624 333.856,980.207 343.952,987.74 354.048,999.977 364.144,1016.52 374.24,1036.82 384.336,1060.23 394.432,1085.98 404.528,1113.22 414.624,1141.08 424.72,1168.63 434.816,1194.98 444.912,1219.27 455.008,1240.71 465.104,1258.6 475.2,1272.35 485.296,1281.52 495.392,1285.8 505.488,1285.06 515.584,1279.32 525.68,1268.76 535.776,1253.74 545.872,1234.74 555.968,1212.39 566.064,1187.4 576.16,1160.61 586.256,1132.87 596.352,1105.1 606.448,1078.21 616.544,1053.07 626.64,1030.5 636.736,1011.23 646.832,995.909 656.928,985.021 667.024,978.927 677.12,977.823 687.216,981.748 697.312,990.572 707.408,1004.01 717.504,1021.62 727.6,1042.82 737.696,1066.94 747.792,1093.17 757.888,1120.66 767.984,1148.53 778.08,1175.84 788.176,1201.73 798.272,1225.33 808.369,1245.88 818.465,1262.71 828.561,1275.27 838.657,1283.15 848.753,1286.1 858.849,1284.01 868.945,1276.95 879.041,1265.16 889.137,1249.02 899.233,1229.05 909.329,1205.92 919.425,1180.36 929.521,1153.23 939.617,1125.4 949.713,1097.77 959.809,1071.27 969.905,1046.73 980.001,1024.98 990.097,1006.72 1000.19,992.539 1010.29,982.907 1020.38,978.137 1030.48,978.384 1040.58,983.641 1050.67,993.735 1060.77,1008.34 1070.86,1026.97 1080.96,1049.03 1091.06,1073.79 1101.15,1100.45 1111.25,1128.13 1121.34,1155.94 1131.44,1182.96 1141.54,1208.31 1151.63,1231.16 1161.73,1250.78 1171.83,1266.52 1181.92,1277.86 1192.02,1284.43 1202.11,1286.03 1212.21,1282.6 1222.31,1274.24 1232.4,1261.24 1242.5,1244.02 1252.59,1223.14 1262.69,1199.27 1272.79,1173.21 1282.88,1145.8 1292.98,359.522 1303.07,358.248 1313.17,359.408 1323.27,363.269 1333.36,368.65 1343.46,373.275 1353.55,374.644 1363.65,371.086 1373.75,362.602 1383.84,351.165 1393.94,340.282 1404.03,333.925 1414.13,335.144 1424.23,344.845 1434.32,361.16 1444.42,379.729 1454.51,394.849 1464.61,401.228 1474.71,395.768 1484.8,378.827 1494.9,354.46 1504.99,329.488 1515.09,311.591 1525.19,306.954 1535.28,318.194 1545.38,343.234 1555.47,375.573 1565.57,405.952 1575.67,425.004 1585.76,426.133 1595.86,407.726 1605.95,373.992 1616.05,334.06 1626.15,299.519 1636.24,281.054 1646.34,285.16 1656.43,311.93 1666.53,354.666 1676.63,401.515 1686.72,438.755 1696.82,454.811 1706.91,443.832 1717.01,407.728 1727.11,355.981 1737.2,303.175 1747.3,264.885 1757.39,253.093 1767.49,272.457 1777.59,318.609 1787.68,379.069 1797.78,436.605 1807.87,474.142 1817.97,479.828 1828.07,450.742 1838.16,394.108 1848.26,325.539 1858.35,264.747 1868.45,229.871 1878.55,232.076 1888.64,272.013 1898.74,339.264 1908.83,415.033 1918.93,477.392 1929.03,507.63 1939.12,495.855 1949.22,444.184 1959.31,366.496 1969.41,284.725 1979.51,222.669 1989.6,199.064 1999.7,221.94 2009.79,285.956 2019.89,373.581 2029.99,459.883 2040.08,519.62 2050.18,534.625 2060.27,499.309 2070.37,422.639 2080.47,325.897 2090.56,236.782 2100.66,181.479 2110.75,176.968 2120.85,225.832 2130.95,315.147 2141.04,419.871 2151.14,509.865 2161.23,558.562 2171.33,550.808 2181.43,487.551 2191.52,385.932 2201.62,274.662 2211.71,185.908 2221.81,145.998 2231.91,167.618 2242,245.815 2252.1,359.059 2262.19,475.158 2272.29,560.415 2282.39,589.396 2292.48,552.518 "/>
<path clip-path="url(#clip550)" d="M294.091 250.738 L733.884 250.738 L733.884 95.2176 L294.091 95.2176  Z" fill="#ffffff" fill-rule="evenodd" fill-opacity="1"/>
<polyline clip-path="url(#clip550)" style="stroke:#000000; stroke-linecap:round; stroke-linejoin:round; stroke-width:4; stroke-opacity:1; fill:none" points="294.091,250.738 733.884,250.738 733.884,95.2176 294.091,95.2176 294.091,250.738 "/>
<polyline clip-path="url(#clip550)" style="stroke:#009af9; stroke-linecap:round; stroke-linejoin:round; stroke-width:16; stroke-opacity:1; fill:none" stroke-dasharray="8, 16" points="317.754,147.058 459.731,147.058 "/>
<path clip-path="url(#clip550)" d="M488.069 133.62 L488.069 146.606 L493.949 146.606 Q497.213 146.606 498.995 144.916 Q500.778 143.227 500.778 140.102 Q500.778 137 498.995 135.31 Q497.213 133.62 493.949 133.62 L488.069 133.62 M483.393 129.778 L493.949 129.778 Q499.759 129.778 502.722 132.416 Q505.708 135.032 505.708 140.102 Q505.708 145.217 502.722 147.833 Q499.759 150.449 493.949 150.449 L488.069 150.449 L488.069 164.338 L483.393 164.338 L483.393 129.778 Z" fill="#000000" fill-rule="nonzero" fill-opacity="1" /><path clip-path="url(#clip550)" d="M525.986 142.393 Q525.268 141.977 524.412 141.791 Q523.578 141.583 522.56 141.583 Q518.949 141.583 517.004 143.944 Q515.083 146.282 515.083 150.68 L515.083 164.338 L510.801 164.338 L510.801 138.412 L515.083 138.412 L515.083 142.44 Q516.426 140.078 518.578 138.944 Q520.731 137.787 523.81 137.787 Q524.25 137.787 524.782 137.856 Q525.315 137.903 525.963 138.018 L525.986 142.393 Z" fill="#000000" fill-rule="nonzero" fill-opacity="1" /><path clip-path="url(#clip550)" d="M551.588 150.31 L551.588 152.393 L532.004 152.393 Q532.282 156.791 534.643 159.106 Q537.027 161.398 541.264 161.398 Q543.717 161.398 546.009 160.796 Q548.324 160.194 550.592 158.99 L550.592 163.018 Q548.301 163.99 545.893 164.5 Q543.486 165.009 541.009 165.009 Q534.805 165.009 531.171 161.398 Q527.56 157.787 527.56 151.629 Q527.56 145.264 530.986 141.537 Q534.435 137.787 540.268 137.787 Q545.5 137.787 548.532 141.166 Q551.588 144.523 551.588 150.31 M547.328 149.06 Q547.282 145.565 545.361 143.481 Q543.463 141.398 540.314 141.398 Q536.75 141.398 534.597 143.412 Q532.467 145.426 532.143 149.083 L547.328 149.06 Z" fill="#000000" fill-rule="nonzero" fill-opacity="1" /><path clip-path="url(#clip550)" d="M575.638 142.347 L575.638 128.319 L579.898 128.319 L579.898 164.338 L575.638 164.338 L575.638 160.449 Q574.296 162.763 572.236 163.898 Q570.199 165.009 567.328 165.009 Q562.629 165.009 559.666 161.259 Q556.726 157.509 556.726 151.398 Q556.726 145.287 559.666 141.537 Q562.629 137.787 567.328 137.787 Q570.199 137.787 572.236 138.921 Q574.296 140.032 575.638 142.347 M561.125 151.398 Q561.125 156.097 563.046 158.782 Q564.99 161.444 568.37 161.444 Q571.749 161.444 573.694 158.782 Q575.638 156.097 575.638 151.398 Q575.638 146.699 573.694 144.037 Q571.749 141.352 568.37 141.352 Q564.99 141.352 563.046 144.037 Q561.125 146.699 561.125 151.398 Z" fill="#000000" fill-rule="nonzero" fill-opacity="1" /><path clip-path="url(#clip550)" d="M588.671 138.412 L592.93 138.412 L592.93 164.338 L588.671 164.338 L588.671 138.412 M588.671 128.319 L592.93 128.319 L592.93 133.713 L588.671 133.713 L588.671 128.319 Z" fill="#000000" fill-rule="nonzero" fill-opacity="1" /><path clip-path="url(#clip550)" d="M620.499 139.407 L620.499 143.389 Q618.694 142.393 616.865 141.907 Q615.059 141.398 613.208 141.398 Q609.064 141.398 606.772 144.037 Q604.481 146.652 604.481 151.398 Q604.481 156.143 606.772 158.782 Q609.064 161.398 613.208 161.398 Q615.059 161.398 616.865 160.912 Q618.694 160.402 620.499 159.407 L620.499 163.342 Q618.717 164.176 616.796 164.592 Q614.897 165.009 612.745 165.009 Q606.888 165.009 603.439 161.328 Q599.99 157.648 599.99 151.398 Q599.99 145.055 603.462 141.421 Q606.958 137.787 613.022 137.787 Q614.99 137.787 616.865 138.203 Q618.74 138.597 620.499 139.407 Z" fill="#000000" fill-rule="nonzero" fill-opacity="1" /><path clip-path="url(#clip550)" d="M632.12 131.051 L632.12 138.412 L640.893 138.412 L640.893 141.722 L632.12 141.722 L632.12 155.796 Q632.12 158.967 632.976 159.87 Q633.856 160.773 636.518 160.773 L640.893 160.773 L640.893 164.338 L636.518 164.338 Q631.587 164.338 629.712 162.509 Q627.837 160.657 627.837 155.796 L627.837 141.722 L624.712 141.722 L624.712 138.412 L627.837 138.412 L627.837 131.051 L632.12 131.051 Z" fill="#000000" fill-rule="nonzero" fill-opacity="1" /><path clip-path="url(#clip550)" d="M646.494 138.412 L650.754 138.412 L650.754 164.338 L646.494 164.338 L646.494 138.412 M646.494 128.319 L650.754 128.319 L650.754 133.713 L646.494 133.713 L646.494 128.319 Z" fill="#000000" fill-rule="nonzero" fill-opacity="1" /><path clip-path="url(#clip550)" d="M669.712 141.398 Q666.286 141.398 664.295 144.083 Q662.305 146.745 662.305 151.398 Q662.305 156.051 664.272 158.736 Q666.263 161.398 669.712 161.398 Q673.115 161.398 675.105 158.713 Q677.096 156.027 677.096 151.398 Q677.096 146.791 675.105 144.106 Q673.115 141.398 669.712 141.398 M669.712 137.787 Q675.267 137.787 678.439 141.398 Q681.61 145.009 681.61 151.398 Q681.61 157.764 678.439 161.398 Q675.267 165.009 669.712 165.009 Q664.133 165.009 660.962 161.398 Q657.814 157.764 657.814 151.398 Q657.814 145.009 660.962 141.398 Q664.133 137.787 669.712 137.787 Z" fill="#000000" fill-rule="nonzero" fill-opacity="1" /><path clip-path="url(#clip550)" d="M710.221 148.689 L710.221 164.338 L705.962 164.338 L705.962 148.828 Q705.962 145.148 704.527 143.319 Q703.091 141.49 700.221 141.49 Q696.772 141.49 694.781 143.69 Q692.791 145.889 692.791 149.685 L692.791 164.338 L688.508 164.338 L688.508 138.412 L692.791 138.412 L692.791 142.44 Q694.318 140.102 696.378 138.944 Q698.462 137.787 701.17 137.787 Q705.638 137.787 707.929 140.565 Q710.221 143.319 710.221 148.689 Z" fill="#000000" fill-rule="nonzero" fill-opacity="1" /><polyline clip-path="url(#clip550)" style="stroke:#e26f46; stroke-linecap:round; stroke-linejoin:round; stroke-width:4; stroke-opacity:1; fill:none" points="317.754,198.898 459.731,198.898 "/>
<path clip-path="url(#clip550)" d="M483.393 181.618 L505.245 181.618 L505.245 185.553 L488.069 185.553 L488.069 195.784 L504.528 195.784 L504.528 199.719 L488.069 199.719 L488.069 212.242 L505.662 212.242 L505.662 216.178 L483.393 216.178 L483.393 181.618 Z" fill="#000000" fill-rule="nonzero" fill-opacity="1" /><path clip-path="url(#clip550)" d="M534.713 190.252 L525.338 202.867 L535.199 216.178 L530.176 216.178 L522.629 205.992 L515.083 216.178 L510.06 216.178 L520.129 202.613 L510.916 190.252 L515.94 190.252 L522.815 199.488 L529.69 190.252 L534.713 190.252 Z" fill="#000000" fill-rule="nonzero" fill-opacity="1" /><path clip-path="url(#clip550)" d="M553 203.145 Q547.838 203.145 545.847 204.326 Q543.856 205.506 543.856 208.354 Q543.856 210.622 545.338 211.965 Q546.842 213.284 549.412 213.284 Q552.953 213.284 555.083 210.784 Q557.236 208.261 557.236 204.094 L557.236 203.145 L553 203.145 M561.495 201.386 L561.495 216.178 L557.236 216.178 L557.236 212.242 Q555.777 214.603 553.601 215.738 Q551.426 216.849 548.277 216.849 Q544.296 216.849 541.935 214.627 Q539.597 212.381 539.597 208.631 Q539.597 204.256 542.514 202.034 Q545.453 199.812 551.263 199.812 L557.236 199.812 L557.236 199.395 Q557.236 196.455 555.291 194.858 Q553.37 193.238 549.875 193.238 Q547.652 193.238 545.546 193.77 Q543.439 194.303 541.495 195.367 L541.495 191.432 Q543.833 190.53 546.032 190.09 Q548.231 189.627 550.314 189.627 Q555.939 189.627 558.717 192.543 Q561.495 195.46 561.495 201.386 Z" fill="#000000" fill-rule="nonzero" fill-opacity="1" /><path clip-path="url(#clip550)" d="M588.925 191.247 L588.925 195.229 Q587.12 194.233 585.291 193.747 Q583.486 193.238 581.634 193.238 Q577.49 193.238 575.199 195.877 Q572.907 198.492 572.907 203.238 Q572.907 207.983 575.199 210.622 Q577.49 213.238 581.634 213.238 Q583.486 213.238 585.291 212.752 Q587.12 212.242 588.925 211.247 L588.925 215.182 Q587.143 216.016 585.222 216.432 Q583.323 216.849 581.171 216.849 Q575.314 216.849 571.865 213.168 Q568.416 209.488 568.416 203.238 Q568.416 196.895 571.888 193.261 Q575.384 189.627 581.449 189.627 Q583.416 189.627 585.291 190.043 Q587.166 190.437 588.925 191.247 Z" fill="#000000" fill-rule="nonzero" fill-opacity="1" /><path clip-path="url(#clip550)" d="M600.546 182.891 L600.546 190.252 L609.319 190.252 L609.319 193.562 L600.546 193.562 L600.546 207.636 Q600.546 210.807 601.402 211.71 Q602.282 212.613 604.944 212.613 L609.319 212.613 L609.319 216.178 L604.944 216.178 Q600.013 216.178 598.138 214.349 Q596.263 212.497 596.263 207.636 L596.263 193.562 L593.138 193.562 L593.138 190.252 L596.263 190.252 L596.263 182.891 L600.546 182.891 Z" fill="#000000" fill-rule="nonzero" fill-opacity="1" /></svg>
