<?xml version="1.0" encoding="utf-8"?>
<svg xmlns="http://www.w3.org/2000/svg" xmlns:xlink="http://www.w3.org/1999/xlink" width="600" height="400" viewBox="0 0 2400 1600">
<defs>
  <clipPath id="clip630">
    <rect x="0" y="0" width="2400" height="1600"/>
  </clipPath>
</defs>
<path clip-path="url(#clip630)" d="M0 1600 L2400 1600 L2400 0 L0 0  Z" fill="#ffffff" fill-rule="evenodd" fill-opacity="1"/>
<defs>
  <clipPath id="clip631">
    <rect x="480" y="0" width="1681" height="1600"/>
  </clipPath>
</defs>
<path clip-path="url(#clip630)" d="M156.274 1486.45 L2352.76 1486.45 L2352.76 47.2441 L156.274 47.2441  Z" fill="#ffffff" fill-rule="evenodd" fill-opacity="1"/>
<defs>
  <clipPath id="clip632">
    <rect x="156" y="47" width="2197" height="1440"/>
  </clipPath>
</defs>
<polyline clip-path="url(#clip632)" style="stroke:#000000; stroke-linecap:round; stroke-linejoin:round; stroke-width:2; stroke-opacity:0.1; fill:none" points="218.439,1486.45 218.439,47.2441 "/>
<polyline clip-path="url(#clip632)" style="stroke:#000000; stroke-linecap:round; stroke-linejoin:round; stroke-width:2; stroke-opacity:0.1; fill:none" points="736.477,1486.45 736.477,47.2441 "/>
<polyline clip-path="url(#clip632)" style="stroke:#000000; stroke-linecap:round; stroke-linejoin:round; stroke-width:2; stroke-opacity:0.1; fill:none" points="1254.52,1486.45 1254.52,47.2441 "/>
<polyline clip-path="url(#clip632)" style="stroke:#000000; stroke-linecap:round; stroke-linejoin:round; stroke-width:2; stroke-opacity:0.1; fill:none" points="1772.55,1486.45 1772.55,47.2441 "/>
<polyline clip-path="url(#clip632)" style="stroke:#000000; stroke-linecap:round; stroke-linejoin:round; stroke-width:2; stroke-opacity:0.1; fill:none" points="2290.59,1486.45 2290.59,47.2441 "/>
<polyline clip-path="url(#clip630)" style="stroke:#000000; stroke-linecap:round; stroke-linejoin:round; stroke-width:4; stroke-opacity:1; fill:none" points="156.274,1486.45 2352.76,1486.45 "/>
<polyline clip-path="url(#clip630)" style="stroke:#000000; stroke-linecap:round; stroke-linejoin:round; stroke-width:4; stroke-opacity:1; fill:none" points="218.439,1486.45 218.439,1467.55 "/>
<polyline clip-path="url(#clip630)" style="stroke:#000000; stroke-linecap:round; stroke-linejoin:round; stroke-width:4; stroke-opacity:1; fill:none" points="736.477,1486.45 736.477,1467.55 "/>
<polyline clip-path="url(#clip630)" style="stroke:#000000; stroke-linecap:round; stroke-linejoin:round; stroke-width:4; stroke-opacity:1; fill:none" points="1254.52,1486.45 1254.52,1467.55 "/>
<polyline clip-path="url(#clip630)" style="stroke:#000000; stroke-linecap:round; stroke-linejoin:round; stroke-width:4; stroke-opacity:1; fill:none" points="1772.55,1486.45 1772.55,1467.55 "/>
<polyline clip-path="url(#clip630)" style="stroke:#000000; stroke-linecap:round; stroke-linejoin:round; stroke-width:4; stroke-opacity:1; fill:none" points="2290.59,1486.45 2290.59,1467.55 "/>
<path clip-path="url(#clip630)" d="M164.967 1532.02 L194.643 1532.02 L194.643 1535.95 L164.967 1535.95 L164.967 1532.02 Z" fill="#000000" fill-rule="nonzero" fill-opacity="1" /><path clip-path="url(#clip630)" d="M205.545 1544.91 L213.184 1544.91 L213.184 1518.55 L204.874 1520.21 L204.874 1515.95 L213.138 1514.29 L217.814 1514.29 L217.814 1544.91 L225.453 1544.91 L225.453 1548.85 L205.545 1548.85 L205.545 1544.91 Z" fill="#000000" fill-rule="nonzero" fill-opacity="1" /><path clip-path="url(#clip630)" d="M234.897 1542.97 L239.781 1542.97 L239.781 1548.85 L234.897 1548.85 L234.897 1542.97 Z" fill="#000000" fill-rule="nonzero" fill-opacity="1" /><path clip-path="url(#clip630)" d="M259.966 1517.37 Q256.355 1517.37 254.527 1520.93 Q252.721 1524.47 252.721 1531.6 Q252.721 1538.71 254.527 1542.27 Q256.355 1545.82 259.966 1545.82 Q263.601 1545.82 265.406 1542.27 Q267.235 1538.71 267.235 1531.6 Q267.235 1524.47 265.406 1520.93 Q263.601 1517.37 259.966 1517.37 M259.966 1513.66 Q265.776 1513.66 268.832 1518.27 Q271.911 1522.85 271.911 1531.6 Q271.911 1540.33 268.832 1544.94 Q265.776 1549.52 259.966 1549.52 Q254.156 1549.52 251.077 1544.94 Q248.022 1540.33 248.022 1531.6 Q248.022 1522.85 251.077 1518.27 Q254.156 1513.66 259.966 1513.66 Z" fill="#000000" fill-rule="nonzero" fill-opacity="1" /><path clip-path="url(#clip630)" d="M683.503 1532.02 L713.178 1532.02 L713.178 1535.95 L683.503 1535.95 L683.503 1532.02 Z" fill="#000000" fill-rule="nonzero" fill-opacity="1" /><path clip-path="url(#clip630)" d="M733.271 1517.37 Q729.66 1517.37 727.831 1520.93 Q726.026 1524.47 726.026 1531.6 Q726.026 1538.71 727.831 1542.27 Q729.66 1545.82 733.271 1545.82 Q736.905 1545.82 738.711 1542.27 Q740.539 1538.71 740.539 1531.6 Q740.539 1524.47 738.711 1520.93 Q736.905 1517.37 733.271 1517.37 M733.271 1513.66 Q739.081 1513.66 742.137 1518.27 Q745.215 1522.85 745.215 1531.6 Q745.215 1540.33 742.137 1544.94 Q739.081 1549.52 733.271 1549.52 Q727.461 1549.52 724.382 1544.94 Q721.327 1540.33 721.327 1531.6 Q721.327 1522.85 724.382 1518.27 Q727.461 1513.66 733.271 1513.66 Z" fill="#000000" fill-rule="nonzero" fill-opacity="1" /><path clip-path="url(#clip630)" d="M753.433 1542.97 L758.317 1542.97 L758.317 1548.85 L753.433 1548.85 L753.433 1542.97 Z" fill="#000000" fill-rule="nonzero" fill-opacity="1" /><path clip-path="url(#clip630)" d="M768.548 1514.29 L786.905 1514.29 L786.905 1518.22 L772.831 1518.22 L772.831 1526.7 Q773.849 1526.35 774.868 1526.19 Q775.886 1526 776.905 1526 Q782.692 1526 786.072 1529.17 Q789.451 1532.34 789.451 1537.76 Q789.451 1543.34 785.979 1546.44 Q782.507 1549.52 776.187 1549.52 Q774.011 1549.52 771.743 1549.15 Q769.498 1548.78 767.09 1548.04 L767.09 1543.34 Q769.173 1544.47 771.396 1545.03 Q773.618 1545.58 776.095 1545.58 Q780.099 1545.58 782.437 1543.48 Q784.775 1541.37 784.775 1537.76 Q784.775 1534.15 782.437 1532.04 Q780.099 1529.94 776.095 1529.94 Q774.22 1529.94 772.345 1530.35 Q770.493 1530.77 768.548 1531.65 L768.548 1514.29 Z" fill="#000000" fill-rule="nonzero" fill-opacity="1" /><path clip-path="url(#clip630)" d="M1231.9 1517.37 Q1228.29 1517.37 1226.46 1520.93 Q1224.65 1524.47 1224.65 1531.6 Q1224.65 1538.71 1226.46 1542.27 Q1228.29 1545.82 1231.9 1545.82 Q1235.53 1545.82 1237.34 1542.27 Q1239.17 1538.71 1239.17 1531.6 Q1239.17 1524.47 1237.34 1520.93 Q1235.53 1517.37 1231.9 1517.37 M1231.9 1513.66 Q1237.71 1513.66 1240.77 1518.27 Q1243.84 1522.85 1243.84 1531.6 Q1243.84 1540.33 1240.77 1544.94 Q1237.71 1549.52 1231.9 1549.52 Q1226.09 1549.52 1223.01 1544.94 Q1219.96 1540.33 1219.96 1531.6 Q1219.96 1522.85 1223.01 1518.27 Q1226.09 1513.66 1231.9 1513.66 Z" fill="#000000" fill-rule="nonzero" fill-opacity="1" /><path clip-path="url(#clip630)" d="M1252.06 1542.97 L1256.95 1542.97 L1256.95 1548.85 L1252.06 1548.85 L1252.06 1542.97 Z" fill="#000000" fill-rule="nonzero" fill-opacity="1" /><path clip-path="url(#clip630)" d="M1277.13 1517.37 Q1273.52 1517.37 1271.69 1520.93 Q1269.89 1524.47 1269.89 1531.6 Q1269.89 1538.71 1271.69 1542.27 Q1273.52 1545.82 1277.13 1545.82 Q1280.76 1545.82 1282.57 1542.27 Q1284.4 1538.71 1284.4 1531.6 Q1284.4 1524.47 1282.57 1520.93 Q1280.76 1517.37 1277.13 1517.37 M1277.13 1513.66 Q1282.94 1513.66 1286 1518.27 Q1289.08 1522.85 1289.08 1531.6 Q1289.08 1540.33 1286 1544.94 Q1282.94 1549.52 1277.13 1549.52 Q1271.32 1549.52 1268.24 1544.94 Q1265.19 1540.33 1265.19 1531.6 Q1265.19 1522.85 1268.24 1518.27 Q1271.32 1513.66 1277.13 1513.66 Z" fill="#000000" fill-rule="nonzero" fill-opacity="1" /><path clip-path="url(#clip630)" d="M1750.44 1517.37 Q1746.82 1517.37 1745 1520.93 Q1743.19 1524.47 1743.19 1531.6 Q1743.19 1538.71 1745 1542.27 Q1746.82 1545.82 1750.44 1545.82 Q1754.07 1545.82 1755.88 1542.27 Q1757.7 1538.71 1757.7 1531.6 Q1757.7 1524.47 1755.88 1520.93 Q1754.07 1517.37 1750.44 1517.37 M1750.44 1513.66 Q1756.25 1513.66 1759.3 1518.27 Q1762.38 1522.85 1762.38 1531.6 Q1762.38 1540.33 1759.3 1544.94 Q1756.25 1549.52 1750.44 1549.52 Q1744.63 1549.52 1741.55 1544.94 Q1738.49 1540.33 1738.49 1531.6 Q1738.49 1522.85 1741.55 1518.27 Q1744.63 1513.66 1750.44 1513.66 Z" fill="#000000" fill-rule="nonzero" fill-opacity="1" /><path clip-path="url(#clip630)" d="M1770.6 1542.97 L1775.48 1542.97 L1775.48 1548.85 L1770.6 1548.85 L1770.6 1542.97 Z" fill="#000000" fill-rule="nonzero" fill-opacity="1" /><path clip-path="url(#clip630)" d="M1785.71 1514.29 L1804.07 1514.29 L1804.07 1518.22 L1790 1518.22 L1790 1526.7 Q1791.01 1526.35 1792.03 1526.19 Q1793.05 1526 1794.07 1526 Q1799.86 1526 1803.24 1529.17 Q1806.62 1532.34 1806.62 1537.76 Q1806.62 1543.34 1803.14 1546.44 Q1799.67 1549.52 1793.35 1549.52 Q1791.18 1549.52 1788.91 1549.15 Q1786.66 1548.78 1784.25 1548.04 L1784.25 1543.34 Q1786.34 1544.47 1788.56 1545.03 Q1790.78 1545.58 1793.26 1545.58 Q1797.26 1545.58 1799.6 1543.48 Q1801.94 1541.37 1801.94 1537.76 Q1801.94 1534.15 1799.6 1532.04 Q1797.26 1529.94 1793.26 1529.94 Q1791.38 1529.94 1789.51 1530.35 Q1787.66 1530.77 1785.71 1531.65 L1785.71 1514.29 Z" fill="#000000" fill-rule="nonzero" fill-opacity="1" /><path clip-path="url(#clip630)" d="M2257.74 1544.91 L2265.38 1544.91 L2265.38 1518.55 L2257.07 1520.21 L2257.07 1515.95 L2265.34 1514.29 L2270.01 1514.29 L2270.01 1544.91 L2277.65 1544.91 L2277.65 1548.85 L2257.74 1548.85 L2257.74 1544.91 Z" fill="#000000" fill-rule="nonzero" fill-opacity="1" /><path clip-path="url(#clip630)" d="M2287.1 1542.97 L2291.98 1542.97 L2291.98 1548.85 L2287.1 1548.85 L2287.1 1542.97 Z" fill="#000000" fill-rule="nonzero" fill-opacity="1" /><path clip-path="url(#clip630)" d="M2312.17 1517.37 Q2308.55 1517.37 2306.73 1520.93 Q2304.92 1524.47 2304.92 1531.6 Q2304.92 1538.71 2306.73 1542.27 Q2308.55 1545.82 2312.17 1545.82 Q2315.8 1545.82 2317.61 1542.27 Q2319.43 1538.71 2319.43 1531.6 Q2319.43 1524.47 2317.61 1520.93 Q2315.8 1517.37 2312.17 1517.37 M2312.17 1513.66 Q2317.98 1513.66 2321.03 1518.27 Q2324.11 1522.85 2324.11 1531.6 Q2324.11 1540.33 2321.03 1544.94 Q2317.98 1549.52 2312.17 1549.52 Q2306.36 1549.52 2303.28 1544.94 Q2300.22 1540.33 2300.22 1531.6 Q2300.22 1522.85 2303.28 1518.27 Q2306.36 1513.66 2312.17 1513.66 Z" fill="#000000" fill-rule="nonzero" fill-opacity="1" /><polyline clip-path="url(#clip632)" style="stroke:#000000; stroke-linecap:round; stroke-linejoin:round; stroke-width:2; stroke-opacity:0.1; fill:none" points="156.274,1229.72 2352.76,1229.72 "/>
<polyline clip-path="url(#clip632)" style="stroke:#000000; stroke-linecap:round; stroke-linejoin:round; stroke-width:2; stroke-opacity:0.1; fill:none" points="156.274,961.773 2352.76,961.773 "/>
<polyline clip-path="url(#clip632)" style="stroke:#000000; stroke-linecap:round; stroke-linejoin:round; stroke-width:2; stroke-opacity:0.1; fill:none" points="156.274,693.823 2352.76,693.823 "/>
<polyline clip-path="url(#clip632)" style="stroke:#000000; stroke-linecap:round; stroke-linejoin:round; stroke-width:2; stroke-opacity:0.1; fill:none" points="156.274,425.874 2352.76,425.874 "/>
<polyline clip-path="url(#clip632)" style="stroke:#000000; stroke-linecap:round; stroke-linejoin:round; stroke-width:2; stroke-opacity:0.1; fill:none" points="156.274,157.924 2352.76,157.924 "/>
<polyline clip-path="url(#clip630)" style="stroke:#000000; stroke-linecap:round; stroke-linejoin:round; stroke-width:4; stroke-opacity:1; fill:none" points="156.274,1486.45 156.274,47.2441 "/>
<polyline clip-path="url(#clip630)" style="stroke:#000000; stroke-linecap:round; stroke-linejoin:round; stroke-width:4; stroke-opacity:1; fill:none" points="156.274,1229.72 175.172,1229.72 "/>
<polyline clip-path="url(#clip630)" style="stroke:#000000; stroke-linecap:round; stroke-linejoin:round; stroke-width:4; stroke-opacity:1; fill:none" points="156.274,961.773 175.172,961.773 "/>
<polyline clip-path="url(#clip630)" style="stroke:#000000; stroke-linecap:round; stroke-linejoin:round; stroke-width:4; stroke-opacity:1; fill:none" points="156.274,693.823 175.172,693.823 "/>
<polyline clip-path="url(#clip630)" style="stroke:#000000; stroke-linecap:round; stroke-linejoin:round; stroke-width:4; stroke-opacity:1; fill:none" points="156.274,425.874 175.172,425.874 "/>
<polyline clip-path="url(#clip630)" style="stroke:#000000; stroke-linecap:round; stroke-linejoin:round; stroke-width:4; stroke-opacity:1; fill:none" points="156.274,157.924 175.172,157.924 "/>
<path clip-path="url(#clip630)" d="M63.0985 1215.52 Q59.4875 1215.52 57.6588 1219.09 Q55.8532 1222.63 55.8532 1229.76 Q55.8532 1236.86 57.6588 1240.43 Q59.4875 1243.97 63.0985 1243.97 Q66.7328 1243.97 68.5383 1240.43 Q70.367 1236.86 70.367 1229.76 Q70.367 1222.63 68.5383 1219.09 Q66.7328 1215.52 63.0985 1215.52 M63.0985 1211.82 Q68.9087 1211.82 71.9642 1216.42 Q75.0429 1221.01 75.0429 1229.76 Q75.0429 1238.48 71.9642 1243.09 Q68.9087 1247.67 63.0985 1247.67 Q57.2884 1247.67 54.2097 1243.09 Q51.1542 1238.48 51.1542 1229.76 Q51.1542 1221.01 54.2097 1216.42 Q57.2884 1211.82 63.0985 1211.82 Z" fill="#000000" fill-rule="nonzero" fill-opacity="1" /><path clip-path="url(#clip630)" d="M83.2605 1241.12 L88.1447 1241.12 L88.1447 1247 L83.2605 1247 L83.2605 1241.12 Z" fill="#000000" fill-rule="nonzero" fill-opacity="1" /><path clip-path="url(#clip630)" d="M108.33 1215.52 Q104.719 1215.52 102.89 1219.09 Q101.084 1222.63 101.084 1229.76 Q101.084 1236.86 102.89 1240.43 Q104.719 1243.97 108.33 1243.97 Q111.964 1243.97 113.77 1240.43 Q115.598 1236.86 115.598 1229.76 Q115.598 1222.63 113.77 1219.09 Q111.964 1215.52 108.33 1215.52 M108.33 1211.82 Q114.14 1211.82 117.195 1216.42 Q120.274 1221.01 120.274 1229.76 Q120.274 1238.48 117.195 1243.09 Q114.14 1247.67 108.33 1247.67 Q102.52 1247.67 99.4409 1243.09 Q96.3854 1238.48 96.3854 1229.76 Q96.3854 1221.01 99.4409 1216.42 Q102.52 1211.82 108.33 1211.82 Z" fill="#000000" fill-rule="nonzero" fill-opacity="1" /><path clip-path="url(#clip630)" d="M63.7467 947.572 Q60.1356 947.572 58.3069 951.136 Q56.5014 954.678 56.5014 961.808 Q56.5014 968.914 58.3069 972.479 Q60.1356 976.021 63.7467 976.021 Q67.3809 976.021 69.1865 972.479 Q71.0152 968.914 71.0152 961.808 Q71.0152 954.678 69.1865 951.136 Q67.3809 947.572 63.7467 947.572 M63.7467 943.868 Q69.5568 943.868 72.6124 948.474 Q75.6911 953.058 75.6911 961.808 Q75.6911 970.535 72.6124 975.141 Q69.5568 979.724 63.7467 979.724 Q57.9365 979.724 54.8578 975.141 Q51.8023 970.535 51.8023 961.808 Q51.8023 953.058 54.8578 948.474 Q57.9365 943.868 63.7467 943.868 Z" fill="#000000" fill-rule="nonzero" fill-opacity="1" /><path clip-path="url(#clip630)" d="M83.9086 973.173 L88.7928 973.173 L88.7928 979.053 L83.9086 979.053 L83.9086 973.173 Z" fill="#000000" fill-rule="nonzero" fill-opacity="1" /><path clip-path="url(#clip630)" d="M113.145 960.419 Q116.501 961.136 118.376 963.405 Q120.274 965.673 120.274 969.007 Q120.274 974.122 116.756 976.923 Q113.237 979.724 106.756 979.724 Q104.58 979.724 102.265 979.284 Q99.9733 978.868 97.5197 978.011 L97.5197 973.497 Q99.4641 974.632 101.779 975.21 Q104.094 975.789 106.617 975.789 Q111.015 975.789 113.307 974.053 Q115.621 972.317 115.621 969.007 Q115.621 965.951 113.469 964.238 Q111.339 962.502 107.52 962.502 L103.492 962.502 L103.492 958.66 L107.705 958.66 Q111.154 958.66 112.983 957.294 Q114.811 955.905 114.811 953.312 Q114.811 950.65 112.913 949.238 Q111.038 947.803 107.52 947.803 Q105.598 947.803 103.399 948.22 Q101.2 948.636 98.5613 949.516 L98.5613 945.349 Q101.223 944.609 103.538 944.238 Q105.876 943.868 107.936 943.868 Q113.26 943.868 116.362 946.299 Q119.464 948.706 119.464 952.826 Q119.464 955.697 117.82 957.687 Q116.177 959.655 113.145 960.419 Z" fill="#000000" fill-rule="nonzero" fill-opacity="1" /><path clip-path="url(#clip630)" d="M62.9365 679.622 Q59.3254 679.622 57.4967 683.187 Q55.6912 686.729 55.6912 693.858 Q55.6912 700.965 57.4967 704.529 Q59.3254 708.071 62.9365 708.071 Q66.5707 708.071 68.3763 704.529 Q70.205 700.965 70.205 693.858 Q70.205 686.729 68.3763 683.187 Q66.5707 679.622 62.9365 679.622 M62.9365 675.918 Q68.7467 675.918 71.8022 680.525 Q74.8809 685.108 74.8809 693.858 Q74.8809 702.585 71.8022 707.191 Q68.7467 711.775 62.9365 711.775 Q57.1264 711.775 54.0477 707.191 Q50.9921 702.585 50.9921 693.858 Q50.9921 685.108 54.0477 680.525 Q57.1264 675.918 62.9365 675.918 Z" fill="#000000" fill-rule="nonzero" fill-opacity="1" /><path clip-path="url(#clip630)" d="M83.0984 705.224 L87.9827 705.224 L87.9827 711.103 L83.0984 711.103 L83.0984 705.224 Z" fill="#000000" fill-rule="nonzero" fill-opacity="1" /><path clip-path="url(#clip630)" d="M108.746 691.96 Q105.598 691.96 103.746 694.113 Q101.918 696.266 101.918 700.016 Q101.918 703.742 103.746 705.918 Q105.598 708.071 108.746 708.071 Q111.895 708.071 113.723 705.918 Q115.575 703.742 115.575 700.016 Q115.575 696.266 113.723 694.113 Q111.895 691.96 108.746 691.96 M118.029 677.307 L118.029 681.567 Q116.27 680.733 114.464 680.293 Q112.682 679.854 110.922 679.854 Q106.293 679.854 103.839 682.979 Q101.409 686.104 101.061 692.423 Q102.427 690.409 104.487 689.344 Q106.547 688.256 109.024 688.256 Q114.233 688.256 117.242 691.428 Q120.274 694.576 120.274 700.016 Q120.274 705.34 117.126 708.557 Q113.978 711.775 108.746 711.775 Q102.751 711.775 99.5798 707.191 Q96.4085 702.585 96.4085 693.858 Q96.4085 685.664 100.297 680.803 Q104.186 675.918 110.737 675.918 Q112.496 675.918 114.279 676.266 Q116.084 676.613 118.029 677.307 Z" fill="#000000" fill-rule="nonzero" fill-opacity="1" /><path clip-path="url(#clip630)" d="M63.2837 411.673 Q59.6726 411.673 57.8439 415.237 Q56.0384 418.779 56.0384 425.909 Q56.0384 433.015 57.8439 436.58 Q59.6726 440.122 63.2837 440.122 Q66.918 440.122 68.7235 436.58 Q70.5522 433.015 70.5522 425.909 Q70.5522 418.779 68.7235 415.237 Q66.918 411.673 63.2837 411.673 M63.2837 407.969 Q69.0939 407.969 72.1494 412.575 Q75.2281 417.159 75.2281 425.909 Q75.2281 434.635 72.1494 439.242 Q69.0939 443.825 63.2837 443.825 Q57.4736 443.825 54.3949 439.242 Q51.3393 434.635 51.3393 425.909 Q51.3393 417.159 54.3949 412.575 Q57.4736 407.969 63.2837 407.969 Z" fill="#000000" fill-rule="nonzero" fill-opacity="1" /><path clip-path="url(#clip630)" d="M83.4457 437.274 L88.3299 437.274 L88.3299 443.154 L83.4457 443.154 L83.4457 437.274 Z" fill="#000000" fill-rule="nonzero" fill-opacity="1" /><path clip-path="url(#clip630)" d="M98.6539 442.436 L98.6539 438.177 Q100.413 439.01 102.219 439.45 Q104.024 439.89 105.76 439.89 Q110.39 439.89 112.82 436.788 Q115.274 433.663 115.621 427.321 Q114.279 429.311 112.219 430.376 Q110.158 431.441 107.658 431.441 Q102.473 431.441 99.4409 428.316 Q96.4317 425.168 96.4317 419.728 Q96.4317 414.404 99.5798 411.187 Q102.728 407.969 107.959 407.969 Q113.955 407.969 117.103 412.575 Q120.274 417.159 120.274 425.909 Q120.274 434.08 116.385 438.964 Q112.52 443.825 105.969 443.825 Q104.209 443.825 102.404 443.478 Q100.598 443.131 98.6539 442.436 M107.959 427.784 Q111.108 427.784 112.936 425.631 Q114.788 423.478 114.788 419.728 Q114.788 416.001 112.936 413.849 Q111.108 411.673 107.959 411.673 Q104.811 411.673 102.959 413.849 Q101.131 416.001 101.131 419.728 Q101.131 423.478 102.959 425.631 Q104.811 427.784 107.959 427.784 Z" fill="#000000" fill-rule="nonzero" fill-opacity="1" /><path clip-path="url(#clip630)" d="M55.506 171.269 L63.1448 171.269 L63.1448 144.904 L54.8347 146.57 L54.8347 142.311 L63.0985 140.644 L67.7744 140.644 L67.7744 171.269 L75.4133 171.269 L75.4133 175.204 L55.506 175.204 L55.506 171.269 Z" fill="#000000" fill-rule="nonzero" fill-opacity="1" /><path clip-path="url(#clip630)" d="M84.8577 169.325 L89.7419 169.325 L89.7419 175.204 L84.8577 175.204 L84.8577 169.325 Z" fill="#000000" fill-rule="nonzero" fill-opacity="1" /><path clip-path="url(#clip630)" d="M103.955 171.269 L120.274 171.269 L120.274 175.204 L98.3298 175.204 L98.3298 171.269 Q100.992 168.515 105.575 163.885 Q110.182 159.232 111.362 157.89 Q113.608 155.367 114.487 153.63 Q115.39 151.871 115.39 150.181 Q115.39 147.427 113.445 145.691 Q111.524 143.955 108.422 143.955 Q106.223 143.955 103.77 144.718 Q101.339 145.482 98.5613 147.033 L98.5613 142.311 Q101.385 141.177 103.839 140.598 Q106.293 140.019 108.33 140.019 Q113.7 140.019 116.895 142.705 Q120.089 145.39 120.089 149.88 Q120.089 152.01 119.279 153.931 Q118.492 155.83 116.385 158.422 Q115.807 159.093 112.705 162.311 Q109.603 165.505 103.955 171.269 Z" fill="#000000" fill-rule="nonzero" fill-opacity="1" /><polyline clip-path="url(#clip632)" style="stroke:#009af9; stroke-linecap:round; stroke-linejoin:round; stroke-width:16; stroke-opacity:1; fill:none" stroke-dasharray="8, 16" points="218.439,1055.11 228.852,1062.65 239.264,1070.19 249.677,1077.73 260.09,1085.27 270.503,1092.81 280.916,1100.35 291.329,1107.89 301.741,1115.42 312.154,1138.73 322.567,1163.91 332.98,1189.1 343.393,1214.28 353.805,1239.46 364.218,1264.64 374.631,1289.82 385.044,1315 395.457,1337.87 405.87,1359.44 416.282,1381.01 426.695,1402.58 437.108,1424.15 447.521,1445.72 457.934,1422.82 468.347,1395.98 478.759,1369.14 489.172,1342.3 499.585,1315.46 509.998,1288.62 520.411,1261.78 530.824,1234.94 541.236,1208.1 551.649,1181.26 562.062,1154.63 572.475,1128.14 582.888,1101.65 593.301,1075.16 603.713,1048.68 614.126,1022.19 624.539,1022.71 634.952,1045.32 645.365,1067.93 655.777,1090.54 666.19,1112.91 676.603,1135.13 687.016,1159.9 697.429,1189.4 707.842,1218.61 718.254,1247.09 728.667,1275.38 739.08,1303.67 749.493,1331.96 759.906,1360.25 770.319,1388.55 780.731,1416.48 791.144,1420.06 801.557,1413.15 811.97,1406.24 822.383,1393.57 832.796,1375.5 843.208,1357.54 853.621,1343.27 864.034,1315.13 874.447,1282.92 884.86,1250.97 895.273,1222.68 905.685,1196.06 916.098,1168.24 926.511,1140.23 936.924,1106.42 947.337,1066.02 957.749,1052.21 968.162,1050.04 978.575,1051.88 988.988,1058.57 999.401,1067.37 1009.81,1075.53 1020.23,1086.75 1030.64,1109.21 1041.05,1131.66 1051.46,1158.77 1061.88,1193.36 1072.29,1229.5 1082.7,1265.39 1093.12,1295.57 1103.53,1320.52 1113.94,1335.44 1124.35,1351.13 1134.77,1370.36 1145.18,1394.56 1155.59,1403.65 1166.01,1400.36 1176.42,1394.91 1186.83,1390.47 1197.24,1396.85 1207.66,1392.64 1218.07,1364.78 1228.48,1325.69 1238.9,1200.48 1249.31,941.002 1259.72,683.184 1270.13,434.893 1280.55,283.925 1290.96,214.535 1301.37,195.963 1311.79,260.802 1322.2,365.631 1332.61,358.313 1343.02,343.176 1353.44,325.942 1363.85,314.437 1374.26,312.333 1384.68,318.501 1395.09,324.286 1405.5,335.073 1415.91,350.009 1426.33,361.455 1436.74,373.027 1447.15,374.78 1457.57,357.864 1467.98,340.948 1478.39,324.033 1488.8,311.411 1499.22,315.151 1509.63,318.891 1520.04,322.631 1530.45,326.372 1540.87,330.112 1551.28,333.044 1561.69,331.742 1572.11,330.439 1582.52,329.137 1592.93,327.834 1603.34,326.532 1613.76,325.229 1624.17,325.808 1634.58,326.449 1645,327.09 1655.41,327.731 1665.82,328.371 1676.23,329.012 1686.65,329.653 1697.06,330.294 1707.47,330.934 1717.89,331.575 1728.3,332.216 1738.71,332.857 1749.12,333.498 1759.54,334.139 1769.95,334.779 1780.36,335.42 1790.78,336.061 1801.19,336.702 1811.6,337.342 1822.01,337.983 1832.43,338.624 1842.84,339.265 1853.25,339.906 1863.67,340.547 1874.08,341.187 1884.49,341.828 1894.9,342.469 1905.32,343.11 1915.73,343.751 1926.14,344.392 1936.56,345.032 1946.97,345.673 1957.38,346.314 1967.79,346.955 1978.21,347.595 1988.62,348.236 1999.03,348.877 2009.45,349.518 2019.86,350.159 2030.27,350.799 2040.68,351.44 2051.1,352.081 2061.51,352.722 2071.92,353.362 2082.33,354.003 2092.75,354.795 2103.16,355.708 2113.57,356.622 2123.99,357.535 2134.4,358.448 2144.81,359.361 2155.22,360.274 2165.64,361.187 2176.05,362.1 2186.46,363.014 2196.88,363.927 2207.29,364.84 2217.7,365.753 2228.11,366.666 2238.53,367.579 2248.94,368.493 2259.35,369.405 2269.77,370.318 2280.18,371.232 2290.59,372.144 "/>
<polyline clip-path="url(#clip632)" style="stroke:#e26f46; stroke-linecap:round; stroke-linejoin:round; stroke-width:4; stroke-opacity:1; fill:none" points="218.439,1095.57 228.852,1076.54 239.264,1062.5 249.677,1053.93 260.09,1051.09 270.503,1054.08 280.916,1062.81 291.329,1076.98 301.741,1096.13 312.154,1119.65 322.567,1146.76 332.98,1176.58 343.393,1208.13 353.805,1240.38 364.218,1272.29 374.631,1302.81 385.044,1330.95 395.457,1355.77 405.87,1376.49 416.282,1392.42 426.695,1403.03 437.108,1407.99 447.521,1407.13 457.934,1400.48 468.347,1388.26 478.759,1370.87 489.172,1348.86 499.585,1322.97 509.998,1294.04 520.411,1263 530.824,1230.88 541.236,1198.72 551.649,1167.58 562.062,1138.46 572.475,1112.32 582.888,1090.01 593.301,1072.27 603.713,1059.66 614.126,1052.6 624.539,1051.32 634.952,1055.87 645.365,1066.08 655.777,1081.64 666.19,1102.04 676.603,1126.6 687.016,1154.52 697.429,1184.9 707.842,1216.75 718.254,1249.01 728.667,1280.65 739.08,1310.62 749.493,1337.96 759.906,1361.76 770.319,1381.25 780.731,1395.8 791.144,1404.93 801.557,1408.33 811.97,1405.91 822.383,1397.74 832.796,1384.09 843.208,1365.39 853.621,1342.27 864.034,1315.48 874.447,1285.89 884.86,1254.46 895.273,1222.23 905.685,1190.24 916.098,1159.54 926.511,1131.13 936.924,1105.94 947.337,1084.78 957.749,1068.36 968.162,1057.21 978.575,1051.68 988.988,1051.97 999.401,1058.06 1009.81,1069.75 1020.23,1086.66 1030.64,1108.24 1041.05,1133.79 1051.46,1162.46 1061.88,1193.33 1072.29,1225.39 1082.7,1257.59 1093.12,1288.89 1103.53,1318.25 1113.94,1344.72 1124.35,1367.43 1134.77,1385.66 1145.18,1398.79 1155.59,1406.41 1166.01,1408.26 1176.42,1404.28 1186.83,1394.61 1197.24,1379.55 1207.66,1359.6 1218.07,1335.42 1228.48,1307.79 1238.9,1277.6 1249.31,1245.86 1259.72,335.26 1270.13,333.784 1280.55,335.128 1290.96,339.6 1301.37,345.831 1311.79,351.187 1322.2,352.773 1332.61,348.652 1343.02,338.827 1353.44,325.582 1363.85,312.979 1374.26,305.616 1384.68,307.028 1395.09,318.262 1405.5,337.157 1415.91,358.662 1426.33,376.173 1436.74,383.56 1447.15,377.237 1457.57,357.618 1467.98,329.398 1478.39,300.478 1488.8,279.751 1499.22,274.381 1509.63,287.398 1520.04,316.397 1530.45,353.849 1540.87,389.031 1551.28,411.096 1561.69,412.402 1572.11,391.086 1582.52,352.018 1592.93,305.773 1603.34,265.77 1613.76,244.386 1624.17,249.141 1634.58,280.143 1645,329.636 1655.41,383.893 1665.82,427.021 1676.23,445.615 1686.65,432.9 1697.06,391.088 1707.47,331.159 1717.89,270.004 1728.3,225.661 1738.71,212.004 1749.12,234.429 1759.54,287.878 1769.95,357.898 1780.36,424.531 1790.78,468.003 1801.19,474.588 1811.6,440.903 1822.01,375.314 1832.43,295.904 1842.84,225.5 1853.25,185.111 1863.67,187.664 1874.08,233.915 1884.49,311.799 1894.9,399.548 1905.32,471.767 1915.73,506.786 1926.14,493.149 1936.56,433.308 1946.97,343.337 1957.38,248.638 1967.79,176.77 1978.21,149.432 1988.62,175.925 1999.03,250.062 2009.45,351.542 2019.86,451.489 2030.27,520.671 2040.68,538.049 2051.1,497.149 2061.51,408.357 2071.92,296.319 2082.33,193.114 2092.75,129.067 2103.16,123.842 2113.57,180.433 2123.99,283.869 2134.4,405.151 2144.81,509.374 2155.22,565.77 2165.64,556.791 2176.05,483.532 2186.46,365.846 2196.88,236.983 2207.29,134.196 2217.7,87.9763 2228.11,113.015 2238.53,203.575 2248.94,334.723 2259.35,469.179 2269.77,567.916 2280.18,601.48 2290.59,558.771 "/>
<path clip-path="url(#clip630)" d="M229.49 250.738 L675.966 250.738 L675.966 95.2176 L229.49 95.2176  Z" fill="#ffffff" fill-rule="evenodd" fill-opacity="1"/>
<polyline clip-path="url(#clip630)" style="stroke:#000000; stroke-linecap:round; stroke-linejoin:round; stroke-width:4; stroke-opacity:1; fill:none" points="229.49,250.738 675.966,250.738 675.966,95.2176 229.49,95.2176 229.49,250.738 "/>
<polyline clip-path="url(#clip630)" style="stroke:#009af9; stroke-linecap:round; stroke-linejoin:round; stroke-width:16; stroke-opacity:1; fill:none" stroke-dasharray="8, 16" points="253.896,147.058 400.328,147.058 "/>
<path clip-path="url(#clip630)" d="M429.409 133.62 L429.409 146.606 L435.289 146.606 Q438.552 146.606 440.335 144.916 Q442.117 143.227 442.117 140.102 Q442.117 137 440.335 135.31 Q438.552 133.62 435.289 133.62 L429.409 133.62 M424.733 129.778 L435.289 129.778 Q441.099 129.778 444.062 132.416 Q447.048 135.032 447.048 140.102 Q447.048 145.217 444.062 147.833 Q441.099 150.449 435.289 150.449 L429.409 150.449 L429.409 164.338 L424.733 164.338 L424.733 129.778 Z" fill="#000000" fill-rule="nonzero" fill-opacity="1" /><path clip-path="url(#clip630)" d="M467.325 142.393 Q466.608 141.977 465.751 141.791 Q464.918 141.583 463.899 141.583 Q460.288 141.583 458.344 143.944 Q456.423 146.282 456.423 150.68 L456.423 164.338 L452.14 164.338 L452.14 138.412 L456.423 138.412 L456.423 142.44 Q457.765 140.078 459.918 138.944 Q462.071 137.787 465.149 137.787 Q465.589 137.787 466.122 137.856 Q466.654 137.903 467.302 138.018 L467.325 142.393 Z" fill="#000000" fill-rule="nonzero" fill-opacity="1" /><path clip-path="url(#clip630)" d="M492.927 150.31 L492.927 152.393 L473.344 152.393 Q473.622 156.791 475.983 159.106 Q478.367 161.398 482.603 161.398 Q485.057 161.398 487.348 160.796 Q489.663 160.194 491.932 158.99 L491.932 163.018 Q489.64 163.99 487.233 164.5 Q484.825 165.009 482.348 165.009 Q476.145 165.009 472.511 161.398 Q468.899 157.787 468.899 151.629 Q468.899 145.264 472.325 141.537 Q475.774 137.787 481.608 137.787 Q486.839 137.787 489.872 141.166 Q492.927 144.523 492.927 150.31 M488.668 149.06 Q488.622 145.565 486.7 143.481 Q484.802 141.398 481.654 141.398 Q478.089 141.398 475.936 143.412 Q473.807 145.426 473.483 149.083 L488.668 149.06 Z" fill="#000000" fill-rule="nonzero" fill-opacity="1" /><path clip-path="url(#clip630)" d="M516.978 142.347 L516.978 128.319 L521.237 128.319 L521.237 164.338 L516.978 164.338 L516.978 160.449 Q515.635 162.763 513.575 163.898 Q511.538 165.009 508.668 165.009 Q503.969 165.009 501.006 161.259 Q498.066 157.509 498.066 151.398 Q498.066 145.287 501.006 141.537 Q503.969 137.787 508.668 137.787 Q511.538 137.787 513.575 138.921 Q515.635 140.032 516.978 142.347 M502.464 151.398 Q502.464 156.097 504.385 158.782 Q506.33 161.444 509.709 161.444 Q513.089 161.444 515.033 158.782 Q516.978 156.097 516.978 151.398 Q516.978 146.699 515.033 144.037 Q513.089 141.352 509.709 141.352 Q506.33 141.352 504.385 144.037 Q502.464 146.699 502.464 151.398 Z" fill="#000000" fill-rule="nonzero" fill-opacity="1" /><path clip-path="url(#clip630)" d="M530.01 138.412 L534.269 138.412 L534.269 164.338 L530.01 164.338 L530.01 138.412 M530.01 128.319 L534.269 128.319 L534.269 133.713 L530.01 133.713 L530.01 128.319 Z" fill="#000000" fill-rule="nonzero" fill-opacity="1" /><path clip-path="url(#clip630)" d="M561.839 139.407 L561.839 143.389 Q560.033 142.393 558.205 141.907 Q556.399 141.398 554.547 141.398 Q550.404 141.398 548.112 144.037 Q545.82 146.652 545.82 151.398 Q545.82 156.143 548.112 158.782 Q550.404 161.398 554.547 161.398 Q556.399 161.398 558.205 160.912 Q560.033 160.402 561.839 159.407 L561.839 163.342 Q560.056 164.176 558.135 164.592 Q556.237 165.009 554.084 165.009 Q548.228 165.009 544.779 161.328 Q541.33 157.648 541.33 151.398 Q541.33 145.055 544.802 141.421 Q548.297 137.787 554.362 137.787 Q556.33 137.787 558.205 138.203 Q560.08 138.597 561.839 139.407 Z" fill="#000000" fill-rule="nonzero" fill-opacity="1" /><path clip-path="url(#clip630)" d="M573.459 131.051 L573.459 138.412 L582.232 138.412 L582.232 141.722 L573.459 141.722 L573.459 155.796 Q573.459 158.967 574.316 159.87 Q575.195 160.773 577.857 160.773 L582.232 160.773 L582.232 164.338 L577.857 164.338 Q572.927 164.338 571.052 162.509 Q569.177 160.657 569.177 155.796 L569.177 141.722 L566.052 141.722 L566.052 138.412 L569.177 138.412 L569.177 131.051 L573.459 131.051 Z" fill="#000000" fill-rule="nonzero" fill-opacity="1" /><path clip-path="url(#clip630)" d="M587.834 138.412 L592.093 138.412 L592.093 164.338 L587.834 164.338 L587.834 138.412 M587.834 128.319 L592.093 128.319 L592.093 133.713 L587.834 133.713 L587.834 128.319 Z" fill="#000000" fill-rule="nonzero" fill-opacity="1" /><path clip-path="url(#clip630)" d="M611.051 141.398 Q607.626 141.398 605.635 144.083 Q603.644 146.745 603.644 151.398 Q603.644 156.051 605.612 158.736 Q607.602 161.398 611.051 161.398 Q614.454 161.398 616.445 158.713 Q618.436 156.027 618.436 151.398 Q618.436 146.791 616.445 144.106 Q614.454 141.398 611.051 141.398 M611.051 137.787 Q616.607 137.787 619.778 141.398 Q622.95 145.009 622.95 151.398 Q622.95 157.764 619.778 161.398 Q616.607 165.009 611.051 165.009 Q605.473 165.009 602.302 161.398 Q599.153 157.764 599.153 151.398 Q599.153 145.009 602.302 141.398 Q605.473 137.787 611.051 137.787 Z" fill="#000000" fill-rule="nonzero" fill-opacity="1" /><path clip-path="url(#clip630)" d="M651.561 148.689 L651.561 164.338 L647.301 164.338 L647.301 148.828 Q647.301 145.148 645.866 143.319 Q644.431 141.49 641.561 141.49 Q638.112 141.49 636.121 143.69 Q634.13 145.889 634.13 149.685 L634.13 164.338 L629.848 164.338 L629.848 138.412 L634.13 138.412 L634.13 142.44 Q635.658 140.102 637.718 138.944 Q639.801 137.787 642.51 137.787 Q646.977 137.787 649.269 140.565 Q651.561 143.319 651.561 148.689 Z" fill="#000000" fill-rule="nonzero" fill-opacity="1" /><polyline clip-path="url(#clip630)" style="stroke:#e26f46; stroke-linecap:round; stroke-linejoin:round; stroke-width:4; stroke-opacity:1; fill:none" points="253.896,198.898 400.328,198.898 "/>
<path clip-path="url(#clip630)" d="M424.733 181.618 L446.585 181.618 L446.585 185.553 L429.409 185.553 L429.409 195.784 L445.867 195.784 L445.867 199.719 L429.409 199.719 L429.409 212.242 L447.001 212.242 L447.001 216.178 L424.733 216.178 L424.733 181.618 Z" fill="#000000" fill-rule="nonzero" fill-opacity="1" /><path clip-path="url(#clip630)" d="M476.052 190.252 L466.677 202.867 L476.538 216.178 L471.515 216.178 L463.969 205.992 L456.423 216.178 L451.4 216.178 L461.469 202.613 L452.256 190.252 L457.279 190.252 L464.154 199.488 L471.029 190.252 L476.052 190.252 Z" fill="#000000" fill-rule="nonzero" fill-opacity="1" /><path clip-path="url(#clip630)" d="M494.339 203.145 Q489.177 203.145 487.186 204.326 Q485.196 205.506 485.196 208.354 Q485.196 210.622 486.677 211.965 Q488.182 213.284 490.751 213.284 Q494.293 213.284 496.422 210.784 Q498.575 208.261 498.575 204.094 L498.575 203.145 L494.339 203.145 M502.834 201.386 L502.834 216.178 L498.575 216.178 L498.575 212.242 Q497.117 214.603 494.941 215.738 Q492.765 216.849 489.617 216.849 Q485.635 216.849 483.274 214.627 Q480.936 212.381 480.936 208.631 Q480.936 204.256 483.853 202.034 Q486.793 199.812 492.603 199.812 L498.575 199.812 L498.575 199.395 Q498.575 196.455 496.631 194.858 Q494.71 193.238 491.214 193.238 Q488.992 193.238 486.885 193.77 Q484.779 194.303 482.835 195.367 L482.835 191.432 Q485.173 190.53 487.372 190.09 Q489.571 189.627 491.654 189.627 Q497.279 189.627 500.057 192.543 Q502.834 195.46 502.834 201.386 Z" fill="#000000" fill-rule="nonzero" fill-opacity="1" /><path clip-path="url(#clip630)" d="M530.265 191.247 L530.265 195.229 Q528.459 194.233 526.631 193.747 Q524.825 193.238 522.973 193.238 Q518.83 193.238 516.538 195.877 Q514.246 198.492 514.246 203.238 Q514.246 207.983 516.538 210.622 Q518.83 213.238 522.973 213.238 Q524.825 213.238 526.631 212.752 Q528.459 212.242 530.265 211.247 L530.265 215.182 Q528.482 216.016 526.561 216.432 Q524.663 216.849 522.51 216.849 Q516.654 216.849 513.205 213.168 Q509.756 209.488 509.756 203.238 Q509.756 196.895 513.228 193.261 Q516.723 189.627 522.788 189.627 Q524.756 189.627 526.631 190.043 Q528.506 190.437 530.265 191.247 Z" fill="#000000" fill-rule="nonzero" fill-opacity="1" /><path clip-path="url(#clip630)" d="M541.885 182.891 L541.885 190.252 L550.658 190.252 L550.658 193.562 L541.885 193.562 L541.885 207.636 Q541.885 210.807 542.742 211.71 Q543.621 212.613 546.283 212.613 L550.658 212.613 L550.658 216.178 L546.283 216.178 Q541.353 216.178 539.478 214.349 Q537.603 212.497 537.603 207.636 L537.603 193.562 L534.478 193.562 L534.478 190.252 L537.603 190.252 L537.603 182.891 L541.885 182.891 Z" fill="#000000" fill-rule="nonzero" fill-opacity="1" /></svg>
