<?xml version="1.0" encoding="utf-8"?>
<svg xmlns="http://www.w3.org/2000/svg" xmlns:xlink="http://www.w3.org/1999/xlink" width="600" height="400" viewBox="0 0 2400 1600">
<defs>
  <clipPath id="clip580">
    <rect x="0" y="0" width="2400" height="1600"/>
  </clipPath>
</defs>
<path clip-path="url(#clip580)" d="M0 1600 L2400 1600 L2400 0 L0 0  Z" fill="#ffffff" fill-rule="evenodd" fill-opacity="1"/>
<defs>
  <clipPath id="clip581">
    <rect x="480" y="0" width="1681" height="1600"/>
  </clipPath>
</defs>
<path clip-path="url(#clip580)" d="M156.274 1486.45 L2352.76 1486.45 L2352.76 47.2441 L156.274 47.2441  Z" fill="#ffffff" fill-rule="evenodd" fill-opacity="1"/>
<defs>
  <clipPath id="clip582">
    <rect x="156" y="47" width="2197" height="1440"/>
  </clipPath>
</defs>
<polyline clip-path="url(#clip582)" style="stroke:#000000; stroke-linecap:round; stroke-linejoin:round; stroke-width:2; stroke-opacity:0.1; fill:none" points="218.439,1486.45 218.439,47.2441 "/>
<polyline clip-path="url(#clip582)" style="stroke:#000000; stroke-linecap:round; stroke-linejoin:round; stroke-width:2; stroke-opacity:0.1; fill:none" points="736.477,1486.45 736.477,47.2441 "/>
<polyline clip-path="url(#clip582)" style="stroke:#000000; stroke-linecap:round; stroke-linejoin:round; stroke-width:2; stroke-opacity:0.1; fill:none" points="1254.52,1486.45 1254.52,47.2441 "/>
<polyline clip-path="url(#clip582)" style="stroke:#000000; stroke-linecap:round; stroke-linejoin:round; stroke-width:2; stroke-opacity:0.1; fill:none" points="1772.55,1486.45 1772.55,47.2441 "/>
<polyline clip-path="url(#clip582)" style="stroke:#000000; stroke-linecap:round; stroke-linejoin:round; stroke-width:2; stroke-opacity:0.1; fill:none" points="2290.59,1486.45 2290.59,47.2441 "/>
<polyline clip-path="url(#clip580)" style="stroke:#000000; stroke-linecap:round; stroke-linejoin:round; stroke-width:4; stroke-opacity:1; fill:none" points="156.274,1486.45 2352.76,1486.45 "/>
<polyline clip-path="url(#clip580)" style="stroke:#000000; stroke-linecap:round; stroke-linejoin:round; stroke-width:4; stroke-opacity:1; fill:none" points="218.439,1486.45 218.439,1467.55 "/>
<polyline clip-path="url(#clip580)" style="stroke:#000000; stroke-linecap:round; stroke-linejoin:round; stroke-width:4; stroke-opacity:1; fill:none" points="736.477,1486.45 736.477,1467.55 "/>
<polyline clip-path="url(#clip580)" style="stroke:#000000; stroke-linecap:round; stroke-linejoin:round; stroke-width:4; stroke-opacity:1; fill:none" points="1254.52,1486.45 1254.52,1467.55 "/>
<polyline clip-path="url(#clip580)" style="stroke:#000000; stroke-linecap:round; stroke-linejoin:round; stroke-width:4; stroke-opacity:1; fill:none" points="1772.55,1486.45 1772.55,1467.55 "/>
<polyline clip-path="url(#clip580)" style="stroke:#000000; stroke-linecap:round; stroke-linejoin:round; stroke-width:4; stroke-opacity:1; fill:none" points="2290.59,1486.45 2290.59,1467.55 "/>
<path clip-path="url(#clip580)" d="M164.967 1532.02 L194.643 1532.02 L194.643 1535.95 L164.967 1535.95 L164.967 1532.02 Z" fill="#000000" fill-rule="nonzero" fill-opacity="1" /><path clip-path="url(#clip580)" d="M205.545 1544.91 L213.184 1544.91 L213.184 1518.55 L204.874 1520.21 L204.874 1515.95 L213.138 1514.29 L217.814 1514.29 L217.814 1544.91 L225.453 1544.91 L225.453 1548.85 L205.545 1548.85 L205.545 1544.91 Z" fill="#000000" fill-rule="nonzero" fill-opacity="1" /><path clip-path="url(#clip580)" d="M234.897 1542.97 L239.781 1542.97 L239.781 1548.85 L234.897 1548.85 L234.897 1542.97 Z" fill="#000000" fill-rule="nonzero" fill-opacity="1" /><path clip-path="url(#clip580)" d="M259.966 1517.37 Q256.355 1517.37 254.527 1520.93 Q252.721 1524.47 252.721 1531.6 Q252.721 1538.71 254.527 1542.27 Q256.355 1545.82 259.966 1545.82 Q263.601 1545.82 265.406 1542.27 Q267.235 1538.71 267.235 1531.6 Q267.235 1524.47 265.406 1520.93 Q263.601 1517.37 259.966 1517.37 M259.966 1513.66 Q265.776 1513.66 268.832 1518.27 Q271.911 1522.85 271.911 1531.6 Q271.911 1540.33 268.832 1544.94 Q265.776 1549.52 259.966 1549.52 Q254.156 1549.52 251.077 1544.94 Q248.022 1540.33 248.022 1531.6 Q248.022 1522.85 251.077 1518.27 Q254.156 1513.66 259.966 1513.66 Z" fill="#000000" fill-rule="nonzero" fill-opacity="1" /><path clip-path="url(#clip580)" d="M683.503 1532.02 L713.178 1532.02 L713.178 1535.95 L683.503 1535.95 L683.503 1532.02 Z" fill="#000000" fill-rule="nonzero" fill-opacity="1" /><path clip-path="url(#clip580)" d="M733.271 1517.37 Q729.66 1517.37 727.831 1520.93 Q726.026 1524.47 726.026 1531.6 Q726.026 1538.71 727.831 1542.27 Q729.66 1545.82 733.271 1545.82 Q736.905 1545.82 738.711 1542.27 Q740.539 1538.71 740.539 1531.6 Q740.539 1524.47 738.711 1520.93 Q736.905 1517.37 733.271 1517.37 M733.271 1513.66 Q739.081 1513.66 742.137 1518.27 Q745.215 1522.85 745.215 1531.6 Q745.215 1540.33 742.137 1544.94 Q739.081 1549.52 733.271 1549.52 Q727.461 1549.52 724.382 1544.94 Q721.327 1540.33 721.327 1531.6 Q721.327 1522.85 724.382 1518.27 Q727.461 1513.66 733.271 1513.66 Z" fill="#000000" fill-rule="nonzero" fill-opacity="1" /><path clip-path="url(#clip580)" d="M753.433 1542.97 L758.317 1542.97 L758.317 1548.85 L753.433 1548.85 L753.433 1542.97 Z" fill="#000000" fill-rule="nonzero" fill-opacity="1" /><path clip-path="url(#clip580)" d="M768.548 1514.29 L786.905 1514.29 L786.905 1518.22 L772.831 1518.22 L772.831 1526.7 Q773.849 1526.35 774.868 1526.19 Q775.886 1526 776.905 1526 Q782.692 1526 786.072 1529.17 Q789.451 1532.34 789.451 1537.76 Q789.451 1543.34 785.979 1546.44 Q782.507 1549.52 776.187 1549.52 Q774.011 1549.52 771.743 1549.15 Q769.498 1548.78 767.09 1548.04 L767.09 1543.34 Q769.173 1544.47 771.396 1545.03 Q773.618 1545.58 776.095 1545.58 Q780.099 1545.58 782.437 1543.48 Q784.775 1541.37 784.775 1537.76 Q784.775 1534.15 782.437 1532.04 Q780.099 1529.94 776.095 1529.94 Q774.22 1529.94 772.345 1530.35 Q770.493 1530.77 768.548 1531.65 L768.548 1514.29 Z" fill="#000000" fill-rule="nonzero" fill-opacity="1" /><path clip-path="url(#clip580)" d="M1231.9 1517.37 Q1228.29 1517.37 1226.46 1520.93 Q1224.65 1524.47 1224.65 1531.6 Q1224.65 1538.71 1226.46 1542.27 Q1228.29 1545.82 1231.9 1545.82 Q1235.53 1545.82 1237.34 1542.27 Q1239.17 1538.71 1239.17 1531.6 Q1239.17 1524.47 1237.34 1520.93 Q1235.53 1517.37 1231.9 1517.37 M1231.9 1513.66 Q1237.71 1513.66 1240.77 1518.27 Q1243.84 1522.85 1243.84 1531.6 Q1243.84 1540.33 1240.77 1544.94 Q1237.71 1549.52 1231.9 1549.52 Q1226.09 1549.52 1223.01 1544.94 Q1219.96 1540.33 1219.96 1531.6 Q1219.96 1522.85 1223.01 1518.27 Q1226.09 1513.66 1231.9 1513.66 Z" fill="#000000" fill-rule="nonzero" fill-opacity="1" /><path clip-path="url(#clip580)" d="M1252.06 1542.97 L1256.95 1542.97 L1256.95 1548.85 L1252.06 1548.85 L1252.06 1542.97 Z" fill="#000000" fill-rule="nonzero" fill-opacity="1" /><path clip-path="url(#clip580)" d="M1277.13 1517.37 Q1273.52 1517.37 1271.69 1520.93 Q1269.89 1524.47 1269.89 1531.6 Q1269.89 1538.71 1271.69 1542.27 Q1273.52 1545.82 1277.13 1545.82 Q1280.76 1545.82 1282.57 1542.27 Q1284.4 1538.71 1284.4 1531.6 Q1284.4 1524.47 1282.57 1520.93 Q1280.76 1517.37 1277.13 1517.37 M1277.13 1513.66 Q1282.94 1513.66 1286 1518.27 Q1289.08 1522.85 1289.08 1531.6 Q1289.08 1540.33 1286 1544.94 Q1282.94 1549.52 1277.13 1549.52 Q1271.32 1549.52 1268.24 1544.94 Q1265.19 1540.33 1265.19 1531.6 Q1265.19 1522.85 1268.24 1518.27 Q1271.32 1513.66 1277.13 1513.66 Z" fill="#000000" fill-rule="nonzero" fill-opacity="1" /><path clip-path="url(#clip580)" d="M1750.44 1517.37 Q1746.82 1517.37 1745 1520.93 Q1743.19 1524.47 1743.19 1531.6 Q1743.19 1538.71 1745 1542.27 Q1746.82 1545.82 1750.44 1545.82 Q1754.07 1545.82 1755.88 1542.27 Q1757.7 1538.71 1757.7 1531.6 Q1757.7 1524.47 1755.88 1520.93 Q1754.07 1517.37 1750.44 1517.37 M1750.44 1513.66 Q1756.25 1513.66 1759.3 1518.27 Q1762.38 1522.85 1762.38 1531.6 Q1762.38 1540.33 1759.3 1544.94 Q1756.25 1549.52 1750.44 1549.52 Q1744.63 1549.52 1741.55 1544.94 Q1738.49 1540.33 1738.49 1531.6 Q1738.49 1522.85 1741.55 1518.27 Q1744.63 1513.66 1750.44 1513.66 Z" fill="#000000" fill-rule="nonzero" fill-opacity="1" /><path clip-path="url(#clip580)" d="M1770.6 1542.97 L1775.48 1542.97 L1775.48 1548.85 L1770.6 1548.85 L1770.6 1542.97 Z" fill="#000000" fill-rule="nonzero" fill-opacity="1" /><path clip-path="url(#clip580)" d="M1785.71 1514.29 L1804.07 1514.29 L1804.07 1518.22 L1790 1518.22 L1790 1526.7 Q1791.01 1526.35 1792.03 1526.19 Q1793.05 1526 1794.07 1526 Q1799.86 1526 1803.24 1529.17 Q1806.62 1532.34 1806.62 1537.76 Q1806.62 1543.34 1803.14 1546.44 Q1799.67 1549.52 1793.35 1549.52 Q1791.18 1549.52 1788.91 1549.15 Q1786.66 1548.78 1784.25 1548.04 L1784.25 1543.34 Q1786.34 1544.47 1788.56 1545.03 Q1790.78 1545.58 1793.26 1545.58 Q1797.26 1545.58 1799.6 1543.48 Q1801.94 1541.37 1801.94 1537.76 Q1801.94 1534.15 1799.6 1532.04 Q1797.26 1529.94 1793.26 1529.94 Q1791.38 1529.94 1789.51 1530.35 Q1787.66 1530.77 1785.71 1531.65 L1785.71 1514.29 Z" fill="#000000" fill-rule="nonzero" fill-opacity="1" /><path clip-path="url(#clip580)" d="M2257.74 1544.91 L2265.38 1544.91 L2265.38 1518.55 L2257.07 1520.21 L2257.07 1515.95 L2265.34 1514.29 L2270.01 1514.29 L2270.01 1544.91 L2277.65 1544.91 L2277.65 1548.85 L2257.74 1548.85 L2257.74 1544.91 Z" fill="#000000" fill-rule="nonzero" fill-opacity="1" /><path clip-path="url(#clip580)" d="M2287.1 1542.97 L2291.98 1542.97 L2291.98 1548.85 L2287.1 1548.85 L2287.1 1542.97 Z" fill="#000000" fill-rule="nonzero" fill-opacity="1" /><path clip-path="url(#clip580)" d="M2312.17 1517.37 Q2308.55 1517.37 2306.73 1520.93 Q2304.92 1524.47 2304.92 1531.6 Q2304.92 1538.71 2306.73 1542.27 Q2308.55 1545.82 2312.17 1545.82 Q2315.8 1545.82 2317.61 1542.27 Q2319.43 1538.71 2319.43 1531.6 Q2319.43 1524.47 2317.61 1520.93 Q2315.8 1517.37 2312.17 1517.37 M2312.17 1513.66 Q2317.98 1513.66 2321.03 1518.27 Q2324.11 1522.85 2324.11 1531.6 Q2324.11 1540.33 2321.03 1544.94 Q2317.98 1549.52 2312.17 1549.52 Q2306.36 1549.52 2303.28 1544.94 Q2300.22 1540.33 2300.22 1531.6 Q2300.22 1522.85 2303.28 1518.27 Q2306.36 1513.66 2312.17 1513.66 Z" fill="#000000" fill-rule="nonzero" fill-opacity="1" /><polyline clip-path="url(#clip582)" style="stroke:#000000; stroke-linecap:round; stroke-linejoin:round; stroke-width:2; stroke-opacity:0.1; fill:none" points="156.274,1247.06 2352.76,1247.06 "/>
<polyline clip-path="url(#clip582)" style="stroke:#000000; stroke-linecap:round; stroke-linejoin:round; stroke-width:2; stroke-opacity:0.1; fill:none" points="156.274,975.041 2352.76,975.041 "/>
<polyline clip-path="url(#clip582)" style="stroke:#000000; stroke-linecap:round; stroke-linejoin:round; stroke-width:2; stroke-opacity:0.1; fill:none" points="156.274,703.023 2352.76,703.023 "/>
<polyline clip-path="url(#clip582)" style="stroke:#000000; stroke-linecap:round; stroke-linejoin:round; stroke-width:2; stroke-opacity:0.1; fill:none" points="156.274,431.005 2352.76,431.005 "/>
<polyline clip-path="url(#clip582)" style="stroke:#000000; stroke-linecap:round; stroke-linejoin:round; stroke-width:2; stroke-opacity:0.1; fill:none" points="156.274,158.987 2352.76,158.987 "/>
<polyline clip-path="url(#clip580)" style="stroke:#000000; stroke-linecap:round; stroke-linejoin:round; stroke-width:4; stroke-opacity:1; fill:none" points="156.274,1486.45 156.274,47.2441 "/>
<polyline clip-path="url(#clip580)" style="stroke:#000000; stroke-linecap:round; stroke-linejoin:round; stroke-width:4; stroke-opacity:1; fill:none" points="156.274,1247.06 175.172,1247.06 "/>
<polyline clip-path="url(#clip580)" style="stroke:#000000; stroke-linecap:round; stroke-linejoin:round; stroke-width:4; stroke-opacity:1; fill:none" points="156.274,975.041 175.172,975.041 "/>
<polyline clip-path="url(#clip580)" style="stroke:#000000; stroke-linecap:round; stroke-linejoin:round; stroke-width:4; stroke-opacity:1; fill:none" points="156.274,703.023 175.172,703.023 "/>
<polyline clip-path="url(#clip580)" style="stroke:#000000; stroke-linecap:round; stroke-linejoin:round; stroke-width:4; stroke-opacity:1; fill:none" points="156.274,431.005 175.172,431.005 "/>
<polyline clip-path="url(#clip580)" style="stroke:#000000; stroke-linecap:round; stroke-linejoin:round; stroke-width:4; stroke-opacity:1; fill:none" points="156.274,158.987 175.172,158.987 "/>
<path clip-path="url(#clip580)" d="M63.0985 1232.86 Q59.4875 1232.86 57.6588 1236.42 Q55.8532 1239.96 55.8532 1247.09 Q55.8532 1254.2 57.6588 1257.76 Q59.4875 1261.31 63.0985 1261.31 Q66.7328 1261.31 68.5383 1257.76 Q70.367 1254.2 70.367 1247.09 Q70.367 1239.96 68.5383 1236.42 Q66.7328 1232.86 63.0985 1232.86 M63.0985 1229.15 Q68.9087 1229.15 71.9642 1233.76 Q75.0429 1238.34 75.0429 1247.09 Q75.0429 1255.82 71.9642 1260.43 Q68.9087 1265.01 63.0985 1265.01 Q57.2884 1265.01 54.2097 1260.43 Q51.1542 1255.82 51.1542 1247.09 Q51.1542 1238.34 54.2097 1233.76 Q57.2884 1229.15 63.0985 1229.15 Z" fill="#000000" fill-rule="nonzero" fill-opacity="1" /><path clip-path="url(#clip580)" d="M83.2605 1258.46 L88.1447 1258.46 L88.1447 1264.34 L83.2605 1264.34 L83.2605 1258.46 Z" fill="#000000" fill-rule="nonzero" fill-opacity="1" /><path clip-path="url(#clip580)" d="M108.33 1232.86 Q104.719 1232.86 102.89 1236.42 Q101.084 1239.96 101.084 1247.09 Q101.084 1254.2 102.89 1257.76 Q104.719 1261.31 108.33 1261.31 Q111.964 1261.31 113.77 1257.76 Q115.598 1254.2 115.598 1247.09 Q115.598 1239.96 113.77 1236.42 Q111.964 1232.86 108.33 1232.86 M108.33 1229.15 Q114.14 1229.15 117.195 1233.76 Q120.274 1238.34 120.274 1247.09 Q120.274 1255.82 117.195 1260.43 Q114.14 1265.01 108.33 1265.01 Q102.52 1265.01 99.4409 1260.43 Q96.3854 1255.82 96.3854 1247.09 Q96.3854 1238.34 99.4409 1233.76 Q102.52 1229.15 108.33 1229.15 Z" fill="#000000" fill-rule="nonzero" fill-opacity="1" /><path clip-path="url(#clip580)" d="M63.7467 960.839 Q60.1356 960.839 58.3069 964.404 Q56.5014 967.946 56.5014 975.075 Q56.5014 982.182 58.3069 985.747 Q60.1356 989.288 63.7467 989.288 Q67.3809 989.288 69.1865 985.747 Q71.0152 982.182 71.0152 975.075 Q71.0152 967.946 69.1865 964.404 Q67.3809 960.839 63.7467 960.839 M63.7467 957.136 Q69.5568 957.136 72.6124 961.742 Q75.6911 966.325 75.6911 975.075 Q75.6911 983.802 72.6124 988.409 Q69.5568 992.992 63.7467 992.992 Q57.9365 992.992 54.8578 988.409 Q51.8023 983.802 51.8023 975.075 Q51.8023 966.325 54.8578 961.742 Q57.9365 957.136 63.7467 957.136 Z" fill="#000000" fill-rule="nonzero" fill-opacity="1" /><path clip-path="url(#clip580)" d="M83.9086 986.441 L88.7928 986.441 L88.7928 992.321 L83.9086 992.321 L83.9086 986.441 Z" fill="#000000" fill-rule="nonzero" fill-opacity="1" /><path clip-path="url(#clip580)" d="M113.145 973.686 Q116.501 974.404 118.376 976.673 Q120.274 978.941 120.274 982.274 Q120.274 987.39 116.756 990.191 Q113.237 992.992 106.756 992.992 Q104.58 992.992 102.265 992.552 Q99.9733 992.135 97.5197 991.279 L97.5197 986.765 Q99.4641 987.899 101.779 988.478 Q104.094 989.057 106.617 989.057 Q111.015 989.057 113.307 987.321 Q115.621 985.585 115.621 982.274 Q115.621 979.219 113.469 977.506 Q111.339 975.77 107.52 975.77 L103.492 975.77 L103.492 971.927 L107.705 971.927 Q111.154 971.927 112.983 970.561 Q114.811 969.173 114.811 966.58 Q114.811 963.918 112.913 962.506 Q111.038 961.071 107.52 961.071 Q105.598 961.071 103.399 961.487 Q101.2 961.904 98.5613 962.784 L98.5613 958.617 Q101.223 957.876 103.538 957.506 Q105.876 957.136 107.936 957.136 Q113.26 957.136 116.362 959.566 Q119.464 961.974 119.464 966.094 Q119.464 968.964 117.82 970.955 Q116.177 972.923 113.145 973.686 Z" fill="#000000" fill-rule="nonzero" fill-opacity="1" /><path clip-path="url(#clip580)" d="M62.9365 688.821 Q59.3254 688.821 57.4967 692.386 Q55.6912 695.928 55.6912 703.057 Q55.6912 710.164 57.4967 713.729 Q59.3254 717.27 62.9365 717.27 Q66.5707 717.27 68.3763 713.729 Q70.205 710.164 70.205 703.057 Q70.205 695.928 68.3763 692.386 Q66.5707 688.821 62.9365 688.821 M62.9365 685.118 Q68.7467 685.118 71.8022 689.724 Q74.8809 694.307 74.8809 703.057 Q74.8809 711.784 71.8022 716.391 Q68.7467 720.974 62.9365 720.974 Q57.1264 720.974 54.0477 716.391 Q50.9921 711.784 50.9921 703.057 Q50.9921 694.307 54.0477 689.724 Q57.1264 685.118 62.9365 685.118 Z" fill="#000000" fill-rule="nonzero" fill-opacity="1" /><path clip-path="url(#clip580)" d="M83.0984 714.423 L87.9827 714.423 L87.9827 720.303 L83.0984 720.303 L83.0984 714.423 Z" fill="#000000" fill-rule="nonzero" fill-opacity="1" /><path clip-path="url(#clip580)" d="M108.746 701.159 Q105.598 701.159 103.746 703.312 Q101.918 705.465 101.918 709.215 Q101.918 712.942 103.746 715.117 Q105.598 717.27 108.746 717.27 Q111.895 717.27 113.723 715.117 Q115.575 712.942 115.575 709.215 Q115.575 705.465 113.723 703.312 Q111.895 701.159 108.746 701.159 M118.029 686.506 L118.029 690.766 Q116.27 689.932 114.464 689.493 Q112.682 689.053 110.922 689.053 Q106.293 689.053 103.839 692.178 Q101.409 695.303 101.061 701.622 Q102.427 699.608 104.487 698.543 Q106.547 697.455 109.024 697.455 Q114.233 697.455 117.242 700.627 Q120.274 703.775 120.274 709.215 Q120.274 714.539 117.126 717.756 Q113.978 720.974 108.746 720.974 Q102.751 720.974 99.5798 716.391 Q96.4085 711.784 96.4085 703.057 Q96.4085 694.863 100.297 690.002 Q104.186 685.118 110.737 685.118 Q112.496 685.118 114.279 685.465 Q116.084 685.812 118.029 686.506 Z" fill="#000000" fill-rule="nonzero" fill-opacity="1" /><path clip-path="url(#clip580)" d="M63.2837 416.803 Q59.6726 416.803 57.8439 420.368 Q56.0384 423.91 56.0384 431.039 Q56.0384 438.146 57.8439 441.711 Q59.6726 445.252 63.2837 445.252 Q66.918 445.252 68.7235 441.711 Q70.5522 438.146 70.5522 431.039 Q70.5522 423.91 68.7235 420.368 Q66.918 416.803 63.2837 416.803 M63.2837 413.1 Q69.0939 413.1 72.1494 417.706 Q75.2281 422.289 75.2281 431.039 Q75.2281 439.766 72.1494 444.373 Q69.0939 448.956 63.2837 448.956 Q57.4736 448.956 54.3949 444.373 Q51.3393 439.766 51.3393 431.039 Q51.3393 422.289 54.3949 417.706 Q57.4736 413.1 63.2837 413.1 Z" fill="#000000" fill-rule="nonzero" fill-opacity="1" /><path clip-path="url(#clip580)" d="M83.4457 442.405 L88.3299 442.405 L88.3299 448.285 L83.4457 448.285 L83.4457 442.405 Z" fill="#000000" fill-rule="nonzero" fill-opacity="1" /><path clip-path="url(#clip580)" d="M98.6539 447.567 L98.6539 443.308 Q100.413 444.141 102.219 444.581 Q104.024 445.021 105.76 445.021 Q110.39 445.021 112.82 441.919 Q115.274 438.794 115.621 432.451 Q114.279 434.442 112.219 435.507 Q110.158 436.572 107.658 436.572 Q102.473 436.572 99.4409 433.447 Q96.4317 430.299 96.4317 424.859 Q96.4317 419.535 99.5798 416.317 Q102.728 413.1 107.959 413.1 Q113.955 413.1 117.103 417.706 Q120.274 422.289 120.274 431.039 Q120.274 439.211 116.385 444.095 Q112.52 448.956 105.969 448.956 Q104.209 448.956 102.404 448.609 Q100.598 448.261 98.6539 447.567 M107.959 432.914 Q111.108 432.914 112.936 430.761 Q114.788 428.609 114.788 424.859 Q114.788 421.132 112.936 418.979 Q111.108 416.803 107.959 416.803 Q104.811 416.803 102.959 418.979 Q101.131 421.132 101.131 424.859 Q101.131 428.609 102.959 430.761 Q104.811 432.914 107.959 432.914 Z" fill="#000000" fill-rule="nonzero" fill-opacity="1" /><path clip-path="url(#clip580)" d="M55.506 172.331 L63.1448 172.331 L63.1448 145.966 L54.8347 147.632 L54.8347 143.373 L63.0985 141.707 L67.7744 141.707 L67.7744 172.331 L75.4133 172.331 L75.4133 176.267 L55.506 176.267 L55.506 172.331 Z" fill="#000000" fill-rule="nonzero" fill-opacity="1" /><path clip-path="url(#clip580)" d="M84.8577 170.387 L89.7419 170.387 L89.7419 176.267 L84.8577 176.267 L84.8577 170.387 Z" fill="#000000" fill-rule="nonzero" fill-opacity="1" /><path clip-path="url(#clip580)" d="M103.955 172.331 L120.274 172.331 L120.274 176.267 L98.3298 176.267 L98.3298 172.331 Q100.992 169.577 105.575 164.947 Q110.182 160.294 111.362 158.952 Q113.608 156.429 114.487 154.693 Q115.39 152.933 115.39 151.244 Q115.39 148.489 113.445 146.753 Q111.524 145.017 108.422 145.017 Q106.223 145.017 103.77 145.781 Q101.339 146.544 98.5613 148.095 L98.5613 143.373 Q101.385 142.239 103.839 141.66 Q106.293 141.082 108.33 141.082 Q113.7 141.082 116.895 143.767 Q120.089 146.452 120.089 150.943 Q120.089 153.072 119.279 154.993 Q118.492 156.892 116.385 159.484 Q115.807 160.155 112.705 163.373 Q109.603 166.567 103.955 172.331 Z" fill="#000000" fill-rule="nonzero" fill-opacity="1" /><polyline clip-path="url(#clip582)" style="stroke:#009af9; stroke-linecap:round; stroke-linejoin:round; stroke-width:16; stroke-opacity:1; fill:none" stroke-dasharray="8, 16" points="218.439,1110.89 228.852,1087.14 239.264,1071.07 249.677,1064.04 260.09,1065.51 270.503,1073.32 280.916,1084.76 291.329,1097.78 301.741,1112.08 312.154,1129.4 322.567,1152.71 332.98,1184.27 343.393,1223.54 353.805,1266.18 364.218,1305.28 374.631,1334.7 385.044,1353 395.457,1364.77 405.87,1377.52 416.282,1395.94 426.695,1418.4 437.108,1437.81 447.521,1445.72 457.934,1437.13 468.347,1413.49 478.759,1382.02 489.172,1351.43 499.585,1326.79 509.998,1307.04 520.411,1286.63 530.824,1260.1 541.236,1226.03 551.649,1187.85 562.062,1151.36 572.475,1121.25 582.888,1099.31 593.301,1084.72 603.713,1075.7 614.126,1070.88 624.539,1069.77 634.952,1072.68 645.365,1080.41 655.777,1093.9 666.19,1113.82 676.603,1139.9 687.016,1170.7 697.429,1203.94 707.842,1237.31 718.254,1269.24 728.667,1299.22 739.08,1327.45 749.493,1354.1 759.906,1378.75 770.319,1400.33 780.731,1417.42 791.144,1428.39 801.557,1431.57 811.97,1426.16 822.383,1413.42 832.796,1396.64 843.208,1379 853.621,1361.1 864.034,1340.51 874.447,1313.79 884.86,1279.55 895.273,1240.26 905.685,1201.24 916.098,1167.42 926.511,1140.7 936.924,1119.81 947.337,1102.43 957.749,1087.4 968.162,1075.33 978.575,1067.9 988.988,1066.72 999.401,1072.46 1009.81,1084.77 1020.23,1102.59 1030.64,1124.67 1041.05,1149.89 1051.46,1177.52 1061.88,1207.12 1072.29,1238.48 1082.7,1271.27 1093.12,1304.84 1103.53,1337.96 1113.94,1368.68 1124.35,1394.43 1134.77,1412.53 1145.18,1421.09 1155.59,1420.22 1166.01,1413.18 1176.42,1406.18 1186.83,1406.04 1197.24,1415.5 1207.66,1427.71 1218.07,1422.43 1228.48,1366.56 1238.9,1224.15 1249.31,982.588 1259.72,685.877 1270.13,428.9 1280.55,287.542 1290.96,260.804 1301.37,295.041 1311.79,338.866 1322.2,365.831 1332.61,369.636 1343.02,355.011 1353.44,332.018 1363.85,311.971 1374.26,303.382 1384.68,309.053 1395.09,325.952 1405.5,347.58 1415.91,366.974 1426.33,378.803 1436.74,380.23 1447.15,370.977 1457.57,353.075 1467.98,330.464 1478.39,308.429 1488.8,292.705 1499.22,288.236 1509.63,297.748 1520.04,320.546 1530.45,352.027 1540.87,384.265 1551.28,407.725 1561.69,413.847 1572.11,398.005 1582.52,362.025 1592.93,315.026 1603.34,271.449 1613.76,246.219 1624.17,248.976 1634.58,280.298 1645,331.636 1655.41,388.369 1665.82,434.08 1676.23,454.678 1686.65,441.945 1697.06,396.503 1707.47,329.607 1717.89,261.901 1728.3,217.025 1738.71,211.332 1749.12,246.06 1759.54,307.866 1769.95,376.507 1780.36,433.14 1790.78,464.718 1801.19,464.774 1811.6,433.155 1822.01,376.186 1832.43,306.636 1842.84,241.909 1853.25,199.875 1863.67,193.653 1874.08,227.669 1884.49,296.272 1894.9,384.412 1905.32,469.423 1915.73,524.542 1926.14,526.286 1936.56,465.795 1946.97,358.308 1957.38,241.02 1967.79,156.386 1978.21,131.811 1988.62,170.51 1999.03,256.258 2009.45,363.108 2019.86,462.675 2030.27,529.13 2040.68,544.571 2051.1,503.997 2061.51,416.695 2071.92,303.289 2082.33,191.522 2092.75,113.042 2103.16,98.0391 2113.57,162.845 2123.99,294.599 2134.4,448.39 2144.81,566.15 2155.22,605.136 2165.64,555.937 2176.05,442.573 2186.46,308.973 2196.88,199.243 2207.29,141.029 2217.7,139.774 2228.11,183.979 2238.53,254.935 2248.94,334.732 2259.35,410.36 2269.77,474.712 2280.18,525.919 2290.59,565.948 "/>
<polyline clip-path="url(#clip582)" style="stroke:#e26f46; stroke-linecap:round; stroke-linejoin:round; stroke-width:4; stroke-opacity:1; fill:none" points="218.439,1110.87 228.852,1091.55 239.264,1077.3 249.677,1068.6 260.09,1065.71 270.503,1068.75 280.916,1077.61 291.329,1091.99 301.741,1111.44 312.154,1135.32 322.567,1162.84 332.98,1193.11 343.393,1225.14 353.805,1257.88 364.218,1290.28 374.631,1321.26 385.044,1349.82 395.457,1375.02 405.87,1396.06 416.282,1412.22 426.695,1423 437.108,1428.03 447.521,1427.16 457.934,1420.41 468.347,1408.01 478.759,1390.34 489.172,1368.01 499.585,1341.72 509.998,1312.35 520.411,1280.84 530.824,1248.24 541.236,1215.59 551.649,1183.97 562.062,1154.41 572.475,1127.87 582.888,1105.23 593.301,1087.21 603.713,1074.41 614.126,1067.24 624.539,1065.95 634.952,1070.56 645.365,1080.94 655.777,1096.73 666.19,1117.43 676.603,1142.37 687.016,1170.72 697.429,1201.56 707.842,1233.88 718.254,1266.64 728.667,1298.76 739.08,1329.19 749.493,1356.94 759.906,1381.1 770.319,1400.89 780.731,1415.66 791.144,1424.92 801.557,1428.38 811.97,1425.92 822.383,1417.63 832.796,1403.77 843.208,1384.79 853.621,1361.32 864.034,1334.12 874.447,1304.07 884.86,1272.17 895.273,1239.45 905.685,1206.97 916.098,1175.81 926.511,1146.97 936.924,1121.39 947.337,1099.92 957.749,1083.25 968.162,1071.92 978.575,1066.32 988.988,1066.61 999.401,1072.79 1009.81,1084.66 1020.23,1101.82 1030.64,1123.73 1041.05,1149.67 1051.46,1178.78 1061.88,1210.12 1072.29,1242.66 1082.7,1275.35 1093.12,1307.12 1103.53,1336.93 1113.94,1363.8 1124.35,1386.86 1134.77,1405.36 1145.18,1418.7 1155.59,1426.43 1166.01,1428.3 1176.42,1424.27 1186.83,1414.45 1197.24,1399.16 1207.66,1378.91 1218.07,1354.36 1228.48,1326.31 1238.9,1295.67 1249.31,1263.44 1259.72,339.015 1270.13,337.517 1280.55,338.88 1290.96,343.421 1301.37,349.746 1311.79,355.184 1322.2,356.794 1332.61,352.61 1343.02,342.636 1353.44,329.19 1363.85,316.395 1374.26,308.92 1384.68,310.354 1395.09,321.759 1405.5,340.941 1415.91,362.772 1426.33,380.549 1436.74,388.048 1447.15,381.629 1457.57,361.712 1467.98,333.064 1478.39,303.704 1488.8,282.662 1499.22,277.211 1509.63,290.426 1520.04,319.865 1530.45,357.886 1540.87,393.602 1551.28,416.002 1561.69,417.328 1572.11,395.688 1582.52,356.027 1592.93,309.08 1603.34,268.47 1613.76,246.761 1624.17,251.588 1634.58,283.061 1645,333.305 1655.41,388.386 1665.82,432.169 1676.23,451.046 1686.65,438.137 1697.06,395.691 1707.47,334.852 1717.89,272.768 1728.3,227.751 1738.71,213.887 1749.12,236.653 1759.54,290.913 1769.95,361.996 1780.36,429.641 1790.78,473.773 1801.19,480.458 1811.6,446.262 1822.01,379.677 1832.43,299.061 1842.84,227.589 1853.25,186.586 1863.67,189.178 1874.08,236.131 1884.49,315.198 1894.9,404.279 1905.32,477.594 1915.73,513.145 1926.14,499.301 1936.56,438.552 1946.97,347.214 1957.38,251.077 1967.79,178.118 1978.21,150.365 1988.62,177.26 1999.03,252.523 2009.45,355.544 2019.86,457.008 2030.27,527.241 2040.68,544.883 2051.1,503.362 2061.51,413.221 2071.92,299.482 2082.33,194.71 2092.75,129.691 2103.16,124.387 2113.57,181.837 2123.99,286.844 2134.4,409.967 2144.81,515.772 2155.22,573.025 2165.64,563.909 2176.05,489.538 2186.46,370.065 2196.88,239.245 2207.29,134.898 2217.7,87.9763 2228.11,113.395 2238.53,205.33 2248.94,338.47 2259.35,474.967 2269.77,575.203 2280.18,609.277 2290.59,565.919 "/>
<path clip-path="url(#clip580)" d="M229.49 250.738 L675.966 250.738 L675.966 95.2176 L229.49 95.2176  Z" fill="#ffffff" fill-rule="evenodd" fill-opacity="1"/>
<polyline clip-path="url(#clip580)" style="stroke:#000000; stroke-linecap:round; stroke-linejoin:round; stroke-width:4; stroke-opacity:1; fill:none" points="229.49,250.738 675.966,250.738 675.966,95.2176 229.49,95.2176 229.49,250.738 "/>
<polyline clip-path="url(#clip580)" style="stroke:#009af9; stroke-linecap:round; stroke-linejoin:round; stroke-width:16; stroke-opacity:1; fill:none" stroke-dasharray="8, 16" points="253.896,147.058 400.328,147.058 "/>
<path clip-path="url(#clip580)" d="M429.409 133.62 L429.409 146.606 L435.289 146.606 Q438.552 146.606 440.335 144.916 Q442.117 143.227 442.117 140.102 Q442.117 137 440.335 135.31 Q438.552 133.62 435.289 133.62 L429.409 133.62 M424.733 129.778 L435.289 129.778 Q441.099 129.778 444.062 132.416 Q447.048 135.032 447.048 140.102 Q447.048 145.217 444.062 147.833 Q441.099 150.449 435.289 150.449 L429.409 150.449 L429.409 164.338 L424.733 164.338 L424.733 129.778 Z" fill="#000000" fill-rule="nonzero" fill-opacity="1" /><path clip-path="url(#clip580)" d="M467.325 142.393 Q466.608 141.977 465.751 141.791 Q464.918 141.583 463.899 141.583 Q460.288 141.583 458.344 143.944 Q456.423 146.282 456.423 150.68 L456.423 164.338 L452.14 164.338 L452.14 138.412 L456.423 138.412 L456.423 142.44 Q457.765 140.078 459.918 138.944 Q462.071 137.787 465.149 137.787 Q465.589 137.787 466.122 137.856 Q466.654 137.903 467.302 138.018 L467.325 142.393 Z" fill="#000000" fill-rule="nonzero" fill-opacity="1" /><path clip-path="url(#clip580)" d="M492.927 150.31 L492.927 152.393 L473.344 152.393 Q473.622 156.791 475.983 159.106 Q478.367 161.398 482.603 161.398 Q485.057 161.398 487.348 160.796 Q489.663 160.194 491.932 158.99 L491.932 163.018 Q489.64 163.99 487.233 164.5 Q484.825 165.009 482.348 165.009 Q476.145 165.009 472.511 161.398 Q468.899 157.787 468.899 151.629 Q468.899 145.264 472.325 141.537 Q475.774 137.787 481.608 137.787 Q486.839 137.787 489.872 141.166 Q492.927 144.523 492.927 150.31 M488.668 149.06 Q488.622 145.565 486.7 143.481 Q484.802 141.398 481.654 141.398 Q478.089 141.398 475.936 143.412 Q473.807 145.426 473.483 149.083 L488.668 149.06 Z" fill="#000000" fill-rule="nonzero" fill-opacity="1" /><path clip-path="url(#clip580)" d="M516.978 142.347 L516.978 128.319 L521.237 128.319 L521.237 164.338 L516.978 164.338 L516.978 160.449 Q515.635 162.763 513.575 163.898 Q511.538 165.009 508.668 165.009 Q503.969 165.009 501.006 161.259 Q498.066 157.509 498.066 151.398 Q498.066 145.287 501.006 141.537 Q503.969 137.787 508.668 137.787 Q511.538 137.787 513.575 138.921 Q515.635 140.032 516.978 142.347 M502.464 151.398 Q502.464 156.097 504.385 158.782 Q506.33 161.444 509.709 161.444 Q513.089 161.444 515.033 158.782 Q516.978 156.097 516.978 151.398 Q516.978 146.699 515.033 144.037 Q513.089 141.352 509.709 141.352 Q506.33 141.352 504.385 144.037 Q502.464 146.699 502.464 151.398 Z" fill="#000000" fill-rule="nonzero" fill-opacity="1" /><path clip-path="url(#clip580)" d="M530.01 138.412 L534.269 138.412 L534.269 164.338 L530.01 164.338 L530.01 138.412 M530.01 128.319 L534.269 128.319 L534.269 133.713 L530.01 133.713 L530.01 128.319 Z" fill="#000000" fill-rule="nonzero" fill-opacity="1" /><path clip-path="url(#clip580)" d="M561.839 139.407 L561.839 143.389 Q560.033 142.393 558.205 141.907 Q556.399 141.398 554.547 141.398 Q550.404 141.398 548.112 144.037 Q545.82 146.652 545.82 151.398 Q545.82 156.143 548.112 158.782 Q550.404 161.398 554.547 161.398 Q556.399 161.398 558.205 160.912 Q560.033 160.402 561.839 159.407 L561.839 163.342 Q560.056 164.176 558.135 164.592 Q556.237 165.009 554.084 165.009 Q548.228 165.009 544.779 161.328 Q541.33 157.648 541.33 151.398 Q541.33 145.055 544.802 141.421 Q548.297 137.787 554.362 137.787 Q556.33 137.787 558.205 138.203 Q560.08 138.597 561.839 139.407 Z" fill="#000000" fill-rule="nonzero" fill-opacity="1" /><path clip-path="url(#clip580)" d="M573.459 131.051 L573.459 138.412 L582.232 138.412 L582.232 141.722 L573.459 141.722 L573.459 155.796 Q573.459 158.967 574.316 159.87 Q575.195 160.773 577.857 160.773 L582.232 160.773 L582.232 164.338 L577.857 164.338 Q572.927 164.338 571.052 162.509 Q569.177 160.657 569.177 155.796 L569.177 141.722 L566.052 141.722 L566.052 138.412 L569.177 138.412 L569.177 131.051 L573.459 131.051 Z" fill="#000000" fill-rule="nonzero" fill-opacity="1" /><path clip-path="url(#clip580)" d="M587.834 138.412 L592.093 138.412 L592.093 164.338 L587.834 164.338 L587.834 138.412 M587.834 128.319 L592.093 128.319 L592.093 133.713 L587.834 133.713 L587.834 128.319 Z" fill="#000000" fill-rule="nonzero" fill-opacity="1" /><path clip-path="url(#clip580)" d="M611.051 141.398 Q607.626 141.398 605.635 144.083 Q603.644 146.745 603.644 151.398 Q603.644 156.051 605.612 158.736 Q607.602 161.398 611.051 161.398 Q614.454 161.398 616.445 158.713 Q618.436 156.027 618.436 151.398 Q618.436 146.791 616.445 144.106 Q614.454 141.398 611.051 141.398 M611.051 137.787 Q616.607 137.787 619.778 141.398 Q622.95 145.009 622.95 151.398 Q622.95 157.764 619.778 161.398 Q616.607 165.009 611.051 165.009 Q605.473 165.009 602.302 161.398 Q599.153 157.764 599.153 151.398 Q599.153 145.009 602.302 141.398 Q605.473 137.787 611.051 137.787 Z" fill="#000000" fill-rule="nonzero" fill-opacity="1" /><path clip-path="url(#clip580)" d="M651.561 148.689 L651.561 164.338 L647.301 164.338 L647.301 148.828 Q647.301 145.148 645.866 143.319 Q644.431 141.49 641.561 141.49 Q638.112 141.49 636.121 143.69 Q634.13 145.889 634.13 149.685 L634.13 164.338 L629.848 164.338 L629.848 138.412 L634.13 138.412 L634.13 142.44 Q635.658 140.102 637.718 138.944 Q639.801 137.787 642.51 137.787 Q646.977 137.787 649.269 140.565 Q651.561 143.319 651.561 148.689 Z" fill="#000000" fill-rule="nonzero" fill-opacity="1" /><polyline clip-path="url(#clip580)" style="stroke:#e26f46; stroke-linecap:round; stroke-linejoin:round; stroke-width:4; stroke-opacity:1; fill:none" points="253.896,198.898 400.328,198.898 "/>
<path clip-path="url(#clip580)" d="M424.733 181.618 L446.585 181.618 L446.585 185.553 L429.409 185.553 L429.409 195.784 L445.867 195.784 L445.867 199.719 L429.409 199.719 L429.409 212.242 L447.001 212.242 L447.001 216.178 L424.733 216.178 L424.733 181.618 Z" fill="#000000" fill-rule="nonzero" fill-opacity="1" /><path clip-path="url(#clip580)" d="M476.052 190.252 L466.677 202.867 L476.538 216.178 L471.515 216.178 L463.969 205.992 L456.423 216.178 L451.4 216.178 L461.469 202.613 L452.256 190.252 L457.279 190.252 L464.154 199.488 L471.029 190.252 L476.052 190.252 Z" fill="#000000" fill-rule="nonzero" fill-opacity="1" /><path clip-path="url(#clip580)" d="M494.339 203.145 Q489.177 203.145 487.186 204.326 Q485.196 205.506 485.196 208.354 Q485.196 210.622 486.677 211.965 Q488.182 213.284 490.751 213.284 Q494.293 213.284 496.422 210.784 Q498.575 208.261 498.575 204.094 L498.575 203.145 L494.339 203.145 M502.834 201.386 L502.834 216.178 L498.575 216.178 L498.575 212.242 Q497.117 214.603 494.941 215.738 Q492.765 216.849 489.617 216.849 Q485.635 216.849 483.274 214.627 Q480.936 212.381 480.936 208.631 Q480.936 204.256 483.853 202.034 Q486.793 199.812 492.603 199.812 L498.575 199.812 L498.575 199.395 Q498.575 196.455 496.631 194.858 Q494.71 193.238 491.214 193.238 Q488.992 193.238 486.885 193.77 Q484.779 194.303 482.835 195.367 L482.835 191.432 Q485.173 190.53 487.372 190.09 Q489.571 189.627 491.654 189.627 Q497.279 189.627 500.057 192.543 Q502.834 195.46 502.834 201.386 Z" fill="#000000" fill-rule="nonzero" fill-opacity="1" /><path clip-path="url(#clip580)" d="M530.265 191.247 L530.265 195.229 Q528.459 194.233 526.631 193.747 Q524.825 193.238 522.973 193.238 Q518.83 193.238 516.538 195.877 Q514.246 198.492 514.246 203.238 Q514.246 207.983 516.538 210.622 Q518.83 213.238 522.973 213.238 Q524.825 213.238 526.631 212.752 Q528.459 212.242 530.265 211.247 L530.265 215.182 Q528.482 216.016 526.561 216.432 Q524.663 216.849 522.51 216.849 Q516.654 216.849 513.205 213.168 Q509.756 209.488 509.756 203.238 Q509.756 196.895 513.228 193.261 Q516.723 189.627 522.788 189.627 Q524.756 189.627 526.631 190.043 Q528.506 190.437 530.265 191.247 Z" fill="#000000" fill-rule="nonzero" fill-opacity="1" /><path clip-path="url(#clip580)" d="M541.885 182.891 L541.885 190.252 L550.658 190.252 L550.658 193.562 L541.885 193.562 L541.885 207.636 Q541.885 210.807 542.742 211.71 Q543.621 212.613 546.283 212.613 L550.658 212.613 L550.658 216.178 L546.283 216.178 Q541.353 216.178 539.478 214.349 Q537.603 212.497 537.603 207.636 L537.603 193.562 L534.478 193.562 L534.478 190.252 L537.603 190.252 L537.603 182.891 L541.885 182.891 Z" fill="#000000" fill-rule="nonzero" fill-opacity="1" /></svg>
