<?xml version="1.0" encoding="utf-8"?>
<svg xmlns="http://www.w3.org/2000/svg" xmlns:xlink="http://www.w3.org/1999/xlink" width="600" height="400" viewBox="0 0 2400 1600">
<defs>
  <clipPath id="clip690">
    <rect x="0" y="0" width="2400" height="1600"/>
  </clipPath>
</defs>
<path clip-path="url(#clip690)" d="M0 1600 L2400 1600 L2400 0 L0 0  Z" fill="#ffffff" fill-rule="evenodd" fill-opacity="1"/>
<defs>
  <clipPath id="clip691">
    <rect x="480" y="0" width="1681" height="1600"/>
  </clipPath>
</defs>
<path clip-path="url(#clip690)" d="M156.274 1486.45 L2352.76 1486.45 L2352.76 47.2441 L156.274 47.2441  Z" fill="#ffffff" fill-rule="evenodd" fill-opacity="1"/>
<defs>
  <clipPath id="clip692">
    <rect x="156" y="47" width="2197" height="1440"/>
  </clipPath>
</defs>
<polyline clip-path="url(#clip692)" style="stroke:#000000; stroke-linecap:round; stroke-linejoin:round; stroke-width:2; stroke-opacity:0.1; fill:none" points="218.439,1486.45 218.439,47.2441 "/>
<polyline clip-path="url(#clip692)" style="stroke:#000000; stroke-linecap:round; stroke-linejoin:round; stroke-width:2; stroke-opacity:0.1; fill:none" points="736.477,1486.45 736.477,47.2441 "/>
<polyline clip-path="url(#clip692)" style="stroke:#000000; stroke-linecap:round; stroke-linejoin:round; stroke-width:2; stroke-opacity:0.1; fill:none" points="1254.52,1486.45 1254.52,47.2441 "/>
<polyline clip-path="url(#clip692)" style="stroke:#000000; stroke-linecap:round; stroke-linejoin:round; stroke-width:2; stroke-opacity:0.1; fill:none" points="1772.55,1486.45 1772.55,47.2441 "/>
<polyline clip-path="url(#clip692)" style="stroke:#000000; stroke-linecap:round; stroke-linejoin:round; stroke-width:2; stroke-opacity:0.1; fill:none" points="2290.59,1486.45 2290.59,47.2441 "/>
<polyline clip-path="url(#clip690)" style="stroke:#000000; stroke-linecap:round; stroke-linejoin:round; stroke-width:4; stroke-opacity:1; fill:none" points="156.274,1486.45 2352.76,1486.45 "/>
<polyline clip-path="url(#clip690)" style="stroke:#000000; stroke-linecap:round; stroke-linejoin:round; stroke-width:4; stroke-opacity:1; fill:none" points="218.439,1486.45 218.439,1467.55 "/>
<polyline clip-path="url(#clip690)" style="stroke:#000000; stroke-linecap:round; stroke-linejoin:round; stroke-width:4; stroke-opacity:1; fill:none" points="736.477,1486.45 736.477,1467.55 "/>
<polyline clip-path="url(#clip690)" style="stroke:#000000; stroke-linecap:round; stroke-linejoin:round; stroke-width:4; stroke-opacity:1; fill:none" points="1254.52,1486.45 1254.52,1467.55 "/>
<polyline clip-path="url(#clip690)" style="stroke:#000000; stroke-linecap:round; stroke-linejoin:round; stroke-width:4; stroke-opacity:1; fill:none" points="1772.55,1486.45 1772.55,1467.55 "/>
<polyline clip-path="url(#clip690)" style="stroke:#000000; stroke-linecap:round; stroke-linejoin:round; stroke-width:4; stroke-opacity:1; fill:none" points="2290.59,1486.45 2290.59,1467.55 "/>
<path clip-path="url(#clip690)" d="M164.967 1532.02 L194.643 1532.02 L194.643 1535.95 L164.967 1535.95 L164.967 1532.02 Z" fill="#000000" fill-rule="nonzero" fill-opacity="1" /><path clip-path="url(#clip690)" d="M205.545 1544.91 L213.184 1544.91 L213.184 1518.55 L204.874 1520.21 L204.874 1515.95 L213.138 1514.29 L217.814 1514.29 L217.814 1544.91 L225.453 1544.91 L225.453 1548.85 L205.545 1548.85 L205.545 1544.91 Z" fill="#000000" fill-rule="nonzero" fill-opacity="1" /><path clip-path="url(#clip690)" d="M234.897 1542.97 L239.781 1542.97 L239.781 1548.85 L234.897 1548.85 L234.897 1542.97 Z" fill="#000000" fill-rule="nonzero" fill-opacity="1" /><path clip-path="url(#clip690)" d="M259.966 1517.37 Q256.355 1517.37 254.527 1520.93 Q252.721 1524.47 252.721 1531.6 Q252.721 1538.71 254.527 1542.27 Q256.355 1545.82 259.966 1545.82 Q263.601 1545.82 265.406 1542.27 Q267.235 1538.71 267.235 1531.6 Q267.235 1524.47 265.406 1520.93 Q263.601 1517.37 259.966 1517.37 M259.966 1513.66 Q265.776 1513.66 268.832 1518.27 Q271.911 1522.85 271.911 1531.6 Q271.911 1540.33 268.832 1544.94 Q265.776 1549.52 259.966 1549.52 Q254.156 1549.52 251.077 1544.94 Q248.022 1540.33 248.022 1531.6 Q248.022 1522.85 251.077 1518.27 Q254.156 1513.66 259.966 1513.66 Z" fill="#000000" fill-rule="nonzero" fill-opacity="1" /><path clip-path="url(#clip690)" d="M683.503 1532.02 L713.178 1532.02 L713.178 1535.95 L683.503 1535.95 L683.503 1532.02 Z" fill="#000000" fill-rule="nonzero" fill-opacity="1" /><path clip-path="url(#clip690)" d="M733.271 1517.37 Q729.66 1517.37 727.831 1520.93 Q726.026 1524.47 726.026 1531.6 Q726.026 1538.71 727.831 1542.27 Q729.66 1545.82 733.271 1545.82 Q736.905 1545.82 738.711 1542.27 Q740.539 1538.71 740.539 1531.6 Q740.539 1524.47 738.711 1520.93 Q736.905 1517.37 733.271 1517.37 M733.271 1513.66 Q739.081 1513.66 742.137 1518.27 Q745.215 1522.85 745.215 1531.6 Q745.215 1540.33 742.137 1544.94 Q739.081 1549.52 733.271 1549.52 Q727.461 1549.52 724.382 1544.94 Q721.327 1540.33 721.327 1531.6 Q721.327 1522.85 724.382 1518.27 Q727.461 1513.66 733.271 1513.66 Z" fill="#000000" fill-rule="nonzero" fill-opacity="1" /><path clip-path="url(#clip690)" d="M753.433 1542.97 L758.317 1542.97 L758.317 1548.85 L753.433 1548.85 L753.433 1542.97 Z" fill="#000000" fill-rule="nonzero" fill-opacity="1" /><path clip-path="url(#clip690)" d="M768.548 1514.29 L786.905 1514.29 L786.905 1518.22 L772.831 1518.22 L772.831 1526.7 Q773.849 1526.35 774.868 1526.19 Q775.886 1526 776.905 1526 Q782.692 1526 786.072 1529.17 Q789.451 1532.34 789.451 1537.76 Q789.451 1543.34 785.979 1546.44 Q782.507 1549.52 776.187 1549.52 Q774.011 1549.52 771.743 1549.15 Q769.498 1548.78 767.09 1548.04 L767.09 1543.34 Q769.173 1544.47 771.396 1545.03 Q773.618 1545.58 776.095 1545.58 Q780.099 1545.58 782.437 1543.48 Q784.775 1541.37 784.775 1537.76 Q784.775 1534.15 782.437 1532.04 Q780.099 1529.94 776.095 1529.94 Q774.22 1529.94 772.345 1530.35 Q770.493 1530.77 768.548 1531.65 L768.548 1514.29 Z" fill="#000000" fill-rule="nonzero" fill-opacity="1" /><path clip-path="url(#clip690)" d="M1231.9 1517.37 Q1228.29 1517.37 1226.46 1520.93 Q1224.65 1524.47 1224.65 1531.6 Q1224.65 1538.71 1226.46 1542.27 Q1228.29 1545.82 1231.9 1545.82 Q1235.53 1545.82 1237.34 1542.27 Q1239.17 1538.71 1239.17 1531.6 Q1239.17 1524.47 1237.34 1520.93 Q1235.53 1517.37 1231.9 1517.37 M1231.9 1513.66 Q1237.71 1513.66 1240.77 1518.27 Q1243.84 1522.85 1243.84 1531.6 Q1243.84 1540.33 1240.77 1544.94 Q1237.71 1549.52 1231.9 1549.52 Q1226.09 1549.52 1223.01 1544.94 Q1219.96 1540.33 1219.96 1531.6 Q1219.96 1522.85 1223.01 1518.27 Q1226.09 1513.66 1231.9 1513.66 Z" fill="#000000" fill-rule="nonzero" fill-opacity="1" /><path clip-path="url(#clip690)" d="M1252.06 1542.97 L1256.95 1542.97 L1256.95 1548.85 L1252.06 1548.85 L1252.06 1542.97 Z" fill="#000000" fill-rule="nonzero" fill-opacity="1" /><path clip-path="url(#clip690)" d="M1277.13 1517.37 Q1273.52 1517.37 1271.69 1520.93 Q1269.89 1524.47 1269.89 1531.6 Q1269.89 1538.71 1271.69 1542.27 Q1273.52 1545.82 1277.13 1545.82 Q1280.76 1545.82 1282.57 1542.27 Q1284.4 1538.71 1284.4 1531.6 Q1284.4 1524.47 1282.57 1520.93 Q1280.76 1517.37 1277.13 1517.37 M1277.13 1513.66 Q1282.94 1513.66 1286 1518.27 Q1289.08 1522.85 1289.08 1531.6 Q1289.08 1540.33 1286 1544.94 Q1282.94 1549.52 1277.13 1549.52 Q1271.32 1549.52 1268.24 1544.94 Q1265.19 1540.33 1265.19 1531.6 Q1265.19 1522.85 1268.24 1518.27 Q1271.32 1513.66 1277.13 1513.66 Z" fill="#000000" fill-rule="nonzero" fill-opacity="1" /><path clip-path="url(#clip690)" d="M1750.44 1517.37 Q1746.82 1517.37 1745 1520.93 Q1743.19 1524.47 1743.19 1531.6 Q1743.19 1538.71 1745 1542.27 Q1746.82 1545.82 1750.44 1545.82 Q1754.07 1545.82 1755.88 1542.27 Q1757.7 1538.71 1757.7 1531.6 Q1757.7 1524.47 1755.88 1520.93 Q1754.07 1517.37 1750.44 1517.37 M1750.44 1513.66 Q1756.25 1513.66 1759.3 1518.27 Q1762.38 1522.85 1762.38 1531.6 Q1762.38 1540.33 1759.3 1544.94 Q1756.25 1549.52 1750.44 1549.52 Q1744.63 1549.52 1741.55 1544.94 Q1738.49 1540.33 1738.49 1531.6 Q1738.49 1522.85 1741.55 1518.27 Q1744.63 1513.66 1750.44 1513.66 Z" fill="#000000" fill-rule="nonzero" fill-opacity="1" /><path clip-path="url(#clip690)" d="M1770.6 1542.97 L1775.48 1542.97 L1775.48 1548.85 L1770.6 1548.85 L1770.6 1542.97 Z" fill="#000000" fill-rule="nonzero" fill-opacity="1" /><path clip-path="url(#clip690)" d="M1785.71 1514.29 L1804.07 1514.29 L1804.07 1518.22 L1790 1518.22 L1790 1526.7 Q1791.01 1526.35 1792.03 1526.19 Q1793.05 1526 1794.07 1526 Q1799.86 1526 1803.24 1529.17 Q1806.62 1532.34 1806.62 1537.76 Q1806.62 1543.34 1803.14 1546.44 Q1799.67 1549.52 1793.35 1549.52 Q1791.18 1549.52 1788.91 1549.15 Q1786.66 1548.78 1784.25 1548.04 L1784.25 1543.34 Q1786.34 1544.47 1788.56 1545.03 Q1790.78 1545.58 1793.26 1545.58 Q1797.26 1545.58 1799.6 1543.48 Q1801.94 1541.37 1801.94 1537.76 Q1801.94 1534.15 1799.6 1532.04 Q1797.26 1529.94 1793.26 1529.94 Q1791.38 1529.94 1789.51 1530.35 Q1787.66 1530.77 1785.71 1531.65 L1785.71 1514.29 Z" fill="#000000" fill-rule="nonzero" fill-opacity="1" /><path clip-path="url(#clip690)" d="M2257.74 1544.91 L2265.38 1544.91 L2265.38 1518.55 L2257.07 1520.21 L2257.07 1515.95 L2265.34 1514.29 L2270.01 1514.29 L2270.01 1544.91 L2277.65 1544.91 L2277.65 1548.85 L2257.74 1548.85 L2257.74 1544.91 Z" fill="#000000" fill-rule="nonzero" fill-opacity="1" /><path clip-path="url(#clip690)" d="M2287.1 1542.97 L2291.98 1542.97 L2291.98 1548.85 L2287.1 1548.85 L2287.1 1542.97 Z" fill="#000000" fill-rule="nonzero" fill-opacity="1" /><path clip-path="url(#clip690)" d="M2312.17 1517.37 Q2308.55 1517.37 2306.73 1520.93 Q2304.92 1524.47 2304.92 1531.6 Q2304.92 1538.71 2306.73 1542.27 Q2308.55 1545.82 2312.17 1545.82 Q2315.8 1545.82 2317.61 1542.27 Q2319.43 1538.71 2319.43 1531.6 Q2319.43 1524.47 2317.61 1520.93 Q2315.8 1517.37 2312.17 1517.37 M2312.17 1513.66 Q2317.98 1513.66 2321.03 1518.27 Q2324.11 1522.85 2324.11 1531.6 Q2324.11 1540.33 2321.03 1544.94 Q2317.98 1549.52 2312.17 1549.52 Q2306.36 1549.52 2303.28 1544.94 Q2300.22 1540.33 2300.22 1531.6 Q2300.22 1522.85 2303.28 1518.27 Q2306.36 1513.66 2312.17 1513.66 Z" fill="#000000" fill-rule="nonzero" fill-opacity="1" /><polyline clip-path="url(#clip692)" style="stroke:#000000; stroke-linecap:round; stroke-linejoin:round; stroke-width:2; stroke-opacity:0.1; fill:none" points="156.274,1257.11 2352.76,1257.11 "/>
<polyline clip-path="url(#clip692)" style="stroke:#000000; stroke-linecap:round; stroke-linejoin:round; stroke-width:2; stroke-opacity:0.1; fill:none" points="156.274,991.048 2352.76,991.048 "/>
<polyline clip-path="url(#clip692)" style="stroke:#000000; stroke-linecap:round; stroke-linejoin:round; stroke-width:2; stroke-opacity:0.1; fill:none" points="156.274,724.982 2352.76,724.982 "/>
<polyline clip-path="url(#clip692)" style="stroke:#000000; stroke-linecap:round; stroke-linejoin:round; stroke-width:2; stroke-opacity:0.1; fill:none" points="156.274,458.917 2352.76,458.917 "/>
<polyline clip-path="url(#clip692)" style="stroke:#000000; stroke-linecap:round; stroke-linejoin:round; stroke-width:2; stroke-opacity:0.1; fill:none" points="156.274,192.852 2352.76,192.852 "/>
<polyline clip-path="url(#clip690)" style="stroke:#000000; stroke-linecap:round; stroke-linejoin:round; stroke-width:4; stroke-opacity:1; fill:none" points="156.274,1486.45 156.274,47.2441 "/>
<polyline clip-path="url(#clip690)" style="stroke:#000000; stroke-linecap:round; stroke-linejoin:round; stroke-width:4; stroke-opacity:1; fill:none" points="156.274,1257.11 175.172,1257.11 "/>
<polyline clip-path="url(#clip690)" style="stroke:#000000; stroke-linecap:round; stroke-linejoin:round; stroke-width:4; stroke-opacity:1; fill:none" points="156.274,991.048 175.172,991.048 "/>
<polyline clip-path="url(#clip690)" style="stroke:#000000; stroke-linecap:round; stroke-linejoin:round; stroke-width:4; stroke-opacity:1; fill:none" points="156.274,724.982 175.172,724.982 "/>
<polyline clip-path="url(#clip690)" style="stroke:#000000; stroke-linecap:round; stroke-linejoin:round; stroke-width:4; stroke-opacity:1; fill:none" points="156.274,458.917 175.172,458.917 "/>
<polyline clip-path="url(#clip690)" style="stroke:#000000; stroke-linecap:round; stroke-linejoin:round; stroke-width:4; stroke-opacity:1; fill:none" points="156.274,192.852 175.172,192.852 "/>
<path clip-path="url(#clip690)" d="M63.0985 1242.91 Q59.4875 1242.91 57.6588 1246.48 Q55.8532 1250.02 55.8532 1257.15 Q55.8532 1264.25 57.6588 1267.82 Q59.4875 1271.36 63.0985 1271.36 Q66.7328 1271.36 68.5383 1267.82 Q70.367 1264.25 70.367 1257.15 Q70.367 1250.02 68.5383 1246.48 Q66.7328 1242.91 63.0985 1242.91 M63.0985 1239.21 Q68.9087 1239.21 71.9642 1243.81 Q75.0429 1248.4 75.0429 1257.15 Q75.0429 1265.87 71.9642 1270.48 Q68.9087 1275.06 63.0985 1275.06 Q57.2884 1275.06 54.2097 1270.48 Q51.1542 1265.87 51.1542 1257.15 Q51.1542 1248.4 54.2097 1243.81 Q57.2884 1239.21 63.0985 1239.21 Z" fill="#000000" fill-rule="nonzero" fill-opacity="1" /><path clip-path="url(#clip690)" d="M83.2605 1268.51 L88.1447 1268.51 L88.1447 1274.39 L83.2605 1274.39 L83.2605 1268.51 Z" fill="#000000" fill-rule="nonzero" fill-opacity="1" /><path clip-path="url(#clip690)" d="M108.33 1242.91 Q104.719 1242.91 102.89 1246.48 Q101.084 1250.02 101.084 1257.15 Q101.084 1264.25 102.89 1267.82 Q104.719 1271.36 108.33 1271.36 Q111.964 1271.36 113.77 1267.82 Q115.598 1264.25 115.598 1257.15 Q115.598 1250.02 113.77 1246.48 Q111.964 1242.91 108.33 1242.91 M108.33 1239.21 Q114.14 1239.21 117.195 1243.81 Q120.274 1248.4 120.274 1257.15 Q120.274 1265.87 117.195 1270.48 Q114.14 1275.06 108.33 1275.06 Q102.52 1275.06 99.4409 1270.48 Q96.3854 1265.87 96.3854 1257.15 Q96.3854 1248.4 99.4409 1243.81 Q102.52 1239.21 108.33 1239.21 Z" fill="#000000" fill-rule="nonzero" fill-opacity="1" /><path clip-path="url(#clip690)" d="M63.7467 976.846 Q60.1356 976.846 58.3069 980.411 Q56.5014 983.953 56.5014 991.082 Q56.5014 998.189 58.3069 1001.75 Q60.1356 1005.3 63.7467 1005.3 Q67.3809 1005.3 69.1865 1001.75 Q71.0152 998.189 71.0152 991.082 Q71.0152 983.953 69.1865 980.411 Q67.3809 976.846 63.7467 976.846 M63.7467 973.143 Q69.5568 973.143 72.6124 977.749 Q75.6911 982.332 75.6911 991.082 Q75.6911 999.809 72.6124 1004.42 Q69.5568 1009 63.7467 1009 Q57.9365 1009 54.8578 1004.42 Q51.8023 999.809 51.8023 991.082 Q51.8023 982.332 54.8578 977.749 Q57.9365 973.143 63.7467 973.143 Z" fill="#000000" fill-rule="nonzero" fill-opacity="1" /><path clip-path="url(#clip690)" d="M83.9086 1002.45 L88.7928 1002.45 L88.7928 1008.33 L83.9086 1008.33 L83.9086 1002.45 Z" fill="#000000" fill-rule="nonzero" fill-opacity="1" /><path clip-path="url(#clip690)" d="M113.145 989.693 Q116.501 990.411 118.376 992.68 Q120.274 994.948 120.274 998.281 Q120.274 1003.4 116.756 1006.2 Q113.237 1009 106.756 1009 Q104.58 1009 102.265 1008.56 Q99.9733 1008.14 97.5197 1007.29 L97.5197 1002.77 Q99.4641 1003.91 101.779 1004.49 Q104.094 1005.06 106.617 1005.06 Q111.015 1005.06 113.307 1003.33 Q115.621 1001.59 115.621 998.281 Q115.621 995.226 113.469 993.513 Q111.339 991.777 107.52 991.777 L103.492 991.777 L103.492 987.934 L107.705 987.934 Q111.154 987.934 112.983 986.568 Q114.811 985.18 114.811 982.587 Q114.811 979.925 112.913 978.513 Q111.038 977.078 107.52 977.078 Q105.598 977.078 103.399 977.494 Q101.2 977.911 98.5613 978.791 L98.5613 974.624 Q101.223 973.883 103.538 973.513 Q105.876 973.143 107.936 973.143 Q113.26 973.143 116.362 975.573 Q119.464 977.981 119.464 982.101 Q119.464 984.971 117.82 986.962 Q116.177 988.93 113.145 989.693 Z" fill="#000000" fill-rule="nonzero" fill-opacity="1" /><path clip-path="url(#clip690)" d="M62.9365 710.781 Q59.3254 710.781 57.4967 714.346 Q55.6912 717.888 55.6912 725.017 Q55.6912 732.124 57.4967 735.688 Q59.3254 739.23 62.9365 739.23 Q66.5707 739.23 68.3763 735.688 Q70.205 732.124 70.205 725.017 Q70.205 717.888 68.3763 714.346 Q66.5707 710.781 62.9365 710.781 M62.9365 707.077 Q68.7467 707.077 71.8022 711.684 Q74.8809 716.267 74.8809 725.017 Q74.8809 733.744 71.8022 738.35 Q68.7467 742.934 62.9365 742.934 Q57.1264 742.934 54.0477 738.35 Q50.9921 733.744 50.9921 725.017 Q50.9921 716.267 54.0477 711.684 Q57.1264 707.077 62.9365 707.077 Z" fill="#000000" fill-rule="nonzero" fill-opacity="1" /><path clip-path="url(#clip690)" d="M83.0984 736.383 L87.9827 736.383 L87.9827 742.262 L83.0984 742.262 L83.0984 736.383 Z" fill="#000000" fill-rule="nonzero" fill-opacity="1" /><path clip-path="url(#clip690)" d="M108.746 723.119 Q105.598 723.119 103.746 725.272 Q101.918 727.425 101.918 731.175 Q101.918 734.901 103.746 737.077 Q105.598 739.23 108.746 739.23 Q111.895 739.23 113.723 737.077 Q115.575 734.901 115.575 731.175 Q115.575 727.425 113.723 725.272 Q111.895 723.119 108.746 723.119 M118.029 708.466 L118.029 712.726 Q116.27 711.892 114.464 711.452 Q112.682 711.013 110.922 711.013 Q106.293 711.013 103.839 714.138 Q101.409 717.263 101.061 723.582 Q102.427 721.568 104.487 720.503 Q106.547 719.415 109.024 719.415 Q114.233 719.415 117.242 722.587 Q120.274 725.735 120.274 731.175 Q120.274 736.499 117.126 739.716 Q113.978 742.934 108.746 742.934 Q102.751 742.934 99.5798 738.35 Q96.4085 733.744 96.4085 725.017 Q96.4085 716.823 100.297 711.962 Q104.186 707.077 110.737 707.077 Q112.496 707.077 114.279 707.425 Q116.084 707.772 118.029 708.466 Z" fill="#000000" fill-rule="nonzero" fill-opacity="1" /><path clip-path="url(#clip690)" d="M63.2837 444.716 Q59.6726 444.716 57.8439 448.281 Q56.0384 451.822 56.0384 458.952 Q56.0384 466.058 57.8439 469.623 Q59.6726 473.165 63.2837 473.165 Q66.918 473.165 68.7235 469.623 Q70.5522 466.058 70.5522 458.952 Q70.5522 451.822 68.7235 448.281 Q66.918 444.716 63.2837 444.716 M63.2837 441.012 Q69.0939 441.012 72.1494 445.619 Q75.2281 450.202 75.2281 458.952 Q75.2281 467.679 72.1494 472.285 Q69.0939 476.869 63.2837 476.869 Q57.4736 476.869 54.3949 472.285 Q51.3393 467.679 51.3393 458.952 Q51.3393 450.202 54.3949 445.619 Q57.4736 441.012 63.2837 441.012 Z" fill="#000000" fill-rule="nonzero" fill-opacity="1" /><path clip-path="url(#clip690)" d="M83.4457 470.318 L88.3299 470.318 L88.3299 476.197 L83.4457 476.197 L83.4457 470.318 Z" fill="#000000" fill-rule="nonzero" fill-opacity="1" /><path clip-path="url(#clip690)" d="M98.6539 475.48 L98.6539 471.22 Q100.413 472.054 102.219 472.494 Q104.024 472.933 105.76 472.933 Q110.39 472.933 112.82 469.832 Q115.274 466.707 115.621 460.364 Q114.279 462.355 112.219 463.42 Q110.158 464.484 107.658 464.484 Q102.473 464.484 99.4409 461.359 Q96.4317 458.211 96.4317 452.771 Q96.4317 447.447 99.5798 444.23 Q102.728 441.012 107.959 441.012 Q113.955 441.012 117.103 445.619 Q120.274 450.202 120.274 458.952 Q120.274 467.123 116.385 472.007 Q112.52 476.869 105.969 476.869 Q104.209 476.869 102.404 476.521 Q100.598 476.174 98.6539 475.48 M107.959 460.827 Q111.108 460.827 112.936 458.674 Q114.788 456.521 114.788 452.771 Q114.788 449.045 112.936 446.892 Q111.108 444.716 107.959 444.716 Q104.811 444.716 102.959 446.892 Q101.131 449.045 101.131 452.771 Q101.131 456.521 102.959 458.674 Q104.811 460.827 107.959 460.827 Z" fill="#000000" fill-rule="nonzero" fill-opacity="1" /><path clip-path="url(#clip690)" d="M55.506 206.197 L63.1448 206.197 L63.1448 179.831 L54.8347 181.498 L54.8347 177.239 L63.0985 175.572 L67.7744 175.572 L67.7744 206.197 L75.4133 206.197 L75.4133 210.132 L55.506 210.132 L55.506 206.197 Z" fill="#000000" fill-rule="nonzero" fill-opacity="1" /><path clip-path="url(#clip690)" d="M84.8577 204.253 L89.7419 204.253 L89.7419 210.132 L84.8577 210.132 L84.8577 204.253 Z" fill="#000000" fill-rule="nonzero" fill-opacity="1" /><path clip-path="url(#clip690)" d="M103.955 206.197 L120.274 206.197 L120.274 210.132 L98.3298 210.132 L98.3298 206.197 Q100.992 203.442 105.575 198.813 Q110.182 194.16 111.362 192.817 Q113.608 190.294 114.487 188.558 Q115.39 186.799 115.39 185.109 Q115.39 182.355 113.445 180.618 Q111.524 178.882 108.422 178.882 Q106.223 178.882 103.77 179.646 Q101.339 180.41 98.5613 181.961 L98.5613 177.239 Q101.385 176.105 103.839 175.526 Q106.293 174.947 108.33 174.947 Q113.7 174.947 116.895 177.632 Q120.089 180.317 120.089 184.808 Q120.089 186.938 119.279 188.859 Q118.492 190.757 116.385 193.35 Q115.807 194.021 112.705 197.239 Q109.603 200.433 103.955 206.197 Z" fill="#000000" fill-rule="nonzero" fill-opacity="1" /><polyline clip-path="url(#clip692)" style="stroke:#009af9; stroke-linecap:round; stroke-linejoin:round; stroke-width:16; stroke-opacity:1; fill:none" stroke-dasharray="8, 16" points="218.439,1122.58 228.852,1108.6 239.264,1089.61 249.677,1075.93 260.09,1076.15 270.503,1088.83 280.916,1103.51 291.329,1113.1 301.741,1121.26 312.154,1136.08 322.567,1161.2 332.98,1194.3 343.393,1230.64 353.805,1266.2 364.218,1298.74 374.631,1327.55 385.044,1352.81 395.457,1375.11 405.87,1394.8 416.282,1411.51 426.695,1423.92 437.108,1430.25 447.521,1429.43 457.934,1422.02 468.347,1410.06 478.759,1395.52 489.172,1378.16 499.585,1354.83 509.998,1322.32 520.411,1282.37 530.824,1242.8 541.236,1211.57 551.649,1189.75 562.062,1171.79 572.475,1152.04 582.888,1129.5 593.301,1106.84 603.713,1087.71 614.126,1075.89 624.539,1074.49 634.952,1083.91 645.365,1100.96 655.777,1121.13 666.19,1141.7 676.603,1162.81 687.016,1186.24 697.429,1213.46 707.842,1244.52 718.254,1278.03 728.667,1311.82 739.08,1343.71 749.493,1371.86 759.906,1394.78 770.319,1411.33 780.731,1421.32 791.144,1426.59 801.557,1430.75 811.97,1436.19 822.383,1440.01 832.796,1433.91 843.208,1409.99 853.621,1369.08 864.034,1322.99 874.447,1286.36 884.86,1264.54 895.273,1250.58 905.685,1233.55 916.098,1207.4 926.511,1172.75 936.924,1134.7 947.337,1100.83 957.749,1078.58 968.162,1071.26 978.575,1075.91 988.988,1086 999.401,1096.51 1009.81,1106.6 1020.23,1118.32 1030.64,1133.96 1041.05,1154.57 1051.46,1180.02 1061.88,1209.55 1072.29,1242.25 1082.7,1277.1 1093.12,1312.83 1103.53,1347.62 1113.94,1378.93 1124.35,1403.61 1134.77,1418.69 1145.18,1422.77 1155.59,1417.62 1166.01,1408.67 1176.42,1403.46 1186.83,1408.34 1197.24,1424.74 1207.66,1444.82 1218.07,1445.72 1228.48,1384.58 1238.9,1211.47 1249.31,926.511 1259.72,626.534 1270.13,424.773 1280.55,343.411 1290.96,336.926 1301.37,358.808 1311.79,381.812 1322.2,393.151 1332.61,389.753 1343.02,375.569 1353.44,358.423 1363.85,346.134 1374.26,343.334 1384.68,350.385 1395.09,364.396 1405.5,381.093 1415.91,396.329 1426.33,406.824 1436.74,410.309 1447.15,405.448 1457.57,391.871 1467.98,370.568 1478.39,344.692 1488.8,320.417 1499.22,306.756 1509.63,312.826 1520.04,342.237 1530.45,387.91 1540.87,432.954 1551.28,459.013 1561.69,455.828 1572.11,424.869 1582.52,376.734 1592.93,326.625 1603.34,289.905 1613.76,276.934 1624.17,289.108 1634.58,320.783 1645,365.149 1655.41,415.349 1665.82,460.155 1676.23,483.384 1686.65,471.37 1697.06,422.614 1707.47,351.578 1717.89,283.325 1728.3,241.941 1738.71,239.944 1749.12,274.99 1759.54,333.984 1769.95,399.708 1780.36,455.786 1790.78,489.21 1801.19,491.709 1811.6,461.042 1822.01,402.375 1832.43,328.895 1842.84,260.316 1853.25,218.245 1863.67,218.828 1874.08,265.457 1884.49,345.64 1894.9,434.664 1905.32,504.681 1915.73,534.773 1926.14,517.38 1936.56,458.71 1946.97,374.245 1957.38,283.996 1967.79,211.01 1978.21,179.754 1988.62,207.634 1999.03,291.803 2009.45,404.804 2019.86,507.025 2030.27,565.9 2040.68,567.026 2051.1,514.238 2061.51,424.689 2071.92,323.333 2082.33,237.039 2092.75,187.904 2103.16,187.449 2113.57,234.332 2123.99,316.375 2134.4,414.961 2144.81,509.053 2155.22,577.524 2165.64,600.646 2176.05,563.095 2186.46,461.011 2196.88,313.086 2207.29,167.515 2217.7,87.9763 2228.11,113.896 2238.53,228.02 2248.94,371.11 2259.35,488.349 2269.77,557.875 2280.18,586.377 2290.59,592.159 "/>
<polyline clip-path="url(#clip692)" style="stroke:#e26f46; stroke-linecap:round; stroke-linejoin:round; stroke-width:4; stroke-opacity:1; fill:none" points="218.439,1123.91 228.852,1105.01 239.264,1091.07 249.677,1082.56 260.09,1079.74 270.503,1082.71 280.916,1091.37 291.329,1105.44 301.741,1124.46 312.154,1147.82 322.567,1174.73 332.98,1204.34 343.393,1235.67 353.805,1267.7 364.218,1299.38 374.631,1329.69 385.044,1357.62 395.457,1382.28 405.87,1402.85 416.282,1418.66 426.695,1429.2 437.108,1434.13 447.521,1433.28 457.934,1426.67 468.347,1414.54 478.759,1397.26 489.172,1375.41 499.585,1349.71 509.998,1320.97 520.411,1290.16 530.824,1258.26 541.236,1226.33 551.649,1195.41 562.062,1166.49 572.475,1140.54 582.888,1118.39 593.301,1100.76 603.713,1088.24 614.126,1081.23 624.539,1079.97 634.952,1084.48 645.365,1094.63 655.777,1110.08 666.19,1130.33 676.603,1154.71 687.016,1182.44 697.429,1212.61 707.842,1244.23 718.254,1276.27 728.667,1307.68 739.08,1337.44 749.493,1364.59 759.906,1388.22 770.319,1407.58 780.731,1422.02 791.144,1431.08 801.557,1434.47 811.97,1432.06 822.383,1423.95 832.796,1410.39 843.208,1391.83 853.621,1368.87 864.034,1342.27 874.447,1312.88 884.86,1281.68 895.273,1249.67 905.685,1217.9 916.098,1187.42 926.511,1159.21 936.924,1134.2 947.337,1113.19 957.749,1096.89 968.162,1085.81 978.575,1080.33 988.988,1080.61 999.401,1086.66 1009.81,1098.26 1020.23,1115.06 1030.64,1136.48 1041.05,1161.85 1051.46,1190.33 1061.88,1220.98 1072.29,1252.81 1082.7,1284.79 1093.12,1315.86 1103.53,1345.01 1113.94,1371.3 1124.35,1393.86 1134.77,1411.95 1145.18,1424.99 1155.59,1432.56 1166.01,1434.39 1176.42,1430.44 1186.83,1420.84 1197.24,1405.89 1207.66,1386.08 1218.07,1362.07 1228.48,1334.63 1238.9,1304.66 1249.31,1273.13 1259.72,368.941 1270.13,367.475 1280.55,368.809 1290.96,373.25 1301.37,379.437 1311.79,384.756 1322.2,386.331 1332.61,382.239 1343.02,372.483 1353.44,359.331 1363.85,346.816 1374.26,339.505 1384.68,340.907 1395.09,352.062 1405.5,370.825 1415.91,392.178 1426.33,409.566 1436.74,416.901 1447.15,410.622 1457.57,391.141 1467.98,363.12 1478.39,334.403 1488.8,313.822 1499.22,308.49 1509.63,321.415 1520.04,350.21 1530.45,387.399 1540.87,422.333 1551.28,444.243 1561.69,445.541 1572.11,424.373 1582.52,385.581 1592.93,339.661 1603.34,299.939 1613.76,278.706 1624.17,283.427 1634.58,314.211 1645,363.356 1655.41,417.231 1665.82,460.056 1676.23,478.52 1686.65,465.894 1697.06,424.376 1707.47,364.869 1717.89,304.143 1728.3,260.112 1738.71,246.552 1749.12,268.819 1759.54,321.892 1769.95,391.419 1780.36,457.583 1790.78,500.75 1801.19,507.288 1811.6,473.841 1822.01,408.713 1832.43,329.862 1842.84,259.953 1853.25,219.847 1863.67,222.383 1874.08,268.308 1884.49,345.645 1894.9,432.776 1905.32,504.487 1915.73,539.26 1926.14,525.719 1936.56,466.299 1946.97,376.961 1957.38,282.927 1967.79,211.565 1978.21,184.42 1988.62,210.726 1999.03,284.342 2009.45,385.108 2019.86,484.352 2030.27,553.048 2040.68,570.303 2051.1,529.691 2061.51,441.523 2071.92,330.273 2082.33,227.794 2092.75,164.197 2103.16,159.01 2113.57,215.202 2123.99,317.911 2134.4,438.34 2144.81,541.83 2155.22,597.829 2165.64,588.913 2176.05,516.17 2186.46,399.312 2196.88,271.354 2207.29,169.29 2217.7,123.396 2228.11,148.259 2238.53,238.182 2248.94,368.408 2259.35,501.918 2269.77,599.961 2280.18,633.288 2290.59,590.879 "/>
<path clip-path="url(#clip690)" d="M229.49 250.738 L675.966 250.738 L675.966 95.2176 L229.49 95.2176  Z" fill="#ffffff" fill-rule="evenodd" fill-opacity="1"/>
<polyline clip-path="url(#clip690)" style="stroke:#000000; stroke-linecap:round; stroke-linejoin:round; stroke-width:4; stroke-opacity:1; fill:none" points="229.49,250.738 675.966,250.738 675.966,95.2176 229.49,95.2176 229.49,250.738 "/>
<polyline clip-path="url(#clip690)" style="stroke:#009af9; stroke-linecap:round; stroke-linejoin:round; stroke-width:16; stroke-opacity:1; fill:none" stroke-dasharray="8, 16" points="253.896,147.058 400.328,147.058 "/>
<path clip-path="url(#clip690)" d="M429.409 133.62 L429.409 146.606 L435.289 146.606 Q438.552 146.606 440.335 144.916 Q442.117 143.227 442.117 140.102 Q442.117 137 440.335 135.31 Q438.552 133.62 435.289 133.62 L429.409 133.62 M424.733 129.778 L435.289 129.778 Q441.099 129.778 444.062 132.416 Q447.048 135.032 447.048 140.102 Q447.048 145.217 444.062 147.833 Q441.099 150.449 435.289 150.449 L429.409 150.449 L429.409 164.338 L424.733 164.338 L424.733 129.778 Z" fill="#000000" fill-rule="nonzero" fill-opacity="1" /><path clip-path="url(#clip690)" d="M467.325 142.393 Q466.608 141.977 465.751 141.791 Q464.918 141.583 463.899 141.583 Q460.288 141.583 458.344 143.944 Q456.423 146.282 456.423 150.68 L456.423 164.338 L452.14 164.338 L452.14 138.412 L456.423 138.412 L456.423 142.44 Q457.765 140.078 459.918 138.944 Q462.071 137.787 465.149 137.787 Q465.589 137.787 466.122 137.856 Q466.654 137.903 467.302 138.018 L467.325 142.393 Z" fill="#000000" fill-rule="nonzero" fill-opacity="1" /><path clip-path="url(#clip690)" d="M492.927 150.31 L492.927 152.393 L473.344 152.393 Q473.622 156.791 475.983 159.106 Q478.367 161.398 482.603 161.398 Q485.057 161.398 487.348 160.796 Q489.663 160.194 491.932 158.99 L491.932 163.018 Q489.64 163.99 487.233 164.5 Q484.825 165.009 482.348 165.009 Q476.145 165.009 472.511 161.398 Q468.899 157.787 468.899 151.629 Q468.899 145.264 472.325 141.537 Q475.774 137.787 481.608 137.787 Q486.839 137.787 489.872 141.166 Q492.927 144.523 492.927 150.31 M488.668 149.06 Q488.622 145.565 486.7 143.481 Q484.802 141.398 481.654 141.398 Q478.089 141.398 475.936 143.412 Q473.807 145.426 473.483 149.083 L488.668 149.06 Z" fill="#000000" fill-rule="nonzero" fill-opacity="1" /><path clip-path="url(#clip690)" d="M516.978 142.347 L516.978 128.319 L521.237 128.319 L521.237 164.338 L516.978 164.338 L516.978 160.449 Q515.635 162.763 513.575 163.898 Q511.538 165.009 508.668 165.009 Q503.969 165.009 501.006 161.259 Q498.066 157.509 498.066 151.398 Q498.066 145.287 501.006 141.537 Q503.969 137.787 508.668 137.787 Q511.538 137.787 513.575 138.921 Q515.635 140.032 516.978 142.347 M502.464 151.398 Q502.464 156.097 504.385 158.782 Q506.33 161.444 509.709 161.444 Q513.089 161.444 515.033 158.782 Q516.978 156.097 516.978 151.398 Q516.978 146.699 515.033 144.037 Q513.089 141.352 509.709 141.352 Q506.33 141.352 504.385 144.037 Q502.464 146.699 502.464 151.398 Z" fill="#000000" fill-rule="nonzero" fill-opacity="1" /><path clip-path="url(#clip690)" d="M530.01 138.412 L534.269 138.412 L534.269 164.338 L530.01 164.338 L530.01 138.412 M530.01 128.319 L534.269 128.319 L534.269 133.713 L530.01 133.713 L530.01 128.319 Z" fill="#000000" fill-rule="nonzero" fill-opacity="1" /><path clip-path="url(#clip690)" d="M561.839 139.407 L561.839 143.389 Q560.033 142.393 558.205 141.907 Q556.399 141.398 554.547 141.398 Q550.404 141.398 548.112 144.037 Q545.82 146.652 545.82 151.398 Q545.82 156.143 548.112 158.782 Q550.404 161.398 554.547 161.398 Q556.399 161.398 558.205 160.912 Q560.033 160.402 561.839 159.407 L561.839 163.342 Q560.056 164.176 558.135 164.592 Q556.237 165.009 554.084 165.009 Q548.228 165.009 544.779 161.328 Q541.33 157.648 541.33 151.398 Q541.33 145.055 544.802 141.421 Q548.297 137.787 554.362 137.787 Q556.33 137.787 558.205 138.203 Q560.08 138.597 561.839 139.407 Z" fill="#000000" fill-rule="nonzero" fill-opacity="1" /><path clip-path="url(#clip690)" d="M573.459 131.051 L573.459 138.412 L582.232 138.412 L582.232 141.722 L573.459 141.722 L573.459 155.796 Q573.459 158.967 574.316 159.87 Q575.195 160.773 577.857 160.773 L582.232 160.773 L582.232 164.338 L577.857 164.338 Q572.927 164.338 571.052 162.509 Q569.177 160.657 569.177 155.796 L569.177 141.722 L566.052 141.722 L566.052 138.412 L569.177 138.412 L569.177 131.051 L573.459 131.051 Z" fill="#000000" fill-rule="nonzero" fill-opacity="1" /><path clip-path="url(#clip690)" d="M587.834 138.412 L592.093 138.412 L592.093 164.338 L587.834 164.338 L587.834 138.412 M587.834 128.319 L592.093 128.319 L592.093 133.713 L587.834 133.713 L587.834 128.319 Z" fill="#000000" fill-rule="nonzero" fill-opacity="1" /><path clip-path="url(#clip690)" d="M611.051 141.398 Q607.626 141.398 605.635 144.083 Q603.644 146.745 603.644 151.398 Q603.644 156.051 605.612 158.736 Q607.602 161.398 611.051 161.398 Q614.454 161.398 616.445 158.713 Q618.436 156.027 618.436 151.398 Q618.436 146.791 616.445 144.106 Q614.454 141.398 611.051 141.398 M611.051 137.787 Q616.607 137.787 619.778 141.398 Q622.95 145.009 622.95 151.398 Q622.95 157.764 619.778 161.398 Q616.607 165.009 611.051 165.009 Q605.473 165.009 602.302 161.398 Q599.153 157.764 599.153 151.398 Q599.153 145.009 602.302 141.398 Q605.473 137.787 611.051 137.787 Z" fill="#000000" fill-rule="nonzero" fill-opacity="1" /><path clip-path="url(#clip690)" d="M651.561 148.689 L651.561 164.338 L647.301 164.338 L647.301 148.828 Q647.301 145.148 645.866 143.319 Q644.431 141.49 641.561 141.49 Q638.112 141.49 636.121 143.69 Q634.13 145.889 634.13 149.685 L634.13 164.338 L629.848 164.338 L629.848 138.412 L634.13 138.412 L634.13 142.44 Q635.658 140.102 637.718 138.944 Q639.801 137.787 642.51 137.787 Q646.977 137.787 649.269 140.565 Q651.561 143.319 651.561 148.689 Z" fill="#000000" fill-rule="nonzero" fill-opacity="1" /><polyline clip-path="url(#clip690)" style="stroke:#e26f46; stroke-linecap:round; stroke-linejoin:round; stroke-width:4; stroke-opacity:1; fill:none" points="253.896,198.898 400.328,198.898 "/>
<path clip-path="url(#clip690)" d="M424.733 181.618 L446.585 181.618 L446.585 185.553 L429.409 185.553 L429.409 195.784 L445.867 195.784 L445.867 199.719 L429.409 199.719 L429.409 212.242 L447.001 212.242 L447.001 216.178 L424.733 216.178 L424.733 181.618 Z" fill="#000000" fill-rule="nonzero" fill-opacity="1" /><path clip-path="url(#clip690)" d="M476.052 190.252 L466.677 202.867 L476.538 216.178 L471.515 216.178 L463.969 205.992 L456.423 216.178 L451.4 216.178 L461.469 202.613 L452.256 190.252 L457.279 190.252 L464.154 199.488 L471.029 190.252 L476.052 190.252 Z" fill="#000000" fill-rule="nonzero" fill-opacity="1" /><path clip-path="url(#clip690)" d="M494.339 203.145 Q489.177 203.145 487.186 204.326 Q485.196 205.506 485.196 208.354 Q485.196 210.622 486.677 211.965 Q488.182 213.284 490.751 213.284 Q494.293 213.284 496.422 210.784 Q498.575 208.261 498.575 204.094 L498.575 203.145 L494.339 203.145 M502.834 201.386 L502.834 216.178 L498.575 216.178 L498.575 212.242 Q497.117 214.603 494.941 215.738 Q492.765 216.849 489.617 216.849 Q485.635 216.849 483.274 214.627 Q480.936 212.381 480.936 208.631 Q480.936 204.256 483.853 202.034 Q486.793 199.812 492.603 199.812 L498.575 199.812 L498.575 199.395 Q498.575 196.455 496.631 194.858 Q494.71 193.238 491.214 193.238 Q488.992 193.238 486.885 193.77 Q484.779 194.303 482.835 195.367 L482.835 191.432 Q485.173 190.53 487.372 190.09 Q489.571 189.627 491.654 189.627 Q497.279 189.627 500.057 192.543 Q502.834 195.46 502.834 201.386 Z" fill="#000000" fill-rule="nonzero" fill-opacity="1" /><path clip-path="url(#clip690)" d="M530.265 191.247 L530.265 195.229 Q528.459 194.233 526.631 193.747 Q524.825 193.238 522.973 193.238 Q518.83 193.238 516.538 195.877 Q514.246 198.492 514.246 203.238 Q514.246 207.983 516.538 210.622 Q518.83 213.238 522.973 213.238 Q524.825 213.238 526.631 212.752 Q528.459 212.242 530.265 211.247 L530.265 215.182 Q528.482 216.016 526.561 216.432 Q524.663 216.849 522.51 216.849 Q516.654 216.849 513.205 213.168 Q509.756 209.488 509.756 203.238 Q509.756 196.895 513.228 193.261 Q516.723 189.627 522.788 189.627 Q524.756 189.627 526.631 190.043 Q528.506 190.437 530.265 191.247 Z" fill="#000000" fill-rule="nonzero" fill-opacity="1" /><path clip-path="url(#clip690)" d="M541.885 182.891 L541.885 190.252 L550.658 190.252 L550.658 193.562 L541.885 193.562 L541.885 207.636 Q541.885 210.807 542.742 211.71 Q543.621 212.613 546.283 212.613 L550.658 212.613 L550.658 216.178 L546.283 216.178 Q541.353 216.178 539.478 214.349 Q537.603 212.497 537.603 207.636 L537.603 193.562 L534.478 193.562 L534.478 190.252 L537.603 190.252 L537.603 182.891 L541.885 182.891 Z" fill="#000000" fill-rule="nonzero" fill-opacity="1" /></svg>
