<?xml version="1.0" encoding="utf-8"?>
<svg xmlns="http://www.w3.org/2000/svg" xmlns:xlink="http://www.w3.org/1999/xlink" width="600" height="400" viewBox="0 0 2400 1600">
<defs>
  <clipPath id="clip640">
    <rect x="0" y="0" width="2400" height="1600"/>
  </clipPath>
</defs>
<path clip-path="url(#clip640)" d="M0 1600 L2400 1600 L2400 0 L0 0  Z" fill="#ffffff" fill-rule="evenodd" fill-opacity="1"/>
<defs>
  <clipPath id="clip641">
    <rect x="480" y="0" width="1681" height="1600"/>
  </clipPath>
</defs>
<path clip-path="url(#clip640)" d="M192.339 1486.45 L2352.76 1486.45 L2352.76 47.2441 L192.339 47.2441  Z" fill="#ffffff" fill-rule="evenodd" fill-opacity="1"/>
<defs>
  <clipPath id="clip642">
    <rect x="192" y="47" width="2161" height="1440"/>
  </clipPath>
</defs>
<polyline clip-path="url(#clip642)" style="stroke:#000000; stroke-linecap:round; stroke-linejoin:round; stroke-width:2; stroke-opacity:0.1; fill:none" points="253.483,1486.45 253.483,47.2441 "/>
<polyline clip-path="url(#clip642)" style="stroke:#000000; stroke-linecap:round; stroke-linejoin:round; stroke-width:2; stroke-opacity:0.1; fill:none" points="763.015,1486.45 763.015,47.2441 "/>
<polyline clip-path="url(#clip642)" style="stroke:#000000; stroke-linecap:round; stroke-linejoin:round; stroke-width:2; stroke-opacity:0.1; fill:none" points="1272.55,1486.45 1272.55,47.2441 "/>
<polyline clip-path="url(#clip642)" style="stroke:#000000; stroke-linecap:round; stroke-linejoin:round; stroke-width:2; stroke-opacity:0.1; fill:none" points="1782.08,1486.45 1782.08,47.2441 "/>
<polyline clip-path="url(#clip642)" style="stroke:#000000; stroke-linecap:round; stroke-linejoin:round; stroke-width:2; stroke-opacity:0.1; fill:none" points="2291.61,1486.45 2291.61,47.2441 "/>
<polyline clip-path="url(#clip640)" style="stroke:#000000; stroke-linecap:round; stroke-linejoin:round; stroke-width:4; stroke-opacity:1; fill:none" points="192.339,1486.45 2352.76,1486.45 "/>
<polyline clip-path="url(#clip640)" style="stroke:#000000; stroke-linecap:round; stroke-linejoin:round; stroke-width:4; stroke-opacity:1; fill:none" points="253.483,1486.45 253.483,1467.55 "/>
<polyline clip-path="url(#clip640)" style="stroke:#000000; stroke-linecap:round; stroke-linejoin:round; stroke-width:4; stroke-opacity:1; fill:none" points="763.015,1486.45 763.015,1467.55 "/>
<polyline clip-path="url(#clip640)" style="stroke:#000000; stroke-linecap:round; stroke-linejoin:round; stroke-width:4; stroke-opacity:1; fill:none" points="1272.55,1486.45 1272.55,1467.55 "/>
<polyline clip-path="url(#clip640)" style="stroke:#000000; stroke-linecap:round; stroke-linejoin:round; stroke-width:4; stroke-opacity:1; fill:none" points="1782.08,1486.45 1782.08,1467.55 "/>
<polyline clip-path="url(#clip640)" style="stroke:#000000; stroke-linecap:round; stroke-linejoin:round; stroke-width:4; stroke-opacity:1; fill:none" points="2291.61,1486.45 2291.61,1467.55 "/>
<path clip-path="url(#clip640)" d="M200.011 1532.02 L229.686 1532.02 L229.686 1535.95 L200.011 1535.95 L200.011 1532.02 Z" fill="#000000" fill-rule="nonzero" fill-opacity="1" /><path clip-path="url(#clip640)" d="M240.589 1544.91 L248.228 1544.91 L248.228 1518.55 L239.918 1520.21 L239.918 1515.95 L248.182 1514.29 L252.858 1514.29 L252.858 1544.91 L260.497 1544.91 L260.497 1548.85 L240.589 1548.85 L240.589 1544.91 Z" fill="#000000" fill-rule="nonzero" fill-opacity="1" /><path clip-path="url(#clip640)" d="M269.941 1542.97 L274.825 1542.97 L274.825 1548.85 L269.941 1548.85 L269.941 1542.97 Z" fill="#000000" fill-rule="nonzero" fill-opacity="1" /><path clip-path="url(#clip640)" d="M295.01 1517.37 Q291.399 1517.37 289.57 1520.93 Q287.765 1524.47 287.765 1531.6 Q287.765 1538.71 289.57 1542.27 Q291.399 1545.82 295.01 1545.82 Q298.644 1545.82 300.45 1542.27 Q302.279 1538.71 302.279 1531.6 Q302.279 1524.47 300.45 1520.93 Q298.644 1517.37 295.01 1517.37 M295.01 1513.66 Q300.82 1513.66 303.876 1518.27 Q306.955 1522.85 306.955 1531.6 Q306.955 1540.33 303.876 1544.94 Q300.82 1549.52 295.01 1549.52 Q289.2 1549.52 286.121 1544.94 Q283.066 1540.33 283.066 1531.6 Q283.066 1522.85 286.121 1518.27 Q289.2 1513.66 295.01 1513.66 Z" fill="#000000" fill-rule="nonzero" fill-opacity="1" /><path clip-path="url(#clip640)" d="M710.041 1532.02 L739.717 1532.02 L739.717 1535.95 L710.041 1535.95 L710.041 1532.02 Z" fill="#000000" fill-rule="nonzero" fill-opacity="1" /><path clip-path="url(#clip640)" d="M759.809 1517.37 Q756.198 1517.37 754.369 1520.93 Q752.564 1524.47 752.564 1531.6 Q752.564 1538.71 754.369 1542.27 Q756.198 1545.82 759.809 1545.82 Q763.443 1545.82 765.249 1542.27 Q767.077 1538.71 767.077 1531.6 Q767.077 1524.47 765.249 1520.93 Q763.443 1517.37 759.809 1517.37 M759.809 1513.66 Q765.619 1513.66 768.675 1518.27 Q771.753 1522.85 771.753 1531.6 Q771.753 1540.33 768.675 1544.94 Q765.619 1549.52 759.809 1549.52 Q753.999 1549.52 750.92 1544.94 Q747.865 1540.33 747.865 1531.6 Q747.865 1522.85 750.92 1518.27 Q753.999 1513.66 759.809 1513.66 Z" fill="#000000" fill-rule="nonzero" fill-opacity="1" /><path clip-path="url(#clip640)" d="M779.971 1542.97 L784.855 1542.97 L784.855 1548.85 L779.971 1548.85 L779.971 1542.97 Z" fill="#000000" fill-rule="nonzero" fill-opacity="1" /><path clip-path="url(#clip640)" d="M795.087 1514.29 L813.443 1514.29 L813.443 1518.22 L799.369 1518.22 L799.369 1526.7 Q800.387 1526.35 801.406 1526.19 Q802.425 1526 803.443 1526 Q809.23 1526 812.61 1529.17 Q815.989 1532.34 815.989 1537.76 Q815.989 1543.34 812.517 1546.44 Q809.045 1549.52 802.725 1549.52 Q800.55 1549.52 798.281 1549.15 Q796.036 1548.78 793.628 1548.04 L793.628 1543.34 Q795.712 1544.47 797.934 1545.03 Q800.156 1545.58 802.633 1545.58 Q806.637 1545.58 808.975 1543.48 Q811.313 1541.37 811.313 1537.76 Q811.313 1534.15 808.975 1532.04 Q806.637 1529.94 802.633 1529.94 Q800.758 1529.94 798.883 1530.35 Q797.031 1530.77 795.087 1531.65 L795.087 1514.29 Z" fill="#000000" fill-rule="nonzero" fill-opacity="1" /><path clip-path="url(#clip640)" d="M1249.93 1517.37 Q1246.32 1517.37 1244.49 1520.93 Q1242.69 1524.47 1242.69 1531.6 Q1242.69 1538.71 1244.49 1542.27 Q1246.32 1545.82 1249.93 1545.82 Q1253.57 1545.82 1255.37 1542.27 Q1257.2 1538.71 1257.2 1531.6 Q1257.2 1524.47 1255.37 1520.93 Q1253.57 1517.37 1249.93 1517.37 M1249.93 1513.66 Q1255.74 1513.66 1258.8 1518.27 Q1261.88 1522.85 1261.88 1531.6 Q1261.88 1540.33 1258.8 1544.94 Q1255.74 1549.52 1249.93 1549.52 Q1244.12 1549.52 1241.04 1544.94 Q1237.99 1540.33 1237.99 1531.6 Q1237.99 1522.85 1241.04 1518.27 Q1244.12 1513.66 1249.93 1513.66 Z" fill="#000000" fill-rule="nonzero" fill-opacity="1" /><path clip-path="url(#clip640)" d="M1270.09 1542.97 L1274.98 1542.97 L1274.98 1548.85 L1270.09 1548.85 L1270.09 1542.97 Z" fill="#000000" fill-rule="nonzero" fill-opacity="1" /><path clip-path="url(#clip640)" d="M1295.16 1517.37 Q1291.55 1517.37 1289.72 1520.93 Q1287.92 1524.47 1287.92 1531.6 Q1287.92 1538.71 1289.72 1542.27 Q1291.55 1545.82 1295.16 1545.82 Q1298.8 1545.82 1300.6 1542.27 Q1302.43 1538.71 1302.43 1531.6 Q1302.43 1524.47 1300.6 1520.93 Q1298.8 1517.37 1295.16 1517.37 M1295.16 1513.66 Q1300.97 1513.66 1304.03 1518.27 Q1307.11 1522.85 1307.11 1531.6 Q1307.11 1540.33 1304.03 1544.94 Q1300.97 1549.52 1295.16 1549.52 Q1289.35 1549.52 1286.27 1544.94 Q1283.22 1540.33 1283.22 1531.6 Q1283.22 1522.85 1286.27 1518.27 Q1289.35 1513.66 1295.16 1513.66 Z" fill="#000000" fill-rule="nonzero" fill-opacity="1" /><path clip-path="url(#clip640)" d="M1759.96 1517.37 Q1756.35 1517.37 1754.52 1520.93 Q1752.72 1524.47 1752.72 1531.6 Q1752.72 1538.71 1754.52 1542.27 Q1756.35 1545.82 1759.96 1545.82 Q1763.6 1545.82 1765.4 1542.27 Q1767.23 1538.71 1767.23 1531.6 Q1767.23 1524.47 1765.4 1520.93 Q1763.6 1517.37 1759.96 1517.37 M1759.96 1513.66 Q1765.77 1513.66 1768.83 1518.27 Q1771.91 1522.85 1771.91 1531.6 Q1771.91 1540.33 1768.83 1544.94 Q1765.77 1549.52 1759.96 1549.52 Q1754.15 1549.52 1751.07 1544.94 Q1748.02 1540.33 1748.02 1531.6 Q1748.02 1522.85 1751.07 1518.27 Q1754.15 1513.66 1759.96 1513.66 Z" fill="#000000" fill-rule="nonzero" fill-opacity="1" /><path clip-path="url(#clip640)" d="M1780.12 1542.97 L1785.01 1542.97 L1785.01 1548.85 L1780.12 1548.85 L1780.12 1542.97 Z" fill="#000000" fill-rule="nonzero" fill-opacity="1" /><path clip-path="url(#clip640)" d="M1795.24 1514.29 L1813.6 1514.29 L1813.6 1518.22 L1799.52 1518.22 L1799.52 1526.7 Q1800.54 1526.35 1801.56 1526.19 Q1802.58 1526 1803.6 1526 Q1809.38 1526 1812.76 1529.17 Q1816.14 1532.34 1816.14 1537.76 Q1816.14 1543.34 1812.67 1546.44 Q1809.2 1549.52 1802.88 1549.52 Q1800.7 1549.52 1798.43 1549.15 Q1796.19 1548.78 1793.78 1548.04 L1793.78 1543.34 Q1795.86 1544.47 1798.09 1545.03 Q1800.31 1545.58 1802.79 1545.58 Q1806.79 1545.58 1809.13 1543.48 Q1811.47 1541.37 1811.47 1537.76 Q1811.47 1534.15 1809.13 1532.04 Q1806.79 1529.94 1802.79 1529.94 Q1800.91 1529.94 1799.04 1530.35 Q1797.18 1530.77 1795.24 1531.65 L1795.24 1514.29 Z" fill="#000000" fill-rule="nonzero" fill-opacity="1" /><path clip-path="url(#clip640)" d="M2258.76 1544.91 L2266.4 1544.91 L2266.4 1518.55 L2258.09 1520.21 L2258.09 1515.95 L2266.36 1514.29 L2271.03 1514.29 L2271.03 1544.91 L2278.67 1544.91 L2278.67 1548.85 L2258.76 1548.85 L2258.76 1544.91 Z" fill="#000000" fill-rule="nonzero" fill-opacity="1" /><path clip-path="url(#clip640)" d="M2288.12 1542.97 L2293 1542.97 L2293 1548.85 L2288.12 1548.85 L2288.12 1542.97 Z" fill="#000000" fill-rule="nonzero" fill-opacity="1" /><path clip-path="url(#clip640)" d="M2313.19 1517.37 Q2309.57 1517.37 2307.75 1520.93 Q2305.94 1524.47 2305.94 1531.6 Q2305.94 1538.71 2307.75 1542.27 Q2309.57 1545.82 2313.19 1545.82 Q2316.82 1545.82 2318.63 1542.27 Q2320.45 1538.71 2320.45 1531.6 Q2320.45 1524.47 2318.63 1520.93 Q2316.82 1517.37 2313.19 1517.37 M2313.19 1513.66 Q2319 1513.66 2322.05 1518.27 Q2325.13 1522.85 2325.13 1531.6 Q2325.13 1540.33 2322.05 1544.94 Q2319 1549.52 2313.19 1549.52 Q2307.38 1549.52 2304.3 1544.94 Q2301.24 1540.33 2301.24 1531.6 Q2301.24 1522.85 2304.3 1518.27 Q2307.38 1513.66 2313.19 1513.66 Z" fill="#000000" fill-rule="nonzero" fill-opacity="1" /><polyline clip-path="url(#clip642)" style="stroke:#000000; stroke-linecap:round; stroke-linejoin:round; stroke-width:2; stroke-opacity:0.1; fill:none" points="192.339,1378.45 2352.76,1378.45 "/>
<polyline clip-path="url(#clip642)" style="stroke:#000000; stroke-linecap:round; stroke-linejoin:round; stroke-width:2; stroke-opacity:0.1; fill:none" points="192.339,1203.86 2352.76,1203.86 "/>
<polyline clip-path="url(#clip642)" style="stroke:#000000; stroke-linecap:round; stroke-linejoin:round; stroke-width:2; stroke-opacity:0.1; fill:none" points="192.339,1029.28 2352.76,1029.28 "/>
<polyline clip-path="url(#clip642)" style="stroke:#000000; stroke-linecap:round; stroke-linejoin:round; stroke-width:2; stroke-opacity:0.1; fill:none" points="192.339,854.69 2352.76,854.69 "/>
<polyline clip-path="url(#clip642)" style="stroke:#000000; stroke-linecap:round; stroke-linejoin:round; stroke-width:2; stroke-opacity:0.1; fill:none" points="192.339,680.103 2352.76,680.103 "/>
<polyline clip-path="url(#clip642)" style="stroke:#000000; stroke-linecap:round; stroke-linejoin:round; stroke-width:2; stroke-opacity:0.1; fill:none" points="192.339,505.515 2352.76,505.515 "/>
<polyline clip-path="url(#clip642)" style="stroke:#000000; stroke-linecap:round; stroke-linejoin:round; stroke-width:2; stroke-opacity:0.1; fill:none" points="192.339,330.928 2352.76,330.928 "/>
<polyline clip-path="url(#clip642)" style="stroke:#000000; stroke-linecap:round; stroke-linejoin:round; stroke-width:2; stroke-opacity:0.1; fill:none" points="192.339,156.34 2352.76,156.34 "/>
<polyline clip-path="url(#clip640)" style="stroke:#000000; stroke-linecap:round; stroke-linejoin:round; stroke-width:4; stroke-opacity:1; fill:none" points="192.339,1486.45 192.339,47.2441 "/>
<polyline clip-path="url(#clip640)" style="stroke:#000000; stroke-linecap:round; stroke-linejoin:round; stroke-width:4; stroke-opacity:1; fill:none" points="192.339,1378.45 211.236,1378.45 "/>
<polyline clip-path="url(#clip640)" style="stroke:#000000; stroke-linecap:round; stroke-linejoin:round; stroke-width:4; stroke-opacity:1; fill:none" points="192.339,1203.86 211.236,1203.86 "/>
<polyline clip-path="url(#clip640)" style="stroke:#000000; stroke-linecap:round; stroke-linejoin:round; stroke-width:4; stroke-opacity:1; fill:none" points="192.339,1029.28 211.236,1029.28 "/>
<polyline clip-path="url(#clip640)" style="stroke:#000000; stroke-linecap:round; stroke-linejoin:round; stroke-width:4; stroke-opacity:1; fill:none" points="192.339,854.69 211.236,854.69 "/>
<polyline clip-path="url(#clip640)" style="stroke:#000000; stroke-linecap:round; stroke-linejoin:round; stroke-width:4; stroke-opacity:1; fill:none" points="192.339,680.103 211.236,680.103 "/>
<polyline clip-path="url(#clip640)" style="stroke:#000000; stroke-linecap:round; stroke-linejoin:round; stroke-width:4; stroke-opacity:1; fill:none" points="192.339,505.515 211.236,505.515 "/>
<polyline clip-path="url(#clip640)" style="stroke:#000000; stroke-linecap:round; stroke-linejoin:round; stroke-width:4; stroke-opacity:1; fill:none" points="192.339,330.928 211.236,330.928 "/>
<polyline clip-path="url(#clip640)" style="stroke:#000000; stroke-linecap:round; stroke-linejoin:round; stroke-width:4; stroke-opacity:1; fill:none" points="192.339,156.34 211.236,156.34 "/>
<path clip-path="url(#clip640)" d="M50.9921 1378.9 L80.6679 1378.9 L80.6679 1382.84 L50.9921 1382.84 L50.9921 1378.9 Z" fill="#000000" fill-rule="nonzero" fill-opacity="1" /><path clip-path="url(#clip640)" d="M100.76 1364.25 Q97.1493 1364.25 95.3206 1367.82 Q93.515 1371.36 93.515 1378.49 Q93.515 1385.59 95.3206 1389.16 Q97.1493 1392.7 100.76 1392.7 Q104.395 1392.7 106.2 1389.16 Q108.029 1385.59 108.029 1378.49 Q108.029 1371.36 106.2 1367.82 Q104.395 1364.25 100.76 1364.25 M100.76 1360.55 Q106.571 1360.55 109.626 1365.15 Q112.705 1369.74 112.705 1378.49 Q112.705 1387.21 109.626 1391.82 Q106.571 1396.4 100.76 1396.4 Q94.9502 1396.4 91.8715 1391.82 Q88.816 1387.21 88.816 1378.49 Q88.816 1369.74 91.8715 1365.15 Q94.9502 1360.55 100.76 1360.55 Z" fill="#000000" fill-rule="nonzero" fill-opacity="1" /><path clip-path="url(#clip640)" d="M120.922 1389.85 L125.807 1389.85 L125.807 1395.73 L120.922 1395.73 L120.922 1389.85 Z" fill="#000000" fill-rule="nonzero" fill-opacity="1" /><path clip-path="url(#clip640)" d="M140.019 1391.8 L156.339 1391.8 L156.339 1395.73 L134.394 1395.73 L134.394 1391.8 Q137.056 1389.04 141.64 1384.41 Q146.246 1379.76 147.427 1378.42 Q149.672 1375.89 150.552 1374.16 Q151.455 1372.4 151.455 1370.71 Q151.455 1367.95 149.51 1366.22 Q147.589 1364.48 144.487 1364.48 Q142.288 1364.48 139.834 1365.25 Q137.404 1366.01 134.626 1367.56 L134.626 1362.84 Q137.45 1361.7 139.904 1361.13 Q142.357 1360.55 144.394 1360.55 Q149.765 1360.55 152.959 1363.23 Q156.154 1365.92 156.154 1370.41 Q156.154 1372.54 155.343 1374.46 Q154.556 1376.36 152.45 1378.95 Q151.871 1379.62 148.769 1382.84 Q145.668 1386.03 140.019 1391.8 Z" fill="#000000" fill-rule="nonzero" fill-opacity="1" /><path clip-path="url(#clip640)" d="M99.1632 1189.66 Q95.5521 1189.66 93.7234 1193.23 Q91.9178 1196.77 91.9178 1203.9 Q91.9178 1211.01 93.7234 1214.57 Q95.5521 1218.11 99.1632 1218.11 Q102.797 1218.11 104.603 1214.57 Q106.432 1211.01 106.432 1203.9 Q106.432 1196.77 104.603 1193.23 Q102.797 1189.66 99.1632 1189.66 M99.1632 1185.96 Q104.973 1185.96 108.029 1190.57 Q111.108 1195.15 111.108 1203.9 Q111.108 1212.63 108.029 1217.23 Q104.973 1221.82 99.1632 1221.82 Q93.353 1221.82 90.2743 1217.23 Q87.2188 1212.63 87.2188 1203.9 Q87.2188 1195.15 90.2743 1190.57 Q93.353 1185.96 99.1632 1185.96 Z" fill="#000000" fill-rule="nonzero" fill-opacity="1" /><path clip-path="url(#clip640)" d="M119.325 1215.27 L124.209 1215.27 L124.209 1221.14 L119.325 1221.14 L119.325 1215.27 Z" fill="#000000" fill-rule="nonzero" fill-opacity="1" /><path clip-path="url(#clip640)" d="M144.394 1189.66 Q140.783 1189.66 138.955 1193.23 Q137.149 1196.77 137.149 1203.9 Q137.149 1211.01 138.955 1214.57 Q140.783 1218.11 144.394 1218.11 Q148.029 1218.11 149.834 1214.57 Q151.663 1211.01 151.663 1203.9 Q151.663 1196.77 149.834 1193.23 Q148.029 1189.66 144.394 1189.66 M144.394 1185.96 Q150.205 1185.96 153.26 1190.57 Q156.339 1195.15 156.339 1203.9 Q156.339 1212.63 153.26 1217.23 Q150.205 1221.82 144.394 1221.82 Q138.584 1221.82 135.506 1217.23 Q132.45 1212.63 132.45 1203.9 Q132.45 1195.15 135.506 1190.57 Q138.584 1185.96 144.394 1185.96 Z" fill="#000000" fill-rule="nonzero" fill-opacity="1" /><path clip-path="url(#clip640)" d="M100.76 1015.08 Q97.1493 1015.08 95.3206 1018.64 Q93.515 1022.18 93.515 1029.31 Q93.515 1036.42 95.3206 1039.98 Q97.1493 1043.52 100.76 1043.52 Q104.395 1043.52 106.2 1039.98 Q108.029 1036.42 108.029 1029.31 Q108.029 1022.18 106.2 1018.64 Q104.395 1015.08 100.76 1015.08 M100.76 1011.37 Q106.571 1011.37 109.626 1015.98 Q112.705 1020.56 112.705 1029.31 Q112.705 1038.04 109.626 1042.65 Q106.571 1047.23 100.76 1047.23 Q94.9502 1047.23 91.8715 1042.65 Q88.816 1038.04 88.816 1029.31 Q88.816 1020.56 91.8715 1015.98 Q94.9502 1011.37 100.76 1011.37 Z" fill="#000000" fill-rule="nonzero" fill-opacity="1" /><path clip-path="url(#clip640)" d="M120.922 1040.68 L125.807 1040.68 L125.807 1046.56 L120.922 1046.56 L120.922 1040.68 Z" fill="#000000" fill-rule="nonzero" fill-opacity="1" /><path clip-path="url(#clip640)" d="M140.019 1042.62 L156.339 1042.62 L156.339 1046.56 L134.394 1046.56 L134.394 1042.62 Q137.056 1039.87 141.64 1035.24 Q146.246 1030.59 147.427 1029.24 Q149.672 1026.72 150.552 1024.98 Q151.455 1023.22 151.455 1021.53 Q151.455 1018.78 149.51 1017.04 Q147.589 1015.31 144.487 1015.31 Q142.288 1015.31 139.834 1016.07 Q137.404 1016.84 134.626 1018.39 L134.626 1013.66 Q137.45 1012.53 139.904 1011.95 Q142.357 1011.37 144.394 1011.37 Q149.765 1011.37 152.959 1014.06 Q156.154 1016.74 156.154 1021.23 Q156.154 1023.36 155.343 1025.28 Q154.556 1027.18 152.45 1029.78 Q151.871 1030.45 148.769 1033.66 Q145.668 1036.86 140.019 1042.62 Z" fill="#000000" fill-rule="nonzero" fill-opacity="1" /><path clip-path="url(#clip640)" d="M98.6771 840.489 Q95.066 840.489 93.2373 844.053 Q91.4317 847.595 91.4317 854.725 Q91.4317 861.831 93.2373 865.396 Q95.066 868.938 98.6771 868.938 Q102.311 868.938 104.117 865.396 Q105.946 861.831 105.946 854.725 Q105.946 847.595 104.117 844.053 Q102.311 840.489 98.6771 840.489 M98.6771 836.785 Q104.487 836.785 107.543 841.391 Q110.621 845.975 110.621 854.725 Q110.621 863.451 107.543 868.058 Q104.487 872.641 98.6771 872.641 Q92.8669 872.641 89.7882 868.058 Q86.7327 863.451 86.7327 854.725 Q86.7327 845.975 89.7882 841.391 Q92.8669 836.785 98.6771 836.785 Z" fill="#000000" fill-rule="nonzero" fill-opacity="1" /><path clip-path="url(#clip640)" d="M118.839 866.09 L123.723 866.09 L123.723 871.97 L118.839 871.97 L118.839 866.09 Z" fill="#000000" fill-rule="nonzero" fill-opacity="1" /><path clip-path="url(#clip640)" d="M146.756 841.484 L134.95 859.933 L146.756 859.933 L146.756 841.484 M145.529 837.41 L151.408 837.41 L151.408 859.933 L156.339 859.933 L156.339 863.822 L151.408 863.822 L151.408 871.97 L146.756 871.97 L146.756 863.822 L131.154 863.822 L131.154 859.308 L145.529 837.41 Z" fill="#000000" fill-rule="nonzero" fill-opacity="1" /><path clip-path="url(#clip640)" d="M99.0011 665.901 Q95.39 665.901 93.5613 669.466 Q91.7558 673.008 91.7558 680.137 Q91.7558 687.244 93.5613 690.809 Q95.39 694.35 99.0011 694.35 Q102.635 694.35 104.441 690.809 Q106.27 687.244 106.27 680.137 Q106.27 673.008 104.441 669.466 Q102.635 665.901 99.0011 665.901 M99.0011 662.198 Q104.811 662.198 107.867 666.804 Q110.946 671.387 110.946 680.137 Q110.946 688.864 107.867 693.471 Q104.811 698.054 99.0011 698.054 Q93.191 698.054 90.1123 693.471 Q87.0567 688.864 87.0567 680.137 Q87.0567 671.387 90.1123 666.804 Q93.191 662.198 99.0011 662.198 Z" fill="#000000" fill-rule="nonzero" fill-opacity="1" /><path clip-path="url(#clip640)" d="M119.163 691.503 L124.047 691.503 L124.047 697.383 L119.163 697.383 L119.163 691.503 Z" fill="#000000" fill-rule="nonzero" fill-opacity="1" /><path clip-path="url(#clip640)" d="M144.811 678.239 Q141.663 678.239 139.811 680.392 Q137.982 682.545 137.982 686.295 Q137.982 690.021 139.811 692.197 Q141.663 694.35 144.811 694.35 Q147.959 694.35 149.788 692.197 Q151.64 690.021 151.64 686.295 Q151.64 682.545 149.788 680.392 Q147.959 678.239 144.811 678.239 M154.093 663.586 L154.093 667.846 Q152.334 667.012 150.529 666.573 Q148.746 666.133 146.987 666.133 Q142.357 666.133 139.904 669.258 Q137.473 672.383 137.126 678.702 Q138.492 676.688 140.552 675.623 Q142.612 674.535 145.089 674.535 Q150.297 674.535 153.306 677.707 Q156.339 680.855 156.339 686.295 Q156.339 691.619 153.191 694.836 Q150.043 698.054 144.811 698.054 Q138.816 698.054 135.644 693.471 Q132.473 688.864 132.473 680.137 Q132.473 671.943 136.362 667.082 Q140.251 662.198 146.802 662.198 Q148.561 662.198 150.343 662.545 Q152.149 662.892 154.093 663.586 Z" fill="#000000" fill-rule="nonzero" fill-opacity="1" /><path clip-path="url(#clip640)" d="M99.2558 491.314 Q95.6447 491.314 93.816 494.879 Q92.0104 498.42 92.0104 505.55 Q92.0104 512.656 93.816 516.221 Q95.6447 519.763 99.2558 519.763 Q102.89 519.763 104.696 516.221 Q106.524 512.656 106.524 505.55 Q106.524 498.42 104.696 494.879 Q102.89 491.314 99.2558 491.314 M99.2558 487.61 Q105.066 487.61 108.121 492.217 Q111.2 496.8 111.2 505.55 Q111.2 514.277 108.121 518.883 Q105.066 523.466 99.2558 523.466 Q93.4456 523.466 90.3669 518.883 Q87.3114 514.277 87.3114 505.55 Q87.3114 496.8 90.3669 492.217 Q93.4456 487.61 99.2558 487.61 Z" fill="#000000" fill-rule="nonzero" fill-opacity="1" /><path clip-path="url(#clip640)" d="M119.418 516.916 L124.302 516.916 L124.302 522.795 L119.418 522.795 L119.418 516.916 Z" fill="#000000" fill-rule="nonzero" fill-opacity="1" /><path clip-path="url(#clip640)" d="M144.487 506.383 Q141.154 506.383 139.232 508.166 Q137.334 509.948 137.334 513.073 Q137.334 516.198 139.232 517.98 Q141.154 519.763 144.487 519.763 Q147.82 519.763 149.742 517.98 Q151.663 516.175 151.663 513.073 Q151.663 509.948 149.742 508.166 Q147.843 506.383 144.487 506.383 M139.811 504.392 Q136.802 503.652 135.112 501.592 Q133.445 499.531 133.445 496.568 Q133.445 492.425 136.385 490.018 Q139.348 487.61 144.487 487.61 Q149.649 487.61 152.589 490.018 Q155.529 492.425 155.529 496.568 Q155.529 499.531 153.839 501.592 Q152.172 503.652 149.186 504.392 Q152.566 505.179 154.441 507.471 Q156.339 509.763 156.339 513.073 Q156.339 518.096 153.26 520.781 Q150.205 523.466 144.487 523.466 Q138.769 523.466 135.691 520.781 Q132.635 518.096 132.635 513.073 Q132.635 509.763 134.533 507.471 Q136.431 505.179 139.811 504.392 M138.098 497.008 Q138.098 499.693 139.765 501.198 Q141.455 502.703 144.487 502.703 Q147.496 502.703 149.186 501.198 Q150.899 499.693 150.899 497.008 Q150.899 494.323 149.186 492.818 Q147.496 491.314 144.487 491.314 Q141.455 491.314 139.765 492.818 Q138.098 494.323 138.098 497.008 Z" fill="#000000" fill-rule="nonzero" fill-opacity="1" /><path clip-path="url(#clip640)" d="M89.9734 344.273 L97.6122 344.273 L97.6122 317.907 L89.3021 319.574 L89.3021 315.314 L97.566 313.648 L102.242 313.648 L102.242 344.273 L109.881 344.273 L109.881 348.208 L89.9734 348.208 L89.9734 344.273 Z" fill="#000000" fill-rule="nonzero" fill-opacity="1" /><path clip-path="url(#clip640)" d="M119.325 342.328 L124.209 342.328 L124.209 348.208 L119.325 348.208 L119.325 342.328 Z" fill="#000000" fill-rule="nonzero" fill-opacity="1" /><path clip-path="url(#clip640)" d="M144.394 316.726 Q140.783 316.726 138.955 320.291 Q137.149 323.833 137.149 330.962 Q137.149 338.069 138.955 341.634 Q140.783 345.175 144.394 345.175 Q148.029 345.175 149.834 341.634 Q151.663 338.069 151.663 330.962 Q151.663 323.833 149.834 320.291 Q148.029 316.726 144.394 316.726 M144.394 313.023 Q150.205 313.023 153.26 317.629 Q156.339 322.212 156.339 330.962 Q156.339 339.689 153.26 344.296 Q150.205 348.879 144.394 348.879 Q138.584 348.879 135.506 344.296 Q132.45 339.689 132.45 330.962 Q132.45 322.212 135.506 317.629 Q138.584 313.023 144.394 313.023 Z" fill="#000000" fill-rule="nonzero" fill-opacity="1" /><path clip-path="url(#clip640)" d="M91.5706 169.685 L99.2095 169.685 L99.2095 143.32 L90.8993 144.986 L90.8993 140.727 L99.1632 139.06 L103.839 139.06 L103.839 169.685 L111.478 169.685 L111.478 173.62 L91.5706 173.62 L91.5706 169.685 Z" fill="#000000" fill-rule="nonzero" fill-opacity="1" /><path clip-path="url(#clip640)" d="M120.922 167.741 L125.807 167.741 L125.807 173.62 L120.922 173.62 L120.922 167.741 Z" fill="#000000" fill-rule="nonzero" fill-opacity="1" /><path clip-path="url(#clip640)" d="M140.019 169.685 L156.339 169.685 L156.339 173.62 L134.394 173.62 L134.394 169.685 Q137.056 166.931 141.64 162.301 Q146.246 157.648 147.427 156.306 Q149.672 153.782 150.552 152.046 Q151.455 150.287 151.455 148.597 Q151.455 145.843 149.51 144.107 Q147.589 142.37 144.487 142.37 Q142.288 142.37 139.834 143.134 Q137.404 143.898 134.626 145.449 L134.626 140.727 Q137.45 139.593 139.904 139.014 Q142.357 138.435 144.394 138.435 Q149.765 138.435 152.959 141.12 Q156.154 143.806 156.154 148.296 Q156.154 150.426 155.343 152.347 Q154.556 154.245 152.45 156.838 Q151.871 157.509 148.769 160.727 Q145.668 163.921 140.019 169.685 Z" fill="#000000" fill-rule="nonzero" fill-opacity="1" /><polyline clip-path="url(#clip642)" style="stroke:#009af9; stroke-linecap:round; stroke-linejoin:round; stroke-width:16; stroke-opacity:1; fill:none" stroke-dasharray="8, 16" points="253.483,1072.75 263.725,1084.95 273.966,1074.89 284.208,1051.28 294.45,1030.16 304.692,1024.25 314.934,1033.46 325.176,1051.2 335.418,1073.04 345.659,1097.47 355.901,1124.12 366.143,1152.73 376.385,1182.86 386.627,1213.88 396.869,1244.91 407.111,1274.91 417.352,1302.74 427.594,1327.25 437.836,1347.5 448.078,1362.87 458.32,1373.17 468.562,1378.5 478.803,1378.81 489.045,1373.31 499.287,1360.23 509.529,1337.94 519.771,1308.46 530.013,1280.05 540.255,1260.04 550.497,1247.01 560.738,1234.75 570.98,1214.01 581.222,1168.12 591.464,1073.6 601.706,971.204 611.948,992.385 622.19,1033.97 632.431,1044.58 642.673,1041.94 652.915,1037.75 663.157,1037.06 673.399,1042.19 683.641,1054.34 693.882,1073.92 704.124,1100.36 714.366,1131.78 724.608,1165.14 734.85,1197.23 745.092,1226.18 755.334,1252.29 765.575,1277.3 775.817,1302.8 786.059,1328.79 796.301,1353.11 806.543,1372.23 816.785,1382.74 827.027,1383.19 837.268,1375.24 847.51,1362.87 857.752,1349.12 867.994,1333.64 878.236,1314.06 888.478,1289.37 898.72,1261.22 908.961,1231.93 919.203,1196.26 929.445,1125.62 939.687,985.7 949.929,1018.13 960.171,1081.04 970.413,1083.61 980.654,1067.21 990.896,1048.23 1001.14,1031.18 1011.38,1018.87 1021.62,1017.84 1031.86,1032.91 1042.11,1061.64 1052.35,1096.83 1062.59,1129.91 1072.83,1156.48 1083.07,1173.1 1093.31,1180.89 1103.56,1194.38 1113.8,1228.1 1124.04,1282.19 1134.28,1327.02 1144.52,1341.1 1154.77,1328.58 1165.01,1347.79 1175.25,1418.75 1185.49,1445.72 1195.73,1428.27 1205.98,1380.74 1216.22,1333.75 1226.46,1312.6 1236.7,1318.86 1246.94,1308.8 1257.18,1169.77 1267.43,857.896 1277.67,522.334 1287.91,347.962 1298.15,338.365 1308.39,365.064 1318.64,357.536 1328.88,347.948 1339.12,345.216 1349.36,325.924 1359.6,276.451 1369.84,248.91 1380.09,370.589 1390.33,505.577 1400.57,491.639 1410.81,396.613 1421.05,305.693 1431.3,272.291 1441.54,269.251 1451.78,315.445 1462.02,388.483 1472.26,422.701 1482.51,389.886 1492.75,315.25 1502.99,276.653 1513.23,295.876 1523.47,320.426 1533.71,335.053 1543.96,345.029 1554.2,359.007 1564.44,382.069 1574.68,399.067 1584.92,383.932 1595.17,318.236 1605.41,216.161 1615.65,182.85 1625.89,239.366 1636.13,294.945 1646.38,334.073 1656.62,361.66 1666.86,380.107 1677.1,390.446 1687.34,393.392 1697.58,389.455 1707.83,378.721 1718.07,360.316 1728.31,331.419 1738.55,286.12 1748.79,223.03 1759.04,191.848 1769.28,259.878 1779.52,356.269 1789.76,421.023 1800,443.585 1810.24,431.024 1820.49,398.389 1830.73,357.694 1840.97,315.622 1851.21,273.941 1861.45,226.05 1871.7,187.095 1881.94,257.919 1892.18,378.564 1902.42,453.15 1912.66,482.465 1922.91,477.236 1933.15,444.971 1943.39,392.227 1953.63,325.822 1963.87,253.786 1974.11,187.928 1984.36,149.356 1994.6,168.141 2004.84,254.519 2015.08,371.867 2025.32,470.733 2035.57,523.234 2045.81,521.224 2056.05,469.087 2066.29,381.484 2076.53,281.393 2086.77,195.584 2097.02,147.067 2107.26,147.129 2117.5,193.359 2127.74,273.812 2137.98,371.328 2148.23,465.133 2158.47,532.309 2168.71,552.146 2178.95,510.77 2189.19,400.471 2199.44,231.822 2209.68,141.949 2219.92,181.11 2230.16,227.179 2240.4,272.73 2250.64,324.097 2260.89,379.884 2271.13,437.061 2281.37,493.468 2291.61,548.108 "/>
<polyline clip-path="url(#clip642)" style="stroke:#e26f46; stroke-linecap:round; stroke-linejoin:round; stroke-width:4; stroke-opacity:1; fill:none" points="253.483,1072.75 263.725,1054.15 273.966,1040.43 284.208,1032.05 294.45,1029.28 304.692,1032.2 314.934,1040.73 325.176,1054.58 335.418,1073.3 345.659,1096.29 355.901,1122.78 366.143,1151.92 376.385,1182.76 386.627,1214.29 396.869,1245.47 407.111,1275.3 417.352,1302.79 427.594,1327.06 437.836,1347.31 448.078,1362.87 458.32,1373.25 468.562,1378.1 478.803,1377.26 489.045,1370.76 499.287,1358.81 509.529,1341.81 519.771,1320.31 530.013,1295 540.255,1266.72 550.497,1236.39 560.738,1205 570.98,1173.57 581.222,1143.13 591.464,1114.67 601.706,1089.12 611.948,1067.32 622.19,1049.97 632.431,1037.65 642.673,1030.75 652.915,1029.5 663.157,1033.95 673.399,1043.93 683.641,1059.14 693.882,1079.07 704.124,1103.07 714.366,1130.37 724.608,1160.06 734.85,1191.18 745.092,1222.72 755.334,1253.64 765.575,1282.93 775.817,1309.65 786.059,1332.91 796.301,1351.96 806.543,1366.18 816.785,1375.1 827.027,1378.43 837.268,1376.07 847.51,1368.08 857.752,1354.73 867.994,1336.46 878.236,1313.87 888.478,1287.68 898.72,1258.76 908.961,1228.04 919.203,1196.54 929.445,1165.27 939.687,1135.27 949.929,1107.5 960.171,1082.88 970.413,1062.21 980.654,1046.16 990.896,1035.26 1001.14,1029.86 1011.38,1030.14 1021.62,1036.09 1031.86,1047.51 1042.11,1064.04 1052.35,1085.13 1062.59,1110.1 1072.83,1138.13 1083.07,1168.3 1093.31,1199.63 1103.56,1231.11 1113.8,1261.69 1124.04,1290.38 1134.28,1316.25 1144.52,1338.46 1154.77,1356.27 1165.01,1369.11 1175.25,1376.55 1185.49,1378.36 1195.73,1374.47 1205.98,1365.01 1216.22,1350.3 1226.46,1330.81 1236.7,1307.17 1246.94,1280.16 1257.18,1250.66 1267.43,1219.64 1277.67,329.66 1287.91,328.217 1298.15,329.53 1308.39,333.901 1318.64,339.991 1328.88,345.226 1339.12,346.776 1349.36,342.748 1359.6,333.146 1369.84,320.201 1380.09,307.883 1390.33,300.687 1400.57,302.067 1410.81,313.047 1421.05,331.514 1431.3,352.531 1441.54,369.646 1451.78,376.866 1462.02,370.686 1472.26,351.511 1482.51,323.93 1492.75,295.665 1502.99,275.407 1513.23,270.159 1523.47,282.881 1533.71,311.224 1543.96,347.828 1554.2,382.213 1564.44,403.778 1574.68,405.055 1584.92,384.221 1595.17,346.038 1605.41,300.84 1615.65,261.744 1625.89,240.844 1636.13,245.491 1646.38,275.791 1656.62,324.163 1666.86,377.191 1677.1,419.343 1687.34,437.516 1697.58,425.088 1707.83,384.223 1718.07,325.652 1728.31,265.881 1738.55,222.542 1748.79,209.195 1759.04,231.112 1769.28,283.351 1779.52,351.785 1789.76,416.909 1800,459.396 1810.24,465.832 1820.49,432.911 1830.73,368.807 1840.97,291.195 1851.21,222.386 1861.45,182.911 1871.7,185.406 1881.94,230.61 1892.18,306.73 1902.42,392.492 1912.66,463.075 1922.91,497.301 1933.15,483.973 1943.39,425.487 1953.63,337.554 1963.87,244.999 1974.11,174.759 1984.36,148.04 1994.6,173.933 2004.84,246.391 2015.08,345.573 2025.32,443.256 2035.57,510.872 2045.81,527.856 2056.05,487.882 2066.29,401.101 2076.53,291.6 2086.77,190.733 2097.02,128.136 2107.26,123.03 2117.5,178.339 2127.74,279.433 2137.98,397.968 2148.23,499.83 2158.47,554.949 2168.71,546.173 2178.95,474.574 2189.19,359.553 2199.44,233.608 2209.68,133.149 2219.92,87.9763 2230.16,112.448 2240.4,200.957 2250.64,329.135 2260.89,460.546 2271.13,557.047 2281.37,589.85 2291.61,548.108 "/>
<path clip-path="url(#clip640)" d="M264.353 250.738 L707.222 250.738 L707.222 95.2176 L264.353 95.2176  Z" fill="#ffffff" fill-rule="evenodd" fill-opacity="1"/>
<polyline clip-path="url(#clip640)" style="stroke:#000000; stroke-linecap:round; stroke-linejoin:round; stroke-width:4; stroke-opacity:1; fill:none" points="264.353,250.738 707.222,250.738 707.222,95.2176 264.353,95.2176 264.353,250.738 "/>
<polyline clip-path="url(#clip640)" style="stroke:#009af9; stroke-linecap:round; stroke-linejoin:round; stroke-width:16; stroke-opacity:1; fill:none" stroke-dasharray="8, 16" points="288.357,147.058 432.385,147.058 "/>
<path clip-path="url(#clip640)" d="M461.066 133.62 L461.066 146.606 L466.945 146.606 Q470.209 146.606 471.992 144.916 Q473.774 143.227 473.774 140.102 Q473.774 137 471.992 135.31 Q470.209 133.62 466.945 133.62 L461.066 133.62 M456.39 129.778 L466.945 129.778 Q472.755 129.778 475.718 132.416 Q478.704 135.032 478.704 140.102 Q478.704 145.217 475.718 147.833 Q472.755 150.449 466.945 150.449 L461.066 150.449 L461.066 164.338 L456.39 164.338 L456.39 129.778 Z" fill="#000000" fill-rule="nonzero" fill-opacity="1" /><path clip-path="url(#clip640)" d="M498.982 142.393 Q498.265 141.977 497.408 141.791 Q496.575 141.583 495.556 141.583 Q491.945 141.583 490.001 143.944 Q488.079 146.282 488.079 150.68 L488.079 164.338 L483.797 164.338 L483.797 138.412 L488.079 138.412 L488.079 142.44 Q489.422 140.078 491.575 138.944 Q493.728 137.787 496.806 137.787 Q497.246 137.787 497.778 137.856 Q498.311 137.903 498.959 138.018 L498.982 142.393 Z" fill="#000000" fill-rule="nonzero" fill-opacity="1" /><path clip-path="url(#clip640)" d="M524.584 150.31 L524.584 152.393 L505.001 152.393 Q505.278 156.791 507.639 159.106 Q510.024 161.398 514.26 161.398 Q516.714 161.398 519.005 160.796 Q521.32 160.194 523.588 158.99 L523.588 163.018 Q521.297 163.99 518.889 164.5 Q516.482 165.009 514.005 165.009 Q507.802 165.009 504.167 161.398 Q500.556 157.787 500.556 151.629 Q500.556 145.264 503.982 141.537 Q507.431 137.787 513.264 137.787 Q518.496 137.787 521.528 141.166 Q524.584 144.523 524.584 150.31 M520.325 149.06 Q520.278 145.565 518.357 143.481 Q516.459 141.398 513.311 141.398 Q509.746 141.398 507.593 143.412 Q505.464 145.426 505.14 149.083 L520.325 149.06 Z" fill="#000000" fill-rule="nonzero" fill-opacity="1" /><path clip-path="url(#clip640)" d="M548.635 142.347 L548.635 128.319 L552.894 128.319 L552.894 164.338 L548.635 164.338 L548.635 160.449 Q547.292 162.763 545.232 163.898 Q543.195 165.009 540.325 165.009 Q535.625 165.009 532.663 161.259 Q529.723 157.509 529.723 151.398 Q529.723 145.287 532.663 141.537 Q535.625 137.787 540.325 137.787 Q543.195 137.787 545.232 138.921 Q547.292 140.032 548.635 142.347 M534.121 151.398 Q534.121 156.097 536.042 158.782 Q537.987 161.444 541.366 161.444 Q544.746 161.444 546.69 158.782 Q548.635 156.097 548.635 151.398 Q548.635 146.699 546.69 144.037 Q544.746 141.352 541.366 141.352 Q537.987 141.352 536.042 144.037 Q534.121 146.699 534.121 151.398 Z" fill="#000000" fill-rule="nonzero" fill-opacity="1" /><path clip-path="url(#clip640)" d="M561.667 138.412 L565.926 138.412 L565.926 164.338 L561.667 164.338 L561.667 138.412 M561.667 128.319 L565.926 128.319 L565.926 133.713 L561.667 133.713 L561.667 128.319 Z" fill="#000000" fill-rule="nonzero" fill-opacity="1" /><path clip-path="url(#clip640)" d="M593.496 139.407 L593.496 143.389 Q591.69 142.393 589.861 141.907 Q588.056 141.398 586.204 141.398 Q582.06 141.398 579.769 144.037 Q577.477 146.652 577.477 151.398 Q577.477 156.143 579.769 158.782 Q582.06 161.398 586.204 161.398 Q588.056 161.398 589.861 160.912 Q591.69 160.402 593.496 159.407 L593.496 163.342 Q591.713 164.176 589.792 164.592 Q587.894 165.009 585.741 165.009 Q579.884 165.009 576.435 161.328 Q572.986 157.648 572.986 151.398 Q572.986 145.055 576.459 141.421 Q579.954 137.787 586.019 137.787 Q587.986 137.787 589.861 138.203 Q591.736 138.597 593.496 139.407 Z" fill="#000000" fill-rule="nonzero" fill-opacity="1" /><path clip-path="url(#clip640)" d="M605.116 131.051 L605.116 138.412 L613.889 138.412 L613.889 141.722 L605.116 141.722 L605.116 155.796 Q605.116 158.967 605.972 159.87 Q606.852 160.773 609.514 160.773 L613.889 160.773 L613.889 164.338 L609.514 164.338 Q604.583 164.338 602.708 162.509 Q600.833 160.657 600.833 155.796 L600.833 141.722 L597.708 141.722 L597.708 138.412 L600.833 138.412 L600.833 131.051 L605.116 131.051 Z" fill="#000000" fill-rule="nonzero" fill-opacity="1" /><path clip-path="url(#clip640)" d="M619.491 138.412 L623.75 138.412 L623.75 164.338 L619.491 164.338 L619.491 138.412 M619.491 128.319 L623.75 128.319 L623.75 133.713 L619.491 133.713 L619.491 128.319 Z" fill="#000000" fill-rule="nonzero" fill-opacity="1" /><path clip-path="url(#clip640)" d="M642.708 141.398 Q639.282 141.398 637.292 144.083 Q635.301 146.745 635.301 151.398 Q635.301 156.051 637.268 158.736 Q639.259 161.398 642.708 161.398 Q646.111 161.398 648.102 158.713 Q650.092 156.027 650.092 151.398 Q650.092 146.791 648.102 144.106 Q646.111 141.398 642.708 141.398 M642.708 137.787 Q648.264 137.787 651.435 141.398 Q654.606 145.009 654.606 151.398 Q654.606 157.764 651.435 161.398 Q648.264 165.009 642.708 165.009 Q637.13 165.009 633.958 161.398 Q630.81 157.764 630.81 151.398 Q630.81 145.009 633.958 141.398 Q637.13 137.787 642.708 137.787 Z" fill="#000000" fill-rule="nonzero" fill-opacity="1" /><path clip-path="url(#clip640)" d="M683.217 148.689 L683.217 164.338 L678.958 164.338 L678.958 148.828 Q678.958 145.148 677.523 143.319 Q676.088 141.49 673.217 141.49 Q669.768 141.49 667.778 143.69 Q665.787 145.889 665.787 149.685 L665.787 164.338 L661.504 164.338 L661.504 138.412 L665.787 138.412 L665.787 142.44 Q667.315 140.102 669.375 138.944 Q671.458 137.787 674.166 137.787 Q678.634 137.787 680.926 140.565 Q683.217 143.319 683.217 148.689 Z" fill="#000000" fill-rule="nonzero" fill-opacity="1" /><polyline clip-path="url(#clip640)" style="stroke:#e26f46; stroke-linecap:round; stroke-linejoin:round; stroke-width:4; stroke-opacity:1; fill:none" points="288.357,198.898 432.385,198.898 "/>
<path clip-path="url(#clip640)" d="M456.39 181.618 L478.242 181.618 L478.242 185.553 L461.066 185.553 L461.066 195.784 L477.524 195.784 L477.524 199.719 L461.066 199.719 L461.066 212.242 L478.658 212.242 L478.658 216.178 L456.39 216.178 L456.39 181.618 Z" fill="#000000" fill-rule="nonzero" fill-opacity="1" /><path clip-path="url(#clip640)" d="M507.709 190.252 L498.334 202.867 L508.195 216.178 L503.172 216.178 L495.626 205.992 L488.079 216.178 L483.056 216.178 L493.126 202.613 L483.913 190.252 L488.936 190.252 L495.811 199.488 L502.686 190.252 L507.709 190.252 Z" fill="#000000" fill-rule="nonzero" fill-opacity="1" /><path clip-path="url(#clip640)" d="M525.996 203.145 Q520.834 203.145 518.843 204.326 Q516.852 205.506 516.852 208.354 Q516.852 210.622 518.334 211.965 Q519.838 213.284 522.408 213.284 Q525.95 213.284 528.079 210.784 Q530.232 208.261 530.232 204.094 L530.232 203.145 L525.996 203.145 M534.491 201.386 L534.491 216.178 L530.232 216.178 L530.232 212.242 Q528.774 214.603 526.598 215.738 Q524.422 216.849 521.274 216.849 Q517.292 216.849 514.931 214.627 Q512.593 212.381 512.593 208.631 Q512.593 204.256 515.51 202.034 Q518.45 199.812 524.26 199.812 L530.232 199.812 L530.232 199.395 Q530.232 196.455 528.288 194.858 Q526.366 193.238 522.871 193.238 Q520.649 193.238 518.542 193.77 Q516.436 194.303 514.491 195.367 L514.491 191.432 Q516.829 190.53 519.028 190.09 Q521.227 189.627 523.311 189.627 Q528.936 189.627 531.713 192.543 Q534.491 195.46 534.491 201.386 Z" fill="#000000" fill-rule="nonzero" fill-opacity="1" /><path clip-path="url(#clip640)" d="M561.922 191.247 L561.922 195.229 Q560.116 194.233 558.287 193.747 Q556.482 193.238 554.63 193.238 Q550.486 193.238 548.195 195.877 Q545.903 198.492 545.903 203.238 Q545.903 207.983 548.195 210.622 Q550.486 213.238 554.63 213.238 Q556.482 213.238 558.287 212.752 Q560.116 212.242 561.922 211.247 L561.922 215.182 Q560.139 216.016 558.218 216.432 Q556.32 216.849 554.167 216.849 Q548.311 216.849 544.862 213.168 Q541.412 209.488 541.412 203.238 Q541.412 196.895 544.885 193.261 Q548.38 189.627 554.445 189.627 Q556.412 189.627 558.287 190.043 Q560.162 190.437 561.922 191.247 Z" fill="#000000" fill-rule="nonzero" fill-opacity="1" /><path clip-path="url(#clip640)" d="M573.542 182.891 L573.542 190.252 L582.315 190.252 L582.315 193.562 L573.542 193.562 L573.542 207.636 Q573.542 210.807 574.398 211.71 Q575.278 212.613 577.94 212.613 L582.315 212.613 L582.315 216.178 L577.94 216.178 Q573.01 216.178 571.135 214.349 Q569.26 212.497 569.26 207.636 L569.26 193.562 L566.135 193.562 L566.135 190.252 L569.26 190.252 L569.26 182.891 L573.542 182.891 Z" fill="#000000" fill-rule="nonzero" fill-opacity="1" /></svg>
