<?xml version="1.0" encoding="utf-8"?>
<svg xmlns="http://www.w3.org/2000/svg" xmlns:xlink="http://www.w3.org/1999/xlink" width="600" height="400" viewBox="0 0 2400 1600">
<defs>
  <clipPath id="clip750">
    <rect x="0" y="0" width="2400" height="1600"/>
  </clipPath>
</defs>
<path clip-path="url(#clip750)" d="M0 1600 L2400 1600 L2400 0 L0 0  Z" fill="#ffffff" fill-rule="evenodd" fill-opacity="1"/>
<defs>
  <clipPath id="clip751">
    <rect x="480" y="0" width="1681" height="1600"/>
  </clipPath>
</defs>
<path clip-path="url(#clip750)" d="M192.339 1486.45 L2352.76 1486.45 L2352.76 47.2441 L192.339 47.2441  Z" fill="#ffffff" fill-rule="evenodd" fill-opacity="1"/>
<defs>
  <clipPath id="clip752">
    <rect x="192" y="47" width="2161" height="1440"/>
  </clipPath>
</defs>
<polyline clip-path="url(#clip752)" style="stroke:#000000; stroke-linecap:round; stroke-linejoin:round; stroke-width:2; stroke-opacity:0.1; fill:none" points="253.483,1486.45 253.483,47.2441 "/>
<polyline clip-path="url(#clip752)" style="stroke:#000000; stroke-linecap:round; stroke-linejoin:round; stroke-width:2; stroke-opacity:0.1; fill:none" points="763.015,1486.45 763.015,47.2441 "/>
<polyline clip-path="url(#clip752)" style="stroke:#000000; stroke-linecap:round; stroke-linejoin:round; stroke-width:2; stroke-opacity:0.1; fill:none" points="1272.55,1486.45 1272.55,47.2441 "/>
<polyline clip-path="url(#clip752)" style="stroke:#000000; stroke-linecap:round; stroke-linejoin:round; stroke-width:2; stroke-opacity:0.1; fill:none" points="1782.08,1486.45 1782.08,47.2441 "/>
<polyline clip-path="url(#clip752)" style="stroke:#000000; stroke-linecap:round; stroke-linejoin:round; stroke-width:2; stroke-opacity:0.1; fill:none" points="2291.61,1486.45 2291.61,47.2441 "/>
<polyline clip-path="url(#clip750)" style="stroke:#000000; stroke-linecap:round; stroke-linejoin:round; stroke-width:4; stroke-opacity:1; fill:none" points="192.339,1486.45 2352.76,1486.45 "/>
<polyline clip-path="url(#clip750)" style="stroke:#000000; stroke-linecap:round; stroke-linejoin:round; stroke-width:4; stroke-opacity:1; fill:none" points="253.483,1486.45 253.483,1467.55 "/>
<polyline clip-path="url(#clip750)" style="stroke:#000000; stroke-linecap:round; stroke-linejoin:round; stroke-width:4; stroke-opacity:1; fill:none" points="763.015,1486.45 763.015,1467.55 "/>
<polyline clip-path="url(#clip750)" style="stroke:#000000; stroke-linecap:round; stroke-linejoin:round; stroke-width:4; stroke-opacity:1; fill:none" points="1272.55,1486.45 1272.55,1467.55 "/>
<polyline clip-path="url(#clip750)" style="stroke:#000000; stroke-linecap:round; stroke-linejoin:round; stroke-width:4; stroke-opacity:1; fill:none" points="1782.08,1486.45 1782.08,1467.55 "/>
<polyline clip-path="url(#clip750)" style="stroke:#000000; stroke-linecap:round; stroke-linejoin:round; stroke-width:4; stroke-opacity:1; fill:none" points="2291.61,1486.45 2291.61,1467.55 "/>
<path clip-path="url(#clip750)" d="M200.011 1532.02 L229.686 1532.02 L229.686 1535.95 L200.011 1535.95 L200.011 1532.02 Z" fill="#000000" fill-rule="nonzero" fill-opacity="1" /><path clip-path="url(#clip750)" d="M240.589 1544.91 L248.228 1544.91 L248.228 1518.55 L239.918 1520.21 L239.918 1515.95 L248.182 1514.29 L252.858 1514.29 L252.858 1544.91 L260.497 1544.91 L260.497 1548.85 L240.589 1548.85 L240.589 1544.91 Z" fill="#000000" fill-rule="nonzero" fill-opacity="1" /><path clip-path="url(#clip750)" d="M269.941 1542.97 L274.825 1542.97 L274.825 1548.85 L269.941 1548.85 L269.941 1542.97 Z" fill="#000000" fill-rule="nonzero" fill-opacity="1" /><path clip-path="url(#clip750)" d="M295.01 1517.37 Q291.399 1517.37 289.57 1520.93 Q287.765 1524.47 287.765 1531.6 Q287.765 1538.71 289.57 1542.27 Q291.399 1545.82 295.01 1545.82 Q298.644 1545.82 300.45 1542.27 Q302.279 1538.71 302.279 1531.6 Q302.279 1524.47 300.45 1520.93 Q298.644 1517.37 295.01 1517.37 M295.01 1513.66 Q300.82 1513.66 303.876 1518.27 Q306.955 1522.85 306.955 1531.6 Q306.955 1540.33 303.876 1544.94 Q300.82 1549.52 295.01 1549.52 Q289.2 1549.52 286.121 1544.94 Q283.066 1540.33 283.066 1531.6 Q283.066 1522.85 286.121 1518.27 Q289.2 1513.66 295.01 1513.66 Z" fill="#000000" fill-rule="nonzero" fill-opacity="1" /><path clip-path="url(#clip750)" d="M710.041 1532.02 L739.717 1532.02 L739.717 1535.95 L710.041 1535.95 L710.041 1532.02 Z" fill="#000000" fill-rule="nonzero" fill-opacity="1" /><path clip-path="url(#clip750)" d="M759.809 1517.37 Q756.198 1517.37 754.369 1520.93 Q752.564 1524.47 752.564 1531.6 Q752.564 1538.71 754.369 1542.27 Q756.198 1545.82 759.809 1545.82 Q763.443 1545.82 765.249 1542.27 Q767.077 1538.71 767.077 1531.6 Q767.077 1524.47 765.249 1520.93 Q763.443 1517.37 759.809 1517.37 M759.809 1513.66 Q765.619 1513.66 768.675 1518.27 Q771.753 1522.85 771.753 1531.6 Q771.753 1540.33 768.675 1544.94 Q765.619 1549.52 759.809 1549.52 Q753.999 1549.52 750.92 1544.94 Q747.865 1540.33 747.865 1531.6 Q747.865 1522.85 750.92 1518.27 Q753.999 1513.66 759.809 1513.66 Z" fill="#000000" fill-rule="nonzero" fill-opacity="1" /><path clip-path="url(#clip750)" d="M779.971 1542.97 L784.855 1542.97 L784.855 1548.85 L779.971 1548.85 L779.971 1542.97 Z" fill="#000000" fill-rule="nonzero" fill-opacity="1" /><path clip-path="url(#clip750)" d="M795.087 1514.29 L813.443 1514.29 L813.443 1518.22 L799.369 1518.22 L799.369 1526.7 Q800.387 1526.35 801.406 1526.19 Q802.425 1526 803.443 1526 Q809.23 1526 812.61 1529.17 Q815.989 1532.34 815.989 1537.76 Q815.989 1543.34 812.517 1546.44 Q809.045 1549.52 802.725 1549.52 Q800.55 1549.52 798.281 1549.15 Q796.036 1548.78 793.628 1548.04 L793.628 1543.34 Q795.712 1544.47 797.934 1545.03 Q800.156 1545.58 802.633 1545.58 Q806.637 1545.58 808.975 1543.48 Q811.313 1541.37 811.313 1537.76 Q811.313 1534.15 808.975 1532.04 Q806.637 1529.94 802.633 1529.94 Q800.758 1529.94 798.883 1530.35 Q797.031 1530.77 795.087 1531.65 L795.087 1514.29 Z" fill="#000000" fill-rule="nonzero" fill-opacity="1" /><path clip-path="url(#clip750)" d="M1249.93 1517.37 Q1246.32 1517.37 1244.49 1520.93 Q1242.69 1524.47 1242.69 1531.6 Q1242.69 1538.71 1244.49 1542.27 Q1246.32 1545.82 1249.93 1545.82 Q1253.57 1545.82 1255.37 1542.27 Q1257.2 1538.71 1257.2 1531.6 Q1257.2 1524.47 1255.37 1520.93 Q1253.57 1517.37 1249.93 1517.37 M1249.93 1513.66 Q1255.74 1513.66 1258.8 1518.27 Q1261.88 1522.85 1261.88 1531.6 Q1261.88 1540.33 1258.8 1544.94 Q1255.74 1549.52 1249.93 1549.52 Q1244.12 1549.52 1241.04 1544.94 Q1237.99 1540.33 1237.99 1531.6 Q1237.99 1522.85 1241.04 1518.27 Q1244.12 1513.66 1249.93 1513.66 Z" fill="#000000" fill-rule="nonzero" fill-opacity="1" /><path clip-path="url(#clip750)" d="M1270.09 1542.97 L1274.98 1542.97 L1274.98 1548.85 L1270.09 1548.85 L1270.09 1542.97 Z" fill="#000000" fill-rule="nonzero" fill-opacity="1" /><path clip-path="url(#clip750)" d="M1295.16 1517.37 Q1291.55 1517.37 1289.72 1520.93 Q1287.92 1524.47 1287.92 1531.6 Q1287.92 1538.71 1289.72 1542.27 Q1291.55 1545.82 1295.16 1545.82 Q1298.8 1545.82 1300.6 1542.27 Q1302.43 1538.71 1302.43 1531.6 Q1302.43 1524.47 1300.6 1520.93 Q1298.8 1517.37 1295.16 1517.37 M1295.16 1513.66 Q1300.97 1513.66 1304.03 1518.27 Q1307.11 1522.85 1307.11 1531.6 Q1307.11 1540.33 1304.03 1544.94 Q1300.97 1549.52 1295.16 1549.52 Q1289.35 1549.52 1286.27 1544.94 Q1283.22 1540.33 1283.22 1531.6 Q1283.22 1522.85 1286.27 1518.27 Q1289.35 1513.66 1295.16 1513.66 Z" fill="#000000" fill-rule="nonzero" fill-opacity="1" /><path clip-path="url(#clip750)" d="M1759.96 1517.37 Q1756.35 1517.37 1754.52 1520.93 Q1752.72 1524.47 1752.72 1531.6 Q1752.72 1538.71 1754.52 1542.27 Q1756.35 1545.82 1759.96 1545.82 Q1763.6 1545.82 1765.4 1542.27 Q1767.23 1538.71 1767.23 1531.6 Q1767.23 1524.47 1765.4 1520.93 Q1763.6 1517.37 1759.96 1517.37 M1759.96 1513.66 Q1765.77 1513.66 1768.83 1518.27 Q1771.91 1522.85 1771.91 1531.6 Q1771.91 1540.33 1768.83 1544.94 Q1765.77 1549.52 1759.96 1549.52 Q1754.15 1549.52 1751.07 1544.94 Q1748.02 1540.33 1748.02 1531.6 Q1748.02 1522.85 1751.07 1518.27 Q1754.15 1513.66 1759.96 1513.66 Z" fill="#000000" fill-rule="nonzero" fill-opacity="1" /><path clip-path="url(#clip750)" d="M1780.12 1542.97 L1785.01 1542.97 L1785.01 1548.85 L1780.12 1548.85 L1780.12 1542.97 Z" fill="#000000" fill-rule="nonzero" fill-opacity="1" /><path clip-path="url(#clip750)" d="M1795.24 1514.29 L1813.6 1514.29 L1813.6 1518.22 L1799.52 1518.22 L1799.52 1526.7 Q1800.54 1526.35 1801.56 1526.19 Q1802.58 1526 1803.6 1526 Q1809.38 1526 1812.76 1529.17 Q1816.14 1532.34 1816.14 1537.76 Q1816.14 1543.34 1812.67 1546.44 Q1809.2 1549.52 1802.88 1549.52 Q1800.7 1549.52 1798.43 1549.15 Q1796.19 1548.78 1793.78 1548.04 L1793.78 1543.34 Q1795.86 1544.47 1798.09 1545.03 Q1800.31 1545.58 1802.79 1545.58 Q1806.79 1545.58 1809.13 1543.48 Q1811.47 1541.37 1811.47 1537.76 Q1811.47 1534.15 1809.13 1532.04 Q1806.79 1529.94 1802.79 1529.94 Q1800.91 1529.94 1799.04 1530.35 Q1797.18 1530.77 1795.24 1531.65 L1795.24 1514.29 Z" fill="#000000" fill-rule="nonzero" fill-opacity="1" /><path clip-path="url(#clip750)" d="M2258.76 1544.91 L2266.4 1544.91 L2266.4 1518.55 L2258.09 1520.21 L2258.09 1515.95 L2266.36 1514.29 L2271.03 1514.29 L2271.03 1544.91 L2278.67 1544.91 L2278.67 1548.85 L2258.76 1548.85 L2258.76 1544.91 Z" fill="#000000" fill-rule="nonzero" fill-opacity="1" /><path clip-path="url(#clip750)" d="M2288.12 1542.97 L2293 1542.97 L2293 1548.85 L2288.12 1548.85 L2288.12 1542.97 Z" fill="#000000" fill-rule="nonzero" fill-opacity="1" /><path clip-path="url(#clip750)" d="M2313.19 1517.37 Q2309.57 1517.37 2307.75 1520.93 Q2305.94 1524.47 2305.94 1531.6 Q2305.94 1538.71 2307.75 1542.27 Q2309.57 1545.82 2313.19 1545.82 Q2316.82 1545.82 2318.63 1542.27 Q2320.45 1538.71 2320.45 1531.6 Q2320.45 1524.47 2318.63 1520.93 Q2316.82 1517.37 2313.19 1517.37 M2313.19 1513.66 Q2319 1513.66 2322.05 1518.27 Q2325.13 1522.85 2325.13 1531.6 Q2325.13 1540.33 2322.05 1544.94 Q2319 1549.52 2313.19 1549.52 Q2307.38 1549.52 2304.3 1544.94 Q2301.24 1540.33 2301.24 1531.6 Q2301.24 1522.85 2304.3 1518.27 Q2307.38 1513.66 2313.19 1513.66 Z" fill="#000000" fill-rule="nonzero" fill-opacity="1" /><polyline clip-path="url(#clip752)" style="stroke:#000000; stroke-linecap:round; stroke-linejoin:round; stroke-width:2; stroke-opacity:0.1; fill:none" points="192.339,1384.17 2352.76,1384.17 "/>
<polyline clip-path="url(#clip752)" style="stroke:#000000; stroke-linecap:round; stroke-linejoin:round; stroke-width:2; stroke-opacity:0.1; fill:none" points="192.339,1208.81 2352.76,1208.81 "/>
<polyline clip-path="url(#clip752)" style="stroke:#000000; stroke-linecap:round; stroke-linejoin:round; stroke-width:2; stroke-opacity:0.1; fill:none" points="192.339,1033.45 2352.76,1033.45 "/>
<polyline clip-path="url(#clip752)" style="stroke:#000000; stroke-linecap:round; stroke-linejoin:round; stroke-width:2; stroke-opacity:0.1; fill:none" points="192.339,858.087 2352.76,858.087 "/>
<polyline clip-path="url(#clip752)" style="stroke:#000000; stroke-linecap:round; stroke-linejoin:round; stroke-width:2; stroke-opacity:0.1; fill:none" points="192.339,682.726 2352.76,682.726 "/>
<polyline clip-path="url(#clip752)" style="stroke:#000000; stroke-linecap:round; stroke-linejoin:round; stroke-width:2; stroke-opacity:0.1; fill:none" points="192.339,507.365 2352.76,507.365 "/>
<polyline clip-path="url(#clip752)" style="stroke:#000000; stroke-linecap:round; stroke-linejoin:round; stroke-width:2; stroke-opacity:0.1; fill:none" points="192.339,332.004 2352.76,332.004 "/>
<polyline clip-path="url(#clip752)" style="stroke:#000000; stroke-linecap:round; stroke-linejoin:round; stroke-width:2; stroke-opacity:0.1; fill:none" points="192.339,156.643 2352.76,156.643 "/>
<polyline clip-path="url(#clip750)" style="stroke:#000000; stroke-linecap:round; stroke-linejoin:round; stroke-width:4; stroke-opacity:1; fill:none" points="192.339,1486.45 192.339,47.2441 "/>
<polyline clip-path="url(#clip750)" style="stroke:#000000; stroke-linecap:round; stroke-linejoin:round; stroke-width:4; stroke-opacity:1; fill:none" points="192.339,1384.17 211.236,1384.17 "/>
<polyline clip-path="url(#clip750)" style="stroke:#000000; stroke-linecap:round; stroke-linejoin:round; stroke-width:4; stroke-opacity:1; fill:none" points="192.339,1208.81 211.236,1208.81 "/>
<polyline clip-path="url(#clip750)" style="stroke:#000000; stroke-linecap:round; stroke-linejoin:round; stroke-width:4; stroke-opacity:1; fill:none" points="192.339,1033.45 211.236,1033.45 "/>
<polyline clip-path="url(#clip750)" style="stroke:#000000; stroke-linecap:round; stroke-linejoin:round; stroke-width:4; stroke-opacity:1; fill:none" points="192.339,858.087 211.236,858.087 "/>
<polyline clip-path="url(#clip750)" style="stroke:#000000; stroke-linecap:round; stroke-linejoin:round; stroke-width:4; stroke-opacity:1; fill:none" points="192.339,682.726 211.236,682.726 "/>
<polyline clip-path="url(#clip750)" style="stroke:#000000; stroke-linecap:round; stroke-linejoin:round; stroke-width:4; stroke-opacity:1; fill:none" points="192.339,507.365 211.236,507.365 "/>
<polyline clip-path="url(#clip750)" style="stroke:#000000; stroke-linecap:round; stroke-linejoin:round; stroke-width:4; stroke-opacity:1; fill:none" points="192.339,332.004 211.236,332.004 "/>
<polyline clip-path="url(#clip750)" style="stroke:#000000; stroke-linecap:round; stroke-linejoin:round; stroke-width:4; stroke-opacity:1; fill:none" points="192.339,156.643 211.236,156.643 "/>
<path clip-path="url(#clip750)" d="M50.9921 1384.62 L80.6679 1384.62 L80.6679 1388.56 L50.9921 1388.56 L50.9921 1384.62 Z" fill="#000000" fill-rule="nonzero" fill-opacity="1" /><path clip-path="url(#clip750)" d="M100.76 1369.97 Q97.1493 1369.97 95.3206 1373.53 Q93.515 1377.08 93.515 1384.2 Q93.515 1391.31 95.3206 1394.88 Q97.1493 1398.42 100.76 1398.42 Q104.395 1398.42 106.2 1394.88 Q108.029 1391.31 108.029 1384.2 Q108.029 1377.08 106.2 1373.53 Q104.395 1369.97 100.76 1369.97 M100.76 1366.27 Q106.571 1366.27 109.626 1370.87 Q112.705 1375.45 112.705 1384.2 Q112.705 1392.93 109.626 1397.54 Q106.571 1402.12 100.76 1402.12 Q94.9502 1402.12 91.8715 1397.54 Q88.816 1392.93 88.816 1384.2 Q88.816 1375.45 91.8715 1370.87 Q94.9502 1366.27 100.76 1366.27 Z" fill="#000000" fill-rule="nonzero" fill-opacity="1" /><path clip-path="url(#clip750)" d="M120.922 1395.57 L125.807 1395.57 L125.807 1401.45 L120.922 1401.45 L120.922 1395.57 Z" fill="#000000" fill-rule="nonzero" fill-opacity="1" /><path clip-path="url(#clip750)" d="M140.019 1397.52 L156.339 1397.52 L156.339 1401.45 L134.394 1401.45 L134.394 1397.52 Q137.056 1394.76 141.64 1390.13 Q146.246 1385.48 147.427 1384.14 Q149.672 1381.61 150.552 1379.88 Q151.455 1378.12 151.455 1376.43 Q151.455 1373.67 149.51 1371.94 Q147.589 1370.2 144.487 1370.2 Q142.288 1370.2 139.834 1370.96 Q137.404 1371.73 134.626 1373.28 L134.626 1368.56 Q137.45 1367.42 139.904 1366.84 Q142.357 1366.27 144.394 1366.27 Q149.765 1366.27 152.959 1368.95 Q156.154 1371.64 156.154 1376.13 Q156.154 1378.26 155.343 1380.18 Q154.556 1382.08 152.45 1384.67 Q151.871 1385.34 148.769 1388.56 Q145.668 1391.75 140.019 1397.52 Z" fill="#000000" fill-rule="nonzero" fill-opacity="1" /><path clip-path="url(#clip750)" d="M99.1632 1194.61 Q95.5521 1194.61 93.7234 1198.17 Q91.9178 1201.71 91.9178 1208.84 Q91.9178 1215.95 93.7234 1219.52 Q95.5521 1223.06 99.1632 1223.06 Q102.797 1223.06 104.603 1219.52 Q106.432 1215.95 106.432 1208.84 Q106.432 1201.71 104.603 1198.17 Q102.797 1194.61 99.1632 1194.61 M99.1632 1190.9 Q104.973 1190.9 108.029 1195.51 Q111.108 1200.09 111.108 1208.84 Q111.108 1217.57 108.029 1222.18 Q104.973 1226.76 99.1632 1226.76 Q93.353 1226.76 90.2743 1222.18 Q87.2188 1217.57 87.2188 1208.84 Q87.2188 1200.09 90.2743 1195.51 Q93.353 1190.9 99.1632 1190.9 Z" fill="#000000" fill-rule="nonzero" fill-opacity="1" /><path clip-path="url(#clip750)" d="M119.325 1220.21 L124.209 1220.21 L124.209 1226.09 L119.325 1226.09 L119.325 1220.21 Z" fill="#000000" fill-rule="nonzero" fill-opacity="1" /><path clip-path="url(#clip750)" d="M144.394 1194.61 Q140.783 1194.61 138.955 1198.17 Q137.149 1201.71 137.149 1208.84 Q137.149 1215.95 138.955 1219.52 Q140.783 1223.06 144.394 1223.06 Q148.029 1223.06 149.834 1219.52 Q151.663 1215.95 151.663 1208.84 Q151.663 1201.71 149.834 1198.17 Q148.029 1194.61 144.394 1194.61 M144.394 1190.9 Q150.205 1190.9 153.26 1195.51 Q156.339 1200.09 156.339 1208.84 Q156.339 1217.57 153.26 1222.18 Q150.205 1226.76 144.394 1226.76 Q138.584 1226.76 135.506 1222.18 Q132.45 1217.57 132.45 1208.84 Q132.45 1200.09 135.506 1195.51 Q138.584 1190.9 144.394 1190.9 Z" fill="#000000" fill-rule="nonzero" fill-opacity="1" /><path clip-path="url(#clip750)" d="M100.76 1019.25 Q97.1493 1019.25 95.3206 1022.81 Q93.515 1026.35 93.515 1033.48 Q93.515 1040.59 95.3206 1044.15 Q97.1493 1047.7 100.76 1047.7 Q104.395 1047.7 106.2 1044.15 Q108.029 1040.59 108.029 1033.48 Q108.029 1026.35 106.2 1022.81 Q104.395 1019.25 100.76 1019.25 M100.76 1015.54 Q106.571 1015.54 109.626 1020.15 Q112.705 1024.73 112.705 1033.48 Q112.705 1042.21 109.626 1046.82 Q106.571 1051.4 100.76 1051.4 Q94.9502 1051.4 91.8715 1046.82 Q88.816 1042.21 88.816 1033.48 Q88.816 1024.73 91.8715 1020.15 Q94.9502 1015.54 100.76 1015.54 Z" fill="#000000" fill-rule="nonzero" fill-opacity="1" /><path clip-path="url(#clip750)" d="M120.922 1044.85 L125.807 1044.85 L125.807 1050.73 L120.922 1050.73 L120.922 1044.85 Z" fill="#000000" fill-rule="nonzero" fill-opacity="1" /><path clip-path="url(#clip750)" d="M140.019 1046.79 L156.339 1046.79 L156.339 1050.73 L134.394 1050.73 L134.394 1046.79 Q137.056 1044.04 141.64 1039.41 Q146.246 1034.76 147.427 1033.41 Q149.672 1030.89 150.552 1029.15 Q151.455 1027.39 151.455 1025.71 Q151.455 1022.95 149.51 1021.21 Q147.589 1019.48 144.487 1019.48 Q142.288 1019.48 139.834 1020.24 Q137.404 1021.01 134.626 1022.56 L134.626 1017.83 Q137.45 1016.7 139.904 1016.12 Q142.357 1015.54 144.394 1015.54 Q149.765 1015.54 152.959 1018.23 Q156.154 1020.91 156.154 1025.4 Q156.154 1027.53 155.343 1029.46 Q154.556 1031.35 152.45 1033.95 Q151.871 1034.62 148.769 1037.83 Q145.668 1041.03 140.019 1046.79 Z" fill="#000000" fill-rule="nonzero" fill-opacity="1" /><path clip-path="url(#clip750)" d="M98.6771 843.886 Q95.066 843.886 93.2373 847.451 Q91.4317 850.992 91.4317 858.122 Q91.4317 865.228 93.2373 868.793 Q95.066 872.335 98.6771 872.335 Q102.311 872.335 104.117 868.793 Q105.946 865.228 105.946 858.122 Q105.946 850.992 104.117 847.451 Q102.311 843.886 98.6771 843.886 M98.6771 840.182 Q104.487 840.182 107.543 844.789 Q110.621 849.372 110.621 858.122 Q110.621 866.849 107.543 871.455 Q104.487 876.038 98.6771 876.038 Q92.8669 876.038 89.7882 871.455 Q86.7327 866.849 86.7327 858.122 Q86.7327 849.372 89.7882 844.789 Q92.8669 840.182 98.6771 840.182 Z" fill="#000000" fill-rule="nonzero" fill-opacity="1" /><path clip-path="url(#clip750)" d="M118.839 869.488 L123.723 869.488 L123.723 875.367 L118.839 875.367 L118.839 869.488 Z" fill="#000000" fill-rule="nonzero" fill-opacity="1" /><path clip-path="url(#clip750)" d="M146.756 844.881 L134.95 863.33 L146.756 863.33 L146.756 844.881 M145.529 840.807 L151.408 840.807 L151.408 863.33 L156.339 863.33 L156.339 867.219 L151.408 867.219 L151.408 875.367 L146.756 875.367 L146.756 867.219 L131.154 867.219 L131.154 862.705 L145.529 840.807 Z" fill="#000000" fill-rule="nonzero" fill-opacity="1" /><path clip-path="url(#clip750)" d="M99.0011 668.525 Q95.39 668.525 93.5613 672.09 Q91.7558 675.631 91.7558 682.761 Q91.7558 689.867 93.5613 693.432 Q95.39 696.974 99.0011 696.974 Q102.635 696.974 104.441 693.432 Q106.27 689.867 106.27 682.761 Q106.27 675.631 104.441 672.09 Q102.635 668.525 99.0011 668.525 M99.0011 664.821 Q104.811 664.821 107.867 669.428 Q110.946 674.011 110.946 682.761 Q110.946 691.488 107.867 696.094 Q104.811 700.677 99.0011 700.677 Q93.191 700.677 90.1123 696.094 Q87.0567 691.488 87.0567 682.761 Q87.0567 674.011 90.1123 669.428 Q93.191 664.821 99.0011 664.821 Z" fill="#000000" fill-rule="nonzero" fill-opacity="1" /><path clip-path="url(#clip750)" d="M119.163 694.127 L124.047 694.127 L124.047 700.006 L119.163 700.006 L119.163 694.127 Z" fill="#000000" fill-rule="nonzero" fill-opacity="1" /><path clip-path="url(#clip750)" d="M144.811 680.863 Q141.663 680.863 139.811 683.016 Q137.982 685.168 137.982 688.918 Q137.982 692.645 139.811 694.821 Q141.663 696.974 144.811 696.974 Q147.959 696.974 149.788 694.821 Q151.64 692.645 151.64 688.918 Q151.64 685.168 149.788 683.016 Q147.959 680.863 144.811 680.863 M154.093 666.21 L154.093 670.469 Q152.334 669.636 150.529 669.196 Q148.746 668.756 146.987 668.756 Q142.357 668.756 139.904 671.881 Q137.473 675.006 137.126 681.326 Q138.492 679.312 140.552 678.247 Q142.612 677.159 145.089 677.159 Q150.297 677.159 153.306 680.33 Q156.339 683.479 156.339 688.918 Q156.339 694.242 153.191 697.46 Q150.043 700.677 144.811 700.677 Q138.816 700.677 135.644 696.094 Q132.473 691.488 132.473 682.761 Q132.473 674.567 136.362 669.705 Q140.251 664.821 146.802 664.821 Q148.561 664.821 150.343 665.168 Q152.149 665.516 154.093 666.21 Z" fill="#000000" fill-rule="nonzero" fill-opacity="1" /><path clip-path="url(#clip750)" d="M99.2558 493.164 Q95.6447 493.164 93.816 496.729 Q92.0104 500.27 92.0104 507.4 Q92.0104 514.506 93.816 518.071 Q95.6447 521.613 99.2558 521.613 Q102.89 521.613 104.696 518.071 Q106.524 514.506 106.524 507.4 Q106.524 500.27 104.696 496.729 Q102.89 493.164 99.2558 493.164 M99.2558 489.46 Q105.066 489.46 108.121 494.067 Q111.2 498.65 111.2 507.4 Q111.2 516.127 108.121 520.733 Q105.066 525.316 99.2558 525.316 Q93.4456 525.316 90.3669 520.733 Q87.3114 516.127 87.3114 507.4 Q87.3114 498.65 90.3669 494.067 Q93.4456 489.46 99.2558 489.46 Z" fill="#000000" fill-rule="nonzero" fill-opacity="1" /><path clip-path="url(#clip750)" d="M119.418 518.766 L124.302 518.766 L124.302 524.645 L119.418 524.645 L119.418 518.766 Z" fill="#000000" fill-rule="nonzero" fill-opacity="1" /><path clip-path="url(#clip750)" d="M144.487 508.233 Q141.154 508.233 139.232 510.016 Q137.334 511.798 137.334 514.923 Q137.334 518.048 139.232 519.83 Q141.154 521.613 144.487 521.613 Q147.82 521.613 149.742 519.83 Q151.663 518.025 151.663 514.923 Q151.663 511.798 149.742 510.016 Q147.843 508.233 144.487 508.233 M139.811 506.243 Q136.802 505.502 135.112 503.442 Q133.445 501.381 133.445 498.418 Q133.445 494.275 136.385 491.868 Q139.348 489.46 144.487 489.46 Q149.649 489.46 152.589 491.868 Q155.529 494.275 155.529 498.418 Q155.529 501.381 153.839 503.442 Q152.172 505.502 149.186 506.243 Q152.566 507.03 154.441 509.321 Q156.339 511.613 156.339 514.923 Q156.339 519.946 153.26 522.631 Q150.205 525.316 144.487 525.316 Q138.769 525.316 135.691 522.631 Q132.635 519.946 132.635 514.923 Q132.635 511.613 134.533 509.321 Q136.431 507.03 139.811 506.243 M138.098 498.858 Q138.098 501.543 139.765 503.048 Q141.455 504.553 144.487 504.553 Q147.496 504.553 149.186 503.048 Q150.899 501.543 150.899 498.858 Q150.899 496.173 149.186 494.669 Q147.496 493.164 144.487 493.164 Q141.455 493.164 139.765 494.669 Q138.098 496.173 138.098 498.858 Z" fill="#000000" fill-rule="nonzero" fill-opacity="1" /><path clip-path="url(#clip750)" d="M89.9734 345.349 L97.6122 345.349 L97.6122 318.983 L89.3021 320.65 L89.3021 316.391 L97.566 314.724 L102.242 314.724 L102.242 345.349 L109.881 345.349 L109.881 349.284 L89.9734 349.284 L89.9734 345.349 Z" fill="#000000" fill-rule="nonzero" fill-opacity="1" /><path clip-path="url(#clip750)" d="M119.325 343.405 L124.209 343.405 L124.209 349.284 L119.325 349.284 L119.325 343.405 Z" fill="#000000" fill-rule="nonzero" fill-opacity="1" /><path clip-path="url(#clip750)" d="M144.394 317.803 Q140.783 317.803 138.955 321.368 Q137.149 324.909 137.149 332.039 Q137.149 339.145 138.955 342.71 Q140.783 346.252 144.394 346.252 Q148.029 346.252 149.834 342.71 Q151.663 339.145 151.663 332.039 Q151.663 324.909 149.834 321.368 Q148.029 317.803 144.394 317.803 M144.394 314.099 Q150.205 314.099 153.26 318.706 Q156.339 323.289 156.339 332.039 Q156.339 340.766 153.26 345.372 Q150.205 349.955 144.394 349.955 Q138.584 349.955 135.506 345.372 Q132.45 340.766 132.45 332.039 Q132.45 323.289 135.506 318.706 Q138.584 314.099 144.394 314.099 Z" fill="#000000" fill-rule="nonzero" fill-opacity="1" /><path clip-path="url(#clip750)" d="M91.5706 169.988 L99.2095 169.988 L99.2095 143.622 L90.8993 145.289 L90.8993 141.03 L99.1632 139.363 L103.839 139.363 L103.839 169.988 L111.478 169.988 L111.478 173.923 L91.5706 173.923 L91.5706 169.988 Z" fill="#000000" fill-rule="nonzero" fill-opacity="1" /><path clip-path="url(#clip750)" d="M120.922 168.044 L125.807 168.044 L125.807 173.923 L120.922 173.923 L120.922 168.044 Z" fill="#000000" fill-rule="nonzero" fill-opacity="1" /><path clip-path="url(#clip750)" d="M140.019 169.988 L156.339 169.988 L156.339 173.923 L134.394 173.923 L134.394 169.988 Q137.056 167.233 141.64 162.604 Q146.246 157.951 147.427 156.608 Q149.672 154.085 150.552 152.349 Q151.455 150.59 151.455 148.9 Q151.455 146.146 149.51 144.409 Q147.589 142.673 144.487 142.673 Q142.288 142.673 139.834 143.437 Q137.404 144.201 134.626 145.752 L134.626 141.03 Q137.45 139.896 139.904 139.317 Q142.357 138.738 144.394 138.738 Q149.765 138.738 152.959 141.423 Q156.154 144.109 156.154 148.599 Q156.154 150.729 155.343 152.65 Q154.556 154.548 152.45 157.141 Q151.871 157.812 148.769 161.03 Q145.668 164.224 140.019 169.988 Z" fill="#000000" fill-rule="nonzero" fill-opacity="1" /><polyline clip-path="url(#clip752)" style="stroke:#009af9; stroke-linecap:round; stroke-linejoin:round; stroke-width:16; stroke-opacity:1; fill:none" stroke-dasharray="8, 16" points="253.483,1077.12 263.725,1067.61 273.966,1055.37 284.208,1042.94 294.45,1033.83 304.692,1031.55 314.934,1038.24 325.176,1053.97 335.418,1077.08 345.659,1104.4 355.901,1132.17 366.143,1159.36 376.385,1187.91 386.627,1218.6 396.869,1249.9 407.111,1280.04 417.352,1308.02 427.594,1333.23 437.836,1354.72 448.078,1370.81 458.32,1379.77 468.562,1381.65 478.803,1378.4 489.045,1371.97 499.287,1362.88 509.529,1350.31 519.771,1332.74 530.013,1308.29 540.255,1275.53 550.497,1235.73 560.738,1195.84 570.98,1165.13 581.222,1143.51 591.464,1122.12 601.706,1096.87 611.948,1072.16 622.19,1053.56 632.431,1042.98 642.673,1039.16 652.915,1039.51 663.157,1041.72 673.399,1045.25 683.641,1052.8 693.882,1069.84 704.124,1099.82 714.366,1139.02 724.608,1178.56 734.85,1211.17 745.092,1235.48 755.334,1256.26 765.575,1280.03 775.817,1308.09 786.059,1335.76 796.301,1357.99 806.543,1372.89 816.785,1381.03 827.027,1383.75 837.268,1381.93 847.51,1375.54 857.752,1363.63 867.994,1344.8 878.236,1318.99 888.478,1289.61 898.72,1260.64 908.961,1232.34 919.203,1201.42 929.445,1165.38 939.687,1128.23 949.929,1100.19 960.171,1086.67 970.413,1081.05 980.654,1071.56 990.896,1053.59 1001.14,1035.22 1011.38,1026.97 1021.62,1031.37 1031.86,1045.76 1042.11,1067.46 1052.35,1093.83 1062.59,1121.39 1072.83,1147.59 1083.07,1173.78 1093.31,1204.06 1103.56,1240.66 1113.8,1278.27 1124.04,1301.42 1134.28,1298.53 1144.52,1286.81 1154.77,1322.37 1165.01,1367.77 1175.25,1393.18 1185.49,1408.12 1195.73,1402.36 1205.98,1375.09 1216.22,1370.32 1226.46,1445.72 1236.7,1412.73 1246.94,1321.73 1257.18,1191.77 1267.43,957.315 1277.67,649.12 1287.91,377.784 1298.15,327.436 1308.39,348.996 1318.64,385.612 1328.88,380.487 1339.12,324.711 1349.36,290.925 1359.6,292.856 1369.84,309.021 1380.09,309.332 1390.33,284.515 1400.57,281.725 1410.81,309.909 1421.05,332.338 1431.3,362.072 1441.54,388.139 1451.78,386.418 1462.02,369.956 1472.26,345.072 1482.51,318.067 1492.75,294.294 1502.99,276.307 1513.23,269.783 1523.47,280.759 1533.71,307.98 1543.96,350.004 1554.2,397.646 1564.44,426.077 1574.68,419.914 1584.92,384.976 1595.17,335.868 1605.41,286.857 1615.65,251.431 1625.89,241.247 1636.13,259.543 1646.38,297.623 1656.62,341.532 1666.86,379.894 1677.1,405.83 1687.34,415.692 1697.58,407.949 1707.83,382.804 1718.07,342.123 1728.31,290.249 1738.55,238.325 1748.79,211.1 1759.04,234.373 1769.28,299.291 1779.52,370.883 1789.76,423.409 1800,446.928 1810.24,441.394 1820.49,411.492 1830.73,363.479 1840.97,304.554 1851.21,244.863 1861.45,200.472 1871.7,190.602 1881.94,225.028 1892.18,296.24 1902.42,384.151 1912.66,461.611 1922.91,502.263 1933.15,491.871 1943.39,432.952 1953.63,341.505 1963.87,242.354 1974.11,165.464 1984.36,137.894 1994.6,169.934 2004.84,249.881 2015.08,352.772 2025.32,449.608 2035.57,514.193 2045.81,529.541 2056.05,490.697 2066.29,405.558 2076.53,295.054 2086.77,189.73 2097.02,123.496 2107.26,121.101 2117.5,181.252 2127.74,277.869 2137.98,382.646 2148.23,477.576 2158.47,544.401 2168.71,549.603 2178.95,473.53 2189.19,346.307 2199.44,215.506 2209.68,138.359 2219.92,143.941 2230.16,196.851 2240.4,261.464 2250.64,325.684 2260.89,387.029 2271.13,444.825 2281.37,499.037 2291.61,550.147 "/>
<polyline clip-path="url(#clip752)" style="stroke:#e26f46; stroke-linecap:round; stroke-linejoin:round; stroke-width:4; stroke-opacity:1; fill:none" points="253.483,1077.12 263.725,1058.43 273.966,1044.65 284.208,1036.24 294.45,1033.45 304.692,1036.39 314.934,1044.95 325.176,1058.86 335.418,1077.67 345.659,1100.75 355.901,1127.37 366.143,1156.64 376.385,1187.61 386.627,1219.28 396.869,1250.6 407.111,1280.56 417.352,1308.18 427.594,1332.55 437.836,1352.89 448.078,1368.52 458.32,1378.94 468.562,1383.81 478.803,1382.97 489.045,1376.44 499.287,1364.44 509.529,1347.37 519.771,1325.77 530.013,1300.35 540.255,1271.94 550.497,1241.48 560.738,1209.95 570.98,1178.38 581.222,1147.8 591.464,1119.22 601.706,1093.56 611.948,1071.66 622.19,1054.24 632.431,1041.86 642.673,1034.93 652.915,1033.67 663.157,1038.14 673.399,1048.17 683.641,1063.44 693.882,1083.46 704.124,1107.57 714.366,1134.99 724.608,1164.81 734.85,1196.07 745.092,1227.75 755.334,1258.8 765.575,1288.23 775.817,1315.06 786.059,1338.43 796.301,1357.56 806.543,1371.84 816.785,1380.8 827.027,1384.15 837.268,1381.77 847.51,1373.75 857.752,1360.35 867.994,1342 878.236,1319.3 888.478,1292.99 898.72,1263.94 908.961,1233.09 919.203,1201.45 929.445,1170.05 939.687,1139.91 949.929,1112.02 960.171,1087.29 970.413,1066.53 980.654,1050.41 990.896,1039.45 1001.14,1034.03 1011.38,1034.31 1021.62,1040.29 1031.86,1051.76 1042.11,1068.37 1052.35,1089.55 1062.59,1114.63 1072.83,1142.78 1083.07,1173.09 1093.31,1204.56 1103.56,1236.17 1113.8,1266.89 1124.04,1295.71 1134.28,1321.7 1144.52,1344 1154.77,1361.89 1165.01,1374.78 1175.25,1382.26 1185.49,1384.07 1195.73,1380.17 1205.98,1370.67 1216.22,1355.89 1226.46,1336.31 1236.7,1312.57 1246.94,1285.44 1257.18,1255.81 1267.43,1224.65 1277.67,330.731 1287.91,329.282 1298.15,330.601 1308.39,334.991 1318.64,341.108 1328.88,346.366 1339.12,347.923 1349.36,343.877 1359.6,334.232 1369.84,321.23 1380.09,308.857 1390.33,301.629 1400.57,303.016 1410.81,314.044 1421.05,332.593 1431.3,353.704 1441.54,370.894 1451.78,378.146 1462.02,371.938 1472.26,352.679 1482.51,324.976 1492.75,296.585 1502.99,276.238 1513.23,270.966 1523.47,283.745 1533.71,312.213 1543.96,348.979 1554.2,383.516 1564.44,405.177 1574.68,406.46 1584.92,385.533 1595.17,347.182 1605.41,301.783 1615.65,262.514 1625.89,241.521 1636.13,246.189 1646.38,276.623 1656.62,325.209 1666.86,378.472 1677.1,420.811 1687.34,439.065 1697.58,426.582 1707.83,385.536 1718.07,326.705 1728.31,266.67 1738.55,223.139 1748.79,209.732 1759.04,231.746 1769.28,284.216 1779.52,352.954 1789.76,418.366 1800,461.042 1810.24,467.506 1820.49,434.439 1830.73,370.051 1840.97,292.096 1851.21,222.981 1861.45,183.332 1871.7,185.838 1881.94,231.242 1892.18,307.7 1902.42,393.841 1912.66,464.737 1922.91,499.115 1933.15,485.728 1943.39,426.983 1953.63,338.659 1963.87,245.695 1974.11,175.143 1984.36,148.307 1994.6,174.314 2004.84,247.093 2015.08,346.714 2025.32,444.83 2035.57,512.746 2045.81,529.805 2056.05,489.654 2066.29,402.488 2076.53,292.502 2086.77,191.188 2097.02,128.314 2107.26,123.185 2117.5,178.739 2127.74,280.281 2137.98,399.342 2148.23,501.655 2158.47,557.018 2168.71,548.203 2178.95,476.287 2189.19,360.757 2199.44,234.253 2209.68,133.349 2219.92,87.9763 2230.16,112.556 2240.4,201.458 2250.64,330.204 2260.89,462.197 2271.13,559.125 2281.37,592.074 2291.61,550.147 "/>
<path clip-path="url(#clip750)" d="M264.353 250.738 L707.222 250.738 L707.222 95.2176 L264.353 95.2176  Z" fill="#ffffff" fill-rule="evenodd" fill-opacity="1"/>
<polyline clip-path="url(#clip750)" style="stroke:#000000; stroke-linecap:round; stroke-linejoin:round; stroke-width:4; stroke-opacity:1; fill:none" points="264.353,250.738 707.222,250.738 707.222,95.2176 264.353,95.2176 264.353,250.738 "/>
<polyline clip-path="url(#clip750)" style="stroke:#009af9; stroke-linecap:round; stroke-linejoin:round; stroke-width:16; stroke-opacity:1; fill:none" stroke-dasharray="8, 16" points="288.357,147.058 432.385,147.058 "/>
<path clip-path="url(#clip750)" d="M461.066 133.62 L461.066 146.606 L466.945 146.606 Q470.209 146.606 471.992 144.916 Q473.774 143.227 473.774 140.102 Q473.774 137 471.992 135.31 Q470.209 133.62 466.945 133.62 L461.066 133.62 M456.39 129.778 L466.945 129.778 Q472.755 129.778 475.718 132.416 Q478.704 135.032 478.704 140.102 Q478.704 145.217 475.718 147.833 Q472.755 150.449 466.945 150.449 L461.066 150.449 L461.066 164.338 L456.39 164.338 L456.39 129.778 Z" fill="#000000" fill-rule="nonzero" fill-opacity="1" /><path clip-path="url(#clip750)" d="M498.982 142.393 Q498.265 141.977 497.408 141.791 Q496.575 141.583 495.556 141.583 Q491.945 141.583 490.001 143.944 Q488.079 146.282 488.079 150.68 L488.079 164.338 L483.797 164.338 L483.797 138.412 L488.079 138.412 L488.079 142.44 Q489.422 140.078 491.575 138.944 Q493.728 137.787 496.806 137.787 Q497.246 137.787 497.778 137.856 Q498.311 137.903 498.959 138.018 L498.982 142.393 Z" fill="#000000" fill-rule="nonzero" fill-opacity="1" /><path clip-path="url(#clip750)" d="M524.584 150.31 L524.584 152.393 L505.001 152.393 Q505.278 156.791 507.639 159.106 Q510.024 161.398 514.26 161.398 Q516.714 161.398 519.005 160.796 Q521.32 160.194 523.588 158.99 L523.588 163.018 Q521.297 163.99 518.889 164.5 Q516.482 165.009 514.005 165.009 Q507.802 165.009 504.167 161.398 Q500.556 157.787 500.556 151.629 Q500.556 145.264 503.982 141.537 Q507.431 137.787 513.264 137.787 Q518.496 137.787 521.528 141.166 Q524.584 144.523 524.584 150.31 M520.325 149.06 Q520.278 145.565 518.357 143.481 Q516.459 141.398 513.311 141.398 Q509.746 141.398 507.593 143.412 Q505.464 145.426 505.14 149.083 L520.325 149.06 Z" fill="#000000" fill-rule="nonzero" fill-opacity="1" /><path clip-path="url(#clip750)" d="M548.635 142.347 L548.635 128.319 L552.894 128.319 L552.894 164.338 L548.635 164.338 L548.635 160.449 Q547.292 162.763 545.232 163.898 Q543.195 165.009 540.325 165.009 Q535.625 165.009 532.663 161.259 Q529.723 157.509 529.723 151.398 Q529.723 145.287 532.663 141.537 Q535.625 137.787 540.325 137.787 Q543.195 137.787 545.232 138.921 Q547.292 140.032 548.635 142.347 M534.121 151.398 Q534.121 156.097 536.042 158.782 Q537.987 161.444 541.366 161.444 Q544.746 161.444 546.69 158.782 Q548.635 156.097 548.635 151.398 Q548.635 146.699 546.69 144.037 Q544.746 141.352 541.366 141.352 Q537.987 141.352 536.042 144.037 Q534.121 146.699 534.121 151.398 Z" fill="#000000" fill-rule="nonzero" fill-opacity="1" /><path clip-path="url(#clip750)" d="M561.667 138.412 L565.926 138.412 L565.926 164.338 L561.667 164.338 L561.667 138.412 M561.667 128.319 L565.926 128.319 L565.926 133.713 L561.667 133.713 L561.667 128.319 Z" fill="#000000" fill-rule="nonzero" fill-opacity="1" /><path clip-path="url(#clip750)" d="M593.496 139.407 L593.496 143.389 Q591.69 142.393 589.861 141.907 Q588.056 141.398 586.204 141.398 Q582.06 141.398 579.769 144.037 Q577.477 146.652 577.477 151.398 Q577.477 156.143 579.769 158.782 Q582.06 161.398 586.204 161.398 Q588.056 161.398 589.861 160.912 Q591.69 160.402 593.496 159.407 L593.496 163.342 Q591.713 164.176 589.792 164.592 Q587.894 165.009 585.741 165.009 Q579.884 165.009 576.435 161.328 Q572.986 157.648 572.986 151.398 Q572.986 145.055 576.459 141.421 Q579.954 137.787 586.019 137.787 Q587.986 137.787 589.861 138.203 Q591.736 138.597 593.496 139.407 Z" fill="#000000" fill-rule="nonzero" fill-opacity="1" /><path clip-path="url(#clip750)" d="M605.116 131.051 L605.116 138.412 L613.889 138.412 L613.889 141.722 L605.116 141.722 L605.116 155.796 Q605.116 158.967 605.972 159.87 Q606.852 160.773 609.514 160.773 L613.889 160.773 L613.889 164.338 L609.514 164.338 Q604.583 164.338 602.708 162.509 Q600.833 160.657 600.833 155.796 L600.833 141.722 L597.708 141.722 L597.708 138.412 L600.833 138.412 L600.833 131.051 L605.116 131.051 Z" fill="#000000" fill-rule="nonzero" fill-opacity="1" /><path clip-path="url(#clip750)" d="M619.491 138.412 L623.75 138.412 L623.75 164.338 L619.491 164.338 L619.491 138.412 M619.491 128.319 L623.75 128.319 L623.75 133.713 L619.491 133.713 L619.491 128.319 Z" fill="#000000" fill-rule="nonzero" fill-opacity="1" /><path clip-path="url(#clip750)" d="M642.708 141.398 Q639.282 141.398 637.292 144.083 Q635.301 146.745 635.301 151.398 Q635.301 156.051 637.268 158.736 Q639.259 161.398 642.708 161.398 Q646.111 161.398 648.102 158.713 Q650.092 156.027 650.092 151.398 Q650.092 146.791 648.102 144.106 Q646.111 141.398 642.708 141.398 M642.708 137.787 Q648.264 137.787 651.435 141.398 Q654.606 145.009 654.606 151.398 Q654.606 157.764 651.435 161.398 Q648.264 165.009 642.708 165.009 Q637.13 165.009 633.958 161.398 Q630.81 157.764 630.81 151.398 Q630.81 145.009 633.958 141.398 Q637.13 137.787 642.708 137.787 Z" fill="#000000" fill-rule="nonzero" fill-opacity="1" /><path clip-path="url(#clip750)" d="M683.217 148.689 L683.217 164.338 L678.958 164.338 L678.958 148.828 Q678.958 145.148 677.523 143.319 Q676.088 141.49 673.217 141.49 Q669.768 141.49 667.778 143.69 Q665.787 145.889 665.787 149.685 L665.787 164.338 L661.504 164.338 L661.504 138.412 L665.787 138.412 L665.787 142.44 Q667.315 140.102 669.375 138.944 Q671.458 137.787 674.166 137.787 Q678.634 137.787 680.926 140.565 Q683.217 143.319 683.217 148.689 Z" fill="#000000" fill-rule="nonzero" fill-opacity="1" /><polyline clip-path="url(#clip750)" style="stroke:#e26f46; stroke-linecap:round; stroke-linejoin:round; stroke-width:4; stroke-opacity:1; fill:none" points="288.357,198.898 432.385,198.898 "/>
<path clip-path="url(#clip750)" d="M456.39 181.618 L478.242 181.618 L478.242 185.553 L461.066 185.553 L461.066 195.784 L477.524 195.784 L477.524 199.719 L461.066 199.719 L461.066 212.242 L478.658 212.242 L478.658 216.178 L456.39 216.178 L456.39 181.618 Z" fill="#000000" fill-rule="nonzero" fill-opacity="1" /><path clip-path="url(#clip750)" d="M507.709 190.252 L498.334 202.867 L508.195 216.178 L503.172 216.178 L495.626 205.992 L488.079 216.178 L483.056 216.178 L493.126 202.613 L483.913 190.252 L488.936 190.252 L495.811 199.488 L502.686 190.252 L507.709 190.252 Z" fill="#000000" fill-rule="nonzero" fill-opacity="1" /><path clip-path="url(#clip750)" d="M525.996 203.145 Q520.834 203.145 518.843 204.326 Q516.852 205.506 516.852 208.354 Q516.852 210.622 518.334 211.965 Q519.838 213.284 522.408 213.284 Q525.95 213.284 528.079 210.784 Q530.232 208.261 530.232 204.094 L530.232 203.145 L525.996 203.145 M534.491 201.386 L534.491 216.178 L530.232 216.178 L530.232 212.242 Q528.774 214.603 526.598 215.738 Q524.422 216.849 521.274 216.849 Q517.292 216.849 514.931 214.627 Q512.593 212.381 512.593 208.631 Q512.593 204.256 515.51 202.034 Q518.45 199.812 524.26 199.812 L530.232 199.812 L530.232 199.395 Q530.232 196.455 528.288 194.858 Q526.366 193.238 522.871 193.238 Q520.649 193.238 518.542 193.77 Q516.436 194.303 514.491 195.367 L514.491 191.432 Q516.829 190.53 519.028 190.09 Q521.227 189.627 523.311 189.627 Q528.936 189.627 531.713 192.543 Q534.491 195.46 534.491 201.386 Z" fill="#000000" fill-rule="nonzero" fill-opacity="1" /><path clip-path="url(#clip750)" d="M561.922 191.247 L561.922 195.229 Q560.116 194.233 558.287 193.747 Q556.482 193.238 554.63 193.238 Q550.486 193.238 548.195 195.877 Q545.903 198.492 545.903 203.238 Q545.903 207.983 548.195 210.622 Q550.486 213.238 554.63 213.238 Q556.482 213.238 558.287 212.752 Q560.116 212.242 561.922 211.247 L561.922 215.182 Q560.139 216.016 558.218 216.432 Q556.32 216.849 554.167 216.849 Q548.311 216.849 544.862 213.168 Q541.412 209.488 541.412 203.238 Q541.412 196.895 544.885 193.261 Q548.38 189.627 554.445 189.627 Q556.412 189.627 558.287 190.043 Q560.162 190.437 561.922 191.247 Z" fill="#000000" fill-rule="nonzero" fill-opacity="1" /><path clip-path="url(#clip750)" d="M573.542 182.891 L573.542 190.252 L582.315 190.252 L582.315 193.562 L573.542 193.562 L573.542 207.636 Q573.542 210.807 574.398 211.71 Q575.278 212.613 577.94 212.613 L582.315 212.613 L582.315 216.178 L577.94 216.178 Q573.01 216.178 571.135 214.349 Q569.26 212.497 569.26 207.636 L569.26 193.562 L566.135 193.562 L566.135 190.252 L569.26 190.252 L569.26 182.891 L573.542 182.891 Z" fill="#000000" fill-rule="nonzero" fill-opacity="1" /></svg>
