<?xml version="1.0" encoding="utf-8"?>
<svg xmlns="http://www.w3.org/2000/svg" xmlns:xlink="http://www.w3.org/1999/xlink" width="600" height="400" viewBox="0 0 2400 1600">
<defs>
  <clipPath id="clip660">
    <rect x="0" y="0" width="2400" height="1600"/>
  </clipPath>
</defs>
<path clip-path="url(#clip660)" d="M0 1600 L2400 1600 L2400 0 L0 0  Z" fill="#ffffff" fill-rule="evenodd" fill-opacity="1"/>
<defs>
  <clipPath id="clip661">
    <rect x="480" y="0" width="1681" height="1600"/>
  </clipPath>
</defs>
<path clip-path="url(#clip660)" d="M192.941 1486.45 L2352.76 1486.45 L2352.76 47.2441 L192.941 47.2441  Z" fill="#ffffff" fill-rule="evenodd" fill-opacity="1"/>
<defs>
  <clipPath id="clip662">
    <rect x="192" y="47" width="2161" height="1440"/>
  </clipPath>
</defs>
<polyline clip-path="url(#clip662)" style="stroke:#000000; stroke-linecap:round; stroke-linejoin:round; stroke-width:2; stroke-opacity:0.1; fill:none" points="254.067,1486.45 254.067,47.2441 "/>
<polyline clip-path="url(#clip662)" style="stroke:#000000; stroke-linecap:round; stroke-linejoin:round; stroke-width:2; stroke-opacity:0.1; fill:none" points="763.458,1486.45 763.458,47.2441 "/>
<polyline clip-path="url(#clip662)" style="stroke:#000000; stroke-linecap:round; stroke-linejoin:round; stroke-width:2; stroke-opacity:0.1; fill:none" points="1272.85,1486.45 1272.85,47.2441 "/>
<polyline clip-path="url(#clip662)" style="stroke:#000000; stroke-linecap:round; stroke-linejoin:round; stroke-width:2; stroke-opacity:0.1; fill:none" points="1782.24,1486.45 1782.24,47.2441 "/>
<polyline clip-path="url(#clip662)" style="stroke:#000000; stroke-linecap:round; stroke-linejoin:round; stroke-width:2; stroke-opacity:0.1; fill:none" points="2291.63,1486.45 2291.63,47.2441 "/>
<polyline clip-path="url(#clip660)" style="stroke:#000000; stroke-linecap:round; stroke-linejoin:round; stroke-width:4; stroke-opacity:1; fill:none" points="192.941,1486.45 2352.76,1486.45 "/>
<polyline clip-path="url(#clip660)" style="stroke:#000000; stroke-linecap:round; stroke-linejoin:round; stroke-width:4; stroke-opacity:1; fill:none" points="254.067,1486.45 254.067,1467.55 "/>
<polyline clip-path="url(#clip660)" style="stroke:#000000; stroke-linecap:round; stroke-linejoin:round; stroke-width:4; stroke-opacity:1; fill:none" points="763.458,1486.45 763.458,1467.55 "/>
<polyline clip-path="url(#clip660)" style="stroke:#000000; stroke-linecap:round; stroke-linejoin:round; stroke-width:4; stroke-opacity:1; fill:none" points="1272.85,1486.45 1272.85,1467.55 "/>
<polyline clip-path="url(#clip660)" style="stroke:#000000; stroke-linecap:round; stroke-linejoin:round; stroke-width:4; stroke-opacity:1; fill:none" points="1782.24,1486.45 1782.24,1467.55 "/>
<polyline clip-path="url(#clip660)" style="stroke:#000000; stroke-linecap:round; stroke-linejoin:round; stroke-width:4; stroke-opacity:1; fill:none" points="2291.63,1486.45 2291.63,1467.55 "/>
<path clip-path="url(#clip660)" d="M200.596 1532.02 L230.271 1532.02 L230.271 1535.95 L200.596 1535.95 L200.596 1532.02 Z" fill="#000000" fill-rule="nonzero" fill-opacity="1" /><path clip-path="url(#clip660)" d="M241.174 1544.91 L248.813 1544.91 L248.813 1518.55 L240.503 1520.21 L240.503 1515.95 L248.767 1514.29 L253.442 1514.29 L253.442 1544.91 L261.081 1544.91 L261.081 1548.85 L241.174 1548.85 L241.174 1544.91 Z" fill="#000000" fill-rule="nonzero" fill-opacity="1" /><path clip-path="url(#clip660)" d="M270.526 1542.97 L275.41 1542.97 L275.41 1548.85 L270.526 1548.85 L270.526 1542.97 Z" fill="#000000" fill-rule="nonzero" fill-opacity="1" /><path clip-path="url(#clip660)" d="M295.595 1517.37 Q291.984 1517.37 290.155 1520.93 Q288.35 1524.47 288.35 1531.6 Q288.35 1538.71 290.155 1542.27 Q291.984 1545.82 295.595 1545.82 Q299.229 1545.82 301.035 1542.27 Q302.864 1538.71 302.864 1531.6 Q302.864 1524.47 301.035 1520.93 Q299.229 1517.37 295.595 1517.37 M295.595 1513.66 Q301.405 1513.66 304.461 1518.27 Q307.539 1522.85 307.539 1531.6 Q307.539 1540.33 304.461 1544.94 Q301.405 1549.52 295.595 1549.52 Q289.785 1549.52 286.706 1544.94 Q283.651 1540.33 283.651 1531.6 Q283.651 1522.85 286.706 1518.27 Q289.785 1513.66 295.595 1513.66 Z" fill="#000000" fill-rule="nonzero" fill-opacity="1" /><path clip-path="url(#clip660)" d="M710.484 1532.02 L740.159 1532.02 L740.159 1535.95 L710.484 1535.95 L710.484 1532.02 Z" fill="#000000" fill-rule="nonzero" fill-opacity="1" /><path clip-path="url(#clip660)" d="M760.252 1517.37 Q756.641 1517.37 754.812 1520.93 Q753.007 1524.47 753.007 1531.6 Q753.007 1538.71 754.812 1542.27 Q756.641 1545.82 760.252 1545.82 Q763.886 1545.82 765.692 1542.27 Q767.52 1538.71 767.52 1531.6 Q767.52 1524.47 765.692 1520.93 Q763.886 1517.37 760.252 1517.37 M760.252 1513.66 Q766.062 1513.66 769.118 1518.27 Q772.196 1522.85 772.196 1531.6 Q772.196 1540.33 769.118 1544.94 Q766.062 1549.52 760.252 1549.52 Q754.442 1549.52 751.363 1544.94 Q748.307 1540.33 748.307 1531.6 Q748.307 1522.85 751.363 1518.27 Q754.442 1513.66 760.252 1513.66 Z" fill="#000000" fill-rule="nonzero" fill-opacity="1" /><path clip-path="url(#clip660)" d="M780.414 1542.97 L785.298 1542.97 L785.298 1548.85 L780.414 1548.85 L780.414 1542.97 Z" fill="#000000" fill-rule="nonzero" fill-opacity="1" /><path clip-path="url(#clip660)" d="M795.529 1514.29 L813.886 1514.29 L813.886 1518.22 L799.812 1518.22 L799.812 1526.7 Q800.83 1526.35 801.849 1526.19 Q802.867 1526 803.886 1526 Q809.673 1526 813.053 1529.17 Q816.432 1532.34 816.432 1537.76 Q816.432 1543.34 812.96 1546.44 Q809.488 1549.52 803.168 1549.52 Q800.992 1549.52 798.724 1549.15 Q796.479 1548.78 794.071 1548.04 L794.071 1543.34 Q796.154 1544.47 798.377 1545.03 Q800.599 1545.58 803.076 1545.58 Q807.08 1545.58 809.418 1543.48 Q811.756 1541.37 811.756 1537.76 Q811.756 1534.15 809.418 1532.04 Q807.08 1529.94 803.076 1529.94 Q801.201 1529.94 799.326 1530.35 Q797.474 1530.77 795.529 1531.65 L795.529 1514.29 Z" fill="#000000" fill-rule="nonzero" fill-opacity="1" /><path clip-path="url(#clip660)" d="M1250.23 1517.37 Q1246.62 1517.37 1244.79 1520.93 Q1242.99 1524.47 1242.99 1531.6 Q1242.99 1538.71 1244.79 1542.27 Q1246.62 1545.82 1250.23 1545.82 Q1253.87 1545.82 1255.67 1542.27 Q1257.5 1538.71 1257.5 1531.6 Q1257.5 1524.47 1255.67 1520.93 Q1253.87 1517.37 1250.23 1517.37 M1250.23 1513.66 Q1256.04 1513.66 1259.1 1518.27 Q1262.18 1522.85 1262.18 1531.6 Q1262.18 1540.33 1259.1 1544.94 Q1256.04 1549.52 1250.23 1549.52 Q1244.42 1549.52 1241.34 1544.94 Q1238.29 1540.33 1238.29 1531.6 Q1238.29 1522.85 1241.34 1518.27 Q1244.42 1513.66 1250.23 1513.66 Z" fill="#000000" fill-rule="nonzero" fill-opacity="1" /><path clip-path="url(#clip660)" d="M1270.39 1542.97 L1275.28 1542.97 L1275.28 1548.85 L1270.39 1548.85 L1270.39 1542.97 Z" fill="#000000" fill-rule="nonzero" fill-opacity="1" /><path clip-path="url(#clip660)" d="M1295.46 1517.37 Q1291.85 1517.37 1290.02 1520.93 Q1288.22 1524.47 1288.22 1531.6 Q1288.22 1538.71 1290.02 1542.27 Q1291.85 1545.82 1295.46 1545.82 Q1299.1 1545.82 1300.9 1542.27 Q1302.73 1538.71 1302.73 1531.6 Q1302.73 1524.47 1300.9 1520.93 Q1299.1 1517.37 1295.46 1517.37 M1295.46 1513.66 Q1301.27 1513.66 1304.33 1518.27 Q1307.41 1522.85 1307.41 1531.6 Q1307.41 1540.33 1304.33 1544.94 Q1301.27 1549.52 1295.46 1549.52 Q1289.65 1549.52 1286.58 1544.94 Q1283.52 1540.33 1283.52 1531.6 Q1283.52 1522.85 1286.58 1518.27 Q1289.65 1513.66 1295.46 1513.66 Z" fill="#000000" fill-rule="nonzero" fill-opacity="1" /><path clip-path="url(#clip660)" d="M1760.12 1517.37 Q1756.51 1517.37 1754.68 1520.93 Q1752.88 1524.47 1752.88 1531.6 Q1752.88 1538.71 1754.68 1542.27 Q1756.51 1545.82 1760.12 1545.82 Q1763.75 1545.82 1765.56 1542.27 Q1767.39 1538.71 1767.39 1531.6 Q1767.39 1524.47 1765.56 1520.93 Q1763.75 1517.37 1760.12 1517.37 M1760.12 1513.66 Q1765.93 1513.66 1768.99 1518.27 Q1772.07 1522.85 1772.07 1531.6 Q1772.07 1540.33 1768.99 1544.94 Q1765.93 1549.52 1760.12 1549.52 Q1754.31 1549.52 1751.23 1544.94 Q1748.18 1540.33 1748.18 1531.6 Q1748.18 1522.85 1751.23 1518.27 Q1754.31 1513.66 1760.12 1513.66 Z" fill="#000000" fill-rule="nonzero" fill-opacity="1" /><path clip-path="url(#clip660)" d="M1780.28 1542.97 L1785.17 1542.97 L1785.17 1548.85 L1780.28 1548.85 L1780.28 1542.97 Z" fill="#000000" fill-rule="nonzero" fill-opacity="1" /><path clip-path="url(#clip660)" d="M1795.4 1514.29 L1813.75 1514.29 L1813.75 1518.22 L1799.68 1518.22 L1799.68 1526.7 Q1800.7 1526.35 1801.72 1526.19 Q1802.74 1526 1803.75 1526 Q1809.54 1526 1812.92 1529.17 Q1816.3 1532.34 1816.3 1537.76 Q1816.3 1543.34 1812.83 1546.44 Q1809.36 1549.52 1803.04 1549.52 Q1800.86 1549.52 1798.59 1549.15 Q1796.35 1548.78 1793.94 1548.04 L1793.94 1543.34 Q1796.02 1544.47 1798.25 1545.03 Q1800.47 1545.58 1802.94 1545.58 Q1806.95 1545.58 1809.29 1543.48 Q1811.63 1541.37 1811.63 1537.76 Q1811.63 1534.15 1809.29 1532.04 Q1806.95 1529.94 1802.94 1529.94 Q1801.07 1529.94 1799.19 1530.35 Q1797.34 1530.77 1795.4 1531.65 L1795.4 1514.29 Z" fill="#000000" fill-rule="nonzero" fill-opacity="1" /><path clip-path="url(#clip660)" d="M2258.78 1544.91 L2266.42 1544.91 L2266.42 1518.55 L2258.11 1520.21 L2258.11 1515.95 L2266.37 1514.29 L2271.05 1514.29 L2271.05 1544.91 L2278.69 1544.91 L2278.69 1548.85 L2258.78 1548.85 L2258.78 1544.91 Z" fill="#000000" fill-rule="nonzero" fill-opacity="1" /><path clip-path="url(#clip660)" d="M2288.13 1542.97 L2293.02 1542.97 L2293.02 1548.85 L2288.13 1548.85 L2288.13 1542.97 Z" fill="#000000" fill-rule="nonzero" fill-opacity="1" /><path clip-path="url(#clip660)" d="M2313.2 1517.37 Q2309.59 1517.37 2307.76 1520.93 Q2305.96 1524.47 2305.96 1531.6 Q2305.96 1538.71 2307.76 1542.27 Q2309.59 1545.82 2313.2 1545.82 Q2316.84 1545.82 2318.64 1542.27 Q2320.47 1538.71 2320.47 1531.6 Q2320.47 1524.47 2318.64 1520.93 Q2316.84 1517.37 2313.2 1517.37 M2313.2 1513.66 Q2319.01 1513.66 2322.07 1518.27 Q2325.15 1522.85 2325.15 1531.6 Q2325.15 1540.33 2322.07 1544.94 Q2319.01 1549.52 2313.2 1549.52 Q2307.39 1549.52 2304.31 1544.94 Q2301.26 1540.33 2301.26 1531.6 Q2301.26 1522.85 2304.31 1518.27 Q2307.39 1513.66 2313.2 1513.66 Z" fill="#000000" fill-rule="nonzero" fill-opacity="1" /><polyline clip-path="url(#clip662)" style="stroke:#000000; stroke-linecap:round; stroke-linejoin:round; stroke-width:2; stroke-opacity:0.1; fill:none" points="192.941,1473.79 2352.76,1473.79 "/>
<polyline clip-path="url(#clip662)" style="stroke:#000000; stroke-linecap:round; stroke-linejoin:round; stroke-width:2; stroke-opacity:0.1; fill:none" points="192.941,1103.3 2352.76,1103.3 "/>
<polyline clip-path="url(#clip662)" style="stroke:#000000; stroke-linecap:round; stroke-linejoin:round; stroke-width:2; stroke-opacity:0.1; fill:none" points="192.941,732.813 2352.76,732.813 "/>
<polyline clip-path="url(#clip662)" style="stroke:#000000; stroke-linecap:round; stroke-linejoin:round; stroke-width:2; stroke-opacity:0.1; fill:none" points="192.941,362.321 2352.76,362.321 "/>
<polyline clip-path="url(#clip660)" style="stroke:#000000; stroke-linecap:round; stroke-linejoin:round; stroke-width:4; stroke-opacity:1; fill:none" points="192.941,1486.45 192.941,47.2441 "/>
<polyline clip-path="url(#clip660)" style="stroke:#000000; stroke-linecap:round; stroke-linejoin:round; stroke-width:4; stroke-opacity:1; fill:none" points="192.941,1473.79 211.838,1473.79 "/>
<polyline clip-path="url(#clip660)" style="stroke:#000000; stroke-linecap:round; stroke-linejoin:round; stroke-width:4; stroke-opacity:1; fill:none" points="192.941,1103.3 211.838,1103.3 "/>
<polyline clip-path="url(#clip660)" style="stroke:#000000; stroke-linecap:round; stroke-linejoin:round; stroke-width:4; stroke-opacity:1; fill:none" points="192.941,732.813 211.838,732.813 "/>
<polyline clip-path="url(#clip660)" style="stroke:#000000; stroke-linecap:round; stroke-linejoin:round; stroke-width:4; stroke-opacity:1; fill:none" points="192.941,362.321 211.838,362.321 "/>
<path clip-path="url(#clip660)" d="M50.9921 1474.25 L80.6679 1474.25 L80.6679 1478.18 L50.9921 1478.18 L50.9921 1474.25 Z" fill="#000000" fill-rule="nonzero" fill-opacity="1" /><path clip-path="url(#clip660)" d="M100.76 1459.59 Q97.1493 1459.59 95.3206 1463.16 Q93.515 1466.7 93.515 1473.83 Q93.515 1480.94 95.3206 1484.5 Q97.1493 1488.04 100.76 1488.04 Q104.395 1488.04 106.2 1484.5 Q108.029 1480.94 108.029 1473.83 Q108.029 1466.7 106.2 1463.16 Q104.395 1459.59 100.76 1459.59 M100.76 1455.89 Q106.571 1455.89 109.626 1460.5 Q112.705 1465.08 112.705 1473.83 Q112.705 1482.56 109.626 1487.16 Q106.571 1491.75 100.76 1491.75 Q94.9502 1491.75 91.8715 1487.16 Q88.816 1482.56 88.816 1473.83 Q88.816 1465.08 91.8715 1460.5 Q94.9502 1455.89 100.76 1455.89 Z" fill="#000000" fill-rule="nonzero" fill-opacity="1" /><path clip-path="url(#clip660)" d="M120.922 1485.2 L125.807 1485.2 L125.807 1491.07 L120.922 1491.07 L120.922 1485.2 Z" fill="#000000" fill-rule="nonzero" fill-opacity="1" /><path clip-path="url(#clip660)" d="M136.038 1456.51 L154.394 1456.51 L154.394 1460.45 L140.32 1460.45 L140.32 1468.92 Q141.339 1468.58 142.357 1468.41 Q143.376 1468.23 144.394 1468.23 Q150.181 1468.23 153.561 1471.4 Q156.941 1474.57 156.941 1479.99 Q156.941 1485.57 153.468 1488.67 Q149.996 1491.75 143.677 1491.75 Q141.501 1491.75 139.232 1491.38 Q136.987 1491.01 134.58 1490.26 L134.58 1485.57 Q136.663 1486.7 138.885 1487.26 Q141.107 1487.81 143.584 1487.81 Q147.589 1487.81 149.927 1485.7 Q152.265 1483.6 152.265 1479.99 Q152.265 1476.38 149.927 1474.27 Q147.589 1472.16 143.584 1472.16 Q141.709 1472.16 139.834 1472.58 Q137.982 1473 136.038 1473.88 L136.038 1456.51 Z" fill="#000000" fill-rule="nonzero" fill-opacity="1" /><path clip-path="url(#clip660)" d="M99.765 1089.1 Q96.1539 1089.1 94.3252 1092.67 Q92.5197 1096.21 92.5197 1103.34 Q92.5197 1110.44 94.3252 1114.01 Q96.1539 1117.55 99.765 1117.55 Q103.399 1117.55 105.205 1114.01 Q107.033 1110.44 107.033 1103.34 Q107.033 1096.21 105.205 1092.67 Q103.399 1089.1 99.765 1089.1 M99.765 1085.4 Q105.575 1085.4 108.631 1090.01 Q111.709 1094.59 111.709 1103.34 Q111.709 1112.07 108.631 1116.67 Q105.575 1121.26 99.765 1121.26 Q93.9549 1121.26 90.8762 1116.67 Q87.8206 1112.07 87.8206 1103.34 Q87.8206 1094.59 90.8762 1090.01 Q93.9549 1085.4 99.765 1085.4 Z" fill="#000000" fill-rule="nonzero" fill-opacity="1" /><path clip-path="url(#clip660)" d="M119.927 1114.7 L124.811 1114.7 L124.811 1120.58 L119.927 1120.58 L119.927 1114.7 Z" fill="#000000" fill-rule="nonzero" fill-opacity="1" /><path clip-path="url(#clip660)" d="M144.996 1089.1 Q141.385 1089.1 139.556 1092.67 Q137.751 1096.21 137.751 1103.34 Q137.751 1110.44 139.556 1114.01 Q141.385 1117.55 144.996 1117.55 Q148.63 1117.55 150.436 1114.01 Q152.265 1110.44 152.265 1103.34 Q152.265 1096.21 150.436 1092.67 Q148.63 1089.1 144.996 1089.1 M144.996 1085.4 Q150.806 1085.4 153.862 1090.01 Q156.941 1094.59 156.941 1103.34 Q156.941 1112.07 153.862 1116.67 Q150.806 1121.26 144.996 1121.26 Q139.186 1121.26 136.107 1116.67 Q133.052 1112.07 133.052 1103.34 Q133.052 1094.59 136.107 1090.01 Q139.186 1085.4 144.996 1085.4 Z" fill="#000000" fill-rule="nonzero" fill-opacity="1" /><path clip-path="url(#clip660)" d="M100.76 718.611 Q97.1493 718.611 95.3206 722.176 Q93.515 725.718 93.515 732.847 Q93.515 739.954 95.3206 743.519 Q97.1493 747.06 100.76 747.06 Q104.395 747.06 106.2 743.519 Q108.029 739.954 108.029 732.847 Q108.029 725.718 106.2 722.176 Q104.395 718.611 100.76 718.611 M100.76 714.908 Q106.571 714.908 109.626 719.514 Q112.705 724.097 112.705 732.847 Q112.705 741.574 109.626 746.181 Q106.571 750.764 100.76 750.764 Q94.9502 750.764 91.8715 746.181 Q88.816 741.574 88.816 732.847 Q88.816 724.097 91.8715 719.514 Q94.9502 714.908 100.76 714.908 Z" fill="#000000" fill-rule="nonzero" fill-opacity="1" /><path clip-path="url(#clip660)" d="M120.922 744.213 L125.807 744.213 L125.807 750.093 L120.922 750.093 L120.922 744.213 Z" fill="#000000" fill-rule="nonzero" fill-opacity="1" /><path clip-path="url(#clip660)" d="M136.038 715.533 L154.394 715.533 L154.394 719.468 L140.32 719.468 L140.32 727.94 Q141.339 727.593 142.357 727.431 Q143.376 727.245 144.394 727.245 Q150.181 727.245 153.561 730.417 Q156.941 733.588 156.941 739.005 Q156.941 744.583 153.468 747.685 Q149.996 750.764 143.677 750.764 Q141.501 750.764 139.232 750.393 Q136.987 750.023 134.58 749.282 L134.58 744.583 Q136.663 745.718 138.885 746.273 Q141.107 746.829 143.584 746.829 Q147.589 746.829 149.927 744.722 Q152.265 742.616 152.265 739.005 Q152.265 735.394 149.927 733.287 Q147.589 731.181 143.584 731.181 Q141.709 731.181 139.834 731.597 Q137.982 732.014 136.038 732.894 L136.038 715.533 Z" fill="#000000" fill-rule="nonzero" fill-opacity="1" /><path clip-path="url(#clip660)" d="M90.5752 375.666 L98.2141 375.666 L98.2141 349.301 L89.904 350.967 L89.904 346.708 L98.1678 345.041 L102.844 345.041 L102.844 375.666 L110.483 375.666 L110.483 379.601 L90.5752 379.601 L90.5752 375.666 Z" fill="#000000" fill-rule="nonzero" fill-opacity="1" /><path clip-path="url(#clip660)" d="M119.927 373.722 L124.811 373.722 L124.811 379.601 L119.927 379.601 L119.927 373.722 Z" fill="#000000" fill-rule="nonzero" fill-opacity="1" /><path clip-path="url(#clip660)" d="M144.996 348.12 Q141.385 348.12 139.556 351.685 Q137.751 355.226 137.751 362.356 Q137.751 369.463 139.556 373.027 Q141.385 376.569 144.996 376.569 Q148.63 376.569 150.436 373.027 Q152.265 369.463 152.265 362.356 Q152.265 355.226 150.436 351.685 Q148.63 348.12 144.996 348.12 M144.996 344.416 Q150.806 344.416 153.862 349.023 Q156.941 353.606 156.941 362.356 Q156.941 371.083 153.862 375.689 Q150.806 380.273 144.996 380.273 Q139.186 380.273 136.107 375.689 Q133.052 371.083 133.052 362.356 Q133.052 353.606 136.107 349.023 Q139.186 344.416 144.996 344.416 Z" fill="#000000" fill-rule="nonzero" fill-opacity="1" /><polyline clip-path="url(#clip662)" style="stroke:#009af9; stroke-linecap:round; stroke-linejoin:round; stroke-width:16; stroke-opacity:1; fill:none" stroke-dasharray="8, 16" points="254.067,992.01 264.306,982.609 274.545,951.888 284.785,936.782 295.023,953.378 305.262,981.925 315.501,994.31 325.741,991.511 335.98,993.28 346.218,1017.07 356.457,1063.84 366.697,1096.89 376.936,1092.86 387.175,1088.57 397.414,1126.65 407.653,1184.09 417.892,1199.93 428.131,1147.22 438.37,1079.49 448.609,1081.46 458.848,1197.07 469.087,1364.58 479.326,1445.72 489.565,1386.19 499.804,1270.18 510.043,1168.97 520.282,1098.14 530.521,1077.95 540.76,1118.61 550.999,1179.05 561.238,1208.17 571.477,1184.21 581.716,1097.12 591.955,981.128 602.194,905.004 612.433,902.195 622.672,943.617 632.911,979.469 643.15,988.862 653.389,982.566 663.628,972.545 673.867,956.174 684.106,932.046 694.345,922.49 704.584,966.931 714.823,1070.32 725.062,1163.24 735.301,1179.54 745.54,1149.79 755.779,1139.34 766.018,1158.08 776.257,1193.29 786.496,1229.06 796.735,1216.88 806.974,1130.41 817.213,1070.02 827.452,1136.3 837.691,1267.95 847.93,1348.79 858.169,1335.53 868.408,1263.73 878.647,1193.51 888.886,1146.42 899.125,1119.68 909.364,1107.98 919.603,1097.46 929.842,1099.94 940.081,1101.58 950.32,1055.08 960.559,1001.17 970.798,989.927 981.037,999.539 991.276,990.412 1001.51,958.567 1011.75,942.282 1021.99,972.091 1032.23,1023.52 1042.47,1001.6 1052.71,901.746 1062.95,872.576 1073.19,946.793 1083.43,1055.69 1093.67,1147.2 1103.9,1199.98 1114.14,1218.81 1124.38,1197.97 1134.62,1143.53 1144.86,1138.14 1155.1,1191.74 1165.34,1237.25 1175.58,1254.6 1185.82,1257.3 1196.06,1260.48 1206.29,1247.88 1216.53,1214.67 1226.77,1194.53 1237.01,1205.87 1247.25,1193.45 1257.49,1077.28 1267.73,747.074 1277.97,356.763 1288.21,324.106 1298.45,390.452 1308.68,444.774 1318.92,462.086 1329.16,417.972 1339.4,347.452 1349.64,299.98 1359.88,291.201 1370.12,314.961 1380.36,366.174 1390.6,426.892 1400.84,466.479 1411.07,427.3 1421.31,332.566 1431.55,289.304 1441.79,301.732 1452.03,345.236 1462.27,415.55 1472.51,485.521 1482.75,504.285 1492.99,423.973 1503.23,302.647 1513.46,297.337 1523.7,348.814 1533.94,362.805 1544.18,375.39 1554.42,396.385 1564.66,412.573 1574.9,420.515 1585.14,407.418 1595.38,360.018 1605.62,308.785 1615.85,292.769 1626.09,285.836 1636.33,292.686 1646.57,329.085 1656.81,371.33 1667.05,403.549 1677.29,400.455 1687.53,359.212 1697.77,337.915 1708.01,388.236 1718.24,485.077 1728.48,517.062 1738.72,412.374 1748.96,276.908 1759.2,245.839 1769.44,303.367 1779.68,377.588 1789.92,436.462 1800.16,460.101 1810.4,430.582 1820.63,384.074 1830.87,371.859 1841.11,370.366 1851.35,330.602 1861.59,271.284 1871.83,245.005 1882.07,272.645 1892.31,335.673 1902.55,405.676 1912.79,467.812 1923.02,518.328 1933.26,545.943 1943.5,517.084 1953.74,406.117 1963.98,248.744 1974.22,123.485 1984.46,87.9763 1994.7,166.837 2004.94,342.896 2015.18,518.762 2025.41,601.628 2035.65,583.231 2045.89,485.545 2056.13,328.813 2066.37,195.008 2076.61,195.499 2086.85,303.865 2097.09,385.174 2107.33,365.553 2117.57,301.649 2127.8,306.663 2138.04,407.601 2148.28,523.65 2158.52,574.113 2168.76,539.432 2179,465.483 2189.24,392.706 2199.48,302.862 2209.72,189.521 2219.96,122.123 2230.2,152.272 2240.43,249.224 2250.67,360.114 2260.91,446.641 2271.15,492.56 2281.39,514.501 2291.63,546.673 "/>
<polyline clip-path="url(#clip662)" style="stroke:#e26f46; stroke-linecap:round; stroke-linejoin:round; stroke-width:4; stroke-opacity:1; fill:none" points="254.067,992.01 264.306,976.22 274.545,964.577 284.785,957.463 295.023,955.108 305.262,957.589 315.501,964.827 325.741,976.584 335.98,992.477 346.218,1011.99 356.457,1034.48 366.697,1059.21 376.936,1085.39 387.175,1112.15 397.414,1138.62 407.653,1163.94 417.892,1187.28 428.131,1207.88 438.37,1225.06 448.609,1238.28 458.848,1247.08 469.087,1251.2 479.326,1250.49 489.565,1244.97 499.804,1234.83 510.043,1220.4 520.282,1202.14 530.521,1180.66 540.76,1156.66 550.999,1130.91 561.238,1104.27 571.477,1077.59 581.716,1051.75 591.955,1027.59 602.194,1005.91 612.433,987.399 622.672,972.675 632.911,962.215 643.15,956.359 653.389,955.299 663.628,959.069 673.867,967.547 684.106,980.456 694.345,997.374 704.584,1017.75 714.823,1040.92 725.062,1066.12 735.301,1092.54 745.54,1119.31 755.779,1145.55 766.018,1170.42 776.257,1193.1 786.496,1212.84 796.735,1229.01 806.974,1241.08 817.213,1248.65 827.452,1251.48 837.691,1249.47 847.93,1242.7 858.169,1231.37 868.408,1215.86 878.647,1196.68 888.886,1174.45 899.125,1149.9 909.364,1123.83 919.603,1097.08 929.842,1070.55 940.081,1045.08 950.32,1021.51 960.559,1000.61 970.798,983.061 981.037,969.437 991.276,960.183 1001.51,955.6 1011.75,955.838 1021.99,960.888 1032.23,970.587 1042.47,984.617 1052.71,1002.52 1062.95,1023.71 1073.19,1047.5 1083.43,1073.12 1093.67,1099.71 1103.9,1126.43 1114.14,1152.39 1124.38,1176.74 1134.62,1198.7 1144.86,1217.55 1155.1,1232.67 1165.34,1243.57 1175.58,1249.88 1185.82,1251.42 1196.06,1248.12 1206.29,1240.09 1216.53,1227.6 1226.77,1211.06 1237.01,1190.99 1247.25,1168.07 1257.49,1143.03 1267.73,1116.69 1277.97,361.245 1288.21,360.021 1298.45,361.135 1308.68,364.846 1318.92,370.015 1329.16,374.459 1339.4,375.774 1349.64,372.355 1359.88,364.204 1370.12,353.216 1380.36,342.76 1390.6,336.652 1400.84,337.823 1411.07,347.143 1421.31,362.819 1431.55,380.659 1441.79,395.187 1452.03,401.315 1462.27,396.07 1472.51,379.793 1482.75,356.382 1492.99,332.389 1503.23,315.194 1513.46,310.739 1523.7,321.538 1533.94,345.596 1544.18,376.667 1554.42,405.854 1564.66,424.159 1574.9,425.243 1585.14,407.559 1595.38,375.148 1605.62,336.782 1615.85,303.595 1626.09,285.855 1636.33,289.799 1646.57,315.519 1656.81,356.579 1667.05,401.591 1677.29,437.371 1687.53,452.797 1697.77,442.249 1708.01,407.561 1718.24,357.843 1728.48,307.107 1738.72,270.32 1748.96,258.99 1759.2,277.594 1769.44,321.936 1779.68,380.026 1789.92,435.305 1800.16,471.371 1810.4,476.833 1820.63,448.888 1830.87,394.475 1841.11,328.595 1851.35,270.187 1861.59,236.679 1871.83,238.797 1882.07,277.168 1892.31,341.782 1902.55,414.579 1912.79,474.493 1923.02,503.545 1933.26,492.232 1943.5,442.587 1953.74,367.946 1963.98,289.382 1974.22,229.759 1984.46,207.08 1994.7,229.058 2004.94,290.564 2015.18,374.753 2025.41,457.67 2035.65,515.065 2045.89,529.481 2056.13,495.55 2066.37,421.887 2076.61,328.939 2086.85,243.319 2097.09,190.184 2107.33,185.85 2117.57,232.798 2127.8,318.611 2138.04,419.228 2148.28,505.692 2158.52,552.479 2168.76,545.03 2179,484.254 2189.24,386.62 2199.48,279.713 2209.72,194.439 2219.96,156.095 2230.2,176.867 2240.43,251.997 2250.67,360.8 2260.91,472.346 2271.15,554.26 2281.39,582.105 2291.63,546.673 "/>
<path clip-path="url(#clip660)" d="M264.934 250.738 L707.743 250.738 L707.743 95.2176 L264.934 95.2176  Z" fill="#ffffff" fill-rule="evenodd" fill-opacity="1"/>
<polyline clip-path="url(#clip660)" style="stroke:#000000; stroke-linecap:round; stroke-linejoin:round; stroke-width:4; stroke-opacity:1; fill:none" points="264.934,250.738 707.743,250.738 707.743,95.2176 264.934,95.2176 264.934,250.738 "/>
<polyline clip-path="url(#clip660)" style="stroke:#009af9; stroke-linecap:round; stroke-linejoin:round; stroke-width:16; stroke-opacity:1; fill:none" stroke-dasharray="8, 16" points="288.932,147.058 432.92,147.058 "/>
<path clip-path="url(#clip660)" d="M461.594 133.62 L461.594 146.606 L467.474 146.606 Q470.737 146.606 472.52 144.916 Q474.302 143.227 474.302 140.102 Q474.302 137 472.52 135.31 Q470.737 133.62 467.474 133.62 L461.594 133.62 M456.918 129.778 L467.474 129.778 Q473.284 129.778 476.247 132.416 Q479.233 135.032 479.233 140.102 Q479.233 145.217 476.247 147.833 Q473.284 150.449 467.474 150.449 L461.594 150.449 L461.594 164.338 L456.918 164.338 L456.918 129.778 Z" fill="#000000" fill-rule="nonzero" fill-opacity="1" /><path clip-path="url(#clip660)" d="M499.51 142.393 Q498.793 141.977 497.936 141.791 Q497.103 141.583 496.085 141.583 Q492.473 141.583 490.529 143.944 Q488.608 146.282 488.608 150.68 L488.608 164.338 L484.325 164.338 L484.325 138.412 L488.608 138.412 L488.608 142.44 Q489.95 140.078 492.103 138.944 Q494.256 137.787 497.335 137.787 Q497.774 137.787 498.307 137.856 Q498.839 137.903 499.487 138.018 L499.51 142.393 Z" fill="#000000" fill-rule="nonzero" fill-opacity="1" /><path clip-path="url(#clip660)" d="M525.112 150.31 L525.112 152.393 L505.529 152.393 Q505.807 156.791 508.168 159.106 Q510.552 161.398 514.788 161.398 Q517.242 161.398 519.533 160.796 Q521.848 160.194 524.117 158.99 L524.117 163.018 Q521.825 163.99 519.418 164.5 Q517.01 165.009 514.533 165.009 Q508.33 165.009 504.696 161.398 Q501.084 157.787 501.084 151.629 Q501.084 145.264 504.51 141.537 Q507.959 137.787 513.793 137.787 Q519.024 137.787 522.057 141.166 Q525.112 144.523 525.112 150.31 M520.853 149.06 Q520.807 145.565 518.885 143.481 Q516.987 141.398 513.839 141.398 Q510.274 141.398 508.121 143.412 Q505.992 145.426 505.668 149.083 L520.853 149.06 Z" fill="#000000" fill-rule="nonzero" fill-opacity="1" /><path clip-path="url(#clip660)" d="M549.163 142.347 L549.163 128.319 L553.422 128.319 L553.422 164.338 L549.163 164.338 L549.163 160.449 Q547.82 162.763 545.76 163.898 Q543.723 165.009 540.853 165.009 Q536.154 165.009 533.191 161.259 Q530.251 157.509 530.251 151.398 Q530.251 145.287 533.191 141.537 Q536.154 137.787 540.853 137.787 Q543.723 137.787 545.76 138.921 Q547.82 140.032 549.163 142.347 M534.649 151.398 Q534.649 156.097 536.57 158.782 Q538.515 161.444 541.894 161.444 Q545.274 161.444 547.218 158.782 Q549.163 156.097 549.163 151.398 Q549.163 146.699 547.218 144.037 Q545.274 141.352 541.894 141.352 Q538.515 141.352 536.57 144.037 Q534.649 146.699 534.649 151.398 Z" fill="#000000" fill-rule="nonzero" fill-opacity="1" /><path clip-path="url(#clip660)" d="M562.195 138.412 L566.455 138.412 L566.455 164.338 L562.195 164.338 L562.195 138.412 M562.195 128.319 L566.455 128.319 L566.455 133.713 L562.195 133.713 L562.195 128.319 Z" fill="#000000" fill-rule="nonzero" fill-opacity="1" /><path clip-path="url(#clip660)" d="M594.024 139.407 L594.024 143.389 Q592.218 142.393 590.39 141.907 Q588.584 141.398 586.732 141.398 Q582.589 141.398 580.297 144.037 Q578.005 146.652 578.005 151.398 Q578.005 156.143 580.297 158.782 Q582.589 161.398 586.732 161.398 Q588.584 161.398 590.39 160.912 Q592.218 160.402 594.024 159.407 L594.024 163.342 Q592.241 164.176 590.32 164.592 Q588.422 165.009 586.269 165.009 Q580.413 165.009 576.964 161.328 Q573.515 157.648 573.515 151.398 Q573.515 145.055 576.987 141.421 Q580.482 137.787 586.547 137.787 Q588.515 137.787 590.39 138.203 Q592.265 138.597 594.024 139.407 Z" fill="#000000" fill-rule="nonzero" fill-opacity="1" /><path clip-path="url(#clip660)" d="M605.644 131.051 L605.644 138.412 L614.417 138.412 L614.417 141.722 L605.644 141.722 L605.644 155.796 Q605.644 158.967 606.501 159.87 Q607.38 160.773 610.042 160.773 L614.417 160.773 L614.417 164.338 L610.042 164.338 Q605.112 164.338 603.237 162.509 Q601.362 160.657 601.362 155.796 L601.362 141.722 L598.237 141.722 L598.237 138.412 L601.362 138.412 L601.362 131.051 L605.644 131.051 Z" fill="#000000" fill-rule="nonzero" fill-opacity="1" /><path clip-path="url(#clip660)" d="M620.019 138.412 L624.278 138.412 L624.278 164.338 L620.019 164.338 L620.019 138.412 M620.019 128.319 L624.278 128.319 L624.278 133.713 L620.019 133.713 L620.019 128.319 Z" fill="#000000" fill-rule="nonzero" fill-opacity="1" /><path clip-path="url(#clip660)" d="M643.237 141.398 Q639.811 141.398 637.82 144.083 Q635.829 146.745 635.829 151.398 Q635.829 156.051 637.797 158.736 Q639.787 161.398 643.237 161.398 Q646.639 161.398 648.63 158.713 Q650.621 156.027 650.621 151.398 Q650.621 146.791 648.63 144.106 Q646.639 141.398 643.237 141.398 M643.237 137.787 Q648.792 137.787 651.963 141.398 Q655.135 145.009 655.135 151.398 Q655.135 157.764 651.963 161.398 Q648.792 165.009 643.237 165.009 Q637.658 165.009 634.487 161.398 Q631.338 157.764 631.338 151.398 Q631.338 145.009 634.487 141.398 Q637.658 137.787 643.237 137.787 Z" fill="#000000" fill-rule="nonzero" fill-opacity="1" /><path clip-path="url(#clip660)" d="M683.746 148.689 L683.746 164.338 L679.486 164.338 L679.486 148.828 Q679.486 145.148 678.051 143.319 Q676.616 141.49 673.746 141.49 Q670.297 141.49 668.306 143.69 Q666.315 145.889 666.315 149.685 L666.315 164.338 L662.033 164.338 L662.033 138.412 L666.315 138.412 L666.315 142.44 Q667.843 140.102 669.903 138.944 Q671.986 137.787 674.695 137.787 Q679.162 137.787 681.454 140.565 Q683.746 143.319 683.746 148.689 Z" fill="#000000" fill-rule="nonzero" fill-opacity="1" /><polyline clip-path="url(#clip660)" style="stroke:#e26f46; stroke-linecap:round; stroke-linejoin:round; stroke-width:4; stroke-opacity:1; fill:none" points="288.932,198.898 432.92,198.898 "/>
<path clip-path="url(#clip660)" d="M456.918 181.618 L478.77 181.618 L478.77 185.553 L461.594 185.553 L461.594 195.784 L478.052 195.784 L478.052 199.719 L461.594 199.719 L461.594 212.242 L479.186 212.242 L479.186 216.178 L456.918 216.178 L456.918 181.618 Z" fill="#000000" fill-rule="nonzero" fill-opacity="1" /><path clip-path="url(#clip660)" d="M508.237 190.252 L498.862 202.867 L508.723 216.178 L503.7 216.178 L496.154 205.992 L488.608 216.178 L483.585 216.178 L493.654 202.613 L484.441 190.252 L489.464 190.252 L496.339 199.488 L503.214 190.252 L508.237 190.252 Z" fill="#000000" fill-rule="nonzero" fill-opacity="1" /><path clip-path="url(#clip660)" d="M526.524 203.145 Q521.362 203.145 519.371 204.326 Q517.381 205.506 517.381 208.354 Q517.381 210.622 518.862 211.965 Q520.367 213.284 522.936 213.284 Q526.478 213.284 528.607 210.784 Q530.76 208.261 530.76 204.094 L530.76 203.145 L526.524 203.145 M535.019 201.386 L535.019 216.178 L530.76 216.178 L530.76 212.242 Q529.302 214.603 527.126 215.738 Q524.95 216.849 521.802 216.849 Q517.821 216.849 515.459 214.627 Q513.121 212.381 513.121 208.631 Q513.121 204.256 516.038 202.034 Q518.978 199.812 524.788 199.812 L530.76 199.812 L530.76 199.395 Q530.76 196.455 528.816 194.858 Q526.895 193.238 523.399 193.238 Q521.177 193.238 519.07 193.77 Q516.964 194.303 515.02 195.367 L515.02 191.432 Q517.358 190.53 519.557 190.09 Q521.756 189.627 523.839 189.627 Q529.464 189.627 532.242 192.543 Q535.019 195.46 535.019 201.386 Z" fill="#000000" fill-rule="nonzero" fill-opacity="1" /><path clip-path="url(#clip660)" d="M562.45 191.247 L562.45 195.229 Q560.644 194.233 558.816 193.747 Q557.01 193.238 555.158 193.238 Q551.015 193.238 548.723 195.877 Q546.431 198.492 546.431 203.238 Q546.431 207.983 548.723 210.622 Q551.015 213.238 555.158 213.238 Q557.01 213.238 558.816 212.752 Q560.644 212.242 562.45 211.247 L562.45 215.182 Q560.667 216.016 558.746 216.432 Q556.848 216.849 554.695 216.849 Q548.839 216.849 545.39 213.168 Q541.941 209.488 541.941 203.238 Q541.941 196.895 545.413 193.261 Q548.908 189.627 554.973 189.627 Q556.941 189.627 558.816 190.043 Q560.691 190.437 562.45 191.247 Z" fill="#000000" fill-rule="nonzero" fill-opacity="1" /><path clip-path="url(#clip660)" d="M574.07 182.891 L574.07 190.252 L582.843 190.252 L582.843 193.562 L574.07 193.562 L574.07 207.636 Q574.07 210.807 574.927 211.71 Q575.806 212.613 578.468 212.613 L582.843 212.613 L582.843 216.178 L578.468 216.178 Q573.538 216.178 571.663 214.349 Q569.788 212.497 569.788 207.636 L569.788 193.562 L566.663 193.562 L566.663 190.252 L569.788 190.252 L569.788 182.891 L574.07 182.891 Z" fill="#000000" fill-rule="nonzero" fill-opacity="1" /></svg>
