<?xml version="1.0" encoding="utf-8"?>
<svg xmlns="http://www.w3.org/2000/svg" xmlns:xlink="http://www.w3.org/1999/xlink" width="600" height="400" viewBox="0 0 2400 1600">
<defs>
  <clipPath id="clip720">
    <rect x="0" y="0" width="2400" height="1600"/>
  </clipPath>
</defs>
<path clip-path="url(#clip720)" d="M0 1600 L2400 1600 L2400 0 L0 0  Z" fill="#ffffff" fill-rule="evenodd" fill-opacity="1"/>
<defs>
  <clipPath id="clip721">
    <rect x="480" y="0" width="1681" height="1600"/>
  </clipPath>
</defs>
<path clip-path="url(#clip720)" d="M156.274 1486.45 L2352.76 1486.45 L2352.76 47.2441 L156.274 47.2441  Z" fill="#ffffff" fill-rule="evenodd" fill-opacity="1"/>
<defs>
  <clipPath id="clip722">
    <rect x="156" y="47" width="2197" height="1440"/>
  </clipPath>
</defs>
<polyline clip-path="url(#clip722)" style="stroke:#000000; stroke-linecap:round; stroke-linejoin:round; stroke-width:2; stroke-opacity:0.1; fill:none" points="218.439,1486.45 218.439,47.2441 "/>
<polyline clip-path="url(#clip722)" style="stroke:#000000; stroke-linecap:round; stroke-linejoin:round; stroke-width:2; stroke-opacity:0.1; fill:none" points="736.477,1486.45 736.477,47.2441 "/>
<polyline clip-path="url(#clip722)" style="stroke:#000000; stroke-linecap:round; stroke-linejoin:round; stroke-width:2; stroke-opacity:0.1; fill:none" points="1254.52,1486.45 1254.52,47.2441 "/>
<polyline clip-path="url(#clip722)" style="stroke:#000000; stroke-linecap:round; stroke-linejoin:round; stroke-width:2; stroke-opacity:0.1; fill:none" points="1772.55,1486.45 1772.55,47.2441 "/>
<polyline clip-path="url(#clip722)" style="stroke:#000000; stroke-linecap:round; stroke-linejoin:round; stroke-width:2; stroke-opacity:0.1; fill:none" points="2290.59,1486.45 2290.59,47.2441 "/>
<polyline clip-path="url(#clip720)" style="stroke:#000000; stroke-linecap:round; stroke-linejoin:round; stroke-width:4; stroke-opacity:1; fill:none" points="156.274,1486.45 2352.76,1486.45 "/>
<polyline clip-path="url(#clip720)" style="stroke:#000000; stroke-linecap:round; stroke-linejoin:round; stroke-width:4; stroke-opacity:1; fill:none" points="218.439,1486.45 218.439,1467.55 "/>
<polyline clip-path="url(#clip720)" style="stroke:#000000; stroke-linecap:round; stroke-linejoin:round; stroke-width:4; stroke-opacity:1; fill:none" points="736.477,1486.45 736.477,1467.55 "/>
<polyline clip-path="url(#clip720)" style="stroke:#000000; stroke-linecap:round; stroke-linejoin:round; stroke-width:4; stroke-opacity:1; fill:none" points="1254.52,1486.45 1254.52,1467.55 "/>
<polyline clip-path="url(#clip720)" style="stroke:#000000; stroke-linecap:round; stroke-linejoin:round; stroke-width:4; stroke-opacity:1; fill:none" points="1772.55,1486.45 1772.55,1467.55 "/>
<polyline clip-path="url(#clip720)" style="stroke:#000000; stroke-linecap:round; stroke-linejoin:round; stroke-width:4; stroke-opacity:1; fill:none" points="2290.59,1486.45 2290.59,1467.55 "/>
<path clip-path="url(#clip720)" d="M164.967 1532.02 L194.643 1532.02 L194.643 1535.95 L164.967 1535.95 L164.967 1532.02 Z" fill="#000000" fill-rule="nonzero" fill-opacity="1" /><path clip-path="url(#clip720)" d="M205.545 1544.91 L213.184 1544.91 L213.184 1518.55 L204.874 1520.21 L204.874 1515.95 L213.138 1514.29 L217.814 1514.29 L217.814 1544.91 L225.453 1544.91 L225.453 1548.85 L205.545 1548.85 L205.545 1544.91 Z" fill="#000000" fill-rule="nonzero" fill-opacity="1" /><path clip-path="url(#clip720)" d="M234.897 1542.97 L239.781 1542.97 L239.781 1548.85 L234.897 1548.85 L234.897 1542.97 Z" fill="#000000" fill-rule="nonzero" fill-opacity="1" /><path clip-path="url(#clip720)" d="M259.966 1517.37 Q256.355 1517.37 254.527 1520.93 Q252.721 1524.47 252.721 1531.6 Q252.721 1538.71 254.527 1542.27 Q256.355 1545.82 259.966 1545.82 Q263.601 1545.82 265.406 1542.27 Q267.235 1538.71 267.235 1531.6 Q267.235 1524.47 265.406 1520.93 Q263.601 1517.37 259.966 1517.37 M259.966 1513.66 Q265.776 1513.66 268.832 1518.27 Q271.911 1522.85 271.911 1531.6 Q271.911 1540.33 268.832 1544.94 Q265.776 1549.52 259.966 1549.52 Q254.156 1549.52 251.077 1544.94 Q248.022 1540.33 248.022 1531.6 Q248.022 1522.85 251.077 1518.27 Q254.156 1513.66 259.966 1513.66 Z" fill="#000000" fill-rule="nonzero" fill-opacity="1" /><path clip-path="url(#clip720)" d="M683.503 1532.02 L713.178 1532.02 L713.178 1535.95 L683.503 1535.95 L683.503 1532.02 Z" fill="#000000" fill-rule="nonzero" fill-opacity="1" /><path clip-path="url(#clip720)" d="M733.271 1517.37 Q729.66 1517.37 727.831 1520.93 Q726.026 1524.47 726.026 1531.6 Q726.026 1538.71 727.831 1542.27 Q729.66 1545.82 733.271 1545.82 Q736.905 1545.82 738.711 1542.27 Q740.539 1538.71 740.539 1531.6 Q740.539 1524.47 738.711 1520.93 Q736.905 1517.37 733.271 1517.37 M733.271 1513.66 Q739.081 1513.66 742.137 1518.27 Q745.215 1522.85 745.215 1531.6 Q745.215 1540.33 742.137 1544.94 Q739.081 1549.52 733.271 1549.52 Q727.461 1549.52 724.382 1544.94 Q721.327 1540.33 721.327 1531.6 Q721.327 1522.85 724.382 1518.27 Q727.461 1513.66 733.271 1513.66 Z" fill="#000000" fill-rule="nonzero" fill-opacity="1" /><path clip-path="url(#clip720)" d="M753.433 1542.97 L758.317 1542.97 L758.317 1548.85 L753.433 1548.85 L753.433 1542.97 Z" fill="#000000" fill-rule="nonzero" fill-opacity="1" /><path clip-path="url(#clip720)" d="M768.548 1514.29 L786.905 1514.29 L786.905 1518.22 L772.831 1518.22 L772.831 1526.7 Q773.849 1526.35 774.868 1526.19 Q775.886 1526 776.905 1526 Q782.692 1526 786.072 1529.17 Q789.451 1532.34 789.451 1537.76 Q789.451 1543.34 785.979 1546.44 Q782.507 1549.52 776.187 1549.52 Q774.011 1549.52 771.743 1549.15 Q769.498 1548.78 767.09 1548.04 L767.09 1543.34 Q769.173 1544.47 771.396 1545.03 Q773.618 1545.58 776.095 1545.58 Q780.099 1545.58 782.437 1543.48 Q784.775 1541.37 784.775 1537.76 Q784.775 1534.15 782.437 1532.04 Q780.099 1529.94 776.095 1529.94 Q774.22 1529.94 772.345 1530.35 Q770.493 1530.77 768.548 1531.65 L768.548 1514.29 Z" fill="#000000" fill-rule="nonzero" fill-opacity="1" /><path clip-path="url(#clip720)" d="M1231.9 1517.37 Q1228.29 1517.37 1226.46 1520.93 Q1224.65 1524.47 1224.65 1531.6 Q1224.65 1538.71 1226.46 1542.27 Q1228.29 1545.82 1231.9 1545.82 Q1235.53 1545.82 1237.34 1542.27 Q1239.17 1538.71 1239.17 1531.6 Q1239.17 1524.47 1237.34 1520.93 Q1235.53 1517.37 1231.9 1517.37 M1231.9 1513.66 Q1237.71 1513.66 1240.77 1518.27 Q1243.84 1522.85 1243.84 1531.6 Q1243.84 1540.33 1240.77 1544.94 Q1237.71 1549.52 1231.9 1549.52 Q1226.09 1549.52 1223.01 1544.94 Q1219.96 1540.33 1219.96 1531.6 Q1219.96 1522.85 1223.01 1518.27 Q1226.09 1513.66 1231.9 1513.66 Z" fill="#000000" fill-rule="nonzero" fill-opacity="1" /><path clip-path="url(#clip720)" d="M1252.06 1542.97 L1256.95 1542.97 L1256.95 1548.85 L1252.06 1548.85 L1252.06 1542.97 Z" fill="#000000" fill-rule="nonzero" fill-opacity="1" /><path clip-path="url(#clip720)" d="M1277.13 1517.37 Q1273.52 1517.37 1271.69 1520.93 Q1269.89 1524.47 1269.89 1531.6 Q1269.89 1538.71 1271.69 1542.27 Q1273.52 1545.82 1277.13 1545.82 Q1280.76 1545.82 1282.57 1542.27 Q1284.4 1538.71 1284.4 1531.6 Q1284.4 1524.47 1282.57 1520.93 Q1280.76 1517.37 1277.13 1517.37 M1277.13 1513.66 Q1282.94 1513.66 1286 1518.27 Q1289.08 1522.85 1289.08 1531.6 Q1289.08 1540.33 1286 1544.94 Q1282.94 1549.52 1277.13 1549.52 Q1271.32 1549.52 1268.24 1544.94 Q1265.19 1540.33 1265.19 1531.6 Q1265.19 1522.85 1268.24 1518.27 Q1271.32 1513.66 1277.13 1513.66 Z" fill="#000000" fill-rule="nonzero" fill-opacity="1" /><path clip-path="url(#clip720)" d="M1750.44 1517.37 Q1746.82 1517.37 1745 1520.93 Q1743.19 1524.47 1743.19 1531.6 Q1743.19 1538.71 1745 1542.27 Q1746.82 1545.82 1750.44 1545.82 Q1754.07 1545.82 1755.88 1542.27 Q1757.7 1538.71 1757.7 1531.6 Q1757.7 1524.47 1755.88 1520.93 Q1754.07 1517.37 1750.44 1517.37 M1750.44 1513.66 Q1756.25 1513.66 1759.3 1518.27 Q1762.38 1522.85 1762.38 1531.6 Q1762.38 1540.33 1759.3 1544.94 Q1756.25 1549.52 1750.44 1549.52 Q1744.63 1549.52 1741.55 1544.94 Q1738.49 1540.33 1738.49 1531.6 Q1738.49 1522.85 1741.55 1518.27 Q1744.63 1513.66 1750.44 1513.66 Z" fill="#000000" fill-rule="nonzero" fill-opacity="1" /><path clip-path="url(#clip720)" d="M1770.6 1542.97 L1775.48 1542.97 L1775.48 1548.85 L1770.6 1548.85 L1770.6 1542.97 Z" fill="#000000" fill-rule="nonzero" fill-opacity="1" /><path clip-path="url(#clip720)" d="M1785.71 1514.29 L1804.07 1514.29 L1804.07 1518.22 L1790 1518.22 L1790 1526.7 Q1791.01 1526.35 1792.03 1526.19 Q1793.05 1526 1794.07 1526 Q1799.86 1526 1803.24 1529.17 Q1806.62 1532.34 1806.62 1537.76 Q1806.62 1543.34 1803.14 1546.44 Q1799.67 1549.52 1793.35 1549.52 Q1791.18 1549.52 1788.91 1549.15 Q1786.66 1548.78 1784.25 1548.04 L1784.25 1543.34 Q1786.34 1544.47 1788.56 1545.03 Q1790.78 1545.58 1793.26 1545.58 Q1797.26 1545.58 1799.6 1543.48 Q1801.94 1541.37 1801.94 1537.76 Q1801.94 1534.15 1799.6 1532.04 Q1797.26 1529.94 1793.26 1529.94 Q1791.38 1529.94 1789.51 1530.35 Q1787.66 1530.77 1785.71 1531.65 L1785.71 1514.29 Z" fill="#000000" fill-rule="nonzero" fill-opacity="1" /><path clip-path="url(#clip720)" d="M2257.74 1544.91 L2265.38 1544.91 L2265.38 1518.55 L2257.07 1520.21 L2257.07 1515.95 L2265.34 1514.29 L2270.01 1514.29 L2270.01 1544.91 L2277.65 1544.91 L2277.65 1548.85 L2257.74 1548.85 L2257.74 1544.91 Z" fill="#000000" fill-rule="nonzero" fill-opacity="1" /><path clip-path="url(#clip720)" d="M2287.1 1542.97 L2291.98 1542.97 L2291.98 1548.85 L2287.1 1548.85 L2287.1 1542.97 Z" fill="#000000" fill-rule="nonzero" fill-opacity="1" /><path clip-path="url(#clip720)" d="M2312.17 1517.37 Q2308.55 1517.37 2306.73 1520.93 Q2304.92 1524.47 2304.92 1531.6 Q2304.92 1538.71 2306.73 1542.27 Q2308.55 1545.82 2312.17 1545.82 Q2315.8 1545.82 2317.61 1542.27 Q2319.43 1538.71 2319.43 1531.6 Q2319.43 1524.47 2317.61 1520.93 Q2315.8 1517.37 2312.17 1517.37 M2312.17 1513.66 Q2317.98 1513.66 2321.03 1518.27 Q2324.11 1522.85 2324.11 1531.6 Q2324.11 1540.33 2321.03 1544.94 Q2317.98 1549.52 2312.17 1549.52 Q2306.36 1549.52 2303.28 1544.94 Q2300.22 1540.33 2300.22 1531.6 Q2300.22 1522.85 2303.28 1518.27 Q2306.36 1513.66 2312.17 1513.66 Z" fill="#000000" fill-rule="nonzero" fill-opacity="1" /><polyline clip-path="url(#clip722)" style="stroke:#000000; stroke-linecap:round; stroke-linejoin:round; stroke-width:2; stroke-opacity:0.1; fill:none" points="156.274,1248.26 2352.76,1248.26 "/>
<polyline clip-path="url(#clip722)" style="stroke:#000000; stroke-linecap:round; stroke-linejoin:round; stroke-width:2; stroke-opacity:0.1; fill:none" points="156.274,975.96 2352.76,975.96 "/>
<polyline clip-path="url(#clip722)" style="stroke:#000000; stroke-linecap:round; stroke-linejoin:round; stroke-width:2; stroke-opacity:0.1; fill:none" points="156.274,703.66 2352.76,703.66 "/>
<polyline clip-path="url(#clip722)" style="stroke:#000000; stroke-linecap:round; stroke-linejoin:round; stroke-width:2; stroke-opacity:0.1; fill:none" points="156.274,431.36 2352.76,431.36 "/>
<polyline clip-path="url(#clip722)" style="stroke:#000000; stroke-linecap:round; stroke-linejoin:round; stroke-width:2; stroke-opacity:0.1; fill:none" points="156.274,159.06 2352.76,159.06 "/>
<polyline clip-path="url(#clip720)" style="stroke:#000000; stroke-linecap:round; stroke-linejoin:round; stroke-width:4; stroke-opacity:1; fill:none" points="156.274,1486.45 156.274,47.2441 "/>
<polyline clip-path="url(#clip720)" style="stroke:#000000; stroke-linecap:round; stroke-linejoin:round; stroke-width:4; stroke-opacity:1; fill:none" points="156.274,1248.26 175.172,1248.26 "/>
<polyline clip-path="url(#clip720)" style="stroke:#000000; stroke-linecap:round; stroke-linejoin:round; stroke-width:4; stroke-opacity:1; fill:none" points="156.274,975.96 175.172,975.96 "/>
<polyline clip-path="url(#clip720)" style="stroke:#000000; stroke-linecap:round; stroke-linejoin:round; stroke-width:4; stroke-opacity:1; fill:none" points="156.274,703.66 175.172,703.66 "/>
<polyline clip-path="url(#clip720)" style="stroke:#000000; stroke-linecap:round; stroke-linejoin:round; stroke-width:4; stroke-opacity:1; fill:none" points="156.274,431.36 175.172,431.36 "/>
<polyline clip-path="url(#clip720)" style="stroke:#000000; stroke-linecap:round; stroke-linejoin:round; stroke-width:4; stroke-opacity:1; fill:none" points="156.274,159.06 175.172,159.06 "/>
<path clip-path="url(#clip720)" d="M63.0985 1234.06 Q59.4875 1234.06 57.6588 1237.62 Q55.8532 1241.17 55.8532 1248.29 Q55.8532 1255.4 57.6588 1258.97 Q59.4875 1262.51 63.0985 1262.51 Q66.7328 1262.51 68.5383 1258.97 Q70.367 1255.4 70.367 1248.29 Q70.367 1241.17 68.5383 1237.62 Q66.7328 1234.06 63.0985 1234.06 M63.0985 1230.36 Q68.9087 1230.36 71.9642 1234.96 Q75.0429 1239.54 75.0429 1248.29 Q75.0429 1257.02 71.9642 1261.63 Q68.9087 1266.21 63.0985 1266.21 Q57.2884 1266.21 54.2097 1261.63 Q51.1542 1257.02 51.1542 1248.29 Q51.1542 1239.54 54.2097 1234.96 Q57.2884 1230.36 63.0985 1230.36 Z" fill="#000000" fill-rule="nonzero" fill-opacity="1" /><path clip-path="url(#clip720)" d="M83.2605 1259.66 L88.1447 1259.66 L88.1447 1265.54 L83.2605 1265.54 L83.2605 1259.66 Z" fill="#000000" fill-rule="nonzero" fill-opacity="1" /><path clip-path="url(#clip720)" d="M108.33 1234.06 Q104.719 1234.06 102.89 1237.62 Q101.084 1241.17 101.084 1248.29 Q101.084 1255.4 102.89 1258.97 Q104.719 1262.51 108.33 1262.51 Q111.964 1262.51 113.77 1258.97 Q115.598 1255.4 115.598 1248.29 Q115.598 1241.17 113.77 1237.62 Q111.964 1234.06 108.33 1234.06 M108.33 1230.36 Q114.14 1230.36 117.195 1234.96 Q120.274 1239.54 120.274 1248.29 Q120.274 1257.02 117.195 1261.63 Q114.14 1266.21 108.33 1266.21 Q102.52 1266.21 99.4409 1261.63 Q96.3854 1257.02 96.3854 1248.29 Q96.3854 1239.54 99.4409 1234.96 Q102.52 1230.36 108.33 1230.36 Z" fill="#000000" fill-rule="nonzero" fill-opacity="1" /><path clip-path="url(#clip720)" d="M63.7467 961.759 Q60.1356 961.759 58.3069 965.324 Q56.5014 968.865 56.5014 975.995 Q56.5014 983.101 58.3069 986.666 Q60.1356 990.208 63.7467 990.208 Q67.3809 990.208 69.1865 986.666 Q71.0152 983.101 71.0152 975.995 Q71.0152 968.865 69.1865 965.324 Q67.3809 961.759 63.7467 961.759 M63.7467 958.055 Q69.5568 958.055 72.6124 962.662 Q75.6911 967.245 75.6911 975.995 Q75.6911 984.722 72.6124 989.328 Q69.5568 993.911 63.7467 993.911 Q57.9365 993.911 54.8578 989.328 Q51.8023 984.722 51.8023 975.995 Q51.8023 967.245 54.8578 962.662 Q57.9365 958.055 63.7467 958.055 Z" fill="#000000" fill-rule="nonzero" fill-opacity="1" /><path clip-path="url(#clip720)" d="M83.9086 987.361 L88.7928 987.361 L88.7928 993.24 L83.9086 993.24 L83.9086 987.361 Z" fill="#000000" fill-rule="nonzero" fill-opacity="1" /><path clip-path="url(#clip720)" d="M113.145 974.606 Q116.501 975.324 118.376 977.592 Q120.274 979.861 120.274 983.194 Q120.274 988.31 116.756 991.111 Q113.237 993.911 106.756 993.911 Q104.58 993.911 102.265 993.472 Q99.9733 993.055 97.5197 992.198 L97.5197 987.685 Q99.4641 988.819 101.779 989.398 Q104.094 989.976 106.617 989.976 Q111.015 989.976 113.307 988.24 Q115.621 986.504 115.621 983.194 Q115.621 980.138 113.469 978.425 Q111.339 976.689 107.52 976.689 L103.492 976.689 L103.492 972.847 L107.705 972.847 Q111.154 972.847 112.983 971.481 Q114.811 970.092 114.811 967.5 Q114.811 964.838 112.913 963.425 Q111.038 961.99 107.52 961.99 Q105.598 961.99 103.399 962.407 Q101.2 962.824 98.5613 963.703 L98.5613 959.537 Q101.223 958.796 103.538 958.426 Q105.876 958.055 107.936 958.055 Q113.26 958.055 116.362 960.486 Q119.464 962.893 119.464 967.013 Q119.464 969.884 117.82 971.875 Q116.177 973.842 113.145 974.606 Z" fill="#000000" fill-rule="nonzero" fill-opacity="1" /><path clip-path="url(#clip720)" d="M62.9365 689.459 Q59.3254 689.459 57.4967 693.024 Q55.6912 696.565 55.6912 703.695 Q55.6912 710.801 57.4967 714.366 Q59.3254 717.908 62.9365 717.908 Q66.5707 717.908 68.3763 714.366 Q70.205 710.801 70.205 703.695 Q70.205 696.565 68.3763 693.024 Q66.5707 689.459 62.9365 689.459 M62.9365 685.755 Q68.7467 685.755 71.8022 690.362 Q74.8809 694.945 74.8809 703.695 Q74.8809 712.422 71.8022 717.028 Q68.7467 721.611 62.9365 721.611 Q57.1264 721.611 54.0477 717.028 Q50.9921 712.422 50.9921 703.695 Q50.9921 694.945 54.0477 690.362 Q57.1264 685.755 62.9365 685.755 Z" fill="#000000" fill-rule="nonzero" fill-opacity="1" /><path clip-path="url(#clip720)" d="M83.0984 715.061 L87.9827 715.061 L87.9827 720.94 L83.0984 720.94 L83.0984 715.061 Z" fill="#000000" fill-rule="nonzero" fill-opacity="1" /><path clip-path="url(#clip720)" d="M108.746 701.797 Q105.598 701.797 103.746 703.949 Q101.918 706.102 101.918 709.852 Q101.918 713.579 103.746 715.755 Q105.598 717.908 108.746 717.908 Q111.895 717.908 113.723 715.755 Q115.575 713.579 115.575 709.852 Q115.575 706.102 113.723 703.949 Q111.895 701.797 108.746 701.797 M118.029 687.144 L118.029 691.403 Q116.27 690.57 114.464 690.13 Q112.682 689.69 110.922 689.69 Q106.293 689.69 103.839 692.815 Q101.409 695.94 101.061 702.26 Q102.427 700.246 104.487 699.181 Q106.547 698.093 109.024 698.093 Q114.233 698.093 117.242 701.264 Q120.274 704.412 120.274 709.852 Q120.274 715.176 117.126 718.394 Q113.978 721.611 108.746 721.611 Q102.751 721.611 99.5798 717.028 Q96.4085 712.422 96.4085 703.695 Q96.4085 695.5 100.297 690.639 Q104.186 685.755 110.737 685.755 Q112.496 685.755 114.279 686.102 Q116.084 686.45 118.029 687.144 Z" fill="#000000" fill-rule="nonzero" fill-opacity="1" /><path clip-path="url(#clip720)" d="M63.2837 417.159 Q59.6726 417.159 57.8439 420.724 Q56.0384 424.265 56.0384 431.395 Q56.0384 438.501 57.8439 442.066 Q59.6726 445.608 63.2837 445.608 Q66.918 445.608 68.7235 442.066 Q70.5522 438.501 70.5522 431.395 Q70.5522 424.265 68.7235 420.724 Q66.918 417.159 63.2837 417.159 M63.2837 413.455 Q69.0939 413.455 72.1494 418.062 Q75.2281 422.645 75.2281 431.395 Q75.2281 440.122 72.1494 444.728 Q69.0939 449.311 63.2837 449.311 Q57.4736 449.311 54.3949 444.728 Q51.3393 440.122 51.3393 431.395 Q51.3393 422.645 54.3949 418.062 Q57.4736 413.455 63.2837 413.455 Z" fill="#000000" fill-rule="nonzero" fill-opacity="1" /><path clip-path="url(#clip720)" d="M83.4457 442.761 L88.3299 442.761 L88.3299 448.64 L83.4457 448.64 L83.4457 442.761 Z" fill="#000000" fill-rule="nonzero" fill-opacity="1" /><path clip-path="url(#clip720)" d="M98.6539 447.923 L98.6539 443.663 Q100.413 444.497 102.219 444.936 Q104.024 445.376 105.76 445.376 Q110.39 445.376 112.82 442.274 Q115.274 439.149 115.621 432.807 Q114.279 434.798 112.219 435.862 Q110.158 436.927 107.658 436.927 Q102.473 436.927 99.4409 433.802 Q96.4317 430.654 96.4317 425.214 Q96.4317 419.89 99.5798 416.673 Q102.728 413.455 107.959 413.455 Q113.955 413.455 117.103 418.062 Q120.274 422.645 120.274 431.395 Q120.274 439.566 116.385 444.45 Q112.52 449.311 105.969 449.311 Q104.209 449.311 102.404 448.964 Q100.598 448.617 98.6539 447.923 M107.959 433.27 Q111.108 433.27 112.936 431.117 Q114.788 428.964 114.788 425.214 Q114.788 421.487 112.936 419.335 Q111.108 417.159 107.959 417.159 Q104.811 417.159 102.959 419.335 Q101.131 421.487 101.131 425.214 Q101.131 428.964 102.959 431.117 Q104.811 433.27 107.959 433.27 Z" fill="#000000" fill-rule="nonzero" fill-opacity="1" /><path clip-path="url(#clip720)" d="M55.506 172.405 L63.1448 172.405 L63.1448 146.039 L54.8347 147.706 L54.8347 143.447 L63.0985 141.78 L67.7744 141.78 L67.7744 172.405 L75.4133 172.405 L75.4133 176.34 L55.506 176.34 L55.506 172.405 Z" fill="#000000" fill-rule="nonzero" fill-opacity="1" /><path clip-path="url(#clip720)" d="M84.8577 170.461 L89.7419 170.461 L89.7419 176.34 L84.8577 176.34 L84.8577 170.461 Z" fill="#000000" fill-rule="nonzero" fill-opacity="1" /><path clip-path="url(#clip720)" d="M103.955 172.405 L120.274 172.405 L120.274 176.34 L98.3298 176.34 L98.3298 172.405 Q100.992 169.65 105.575 165.021 Q110.182 160.368 111.362 159.025 Q113.608 156.502 114.487 154.766 Q115.39 153.007 115.39 151.317 Q115.39 148.562 113.445 146.826 Q111.524 145.09 108.422 145.09 Q106.223 145.09 103.77 145.854 Q101.339 146.618 98.5613 148.169 L98.5613 143.447 Q101.385 142.313 103.839 141.734 Q106.293 141.155 108.33 141.155 Q113.7 141.155 116.895 143.84 Q120.089 146.525 120.089 151.016 Q120.089 153.146 119.279 155.067 Q118.492 156.965 116.385 159.558 Q115.807 160.229 112.705 163.447 Q109.603 166.641 103.955 172.405 Z" fill="#000000" fill-rule="nonzero" fill-opacity="1" /><polyline clip-path="url(#clip722)" style="stroke:#009af9; stroke-linecap:round; stroke-linejoin:round; stroke-width:16; stroke-opacity:1; fill:none" stroke-dasharray="8, 16" points="218.439,1111.66 228.852,1102.78 239.264,1089.02 249.677,1075.23 260.09,1066.62 270.503,1066.37 280.916,1074.96 291.329,1091 301.741,1112.54 312.154,1137.92 322.567,1165.97 332.98,1195.9 343.393,1227.08 353.805,1258.88 364.218,1290.69 374.631,1321.82 385.044,1351.38 395.457,1378.15 405.87,1400.43 416.282,1416.43 426.695,1425.11 437.108,1427.07 447.521,1424.09 457.934,1417.69 468.347,1407.79 478.759,1392.94 489.172,1371.84 499.585,1344.78 509.998,1313.63 520.411,1280.71 530.824,1247.72 541.236,1215.44 551.649,1184.29 562.062,1154.9 572.475,1128.26 582.888,1105.47 593.301,1087.42 603.713,1074.68 614.126,1067.56 624.539,1066.24 634.952,1070.85 645.365,1081.38 655.777,1097.55 666.19,1118.63 676.603,1143.37 687.016,1170.34 697.429,1198.8 707.842,1229.37 718.254,1263.4 728.667,1300.72 739.08,1337.57 749.493,1367.93 759.906,1387.97 770.319,1399.35 780.731,1407.08 791.144,1413.94 801.557,1420.55 811.97,1427.97 822.383,1429.35 832.796,1409.28 843.208,1379.04 853.621,1363.27 864.034,1353.48 874.447,1330.67 884.86,1290.13 895.273,1239.81 905.685,1193.16 916.098,1161.63 926.511,1145.21 936.924,1122.98 947.337,1065.82 957.749,1007.99 968.162,1019.22 978.575,1064.03 988.988,1068.84 999.401,1049.65 1009.81,1070.43 1020.23,1102.47 1030.64,1111.83 1041.05,1119.79 1051.46,1159.14 1061.88,1210.94 1072.29,1219.77 1082.7,1189.81 1093.12,1222.3 1103.53,1323.95 1113.94,1369.3 1124.35,1371.43 1134.77,1393.81 1145.18,1418.66 1155.59,1424.92 1166.01,1412.22 1176.42,1399.07 1186.83,1403.15 1197.24,1423.83 1207.66,1445.72 1218.07,1442.81 1228.48,1377.09 1238.9,1208.82 1249.31,937.174 1259.72,636.326 1270.13,409.576 1280.55,298.875 1290.96,275.093 1301.37,296.334 1311.79,335.283 1322.2,368.048 1332.61,370.423 1343.02,337.142 1353.44,308.489 1363.85,336.687 1374.26,379.708 1384.68,372.883 1395.09,344.481 1405.5,333.823 1415.91,324.589 1426.33,314.724 1436.74,339.817 1447.15,398.047 1457.57,423.951 1467.98,389.331 1478.39,326.709 1488.8,280.462 1499.22,268.856 1509.63,284.5 1520.04,318.637 1530.45,358.292 1540.87,384.398 1551.28,393.653 1561.69,396.069 1572.11,397.833 1582.52,396.468 1592.93,379.071 1603.34,328.427 1613.76,249.079 1624.17,191.795 1634.58,210.505 1645,292.864 1655.41,386.019 1665.82,451.927 1676.23,475.566 1686.65,455.322 1697.06,398.396 1707.47,320.786 1717.89,247.105 1728.3,204.458 1738.71,209.018 1749.12,255.758 1759.54,323.328 1769.95,388.56 1780.36,435.915 1790.78,458.234 1801.19,453.975 1811.6,424.71 1822.01,373.978 1832.43,308.188 1842.84,239.943 1853.25,190.988 1863.67,187.261 1874.08,241.453 1884.49,336.196 1894.9,430.852 1905.32,489.062 1915.73,497.72 1926.14,464.33 1936.56,404.791 1946.97,334.104 1957.38,263.82 1967.79,204.845 1978.21,171.894 1988.62,183.441 1999.03,250.152 2009.45,357.06 2019.86,464.03 2030.27,532.119 2040.68,544.566 2051.1,503.025 2061.51,417.133 2071.92,304.666 2082.33,196.147 2092.75,128.144 2103.16,124.086 2113.57,182.385 2123.99,282.75 2134.4,398.403 2144.81,502.073 2155.22,566.346 2165.64,564.847 2176.05,481.983 2186.46,337.038 2196.88,199.893 2207.29,142.516 2217.7,167.671 2228.11,228.218 2238.53,286.501 2248.94,330.28 2259.35,365.459 2269.77,408.683 2280.18,474.742 2290.59,563.469 "/>
<polyline clip-path="url(#clip722)" style="stroke:#e26f46; stroke-linecap:round; stroke-linejoin:round; stroke-width:4; stroke-opacity:1; fill:none" points="218.439,1111.93 228.852,1092.59 239.264,1078.33 249.677,1069.61 260.09,1066.73 270.503,1069.77 280.916,1078.63 291.329,1093.03 301.741,1112.5 312.154,1136.4 322.567,1163.95 332.98,1194.25 343.393,1226.32 353.805,1259.1 364.218,1291.52 374.631,1322.54 385.044,1351.13 395.457,1376.36 405.87,1397.41 416.282,1413.6 426.695,1424.38 437.108,1429.42 447.521,1428.55 457.934,1421.79 468.347,1409.37 478.759,1391.69 489.172,1369.33 499.585,1343.02 509.998,1313.62 520.411,1282.08 530.824,1249.44 541.236,1216.76 551.649,1185.11 562.062,1155.52 572.475,1128.95 582.888,1106.28 593.301,1088.25 603.713,1075.43 614.126,1068.26 624.539,1066.96 634.952,1071.58 645.365,1081.97 655.777,1097.78 666.19,1118.5 676.603,1143.46 687.016,1171.84 697.429,1202.71 707.842,1235.07 718.254,1267.86 728.667,1300.01 739.08,1330.47 749.493,1358.25 759.906,1382.44 770.319,1402.25 780.731,1417.03 791.144,1426.31 801.557,1429.77 811.97,1427.31 822.383,1419.01 832.796,1405.13 843.208,1386.13 853.621,1362.64 864.034,1335.41 874.447,1305.34 884.86,1273.4 895.273,1240.64 905.685,1208.13 916.098,1176.93 926.511,1148.06 936.924,1122.46 947.337,1100.97 957.749,1084.28 968.162,1072.94 978.575,1067.33 988.988,1067.62 999.401,1073.81 1009.81,1085.69 1020.23,1102.87 1030.64,1124.81 1041.05,1150.77 1051.46,1179.91 1061.88,1211.28 1072.29,1243.86 1082.7,1276.58 1093.12,1308.38 1103.53,1338.22 1113.94,1365.12 1124.35,1388.21 1134.77,1406.73 1145.18,1420.07 1155.59,1427.81 1166.01,1429.69 1176.42,1425.65 1186.83,1415.82 1197.24,1400.52 1207.66,1380.25 1218.07,1355.67 1228.48,1327.59 1238.9,1296.92 1249.31,1264.66 1259.72,339.275 1270.13,337.775 1280.55,339.14 1290.96,343.686 1301.37,350.017 1311.79,355.461 1322.2,357.073 1332.61,352.884 1343.02,342.9 1353.44,329.44 1363.85,316.632 1374.26,309.149 1384.68,310.585 1395.09,322.001 1405.5,341.203 1415.91,363.057 1426.33,380.852 1436.74,388.359 1447.15,381.933 1457.57,361.995 1467.98,333.318 1478.39,303.928 1488.8,282.864 1499.22,277.407 1509.63,290.635 1520.04,320.106 1530.45,358.166 1540.87,393.919 1551.28,416.342 1561.69,417.67 1572.11,396.007 1582.52,356.305 1592.93,309.309 1603.34,268.657 1613.76,246.926 1624.17,251.758 1634.58,283.263 1645,333.56 1655.41,388.697 1665.82,432.526 1676.23,451.422 1686.65,438.5 1697.06,396.009 1707.47,335.108 1717.89,272.959 1728.3,227.896 1738.71,214.018 1749.12,236.807 1759.54,291.124 1769.95,362.28 1780.36,429.995 1790.78,474.173 1801.19,480.865 1811.6,446.634 1822.01,379.98 1832.43,299.28 1842.84,227.733 1853.25,186.688 1863.67,189.283 1874.08,236.285 1884.49,315.433 1894.9,404.607 1905.32,477.998 1915.73,513.586 1926.14,499.728 1936.56,438.915 1946.97,347.483 1957.38,251.246 1967.79,178.211 1978.21,150.43 1988.62,177.353 1999.03,252.694 2009.45,355.821 2019.86,457.391 2030.27,527.697 2040.68,545.356 2051.1,503.792 2061.51,413.558 2071.92,299.701 2082.33,194.821 2092.75,129.734 2103.16,124.425 2113.57,181.934 2123.99,287.05 2134.4,410.301 2144.81,516.216 2155.22,573.527 2165.64,564.402 2176.05,489.954 2186.46,370.358 2196.88,239.402 2207.29,134.946 2217.7,87.9763 2228.11,113.421 2238.53,205.452 2248.94,338.73 2259.35,475.369 2269.77,575.709 2280.18,609.817 2290.59,566.415 "/>
<path clip-path="url(#clip720)" d="M229.49 250.738 L675.966 250.738 L675.966 95.2176 L229.49 95.2176  Z" fill="#ffffff" fill-rule="evenodd" fill-opacity="1"/>
<polyline clip-path="url(#clip720)" style="stroke:#000000; stroke-linecap:round; stroke-linejoin:round; stroke-width:4; stroke-opacity:1; fill:none" points="229.49,250.738 675.966,250.738 675.966,95.2176 229.49,95.2176 229.49,250.738 "/>
<polyline clip-path="url(#clip720)" style="stroke:#009af9; stroke-linecap:round; stroke-linejoin:round; stroke-width:16; stroke-opacity:1; fill:none" stroke-dasharray="8, 16" points="253.896,147.058 400.328,147.058 "/>
<path clip-path="url(#clip720)" d="M429.409 133.62 L429.409 146.606 L435.289 146.606 Q438.552 146.606 440.335 144.916 Q442.117 143.227 442.117 140.102 Q442.117 137 440.335 135.31 Q438.552 133.62 435.289 133.62 L429.409 133.62 M424.733 129.778 L435.289 129.778 Q441.099 129.778 444.062 132.416 Q447.048 135.032 447.048 140.102 Q447.048 145.217 444.062 147.833 Q441.099 150.449 435.289 150.449 L429.409 150.449 L429.409 164.338 L424.733 164.338 L424.733 129.778 Z" fill="#000000" fill-rule="nonzero" fill-opacity="1" /><path clip-path="url(#clip720)" d="M467.325 142.393 Q466.608 141.977 465.751 141.791 Q464.918 141.583 463.899 141.583 Q460.288 141.583 458.344 143.944 Q456.423 146.282 456.423 150.68 L456.423 164.338 L452.14 164.338 L452.14 138.412 L456.423 138.412 L456.423 142.44 Q457.765 140.078 459.918 138.944 Q462.071 137.787 465.149 137.787 Q465.589 137.787 466.122 137.856 Q466.654 137.903 467.302 138.018 L467.325 142.393 Z" fill="#000000" fill-rule="nonzero" fill-opacity="1" /><path clip-path="url(#clip720)" d="M492.927 150.31 L492.927 152.393 L473.344 152.393 Q473.622 156.791 475.983 159.106 Q478.367 161.398 482.603 161.398 Q485.057 161.398 487.348 160.796 Q489.663 160.194 491.932 158.99 L491.932 163.018 Q489.64 163.99 487.233 164.5 Q484.825 165.009 482.348 165.009 Q476.145 165.009 472.511 161.398 Q468.899 157.787 468.899 151.629 Q468.899 145.264 472.325 141.537 Q475.774 137.787 481.608 137.787 Q486.839 137.787 489.872 141.166 Q492.927 144.523 492.927 150.31 M488.668 149.06 Q488.622 145.565 486.7 143.481 Q484.802 141.398 481.654 141.398 Q478.089 141.398 475.936 143.412 Q473.807 145.426 473.483 149.083 L488.668 149.06 Z" fill="#000000" fill-rule="nonzero" fill-opacity="1" /><path clip-path="url(#clip720)" d="M516.978 142.347 L516.978 128.319 L521.237 128.319 L521.237 164.338 L516.978 164.338 L516.978 160.449 Q515.635 162.763 513.575 163.898 Q511.538 165.009 508.668 165.009 Q503.969 165.009 501.006 161.259 Q498.066 157.509 498.066 151.398 Q498.066 145.287 501.006 141.537 Q503.969 137.787 508.668 137.787 Q511.538 137.787 513.575 138.921 Q515.635 140.032 516.978 142.347 M502.464 151.398 Q502.464 156.097 504.385 158.782 Q506.33 161.444 509.709 161.444 Q513.089 161.444 515.033 158.782 Q516.978 156.097 516.978 151.398 Q516.978 146.699 515.033 144.037 Q513.089 141.352 509.709 141.352 Q506.33 141.352 504.385 144.037 Q502.464 146.699 502.464 151.398 Z" fill="#000000" fill-rule="nonzero" fill-opacity="1" /><path clip-path="url(#clip720)" d="M530.01 138.412 L534.269 138.412 L534.269 164.338 L530.01 164.338 L530.01 138.412 M530.01 128.319 L534.269 128.319 L534.269 133.713 L530.01 133.713 L530.01 128.319 Z" fill="#000000" fill-rule="nonzero" fill-opacity="1" /><path clip-path="url(#clip720)" d="M561.839 139.407 L561.839 143.389 Q560.033 142.393 558.205 141.907 Q556.399 141.398 554.547 141.398 Q550.404 141.398 548.112 144.037 Q545.82 146.652 545.82 151.398 Q545.82 156.143 548.112 158.782 Q550.404 161.398 554.547 161.398 Q556.399 161.398 558.205 160.912 Q560.033 160.402 561.839 159.407 L561.839 163.342 Q560.056 164.176 558.135 164.592 Q556.237 165.009 554.084 165.009 Q548.228 165.009 544.779 161.328 Q541.33 157.648 541.33 151.398 Q541.33 145.055 544.802 141.421 Q548.297 137.787 554.362 137.787 Q556.33 137.787 558.205 138.203 Q560.08 138.597 561.839 139.407 Z" fill="#000000" fill-rule="nonzero" fill-opacity="1" /><path clip-path="url(#clip720)" d="M573.459 131.051 L573.459 138.412 L582.232 138.412 L582.232 141.722 L573.459 141.722 L573.459 155.796 Q573.459 158.967 574.316 159.87 Q575.195 160.773 577.857 160.773 L582.232 160.773 L582.232 164.338 L577.857 164.338 Q572.927 164.338 571.052 162.509 Q569.177 160.657 569.177 155.796 L569.177 141.722 L566.052 141.722 L566.052 138.412 L569.177 138.412 L569.177 131.051 L573.459 131.051 Z" fill="#000000" fill-rule="nonzero" fill-opacity="1" /><path clip-path="url(#clip720)" d="M587.834 138.412 L592.093 138.412 L592.093 164.338 L587.834 164.338 L587.834 138.412 M587.834 128.319 L592.093 128.319 L592.093 133.713 L587.834 133.713 L587.834 128.319 Z" fill="#000000" fill-rule="nonzero" fill-opacity="1" /><path clip-path="url(#clip720)" d="M611.051 141.398 Q607.626 141.398 605.635 144.083 Q603.644 146.745 603.644 151.398 Q603.644 156.051 605.612 158.736 Q607.602 161.398 611.051 161.398 Q614.454 161.398 616.445 158.713 Q618.436 156.027 618.436 151.398 Q618.436 146.791 616.445 144.106 Q614.454 141.398 611.051 141.398 M611.051 137.787 Q616.607 137.787 619.778 141.398 Q622.95 145.009 622.95 151.398 Q622.95 157.764 619.778 161.398 Q616.607 165.009 611.051 165.009 Q605.473 165.009 602.302 161.398 Q599.153 157.764 599.153 151.398 Q599.153 145.009 602.302 141.398 Q605.473 137.787 611.051 137.787 Z" fill="#000000" fill-rule="nonzero" fill-opacity="1" /><path clip-path="url(#clip720)" d="M651.561 148.689 L651.561 164.338 L647.301 164.338 L647.301 148.828 Q647.301 145.148 645.866 143.319 Q644.431 141.49 641.561 141.49 Q638.112 141.49 636.121 143.69 Q634.13 145.889 634.13 149.685 L634.13 164.338 L629.848 164.338 L629.848 138.412 L634.13 138.412 L634.13 142.44 Q635.658 140.102 637.718 138.944 Q639.801 137.787 642.51 137.787 Q646.977 137.787 649.269 140.565 Q651.561 143.319 651.561 148.689 Z" fill="#000000" fill-rule="nonzero" fill-opacity="1" /><polyline clip-path="url(#clip720)" style="stroke:#e26f46; stroke-linecap:round; stroke-linejoin:round; stroke-width:4; stroke-opacity:1; fill:none" points="253.896,198.898 400.328,198.898 "/>
<path clip-path="url(#clip720)" d="M424.733 181.618 L446.585 181.618 L446.585 185.553 L429.409 185.553 L429.409 195.784 L445.867 195.784 L445.867 199.719 L429.409 199.719 L429.409 212.242 L447.001 212.242 L447.001 216.178 L424.733 216.178 L424.733 181.618 Z" fill="#000000" fill-rule="nonzero" fill-opacity="1" /><path clip-path="url(#clip720)" d="M476.052 190.252 L466.677 202.867 L476.538 216.178 L471.515 216.178 L463.969 205.992 L456.423 216.178 L451.4 216.178 L461.469 202.613 L452.256 190.252 L457.279 190.252 L464.154 199.488 L471.029 190.252 L476.052 190.252 Z" fill="#000000" fill-rule="nonzero" fill-opacity="1" /><path clip-path="url(#clip720)" d="M494.339 203.145 Q489.177 203.145 487.186 204.326 Q485.196 205.506 485.196 208.354 Q485.196 210.622 486.677 211.965 Q488.182 213.284 490.751 213.284 Q494.293 213.284 496.422 210.784 Q498.575 208.261 498.575 204.094 L498.575 203.145 L494.339 203.145 M502.834 201.386 L502.834 216.178 L498.575 216.178 L498.575 212.242 Q497.117 214.603 494.941 215.738 Q492.765 216.849 489.617 216.849 Q485.635 216.849 483.274 214.627 Q480.936 212.381 480.936 208.631 Q480.936 204.256 483.853 202.034 Q486.793 199.812 492.603 199.812 L498.575 199.812 L498.575 199.395 Q498.575 196.455 496.631 194.858 Q494.71 193.238 491.214 193.238 Q488.992 193.238 486.885 193.77 Q484.779 194.303 482.835 195.367 L482.835 191.432 Q485.173 190.53 487.372 190.09 Q489.571 189.627 491.654 189.627 Q497.279 189.627 500.057 192.543 Q502.834 195.46 502.834 201.386 Z" fill="#000000" fill-rule="nonzero" fill-opacity="1" /><path clip-path="url(#clip720)" d="M530.265 191.247 L530.265 195.229 Q528.459 194.233 526.631 193.747 Q524.825 193.238 522.973 193.238 Q518.83 193.238 516.538 195.877 Q514.246 198.492 514.246 203.238 Q514.246 207.983 516.538 210.622 Q518.83 213.238 522.973 213.238 Q524.825 213.238 526.631 212.752 Q528.459 212.242 530.265 211.247 L530.265 215.182 Q528.482 216.016 526.561 216.432 Q524.663 216.849 522.51 216.849 Q516.654 216.849 513.205 213.168 Q509.756 209.488 509.756 203.238 Q509.756 196.895 513.228 193.261 Q516.723 189.627 522.788 189.627 Q524.756 189.627 526.631 190.043 Q528.506 190.437 530.265 191.247 Z" fill="#000000" fill-rule="nonzero" fill-opacity="1" /><path clip-path="url(#clip720)" d="M541.885 182.891 L541.885 190.252 L550.658 190.252 L550.658 193.562 L541.885 193.562 L541.885 207.636 Q541.885 210.807 542.742 211.71 Q543.621 212.613 546.283 212.613 L550.658 212.613 L550.658 216.178 L546.283 216.178 Q541.353 216.178 539.478 214.349 Q537.603 212.497 537.603 207.636 L537.603 193.562 L534.478 193.562 L534.478 190.252 L537.603 190.252 L537.603 182.891 L541.885 182.891 Z" fill="#000000" fill-rule="nonzero" fill-opacity="1" /></svg>
