<?xml version="1.0" encoding="utf-8"?>
<svg xmlns="http://www.w3.org/2000/svg" xmlns:xlink="http://www.w3.org/1999/xlink" width="600" height="400" viewBox="0 0 2400 1600">
<defs>
  <clipPath id="clip210">
    <rect x="0" y="0" width="2400" height="1600"/>
  </clipPath>
</defs>
<path clip-path="url(#clip210)" d="M0 1600 L2400 1600 L2400 0 L0 0  Z" fill="#ffffff" fill-rule="evenodd" fill-opacity="1"/>
<defs>
  <clipPath id="clip211">
    <rect x="480" y="0" width="1681" height="1600"/>
  </clipPath>
</defs>
<path clip-path="url(#clip210)" d="M156.274 1486.45 L2352.76 1486.45 L2352.76 47.2441 L156.274 47.2441  Z" fill="#ffffff" fill-rule="evenodd" fill-opacity="1"/>
<defs>
  <clipPath id="clip212">
    <rect x="156" y="47" width="2197" height="1440"/>
  </clipPath>
</defs>
<polyline clip-path="url(#clip212)" style="stroke:#000000; stroke-linecap:round; stroke-linejoin:round; stroke-width:2; stroke-opacity:0.1; fill:none" points="218.439,1486.45 218.439,47.2441 "/>
<polyline clip-path="url(#clip212)" style="stroke:#000000; stroke-linecap:round; stroke-linejoin:round; stroke-width:2; stroke-opacity:0.1; fill:none" points="736.477,1486.45 736.477,47.2441 "/>
<polyline clip-path="url(#clip212)" style="stroke:#000000; stroke-linecap:round; stroke-linejoin:round; stroke-width:2; stroke-opacity:0.1; fill:none" points="1254.52,1486.45 1254.52,47.2441 "/>
<polyline clip-path="url(#clip212)" style="stroke:#000000; stroke-linecap:round; stroke-linejoin:round; stroke-width:2; stroke-opacity:0.1; fill:none" points="1772.55,1486.45 1772.55,47.2441 "/>
<polyline clip-path="url(#clip212)" style="stroke:#000000; stroke-linecap:round; stroke-linejoin:round; stroke-width:2; stroke-opacity:0.1; fill:none" points="2290.59,1486.45 2290.59,47.2441 "/>
<polyline clip-path="url(#clip210)" style="stroke:#000000; stroke-linecap:round; stroke-linejoin:round; stroke-width:4; stroke-opacity:1; fill:none" points="156.274,1486.45 2352.76,1486.45 "/>
<polyline clip-path="url(#clip210)" style="stroke:#000000; stroke-linecap:round; stroke-linejoin:round; stroke-width:4; stroke-opacity:1; fill:none" points="218.439,1486.45 218.439,1467.55 "/>
<polyline clip-path="url(#clip210)" style="stroke:#000000; stroke-linecap:round; stroke-linejoin:round; stroke-width:4; stroke-opacity:1; fill:none" points="736.477,1486.45 736.477,1467.55 "/>
<polyline clip-path="url(#clip210)" style="stroke:#000000; stroke-linecap:round; stroke-linejoin:round; stroke-width:4; stroke-opacity:1; fill:none" points="1254.52,1486.45 1254.52,1467.55 "/>
<polyline clip-path="url(#clip210)" style="stroke:#000000; stroke-linecap:round; stroke-linejoin:round; stroke-width:4; stroke-opacity:1; fill:none" points="1772.55,1486.45 1772.55,1467.55 "/>
<polyline clip-path="url(#clip210)" style="stroke:#000000; stroke-linecap:round; stroke-linejoin:round; stroke-width:4; stroke-opacity:1; fill:none" points="2290.59,1486.45 2290.59,1467.55 "/>
<path clip-path="url(#clip210)" d="M164.967 1532.02 L194.643 1532.02 L194.643 1535.95 L164.967 1535.95 L164.967 1532.02 Z" fill="#000000" fill-rule="nonzero" fill-opacity="1" /><path clip-path="url(#clip210)" d="M205.545 1544.91 L213.184 1544.91 L213.184 1518.55 L204.874 1520.21 L204.874 1515.95 L213.138 1514.29 L217.814 1514.29 L217.814 1544.91 L225.453 1544.91 L225.453 1548.85 L205.545 1548.85 L205.545 1544.91 Z" fill="#000000" fill-rule="nonzero" fill-opacity="1" /><path clip-path="url(#clip210)" d="M234.897 1542.97 L239.781 1542.97 L239.781 1548.85 L234.897 1548.85 L234.897 1542.97 Z" fill="#000000" fill-rule="nonzero" fill-opacity="1" /><path clip-path="url(#clip210)" d="M259.966 1517.37 Q256.355 1517.37 254.527 1520.93 Q252.721 1524.47 252.721 1531.6 Q252.721 1538.71 254.527 1542.27 Q256.355 1545.82 259.966 1545.82 Q263.601 1545.82 265.406 1542.27 Q267.235 1538.71 267.235 1531.6 Q267.235 1524.47 265.406 1520.93 Q263.601 1517.37 259.966 1517.37 M259.966 1513.66 Q265.776 1513.66 268.832 1518.27 Q271.911 1522.85 271.911 1531.6 Q271.911 1540.33 268.832 1544.94 Q265.776 1549.52 259.966 1549.52 Q254.156 1549.52 251.077 1544.94 Q248.022 1540.33 248.022 1531.6 Q248.022 1522.85 251.077 1518.27 Q254.156 1513.66 259.966 1513.66 Z" fill="#000000" fill-rule="nonzero" fill-opacity="1" /><path clip-path="url(#clip210)" d="M683.503 1532.02 L713.178 1532.02 L713.178 1535.95 L683.503 1535.95 L683.503 1532.02 Z" fill="#000000" fill-rule="nonzero" fill-opacity="1" /><path clip-path="url(#clip210)" d="M733.271 1517.37 Q729.66 1517.37 727.831 1520.93 Q726.026 1524.47 726.026 1531.6 Q726.026 1538.71 727.831 1542.27 Q729.66 1545.82 733.271 1545.82 Q736.905 1545.82 738.711 1542.27 Q740.539 1538.71 740.539 1531.6 Q740.539 1524.47 738.711 1520.93 Q736.905 1517.37 733.271 1517.37 M733.271 1513.66 Q739.081 1513.66 742.137 1518.27 Q745.215 1522.85 745.215 1531.6 Q745.215 1540.33 742.137 1544.94 Q739.081 1549.52 733.271 1549.52 Q727.461 1549.52 724.382 1544.94 Q721.327 1540.33 721.327 1531.6 Q721.327 1522.85 724.382 1518.27 Q727.461 1513.66 733.271 1513.66 Z" fill="#000000" fill-rule="nonzero" fill-opacity="1" /><path clip-path="url(#clip210)" d="M753.433 1542.97 L758.317 1542.97 L758.317 1548.85 L753.433 1548.85 L753.433 1542.97 Z" fill="#000000" fill-rule="nonzero" fill-opacity="1" /><path clip-path="url(#clip210)" d="M768.548 1514.29 L786.905 1514.29 L786.905 1518.22 L772.831 1518.22 L772.831 1526.7 Q773.849 1526.35 774.868 1526.19 Q775.886 1526 776.905 1526 Q782.692 1526 786.072 1529.17 Q789.451 1532.34 789.451 1537.76 Q789.451 1543.34 785.979 1546.44 Q782.507 1549.52 776.187 1549.52 Q774.011 1549.52 771.743 1549.15 Q769.498 1548.78 767.09 1548.04 L767.09 1543.34 Q769.173 1544.47 771.396 1545.03 Q773.618 1545.58 776.095 1545.58 Q780.099 1545.58 782.437 1543.48 Q784.775 1541.37 784.775 1537.76 Q784.775 1534.15 782.437 1532.04 Q780.099 1529.94 776.095 1529.94 Q774.22 1529.94 772.345 1530.35 Q770.493 1530.77 768.548 1531.65 L768.548 1514.29 Z" fill="#000000" fill-rule="nonzero" fill-opacity="1" /><path clip-path="url(#clip210)" d="M1231.9 1517.37 Q1228.29 1517.37 1226.46 1520.93 Q1224.65 1524.47 1224.65 1531.6 Q1224.65 1538.71 1226.46 1542.27 Q1228.29 1545.82 1231.9 1545.82 Q1235.53 1545.82 1237.34 1542.27 Q1239.17 1538.71 1239.17 1531.6 Q1239.17 1524.47 1237.34 1520.93 Q1235.53 1517.37 1231.9 1517.37 M1231.9 1513.66 Q1237.71 1513.66 1240.77 1518.27 Q1243.84 1522.85 1243.84 1531.6 Q1243.84 1540.33 1240.77 1544.94 Q1237.71 1549.52 1231.9 1549.52 Q1226.09 1549.52 1223.01 1544.94 Q1219.96 1540.33 1219.96 1531.6 Q1219.96 1522.85 1223.01 1518.27 Q1226.09 1513.66 1231.9 1513.66 Z" fill="#000000" fill-rule="nonzero" fill-opacity="1" /><path clip-path="url(#clip210)" d="M1252.06 1542.97 L1256.95 1542.97 L1256.95 1548.85 L1252.06 1548.85 L1252.06 1542.97 Z" fill="#000000" fill-rule="nonzero" fill-opacity="1" /><path clip-path="url(#clip210)" d="M1277.13 1517.37 Q1273.52 1517.37 1271.69 1520.93 Q1269.89 1524.47 1269.89 1531.6 Q1269.89 1538.71 1271.69 1542.27 Q1273.52 1545.82 1277.13 1545.82 Q1280.76 1545.82 1282.57 1542.27 Q1284.4 1538.71 1284.4 1531.6 Q1284.4 1524.47 1282.57 1520.93 Q1280.76 1517.37 1277.13 1517.37 M1277.13 1513.66 Q1282.94 1513.66 1286 1518.27 Q1289.08 1522.85 1289.08 1531.6 Q1289.08 1540.33 1286 1544.94 Q1282.94 1549.52 1277.13 1549.52 Q1271.32 1549.52 1268.24 1544.94 Q1265.19 1540.33 1265.19 1531.6 Q1265.19 1522.85 1268.24 1518.27 Q1271.32 1513.66 1277.13 1513.66 Z" fill="#000000" fill-rule="nonzero" fill-opacity="1" /><path clip-path="url(#clip210)" d="M1750.44 1517.37 Q1746.82 1517.37 1745 1520.93 Q1743.19 1524.47 1743.19 1531.6 Q1743.19 1538.71 1745 1542.27 Q1746.82 1545.82 1750.44 1545.82 Q1754.07 1545.82 1755.88 1542.27 Q1757.7 1538.71 1757.7 1531.6 Q1757.7 1524.47 1755.88 1520.93 Q1754.07 1517.37 1750.44 1517.37 M1750.44 1513.66 Q1756.25 1513.66 1759.3 1518.27 Q1762.38 1522.85 1762.38 1531.6 Q1762.38 1540.33 1759.3 1544.94 Q1756.25 1549.52 1750.44 1549.52 Q1744.63 1549.52 1741.55 1544.94 Q1738.49 1540.33 1738.49 1531.6 Q1738.49 1522.85 1741.55 1518.27 Q1744.63 1513.66 1750.44 1513.66 Z" fill="#000000" fill-rule="nonzero" fill-opacity="1" /><path clip-path="url(#clip210)" d="M1770.6 1542.97 L1775.48 1542.97 L1775.48 1548.85 L1770.6 1548.85 L1770.6 1542.97 Z" fill="#000000" fill-rule="nonzero" fill-opacity="1" /><path clip-path="url(#clip210)" d="M1785.71 1514.29 L1804.07 1514.29 L1804.07 1518.22 L1790 1518.22 L1790 1526.7 Q1791.01 1526.35 1792.03 1526.19 Q1793.05 1526 1794.07 1526 Q1799.86 1526 1803.24 1529.17 Q1806.62 1532.34 1806.62 1537.76 Q1806.62 1543.34 1803.14 1546.44 Q1799.67 1549.52 1793.35 1549.52 Q1791.18 1549.52 1788.91 1549.15 Q1786.66 1548.78 1784.25 1548.04 L1784.25 1543.34 Q1786.34 1544.47 1788.56 1545.03 Q1790.78 1545.58 1793.26 1545.58 Q1797.26 1545.58 1799.6 1543.48 Q1801.94 1541.37 1801.94 1537.76 Q1801.94 1534.15 1799.6 1532.04 Q1797.26 1529.94 1793.26 1529.94 Q1791.38 1529.94 1789.51 1530.35 Q1787.66 1530.77 1785.71 1531.65 L1785.71 1514.29 Z" fill="#000000" fill-rule="nonzero" fill-opacity="1" /><path clip-path="url(#clip210)" d="M2257.74 1544.91 L2265.38 1544.91 L2265.38 1518.55 L2257.07 1520.21 L2257.07 1515.95 L2265.34 1514.29 L2270.01 1514.29 L2270.01 1544.91 L2277.65 1544.91 L2277.65 1548.85 L2257.74 1548.85 L2257.74 1544.91 Z" fill="#000000" fill-rule="nonzero" fill-opacity="1" /><path clip-path="url(#clip210)" d="M2287.1 1542.97 L2291.98 1542.97 L2291.98 1548.85 L2287.1 1548.85 L2287.1 1542.97 Z" fill="#000000" fill-rule="nonzero" fill-opacity="1" /><path clip-path="url(#clip210)" d="M2312.17 1517.37 Q2308.55 1517.37 2306.73 1520.93 Q2304.92 1524.47 2304.92 1531.6 Q2304.92 1538.71 2306.73 1542.27 Q2308.55 1545.82 2312.17 1545.82 Q2315.8 1545.82 2317.61 1542.27 Q2319.43 1538.71 2319.43 1531.6 Q2319.43 1524.47 2317.61 1520.93 Q2315.8 1517.37 2312.17 1517.37 M2312.17 1513.66 Q2317.98 1513.66 2321.03 1518.27 Q2324.11 1522.85 2324.11 1531.6 Q2324.11 1540.33 2321.03 1544.94 Q2317.98 1549.52 2312.17 1549.52 Q2306.36 1549.52 2303.28 1544.94 Q2300.22 1540.33 2300.22 1531.6 Q2300.22 1522.85 2303.28 1518.27 Q2306.36 1513.66 2312.17 1513.66 Z" fill="#000000" fill-rule="nonzero" fill-opacity="1" /><polyline clip-path="url(#clip212)" style="stroke:#000000; stroke-linecap:round; stroke-linejoin:round; stroke-width:2; stroke-opacity:0.1; fill:none" points="156.274,1248.5 2352.76,1248.5 "/>
<polyline clip-path="url(#clip212)" style="stroke:#000000; stroke-linecap:round; stroke-linejoin:round; stroke-width:2; stroke-opacity:0.1; fill:none" points="156.274,977.84 2352.76,977.84 "/>
<polyline clip-path="url(#clip212)" style="stroke:#000000; stroke-linecap:round; stroke-linejoin:round; stroke-width:2; stroke-opacity:0.1; fill:none" points="156.274,707.176 2352.76,707.176 "/>
<polyline clip-path="url(#clip212)" style="stroke:#000000; stroke-linecap:round; stroke-linejoin:round; stroke-width:2; stroke-opacity:0.1; fill:none" points="156.274,436.512 2352.76,436.512 "/>
<polyline clip-path="url(#clip212)" style="stroke:#000000; stroke-linecap:round; stroke-linejoin:round; stroke-width:2; stroke-opacity:0.1; fill:none" points="156.274,165.847 2352.76,165.847 "/>
<polyline clip-path="url(#clip210)" style="stroke:#000000; stroke-linecap:round; stroke-linejoin:round; stroke-width:4; stroke-opacity:1; fill:none" points="156.274,1486.45 156.274,47.2441 "/>
<polyline clip-path="url(#clip210)" style="stroke:#000000; stroke-linecap:round; stroke-linejoin:round; stroke-width:4; stroke-opacity:1; fill:none" points="156.274,1248.5 175.172,1248.5 "/>
<polyline clip-path="url(#clip210)" style="stroke:#000000; stroke-linecap:round; stroke-linejoin:round; stroke-width:4; stroke-opacity:1; fill:none" points="156.274,977.84 175.172,977.84 "/>
<polyline clip-path="url(#clip210)" style="stroke:#000000; stroke-linecap:round; stroke-linejoin:round; stroke-width:4; stroke-opacity:1; fill:none" points="156.274,707.176 175.172,707.176 "/>
<polyline clip-path="url(#clip210)" style="stroke:#000000; stroke-linecap:round; stroke-linejoin:round; stroke-width:4; stroke-opacity:1; fill:none" points="156.274,436.512 175.172,436.512 "/>
<polyline clip-path="url(#clip210)" style="stroke:#000000; stroke-linecap:round; stroke-linejoin:round; stroke-width:4; stroke-opacity:1; fill:none" points="156.274,165.847 175.172,165.847 "/>
<path clip-path="url(#clip210)" d="M63.0985 1234.3 Q59.4875 1234.3 57.6588 1237.87 Q55.8532 1241.41 55.8532 1248.54 Q55.8532 1255.64 57.6588 1259.21 Q59.4875 1262.75 63.0985 1262.75 Q66.7328 1262.75 68.5383 1259.21 Q70.367 1255.64 70.367 1248.54 Q70.367 1241.41 68.5383 1237.87 Q66.7328 1234.3 63.0985 1234.3 M63.0985 1230.6 Q68.9087 1230.6 71.9642 1235.21 Q75.0429 1239.79 75.0429 1248.54 Q75.0429 1257.27 71.9642 1261.87 Q68.9087 1266.46 63.0985 1266.46 Q57.2884 1266.46 54.2097 1261.87 Q51.1542 1257.27 51.1542 1248.54 Q51.1542 1239.79 54.2097 1235.21 Q57.2884 1230.6 63.0985 1230.6 Z" fill="#000000" fill-rule="nonzero" fill-opacity="1" /><path clip-path="url(#clip210)" d="M83.2605 1259.9 L88.1447 1259.9 L88.1447 1265.78 L83.2605 1265.78 L83.2605 1259.9 Z" fill="#000000" fill-rule="nonzero" fill-opacity="1" /><path clip-path="url(#clip210)" d="M108.33 1234.3 Q104.719 1234.3 102.89 1237.87 Q101.084 1241.41 101.084 1248.54 Q101.084 1255.64 102.89 1259.21 Q104.719 1262.75 108.33 1262.75 Q111.964 1262.75 113.77 1259.21 Q115.598 1255.64 115.598 1248.54 Q115.598 1241.41 113.77 1237.87 Q111.964 1234.3 108.33 1234.3 M108.33 1230.6 Q114.14 1230.6 117.195 1235.21 Q120.274 1239.79 120.274 1248.54 Q120.274 1257.27 117.195 1261.87 Q114.14 1266.46 108.33 1266.46 Q102.52 1266.46 99.4409 1261.87 Q96.3854 1257.27 96.3854 1248.54 Q96.3854 1239.79 99.4409 1235.21 Q102.52 1230.6 108.33 1230.6 Z" fill="#000000" fill-rule="nonzero" fill-opacity="1" /><path clip-path="url(#clip210)" d="M63.7467 963.638 Q60.1356 963.638 58.3069 967.203 Q56.5014 970.745 56.5014 977.874 Q56.5014 984.981 58.3069 988.546 Q60.1356 992.087 63.7467 992.087 Q67.3809 992.087 69.1865 988.546 Q71.0152 984.981 71.0152 977.874 Q71.0152 970.745 69.1865 967.203 Q67.3809 963.638 63.7467 963.638 M63.7467 959.935 Q69.5568 959.935 72.6124 964.541 Q75.6911 969.124 75.6911 977.874 Q75.6911 986.601 72.6124 991.208 Q69.5568 995.791 63.7467 995.791 Q57.9365 995.791 54.8578 991.208 Q51.8023 986.601 51.8023 977.874 Q51.8023 969.124 54.8578 964.541 Q57.9365 959.935 63.7467 959.935 Z" fill="#000000" fill-rule="nonzero" fill-opacity="1" /><path clip-path="url(#clip210)" d="M83.9086 989.24 L88.7928 989.24 L88.7928 995.12 L83.9086 995.12 L83.9086 989.24 Z" fill="#000000" fill-rule="nonzero" fill-opacity="1" /><path clip-path="url(#clip210)" d="M113.145 976.486 Q116.501 977.203 118.376 979.472 Q120.274 981.74 120.274 985.073 Q120.274 990.189 116.756 992.99 Q113.237 995.791 106.756 995.791 Q104.58 995.791 102.265 995.351 Q99.9733 994.935 97.5197 994.078 L97.5197 989.564 Q99.4641 990.698 101.779 991.277 Q104.094 991.856 106.617 991.856 Q111.015 991.856 113.307 990.12 Q115.621 988.384 115.621 985.073 Q115.621 982.018 113.469 980.305 Q111.339 978.569 107.52 978.569 L103.492 978.569 L103.492 974.726 L107.705 974.726 Q111.154 974.726 112.983 973.361 Q114.811 971.972 114.811 969.379 Q114.811 966.717 112.913 965.305 Q111.038 963.87 107.52 963.87 Q105.598 963.87 103.399 964.287 Q101.2 964.703 98.5613 965.583 L98.5613 961.416 Q101.223 960.675 103.538 960.305 Q105.876 959.935 107.936 959.935 Q113.26 959.935 116.362 962.365 Q119.464 964.773 119.464 968.893 Q119.464 971.763 117.82 973.754 Q116.177 975.722 113.145 976.486 Z" fill="#000000" fill-rule="nonzero" fill-opacity="1" /><path clip-path="url(#clip210)" d="M62.9365 692.974 Q59.3254 692.974 57.4967 696.539 Q55.6912 700.081 55.6912 707.21 Q55.6912 714.317 57.4967 717.882 Q59.3254 721.423 62.9365 721.423 Q66.5707 721.423 68.3763 717.882 Q70.205 714.317 70.205 707.21 Q70.205 700.081 68.3763 696.539 Q66.5707 692.974 62.9365 692.974 M62.9365 689.271 Q68.7467 689.271 71.8022 693.877 Q74.8809 698.46 74.8809 707.21 Q74.8809 715.937 71.8022 720.544 Q68.7467 725.127 62.9365 725.127 Q57.1264 725.127 54.0477 720.544 Q50.9921 715.937 50.9921 707.21 Q50.9921 698.46 54.0477 693.877 Q57.1264 689.271 62.9365 689.271 Z" fill="#000000" fill-rule="nonzero" fill-opacity="1" /><path clip-path="url(#clip210)" d="M83.0984 718.576 L87.9827 718.576 L87.9827 724.456 L83.0984 724.456 L83.0984 718.576 Z" fill="#000000" fill-rule="nonzero" fill-opacity="1" /><path clip-path="url(#clip210)" d="M108.746 705.312 Q105.598 705.312 103.746 707.465 Q101.918 709.618 101.918 713.368 Q101.918 717.095 103.746 719.27 Q105.598 721.423 108.746 721.423 Q111.895 721.423 113.723 719.27 Q115.575 717.095 115.575 713.368 Q115.575 709.618 113.723 707.465 Q111.895 705.312 108.746 705.312 M118.029 690.66 L118.029 694.919 Q116.27 694.085 114.464 693.646 Q112.682 693.206 110.922 693.206 Q106.293 693.206 103.839 696.331 Q101.409 699.456 101.061 705.775 Q102.427 703.761 104.487 702.696 Q106.547 701.609 109.024 701.609 Q114.233 701.609 117.242 704.78 Q120.274 707.928 120.274 713.368 Q120.274 718.692 117.126 721.909 Q113.978 725.127 108.746 725.127 Q102.751 725.127 99.5798 720.544 Q96.4085 715.937 96.4085 707.21 Q96.4085 699.016 100.297 694.155 Q104.186 689.271 110.737 689.271 Q112.496 689.271 114.279 689.618 Q116.084 689.965 118.029 690.66 Z" fill="#000000" fill-rule="nonzero" fill-opacity="1" /><path clip-path="url(#clip210)" d="M63.2837 422.31 Q59.6726 422.31 57.8439 425.875 Q56.0384 429.417 56.0384 436.546 Q56.0384 443.653 57.8439 447.218 Q59.6726 450.759 63.2837 450.759 Q66.918 450.759 68.7235 447.218 Q70.5522 443.653 70.5522 436.546 Q70.5522 429.417 68.7235 425.875 Q66.918 422.31 63.2837 422.31 M63.2837 418.607 Q69.0939 418.607 72.1494 423.213 Q75.2281 427.796 75.2281 436.546 Q75.2281 445.273 72.1494 449.88 Q69.0939 454.463 63.2837 454.463 Q57.4736 454.463 54.3949 449.88 Q51.3393 445.273 51.3393 436.546 Q51.3393 427.796 54.3949 423.213 Q57.4736 418.607 63.2837 418.607 Z" fill="#000000" fill-rule="nonzero" fill-opacity="1" /><path clip-path="url(#clip210)" d="M83.4457 447.912 L88.3299 447.912 L88.3299 453.792 L83.4457 453.792 L83.4457 447.912 Z" fill="#000000" fill-rule="nonzero" fill-opacity="1" /><path clip-path="url(#clip210)" d="M98.6539 453.074 L98.6539 448.815 Q100.413 449.648 102.219 450.088 Q104.024 450.528 105.76 450.528 Q110.39 450.528 112.82 447.426 Q115.274 444.301 115.621 437.958 Q114.279 439.949 112.219 441.014 Q110.158 442.079 107.658 442.079 Q102.473 442.079 99.4409 438.954 Q96.4317 435.806 96.4317 430.366 Q96.4317 425.042 99.5798 421.824 Q102.728 418.607 107.959 418.607 Q113.955 418.607 117.103 423.213 Q120.274 427.796 120.274 436.546 Q120.274 444.718 116.385 449.602 Q112.52 454.463 105.969 454.463 Q104.209 454.463 102.404 454.116 Q100.598 453.768 98.6539 453.074 M107.959 438.421 Q111.108 438.421 112.936 436.269 Q114.788 434.116 114.788 430.366 Q114.788 426.639 112.936 424.486 Q111.108 422.31 107.959 422.31 Q104.811 422.31 102.959 424.486 Q101.131 426.639 101.131 430.366 Q101.131 434.116 102.959 436.269 Q104.811 438.421 107.959 438.421 Z" fill="#000000" fill-rule="nonzero" fill-opacity="1" /><path clip-path="url(#clip210)" d="M55.506 179.192 L63.1448 179.192 L63.1448 152.827 L54.8347 154.493 L54.8347 150.234 L63.0985 148.567 L67.7744 148.567 L67.7744 179.192 L75.4133 179.192 L75.4133 183.127 L55.506 183.127 L55.506 179.192 Z" fill="#000000" fill-rule="nonzero" fill-opacity="1" /><path clip-path="url(#clip210)" d="M84.8577 177.248 L89.7419 177.248 L89.7419 183.127 L84.8577 183.127 L84.8577 177.248 Z" fill="#000000" fill-rule="nonzero" fill-opacity="1" /><path clip-path="url(#clip210)" d="M103.955 179.192 L120.274 179.192 L120.274 183.127 L98.3298 183.127 L98.3298 179.192 Q100.992 176.438 105.575 171.808 Q110.182 167.155 111.362 165.813 Q113.608 163.29 114.487 161.554 Q115.39 159.794 115.39 158.104 Q115.39 155.35 113.445 153.614 Q111.524 151.878 108.422 151.878 Q106.223 151.878 103.77 152.642 Q101.339 153.405 98.5613 154.956 L98.5613 150.234 Q101.385 149.1 103.839 148.521 Q106.293 147.942 108.33 147.942 Q113.7 147.942 116.895 150.628 Q120.089 153.313 120.089 157.804 Q120.089 159.933 119.279 161.854 Q118.492 163.753 116.385 166.345 Q115.807 167.016 112.705 170.234 Q109.603 173.428 103.955 179.192 Z" fill="#000000" fill-rule="nonzero" fill-opacity="1" /><polyline clip-path="url(#clip212)" style="stroke:#009af9; stroke-linecap:round; stroke-linejoin:round; stroke-width:16; stroke-opacity:1; fill:none" stroke-dasharray="8, 16" points="218.439,1112.99 228.852,1110.73 239.264,1101.93 249.677,1086.41 260.09,1069.16 270.503,1058.24 280.916,1060.87 291.329,1079.71 301.741,1111.52 312.154,1148.85 322.567,1183.59 332.98,1210.61 343.393,1229.95 353.805,1246.74 364.218,1268.81 374.631,1302.06 385.044,1345.59 395.457,1389.98 405.87,1421.85 416.282,1433.45 426.695,1428.9 437.108,1420.07 447.521,1415.33 457.934,1413.34 468.347,1406.99 478.759,1391.53 489.172,1368.13 499.585,1341.06 509.998,1312.98 520.411,1283.46 530.824,1251.33 541.236,1217.51 551.649,1185.01 562.062,1156.41 572.475,1132.08 582.888,1110.87 593.301,1092.06 603.713,1076.55 614.126,1066.47 624.539,1063.82 634.952,1069.32 645.365,1082.18 655.777,1100.7 666.19,1123.09 676.603,1148.04 687.016,1174.91 697.429,1203.52 707.842,1233.74 718.254,1265.24 728.667,1297.24 739.08,1328.54 749.493,1357.67 759.906,1383.06 770.319,1403.28 780.731,1417.25 791.144,1424.81 801.557,1427.16 811.97,1425.99 822.383,1421.2 832.796,1410.1 843.208,1390.29 853.621,1362.76 864.034,1331.31 874.447,1299.51 884.86,1268.92 895.273,1239.52 905.685,1210.82 916.098,1182.33 926.511,1153.8 936.924,1125.83 947.337,1100.36 957.749,1080.23 968.162,1067.98 978.575,1064.52 988.988,1068.97 999.401,1079.38 1009.81,1093.76 1020.23,1110.85 1030.64,1130.21 1041.05,1151.98 1051.46,1176.59 1061.88,1204.44 1072.29,1235.61 1082.7,1269.71 1093.12,1305.58 1103.53,1341.17 1113.94,1373.62 1124.35,1399.58 1134.77,1416.02 1145.18,1421.45 1155.59,1417.14 1166.01,1407.79 1176.42,1400.88 1186.83,1404.26 1197.24,1421.45 1207.66,1444.34 1218.07,1445.72 1228.48,1380.25 1238.9,1206.29 1249.31,931.341 1259.72,636.052 1270.13,415.097 1280.55,305.966 1290.96,287.855 1301.37,315.426 1311.79,349.531 1322.2,369.078 1332.61,368.999 1343.02,354.339 1353.44,334.568 1363.85,318.97 1374.26,313.499 1384.68,319.572 1395.09,334.623 1405.5,353.682 1415.91,371.192 1426.33,382.465 1436.74,384.582 1447.15,376.735 1457.57,360.228 1467.98,338.281 1478.39,315.71 1488.8,298.33 1499.22,291.887 1509.63,300.402 1520.04,324.184 1530.45,358.413 1540.87,393.53 1551.28,418.011 1561.69,422.657 1572.11,404.296 1582.52,367.029 1592.93,320.753 1603.34,278.152 1613.76,251.585 1624.17,250.343 1634.58,277.978 1645,330.123 1655.41,394.133 1665.82,451.12 1676.23,480.059 1686.65,464.806 1697.06,404.148 1707.47,318.253 1717.89,241.682 1728.3,204.328 1738.71,215.69 1749.12,264.617 1759.54,330.359 1769.95,393.339 1780.36,439.912 1790.78,462.563 1801.19,458.642 1811.6,429.447 1822.01,379.965 1832.43,319.016 1842.84,259.171 1853.25,215.572 1863.67,202.866 1874.08,230.232 1884.49,296.154 1894.9,385.867 1905.32,473.77 1915.73,530.633 1926.14,533.237 1936.56,473.731 1946.97,365.945 1957.38,244.54 1967.79,153.406 1978.21,126.305 1988.62,171.049 1999.03,267.787 2009.45,381.329 2019.86,478.011 2030.27,536.699 2040.68,549.28 2051.1,514.457 2061.51,434.117 2071.92,318.311 2082.33,193.848 2092.75,103.411 2103.16,87.9763 2113.57,162.206 2123.99,302.257 2134.4,456.161 2144.81,568.977 2155.22,605.958 2165.64,562.316 2176.05,459.139 2186.46,331.868 2196.88,217.803 2207.29,146.086 2217.7,131.281 2228.11,171.125 2238.53,249.083 2248.94,341.495 2259.35,426.879 2269.77,493.117 2280.18,539.088 2290.59,570.783 "/>
<polyline clip-path="url(#clip212)" style="stroke:#e26f46; stroke-linecap:round; stroke-linejoin:round; stroke-width:4; stroke-opacity:1; fill:none" points="218.439,1112.99 228.852,1093.77 239.264,1079.59 249.677,1070.93 260.09,1068.06 270.503,1071.08 280.916,1079.9 291.329,1094.21 301.741,1113.56 312.154,1137.32 322.567,1164.7 332.98,1194.82 343.393,1226.69 353.805,1259.27 364.218,1291.51 374.631,1322.33 385.044,1350.75 395.457,1375.83 405.87,1396.76 416.282,1412.85 426.695,1423.57 437.108,1428.58 447.521,1427.71 457.934,1421 468.347,1408.65 478.759,1391.08 489.172,1368.85 499.585,1342.7 509.998,1313.47 520.411,1282.12 530.824,1249.68 541.236,1217.19 551.649,1185.73 562.062,1156.32 572.475,1129.91 582.888,1107.38 593.301,1089.45 603.713,1076.71 614.126,1069.58 624.539,1068.29 634.952,1072.89 645.365,1083.21 655.777,1098.93 666.19,1119.52 676.603,1144.33 687.016,1172.54 697.429,1203.23 707.842,1235.4 718.254,1267.99 728.667,1299.95 739.08,1330.22 749.493,1357.84 759.906,1381.88 770.319,1401.57 780.731,1416.26 791.144,1425.48 801.557,1428.93 811.97,1426.48 822.383,1418.23 832.796,1404.43 843.208,1385.55 853.621,1362.19 864.034,1335.13 874.447,1305.24 884.86,1273.49 895.273,1240.93 905.685,1208.62 916.098,1177.61 926.511,1148.91 936.924,1123.46 947.337,1102.1 957.749,1085.51 968.162,1074.24 978.575,1068.66 988.988,1068.95 999.401,1075.1 1009.81,1086.91 1020.23,1103.99 1030.64,1125.79 1041.05,1151.59 1051.46,1180.56 1061.88,1211.75 1072.29,1244.13 1082.7,1276.66 1093.12,1308.27 1103.53,1337.92 1113.94,1364.66 1124.35,1387.61 1134.77,1406.02 1145.18,1419.29 1155.59,1426.98 1166.01,1428.85 1176.42,1424.83 1186.83,1415.06 1197.24,1399.85 1207.66,1379.7 1218.07,1355.27 1228.48,1327.36 1238.9,1296.87 1249.31,1264.8 1259.72,344.98 1270.13,343.489 1280.55,344.846 1290.96,349.364 1301.37,355.658 1311.79,361.068 1322.2,362.67 1332.61,358.507 1343.02,348.583 1353.44,335.204 1363.85,322.472 1374.26,315.035 1384.68,316.462 1395.09,327.809 1405.5,346.896 1415.91,368.618 1426.33,386.307 1436.74,393.769 1447.15,387.382 1457.57,367.564 1467.98,339.058 1478.39,309.845 1488.8,288.908 1499.22,283.484 1509.63,296.632 1520.04,325.926 1530.45,363.757 1540.87,399.295 1551.28,421.583 1561.69,422.904 1572.11,401.371 1582.52,361.907 1592.93,315.193 1603.34,274.786 1613.76,253.185 1624.17,257.988 1634.58,289.304 1645,339.299 1655.41,394.105 1665.82,437.67 1676.23,456.453 1686.65,443.609 1697.06,401.373 1707.47,340.837 1717.89,279.062 1728.3,234.27 1738.71,220.475 1749.12,243.127 1759.54,297.118 1769.95,367.847 1780.36,435.155 1790.78,479.067 1801.19,485.719 1811.6,451.693 1822.01,385.44 1832.43,305.225 1842.84,234.108 1853.25,193.309 1863.67,195.888 1874.08,242.608 1884.49,321.281 1894.9,409.919 1905.32,482.869 1915.73,518.243 1926.14,504.468 1936.56,444.021 1946.97,353.138 1957.38,257.48 1967.79,184.884 1978.21,157.269 1988.62,184.03 1999.03,258.919 2009.45,361.427 2019.86,462.386 2030.27,532.269 2040.68,549.823 2051.1,508.509 2061.51,418.817 2071.92,305.644 2082.33,201.393 2092.75,136.697 2103.16,131.42 2113.57,188.584 2123.99,293.068 2134.4,415.579 2144.81,520.857 2155.22,577.825 2165.64,568.755 2176.05,494.754 2186.46,375.876 2196.88,245.707 2207.29,141.878 2217.7,95.1907 2228.11,120.483 2238.53,211.961 2248.94,344.438 2259.35,480.256 2269.77,579.993 2280.18,613.896 2290.59,570.755 "/>
<path clip-path="url(#clip210)" d="M229.49 250.738 L675.966 250.738 L675.966 95.2176 L229.49 95.2176  Z" fill="#ffffff" fill-rule="evenodd" fill-opacity="1"/>
<polyline clip-path="url(#clip210)" style="stroke:#000000; stroke-linecap:round; stroke-linejoin:round; stroke-width:4; stroke-opacity:1; fill:none" points="229.49,250.738 675.966,250.738 675.966,95.2176 229.49,95.2176 229.49,250.738 "/>
<polyline clip-path="url(#clip210)" style="stroke:#009af9; stroke-linecap:round; stroke-linejoin:round; stroke-width:16; stroke-opacity:1; fill:none" stroke-dasharray="8, 16" points="253.896,147.058 400.328,147.058 "/>
<path clip-path="url(#clip210)" d="M429.409 133.62 L429.409 146.606 L435.289 146.606 Q438.552 146.606 440.335 144.916 Q442.117 143.227 442.117 140.102 Q442.117 137 440.335 135.31 Q438.552 133.62 435.289 133.62 L429.409 133.62 M424.733 129.778 L435.289 129.778 Q441.099 129.778 444.062 132.416 Q447.048 135.032 447.048 140.102 Q447.048 145.217 444.062 147.833 Q441.099 150.449 435.289 150.449 L429.409 150.449 L429.409 164.338 L424.733 164.338 L424.733 129.778 Z" fill="#000000" fill-rule="nonzero" fill-opacity="1" /><path clip-path="url(#clip210)" d="M467.325 142.393 Q466.608 141.977 465.751 141.791 Q464.918 141.583 463.899 141.583 Q460.288 141.583 458.344 143.944 Q456.423 146.282 456.423 150.68 L456.423 164.338 L452.14 164.338 L452.14 138.412 L456.423 138.412 L456.423 142.44 Q457.765 140.078 459.918 138.944 Q462.071 137.787 465.149 137.787 Q465.589 137.787 466.122 137.856 Q466.654 137.903 467.302 138.018 L467.325 142.393 Z" fill="#000000" fill-rule="nonzero" fill-opacity="1" /><path clip-path="url(#clip210)" d="M492.927 150.31 L492.927 152.393 L473.344 152.393 Q473.622 156.791 475.983 159.106 Q478.367 161.398 482.603 161.398 Q485.057 161.398 487.348 160.796 Q489.663 160.194 491.932 158.99 L491.932 163.018 Q489.64 163.99 487.233 164.5 Q484.825 165.009 482.348 165.009 Q476.145 165.009 472.511 161.398 Q468.899 157.787 468.899 151.629 Q468.899 145.264 472.325 141.537 Q475.774 137.787 481.608 137.787 Q486.839 137.787 489.872 141.166 Q492.927 144.523 492.927 150.31 M488.668 149.06 Q488.622 145.565 486.7 143.481 Q484.802 141.398 481.654 141.398 Q478.089 141.398 475.936 143.412 Q473.807 145.426 473.483 149.083 L488.668 149.06 Z" fill="#000000" fill-rule="nonzero" fill-opacity="1" /><path clip-path="url(#clip210)" d="M516.978 142.347 L516.978 128.319 L521.237 128.319 L521.237 164.338 L516.978 164.338 L516.978 160.449 Q515.635 162.763 513.575 163.898 Q511.538 165.009 508.668 165.009 Q503.969 165.009 501.006 161.259 Q498.066 157.509 498.066 151.398 Q498.066 145.287 501.006 141.537 Q503.969 137.787 508.668 137.787 Q511.538 137.787 513.575 138.921 Q515.635 140.032 516.978 142.347 M502.464 151.398 Q502.464 156.097 504.385 158.782 Q506.33 161.444 509.709 161.444 Q513.089 161.444 515.033 158.782 Q516.978 156.097 516.978 151.398 Q516.978 146.699 515.033 144.037 Q513.089 141.352 509.709 141.352 Q506.33 141.352 504.385 144.037 Q502.464 146.699 502.464 151.398 Z" fill="#000000" fill-rule="nonzero" fill-opacity="1" /><path clip-path="url(#clip210)" d="M530.01 138.412 L534.269 138.412 L534.269 164.338 L530.01 164.338 L530.01 138.412 M530.01 128.319 L534.269 128.319 L534.269 133.713 L530.01 133.713 L530.01 128.319 Z" fill="#000000" fill-rule="nonzero" fill-opacity="1" /><path clip-path="url(#clip210)" d="M561.839 139.407 L561.839 143.389 Q560.033 142.393 558.205 141.907 Q556.399 141.398 554.547 141.398 Q550.404 141.398 548.112 144.037 Q545.82 146.652 545.82 151.398 Q545.82 156.143 548.112 158.782 Q550.404 161.398 554.547 161.398 Q556.399 161.398 558.205 160.912 Q560.033 160.402 561.839 159.407 L561.839 163.342 Q560.056 164.176 558.135 164.592 Q556.237 165.009 554.084 165.009 Q548.228 165.009 544.779 161.328 Q541.33 157.648 541.33 151.398 Q541.33 145.055 544.802 141.421 Q548.297 137.787 554.362 137.787 Q556.33 137.787 558.205 138.203 Q560.08 138.597 561.839 139.407 Z" fill="#000000" fill-rule="nonzero" fill-opacity="1" /><path clip-path="url(#clip210)" d="M573.459 131.051 L573.459 138.412 L582.232 138.412 L582.232 141.722 L573.459 141.722 L573.459 155.796 Q573.459 158.967 574.316 159.87 Q575.195 160.773 577.857 160.773 L582.232 160.773 L582.232 164.338 L577.857 164.338 Q572.927 164.338 571.052 162.509 Q569.177 160.657 569.177 155.796 L569.177 141.722 L566.052 141.722 L566.052 138.412 L569.177 138.412 L569.177 131.051 L573.459 131.051 Z" fill="#000000" fill-rule="nonzero" fill-opacity="1" /><path clip-path="url(#clip210)" d="M587.834 138.412 L592.093 138.412 L592.093 164.338 L587.834 164.338 L587.834 138.412 M587.834 128.319 L592.093 128.319 L592.093 133.713 L587.834 133.713 L587.834 128.319 Z" fill="#000000" fill-rule="nonzero" fill-opacity="1" /><path clip-path="url(#clip210)" d="M611.051 141.398 Q607.626 141.398 605.635 144.083 Q603.644 146.745 603.644 151.398 Q603.644 156.051 605.612 158.736 Q607.602 161.398 611.051 161.398 Q614.454 161.398 616.445 158.713 Q618.436 156.027 618.436 151.398 Q618.436 146.791 616.445 144.106 Q614.454 141.398 611.051 141.398 M611.051 137.787 Q616.607 137.787 619.778 141.398 Q622.95 145.009 622.95 151.398 Q622.95 157.764 619.778 161.398 Q616.607 165.009 611.051 165.009 Q605.473 165.009 602.302 161.398 Q599.153 157.764 599.153 151.398 Q599.153 145.009 602.302 141.398 Q605.473 137.787 611.051 137.787 Z" fill="#000000" fill-rule="nonzero" fill-opacity="1" /><path clip-path="url(#clip210)" d="M651.561 148.689 L651.561 164.338 L647.301 164.338 L647.301 148.828 Q647.301 145.148 645.866 143.319 Q644.431 141.49 641.561 141.49 Q638.112 141.49 636.121 143.69 Q634.13 145.889 634.13 149.685 L634.13 164.338 L629.848 164.338 L629.848 138.412 L634.13 138.412 L634.13 142.44 Q635.658 140.102 637.718 138.944 Q639.801 137.787 642.51 137.787 Q646.977 137.787 649.269 140.565 Q651.561 143.319 651.561 148.689 Z" fill="#000000" fill-rule="nonzero" fill-opacity="1" /><polyline clip-path="url(#clip210)" style="stroke:#e26f46; stroke-linecap:round; stroke-linejoin:round; stroke-width:4; stroke-opacity:1; fill:none" points="253.896,198.898 400.328,198.898 "/>
<path clip-path="url(#clip210)" d="M424.733 181.618 L446.585 181.618 L446.585 185.553 L429.409 185.553 L429.409 195.784 L445.867 195.784 L445.867 199.719 L429.409 199.719 L429.409 212.242 L447.001 212.242 L447.001 216.178 L424.733 216.178 L424.733 181.618 Z" fill="#000000" fill-rule="nonzero" fill-opacity="1" /><path clip-path="url(#clip210)" d="M476.052 190.252 L466.677 202.867 L476.538 216.178 L471.515 216.178 L463.969 205.992 L456.423 216.178 L451.4 216.178 L461.469 202.613 L452.256 190.252 L457.279 190.252 L464.154 199.488 L471.029 190.252 L476.052 190.252 Z" fill="#000000" fill-rule="nonzero" fill-opacity="1" /><path clip-path="url(#clip210)" d="M494.339 203.145 Q489.177 203.145 487.186 204.326 Q485.196 205.506 485.196 208.354 Q485.196 210.622 486.677 211.965 Q488.182 213.284 490.751 213.284 Q494.293 213.284 496.422 210.784 Q498.575 208.261 498.575 204.094 L498.575 203.145 L494.339 203.145 M502.834 201.386 L502.834 216.178 L498.575 216.178 L498.575 212.242 Q497.117 214.603 494.941 215.738 Q492.765 216.849 489.617 216.849 Q485.635 216.849 483.274 214.627 Q480.936 212.381 480.936 208.631 Q480.936 204.256 483.853 202.034 Q486.793 199.812 492.603 199.812 L498.575 199.812 L498.575 199.395 Q498.575 196.455 496.631 194.858 Q494.71 193.238 491.214 193.238 Q488.992 193.238 486.885 193.77 Q484.779 194.303 482.835 195.367 L482.835 191.432 Q485.173 190.53 487.372 190.09 Q489.571 189.627 491.654 189.627 Q497.279 189.627 500.057 192.543 Q502.834 195.46 502.834 201.386 Z" fill="#000000" fill-rule="nonzero" fill-opacity="1" /><path clip-path="url(#clip210)" d="M530.265 191.247 L530.265 195.229 Q528.459 194.233 526.631 193.747 Q524.825 193.238 522.973 193.238 Q518.83 193.238 516.538 195.877 Q514.246 198.492 514.246 203.238 Q514.246 207.983 516.538 210.622 Q518.83 213.238 522.973 213.238 Q524.825 213.238 526.631 212.752 Q528.459 212.242 530.265 211.247 L530.265 215.182 Q528.482 216.016 526.561 216.432 Q524.663 216.849 522.51 216.849 Q516.654 216.849 513.205 213.168 Q509.756 209.488 509.756 203.238 Q509.756 196.895 513.228 193.261 Q516.723 189.627 522.788 189.627 Q524.756 189.627 526.631 190.043 Q528.506 190.437 530.265 191.247 Z" fill="#000000" fill-rule="nonzero" fill-opacity="1" /><path clip-path="url(#clip210)" d="M541.885 182.891 L541.885 190.252 L550.658 190.252 L550.658 193.562 L541.885 193.562 L541.885 207.636 Q541.885 210.807 542.742 211.71 Q543.621 212.613 546.283 212.613 L550.658 212.613 L550.658 216.178 L546.283 216.178 Q541.353 216.178 539.478 214.349 Q537.603 212.497 537.603 207.636 L537.603 193.562 L534.478 193.562 L534.478 190.252 L537.603 190.252 L537.603 182.891 L541.885 182.891 Z" fill="#000000" fill-rule="nonzero" fill-opacity="1" /></svg>
