<?xml version="1.0" encoding="utf-8"?>
<svg xmlns="http://www.w3.org/2000/svg" xmlns:xlink="http://www.w3.org/1999/xlink" width="600" height="400" viewBox="0 0 2400 1600">
<defs>
  <clipPath id="clip270">
    <rect x="0" y="0" width="2400" height="1600"/>
  </clipPath>
</defs>
<path clip-path="url(#clip270)" d="M0 1600 L2400 1600 L2400 0 L0 0  Z" fill="#ffffff" fill-rule="evenodd" fill-opacity="1"/>
<defs>
  <clipPath id="clip271">
    <rect x="480" y="0" width="1681" height="1600"/>
  </clipPath>
</defs>
<path clip-path="url(#clip270)" d="M156.274 1486.45 L2352.76 1486.45 L2352.76 47.2441 L156.274 47.2441  Z" fill="#ffffff" fill-rule="evenodd" fill-opacity="1"/>
<defs>
  <clipPath id="clip272">
    <rect x="156" y="47" width="2197" height="1440"/>
  </clipPath>
</defs>
<polyline clip-path="url(#clip272)" style="stroke:#000000; stroke-linecap:round; stroke-linejoin:round; stroke-width:2; stroke-opacity:0.1; fill:none" points="218.439,1486.45 218.439,47.2441 "/>
<polyline clip-path="url(#clip272)" style="stroke:#000000; stroke-linecap:round; stroke-linejoin:round; stroke-width:2; stroke-opacity:0.1; fill:none" points="736.477,1486.45 736.477,47.2441 "/>
<polyline clip-path="url(#clip272)" style="stroke:#000000; stroke-linecap:round; stroke-linejoin:round; stroke-width:2; stroke-opacity:0.1; fill:none" points="1254.52,1486.45 1254.52,47.2441 "/>
<polyline clip-path="url(#clip272)" style="stroke:#000000; stroke-linecap:round; stroke-linejoin:round; stroke-width:2; stroke-opacity:0.1; fill:none" points="1772.55,1486.45 1772.55,47.2441 "/>
<polyline clip-path="url(#clip272)" style="stroke:#000000; stroke-linecap:round; stroke-linejoin:round; stroke-width:2; stroke-opacity:0.1; fill:none" points="2290.59,1486.45 2290.59,47.2441 "/>
<polyline clip-path="url(#clip270)" style="stroke:#000000; stroke-linecap:round; stroke-linejoin:round; stroke-width:4; stroke-opacity:1; fill:none" points="156.274,1486.45 2352.76,1486.45 "/>
<polyline clip-path="url(#clip270)" style="stroke:#000000; stroke-linecap:round; stroke-linejoin:round; stroke-width:4; stroke-opacity:1; fill:none" points="218.439,1486.45 218.439,1467.55 "/>
<polyline clip-path="url(#clip270)" style="stroke:#000000; stroke-linecap:round; stroke-linejoin:round; stroke-width:4; stroke-opacity:1; fill:none" points="736.477,1486.45 736.477,1467.55 "/>
<polyline clip-path="url(#clip270)" style="stroke:#000000; stroke-linecap:round; stroke-linejoin:round; stroke-width:4; stroke-opacity:1; fill:none" points="1254.52,1486.45 1254.52,1467.55 "/>
<polyline clip-path="url(#clip270)" style="stroke:#000000; stroke-linecap:round; stroke-linejoin:round; stroke-width:4; stroke-opacity:1; fill:none" points="1772.55,1486.45 1772.55,1467.55 "/>
<polyline clip-path="url(#clip270)" style="stroke:#000000; stroke-linecap:round; stroke-linejoin:round; stroke-width:4; stroke-opacity:1; fill:none" points="2290.59,1486.45 2290.59,1467.55 "/>
<path clip-path="url(#clip270)" d="M164.967 1532.02 L194.643 1532.02 L194.643 1535.95 L164.967 1535.95 L164.967 1532.02 Z" fill="#000000" fill-rule="nonzero" fill-opacity="1" /><path clip-path="url(#clip270)" d="M205.545 1544.91 L213.184 1544.91 L213.184 1518.55 L204.874 1520.21 L204.874 1515.95 L213.138 1514.29 L217.814 1514.29 L217.814 1544.91 L225.453 1544.91 L225.453 1548.85 L205.545 1548.85 L205.545 1544.91 Z" fill="#000000" fill-rule="nonzero" fill-opacity="1" /><path clip-path="url(#clip270)" d="M234.897 1542.97 L239.781 1542.97 L239.781 1548.85 L234.897 1548.85 L234.897 1542.97 Z" fill="#000000" fill-rule="nonzero" fill-opacity="1" /><path clip-path="url(#clip270)" d="M259.966 1517.37 Q256.355 1517.37 254.527 1520.93 Q252.721 1524.47 252.721 1531.6 Q252.721 1538.71 254.527 1542.27 Q256.355 1545.82 259.966 1545.82 Q263.601 1545.82 265.406 1542.27 Q267.235 1538.71 267.235 1531.6 Q267.235 1524.47 265.406 1520.93 Q263.601 1517.37 259.966 1517.37 M259.966 1513.66 Q265.776 1513.66 268.832 1518.27 Q271.911 1522.85 271.911 1531.6 Q271.911 1540.33 268.832 1544.94 Q265.776 1549.52 259.966 1549.52 Q254.156 1549.52 251.077 1544.94 Q248.022 1540.33 248.022 1531.6 Q248.022 1522.85 251.077 1518.27 Q254.156 1513.66 259.966 1513.66 Z" fill="#000000" fill-rule="nonzero" fill-opacity="1" /><path clip-path="url(#clip270)" d="M683.503 1532.02 L713.178 1532.02 L713.178 1535.95 L683.503 1535.95 L683.503 1532.02 Z" fill="#000000" fill-rule="nonzero" fill-opacity="1" /><path clip-path="url(#clip270)" d="M733.271 1517.37 Q729.66 1517.37 727.831 1520.93 Q726.026 1524.47 726.026 1531.6 Q726.026 1538.71 727.831 1542.27 Q729.66 1545.82 733.271 1545.82 Q736.905 1545.82 738.711 1542.27 Q740.539 1538.71 740.539 1531.6 Q740.539 1524.47 738.711 1520.93 Q736.905 1517.37 733.271 1517.37 M733.271 1513.66 Q739.081 1513.66 742.137 1518.27 Q745.215 1522.85 745.215 1531.6 Q745.215 1540.33 742.137 1544.94 Q739.081 1549.52 733.271 1549.52 Q727.461 1549.52 724.382 1544.94 Q721.327 1540.33 721.327 1531.6 Q721.327 1522.85 724.382 1518.27 Q727.461 1513.66 733.271 1513.66 Z" fill="#000000" fill-rule="nonzero" fill-opacity="1" /><path clip-path="url(#clip270)" d="M753.433 1542.97 L758.317 1542.97 L758.317 1548.85 L753.433 1548.85 L753.433 1542.97 Z" fill="#000000" fill-rule="nonzero" fill-opacity="1" /><path clip-path="url(#clip270)" d="M768.548 1514.29 L786.905 1514.29 L786.905 1518.22 L772.831 1518.22 L772.831 1526.7 Q773.849 1526.35 774.868 1526.19 Q775.886 1526 776.905 1526 Q782.692 1526 786.072 1529.17 Q789.451 1532.34 789.451 1537.76 Q789.451 1543.34 785.979 1546.44 Q782.507 1549.52 776.187 1549.52 Q774.011 1549.52 771.743 1549.15 Q769.498 1548.78 767.09 1548.04 L767.09 1543.34 Q769.173 1544.47 771.396 1545.03 Q773.618 1545.58 776.095 1545.58 Q780.099 1545.58 782.437 1543.48 Q784.775 1541.37 784.775 1537.76 Q784.775 1534.15 782.437 1532.04 Q780.099 1529.94 776.095 1529.94 Q774.22 1529.94 772.345 1530.35 Q770.493 1530.77 768.548 1531.65 L768.548 1514.29 Z" fill="#000000" fill-rule="nonzero" fill-opacity="1" /><path clip-path="url(#clip270)" d="M1231.9 1517.37 Q1228.29 1517.37 1226.46 1520.93 Q1224.65 1524.47 1224.65 1531.6 Q1224.65 1538.71 1226.46 1542.27 Q1228.29 1545.82 1231.9 1545.82 Q1235.53 1545.82 1237.34 1542.27 Q1239.17 1538.71 1239.17 1531.6 Q1239.17 1524.47 1237.34 1520.93 Q1235.53 1517.37 1231.9 1517.37 M1231.9 1513.66 Q1237.71 1513.66 1240.77 1518.27 Q1243.84 1522.85 1243.84 1531.6 Q1243.84 1540.33 1240.77 1544.94 Q1237.71 1549.52 1231.9 1549.52 Q1226.09 1549.52 1223.01 1544.94 Q1219.96 1540.33 1219.96 1531.6 Q1219.96 1522.85 1223.01 1518.27 Q1226.09 1513.66 1231.9 1513.66 Z" fill="#000000" fill-rule="nonzero" fill-opacity="1" /><path clip-path="url(#clip270)" d="M1252.06 1542.97 L1256.95 1542.97 L1256.95 1548.85 L1252.06 1548.85 L1252.06 1542.97 Z" fill="#000000" fill-rule="nonzero" fill-opacity="1" /><path clip-path="url(#clip270)" d="M1277.13 1517.37 Q1273.52 1517.37 1271.69 1520.93 Q1269.89 1524.47 1269.89 1531.6 Q1269.89 1538.71 1271.69 1542.27 Q1273.52 1545.82 1277.13 1545.82 Q1280.76 1545.82 1282.57 1542.27 Q1284.4 1538.71 1284.4 1531.6 Q1284.4 1524.47 1282.57 1520.93 Q1280.76 1517.37 1277.13 1517.37 M1277.13 1513.66 Q1282.94 1513.66 1286 1518.27 Q1289.08 1522.85 1289.08 1531.6 Q1289.08 1540.33 1286 1544.94 Q1282.94 1549.52 1277.13 1549.52 Q1271.32 1549.52 1268.24 1544.94 Q1265.19 1540.33 1265.19 1531.6 Q1265.19 1522.85 1268.24 1518.27 Q1271.32 1513.66 1277.13 1513.66 Z" fill="#000000" fill-rule="nonzero" fill-opacity="1" /><path clip-path="url(#clip270)" d="M1750.44 1517.37 Q1746.82 1517.37 1745 1520.93 Q1743.19 1524.47 1743.19 1531.6 Q1743.19 1538.71 1745 1542.27 Q1746.82 1545.82 1750.44 1545.82 Q1754.07 1545.82 1755.88 1542.27 Q1757.7 1538.71 1757.7 1531.6 Q1757.7 1524.47 1755.88 1520.93 Q1754.07 1517.37 1750.44 1517.37 M1750.44 1513.66 Q1756.25 1513.66 1759.3 1518.27 Q1762.38 1522.85 1762.38 1531.6 Q1762.38 1540.33 1759.3 1544.94 Q1756.25 1549.52 1750.44 1549.52 Q1744.63 1549.52 1741.55 1544.94 Q1738.49 1540.33 1738.49 1531.6 Q1738.49 1522.85 1741.55 1518.27 Q1744.63 1513.66 1750.44 1513.66 Z" fill="#000000" fill-rule="nonzero" fill-opacity="1" /><path clip-path="url(#clip270)" d="M1770.6 1542.97 L1775.48 1542.97 L1775.48 1548.85 L1770.6 1548.85 L1770.6 1542.97 Z" fill="#000000" fill-rule="nonzero" fill-opacity="1" /><path clip-path="url(#clip270)" d="M1785.71 1514.29 L1804.07 1514.29 L1804.07 1518.22 L1790 1518.22 L1790 1526.7 Q1791.01 1526.35 1792.03 1526.19 Q1793.05 1526 1794.07 1526 Q1799.86 1526 1803.24 1529.17 Q1806.62 1532.34 1806.62 1537.76 Q1806.62 1543.34 1803.14 1546.44 Q1799.67 1549.52 1793.35 1549.52 Q1791.18 1549.52 1788.91 1549.15 Q1786.66 1548.78 1784.25 1548.04 L1784.25 1543.34 Q1786.34 1544.47 1788.56 1545.03 Q1790.78 1545.58 1793.26 1545.58 Q1797.26 1545.58 1799.6 1543.48 Q1801.94 1541.37 1801.94 1537.76 Q1801.94 1534.15 1799.6 1532.04 Q1797.26 1529.94 1793.26 1529.94 Q1791.38 1529.94 1789.51 1530.35 Q1787.66 1530.77 1785.71 1531.65 L1785.71 1514.29 Z" fill="#000000" fill-rule="nonzero" fill-opacity="1" /><path clip-path="url(#clip270)" d="M2257.74 1544.91 L2265.38 1544.91 L2265.38 1518.55 L2257.07 1520.21 L2257.07 1515.95 L2265.34 1514.29 L2270.01 1514.29 L2270.01 1544.91 L2277.65 1544.91 L2277.65 1548.85 L2257.74 1548.85 L2257.74 1544.91 Z" fill="#000000" fill-rule="nonzero" fill-opacity="1" /><path clip-path="url(#clip270)" d="M2287.1 1542.97 L2291.98 1542.97 L2291.98 1548.85 L2287.1 1548.85 L2287.1 1542.97 Z" fill="#000000" fill-rule="nonzero" fill-opacity="1" /><path clip-path="url(#clip270)" d="M2312.17 1517.37 Q2308.55 1517.37 2306.73 1520.93 Q2304.92 1524.47 2304.92 1531.6 Q2304.92 1538.71 2306.73 1542.27 Q2308.55 1545.82 2312.17 1545.82 Q2315.8 1545.82 2317.61 1542.27 Q2319.43 1538.71 2319.43 1531.6 Q2319.43 1524.47 2317.61 1520.93 Q2315.8 1517.37 2312.17 1517.37 M2312.17 1513.66 Q2317.98 1513.66 2321.03 1518.27 Q2324.11 1522.85 2324.11 1531.6 Q2324.11 1540.33 2321.03 1544.94 Q2317.98 1549.52 2312.17 1549.52 Q2306.36 1549.52 2303.28 1544.94 Q2300.22 1540.33 2300.22 1531.6 Q2300.22 1522.85 2303.28 1518.27 Q2306.36 1513.66 2312.17 1513.66 Z" fill="#000000" fill-rule="nonzero" fill-opacity="1" /><polyline clip-path="url(#clip272)" style="stroke:#000000; stroke-linecap:round; stroke-linejoin:round; stroke-width:2; stroke-opacity:0.1; fill:none" points="156.274,1248.75 2352.76,1248.75 "/>
<polyline clip-path="url(#clip272)" style="stroke:#000000; stroke-linecap:round; stroke-linejoin:round; stroke-width:2; stroke-opacity:0.1; fill:none" points="156.274,976.333 2352.76,976.333 "/>
<polyline clip-path="url(#clip272)" style="stroke:#000000; stroke-linecap:round; stroke-linejoin:round; stroke-width:2; stroke-opacity:0.1; fill:none" points="156.274,703.918 2352.76,703.918 "/>
<polyline clip-path="url(#clip272)" style="stroke:#000000; stroke-linecap:round; stroke-linejoin:round; stroke-width:2; stroke-opacity:0.1; fill:none" points="156.274,431.504 2352.76,431.504 "/>
<polyline clip-path="url(#clip272)" style="stroke:#000000; stroke-linecap:round; stroke-linejoin:round; stroke-width:2; stroke-opacity:0.1; fill:none" points="156.274,159.09 2352.76,159.09 "/>
<polyline clip-path="url(#clip270)" style="stroke:#000000; stroke-linecap:round; stroke-linejoin:round; stroke-width:4; stroke-opacity:1; fill:none" points="156.274,1486.45 156.274,47.2441 "/>
<polyline clip-path="url(#clip270)" style="stroke:#000000; stroke-linecap:round; stroke-linejoin:round; stroke-width:4; stroke-opacity:1; fill:none" points="156.274,1248.75 175.172,1248.75 "/>
<polyline clip-path="url(#clip270)" style="stroke:#000000; stroke-linecap:round; stroke-linejoin:round; stroke-width:4; stroke-opacity:1; fill:none" points="156.274,976.333 175.172,976.333 "/>
<polyline clip-path="url(#clip270)" style="stroke:#000000; stroke-linecap:round; stroke-linejoin:round; stroke-width:4; stroke-opacity:1; fill:none" points="156.274,703.918 175.172,703.918 "/>
<polyline clip-path="url(#clip270)" style="stroke:#000000; stroke-linecap:round; stroke-linejoin:round; stroke-width:4; stroke-opacity:1; fill:none" points="156.274,431.504 175.172,431.504 "/>
<polyline clip-path="url(#clip270)" style="stroke:#000000; stroke-linecap:round; stroke-linejoin:round; stroke-width:4; stroke-opacity:1; fill:none" points="156.274,159.09 175.172,159.09 "/>
<path clip-path="url(#clip270)" d="M63.0985 1234.55 Q59.4875 1234.55 57.6588 1238.11 Q55.8532 1241.65 55.8532 1248.78 Q55.8532 1255.89 57.6588 1259.45 Q59.4875 1262.99 63.0985 1262.99 Q66.7328 1262.99 68.5383 1259.45 Q70.367 1255.89 70.367 1248.78 Q70.367 1241.65 68.5383 1238.11 Q66.7328 1234.55 63.0985 1234.55 M63.0985 1230.84 Q68.9087 1230.84 71.9642 1235.45 Q75.0429 1240.03 75.0429 1248.78 Q75.0429 1257.51 71.9642 1262.11 Q68.9087 1266.7 63.0985 1266.7 Q57.2884 1266.7 54.2097 1262.11 Q51.1542 1257.51 51.1542 1248.78 Q51.1542 1240.03 54.2097 1235.45 Q57.2884 1230.84 63.0985 1230.84 Z" fill="#000000" fill-rule="nonzero" fill-opacity="1" /><path clip-path="url(#clip270)" d="M83.2605 1260.15 L88.1447 1260.15 L88.1447 1266.03 L83.2605 1266.03 L83.2605 1260.15 Z" fill="#000000" fill-rule="nonzero" fill-opacity="1" /><path clip-path="url(#clip270)" d="M108.33 1234.55 Q104.719 1234.55 102.89 1238.11 Q101.084 1241.65 101.084 1248.78 Q101.084 1255.89 102.89 1259.45 Q104.719 1262.99 108.33 1262.99 Q111.964 1262.99 113.77 1259.45 Q115.598 1255.89 115.598 1248.78 Q115.598 1241.65 113.77 1238.11 Q111.964 1234.55 108.33 1234.55 M108.33 1230.84 Q114.14 1230.84 117.195 1235.45 Q120.274 1240.03 120.274 1248.78 Q120.274 1257.51 117.195 1262.11 Q114.14 1266.7 108.33 1266.7 Q102.52 1266.7 99.4409 1262.11 Q96.3854 1257.51 96.3854 1248.78 Q96.3854 1240.03 99.4409 1235.45 Q102.52 1230.84 108.33 1230.84 Z" fill="#000000" fill-rule="nonzero" fill-opacity="1" /><path clip-path="url(#clip270)" d="M63.7467 962.131 Q60.1356 962.131 58.3069 965.696 Q56.5014 969.238 56.5014 976.367 Q56.5014 983.474 58.3069 987.039 Q60.1356 990.58 63.7467 990.58 Q67.3809 990.58 69.1865 987.039 Q71.0152 983.474 71.0152 976.367 Q71.0152 969.238 69.1865 965.696 Q67.3809 962.131 63.7467 962.131 M63.7467 958.428 Q69.5568 958.428 72.6124 963.034 Q75.6911 967.617 75.6911 976.367 Q75.6911 985.094 72.6124 989.701 Q69.5568 994.284 63.7467 994.284 Q57.9365 994.284 54.8578 989.701 Q51.8023 985.094 51.8023 976.367 Q51.8023 967.617 54.8578 963.034 Q57.9365 958.428 63.7467 958.428 Z" fill="#000000" fill-rule="nonzero" fill-opacity="1" /><path clip-path="url(#clip270)" d="M83.9086 987.733 L88.7928 987.733 L88.7928 993.613 L83.9086 993.613 L83.9086 987.733 Z" fill="#000000" fill-rule="nonzero" fill-opacity="1" /><path clip-path="url(#clip270)" d="M113.145 974.979 Q116.501 975.696 118.376 977.965 Q120.274 980.233 120.274 983.566 Q120.274 988.682 116.756 991.483 Q113.237 994.284 106.756 994.284 Q104.58 994.284 102.265 993.844 Q99.9733 993.428 97.5197 992.571 L97.5197 988.057 Q99.4641 989.191 101.779 989.77 Q104.094 990.349 106.617 990.349 Q111.015 990.349 113.307 988.613 Q115.621 986.877 115.621 983.566 Q115.621 980.511 113.469 978.798 Q111.339 977.062 107.52 977.062 L103.492 977.062 L103.492 973.219 L107.705 973.219 Q111.154 973.219 112.983 971.854 Q114.811 970.465 114.811 967.872 Q114.811 965.21 112.913 963.798 Q111.038 962.363 107.52 962.363 Q105.598 962.363 103.399 962.78 Q101.2 963.196 98.5613 964.076 L98.5613 959.909 Q101.223 959.168 103.538 958.798 Q105.876 958.428 107.936 958.428 Q113.26 958.428 116.362 960.858 Q119.464 963.266 119.464 967.386 Q119.464 970.256 117.82 972.247 Q116.177 974.215 113.145 974.979 Z" fill="#000000" fill-rule="nonzero" fill-opacity="1" /><path clip-path="url(#clip270)" d="M62.9365 689.717 Q59.3254 689.717 57.4967 693.282 Q55.6912 696.824 55.6912 703.953 Q55.6912 711.06 57.4967 714.624 Q59.3254 718.166 62.9365 718.166 Q66.5707 718.166 68.3763 714.624 Q70.205 711.06 70.205 703.953 Q70.205 696.824 68.3763 693.282 Q66.5707 689.717 62.9365 689.717 M62.9365 686.013 Q68.7467 686.013 71.8022 690.62 Q74.8809 695.203 74.8809 703.953 Q74.8809 712.68 71.8022 717.286 Q68.7467 721.87 62.9365 721.87 Q57.1264 721.87 54.0477 717.286 Q50.9921 712.68 50.9921 703.953 Q50.9921 695.203 54.0477 690.62 Q57.1264 686.013 62.9365 686.013 Z" fill="#000000" fill-rule="nonzero" fill-opacity="1" /><path clip-path="url(#clip270)" d="M83.0984 715.319 L87.9827 715.319 L87.9827 721.198 L83.0984 721.198 L83.0984 715.319 Z" fill="#000000" fill-rule="nonzero" fill-opacity="1" /><path clip-path="url(#clip270)" d="M108.746 702.055 Q105.598 702.055 103.746 704.208 Q101.918 706.361 101.918 710.111 Q101.918 713.837 103.746 716.013 Q105.598 718.166 108.746 718.166 Q111.895 718.166 113.723 716.013 Q115.575 713.837 115.575 710.111 Q115.575 706.361 113.723 704.208 Q111.895 702.055 108.746 702.055 M118.029 687.402 L118.029 691.662 Q116.27 690.828 114.464 690.388 Q112.682 689.949 110.922 689.949 Q106.293 689.949 103.839 693.074 Q101.409 696.199 101.061 702.518 Q102.427 700.504 104.487 699.439 Q106.547 698.351 109.024 698.351 Q114.233 698.351 117.242 701.523 Q120.274 704.671 120.274 710.111 Q120.274 715.435 117.126 718.652 Q113.978 721.87 108.746 721.87 Q102.751 721.87 99.5798 717.286 Q96.4085 712.68 96.4085 703.953 Q96.4085 695.759 100.297 690.898 Q104.186 686.013 110.737 686.013 Q112.496 686.013 114.279 686.361 Q116.084 686.708 118.029 687.402 Z" fill="#000000" fill-rule="nonzero" fill-opacity="1" /><path clip-path="url(#clip270)" d="M63.2837 417.303 Q59.6726 417.303 57.8439 420.868 Q56.0384 424.409 56.0384 431.539 Q56.0384 438.645 57.8439 442.21 Q59.6726 445.752 63.2837 445.752 Q66.918 445.752 68.7235 442.21 Q70.5522 438.645 70.5522 431.539 Q70.5522 424.409 68.7235 420.868 Q66.918 417.303 63.2837 417.303 M63.2837 413.599 Q69.0939 413.599 72.1494 418.206 Q75.2281 422.789 75.2281 431.539 Q75.2281 440.266 72.1494 444.872 Q69.0939 449.455 63.2837 449.455 Q57.4736 449.455 54.3949 444.872 Q51.3393 440.266 51.3393 431.539 Q51.3393 422.789 54.3949 418.206 Q57.4736 413.599 63.2837 413.599 Z" fill="#000000" fill-rule="nonzero" fill-opacity="1" /><path clip-path="url(#clip270)" d="M83.4457 442.905 L88.3299 442.905 L88.3299 448.784 L83.4457 448.784 L83.4457 442.905 Z" fill="#000000" fill-rule="nonzero" fill-opacity="1" /><path clip-path="url(#clip270)" d="M98.6539 448.067 L98.6539 443.807 Q100.413 444.641 102.219 445.081 Q104.024 445.52 105.76 445.52 Q110.39 445.52 112.82 442.418 Q115.274 439.294 115.621 432.951 Q114.279 434.942 112.219 436.006 Q110.158 437.071 107.658 437.071 Q102.473 437.071 99.4409 433.946 Q96.4317 430.798 96.4317 425.358 Q96.4317 420.034 99.5798 416.817 Q102.728 413.599 107.959 413.599 Q113.955 413.599 117.103 418.206 Q120.274 422.789 120.274 431.539 Q120.274 439.71 116.385 444.594 Q112.52 449.455 105.969 449.455 Q104.209 449.455 102.404 449.108 Q100.598 448.761 98.6539 448.067 M107.959 433.414 Q111.108 433.414 112.936 431.261 Q114.788 429.108 114.788 425.358 Q114.788 421.632 112.936 419.479 Q111.108 417.303 107.959 417.303 Q104.811 417.303 102.959 419.479 Q101.131 421.632 101.131 425.358 Q101.131 429.108 102.959 431.261 Q104.811 433.414 107.959 433.414 Z" fill="#000000" fill-rule="nonzero" fill-opacity="1" /><path clip-path="url(#clip270)" d="M55.506 172.435 L63.1448 172.435 L63.1448 146.069 L54.8347 147.736 L54.8347 143.477 L63.0985 141.81 L67.7744 141.81 L67.7744 172.435 L75.4133 172.435 L75.4133 176.37 L55.506 176.37 L55.506 172.435 Z" fill="#000000" fill-rule="nonzero" fill-opacity="1" /><path clip-path="url(#clip270)" d="M84.8577 170.49 L89.7419 170.49 L89.7419 176.37 L84.8577 176.37 L84.8577 170.49 Z" fill="#000000" fill-rule="nonzero" fill-opacity="1" /><path clip-path="url(#clip270)" d="M103.955 172.435 L120.274 172.435 L120.274 176.37 L98.3298 176.37 L98.3298 172.435 Q100.992 169.68 105.575 165.051 Q110.182 160.398 111.362 159.055 Q113.608 156.532 114.487 154.796 Q115.39 153.037 115.39 151.347 Q115.39 148.592 113.445 146.856 Q111.524 145.12 108.422 145.12 Q106.223 145.12 103.77 145.884 Q101.339 146.648 98.5613 148.199 L98.5613 143.477 Q101.385 142.342 103.839 141.764 Q106.293 141.185 108.33 141.185 Q113.7 141.185 116.895 143.87 Q120.089 146.555 120.089 151.046 Q120.089 153.176 119.279 155.097 Q118.492 156.995 116.385 159.588 Q115.807 160.259 112.705 163.476 Q109.603 166.671 103.955 172.435 Z" fill="#000000" fill-rule="nonzero" fill-opacity="1" /><polyline clip-path="url(#clip272)" style="stroke:#009af9; stroke-linecap:round; stroke-linejoin:round; stroke-width:16; stroke-opacity:1; fill:none" stroke-dasharray="8, 16" points="218.439,1112.3 228.852,1106.35 239.264,1095.37 249.677,1081.11 260.09,1067.57 270.503,1060.84 280.916,1066.43 291.329,1085.13 301.741,1112.53 312.154,1142.72 322.567,1171.77 332.98,1199.13 343.393,1227.35 353.805,1259.53 364.218,1295.12 374.631,1328.05 385.044,1352.95 395.457,1370.98 405.87,1386.7 416.282,1403.34 426.695,1421.22 437.108,1437.11 447.521,1443.87 457.934,1434.82 468.347,1412.46 478.759,1386.47 489.172,1361.99 499.585,1337.83 509.998,1311.86 520.411,1283.01 530.824,1251.19 541.236,1217.79 551.649,1185.24 562.062,1155.43 572.475,1129.11 582.888,1106.57 593.301,1088.23 603.713,1074.92 614.126,1067.52 624.539,1066.51 634.952,1071.51 645.365,1081.38 655.777,1095.5 666.19,1114.71 676.603,1140.46 687.016,1172.42 697.429,1207.77 707.842,1242.34 718.254,1272.48 728.667,1297.14 739.08,1319.66 749.493,1345.75 759.906,1375.84 770.319,1403.46 780.731,1422.75 791.144,1432.3 801.557,1433.16 811.97,1426.73 822.383,1414.62 832.796,1398.93 843.208,1381.63 853.621,1363.23 864.034,1342.1 874.447,1315.17 884.86,1280.27 895.273,1240.97 905.685,1209.82 916.098,1191.73 926.511,1167.58 936.924,1123.94 947.337,1080.67 957.749,1068.57 968.162,1071.66 978.575,1067.54 988.988,1068.27 999.401,1079.08 1009.81,1087.69 1020.23,1102.34 1030.64,1130.81 1041.05,1162.1 1051.46,1189.31 1061.88,1213.53 1072.29,1233.64 1082.7,1239.26 1093.12,1251.82 1103.53,1318 1113.94,1434.96 1124.35,1381.71 1134.77,1373.6 1145.18,1438.97 1155.59,1363.4 1166.01,1315.42 1176.42,1345.53 1186.83,1393.53 1197.24,1435.3 1207.66,1445.72 1218.07,1390.75 1228.48,1337.19 1238.9,1274.97 1249.31,1117.22 1259.72,806.208 1270.13,431.852 1280.55,320.815 1290.96,345.275 1301.37,367.836 1311.79,369.877 1322.2,349.135 1332.61,353.06 1343.02,354.548 1353.44,322.802 1363.85,334.002 1374.26,323.34 1384.68,356.947 1395.09,378.12 1405.5,321.555 1415.91,296.741 1426.33,322.022 1436.74,363.403 1447.15,388.283 1457.57,386.579 1467.98,353.054 1478.39,307.925 1488.8,283.55 1499.22,286.121 1509.63,303.992 1520.04,332.926 1530.45,355.621 1540.87,364.941 1551.28,381.66 1561.69,396.348 1572.11,397.496 1582.52,375.498 1592.93,330.696 1603.34,280.533 1613.76,247.724 1624.17,249.727 1634.58,287.5 1645,341.307 1655.41,390.191 1665.82,421.337 1676.23,432.266 1686.65,434.419 1697.06,398.714 1707.47,312.143 1717.89,237.865 1728.3,201.059 1738.71,208.813 1749.12,258.278 1759.54,329.748 1769.95,395.596 1780.36,438.402 1790.78,454.51 1801.19,446.669 1811.6,418.454 1822.01,372.936 1832.43,314.317 1842.84,251.756 1853.25,203.207 1863.67,192.626 1874.08,234.165 1884.49,317.855 1894.9,415.817 1905.32,487.484 1915.73,497.278 1926.14,456.965 1936.56,397.308 1946.97,331.936 1957.38,265.522 1967.79,206.18 1978.21,171.226 1988.62,182.807 1999.03,249.472 2009.45,352.611 2019.86,458.035 2030.27,530.311 2040.68,542.733 2051.1,493.133 2061.51,400.852 2071.92,292.791 2082.33,200.175 2092.75,149.291 2103.16,149.536 2113.57,196.557 2123.99,280.029 2134.4,382.494 2144.81,481.749 2155.22,554.083 2165.64,568.447 2176.05,502.572 2186.46,374.35 2196.88,231.44 2207.29,139.372 2217.7,133.819 2228.11,185.728 2238.53,258.155 2248.94,333.094 2259.35,403.208 2269.77,465.569 2280.18,519.434 2290.59,565.213 "/>
<polyline clip-path="url(#clip272)" style="stroke:#e26f46; stroke-linecap:round; stroke-linejoin:round; stroke-width:4; stroke-opacity:1; fill:none" points="218.439,1112.36 228.852,1093.01 239.264,1078.74 249.677,1070.02 260.09,1067.14 270.503,1070.18 280.916,1079.05 291.329,1093.46 301.741,1112.93 312.154,1136.84 322.567,1164.4 332.98,1194.72 343.393,1226.79 353.805,1259.59 364.218,1292.03 374.631,1323.05 385.044,1351.66 395.457,1376.9 405.87,1397.96 416.282,1414.15 426.695,1424.94 437.108,1429.99 447.521,1429.11 457.934,1422.35 468.347,1409.93 478.759,1392.24 489.172,1369.87 499.585,1343.55 509.998,1314.13 520.411,1282.58 530.824,1249.93 541.236,1217.23 551.649,1185.57 562.062,1155.96 572.475,1129.39 582.888,1106.71 593.301,1088.67 603.713,1075.85 614.126,1068.67 624.539,1067.37 634.952,1071.99 645.365,1082.38 655.777,1098.2 666.19,1118.93 676.603,1143.9 687.016,1172.29 697.429,1203.18 707.842,1235.55 718.254,1268.36 728.667,1300.52 739.08,1331 749.493,1358.79 759.906,1382.98 770.319,1402.8 780.731,1417.59 791.144,1426.87 801.557,1430.34 811.97,1427.87 822.383,1419.57 832.796,1405.68 843.208,1386.68 853.621,1363.17 864.034,1335.93 874.447,1305.85 884.86,1273.9 895.273,1241.13 905.685,1208.6 916.098,1177.39 926.511,1148.51 936.924,1122.9 947.337,1101.39 957.749,1084.7 968.162,1073.36 978.575,1067.74 988.988,1068.03 999.401,1074.22 1009.81,1086.11 1020.23,1103.3 1030.64,1125.24 1041.05,1151.21 1051.46,1180.37 1061.88,1211.75 1072.29,1244.35 1082.7,1277.08 1093.12,1308.9 1103.53,1338.74 1113.94,1365.66 1124.35,1388.75 1134.77,1407.28 1145.18,1420.63 1155.59,1428.38 1166.01,1430.26 1176.42,1426.21 1186.83,1416.38 1197.24,1401.07 1207.66,1380.79 1218.07,1356.21 1228.48,1328.11 1238.9,1297.43 1249.31,1265.15 1259.72,339.381 1270.13,337.88 1280.55,339.246 1290.96,343.793 1301.37,350.127 1311.79,355.573 1322.2,357.186 1332.61,352.996 1343.02,343.007 1353.44,329.541 1363.85,316.728 1374.26,309.242 1384.68,310.678 1395.09,322.099 1405.5,341.309 1415.91,363.172 1426.33,380.975 1436.74,388.485 1447.15,382.057 1457.57,362.11 1467.98,333.421 1478.39,304.019 1488.8,282.946 1499.22,277.487 1509.63,290.72 1520.04,320.203 1530.45,358.279 1540.87,394.047 1551.28,416.48 1561.69,417.808 1572.11,396.136 1582.52,356.418 1592.93,309.402 1603.34,268.733 1613.76,246.992 1624.17,251.826 1634.58,283.345 1645,333.663 1655.41,388.823 1665.82,432.671 1676.23,451.575 1686.65,438.647 1697.06,396.139 1707.47,335.211 1717.89,273.037 1728.3,227.955 1738.71,214.071 1749.12,236.869 1759.54,291.209 1769.95,362.395 1780.36,430.138 1790.78,474.335 1801.19,481.03 1811.6,446.784 1822.01,380.102 1832.43,299.369 1842.84,227.792 1853.25,186.729 1863.67,189.325 1874.08,236.347 1884.49,315.529 1894.9,404.739 1905.32,478.162 1915.73,513.764 1926.14,499.9 1936.56,439.062 1946.97,347.592 1957.38,251.315 1967.79,178.249 1978.21,150.456 1988.62,177.39 1999.03,252.763 2009.45,355.934 2019.86,457.546 2030.27,527.881 2040.68,545.548 2051.1,503.967 2061.51,413.695 2071.92,299.79 2082.33,194.866 2092.75,129.751 2103.16,124.44 2113.57,181.973 2123.99,287.133 2134.4,410.436 2144.81,516.395 2155.22,573.731 2165.64,564.602 2176.05,490.123 2186.46,370.476 2196.88,239.465 2207.29,134.966 2217.7,87.9763 2228.11,113.432 2238.53,205.501 2248.94,338.835 2259.35,475.531 2269.77,575.913 2280.18,610.036 2290.59,566.615 "/>
<path clip-path="url(#clip270)" d="M229.49 250.738 L675.966 250.738 L675.966 95.2176 L229.49 95.2176  Z" fill="#ffffff" fill-rule="evenodd" fill-opacity="1"/>
<polyline clip-path="url(#clip270)" style="stroke:#000000; stroke-linecap:round; stroke-linejoin:round; stroke-width:4; stroke-opacity:1; fill:none" points="229.49,250.738 675.966,250.738 675.966,95.2176 229.49,95.2176 229.49,250.738 "/>
<polyline clip-path="url(#clip270)" style="stroke:#009af9; stroke-linecap:round; stroke-linejoin:round; stroke-width:16; stroke-opacity:1; fill:none" stroke-dasharray="8, 16" points="253.896,147.058 400.328,147.058 "/>
<path clip-path="url(#clip270)" d="M429.409 133.62 L429.409 146.606 L435.289 146.606 Q438.552 146.606 440.335 144.916 Q442.117 143.227 442.117 140.102 Q442.117 137 440.335 135.31 Q438.552 133.62 435.289 133.62 L429.409 133.62 M424.733 129.778 L435.289 129.778 Q441.099 129.778 444.062 132.416 Q447.048 135.032 447.048 140.102 Q447.048 145.217 444.062 147.833 Q441.099 150.449 435.289 150.449 L429.409 150.449 L429.409 164.338 L424.733 164.338 L424.733 129.778 Z" fill="#000000" fill-rule="nonzero" fill-opacity="1" /><path clip-path="url(#clip270)" d="M467.325 142.393 Q466.608 141.977 465.751 141.791 Q464.918 141.583 463.899 141.583 Q460.288 141.583 458.344 143.944 Q456.423 146.282 456.423 150.68 L456.423 164.338 L452.14 164.338 L452.14 138.412 L456.423 138.412 L456.423 142.44 Q457.765 140.078 459.918 138.944 Q462.071 137.787 465.149 137.787 Q465.589 137.787 466.122 137.856 Q466.654 137.903 467.302 138.018 L467.325 142.393 Z" fill="#000000" fill-rule="nonzero" fill-opacity="1" /><path clip-path="url(#clip270)" d="M492.927 150.31 L492.927 152.393 L473.344 152.393 Q473.622 156.791 475.983 159.106 Q478.367 161.398 482.603 161.398 Q485.057 161.398 487.348 160.796 Q489.663 160.194 491.932 158.99 L491.932 163.018 Q489.64 163.99 487.233 164.5 Q484.825 165.009 482.348 165.009 Q476.145 165.009 472.511 161.398 Q468.899 157.787 468.899 151.629 Q468.899 145.264 472.325 141.537 Q475.774 137.787 481.608 137.787 Q486.839 137.787 489.872 141.166 Q492.927 144.523 492.927 150.31 M488.668 149.06 Q488.622 145.565 486.7 143.481 Q484.802 141.398 481.654 141.398 Q478.089 141.398 475.936 143.412 Q473.807 145.426 473.483 149.083 L488.668 149.06 Z" fill="#000000" fill-rule="nonzero" fill-opacity="1" /><path clip-path="url(#clip270)" d="M516.978 142.347 L516.978 128.319 L521.237 128.319 L521.237 164.338 L516.978 164.338 L516.978 160.449 Q515.635 162.763 513.575 163.898 Q511.538 165.009 508.668 165.009 Q503.969 165.009 501.006 161.259 Q498.066 157.509 498.066 151.398 Q498.066 145.287 501.006 141.537 Q503.969 137.787 508.668 137.787 Q511.538 137.787 513.575 138.921 Q515.635 140.032 516.978 142.347 M502.464 151.398 Q502.464 156.097 504.385 158.782 Q506.33 161.444 509.709 161.444 Q513.089 161.444 515.033 158.782 Q516.978 156.097 516.978 151.398 Q516.978 146.699 515.033 144.037 Q513.089 141.352 509.709 141.352 Q506.33 141.352 504.385 144.037 Q502.464 146.699 502.464 151.398 Z" fill="#000000" fill-rule="nonzero" fill-opacity="1" /><path clip-path="url(#clip270)" d="M530.01 138.412 L534.269 138.412 L534.269 164.338 L530.01 164.338 L530.01 138.412 M530.01 128.319 L534.269 128.319 L534.269 133.713 L530.01 133.713 L530.01 128.319 Z" fill="#000000" fill-rule="nonzero" fill-opacity="1" /><path clip-path="url(#clip270)" d="M561.839 139.407 L561.839 143.389 Q560.033 142.393 558.205 141.907 Q556.399 141.398 554.547 141.398 Q550.404 141.398 548.112 144.037 Q545.82 146.652 545.82 151.398 Q545.82 156.143 548.112 158.782 Q550.404 161.398 554.547 161.398 Q556.399 161.398 558.205 160.912 Q560.033 160.402 561.839 159.407 L561.839 163.342 Q560.056 164.176 558.135 164.592 Q556.237 165.009 554.084 165.009 Q548.228 165.009 544.779 161.328 Q541.33 157.648 541.33 151.398 Q541.33 145.055 544.802 141.421 Q548.297 137.787 554.362 137.787 Q556.33 137.787 558.205 138.203 Q560.08 138.597 561.839 139.407 Z" fill="#000000" fill-rule="nonzero" fill-opacity="1" /><path clip-path="url(#clip270)" d="M573.459 131.051 L573.459 138.412 L582.232 138.412 L582.232 141.722 L573.459 141.722 L573.459 155.796 Q573.459 158.967 574.316 159.87 Q575.195 160.773 577.857 160.773 L582.232 160.773 L582.232 164.338 L577.857 164.338 Q572.927 164.338 571.052 162.509 Q569.177 160.657 569.177 155.796 L569.177 141.722 L566.052 141.722 L566.052 138.412 L569.177 138.412 L569.177 131.051 L573.459 131.051 Z" fill="#000000" fill-rule="nonzero" fill-opacity="1" /><path clip-path="url(#clip270)" d="M587.834 138.412 L592.093 138.412 L592.093 164.338 L587.834 164.338 L587.834 138.412 M587.834 128.319 L592.093 128.319 L592.093 133.713 L587.834 133.713 L587.834 128.319 Z" fill="#000000" fill-rule="nonzero" fill-opacity="1" /><path clip-path="url(#clip270)" d="M611.051 141.398 Q607.626 141.398 605.635 144.083 Q603.644 146.745 603.644 151.398 Q603.644 156.051 605.612 158.736 Q607.602 161.398 611.051 161.398 Q614.454 161.398 616.445 158.713 Q618.436 156.027 618.436 151.398 Q618.436 146.791 616.445 144.106 Q614.454 141.398 611.051 141.398 M611.051 137.787 Q616.607 137.787 619.778 141.398 Q622.95 145.009 622.95 151.398 Q622.95 157.764 619.778 161.398 Q616.607 165.009 611.051 165.009 Q605.473 165.009 602.302 161.398 Q599.153 157.764 599.153 151.398 Q599.153 145.009 602.302 141.398 Q605.473 137.787 611.051 137.787 Z" fill="#000000" fill-rule="nonzero" fill-opacity="1" /><path clip-path="url(#clip270)" d="M651.561 148.689 L651.561 164.338 L647.301 164.338 L647.301 148.828 Q647.301 145.148 645.866 143.319 Q644.431 141.49 641.561 141.49 Q638.112 141.49 636.121 143.69 Q634.13 145.889 634.13 149.685 L634.13 164.338 L629.848 164.338 L629.848 138.412 L634.13 138.412 L634.13 142.44 Q635.658 140.102 637.718 138.944 Q639.801 137.787 642.51 137.787 Q646.977 137.787 649.269 140.565 Q651.561 143.319 651.561 148.689 Z" fill="#000000" fill-rule="nonzero" fill-opacity="1" /><polyline clip-path="url(#clip270)" style="stroke:#e26f46; stroke-linecap:round; stroke-linejoin:round; stroke-width:4; stroke-opacity:1; fill:none" points="253.896,198.898 400.328,198.898 "/>
<path clip-path="url(#clip270)" d="M424.733 181.618 L446.585 181.618 L446.585 185.553 L429.409 185.553 L429.409 195.784 L445.867 195.784 L445.867 199.719 L429.409 199.719 L429.409 212.242 L447.001 212.242 L447.001 216.178 L424.733 216.178 L424.733 181.618 Z" fill="#000000" fill-rule="nonzero" fill-opacity="1" /><path clip-path="url(#clip270)" d="M476.052 190.252 L466.677 202.867 L476.538 216.178 L471.515 216.178 L463.969 205.992 L456.423 216.178 L451.4 216.178 L461.469 202.613 L452.256 190.252 L457.279 190.252 L464.154 199.488 L471.029 190.252 L476.052 190.252 Z" fill="#000000" fill-rule="nonzero" fill-opacity="1" /><path clip-path="url(#clip270)" d="M494.339 203.145 Q489.177 203.145 487.186 204.326 Q485.196 205.506 485.196 208.354 Q485.196 210.622 486.677 211.965 Q488.182 213.284 490.751 213.284 Q494.293 213.284 496.422 210.784 Q498.575 208.261 498.575 204.094 L498.575 203.145 L494.339 203.145 M502.834 201.386 L502.834 216.178 L498.575 216.178 L498.575 212.242 Q497.117 214.603 494.941 215.738 Q492.765 216.849 489.617 216.849 Q485.635 216.849 483.274 214.627 Q480.936 212.381 480.936 208.631 Q480.936 204.256 483.853 202.034 Q486.793 199.812 492.603 199.812 L498.575 199.812 L498.575 199.395 Q498.575 196.455 496.631 194.858 Q494.71 193.238 491.214 193.238 Q488.992 193.238 486.885 193.77 Q484.779 194.303 482.835 195.367 L482.835 191.432 Q485.173 190.53 487.372 190.09 Q489.571 189.627 491.654 189.627 Q497.279 189.627 500.057 192.543 Q502.834 195.46 502.834 201.386 Z" fill="#000000" fill-rule="nonzero" fill-opacity="1" /><path clip-path="url(#clip270)" d="M530.265 191.247 L530.265 195.229 Q528.459 194.233 526.631 193.747 Q524.825 193.238 522.973 193.238 Q518.83 193.238 516.538 195.877 Q514.246 198.492 514.246 203.238 Q514.246 207.983 516.538 210.622 Q518.83 213.238 522.973 213.238 Q524.825 213.238 526.631 212.752 Q528.459 212.242 530.265 211.247 L530.265 215.182 Q528.482 216.016 526.561 216.432 Q524.663 216.849 522.51 216.849 Q516.654 216.849 513.205 213.168 Q509.756 209.488 509.756 203.238 Q509.756 196.895 513.228 193.261 Q516.723 189.627 522.788 189.627 Q524.756 189.627 526.631 190.043 Q528.506 190.437 530.265 191.247 Z" fill="#000000" fill-rule="nonzero" fill-opacity="1" /><path clip-path="url(#clip270)" d="M541.885 182.891 L541.885 190.252 L550.658 190.252 L550.658 193.562 L541.885 193.562 L541.885 207.636 Q541.885 210.807 542.742 211.71 Q543.621 212.613 546.283 212.613 L550.658 212.613 L550.658 216.178 L546.283 216.178 Q541.353 216.178 539.478 214.349 Q537.603 212.497 537.603 207.636 L537.603 193.562 L534.478 193.562 L534.478 190.252 L537.603 190.252 L537.603 182.891 L541.885 182.891 Z" fill="#000000" fill-rule="nonzero" fill-opacity="1" /></svg>
