<?xml version="1.0" encoding="utf-8"?>
<svg xmlns="http://www.w3.org/2000/svg" xmlns:xlink="http://www.w3.org/1999/xlink" width="600" height="400" viewBox="0 0 2400 1600">
<defs>
  <clipPath id="clip150">
    <rect x="0" y="0" width="2400" height="1600"/>
  </clipPath>
</defs>
<path clip-path="url(#clip150)" d="M0 1600 L2400 1600 L2400 0 L0 0  Z" fill="#ffffff" fill-rule="evenodd" fill-opacity="1"/>
<defs>
  <clipPath id="clip151">
    <rect x="480" y="0" width="1681" height="1600"/>
  </clipPath>
</defs>
<path clip-path="url(#clip150)" d="M156.274 1486.45 L2352.76 1486.45 L2352.76 47.2441 L156.274 47.2441  Z" fill="#ffffff" fill-rule="evenodd" fill-opacity="1"/>
<defs>
  <clipPath id="clip152">
    <rect x="156" y="47" width="2197" height="1440"/>
  </clipPath>
</defs>
<polyline clip-path="url(#clip152)" style="stroke:#000000; stroke-linecap:round; stroke-linejoin:round; stroke-width:2; stroke-opacity:0.1; fill:none" points="218.439,1486.45 218.439,47.2441 "/>
<polyline clip-path="url(#clip152)" style="stroke:#000000; stroke-linecap:round; stroke-linejoin:round; stroke-width:2; stroke-opacity:0.1; fill:none" points="736.477,1486.45 736.477,47.2441 "/>
<polyline clip-path="url(#clip152)" style="stroke:#000000; stroke-linecap:round; stroke-linejoin:round; stroke-width:2; stroke-opacity:0.1; fill:none" points="1254.52,1486.45 1254.52,47.2441 "/>
<polyline clip-path="url(#clip152)" style="stroke:#000000; stroke-linecap:round; stroke-linejoin:round; stroke-width:2; stroke-opacity:0.1; fill:none" points="1772.55,1486.45 1772.55,47.2441 "/>
<polyline clip-path="url(#clip152)" style="stroke:#000000; stroke-linecap:round; stroke-linejoin:round; stroke-width:2; stroke-opacity:0.1; fill:none" points="2290.59,1486.45 2290.59,47.2441 "/>
<polyline clip-path="url(#clip150)" style="stroke:#000000; stroke-linecap:round; stroke-linejoin:round; stroke-width:4; stroke-opacity:1; fill:none" points="156.274,1486.45 2352.76,1486.45 "/>
<polyline clip-path="url(#clip150)" style="stroke:#000000; stroke-linecap:round; stroke-linejoin:round; stroke-width:4; stroke-opacity:1; fill:none" points="218.439,1486.45 218.439,1467.55 "/>
<polyline clip-path="url(#clip150)" style="stroke:#000000; stroke-linecap:round; stroke-linejoin:round; stroke-width:4; stroke-opacity:1; fill:none" points="736.477,1486.45 736.477,1467.55 "/>
<polyline clip-path="url(#clip150)" style="stroke:#000000; stroke-linecap:round; stroke-linejoin:round; stroke-width:4; stroke-opacity:1; fill:none" points="1254.52,1486.45 1254.52,1467.55 "/>
<polyline clip-path="url(#clip150)" style="stroke:#000000; stroke-linecap:round; stroke-linejoin:round; stroke-width:4; stroke-opacity:1; fill:none" points="1772.55,1486.45 1772.55,1467.55 "/>
<polyline clip-path="url(#clip150)" style="stroke:#000000; stroke-linecap:round; stroke-linejoin:round; stroke-width:4; stroke-opacity:1; fill:none" points="2290.59,1486.45 2290.59,1467.55 "/>
<path clip-path="url(#clip150)" d="M164.967 1532.02 L194.643 1532.02 L194.643 1535.95 L164.967 1535.95 L164.967 1532.02 Z" fill="#000000" fill-rule="nonzero" fill-opacity="1" /><path clip-path="url(#clip150)" d="M205.545 1544.91 L213.184 1544.91 L213.184 1518.55 L204.874 1520.21 L204.874 1515.95 L213.138 1514.29 L217.814 1514.29 L217.814 1544.91 L225.453 1544.91 L225.453 1548.85 L205.545 1548.85 L205.545 1544.91 Z" fill="#000000" fill-rule="nonzero" fill-opacity="1" /><path clip-path="url(#clip150)" d="M234.897 1542.97 L239.781 1542.97 L239.781 1548.85 L234.897 1548.85 L234.897 1542.97 Z" fill="#000000" fill-rule="nonzero" fill-opacity="1" /><path clip-path="url(#clip150)" d="M259.966 1517.37 Q256.355 1517.37 254.527 1520.93 Q252.721 1524.47 252.721 1531.6 Q252.721 1538.71 254.527 1542.27 Q256.355 1545.82 259.966 1545.82 Q263.601 1545.82 265.406 1542.27 Q267.235 1538.71 267.235 1531.6 Q267.235 1524.47 265.406 1520.93 Q263.601 1517.37 259.966 1517.37 M259.966 1513.66 Q265.776 1513.66 268.832 1518.27 Q271.911 1522.85 271.911 1531.6 Q271.911 1540.33 268.832 1544.94 Q265.776 1549.52 259.966 1549.52 Q254.156 1549.52 251.077 1544.94 Q248.022 1540.33 248.022 1531.6 Q248.022 1522.85 251.077 1518.27 Q254.156 1513.66 259.966 1513.66 Z" fill="#000000" fill-rule="nonzero" fill-opacity="1" /><path clip-path="url(#clip150)" d="M683.503 1532.02 L713.178 1532.02 L713.178 1535.95 L683.503 1535.95 L683.503 1532.02 Z" fill="#000000" fill-rule="nonzero" fill-opacity="1" /><path clip-path="url(#clip150)" d="M733.271 1517.37 Q729.66 1517.37 727.831 1520.93 Q726.026 1524.47 726.026 1531.6 Q726.026 1538.71 727.831 1542.27 Q729.66 1545.82 733.271 1545.82 Q736.905 1545.82 738.711 1542.27 Q740.539 1538.71 740.539 1531.6 Q740.539 1524.47 738.711 1520.93 Q736.905 1517.37 733.271 1517.37 M733.271 1513.66 Q739.081 1513.66 742.137 1518.27 Q745.215 1522.85 745.215 1531.6 Q745.215 1540.33 742.137 1544.94 Q739.081 1549.52 733.271 1549.52 Q727.461 1549.52 724.382 1544.94 Q721.327 1540.33 721.327 1531.6 Q721.327 1522.85 724.382 1518.27 Q727.461 1513.66 733.271 1513.66 Z" fill="#000000" fill-rule="nonzero" fill-opacity="1" /><path clip-path="url(#clip150)" d="M753.433 1542.97 L758.317 1542.97 L758.317 1548.85 L753.433 1548.85 L753.433 1542.97 Z" fill="#000000" fill-rule="nonzero" fill-opacity="1" /><path clip-path="url(#clip150)" d="M768.548 1514.29 L786.905 1514.29 L786.905 1518.22 L772.831 1518.22 L772.831 1526.7 Q773.849 1526.35 774.868 1526.19 Q775.886 1526 776.905 1526 Q782.692 1526 786.072 1529.17 Q789.451 1532.34 789.451 1537.76 Q789.451 1543.34 785.979 1546.44 Q782.507 1549.52 776.187 1549.52 Q774.011 1549.52 771.743 1549.15 Q769.498 1548.78 767.09 1548.04 L767.09 1543.34 Q769.173 1544.47 771.396 1545.03 Q773.618 1545.58 776.095 1545.58 Q780.099 1545.58 782.437 1543.48 Q784.775 1541.37 784.775 1537.76 Q784.775 1534.15 782.437 1532.04 Q780.099 1529.94 776.095 1529.94 Q774.22 1529.94 772.345 1530.35 Q770.493 1530.77 768.548 1531.65 L768.548 1514.29 Z" fill="#000000" fill-rule="nonzero" fill-opacity="1" /><path clip-path="url(#clip150)" d="M1231.9 1517.37 Q1228.29 1517.37 1226.46 1520.93 Q1224.65 1524.47 1224.65 1531.6 Q1224.65 1538.71 1226.46 1542.27 Q1228.29 1545.82 1231.9 1545.82 Q1235.53 1545.82 1237.34 1542.27 Q1239.17 1538.71 1239.17 1531.6 Q1239.17 1524.47 1237.34 1520.93 Q1235.53 1517.37 1231.9 1517.37 M1231.9 1513.66 Q1237.71 1513.66 1240.77 1518.27 Q1243.84 1522.85 1243.84 1531.6 Q1243.84 1540.33 1240.77 1544.94 Q1237.71 1549.52 1231.9 1549.52 Q1226.09 1549.52 1223.01 1544.94 Q1219.96 1540.33 1219.96 1531.6 Q1219.96 1522.85 1223.01 1518.27 Q1226.09 1513.66 1231.9 1513.66 Z" fill="#000000" fill-rule="nonzero" fill-opacity="1" /><path clip-path="url(#clip150)" d="M1252.06 1542.97 L1256.95 1542.97 L1256.95 1548.85 L1252.06 1548.85 L1252.06 1542.97 Z" fill="#000000" fill-rule="nonzero" fill-opacity="1" /><path clip-path="url(#clip150)" d="M1277.13 1517.37 Q1273.52 1517.37 1271.69 1520.93 Q1269.89 1524.47 1269.89 1531.6 Q1269.89 1538.71 1271.69 1542.27 Q1273.52 1545.82 1277.13 1545.82 Q1280.76 1545.82 1282.57 1542.27 Q1284.4 1538.71 1284.4 1531.6 Q1284.4 1524.47 1282.57 1520.93 Q1280.76 1517.37 1277.13 1517.37 M1277.13 1513.66 Q1282.94 1513.66 1286 1518.27 Q1289.08 1522.85 1289.08 1531.6 Q1289.08 1540.33 1286 1544.94 Q1282.94 1549.52 1277.13 1549.52 Q1271.32 1549.52 1268.24 1544.94 Q1265.19 1540.33 1265.19 1531.6 Q1265.19 1522.85 1268.24 1518.27 Q1271.32 1513.66 1277.13 1513.66 Z" fill="#000000" fill-rule="nonzero" fill-opacity="1" /><path clip-path="url(#clip150)" d="M1750.44 1517.37 Q1746.82 1517.37 1745 1520.93 Q1743.19 1524.47 1743.19 1531.6 Q1743.19 1538.71 1745 1542.27 Q1746.82 1545.82 1750.44 1545.82 Q1754.07 1545.82 1755.88 1542.27 Q1757.7 1538.71 1757.7 1531.6 Q1757.7 1524.47 1755.88 1520.93 Q1754.07 1517.37 1750.44 1517.37 M1750.44 1513.66 Q1756.25 1513.66 1759.3 1518.27 Q1762.38 1522.85 1762.38 1531.6 Q1762.38 1540.33 1759.3 1544.94 Q1756.25 1549.52 1750.44 1549.52 Q1744.63 1549.52 1741.55 1544.94 Q1738.49 1540.33 1738.49 1531.6 Q1738.49 1522.85 1741.55 1518.27 Q1744.63 1513.66 1750.44 1513.66 Z" fill="#000000" fill-rule="nonzero" fill-opacity="1" /><path clip-path="url(#clip150)" d="M1770.6 1542.97 L1775.48 1542.97 L1775.48 1548.85 L1770.6 1548.85 L1770.6 1542.97 Z" fill="#000000" fill-rule="nonzero" fill-opacity="1" /><path clip-path="url(#clip150)" d="M1785.71 1514.29 L1804.07 1514.29 L1804.07 1518.22 L1790 1518.22 L1790 1526.7 Q1791.01 1526.35 1792.03 1526.19 Q1793.05 1526 1794.07 1526 Q1799.86 1526 1803.24 1529.17 Q1806.62 1532.34 1806.62 1537.76 Q1806.62 1543.34 1803.14 1546.44 Q1799.67 1549.52 1793.35 1549.52 Q1791.18 1549.52 1788.91 1549.15 Q1786.66 1548.78 1784.25 1548.04 L1784.25 1543.34 Q1786.34 1544.47 1788.56 1545.03 Q1790.78 1545.58 1793.26 1545.58 Q1797.26 1545.58 1799.6 1543.48 Q1801.94 1541.37 1801.94 1537.76 Q1801.94 1534.15 1799.6 1532.04 Q1797.26 1529.94 1793.26 1529.94 Q1791.38 1529.94 1789.51 1530.35 Q1787.66 1530.77 1785.71 1531.65 L1785.71 1514.29 Z" fill="#000000" fill-rule="nonzero" fill-opacity="1" /><path clip-path="url(#clip150)" d="M2257.74 1544.91 L2265.38 1544.91 L2265.38 1518.55 L2257.07 1520.21 L2257.07 1515.95 L2265.34 1514.29 L2270.01 1514.29 L2270.01 1544.91 L2277.65 1544.91 L2277.65 1548.85 L2257.74 1548.85 L2257.74 1544.91 Z" fill="#000000" fill-rule="nonzero" fill-opacity="1" /><path clip-path="url(#clip150)" d="M2287.1 1542.97 L2291.98 1542.97 L2291.98 1548.85 L2287.1 1548.85 L2287.1 1542.97 Z" fill="#000000" fill-rule="nonzero" fill-opacity="1" /><path clip-path="url(#clip150)" d="M2312.17 1517.37 Q2308.55 1517.37 2306.73 1520.93 Q2304.92 1524.47 2304.92 1531.6 Q2304.92 1538.71 2306.73 1542.27 Q2308.55 1545.82 2312.17 1545.82 Q2315.8 1545.82 2317.61 1542.27 Q2319.43 1538.71 2319.43 1531.6 Q2319.43 1524.47 2317.61 1520.93 Q2315.8 1517.37 2312.17 1517.37 M2312.17 1513.66 Q2317.98 1513.66 2321.03 1518.27 Q2324.11 1522.85 2324.11 1531.6 Q2324.11 1540.33 2321.03 1544.94 Q2317.98 1549.52 2312.17 1549.52 Q2306.36 1549.52 2303.28 1544.94 Q2300.22 1540.33 2300.22 1531.6 Q2300.22 1522.85 2303.28 1518.27 Q2306.36 1513.66 2312.17 1513.66 Z" fill="#000000" fill-rule="nonzero" fill-opacity="1" /><polyline clip-path="url(#clip152)" style="stroke:#000000; stroke-linecap:round; stroke-linejoin:round; stroke-width:2; stroke-opacity:0.1; fill:none" points="156.274,1230.76 2352.76,1230.76 "/>
<polyline clip-path="url(#clip152)" style="stroke:#000000; stroke-linecap:round; stroke-linejoin:round; stroke-width:2; stroke-opacity:0.1; fill:none" points="156.274,962.571 2352.76,962.571 "/>
<polyline clip-path="url(#clip152)" style="stroke:#000000; stroke-linecap:round; stroke-linejoin:round; stroke-width:2; stroke-opacity:0.1; fill:none" points="156.274,694.376 2352.76,694.376 "/>
<polyline clip-path="url(#clip152)" style="stroke:#000000; stroke-linecap:round; stroke-linejoin:round; stroke-width:2; stroke-opacity:0.1; fill:none" points="156.274,426.182 2352.76,426.182 "/>
<polyline clip-path="url(#clip152)" style="stroke:#000000; stroke-linecap:round; stroke-linejoin:round; stroke-width:2; stroke-opacity:0.1; fill:none" points="156.274,157.988 2352.76,157.988 "/>
<polyline clip-path="url(#clip150)" style="stroke:#000000; stroke-linecap:round; stroke-linejoin:round; stroke-width:4; stroke-opacity:1; fill:none" points="156.274,1486.45 156.274,47.2441 "/>
<polyline clip-path="url(#clip150)" style="stroke:#000000; stroke-linecap:round; stroke-linejoin:round; stroke-width:4; stroke-opacity:1; fill:none" points="156.274,1230.76 175.172,1230.76 "/>
<polyline clip-path="url(#clip150)" style="stroke:#000000; stroke-linecap:round; stroke-linejoin:round; stroke-width:4; stroke-opacity:1; fill:none" points="156.274,962.571 175.172,962.571 "/>
<polyline clip-path="url(#clip150)" style="stroke:#000000; stroke-linecap:round; stroke-linejoin:round; stroke-width:4; stroke-opacity:1; fill:none" points="156.274,694.376 175.172,694.376 "/>
<polyline clip-path="url(#clip150)" style="stroke:#000000; stroke-linecap:round; stroke-linejoin:round; stroke-width:4; stroke-opacity:1; fill:none" points="156.274,426.182 175.172,426.182 "/>
<polyline clip-path="url(#clip150)" style="stroke:#000000; stroke-linecap:round; stroke-linejoin:round; stroke-width:4; stroke-opacity:1; fill:none" points="156.274,157.988 175.172,157.988 "/>
<path clip-path="url(#clip150)" d="M63.0985 1216.56 Q59.4875 1216.56 57.6588 1220.13 Q55.8532 1223.67 55.8532 1230.8 Q55.8532 1237.91 57.6588 1241.47 Q59.4875 1245.01 63.0985 1245.01 Q66.7328 1245.01 68.5383 1241.47 Q70.367 1237.91 70.367 1230.8 Q70.367 1223.67 68.5383 1220.13 Q66.7328 1216.56 63.0985 1216.56 M63.0985 1212.86 Q68.9087 1212.86 71.9642 1217.47 Q75.0429 1222.05 75.0429 1230.8 Q75.0429 1239.53 71.9642 1244.13 Q68.9087 1248.72 63.0985 1248.72 Q57.2884 1248.72 54.2097 1244.13 Q51.1542 1239.53 51.1542 1230.8 Q51.1542 1222.05 54.2097 1217.47 Q57.2884 1212.86 63.0985 1212.86 Z" fill="#000000" fill-rule="nonzero" fill-opacity="1" /><path clip-path="url(#clip150)" d="M83.2605 1242.17 L88.1447 1242.17 L88.1447 1248.04 L83.2605 1248.04 L83.2605 1242.17 Z" fill="#000000" fill-rule="nonzero" fill-opacity="1" /><path clip-path="url(#clip150)" d="M108.33 1216.56 Q104.719 1216.56 102.89 1220.13 Q101.084 1223.67 101.084 1230.8 Q101.084 1237.91 102.89 1241.47 Q104.719 1245.01 108.33 1245.01 Q111.964 1245.01 113.77 1241.47 Q115.598 1237.91 115.598 1230.8 Q115.598 1223.67 113.77 1220.13 Q111.964 1216.56 108.33 1216.56 M108.33 1212.86 Q114.14 1212.86 117.195 1217.47 Q120.274 1222.05 120.274 1230.8 Q120.274 1239.53 117.195 1244.13 Q114.14 1248.72 108.33 1248.72 Q102.52 1248.72 99.4409 1244.13 Q96.3854 1239.53 96.3854 1230.8 Q96.3854 1222.05 99.4409 1217.47 Q102.52 1212.86 108.33 1212.86 Z" fill="#000000" fill-rule="nonzero" fill-opacity="1" /><path clip-path="url(#clip150)" d="M63.7467 948.369 Q60.1356 948.369 58.3069 951.934 Q56.5014 955.476 56.5014 962.605 Q56.5014 969.712 58.3069 973.277 Q60.1356 976.818 63.7467 976.818 Q67.3809 976.818 69.1865 973.277 Q71.0152 969.712 71.0152 962.605 Q71.0152 955.476 69.1865 951.934 Q67.3809 948.369 63.7467 948.369 M63.7467 944.666 Q69.5568 944.666 72.6124 949.272 Q75.6911 953.855 75.6911 962.605 Q75.6911 971.332 72.6124 975.939 Q69.5568 980.522 63.7467 980.522 Q57.9365 980.522 54.8578 975.939 Q51.8023 971.332 51.8023 962.605 Q51.8023 953.855 54.8578 949.272 Q57.9365 944.666 63.7467 944.666 Z" fill="#000000" fill-rule="nonzero" fill-opacity="1" /><path clip-path="url(#clip150)" d="M83.9086 973.971 L88.7928 973.971 L88.7928 979.851 L83.9086 979.851 L83.9086 973.971 Z" fill="#000000" fill-rule="nonzero" fill-opacity="1" /><path clip-path="url(#clip150)" d="M113.145 961.216 Q116.501 961.934 118.376 964.203 Q120.274 966.471 120.274 969.804 Q120.274 974.92 116.756 977.721 Q113.237 980.522 106.756 980.522 Q104.58 980.522 102.265 980.082 Q99.9733 979.665 97.5197 978.809 L97.5197 974.295 Q99.4641 975.429 101.779 976.008 Q104.094 976.587 106.617 976.587 Q111.015 976.587 113.307 974.851 Q115.621 973.115 115.621 969.804 Q115.621 966.749 113.469 965.036 Q111.339 963.3 107.52 963.3 L103.492 963.3 L103.492 959.457 L107.705 959.457 Q111.154 959.457 112.983 958.091 Q114.811 956.703 114.811 954.11 Q114.811 951.448 112.913 950.036 Q111.038 948.601 107.52 948.601 Q105.598 948.601 103.399 949.017 Q101.2 949.434 98.5613 950.314 L98.5613 946.147 Q101.223 945.406 103.538 945.036 Q105.876 944.666 107.936 944.666 Q113.26 944.666 116.362 947.096 Q119.464 949.504 119.464 953.624 Q119.464 956.494 117.82 958.485 Q116.177 960.453 113.145 961.216 Z" fill="#000000" fill-rule="nonzero" fill-opacity="1" /><path clip-path="url(#clip150)" d="M62.9365 680.175 Q59.3254 680.175 57.4967 683.74 Q55.6912 687.282 55.6912 694.411 Q55.6912 701.518 57.4967 705.082 Q59.3254 708.624 62.9365 708.624 Q66.5707 708.624 68.3763 705.082 Q70.205 701.518 70.205 694.411 Q70.205 687.282 68.3763 683.74 Q66.5707 680.175 62.9365 680.175 M62.9365 676.471 Q68.7467 676.471 71.8022 681.078 Q74.8809 685.661 74.8809 694.411 Q74.8809 703.138 71.8022 707.744 Q68.7467 712.328 62.9365 712.328 Q57.1264 712.328 54.0477 707.744 Q50.9921 703.138 50.9921 694.411 Q50.9921 685.661 54.0477 681.078 Q57.1264 676.471 62.9365 676.471 Z" fill="#000000" fill-rule="nonzero" fill-opacity="1" /><path clip-path="url(#clip150)" d="M83.0984 705.777 L87.9827 705.777 L87.9827 711.656 L83.0984 711.656 L83.0984 705.777 Z" fill="#000000" fill-rule="nonzero" fill-opacity="1" /><path clip-path="url(#clip150)" d="M108.746 692.513 Q105.598 692.513 103.746 694.666 Q101.918 696.819 101.918 700.569 Q101.918 704.295 103.746 706.471 Q105.598 708.624 108.746 708.624 Q111.895 708.624 113.723 706.471 Q115.575 704.295 115.575 700.569 Q115.575 696.819 113.723 694.666 Q111.895 692.513 108.746 692.513 M118.029 677.86 L118.029 682.12 Q116.27 681.286 114.464 680.846 Q112.682 680.407 110.922 680.407 Q106.293 680.407 103.839 683.532 Q101.409 686.657 101.061 692.976 Q102.427 690.962 104.487 689.897 Q106.547 688.809 109.024 688.809 Q114.233 688.809 117.242 691.981 Q120.274 695.129 120.274 700.569 Q120.274 705.893 117.126 709.11 Q113.978 712.328 108.746 712.328 Q102.751 712.328 99.5798 707.744 Q96.4085 703.138 96.4085 694.411 Q96.4085 686.217 100.297 681.356 Q104.186 676.471 110.737 676.471 Q112.496 676.471 114.279 676.819 Q116.084 677.166 118.029 677.86 Z" fill="#000000" fill-rule="nonzero" fill-opacity="1" /><path clip-path="url(#clip150)" d="M63.2837 411.981 Q59.6726 411.981 57.8439 415.546 Q56.0384 419.088 56.0384 426.217 Q56.0384 433.324 57.8439 436.888 Q59.6726 440.43 63.2837 440.43 Q66.918 440.43 68.7235 436.888 Q70.5522 433.324 70.5522 426.217 Q70.5522 419.088 68.7235 415.546 Q66.918 411.981 63.2837 411.981 M63.2837 408.277 Q69.0939 408.277 72.1494 412.884 Q75.2281 417.467 75.2281 426.217 Q75.2281 434.944 72.1494 439.55 Q69.0939 444.134 63.2837 444.134 Q57.4736 444.134 54.3949 439.55 Q51.3393 434.944 51.3393 426.217 Q51.3393 417.467 54.3949 412.884 Q57.4736 408.277 63.2837 408.277 Z" fill="#000000" fill-rule="nonzero" fill-opacity="1" /><path clip-path="url(#clip150)" d="M83.4457 437.583 L88.3299 437.583 L88.3299 443.462 L83.4457 443.462 L83.4457 437.583 Z" fill="#000000" fill-rule="nonzero" fill-opacity="1" /><path clip-path="url(#clip150)" d="M98.6539 442.745 L98.6539 438.486 Q100.413 439.319 102.219 439.759 Q104.024 440.199 105.76 440.199 Q110.39 440.199 112.82 437.097 Q115.274 433.972 115.621 427.629 Q114.279 429.62 112.219 430.685 Q110.158 431.749 107.658 431.749 Q102.473 431.749 99.4409 428.624 Q96.4317 425.476 96.4317 420.037 Q96.4317 414.713 99.5798 411.495 Q102.728 408.277 107.959 408.277 Q113.955 408.277 117.103 412.884 Q120.274 417.467 120.274 426.217 Q120.274 434.388 116.385 439.273 Q112.52 444.134 105.969 444.134 Q104.209 444.134 102.404 443.786 Q100.598 443.439 98.6539 442.745 M107.959 428.092 Q111.108 428.092 112.936 425.939 Q114.788 423.787 114.788 420.037 Q114.788 416.31 112.936 414.157 Q111.108 411.981 107.959 411.981 Q104.811 411.981 102.959 414.157 Q101.131 416.31 101.131 420.037 Q101.131 423.787 102.959 425.939 Q104.811 428.092 107.959 428.092 Z" fill="#000000" fill-rule="nonzero" fill-opacity="1" /><path clip-path="url(#clip150)" d="M55.506 171.333 L63.1448 171.333 L63.1448 144.968 L54.8347 146.634 L54.8347 142.375 L63.0985 140.708 L67.7744 140.708 L67.7744 171.333 L75.4133 171.333 L75.4133 175.268 L55.506 175.268 L55.506 171.333 Z" fill="#000000" fill-rule="nonzero" fill-opacity="1" /><path clip-path="url(#clip150)" d="M84.8577 169.389 L89.7419 169.389 L89.7419 175.268 L84.8577 175.268 L84.8577 169.389 Z" fill="#000000" fill-rule="nonzero" fill-opacity="1" /><path clip-path="url(#clip150)" d="M103.955 171.333 L120.274 171.333 L120.274 175.268 L98.3298 175.268 L98.3298 171.333 Q100.992 168.579 105.575 163.949 Q110.182 159.296 111.362 157.954 Q113.608 155.43 114.487 153.694 Q115.39 151.935 115.39 150.245 Q115.39 147.491 113.445 145.755 Q111.524 144.018 108.422 144.018 Q106.223 144.018 103.77 144.782 Q101.339 145.546 98.5613 147.097 L98.5613 142.375 Q101.385 141.241 103.839 140.662 Q106.293 140.083 108.33 140.083 Q113.7 140.083 116.895 142.768 Q120.089 145.454 120.089 149.944 Q120.089 152.074 119.279 153.995 Q118.492 155.893 116.385 158.486 Q115.807 159.157 112.705 162.375 Q109.603 165.569 103.955 171.333 Z" fill="#000000" fill-rule="nonzero" fill-opacity="1" /><polyline clip-path="url(#clip152)" style="stroke:#009af9; stroke-linecap:round; stroke-linejoin:round; stroke-width:16; stroke-opacity:1; fill:none" stroke-dasharray="8, 16" points="218.439,1069.85 228.852,1072.85 239.264,1075.85 249.677,1078.86 260.09,1081.86 270.503,1084.86 280.916,1087.86 291.329,1090.96 301.741,1099.08 312.154,1127.56 322.567,1156.36 332.98,1185.16 343.393,1213.96 353.805,1242.76 364.218,1271.56 374.631,1300.36 385.044,1329.16 395.457,1357.27 405.87,1375.92 416.282,1394.57 426.695,1406.3 437.108,1408.63 447.521,1411.01 457.934,1410.39 468.347,1391.08 478.759,1371.57 489.172,1352.07 499.585,1322.07 509.998,1292.05 520.411,1262.03 530.824,1232.01 541.236,1201.99 551.649,1171.97 562.062,1141.95 572.475,1111.93 582.888,1092.23 593.301,1075.07 603.713,1057.91 614.126,1040.75 624.539,1023.59 634.952,1037.97 645.365,1064.47 655.777,1090.97 666.19,1117.46 676.603,1143.96 687.016,1170.45 697.429,1196.95 707.842,1223.45 718.254,1249.94 728.667,1276.44 739.08,1302.93 749.493,1329.43 759.906,1355.93 770.319,1381.21 780.731,1396.03 791.144,1405.58 801.557,1406.92 811.97,1408.25 822.383,1409.59 832.796,1402.73 843.208,1375.08 853.621,1344.21 864.034,1313.34 874.447,1282.47 884.86,1251.6 895.273,1220.72 905.685,1189.71 916.098,1159.56 926.511,1131.56 936.924,1107.49 947.337,1086.04 957.749,1073.17 968.162,1063.85 978.575,1053.69 988.988,1047.08 999.401,1049.58 1009.81,1068.66 1020.23,1087.9 1030.64,1107.14 1041.05,1129.84 1051.46,1156.68 1061.88,1193.18 1072.29,1230.45 1082.7,1261.36 1093.12,1292.28 1103.53,1321.65 1113.94,1350.77 1124.35,1376.62 1134.77,1390.16 1145.18,1402.52 1155.59,1393.21 1166.01,1380.86 1176.42,1375.99 1186.83,1380.99 1197.24,1404.2 1207.66,1442.91 1218.07,1445.72 1228.48,1367.24 1238.9,1187.85 1249.31,977.575 1259.72,720.171 1270.13,434.11 1280.55,315.589 1290.96,324.418 1301.37,329.277 1311.79,337.826 1322.2,358.58 1332.61,355.943 1343.02,342.123 1353.44,326.617 1363.85,316.52 1374.26,316.006 1384.68,324.415 1395.09,328.362 1405.5,335.029 1415.91,346 1426.33,358.057 1436.74,368.261 1447.15,372.173 1457.57,354.591 1467.98,337.06 1478.39,319.925 1488.8,306.765 1499.22,313.789 1509.63,320.814 1520.04,327.838 1530.45,334.862 1540.87,341.886 1551.28,348.91 1561.69,355.935 1572.11,355.444 1582.52,353.27 1592.93,351.096 1603.34,348.922 1613.76,346.759 1624.17,344.641 1634.58,342.524 1645,340.406 1655.41,338.289 1665.82,336.171 1676.23,334.054 1686.65,331.936 1697.06,329.819 1707.47,327.702 1717.89,325.584 1728.3,323.467 1738.71,321.349 1749.12,320.143 1759.54,320.962 1769.95,321.782 1780.36,322.601 1790.78,323.42 1801.19,324.24 1811.6,325.059 1822.01,325.878 1832.43,326.698 1842.84,327.517 1853.25,328.337 1863.67,329.156 1874.08,329.975 1884.49,330.795 1894.9,331.614 1905.32,332.433 1915.73,333.252 1926.14,334.072 1936.56,334.891 1946.97,335.711 1957.38,336.53 1967.79,337.35 1978.21,338.169 1988.62,338.988 1999.03,339.808 2009.45,340.627 2019.86,341.446 2030.27,342.266 2040.68,343.085 2051.1,343.904 2061.51,344.724 2071.92,345.543 2082.33,346.363 2092.75,347.182 2103.16,348.011 2113.57,350.437 2123.99,352.862 2134.4,355.288 2144.81,357.713 2155.22,360.14 2165.64,362.565 2176.05,364.991 2186.46,367.416 2196.88,369.842 2207.29,372.268 2217.7,374.694 2228.11,377.119 2238.53,379.545 2248.94,381.971 2259.35,384.396 2269.77,386.822 2280.18,389.248 2290.59,391.673 "/>
<polyline clip-path="url(#clip152)" style="stroke:#e26f46; stroke-linecap:round; stroke-linejoin:round; stroke-width:4; stroke-opacity:1; fill:none" points="218.439,1096.49 228.852,1077.44 239.264,1063.39 249.677,1054.81 260.09,1051.97 270.503,1054.96 280.916,1063.7 291.329,1077.88 301.741,1097.05 312.154,1120.59 322.567,1147.73 332.98,1177.57 343.393,1209.15 353.805,1241.44 364.218,1273.37 374.631,1303.92 385.044,1332.08 395.457,1356.93 405.87,1377.67 416.282,1393.61 426.695,1404.23 437.108,1409.2 447.521,1408.34 457.934,1401.68 468.347,1389.45 478.759,1372.04 489.172,1350.01 499.585,1324.1 509.998,1295.14 520.411,1264.07 530.824,1231.93 541.236,1199.74 551.649,1168.56 562.062,1139.42 572.475,1113.26 582.888,1090.93 593.301,1073.16 603.713,1060.54 614.126,1053.48 624.539,1052.2 634.952,1056.75 645.365,1066.98 655.777,1082.55 666.19,1102.96 676.603,1127.54 687.016,1155.5 697.429,1185.9 707.842,1217.78 718.254,1250.07 728.667,1281.74 739.08,1311.74 749.493,1339.1 759.906,1362.92 770.319,1382.43 780.731,1396.99 791.144,1406.13 801.557,1409.54 811.97,1407.12 822.383,1398.94 832.796,1385.27 843.208,1366.56 853.621,1343.42 864.034,1316.6 874.447,1286.98 884.86,1255.52 895.273,1223.26 905.685,1191.24 916.098,1160.51 926.511,1132.08 936.924,1106.86 947.337,1085.69 957.749,1069.26 968.162,1058.09 978.575,1052.56 988.988,1052.85 999.401,1058.94 1009.81,1070.64 1020.23,1087.57 1030.64,1109.17 1041.05,1134.74 1051.46,1163.44 1061.88,1194.34 1072.29,1226.43 1082.7,1258.66 1093.12,1289.98 1103.53,1319.37 1113.94,1345.86 1124.35,1368.6 1134.77,1386.84 1145.18,1399.99 1155.59,1407.61 1166.01,1409.46 1176.42,1405.48 1186.83,1395.8 1197.24,1380.73 1207.66,1360.77 1218.07,1336.56 1228.48,1308.9 1238.9,1278.69 1249.31,1246.92 1259.72,335.486 1270.13,334.009 1280.55,335.353 1290.96,339.83 1301.37,346.066 1311.79,351.428 1322.2,353.015 1332.61,348.89 1343.02,339.056 1353.44,325.799 1363.85,313.184 1374.26,305.814 1384.68,307.228 1395.09,318.472 1405.5,337.385 1415.91,358.909 1426.33,376.436 1436.74,383.83 1447.15,377.501 1457.57,357.864 1467.98,329.618 1478.39,300.672 1488.8,279.926 1499.22,274.551 1509.63,287.58 1520.04,316.606 1530.45,354.092 1540.87,389.306 1551.28,411.39 1561.69,412.699 1572.11,391.362 1582.52,352.259 1592.93,305.971 1603.34,265.932 1613.76,244.529 1624.17,249.288 1634.58,280.319 1645,329.856 1655.41,384.163 1665.82,427.331 1676.23,445.942 1686.65,433.215 1697.06,391.365 1707.47,331.381 1717.89,270.17 1728.3,225.786 1738.71,212.117 1749.12,234.563 1759.54,288.061 1769.95,358.144 1780.36,424.838 1790.78,468.35 1801.19,474.941 1811.6,441.226 1822.01,375.577 1832.43,296.094 1842.84,225.626 1853.25,185.199 1863.67,187.755 1874.08,234.048 1884.49,312.004 1894.9,399.832 1905.32,472.117 1915.73,507.168 1926.14,493.519 1936.56,433.623 1946.97,343.57 1957.38,248.784 1967.79,176.851 1978.21,149.488 1988.62,176.005 1999.03,250.21 2009.45,351.783 2019.86,451.821 2030.27,521.066 2040.68,538.46 2051.1,497.523 2061.51,408.649 2071.92,296.509 2082.33,193.21 2092.75,129.104 2103.16,123.875 2113.57,180.517 2123.99,284.048 2134.4,405.441 2144.81,509.759 2155.22,566.206 2165.64,557.219 2176.05,483.893 2186.46,366.1 2196.88,237.119 2207.29,134.238 2217.7,87.9763 2228.11,113.038 2238.53,203.681 2248.94,334.949 2259.35,469.527 2269.77,568.354 2280.18,601.948 2290.59,559.2 "/>
<path clip-path="url(#clip150)" d="M229.49 250.738 L675.966 250.738 L675.966 95.2176 L229.49 95.2176  Z" fill="#ffffff" fill-rule="evenodd" fill-opacity="1"/>
<polyline clip-path="url(#clip150)" style="stroke:#000000; stroke-linecap:round; stroke-linejoin:round; stroke-width:4; stroke-opacity:1; fill:none" points="229.49,250.738 675.966,250.738 675.966,95.2176 229.49,95.2176 229.49,250.738 "/>
<polyline clip-path="url(#clip150)" style="stroke:#009af9; stroke-linecap:round; stroke-linejoin:round; stroke-width:16; stroke-opacity:1; fill:none" stroke-dasharray="8, 16" points="253.896,147.058 400.328,147.058 "/>
<path clip-path="url(#clip150)" d="M429.409 133.62 L429.409 146.606 L435.289 146.606 Q438.552 146.606 440.335 144.916 Q442.117 143.227 442.117 140.102 Q442.117 137 440.335 135.31 Q438.552 133.62 435.289 133.62 L429.409 133.62 M424.733 129.778 L435.289 129.778 Q441.099 129.778 444.062 132.416 Q447.048 135.032 447.048 140.102 Q447.048 145.217 444.062 147.833 Q441.099 150.449 435.289 150.449 L429.409 150.449 L429.409 164.338 L424.733 164.338 L424.733 129.778 Z" fill="#000000" fill-rule="nonzero" fill-opacity="1" /><path clip-path="url(#clip150)" d="M467.325 142.393 Q466.608 141.977 465.751 141.791 Q464.918 141.583 463.899 141.583 Q460.288 141.583 458.344 143.944 Q456.423 146.282 456.423 150.68 L456.423 164.338 L452.14 164.338 L452.14 138.412 L456.423 138.412 L456.423 142.44 Q457.765 140.078 459.918 138.944 Q462.071 137.787 465.149 137.787 Q465.589 137.787 466.122 137.856 Q466.654 137.903 467.302 138.018 L467.325 142.393 Z" fill="#000000" fill-rule="nonzero" fill-opacity="1" /><path clip-path="url(#clip150)" d="M492.927 150.31 L492.927 152.393 L473.344 152.393 Q473.622 156.791 475.983 159.106 Q478.367 161.398 482.603 161.398 Q485.057 161.398 487.348 160.796 Q489.663 160.194 491.932 158.99 L491.932 163.018 Q489.64 163.99 487.233 164.5 Q484.825 165.009 482.348 165.009 Q476.145 165.009 472.511 161.398 Q468.899 157.787 468.899 151.629 Q468.899 145.264 472.325 141.537 Q475.774 137.787 481.608 137.787 Q486.839 137.787 489.872 141.166 Q492.927 144.523 492.927 150.31 M488.668 149.06 Q488.622 145.565 486.7 143.481 Q484.802 141.398 481.654 141.398 Q478.089 141.398 475.936 143.412 Q473.807 145.426 473.483 149.083 L488.668 149.06 Z" fill="#000000" fill-rule="nonzero" fill-opacity="1" /><path clip-path="url(#clip150)" d="M516.978 142.347 L516.978 128.319 L521.237 128.319 L521.237 164.338 L516.978 164.338 L516.978 160.449 Q515.635 162.763 513.575 163.898 Q511.538 165.009 508.668 165.009 Q503.969 165.009 501.006 161.259 Q498.066 157.509 498.066 151.398 Q498.066 145.287 501.006 141.537 Q503.969 137.787 508.668 137.787 Q511.538 137.787 513.575 138.921 Q515.635 140.032 516.978 142.347 M502.464 151.398 Q502.464 156.097 504.385 158.782 Q506.33 161.444 509.709 161.444 Q513.089 161.444 515.033 158.782 Q516.978 156.097 516.978 151.398 Q516.978 146.699 515.033 144.037 Q513.089 141.352 509.709 141.352 Q506.33 141.352 504.385 144.037 Q502.464 146.699 502.464 151.398 Z" fill="#000000" fill-rule="nonzero" fill-opacity="1" /><path clip-path="url(#clip150)" d="M530.01 138.412 L534.269 138.412 L534.269 164.338 L530.01 164.338 L530.01 138.412 M530.01 128.319 L534.269 128.319 L534.269 133.713 L530.01 133.713 L530.01 128.319 Z" fill="#000000" fill-rule="nonzero" fill-opacity="1" /><path clip-path="url(#clip150)" d="M561.839 139.407 L561.839 143.389 Q560.033 142.393 558.205 141.907 Q556.399 141.398 554.547 141.398 Q550.404 141.398 548.112 144.037 Q545.82 146.652 545.82 151.398 Q545.82 156.143 548.112 158.782 Q550.404 161.398 554.547 161.398 Q556.399 161.398 558.205 160.912 Q560.033 160.402 561.839 159.407 L561.839 163.342 Q560.056 164.176 558.135 164.592 Q556.237 165.009 554.084 165.009 Q548.228 165.009 544.779 161.328 Q541.33 157.648 541.33 151.398 Q541.33 145.055 544.802 141.421 Q548.297 137.787 554.362 137.787 Q556.33 137.787 558.205 138.203 Q560.08 138.597 561.839 139.407 Z" fill="#000000" fill-rule="nonzero" fill-opacity="1" /><path clip-path="url(#clip150)" d="M573.459 131.051 L573.459 138.412 L582.232 138.412 L582.232 141.722 L573.459 141.722 L573.459 155.796 Q573.459 158.967 574.316 159.87 Q575.195 160.773 577.857 160.773 L582.232 160.773 L582.232 164.338 L577.857 164.338 Q572.927 164.338 571.052 162.509 Q569.177 160.657 569.177 155.796 L569.177 141.722 L566.052 141.722 L566.052 138.412 L569.177 138.412 L569.177 131.051 L573.459 131.051 Z" fill="#000000" fill-rule="nonzero" fill-opacity="1" /><path clip-path="url(#clip150)" d="M587.834 138.412 L592.093 138.412 L592.093 164.338 L587.834 164.338 L587.834 138.412 M587.834 128.319 L592.093 128.319 L592.093 133.713 L587.834 133.713 L587.834 128.319 Z" fill="#000000" fill-rule="nonzero" fill-opacity="1" /><path clip-path="url(#clip150)" d="M611.051 141.398 Q607.626 141.398 605.635 144.083 Q603.644 146.745 603.644 151.398 Q603.644 156.051 605.612 158.736 Q607.602 161.398 611.051 161.398 Q614.454 161.398 616.445 158.713 Q618.436 156.027 618.436 151.398 Q618.436 146.791 616.445 144.106 Q614.454 141.398 611.051 141.398 M611.051 137.787 Q616.607 137.787 619.778 141.398 Q622.95 145.009 622.95 151.398 Q622.95 157.764 619.778 161.398 Q616.607 165.009 611.051 165.009 Q605.473 165.009 602.302 161.398 Q599.153 157.764 599.153 151.398 Q599.153 145.009 602.302 141.398 Q605.473 137.787 611.051 137.787 Z" fill="#000000" fill-rule="nonzero" fill-opacity="1" /><path clip-path="url(#clip150)" d="M651.561 148.689 L651.561 164.338 L647.301 164.338 L647.301 148.828 Q647.301 145.148 645.866 143.319 Q644.431 141.49 641.561 141.49 Q638.112 141.49 636.121 143.69 Q634.13 145.889 634.13 149.685 L634.13 164.338 L629.848 164.338 L629.848 138.412 L634.13 138.412 L634.13 142.44 Q635.658 140.102 637.718 138.944 Q639.801 137.787 642.51 137.787 Q646.977 137.787 649.269 140.565 Q651.561 143.319 651.561 148.689 Z" fill="#000000" fill-rule="nonzero" fill-opacity="1" /><polyline clip-path="url(#clip150)" style="stroke:#e26f46; stroke-linecap:round; stroke-linejoin:round; stroke-width:4; stroke-opacity:1; fill:none" points="253.896,198.898 400.328,198.898 "/>
<path clip-path="url(#clip150)" d="M424.733 181.618 L446.585 181.618 L446.585 185.553 L429.409 185.553 L429.409 195.784 L445.867 195.784 L445.867 199.719 L429.409 199.719 L429.409 212.242 L447.001 212.242 L447.001 216.178 L424.733 216.178 L424.733 181.618 Z" fill="#000000" fill-rule="nonzero" fill-opacity="1" /><path clip-path="url(#clip150)" d="M476.052 190.252 L466.677 202.867 L476.538 216.178 L471.515 216.178 L463.969 205.992 L456.423 216.178 L451.4 216.178 L461.469 202.613 L452.256 190.252 L457.279 190.252 L464.154 199.488 L471.029 190.252 L476.052 190.252 Z" fill="#000000" fill-rule="nonzero" fill-opacity="1" /><path clip-path="url(#clip150)" d="M494.339 203.145 Q489.177 203.145 487.186 204.326 Q485.196 205.506 485.196 208.354 Q485.196 210.622 486.677 211.965 Q488.182 213.284 490.751 213.284 Q494.293 213.284 496.422 210.784 Q498.575 208.261 498.575 204.094 L498.575 203.145 L494.339 203.145 M502.834 201.386 L502.834 216.178 L498.575 216.178 L498.575 212.242 Q497.117 214.603 494.941 215.738 Q492.765 216.849 489.617 216.849 Q485.635 216.849 483.274 214.627 Q480.936 212.381 480.936 208.631 Q480.936 204.256 483.853 202.034 Q486.793 199.812 492.603 199.812 L498.575 199.812 L498.575 199.395 Q498.575 196.455 496.631 194.858 Q494.71 193.238 491.214 193.238 Q488.992 193.238 486.885 193.77 Q484.779 194.303 482.835 195.367 L482.835 191.432 Q485.173 190.53 487.372 190.09 Q489.571 189.627 491.654 189.627 Q497.279 189.627 500.057 192.543 Q502.834 195.46 502.834 201.386 Z" fill="#000000" fill-rule="nonzero" fill-opacity="1" /><path clip-path="url(#clip150)" d="M530.265 191.247 L530.265 195.229 Q528.459 194.233 526.631 193.747 Q524.825 193.238 522.973 193.238 Q518.83 193.238 516.538 195.877 Q514.246 198.492 514.246 203.238 Q514.246 207.983 516.538 210.622 Q518.83 213.238 522.973 213.238 Q524.825 213.238 526.631 212.752 Q528.459 212.242 530.265 211.247 L530.265 215.182 Q528.482 216.016 526.561 216.432 Q524.663 216.849 522.51 216.849 Q516.654 216.849 513.205 213.168 Q509.756 209.488 509.756 203.238 Q509.756 196.895 513.228 193.261 Q516.723 189.627 522.788 189.627 Q524.756 189.627 526.631 190.043 Q528.506 190.437 530.265 191.247 Z" fill="#000000" fill-rule="nonzero" fill-opacity="1" /><path clip-path="url(#clip150)" d="M541.885 182.891 L541.885 190.252 L550.658 190.252 L550.658 193.562 L541.885 193.562 L541.885 207.636 Q541.885 210.807 542.742 211.71 Q543.621 212.613 546.283 212.613 L550.658 212.613 L550.658 216.178 L546.283 216.178 Q541.353 216.178 539.478 214.349 Q537.603 212.497 537.603 207.636 L537.603 193.562 L534.478 193.562 L534.478 190.252 L537.603 190.252 L537.603 182.891 L541.885 182.891 Z" fill="#000000" fill-rule="nonzero" fill-opacity="1" /></svg>
