<?xml version="1.0" encoding="utf-8"?>
<svg xmlns="http://www.w3.org/2000/svg" xmlns:xlink="http://www.w3.org/1999/xlink" width="600" height="400" viewBox="0 0 2400 1600">
<defs>
  <clipPath id="clip240">
    <rect x="0" y="0" width="2400" height="1600"/>
  </clipPath>
</defs>
<path clip-path="url(#clip240)" d="M0 1600 L2400 1600 L2400 0 L0 0  Z" fill="#ffffff" fill-rule="evenodd" fill-opacity="1"/>
<defs>
  <clipPath id="clip241">
    <rect x="480" y="0" width="1681" height="1600"/>
  </clipPath>
</defs>
<path clip-path="url(#clip240)" d="M192.339 1486.45 L2352.76 1486.45 L2352.76 47.2441 L192.339 47.2441  Z" fill="#ffffff" fill-rule="evenodd" fill-opacity="1"/>
<defs>
  <clipPath id="clip242">
    <rect x="192" y="47" width="2161" height="1440"/>
  </clipPath>
</defs>
<polyline clip-path="url(#clip242)" style="stroke:#000000; stroke-linecap:round; stroke-linejoin:round; stroke-width:2; stroke-opacity:0.1; fill:none" points="253.483,1486.45 253.483,47.2441 "/>
<polyline clip-path="url(#clip242)" style="stroke:#000000; stroke-linecap:round; stroke-linejoin:round; stroke-width:2; stroke-opacity:0.1; fill:none" points="763.015,1486.45 763.015,47.2441 "/>
<polyline clip-path="url(#clip242)" style="stroke:#000000; stroke-linecap:round; stroke-linejoin:round; stroke-width:2; stroke-opacity:0.1; fill:none" points="1272.55,1486.45 1272.55,47.2441 "/>
<polyline clip-path="url(#clip242)" style="stroke:#000000; stroke-linecap:round; stroke-linejoin:round; stroke-width:2; stroke-opacity:0.1; fill:none" points="1782.08,1486.45 1782.08,47.2441 "/>
<polyline clip-path="url(#clip242)" style="stroke:#000000; stroke-linecap:round; stroke-linejoin:round; stroke-width:2; stroke-opacity:0.1; fill:none" points="2291.61,1486.45 2291.61,47.2441 "/>
<polyline clip-path="url(#clip240)" style="stroke:#000000; stroke-linecap:round; stroke-linejoin:round; stroke-width:4; stroke-opacity:1; fill:none" points="192.339,1486.45 2352.76,1486.45 "/>
<polyline clip-path="url(#clip240)" style="stroke:#000000; stroke-linecap:round; stroke-linejoin:round; stroke-width:4; stroke-opacity:1; fill:none" points="253.483,1486.45 253.483,1467.55 "/>
<polyline clip-path="url(#clip240)" style="stroke:#000000; stroke-linecap:round; stroke-linejoin:round; stroke-width:4; stroke-opacity:1; fill:none" points="763.015,1486.45 763.015,1467.55 "/>
<polyline clip-path="url(#clip240)" style="stroke:#000000; stroke-linecap:round; stroke-linejoin:round; stroke-width:4; stroke-opacity:1; fill:none" points="1272.55,1486.45 1272.55,1467.55 "/>
<polyline clip-path="url(#clip240)" style="stroke:#000000; stroke-linecap:round; stroke-linejoin:round; stroke-width:4; stroke-opacity:1; fill:none" points="1782.08,1486.45 1782.08,1467.55 "/>
<polyline clip-path="url(#clip240)" style="stroke:#000000; stroke-linecap:round; stroke-linejoin:round; stroke-width:4; stroke-opacity:1; fill:none" points="2291.61,1486.45 2291.61,1467.55 "/>
<path clip-path="url(#clip240)" d="M200.011 1532.02 L229.686 1532.02 L229.686 1535.95 L200.011 1535.95 L200.011 1532.02 Z" fill="#000000" fill-rule="nonzero" fill-opacity="1" /><path clip-path="url(#clip240)" d="M240.589 1544.91 L248.228 1544.91 L248.228 1518.55 L239.918 1520.21 L239.918 1515.95 L248.182 1514.29 L252.858 1514.29 L252.858 1544.91 L260.497 1544.91 L260.497 1548.85 L240.589 1548.85 L240.589 1544.91 Z" fill="#000000" fill-rule="nonzero" fill-opacity="1" /><path clip-path="url(#clip240)" d="M269.941 1542.97 L274.825 1542.97 L274.825 1548.85 L269.941 1548.85 L269.941 1542.97 Z" fill="#000000" fill-rule="nonzero" fill-opacity="1" /><path clip-path="url(#clip240)" d="M295.01 1517.37 Q291.399 1517.37 289.57 1520.93 Q287.765 1524.47 287.765 1531.6 Q287.765 1538.71 289.57 1542.27 Q291.399 1545.82 295.01 1545.82 Q298.644 1545.82 300.45 1542.27 Q302.279 1538.71 302.279 1531.6 Q302.279 1524.47 300.45 1520.93 Q298.644 1517.37 295.01 1517.37 M295.01 1513.66 Q300.82 1513.66 303.876 1518.27 Q306.955 1522.85 306.955 1531.6 Q306.955 1540.33 303.876 1544.94 Q300.82 1549.52 295.01 1549.52 Q289.2 1549.52 286.121 1544.94 Q283.066 1540.33 283.066 1531.6 Q283.066 1522.85 286.121 1518.27 Q289.2 1513.66 295.01 1513.66 Z" fill="#000000" fill-rule="nonzero" fill-opacity="1" /><path clip-path="url(#clip240)" d="M710.041 1532.02 L739.717 1532.02 L739.717 1535.95 L710.041 1535.95 L710.041 1532.02 Z" fill="#000000" fill-rule="nonzero" fill-opacity="1" /><path clip-path="url(#clip240)" d="M759.809 1517.37 Q756.198 1517.37 754.369 1520.93 Q752.564 1524.47 752.564 1531.6 Q752.564 1538.71 754.369 1542.27 Q756.198 1545.82 759.809 1545.82 Q763.443 1545.82 765.249 1542.27 Q767.077 1538.71 767.077 1531.6 Q767.077 1524.47 765.249 1520.93 Q763.443 1517.37 759.809 1517.37 M759.809 1513.66 Q765.619 1513.66 768.675 1518.27 Q771.753 1522.85 771.753 1531.6 Q771.753 1540.33 768.675 1544.94 Q765.619 1549.52 759.809 1549.52 Q753.999 1549.52 750.92 1544.94 Q747.865 1540.33 747.865 1531.6 Q747.865 1522.85 750.92 1518.27 Q753.999 1513.66 759.809 1513.66 Z" fill="#000000" fill-rule="nonzero" fill-opacity="1" /><path clip-path="url(#clip240)" d="M779.971 1542.97 L784.855 1542.97 L784.855 1548.85 L779.971 1548.85 L779.971 1542.97 Z" fill="#000000" fill-rule="nonzero" fill-opacity="1" /><path clip-path="url(#clip240)" d="M795.087 1514.29 L813.443 1514.29 L813.443 1518.22 L799.369 1518.22 L799.369 1526.7 Q800.387 1526.35 801.406 1526.19 Q802.425 1526 803.443 1526 Q809.23 1526 812.61 1529.17 Q815.989 1532.34 815.989 1537.76 Q815.989 1543.34 812.517 1546.44 Q809.045 1549.52 802.725 1549.52 Q800.55 1549.52 798.281 1549.15 Q796.036 1548.78 793.628 1548.04 L793.628 1543.34 Q795.712 1544.47 797.934 1545.03 Q800.156 1545.58 802.633 1545.58 Q806.637 1545.58 808.975 1543.48 Q811.313 1541.37 811.313 1537.76 Q811.313 1534.15 808.975 1532.04 Q806.637 1529.94 802.633 1529.94 Q800.758 1529.94 798.883 1530.35 Q797.031 1530.77 795.087 1531.65 L795.087 1514.29 Z" fill="#000000" fill-rule="nonzero" fill-opacity="1" /><path clip-path="url(#clip240)" d="M1249.93 1517.37 Q1246.32 1517.37 1244.49 1520.93 Q1242.69 1524.47 1242.69 1531.6 Q1242.69 1538.71 1244.49 1542.27 Q1246.32 1545.82 1249.93 1545.82 Q1253.57 1545.82 1255.37 1542.27 Q1257.2 1538.71 1257.2 1531.6 Q1257.2 1524.47 1255.37 1520.93 Q1253.57 1517.37 1249.93 1517.37 M1249.93 1513.66 Q1255.74 1513.66 1258.8 1518.27 Q1261.88 1522.85 1261.88 1531.6 Q1261.88 1540.33 1258.8 1544.94 Q1255.74 1549.52 1249.93 1549.52 Q1244.12 1549.52 1241.04 1544.94 Q1237.99 1540.33 1237.99 1531.6 Q1237.99 1522.85 1241.04 1518.27 Q1244.12 1513.66 1249.93 1513.66 Z" fill="#000000" fill-rule="nonzero" fill-opacity="1" /><path clip-path="url(#clip240)" d="M1270.09 1542.97 L1274.98 1542.97 L1274.98 1548.85 L1270.09 1548.85 L1270.09 1542.97 Z" fill="#000000" fill-rule="nonzero" fill-opacity="1" /><path clip-path="url(#clip240)" d="M1295.16 1517.37 Q1291.55 1517.37 1289.72 1520.93 Q1287.92 1524.47 1287.92 1531.6 Q1287.92 1538.71 1289.72 1542.27 Q1291.55 1545.82 1295.16 1545.82 Q1298.8 1545.82 1300.6 1542.27 Q1302.43 1538.71 1302.43 1531.6 Q1302.43 1524.47 1300.6 1520.93 Q1298.8 1517.37 1295.16 1517.37 M1295.16 1513.66 Q1300.97 1513.66 1304.03 1518.27 Q1307.11 1522.85 1307.11 1531.6 Q1307.11 1540.33 1304.03 1544.94 Q1300.97 1549.52 1295.16 1549.52 Q1289.35 1549.52 1286.27 1544.94 Q1283.22 1540.33 1283.22 1531.6 Q1283.22 1522.85 1286.27 1518.27 Q1289.35 1513.66 1295.16 1513.66 Z" fill="#000000" fill-rule="nonzero" fill-opacity="1" /><path clip-path="url(#clip240)" d="M1759.96 1517.37 Q1756.35 1517.37 1754.52 1520.93 Q1752.72 1524.47 1752.72 1531.6 Q1752.72 1538.71 1754.52 1542.27 Q1756.35 1545.82 1759.96 1545.82 Q1763.6 1545.82 1765.4 1542.27 Q1767.23 1538.71 1767.23 1531.6 Q1767.23 1524.47 1765.4 1520.93 Q1763.6 1517.37 1759.96 1517.37 M1759.96 1513.66 Q1765.77 1513.66 1768.83 1518.27 Q1771.91 1522.85 1771.91 1531.6 Q1771.91 1540.33 1768.83 1544.94 Q1765.77 1549.52 1759.96 1549.52 Q1754.15 1549.52 1751.07 1544.94 Q1748.02 1540.33 1748.02 1531.6 Q1748.02 1522.85 1751.07 1518.27 Q1754.15 1513.66 1759.96 1513.66 Z" fill="#000000" fill-rule="nonzero" fill-opacity="1" /><path clip-path="url(#clip240)" d="M1780.12 1542.97 L1785.01 1542.97 L1785.01 1548.85 L1780.12 1548.85 L1780.12 1542.97 Z" fill="#000000" fill-rule="nonzero" fill-opacity="1" /><path clip-path="url(#clip240)" d="M1795.24 1514.29 L1813.6 1514.29 L1813.6 1518.22 L1799.52 1518.22 L1799.52 1526.7 Q1800.54 1526.35 1801.56 1526.19 Q1802.58 1526 1803.6 1526 Q1809.38 1526 1812.76 1529.17 Q1816.14 1532.34 1816.14 1537.76 Q1816.14 1543.34 1812.67 1546.44 Q1809.2 1549.52 1802.88 1549.52 Q1800.7 1549.52 1798.43 1549.15 Q1796.19 1548.78 1793.78 1548.04 L1793.78 1543.34 Q1795.86 1544.47 1798.09 1545.03 Q1800.31 1545.58 1802.79 1545.58 Q1806.79 1545.58 1809.13 1543.48 Q1811.47 1541.37 1811.47 1537.76 Q1811.47 1534.15 1809.13 1532.04 Q1806.79 1529.94 1802.79 1529.94 Q1800.91 1529.94 1799.04 1530.35 Q1797.18 1530.77 1795.24 1531.65 L1795.24 1514.29 Z" fill="#000000" fill-rule="nonzero" fill-opacity="1" /><path clip-path="url(#clip240)" d="M2258.76 1544.91 L2266.4 1544.91 L2266.4 1518.55 L2258.09 1520.21 L2258.09 1515.95 L2266.36 1514.29 L2271.03 1514.29 L2271.03 1544.91 L2278.67 1544.91 L2278.67 1548.85 L2258.76 1548.85 L2258.76 1544.91 Z" fill="#000000" fill-rule="nonzero" fill-opacity="1" /><path clip-path="url(#clip240)" d="M2288.12 1542.97 L2293 1542.97 L2293 1548.85 L2288.12 1548.85 L2288.12 1542.97 Z" fill="#000000" fill-rule="nonzero" fill-opacity="1" /><path clip-path="url(#clip240)" d="M2313.19 1517.37 Q2309.57 1517.37 2307.75 1520.93 Q2305.94 1524.47 2305.94 1531.6 Q2305.94 1538.71 2307.75 1542.27 Q2309.57 1545.82 2313.19 1545.82 Q2316.82 1545.82 2318.63 1542.27 Q2320.45 1538.71 2320.45 1531.6 Q2320.45 1524.47 2318.63 1520.93 Q2316.82 1517.37 2313.19 1517.37 M2313.19 1513.66 Q2319 1513.66 2322.05 1518.27 Q2325.13 1522.85 2325.13 1531.6 Q2325.13 1540.33 2322.05 1544.94 Q2319 1549.52 2313.19 1549.52 Q2307.38 1549.52 2304.3 1544.94 Q2301.24 1540.33 2301.24 1531.6 Q2301.24 1522.85 2304.3 1518.27 Q2307.38 1513.66 2313.19 1513.66 Z" fill="#000000" fill-rule="nonzero" fill-opacity="1" /><polyline clip-path="url(#clip242)" style="stroke:#000000; stroke-linecap:round; stroke-linejoin:round; stroke-width:2; stroke-opacity:0.1; fill:none" points="192.339,1377.2 2352.76,1377.2 "/>
<polyline clip-path="url(#clip242)" style="stroke:#000000; stroke-linecap:round; stroke-linejoin:round; stroke-width:2; stroke-opacity:0.1; fill:none" points="192.339,1202.78 2352.76,1202.78 "/>
<polyline clip-path="url(#clip242)" style="stroke:#000000; stroke-linecap:round; stroke-linejoin:round; stroke-width:2; stroke-opacity:0.1; fill:none" points="192.339,1028.36 2352.76,1028.36 "/>
<polyline clip-path="url(#clip242)" style="stroke:#000000; stroke-linecap:round; stroke-linejoin:round; stroke-width:2; stroke-opacity:0.1; fill:none" points="192.339,853.946 2352.76,853.946 "/>
<polyline clip-path="url(#clip242)" style="stroke:#000000; stroke-linecap:round; stroke-linejoin:round; stroke-width:2; stroke-opacity:0.1; fill:none" points="192.339,679.528 2352.76,679.528 "/>
<polyline clip-path="url(#clip242)" style="stroke:#000000; stroke-linecap:round; stroke-linejoin:round; stroke-width:2; stroke-opacity:0.1; fill:none" points="192.339,505.11 2352.76,505.11 "/>
<polyline clip-path="url(#clip242)" style="stroke:#000000; stroke-linecap:round; stroke-linejoin:round; stroke-width:2; stroke-opacity:0.1; fill:none" points="192.339,330.692 2352.76,330.692 "/>
<polyline clip-path="url(#clip242)" style="stroke:#000000; stroke-linecap:round; stroke-linejoin:round; stroke-width:2; stroke-opacity:0.1; fill:none" points="192.339,156.274 2352.76,156.274 "/>
<polyline clip-path="url(#clip240)" style="stroke:#000000; stroke-linecap:round; stroke-linejoin:round; stroke-width:4; stroke-opacity:1; fill:none" points="192.339,1486.45 192.339,47.2441 "/>
<polyline clip-path="url(#clip240)" style="stroke:#000000; stroke-linecap:round; stroke-linejoin:round; stroke-width:4; stroke-opacity:1; fill:none" points="192.339,1377.2 211.236,1377.2 "/>
<polyline clip-path="url(#clip240)" style="stroke:#000000; stroke-linecap:round; stroke-linejoin:round; stroke-width:4; stroke-opacity:1; fill:none" points="192.339,1202.78 211.236,1202.78 "/>
<polyline clip-path="url(#clip240)" style="stroke:#000000; stroke-linecap:round; stroke-linejoin:round; stroke-width:4; stroke-opacity:1; fill:none" points="192.339,1028.36 211.236,1028.36 "/>
<polyline clip-path="url(#clip240)" style="stroke:#000000; stroke-linecap:round; stroke-linejoin:round; stroke-width:4; stroke-opacity:1; fill:none" points="192.339,853.946 211.236,853.946 "/>
<polyline clip-path="url(#clip240)" style="stroke:#000000; stroke-linecap:round; stroke-linejoin:round; stroke-width:4; stroke-opacity:1; fill:none" points="192.339,679.528 211.236,679.528 "/>
<polyline clip-path="url(#clip240)" style="stroke:#000000; stroke-linecap:round; stroke-linejoin:round; stroke-width:4; stroke-opacity:1; fill:none" points="192.339,505.11 211.236,505.11 "/>
<polyline clip-path="url(#clip240)" style="stroke:#000000; stroke-linecap:round; stroke-linejoin:round; stroke-width:4; stroke-opacity:1; fill:none" points="192.339,330.692 211.236,330.692 "/>
<polyline clip-path="url(#clip240)" style="stroke:#000000; stroke-linecap:round; stroke-linejoin:round; stroke-width:4; stroke-opacity:1; fill:none" points="192.339,156.274 211.236,156.274 "/>
<path clip-path="url(#clip240)" d="M50.9921 1377.65 L80.6679 1377.65 L80.6679 1381.59 L50.9921 1381.59 L50.9921 1377.65 Z" fill="#000000" fill-rule="nonzero" fill-opacity="1" /><path clip-path="url(#clip240)" d="M100.76 1363 Q97.1493 1363 95.3206 1366.56 Q93.515 1370.1 93.515 1377.23 Q93.515 1384.34 95.3206 1387.91 Q97.1493 1391.45 100.76 1391.45 Q104.395 1391.45 106.2 1387.91 Q108.029 1384.34 108.029 1377.23 Q108.029 1370.1 106.2 1366.56 Q104.395 1363 100.76 1363 M100.76 1359.29 Q106.571 1359.29 109.626 1363.9 Q112.705 1368.48 112.705 1377.23 Q112.705 1385.96 109.626 1390.57 Q106.571 1395.15 100.76 1395.15 Q94.9502 1395.15 91.8715 1390.57 Q88.816 1385.96 88.816 1377.23 Q88.816 1368.48 91.8715 1363.9 Q94.9502 1359.29 100.76 1359.29 Z" fill="#000000" fill-rule="nonzero" fill-opacity="1" /><path clip-path="url(#clip240)" d="M120.922 1388.6 L125.807 1388.6 L125.807 1394.48 L120.922 1394.48 L120.922 1388.6 Z" fill="#000000" fill-rule="nonzero" fill-opacity="1" /><path clip-path="url(#clip240)" d="M140.019 1390.54 L156.339 1390.54 L156.339 1394.48 L134.394 1394.48 L134.394 1390.54 Q137.056 1387.79 141.64 1383.16 Q146.246 1378.51 147.427 1377.16 Q149.672 1374.64 150.552 1372.91 Q151.455 1371.15 151.455 1369.46 Q151.455 1366.7 149.51 1364.97 Q147.589 1363.23 144.487 1363.23 Q142.288 1363.23 139.834 1363.99 Q137.404 1364.76 134.626 1366.31 L134.626 1361.59 Q137.45 1360.45 139.904 1359.87 Q142.357 1359.29 144.394 1359.29 Q149.765 1359.29 152.959 1361.98 Q156.154 1364.66 156.154 1369.16 Q156.154 1371.29 155.343 1373.21 Q154.556 1375.1 152.45 1377.7 Q151.871 1378.37 148.769 1381.59 Q145.668 1384.78 140.019 1390.54 Z" fill="#000000" fill-rule="nonzero" fill-opacity="1" /><path clip-path="url(#clip240)" d="M99.1632 1188.58 Q95.5521 1188.58 93.7234 1192.15 Q91.9178 1195.69 91.9178 1202.82 Q91.9178 1209.92 93.7234 1213.49 Q95.5521 1217.03 99.1632 1217.03 Q102.797 1217.03 104.603 1213.49 Q106.432 1209.92 106.432 1202.82 Q106.432 1195.69 104.603 1192.15 Q102.797 1188.58 99.1632 1188.58 M99.1632 1184.88 Q104.973 1184.88 108.029 1189.48 Q111.108 1194.07 111.108 1202.82 Q111.108 1211.54 108.029 1216.15 Q104.973 1220.73 99.1632 1220.73 Q93.353 1220.73 90.2743 1216.15 Q87.2188 1211.54 87.2188 1202.82 Q87.2188 1194.07 90.2743 1189.48 Q93.353 1184.88 99.1632 1184.88 Z" fill="#000000" fill-rule="nonzero" fill-opacity="1" /><path clip-path="url(#clip240)" d="M119.325 1214.18 L124.209 1214.18 L124.209 1220.06 L119.325 1220.06 L119.325 1214.18 Z" fill="#000000" fill-rule="nonzero" fill-opacity="1" /><path clip-path="url(#clip240)" d="M144.394 1188.58 Q140.783 1188.58 138.955 1192.15 Q137.149 1195.69 137.149 1202.82 Q137.149 1209.92 138.955 1213.49 Q140.783 1217.03 144.394 1217.03 Q148.029 1217.03 149.834 1213.49 Q151.663 1209.92 151.663 1202.82 Q151.663 1195.69 149.834 1192.15 Q148.029 1188.58 144.394 1188.58 M144.394 1184.88 Q150.205 1184.88 153.26 1189.48 Q156.339 1194.07 156.339 1202.82 Q156.339 1211.54 153.26 1216.15 Q150.205 1220.73 144.394 1220.73 Q138.584 1220.73 135.506 1216.15 Q132.45 1211.54 132.45 1202.82 Q132.45 1194.07 135.506 1189.48 Q138.584 1184.88 144.394 1184.88 Z" fill="#000000" fill-rule="nonzero" fill-opacity="1" /><path clip-path="url(#clip240)" d="M100.76 1014.16 Q97.1493 1014.16 95.3206 1017.73 Q93.515 1021.27 93.515 1028.4 Q93.515 1035.5 95.3206 1039.07 Q97.1493 1042.61 100.76 1042.61 Q104.395 1042.61 106.2 1039.07 Q108.029 1035.5 108.029 1028.4 Q108.029 1021.27 106.2 1017.73 Q104.395 1014.16 100.76 1014.16 M100.76 1010.46 Q106.571 1010.46 109.626 1015.07 Q112.705 1019.65 112.705 1028.4 Q112.705 1037.13 109.626 1041.73 Q106.571 1046.31 100.76 1046.31 Q94.9502 1046.31 91.8715 1041.73 Q88.816 1037.13 88.816 1028.4 Q88.816 1019.65 91.8715 1015.07 Q94.9502 1010.46 100.76 1010.46 Z" fill="#000000" fill-rule="nonzero" fill-opacity="1" /><path clip-path="url(#clip240)" d="M120.922 1039.76 L125.807 1039.76 L125.807 1045.64 L120.922 1045.64 L120.922 1039.76 Z" fill="#000000" fill-rule="nonzero" fill-opacity="1" /><path clip-path="url(#clip240)" d="M140.019 1041.71 L156.339 1041.71 L156.339 1045.64 L134.394 1045.64 L134.394 1041.71 Q137.056 1038.95 141.64 1034.32 Q146.246 1029.67 147.427 1028.33 Q149.672 1025.81 150.552 1024.07 Q151.455 1022.31 151.455 1020.62 Q151.455 1017.87 149.51 1016.13 Q147.589 1014.39 144.487 1014.39 Q142.288 1014.39 139.834 1015.16 Q137.404 1015.92 134.626 1017.47 L134.626 1012.75 Q137.45 1011.62 139.904 1011.04 Q142.357 1010.46 144.394 1010.46 Q149.765 1010.46 152.959 1013.14 Q156.154 1015.83 156.154 1020.32 Q156.154 1022.45 155.343 1024.37 Q154.556 1026.27 152.45 1028.86 Q151.871 1029.53 148.769 1032.75 Q145.668 1035.94 140.019 1041.71 Z" fill="#000000" fill-rule="nonzero" fill-opacity="1" /><path clip-path="url(#clip240)" d="M98.6771 839.744 Q95.066 839.744 93.2373 843.309 Q91.4317 846.851 91.4317 853.98 Q91.4317 861.087 93.2373 864.652 Q95.066 868.193 98.6771 868.193 Q102.311 868.193 104.117 864.652 Q105.946 861.087 105.946 853.98 Q105.946 846.851 104.117 843.309 Q102.311 839.744 98.6771 839.744 M98.6771 836.041 Q104.487 836.041 107.543 840.647 Q110.621 845.23 110.621 853.98 Q110.621 862.707 107.543 867.314 Q104.487 871.897 98.6771 871.897 Q92.8669 871.897 89.7882 867.314 Q86.7327 862.707 86.7327 853.98 Q86.7327 845.23 89.7882 840.647 Q92.8669 836.041 98.6771 836.041 Z" fill="#000000" fill-rule="nonzero" fill-opacity="1" /><path clip-path="url(#clip240)" d="M118.839 865.346 L123.723 865.346 L123.723 871.226 L118.839 871.226 L118.839 865.346 Z" fill="#000000" fill-rule="nonzero" fill-opacity="1" /><path clip-path="url(#clip240)" d="M146.756 840.74 L134.95 859.189 L146.756 859.189 L146.756 840.74 M145.529 836.666 L151.408 836.666 L151.408 859.189 L156.339 859.189 L156.339 863.078 L151.408 863.078 L151.408 871.226 L146.756 871.226 L146.756 863.078 L131.154 863.078 L131.154 858.564 L145.529 836.666 Z" fill="#000000" fill-rule="nonzero" fill-opacity="1" /><path clip-path="url(#clip240)" d="M99.0011 665.326 Q95.39 665.326 93.5613 668.891 Q91.7558 672.433 91.7558 679.562 Q91.7558 686.669 93.5613 690.234 Q95.39 693.775 99.0011 693.775 Q102.635 693.775 104.441 690.234 Q106.27 686.669 106.27 679.562 Q106.27 672.433 104.441 668.891 Q102.635 665.326 99.0011 665.326 M99.0011 661.623 Q104.811 661.623 107.867 666.229 Q110.946 670.812 110.946 679.562 Q110.946 688.289 107.867 692.896 Q104.811 697.479 99.0011 697.479 Q93.191 697.479 90.1123 692.896 Q87.0567 688.289 87.0567 679.562 Q87.0567 670.812 90.1123 666.229 Q93.191 661.623 99.0011 661.623 Z" fill="#000000" fill-rule="nonzero" fill-opacity="1" /><path clip-path="url(#clip240)" d="M119.163 690.928 L124.047 690.928 L124.047 696.808 L119.163 696.808 L119.163 690.928 Z" fill="#000000" fill-rule="nonzero" fill-opacity="1" /><path clip-path="url(#clip240)" d="M144.811 677.664 Q141.663 677.664 139.811 679.817 Q137.982 681.97 137.982 685.72 Q137.982 689.447 139.811 691.623 Q141.663 693.775 144.811 693.775 Q147.959 693.775 149.788 691.623 Q151.64 689.447 151.64 685.72 Q151.64 681.97 149.788 679.817 Q147.959 677.664 144.811 677.664 M154.093 663.012 L154.093 667.271 Q152.334 666.438 150.529 665.998 Q148.746 665.558 146.987 665.558 Q142.357 665.558 139.904 668.683 Q137.473 671.808 137.126 678.127 Q138.492 676.113 140.552 675.049 Q142.612 673.961 145.089 673.961 Q150.297 673.961 153.306 677.132 Q156.339 680.28 156.339 685.72 Q156.339 691.044 153.191 694.261 Q150.043 697.479 144.811 697.479 Q138.816 697.479 135.644 692.896 Q132.473 688.289 132.473 679.562 Q132.473 671.368 136.362 666.507 Q140.251 661.623 146.802 661.623 Q148.561 661.623 150.343 661.97 Q152.149 662.317 154.093 663.012 Z" fill="#000000" fill-rule="nonzero" fill-opacity="1" /><path clip-path="url(#clip240)" d="M99.2558 490.908 Q95.6447 490.908 93.816 494.473 Q92.0104 498.015 92.0104 505.145 Q92.0104 512.251 93.816 515.816 Q95.6447 519.357 99.2558 519.357 Q102.89 519.357 104.696 515.816 Q106.524 512.251 106.524 505.145 Q106.524 498.015 104.696 494.473 Q102.89 490.908 99.2558 490.908 M99.2558 487.205 Q105.066 487.205 108.121 491.811 Q111.2 496.395 111.2 505.145 Q111.2 513.871 108.121 518.478 Q105.066 523.061 99.2558 523.061 Q93.4456 523.061 90.3669 518.478 Q87.3114 513.871 87.3114 505.145 Q87.3114 496.395 90.3669 491.811 Q93.4456 487.205 99.2558 487.205 Z" fill="#000000" fill-rule="nonzero" fill-opacity="1" /><path clip-path="url(#clip240)" d="M119.418 516.51 L124.302 516.51 L124.302 522.39 L119.418 522.39 L119.418 516.51 Z" fill="#000000" fill-rule="nonzero" fill-opacity="1" /><path clip-path="url(#clip240)" d="M144.487 505.978 Q141.154 505.978 139.232 507.76 Q137.334 509.543 137.334 512.668 Q137.334 515.793 139.232 517.575 Q141.154 519.357 144.487 519.357 Q147.82 519.357 149.742 517.575 Q151.663 515.769 151.663 512.668 Q151.663 509.543 149.742 507.76 Q147.843 505.978 144.487 505.978 M139.811 503.987 Q136.802 503.246 135.112 501.186 Q133.445 499.126 133.445 496.163 Q133.445 492.02 136.385 489.612 Q139.348 487.205 144.487 487.205 Q149.649 487.205 152.589 489.612 Q155.529 492.02 155.529 496.163 Q155.529 499.126 153.839 501.186 Q152.172 503.246 149.186 503.987 Q152.566 504.774 154.441 507.066 Q156.339 509.357 156.339 512.668 Q156.339 517.691 153.26 520.376 Q150.205 523.061 144.487 523.061 Q138.769 523.061 135.691 520.376 Q132.635 517.691 132.635 512.668 Q132.635 509.357 134.533 507.066 Q136.431 504.774 139.811 503.987 M138.098 496.603 Q138.098 499.288 139.765 500.793 Q141.455 502.297 144.487 502.297 Q147.496 502.297 149.186 500.793 Q150.899 499.288 150.899 496.603 Q150.899 493.918 149.186 492.413 Q147.496 490.908 144.487 490.908 Q141.455 490.908 139.765 492.413 Q138.098 493.918 138.098 496.603 Z" fill="#000000" fill-rule="nonzero" fill-opacity="1" /><path clip-path="url(#clip240)" d="M89.9734 344.037 L97.6122 344.037 L97.6122 317.671 L89.3021 319.338 L89.3021 315.079 L97.566 313.412 L102.242 313.412 L102.242 344.037 L109.881 344.037 L109.881 347.972 L89.9734 347.972 L89.9734 344.037 Z" fill="#000000" fill-rule="nonzero" fill-opacity="1" /><path clip-path="url(#clip240)" d="M119.325 342.092 L124.209 342.092 L124.209 347.972 L119.325 347.972 L119.325 342.092 Z" fill="#000000" fill-rule="nonzero" fill-opacity="1" /><path clip-path="url(#clip240)" d="M144.394 316.491 Q140.783 316.491 138.955 320.055 Q137.149 323.597 137.149 330.727 Q137.149 337.833 138.955 341.398 Q140.783 344.939 144.394 344.939 Q148.029 344.939 149.834 341.398 Q151.663 337.833 151.663 330.727 Q151.663 323.597 149.834 320.055 Q148.029 316.491 144.394 316.491 M144.394 312.787 Q150.205 312.787 153.26 317.393 Q156.339 321.977 156.339 330.727 Q156.339 339.453 153.26 344.06 Q150.205 348.643 144.394 348.643 Q138.584 348.643 135.506 344.06 Q132.45 339.453 132.45 330.727 Q132.45 321.977 135.506 317.393 Q138.584 312.787 144.394 312.787 Z" fill="#000000" fill-rule="nonzero" fill-opacity="1" /><path clip-path="url(#clip240)" d="M91.5706 169.619 L99.2095 169.619 L99.2095 143.253 L90.8993 144.92 L90.8993 140.661 L99.1632 138.994 L103.839 138.994 L103.839 169.619 L111.478 169.619 L111.478 173.554 L91.5706 173.554 L91.5706 169.619 Z" fill="#000000" fill-rule="nonzero" fill-opacity="1" /><path clip-path="url(#clip240)" d="M120.922 167.674 L125.807 167.674 L125.807 173.554 L120.922 173.554 L120.922 167.674 Z" fill="#000000" fill-rule="nonzero" fill-opacity="1" /><path clip-path="url(#clip240)" d="M140.019 169.619 L156.339 169.619 L156.339 173.554 L134.394 173.554 L134.394 169.619 Q137.056 166.864 141.64 162.235 Q146.246 157.582 147.427 156.239 Q149.672 153.716 150.552 151.98 Q151.455 150.221 151.455 148.531 Q151.455 145.776 149.51 144.04 Q147.589 142.304 144.487 142.304 Q142.288 142.304 139.834 143.068 Q137.404 143.832 134.626 145.383 L134.626 140.661 Q137.45 139.526 139.904 138.948 Q142.357 138.369 144.394 138.369 Q149.765 138.369 152.959 141.054 Q156.154 143.739 156.154 148.23 Q156.154 150.36 155.343 152.281 Q154.556 154.179 152.45 156.772 Q151.871 157.443 148.769 160.66 Q145.668 163.855 140.019 169.619 Z" fill="#000000" fill-rule="nonzero" fill-opacity="1" /><polyline clip-path="url(#clip242)" style="stroke:#009af9; stroke-linecap:round; stroke-linejoin:round; stroke-width:16; stroke-opacity:1; fill:none" stroke-dasharray="8, 16" points="253.483,1071.79 263.725,1105.19 273.966,1109.92 284.208,1082.12 294.45,1031.56 304.692,992.151 314.934,996.695 325.176,1034.46 335.418,1071.33 345.659,1096.49 355.901,1119.92 366.143,1148.65 376.385,1181.34 386.627,1214.54 396.869,1246.16 407.111,1275.37 417.352,1301.79 427.594,1325.14 437.836,1345 448.078,1360.81 458.32,1371.86 468.562,1377.45 478.803,1377.05 489.045,1370.41 499.287,1357.79 509.529,1339.92 519.771,1317.84 530.013,1292.66 540.255,1265.22 550.497,1236.05 560.738,1205.49 570.98,1174.04 581.222,1142.66 591.464,1112.84 601.706,1086.32 611.948,1064.55 622.19,1048.29 632.431,1037.5 642.673,1031.69 652.915,1030.47 663.157,1033.89 673.399,1042.33 683.641,1056.2 693.882,1075.69 704.124,1100.61 714.366,1130.34 724.608,1163.32 734.85,1196.69 745.092,1226.57 755.334,1249.94 765.575,1268.01 775.817,1287.94 786.059,1317.74 796.301,1354.64 806.543,1382.13 816.785,1388.48 827.027,1381.4 837.268,1374.86 847.51,1371.77 857.752,1364.2 867.994,1344.23 878.236,1311.68 888.478,1273.72 898.72,1239.44 908.961,1213.99 919.203,1195.76 929.445,1177.83 939.687,1152.41 949.929,1117.7 960.171,1082.25 970.413,1059.37 980.654,1058.02 990.896,1068.27 1001.14,1036.67 1011.38,938.974 1021.62,915.71 1031.86,1005.87 1042.11,1064.36 1052.35,1058.5 1062.59,1070.38 1072.83,1133.72 1083.07,1174.65 1093.31,1139.4 1103.56,1059.55 1113.8,1100.71 1124.04,1253.56 1134.28,1385.31 1144.52,1445.72 1154.77,1434.39 1165.01,1387.5 1175.25,1346.06 1185.49,1327.38 1195.73,1330.17 1205.98,1348.18 1216.22,1374.4 1226.46,1396.61 1236.7,1391.72 1246.94,1326.37 1257.18,1170.15 1267.43,923.718 1277.67,640.52 1287.91,407.722 1298.15,286.131 1308.39,266.009 1318.64,294.152 1328.88,329.251 1339.12,356.091 1349.36,369.506 1359.6,363.202 1369.84,334.181 1380.09,304.107 1390.33,326.783 1400.57,403.387 1410.81,397.526 1421.05,300.282 1431.3,297.243 1441.54,375.107 1451.78,401.872 1462.02,360.289 1472.26,306.32 1482.51,277.885 1492.75,265.901 1502.99,283.754 1513.23,338.549 1523.47,379.599 1533.71,370.029 1543.96,342.884 1554.2,379.308 1564.44,443.431 1574.68,442.764 1584.92,382.253 1595.17,315.825 1605.41,271.557 1615.65,247.536 1625.89,240.47 1636.13,253.863 1646.38,288.017 1656.62,333.93 1666.86,377.844 1677.1,408.5 1687.34,419.93 1697.58,410.526 1707.83,381.786 1718.07,338.178 1728.31,287.65 1738.55,241.518 1748.79,213.098 1759.04,215.48 1769.28,256.91 1779.52,331.086 1789.76,412.25 1800,468.755 1810.24,480.929 1820.49,445.32 1830.73,372.187 1840.97,283.867 1851.21,209.28 1861.45,172.333 1871.7,182.421 1881.94,233.79 1892.18,310.871 1902.42,393.889 1912.66,462.466 1922.91,498.14 1933.15,487.904 1943.39,429.983 1953.63,339.045 1963.87,243.971 1974.11,175.533 1984.36,152.48 1994.6,177.417 2004.84,242.862 2015.08,336.92 2025.32,439.068 2035.57,513.217 2045.81,522.323 2056.05,461.777 2066.29,364.867 2076.53,270.544 2086.77,200.375 2097.02,162.819 2107.26,162.507 2117.5,200.669 2127.74,271.324 2137.98,360.674 2148.23,450.665 2158.47,522.263 2168.71,553.993 2178.95,519.367 2189.19,404.967 2199.44,249.359 2209.68,133.405 2219.92,114.348 2230.16,172.282 2240.4,251.555 2250.64,324.761 2260.89,388.768 2271.13,445.932 2281.37,498.321 2291.61,547.66 "/>
<polyline clip-path="url(#clip242)" style="stroke:#e26f46; stroke-linecap:round; stroke-linejoin:round; stroke-width:4; stroke-opacity:1; fill:none" points="253.483,1071.8 263.725,1053.21 273.966,1039.51 284.208,1031.14 294.45,1028.36 304.692,1031.28 314.934,1039.8 325.176,1053.64 335.418,1072.35 345.659,1095.31 355.901,1121.78 366.143,1150.89 376.385,1181.7 386.627,1213.19 396.869,1244.35 407.111,1274.15 417.352,1301.62 427.594,1325.86 437.836,1346.09 448.078,1361.64 458.32,1372 468.562,1376.84 478.803,1376.01 489.045,1369.51 499.287,1357.58 509.529,1340.59 519.771,1319.11 530.013,1293.83 540.255,1265.58 550.497,1235.28 560.738,1203.91 570.98,1172.52 581.222,1142.1 591.464,1113.67 601.706,1088.15 611.948,1066.37 622.19,1049.04 632.431,1036.73 642.673,1029.84 652.915,1028.59 663.157,1033.03 673.399,1043 683.641,1058.2 693.882,1078.11 704.124,1102.09 714.366,1129.36 724.608,1159.02 734.85,1190.11 745.092,1221.62 755.334,1252.51 765.575,1281.77 775.817,1308.46 786.059,1331.7 796.301,1350.74 806.543,1364.94 816.785,1373.85 827.027,1377.18 837.268,1374.82 847.51,1366.84 857.752,1353.5 867.994,1335.25 878.236,1312.68 888.478,1286.51 898.72,1257.62 908.961,1226.93 919.203,1195.46 929.445,1164.23 939.687,1134.25 949.929,1106.51 960.171,1081.92 970.413,1061.26 980.654,1045.23 990.896,1034.34 1001.14,1028.94 1011.38,1029.22 1021.62,1035.17 1031.86,1046.58 1042.11,1063.09 1052.35,1084.17 1062.59,1109.11 1072.83,1137.11 1083.07,1167.25 1093.31,1198.55 1103.56,1230 1113.8,1260.55 1124.04,1289.22 1134.28,1315.06 1144.52,1337.24 1154.77,1355.04 1165.01,1367.86 1175.25,1375.3 1185.49,1377.1 1195.73,1373.22 1205.98,1363.77 1216.22,1349.07 1226.46,1329.6 1236.7,1305.98 1246.94,1279 1257.18,1249.53 1267.43,1218.54 1277.67,329.425 1287.91,327.984 1298.15,329.296 1308.39,333.663 1318.64,339.746 1328.88,344.977 1339.12,346.525 1349.36,342.501 1359.6,332.908 1369.84,319.976 1380.09,307.669 1390.33,300.48 1400.57,301.859 1410.81,312.828 1421.05,331.278 1431.3,352.274 1441.54,369.373 1451.78,376.585 1462.02,370.411 1472.26,351.255 1482.51,323.701 1492.75,295.464 1502.99,275.225 1513.23,269.982 1523.47,282.692 1533.71,311.007 1543.96,347.576 1554.2,381.927 1564.44,403.471 1574.68,404.747 1584.92,383.933 1595.17,345.788 1605.41,300.633 1615.65,261.575 1625.89,240.695 1636.13,245.338 1646.38,275.609 1656.62,323.934 1666.86,376.91 1677.1,419.021 1687.34,437.176 1697.58,424.761 1707.83,383.936 1718.07,325.421 1728.31,265.709 1738.55,222.412 1748.79,209.078 1759.04,230.973 1769.28,283.161 1779.52,351.529 1789.76,416.589 1800,459.036 1810.24,465.465 1820.49,432.576 1830.73,368.534 1840.97,290.998 1851.21,222.255 1861.45,182.819 1871.7,185.312 1881.94,230.472 1892.18,306.518 1902.42,392.196 1912.66,462.711 1922.91,496.904 1933.15,483.589 1943.39,425.16 1953.63,337.311 1963.87,244.847 1974.11,174.675 1984.36,147.982 1994.6,173.849 2004.84,246.238 2015.08,345.323 2025.32,442.911 2035.57,510.461 2045.81,527.429 2056.05,487.494 2066.29,400.797 2076.53,291.403 2086.77,190.633 2097.02,128.097 2107.26,122.996 2117.5,178.251 2127.74,279.247 2137.98,397.667 2148.23,499.43 2158.47,554.496 2168.71,545.728 2178.95,474.198 2189.19,359.29 2199.44,233.467 2209.68,133.105 2219.92,87.9763 2230.16,112.424 2240.4,200.848 2250.64,328.901 2260.89,460.184 2271.13,556.591 2281.37,589.363 2291.61,547.662 "/>
<path clip-path="url(#clip240)" d="M264.353 250.738 L707.222 250.738 L707.222 95.2176 L264.353 95.2176  Z" fill="#ffffff" fill-rule="evenodd" fill-opacity="1"/>
<polyline clip-path="url(#clip240)" style="stroke:#000000; stroke-linecap:round; stroke-linejoin:round; stroke-width:4; stroke-opacity:1; fill:none" points="264.353,250.738 707.222,250.738 707.222,95.2176 264.353,95.2176 264.353,250.738 "/>
<polyline clip-path="url(#clip240)" style="stroke:#009af9; stroke-linecap:round; stroke-linejoin:round; stroke-width:16; stroke-opacity:1; fill:none" stroke-dasharray="8, 16" points="288.357,147.058 432.385,147.058 "/>
<path clip-path="url(#clip240)" d="M461.066 133.62 L461.066 146.606 L466.945 146.606 Q470.209 146.606 471.992 144.916 Q473.774 143.227 473.774 140.102 Q473.774 137 471.992 135.31 Q470.209 133.62 466.945 133.62 L461.066 133.62 M456.39 129.778 L466.945 129.778 Q472.755 129.778 475.718 132.416 Q478.704 135.032 478.704 140.102 Q478.704 145.217 475.718 147.833 Q472.755 150.449 466.945 150.449 L461.066 150.449 L461.066 164.338 L456.39 164.338 L456.39 129.778 Z" fill="#000000" fill-rule="nonzero" fill-opacity="1" /><path clip-path="url(#clip240)" d="M498.982 142.393 Q498.265 141.977 497.408 141.791 Q496.575 141.583 495.556 141.583 Q491.945 141.583 490.001 143.944 Q488.079 146.282 488.079 150.68 L488.079 164.338 L483.797 164.338 L483.797 138.412 L488.079 138.412 L488.079 142.44 Q489.422 140.078 491.575 138.944 Q493.728 137.787 496.806 137.787 Q497.246 137.787 497.778 137.856 Q498.311 137.903 498.959 138.018 L498.982 142.393 Z" fill="#000000" fill-rule="nonzero" fill-opacity="1" /><path clip-path="url(#clip240)" d="M524.584 150.31 L524.584 152.393 L505.001 152.393 Q505.278 156.791 507.639 159.106 Q510.024 161.398 514.26 161.398 Q516.714 161.398 519.005 160.796 Q521.32 160.194 523.588 158.99 L523.588 163.018 Q521.297 163.99 518.889 164.5 Q516.482 165.009 514.005 165.009 Q507.802 165.009 504.167 161.398 Q500.556 157.787 500.556 151.629 Q500.556 145.264 503.982 141.537 Q507.431 137.787 513.264 137.787 Q518.496 137.787 521.528 141.166 Q524.584 144.523 524.584 150.31 M520.325 149.06 Q520.278 145.565 518.357 143.481 Q516.459 141.398 513.311 141.398 Q509.746 141.398 507.593 143.412 Q505.464 145.426 505.14 149.083 L520.325 149.06 Z" fill="#000000" fill-rule="nonzero" fill-opacity="1" /><path clip-path="url(#clip240)" d="M548.635 142.347 L548.635 128.319 L552.894 128.319 L552.894 164.338 L548.635 164.338 L548.635 160.449 Q547.292 162.763 545.232 163.898 Q543.195 165.009 540.325 165.009 Q535.625 165.009 532.663 161.259 Q529.723 157.509 529.723 151.398 Q529.723 145.287 532.663 141.537 Q535.625 137.787 540.325 137.787 Q543.195 137.787 545.232 138.921 Q547.292 140.032 548.635 142.347 M534.121 151.398 Q534.121 156.097 536.042 158.782 Q537.987 161.444 541.366 161.444 Q544.746 161.444 546.69 158.782 Q548.635 156.097 548.635 151.398 Q548.635 146.699 546.69 144.037 Q544.746 141.352 541.366 141.352 Q537.987 141.352 536.042 144.037 Q534.121 146.699 534.121 151.398 Z" fill="#000000" fill-rule="nonzero" fill-opacity="1" /><path clip-path="url(#clip240)" d="M561.667 138.412 L565.926 138.412 L565.926 164.338 L561.667 164.338 L561.667 138.412 M561.667 128.319 L565.926 128.319 L565.926 133.713 L561.667 133.713 L561.667 128.319 Z" fill="#000000" fill-rule="nonzero" fill-opacity="1" /><path clip-path="url(#clip240)" d="M593.496 139.407 L593.496 143.389 Q591.69 142.393 589.861 141.907 Q588.056 141.398 586.204 141.398 Q582.06 141.398 579.769 144.037 Q577.477 146.652 577.477 151.398 Q577.477 156.143 579.769 158.782 Q582.06 161.398 586.204 161.398 Q588.056 161.398 589.861 160.912 Q591.69 160.402 593.496 159.407 L593.496 163.342 Q591.713 164.176 589.792 164.592 Q587.894 165.009 585.741 165.009 Q579.884 165.009 576.435 161.328 Q572.986 157.648 572.986 151.398 Q572.986 145.055 576.459 141.421 Q579.954 137.787 586.019 137.787 Q587.986 137.787 589.861 138.203 Q591.736 138.597 593.496 139.407 Z" fill="#000000" fill-rule="nonzero" fill-opacity="1" /><path clip-path="url(#clip240)" d="M605.116 131.051 L605.116 138.412 L613.889 138.412 L613.889 141.722 L605.116 141.722 L605.116 155.796 Q605.116 158.967 605.972 159.87 Q606.852 160.773 609.514 160.773 L613.889 160.773 L613.889 164.338 L609.514 164.338 Q604.583 164.338 602.708 162.509 Q600.833 160.657 600.833 155.796 L600.833 141.722 L597.708 141.722 L597.708 138.412 L600.833 138.412 L600.833 131.051 L605.116 131.051 Z" fill="#000000" fill-rule="nonzero" fill-opacity="1" /><path clip-path="url(#clip240)" d="M619.491 138.412 L623.75 138.412 L623.75 164.338 L619.491 164.338 L619.491 138.412 M619.491 128.319 L623.75 128.319 L623.75 133.713 L619.491 133.713 L619.491 128.319 Z" fill="#000000" fill-rule="nonzero" fill-opacity="1" /><path clip-path="url(#clip240)" d="M642.708 141.398 Q639.282 141.398 637.292 144.083 Q635.301 146.745 635.301 151.398 Q635.301 156.051 637.268 158.736 Q639.259 161.398 642.708 161.398 Q646.111 161.398 648.102 158.713 Q650.092 156.027 650.092 151.398 Q650.092 146.791 648.102 144.106 Q646.111 141.398 642.708 141.398 M642.708 137.787 Q648.264 137.787 651.435 141.398 Q654.606 145.009 654.606 151.398 Q654.606 157.764 651.435 161.398 Q648.264 165.009 642.708 165.009 Q637.13 165.009 633.958 161.398 Q630.81 157.764 630.81 151.398 Q630.81 145.009 633.958 141.398 Q637.13 137.787 642.708 137.787 Z" fill="#000000" fill-rule="nonzero" fill-opacity="1" /><path clip-path="url(#clip240)" d="M683.217 148.689 L683.217 164.338 L678.958 164.338 L678.958 148.828 Q678.958 145.148 677.523 143.319 Q676.088 141.49 673.217 141.49 Q669.768 141.49 667.778 143.69 Q665.787 145.889 665.787 149.685 L665.787 164.338 L661.504 164.338 L661.504 138.412 L665.787 138.412 L665.787 142.44 Q667.315 140.102 669.375 138.944 Q671.458 137.787 674.166 137.787 Q678.634 137.787 680.926 140.565 Q683.217 143.319 683.217 148.689 Z" fill="#000000" fill-rule="nonzero" fill-opacity="1" /><polyline clip-path="url(#clip240)" style="stroke:#e26f46; stroke-linecap:round; stroke-linejoin:round; stroke-width:4; stroke-opacity:1; fill:none" points="288.357,198.898 432.385,198.898 "/>
<path clip-path="url(#clip240)" d="M456.39 181.618 L478.242 181.618 L478.242 185.553 L461.066 185.553 L461.066 195.784 L477.524 195.784 L477.524 199.719 L461.066 199.719 L461.066 212.242 L478.658 212.242 L478.658 216.178 L456.39 216.178 L456.39 181.618 Z" fill="#000000" fill-rule="nonzero" fill-opacity="1" /><path clip-path="url(#clip240)" d="M507.709 190.252 L498.334 202.867 L508.195 216.178 L503.172 216.178 L495.626 205.992 L488.079 216.178 L483.056 216.178 L493.126 202.613 L483.913 190.252 L488.936 190.252 L495.811 199.488 L502.686 190.252 L507.709 190.252 Z" fill="#000000" fill-rule="nonzero" fill-opacity="1" /><path clip-path="url(#clip240)" d="M525.996 203.145 Q520.834 203.145 518.843 204.326 Q516.852 205.506 516.852 208.354 Q516.852 210.622 518.334 211.965 Q519.838 213.284 522.408 213.284 Q525.95 213.284 528.079 210.784 Q530.232 208.261 530.232 204.094 L530.232 203.145 L525.996 203.145 M534.491 201.386 L534.491 216.178 L530.232 216.178 L530.232 212.242 Q528.774 214.603 526.598 215.738 Q524.422 216.849 521.274 216.849 Q517.292 216.849 514.931 214.627 Q512.593 212.381 512.593 208.631 Q512.593 204.256 515.51 202.034 Q518.45 199.812 524.26 199.812 L530.232 199.812 L530.232 199.395 Q530.232 196.455 528.288 194.858 Q526.366 193.238 522.871 193.238 Q520.649 193.238 518.542 193.77 Q516.436 194.303 514.491 195.367 L514.491 191.432 Q516.829 190.53 519.028 190.09 Q521.227 189.627 523.311 189.627 Q528.936 189.627 531.713 192.543 Q534.491 195.46 534.491 201.386 Z" fill="#000000" fill-rule="nonzero" fill-opacity="1" /><path clip-path="url(#clip240)" d="M561.922 191.247 L561.922 195.229 Q560.116 194.233 558.287 193.747 Q556.482 193.238 554.63 193.238 Q550.486 193.238 548.195 195.877 Q545.903 198.492 545.903 203.238 Q545.903 207.983 548.195 210.622 Q550.486 213.238 554.63 213.238 Q556.482 213.238 558.287 212.752 Q560.116 212.242 561.922 211.247 L561.922 215.182 Q560.139 216.016 558.218 216.432 Q556.32 216.849 554.167 216.849 Q548.311 216.849 544.862 213.168 Q541.412 209.488 541.412 203.238 Q541.412 196.895 544.885 193.261 Q548.38 189.627 554.445 189.627 Q556.412 189.627 558.287 190.043 Q560.162 190.437 561.922 191.247 Z" fill="#000000" fill-rule="nonzero" fill-opacity="1" /><path clip-path="url(#clip240)" d="M573.542 182.891 L573.542 190.252 L582.315 190.252 L582.315 193.562 L573.542 193.562 L573.542 207.636 Q573.542 210.807 574.398 211.71 Q575.278 212.613 577.94 212.613 L582.315 212.613 L582.315 216.178 L577.94 216.178 Q573.01 216.178 571.135 214.349 Q569.26 212.497 569.26 207.636 L569.26 193.562 L566.135 193.562 L566.135 190.252 L569.26 190.252 L569.26 182.891 L573.542 182.891 Z" fill="#000000" fill-rule="nonzero" fill-opacity="1" /></svg>
