<?xml version="1.0" encoding="utf-8"?>
<svg xmlns="http://www.w3.org/2000/svg" xmlns:xlink="http://www.w3.org/1999/xlink" width="600" height="400" viewBox="0 0 2400 1600">
<defs>
  <clipPath id="clip140">
    <rect x="0" y="0" width="2400" height="1600"/>
  </clipPath>
</defs>
<path clip-path="url(#clip140)" d="M0 1600 L2400 1600 L2400 0 L0 0  Z" fill="#ffffff" fill-rule="evenodd" fill-opacity="1"/>
<defs>
  <clipPath id="clip141">
    <rect x="480" y="0" width="1681" height="1600"/>
  </clipPath>
</defs>
<path clip-path="url(#clip140)" d="M192.339 1486.45 L2352.76 1486.45 L2352.76 47.2441 L192.339 47.2441  Z" fill="#ffffff" fill-rule="evenodd" fill-opacity="1"/>
<defs>
  <clipPath id="clip142">
    <rect x="192" y="47" width="2161" height="1440"/>
  </clipPath>
</defs>
<polyline clip-path="url(#clip142)" style="stroke:#000000; stroke-linecap:round; stroke-linejoin:round; stroke-width:2; stroke-opacity:0.1; fill:none" points="253.483,1486.45 253.483,47.2441 "/>
<polyline clip-path="url(#clip142)" style="stroke:#000000; stroke-linecap:round; stroke-linejoin:round; stroke-width:2; stroke-opacity:0.1; fill:none" points="763.015,1486.45 763.015,47.2441 "/>
<polyline clip-path="url(#clip142)" style="stroke:#000000; stroke-linecap:round; stroke-linejoin:round; stroke-width:2; stroke-opacity:0.1; fill:none" points="1272.55,1486.45 1272.55,47.2441 "/>
<polyline clip-path="url(#clip142)" style="stroke:#000000; stroke-linecap:round; stroke-linejoin:round; stroke-width:2; stroke-opacity:0.1; fill:none" points="1782.08,1486.45 1782.08,47.2441 "/>
<polyline clip-path="url(#clip142)" style="stroke:#000000; stroke-linecap:round; stroke-linejoin:round; stroke-width:2; stroke-opacity:0.1; fill:none" points="2291.61,1486.45 2291.61,47.2441 "/>
<polyline clip-path="url(#clip140)" style="stroke:#000000; stroke-linecap:round; stroke-linejoin:round; stroke-width:4; stroke-opacity:1; fill:none" points="192.339,1486.45 2352.76,1486.45 "/>
<polyline clip-path="url(#clip140)" style="stroke:#000000; stroke-linecap:round; stroke-linejoin:round; stroke-width:4; stroke-opacity:1; fill:none" points="253.483,1486.45 253.483,1467.55 "/>
<polyline clip-path="url(#clip140)" style="stroke:#000000; stroke-linecap:round; stroke-linejoin:round; stroke-width:4; stroke-opacity:1; fill:none" points="763.015,1486.45 763.015,1467.55 "/>
<polyline clip-path="url(#clip140)" style="stroke:#000000; stroke-linecap:round; stroke-linejoin:round; stroke-width:4; stroke-opacity:1; fill:none" points="1272.55,1486.45 1272.55,1467.55 "/>
<polyline clip-path="url(#clip140)" style="stroke:#000000; stroke-linecap:round; stroke-linejoin:round; stroke-width:4; stroke-opacity:1; fill:none" points="1782.08,1486.45 1782.08,1467.55 "/>
<polyline clip-path="url(#clip140)" style="stroke:#000000; stroke-linecap:round; stroke-linejoin:round; stroke-width:4; stroke-opacity:1; fill:none" points="2291.61,1486.45 2291.61,1467.55 "/>
<path clip-path="url(#clip140)" d="M200.011 1532.02 L229.686 1532.02 L229.686 1535.95 L200.011 1535.95 L200.011 1532.02 Z" fill="#000000" fill-rule="nonzero" fill-opacity="1" /><path clip-path="url(#clip140)" d="M240.589 1544.91 L248.228 1544.91 L248.228 1518.55 L239.918 1520.21 L239.918 1515.95 L248.182 1514.29 L252.858 1514.29 L252.858 1544.91 L260.497 1544.91 L260.497 1548.85 L240.589 1548.85 L240.589 1544.91 Z" fill="#000000" fill-rule="nonzero" fill-opacity="1" /><path clip-path="url(#clip140)" d="M269.941 1542.97 L274.825 1542.97 L274.825 1548.85 L269.941 1548.85 L269.941 1542.97 Z" fill="#000000" fill-rule="nonzero" fill-opacity="1" /><path clip-path="url(#clip140)" d="M295.01 1517.37 Q291.399 1517.37 289.57 1520.93 Q287.765 1524.47 287.765 1531.6 Q287.765 1538.71 289.57 1542.27 Q291.399 1545.82 295.01 1545.82 Q298.644 1545.82 300.45 1542.27 Q302.279 1538.71 302.279 1531.6 Q302.279 1524.47 300.45 1520.93 Q298.644 1517.37 295.01 1517.37 M295.01 1513.66 Q300.82 1513.66 303.876 1518.27 Q306.955 1522.85 306.955 1531.6 Q306.955 1540.33 303.876 1544.94 Q300.82 1549.52 295.01 1549.52 Q289.2 1549.52 286.121 1544.94 Q283.066 1540.33 283.066 1531.6 Q283.066 1522.85 286.121 1518.27 Q289.2 1513.66 295.01 1513.66 Z" fill="#000000" fill-rule="nonzero" fill-opacity="1" /><path clip-path="url(#clip140)" d="M710.041 1532.02 L739.717 1532.02 L739.717 1535.95 L710.041 1535.95 L710.041 1532.02 Z" fill="#000000" fill-rule="nonzero" fill-opacity="1" /><path clip-path="url(#clip140)" d="M759.809 1517.37 Q756.198 1517.37 754.369 1520.93 Q752.564 1524.47 752.564 1531.6 Q752.564 1538.71 754.369 1542.27 Q756.198 1545.82 759.809 1545.82 Q763.443 1545.82 765.249 1542.27 Q767.077 1538.71 767.077 1531.6 Q767.077 1524.47 765.249 1520.93 Q763.443 1517.37 759.809 1517.37 M759.809 1513.66 Q765.619 1513.66 768.675 1518.27 Q771.753 1522.85 771.753 1531.6 Q771.753 1540.33 768.675 1544.94 Q765.619 1549.52 759.809 1549.52 Q753.999 1549.52 750.92 1544.94 Q747.865 1540.33 747.865 1531.6 Q747.865 1522.85 750.92 1518.27 Q753.999 1513.66 759.809 1513.66 Z" fill="#000000" fill-rule="nonzero" fill-opacity="1" /><path clip-path="url(#clip140)" d="M779.971 1542.97 L784.855 1542.97 L784.855 1548.85 L779.971 1548.85 L779.971 1542.97 Z" fill="#000000" fill-rule="nonzero" fill-opacity="1" /><path clip-path="url(#clip140)" d="M795.087 1514.29 L813.443 1514.29 L813.443 1518.22 L799.369 1518.22 L799.369 1526.7 Q800.387 1526.35 801.406 1526.19 Q802.425 1526 803.443 1526 Q809.23 1526 812.61 1529.17 Q815.989 1532.34 815.989 1537.76 Q815.989 1543.34 812.517 1546.44 Q809.045 1549.52 802.725 1549.52 Q800.55 1549.52 798.281 1549.15 Q796.036 1548.78 793.628 1548.04 L793.628 1543.34 Q795.712 1544.47 797.934 1545.03 Q800.156 1545.58 802.633 1545.58 Q806.637 1545.58 808.975 1543.48 Q811.313 1541.37 811.313 1537.76 Q811.313 1534.15 808.975 1532.04 Q806.637 1529.94 802.633 1529.94 Q800.758 1529.94 798.883 1530.35 Q797.031 1530.77 795.087 1531.65 L795.087 1514.29 Z" fill="#000000" fill-rule="nonzero" fill-opacity="1" /><path clip-path="url(#clip140)" d="M1249.93 1517.37 Q1246.32 1517.37 1244.49 1520.93 Q1242.69 1524.47 1242.69 1531.6 Q1242.69 1538.71 1244.49 1542.27 Q1246.32 1545.82 1249.93 1545.82 Q1253.57 1545.82 1255.37 1542.27 Q1257.2 1538.71 1257.2 1531.6 Q1257.2 1524.47 1255.37 1520.93 Q1253.57 1517.37 1249.93 1517.37 M1249.93 1513.66 Q1255.74 1513.66 1258.8 1518.27 Q1261.88 1522.85 1261.88 1531.6 Q1261.88 1540.33 1258.8 1544.94 Q1255.74 1549.52 1249.93 1549.52 Q1244.12 1549.52 1241.04 1544.94 Q1237.99 1540.33 1237.99 1531.6 Q1237.99 1522.85 1241.04 1518.27 Q1244.12 1513.66 1249.93 1513.66 Z" fill="#000000" fill-rule="nonzero" fill-opacity="1" /><path clip-path="url(#clip140)" d="M1270.09 1542.97 L1274.98 1542.97 L1274.98 1548.85 L1270.09 1548.85 L1270.09 1542.97 Z" fill="#000000" fill-rule="nonzero" fill-opacity="1" /><path clip-path="url(#clip140)" d="M1295.16 1517.37 Q1291.55 1517.37 1289.72 1520.93 Q1287.92 1524.47 1287.92 1531.6 Q1287.92 1538.71 1289.72 1542.27 Q1291.55 1545.82 1295.16 1545.82 Q1298.8 1545.82 1300.6 1542.27 Q1302.43 1538.71 1302.43 1531.6 Q1302.43 1524.47 1300.6 1520.93 Q1298.8 1517.37 1295.16 1517.37 M1295.16 1513.66 Q1300.97 1513.66 1304.03 1518.27 Q1307.11 1522.85 1307.11 1531.6 Q1307.11 1540.33 1304.03 1544.94 Q1300.97 1549.52 1295.16 1549.52 Q1289.35 1549.52 1286.27 1544.94 Q1283.22 1540.33 1283.22 1531.6 Q1283.22 1522.85 1286.27 1518.27 Q1289.35 1513.66 1295.16 1513.66 Z" fill="#000000" fill-rule="nonzero" fill-opacity="1" /><path clip-path="url(#clip140)" d="M1759.96 1517.37 Q1756.35 1517.37 1754.52 1520.93 Q1752.72 1524.47 1752.72 1531.6 Q1752.72 1538.71 1754.52 1542.27 Q1756.35 1545.82 1759.96 1545.82 Q1763.6 1545.82 1765.4 1542.27 Q1767.23 1538.71 1767.23 1531.6 Q1767.23 1524.47 1765.4 1520.93 Q1763.6 1517.37 1759.96 1517.37 M1759.96 1513.66 Q1765.77 1513.66 1768.83 1518.27 Q1771.91 1522.85 1771.91 1531.6 Q1771.91 1540.33 1768.83 1544.94 Q1765.77 1549.52 1759.96 1549.52 Q1754.15 1549.52 1751.07 1544.94 Q1748.02 1540.33 1748.02 1531.6 Q1748.02 1522.85 1751.07 1518.27 Q1754.15 1513.66 1759.96 1513.66 Z" fill="#000000" fill-rule="nonzero" fill-opacity="1" /><path clip-path="url(#clip140)" d="M1780.12 1542.97 L1785.01 1542.97 L1785.01 1548.85 L1780.12 1548.85 L1780.12 1542.97 Z" fill="#000000" fill-rule="nonzero" fill-opacity="1" /><path clip-path="url(#clip140)" d="M1795.24 1514.29 L1813.6 1514.29 L1813.6 1518.22 L1799.52 1518.22 L1799.52 1526.7 Q1800.54 1526.35 1801.56 1526.19 Q1802.58 1526 1803.6 1526 Q1809.38 1526 1812.76 1529.17 Q1816.14 1532.34 1816.14 1537.76 Q1816.14 1543.34 1812.67 1546.44 Q1809.2 1549.52 1802.88 1549.52 Q1800.7 1549.52 1798.43 1549.15 Q1796.19 1548.78 1793.78 1548.04 L1793.78 1543.34 Q1795.86 1544.47 1798.09 1545.03 Q1800.31 1545.58 1802.79 1545.58 Q1806.79 1545.58 1809.13 1543.48 Q1811.47 1541.37 1811.47 1537.76 Q1811.47 1534.15 1809.13 1532.04 Q1806.79 1529.94 1802.79 1529.94 Q1800.91 1529.94 1799.04 1530.35 Q1797.18 1530.77 1795.24 1531.65 L1795.24 1514.29 Z" fill="#000000" fill-rule="nonzero" fill-opacity="1" /><path clip-path="url(#clip140)" d="M2258.76 1544.91 L2266.4 1544.91 L2266.4 1518.55 L2258.09 1520.21 L2258.09 1515.95 L2266.36 1514.29 L2271.03 1514.29 L2271.03 1544.91 L2278.67 1544.91 L2278.67 1548.85 L2258.76 1548.85 L2258.76 1544.91 Z" fill="#000000" fill-rule="nonzero" fill-opacity="1" /><path clip-path="url(#clip140)" d="M2288.12 1542.97 L2293 1542.97 L2293 1548.85 L2288.12 1548.85 L2288.12 1542.97 Z" fill="#000000" fill-rule="nonzero" fill-opacity="1" /><path clip-path="url(#clip140)" d="M2313.19 1517.37 Q2309.57 1517.37 2307.75 1520.93 Q2305.94 1524.47 2305.94 1531.6 Q2305.94 1538.71 2307.75 1542.27 Q2309.57 1545.82 2313.19 1545.82 Q2316.82 1545.82 2318.63 1542.27 Q2320.45 1538.71 2320.45 1531.6 Q2320.45 1524.47 2318.63 1520.93 Q2316.82 1517.37 2313.19 1517.37 M2313.19 1513.66 Q2319 1513.66 2322.05 1518.27 Q2325.13 1522.85 2325.13 1531.6 Q2325.13 1540.33 2322.05 1544.94 Q2319 1549.52 2313.19 1549.52 Q2307.38 1549.52 2304.3 1544.94 Q2301.24 1540.33 2301.24 1531.6 Q2301.24 1522.85 2304.3 1518.27 Q2307.38 1513.66 2313.19 1513.66 Z" fill="#000000" fill-rule="nonzero" fill-opacity="1" /><polyline clip-path="url(#clip142)" style="stroke:#000000; stroke-linecap:round; stroke-linejoin:round; stroke-width:2; stroke-opacity:0.1; fill:none" points="192.339,1389.35 2352.76,1389.35 "/>
<polyline clip-path="url(#clip142)" style="stroke:#000000; stroke-linecap:round; stroke-linejoin:round; stroke-width:2; stroke-opacity:0.1; fill:none" points="192.339,1213.29 2352.76,1213.29 "/>
<polyline clip-path="url(#clip142)" style="stroke:#000000; stroke-linecap:round; stroke-linejoin:round; stroke-width:2; stroke-opacity:0.1; fill:none" points="192.339,1037.22 2352.76,1037.22 "/>
<polyline clip-path="url(#clip142)" style="stroke:#000000; stroke-linecap:round; stroke-linejoin:round; stroke-width:2; stroke-opacity:0.1; fill:none" points="192.339,861.163 2352.76,861.163 "/>
<polyline clip-path="url(#clip142)" style="stroke:#000000; stroke-linecap:round; stroke-linejoin:round; stroke-width:2; stroke-opacity:0.1; fill:none" points="192.339,685.102 2352.76,685.102 "/>
<polyline clip-path="url(#clip142)" style="stroke:#000000; stroke-linecap:round; stroke-linejoin:round; stroke-width:2; stroke-opacity:0.1; fill:none" points="192.339,509.04 2352.76,509.04 "/>
<polyline clip-path="url(#clip142)" style="stroke:#000000; stroke-linecap:round; stroke-linejoin:round; stroke-width:2; stroke-opacity:0.1; fill:none" points="192.339,332.979 2352.76,332.979 "/>
<polyline clip-path="url(#clip142)" style="stroke:#000000; stroke-linecap:round; stroke-linejoin:round; stroke-width:2; stroke-opacity:0.1; fill:none" points="192.339,156.917 2352.76,156.917 "/>
<polyline clip-path="url(#clip140)" style="stroke:#000000; stroke-linecap:round; stroke-linejoin:round; stroke-width:4; stroke-opacity:1; fill:none" points="192.339,1486.45 192.339,47.2441 "/>
<polyline clip-path="url(#clip140)" style="stroke:#000000; stroke-linecap:round; stroke-linejoin:round; stroke-width:4; stroke-opacity:1; fill:none" points="192.339,1389.35 211.236,1389.35 "/>
<polyline clip-path="url(#clip140)" style="stroke:#000000; stroke-linecap:round; stroke-linejoin:round; stroke-width:4; stroke-opacity:1; fill:none" points="192.339,1213.29 211.236,1213.29 "/>
<polyline clip-path="url(#clip140)" style="stroke:#000000; stroke-linecap:round; stroke-linejoin:round; stroke-width:4; stroke-opacity:1; fill:none" points="192.339,1037.22 211.236,1037.22 "/>
<polyline clip-path="url(#clip140)" style="stroke:#000000; stroke-linecap:round; stroke-linejoin:round; stroke-width:4; stroke-opacity:1; fill:none" points="192.339,861.163 211.236,861.163 "/>
<polyline clip-path="url(#clip140)" style="stroke:#000000; stroke-linecap:round; stroke-linejoin:round; stroke-width:4; stroke-opacity:1; fill:none" points="192.339,685.102 211.236,685.102 "/>
<polyline clip-path="url(#clip140)" style="stroke:#000000; stroke-linecap:round; stroke-linejoin:round; stroke-width:4; stroke-opacity:1; fill:none" points="192.339,509.04 211.236,509.04 "/>
<polyline clip-path="url(#clip140)" style="stroke:#000000; stroke-linecap:round; stroke-linejoin:round; stroke-width:4; stroke-opacity:1; fill:none" points="192.339,332.979 211.236,332.979 "/>
<polyline clip-path="url(#clip140)" style="stroke:#000000; stroke-linecap:round; stroke-linejoin:round; stroke-width:4; stroke-opacity:1; fill:none" points="192.339,156.917 211.236,156.917 "/>
<path clip-path="url(#clip140)" d="M50.9921 1389.8 L80.6679 1389.8 L80.6679 1393.73 L50.9921 1393.73 L50.9921 1389.8 Z" fill="#000000" fill-rule="nonzero" fill-opacity="1" /><path clip-path="url(#clip140)" d="M100.76 1375.15 Q97.1493 1375.15 95.3206 1378.71 Q93.515 1382.25 93.515 1389.38 Q93.515 1396.49 95.3206 1400.05 Q97.1493 1403.59 100.76 1403.59 Q104.395 1403.59 106.2 1400.05 Q108.029 1396.49 108.029 1389.38 Q108.029 1382.25 106.2 1378.71 Q104.395 1375.15 100.76 1375.15 M100.76 1371.44 Q106.571 1371.44 109.626 1376.05 Q112.705 1380.63 112.705 1389.38 Q112.705 1398.11 109.626 1402.71 Q106.571 1407.3 100.76 1407.3 Q94.9502 1407.3 91.8715 1402.71 Q88.816 1398.11 88.816 1389.38 Q88.816 1380.63 91.8715 1376.05 Q94.9502 1371.44 100.76 1371.44 Z" fill="#000000" fill-rule="nonzero" fill-opacity="1" /><path clip-path="url(#clip140)" d="M120.922 1400.75 L125.807 1400.75 L125.807 1406.63 L120.922 1406.63 L120.922 1400.75 Z" fill="#000000" fill-rule="nonzero" fill-opacity="1" /><path clip-path="url(#clip140)" d="M140.019 1402.69 L156.339 1402.69 L156.339 1406.63 L134.394 1406.63 L134.394 1402.69 Q137.056 1399.94 141.64 1395.31 Q146.246 1390.65 147.427 1389.31 Q149.672 1386.79 150.552 1385.05 Q151.455 1383.29 151.455 1381.6 Q151.455 1378.85 149.51 1377.11 Q147.589 1375.38 144.487 1375.38 Q142.288 1375.38 139.834 1376.14 Q137.404 1376.9 134.626 1378.46 L134.626 1373.73 Q137.45 1372.6 139.904 1372.02 Q142.357 1371.44 144.394 1371.44 Q149.765 1371.44 152.959 1374.13 Q156.154 1376.81 156.154 1381.3 Q156.154 1383.43 155.343 1385.35 Q154.556 1387.25 152.45 1389.84 Q151.871 1390.52 148.769 1393.73 Q145.668 1396.93 140.019 1402.69 Z" fill="#000000" fill-rule="nonzero" fill-opacity="1" /><path clip-path="url(#clip140)" d="M99.1632 1199.08 Q95.5521 1199.08 93.7234 1202.65 Q91.9178 1206.19 91.9178 1213.32 Q91.9178 1220.43 93.7234 1223.99 Q95.5521 1227.53 99.1632 1227.53 Q102.797 1227.53 104.603 1223.99 Q106.432 1220.43 106.432 1213.32 Q106.432 1206.19 104.603 1202.65 Q102.797 1199.08 99.1632 1199.08 M99.1632 1195.38 Q104.973 1195.38 108.029 1199.99 Q111.108 1204.57 111.108 1213.32 Q111.108 1222.05 108.029 1226.65 Q104.973 1231.24 99.1632 1231.24 Q93.353 1231.24 90.2743 1226.65 Q87.2188 1222.05 87.2188 1213.32 Q87.2188 1204.57 90.2743 1199.99 Q93.353 1195.38 99.1632 1195.38 Z" fill="#000000" fill-rule="nonzero" fill-opacity="1" /><path clip-path="url(#clip140)" d="M119.325 1224.69 L124.209 1224.69 L124.209 1230.57 L119.325 1230.57 L119.325 1224.69 Z" fill="#000000" fill-rule="nonzero" fill-opacity="1" /><path clip-path="url(#clip140)" d="M144.394 1199.08 Q140.783 1199.08 138.955 1202.65 Q137.149 1206.19 137.149 1213.32 Q137.149 1220.43 138.955 1223.99 Q140.783 1227.53 144.394 1227.53 Q148.029 1227.53 149.834 1223.99 Q151.663 1220.43 151.663 1213.32 Q151.663 1206.19 149.834 1202.65 Q148.029 1199.08 144.394 1199.08 M144.394 1195.38 Q150.205 1195.38 153.26 1199.99 Q156.339 1204.57 156.339 1213.32 Q156.339 1222.05 153.26 1226.65 Q150.205 1231.24 144.394 1231.24 Q138.584 1231.24 135.506 1226.65 Q132.45 1222.05 132.45 1213.32 Q132.45 1204.57 135.506 1199.99 Q138.584 1195.38 144.394 1195.38 Z" fill="#000000" fill-rule="nonzero" fill-opacity="1" /><path clip-path="url(#clip140)" d="M100.76 1023.02 Q97.1493 1023.02 95.3206 1026.59 Q93.515 1030.13 93.515 1037.26 Q93.515 1044.37 95.3206 1047.93 Q97.1493 1051.47 100.76 1051.47 Q104.395 1051.47 106.2 1047.93 Q108.029 1044.37 108.029 1037.26 Q108.029 1030.13 106.2 1026.59 Q104.395 1023.02 100.76 1023.02 M100.76 1019.32 Q106.571 1019.32 109.626 1023.93 Q112.705 1028.51 112.705 1037.26 Q112.705 1045.99 109.626 1050.59 Q106.571 1055.18 100.76 1055.18 Q94.9502 1055.18 91.8715 1050.59 Q88.816 1045.99 88.816 1037.26 Q88.816 1028.51 91.8715 1023.93 Q94.9502 1019.32 100.76 1019.32 Z" fill="#000000" fill-rule="nonzero" fill-opacity="1" /><path clip-path="url(#clip140)" d="M120.922 1048.62 L125.807 1048.62 L125.807 1054.5 L120.922 1054.5 L120.922 1048.62 Z" fill="#000000" fill-rule="nonzero" fill-opacity="1" /><path clip-path="url(#clip140)" d="M140.019 1050.57 L156.339 1050.57 L156.339 1054.5 L134.394 1054.5 L134.394 1050.57 Q137.056 1047.81 141.64 1043.18 Q146.246 1038.53 147.427 1037.19 Q149.672 1034.67 150.552 1032.93 Q151.455 1031.17 151.455 1029.48 Q151.455 1026.73 149.51 1024.99 Q147.589 1023.25 144.487 1023.25 Q142.288 1023.25 139.834 1024.02 Q137.404 1024.78 134.626 1026.33 L134.626 1021.61 Q137.45 1020.48 139.904 1019.9 Q142.357 1019.32 144.394 1019.32 Q149.765 1019.32 152.959 1022 Q156.154 1024.69 156.154 1029.18 Q156.154 1031.31 155.343 1033.23 Q154.556 1035.13 152.45 1037.72 Q151.871 1038.39 148.769 1041.61 Q145.668 1044.81 140.019 1050.57 Z" fill="#000000" fill-rule="nonzero" fill-opacity="1" /><path clip-path="url(#clip140)" d="M98.6771 846.962 Q95.066 846.962 93.2373 850.526 Q91.4317 854.068 91.4317 861.198 Q91.4317 868.304 93.2373 871.869 Q95.066 875.411 98.6771 875.411 Q102.311 875.411 104.117 871.869 Q105.946 868.304 105.946 861.198 Q105.946 854.068 104.117 850.526 Q102.311 846.962 98.6771 846.962 M98.6771 843.258 Q104.487 843.258 107.543 847.864 Q110.621 852.448 110.621 861.198 Q110.621 869.924 107.543 874.531 Q104.487 879.114 98.6771 879.114 Q92.8669 879.114 89.7882 874.531 Q86.7327 869.924 86.7327 861.198 Q86.7327 852.448 89.7882 847.864 Q92.8669 843.258 98.6771 843.258 Z" fill="#000000" fill-rule="nonzero" fill-opacity="1" /><path clip-path="url(#clip140)" d="M118.839 872.563 L123.723 872.563 L123.723 878.443 L118.839 878.443 L118.839 872.563 Z" fill="#000000" fill-rule="nonzero" fill-opacity="1" /><path clip-path="url(#clip140)" d="M146.756 847.957 L134.95 866.406 L146.756 866.406 L146.756 847.957 M145.529 843.883 L151.408 843.883 L151.408 866.406 L156.339 866.406 L156.339 870.295 L151.408 870.295 L151.408 878.443 L146.756 878.443 L146.756 870.295 L131.154 870.295 L131.154 865.781 L145.529 843.883 Z" fill="#000000" fill-rule="nonzero" fill-opacity="1" /><path clip-path="url(#clip140)" d="M99.0011 670.9 Q95.39 670.9 93.5613 674.465 Q91.7558 678.007 91.7558 685.136 Q91.7558 692.243 93.5613 695.807 Q95.39 699.349 99.0011 699.349 Q102.635 699.349 104.441 695.807 Q106.27 692.243 106.27 685.136 Q106.27 678.007 104.441 674.465 Q102.635 670.9 99.0011 670.9 M99.0011 667.197 Q104.811 667.197 107.867 671.803 Q110.946 676.386 110.946 685.136 Q110.946 693.863 107.867 698.47 Q104.811 703.053 99.0011 703.053 Q93.191 703.053 90.1123 698.47 Q87.0567 693.863 87.0567 685.136 Q87.0567 676.386 90.1123 671.803 Q93.191 667.197 99.0011 667.197 Z" fill="#000000" fill-rule="nonzero" fill-opacity="1" /><path clip-path="url(#clip140)" d="M119.163 696.502 L124.047 696.502 L124.047 702.382 L119.163 702.382 L119.163 696.502 Z" fill="#000000" fill-rule="nonzero" fill-opacity="1" /><path clip-path="url(#clip140)" d="M144.811 683.238 Q141.663 683.238 139.811 685.391 Q137.982 687.544 137.982 691.294 Q137.982 695.02 139.811 697.196 Q141.663 699.349 144.811 699.349 Q147.959 699.349 149.788 697.196 Q151.64 695.02 151.64 691.294 Q151.64 687.544 149.788 685.391 Q147.959 683.238 144.811 683.238 M154.093 668.585 L154.093 672.845 Q152.334 672.011 150.529 671.572 Q148.746 671.132 146.987 671.132 Q142.357 671.132 139.904 674.257 Q137.473 677.382 137.126 683.701 Q138.492 681.687 140.552 680.622 Q142.612 679.534 145.089 679.534 Q150.297 679.534 153.306 682.706 Q156.339 685.854 156.339 691.294 Q156.339 696.618 153.191 699.835 Q150.043 703.053 144.811 703.053 Q138.816 703.053 135.644 698.47 Q132.473 693.863 132.473 685.136 Q132.473 676.942 136.362 672.081 Q140.251 667.197 146.802 667.197 Q148.561 667.197 150.343 667.544 Q152.149 667.891 154.093 668.585 Z" fill="#000000" fill-rule="nonzero" fill-opacity="1" /><path clip-path="url(#clip140)" d="M99.2558 494.839 Q95.6447 494.839 93.816 498.404 Q92.0104 501.945 92.0104 509.075 Q92.0104 516.181 93.816 519.746 Q95.6447 523.288 99.2558 523.288 Q102.89 523.288 104.696 519.746 Q106.524 516.181 106.524 509.075 Q106.524 501.945 104.696 498.404 Q102.89 494.839 99.2558 494.839 M99.2558 491.135 Q105.066 491.135 108.121 495.742 Q111.2 500.325 111.2 509.075 Q111.2 517.802 108.121 522.408 Q105.066 526.991 99.2558 526.991 Q93.4456 526.991 90.3669 522.408 Q87.3114 517.802 87.3114 509.075 Q87.3114 500.325 90.3669 495.742 Q93.4456 491.135 99.2558 491.135 Z" fill="#000000" fill-rule="nonzero" fill-opacity="1" /><path clip-path="url(#clip140)" d="M119.418 520.441 L124.302 520.441 L124.302 526.32 L119.418 526.32 L119.418 520.441 Z" fill="#000000" fill-rule="nonzero" fill-opacity="1" /><path clip-path="url(#clip140)" d="M144.487 509.908 Q141.154 509.908 139.232 511.691 Q137.334 513.473 137.334 516.598 Q137.334 519.723 139.232 521.505 Q141.154 523.288 144.487 523.288 Q147.82 523.288 149.742 521.505 Q151.663 519.7 151.663 516.598 Q151.663 513.473 149.742 511.691 Q147.843 509.908 144.487 509.908 M139.811 507.917 Q136.802 507.177 135.112 505.117 Q133.445 503.056 133.445 500.093 Q133.445 495.95 136.385 493.543 Q139.348 491.135 144.487 491.135 Q149.649 491.135 152.589 493.543 Q155.529 495.95 155.529 500.093 Q155.529 503.056 153.839 505.117 Q152.172 507.177 149.186 507.917 Q152.566 508.705 154.441 510.996 Q156.339 513.288 156.339 516.598 Q156.339 521.621 153.26 524.306 Q150.205 526.991 144.487 526.991 Q138.769 526.991 135.691 524.306 Q132.635 521.621 132.635 516.598 Q132.635 513.288 134.533 510.996 Q136.431 508.705 139.811 507.917 M138.098 500.533 Q138.098 503.218 139.765 504.723 Q141.455 506.228 144.487 506.228 Q147.496 506.228 149.186 504.723 Q150.899 503.218 150.899 500.533 Q150.899 497.848 149.186 496.343 Q147.496 494.839 144.487 494.839 Q141.455 494.839 139.765 496.343 Q138.098 497.848 138.098 500.533 Z" fill="#000000" fill-rule="nonzero" fill-opacity="1" /><path clip-path="url(#clip140)" d="M89.9734 346.324 L97.6122 346.324 L97.6122 319.958 L89.3021 321.625 L89.3021 317.365 L97.566 315.699 L102.242 315.699 L102.242 346.324 L109.881 346.324 L109.881 350.259 L89.9734 350.259 L89.9734 346.324 Z" fill="#000000" fill-rule="nonzero" fill-opacity="1" /><path clip-path="url(#clip140)" d="M119.325 344.379 L124.209 344.379 L124.209 350.259 L119.325 350.259 L119.325 344.379 Z" fill="#000000" fill-rule="nonzero" fill-opacity="1" /><path clip-path="url(#clip140)" d="M144.394 318.777 Q140.783 318.777 138.955 322.342 Q137.149 325.884 137.149 333.014 Q137.149 340.12 138.955 343.685 Q140.783 347.226 144.394 347.226 Q148.029 347.226 149.834 343.685 Q151.663 340.12 151.663 333.014 Q151.663 325.884 149.834 322.342 Q148.029 318.777 144.394 318.777 M144.394 315.074 Q150.205 315.074 153.26 319.68 Q156.339 324.264 156.339 333.014 Q156.339 341.74 153.26 346.347 Q150.205 350.93 144.394 350.93 Q138.584 350.93 135.506 346.347 Q132.45 341.74 132.45 333.014 Q132.45 324.264 135.506 319.68 Q138.584 315.074 144.394 315.074 Z" fill="#000000" fill-rule="nonzero" fill-opacity="1" /><path clip-path="url(#clip140)" d="M91.5706 170.262 L99.2095 170.262 L99.2095 143.897 L90.8993 145.563 L90.8993 141.304 L99.1632 139.637 L103.839 139.637 L103.839 170.262 L111.478 170.262 L111.478 174.197 L91.5706 174.197 L91.5706 170.262 Z" fill="#000000" fill-rule="nonzero" fill-opacity="1" /><path clip-path="url(#clip140)" d="M120.922 168.318 L125.807 168.318 L125.807 174.197 L120.922 174.197 L120.922 168.318 Z" fill="#000000" fill-rule="nonzero" fill-opacity="1" /><path clip-path="url(#clip140)" d="M140.019 170.262 L156.339 170.262 L156.339 174.197 L134.394 174.197 L134.394 170.262 Q137.056 167.508 141.64 162.878 Q146.246 158.225 147.427 156.883 Q149.672 154.36 150.552 152.623 Q151.455 150.864 151.455 149.174 Q151.455 146.42 149.51 144.684 Q147.589 142.948 144.487 142.948 Q142.288 142.948 139.834 143.711 Q137.404 144.475 134.626 146.026 L134.626 141.304 Q137.45 140.17 139.904 139.591 Q142.357 139.012 144.394 139.012 Q149.765 139.012 152.959 141.698 Q156.154 144.383 156.154 148.874 Q156.154 151.003 155.343 152.924 Q154.556 154.823 152.45 157.415 Q151.871 158.086 148.769 161.304 Q145.668 164.498 140.019 170.262 Z" fill="#000000" fill-rule="nonzero" fill-opacity="1" /><polyline clip-path="url(#clip142)" style="stroke:#009af9; stroke-linecap:round; stroke-linejoin:round; stroke-width:16; stroke-opacity:1; fill:none" stroke-dasharray="8, 16" points="253.483,1081.04 263.725,1074.76 273.966,1063.07 284.208,1049.17 294.45,1037.75 304.692,1033.84 314.934,1040.49 325.176,1057.22 335.418,1080.89 345.659,1108.01 355.901,1136.21 366.143,1164.5 376.385,1192.79 386.627,1221.5 396.869,1251.04 407.111,1281.47 417.352,1311.93 427.594,1340.34 437.836,1363.61 448.078,1379.01 458.32,1385.91 468.562,1386.23 478.803,1382.73 489.045,1376.85 499.287,1367.85 509.529,1353.83 519.771,1333.53 530.013,1307.43 540.255,1277.37 550.497,1245.49 560.738,1213.39 570.98,1182.03 581.222,1151.98 591.464,1123.78 601.706,1098.1 611.948,1075.86 622.19,1058.05 632.431,1045.46 642.673,1038.5 652.915,1037.31 663.157,1041.94 673.399,1052.3 683.641,1067.96 693.882,1088.16 704.124,1112.03 714.366,1138.88 724.608,1168.18 734.85,1199.35 745.092,1231.61 755.334,1263.76 765.575,1294.33 775.817,1321.73 786.059,1344.63 796.301,1362.33 806.543,1374.91 816.785,1382.97 827.027,1387.14 837.268,1387.37 847.51,1382.58 857.752,1370.85 867.994,1350.8 878.236,1323.85 888.478,1294.43 898.72,1265.59 908.961,1236.55 919.203,1205.9 929.445,1173.51 939.687,1139.94 949.929,1108.57 960.171,1090.61 970.413,1092.86 980.654,1095.47 990.896,1077.74 1001.14,1041.76 1011.38,1002.37 1021.62,981.595 1031.86,999.617 1042.11,1061.6 1052.35,1158.59 1062.59,1257.23 1072.83,1299.35 1083.07,1223.93 1093.31,1026.46 1103.56,1000.85 1113.8,1074.89 1124.04,1255.6 1134.28,1390.24 1144.52,1424.34 1154.77,1417.57 1165.01,1393.18 1175.25,1366.3 1185.49,1350.27 1195.73,1347.99 1205.98,1360.62 1216.22,1389.25 1226.46,1429.31 1236.7,1445.72 1246.94,1359.93 1257.18,1158.85 1267.43,879.355 1277.67,562.241 1287.91,364.742 1298.15,306.41 1308.39,254.911 1318.64,243.357 1328.88,291.745 1339.12,390.828 1349.36,437.207 1359.6,397.452 1369.84,342.345 1380.09,301.768 1390.33,281.675 1400.57,278.433 1410.81,284.929 1421.05,360.438 1431.3,459.969 1441.54,450.064 1451.78,400.876 1462.02,366.439 1472.26,313.65 1482.51,279.271 1492.75,278.175 1502.99,278.851 1513.23,271.607 1523.47,275.53 1533.71,304.908 1543.96,351.347 1554.2,400.021 1564.44,425.959 1574.68,420.064 1584.92,386.23 1595.17,341.3 1605.41,298.881 1615.65,262.54 1625.89,242.109 1636.13,248.959 1646.38,283.326 1656.62,331.905 1666.86,380.118 1677.1,418.372 1687.34,438.351 1697.58,430.079 1707.83,387.596 1718.07,321.027 1728.31,255.77 1738.55,215.054 1748.79,208.86 1759.04,236.017 1769.28,288.794 1779.52,355.295 1789.76,419.593 1800,463.458 1810.24,472.02 1820.49,439.566 1830.73,372.549 1840.97,289.748 1851.21,217.34 1861.45,178.704 1871.7,185.082 1881.94,232.411 1892.18,306.746 1902.42,392.47 1912.66,466.706 1922.91,495.456 1933.15,463.403 1943.39,396.121 1953.63,324.687 1963.87,260.163 1974.11,202.984 1984.36,162.12 1994.6,172.008 2004.84,253.925 2015.08,364.123 2025.32,457.744 2035.57,516.961 2045.81,531.522 2056.05,496.396 2066.29,416.963 2076.53,305.126 2086.77,184.549 2097.02,108.79 2107.26,118.439 2117.5,186.011 2127.74,276.629 2137.98,374.43 2148.23,465.877 2158.47,534.42 2168.71,555.902 2178.95,510.343 2189.19,403.497 2199.44,255.373 2209.68,133.481 2219.92,109.18 2230.16,155.296 2240.4,239.396 2250.64,328.005 2260.89,404.255 2271.13,465.838 2281.37,514.468 2291.61,552.027 "/>
<polyline clip-path="url(#clip142)" style="stroke:#e26f46; stroke-linecap:round; stroke-linejoin:round; stroke-width:4; stroke-opacity:1; fill:none" points="253.483,1081.07 263.725,1062.31 273.966,1048.48 284.208,1040.02 294.45,1037.22 304.692,1040.17 314.934,1048.77 325.176,1062.74 335.418,1081.62 345.659,1104.8 355.901,1131.52 366.143,1160.91 376.385,1192 386.627,1223.79 396.869,1255.24 407.111,1285.32 417.352,1313.05 427.594,1337.52 437.836,1357.94 448.078,1373.64 458.32,1384.1 468.562,1388.99 478.803,1388.14 489.045,1381.59 499.287,1369.54 509.529,1352.4 519.771,1330.71 530.013,1305.19 540.255,1276.67 550.497,1246.09 560.738,1214.43 570.98,1182.73 581.222,1152.04 591.464,1123.34 601.706,1097.57 611.948,1075.59 622.19,1058.1 632.431,1045.67 642.673,1038.71 652.915,1037.45 663.157,1041.93 673.399,1052 683.641,1067.34 693.882,1087.44 704.124,1111.64 714.366,1139.17 724.608,1169.11 734.85,1200.5 745.092,1232.3 755.334,1263.48 765.575,1293.02 775.817,1319.96 786.059,1343.42 796.301,1362.63 806.543,1376.97 816.785,1385.97 827.027,1389.33 837.268,1386.94 847.51,1378.89 857.752,1365.43 867.994,1347 878.236,1324.22 888.478,1297.81 898.72,1268.64 908.961,1237.67 919.203,1205.9 929.445,1174.37 939.687,1144.11 949.929,1116.11 960.171,1091.28 970.413,1070.43 980.654,1054.25 990.896,1043.25 1001.14,1037.81 1011.38,1038.09 1021.62,1044.09 1031.86,1055.61 1042.11,1072.28 1052.35,1093.55 1062.59,1118.73 1072.83,1146.99 1083.07,1177.42 1093.31,1209.02 1103.56,1240.76 1113.8,1271.6 1124.04,1300.53 1134.28,1326.62 1144.52,1349.02 1154.77,1366.98 1165.01,1379.92 1175.25,1387.43 1185.49,1389.25 1195.73,1385.33 1205.98,1375.8 1216.22,1360.96 1226.46,1341.3 1236.7,1317.46 1246.94,1290.22 1257.18,1260.48 1267.43,1229.19 1277.67,331.7 1287.91,330.245 1298.15,331.57 1308.39,335.978 1318.64,342.119 1328.88,347.398 1339.12,348.961 1349.36,344.899 1359.6,335.216 1369.84,322.162 1380.09,309.739 1390.33,302.482 1400.57,303.875 1410.81,314.947 1421.05,333.57 1431.3,354.765 1441.54,372.024 1451.78,379.304 1462.02,373.072 1472.26,353.736 1482.51,325.922 1492.75,297.419 1502.99,276.99 1513.23,271.697 1523.47,284.527 1533.71,313.109 1543.96,350.022 1554.2,384.697 1564.44,406.444 1574.68,407.732 1584.92,386.722 1595.17,348.217 1605.41,302.637 1615.65,263.211 1625.89,242.134 1636.13,246.821 1646.38,277.377 1656.62,326.157 1666.86,379.633 1677.1,422.14 1687.34,440.467 1697.58,427.934 1707.83,386.724 1718.07,327.658 1728.31,267.383 1738.55,223.679 1748.79,210.219 1759.04,232.321 1769.28,285 1779.52,354.012 1789.76,419.685 1800,462.532 1810.24,469.022 1820.49,435.823 1830.73,371.178 1840.97,292.911 1851.21,223.521 1861.45,183.712 1871.7,186.229 1881.94,231.814 1892.18,308.577 1902.42,395.062 1912.66,466.242 1922.91,500.757 1933.15,487.316 1943.39,428.337 1953.63,339.661 1963.87,246.325 1974.11,175.492 1984.36,148.548 1994.6,174.659 2004.84,247.729 2015.08,347.748 2025.32,446.256 2035.57,514.442 2045.81,531.569 2056.05,491.258 2066.29,403.744 2076.53,293.319 2086.77,191.6 2097.02,128.475 2107.26,123.326 2117.5,179.102 2127.74,281.049 2137.98,400.585 2148.23,503.307 2158.47,558.891 2168.71,550.041 2178.95,477.837 2189.19,361.846 2199.44,234.837 2209.68,133.53 2219.92,87.9763 2230.16,112.655 2240.4,201.911 2250.64,331.171 2260.89,463.691 2271.13,561.007 2281.37,594.087 2291.61,551.993 "/>
<path clip-path="url(#clip140)" d="M264.353 250.738 L707.222 250.738 L707.222 95.2176 L264.353 95.2176  Z" fill="#ffffff" fill-rule="evenodd" fill-opacity="1"/>
<polyline clip-path="url(#clip140)" style="stroke:#000000; stroke-linecap:round; stroke-linejoin:round; stroke-width:4; stroke-opacity:1; fill:none" points="264.353,250.738 707.222,250.738 707.222,95.2176 264.353,95.2176 264.353,250.738 "/>
<polyline clip-path="url(#clip140)" style="stroke:#009af9; stroke-linecap:round; stroke-linejoin:round; stroke-width:16; stroke-opacity:1; fill:none" stroke-dasharray="8, 16" points="288.357,147.058 432.385,147.058 "/>
<path clip-path="url(#clip140)" d="M461.066 133.62 L461.066 146.606 L466.945 146.606 Q470.209 146.606 471.992 144.916 Q473.774 143.227 473.774 140.102 Q473.774 137 471.992 135.31 Q470.209 133.62 466.945 133.62 L461.066 133.62 M456.39 129.778 L466.945 129.778 Q472.755 129.778 475.718 132.416 Q478.704 135.032 478.704 140.102 Q478.704 145.217 475.718 147.833 Q472.755 150.449 466.945 150.449 L461.066 150.449 L461.066 164.338 L456.39 164.338 L456.39 129.778 Z" fill="#000000" fill-rule="nonzero" fill-opacity="1" /><path clip-path="url(#clip140)" d="M498.982 142.393 Q498.265 141.977 497.408 141.791 Q496.575 141.583 495.556 141.583 Q491.945 141.583 490.001 143.944 Q488.079 146.282 488.079 150.68 L488.079 164.338 L483.797 164.338 L483.797 138.412 L488.079 138.412 L488.079 142.44 Q489.422 140.078 491.575 138.944 Q493.728 137.787 496.806 137.787 Q497.246 137.787 497.778 137.856 Q498.311 137.903 498.959 138.018 L498.982 142.393 Z" fill="#000000" fill-rule="nonzero" fill-opacity="1" /><path clip-path="url(#clip140)" d="M524.584 150.31 L524.584 152.393 L505.001 152.393 Q505.278 156.791 507.639 159.106 Q510.024 161.398 514.26 161.398 Q516.714 161.398 519.005 160.796 Q521.32 160.194 523.588 158.99 L523.588 163.018 Q521.297 163.99 518.889 164.5 Q516.482 165.009 514.005 165.009 Q507.802 165.009 504.167 161.398 Q500.556 157.787 500.556 151.629 Q500.556 145.264 503.982 141.537 Q507.431 137.787 513.264 137.787 Q518.496 137.787 521.528 141.166 Q524.584 144.523 524.584 150.31 M520.325 149.06 Q520.278 145.565 518.357 143.481 Q516.459 141.398 513.311 141.398 Q509.746 141.398 507.593 143.412 Q505.464 145.426 505.14 149.083 L520.325 149.06 Z" fill="#000000" fill-rule="nonzero" fill-opacity="1" /><path clip-path="url(#clip140)" d="M548.635 142.347 L548.635 128.319 L552.894 128.319 L552.894 164.338 L548.635 164.338 L548.635 160.449 Q547.292 162.763 545.232 163.898 Q543.195 165.009 540.325 165.009 Q535.625 165.009 532.663 161.259 Q529.723 157.509 529.723 151.398 Q529.723 145.287 532.663 141.537 Q535.625 137.787 540.325 137.787 Q543.195 137.787 545.232 138.921 Q547.292 140.032 548.635 142.347 M534.121 151.398 Q534.121 156.097 536.042 158.782 Q537.987 161.444 541.366 161.444 Q544.746 161.444 546.69 158.782 Q548.635 156.097 548.635 151.398 Q548.635 146.699 546.69 144.037 Q544.746 141.352 541.366 141.352 Q537.987 141.352 536.042 144.037 Q534.121 146.699 534.121 151.398 Z" fill="#000000" fill-rule="nonzero" fill-opacity="1" /><path clip-path="url(#clip140)" d="M561.667 138.412 L565.926 138.412 L565.926 164.338 L561.667 164.338 L561.667 138.412 M561.667 128.319 L565.926 128.319 L565.926 133.713 L561.667 133.713 L561.667 128.319 Z" fill="#000000" fill-rule="nonzero" fill-opacity="1" /><path clip-path="url(#clip140)" d="M593.496 139.407 L593.496 143.389 Q591.69 142.393 589.861 141.907 Q588.056 141.398 586.204 141.398 Q582.06 141.398 579.769 144.037 Q577.477 146.652 577.477 151.398 Q577.477 156.143 579.769 158.782 Q582.06 161.398 586.204 161.398 Q588.056 161.398 589.861 160.912 Q591.69 160.402 593.496 159.407 L593.496 163.342 Q591.713 164.176 589.792 164.592 Q587.894 165.009 585.741 165.009 Q579.884 165.009 576.435 161.328 Q572.986 157.648 572.986 151.398 Q572.986 145.055 576.459 141.421 Q579.954 137.787 586.019 137.787 Q587.986 137.787 589.861 138.203 Q591.736 138.597 593.496 139.407 Z" fill="#000000" fill-rule="nonzero" fill-opacity="1" /><path clip-path="url(#clip140)" d="M605.116 131.051 L605.116 138.412 L613.889 138.412 L613.889 141.722 L605.116 141.722 L605.116 155.796 Q605.116 158.967 605.972 159.87 Q606.852 160.773 609.514 160.773 L613.889 160.773 L613.889 164.338 L609.514 164.338 Q604.583 164.338 602.708 162.509 Q600.833 160.657 600.833 155.796 L600.833 141.722 L597.708 141.722 L597.708 138.412 L600.833 138.412 L600.833 131.051 L605.116 131.051 Z" fill="#000000" fill-rule="nonzero" fill-opacity="1" /><path clip-path="url(#clip140)" d="M619.491 138.412 L623.75 138.412 L623.75 164.338 L619.491 164.338 L619.491 138.412 M619.491 128.319 L623.75 128.319 L623.75 133.713 L619.491 133.713 L619.491 128.319 Z" fill="#000000" fill-rule="nonzero" fill-opacity="1" /><path clip-path="url(#clip140)" d="M642.708 141.398 Q639.282 141.398 637.292 144.083 Q635.301 146.745 635.301 151.398 Q635.301 156.051 637.268 158.736 Q639.259 161.398 642.708 161.398 Q646.111 161.398 648.102 158.713 Q650.092 156.027 650.092 151.398 Q650.092 146.791 648.102 144.106 Q646.111 141.398 642.708 141.398 M642.708 137.787 Q648.264 137.787 651.435 141.398 Q654.606 145.009 654.606 151.398 Q654.606 157.764 651.435 161.398 Q648.264 165.009 642.708 165.009 Q637.13 165.009 633.958 161.398 Q630.81 157.764 630.81 151.398 Q630.81 145.009 633.958 141.398 Q637.13 137.787 642.708 137.787 Z" fill="#000000" fill-rule="nonzero" fill-opacity="1" /><path clip-path="url(#clip140)" d="M683.217 148.689 L683.217 164.338 L678.958 164.338 L678.958 148.828 Q678.958 145.148 677.523 143.319 Q676.088 141.49 673.217 141.49 Q669.768 141.49 667.778 143.69 Q665.787 145.889 665.787 149.685 L665.787 164.338 L661.504 164.338 L661.504 138.412 L665.787 138.412 L665.787 142.44 Q667.315 140.102 669.375 138.944 Q671.458 137.787 674.166 137.787 Q678.634 137.787 680.926 140.565 Q683.217 143.319 683.217 148.689 Z" fill="#000000" fill-rule="nonzero" fill-opacity="1" /><polyline clip-path="url(#clip140)" style="stroke:#e26f46; stroke-linecap:round; stroke-linejoin:round; stroke-width:4; stroke-opacity:1; fill:none" points="288.357,198.898 432.385,198.898 "/>
<path clip-path="url(#clip140)" d="M456.39 181.618 L478.242 181.618 L478.242 185.553 L461.066 185.553 L461.066 195.784 L477.524 195.784 L477.524 199.719 L461.066 199.719 L461.066 212.242 L478.658 212.242 L478.658 216.178 L456.39 216.178 L456.39 181.618 Z" fill="#000000" fill-rule="nonzero" fill-opacity="1" /><path clip-path="url(#clip140)" d="M507.709 190.252 L498.334 202.867 L508.195 216.178 L503.172 216.178 L495.626 205.992 L488.079 216.178 L483.056 216.178 L493.126 202.613 L483.913 190.252 L488.936 190.252 L495.811 199.488 L502.686 190.252 L507.709 190.252 Z" fill="#000000" fill-rule="nonzero" fill-opacity="1" /><path clip-path="url(#clip140)" d="M525.996 203.145 Q520.834 203.145 518.843 204.326 Q516.852 205.506 516.852 208.354 Q516.852 210.622 518.334 211.965 Q519.838 213.284 522.408 213.284 Q525.95 213.284 528.079 210.784 Q530.232 208.261 530.232 204.094 L530.232 203.145 L525.996 203.145 M534.491 201.386 L534.491 216.178 L530.232 216.178 L530.232 212.242 Q528.774 214.603 526.598 215.738 Q524.422 216.849 521.274 216.849 Q517.292 216.849 514.931 214.627 Q512.593 212.381 512.593 208.631 Q512.593 204.256 515.51 202.034 Q518.45 199.812 524.26 199.812 L530.232 199.812 L530.232 199.395 Q530.232 196.455 528.288 194.858 Q526.366 193.238 522.871 193.238 Q520.649 193.238 518.542 193.77 Q516.436 194.303 514.491 195.367 L514.491 191.432 Q516.829 190.53 519.028 190.09 Q521.227 189.627 523.311 189.627 Q528.936 189.627 531.713 192.543 Q534.491 195.46 534.491 201.386 Z" fill="#000000" fill-rule="nonzero" fill-opacity="1" /><path clip-path="url(#clip140)" d="M561.922 191.247 L561.922 195.229 Q560.116 194.233 558.287 193.747 Q556.482 193.238 554.63 193.238 Q550.486 193.238 548.195 195.877 Q545.903 198.492 545.903 203.238 Q545.903 207.983 548.195 210.622 Q550.486 213.238 554.63 213.238 Q556.482 213.238 558.287 212.752 Q560.116 212.242 561.922 211.247 L561.922 215.182 Q560.139 216.016 558.218 216.432 Q556.32 216.849 554.167 216.849 Q548.311 216.849 544.862 213.168 Q541.412 209.488 541.412 203.238 Q541.412 196.895 544.885 193.261 Q548.38 189.627 554.445 189.627 Q556.412 189.627 558.287 190.043 Q560.162 190.437 561.922 191.247 Z" fill="#000000" fill-rule="nonzero" fill-opacity="1" /><path clip-path="url(#clip140)" d="M573.542 182.891 L573.542 190.252 L582.315 190.252 L582.315 193.562 L573.542 193.562 L573.542 207.636 Q573.542 210.807 574.398 211.71 Q575.278 212.613 577.94 212.613 L582.315 212.613 L582.315 216.178 L577.94 216.178 Q573.01 216.178 571.135 214.349 Q569.26 212.497 569.26 207.636 L569.26 193.562 L566.135 193.562 L566.135 190.252 L569.26 190.252 L569.26 182.891 L573.542 182.891 Z" fill="#000000" fill-rule="nonzero" fill-opacity="1" /></svg>
