<?xml version="1.0" encoding="utf-8"?>
<svg xmlns="http://www.w3.org/2000/svg" xmlns:xlink="http://www.w3.org/1999/xlink" width="600" height="400" viewBox="0 0 2400 1600">
<defs>
  <clipPath id="clip520">
    <rect x="0" y="0" width="2400" height="1600"/>
  </clipPath>
</defs>
<path clip-path="url(#clip520)" d="M0 1600 L2400 1600 L2400 0 L0 0  Z" fill="#ffffff" fill-rule="evenodd" fill-opacity="1"/>
<defs>
  <clipPath id="clip521">
    <rect x="480" y="0" width="1681" height="1600"/>
  </clipPath>
</defs>
<path clip-path="url(#clip520)" d="M156.274 1486.45 L2352.76 1486.45 L2352.76 47.2441 L156.274 47.2441  Z" fill="#ffffff" fill-rule="evenodd" fill-opacity="1"/>
<defs>
  <clipPath id="clip522">
    <rect x="156" y="47" width="2197" height="1440"/>
  </clipPath>
</defs>
<polyline clip-path="url(#clip522)" style="stroke:#000000; stroke-linecap:round; stroke-linejoin:round; stroke-width:2; stroke-opacity:0.1; fill:none" points="218.439,1486.45 218.439,47.2441 "/>
<polyline clip-path="url(#clip522)" style="stroke:#000000; stroke-linecap:round; stroke-linejoin:round; stroke-width:2; stroke-opacity:0.1; fill:none" points="736.477,1486.45 736.477,47.2441 "/>
<polyline clip-path="url(#clip522)" style="stroke:#000000; stroke-linecap:round; stroke-linejoin:round; stroke-width:2; stroke-opacity:0.1; fill:none" points="1254.52,1486.45 1254.52,47.2441 "/>
<polyline clip-path="url(#clip522)" style="stroke:#000000; stroke-linecap:round; stroke-linejoin:round; stroke-width:2; stroke-opacity:0.1; fill:none" points="1772.55,1486.45 1772.55,47.2441 "/>
<polyline clip-path="url(#clip522)" style="stroke:#000000; stroke-linecap:round; stroke-linejoin:round; stroke-width:2; stroke-opacity:0.1; fill:none" points="2290.59,1486.45 2290.59,47.2441 "/>
<polyline clip-path="url(#clip520)" style="stroke:#000000; stroke-linecap:round; stroke-linejoin:round; stroke-width:4; stroke-opacity:1; fill:none" points="156.274,1486.45 2352.76,1486.45 "/>
<polyline clip-path="url(#clip520)" style="stroke:#000000; stroke-linecap:round; stroke-linejoin:round; stroke-width:4; stroke-opacity:1; fill:none" points="218.439,1486.45 218.439,1467.55 "/>
<polyline clip-path="url(#clip520)" style="stroke:#000000; stroke-linecap:round; stroke-linejoin:round; stroke-width:4; stroke-opacity:1; fill:none" points="736.477,1486.45 736.477,1467.55 "/>
<polyline clip-path="url(#clip520)" style="stroke:#000000; stroke-linecap:round; stroke-linejoin:round; stroke-width:4; stroke-opacity:1; fill:none" points="1254.52,1486.45 1254.52,1467.55 "/>
<polyline clip-path="url(#clip520)" style="stroke:#000000; stroke-linecap:round; stroke-linejoin:round; stroke-width:4; stroke-opacity:1; fill:none" points="1772.55,1486.45 1772.55,1467.55 "/>
<polyline clip-path="url(#clip520)" style="stroke:#000000; stroke-linecap:round; stroke-linejoin:round; stroke-width:4; stroke-opacity:1; fill:none" points="2290.59,1486.45 2290.59,1467.55 "/>
<path clip-path="url(#clip520)" d="M164.967 1532.02 L194.643 1532.02 L194.643 1535.95 L164.967 1535.95 L164.967 1532.02 Z" fill="#000000" fill-rule="nonzero" fill-opacity="1" /><path clip-path="url(#clip520)" d="M205.545 1544.91 L213.184 1544.91 L213.184 1518.55 L204.874 1520.21 L204.874 1515.95 L213.138 1514.29 L217.814 1514.29 L217.814 1544.91 L225.453 1544.91 L225.453 1548.85 L205.545 1548.85 L205.545 1544.91 Z" fill="#000000" fill-rule="nonzero" fill-opacity="1" /><path clip-path="url(#clip520)" d="M234.897 1542.97 L239.781 1542.97 L239.781 1548.85 L234.897 1548.85 L234.897 1542.97 Z" fill="#000000" fill-rule="nonzero" fill-opacity="1" /><path clip-path="url(#clip520)" d="M259.966 1517.37 Q256.355 1517.37 254.527 1520.93 Q252.721 1524.47 252.721 1531.6 Q252.721 1538.71 254.527 1542.27 Q256.355 1545.82 259.966 1545.82 Q263.601 1545.82 265.406 1542.27 Q267.235 1538.71 267.235 1531.6 Q267.235 1524.47 265.406 1520.93 Q263.601 1517.37 259.966 1517.37 M259.966 1513.66 Q265.776 1513.66 268.832 1518.27 Q271.911 1522.85 271.911 1531.6 Q271.911 1540.33 268.832 1544.94 Q265.776 1549.52 259.966 1549.52 Q254.156 1549.52 251.077 1544.94 Q248.022 1540.33 248.022 1531.6 Q248.022 1522.85 251.077 1518.27 Q254.156 1513.66 259.966 1513.66 Z" fill="#000000" fill-rule="nonzero" fill-opacity="1" /><path clip-path="url(#clip520)" d="M683.503 1532.02 L713.178 1532.02 L713.178 1535.95 L683.503 1535.95 L683.503 1532.02 Z" fill="#000000" fill-rule="nonzero" fill-opacity="1" /><path clip-path="url(#clip520)" d="M733.271 1517.37 Q729.66 1517.37 727.831 1520.93 Q726.026 1524.47 726.026 1531.6 Q726.026 1538.71 727.831 1542.27 Q729.66 1545.82 733.271 1545.82 Q736.905 1545.82 738.711 1542.27 Q740.539 1538.71 740.539 1531.6 Q740.539 1524.47 738.711 1520.93 Q736.905 1517.37 733.271 1517.37 M733.271 1513.66 Q739.081 1513.66 742.137 1518.27 Q745.215 1522.85 745.215 1531.6 Q745.215 1540.33 742.137 1544.94 Q739.081 1549.52 733.271 1549.52 Q727.461 1549.52 724.382 1544.94 Q721.327 1540.33 721.327 1531.6 Q721.327 1522.85 724.382 1518.27 Q727.461 1513.66 733.271 1513.66 Z" fill="#000000" fill-rule="nonzero" fill-opacity="1" /><path clip-path="url(#clip520)" d="M753.433 1542.97 L758.317 1542.97 L758.317 1548.85 L753.433 1548.85 L753.433 1542.97 Z" fill="#000000" fill-rule="nonzero" fill-opacity="1" /><path clip-path="url(#clip520)" d="M768.548 1514.29 L786.905 1514.29 L786.905 1518.22 L772.831 1518.22 L772.831 1526.7 Q773.849 1526.35 774.868 1526.19 Q775.886 1526 776.905 1526 Q782.692 1526 786.072 1529.17 Q789.451 1532.34 789.451 1537.76 Q789.451 1543.34 785.979 1546.44 Q782.507 1549.52 776.187 1549.52 Q774.011 1549.52 771.743 1549.15 Q769.498 1548.78 767.09 1548.04 L767.09 1543.34 Q769.173 1544.47 771.396 1545.03 Q773.618 1545.58 776.095 1545.58 Q780.099 1545.58 782.437 1543.48 Q784.775 1541.37 784.775 1537.76 Q784.775 1534.15 782.437 1532.04 Q780.099 1529.94 776.095 1529.94 Q774.22 1529.94 772.345 1530.35 Q770.493 1530.77 768.548 1531.65 L768.548 1514.29 Z" fill="#000000" fill-rule="nonzero" fill-opacity="1" /><path clip-path="url(#clip520)" d="M1231.9 1517.37 Q1228.29 1517.37 1226.46 1520.93 Q1224.65 1524.47 1224.65 1531.6 Q1224.65 1538.71 1226.46 1542.27 Q1228.29 1545.82 1231.9 1545.82 Q1235.53 1545.82 1237.34 1542.27 Q1239.17 1538.71 1239.17 1531.6 Q1239.17 1524.47 1237.34 1520.93 Q1235.53 1517.37 1231.9 1517.37 M1231.9 1513.66 Q1237.71 1513.66 1240.77 1518.27 Q1243.84 1522.85 1243.84 1531.6 Q1243.84 1540.33 1240.77 1544.94 Q1237.71 1549.52 1231.9 1549.52 Q1226.09 1549.52 1223.01 1544.94 Q1219.96 1540.33 1219.96 1531.6 Q1219.96 1522.85 1223.01 1518.27 Q1226.09 1513.66 1231.9 1513.66 Z" fill="#000000" fill-rule="nonzero" fill-opacity="1" /><path clip-path="url(#clip520)" d="M1252.06 1542.97 L1256.95 1542.97 L1256.95 1548.85 L1252.06 1548.85 L1252.06 1542.97 Z" fill="#000000" fill-rule="nonzero" fill-opacity="1" /><path clip-path="url(#clip520)" d="M1277.13 1517.37 Q1273.52 1517.37 1271.69 1520.93 Q1269.89 1524.47 1269.89 1531.6 Q1269.89 1538.71 1271.69 1542.27 Q1273.52 1545.82 1277.13 1545.82 Q1280.76 1545.82 1282.57 1542.27 Q1284.4 1538.71 1284.4 1531.6 Q1284.4 1524.47 1282.57 1520.93 Q1280.76 1517.37 1277.13 1517.37 M1277.13 1513.66 Q1282.94 1513.66 1286 1518.27 Q1289.08 1522.85 1289.08 1531.6 Q1289.08 1540.33 1286 1544.94 Q1282.94 1549.52 1277.13 1549.52 Q1271.32 1549.52 1268.24 1544.94 Q1265.19 1540.33 1265.19 1531.6 Q1265.19 1522.85 1268.24 1518.27 Q1271.32 1513.66 1277.13 1513.66 Z" fill="#000000" fill-rule="nonzero" fill-opacity="1" /><path clip-path="url(#clip520)" d="M1750.44 1517.37 Q1746.82 1517.37 1745 1520.93 Q1743.19 1524.47 1743.19 1531.6 Q1743.19 1538.71 1745 1542.27 Q1746.82 1545.82 1750.44 1545.82 Q1754.07 1545.82 1755.88 1542.27 Q1757.7 1538.71 1757.7 1531.6 Q1757.7 1524.47 1755.88 1520.93 Q1754.07 1517.37 1750.44 1517.37 M1750.44 1513.66 Q1756.25 1513.66 1759.3 1518.27 Q1762.38 1522.85 1762.38 1531.6 Q1762.38 1540.33 1759.3 1544.94 Q1756.25 1549.52 1750.44 1549.52 Q1744.63 1549.52 1741.55 1544.94 Q1738.49 1540.33 1738.49 1531.6 Q1738.49 1522.85 1741.55 1518.27 Q1744.63 1513.66 1750.44 1513.66 Z" fill="#000000" fill-rule="nonzero" fill-opacity="1" /><path clip-path="url(#clip520)" d="M1770.6 1542.97 L1775.48 1542.97 L1775.48 1548.85 L1770.6 1548.85 L1770.6 1542.97 Z" fill="#000000" fill-rule="nonzero" fill-opacity="1" /><path clip-path="url(#clip520)" d="M1785.71 1514.29 L1804.07 1514.29 L1804.07 1518.22 L1790 1518.22 L1790 1526.7 Q1791.01 1526.35 1792.03 1526.19 Q1793.05 1526 1794.07 1526 Q1799.86 1526 1803.24 1529.17 Q1806.62 1532.34 1806.62 1537.76 Q1806.62 1543.34 1803.14 1546.44 Q1799.67 1549.52 1793.35 1549.52 Q1791.18 1549.52 1788.91 1549.15 Q1786.66 1548.78 1784.25 1548.04 L1784.25 1543.34 Q1786.34 1544.47 1788.56 1545.03 Q1790.78 1545.58 1793.26 1545.58 Q1797.26 1545.58 1799.6 1543.48 Q1801.94 1541.37 1801.94 1537.76 Q1801.94 1534.15 1799.6 1532.04 Q1797.26 1529.94 1793.26 1529.94 Q1791.38 1529.94 1789.51 1530.35 Q1787.66 1530.77 1785.71 1531.65 L1785.71 1514.29 Z" fill="#000000" fill-rule="nonzero" fill-opacity="1" /><path clip-path="url(#clip520)" d="M2257.74 1544.91 L2265.38 1544.91 L2265.38 1518.55 L2257.07 1520.21 L2257.07 1515.95 L2265.34 1514.29 L2270.01 1514.29 L2270.01 1544.91 L2277.65 1544.91 L2277.65 1548.85 L2257.74 1548.85 L2257.74 1544.91 Z" fill="#000000" fill-rule="nonzero" fill-opacity="1" /><path clip-path="url(#clip520)" d="M2287.1 1542.97 L2291.98 1542.97 L2291.98 1548.85 L2287.1 1548.85 L2287.1 1542.97 Z" fill="#000000" fill-rule="nonzero" fill-opacity="1" /><path clip-path="url(#clip520)" d="M2312.17 1517.37 Q2308.55 1517.37 2306.73 1520.93 Q2304.92 1524.47 2304.92 1531.6 Q2304.92 1538.71 2306.73 1542.27 Q2308.55 1545.82 2312.17 1545.82 Q2315.8 1545.82 2317.61 1542.27 Q2319.43 1538.71 2319.43 1531.6 Q2319.43 1524.47 2317.61 1520.93 Q2315.8 1517.37 2312.17 1517.37 M2312.17 1513.66 Q2317.98 1513.66 2321.03 1518.27 Q2324.11 1522.85 2324.11 1531.6 Q2324.11 1540.33 2321.03 1544.94 Q2317.98 1549.52 2312.17 1549.52 Q2306.36 1549.52 2303.28 1544.94 Q2300.22 1540.33 2300.22 1531.6 Q2300.22 1522.85 2303.28 1518.27 Q2306.36 1513.66 2312.17 1513.66 Z" fill="#000000" fill-rule="nonzero" fill-opacity="1" /><polyline clip-path="url(#clip522)" style="stroke:#000000; stroke-linecap:round; stroke-linejoin:round; stroke-width:2; stroke-opacity:0.1; fill:none" points="156.274,1229.43 2352.76,1229.43 "/>
<polyline clip-path="url(#clip522)" style="stroke:#000000; stroke-linecap:round; stroke-linejoin:round; stroke-width:2; stroke-opacity:0.1; fill:none" points="156.274,961.548 2352.76,961.548 "/>
<polyline clip-path="url(#clip522)" style="stroke:#000000; stroke-linecap:round; stroke-linejoin:round; stroke-width:2; stroke-opacity:0.1; fill:none" points="156.274,693.667 2352.76,693.667 "/>
<polyline clip-path="url(#clip522)" style="stroke:#000000; stroke-linecap:round; stroke-linejoin:round; stroke-width:2; stroke-opacity:0.1; fill:none" points="156.274,425.787 2352.76,425.787 "/>
<polyline clip-path="url(#clip522)" style="stroke:#000000; stroke-linecap:round; stroke-linejoin:round; stroke-width:2; stroke-opacity:0.1; fill:none" points="156.274,157.906 2352.76,157.906 "/>
<polyline clip-path="url(#clip520)" style="stroke:#000000; stroke-linecap:round; stroke-linejoin:round; stroke-width:4; stroke-opacity:1; fill:none" points="156.274,1486.45 156.274,47.2441 "/>
<polyline clip-path="url(#clip520)" style="stroke:#000000; stroke-linecap:round; stroke-linejoin:round; stroke-width:4; stroke-opacity:1; fill:none" points="156.274,1229.43 175.172,1229.43 "/>
<polyline clip-path="url(#clip520)" style="stroke:#000000; stroke-linecap:round; stroke-linejoin:round; stroke-width:4; stroke-opacity:1; fill:none" points="156.274,961.548 175.172,961.548 "/>
<polyline clip-path="url(#clip520)" style="stroke:#000000; stroke-linecap:round; stroke-linejoin:round; stroke-width:4; stroke-opacity:1; fill:none" points="156.274,693.667 175.172,693.667 "/>
<polyline clip-path="url(#clip520)" style="stroke:#000000; stroke-linecap:round; stroke-linejoin:round; stroke-width:4; stroke-opacity:1; fill:none" points="156.274,425.787 175.172,425.787 "/>
<polyline clip-path="url(#clip520)" style="stroke:#000000; stroke-linecap:round; stroke-linejoin:round; stroke-width:4; stroke-opacity:1; fill:none" points="156.274,157.906 175.172,157.906 "/>
<path clip-path="url(#clip520)" d="M63.0985 1215.23 Q59.4875 1215.23 57.6588 1218.79 Q55.8532 1222.33 55.8532 1229.46 Q55.8532 1236.57 57.6588 1240.13 Q59.4875 1243.68 63.0985 1243.68 Q66.7328 1243.68 68.5383 1240.13 Q70.367 1236.57 70.367 1229.46 Q70.367 1222.33 68.5383 1218.79 Q66.7328 1215.23 63.0985 1215.23 M63.0985 1211.52 Q68.9087 1211.52 71.9642 1216.13 Q75.0429 1220.71 75.0429 1229.46 Q75.0429 1238.19 71.9642 1242.8 Q68.9087 1247.38 63.0985 1247.38 Q57.2884 1247.38 54.2097 1242.8 Q51.1542 1238.19 51.1542 1229.46 Q51.1542 1220.71 54.2097 1216.13 Q57.2884 1211.52 63.0985 1211.52 Z" fill="#000000" fill-rule="nonzero" fill-opacity="1" /><path clip-path="url(#clip520)" d="M83.2605 1240.83 L88.1447 1240.83 L88.1447 1246.71 L83.2605 1246.71 L83.2605 1240.83 Z" fill="#000000" fill-rule="nonzero" fill-opacity="1" /><path clip-path="url(#clip520)" d="M108.33 1215.23 Q104.719 1215.23 102.89 1218.79 Q101.084 1222.33 101.084 1229.46 Q101.084 1236.57 102.89 1240.13 Q104.719 1243.68 108.33 1243.68 Q111.964 1243.68 113.77 1240.13 Q115.598 1236.57 115.598 1229.46 Q115.598 1222.33 113.77 1218.79 Q111.964 1215.23 108.33 1215.23 M108.33 1211.52 Q114.14 1211.52 117.195 1216.13 Q120.274 1220.71 120.274 1229.46 Q120.274 1238.19 117.195 1242.8 Q114.14 1247.38 108.33 1247.38 Q102.52 1247.38 99.4409 1242.8 Q96.3854 1238.19 96.3854 1229.46 Q96.3854 1220.71 99.4409 1216.13 Q102.52 1211.52 108.33 1211.52 Z" fill="#000000" fill-rule="nonzero" fill-opacity="1" /><path clip-path="url(#clip520)" d="M63.7467 947.346 Q60.1356 947.346 58.3069 950.911 Q56.5014 954.453 56.5014 961.583 Q56.5014 968.689 58.3069 972.254 Q60.1356 975.795 63.7467 975.795 Q67.3809 975.795 69.1865 972.254 Q71.0152 968.689 71.0152 961.583 Q71.0152 954.453 69.1865 950.911 Q67.3809 947.346 63.7467 947.346 M63.7467 943.643 Q69.5568 943.643 72.6124 948.249 Q75.6911 952.833 75.6911 961.583 Q75.6911 970.309 72.6124 974.916 Q69.5568 979.499 63.7467 979.499 Q57.9365 979.499 54.8578 974.916 Q51.8023 970.309 51.8023 961.583 Q51.8023 952.833 54.8578 948.249 Q57.9365 943.643 63.7467 943.643 Z" fill="#000000" fill-rule="nonzero" fill-opacity="1" /><path clip-path="url(#clip520)" d="M83.9086 972.948 L88.7928 972.948 L88.7928 978.828 L83.9086 978.828 L83.9086 972.948 Z" fill="#000000" fill-rule="nonzero" fill-opacity="1" /><path clip-path="url(#clip520)" d="M113.145 960.194 Q116.501 960.911 118.376 963.18 Q120.274 965.448 120.274 968.782 Q120.274 973.897 116.756 976.698 Q113.237 979.499 106.756 979.499 Q104.58 979.499 102.265 979.059 Q99.9733 978.643 97.5197 977.786 L97.5197 973.272 Q99.4641 974.407 101.779 974.985 Q104.094 975.564 106.617 975.564 Q111.015 975.564 113.307 973.828 Q115.621 972.092 115.621 968.782 Q115.621 965.726 113.469 964.013 Q111.339 962.277 107.52 962.277 L103.492 962.277 L103.492 958.434 L107.705 958.434 Q111.154 958.434 112.983 957.069 Q114.811 955.68 114.811 953.087 Q114.811 950.425 112.913 949.013 Q111.038 947.578 107.52 947.578 Q105.598 947.578 103.399 947.995 Q101.2 948.411 98.5613 949.291 L98.5613 945.124 Q101.223 944.384 103.538 944.013 Q105.876 943.643 107.936 943.643 Q113.26 943.643 116.362 946.073 Q119.464 948.481 119.464 952.601 Q119.464 955.471 117.82 957.462 Q116.177 959.43 113.145 960.194 Z" fill="#000000" fill-rule="nonzero" fill-opacity="1" /><path clip-path="url(#clip520)" d="M62.9365 679.466 Q59.3254 679.466 57.4967 683.031 Q55.6912 686.572 55.6912 693.702 Q55.6912 700.808 57.4967 704.373 Q59.3254 707.915 62.9365 707.915 Q66.5707 707.915 68.3763 704.373 Q70.205 700.808 70.205 693.702 Q70.205 686.572 68.3763 683.031 Q66.5707 679.466 62.9365 679.466 M62.9365 675.762 Q68.7467 675.762 71.8022 680.369 Q74.8809 684.952 74.8809 693.702 Q74.8809 702.429 71.8022 707.035 Q68.7467 711.619 62.9365 711.619 Q57.1264 711.619 54.0477 707.035 Q50.9921 702.429 50.9921 693.702 Q50.9921 684.952 54.0477 680.369 Q57.1264 675.762 62.9365 675.762 Z" fill="#000000" fill-rule="nonzero" fill-opacity="1" /><path clip-path="url(#clip520)" d="M83.0984 705.068 L87.9827 705.068 L87.9827 710.947 L83.0984 710.947 L83.0984 705.068 Z" fill="#000000" fill-rule="nonzero" fill-opacity="1" /><path clip-path="url(#clip520)" d="M108.746 691.804 Q105.598 691.804 103.746 693.957 Q101.918 696.109 101.918 699.859 Q101.918 703.586 103.746 705.762 Q105.598 707.915 108.746 707.915 Q111.895 707.915 113.723 705.762 Q115.575 703.586 115.575 699.859 Q115.575 696.109 113.723 693.957 Q111.895 691.804 108.746 691.804 M118.029 677.151 L118.029 681.41 Q116.27 680.577 114.464 680.137 Q112.682 679.697 110.922 679.697 Q106.293 679.697 103.839 682.822 Q101.409 685.947 101.061 692.267 Q102.427 690.253 104.487 689.188 Q106.547 688.1 109.024 688.1 Q114.233 688.1 117.242 691.272 Q120.274 694.42 120.274 699.859 Q120.274 705.183 117.126 708.401 Q113.978 711.619 108.746 711.619 Q102.751 711.619 99.5798 707.035 Q96.4085 702.429 96.4085 693.702 Q96.4085 685.508 100.297 680.647 Q104.186 675.762 110.737 675.762 Q112.496 675.762 114.279 676.11 Q116.084 676.457 118.029 677.151 Z" fill="#000000" fill-rule="nonzero" fill-opacity="1" /><path clip-path="url(#clip520)" d="M63.2837 411.586 Q59.6726 411.586 57.8439 415.15 Q56.0384 418.692 56.0384 425.822 Q56.0384 432.928 57.8439 436.493 Q59.6726 440.034 63.2837 440.034 Q66.918 440.034 68.7235 436.493 Q70.5522 432.928 70.5522 425.822 Q70.5522 418.692 68.7235 415.15 Q66.918 411.586 63.2837 411.586 M63.2837 407.882 Q69.0939 407.882 72.1494 412.488 Q75.2281 417.072 75.2281 425.822 Q75.2281 434.548 72.1494 439.155 Q69.0939 443.738 63.2837 443.738 Q57.4736 443.738 54.3949 439.155 Q51.3393 434.548 51.3393 425.822 Q51.3393 417.072 54.3949 412.488 Q57.4736 407.882 63.2837 407.882 Z" fill="#000000" fill-rule="nonzero" fill-opacity="1" /><path clip-path="url(#clip520)" d="M83.4457 437.187 L88.3299 437.187 L88.3299 443.067 L83.4457 443.067 L83.4457 437.187 Z" fill="#000000" fill-rule="nonzero" fill-opacity="1" /><path clip-path="url(#clip520)" d="M98.6539 442.349 L98.6539 438.09 Q100.413 438.923 102.219 439.363 Q104.024 439.803 105.76 439.803 Q110.39 439.803 112.82 436.701 Q115.274 433.576 115.621 427.234 Q114.279 429.224 112.219 430.289 Q110.158 431.354 107.658 431.354 Q102.473 431.354 99.4409 428.229 Q96.4317 425.081 96.4317 419.641 Q96.4317 414.317 99.5798 411.099 Q102.728 407.882 107.959 407.882 Q113.955 407.882 117.103 412.488 Q120.274 417.072 120.274 425.822 Q120.274 433.993 116.385 438.877 Q112.52 443.738 105.969 443.738 Q104.209 443.738 102.404 443.391 Q100.598 443.044 98.6539 442.349 M107.959 427.697 Q111.108 427.697 112.936 425.544 Q114.788 423.391 114.788 419.641 Q114.788 415.914 112.936 413.761 Q111.108 411.586 107.959 411.586 Q104.811 411.586 102.959 413.761 Q101.131 415.914 101.131 419.641 Q101.131 423.391 102.959 425.544 Q104.811 427.697 107.959 427.697 Z" fill="#000000" fill-rule="nonzero" fill-opacity="1" /><path clip-path="url(#clip520)" d="M55.506 171.251 L63.1448 171.251 L63.1448 144.886 L54.8347 146.552 L54.8347 142.293 L63.0985 140.626 L67.7744 140.626 L67.7744 171.251 L75.4133 171.251 L75.4133 175.186 L55.506 175.186 L55.506 171.251 Z" fill="#000000" fill-rule="nonzero" fill-opacity="1" /><path clip-path="url(#clip520)" d="M84.8577 169.307 L89.7419 169.307 L89.7419 175.186 L84.8577 175.186 L84.8577 169.307 Z" fill="#000000" fill-rule="nonzero" fill-opacity="1" /><path clip-path="url(#clip520)" d="M103.955 171.251 L120.274 171.251 L120.274 175.186 L98.3298 175.186 L98.3298 171.251 Q100.992 168.497 105.575 163.867 Q110.182 159.214 111.362 157.872 Q113.608 155.349 114.487 153.612 Q115.39 151.853 115.39 150.163 Q115.39 147.409 113.445 145.673 Q111.524 143.937 108.422 143.937 Q106.223 143.937 103.77 144.7 Q101.339 145.464 98.5613 147.015 L98.5613 142.293 Q101.385 141.159 103.839 140.58 Q106.293 140.001 108.33 140.001 Q113.7 140.001 116.895 142.687 Q120.089 145.372 120.089 149.862 Q120.089 151.992 119.279 153.913 Q118.492 155.812 116.385 158.404 Q115.807 159.075 112.705 162.293 Q109.603 165.487 103.955 171.251 Z" fill="#000000" fill-rule="nonzero" fill-opacity="1" /><polyline clip-path="url(#clip522)" style="stroke:#009af9; stroke-linecap:round; stroke-linejoin:round; stroke-width:16; stroke-opacity:1; fill:none" stroke-dasharray="8, 16" points="218.439,1080.84 228.852,1077.38 239.264,1073.92 249.677,1070.46 260.09,1067.01 270.503,1066.38 280.916,1071.16 291.329,1081.47 301.741,1104.55 312.154,1130.32 322.567,1156.08 332.98,1181.85 343.393,1207.61 353.805,1233.37 364.218,1259.14 374.631,1284.9 385.044,1310.66 395.457,1336.27 405.87,1361.81 416.282,1387.36 426.695,1412.9 437.108,1438.45 447.521,1445.72 457.934,1419.18 468.347,1392.63 478.759,1366.06 489.172,1339.48 499.585,1312.9 509.998,1286.32 520.411,1259.74 530.824,1233.16 541.236,1206.59 551.649,1180.01 562.062,1153.43 572.475,1126.85 582.888,1100.27 593.301,1073.69 603.713,1049 614.126,1030.2 624.539,1039.19 634.952,1053.47 645.365,1067.75 655.777,1082.51 666.19,1103.04 676.603,1131.07 687.016,1159.62 697.429,1188.8 707.842,1217.99 718.254,1247.17 728.667,1276.36 739.08,1305.54 749.493,1334.73 759.906,1363.4 770.319,1379.58 780.731,1386.67 791.144,1393.76 801.557,1400.85 811.97,1407.51 822.383,1410.52 832.796,1402.9 843.208,1372.05 853.621,1342.2 864.034,1312.46 874.447,1282.72 884.86,1252.98 895.273,1223.25 905.685,1193.51 916.098,1163.77 926.511,1134.03 936.924,1106.5 947.337,1087.87 957.749,1076.47 968.162,1064.74 978.575,1053.01 988.988,1042.37 999.401,1031.68 1009.81,1057.43 1020.23,1085.54 1030.64,1113.65 1041.05,1141.39 1051.46,1167.83 1061.88,1194.74 1072.29,1224.1 1082.7,1254.56 1093.12,1286.05 1103.53,1317.44 1113.94,1346.26 1124.35,1373.47 1134.77,1392.45 1145.18,1399.73 1155.59,1399.67 1166.01,1390.85 1176.42,1391.27 1186.83,1390.94 1197.24,1389.01 1207.66,1386.65 1218.07,1358.92 1228.48,1346.33 1238.9,1161.22 1249.31,962.567 1259.72,750.176 1270.13,478.069 1280.55,276.763 1290.96,222.91 1301.37,169.64 1311.79,263.843 1322.2,369.241 1332.61,352.019 1343.02,334.233 1353.44,321.616 1363.85,316.908 1374.26,319.009 1384.68,322.337 1395.09,327.468 1405.5,333.141 1415.91,343.352 1426.33,353.483 1436.74,363.614 1447.15,366.903 1457.57,355.102 1467.98,343.301 1478.39,331.499 1488.8,322.087 1499.22,322.712 1509.63,323.337 1520.04,323.961 1530.45,324.586 1540.87,325.211 1551.28,325.836 1561.69,326.461 1572.11,326.703 1582.52,325.795 1592.93,324.886 1603.34,323.978 1613.76,323.069 1624.17,323.695 1634.58,324.449 1645,325.204 1655.41,325.958 1665.82,326.713 1676.23,327.467 1686.65,328.222 1697.06,328.976 1707.47,329.731 1717.89,330.485 1728.3,331.239 1738.71,331.994 1749.12,332.749 1759.54,333.503 1769.95,334.257 1780.36,335.012 1790.78,335.766 1801.19,336.521 1811.6,337.275 1822.01,338.03 1832.43,338.784 1842.84,339.539 1853.25,340.293 1863.67,341.048 1874.08,341.802 1884.49,342.557 1894.9,343.311 1905.32,344.066 1915.73,344.82 1926.14,345.574 1936.56,346.329 1946.97,347.083 1957.38,347.838 1967.79,348.592 1978.21,349.347 1988.62,350.101 1999.03,350.856 2009.45,351.61 2019.86,352.364 2030.27,353.119 2040.68,353.874 2051.1,354.628 2061.51,355.382 2071.92,356.137 2082.33,356.891 2092.75,357.646 2103.16,358.4 2113.57,359.155 2123.99,359.909 2134.4,360.664 2144.81,361.418 2155.22,362.173 2165.64,362.924 2176.05,363.302 2186.46,363.489 2196.88,363.676 2207.29,363.863 2217.7,364.05 2228.11,364.236 2238.53,364.424 2248.94,364.611 2259.35,364.797 2269.77,364.984 2280.18,365.171 2290.59,365.358 "/>
<polyline clip-path="url(#clip522)" style="stroke:#e26f46; stroke-linecap:round; stroke-linejoin:round; stroke-width:4; stroke-opacity:1; fill:none" points="218.439,1095.31 228.852,1076.28 239.264,1062.25 249.677,1053.68 260.09,1050.84 270.503,1053.83 280.916,1062.55 291.329,1076.72 301.741,1095.87 312.154,1119.38 322.567,1146.49 332.98,1176.3 343.393,1207.84 353.805,1240.09 364.218,1271.99 374.631,1302.5 385.044,1330.62 395.457,1355.45 405.87,1376.16 416.282,1392.08 426.695,1402.69 437.108,1407.65 447.521,1406.79 457.934,1400.15 468.347,1387.93 478.759,1370.53 489.172,1348.54 499.585,1322.65 509.998,1293.73 520.411,1262.7 530.824,1230.59 541.236,1198.44 551.649,1167.3 562.062,1138.19 572.475,1112.06 582.888,1089.76 593.301,1072.01 603.713,1059.41 614.126,1052.35 624.539,1051.07 634.952,1055.62 645.365,1065.83 655.777,1081.39 666.19,1101.78 676.603,1126.33 687.016,1154.25 697.429,1184.62 707.842,1216.45 718.254,1248.71 728.667,1280.34 739.08,1310.31 749.493,1337.64 759.906,1361.43 770.319,1380.92 780.731,1395.46 791.144,1404.59 801.557,1407.99 811.97,1405.57 822.383,1397.4 832.796,1383.75 843.208,1365.07 853.621,1341.95 864.034,1315.16 874.447,1285.58 884.86,1254.16 895.273,1221.93 905.685,1189.95 916.098,1159.26 926.511,1130.86 936.924,1105.67 947.337,1084.53 957.749,1068.11 968.162,1056.96 978.575,1051.44 988.988,1051.72 999.401,1057.81 1009.81,1069.49 1020.23,1086.4 1030.64,1107.98 1041.05,1133.52 1051.46,1162.19 1061.88,1193.05 1072.29,1225.1 1082.7,1257.29 1093.12,1288.58 1103.53,1317.93 1113.94,1344.39 1124.35,1367.1 1134.77,1385.32 1145.18,1398.45 1155.59,1406.07 1166.01,1407.92 1176.42,1403.94 1186.83,1394.27 1197.24,1379.22 1207.66,1359.28 1218.07,1335.1 1228.48,1307.47 1238.9,1277.3 1249.31,1245.56 1259.72,335.197 1270.13,333.721 1280.55,335.064 1290.96,339.535 1301.37,345.764 1311.79,351.119 1322.2,352.705 1332.61,348.585 1343.02,338.763 1353.44,325.521 1363.85,312.921 1374.26,305.56 1384.68,306.972 1395.09,318.203 1405.5,337.093 1415.91,358.592 1426.33,376.099 1436.74,383.484 1447.15,377.162 1457.57,357.548 1467.98,329.336 1478.39,300.423 1488.8,279.701 1499.22,274.333 1509.63,287.346 1520.04,316.338 1530.45,353.781 1540.87,388.953 1551.28,411.012 1561.69,412.319 1572.11,391.007 1582.52,351.95 1592.93,305.716 1603.34,265.724 1613.76,244.346 1624.17,249.099 1634.58,280.094 1645,329.574 1655.41,383.816 1665.82,426.934 1676.23,445.523 1686.65,432.811 1697.06,391.01 1707.47,331.097 1717.89,269.957 1728.3,225.625 1738.71,211.972 1749.12,234.391 1759.54,287.827 1769.95,357.828 1780.36,424.444 1790.78,467.905 1801.19,474.488 1811.6,440.812 1822.01,375.24 1832.43,295.851 1842.84,225.465 1853.25,185.086 1863.67,187.638 1874.08,233.878 1884.49,311.742 1894.9,399.468 1905.32,471.668 1915.73,506.678 1926.14,493.045 1936.56,433.219 1946.97,343.271 1957.38,248.596 1967.79,176.747 1978.21,149.416 1988.62,175.902 1999.03,250.021 2009.45,351.474 2019.86,451.395 2030.27,520.56 2040.68,537.933 2051.1,497.044 2061.51,408.274 2071.92,296.265 2082.33,193.087 2092.75,129.056 2103.16,123.833 2113.57,180.409 2123.99,283.819 2134.4,405.07 2144.81,509.265 2155.22,565.647 2165.64,556.67 2176.05,483.43 2186.46,365.775 2196.88,236.944 2207.29,134.184 2217.7,87.9763 2228.11,113.009 2238.53,203.545 2248.94,334.66 2259.35,469.081 2269.77,567.792 2280.18,601.347 2290.59,558.649 "/>
<path clip-path="url(#clip520)" d="M229.49 250.738 L675.966 250.738 L675.966 95.2176 L229.49 95.2176  Z" fill="#ffffff" fill-rule="evenodd" fill-opacity="1"/>
<polyline clip-path="url(#clip520)" style="stroke:#000000; stroke-linecap:round; stroke-linejoin:round; stroke-width:4; stroke-opacity:1; fill:none" points="229.49,250.738 675.966,250.738 675.966,95.2176 229.49,95.2176 229.49,250.738 "/>
<polyline clip-path="url(#clip520)" style="stroke:#009af9; stroke-linecap:round; stroke-linejoin:round; stroke-width:16; stroke-opacity:1; fill:none" stroke-dasharray="8, 16" points="253.896,147.058 400.328,147.058 "/>
<path clip-path="url(#clip520)" d="M429.409 133.62 L429.409 146.606 L435.289 146.606 Q438.552 146.606 440.335 144.916 Q442.117 143.227 442.117 140.102 Q442.117 137 440.335 135.31 Q438.552 133.62 435.289 133.62 L429.409 133.62 M424.733 129.778 L435.289 129.778 Q441.099 129.778 444.062 132.416 Q447.048 135.032 447.048 140.102 Q447.048 145.217 444.062 147.833 Q441.099 150.449 435.289 150.449 L429.409 150.449 L429.409 164.338 L424.733 164.338 L424.733 129.778 Z" fill="#000000" fill-rule="nonzero" fill-opacity="1" /><path clip-path="url(#clip520)" d="M467.325 142.393 Q466.608 141.977 465.751 141.791 Q464.918 141.583 463.899 141.583 Q460.288 141.583 458.344 143.944 Q456.423 146.282 456.423 150.68 L456.423 164.338 L452.14 164.338 L452.14 138.412 L456.423 138.412 L456.423 142.44 Q457.765 140.078 459.918 138.944 Q462.071 137.787 465.149 137.787 Q465.589 137.787 466.122 137.856 Q466.654 137.903 467.302 138.018 L467.325 142.393 Z" fill="#000000" fill-rule="nonzero" fill-opacity="1" /><path clip-path="url(#clip520)" d="M492.927 150.31 L492.927 152.393 L473.344 152.393 Q473.622 156.791 475.983 159.106 Q478.367 161.398 482.603 161.398 Q485.057 161.398 487.348 160.796 Q489.663 160.194 491.932 158.99 L491.932 163.018 Q489.64 163.99 487.233 164.5 Q484.825 165.009 482.348 165.009 Q476.145 165.009 472.511 161.398 Q468.899 157.787 468.899 151.629 Q468.899 145.264 472.325 141.537 Q475.774 137.787 481.608 137.787 Q486.839 137.787 489.872 141.166 Q492.927 144.523 492.927 150.31 M488.668 149.06 Q488.622 145.565 486.7 143.481 Q484.802 141.398 481.654 141.398 Q478.089 141.398 475.936 143.412 Q473.807 145.426 473.483 149.083 L488.668 149.06 Z" fill="#000000" fill-rule="nonzero" fill-opacity="1" /><path clip-path="url(#clip520)" d="M516.978 142.347 L516.978 128.319 L521.237 128.319 L521.237 164.338 L516.978 164.338 L516.978 160.449 Q515.635 162.763 513.575 163.898 Q511.538 165.009 508.668 165.009 Q503.969 165.009 501.006 161.259 Q498.066 157.509 498.066 151.398 Q498.066 145.287 501.006 141.537 Q503.969 137.787 508.668 137.787 Q511.538 137.787 513.575 138.921 Q515.635 140.032 516.978 142.347 M502.464 151.398 Q502.464 156.097 504.385 158.782 Q506.33 161.444 509.709 161.444 Q513.089 161.444 515.033 158.782 Q516.978 156.097 516.978 151.398 Q516.978 146.699 515.033 144.037 Q513.089 141.352 509.709 141.352 Q506.33 141.352 504.385 144.037 Q502.464 146.699 502.464 151.398 Z" fill="#000000" fill-rule="nonzero" fill-opacity="1" /><path clip-path="url(#clip520)" d="M530.01 138.412 L534.269 138.412 L534.269 164.338 L530.01 164.338 L530.01 138.412 M530.01 128.319 L534.269 128.319 L534.269 133.713 L530.01 133.713 L530.01 128.319 Z" fill="#000000" fill-rule="nonzero" fill-opacity="1" /><path clip-path="url(#clip520)" d="M561.839 139.407 L561.839 143.389 Q560.033 142.393 558.205 141.907 Q556.399 141.398 554.547 141.398 Q550.404 141.398 548.112 144.037 Q545.82 146.652 545.82 151.398 Q545.82 156.143 548.112 158.782 Q550.404 161.398 554.547 161.398 Q556.399 161.398 558.205 160.912 Q560.033 160.402 561.839 159.407 L561.839 163.342 Q560.056 164.176 558.135 164.592 Q556.237 165.009 554.084 165.009 Q548.228 165.009 544.779 161.328 Q541.33 157.648 541.33 151.398 Q541.33 145.055 544.802 141.421 Q548.297 137.787 554.362 137.787 Q556.33 137.787 558.205 138.203 Q560.08 138.597 561.839 139.407 Z" fill="#000000" fill-rule="nonzero" fill-opacity="1" /><path clip-path="url(#clip520)" d="M573.459 131.051 L573.459 138.412 L582.232 138.412 L582.232 141.722 L573.459 141.722 L573.459 155.796 Q573.459 158.967 574.316 159.87 Q575.195 160.773 577.857 160.773 L582.232 160.773 L582.232 164.338 L577.857 164.338 Q572.927 164.338 571.052 162.509 Q569.177 160.657 569.177 155.796 L569.177 141.722 L566.052 141.722 L566.052 138.412 L569.177 138.412 L569.177 131.051 L573.459 131.051 Z" fill="#000000" fill-rule="nonzero" fill-opacity="1" /><path clip-path="url(#clip520)" d="M587.834 138.412 L592.093 138.412 L592.093 164.338 L587.834 164.338 L587.834 138.412 M587.834 128.319 L592.093 128.319 L592.093 133.713 L587.834 133.713 L587.834 128.319 Z" fill="#000000" fill-rule="nonzero" fill-opacity="1" /><path clip-path="url(#clip520)" d="M611.051 141.398 Q607.626 141.398 605.635 144.083 Q603.644 146.745 603.644 151.398 Q603.644 156.051 605.612 158.736 Q607.602 161.398 611.051 161.398 Q614.454 161.398 616.445 158.713 Q618.436 156.027 618.436 151.398 Q618.436 146.791 616.445 144.106 Q614.454 141.398 611.051 141.398 M611.051 137.787 Q616.607 137.787 619.778 141.398 Q622.95 145.009 622.95 151.398 Q622.95 157.764 619.778 161.398 Q616.607 165.009 611.051 165.009 Q605.473 165.009 602.302 161.398 Q599.153 157.764 599.153 151.398 Q599.153 145.009 602.302 141.398 Q605.473 137.787 611.051 137.787 Z" fill="#000000" fill-rule="nonzero" fill-opacity="1" /><path clip-path="url(#clip520)" d="M651.561 148.689 L651.561 164.338 L647.301 164.338 L647.301 148.828 Q647.301 145.148 645.866 143.319 Q644.431 141.49 641.561 141.49 Q638.112 141.49 636.121 143.69 Q634.13 145.889 634.13 149.685 L634.13 164.338 L629.848 164.338 L629.848 138.412 L634.13 138.412 L634.13 142.44 Q635.658 140.102 637.718 138.944 Q639.801 137.787 642.51 137.787 Q646.977 137.787 649.269 140.565 Q651.561 143.319 651.561 148.689 Z" fill="#000000" fill-rule="nonzero" fill-opacity="1" /><polyline clip-path="url(#clip520)" style="stroke:#e26f46; stroke-linecap:round; stroke-linejoin:round; stroke-width:4; stroke-opacity:1; fill:none" points="253.896,198.898 400.328,198.898 "/>
<path clip-path="url(#clip520)" d="M424.733 181.618 L446.585 181.618 L446.585 185.553 L429.409 185.553 L429.409 195.784 L445.867 195.784 L445.867 199.719 L429.409 199.719 L429.409 212.242 L447.001 212.242 L447.001 216.178 L424.733 216.178 L424.733 181.618 Z" fill="#000000" fill-rule="nonzero" fill-opacity="1" /><path clip-path="url(#clip520)" d="M476.052 190.252 L466.677 202.867 L476.538 216.178 L471.515 216.178 L463.969 205.992 L456.423 216.178 L451.4 216.178 L461.469 202.613 L452.256 190.252 L457.279 190.252 L464.154 199.488 L471.029 190.252 L476.052 190.252 Z" fill="#000000" fill-rule="nonzero" fill-opacity="1" /><path clip-path="url(#clip520)" d="M494.339 203.145 Q489.177 203.145 487.186 204.326 Q485.196 205.506 485.196 208.354 Q485.196 210.622 486.677 211.965 Q488.182 213.284 490.751 213.284 Q494.293 213.284 496.422 210.784 Q498.575 208.261 498.575 204.094 L498.575 203.145 L494.339 203.145 M502.834 201.386 L502.834 216.178 L498.575 216.178 L498.575 212.242 Q497.117 214.603 494.941 215.738 Q492.765 216.849 489.617 216.849 Q485.635 216.849 483.274 214.627 Q480.936 212.381 480.936 208.631 Q480.936 204.256 483.853 202.034 Q486.793 199.812 492.603 199.812 L498.575 199.812 L498.575 199.395 Q498.575 196.455 496.631 194.858 Q494.71 193.238 491.214 193.238 Q488.992 193.238 486.885 193.77 Q484.779 194.303 482.835 195.367 L482.835 191.432 Q485.173 190.53 487.372 190.09 Q489.571 189.627 491.654 189.627 Q497.279 189.627 500.057 192.543 Q502.834 195.46 502.834 201.386 Z" fill="#000000" fill-rule="nonzero" fill-opacity="1" /><path clip-path="url(#clip520)" d="M530.265 191.247 L530.265 195.229 Q528.459 194.233 526.631 193.747 Q524.825 193.238 522.973 193.238 Q518.83 193.238 516.538 195.877 Q514.246 198.492 514.246 203.238 Q514.246 207.983 516.538 210.622 Q518.83 213.238 522.973 213.238 Q524.825 213.238 526.631 212.752 Q528.459 212.242 530.265 211.247 L530.265 215.182 Q528.482 216.016 526.561 216.432 Q524.663 216.849 522.51 216.849 Q516.654 216.849 513.205 213.168 Q509.756 209.488 509.756 203.238 Q509.756 196.895 513.228 193.261 Q516.723 189.627 522.788 189.627 Q524.756 189.627 526.631 190.043 Q528.506 190.437 530.265 191.247 Z" fill="#000000" fill-rule="nonzero" fill-opacity="1" /><path clip-path="url(#clip520)" d="M541.885 182.891 L541.885 190.252 L550.658 190.252 L550.658 193.562 L541.885 193.562 L541.885 207.636 Q541.885 210.807 542.742 211.71 Q543.621 212.613 546.283 212.613 L550.658 212.613 L550.658 216.178 L546.283 216.178 Q541.353 216.178 539.478 214.349 Q537.603 212.497 537.603 207.636 L537.603 193.562 L534.478 193.562 L534.478 190.252 L537.603 190.252 L537.603 182.891 L541.885 182.891 Z" fill="#000000" fill-rule="nonzero" fill-opacity="1" /></svg>
