<?xml version="1.0" encoding="utf-8"?>
<svg xmlns="http://www.w3.org/2000/svg" xmlns:xlink="http://www.w3.org/1999/xlink" width="600" height="400" viewBox="0 0 2400 1600">
<defs>
  <clipPath id="clip610">
    <rect x="0" y="0" width="2400" height="1600"/>
  </clipPath>
</defs>
<path clip-path="url(#clip610)" d="M0 1600 L2400 1600 L2400 0 L0 0  Z" fill="#ffffff" fill-rule="evenodd" fill-opacity="1"/>
<defs>
  <clipPath id="clip611">
    <rect x="480" y="0" width="1681" height="1600"/>
  </clipPath>
</defs>
<path clip-path="url(#clip610)" d="M192.339 1486.45 L2352.76 1486.45 L2352.76 47.2441 L192.339 47.2441  Z" fill="#ffffff" fill-rule="evenodd" fill-opacity="1"/>
<defs>
  <clipPath id="clip612">
    <rect x="192" y="47" width="2161" height="1440"/>
  </clipPath>
</defs>
<polyline clip-path="url(#clip612)" style="stroke:#000000; stroke-linecap:round; stroke-linejoin:round; stroke-width:2; stroke-opacity:0.1; fill:none" points="253.483,1486.45 253.483,47.2441 "/>
<polyline clip-path="url(#clip612)" style="stroke:#000000; stroke-linecap:round; stroke-linejoin:round; stroke-width:2; stroke-opacity:0.1; fill:none" points="763.015,1486.45 763.015,47.2441 "/>
<polyline clip-path="url(#clip612)" style="stroke:#000000; stroke-linecap:round; stroke-linejoin:round; stroke-width:2; stroke-opacity:0.1; fill:none" points="1272.55,1486.45 1272.55,47.2441 "/>
<polyline clip-path="url(#clip612)" style="stroke:#000000; stroke-linecap:round; stroke-linejoin:round; stroke-width:2; stroke-opacity:0.1; fill:none" points="1782.08,1486.45 1782.08,47.2441 "/>
<polyline clip-path="url(#clip612)" style="stroke:#000000; stroke-linecap:round; stroke-linejoin:round; stroke-width:2; stroke-opacity:0.1; fill:none" points="2291.61,1486.45 2291.61,47.2441 "/>
<polyline clip-path="url(#clip610)" style="stroke:#000000; stroke-linecap:round; stroke-linejoin:round; stroke-width:4; stroke-opacity:1; fill:none" points="192.339,1486.45 2352.76,1486.45 "/>
<polyline clip-path="url(#clip610)" style="stroke:#000000; stroke-linecap:round; stroke-linejoin:round; stroke-width:4; stroke-opacity:1; fill:none" points="253.483,1486.45 253.483,1467.55 "/>
<polyline clip-path="url(#clip610)" style="stroke:#000000; stroke-linecap:round; stroke-linejoin:round; stroke-width:4; stroke-opacity:1; fill:none" points="763.015,1486.45 763.015,1467.55 "/>
<polyline clip-path="url(#clip610)" style="stroke:#000000; stroke-linecap:round; stroke-linejoin:round; stroke-width:4; stroke-opacity:1; fill:none" points="1272.55,1486.45 1272.55,1467.55 "/>
<polyline clip-path="url(#clip610)" style="stroke:#000000; stroke-linecap:round; stroke-linejoin:round; stroke-width:4; stroke-opacity:1; fill:none" points="1782.08,1486.45 1782.08,1467.55 "/>
<polyline clip-path="url(#clip610)" style="stroke:#000000; stroke-linecap:round; stroke-linejoin:round; stroke-width:4; stroke-opacity:1; fill:none" points="2291.61,1486.45 2291.61,1467.55 "/>
<path clip-path="url(#clip610)" d="M200.011 1532.02 L229.686 1532.02 L229.686 1535.95 L200.011 1535.95 L200.011 1532.02 Z" fill="#000000" fill-rule="nonzero" fill-opacity="1" /><path clip-path="url(#clip610)" d="M240.589 1544.91 L248.228 1544.91 L248.228 1518.55 L239.918 1520.21 L239.918 1515.95 L248.182 1514.29 L252.858 1514.29 L252.858 1544.91 L260.497 1544.91 L260.497 1548.85 L240.589 1548.85 L240.589 1544.91 Z" fill="#000000" fill-rule="nonzero" fill-opacity="1" /><path clip-path="url(#clip610)" d="M269.941 1542.97 L274.825 1542.97 L274.825 1548.85 L269.941 1548.85 L269.941 1542.97 Z" fill="#000000" fill-rule="nonzero" fill-opacity="1" /><path clip-path="url(#clip610)" d="M295.01 1517.37 Q291.399 1517.37 289.57 1520.93 Q287.765 1524.47 287.765 1531.6 Q287.765 1538.71 289.57 1542.27 Q291.399 1545.82 295.01 1545.82 Q298.644 1545.82 300.45 1542.27 Q302.279 1538.71 302.279 1531.6 Q302.279 1524.47 300.45 1520.93 Q298.644 1517.37 295.01 1517.37 M295.01 1513.66 Q300.82 1513.66 303.876 1518.27 Q306.955 1522.85 306.955 1531.6 Q306.955 1540.33 303.876 1544.94 Q300.82 1549.52 295.01 1549.52 Q289.2 1549.52 286.121 1544.94 Q283.066 1540.33 283.066 1531.6 Q283.066 1522.85 286.121 1518.27 Q289.2 1513.66 295.01 1513.66 Z" fill="#000000" fill-rule="nonzero" fill-opacity="1" /><path clip-path="url(#clip610)" d="M710.041 1532.02 L739.717 1532.02 L739.717 1535.95 L710.041 1535.95 L710.041 1532.02 Z" fill="#000000" fill-rule="nonzero" fill-opacity="1" /><path clip-path="url(#clip610)" d="M759.809 1517.37 Q756.198 1517.37 754.369 1520.93 Q752.564 1524.47 752.564 1531.6 Q752.564 1538.71 754.369 1542.27 Q756.198 1545.82 759.809 1545.82 Q763.443 1545.82 765.249 1542.27 Q767.077 1538.71 767.077 1531.6 Q767.077 1524.47 765.249 1520.93 Q763.443 1517.37 759.809 1517.37 M759.809 1513.66 Q765.619 1513.66 768.675 1518.27 Q771.753 1522.85 771.753 1531.6 Q771.753 1540.33 768.675 1544.94 Q765.619 1549.52 759.809 1549.52 Q753.999 1549.52 750.92 1544.94 Q747.865 1540.33 747.865 1531.6 Q747.865 1522.85 750.92 1518.27 Q753.999 1513.66 759.809 1513.66 Z" fill="#000000" fill-rule="nonzero" fill-opacity="1" /><path clip-path="url(#clip610)" d="M779.971 1542.97 L784.855 1542.97 L784.855 1548.85 L779.971 1548.85 L779.971 1542.97 Z" fill="#000000" fill-rule="nonzero" fill-opacity="1" /><path clip-path="url(#clip610)" d="M795.087 1514.29 L813.443 1514.29 L813.443 1518.22 L799.369 1518.22 L799.369 1526.7 Q800.387 1526.35 801.406 1526.19 Q802.425 1526 803.443 1526 Q809.23 1526 812.61 1529.17 Q815.989 1532.34 815.989 1537.76 Q815.989 1543.34 812.517 1546.44 Q809.045 1549.52 802.725 1549.52 Q800.55 1549.52 798.281 1549.15 Q796.036 1548.78 793.628 1548.04 L793.628 1543.34 Q795.712 1544.47 797.934 1545.03 Q800.156 1545.58 802.633 1545.58 Q806.637 1545.58 808.975 1543.48 Q811.313 1541.37 811.313 1537.76 Q811.313 1534.15 808.975 1532.04 Q806.637 1529.94 802.633 1529.94 Q800.758 1529.94 798.883 1530.35 Q797.031 1530.77 795.087 1531.65 L795.087 1514.29 Z" fill="#000000" fill-rule="nonzero" fill-opacity="1" /><path clip-path="url(#clip610)" d="M1249.93 1517.37 Q1246.32 1517.37 1244.49 1520.93 Q1242.69 1524.47 1242.69 1531.6 Q1242.69 1538.71 1244.49 1542.27 Q1246.32 1545.82 1249.93 1545.82 Q1253.57 1545.82 1255.37 1542.27 Q1257.2 1538.71 1257.2 1531.6 Q1257.2 1524.47 1255.37 1520.93 Q1253.57 1517.37 1249.93 1517.37 M1249.93 1513.66 Q1255.74 1513.66 1258.8 1518.27 Q1261.88 1522.85 1261.88 1531.6 Q1261.88 1540.33 1258.8 1544.94 Q1255.74 1549.52 1249.93 1549.52 Q1244.12 1549.52 1241.04 1544.94 Q1237.99 1540.33 1237.99 1531.6 Q1237.99 1522.85 1241.04 1518.27 Q1244.12 1513.66 1249.93 1513.66 Z" fill="#000000" fill-rule="nonzero" fill-opacity="1" /><path clip-path="url(#clip610)" d="M1270.09 1542.97 L1274.98 1542.97 L1274.98 1548.85 L1270.09 1548.85 L1270.09 1542.97 Z" fill="#000000" fill-rule="nonzero" fill-opacity="1" /><path clip-path="url(#clip610)" d="M1295.16 1517.37 Q1291.55 1517.37 1289.72 1520.93 Q1287.92 1524.47 1287.92 1531.6 Q1287.92 1538.71 1289.72 1542.27 Q1291.55 1545.82 1295.16 1545.82 Q1298.8 1545.82 1300.6 1542.27 Q1302.43 1538.71 1302.43 1531.6 Q1302.43 1524.47 1300.6 1520.93 Q1298.8 1517.37 1295.16 1517.37 M1295.16 1513.66 Q1300.97 1513.66 1304.03 1518.27 Q1307.11 1522.85 1307.11 1531.6 Q1307.11 1540.33 1304.03 1544.94 Q1300.97 1549.52 1295.16 1549.52 Q1289.35 1549.52 1286.27 1544.94 Q1283.22 1540.33 1283.22 1531.6 Q1283.22 1522.85 1286.27 1518.27 Q1289.35 1513.66 1295.16 1513.66 Z" fill="#000000" fill-rule="nonzero" fill-opacity="1" /><path clip-path="url(#clip610)" d="M1759.96 1517.37 Q1756.35 1517.37 1754.52 1520.93 Q1752.72 1524.47 1752.72 1531.6 Q1752.72 1538.71 1754.52 1542.27 Q1756.35 1545.82 1759.96 1545.82 Q1763.6 1545.82 1765.4 1542.27 Q1767.23 1538.71 1767.23 1531.6 Q1767.23 1524.47 1765.4 1520.93 Q1763.6 1517.37 1759.96 1517.37 M1759.96 1513.66 Q1765.77 1513.66 1768.83 1518.27 Q1771.91 1522.85 1771.91 1531.6 Q1771.91 1540.33 1768.83 1544.94 Q1765.77 1549.52 1759.96 1549.52 Q1754.15 1549.52 1751.07 1544.94 Q1748.02 1540.33 1748.02 1531.6 Q1748.02 1522.85 1751.07 1518.27 Q1754.15 1513.66 1759.96 1513.66 Z" fill="#000000" fill-rule="nonzero" fill-opacity="1" /><path clip-path="url(#clip610)" d="M1780.12 1542.97 L1785.01 1542.97 L1785.01 1548.85 L1780.12 1548.85 L1780.12 1542.97 Z" fill="#000000" fill-rule="nonzero" fill-opacity="1" /><path clip-path="url(#clip610)" d="M1795.24 1514.29 L1813.6 1514.29 L1813.6 1518.22 L1799.52 1518.22 L1799.52 1526.7 Q1800.54 1526.35 1801.56 1526.19 Q1802.58 1526 1803.6 1526 Q1809.38 1526 1812.76 1529.17 Q1816.14 1532.34 1816.14 1537.76 Q1816.14 1543.34 1812.67 1546.44 Q1809.2 1549.52 1802.88 1549.52 Q1800.7 1549.52 1798.43 1549.15 Q1796.19 1548.78 1793.78 1548.04 L1793.78 1543.34 Q1795.86 1544.47 1798.09 1545.03 Q1800.31 1545.58 1802.79 1545.58 Q1806.79 1545.58 1809.13 1543.48 Q1811.47 1541.37 1811.47 1537.76 Q1811.47 1534.15 1809.13 1532.04 Q1806.79 1529.94 1802.79 1529.94 Q1800.91 1529.94 1799.04 1530.35 Q1797.18 1530.77 1795.24 1531.65 L1795.24 1514.29 Z" fill="#000000" fill-rule="nonzero" fill-opacity="1" /><path clip-path="url(#clip610)" d="M2258.76 1544.91 L2266.4 1544.91 L2266.4 1518.55 L2258.09 1520.21 L2258.09 1515.95 L2266.36 1514.29 L2271.03 1514.29 L2271.03 1544.91 L2278.67 1544.91 L2278.67 1548.85 L2258.76 1548.85 L2258.76 1544.91 Z" fill="#000000" fill-rule="nonzero" fill-opacity="1" /><path clip-path="url(#clip610)" d="M2288.12 1542.97 L2293 1542.97 L2293 1548.85 L2288.12 1548.85 L2288.12 1542.97 Z" fill="#000000" fill-rule="nonzero" fill-opacity="1" /><path clip-path="url(#clip610)" d="M2313.19 1517.37 Q2309.57 1517.37 2307.75 1520.93 Q2305.94 1524.47 2305.94 1531.6 Q2305.94 1538.71 2307.75 1542.27 Q2309.57 1545.82 2313.19 1545.82 Q2316.82 1545.82 2318.63 1542.27 Q2320.45 1538.71 2320.45 1531.6 Q2320.45 1524.47 2318.63 1520.93 Q2316.82 1517.37 2313.19 1517.37 M2313.19 1513.66 Q2319 1513.66 2322.05 1518.27 Q2325.13 1522.85 2325.13 1531.6 Q2325.13 1540.33 2322.05 1544.94 Q2319 1549.52 2313.19 1549.52 Q2307.38 1549.52 2304.3 1544.94 Q2301.24 1540.33 2301.24 1531.6 Q2301.24 1522.85 2304.3 1518.27 Q2307.38 1513.66 2313.19 1513.66 Z" fill="#000000" fill-rule="nonzero" fill-opacity="1" /><polyline clip-path="url(#clip612)" style="stroke:#000000; stroke-linecap:round; stroke-linejoin:round; stroke-width:2; stroke-opacity:0.1; fill:none" points="192.339,1367.29 2352.76,1367.29 "/>
<polyline clip-path="url(#clip612)" style="stroke:#000000; stroke-linecap:round; stroke-linejoin:round; stroke-width:2; stroke-opacity:0.1; fill:none" points="192.339,1194.21 2352.76,1194.21 "/>
<polyline clip-path="url(#clip612)" style="stroke:#000000; stroke-linecap:round; stroke-linejoin:round; stroke-width:2; stroke-opacity:0.1; fill:none" points="192.339,1021.13 2352.76,1021.13 "/>
<polyline clip-path="url(#clip612)" style="stroke:#000000; stroke-linecap:round; stroke-linejoin:round; stroke-width:2; stroke-opacity:0.1; fill:none" points="192.339,848.058 2352.76,848.058 "/>
<polyline clip-path="url(#clip612)" style="stroke:#000000; stroke-linecap:round; stroke-linejoin:round; stroke-width:2; stroke-opacity:0.1; fill:none" points="192.339,674.981 2352.76,674.981 "/>
<polyline clip-path="url(#clip612)" style="stroke:#000000; stroke-linecap:round; stroke-linejoin:round; stroke-width:2; stroke-opacity:0.1; fill:none" points="192.339,501.903 2352.76,501.903 "/>
<polyline clip-path="url(#clip612)" style="stroke:#000000; stroke-linecap:round; stroke-linejoin:round; stroke-width:2; stroke-opacity:0.1; fill:none" points="192.339,328.826 2352.76,328.826 "/>
<polyline clip-path="url(#clip612)" style="stroke:#000000; stroke-linecap:round; stroke-linejoin:round; stroke-width:2; stroke-opacity:0.1; fill:none" points="192.339,155.749 2352.76,155.749 "/>
<polyline clip-path="url(#clip610)" style="stroke:#000000; stroke-linecap:round; stroke-linejoin:round; stroke-width:4; stroke-opacity:1; fill:none" points="192.339,1486.45 192.339,47.2441 "/>
<polyline clip-path="url(#clip610)" style="stroke:#000000; stroke-linecap:round; stroke-linejoin:round; stroke-width:4; stroke-opacity:1; fill:none" points="192.339,1367.29 211.236,1367.29 "/>
<polyline clip-path="url(#clip610)" style="stroke:#000000; stroke-linecap:round; stroke-linejoin:round; stroke-width:4; stroke-opacity:1; fill:none" points="192.339,1194.21 211.236,1194.21 "/>
<polyline clip-path="url(#clip610)" style="stroke:#000000; stroke-linecap:round; stroke-linejoin:round; stroke-width:4; stroke-opacity:1; fill:none" points="192.339,1021.13 211.236,1021.13 "/>
<polyline clip-path="url(#clip610)" style="stroke:#000000; stroke-linecap:round; stroke-linejoin:round; stroke-width:4; stroke-opacity:1; fill:none" points="192.339,848.058 211.236,848.058 "/>
<polyline clip-path="url(#clip610)" style="stroke:#000000; stroke-linecap:round; stroke-linejoin:round; stroke-width:4; stroke-opacity:1; fill:none" points="192.339,674.981 211.236,674.981 "/>
<polyline clip-path="url(#clip610)" style="stroke:#000000; stroke-linecap:round; stroke-linejoin:round; stroke-width:4; stroke-opacity:1; fill:none" points="192.339,501.903 211.236,501.903 "/>
<polyline clip-path="url(#clip610)" style="stroke:#000000; stroke-linecap:round; stroke-linejoin:round; stroke-width:4; stroke-opacity:1; fill:none" points="192.339,328.826 211.236,328.826 "/>
<polyline clip-path="url(#clip610)" style="stroke:#000000; stroke-linecap:round; stroke-linejoin:round; stroke-width:4; stroke-opacity:1; fill:none" points="192.339,155.749 211.236,155.749 "/>
<path clip-path="url(#clip610)" d="M50.9921 1367.74 L80.6679 1367.74 L80.6679 1371.68 L50.9921 1371.68 L50.9921 1367.74 Z" fill="#000000" fill-rule="nonzero" fill-opacity="1" /><path clip-path="url(#clip610)" d="M100.76 1353.09 Q97.1493 1353.09 95.3206 1356.65 Q93.515 1360.19 93.515 1367.32 Q93.515 1374.43 95.3206 1378 Q97.1493 1381.54 100.76 1381.54 Q104.395 1381.54 106.2 1378 Q108.029 1374.43 108.029 1367.32 Q108.029 1360.19 106.2 1356.65 Q104.395 1353.09 100.76 1353.09 M100.76 1349.38 Q106.571 1349.38 109.626 1353.99 Q112.705 1358.57 112.705 1367.32 Q112.705 1376.05 109.626 1380.66 Q106.571 1385.24 100.76 1385.24 Q94.9502 1385.24 91.8715 1380.66 Q88.816 1376.05 88.816 1367.32 Q88.816 1358.57 91.8715 1353.99 Q94.9502 1349.38 100.76 1349.38 Z" fill="#000000" fill-rule="nonzero" fill-opacity="1" /><path clip-path="url(#clip610)" d="M120.922 1378.69 L125.807 1378.69 L125.807 1384.57 L120.922 1384.57 L120.922 1378.69 Z" fill="#000000" fill-rule="nonzero" fill-opacity="1" /><path clip-path="url(#clip610)" d="M140.019 1380.63 L156.339 1380.63 L156.339 1384.57 L134.394 1384.57 L134.394 1380.63 Q137.056 1377.88 141.64 1373.25 Q146.246 1368.6 147.427 1367.25 Q149.672 1364.73 150.552 1363 Q151.455 1361.24 151.455 1359.55 Q151.455 1356.79 149.51 1355.06 Q147.589 1353.32 144.487 1353.32 Q142.288 1353.32 139.834 1354.08 Q137.404 1354.85 134.626 1356.4 L134.626 1351.68 Q137.45 1350.54 139.904 1349.96 Q142.357 1349.38 144.394 1349.38 Q149.765 1349.38 152.959 1352.07 Q156.154 1354.75 156.154 1359.25 Q156.154 1361.38 155.343 1363.3 Q154.556 1365.19 152.45 1367.79 Q151.871 1368.46 148.769 1371.68 Q145.668 1374.87 140.019 1380.63 Z" fill="#000000" fill-rule="nonzero" fill-opacity="1" /><path clip-path="url(#clip610)" d="M99.1632 1180.01 Q95.5521 1180.01 93.7234 1183.58 Q91.9178 1187.12 91.9178 1194.25 Q91.9178 1201.35 93.7234 1204.92 Q95.5521 1208.46 99.1632 1208.46 Q102.797 1208.46 104.603 1204.92 Q106.432 1201.35 106.432 1194.25 Q106.432 1187.12 104.603 1183.58 Q102.797 1180.01 99.1632 1180.01 M99.1632 1176.31 Q104.973 1176.31 108.029 1180.91 Q111.108 1185.5 111.108 1194.25 Q111.108 1202.97 108.029 1207.58 Q104.973 1212.16 99.1632 1212.16 Q93.353 1212.16 90.2743 1207.58 Q87.2188 1202.97 87.2188 1194.25 Q87.2188 1185.5 90.2743 1180.91 Q93.353 1176.31 99.1632 1176.31 Z" fill="#000000" fill-rule="nonzero" fill-opacity="1" /><path clip-path="url(#clip610)" d="M119.325 1205.61 L124.209 1205.61 L124.209 1211.49 L119.325 1211.49 L119.325 1205.61 Z" fill="#000000" fill-rule="nonzero" fill-opacity="1" /><path clip-path="url(#clip610)" d="M144.394 1180.01 Q140.783 1180.01 138.955 1183.58 Q137.149 1187.12 137.149 1194.25 Q137.149 1201.35 138.955 1204.92 Q140.783 1208.46 144.394 1208.46 Q148.029 1208.46 149.834 1204.92 Q151.663 1201.35 151.663 1194.25 Q151.663 1187.12 149.834 1183.58 Q148.029 1180.01 144.394 1180.01 M144.394 1176.31 Q150.205 1176.31 153.26 1180.91 Q156.339 1185.5 156.339 1194.25 Q156.339 1202.97 153.26 1207.58 Q150.205 1212.16 144.394 1212.16 Q138.584 1212.16 135.506 1207.58 Q132.45 1202.97 132.45 1194.25 Q132.45 1185.5 135.506 1180.91 Q138.584 1176.31 144.394 1176.31 Z" fill="#000000" fill-rule="nonzero" fill-opacity="1" /><path clip-path="url(#clip610)" d="M100.76 1006.93 Q97.1493 1006.93 95.3206 1010.5 Q93.515 1014.04 93.515 1021.17 Q93.515 1028.28 95.3206 1031.84 Q97.1493 1035.38 100.76 1035.38 Q104.395 1035.38 106.2 1031.84 Q108.029 1028.28 108.029 1021.17 Q108.029 1014.04 106.2 1010.5 Q104.395 1006.93 100.76 1006.93 M100.76 1003.23 Q106.571 1003.23 109.626 1007.84 Q112.705 1012.42 112.705 1021.17 Q112.705 1029.9 109.626 1034.5 Q106.571 1039.09 100.76 1039.09 Q94.9502 1039.09 91.8715 1034.5 Q88.816 1029.9 88.816 1021.17 Q88.816 1012.42 91.8715 1007.84 Q94.9502 1003.23 100.76 1003.23 Z" fill="#000000" fill-rule="nonzero" fill-opacity="1" /><path clip-path="url(#clip610)" d="M120.922 1032.54 L125.807 1032.54 L125.807 1038.41 L120.922 1038.41 L120.922 1032.54 Z" fill="#000000" fill-rule="nonzero" fill-opacity="1" /><path clip-path="url(#clip610)" d="M140.019 1034.48 L156.339 1034.48 L156.339 1038.41 L134.394 1038.41 L134.394 1034.48 Q137.056 1031.73 141.64 1027.1 Q146.246 1022.44 147.427 1021.1 Q149.672 1018.58 150.552 1016.84 Q151.455 1015.08 151.455 1013.39 Q151.455 1010.64 149.51 1008.9 Q147.589 1007.17 144.487 1007.17 Q142.288 1007.17 139.834 1007.93 Q137.404 1008.69 134.626 1010.24 L134.626 1005.52 Q137.45 1004.39 139.904 1003.81 Q142.357 1003.23 144.394 1003.23 Q149.765 1003.23 152.959 1005.92 Q156.154 1008.6 156.154 1013.09 Q156.154 1015.22 155.343 1017.14 Q154.556 1019.04 152.45 1021.63 Q151.871 1022.3 148.769 1025.52 Q145.668 1028.72 140.019 1034.48 Z" fill="#000000" fill-rule="nonzero" fill-opacity="1" /><path clip-path="url(#clip610)" d="M98.6771 833.856 Q95.066 833.856 93.2373 837.421 Q91.4317 840.963 91.4317 848.092 Q91.4317 855.199 93.2373 858.764 Q95.066 862.305 98.6771 862.305 Q102.311 862.305 104.117 858.764 Q105.946 855.199 105.946 848.092 Q105.946 840.963 104.117 837.421 Q102.311 833.856 98.6771 833.856 M98.6771 830.153 Q104.487 830.153 107.543 834.759 Q110.621 839.343 110.621 848.092 Q110.621 856.819 107.543 861.426 Q104.487 866.009 98.6771 866.009 Q92.8669 866.009 89.7882 861.426 Q86.7327 856.819 86.7327 848.092 Q86.7327 839.343 89.7882 834.759 Q92.8669 830.153 98.6771 830.153 Z" fill="#000000" fill-rule="nonzero" fill-opacity="1" /><path clip-path="url(#clip610)" d="M118.839 859.458 L123.723 859.458 L123.723 865.338 L118.839 865.338 L118.839 859.458 Z" fill="#000000" fill-rule="nonzero" fill-opacity="1" /><path clip-path="url(#clip610)" d="M146.756 834.852 L134.95 853.301 L146.756 853.301 L146.756 834.852 M145.529 830.778 L151.408 830.778 L151.408 853.301 L156.339 853.301 L156.339 857.19 L151.408 857.19 L151.408 865.338 L146.756 865.338 L146.756 857.19 L131.154 857.19 L131.154 852.676 L145.529 830.778 Z" fill="#000000" fill-rule="nonzero" fill-opacity="1" /><path clip-path="url(#clip610)" d="M99.0011 660.779 Q95.39 660.779 93.5613 664.344 Q91.7558 667.886 91.7558 675.015 Q91.7558 682.122 93.5613 685.687 Q95.39 689.228 99.0011 689.228 Q102.635 689.228 104.441 685.687 Q106.27 682.122 106.27 675.015 Q106.27 667.886 104.441 664.344 Q102.635 660.779 99.0011 660.779 M99.0011 657.076 Q104.811 657.076 107.867 661.682 Q110.946 666.265 110.946 675.015 Q110.946 683.742 107.867 688.349 Q104.811 692.932 99.0011 692.932 Q93.191 692.932 90.1123 688.349 Q87.0567 683.742 87.0567 675.015 Q87.0567 666.265 90.1123 661.682 Q93.191 657.076 99.0011 657.076 Z" fill="#000000" fill-rule="nonzero" fill-opacity="1" /><path clip-path="url(#clip610)" d="M119.163 686.381 L124.047 686.381 L124.047 692.261 L119.163 692.261 L119.163 686.381 Z" fill="#000000" fill-rule="nonzero" fill-opacity="1" /><path clip-path="url(#clip610)" d="M144.811 673.117 Q141.663 673.117 139.811 675.27 Q137.982 677.423 137.982 681.173 Q137.982 684.899 139.811 687.075 Q141.663 689.228 144.811 689.228 Q147.959 689.228 149.788 687.075 Q151.64 684.899 151.64 681.173 Q151.64 677.423 149.788 675.27 Q147.959 673.117 144.811 673.117 M154.093 658.464 L154.093 662.724 Q152.334 661.89 150.529 661.451 Q148.746 661.011 146.987 661.011 Q142.357 661.011 139.904 664.136 Q137.473 667.261 137.126 673.58 Q138.492 671.566 140.552 670.501 Q142.612 669.413 145.089 669.413 Q150.297 669.413 153.306 672.585 Q156.339 675.733 156.339 681.173 Q156.339 686.497 153.191 689.714 Q150.043 692.932 144.811 692.932 Q138.816 692.932 135.644 688.349 Q132.473 683.742 132.473 675.015 Q132.473 666.821 136.362 661.96 Q140.251 657.076 146.802 657.076 Q148.561 657.076 150.343 657.423 Q152.149 657.77 154.093 658.464 Z" fill="#000000" fill-rule="nonzero" fill-opacity="1" /><path clip-path="url(#clip610)" d="M99.2558 487.702 Q95.6447 487.702 93.816 491.267 Q92.0104 494.808 92.0104 501.938 Q92.0104 509.045 93.816 512.609 Q95.6447 516.151 99.2558 516.151 Q102.89 516.151 104.696 512.609 Q106.524 509.045 106.524 501.938 Q106.524 494.808 104.696 491.267 Q102.89 487.702 99.2558 487.702 M99.2558 483.998 Q105.066 483.998 108.121 488.605 Q111.2 493.188 111.2 501.938 Q111.2 510.665 108.121 515.271 Q105.066 519.855 99.2558 519.855 Q93.4456 519.855 90.3669 515.271 Q87.3114 510.665 87.3114 501.938 Q87.3114 493.188 90.3669 488.605 Q93.4456 483.998 99.2558 483.998 Z" fill="#000000" fill-rule="nonzero" fill-opacity="1" /><path clip-path="url(#clip610)" d="M119.418 513.304 L124.302 513.304 L124.302 519.183 L119.418 519.183 L119.418 513.304 Z" fill="#000000" fill-rule="nonzero" fill-opacity="1" /><path clip-path="url(#clip610)" d="M144.487 502.771 Q141.154 502.771 139.232 504.554 Q137.334 506.336 137.334 509.461 Q137.334 512.586 139.232 514.369 Q141.154 516.151 144.487 516.151 Q147.82 516.151 149.742 514.369 Q151.663 512.563 151.663 509.461 Q151.663 506.336 149.742 504.554 Q147.843 502.771 144.487 502.771 M139.811 500.781 Q136.802 500.04 135.112 497.98 Q133.445 495.92 133.445 492.957 Q133.445 488.813 136.385 486.406 Q139.348 483.998 144.487 483.998 Q149.649 483.998 152.589 486.406 Q155.529 488.813 155.529 492.957 Q155.529 495.92 153.839 497.98 Q152.172 500.04 149.186 500.781 Q152.566 501.568 154.441 503.859 Q156.339 506.151 156.339 509.461 Q156.339 514.484 153.26 517.169 Q150.205 519.855 144.487 519.855 Q138.769 519.855 135.691 517.169 Q132.635 514.484 132.635 509.461 Q132.635 506.151 134.533 503.859 Q136.431 501.568 139.811 500.781 M138.098 493.396 Q138.098 496.082 139.765 497.586 Q141.455 499.091 144.487 499.091 Q147.496 499.091 149.186 497.586 Q150.899 496.082 150.899 493.396 Q150.899 490.711 149.186 489.207 Q147.496 487.702 144.487 487.702 Q141.455 487.702 139.765 489.207 Q138.098 490.711 138.098 493.396 Z" fill="#000000" fill-rule="nonzero" fill-opacity="1" /><path clip-path="url(#clip610)" d="M89.9734 342.171 L97.6122 342.171 L97.6122 315.805 L89.3021 317.472 L89.3021 313.213 L97.566 311.546 L102.242 311.546 L102.242 342.171 L109.881 342.171 L109.881 346.106 L89.9734 346.106 L89.9734 342.171 Z" fill="#000000" fill-rule="nonzero" fill-opacity="1" /><path clip-path="url(#clip610)" d="M119.325 340.227 L124.209 340.227 L124.209 346.106 L119.325 346.106 L119.325 340.227 Z" fill="#000000" fill-rule="nonzero" fill-opacity="1" /><path clip-path="url(#clip610)" d="M144.394 314.625 Q140.783 314.625 138.955 318.19 Q137.149 321.731 137.149 328.861 Q137.149 335.967 138.955 339.532 Q140.783 343.074 144.394 343.074 Q148.029 343.074 149.834 339.532 Q151.663 335.967 151.663 328.861 Q151.663 321.731 149.834 318.19 Q148.029 314.625 144.394 314.625 M144.394 310.921 Q150.205 310.921 153.26 315.528 Q156.339 320.111 156.339 328.861 Q156.339 337.588 153.26 342.194 Q150.205 346.777 144.394 346.777 Q138.584 346.777 135.506 342.194 Q132.45 337.588 132.45 328.861 Q132.45 320.111 135.506 315.528 Q138.584 310.921 144.394 310.921 Z" fill="#000000" fill-rule="nonzero" fill-opacity="1" /><path clip-path="url(#clip610)" d="M91.5706 169.094 L99.2095 169.094 L99.2095 142.728 L90.8993 144.395 L90.8993 140.136 L99.1632 138.469 L103.839 138.469 L103.839 169.094 L111.478 169.094 L111.478 173.029 L91.5706 173.029 L91.5706 169.094 Z" fill="#000000" fill-rule="nonzero" fill-opacity="1" /><path clip-path="url(#clip610)" d="M120.922 167.149 L125.807 167.149 L125.807 173.029 L120.922 173.029 L120.922 167.149 Z" fill="#000000" fill-rule="nonzero" fill-opacity="1" /><path clip-path="url(#clip610)" d="M140.019 169.094 L156.339 169.094 L156.339 173.029 L134.394 173.029 L134.394 169.094 Q137.056 166.339 141.64 161.71 Q146.246 157.057 147.427 155.714 Q149.672 153.191 150.552 151.455 Q151.455 149.696 151.455 148.006 Q151.455 145.251 149.51 143.515 Q147.589 141.779 144.487 141.779 Q142.288 141.779 139.834 142.543 Q137.404 143.307 134.626 144.858 L134.626 140.136 Q137.45 139.001 139.904 138.423 Q142.357 137.844 144.394 137.844 Q149.765 137.844 152.959 140.529 Q156.154 143.214 156.154 147.705 Q156.154 149.835 155.343 151.756 Q154.556 153.654 152.45 156.247 Q151.871 156.918 148.769 160.135 Q145.668 163.33 140.019 169.094 Z" fill="#000000" fill-rule="nonzero" fill-opacity="1" /><polyline clip-path="url(#clip612)" style="stroke:#009af9; stroke-linecap:round; stroke-linejoin:round; stroke-width:16; stroke-opacity:1; fill:none" stroke-dasharray="8, 16" points="253.483,1063.23 263.725,1048.41 273.966,1035.07 284.208,1025.12 294.45,1020.29 304.692,1021.8 314.934,1030.02 325.176,1044.49 335.418,1064.11 345.659,1087.61 355.901,1113.93 366.143,1142.4 376.385,1172.54 386.627,1203.78 396.869,1235.13 407.111,1265.16 417.352,1292.42 427.594,1315.92 437.836,1335.32 448.078,1350.6 458.32,1361.51 468.562,1367.39 478.803,1367.44 489.045,1361.23 499.287,1348.97 509.529,1331.42 519.771,1309.54 530.013,1284.23 540.255,1256.29 550.497,1226.5 560.738,1195.69 570.98,1164.8 581.222,1134.83 591.464,1106.76 601.706,1081.49 611.948,1059.79 622.19,1042.31 632.431,1029.63 642.673,1022.31 652.915,1020.91 663.157,1025.81 673.399,1036.93 683.641,1053.45 693.882,1073.87 704.124,1096.76 714.366,1121.65 724.608,1149.13 734.85,1179.69 745.092,1212.46 755.334,1245.19 765.575,1275.49 775.817,1301.85 786.059,1323.76 796.301,1341.23 806.543,1354.28 816.785,1362.83 827.027,1366.65 837.268,1365.3 847.51,1358.29 857.752,1345.35 867.994,1326.82 878.236,1303.54 888.478,1276.54 898.72,1246.89 908.961,1216.31 919.203,1187.43 929.445,1160.93 939.687,1131.75 949.929,1097.9 960.171,1074.4 970.413,1078.93 980.654,1103.4 990.896,1103.31 1001.14,1033.31 1011.38,894.075 1021.62,768.122 1031.86,834.496 1042.11,1032.31 1052.35,1152.71 1062.59,1206.06 1072.83,1219.18 1083.07,1179.6 1093.31,1124.65 1103.56,1125.02 1113.8,1180.95 1124.04,1262.02 1134.28,1351.06 1144.52,1425.62 1154.77,1445.72 1165.01,1390.17 1175.25,1314.73 1185.49,1296.1 1195.73,1317.9 1205.98,1340.08 1216.22,1361.39 1226.46,1376.27 1236.7,1370.98 1246.94,1315.45 1257.18,1160.05 1267.43,907.753 1277.67,632.11 1287.91,409.701 1298.15,274.906 1308.39,227.81 1318.64,248.131 1328.88,305.478 1339.12,369.955 1349.36,411.122 1359.6,396.963 1369.84,332.622 1380.09,319.1 1390.33,415.029 1400.57,448.241 1410.81,356.316 1421.05,326.547 1431.3,359.435 1441.54,371.028 1451.78,368.268 1462.02,371.591 1472.26,365.425 1482.51,339.45 1492.75,302.407 1502.99,271.155 1513.23,229.334 1523.47,219.805 1533.71,280.707 1543.96,348.652 1554.2,403.582 1564.44,428.521 1574.68,419.23 1584.92,381.073 1595.17,323.873 1605.41,266.818 1615.65,234.605 1625.89,239.083 1636.13,270.799 1646.38,311.617 1656.62,348.776 1666.86,377.072 1677.1,395.23 1687.34,402.753 1697.58,398.056 1707.83,378.368 1718.07,342.299 1728.31,293.909 1738.55,244.944 1748.79,212.651 1759.04,213.578 1769.28,255.52 1779.52,329.895 1789.76,410.016 1800,462.674 1810.24,468.307 1820.49,430.38 1830.73,365.916 1840.97,292.573 1851.21,226.101 1861.45,183.961 1871.7,183.897 1881.94,233.482 1892.18,319.017 1902.42,408.21 1912.66,468.283 1922.91,482.885 1933.15,454.459 1943.39,396.271 1953.63,324.614 1963.87,255.266 1974.11,202.405 1984.36,177.538 1994.6,187.813 2004.84,234.372 2015.08,311.194 2025.32,403.932 2035.57,488.883 2045.81,535.298 2056.05,516.652 2066.29,429.515 2076.53,303.169 2086.77,184.723 2097.02,112.742 2107.26,105.1 2117.5,164.49 2127.74,284.084 2137.98,437.9 2148.23,566.908 2158.47,602.691 2168.71,527.301 2178.95,389.797 2189.19,257.56 2199.44,171.552 2209.68,140.463 2219.92,154.419 2230.16,197.993 2240.4,257.182 2250.64,321.768 2260.89,385.305 2271.13,444.245 2281.37,497.005 2291.61,543.23 "/>
<polyline clip-path="url(#clip612)" style="stroke:#e26f46; stroke-linecap:round; stroke-linejoin:round; stroke-width:4; stroke-opacity:1; fill:none" points="253.483,1064.23 263.725,1045.79 273.966,1032.2 284.208,1023.89 294.45,1021.14 304.692,1024.03 314.934,1032.49 325.176,1046.22 335.418,1064.78 345.659,1087.56 355.901,1113.83 366.143,1142.72 376.385,1173.29 386.627,1204.54 396.869,1235.46 407.111,1265.03 417.352,1292.29 427.594,1316.34 437.836,1336.42 448.078,1351.85 458.32,1362.13 468.562,1366.94 478.803,1366.1 489.045,1359.66 499.287,1347.82 509.529,1330.97 519.771,1309.65 530.013,1284.56 540.255,1256.53 550.497,1226.46 560.738,1195.34 570.98,1164.18 581.222,1134 591.464,1105.79 601.706,1080.46 611.948,1058.85 622.19,1041.65 632.431,1029.44 642.673,1022.6 652.915,1021.36 663.157,1025.76 673.399,1035.66 683.641,1050.74 693.882,1070.5 704.124,1094.29 714.366,1121.35 724.608,1150.79 734.85,1181.64 745.092,1212.9 755.334,1243.55 765.575,1272.6 775.817,1299.08 786.059,1322.14 796.301,1341.03 806.543,1355.12 816.785,1363.97 827.027,1367.27 837.268,1364.92 847.51,1357.01 857.752,1343.78 867.994,1325.66 878.236,1303.26 888.478,1277.3 898.72,1248.63 908.961,1218.18 919.203,1186.95 929.445,1155.95 939.687,1126.21 949.929,1098.68 960.171,1074.28 970.413,1053.78 980.654,1037.87 990.896,1027.06 1001.14,1021.71 1011.38,1021.99 1021.62,1027.89 1031.86,1039.21 1042.11,1055.6 1052.35,1076.51 1062.59,1101.26 1072.83,1129.04 1083.07,1158.96 1093.31,1190.02 1103.56,1221.22 1113.8,1251.53 1124.04,1279.98 1134.28,1305.63 1144.52,1327.64 1154.77,1345.3 1165.01,1358.02 1175.25,1365.4 1185.49,1367.19 1195.73,1363.34 1205.98,1353.97 1216.22,1339.38 1226.46,1320.05 1236.7,1296.62 1246.94,1269.85 1257.18,1240.6 1267.43,1209.85 1277.67,327.569 1287.91,326.139 1298.15,327.441 1308.39,331.774 1318.64,337.811 1328.88,343.001 1339.12,344.538 1349.36,340.545 1359.6,331.025 1369.84,318.192 1380.09,305.981 1390.33,298.847 1400.57,300.215 1410.81,311.1 1421.05,329.407 1431.3,350.243 1441.54,367.21 1451.78,374.367 1462.02,368.24 1472.26,349.231 1482.51,321.889 1492.75,293.869 1502.99,273.786 1513.23,268.583 1523.47,281.195 1533.71,309.293 1543.96,345.58 1554.2,379.668 1564.44,401.046 1574.68,402.312 1584.92,381.658 1595.17,343.806 1605.41,298.999 1615.65,260.24 1625.89,239.522 1636.13,244.128 1646.38,274.166 1656.62,322.12 1666.86,374.689 1677.1,416.476 1687.34,434.492 1697.58,422.172 1707.83,381.661 1718.07,323.596 1728.31,264.342 1738.55,221.378 1748.79,208.147 1759.04,229.874 1769.28,281.661 1779.52,349.503 1789.76,414.063 1800,456.184 1810.24,462.563 1820.49,429.927 1830.73,366.378 1840.97,289.437 1851.21,221.223 1861.45,182.09 1871.7,184.564 1881.94,229.376 1892.18,304.838 1902.42,389.857 1912.66,459.83 1922.91,493.76 1933.15,480.548 1943.39,422.568 1953.63,335.395 1963.87,243.641 1974.11,174.008 1984.36,147.521 1994.6,173.189 2004.84,245.021 2015.08,343.345 2025.32,440.183 2035.57,507.214 2045.81,524.051 2056.05,484.423 2066.29,398.392 2076.53,289.839 2086.77,189.844 2097.02,127.789 2107.26,122.727 2117.5,177.557 2127.74,277.777 2137.98,395.287 2148.23,496.268 2158.47,550.91 2168.71,542.21 2178.95,471.23 2189.19,357.204 2199.44,232.348 2209.68,132.758 2219.92,87.9763 2230.16,112.236 2240.4,199.98 2250.64,327.049 2260.89,457.323 2271.13,552.989 2281.37,585.509 2291.61,544.128 "/>
<path clip-path="url(#clip610)" d="M264.353 250.738 L707.222 250.738 L707.222 95.2176 L264.353 95.2176  Z" fill="#ffffff" fill-rule="evenodd" fill-opacity="1"/>
<polyline clip-path="url(#clip610)" style="stroke:#000000; stroke-linecap:round; stroke-linejoin:round; stroke-width:4; stroke-opacity:1; fill:none" points="264.353,250.738 707.222,250.738 707.222,95.2176 264.353,95.2176 264.353,250.738 "/>
<polyline clip-path="url(#clip610)" style="stroke:#009af9; stroke-linecap:round; stroke-linejoin:round; stroke-width:16; stroke-opacity:1; fill:none" stroke-dasharray="8, 16" points="288.357,147.058 432.385,147.058 "/>
<path clip-path="url(#clip610)" d="M461.066 133.62 L461.066 146.606 L466.945 146.606 Q470.209 146.606 471.992 144.916 Q473.774 143.227 473.774 140.102 Q473.774 137 471.992 135.31 Q470.209 133.62 466.945 133.62 L461.066 133.62 M456.39 129.778 L466.945 129.778 Q472.755 129.778 475.718 132.416 Q478.704 135.032 478.704 140.102 Q478.704 145.217 475.718 147.833 Q472.755 150.449 466.945 150.449 L461.066 150.449 L461.066 164.338 L456.39 164.338 L456.39 129.778 Z" fill="#000000" fill-rule="nonzero" fill-opacity="1" /><path clip-path="url(#clip610)" d="M498.982 142.393 Q498.265 141.977 497.408 141.791 Q496.575 141.583 495.556 141.583 Q491.945 141.583 490.001 143.944 Q488.079 146.282 488.079 150.68 L488.079 164.338 L483.797 164.338 L483.797 138.412 L488.079 138.412 L488.079 142.44 Q489.422 140.078 491.575 138.944 Q493.728 137.787 496.806 137.787 Q497.246 137.787 497.778 137.856 Q498.311 137.903 498.959 138.018 L498.982 142.393 Z" fill="#000000" fill-rule="nonzero" fill-opacity="1" /><path clip-path="url(#clip610)" d="M524.584 150.31 L524.584 152.393 L505.001 152.393 Q505.278 156.791 507.639 159.106 Q510.024 161.398 514.26 161.398 Q516.714 161.398 519.005 160.796 Q521.32 160.194 523.588 158.99 L523.588 163.018 Q521.297 163.99 518.889 164.5 Q516.482 165.009 514.005 165.009 Q507.802 165.009 504.167 161.398 Q500.556 157.787 500.556 151.629 Q500.556 145.264 503.982 141.537 Q507.431 137.787 513.264 137.787 Q518.496 137.787 521.528 141.166 Q524.584 144.523 524.584 150.31 M520.325 149.06 Q520.278 145.565 518.357 143.481 Q516.459 141.398 513.311 141.398 Q509.746 141.398 507.593 143.412 Q505.464 145.426 505.14 149.083 L520.325 149.06 Z" fill="#000000" fill-rule="nonzero" fill-opacity="1" /><path clip-path="url(#clip610)" d="M548.635 142.347 L548.635 128.319 L552.894 128.319 L552.894 164.338 L548.635 164.338 L548.635 160.449 Q547.292 162.763 545.232 163.898 Q543.195 165.009 540.325 165.009 Q535.625 165.009 532.663 161.259 Q529.723 157.509 529.723 151.398 Q529.723 145.287 532.663 141.537 Q535.625 137.787 540.325 137.787 Q543.195 137.787 545.232 138.921 Q547.292 140.032 548.635 142.347 M534.121 151.398 Q534.121 156.097 536.042 158.782 Q537.987 161.444 541.366 161.444 Q544.746 161.444 546.69 158.782 Q548.635 156.097 548.635 151.398 Q548.635 146.699 546.69 144.037 Q544.746 141.352 541.366 141.352 Q537.987 141.352 536.042 144.037 Q534.121 146.699 534.121 151.398 Z" fill="#000000" fill-rule="nonzero" fill-opacity="1" /><path clip-path="url(#clip610)" d="M561.667 138.412 L565.926 138.412 L565.926 164.338 L561.667 164.338 L561.667 138.412 M561.667 128.319 L565.926 128.319 L565.926 133.713 L561.667 133.713 L561.667 128.319 Z" fill="#000000" fill-rule="nonzero" fill-opacity="1" /><path clip-path="url(#clip610)" d="M593.496 139.407 L593.496 143.389 Q591.69 142.393 589.861 141.907 Q588.056 141.398 586.204 141.398 Q582.06 141.398 579.769 144.037 Q577.477 146.652 577.477 151.398 Q577.477 156.143 579.769 158.782 Q582.06 161.398 586.204 161.398 Q588.056 161.398 589.861 160.912 Q591.69 160.402 593.496 159.407 L593.496 163.342 Q591.713 164.176 589.792 164.592 Q587.894 165.009 585.741 165.009 Q579.884 165.009 576.435 161.328 Q572.986 157.648 572.986 151.398 Q572.986 145.055 576.459 141.421 Q579.954 137.787 586.019 137.787 Q587.986 137.787 589.861 138.203 Q591.736 138.597 593.496 139.407 Z" fill="#000000" fill-rule="nonzero" fill-opacity="1" /><path clip-path="url(#clip610)" d="M605.116 131.051 L605.116 138.412 L613.889 138.412 L613.889 141.722 L605.116 141.722 L605.116 155.796 Q605.116 158.967 605.972 159.87 Q606.852 160.773 609.514 160.773 L613.889 160.773 L613.889 164.338 L609.514 164.338 Q604.583 164.338 602.708 162.509 Q600.833 160.657 600.833 155.796 L600.833 141.722 L597.708 141.722 L597.708 138.412 L600.833 138.412 L600.833 131.051 L605.116 131.051 Z" fill="#000000" fill-rule="nonzero" fill-opacity="1" /><path clip-path="url(#clip610)" d="M619.491 138.412 L623.75 138.412 L623.75 164.338 L619.491 164.338 L619.491 138.412 M619.491 128.319 L623.75 128.319 L623.75 133.713 L619.491 133.713 L619.491 128.319 Z" fill="#000000" fill-rule="nonzero" fill-opacity="1" /><path clip-path="url(#clip610)" d="M642.708 141.398 Q639.282 141.398 637.292 144.083 Q635.301 146.745 635.301 151.398 Q635.301 156.051 637.268 158.736 Q639.259 161.398 642.708 161.398 Q646.111 161.398 648.102 158.713 Q650.092 156.027 650.092 151.398 Q650.092 146.791 648.102 144.106 Q646.111 141.398 642.708 141.398 M642.708 137.787 Q648.264 137.787 651.435 141.398 Q654.606 145.009 654.606 151.398 Q654.606 157.764 651.435 161.398 Q648.264 165.009 642.708 165.009 Q637.13 165.009 633.958 161.398 Q630.81 157.764 630.81 151.398 Q630.81 145.009 633.958 141.398 Q637.13 137.787 642.708 137.787 Z" fill="#000000" fill-rule="nonzero" fill-opacity="1" /><path clip-path="url(#clip610)" d="M683.217 148.689 L683.217 164.338 L678.958 164.338 L678.958 148.828 Q678.958 145.148 677.523 143.319 Q676.088 141.49 673.217 141.49 Q669.768 141.49 667.778 143.69 Q665.787 145.889 665.787 149.685 L665.787 164.338 L661.504 164.338 L661.504 138.412 L665.787 138.412 L665.787 142.44 Q667.315 140.102 669.375 138.944 Q671.458 137.787 674.166 137.787 Q678.634 137.787 680.926 140.565 Q683.217 143.319 683.217 148.689 Z" fill="#000000" fill-rule="nonzero" fill-opacity="1" /><polyline clip-path="url(#clip610)" style="stroke:#e26f46; stroke-linecap:round; stroke-linejoin:round; stroke-width:4; stroke-opacity:1; fill:none" points="288.357,198.898 432.385,198.898 "/>
<path clip-path="url(#clip610)" d="M456.39 181.618 L478.242 181.618 L478.242 185.553 L461.066 185.553 L461.066 195.784 L477.524 195.784 L477.524 199.719 L461.066 199.719 L461.066 212.242 L478.658 212.242 L478.658 216.178 L456.39 216.178 L456.39 181.618 Z" fill="#000000" fill-rule="nonzero" fill-opacity="1" /><path clip-path="url(#clip610)" d="M507.709 190.252 L498.334 202.867 L508.195 216.178 L503.172 216.178 L495.626 205.992 L488.079 216.178 L483.056 216.178 L493.126 202.613 L483.913 190.252 L488.936 190.252 L495.811 199.488 L502.686 190.252 L507.709 190.252 Z" fill="#000000" fill-rule="nonzero" fill-opacity="1" /><path clip-path="url(#clip610)" d="M525.996 203.145 Q520.834 203.145 518.843 204.326 Q516.852 205.506 516.852 208.354 Q516.852 210.622 518.334 211.965 Q519.838 213.284 522.408 213.284 Q525.95 213.284 528.079 210.784 Q530.232 208.261 530.232 204.094 L530.232 203.145 L525.996 203.145 M534.491 201.386 L534.491 216.178 L530.232 216.178 L530.232 212.242 Q528.774 214.603 526.598 215.738 Q524.422 216.849 521.274 216.849 Q517.292 216.849 514.931 214.627 Q512.593 212.381 512.593 208.631 Q512.593 204.256 515.51 202.034 Q518.45 199.812 524.26 199.812 L530.232 199.812 L530.232 199.395 Q530.232 196.455 528.288 194.858 Q526.366 193.238 522.871 193.238 Q520.649 193.238 518.542 193.77 Q516.436 194.303 514.491 195.367 L514.491 191.432 Q516.829 190.53 519.028 190.09 Q521.227 189.627 523.311 189.627 Q528.936 189.627 531.713 192.543 Q534.491 195.46 534.491 201.386 Z" fill="#000000" fill-rule="nonzero" fill-opacity="1" /><path clip-path="url(#clip610)" d="M561.922 191.247 L561.922 195.229 Q560.116 194.233 558.287 193.747 Q556.482 193.238 554.63 193.238 Q550.486 193.238 548.195 195.877 Q545.903 198.492 545.903 203.238 Q545.903 207.983 548.195 210.622 Q550.486 213.238 554.63 213.238 Q556.482 213.238 558.287 212.752 Q560.116 212.242 561.922 211.247 L561.922 215.182 Q560.139 216.016 558.218 216.432 Q556.32 216.849 554.167 216.849 Q548.311 216.849 544.862 213.168 Q541.412 209.488 541.412 203.238 Q541.412 196.895 544.885 193.261 Q548.38 189.627 554.445 189.627 Q556.412 189.627 558.287 190.043 Q560.162 190.437 561.922 191.247 Z" fill="#000000" fill-rule="nonzero" fill-opacity="1" /><path clip-path="url(#clip610)" d="M573.542 182.891 L573.542 190.252 L582.315 190.252 L582.315 193.562 L573.542 193.562 L573.542 207.636 Q573.542 210.807 574.398 211.71 Q575.278 212.613 577.94 212.613 L582.315 212.613 L582.315 216.178 L577.94 216.178 Q573.01 216.178 571.135 214.349 Q569.26 212.497 569.26 207.636 L569.26 193.562 L566.135 193.562 L566.135 190.252 L569.26 190.252 L569.26 182.891 L573.542 182.891 Z" fill="#000000" fill-rule="nonzero" fill-opacity="1" /></svg>
