<?xml version="1.0" encoding="utf-8"?>
<svg xmlns="http://www.w3.org/2000/svg" xmlns:xlink="http://www.w3.org/1999/xlink" width="600" height="400" viewBox="0 0 2400 1600">
<defs>
  <clipPath id="clip550">
    <rect x="0" y="0" width="2400" height="1600"/>
  </clipPath>
</defs>
<path clip-path="url(#clip550)" d="M0 1600 L2400 1600 L2400 0 L0 0  Z" fill="#ffffff" fill-rule="evenodd" fill-opacity="1"/>
<defs>
  <clipPath id="clip551">
    <rect x="480" y="0" width="1681" height="1600"/>
  </clipPath>
</defs>
<path clip-path="url(#clip550)" d="M156.112 1486.45 L2352.76 1486.45 L2352.76 47.2441 L156.112 47.2441  Z" fill="#ffffff" fill-rule="evenodd" fill-opacity="1"/>
<defs>
  <clipPath id="clip552">
    <rect x="156" y="47" width="2198" height="1440"/>
  </clipPath>
</defs>
<polyline clip-path="url(#clip552)" style="stroke:#000000; stroke-linecap:round; stroke-linejoin:round; stroke-width:2; stroke-opacity:0.1; fill:none" points="218.281,1486.45 218.281,47.2441 "/>
<polyline clip-path="url(#clip552)" style="stroke:#000000; stroke-linecap:round; stroke-linejoin:round; stroke-width:2; stroke-opacity:0.1; fill:none" points="736.358,1486.45 736.358,47.2441 "/>
<polyline clip-path="url(#clip552)" style="stroke:#000000; stroke-linecap:round; stroke-linejoin:round; stroke-width:2; stroke-opacity:0.1; fill:none" points="1254.43,1486.45 1254.43,47.2441 "/>
<polyline clip-path="url(#clip552)" style="stroke:#000000; stroke-linecap:round; stroke-linejoin:round; stroke-width:2; stroke-opacity:0.1; fill:none" points="1772.51,1486.45 1772.51,47.2441 "/>
<polyline clip-path="url(#clip552)" style="stroke:#000000; stroke-linecap:round; stroke-linejoin:round; stroke-width:2; stroke-opacity:0.1; fill:none" points="2290.59,1486.45 2290.59,47.2441 "/>
<polyline clip-path="url(#clip550)" style="stroke:#000000; stroke-linecap:round; stroke-linejoin:round; stroke-width:4; stroke-opacity:1; fill:none" points="156.112,1486.45 2352.76,1486.45 "/>
<polyline clip-path="url(#clip550)" style="stroke:#000000; stroke-linecap:round; stroke-linejoin:round; stroke-width:4; stroke-opacity:1; fill:none" points="218.281,1486.45 218.281,1467.55 "/>
<polyline clip-path="url(#clip550)" style="stroke:#000000; stroke-linecap:round; stroke-linejoin:round; stroke-width:4; stroke-opacity:1; fill:none" points="736.358,1486.45 736.358,1467.55 "/>
<polyline clip-path="url(#clip550)" style="stroke:#000000; stroke-linecap:round; stroke-linejoin:round; stroke-width:4; stroke-opacity:1; fill:none" points="1254.43,1486.45 1254.43,1467.55 "/>
<polyline clip-path="url(#clip550)" style="stroke:#000000; stroke-linecap:round; stroke-linejoin:round; stroke-width:4; stroke-opacity:1; fill:none" points="1772.51,1486.45 1772.51,1467.55 "/>
<polyline clip-path="url(#clip550)" style="stroke:#000000; stroke-linecap:round; stroke-linejoin:round; stroke-width:4; stroke-opacity:1; fill:none" points="2290.59,1486.45 2290.59,1467.55 "/>
<path clip-path="url(#clip550)" d="M164.809 1532.02 L194.485 1532.02 L194.485 1535.95 L164.809 1535.95 L164.809 1532.02 Z" fill="#000000" fill-rule="nonzero" fill-opacity="1" /><path clip-path="url(#clip550)" d="M205.388 1544.91 L213.027 1544.91 L213.027 1518.55 L204.717 1520.21 L204.717 1515.95 L212.98 1514.29 L217.656 1514.29 L217.656 1544.91 L225.295 1544.91 L225.295 1548.85 L205.388 1548.85 L205.388 1544.91 Z" fill="#000000" fill-rule="nonzero" fill-opacity="1" /><path clip-path="url(#clip550)" d="M234.74 1542.97 L239.624 1542.97 L239.624 1548.85 L234.74 1548.85 L234.74 1542.97 Z" fill="#000000" fill-rule="nonzero" fill-opacity="1" /><path clip-path="url(#clip550)" d="M259.809 1517.37 Q256.198 1517.37 254.369 1520.93 Q252.564 1524.47 252.564 1531.6 Q252.564 1538.71 254.369 1542.27 Q256.198 1545.82 259.809 1545.82 Q263.443 1545.82 265.249 1542.27 Q267.077 1538.71 267.077 1531.6 Q267.077 1524.47 265.249 1520.93 Q263.443 1517.37 259.809 1517.37 M259.809 1513.66 Q265.619 1513.66 268.675 1518.27 Q271.753 1522.85 271.753 1531.6 Q271.753 1540.33 268.675 1544.94 Q265.619 1549.52 259.809 1549.52 Q253.999 1549.52 250.92 1544.94 Q247.864 1540.33 247.864 1531.6 Q247.864 1522.85 250.92 1518.27 Q253.999 1513.66 259.809 1513.66 Z" fill="#000000" fill-rule="nonzero" fill-opacity="1" /><path clip-path="url(#clip550)" d="M683.383 1532.02 L713.059 1532.02 L713.059 1535.95 L683.383 1535.95 L683.383 1532.02 Z" fill="#000000" fill-rule="nonzero" fill-opacity="1" /><path clip-path="url(#clip550)" d="M733.152 1517.37 Q729.541 1517.37 727.712 1520.93 Q725.906 1524.47 725.906 1531.6 Q725.906 1538.71 727.712 1542.27 Q729.541 1545.82 733.152 1545.82 Q736.786 1545.82 738.591 1542.27 Q740.42 1538.71 740.42 1531.6 Q740.42 1524.47 738.591 1520.93 Q736.786 1517.37 733.152 1517.37 M733.152 1513.66 Q738.962 1513.66 742.017 1518.27 Q745.096 1522.85 745.096 1531.6 Q745.096 1540.33 742.017 1544.94 Q738.962 1549.52 733.152 1549.52 Q727.341 1549.52 724.263 1544.94 Q721.207 1540.33 721.207 1531.6 Q721.207 1522.85 724.263 1518.27 Q727.341 1513.66 733.152 1513.66 Z" fill="#000000" fill-rule="nonzero" fill-opacity="1" /><path clip-path="url(#clip550)" d="M753.314 1542.97 L758.198 1542.97 L758.198 1548.85 L753.314 1548.85 L753.314 1542.97 Z" fill="#000000" fill-rule="nonzero" fill-opacity="1" /><path clip-path="url(#clip550)" d="M768.429 1514.29 L786.786 1514.29 L786.786 1518.22 L772.712 1518.22 L772.712 1526.7 Q773.73 1526.35 774.749 1526.19 Q775.767 1526 776.786 1526 Q782.573 1526 785.952 1529.17 Q789.332 1532.34 789.332 1537.76 Q789.332 1543.34 785.86 1546.44 Q782.387 1549.52 776.068 1549.52 Q773.892 1549.52 771.624 1549.15 Q769.378 1548.78 766.971 1548.04 L766.971 1543.34 Q769.054 1544.47 771.276 1545.03 Q773.499 1545.58 775.975 1545.58 Q779.98 1545.58 782.318 1543.48 Q784.656 1541.37 784.656 1537.76 Q784.656 1534.15 782.318 1532.04 Q779.98 1529.94 775.975 1529.94 Q774.101 1529.94 772.226 1530.35 Q770.374 1530.77 768.429 1531.65 L768.429 1514.29 Z" fill="#000000" fill-rule="nonzero" fill-opacity="1" /><path clip-path="url(#clip550)" d="M1231.82 1517.37 Q1228.21 1517.37 1226.38 1520.93 Q1224.57 1524.47 1224.57 1531.6 Q1224.57 1538.71 1226.38 1542.27 Q1228.21 1545.82 1231.82 1545.82 Q1235.45 1545.82 1237.26 1542.27 Q1239.09 1538.71 1239.09 1531.6 Q1239.09 1524.47 1237.26 1520.93 Q1235.45 1517.37 1231.82 1517.37 M1231.82 1513.66 Q1237.63 1513.66 1240.68 1518.27 Q1243.76 1522.85 1243.76 1531.6 Q1243.76 1540.33 1240.68 1544.94 Q1237.63 1549.52 1231.82 1549.52 Q1226.01 1549.52 1222.93 1544.94 Q1219.87 1540.33 1219.87 1531.6 Q1219.87 1522.85 1222.93 1518.27 Q1226.01 1513.66 1231.82 1513.66 Z" fill="#000000" fill-rule="nonzero" fill-opacity="1" /><path clip-path="url(#clip550)" d="M1251.98 1542.97 L1256.86 1542.97 L1256.86 1548.85 L1251.98 1548.85 L1251.98 1542.97 Z" fill="#000000" fill-rule="nonzero" fill-opacity="1" /><path clip-path="url(#clip550)" d="M1277.05 1517.37 Q1273.44 1517.37 1271.61 1520.93 Q1269.8 1524.47 1269.8 1531.6 Q1269.8 1538.71 1271.61 1542.27 Q1273.44 1545.82 1277.05 1545.82 Q1280.68 1545.82 1282.49 1542.27 Q1284.32 1538.71 1284.32 1531.6 Q1284.32 1524.47 1282.49 1520.93 Q1280.68 1517.37 1277.05 1517.37 M1277.05 1513.66 Q1282.86 1513.66 1285.92 1518.27 Q1288.99 1522.85 1288.99 1531.6 Q1288.99 1540.33 1285.92 1544.94 Q1282.86 1549.52 1277.05 1549.52 Q1271.24 1549.52 1268.16 1544.94 Q1265.11 1540.33 1265.11 1531.6 Q1265.11 1522.85 1268.16 1518.27 Q1271.24 1513.66 1277.05 1513.66 Z" fill="#000000" fill-rule="nonzero" fill-opacity="1" /><path clip-path="url(#clip550)" d="M1750.39 1517.37 Q1746.78 1517.37 1744.95 1520.93 Q1743.15 1524.47 1743.15 1531.6 Q1743.15 1538.71 1744.95 1542.27 Q1746.78 1545.82 1750.39 1545.82 Q1754.03 1545.82 1755.83 1542.27 Q1757.66 1538.71 1757.66 1531.6 Q1757.66 1524.47 1755.83 1520.93 Q1754.03 1517.37 1750.39 1517.37 M1750.39 1513.66 Q1756.2 1513.66 1759.26 1518.27 Q1762.34 1522.85 1762.34 1531.6 Q1762.34 1540.33 1759.26 1544.94 Q1756.2 1549.52 1750.39 1549.52 Q1744.58 1549.52 1741.5 1544.94 Q1738.45 1540.33 1738.45 1531.6 Q1738.45 1522.85 1741.5 1518.27 Q1744.58 1513.66 1750.39 1513.66 Z" fill="#000000" fill-rule="nonzero" fill-opacity="1" /><path clip-path="url(#clip550)" d="M1770.55 1542.97 L1775.44 1542.97 L1775.44 1548.85 L1770.55 1548.85 L1770.55 1542.97 Z" fill="#000000" fill-rule="nonzero" fill-opacity="1" /><path clip-path="url(#clip550)" d="M1785.67 1514.29 L1804.03 1514.29 L1804.03 1518.22 L1789.95 1518.22 L1789.95 1526.7 Q1790.97 1526.35 1791.99 1526.19 Q1793.01 1526 1794.03 1526 Q1799.81 1526 1803.19 1529.17 Q1806.57 1532.34 1806.57 1537.76 Q1806.57 1543.34 1803.1 1546.44 Q1799.63 1549.52 1793.31 1549.52 Q1791.13 1549.52 1788.86 1549.15 Q1786.62 1548.78 1784.21 1548.04 L1784.21 1543.34 Q1786.3 1544.47 1788.52 1545.03 Q1790.74 1545.58 1793.22 1545.58 Q1797.22 1545.58 1799.56 1543.48 Q1801.9 1541.37 1801.9 1537.76 Q1801.9 1534.15 1799.56 1532.04 Q1797.22 1529.94 1793.22 1529.94 Q1791.34 1529.94 1789.47 1530.35 Q1787.61 1530.77 1785.67 1531.65 L1785.67 1514.29 Z" fill="#000000" fill-rule="nonzero" fill-opacity="1" /><path clip-path="url(#clip550)" d="M2257.74 1544.91 L2265.38 1544.91 L2265.38 1518.55 L2257.07 1520.21 L2257.07 1515.95 L2265.33 1514.29 L2270.01 1514.29 L2270.01 1544.91 L2277.65 1544.91 L2277.65 1548.85 L2257.74 1548.85 L2257.74 1544.91 Z" fill="#000000" fill-rule="nonzero" fill-opacity="1" /><path clip-path="url(#clip550)" d="M2287.09 1542.97 L2291.98 1542.97 L2291.98 1548.85 L2287.09 1548.85 L2287.09 1542.97 Z" fill="#000000" fill-rule="nonzero" fill-opacity="1" /><path clip-path="url(#clip550)" d="M2312.16 1517.37 Q2308.55 1517.37 2306.72 1520.93 Q2304.92 1524.47 2304.92 1531.6 Q2304.92 1538.71 2306.72 1542.27 Q2308.55 1545.82 2312.16 1545.82 Q2315.79 1545.82 2317.6 1542.27 Q2319.43 1538.71 2319.43 1531.6 Q2319.43 1524.47 2317.6 1520.93 Q2315.79 1517.37 2312.16 1517.37 M2312.16 1513.66 Q2317.97 1513.66 2321.03 1518.27 Q2324.11 1522.85 2324.11 1531.6 Q2324.11 1540.33 2321.03 1544.94 Q2317.97 1549.52 2312.16 1549.52 Q2306.35 1549.52 2303.27 1544.94 Q2300.22 1540.33 2300.22 1531.6 Q2300.22 1522.85 2303.27 1518.27 Q2306.35 1513.66 2312.16 1513.66 Z" fill="#000000" fill-rule="nonzero" fill-opacity="1" /><polyline clip-path="url(#clip552)" style="stroke:#000000; stroke-linecap:round; stroke-linejoin:round; stroke-width:2; stroke-opacity:0.1; fill:none" points="156.112,1259.09 2352.76,1259.09 "/>
<polyline clip-path="url(#clip552)" style="stroke:#000000; stroke-linecap:round; stroke-linejoin:round; stroke-width:2; stroke-opacity:0.1; fill:none" points="156.112,858.916 2352.76,858.916 "/>
<polyline clip-path="url(#clip552)" style="stroke:#000000; stroke-linecap:round; stroke-linejoin:round; stroke-width:2; stroke-opacity:0.1; fill:none" points="156.112,458.742 2352.76,458.742 "/>
<polyline clip-path="url(#clip552)" style="stroke:#000000; stroke-linecap:round; stroke-linejoin:round; stroke-width:2; stroke-opacity:0.1; fill:none" points="156.112,58.5673 2352.76,58.5673 "/>
<polyline clip-path="url(#clip550)" style="stroke:#000000; stroke-linecap:round; stroke-linejoin:round; stroke-width:4; stroke-opacity:1; fill:none" points="156.112,1486.45 156.112,47.2441 "/>
<polyline clip-path="url(#clip550)" style="stroke:#000000; stroke-linecap:round; stroke-linejoin:round; stroke-width:4; stroke-opacity:1; fill:none" points="156.112,1259.09 175.01,1259.09 "/>
<polyline clip-path="url(#clip550)" style="stroke:#000000; stroke-linecap:round; stroke-linejoin:round; stroke-width:4; stroke-opacity:1; fill:none" points="156.112,858.916 175.01,858.916 "/>
<polyline clip-path="url(#clip550)" style="stroke:#000000; stroke-linecap:round; stroke-linejoin:round; stroke-width:4; stroke-opacity:1; fill:none" points="156.112,458.742 175.01,458.742 "/>
<polyline clip-path="url(#clip550)" style="stroke:#000000; stroke-linecap:round; stroke-linejoin:round; stroke-width:4; stroke-opacity:1; fill:none" points="156.112,58.5673 175.01,58.5673 "/>
<path clip-path="url(#clip550)" d="M62.9365 1244.89 Q59.3254 1244.89 57.4967 1248.45 Q55.6912 1252 55.6912 1259.13 Q55.6912 1266.23 57.4967 1269.8 Q59.3254 1273.34 62.9365 1273.34 Q66.5707 1273.34 68.3763 1269.8 Q70.205 1266.23 70.205 1259.13 Q70.205 1252 68.3763 1248.45 Q66.5707 1244.89 62.9365 1244.89 M62.9365 1241.19 Q68.7467 1241.19 71.8022 1245.79 Q74.8809 1250.38 74.8809 1259.13 Q74.8809 1267.85 71.8022 1272.46 Q68.7467 1277.04 62.9365 1277.04 Q57.1264 1277.04 54.0477 1272.46 Q50.9921 1267.85 50.9921 1259.13 Q50.9921 1250.38 54.0477 1245.79 Q57.1264 1241.19 62.9365 1241.19 Z" fill="#000000" fill-rule="nonzero" fill-opacity="1" /><path clip-path="url(#clip550)" d="M83.0984 1270.49 L87.9827 1270.49 L87.9827 1276.37 L83.0984 1276.37 L83.0984 1270.49 Z" fill="#000000" fill-rule="nonzero" fill-opacity="1" /><path clip-path="url(#clip550)" d="M108.168 1244.89 Q104.557 1244.89 102.728 1248.45 Q100.922 1252 100.922 1259.13 Q100.922 1266.23 102.728 1269.8 Q104.557 1273.34 108.168 1273.34 Q111.802 1273.34 113.608 1269.8 Q115.436 1266.23 115.436 1259.13 Q115.436 1252 113.608 1248.45 Q111.802 1244.89 108.168 1244.89 M108.168 1241.19 Q113.978 1241.19 117.033 1245.79 Q120.112 1250.38 120.112 1259.13 Q120.112 1267.85 117.033 1272.46 Q113.978 1277.04 108.168 1277.04 Q102.358 1277.04 99.2789 1272.46 Q96.2234 1267.85 96.2234 1259.13 Q96.2234 1250.38 99.2789 1245.79 Q102.358 1241.19 108.168 1241.19 Z" fill="#000000" fill-rule="nonzero" fill-opacity="1" /><path clip-path="url(#clip550)" d="M63.9319 844.715 Q60.3208 844.715 58.4921 848.28 Q56.6865 851.821 56.6865 858.951 Q56.6865 866.057 58.4921 869.622 Q60.3208 873.164 63.9319 873.164 Q67.5661 873.164 69.3717 869.622 Q71.2004 866.057 71.2004 858.951 Q71.2004 851.821 69.3717 848.28 Q67.5661 844.715 63.9319 844.715 M63.9319 841.011 Q69.742 841.011 72.7976 845.618 Q75.8763 850.201 75.8763 858.951 Q75.8763 867.678 72.7976 872.284 Q69.742 876.867 63.9319 876.867 Q58.1217 876.867 55.043 872.284 Q51.9875 867.678 51.9875 858.951 Q51.9875 850.201 55.043 845.618 Q58.1217 841.011 63.9319 841.011 Z" fill="#000000" fill-rule="nonzero" fill-opacity="1" /><path clip-path="url(#clip550)" d="M84.0938 870.317 L88.978 870.317 L88.978 876.196 L84.0938 876.196 L84.0938 870.317 Z" fill="#000000" fill-rule="nonzero" fill-opacity="1" /><path clip-path="url(#clip550)" d="M99.2095 841.636 L117.566 841.636 L117.566 845.571 L103.492 845.571 L103.492 854.043 Q104.51 853.696 105.529 853.534 Q106.547 853.349 107.566 853.349 Q113.353 853.349 116.733 856.52 Q120.112 859.692 120.112 865.108 Q120.112 870.687 116.64 873.789 Q113.168 876.867 106.848 876.867 Q104.672 876.867 102.404 876.497 Q100.159 876.127 97.7511 875.386 L97.7511 870.687 Q99.8345 871.821 102.057 872.377 Q104.279 872.932 106.756 872.932 Q110.76 872.932 113.098 870.826 Q115.436 868.719 115.436 865.108 Q115.436 861.497 113.098 859.391 Q110.76 857.284 106.756 857.284 Q104.881 857.284 103.006 857.701 Q101.154 858.118 99.2095 858.997 L99.2095 841.636 Z" fill="#000000" fill-rule="nonzero" fill-opacity="1" /><path clip-path="url(#clip550)" d="M53.7467 472.087 L61.3856 472.087 L61.3856 445.721 L53.0754 447.388 L53.0754 443.128 L61.3393 441.462 L66.0152 441.462 L66.0152 472.087 L73.654 472.087 L73.654 476.022 L53.7467 476.022 L53.7467 472.087 Z" fill="#000000" fill-rule="nonzero" fill-opacity="1" /><path clip-path="url(#clip550)" d="M83.0984 470.142 L87.9827 470.142 L87.9827 476.022 L83.0984 476.022 L83.0984 470.142 Z" fill="#000000" fill-rule="nonzero" fill-opacity="1" /><path clip-path="url(#clip550)" d="M108.168 444.54 Q104.557 444.54 102.728 448.105 Q100.922 451.647 100.922 458.776 Q100.922 465.883 102.728 469.448 Q104.557 472.989 108.168 472.989 Q111.802 472.989 113.608 469.448 Q115.436 465.883 115.436 458.776 Q115.436 451.647 113.608 448.105 Q111.802 444.54 108.168 444.54 M108.168 440.837 Q113.978 440.837 117.033 445.443 Q120.112 450.026 120.112 458.776 Q120.112 467.503 117.033 472.11 Q113.978 476.693 108.168 476.693 Q102.358 476.693 99.2789 472.11 Q96.2234 467.503 96.2234 458.776 Q96.2234 450.026 99.2789 445.443 Q102.358 440.837 108.168 440.837 Z" fill="#000000" fill-rule="nonzero" fill-opacity="1" /><path clip-path="url(#clip550)" d="M54.7421 71.9121 L62.381 71.9121 L62.381 45.5465 L54.0708 47.2132 L54.0708 42.954 L62.3347 41.2873 L67.0106 41.2873 L67.0106 71.9121 L74.6494 71.9121 L74.6494 75.8473 L54.7421 75.8473 L54.7421 71.9121 Z" fill="#000000" fill-rule="nonzero" fill-opacity="1" /><path clip-path="url(#clip550)" d="M84.0938 69.9677 L88.978 69.9677 L88.978 75.8473 L84.0938 75.8473 L84.0938 69.9677 Z" fill="#000000" fill-rule="nonzero" fill-opacity="1" /><path clip-path="url(#clip550)" d="M99.2095 41.2873 L117.566 41.2873 L117.566 45.2225 L103.492 45.2225 L103.492 53.6946 Q104.51 53.3474 105.529 53.1854 Q106.547 53.0002 107.566 53.0002 Q113.353 53.0002 116.733 56.1715 Q120.112 59.3428 120.112 64.7594 Q120.112 70.3381 116.64 73.4399 Q113.168 76.5186 106.848 76.5186 Q104.672 76.5186 102.404 76.1482 Q100.159 75.7779 97.7511 75.0371 L97.7511 70.3381 Q99.8345 71.4723 102.057 72.0279 Q104.279 72.5834 106.756 72.5834 Q110.76 72.5834 113.098 70.477 Q115.436 68.3705 115.436 64.7594 Q115.436 61.1483 113.098 59.0418 Q110.76 56.9354 106.756 56.9354 Q104.881 56.9354 103.006 57.352 Q101.154 57.7687 99.2095 58.6483 L99.2095 41.2873 Z" fill="#000000" fill-rule="nonzero" fill-opacity="1" /><polyline clip-path="url(#clip552)" style="stroke:#009af9; stroke-linecap:round; stroke-linejoin:round; stroke-width:16; stroke-opacity:1; fill:none" stroke-dasharray="8, 16" points="218.281,1138.88 228.695,1148.16 239.108,1153.54 249.522,1093.67 259.936,1093.9 270.349,1218.53 280.763,1278.07 291.176,1192.01 301.59,1139.3 312.004,1198.17 322.417,1265.93 332.831,1276.28 343.244,1250.28 353.658,1229.01 364.072,1236.8 374.485,1281.75 384.899,1344.09 395.312,1366.69 405.726,1333.34 416.14,1333.36 426.553,1398.7 436.967,1438.01 447.38,1445.72 457.794,1445.61 468.208,1417.21 478.621,1347.17 489.035,1267.42 499.448,1242.48 509.862,1281.51 520.276,1330.92 530.689,1341.31 541.103,1298.33 551.516,1224.61 561.93,1163.15 572.344,1144.56 582.757,1150.55 593.171,1133.87 603.584,1090.53 613.998,1057.12 624.411,1055.79 634.825,1082.08 645.239,1128.72 655.652,1192.25 666.066,1247.1 676.479,1238.14 686.893,1147.9 697.307,1053.37 707.72,1055.33 718.134,1174.68 728.547,1338.85 738.961,1438.55 749.375,1438.49 759.788,1407.33 770.202,1388.72 780.615,1378.2 791.029,1379.84 801.443,1397.94 811.856,1420.26 822.27,1427.32 832.683,1410.51 843.097,1380.27 853.511,1361.14 863.924,1366.34 874.338,1378.5 884.751,1357.18 895.165,1249.84 905.579,1087.91 915.992,1008.24 926.406,1052.64 936.819,1143.78 947.233,1214.32 957.647,1242.7 968.06,1213.91 978.474,1113.16 988.887,968.988 999.301,873.89 1009.71,926.433 1020.13,1103.49 1030.54,1256.54 1040.96,1312.6 1051.37,1290.03 1061.78,1241.14 1072.2,1225.05 1082.61,1269.87 1093.02,1338.58 1103.44,1355.48 1113.85,1303.79 1124.26,1263.33 1134.68,1300.64 1145.09,1388.58 1155.5,1434.1 1165.92,1409.36 1176.33,1385.11 1186.75,1393.75 1197.16,1413 1207.57,1423.01 1217.99,1416.77 1228.4,1370.21 1238.81,1217.5 1249.23,921.492 1259.64,619.676 1270.05,476.05 1280.47,455.313 1290.88,464.927 1301.3,467.353 1311.71,468.379 1322.12,478.199 1332.54,485.117 1342.95,463.277 1353.36,430.927 1363.78,461.753 1374.19,547.399 1384.6,584.598 1395.02,522.333 1405.43,432.942 1415.84,416.398 1426.26,465.09 1436.67,505.47 1447.09,488.078 1457.5,418.91 1467.91,351.564 1478.33,346.387 1488.74,429.654 1499.15,561.792 1509.57,608.454 1519.98,546.345 1530.39,463.602 1540.81,422.089 1551.22,428.283 1561.64,461.136 1572.05,511.11 1582.46,569.586 1592.88,582.553 1603.29,493.937 1613.7,377.582 1624.12,356.344 1634.53,407.247 1644.94,462.332 1655.36,502.524 1665.77,519.789 1676.18,517.016 1686.6,508.636 1697.01,501.801 1707.43,488.017 1717.84,453.633 1728.25,401.601 1738.67,355.453 1749.08,329.447 1759.49,323.102 1769.91,378.663 1780.32,512.279 1790.73,640.392 1801.15,701.286 1811.56,663.771 1821.97,526.631 1832.39,360.238 1842.8,253.65 1853.22,240.8 1863.63,301.834 1874.04,398.156 1884.46,495.951 1894.87,570.05 1905.28,600.767 1915.7,586.88 1926.11,552.254 1936.52,510.624 1946.94,453.767 1957.35,388.589 1967.77,330.958 1978.18,299.963 1988.59,315.762 1999.01,383.432 2009.42,486.565 2019.83,580.161 2030.25,629.951 2040.66,638.702 2051.07,611.591 2061.49,541.379 2071.9,426.599 2082.31,337.268 2092.73,326.978 2103.14,329.936 2113.56,338.649 2123.97,411.106 2134.38,539.636 2144.8,650.485 2155.21,689.015 2165.62,650.227 2176.04,562.462 2186.45,466.233 2196.86,380.65 2207.28,269.856 2217.69,122.944 2228.11,87.9763 2238.52,262.49 2248.93,457.615 2259.35,510.83 2269.76,525.448 2280.17,601.229 2290.59,657.863 "/>
<polyline clip-path="url(#clip552)" style="stroke:#e26f46; stroke-linecap:round; stroke-linejoin:round; stroke-width:4; stroke-opacity:1; fill:none" points="218.281,1138.88 228.695,1121.82 239.108,1109.25 249.522,1101.56 259.936,1099.02 270.349,1101.7 280.763,1109.52 291.176,1122.22 301.59,1139.38 312.004,1160.46 322.417,1184.75 332.831,1211.47 343.244,1239.74 353.658,1268.64 364.072,1297.24 374.485,1324.58 384.899,1349.79 395.312,1372.04 405.726,1390.61 416.14,1404.88 426.553,1414.39 436.967,1418.83 447.38,1418.06 457.794,1412.11 468.208,1401.15 478.621,1385.57 489.035,1365.85 499.448,1342.65 509.862,1316.72 520.276,1288.91 530.689,1260.13 541.103,1231.31 551.516,1203.4 561.93,1177.31 572.344,1153.89 582.757,1133.9 593.171,1118 603.584,1106.7 613.998,1100.37 624.411,1099.23 634.825,1103.3 645.239,1112.46 655.652,1126.4 666.066,1144.67 676.479,1166.68 686.893,1191.71 697.307,1218.93 707.72,1247.46 718.134,1276.38 728.547,1304.72 738.961,1331.58 749.375,1356.08 759.788,1377.41 770.202,1394.87 780.615,1407.91 791.029,1416.09 801.443,1419.14 811.856,1416.97 822.27,1409.65 832.683,1397.41 843.097,1380.66 853.511,1359.95 863.924,1335.94 874.338,1309.42 884.751,1281.26 895.165,1252.37 905.579,1223.71 915.992,1196.2 926.406,1170.74 936.819,1148.17 947.233,1129.21 957.647,1114.5 968.06,1104.5 978.474,1099.55 988.887,1099.81 999.301,1105.26 1009.71,1115.74 1020.13,1130.89 1030.54,1150.23 1040.96,1173.12 1051.37,1198.82 1061.78,1226.48 1072.2,1255.21 1082.61,1284.07 1093.02,1312.11 1103.44,1338.41 1113.85,1362.13 1124.26,1382.49 1134.68,1398.82 1145.09,1410.59 1155.5,1417.42 1165.92,1419.07 1176.33,1415.51 1186.75,1406.84 1197.16,1393.35 1207.57,1375.48 1217.99,1353.8 1228.4,1329.04 1238.81,1302 1249.23,1273.55 1259.64,457.579 1270.05,456.257 1280.47,457.46 1290.88,461.468 1301.3,467.051 1311.71,471.851 1322.12,473.273 1332.54,469.58 1342.95,460.776 1353.36,448.907 1363.78,437.613 1374.19,431.015 1384.6,432.281 1395.02,442.348 1405.43,459.279 1415.84,478.549 1426.26,494.241 1436.67,500.86 1447.09,495.194 1457.5,477.613 1467.91,452.326 1478.33,426.411 1488.74,407.838 1499.15,403.026 1509.57,414.69 1519.98,440.676 1530.39,474.237 1540.81,505.762 1551.22,525.534 1561.64,526.705 1572.05,507.603 1582.46,472.596 1592.88,431.156 1603.29,395.311 1613.7,376.149 1624.12,380.409 1634.53,408.19 1644.94,452.539 1655.36,501.158 1665.77,539.805 1676.18,556.467 1686.6,545.073 1697.01,507.606 1707.43,453.905 1717.84,399.104 1728.25,359.369 1738.67,347.132 1749.08,367.226 1759.49,415.121 1769.91,477.864 1780.32,537.573 1790.73,576.528 1801.15,582.428 1811.56,552.244 1821.97,493.471 1832.39,422.313 1842.8,359.226 1853.22,323.033 1863.63,325.321 1874.04,366.766 1884.46,436.556 1894.87,515.186 1905.28,579.9 1915.7,611.28 1926.11,599.061 1936.52,545.438 1946.94,464.817 1957.35,379.958 1967.77,315.559 1978.18,291.062 1988.59,314.802 1999.01,381.235 2009.42,472.169 2019.83,561.73 2030.25,623.723 2040.66,639.294 2051.07,602.645 2061.49,523.08 2071.9,422.685 2082.31,330.205 2092.73,272.813 2103.14,268.132 2113.56,318.841 2123.97,411.529 2134.38,520.208 2144.8,613.599 2155.21,664.135 2165.62,656.089 2176.04,590.443 2186.45,484.987 2196.86,369.515 2207.28,277.409 2217.69,235.993 2228.11,258.429 2238.52,339.579 2248.93,457.098 2259.35,577.582 2269.76,666.058 2280.17,696.134 2290.59,657.863 "/>
<path clip-path="url(#clip550)" d="M229.334 250.738 L675.825 250.738 L675.825 95.2176 L229.334 95.2176  Z" fill="#ffffff" fill-rule="evenodd" fill-opacity="1"/>
<polyline clip-path="url(#clip550)" style="stroke:#000000; stroke-linecap:round; stroke-linejoin:round; stroke-width:4; stroke-opacity:1; fill:none" points="229.334,250.738 675.825,250.738 675.825,95.2176 229.334,95.2176 229.334,250.738 "/>
<polyline clip-path="url(#clip550)" style="stroke:#009af9; stroke-linecap:round; stroke-linejoin:round; stroke-width:16; stroke-opacity:1; fill:none" stroke-dasharray="8, 16" points="253.741,147.058 400.184,147.058 "/>
<path clip-path="url(#clip550)" d="M429.267 133.62 L429.267 146.606 L435.146 146.606 Q438.41 146.606 440.193 144.916 Q441.975 143.227 441.975 140.102 Q441.975 137 440.193 135.31 Q438.41 133.62 435.146 133.62 L429.267 133.62 M424.591 129.778 L435.146 129.778 Q440.956 129.778 443.919 132.416 Q446.906 135.032 446.906 140.102 Q446.906 145.217 443.919 147.833 Q440.956 150.449 435.146 150.449 L429.267 150.449 L429.267 164.338 L424.591 164.338 L424.591 129.778 Z" fill="#000000" fill-rule="nonzero" fill-opacity="1" /><path clip-path="url(#clip550)" d="M467.183 142.393 Q466.466 141.977 465.609 141.791 Q464.776 141.583 463.757 141.583 Q460.146 141.583 458.202 143.944 Q456.28 146.282 456.28 150.68 L456.28 164.338 L451.998 164.338 L451.998 138.412 L456.28 138.412 L456.28 142.44 Q457.623 140.078 459.776 138.944 Q461.929 137.787 465.007 137.787 Q465.447 137.787 465.979 137.856 Q466.512 137.903 467.16 138.018 L467.183 142.393 Z" fill="#000000" fill-rule="nonzero" fill-opacity="1" /><path clip-path="url(#clip550)" d="M492.785 150.31 L492.785 152.393 L473.202 152.393 Q473.479 156.791 475.841 159.106 Q478.225 161.398 482.461 161.398 Q484.915 161.398 487.206 160.796 Q489.521 160.194 491.79 158.99 L491.79 163.018 Q489.498 163.99 487.09 164.5 Q484.683 165.009 482.206 165.009 Q476.003 165.009 472.368 161.398 Q468.757 157.787 468.757 151.629 Q468.757 145.264 472.183 141.537 Q475.632 137.787 481.466 137.787 Q486.697 137.787 489.729 141.166 Q492.785 144.523 492.785 150.31 M488.526 149.06 Q488.479 145.565 486.558 143.481 Q484.66 141.398 481.512 141.398 Q477.947 141.398 475.794 143.412 Q473.665 145.426 473.341 149.083 L488.526 149.06 Z" fill="#000000" fill-rule="nonzero" fill-opacity="1" /><path clip-path="url(#clip550)" d="M516.836 142.347 L516.836 128.319 L521.095 128.319 L521.095 164.338 L516.836 164.338 L516.836 160.449 Q515.493 162.763 513.433 163.898 Q511.396 165.009 508.526 165.009 Q503.826 165.009 500.864 161.259 Q497.924 157.509 497.924 151.398 Q497.924 145.287 500.864 141.537 Q503.826 137.787 508.526 137.787 Q511.396 137.787 513.433 138.921 Q515.493 140.032 516.836 142.347 M502.322 151.398 Q502.322 156.097 504.243 158.782 Q506.188 161.444 509.567 161.444 Q512.947 161.444 514.891 158.782 Q516.836 156.097 516.836 151.398 Q516.836 146.699 514.891 144.037 Q512.947 141.352 509.567 141.352 Q506.188 141.352 504.243 144.037 Q502.322 146.699 502.322 151.398 Z" fill="#000000" fill-rule="nonzero" fill-opacity="1" /><path clip-path="url(#clip550)" d="M529.868 138.412 L534.127 138.412 L534.127 164.338 L529.868 164.338 L529.868 138.412 M529.868 128.319 L534.127 128.319 L534.127 133.713 L529.868 133.713 L529.868 128.319 Z" fill="#000000" fill-rule="nonzero" fill-opacity="1" /><path clip-path="url(#clip550)" d="M561.697 139.407 L561.697 143.389 Q559.891 142.393 558.062 141.907 Q556.257 141.398 554.405 141.398 Q550.261 141.398 547.97 144.037 Q545.678 146.652 545.678 151.398 Q545.678 156.143 547.97 158.782 Q550.261 161.398 554.405 161.398 Q556.257 161.398 558.062 160.912 Q559.891 160.402 561.697 159.407 L561.697 163.342 Q559.914 164.176 557.993 164.592 Q556.095 165.009 553.942 165.009 Q548.086 165.009 544.636 161.328 Q541.187 157.648 541.187 151.398 Q541.187 145.055 544.66 141.421 Q548.155 137.787 554.22 137.787 Q556.187 137.787 558.062 138.203 Q559.937 138.597 561.697 139.407 Z" fill="#000000" fill-rule="nonzero" fill-opacity="1" /><path clip-path="url(#clip550)" d="M573.317 131.051 L573.317 138.412 L582.09 138.412 L582.09 141.722 L573.317 141.722 L573.317 155.796 Q573.317 158.967 574.173 159.87 Q575.053 160.773 577.715 160.773 L582.09 160.773 L582.09 164.338 L577.715 164.338 Q572.784 164.338 570.909 162.509 Q569.034 160.657 569.034 155.796 L569.034 141.722 L565.909 141.722 L565.909 138.412 L569.034 138.412 L569.034 131.051 L573.317 131.051 Z" fill="#000000" fill-rule="nonzero" fill-opacity="1" /><path clip-path="url(#clip550)" d="M587.692 138.412 L591.951 138.412 L591.951 164.338 L587.692 164.338 L587.692 138.412 M587.692 128.319 L591.951 128.319 L591.951 133.713 L587.692 133.713 L587.692 128.319 Z" fill="#000000" fill-rule="nonzero" fill-opacity="1" /><path clip-path="url(#clip550)" d="M610.909 141.398 Q607.483 141.398 605.493 144.083 Q603.502 146.745 603.502 151.398 Q603.502 156.051 605.469 158.736 Q607.46 161.398 610.909 161.398 Q614.312 161.398 616.303 158.713 Q618.293 156.027 618.293 151.398 Q618.293 146.791 616.303 144.106 Q614.312 141.398 610.909 141.398 M610.909 137.787 Q616.465 137.787 619.636 141.398 Q622.807 145.009 622.807 151.398 Q622.807 157.764 619.636 161.398 Q616.465 165.009 610.909 165.009 Q605.331 165.009 602.159 161.398 Q599.011 157.764 599.011 151.398 Q599.011 145.009 602.159 141.398 Q605.331 137.787 610.909 137.787 Z" fill="#000000" fill-rule="nonzero" fill-opacity="1" /><path clip-path="url(#clip550)" d="M651.418 148.689 L651.418 164.338 L647.159 164.338 L647.159 148.828 Q647.159 145.148 645.724 143.319 Q644.289 141.49 641.418 141.49 Q637.969 141.49 635.979 143.69 Q633.988 145.889 633.988 149.685 L633.988 164.338 L629.705 164.338 L629.705 138.412 L633.988 138.412 L633.988 142.44 Q635.516 140.102 637.576 138.944 Q639.659 137.787 642.367 137.787 Q646.835 137.787 649.127 140.565 Q651.418 143.319 651.418 148.689 Z" fill="#000000" fill-rule="nonzero" fill-opacity="1" /><polyline clip-path="url(#clip550)" style="stroke:#e26f46; stroke-linecap:round; stroke-linejoin:round; stroke-width:4; stroke-opacity:1; fill:none" points="253.741,198.898 400.184,198.898 "/>
<path clip-path="url(#clip550)" d="M424.591 181.618 L446.443 181.618 L446.443 185.553 L429.267 185.553 L429.267 195.784 L445.725 195.784 L445.725 199.719 L429.267 199.719 L429.267 212.242 L446.859 212.242 L446.859 216.178 L424.591 216.178 L424.591 181.618 Z" fill="#000000" fill-rule="nonzero" fill-opacity="1" /><path clip-path="url(#clip550)" d="M475.91 190.252 L466.535 202.867 L476.396 216.178 L471.373 216.178 L463.827 205.992 L456.28 216.178 L451.257 216.178 L461.327 202.613 L452.114 190.252 L457.137 190.252 L464.012 199.488 L470.887 190.252 L475.91 190.252 Z" fill="#000000" fill-rule="nonzero" fill-opacity="1" /><path clip-path="url(#clip550)" d="M494.197 203.145 Q489.035 203.145 487.044 204.326 Q485.053 205.506 485.053 208.354 Q485.053 210.622 486.535 211.965 Q488.04 213.284 490.609 213.284 Q494.151 213.284 496.28 210.784 Q498.433 208.261 498.433 204.094 L498.433 203.145 L494.197 203.145 M502.692 201.386 L502.692 216.178 L498.433 216.178 L498.433 212.242 Q496.975 214.603 494.799 215.738 Q492.623 216.849 489.475 216.849 Q485.493 216.849 483.132 214.627 Q480.794 212.381 480.794 208.631 Q480.794 204.256 483.711 202.034 Q486.651 199.812 492.461 199.812 L498.433 199.812 L498.433 199.395 Q498.433 196.455 496.489 194.858 Q494.567 193.238 491.072 193.238 Q488.85 193.238 486.743 193.77 Q484.637 194.303 482.692 195.367 L482.692 191.432 Q485.03 190.53 487.229 190.09 Q489.428 189.627 491.512 189.627 Q497.137 189.627 499.914 192.543 Q502.692 195.46 502.692 201.386 Z" fill="#000000" fill-rule="nonzero" fill-opacity="1" /><path clip-path="url(#clip550)" d="M530.123 191.247 L530.123 195.229 Q528.317 194.233 526.488 193.747 Q524.683 193.238 522.831 193.238 Q518.688 193.238 516.396 195.877 Q514.104 198.492 514.104 203.238 Q514.104 207.983 516.396 210.622 Q518.688 213.238 522.831 213.238 Q524.683 213.238 526.488 212.752 Q528.317 212.242 530.123 211.247 L530.123 215.182 Q528.34 216.016 526.419 216.432 Q524.521 216.849 522.368 216.849 Q516.512 216.849 513.063 213.168 Q509.614 209.488 509.614 203.238 Q509.614 196.895 513.086 193.261 Q516.581 189.627 522.646 189.627 Q524.613 189.627 526.488 190.043 Q528.363 190.437 530.123 191.247 Z" fill="#000000" fill-rule="nonzero" fill-opacity="1" /><path clip-path="url(#clip550)" d="M541.743 182.891 L541.743 190.252 L550.516 190.252 L550.516 193.562 L541.743 193.562 L541.743 207.636 Q541.743 210.807 542.599 211.71 Q543.479 212.613 546.141 212.613 L550.516 212.613 L550.516 216.178 L546.141 216.178 Q541.211 216.178 539.336 214.349 Q537.461 212.497 537.461 207.636 L537.461 193.562 L534.336 193.562 L534.336 190.252 L537.461 190.252 L537.461 182.891 L541.743 182.891 Z" fill="#000000" fill-rule="nonzero" fill-opacity="1" /></svg>
