<?xml version="1.0" encoding="utf-8"?>
<svg xmlns="http://www.w3.org/2000/svg" xmlns:xlink="http://www.w3.org/1999/xlink" width="600" height="400" viewBox="0 0 2400 1600">
<defs>
  <clipPath id="clip580">
    <rect x="0" y="0" width="2400" height="1600"/>
  </clipPath>
</defs>
<path clip-path="url(#clip580)" d="M0 1600 L2400 1600 L2400 0 L0 0  Z" fill="#ffffff" fill-rule="evenodd" fill-opacity="1"/>
<defs>
  <clipPath id="clip581">
    <rect x="480" y="0" width="1681" height="1600"/>
  </clipPath>
</defs>
<path clip-path="url(#clip580)" d="M156.274 1486.45 L2352.76 1486.45 L2352.76 47.2441 L156.274 47.2441  Z" fill="#ffffff" fill-rule="evenodd" fill-opacity="1"/>
<defs>
  <clipPath id="clip582">
    <rect x="156" y="47" width="2197" height="1440"/>
  </clipPath>
</defs>
<polyline clip-path="url(#clip582)" style="stroke:#000000; stroke-linecap:round; stroke-linejoin:round; stroke-width:2; stroke-opacity:0.1; fill:none" points="218.439,1486.45 218.439,47.2441 "/>
<polyline clip-path="url(#clip582)" style="stroke:#000000; stroke-linecap:round; stroke-linejoin:round; stroke-width:2; stroke-opacity:0.1; fill:none" points="736.477,1486.45 736.477,47.2441 "/>
<polyline clip-path="url(#clip582)" style="stroke:#000000; stroke-linecap:round; stroke-linejoin:round; stroke-width:2; stroke-opacity:0.1; fill:none" points="1254.52,1486.45 1254.52,47.2441 "/>
<polyline clip-path="url(#clip582)" style="stroke:#000000; stroke-linecap:round; stroke-linejoin:round; stroke-width:2; stroke-opacity:0.1; fill:none" points="1772.55,1486.45 1772.55,47.2441 "/>
<polyline clip-path="url(#clip582)" style="stroke:#000000; stroke-linecap:round; stroke-linejoin:round; stroke-width:2; stroke-opacity:0.1; fill:none" points="2290.59,1486.45 2290.59,47.2441 "/>
<polyline clip-path="url(#clip580)" style="stroke:#000000; stroke-linecap:round; stroke-linejoin:round; stroke-width:4; stroke-opacity:1; fill:none" points="156.274,1486.45 2352.76,1486.45 "/>
<polyline clip-path="url(#clip580)" style="stroke:#000000; stroke-linecap:round; stroke-linejoin:round; stroke-width:4; stroke-opacity:1; fill:none" points="218.439,1486.45 218.439,1467.55 "/>
<polyline clip-path="url(#clip580)" style="stroke:#000000; stroke-linecap:round; stroke-linejoin:round; stroke-width:4; stroke-opacity:1; fill:none" points="736.477,1486.45 736.477,1467.55 "/>
<polyline clip-path="url(#clip580)" style="stroke:#000000; stroke-linecap:round; stroke-linejoin:round; stroke-width:4; stroke-opacity:1; fill:none" points="1254.52,1486.45 1254.52,1467.55 "/>
<polyline clip-path="url(#clip580)" style="stroke:#000000; stroke-linecap:round; stroke-linejoin:round; stroke-width:4; stroke-opacity:1; fill:none" points="1772.55,1486.45 1772.55,1467.55 "/>
<polyline clip-path="url(#clip580)" style="stroke:#000000; stroke-linecap:round; stroke-linejoin:round; stroke-width:4; stroke-opacity:1; fill:none" points="2290.59,1486.45 2290.59,1467.55 "/>
<path clip-path="url(#clip580)" d="M164.967 1532.02 L194.643 1532.02 L194.643 1535.95 L164.967 1535.95 L164.967 1532.02 Z" fill="#000000" fill-rule="nonzero" fill-opacity="1" /><path clip-path="url(#clip580)" d="M205.545 1544.91 L213.184 1544.91 L213.184 1518.55 L204.874 1520.21 L204.874 1515.95 L213.138 1514.29 L217.814 1514.29 L217.814 1544.91 L225.453 1544.91 L225.453 1548.85 L205.545 1548.85 L205.545 1544.91 Z" fill="#000000" fill-rule="nonzero" fill-opacity="1" /><path clip-path="url(#clip580)" d="M234.897 1542.97 L239.781 1542.97 L239.781 1548.85 L234.897 1548.85 L234.897 1542.97 Z" fill="#000000" fill-rule="nonzero" fill-opacity="1" /><path clip-path="url(#clip580)" d="M259.966 1517.37 Q256.355 1517.37 254.527 1520.93 Q252.721 1524.47 252.721 1531.6 Q252.721 1538.71 254.527 1542.27 Q256.355 1545.82 259.966 1545.82 Q263.601 1545.82 265.406 1542.27 Q267.235 1538.71 267.235 1531.6 Q267.235 1524.47 265.406 1520.93 Q263.601 1517.37 259.966 1517.37 M259.966 1513.66 Q265.776 1513.66 268.832 1518.27 Q271.911 1522.85 271.911 1531.6 Q271.911 1540.33 268.832 1544.94 Q265.776 1549.52 259.966 1549.52 Q254.156 1549.52 251.077 1544.94 Q248.022 1540.33 248.022 1531.6 Q248.022 1522.85 251.077 1518.27 Q254.156 1513.66 259.966 1513.66 Z" fill="#000000" fill-rule="nonzero" fill-opacity="1" /><path clip-path="url(#clip580)" d="M683.503 1532.02 L713.178 1532.02 L713.178 1535.95 L683.503 1535.95 L683.503 1532.02 Z" fill="#000000" fill-rule="nonzero" fill-opacity="1" /><path clip-path="url(#clip580)" d="M733.271 1517.37 Q729.66 1517.37 727.831 1520.93 Q726.026 1524.47 726.026 1531.6 Q726.026 1538.71 727.831 1542.27 Q729.66 1545.82 733.271 1545.82 Q736.905 1545.82 738.711 1542.27 Q740.539 1538.71 740.539 1531.6 Q740.539 1524.47 738.711 1520.93 Q736.905 1517.37 733.271 1517.37 M733.271 1513.66 Q739.081 1513.66 742.137 1518.27 Q745.215 1522.85 745.215 1531.6 Q745.215 1540.33 742.137 1544.94 Q739.081 1549.52 733.271 1549.52 Q727.461 1549.52 724.382 1544.94 Q721.327 1540.33 721.327 1531.6 Q721.327 1522.85 724.382 1518.27 Q727.461 1513.66 733.271 1513.66 Z" fill="#000000" fill-rule="nonzero" fill-opacity="1" /><path clip-path="url(#clip580)" d="M753.433 1542.97 L758.317 1542.97 L758.317 1548.85 L753.433 1548.85 L753.433 1542.97 Z" fill="#000000" fill-rule="nonzero" fill-opacity="1" /><path clip-path="url(#clip580)" d="M768.548 1514.29 L786.905 1514.29 L786.905 1518.22 L772.831 1518.22 L772.831 1526.7 Q773.849 1526.35 774.868 1526.19 Q775.886 1526 776.905 1526 Q782.692 1526 786.072 1529.17 Q789.451 1532.34 789.451 1537.76 Q789.451 1543.34 785.979 1546.44 Q782.507 1549.52 776.187 1549.52 Q774.011 1549.52 771.743 1549.15 Q769.498 1548.78 767.09 1548.04 L767.09 1543.34 Q769.173 1544.47 771.396 1545.03 Q773.618 1545.58 776.095 1545.58 Q780.099 1545.58 782.437 1543.48 Q784.775 1541.37 784.775 1537.76 Q784.775 1534.15 782.437 1532.04 Q780.099 1529.94 776.095 1529.94 Q774.22 1529.94 772.345 1530.35 Q770.493 1530.77 768.548 1531.65 L768.548 1514.29 Z" fill="#000000" fill-rule="nonzero" fill-opacity="1" /><path clip-path="url(#clip580)" d="M1231.9 1517.37 Q1228.29 1517.37 1226.46 1520.93 Q1224.65 1524.47 1224.65 1531.6 Q1224.65 1538.71 1226.46 1542.27 Q1228.29 1545.82 1231.9 1545.82 Q1235.53 1545.82 1237.34 1542.27 Q1239.17 1538.71 1239.17 1531.6 Q1239.17 1524.47 1237.34 1520.93 Q1235.53 1517.37 1231.9 1517.37 M1231.9 1513.66 Q1237.71 1513.66 1240.77 1518.27 Q1243.84 1522.85 1243.84 1531.6 Q1243.84 1540.33 1240.77 1544.94 Q1237.71 1549.52 1231.9 1549.52 Q1226.09 1549.52 1223.01 1544.94 Q1219.96 1540.33 1219.96 1531.6 Q1219.96 1522.85 1223.01 1518.27 Q1226.09 1513.66 1231.9 1513.66 Z" fill="#000000" fill-rule="nonzero" fill-opacity="1" /><path clip-path="url(#clip580)" d="M1252.06 1542.97 L1256.95 1542.97 L1256.95 1548.85 L1252.06 1548.85 L1252.06 1542.97 Z" fill="#000000" fill-rule="nonzero" fill-opacity="1" /><path clip-path="url(#clip580)" d="M1277.13 1517.37 Q1273.52 1517.37 1271.69 1520.93 Q1269.89 1524.47 1269.89 1531.6 Q1269.89 1538.71 1271.69 1542.27 Q1273.52 1545.82 1277.13 1545.82 Q1280.76 1545.82 1282.57 1542.27 Q1284.4 1538.71 1284.4 1531.6 Q1284.4 1524.47 1282.57 1520.93 Q1280.76 1517.37 1277.13 1517.37 M1277.13 1513.66 Q1282.94 1513.66 1286 1518.27 Q1289.08 1522.85 1289.08 1531.6 Q1289.08 1540.33 1286 1544.94 Q1282.94 1549.52 1277.13 1549.52 Q1271.32 1549.52 1268.24 1544.94 Q1265.19 1540.33 1265.19 1531.6 Q1265.19 1522.85 1268.24 1518.27 Q1271.32 1513.66 1277.13 1513.66 Z" fill="#000000" fill-rule="nonzero" fill-opacity="1" /><path clip-path="url(#clip580)" d="M1750.44 1517.37 Q1746.82 1517.37 1745 1520.93 Q1743.19 1524.47 1743.19 1531.6 Q1743.19 1538.71 1745 1542.27 Q1746.82 1545.82 1750.44 1545.82 Q1754.07 1545.82 1755.88 1542.27 Q1757.7 1538.71 1757.7 1531.6 Q1757.7 1524.47 1755.88 1520.93 Q1754.07 1517.37 1750.44 1517.37 M1750.44 1513.66 Q1756.25 1513.66 1759.3 1518.27 Q1762.38 1522.85 1762.38 1531.6 Q1762.38 1540.33 1759.3 1544.94 Q1756.25 1549.52 1750.44 1549.52 Q1744.63 1549.52 1741.55 1544.94 Q1738.49 1540.33 1738.49 1531.6 Q1738.49 1522.85 1741.55 1518.27 Q1744.63 1513.66 1750.44 1513.66 Z" fill="#000000" fill-rule="nonzero" fill-opacity="1" /><path clip-path="url(#clip580)" d="M1770.6 1542.97 L1775.48 1542.97 L1775.48 1548.85 L1770.6 1548.85 L1770.6 1542.97 Z" fill="#000000" fill-rule="nonzero" fill-opacity="1" /><path clip-path="url(#clip580)" d="M1785.71 1514.29 L1804.07 1514.29 L1804.07 1518.22 L1790 1518.22 L1790 1526.7 Q1791.01 1526.35 1792.03 1526.19 Q1793.05 1526 1794.07 1526 Q1799.86 1526 1803.24 1529.17 Q1806.62 1532.34 1806.62 1537.76 Q1806.62 1543.34 1803.14 1546.44 Q1799.67 1549.52 1793.35 1549.52 Q1791.18 1549.52 1788.91 1549.15 Q1786.66 1548.78 1784.25 1548.04 L1784.25 1543.34 Q1786.34 1544.47 1788.56 1545.03 Q1790.78 1545.58 1793.26 1545.58 Q1797.26 1545.58 1799.6 1543.48 Q1801.94 1541.37 1801.94 1537.76 Q1801.94 1534.15 1799.6 1532.04 Q1797.26 1529.94 1793.26 1529.94 Q1791.38 1529.94 1789.51 1530.35 Q1787.66 1530.77 1785.71 1531.65 L1785.71 1514.29 Z" fill="#000000" fill-rule="nonzero" fill-opacity="1" /><path clip-path="url(#clip580)" d="M2257.74 1544.91 L2265.38 1544.91 L2265.38 1518.55 L2257.07 1520.21 L2257.07 1515.95 L2265.34 1514.29 L2270.01 1514.29 L2270.01 1544.91 L2277.65 1544.91 L2277.65 1548.85 L2257.74 1548.85 L2257.74 1544.91 Z" fill="#000000" fill-rule="nonzero" fill-opacity="1" /><path clip-path="url(#clip580)" d="M2287.1 1542.97 L2291.98 1542.97 L2291.98 1548.85 L2287.1 1548.85 L2287.1 1542.97 Z" fill="#000000" fill-rule="nonzero" fill-opacity="1" /><path clip-path="url(#clip580)" d="M2312.17 1517.37 Q2308.55 1517.37 2306.73 1520.93 Q2304.92 1524.47 2304.92 1531.6 Q2304.92 1538.71 2306.73 1542.27 Q2308.55 1545.82 2312.17 1545.82 Q2315.8 1545.82 2317.61 1542.27 Q2319.43 1538.71 2319.43 1531.6 Q2319.43 1524.47 2317.61 1520.93 Q2315.8 1517.37 2312.17 1517.37 M2312.17 1513.66 Q2317.98 1513.66 2321.03 1518.27 Q2324.11 1522.85 2324.11 1531.6 Q2324.11 1540.33 2321.03 1544.94 Q2317.98 1549.52 2312.17 1549.52 Q2306.36 1549.52 2303.28 1544.94 Q2300.22 1540.33 2300.22 1531.6 Q2300.22 1522.85 2303.28 1518.27 Q2306.36 1513.66 2312.17 1513.66 Z" fill="#000000" fill-rule="nonzero" fill-opacity="1" /><polyline clip-path="url(#clip582)" style="stroke:#000000; stroke-linecap:round; stroke-linejoin:round; stroke-width:2; stroke-opacity:0.1; fill:none" points="156.274,1244.85 2352.76,1244.85 "/>
<polyline clip-path="url(#clip582)" style="stroke:#000000; stroke-linecap:round; stroke-linejoin:round; stroke-width:2; stroke-opacity:0.1; fill:none" points="156.274,973.351 2352.76,973.351 "/>
<polyline clip-path="url(#clip582)" style="stroke:#000000; stroke-linecap:round; stroke-linejoin:round; stroke-width:2; stroke-opacity:0.1; fill:none" points="156.274,701.851 2352.76,701.851 "/>
<polyline clip-path="url(#clip582)" style="stroke:#000000; stroke-linecap:round; stroke-linejoin:round; stroke-width:2; stroke-opacity:0.1; fill:none" points="156.274,430.351 2352.76,430.351 "/>
<polyline clip-path="url(#clip582)" style="stroke:#000000; stroke-linecap:round; stroke-linejoin:round; stroke-width:2; stroke-opacity:0.1; fill:none" points="156.274,158.851 2352.76,158.851 "/>
<polyline clip-path="url(#clip580)" style="stroke:#000000; stroke-linecap:round; stroke-linejoin:round; stroke-width:4; stroke-opacity:1; fill:none" points="156.274,1486.45 156.274,47.2441 "/>
<polyline clip-path="url(#clip580)" style="stroke:#000000; stroke-linecap:round; stroke-linejoin:round; stroke-width:4; stroke-opacity:1; fill:none" points="156.274,1244.85 175.172,1244.85 "/>
<polyline clip-path="url(#clip580)" style="stroke:#000000; stroke-linecap:round; stroke-linejoin:round; stroke-width:4; stroke-opacity:1; fill:none" points="156.274,973.351 175.172,973.351 "/>
<polyline clip-path="url(#clip580)" style="stroke:#000000; stroke-linecap:round; stroke-linejoin:round; stroke-width:4; stroke-opacity:1; fill:none" points="156.274,701.851 175.172,701.851 "/>
<polyline clip-path="url(#clip580)" style="stroke:#000000; stroke-linecap:round; stroke-linejoin:round; stroke-width:4; stroke-opacity:1; fill:none" points="156.274,430.351 175.172,430.351 "/>
<polyline clip-path="url(#clip580)" style="stroke:#000000; stroke-linecap:round; stroke-linejoin:round; stroke-width:4; stroke-opacity:1; fill:none" points="156.274,158.851 175.172,158.851 "/>
<path clip-path="url(#clip580)" d="M63.0985 1230.65 Q59.4875 1230.65 57.6588 1234.21 Q55.8532 1237.76 55.8532 1244.89 Q55.8532 1251.99 57.6588 1255.56 Q59.4875 1259.1 63.0985 1259.1 Q66.7328 1259.1 68.5383 1255.56 Q70.367 1251.99 70.367 1244.89 Q70.367 1237.76 68.5383 1234.21 Q66.7328 1230.65 63.0985 1230.65 M63.0985 1226.95 Q68.9087 1226.95 71.9642 1231.55 Q75.0429 1236.14 75.0429 1244.89 Q75.0429 1253.61 71.9642 1258.22 Q68.9087 1262.8 63.0985 1262.8 Q57.2884 1262.8 54.2097 1258.22 Q51.1542 1253.61 51.1542 1244.89 Q51.1542 1236.14 54.2097 1231.55 Q57.2884 1226.95 63.0985 1226.95 Z" fill="#000000" fill-rule="nonzero" fill-opacity="1" /><path clip-path="url(#clip580)" d="M83.2605 1256.25 L88.1447 1256.25 L88.1447 1262.13 L83.2605 1262.13 L83.2605 1256.25 Z" fill="#000000" fill-rule="nonzero" fill-opacity="1" /><path clip-path="url(#clip580)" d="M108.33 1230.65 Q104.719 1230.65 102.89 1234.21 Q101.084 1237.76 101.084 1244.89 Q101.084 1251.99 102.89 1255.56 Q104.719 1259.1 108.33 1259.1 Q111.964 1259.1 113.77 1255.56 Q115.598 1251.99 115.598 1244.89 Q115.598 1237.76 113.77 1234.21 Q111.964 1230.65 108.33 1230.65 M108.33 1226.95 Q114.14 1226.95 117.195 1231.55 Q120.274 1236.14 120.274 1244.89 Q120.274 1253.61 117.195 1258.22 Q114.14 1262.8 108.33 1262.8 Q102.52 1262.8 99.4409 1258.22 Q96.3854 1253.61 96.3854 1244.89 Q96.3854 1236.14 99.4409 1231.55 Q102.52 1226.95 108.33 1226.95 Z" fill="#000000" fill-rule="nonzero" fill-opacity="1" /><path clip-path="url(#clip580)" d="M63.7467 959.15 Q60.1356 959.15 58.3069 962.715 Q56.5014 966.256 56.5014 973.386 Q56.5014 980.492 58.3069 984.057 Q60.1356 987.599 63.7467 987.599 Q67.3809 987.599 69.1865 984.057 Q71.0152 980.492 71.0152 973.386 Q71.0152 966.256 69.1865 962.715 Q67.3809 959.15 63.7467 959.15 M63.7467 955.446 Q69.5568 955.446 72.6124 960.053 Q75.6911 964.636 75.6911 973.386 Q75.6911 982.113 72.6124 986.719 Q69.5568 991.303 63.7467 991.303 Q57.9365 991.303 54.8578 986.719 Q51.8023 982.113 51.8023 973.386 Q51.8023 964.636 54.8578 960.053 Q57.9365 955.446 63.7467 955.446 Z" fill="#000000" fill-rule="nonzero" fill-opacity="1" /><path clip-path="url(#clip580)" d="M83.9086 984.752 L88.7928 984.752 L88.7928 990.631 L83.9086 990.631 L83.9086 984.752 Z" fill="#000000" fill-rule="nonzero" fill-opacity="1" /><path clip-path="url(#clip580)" d="M113.145 971.997 Q116.501 972.715 118.376 974.983 Q120.274 977.252 120.274 980.585 Q120.274 985.701 116.756 988.502 Q113.237 991.303 106.756 991.303 Q104.58 991.303 102.265 990.863 Q99.9733 990.446 97.5197 989.59 L97.5197 985.076 Q99.4641 986.21 101.779 986.789 Q104.094 987.367 106.617 987.367 Q111.015 987.367 113.307 985.631 Q115.621 983.895 115.621 980.585 Q115.621 977.53 113.469 975.817 Q111.339 974.08 107.52 974.08 L103.492 974.08 L103.492 970.238 L107.705 970.238 Q111.154 970.238 112.983 968.872 Q114.811 967.483 114.811 964.891 Q114.811 962.229 112.913 960.817 Q111.038 959.381 107.52 959.381 Q105.598 959.381 103.399 959.798 Q101.2 960.215 98.5613 961.094 L98.5613 956.928 Q101.223 956.187 103.538 955.817 Q105.876 955.446 107.936 955.446 Q113.26 955.446 116.362 957.877 Q119.464 960.284 119.464 964.405 Q119.464 967.275 117.82 969.266 Q116.177 971.233 113.145 971.997 Z" fill="#000000" fill-rule="nonzero" fill-opacity="1" /><path clip-path="url(#clip580)" d="M62.9365 687.65 Q59.3254 687.65 57.4967 691.215 Q55.6912 694.756 55.6912 701.886 Q55.6912 708.992 57.4967 712.557 Q59.3254 716.099 62.9365 716.099 Q66.5707 716.099 68.3763 712.557 Q70.205 708.992 70.205 701.886 Q70.205 694.756 68.3763 691.215 Q66.5707 687.65 62.9365 687.65 M62.9365 683.946 Q68.7467 683.946 71.8022 688.553 Q74.8809 693.136 74.8809 701.886 Q74.8809 710.613 71.8022 715.219 Q68.7467 719.803 62.9365 719.803 Q57.1264 719.803 54.0477 715.219 Q50.9921 710.613 50.9921 701.886 Q50.9921 693.136 54.0477 688.553 Q57.1264 683.946 62.9365 683.946 Z" fill="#000000" fill-rule="nonzero" fill-opacity="1" /><path clip-path="url(#clip580)" d="M83.0984 713.252 L87.9827 713.252 L87.9827 719.131 L83.0984 719.131 L83.0984 713.252 Z" fill="#000000" fill-rule="nonzero" fill-opacity="1" /><path clip-path="url(#clip580)" d="M108.746 699.988 Q105.598 699.988 103.746 702.141 Q101.918 704.293 101.918 708.043 Q101.918 711.77 103.746 713.946 Q105.598 716.099 108.746 716.099 Q111.895 716.099 113.723 713.946 Q115.575 711.77 115.575 708.043 Q115.575 704.293 113.723 702.141 Q111.895 699.988 108.746 699.988 M118.029 685.335 L118.029 689.594 Q116.27 688.761 114.464 688.321 Q112.682 687.881 110.922 687.881 Q106.293 687.881 103.839 691.006 Q101.409 694.131 101.061 700.451 Q102.427 698.437 104.487 697.372 Q106.547 696.284 109.024 696.284 Q114.233 696.284 117.242 699.455 Q120.274 702.604 120.274 708.043 Q120.274 713.367 117.126 716.585 Q113.978 719.803 108.746 719.803 Q102.751 719.803 99.5798 715.219 Q96.4085 710.613 96.4085 701.886 Q96.4085 693.692 100.297 688.831 Q104.186 683.946 110.737 683.946 Q112.496 683.946 114.279 684.294 Q116.084 684.641 118.029 685.335 Z" fill="#000000" fill-rule="nonzero" fill-opacity="1" /><path clip-path="url(#clip580)" d="M63.2837 416.15 Q59.6726 416.15 57.8439 419.715 Q56.0384 423.256 56.0384 430.386 Q56.0384 437.492 57.8439 441.057 Q59.6726 444.599 63.2837 444.599 Q66.918 444.599 68.7235 441.057 Q70.5522 437.492 70.5522 430.386 Q70.5522 423.256 68.7235 419.715 Q66.918 416.15 63.2837 416.15 M63.2837 412.446 Q69.0939 412.446 72.1494 417.053 Q75.2281 421.636 75.2281 430.386 Q75.2281 439.113 72.1494 443.719 Q69.0939 448.303 63.2837 448.303 Q57.4736 448.303 54.3949 443.719 Q51.3393 439.113 51.3393 430.386 Q51.3393 421.636 54.3949 417.053 Q57.4736 412.446 63.2837 412.446 Z" fill="#000000" fill-rule="nonzero" fill-opacity="1" /><path clip-path="url(#clip580)" d="M83.4457 441.752 L88.3299 441.752 L88.3299 447.631 L83.4457 447.631 L83.4457 441.752 Z" fill="#000000" fill-rule="nonzero" fill-opacity="1" /><path clip-path="url(#clip580)" d="M98.6539 446.914 L98.6539 442.654 Q100.413 443.488 102.219 443.928 Q104.024 444.367 105.76 444.367 Q110.39 444.367 112.82 441.266 Q115.274 438.141 115.621 431.798 Q114.279 433.789 112.219 434.854 Q110.158 435.918 107.658 435.918 Q102.473 435.918 99.4409 432.793 Q96.4317 429.645 96.4317 424.206 Q96.4317 418.881 99.5798 415.664 Q102.728 412.446 107.959 412.446 Q113.955 412.446 117.103 417.053 Q120.274 421.636 120.274 430.386 Q120.274 438.557 116.385 443.442 Q112.52 448.303 105.969 448.303 Q104.209 448.303 102.404 447.955 Q100.598 447.608 98.6539 446.914 M107.959 432.261 Q111.108 432.261 112.936 430.108 Q114.788 427.955 114.788 424.206 Q114.788 420.479 112.936 418.326 Q111.108 416.15 107.959 416.15 Q104.811 416.15 102.959 418.326 Q101.131 420.479 101.131 424.206 Q101.131 427.955 102.959 430.108 Q104.811 432.261 107.959 432.261 Z" fill="#000000" fill-rule="nonzero" fill-opacity="1" /><path clip-path="url(#clip580)" d="M55.506 172.196 L63.1448 172.196 L63.1448 145.831 L54.8347 147.497 L54.8347 143.238 L63.0985 141.571 L67.7744 141.571 L67.7744 172.196 L75.4133 172.196 L75.4133 176.131 L55.506 176.131 L55.506 172.196 Z" fill="#000000" fill-rule="nonzero" fill-opacity="1" /><path clip-path="url(#clip580)" d="M84.8577 170.252 L89.7419 170.252 L89.7419 176.131 L84.8577 176.131 L84.8577 170.252 Z" fill="#000000" fill-rule="nonzero" fill-opacity="1" /><path clip-path="url(#clip580)" d="M103.955 172.196 L120.274 172.196 L120.274 176.131 L98.3298 176.131 L98.3298 172.196 Q100.992 169.442 105.575 164.812 Q110.182 160.159 111.362 158.817 Q113.608 156.293 114.487 154.557 Q115.39 152.798 115.39 151.108 Q115.39 148.354 113.445 146.618 Q111.524 144.881 108.422 144.881 Q106.223 144.881 103.77 145.645 Q101.339 146.409 98.5613 147.96 L98.5613 143.238 Q101.385 142.104 103.839 141.525 Q106.293 140.946 108.33 140.946 Q113.7 140.946 116.895 143.631 Q120.089 146.317 120.089 150.807 Q120.089 152.937 119.279 154.858 Q118.492 156.756 116.385 159.349 Q115.807 160.02 112.705 163.238 Q109.603 166.432 103.955 172.196 Z" fill="#000000" fill-rule="nonzero" fill-opacity="1" /><polyline clip-path="url(#clip582)" style="stroke:#009af9; stroke-linecap:round; stroke-linejoin:round; stroke-width:16; stroke-opacity:1; fill:none" stroke-dasharray="8, 16" points="218.439,1109.03 228.852,1090.48 239.264,1078.36 249.677,1069.96 260.09,1064.04 270.503,1061.86 280.916,1066.73 291.329,1082.02 301.741,1108.4 312.154,1142.13 322.567,1176.28 332.98,1204.63 343.393,1225.64 353.805,1243.5 364.218,1265.7 374.631,1298.47 385.044,1342.25 395.457,1389.04 405.87,1424.74 416.282,1437.74 426.695,1428.26 437.108,1408.83 447.521,1394.6 457.934,1392.49 468.347,1397.92 478.759,1399.55 489.172,1387.26 499.585,1357.94 509.998,1316.21 520.411,1270.98 530.824,1230.58 541.236,1199.32 551.649,1176.52 562.062,1157.79 572.475,1137.99 582.888,1114.58 593.301,1089.74 603.713,1069.33 614.126,1058.79 624.539,1059.21 634.952,1067.35 645.365,1079.4 655.777,1094.3 666.19,1113.64 676.603,1138.93 687.016,1169.49 697.429,1202.71 707.842,1235.67 718.254,1266.67 728.667,1295.6 739.08,1323.21 749.493,1350.12 759.906,1375.94 770.319,1399.15 780.731,1417.42 791.144,1428.3 801.557,1430.05 811.97,1422.54 822.383,1408.05 832.796,1391.01 843.208,1375.17 853.621,1359.71 864.034,1339.34 874.447,1310.01 884.86,1273.72 895.273,1236.47 905.685,1202.88 916.098,1173.69 926.511,1147.09 936.924,1121.51 947.337,1097.38 957.749,1077.2 968.162,1064.07 978.575,1059.9 988.988,1064.41 999.401,1075.55 1009.81,1090.65 1020.23,1107.77 1030.64,1126.27 1041.05,1146.77 1051.46,1170.49 1061.88,1198.49 1072.29,1231.04 1082.7,1267.23 1093.12,1305.01 1103.53,1341.38 1113.94,1372.95 1124.35,1396.73 1134.77,1410.84 1145.18,1415.28 1155.59,1412.13 1166.01,1405.45 1176.42,1400.64 1186.83,1403.44 1197.24,1417.72 1207.66,1439.66 1218.07,1445.72 1228.48,1382.15 1238.9,1189.37 1249.31,879.993 1259.72,572.627 1270.13,383.022 1280.55,319.766 1290.96,323.379 1301.37,342.767 1311.79,355.743 1322.2,357.416 1332.61,349.44 1343.02,335.842 1353.44,321.663 1363.85,311.865 1374.26,310.006 1384.68,317.167 1395.09,331.651 1405.5,349.585 1415.91,366.104 1426.33,376.65 1436.74,378.055 1447.15,369.279 1457.57,351.758 1467.98,329.302 1478.39,307.465 1488.8,292.329 1499.22,288.859 1509.63,299.21 1520.04,321.674 1530.45,350.862 1540.87,379.278 1551.28,399.652 1561.69,406.843 1572.11,398.474 1582.52,374.453 1592.93,336.659 1603.34,290.164 1613.76,246.018 1624.17,222.43 1634.58,238.515 1645,299.45 1655.41,385.257 1665.82,458.769 1676.23,488.218 1686.65,463.841 1697.06,398.394 1707.47,317.451 1717.89,247.994 1728.3,209.707 1738.71,210.606 1749.12,247.046 1759.54,306.858 1769.95,373.791 1780.36,431.568 1790.78,466.721 1801.19,470.285 1811.6,439.175 1822.01,377.9 1832.43,300.034 1842.84,227.293 1853.25,183.973 1863.67,187.393 1874.08,239.181 1884.49,323.367 1894.9,412.946 1905.32,480.629 1915.73,507.713 1926.14,487.998 1936.56,427.535 1946.97,342.369 1957.38,254.998 1967.79,189.033 1978.21,162.625 1988.62,183.363 1999.03,246.894 2009.45,338.68 2019.86,436.875 2030.27,515.786 2040.68,550.92 2051.1,526.036 2061.51,440.651 2071.92,314.813 2082.33,187.041 2092.75,102.413 2103.16,93.5809 2113.57,165.117 2123.99,291.691 2134.4,430.493 2144.81,538.557 2155.22,585.556 2165.64,559.795 2176.05,470.003 2186.46,343.863 2196.88,220.739 2207.29,137.973 2217.7,116.734 2228.11,155.99 2238.53,237.27 2248.94,335.277 2259.35,427.499 2269.77,499.307 2280.18,544.785 2290.59,565.098 "/>
<polyline clip-path="url(#clip582)" style="stroke:#e26f46; stroke-linecap:round; stroke-linejoin:round; stroke-width:4; stroke-opacity:1; fill:none" points="218.439,1108.92 228.852,1089.64 239.264,1075.42 249.677,1066.73 260.09,1063.85 270.503,1066.88 280.916,1075.72 291.329,1090.08 301.741,1109.49 312.154,1133.32 322.567,1160.79 332.98,1191 343.393,1222.97 353.805,1255.65 364.218,1287.99 374.631,1318.91 385.044,1347.42 395.457,1372.57 405.87,1393.56 416.282,1409.7 426.695,1420.46 437.108,1425.48 447.521,1424.61 457.934,1417.88 468.347,1405.49 478.759,1387.86 489.172,1365.57 499.585,1339.34 509.998,1310.02 520.411,1278.57 530.824,1246.03 541.236,1213.44 551.649,1181.88 562.062,1152.38 572.475,1125.89 582.888,1103.29 593.301,1085.31 603.713,1072.53 614.126,1065.38 624.539,1064.09 634.952,1068.69 645.365,1079.04 655.777,1094.81 666.19,1115.47 676.603,1140.36 687.016,1168.66 697.429,1199.44 707.842,1231.7 718.254,1264.4 728.667,1296.45 739.08,1326.82 749.493,1354.52 759.906,1378.64 770.319,1398.39 780.731,1413.13 791.144,1422.38 801.557,1425.83 811.97,1423.38 822.383,1415.1 832.796,1401.26 843.208,1382.32 853.621,1358.89 864.034,1331.74 874.447,1301.76 884.86,1269.92 895.273,1237.26 905.685,1204.84 916.098,1173.74 926.511,1144.95 936.924,1119.42 947.337,1097.99 957.749,1081.35 968.162,1070.05 978.575,1064.45 988.988,1064.74 999.401,1070.91 1009.81,1082.76 1020.23,1099.89 1030.64,1121.76 1041.05,1147.64 1051.46,1176.7 1061.88,1207.98 1072.29,1240.46 1082.7,1273.09 1093.12,1304.8 1103.53,1334.55 1113.94,1361.37 1124.35,1384.39 1134.77,1402.85 1145.18,1416.16 1155.59,1423.88 1166.01,1425.75 1176.42,1421.72 1186.83,1411.92 1197.24,1396.66 1207.66,1376.45 1218.07,1351.95 1228.48,1323.95 1238.9,1293.37 1249.31,1261.2 1259.72,338.537 1270.13,337.041 1280.55,338.403 1290.96,342.934 1301.37,349.248 1311.79,354.675 1322.2,356.282 1332.61,352.106 1343.02,342.151 1353.44,328.731 1363.85,315.96 1374.26,308.5 1384.68,309.931 1395.09,321.313 1405.5,340.459 1415.91,362.248 1426.33,379.992 1436.74,387.476 1447.15,381.07 1457.57,361.19 1467.98,332.597 1478.39,303.294 1488.8,282.292 1499.22,276.851 1509.63,290.04 1520.04,319.424 1530.45,357.372 1540.87,393.02 1551.28,415.377 1561.69,416.701 1572.11,395.102 1582.52,355.517 1592.93,308.658 1603.34,268.126 1613.76,246.459 1624.17,251.276 1634.58,282.69 1645,332.838 1655.41,387.814 1665.82,431.514 1676.23,450.354 1686.65,437.47 1697.06,395.105 1707.47,334.382 1717.89,272.416 1728.3,227.485 1738.71,213.648 1749.12,236.369 1759.54,290.527 1769.95,361.474 1780.36,428.99 1790.78,473.039 1801.19,479.711 1811.6,445.58 1822.01,379.122 1832.43,298.659 1842.84,227.323 1853.25,186.398 1863.67,188.985 1874.08,235.849 1884.49,314.765 1894.9,403.676 1905.32,476.852 1915.73,512.335 1926.14,498.518 1936.56,437.884 1946.97,346.72 1957.38,250.767 1967.79,177.946 1978.21,150.247 1988.62,177.09 1999.03,252.21 2009.45,355.034 2019.86,456.306 2030.27,526.405 2040.68,544.012 2051.1,502.571 2061.51,412.602 2071.92,299.079 2082.33,194.507 2092.75,129.611 2103.16,124.318 2113.57,181.658 2123.99,286.465 2134.4,409.354 2144.81,514.958 2155.22,572.101 2165.64,563.003 2176.05,488.773 2186.46,369.528 2196.88,238.957 2207.29,134.808 2217.7,87.9763 2228.11,113.347 2238.53,205.107 2248.94,337.993 2259.35,474.231 2269.77,574.276 2280.18,608.284 2290.59,565.009 "/>
<path clip-path="url(#clip580)" d="M229.49 250.738 L675.966 250.738 L675.966 95.2176 L229.49 95.2176  Z" fill="#ffffff" fill-rule="evenodd" fill-opacity="1"/>
<polyline clip-path="url(#clip580)" style="stroke:#000000; stroke-linecap:round; stroke-linejoin:round; stroke-width:4; stroke-opacity:1; fill:none" points="229.49,250.738 675.966,250.738 675.966,95.2176 229.49,95.2176 229.49,250.738 "/>
<polyline clip-path="url(#clip580)" style="stroke:#009af9; stroke-linecap:round; stroke-linejoin:round; stroke-width:16; stroke-opacity:1; fill:none" stroke-dasharray="8, 16" points="253.896,147.058 400.328,147.058 "/>
<path clip-path="url(#clip580)" d="M429.409 133.62 L429.409 146.606 L435.289 146.606 Q438.552 146.606 440.335 144.916 Q442.117 143.227 442.117 140.102 Q442.117 137 440.335 135.31 Q438.552 133.62 435.289 133.62 L429.409 133.62 M424.733 129.778 L435.289 129.778 Q441.099 129.778 444.062 132.416 Q447.048 135.032 447.048 140.102 Q447.048 145.217 444.062 147.833 Q441.099 150.449 435.289 150.449 L429.409 150.449 L429.409 164.338 L424.733 164.338 L424.733 129.778 Z" fill="#000000" fill-rule="nonzero" fill-opacity="1" /><path clip-path="url(#clip580)" d="M467.325 142.393 Q466.608 141.977 465.751 141.791 Q464.918 141.583 463.899 141.583 Q460.288 141.583 458.344 143.944 Q456.423 146.282 456.423 150.68 L456.423 164.338 L452.14 164.338 L452.14 138.412 L456.423 138.412 L456.423 142.44 Q457.765 140.078 459.918 138.944 Q462.071 137.787 465.149 137.787 Q465.589 137.787 466.122 137.856 Q466.654 137.903 467.302 138.018 L467.325 142.393 Z" fill="#000000" fill-rule="nonzero" fill-opacity="1" /><path clip-path="url(#clip580)" d="M492.927 150.31 L492.927 152.393 L473.344 152.393 Q473.622 156.791 475.983 159.106 Q478.367 161.398 482.603 161.398 Q485.057 161.398 487.348 160.796 Q489.663 160.194 491.932 158.99 L491.932 163.018 Q489.64 163.99 487.233 164.5 Q484.825 165.009 482.348 165.009 Q476.145 165.009 472.511 161.398 Q468.899 157.787 468.899 151.629 Q468.899 145.264 472.325 141.537 Q475.774 137.787 481.608 137.787 Q486.839 137.787 489.872 141.166 Q492.927 144.523 492.927 150.31 M488.668 149.06 Q488.622 145.565 486.7 143.481 Q484.802 141.398 481.654 141.398 Q478.089 141.398 475.936 143.412 Q473.807 145.426 473.483 149.083 L488.668 149.06 Z" fill="#000000" fill-rule="nonzero" fill-opacity="1" /><path clip-path="url(#clip580)" d="M516.978 142.347 L516.978 128.319 L521.237 128.319 L521.237 164.338 L516.978 164.338 L516.978 160.449 Q515.635 162.763 513.575 163.898 Q511.538 165.009 508.668 165.009 Q503.969 165.009 501.006 161.259 Q498.066 157.509 498.066 151.398 Q498.066 145.287 501.006 141.537 Q503.969 137.787 508.668 137.787 Q511.538 137.787 513.575 138.921 Q515.635 140.032 516.978 142.347 M502.464 151.398 Q502.464 156.097 504.385 158.782 Q506.33 161.444 509.709 161.444 Q513.089 161.444 515.033 158.782 Q516.978 156.097 516.978 151.398 Q516.978 146.699 515.033 144.037 Q513.089 141.352 509.709 141.352 Q506.33 141.352 504.385 144.037 Q502.464 146.699 502.464 151.398 Z" fill="#000000" fill-rule="nonzero" fill-opacity="1" /><path clip-path="url(#clip580)" d="M530.01 138.412 L534.269 138.412 L534.269 164.338 L530.01 164.338 L530.01 138.412 M530.01 128.319 L534.269 128.319 L534.269 133.713 L530.01 133.713 L530.01 128.319 Z" fill="#000000" fill-rule="nonzero" fill-opacity="1" /><path clip-path="url(#clip580)" d="M561.839 139.407 L561.839 143.389 Q560.033 142.393 558.205 141.907 Q556.399 141.398 554.547 141.398 Q550.404 141.398 548.112 144.037 Q545.82 146.652 545.82 151.398 Q545.82 156.143 548.112 158.782 Q550.404 161.398 554.547 161.398 Q556.399 161.398 558.205 160.912 Q560.033 160.402 561.839 159.407 L561.839 163.342 Q560.056 164.176 558.135 164.592 Q556.237 165.009 554.084 165.009 Q548.228 165.009 544.779 161.328 Q541.33 157.648 541.33 151.398 Q541.33 145.055 544.802 141.421 Q548.297 137.787 554.362 137.787 Q556.33 137.787 558.205 138.203 Q560.08 138.597 561.839 139.407 Z" fill="#000000" fill-rule="nonzero" fill-opacity="1" /><path clip-path="url(#clip580)" d="M573.459 131.051 L573.459 138.412 L582.232 138.412 L582.232 141.722 L573.459 141.722 L573.459 155.796 Q573.459 158.967 574.316 159.87 Q575.195 160.773 577.857 160.773 L582.232 160.773 L582.232 164.338 L577.857 164.338 Q572.927 164.338 571.052 162.509 Q569.177 160.657 569.177 155.796 L569.177 141.722 L566.052 141.722 L566.052 138.412 L569.177 138.412 L569.177 131.051 L573.459 131.051 Z" fill="#000000" fill-rule="nonzero" fill-opacity="1" /><path clip-path="url(#clip580)" d="M587.834 138.412 L592.093 138.412 L592.093 164.338 L587.834 164.338 L587.834 138.412 M587.834 128.319 L592.093 128.319 L592.093 133.713 L587.834 133.713 L587.834 128.319 Z" fill="#000000" fill-rule="nonzero" fill-opacity="1" /><path clip-path="url(#clip580)" d="M611.051 141.398 Q607.626 141.398 605.635 144.083 Q603.644 146.745 603.644 151.398 Q603.644 156.051 605.612 158.736 Q607.602 161.398 611.051 161.398 Q614.454 161.398 616.445 158.713 Q618.436 156.027 618.436 151.398 Q618.436 146.791 616.445 144.106 Q614.454 141.398 611.051 141.398 M611.051 137.787 Q616.607 137.787 619.778 141.398 Q622.95 145.009 622.95 151.398 Q622.95 157.764 619.778 161.398 Q616.607 165.009 611.051 165.009 Q605.473 165.009 602.302 161.398 Q599.153 157.764 599.153 151.398 Q599.153 145.009 602.302 141.398 Q605.473 137.787 611.051 137.787 Z" fill="#000000" fill-rule="nonzero" fill-opacity="1" /><path clip-path="url(#clip580)" d="M651.561 148.689 L651.561 164.338 L647.301 164.338 L647.301 148.828 Q647.301 145.148 645.866 143.319 Q644.431 141.49 641.561 141.49 Q638.112 141.49 636.121 143.69 Q634.13 145.889 634.13 149.685 L634.13 164.338 L629.848 164.338 L629.848 138.412 L634.13 138.412 L634.13 142.44 Q635.658 140.102 637.718 138.944 Q639.801 137.787 642.51 137.787 Q646.977 137.787 649.269 140.565 Q651.561 143.319 651.561 148.689 Z" fill="#000000" fill-rule="nonzero" fill-opacity="1" /><polyline clip-path="url(#clip580)" style="stroke:#e26f46; stroke-linecap:round; stroke-linejoin:round; stroke-width:4; stroke-opacity:1; fill:none" points="253.896,198.898 400.328,198.898 "/>
<path clip-path="url(#clip580)" d="M424.733 181.618 L446.585 181.618 L446.585 185.553 L429.409 185.553 L429.409 195.784 L445.867 195.784 L445.867 199.719 L429.409 199.719 L429.409 212.242 L447.001 212.242 L447.001 216.178 L424.733 216.178 L424.733 181.618 Z" fill="#000000" fill-rule="nonzero" fill-opacity="1" /><path clip-path="url(#clip580)" d="M476.052 190.252 L466.677 202.867 L476.538 216.178 L471.515 216.178 L463.969 205.992 L456.423 216.178 L451.4 216.178 L461.469 202.613 L452.256 190.252 L457.279 190.252 L464.154 199.488 L471.029 190.252 L476.052 190.252 Z" fill="#000000" fill-rule="nonzero" fill-opacity="1" /><path clip-path="url(#clip580)" d="M494.339 203.145 Q489.177 203.145 487.186 204.326 Q485.196 205.506 485.196 208.354 Q485.196 210.622 486.677 211.965 Q488.182 213.284 490.751 213.284 Q494.293 213.284 496.422 210.784 Q498.575 208.261 498.575 204.094 L498.575 203.145 L494.339 203.145 M502.834 201.386 L502.834 216.178 L498.575 216.178 L498.575 212.242 Q497.117 214.603 494.941 215.738 Q492.765 216.849 489.617 216.849 Q485.635 216.849 483.274 214.627 Q480.936 212.381 480.936 208.631 Q480.936 204.256 483.853 202.034 Q486.793 199.812 492.603 199.812 L498.575 199.812 L498.575 199.395 Q498.575 196.455 496.631 194.858 Q494.71 193.238 491.214 193.238 Q488.992 193.238 486.885 193.77 Q484.779 194.303 482.835 195.367 L482.835 191.432 Q485.173 190.53 487.372 190.09 Q489.571 189.627 491.654 189.627 Q497.279 189.627 500.057 192.543 Q502.834 195.46 502.834 201.386 Z" fill="#000000" fill-rule="nonzero" fill-opacity="1" /><path clip-path="url(#clip580)" d="M530.265 191.247 L530.265 195.229 Q528.459 194.233 526.631 193.747 Q524.825 193.238 522.973 193.238 Q518.83 193.238 516.538 195.877 Q514.246 198.492 514.246 203.238 Q514.246 207.983 516.538 210.622 Q518.83 213.238 522.973 213.238 Q524.825 213.238 526.631 212.752 Q528.459 212.242 530.265 211.247 L530.265 215.182 Q528.482 216.016 526.561 216.432 Q524.663 216.849 522.51 216.849 Q516.654 216.849 513.205 213.168 Q509.756 209.488 509.756 203.238 Q509.756 196.895 513.228 193.261 Q516.723 189.627 522.788 189.627 Q524.756 189.627 526.631 190.043 Q528.506 190.437 530.265 191.247 Z" fill="#000000" fill-rule="nonzero" fill-opacity="1" /><path clip-path="url(#clip580)" d="M541.885 182.891 L541.885 190.252 L550.658 190.252 L550.658 193.562 L541.885 193.562 L541.885 207.636 Q541.885 210.807 542.742 211.71 Q543.621 212.613 546.283 212.613 L550.658 212.613 L550.658 216.178 L546.283 216.178 Q541.353 216.178 539.478 214.349 Q537.603 212.497 537.603 207.636 L537.603 193.562 L534.478 193.562 L534.478 190.252 L537.603 190.252 L537.603 182.891 L541.885 182.891 Z" fill="#000000" fill-rule="nonzero" fill-opacity="1" /></svg>
