<?xml version="1.0" encoding="utf-8"?>
<svg xmlns="http://www.w3.org/2000/svg" xmlns:xlink="http://www.w3.org/1999/xlink" width="600" height="400" viewBox="0 0 2400 1600">
<defs>
  <clipPath id="clip050">
    <rect x="0" y="0" width="2400" height="1600"/>
  </clipPath>
</defs>
<path clip-path="url(#clip050)" d="M0 1600 L2400 1600 L2400 0 L0 0  Z" fill="#ffffff" fill-rule="evenodd" fill-opacity="1"/>
<defs>
  <clipPath id="clip051">
    <rect x="480" y="0" width="1681" height="1600"/>
  </clipPath>
</defs>
<path clip-path="url(#clip050)" d="M192.339 1486.45 L2352.76 1486.45 L2352.76 47.2441 L192.339 47.2441  Z" fill="#ffffff" fill-rule="evenodd" fill-opacity="1"/>
<defs>
  <clipPath id="clip052">
    <rect x="192" y="47" width="2161" height="1440"/>
  </clipPath>
</defs>
<polyline clip-path="url(#clip052)" style="stroke:#000000; stroke-linecap:round; stroke-linejoin:round; stroke-width:2; stroke-opacity:0.1; fill:none" points="253.483,1486.45 253.483,47.2441 "/>
<polyline clip-path="url(#clip052)" style="stroke:#000000; stroke-linecap:round; stroke-linejoin:round; stroke-width:2; stroke-opacity:0.1; fill:none" points="763.015,1486.45 763.015,47.2441 "/>
<polyline clip-path="url(#clip052)" style="stroke:#000000; stroke-linecap:round; stroke-linejoin:round; stroke-width:2; stroke-opacity:0.1; fill:none" points="1272.55,1486.45 1272.55,47.2441 "/>
<polyline clip-path="url(#clip052)" style="stroke:#000000; stroke-linecap:round; stroke-linejoin:round; stroke-width:2; stroke-opacity:0.1; fill:none" points="1782.08,1486.45 1782.08,47.2441 "/>
<polyline clip-path="url(#clip052)" style="stroke:#000000; stroke-linecap:round; stroke-linejoin:round; stroke-width:2; stroke-opacity:0.1; fill:none" points="2291.61,1486.45 2291.61,47.2441 "/>
<polyline clip-path="url(#clip050)" style="stroke:#000000; stroke-linecap:round; stroke-linejoin:round; stroke-width:4; stroke-opacity:1; fill:none" points="192.339,1486.45 2352.76,1486.45 "/>
<polyline clip-path="url(#clip050)" style="stroke:#000000; stroke-linecap:round; stroke-linejoin:round; stroke-width:4; stroke-opacity:1; fill:none" points="253.483,1486.45 253.483,1467.55 "/>
<polyline clip-path="url(#clip050)" style="stroke:#000000; stroke-linecap:round; stroke-linejoin:round; stroke-width:4; stroke-opacity:1; fill:none" points="763.015,1486.45 763.015,1467.55 "/>
<polyline clip-path="url(#clip050)" style="stroke:#000000; stroke-linecap:round; stroke-linejoin:round; stroke-width:4; stroke-opacity:1; fill:none" points="1272.55,1486.45 1272.55,1467.55 "/>
<polyline clip-path="url(#clip050)" style="stroke:#000000; stroke-linecap:round; stroke-linejoin:round; stroke-width:4; stroke-opacity:1; fill:none" points="1782.08,1486.45 1782.08,1467.55 "/>
<polyline clip-path="url(#clip050)" style="stroke:#000000; stroke-linecap:round; stroke-linejoin:round; stroke-width:4; stroke-opacity:1; fill:none" points="2291.61,1486.45 2291.61,1467.55 "/>
<path clip-path="url(#clip050)" d="M200.011 1532.02 L229.686 1532.02 L229.686 1535.95 L200.011 1535.95 L200.011 1532.02 Z" fill="#000000" fill-rule="nonzero" fill-opacity="1" /><path clip-path="url(#clip050)" d="M240.589 1544.91 L248.228 1544.91 L248.228 1518.55 L239.918 1520.21 L239.918 1515.95 L248.182 1514.29 L252.858 1514.29 L252.858 1544.91 L260.497 1544.91 L260.497 1548.85 L240.589 1548.85 L240.589 1544.91 Z" fill="#000000" fill-rule="nonzero" fill-opacity="1" /><path clip-path="url(#clip050)" d="M269.941 1542.97 L274.825 1542.97 L274.825 1548.85 L269.941 1548.85 L269.941 1542.97 Z" fill="#000000" fill-rule="nonzero" fill-opacity="1" /><path clip-path="url(#clip050)" d="M295.01 1517.37 Q291.399 1517.37 289.57 1520.93 Q287.765 1524.47 287.765 1531.6 Q287.765 1538.71 289.57 1542.27 Q291.399 1545.82 295.01 1545.82 Q298.644 1545.82 300.45 1542.27 Q302.279 1538.71 302.279 1531.6 Q302.279 1524.47 300.45 1520.93 Q298.644 1517.37 295.01 1517.37 M295.01 1513.66 Q300.82 1513.66 303.876 1518.27 Q306.955 1522.85 306.955 1531.6 Q306.955 1540.33 303.876 1544.94 Q300.82 1549.52 295.01 1549.52 Q289.2 1549.52 286.121 1544.94 Q283.066 1540.33 283.066 1531.6 Q283.066 1522.85 286.121 1518.27 Q289.2 1513.66 295.01 1513.66 Z" fill="#000000" fill-rule="nonzero" fill-opacity="1" /><path clip-path="url(#clip050)" d="M710.041 1532.02 L739.717 1532.02 L739.717 1535.95 L710.041 1535.95 L710.041 1532.02 Z" fill="#000000" fill-rule="nonzero" fill-opacity="1" /><path clip-path="url(#clip050)" d="M759.809 1517.37 Q756.198 1517.37 754.369 1520.93 Q752.564 1524.47 752.564 1531.6 Q752.564 1538.71 754.369 1542.27 Q756.198 1545.82 759.809 1545.82 Q763.443 1545.82 765.249 1542.27 Q767.077 1538.71 767.077 1531.6 Q767.077 1524.47 765.249 1520.93 Q763.443 1517.37 759.809 1517.37 M759.809 1513.66 Q765.619 1513.66 768.675 1518.27 Q771.753 1522.85 771.753 1531.6 Q771.753 1540.33 768.675 1544.94 Q765.619 1549.52 759.809 1549.52 Q753.999 1549.52 750.92 1544.94 Q747.865 1540.33 747.865 1531.6 Q747.865 1522.85 750.92 1518.27 Q753.999 1513.66 759.809 1513.66 Z" fill="#000000" fill-rule="nonzero" fill-opacity="1" /><path clip-path="url(#clip050)" d="M779.971 1542.97 L784.855 1542.97 L784.855 1548.85 L779.971 1548.85 L779.971 1542.97 Z" fill="#000000" fill-rule="nonzero" fill-opacity="1" /><path clip-path="url(#clip050)" d="M795.087 1514.29 L813.443 1514.29 L813.443 1518.22 L799.369 1518.22 L799.369 1526.7 Q800.387 1526.35 801.406 1526.19 Q802.425 1526 803.443 1526 Q809.23 1526 812.61 1529.17 Q815.989 1532.34 815.989 1537.76 Q815.989 1543.34 812.517 1546.44 Q809.045 1549.52 802.725 1549.52 Q800.55 1549.52 798.281 1549.15 Q796.036 1548.78 793.628 1548.04 L793.628 1543.34 Q795.712 1544.47 797.934 1545.03 Q800.156 1545.58 802.633 1545.58 Q806.637 1545.58 808.975 1543.48 Q811.313 1541.37 811.313 1537.76 Q811.313 1534.15 808.975 1532.04 Q806.637 1529.94 802.633 1529.94 Q800.758 1529.94 798.883 1530.35 Q797.031 1530.77 795.087 1531.65 L795.087 1514.29 Z" fill="#000000" fill-rule="nonzero" fill-opacity="1" /><path clip-path="url(#clip050)" d="M1249.93 1517.37 Q1246.32 1517.37 1244.49 1520.93 Q1242.69 1524.47 1242.69 1531.6 Q1242.69 1538.71 1244.49 1542.27 Q1246.32 1545.82 1249.93 1545.82 Q1253.57 1545.82 1255.37 1542.27 Q1257.2 1538.71 1257.2 1531.6 Q1257.2 1524.47 1255.37 1520.93 Q1253.57 1517.37 1249.93 1517.37 M1249.93 1513.66 Q1255.74 1513.66 1258.8 1518.27 Q1261.88 1522.85 1261.88 1531.6 Q1261.88 1540.33 1258.8 1544.94 Q1255.74 1549.52 1249.93 1549.52 Q1244.12 1549.52 1241.04 1544.94 Q1237.99 1540.33 1237.99 1531.6 Q1237.99 1522.85 1241.04 1518.27 Q1244.12 1513.66 1249.93 1513.66 Z" fill="#000000" fill-rule="nonzero" fill-opacity="1" /><path clip-path="url(#clip050)" d="M1270.09 1542.97 L1274.98 1542.97 L1274.98 1548.85 L1270.09 1548.85 L1270.09 1542.97 Z" fill="#000000" fill-rule="nonzero" fill-opacity="1" /><path clip-path="url(#clip050)" d="M1295.16 1517.37 Q1291.55 1517.37 1289.72 1520.93 Q1287.92 1524.47 1287.92 1531.6 Q1287.92 1538.71 1289.72 1542.27 Q1291.55 1545.82 1295.16 1545.82 Q1298.8 1545.82 1300.6 1542.27 Q1302.43 1538.71 1302.43 1531.6 Q1302.43 1524.47 1300.6 1520.93 Q1298.8 1517.37 1295.16 1517.37 M1295.16 1513.66 Q1300.97 1513.66 1304.03 1518.27 Q1307.11 1522.85 1307.11 1531.6 Q1307.11 1540.33 1304.03 1544.94 Q1300.97 1549.52 1295.16 1549.52 Q1289.35 1549.52 1286.27 1544.94 Q1283.22 1540.33 1283.22 1531.6 Q1283.22 1522.85 1286.27 1518.27 Q1289.35 1513.66 1295.16 1513.66 Z" fill="#000000" fill-rule="nonzero" fill-opacity="1" /><path clip-path="url(#clip050)" d="M1759.96 1517.37 Q1756.35 1517.37 1754.52 1520.93 Q1752.72 1524.47 1752.72 1531.6 Q1752.72 1538.71 1754.52 1542.27 Q1756.35 1545.82 1759.96 1545.82 Q1763.6 1545.82 1765.4 1542.27 Q1767.23 1538.71 1767.23 1531.6 Q1767.23 1524.47 1765.4 1520.93 Q1763.6 1517.37 1759.96 1517.37 M1759.96 1513.66 Q1765.77 1513.66 1768.83 1518.27 Q1771.91 1522.85 1771.91 1531.6 Q1771.91 1540.33 1768.83 1544.94 Q1765.77 1549.52 1759.96 1549.52 Q1754.15 1549.52 1751.07 1544.94 Q1748.02 1540.33 1748.02 1531.6 Q1748.02 1522.85 1751.07 1518.27 Q1754.15 1513.66 1759.96 1513.66 Z" fill="#000000" fill-rule="nonzero" fill-opacity="1" /><path clip-path="url(#clip050)" d="M1780.12 1542.97 L1785.01 1542.97 L1785.01 1548.85 L1780.12 1548.85 L1780.12 1542.97 Z" fill="#000000" fill-rule="nonzero" fill-opacity="1" /><path clip-path="url(#clip050)" d="M1795.24 1514.29 L1813.6 1514.29 L1813.6 1518.22 L1799.52 1518.22 L1799.52 1526.7 Q1800.54 1526.35 1801.56 1526.19 Q1802.58 1526 1803.6 1526 Q1809.38 1526 1812.76 1529.17 Q1816.14 1532.34 1816.14 1537.76 Q1816.14 1543.34 1812.67 1546.44 Q1809.2 1549.52 1802.88 1549.52 Q1800.7 1549.52 1798.43 1549.15 Q1796.19 1548.78 1793.78 1548.04 L1793.78 1543.34 Q1795.86 1544.47 1798.09 1545.03 Q1800.31 1545.58 1802.79 1545.58 Q1806.79 1545.58 1809.13 1543.48 Q1811.47 1541.37 1811.47 1537.76 Q1811.47 1534.15 1809.13 1532.04 Q1806.79 1529.94 1802.79 1529.94 Q1800.91 1529.94 1799.04 1530.35 Q1797.18 1530.77 1795.24 1531.65 L1795.24 1514.29 Z" fill="#000000" fill-rule="nonzero" fill-opacity="1" /><path clip-path="url(#clip050)" d="M2258.76 1544.91 L2266.4 1544.91 L2266.4 1518.55 L2258.09 1520.21 L2258.09 1515.95 L2266.36 1514.29 L2271.03 1514.29 L2271.03 1544.91 L2278.67 1544.91 L2278.67 1548.85 L2258.76 1548.85 L2258.76 1544.91 Z" fill="#000000" fill-rule="nonzero" fill-opacity="1" /><path clip-path="url(#clip050)" d="M2288.12 1542.97 L2293 1542.97 L2293 1548.85 L2288.12 1548.85 L2288.12 1542.97 Z" fill="#000000" fill-rule="nonzero" fill-opacity="1" /><path clip-path="url(#clip050)" d="M2313.19 1517.37 Q2309.57 1517.37 2307.75 1520.93 Q2305.94 1524.47 2305.94 1531.6 Q2305.94 1538.71 2307.75 1542.27 Q2309.57 1545.82 2313.19 1545.82 Q2316.82 1545.82 2318.63 1542.27 Q2320.45 1538.71 2320.45 1531.6 Q2320.45 1524.47 2318.63 1520.93 Q2316.82 1517.37 2313.19 1517.37 M2313.19 1513.66 Q2319 1513.66 2322.05 1518.27 Q2325.13 1522.85 2325.13 1531.6 Q2325.13 1540.33 2322.05 1544.94 Q2319 1549.52 2313.19 1549.52 Q2307.38 1549.52 2304.3 1544.94 Q2301.24 1540.33 2301.24 1531.6 Q2301.24 1522.85 2304.3 1518.27 Q2307.38 1513.66 2313.19 1513.66 Z" fill="#000000" fill-rule="nonzero" fill-opacity="1" /><polyline clip-path="url(#clip052)" style="stroke:#000000; stroke-linecap:round; stroke-linejoin:round; stroke-width:2; stroke-opacity:0.1; fill:none" points="192.339,1379.42 2352.76,1379.42 "/>
<polyline clip-path="url(#clip052)" style="stroke:#000000; stroke-linecap:round; stroke-linejoin:round; stroke-width:2; stroke-opacity:0.1; fill:none" points="192.339,1204.7 2352.76,1204.7 "/>
<polyline clip-path="url(#clip052)" style="stroke:#000000; stroke-linecap:round; stroke-linejoin:round; stroke-width:2; stroke-opacity:0.1; fill:none" points="192.339,1029.98 2352.76,1029.98 "/>
<polyline clip-path="url(#clip052)" style="stroke:#000000; stroke-linecap:round; stroke-linejoin:round; stroke-width:2; stroke-opacity:0.1; fill:none" points="192.339,855.265 2352.76,855.265 "/>
<polyline clip-path="url(#clip052)" style="stroke:#000000; stroke-linecap:round; stroke-linejoin:round; stroke-width:2; stroke-opacity:0.1; fill:none" points="192.339,680.547 2352.76,680.547 "/>
<polyline clip-path="url(#clip052)" style="stroke:#000000; stroke-linecap:round; stroke-linejoin:round; stroke-width:2; stroke-opacity:0.1; fill:none" points="192.339,505.828 2352.76,505.828 "/>
<polyline clip-path="url(#clip052)" style="stroke:#000000; stroke-linecap:round; stroke-linejoin:round; stroke-width:2; stroke-opacity:0.1; fill:none" points="192.339,331.11 2352.76,331.11 "/>
<polyline clip-path="url(#clip052)" style="stroke:#000000; stroke-linecap:round; stroke-linejoin:round; stroke-width:2; stroke-opacity:0.1; fill:none" points="192.339,156.392 2352.76,156.392 "/>
<polyline clip-path="url(#clip050)" style="stroke:#000000; stroke-linecap:round; stroke-linejoin:round; stroke-width:4; stroke-opacity:1; fill:none" points="192.339,1486.45 192.339,47.2441 "/>
<polyline clip-path="url(#clip050)" style="stroke:#000000; stroke-linecap:round; stroke-linejoin:round; stroke-width:4; stroke-opacity:1; fill:none" points="192.339,1379.42 211.236,1379.42 "/>
<polyline clip-path="url(#clip050)" style="stroke:#000000; stroke-linecap:round; stroke-linejoin:round; stroke-width:4; stroke-opacity:1; fill:none" points="192.339,1204.7 211.236,1204.7 "/>
<polyline clip-path="url(#clip050)" style="stroke:#000000; stroke-linecap:round; stroke-linejoin:round; stroke-width:4; stroke-opacity:1; fill:none" points="192.339,1029.98 211.236,1029.98 "/>
<polyline clip-path="url(#clip050)" style="stroke:#000000; stroke-linecap:round; stroke-linejoin:round; stroke-width:4; stroke-opacity:1; fill:none" points="192.339,855.265 211.236,855.265 "/>
<polyline clip-path="url(#clip050)" style="stroke:#000000; stroke-linecap:round; stroke-linejoin:round; stroke-width:4; stroke-opacity:1; fill:none" points="192.339,680.547 211.236,680.547 "/>
<polyline clip-path="url(#clip050)" style="stroke:#000000; stroke-linecap:round; stroke-linejoin:round; stroke-width:4; stroke-opacity:1; fill:none" points="192.339,505.828 211.236,505.828 "/>
<polyline clip-path="url(#clip050)" style="stroke:#000000; stroke-linecap:round; stroke-linejoin:round; stroke-width:4; stroke-opacity:1; fill:none" points="192.339,331.11 211.236,331.11 "/>
<polyline clip-path="url(#clip050)" style="stroke:#000000; stroke-linecap:round; stroke-linejoin:round; stroke-width:4; stroke-opacity:1; fill:none" points="192.339,156.392 211.236,156.392 "/>
<path clip-path="url(#clip050)" d="M50.9921 1379.87 L80.6679 1379.87 L80.6679 1383.81 L50.9921 1383.81 L50.9921 1379.87 Z" fill="#000000" fill-rule="nonzero" fill-opacity="1" /><path clip-path="url(#clip050)" d="M100.76 1365.22 Q97.1493 1365.22 95.3206 1368.78 Q93.515 1372.33 93.515 1379.45 Q93.515 1386.56 95.3206 1390.13 Q97.1493 1393.67 100.76 1393.67 Q104.395 1393.67 106.2 1390.13 Q108.029 1386.56 108.029 1379.45 Q108.029 1372.33 106.2 1368.78 Q104.395 1365.22 100.76 1365.22 M100.76 1361.52 Q106.571 1361.52 109.626 1366.12 Q112.705 1370.7 112.705 1379.45 Q112.705 1388.18 109.626 1392.79 Q106.571 1397.37 100.76 1397.37 Q94.9502 1397.37 91.8715 1392.79 Q88.816 1388.18 88.816 1379.45 Q88.816 1370.7 91.8715 1366.12 Q94.9502 1361.52 100.76 1361.52 Z" fill="#000000" fill-rule="nonzero" fill-opacity="1" /><path clip-path="url(#clip050)" d="M120.922 1390.82 L125.807 1390.82 L125.807 1396.7 L120.922 1396.7 L120.922 1390.82 Z" fill="#000000" fill-rule="nonzero" fill-opacity="1" /><path clip-path="url(#clip050)" d="M140.019 1392.77 L156.339 1392.77 L156.339 1396.7 L134.394 1396.7 L134.394 1392.77 Q137.056 1390.01 141.64 1385.38 Q146.246 1380.73 147.427 1379.39 Q149.672 1376.86 150.552 1375.13 Q151.455 1373.37 151.455 1371.68 Q151.455 1368.92 149.51 1367.19 Q147.589 1365.45 144.487 1365.45 Q142.288 1365.45 139.834 1366.21 Q137.404 1366.98 134.626 1368.53 L134.626 1363.81 Q137.45 1362.67 139.904 1362.09 Q142.357 1361.52 144.394 1361.52 Q149.765 1361.52 152.959 1364.2 Q156.154 1366.89 156.154 1371.38 Q156.154 1373.51 155.343 1375.43 Q154.556 1377.33 152.45 1379.92 Q151.871 1380.59 148.769 1383.81 Q145.668 1387 140.019 1392.77 Z" fill="#000000" fill-rule="nonzero" fill-opacity="1" /><path clip-path="url(#clip050)" d="M99.1632 1190.5 Q95.5521 1190.5 93.7234 1194.07 Q91.9178 1197.61 91.9178 1204.74 Q91.9178 1211.84 93.7234 1215.41 Q95.5521 1218.95 99.1632 1218.95 Q102.797 1218.95 104.603 1215.41 Q106.432 1211.84 106.432 1204.74 Q106.432 1197.61 104.603 1194.07 Q102.797 1190.5 99.1632 1190.5 M99.1632 1186.8 Q104.973 1186.8 108.029 1191.4 Q111.108 1195.99 111.108 1204.74 Q111.108 1213.46 108.029 1218.07 Q104.973 1222.65 99.1632 1222.65 Q93.353 1222.65 90.2743 1218.07 Q87.2188 1213.46 87.2188 1204.74 Q87.2188 1195.99 90.2743 1191.4 Q93.353 1186.8 99.1632 1186.8 Z" fill="#000000" fill-rule="nonzero" fill-opacity="1" /><path clip-path="url(#clip050)" d="M119.325 1216.1 L124.209 1216.1 L124.209 1221.98 L119.325 1221.98 L119.325 1216.1 Z" fill="#000000" fill-rule="nonzero" fill-opacity="1" /><path clip-path="url(#clip050)" d="M144.394 1190.5 Q140.783 1190.5 138.955 1194.07 Q137.149 1197.61 137.149 1204.74 Q137.149 1211.84 138.955 1215.41 Q140.783 1218.95 144.394 1218.95 Q148.029 1218.95 149.834 1215.41 Q151.663 1211.84 151.663 1204.74 Q151.663 1197.61 149.834 1194.07 Q148.029 1190.5 144.394 1190.5 M144.394 1186.8 Q150.205 1186.8 153.26 1191.4 Q156.339 1195.99 156.339 1204.74 Q156.339 1213.46 153.26 1218.07 Q150.205 1222.65 144.394 1222.65 Q138.584 1222.65 135.506 1218.07 Q132.45 1213.46 132.45 1204.74 Q132.45 1195.99 135.506 1191.4 Q138.584 1186.8 144.394 1186.8 Z" fill="#000000" fill-rule="nonzero" fill-opacity="1" /><path clip-path="url(#clip050)" d="M100.76 1015.78 Q97.1493 1015.78 95.3206 1019.35 Q93.515 1022.89 93.515 1030.02 Q93.515 1037.12 95.3206 1040.69 Q97.1493 1044.23 100.76 1044.23 Q104.395 1044.23 106.2 1040.69 Q108.029 1037.12 108.029 1030.02 Q108.029 1022.89 106.2 1019.35 Q104.395 1015.78 100.76 1015.78 M100.76 1012.08 Q106.571 1012.08 109.626 1016.68 Q112.705 1021.27 112.705 1030.02 Q112.705 1038.74 109.626 1043.35 Q106.571 1047.93 100.76 1047.93 Q94.9502 1047.93 91.8715 1043.35 Q88.816 1038.74 88.816 1030.02 Q88.816 1021.27 91.8715 1016.68 Q94.9502 1012.08 100.76 1012.08 Z" fill="#000000" fill-rule="nonzero" fill-opacity="1" /><path clip-path="url(#clip050)" d="M120.922 1041.38 L125.807 1041.38 L125.807 1047.26 L120.922 1047.26 L120.922 1041.38 Z" fill="#000000" fill-rule="nonzero" fill-opacity="1" /><path clip-path="url(#clip050)" d="M140.019 1043.33 L156.339 1043.33 L156.339 1047.26 L134.394 1047.26 L134.394 1043.33 Q137.056 1040.57 141.64 1035.94 Q146.246 1031.29 147.427 1029.95 Q149.672 1027.43 150.552 1025.69 Q151.455 1023.93 151.455 1022.24 Q151.455 1019.49 149.51 1017.75 Q147.589 1016.01 144.487 1016.01 Q142.288 1016.01 139.834 1016.78 Q137.404 1017.54 134.626 1019.09 L134.626 1014.37 Q137.45 1013.24 139.904 1012.66 Q142.357 1012.08 144.394 1012.08 Q149.765 1012.08 152.959 1014.76 Q156.154 1017.45 156.154 1021.94 Q156.154 1024.07 155.343 1025.99 Q154.556 1027.89 152.45 1030.48 Q151.871 1031.15 148.769 1034.37 Q145.668 1037.56 140.019 1043.33 Z" fill="#000000" fill-rule="nonzero" fill-opacity="1" /><path clip-path="url(#clip050)" d="M98.6771 841.064 Q95.066 841.064 93.2373 844.629 Q91.4317 848.17 91.4317 855.3 Q91.4317 862.406 93.2373 865.971 Q95.066 869.513 98.6771 869.513 Q102.311 869.513 104.117 865.971 Q105.946 862.406 105.946 855.3 Q105.946 848.17 104.117 844.629 Q102.311 841.064 98.6771 841.064 M98.6771 837.36 Q104.487 837.36 107.543 841.967 Q110.621 846.55 110.621 855.3 Q110.621 864.027 107.543 868.633 Q104.487 873.216 98.6771 873.216 Q92.8669 873.216 89.7882 868.633 Q86.7327 864.027 86.7327 855.3 Q86.7327 846.55 89.7882 841.967 Q92.8669 837.36 98.6771 837.36 Z" fill="#000000" fill-rule="nonzero" fill-opacity="1" /><path clip-path="url(#clip050)" d="M118.839 866.665 L123.723 866.665 L123.723 872.545 L118.839 872.545 L118.839 866.665 Z" fill="#000000" fill-rule="nonzero" fill-opacity="1" /><path clip-path="url(#clip050)" d="M146.756 842.059 L134.95 860.508 L146.756 860.508 L146.756 842.059 M145.529 837.985 L151.408 837.985 L151.408 860.508 L156.339 860.508 L156.339 864.397 L151.408 864.397 L151.408 872.545 L146.756 872.545 L146.756 864.397 L131.154 864.397 L131.154 859.883 L145.529 837.985 Z" fill="#000000" fill-rule="nonzero" fill-opacity="1" /><path clip-path="url(#clip050)" d="M99.0011 666.345 Q95.39 666.345 93.5613 669.91 Q91.7558 673.452 91.7558 680.581 Q91.7558 687.688 93.5613 691.253 Q95.39 694.794 99.0011 694.794 Q102.635 694.794 104.441 691.253 Q106.27 687.688 106.27 680.581 Q106.27 673.452 104.441 669.91 Q102.635 666.345 99.0011 666.345 M99.0011 662.642 Q104.811 662.642 107.867 667.248 Q110.946 671.831 110.946 680.581 Q110.946 689.308 107.867 693.915 Q104.811 698.498 99.0011 698.498 Q93.191 698.498 90.1123 693.915 Q87.0567 689.308 87.0567 680.581 Q87.0567 671.831 90.1123 667.248 Q93.191 662.642 99.0011 662.642 Z" fill="#000000" fill-rule="nonzero" fill-opacity="1" /><path clip-path="url(#clip050)" d="M119.163 691.947 L124.047 691.947 L124.047 697.827 L119.163 697.827 L119.163 691.947 Z" fill="#000000" fill-rule="nonzero" fill-opacity="1" /><path clip-path="url(#clip050)" d="M144.811 678.683 Q141.663 678.683 139.811 680.836 Q137.982 682.989 137.982 686.739 Q137.982 690.466 139.811 692.642 Q141.663 694.794 144.811 694.794 Q147.959 694.794 149.788 692.642 Q151.64 690.466 151.64 686.739 Q151.64 682.989 149.788 680.836 Q147.959 678.683 144.811 678.683 M154.093 664.031 L154.093 668.29 Q152.334 667.456 150.529 667.017 Q148.746 666.577 146.987 666.577 Q142.357 666.577 139.904 669.702 Q137.473 672.827 137.126 679.146 Q138.492 677.132 140.552 676.068 Q142.612 674.98 145.089 674.98 Q150.297 674.98 153.306 678.151 Q156.339 681.299 156.339 686.739 Q156.339 692.063 153.191 695.28 Q150.043 698.498 144.811 698.498 Q138.816 698.498 135.644 693.915 Q132.473 689.308 132.473 680.581 Q132.473 672.387 136.362 667.526 Q140.251 662.642 146.802 662.642 Q148.561 662.642 150.343 662.989 Q152.149 663.336 154.093 664.031 Z" fill="#000000" fill-rule="nonzero" fill-opacity="1" /><path clip-path="url(#clip050)" d="M99.2558 491.627 Q95.6447 491.627 93.816 495.192 Q92.0104 498.733 92.0104 505.863 Q92.0104 512.969 93.816 516.534 Q95.6447 520.076 99.2558 520.076 Q102.89 520.076 104.696 516.534 Q106.524 512.969 106.524 505.863 Q106.524 498.733 104.696 495.192 Q102.89 491.627 99.2558 491.627 M99.2558 487.923 Q105.066 487.923 108.121 492.53 Q111.2 497.113 111.2 505.863 Q111.2 514.59 108.121 519.196 Q105.066 523.78 99.2558 523.78 Q93.4456 523.78 90.3669 519.196 Q87.3114 514.59 87.3114 505.863 Q87.3114 497.113 90.3669 492.53 Q93.4456 487.923 99.2558 487.923 Z" fill="#000000" fill-rule="nonzero" fill-opacity="1" /><path clip-path="url(#clip050)" d="M119.418 517.229 L124.302 517.229 L124.302 523.108 L119.418 523.108 L119.418 517.229 Z" fill="#000000" fill-rule="nonzero" fill-opacity="1" /><path clip-path="url(#clip050)" d="M144.487 506.696 Q141.154 506.696 139.232 508.479 Q137.334 510.261 137.334 513.386 Q137.334 516.511 139.232 518.294 Q141.154 520.076 144.487 520.076 Q147.82 520.076 149.742 518.294 Q151.663 516.488 151.663 513.386 Q151.663 510.261 149.742 508.479 Q147.843 506.696 144.487 506.696 M139.811 504.706 Q136.802 503.965 135.112 501.905 Q133.445 499.845 133.445 496.882 Q133.445 492.738 136.385 490.331 Q139.348 487.923 144.487 487.923 Q149.649 487.923 152.589 490.331 Q155.529 492.738 155.529 496.882 Q155.529 499.845 153.839 501.905 Q152.172 503.965 149.186 504.706 Q152.566 505.493 154.441 507.784 Q156.339 510.076 156.339 513.386 Q156.339 518.409 153.26 521.094 Q150.205 523.78 144.487 523.78 Q138.769 523.78 135.691 521.094 Q132.635 518.409 132.635 513.386 Q132.635 510.076 134.533 507.784 Q136.431 505.493 139.811 504.706 M138.098 497.321 Q138.098 500.007 139.765 501.511 Q141.455 503.016 144.487 503.016 Q147.496 503.016 149.186 501.511 Q150.899 500.007 150.899 497.321 Q150.899 494.636 149.186 493.132 Q147.496 491.627 144.487 491.627 Q141.455 491.627 139.765 493.132 Q138.098 494.636 138.098 497.321 Z" fill="#000000" fill-rule="nonzero" fill-opacity="1" /><path clip-path="url(#clip050)" d="M89.9734 344.455 L97.6122 344.455 L97.6122 318.089 L89.3021 319.756 L89.3021 315.497 L97.566 313.83 L102.242 313.83 L102.242 344.455 L109.881 344.455 L109.881 348.39 L89.9734 348.39 L89.9734 344.455 Z" fill="#000000" fill-rule="nonzero" fill-opacity="1" /><path clip-path="url(#clip050)" d="M119.325 342.51 L124.209 342.51 L124.209 348.39 L119.325 348.39 L119.325 342.51 Z" fill="#000000" fill-rule="nonzero" fill-opacity="1" /><path clip-path="url(#clip050)" d="M144.394 316.909 Q140.783 316.909 138.955 320.473 Q137.149 324.015 137.149 331.145 Q137.149 338.251 138.955 341.816 Q140.783 345.358 144.394 345.358 Q148.029 345.358 149.834 341.816 Q151.663 338.251 151.663 331.145 Q151.663 324.015 149.834 320.473 Q148.029 316.909 144.394 316.909 M144.394 313.205 Q150.205 313.205 153.26 317.811 Q156.339 322.395 156.339 331.145 Q156.339 339.871 153.26 344.478 Q150.205 349.061 144.394 349.061 Q138.584 349.061 135.506 344.478 Q132.45 339.871 132.45 331.145 Q132.45 322.395 135.506 317.811 Q138.584 313.205 144.394 313.205 Z" fill="#000000" fill-rule="nonzero" fill-opacity="1" /><path clip-path="url(#clip050)" d="M91.5706 169.736 L99.2095 169.736 L99.2095 143.371 L90.8993 145.037 L90.8993 140.778 L99.1632 139.112 L103.839 139.112 L103.839 169.736 L111.478 169.736 L111.478 173.672 L91.5706 173.672 L91.5706 169.736 Z" fill="#000000" fill-rule="nonzero" fill-opacity="1" /><path clip-path="url(#clip050)" d="M120.922 167.792 L125.807 167.792 L125.807 173.672 L120.922 173.672 L120.922 167.792 Z" fill="#000000" fill-rule="nonzero" fill-opacity="1" /><path clip-path="url(#clip050)" d="M140.019 169.736 L156.339 169.736 L156.339 173.672 L134.394 173.672 L134.394 169.736 Q137.056 166.982 141.64 162.352 Q146.246 157.699 147.427 156.357 Q149.672 153.834 150.552 152.098 Q151.455 150.338 151.455 148.649 Q151.455 145.894 149.51 144.158 Q147.589 142.422 144.487 142.422 Q142.288 142.422 139.834 143.186 Q137.404 143.949 134.626 145.5 L134.626 140.778 Q137.45 139.644 139.904 139.065 Q142.357 138.487 144.394 138.487 Q149.765 138.487 152.959 141.172 Q156.154 143.857 156.154 148.348 Q156.154 150.477 155.343 152.399 Q154.556 154.297 152.45 156.889 Q151.871 157.561 148.769 160.778 Q145.668 163.973 140.019 169.736 Z" fill="#000000" fill-rule="nonzero" fill-opacity="1" /><polyline clip-path="url(#clip052)" style="stroke:#009af9; stroke-linecap:round; stroke-linejoin:round; stroke-width:16; stroke-opacity:1; fill:none" stroke-dasharray="8, 16" points="253.483,1073.49 263.725,1006.44 273.966,976.756 284.208,988.434 294.45,1027.31 304.692,1065.64 314.934,1078.65 325.176,1071.01 335.418,1074.09 345.659,1110.77 355.901,1169.27 366.143,1208.83 376.385,1196.95 386.627,1147.37 396.869,1122.73 407.111,1181.84 417.352,1288.32 427.594,1350.56 437.836,1360.54 448.078,1367.84 458.32,1377.49 468.562,1363.52 478.803,1337.88 489.045,1334.22 499.287,1349.64 509.529,1354 519.771,1328.99 530.013,1288.16 540.255,1261.77 550.497,1242.03 560.738,1201.71 570.98,1160.64 581.222,1137.79 591.464,1120.38 601.706,1099.25 611.948,1079.6 622.19,1058.54 632.431,1027.9 642.673,989.019 652.915,970.682 663.157,1001.39 673.399,1067.32 683.641,1126.55 693.882,1149.24 704.124,1136.72 714.366,1116.99 724.608,1123.26 734.85,1161.05 745.092,1210.07 755.334,1259.4 765.575,1304.51 775.817,1335.46 786.059,1349.29 796.301,1346.81 806.543,1307.51 816.785,1253.66 827.027,1286.7 837.268,1392.09 847.51,1445.72 857.752,1416.91 867.994,1359.08 878.236,1313.67 888.478,1276.45 898.72,1230.44 908.961,1194.11 919.203,1198.41 929.445,1206.88 939.687,1154.9 949.929,1087.14 960.171,1081.83 970.413,1099.34 980.654,1077.06 990.896,1036.5 1001.14,1028.68 1011.38,1055.27 1021.62,1079.89 1031.86,1084.36 1042.11,1071.54 1052.35,1046.03 1062.59,1035.34 1072.83,1076.38 1083.07,1158.12 1093.31,1221.79 1103.56,1241.51 1113.8,1256.74 1124.04,1290.05 1134.28,1311.87 1144.52,1311.53 1154.77,1325.56 1165.01,1361.83 1175.25,1387.23 1185.49,1388.94 1195.73,1376.68 1205.98,1363.56 1216.22,1360.11 1226.46,1369.29 1236.7,1376.63 1246.94,1331.49 1257.18,1148.08 1267.43,809.934 1277.67,493.825 1287.91,348.603 1298.15,330.019 1308.39,355.466 1318.64,371.415 1328.88,361.542 1339.12,335.25 1349.36,308.227 1359.6,293.184 1369.84,297.529 1380.09,322.786 1390.33,355.798 1400.57,363.45 1410.81,339.468 1421.05,324.786 1431.3,337.515 1441.54,352.967 1451.78,360.512 1462.02,379.15 1472.26,404.137 1482.51,399.098 1492.75,343.595 1502.99,266.255 1513.23,220.308 1523.47,227.398 1533.71,278.842 1543.96,351.457 1554.2,404.696 1564.44,413.977 1574.68,400.57 1584.92,384.672 1595.17,330.847 1605.41,230.72 1615.65,183.61 1625.89,239.056 1636.13,317.192 1646.38,352.625 1656.62,362.672 1666.86,379.614 1677.1,400.918 1687.34,403.645 1697.58,384.024 1707.83,375.56 1718.07,384.48 1728.31,345.264 1738.55,260.354 1748.79,212.613 1759.04,225.757 1769.28,278.634 1779.52,350.681 1789.76,417.776 1800,454.774 1810.24,452.212 1820.49,420.803 1830.73,366.846 1840.97,291.53 1851.21,215.354 1861.45,170.596 1871.7,179.596 1881.94,241.745 1892.18,330.988 1902.42,414.536 1912.66,472.254 1922.91,482.363 1933.15,435.203 1943.39,367.267 1953.63,312.914 1963.87,265.362 1974.11,204.291 1984.36,145.212 1994.6,156.127 2004.84,267.238 2015.08,397.257 2025.32,476.691 2035.57,515.924 2045.81,531.05 2056.05,508.157 2066.29,424.064 2076.53,296.144 2086.77,194.371 2097.02,152.292 2107.26,136.61 2117.5,161.29 2127.74,296.195 2137.98,507.131 2148.23,652.277 2158.47,647.358 2168.71,525.747 2178.95,368.876 2189.19,240.829 2199.44,167.35 2209.68,141.807 2219.92,145.895 2230.16,173.401 2240.4,233.769 2250.64,327.338 2260.89,433.407 2271.13,523.742 2281.37,569.685 2291.61,548.454 "/>
<polyline clip-path="url(#clip052)" style="stroke:#e26f46; stroke-linecap:round; stroke-linejoin:round; stroke-width:4; stroke-opacity:1; fill:none" points="253.483,1073.49 263.725,1054.87 273.966,1041.15 284.208,1032.76 294.45,1029.98 304.692,1032.91 314.934,1041.44 325.176,1055.3 335.418,1074.04 345.659,1097.04 355.901,1123.56 366.143,1152.72 376.385,1183.58 386.627,1215.13 396.869,1246.34 407.111,1276.19 417.352,1303.71 427.594,1327.99 437.836,1348.25 448.078,1363.83 458.32,1374.21 468.562,1379.06 478.803,1378.22 489.045,1371.72 499.287,1359.77 509.529,1342.75 519.771,1321.23 530.013,1295.91 540.255,1267.61 550.497,1237.25 560.738,1205.84 570.98,1174.38 581.222,1143.92 591.464,1115.44 601.706,1089.87 611.948,1068.05 622.19,1050.7 632.431,1038.36 642.673,1031.46 652.915,1030.21 663.157,1034.65 673.399,1044.65 683.641,1059.87 693.882,1079.81 704.124,1103.84 714.366,1131.15 724.608,1160.86 734.85,1192.01 745.092,1223.57 755.334,1254.51 765.575,1283.83 775.817,1310.57 786.059,1333.85 796.301,1352.91 806.543,1367.14 816.785,1376.07 827.027,1379.4 837.268,1377.03 847.51,1369.04 857.752,1355.68 867.994,1337.4 878.236,1314.79 888.478,1288.58 898.72,1259.63 908.961,1228.9 919.203,1197.37 929.445,1166.08 939.687,1136.05 949.929,1108.27 960.171,1083.63 970.413,1062.94 980.654,1046.88 990.896,1035.97 1001.14,1030.56 1011.38,1030.84 1021.62,1036.8 1031.86,1048.23 1042.11,1064.77 1052.35,1085.88 1062.59,1110.87 1072.83,1138.92 1083.07,1169.11 1093.31,1200.47 1103.56,1231.96 1113.8,1262.57 1124.04,1291.28 1134.28,1317.18 1144.52,1339.4 1154.77,1357.22 1165.01,1370.07 1175.25,1377.52 1185.49,1379.32 1195.73,1375.43 1205.98,1365.97 1216.22,1351.25 1226.46,1331.74 1236.7,1308.08 1246.94,1281.05 1257.18,1251.53 1267.43,1220.48 1277.67,329.841 1287.91,328.397 1298.15,329.711 1308.39,334.086 1318.64,340.18 1328.88,345.419 1339.12,346.971 1349.36,342.94 1359.6,333.33 1369.84,320.375 1380.09,308.048 1390.33,300.846 1400.57,302.228 1410.81,313.215 1421.05,331.697 1431.3,352.73 1441.54,369.857 1451.78,377.082 1462.02,370.898 1472.26,351.708 1482.51,324.107 1492.75,295.821 1502.99,275.548 1513.23,270.296 1523.47,283.027 1533.71,311.391 1543.96,348.023 1554.2,382.433 1564.44,404.015 1574.68,405.293 1584.92,384.443 1595.17,346.232 1605.41,301 1615.65,261.874 1625.89,240.958 1636.13,245.609 1646.38,275.932 1656.62,324.34 1666.86,377.408 1677.1,419.591 1687.34,437.778 1697.58,425.341 1707.83,384.446 1718.07,325.83 1728.31,266.015 1738.55,222.643 1748.79,209.286 1759.04,231.219 1769.28,283.497 1779.52,351.983 1789.76,417.155 1800,459.675 1810.24,466.115 1820.49,433.169 1830.73,369.017 1840.97,291.348 1851.21,222.487 1861.45,182.982 1871.7,185.479 1881.94,230.717 1892.18,306.894 1902.42,392.72 1912.66,463.356 1922.91,497.608 1933.15,484.27 1943.39,425.74 1953.63,337.741 1963.87,245.117 1974.11,174.824 1984.36,148.085 1994.6,173.997 2004.84,246.51 2015.08,345.766 2025.32,443.523 2035.57,511.189 2045.81,528.186 2056.05,488.182 2066.29,401.336 2076.53,291.753 2086.77,190.81 2097.02,128.166 2107.26,123.056 2117.5,178.407 2127.74,279.576 2137.98,398.201 2148.23,500.139 2158.47,555.299 2168.71,546.517 2178.95,474.864 2189.19,359.757 2199.44,233.717 2209.68,133.183 2219.92,87.9763 2230.16,112.466 2240.4,201.042 2250.64,329.316 2260.89,460.825 2271.13,557.399 2281.37,590.227 2291.61,548.453 "/>
<path clip-path="url(#clip050)" d="M264.353 250.738 L707.222 250.738 L707.222 95.2176 L264.353 95.2176  Z" fill="#ffffff" fill-rule="evenodd" fill-opacity="1"/>
<polyline clip-path="url(#clip050)" style="stroke:#000000; stroke-linecap:round; stroke-linejoin:round; stroke-width:4; stroke-opacity:1; fill:none" points="264.353,250.738 707.222,250.738 707.222,95.2176 264.353,95.2176 264.353,250.738 "/>
<polyline clip-path="url(#clip050)" style="stroke:#009af9; stroke-linecap:round; stroke-linejoin:round; stroke-width:16; stroke-opacity:1; fill:none" stroke-dasharray="8, 16" points="288.357,147.058 432.385,147.058 "/>
<path clip-path="url(#clip050)" d="M461.066 133.62 L461.066 146.606 L466.945 146.606 Q470.209 146.606 471.992 144.916 Q473.774 143.227 473.774 140.102 Q473.774 137 471.992 135.31 Q470.209 133.62 466.945 133.62 L461.066 133.62 M456.39 129.778 L466.945 129.778 Q472.755 129.778 475.718 132.416 Q478.704 135.032 478.704 140.102 Q478.704 145.217 475.718 147.833 Q472.755 150.449 466.945 150.449 L461.066 150.449 L461.066 164.338 L456.39 164.338 L456.39 129.778 Z" fill="#000000" fill-rule="nonzero" fill-opacity="1" /><path clip-path="url(#clip050)" d="M498.982 142.393 Q498.265 141.977 497.408 141.791 Q496.575 141.583 495.556 141.583 Q491.945 141.583 490.001 143.944 Q488.079 146.282 488.079 150.68 L488.079 164.338 L483.797 164.338 L483.797 138.412 L488.079 138.412 L488.079 142.44 Q489.422 140.078 491.575 138.944 Q493.728 137.787 496.806 137.787 Q497.246 137.787 497.778 137.856 Q498.311 137.903 498.959 138.018 L498.982 142.393 Z" fill="#000000" fill-rule="nonzero" fill-opacity="1" /><path clip-path="url(#clip050)" d="M524.584 150.31 L524.584 152.393 L505.001 152.393 Q505.278 156.791 507.639 159.106 Q510.024 161.398 514.26 161.398 Q516.714 161.398 519.005 160.796 Q521.32 160.194 523.588 158.99 L523.588 163.018 Q521.297 163.99 518.889 164.5 Q516.482 165.009 514.005 165.009 Q507.802 165.009 504.167 161.398 Q500.556 157.787 500.556 151.629 Q500.556 145.264 503.982 141.537 Q507.431 137.787 513.264 137.787 Q518.496 137.787 521.528 141.166 Q524.584 144.523 524.584 150.31 M520.325 149.06 Q520.278 145.565 518.357 143.481 Q516.459 141.398 513.311 141.398 Q509.746 141.398 507.593 143.412 Q505.464 145.426 505.14 149.083 L520.325 149.06 Z" fill="#000000" fill-rule="nonzero" fill-opacity="1" /><path clip-path="url(#clip050)" d="M548.635 142.347 L548.635 128.319 L552.894 128.319 L552.894 164.338 L548.635 164.338 L548.635 160.449 Q547.292 162.763 545.232 163.898 Q543.195 165.009 540.325 165.009 Q535.625 165.009 532.663 161.259 Q529.723 157.509 529.723 151.398 Q529.723 145.287 532.663 141.537 Q535.625 137.787 540.325 137.787 Q543.195 137.787 545.232 138.921 Q547.292 140.032 548.635 142.347 M534.121 151.398 Q534.121 156.097 536.042 158.782 Q537.987 161.444 541.366 161.444 Q544.746 161.444 546.69 158.782 Q548.635 156.097 548.635 151.398 Q548.635 146.699 546.69 144.037 Q544.746 141.352 541.366 141.352 Q537.987 141.352 536.042 144.037 Q534.121 146.699 534.121 151.398 Z" fill="#000000" fill-rule="nonzero" fill-opacity="1" /><path clip-path="url(#clip050)" d="M561.667 138.412 L565.926 138.412 L565.926 164.338 L561.667 164.338 L561.667 138.412 M561.667 128.319 L565.926 128.319 L565.926 133.713 L561.667 133.713 L561.667 128.319 Z" fill="#000000" fill-rule="nonzero" fill-opacity="1" /><path clip-path="url(#clip050)" d="M593.496 139.407 L593.496 143.389 Q591.69 142.393 589.861 141.907 Q588.056 141.398 586.204 141.398 Q582.06 141.398 579.769 144.037 Q577.477 146.652 577.477 151.398 Q577.477 156.143 579.769 158.782 Q582.06 161.398 586.204 161.398 Q588.056 161.398 589.861 160.912 Q591.69 160.402 593.496 159.407 L593.496 163.342 Q591.713 164.176 589.792 164.592 Q587.894 165.009 585.741 165.009 Q579.884 165.009 576.435 161.328 Q572.986 157.648 572.986 151.398 Q572.986 145.055 576.459 141.421 Q579.954 137.787 586.019 137.787 Q587.986 137.787 589.861 138.203 Q591.736 138.597 593.496 139.407 Z" fill="#000000" fill-rule="nonzero" fill-opacity="1" /><path clip-path="url(#clip050)" d="M605.116 131.051 L605.116 138.412 L613.889 138.412 L613.889 141.722 L605.116 141.722 L605.116 155.796 Q605.116 158.967 605.972 159.87 Q606.852 160.773 609.514 160.773 L613.889 160.773 L613.889 164.338 L609.514 164.338 Q604.583 164.338 602.708 162.509 Q600.833 160.657 600.833 155.796 L600.833 141.722 L597.708 141.722 L597.708 138.412 L600.833 138.412 L600.833 131.051 L605.116 131.051 Z" fill="#000000" fill-rule="nonzero" fill-opacity="1" /><path clip-path="url(#clip050)" d="M619.491 138.412 L623.75 138.412 L623.75 164.338 L619.491 164.338 L619.491 138.412 M619.491 128.319 L623.75 128.319 L623.75 133.713 L619.491 133.713 L619.491 128.319 Z" fill="#000000" fill-rule="nonzero" fill-opacity="1" /><path clip-path="url(#clip050)" d="M642.708 141.398 Q639.282 141.398 637.292 144.083 Q635.301 146.745 635.301 151.398 Q635.301 156.051 637.268 158.736 Q639.259 161.398 642.708 161.398 Q646.111 161.398 648.102 158.713 Q650.092 156.027 650.092 151.398 Q650.092 146.791 648.102 144.106 Q646.111 141.398 642.708 141.398 M642.708 137.787 Q648.264 137.787 651.435 141.398 Q654.606 145.009 654.606 151.398 Q654.606 157.764 651.435 161.398 Q648.264 165.009 642.708 165.009 Q637.13 165.009 633.958 161.398 Q630.81 157.764 630.81 151.398 Q630.81 145.009 633.958 141.398 Q637.13 137.787 642.708 137.787 Z" fill="#000000" fill-rule="nonzero" fill-opacity="1" /><path clip-path="url(#clip050)" d="M683.217 148.689 L683.217 164.338 L678.958 164.338 L678.958 148.828 Q678.958 145.148 677.523 143.319 Q676.088 141.49 673.217 141.49 Q669.768 141.49 667.778 143.69 Q665.787 145.889 665.787 149.685 L665.787 164.338 L661.504 164.338 L661.504 138.412 L665.787 138.412 L665.787 142.44 Q667.315 140.102 669.375 138.944 Q671.458 137.787 674.166 137.787 Q678.634 137.787 680.926 140.565 Q683.217 143.319 683.217 148.689 Z" fill="#000000" fill-rule="nonzero" fill-opacity="1" /><polyline clip-path="url(#clip050)" style="stroke:#e26f46; stroke-linecap:round; stroke-linejoin:round; stroke-width:4; stroke-opacity:1; fill:none" points="288.357,198.898 432.385,198.898 "/>
<path clip-path="url(#clip050)" d="M456.39 181.618 L478.242 181.618 L478.242 185.553 L461.066 185.553 L461.066 195.784 L477.524 195.784 L477.524 199.719 L461.066 199.719 L461.066 212.242 L478.658 212.242 L478.658 216.178 L456.39 216.178 L456.39 181.618 Z" fill="#000000" fill-rule="nonzero" fill-opacity="1" /><path clip-path="url(#clip050)" d="M507.709 190.252 L498.334 202.867 L508.195 216.178 L503.172 216.178 L495.626 205.992 L488.079 216.178 L483.056 216.178 L493.126 202.613 L483.913 190.252 L488.936 190.252 L495.811 199.488 L502.686 190.252 L507.709 190.252 Z" fill="#000000" fill-rule="nonzero" fill-opacity="1" /><path clip-path="url(#clip050)" d="M525.996 203.145 Q520.834 203.145 518.843 204.326 Q516.852 205.506 516.852 208.354 Q516.852 210.622 518.334 211.965 Q519.838 213.284 522.408 213.284 Q525.95 213.284 528.079 210.784 Q530.232 208.261 530.232 204.094 L530.232 203.145 L525.996 203.145 M534.491 201.386 L534.491 216.178 L530.232 216.178 L530.232 212.242 Q528.774 214.603 526.598 215.738 Q524.422 216.849 521.274 216.849 Q517.292 216.849 514.931 214.627 Q512.593 212.381 512.593 208.631 Q512.593 204.256 515.51 202.034 Q518.45 199.812 524.26 199.812 L530.232 199.812 L530.232 199.395 Q530.232 196.455 528.288 194.858 Q526.366 193.238 522.871 193.238 Q520.649 193.238 518.542 193.77 Q516.436 194.303 514.491 195.367 L514.491 191.432 Q516.829 190.53 519.028 190.09 Q521.227 189.627 523.311 189.627 Q528.936 189.627 531.713 192.543 Q534.491 195.46 534.491 201.386 Z" fill="#000000" fill-rule="nonzero" fill-opacity="1" /><path clip-path="url(#clip050)" d="M561.922 191.247 L561.922 195.229 Q560.116 194.233 558.287 193.747 Q556.482 193.238 554.63 193.238 Q550.486 193.238 548.195 195.877 Q545.903 198.492 545.903 203.238 Q545.903 207.983 548.195 210.622 Q550.486 213.238 554.63 213.238 Q556.482 213.238 558.287 212.752 Q560.116 212.242 561.922 211.247 L561.922 215.182 Q560.139 216.016 558.218 216.432 Q556.32 216.849 554.167 216.849 Q548.311 216.849 544.862 213.168 Q541.412 209.488 541.412 203.238 Q541.412 196.895 544.885 193.261 Q548.38 189.627 554.445 189.627 Q556.412 189.627 558.287 190.043 Q560.162 190.437 561.922 191.247 Z" fill="#000000" fill-rule="nonzero" fill-opacity="1" /><path clip-path="url(#clip050)" d="M573.542 182.891 L573.542 190.252 L582.315 190.252 L582.315 193.562 L573.542 193.562 L573.542 207.636 Q573.542 210.807 574.398 211.71 Q575.278 212.613 577.94 212.613 L582.315 212.613 L582.315 216.178 L577.94 216.178 Q573.01 216.178 571.135 214.349 Q569.26 212.497 569.26 207.636 L569.26 193.562 L566.135 193.562 L566.135 190.252 L569.26 190.252 L569.26 182.891 L573.542 182.891 Z" fill="#000000" fill-rule="nonzero" fill-opacity="1" /></svg>
