<?xml version="1.0" encoding="utf-8"?>
<svg xmlns="http://www.w3.org/2000/svg" xmlns:xlink="http://www.w3.org/1999/xlink" width="600" height="400" viewBox="0 0 2400 1600">
<defs>
  <clipPath id="clip080">
    <rect x="0" y="0" width="2400" height="1600"/>
  </clipPath>
</defs>
<path clip-path="url(#clip080)" d="M0 1600 L2400 1600 L2400 0 L0 0  Z" fill="#ffffff" fill-rule="evenodd" fill-opacity="1"/>
<defs>
  <clipPath id="clip081">
    <rect x="480" y="0" width="1681" height="1600"/>
  </clipPath>
</defs>
<path clip-path="url(#clip080)" d="M156.274 1486.45 L2352.76 1486.45 L2352.76 47.2441 L156.274 47.2441  Z" fill="#ffffff" fill-rule="evenodd" fill-opacity="1"/>
<defs>
  <clipPath id="clip082">
    <rect x="156" y="47" width="2197" height="1440"/>
  </clipPath>
</defs>
<polyline clip-path="url(#clip082)" style="stroke:#000000; stroke-linecap:round; stroke-linejoin:round; stroke-width:2; stroke-opacity:0.1; fill:none" points="218.439,1486.45 218.439,47.2441 "/>
<polyline clip-path="url(#clip082)" style="stroke:#000000; stroke-linecap:round; stroke-linejoin:round; stroke-width:2; stroke-opacity:0.1; fill:none" points="736.477,1486.45 736.477,47.2441 "/>
<polyline clip-path="url(#clip082)" style="stroke:#000000; stroke-linecap:round; stroke-linejoin:round; stroke-width:2; stroke-opacity:0.1; fill:none" points="1254.52,1486.45 1254.52,47.2441 "/>
<polyline clip-path="url(#clip082)" style="stroke:#000000; stroke-linecap:round; stroke-linejoin:round; stroke-width:2; stroke-opacity:0.1; fill:none" points="1772.55,1486.45 1772.55,47.2441 "/>
<polyline clip-path="url(#clip082)" style="stroke:#000000; stroke-linecap:round; stroke-linejoin:round; stroke-width:2; stroke-opacity:0.1; fill:none" points="2290.59,1486.45 2290.59,47.2441 "/>
<polyline clip-path="url(#clip080)" style="stroke:#000000; stroke-linecap:round; stroke-linejoin:round; stroke-width:4; stroke-opacity:1; fill:none" points="156.274,1486.45 2352.76,1486.45 "/>
<polyline clip-path="url(#clip080)" style="stroke:#000000; stroke-linecap:round; stroke-linejoin:round; stroke-width:4; stroke-opacity:1; fill:none" points="218.439,1486.45 218.439,1467.55 "/>
<polyline clip-path="url(#clip080)" style="stroke:#000000; stroke-linecap:round; stroke-linejoin:round; stroke-width:4; stroke-opacity:1; fill:none" points="736.477,1486.45 736.477,1467.55 "/>
<polyline clip-path="url(#clip080)" style="stroke:#000000; stroke-linecap:round; stroke-linejoin:round; stroke-width:4; stroke-opacity:1; fill:none" points="1254.52,1486.45 1254.52,1467.55 "/>
<polyline clip-path="url(#clip080)" style="stroke:#000000; stroke-linecap:round; stroke-linejoin:round; stroke-width:4; stroke-opacity:1; fill:none" points="1772.55,1486.45 1772.55,1467.55 "/>
<polyline clip-path="url(#clip080)" style="stroke:#000000; stroke-linecap:round; stroke-linejoin:round; stroke-width:4; stroke-opacity:1; fill:none" points="2290.59,1486.45 2290.59,1467.55 "/>
<path clip-path="url(#clip080)" d="M164.967 1532.02 L194.643 1532.02 L194.643 1535.95 L164.967 1535.95 L164.967 1532.02 Z" fill="#000000" fill-rule="nonzero" fill-opacity="1" /><path clip-path="url(#clip080)" d="M205.545 1544.91 L213.184 1544.91 L213.184 1518.55 L204.874 1520.21 L204.874 1515.95 L213.138 1514.29 L217.814 1514.29 L217.814 1544.91 L225.453 1544.91 L225.453 1548.85 L205.545 1548.85 L205.545 1544.91 Z" fill="#000000" fill-rule="nonzero" fill-opacity="1" /><path clip-path="url(#clip080)" d="M234.897 1542.97 L239.781 1542.97 L239.781 1548.85 L234.897 1548.85 L234.897 1542.97 Z" fill="#000000" fill-rule="nonzero" fill-opacity="1" /><path clip-path="url(#clip080)" d="M259.966 1517.37 Q256.355 1517.37 254.527 1520.93 Q252.721 1524.47 252.721 1531.6 Q252.721 1538.71 254.527 1542.27 Q256.355 1545.82 259.966 1545.82 Q263.601 1545.82 265.406 1542.27 Q267.235 1538.71 267.235 1531.6 Q267.235 1524.47 265.406 1520.93 Q263.601 1517.37 259.966 1517.37 M259.966 1513.66 Q265.776 1513.66 268.832 1518.27 Q271.911 1522.85 271.911 1531.6 Q271.911 1540.33 268.832 1544.94 Q265.776 1549.52 259.966 1549.52 Q254.156 1549.52 251.077 1544.94 Q248.022 1540.33 248.022 1531.6 Q248.022 1522.85 251.077 1518.27 Q254.156 1513.66 259.966 1513.66 Z" fill="#000000" fill-rule="nonzero" fill-opacity="1" /><path clip-path="url(#clip080)" d="M683.503 1532.02 L713.178 1532.02 L713.178 1535.95 L683.503 1535.95 L683.503 1532.02 Z" fill="#000000" fill-rule="nonzero" fill-opacity="1" /><path clip-path="url(#clip080)" d="M733.271 1517.37 Q729.66 1517.37 727.831 1520.93 Q726.026 1524.47 726.026 1531.6 Q726.026 1538.71 727.831 1542.27 Q729.66 1545.82 733.271 1545.82 Q736.905 1545.82 738.711 1542.27 Q740.539 1538.71 740.539 1531.6 Q740.539 1524.47 738.711 1520.93 Q736.905 1517.37 733.271 1517.37 M733.271 1513.66 Q739.081 1513.66 742.137 1518.27 Q745.215 1522.85 745.215 1531.6 Q745.215 1540.33 742.137 1544.94 Q739.081 1549.52 733.271 1549.52 Q727.461 1549.52 724.382 1544.94 Q721.327 1540.33 721.327 1531.6 Q721.327 1522.85 724.382 1518.27 Q727.461 1513.66 733.271 1513.66 Z" fill="#000000" fill-rule="nonzero" fill-opacity="1" /><path clip-path="url(#clip080)" d="M753.433 1542.97 L758.317 1542.97 L758.317 1548.85 L753.433 1548.85 L753.433 1542.97 Z" fill="#000000" fill-rule="nonzero" fill-opacity="1" /><path clip-path="url(#clip080)" d="M768.548 1514.29 L786.905 1514.29 L786.905 1518.22 L772.831 1518.22 L772.831 1526.7 Q773.849 1526.35 774.868 1526.19 Q775.886 1526 776.905 1526 Q782.692 1526 786.072 1529.17 Q789.451 1532.34 789.451 1537.76 Q789.451 1543.34 785.979 1546.44 Q782.507 1549.52 776.187 1549.52 Q774.011 1549.52 771.743 1549.15 Q769.498 1548.78 767.09 1548.04 L767.09 1543.34 Q769.173 1544.47 771.396 1545.03 Q773.618 1545.58 776.095 1545.58 Q780.099 1545.58 782.437 1543.48 Q784.775 1541.37 784.775 1537.76 Q784.775 1534.15 782.437 1532.04 Q780.099 1529.94 776.095 1529.94 Q774.22 1529.94 772.345 1530.35 Q770.493 1530.77 768.548 1531.65 L768.548 1514.29 Z" fill="#000000" fill-rule="nonzero" fill-opacity="1" /><path clip-path="url(#clip080)" d="M1231.9 1517.37 Q1228.29 1517.37 1226.46 1520.93 Q1224.65 1524.47 1224.65 1531.6 Q1224.65 1538.71 1226.46 1542.27 Q1228.29 1545.82 1231.9 1545.82 Q1235.53 1545.82 1237.34 1542.27 Q1239.17 1538.71 1239.17 1531.6 Q1239.17 1524.47 1237.34 1520.93 Q1235.53 1517.37 1231.9 1517.37 M1231.9 1513.66 Q1237.71 1513.66 1240.77 1518.27 Q1243.84 1522.85 1243.84 1531.6 Q1243.84 1540.33 1240.77 1544.94 Q1237.71 1549.52 1231.9 1549.52 Q1226.09 1549.52 1223.01 1544.94 Q1219.96 1540.33 1219.96 1531.6 Q1219.96 1522.85 1223.01 1518.27 Q1226.09 1513.66 1231.9 1513.66 Z" fill="#000000" fill-rule="nonzero" fill-opacity="1" /><path clip-path="url(#clip080)" d="M1252.06 1542.97 L1256.95 1542.97 L1256.95 1548.85 L1252.06 1548.85 L1252.06 1542.97 Z" fill="#000000" fill-rule="nonzero" fill-opacity="1" /><path clip-path="url(#clip080)" d="M1277.13 1517.37 Q1273.52 1517.37 1271.69 1520.93 Q1269.89 1524.47 1269.89 1531.6 Q1269.89 1538.71 1271.69 1542.27 Q1273.52 1545.82 1277.13 1545.82 Q1280.76 1545.82 1282.57 1542.27 Q1284.4 1538.71 1284.4 1531.6 Q1284.4 1524.47 1282.57 1520.93 Q1280.76 1517.37 1277.13 1517.37 M1277.13 1513.66 Q1282.94 1513.66 1286 1518.27 Q1289.08 1522.85 1289.08 1531.6 Q1289.08 1540.33 1286 1544.94 Q1282.94 1549.52 1277.13 1549.52 Q1271.32 1549.52 1268.24 1544.94 Q1265.19 1540.33 1265.19 1531.6 Q1265.19 1522.85 1268.24 1518.27 Q1271.32 1513.66 1277.13 1513.66 Z" fill="#000000" fill-rule="nonzero" fill-opacity="1" /><path clip-path="url(#clip080)" d="M1750.44 1517.37 Q1746.82 1517.37 1745 1520.93 Q1743.19 1524.47 1743.19 1531.6 Q1743.19 1538.71 1745 1542.27 Q1746.82 1545.82 1750.44 1545.82 Q1754.07 1545.82 1755.88 1542.27 Q1757.7 1538.71 1757.7 1531.6 Q1757.7 1524.47 1755.88 1520.93 Q1754.07 1517.37 1750.44 1517.37 M1750.44 1513.66 Q1756.25 1513.66 1759.3 1518.27 Q1762.38 1522.85 1762.38 1531.6 Q1762.38 1540.33 1759.3 1544.94 Q1756.25 1549.52 1750.44 1549.52 Q1744.63 1549.52 1741.55 1544.94 Q1738.49 1540.33 1738.49 1531.6 Q1738.49 1522.85 1741.55 1518.27 Q1744.63 1513.66 1750.44 1513.66 Z" fill="#000000" fill-rule="nonzero" fill-opacity="1" /><path clip-path="url(#clip080)" d="M1770.6 1542.97 L1775.48 1542.97 L1775.48 1548.85 L1770.6 1548.85 L1770.6 1542.97 Z" fill="#000000" fill-rule="nonzero" fill-opacity="1" /><path clip-path="url(#clip080)" d="M1785.71 1514.29 L1804.07 1514.29 L1804.07 1518.22 L1790 1518.22 L1790 1526.7 Q1791.01 1526.35 1792.03 1526.19 Q1793.05 1526 1794.07 1526 Q1799.86 1526 1803.24 1529.17 Q1806.62 1532.34 1806.62 1537.76 Q1806.62 1543.34 1803.14 1546.44 Q1799.67 1549.52 1793.35 1549.52 Q1791.18 1549.52 1788.91 1549.15 Q1786.66 1548.78 1784.25 1548.04 L1784.25 1543.34 Q1786.34 1544.47 1788.56 1545.03 Q1790.78 1545.58 1793.26 1545.58 Q1797.26 1545.58 1799.6 1543.48 Q1801.94 1541.37 1801.94 1537.76 Q1801.94 1534.15 1799.6 1532.04 Q1797.26 1529.94 1793.26 1529.94 Q1791.38 1529.94 1789.51 1530.35 Q1787.66 1530.77 1785.71 1531.65 L1785.71 1514.29 Z" fill="#000000" fill-rule="nonzero" fill-opacity="1" /><path clip-path="url(#clip080)" d="M2257.74 1544.91 L2265.38 1544.91 L2265.38 1518.55 L2257.07 1520.21 L2257.07 1515.95 L2265.34 1514.29 L2270.01 1514.29 L2270.01 1544.91 L2277.65 1544.91 L2277.65 1548.85 L2257.74 1548.85 L2257.74 1544.91 Z" fill="#000000" fill-rule="nonzero" fill-opacity="1" /><path clip-path="url(#clip080)" d="M2287.1 1542.97 L2291.98 1542.97 L2291.98 1548.85 L2287.1 1548.85 L2287.1 1542.97 Z" fill="#000000" fill-rule="nonzero" fill-opacity="1" /><path clip-path="url(#clip080)" d="M2312.17 1517.37 Q2308.55 1517.37 2306.73 1520.93 Q2304.92 1524.47 2304.92 1531.6 Q2304.92 1538.71 2306.73 1542.27 Q2308.55 1545.82 2312.17 1545.82 Q2315.8 1545.82 2317.61 1542.27 Q2319.43 1538.71 2319.43 1531.6 Q2319.43 1524.47 2317.61 1520.93 Q2315.8 1517.37 2312.17 1517.37 M2312.17 1513.66 Q2317.98 1513.66 2321.03 1518.27 Q2324.11 1522.85 2324.11 1531.6 Q2324.11 1540.33 2321.03 1544.94 Q2317.98 1549.52 2312.17 1549.52 Q2306.36 1549.52 2303.28 1544.94 Q2300.22 1540.33 2300.22 1531.6 Q2300.22 1522.85 2303.28 1518.27 Q2306.36 1513.66 2312.17 1513.66 Z" fill="#000000" fill-rule="nonzero" fill-opacity="1" /><polyline clip-path="url(#clip082)" style="stroke:#000000; stroke-linecap:round; stroke-linejoin:round; stroke-width:2; stroke-opacity:0.1; fill:none" points="156.274,1242.65 2352.76,1242.65 "/>
<polyline clip-path="url(#clip082)" style="stroke:#000000; stroke-linecap:round; stroke-linejoin:round; stroke-width:2; stroke-opacity:0.1; fill:none" points="156.274,971.669 2352.76,971.669 "/>
<polyline clip-path="url(#clip082)" style="stroke:#000000; stroke-linecap:round; stroke-linejoin:round; stroke-width:2; stroke-opacity:0.1; fill:none" points="156.274,700.685 2352.76,700.685 "/>
<polyline clip-path="url(#clip082)" style="stroke:#000000; stroke-linecap:round; stroke-linejoin:round; stroke-width:2; stroke-opacity:0.1; fill:none" points="156.274,429.701 2352.76,429.701 "/>
<polyline clip-path="url(#clip082)" style="stroke:#000000; stroke-linecap:round; stroke-linejoin:round; stroke-width:2; stroke-opacity:0.1; fill:none" points="156.274,158.717 2352.76,158.717 "/>
<polyline clip-path="url(#clip080)" style="stroke:#000000; stroke-linecap:round; stroke-linejoin:round; stroke-width:4; stroke-opacity:1; fill:none" points="156.274,1486.45 156.274,47.2441 "/>
<polyline clip-path="url(#clip080)" style="stroke:#000000; stroke-linecap:round; stroke-linejoin:round; stroke-width:4; stroke-opacity:1; fill:none" points="156.274,1242.65 175.172,1242.65 "/>
<polyline clip-path="url(#clip080)" style="stroke:#000000; stroke-linecap:round; stroke-linejoin:round; stroke-width:4; stroke-opacity:1; fill:none" points="156.274,971.669 175.172,971.669 "/>
<polyline clip-path="url(#clip080)" style="stroke:#000000; stroke-linecap:round; stroke-linejoin:round; stroke-width:4; stroke-opacity:1; fill:none" points="156.274,700.685 175.172,700.685 "/>
<polyline clip-path="url(#clip080)" style="stroke:#000000; stroke-linecap:round; stroke-linejoin:round; stroke-width:4; stroke-opacity:1; fill:none" points="156.274,429.701 175.172,429.701 "/>
<polyline clip-path="url(#clip080)" style="stroke:#000000; stroke-linecap:round; stroke-linejoin:round; stroke-width:4; stroke-opacity:1; fill:none" points="156.274,158.717 175.172,158.717 "/>
<path clip-path="url(#clip080)" d="M63.0985 1228.45 Q59.4875 1228.45 57.6588 1232.02 Q55.8532 1235.56 55.8532 1242.69 Q55.8532 1249.79 57.6588 1253.36 Q59.4875 1256.9 63.0985 1256.9 Q66.7328 1256.9 68.5383 1253.36 Q70.367 1249.79 70.367 1242.69 Q70.367 1235.56 68.5383 1232.02 Q66.7328 1228.45 63.0985 1228.45 M63.0985 1224.75 Q68.9087 1224.75 71.9642 1229.35 Q75.0429 1233.94 75.0429 1242.69 Q75.0429 1251.41 71.9642 1256.02 Q68.9087 1260.6 63.0985 1260.6 Q57.2884 1260.6 54.2097 1256.02 Q51.1542 1251.41 51.1542 1242.69 Q51.1542 1233.94 54.2097 1229.35 Q57.2884 1224.75 63.0985 1224.75 Z" fill="#000000" fill-rule="nonzero" fill-opacity="1" /><path clip-path="url(#clip080)" d="M83.2605 1254.05 L88.1447 1254.05 L88.1447 1259.93 L83.2605 1259.93 L83.2605 1254.05 Z" fill="#000000" fill-rule="nonzero" fill-opacity="1" /><path clip-path="url(#clip080)" d="M108.33 1228.45 Q104.719 1228.45 102.89 1232.02 Q101.084 1235.56 101.084 1242.69 Q101.084 1249.79 102.89 1253.36 Q104.719 1256.9 108.33 1256.9 Q111.964 1256.9 113.77 1253.36 Q115.598 1249.79 115.598 1242.69 Q115.598 1235.56 113.77 1232.02 Q111.964 1228.45 108.33 1228.45 M108.33 1224.75 Q114.14 1224.75 117.195 1229.35 Q120.274 1233.94 120.274 1242.69 Q120.274 1251.41 117.195 1256.02 Q114.14 1260.6 108.33 1260.6 Q102.52 1260.6 99.4409 1256.02 Q96.3854 1251.41 96.3854 1242.69 Q96.3854 1233.94 99.4409 1229.35 Q102.52 1224.75 108.33 1224.75 Z" fill="#000000" fill-rule="nonzero" fill-opacity="1" /><path clip-path="url(#clip080)" d="M63.7467 957.467 Q60.1356 957.467 58.3069 961.032 Q56.5014 964.574 56.5014 971.703 Q56.5014 978.81 58.3069 982.375 Q60.1356 985.916 63.7467 985.916 Q67.3809 985.916 69.1865 982.375 Q71.0152 978.81 71.0152 971.703 Q71.0152 964.574 69.1865 961.032 Q67.3809 957.467 63.7467 957.467 M63.7467 953.764 Q69.5568 953.764 72.6124 958.37 Q75.6911 962.954 75.6911 971.703 Q75.6911 980.43 72.6124 985.037 Q69.5568 989.62 63.7467 989.62 Q57.9365 989.62 54.8578 985.037 Q51.8023 980.43 51.8023 971.703 Q51.8023 962.954 54.8578 958.37 Q57.9365 953.764 63.7467 953.764 Z" fill="#000000" fill-rule="nonzero" fill-opacity="1" /><path clip-path="url(#clip080)" d="M83.9086 983.069 L88.7928 983.069 L88.7928 988.949 L83.9086 988.949 L83.9086 983.069 Z" fill="#000000" fill-rule="nonzero" fill-opacity="1" /><path clip-path="url(#clip080)" d="M113.145 970.315 Q116.501 971.032 118.376 973.301 Q120.274 975.569 120.274 978.903 Q120.274 984.018 116.756 986.819 Q113.237 989.62 106.756 989.62 Q104.58 989.62 102.265 989.18 Q99.9733 988.764 97.5197 987.907 L97.5197 983.393 Q99.4641 984.527 101.779 985.106 Q104.094 985.685 106.617 985.685 Q111.015 985.685 113.307 983.949 Q115.621 982.213 115.621 978.903 Q115.621 975.847 113.469 974.134 Q111.339 972.398 107.52 972.398 L103.492 972.398 L103.492 968.555 L107.705 968.555 Q111.154 968.555 112.983 967.19 Q114.811 965.801 114.811 963.208 Q114.811 960.546 112.913 959.134 Q111.038 957.699 107.52 957.699 Q105.598 957.699 103.399 958.116 Q101.2 958.532 98.5613 959.412 L98.5613 955.245 Q101.223 954.504 103.538 954.134 Q105.876 953.764 107.936 953.764 Q113.26 953.764 116.362 956.194 Q119.464 958.602 119.464 962.722 Q119.464 965.592 117.82 967.583 Q116.177 969.551 113.145 970.315 Z" fill="#000000" fill-rule="nonzero" fill-opacity="1" /><path clip-path="url(#clip080)" d="M62.9365 686.483 Q59.3254 686.483 57.4967 690.048 Q55.6912 693.59 55.6912 700.719 Q55.6912 707.826 57.4967 711.391 Q59.3254 714.932 62.9365 714.932 Q66.5707 714.932 68.3763 711.391 Q70.205 707.826 70.205 700.719 Q70.205 693.59 68.3763 690.048 Q66.5707 686.483 62.9365 686.483 M62.9365 682.78 Q68.7467 682.78 71.8022 687.386 Q74.8809 691.969 74.8809 700.719 Q74.8809 709.446 71.8022 714.053 Q68.7467 718.636 62.9365 718.636 Q57.1264 718.636 54.0477 714.053 Q50.9921 709.446 50.9921 700.719 Q50.9921 691.969 54.0477 687.386 Q57.1264 682.78 62.9365 682.78 Z" fill="#000000" fill-rule="nonzero" fill-opacity="1" /><path clip-path="url(#clip080)" d="M83.0984 712.085 L87.9827 712.085 L87.9827 717.965 L83.0984 717.965 L83.0984 712.085 Z" fill="#000000" fill-rule="nonzero" fill-opacity="1" /><path clip-path="url(#clip080)" d="M108.746 698.821 Q105.598 698.821 103.746 700.974 Q101.918 703.127 101.918 706.877 Q101.918 710.604 103.746 712.78 Q105.598 714.932 108.746 714.932 Q111.895 714.932 113.723 712.78 Q115.575 710.604 115.575 706.877 Q115.575 703.127 113.723 700.974 Q111.895 698.821 108.746 698.821 M118.029 684.169 L118.029 688.428 Q116.27 687.594 114.464 687.155 Q112.682 686.715 110.922 686.715 Q106.293 686.715 103.839 689.84 Q101.409 692.965 101.061 699.284 Q102.427 697.27 104.487 696.206 Q106.547 695.118 109.024 695.118 Q114.233 695.118 117.242 698.289 Q120.274 701.437 120.274 706.877 Q120.274 712.201 117.126 715.418 Q113.978 718.636 108.746 718.636 Q102.751 718.636 99.5798 714.053 Q96.4085 709.446 96.4085 700.719 Q96.4085 692.525 100.297 687.664 Q104.186 682.78 110.737 682.78 Q112.496 682.78 114.279 683.127 Q116.084 683.474 118.029 684.169 Z" fill="#000000" fill-rule="nonzero" fill-opacity="1" /><path clip-path="url(#clip080)" d="M63.2837 415.499 Q59.6726 415.499 57.8439 419.064 Q56.0384 422.606 56.0384 429.735 Q56.0384 436.842 57.8439 440.407 Q59.6726 443.948 63.2837 443.948 Q66.918 443.948 68.7235 440.407 Q70.5522 436.842 70.5522 429.735 Q70.5522 422.606 68.7235 419.064 Q66.918 415.499 63.2837 415.499 M63.2837 411.796 Q69.0939 411.796 72.1494 416.402 Q75.2281 420.985 75.2281 429.735 Q75.2281 438.462 72.1494 443.069 Q69.0939 447.652 63.2837 447.652 Q57.4736 447.652 54.3949 443.069 Q51.3393 438.462 51.3393 429.735 Q51.3393 420.985 54.3949 416.402 Q57.4736 411.796 63.2837 411.796 Z" fill="#000000" fill-rule="nonzero" fill-opacity="1" /><path clip-path="url(#clip080)" d="M83.4457 441.101 L88.3299 441.101 L88.3299 446.981 L83.4457 446.981 L83.4457 441.101 Z" fill="#000000" fill-rule="nonzero" fill-opacity="1" /><path clip-path="url(#clip080)" d="M98.6539 446.263 L98.6539 442.004 Q100.413 442.837 102.219 443.277 Q104.024 443.717 105.76 443.717 Q110.39 443.717 112.82 440.615 Q115.274 437.49 115.621 431.147 Q114.279 433.138 112.219 434.203 Q110.158 435.268 107.658 435.268 Q102.473 435.268 99.4409 432.143 Q96.4317 428.995 96.4317 423.555 Q96.4317 418.231 99.5798 415.013 Q102.728 411.796 107.959 411.796 Q113.955 411.796 117.103 416.402 Q120.274 420.985 120.274 429.735 Q120.274 437.907 116.385 442.791 Q112.52 447.652 105.969 447.652 Q104.209 447.652 102.404 447.305 Q100.598 446.957 98.6539 446.263 M107.959 431.61 Q111.108 431.61 112.936 429.458 Q114.788 427.305 114.788 423.555 Q114.788 419.828 112.936 417.675 Q111.108 415.499 107.959 415.499 Q104.811 415.499 102.959 417.675 Q101.131 419.828 101.131 423.555 Q101.131 427.305 102.959 429.458 Q104.811 431.61 107.959 431.61 Z" fill="#000000" fill-rule="nonzero" fill-opacity="1" /><path clip-path="url(#clip080)" d="M55.506 172.061 L63.1448 172.061 L63.1448 145.696 L54.8347 147.362 L54.8347 143.103 L63.0985 141.437 L67.7744 141.437 L67.7744 172.061 L75.4133 172.061 L75.4133 175.997 L55.506 175.997 L55.506 172.061 Z" fill="#000000" fill-rule="nonzero" fill-opacity="1" /><path clip-path="url(#clip080)" d="M84.8577 170.117 L89.7419 170.117 L89.7419 175.997 L84.8577 175.997 L84.8577 170.117 Z" fill="#000000" fill-rule="nonzero" fill-opacity="1" /><path clip-path="url(#clip080)" d="M103.955 172.061 L120.274 172.061 L120.274 175.997 L98.3298 175.997 L98.3298 172.061 Q100.992 169.307 105.575 164.677 Q110.182 160.024 111.362 158.682 Q113.608 156.159 114.487 154.423 Q115.39 152.663 115.39 150.974 Q115.39 148.219 113.445 146.483 Q111.524 144.747 108.422 144.747 Q106.223 144.747 103.77 145.511 Q101.339 146.275 98.5613 147.825 L98.5613 143.103 Q101.385 141.969 103.839 141.39 Q106.293 140.812 108.33 140.812 Q113.7 140.812 116.895 143.497 Q120.089 146.182 120.089 150.673 Q120.089 152.802 119.279 154.724 Q118.492 156.622 116.385 159.214 Q115.807 159.886 112.705 163.103 Q109.603 166.298 103.955 172.061 Z" fill="#000000" fill-rule="nonzero" fill-opacity="1" /><polyline clip-path="url(#clip082)" style="stroke:#009af9; stroke-linecap:round; stroke-linejoin:round; stroke-width:16; stroke-opacity:1; fill:none" stroke-dasharray="8, 16" points="218.439,1107.03 228.852,1072.5 239.264,1052.27 249.677,1049.19 260.09,1060.82 270.503,1079.48 280.916,1095.98 291.329,1105.21 301.741,1109.87 312.154,1118.64 322.567,1139.76 332.98,1174.95 343.393,1218.4 353.805,1261.07 364.218,1296.59 374.631,1324.09 385.044,1346.57 395.457,1367.17 405.87,1386.75 416.282,1404.01 426.695,1416.95 437.108,1423.93 447.521,1424.11 457.934,1417.32 468.347,1403.96 478.759,1384.95 489.172,1361.56 499.585,1335.13 509.998,1306.7 520.411,1276.78 530.824,1245.44 541.236,1213.03 551.649,1180.64 562.062,1150.1 572.475,1123.16 582.888,1100.8 593.301,1083.15 603.713,1070.27 614.126,1062.67 624.539,1061.23 634.952,1066.52 645.365,1078.11 655.777,1094.83 666.19,1115.35 676.603,1138.93 687.016,1165.51 697.429,1195.21 707.842,1227.69 718.254,1261.71 728.667,1295.26 739.08,1326.21 749.493,1353.16 759.906,1375.85 770.319,1394.89 780.731,1410.5 791.144,1421.44 801.557,1425.44 811.97,1421.54 822.383,1411.78 832.796,1398.81 843.208,1381.32 853.621,1355.3 864.034,1321.74 874.447,1288.34 884.86,1260.68 895.273,1236.34 905.685,1209.67 916.098,1178.61 926.511,1145.73 936.924,1115.41 947.337,1091.22 957.749,1074.88 968.162,1066.35 978.575,1064.51 988.988,1067.89 999.401,1075.34 1009.81,1086.22 1020.23,1100.5 1030.64,1118.51 1041.05,1140.65 1051.46,1167.13 1061.88,1197.73 1072.29,1231.75 1082.7,1267.96 1093.12,1304.61 1103.53,1339.47 1113.94,1369.98 1124.35,1393.55 1134.77,1408.12 1145.18,1412.87 1155.59,1409.12 1166.01,1400.91 1176.42,1395.04 1186.83,1399.27 1197.24,1417.72 1207.66,1442.64 1218.07,1445.72 1228.48,1377.79 1238.9,1194.6 1249.31,909.469 1259.72,611.73 1270.13,399.764 1280.55,307.006 1290.96,301.743 1301.37,330.081 1311.79,352.923 1322.2,357.125 1332.61,346.605 1343.02,330.574 1353.44,317.13 1363.85,311.167 1374.26,314.128 1384.68,324.58 1395.09,339.226 1405.5,354.082 1415.91,365.499 1426.33,370.833 1436.74,368.805 1447.15,359.603 1457.57,344.835 1467.98,327.35 1478.39,310.888 1488.8,299.483 1499.22,296.637 1509.63,304.359 1520.04,322.331 1530.45,347.51 1540.87,374.405 1551.28,396.054 1561.69,405.572 1572.11,397.95 1582.52,371.79 1592.93,330.665 1603.34,283.821 1613.76,245.759 1624.17,233.246 1634.58,257.798 1645,315.812 1655.41,386.289 1665.82,442.491 1676.23,465.818 1686.65,449.23 1697.06,396.334 1707.47,322.703 1717.89,253.176 1728.3,211.651 1738.71,210.476 1749.12,247.046 1759.54,307.775 1769.95,374.772 1780.36,431.2 1790.78,464.173 1801.19,466.009 1811.6,435.007 1822.01,376.341 1832.43,302.694 1842.84,233.323 1853.25,189.959 1863.67,189.393 1874.08,235.578 1884.49,316.155 1894.9,406.264 1905.32,477.739 1915.73,508.896 1926.14,491.01 1936.56,429.885 1946.97,342.973 1957.38,253.874 1967.79,186.33 1978.21,158.939 1988.62,180.826 1999.03,248.61 2009.45,345.835 2019.86,446.264 2030.27,520.902 2040.68,546.457 2051.1,512.289 2061.51,424.337 2071.92,305.492 2082.33,191.055 2092.75,117.971 2103.16,111.045 2113.57,173.883 2123.99,288.851 2134.4,422.673 2144.81,534.063 2155.22,585.35 2165.64,558.144 2176.05,463.351 2186.46,335.672 2196.88,216.505 2207.29,138.266 2217.7,117.309 2228.11,153.594 2238.53,233.597 2248.94,335.282 2259.35,434.639 2269.77,511.994 2280.18,555.946 2290.59,564.106 "/>
<polyline clip-path="url(#clip082)" style="stroke:#e26f46; stroke-linecap:round; stroke-linejoin:round; stroke-width:4; stroke-opacity:1; fill:none" points="218.439,1106.98 228.852,1087.73 239.264,1073.54 249.677,1064.87 260.09,1062 270.503,1065.02 280.916,1073.85 291.329,1088.18 301.741,1107.55 312.154,1131.33 322.567,1158.75 332.98,1188.91 343.393,1220.81 353.805,1253.44 364.218,1285.71 374.631,1316.57 385.044,1345.02 395.457,1370.13 405.87,1391.08 416.282,1407.19 426.695,1417.93 437.108,1422.94 447.521,1422.07 457.934,1415.35 468.347,1402.99 478.759,1385.39 489.172,1363.14 499.585,1336.96 509.998,1307.69 520.411,1276.31 530.824,1243.83 541.236,1211.3 551.649,1179.81 562.062,1150.36 572.475,1123.92 582.888,1101.36 593.301,1083.41 603.713,1070.66 614.126,1063.52 624.539,1062.23 634.952,1066.83 645.365,1077.16 655.777,1092.9 666.19,1113.52 676.603,1138.36 687.016,1166.6 697.429,1197.33 707.842,1229.53 718.254,1262.16 728.667,1294.16 739.08,1324.47 749.493,1352.11 759.906,1376.19 770.319,1395.9 780.731,1410.61 791.144,1419.84 801.557,1423.29 811.97,1420.84 822.383,1412.58 832.796,1398.77 843.208,1379.86 853.621,1356.48 864.034,1329.38 874.447,1299.45 884.86,1267.67 895.273,1235.07 905.685,1202.72 916.098,1171.67 926.511,1142.94 936.924,1117.46 947.337,1096.07 957.749,1079.47 968.162,1068.18 978.575,1062.6 988.988,1062.89 999.401,1069.04 1009.81,1080.87 1020.23,1097.97 1030.64,1119.79 1041.05,1145.63 1051.46,1174.63 1061.88,1205.85 1072.29,1238.27 1082.7,1270.84 1093.12,1302.49 1103.53,1332.18 1113.94,1358.95 1124.35,1381.92 1134.77,1400.35 1145.18,1413.64 1155.59,1421.34 1166.01,1423.21 1176.42,1419.19 1186.83,1409.4 1197.24,1394.18 1207.66,1374.01 1218.07,1349.55 1228.48,1321.6 1238.9,1291.08 1249.31,1258.97 1259.72,338.061 1270.13,336.568 1280.55,337.927 1290.96,342.45 1301.37,348.751 1311.79,354.168 1322.2,355.772 1332.61,351.604 1343.02,341.668 1353.44,328.273 1363.85,315.527 1374.26,308.08 1384.68,309.509 1395.09,320.87 1405.5,339.979 1415.91,361.727 1426.33,379.437 1436.74,386.907 1447.15,380.513 1457.57,360.671 1467.98,332.132 1478.39,302.884 1488.8,281.922 1499.22,276.492 1509.63,289.656 1520.04,318.984 1530.45,356.86 1540.87,392.44 1551.28,414.755 1561.69,416.077 1572.11,394.518 1582.52,355.008 1592.93,308.239 1603.34,267.784 1613.76,246.157 1624.17,250.966 1634.58,282.319 1645,332.373 1655.41,387.244 1665.82,430.861 1676.23,449.666 1686.65,436.806 1697.06,394.521 1707.47,333.913 1717.89,272.065 1728.3,227.22 1738.71,213.409 1749.12,236.087 1759.54,290.142 1769.95,360.955 1780.36,428.342 1790.78,472.307 1801.19,478.966 1811.6,444.9 1822.01,378.568 1832.43,298.259 1842.84,227.058 1853.25,186.211 1863.67,188.793 1874.08,235.568 1884.49,314.334 1894.9,403.076 1905.32,476.113 1915.73,511.529 1926.14,497.738 1936.56,437.219 1946.97,346.229 1957.38,250.457 1967.79,177.775 1978.21,150.128 1988.62,176.921 1999.03,251.898 2009.45,354.527 2019.86,455.606 2030.27,525.572 2040.68,543.146 2051.1,501.783 2061.51,411.985 2071.92,298.678 2082.33,194.305 2092.75,129.532 2103.16,124.249 2113.57,181.48 2123.99,286.088 2134.4,408.743 2144.81,514.146 2155.22,571.181 2165.64,562.1 2176.05,488.012 2186.46,368.993 2196.88,238.67 2207.29,134.719 2217.7,87.9763 2228.11,113.299 2238.53,204.884 2248.94,337.518 2259.35,473.496 2269.77,573.351 2280.18,607.295 2290.59,564.102 "/>
<path clip-path="url(#clip080)" d="M229.49 250.738 L675.966 250.738 L675.966 95.2176 L229.49 95.2176  Z" fill="#ffffff" fill-rule="evenodd" fill-opacity="1"/>
<polyline clip-path="url(#clip080)" style="stroke:#000000; stroke-linecap:round; stroke-linejoin:round; stroke-width:4; stroke-opacity:1; fill:none" points="229.49,250.738 675.966,250.738 675.966,95.2176 229.49,95.2176 229.49,250.738 "/>
<polyline clip-path="url(#clip080)" style="stroke:#009af9; stroke-linecap:round; stroke-linejoin:round; stroke-width:16; stroke-opacity:1; fill:none" stroke-dasharray="8, 16" points="253.896,147.058 400.328,147.058 "/>
<path clip-path="url(#clip080)" d="M429.409 133.62 L429.409 146.606 L435.289 146.606 Q438.552 146.606 440.335 144.916 Q442.117 143.227 442.117 140.102 Q442.117 137 440.335 135.31 Q438.552 133.62 435.289 133.62 L429.409 133.62 M424.733 129.778 L435.289 129.778 Q441.099 129.778 444.062 132.416 Q447.048 135.032 447.048 140.102 Q447.048 145.217 444.062 147.833 Q441.099 150.449 435.289 150.449 L429.409 150.449 L429.409 164.338 L424.733 164.338 L424.733 129.778 Z" fill="#000000" fill-rule="nonzero" fill-opacity="1" /><path clip-path="url(#clip080)" d="M467.325 142.393 Q466.608 141.977 465.751 141.791 Q464.918 141.583 463.899 141.583 Q460.288 141.583 458.344 143.944 Q456.423 146.282 456.423 150.68 L456.423 164.338 L452.14 164.338 L452.14 138.412 L456.423 138.412 L456.423 142.44 Q457.765 140.078 459.918 138.944 Q462.071 137.787 465.149 137.787 Q465.589 137.787 466.122 137.856 Q466.654 137.903 467.302 138.018 L467.325 142.393 Z" fill="#000000" fill-rule="nonzero" fill-opacity="1" /><path clip-path="url(#clip080)" d="M492.927 150.31 L492.927 152.393 L473.344 152.393 Q473.622 156.791 475.983 159.106 Q478.367 161.398 482.603 161.398 Q485.057 161.398 487.348 160.796 Q489.663 160.194 491.932 158.99 L491.932 163.018 Q489.64 163.99 487.233 164.5 Q484.825 165.009 482.348 165.009 Q476.145 165.009 472.511 161.398 Q468.899 157.787 468.899 151.629 Q468.899 145.264 472.325 141.537 Q475.774 137.787 481.608 137.787 Q486.839 137.787 489.872 141.166 Q492.927 144.523 492.927 150.31 M488.668 149.06 Q488.622 145.565 486.7 143.481 Q484.802 141.398 481.654 141.398 Q478.089 141.398 475.936 143.412 Q473.807 145.426 473.483 149.083 L488.668 149.06 Z" fill="#000000" fill-rule="nonzero" fill-opacity="1" /><path clip-path="url(#clip080)" d="M516.978 142.347 L516.978 128.319 L521.237 128.319 L521.237 164.338 L516.978 164.338 L516.978 160.449 Q515.635 162.763 513.575 163.898 Q511.538 165.009 508.668 165.009 Q503.969 165.009 501.006 161.259 Q498.066 157.509 498.066 151.398 Q498.066 145.287 501.006 141.537 Q503.969 137.787 508.668 137.787 Q511.538 137.787 513.575 138.921 Q515.635 140.032 516.978 142.347 M502.464 151.398 Q502.464 156.097 504.385 158.782 Q506.33 161.444 509.709 161.444 Q513.089 161.444 515.033 158.782 Q516.978 156.097 516.978 151.398 Q516.978 146.699 515.033 144.037 Q513.089 141.352 509.709 141.352 Q506.33 141.352 504.385 144.037 Q502.464 146.699 502.464 151.398 Z" fill="#000000" fill-rule="nonzero" fill-opacity="1" /><path clip-path="url(#clip080)" d="M530.01 138.412 L534.269 138.412 L534.269 164.338 L530.01 164.338 L530.01 138.412 M530.01 128.319 L534.269 128.319 L534.269 133.713 L530.01 133.713 L530.01 128.319 Z" fill="#000000" fill-rule="nonzero" fill-opacity="1" /><path clip-path="url(#clip080)" d="M561.839 139.407 L561.839 143.389 Q560.033 142.393 558.205 141.907 Q556.399 141.398 554.547 141.398 Q550.404 141.398 548.112 144.037 Q545.82 146.652 545.82 151.398 Q545.82 156.143 548.112 158.782 Q550.404 161.398 554.547 161.398 Q556.399 161.398 558.205 160.912 Q560.033 160.402 561.839 159.407 L561.839 163.342 Q560.056 164.176 558.135 164.592 Q556.237 165.009 554.084 165.009 Q548.228 165.009 544.779 161.328 Q541.33 157.648 541.33 151.398 Q541.33 145.055 544.802 141.421 Q548.297 137.787 554.362 137.787 Q556.33 137.787 558.205 138.203 Q560.08 138.597 561.839 139.407 Z" fill="#000000" fill-rule="nonzero" fill-opacity="1" /><path clip-path="url(#clip080)" d="M573.459 131.051 L573.459 138.412 L582.232 138.412 L582.232 141.722 L573.459 141.722 L573.459 155.796 Q573.459 158.967 574.316 159.87 Q575.195 160.773 577.857 160.773 L582.232 160.773 L582.232 164.338 L577.857 164.338 Q572.927 164.338 571.052 162.509 Q569.177 160.657 569.177 155.796 L569.177 141.722 L566.052 141.722 L566.052 138.412 L569.177 138.412 L569.177 131.051 L573.459 131.051 Z" fill="#000000" fill-rule="nonzero" fill-opacity="1" /><path clip-path="url(#clip080)" d="M587.834 138.412 L592.093 138.412 L592.093 164.338 L587.834 164.338 L587.834 138.412 M587.834 128.319 L592.093 128.319 L592.093 133.713 L587.834 133.713 L587.834 128.319 Z" fill="#000000" fill-rule="nonzero" fill-opacity="1" /><path clip-path="url(#clip080)" d="M611.051 141.398 Q607.626 141.398 605.635 144.083 Q603.644 146.745 603.644 151.398 Q603.644 156.051 605.612 158.736 Q607.602 161.398 611.051 161.398 Q614.454 161.398 616.445 158.713 Q618.436 156.027 618.436 151.398 Q618.436 146.791 616.445 144.106 Q614.454 141.398 611.051 141.398 M611.051 137.787 Q616.607 137.787 619.778 141.398 Q622.95 145.009 622.95 151.398 Q622.95 157.764 619.778 161.398 Q616.607 165.009 611.051 165.009 Q605.473 165.009 602.302 161.398 Q599.153 157.764 599.153 151.398 Q599.153 145.009 602.302 141.398 Q605.473 137.787 611.051 137.787 Z" fill="#000000" fill-rule="nonzero" fill-opacity="1" /><path clip-path="url(#clip080)" d="M651.561 148.689 L651.561 164.338 L647.301 164.338 L647.301 148.828 Q647.301 145.148 645.866 143.319 Q644.431 141.49 641.561 141.49 Q638.112 141.49 636.121 143.69 Q634.13 145.889 634.13 149.685 L634.13 164.338 L629.848 164.338 L629.848 138.412 L634.13 138.412 L634.13 142.44 Q635.658 140.102 637.718 138.944 Q639.801 137.787 642.51 137.787 Q646.977 137.787 649.269 140.565 Q651.561 143.319 651.561 148.689 Z" fill="#000000" fill-rule="nonzero" fill-opacity="1" /><polyline clip-path="url(#clip080)" style="stroke:#e26f46; stroke-linecap:round; stroke-linejoin:round; stroke-width:4; stroke-opacity:1; fill:none" points="253.896,198.898 400.328,198.898 "/>
<path clip-path="url(#clip080)" d="M424.733 181.618 L446.585 181.618 L446.585 185.553 L429.409 185.553 L429.409 195.784 L445.867 195.784 L445.867 199.719 L429.409 199.719 L429.409 212.242 L447.001 212.242 L447.001 216.178 L424.733 216.178 L424.733 181.618 Z" fill="#000000" fill-rule="nonzero" fill-opacity="1" /><path clip-path="url(#clip080)" d="M476.052 190.252 L466.677 202.867 L476.538 216.178 L471.515 216.178 L463.969 205.992 L456.423 216.178 L451.4 216.178 L461.469 202.613 L452.256 190.252 L457.279 190.252 L464.154 199.488 L471.029 190.252 L476.052 190.252 Z" fill="#000000" fill-rule="nonzero" fill-opacity="1" /><path clip-path="url(#clip080)" d="M494.339 203.145 Q489.177 203.145 487.186 204.326 Q485.196 205.506 485.196 208.354 Q485.196 210.622 486.677 211.965 Q488.182 213.284 490.751 213.284 Q494.293 213.284 496.422 210.784 Q498.575 208.261 498.575 204.094 L498.575 203.145 L494.339 203.145 M502.834 201.386 L502.834 216.178 L498.575 216.178 L498.575 212.242 Q497.117 214.603 494.941 215.738 Q492.765 216.849 489.617 216.849 Q485.635 216.849 483.274 214.627 Q480.936 212.381 480.936 208.631 Q480.936 204.256 483.853 202.034 Q486.793 199.812 492.603 199.812 L498.575 199.812 L498.575 199.395 Q498.575 196.455 496.631 194.858 Q494.71 193.238 491.214 193.238 Q488.992 193.238 486.885 193.77 Q484.779 194.303 482.835 195.367 L482.835 191.432 Q485.173 190.53 487.372 190.09 Q489.571 189.627 491.654 189.627 Q497.279 189.627 500.057 192.543 Q502.834 195.46 502.834 201.386 Z" fill="#000000" fill-rule="nonzero" fill-opacity="1" /><path clip-path="url(#clip080)" d="M530.265 191.247 L530.265 195.229 Q528.459 194.233 526.631 193.747 Q524.825 193.238 522.973 193.238 Q518.83 193.238 516.538 195.877 Q514.246 198.492 514.246 203.238 Q514.246 207.983 516.538 210.622 Q518.83 213.238 522.973 213.238 Q524.825 213.238 526.631 212.752 Q528.459 212.242 530.265 211.247 L530.265 215.182 Q528.482 216.016 526.561 216.432 Q524.663 216.849 522.51 216.849 Q516.654 216.849 513.205 213.168 Q509.756 209.488 509.756 203.238 Q509.756 196.895 513.228 193.261 Q516.723 189.627 522.788 189.627 Q524.756 189.627 526.631 190.043 Q528.506 190.437 530.265 191.247 Z" fill="#000000" fill-rule="nonzero" fill-opacity="1" /><path clip-path="url(#clip080)" d="M541.885 182.891 L541.885 190.252 L550.658 190.252 L550.658 193.562 L541.885 193.562 L541.885 207.636 Q541.885 210.807 542.742 211.71 Q543.621 212.613 546.283 212.613 L550.658 212.613 L550.658 216.178 L546.283 216.178 Q541.353 216.178 539.478 214.349 Q537.603 212.497 537.603 207.636 L537.603 193.562 L534.478 193.562 L534.478 190.252 L537.603 190.252 L537.603 182.891 L541.885 182.891 Z" fill="#000000" fill-rule="nonzero" fill-opacity="1" /></svg>
