<?xml version="1.0" encoding="utf-8"?>
<svg xmlns="http://www.w3.org/2000/svg" xmlns:xlink="http://www.w3.org/1999/xlink" width="600" height="400" viewBox="0 0 2400 1600">
<defs>
  <clipPath id="clip350">
    <rect x="0" y="0" width="2400" height="1600"/>
  </clipPath>
</defs>
<path clip-path="url(#clip350)" d="M0 1600 L2400 1600 L2400 0 L0 0  Z" fill="#ffffff" fill-rule="evenodd" fill-opacity="1"/>
<defs>
  <clipPath id="clip351">
    <rect x="480" y="0" width="1681" height="1600"/>
  </clipPath>
</defs>
<path clip-path="url(#clip350)" d="M156.274 1486.45 L2352.76 1486.45 L2352.76 47.2441 L156.274 47.2441  Z" fill="#ffffff" fill-rule="evenodd" fill-opacity="1"/>
<defs>
  <clipPath id="clip352">
    <rect x="156" y="47" width="2197" height="1440"/>
  </clipPath>
</defs>
<polyline clip-path="url(#clip352)" style="stroke:#000000; stroke-linecap:round; stroke-linejoin:round; stroke-width:2; stroke-opacity:0.1; fill:none" points="218.439,1486.45 218.439,47.2441 "/>
<polyline clip-path="url(#clip352)" style="stroke:#000000; stroke-linecap:round; stroke-linejoin:round; stroke-width:2; stroke-opacity:0.1; fill:none" points="736.477,1486.45 736.477,47.2441 "/>
<polyline clip-path="url(#clip352)" style="stroke:#000000; stroke-linecap:round; stroke-linejoin:round; stroke-width:2; stroke-opacity:0.1; fill:none" points="1254.52,1486.45 1254.52,47.2441 "/>
<polyline clip-path="url(#clip352)" style="stroke:#000000; stroke-linecap:round; stroke-linejoin:round; stroke-width:2; stroke-opacity:0.1; fill:none" points="1772.55,1486.45 1772.55,47.2441 "/>
<polyline clip-path="url(#clip352)" style="stroke:#000000; stroke-linecap:round; stroke-linejoin:round; stroke-width:2; stroke-opacity:0.1; fill:none" points="2290.59,1486.45 2290.59,47.2441 "/>
<polyline clip-path="url(#clip350)" style="stroke:#000000; stroke-linecap:round; stroke-linejoin:round; stroke-width:4; stroke-opacity:1; fill:none" points="156.274,1486.45 2352.76,1486.45 "/>
<polyline clip-path="url(#clip350)" style="stroke:#000000; stroke-linecap:round; stroke-linejoin:round; stroke-width:4; stroke-opacity:1; fill:none" points="218.439,1486.45 218.439,1467.55 "/>
<polyline clip-path="url(#clip350)" style="stroke:#000000; stroke-linecap:round; stroke-linejoin:round; stroke-width:4; stroke-opacity:1; fill:none" points="736.477,1486.45 736.477,1467.55 "/>
<polyline clip-path="url(#clip350)" style="stroke:#000000; stroke-linecap:round; stroke-linejoin:round; stroke-width:4; stroke-opacity:1; fill:none" points="1254.52,1486.45 1254.52,1467.55 "/>
<polyline clip-path="url(#clip350)" style="stroke:#000000; stroke-linecap:round; stroke-linejoin:round; stroke-width:4; stroke-opacity:1; fill:none" points="1772.55,1486.45 1772.55,1467.55 "/>
<polyline clip-path="url(#clip350)" style="stroke:#000000; stroke-linecap:round; stroke-linejoin:round; stroke-width:4; stroke-opacity:1; fill:none" points="2290.59,1486.45 2290.59,1467.55 "/>
<path clip-path="url(#clip350)" d="M164.967 1532.02 L194.643 1532.02 L194.643 1535.95 L164.967 1535.95 L164.967 1532.02 Z" fill="#000000" fill-rule="nonzero" fill-opacity="1" /><path clip-path="url(#clip350)" d="M205.545 1544.91 L213.184 1544.91 L213.184 1518.55 L204.874 1520.21 L204.874 1515.95 L213.138 1514.29 L217.814 1514.29 L217.814 1544.91 L225.453 1544.91 L225.453 1548.85 L205.545 1548.85 L205.545 1544.91 Z" fill="#000000" fill-rule="nonzero" fill-opacity="1" /><path clip-path="url(#clip350)" d="M234.897 1542.97 L239.781 1542.97 L239.781 1548.85 L234.897 1548.85 L234.897 1542.97 Z" fill="#000000" fill-rule="nonzero" fill-opacity="1" /><path clip-path="url(#clip350)" d="M259.966 1517.37 Q256.355 1517.37 254.527 1520.93 Q252.721 1524.47 252.721 1531.6 Q252.721 1538.71 254.527 1542.27 Q256.355 1545.82 259.966 1545.82 Q263.601 1545.82 265.406 1542.27 Q267.235 1538.71 267.235 1531.6 Q267.235 1524.47 265.406 1520.93 Q263.601 1517.37 259.966 1517.37 M259.966 1513.66 Q265.776 1513.66 268.832 1518.27 Q271.911 1522.85 271.911 1531.6 Q271.911 1540.33 268.832 1544.94 Q265.776 1549.52 259.966 1549.52 Q254.156 1549.52 251.077 1544.94 Q248.022 1540.33 248.022 1531.6 Q248.022 1522.85 251.077 1518.27 Q254.156 1513.66 259.966 1513.66 Z" fill="#000000" fill-rule="nonzero" fill-opacity="1" /><path clip-path="url(#clip350)" d="M683.503 1532.02 L713.178 1532.02 L713.178 1535.95 L683.503 1535.95 L683.503 1532.02 Z" fill="#000000" fill-rule="nonzero" fill-opacity="1" /><path clip-path="url(#clip350)" d="M733.271 1517.37 Q729.66 1517.37 727.831 1520.93 Q726.026 1524.47 726.026 1531.6 Q726.026 1538.71 727.831 1542.27 Q729.66 1545.82 733.271 1545.82 Q736.905 1545.82 738.711 1542.27 Q740.539 1538.71 740.539 1531.6 Q740.539 1524.47 738.711 1520.93 Q736.905 1517.37 733.271 1517.37 M733.271 1513.66 Q739.081 1513.66 742.137 1518.27 Q745.215 1522.85 745.215 1531.6 Q745.215 1540.33 742.137 1544.94 Q739.081 1549.52 733.271 1549.52 Q727.461 1549.52 724.382 1544.94 Q721.327 1540.33 721.327 1531.6 Q721.327 1522.85 724.382 1518.27 Q727.461 1513.66 733.271 1513.66 Z" fill="#000000" fill-rule="nonzero" fill-opacity="1" /><path clip-path="url(#clip350)" d="M753.433 1542.97 L758.317 1542.97 L758.317 1548.85 L753.433 1548.85 L753.433 1542.97 Z" fill="#000000" fill-rule="nonzero" fill-opacity="1" /><path clip-path="url(#clip350)" d="M768.548 1514.29 L786.905 1514.29 L786.905 1518.22 L772.831 1518.22 L772.831 1526.7 Q773.849 1526.35 774.868 1526.19 Q775.886 1526 776.905 1526 Q782.692 1526 786.072 1529.17 Q789.451 1532.34 789.451 1537.76 Q789.451 1543.34 785.979 1546.44 Q782.507 1549.52 776.187 1549.52 Q774.011 1549.52 771.743 1549.15 Q769.498 1548.78 767.09 1548.04 L767.09 1543.34 Q769.173 1544.47 771.396 1545.03 Q773.618 1545.58 776.095 1545.58 Q780.099 1545.58 782.437 1543.48 Q784.775 1541.37 784.775 1537.76 Q784.775 1534.15 782.437 1532.04 Q780.099 1529.94 776.095 1529.94 Q774.22 1529.94 772.345 1530.35 Q770.493 1530.77 768.548 1531.65 L768.548 1514.29 Z" fill="#000000" fill-rule="nonzero" fill-opacity="1" /><path clip-path="url(#clip350)" d="M1231.9 1517.37 Q1228.29 1517.37 1226.46 1520.93 Q1224.65 1524.47 1224.65 1531.6 Q1224.65 1538.71 1226.46 1542.27 Q1228.29 1545.82 1231.9 1545.82 Q1235.53 1545.82 1237.34 1542.27 Q1239.17 1538.71 1239.17 1531.6 Q1239.17 1524.47 1237.34 1520.93 Q1235.53 1517.37 1231.9 1517.37 M1231.9 1513.66 Q1237.71 1513.66 1240.77 1518.27 Q1243.84 1522.85 1243.84 1531.6 Q1243.84 1540.33 1240.77 1544.94 Q1237.71 1549.52 1231.9 1549.52 Q1226.09 1549.52 1223.01 1544.94 Q1219.96 1540.33 1219.96 1531.6 Q1219.96 1522.85 1223.01 1518.27 Q1226.09 1513.66 1231.9 1513.66 Z" fill="#000000" fill-rule="nonzero" fill-opacity="1" /><path clip-path="url(#clip350)" d="M1252.06 1542.97 L1256.95 1542.97 L1256.95 1548.85 L1252.06 1548.85 L1252.06 1542.97 Z" fill="#000000" fill-rule="nonzero" fill-opacity="1" /><path clip-path="url(#clip350)" d="M1277.13 1517.37 Q1273.52 1517.37 1271.69 1520.93 Q1269.89 1524.47 1269.89 1531.6 Q1269.89 1538.71 1271.69 1542.27 Q1273.52 1545.82 1277.13 1545.82 Q1280.76 1545.82 1282.57 1542.27 Q1284.4 1538.71 1284.4 1531.6 Q1284.4 1524.47 1282.57 1520.93 Q1280.76 1517.37 1277.13 1517.37 M1277.13 1513.66 Q1282.94 1513.66 1286 1518.27 Q1289.08 1522.85 1289.08 1531.6 Q1289.08 1540.33 1286 1544.94 Q1282.94 1549.52 1277.13 1549.52 Q1271.32 1549.52 1268.24 1544.94 Q1265.19 1540.33 1265.19 1531.6 Q1265.19 1522.85 1268.24 1518.27 Q1271.32 1513.66 1277.13 1513.66 Z" fill="#000000" fill-rule="nonzero" fill-opacity="1" /><path clip-path="url(#clip350)" d="M1750.44 1517.37 Q1746.82 1517.37 1745 1520.93 Q1743.19 1524.47 1743.19 1531.6 Q1743.19 1538.71 1745 1542.27 Q1746.82 1545.82 1750.44 1545.82 Q1754.07 1545.82 1755.88 1542.27 Q1757.7 1538.71 1757.7 1531.6 Q1757.7 1524.47 1755.88 1520.93 Q1754.07 1517.37 1750.44 1517.37 M1750.44 1513.66 Q1756.25 1513.66 1759.3 1518.27 Q1762.38 1522.85 1762.38 1531.6 Q1762.38 1540.33 1759.3 1544.94 Q1756.25 1549.52 1750.44 1549.52 Q1744.63 1549.52 1741.55 1544.94 Q1738.49 1540.33 1738.49 1531.6 Q1738.49 1522.85 1741.55 1518.27 Q1744.63 1513.66 1750.44 1513.66 Z" fill="#000000" fill-rule="nonzero" fill-opacity="1" /><path clip-path="url(#clip350)" d="M1770.6 1542.97 L1775.48 1542.97 L1775.48 1548.85 L1770.6 1548.85 L1770.6 1542.97 Z" fill="#000000" fill-rule="nonzero" fill-opacity="1" /><path clip-path="url(#clip350)" d="M1785.71 1514.29 L1804.07 1514.29 L1804.07 1518.22 L1790 1518.22 L1790 1526.7 Q1791.01 1526.35 1792.03 1526.19 Q1793.05 1526 1794.07 1526 Q1799.86 1526 1803.24 1529.17 Q1806.62 1532.34 1806.62 1537.76 Q1806.62 1543.34 1803.14 1546.44 Q1799.67 1549.52 1793.35 1549.52 Q1791.18 1549.52 1788.91 1549.15 Q1786.66 1548.78 1784.25 1548.04 L1784.25 1543.34 Q1786.34 1544.47 1788.56 1545.03 Q1790.78 1545.58 1793.26 1545.58 Q1797.26 1545.58 1799.6 1543.48 Q1801.94 1541.37 1801.94 1537.76 Q1801.94 1534.15 1799.6 1532.04 Q1797.26 1529.94 1793.26 1529.94 Q1791.38 1529.94 1789.51 1530.35 Q1787.66 1530.77 1785.71 1531.65 L1785.71 1514.29 Z" fill="#000000" fill-rule="nonzero" fill-opacity="1" /><path clip-path="url(#clip350)" d="M2257.74 1544.91 L2265.38 1544.91 L2265.38 1518.55 L2257.07 1520.21 L2257.07 1515.95 L2265.34 1514.29 L2270.01 1514.29 L2270.01 1544.91 L2277.65 1544.91 L2277.65 1548.85 L2257.74 1548.85 L2257.74 1544.91 Z" fill="#000000" fill-rule="nonzero" fill-opacity="1" /><path clip-path="url(#clip350)" d="M2287.1 1542.97 L2291.98 1542.97 L2291.98 1548.85 L2287.1 1548.85 L2287.1 1542.97 Z" fill="#000000" fill-rule="nonzero" fill-opacity="1" /><path clip-path="url(#clip350)" d="M2312.17 1517.37 Q2308.55 1517.37 2306.73 1520.93 Q2304.92 1524.47 2304.92 1531.6 Q2304.92 1538.71 2306.73 1542.27 Q2308.55 1545.82 2312.17 1545.82 Q2315.8 1545.82 2317.61 1542.27 Q2319.43 1538.71 2319.43 1531.6 Q2319.43 1524.47 2317.61 1520.93 Q2315.8 1517.37 2312.17 1517.37 M2312.17 1513.66 Q2317.98 1513.66 2321.03 1518.27 Q2324.11 1522.85 2324.11 1531.6 Q2324.11 1540.33 2321.03 1544.94 Q2317.98 1549.52 2312.17 1549.52 Q2306.36 1549.52 2303.28 1544.94 Q2300.22 1540.33 2300.22 1531.6 Q2300.22 1522.85 2303.28 1518.27 Q2306.36 1513.66 2312.17 1513.66 Z" fill="#000000" fill-rule="nonzero" fill-opacity="1" /><polyline clip-path="url(#clip352)" style="stroke:#000000; stroke-linecap:round; stroke-linejoin:round; stroke-width:2; stroke-opacity:0.1; fill:none" points="156.274,1252.89 2352.76,1252.89 "/>
<polyline clip-path="url(#clip352)" style="stroke:#000000; stroke-linecap:round; stroke-linejoin:round; stroke-width:2; stroke-opacity:0.1; fill:none" points="156.274,979.505 2352.76,979.505 "/>
<polyline clip-path="url(#clip352)" style="stroke:#000000; stroke-linecap:round; stroke-linejoin:round; stroke-width:2; stroke-opacity:0.1; fill:none" points="156.274,706.118 2352.76,706.118 "/>
<polyline clip-path="url(#clip352)" style="stroke:#000000; stroke-linecap:round; stroke-linejoin:round; stroke-width:2; stroke-opacity:0.1; fill:none" points="156.274,432.731 2352.76,432.731 "/>
<polyline clip-path="url(#clip352)" style="stroke:#000000; stroke-linecap:round; stroke-linejoin:round; stroke-width:2; stroke-opacity:0.1; fill:none" points="156.274,159.344 2352.76,159.344 "/>
<polyline clip-path="url(#clip350)" style="stroke:#000000; stroke-linecap:round; stroke-linejoin:round; stroke-width:4; stroke-opacity:1; fill:none" points="156.274,1486.45 156.274,47.2441 "/>
<polyline clip-path="url(#clip350)" style="stroke:#000000; stroke-linecap:round; stroke-linejoin:round; stroke-width:4; stroke-opacity:1; fill:none" points="156.274,1252.89 175.172,1252.89 "/>
<polyline clip-path="url(#clip350)" style="stroke:#000000; stroke-linecap:round; stroke-linejoin:round; stroke-width:4; stroke-opacity:1; fill:none" points="156.274,979.505 175.172,979.505 "/>
<polyline clip-path="url(#clip350)" style="stroke:#000000; stroke-linecap:round; stroke-linejoin:round; stroke-width:4; stroke-opacity:1; fill:none" points="156.274,706.118 175.172,706.118 "/>
<polyline clip-path="url(#clip350)" style="stroke:#000000; stroke-linecap:round; stroke-linejoin:round; stroke-width:4; stroke-opacity:1; fill:none" points="156.274,432.731 175.172,432.731 "/>
<polyline clip-path="url(#clip350)" style="stroke:#000000; stroke-linecap:round; stroke-linejoin:round; stroke-width:4; stroke-opacity:1; fill:none" points="156.274,159.344 175.172,159.344 "/>
<path clip-path="url(#clip350)" d="M63.0985 1238.69 Q59.4875 1238.69 57.6588 1242.26 Q55.8532 1245.8 55.8532 1252.93 Q55.8532 1260.03 57.6588 1263.6 Q59.4875 1267.14 63.0985 1267.14 Q66.7328 1267.14 68.5383 1263.6 Q70.367 1260.03 70.367 1252.93 Q70.367 1245.8 68.5383 1242.26 Q66.7328 1238.69 63.0985 1238.69 M63.0985 1234.99 Q68.9087 1234.99 71.9642 1239.59 Q75.0429 1244.18 75.0429 1252.93 Q75.0429 1261.65 71.9642 1266.26 Q68.9087 1270.84 63.0985 1270.84 Q57.2884 1270.84 54.2097 1266.26 Q51.1542 1261.65 51.1542 1252.93 Q51.1542 1244.18 54.2097 1239.59 Q57.2884 1234.99 63.0985 1234.99 Z" fill="#000000" fill-rule="nonzero" fill-opacity="1" /><path clip-path="url(#clip350)" d="M83.2605 1264.29 L88.1447 1264.29 L88.1447 1270.17 L83.2605 1270.17 L83.2605 1264.29 Z" fill="#000000" fill-rule="nonzero" fill-opacity="1" /><path clip-path="url(#clip350)" d="M108.33 1238.69 Q104.719 1238.69 102.89 1242.26 Q101.084 1245.8 101.084 1252.93 Q101.084 1260.03 102.89 1263.6 Q104.719 1267.14 108.33 1267.14 Q111.964 1267.14 113.77 1263.6 Q115.598 1260.03 115.598 1252.93 Q115.598 1245.8 113.77 1242.26 Q111.964 1238.69 108.33 1238.69 M108.33 1234.99 Q114.14 1234.99 117.195 1239.59 Q120.274 1244.18 120.274 1252.93 Q120.274 1261.65 117.195 1266.26 Q114.14 1270.84 108.33 1270.84 Q102.52 1270.84 99.4409 1266.26 Q96.3854 1261.65 96.3854 1252.93 Q96.3854 1244.18 99.4409 1239.59 Q102.52 1234.99 108.33 1234.99 Z" fill="#000000" fill-rule="nonzero" fill-opacity="1" /><path clip-path="url(#clip350)" d="M63.7467 965.304 Q60.1356 965.304 58.3069 968.869 Q56.5014 972.411 56.5014 979.54 Q56.5014 986.647 58.3069 990.211 Q60.1356 993.753 63.7467 993.753 Q67.3809 993.753 69.1865 990.211 Q71.0152 986.647 71.0152 979.54 Q71.0152 972.411 69.1865 968.869 Q67.3809 965.304 63.7467 965.304 M63.7467 961.6 Q69.5568 961.6 72.6124 966.207 Q75.6911 970.79 75.6911 979.54 Q75.6911 988.267 72.6124 992.873 Q69.5568 997.457 63.7467 997.457 Q57.9365 997.457 54.8578 992.873 Q51.8023 988.267 51.8023 979.54 Q51.8023 970.79 54.8578 966.207 Q57.9365 961.6 63.7467 961.6 Z" fill="#000000" fill-rule="nonzero" fill-opacity="1" /><path clip-path="url(#clip350)" d="M83.9086 990.906 L88.7928 990.906 L88.7928 996.785 L83.9086 996.785 L83.9086 990.906 Z" fill="#000000" fill-rule="nonzero" fill-opacity="1" /><path clip-path="url(#clip350)" d="M113.145 978.151 Q116.501 978.869 118.376 981.137 Q120.274 983.406 120.274 986.739 Q120.274 991.855 116.756 994.656 Q113.237 997.457 106.756 997.457 Q104.58 997.457 102.265 997.017 Q99.9733 996.6 97.5197 995.744 L97.5197 991.23 Q99.4641 992.364 101.779 992.943 Q104.094 993.522 106.617 993.522 Q111.015 993.522 113.307 991.785 Q115.621 990.049 115.621 986.739 Q115.621 983.684 113.469 981.971 Q111.339 980.235 107.52 980.235 L103.492 980.235 L103.492 976.392 L107.705 976.392 Q111.154 976.392 112.983 975.026 Q114.811 973.637 114.811 971.045 Q114.811 968.383 112.913 966.971 Q111.038 965.536 107.52 965.536 Q105.598 965.536 103.399 965.952 Q101.2 966.369 98.5613 967.249 L98.5613 963.082 Q101.223 962.341 103.538 961.971 Q105.876 961.6 107.936 961.6 Q113.26 961.6 116.362 964.031 Q119.464 966.438 119.464 970.559 Q119.464 973.429 117.82 975.42 Q116.177 977.387 113.145 978.151 Z" fill="#000000" fill-rule="nonzero" fill-opacity="1" /><path clip-path="url(#clip350)" d="M62.9365 691.917 Q59.3254 691.917 57.4967 695.482 Q55.6912 699.023 55.6912 706.153 Q55.6912 713.259 57.4967 716.824 Q59.3254 720.366 62.9365 720.366 Q66.5707 720.366 68.3763 716.824 Q70.205 713.259 70.205 706.153 Q70.205 699.023 68.3763 695.482 Q66.5707 691.917 62.9365 691.917 M62.9365 688.213 Q68.7467 688.213 71.8022 692.82 Q74.8809 697.403 74.8809 706.153 Q74.8809 714.88 71.8022 719.486 Q68.7467 724.07 62.9365 724.07 Q57.1264 724.07 54.0477 719.486 Q50.9921 714.88 50.9921 706.153 Q50.9921 697.403 54.0477 692.82 Q57.1264 688.213 62.9365 688.213 Z" fill="#000000" fill-rule="nonzero" fill-opacity="1" /><path clip-path="url(#clip350)" d="M83.0984 717.519 L87.9827 717.519 L87.9827 723.398 L83.0984 723.398 L83.0984 717.519 Z" fill="#000000" fill-rule="nonzero" fill-opacity="1" /><path clip-path="url(#clip350)" d="M108.746 704.255 Q105.598 704.255 103.746 706.408 Q101.918 708.56 101.918 712.31 Q101.918 716.037 103.746 718.213 Q105.598 720.366 108.746 720.366 Q111.895 720.366 113.723 718.213 Q115.575 716.037 115.575 712.31 Q115.575 708.56 113.723 706.408 Q111.895 704.255 108.746 704.255 M118.029 689.602 L118.029 693.861 Q116.27 693.028 114.464 692.588 Q112.682 692.148 110.922 692.148 Q106.293 692.148 103.839 695.273 Q101.409 698.398 101.061 704.718 Q102.427 702.704 104.487 701.639 Q106.547 700.551 109.024 700.551 Q114.233 700.551 117.242 703.722 Q120.274 706.871 120.274 712.31 Q120.274 717.634 117.126 720.852 Q113.978 724.07 108.746 724.07 Q102.751 724.07 99.5798 719.486 Q96.4085 714.88 96.4085 706.153 Q96.4085 697.959 100.297 693.098 Q104.186 688.213 110.737 688.213 Q112.496 688.213 114.279 688.561 Q116.084 688.908 118.029 689.602 Z" fill="#000000" fill-rule="nonzero" fill-opacity="1" /><path clip-path="url(#clip350)" d="M63.2837 418.53 Q59.6726 418.53 57.8439 422.095 Q56.0384 425.636 56.0384 432.766 Q56.0384 439.872 57.8439 443.437 Q59.6726 446.979 63.2837 446.979 Q66.918 446.979 68.7235 443.437 Q70.5522 439.872 70.5522 432.766 Q70.5522 425.636 68.7235 422.095 Q66.918 418.53 63.2837 418.53 M63.2837 414.826 Q69.0939 414.826 72.1494 419.433 Q75.2281 424.016 75.2281 432.766 Q75.2281 441.493 72.1494 446.099 Q69.0939 450.682 63.2837 450.682 Q57.4736 450.682 54.3949 446.099 Q51.3393 441.493 51.3393 432.766 Q51.3393 424.016 54.3949 419.433 Q57.4736 414.826 63.2837 414.826 Z" fill="#000000" fill-rule="nonzero" fill-opacity="1" /><path clip-path="url(#clip350)" d="M83.4457 444.132 L88.3299 444.132 L88.3299 450.011 L83.4457 450.011 L83.4457 444.132 Z" fill="#000000" fill-rule="nonzero" fill-opacity="1" /><path clip-path="url(#clip350)" d="M98.6539 449.294 L98.6539 445.034 Q100.413 445.868 102.219 446.307 Q104.024 446.747 105.76 446.747 Q110.39 446.747 112.82 443.645 Q115.274 440.52 115.621 434.178 Q114.279 436.169 112.219 437.233 Q110.158 438.298 107.658 438.298 Q102.473 438.298 99.4409 435.173 Q96.4317 432.025 96.4317 426.585 Q96.4317 421.261 99.5798 418.044 Q102.728 414.826 107.959 414.826 Q113.955 414.826 117.103 419.433 Q120.274 424.016 120.274 432.766 Q120.274 440.937 116.385 445.821 Q112.52 450.682 105.969 450.682 Q104.209 450.682 102.404 450.335 Q100.598 449.988 98.6539 449.294 M107.959 434.641 Q111.108 434.641 112.936 432.488 Q114.788 430.335 114.788 426.585 Q114.788 422.858 112.936 420.706 Q111.108 418.53 107.959 418.53 Q104.811 418.53 102.959 420.706 Q101.131 422.858 101.131 426.585 Q101.131 430.335 102.959 432.488 Q104.811 434.641 107.959 434.641 Z" fill="#000000" fill-rule="nonzero" fill-opacity="1" /><path clip-path="url(#clip350)" d="M55.506 172.689 L63.1448 172.689 L63.1448 146.323 L54.8347 147.99 L54.8347 143.731 L63.0985 142.064 L67.7744 142.064 L67.7744 172.689 L75.4133 172.689 L75.4133 176.624 L55.506 176.624 L55.506 172.689 Z" fill="#000000" fill-rule="nonzero" fill-opacity="1" /><path clip-path="url(#clip350)" d="M84.8577 170.744 L89.7419 170.744 L89.7419 176.624 L84.8577 176.624 L84.8577 170.744 Z" fill="#000000" fill-rule="nonzero" fill-opacity="1" /><path clip-path="url(#clip350)" d="M103.955 172.689 L120.274 172.689 L120.274 176.624 L98.3298 176.624 L98.3298 172.689 Q100.992 169.934 105.575 165.305 Q110.182 160.652 111.362 159.309 Q113.608 156.786 114.487 155.05 Q115.39 153.291 115.39 151.601 Q115.39 148.846 113.445 147.11 Q111.524 145.374 108.422 145.374 Q106.223 145.374 103.77 146.138 Q101.339 146.902 98.5613 148.453 L98.5613 143.731 Q101.385 142.596 103.839 142.018 Q106.293 141.439 108.33 141.439 Q113.7 141.439 116.895 144.124 Q120.089 146.809 120.089 151.3 Q120.089 153.43 119.279 155.351 Q118.492 157.249 116.385 159.842 Q115.807 160.513 112.705 163.73 Q109.603 166.925 103.955 172.689 Z" fill="#000000" fill-rule="nonzero" fill-opacity="1" /><polyline clip-path="url(#clip352)" style="stroke:#009af9; stroke-linecap:round; stroke-linejoin:round; stroke-width:16; stroke-opacity:1; fill:none" stroke-dasharray="8, 16" points="218.439,1115.79 228.852,1096.06 239.264,1079.49 249.677,1070.79 260.09,1070.85 270.503,1077.39 280.916,1087.47 291.329,1100.02 301.741,1116.37 312.154,1138.39 322.567,1166.34 332.98,1198.34 343.393,1231.72 353.805,1264.5 364.218,1295.95 374.631,1326.09 385.044,1354.78 395.457,1381.23 405.87,1403.9 416.282,1421.01 426.695,1431.24 437.108,1434.37 447.521,1431.37 457.934,1423.86 468.347,1412.94 478.759,1398.31 489.172,1378.43 499.585,1352.1 509.998,1320.13 520.411,1285.47 530.824,1251.33 541.236,1219.23 551.649,1189.03 562.062,1160.41 572.475,1133.85 582.888,1110.5 593.301,1091.66 603.713,1078.5 614.126,1071.75 624.539,1071.42 634.952,1076.87 645.365,1087.32 655.777,1102.28 666.19,1121.76 676.603,1145.92 687.016,1174.56 697.429,1206.72 707.842,1240.66 718.254,1274.37 728.667,1306.12 739.08,1335.02 749.493,1361.14 759.906,1384.98 770.319,1406.61 780.731,1424.75 791.144,1436.74 801.557,1439.9 811.97,1433.68 822.383,1420.53 832.796,1404.07 843.208,1386.18 853.621,1366.01 864.034,1341.73 874.447,1312.85 884.86,1280.71 895.273,1247.36 905.685,1214.36 916.098,1182.47 926.511,1152.24 936.924,1124.65 947.337,1101.29 957.749,1083.94 968.162,1073.82 978.575,1071.07 988.988,1074.78 999.401,1083.54 1009.81,1096.08 1020.23,1111.69 1030.64,1130.3 1041.05,1152.27 1051.46,1177.98 1061.88,1207.58 1072.29,1240.73 1082.7,1276.49 1093.12,1313.25 1103.53,1348.79 1113.94,1380.35 1124.35,1405.05 1134.77,1420.5 1145.18,1425.79 1155.59,1422.38 1166.01,1414.55 1176.42,1408.77 1186.83,1411.68 1197.24,1426.3 1207.66,1445.72 1218.07,1445.57 1228.48,1382.6 1238.9,1214.63 1249.31,944.415 1259.72,644.559 1270.13,413.562 1280.55,300.603 1290.96,284.962 1301.37,314.881 1311.79,347.759 1322.2,363.335 1332.61,359.358 1343.02,343.258 1353.44,325.192 1363.85,313.393 1374.26,311.878 1384.68,320.331 1395.09,335.418 1405.5,352.528 1415.91,367.168 1426.33,375.811 1436.74,376.311 1447.15,368.109 1457.57,352.354 1467.98,331.923 1478.39,311.239 1488.8,295.69 1499.22,290.496 1509.63,299.093 1520.04,321.417 1530.45,352.939 1540.87,385.268 1551.28,408.539 1561.69,414.668 1572.11,400.039 1582.52,366.671 1592.93,321.956 1603.34,277.414 1613.76,246.49 1624.17,241.146 1634.58,267.506 1645,321.839 1655.41,389.26 1665.82,447.291 1676.23,473.96 1686.65,456.911 1697.06,399.381 1707.47,320.512 1717.89,248.577 1728.3,208.632 1738.71,211.593 1749.12,252.032 1759.54,314.243 1769.95,380.141 1780.36,434.179 1790.78,465.037 1801.19,465.982 1811.6,435.503 1822.01,378.463 1832.43,306.912 1842.84,239.082 1853.25,195.386 1863.67,191.798 1874.08,233.091 1884.49,309.598 1894.9,399.773 1905.32,477.297 1915.73,519.079 1926.14,511.133 1936.56,451.919 1946.97,354.197 1957.38,244.928 1967.79,159.836 1978.21,130.384 1988.62,168.584 1999.03,260.845 2009.45,375.472 2019.86,476.9 2030.27,537.269 2040.68,542.079 2051.1,491.743 2061.51,400.628 2071.92,293.482 2082.33,199.089 2092.75,142.591 2103.16,139.097 2113.57,190.372 2123.99,284.723 2134.4,399.23 2144.81,503.912 2155.22,567.938 2165.64,567.986 2176.05,497.618 2186.46,374.255 2196.88,237.735 2207.29,136.092 2217.7,103.309 2228.11,143.491 2238.53,233.046 2248.94,337.421 2259.35,428.734 2269.77,494.566 2280.18,537.289 2290.59,568.192 "/>
<polyline clip-path="url(#clip352)" style="stroke:#e26f46; stroke-linecap:round; stroke-linejoin:round; stroke-width:4; stroke-opacity:1; fill:none" points="218.439,1116.02 228.852,1096.6 239.264,1082.28 249.677,1073.53 260.09,1070.64 270.503,1073.69 280.916,1082.59 291.329,1097.05 301.741,1116.59 312.154,1140.59 322.567,1168.25 332.98,1198.67 343.393,1230.86 353.805,1263.77 364.218,1296.33 374.631,1327.47 385.044,1356.17 395.457,1381.5 405.87,1402.64 416.282,1418.89 426.695,1429.72 437.108,1434.78 447.521,1433.9 457.934,1427.12 468.347,1414.65 478.759,1396.9 489.172,1374.45 499.585,1348.03 509.998,1318.51 520.411,1286.85 530.824,1254.08 541.236,1221.27 551.649,1189.49 562.062,1159.78 572.475,1133.11 582.888,1110.35 593.301,1092.24 603.713,1079.38 614.126,1072.17 624.539,1070.87 634.952,1075.51 645.365,1085.93 655.777,1101.81 666.19,1122.62 676.603,1147.67 687.016,1176.17 697.429,1207.16 707.842,1239.65 718.254,1272.57 728.667,1304.85 739.08,1335.44 749.493,1363.32 759.906,1387.61 770.319,1407.5 780.731,1422.34 791.144,1431.65 801.557,1435.13 811.97,1432.66 822.383,1424.32 832.796,1410.39 843.208,1391.32 853.621,1367.73 864.034,1340.39 874.447,1310.2 884.86,1278.13 895.273,1245.24 905.685,1212.61 916.098,1181.28 926.511,1152.3 936.924,1126.59 947.337,1105.01 957.749,1088.26 968.162,1076.88 978.575,1071.24 988.988,1071.53 999.401,1077.74 1009.81,1089.67 1020.23,1106.93 1030.64,1128.94 1041.05,1155.01 1051.46,1184.27 1061.88,1215.77 1072.29,1248.48 1082.7,1281.33 1093.12,1313.26 1103.53,1343.21 1113.94,1370.22 1124.35,1393.4 1134.77,1411.99 1145.18,1425.39 1155.59,1433.16 1166.01,1435.05 1176.42,1430.99 1186.83,1421.12 1197.24,1405.76 1207.66,1385.41 1218.07,1360.73 1228.48,1332.54 1238.9,1301.74 1249.31,1269.36 1259.72,340.279 1270.13,338.773 1280.55,340.143 1290.96,344.706 1301.37,351.064 1311.79,356.529 1322.2,358.147 1332.61,353.942 1343.02,343.918 1353.44,330.404 1363.85,317.545 1374.26,310.032 1384.68,311.473 1395.09,322.935 1405.5,342.214 1415.91,364.155 1426.33,382.022 1436.74,389.558 1447.15,383.107 1457.57,363.09 1467.98,334.297 1478.39,304.79 1488.8,283.642 1499.22,278.164 1509.63,291.445 1520.04,321.033 1530.45,359.245 1540.87,395.14 1551.28,417.653 1561.69,418.986 1572.11,397.237 1582.52,357.376 1592.93,310.192 1603.34,269.378 1613.76,247.56 1624.17,252.411 1634.58,284.043 1645,334.54 1655.41,389.898 1665.82,433.902 1676.23,452.873 1686.65,439.9 1697.06,397.239 1707.47,336.094 1717.89,273.698 1728.3,228.455 1738.71,214.521 1749.12,237.401 1759.54,291.935 1769.95,363.376 1780.36,431.361 1790.78,475.715 1801.19,482.433 1811.6,448.066 1822.01,381.145 1832.43,300.124 1842.84,228.291 1853.25,187.082 1863.67,189.687 1874.08,236.877 1884.49,316.342 1894.9,405.871 1905.32,479.555 1915.73,515.285 1926.14,501.372 1936.56,440.316 1946.97,348.519 1957.38,251.898 1967.79,178.572 1978.21,150.679 1988.62,177.709 1999.03,253.352 2009.45,356.891 2019.86,458.866 2030.27,529.452 2040.68,547.182 2051.1,505.453 2061.51,414.858 2071.92,300.547 2082.33,195.247 2092.75,129.901 2103.16,124.57 2113.57,182.309 2123.99,287.845 2134.4,411.588 2144.81,517.926 2155.22,575.466 2165.64,566.305 2176.05,491.559 2186.46,371.485 2196.88,240.006 2207.29,135.134 2217.7,87.9763 2228.11,113.523 2238.53,205.921 2248.94,339.731 2259.35,476.915 2269.77,577.656 2280.18,611.901 2290.59,568.325 "/>
<path clip-path="url(#clip350)" d="M229.49 250.738 L675.966 250.738 L675.966 95.2176 L229.49 95.2176  Z" fill="#ffffff" fill-rule="evenodd" fill-opacity="1"/>
<polyline clip-path="url(#clip350)" style="stroke:#000000; stroke-linecap:round; stroke-linejoin:round; stroke-width:4; stroke-opacity:1; fill:none" points="229.49,250.738 675.966,250.738 675.966,95.2176 229.49,95.2176 229.49,250.738 "/>
<polyline clip-path="url(#clip350)" style="stroke:#009af9; stroke-linecap:round; stroke-linejoin:round; stroke-width:16; stroke-opacity:1; fill:none" stroke-dasharray="8, 16" points="253.896,147.058 400.328,147.058 "/>
<path clip-path="url(#clip350)" d="M429.409 133.62 L429.409 146.606 L435.289 146.606 Q438.552 146.606 440.335 144.916 Q442.117 143.227 442.117 140.102 Q442.117 137 440.335 135.31 Q438.552 133.62 435.289 133.62 L429.409 133.62 M424.733 129.778 L435.289 129.778 Q441.099 129.778 444.062 132.416 Q447.048 135.032 447.048 140.102 Q447.048 145.217 444.062 147.833 Q441.099 150.449 435.289 150.449 L429.409 150.449 L429.409 164.338 L424.733 164.338 L424.733 129.778 Z" fill="#000000" fill-rule="nonzero" fill-opacity="1" /><path clip-path="url(#clip350)" d="M467.325 142.393 Q466.608 141.977 465.751 141.791 Q464.918 141.583 463.899 141.583 Q460.288 141.583 458.344 143.944 Q456.423 146.282 456.423 150.68 L456.423 164.338 L452.14 164.338 L452.14 138.412 L456.423 138.412 L456.423 142.44 Q457.765 140.078 459.918 138.944 Q462.071 137.787 465.149 137.787 Q465.589 137.787 466.122 137.856 Q466.654 137.903 467.302 138.018 L467.325 142.393 Z" fill="#000000" fill-rule="nonzero" fill-opacity="1" /><path clip-path="url(#clip350)" d="M492.927 150.31 L492.927 152.393 L473.344 152.393 Q473.622 156.791 475.983 159.106 Q478.367 161.398 482.603 161.398 Q485.057 161.398 487.348 160.796 Q489.663 160.194 491.932 158.99 L491.932 163.018 Q489.64 163.99 487.233 164.5 Q484.825 165.009 482.348 165.009 Q476.145 165.009 472.511 161.398 Q468.899 157.787 468.899 151.629 Q468.899 145.264 472.325 141.537 Q475.774 137.787 481.608 137.787 Q486.839 137.787 489.872 141.166 Q492.927 144.523 492.927 150.31 M488.668 149.06 Q488.622 145.565 486.7 143.481 Q484.802 141.398 481.654 141.398 Q478.089 141.398 475.936 143.412 Q473.807 145.426 473.483 149.083 L488.668 149.06 Z" fill="#000000" fill-rule="nonzero" fill-opacity="1" /><path clip-path="url(#clip350)" d="M516.978 142.347 L516.978 128.319 L521.237 128.319 L521.237 164.338 L516.978 164.338 L516.978 160.449 Q515.635 162.763 513.575 163.898 Q511.538 165.009 508.668 165.009 Q503.969 165.009 501.006 161.259 Q498.066 157.509 498.066 151.398 Q498.066 145.287 501.006 141.537 Q503.969 137.787 508.668 137.787 Q511.538 137.787 513.575 138.921 Q515.635 140.032 516.978 142.347 M502.464 151.398 Q502.464 156.097 504.385 158.782 Q506.33 161.444 509.709 161.444 Q513.089 161.444 515.033 158.782 Q516.978 156.097 516.978 151.398 Q516.978 146.699 515.033 144.037 Q513.089 141.352 509.709 141.352 Q506.33 141.352 504.385 144.037 Q502.464 146.699 502.464 151.398 Z" fill="#000000" fill-rule="nonzero" fill-opacity="1" /><path clip-path="url(#clip350)" d="M530.01 138.412 L534.269 138.412 L534.269 164.338 L530.01 164.338 L530.01 138.412 M530.01 128.319 L534.269 128.319 L534.269 133.713 L530.01 133.713 L530.01 128.319 Z" fill="#000000" fill-rule="nonzero" fill-opacity="1" /><path clip-path="url(#clip350)" d="M561.839 139.407 L561.839 143.389 Q560.033 142.393 558.205 141.907 Q556.399 141.398 554.547 141.398 Q550.404 141.398 548.112 144.037 Q545.82 146.652 545.82 151.398 Q545.82 156.143 548.112 158.782 Q550.404 161.398 554.547 161.398 Q556.399 161.398 558.205 160.912 Q560.033 160.402 561.839 159.407 L561.839 163.342 Q560.056 164.176 558.135 164.592 Q556.237 165.009 554.084 165.009 Q548.228 165.009 544.779 161.328 Q541.33 157.648 541.33 151.398 Q541.33 145.055 544.802 141.421 Q548.297 137.787 554.362 137.787 Q556.33 137.787 558.205 138.203 Q560.08 138.597 561.839 139.407 Z" fill="#000000" fill-rule="nonzero" fill-opacity="1" /><path clip-path="url(#clip350)" d="M573.459 131.051 L573.459 138.412 L582.232 138.412 L582.232 141.722 L573.459 141.722 L573.459 155.796 Q573.459 158.967 574.316 159.87 Q575.195 160.773 577.857 160.773 L582.232 160.773 L582.232 164.338 L577.857 164.338 Q572.927 164.338 571.052 162.509 Q569.177 160.657 569.177 155.796 L569.177 141.722 L566.052 141.722 L566.052 138.412 L569.177 138.412 L569.177 131.051 L573.459 131.051 Z" fill="#000000" fill-rule="nonzero" fill-opacity="1" /><path clip-path="url(#clip350)" d="M587.834 138.412 L592.093 138.412 L592.093 164.338 L587.834 164.338 L587.834 138.412 M587.834 128.319 L592.093 128.319 L592.093 133.713 L587.834 133.713 L587.834 128.319 Z" fill="#000000" fill-rule="nonzero" fill-opacity="1" /><path clip-path="url(#clip350)" d="M611.051 141.398 Q607.626 141.398 605.635 144.083 Q603.644 146.745 603.644 151.398 Q603.644 156.051 605.612 158.736 Q607.602 161.398 611.051 161.398 Q614.454 161.398 616.445 158.713 Q618.436 156.027 618.436 151.398 Q618.436 146.791 616.445 144.106 Q614.454 141.398 611.051 141.398 M611.051 137.787 Q616.607 137.787 619.778 141.398 Q622.95 145.009 622.95 151.398 Q622.95 157.764 619.778 161.398 Q616.607 165.009 611.051 165.009 Q605.473 165.009 602.302 161.398 Q599.153 157.764 599.153 151.398 Q599.153 145.009 602.302 141.398 Q605.473 137.787 611.051 137.787 Z" fill="#000000" fill-rule="nonzero" fill-opacity="1" /><path clip-path="url(#clip350)" d="M651.561 148.689 L651.561 164.338 L647.301 164.338 L647.301 148.828 Q647.301 145.148 645.866 143.319 Q644.431 141.49 641.561 141.49 Q638.112 141.49 636.121 143.69 Q634.13 145.889 634.13 149.685 L634.13 164.338 L629.848 164.338 L629.848 138.412 L634.13 138.412 L634.13 142.44 Q635.658 140.102 637.718 138.944 Q639.801 137.787 642.51 137.787 Q646.977 137.787 649.269 140.565 Q651.561 143.319 651.561 148.689 Z" fill="#000000" fill-rule="nonzero" fill-opacity="1" /><polyline clip-path="url(#clip350)" style="stroke:#e26f46; stroke-linecap:round; stroke-linejoin:round; stroke-width:4; stroke-opacity:1; fill:none" points="253.896,198.898 400.328,198.898 "/>
<path clip-path="url(#clip350)" d="M424.733 181.618 L446.585 181.618 L446.585 185.553 L429.409 185.553 L429.409 195.784 L445.867 195.784 L445.867 199.719 L429.409 199.719 L429.409 212.242 L447.001 212.242 L447.001 216.178 L424.733 216.178 L424.733 181.618 Z" fill="#000000" fill-rule="nonzero" fill-opacity="1" /><path clip-path="url(#clip350)" d="M476.052 190.252 L466.677 202.867 L476.538 216.178 L471.515 216.178 L463.969 205.992 L456.423 216.178 L451.4 216.178 L461.469 202.613 L452.256 190.252 L457.279 190.252 L464.154 199.488 L471.029 190.252 L476.052 190.252 Z" fill="#000000" fill-rule="nonzero" fill-opacity="1" /><path clip-path="url(#clip350)" d="M494.339 203.145 Q489.177 203.145 487.186 204.326 Q485.196 205.506 485.196 208.354 Q485.196 210.622 486.677 211.965 Q488.182 213.284 490.751 213.284 Q494.293 213.284 496.422 210.784 Q498.575 208.261 498.575 204.094 L498.575 203.145 L494.339 203.145 M502.834 201.386 L502.834 216.178 L498.575 216.178 L498.575 212.242 Q497.117 214.603 494.941 215.738 Q492.765 216.849 489.617 216.849 Q485.635 216.849 483.274 214.627 Q480.936 212.381 480.936 208.631 Q480.936 204.256 483.853 202.034 Q486.793 199.812 492.603 199.812 L498.575 199.812 L498.575 199.395 Q498.575 196.455 496.631 194.858 Q494.71 193.238 491.214 193.238 Q488.992 193.238 486.885 193.77 Q484.779 194.303 482.835 195.367 L482.835 191.432 Q485.173 190.53 487.372 190.09 Q489.571 189.627 491.654 189.627 Q497.279 189.627 500.057 192.543 Q502.834 195.46 502.834 201.386 Z" fill="#000000" fill-rule="nonzero" fill-opacity="1" /><path clip-path="url(#clip350)" d="M530.265 191.247 L530.265 195.229 Q528.459 194.233 526.631 193.747 Q524.825 193.238 522.973 193.238 Q518.83 193.238 516.538 195.877 Q514.246 198.492 514.246 203.238 Q514.246 207.983 516.538 210.622 Q518.83 213.238 522.973 213.238 Q524.825 213.238 526.631 212.752 Q528.459 212.242 530.265 211.247 L530.265 215.182 Q528.482 216.016 526.561 216.432 Q524.663 216.849 522.51 216.849 Q516.654 216.849 513.205 213.168 Q509.756 209.488 509.756 203.238 Q509.756 196.895 513.228 193.261 Q516.723 189.627 522.788 189.627 Q524.756 189.627 526.631 190.043 Q528.506 190.437 530.265 191.247 Z" fill="#000000" fill-rule="nonzero" fill-opacity="1" /><path clip-path="url(#clip350)" d="M541.885 182.891 L541.885 190.252 L550.658 190.252 L550.658 193.562 L541.885 193.562 L541.885 207.636 Q541.885 210.807 542.742 211.71 Q543.621 212.613 546.283 212.613 L550.658 212.613 L550.658 216.178 L546.283 216.178 Q541.353 216.178 539.478 214.349 Q537.603 212.497 537.603 207.636 L537.603 193.562 L534.478 193.562 L534.478 190.252 L537.603 190.252 L537.603 182.891 L541.885 182.891 Z" fill="#000000" fill-rule="nonzero" fill-opacity="1" /></svg>
