<?xml version="1.0" encoding="utf-8"?>
<svg xmlns="http://www.w3.org/2000/svg" xmlns:xlink="http://www.w3.org/1999/xlink" width="600" height="400" viewBox="0 0 2400 1600">
<defs>
  <clipPath id="clip380">
    <rect x="0" y="0" width="2400" height="1600"/>
  </clipPath>
</defs>
<path clip-path="url(#clip380)" d="M0 1600 L2400 1600 L2400 0 L0 0  Z" fill="#ffffff" fill-rule="evenodd" fill-opacity="1"/>
<defs>
  <clipPath id="clip381">
    <rect x="480" y="0" width="1681" height="1600"/>
  </clipPath>
</defs>
<path clip-path="url(#clip380)" d="M192.339 1486.45 L2352.76 1486.45 L2352.76 47.2441 L192.339 47.2441  Z" fill="#ffffff" fill-rule="evenodd" fill-opacity="1"/>
<defs>
  <clipPath id="clip382">
    <rect x="192" y="47" width="2161" height="1440"/>
  </clipPath>
</defs>
<polyline clip-path="url(#clip382)" style="stroke:#000000; stroke-linecap:round; stroke-linejoin:round; stroke-width:2; stroke-opacity:0.1; fill:none" points="253.483,1486.45 253.483,47.2441 "/>
<polyline clip-path="url(#clip382)" style="stroke:#000000; stroke-linecap:round; stroke-linejoin:round; stroke-width:2; stroke-opacity:0.1; fill:none" points="763.015,1486.45 763.015,47.2441 "/>
<polyline clip-path="url(#clip382)" style="stroke:#000000; stroke-linecap:round; stroke-linejoin:round; stroke-width:2; stroke-opacity:0.1; fill:none" points="1272.55,1486.45 1272.55,47.2441 "/>
<polyline clip-path="url(#clip382)" style="stroke:#000000; stroke-linecap:round; stroke-linejoin:round; stroke-width:2; stroke-opacity:0.1; fill:none" points="1782.08,1486.45 1782.08,47.2441 "/>
<polyline clip-path="url(#clip382)" style="stroke:#000000; stroke-linecap:round; stroke-linejoin:round; stroke-width:2; stroke-opacity:0.1; fill:none" points="2291.61,1486.45 2291.61,47.2441 "/>
<polyline clip-path="url(#clip380)" style="stroke:#000000; stroke-linecap:round; stroke-linejoin:round; stroke-width:4; stroke-opacity:1; fill:none" points="192.339,1486.45 2352.76,1486.45 "/>
<polyline clip-path="url(#clip380)" style="stroke:#000000; stroke-linecap:round; stroke-linejoin:round; stroke-width:4; stroke-opacity:1; fill:none" points="253.483,1486.45 253.483,1467.55 "/>
<polyline clip-path="url(#clip380)" style="stroke:#000000; stroke-linecap:round; stroke-linejoin:round; stroke-width:4; stroke-opacity:1; fill:none" points="763.015,1486.45 763.015,1467.55 "/>
<polyline clip-path="url(#clip380)" style="stroke:#000000; stroke-linecap:round; stroke-linejoin:round; stroke-width:4; stroke-opacity:1; fill:none" points="1272.55,1486.45 1272.55,1467.55 "/>
<polyline clip-path="url(#clip380)" style="stroke:#000000; stroke-linecap:round; stroke-linejoin:round; stroke-width:4; stroke-opacity:1; fill:none" points="1782.08,1486.45 1782.08,1467.55 "/>
<polyline clip-path="url(#clip380)" style="stroke:#000000; stroke-linecap:round; stroke-linejoin:round; stroke-width:4; stroke-opacity:1; fill:none" points="2291.61,1486.45 2291.61,1467.55 "/>
<path clip-path="url(#clip380)" d="M200.011 1532.02 L229.686 1532.02 L229.686 1535.95 L200.011 1535.95 L200.011 1532.02 Z" fill="#000000" fill-rule="nonzero" fill-opacity="1" /><path clip-path="url(#clip380)" d="M240.589 1544.91 L248.228 1544.91 L248.228 1518.55 L239.918 1520.21 L239.918 1515.95 L248.182 1514.29 L252.858 1514.29 L252.858 1544.91 L260.497 1544.91 L260.497 1548.85 L240.589 1548.85 L240.589 1544.91 Z" fill="#000000" fill-rule="nonzero" fill-opacity="1" /><path clip-path="url(#clip380)" d="M269.941 1542.97 L274.825 1542.97 L274.825 1548.85 L269.941 1548.85 L269.941 1542.97 Z" fill="#000000" fill-rule="nonzero" fill-opacity="1" /><path clip-path="url(#clip380)" d="M295.01 1517.37 Q291.399 1517.37 289.57 1520.93 Q287.765 1524.47 287.765 1531.6 Q287.765 1538.71 289.57 1542.27 Q291.399 1545.82 295.01 1545.82 Q298.644 1545.82 300.45 1542.27 Q302.279 1538.71 302.279 1531.6 Q302.279 1524.47 300.45 1520.93 Q298.644 1517.37 295.01 1517.37 M295.01 1513.66 Q300.82 1513.66 303.876 1518.27 Q306.955 1522.85 306.955 1531.6 Q306.955 1540.33 303.876 1544.94 Q300.82 1549.52 295.01 1549.52 Q289.2 1549.52 286.121 1544.94 Q283.066 1540.33 283.066 1531.6 Q283.066 1522.85 286.121 1518.27 Q289.2 1513.66 295.01 1513.66 Z" fill="#000000" fill-rule="nonzero" fill-opacity="1" /><path clip-path="url(#clip380)" d="M710.041 1532.02 L739.717 1532.02 L739.717 1535.95 L710.041 1535.95 L710.041 1532.02 Z" fill="#000000" fill-rule="nonzero" fill-opacity="1" /><path clip-path="url(#clip380)" d="M759.809 1517.37 Q756.198 1517.37 754.369 1520.93 Q752.564 1524.47 752.564 1531.6 Q752.564 1538.71 754.369 1542.27 Q756.198 1545.82 759.809 1545.82 Q763.443 1545.82 765.249 1542.27 Q767.077 1538.71 767.077 1531.6 Q767.077 1524.47 765.249 1520.93 Q763.443 1517.37 759.809 1517.37 M759.809 1513.66 Q765.619 1513.66 768.675 1518.27 Q771.753 1522.85 771.753 1531.6 Q771.753 1540.33 768.675 1544.94 Q765.619 1549.52 759.809 1549.52 Q753.999 1549.52 750.92 1544.94 Q747.865 1540.33 747.865 1531.6 Q747.865 1522.85 750.92 1518.27 Q753.999 1513.66 759.809 1513.66 Z" fill="#000000" fill-rule="nonzero" fill-opacity="1" /><path clip-path="url(#clip380)" d="M779.971 1542.97 L784.855 1542.97 L784.855 1548.85 L779.971 1548.85 L779.971 1542.97 Z" fill="#000000" fill-rule="nonzero" fill-opacity="1" /><path clip-path="url(#clip380)" d="M795.087 1514.29 L813.443 1514.29 L813.443 1518.22 L799.369 1518.22 L799.369 1526.7 Q800.387 1526.35 801.406 1526.19 Q802.425 1526 803.443 1526 Q809.23 1526 812.61 1529.17 Q815.989 1532.34 815.989 1537.76 Q815.989 1543.34 812.517 1546.44 Q809.045 1549.52 802.725 1549.52 Q800.55 1549.52 798.281 1549.15 Q796.036 1548.78 793.628 1548.04 L793.628 1543.34 Q795.712 1544.47 797.934 1545.03 Q800.156 1545.58 802.633 1545.58 Q806.637 1545.58 808.975 1543.48 Q811.313 1541.37 811.313 1537.76 Q811.313 1534.15 808.975 1532.04 Q806.637 1529.94 802.633 1529.94 Q800.758 1529.94 798.883 1530.35 Q797.031 1530.77 795.087 1531.65 L795.087 1514.29 Z" fill="#000000" fill-rule="nonzero" fill-opacity="1" /><path clip-path="url(#clip380)" d="M1249.93 1517.37 Q1246.32 1517.37 1244.49 1520.93 Q1242.69 1524.47 1242.69 1531.6 Q1242.69 1538.71 1244.49 1542.27 Q1246.32 1545.82 1249.93 1545.82 Q1253.57 1545.82 1255.37 1542.27 Q1257.2 1538.71 1257.2 1531.6 Q1257.2 1524.47 1255.37 1520.93 Q1253.57 1517.37 1249.93 1517.37 M1249.93 1513.66 Q1255.74 1513.66 1258.8 1518.27 Q1261.88 1522.85 1261.88 1531.6 Q1261.88 1540.33 1258.8 1544.94 Q1255.74 1549.52 1249.93 1549.52 Q1244.12 1549.52 1241.04 1544.94 Q1237.99 1540.33 1237.99 1531.6 Q1237.99 1522.85 1241.04 1518.27 Q1244.12 1513.66 1249.93 1513.66 Z" fill="#000000" fill-rule="nonzero" fill-opacity="1" /><path clip-path="url(#clip380)" d="M1270.09 1542.97 L1274.98 1542.97 L1274.98 1548.85 L1270.09 1548.85 L1270.09 1542.97 Z" fill="#000000" fill-rule="nonzero" fill-opacity="1" /><path clip-path="url(#clip380)" d="M1295.16 1517.37 Q1291.55 1517.37 1289.72 1520.93 Q1287.92 1524.47 1287.92 1531.6 Q1287.92 1538.71 1289.72 1542.27 Q1291.55 1545.82 1295.16 1545.82 Q1298.8 1545.82 1300.6 1542.27 Q1302.43 1538.71 1302.43 1531.6 Q1302.43 1524.47 1300.6 1520.93 Q1298.8 1517.37 1295.16 1517.37 M1295.16 1513.66 Q1300.97 1513.66 1304.03 1518.27 Q1307.11 1522.85 1307.11 1531.6 Q1307.11 1540.33 1304.03 1544.94 Q1300.97 1549.52 1295.16 1549.52 Q1289.35 1549.52 1286.27 1544.94 Q1283.22 1540.33 1283.22 1531.6 Q1283.22 1522.85 1286.27 1518.27 Q1289.35 1513.66 1295.16 1513.66 Z" fill="#000000" fill-rule="nonzero" fill-opacity="1" /><path clip-path="url(#clip380)" d="M1759.96 1517.37 Q1756.35 1517.37 1754.52 1520.93 Q1752.72 1524.47 1752.72 1531.6 Q1752.72 1538.71 1754.52 1542.27 Q1756.35 1545.82 1759.96 1545.82 Q1763.6 1545.82 1765.4 1542.27 Q1767.23 1538.71 1767.23 1531.6 Q1767.23 1524.47 1765.4 1520.93 Q1763.6 1517.37 1759.96 1517.37 M1759.96 1513.66 Q1765.77 1513.66 1768.83 1518.27 Q1771.91 1522.85 1771.91 1531.6 Q1771.91 1540.33 1768.83 1544.94 Q1765.77 1549.52 1759.96 1549.52 Q1754.15 1549.52 1751.07 1544.94 Q1748.02 1540.33 1748.02 1531.6 Q1748.02 1522.85 1751.07 1518.27 Q1754.15 1513.66 1759.96 1513.66 Z" fill="#000000" fill-rule="nonzero" fill-opacity="1" /><path clip-path="url(#clip380)" d="M1780.12 1542.97 L1785.01 1542.97 L1785.01 1548.85 L1780.12 1548.85 L1780.12 1542.97 Z" fill="#000000" fill-rule="nonzero" fill-opacity="1" /><path clip-path="url(#clip380)" d="M1795.24 1514.29 L1813.6 1514.29 L1813.6 1518.22 L1799.52 1518.22 L1799.52 1526.7 Q1800.54 1526.35 1801.56 1526.19 Q1802.58 1526 1803.6 1526 Q1809.38 1526 1812.76 1529.17 Q1816.14 1532.34 1816.14 1537.76 Q1816.14 1543.34 1812.67 1546.44 Q1809.2 1549.52 1802.88 1549.52 Q1800.7 1549.52 1798.43 1549.15 Q1796.19 1548.78 1793.78 1548.04 L1793.78 1543.34 Q1795.86 1544.47 1798.09 1545.03 Q1800.31 1545.58 1802.79 1545.58 Q1806.79 1545.58 1809.13 1543.48 Q1811.47 1541.37 1811.47 1537.76 Q1811.47 1534.15 1809.13 1532.04 Q1806.79 1529.94 1802.79 1529.94 Q1800.91 1529.94 1799.04 1530.35 Q1797.18 1530.77 1795.24 1531.65 L1795.24 1514.29 Z" fill="#000000" fill-rule="nonzero" fill-opacity="1" /><path clip-path="url(#clip380)" d="M2258.76 1544.91 L2266.4 1544.91 L2266.4 1518.55 L2258.09 1520.21 L2258.09 1515.95 L2266.36 1514.29 L2271.03 1514.29 L2271.03 1544.91 L2278.67 1544.91 L2278.67 1548.85 L2258.76 1548.85 L2258.76 1544.91 Z" fill="#000000" fill-rule="nonzero" fill-opacity="1" /><path clip-path="url(#clip380)" d="M2288.12 1542.97 L2293 1542.97 L2293 1548.85 L2288.12 1548.85 L2288.12 1542.97 Z" fill="#000000" fill-rule="nonzero" fill-opacity="1" /><path clip-path="url(#clip380)" d="M2313.19 1517.37 Q2309.57 1517.37 2307.75 1520.93 Q2305.94 1524.47 2305.94 1531.6 Q2305.94 1538.71 2307.75 1542.27 Q2309.57 1545.82 2313.19 1545.82 Q2316.82 1545.82 2318.63 1542.27 Q2320.45 1538.71 2320.45 1531.6 Q2320.45 1524.47 2318.63 1520.93 Q2316.82 1517.37 2313.19 1517.37 M2313.19 1513.66 Q2319 1513.66 2322.05 1518.27 Q2325.13 1522.85 2325.13 1531.6 Q2325.13 1540.33 2322.05 1544.94 Q2319 1549.52 2313.19 1549.52 Q2307.38 1549.52 2304.3 1544.94 Q2301.24 1540.33 2301.24 1531.6 Q2301.24 1522.85 2304.3 1518.27 Q2307.38 1513.66 2313.19 1513.66 Z" fill="#000000" fill-rule="nonzero" fill-opacity="1" /><polyline clip-path="url(#clip382)" style="stroke:#000000; stroke-linecap:round; stroke-linejoin:round; stroke-width:2; stroke-opacity:0.1; fill:none" points="192.339,1384.7 2352.76,1384.7 "/>
<polyline clip-path="url(#clip382)" style="stroke:#000000; stroke-linecap:round; stroke-linejoin:round; stroke-width:2; stroke-opacity:0.1; fill:none" points="192.339,1209.27 2352.76,1209.27 "/>
<polyline clip-path="url(#clip382)" style="stroke:#000000; stroke-linecap:round; stroke-linejoin:round; stroke-width:2; stroke-opacity:0.1; fill:none" points="192.339,1033.84 2352.76,1033.84 "/>
<polyline clip-path="url(#clip382)" style="stroke:#000000; stroke-linecap:round; stroke-linejoin:round; stroke-width:2; stroke-opacity:0.1; fill:none" points="192.339,858.403 2352.76,858.403 "/>
<polyline clip-path="url(#clip382)" style="stroke:#000000; stroke-linecap:round; stroke-linejoin:round; stroke-width:2; stroke-opacity:0.1; fill:none" points="192.339,682.97 2352.76,682.97 "/>
<polyline clip-path="url(#clip382)" style="stroke:#000000; stroke-linecap:round; stroke-linejoin:round; stroke-width:2; stroke-opacity:0.1; fill:none" points="192.339,507.537 2352.76,507.537 "/>
<polyline clip-path="url(#clip382)" style="stroke:#000000; stroke-linecap:round; stroke-linejoin:round; stroke-width:2; stroke-opacity:0.1; fill:none" points="192.339,332.104 2352.76,332.104 "/>
<polyline clip-path="url(#clip382)" style="stroke:#000000; stroke-linecap:round; stroke-linejoin:round; stroke-width:2; stroke-opacity:0.1; fill:none" points="192.339,156.671 2352.76,156.671 "/>
<polyline clip-path="url(#clip380)" style="stroke:#000000; stroke-linecap:round; stroke-linejoin:round; stroke-width:4; stroke-opacity:1; fill:none" points="192.339,1486.45 192.339,47.2441 "/>
<polyline clip-path="url(#clip380)" style="stroke:#000000; stroke-linecap:round; stroke-linejoin:round; stroke-width:4; stroke-opacity:1; fill:none" points="192.339,1384.7 211.236,1384.7 "/>
<polyline clip-path="url(#clip380)" style="stroke:#000000; stroke-linecap:round; stroke-linejoin:round; stroke-width:4; stroke-opacity:1; fill:none" points="192.339,1209.27 211.236,1209.27 "/>
<polyline clip-path="url(#clip380)" style="stroke:#000000; stroke-linecap:round; stroke-linejoin:round; stroke-width:4; stroke-opacity:1; fill:none" points="192.339,1033.84 211.236,1033.84 "/>
<polyline clip-path="url(#clip380)" style="stroke:#000000; stroke-linecap:round; stroke-linejoin:round; stroke-width:4; stroke-opacity:1; fill:none" points="192.339,858.403 211.236,858.403 "/>
<polyline clip-path="url(#clip380)" style="stroke:#000000; stroke-linecap:round; stroke-linejoin:round; stroke-width:4; stroke-opacity:1; fill:none" points="192.339,682.97 211.236,682.97 "/>
<polyline clip-path="url(#clip380)" style="stroke:#000000; stroke-linecap:round; stroke-linejoin:round; stroke-width:4; stroke-opacity:1; fill:none" points="192.339,507.537 211.236,507.537 "/>
<polyline clip-path="url(#clip380)" style="stroke:#000000; stroke-linecap:round; stroke-linejoin:round; stroke-width:4; stroke-opacity:1; fill:none" points="192.339,332.104 211.236,332.104 "/>
<polyline clip-path="url(#clip380)" style="stroke:#000000; stroke-linecap:round; stroke-linejoin:round; stroke-width:4; stroke-opacity:1; fill:none" points="192.339,156.671 211.236,156.671 "/>
<path clip-path="url(#clip380)" d="M50.9921 1385.15 L80.6679 1385.15 L80.6679 1389.09 L50.9921 1389.09 L50.9921 1385.15 Z" fill="#000000" fill-rule="nonzero" fill-opacity="1" /><path clip-path="url(#clip380)" d="M100.76 1370.5 Q97.1493 1370.5 95.3206 1374.07 Q93.515 1377.61 93.515 1384.74 Q93.515 1391.84 95.3206 1395.41 Q97.1493 1398.95 100.76 1398.95 Q104.395 1398.95 106.2 1395.41 Q108.029 1391.84 108.029 1384.74 Q108.029 1377.61 106.2 1374.07 Q104.395 1370.5 100.76 1370.5 M100.76 1366.8 Q106.571 1366.8 109.626 1371.4 Q112.705 1375.99 112.705 1384.74 Q112.705 1393.46 109.626 1398.07 Q106.571 1402.65 100.76 1402.65 Q94.9502 1402.65 91.8715 1398.07 Q88.816 1393.46 88.816 1384.74 Q88.816 1375.99 91.8715 1371.4 Q94.9502 1366.8 100.76 1366.8 Z" fill="#000000" fill-rule="nonzero" fill-opacity="1" /><path clip-path="url(#clip380)" d="M120.922 1396.1 L125.807 1396.1 L125.807 1401.98 L120.922 1401.98 L120.922 1396.1 Z" fill="#000000" fill-rule="nonzero" fill-opacity="1" /><path clip-path="url(#clip380)" d="M140.019 1398.05 L156.339 1398.05 L156.339 1401.98 L134.394 1401.98 L134.394 1398.05 Q137.056 1395.29 141.64 1390.66 Q146.246 1386.01 147.427 1384.67 Q149.672 1382.14 150.552 1380.41 Q151.455 1378.65 151.455 1376.96 Q151.455 1374.2 149.51 1372.47 Q147.589 1370.73 144.487 1370.73 Q142.288 1370.73 139.834 1371.5 Q137.404 1372.26 134.626 1373.81 L134.626 1369.09 Q137.45 1367.95 139.904 1367.38 Q142.357 1366.8 144.394 1366.8 Q149.765 1366.8 152.959 1369.48 Q156.154 1372.17 156.154 1376.66 Q156.154 1378.79 155.343 1380.71 Q154.556 1382.61 152.45 1385.2 Q151.871 1385.87 148.769 1389.09 Q145.668 1392.28 140.019 1398.05 Z" fill="#000000" fill-rule="nonzero" fill-opacity="1" /><path clip-path="url(#clip380)" d="M99.1632 1195.07 Q95.5521 1195.07 93.7234 1198.63 Q91.9178 1202.17 91.9178 1209.3 Q91.9178 1216.41 93.7234 1219.98 Q95.5521 1223.52 99.1632 1223.52 Q102.797 1223.52 104.603 1219.98 Q106.432 1216.41 106.432 1209.3 Q106.432 1202.17 104.603 1198.63 Q102.797 1195.07 99.1632 1195.07 M99.1632 1191.36 Q104.973 1191.36 108.029 1195.97 Q111.108 1200.55 111.108 1209.3 Q111.108 1218.03 108.029 1222.64 Q104.973 1227.22 99.1632 1227.22 Q93.353 1227.22 90.2743 1222.64 Q87.2188 1218.03 87.2188 1209.3 Q87.2188 1200.55 90.2743 1195.97 Q93.353 1191.36 99.1632 1191.36 Z" fill="#000000" fill-rule="nonzero" fill-opacity="1" /><path clip-path="url(#clip380)" d="M119.325 1220.67 L124.209 1220.67 L124.209 1226.55 L119.325 1226.55 L119.325 1220.67 Z" fill="#000000" fill-rule="nonzero" fill-opacity="1" /><path clip-path="url(#clip380)" d="M144.394 1195.07 Q140.783 1195.07 138.955 1198.63 Q137.149 1202.17 137.149 1209.3 Q137.149 1216.41 138.955 1219.98 Q140.783 1223.52 144.394 1223.52 Q148.029 1223.52 149.834 1219.98 Q151.663 1216.41 151.663 1209.3 Q151.663 1202.17 149.834 1198.63 Q148.029 1195.07 144.394 1195.07 M144.394 1191.36 Q150.205 1191.36 153.26 1195.97 Q156.339 1200.55 156.339 1209.3 Q156.339 1218.03 153.26 1222.64 Q150.205 1227.22 144.394 1227.22 Q138.584 1227.22 135.506 1222.64 Q132.45 1218.03 132.45 1209.3 Q132.45 1200.55 135.506 1195.97 Q138.584 1191.36 144.394 1191.36 Z" fill="#000000" fill-rule="nonzero" fill-opacity="1" /><path clip-path="url(#clip380)" d="M100.76 1019.63 Q97.1493 1019.63 95.3206 1023.2 Q93.515 1026.74 93.515 1033.87 Q93.515 1040.98 95.3206 1044.54 Q97.1493 1048.08 100.76 1048.08 Q104.395 1048.08 106.2 1044.54 Q108.029 1040.98 108.029 1033.87 Q108.029 1026.74 106.2 1023.2 Q104.395 1019.63 100.76 1019.63 M100.76 1015.93 Q106.571 1015.93 109.626 1020.54 Q112.705 1025.12 112.705 1033.87 Q112.705 1042.6 109.626 1047.2 Q106.571 1051.79 100.76 1051.79 Q94.9502 1051.79 91.8715 1047.2 Q88.816 1042.6 88.816 1033.87 Q88.816 1025.12 91.8715 1020.54 Q94.9502 1015.93 100.76 1015.93 Z" fill="#000000" fill-rule="nonzero" fill-opacity="1" /><path clip-path="url(#clip380)" d="M120.922 1045.24 L125.807 1045.24 L125.807 1051.12 L120.922 1051.12 L120.922 1045.24 Z" fill="#000000" fill-rule="nonzero" fill-opacity="1" /><path clip-path="url(#clip380)" d="M140.019 1047.18 L156.339 1047.18 L156.339 1051.12 L134.394 1051.12 L134.394 1047.18 Q137.056 1044.43 141.64 1039.8 Q146.246 1035.14 147.427 1033.8 Q149.672 1031.28 150.552 1029.54 Q151.455 1027.78 151.455 1026.09 Q151.455 1023.34 149.51 1021.6 Q147.589 1019.87 144.487 1019.87 Q142.288 1019.87 139.834 1020.63 Q137.404 1021.39 134.626 1022.94 L134.626 1018.22 Q137.45 1017.09 139.904 1016.51 Q142.357 1015.93 144.394 1015.93 Q149.765 1015.93 152.959 1018.62 Q156.154 1021.3 156.154 1025.79 Q156.154 1027.92 155.343 1029.84 Q154.556 1031.74 152.45 1034.33 Q151.871 1035.01 148.769 1038.22 Q145.668 1041.42 140.019 1047.18 Z" fill="#000000" fill-rule="nonzero" fill-opacity="1" /><path clip-path="url(#clip380)" d="M98.6771 844.202 Q95.066 844.202 93.2373 847.767 Q91.4317 851.308 91.4317 858.438 Q91.4317 865.544 93.2373 869.109 Q95.066 872.651 98.6771 872.651 Q102.311 872.651 104.117 869.109 Q105.946 865.544 105.946 858.438 Q105.946 851.308 104.117 847.767 Q102.311 844.202 98.6771 844.202 M98.6771 840.498 Q104.487 840.498 107.543 845.105 Q110.621 849.688 110.621 858.438 Q110.621 867.165 107.543 871.771 Q104.487 876.354 98.6771 876.354 Q92.8669 876.354 89.7882 871.771 Q86.7327 867.165 86.7327 858.438 Q86.7327 849.688 89.7882 845.105 Q92.8669 840.498 98.6771 840.498 Z" fill="#000000" fill-rule="nonzero" fill-opacity="1" /><path clip-path="url(#clip380)" d="M118.839 869.804 L123.723 869.804 L123.723 875.683 L118.839 875.683 L118.839 869.804 Z" fill="#000000" fill-rule="nonzero" fill-opacity="1" /><path clip-path="url(#clip380)" d="M146.756 845.197 L134.95 863.646 L146.756 863.646 L146.756 845.197 M145.529 841.123 L151.408 841.123 L151.408 863.646 L156.339 863.646 L156.339 867.535 L151.408 867.535 L151.408 875.683 L146.756 875.683 L146.756 867.535 L131.154 867.535 L131.154 863.021 L145.529 841.123 Z" fill="#000000" fill-rule="nonzero" fill-opacity="1" /><path clip-path="url(#clip380)" d="M99.0011 668.769 Q95.39 668.769 93.5613 672.334 Q91.7558 675.875 91.7558 683.005 Q91.7558 690.111 93.5613 693.676 Q95.39 697.218 99.0011 697.218 Q102.635 697.218 104.441 693.676 Q106.27 690.111 106.27 683.005 Q106.27 675.875 104.441 672.334 Q102.635 668.769 99.0011 668.769 M99.0011 665.065 Q104.811 665.065 107.867 669.672 Q110.946 674.255 110.946 683.005 Q110.946 691.732 107.867 696.338 Q104.811 700.921 99.0011 700.921 Q93.191 700.921 90.1123 696.338 Q87.0567 691.732 87.0567 683.005 Q87.0567 674.255 90.1123 669.672 Q93.191 665.065 99.0011 665.065 Z" fill="#000000" fill-rule="nonzero" fill-opacity="1" /><path clip-path="url(#clip380)" d="M119.163 694.371 L124.047 694.371 L124.047 700.25 L119.163 700.25 L119.163 694.371 Z" fill="#000000" fill-rule="nonzero" fill-opacity="1" /><path clip-path="url(#clip380)" d="M144.811 681.107 Q141.663 681.107 139.811 683.26 Q137.982 685.412 137.982 689.162 Q137.982 692.889 139.811 695.065 Q141.663 697.218 144.811 697.218 Q147.959 697.218 149.788 695.065 Q151.64 692.889 151.64 689.162 Q151.64 685.412 149.788 683.26 Q147.959 681.107 144.811 681.107 M154.093 666.454 L154.093 670.713 Q152.334 669.88 150.529 669.44 Q148.746 669 146.987 669 Q142.357 669 139.904 672.125 Q137.473 675.25 137.126 681.57 Q138.492 679.556 140.552 678.491 Q142.612 677.403 145.089 677.403 Q150.297 677.403 153.306 680.574 Q156.339 683.723 156.339 689.162 Q156.339 694.486 153.191 697.704 Q150.043 700.921 144.811 700.921 Q138.816 700.921 135.644 696.338 Q132.473 691.732 132.473 683.005 Q132.473 674.811 136.362 669.949 Q140.251 665.065 146.802 665.065 Q148.561 665.065 150.343 665.412 Q152.149 665.76 154.093 666.454 Z" fill="#000000" fill-rule="nonzero" fill-opacity="1" /><path clip-path="url(#clip380)" d="M99.2558 493.336 Q95.6447 493.336 93.816 496.901 Q92.0104 500.442 92.0104 507.572 Q92.0104 514.678 93.816 518.243 Q95.6447 521.785 99.2558 521.785 Q102.89 521.785 104.696 518.243 Q106.524 514.678 106.524 507.572 Q106.524 500.442 104.696 496.901 Q102.89 493.336 99.2558 493.336 M99.2558 489.632 Q105.066 489.632 108.121 494.239 Q111.2 498.822 111.2 507.572 Q111.2 516.299 108.121 520.905 Q105.066 525.489 99.2558 525.489 Q93.4456 525.489 90.3669 520.905 Q87.3114 516.299 87.3114 507.572 Q87.3114 498.822 90.3669 494.239 Q93.4456 489.632 99.2558 489.632 Z" fill="#000000" fill-rule="nonzero" fill-opacity="1" /><path clip-path="url(#clip380)" d="M119.418 518.938 L124.302 518.938 L124.302 524.817 L119.418 524.817 L119.418 518.938 Z" fill="#000000" fill-rule="nonzero" fill-opacity="1" /><path clip-path="url(#clip380)" d="M144.487 508.405 Q141.154 508.405 139.232 510.188 Q137.334 511.97 137.334 515.095 Q137.334 518.22 139.232 520.002 Q141.154 521.785 144.487 521.785 Q147.82 521.785 149.742 520.002 Q151.663 518.197 151.663 515.095 Q151.663 511.97 149.742 510.188 Q147.843 508.405 144.487 508.405 M139.811 506.415 Q136.802 505.674 135.112 503.614 Q133.445 501.553 133.445 498.591 Q133.445 494.447 136.385 492.04 Q139.348 489.632 144.487 489.632 Q149.649 489.632 152.589 492.04 Q155.529 494.447 155.529 498.591 Q155.529 501.553 153.839 503.614 Q152.172 505.674 149.186 506.415 Q152.566 507.202 154.441 509.493 Q156.339 511.785 156.339 515.095 Q156.339 520.118 153.26 522.803 Q150.205 525.489 144.487 525.489 Q138.769 525.489 135.691 522.803 Q132.635 520.118 132.635 515.095 Q132.635 511.785 134.533 509.493 Q136.431 507.202 139.811 506.415 M138.098 499.03 Q138.098 501.716 139.765 503.22 Q141.455 504.725 144.487 504.725 Q147.496 504.725 149.186 503.22 Q150.899 501.716 150.899 499.03 Q150.899 496.345 149.186 494.841 Q147.496 493.336 144.487 493.336 Q141.455 493.336 139.765 494.841 Q138.098 496.345 138.098 499.03 Z" fill="#000000" fill-rule="nonzero" fill-opacity="1" /><path clip-path="url(#clip380)" d="M89.9734 345.449 L97.6122 345.449 L97.6122 319.084 L89.3021 320.75 L89.3021 316.491 L97.566 314.824 L102.242 314.824 L102.242 345.449 L109.881 345.449 L109.881 349.384 L89.9734 349.384 L89.9734 345.449 Z" fill="#000000" fill-rule="nonzero" fill-opacity="1" /><path clip-path="url(#clip380)" d="M119.325 343.505 L124.209 343.505 L124.209 349.384 L119.325 349.384 L119.325 343.505 Z" fill="#000000" fill-rule="nonzero" fill-opacity="1" /><path clip-path="url(#clip380)" d="M144.394 317.903 Q140.783 317.903 138.955 321.468 Q137.149 325.009 137.149 332.139 Q137.149 339.245 138.955 342.81 Q140.783 346.352 144.394 346.352 Q148.029 346.352 149.834 342.81 Q151.663 339.245 151.663 332.139 Q151.663 325.009 149.834 321.468 Q148.029 317.903 144.394 317.903 M144.394 314.199 Q150.205 314.199 153.26 318.806 Q156.339 323.389 156.339 332.139 Q156.339 340.866 153.26 345.472 Q150.205 350.056 144.394 350.056 Q138.584 350.056 135.506 345.472 Q132.45 340.866 132.45 332.139 Q132.45 323.389 135.506 318.806 Q138.584 314.199 144.394 314.199 Z" fill="#000000" fill-rule="nonzero" fill-opacity="1" /><path clip-path="url(#clip380)" d="M91.5706 170.016 L99.2095 170.016 L99.2095 143.651 L90.8993 145.317 L90.8993 141.058 L99.1632 139.391 L103.839 139.391 L103.839 170.016 L111.478 170.016 L111.478 173.951 L91.5706 173.951 L91.5706 170.016 Z" fill="#000000" fill-rule="nonzero" fill-opacity="1" /><path clip-path="url(#clip380)" d="M120.922 168.072 L125.807 168.072 L125.807 173.951 L120.922 173.951 L120.922 168.072 Z" fill="#000000" fill-rule="nonzero" fill-opacity="1" /><path clip-path="url(#clip380)" d="M140.019 170.016 L156.339 170.016 L156.339 173.951 L134.394 173.951 L134.394 170.016 Q137.056 167.262 141.64 162.632 Q146.246 157.979 147.427 156.637 Q149.672 154.114 150.552 152.377 Q151.455 150.618 151.455 148.928 Q151.455 146.174 149.51 144.438 Q147.589 142.702 144.487 142.702 Q142.288 142.702 139.834 143.465 Q137.404 144.229 134.626 145.78 L134.626 141.058 Q137.45 139.924 139.904 139.345 Q142.357 138.766 144.394 138.766 Q149.765 138.766 152.959 141.452 Q156.154 144.137 156.154 148.627 Q156.154 150.757 155.343 152.678 Q154.556 154.576 152.45 157.169 Q151.871 157.84 148.769 161.058 Q145.668 164.252 140.019 170.016 Z" fill="#000000" fill-rule="nonzero" fill-opacity="1" /><polyline clip-path="url(#clip382)" style="stroke:#009af9; stroke-linecap:round; stroke-linejoin:round; stroke-width:16; stroke-opacity:1; fill:none" stroke-dasharray="8, 16" points="253.483,1077.5 263.725,1063.61 273.966,1050.87 284.208,1040.5 294.45,1034.1 304.692,1033.46 314.934,1040.17 325.176,1055.04 335.418,1077.49 345.659,1105.28 355.901,1135.01 366.143,1163.46 376.385,1189.32 386.627,1214.15 396.869,1241.36 407.111,1273.05 417.352,1306.97 427.594,1337.48 437.836,1360.1 448.078,1373.99 458.32,1380.66 468.562,1382.09 478.803,1379.69 489.045,1373.85 499.287,1364.04 509.529,1349.34 519.771,1329.11 530.013,1303.42 540.255,1273.34 550.497,1240.81 560.738,1208.02 570.98,1176.63 581.222,1147.4 591.464,1120.45 601.706,1095.75 611.948,1073.63 622.19,1055.15 632.431,1042.06 642.673,1035.62 652.915,1035.28 663.157,1039.47 673.399,1047.81 683.641,1061.47 693.882,1081.4 704.124,1106.87 714.366,1135.9 724.608,1166.64 734.85,1197.97 745.092,1229.01 755.334,1258.97 765.575,1287.41 775.817,1314.01 786.059,1338.08 796.301,1358.3 806.543,1373.23 816.785,1382.06 827.027,1384.88 837.268,1382.33 847.51,1374.94 857.752,1362.59 867.994,1344.39 878.236,1319.53 888.478,1289.02 898.72,1256.7 908.961,1227.37 919.203,1202.05 929.445,1174.67 939.687,1137.87 949.929,1099.4 960.171,1086.43 970.413,1109.47 980.654,1127.5 990.896,1097.09 1001.14,1039.26 1011.38,1010.85 1021.62,1030.37 1031.86,1063.61 1042.11,1073.48 1052.35,1055.02 1062.59,1041.34 1072.83,1075.8 1083.07,1160.69 1093.31,1228.54 1103.56,1239.55 1113.8,1260.45 1124.04,1297.73 1134.28,1310.08 1144.52,1313.09 1154.77,1329.04 1165.01,1363.17 1175.25,1409.34 1185.49,1445.72 1195.73,1441.5 1205.98,1391.53 1216.22,1333.34 1226.46,1311.03 1236.7,1325.22 1246.94,1314.43 1257.18,1181.32 1267.43,894.565 1277.67,574.886 1287.91,374.945 1298.15,315.076 1308.39,323.402 1318.64,340.082 1328.88,346.53 1339.12,349.797 1349.36,360.898 1359.6,373.958 1369.84,353.937 1380.09,287.318 1390.33,238.327 1400.57,256.103 1410.81,303.887 1421.05,332.623 1431.3,351.485 1441.54,378.149 1451.78,387.888 1462.02,368.383 1472.26,333.594 1482.51,297.903 1492.75,278.719 1502.99,279.723 1513.23,288.822 1523.47,305.179 1533.71,326.915 1543.96,347.471 1554.2,377.962 1564.44,419.957 1574.68,430.311 1584.92,384.229 1595.17,315.593 1605.41,268.415 1615.65,247.654 1625.89,241.362 1636.13,255.675 1646.38,291.401 1656.62,336.27 1666.86,379.427 1677.1,414.436 1687.34,434.011 1697.58,427.2 1707.83,386.386 1718.07,319.735 1728.31,252.338 1738.55,210.67 1748.79,207.395 1759.04,239.884 1769.28,296.584 1779.52,362.195 1789.76,420.462 1800,456.771 1810.24,461.057 1820.49,430.142 1830.73,369.298 1840.97,293.11 1851.21,223.528 1861.45,183.049 1871.7,185.676 1881.94,231.525 1892.18,307.594 1902.42,392.76 1912.66,463.908 1922.91,501.289 1933.15,492.615 1943.39,436.245 1953.63,343.674 1963.87,240.046 1974.11,159.225 1984.36,131.124 1994.6,166.72 2004.84,252.33 2015.08,358.215 2025.32,453.295 2035.57,514.842 2045.81,530.248 2056.05,495.271 2066.29,413.807 2076.53,300.998 2086.77,186.512 2097.02,109.861 2107.26,102.589 2117.5,168.591 2127.74,283.255 2137.98,410.687 2148.23,516.67 2158.47,569.263 2168.71,544.267 2178.95,445.279 2189.19,312.574 2199.44,199.199 2209.68,139.157 2219.92,137.762 2230.16,181.331 2240.4,250.106 2250.64,326.573 2260.89,398.887 2271.13,461.016 2281.37,511.242 2291.61,550.338 "/>
<polyline clip-path="url(#clip382)" style="stroke:#e26f46; stroke-linecap:round; stroke-linejoin:round; stroke-width:4; stroke-opacity:1; fill:none" points="253.483,1077.52 263.725,1058.83 273.966,1045.05 284.208,1036.62 294.45,1033.84 304.692,1036.77 314.934,1045.34 325.176,1059.26 335.418,1078.07 345.659,1101.17 355.901,1127.79 366.143,1157.08 376.385,1188.06 386.627,1219.74 396.869,1251.08 407.111,1281.05 417.352,1308.68 427.594,1333.06 437.836,1353.41 448.078,1369.05 458.32,1379.47 468.562,1384.34 478.803,1383.5 489.045,1376.97 499.287,1364.97 509.529,1347.88 519.771,1326.27 530.013,1300.85 540.255,1272.43 550.497,1241.95 560.738,1210.41 570.98,1178.83 581.222,1148.24 591.464,1119.64 601.706,1093.97 611.948,1072.06 622.19,1054.63 632.431,1042.25 642.673,1035.32 652.915,1034.06 663.157,1038.53 673.399,1048.56 683.641,1063.84 693.882,1083.87 704.124,1107.99 714.366,1135.42 724.608,1165.25 734.85,1196.52 745.092,1228.21 755.334,1259.28 765.575,1288.72 775.817,1315.57 786.059,1338.94 796.301,1358.08 806.543,1372.37 816.785,1381.33 827.027,1384.68 837.268,1382.3 847.51,1374.28 857.752,1360.87 867.994,1342.51 878.236,1319.8 888.478,1293.49 898.72,1264.43 908.961,1233.56 919.203,1201.91 929.445,1170.49 939.687,1140.34 949.929,1112.44 960.171,1087.7 970.413,1066.93 980.654,1050.8 990.896,1039.85 1001.14,1034.42 1011.38,1034.7 1021.62,1040.68 1031.86,1052.16 1042.11,1068.77 1052.35,1089.96 1062.59,1115.05 1072.83,1143.21 1083.07,1173.53 1093.31,1205.02 1103.56,1236.64 1113.8,1267.37 1124.04,1296.21 1134.28,1322.2 1144.52,1344.51 1154.77,1362.41 1165.01,1375.31 1175.25,1382.79 1185.49,1384.61 1195.73,1380.7 1205.98,1371.2 1216.22,1356.41 1226.46,1336.82 1236.7,1313.07 1246.94,1285.93 1257.18,1256.29 1267.43,1225.12 1277.67,330.83 1287.91,329.381 1298.15,330.7 1308.39,335.092 1318.64,341.212 1328.88,346.472 1339.12,348.03 1349.36,343.982 1359.6,334.333 1369.84,321.326 1380.09,308.948 1390.33,301.717 1400.57,303.104 1410.81,314.137 1421.05,332.694 1431.3,353.813 1441.54,371.01 1451.78,378.265 1462.02,372.055 1472.26,352.787 1482.51,325.073 1492.75,296.671 1502.99,276.315 1513.23,271.042 1523.47,283.825 1533.71,312.305 1543.96,349.086 1554.2,383.638 1564.44,405.307 1574.68,406.591 1584.92,385.656 1595.17,347.288 1605.41,301.871 1615.65,262.585 1625.89,241.584 1636.13,246.254 1646.38,276.701 1656.62,325.307 1666.86,378.592 1677.1,420.947 1687.34,439.209 1697.58,426.721 1707.83,385.658 1718.07,326.803 1728.31,266.743 1738.55,223.194 1748.79,209.782 1759.04,231.805 1769.28,284.297 1779.52,353.062 1789.76,418.502 1800,461.195 1810.24,467.662 1820.49,434.581 1830.73,370.167 1840.97,292.179 1851.21,223.037 1861.45,183.371 1871.7,185.878 1881.94,231.301 1892.18,307.79 1902.42,393.966 1912.66,464.891 1922.91,499.283 1933.15,485.891 1943.39,427.122 1953.63,338.762 1963.87,245.76 1974.11,175.179 1984.36,148.331 1994.6,174.349 2004.84,247.159 2015.08,346.82 2025.32,444.977 2035.57,512.92 2045.81,529.986 2056.05,489.819 2066.29,402.617 2076.53,292.586 2086.77,191.23 2097.02,128.331 2107.26,123.2 2117.5,178.777 2127.74,280.36 2137.98,399.469 2148.23,501.825 2158.47,557.21 2168.71,548.392 2178.95,476.446 2189.19,360.868 2199.44,234.313 2209.68,133.368 2219.92,87.9763 2230.16,112.566 2240.4,201.504 2250.64,330.303 2260.89,462.35 2271.13,559.318 2281.37,592.281 2291.61,550.337 "/>
<path clip-path="url(#clip380)" d="M264.353 250.738 L707.222 250.738 L707.222 95.2176 L264.353 95.2176  Z" fill="#ffffff" fill-rule="evenodd" fill-opacity="1"/>
<polyline clip-path="url(#clip380)" style="stroke:#000000; stroke-linecap:round; stroke-linejoin:round; stroke-width:4; stroke-opacity:1; fill:none" points="264.353,250.738 707.222,250.738 707.222,95.2176 264.353,95.2176 264.353,250.738 "/>
<polyline clip-path="url(#clip380)" style="stroke:#009af9; stroke-linecap:round; stroke-linejoin:round; stroke-width:16; stroke-opacity:1; fill:none" stroke-dasharray="8, 16" points="288.357,147.058 432.385,147.058 "/>
<path clip-path="url(#clip380)" d="M461.066 133.62 L461.066 146.606 L466.945 146.606 Q470.209 146.606 471.992 144.916 Q473.774 143.227 473.774 140.102 Q473.774 137 471.992 135.31 Q470.209 133.62 466.945 133.62 L461.066 133.62 M456.39 129.778 L466.945 129.778 Q472.755 129.778 475.718 132.416 Q478.704 135.032 478.704 140.102 Q478.704 145.217 475.718 147.833 Q472.755 150.449 466.945 150.449 L461.066 150.449 L461.066 164.338 L456.39 164.338 L456.39 129.778 Z" fill="#000000" fill-rule="nonzero" fill-opacity="1" /><path clip-path="url(#clip380)" d="M498.982 142.393 Q498.265 141.977 497.408 141.791 Q496.575 141.583 495.556 141.583 Q491.945 141.583 490.001 143.944 Q488.079 146.282 488.079 150.68 L488.079 164.338 L483.797 164.338 L483.797 138.412 L488.079 138.412 L488.079 142.44 Q489.422 140.078 491.575 138.944 Q493.728 137.787 496.806 137.787 Q497.246 137.787 497.778 137.856 Q498.311 137.903 498.959 138.018 L498.982 142.393 Z" fill="#000000" fill-rule="nonzero" fill-opacity="1" /><path clip-path="url(#clip380)" d="M524.584 150.31 L524.584 152.393 L505.001 152.393 Q505.278 156.791 507.639 159.106 Q510.024 161.398 514.26 161.398 Q516.714 161.398 519.005 160.796 Q521.32 160.194 523.588 158.99 L523.588 163.018 Q521.297 163.99 518.889 164.5 Q516.482 165.009 514.005 165.009 Q507.802 165.009 504.167 161.398 Q500.556 157.787 500.556 151.629 Q500.556 145.264 503.982 141.537 Q507.431 137.787 513.264 137.787 Q518.496 137.787 521.528 141.166 Q524.584 144.523 524.584 150.31 M520.325 149.06 Q520.278 145.565 518.357 143.481 Q516.459 141.398 513.311 141.398 Q509.746 141.398 507.593 143.412 Q505.464 145.426 505.14 149.083 L520.325 149.06 Z" fill="#000000" fill-rule="nonzero" fill-opacity="1" /><path clip-path="url(#clip380)" d="M548.635 142.347 L548.635 128.319 L552.894 128.319 L552.894 164.338 L548.635 164.338 L548.635 160.449 Q547.292 162.763 545.232 163.898 Q543.195 165.009 540.325 165.009 Q535.625 165.009 532.663 161.259 Q529.723 157.509 529.723 151.398 Q529.723 145.287 532.663 141.537 Q535.625 137.787 540.325 137.787 Q543.195 137.787 545.232 138.921 Q547.292 140.032 548.635 142.347 M534.121 151.398 Q534.121 156.097 536.042 158.782 Q537.987 161.444 541.366 161.444 Q544.746 161.444 546.69 158.782 Q548.635 156.097 548.635 151.398 Q548.635 146.699 546.69 144.037 Q544.746 141.352 541.366 141.352 Q537.987 141.352 536.042 144.037 Q534.121 146.699 534.121 151.398 Z" fill="#000000" fill-rule="nonzero" fill-opacity="1" /><path clip-path="url(#clip380)" d="M561.667 138.412 L565.926 138.412 L565.926 164.338 L561.667 164.338 L561.667 138.412 M561.667 128.319 L565.926 128.319 L565.926 133.713 L561.667 133.713 L561.667 128.319 Z" fill="#000000" fill-rule="nonzero" fill-opacity="1" /><path clip-path="url(#clip380)" d="M593.496 139.407 L593.496 143.389 Q591.69 142.393 589.861 141.907 Q588.056 141.398 586.204 141.398 Q582.06 141.398 579.769 144.037 Q577.477 146.652 577.477 151.398 Q577.477 156.143 579.769 158.782 Q582.06 161.398 586.204 161.398 Q588.056 161.398 589.861 160.912 Q591.69 160.402 593.496 159.407 L593.496 163.342 Q591.713 164.176 589.792 164.592 Q587.894 165.009 585.741 165.009 Q579.884 165.009 576.435 161.328 Q572.986 157.648 572.986 151.398 Q572.986 145.055 576.459 141.421 Q579.954 137.787 586.019 137.787 Q587.986 137.787 589.861 138.203 Q591.736 138.597 593.496 139.407 Z" fill="#000000" fill-rule="nonzero" fill-opacity="1" /><path clip-path="url(#clip380)" d="M605.116 131.051 L605.116 138.412 L613.889 138.412 L613.889 141.722 L605.116 141.722 L605.116 155.796 Q605.116 158.967 605.972 159.87 Q606.852 160.773 609.514 160.773 L613.889 160.773 L613.889 164.338 L609.514 164.338 Q604.583 164.338 602.708 162.509 Q600.833 160.657 600.833 155.796 L600.833 141.722 L597.708 141.722 L597.708 138.412 L600.833 138.412 L600.833 131.051 L605.116 131.051 Z" fill="#000000" fill-rule="nonzero" fill-opacity="1" /><path clip-path="url(#clip380)" d="M619.491 138.412 L623.75 138.412 L623.75 164.338 L619.491 164.338 L619.491 138.412 M619.491 128.319 L623.75 128.319 L623.75 133.713 L619.491 133.713 L619.491 128.319 Z" fill="#000000" fill-rule="nonzero" fill-opacity="1" /><path clip-path="url(#clip380)" d="M642.708 141.398 Q639.282 141.398 637.292 144.083 Q635.301 146.745 635.301 151.398 Q635.301 156.051 637.268 158.736 Q639.259 161.398 642.708 161.398 Q646.111 161.398 648.102 158.713 Q650.092 156.027 650.092 151.398 Q650.092 146.791 648.102 144.106 Q646.111 141.398 642.708 141.398 M642.708 137.787 Q648.264 137.787 651.435 141.398 Q654.606 145.009 654.606 151.398 Q654.606 157.764 651.435 161.398 Q648.264 165.009 642.708 165.009 Q637.13 165.009 633.958 161.398 Q630.81 157.764 630.81 151.398 Q630.81 145.009 633.958 141.398 Q637.13 137.787 642.708 137.787 Z" fill="#000000" fill-rule="nonzero" fill-opacity="1" /><path clip-path="url(#clip380)" d="M683.217 148.689 L683.217 164.338 L678.958 164.338 L678.958 148.828 Q678.958 145.148 677.523 143.319 Q676.088 141.49 673.217 141.49 Q669.768 141.49 667.778 143.69 Q665.787 145.889 665.787 149.685 L665.787 164.338 L661.504 164.338 L661.504 138.412 L665.787 138.412 L665.787 142.44 Q667.315 140.102 669.375 138.944 Q671.458 137.787 674.166 137.787 Q678.634 137.787 680.926 140.565 Q683.217 143.319 683.217 148.689 Z" fill="#000000" fill-rule="nonzero" fill-opacity="1" /><polyline clip-path="url(#clip380)" style="stroke:#e26f46; stroke-linecap:round; stroke-linejoin:round; stroke-width:4; stroke-opacity:1; fill:none" points="288.357,198.898 432.385,198.898 "/>
<path clip-path="url(#clip380)" d="M456.39 181.618 L478.242 181.618 L478.242 185.553 L461.066 185.553 L461.066 195.784 L477.524 195.784 L477.524 199.719 L461.066 199.719 L461.066 212.242 L478.658 212.242 L478.658 216.178 L456.39 216.178 L456.39 181.618 Z" fill="#000000" fill-rule="nonzero" fill-opacity="1" /><path clip-path="url(#clip380)" d="M507.709 190.252 L498.334 202.867 L508.195 216.178 L503.172 216.178 L495.626 205.992 L488.079 216.178 L483.056 216.178 L493.126 202.613 L483.913 190.252 L488.936 190.252 L495.811 199.488 L502.686 190.252 L507.709 190.252 Z" fill="#000000" fill-rule="nonzero" fill-opacity="1" /><path clip-path="url(#clip380)" d="M525.996 203.145 Q520.834 203.145 518.843 204.326 Q516.852 205.506 516.852 208.354 Q516.852 210.622 518.334 211.965 Q519.838 213.284 522.408 213.284 Q525.95 213.284 528.079 210.784 Q530.232 208.261 530.232 204.094 L530.232 203.145 L525.996 203.145 M534.491 201.386 L534.491 216.178 L530.232 216.178 L530.232 212.242 Q528.774 214.603 526.598 215.738 Q524.422 216.849 521.274 216.849 Q517.292 216.849 514.931 214.627 Q512.593 212.381 512.593 208.631 Q512.593 204.256 515.51 202.034 Q518.45 199.812 524.26 199.812 L530.232 199.812 L530.232 199.395 Q530.232 196.455 528.288 194.858 Q526.366 193.238 522.871 193.238 Q520.649 193.238 518.542 193.77 Q516.436 194.303 514.491 195.367 L514.491 191.432 Q516.829 190.53 519.028 190.09 Q521.227 189.627 523.311 189.627 Q528.936 189.627 531.713 192.543 Q534.491 195.46 534.491 201.386 Z" fill="#000000" fill-rule="nonzero" fill-opacity="1" /><path clip-path="url(#clip380)" d="M561.922 191.247 L561.922 195.229 Q560.116 194.233 558.287 193.747 Q556.482 193.238 554.63 193.238 Q550.486 193.238 548.195 195.877 Q545.903 198.492 545.903 203.238 Q545.903 207.983 548.195 210.622 Q550.486 213.238 554.63 213.238 Q556.482 213.238 558.287 212.752 Q560.116 212.242 561.922 211.247 L561.922 215.182 Q560.139 216.016 558.218 216.432 Q556.32 216.849 554.167 216.849 Q548.311 216.849 544.862 213.168 Q541.412 209.488 541.412 203.238 Q541.412 196.895 544.885 193.261 Q548.38 189.627 554.445 189.627 Q556.412 189.627 558.287 190.043 Q560.162 190.437 561.922 191.247 Z" fill="#000000" fill-rule="nonzero" fill-opacity="1" /><path clip-path="url(#clip380)" d="M573.542 182.891 L573.542 190.252 L582.315 190.252 L582.315 193.562 L573.542 193.562 L573.542 207.636 Q573.542 210.807 574.398 211.71 Q575.278 212.613 577.94 212.613 L582.315 212.613 L582.315 216.178 L577.94 216.178 Q573.01 216.178 571.135 214.349 Q569.26 212.497 569.26 207.636 L569.26 193.562 L566.135 193.562 L566.135 190.252 L569.26 190.252 L569.26 182.891 L573.542 182.891 Z" fill="#000000" fill-rule="nonzero" fill-opacity="1" /></svg>
