<?xml version="1.0" encoding="utf-8"?>
<svg xmlns="http://www.w3.org/2000/svg" xmlns:xlink="http://www.w3.org/1999/xlink" width="600" height="400" viewBox="0 0 2400 1600">
<defs>
  <clipPath id="clip320">
    <rect x="0" y="0" width="2400" height="1600"/>
  </clipPath>
</defs>
<path clip-path="url(#clip320)" d="M0 1600 L2400 1600 L2400 0 L0 0  Z" fill="#ffffff" fill-rule="evenodd" fill-opacity="1"/>
<defs>
  <clipPath id="clip321">
    <rect x="480" y="0" width="1681" height="1600"/>
  </clipPath>
</defs>
<path clip-path="url(#clip320)" d="M156.274 1486.45 L2352.76 1486.45 L2352.76 47.2441 L156.274 47.2441  Z" fill="#ffffff" fill-rule="evenodd" fill-opacity="1"/>
<defs>
  <clipPath id="clip322">
    <rect x="156" y="47" width="2197" height="1440"/>
  </clipPath>
</defs>
<polyline clip-path="url(#clip322)" style="stroke:#000000; stroke-linecap:round; stroke-linejoin:round; stroke-width:2; stroke-opacity:0.1; fill:none" points="218.439,1486.45 218.439,47.2441 "/>
<polyline clip-path="url(#clip322)" style="stroke:#000000; stroke-linecap:round; stroke-linejoin:round; stroke-width:2; stroke-opacity:0.1; fill:none" points="736.477,1486.45 736.477,47.2441 "/>
<polyline clip-path="url(#clip322)" style="stroke:#000000; stroke-linecap:round; stroke-linejoin:round; stroke-width:2; stroke-opacity:0.1; fill:none" points="1254.52,1486.45 1254.52,47.2441 "/>
<polyline clip-path="url(#clip322)" style="stroke:#000000; stroke-linecap:round; stroke-linejoin:round; stroke-width:2; stroke-opacity:0.1; fill:none" points="1772.55,1486.45 1772.55,47.2441 "/>
<polyline clip-path="url(#clip322)" style="stroke:#000000; stroke-linecap:round; stroke-linejoin:round; stroke-width:2; stroke-opacity:0.1; fill:none" points="2290.59,1486.45 2290.59,47.2441 "/>
<polyline clip-path="url(#clip320)" style="stroke:#000000; stroke-linecap:round; stroke-linejoin:round; stroke-width:4; stroke-opacity:1; fill:none" points="156.274,1486.45 2352.76,1486.45 "/>
<polyline clip-path="url(#clip320)" style="stroke:#000000; stroke-linecap:round; stroke-linejoin:round; stroke-width:4; stroke-opacity:1; fill:none" points="218.439,1486.45 218.439,1467.55 "/>
<polyline clip-path="url(#clip320)" style="stroke:#000000; stroke-linecap:round; stroke-linejoin:round; stroke-width:4; stroke-opacity:1; fill:none" points="736.477,1486.45 736.477,1467.55 "/>
<polyline clip-path="url(#clip320)" style="stroke:#000000; stroke-linecap:round; stroke-linejoin:round; stroke-width:4; stroke-opacity:1; fill:none" points="1254.52,1486.45 1254.52,1467.55 "/>
<polyline clip-path="url(#clip320)" style="stroke:#000000; stroke-linecap:round; stroke-linejoin:round; stroke-width:4; stroke-opacity:1; fill:none" points="1772.55,1486.45 1772.55,1467.55 "/>
<polyline clip-path="url(#clip320)" style="stroke:#000000; stroke-linecap:round; stroke-linejoin:round; stroke-width:4; stroke-opacity:1; fill:none" points="2290.59,1486.45 2290.59,1467.55 "/>
<path clip-path="url(#clip320)" d="M164.967 1532.02 L194.643 1532.02 L194.643 1535.95 L164.967 1535.95 L164.967 1532.02 Z" fill="#000000" fill-rule="nonzero" fill-opacity="1" /><path clip-path="url(#clip320)" d="M205.545 1544.91 L213.184 1544.91 L213.184 1518.55 L204.874 1520.21 L204.874 1515.95 L213.138 1514.29 L217.814 1514.29 L217.814 1544.91 L225.453 1544.91 L225.453 1548.85 L205.545 1548.85 L205.545 1544.91 Z" fill="#000000" fill-rule="nonzero" fill-opacity="1" /><path clip-path="url(#clip320)" d="M234.897 1542.97 L239.781 1542.97 L239.781 1548.85 L234.897 1548.85 L234.897 1542.97 Z" fill="#000000" fill-rule="nonzero" fill-opacity="1" /><path clip-path="url(#clip320)" d="M259.966 1517.37 Q256.355 1517.37 254.527 1520.93 Q252.721 1524.47 252.721 1531.6 Q252.721 1538.71 254.527 1542.27 Q256.355 1545.82 259.966 1545.82 Q263.601 1545.82 265.406 1542.27 Q267.235 1538.71 267.235 1531.6 Q267.235 1524.47 265.406 1520.93 Q263.601 1517.37 259.966 1517.37 M259.966 1513.66 Q265.776 1513.66 268.832 1518.27 Q271.911 1522.85 271.911 1531.6 Q271.911 1540.33 268.832 1544.94 Q265.776 1549.52 259.966 1549.52 Q254.156 1549.52 251.077 1544.94 Q248.022 1540.33 248.022 1531.6 Q248.022 1522.85 251.077 1518.27 Q254.156 1513.66 259.966 1513.66 Z" fill="#000000" fill-rule="nonzero" fill-opacity="1" /><path clip-path="url(#clip320)" d="M683.503 1532.02 L713.178 1532.02 L713.178 1535.95 L683.503 1535.95 L683.503 1532.02 Z" fill="#000000" fill-rule="nonzero" fill-opacity="1" /><path clip-path="url(#clip320)" d="M733.271 1517.37 Q729.66 1517.37 727.831 1520.93 Q726.026 1524.47 726.026 1531.6 Q726.026 1538.71 727.831 1542.27 Q729.66 1545.82 733.271 1545.82 Q736.905 1545.82 738.711 1542.27 Q740.539 1538.71 740.539 1531.6 Q740.539 1524.47 738.711 1520.93 Q736.905 1517.37 733.271 1517.37 M733.271 1513.66 Q739.081 1513.66 742.137 1518.27 Q745.215 1522.85 745.215 1531.6 Q745.215 1540.33 742.137 1544.94 Q739.081 1549.52 733.271 1549.52 Q727.461 1549.52 724.382 1544.94 Q721.327 1540.33 721.327 1531.6 Q721.327 1522.85 724.382 1518.27 Q727.461 1513.66 733.271 1513.66 Z" fill="#000000" fill-rule="nonzero" fill-opacity="1" /><path clip-path="url(#clip320)" d="M753.433 1542.97 L758.317 1542.97 L758.317 1548.85 L753.433 1548.85 L753.433 1542.97 Z" fill="#000000" fill-rule="nonzero" fill-opacity="1" /><path clip-path="url(#clip320)" d="M768.548 1514.29 L786.905 1514.29 L786.905 1518.22 L772.831 1518.22 L772.831 1526.7 Q773.849 1526.35 774.868 1526.19 Q775.886 1526 776.905 1526 Q782.692 1526 786.072 1529.17 Q789.451 1532.34 789.451 1537.76 Q789.451 1543.34 785.979 1546.44 Q782.507 1549.52 776.187 1549.52 Q774.011 1549.52 771.743 1549.15 Q769.498 1548.78 767.09 1548.04 L767.09 1543.34 Q769.173 1544.47 771.396 1545.03 Q773.618 1545.58 776.095 1545.58 Q780.099 1545.58 782.437 1543.48 Q784.775 1541.37 784.775 1537.76 Q784.775 1534.15 782.437 1532.04 Q780.099 1529.94 776.095 1529.94 Q774.22 1529.94 772.345 1530.35 Q770.493 1530.77 768.548 1531.65 L768.548 1514.29 Z" fill="#000000" fill-rule="nonzero" fill-opacity="1" /><path clip-path="url(#clip320)" d="M1231.9 1517.37 Q1228.29 1517.37 1226.46 1520.93 Q1224.65 1524.47 1224.65 1531.6 Q1224.65 1538.71 1226.46 1542.27 Q1228.29 1545.82 1231.9 1545.82 Q1235.53 1545.82 1237.34 1542.27 Q1239.17 1538.71 1239.17 1531.6 Q1239.17 1524.47 1237.34 1520.93 Q1235.53 1517.37 1231.9 1517.37 M1231.9 1513.66 Q1237.71 1513.66 1240.77 1518.27 Q1243.84 1522.85 1243.84 1531.6 Q1243.84 1540.33 1240.77 1544.94 Q1237.71 1549.52 1231.9 1549.52 Q1226.09 1549.52 1223.01 1544.94 Q1219.96 1540.33 1219.96 1531.6 Q1219.96 1522.85 1223.01 1518.27 Q1226.09 1513.66 1231.9 1513.66 Z" fill="#000000" fill-rule="nonzero" fill-opacity="1" /><path clip-path="url(#clip320)" d="M1252.06 1542.97 L1256.95 1542.97 L1256.95 1548.85 L1252.06 1548.85 L1252.06 1542.97 Z" fill="#000000" fill-rule="nonzero" fill-opacity="1" /><path clip-path="url(#clip320)" d="M1277.13 1517.37 Q1273.52 1517.37 1271.69 1520.93 Q1269.89 1524.47 1269.89 1531.6 Q1269.89 1538.71 1271.69 1542.27 Q1273.52 1545.82 1277.13 1545.82 Q1280.76 1545.82 1282.57 1542.27 Q1284.4 1538.71 1284.4 1531.6 Q1284.4 1524.47 1282.57 1520.93 Q1280.76 1517.37 1277.13 1517.37 M1277.13 1513.66 Q1282.94 1513.66 1286 1518.27 Q1289.08 1522.85 1289.08 1531.6 Q1289.08 1540.33 1286 1544.94 Q1282.94 1549.52 1277.13 1549.52 Q1271.32 1549.52 1268.24 1544.94 Q1265.19 1540.33 1265.19 1531.6 Q1265.19 1522.85 1268.24 1518.27 Q1271.32 1513.66 1277.13 1513.66 Z" fill="#000000" fill-rule="nonzero" fill-opacity="1" /><path clip-path="url(#clip320)" d="M1750.44 1517.37 Q1746.82 1517.37 1745 1520.93 Q1743.19 1524.47 1743.19 1531.6 Q1743.19 1538.71 1745 1542.27 Q1746.82 1545.82 1750.44 1545.82 Q1754.07 1545.82 1755.88 1542.27 Q1757.7 1538.71 1757.7 1531.6 Q1757.7 1524.47 1755.88 1520.93 Q1754.07 1517.37 1750.44 1517.37 M1750.44 1513.66 Q1756.25 1513.66 1759.3 1518.27 Q1762.38 1522.85 1762.38 1531.6 Q1762.38 1540.33 1759.3 1544.94 Q1756.25 1549.52 1750.44 1549.52 Q1744.63 1549.52 1741.55 1544.94 Q1738.49 1540.33 1738.49 1531.6 Q1738.49 1522.85 1741.55 1518.27 Q1744.63 1513.66 1750.44 1513.66 Z" fill="#000000" fill-rule="nonzero" fill-opacity="1" /><path clip-path="url(#clip320)" d="M1770.6 1542.97 L1775.48 1542.97 L1775.48 1548.85 L1770.6 1548.85 L1770.6 1542.97 Z" fill="#000000" fill-rule="nonzero" fill-opacity="1" /><path clip-path="url(#clip320)" d="M1785.71 1514.29 L1804.07 1514.29 L1804.07 1518.22 L1790 1518.22 L1790 1526.7 Q1791.01 1526.35 1792.03 1526.19 Q1793.05 1526 1794.07 1526 Q1799.86 1526 1803.24 1529.17 Q1806.62 1532.34 1806.62 1537.76 Q1806.62 1543.34 1803.14 1546.44 Q1799.67 1549.52 1793.35 1549.52 Q1791.18 1549.52 1788.91 1549.15 Q1786.66 1548.78 1784.25 1548.04 L1784.25 1543.34 Q1786.34 1544.47 1788.56 1545.03 Q1790.78 1545.58 1793.26 1545.58 Q1797.26 1545.58 1799.6 1543.48 Q1801.94 1541.37 1801.94 1537.76 Q1801.94 1534.15 1799.6 1532.04 Q1797.26 1529.94 1793.26 1529.94 Q1791.38 1529.94 1789.51 1530.35 Q1787.66 1530.77 1785.71 1531.65 L1785.71 1514.29 Z" fill="#000000" fill-rule="nonzero" fill-opacity="1" /><path clip-path="url(#clip320)" d="M2257.74 1544.91 L2265.38 1544.91 L2265.38 1518.55 L2257.07 1520.21 L2257.07 1515.95 L2265.34 1514.29 L2270.01 1514.29 L2270.01 1544.91 L2277.65 1544.91 L2277.65 1548.85 L2257.74 1548.85 L2257.74 1544.91 Z" fill="#000000" fill-rule="nonzero" fill-opacity="1" /><path clip-path="url(#clip320)" d="M2287.1 1542.97 L2291.98 1542.97 L2291.98 1548.85 L2287.1 1548.85 L2287.1 1542.97 Z" fill="#000000" fill-rule="nonzero" fill-opacity="1" /><path clip-path="url(#clip320)" d="M2312.17 1517.37 Q2308.55 1517.37 2306.73 1520.93 Q2304.92 1524.47 2304.92 1531.6 Q2304.92 1538.71 2306.73 1542.27 Q2308.55 1545.82 2312.17 1545.82 Q2315.8 1545.82 2317.61 1542.27 Q2319.43 1538.71 2319.43 1531.6 Q2319.43 1524.47 2317.61 1520.93 Q2315.8 1517.37 2312.17 1517.37 M2312.17 1513.66 Q2317.98 1513.66 2321.03 1518.27 Q2324.11 1522.85 2324.11 1531.6 Q2324.11 1540.33 2321.03 1544.94 Q2317.98 1549.52 2312.17 1549.52 Q2306.36 1549.52 2303.28 1544.94 Q2300.22 1540.33 2300.22 1531.6 Q2300.22 1522.85 2303.28 1518.27 Q2306.36 1513.66 2312.17 1513.66 Z" fill="#000000" fill-rule="nonzero" fill-opacity="1" /><polyline clip-path="url(#clip322)" style="stroke:#000000; stroke-linecap:round; stroke-linejoin:round; stroke-width:2; stroke-opacity:0.1; fill:none" points="156.274,1239.02 2352.76,1239.02 "/>
<polyline clip-path="url(#clip322)" style="stroke:#000000; stroke-linecap:round; stroke-linejoin:round; stroke-width:2; stroke-opacity:0.1; fill:none" points="156.274,968.888 2352.76,968.888 "/>
<polyline clip-path="url(#clip322)" style="stroke:#000000; stroke-linecap:round; stroke-linejoin:round; stroke-width:2; stroke-opacity:0.1; fill:none" points="156.274,698.756 2352.76,698.756 "/>
<polyline clip-path="url(#clip322)" style="stroke:#000000; stroke-linecap:round; stroke-linejoin:round; stroke-width:2; stroke-opacity:0.1; fill:none" points="156.274,428.625 2352.76,428.625 "/>
<polyline clip-path="url(#clip322)" style="stroke:#000000; stroke-linecap:round; stroke-linejoin:round; stroke-width:2; stroke-opacity:0.1; fill:none" points="156.274,158.494 2352.76,158.494 "/>
<polyline clip-path="url(#clip320)" style="stroke:#000000; stroke-linecap:round; stroke-linejoin:round; stroke-width:4; stroke-opacity:1; fill:none" points="156.274,1486.45 156.274,47.2441 "/>
<polyline clip-path="url(#clip320)" style="stroke:#000000; stroke-linecap:round; stroke-linejoin:round; stroke-width:4; stroke-opacity:1; fill:none" points="156.274,1239.02 175.172,1239.02 "/>
<polyline clip-path="url(#clip320)" style="stroke:#000000; stroke-linecap:round; stroke-linejoin:round; stroke-width:4; stroke-opacity:1; fill:none" points="156.274,968.888 175.172,968.888 "/>
<polyline clip-path="url(#clip320)" style="stroke:#000000; stroke-linecap:round; stroke-linejoin:round; stroke-width:4; stroke-opacity:1; fill:none" points="156.274,698.756 175.172,698.756 "/>
<polyline clip-path="url(#clip320)" style="stroke:#000000; stroke-linecap:round; stroke-linejoin:round; stroke-width:4; stroke-opacity:1; fill:none" points="156.274,428.625 175.172,428.625 "/>
<polyline clip-path="url(#clip320)" style="stroke:#000000; stroke-linecap:round; stroke-linejoin:round; stroke-width:4; stroke-opacity:1; fill:none" points="156.274,158.494 175.172,158.494 "/>
<path clip-path="url(#clip320)" d="M63.0985 1224.82 Q59.4875 1224.82 57.6588 1228.38 Q55.8532 1231.92 55.8532 1239.05 Q55.8532 1246.16 57.6588 1249.72 Q59.4875 1253.27 63.0985 1253.27 Q66.7328 1253.27 68.5383 1249.72 Q70.367 1246.16 70.367 1239.05 Q70.367 1231.92 68.5383 1228.38 Q66.7328 1224.82 63.0985 1224.82 M63.0985 1221.11 Q68.9087 1221.11 71.9642 1225.72 Q75.0429 1230.3 75.0429 1239.05 Q75.0429 1247.78 71.9642 1252.39 Q68.9087 1256.97 63.0985 1256.97 Q57.2884 1256.97 54.2097 1252.39 Q51.1542 1247.78 51.1542 1239.05 Q51.1542 1230.3 54.2097 1225.72 Q57.2884 1221.11 63.0985 1221.11 Z" fill="#000000" fill-rule="nonzero" fill-opacity="1" /><path clip-path="url(#clip320)" d="M83.2605 1250.42 L88.1447 1250.42 L88.1447 1256.3 L83.2605 1256.3 L83.2605 1250.42 Z" fill="#000000" fill-rule="nonzero" fill-opacity="1" /><path clip-path="url(#clip320)" d="M108.33 1224.82 Q104.719 1224.82 102.89 1228.38 Q101.084 1231.92 101.084 1239.05 Q101.084 1246.16 102.89 1249.72 Q104.719 1253.27 108.33 1253.27 Q111.964 1253.27 113.77 1249.72 Q115.598 1246.16 115.598 1239.05 Q115.598 1231.92 113.77 1228.38 Q111.964 1224.82 108.33 1224.82 M108.33 1221.11 Q114.14 1221.11 117.195 1225.72 Q120.274 1230.3 120.274 1239.05 Q120.274 1247.78 117.195 1252.39 Q114.14 1256.97 108.33 1256.97 Q102.52 1256.97 99.4409 1252.39 Q96.3854 1247.78 96.3854 1239.05 Q96.3854 1230.3 99.4409 1225.72 Q102.52 1221.11 108.33 1221.11 Z" fill="#000000" fill-rule="nonzero" fill-opacity="1" /><path clip-path="url(#clip320)" d="M63.7467 954.686 Q60.1356 954.686 58.3069 958.251 Q56.5014 961.793 56.5014 968.922 Q56.5014 976.029 58.3069 979.594 Q60.1356 983.135 63.7467 983.135 Q67.3809 983.135 69.1865 979.594 Q71.0152 976.029 71.0152 968.922 Q71.0152 961.793 69.1865 958.251 Q67.3809 954.686 63.7467 954.686 M63.7467 950.983 Q69.5568 950.983 72.6124 955.589 Q75.6911 960.172 75.6911 968.922 Q75.6911 977.649 72.6124 982.256 Q69.5568 986.839 63.7467 986.839 Q57.9365 986.839 54.8578 982.256 Q51.8023 977.649 51.8023 968.922 Q51.8023 960.172 54.8578 955.589 Q57.9365 950.983 63.7467 950.983 Z" fill="#000000" fill-rule="nonzero" fill-opacity="1" /><path clip-path="url(#clip320)" d="M83.9086 980.288 L88.7928 980.288 L88.7928 986.168 L83.9086 986.168 L83.9086 980.288 Z" fill="#000000" fill-rule="nonzero" fill-opacity="1" /><path clip-path="url(#clip320)" d="M113.145 967.533 Q116.501 968.251 118.376 970.519 Q120.274 972.788 120.274 976.121 Q120.274 981.237 116.756 984.038 Q113.237 986.839 106.756 986.839 Q104.58 986.839 102.265 986.399 Q99.9733 985.982 97.5197 985.126 L97.5197 980.612 Q99.4641 981.746 101.779 982.325 Q104.094 982.904 106.617 982.904 Q111.015 982.904 113.307 981.168 Q115.621 979.431 115.621 976.121 Q115.621 973.066 113.469 971.353 Q111.339 969.617 107.52 969.617 L103.492 969.617 L103.492 965.774 L107.705 965.774 Q111.154 965.774 112.983 964.408 Q114.811 963.02 114.811 960.427 Q114.811 957.765 112.913 956.353 Q111.038 954.918 107.52 954.918 Q105.598 954.918 103.399 955.334 Q101.2 955.751 98.5613 956.631 L98.5613 952.464 Q101.223 951.723 103.538 951.353 Q105.876 950.983 107.936 950.983 Q113.26 950.983 116.362 953.413 Q119.464 955.82 119.464 959.941 Q119.464 962.811 117.82 964.802 Q116.177 966.769 113.145 967.533 Z" fill="#000000" fill-rule="nonzero" fill-opacity="1" /><path clip-path="url(#clip320)" d="M62.9365 684.555 Q59.3254 684.555 57.4967 688.12 Q55.6912 691.661 55.6912 698.791 Q55.6912 705.898 57.4967 709.462 Q59.3254 713.004 62.9365 713.004 Q66.5707 713.004 68.3763 709.462 Q70.205 705.898 70.205 698.791 Q70.205 691.661 68.3763 688.12 Q66.5707 684.555 62.9365 684.555 M62.9365 680.851 Q68.7467 680.851 71.8022 685.458 Q74.8809 690.041 74.8809 698.791 Q74.8809 707.518 71.8022 712.124 Q68.7467 716.708 62.9365 716.708 Q57.1264 716.708 54.0477 712.124 Q50.9921 707.518 50.9921 698.791 Q50.9921 690.041 54.0477 685.458 Q57.1264 680.851 62.9365 680.851 Z" fill="#000000" fill-rule="nonzero" fill-opacity="1" /><path clip-path="url(#clip320)" d="M83.0984 710.157 L87.9827 710.157 L87.9827 716.036 L83.0984 716.036 L83.0984 710.157 Z" fill="#000000" fill-rule="nonzero" fill-opacity="1" /><path clip-path="url(#clip320)" d="M108.746 696.893 Q105.598 696.893 103.746 699.046 Q101.918 701.198 101.918 704.948 Q101.918 708.675 103.746 710.851 Q105.598 713.004 108.746 713.004 Q111.895 713.004 113.723 710.851 Q115.575 708.675 115.575 704.948 Q115.575 701.198 113.723 699.046 Q111.895 696.893 108.746 696.893 M118.029 682.24 L118.029 686.499 Q116.27 685.666 114.464 685.226 Q112.682 684.787 110.922 684.787 Q106.293 684.787 103.839 687.911 Q101.409 691.036 101.061 697.356 Q102.427 695.342 104.487 694.277 Q106.547 693.189 109.024 693.189 Q114.233 693.189 117.242 696.361 Q120.274 699.509 120.274 704.948 Q120.274 710.272 117.126 713.49 Q113.978 716.708 108.746 716.708 Q102.751 716.708 99.5798 712.124 Q96.4085 707.518 96.4085 698.791 Q96.4085 690.597 100.297 685.736 Q104.186 680.851 110.737 680.851 Q112.496 680.851 114.279 681.199 Q116.084 681.546 118.029 682.24 Z" fill="#000000" fill-rule="nonzero" fill-opacity="1" /><path clip-path="url(#clip320)" d="M63.2837 414.424 Q59.6726 414.424 57.8439 417.989 Q56.0384 421.53 56.0384 428.66 Q56.0384 435.766 57.8439 439.331 Q59.6726 442.873 63.2837 442.873 Q66.918 442.873 68.7235 439.331 Q70.5522 435.766 70.5522 428.66 Q70.5522 421.53 68.7235 417.989 Q66.918 414.424 63.2837 414.424 M63.2837 410.72 Q69.0939 410.72 72.1494 415.327 Q75.2281 419.91 75.2281 428.66 Q75.2281 437.387 72.1494 441.993 Q69.0939 446.576 63.2837 446.576 Q57.4736 446.576 54.3949 441.993 Q51.3393 437.387 51.3393 428.66 Q51.3393 419.91 54.3949 415.327 Q57.4736 410.72 63.2837 410.72 Z" fill="#000000" fill-rule="nonzero" fill-opacity="1" /><path clip-path="url(#clip320)" d="M83.4457 440.026 L88.3299 440.026 L88.3299 445.905 L83.4457 445.905 L83.4457 440.026 Z" fill="#000000" fill-rule="nonzero" fill-opacity="1" /><path clip-path="url(#clip320)" d="M98.6539 445.188 L98.6539 440.928 Q100.413 441.762 102.219 442.201 Q104.024 442.641 105.76 442.641 Q110.39 442.641 112.82 439.539 Q115.274 436.414 115.621 430.072 Q114.279 432.063 112.219 433.127 Q110.158 434.192 107.658 434.192 Q102.473 434.192 99.4409 431.067 Q96.4317 427.919 96.4317 422.479 Q96.4317 417.155 99.5798 413.938 Q102.728 410.72 107.959 410.72 Q113.955 410.72 117.103 415.327 Q120.274 419.91 120.274 428.66 Q120.274 436.831 116.385 441.715 Q112.52 446.576 105.969 446.576 Q104.209 446.576 102.404 446.229 Q100.598 445.882 98.6539 445.188 M107.959 430.535 Q111.108 430.535 112.936 428.382 Q114.788 426.229 114.788 422.479 Q114.788 418.753 112.936 416.6 Q111.108 414.424 107.959 414.424 Q104.811 414.424 102.959 416.6 Q101.131 418.753 101.131 422.479 Q101.131 426.229 102.959 428.382 Q104.811 430.535 107.959 430.535 Z" fill="#000000" fill-rule="nonzero" fill-opacity="1" /><path clip-path="url(#clip320)" d="M55.506 171.839 L63.1448 171.839 L63.1448 145.473 L54.8347 147.14 L54.8347 142.881 L63.0985 141.214 L67.7744 141.214 L67.7744 171.839 L75.4133 171.839 L75.4133 175.774 L55.506 175.774 L55.506 171.839 Z" fill="#000000" fill-rule="nonzero" fill-opacity="1" /><path clip-path="url(#clip320)" d="M84.8577 169.894 L89.7419 169.894 L89.7419 175.774 L84.8577 175.774 L84.8577 169.894 Z" fill="#000000" fill-rule="nonzero" fill-opacity="1" /><path clip-path="url(#clip320)" d="M103.955 171.839 L120.274 171.839 L120.274 175.774 L98.3298 175.774 L98.3298 171.839 Q100.992 169.084 105.575 164.455 Q110.182 159.802 111.362 158.459 Q113.608 155.936 114.487 154.2 Q115.39 152.441 115.39 150.751 Q115.39 147.996 113.445 146.26 Q111.524 144.524 108.422 144.524 Q106.223 144.524 103.77 145.288 Q101.339 146.052 98.5613 147.603 L98.5613 142.881 Q101.385 141.746 103.839 141.168 Q106.293 140.589 108.33 140.589 Q113.7 140.589 116.895 143.274 Q120.089 145.959 120.089 150.45 Q120.089 152.58 119.279 154.501 Q118.492 156.399 116.385 158.992 Q115.807 159.663 112.705 162.881 Q109.603 166.075 103.955 171.839 Z" fill="#000000" fill-rule="nonzero" fill-opacity="1" /><polyline clip-path="url(#clip322)" style="stroke:#009af9; stroke-linecap:round; stroke-linejoin:round; stroke-width:16; stroke-opacity:1; fill:none" stroke-dasharray="8, 16" points="218.439,1047.96 228.852,1061.09 239.264,1074.21 249.677,1087.33 260.09,1100.45 270.503,1113.58 280.916,1126.7 291.329,1139.82 301.741,1152.94 312.154,1173.63 322.567,1194.56 332.98,1215.49 343.393,1236.42 353.805,1257.35 364.218,1278.28 374.631,1299.21 385.044,1320.14 395.457,1341.07 405.87,1362 416.282,1382.93 426.695,1403.86 437.108,1424.79 447.521,1445.72 457.934,1427.87 468.347,1401.36 478.759,1374.85 489.172,1348.34 499.585,1321.83 509.998,1295.29 520.411,1266.73 530.824,1237.53 541.236,1208.34 551.649,1179.14 562.062,1149.94 572.475,1120.74 582.888,1099.77 593.301,1081.47 603.713,1063.18 614.126,1044.88 624.539,1052.06 634.952,1063.8 645.365,1075.64 655.777,1093.79 666.19,1112.15 676.603,1137.64 687.016,1167.36 697.429,1198.4 707.842,1229.44 718.254,1260.48 728.667,1291.51 739.08,1320.5 749.493,1349.23 759.906,1372.88 770.319,1393.85 780.731,1413.55 791.144,1422.97 801.557,1429.07 811.97,1415.07 822.383,1399.95 832.796,1384.74 843.208,1369.16 853.621,1353.85 864.034,1338.54 874.447,1305.31 884.86,1268 895.273,1231.12 905.685,1196.88 916.098,1168.41 926.511,1139.93 936.924,1114.78 947.337,1093.52 957.749,1079.16 968.162,1069.03 978.575,1060.56 988.988,1063.41 999.401,1071.76 1009.81,1079.13 1020.23,1094.93 1030.64,1119.81 1041.05,1147.18 1051.46,1174.53 1061.88,1202.75 1072.29,1239.55 1082.7,1276.51 1093.12,1306.61 1103.53,1330.42 1113.94,1354.28 1124.35,1377.4 1134.77,1399.71 1145.18,1413.72 1155.59,1405.22 1166.01,1398.18 1176.42,1399.61 1186.83,1402.21 1197.24,1396.29 1207.66,1382.67 1218.07,1355.25 1228.48,1325.06 1238.9,1257.14 1249.31,1078.02 1259.72,826.495 1270.13,494.048 1280.55,276.274 1290.96,225.874 1301.37,233.914 1311.79,305.916 1322.2,359.58 1332.61,344.546 1343.02,326.869 1353.44,322.429 1363.85,318.649 1374.26,317.573 1384.68,320.336 1395.09,327.341 1405.5,338.255 1415.91,348.081 1426.33,358.728 1436.74,369.374 1447.15,374.135 1457.57,360.832 1467.98,347.529 1478.39,334.226 1488.8,324.382 1499.22,326.216 1509.63,328.049 1520.04,329.883 1530.45,331.717 1540.87,333.551 1551.28,335.385 1561.69,337.218 1572.11,338.62 1582.52,337.46 1592.93,336.302 1603.34,335.142 1613.76,334.269 1624.17,337.873 1634.58,341.832 1645,345.791 1655.41,349.75 1665.82,349.755 1676.23,348.846 1686.65,347.937 1697.06,347.028 1707.47,346.118 1717.89,345.209 1728.3,344.3 1738.71,343.39 1749.12,342.481 1759.54,341.572 1769.95,340.663 1780.36,339.753 1790.78,338.844 1801.19,337.935 1811.6,337.026 1822.01,336.117 1832.43,335.208 1842.84,334.298 1853.25,333.389 1863.67,332.48 1874.08,331.57 1884.49,330.661 1894.9,329.752 1905.32,328.843 1915.73,327.933 1926.14,327.024 1936.56,326.116 1946.97,325.206 1957.38,324.297 1967.79,323.388 1978.21,322.478 1988.62,321.569 1999.03,321.739 2009.45,324.72 2019.86,327.7 2030.27,330.681 2040.68,333.662 2051.1,336.642 2061.51,339.623 2071.92,342.604 2082.33,345.585 2092.75,348.566 2103.16,351.546 2113.57,354.527 2123.99,357.507 2134.4,360.489 2144.81,363.469 2155.22,366.45 2165.64,369.43 2176.05,372.411 2186.46,375.391 2196.88,378.373 2207.29,381.353 2217.7,384.334 2228.11,387.314 2238.53,390.295 2248.94,393.276 2259.35,396.257 2269.77,399.237 2280.18,402.219 2290.59,405.199 "/>
<polyline clip-path="url(#clip322)" style="stroke:#e26f46; stroke-linecap:round; stroke-linejoin:round; stroke-width:4; stroke-opacity:1; fill:none" points="218.439,1103.78 228.852,1084.59 239.264,1070.44 249.677,1061.79 260.09,1058.93 270.503,1061.95 280.916,1070.74 291.329,1085.03 301.741,1104.34 312.154,1128.05 322.567,1155.38 332.98,1185.44 343.393,1217.25 353.805,1249.77 364.218,1281.94 374.631,1312.7 385.044,1341.07 395.457,1366.1 405.87,1386.98 416.282,1403.04 426.695,1413.74 437.108,1418.74 447.521,1417.87 457.934,1411.17 468.347,1398.85 478.759,1381.31 489.172,1359.13 499.585,1333.03 509.998,1303.86 520.411,1272.57 530.824,1240.19 541.236,1207.77 551.649,1176.37 562.062,1147.01 572.475,1120.66 582.888,1098.17 593.301,1080.28 603.713,1067.57 614.126,1060.45 624.539,1059.16 634.952,1063.75 645.365,1074.05 655.777,1089.73 666.19,1110.29 676.603,1135.05 687.016,1163.21 697.429,1193.83 707.842,1225.94 718.254,1258.47 728.667,1290.36 739.08,1320.58 749.493,1348.14 759.906,1372.13 770.319,1391.78 780.731,1406.45 791.144,1415.65 801.557,1419.08 811.97,1416.64 822.383,1408.41 832.796,1394.64 843.208,1375.8 853.621,1352.49 864.034,1325.47 874.447,1295.64 884.86,1263.96 895.273,1231.46 905.685,1199.21 916.098,1168.26 926.511,1139.62 936.924,1114.22 947.337,1092.9 957.749,1076.35 968.162,1065.1 978.575,1059.53 988.988,1059.82 999.401,1065.96 1009.81,1077.74 1020.23,1094.79 1030.64,1116.55 1041.05,1142.3 1051.46,1171.21 1061.88,1202.33 1072.29,1234.65 1082.7,1267.12 1093.12,1298.66 1103.53,1328.26 1113.94,1354.95 1124.35,1377.85 1134.77,1396.22 1145.18,1409.46 1155.59,1417.14 1166.01,1419.01 1176.42,1415 1186.83,1405.24 1197.24,1390.07 1207.66,1369.96 1218.07,1345.58 1228.48,1317.72 1238.9,1287.29 1249.31,1255.29 1259.72,337.274 1270.13,335.786 1280.55,337.14 1290.96,341.649 1301.37,347.93 1311.79,353.33 1322.2,354.929 1332.61,350.775 1343.02,340.87 1353.44,327.517 1363.85,314.811 1374.26,307.388 1384.68,308.812 1395.09,320.137 1405.5,339.186 1415.91,360.866 1426.33,378.52 1436.74,385.966 1447.15,379.592 1457.57,359.813 1467.98,331.364 1478.39,302.208 1488.8,281.312 1499.22,275.899 1509.63,289.021 1520.04,318.257 1530.45,356.014 1540.87,391.482 1551.28,413.726 1561.69,415.044 1572.11,393.553 1582.52,354.168 1592.93,307.546 1603.34,267.218 1613.76,245.66 1624.17,250.453 1634.58,281.708 1645,331.604 1655.41,386.302 1665.82,429.782 1676.23,448.527 1686.65,435.708 1697.06,393.556 1707.47,333.139 1717.89,271.486 1728.3,226.782 1738.71,213.014 1749.12,235.621 1759.54,289.506 1769.95,360.096 1780.36,427.271 1790.78,471.097 1801.19,477.736 1811.6,443.777 1822.01,377.654 1832.43,297.597 1842.84,226.62 1853.25,185.902 1863.67,188.476 1874.08,235.103 1884.49,313.622 1894.9,402.085 1905.32,474.892 1915.73,510.196 1926.14,496.448 1936.56,436.12 1946.97,345.416 1957.38,249.946 1967.79,177.493 1978.21,149.933 1988.62,176.641 1999.03,251.382 2009.45,353.688 2019.86,454.449 2030.27,524.194 2040.68,541.713 2051.1,500.481 2061.51,410.965 2071.92,298.015 2082.33,193.97 2092.75,129.401 2103.16,124.134 2113.57,181.186 2123.99,285.464 2134.4,407.734 2144.81,512.805 2155.22,569.66 2165.64,560.608 2176.05,486.753 2186.46,368.109 2196.88,238.196 2207.29,134.572 2217.7,87.9763 2228.11,113.219 2238.53,204.516 2248.94,336.732 2259.35,472.283 2269.77,571.824 2280.18,605.661 2290.59,562.604 "/>
<path clip-path="url(#clip320)" d="M229.49 250.738 L675.966 250.738 L675.966 95.2176 L229.49 95.2176  Z" fill="#ffffff" fill-rule="evenodd" fill-opacity="1"/>
<polyline clip-path="url(#clip320)" style="stroke:#000000; stroke-linecap:round; stroke-linejoin:round; stroke-width:4; stroke-opacity:1; fill:none" points="229.49,250.738 675.966,250.738 675.966,95.2176 229.49,95.2176 229.49,250.738 "/>
<polyline clip-path="url(#clip320)" style="stroke:#009af9; stroke-linecap:round; stroke-linejoin:round; stroke-width:16; stroke-opacity:1; fill:none" stroke-dasharray="8, 16" points="253.896,147.058 400.328,147.058 "/>
<path clip-path="url(#clip320)" d="M429.409 133.62 L429.409 146.606 L435.289 146.606 Q438.552 146.606 440.335 144.916 Q442.117 143.227 442.117 140.102 Q442.117 137 440.335 135.31 Q438.552 133.62 435.289 133.62 L429.409 133.62 M424.733 129.778 L435.289 129.778 Q441.099 129.778 444.062 132.416 Q447.048 135.032 447.048 140.102 Q447.048 145.217 444.062 147.833 Q441.099 150.449 435.289 150.449 L429.409 150.449 L429.409 164.338 L424.733 164.338 L424.733 129.778 Z" fill="#000000" fill-rule="nonzero" fill-opacity="1" /><path clip-path="url(#clip320)" d="M467.325 142.393 Q466.608 141.977 465.751 141.791 Q464.918 141.583 463.899 141.583 Q460.288 141.583 458.344 143.944 Q456.423 146.282 456.423 150.68 L456.423 164.338 L452.14 164.338 L452.14 138.412 L456.423 138.412 L456.423 142.44 Q457.765 140.078 459.918 138.944 Q462.071 137.787 465.149 137.787 Q465.589 137.787 466.122 137.856 Q466.654 137.903 467.302 138.018 L467.325 142.393 Z" fill="#000000" fill-rule="nonzero" fill-opacity="1" /><path clip-path="url(#clip320)" d="M492.927 150.31 L492.927 152.393 L473.344 152.393 Q473.622 156.791 475.983 159.106 Q478.367 161.398 482.603 161.398 Q485.057 161.398 487.348 160.796 Q489.663 160.194 491.932 158.99 L491.932 163.018 Q489.64 163.99 487.233 164.5 Q484.825 165.009 482.348 165.009 Q476.145 165.009 472.511 161.398 Q468.899 157.787 468.899 151.629 Q468.899 145.264 472.325 141.537 Q475.774 137.787 481.608 137.787 Q486.839 137.787 489.872 141.166 Q492.927 144.523 492.927 150.31 M488.668 149.06 Q488.622 145.565 486.7 143.481 Q484.802 141.398 481.654 141.398 Q478.089 141.398 475.936 143.412 Q473.807 145.426 473.483 149.083 L488.668 149.06 Z" fill="#000000" fill-rule="nonzero" fill-opacity="1" /><path clip-path="url(#clip320)" d="M516.978 142.347 L516.978 128.319 L521.237 128.319 L521.237 164.338 L516.978 164.338 L516.978 160.449 Q515.635 162.763 513.575 163.898 Q511.538 165.009 508.668 165.009 Q503.969 165.009 501.006 161.259 Q498.066 157.509 498.066 151.398 Q498.066 145.287 501.006 141.537 Q503.969 137.787 508.668 137.787 Q511.538 137.787 513.575 138.921 Q515.635 140.032 516.978 142.347 M502.464 151.398 Q502.464 156.097 504.385 158.782 Q506.33 161.444 509.709 161.444 Q513.089 161.444 515.033 158.782 Q516.978 156.097 516.978 151.398 Q516.978 146.699 515.033 144.037 Q513.089 141.352 509.709 141.352 Q506.33 141.352 504.385 144.037 Q502.464 146.699 502.464 151.398 Z" fill="#000000" fill-rule="nonzero" fill-opacity="1" /><path clip-path="url(#clip320)" d="M530.01 138.412 L534.269 138.412 L534.269 164.338 L530.01 164.338 L530.01 138.412 M530.01 128.319 L534.269 128.319 L534.269 133.713 L530.01 133.713 L530.01 128.319 Z" fill="#000000" fill-rule="nonzero" fill-opacity="1" /><path clip-path="url(#clip320)" d="M561.839 139.407 L561.839 143.389 Q560.033 142.393 558.205 141.907 Q556.399 141.398 554.547 141.398 Q550.404 141.398 548.112 144.037 Q545.82 146.652 545.82 151.398 Q545.82 156.143 548.112 158.782 Q550.404 161.398 554.547 161.398 Q556.399 161.398 558.205 160.912 Q560.033 160.402 561.839 159.407 L561.839 163.342 Q560.056 164.176 558.135 164.592 Q556.237 165.009 554.084 165.009 Q548.228 165.009 544.779 161.328 Q541.33 157.648 541.33 151.398 Q541.33 145.055 544.802 141.421 Q548.297 137.787 554.362 137.787 Q556.33 137.787 558.205 138.203 Q560.08 138.597 561.839 139.407 Z" fill="#000000" fill-rule="nonzero" fill-opacity="1" /><path clip-path="url(#clip320)" d="M573.459 131.051 L573.459 138.412 L582.232 138.412 L582.232 141.722 L573.459 141.722 L573.459 155.796 Q573.459 158.967 574.316 159.87 Q575.195 160.773 577.857 160.773 L582.232 160.773 L582.232 164.338 L577.857 164.338 Q572.927 164.338 571.052 162.509 Q569.177 160.657 569.177 155.796 L569.177 141.722 L566.052 141.722 L566.052 138.412 L569.177 138.412 L569.177 131.051 L573.459 131.051 Z" fill="#000000" fill-rule="nonzero" fill-opacity="1" /><path clip-path="url(#clip320)" d="M587.834 138.412 L592.093 138.412 L592.093 164.338 L587.834 164.338 L587.834 138.412 M587.834 128.319 L592.093 128.319 L592.093 133.713 L587.834 133.713 L587.834 128.319 Z" fill="#000000" fill-rule="nonzero" fill-opacity="1" /><path clip-path="url(#clip320)" d="M611.051 141.398 Q607.626 141.398 605.635 144.083 Q603.644 146.745 603.644 151.398 Q603.644 156.051 605.612 158.736 Q607.602 161.398 611.051 161.398 Q614.454 161.398 616.445 158.713 Q618.436 156.027 618.436 151.398 Q618.436 146.791 616.445 144.106 Q614.454 141.398 611.051 141.398 M611.051 137.787 Q616.607 137.787 619.778 141.398 Q622.95 145.009 622.95 151.398 Q622.95 157.764 619.778 161.398 Q616.607 165.009 611.051 165.009 Q605.473 165.009 602.302 161.398 Q599.153 157.764 599.153 151.398 Q599.153 145.009 602.302 141.398 Q605.473 137.787 611.051 137.787 Z" fill="#000000" fill-rule="nonzero" fill-opacity="1" /><path clip-path="url(#clip320)" d="M651.561 148.689 L651.561 164.338 L647.301 164.338 L647.301 148.828 Q647.301 145.148 645.866 143.319 Q644.431 141.49 641.561 141.49 Q638.112 141.49 636.121 143.69 Q634.13 145.889 634.13 149.685 L634.13 164.338 L629.848 164.338 L629.848 138.412 L634.13 138.412 L634.13 142.44 Q635.658 140.102 637.718 138.944 Q639.801 137.787 642.51 137.787 Q646.977 137.787 649.269 140.565 Q651.561 143.319 651.561 148.689 Z" fill="#000000" fill-rule="nonzero" fill-opacity="1" /><polyline clip-path="url(#clip320)" style="stroke:#e26f46; stroke-linecap:round; stroke-linejoin:round; stroke-width:4; stroke-opacity:1; fill:none" points="253.896,198.898 400.328,198.898 "/>
<path clip-path="url(#clip320)" d="M424.733 181.618 L446.585 181.618 L446.585 185.553 L429.409 185.553 L429.409 195.784 L445.867 195.784 L445.867 199.719 L429.409 199.719 L429.409 212.242 L447.001 212.242 L447.001 216.178 L424.733 216.178 L424.733 181.618 Z" fill="#000000" fill-rule="nonzero" fill-opacity="1" /><path clip-path="url(#clip320)" d="M476.052 190.252 L466.677 202.867 L476.538 216.178 L471.515 216.178 L463.969 205.992 L456.423 216.178 L451.4 216.178 L461.469 202.613 L452.256 190.252 L457.279 190.252 L464.154 199.488 L471.029 190.252 L476.052 190.252 Z" fill="#000000" fill-rule="nonzero" fill-opacity="1" /><path clip-path="url(#clip320)" d="M494.339 203.145 Q489.177 203.145 487.186 204.326 Q485.196 205.506 485.196 208.354 Q485.196 210.622 486.677 211.965 Q488.182 213.284 490.751 213.284 Q494.293 213.284 496.422 210.784 Q498.575 208.261 498.575 204.094 L498.575 203.145 L494.339 203.145 M502.834 201.386 L502.834 216.178 L498.575 216.178 L498.575 212.242 Q497.117 214.603 494.941 215.738 Q492.765 216.849 489.617 216.849 Q485.635 216.849 483.274 214.627 Q480.936 212.381 480.936 208.631 Q480.936 204.256 483.853 202.034 Q486.793 199.812 492.603 199.812 L498.575 199.812 L498.575 199.395 Q498.575 196.455 496.631 194.858 Q494.71 193.238 491.214 193.238 Q488.992 193.238 486.885 193.77 Q484.779 194.303 482.835 195.367 L482.835 191.432 Q485.173 190.53 487.372 190.09 Q489.571 189.627 491.654 189.627 Q497.279 189.627 500.057 192.543 Q502.834 195.46 502.834 201.386 Z" fill="#000000" fill-rule="nonzero" fill-opacity="1" /><path clip-path="url(#clip320)" d="M530.265 191.247 L530.265 195.229 Q528.459 194.233 526.631 193.747 Q524.825 193.238 522.973 193.238 Q518.83 193.238 516.538 195.877 Q514.246 198.492 514.246 203.238 Q514.246 207.983 516.538 210.622 Q518.83 213.238 522.973 213.238 Q524.825 213.238 526.631 212.752 Q528.459 212.242 530.265 211.247 L530.265 215.182 Q528.482 216.016 526.561 216.432 Q524.663 216.849 522.51 216.849 Q516.654 216.849 513.205 213.168 Q509.756 209.488 509.756 203.238 Q509.756 196.895 513.228 193.261 Q516.723 189.627 522.788 189.627 Q524.756 189.627 526.631 190.043 Q528.506 190.437 530.265 191.247 Z" fill="#000000" fill-rule="nonzero" fill-opacity="1" /><path clip-path="url(#clip320)" d="M541.885 182.891 L541.885 190.252 L550.658 190.252 L550.658 193.562 L541.885 193.562 L541.885 207.636 Q541.885 210.807 542.742 211.71 Q543.621 212.613 546.283 212.613 L550.658 212.613 L550.658 216.178 L546.283 216.178 Q541.353 216.178 539.478 214.349 Q537.603 212.497 537.603 207.636 L537.603 193.562 L534.478 193.562 L534.478 190.252 L537.603 190.252 L537.603 182.891 L541.885 182.891 Z" fill="#000000" fill-rule="nonzero" fill-opacity="1" /></svg>
