<?xml version="1.0" encoding="utf-8"?>
<svg xmlns="http://www.w3.org/2000/svg" xmlns:xlink="http://www.w3.org/1999/xlink" width="600" height="400" viewBox="0 0 2400 1600">
<defs>
  <clipPath id="clip350">
    <rect x="0" y="0" width="2400" height="1600"/>
  </clipPath>
</defs>
<path clip-path="url(#clip350)" d="M0 1600 L2400 1600 L2400 0 L0 0  Z" fill="#ffffff" fill-rule="evenodd" fill-opacity="1"/>
<defs>
  <clipPath id="clip351">
    <rect x="480" y="0" width="1681" height="1600"/>
  </clipPath>
</defs>
<path clip-path="url(#clip350)" d="M156.112 1486.45 L2352.76 1486.45 L2352.76 47.2441 L156.112 47.2441  Z" fill="#ffffff" fill-rule="evenodd" fill-opacity="1"/>
<defs>
  <clipPath id="clip352">
    <rect x="156" y="47" width="2198" height="1440"/>
  </clipPath>
</defs>
<polyline clip-path="url(#clip352)" style="stroke:#000000; stroke-linecap:round; stroke-linejoin:round; stroke-width:2; stroke-opacity:0.1; fill:none" points="218.281,1486.45 218.281,47.2441 "/>
<polyline clip-path="url(#clip352)" style="stroke:#000000; stroke-linecap:round; stroke-linejoin:round; stroke-width:2; stroke-opacity:0.1; fill:none" points="736.358,1486.45 736.358,47.2441 "/>
<polyline clip-path="url(#clip352)" style="stroke:#000000; stroke-linecap:round; stroke-linejoin:round; stroke-width:2; stroke-opacity:0.1; fill:none" points="1254.43,1486.45 1254.43,47.2441 "/>
<polyline clip-path="url(#clip352)" style="stroke:#000000; stroke-linecap:round; stroke-linejoin:round; stroke-width:2; stroke-opacity:0.1; fill:none" points="1772.51,1486.45 1772.51,47.2441 "/>
<polyline clip-path="url(#clip352)" style="stroke:#000000; stroke-linecap:round; stroke-linejoin:round; stroke-width:2; stroke-opacity:0.1; fill:none" points="2290.59,1486.45 2290.59,47.2441 "/>
<polyline clip-path="url(#clip350)" style="stroke:#000000; stroke-linecap:round; stroke-linejoin:round; stroke-width:4; stroke-opacity:1; fill:none" points="156.112,1486.45 2352.76,1486.45 "/>
<polyline clip-path="url(#clip350)" style="stroke:#000000; stroke-linecap:round; stroke-linejoin:round; stroke-width:4; stroke-opacity:1; fill:none" points="218.281,1486.45 218.281,1467.55 "/>
<polyline clip-path="url(#clip350)" style="stroke:#000000; stroke-linecap:round; stroke-linejoin:round; stroke-width:4; stroke-opacity:1; fill:none" points="736.358,1486.45 736.358,1467.55 "/>
<polyline clip-path="url(#clip350)" style="stroke:#000000; stroke-linecap:round; stroke-linejoin:round; stroke-width:4; stroke-opacity:1; fill:none" points="1254.43,1486.45 1254.43,1467.55 "/>
<polyline clip-path="url(#clip350)" style="stroke:#000000; stroke-linecap:round; stroke-linejoin:round; stroke-width:4; stroke-opacity:1; fill:none" points="1772.51,1486.45 1772.51,1467.55 "/>
<polyline clip-path="url(#clip350)" style="stroke:#000000; stroke-linecap:round; stroke-linejoin:round; stroke-width:4; stroke-opacity:1; fill:none" points="2290.59,1486.45 2290.59,1467.55 "/>
<path clip-path="url(#clip350)" d="M164.809 1532.02 L194.485 1532.02 L194.485 1535.95 L164.809 1535.95 L164.809 1532.02 Z" fill="#000000" fill-rule="nonzero" fill-opacity="1" /><path clip-path="url(#clip350)" d="M205.388 1544.91 L213.027 1544.91 L213.027 1518.55 L204.717 1520.21 L204.717 1515.95 L212.98 1514.29 L217.656 1514.29 L217.656 1544.91 L225.295 1544.91 L225.295 1548.85 L205.388 1548.85 L205.388 1544.91 Z" fill="#000000" fill-rule="nonzero" fill-opacity="1" /><path clip-path="url(#clip350)" d="M234.74 1542.97 L239.624 1542.97 L239.624 1548.85 L234.74 1548.85 L234.74 1542.97 Z" fill="#000000" fill-rule="nonzero" fill-opacity="1" /><path clip-path="url(#clip350)" d="M259.809 1517.37 Q256.198 1517.37 254.369 1520.93 Q252.564 1524.47 252.564 1531.6 Q252.564 1538.71 254.369 1542.27 Q256.198 1545.82 259.809 1545.82 Q263.443 1545.82 265.249 1542.27 Q267.077 1538.71 267.077 1531.6 Q267.077 1524.47 265.249 1520.93 Q263.443 1517.37 259.809 1517.37 M259.809 1513.66 Q265.619 1513.66 268.675 1518.27 Q271.753 1522.85 271.753 1531.6 Q271.753 1540.33 268.675 1544.94 Q265.619 1549.52 259.809 1549.52 Q253.999 1549.52 250.92 1544.94 Q247.864 1540.33 247.864 1531.6 Q247.864 1522.85 250.92 1518.27 Q253.999 1513.66 259.809 1513.66 Z" fill="#000000" fill-rule="nonzero" fill-opacity="1" /><path clip-path="url(#clip350)" d="M683.383 1532.02 L713.059 1532.02 L713.059 1535.95 L683.383 1535.95 L683.383 1532.02 Z" fill="#000000" fill-rule="nonzero" fill-opacity="1" /><path clip-path="url(#clip350)" d="M733.152 1517.37 Q729.541 1517.37 727.712 1520.93 Q725.906 1524.47 725.906 1531.6 Q725.906 1538.71 727.712 1542.27 Q729.541 1545.82 733.152 1545.82 Q736.786 1545.82 738.591 1542.27 Q740.42 1538.71 740.42 1531.6 Q740.42 1524.47 738.591 1520.93 Q736.786 1517.37 733.152 1517.37 M733.152 1513.66 Q738.962 1513.66 742.017 1518.27 Q745.096 1522.85 745.096 1531.6 Q745.096 1540.33 742.017 1544.94 Q738.962 1549.52 733.152 1549.52 Q727.341 1549.52 724.263 1544.94 Q721.207 1540.33 721.207 1531.6 Q721.207 1522.85 724.263 1518.27 Q727.341 1513.66 733.152 1513.66 Z" fill="#000000" fill-rule="nonzero" fill-opacity="1" /><path clip-path="url(#clip350)" d="M753.314 1542.97 L758.198 1542.97 L758.198 1548.85 L753.314 1548.85 L753.314 1542.97 Z" fill="#000000" fill-rule="nonzero" fill-opacity="1" /><path clip-path="url(#clip350)" d="M768.429 1514.29 L786.786 1514.29 L786.786 1518.22 L772.712 1518.22 L772.712 1526.7 Q773.73 1526.35 774.749 1526.19 Q775.767 1526 776.786 1526 Q782.573 1526 785.952 1529.17 Q789.332 1532.34 789.332 1537.76 Q789.332 1543.34 785.86 1546.44 Q782.387 1549.52 776.068 1549.52 Q773.892 1549.52 771.624 1549.15 Q769.378 1548.78 766.971 1548.04 L766.971 1543.34 Q769.054 1544.47 771.276 1545.03 Q773.499 1545.58 775.975 1545.58 Q779.98 1545.58 782.318 1543.48 Q784.656 1541.37 784.656 1537.76 Q784.656 1534.15 782.318 1532.04 Q779.98 1529.94 775.975 1529.94 Q774.101 1529.94 772.226 1530.35 Q770.374 1530.77 768.429 1531.65 L768.429 1514.29 Z" fill="#000000" fill-rule="nonzero" fill-opacity="1" /><path clip-path="url(#clip350)" d="M1231.82 1517.37 Q1228.21 1517.37 1226.38 1520.93 Q1224.57 1524.47 1224.57 1531.6 Q1224.57 1538.71 1226.38 1542.27 Q1228.21 1545.82 1231.82 1545.82 Q1235.45 1545.82 1237.26 1542.27 Q1239.09 1538.71 1239.09 1531.6 Q1239.09 1524.47 1237.26 1520.93 Q1235.45 1517.37 1231.82 1517.37 M1231.82 1513.66 Q1237.63 1513.66 1240.68 1518.27 Q1243.76 1522.85 1243.76 1531.6 Q1243.76 1540.33 1240.68 1544.94 Q1237.63 1549.52 1231.82 1549.52 Q1226.01 1549.52 1222.93 1544.94 Q1219.87 1540.33 1219.87 1531.6 Q1219.87 1522.85 1222.93 1518.27 Q1226.01 1513.66 1231.82 1513.66 Z" fill="#000000" fill-rule="nonzero" fill-opacity="1" /><path clip-path="url(#clip350)" d="M1251.98 1542.97 L1256.86 1542.97 L1256.86 1548.85 L1251.98 1548.85 L1251.98 1542.97 Z" fill="#000000" fill-rule="nonzero" fill-opacity="1" /><path clip-path="url(#clip350)" d="M1277.05 1517.37 Q1273.44 1517.37 1271.61 1520.93 Q1269.8 1524.47 1269.8 1531.6 Q1269.8 1538.71 1271.61 1542.27 Q1273.44 1545.82 1277.05 1545.82 Q1280.68 1545.82 1282.49 1542.27 Q1284.32 1538.71 1284.32 1531.6 Q1284.32 1524.47 1282.49 1520.93 Q1280.68 1517.37 1277.05 1517.37 M1277.05 1513.66 Q1282.86 1513.66 1285.92 1518.27 Q1288.99 1522.85 1288.99 1531.6 Q1288.99 1540.33 1285.92 1544.94 Q1282.86 1549.52 1277.05 1549.52 Q1271.24 1549.52 1268.16 1544.94 Q1265.11 1540.33 1265.11 1531.6 Q1265.11 1522.85 1268.16 1518.27 Q1271.24 1513.66 1277.05 1513.66 Z" fill="#000000" fill-rule="nonzero" fill-opacity="1" /><path clip-path="url(#clip350)" d="M1750.39 1517.37 Q1746.78 1517.37 1744.95 1520.93 Q1743.15 1524.47 1743.15 1531.6 Q1743.15 1538.71 1744.95 1542.27 Q1746.78 1545.82 1750.39 1545.82 Q1754.03 1545.82 1755.83 1542.27 Q1757.66 1538.71 1757.66 1531.6 Q1757.66 1524.47 1755.83 1520.93 Q1754.03 1517.37 1750.39 1517.37 M1750.39 1513.66 Q1756.2 1513.66 1759.26 1518.27 Q1762.34 1522.85 1762.34 1531.6 Q1762.34 1540.33 1759.26 1544.94 Q1756.2 1549.52 1750.39 1549.52 Q1744.58 1549.52 1741.5 1544.94 Q1738.45 1540.33 1738.45 1531.6 Q1738.45 1522.85 1741.5 1518.27 Q1744.58 1513.66 1750.39 1513.66 Z" fill="#000000" fill-rule="nonzero" fill-opacity="1" /><path clip-path="url(#clip350)" d="M1770.55 1542.97 L1775.44 1542.97 L1775.44 1548.85 L1770.55 1548.85 L1770.55 1542.97 Z" fill="#000000" fill-rule="nonzero" fill-opacity="1" /><path clip-path="url(#clip350)" d="M1785.67 1514.29 L1804.03 1514.29 L1804.03 1518.22 L1789.95 1518.22 L1789.95 1526.7 Q1790.97 1526.35 1791.99 1526.19 Q1793.01 1526 1794.03 1526 Q1799.81 1526 1803.19 1529.17 Q1806.57 1532.34 1806.57 1537.76 Q1806.57 1543.34 1803.1 1546.44 Q1799.63 1549.52 1793.31 1549.52 Q1791.13 1549.52 1788.86 1549.15 Q1786.62 1548.78 1784.21 1548.04 L1784.21 1543.34 Q1786.3 1544.47 1788.52 1545.03 Q1790.74 1545.58 1793.22 1545.58 Q1797.22 1545.58 1799.56 1543.48 Q1801.9 1541.37 1801.9 1537.76 Q1801.9 1534.15 1799.56 1532.04 Q1797.22 1529.94 1793.22 1529.94 Q1791.34 1529.94 1789.47 1530.35 Q1787.61 1530.77 1785.67 1531.65 L1785.67 1514.29 Z" fill="#000000" fill-rule="nonzero" fill-opacity="1" /><path clip-path="url(#clip350)" d="M2257.74 1544.91 L2265.38 1544.91 L2265.38 1518.55 L2257.07 1520.21 L2257.07 1515.95 L2265.33 1514.29 L2270.01 1514.29 L2270.01 1544.91 L2277.65 1544.91 L2277.65 1548.85 L2257.74 1548.85 L2257.74 1544.91 Z" fill="#000000" fill-rule="nonzero" fill-opacity="1" /><path clip-path="url(#clip350)" d="M2287.09 1542.97 L2291.98 1542.97 L2291.98 1548.85 L2287.09 1548.85 L2287.09 1542.97 Z" fill="#000000" fill-rule="nonzero" fill-opacity="1" /><path clip-path="url(#clip350)" d="M2312.16 1517.37 Q2308.55 1517.37 2306.72 1520.93 Q2304.92 1524.47 2304.92 1531.6 Q2304.92 1538.71 2306.72 1542.27 Q2308.55 1545.82 2312.16 1545.82 Q2315.79 1545.82 2317.6 1542.27 Q2319.43 1538.71 2319.43 1531.6 Q2319.43 1524.47 2317.6 1520.93 Q2315.79 1517.37 2312.16 1517.37 M2312.16 1513.66 Q2317.97 1513.66 2321.03 1518.27 Q2324.11 1522.85 2324.11 1531.6 Q2324.11 1540.33 2321.03 1544.94 Q2317.97 1549.52 2312.16 1549.52 Q2306.35 1549.52 2303.27 1544.94 Q2300.22 1540.33 2300.22 1531.6 Q2300.22 1522.85 2303.27 1518.27 Q2306.35 1513.66 2312.16 1513.66 Z" fill="#000000" fill-rule="nonzero" fill-opacity="1" /><polyline clip-path="url(#clip352)" style="stroke:#000000; stroke-linecap:round; stroke-linejoin:round; stroke-width:2; stroke-opacity:0.1; fill:none" points="156.112,1156.22 2352.76,1156.22 "/>
<polyline clip-path="url(#clip352)" style="stroke:#000000; stroke-linecap:round; stroke-linejoin:round; stroke-width:2; stroke-opacity:0.1; fill:none" points="156.112,791.67 2352.76,791.67 "/>
<polyline clip-path="url(#clip352)" style="stroke:#000000; stroke-linecap:round; stroke-linejoin:round; stroke-width:2; stroke-opacity:0.1; fill:none" points="156.112,427.122 2352.76,427.122 "/>
<polyline clip-path="url(#clip352)" style="stroke:#000000; stroke-linecap:round; stroke-linejoin:round; stroke-width:2; stroke-opacity:0.1; fill:none" points="156.112,62.5735 2352.76,62.5735 "/>
<polyline clip-path="url(#clip350)" style="stroke:#000000; stroke-linecap:round; stroke-linejoin:round; stroke-width:4; stroke-opacity:1; fill:none" points="156.112,1486.45 156.112,47.2441 "/>
<polyline clip-path="url(#clip350)" style="stroke:#000000; stroke-linecap:round; stroke-linejoin:round; stroke-width:4; stroke-opacity:1; fill:none" points="156.112,1156.22 175.01,1156.22 "/>
<polyline clip-path="url(#clip350)" style="stroke:#000000; stroke-linecap:round; stroke-linejoin:round; stroke-width:4; stroke-opacity:1; fill:none" points="156.112,791.67 175.01,791.67 "/>
<polyline clip-path="url(#clip350)" style="stroke:#000000; stroke-linecap:round; stroke-linejoin:round; stroke-width:4; stroke-opacity:1; fill:none" points="156.112,427.122 175.01,427.122 "/>
<polyline clip-path="url(#clip350)" style="stroke:#000000; stroke-linecap:round; stroke-linejoin:round; stroke-width:4; stroke-opacity:1; fill:none" points="156.112,62.5735 175.01,62.5735 "/>
<path clip-path="url(#clip350)" d="M62.9365 1142.02 Q59.3254 1142.02 57.4967 1145.58 Q55.6912 1149.12 55.6912 1156.25 Q55.6912 1163.36 57.4967 1166.92 Q59.3254 1170.47 62.9365 1170.47 Q66.5707 1170.47 68.3763 1166.92 Q70.205 1163.36 70.205 1156.25 Q70.205 1149.12 68.3763 1145.58 Q66.5707 1142.02 62.9365 1142.02 M62.9365 1138.31 Q68.7467 1138.31 71.8022 1142.92 Q74.8809 1147.5 74.8809 1156.25 Q74.8809 1164.98 71.8022 1169.59 Q68.7467 1174.17 62.9365 1174.17 Q57.1264 1174.17 54.0477 1169.59 Q50.9921 1164.98 50.9921 1156.25 Q50.9921 1147.5 54.0477 1142.92 Q57.1264 1138.31 62.9365 1138.31 Z" fill="#000000" fill-rule="nonzero" fill-opacity="1" /><path clip-path="url(#clip350)" d="M83.0984 1167.62 L87.9827 1167.62 L87.9827 1173.5 L83.0984 1173.5 L83.0984 1167.62 Z" fill="#000000" fill-rule="nonzero" fill-opacity="1" /><path clip-path="url(#clip350)" d="M108.168 1142.02 Q104.557 1142.02 102.728 1145.58 Q100.922 1149.12 100.922 1156.25 Q100.922 1163.36 102.728 1166.92 Q104.557 1170.47 108.168 1170.47 Q111.802 1170.47 113.608 1166.92 Q115.436 1163.36 115.436 1156.25 Q115.436 1149.12 113.608 1145.58 Q111.802 1142.02 108.168 1142.02 M108.168 1138.31 Q113.978 1138.31 117.033 1142.92 Q120.112 1147.5 120.112 1156.25 Q120.112 1164.98 117.033 1169.59 Q113.978 1174.17 108.168 1174.17 Q102.358 1174.17 99.2789 1169.59 Q96.2234 1164.98 96.2234 1156.25 Q96.2234 1147.5 99.2789 1142.92 Q102.358 1138.31 108.168 1138.31 Z" fill="#000000" fill-rule="nonzero" fill-opacity="1" /><path clip-path="url(#clip350)" d="M63.9319 777.468 Q60.3208 777.468 58.4921 781.033 Q56.6865 784.575 56.6865 791.704 Q56.6865 798.811 58.4921 802.376 Q60.3208 805.917 63.9319 805.917 Q67.5661 805.917 69.3717 802.376 Q71.2004 798.811 71.2004 791.704 Q71.2004 784.575 69.3717 781.033 Q67.5661 777.468 63.9319 777.468 M63.9319 773.765 Q69.742 773.765 72.7976 778.371 Q75.8763 782.954 75.8763 791.704 Q75.8763 800.431 72.7976 805.038 Q69.742 809.621 63.9319 809.621 Q58.1217 809.621 55.043 805.038 Q51.9875 800.431 51.9875 791.704 Q51.9875 782.954 55.043 778.371 Q58.1217 773.765 63.9319 773.765 Z" fill="#000000" fill-rule="nonzero" fill-opacity="1" /><path clip-path="url(#clip350)" d="M84.0938 803.07 L88.978 803.07 L88.978 808.95 L84.0938 808.95 L84.0938 803.07 Z" fill="#000000" fill-rule="nonzero" fill-opacity="1" /><path clip-path="url(#clip350)" d="M99.2095 774.39 L117.566 774.39 L117.566 778.325 L103.492 778.325 L103.492 786.797 Q104.51 786.45 105.529 786.288 Q106.547 786.102 107.566 786.102 Q113.353 786.102 116.733 789.274 Q120.112 792.445 120.112 797.862 Q120.112 803.44 116.64 806.542 Q113.168 809.621 106.848 809.621 Q104.672 809.621 102.404 809.251 Q100.159 808.88 97.7511 808.139 L97.7511 803.44 Q99.8345 804.575 102.057 805.13 Q104.279 805.686 106.756 805.686 Q110.76 805.686 113.098 803.579 Q115.436 801.473 115.436 797.862 Q115.436 794.251 113.098 792.144 Q110.76 790.038 106.756 790.038 Q104.881 790.038 103.006 790.454 Q101.154 790.871 99.2095 791.751 L99.2095 774.39 Z" fill="#000000" fill-rule="nonzero" fill-opacity="1" /><path clip-path="url(#clip350)" d="M53.7467 440.466 L61.3856 440.466 L61.3856 414.101 L53.0754 415.767 L53.0754 411.508 L61.3393 409.842 L66.0152 409.842 L66.0152 440.466 L73.654 440.466 L73.654 444.402 L53.7467 444.402 L53.7467 440.466 Z" fill="#000000" fill-rule="nonzero" fill-opacity="1" /><path clip-path="url(#clip350)" d="M83.0984 438.522 L87.9827 438.522 L87.9827 444.402 L83.0984 444.402 L83.0984 438.522 Z" fill="#000000" fill-rule="nonzero" fill-opacity="1" /><path clip-path="url(#clip350)" d="M108.168 412.92 Q104.557 412.92 102.728 416.485 Q100.922 420.027 100.922 427.156 Q100.922 434.263 102.728 437.828 Q104.557 441.369 108.168 441.369 Q111.802 441.369 113.608 437.828 Q115.436 434.263 115.436 427.156 Q115.436 420.027 113.608 416.485 Q111.802 412.92 108.168 412.92 M108.168 409.217 Q113.978 409.217 117.033 413.823 Q120.112 418.406 120.112 427.156 Q120.112 435.883 117.033 440.49 Q113.978 445.073 108.168 445.073 Q102.358 445.073 99.2789 440.49 Q96.2234 435.883 96.2234 427.156 Q96.2234 418.406 99.2789 413.823 Q102.358 409.217 108.168 409.217 Z" fill="#000000" fill-rule="nonzero" fill-opacity="1" /><path clip-path="url(#clip350)" d="M54.7421 75.9184 L62.381 75.9184 L62.381 49.5528 L54.0708 51.2194 L54.0708 46.9602 L62.3347 45.2935 L67.0106 45.2935 L67.0106 75.9184 L74.6494 75.9184 L74.6494 79.8535 L54.7421 79.8535 L54.7421 75.9184 Z" fill="#000000" fill-rule="nonzero" fill-opacity="1" /><path clip-path="url(#clip350)" d="M84.0938 73.9739 L88.978 73.9739 L88.978 79.8535 L84.0938 79.8535 L84.0938 73.9739 Z" fill="#000000" fill-rule="nonzero" fill-opacity="1" /><path clip-path="url(#clip350)" d="M99.2095 45.2935 L117.566 45.2935 L117.566 49.2287 L103.492 49.2287 L103.492 57.7009 Q104.51 57.3537 105.529 57.1916 Q106.547 57.0064 107.566 57.0064 Q113.353 57.0064 116.733 60.1777 Q120.112 63.349 120.112 68.7656 Q120.112 74.3443 116.64 77.4461 Q113.168 80.5248 106.848 80.5248 Q104.672 80.5248 102.404 80.1545 Q100.159 79.7841 97.7511 79.0434 L97.7511 74.3443 Q99.8345 75.4786 102.057 76.0341 Q104.279 76.5897 106.756 76.5897 Q110.76 76.5897 113.098 74.4832 Q115.436 72.3767 115.436 68.7656 Q115.436 65.1545 113.098 63.0481 Q110.76 60.9416 106.756 60.9416 Q104.881 60.9416 103.006 61.3583 Q101.154 61.7749 99.2095 62.6546 L99.2095 45.2935 Z" fill="#000000" fill-rule="nonzero" fill-opacity="1" /><polyline clip-path="url(#clip352)" style="stroke:#009af9; stroke-linecap:round; stroke-linejoin:round; stroke-width:16; stroke-opacity:1; fill:none" stroke-dasharray="8, 16" points="218.281,1046.71 228.695,974.815 239.108,936.41 249.522,961.576 259.936,1008.13 270.349,1027.81 280.763,1016.45 291.176,1009.76 301.59,1042.44 312.004,1107.44 322.417,1163.85 332.831,1180.55 343.244,1152.44 353.658,1097.46 364.072,1060.12 374.485,1094.3 384.899,1208.88 395.312,1351.65 405.726,1445.72 416.14,1438.81 426.553,1340.12 436.967,1206.57 447.38,1118.77 457.794,1135.73 468.208,1239 478.621,1340.24 489.035,1391.53 499.448,1374.44 509.862,1263.47 520.276,1113.58 530.689,1019.1 541.103,1014.51 551.516,1066.04 561.93,1113.66 572.344,1110.19 582.757,1060.69 593.171,1019.79 603.584,1038.42 613.998,1106.85 624.411,1149.43 634.825,1093.46 645.239,971.325 655.652,909.963 666.066,965.997 676.479,1056.45 686.893,1091.86 697.307,1094.16 707.72,1123.09 718.134,1172.14 728.547,1191.74 738.961,1175.35 749.375,1166.51 759.788,1206.85 770.202,1297.44 780.615,1381.52 791.029,1397.99 801.443,1351.59 811.856,1293.12 822.27,1252.05 832.683,1225.03 843.097,1217.05 853.511,1254.91 863.924,1333.41 874.338,1377.16 884.751,1306.69 895.165,1147.19 905.579,1005.93 915.992,950.683 926.406,977.916 936.819,1051.04 947.233,1129.53 957.647,1174.38 968.06,1145.27 978.474,1026.38 988.887,876.852 999.301,815.571 1009.71,888.074 1020.13,1021.15 1030.54,1128.21 1040.96,1170.76 1051.37,1158.33 1061.78,1134.22 1072.2,1144.44 1082.61,1200.97 1093.02,1260.83 1103.44,1253.34 1113.85,1172.77 1124.26,1112.75 1134.68,1151.36 1145.09,1261.18 1155.5,1342.98 1165.92,1358.71 1176.33,1335.68 1186.75,1300.2 1197.16,1270.45 1207.57,1264.07 1217.99,1279.55 1228.4,1260.89 1238.81,1096.7 1249.23,780.768 1259.64,559.381 1270.05,452.339 1280.47,419.911 1290.88,441.358 1301.3,460.543 1311.71,454.094 1322.12,428.56 1332.54,397.765 1342.95,373.157 1353.36,376.779 1363.78,440.774 1374.19,537.224 1384.6,565.749 1395.02,493.942 1405.43,400.245 1415.84,375.961 1426.26,420.819 1436.67,464.79 1447.09,454.897 1457.5,396.071 1467.91,338.699 1478.33,334.12 1488.74,396.966 1499.15,498.401 1509.57,564.955 1519.98,526.251 1530.39,428.884 1540.81,376.718 1551.22,391.898 1561.64,436.371 1572.05,473.84 1582.46,492.401 1592.88,489.995 1603.29,449.231 1613.7,354.035 1624.12,255.889 1634.53,248.917 1644.94,346.615 1655.36,461.81 1665.77,520.394 1676.18,526.499 1686.6,511.443 1697.01,473.776 1707.43,396.578 1717.84,305.206 1728.25,268.242 1738.67,311.784 1749.08,388.786 1759.49,454.744 1769.91,495.97 1780.32,509.667 1790.73,513.473 1801.15,511.417 1811.56,482.181 1821.97,442.569 1832.39,450.905 1842.8,498.018 1853.22,484.851 1863.63,370.371 1874.04,249.71 1884.46,246.309 1894.87,369.364 1905.28,513.452 1915.7,575.74 1926.11,537.873 1936.52,456.547 1946.94,400.874 1957.35,394.061 1967.77,408.046 1978.18,402.736 1988.59,360.276 1999.01,304.547 2009.42,296.675 2019.83,380.309 2030.25,513.037 2040.66,632.257 2051.07,699.502 2061.49,653.763 2071.9,485.388 2082.31,268.503 2092.73,110.803 2103.14,87.9763 2113.56,209.618 2123.97,413.345 2134.38,603.517 2144.8,703.533 2155.21,689.956 2165.62,589.264 2176.04,446.628 2186.45,321.789 2196.86,264.435 2207.28,273.508 2217.69,306.614 2228.11,332.631 2238.52,362.254 2248.93,423.586 2259.35,518.379 2269.76,604.42 2280.17,632.565 2290.59,608.515 "/>
<polyline clip-path="url(#clip352)" style="stroke:#e26f46; stroke-linecap:round; stroke-linejoin:round; stroke-width:4; stroke-opacity:1; fill:none" points="218.281,1046.71 228.695,1031.17 239.108,1019.72 249.522,1012.72 259.936,1010.4 270.349,1012.84 280.763,1019.96 291.176,1031.53 301.59,1047.17 312.004,1066.37 322.417,1088.49 332.831,1112.83 343.244,1138.59 353.658,1164.92 364.072,1190.97 374.485,1215.88 384.899,1238.85 395.312,1259.11 405.726,1276.03 416.14,1289.03 426.553,1297.69 436.967,1301.74 447.38,1301.04 457.794,1295.61 468.208,1285.63 478.621,1271.43 489.035,1253.47 499.448,1232.34 509.862,1208.72 520.276,1183.38 530.689,1157.16 541.103,1130.91 551.516,1105.49 561.93,1081.72 572.344,1060.38 582.757,1042.17 593.171,1027.68 603.584,1017.39 613.998,1011.63 624.411,1010.59 634.825,1014.3 645.239,1022.64 655.652,1035.34 666.066,1051.99 676.479,1072.04 686.893,1094.83 697.307,1119.63 707.72,1145.62 718.134,1171.96 728.547,1197.79 738.961,1222.26 749.375,1244.57 759.788,1264 770.202,1279.91 780.615,1291.79 791.029,1299.24 801.443,1302.02 811.856,1300.04 822.27,1293.37 832.683,1282.23 843.097,1266.97 853.511,1248.09 863.924,1226.22 874.338,1202.06 884.751,1176.41 895.165,1150.1 905.579,1123.99 915.992,1098.92 926.406,1075.73 936.819,1055.17 947.233,1037.9 957.647,1024.5 968.06,1015.39 978.474,1010.88 988.887,1011.12 999.301,1016.09 1009.71,1025.63 1020.13,1039.43 1030.54,1057.05 1040.96,1077.9 1051.37,1101.31 1061.78,1126.51 1072.2,1152.68 1082.61,1178.97 1093.02,1204.51 1103.44,1228.48 1113.85,1250.09 1124.26,1268.63 1134.68,1283.51 1145.09,1294.23 1155.5,1300.45 1165.92,1301.96 1176.33,1298.71 1186.75,1290.81 1197.16,1278.52 1207.57,1262.24 1217.99,1242.5 1228.4,1219.94 1238.81,1195.3 1249.23,1169.39 1259.64,426.063 1270.05,424.858 1280.47,425.954 1290.88,429.605 1301.3,434.692 1311.71,439.064 1322.12,440.359 1332.54,436.995 1342.95,428.974 1353.36,418.162 1363.78,407.874 1374.19,401.864 1384.6,403.017 1395.02,412.187 1405.43,427.611 1415.84,445.165 1426.26,459.46 1436.67,465.49 1447.09,460.328 1457.5,444.313 1467.91,421.277 1478.33,397.669 1488.74,380.75 1499.15,376.366 1509.57,386.992 1519.98,410.665 1530.39,441.237 1540.81,469.956 1551.22,487.967 1561.64,489.034 1572.05,471.633 1582.46,439.742 1592.88,401.992 1603.29,369.337 1613.7,351.882 1624.12,355.763 1634.53,381.07 1644.94,421.471 1655.36,465.762 1665.77,500.968 1676.18,516.146 1686.6,505.767 1697.01,471.635 1707.43,422.715 1717.84,372.793 1728.25,336.596 1738.67,325.448 1749.08,343.753 1759.49,387.384 1769.91,444.542 1780.32,498.935 1790.73,534.421 1801.15,539.797 1811.56,512.3 1821.97,458.759 1832.39,393.936 1842.8,336.465 1853.22,303.495 1863.63,305.579 1874.04,343.334 1884.46,406.911 1894.87,478.541 1905.28,537.494 1915.7,566.08 1926.11,554.948 1936.52,506.1 1946.94,432.656 1957.35,355.352 1967.77,296.686 1978.18,274.37 1988.59,295.996 1999.01,356.515 2009.42,439.354 2019.83,520.941 2030.25,577.415 2040.66,591.6 2051.07,558.213 2061.49,485.732 2071.9,394.274 2082.31,310.028 2092.73,257.746 2103.14,253.481 2113.56,299.676 2123.97,384.112 2134.38,483.115 2144.8,568.193 2155.21,614.229 2165.62,606.899 2176.04,547.098 2186.45,451.03 2196.86,345.838 2207.28,261.932 2217.69,224.203 2228.11,244.642 2238.52,318.567 2248.93,425.624 2259.35,535.382 2269.76,615.981 2280.17,643.379 2290.59,608.516 "/>
<path clip-path="url(#clip350)" d="M229.334 250.738 L675.825 250.738 L675.825 95.2176 L229.334 95.2176  Z" fill="#ffffff" fill-rule="evenodd" fill-opacity="1"/>
<polyline clip-path="url(#clip350)" style="stroke:#000000; stroke-linecap:round; stroke-linejoin:round; stroke-width:4; stroke-opacity:1; fill:none" points="229.334,250.738 675.825,250.738 675.825,95.2176 229.334,95.2176 229.334,250.738 "/>
<polyline clip-path="url(#clip350)" style="stroke:#009af9; stroke-linecap:round; stroke-linejoin:round; stroke-width:16; stroke-opacity:1; fill:none" stroke-dasharray="8, 16" points="253.741,147.058 400.184,147.058 "/>
<path clip-path="url(#clip350)" d="M429.267 133.62 L429.267 146.606 L435.146 146.606 Q438.41 146.606 440.193 144.916 Q441.975 143.227 441.975 140.102 Q441.975 137 440.193 135.31 Q438.41 133.62 435.146 133.62 L429.267 133.62 M424.591 129.778 L435.146 129.778 Q440.956 129.778 443.919 132.416 Q446.906 135.032 446.906 140.102 Q446.906 145.217 443.919 147.833 Q440.956 150.449 435.146 150.449 L429.267 150.449 L429.267 164.338 L424.591 164.338 L424.591 129.778 Z" fill="#000000" fill-rule="nonzero" fill-opacity="1" /><path clip-path="url(#clip350)" d="M467.183 142.393 Q466.466 141.977 465.609 141.791 Q464.776 141.583 463.757 141.583 Q460.146 141.583 458.202 143.944 Q456.28 146.282 456.28 150.68 L456.28 164.338 L451.998 164.338 L451.998 138.412 L456.28 138.412 L456.28 142.44 Q457.623 140.078 459.776 138.944 Q461.929 137.787 465.007 137.787 Q465.447 137.787 465.979 137.856 Q466.512 137.903 467.16 138.018 L467.183 142.393 Z" fill="#000000" fill-rule="nonzero" fill-opacity="1" /><path clip-path="url(#clip350)" d="M492.785 150.31 L492.785 152.393 L473.202 152.393 Q473.479 156.791 475.841 159.106 Q478.225 161.398 482.461 161.398 Q484.915 161.398 487.206 160.796 Q489.521 160.194 491.79 158.99 L491.79 163.018 Q489.498 163.99 487.09 164.5 Q484.683 165.009 482.206 165.009 Q476.003 165.009 472.368 161.398 Q468.757 157.787 468.757 151.629 Q468.757 145.264 472.183 141.537 Q475.632 137.787 481.466 137.787 Q486.697 137.787 489.729 141.166 Q492.785 144.523 492.785 150.31 M488.526 149.06 Q488.479 145.565 486.558 143.481 Q484.66 141.398 481.512 141.398 Q477.947 141.398 475.794 143.412 Q473.665 145.426 473.341 149.083 L488.526 149.06 Z" fill="#000000" fill-rule="nonzero" fill-opacity="1" /><path clip-path="url(#clip350)" d="M516.836 142.347 L516.836 128.319 L521.095 128.319 L521.095 164.338 L516.836 164.338 L516.836 160.449 Q515.493 162.763 513.433 163.898 Q511.396 165.009 508.526 165.009 Q503.826 165.009 500.864 161.259 Q497.924 157.509 497.924 151.398 Q497.924 145.287 500.864 141.537 Q503.826 137.787 508.526 137.787 Q511.396 137.787 513.433 138.921 Q515.493 140.032 516.836 142.347 M502.322 151.398 Q502.322 156.097 504.243 158.782 Q506.188 161.444 509.567 161.444 Q512.947 161.444 514.891 158.782 Q516.836 156.097 516.836 151.398 Q516.836 146.699 514.891 144.037 Q512.947 141.352 509.567 141.352 Q506.188 141.352 504.243 144.037 Q502.322 146.699 502.322 151.398 Z" fill="#000000" fill-rule="nonzero" fill-opacity="1" /><path clip-path="url(#clip350)" d="M529.868 138.412 L534.127 138.412 L534.127 164.338 L529.868 164.338 L529.868 138.412 M529.868 128.319 L534.127 128.319 L534.127 133.713 L529.868 133.713 L529.868 128.319 Z" fill="#000000" fill-rule="nonzero" fill-opacity="1" /><path clip-path="url(#clip350)" d="M561.697 139.407 L561.697 143.389 Q559.891 142.393 558.062 141.907 Q556.257 141.398 554.405 141.398 Q550.261 141.398 547.97 144.037 Q545.678 146.652 545.678 151.398 Q545.678 156.143 547.97 158.782 Q550.261 161.398 554.405 161.398 Q556.257 161.398 558.062 160.912 Q559.891 160.402 561.697 159.407 L561.697 163.342 Q559.914 164.176 557.993 164.592 Q556.095 165.009 553.942 165.009 Q548.086 165.009 544.636 161.328 Q541.187 157.648 541.187 151.398 Q541.187 145.055 544.66 141.421 Q548.155 137.787 554.22 137.787 Q556.187 137.787 558.062 138.203 Q559.937 138.597 561.697 139.407 Z" fill="#000000" fill-rule="nonzero" fill-opacity="1" /><path clip-path="url(#clip350)" d="M573.317 131.051 L573.317 138.412 L582.09 138.412 L582.09 141.722 L573.317 141.722 L573.317 155.796 Q573.317 158.967 574.173 159.87 Q575.053 160.773 577.715 160.773 L582.09 160.773 L582.09 164.338 L577.715 164.338 Q572.784 164.338 570.909 162.509 Q569.034 160.657 569.034 155.796 L569.034 141.722 L565.909 141.722 L565.909 138.412 L569.034 138.412 L569.034 131.051 L573.317 131.051 Z" fill="#000000" fill-rule="nonzero" fill-opacity="1" /><path clip-path="url(#clip350)" d="M587.692 138.412 L591.951 138.412 L591.951 164.338 L587.692 164.338 L587.692 138.412 M587.692 128.319 L591.951 128.319 L591.951 133.713 L587.692 133.713 L587.692 128.319 Z" fill="#000000" fill-rule="nonzero" fill-opacity="1" /><path clip-path="url(#clip350)" d="M610.909 141.398 Q607.483 141.398 605.493 144.083 Q603.502 146.745 603.502 151.398 Q603.502 156.051 605.469 158.736 Q607.46 161.398 610.909 161.398 Q614.312 161.398 616.303 158.713 Q618.293 156.027 618.293 151.398 Q618.293 146.791 616.303 144.106 Q614.312 141.398 610.909 141.398 M610.909 137.787 Q616.465 137.787 619.636 141.398 Q622.807 145.009 622.807 151.398 Q622.807 157.764 619.636 161.398 Q616.465 165.009 610.909 165.009 Q605.331 165.009 602.159 161.398 Q599.011 157.764 599.011 151.398 Q599.011 145.009 602.159 141.398 Q605.331 137.787 610.909 137.787 Z" fill="#000000" fill-rule="nonzero" fill-opacity="1" /><path clip-path="url(#clip350)" d="M651.418 148.689 L651.418 164.338 L647.159 164.338 L647.159 148.828 Q647.159 145.148 645.724 143.319 Q644.289 141.49 641.418 141.49 Q637.969 141.49 635.979 143.69 Q633.988 145.889 633.988 149.685 L633.988 164.338 L629.705 164.338 L629.705 138.412 L633.988 138.412 L633.988 142.44 Q635.516 140.102 637.576 138.944 Q639.659 137.787 642.367 137.787 Q646.835 137.787 649.127 140.565 Q651.418 143.319 651.418 148.689 Z" fill="#000000" fill-rule="nonzero" fill-opacity="1" /><polyline clip-path="url(#clip350)" style="stroke:#e26f46; stroke-linecap:round; stroke-linejoin:round; stroke-width:4; stroke-opacity:1; fill:none" points="253.741,198.898 400.184,198.898 "/>
<path clip-path="url(#clip350)" d="M424.591 181.618 L446.443 181.618 L446.443 185.553 L429.267 185.553 L429.267 195.784 L445.725 195.784 L445.725 199.719 L429.267 199.719 L429.267 212.242 L446.859 212.242 L446.859 216.178 L424.591 216.178 L424.591 181.618 Z" fill="#000000" fill-rule="nonzero" fill-opacity="1" /><path clip-path="url(#clip350)" d="M475.91 190.252 L466.535 202.867 L476.396 216.178 L471.373 216.178 L463.827 205.992 L456.28 216.178 L451.257 216.178 L461.327 202.613 L452.114 190.252 L457.137 190.252 L464.012 199.488 L470.887 190.252 L475.91 190.252 Z" fill="#000000" fill-rule="nonzero" fill-opacity="1" /><path clip-path="url(#clip350)" d="M494.197 203.145 Q489.035 203.145 487.044 204.326 Q485.053 205.506 485.053 208.354 Q485.053 210.622 486.535 211.965 Q488.04 213.284 490.609 213.284 Q494.151 213.284 496.28 210.784 Q498.433 208.261 498.433 204.094 L498.433 203.145 L494.197 203.145 M502.692 201.386 L502.692 216.178 L498.433 216.178 L498.433 212.242 Q496.975 214.603 494.799 215.738 Q492.623 216.849 489.475 216.849 Q485.493 216.849 483.132 214.627 Q480.794 212.381 480.794 208.631 Q480.794 204.256 483.711 202.034 Q486.651 199.812 492.461 199.812 L498.433 199.812 L498.433 199.395 Q498.433 196.455 496.489 194.858 Q494.567 193.238 491.072 193.238 Q488.85 193.238 486.743 193.77 Q484.637 194.303 482.692 195.367 L482.692 191.432 Q485.03 190.53 487.229 190.09 Q489.428 189.627 491.512 189.627 Q497.137 189.627 499.914 192.543 Q502.692 195.46 502.692 201.386 Z" fill="#000000" fill-rule="nonzero" fill-opacity="1" /><path clip-path="url(#clip350)" d="M530.123 191.247 L530.123 195.229 Q528.317 194.233 526.488 193.747 Q524.683 193.238 522.831 193.238 Q518.688 193.238 516.396 195.877 Q514.104 198.492 514.104 203.238 Q514.104 207.983 516.396 210.622 Q518.688 213.238 522.831 213.238 Q524.683 213.238 526.488 212.752 Q528.317 212.242 530.123 211.247 L530.123 215.182 Q528.34 216.016 526.419 216.432 Q524.521 216.849 522.368 216.849 Q516.512 216.849 513.063 213.168 Q509.614 209.488 509.614 203.238 Q509.614 196.895 513.086 193.261 Q516.581 189.627 522.646 189.627 Q524.613 189.627 526.488 190.043 Q528.363 190.437 530.123 191.247 Z" fill="#000000" fill-rule="nonzero" fill-opacity="1" /><path clip-path="url(#clip350)" d="M541.743 182.891 L541.743 190.252 L550.516 190.252 L550.516 193.562 L541.743 193.562 L541.743 207.636 Q541.743 210.807 542.599 211.71 Q543.479 212.613 546.141 212.613 L550.516 212.613 L550.516 216.178 L546.141 216.178 Q541.211 216.178 539.336 214.349 Q537.461 212.497 537.461 207.636 L537.461 193.562 L534.336 193.562 L534.336 190.252 L537.461 190.252 L537.461 182.891 L541.743 182.891 Z" fill="#000000" fill-rule="nonzero" fill-opacity="1" /></svg>
