<?xml version="1.0" encoding="utf-8"?>
<svg xmlns="http://www.w3.org/2000/svg" xmlns:xlink="http://www.w3.org/1999/xlink" width="600" height="400" viewBox="0 0 2400 1600">
<defs>
  <clipPath id="clip910">
    <rect x="0" y="0" width="2400" height="1600"/>
  </clipPath>
</defs>
<path clip-path="url(#clip910)" d="M0 1600 L2400 1600 L2400 0 L0 0  Z" fill="#ffffff" fill-rule="evenodd" fill-opacity="1"/>
<defs>
  <clipPath id="clip911">
    <rect x="480" y="0" width="1681" height="1600"/>
  </clipPath>
</defs>
<path clip-path="url(#clip910)" d="M223.103 1486.45 L2352.76 1486.45 L2352.76 47.2441 L223.103 47.2441  Z" fill="#ffffff" fill-rule="evenodd" fill-opacity="1"/>
<defs>
  <clipPath id="clip912">
    <rect x="223" y="47" width="2131" height="1440"/>
  </clipPath>
</defs>
<polyline clip-path="url(#clip912)" style="stroke:#000000; stroke-linecap:round; stroke-linejoin:round; stroke-width:2; stroke-opacity:0.1; fill:none" points="283.376,1486.45 283.376,47.2441 "/>
<polyline clip-path="url(#clip912)" style="stroke:#000000; stroke-linecap:round; stroke-linejoin:round; stroke-width:2; stroke-opacity:0.1; fill:none" points="785.652,1486.45 785.652,47.2441 "/>
<polyline clip-path="url(#clip912)" style="stroke:#000000; stroke-linecap:round; stroke-linejoin:round; stroke-width:2; stroke-opacity:0.1; fill:none" points="1287.93,1486.45 1287.93,47.2441 "/>
<polyline clip-path="url(#clip912)" style="stroke:#000000; stroke-linecap:round; stroke-linejoin:round; stroke-width:2; stroke-opacity:0.1; fill:none" points="1790.21,1486.45 1790.21,47.2441 "/>
<polyline clip-path="url(#clip912)" style="stroke:#000000; stroke-linecap:round; stroke-linejoin:round; stroke-width:2; stroke-opacity:0.1; fill:none" points="2292.48,1486.45 2292.48,47.2441 "/>
<polyline clip-path="url(#clip910)" style="stroke:#000000; stroke-linecap:round; stroke-linejoin:round; stroke-width:4; stroke-opacity:1; fill:none" points="223.103,1486.45 2352.76,1486.45 "/>
<polyline clip-path="url(#clip910)" style="stroke:#000000; stroke-linecap:round; stroke-linejoin:round; stroke-width:4; stroke-opacity:1; fill:none" points="283.376,1486.45 283.376,1467.55 "/>
<polyline clip-path="url(#clip910)" style="stroke:#000000; stroke-linecap:round; stroke-linejoin:round; stroke-width:4; stroke-opacity:1; fill:none" points="785.652,1486.45 785.652,1467.55 "/>
<polyline clip-path="url(#clip910)" style="stroke:#000000; stroke-linecap:round; stroke-linejoin:round; stroke-width:4; stroke-opacity:1; fill:none" points="1287.93,1486.45 1287.93,1467.55 "/>
<polyline clip-path="url(#clip910)" style="stroke:#000000; stroke-linecap:round; stroke-linejoin:round; stroke-width:4; stroke-opacity:1; fill:none" points="1790.21,1486.45 1790.21,1467.55 "/>
<polyline clip-path="url(#clip910)" style="stroke:#000000; stroke-linecap:round; stroke-linejoin:round; stroke-width:4; stroke-opacity:1; fill:none" points="2292.48,1486.45 2292.48,1467.55 "/>
<path clip-path="url(#clip910)" d="M229.904 1532.02 L259.58 1532.02 L259.58 1535.95 L229.904 1535.95 L229.904 1532.02 Z" fill="#000000" fill-rule="nonzero" fill-opacity="1" /><path clip-path="url(#clip910)" d="M270.482 1544.91 L278.121 1544.91 L278.121 1518.55 L269.811 1520.21 L269.811 1515.95 L278.075 1514.29 L282.751 1514.29 L282.751 1544.91 L290.39 1544.91 L290.39 1548.85 L270.482 1548.85 L270.482 1544.91 Z" fill="#000000" fill-rule="nonzero" fill-opacity="1" /><path clip-path="url(#clip910)" d="M299.834 1542.97 L304.718 1542.97 L304.718 1548.85 L299.834 1548.85 L299.834 1542.97 Z" fill="#000000" fill-rule="nonzero" fill-opacity="1" /><path clip-path="url(#clip910)" d="M324.903 1517.37 Q321.292 1517.37 319.463 1520.93 Q317.658 1524.47 317.658 1531.6 Q317.658 1538.71 319.463 1542.27 Q321.292 1545.82 324.903 1545.82 Q328.538 1545.82 330.343 1542.27 Q332.172 1538.71 332.172 1531.6 Q332.172 1524.47 330.343 1520.93 Q328.538 1517.37 324.903 1517.37 M324.903 1513.66 Q330.713 1513.66 333.769 1518.27 Q336.848 1522.85 336.848 1531.6 Q336.848 1540.33 333.769 1544.94 Q330.713 1549.52 324.903 1549.52 Q319.093 1549.52 316.014 1544.94 Q312.959 1540.33 312.959 1531.6 Q312.959 1522.85 316.014 1518.27 Q319.093 1513.66 324.903 1513.66 Z" fill="#000000" fill-rule="nonzero" fill-opacity="1" /><path clip-path="url(#clip910)" d="M732.678 1532.02 L762.354 1532.02 L762.354 1535.95 L732.678 1535.95 L732.678 1532.02 Z" fill="#000000" fill-rule="nonzero" fill-opacity="1" /><path clip-path="url(#clip910)" d="M782.446 1517.37 Q778.835 1517.37 777.007 1520.93 Q775.201 1524.47 775.201 1531.6 Q775.201 1538.71 777.007 1542.27 Q778.835 1545.82 782.446 1545.82 Q786.081 1545.82 787.886 1542.27 Q789.715 1538.71 789.715 1531.6 Q789.715 1524.47 787.886 1520.93 Q786.081 1517.37 782.446 1517.37 M782.446 1513.66 Q788.257 1513.66 791.312 1518.27 Q794.391 1522.85 794.391 1531.6 Q794.391 1540.33 791.312 1544.94 Q788.257 1549.52 782.446 1549.52 Q776.636 1549.52 773.558 1544.94 Q770.502 1540.33 770.502 1531.6 Q770.502 1522.85 773.558 1518.27 Q776.636 1513.66 782.446 1513.66 Z" fill="#000000" fill-rule="nonzero" fill-opacity="1" /><path clip-path="url(#clip910)" d="M802.608 1542.97 L807.493 1542.97 L807.493 1548.85 L802.608 1548.85 L802.608 1542.97 Z" fill="#000000" fill-rule="nonzero" fill-opacity="1" /><path clip-path="url(#clip910)" d="M817.724 1514.29 L836.08 1514.29 L836.08 1518.22 L822.006 1518.22 L822.006 1526.7 Q823.025 1526.35 824.043 1526.19 Q825.062 1526 826.08 1526 Q831.867 1526 835.247 1529.17 Q838.627 1532.34 838.627 1537.76 Q838.627 1543.34 835.155 1546.44 Q831.682 1549.52 825.363 1549.52 Q823.187 1549.52 820.918 1549.15 Q818.673 1548.78 816.266 1548.04 L816.266 1543.34 Q818.349 1544.47 820.571 1545.03 Q822.793 1545.58 825.27 1545.58 Q829.275 1545.58 831.613 1543.48 Q833.951 1541.37 833.951 1537.76 Q833.951 1534.15 831.613 1532.04 Q829.275 1529.94 825.27 1529.94 Q823.395 1529.94 821.52 1530.35 Q819.668 1530.77 817.724 1531.65 L817.724 1514.29 Z" fill="#000000" fill-rule="nonzero" fill-opacity="1" /><path clip-path="url(#clip910)" d="M1265.31 1517.37 Q1261.7 1517.37 1259.87 1520.93 Q1258.07 1524.47 1258.07 1531.6 Q1258.07 1538.71 1259.87 1542.27 Q1261.7 1545.82 1265.31 1545.82 Q1268.95 1545.82 1270.75 1542.27 Q1272.58 1538.71 1272.58 1531.6 Q1272.58 1524.47 1270.75 1520.93 Q1268.95 1517.37 1265.31 1517.37 M1265.31 1513.66 Q1271.12 1513.66 1274.18 1518.27 Q1277.26 1522.85 1277.26 1531.6 Q1277.26 1540.33 1274.18 1544.94 Q1271.12 1549.52 1265.31 1549.52 Q1259.5 1549.52 1256.42 1544.94 Q1253.37 1540.33 1253.37 1531.6 Q1253.37 1522.85 1256.42 1518.27 Q1259.5 1513.66 1265.31 1513.66 Z" fill="#000000" fill-rule="nonzero" fill-opacity="1" /><path clip-path="url(#clip910)" d="M1285.48 1542.97 L1290.36 1542.97 L1290.36 1548.85 L1285.48 1548.85 L1285.48 1542.97 Z" fill="#000000" fill-rule="nonzero" fill-opacity="1" /><path clip-path="url(#clip910)" d="M1310.54 1517.37 Q1306.93 1517.37 1305.11 1520.93 Q1303.3 1524.47 1303.3 1531.6 Q1303.3 1538.71 1305.11 1542.27 Q1306.93 1545.82 1310.54 1545.82 Q1314.18 1545.82 1315.98 1542.27 Q1317.81 1538.71 1317.81 1531.6 Q1317.81 1524.47 1315.98 1520.93 Q1314.18 1517.37 1310.54 1517.37 M1310.54 1513.66 Q1316.35 1513.66 1319.41 1518.27 Q1322.49 1522.85 1322.49 1531.6 Q1322.49 1540.33 1319.41 1544.94 Q1316.35 1549.52 1310.54 1549.52 Q1304.73 1549.52 1301.66 1544.94 Q1298.6 1540.33 1298.6 1531.6 Q1298.6 1522.85 1301.66 1518.27 Q1304.73 1513.66 1310.54 1513.66 Z" fill="#000000" fill-rule="nonzero" fill-opacity="1" /><path clip-path="url(#clip910)" d="M1768.09 1517.37 Q1764.48 1517.37 1762.65 1520.93 Q1760.84 1524.47 1760.84 1531.6 Q1760.84 1538.71 1762.65 1542.27 Q1764.48 1545.82 1768.09 1545.82 Q1771.72 1545.82 1773.53 1542.27 Q1775.36 1538.71 1775.36 1531.6 Q1775.36 1524.47 1773.53 1520.93 Q1771.72 1517.37 1768.09 1517.37 M1768.09 1513.66 Q1773.9 1513.66 1776.95 1518.27 Q1780.03 1522.85 1780.03 1531.6 Q1780.03 1540.33 1776.95 1544.94 Q1773.9 1549.52 1768.09 1549.52 Q1762.28 1549.52 1759.2 1544.94 Q1756.14 1540.33 1756.14 1531.6 Q1756.14 1522.85 1759.2 1518.27 Q1762.28 1513.66 1768.09 1513.66 Z" fill="#000000" fill-rule="nonzero" fill-opacity="1" /><path clip-path="url(#clip910)" d="M1788.25 1542.97 L1793.13 1542.97 L1793.13 1548.85 L1788.25 1548.85 L1788.25 1542.97 Z" fill="#000000" fill-rule="nonzero" fill-opacity="1" /><path clip-path="url(#clip910)" d="M1803.37 1514.29 L1821.72 1514.29 L1821.72 1518.22 L1807.65 1518.22 L1807.65 1526.7 Q1808.67 1526.35 1809.69 1526.19 Q1810.7 1526 1811.72 1526 Q1817.51 1526 1820.89 1529.17 Q1824.27 1532.34 1824.27 1537.76 Q1824.27 1543.34 1820.8 1546.44 Q1817.32 1549.52 1811 1549.52 Q1808.83 1549.52 1806.56 1549.15 Q1804.31 1548.78 1801.91 1548.04 L1801.91 1543.34 Q1803.99 1544.47 1806.21 1545.03 Q1808.44 1545.58 1810.91 1545.58 Q1814.92 1545.58 1817.25 1543.48 Q1819.59 1541.37 1819.59 1537.76 Q1819.59 1534.15 1817.25 1532.04 Q1814.92 1529.94 1810.91 1529.94 Q1809.04 1529.94 1807.16 1530.35 Q1805.31 1530.77 1803.37 1531.65 L1803.37 1514.29 Z" fill="#000000" fill-rule="nonzero" fill-opacity="1" /><path clip-path="url(#clip910)" d="M2259.64 1544.91 L2267.27 1544.91 L2267.27 1518.55 L2258.96 1520.21 L2258.96 1515.95 L2267.23 1514.29 L2271.9 1514.29 L2271.9 1544.91 L2279.54 1544.91 L2279.54 1548.85 L2259.64 1548.85 L2259.64 1544.91 Z" fill="#000000" fill-rule="nonzero" fill-opacity="1" /><path clip-path="url(#clip910)" d="M2288.99 1542.97 L2293.87 1542.97 L2293.87 1548.85 L2288.99 1548.85 L2288.99 1542.97 Z" fill="#000000" fill-rule="nonzero" fill-opacity="1" /><path clip-path="url(#clip910)" d="M2314.06 1517.37 Q2310.45 1517.37 2308.62 1520.93 Q2306.81 1524.47 2306.81 1531.6 Q2306.81 1538.71 2308.62 1542.27 Q2310.45 1545.82 2314.06 1545.82 Q2317.69 1545.82 2319.5 1542.27 Q2321.33 1538.71 2321.33 1531.6 Q2321.33 1524.47 2319.5 1520.93 Q2317.69 1517.37 2314.06 1517.37 M2314.06 1513.66 Q2319.87 1513.66 2322.92 1518.27 Q2326 1522.85 2326 1531.6 Q2326 1540.33 2322.92 1544.94 Q2319.87 1549.52 2314.06 1549.52 Q2308.25 1549.52 2305.17 1544.94 Q2302.11 1540.33 2302.11 1531.6 Q2302.11 1522.85 2305.17 1518.27 Q2308.25 1513.66 2314.06 1513.66 Z" fill="#000000" fill-rule="nonzero" fill-opacity="1" /><polyline clip-path="url(#clip912)" style="stroke:#000000; stroke-linecap:round; stroke-linejoin:round; stroke-width:2; stroke-opacity:0.1; fill:none" points="223.103,1413.54 2352.76,1413.54 "/>
<polyline clip-path="url(#clip912)" style="stroke:#000000; stroke-linecap:round; stroke-linejoin:round; stroke-width:2; stroke-opacity:0.1; fill:none" points="223.103,1215.74 2352.76,1215.74 "/>
<polyline clip-path="url(#clip912)" style="stroke:#000000; stroke-linecap:round; stroke-linejoin:round; stroke-width:2; stroke-opacity:0.1; fill:none" points="223.103,1017.94 2352.76,1017.94 "/>
<polyline clip-path="url(#clip912)" style="stroke:#000000; stroke-linecap:round; stroke-linejoin:round; stroke-width:2; stroke-opacity:0.1; fill:none" points="223.103,820.145 2352.76,820.145 "/>
<polyline clip-path="url(#clip912)" style="stroke:#000000; stroke-linecap:round; stroke-linejoin:round; stroke-width:2; stroke-opacity:0.1; fill:none" points="223.103,622.347 2352.76,622.347 "/>
<polyline clip-path="url(#clip912)" style="stroke:#000000; stroke-linecap:round; stroke-linejoin:round; stroke-width:2; stroke-opacity:0.1; fill:none" points="223.103,424.549 2352.76,424.549 "/>
<polyline clip-path="url(#clip912)" style="stroke:#000000; stroke-linecap:round; stroke-linejoin:round; stroke-width:2; stroke-opacity:0.1; fill:none" points="223.103,226.751 2352.76,226.751 "/>
<polyline clip-path="url(#clip910)" style="stroke:#000000; stroke-linecap:round; stroke-linejoin:round; stroke-width:4; stroke-opacity:1; fill:none" points="223.103,1486.45 223.103,47.2441 "/>
<polyline clip-path="url(#clip910)" style="stroke:#000000; stroke-linecap:round; stroke-linejoin:round; stroke-width:4; stroke-opacity:1; fill:none" points="223.103,1413.54 242,1413.54 "/>
<polyline clip-path="url(#clip910)" style="stroke:#000000; stroke-linecap:round; stroke-linejoin:round; stroke-width:4; stroke-opacity:1; fill:none" points="223.103,1215.74 242,1215.74 "/>
<polyline clip-path="url(#clip910)" style="stroke:#000000; stroke-linecap:round; stroke-linejoin:round; stroke-width:4; stroke-opacity:1; fill:none" points="223.103,1017.94 242,1017.94 "/>
<polyline clip-path="url(#clip910)" style="stroke:#000000; stroke-linecap:round; stroke-linejoin:round; stroke-width:4; stroke-opacity:1; fill:none" points="223.103,820.145 242,820.145 "/>
<polyline clip-path="url(#clip910)" style="stroke:#000000; stroke-linecap:round; stroke-linejoin:round; stroke-width:4; stroke-opacity:1; fill:none" points="223.103,622.347 242,622.347 "/>
<polyline clip-path="url(#clip910)" style="stroke:#000000; stroke-linecap:round; stroke-linejoin:round; stroke-width:4; stroke-opacity:1; fill:none" points="223.103,424.549 242,424.549 "/>
<polyline clip-path="url(#clip910)" style="stroke:#000000; stroke-linecap:round; stroke-linejoin:round; stroke-width:4; stroke-opacity:1; fill:none" points="223.103,226.751 242,226.751 "/>
<path clip-path="url(#clip910)" d="M50.9921 1413.99 L80.6679 1413.99 L80.6679 1417.92 L50.9921 1417.92 L50.9921 1413.99 Z" fill="#000000" fill-rule="nonzero" fill-opacity="1" /><path clip-path="url(#clip910)" d="M100.76 1399.34 Q97.1493 1399.34 95.3206 1402.9 Q93.515 1406.44 93.515 1413.57 Q93.515 1420.68 95.3206 1424.24 Q97.1493 1427.79 100.76 1427.79 Q104.395 1427.79 106.2 1424.24 Q108.029 1420.68 108.029 1413.57 Q108.029 1406.44 106.2 1402.9 Q104.395 1399.34 100.76 1399.34 M100.76 1395.63 Q106.571 1395.63 109.626 1400.24 Q112.705 1404.82 112.705 1413.57 Q112.705 1422.3 109.626 1426.91 Q106.571 1431.49 100.76 1431.49 Q94.9502 1431.49 91.8715 1426.91 Q88.816 1422.3 88.816 1413.57 Q88.816 1404.82 91.8715 1400.24 Q94.9502 1395.63 100.76 1395.63 Z" fill="#000000" fill-rule="nonzero" fill-opacity="1" /><path clip-path="url(#clip910)" d="M120.922 1424.94 L125.807 1424.94 L125.807 1430.82 L120.922 1430.82 L120.922 1424.94 Z" fill="#000000" fill-rule="nonzero" fill-opacity="1" /><path clip-path="url(#clip910)" d="M140.019 1426.88 L156.339 1426.88 L156.339 1430.82 L134.394 1430.82 L134.394 1426.88 Q137.056 1424.13 141.64 1419.5 Q146.246 1414.85 147.427 1413.5 Q149.672 1410.98 150.552 1409.24 Q151.455 1407.48 151.455 1405.8 Q151.455 1403.04 149.51 1401.3 Q147.589 1399.57 144.487 1399.57 Q142.288 1399.57 139.834 1400.33 Q137.404 1401.1 134.626 1402.65 L134.626 1397.92 Q137.45 1396.79 139.904 1396.21 Q142.357 1395.63 144.394 1395.63 Q149.765 1395.63 152.959 1398.32 Q156.154 1401 156.154 1405.49 Q156.154 1407.62 155.343 1409.55 Q154.556 1411.44 152.45 1414.04 Q151.871 1414.71 148.769 1417.92 Q145.668 1421.12 140.019 1426.88 Z" fill="#000000" fill-rule="nonzero" fill-opacity="1" /><path clip-path="url(#clip910)" d="M166.2 1396.26 L184.556 1396.26 L184.556 1400.19 L170.482 1400.19 L170.482 1408.67 Q171.501 1408.32 172.519 1408.16 Q173.538 1407.97 174.556 1407.97 Q180.343 1407.97 183.723 1411.14 Q187.103 1414.31 187.103 1419.73 Q187.103 1425.31 183.63 1428.41 Q180.158 1431.49 173.839 1431.49 Q171.663 1431.49 169.394 1431.12 Q167.149 1430.75 164.742 1430.01 L164.742 1425.31 Q166.825 1426.44 169.047 1427 Q171.269 1427.55 173.746 1427.55 Q177.751 1427.55 180.089 1425.45 Q182.427 1423.34 182.427 1419.73 Q182.427 1416.12 180.089 1414.01 Q177.751 1411.91 173.746 1411.91 Q171.871 1411.91 169.996 1412.32 Q168.144 1412.74 166.2 1413.62 L166.2 1396.26 Z" fill="#000000" fill-rule="nonzero" fill-opacity="1" /><path clip-path="url(#clip910)" d="M99.765 1201.54 Q96.1539 1201.54 94.3252 1205.1 Q92.5197 1208.65 92.5197 1215.78 Q92.5197 1222.88 94.3252 1226.45 Q96.1539 1229.99 99.765 1229.99 Q103.399 1229.99 105.205 1226.45 Q107.033 1222.88 107.033 1215.78 Q107.033 1208.65 105.205 1205.1 Q103.399 1201.54 99.765 1201.54 M99.765 1197.84 Q105.575 1197.84 108.631 1202.44 Q111.709 1207.03 111.709 1215.78 Q111.709 1224.5 108.631 1229.11 Q105.575 1233.69 99.765 1233.69 Q93.9549 1233.69 90.8762 1229.11 Q87.8206 1224.5 87.8206 1215.78 Q87.8206 1207.03 90.8762 1202.44 Q93.9549 1197.84 99.765 1197.84 Z" fill="#000000" fill-rule="nonzero" fill-opacity="1" /><path clip-path="url(#clip910)" d="M119.927 1227.14 L124.811 1227.14 L124.811 1233.02 L119.927 1233.02 L119.927 1227.14 Z" fill="#000000" fill-rule="nonzero" fill-opacity="1" /><path clip-path="url(#clip910)" d="M144.996 1201.54 Q141.385 1201.54 139.556 1205.1 Q137.751 1208.65 137.751 1215.78 Q137.751 1222.88 139.556 1226.45 Q141.385 1229.99 144.996 1229.99 Q148.63 1229.99 150.436 1226.45 Q152.265 1222.88 152.265 1215.78 Q152.265 1208.65 150.436 1205.1 Q148.63 1201.54 144.996 1201.54 M144.996 1197.84 Q150.806 1197.84 153.862 1202.44 Q156.941 1207.03 156.941 1215.78 Q156.941 1224.5 153.862 1229.11 Q150.806 1233.69 144.996 1233.69 Q139.186 1233.69 136.107 1229.11 Q133.052 1224.5 133.052 1215.78 Q133.052 1207.03 136.107 1202.44 Q139.186 1197.84 144.996 1197.84 Z" fill="#000000" fill-rule="nonzero" fill-opacity="1" /><path clip-path="url(#clip910)" d="M175.158 1201.54 Q171.547 1201.54 169.718 1205.1 Q167.913 1208.65 167.913 1215.78 Q167.913 1222.88 169.718 1226.45 Q171.547 1229.99 175.158 1229.99 Q178.792 1229.99 180.598 1226.45 Q182.427 1222.88 182.427 1215.78 Q182.427 1208.65 180.598 1205.1 Q178.792 1201.54 175.158 1201.54 M175.158 1197.84 Q180.968 1197.84 184.024 1202.44 Q187.103 1207.03 187.103 1215.78 Q187.103 1224.5 184.024 1229.11 Q180.968 1233.69 175.158 1233.69 Q169.348 1233.69 166.269 1229.11 Q163.214 1224.5 163.214 1215.78 Q163.214 1207.03 166.269 1202.44 Q169.348 1197.84 175.158 1197.84 Z" fill="#000000" fill-rule="nonzero" fill-opacity="1" /><path clip-path="url(#clip910)" d="M100.76 1003.74 Q97.1493 1003.74 95.3206 1007.31 Q93.515 1010.85 93.515 1017.98 Q93.515 1025.08 95.3206 1028.65 Q97.1493 1032.19 100.76 1032.19 Q104.395 1032.19 106.2 1028.65 Q108.029 1025.08 108.029 1017.98 Q108.029 1010.85 106.2 1007.31 Q104.395 1003.74 100.76 1003.74 M100.76 1000.04 Q106.571 1000.04 109.626 1004.64 Q112.705 1009.23 112.705 1017.98 Q112.705 1026.7 109.626 1031.31 Q106.571 1035.89 100.76 1035.89 Q94.9502 1035.89 91.8715 1031.31 Q88.816 1026.7 88.816 1017.98 Q88.816 1009.23 91.8715 1004.64 Q94.9502 1000.04 100.76 1000.04 Z" fill="#000000" fill-rule="nonzero" fill-opacity="1" /><path clip-path="url(#clip910)" d="M120.922 1029.34 L125.807 1029.34 L125.807 1035.22 L120.922 1035.22 L120.922 1029.34 Z" fill="#000000" fill-rule="nonzero" fill-opacity="1" /><path clip-path="url(#clip910)" d="M140.019 1031.29 L156.339 1031.29 L156.339 1035.22 L134.394 1035.22 L134.394 1031.29 Q137.056 1028.53 141.64 1023.9 Q146.246 1019.25 147.427 1017.91 Q149.672 1015.38 150.552 1013.65 Q151.455 1011.89 151.455 1010.2 Q151.455 1007.44 149.51 1005.71 Q147.589 1003.97 144.487 1003.97 Q142.288 1003.97 139.834 1004.74 Q137.404 1005.5 134.626 1007.05 L134.626 1002.33 Q137.45 1001.19 139.904 1000.62 Q142.357 1000.04 144.394 1000.04 Q149.765 1000.04 152.959 1002.72 Q156.154 1005.41 156.154 1009.9 Q156.154 1012.03 155.343 1013.95 Q154.556 1015.85 152.45 1018.44 Q151.871 1019.11 148.769 1022.33 Q145.668 1025.52 140.019 1031.29 Z" fill="#000000" fill-rule="nonzero" fill-opacity="1" /><path clip-path="url(#clip910)" d="M166.2 1000.66 L184.556 1000.66 L184.556 1004.6 L170.482 1004.6 L170.482 1013.07 Q171.501 1012.72 172.519 1012.56 Q173.538 1012.38 174.556 1012.38 Q180.343 1012.38 183.723 1015.55 Q187.103 1018.72 187.103 1024.13 Q187.103 1029.71 183.63 1032.82 Q180.158 1035.89 173.839 1035.89 Q171.663 1035.89 169.394 1035.52 Q167.149 1035.15 164.742 1034.41 L164.742 1029.71 Q166.825 1030.85 169.047 1031.4 Q171.269 1031.96 173.746 1031.96 Q177.751 1031.96 180.089 1029.85 Q182.427 1027.75 182.427 1024.13 Q182.427 1020.52 180.089 1018.42 Q177.751 1016.31 173.746 1016.31 Q171.871 1016.31 169.996 1016.73 Q168.144 1017.14 166.2 1018.02 L166.2 1000.66 Z" fill="#000000" fill-rule="nonzero" fill-opacity="1" /><path clip-path="url(#clip910)" d="M99.765 805.943 Q96.1539 805.943 94.3252 809.508 Q92.5197 813.05 92.5197 820.179 Q92.5197 827.286 94.3252 830.851 Q96.1539 834.392 99.765 834.392 Q103.399 834.392 105.205 830.851 Q107.033 827.286 107.033 820.179 Q107.033 813.05 105.205 809.508 Q103.399 805.943 99.765 805.943 M99.765 802.24 Q105.575 802.24 108.631 806.846 Q111.709 811.429 111.709 820.179 Q111.709 828.906 108.631 833.513 Q105.575 838.096 99.765 838.096 Q93.9549 838.096 90.8762 833.513 Q87.8206 828.906 87.8206 820.179 Q87.8206 811.429 90.8762 806.846 Q93.9549 802.24 99.765 802.24 Z" fill="#000000" fill-rule="nonzero" fill-opacity="1" /><path clip-path="url(#clip910)" d="M119.927 831.545 L124.811 831.545 L124.811 837.425 L119.927 837.425 L119.927 831.545 Z" fill="#000000" fill-rule="nonzero" fill-opacity="1" /><path clip-path="url(#clip910)" d="M135.043 802.865 L153.399 802.865 L153.399 806.8 L139.325 806.8 L139.325 815.272 Q140.343 814.925 141.362 814.763 Q142.381 814.578 143.399 814.578 Q149.186 814.578 152.566 817.749 Q155.945 820.92 155.945 826.337 Q155.945 831.915 152.473 835.017 Q149.001 838.096 142.681 838.096 Q140.506 838.096 138.237 837.726 Q135.992 837.355 133.584 836.614 L133.584 831.915 Q135.668 833.05 137.89 833.605 Q140.112 834.161 142.589 834.161 Q146.593 834.161 148.931 832.054 Q151.269 829.948 151.269 826.337 Q151.269 822.726 148.931 820.619 Q146.593 818.513 142.589 818.513 Q140.714 818.513 138.839 818.929 Q136.987 819.346 135.043 820.226 L135.043 802.865 Z" fill="#000000" fill-rule="nonzero" fill-opacity="1" /><path clip-path="url(#clip910)" d="M175.158 805.943 Q171.547 805.943 169.718 809.508 Q167.913 813.05 167.913 820.179 Q167.913 827.286 169.718 830.851 Q171.547 834.392 175.158 834.392 Q178.792 834.392 180.598 830.851 Q182.427 827.286 182.427 820.179 Q182.427 813.05 180.598 809.508 Q178.792 805.943 175.158 805.943 M175.158 802.24 Q180.968 802.24 184.024 806.846 Q187.103 811.429 187.103 820.179 Q187.103 828.906 184.024 833.513 Q180.968 838.096 175.158 838.096 Q169.348 838.096 166.269 833.513 Q163.214 828.906 163.214 820.179 Q163.214 811.429 166.269 806.846 Q169.348 802.24 175.158 802.24 Z" fill="#000000" fill-rule="nonzero" fill-opacity="1" /><path clip-path="url(#clip910)" d="M100.76 608.146 Q97.1493 608.146 95.3206 611.71 Q93.515 615.252 93.515 622.382 Q93.515 629.488 95.3206 633.053 Q97.1493 636.594 100.76 636.594 Q104.395 636.594 106.2 633.053 Q108.029 629.488 108.029 622.382 Q108.029 615.252 106.2 611.71 Q104.395 608.146 100.76 608.146 M100.76 604.442 Q106.571 604.442 109.626 609.048 Q112.705 613.632 112.705 622.382 Q112.705 631.108 109.626 635.715 Q106.571 640.298 100.76 640.298 Q94.9502 640.298 91.8715 635.715 Q88.816 631.108 88.816 622.382 Q88.816 613.632 91.8715 609.048 Q94.9502 604.442 100.76 604.442 Z" fill="#000000" fill-rule="nonzero" fill-opacity="1" /><path clip-path="url(#clip910)" d="M120.922 633.747 L125.807 633.747 L125.807 639.627 L120.922 639.627 L120.922 633.747 Z" fill="#000000" fill-rule="nonzero" fill-opacity="1" /><path clip-path="url(#clip910)" d="M134.811 605.067 L157.033 605.067 L157.033 607.058 L144.487 639.627 L139.603 639.627 L151.408 609.002 L134.811 609.002 L134.811 605.067 Z" fill="#000000" fill-rule="nonzero" fill-opacity="1" /><path clip-path="url(#clip910)" d="M166.2 605.067 L184.556 605.067 L184.556 609.002 L170.482 609.002 L170.482 617.474 Q171.501 617.127 172.519 616.965 Q173.538 616.78 174.556 616.78 Q180.343 616.78 183.723 619.951 Q187.103 623.122 187.103 628.539 Q187.103 634.118 183.63 637.219 Q180.158 640.298 173.839 640.298 Q171.663 640.298 169.394 639.928 Q167.149 639.557 164.742 638.817 L164.742 634.118 Q166.825 635.252 169.047 635.807 Q171.269 636.363 173.746 636.363 Q177.751 636.363 180.089 634.256 Q182.427 632.15 182.427 628.539 Q182.427 624.928 180.089 622.821 Q177.751 620.715 173.746 620.715 Q171.871 620.715 169.996 621.132 Q168.144 621.548 166.2 622.428 L166.2 605.067 Z" fill="#000000" fill-rule="nonzero" fill-opacity="1" /><path clip-path="url(#clip910)" d="M90.5752 437.894 L98.2141 437.894 L98.2141 411.528 L89.904 413.195 L89.904 408.936 L98.1678 407.269 L102.844 407.269 L102.844 437.894 L110.483 437.894 L110.483 441.829 L90.5752 441.829 L90.5752 437.894 Z" fill="#000000" fill-rule="nonzero" fill-opacity="1" /><path clip-path="url(#clip910)" d="M119.927 435.949 L124.811 435.949 L124.811 441.829 L119.927 441.829 L119.927 435.949 Z" fill="#000000" fill-rule="nonzero" fill-opacity="1" /><path clip-path="url(#clip910)" d="M144.996 410.348 Q141.385 410.348 139.556 413.912 Q137.751 417.454 137.751 424.584 Q137.751 431.69 139.556 435.255 Q141.385 438.797 144.996 438.797 Q148.63 438.797 150.436 435.255 Q152.265 431.69 152.265 424.584 Q152.265 417.454 150.436 413.912 Q148.63 410.348 144.996 410.348 M144.996 406.644 Q150.806 406.644 153.862 411.25 Q156.941 415.834 156.941 424.584 Q156.941 433.311 153.862 437.917 Q150.806 442.5 144.996 442.5 Q139.186 442.5 136.107 437.917 Q133.052 433.311 133.052 424.584 Q133.052 415.834 136.107 411.25 Q139.186 406.644 144.996 406.644 Z" fill="#000000" fill-rule="nonzero" fill-opacity="1" /><path clip-path="url(#clip910)" d="M175.158 410.348 Q171.547 410.348 169.718 413.912 Q167.913 417.454 167.913 424.584 Q167.913 431.69 169.718 435.255 Q171.547 438.797 175.158 438.797 Q178.792 438.797 180.598 435.255 Q182.427 431.69 182.427 424.584 Q182.427 417.454 180.598 413.912 Q178.792 410.348 175.158 410.348 M175.158 406.644 Q180.968 406.644 184.024 411.25 Q187.103 415.834 187.103 424.584 Q187.103 433.311 184.024 437.917 Q180.968 442.5 175.158 442.5 Q169.348 442.5 166.269 437.917 Q163.214 433.311 163.214 424.584 Q163.214 415.834 166.269 411.25 Q169.348 406.644 175.158 406.644 Z" fill="#000000" fill-rule="nonzero" fill-opacity="1" /><path clip-path="url(#clip910)" d="M91.5706 240.096 L99.2095 240.096 L99.2095 213.73 L90.8993 215.397 L90.8993 211.138 L99.1632 209.471 L103.839 209.471 L103.839 240.096 L111.478 240.096 L111.478 244.031 L91.5706 244.031 L91.5706 240.096 Z" fill="#000000" fill-rule="nonzero" fill-opacity="1" /><path clip-path="url(#clip910)" d="M120.922 238.152 L125.807 238.152 L125.807 244.031 L120.922 244.031 L120.922 238.152 Z" fill="#000000" fill-rule="nonzero" fill-opacity="1" /><path clip-path="url(#clip910)" d="M140.019 240.096 L156.339 240.096 L156.339 244.031 L134.394 244.031 L134.394 240.096 Q137.056 237.341 141.64 232.712 Q146.246 228.059 147.427 226.716 Q149.672 224.193 150.552 222.457 Q151.455 220.698 151.455 219.008 Q151.455 216.254 149.51 214.517 Q147.589 212.781 144.487 212.781 Q142.288 212.781 139.834 213.545 Q137.404 214.309 134.626 215.86 L134.626 211.138 Q137.45 210.004 139.904 209.425 Q142.357 208.846 144.394 208.846 Q149.765 208.846 152.959 211.531 Q156.154 214.217 156.154 218.707 Q156.154 220.837 155.343 222.758 Q154.556 224.656 152.45 227.249 Q151.871 227.92 148.769 231.138 Q145.668 234.332 140.019 240.096 Z" fill="#000000" fill-rule="nonzero" fill-opacity="1" /><path clip-path="url(#clip910)" d="M166.2 209.471 L184.556 209.471 L184.556 213.406 L170.482 213.406 L170.482 221.879 Q171.501 221.531 172.519 221.369 Q173.538 221.184 174.556 221.184 Q180.343 221.184 183.723 224.355 Q187.103 227.527 187.103 232.943 Q187.103 238.522 183.63 241.624 Q180.158 244.702 173.839 244.702 Q171.663 244.702 169.394 244.332 Q167.149 243.962 164.742 243.221 L164.742 238.522 Q166.825 239.656 169.047 240.212 Q171.269 240.767 173.746 240.767 Q177.751 240.767 180.089 238.661 Q182.427 236.554 182.427 232.943 Q182.427 229.332 180.089 227.226 Q177.751 225.119 173.746 225.119 Q171.871 225.119 169.996 225.536 Q168.144 225.953 166.2 226.832 L166.2 209.471 Z" fill="#000000" fill-rule="nonzero" fill-opacity="1" /><polyline clip-path="url(#clip912)" style="stroke:#009af9; stroke-linecap:round; stroke-linejoin:round; stroke-width:16; stroke-opacity:1; fill:none" stroke-dasharray="8, 16" points="283.376,1096.91 293.472,1099.62 303.568,1094.27 313.664,1069.04 323.76,1056.72 333.856,1098.9 343.952,1168.43 354.048,1175.45 364.144,1109.29 374.24,1045.42 384.336,1041.69 394.432,1102.5 404.528,1187.06 414.624,1259.19 424.72,1304.37 434.816,1314.34 444.912,1308.77 455.008,1337.97 465.104,1402.36 475.2,1430.27 485.296,1390.3 495.392,1332.67 505.488,1317.02 515.584,1341.54 525.68,1355.58 535.776,1331.91 545.872,1291.3 555.968,1267.19 566.064,1263.43 576.16,1250.36 586.256,1212.37 596.352,1193.58 606.448,1180.59 616.544,1093.92 626.64,986.373 636.736,961.488 646.832,1023.83 656.928,1102.34 667.024,1145.8 677.12,1141.68 687.216,1100.92 697.312,1045.12 707.408,1019.13 717.504,1068.04 727.6,1129.24 737.696,1138.44 747.792,1134.39 757.888,1178.31 767.984,1236.55 778.08,1253.34 788.176,1242.6 798.272,1261.39 808.369,1316.39 818.465,1350.18 828.561,1355.03 838.657,1366.97 848.753,1378.73 858.849,1369.51 868.945,1335.19 879.041,1294.13 889.137,1285.15 899.233,1321.32 909.329,1371.99 919.425,1397.57 929.521,1354.31 939.617,1206.16 949.713,1101.1 959.809,1173.17 969.905,1188.51 980.001,1108.81 990.097,1029.89 1000.19,981.785 1010.29,988.054 1020.38,1049.87 1030.48,1122 1040.58,1156.49 1050.67,1151 1060.77,1103.67 1070.86,1030.19 1080.96,1012.16 1091.06,1079.42 1101.15,1171 1111.25,1248.14 1121.34,1308.64 1131.44,1338.02 1141.54,1316.33 1151.63,1255.21 1161.73,1210.87 1171.83,1236.21 1181.92,1330.02 1192.02,1427.18 1202.11,1445.72 1212.21,1398.56 1222.31,1359.35 1232.4,1368.67 1242.5,1413.57 1252.59,1440.8 1262.69,1370.32 1272.79,1093.82 1282.88,662.983 1292.98,534.06 1303.07,473.121 1313.17,390.842 1323.27,376.829 1333.36,407.966 1343.46,438.735 1353.55,427.735 1363.65,367.72 1373.75,309.415 1383.84,335.233 1393.94,453.999 1404.03,567.27 1414.13,584.604 1424.23,501.3 1434.32,390.862 1444.42,331.939 1454.51,348.583 1464.61,410.003 1474.71,477.601 1484.8,532.935 1494.9,540.786 1504.99,464.737 1515.09,362.179 1525.19,311.061 1535.28,305.903 1545.38,347.418 1555.47,448.388 1565.57,555.91 1575.67,600.437 1585.76,566.268 1595.86,468.875 1605.95,327.813 1616.05,267.309 1626.15,346.327 1636.24,343.845 1646.34,298.125 1656.43,311.219 1666.53,373.589 1676.63,462.85 1686.72,536.293 1696.82,554.066 1706.91,523.349 1717.01,474.053 1727.11,409.23 1737.2,334.639 1747.3,285.955 1757.39,302.214 1767.49,394.039 1777.59,498.361 1787.68,538.626 1797.78,521.502 1807.87,509.119 1817.97,527.153 1828.07,521.768 1838.16,459.038 1848.26,402.76 1858.35,383.908 1868.45,357.448 1878.55,314.901 1888.64,301.524 1898.74,339.627 1908.83,423.892 1918.93,522.307 1929.03,607.206 1939.12,650.455 1949.22,604.591 1959.31,468.096 1969.41,316.263 1979.51,219.265 1989.6,187.021 1999.7,242.349 2009.79,379.91 2019.89,515.705 2029.99,589.364 2040.08,606.151 2050.18,600.549 2060.27,587.643 2070.37,541.312 2080.47,427.788 2090.56,279.05 2100.66,190.971 2110.75,216.872 2120.85,300.816 2130.95,365.681 2141.04,412.092 2151.14,475.054 2161.23,558.317 2171.33,638.829 2181.43,680.074 2191.52,626.014 2201.62,451.67 2211.71,228.534 2221.81,87.9763 2231.91,127.179 2242,288.932 2252.1,421.046 2262.19,481.042 2272.29,526.313 2282.39,584.42 2292.48,621.392 "/>
<polyline clip-path="url(#clip912)" style="stroke:#e26f46; stroke-linecap:round; stroke-linejoin:round; stroke-width:4; stroke-opacity:1; fill:none" points="283.376,1096.91 293.472,1080.05 303.568,1067.61 313.664,1060.02 323.76,1057.5 333.856,1060.15 343.952,1067.88 354.048,1080.43 364.144,1097.4 374.24,1118.24 384.336,1142.25 394.432,1168.66 404.528,1196.61 414.624,1225.19 424.72,1253.45 434.816,1280.48 444.912,1305.41 455.008,1327.4 465.104,1345.75 475.2,1359.86 485.296,1369.26 495.392,1373.66 505.488,1372.9 515.584,1367.01 525.68,1356.18 535.776,1340.77 545.872,1321.28 555.968,1298.34 566.064,1272.71 576.16,1245.22 586.256,1216.77 596.352,1188.28 606.448,1160.69 616.544,1134.9 626.64,1111.74 636.736,1091.98 646.832,1076.26 656.928,1065.09 667.024,1058.84 677.12,1057.71 687.216,1061.73 697.312,1070.79 707.408,1084.57 717.504,1102.63 727.6,1124.39 737.696,1149.13 747.792,1176.04 757.888,1204.24 767.984,1232.83 778.08,1260.85 788.176,1287.4 798.272,1311.62 808.369,1332.7 818.465,1349.97 828.561,1362.86 838.657,1370.94 848.753,1373.96 858.849,1371.82 868.945,1364.58 879.041,1352.48 889.137,1335.92 899.233,1315.44 909.329,1291.71 919.425,1265.49 929.521,1237.65 939.617,1209.1 949.713,1180.76 959.809,1153.57 969.905,1128.4 980.001,1106.09 990.097,1087.35 1000.19,1072.8 1010.29,1062.92 1020.38,1058.03 1030.48,1058.28 1040.58,1063.67 1050.67,1074.03 1060.77,1089.01 1070.86,1108.13 1080.96,1130.76 1091.06,1156.16 1101.15,1183.51 1111.25,1211.91 1121.34,1240.43 1131.44,1268.15 1141.54,1294.16 1151.63,1317.61 1161.73,1337.73 1171.83,1353.87 1181.92,1365.51 1192.02,1372.25 1202.11,1373.89 1212.21,1370.37 1222.31,1361.8 1232.4,1348.46 1242.5,1330.79 1252.59,1309.37 1262.69,1284.89 1272.79,1258.15 1282.88,1230.03 1292.98,423.4 1303.07,422.092 1313.17,423.282 1323.27,427.244 1333.36,432.764 1343.46,437.509 1353.55,438.914 1363.65,435.263 1373.75,426.56 1383.84,414.827 1393.94,403.662 1404.03,397.14 1414.13,398.391 1424.23,408.342 1434.32,425.08 1444.42,444.13 1454.51,459.642 1464.61,466.185 1474.71,460.584 1484.8,443.205 1494.9,418.207 1504.99,392.589 1515.09,374.228 1525.19,369.471 1535.28,381.002 1545.38,406.69 1555.47,439.867 1565.57,471.032 1575.67,490.577 1585.76,491.735 1595.86,472.852 1605.95,438.244 1616.05,397.279 1626.15,361.844 1636.24,342.901 1646.34,347.113 1656.43,374.576 1666.53,418.418 1676.63,466.48 1686.72,504.684 1696.82,521.156 1706.91,509.892 1717.01,472.854 1727.11,419.767 1737.2,365.594 1747.3,326.313 1757.39,314.216 1767.49,334.081 1777.59,381.427 1787.68,443.453 1797.78,502.478 1807.87,540.987 1817.97,546.82 1828.07,516.982 1838.16,458.881 1848.26,388.537 1858.35,326.171 1868.45,290.393 1878.55,292.655 1888.64,333.626 1898.74,402.618 1908.83,480.348 1918.93,544.321 1929.03,575.342 1939.12,563.262 1949.22,510.254 1959.31,430.554 1969.41,346.667 1979.51,283.004 1989.6,258.788 1999.7,282.256 2009.79,347.929 2019.89,437.823 2029.99,526.359 2040.08,587.642 2050.18,603.036 2060.27,566.806 2070.37,488.151 2080.47,388.904 2090.56,297.483 2100.66,240.748 2110.75,236.12 2120.85,286.249 2130.95,377.876 2141.04,485.312 2151.14,577.635 2161.23,627.592 2171.33,619.638 2181.43,554.743 2191.52,450.494 2201.62,336.343 2211.71,245.291 2221.81,204.349 2231.91,226.529 2242,306.75 2252.1,422.924 2262.19,542.029 2272.29,629.493 2282.39,659.225 2292.48,621.392 "/>
<path clip-path="url(#clip910)" d="M294.091 250.738 L733.884 250.738 L733.884 95.2176 L294.091 95.2176  Z" fill="#ffffff" fill-rule="evenodd" fill-opacity="1"/>
<polyline clip-path="url(#clip910)" style="stroke:#000000; stroke-linecap:round; stroke-linejoin:round; stroke-width:4; stroke-opacity:1; fill:none" points="294.091,250.738 733.884,250.738 733.884,95.2176 294.091,95.2176 294.091,250.738 "/>
<polyline clip-path="url(#clip910)" style="stroke:#009af9; stroke-linecap:round; stroke-linejoin:round; stroke-width:16; stroke-opacity:1; fill:none" stroke-dasharray="8, 16" points="317.754,147.058 459.731,147.058 "/>
<path clip-path="url(#clip910)" d="M488.069 133.62 L488.069 146.606 L493.949 146.606 Q497.213 146.606 498.995 144.916 Q500.778 143.227 500.778 140.102 Q500.778 137 498.995 135.31 Q497.213 133.62 493.949 133.62 L488.069 133.62 M483.393 129.778 L493.949 129.778 Q499.759 129.778 502.722 132.416 Q505.708 135.032 505.708 140.102 Q505.708 145.217 502.722 147.833 Q499.759 150.449 493.949 150.449 L488.069 150.449 L488.069 164.338 L483.393 164.338 L483.393 129.778 Z" fill="#000000" fill-rule="nonzero" fill-opacity="1" /><path clip-path="url(#clip910)" d="M525.986 142.393 Q525.268 141.977 524.412 141.791 Q523.578 141.583 522.56 141.583 Q518.949 141.583 517.004 143.944 Q515.083 146.282 515.083 150.68 L515.083 164.338 L510.801 164.338 L510.801 138.412 L515.083 138.412 L515.083 142.44 Q516.426 140.078 518.578 138.944 Q520.731 137.787 523.81 137.787 Q524.25 137.787 524.782 137.856 Q525.315 137.903 525.963 138.018 L525.986 142.393 Z" fill="#000000" fill-rule="nonzero" fill-opacity="1" /><path clip-path="url(#clip910)" d="M551.588 150.31 L551.588 152.393 L532.004 152.393 Q532.282 156.791 534.643 159.106 Q537.027 161.398 541.264 161.398 Q543.717 161.398 546.009 160.796 Q548.324 160.194 550.592 158.99 L550.592 163.018 Q548.301 163.99 545.893 164.5 Q543.486 165.009 541.009 165.009 Q534.805 165.009 531.171 161.398 Q527.56 157.787 527.56 151.629 Q527.56 145.264 530.986 141.537 Q534.435 137.787 540.268 137.787 Q545.5 137.787 548.532 141.166 Q551.588 144.523 551.588 150.31 M547.328 149.06 Q547.282 145.565 545.361 143.481 Q543.463 141.398 540.314 141.398 Q536.75 141.398 534.597 143.412 Q532.467 145.426 532.143 149.083 L547.328 149.06 Z" fill="#000000" fill-rule="nonzero" fill-opacity="1" /><path clip-path="url(#clip910)" d="M575.638 142.347 L575.638 128.319 L579.898 128.319 L579.898 164.338 L575.638 164.338 L575.638 160.449 Q574.296 162.763 572.236 163.898 Q570.199 165.009 567.328 165.009 Q562.629 165.009 559.666 161.259 Q556.726 157.509 556.726 151.398 Q556.726 145.287 559.666 141.537 Q562.629 137.787 567.328 137.787 Q570.199 137.787 572.236 138.921 Q574.296 140.032 575.638 142.347 M561.125 151.398 Q561.125 156.097 563.046 158.782 Q564.99 161.444 568.37 161.444 Q571.749 161.444 573.694 158.782 Q575.638 156.097 575.638 151.398 Q575.638 146.699 573.694 144.037 Q571.749 141.352 568.37 141.352 Q564.99 141.352 563.046 144.037 Q561.125 146.699 561.125 151.398 Z" fill="#000000" fill-rule="nonzero" fill-opacity="1" /><path clip-path="url(#clip910)" d="M588.671 138.412 L592.93 138.412 L592.93 164.338 L588.671 164.338 L588.671 138.412 M588.671 128.319 L592.93 128.319 L592.93 133.713 L588.671 133.713 L588.671 128.319 Z" fill="#000000" fill-rule="nonzero" fill-opacity="1" /><path clip-path="url(#clip910)" d="M620.499 139.407 L620.499 143.389 Q618.694 142.393 616.865 141.907 Q615.059 141.398 613.208 141.398 Q609.064 141.398 606.772 144.037 Q604.481 146.652 604.481 151.398 Q604.481 156.143 606.772 158.782 Q609.064 161.398 613.208 161.398 Q615.059 161.398 616.865 160.912 Q618.694 160.402 620.499 159.407 L620.499 163.342 Q618.717 164.176 616.796 164.592 Q614.897 165.009 612.745 165.009 Q606.888 165.009 603.439 161.328 Q599.99 157.648 599.99 151.398 Q599.99 145.055 603.462 141.421 Q606.958 137.787 613.022 137.787 Q614.99 137.787 616.865 138.203 Q618.74 138.597 620.499 139.407 Z" fill="#000000" fill-rule="nonzero" fill-opacity="1" /><path clip-path="url(#clip910)" d="M632.12 131.051 L632.12 138.412 L640.893 138.412 L640.893 141.722 L632.12 141.722 L632.12 155.796 Q632.12 158.967 632.976 159.87 Q633.856 160.773 636.518 160.773 L640.893 160.773 L640.893 164.338 L636.518 164.338 Q631.587 164.338 629.712 162.509 Q627.837 160.657 627.837 155.796 L627.837 141.722 L624.712 141.722 L624.712 138.412 L627.837 138.412 L627.837 131.051 L632.12 131.051 Z" fill="#000000" fill-rule="nonzero" fill-opacity="1" /><path clip-path="url(#clip910)" d="M646.494 138.412 L650.754 138.412 L650.754 164.338 L646.494 164.338 L646.494 138.412 M646.494 128.319 L650.754 128.319 L650.754 133.713 L646.494 133.713 L646.494 128.319 Z" fill="#000000" fill-rule="nonzero" fill-opacity="1" /><path clip-path="url(#clip910)" d="M669.712 141.398 Q666.286 141.398 664.295 144.083 Q662.305 146.745 662.305 151.398 Q662.305 156.051 664.272 158.736 Q666.263 161.398 669.712 161.398 Q673.115 161.398 675.105 158.713 Q677.096 156.027 677.096 151.398 Q677.096 146.791 675.105 144.106 Q673.115 141.398 669.712 141.398 M669.712 137.787 Q675.267 137.787 678.439 141.398 Q681.61 145.009 681.61 151.398 Q681.61 157.764 678.439 161.398 Q675.267 165.009 669.712 165.009 Q664.133 165.009 660.962 161.398 Q657.814 157.764 657.814 151.398 Q657.814 145.009 660.962 141.398 Q664.133 137.787 669.712 137.787 Z" fill="#000000" fill-rule="nonzero" fill-opacity="1" /><path clip-path="url(#clip910)" d="M710.221 148.689 L710.221 164.338 L705.962 164.338 L705.962 148.828 Q705.962 145.148 704.527 143.319 Q703.091 141.49 700.221 141.49 Q696.772 141.49 694.781 143.69 Q692.791 145.889 692.791 149.685 L692.791 164.338 L688.508 164.338 L688.508 138.412 L692.791 138.412 L692.791 142.44 Q694.318 140.102 696.378 138.944 Q698.462 137.787 701.17 137.787 Q705.638 137.787 707.929 140.565 Q710.221 143.319 710.221 148.689 Z" fill="#000000" fill-rule="nonzero" fill-opacity="1" /><polyline clip-path="url(#clip910)" style="stroke:#e26f46; stroke-linecap:round; stroke-linejoin:round; stroke-width:4; stroke-opacity:1; fill:none" points="317.754,198.898 459.731,198.898 "/>
<path clip-path="url(#clip910)" d="M483.393 181.618 L505.245 181.618 L505.245 185.553 L488.069 185.553 L488.069 195.784 L504.528 195.784 L504.528 199.719 L488.069 199.719 L488.069 212.242 L505.662 212.242 L505.662 216.178 L483.393 216.178 L483.393 181.618 Z" fill="#000000" fill-rule="nonzero" fill-opacity="1" /><path clip-path="url(#clip910)" d="M534.713 190.252 L525.338 202.867 L535.199 216.178 L530.176 216.178 L522.629 205.992 L515.083 216.178 L510.06 216.178 L520.129 202.613 L510.916 190.252 L515.94 190.252 L522.815 199.488 L529.69 190.252 L534.713 190.252 Z" fill="#000000" fill-rule="nonzero" fill-opacity="1" /><path clip-path="url(#clip910)" d="M553 203.145 Q547.838 203.145 545.847 204.326 Q543.856 205.506 543.856 208.354 Q543.856 210.622 545.338 211.965 Q546.842 213.284 549.412 213.284 Q552.953 213.284 555.083 210.784 Q557.236 208.261 557.236 204.094 L557.236 203.145 L553 203.145 M561.495 201.386 L561.495 216.178 L557.236 216.178 L557.236 212.242 Q555.777 214.603 553.601 215.738 Q551.426 216.849 548.277 216.849 Q544.296 216.849 541.935 214.627 Q539.597 212.381 539.597 208.631 Q539.597 204.256 542.514 202.034 Q545.453 199.812 551.263 199.812 L557.236 199.812 L557.236 199.395 Q557.236 196.455 555.291 194.858 Q553.37 193.238 549.875 193.238 Q547.652 193.238 545.546 193.77 Q543.439 194.303 541.495 195.367 L541.495 191.432 Q543.833 190.53 546.032 190.09 Q548.231 189.627 550.314 189.627 Q555.939 189.627 558.717 192.543 Q561.495 195.46 561.495 201.386 Z" fill="#000000" fill-rule="nonzero" fill-opacity="1" /><path clip-path="url(#clip910)" d="M588.925 191.247 L588.925 195.229 Q587.12 194.233 585.291 193.747 Q583.486 193.238 581.634 193.238 Q577.49 193.238 575.199 195.877 Q572.907 198.492 572.907 203.238 Q572.907 207.983 575.199 210.622 Q577.49 213.238 581.634 213.238 Q583.486 213.238 585.291 212.752 Q587.12 212.242 588.925 211.247 L588.925 215.182 Q587.143 216.016 585.222 216.432 Q583.323 216.849 581.171 216.849 Q575.314 216.849 571.865 213.168 Q568.416 209.488 568.416 203.238 Q568.416 196.895 571.888 193.261 Q575.384 189.627 581.449 189.627 Q583.416 189.627 585.291 190.043 Q587.166 190.437 588.925 191.247 Z" fill="#000000" fill-rule="nonzero" fill-opacity="1" /><path clip-path="url(#clip910)" d="M600.546 182.891 L600.546 190.252 L609.319 190.252 L609.319 193.562 L600.546 193.562 L600.546 207.636 Q600.546 210.807 601.402 211.71 Q602.282 212.613 604.944 212.613 L609.319 212.613 L609.319 216.178 L604.944 216.178 Q600.013 216.178 598.138 214.349 Q596.263 212.497 596.263 207.636 L596.263 193.562 L593.138 193.562 L593.138 190.252 L596.263 190.252 L596.263 182.891 L600.546 182.891 Z" fill="#000000" fill-rule="nonzero" fill-opacity="1" /></svg>
