<?xml version="1.0" encoding="utf-8"?>
<svg xmlns="http://www.w3.org/2000/svg" xmlns:xlink="http://www.w3.org/1999/xlink" width="600" height="400" viewBox="0 0 2400 1600">
<defs>
  <clipPath id="clip970">
    <rect x="0" y="0" width="2400" height="1600"/>
  </clipPath>
</defs>
<path clip-path="url(#clip970)" d="M0 1600 L2400 1600 L2400 0 L0 0  Z" fill="#ffffff" fill-rule="evenodd" fill-opacity="1"/>
<defs>
  <clipPath id="clip971">
    <rect x="480" y="0" width="1681" height="1600"/>
  </clipPath>
</defs>
<path clip-path="url(#clip970)" d="M192.339 1486.45 L2352.76 1486.45 L2352.76 47.2441 L192.339 47.2441  Z" fill="#ffffff" fill-rule="evenodd" fill-opacity="1"/>
<defs>
  <clipPath id="clip972">
    <rect x="192" y="47" width="2161" height="1440"/>
  </clipPath>
</defs>
<polyline clip-path="url(#clip972)" style="stroke:#000000; stroke-linecap:round; stroke-linejoin:round; stroke-width:2; stroke-opacity:0.1; fill:none" points="253.483,1486.45 253.483,47.2441 "/>
<polyline clip-path="url(#clip972)" style="stroke:#000000; stroke-linecap:round; stroke-linejoin:round; stroke-width:2; stroke-opacity:0.1; fill:none" points="763.015,1486.45 763.015,47.2441 "/>
<polyline clip-path="url(#clip972)" style="stroke:#000000; stroke-linecap:round; stroke-linejoin:round; stroke-width:2; stroke-opacity:0.1; fill:none" points="1272.55,1486.45 1272.55,47.2441 "/>
<polyline clip-path="url(#clip972)" style="stroke:#000000; stroke-linecap:round; stroke-linejoin:round; stroke-width:2; stroke-opacity:0.1; fill:none" points="1782.08,1486.45 1782.08,47.2441 "/>
<polyline clip-path="url(#clip972)" style="stroke:#000000; stroke-linecap:round; stroke-linejoin:round; stroke-width:2; stroke-opacity:0.1; fill:none" points="2291.61,1486.45 2291.61,47.2441 "/>
<polyline clip-path="url(#clip970)" style="stroke:#000000; stroke-linecap:round; stroke-linejoin:round; stroke-width:4; stroke-opacity:1; fill:none" points="192.339,1486.45 2352.76,1486.45 "/>
<polyline clip-path="url(#clip970)" style="stroke:#000000; stroke-linecap:round; stroke-linejoin:round; stroke-width:4; stroke-opacity:1; fill:none" points="253.483,1486.45 253.483,1467.55 "/>
<polyline clip-path="url(#clip970)" style="stroke:#000000; stroke-linecap:round; stroke-linejoin:round; stroke-width:4; stroke-opacity:1; fill:none" points="763.015,1486.45 763.015,1467.55 "/>
<polyline clip-path="url(#clip970)" style="stroke:#000000; stroke-linecap:round; stroke-linejoin:round; stroke-width:4; stroke-opacity:1; fill:none" points="1272.55,1486.45 1272.55,1467.55 "/>
<polyline clip-path="url(#clip970)" style="stroke:#000000; stroke-linecap:round; stroke-linejoin:round; stroke-width:4; stroke-opacity:1; fill:none" points="1782.08,1486.45 1782.08,1467.55 "/>
<polyline clip-path="url(#clip970)" style="stroke:#000000; stroke-linecap:round; stroke-linejoin:round; stroke-width:4; stroke-opacity:1; fill:none" points="2291.61,1486.45 2291.61,1467.55 "/>
<path clip-path="url(#clip970)" d="M200.011 1532.02 L229.686 1532.02 L229.686 1535.95 L200.011 1535.95 L200.011 1532.02 Z" fill="#000000" fill-rule="nonzero" fill-opacity="1" /><path clip-path="url(#clip970)" d="M240.589 1544.91 L248.228 1544.91 L248.228 1518.55 L239.918 1520.21 L239.918 1515.95 L248.182 1514.29 L252.858 1514.29 L252.858 1544.91 L260.497 1544.91 L260.497 1548.85 L240.589 1548.85 L240.589 1544.91 Z" fill="#000000" fill-rule="nonzero" fill-opacity="1" /><path clip-path="url(#clip970)" d="M269.941 1542.97 L274.825 1542.97 L274.825 1548.85 L269.941 1548.85 L269.941 1542.97 Z" fill="#000000" fill-rule="nonzero" fill-opacity="1" /><path clip-path="url(#clip970)" d="M295.01 1517.37 Q291.399 1517.37 289.57 1520.93 Q287.765 1524.47 287.765 1531.6 Q287.765 1538.71 289.57 1542.27 Q291.399 1545.82 295.01 1545.82 Q298.644 1545.82 300.45 1542.27 Q302.279 1538.71 302.279 1531.6 Q302.279 1524.47 300.45 1520.93 Q298.644 1517.37 295.01 1517.37 M295.01 1513.66 Q300.82 1513.66 303.876 1518.27 Q306.955 1522.85 306.955 1531.6 Q306.955 1540.33 303.876 1544.94 Q300.82 1549.52 295.01 1549.52 Q289.2 1549.52 286.121 1544.94 Q283.066 1540.33 283.066 1531.6 Q283.066 1522.85 286.121 1518.27 Q289.2 1513.66 295.01 1513.66 Z" fill="#000000" fill-rule="nonzero" fill-opacity="1" /><path clip-path="url(#clip970)" d="M710.041 1532.02 L739.717 1532.02 L739.717 1535.95 L710.041 1535.95 L710.041 1532.02 Z" fill="#000000" fill-rule="nonzero" fill-opacity="1" /><path clip-path="url(#clip970)" d="M759.809 1517.37 Q756.198 1517.37 754.369 1520.93 Q752.564 1524.47 752.564 1531.6 Q752.564 1538.71 754.369 1542.27 Q756.198 1545.82 759.809 1545.82 Q763.443 1545.82 765.249 1542.27 Q767.077 1538.71 767.077 1531.6 Q767.077 1524.47 765.249 1520.93 Q763.443 1517.37 759.809 1517.37 M759.809 1513.66 Q765.619 1513.66 768.675 1518.27 Q771.753 1522.85 771.753 1531.6 Q771.753 1540.33 768.675 1544.94 Q765.619 1549.52 759.809 1549.52 Q753.999 1549.52 750.92 1544.94 Q747.865 1540.33 747.865 1531.6 Q747.865 1522.85 750.92 1518.27 Q753.999 1513.66 759.809 1513.66 Z" fill="#000000" fill-rule="nonzero" fill-opacity="1" /><path clip-path="url(#clip970)" d="M779.971 1542.97 L784.855 1542.97 L784.855 1548.85 L779.971 1548.85 L779.971 1542.97 Z" fill="#000000" fill-rule="nonzero" fill-opacity="1" /><path clip-path="url(#clip970)" d="M795.087 1514.29 L813.443 1514.29 L813.443 1518.22 L799.369 1518.22 L799.369 1526.7 Q800.387 1526.35 801.406 1526.19 Q802.425 1526 803.443 1526 Q809.23 1526 812.61 1529.17 Q815.989 1532.34 815.989 1537.76 Q815.989 1543.34 812.517 1546.44 Q809.045 1549.52 802.725 1549.52 Q800.55 1549.52 798.281 1549.15 Q796.036 1548.78 793.628 1548.04 L793.628 1543.34 Q795.712 1544.47 797.934 1545.03 Q800.156 1545.58 802.633 1545.58 Q806.637 1545.58 808.975 1543.48 Q811.313 1541.37 811.313 1537.76 Q811.313 1534.15 808.975 1532.04 Q806.637 1529.94 802.633 1529.94 Q800.758 1529.94 798.883 1530.35 Q797.031 1530.77 795.087 1531.65 L795.087 1514.29 Z" fill="#000000" fill-rule="nonzero" fill-opacity="1" /><path clip-path="url(#clip970)" d="M1249.93 1517.37 Q1246.32 1517.37 1244.49 1520.93 Q1242.69 1524.47 1242.69 1531.6 Q1242.69 1538.71 1244.49 1542.27 Q1246.32 1545.82 1249.93 1545.82 Q1253.57 1545.82 1255.37 1542.27 Q1257.2 1538.71 1257.2 1531.6 Q1257.2 1524.47 1255.37 1520.93 Q1253.57 1517.37 1249.93 1517.37 M1249.93 1513.66 Q1255.74 1513.66 1258.8 1518.27 Q1261.88 1522.85 1261.88 1531.6 Q1261.88 1540.33 1258.8 1544.94 Q1255.74 1549.52 1249.93 1549.52 Q1244.12 1549.52 1241.04 1544.94 Q1237.99 1540.33 1237.99 1531.6 Q1237.99 1522.85 1241.04 1518.27 Q1244.12 1513.66 1249.93 1513.66 Z" fill="#000000" fill-rule="nonzero" fill-opacity="1" /><path clip-path="url(#clip970)" d="M1270.09 1542.97 L1274.98 1542.97 L1274.98 1548.85 L1270.09 1548.85 L1270.09 1542.97 Z" fill="#000000" fill-rule="nonzero" fill-opacity="1" /><path clip-path="url(#clip970)" d="M1295.16 1517.37 Q1291.55 1517.37 1289.72 1520.93 Q1287.92 1524.47 1287.92 1531.6 Q1287.92 1538.71 1289.72 1542.27 Q1291.55 1545.82 1295.16 1545.82 Q1298.8 1545.82 1300.6 1542.27 Q1302.43 1538.71 1302.43 1531.6 Q1302.43 1524.47 1300.6 1520.93 Q1298.8 1517.37 1295.16 1517.37 M1295.16 1513.66 Q1300.97 1513.66 1304.03 1518.27 Q1307.11 1522.85 1307.11 1531.6 Q1307.11 1540.33 1304.03 1544.94 Q1300.97 1549.52 1295.16 1549.52 Q1289.35 1549.52 1286.27 1544.94 Q1283.22 1540.33 1283.22 1531.6 Q1283.22 1522.85 1286.27 1518.27 Q1289.35 1513.66 1295.16 1513.66 Z" fill="#000000" fill-rule="nonzero" fill-opacity="1" /><path clip-path="url(#clip970)" d="M1759.96 1517.37 Q1756.35 1517.37 1754.52 1520.93 Q1752.72 1524.47 1752.72 1531.6 Q1752.72 1538.71 1754.52 1542.27 Q1756.35 1545.82 1759.96 1545.82 Q1763.6 1545.82 1765.4 1542.27 Q1767.23 1538.71 1767.23 1531.6 Q1767.23 1524.47 1765.4 1520.93 Q1763.6 1517.37 1759.96 1517.37 M1759.96 1513.66 Q1765.77 1513.66 1768.83 1518.27 Q1771.91 1522.85 1771.91 1531.6 Q1771.91 1540.33 1768.83 1544.94 Q1765.77 1549.52 1759.96 1549.52 Q1754.15 1549.52 1751.07 1544.94 Q1748.02 1540.33 1748.02 1531.6 Q1748.02 1522.85 1751.07 1518.27 Q1754.15 1513.66 1759.96 1513.66 Z" fill="#000000" fill-rule="nonzero" fill-opacity="1" /><path clip-path="url(#clip970)" d="M1780.12 1542.97 L1785.01 1542.97 L1785.01 1548.85 L1780.12 1548.85 L1780.12 1542.97 Z" fill="#000000" fill-rule="nonzero" fill-opacity="1" /><path clip-path="url(#clip970)" d="M1795.24 1514.29 L1813.6 1514.29 L1813.6 1518.22 L1799.52 1518.22 L1799.52 1526.7 Q1800.54 1526.35 1801.56 1526.19 Q1802.58 1526 1803.6 1526 Q1809.38 1526 1812.76 1529.17 Q1816.14 1532.34 1816.14 1537.76 Q1816.14 1543.34 1812.67 1546.44 Q1809.2 1549.52 1802.88 1549.52 Q1800.7 1549.52 1798.43 1549.15 Q1796.19 1548.78 1793.78 1548.04 L1793.78 1543.34 Q1795.86 1544.47 1798.09 1545.03 Q1800.31 1545.58 1802.79 1545.58 Q1806.79 1545.58 1809.13 1543.48 Q1811.47 1541.37 1811.47 1537.76 Q1811.47 1534.15 1809.13 1532.04 Q1806.79 1529.94 1802.79 1529.94 Q1800.91 1529.94 1799.04 1530.35 Q1797.18 1530.77 1795.24 1531.65 L1795.24 1514.29 Z" fill="#000000" fill-rule="nonzero" fill-opacity="1" /><path clip-path="url(#clip970)" d="M2258.76 1544.91 L2266.4 1544.91 L2266.4 1518.55 L2258.09 1520.21 L2258.09 1515.95 L2266.36 1514.29 L2271.03 1514.29 L2271.03 1544.91 L2278.67 1544.91 L2278.67 1548.85 L2258.76 1548.85 L2258.76 1544.91 Z" fill="#000000" fill-rule="nonzero" fill-opacity="1" /><path clip-path="url(#clip970)" d="M2288.12 1542.97 L2293 1542.97 L2293 1548.85 L2288.12 1548.85 L2288.12 1542.97 Z" fill="#000000" fill-rule="nonzero" fill-opacity="1" /><path clip-path="url(#clip970)" d="M2313.19 1517.37 Q2309.57 1517.37 2307.75 1520.93 Q2305.94 1524.47 2305.94 1531.6 Q2305.94 1538.71 2307.75 1542.27 Q2309.57 1545.82 2313.19 1545.82 Q2316.82 1545.82 2318.63 1542.27 Q2320.45 1538.71 2320.45 1531.6 Q2320.45 1524.47 2318.63 1520.93 Q2316.82 1517.37 2313.19 1517.37 M2313.19 1513.66 Q2319 1513.66 2322.05 1518.27 Q2325.13 1522.85 2325.13 1531.6 Q2325.13 1540.33 2322.05 1544.94 Q2319 1549.52 2313.19 1549.52 Q2307.38 1549.52 2304.3 1544.94 Q2301.24 1540.33 2301.24 1531.6 Q2301.24 1522.85 2304.3 1518.27 Q2307.38 1513.66 2313.19 1513.66 Z" fill="#000000" fill-rule="nonzero" fill-opacity="1" /><polyline clip-path="url(#clip972)" style="stroke:#000000; stroke-linecap:round; stroke-linejoin:round; stroke-width:2; stroke-opacity:0.1; fill:none" points="192.339,1394.71 2352.76,1394.71 "/>
<polyline clip-path="url(#clip972)" style="stroke:#000000; stroke-linecap:round; stroke-linejoin:round; stroke-width:2; stroke-opacity:0.1; fill:none" points="192.339,1217.92 2352.76,1217.92 "/>
<polyline clip-path="url(#clip972)" style="stroke:#000000; stroke-linecap:round; stroke-linejoin:round; stroke-width:2; stroke-opacity:0.1; fill:none" points="192.339,1041.13 2352.76,1041.13 "/>
<polyline clip-path="url(#clip972)" style="stroke:#000000; stroke-linecap:round; stroke-linejoin:round; stroke-width:2; stroke-opacity:0.1; fill:none" points="192.339,864.348 2352.76,864.348 "/>
<polyline clip-path="url(#clip972)" style="stroke:#000000; stroke-linecap:round; stroke-linejoin:round; stroke-width:2; stroke-opacity:0.1; fill:none" points="192.339,687.561 2352.76,687.561 "/>
<polyline clip-path="url(#clip972)" style="stroke:#000000; stroke-linecap:round; stroke-linejoin:round; stroke-width:2; stroke-opacity:0.1; fill:none" points="192.339,510.775 2352.76,510.775 "/>
<polyline clip-path="url(#clip972)" style="stroke:#000000; stroke-linecap:round; stroke-linejoin:round; stroke-width:2; stroke-opacity:0.1; fill:none" points="192.339,333.988 2352.76,333.988 "/>
<polyline clip-path="url(#clip972)" style="stroke:#000000; stroke-linecap:round; stroke-linejoin:round; stroke-width:2; stroke-opacity:0.1; fill:none" points="192.339,157.201 2352.76,157.201 "/>
<polyline clip-path="url(#clip970)" style="stroke:#000000; stroke-linecap:round; stroke-linejoin:round; stroke-width:4; stroke-opacity:1; fill:none" points="192.339,1486.45 192.339,47.2441 "/>
<polyline clip-path="url(#clip970)" style="stroke:#000000; stroke-linecap:round; stroke-linejoin:round; stroke-width:4; stroke-opacity:1; fill:none" points="192.339,1394.71 211.236,1394.71 "/>
<polyline clip-path="url(#clip970)" style="stroke:#000000; stroke-linecap:round; stroke-linejoin:round; stroke-width:4; stroke-opacity:1; fill:none" points="192.339,1217.92 211.236,1217.92 "/>
<polyline clip-path="url(#clip970)" style="stroke:#000000; stroke-linecap:round; stroke-linejoin:round; stroke-width:4; stroke-opacity:1; fill:none" points="192.339,1041.13 211.236,1041.13 "/>
<polyline clip-path="url(#clip970)" style="stroke:#000000; stroke-linecap:round; stroke-linejoin:round; stroke-width:4; stroke-opacity:1; fill:none" points="192.339,864.348 211.236,864.348 "/>
<polyline clip-path="url(#clip970)" style="stroke:#000000; stroke-linecap:round; stroke-linejoin:round; stroke-width:4; stroke-opacity:1; fill:none" points="192.339,687.561 211.236,687.561 "/>
<polyline clip-path="url(#clip970)" style="stroke:#000000; stroke-linecap:round; stroke-linejoin:round; stroke-width:4; stroke-opacity:1; fill:none" points="192.339,510.775 211.236,510.775 "/>
<polyline clip-path="url(#clip970)" style="stroke:#000000; stroke-linecap:round; stroke-linejoin:round; stroke-width:4; stroke-opacity:1; fill:none" points="192.339,333.988 211.236,333.988 "/>
<polyline clip-path="url(#clip970)" style="stroke:#000000; stroke-linecap:round; stroke-linejoin:round; stroke-width:4; stroke-opacity:1; fill:none" points="192.339,157.201 211.236,157.201 "/>
<path clip-path="url(#clip970)" d="M50.9921 1395.16 L80.6679 1395.16 L80.6679 1399.09 L50.9921 1399.09 L50.9921 1395.16 Z" fill="#000000" fill-rule="nonzero" fill-opacity="1" /><path clip-path="url(#clip970)" d="M100.76 1380.51 Q97.1493 1380.51 95.3206 1384.07 Q93.515 1387.61 93.515 1394.74 Q93.515 1401.85 95.3206 1405.41 Q97.1493 1408.96 100.76 1408.96 Q104.395 1408.96 106.2 1405.41 Q108.029 1401.85 108.029 1394.74 Q108.029 1387.61 106.2 1384.07 Q104.395 1380.51 100.76 1380.51 M100.76 1376.8 Q106.571 1376.8 109.626 1381.41 Q112.705 1385.99 112.705 1394.74 Q112.705 1403.47 109.626 1408.08 Q106.571 1412.66 100.76 1412.66 Q94.9502 1412.66 91.8715 1408.08 Q88.816 1403.47 88.816 1394.74 Q88.816 1385.99 91.8715 1381.41 Q94.9502 1376.8 100.76 1376.8 Z" fill="#000000" fill-rule="nonzero" fill-opacity="1" /><path clip-path="url(#clip970)" d="M120.922 1406.11 L125.807 1406.11 L125.807 1411.99 L120.922 1411.99 L120.922 1406.11 Z" fill="#000000" fill-rule="nonzero" fill-opacity="1" /><path clip-path="url(#clip970)" d="M140.019 1408.05 L156.339 1408.05 L156.339 1411.99 L134.394 1411.99 L134.394 1408.05 Q137.056 1405.3 141.64 1400.67 Q146.246 1396.02 147.427 1394.67 Q149.672 1392.15 150.552 1390.41 Q151.455 1388.65 151.455 1386.96 Q151.455 1384.21 149.51 1382.47 Q147.589 1380.74 144.487 1380.74 Q142.288 1380.74 139.834 1381.5 Q137.404 1382.27 134.626 1383.82 L134.626 1379.09 Q137.45 1377.96 139.904 1377.38 Q142.357 1376.8 144.394 1376.8 Q149.765 1376.8 152.959 1379.49 Q156.154 1382.17 156.154 1386.66 Q156.154 1388.79 155.343 1390.71 Q154.556 1392.61 152.45 1395.21 Q151.871 1395.88 148.769 1399.09 Q145.668 1402.29 140.019 1408.05 Z" fill="#000000" fill-rule="nonzero" fill-opacity="1" /><path clip-path="url(#clip970)" d="M99.1632 1203.72 Q95.5521 1203.72 93.7234 1207.28 Q91.9178 1210.83 91.9178 1217.96 Q91.9178 1225.06 93.7234 1228.63 Q95.5521 1232.17 99.1632 1232.17 Q102.797 1232.17 104.603 1228.63 Q106.432 1225.06 106.432 1217.96 Q106.432 1210.83 104.603 1207.28 Q102.797 1203.72 99.1632 1203.72 M99.1632 1200.02 Q104.973 1200.02 108.029 1204.62 Q111.108 1209.21 111.108 1217.96 Q111.108 1226.68 108.029 1231.29 Q104.973 1235.87 99.1632 1235.87 Q93.353 1235.87 90.2743 1231.29 Q87.2188 1226.68 87.2188 1217.96 Q87.2188 1209.21 90.2743 1204.62 Q93.353 1200.02 99.1632 1200.02 Z" fill="#000000" fill-rule="nonzero" fill-opacity="1" /><path clip-path="url(#clip970)" d="M119.325 1229.32 L124.209 1229.32 L124.209 1235.2 L119.325 1235.2 L119.325 1229.32 Z" fill="#000000" fill-rule="nonzero" fill-opacity="1" /><path clip-path="url(#clip970)" d="M144.394 1203.72 Q140.783 1203.72 138.955 1207.28 Q137.149 1210.83 137.149 1217.96 Q137.149 1225.06 138.955 1228.63 Q140.783 1232.17 144.394 1232.17 Q148.029 1232.17 149.834 1228.63 Q151.663 1225.06 151.663 1217.96 Q151.663 1210.83 149.834 1207.28 Q148.029 1203.72 144.394 1203.72 M144.394 1200.02 Q150.205 1200.02 153.26 1204.62 Q156.339 1209.21 156.339 1217.96 Q156.339 1226.68 153.26 1231.29 Q150.205 1235.87 144.394 1235.87 Q138.584 1235.87 135.506 1231.29 Q132.45 1226.68 132.45 1217.96 Q132.45 1209.21 135.506 1204.62 Q138.584 1200.02 144.394 1200.02 Z" fill="#000000" fill-rule="nonzero" fill-opacity="1" /><path clip-path="url(#clip970)" d="M100.76 1026.93 Q97.1493 1026.93 95.3206 1030.5 Q93.515 1034.04 93.515 1041.17 Q93.515 1048.28 95.3206 1051.84 Q97.1493 1055.38 100.76 1055.38 Q104.395 1055.38 106.2 1051.84 Q108.029 1048.28 108.029 1041.17 Q108.029 1034.04 106.2 1030.5 Q104.395 1026.93 100.76 1026.93 M100.76 1023.23 Q106.571 1023.23 109.626 1027.84 Q112.705 1032.42 112.705 1041.17 Q112.705 1049.9 109.626 1054.5 Q106.571 1059.09 100.76 1059.09 Q94.9502 1059.09 91.8715 1054.5 Q88.816 1049.9 88.816 1041.17 Q88.816 1032.42 91.8715 1027.84 Q94.9502 1023.23 100.76 1023.23 Z" fill="#000000" fill-rule="nonzero" fill-opacity="1" /><path clip-path="url(#clip970)" d="M120.922 1052.53 L125.807 1052.53 L125.807 1058.41 L120.922 1058.41 L120.922 1052.53 Z" fill="#000000" fill-rule="nonzero" fill-opacity="1" /><path clip-path="url(#clip970)" d="M140.019 1054.48 L156.339 1054.48 L156.339 1058.41 L134.394 1058.41 L134.394 1054.48 Q137.056 1051.72 141.64 1047.1 Q146.246 1042.44 147.427 1041.1 Q149.672 1038.58 150.552 1036.84 Q151.455 1035.08 151.455 1033.39 Q151.455 1030.64 149.51 1028.9 Q147.589 1027.16 144.487 1027.16 Q142.288 1027.16 139.834 1027.93 Q137.404 1028.69 134.626 1030.24 L134.626 1025.52 Q137.45 1024.39 139.904 1023.81 Q142.357 1023.23 144.394 1023.23 Q149.765 1023.23 152.959 1025.91 Q156.154 1028.6 156.154 1033.09 Q156.154 1035.22 155.343 1037.14 Q154.556 1039.04 152.45 1041.63 Q151.871 1042.3 148.769 1045.52 Q145.668 1048.72 140.019 1054.48 Z" fill="#000000" fill-rule="nonzero" fill-opacity="1" /><path clip-path="url(#clip970)" d="M98.6771 850.147 Q95.066 850.147 93.2373 853.711 Q91.4317 857.253 91.4317 864.383 Q91.4317 871.489 93.2373 875.054 Q95.066 878.596 98.6771 878.596 Q102.311 878.596 104.117 875.054 Q105.946 871.489 105.946 864.383 Q105.946 857.253 104.117 853.711 Q102.311 850.147 98.6771 850.147 M98.6771 846.443 Q104.487 846.443 107.543 851.049 Q110.621 855.633 110.621 864.383 Q110.621 873.109 107.543 877.716 Q104.487 882.299 98.6771 882.299 Q92.8669 882.299 89.7882 877.716 Q86.7327 873.109 86.7327 864.383 Q86.7327 855.633 89.7882 851.049 Q92.8669 846.443 98.6771 846.443 Z" fill="#000000" fill-rule="nonzero" fill-opacity="1" /><path clip-path="url(#clip970)" d="M118.839 875.748 L123.723 875.748 L123.723 881.628 L118.839 881.628 L118.839 875.748 Z" fill="#000000" fill-rule="nonzero" fill-opacity="1" /><path clip-path="url(#clip970)" d="M146.756 851.142 L134.95 869.591 L146.756 869.591 L146.756 851.142 M145.529 847.068 L151.408 847.068 L151.408 869.591 L156.339 869.591 L156.339 873.48 L151.408 873.48 L151.408 881.628 L146.756 881.628 L146.756 873.48 L131.154 873.48 L131.154 868.966 L145.529 847.068 Z" fill="#000000" fill-rule="nonzero" fill-opacity="1" /><path clip-path="url(#clip970)" d="M99.0011 673.36 Q95.39 673.36 93.5613 676.925 Q91.7558 680.466 91.7558 687.596 Q91.7558 694.702 93.5613 698.267 Q95.39 701.809 99.0011 701.809 Q102.635 701.809 104.441 698.267 Q106.27 694.702 106.27 687.596 Q106.27 680.466 104.441 676.925 Q102.635 673.36 99.0011 673.36 M99.0011 669.656 Q104.811 669.656 107.867 674.263 Q110.946 678.846 110.946 687.596 Q110.946 696.323 107.867 700.929 Q104.811 705.513 99.0011 705.513 Q93.191 705.513 90.1123 700.929 Q87.0567 696.323 87.0567 687.596 Q87.0567 678.846 90.1123 674.263 Q93.191 669.656 99.0011 669.656 Z" fill="#000000" fill-rule="nonzero" fill-opacity="1" /><path clip-path="url(#clip970)" d="M119.163 698.962 L124.047 698.962 L124.047 704.841 L119.163 704.841 L119.163 698.962 Z" fill="#000000" fill-rule="nonzero" fill-opacity="1" /><path clip-path="url(#clip970)" d="M144.811 685.698 Q141.663 685.698 139.811 687.851 Q137.982 690.003 137.982 693.753 Q137.982 697.48 139.811 699.656 Q141.663 701.809 144.811 701.809 Q147.959 701.809 149.788 699.656 Q151.64 697.48 151.64 693.753 Q151.64 690.003 149.788 687.851 Q147.959 685.698 144.811 685.698 M154.093 671.045 L154.093 675.304 Q152.334 674.471 150.529 674.031 Q148.746 673.591 146.987 673.591 Q142.357 673.591 139.904 676.716 Q137.473 679.841 137.126 686.161 Q138.492 684.147 140.552 683.082 Q142.612 681.994 145.089 681.994 Q150.297 681.994 153.306 685.165 Q156.339 688.314 156.339 693.753 Q156.339 699.077 153.191 702.295 Q150.043 705.513 144.811 705.513 Q138.816 705.513 135.644 700.929 Q132.473 696.323 132.473 687.596 Q132.473 679.402 136.362 674.541 Q140.251 669.656 146.802 669.656 Q148.561 669.656 150.343 670.004 Q152.149 670.351 154.093 671.045 Z" fill="#000000" fill-rule="nonzero" fill-opacity="1" /><path clip-path="url(#clip970)" d="M99.2558 496.573 Q95.6447 496.573 93.816 500.138 Q92.0104 503.68 92.0104 510.809 Q92.0104 517.916 93.816 521.481 Q95.6447 525.022 99.2558 525.022 Q102.89 525.022 104.696 521.481 Q106.524 517.916 106.524 510.809 Q106.524 503.68 104.696 500.138 Q102.89 496.573 99.2558 496.573 M99.2558 492.87 Q105.066 492.87 108.121 497.476 Q111.2 502.059 111.2 510.809 Q111.2 519.536 108.121 524.143 Q105.066 528.726 99.2558 528.726 Q93.4456 528.726 90.3669 524.143 Q87.3114 519.536 87.3114 510.809 Q87.3114 502.059 90.3669 497.476 Q93.4456 492.87 99.2558 492.87 Z" fill="#000000" fill-rule="nonzero" fill-opacity="1" /><path clip-path="url(#clip970)" d="M119.418 522.175 L124.302 522.175 L124.302 528.055 L119.418 528.055 L119.418 522.175 Z" fill="#000000" fill-rule="nonzero" fill-opacity="1" /><path clip-path="url(#clip970)" d="M144.487 511.643 Q141.154 511.643 139.232 513.425 Q137.334 515.208 137.334 518.333 Q137.334 521.457 139.232 523.24 Q141.154 525.022 144.487 525.022 Q147.82 525.022 149.742 523.24 Q151.663 521.434 151.663 518.333 Q151.663 515.208 149.742 513.425 Q147.843 511.643 144.487 511.643 M139.811 509.652 Q136.802 508.911 135.112 506.851 Q133.445 504.791 133.445 501.828 Q133.445 497.684 136.385 495.277 Q139.348 492.87 144.487 492.87 Q149.649 492.87 152.589 495.277 Q155.529 497.684 155.529 501.828 Q155.529 504.791 153.839 506.851 Q152.172 508.911 149.186 509.652 Q152.566 510.439 154.441 512.731 Q156.339 515.022 156.339 518.333 Q156.339 523.356 153.26 526.041 Q150.205 528.726 144.487 528.726 Q138.769 528.726 135.691 526.041 Q132.635 523.356 132.635 518.333 Q132.635 515.022 134.533 512.731 Q136.431 510.439 139.811 509.652 M138.098 502.268 Q138.098 504.953 139.765 506.458 Q141.455 507.962 144.487 507.962 Q147.496 507.962 149.186 506.458 Q150.899 504.953 150.899 502.268 Q150.899 499.583 149.186 498.078 Q147.496 496.573 144.487 496.573 Q141.455 496.573 139.765 498.078 Q138.098 499.583 138.098 502.268 Z" fill="#000000" fill-rule="nonzero" fill-opacity="1" /><path clip-path="url(#clip970)" d="M89.9734 347.333 L97.6122 347.333 L97.6122 320.967 L89.3021 322.634 L89.3021 318.375 L97.566 316.708 L102.242 316.708 L102.242 347.333 L109.881 347.333 L109.881 351.268 L89.9734 351.268 L89.9734 347.333 Z" fill="#000000" fill-rule="nonzero" fill-opacity="1" /><path clip-path="url(#clip970)" d="M119.325 345.388 L124.209 345.388 L124.209 351.268 L119.325 351.268 L119.325 345.388 Z" fill="#000000" fill-rule="nonzero" fill-opacity="1" /><path clip-path="url(#clip970)" d="M144.394 319.787 Q140.783 319.787 138.955 323.352 Q137.149 326.893 137.149 334.023 Q137.149 341.129 138.955 344.694 Q140.783 348.236 144.394 348.236 Q148.029 348.236 149.834 344.694 Q151.663 341.129 151.663 334.023 Q151.663 326.893 149.834 323.352 Q148.029 319.787 144.394 319.787 M144.394 316.083 Q150.205 316.083 153.26 320.69 Q156.339 325.273 156.339 334.023 Q156.339 342.75 153.26 347.356 Q150.205 351.939 144.394 351.939 Q138.584 351.939 135.506 347.356 Q132.45 342.75 132.45 334.023 Q132.45 325.273 135.506 320.69 Q138.584 316.083 144.394 316.083 Z" fill="#000000" fill-rule="nonzero" fill-opacity="1" /><path clip-path="url(#clip970)" d="M91.5706 170.546 L99.2095 170.546 L99.2095 144.181 L90.8993 145.847 L90.8993 141.588 L99.1632 139.921 L103.839 139.921 L103.839 170.546 L111.478 170.546 L111.478 174.481 L91.5706 174.481 L91.5706 170.546 Z" fill="#000000" fill-rule="nonzero" fill-opacity="1" /><path clip-path="url(#clip970)" d="M120.922 168.602 L125.807 168.602 L125.807 174.481 L120.922 174.481 L120.922 168.602 Z" fill="#000000" fill-rule="nonzero" fill-opacity="1" /><path clip-path="url(#clip970)" d="M140.019 170.546 L156.339 170.546 L156.339 174.481 L134.394 174.481 L134.394 170.546 Q137.056 167.792 141.64 163.162 Q146.246 158.509 147.427 157.167 Q149.672 154.644 150.552 152.907 Q151.455 151.148 151.455 149.458 Q151.455 146.704 149.51 144.968 Q147.589 143.232 144.487 143.232 Q142.288 143.232 139.834 143.995 Q137.404 144.759 134.626 146.31 L134.626 141.588 Q137.45 140.454 139.904 139.875 Q142.357 139.296 144.394 139.296 Q149.765 139.296 152.959 141.982 Q156.154 144.667 156.154 149.157 Q156.154 151.287 155.343 153.208 Q154.556 155.107 152.45 157.699 Q151.871 158.37 148.769 161.588 Q145.668 164.782 140.019 170.546 Z" fill="#000000" fill-rule="nonzero" fill-opacity="1" /><polyline clip-path="url(#clip972)" style="stroke:#009af9; stroke-linecap:round; stroke-linejoin:round; stroke-width:16; stroke-opacity:1; fill:none" stroke-dasharray="8, 16" points="253.483,1085.16 263.725,1084.86 273.966,1075.76 284.208,1059.22 294.45,1042.01 304.692,1033.77 314.934,1039.91 325.176,1058.69 335.418,1084.86 345.659,1113.71 355.901,1142.32 366.143,1169.82 376.385,1197.23 386.627,1226.27 396.869,1257.42 407.111,1288.91 417.352,1317.96 427.594,1342.65 437.836,1362.61 448.078,1378.12 458.32,1389.14 468.562,1395.05 478.803,1394.96 489.045,1388.33 499.287,1375.34 509.529,1356.92 519.771,1334.3 530.013,1308.64 540.255,1280.79 550.497,1251.33 560.738,1220.7 570.98,1189.27 581.222,1157.73 591.464,1127.41 601.706,1100.06 611.948,1077.34 622.19,1060.29 632.431,1049.15 642.673,1043.61 652.915,1043.23 663.157,1047.74 673.399,1057.1 683.641,1071.4 693.882,1090.64 704.124,1114.5 714.366,1142.24 724.608,1172.81 734.85,1204.98 745.092,1237.53 755.334,1269.37 765.575,1299.35 775.817,1326.25 786.059,1349.01 796.301,1367 806.543,1380.27 816.785,1389.08 827.027,1393.46 837.268,1392.84 847.51,1386.47 857.752,1373.86 867.994,1354.79 878.236,1328.9 888.478,1296.4 898.72,1260.85 908.961,1230.33 919.203,1210.87 929.445,1196.87 939.687,1174.47 949.929,1137.09 960.171,1095.86 970.413,1077.32 980.654,1085.57 990.896,1070.94 1001.14,1042.69 1011.38,1044.47 1021.62,1044.12 1031.86,1033.23 1042.11,1067.16 1052.35,1170.2 1062.59,1275.35 1072.83,1252.05 1083.07,1195.41 1093.31,1178.55 1103.56,1176.61 1113.8,1201 1124.04,1280.97 1134.28,1391.94 1144.52,1445.72 1154.77,1434.05 1165.01,1399.94 1175.25,1370.87 1185.49,1356.62 1195.73,1357.13 1205.98,1368.79 1216.22,1386.43 1226.46,1401.39 1236.7,1396.35 1246.94,1338.9 1257.18,1187.19 1267.43,933.809 1277.67,619.024 1287.91,368.26 1298.15,349.016 1308.39,448.943 1318.64,482.793 1328.88,405.807 1339.12,320.229 1349.36,286.121 1359.6,289.086 1369.84,304.528 1380.09,319.132 1390.33,327.369 1400.57,329.857 1410.81,330.785 1421.05,325.654 1431.3,301.93 1441.54,294.138 1451.78,337.745 1462.02,384.665 1472.26,388.488 1482.51,349.495 1492.75,308.195 1502.99,273.983 1513.23,228.842 1523.47,207.333 1533.71,261.609 1543.96,356.498 1554.2,423.892 1564.44,442.833 1574.68,426.045 1584.92,387.273 1595.17,331.979 1605.41,273.098 1615.65,238.252 1625.89,242.168 1636.13,270.82 1646.38,307.02 1656.62,344.733 1666.86,382.027 1677.1,414.773 1687.34,433.293 1697.58,425.696 1707.83,387.753 1718.07,328.374 1728.31,266.385 1738.55,222.38 1748.79,210.368 1759.04,233.763 1769.28,286.453 1779.52,355.204 1789.76,421.144 1800,463.299 1810.24,467.02 1820.49,431.82 1830.73,370.108 1840.97,299.157 1851.21,235.609 1861.45,194.805 1871.7,190.026 1881.94,228.198 1892.18,303.782 1902.42,395.229 1912.66,469.444 1922.91,497.492 1933.15,471.683 1943.39,407.336 1953.63,329.469 1963.87,259.39 1974.11,209.916 1984.36,187.037 1994.6,193.719 2004.84,233.837 2015.08,311.925 2025.32,419.001 2035.57,511.369 2045.81,529.393 2056.05,462.169 2066.29,358.739 2076.53,267.092 2086.77,204.718 2097.02,174.6 2107.26,177.069 2117.5,210.4 2127.74,271.027 2137.98,355.307 2148.23,456.318 2158.47,544.315 2168.71,550.35 2178.95,434.283 2189.19,274.182 2199.44,171.115 2209.68,143.544 2219.92,165.589 2230.16,212.002 2240.4,268.064 2250.64,327.405 2260.89,387.487 2271.13,446.495 2281.37,502.522 2291.61,553.891 "/>
<polyline clip-path="url(#clip972)" style="stroke:#e26f46; stroke-linecap:round; stroke-linejoin:round; stroke-width:4; stroke-opacity:1; fill:none" points="253.483,1085.16 263.725,1066.32 273.966,1052.43 284.208,1043.94 294.45,1041.14 304.692,1044.1 314.934,1052.73 325.176,1066.75 335.418,1085.71 345.659,1108.99 355.901,1135.82 366.143,1165.32 376.385,1196.55 386.627,1228.47 396.869,1260.05 407.111,1290.25 417.352,1318.1 427.594,1342.67 437.836,1363.17 448.078,1378.93 458.32,1389.44 468.562,1394.35 478.803,1393.5 489.045,1386.92 499.287,1374.82 509.529,1357.61 519.771,1335.83 530.013,1310.21 540.255,1281.57 550.497,1250.86 560.738,1219.07 570.98,1187.24 581.222,1156.42 591.464,1127.6 601.706,1101.73 611.948,1079.66 622.19,1062.09 632.431,1049.61 642.673,1042.63 652.915,1041.36 663.157,1045.86 673.399,1055.97 683.641,1071.37 693.882,1091.56 704.124,1115.86 714.366,1143.5 724.608,1173.56 734.85,1205.08 745.092,1237.01 755.334,1268.32 765.575,1297.99 775.817,1325.04 786.059,1348.59 796.301,1367.88 806.543,1382.28 816.785,1391.31 827.027,1394.69 837.268,1392.29 847.51,1384.2 857.752,1370.69 867.994,1352.19 878.236,1329.31 888.478,1302.79 898.72,1273.5 908.961,1242.4 919.203,1210.5 929.445,1178.84 939.687,1148.46 949.929,1120.34 960.171,1095.41 970.413,1074.48 980.654,1058.23 990.896,1047.19 1001.14,1041.72 1011.38,1042.01 1021.62,1048.03 1031.86,1059.6 1042.11,1076.34 1052.35,1097.69 1062.59,1122.98 1072.83,1151.36 1083.07,1181.91 1093.31,1213.64 1103.56,1245.5 1113.8,1276.47 1124.04,1305.53 1134.28,1331.73 1144.52,1354.21 1154.77,1372.24 1165.01,1385.24 1175.25,1392.78 1185.49,1394.61 1195.73,1390.67 1205.98,1381.1 1216.22,1366.2 1226.46,1346.46 1236.7,1322.53 1246.94,1295.18 1257.18,1265.31 1267.43,1233.89 1277.67,332.704 1287.91,331.243 1298.15,332.573 1308.39,336.999 1318.64,343.166 1328.88,348.467 1339.12,350.036 1349.36,345.958 1359.6,336.234 1369.84,323.126 1380.09,310.653 1390.33,303.366 1400.57,304.764 1410.81,315.882 1421.05,334.582 1431.3,355.864 1441.54,373.194 1451.78,380.505 1462.02,374.247 1472.26,354.83 1482.51,326.903 1492.75,298.281 1502.99,277.768 1513.23,272.454 1523.47,285.336 1533.71,314.036 1543.96,351.101 1554.2,385.919 1564.44,407.756 1574.68,409.049 1584.92,387.952 1595.17,349.289 1605.41,303.521 1615.65,263.932 1625.89,242.769 1636.13,247.475 1646.38,278.157 1656.62,327.138 1666.86,380.834 1677.1,423.517 1687.34,441.919 1697.58,429.335 1707.83,387.955 1718.07,328.646 1728.31,268.122 1738.55,224.238 1748.79,210.722 1759.04,232.915 1769.28,285.812 1779.52,355.108 1789.76,421.052 1800,464.075 1810.24,470.592 1820.49,437.256 1830.73,372.344 1840.97,293.755 1851.21,224.079 1861.45,184.107 1871.7,186.634 1881.94,232.407 1892.18,309.486 1902.42,396.327 1912.66,467.8 1922.91,502.457 1933.15,488.961 1943.39,429.739 1953.63,340.697 1963.87,246.977 1974.11,175.852 1984.36,148.797 1994.6,175.016 2004.84,248.387 2015.08,348.818 2025.32,447.731 2035.57,516.199 2045.81,533.397 2056.05,492.92 2066.29,405.045 2076.53,294.165 2086.77,192.027 2097.02,128.642 2107.26,123.472 2117.5,179.477 2127.74,281.845 2137.98,401.873 2148.23,505.018 2158.47,560.831 2168.71,551.945 2178.95,479.443 2189.19,362.974 2199.44,235.442 2209.68,133.718 2219.92,87.9763 2230.16,112.756 2240.4,202.38 2250.64,332.173 2260.89,465.239 2271.13,562.955 2281.37,596.172 2291.61,553.904 "/>
<path clip-path="url(#clip970)" d="M264.353 250.738 L707.222 250.738 L707.222 95.2176 L264.353 95.2176  Z" fill="#ffffff" fill-rule="evenodd" fill-opacity="1"/>
<polyline clip-path="url(#clip970)" style="stroke:#000000; stroke-linecap:round; stroke-linejoin:round; stroke-width:4; stroke-opacity:1; fill:none" points="264.353,250.738 707.222,250.738 707.222,95.2176 264.353,95.2176 264.353,250.738 "/>
<polyline clip-path="url(#clip970)" style="stroke:#009af9; stroke-linecap:round; stroke-linejoin:round; stroke-width:16; stroke-opacity:1; fill:none" stroke-dasharray="8, 16" points="288.357,147.058 432.385,147.058 "/>
<path clip-path="url(#clip970)" d="M461.066 133.62 L461.066 146.606 L466.945 146.606 Q470.209 146.606 471.992 144.916 Q473.774 143.227 473.774 140.102 Q473.774 137 471.992 135.31 Q470.209 133.62 466.945 133.62 L461.066 133.62 M456.39 129.778 L466.945 129.778 Q472.755 129.778 475.718 132.416 Q478.704 135.032 478.704 140.102 Q478.704 145.217 475.718 147.833 Q472.755 150.449 466.945 150.449 L461.066 150.449 L461.066 164.338 L456.39 164.338 L456.39 129.778 Z" fill="#000000" fill-rule="nonzero" fill-opacity="1" /><path clip-path="url(#clip970)" d="M498.982 142.393 Q498.265 141.977 497.408 141.791 Q496.575 141.583 495.556 141.583 Q491.945 141.583 490.001 143.944 Q488.079 146.282 488.079 150.68 L488.079 164.338 L483.797 164.338 L483.797 138.412 L488.079 138.412 L488.079 142.44 Q489.422 140.078 491.575 138.944 Q493.728 137.787 496.806 137.787 Q497.246 137.787 497.778 137.856 Q498.311 137.903 498.959 138.018 L498.982 142.393 Z" fill="#000000" fill-rule="nonzero" fill-opacity="1" /><path clip-path="url(#clip970)" d="M524.584 150.31 L524.584 152.393 L505.001 152.393 Q505.278 156.791 507.639 159.106 Q510.024 161.398 514.26 161.398 Q516.714 161.398 519.005 160.796 Q521.32 160.194 523.588 158.99 L523.588 163.018 Q521.297 163.99 518.889 164.5 Q516.482 165.009 514.005 165.009 Q507.802 165.009 504.167 161.398 Q500.556 157.787 500.556 151.629 Q500.556 145.264 503.982 141.537 Q507.431 137.787 513.264 137.787 Q518.496 137.787 521.528 141.166 Q524.584 144.523 524.584 150.31 M520.325 149.06 Q520.278 145.565 518.357 143.481 Q516.459 141.398 513.311 141.398 Q509.746 141.398 507.593 143.412 Q505.464 145.426 505.14 149.083 L520.325 149.06 Z" fill="#000000" fill-rule="nonzero" fill-opacity="1" /><path clip-path="url(#clip970)" d="M548.635 142.347 L548.635 128.319 L552.894 128.319 L552.894 164.338 L548.635 164.338 L548.635 160.449 Q547.292 162.763 545.232 163.898 Q543.195 165.009 540.325 165.009 Q535.625 165.009 532.663 161.259 Q529.723 157.509 529.723 151.398 Q529.723 145.287 532.663 141.537 Q535.625 137.787 540.325 137.787 Q543.195 137.787 545.232 138.921 Q547.292 140.032 548.635 142.347 M534.121 151.398 Q534.121 156.097 536.042 158.782 Q537.987 161.444 541.366 161.444 Q544.746 161.444 546.69 158.782 Q548.635 156.097 548.635 151.398 Q548.635 146.699 546.69 144.037 Q544.746 141.352 541.366 141.352 Q537.987 141.352 536.042 144.037 Q534.121 146.699 534.121 151.398 Z" fill="#000000" fill-rule="nonzero" fill-opacity="1" /><path clip-path="url(#clip970)" d="M561.667 138.412 L565.926 138.412 L565.926 164.338 L561.667 164.338 L561.667 138.412 M561.667 128.319 L565.926 128.319 L565.926 133.713 L561.667 133.713 L561.667 128.319 Z" fill="#000000" fill-rule="nonzero" fill-opacity="1" /><path clip-path="url(#clip970)" d="M593.496 139.407 L593.496 143.389 Q591.69 142.393 589.861 141.907 Q588.056 141.398 586.204 141.398 Q582.06 141.398 579.769 144.037 Q577.477 146.652 577.477 151.398 Q577.477 156.143 579.769 158.782 Q582.06 161.398 586.204 161.398 Q588.056 161.398 589.861 160.912 Q591.69 160.402 593.496 159.407 L593.496 163.342 Q591.713 164.176 589.792 164.592 Q587.894 165.009 585.741 165.009 Q579.884 165.009 576.435 161.328 Q572.986 157.648 572.986 151.398 Q572.986 145.055 576.459 141.421 Q579.954 137.787 586.019 137.787 Q587.986 137.787 589.861 138.203 Q591.736 138.597 593.496 139.407 Z" fill="#000000" fill-rule="nonzero" fill-opacity="1" /><path clip-path="url(#clip970)" d="M605.116 131.051 L605.116 138.412 L613.889 138.412 L613.889 141.722 L605.116 141.722 L605.116 155.796 Q605.116 158.967 605.972 159.87 Q606.852 160.773 609.514 160.773 L613.889 160.773 L613.889 164.338 L609.514 164.338 Q604.583 164.338 602.708 162.509 Q600.833 160.657 600.833 155.796 L600.833 141.722 L597.708 141.722 L597.708 138.412 L600.833 138.412 L600.833 131.051 L605.116 131.051 Z" fill="#000000" fill-rule="nonzero" fill-opacity="1" /><path clip-path="url(#clip970)" d="M619.491 138.412 L623.75 138.412 L623.75 164.338 L619.491 164.338 L619.491 138.412 M619.491 128.319 L623.75 128.319 L623.75 133.713 L619.491 133.713 L619.491 128.319 Z" fill="#000000" fill-rule="nonzero" fill-opacity="1" /><path clip-path="url(#clip970)" d="M642.708 141.398 Q639.282 141.398 637.292 144.083 Q635.301 146.745 635.301 151.398 Q635.301 156.051 637.268 158.736 Q639.259 161.398 642.708 161.398 Q646.111 161.398 648.102 158.713 Q650.092 156.027 650.092 151.398 Q650.092 146.791 648.102 144.106 Q646.111 141.398 642.708 141.398 M642.708 137.787 Q648.264 137.787 651.435 141.398 Q654.606 145.009 654.606 151.398 Q654.606 157.764 651.435 161.398 Q648.264 165.009 642.708 165.009 Q637.13 165.009 633.958 161.398 Q630.81 157.764 630.81 151.398 Q630.81 145.009 633.958 141.398 Q637.13 137.787 642.708 137.787 Z" fill="#000000" fill-rule="nonzero" fill-opacity="1" /><path clip-path="url(#clip970)" d="M683.217 148.689 L683.217 164.338 L678.958 164.338 L678.958 148.828 Q678.958 145.148 677.523 143.319 Q676.088 141.49 673.217 141.49 Q669.768 141.49 667.778 143.69 Q665.787 145.889 665.787 149.685 L665.787 164.338 L661.504 164.338 L661.504 138.412 L665.787 138.412 L665.787 142.44 Q667.315 140.102 669.375 138.944 Q671.458 137.787 674.166 137.787 Q678.634 137.787 680.926 140.565 Q683.217 143.319 683.217 148.689 Z" fill="#000000" fill-rule="nonzero" fill-opacity="1" /><polyline clip-path="url(#clip970)" style="stroke:#e26f46; stroke-linecap:round; stroke-linejoin:round; stroke-width:4; stroke-opacity:1; fill:none" points="288.357,198.898 432.385,198.898 "/>
<path clip-path="url(#clip970)" d="M456.39 181.618 L478.242 181.618 L478.242 185.553 L461.066 185.553 L461.066 195.784 L477.524 195.784 L477.524 199.719 L461.066 199.719 L461.066 212.242 L478.658 212.242 L478.658 216.178 L456.39 216.178 L456.39 181.618 Z" fill="#000000" fill-rule="nonzero" fill-opacity="1" /><path clip-path="url(#clip970)" d="M507.709 190.252 L498.334 202.867 L508.195 216.178 L503.172 216.178 L495.626 205.992 L488.079 216.178 L483.056 216.178 L493.126 202.613 L483.913 190.252 L488.936 190.252 L495.811 199.488 L502.686 190.252 L507.709 190.252 Z" fill="#000000" fill-rule="nonzero" fill-opacity="1" /><path clip-path="url(#clip970)" d="M525.996 203.145 Q520.834 203.145 518.843 204.326 Q516.852 205.506 516.852 208.354 Q516.852 210.622 518.334 211.965 Q519.838 213.284 522.408 213.284 Q525.95 213.284 528.079 210.784 Q530.232 208.261 530.232 204.094 L530.232 203.145 L525.996 203.145 M534.491 201.386 L534.491 216.178 L530.232 216.178 L530.232 212.242 Q528.774 214.603 526.598 215.738 Q524.422 216.849 521.274 216.849 Q517.292 216.849 514.931 214.627 Q512.593 212.381 512.593 208.631 Q512.593 204.256 515.51 202.034 Q518.45 199.812 524.26 199.812 L530.232 199.812 L530.232 199.395 Q530.232 196.455 528.288 194.858 Q526.366 193.238 522.871 193.238 Q520.649 193.238 518.542 193.77 Q516.436 194.303 514.491 195.367 L514.491 191.432 Q516.829 190.53 519.028 190.09 Q521.227 189.627 523.311 189.627 Q528.936 189.627 531.713 192.543 Q534.491 195.46 534.491 201.386 Z" fill="#000000" fill-rule="nonzero" fill-opacity="1" /><path clip-path="url(#clip970)" d="M561.922 191.247 L561.922 195.229 Q560.116 194.233 558.287 193.747 Q556.482 193.238 554.63 193.238 Q550.486 193.238 548.195 195.877 Q545.903 198.492 545.903 203.238 Q545.903 207.983 548.195 210.622 Q550.486 213.238 554.63 213.238 Q556.482 213.238 558.287 212.752 Q560.116 212.242 561.922 211.247 L561.922 215.182 Q560.139 216.016 558.218 216.432 Q556.32 216.849 554.167 216.849 Q548.311 216.849 544.862 213.168 Q541.412 209.488 541.412 203.238 Q541.412 196.895 544.885 193.261 Q548.38 189.627 554.445 189.627 Q556.412 189.627 558.287 190.043 Q560.162 190.437 561.922 191.247 Z" fill="#000000" fill-rule="nonzero" fill-opacity="1" /><path clip-path="url(#clip970)" d="M573.542 182.891 L573.542 190.252 L582.315 190.252 L582.315 193.562 L573.542 193.562 L573.542 207.636 Q573.542 210.807 574.398 211.71 Q575.278 212.613 577.94 212.613 L582.315 212.613 L582.315 216.178 L577.94 216.178 Q573.01 216.178 571.135 214.349 Q569.26 212.497 569.26 207.636 L569.26 193.562 L566.135 193.562 L566.135 190.252 L569.26 190.252 L569.26 182.891 L573.542 182.891 Z" fill="#000000" fill-rule="nonzero" fill-opacity="1" /></svg>
