<?xml version="1.0" encoding="utf-8"?>
<svg xmlns="http://www.w3.org/2000/svg" xmlns:xlink="http://www.w3.org/1999/xlink" width="600" height="400" viewBox="0 0 2400 1600">
<defs>
  <clipPath id="clip940">
    <rect x="0" y="0" width="2400" height="1600"/>
  </clipPath>
</defs>
<path clip-path="url(#clip940)" d="M0 1600 L2400 1600 L2400 0 L0 0  Z" fill="#ffffff" fill-rule="evenodd" fill-opacity="1"/>
<defs>
  <clipPath id="clip941">
    <rect x="480" y="0" width="1681" height="1600"/>
  </clipPath>
</defs>
<path clip-path="url(#clip940)" d="M156.274 1486.45 L2352.76 1486.45 L2352.76 47.2441 L156.274 47.2441  Z" fill="#ffffff" fill-rule="evenodd" fill-opacity="1"/>
<defs>
  <clipPath id="clip942">
    <rect x="156" y="47" width="2197" height="1440"/>
  </clipPath>
</defs>
<polyline clip-path="url(#clip942)" style="stroke:#000000; stroke-linecap:round; stroke-linejoin:round; stroke-width:2; stroke-opacity:0.1; fill:none" points="218.439,1486.45 218.439,47.2441 "/>
<polyline clip-path="url(#clip942)" style="stroke:#000000; stroke-linecap:round; stroke-linejoin:round; stroke-width:2; stroke-opacity:0.1; fill:none" points="736.477,1486.45 736.477,47.2441 "/>
<polyline clip-path="url(#clip942)" style="stroke:#000000; stroke-linecap:round; stroke-linejoin:round; stroke-width:2; stroke-opacity:0.1; fill:none" points="1254.52,1486.45 1254.52,47.2441 "/>
<polyline clip-path="url(#clip942)" style="stroke:#000000; stroke-linecap:round; stroke-linejoin:round; stroke-width:2; stroke-opacity:0.1; fill:none" points="1772.55,1486.45 1772.55,47.2441 "/>
<polyline clip-path="url(#clip942)" style="stroke:#000000; stroke-linecap:round; stroke-linejoin:round; stroke-width:2; stroke-opacity:0.1; fill:none" points="2290.59,1486.45 2290.59,47.2441 "/>
<polyline clip-path="url(#clip940)" style="stroke:#000000; stroke-linecap:round; stroke-linejoin:round; stroke-width:4; stroke-opacity:1; fill:none" points="156.274,1486.45 2352.76,1486.45 "/>
<polyline clip-path="url(#clip940)" style="stroke:#000000; stroke-linecap:round; stroke-linejoin:round; stroke-width:4; stroke-opacity:1; fill:none" points="218.439,1486.45 218.439,1467.55 "/>
<polyline clip-path="url(#clip940)" style="stroke:#000000; stroke-linecap:round; stroke-linejoin:round; stroke-width:4; stroke-opacity:1; fill:none" points="736.477,1486.45 736.477,1467.55 "/>
<polyline clip-path="url(#clip940)" style="stroke:#000000; stroke-linecap:round; stroke-linejoin:round; stroke-width:4; stroke-opacity:1; fill:none" points="1254.52,1486.45 1254.52,1467.55 "/>
<polyline clip-path="url(#clip940)" style="stroke:#000000; stroke-linecap:round; stroke-linejoin:round; stroke-width:4; stroke-opacity:1; fill:none" points="1772.55,1486.45 1772.55,1467.55 "/>
<polyline clip-path="url(#clip940)" style="stroke:#000000; stroke-linecap:round; stroke-linejoin:round; stroke-width:4; stroke-opacity:1; fill:none" points="2290.59,1486.45 2290.59,1467.55 "/>
<path clip-path="url(#clip940)" d="M164.967 1532.02 L194.643 1532.02 L194.643 1535.95 L164.967 1535.95 L164.967 1532.02 Z" fill="#000000" fill-rule="nonzero" fill-opacity="1" /><path clip-path="url(#clip940)" d="M205.545 1544.91 L213.184 1544.91 L213.184 1518.55 L204.874 1520.21 L204.874 1515.95 L213.138 1514.29 L217.814 1514.29 L217.814 1544.91 L225.453 1544.91 L225.453 1548.85 L205.545 1548.85 L205.545 1544.91 Z" fill="#000000" fill-rule="nonzero" fill-opacity="1" /><path clip-path="url(#clip940)" d="M234.897 1542.97 L239.781 1542.97 L239.781 1548.85 L234.897 1548.85 L234.897 1542.97 Z" fill="#000000" fill-rule="nonzero" fill-opacity="1" /><path clip-path="url(#clip940)" d="M259.966 1517.37 Q256.355 1517.37 254.527 1520.93 Q252.721 1524.47 252.721 1531.6 Q252.721 1538.71 254.527 1542.27 Q256.355 1545.82 259.966 1545.82 Q263.601 1545.82 265.406 1542.27 Q267.235 1538.71 267.235 1531.6 Q267.235 1524.47 265.406 1520.93 Q263.601 1517.37 259.966 1517.37 M259.966 1513.66 Q265.776 1513.66 268.832 1518.27 Q271.911 1522.85 271.911 1531.6 Q271.911 1540.33 268.832 1544.94 Q265.776 1549.52 259.966 1549.52 Q254.156 1549.52 251.077 1544.94 Q248.022 1540.33 248.022 1531.6 Q248.022 1522.85 251.077 1518.27 Q254.156 1513.66 259.966 1513.66 Z" fill="#000000" fill-rule="nonzero" fill-opacity="1" /><path clip-path="url(#clip940)" d="M683.503 1532.02 L713.178 1532.02 L713.178 1535.95 L683.503 1535.95 L683.503 1532.02 Z" fill="#000000" fill-rule="nonzero" fill-opacity="1" /><path clip-path="url(#clip940)" d="M733.271 1517.37 Q729.66 1517.37 727.831 1520.93 Q726.026 1524.47 726.026 1531.6 Q726.026 1538.71 727.831 1542.27 Q729.66 1545.82 733.271 1545.82 Q736.905 1545.82 738.711 1542.27 Q740.539 1538.71 740.539 1531.6 Q740.539 1524.47 738.711 1520.93 Q736.905 1517.37 733.271 1517.37 M733.271 1513.66 Q739.081 1513.66 742.137 1518.27 Q745.215 1522.85 745.215 1531.6 Q745.215 1540.33 742.137 1544.94 Q739.081 1549.52 733.271 1549.52 Q727.461 1549.52 724.382 1544.94 Q721.327 1540.33 721.327 1531.6 Q721.327 1522.85 724.382 1518.27 Q727.461 1513.66 733.271 1513.66 Z" fill="#000000" fill-rule="nonzero" fill-opacity="1" /><path clip-path="url(#clip940)" d="M753.433 1542.97 L758.317 1542.97 L758.317 1548.85 L753.433 1548.85 L753.433 1542.97 Z" fill="#000000" fill-rule="nonzero" fill-opacity="1" /><path clip-path="url(#clip940)" d="M768.548 1514.29 L786.905 1514.29 L786.905 1518.22 L772.831 1518.22 L772.831 1526.7 Q773.849 1526.35 774.868 1526.19 Q775.886 1526 776.905 1526 Q782.692 1526 786.072 1529.17 Q789.451 1532.34 789.451 1537.76 Q789.451 1543.34 785.979 1546.44 Q782.507 1549.52 776.187 1549.52 Q774.011 1549.52 771.743 1549.15 Q769.498 1548.78 767.09 1548.04 L767.09 1543.34 Q769.173 1544.47 771.396 1545.03 Q773.618 1545.58 776.095 1545.58 Q780.099 1545.58 782.437 1543.48 Q784.775 1541.37 784.775 1537.76 Q784.775 1534.15 782.437 1532.04 Q780.099 1529.94 776.095 1529.94 Q774.22 1529.94 772.345 1530.35 Q770.493 1530.77 768.548 1531.65 L768.548 1514.29 Z" fill="#000000" fill-rule="nonzero" fill-opacity="1" /><path clip-path="url(#clip940)" d="M1231.9 1517.37 Q1228.29 1517.37 1226.46 1520.93 Q1224.65 1524.47 1224.65 1531.6 Q1224.65 1538.71 1226.46 1542.27 Q1228.29 1545.82 1231.9 1545.82 Q1235.53 1545.82 1237.34 1542.27 Q1239.17 1538.71 1239.17 1531.6 Q1239.17 1524.47 1237.34 1520.93 Q1235.53 1517.37 1231.9 1517.37 M1231.9 1513.66 Q1237.71 1513.66 1240.77 1518.27 Q1243.84 1522.85 1243.84 1531.6 Q1243.84 1540.33 1240.77 1544.94 Q1237.71 1549.52 1231.9 1549.52 Q1226.09 1549.52 1223.01 1544.94 Q1219.96 1540.33 1219.96 1531.6 Q1219.96 1522.85 1223.01 1518.27 Q1226.09 1513.66 1231.9 1513.66 Z" fill="#000000" fill-rule="nonzero" fill-opacity="1" /><path clip-path="url(#clip940)" d="M1252.06 1542.97 L1256.95 1542.97 L1256.95 1548.85 L1252.06 1548.85 L1252.06 1542.97 Z" fill="#000000" fill-rule="nonzero" fill-opacity="1" /><path clip-path="url(#clip940)" d="M1277.13 1517.37 Q1273.52 1517.37 1271.69 1520.93 Q1269.89 1524.47 1269.89 1531.6 Q1269.89 1538.71 1271.69 1542.27 Q1273.52 1545.82 1277.13 1545.82 Q1280.76 1545.82 1282.57 1542.27 Q1284.4 1538.71 1284.4 1531.6 Q1284.4 1524.47 1282.57 1520.93 Q1280.76 1517.37 1277.13 1517.37 M1277.13 1513.66 Q1282.94 1513.66 1286 1518.27 Q1289.08 1522.85 1289.08 1531.6 Q1289.08 1540.33 1286 1544.94 Q1282.94 1549.52 1277.13 1549.52 Q1271.32 1549.52 1268.24 1544.94 Q1265.19 1540.33 1265.19 1531.6 Q1265.19 1522.85 1268.24 1518.27 Q1271.32 1513.66 1277.13 1513.66 Z" fill="#000000" fill-rule="nonzero" fill-opacity="1" /><path clip-path="url(#clip940)" d="M1750.44 1517.37 Q1746.82 1517.37 1745 1520.93 Q1743.19 1524.47 1743.19 1531.6 Q1743.19 1538.71 1745 1542.27 Q1746.82 1545.82 1750.44 1545.82 Q1754.07 1545.82 1755.88 1542.27 Q1757.7 1538.71 1757.7 1531.6 Q1757.7 1524.47 1755.88 1520.93 Q1754.07 1517.37 1750.44 1517.37 M1750.44 1513.66 Q1756.25 1513.66 1759.3 1518.27 Q1762.38 1522.85 1762.38 1531.6 Q1762.38 1540.33 1759.3 1544.94 Q1756.25 1549.52 1750.44 1549.52 Q1744.63 1549.52 1741.55 1544.94 Q1738.49 1540.33 1738.49 1531.6 Q1738.49 1522.85 1741.55 1518.27 Q1744.63 1513.66 1750.44 1513.66 Z" fill="#000000" fill-rule="nonzero" fill-opacity="1" /><path clip-path="url(#clip940)" d="M1770.6 1542.97 L1775.48 1542.97 L1775.48 1548.85 L1770.6 1548.85 L1770.6 1542.97 Z" fill="#000000" fill-rule="nonzero" fill-opacity="1" /><path clip-path="url(#clip940)" d="M1785.71 1514.29 L1804.07 1514.29 L1804.07 1518.22 L1790 1518.22 L1790 1526.7 Q1791.01 1526.35 1792.03 1526.19 Q1793.05 1526 1794.07 1526 Q1799.86 1526 1803.24 1529.17 Q1806.62 1532.34 1806.62 1537.76 Q1806.62 1543.34 1803.14 1546.44 Q1799.67 1549.52 1793.35 1549.52 Q1791.18 1549.52 1788.91 1549.15 Q1786.66 1548.78 1784.25 1548.04 L1784.25 1543.34 Q1786.34 1544.47 1788.56 1545.03 Q1790.78 1545.58 1793.26 1545.58 Q1797.26 1545.58 1799.6 1543.48 Q1801.94 1541.37 1801.94 1537.76 Q1801.94 1534.15 1799.6 1532.04 Q1797.26 1529.94 1793.26 1529.94 Q1791.38 1529.94 1789.51 1530.35 Q1787.66 1530.77 1785.71 1531.65 L1785.71 1514.29 Z" fill="#000000" fill-rule="nonzero" fill-opacity="1" /><path clip-path="url(#clip940)" d="M2257.74 1544.91 L2265.38 1544.91 L2265.38 1518.55 L2257.07 1520.21 L2257.07 1515.95 L2265.34 1514.29 L2270.01 1514.29 L2270.01 1544.91 L2277.65 1544.91 L2277.65 1548.85 L2257.74 1548.85 L2257.74 1544.91 Z" fill="#000000" fill-rule="nonzero" fill-opacity="1" /><path clip-path="url(#clip940)" d="M2287.1 1542.97 L2291.98 1542.97 L2291.98 1548.85 L2287.1 1548.85 L2287.1 1542.97 Z" fill="#000000" fill-rule="nonzero" fill-opacity="1" /><path clip-path="url(#clip940)" d="M2312.17 1517.37 Q2308.55 1517.37 2306.73 1520.93 Q2304.92 1524.47 2304.92 1531.6 Q2304.92 1538.71 2306.73 1542.27 Q2308.55 1545.82 2312.17 1545.82 Q2315.8 1545.82 2317.61 1542.27 Q2319.43 1538.71 2319.43 1531.6 Q2319.43 1524.47 2317.61 1520.93 Q2315.8 1517.37 2312.17 1517.37 M2312.17 1513.66 Q2317.98 1513.66 2321.03 1518.27 Q2324.11 1522.85 2324.11 1531.6 Q2324.11 1540.33 2321.03 1544.94 Q2317.98 1549.52 2312.17 1549.52 Q2306.36 1549.52 2303.28 1544.94 Q2300.22 1540.33 2300.22 1531.6 Q2300.22 1522.85 2303.28 1518.27 Q2306.36 1513.66 2312.17 1513.66 Z" fill="#000000" fill-rule="nonzero" fill-opacity="1" /><polyline clip-path="url(#clip942)" style="stroke:#000000; stroke-linecap:round; stroke-linejoin:round; stroke-width:2; stroke-opacity:0.1; fill:none" points="156.274,1261.93 2352.76,1261.93 "/>
<polyline clip-path="url(#clip942)" style="stroke:#000000; stroke-linecap:round; stroke-linejoin:round; stroke-width:2; stroke-opacity:0.1; fill:none" points="156.274,986.812 2352.76,986.812 "/>
<polyline clip-path="url(#clip942)" style="stroke:#000000; stroke-linecap:round; stroke-linejoin:round; stroke-width:2; stroke-opacity:0.1; fill:none" points="156.274,711.699 2352.76,711.699 "/>
<polyline clip-path="url(#clip942)" style="stroke:#000000; stroke-linecap:round; stroke-linejoin:round; stroke-width:2; stroke-opacity:0.1; fill:none" points="156.274,436.586 2352.76,436.586 "/>
<polyline clip-path="url(#clip942)" style="stroke:#000000; stroke-linecap:round; stroke-linejoin:round; stroke-width:2; stroke-opacity:0.1; fill:none" points="156.274,161.473 2352.76,161.473 "/>
<polyline clip-path="url(#clip940)" style="stroke:#000000; stroke-linecap:round; stroke-linejoin:round; stroke-width:4; stroke-opacity:1; fill:none" points="156.274,1486.45 156.274,47.2441 "/>
<polyline clip-path="url(#clip940)" style="stroke:#000000; stroke-linecap:round; stroke-linejoin:round; stroke-width:4; stroke-opacity:1; fill:none" points="156.274,1261.93 175.172,1261.93 "/>
<polyline clip-path="url(#clip940)" style="stroke:#000000; stroke-linecap:round; stroke-linejoin:round; stroke-width:4; stroke-opacity:1; fill:none" points="156.274,986.812 175.172,986.812 "/>
<polyline clip-path="url(#clip940)" style="stroke:#000000; stroke-linecap:round; stroke-linejoin:round; stroke-width:4; stroke-opacity:1; fill:none" points="156.274,711.699 175.172,711.699 "/>
<polyline clip-path="url(#clip940)" style="stroke:#000000; stroke-linecap:round; stroke-linejoin:round; stroke-width:4; stroke-opacity:1; fill:none" points="156.274,436.586 175.172,436.586 "/>
<polyline clip-path="url(#clip940)" style="stroke:#000000; stroke-linecap:round; stroke-linejoin:round; stroke-width:4; stroke-opacity:1; fill:none" points="156.274,161.473 175.172,161.473 "/>
<path clip-path="url(#clip940)" d="M63.0985 1247.72 Q59.4875 1247.72 57.6588 1251.29 Q55.8532 1254.83 55.8532 1261.96 Q55.8532 1269.07 57.6588 1272.63 Q59.4875 1276.17 63.0985 1276.17 Q66.7328 1276.17 68.5383 1272.63 Q70.367 1269.07 70.367 1261.96 Q70.367 1254.83 68.5383 1251.29 Q66.7328 1247.72 63.0985 1247.72 M63.0985 1244.02 Q68.9087 1244.02 71.9642 1248.63 Q75.0429 1253.21 75.0429 1261.96 Q75.0429 1270.69 71.9642 1275.29 Q68.9087 1279.88 63.0985 1279.88 Q57.2884 1279.88 54.2097 1275.29 Q51.1542 1270.69 51.1542 1261.96 Q51.1542 1253.21 54.2097 1248.63 Q57.2884 1244.02 63.0985 1244.02 Z" fill="#000000" fill-rule="nonzero" fill-opacity="1" /><path clip-path="url(#clip940)" d="M83.2605 1273.33 L88.1447 1273.33 L88.1447 1279.21 L83.2605 1279.21 L83.2605 1273.33 Z" fill="#000000" fill-rule="nonzero" fill-opacity="1" /><path clip-path="url(#clip940)" d="M108.33 1247.72 Q104.719 1247.72 102.89 1251.29 Q101.084 1254.83 101.084 1261.96 Q101.084 1269.07 102.89 1272.63 Q104.719 1276.17 108.33 1276.17 Q111.964 1276.17 113.77 1272.63 Q115.598 1269.07 115.598 1261.96 Q115.598 1254.83 113.77 1251.29 Q111.964 1247.72 108.33 1247.72 M108.33 1244.02 Q114.14 1244.02 117.195 1248.63 Q120.274 1253.21 120.274 1261.96 Q120.274 1270.69 117.195 1275.29 Q114.14 1279.88 108.33 1279.88 Q102.52 1279.88 99.4409 1275.29 Q96.3854 1270.69 96.3854 1261.96 Q96.3854 1253.21 99.4409 1248.63 Q102.52 1244.02 108.33 1244.02 Z" fill="#000000" fill-rule="nonzero" fill-opacity="1" /><path clip-path="url(#clip940)" d="M63.7467 972.611 Q60.1356 972.611 58.3069 976.176 Q56.5014 979.717 56.5014 986.847 Q56.5014 993.953 58.3069 997.518 Q60.1356 1001.06 63.7467 1001.06 Q67.3809 1001.06 69.1865 997.518 Q71.0152 993.953 71.0152 986.847 Q71.0152 979.717 69.1865 976.176 Q67.3809 972.611 63.7467 972.611 M63.7467 968.907 Q69.5568 968.907 72.6124 973.514 Q75.6911 978.097 75.6911 986.847 Q75.6911 995.574 72.6124 1000.18 Q69.5568 1004.76 63.7467 1004.76 Q57.9365 1004.76 54.8578 1000.18 Q51.8023 995.574 51.8023 986.847 Q51.8023 978.097 54.8578 973.514 Q57.9365 968.907 63.7467 968.907 Z" fill="#000000" fill-rule="nonzero" fill-opacity="1" /><path clip-path="url(#clip940)" d="M83.9086 998.212 L88.7928 998.212 L88.7928 1004.09 L83.9086 1004.09 L83.9086 998.212 Z" fill="#000000" fill-rule="nonzero" fill-opacity="1" /><path clip-path="url(#clip940)" d="M113.145 985.458 Q116.501 986.176 118.376 988.444 Q120.274 990.713 120.274 994.046 Q120.274 999.162 116.756 1001.96 Q113.237 1004.76 106.756 1004.76 Q104.58 1004.76 102.265 1004.32 Q99.9733 1003.91 97.5197 1003.05 L97.5197 998.537 Q99.4641 999.671 101.779 1000.25 Q104.094 1000.83 106.617 1000.83 Q111.015 1000.83 113.307 999.092 Q115.621 997.356 115.621 994.046 Q115.621 990.99 113.469 989.277 Q111.339 987.541 107.52 987.541 L103.492 987.541 L103.492 983.699 L107.705 983.699 Q111.154 983.699 112.983 982.333 Q114.811 980.944 114.811 978.351 Q114.811 975.689 112.913 974.277 Q111.038 972.842 107.52 972.842 Q105.598 972.842 103.399 973.259 Q101.2 973.676 98.5613 974.555 L98.5613 970.389 Q101.223 969.648 103.538 969.277 Q105.876 968.907 107.936 968.907 Q113.26 968.907 116.362 971.338 Q119.464 973.745 119.464 977.865 Q119.464 980.736 117.82 982.726 Q116.177 984.694 113.145 985.458 Z" fill="#000000" fill-rule="nonzero" fill-opacity="1" /><path clip-path="url(#clip940)" d="M62.9365 697.498 Q59.3254 697.498 57.4967 701.063 Q55.6912 704.604 55.6912 711.734 Q55.6912 718.84 57.4967 722.405 Q59.3254 725.947 62.9365 725.947 Q66.5707 725.947 68.3763 722.405 Q70.205 718.84 70.205 711.734 Q70.205 704.604 68.3763 701.063 Q66.5707 697.498 62.9365 697.498 M62.9365 693.794 Q68.7467 693.794 71.8022 698.401 Q74.8809 702.984 74.8809 711.734 Q74.8809 720.461 71.8022 725.067 Q68.7467 729.65 62.9365 729.65 Q57.1264 729.65 54.0477 725.067 Q50.9921 720.461 50.9921 711.734 Q50.9921 702.984 54.0477 698.401 Q57.1264 693.794 62.9365 693.794 Z" fill="#000000" fill-rule="nonzero" fill-opacity="1" /><path clip-path="url(#clip940)" d="M83.0984 723.1 L87.9827 723.1 L87.9827 728.979 L83.0984 728.979 L83.0984 723.1 Z" fill="#000000" fill-rule="nonzero" fill-opacity="1" /><path clip-path="url(#clip940)" d="M108.746 709.836 Q105.598 709.836 103.746 711.988 Q101.918 714.141 101.918 717.891 Q101.918 721.618 103.746 723.794 Q105.598 725.947 108.746 725.947 Q111.895 725.947 113.723 723.794 Q115.575 721.618 115.575 717.891 Q115.575 714.141 113.723 711.988 Q111.895 709.836 108.746 709.836 M118.029 695.183 L118.029 699.442 Q116.27 698.609 114.464 698.169 Q112.682 697.729 110.922 697.729 Q106.293 697.729 103.839 700.854 Q101.409 703.979 101.061 710.299 Q102.427 708.285 104.487 707.22 Q106.547 706.132 109.024 706.132 Q114.233 706.132 117.242 709.303 Q120.274 712.451 120.274 717.891 Q120.274 723.215 117.126 726.433 Q113.978 729.65 108.746 729.65 Q102.751 729.65 99.5798 725.067 Q96.4085 720.461 96.4085 711.734 Q96.4085 703.539 100.297 698.678 Q104.186 693.794 110.737 693.794 Q112.496 693.794 114.279 694.141 Q116.084 694.489 118.029 695.183 Z" fill="#000000" fill-rule="nonzero" fill-opacity="1" /><path clip-path="url(#clip940)" d="M63.2837 422.385 Q59.6726 422.385 57.8439 425.95 Q56.0384 429.491 56.0384 436.621 Q56.0384 443.727 57.8439 447.292 Q59.6726 450.834 63.2837 450.834 Q66.918 450.834 68.7235 447.292 Q70.5522 443.727 70.5522 436.621 Q70.5522 429.491 68.7235 425.95 Q66.918 422.385 63.2837 422.385 M63.2837 418.681 Q69.0939 418.681 72.1494 423.288 Q75.2281 427.871 75.2281 436.621 Q75.2281 445.348 72.1494 449.954 Q69.0939 454.537 63.2837 454.537 Q57.4736 454.537 54.3949 449.954 Q51.3393 445.348 51.3393 436.621 Q51.3393 427.871 54.3949 423.288 Q57.4736 418.681 63.2837 418.681 Z" fill="#000000" fill-rule="nonzero" fill-opacity="1" /><path clip-path="url(#clip940)" d="M83.4457 447.987 L88.3299 447.987 L88.3299 453.866 L83.4457 453.866 L83.4457 447.987 Z" fill="#000000" fill-rule="nonzero" fill-opacity="1" /><path clip-path="url(#clip940)" d="M98.6539 453.149 L98.6539 448.889 Q100.413 449.723 102.219 450.162 Q104.024 450.602 105.76 450.602 Q110.39 450.602 112.82 447.5 Q115.274 444.375 115.621 438.033 Q114.279 440.024 112.219 441.088 Q110.158 442.153 107.658 442.153 Q102.473 442.153 99.4409 439.028 Q96.4317 435.88 96.4317 430.44 Q96.4317 425.116 99.5798 421.899 Q102.728 418.681 107.959 418.681 Q113.955 418.681 117.103 423.288 Q120.274 427.871 120.274 436.621 Q120.274 444.792 116.385 449.676 Q112.52 454.537 105.969 454.537 Q104.209 454.537 102.404 454.19 Q100.598 453.843 98.6539 453.149 M107.959 438.496 Q111.108 438.496 112.936 436.343 Q114.788 434.19 114.788 430.44 Q114.788 426.714 112.936 424.561 Q111.108 422.385 107.959 422.385 Q104.811 422.385 102.959 424.561 Q101.131 426.714 101.131 430.44 Q101.131 434.19 102.959 436.343 Q104.811 438.496 107.959 438.496 Z" fill="#000000" fill-rule="nonzero" fill-opacity="1" /><path clip-path="url(#clip940)" d="M55.506 174.818 L63.1448 174.818 L63.1448 148.452 L54.8347 150.119 L54.8347 145.86 L63.0985 144.193 L67.7744 144.193 L67.7744 174.818 L75.4133 174.818 L75.4133 178.753 L55.506 178.753 L55.506 174.818 Z" fill="#000000" fill-rule="nonzero" fill-opacity="1" /><path clip-path="url(#clip940)" d="M84.8577 172.874 L89.7419 172.874 L89.7419 178.753 L84.8577 178.753 L84.8577 172.874 Z" fill="#000000" fill-rule="nonzero" fill-opacity="1" /><path clip-path="url(#clip940)" d="M103.955 174.818 L120.274 174.818 L120.274 178.753 L98.3298 178.753 L98.3298 174.818 Q100.992 172.063 105.575 167.434 Q110.182 162.781 111.362 161.438 Q113.608 158.915 114.487 157.179 Q115.39 155.42 115.39 153.73 Q115.39 150.976 113.445 149.239 Q111.524 147.503 108.422 147.503 Q106.223 147.503 103.77 148.267 Q101.339 149.031 98.5613 150.582 L98.5613 145.86 Q101.385 144.726 103.839 144.147 Q106.293 143.568 108.33 143.568 Q113.7 143.568 116.895 146.253 Q120.089 148.939 120.089 153.429 Q120.089 155.559 119.279 157.48 Q118.492 159.378 116.385 161.971 Q115.807 162.642 112.705 165.86 Q109.603 169.054 103.955 174.818 Z" fill="#000000" fill-rule="nonzero" fill-opacity="1" /><polyline clip-path="url(#clip942)" style="stroke:#009af9; stroke-linecap:round; stroke-linejoin:round; stroke-width:16; stroke-opacity:1; fill:none" stroke-dasharray="8, 16" points="218.439,1124.3 228.852,1101.44 239.264,1086.6 249.677,1079.11 260.09,1078.15 270.503,1082.83 280.916,1092.4 291.329,1106.5 301.741,1125.19 312.154,1148.6 322.567,1176.38 332.98,1207.31 343.393,1239.64 353.805,1271.9 364.218,1303.55 374.631,1334.73 385.044,1365.32 395.457,1393.85 405.87,1417.49 416.282,1433.45 426.695,1440.98 437.108,1441.89 447.521,1438.92 457.934,1433.26 468.347,1423.87 478.759,1408.83 489.172,1387.2 499.585,1359.7 509.998,1328.16 520.411,1294.66 530.824,1261.04 541.236,1228.64 551.649,1198.2 562.062,1169.99 572.475,1144.02 582.888,1120.55 593.301,1100.4 603.713,1085.02 614.126,1076.17 624.539,1075.2 634.952,1082.4 645.365,1096.62 655.777,1115.54 666.19,1136.66 676.603,1158.58 687.016,1181.84 697.429,1208.46 707.842,1240.37 718.254,1277.43 728.667,1316.69 739.08,1353.37 749.493,1382.97 759.906,1403.34 770.319,1415.5 780.731,1422.88 791.144,1429.49 801.557,1437.34 811.97,1444.58 822.383,1445.72 832.796,1434.82 843.208,1410.16 853.621,1376.33 864.034,1341.1 874.447,1309.71 884.86,1282.13 895.273,1255.16 905.685,1226.1 916.098,1194.72 926.511,1162.95 936.924,1133.58 947.337,1109.24 957.749,1091.66 968.162,1081.54 978.575,1078.59 988.988,1081.94 999.401,1090.46 1009.81,1103.17 1020.23,1119.43 1030.64,1139 1041.05,1161.96 1051.46,1188.42 1061.88,1218.36 1072.29,1251.37 1082.7,1286.47 1093.12,1322.1 1103.53,1356.21 1113.94,1386.51 1124.35,1410.85 1134.77,1427.71 1145.18,1436.5 1155.59,1437.83 1166.01,1433.68 1176.42,1427.61 1186.83,1424.62 1197.24,1429.36 1207.66,1440.39 1218.07,1440.02 1228.48,1386.62 1238.9,1228.99 1249.31,957.291 1259.72,646.86 1270.13,412.711 1280.55,309.395 1290.96,304.678 1301.37,335.435 1311.79,358.731 1322.2,362.013 1332.61,350.734 1343.02,334.977 1353.44,322.586 1363.85,317.576 1374.26,320.735 1384.68,330.627 1395.09,344.448 1405.5,358.762 1415.91,370.189 1426.33,376.021 1436.74,374.688 1447.15,366.047 1457.57,351.465 1467.98,333.691 1478.39,316.503 1488.8,304.136 1499.22,300.443 1509.63,307.903 1520.04,326.597 1530.45,353.513 1540.87,382.566 1551.28,405.631 1561.69,414.587 1572.11,403.917 1582.52,373.161 1592.93,328.394 1603.34,281.948 1613.76,249.665 1624.17,245.478 1634.58,274.804 1645,330.266 1655.41,393.423 1665.82,442.535 1676.23,461.677 1686.65,445.848 1697.06,400.655 1707.47,338.994 1717.89,277.37 1728.3,232.485 1738.71,217.555 1749.12,238.547 1759.54,291.673 1769.95,363.545 1780.36,434.249 1790.78,482.643 1801.19,492.514 1811.6,458.011 1822.01,386.674 1832.43,298.599 1842.84,221.052 1853.25,179.518 1863.67,188.368 1874.08,245.294 1884.49,332.229 1894.9,422.199 1905.32,488.661 1915.73,513.493 1926.14,491.29 1936.56,429.543 1946.97,345.492 1957.38,261.081 1967.79,197.539 1978.21,170.841 1988.62,188.66 1999.03,248.839 2009.45,339.188 2019.86,438.773 2030.27,521.182 2040.68,560.195 2051.1,537.631 2061.51,451.654 2071.92,322.118 2082.33,188.615 2092.75,98.6042 2103.16,87.9763 2113.57,163.327 2123.99,297.723 2134.4,443.69 2144.81,554.11 2155.22,598.07 2165.64,566.795 2176.05,472.739 2186.46,345.246 2196.88,222.679 2207.29,140.58 2217.7,119.499 2228.11,158.958 2238.53,240.991 2248.94,340.212 2259.35,433.867 2269.77,507.222 2280.18,553.842 2290.59,573.1 "/>
<polyline clip-path="url(#clip942)" style="stroke:#e26f46; stroke-linecap:round; stroke-linejoin:round; stroke-width:4; stroke-opacity:1; fill:none" points="218.439,1124.19 228.852,1104.65 239.264,1090.24 249.677,1081.43 260.09,1078.52 270.503,1081.59 280.916,1090.55 291.329,1105.1 301.741,1124.77 312.154,1148.91 322.567,1176.74 332.98,1207.36 343.393,1239.75 353.805,1272.87 364.218,1305.63 374.631,1336.97 385.044,1365.85 395.457,1391.35 405.87,1412.62 416.282,1428.97 426.695,1439.87 437.108,1444.96 447.521,1444.08 457.934,1437.25 468.347,1424.7 478.759,1406.84 489.172,1384.25 499.585,1357.67 509.998,1327.96 520.411,1296.09 530.824,1263.12 541.236,1230.1 551.649,1198.12 562.062,1168.22 572.475,1141.39 582.888,1118.48 593.301,1100.26 603.713,1087.31 614.126,1080.07 624.539,1078.75 634.952,1083.42 645.365,1093.91 655.777,1109.89 666.19,1130.83 676.603,1156.04 687.016,1184.71 697.429,1215.91 707.842,1248.6 718.254,1281.73 728.667,1314.21 739.08,1344.99 749.493,1373.05 759.906,1397.49 770.319,1417.51 780.731,1432.44 791.144,1441.81 801.557,1445.31 811.97,1442.83 822.383,1434.44 832.796,1420.42 843.208,1401.22 853.621,1377.48 864.034,1349.97 874.447,1319.59 884.86,1287.32 895.273,1254.23 905.685,1221.38 916.098,1189.86 926.511,1160.69 936.924,1134.83 947.337,1113.11 957.749,1096.25 968.162,1084.8 978.575,1079.13 988.988,1079.42 999.401,1085.67 1009.81,1097.67 1020.23,1115.04 1030.64,1137.19 1041.05,1163.42 1051.46,1192.87 1061.88,1224.56 1072.29,1257.48 1082.7,1290.54 1093.12,1322.67 1103.53,1352.81 1113.94,1379.99 1124.35,1403.32 1134.77,1422.03 1145.18,1435.51 1155.59,1443.33 1166.01,1445.23 1176.42,1441.15 1186.83,1431.22 1197.24,1415.76 1207.66,1395.28 1218.07,1370.45 1228.48,1342.07 1238.9,1311.09 1249.31,1278.49 1259.72,343.55 1270.13,342.034 1280.55,343.414 1290.96,348.006 1301.37,354.403 1311.79,359.903 1322.2,361.531 1332.61,357.3 1343.02,347.212 1353.44,333.613 1363.85,320.673 1374.26,313.113 1384.68,314.563 1395.09,326.097 1405.5,345.498 1415.91,367.577 1426.33,385.557 1436.74,393.141 1447.15,386.649 1457.57,366.505 1467.98,337.531 1478.39,307.838 1488.8,286.556 1499.22,281.043 1509.63,294.408 1520.04,324.183 1530.45,362.636 1540.87,398.758 1551.28,421.413 1561.69,422.754 1572.11,400.868 1582.52,360.756 1592.93,313.274 1603.34,272.202 1613.76,250.246 1624.17,255.128 1634.58,286.959 1645,337.775 1655.41,393.483 1665.82,437.764 1676.23,456.855 1686.65,443.8 1697.06,400.87 1707.47,339.339 1717.89,276.549 1728.3,231.02 1738.71,216.999 1749.12,240.023 1759.54,294.901 1769.95,366.793 1780.36,435.207 1790.78,479.842 1801.19,486.602 1811.6,452.017 1822.01,384.675 1832.43,303.142 1842.84,230.856 1853.25,189.386 1863.67,192.008 1874.08,239.496 1884.49,319.462 1894.9,409.556 1905.32,483.706 1915.73,519.661 1926.14,505.66 1936.56,444.219 1946.97,351.842 1957.38,254.612 1967.79,180.822 1978.21,152.754 1988.62,179.955 1999.03,256.074 2009.45,360.267 2019.86,462.886 2030.27,533.918 2040.68,551.76 2051.1,509.767 2061.51,418.6 2071.92,303.567 2082.33,197.603 2092.75,131.844 2103.16,126.48 2113.57,184.583 2123.99,290.785 2134.4,415.31 2144.81,522.318 2155.22,580.222 2165.64,571.003 2176.05,495.786 2186.46,374.954 2196.88,242.645 2207.29,137.11 2217.7,89.655 2228.11,115.363 2238.53,208.344 2248.94,342.999 2259.35,481.049 2269.77,582.426 2280.18,616.887 2290.59,573.036 "/>
<path clip-path="url(#clip940)" d="M229.49 250.738 L675.966 250.738 L675.966 95.2176 L229.49 95.2176  Z" fill="#ffffff" fill-rule="evenodd" fill-opacity="1"/>
<polyline clip-path="url(#clip940)" style="stroke:#000000; stroke-linecap:round; stroke-linejoin:round; stroke-width:4; stroke-opacity:1; fill:none" points="229.49,250.738 675.966,250.738 675.966,95.2176 229.49,95.2176 229.49,250.738 "/>
<polyline clip-path="url(#clip940)" style="stroke:#009af9; stroke-linecap:round; stroke-linejoin:round; stroke-width:16; stroke-opacity:1; fill:none" stroke-dasharray="8, 16" points="253.896,147.058 400.328,147.058 "/>
<path clip-path="url(#clip940)" d="M429.409 133.62 L429.409 146.606 L435.289 146.606 Q438.552 146.606 440.335 144.916 Q442.117 143.227 442.117 140.102 Q442.117 137 440.335 135.31 Q438.552 133.62 435.289 133.62 L429.409 133.62 M424.733 129.778 L435.289 129.778 Q441.099 129.778 444.062 132.416 Q447.048 135.032 447.048 140.102 Q447.048 145.217 444.062 147.833 Q441.099 150.449 435.289 150.449 L429.409 150.449 L429.409 164.338 L424.733 164.338 L424.733 129.778 Z" fill="#000000" fill-rule="nonzero" fill-opacity="1" /><path clip-path="url(#clip940)" d="M467.325 142.393 Q466.608 141.977 465.751 141.791 Q464.918 141.583 463.899 141.583 Q460.288 141.583 458.344 143.944 Q456.423 146.282 456.423 150.68 L456.423 164.338 L452.14 164.338 L452.14 138.412 L456.423 138.412 L456.423 142.44 Q457.765 140.078 459.918 138.944 Q462.071 137.787 465.149 137.787 Q465.589 137.787 466.122 137.856 Q466.654 137.903 467.302 138.018 L467.325 142.393 Z" fill="#000000" fill-rule="nonzero" fill-opacity="1" /><path clip-path="url(#clip940)" d="M492.927 150.31 L492.927 152.393 L473.344 152.393 Q473.622 156.791 475.983 159.106 Q478.367 161.398 482.603 161.398 Q485.057 161.398 487.348 160.796 Q489.663 160.194 491.932 158.99 L491.932 163.018 Q489.64 163.99 487.233 164.5 Q484.825 165.009 482.348 165.009 Q476.145 165.009 472.511 161.398 Q468.899 157.787 468.899 151.629 Q468.899 145.264 472.325 141.537 Q475.774 137.787 481.608 137.787 Q486.839 137.787 489.872 141.166 Q492.927 144.523 492.927 150.31 M488.668 149.06 Q488.622 145.565 486.7 143.481 Q484.802 141.398 481.654 141.398 Q478.089 141.398 475.936 143.412 Q473.807 145.426 473.483 149.083 L488.668 149.06 Z" fill="#000000" fill-rule="nonzero" fill-opacity="1" /><path clip-path="url(#clip940)" d="M516.978 142.347 L516.978 128.319 L521.237 128.319 L521.237 164.338 L516.978 164.338 L516.978 160.449 Q515.635 162.763 513.575 163.898 Q511.538 165.009 508.668 165.009 Q503.969 165.009 501.006 161.259 Q498.066 157.509 498.066 151.398 Q498.066 145.287 501.006 141.537 Q503.969 137.787 508.668 137.787 Q511.538 137.787 513.575 138.921 Q515.635 140.032 516.978 142.347 M502.464 151.398 Q502.464 156.097 504.385 158.782 Q506.33 161.444 509.709 161.444 Q513.089 161.444 515.033 158.782 Q516.978 156.097 516.978 151.398 Q516.978 146.699 515.033 144.037 Q513.089 141.352 509.709 141.352 Q506.33 141.352 504.385 144.037 Q502.464 146.699 502.464 151.398 Z" fill="#000000" fill-rule="nonzero" fill-opacity="1" /><path clip-path="url(#clip940)" d="M530.01 138.412 L534.269 138.412 L534.269 164.338 L530.01 164.338 L530.01 138.412 M530.01 128.319 L534.269 128.319 L534.269 133.713 L530.01 133.713 L530.01 128.319 Z" fill="#000000" fill-rule="nonzero" fill-opacity="1" /><path clip-path="url(#clip940)" d="M561.839 139.407 L561.839 143.389 Q560.033 142.393 558.205 141.907 Q556.399 141.398 554.547 141.398 Q550.404 141.398 548.112 144.037 Q545.82 146.652 545.82 151.398 Q545.82 156.143 548.112 158.782 Q550.404 161.398 554.547 161.398 Q556.399 161.398 558.205 160.912 Q560.033 160.402 561.839 159.407 L561.839 163.342 Q560.056 164.176 558.135 164.592 Q556.237 165.009 554.084 165.009 Q548.228 165.009 544.779 161.328 Q541.33 157.648 541.33 151.398 Q541.33 145.055 544.802 141.421 Q548.297 137.787 554.362 137.787 Q556.33 137.787 558.205 138.203 Q560.08 138.597 561.839 139.407 Z" fill="#000000" fill-rule="nonzero" fill-opacity="1" /><path clip-path="url(#clip940)" d="M573.459 131.051 L573.459 138.412 L582.232 138.412 L582.232 141.722 L573.459 141.722 L573.459 155.796 Q573.459 158.967 574.316 159.87 Q575.195 160.773 577.857 160.773 L582.232 160.773 L582.232 164.338 L577.857 164.338 Q572.927 164.338 571.052 162.509 Q569.177 160.657 569.177 155.796 L569.177 141.722 L566.052 141.722 L566.052 138.412 L569.177 138.412 L569.177 131.051 L573.459 131.051 Z" fill="#000000" fill-rule="nonzero" fill-opacity="1" /><path clip-path="url(#clip940)" d="M587.834 138.412 L592.093 138.412 L592.093 164.338 L587.834 164.338 L587.834 138.412 M587.834 128.319 L592.093 128.319 L592.093 133.713 L587.834 133.713 L587.834 128.319 Z" fill="#000000" fill-rule="nonzero" fill-opacity="1" /><path clip-path="url(#clip940)" d="M611.051 141.398 Q607.626 141.398 605.635 144.083 Q603.644 146.745 603.644 151.398 Q603.644 156.051 605.612 158.736 Q607.602 161.398 611.051 161.398 Q614.454 161.398 616.445 158.713 Q618.436 156.027 618.436 151.398 Q618.436 146.791 616.445 144.106 Q614.454 141.398 611.051 141.398 M611.051 137.787 Q616.607 137.787 619.778 141.398 Q622.95 145.009 622.95 151.398 Q622.95 157.764 619.778 161.398 Q616.607 165.009 611.051 165.009 Q605.473 165.009 602.302 161.398 Q599.153 157.764 599.153 151.398 Q599.153 145.009 602.302 141.398 Q605.473 137.787 611.051 137.787 Z" fill="#000000" fill-rule="nonzero" fill-opacity="1" /><path clip-path="url(#clip940)" d="M651.561 148.689 L651.561 164.338 L647.301 164.338 L647.301 148.828 Q647.301 145.148 645.866 143.319 Q644.431 141.49 641.561 141.49 Q638.112 141.49 636.121 143.69 Q634.13 145.889 634.13 149.685 L634.13 164.338 L629.848 164.338 L629.848 138.412 L634.13 138.412 L634.13 142.44 Q635.658 140.102 637.718 138.944 Q639.801 137.787 642.51 137.787 Q646.977 137.787 649.269 140.565 Q651.561 143.319 651.561 148.689 Z" fill="#000000" fill-rule="nonzero" fill-opacity="1" /><polyline clip-path="url(#clip940)" style="stroke:#e26f46; stroke-linecap:round; stroke-linejoin:round; stroke-width:4; stroke-opacity:1; fill:none" points="253.896,198.898 400.328,198.898 "/>
<path clip-path="url(#clip940)" d="M424.733 181.618 L446.585 181.618 L446.585 185.553 L429.409 185.553 L429.409 195.784 L445.867 195.784 L445.867 199.719 L429.409 199.719 L429.409 212.242 L447.001 212.242 L447.001 216.178 L424.733 216.178 L424.733 181.618 Z" fill="#000000" fill-rule="nonzero" fill-opacity="1" /><path clip-path="url(#clip940)" d="M476.052 190.252 L466.677 202.867 L476.538 216.178 L471.515 216.178 L463.969 205.992 L456.423 216.178 L451.4 216.178 L461.469 202.613 L452.256 190.252 L457.279 190.252 L464.154 199.488 L471.029 190.252 L476.052 190.252 Z" fill="#000000" fill-rule="nonzero" fill-opacity="1" /><path clip-path="url(#clip940)" d="M494.339 203.145 Q489.177 203.145 487.186 204.326 Q485.196 205.506 485.196 208.354 Q485.196 210.622 486.677 211.965 Q488.182 213.284 490.751 213.284 Q494.293 213.284 496.422 210.784 Q498.575 208.261 498.575 204.094 L498.575 203.145 L494.339 203.145 M502.834 201.386 L502.834 216.178 L498.575 216.178 L498.575 212.242 Q497.117 214.603 494.941 215.738 Q492.765 216.849 489.617 216.849 Q485.635 216.849 483.274 214.627 Q480.936 212.381 480.936 208.631 Q480.936 204.256 483.853 202.034 Q486.793 199.812 492.603 199.812 L498.575 199.812 L498.575 199.395 Q498.575 196.455 496.631 194.858 Q494.71 193.238 491.214 193.238 Q488.992 193.238 486.885 193.77 Q484.779 194.303 482.835 195.367 L482.835 191.432 Q485.173 190.53 487.372 190.09 Q489.571 189.627 491.654 189.627 Q497.279 189.627 500.057 192.543 Q502.834 195.46 502.834 201.386 Z" fill="#000000" fill-rule="nonzero" fill-opacity="1" /><path clip-path="url(#clip940)" d="M530.265 191.247 L530.265 195.229 Q528.459 194.233 526.631 193.747 Q524.825 193.238 522.973 193.238 Q518.83 193.238 516.538 195.877 Q514.246 198.492 514.246 203.238 Q514.246 207.983 516.538 210.622 Q518.83 213.238 522.973 213.238 Q524.825 213.238 526.631 212.752 Q528.459 212.242 530.265 211.247 L530.265 215.182 Q528.482 216.016 526.561 216.432 Q524.663 216.849 522.51 216.849 Q516.654 216.849 513.205 213.168 Q509.756 209.488 509.756 203.238 Q509.756 196.895 513.228 193.261 Q516.723 189.627 522.788 189.627 Q524.756 189.627 526.631 190.043 Q528.506 190.437 530.265 191.247 Z" fill="#000000" fill-rule="nonzero" fill-opacity="1" /><path clip-path="url(#clip940)" d="M541.885 182.891 L541.885 190.252 L550.658 190.252 L550.658 193.562 L541.885 193.562 L541.885 207.636 Q541.885 210.807 542.742 211.71 Q543.621 212.613 546.283 212.613 L550.658 212.613 L550.658 216.178 L546.283 216.178 Q541.353 216.178 539.478 214.349 Q537.603 212.497 537.603 207.636 L537.603 193.562 L534.478 193.562 L534.478 190.252 L537.603 190.252 L537.603 182.891 L541.885 182.891 Z" fill="#000000" fill-rule="nonzero" fill-opacity="1" /></svg>
