<?xml version="1.0" encoding="utf-8"?>
<svg xmlns="http://www.w3.org/2000/svg" xmlns:xlink="http://www.w3.org/1999/xlink" width="600" height="400" viewBox="0 0 2400 1600">
<defs>
  <clipPath id="clip720">
    <rect x="0" y="0" width="2400" height="1600"/>
  </clipPath>
</defs>
<path clip-path="url(#clip720)" d="M0 1600 L2400 1600 L2400 0 L0 0  Z" fill="#ffffff" fill-rule="evenodd" fill-opacity="1"/>
<defs>
  <clipPath id="clip721">
    <rect x="480" y="0" width="1681" height="1600"/>
  </clipPath>
</defs>
<path clip-path="url(#clip720)" d="M223.103 1486.45 L2352.76 1486.45 L2352.76 47.2441 L223.103 47.2441  Z" fill="#ffffff" fill-rule="evenodd" fill-opacity="1"/>
<defs>
  <clipPath id="clip722">
    <rect x="223" y="47" width="2131" height="1440"/>
  </clipPath>
</defs>
<polyline clip-path="url(#clip722)" style="stroke:#000000; stroke-linecap:round; stroke-linejoin:round; stroke-width:2; stroke-opacity:0.1; fill:none" points="283.376,1486.45 283.376,47.2441 "/>
<polyline clip-path="url(#clip722)" style="stroke:#000000; stroke-linecap:round; stroke-linejoin:round; stroke-width:2; stroke-opacity:0.1; fill:none" points="785.652,1486.45 785.652,47.2441 "/>
<polyline clip-path="url(#clip722)" style="stroke:#000000; stroke-linecap:round; stroke-linejoin:round; stroke-width:2; stroke-opacity:0.1; fill:none" points="1287.93,1486.45 1287.93,47.2441 "/>
<polyline clip-path="url(#clip722)" style="stroke:#000000; stroke-linecap:round; stroke-linejoin:round; stroke-width:2; stroke-opacity:0.1; fill:none" points="1790.21,1486.45 1790.21,47.2441 "/>
<polyline clip-path="url(#clip722)" style="stroke:#000000; stroke-linecap:round; stroke-linejoin:round; stroke-width:2; stroke-opacity:0.1; fill:none" points="2292.48,1486.45 2292.48,47.2441 "/>
<polyline clip-path="url(#clip720)" style="stroke:#000000; stroke-linecap:round; stroke-linejoin:round; stroke-width:4; stroke-opacity:1; fill:none" points="223.103,1486.45 2352.76,1486.45 "/>
<polyline clip-path="url(#clip720)" style="stroke:#000000; stroke-linecap:round; stroke-linejoin:round; stroke-width:4; stroke-opacity:1; fill:none" points="283.376,1486.45 283.376,1467.55 "/>
<polyline clip-path="url(#clip720)" style="stroke:#000000; stroke-linecap:round; stroke-linejoin:round; stroke-width:4; stroke-opacity:1; fill:none" points="785.652,1486.45 785.652,1467.55 "/>
<polyline clip-path="url(#clip720)" style="stroke:#000000; stroke-linecap:round; stroke-linejoin:round; stroke-width:4; stroke-opacity:1; fill:none" points="1287.93,1486.45 1287.93,1467.55 "/>
<polyline clip-path="url(#clip720)" style="stroke:#000000; stroke-linecap:round; stroke-linejoin:round; stroke-width:4; stroke-opacity:1; fill:none" points="1790.21,1486.45 1790.21,1467.55 "/>
<polyline clip-path="url(#clip720)" style="stroke:#000000; stroke-linecap:round; stroke-linejoin:round; stroke-width:4; stroke-opacity:1; fill:none" points="2292.48,1486.45 2292.48,1467.55 "/>
<path clip-path="url(#clip720)" d="M229.904 1532.02 L259.58 1532.02 L259.58 1535.95 L229.904 1535.95 L229.904 1532.02 Z" fill="#000000" fill-rule="nonzero" fill-opacity="1" /><path clip-path="url(#clip720)" d="M270.482 1544.91 L278.121 1544.91 L278.121 1518.55 L269.811 1520.21 L269.811 1515.95 L278.075 1514.29 L282.751 1514.29 L282.751 1544.91 L290.39 1544.91 L290.39 1548.85 L270.482 1548.85 L270.482 1544.91 Z" fill="#000000" fill-rule="nonzero" fill-opacity="1" /><path clip-path="url(#clip720)" d="M299.834 1542.97 L304.718 1542.97 L304.718 1548.85 L299.834 1548.85 L299.834 1542.97 Z" fill="#000000" fill-rule="nonzero" fill-opacity="1" /><path clip-path="url(#clip720)" d="M324.903 1517.37 Q321.292 1517.37 319.463 1520.93 Q317.658 1524.47 317.658 1531.6 Q317.658 1538.71 319.463 1542.27 Q321.292 1545.82 324.903 1545.82 Q328.538 1545.82 330.343 1542.27 Q332.172 1538.71 332.172 1531.6 Q332.172 1524.47 330.343 1520.93 Q328.538 1517.37 324.903 1517.37 M324.903 1513.66 Q330.713 1513.66 333.769 1518.27 Q336.848 1522.85 336.848 1531.6 Q336.848 1540.33 333.769 1544.94 Q330.713 1549.52 324.903 1549.52 Q319.093 1549.52 316.014 1544.94 Q312.959 1540.33 312.959 1531.6 Q312.959 1522.85 316.014 1518.27 Q319.093 1513.66 324.903 1513.66 Z" fill="#000000" fill-rule="nonzero" fill-opacity="1" /><path clip-path="url(#clip720)" d="M732.678 1532.02 L762.354 1532.02 L762.354 1535.95 L732.678 1535.95 L732.678 1532.02 Z" fill="#000000" fill-rule="nonzero" fill-opacity="1" /><path clip-path="url(#clip720)" d="M782.446 1517.37 Q778.835 1517.37 777.007 1520.93 Q775.201 1524.47 775.201 1531.6 Q775.201 1538.71 777.007 1542.27 Q778.835 1545.82 782.446 1545.82 Q786.081 1545.82 787.886 1542.27 Q789.715 1538.71 789.715 1531.6 Q789.715 1524.47 787.886 1520.93 Q786.081 1517.37 782.446 1517.37 M782.446 1513.66 Q788.257 1513.66 791.312 1518.27 Q794.391 1522.85 794.391 1531.6 Q794.391 1540.33 791.312 1544.94 Q788.257 1549.52 782.446 1549.52 Q776.636 1549.52 773.558 1544.94 Q770.502 1540.33 770.502 1531.6 Q770.502 1522.85 773.558 1518.27 Q776.636 1513.66 782.446 1513.66 Z" fill="#000000" fill-rule="nonzero" fill-opacity="1" /><path clip-path="url(#clip720)" d="M802.608 1542.97 L807.493 1542.97 L807.493 1548.85 L802.608 1548.85 L802.608 1542.97 Z" fill="#000000" fill-rule="nonzero" fill-opacity="1" /><path clip-path="url(#clip720)" d="M817.724 1514.29 L836.08 1514.29 L836.08 1518.22 L822.006 1518.22 L822.006 1526.7 Q823.025 1526.35 824.043 1526.19 Q825.062 1526 826.08 1526 Q831.867 1526 835.247 1529.17 Q838.627 1532.34 838.627 1537.76 Q838.627 1543.34 835.155 1546.44 Q831.682 1549.52 825.363 1549.52 Q823.187 1549.52 820.918 1549.15 Q818.673 1548.78 816.266 1548.04 L816.266 1543.34 Q818.349 1544.47 820.571 1545.03 Q822.793 1545.58 825.27 1545.58 Q829.275 1545.58 831.613 1543.48 Q833.951 1541.37 833.951 1537.76 Q833.951 1534.15 831.613 1532.04 Q829.275 1529.94 825.27 1529.94 Q823.395 1529.94 821.52 1530.35 Q819.668 1530.77 817.724 1531.65 L817.724 1514.29 Z" fill="#000000" fill-rule="nonzero" fill-opacity="1" /><path clip-path="url(#clip720)" d="M1265.31 1517.37 Q1261.7 1517.37 1259.87 1520.93 Q1258.07 1524.47 1258.07 1531.6 Q1258.07 1538.71 1259.87 1542.27 Q1261.7 1545.82 1265.31 1545.82 Q1268.95 1545.82 1270.75 1542.27 Q1272.58 1538.71 1272.58 1531.6 Q1272.58 1524.47 1270.75 1520.93 Q1268.95 1517.37 1265.31 1517.37 M1265.31 1513.66 Q1271.12 1513.66 1274.18 1518.27 Q1277.26 1522.85 1277.26 1531.6 Q1277.26 1540.33 1274.18 1544.94 Q1271.12 1549.52 1265.31 1549.52 Q1259.5 1549.52 1256.42 1544.94 Q1253.37 1540.33 1253.37 1531.6 Q1253.37 1522.85 1256.42 1518.27 Q1259.5 1513.66 1265.31 1513.66 Z" fill="#000000" fill-rule="nonzero" fill-opacity="1" /><path clip-path="url(#clip720)" d="M1285.48 1542.97 L1290.36 1542.97 L1290.36 1548.85 L1285.48 1548.85 L1285.48 1542.97 Z" fill="#000000" fill-rule="nonzero" fill-opacity="1" /><path clip-path="url(#clip720)" d="M1310.54 1517.37 Q1306.93 1517.37 1305.11 1520.93 Q1303.3 1524.47 1303.3 1531.6 Q1303.3 1538.71 1305.11 1542.27 Q1306.93 1545.82 1310.54 1545.82 Q1314.18 1545.82 1315.98 1542.27 Q1317.81 1538.71 1317.81 1531.6 Q1317.81 1524.47 1315.98 1520.93 Q1314.18 1517.37 1310.54 1517.37 M1310.54 1513.66 Q1316.35 1513.66 1319.41 1518.27 Q1322.49 1522.85 1322.49 1531.6 Q1322.49 1540.33 1319.41 1544.94 Q1316.35 1549.52 1310.54 1549.52 Q1304.73 1549.52 1301.66 1544.94 Q1298.6 1540.33 1298.6 1531.6 Q1298.6 1522.85 1301.66 1518.27 Q1304.73 1513.66 1310.54 1513.66 Z" fill="#000000" fill-rule="nonzero" fill-opacity="1" /><path clip-path="url(#clip720)" d="M1768.09 1517.37 Q1764.48 1517.37 1762.65 1520.93 Q1760.84 1524.47 1760.84 1531.6 Q1760.84 1538.71 1762.65 1542.27 Q1764.48 1545.82 1768.09 1545.82 Q1771.72 1545.82 1773.53 1542.27 Q1775.36 1538.71 1775.36 1531.6 Q1775.36 1524.47 1773.53 1520.93 Q1771.72 1517.37 1768.09 1517.37 M1768.09 1513.66 Q1773.9 1513.66 1776.95 1518.27 Q1780.03 1522.85 1780.03 1531.6 Q1780.03 1540.33 1776.95 1544.94 Q1773.9 1549.52 1768.09 1549.52 Q1762.28 1549.52 1759.2 1544.94 Q1756.14 1540.33 1756.14 1531.6 Q1756.14 1522.85 1759.2 1518.27 Q1762.28 1513.66 1768.09 1513.66 Z" fill="#000000" fill-rule="nonzero" fill-opacity="1" /><path clip-path="url(#clip720)" d="M1788.25 1542.97 L1793.13 1542.97 L1793.13 1548.85 L1788.25 1548.85 L1788.25 1542.97 Z" fill="#000000" fill-rule="nonzero" fill-opacity="1" /><path clip-path="url(#clip720)" d="M1803.37 1514.29 L1821.72 1514.29 L1821.72 1518.22 L1807.65 1518.22 L1807.65 1526.7 Q1808.67 1526.35 1809.69 1526.19 Q1810.7 1526 1811.72 1526 Q1817.51 1526 1820.89 1529.17 Q1824.27 1532.34 1824.27 1537.76 Q1824.27 1543.34 1820.8 1546.44 Q1817.32 1549.52 1811 1549.52 Q1808.83 1549.52 1806.56 1549.15 Q1804.31 1548.78 1801.91 1548.04 L1801.91 1543.34 Q1803.99 1544.47 1806.21 1545.03 Q1808.44 1545.58 1810.91 1545.58 Q1814.92 1545.58 1817.25 1543.48 Q1819.59 1541.37 1819.59 1537.76 Q1819.59 1534.15 1817.25 1532.04 Q1814.92 1529.94 1810.91 1529.94 Q1809.04 1529.94 1807.16 1530.35 Q1805.31 1530.77 1803.37 1531.65 L1803.37 1514.29 Z" fill="#000000" fill-rule="nonzero" fill-opacity="1" /><path clip-path="url(#clip720)" d="M2259.64 1544.91 L2267.27 1544.91 L2267.27 1518.55 L2258.96 1520.21 L2258.96 1515.95 L2267.23 1514.29 L2271.9 1514.29 L2271.9 1544.91 L2279.54 1544.91 L2279.54 1548.85 L2259.64 1548.85 L2259.64 1544.91 Z" fill="#000000" fill-rule="nonzero" fill-opacity="1" /><path clip-path="url(#clip720)" d="M2288.99 1542.97 L2293.87 1542.97 L2293.87 1548.85 L2288.99 1548.85 L2288.99 1542.97 Z" fill="#000000" fill-rule="nonzero" fill-opacity="1" /><path clip-path="url(#clip720)" d="M2314.06 1517.37 Q2310.45 1517.37 2308.62 1520.93 Q2306.81 1524.47 2306.81 1531.6 Q2306.81 1538.71 2308.62 1542.27 Q2310.45 1545.82 2314.06 1545.82 Q2317.69 1545.82 2319.5 1542.27 Q2321.33 1538.71 2321.33 1531.6 Q2321.33 1524.47 2319.5 1520.93 Q2317.69 1517.37 2314.06 1517.37 M2314.06 1513.66 Q2319.87 1513.66 2322.92 1518.27 Q2326 1522.85 2326 1531.6 Q2326 1540.33 2322.92 1544.94 Q2319.87 1549.52 2314.06 1549.52 Q2308.25 1549.52 2305.17 1544.94 Q2302.11 1540.33 2302.11 1531.6 Q2302.11 1522.85 2305.17 1518.27 Q2308.25 1513.66 2314.06 1513.66 Z" fill="#000000" fill-rule="nonzero" fill-opacity="1" /><polyline clip-path="url(#clip722)" style="stroke:#000000; stroke-linecap:round; stroke-linejoin:round; stroke-width:2; stroke-opacity:0.1; fill:none" points="223.103,1433.73 2352.76,1433.73 "/>
<polyline clip-path="url(#clip722)" style="stroke:#000000; stroke-linecap:round; stroke-linejoin:round; stroke-width:2; stroke-opacity:0.1; fill:none" points="223.103,1234.34 2352.76,1234.34 "/>
<polyline clip-path="url(#clip722)" style="stroke:#000000; stroke-linecap:round; stroke-linejoin:round; stroke-width:2; stroke-opacity:0.1; fill:none" points="223.103,1034.95 2352.76,1034.95 "/>
<polyline clip-path="url(#clip722)" style="stroke:#000000; stroke-linecap:round; stroke-linejoin:round; stroke-width:2; stroke-opacity:0.1; fill:none" points="223.103,835.569 2352.76,835.569 "/>
<polyline clip-path="url(#clip722)" style="stroke:#000000; stroke-linecap:round; stroke-linejoin:round; stroke-width:2; stroke-opacity:0.1; fill:none" points="223.103,636.183 2352.76,636.183 "/>
<polyline clip-path="url(#clip722)" style="stroke:#000000; stroke-linecap:round; stroke-linejoin:round; stroke-width:2; stroke-opacity:0.1; fill:none" points="223.103,436.798 2352.76,436.798 "/>
<polyline clip-path="url(#clip722)" style="stroke:#000000; stroke-linecap:round; stroke-linejoin:round; stroke-width:2; stroke-opacity:0.1; fill:none" points="223.103,237.412 2352.76,237.412 "/>
<polyline clip-path="url(#clip720)" style="stroke:#000000; stroke-linecap:round; stroke-linejoin:round; stroke-width:4; stroke-opacity:1; fill:none" points="223.103,1486.45 223.103,47.2441 "/>
<polyline clip-path="url(#clip720)" style="stroke:#000000; stroke-linecap:round; stroke-linejoin:round; stroke-width:4; stroke-opacity:1; fill:none" points="223.103,1433.73 242,1433.73 "/>
<polyline clip-path="url(#clip720)" style="stroke:#000000; stroke-linecap:round; stroke-linejoin:round; stroke-width:4; stroke-opacity:1; fill:none" points="223.103,1234.34 242,1234.34 "/>
<polyline clip-path="url(#clip720)" style="stroke:#000000; stroke-linecap:round; stroke-linejoin:round; stroke-width:4; stroke-opacity:1; fill:none" points="223.103,1034.95 242,1034.95 "/>
<polyline clip-path="url(#clip720)" style="stroke:#000000; stroke-linecap:round; stroke-linejoin:round; stroke-width:4; stroke-opacity:1; fill:none" points="223.103,835.569 242,835.569 "/>
<polyline clip-path="url(#clip720)" style="stroke:#000000; stroke-linecap:round; stroke-linejoin:round; stroke-width:4; stroke-opacity:1; fill:none" points="223.103,636.183 242,636.183 "/>
<polyline clip-path="url(#clip720)" style="stroke:#000000; stroke-linecap:round; stroke-linejoin:round; stroke-width:4; stroke-opacity:1; fill:none" points="223.103,436.798 242,436.798 "/>
<polyline clip-path="url(#clip720)" style="stroke:#000000; stroke-linecap:round; stroke-linejoin:round; stroke-width:4; stroke-opacity:1; fill:none" points="223.103,237.412 242,237.412 "/>
<path clip-path="url(#clip720)" d="M50.9921 1434.18 L80.6679 1434.18 L80.6679 1438.11 L50.9921 1438.11 L50.9921 1434.18 Z" fill="#000000" fill-rule="nonzero" fill-opacity="1" /><path clip-path="url(#clip720)" d="M100.76 1419.52 Q97.1493 1419.52 95.3206 1423.09 Q93.515 1426.63 93.515 1433.76 Q93.515 1440.87 95.3206 1444.43 Q97.1493 1447.97 100.76 1447.97 Q104.395 1447.97 106.2 1444.43 Q108.029 1440.87 108.029 1433.76 Q108.029 1426.63 106.2 1423.09 Q104.395 1419.52 100.76 1419.52 M100.76 1415.82 Q106.571 1415.82 109.626 1420.43 Q112.705 1425.01 112.705 1433.76 Q112.705 1442.49 109.626 1447.09 Q106.571 1451.68 100.76 1451.68 Q94.9502 1451.68 91.8715 1447.09 Q88.816 1442.49 88.816 1433.76 Q88.816 1425.01 91.8715 1420.43 Q94.9502 1415.82 100.76 1415.82 Z" fill="#000000" fill-rule="nonzero" fill-opacity="1" /><path clip-path="url(#clip720)" d="M120.922 1445.13 L125.807 1445.13 L125.807 1451.01 L120.922 1451.01 L120.922 1445.13 Z" fill="#000000" fill-rule="nonzero" fill-opacity="1" /><path clip-path="url(#clip720)" d="M140.019 1447.07 L156.339 1447.07 L156.339 1451.01 L134.394 1451.01 L134.394 1447.07 Q137.056 1444.32 141.64 1439.69 Q146.246 1435.03 147.427 1433.69 Q149.672 1431.17 150.552 1429.43 Q151.455 1427.67 151.455 1425.98 Q151.455 1423.23 149.51 1421.49 Q147.589 1419.76 144.487 1419.76 Q142.288 1419.76 139.834 1420.52 Q137.404 1421.28 134.626 1422.83 L134.626 1418.11 Q137.45 1416.98 139.904 1416.4 Q142.357 1415.82 144.394 1415.82 Q149.765 1415.82 152.959 1418.51 Q156.154 1421.19 156.154 1425.68 Q156.154 1427.81 155.343 1429.73 Q154.556 1431.63 152.45 1434.22 Q151.871 1434.9 148.769 1438.11 Q145.668 1441.31 140.019 1447.07 Z" fill="#000000" fill-rule="nonzero" fill-opacity="1" /><path clip-path="url(#clip720)" d="M166.2 1416.45 L184.556 1416.45 L184.556 1420.38 L170.482 1420.38 L170.482 1428.85 Q171.501 1428.51 172.519 1428.34 Q173.538 1428.16 174.556 1428.16 Q180.343 1428.16 183.723 1431.33 Q187.103 1434.5 187.103 1439.92 Q187.103 1445.5 183.63 1448.6 Q180.158 1451.68 173.839 1451.68 Q171.663 1451.68 169.394 1451.31 Q167.149 1450.94 164.742 1450.2 L164.742 1445.5 Q166.825 1446.63 169.047 1447.19 Q171.269 1447.74 173.746 1447.74 Q177.751 1447.74 180.089 1445.64 Q182.427 1443.53 182.427 1439.92 Q182.427 1436.31 180.089 1434.2 Q177.751 1432.09 173.746 1432.09 Q171.871 1432.09 169.996 1432.51 Q168.144 1432.93 166.2 1433.81 L166.2 1416.45 Z" fill="#000000" fill-rule="nonzero" fill-opacity="1" /><path clip-path="url(#clip720)" d="M99.765 1220.14 Q96.1539 1220.14 94.3252 1223.7 Q92.5197 1227.25 92.5197 1234.38 Q92.5197 1241.48 94.3252 1245.05 Q96.1539 1248.59 99.765 1248.59 Q103.399 1248.59 105.205 1245.05 Q107.033 1241.48 107.033 1234.38 Q107.033 1227.25 105.205 1223.7 Q103.399 1220.14 99.765 1220.14 M99.765 1216.44 Q105.575 1216.44 108.631 1221.04 Q111.709 1225.63 111.709 1234.38 Q111.709 1243.1 108.631 1247.71 Q105.575 1252.29 99.765 1252.29 Q93.9549 1252.29 90.8762 1247.71 Q87.8206 1243.1 87.8206 1234.38 Q87.8206 1225.63 90.8762 1221.04 Q93.9549 1216.44 99.765 1216.44 Z" fill="#000000" fill-rule="nonzero" fill-opacity="1" /><path clip-path="url(#clip720)" d="M119.927 1245.74 L124.811 1245.74 L124.811 1251.62 L119.927 1251.62 L119.927 1245.74 Z" fill="#000000" fill-rule="nonzero" fill-opacity="1" /><path clip-path="url(#clip720)" d="M144.996 1220.14 Q141.385 1220.14 139.556 1223.7 Q137.751 1227.25 137.751 1234.38 Q137.751 1241.48 139.556 1245.05 Q141.385 1248.59 144.996 1248.59 Q148.63 1248.59 150.436 1245.05 Q152.265 1241.48 152.265 1234.38 Q152.265 1227.25 150.436 1223.7 Q148.63 1220.14 144.996 1220.14 M144.996 1216.44 Q150.806 1216.44 153.862 1221.04 Q156.941 1225.63 156.941 1234.38 Q156.941 1243.1 153.862 1247.71 Q150.806 1252.29 144.996 1252.29 Q139.186 1252.29 136.107 1247.71 Q133.052 1243.1 133.052 1234.38 Q133.052 1225.63 136.107 1221.04 Q139.186 1216.44 144.996 1216.44 Z" fill="#000000" fill-rule="nonzero" fill-opacity="1" /><path clip-path="url(#clip720)" d="M175.158 1220.14 Q171.547 1220.14 169.718 1223.7 Q167.913 1227.25 167.913 1234.38 Q167.913 1241.48 169.718 1245.05 Q171.547 1248.59 175.158 1248.59 Q178.792 1248.59 180.598 1245.05 Q182.427 1241.48 182.427 1234.38 Q182.427 1227.25 180.598 1223.7 Q178.792 1220.14 175.158 1220.14 M175.158 1216.44 Q180.968 1216.44 184.024 1221.04 Q187.103 1225.63 187.103 1234.38 Q187.103 1243.1 184.024 1247.71 Q180.968 1252.29 175.158 1252.29 Q169.348 1252.29 166.269 1247.71 Q163.214 1243.1 163.214 1234.38 Q163.214 1225.63 166.269 1221.04 Q169.348 1216.44 175.158 1216.44 Z" fill="#000000" fill-rule="nonzero" fill-opacity="1" /><path clip-path="url(#clip720)" d="M100.76 1020.75 Q97.1493 1020.75 95.3206 1024.32 Q93.515 1027.86 93.515 1034.99 Q93.515 1042.1 95.3206 1045.66 Q97.1493 1049.2 100.76 1049.2 Q104.395 1049.2 106.2 1045.66 Q108.029 1042.1 108.029 1034.99 Q108.029 1027.86 106.2 1024.32 Q104.395 1020.75 100.76 1020.75 M100.76 1017.05 Q106.571 1017.05 109.626 1021.66 Q112.705 1026.24 112.705 1034.99 Q112.705 1043.72 109.626 1048.32 Q106.571 1052.91 100.76 1052.91 Q94.9502 1052.91 91.8715 1048.32 Q88.816 1043.72 88.816 1034.99 Q88.816 1026.24 91.8715 1021.66 Q94.9502 1017.05 100.76 1017.05 Z" fill="#000000" fill-rule="nonzero" fill-opacity="1" /><path clip-path="url(#clip720)" d="M120.922 1046.36 L125.807 1046.36 L125.807 1052.23 L120.922 1052.23 L120.922 1046.36 Z" fill="#000000" fill-rule="nonzero" fill-opacity="1" /><path clip-path="url(#clip720)" d="M140.019 1048.3 L156.339 1048.3 L156.339 1052.23 L134.394 1052.23 L134.394 1048.3 Q137.056 1045.54 141.64 1040.92 Q146.246 1036.26 147.427 1034.92 Q149.672 1032.4 150.552 1030.66 Q151.455 1028.9 151.455 1027.21 Q151.455 1024.46 149.51 1022.72 Q147.589 1020.98 144.487 1020.98 Q142.288 1020.98 139.834 1021.75 Q137.404 1022.51 134.626 1024.06 L134.626 1019.34 Q137.45 1018.21 139.904 1017.63 Q142.357 1017.05 144.394 1017.05 Q149.765 1017.05 152.959 1019.73 Q156.154 1022.42 156.154 1026.91 Q156.154 1029.04 155.343 1030.96 Q154.556 1032.86 152.45 1035.45 Q151.871 1036.12 148.769 1039.34 Q145.668 1042.54 140.019 1048.3 Z" fill="#000000" fill-rule="nonzero" fill-opacity="1" /><path clip-path="url(#clip720)" d="M166.2 1017.67 L184.556 1017.67 L184.556 1021.61 L170.482 1021.61 L170.482 1030.08 Q171.501 1029.73 172.519 1029.57 Q173.538 1029.39 174.556 1029.39 Q180.343 1029.39 183.723 1032.56 Q187.103 1035.73 187.103 1041.15 Q187.103 1046.73 183.63 1049.83 Q180.158 1052.91 173.839 1052.91 Q171.663 1052.91 169.394 1052.54 Q167.149 1052.17 164.742 1051.42 L164.742 1046.73 Q166.825 1047.86 169.047 1048.42 Q171.269 1048.97 173.746 1048.97 Q177.751 1048.97 180.089 1046.86 Q182.427 1044.76 182.427 1041.15 Q182.427 1037.54 180.089 1035.43 Q177.751 1033.32 173.746 1033.32 Q171.871 1033.32 169.996 1033.74 Q168.144 1034.16 166.2 1035.04 L166.2 1017.67 Z" fill="#000000" fill-rule="nonzero" fill-opacity="1" /><path clip-path="url(#clip720)" d="M99.765 821.368 Q96.1539 821.368 94.3252 824.932 Q92.5197 828.474 92.5197 835.604 Q92.5197 842.71 94.3252 846.275 Q96.1539 849.817 99.765 849.817 Q103.399 849.817 105.205 846.275 Q107.033 842.71 107.033 835.604 Q107.033 828.474 105.205 824.932 Q103.399 821.368 99.765 821.368 M99.765 817.664 Q105.575 817.664 108.631 822.27 Q111.709 826.854 111.709 835.604 Q111.709 844.331 108.631 848.937 Q105.575 853.52 99.765 853.52 Q93.9549 853.52 90.8762 848.937 Q87.8206 844.331 87.8206 835.604 Q87.8206 826.854 90.8762 822.27 Q93.9549 817.664 99.765 817.664 Z" fill="#000000" fill-rule="nonzero" fill-opacity="1" /><path clip-path="url(#clip720)" d="M119.927 846.969 L124.811 846.969 L124.811 852.849 L119.927 852.849 L119.927 846.969 Z" fill="#000000" fill-rule="nonzero" fill-opacity="1" /><path clip-path="url(#clip720)" d="M135.043 818.289 L153.399 818.289 L153.399 822.224 L139.325 822.224 L139.325 830.696 Q140.343 830.349 141.362 830.187 Q142.381 830.002 143.399 830.002 Q149.186 830.002 152.566 833.173 Q155.945 836.344 155.945 841.761 Q155.945 847.34 152.473 850.442 Q149.001 853.52 142.681 853.52 Q140.506 853.52 138.237 853.15 Q135.992 852.78 133.584 852.039 L133.584 847.34 Q135.668 848.474 137.89 849.03 Q140.112 849.585 142.589 849.585 Q146.593 849.585 148.931 847.479 Q151.269 845.372 151.269 841.761 Q151.269 838.15 148.931 836.044 Q146.593 833.937 142.589 833.937 Q140.714 833.937 138.839 834.354 Q136.987 834.77 135.043 835.65 L135.043 818.289 Z" fill="#000000" fill-rule="nonzero" fill-opacity="1" /><path clip-path="url(#clip720)" d="M175.158 821.368 Q171.547 821.368 169.718 824.932 Q167.913 828.474 167.913 835.604 Q167.913 842.71 169.718 846.275 Q171.547 849.817 175.158 849.817 Q178.792 849.817 180.598 846.275 Q182.427 842.71 182.427 835.604 Q182.427 828.474 180.598 824.932 Q178.792 821.368 175.158 821.368 M175.158 817.664 Q180.968 817.664 184.024 822.27 Q187.103 826.854 187.103 835.604 Q187.103 844.331 184.024 848.937 Q180.968 853.52 175.158 853.52 Q169.348 853.52 166.269 848.937 Q163.214 844.331 163.214 835.604 Q163.214 826.854 166.269 822.27 Q169.348 817.664 175.158 817.664 Z" fill="#000000" fill-rule="nonzero" fill-opacity="1" /><path clip-path="url(#clip720)" d="M100.76 621.982 Q97.1493 621.982 95.3206 625.547 Q93.515 629.088 93.515 636.218 Q93.515 643.324 95.3206 646.889 Q97.1493 650.431 100.76 650.431 Q104.395 650.431 106.2 646.889 Q108.029 643.324 108.029 636.218 Q108.029 629.088 106.2 625.547 Q104.395 621.982 100.76 621.982 M100.76 618.278 Q106.571 618.278 109.626 622.885 Q112.705 627.468 112.705 636.218 Q112.705 644.945 109.626 649.551 Q106.571 654.135 100.76 654.135 Q94.9502 654.135 91.8715 649.551 Q88.816 644.945 88.816 636.218 Q88.816 627.468 91.8715 622.885 Q94.9502 618.278 100.76 618.278 Z" fill="#000000" fill-rule="nonzero" fill-opacity="1" /><path clip-path="url(#clip720)" d="M120.922 647.584 L125.807 647.584 L125.807 653.463 L120.922 653.463 L120.922 647.584 Z" fill="#000000" fill-rule="nonzero" fill-opacity="1" /><path clip-path="url(#clip720)" d="M134.811 618.903 L157.033 618.903 L157.033 620.894 L144.487 653.463 L139.603 653.463 L151.408 622.838 L134.811 622.838 L134.811 618.903 Z" fill="#000000" fill-rule="nonzero" fill-opacity="1" /><path clip-path="url(#clip720)" d="M166.2 618.903 L184.556 618.903 L184.556 622.838 L170.482 622.838 L170.482 631.311 Q171.501 630.963 172.519 630.801 Q173.538 630.616 174.556 630.616 Q180.343 630.616 183.723 633.787 Q187.103 636.959 187.103 642.375 Q187.103 647.954 183.63 651.056 Q180.158 654.135 173.839 654.135 Q171.663 654.135 169.394 653.764 Q167.149 653.394 164.742 652.653 L164.742 647.954 Q166.825 649.088 169.047 649.644 Q171.269 650.199 173.746 650.199 Q177.751 650.199 180.089 648.093 Q182.427 645.986 182.427 642.375 Q182.427 638.764 180.089 636.658 Q177.751 634.551 173.746 634.551 Q171.871 634.551 169.996 634.968 Q168.144 635.385 166.2 636.264 L166.2 618.903 Z" fill="#000000" fill-rule="nonzero" fill-opacity="1" /><path clip-path="url(#clip720)" d="M90.5752 450.142 L98.2141 450.142 L98.2141 423.777 L89.904 425.444 L89.904 421.184 L98.1678 419.518 L102.844 419.518 L102.844 450.142 L110.483 450.142 L110.483 454.078 L90.5752 454.078 L90.5752 450.142 Z" fill="#000000" fill-rule="nonzero" fill-opacity="1" /><path clip-path="url(#clip720)" d="M119.927 448.198 L124.811 448.198 L124.811 454.078 L119.927 454.078 L119.927 448.198 Z" fill="#000000" fill-rule="nonzero" fill-opacity="1" /><path clip-path="url(#clip720)" d="M144.996 422.596 Q141.385 422.596 139.556 426.161 Q137.751 429.703 137.751 436.832 Q137.751 443.939 139.556 447.504 Q141.385 451.045 144.996 451.045 Q148.63 451.045 150.436 447.504 Q152.265 443.939 152.265 436.832 Q152.265 429.703 150.436 426.161 Q148.63 422.596 144.996 422.596 M144.996 418.893 Q150.806 418.893 153.862 423.499 Q156.941 428.082 156.941 436.832 Q156.941 445.559 153.862 450.166 Q150.806 454.749 144.996 454.749 Q139.186 454.749 136.107 450.166 Q133.052 445.559 133.052 436.832 Q133.052 428.082 136.107 423.499 Q139.186 418.893 144.996 418.893 Z" fill="#000000" fill-rule="nonzero" fill-opacity="1" /><path clip-path="url(#clip720)" d="M175.158 422.596 Q171.547 422.596 169.718 426.161 Q167.913 429.703 167.913 436.832 Q167.913 443.939 169.718 447.504 Q171.547 451.045 175.158 451.045 Q178.792 451.045 180.598 447.504 Q182.427 443.939 182.427 436.832 Q182.427 429.703 180.598 426.161 Q178.792 422.596 175.158 422.596 M175.158 418.893 Q180.968 418.893 184.024 423.499 Q187.103 428.082 187.103 436.832 Q187.103 445.559 184.024 450.166 Q180.968 454.749 175.158 454.749 Q169.348 454.749 166.269 450.166 Q163.214 445.559 163.214 436.832 Q163.214 428.082 166.269 423.499 Q169.348 418.893 175.158 418.893 Z" fill="#000000" fill-rule="nonzero" fill-opacity="1" /><path clip-path="url(#clip720)" d="M91.5706 250.757 L99.2095 250.757 L99.2095 224.391 L90.8993 226.058 L90.8993 221.799 L99.1632 220.132 L103.839 220.132 L103.839 250.757 L111.478 250.757 L111.478 254.692 L91.5706 254.692 L91.5706 250.757 Z" fill="#000000" fill-rule="nonzero" fill-opacity="1" /><path clip-path="url(#clip720)" d="M120.922 248.812 L125.807 248.812 L125.807 254.692 L120.922 254.692 L120.922 248.812 Z" fill="#000000" fill-rule="nonzero" fill-opacity="1" /><path clip-path="url(#clip720)" d="M140.019 250.757 L156.339 250.757 L156.339 254.692 L134.394 254.692 L134.394 250.757 Q137.056 248.002 141.64 243.373 Q146.246 238.72 147.427 237.377 Q149.672 234.854 150.552 233.118 Q151.455 231.359 151.455 229.669 Q151.455 226.914 149.51 225.178 Q147.589 223.442 144.487 223.442 Q142.288 223.442 139.834 224.206 Q137.404 224.97 134.626 226.521 L134.626 221.799 Q137.45 220.664 139.904 220.086 Q142.357 219.507 144.394 219.507 Q149.765 219.507 152.959 222.192 Q156.154 224.877 156.154 229.368 Q156.154 231.498 155.343 233.419 Q154.556 235.317 152.45 237.91 Q151.871 238.581 148.769 241.798 Q145.668 244.993 140.019 250.757 Z" fill="#000000" fill-rule="nonzero" fill-opacity="1" /><path clip-path="url(#clip720)" d="M166.2 220.132 L184.556 220.132 L184.556 224.067 L170.482 224.067 L170.482 232.539 Q171.501 232.192 172.519 232.03 Q173.538 231.845 174.556 231.845 Q180.343 231.845 183.723 235.016 Q187.103 238.187 187.103 243.604 Q187.103 249.183 183.63 252.285 Q180.158 255.363 173.839 255.363 Q171.663 255.363 169.394 254.993 Q167.149 254.622 164.742 253.882 L164.742 249.183 Q166.825 250.317 169.047 250.872 Q171.269 251.428 173.746 251.428 Q177.751 251.428 180.089 249.322 Q182.427 247.215 182.427 243.604 Q182.427 239.993 180.089 237.886 Q177.751 235.78 173.746 235.78 Q171.871 235.78 169.996 236.197 Q168.144 236.613 166.2 237.493 L166.2 220.132 Z" fill="#000000" fill-rule="nonzero" fill-opacity="1" /><polyline clip-path="url(#clip722)" style="stroke:#009af9; stroke-linecap:round; stroke-linejoin:round; stroke-width:16; stroke-opacity:1; fill:none" stroke-dasharray="8, 16" points="283.376,1114.55 293.472,1125.26 303.568,1121.36 313.664,1098.05 323.76,1075.81 333.856,1061.9 343.952,1046.7 354.048,1051.33 364.144,1107.43 374.24,1191.3 384.336,1244.4 394.432,1249.47 404.528,1225.53 414.624,1203.14 424.72,1209.18 434.816,1249.76 444.912,1313.47 455.008,1380.62 465.104,1429.9 475.2,1445.72 485.296,1412.68 495.392,1330.23 505.488,1273.07 515.584,1308.49 525.68,1366.06 535.776,1349.19 545.872,1263.85 555.968,1197.19 566.064,1232.89 576.16,1353.08 586.256,1435.83 596.352,1398.12 606.448,1254.52 616.544,1076.01 626.64,951.757 636.736,938.313 646.832,1021.46 656.928,1141.11 667.024,1236.98 677.12,1253.76 687.216,1166.03 697.312,1038.76 707.408,1022.3 717.504,1168 727.6,1238.74 737.696,1106.83 747.792,1025.32 757.888,1094.34 767.984,1203.69 778.08,1295.45 788.176,1373.86 798.272,1414.19 808.369,1394.77 818.465,1362.3 828.561,1372.14 838.657,1408.94 848.753,1416.78 858.849,1387.28 868.945,1355.88 879.041,1336.2 889.137,1330.37 899.233,1337.38 909.329,1339.83 919.425,1320.9 929.521,1281.19 939.617,1227.02 949.713,1166.68 959.809,1120.4 969.905,1106.96 980.001,1122.07 990.097,1140.96 1000.19,1139.95 1010.29,1113.83 1020.38,1078.3 1030.48,1057.76 1040.58,1063.39 1050.67,1084.97 1060.77,1106.54 1070.86,1122.7 1080.96,1139.92 1091.06,1163.32 1101.15,1197.98 1111.25,1251.36 1121.34,1315.6 1131.44,1355.95 1141.54,1336.59 1151.63,1273.09 1161.73,1239.32 1171.83,1286.81 1181.92,1367 1192.02,1413.99 1202.11,1425.88 1212.21,1415.18 1222.31,1388.93 1232.4,1360.48 1242.5,1344.95 1252.59,1345.64 1262.69,1329.46 1272.79,1205.58 1282.88,906.958 1292.98,588.629 1303.07,448.367 1313.17,440.189 1323.27,467.897 1333.36,479.592 1343.46,466.211 1353.55,440.35 1363.65,420.111 1373.75,415.479 1383.84,417.715 1393.94,422.076 1404.03,446.367 1414.13,475.882 1424.23,462.551 1434.32,420.965 1444.42,407.798 1454.51,432.042 1464.61,462.216 1474.71,477.421 1484.8,476.535 1494.9,457.478 1504.99,418.993 1515.09,384.392 1525.19,381.686 1535.28,407.447 1545.38,436.75 1555.47,449.141 1565.57,448.111 1575.67,451.316 1585.76,467.493 1595.86,487.241 1605.95,489.734 1616.05,460.305 1626.15,406.17 1636.24,355.129 1646.34,333.824 1656.43,351.052 1666.53,404.356 1676.63,476.998 1686.72,534.364 1696.82,549.705 1706.91,529.225 1717.01,486.687 1727.11,421.453 1737.2,369.908 1747.3,353.234 1757.39,333.311 1767.49,306.809 1777.59,330.266 1787.68,417.995 1797.78,509.782 1807.87,568.366 1817.97,616.449 1828.07,629.994 1838.16,511.012 1848.26,342.86 1858.35,342.688 1868.45,397.65 1878.55,352.231 1888.64,264.787 1898.74,260.999 1908.83,368.599 1918.93,516.795 1929.03,635.898 1939.12,686.905 1949.22,640.737 1959.31,496.782 1969.41,300.435 1979.51,133.365 1989.6,87.9763 1999.7,209.447 2009.79,414.592 2019.89,554.474 2029.99,590.174 2040.08,595.168 2050.18,638.139 2060.27,690.05 2070.37,640.357 2080.47,464.866 2090.56,288.771 2100.66,210.111 2110.75,220.089 2120.85,288.239 2130.95,391.831 2141.04,504.994 2151.14,599.717 2161.23,648.37 2171.33,631.08 2181.43,547.745 2191.52,420.751 2201.62,305.696 2211.71,264.487 2221.81,287.537 2231.91,325.101 2242,368.823 2252.1,431.842 2262.19,499.646 2272.29,549.823 2282.39,589.45 2292.48,635.22 "/>
<polyline clip-path="url(#clip722)" style="stroke:#e26f46; stroke-linecap:round; stroke-linejoin:round; stroke-width:4; stroke-opacity:1; fill:none" points="283.376,1114.55 293.472,1097.56 303.568,1085.02 313.664,1077.37 323.76,1074.83 333.856,1077.5 343.952,1085.29 354.048,1097.95 364.144,1115.05 374.24,1136.05 384.336,1160.26 394.432,1186.88 404.528,1215.06 414.624,1243.86 424.72,1272.35 434.816,1299.6 444.912,1324.73 455.008,1346.9 465.104,1365.4 475.2,1379.62 485.296,1389.1 495.392,1393.52 505.488,1392.76 515.584,1386.82 525.68,1375.91 535.776,1360.37 545.872,1340.73 555.968,1317.61 566.064,1291.77 576.16,1264.06 586.256,1235.38 596.352,1206.66 606.448,1178.85 616.544,1152.85 626.64,1129.51 636.736,1109.59 646.832,1093.74 656.928,1082.48 667.024,1076.18 677.12,1075.04 687.216,1079.1 697.312,1088.22 707.408,1102.12 717.504,1120.32 727.6,1142.26 737.696,1167.19 747.792,1194.32 757.888,1222.75 767.984,1251.56 778.08,1279.81 788.176,1306.58 798.272,1330.99 808.369,1352.24 818.465,1369.65 828.561,1382.64 838.657,1390.79 848.753,1393.83 858.849,1391.67 868.945,1384.37 879.041,1372.18 889.137,1355.49 899.233,1334.84 909.329,1310.92 919.425,1284.49 929.521,1256.43 939.617,1227.65 949.713,1199.08 959.809,1171.67 969.905,1146.3 980.001,1123.81 990.097,1104.92 1000.19,1090.26 1010.29,1080.3 1020.38,1075.36 1030.48,1075.62 1040.58,1081.05 1050.67,1091.49 1060.77,1106.59 1070.86,1125.86 1080.96,1148.67 1091.06,1174.28 1101.15,1201.85 1111.25,1230.47 1121.34,1259.23 1131.44,1287.17 1141.54,1313.39 1151.63,1337.02 1161.73,1357.31 1171.83,1373.58 1181.92,1385.31 1192.02,1392.11 1202.11,1393.76 1212.21,1390.21 1222.31,1381.57 1232.4,1368.13 1242.5,1350.32 1252.59,1328.72 1262.69,1304.05 1272.79,1277.09 1282.88,1248.75 1292.98,435.639 1303.07,434.321 1313.17,435.521 1323.27,439.515 1333.36,445.078 1343.46,449.861 1353.55,451.278 1363.65,447.597 1373.75,438.824 1383.84,426.997 1393.94,415.743 1404.03,409.168 1414.13,410.43 1424.23,420.461 1434.32,437.333 1444.42,456.535 1454.51,472.172 1464.61,478.768 1474.71,473.122 1484.8,455.603 1494.9,430.405 1504.99,404.581 1515.09,386.073 1525.19,381.278 1535.28,392.901 1545.38,418.796 1555.47,452.238 1565.57,483.653 1575.67,503.356 1585.76,504.523 1595.86,485.488 1605.95,450.603 1616.05,409.309 1626.15,373.589 1636.24,354.494 1646.34,358.74 1656.43,386.423 1666.53,430.617 1676.63,479.065 1686.72,517.576 1696.82,534.18 1706.91,522.826 1717.01,485.49 1727.11,431.977 1737.2,377.369 1747.3,337.773 1757.39,325.579 1767.49,345.603 1777.59,393.33 1787.68,455.853 1797.78,515.352 1807.87,554.171 1817.97,560.05 1828.07,529.972 1838.16,471.405 1848.26,400.497 1858.35,337.63 1868.45,301.565 1878.55,303.845 1888.64,345.144 1898.74,414.69 1908.83,493.044 1918.93,557.531 1929.03,588.801 1939.12,576.625 1949.22,523.19 1959.31,442.851 1969.41,358.291 1979.51,294.117 1989.6,269.706 1999.7,293.362 2009.79,359.563 2019.89,450.178 2029.99,539.424 2040.08,601.2 2050.18,616.717 2060.27,580.196 2070.37,500.91 2080.47,400.867 2090.56,308.711 2100.66,251.521 2110.75,246.856 2120.85,297.388 2130.95,389.75 2141.04,498.048 2151.14,591.112 2161.23,641.47 2171.33,633.453 2181.43,568.037 2191.52,462.951 2201.62,347.883 2211.71,256.101 2221.81,214.83 2231.91,237.188 2242,318.052 2252.1,435.16 2262.19,555.221 2272.29,643.387 2282.39,673.357 2292.48,635.221 "/>
<path clip-path="url(#clip720)" d="M294.091 250.738 L733.884 250.738 L733.884 95.2176 L294.091 95.2176  Z" fill="#ffffff" fill-rule="evenodd" fill-opacity="1"/>
<polyline clip-path="url(#clip720)" style="stroke:#000000; stroke-linecap:round; stroke-linejoin:round; stroke-width:4; stroke-opacity:1; fill:none" points="294.091,250.738 733.884,250.738 733.884,95.2176 294.091,95.2176 294.091,250.738 "/>
<polyline clip-path="url(#clip720)" style="stroke:#009af9; stroke-linecap:round; stroke-linejoin:round; stroke-width:16; stroke-opacity:1; fill:none" stroke-dasharray="8, 16" points="317.754,147.058 459.731,147.058 "/>
<path clip-path="url(#clip720)" d="M488.069 133.62 L488.069 146.606 L493.949 146.606 Q497.213 146.606 498.995 144.916 Q500.778 143.227 500.778 140.102 Q500.778 137 498.995 135.31 Q497.213 133.62 493.949 133.62 L488.069 133.62 M483.393 129.778 L493.949 129.778 Q499.759 129.778 502.722 132.416 Q505.708 135.032 505.708 140.102 Q505.708 145.217 502.722 147.833 Q499.759 150.449 493.949 150.449 L488.069 150.449 L488.069 164.338 L483.393 164.338 L483.393 129.778 Z" fill="#000000" fill-rule="nonzero" fill-opacity="1" /><path clip-path="url(#clip720)" d="M525.986 142.393 Q525.268 141.977 524.412 141.791 Q523.578 141.583 522.56 141.583 Q518.949 141.583 517.004 143.944 Q515.083 146.282 515.083 150.68 L515.083 164.338 L510.801 164.338 L510.801 138.412 L515.083 138.412 L515.083 142.44 Q516.426 140.078 518.578 138.944 Q520.731 137.787 523.81 137.787 Q524.25 137.787 524.782 137.856 Q525.315 137.903 525.963 138.018 L525.986 142.393 Z" fill="#000000" fill-rule="nonzero" fill-opacity="1" /><path clip-path="url(#clip720)" d="M551.588 150.31 L551.588 152.393 L532.004 152.393 Q532.282 156.791 534.643 159.106 Q537.027 161.398 541.264 161.398 Q543.717 161.398 546.009 160.796 Q548.324 160.194 550.592 158.99 L550.592 163.018 Q548.301 163.99 545.893 164.5 Q543.486 165.009 541.009 165.009 Q534.805 165.009 531.171 161.398 Q527.56 157.787 527.56 151.629 Q527.56 145.264 530.986 141.537 Q534.435 137.787 540.268 137.787 Q545.5 137.787 548.532 141.166 Q551.588 144.523 551.588 150.31 M547.328 149.06 Q547.282 145.565 545.361 143.481 Q543.463 141.398 540.314 141.398 Q536.75 141.398 534.597 143.412 Q532.467 145.426 532.143 149.083 L547.328 149.06 Z" fill="#000000" fill-rule="nonzero" fill-opacity="1" /><path clip-path="url(#clip720)" d="M575.638 142.347 L575.638 128.319 L579.898 128.319 L579.898 164.338 L575.638 164.338 L575.638 160.449 Q574.296 162.763 572.236 163.898 Q570.199 165.009 567.328 165.009 Q562.629 165.009 559.666 161.259 Q556.726 157.509 556.726 151.398 Q556.726 145.287 559.666 141.537 Q562.629 137.787 567.328 137.787 Q570.199 137.787 572.236 138.921 Q574.296 140.032 575.638 142.347 M561.125 151.398 Q561.125 156.097 563.046 158.782 Q564.99 161.444 568.37 161.444 Q571.749 161.444 573.694 158.782 Q575.638 156.097 575.638 151.398 Q575.638 146.699 573.694 144.037 Q571.749 141.352 568.37 141.352 Q564.99 141.352 563.046 144.037 Q561.125 146.699 561.125 151.398 Z" fill="#000000" fill-rule="nonzero" fill-opacity="1" /><path clip-path="url(#clip720)" d="M588.671 138.412 L592.93 138.412 L592.93 164.338 L588.671 164.338 L588.671 138.412 M588.671 128.319 L592.93 128.319 L592.93 133.713 L588.671 133.713 L588.671 128.319 Z" fill="#000000" fill-rule="nonzero" fill-opacity="1" /><path clip-path="url(#clip720)" d="M620.499 139.407 L620.499 143.389 Q618.694 142.393 616.865 141.907 Q615.059 141.398 613.208 141.398 Q609.064 141.398 606.772 144.037 Q604.481 146.652 604.481 151.398 Q604.481 156.143 606.772 158.782 Q609.064 161.398 613.208 161.398 Q615.059 161.398 616.865 160.912 Q618.694 160.402 620.499 159.407 L620.499 163.342 Q618.717 164.176 616.796 164.592 Q614.897 165.009 612.745 165.009 Q606.888 165.009 603.439 161.328 Q599.99 157.648 599.99 151.398 Q599.99 145.055 603.462 141.421 Q606.958 137.787 613.022 137.787 Q614.99 137.787 616.865 138.203 Q618.74 138.597 620.499 139.407 Z" fill="#000000" fill-rule="nonzero" fill-opacity="1" /><path clip-path="url(#clip720)" d="M632.12 131.051 L632.12 138.412 L640.893 138.412 L640.893 141.722 L632.12 141.722 L632.12 155.796 Q632.12 158.967 632.976 159.87 Q633.856 160.773 636.518 160.773 L640.893 160.773 L640.893 164.338 L636.518 164.338 Q631.587 164.338 629.712 162.509 Q627.837 160.657 627.837 155.796 L627.837 141.722 L624.712 141.722 L624.712 138.412 L627.837 138.412 L627.837 131.051 L632.12 131.051 Z" fill="#000000" fill-rule="nonzero" fill-opacity="1" /><path clip-path="url(#clip720)" d="M646.494 138.412 L650.754 138.412 L650.754 164.338 L646.494 164.338 L646.494 138.412 M646.494 128.319 L650.754 128.319 L650.754 133.713 L646.494 133.713 L646.494 128.319 Z" fill="#000000" fill-rule="nonzero" fill-opacity="1" /><path clip-path="url(#clip720)" d="M669.712 141.398 Q666.286 141.398 664.295 144.083 Q662.305 146.745 662.305 151.398 Q662.305 156.051 664.272 158.736 Q666.263 161.398 669.712 161.398 Q673.115 161.398 675.105 158.713 Q677.096 156.027 677.096 151.398 Q677.096 146.791 675.105 144.106 Q673.115 141.398 669.712 141.398 M669.712 137.787 Q675.267 137.787 678.439 141.398 Q681.61 145.009 681.61 151.398 Q681.61 157.764 678.439 161.398 Q675.267 165.009 669.712 165.009 Q664.133 165.009 660.962 161.398 Q657.814 157.764 657.814 151.398 Q657.814 145.009 660.962 141.398 Q664.133 137.787 669.712 137.787 Z" fill="#000000" fill-rule="nonzero" fill-opacity="1" /><path clip-path="url(#clip720)" d="M710.221 148.689 L710.221 164.338 L705.962 164.338 L705.962 148.828 Q705.962 145.148 704.527 143.319 Q703.091 141.49 700.221 141.49 Q696.772 141.49 694.781 143.69 Q692.791 145.889 692.791 149.685 L692.791 164.338 L688.508 164.338 L688.508 138.412 L692.791 138.412 L692.791 142.44 Q694.318 140.102 696.378 138.944 Q698.462 137.787 701.17 137.787 Q705.638 137.787 707.929 140.565 Q710.221 143.319 710.221 148.689 Z" fill="#000000" fill-rule="nonzero" fill-opacity="1" /><polyline clip-path="url(#clip720)" style="stroke:#e26f46; stroke-linecap:round; stroke-linejoin:round; stroke-width:4; stroke-opacity:1; fill:none" points="317.754,198.898 459.731,198.898 "/>
<path clip-path="url(#clip720)" d="M483.393 181.618 L505.245 181.618 L505.245 185.553 L488.069 185.553 L488.069 195.784 L504.528 195.784 L504.528 199.719 L488.069 199.719 L488.069 212.242 L505.662 212.242 L505.662 216.178 L483.393 216.178 L483.393 181.618 Z" fill="#000000" fill-rule="nonzero" fill-opacity="1" /><path clip-path="url(#clip720)" d="M534.713 190.252 L525.338 202.867 L535.199 216.178 L530.176 216.178 L522.629 205.992 L515.083 216.178 L510.06 216.178 L520.129 202.613 L510.916 190.252 L515.94 190.252 L522.815 199.488 L529.69 190.252 L534.713 190.252 Z" fill="#000000" fill-rule="nonzero" fill-opacity="1" /><path clip-path="url(#clip720)" d="M553 203.145 Q547.838 203.145 545.847 204.326 Q543.856 205.506 543.856 208.354 Q543.856 210.622 545.338 211.965 Q546.842 213.284 549.412 213.284 Q552.953 213.284 555.083 210.784 Q557.236 208.261 557.236 204.094 L557.236 203.145 L553 203.145 M561.495 201.386 L561.495 216.178 L557.236 216.178 L557.236 212.242 Q555.777 214.603 553.601 215.738 Q551.426 216.849 548.277 216.849 Q544.296 216.849 541.935 214.627 Q539.597 212.381 539.597 208.631 Q539.597 204.256 542.514 202.034 Q545.453 199.812 551.263 199.812 L557.236 199.812 L557.236 199.395 Q557.236 196.455 555.291 194.858 Q553.37 193.238 549.875 193.238 Q547.652 193.238 545.546 193.77 Q543.439 194.303 541.495 195.367 L541.495 191.432 Q543.833 190.53 546.032 190.09 Q548.231 189.627 550.314 189.627 Q555.939 189.627 558.717 192.543 Q561.495 195.46 561.495 201.386 Z" fill="#000000" fill-rule="nonzero" fill-opacity="1" /><path clip-path="url(#clip720)" d="M588.925 191.247 L588.925 195.229 Q587.12 194.233 585.291 193.747 Q583.486 193.238 581.634 193.238 Q577.49 193.238 575.199 195.877 Q572.907 198.492 572.907 203.238 Q572.907 207.983 575.199 210.622 Q577.49 213.238 581.634 213.238 Q583.486 213.238 585.291 212.752 Q587.12 212.242 588.925 211.247 L588.925 215.182 Q587.143 216.016 585.222 216.432 Q583.323 216.849 581.171 216.849 Q575.314 216.849 571.865 213.168 Q568.416 209.488 568.416 203.238 Q568.416 196.895 571.888 193.261 Q575.384 189.627 581.449 189.627 Q583.416 189.627 585.291 190.043 Q587.166 190.437 588.925 191.247 Z" fill="#000000" fill-rule="nonzero" fill-opacity="1" /><path clip-path="url(#clip720)" d="M600.546 182.891 L600.546 190.252 L609.319 190.252 L609.319 193.562 L600.546 193.562 L600.546 207.636 Q600.546 210.807 601.402 211.71 Q602.282 212.613 604.944 212.613 L609.319 212.613 L609.319 216.178 L604.944 216.178 Q600.013 216.178 598.138 214.349 Q596.263 212.497 596.263 207.636 L596.263 193.562 L593.138 193.562 L593.138 190.252 L596.263 190.252 L596.263 182.891 L600.546 182.891 Z" fill="#000000" fill-rule="nonzero" fill-opacity="1" /></svg>
