<?xml version="1.0" encoding="utf-8"?>
<svg xmlns="http://www.w3.org/2000/svg" xmlns:xlink="http://www.w3.org/1999/xlink" width="600" height="400" viewBox="0 0 2400 1600">
<defs>
  <clipPath id="clip810">
    <rect x="0" y="0" width="2400" height="1600"/>
  </clipPath>
</defs>
<path clip-path="url(#clip810)" d="M0 1600 L2400 1600 L2400 0 L0 0  Z" fill="#ffffff" fill-rule="evenodd" fill-opacity="1"/>
<defs>
  <clipPath id="clip811">
    <rect x="480" y="0" width="1681" height="1600"/>
  </clipPath>
</defs>
<path clip-path="url(#clip810)" d="M192.339 1486.45 L2352.76 1486.45 L2352.76 47.2441 L192.339 47.2441  Z" fill="#ffffff" fill-rule="evenodd" fill-opacity="1"/>
<defs>
  <clipPath id="clip812">
    <rect x="192" y="47" width="2161" height="1440"/>
  </clipPath>
</defs>
<polyline clip-path="url(#clip812)" style="stroke:#000000; stroke-linecap:round; stroke-linejoin:round; stroke-width:2; stroke-opacity:0.1; fill:none" points="253.483,1486.45 253.483,47.2441 "/>
<polyline clip-path="url(#clip812)" style="stroke:#000000; stroke-linecap:round; stroke-linejoin:round; stroke-width:2; stroke-opacity:0.1; fill:none" points="763.015,1486.45 763.015,47.2441 "/>
<polyline clip-path="url(#clip812)" style="stroke:#000000; stroke-linecap:round; stroke-linejoin:round; stroke-width:2; stroke-opacity:0.1; fill:none" points="1272.55,1486.45 1272.55,47.2441 "/>
<polyline clip-path="url(#clip812)" style="stroke:#000000; stroke-linecap:round; stroke-linejoin:round; stroke-width:2; stroke-opacity:0.1; fill:none" points="1782.08,1486.45 1782.08,47.2441 "/>
<polyline clip-path="url(#clip812)" style="stroke:#000000; stroke-linecap:round; stroke-linejoin:round; stroke-width:2; stroke-opacity:0.1; fill:none" points="2291.61,1486.45 2291.61,47.2441 "/>
<polyline clip-path="url(#clip810)" style="stroke:#000000; stroke-linecap:round; stroke-linejoin:round; stroke-width:4; stroke-opacity:1; fill:none" points="192.339,1486.45 2352.76,1486.45 "/>
<polyline clip-path="url(#clip810)" style="stroke:#000000; stroke-linecap:round; stroke-linejoin:round; stroke-width:4; stroke-opacity:1; fill:none" points="253.483,1486.45 253.483,1467.55 "/>
<polyline clip-path="url(#clip810)" style="stroke:#000000; stroke-linecap:round; stroke-linejoin:round; stroke-width:4; stroke-opacity:1; fill:none" points="763.015,1486.45 763.015,1467.55 "/>
<polyline clip-path="url(#clip810)" style="stroke:#000000; stroke-linecap:round; stroke-linejoin:round; stroke-width:4; stroke-opacity:1; fill:none" points="1272.55,1486.45 1272.55,1467.55 "/>
<polyline clip-path="url(#clip810)" style="stroke:#000000; stroke-linecap:round; stroke-linejoin:round; stroke-width:4; stroke-opacity:1; fill:none" points="1782.08,1486.45 1782.08,1467.55 "/>
<polyline clip-path="url(#clip810)" style="stroke:#000000; stroke-linecap:round; stroke-linejoin:round; stroke-width:4; stroke-opacity:1; fill:none" points="2291.61,1486.45 2291.61,1467.55 "/>
<path clip-path="url(#clip810)" d="M200.011 1532.02 L229.686 1532.02 L229.686 1535.95 L200.011 1535.95 L200.011 1532.02 Z" fill="#000000" fill-rule="nonzero" fill-opacity="1" /><path clip-path="url(#clip810)" d="M240.589 1544.91 L248.228 1544.91 L248.228 1518.55 L239.918 1520.21 L239.918 1515.95 L248.182 1514.29 L252.858 1514.29 L252.858 1544.91 L260.497 1544.91 L260.497 1548.85 L240.589 1548.85 L240.589 1544.91 Z" fill="#000000" fill-rule="nonzero" fill-opacity="1" /><path clip-path="url(#clip810)" d="M269.941 1542.97 L274.825 1542.97 L274.825 1548.85 L269.941 1548.85 L269.941 1542.97 Z" fill="#000000" fill-rule="nonzero" fill-opacity="1" /><path clip-path="url(#clip810)" d="M295.01 1517.37 Q291.399 1517.37 289.57 1520.93 Q287.765 1524.47 287.765 1531.6 Q287.765 1538.71 289.57 1542.27 Q291.399 1545.82 295.01 1545.82 Q298.644 1545.82 300.45 1542.27 Q302.279 1538.71 302.279 1531.6 Q302.279 1524.47 300.45 1520.93 Q298.644 1517.37 295.01 1517.37 M295.01 1513.66 Q300.82 1513.66 303.876 1518.27 Q306.955 1522.85 306.955 1531.6 Q306.955 1540.33 303.876 1544.94 Q300.82 1549.52 295.01 1549.52 Q289.2 1549.52 286.121 1544.94 Q283.066 1540.33 283.066 1531.6 Q283.066 1522.85 286.121 1518.27 Q289.2 1513.66 295.01 1513.66 Z" fill="#000000" fill-rule="nonzero" fill-opacity="1" /><path clip-path="url(#clip810)" d="M710.041 1532.02 L739.717 1532.02 L739.717 1535.95 L710.041 1535.95 L710.041 1532.02 Z" fill="#000000" fill-rule="nonzero" fill-opacity="1" /><path clip-path="url(#clip810)" d="M759.809 1517.37 Q756.198 1517.37 754.369 1520.93 Q752.564 1524.47 752.564 1531.6 Q752.564 1538.71 754.369 1542.27 Q756.198 1545.82 759.809 1545.82 Q763.443 1545.82 765.249 1542.27 Q767.077 1538.71 767.077 1531.6 Q767.077 1524.47 765.249 1520.93 Q763.443 1517.37 759.809 1517.37 M759.809 1513.66 Q765.619 1513.66 768.675 1518.27 Q771.753 1522.85 771.753 1531.6 Q771.753 1540.33 768.675 1544.94 Q765.619 1549.52 759.809 1549.52 Q753.999 1549.52 750.92 1544.94 Q747.865 1540.33 747.865 1531.6 Q747.865 1522.85 750.92 1518.27 Q753.999 1513.66 759.809 1513.66 Z" fill="#000000" fill-rule="nonzero" fill-opacity="1" /><path clip-path="url(#clip810)" d="M779.971 1542.97 L784.855 1542.97 L784.855 1548.85 L779.971 1548.85 L779.971 1542.97 Z" fill="#000000" fill-rule="nonzero" fill-opacity="1" /><path clip-path="url(#clip810)" d="M795.087 1514.29 L813.443 1514.29 L813.443 1518.22 L799.369 1518.22 L799.369 1526.7 Q800.387 1526.35 801.406 1526.19 Q802.425 1526 803.443 1526 Q809.23 1526 812.61 1529.17 Q815.989 1532.34 815.989 1537.76 Q815.989 1543.34 812.517 1546.44 Q809.045 1549.52 802.725 1549.52 Q800.55 1549.52 798.281 1549.15 Q796.036 1548.78 793.628 1548.04 L793.628 1543.34 Q795.712 1544.47 797.934 1545.03 Q800.156 1545.58 802.633 1545.58 Q806.637 1545.58 808.975 1543.48 Q811.313 1541.37 811.313 1537.76 Q811.313 1534.15 808.975 1532.04 Q806.637 1529.94 802.633 1529.94 Q800.758 1529.94 798.883 1530.35 Q797.031 1530.77 795.087 1531.65 L795.087 1514.29 Z" fill="#000000" fill-rule="nonzero" fill-opacity="1" /><path clip-path="url(#clip810)" d="M1249.93 1517.37 Q1246.32 1517.37 1244.49 1520.93 Q1242.69 1524.47 1242.69 1531.6 Q1242.69 1538.71 1244.49 1542.27 Q1246.32 1545.82 1249.93 1545.82 Q1253.57 1545.82 1255.37 1542.27 Q1257.2 1538.71 1257.2 1531.6 Q1257.2 1524.47 1255.37 1520.93 Q1253.57 1517.37 1249.93 1517.37 M1249.93 1513.66 Q1255.74 1513.66 1258.8 1518.27 Q1261.88 1522.85 1261.88 1531.6 Q1261.88 1540.33 1258.8 1544.94 Q1255.74 1549.52 1249.93 1549.52 Q1244.12 1549.52 1241.04 1544.94 Q1237.99 1540.33 1237.99 1531.6 Q1237.99 1522.85 1241.04 1518.27 Q1244.12 1513.66 1249.93 1513.66 Z" fill="#000000" fill-rule="nonzero" fill-opacity="1" /><path clip-path="url(#clip810)" d="M1270.09 1542.97 L1274.98 1542.97 L1274.98 1548.85 L1270.09 1548.85 L1270.09 1542.97 Z" fill="#000000" fill-rule="nonzero" fill-opacity="1" /><path clip-path="url(#clip810)" d="M1295.16 1517.37 Q1291.55 1517.37 1289.72 1520.93 Q1287.92 1524.47 1287.92 1531.6 Q1287.92 1538.71 1289.72 1542.27 Q1291.55 1545.82 1295.16 1545.82 Q1298.8 1545.82 1300.6 1542.27 Q1302.43 1538.71 1302.43 1531.6 Q1302.43 1524.47 1300.6 1520.93 Q1298.8 1517.37 1295.16 1517.37 M1295.16 1513.66 Q1300.97 1513.66 1304.03 1518.27 Q1307.11 1522.85 1307.11 1531.6 Q1307.11 1540.33 1304.03 1544.94 Q1300.97 1549.52 1295.16 1549.52 Q1289.35 1549.52 1286.27 1544.94 Q1283.22 1540.33 1283.22 1531.6 Q1283.22 1522.85 1286.27 1518.27 Q1289.35 1513.66 1295.16 1513.66 Z" fill="#000000" fill-rule="nonzero" fill-opacity="1" /><path clip-path="url(#clip810)" d="M1759.96 1517.37 Q1756.35 1517.37 1754.52 1520.93 Q1752.72 1524.47 1752.72 1531.6 Q1752.72 1538.71 1754.52 1542.27 Q1756.35 1545.82 1759.96 1545.82 Q1763.6 1545.82 1765.4 1542.27 Q1767.23 1538.71 1767.23 1531.6 Q1767.23 1524.47 1765.4 1520.93 Q1763.6 1517.37 1759.96 1517.37 M1759.96 1513.66 Q1765.77 1513.66 1768.83 1518.27 Q1771.91 1522.85 1771.91 1531.6 Q1771.91 1540.33 1768.83 1544.94 Q1765.77 1549.52 1759.96 1549.52 Q1754.15 1549.52 1751.07 1544.94 Q1748.02 1540.33 1748.02 1531.6 Q1748.02 1522.85 1751.07 1518.27 Q1754.15 1513.66 1759.96 1513.66 Z" fill="#000000" fill-rule="nonzero" fill-opacity="1" /><path clip-path="url(#clip810)" d="M1780.12 1542.97 L1785.01 1542.97 L1785.01 1548.85 L1780.12 1548.85 L1780.12 1542.97 Z" fill="#000000" fill-rule="nonzero" fill-opacity="1" /><path clip-path="url(#clip810)" d="M1795.24 1514.29 L1813.6 1514.29 L1813.6 1518.22 L1799.52 1518.22 L1799.52 1526.7 Q1800.54 1526.35 1801.56 1526.19 Q1802.58 1526 1803.6 1526 Q1809.38 1526 1812.76 1529.17 Q1816.14 1532.34 1816.14 1537.76 Q1816.14 1543.34 1812.67 1546.44 Q1809.2 1549.52 1802.88 1549.52 Q1800.7 1549.52 1798.43 1549.15 Q1796.19 1548.78 1793.78 1548.04 L1793.78 1543.34 Q1795.86 1544.47 1798.09 1545.03 Q1800.31 1545.58 1802.79 1545.58 Q1806.79 1545.58 1809.13 1543.48 Q1811.47 1541.37 1811.47 1537.76 Q1811.47 1534.15 1809.13 1532.04 Q1806.79 1529.94 1802.79 1529.94 Q1800.91 1529.94 1799.04 1530.35 Q1797.18 1530.77 1795.24 1531.65 L1795.24 1514.29 Z" fill="#000000" fill-rule="nonzero" fill-opacity="1" /><path clip-path="url(#clip810)" d="M2258.76 1544.91 L2266.4 1544.91 L2266.4 1518.55 L2258.09 1520.21 L2258.09 1515.95 L2266.36 1514.29 L2271.03 1514.29 L2271.03 1544.91 L2278.67 1544.91 L2278.67 1548.85 L2258.76 1548.85 L2258.76 1544.91 Z" fill="#000000" fill-rule="nonzero" fill-opacity="1" /><path clip-path="url(#clip810)" d="M2288.12 1542.97 L2293 1542.97 L2293 1548.85 L2288.12 1548.85 L2288.12 1542.97 Z" fill="#000000" fill-rule="nonzero" fill-opacity="1" /><path clip-path="url(#clip810)" d="M2313.19 1517.37 Q2309.57 1517.37 2307.75 1520.93 Q2305.94 1524.47 2305.94 1531.6 Q2305.94 1538.71 2307.75 1542.27 Q2309.57 1545.82 2313.19 1545.82 Q2316.82 1545.82 2318.63 1542.27 Q2320.45 1538.71 2320.45 1531.6 Q2320.45 1524.47 2318.63 1520.93 Q2316.82 1517.37 2313.19 1517.37 M2313.19 1513.66 Q2319 1513.66 2322.05 1518.27 Q2325.13 1522.85 2325.13 1531.6 Q2325.13 1540.33 2322.05 1544.94 Q2319 1549.52 2313.19 1549.52 Q2307.38 1549.52 2304.3 1544.94 Q2301.24 1540.33 2301.24 1531.6 Q2301.24 1522.85 2304.3 1518.27 Q2307.38 1513.66 2313.19 1513.66 Z" fill="#000000" fill-rule="nonzero" fill-opacity="1" /><polyline clip-path="url(#clip812)" style="stroke:#000000; stroke-linecap:round; stroke-linejoin:round; stroke-width:2; stroke-opacity:0.1; fill:none" points="192.339,1352.76 2352.76,1352.76 "/>
<polyline clip-path="url(#clip812)" style="stroke:#000000; stroke-linecap:round; stroke-linejoin:round; stroke-width:2; stroke-opacity:0.1; fill:none" points="192.339,1181.65 2352.76,1181.65 "/>
<polyline clip-path="url(#clip812)" style="stroke:#000000; stroke-linecap:round; stroke-linejoin:round; stroke-width:2; stroke-opacity:0.1; fill:none" points="192.339,1010.54 2352.76,1010.54 "/>
<polyline clip-path="url(#clip812)" style="stroke:#000000; stroke-linecap:round; stroke-linejoin:round; stroke-width:2; stroke-opacity:0.1; fill:none" points="192.339,839.427 2352.76,839.427 "/>
<polyline clip-path="url(#clip812)" style="stroke:#000000; stroke-linecap:round; stroke-linejoin:round; stroke-width:2; stroke-opacity:0.1; fill:none" points="192.339,668.315 2352.76,668.315 "/>
<polyline clip-path="url(#clip812)" style="stroke:#000000; stroke-linecap:round; stroke-linejoin:round; stroke-width:2; stroke-opacity:0.1; fill:none" points="192.339,497.203 2352.76,497.203 "/>
<polyline clip-path="url(#clip812)" style="stroke:#000000; stroke-linecap:round; stroke-linejoin:round; stroke-width:2; stroke-opacity:0.1; fill:none" points="192.339,326.091 2352.76,326.091 "/>
<polyline clip-path="url(#clip812)" style="stroke:#000000; stroke-linecap:round; stroke-linejoin:round; stroke-width:2; stroke-opacity:0.1; fill:none" points="192.339,154.979 2352.76,154.979 "/>
<polyline clip-path="url(#clip810)" style="stroke:#000000; stroke-linecap:round; stroke-linejoin:round; stroke-width:4; stroke-opacity:1; fill:none" points="192.339,1486.45 192.339,47.2441 "/>
<polyline clip-path="url(#clip810)" style="stroke:#000000; stroke-linecap:round; stroke-linejoin:round; stroke-width:4; stroke-opacity:1; fill:none" points="192.339,1352.76 211.236,1352.76 "/>
<polyline clip-path="url(#clip810)" style="stroke:#000000; stroke-linecap:round; stroke-linejoin:round; stroke-width:4; stroke-opacity:1; fill:none" points="192.339,1181.65 211.236,1181.65 "/>
<polyline clip-path="url(#clip810)" style="stroke:#000000; stroke-linecap:round; stroke-linejoin:round; stroke-width:4; stroke-opacity:1; fill:none" points="192.339,1010.54 211.236,1010.54 "/>
<polyline clip-path="url(#clip810)" style="stroke:#000000; stroke-linecap:round; stroke-linejoin:round; stroke-width:4; stroke-opacity:1; fill:none" points="192.339,839.427 211.236,839.427 "/>
<polyline clip-path="url(#clip810)" style="stroke:#000000; stroke-linecap:round; stroke-linejoin:round; stroke-width:4; stroke-opacity:1; fill:none" points="192.339,668.315 211.236,668.315 "/>
<polyline clip-path="url(#clip810)" style="stroke:#000000; stroke-linecap:round; stroke-linejoin:round; stroke-width:4; stroke-opacity:1; fill:none" points="192.339,497.203 211.236,497.203 "/>
<polyline clip-path="url(#clip810)" style="stroke:#000000; stroke-linecap:round; stroke-linejoin:round; stroke-width:4; stroke-opacity:1; fill:none" points="192.339,326.091 211.236,326.091 "/>
<polyline clip-path="url(#clip810)" style="stroke:#000000; stroke-linecap:round; stroke-linejoin:round; stroke-width:4; stroke-opacity:1; fill:none" points="192.339,154.979 211.236,154.979 "/>
<path clip-path="url(#clip810)" d="M50.9921 1353.21 L80.6679 1353.21 L80.6679 1357.15 L50.9921 1357.15 L50.9921 1353.21 Z" fill="#000000" fill-rule="nonzero" fill-opacity="1" /><path clip-path="url(#clip810)" d="M100.76 1338.56 Q97.1493 1338.56 95.3206 1342.13 Q93.515 1345.67 93.515 1352.8 Q93.515 1359.9 95.3206 1363.47 Q97.1493 1367.01 100.76 1367.01 Q104.395 1367.01 106.2 1363.47 Q108.029 1359.9 108.029 1352.8 Q108.029 1345.67 106.2 1342.13 Q104.395 1338.56 100.76 1338.56 M100.76 1334.86 Q106.571 1334.86 109.626 1339.46 Q112.705 1344.05 112.705 1352.8 Q112.705 1361.52 109.626 1366.13 Q106.571 1370.71 100.76 1370.71 Q94.9502 1370.71 91.8715 1366.13 Q88.816 1361.52 88.816 1352.8 Q88.816 1344.05 91.8715 1339.46 Q94.9502 1334.86 100.76 1334.86 Z" fill="#000000" fill-rule="nonzero" fill-opacity="1" /><path clip-path="url(#clip810)" d="M120.922 1364.16 L125.807 1364.16 L125.807 1370.04 L120.922 1370.04 L120.922 1364.16 Z" fill="#000000" fill-rule="nonzero" fill-opacity="1" /><path clip-path="url(#clip810)" d="M140.019 1366.11 L156.339 1366.11 L156.339 1370.04 L134.394 1370.04 L134.394 1366.11 Q137.056 1363.35 141.64 1358.72 Q146.246 1354.07 147.427 1352.73 Q149.672 1350.2 150.552 1348.47 Q151.455 1346.71 151.455 1345.02 Q151.455 1342.26 149.51 1340.53 Q147.589 1338.79 144.487 1338.79 Q142.288 1338.79 139.834 1339.56 Q137.404 1340.32 134.626 1341.87 L134.626 1337.15 Q137.45 1336.01 139.904 1335.44 Q142.357 1334.86 144.394 1334.86 Q149.765 1334.86 152.959 1337.54 Q156.154 1340.23 156.154 1344.72 Q156.154 1346.85 155.343 1348.77 Q154.556 1350.67 152.45 1353.26 Q151.871 1353.93 148.769 1357.15 Q145.668 1360.34 140.019 1366.11 Z" fill="#000000" fill-rule="nonzero" fill-opacity="1" /><path clip-path="url(#clip810)" d="M99.1632 1167.45 Q95.5521 1167.45 93.7234 1171.01 Q91.9178 1174.56 91.9178 1181.69 Q91.9178 1188.79 93.7234 1192.36 Q95.5521 1195.9 99.1632 1195.9 Q102.797 1195.9 104.603 1192.36 Q106.432 1188.79 106.432 1181.69 Q106.432 1174.56 104.603 1171.01 Q102.797 1167.45 99.1632 1167.45 M99.1632 1163.75 Q104.973 1163.75 108.029 1168.35 Q111.108 1172.94 111.108 1181.69 Q111.108 1190.41 108.029 1195.02 Q104.973 1199.6 99.1632 1199.6 Q93.353 1199.6 90.2743 1195.02 Q87.2188 1190.41 87.2188 1181.69 Q87.2188 1172.94 90.2743 1168.35 Q93.353 1163.75 99.1632 1163.75 Z" fill="#000000" fill-rule="nonzero" fill-opacity="1" /><path clip-path="url(#clip810)" d="M119.325 1193.05 L124.209 1193.05 L124.209 1198.93 L119.325 1198.93 L119.325 1193.05 Z" fill="#000000" fill-rule="nonzero" fill-opacity="1" /><path clip-path="url(#clip810)" d="M144.394 1167.45 Q140.783 1167.45 138.955 1171.01 Q137.149 1174.56 137.149 1181.69 Q137.149 1188.79 138.955 1192.36 Q140.783 1195.9 144.394 1195.9 Q148.029 1195.9 149.834 1192.36 Q151.663 1188.79 151.663 1181.69 Q151.663 1174.56 149.834 1171.01 Q148.029 1167.45 144.394 1167.45 M144.394 1163.75 Q150.205 1163.75 153.26 1168.35 Q156.339 1172.94 156.339 1181.69 Q156.339 1190.41 153.26 1195.02 Q150.205 1199.6 144.394 1199.6 Q138.584 1199.6 135.506 1195.02 Q132.45 1190.41 132.45 1181.69 Q132.45 1172.94 135.506 1168.35 Q138.584 1163.75 144.394 1163.75 Z" fill="#000000" fill-rule="nonzero" fill-opacity="1" /><path clip-path="url(#clip810)" d="M100.76 996.337 Q97.1493 996.337 95.3206 999.902 Q93.515 1003.44 93.515 1010.57 Q93.515 1017.68 95.3206 1021.24 Q97.1493 1024.79 100.76 1024.79 Q104.395 1024.79 106.2 1021.24 Q108.029 1017.68 108.029 1010.57 Q108.029 1003.44 106.2 999.902 Q104.395 996.337 100.76 996.337 M100.76 992.634 Q106.571 992.634 109.626 997.24 Q112.705 1001.82 112.705 1010.57 Q112.705 1019.3 109.626 1023.91 Q106.571 1028.49 100.76 1028.49 Q94.9502 1028.49 91.8715 1023.91 Q88.816 1019.3 88.816 1010.57 Q88.816 1001.82 91.8715 997.24 Q94.9502 992.634 100.76 992.634 Z" fill="#000000" fill-rule="nonzero" fill-opacity="1" /><path clip-path="url(#clip810)" d="M120.922 1021.94 L125.807 1021.94 L125.807 1027.82 L120.922 1027.82 L120.922 1021.94 Z" fill="#000000" fill-rule="nonzero" fill-opacity="1" /><path clip-path="url(#clip810)" d="M140.019 1023.88 L156.339 1023.88 L156.339 1027.82 L134.394 1027.82 L134.394 1023.88 Q137.056 1021.13 141.64 1016.5 Q146.246 1011.85 147.427 1010.5 Q149.672 1007.98 150.552 1006.24 Q151.455 1004.49 151.455 1002.8 Q151.455 1000.04 149.51 998.305 Q147.589 996.569 144.487 996.569 Q142.288 996.569 139.834 997.333 Q137.404 998.097 134.626 999.648 L134.626 994.925 Q137.45 993.791 139.904 993.212 Q142.357 992.634 144.394 992.634 Q149.765 992.634 152.959 995.319 Q156.154 998.004 156.154 1002.49 Q156.154 1004.62 155.343 1006.55 Q154.556 1008.44 152.45 1011.04 Q151.871 1011.71 148.769 1014.93 Q145.668 1018.12 140.019 1023.88 Z" fill="#000000" fill-rule="nonzero" fill-opacity="1" /><path clip-path="url(#clip810)" d="M98.6771 825.226 Q95.066 825.226 93.2373 828.79 Q91.4317 832.332 91.4317 839.462 Q91.4317 846.568 93.2373 850.133 Q95.066 853.675 98.6771 853.675 Q102.311 853.675 104.117 850.133 Q105.946 846.568 105.946 839.462 Q105.946 832.332 104.117 828.79 Q102.311 825.226 98.6771 825.226 M98.6771 821.522 Q104.487 821.522 107.543 826.128 Q110.621 830.712 110.621 839.462 Q110.621 848.188 107.543 852.795 Q104.487 857.378 98.6771 857.378 Q92.8669 857.378 89.7882 852.795 Q86.7327 848.188 86.7327 839.462 Q86.7327 830.712 89.7882 826.128 Q92.8669 821.522 98.6771 821.522 Z" fill="#000000" fill-rule="nonzero" fill-opacity="1" /><path clip-path="url(#clip810)" d="M118.839 850.827 L123.723 850.827 L123.723 856.707 L118.839 856.707 L118.839 850.827 Z" fill="#000000" fill-rule="nonzero" fill-opacity="1" /><path clip-path="url(#clip810)" d="M146.756 826.221 L134.95 844.67 L146.756 844.67 L146.756 826.221 M145.529 822.147 L151.408 822.147 L151.408 844.67 L156.339 844.67 L156.339 848.559 L151.408 848.559 L151.408 856.707 L146.756 856.707 L146.756 848.559 L131.154 848.559 L131.154 844.045 L145.529 822.147 Z" fill="#000000" fill-rule="nonzero" fill-opacity="1" /><path clip-path="url(#clip810)" d="M99.0011 654.114 Q95.39 654.114 93.5613 657.678 Q91.7558 661.22 91.7558 668.35 Q91.7558 675.456 93.5613 679.021 Q95.39 682.563 99.0011 682.563 Q102.635 682.563 104.441 679.021 Q106.27 675.456 106.27 668.35 Q106.27 661.22 104.441 657.678 Q102.635 654.114 99.0011 654.114 M99.0011 650.41 Q104.811 650.41 107.867 655.016 Q110.946 659.6 110.946 668.35 Q110.946 677.077 107.867 681.683 Q104.811 686.266 99.0011 686.266 Q93.191 686.266 90.1123 681.683 Q87.0567 677.077 87.0567 668.35 Q87.0567 659.6 90.1123 655.016 Q93.191 650.41 99.0011 650.41 Z" fill="#000000" fill-rule="nonzero" fill-opacity="1" /><path clip-path="url(#clip810)" d="M119.163 679.715 L124.047 679.715 L124.047 685.595 L119.163 685.595 L119.163 679.715 Z" fill="#000000" fill-rule="nonzero" fill-opacity="1" /><path clip-path="url(#clip810)" d="M144.811 666.452 Q141.663 666.452 139.811 668.604 Q137.982 670.757 137.982 674.507 Q137.982 678.234 139.811 680.41 Q141.663 682.563 144.811 682.563 Q147.959 682.563 149.788 680.41 Q151.64 678.234 151.64 674.507 Q151.64 670.757 149.788 668.604 Q147.959 666.452 144.811 666.452 M154.093 651.799 L154.093 656.058 Q152.334 655.225 150.529 654.785 Q148.746 654.345 146.987 654.345 Q142.357 654.345 139.904 657.47 Q137.473 660.595 137.126 666.915 Q138.492 664.901 140.552 663.836 Q142.612 662.748 145.089 662.748 Q150.297 662.748 153.306 665.919 Q156.339 669.067 156.339 674.507 Q156.339 679.831 153.191 683.049 Q150.043 686.266 144.811 686.266 Q138.816 686.266 135.644 681.683 Q132.473 677.077 132.473 668.35 Q132.473 660.155 136.362 655.294 Q140.251 650.41 146.802 650.41 Q148.561 650.41 150.343 650.757 Q152.149 651.104 154.093 651.799 Z" fill="#000000" fill-rule="nonzero" fill-opacity="1" /><path clip-path="url(#clip810)" d="M99.2558 483.002 Q95.6447 483.002 93.816 486.567 Q92.0104 490.108 92.0104 497.238 Q92.0104 504.344 93.816 507.909 Q95.6447 511.451 99.2558 511.451 Q102.89 511.451 104.696 507.909 Q106.524 504.344 106.524 497.238 Q106.524 490.108 104.696 486.567 Q102.89 483.002 99.2558 483.002 M99.2558 479.298 Q105.066 479.298 108.121 483.905 Q111.2 488.488 111.2 497.238 Q111.2 505.965 108.121 510.571 Q105.066 515.154 99.2558 515.154 Q93.4456 515.154 90.3669 510.571 Q87.3114 505.965 87.3114 497.238 Q87.3114 488.488 90.3669 483.905 Q93.4456 479.298 99.2558 479.298 Z" fill="#000000" fill-rule="nonzero" fill-opacity="1" /><path clip-path="url(#clip810)" d="M119.418 508.604 L124.302 508.604 L124.302 514.483 L119.418 514.483 L119.418 508.604 Z" fill="#000000" fill-rule="nonzero" fill-opacity="1" /><path clip-path="url(#clip810)" d="M144.487 498.071 Q141.154 498.071 139.232 499.854 Q137.334 501.636 137.334 504.761 Q137.334 507.886 139.232 509.668 Q141.154 511.451 144.487 511.451 Q147.82 511.451 149.742 509.668 Q151.663 507.863 151.663 504.761 Q151.663 501.636 149.742 499.854 Q147.843 498.071 144.487 498.071 M139.811 496.08 Q136.802 495.34 135.112 493.28 Q133.445 491.219 133.445 488.256 Q133.445 484.113 136.385 481.706 Q139.348 479.298 144.487 479.298 Q149.649 479.298 152.589 481.706 Q155.529 484.113 155.529 488.256 Q155.529 491.219 153.839 493.28 Q152.172 495.34 149.186 496.08 Q152.566 496.867 154.441 499.159 Q156.339 501.451 156.339 504.761 Q156.339 509.784 153.26 512.469 Q150.205 515.154 144.487 515.154 Q138.769 515.154 135.691 512.469 Q132.635 509.784 132.635 504.761 Q132.635 501.451 134.533 499.159 Q136.431 496.867 139.811 496.08 M138.098 488.696 Q138.098 491.381 139.765 492.886 Q141.455 494.391 144.487 494.391 Q147.496 494.391 149.186 492.886 Q150.899 491.381 150.899 488.696 Q150.899 486.011 149.186 484.506 Q147.496 483.002 144.487 483.002 Q141.455 483.002 139.765 484.506 Q138.098 486.011 138.098 488.696 Z" fill="#000000" fill-rule="nonzero" fill-opacity="1" /><path clip-path="url(#clip810)" d="M89.9734 339.436 L97.6122 339.436 L97.6122 313.07 L89.3021 314.737 L89.3021 310.478 L97.566 308.811 L102.242 308.811 L102.242 339.436 L109.881 339.436 L109.881 343.371 L89.9734 343.371 L89.9734 339.436 Z" fill="#000000" fill-rule="nonzero" fill-opacity="1" /><path clip-path="url(#clip810)" d="M119.325 337.492 L124.209 337.492 L124.209 343.371 L119.325 343.371 L119.325 337.492 Z" fill="#000000" fill-rule="nonzero" fill-opacity="1" /><path clip-path="url(#clip810)" d="M144.394 311.89 Q140.783 311.89 138.955 315.455 Q137.149 318.996 137.149 326.126 Q137.149 333.232 138.955 336.797 Q140.783 340.339 144.394 340.339 Q148.029 340.339 149.834 336.797 Q151.663 333.232 151.663 326.126 Q151.663 318.996 149.834 315.455 Q148.029 311.89 144.394 311.89 M144.394 308.186 Q150.205 308.186 153.26 312.793 Q156.339 317.376 156.339 326.126 Q156.339 334.853 153.26 339.459 Q150.205 344.043 144.394 344.043 Q138.584 344.043 135.506 339.459 Q132.45 334.853 132.45 326.126 Q132.45 317.376 135.506 312.793 Q138.584 308.186 144.394 308.186 Z" fill="#000000" fill-rule="nonzero" fill-opacity="1" /><path clip-path="url(#clip810)" d="M91.5706 168.324 L99.2095 168.324 L99.2095 141.959 L90.8993 143.625 L90.8993 139.366 L99.1632 137.699 L103.839 137.699 L103.839 168.324 L111.478 168.324 L111.478 172.259 L91.5706 172.259 L91.5706 168.324 Z" fill="#000000" fill-rule="nonzero" fill-opacity="1" /><path clip-path="url(#clip810)" d="M120.922 166.38 L125.807 166.38 L125.807 172.259 L120.922 172.259 L120.922 166.38 Z" fill="#000000" fill-rule="nonzero" fill-opacity="1" /><path clip-path="url(#clip810)" d="M140.019 168.324 L156.339 168.324 L156.339 172.259 L134.394 172.259 L134.394 168.324 Q137.056 165.57 141.64 160.94 Q146.246 156.287 147.427 154.945 Q149.672 152.421 150.552 150.685 Q151.455 148.926 151.455 147.236 Q151.455 144.482 149.51 142.746 Q147.589 141.01 144.487 141.01 Q142.288 141.01 139.834 141.773 Q137.404 142.537 134.626 144.088 L134.626 139.366 Q137.45 138.232 139.904 137.653 Q142.357 137.074 144.394 137.074 Q149.765 137.074 152.959 139.76 Q156.154 142.445 156.154 146.935 Q156.154 149.065 155.343 150.986 Q154.556 152.884 152.45 155.477 Q151.871 156.148 148.769 159.366 Q145.668 162.56 140.019 168.324 Z" fill="#000000" fill-rule="nonzero" fill-opacity="1" /><polyline clip-path="url(#clip812)" style="stroke:#009af9; stroke-linecap:round; stroke-linejoin:round; stroke-width:16; stroke-opacity:1; fill:none" stroke-dasharray="8, 16" points="253.483,1053.28 263.725,1044.3 273.966,1038.16 284.208,1027.7 294.45,1011.6 304.692,1000.49 314.934,1006.17 325.176,1026.72 335.418,1052.92 345.659,1079.59 355.901,1106.06 366.143,1133.12 376.385,1161.32 386.627,1190.7 396.869,1220.72 407.111,1250.37 417.352,1278.28 427.594,1303.04 437.836,1323.42 448.078,1338.58 458.32,1348.11 468.562,1351.95 478.803,1350.37 489.045,1343.86 499.287,1333.03 509.529,1318.42 519.771,1299.98 530.013,1276.66 540.255,1246.4 550.497,1208.92 560.738,1170.27 570.98,1138.93 581.222,1117.01 591.464,1099.76 601.706,1080.81 611.948,1057.7 622.19,1034.41 632.431,1016.7 642.673,1006.7 652.915,1004.73 663.157,1011.81 673.399,1027.43 683.641,1047.42 693.882,1067.13 704.124,1086.32 714.366,1108.36 724.608,1135.4 734.85,1166.45 745.092,1198.98 755.334,1230.7 765.575,1260.11 775.817,1286.32 786.059,1308.75 796.301,1326.93 806.543,1340.48 816.785,1349.07 827.027,1352.43 837.268,1350.35 847.51,1342.73 857.752,1329.67 867.994,1311.64 878.236,1289.53 888.478,1264.34 898.72,1236.76 908.961,1206.87 919.203,1174.43 929.445,1139.99 939.687,1106.45 949.929,1079.15 960.171,1062.67 970.413,1055.88 980.654,1047.25 990.896,1023.11 1001.14,1010.33 1011.38,1025.19 1021.62,1028.39 1031.86,1009.53 1042.11,1037.42 1052.35,1109.33 1062.59,1170.5 1072.83,1187.15 1083.07,1161.95 1093.31,1121.47 1103.56,1109.06 1113.8,1147.22 1124.04,1234.6 1134.28,1371.55 1144.52,1445.72 1154.77,1433.75 1165.01,1371.5 1175.25,1295.55 1185.49,1239.7 1195.73,1301.7 1205.98,1360.86 1216.22,1299.76 1226.46,1281.02 1236.7,1293.66 1246.94,1275.42 1257.18,1182.44 1267.43,960.586 1277.67,641.775 1287.91,410.041 1298.15,262.032 1308.39,184.086 1318.64,217.014 1328.88,325.502 1339.12,321.493 1349.36,262.131 1359.6,255.828 1369.84,285.605 1380.09,313.929 1390.33,322.573 1400.57,318.115 1410.81,314.217 1421.05,325.501 1431.3,334.324 1441.54,334.286 1451.78,368.737 1462.02,362.763 1472.26,333.188 1482.51,303.557 1492.75,277.83 1502.99,276.262 1513.23,302.268 1523.47,331.601 1533.71,345.439 1543.96,337.769 1554.2,337.527 1564.44,364.528 1574.68,386.258 1584.92,378.654 1595.17,336.587 1605.41,276.333 1615.65,235.479 1625.89,237.379 1636.13,267.859 1646.38,306.517 1656.62,343.329 1666.86,373.504 1677.1,393.981 1687.34,402.473 1697.58,396.892 1707.83,375.412 1718.07,337.939 1728.31,288.848 1738.55,239.858 1748.79,210.216 1759.04,218.793 1769.28,268.567 1779.52,341.019 1789.76,409.643 1800,454.036 1810.24,462.88 1820.49,432.37 1830.73,366.276 1840.97,277.283 1851.21,189.54 1861.45,141.024 1871.7,166.734 1881.94,255.344 1892.18,355.473 1902.42,431.279 1912.66,470.639 1922.91,473.037 1933.15,444.108 1943.39,391.887 1953.63,323.643 1963.87,247.265 1974.11,178.747 1984.36,146.606 1994.6,171.655 2004.84,242.874 2015.08,334.293 2025.32,424.419 2035.57,494.301 2045.81,525.623 2056.05,504.425 2066.29,426.542 2076.53,305.381 2086.77,180.747 2097.02,106.532 2107.26,109.077 2117.5,175.044 2127.74,275.06 2137.98,380.218 2148.23,470.187 2158.47,530.485 2168.71,540.58 2178.95,477.479 2189.19,352.896 2199.44,217.373 2209.68,136.94 2219.92,144.526 2230.16,201.333 2240.4,263.603 2250.64,319.848 2260.89,375.097 2271.13,433.08 2281.37,489.848 2291.61,539.155 "/>
<polyline clip-path="url(#clip812)" style="stroke:#e26f46; stroke-linecap:round; stroke-linejoin:round; stroke-width:4; stroke-opacity:1; fill:none" points="253.483,1053.15 263.725,1034.92 273.966,1021.47 284.208,1013.26 294.45,1010.54 304.692,1013.4 314.934,1021.76 325.176,1035.34 335.418,1053.69 345.659,1076.21 355.901,1102.18 366.143,1130.74 376.385,1160.97 386.627,1191.86 396.869,1222.43 407.111,1251.66 417.352,1278.61 427.594,1302.4 437.836,1322.24 448.078,1337.49 458.32,1347.66 468.562,1352.41 478.803,1351.59 489.045,1345.22 499.287,1333.51 509.529,1316.85 519.771,1295.77 530.013,1270.97 540.255,1243.26 550.497,1213.53 560.738,1182.76 570.98,1151.96 581.222,1122.12 591.464,1094.23 601.706,1069.19 611.948,1047.82 622.19,1030.82 632.431,1018.75 642.673,1011.98 652.915,1010.76 663.157,1015.11 673.399,1024.9 683.641,1039.81 693.882,1059.34 704.124,1082.87 714.366,1109.62 724.608,1138.72 734.85,1169.22 745.092,1200.13 755.334,1230.43 765.575,1259.15 775.817,1285.33 786.059,1308.13 796.301,1326.8 806.543,1340.73 816.785,1349.48 827.027,1352.74 837.268,1350.42 847.51,1342.6 857.752,1329.52 867.994,1311.61 878.236,1289.46 888.478,1263.8 898.72,1235.45 908.961,1205.35 919.203,1174.47 929.445,1143.83 939.687,1114.42 949.929,1087.21 960.171,1063.08 970.413,1042.81 980.654,1027.08 990.896,1016.4 1001.14,1011.11 1011.38,1011.38 1021.62,1017.21 1031.86,1028.41 1042.11,1044.61 1052.35,1065.28 1062.59,1089.75 1072.83,1117.22 1083.07,1146.79 1093.31,1177.5 1103.56,1208.35 1113.8,1238.32 1124.04,1266.45 1134.28,1291.8 1144.52,1313.56 1154.77,1331.02 1165.01,1343.6 1175.25,1350.9 1185.49,1352.67 1195.73,1348.86 1205.98,1339.59 1216.22,1325.17 1226.46,1306.06 1236.7,1282.9 1246.94,1256.43 1257.18,1227.52 1267.43,1197.11 1277.67,324.849 1287.91,323.435 1298.15,324.722 1308.39,329.006 1318.64,334.974 1328.88,340.105 1339.12,341.625 1349.36,337.677 1359.6,328.265 1369.84,315.578 1380.09,303.505 1390.33,296.452 1400.57,297.805 1410.81,308.566 1421.05,326.666 1431.3,347.265 1441.54,364.039 1451.78,371.115 1462.02,365.058 1472.26,346.265 1482.51,319.233 1492.75,291.531 1502.99,271.676 1513.23,266.533 1523.47,279.001 1533.71,306.78 1543.96,342.655 1554.2,376.355 1564.44,397.491 1574.68,398.743 1584.92,378.323 1595.17,340.901 1605.41,296.602 1615.65,258.284 1625.89,237.801 1636.13,242.355 1646.38,272.052 1656.62,319.461 1666.86,371.433 1677.1,412.746 1687.34,430.557 1697.58,418.377 1707.83,378.326 1718.07,320.92 1728.31,262.34 1738.55,219.864 1748.79,206.782 1759.04,228.263 1769.28,279.461 1779.52,346.533 1789.76,410.36 1800,452.003 1810.24,458.31 1820.49,426.044 1830.73,363.216 1840.97,287.15 1851.21,219.71 1861.45,181.021 1871.7,183.467 1881.94,227.771 1892.18,302.376 1902.42,386.43 1912.66,455.608 1922.91,489.152 1933.15,476.09 1943.39,418.768 1953.63,332.585 1963.87,241.873 1974.11,173.031 1984.36,146.845 1994.6,172.222 2004.84,243.238 2015.08,340.445 2025.32,436.184 2035.57,502.453 2045.81,519.099 2056.05,479.921 2066.29,394.867 2076.53,287.547 2086.77,188.687 2097.02,127.337 2107.26,122.332 2117.5,176.54 2127.74,275.621 2137.98,391.797 2148.23,491.631 2158.47,545.653 2168.71,537.052 2178.95,466.878 2189.19,354.147 2199.44,230.709 2209.68,132.25 2219.92,87.9763 2230.16,111.961 2240.4,198.708 2250.64,324.334 2260.89,453.129 2271.13,547.709 2281.37,579.859 2291.61,538.948 "/>
<path clip-path="url(#clip810)" d="M264.353 250.738 L707.222 250.738 L707.222 95.2176 L264.353 95.2176  Z" fill="#ffffff" fill-rule="evenodd" fill-opacity="1"/>
<polyline clip-path="url(#clip810)" style="stroke:#000000; stroke-linecap:round; stroke-linejoin:round; stroke-width:4; stroke-opacity:1; fill:none" points="264.353,250.738 707.222,250.738 707.222,95.2176 264.353,95.2176 264.353,250.738 "/>
<polyline clip-path="url(#clip810)" style="stroke:#009af9; stroke-linecap:round; stroke-linejoin:round; stroke-width:16; stroke-opacity:1; fill:none" stroke-dasharray="8, 16" points="288.357,147.058 432.385,147.058 "/>
<path clip-path="url(#clip810)" d="M461.066 133.62 L461.066 146.606 L466.945 146.606 Q470.209 146.606 471.992 144.916 Q473.774 143.227 473.774 140.102 Q473.774 137 471.992 135.31 Q470.209 133.62 466.945 133.62 L461.066 133.62 M456.39 129.778 L466.945 129.778 Q472.755 129.778 475.718 132.416 Q478.704 135.032 478.704 140.102 Q478.704 145.217 475.718 147.833 Q472.755 150.449 466.945 150.449 L461.066 150.449 L461.066 164.338 L456.39 164.338 L456.39 129.778 Z" fill="#000000" fill-rule="nonzero" fill-opacity="1" /><path clip-path="url(#clip810)" d="M498.982 142.393 Q498.265 141.977 497.408 141.791 Q496.575 141.583 495.556 141.583 Q491.945 141.583 490.001 143.944 Q488.079 146.282 488.079 150.68 L488.079 164.338 L483.797 164.338 L483.797 138.412 L488.079 138.412 L488.079 142.44 Q489.422 140.078 491.575 138.944 Q493.728 137.787 496.806 137.787 Q497.246 137.787 497.778 137.856 Q498.311 137.903 498.959 138.018 L498.982 142.393 Z" fill="#000000" fill-rule="nonzero" fill-opacity="1" /><path clip-path="url(#clip810)" d="M524.584 150.31 L524.584 152.393 L505.001 152.393 Q505.278 156.791 507.639 159.106 Q510.024 161.398 514.26 161.398 Q516.714 161.398 519.005 160.796 Q521.32 160.194 523.588 158.99 L523.588 163.018 Q521.297 163.99 518.889 164.5 Q516.482 165.009 514.005 165.009 Q507.802 165.009 504.167 161.398 Q500.556 157.787 500.556 151.629 Q500.556 145.264 503.982 141.537 Q507.431 137.787 513.264 137.787 Q518.496 137.787 521.528 141.166 Q524.584 144.523 524.584 150.31 M520.325 149.06 Q520.278 145.565 518.357 143.481 Q516.459 141.398 513.311 141.398 Q509.746 141.398 507.593 143.412 Q505.464 145.426 505.14 149.083 L520.325 149.06 Z" fill="#000000" fill-rule="nonzero" fill-opacity="1" /><path clip-path="url(#clip810)" d="M548.635 142.347 L548.635 128.319 L552.894 128.319 L552.894 164.338 L548.635 164.338 L548.635 160.449 Q547.292 162.763 545.232 163.898 Q543.195 165.009 540.325 165.009 Q535.625 165.009 532.663 161.259 Q529.723 157.509 529.723 151.398 Q529.723 145.287 532.663 141.537 Q535.625 137.787 540.325 137.787 Q543.195 137.787 545.232 138.921 Q547.292 140.032 548.635 142.347 M534.121 151.398 Q534.121 156.097 536.042 158.782 Q537.987 161.444 541.366 161.444 Q544.746 161.444 546.69 158.782 Q548.635 156.097 548.635 151.398 Q548.635 146.699 546.69 144.037 Q544.746 141.352 541.366 141.352 Q537.987 141.352 536.042 144.037 Q534.121 146.699 534.121 151.398 Z" fill="#000000" fill-rule="nonzero" fill-opacity="1" /><path clip-path="url(#clip810)" d="M561.667 138.412 L565.926 138.412 L565.926 164.338 L561.667 164.338 L561.667 138.412 M561.667 128.319 L565.926 128.319 L565.926 133.713 L561.667 133.713 L561.667 128.319 Z" fill="#000000" fill-rule="nonzero" fill-opacity="1" /><path clip-path="url(#clip810)" d="M593.496 139.407 L593.496 143.389 Q591.69 142.393 589.861 141.907 Q588.056 141.398 586.204 141.398 Q582.06 141.398 579.769 144.037 Q577.477 146.652 577.477 151.398 Q577.477 156.143 579.769 158.782 Q582.06 161.398 586.204 161.398 Q588.056 161.398 589.861 160.912 Q591.69 160.402 593.496 159.407 L593.496 163.342 Q591.713 164.176 589.792 164.592 Q587.894 165.009 585.741 165.009 Q579.884 165.009 576.435 161.328 Q572.986 157.648 572.986 151.398 Q572.986 145.055 576.459 141.421 Q579.954 137.787 586.019 137.787 Q587.986 137.787 589.861 138.203 Q591.736 138.597 593.496 139.407 Z" fill="#000000" fill-rule="nonzero" fill-opacity="1" /><path clip-path="url(#clip810)" d="M605.116 131.051 L605.116 138.412 L613.889 138.412 L613.889 141.722 L605.116 141.722 L605.116 155.796 Q605.116 158.967 605.972 159.87 Q606.852 160.773 609.514 160.773 L613.889 160.773 L613.889 164.338 L609.514 164.338 Q604.583 164.338 602.708 162.509 Q600.833 160.657 600.833 155.796 L600.833 141.722 L597.708 141.722 L597.708 138.412 L600.833 138.412 L600.833 131.051 L605.116 131.051 Z" fill="#000000" fill-rule="nonzero" fill-opacity="1" /><path clip-path="url(#clip810)" d="M619.491 138.412 L623.75 138.412 L623.75 164.338 L619.491 164.338 L619.491 138.412 M619.491 128.319 L623.75 128.319 L623.75 133.713 L619.491 133.713 L619.491 128.319 Z" fill="#000000" fill-rule="nonzero" fill-opacity="1" /><path clip-path="url(#clip810)" d="M642.708 141.398 Q639.282 141.398 637.292 144.083 Q635.301 146.745 635.301 151.398 Q635.301 156.051 637.268 158.736 Q639.259 161.398 642.708 161.398 Q646.111 161.398 648.102 158.713 Q650.092 156.027 650.092 151.398 Q650.092 146.791 648.102 144.106 Q646.111 141.398 642.708 141.398 M642.708 137.787 Q648.264 137.787 651.435 141.398 Q654.606 145.009 654.606 151.398 Q654.606 157.764 651.435 161.398 Q648.264 165.009 642.708 165.009 Q637.13 165.009 633.958 161.398 Q630.81 157.764 630.81 151.398 Q630.81 145.009 633.958 141.398 Q637.13 137.787 642.708 137.787 Z" fill="#000000" fill-rule="nonzero" fill-opacity="1" /><path clip-path="url(#clip810)" d="M683.217 148.689 L683.217 164.338 L678.958 164.338 L678.958 148.828 Q678.958 145.148 677.523 143.319 Q676.088 141.49 673.217 141.49 Q669.768 141.49 667.778 143.69 Q665.787 145.889 665.787 149.685 L665.787 164.338 L661.504 164.338 L661.504 138.412 L665.787 138.412 L665.787 142.44 Q667.315 140.102 669.375 138.944 Q671.458 137.787 674.166 137.787 Q678.634 137.787 680.926 140.565 Q683.217 143.319 683.217 148.689 Z" fill="#000000" fill-rule="nonzero" fill-opacity="1" /><polyline clip-path="url(#clip810)" style="stroke:#e26f46; stroke-linecap:round; stroke-linejoin:round; stroke-width:4; stroke-opacity:1; fill:none" points="288.357,198.898 432.385,198.898 "/>
<path clip-path="url(#clip810)" d="M456.39 181.618 L478.242 181.618 L478.242 185.553 L461.066 185.553 L461.066 195.784 L477.524 195.784 L477.524 199.719 L461.066 199.719 L461.066 212.242 L478.658 212.242 L478.658 216.178 L456.39 216.178 L456.39 181.618 Z" fill="#000000" fill-rule="nonzero" fill-opacity="1" /><path clip-path="url(#clip810)" d="M507.709 190.252 L498.334 202.867 L508.195 216.178 L503.172 216.178 L495.626 205.992 L488.079 216.178 L483.056 216.178 L493.126 202.613 L483.913 190.252 L488.936 190.252 L495.811 199.488 L502.686 190.252 L507.709 190.252 Z" fill="#000000" fill-rule="nonzero" fill-opacity="1" /><path clip-path="url(#clip810)" d="M525.996 203.145 Q520.834 203.145 518.843 204.326 Q516.852 205.506 516.852 208.354 Q516.852 210.622 518.334 211.965 Q519.838 213.284 522.408 213.284 Q525.95 213.284 528.079 210.784 Q530.232 208.261 530.232 204.094 L530.232 203.145 L525.996 203.145 M534.491 201.386 L534.491 216.178 L530.232 216.178 L530.232 212.242 Q528.774 214.603 526.598 215.738 Q524.422 216.849 521.274 216.849 Q517.292 216.849 514.931 214.627 Q512.593 212.381 512.593 208.631 Q512.593 204.256 515.51 202.034 Q518.45 199.812 524.26 199.812 L530.232 199.812 L530.232 199.395 Q530.232 196.455 528.288 194.858 Q526.366 193.238 522.871 193.238 Q520.649 193.238 518.542 193.77 Q516.436 194.303 514.491 195.367 L514.491 191.432 Q516.829 190.53 519.028 190.09 Q521.227 189.627 523.311 189.627 Q528.936 189.627 531.713 192.543 Q534.491 195.46 534.491 201.386 Z" fill="#000000" fill-rule="nonzero" fill-opacity="1" /><path clip-path="url(#clip810)" d="M561.922 191.247 L561.922 195.229 Q560.116 194.233 558.287 193.747 Q556.482 193.238 554.63 193.238 Q550.486 193.238 548.195 195.877 Q545.903 198.492 545.903 203.238 Q545.903 207.983 548.195 210.622 Q550.486 213.238 554.63 213.238 Q556.482 213.238 558.287 212.752 Q560.116 212.242 561.922 211.247 L561.922 215.182 Q560.139 216.016 558.218 216.432 Q556.32 216.849 554.167 216.849 Q548.311 216.849 544.862 213.168 Q541.412 209.488 541.412 203.238 Q541.412 196.895 544.885 193.261 Q548.38 189.627 554.445 189.627 Q556.412 189.627 558.287 190.043 Q560.162 190.437 561.922 191.247 Z" fill="#000000" fill-rule="nonzero" fill-opacity="1" /><path clip-path="url(#clip810)" d="M573.542 182.891 L573.542 190.252 L582.315 190.252 L582.315 193.562 L573.542 193.562 L573.542 207.636 Q573.542 210.807 574.398 211.71 Q575.278 212.613 577.94 212.613 L582.315 212.613 L582.315 216.178 L577.94 216.178 Q573.01 216.178 571.135 214.349 Q569.26 212.497 569.26 207.636 L569.26 193.562 L566.135 193.562 L566.135 190.252 L569.26 190.252 L569.26 182.891 L573.542 182.891 Z" fill="#000000" fill-rule="nonzero" fill-opacity="1" /></svg>
