<?xml version="1.0" encoding="utf-8"?>
<svg xmlns="http://www.w3.org/2000/svg" xmlns:xlink="http://www.w3.org/1999/xlink" width="600" height="400" viewBox="0 0 2400 1600">
<defs>
  <clipPath id="clip860">
    <rect x="0" y="0" width="2400" height="1600"/>
  </clipPath>
</defs>
<path clip-path="url(#clip860)" d="
M0 1600 L2400 1600 L2400 0 L0 0  Z
  " fill="#ffffff" fill-rule="evenodd" fill-opacity="1"/>
<defs>
  <clipPath id="clip861">
    <rect x="480" y="0" width="1681" height="1600"/>
  </clipPath>
</defs>
<path clip-path="url(#clip860)" d="
M156.274 1486.45 L2352.76 1486.45 L2352.76 47.2441 L156.274 47.2441  Z
  " fill="#ffffff" fill-rule="evenodd" fill-opacity="1"/>
<defs>
  <clipPath id="clip862">
    <rect x="156" y="47" width="2197" height="1440"/>
  </clipPath>
</defs>
<polyline clip-path="url(#clip862)" style="stroke:#000000; stroke-linecap:round; stroke-linejoin:round; stroke-width:2; stroke-opacity:0.1; fill:none" points="
  218.439,1486.45 218.439,47.2441 
  "/>
<polyline clip-path="url(#clip862)" style="stroke:#000000; stroke-linecap:round; stroke-linejoin:round; stroke-width:2; stroke-opacity:0.1; fill:none" points="
  736.477,1486.45 736.477,47.2441 
  "/>
<polyline clip-path="url(#clip862)" style="stroke:#000000; stroke-linecap:round; stroke-linejoin:round; stroke-width:2; stroke-opacity:0.1; fill:none" points="
  1254.52,1486.45 1254.52,47.2441 
  "/>
<polyline clip-path="url(#clip862)" style="stroke:#000000; stroke-linecap:round; stroke-linejoin:round; stroke-width:2; stroke-opacity:0.1; fill:none" points="
  1772.55,1486.45 1772.55,47.2441 
  "/>
<polyline clip-path="url(#clip862)" style="stroke:#000000; stroke-linecap:round; stroke-linejoin:round; stroke-width:2; stroke-opacity:0.1; fill:none" points="
  2290.59,1486.45 2290.59,47.2441 
  "/>
<polyline clip-path="url(#clip860)" style="stroke:#000000; stroke-linecap:round; stroke-linejoin:round; stroke-width:4; stroke-opacity:1; fill:none" points="
  156.274,1486.45 2352.76,1486.45 
  "/>
<polyline clip-path="url(#clip860)" style="stroke:#000000; stroke-linecap:round; stroke-linejoin:round; stroke-width:4; stroke-opacity:1; fill:none" points="
  218.439,1486.45 218.439,1467.55 
  "/>
<polyline clip-path="url(#clip860)" style="stroke:#000000; stroke-linecap:round; stroke-linejoin:round; stroke-width:4; stroke-opacity:1; fill:none" points="
  736.477,1486.45 736.477,1467.55 
  "/>
<polyline clip-path="url(#clip860)" style="stroke:#000000; stroke-linecap:round; stroke-linejoin:round; stroke-width:4; stroke-opacity:1; fill:none" points="
  1254.52,1486.45 1254.52,1467.55 
  "/>
<polyline clip-path="url(#clip860)" style="stroke:#000000; stroke-linecap:round; stroke-linejoin:round; stroke-width:4; stroke-opacity:1; fill:none" points="
  1772.55,1486.45 1772.55,1467.55 
  "/>
<polyline clip-path="url(#clip860)" style="stroke:#000000; stroke-linecap:round; stroke-linejoin:round; stroke-width:4; stroke-opacity:1; fill:none" points="
  2290.59,1486.45 2290.59,1467.55 
  "/>
<path clip-path="url(#clip860)" d="M164.967 1532.02 L194.643 1532.02 L194.643 1535.95 L164.967 1535.95 L164.967 1532.02 Z" fill="#000000" fill-rule="evenodd" fill-opacity="1" /><path clip-path="url(#clip860)" d="M205.545 1544.91 L213.184 1544.91 L213.184 1518.55 L204.874 1520.21 L204.874 1515.95 L213.138 1514.29 L217.814 1514.29 L217.814 1544.91 L225.453 1544.91 L225.453 1548.85 L205.545 1548.85 L205.545 1544.91 Z" fill="#000000" fill-rule="evenodd" fill-opacity="1" /><path clip-path="url(#clip860)" d="M234.897 1542.97 L239.781 1542.97 L239.781 1548.85 L234.897 1548.85 L234.897 1542.97 Z" fill="#000000" fill-rule="evenodd" fill-opacity="1" /><path clip-path="url(#clip860)" d="M259.966 1517.37 Q256.355 1517.37 254.527 1520.93 Q252.721 1524.47 252.721 1531.6 Q252.721 1538.71 254.527 1542.27 Q256.355 1545.82 259.966 1545.82 Q263.601 1545.82 265.406 1542.27 Q267.235 1538.71 267.235 1531.6 Q267.235 1524.47 265.406 1520.93 Q263.601 1517.37 259.966 1517.37 M259.966 1513.66 Q265.776 1513.66 268.832 1518.27 Q271.911 1522.85 271.911 1531.6 Q271.911 1540.33 268.832 1544.94 Q265.776 1549.52 259.966 1549.52 Q254.156 1549.52 251.077 1544.94 Q248.022 1540.33 248.022 1531.6 Q248.022 1522.85 251.077 1518.27 Q254.156 1513.66 259.966 1513.66 Z" fill="#000000" fill-rule="evenodd" fill-opacity="1" /><path clip-path="url(#clip860)" d="M683.503 1532.02 L713.178 1532.02 L713.178 1535.95 L683.503 1535.95 L683.503 1532.02 Z" fill="#000000" fill-rule="evenodd" fill-opacity="1" /><path clip-path="url(#clip860)" d="M733.271 1517.37 Q729.66 1517.37 727.831 1520.93 Q726.026 1524.47 726.026 1531.6 Q726.026 1538.71 727.831 1542.27 Q729.66 1545.82 733.271 1545.82 Q736.905 1545.82 738.711 1542.27 Q740.539 1538.71 740.539 1531.6 Q740.539 1524.47 738.711 1520.93 Q736.905 1517.37 733.271 1517.37 M733.271 1513.66 Q739.081 1513.66 742.137 1518.27 Q745.215 1522.85 745.215 1531.6 Q745.215 1540.33 742.137 1544.94 Q739.081 1549.52 733.271 1549.52 Q727.461 1549.52 724.382 1544.94 Q721.327 1540.33 721.327 1531.6 Q721.327 1522.85 724.382 1518.27 Q727.461 1513.66 733.271 1513.66 Z" fill="#000000" fill-rule="evenodd" fill-opacity="1" /><path clip-path="url(#clip860)" d="M753.433 1542.97 L758.317 1542.97 L758.317 1548.85 L753.433 1548.85 L753.433 1542.97 Z" fill="#000000" fill-rule="evenodd" fill-opacity="1" /><path clip-path="url(#clip860)" d="M768.548 1514.29 L786.905 1514.29 L786.905 1518.22 L772.831 1518.22 L772.831 1526.7 Q773.849 1526.35 774.868 1526.19 Q775.886 1526 776.905 1526 Q782.692 1526 786.072 1529.17 Q789.451 1532.34 789.451 1537.76 Q789.451 1543.34 785.979 1546.44 Q782.507 1549.52 776.187 1549.52 Q774.011 1549.52 771.743 1549.15 Q769.498 1548.78 767.09 1548.04 L767.09 1543.34 Q769.173 1544.47 771.396 1545.03 Q773.618 1545.58 776.095 1545.58 Q780.099 1545.58 782.437 1543.48 Q784.775 1541.37 784.775 1537.76 Q784.775 1534.15 782.437 1532.04 Q780.099 1529.94 776.095 1529.94 Q774.22 1529.94 772.345 1530.35 Q770.493 1530.77 768.548 1531.65 L768.548 1514.29 Z" fill="#000000" fill-rule="evenodd" fill-opacity="1" /><path clip-path="url(#clip860)" d="M1231.9 1517.37 Q1228.29 1517.37 1226.46 1520.93 Q1224.65 1524.47 1224.65 1531.6 Q1224.65 1538.71 1226.46 1542.27 Q1228.29 1545.82 1231.9 1545.82 Q1235.53 1545.82 1237.34 1542.27 Q1239.17 1538.71 1239.17 1531.6 Q1239.17 1524.47 1237.34 1520.93 Q1235.53 1517.37 1231.9 1517.37 M1231.9 1513.66 Q1237.71 1513.66 1240.77 1518.27 Q1243.84 1522.85 1243.84 1531.6 Q1243.84 1540.33 1240.77 1544.94 Q1237.71 1549.52 1231.9 1549.52 Q1226.09 1549.52 1223.01 1544.94 Q1219.96 1540.33 1219.96 1531.6 Q1219.96 1522.85 1223.01 1518.27 Q1226.09 1513.66 1231.9 1513.66 Z" fill="#000000" fill-rule="evenodd" fill-opacity="1" /><path clip-path="url(#clip860)" d="M1252.06 1542.97 L1256.95 1542.97 L1256.95 1548.85 L1252.06 1548.85 L1252.06 1542.97 Z" fill="#000000" fill-rule="evenodd" fill-opacity="1" /><path clip-path="url(#clip860)" d="M1277.13 1517.37 Q1273.52 1517.37 1271.69 1520.93 Q1269.89 1524.47 1269.89 1531.6 Q1269.89 1538.71 1271.69 1542.27 Q1273.52 1545.82 1277.13 1545.82 Q1280.76 1545.82 1282.57 1542.27 Q1284.4 1538.71 1284.4 1531.6 Q1284.4 1524.47 1282.57 1520.93 Q1280.76 1517.37 1277.13 1517.37 M1277.13 1513.66 Q1282.94 1513.66 1286 1518.27 Q1289.08 1522.85 1289.08 1531.6 Q1289.08 1540.33 1286 1544.94 Q1282.94 1549.52 1277.13 1549.52 Q1271.32 1549.52 1268.24 1544.94 Q1265.19 1540.33 1265.19 1531.6 Q1265.19 1522.85 1268.24 1518.27 Q1271.32 1513.66 1277.13 1513.66 Z" fill="#000000" fill-rule="evenodd" fill-opacity="1" /><path clip-path="url(#clip860)" d="M1750.44 1517.37 Q1746.82 1517.37 1745 1520.93 Q1743.19 1524.47 1743.19 1531.6 Q1743.19 1538.71 1745 1542.27 Q1746.82 1545.82 1750.44 1545.82 Q1754.07 1545.82 1755.88 1542.27 Q1757.7 1538.71 1757.7 1531.6 Q1757.7 1524.47 1755.88 1520.93 Q1754.07 1517.37 1750.44 1517.37 M1750.44 1513.66 Q1756.25 1513.66 1759.3 1518.27 Q1762.38 1522.85 1762.38 1531.6 Q1762.38 1540.33 1759.3 1544.94 Q1756.25 1549.52 1750.44 1549.52 Q1744.63 1549.52 1741.55 1544.94 Q1738.49 1540.33 1738.49 1531.6 Q1738.49 1522.85 1741.55 1518.27 Q1744.63 1513.66 1750.44 1513.66 Z" fill="#000000" fill-rule="evenodd" fill-opacity="1" /><path clip-path="url(#clip860)" d="M1770.6 1542.97 L1775.48 1542.97 L1775.48 1548.85 L1770.6 1548.85 L1770.6 1542.97 Z" fill="#000000" fill-rule="evenodd" fill-opacity="1" /><path clip-path="url(#clip860)" d="M1785.71 1514.29 L1804.07 1514.29 L1804.07 1518.22 L1790 1518.22 L1790 1526.7 Q1791.01 1526.35 1792.03 1526.19 Q1793.05 1526 1794.07 1526 Q1799.86 1526 1803.24 1529.17 Q1806.62 1532.34 1806.62 1537.76 Q1806.62 1543.34 1803.14 1546.44 Q1799.67 1549.52 1793.35 1549.52 Q1791.18 1549.52 1788.91 1549.15 Q1786.66 1548.78 1784.25 1548.04 L1784.25 1543.34 Q1786.34 1544.47 1788.56 1545.03 Q1790.78 1545.58 1793.26 1545.58 Q1797.26 1545.58 1799.6 1543.48 Q1801.94 1541.37 1801.94 1537.76 Q1801.94 1534.15 1799.6 1532.04 Q1797.26 1529.94 1793.26 1529.94 Q1791.38 1529.94 1789.51 1530.35 Q1787.66 1530.77 1785.71 1531.65 L1785.71 1514.29 Z" fill="#000000" fill-rule="evenodd" fill-opacity="1" /><path clip-path="url(#clip860)" d="M2257.74 1544.91 L2265.38 1544.91 L2265.38 1518.55 L2257.07 1520.21 L2257.07 1515.95 L2265.34 1514.29 L2270.01 1514.29 L2270.01 1544.91 L2277.65 1544.91 L2277.65 1548.85 L2257.74 1548.85 L2257.74 1544.91 Z" fill="#000000" fill-rule="evenodd" fill-opacity="1" /><path clip-path="url(#clip860)" d="M2287.1 1542.97 L2291.98 1542.97 L2291.98 1548.85 L2287.1 1548.85 L2287.1 1542.97 Z" fill="#000000" fill-rule="evenodd" fill-opacity="1" /><path clip-path="url(#clip860)" d="M2312.17 1517.37 Q2308.55 1517.37 2306.73 1520.93 Q2304.92 1524.47 2304.92 1531.6 Q2304.92 1538.71 2306.73 1542.27 Q2308.55 1545.82 2312.17 1545.82 Q2315.8 1545.82 2317.61 1542.27 Q2319.43 1538.71 2319.43 1531.6 Q2319.43 1524.47 2317.61 1520.93 Q2315.8 1517.37 2312.17 1517.37 M2312.17 1513.66 Q2317.98 1513.66 2321.03 1518.27 Q2324.11 1522.85 2324.11 1531.6 Q2324.11 1540.33 2321.03 1544.94 Q2317.98 1549.52 2312.17 1549.52 Q2306.36 1549.52 2303.28 1544.94 Q2300.22 1540.33 2300.22 1531.6 Q2300.22 1522.85 2303.28 1518.27 Q2306.36 1513.66 2312.17 1513.66 Z" fill="#000000" fill-rule="evenodd" fill-opacity="1" /><polyline clip-path="url(#clip862)" style="stroke:#000000; stroke-linecap:round; stroke-linejoin:round; stroke-width:2; stroke-opacity:0.1; fill:none" points="
  156.274,1254.16 2352.76,1254.16 
  "/>
<polyline clip-path="url(#clip862)" style="stroke:#000000; stroke-linecap:round; stroke-linejoin:round; stroke-width:2; stroke-opacity:0.1; fill:none" points="
  156.274,980.476 2352.76,980.476 
  "/>
<polyline clip-path="url(#clip862)" style="stroke:#000000; stroke-linecap:round; stroke-linejoin:round; stroke-width:2; stroke-opacity:0.1; fill:none" points="
  156.274,706.791 2352.76,706.791 
  "/>
<polyline clip-path="url(#clip862)" style="stroke:#000000; stroke-linecap:round; stroke-linejoin:round; stroke-width:2; stroke-opacity:0.1; fill:none" points="
  156.274,433.106 2352.76,433.106 
  "/>
<polyline clip-path="url(#clip862)" style="stroke:#000000; stroke-linecap:round; stroke-linejoin:round; stroke-width:2; stroke-opacity:0.1; fill:none" points="
  156.274,159.422 2352.76,159.422 
  "/>
<polyline clip-path="url(#clip860)" style="stroke:#000000; stroke-linecap:round; stroke-linejoin:round; stroke-width:4; stroke-opacity:1; fill:none" points="
  156.274,1486.45 156.274,47.2441 
  "/>
<polyline clip-path="url(#clip860)" style="stroke:#000000; stroke-linecap:round; stroke-linejoin:round; stroke-width:4; stroke-opacity:1; fill:none" points="
  156.274,1254.16 175.172,1254.16 
  "/>
<polyline clip-path="url(#clip860)" style="stroke:#000000; stroke-linecap:round; stroke-linejoin:round; stroke-width:4; stroke-opacity:1; fill:none" points="
  156.274,980.476 175.172,980.476 
  "/>
<polyline clip-path="url(#clip860)" style="stroke:#000000; stroke-linecap:round; stroke-linejoin:round; stroke-width:4; stroke-opacity:1; fill:none" points="
  156.274,706.791 175.172,706.791 
  "/>
<polyline clip-path="url(#clip860)" style="stroke:#000000; stroke-linecap:round; stroke-linejoin:round; stroke-width:4; stroke-opacity:1; fill:none" points="
  156.274,433.106 175.172,433.106 
  "/>
<polyline clip-path="url(#clip860)" style="stroke:#000000; stroke-linecap:round; stroke-linejoin:round; stroke-width:4; stroke-opacity:1; fill:none" points="
  156.274,159.422 175.172,159.422 
  "/>
<path clip-path="url(#clip860)" d="M63.0985 1239.96 Q59.4875 1239.96 57.6588 1243.52 Q55.8532 1247.07 55.8532 1254.2 Q55.8532 1261.3 57.6588 1264.87 Q59.4875 1268.41 63.0985 1268.41 Q66.7328 1268.41 68.5383 1264.87 Q70.367 1261.3 70.367 1254.2 Q70.367 1247.07 68.5383 1243.52 Q66.7328 1239.96 63.0985 1239.96 M63.0985 1236.26 Q68.9087 1236.26 71.9642 1240.86 Q75.0429 1245.45 75.0429 1254.2 Q75.0429 1262.92 71.9642 1267.53 Q68.9087 1272.11 63.0985 1272.11 Q57.2884 1272.11 54.2097 1267.53 Q51.1542 1262.92 51.1542 1254.2 Q51.1542 1245.45 54.2097 1240.86 Q57.2884 1236.26 63.0985 1236.26 Z" fill="#000000" fill-rule="evenodd" fill-opacity="1" /><path clip-path="url(#clip860)" d="M83.2605 1265.56 L88.1447 1265.56 L88.1447 1271.44 L83.2605 1271.44 L83.2605 1265.56 Z" fill="#000000" fill-rule="evenodd" fill-opacity="1" /><path clip-path="url(#clip860)" d="M108.33 1239.96 Q104.719 1239.96 102.89 1243.52 Q101.084 1247.07 101.084 1254.2 Q101.084 1261.3 102.89 1264.87 Q104.719 1268.41 108.33 1268.41 Q111.964 1268.41 113.77 1264.87 Q115.598 1261.3 115.598 1254.2 Q115.598 1247.07 113.77 1243.52 Q111.964 1239.96 108.33 1239.96 M108.33 1236.26 Q114.14 1236.26 117.195 1240.86 Q120.274 1245.45 120.274 1254.2 Q120.274 1262.92 117.195 1267.53 Q114.14 1272.11 108.33 1272.11 Q102.52 1272.11 99.4409 1267.53 Q96.3854 1262.92 96.3854 1254.2 Q96.3854 1245.45 99.4409 1240.86 Q102.52 1236.26 108.33 1236.26 Z" fill="#000000" fill-rule="evenodd" fill-opacity="1" /><path clip-path="url(#clip860)" d="M63.7467 966.275 Q60.1356 966.275 58.3069 969.84 Q56.5014 973.381 56.5014 980.511 Q56.5014 987.617 58.3069 991.182 Q60.1356 994.724 63.7467 994.724 Q67.3809 994.724 69.1865 991.182 Q71.0152 987.617 71.0152 980.511 Q71.0152 973.381 69.1865 969.84 Q67.3809 966.275 63.7467 966.275 M63.7467 962.571 Q69.5568 962.571 72.6124 967.178 Q75.6911 971.761 75.6911 980.511 Q75.6911 989.238 72.6124 993.844 Q69.5568 998.427 63.7467 998.427 Q57.9365 998.427 54.8578 993.844 Q51.8023 989.238 51.8023 980.511 Q51.8023 971.761 54.8578 967.178 Q57.9365 962.571 63.7467 962.571 Z" fill="#000000" fill-rule="evenodd" fill-opacity="1" /><path clip-path="url(#clip860)" d="M83.9086 991.877 L88.7928 991.877 L88.7928 997.756 L83.9086 997.756 L83.9086 991.877 Z" fill="#000000" fill-rule="evenodd" fill-opacity="1" /><path clip-path="url(#clip860)" d="M113.145 979.122 Q116.501 979.84 118.376 982.108 Q120.274 984.377 120.274 987.71 Q120.274 992.826 116.756 995.626 Q113.237 998.427 106.756 998.427 Q104.58 998.427 102.265 997.988 Q99.9733 997.571 97.5197 996.714 L97.5197 992.201 Q99.4641 993.335 101.779 993.914 Q104.094 994.492 106.617 994.492 Q111.015 994.492 113.307 992.756 Q115.621 991.02 115.621 987.71 Q115.621 984.654 113.469 982.941 Q111.339 981.205 107.52 981.205 L103.492 981.205 L103.492 977.363 L107.705 977.363 Q111.154 977.363 112.983 975.997 Q114.811 974.608 114.811 972.015 Q114.811 969.353 112.913 967.941 Q111.038 966.506 107.52 966.506 Q105.598 966.506 103.399 966.923 Q101.2 967.34 98.5613 968.219 L98.5613 964.053 Q101.223 963.312 103.538 962.941 Q105.876 962.571 107.936 962.571 Q113.26 962.571 116.362 965.002 Q119.464 967.409 119.464 971.529 Q119.464 974.4 117.82 976.39 Q116.177 978.358 113.145 979.122 Z" fill="#000000" fill-rule="evenodd" fill-opacity="1" /><path clip-path="url(#clip860)" d="M62.9365 692.59 Q59.3254 692.59 57.4967 696.155 Q55.6912 699.696 55.6912 706.826 Q55.6912 713.932 57.4967 717.497 Q59.3254 721.039 62.9365 721.039 Q66.5707 721.039 68.3763 717.497 Q70.205 713.932 70.205 706.826 Q70.205 699.696 68.3763 696.155 Q66.5707 692.59 62.9365 692.59 M62.9365 688.886 Q68.7467 688.886 71.8022 693.493 Q74.8809 698.076 74.8809 706.826 Q74.8809 715.553 71.8022 720.159 Q68.7467 724.743 62.9365 724.743 Q57.1264 724.743 54.0477 720.159 Q50.9921 715.553 50.9921 706.826 Q50.9921 698.076 54.0477 693.493 Q57.1264 688.886 62.9365 688.886 Z" fill="#000000" fill-rule="evenodd" fill-opacity="1" /><path clip-path="url(#clip860)" d="M83.0984 718.192 L87.9827 718.192 L87.9827 724.071 L83.0984 724.071 L83.0984 718.192 Z" fill="#000000" fill-rule="evenodd" fill-opacity="1" /><path clip-path="url(#clip860)" d="M108.746 704.928 Q105.598 704.928 103.746 707.081 Q101.918 709.233 101.918 712.983 Q101.918 716.71 103.746 718.886 Q105.598 721.039 108.746 721.039 Q111.895 721.039 113.723 718.886 Q115.575 716.71 115.575 712.983 Q115.575 709.233 113.723 707.081 Q111.895 704.928 108.746 704.928 M118.029 690.275 L118.029 694.534 Q116.27 693.701 114.464 693.261 Q112.682 692.821 110.922 692.821 Q106.293 692.821 103.839 695.946 Q101.409 699.071 101.061 705.391 Q102.427 703.377 104.487 702.312 Q106.547 701.224 109.024 701.224 Q114.233 701.224 117.242 704.395 Q120.274 707.544 120.274 712.983 Q120.274 718.307 117.126 721.525 Q113.978 724.743 108.746 724.743 Q102.751 724.743 99.5798 720.159 Q96.4085 715.553 96.4085 706.826 Q96.4085 698.632 100.297 693.771 Q104.186 688.886 110.737 688.886 Q112.496 688.886 114.279 689.234 Q116.084 689.581 118.029 690.275 Z" fill="#000000" fill-rule="evenodd" fill-opacity="1" /><path clip-path="url(#clip860)" d="M63.2837 418.905 Q59.6726 418.905 57.8439 422.47 Q56.0384 426.012 56.0384 433.141 Q56.0384 440.248 57.8439 443.812 Q59.6726 447.354 63.2837 447.354 Q66.918 447.354 68.7235 443.812 Q70.5522 440.248 70.5522 433.141 Q70.5522 426.012 68.7235 422.47 Q66.918 418.905 63.2837 418.905 M63.2837 415.201 Q69.0939 415.201 72.1494 419.808 Q75.2281 424.391 75.2281 433.141 Q75.2281 441.868 72.1494 446.474 Q69.0939 451.058 63.2837 451.058 Q57.4736 451.058 54.3949 446.474 Q51.3393 441.868 51.3393 433.141 Q51.3393 424.391 54.3949 419.808 Q57.4736 415.201 63.2837 415.201 Z" fill="#000000" fill-rule="evenodd" fill-opacity="1" /><path clip-path="url(#clip860)" d="M83.4457 444.507 L88.3299 444.507 L88.3299 450.386 L83.4457 450.386 L83.4457 444.507 Z" fill="#000000" fill-rule="evenodd" fill-opacity="1" /><path clip-path="url(#clip860)" d="M98.6539 449.669 L98.6539 445.41 Q100.413 446.243 102.219 446.683 Q104.024 447.123 105.76 447.123 Q110.39 447.123 112.82 444.021 Q115.274 440.896 115.621 434.553 Q114.279 436.544 112.219 437.609 Q110.158 438.674 107.658 438.674 Q102.473 438.674 99.4409 435.549 Q96.4317 432.4 96.4317 426.961 Q96.4317 421.637 99.5798 418.419 Q102.728 415.201 107.959 415.201 Q113.955 415.201 117.103 419.808 Q120.274 424.391 120.274 433.141 Q120.274 441.312 116.385 446.197 Q112.52 451.058 105.969 451.058 Q104.209 451.058 102.404 450.711 Q100.598 450.363 98.6539 449.669 M107.959 435.016 Q111.108 435.016 112.936 432.863 Q114.788 430.711 114.788 426.961 Q114.788 423.234 112.936 421.081 Q111.108 418.905 107.959 418.905 Q104.811 418.905 102.959 421.081 Q101.131 423.234 101.131 426.961 Q101.131 430.711 102.959 432.863 Q104.811 435.016 107.959 435.016 Z" fill="#000000" fill-rule="evenodd" fill-opacity="1" /><path clip-path="url(#clip860)" d="M55.506 172.766 L63.1448 172.766 L63.1448 146.401 L54.8347 148.068 L54.8347 143.808 L63.0985 142.142 L67.7744 142.142 L67.7744 172.766 L75.4133 172.766 L75.4133 176.702 L55.506 176.702 L55.506 172.766 Z" fill="#000000" fill-rule="evenodd" fill-opacity="1" /><path clip-path="url(#clip860)" d="M84.8577 170.822 L89.7419 170.822 L89.7419 176.702 L84.8577 176.702 L84.8577 170.822 Z" fill="#000000" fill-rule="evenodd" fill-opacity="1" /><path clip-path="url(#clip860)" d="M103.955 172.766 L120.274 172.766 L120.274 176.702 L98.3298 176.702 L98.3298 172.766 Q100.992 170.012 105.575 165.382 Q110.182 160.729 111.362 159.387 Q113.608 156.864 114.487 155.128 Q115.39 153.368 115.39 151.679 Q115.39 148.924 113.445 147.188 Q111.524 145.452 108.422 145.452 Q106.223 145.452 103.77 146.216 Q101.339 146.98 98.5613 148.53 L98.5613 143.808 Q101.385 142.674 103.839 142.095 Q106.293 141.517 108.33 141.517 Q113.7 141.517 116.895 144.202 Q120.089 146.887 120.089 151.378 Q120.089 153.507 119.279 155.429 Q118.492 157.327 116.385 159.919 Q115.807 160.591 112.705 163.808 Q109.603 167.003 103.955 172.766 Z" fill="#000000" fill-rule="evenodd" fill-opacity="1" /><polyline clip-path="url(#clip862)" style="stroke:#009af9; stroke-linecap:round; stroke-linejoin:round; stroke-width:16; stroke-opacity:1; fill:none" stroke-dasharray="8, 16" points="
  218.439,1117.48 228.852,1100.91 239.264,1086.23 249.677,1075.68 260.09,1071.11 270.503,1073.68 280.916,1084.35 291.329,1101.31 301.741,1118.73 312.154,1135.26 
  322.567,1158.25 332.98,1192.52 343.393,1230.67 353.805,1261.52 364.218,1287.97 374.631,1321.42 385.044,1354.71 395.457,1378.75 405.87,1396.22 416.282,1412.16 
  426.695,1427.73 437.108,1440.32 447.521,1445.72 457.934,1439.36 468.347,1419.4 478.759,1390.87 489.172,1362.26 499.585,1337.8 509.998,1315.67 520.411,1291.54 
  530.824,1262.32 541.236,1228.18 551.649,1192.47 562.062,1159.44 572.475,1131.48 582.888,1108.77 593.301,1091.45 603.713,1081.49 614.126,1079.15 624.539,1079.85 
  634.952,1080.54 645.365,1084.46 655.777,1096.48 666.19,1117.7 676.603,1145.53 687.016,1176.69 697.429,1209.06 707.842,1241.55 718.254,1273.57 728.667,1304.63 
  739.08,1334.16 749.493,1361.55 759.906,1386.11 770.319,1407 780.731,1423.19 791.144,1433.5 801.557,1436.94 811.97,1433.07 822.383,1422.52 832.796,1406.99 
  843.208,1388.86 853.621,1370.05 864.034,1349.88 874.447,1323.69 884.86,1287.73 895.273,1248.41 905.685,1215.98 916.098,1188.69 926.511,1159.78 936.924,1129.35 
  947.337,1108.16 957.749,1098.29 968.162,1088.99 978.575,1074.88 988.988,1054.3 999.401,1040.6 1009.81,1060.68 1020.23,1101.8 1030.64,1159.52 1041.05,1215.56 
  1051.46,1227.04 1061.88,1220.39 1072.29,1239.23 1082.7,1269.27 1093.12,1306.86 1103.53,1344.59 1113.94,1364.46 1124.35,1379.52 1134.77,1395.95 1145.18,1421.71 
  1155.59,1426.59 1166.01,1344.09 1176.42,1333.09 1186.83,1404.18 1197.24,1411.21 1207.66,1372.92 1218.07,1360.08 1228.48,1340.08 1238.9,1276.37 1249.31,1006.68 
  1259.72,609.524 1270.13,364.845 1280.55,350.491 1290.96,381.24 1301.37,386.329 1311.79,371.028 1322.2,350.171 1332.61,338.076 1343.02,324.686 1353.44,317.743 
  1363.85,322.456 1374.26,295.961 1384.68,277.505 1395.09,304.466 1405.5,344.951 1415.91,352.989 1426.33,360.518 1436.74,379.025 1447.15,394.193 1457.57,446.136 
  1467.98,458.699 1478.39,371.631 1488.8,273.734 1499.22,254.333 1509.63,285.029 1520.04,325.229 1530.45,359.595 1540.87,388.882 1551.28,412.883 1561.69,420.408 
  1572.11,398.175 1582.52,353.518 1592.93,298.208 1603.34,257.189 1613.76,245.65 1624.17,264.586 1634.58,302.719 1645,347.678 1655.41,390.754 1665.82,424.431 
  1676.23,440.816 1686.65,432.746 1697.06,396.64 1707.47,335.628 1717.89,262.981 1728.3,207.728 1738.71,207.138 1749.12,262.964 1759.54,336.689 1769.95,398.449 
  1780.36,438.352 1790.78,455.088 1801.19,449.207 1811.6,421.378 1822.01,372.964 1832.43,308.372 1842.84,239.38 1853.25,189.248 1863.67,186.928 1874.08,242.892 
  1884.49,333.458 1894.9,422.645 1905.32,485.245 1915.73,508.212 1926.14,487.492 1936.56,428.384 1946.97,344.205 1957.38,252.683 1967.79,175.698 1978.21,140.338 
  1988.62,170.631 1999.03,260.735 2009.45,372.718 2019.86,473.252 2030.27,537.502 2040.68,541.31 2051.1,487.772 2061.51,397.597 2071.92,290.705 2082.33,201.074 
  2092.75,165.198 2103.16,177.946 2113.57,215.16 2123.99,278.809 2134.4,382.431 2144.81,501.696 2155.22,575.302 2165.64,563.265 2176.05,469.302 2186.46,332.862 
  2196.88,208.267 2207.29,138.564 2217.7,137.757 2228.11,188.353 2238.53,261.565 2248.94,338.023 2259.35,409.592 2269.77,473.086 2280.18,526.844 2290.59,570.27 
  
  "/>
<polyline clip-path="url(#clip862)" style="stroke:#e26f46; stroke-linecap:round; stroke-linejoin:round; stroke-width:4; stroke-opacity:1; fill:none" points="
  218.439,1117.14 228.852,1097.7 239.264,1083.36 249.677,1074.6 260.09,1071.7 270.503,1074.76 280.916,1083.67 291.329,1098.15 301.741,1117.71 312.154,1141.73 
  322.567,1169.42 332.98,1199.88 343.393,1232.1 353.805,1265.05 364.218,1297.64 374.631,1328.81 385.044,1357.55 395.457,1382.91 405.87,1404.07 416.282,1420.34 
  426.695,1431.18 437.108,1436.25 447.521,1435.37 457.934,1428.58 468.347,1416.09 478.759,1398.32 489.172,1375.85 499.585,1349.41 509.998,1319.85 520.411,1288.15 
  530.824,1255.35 541.236,1222.5 551.649,1190.69 562.062,1160.95 572.475,1134.25 582.888,1111.46 593.301,1093.33 603.713,1080.45 614.126,1073.25 624.539,1071.94 
  634.952,1076.58 645.365,1087.02 655.777,1102.91 666.19,1123.74 676.603,1148.83 687.016,1177.35 697.429,1208.38 707.842,1240.91 718.254,1273.86 728.667,1306.18 
  739.08,1336.79 749.493,1364.71 759.906,1389.02 770.319,1408.93 780.731,1423.79 791.144,1433.11 801.557,1436.6 811.97,1434.12 822.383,1425.78 832.796,1411.83 
  843.208,1392.74 853.621,1369.12 864.034,1341.75 874.447,1311.53 884.86,1279.43 895.273,1246.5 905.685,1213.83 916.098,1182.47 926.511,1153.46 936.924,1127.72 
  947.337,1106.12 957.749,1089.35 968.162,1077.95 978.575,1072.31 988.988,1072.6 999.401,1078.82 1009.81,1090.76 1020.23,1108.04 1030.64,1130.08 1041.05,1156.17 
  1051.46,1185.46 1061.88,1216.99 1072.29,1249.74 1082.7,1282.63 1093.12,1314.59 1103.53,1344.58 1113.94,1371.62 1124.35,1394.82 1134.77,1413.43 1145.18,1426.85 
  1155.59,1434.63 1166.01,1436.52 1176.42,1432.46 1186.83,1422.57 1197.24,1407.2 1207.66,1386.82 1218.07,1362.12 1228.48,1333.89 1238.9,1303.07 1249.31,1270.64 
  1259.72,340.553 1270.13,339.046 1280.55,340.418 1290.96,344.986 1301.37,351.35 1311.79,356.821 1322.2,358.441 1332.61,354.232 1343.02,344.197 1353.44,330.668 
  1363.85,317.795 1374.26,310.274 1384.68,311.717 1395.09,323.191 1405.5,342.491 1415.91,364.456 1426.33,382.342 1436.74,389.887 1447.15,383.428 1457.57,363.389 
  1467.98,334.565 1478.39,305.026 1488.8,283.855 1499.22,278.371 1509.63,291.666 1520.04,321.286 1530.45,359.54 1540.87,395.475 1551.28,418.012 1561.69,419.347 
  1572.11,397.573 1582.52,357.67 1592.93,310.434 1603.34,269.576 1613.76,247.734 1624.17,252.591 1634.58,284.256 1645,334.808 1655.41,390.227 1665.82,434.278 
  1676.23,453.27 1686.65,440.283 1697.06,397.576 1707.47,336.365 1717.89,273.9 1728.3,228.608 1738.71,214.659 1749.12,237.564 1759.54,292.157 1769.95,363.675 
  1780.36,431.734 1790.78,476.137 1801.19,482.863 1811.6,448.458 1822.01,381.465 1832.43,300.355 1842.84,228.444 1853.25,187.19 1863.67,189.798 1874.08,237.039 
  1884.49,316.59 1894.9,406.217 1905.32,479.982 1915.73,515.75 1926.14,501.822 1936.56,440.7 1946.97,348.803 1957.38,252.077 1967.79,178.67 1978.21,150.748 
  1988.62,177.807 1999.03,253.532 2009.45,357.183 2019.86,459.27 2030.27,529.933 2040.68,547.682 2051.1,505.907 2061.51,415.214 2071.92,300.778 2082.33,195.364 
  2092.75,129.946 2103.16,124.61 2113.57,182.412 2123.99,288.062 2134.4,411.94 2144.81,518.394 2155.22,575.997 2165.64,566.825 2176.05,491.999 2186.46,371.794 
  2196.88,240.172 2207.29,135.185 2217.7,87.9763 2228.11,113.551 2238.53,206.05 2248.94,340.005 2259.35,477.339 2269.77,578.189 2280.18,612.471 2290.59,568.848 
  
  "/>
<path clip-path="url(#clip860)" d="
M229.49 250.738 L700.371 250.738 L700.371 95.2176 L229.49 95.2176  Z
  " fill="#ffffff" fill-rule="evenodd" fill-opacity="1"/>
<polyline clip-path="url(#clip860)" style="stroke:#000000; stroke-linecap:round; stroke-linejoin:round; stroke-width:4; stroke-opacity:1; fill:none" points="
  229.49,250.738 700.371,250.738 700.371,95.2176 229.49,95.2176 229.49,250.738 
  "/>
<polyline clip-path="url(#clip860)" style="stroke:#009af9; stroke-linecap:round; stroke-linejoin:round; stroke-width:4; stroke-opacity:1; fill:none" stroke-dasharray="2, 4" points="
  253.896,147.058 400.328,147.058 
  "/>
<path clip-path="url(#clip860)" d="M429.409 133.62 L429.409 146.606 L435.289 146.606 Q438.552 146.606 440.335 144.916 Q442.117 143.227 442.117 140.102 Q442.117 137 440.335 135.31 Q438.552 133.62 435.289 133.62 L429.409 133.62 M424.733 129.778 L435.289 129.778 Q441.099 129.778 444.062 132.416 Q447.048 135.032 447.048 140.102 Q447.048 145.217 444.062 147.833 Q441.099 150.449 435.289 150.449 L429.409 150.449 L429.409 164.338 L424.733 164.338 L424.733 129.778 Z" fill="#000000" fill-rule="evenodd" fill-opacity="1" /><path clip-path="url(#clip860)" d="M467.325 142.393 Q466.608 141.977 465.751 141.791 Q464.918 141.583 463.899 141.583 Q460.288 141.583 458.344 143.944 Q456.423 146.282 456.423 150.68 L456.423 164.338 L452.14 164.338 L452.14 138.412 L456.423 138.412 L456.423 142.44 Q457.765 140.078 459.918 138.944 Q462.071 137.787 465.149 137.787 Q465.589 137.787 466.122 137.856 Q466.654 137.903 467.302 138.018 L467.325 142.393 Z" fill="#000000" fill-rule="evenodd" fill-opacity="1" /><path clip-path="url(#clip860)" d="M492.927 150.31 L492.927 152.393 L473.344 152.393 Q473.622 156.791 475.983 159.106 Q478.367 161.398 482.603 161.398 Q485.057 161.398 487.348 160.796 Q489.663 160.194 491.932 158.99 L491.932 163.018 Q489.64 163.99 487.233 164.5 Q484.825 165.009 482.348 165.009 Q476.145 165.009 472.511 161.398 Q468.899 157.787 468.899 151.629 Q468.899 145.264 472.325 141.537 Q475.774 137.787 481.608 137.787 Q486.839 137.787 489.872 141.166 Q492.927 144.523 492.927 150.31 M488.668 149.06 Q488.622 145.565 486.7 143.481 Q484.802 141.398 481.654 141.398 Q478.089 141.398 475.936 143.412 Q473.807 145.426 473.483 149.083 L488.668 149.06 Z" fill="#000000" fill-rule="evenodd" fill-opacity="1" /><path clip-path="url(#clip860)" d="M516.978 142.347 L516.978 128.319 L521.237 128.319 L521.237 164.338 L516.978 164.338 L516.978 160.449 Q515.635 162.763 513.575 163.898 Q511.538 165.009 508.668 165.009 Q503.969 165.009 501.006 161.259 Q498.066 157.509 498.066 151.398 Q498.066 145.287 501.006 141.537 Q503.969 137.787 508.668 137.787 Q511.538 137.787 513.575 138.921 Q515.635 140.032 516.978 142.347 M502.464 151.398 Q502.464 156.097 504.385 158.782 Q506.33 161.444 509.709 161.444 Q513.089 161.444 515.033 158.782 Q516.978 156.097 516.978 151.398 Q516.978 146.699 515.033 144.037 Q513.089 141.352 509.709 141.352 Q506.33 141.352 504.385 144.037 Q502.464 146.699 502.464 151.398 Z" fill="#000000" fill-rule="evenodd" fill-opacity="1" /><path clip-path="url(#clip860)" d="M530.01 138.412 L534.269 138.412 L534.269 164.338 L530.01 164.338 L530.01 138.412 M530.01 128.319 L534.269 128.319 L534.269 133.713 L530.01 133.713 L530.01 128.319 Z" fill="#000000" fill-rule="evenodd" fill-opacity="1" /><path clip-path="url(#clip860)" d="M561.839 139.407 L561.839 143.389 Q560.033 142.393 558.205 141.907 Q556.399 141.398 554.547 141.398 Q550.404 141.398 548.112 144.037 Q545.82 146.652 545.82 151.398 Q545.82 156.143 548.112 158.782 Q550.404 161.398 554.547 161.398 Q556.399 161.398 558.205 160.912 Q560.033 160.402 561.839 159.407 L561.839 163.342 Q560.056 164.176 558.135 164.592 Q556.237 165.009 554.084 165.009 Q548.228 165.009 544.779 161.328 Q541.33 157.648 541.33 151.398 Q541.33 145.055 544.802 141.421 Q548.297 137.787 554.362 137.787 Q556.33 137.787 558.205 138.203 Q560.08 138.597 561.839 139.407 Z" fill="#000000" fill-rule="evenodd" fill-opacity="1" /><path clip-path="url(#clip860)" d="M573.459 131.051 L573.459 138.412 L582.232 138.412 L582.232 141.722 L573.459 141.722 L573.459 155.796 Q573.459 158.967 574.316 159.87 Q575.195 160.773 577.857 160.773 L582.232 160.773 L582.232 164.338 L577.857 164.338 Q572.927 164.338 571.052 162.509 Q569.177 160.657 569.177 155.796 L569.177 141.722 L566.052 141.722 L566.052 138.412 L569.177 138.412 L569.177 131.051 L573.459 131.051 Z" fill="#000000" fill-rule="evenodd" fill-opacity="1" /><path clip-path="url(#clip860)" d="M587.834 138.412 L592.093 138.412 L592.093 164.338 L587.834 164.338 L587.834 138.412 M587.834 128.319 L592.093 128.319 L592.093 133.713 L587.834 133.713 L587.834 128.319 Z" fill="#000000" fill-rule="evenodd" fill-opacity="1" /><path clip-path="url(#clip860)" d="M611.051 141.398 Q607.626 141.398 605.635 144.083 Q603.644 146.745 603.644 151.398 Q603.644 156.051 605.612 158.736 Q607.602 161.398 611.051 161.398 Q614.454 161.398 616.445 158.713 Q618.436 156.027 618.436 151.398 Q618.436 146.791 616.445 144.106 Q614.454 141.398 611.051 141.398 M611.051 137.787 Q616.607 137.787 619.778 141.398 Q622.95 145.009 622.95 151.398 Q622.95 157.764 619.778 161.398 Q616.607 165.009 611.051 165.009 Q605.473 165.009 602.302 161.398 Q599.153 157.764 599.153 151.398 Q599.153 145.009 602.302 141.398 Q605.473 137.787 611.051 137.787 Z" fill="#000000" fill-rule="evenodd" fill-opacity="1" /><path clip-path="url(#clip860)" d="M651.561 148.689 L651.561 164.338 L647.301 164.338 L647.301 148.828 Q647.301 145.148 645.866 143.319 Q644.431 141.49 641.561 141.49 Q638.112 141.49 636.121 143.69 Q634.13 145.889 634.13 149.685 L634.13 164.338 L629.848 164.338 L629.848 138.412 L634.13 138.412 L634.13 142.44 Q635.658 140.102 637.718 138.944 Q639.801 137.787 642.51 137.787 Q646.977 137.787 649.269 140.565 Q651.561 143.319 651.561 148.689 Z" fill="#000000" fill-rule="evenodd" fill-opacity="1" /><polyline clip-path="url(#clip860)" style="stroke:#e26f46; stroke-linecap:round; stroke-linejoin:round; stroke-width:4; stroke-opacity:1; fill:none" points="
  253.896,198.898 400.328,198.898 
  "/>
<path clip-path="url(#clip860)" d="M424.733 181.618 L446.585 181.618 L446.585 185.553 L429.409 185.553 L429.409 195.784 L445.867 195.784 L445.867 199.719 L429.409 199.719 L429.409 212.242 L447.001 212.242 L447.001 216.178 L424.733 216.178 L424.733 181.618 Z" fill="#000000" fill-rule="evenodd" fill-opacity="1" /><path clip-path="url(#clip860)" d="M476.052 190.252 L466.677 202.867 L476.538 216.178 L471.515 216.178 L463.969 205.992 L456.423 216.178 L451.4 216.178 L461.469 202.613 L452.256 190.252 L457.279 190.252 L464.154 199.488 L471.029 190.252 L476.052 190.252 Z" fill="#000000" fill-rule="evenodd" fill-opacity="1" /><path clip-path="url(#clip860)" d="M494.339 203.145 Q489.177 203.145 487.186 204.326 Q485.196 205.506 485.196 208.354 Q485.196 210.622 486.677 211.965 Q488.182 213.284 490.751 213.284 Q494.293 213.284 496.422 210.784 Q498.575 208.261 498.575 204.094 L498.575 203.145 L494.339 203.145 M502.834 201.386 L502.834 216.178 L498.575 216.178 L498.575 212.242 Q497.117 214.603 494.941 215.738 Q492.765 216.849 489.617 216.849 Q485.635 216.849 483.274 214.627 Q480.936 212.381 480.936 208.631 Q480.936 204.256 483.853 202.034 Q486.793 199.812 492.603 199.812 L498.575 199.812 L498.575 199.395 Q498.575 196.455 496.631 194.858 Q494.71 193.238 491.214 193.238 Q488.992 193.238 486.885 193.77 Q484.779 194.303 482.835 195.367 L482.835 191.432 Q485.173 190.53 487.372 190.09 Q489.571 189.627 491.654 189.627 Q497.279 189.627 500.057 192.543 Q502.834 195.46 502.834 201.386 Z" fill="#000000" fill-rule="evenodd" fill-opacity="1" /><path clip-path="url(#clip860)" d="M530.265 191.247 L530.265 195.229 Q528.459 194.233 526.631 193.747 Q524.825 193.238 522.973 193.238 Q518.83 193.238 516.538 195.877 Q514.246 198.492 514.246 203.238 Q514.246 207.983 516.538 210.622 Q518.83 213.238 522.973 213.238 Q524.825 213.238 526.631 212.752 Q528.459 212.242 530.265 211.247 L530.265 215.182 Q528.482 216.016 526.561 216.432 Q524.663 216.849 522.51 216.849 Q516.654 216.849 513.205 213.168 Q509.756 209.488 509.756 203.238 Q509.756 196.895 513.228 193.261 Q516.723 189.627 522.788 189.627 Q524.756 189.627 526.631 190.043 Q528.506 190.437 530.265 191.247 Z" fill="#000000" fill-rule="evenodd" fill-opacity="1" /><path clip-path="url(#clip860)" d="M541.885 182.891 L541.885 190.252 L550.658 190.252 L550.658 193.562 L541.885 193.562 L541.885 207.636 Q541.885 210.807 542.742 211.71 Q543.621 212.613 546.283 212.613 L550.658 212.613 L550.658 216.178 L546.283 216.178 Q541.353 216.178 539.478 214.349 Q537.603 212.497 537.603 207.636 L537.603 193.562 L534.478 193.562 L534.478 190.252 L537.603 190.252 L537.603 182.891 L541.885 182.891 Z" fill="#000000" fill-rule="evenodd" fill-opacity="1" /></svg>
