<?xml version="1.0" encoding="utf-8"?>
<svg xmlns="http://www.w3.org/2000/svg" xmlns:xlink="http://www.w3.org/1999/xlink" width="600" height="400" viewBox="0 0 2400 1600">
<defs>
  <clipPath id="clip830">
    <rect x="0" y="0" width="2400" height="1600"/>
  </clipPath>
</defs>
<path clip-path="url(#clip830)" d="
M0 1600 L2400 1600 L2400 0 L0 0  Z
  " fill="#ffffff" fill-rule="evenodd" fill-opacity="1"/>
<defs>
  <clipPath id="clip831">
    <rect x="480" y="0" width="1681" height="1600"/>
  </clipPath>
</defs>
<path clip-path="url(#clip830)" d="
M156.274 1486.45 L2352.76 1486.45 L2352.76 47.2441 L156.274 47.2441  Z
  " fill="#ffffff" fill-rule="evenodd" fill-opacity="1"/>
<defs>
  <clipPath id="clip832">
    <rect x="156" y="47" width="2197" height="1440"/>
  </clipPath>
</defs>
<polyline clip-path="url(#clip832)" style="stroke:#000000; stroke-linecap:round; stroke-linejoin:round; stroke-width:2; stroke-opacity:0.1; fill:none" points="
  218.439,1486.45 218.439,47.2441 
  "/>
<polyline clip-path="url(#clip832)" style="stroke:#000000; stroke-linecap:round; stroke-linejoin:round; stroke-width:2; stroke-opacity:0.1; fill:none" points="
  736.477,1486.45 736.477,47.2441 
  "/>
<polyline clip-path="url(#clip832)" style="stroke:#000000; stroke-linecap:round; stroke-linejoin:round; stroke-width:2; stroke-opacity:0.1; fill:none" points="
  1254.52,1486.45 1254.52,47.2441 
  "/>
<polyline clip-path="url(#clip832)" style="stroke:#000000; stroke-linecap:round; stroke-linejoin:round; stroke-width:2; stroke-opacity:0.1; fill:none" points="
  1772.55,1486.45 1772.55,47.2441 
  "/>
<polyline clip-path="url(#clip832)" style="stroke:#000000; stroke-linecap:round; stroke-linejoin:round; stroke-width:2; stroke-opacity:0.1; fill:none" points="
  2290.59,1486.45 2290.59,47.2441 
  "/>
<polyline clip-path="url(#clip830)" style="stroke:#000000; stroke-linecap:round; stroke-linejoin:round; stroke-width:4; stroke-opacity:1; fill:none" points="
  156.274,1486.45 2352.76,1486.45 
  "/>
<polyline clip-path="url(#clip830)" style="stroke:#000000; stroke-linecap:round; stroke-linejoin:round; stroke-width:4; stroke-opacity:1; fill:none" points="
  218.439,1486.45 218.439,1467.55 
  "/>
<polyline clip-path="url(#clip830)" style="stroke:#000000; stroke-linecap:round; stroke-linejoin:round; stroke-width:4; stroke-opacity:1; fill:none" points="
  736.477,1486.45 736.477,1467.55 
  "/>
<polyline clip-path="url(#clip830)" style="stroke:#000000; stroke-linecap:round; stroke-linejoin:round; stroke-width:4; stroke-opacity:1; fill:none" points="
  1254.52,1486.45 1254.52,1467.55 
  "/>
<polyline clip-path="url(#clip830)" style="stroke:#000000; stroke-linecap:round; stroke-linejoin:round; stroke-width:4; stroke-opacity:1; fill:none" points="
  1772.55,1486.45 1772.55,1467.55 
  "/>
<polyline clip-path="url(#clip830)" style="stroke:#000000; stroke-linecap:round; stroke-linejoin:round; stroke-width:4; stroke-opacity:1; fill:none" points="
  2290.59,1486.45 2290.59,1467.55 
  "/>
<path clip-path="url(#clip830)" d="M164.967 1532.02 L194.643 1532.02 L194.643 1535.95 L164.967 1535.95 L164.967 1532.02 Z" fill="#000000" fill-rule="evenodd" fill-opacity="1" /><path clip-path="url(#clip830)" d="M205.545 1544.91 L213.184 1544.91 L213.184 1518.55 L204.874 1520.21 L204.874 1515.95 L213.138 1514.29 L217.814 1514.29 L217.814 1544.91 L225.453 1544.91 L225.453 1548.85 L205.545 1548.85 L205.545 1544.91 Z" fill="#000000" fill-rule="evenodd" fill-opacity="1" /><path clip-path="url(#clip830)" d="M234.897 1542.97 L239.781 1542.97 L239.781 1548.85 L234.897 1548.85 L234.897 1542.97 Z" fill="#000000" fill-rule="evenodd" fill-opacity="1" /><path clip-path="url(#clip830)" d="M259.966 1517.37 Q256.355 1517.37 254.527 1520.93 Q252.721 1524.47 252.721 1531.6 Q252.721 1538.71 254.527 1542.27 Q256.355 1545.82 259.966 1545.82 Q263.601 1545.82 265.406 1542.27 Q267.235 1538.71 267.235 1531.6 Q267.235 1524.47 265.406 1520.93 Q263.601 1517.37 259.966 1517.37 M259.966 1513.66 Q265.776 1513.66 268.832 1518.27 Q271.911 1522.85 271.911 1531.6 Q271.911 1540.33 268.832 1544.94 Q265.776 1549.52 259.966 1549.52 Q254.156 1549.52 251.077 1544.94 Q248.022 1540.33 248.022 1531.6 Q248.022 1522.85 251.077 1518.27 Q254.156 1513.66 259.966 1513.66 Z" fill="#000000" fill-rule="evenodd" fill-opacity="1" /><path clip-path="url(#clip830)" d="M683.503 1532.02 L713.178 1532.02 L713.178 1535.95 L683.503 1535.95 L683.503 1532.02 Z" fill="#000000" fill-rule="evenodd" fill-opacity="1" /><path clip-path="url(#clip830)" d="M733.271 1517.37 Q729.66 1517.37 727.831 1520.93 Q726.026 1524.47 726.026 1531.6 Q726.026 1538.71 727.831 1542.27 Q729.66 1545.82 733.271 1545.82 Q736.905 1545.82 738.711 1542.27 Q740.539 1538.71 740.539 1531.6 Q740.539 1524.47 738.711 1520.93 Q736.905 1517.37 733.271 1517.37 M733.271 1513.66 Q739.081 1513.66 742.137 1518.27 Q745.215 1522.85 745.215 1531.6 Q745.215 1540.33 742.137 1544.94 Q739.081 1549.52 733.271 1549.52 Q727.461 1549.52 724.382 1544.94 Q721.327 1540.33 721.327 1531.6 Q721.327 1522.85 724.382 1518.27 Q727.461 1513.66 733.271 1513.66 Z" fill="#000000" fill-rule="evenodd" fill-opacity="1" /><path clip-path="url(#clip830)" d="M753.433 1542.97 L758.317 1542.97 L758.317 1548.85 L753.433 1548.85 L753.433 1542.97 Z" fill="#000000" fill-rule="evenodd" fill-opacity="1" /><path clip-path="url(#clip830)" d="M768.548 1514.29 L786.905 1514.29 L786.905 1518.22 L772.831 1518.22 L772.831 1526.7 Q773.849 1526.35 774.868 1526.19 Q775.886 1526 776.905 1526 Q782.692 1526 786.072 1529.17 Q789.451 1532.34 789.451 1537.76 Q789.451 1543.34 785.979 1546.44 Q782.507 1549.52 776.187 1549.52 Q774.011 1549.52 771.743 1549.15 Q769.498 1548.78 767.09 1548.04 L767.09 1543.34 Q769.173 1544.47 771.396 1545.03 Q773.618 1545.58 776.095 1545.58 Q780.099 1545.58 782.437 1543.48 Q784.775 1541.37 784.775 1537.76 Q784.775 1534.15 782.437 1532.04 Q780.099 1529.94 776.095 1529.94 Q774.22 1529.94 772.345 1530.35 Q770.493 1530.77 768.548 1531.65 L768.548 1514.29 Z" fill="#000000" fill-rule="evenodd" fill-opacity="1" /><path clip-path="url(#clip830)" d="M1231.9 1517.37 Q1228.29 1517.37 1226.46 1520.93 Q1224.65 1524.47 1224.65 1531.6 Q1224.65 1538.71 1226.46 1542.27 Q1228.29 1545.82 1231.9 1545.82 Q1235.53 1545.82 1237.34 1542.27 Q1239.17 1538.71 1239.17 1531.6 Q1239.17 1524.47 1237.34 1520.93 Q1235.53 1517.37 1231.9 1517.37 M1231.9 1513.66 Q1237.71 1513.66 1240.77 1518.27 Q1243.84 1522.85 1243.84 1531.6 Q1243.84 1540.33 1240.77 1544.94 Q1237.71 1549.52 1231.9 1549.52 Q1226.09 1549.52 1223.01 1544.94 Q1219.96 1540.33 1219.96 1531.6 Q1219.96 1522.85 1223.01 1518.27 Q1226.09 1513.66 1231.9 1513.66 Z" fill="#000000" fill-rule="evenodd" fill-opacity="1" /><path clip-path="url(#clip830)" d="M1252.06 1542.97 L1256.95 1542.97 L1256.95 1548.85 L1252.06 1548.85 L1252.06 1542.97 Z" fill="#000000" fill-rule="evenodd" fill-opacity="1" /><path clip-path="url(#clip830)" d="M1277.13 1517.37 Q1273.52 1517.37 1271.69 1520.93 Q1269.89 1524.47 1269.89 1531.6 Q1269.89 1538.71 1271.69 1542.27 Q1273.52 1545.82 1277.13 1545.82 Q1280.76 1545.82 1282.57 1542.27 Q1284.4 1538.71 1284.4 1531.6 Q1284.4 1524.47 1282.57 1520.93 Q1280.76 1517.37 1277.13 1517.37 M1277.13 1513.66 Q1282.94 1513.66 1286 1518.27 Q1289.08 1522.85 1289.08 1531.6 Q1289.08 1540.33 1286 1544.94 Q1282.94 1549.52 1277.13 1549.52 Q1271.32 1549.52 1268.24 1544.94 Q1265.19 1540.33 1265.19 1531.6 Q1265.19 1522.85 1268.24 1518.27 Q1271.32 1513.66 1277.13 1513.66 Z" fill="#000000" fill-rule="evenodd" fill-opacity="1" /><path clip-path="url(#clip830)" d="M1750.44 1517.37 Q1746.82 1517.37 1745 1520.93 Q1743.19 1524.47 1743.19 1531.6 Q1743.19 1538.71 1745 1542.27 Q1746.82 1545.82 1750.44 1545.82 Q1754.07 1545.82 1755.88 1542.27 Q1757.7 1538.71 1757.7 1531.6 Q1757.7 1524.47 1755.88 1520.93 Q1754.07 1517.37 1750.44 1517.37 M1750.44 1513.66 Q1756.25 1513.66 1759.3 1518.27 Q1762.38 1522.85 1762.38 1531.6 Q1762.38 1540.33 1759.3 1544.94 Q1756.25 1549.52 1750.44 1549.52 Q1744.63 1549.52 1741.55 1544.94 Q1738.49 1540.33 1738.49 1531.6 Q1738.49 1522.85 1741.55 1518.27 Q1744.63 1513.66 1750.44 1513.66 Z" fill="#000000" fill-rule="evenodd" fill-opacity="1" /><path clip-path="url(#clip830)" d="M1770.6 1542.97 L1775.48 1542.97 L1775.48 1548.85 L1770.6 1548.85 L1770.6 1542.97 Z" fill="#000000" fill-rule="evenodd" fill-opacity="1" /><path clip-path="url(#clip830)" d="M1785.71 1514.29 L1804.07 1514.29 L1804.07 1518.22 L1790 1518.22 L1790 1526.7 Q1791.01 1526.35 1792.03 1526.19 Q1793.05 1526 1794.07 1526 Q1799.86 1526 1803.24 1529.17 Q1806.62 1532.34 1806.62 1537.76 Q1806.62 1543.34 1803.14 1546.44 Q1799.67 1549.52 1793.35 1549.52 Q1791.18 1549.52 1788.91 1549.15 Q1786.66 1548.78 1784.25 1548.04 L1784.25 1543.34 Q1786.34 1544.47 1788.56 1545.03 Q1790.78 1545.58 1793.26 1545.58 Q1797.26 1545.58 1799.6 1543.48 Q1801.94 1541.37 1801.94 1537.76 Q1801.94 1534.15 1799.6 1532.04 Q1797.26 1529.94 1793.26 1529.94 Q1791.38 1529.94 1789.51 1530.35 Q1787.66 1530.77 1785.71 1531.65 L1785.71 1514.29 Z" fill="#000000" fill-rule="evenodd" fill-opacity="1" /><path clip-path="url(#clip830)" d="M2257.74 1544.91 L2265.38 1544.91 L2265.38 1518.55 L2257.07 1520.21 L2257.07 1515.95 L2265.34 1514.29 L2270.01 1514.29 L2270.01 1544.91 L2277.65 1544.91 L2277.65 1548.85 L2257.74 1548.85 L2257.74 1544.91 Z" fill="#000000" fill-rule="evenodd" fill-opacity="1" /><path clip-path="url(#clip830)" d="M2287.1 1542.97 L2291.98 1542.97 L2291.98 1548.85 L2287.1 1548.85 L2287.1 1542.97 Z" fill="#000000" fill-rule="evenodd" fill-opacity="1" /><path clip-path="url(#clip830)" d="M2312.17 1517.37 Q2308.55 1517.37 2306.73 1520.93 Q2304.92 1524.47 2304.92 1531.6 Q2304.92 1538.71 2306.73 1542.27 Q2308.55 1545.82 2312.17 1545.82 Q2315.8 1545.82 2317.61 1542.27 Q2319.43 1538.71 2319.43 1531.6 Q2319.43 1524.47 2317.61 1520.93 Q2315.8 1517.37 2312.17 1517.37 M2312.17 1513.66 Q2317.98 1513.66 2321.03 1518.27 Q2324.11 1522.85 2324.11 1531.6 Q2324.11 1540.33 2321.03 1544.94 Q2317.98 1549.52 2312.17 1549.52 Q2306.36 1549.52 2303.28 1544.94 Q2300.22 1540.33 2300.22 1531.6 Q2300.22 1522.85 2303.28 1518.27 Q2306.36 1513.66 2312.17 1513.66 Z" fill="#000000" fill-rule="evenodd" fill-opacity="1" /><polyline clip-path="url(#clip832)" style="stroke:#000000; stroke-linecap:round; stroke-linejoin:round; stroke-width:2; stroke-opacity:0.1; fill:none" points="
  156.274,1256.84 2352.76,1256.84 
  "/>
<polyline clip-path="url(#clip832)" style="stroke:#000000; stroke-linecap:round; stroke-linejoin:round; stroke-width:2; stroke-opacity:0.1; fill:none" points="
  156.274,985.155 2352.76,985.155 
  "/>
<polyline clip-path="url(#clip832)" style="stroke:#000000; stroke-linecap:round; stroke-linejoin:round; stroke-width:2; stroke-opacity:0.1; fill:none" points="
  156.274,713.466 2352.76,713.466 
  "/>
<polyline clip-path="url(#clip832)" style="stroke:#000000; stroke-linecap:round; stroke-linejoin:round; stroke-width:2; stroke-opacity:0.1; fill:none" points="
  156.274,441.777 2352.76,441.777 
  "/>
<polyline clip-path="url(#clip832)" style="stroke:#000000; stroke-linecap:round; stroke-linejoin:round; stroke-width:2; stroke-opacity:0.1; fill:none" points="
  156.274,170.089 2352.76,170.089 
  "/>
<polyline clip-path="url(#clip830)" style="stroke:#000000; stroke-linecap:round; stroke-linejoin:round; stroke-width:4; stroke-opacity:1; fill:none" points="
  156.274,1486.45 156.274,47.2441 
  "/>
<polyline clip-path="url(#clip830)" style="stroke:#000000; stroke-linecap:round; stroke-linejoin:round; stroke-width:4; stroke-opacity:1; fill:none" points="
  156.274,1256.84 175.172,1256.84 
  "/>
<polyline clip-path="url(#clip830)" style="stroke:#000000; stroke-linecap:round; stroke-linejoin:round; stroke-width:4; stroke-opacity:1; fill:none" points="
  156.274,985.155 175.172,985.155 
  "/>
<polyline clip-path="url(#clip830)" style="stroke:#000000; stroke-linecap:round; stroke-linejoin:round; stroke-width:4; stroke-opacity:1; fill:none" points="
  156.274,713.466 175.172,713.466 
  "/>
<polyline clip-path="url(#clip830)" style="stroke:#000000; stroke-linecap:round; stroke-linejoin:round; stroke-width:4; stroke-opacity:1; fill:none" points="
  156.274,441.777 175.172,441.777 
  "/>
<polyline clip-path="url(#clip830)" style="stroke:#000000; stroke-linecap:round; stroke-linejoin:round; stroke-width:4; stroke-opacity:1; fill:none" points="
  156.274,170.089 175.172,170.089 
  "/>
<path clip-path="url(#clip830)" d="M63.0985 1242.64 Q59.4875 1242.64 57.6588 1246.21 Q55.8532 1249.75 55.8532 1256.88 Q55.8532 1263.98 57.6588 1267.55 Q59.4875 1271.09 63.0985 1271.09 Q66.7328 1271.09 68.5383 1267.55 Q70.367 1263.98 70.367 1256.88 Q70.367 1249.75 68.5383 1246.21 Q66.7328 1242.64 63.0985 1242.64 M63.0985 1238.94 Q68.9087 1238.94 71.9642 1243.55 Q75.0429 1248.13 75.0429 1256.88 Q75.0429 1265.61 71.9642 1270.21 Q68.9087 1274.79 63.0985 1274.79 Q57.2884 1274.79 54.2097 1270.21 Q51.1542 1265.61 51.1542 1256.88 Q51.1542 1248.13 54.2097 1243.55 Q57.2884 1238.94 63.0985 1238.94 Z" fill="#000000" fill-rule="evenodd" fill-opacity="1" /><path clip-path="url(#clip830)" d="M83.2605 1268.24 L88.1447 1268.24 L88.1447 1274.12 L83.2605 1274.12 L83.2605 1268.24 Z" fill="#000000" fill-rule="evenodd" fill-opacity="1" /><path clip-path="url(#clip830)" d="M108.33 1242.64 Q104.719 1242.64 102.89 1246.21 Q101.084 1249.75 101.084 1256.88 Q101.084 1263.98 102.89 1267.55 Q104.719 1271.09 108.33 1271.09 Q111.964 1271.09 113.77 1267.55 Q115.598 1263.98 115.598 1256.88 Q115.598 1249.75 113.77 1246.21 Q111.964 1242.64 108.33 1242.64 M108.33 1238.94 Q114.14 1238.94 117.195 1243.55 Q120.274 1248.13 120.274 1256.88 Q120.274 1265.61 117.195 1270.21 Q114.14 1274.79 108.33 1274.79 Q102.52 1274.79 99.4409 1270.21 Q96.3854 1265.61 96.3854 1256.88 Q96.3854 1248.13 99.4409 1243.55 Q102.52 1238.94 108.33 1238.94 Z" fill="#000000" fill-rule="evenodd" fill-opacity="1" /><path clip-path="url(#clip830)" d="M63.7467 970.954 Q60.1356 970.954 58.3069 974.518 Q56.5014 978.06 56.5014 985.19 Q56.5014 992.296 58.3069 995.861 Q60.1356 999.403 63.7467 999.403 Q67.3809 999.403 69.1865 995.861 Q71.0152 992.296 71.0152 985.19 Q71.0152 978.06 69.1865 974.518 Q67.3809 970.954 63.7467 970.954 M63.7467 967.25 Q69.5568 967.25 72.6124 971.856 Q75.6911 976.44 75.6911 985.19 Q75.6911 993.916 72.6124 998.523 Q69.5568 1003.11 63.7467 1003.11 Q57.9365 1003.11 54.8578 998.523 Q51.8023 993.916 51.8023 985.19 Q51.8023 976.44 54.8578 971.856 Q57.9365 967.25 63.7467 967.25 Z" fill="#000000" fill-rule="evenodd" fill-opacity="1" /><path clip-path="url(#clip830)" d="M83.9086 996.555 L88.7928 996.555 L88.7928 1002.43 L83.9086 1002.43 L83.9086 996.555 Z" fill="#000000" fill-rule="evenodd" fill-opacity="1" /><path clip-path="url(#clip830)" d="M113.145 983.801 Q116.501 984.518 118.376 986.787 Q120.274 989.055 120.274 992.389 Q120.274 997.504 116.756 1000.31 Q113.237 1003.11 106.756 1003.11 Q104.58 1003.11 102.265 1002.67 Q99.9733 1002.25 97.5197 1001.39 L97.5197 996.879 Q99.4641 998.014 101.779 998.592 Q104.094 999.171 106.617 999.171 Q111.015 999.171 113.307 997.435 Q115.621 995.699 115.621 992.389 Q115.621 989.333 113.469 987.62 Q111.339 985.884 107.52 985.884 L103.492 985.884 L103.492 982.041 L107.705 982.041 Q111.154 982.041 112.983 980.676 Q114.811 979.287 114.811 976.694 Q114.811 974.032 112.913 972.62 Q111.038 971.185 107.52 971.185 Q105.598 971.185 103.399 971.602 Q101.2 972.018 98.5613 972.898 L98.5613 968.731 Q101.223 967.991 103.538 967.62 Q105.876 967.25 107.936 967.25 Q113.26 967.25 116.362 969.68 Q119.464 972.088 119.464 976.208 Q119.464 979.079 117.82 981.069 Q116.177 983.037 113.145 983.801 Z" fill="#000000" fill-rule="evenodd" fill-opacity="1" /><path clip-path="url(#clip830)" d="M62.9365 699.265 Q59.3254 699.265 57.4967 702.83 Q55.6912 706.371 55.6912 713.501 Q55.6912 720.607 57.4967 724.172 Q59.3254 727.714 62.9365 727.714 Q66.5707 727.714 68.3763 724.172 Q70.205 720.607 70.205 713.501 Q70.205 706.371 68.3763 702.83 Q66.5707 699.265 62.9365 699.265 M62.9365 695.561 Q68.7467 695.561 71.8022 700.168 Q74.8809 704.751 74.8809 713.501 Q74.8809 722.228 71.8022 726.834 Q68.7467 731.417 62.9365 731.417 Q57.1264 731.417 54.0477 726.834 Q50.9921 722.228 50.9921 713.501 Q50.9921 704.751 54.0477 700.168 Q57.1264 695.561 62.9365 695.561 Z" fill="#000000" fill-rule="evenodd" fill-opacity="1" /><path clip-path="url(#clip830)" d="M83.0984 724.867 L87.9827 724.867 L87.9827 730.746 L83.0984 730.746 L83.0984 724.867 Z" fill="#000000" fill-rule="evenodd" fill-opacity="1" /><path clip-path="url(#clip830)" d="M108.746 711.603 Q105.598 711.603 103.746 713.755 Q101.918 715.908 101.918 719.658 Q101.918 723.385 103.746 725.561 Q105.598 727.714 108.746 727.714 Q111.895 727.714 113.723 725.561 Q115.575 723.385 115.575 719.658 Q115.575 715.908 113.723 713.755 Q111.895 711.603 108.746 711.603 M118.029 696.95 L118.029 701.209 Q116.27 700.376 114.464 699.936 Q112.682 699.496 110.922 699.496 Q106.293 699.496 103.839 702.621 Q101.409 705.746 101.061 712.066 Q102.427 710.052 104.487 708.987 Q106.547 707.899 109.024 707.899 Q114.233 707.899 117.242 711.07 Q120.274 714.218 120.274 719.658 Q120.274 724.982 117.126 728.2 Q113.978 731.417 108.746 731.417 Q102.751 731.417 99.5798 726.834 Q96.4085 722.228 96.4085 713.501 Q96.4085 705.306 100.297 700.445 Q104.186 695.561 110.737 695.561 Q112.496 695.561 114.279 695.908 Q116.084 696.256 118.029 696.95 Z" fill="#000000" fill-rule="evenodd" fill-opacity="1" /><path clip-path="url(#clip830)" d="M63.2837 427.576 Q59.6726 427.576 57.8439 431.141 Q56.0384 434.683 56.0384 441.812 Q56.0384 448.919 57.8439 452.483 Q59.6726 456.025 63.2837 456.025 Q66.918 456.025 68.7235 452.483 Q70.5522 448.919 70.5522 441.812 Q70.5522 434.683 68.7235 431.141 Q66.918 427.576 63.2837 427.576 M63.2837 423.872 Q69.0939 423.872 72.1494 428.479 Q75.2281 433.062 75.2281 441.812 Q75.2281 450.539 72.1494 455.145 Q69.0939 459.729 63.2837 459.729 Q57.4736 459.729 54.3949 455.145 Q51.3393 450.539 51.3393 441.812 Q51.3393 433.062 54.3949 428.479 Q57.4736 423.872 63.2837 423.872 Z" fill="#000000" fill-rule="evenodd" fill-opacity="1" /><path clip-path="url(#clip830)" d="M83.4457 453.178 L88.3299 453.178 L88.3299 459.057 L83.4457 459.057 L83.4457 453.178 Z" fill="#000000" fill-rule="evenodd" fill-opacity="1" /><path clip-path="url(#clip830)" d="M98.6539 458.34 L98.6539 454.081 Q100.413 454.914 102.219 455.354 Q104.024 455.794 105.76 455.794 Q110.39 455.794 112.82 452.692 Q115.274 449.567 115.621 443.224 Q114.279 445.215 112.219 446.28 Q110.158 447.344 107.658 447.344 Q102.473 447.344 99.4409 444.22 Q96.4317 441.071 96.4317 435.632 Q96.4317 430.308 99.5798 427.09 Q102.728 423.872 107.959 423.872 Q113.955 423.872 117.103 428.479 Q120.274 433.062 120.274 441.812 Q120.274 449.983 116.385 454.868 Q112.52 459.729 105.969 459.729 Q104.209 459.729 102.404 459.381 Q100.598 459.034 98.6539 458.34 M107.959 443.687 Q111.108 443.687 112.936 441.534 Q114.788 439.382 114.788 435.632 Q114.788 431.905 112.936 429.752 Q111.108 427.576 107.959 427.576 Q104.811 427.576 102.959 429.752 Q101.131 431.905 101.131 435.632 Q101.131 439.382 102.959 441.534 Q104.811 443.687 107.959 443.687 Z" fill="#000000" fill-rule="evenodd" fill-opacity="1" /><path clip-path="url(#clip830)" d="M55.506 183.433 L63.1448 183.433 L63.1448 157.068 L54.8347 158.735 L54.8347 154.475 L63.0985 152.809 L67.7744 152.809 L67.7744 183.433 L75.4133 183.433 L75.4133 187.369 L55.506 187.369 L55.506 183.433 Z" fill="#000000" fill-rule="evenodd" fill-opacity="1" /><path clip-path="url(#clip830)" d="M84.8577 181.489 L89.7419 181.489 L89.7419 187.369 L84.8577 187.369 L84.8577 181.489 Z" fill="#000000" fill-rule="evenodd" fill-opacity="1" /><path clip-path="url(#clip830)" d="M103.955 183.433 L120.274 183.433 L120.274 187.369 L98.3298 187.369 L98.3298 183.433 Q100.992 180.679 105.575 176.049 Q110.182 171.396 111.362 170.054 Q113.608 167.531 114.487 165.795 Q115.39 164.035 115.39 162.346 Q115.39 159.591 113.445 157.855 Q111.524 156.119 108.422 156.119 Q106.223 156.119 103.77 156.883 Q101.339 157.647 98.5613 159.197 L98.5613 154.475 Q101.385 153.341 103.839 152.762 Q106.293 152.184 108.33 152.184 Q113.7 152.184 116.895 154.869 Q120.089 157.554 120.089 162.045 Q120.089 164.174 119.279 166.096 Q118.492 167.994 116.385 170.586 Q115.807 171.258 112.705 174.475 Q109.603 177.67 103.955 183.433 Z" fill="#000000" fill-rule="evenodd" fill-opacity="1" /><polyline clip-path="url(#clip832)" style="stroke:#009af9; stroke-linecap:round; stroke-linejoin:round; stroke-width:16; stroke-opacity:1; fill:none" stroke-dasharray="8, 16" points="
  218.439,1120.98 228.852,1103.4 239.264,1088.6 249.677,1078.83 260.09,1075.54 270.503,1079.07 280.916,1088.73 291.329,1103.26 301.741,1121.63 312.154,1143.66 
  322.567,1169.89 332.98,1200.51 343.393,1234.25 353.805,1268.71 364.218,1301.64 374.631,1332.04 385.044,1359.81 395.457,1384.77 405.87,1406.07 416.282,1422.43 
  426.695,1432.77 437.108,1436.8 447.521,1435.02 457.934,1428.3 468.347,1417.2 478.759,1401.55 489.172,1380.67 499.585,1354.23 509.998,1322.99 520.411,1289.03 
  530.824,1254.89 541.236,1222.54 551.649,1192.8 562.062,1165.57 572.475,1140.49 582.888,1117.71 593.301,1098.19 603.713,1083.47 614.126,1075.04 624.539,1073.78 
  634.952,1079.61 645.365,1091.47 655.777,1107.77 666.19,1127.64 676.603,1151.82 687.016,1181.32 697.429,1214.67 707.842,1247.98 718.254,1278.61 728.667,1307.89 
  739.08,1338.5 749.493,1369.28 759.906,1394.36 770.319,1408.59 780.731,1413.69 791.144,1417.28 801.557,1425.59 811.97,1437.67 822.383,1445.72 832.796,1439.9 
  843.208,1413.93 853.621,1368.54 864.034,1312.67 874.447,1262.86 884.86,1238.23 895.273,1250.39 905.685,1289.25 916.098,1307.14 926.511,1256.99 936.924,1136.29 
  947.337,980.589 957.749,883.64 968.162,953.997 978.575,1067.81 988.988,1131.63 999.401,1160.88 1009.81,1148.83 1020.23,1120.19 1030.64,1087.47 1041.05,1118.52 
  1051.46,1194.7 1061.88,1218.52 1072.29,1204.89 1082.7,1274.39 1093.12,1421.02 1103.53,1382.91 1113.94,1299.42 1124.35,1294.38 1134.77,1355.93 1145.18,1425.95 
  1155.59,1421.08 1166.01,1396.37 1176.42,1396.21 1186.83,1412.38 1197.24,1423.58 1207.66,1419.75 1218.07,1399.68 1228.48,1356.78 1238.9,1262.14 1249.31,1053.44 
  1259.72,705.252 1270.13,404.744 1280.55,352.816 1290.96,411.143 1301.37,423.157 1311.79,390.909 1322.2,352.43 1332.61,316.616 1343.02,281.475 1353.44,285.015 
  1363.85,360.974 1374.26,384.991 1384.68,348.396 1395.09,356.222 1405.5,332.605 1415.91,248.594 1426.33,238.969 1436.74,363.505 1447.15,383.768 1457.57,356.924 
  1467.98,367.034 1478.39,294.24 1488.8,303.026 1499.22,357.234 1509.63,397.383 1520.04,392.427 1530.45,361.615 1540.87,334.014 1551.28,330.25 1561.69,364.454 
  1572.11,409.772 1582.52,427.245 1592.93,394.376 1603.34,321.008 1613.76,258.525 1624.17,246.956 1634.58,282.324 1645,340.249 1655.41,399.074 1665.82,444.196 
  1676.23,464.854 1686.65,453.14 1697.06,407.458 1707.47,337.625 1717.89,266.268 1728.3,221.263 1738.71,220.979 1749.12,263.713 1759.54,330.544 1769.95,397.558 
  1780.36,446.523 1790.78,468.504 1801.19,462.318 1811.6,431.678 1822.01,383.137 1832.43,325.23 1842.84,268.441 1853.25,225.301 1863.67,209.576 1874.08,232.915 
  1884.49,298.041 1894.9,391.086 1905.32,480.706 1915.73,530.522 1926.14,519.432 1936.56,453.18 1946.97,357.83 1957.38,264.17 1967.79,196.839 1978.21,171.292 
  1988.62,193.426 1999.03,258.446 2009.45,350.846 2019.86,448.154 2030.27,526.341 2040.68,563.259 2051.1,541.961 2061.51,458.232 2071.92,329.689 2082.33,197.123 
  2092.75,110.843 2103.16,105.202 2113.57,179.118 2123.99,300.276 2134.4,426.957 2144.81,526.266 2155.22,578.893 2165.64,575.708 2176.05,514.769 2186.46,403.545 
  2196.88,265.416 2207.29,143.192 2217.7,87.9763 2228.11,127.167 2238.53,234.193 2248.94,347.337 2259.35,427.594 2269.77,480.033 2280.18,525.816 2290.59,576.849 
  
  "/>
<polyline clip-path="url(#clip832)" style="stroke:#e26f46; stroke-linecap:round; stroke-linejoin:round; stroke-width:4; stroke-opacity:1; fill:none" points="
  218.439,1120.82 228.852,1101.52 239.264,1087.29 249.677,1078.6 260.09,1075.72 270.503,1078.75 280.916,1087.6 291.329,1101.97 301.741,1121.39 312.154,1145.24 
  322.567,1172.72 332.98,1202.96 343.393,1234.95 353.805,1267.65 364.218,1300.01 374.631,1330.95 385.044,1359.48 395.457,1384.66 405.87,1405.66 416.282,1421.81 
  426.695,1432.57 437.108,1437.6 447.521,1436.73 457.934,1429.99 468.347,1417.6 478.759,1399.96 489.172,1377.65 499.585,1351.39 509.998,1322.05 520.411,1290.59 
  530.824,1258.02 541.236,1225.41 551.649,1193.83 562.062,1164.31 572.475,1137.8 582.888,1115.19 593.301,1097.19 603.713,1084.4 614.126,1077.25 624.539,1075.95 
  634.952,1080.56 645.365,1090.92 655.777,1106.7 666.19,1127.38 676.603,1152.28 687.016,1180.59 697.429,1211.4 707.842,1243.69 718.254,1276.4 728.667,1308.48 
  739.08,1338.87 749.493,1366.59 759.906,1390.72 770.319,1410.49 780.731,1425.24 791.144,1434.49 801.557,1437.95 811.97,1435.49 822.383,1427.21 832.796,1413.36 
  843.208,1394.41 853.621,1370.96 864.034,1343.8 874.447,1313.79 884.86,1281.93 895.273,1249.24 905.685,1216.81 916.098,1185.68 926.511,1156.87 936.924,1131.33 
  947.337,1109.88 957.749,1093.23 968.162,1081.92 978.575,1076.32 988.988,1076.61 999.401,1082.78 1009.81,1094.64 1020.23,1111.78 1030.64,1133.67 1041.05,1159.57 
  1051.46,1188.64 1061.88,1219.95 1072.29,1252.45 1082.7,1285.1 1093.12,1316.83 1103.53,1346.6 1113.94,1373.44 1124.35,1396.48 1134.77,1414.96 1145.18,1428.27 
  1155.59,1435.99 1166.01,1437.87 1176.42,1433.84 1186.83,1424.03 1197.24,1408.76 1207.66,1388.54 1218.07,1364.02 1228.48,1336 1238.9,1305.39 1249.31,1273.2 
  1259.72,349.899 1270.13,348.403 1280.55,349.765 1290.96,354.3 1301.37,360.617 1311.79,366.049 1322.2,367.657 1332.61,363.478 1343.02,353.516 1353.44,340.086 
  1363.85,327.307 1374.26,319.841 1384.68,321.273 1395.09,332.664 1405.5,351.823 1415.91,373.627 1426.33,391.383 1436.74,398.873 1447.15,392.461 1457.57,372.568 
  1467.98,343.955 1478.39,314.631 1488.8,293.615 1499.22,288.17 1509.63,301.369 1520.04,330.773 1530.45,368.748 1540.87,404.42 1551.28,426.793 1561.69,428.118 
  1572.11,406.503 1582.52,366.891 1592.93,320 1603.34,279.439 1613.76,257.757 1624.17,262.578 1634.58,294.013 1645,344.196 1655.41,399.21 1665.82,442.941 
  1676.23,461.794 1686.65,448.902 1697.06,406.506 1707.47,345.741 1717.89,283.732 1728.3,238.77 1738.71,224.923 1749.12,247.661 1759.54,301.856 1769.95,372.853 
  1780.36,440.415 1790.78,484.494 1801.19,491.171 1811.6,457.017 1822.01,390.512 1832.43,309.994 1842.84,238.608 1853.25,197.654 1863.67,200.243 1874.08,247.14 
  1884.49,326.111 1894.9,415.084 1905.32,488.311 1915.73,523.819 1926.14,509.991 1936.56,449.315 1946.97,358.088 1957.38,262.068 1967.79,189.197 1978.21,161.478 
  1988.62,188.34 1999.03,263.512 2009.45,366.408 2019.86,467.75 2030.27,537.898 2040.68,555.518 2051.1,514.047 2061.51,424.016 2071.92,310.414 2082.33,205.769 
  2092.75,140.828 2103.16,135.531 2113.57,192.911 2123.99,297.791 2134.4,420.766 2144.81,526.443 2155.22,583.625 2165.64,574.521 2176.05,500.24 2186.46,380.912 
  2196.88,250.25 2207.29,146.029 2217.7,99.1643 2228.11,124.552 2238.53,216.376 2248.94,349.355 2259.35,485.687 2269.77,585.802 2280.18,619.834 2290.59,576.529 
  
  "/>
<path clip-path="url(#clip830)" d="
M229.49 250.738 L700.371 250.738 L700.371 95.2176 L229.49 95.2176  Z
  " fill="#ffffff" fill-rule="evenodd" fill-opacity="1"/>
<polyline clip-path="url(#clip830)" style="stroke:#000000; stroke-linecap:round; stroke-linejoin:round; stroke-width:4; stroke-opacity:1; fill:none" points="
  229.49,250.738 700.371,250.738 700.371,95.2176 229.49,95.2176 229.49,250.738 
  "/>
<polyline clip-path="url(#clip830)" style="stroke:#009af9; stroke-linecap:round; stroke-linejoin:round; stroke-width:4; stroke-opacity:1; fill:none" stroke-dasharray="2, 4" points="
  253.896,147.058 400.328,147.058 
  "/>
<path clip-path="url(#clip830)" d="M429.409 133.62 L429.409 146.606 L435.289 146.606 Q438.552 146.606 440.335 144.916 Q442.117 143.227 442.117 140.102 Q442.117 137 440.335 135.31 Q438.552 133.62 435.289 133.62 L429.409 133.62 M424.733 129.778 L435.289 129.778 Q441.099 129.778 444.062 132.416 Q447.048 135.032 447.048 140.102 Q447.048 145.217 444.062 147.833 Q441.099 150.449 435.289 150.449 L429.409 150.449 L429.409 164.338 L424.733 164.338 L424.733 129.778 Z" fill="#000000" fill-rule="evenodd" fill-opacity="1" /><path clip-path="url(#clip830)" d="M467.325 142.393 Q466.608 141.977 465.751 141.791 Q464.918 141.583 463.899 141.583 Q460.288 141.583 458.344 143.944 Q456.423 146.282 456.423 150.68 L456.423 164.338 L452.14 164.338 L452.14 138.412 L456.423 138.412 L456.423 142.44 Q457.765 140.078 459.918 138.944 Q462.071 137.787 465.149 137.787 Q465.589 137.787 466.122 137.856 Q466.654 137.903 467.302 138.018 L467.325 142.393 Z" fill="#000000" fill-rule="evenodd" fill-opacity="1" /><path clip-path="url(#clip830)" d="M492.927 150.31 L492.927 152.393 L473.344 152.393 Q473.622 156.791 475.983 159.106 Q478.367 161.398 482.603 161.398 Q485.057 161.398 487.348 160.796 Q489.663 160.194 491.932 158.99 L491.932 163.018 Q489.64 163.99 487.233 164.5 Q484.825 165.009 482.348 165.009 Q476.145 165.009 472.511 161.398 Q468.899 157.787 468.899 151.629 Q468.899 145.264 472.325 141.537 Q475.774 137.787 481.608 137.787 Q486.839 137.787 489.872 141.166 Q492.927 144.523 492.927 150.31 M488.668 149.06 Q488.622 145.565 486.7 143.481 Q484.802 141.398 481.654 141.398 Q478.089 141.398 475.936 143.412 Q473.807 145.426 473.483 149.083 L488.668 149.06 Z" fill="#000000" fill-rule="evenodd" fill-opacity="1" /><path clip-path="url(#clip830)" d="M516.978 142.347 L516.978 128.319 L521.237 128.319 L521.237 164.338 L516.978 164.338 L516.978 160.449 Q515.635 162.763 513.575 163.898 Q511.538 165.009 508.668 165.009 Q503.969 165.009 501.006 161.259 Q498.066 157.509 498.066 151.398 Q498.066 145.287 501.006 141.537 Q503.969 137.787 508.668 137.787 Q511.538 137.787 513.575 138.921 Q515.635 140.032 516.978 142.347 M502.464 151.398 Q502.464 156.097 504.385 158.782 Q506.33 161.444 509.709 161.444 Q513.089 161.444 515.033 158.782 Q516.978 156.097 516.978 151.398 Q516.978 146.699 515.033 144.037 Q513.089 141.352 509.709 141.352 Q506.33 141.352 504.385 144.037 Q502.464 146.699 502.464 151.398 Z" fill="#000000" fill-rule="evenodd" fill-opacity="1" /><path clip-path="url(#clip830)" d="M530.01 138.412 L534.269 138.412 L534.269 164.338 L530.01 164.338 L530.01 138.412 M530.01 128.319 L534.269 128.319 L534.269 133.713 L530.01 133.713 L530.01 128.319 Z" fill="#000000" fill-rule="evenodd" fill-opacity="1" /><path clip-path="url(#clip830)" d="M561.839 139.407 L561.839 143.389 Q560.033 142.393 558.205 141.907 Q556.399 141.398 554.547 141.398 Q550.404 141.398 548.112 144.037 Q545.82 146.652 545.82 151.398 Q545.82 156.143 548.112 158.782 Q550.404 161.398 554.547 161.398 Q556.399 161.398 558.205 160.912 Q560.033 160.402 561.839 159.407 L561.839 163.342 Q560.056 164.176 558.135 164.592 Q556.237 165.009 554.084 165.009 Q548.228 165.009 544.779 161.328 Q541.33 157.648 541.33 151.398 Q541.33 145.055 544.802 141.421 Q548.297 137.787 554.362 137.787 Q556.33 137.787 558.205 138.203 Q560.08 138.597 561.839 139.407 Z" fill="#000000" fill-rule="evenodd" fill-opacity="1" /><path clip-path="url(#clip830)" d="M573.459 131.051 L573.459 138.412 L582.232 138.412 L582.232 141.722 L573.459 141.722 L573.459 155.796 Q573.459 158.967 574.316 159.87 Q575.195 160.773 577.857 160.773 L582.232 160.773 L582.232 164.338 L577.857 164.338 Q572.927 164.338 571.052 162.509 Q569.177 160.657 569.177 155.796 L569.177 141.722 L566.052 141.722 L566.052 138.412 L569.177 138.412 L569.177 131.051 L573.459 131.051 Z" fill="#000000" fill-rule="evenodd" fill-opacity="1" /><path clip-path="url(#clip830)" d="M587.834 138.412 L592.093 138.412 L592.093 164.338 L587.834 164.338 L587.834 138.412 M587.834 128.319 L592.093 128.319 L592.093 133.713 L587.834 133.713 L587.834 128.319 Z" fill="#000000" fill-rule="evenodd" fill-opacity="1" /><path clip-path="url(#clip830)" d="M611.051 141.398 Q607.626 141.398 605.635 144.083 Q603.644 146.745 603.644 151.398 Q603.644 156.051 605.612 158.736 Q607.602 161.398 611.051 161.398 Q614.454 161.398 616.445 158.713 Q618.436 156.027 618.436 151.398 Q618.436 146.791 616.445 144.106 Q614.454 141.398 611.051 141.398 M611.051 137.787 Q616.607 137.787 619.778 141.398 Q622.95 145.009 622.95 151.398 Q622.95 157.764 619.778 161.398 Q616.607 165.009 611.051 165.009 Q605.473 165.009 602.302 161.398 Q599.153 157.764 599.153 151.398 Q599.153 145.009 602.302 141.398 Q605.473 137.787 611.051 137.787 Z" fill="#000000" fill-rule="evenodd" fill-opacity="1" /><path clip-path="url(#clip830)" d="M651.561 148.689 L651.561 164.338 L647.301 164.338 L647.301 148.828 Q647.301 145.148 645.866 143.319 Q644.431 141.49 641.561 141.49 Q638.112 141.49 636.121 143.69 Q634.13 145.889 634.13 149.685 L634.13 164.338 L629.848 164.338 L629.848 138.412 L634.13 138.412 L634.13 142.44 Q635.658 140.102 637.718 138.944 Q639.801 137.787 642.51 137.787 Q646.977 137.787 649.269 140.565 Q651.561 143.319 651.561 148.689 Z" fill="#000000" fill-rule="evenodd" fill-opacity="1" /><polyline clip-path="url(#clip830)" style="stroke:#e26f46; stroke-linecap:round; stroke-linejoin:round; stroke-width:4; stroke-opacity:1; fill:none" points="
  253.896,198.898 400.328,198.898 
  "/>
<path clip-path="url(#clip830)" d="M424.733 181.618 L446.585 181.618 L446.585 185.553 L429.409 185.553 L429.409 195.784 L445.867 195.784 L445.867 199.719 L429.409 199.719 L429.409 212.242 L447.001 212.242 L447.001 216.178 L424.733 216.178 L424.733 181.618 Z" fill="#000000" fill-rule="evenodd" fill-opacity="1" /><path clip-path="url(#clip830)" d="M476.052 190.252 L466.677 202.867 L476.538 216.178 L471.515 216.178 L463.969 205.992 L456.423 216.178 L451.4 216.178 L461.469 202.613 L452.256 190.252 L457.279 190.252 L464.154 199.488 L471.029 190.252 L476.052 190.252 Z" fill="#000000" fill-rule="evenodd" fill-opacity="1" /><path clip-path="url(#clip830)" d="M494.339 203.145 Q489.177 203.145 487.186 204.326 Q485.196 205.506 485.196 208.354 Q485.196 210.622 486.677 211.965 Q488.182 213.284 490.751 213.284 Q494.293 213.284 496.422 210.784 Q498.575 208.261 498.575 204.094 L498.575 203.145 L494.339 203.145 M502.834 201.386 L502.834 216.178 L498.575 216.178 L498.575 212.242 Q497.117 214.603 494.941 215.738 Q492.765 216.849 489.617 216.849 Q485.635 216.849 483.274 214.627 Q480.936 212.381 480.936 208.631 Q480.936 204.256 483.853 202.034 Q486.793 199.812 492.603 199.812 L498.575 199.812 L498.575 199.395 Q498.575 196.455 496.631 194.858 Q494.71 193.238 491.214 193.238 Q488.992 193.238 486.885 193.77 Q484.779 194.303 482.835 195.367 L482.835 191.432 Q485.173 190.53 487.372 190.09 Q489.571 189.627 491.654 189.627 Q497.279 189.627 500.057 192.543 Q502.834 195.46 502.834 201.386 Z" fill="#000000" fill-rule="evenodd" fill-opacity="1" /><path clip-path="url(#clip830)" d="M530.265 191.247 L530.265 195.229 Q528.459 194.233 526.631 193.747 Q524.825 193.238 522.973 193.238 Q518.83 193.238 516.538 195.877 Q514.246 198.492 514.246 203.238 Q514.246 207.983 516.538 210.622 Q518.83 213.238 522.973 213.238 Q524.825 213.238 526.631 212.752 Q528.459 212.242 530.265 211.247 L530.265 215.182 Q528.482 216.016 526.561 216.432 Q524.663 216.849 522.51 216.849 Q516.654 216.849 513.205 213.168 Q509.756 209.488 509.756 203.238 Q509.756 196.895 513.228 193.261 Q516.723 189.627 522.788 189.627 Q524.756 189.627 526.631 190.043 Q528.506 190.437 530.265 191.247 Z" fill="#000000" fill-rule="evenodd" fill-opacity="1" /><path clip-path="url(#clip830)" d="M541.885 182.891 L541.885 190.252 L550.658 190.252 L550.658 193.562 L541.885 193.562 L541.885 207.636 Q541.885 210.807 542.742 211.71 Q543.621 212.613 546.283 212.613 L550.658 212.613 L550.658 216.178 L546.283 216.178 Q541.353 216.178 539.478 214.349 Q537.603 212.497 537.603 207.636 L537.603 193.562 L534.478 193.562 L534.478 190.252 L537.603 190.252 L537.603 182.891 L541.885 182.891 Z" fill="#000000" fill-rule="evenodd" fill-opacity="1" /></svg>
