<?xml version="1.0" encoding="utf-8"?>
<svg xmlns="http://www.w3.org/2000/svg" xmlns:xlink="http://www.w3.org/1999/xlink" width="600" height="400" viewBox="0 0 2400 1600">
<defs>
  <clipPath id="clip700">
    <rect x="0" y="0" width="2400" height="1600"/>
  </clipPath>
</defs>
<path clip-path="url(#clip700)" d="
M0 1600 L2400 1600 L2400 0 L0 0  Z
  " fill="#ffffff" fill-rule="evenodd" fill-opacity="1"/>
<defs>
  <clipPath id="clip701">
    <rect x="480" y="0" width="1681" height="1600"/>
  </clipPath>
</defs>
<path clip-path="url(#clip700)" d="
M156.112 1486.45 L2352.76 1486.45 L2352.76 47.2441 L156.112 47.2441  Z
  " fill="#ffffff" fill-rule="evenodd" fill-opacity="1"/>
<defs>
  <clipPath id="clip702">
    <rect x="156" y="47" width="2198" height="1440"/>
  </clipPath>
</defs>
<polyline clip-path="url(#clip702)" style="stroke:#000000; stroke-linecap:round; stroke-linejoin:round; stroke-width:2; stroke-opacity:0.1; fill:none" points="
  218.281,1486.45 218.281,47.2441 
  "/>
<polyline clip-path="url(#clip702)" style="stroke:#000000; stroke-linecap:round; stroke-linejoin:round; stroke-width:2; stroke-opacity:0.1; fill:none" points="
  736.358,1486.45 736.358,47.2441 
  "/>
<polyline clip-path="url(#clip702)" style="stroke:#000000; stroke-linecap:round; stroke-linejoin:round; stroke-width:2; stroke-opacity:0.1; fill:none" points="
  1254.43,1486.45 1254.43,47.2441 
  "/>
<polyline clip-path="url(#clip702)" style="stroke:#000000; stroke-linecap:round; stroke-linejoin:round; stroke-width:2; stroke-opacity:0.1; fill:none" points="
  1772.51,1486.45 1772.51,47.2441 
  "/>
<polyline clip-path="url(#clip702)" style="stroke:#000000; stroke-linecap:round; stroke-linejoin:round; stroke-width:2; stroke-opacity:0.1; fill:none" points="
  2290.59,1486.45 2290.59,47.2441 
  "/>
<polyline clip-path="url(#clip700)" style="stroke:#000000; stroke-linecap:round; stroke-linejoin:round; stroke-width:4; stroke-opacity:1; fill:none" points="
  156.112,1486.45 2352.76,1486.45 
  "/>
<polyline clip-path="url(#clip700)" style="stroke:#000000; stroke-linecap:round; stroke-linejoin:round; stroke-width:4; stroke-opacity:1; fill:none" points="
  218.281,1486.45 218.281,1467.55 
  "/>
<polyline clip-path="url(#clip700)" style="stroke:#000000; stroke-linecap:round; stroke-linejoin:round; stroke-width:4; stroke-opacity:1; fill:none" points="
  736.358,1486.45 736.358,1467.55 
  "/>
<polyline clip-path="url(#clip700)" style="stroke:#000000; stroke-linecap:round; stroke-linejoin:round; stroke-width:4; stroke-opacity:1; fill:none" points="
  1254.43,1486.45 1254.43,1467.55 
  "/>
<polyline clip-path="url(#clip700)" style="stroke:#000000; stroke-linecap:round; stroke-linejoin:round; stroke-width:4; stroke-opacity:1; fill:none" points="
  1772.51,1486.45 1772.51,1467.55 
  "/>
<polyline clip-path="url(#clip700)" style="stroke:#000000; stroke-linecap:round; stroke-linejoin:round; stroke-width:4; stroke-opacity:1; fill:none" points="
  2290.59,1486.45 2290.59,1467.55 
  "/>
<path clip-path="url(#clip700)" d="M164.809 1532.02 L194.485 1532.02 L194.485 1535.95 L164.809 1535.95 L164.809 1532.02 Z" fill="#000000" fill-rule="evenodd" fill-opacity="1" /><path clip-path="url(#clip700)" d="M205.388 1544.91 L213.027 1544.91 L213.027 1518.55 L204.717 1520.21 L204.717 1515.95 L212.98 1514.29 L217.656 1514.29 L217.656 1544.91 L225.295 1544.91 L225.295 1548.85 L205.388 1548.85 L205.388 1544.91 Z" fill="#000000" fill-rule="evenodd" fill-opacity="1" /><path clip-path="url(#clip700)" d="M234.74 1542.97 L239.624 1542.97 L239.624 1548.85 L234.74 1548.85 L234.74 1542.97 Z" fill="#000000" fill-rule="evenodd" fill-opacity="1" /><path clip-path="url(#clip700)" d="M259.809 1517.37 Q256.198 1517.37 254.369 1520.93 Q252.564 1524.47 252.564 1531.6 Q252.564 1538.71 254.369 1542.27 Q256.198 1545.82 259.809 1545.82 Q263.443 1545.82 265.249 1542.27 Q267.077 1538.71 267.077 1531.6 Q267.077 1524.47 265.249 1520.93 Q263.443 1517.37 259.809 1517.37 M259.809 1513.66 Q265.619 1513.66 268.675 1518.27 Q271.753 1522.85 271.753 1531.6 Q271.753 1540.33 268.675 1544.94 Q265.619 1549.52 259.809 1549.52 Q253.999 1549.52 250.92 1544.94 Q247.864 1540.33 247.864 1531.6 Q247.864 1522.85 250.92 1518.27 Q253.999 1513.66 259.809 1513.66 Z" fill="#000000" fill-rule="evenodd" fill-opacity="1" /><path clip-path="url(#clip700)" d="M683.383 1532.02 L713.059 1532.02 L713.059 1535.95 L683.383 1535.95 L683.383 1532.02 Z" fill="#000000" fill-rule="evenodd" fill-opacity="1" /><path clip-path="url(#clip700)" d="M733.152 1517.37 Q729.541 1517.37 727.712 1520.93 Q725.906 1524.47 725.906 1531.6 Q725.906 1538.71 727.712 1542.27 Q729.541 1545.82 733.152 1545.82 Q736.786 1545.82 738.591 1542.27 Q740.42 1538.71 740.42 1531.6 Q740.42 1524.47 738.591 1520.93 Q736.786 1517.37 733.152 1517.37 M733.152 1513.66 Q738.962 1513.66 742.017 1518.27 Q745.096 1522.85 745.096 1531.6 Q745.096 1540.33 742.017 1544.94 Q738.962 1549.52 733.152 1549.52 Q727.341 1549.52 724.263 1544.94 Q721.207 1540.33 721.207 1531.6 Q721.207 1522.85 724.263 1518.27 Q727.341 1513.66 733.152 1513.66 Z" fill="#000000" fill-rule="evenodd" fill-opacity="1" /><path clip-path="url(#clip700)" d="M753.314 1542.97 L758.198 1542.97 L758.198 1548.85 L753.314 1548.85 L753.314 1542.97 Z" fill="#000000" fill-rule="evenodd" fill-opacity="1" /><path clip-path="url(#clip700)" d="M768.429 1514.29 L786.786 1514.29 L786.786 1518.22 L772.712 1518.22 L772.712 1526.7 Q773.73 1526.35 774.749 1526.19 Q775.767 1526 776.786 1526 Q782.573 1526 785.952 1529.17 Q789.332 1532.34 789.332 1537.76 Q789.332 1543.34 785.86 1546.44 Q782.387 1549.52 776.068 1549.52 Q773.892 1549.52 771.624 1549.15 Q769.378 1548.78 766.971 1548.04 L766.971 1543.34 Q769.054 1544.47 771.276 1545.03 Q773.499 1545.58 775.975 1545.58 Q779.98 1545.58 782.318 1543.48 Q784.656 1541.37 784.656 1537.76 Q784.656 1534.15 782.318 1532.04 Q779.98 1529.94 775.975 1529.94 Q774.101 1529.94 772.226 1530.35 Q770.374 1530.77 768.429 1531.65 L768.429 1514.29 Z" fill="#000000" fill-rule="evenodd" fill-opacity="1" /><path clip-path="url(#clip700)" d="M1231.82 1517.37 Q1228.21 1517.37 1226.38 1520.93 Q1224.57 1524.47 1224.57 1531.6 Q1224.57 1538.71 1226.38 1542.27 Q1228.21 1545.82 1231.82 1545.82 Q1235.45 1545.82 1237.26 1542.27 Q1239.09 1538.71 1239.09 1531.6 Q1239.09 1524.47 1237.26 1520.93 Q1235.45 1517.37 1231.82 1517.37 M1231.82 1513.66 Q1237.63 1513.66 1240.68 1518.27 Q1243.76 1522.85 1243.76 1531.6 Q1243.76 1540.33 1240.68 1544.94 Q1237.63 1549.52 1231.82 1549.52 Q1226.01 1549.52 1222.93 1544.94 Q1219.87 1540.33 1219.87 1531.6 Q1219.87 1522.85 1222.93 1518.27 Q1226.01 1513.66 1231.82 1513.66 Z" fill="#000000" fill-rule="evenodd" fill-opacity="1" /><path clip-path="url(#clip700)" d="M1251.98 1542.97 L1256.86 1542.97 L1256.86 1548.85 L1251.98 1548.85 L1251.98 1542.97 Z" fill="#000000" fill-rule="evenodd" fill-opacity="1" /><path clip-path="url(#clip700)" d="M1277.05 1517.37 Q1273.44 1517.37 1271.61 1520.93 Q1269.8 1524.47 1269.8 1531.6 Q1269.8 1538.71 1271.61 1542.27 Q1273.44 1545.82 1277.05 1545.82 Q1280.68 1545.82 1282.49 1542.27 Q1284.32 1538.71 1284.32 1531.6 Q1284.32 1524.47 1282.49 1520.93 Q1280.68 1517.37 1277.05 1517.37 M1277.05 1513.66 Q1282.86 1513.66 1285.92 1518.27 Q1288.99 1522.85 1288.99 1531.6 Q1288.99 1540.33 1285.92 1544.94 Q1282.86 1549.52 1277.05 1549.52 Q1271.24 1549.52 1268.16 1544.94 Q1265.11 1540.33 1265.11 1531.6 Q1265.11 1522.85 1268.16 1518.27 Q1271.24 1513.66 1277.05 1513.66 Z" fill="#000000" fill-rule="evenodd" fill-opacity="1" /><path clip-path="url(#clip700)" d="M1750.39 1517.37 Q1746.78 1517.37 1744.95 1520.93 Q1743.15 1524.47 1743.15 1531.6 Q1743.15 1538.71 1744.95 1542.27 Q1746.78 1545.82 1750.39 1545.82 Q1754.03 1545.82 1755.83 1542.27 Q1757.66 1538.71 1757.66 1531.6 Q1757.66 1524.47 1755.83 1520.93 Q1754.03 1517.37 1750.39 1517.37 M1750.39 1513.66 Q1756.2 1513.66 1759.26 1518.27 Q1762.34 1522.85 1762.34 1531.6 Q1762.34 1540.33 1759.26 1544.94 Q1756.2 1549.52 1750.39 1549.52 Q1744.58 1549.52 1741.5 1544.94 Q1738.45 1540.33 1738.45 1531.6 Q1738.45 1522.85 1741.5 1518.27 Q1744.58 1513.66 1750.39 1513.66 Z" fill="#000000" fill-rule="evenodd" fill-opacity="1" /><path clip-path="url(#clip700)" d="M1770.55 1542.97 L1775.44 1542.97 L1775.44 1548.85 L1770.55 1548.85 L1770.55 1542.97 Z" fill="#000000" fill-rule="evenodd" fill-opacity="1" /><path clip-path="url(#clip700)" d="M1785.67 1514.29 L1804.03 1514.29 L1804.03 1518.22 L1789.95 1518.22 L1789.95 1526.7 Q1790.97 1526.35 1791.99 1526.19 Q1793.01 1526 1794.03 1526 Q1799.81 1526 1803.19 1529.17 Q1806.57 1532.34 1806.57 1537.76 Q1806.57 1543.34 1803.1 1546.44 Q1799.63 1549.52 1793.31 1549.52 Q1791.13 1549.52 1788.86 1549.15 Q1786.62 1548.78 1784.21 1548.04 L1784.21 1543.34 Q1786.3 1544.47 1788.52 1545.03 Q1790.74 1545.58 1793.22 1545.58 Q1797.22 1545.58 1799.56 1543.48 Q1801.9 1541.37 1801.9 1537.76 Q1801.9 1534.15 1799.56 1532.04 Q1797.22 1529.94 1793.22 1529.94 Q1791.34 1529.94 1789.47 1530.35 Q1787.61 1530.77 1785.67 1531.65 L1785.67 1514.29 Z" fill="#000000" fill-rule="evenodd" fill-opacity="1" /><path clip-path="url(#clip700)" d="M2257.74 1544.91 L2265.38 1544.91 L2265.38 1518.55 L2257.07 1520.21 L2257.07 1515.95 L2265.33 1514.29 L2270.01 1514.29 L2270.01 1544.91 L2277.65 1544.91 L2277.65 1548.85 L2257.74 1548.85 L2257.74 1544.91 Z" fill="#000000" fill-rule="evenodd" fill-opacity="1" /><path clip-path="url(#clip700)" d="M2287.09 1542.97 L2291.98 1542.97 L2291.98 1548.85 L2287.09 1548.85 L2287.09 1542.97 Z" fill="#000000" fill-rule="evenodd" fill-opacity="1" /><path clip-path="url(#clip700)" d="M2312.16 1517.37 Q2308.55 1517.37 2306.72 1520.93 Q2304.92 1524.47 2304.92 1531.6 Q2304.92 1538.71 2306.72 1542.27 Q2308.55 1545.82 2312.16 1545.82 Q2315.79 1545.82 2317.6 1542.27 Q2319.43 1538.71 2319.43 1531.6 Q2319.43 1524.47 2317.6 1520.93 Q2315.79 1517.37 2312.16 1517.37 M2312.16 1513.66 Q2317.97 1513.66 2321.03 1518.27 Q2324.11 1522.85 2324.11 1531.6 Q2324.11 1540.33 2321.03 1544.94 Q2317.97 1549.52 2312.16 1549.52 Q2306.35 1549.52 2303.27 1544.94 Q2300.22 1540.33 2300.22 1531.6 Q2300.22 1522.85 2303.27 1518.27 Q2306.35 1513.66 2312.16 1513.66 Z" fill="#000000" fill-rule="evenodd" fill-opacity="1" /><polyline clip-path="url(#clip702)" style="stroke:#000000; stroke-linecap:round; stroke-linejoin:round; stroke-width:2; stroke-opacity:0.1; fill:none" points="
  156.112,1150.84 2352.76,1150.84 
  "/>
<polyline clip-path="url(#clip702)" style="stroke:#000000; stroke-linecap:round; stroke-linejoin:round; stroke-width:2; stroke-opacity:0.1; fill:none" points="
  156.112,788.847 2352.76,788.847 
  "/>
<polyline clip-path="url(#clip702)" style="stroke:#000000; stroke-linecap:round; stroke-linejoin:round; stroke-width:2; stroke-opacity:0.1; fill:none" points="
  156.112,426.852 2352.76,426.852 
  "/>
<polyline clip-path="url(#clip702)" style="stroke:#000000; stroke-linecap:round; stroke-linejoin:round; stroke-width:2; stroke-opacity:0.1; fill:none" points="
  156.112,64.8574 2352.76,64.8574 
  "/>
<polyline clip-path="url(#clip700)" style="stroke:#000000; stroke-linecap:round; stroke-linejoin:round; stroke-width:4; stroke-opacity:1; fill:none" points="
  156.112,1486.45 156.112,47.2441 
  "/>
<polyline clip-path="url(#clip700)" style="stroke:#000000; stroke-linecap:round; stroke-linejoin:round; stroke-width:4; stroke-opacity:1; fill:none" points="
  156.112,1150.84 175.01,1150.84 
  "/>
<polyline clip-path="url(#clip700)" style="stroke:#000000; stroke-linecap:round; stroke-linejoin:round; stroke-width:4; stroke-opacity:1; fill:none" points="
  156.112,788.847 175.01,788.847 
  "/>
<polyline clip-path="url(#clip700)" style="stroke:#000000; stroke-linecap:round; stroke-linejoin:round; stroke-width:4; stroke-opacity:1; fill:none" points="
  156.112,426.852 175.01,426.852 
  "/>
<polyline clip-path="url(#clip700)" style="stroke:#000000; stroke-linecap:round; stroke-linejoin:round; stroke-width:4; stroke-opacity:1; fill:none" points="
  156.112,64.8574 175.01,64.8574 
  "/>
<path clip-path="url(#clip700)" d="M62.9365 1136.64 Q59.3254 1136.64 57.4967 1140.2 Q55.6912 1143.75 55.6912 1150.88 Q55.6912 1157.98 57.4967 1161.55 Q59.3254 1165.09 62.9365 1165.09 Q66.5707 1165.09 68.3763 1161.55 Q70.205 1157.98 70.205 1150.88 Q70.205 1143.75 68.3763 1140.2 Q66.5707 1136.64 62.9365 1136.64 M62.9365 1132.94 Q68.7467 1132.94 71.8022 1137.54 Q74.8809 1142.13 74.8809 1150.88 Q74.8809 1159.6 71.8022 1164.21 Q68.7467 1168.79 62.9365 1168.79 Q57.1264 1168.79 54.0477 1164.21 Q50.9921 1159.6 50.9921 1150.88 Q50.9921 1142.13 54.0477 1137.54 Q57.1264 1132.94 62.9365 1132.94 Z" fill="#000000" fill-rule="evenodd" fill-opacity="1" /><path clip-path="url(#clip700)" d="M83.0984 1162.24 L87.9827 1162.24 L87.9827 1168.12 L83.0984 1168.12 L83.0984 1162.24 Z" fill="#000000" fill-rule="evenodd" fill-opacity="1" /><path clip-path="url(#clip700)" d="M108.168 1136.64 Q104.557 1136.64 102.728 1140.2 Q100.922 1143.75 100.922 1150.88 Q100.922 1157.98 102.728 1161.55 Q104.557 1165.09 108.168 1165.09 Q111.802 1165.09 113.608 1161.55 Q115.436 1157.98 115.436 1150.88 Q115.436 1143.75 113.608 1140.2 Q111.802 1136.64 108.168 1136.64 M108.168 1132.94 Q113.978 1132.94 117.033 1137.54 Q120.112 1142.13 120.112 1150.88 Q120.112 1159.6 117.033 1164.21 Q113.978 1168.79 108.168 1168.79 Q102.358 1168.79 99.2789 1164.21 Q96.2234 1159.6 96.2234 1150.88 Q96.2234 1142.13 99.2789 1137.54 Q102.358 1132.94 108.168 1132.94 Z" fill="#000000" fill-rule="evenodd" fill-opacity="1" /><path clip-path="url(#clip700)" d="M63.9319 774.645 Q60.3208 774.645 58.4921 778.21 Q56.6865 781.752 56.6865 788.881 Q56.6865 795.988 58.4921 799.553 Q60.3208 803.094 63.9319 803.094 Q67.5661 803.094 69.3717 799.553 Q71.2004 795.988 71.2004 788.881 Q71.2004 781.752 69.3717 778.21 Q67.5661 774.645 63.9319 774.645 M63.9319 770.942 Q69.742 770.942 72.7976 775.548 Q75.8763 780.132 75.8763 788.881 Q75.8763 797.608 72.7976 802.215 Q69.742 806.798 63.9319 806.798 Q58.1217 806.798 55.043 802.215 Q51.9875 797.608 51.9875 788.881 Q51.9875 780.132 55.043 775.548 Q58.1217 770.942 63.9319 770.942 Z" fill="#000000" fill-rule="evenodd" fill-opacity="1" /><path clip-path="url(#clip700)" d="M84.0938 800.247 L88.978 800.247 L88.978 806.127 L84.0938 806.127 L84.0938 800.247 Z" fill="#000000" fill-rule="evenodd" fill-opacity="1" /><path clip-path="url(#clip700)" d="M99.2095 771.567 L117.566 771.567 L117.566 775.502 L103.492 775.502 L103.492 783.974 Q104.51 783.627 105.529 783.465 Q106.547 783.28 107.566 783.28 Q113.353 783.28 116.733 786.451 Q120.112 789.622 120.112 795.039 Q120.112 800.618 116.64 803.719 Q113.168 806.798 106.848 806.798 Q104.672 806.798 102.404 806.428 Q100.159 806.057 97.7511 805.317 L97.7511 800.618 Q99.8345 801.752 102.057 802.307 Q104.279 802.863 106.756 802.863 Q110.76 802.863 113.098 800.756 Q115.436 798.65 115.436 795.039 Q115.436 791.428 113.098 789.321 Q110.76 787.215 106.756 787.215 Q104.881 787.215 103.006 787.632 Q101.154 788.048 99.2095 788.928 L99.2095 771.567 Z" fill="#000000" fill-rule="evenodd" fill-opacity="1" /><path clip-path="url(#clip700)" d="M53.7467 440.197 L61.3856 440.197 L61.3856 413.831 L53.0754 415.498 L53.0754 411.239 L61.3393 409.572 L66.0152 409.572 L66.0152 440.197 L73.654 440.197 L73.654 444.132 L53.7467 444.132 L53.7467 440.197 Z" fill="#000000" fill-rule="evenodd" fill-opacity="1" /><path clip-path="url(#clip700)" d="M83.0984 438.252 L87.9827 438.252 L87.9827 444.132 L83.0984 444.132 L83.0984 438.252 Z" fill="#000000" fill-rule="evenodd" fill-opacity="1" /><path clip-path="url(#clip700)" d="M108.168 412.651 Q104.557 412.651 102.728 416.216 Q100.922 419.757 100.922 426.887 Q100.922 433.993 102.728 437.558 Q104.557 441.1 108.168 441.1 Q111.802 441.1 113.608 437.558 Q115.436 433.993 115.436 426.887 Q115.436 419.757 113.608 416.216 Q111.802 412.651 108.168 412.651 M108.168 408.947 Q113.978 408.947 117.033 413.554 Q120.112 418.137 120.112 426.887 Q120.112 435.614 117.033 440.22 Q113.978 444.803 108.168 444.803 Q102.358 444.803 99.2789 440.22 Q96.2234 435.614 96.2234 426.887 Q96.2234 418.137 99.2789 413.554 Q102.358 408.947 108.168 408.947 Z" fill="#000000" fill-rule="evenodd" fill-opacity="1" /><path clip-path="url(#clip700)" d="M54.7421 78.2023 L62.381 78.2023 L62.381 51.8367 L54.0708 53.5033 L54.0708 49.2441 L62.3347 47.5774 L67.0106 47.5774 L67.0106 78.2023 L74.6494 78.2023 L74.6494 82.1374 L54.7421 82.1374 L54.7421 78.2023 Z" fill="#000000" fill-rule="evenodd" fill-opacity="1" /><path clip-path="url(#clip700)" d="M84.0938 76.2578 L88.978 76.2578 L88.978 82.1374 L84.0938 82.1374 L84.0938 76.2578 Z" fill="#000000" fill-rule="evenodd" fill-opacity="1" /><path clip-path="url(#clip700)" d="M99.2095 47.5774 L117.566 47.5774 L117.566 51.5126 L103.492 51.5126 L103.492 59.9848 Q104.51 59.6375 105.529 59.4755 Q106.547 59.2903 107.566 59.2903 Q113.353 59.2903 116.733 62.4616 Q120.112 65.6329 120.112 71.0495 Q120.112 76.6282 116.64 79.73 Q113.168 82.8087 106.848 82.8087 Q104.672 82.8087 102.404 82.4383 Q100.159 82.068 97.7511 81.3272 L97.7511 76.6282 Q99.8345 77.7624 102.057 78.318 Q104.279 78.8735 106.756 78.8735 Q110.76 78.8735 113.098 76.7671 Q115.436 74.6606 115.436 71.0495 Q115.436 67.4384 113.098 65.332 Q110.76 63.2255 106.756 63.2255 Q104.881 63.2255 103.006 63.6421 Q101.154 64.0588 99.2095 64.9384 L99.2095 47.5774 Z" fill="#000000" fill-rule="evenodd" fill-opacity="1" /><polyline clip-path="url(#clip702)" style="stroke:#009af9; stroke-linecap:round; stroke-linejoin:round; stroke-width:16; stroke-opacity:1; fill:none" stroke-dasharray="8, 16" points="
  218.281,1042.1 228.695,1052.2 239.108,998.351 249.522,947.632 259.936,999.151 270.349,1142.23 280.763,1273.5 291.176,1251.7 301.59,1070.55 312.004,889.928 
  322.417,848.431 332.831,950.628 343.244,1109.62 353.658,1245.53 364.072,1309.15 374.485,1290.42 384.899,1245.5 395.312,1224.36 405.726,1210.46 416.14,1216.66 
  426.553,1269.65 436.967,1347.75 447.38,1386.18 457.794,1342.04 468.208,1286.29 478.621,1259.4 489.035,1229.66 499.448,1202.72 509.862,1193.3 520.276,1191.98 
  530.689,1188.94 541.103,1165.3 551.516,1116.39 561.93,1058.96 572.344,1004.62 582.757,980.335 593.171,998.273 603.584,1032.42 613.998,1057.76 624.411,1057.44 
  634.825,1029.93 645.239,1010.58 655.652,1026.29 666.066,1062.85 676.479,1086.76 686.893,1073.96 697.307,1042.12 707.72,1048.32 718.134,1117.17 728.547,1209.26 
  738.961,1284.14 749.375,1326.49 759.788,1318.07 770.202,1255.84 780.615,1198.54 791.029,1198.86 801.443,1244.57 811.856,1302.33 822.27,1352.97 832.683,1380.14 
  843.097,1347.29 853.511,1232.31 863.924,1103.56 874.338,1052.67 884.751,1089.45 895.165,1145.85 905.579,1107.62 915.992,986.015 926.406,947.843 936.819,1044.24 
  947.233,1159.59 957.647,1164.94 968.06,1083.71 978.474,1009.83 988.887,1029.78 999.301,1139.21 1009.71,1164.89 1020.13,1056.99 1030.54,970.051 1040.96,982.381 
  1051.37,1062.95 1061.78,1121.32 1072.2,1137.82 1082.61,1153.58 1093.02,1175.77 1103.44,1210.21 1113.85,1307.32 1124.26,1445.72 1134.68,1434.95 1145.09,1316.88 
  1155.5,1271.9 1165.92,1282.79 1176.33,1293.69 1186.75,1287.52 1197.16,1265.69 1207.57,1240.52 1217.99,1227.27 1228.4,1220.05 1238.81,1151.81 1249.23,909.383 
  1259.64,580.8 1270.05,432.748 1280.47,434.03 1290.88,455.807 1301.3,455.793 1311.71,444.138 1322.12,439.96 1332.54,449.12 1342.95,461.334 1353.36,451.826 
  1363.78,372.849 1374.19,235.61 1384.6,227.297 1395.02,358.075 1405.43,436.446 1415.84,464.165 1426.26,484.456 1436.67,480.7 1447.09,457.761 1457.5,471.141 
  1467.91,521.516 1478.33,503.284 1488.74,350.294 1499.15,167.887 1509.57,185.583 1519.98,358.134 1530.39,439.179 1540.81,400.295 1551.22,336.012 1561.64,350.658 
  1572.05,478.154 1582.46,585.149 1592.88,534.66 1603.29,392.726 1613.7,351.384 1624.12,417.525 1634.53,492.349 1644.94,513.89 1655.36,472.973 1665.77,433.057 
  1676.18,437.139 1686.6,457.397 1697.01,465.009 1707.43,457.206 1717.84,435.767 1728.25,394.301 1738.67,337.365 1749.08,306.097 1759.49,329.96 1769.91,395.527 
  1780.32,484.922 1790.73,571.007 1801.15,600.751 1811.56,548.12 1821.97,461.902 1832.39,400.216 1842.8,370.493 1853.22,349.91 1863.63,324.995 1874.04,313.657 
  1884.46,355.689 1894.87,446.743 1905.28,529.181 1915.7,571.904 1926.11,567.764 1936.52,517.989 1946.94,441.263 1957.35,338.937 1967.77,239.378 1978.18,216.369 
  1988.59,277.277 1999.01,363.804 2009.42,433.998 2019.83,486.767 2030.25,550.861 2040.66,602.361 2051.07,556.792 2061.49,434.036 2071.9,352.342 2082.31,330.382 
  2092.73,319.401 2103.14,307.121 2113.56,329.478 2123.97,369.13 2134.38,386.874 2144.8,424.468 2155.21,515.76 2165.62,631.766 2176.04,717.989 2186.45,696.743 
  2196.86,509.308 2207.28,240.38 2217.69,87.9763 2228.11,138.587 2238.52,285.862 2248.93,425.467 2259.35,487.612 2269.76,479.17 2280.17,506.698 2290.59,606.976 
  
  "/>
<polyline clip-path="url(#clip702)" style="stroke:#e26f46; stroke-linecap:round; stroke-linejoin:round; stroke-width:4; stroke-opacity:1; fill:none" points="
  218.281,1042.1 228.695,1026.67 239.108,1015.3 249.522,1008.34 259.936,1006.04 270.349,1008.47 280.763,1015.54 291.176,1027.03 301.59,1042.56 312.004,1061.62 
  322.417,1083.59 332.831,1107.76 343.244,1133.34 353.658,1159.48 364.072,1185.35 374.485,1210.09 384.899,1232.89 395.312,1253.02 405.726,1269.81 416.14,1282.72 
  426.553,1291.32 436.967,1295.34 447.38,1294.65 457.794,1289.26 468.208,1279.35 478.621,1265.25 489.035,1247.41 499.448,1226.43 509.862,1202.97 520.276,1177.82 
  530.689,1151.78 541.103,1125.72 551.516,1100.47 561.93,1076.87 572.344,1055.68 582.757,1037.6 593.171,1023.21 603.584,1012.99 613.998,1007.27 624.411,1006.23 
  634.825,1009.91 645.239,1018.2 655.652,1030.81 666.066,1047.34 676.479,1067.25 686.893,1089.89 697.307,1114.51 707.72,1140.32 718.134,1166.48 728.547,1192.12 
  738.961,1216.42 749.375,1238.58 759.788,1257.87 770.202,1273.67 780.615,1285.46 791.029,1292.86 801.443,1295.62 811.856,1293.66 822.27,1287.04 832.683,1275.97 
  843.097,1260.82 853.511,1242.07 863.924,1220.35 874.338,1196.37 884.751,1170.89 895.165,1144.76 905.579,1118.83 915.992,1093.95 926.406,1070.92 936.819,1050.5 
  947.233,1033.36 957.647,1020.05 968.06,1011 978.474,1006.53 988.887,1006.76 999.301,1011.69 1009.71,1021.17 1020.13,1034.88 1030.54,1052.37 1040.96,1073.08 
  1051.37,1096.32 1061.78,1121.35 1072.2,1147.33 1082.61,1173.43 1093.02,1198.8 1103.44,1222.6 1113.85,1244.05 1124.26,1262.47 1134.68,1277.24 1145.09,1287.89 
  1155.5,1294.06 1165.92,1295.56 1176.33,1292.34 1186.75,1284.49 1197.16,1272.29 1207.57,1256.12 1217.99,1236.52 1228.4,1214.12 1238.81,1189.65 1249.23,1163.92 
  1259.64,425.801 1270.05,424.604 1280.47,425.693 1290.88,429.318 1301.3,434.369 1311.71,438.711 1322.12,439.997 1332.54,436.656 1342.95,428.692 1353.36,417.956 
  1363.78,407.739 1374.19,401.771 1384.6,402.916 1395.02,412.022 1405.43,427.338 1415.84,444.77 1426.26,458.964 1436.67,464.952 1447.09,459.826 1457.5,443.923 
  1467.91,421.049 1478.33,397.606 1488.74,380.805 1499.15,376.452 1509.57,387.004 1519.98,410.51 1530.39,440.869 1540.81,469.386 1551.22,487.272 1561.64,488.331 
  1572.05,471.052 1582.46,439.384 1592.88,401.898 1603.29,369.473 1613.7,352.139 1624.12,355.993 1634.53,381.123 1644.94,421.242 1655.36,465.221 1665.77,500.181 
  1676.18,515.253 1686.6,504.946 1697.01,471.054 1707.43,422.477 1717.84,372.904 1728.25,336.96 1738.67,325.891 1749.08,344.068 1759.49,387.393 1769.91,444.15 
  1780.32,498.162 1790.73,533.4 1801.15,538.738 1811.56,511.434 1821.97,458.268 1832.39,393.899 1842.8,336.831 1853.22,304.091 1863.63,306.161 1874.04,343.651 
  1884.46,406.784 1894.87,477.911 1905.28,536.451 1915.7,564.837 1926.11,553.784 1936.52,505.277 1946.94,432.347 1957.35,355.585 1967.77,297.33 1978.18,275.171 
  1988.59,296.645 1999.01,356.74 2009.42,438.998 2019.83,520.014 2030.25,576.093 2040.66,590.179 2051.07,557.026 2061.49,485.052 2071.9,394.235 2082.31,310.578 
  2092.73,258.662 2103.14,254.428 2113.56,300.299 2123.97,384.144 2134.38,482.454 2144.8,566.935 2155.21,612.649 2165.62,605.371 2176.04,545.988 2186.45,450.593 
  2196.86,346.138 2207.28,262.82 2217.69,225.355 2228.11,245.651 2238.52,319.058 2248.93,425.365 2259.35,534.354 2269.76,614.389 2280.17,641.595 2290.59,606.976 
  
  "/>
<path clip-path="url(#clip700)" d="
M229.334 250.738 L700.233 250.738 L700.233 95.2176 L229.334 95.2176  Z
  " fill="#ffffff" fill-rule="evenodd" fill-opacity="1"/>
<polyline clip-path="url(#clip700)" style="stroke:#000000; stroke-linecap:round; stroke-linejoin:round; stroke-width:4; stroke-opacity:1; fill:none" points="
  229.334,250.738 700.233,250.738 700.233,95.2176 229.334,95.2176 229.334,250.738 
  "/>
<polyline clip-path="url(#clip700)" style="stroke:#009af9; stroke-linecap:round; stroke-linejoin:round; stroke-width:4; stroke-opacity:1; fill:none" stroke-dasharray="2, 4" points="
  253.741,147.058 400.184,147.058 
  "/>
<path clip-path="url(#clip700)" d="M429.267 133.62 L429.267 146.606 L435.146 146.606 Q438.41 146.606 440.193 144.916 Q441.975 143.227 441.975 140.102 Q441.975 137 440.193 135.31 Q438.41 133.62 435.146 133.62 L429.267 133.62 M424.591 129.778 L435.146 129.778 Q440.956 129.778 443.919 132.416 Q446.906 135.032 446.906 140.102 Q446.906 145.217 443.919 147.833 Q440.956 150.449 435.146 150.449 L429.267 150.449 L429.267 164.338 L424.591 164.338 L424.591 129.778 Z" fill="#000000" fill-rule="evenodd" fill-opacity="1" /><path clip-path="url(#clip700)" d="M467.183 142.393 Q466.466 141.977 465.609 141.791 Q464.776 141.583 463.757 141.583 Q460.146 141.583 458.202 143.944 Q456.28 146.282 456.28 150.68 L456.28 164.338 L451.998 164.338 L451.998 138.412 L456.28 138.412 L456.28 142.44 Q457.623 140.078 459.776 138.944 Q461.929 137.787 465.007 137.787 Q465.447 137.787 465.979 137.856 Q466.512 137.903 467.16 138.018 L467.183 142.393 Z" fill="#000000" fill-rule="evenodd" fill-opacity="1" /><path clip-path="url(#clip700)" d="M492.785 150.31 L492.785 152.393 L473.202 152.393 Q473.479 156.791 475.841 159.106 Q478.225 161.398 482.461 161.398 Q484.915 161.398 487.206 160.796 Q489.521 160.194 491.79 158.99 L491.79 163.018 Q489.498 163.99 487.09 164.5 Q484.683 165.009 482.206 165.009 Q476.003 165.009 472.368 161.398 Q468.757 157.787 468.757 151.629 Q468.757 145.264 472.183 141.537 Q475.632 137.787 481.466 137.787 Q486.697 137.787 489.729 141.166 Q492.785 144.523 492.785 150.31 M488.526 149.06 Q488.479 145.565 486.558 143.481 Q484.66 141.398 481.512 141.398 Q477.947 141.398 475.794 143.412 Q473.665 145.426 473.341 149.083 L488.526 149.06 Z" fill="#000000" fill-rule="evenodd" fill-opacity="1" /><path clip-path="url(#clip700)" d="M516.836 142.347 L516.836 128.319 L521.095 128.319 L521.095 164.338 L516.836 164.338 L516.836 160.449 Q515.493 162.763 513.433 163.898 Q511.396 165.009 508.526 165.009 Q503.826 165.009 500.864 161.259 Q497.924 157.509 497.924 151.398 Q497.924 145.287 500.864 141.537 Q503.826 137.787 508.526 137.787 Q511.396 137.787 513.433 138.921 Q515.493 140.032 516.836 142.347 M502.322 151.398 Q502.322 156.097 504.243 158.782 Q506.188 161.444 509.567 161.444 Q512.947 161.444 514.891 158.782 Q516.836 156.097 516.836 151.398 Q516.836 146.699 514.891 144.037 Q512.947 141.352 509.567 141.352 Q506.188 141.352 504.243 144.037 Q502.322 146.699 502.322 151.398 Z" fill="#000000" fill-rule="evenodd" fill-opacity="1" /><path clip-path="url(#clip700)" d="M529.868 138.412 L534.127 138.412 L534.127 164.338 L529.868 164.338 L529.868 138.412 M529.868 128.319 L534.127 128.319 L534.127 133.713 L529.868 133.713 L529.868 128.319 Z" fill="#000000" fill-rule="evenodd" fill-opacity="1" /><path clip-path="url(#clip700)" d="M561.697 139.407 L561.697 143.389 Q559.891 142.393 558.062 141.907 Q556.257 141.398 554.405 141.398 Q550.261 141.398 547.97 144.037 Q545.678 146.652 545.678 151.398 Q545.678 156.143 547.97 158.782 Q550.261 161.398 554.405 161.398 Q556.257 161.398 558.062 160.912 Q559.891 160.402 561.697 159.407 L561.697 163.342 Q559.914 164.176 557.993 164.592 Q556.095 165.009 553.942 165.009 Q548.086 165.009 544.636 161.328 Q541.187 157.648 541.187 151.398 Q541.187 145.055 544.66 141.421 Q548.155 137.787 554.22 137.787 Q556.187 137.787 558.062 138.203 Q559.937 138.597 561.697 139.407 Z" fill="#000000" fill-rule="evenodd" fill-opacity="1" /><path clip-path="url(#clip700)" d="M573.317 131.051 L573.317 138.412 L582.09 138.412 L582.09 141.722 L573.317 141.722 L573.317 155.796 Q573.317 158.967 574.173 159.87 Q575.053 160.773 577.715 160.773 L582.09 160.773 L582.09 164.338 L577.715 164.338 Q572.784 164.338 570.909 162.509 Q569.034 160.657 569.034 155.796 L569.034 141.722 L565.909 141.722 L565.909 138.412 L569.034 138.412 L569.034 131.051 L573.317 131.051 Z" fill="#000000" fill-rule="evenodd" fill-opacity="1" /><path clip-path="url(#clip700)" d="M587.692 138.412 L591.951 138.412 L591.951 164.338 L587.692 164.338 L587.692 138.412 M587.692 128.319 L591.951 128.319 L591.951 133.713 L587.692 133.713 L587.692 128.319 Z" fill="#000000" fill-rule="evenodd" fill-opacity="1" /><path clip-path="url(#clip700)" d="M610.909 141.398 Q607.483 141.398 605.493 144.083 Q603.502 146.745 603.502 151.398 Q603.502 156.051 605.469 158.736 Q607.46 161.398 610.909 161.398 Q614.312 161.398 616.303 158.713 Q618.293 156.027 618.293 151.398 Q618.293 146.791 616.303 144.106 Q614.312 141.398 610.909 141.398 M610.909 137.787 Q616.465 137.787 619.636 141.398 Q622.807 145.009 622.807 151.398 Q622.807 157.764 619.636 161.398 Q616.465 165.009 610.909 165.009 Q605.331 165.009 602.159 161.398 Q599.011 157.764 599.011 151.398 Q599.011 145.009 602.159 141.398 Q605.331 137.787 610.909 137.787 Z" fill="#000000" fill-rule="evenodd" fill-opacity="1" /><path clip-path="url(#clip700)" d="M651.418 148.689 L651.418 164.338 L647.159 164.338 L647.159 148.828 Q647.159 145.148 645.724 143.319 Q644.289 141.49 641.418 141.49 Q637.969 141.49 635.979 143.69 Q633.988 145.889 633.988 149.685 L633.988 164.338 L629.705 164.338 L629.705 138.412 L633.988 138.412 L633.988 142.44 Q635.516 140.102 637.576 138.944 Q639.659 137.787 642.367 137.787 Q646.835 137.787 649.127 140.565 Q651.418 143.319 651.418 148.689 Z" fill="#000000" fill-rule="evenodd" fill-opacity="1" /><polyline clip-path="url(#clip700)" style="stroke:#e26f46; stroke-linecap:round; stroke-linejoin:round; stroke-width:4; stroke-opacity:1; fill:none" points="
  253.741,198.898 400.184,198.898 
  "/>
<path clip-path="url(#clip700)" d="M424.591 181.618 L446.443 181.618 L446.443 185.553 L429.267 185.553 L429.267 195.784 L445.725 195.784 L445.725 199.719 L429.267 199.719 L429.267 212.242 L446.859 212.242 L446.859 216.178 L424.591 216.178 L424.591 181.618 Z" fill="#000000" fill-rule="evenodd" fill-opacity="1" /><path clip-path="url(#clip700)" d="M475.91 190.252 L466.535 202.867 L476.396 216.178 L471.373 216.178 L463.827 205.992 L456.28 216.178 L451.257 216.178 L461.327 202.613 L452.114 190.252 L457.137 190.252 L464.012 199.488 L470.887 190.252 L475.91 190.252 Z" fill="#000000" fill-rule="evenodd" fill-opacity="1" /><path clip-path="url(#clip700)" d="M494.197 203.145 Q489.035 203.145 487.044 204.326 Q485.053 205.506 485.053 208.354 Q485.053 210.622 486.535 211.965 Q488.04 213.284 490.609 213.284 Q494.151 213.284 496.28 210.784 Q498.433 208.261 498.433 204.094 L498.433 203.145 L494.197 203.145 M502.692 201.386 L502.692 216.178 L498.433 216.178 L498.433 212.242 Q496.975 214.603 494.799 215.738 Q492.623 216.849 489.475 216.849 Q485.493 216.849 483.132 214.627 Q480.794 212.381 480.794 208.631 Q480.794 204.256 483.711 202.034 Q486.651 199.812 492.461 199.812 L498.433 199.812 L498.433 199.395 Q498.433 196.455 496.489 194.858 Q494.567 193.238 491.072 193.238 Q488.85 193.238 486.743 193.77 Q484.637 194.303 482.692 195.367 L482.692 191.432 Q485.03 190.53 487.229 190.09 Q489.428 189.627 491.512 189.627 Q497.137 189.627 499.914 192.543 Q502.692 195.46 502.692 201.386 Z" fill="#000000" fill-rule="evenodd" fill-opacity="1" /><path clip-path="url(#clip700)" d="M530.123 191.247 L530.123 195.229 Q528.317 194.233 526.488 193.747 Q524.683 193.238 522.831 193.238 Q518.688 193.238 516.396 195.877 Q514.104 198.492 514.104 203.238 Q514.104 207.983 516.396 210.622 Q518.688 213.238 522.831 213.238 Q524.683 213.238 526.488 212.752 Q528.317 212.242 530.123 211.247 L530.123 215.182 Q528.34 216.016 526.419 216.432 Q524.521 216.849 522.368 216.849 Q516.512 216.849 513.063 213.168 Q509.614 209.488 509.614 203.238 Q509.614 196.895 513.086 193.261 Q516.581 189.627 522.646 189.627 Q524.613 189.627 526.488 190.043 Q528.363 190.437 530.123 191.247 Z" fill="#000000" fill-rule="evenodd" fill-opacity="1" /><path clip-path="url(#clip700)" d="M541.743 182.891 L541.743 190.252 L550.516 190.252 L550.516 193.562 L541.743 193.562 L541.743 207.636 Q541.743 210.807 542.599 211.71 Q543.479 212.613 546.141 212.613 L550.516 212.613 L550.516 216.178 L546.141 216.178 Q541.211 216.178 539.336 214.349 Q537.461 212.497 537.461 207.636 L537.461 193.562 L534.336 193.562 L534.336 190.252 L537.461 190.252 L537.461 182.891 L541.743 182.891 Z" fill="#000000" fill-rule="evenodd" fill-opacity="1" /></svg>
