<?xml version="1.0" encoding="utf-8"?>
<svg xmlns="http://www.w3.org/2000/svg" xmlns:xlink="http://www.w3.org/1999/xlink" width="600" height="400" viewBox="0 0 2400 1600">
<defs>
  <clipPath id="clip130">
    <rect x="0" y="0" width="2400" height="1600"/>
  </clipPath>
</defs>
<path clip-path="url(#clip130)" d="
M0 1600 L2400 1600 L2400 0 L0 0  Z
  " fill="#ffffff" fill-rule="evenodd" fill-opacity="1"/>
<defs>
  <clipPath id="clip131">
    <rect x="480" y="0" width="1681" height="1600"/>
  </clipPath>
</defs>
<path clip-path="url(#clip130)" d="
M192.339 1486.45 L2352.76 1486.45 L2352.76 47.2441 L192.339 47.2441  Z
  " fill="#ffffff" fill-rule="evenodd" fill-opacity="1"/>
<defs>
  <clipPath id="clip132">
    <rect x="192" y="47" width="2161" height="1440"/>
  </clipPath>
</defs>
<polyline clip-path="url(#clip132)" style="stroke:#000000; stroke-linecap:round; stroke-linejoin:round; stroke-width:2; stroke-opacity:0.1; fill:none" points="
  253.483,1486.45 253.483,47.2441 
  "/>
<polyline clip-path="url(#clip132)" style="stroke:#000000; stroke-linecap:round; stroke-linejoin:round; stroke-width:2; stroke-opacity:0.1; fill:none" points="
  763.015,1486.45 763.015,47.2441 
  "/>
<polyline clip-path="url(#clip132)" style="stroke:#000000; stroke-linecap:round; stroke-linejoin:round; stroke-width:2; stroke-opacity:0.1; fill:none" points="
  1272.55,1486.45 1272.55,47.2441 
  "/>
<polyline clip-path="url(#clip132)" style="stroke:#000000; stroke-linecap:round; stroke-linejoin:round; stroke-width:2; stroke-opacity:0.1; fill:none" points="
  1782.08,1486.45 1782.08,47.2441 
  "/>
<polyline clip-path="url(#clip132)" style="stroke:#000000; stroke-linecap:round; stroke-linejoin:round; stroke-width:2; stroke-opacity:0.1; fill:none" points="
  2291.61,1486.45 2291.61,47.2441 
  "/>
<polyline clip-path="url(#clip130)" style="stroke:#000000; stroke-linecap:round; stroke-linejoin:round; stroke-width:4; stroke-opacity:1; fill:none" points="
  192.339,1486.45 2352.76,1486.45 
  "/>
<polyline clip-path="url(#clip130)" style="stroke:#000000; stroke-linecap:round; stroke-linejoin:round; stroke-width:4; stroke-opacity:1; fill:none" points="
  253.483,1486.45 253.483,1467.55 
  "/>
<polyline clip-path="url(#clip130)" style="stroke:#000000; stroke-linecap:round; stroke-linejoin:round; stroke-width:4; stroke-opacity:1; fill:none" points="
  763.015,1486.45 763.015,1467.55 
  "/>
<polyline clip-path="url(#clip130)" style="stroke:#000000; stroke-linecap:round; stroke-linejoin:round; stroke-width:4; stroke-opacity:1; fill:none" points="
  1272.55,1486.45 1272.55,1467.55 
  "/>
<polyline clip-path="url(#clip130)" style="stroke:#000000; stroke-linecap:round; stroke-linejoin:round; stroke-width:4; stroke-opacity:1; fill:none" points="
  1782.08,1486.45 1782.08,1467.55 
  "/>
<polyline clip-path="url(#clip130)" style="stroke:#000000; stroke-linecap:round; stroke-linejoin:round; stroke-width:4; stroke-opacity:1; fill:none" points="
  2291.61,1486.45 2291.61,1467.55 
  "/>
<path clip-path="url(#clip130)" d="M200.011 1532.02 L229.686 1532.02 L229.686 1535.95 L200.011 1535.95 L200.011 1532.02 Z" fill="#000000" fill-rule="evenodd" fill-opacity="1" /><path clip-path="url(#clip130)" d="M240.589 1544.91 L248.228 1544.91 L248.228 1518.55 L239.918 1520.21 L239.918 1515.95 L248.182 1514.29 L252.858 1514.29 L252.858 1544.91 L260.497 1544.91 L260.497 1548.85 L240.589 1548.85 L240.589 1544.91 Z" fill="#000000" fill-rule="evenodd" fill-opacity="1" /><path clip-path="url(#clip130)" d="M269.941 1542.97 L274.825 1542.97 L274.825 1548.85 L269.941 1548.85 L269.941 1542.97 Z" fill="#000000" fill-rule="evenodd" fill-opacity="1" /><path clip-path="url(#clip130)" d="M295.01 1517.37 Q291.399 1517.37 289.57 1520.93 Q287.765 1524.47 287.765 1531.6 Q287.765 1538.71 289.57 1542.27 Q291.399 1545.82 295.01 1545.82 Q298.644 1545.82 300.45 1542.27 Q302.279 1538.71 302.279 1531.6 Q302.279 1524.47 300.45 1520.93 Q298.644 1517.37 295.01 1517.37 M295.01 1513.66 Q300.82 1513.66 303.876 1518.27 Q306.955 1522.85 306.955 1531.6 Q306.955 1540.33 303.876 1544.94 Q300.82 1549.52 295.01 1549.52 Q289.2 1549.52 286.121 1544.94 Q283.066 1540.33 283.066 1531.6 Q283.066 1522.85 286.121 1518.27 Q289.2 1513.66 295.01 1513.66 Z" fill="#000000" fill-rule="evenodd" fill-opacity="1" /><path clip-path="url(#clip130)" d="M710.041 1532.02 L739.717 1532.02 L739.717 1535.95 L710.041 1535.95 L710.041 1532.02 Z" fill="#000000" fill-rule="evenodd" fill-opacity="1" /><path clip-path="url(#clip130)" d="M759.809 1517.37 Q756.198 1517.37 754.369 1520.93 Q752.564 1524.47 752.564 1531.6 Q752.564 1538.71 754.369 1542.27 Q756.198 1545.82 759.809 1545.82 Q763.443 1545.82 765.249 1542.27 Q767.077 1538.71 767.077 1531.6 Q767.077 1524.47 765.249 1520.93 Q763.443 1517.37 759.809 1517.37 M759.809 1513.66 Q765.619 1513.66 768.675 1518.27 Q771.753 1522.85 771.753 1531.6 Q771.753 1540.33 768.675 1544.94 Q765.619 1549.52 759.809 1549.52 Q753.999 1549.52 750.92 1544.94 Q747.865 1540.33 747.865 1531.6 Q747.865 1522.85 750.92 1518.27 Q753.999 1513.66 759.809 1513.66 Z" fill="#000000" fill-rule="evenodd" fill-opacity="1" /><path clip-path="url(#clip130)" d="M779.971 1542.97 L784.855 1542.97 L784.855 1548.85 L779.971 1548.85 L779.971 1542.97 Z" fill="#000000" fill-rule="evenodd" fill-opacity="1" /><path clip-path="url(#clip130)" d="M795.087 1514.29 L813.443 1514.29 L813.443 1518.22 L799.369 1518.22 L799.369 1526.7 Q800.387 1526.35 801.406 1526.19 Q802.425 1526 803.443 1526 Q809.23 1526 812.61 1529.17 Q815.989 1532.34 815.989 1537.76 Q815.989 1543.34 812.517 1546.44 Q809.045 1549.52 802.725 1549.52 Q800.55 1549.52 798.281 1549.15 Q796.036 1548.78 793.628 1548.04 L793.628 1543.34 Q795.712 1544.47 797.934 1545.03 Q800.156 1545.58 802.633 1545.58 Q806.637 1545.58 808.975 1543.48 Q811.313 1541.37 811.313 1537.76 Q811.313 1534.15 808.975 1532.04 Q806.637 1529.94 802.633 1529.94 Q800.758 1529.94 798.883 1530.35 Q797.031 1530.77 795.087 1531.65 L795.087 1514.29 Z" fill="#000000" fill-rule="evenodd" fill-opacity="1" /><path clip-path="url(#clip130)" d="M1249.93 1517.37 Q1246.32 1517.37 1244.49 1520.93 Q1242.69 1524.47 1242.69 1531.6 Q1242.69 1538.71 1244.49 1542.27 Q1246.32 1545.82 1249.93 1545.82 Q1253.57 1545.82 1255.37 1542.27 Q1257.2 1538.71 1257.2 1531.6 Q1257.2 1524.47 1255.37 1520.93 Q1253.57 1517.37 1249.93 1517.37 M1249.93 1513.66 Q1255.74 1513.66 1258.8 1518.27 Q1261.88 1522.85 1261.88 1531.6 Q1261.88 1540.33 1258.8 1544.94 Q1255.74 1549.52 1249.93 1549.52 Q1244.12 1549.52 1241.04 1544.94 Q1237.99 1540.33 1237.99 1531.6 Q1237.99 1522.85 1241.04 1518.27 Q1244.12 1513.66 1249.93 1513.66 Z" fill="#000000" fill-rule="evenodd" fill-opacity="1" /><path clip-path="url(#clip130)" d="M1270.09 1542.97 L1274.98 1542.97 L1274.98 1548.85 L1270.09 1548.85 L1270.09 1542.97 Z" fill="#000000" fill-rule="evenodd" fill-opacity="1" /><path clip-path="url(#clip130)" d="M1295.16 1517.37 Q1291.55 1517.37 1289.72 1520.93 Q1287.92 1524.47 1287.92 1531.6 Q1287.92 1538.71 1289.72 1542.27 Q1291.55 1545.82 1295.16 1545.82 Q1298.8 1545.82 1300.6 1542.27 Q1302.43 1538.71 1302.43 1531.6 Q1302.43 1524.47 1300.6 1520.93 Q1298.8 1517.37 1295.16 1517.37 M1295.16 1513.66 Q1300.97 1513.66 1304.03 1518.27 Q1307.11 1522.85 1307.11 1531.6 Q1307.11 1540.33 1304.03 1544.94 Q1300.97 1549.52 1295.16 1549.52 Q1289.35 1549.52 1286.27 1544.94 Q1283.22 1540.33 1283.22 1531.6 Q1283.22 1522.85 1286.27 1518.27 Q1289.35 1513.66 1295.16 1513.66 Z" fill="#000000" fill-rule="evenodd" fill-opacity="1" /><path clip-path="url(#clip130)" d="M1759.96 1517.37 Q1756.35 1517.37 1754.52 1520.93 Q1752.72 1524.47 1752.72 1531.6 Q1752.72 1538.71 1754.52 1542.27 Q1756.35 1545.82 1759.96 1545.82 Q1763.6 1545.82 1765.4 1542.27 Q1767.23 1538.71 1767.23 1531.6 Q1767.23 1524.47 1765.4 1520.93 Q1763.6 1517.37 1759.96 1517.37 M1759.96 1513.66 Q1765.77 1513.66 1768.83 1518.27 Q1771.91 1522.85 1771.91 1531.6 Q1771.91 1540.33 1768.83 1544.94 Q1765.77 1549.52 1759.96 1549.52 Q1754.15 1549.52 1751.07 1544.94 Q1748.02 1540.33 1748.02 1531.6 Q1748.02 1522.85 1751.07 1518.27 Q1754.15 1513.66 1759.96 1513.66 Z" fill="#000000" fill-rule="evenodd" fill-opacity="1" /><path clip-path="url(#clip130)" d="M1780.12 1542.97 L1785.01 1542.97 L1785.01 1548.85 L1780.12 1548.85 L1780.12 1542.97 Z" fill="#000000" fill-rule="evenodd" fill-opacity="1" /><path clip-path="url(#clip130)" d="M1795.24 1514.29 L1813.6 1514.29 L1813.6 1518.22 L1799.52 1518.22 L1799.52 1526.7 Q1800.54 1526.35 1801.56 1526.19 Q1802.58 1526 1803.6 1526 Q1809.38 1526 1812.76 1529.17 Q1816.14 1532.34 1816.14 1537.76 Q1816.14 1543.34 1812.67 1546.44 Q1809.2 1549.52 1802.88 1549.52 Q1800.7 1549.52 1798.43 1549.15 Q1796.19 1548.78 1793.78 1548.04 L1793.78 1543.34 Q1795.86 1544.47 1798.09 1545.03 Q1800.31 1545.58 1802.79 1545.58 Q1806.79 1545.58 1809.13 1543.48 Q1811.47 1541.37 1811.47 1537.76 Q1811.47 1534.15 1809.13 1532.04 Q1806.79 1529.94 1802.79 1529.94 Q1800.91 1529.94 1799.04 1530.35 Q1797.18 1530.77 1795.24 1531.65 L1795.24 1514.29 Z" fill="#000000" fill-rule="evenodd" fill-opacity="1" /><path clip-path="url(#clip130)" d="M2258.76 1544.91 L2266.4 1544.91 L2266.4 1518.55 L2258.09 1520.21 L2258.09 1515.95 L2266.36 1514.29 L2271.03 1514.29 L2271.03 1544.91 L2278.67 1544.91 L2278.67 1548.85 L2258.76 1548.85 L2258.76 1544.91 Z" fill="#000000" fill-rule="evenodd" fill-opacity="1" /><path clip-path="url(#clip130)" d="M2288.12 1542.97 L2293 1542.97 L2293 1548.85 L2288.12 1548.85 L2288.12 1542.97 Z" fill="#000000" fill-rule="evenodd" fill-opacity="1" /><path clip-path="url(#clip130)" d="M2313.19 1517.37 Q2309.57 1517.37 2307.75 1520.93 Q2305.94 1524.47 2305.94 1531.6 Q2305.94 1538.71 2307.75 1542.27 Q2309.57 1545.82 2313.19 1545.82 Q2316.82 1545.82 2318.63 1542.27 Q2320.45 1538.71 2320.45 1531.6 Q2320.45 1524.47 2318.63 1520.93 Q2316.82 1517.37 2313.19 1517.37 M2313.19 1513.66 Q2319 1513.66 2322.05 1518.27 Q2325.13 1522.85 2325.13 1531.6 Q2325.13 1540.33 2322.05 1544.94 Q2319 1549.52 2313.19 1549.52 Q2307.38 1549.52 2304.3 1544.94 Q2301.24 1540.33 2301.24 1531.6 Q2301.24 1522.85 2304.3 1518.27 Q2307.38 1513.66 2313.19 1513.66 Z" fill="#000000" fill-rule="evenodd" fill-opacity="1" /><polyline clip-path="url(#clip132)" style="stroke:#000000; stroke-linecap:round; stroke-linejoin:round; stroke-width:2; stroke-opacity:0.1; fill:none" points="
  192.339,1393.11 2352.76,1393.11 
  "/>
<polyline clip-path="url(#clip132)" style="stroke:#000000; stroke-linecap:round; stroke-linejoin:round; stroke-width:2; stroke-opacity:0.1; fill:none" points="
  192.339,1223.94 2352.76,1223.94 
  "/>
<polyline clip-path="url(#clip132)" style="stroke:#000000; stroke-linecap:round; stroke-linejoin:round; stroke-width:2; stroke-opacity:0.1; fill:none" points="
  192.339,1054.78 2352.76,1054.78 
  "/>
<polyline clip-path="url(#clip132)" style="stroke:#000000; stroke-linecap:round; stroke-linejoin:round; stroke-width:2; stroke-opacity:0.1; fill:none" points="
  192.339,885.616 2352.76,885.616 
  "/>
<polyline clip-path="url(#clip132)" style="stroke:#000000; stroke-linecap:round; stroke-linejoin:round; stroke-width:2; stroke-opacity:0.1; fill:none" points="
  192.339,716.452 2352.76,716.452 
  "/>
<polyline clip-path="url(#clip132)" style="stroke:#000000; stroke-linecap:round; stroke-linejoin:round; stroke-width:2; stroke-opacity:0.1; fill:none" points="
  192.339,547.288 2352.76,547.288 
  "/>
<polyline clip-path="url(#clip132)" style="stroke:#000000; stroke-linecap:round; stroke-linejoin:round; stroke-width:2; stroke-opacity:0.1; fill:none" points="
  192.339,378.124 2352.76,378.124 
  "/>
<polyline clip-path="url(#clip132)" style="stroke:#000000; stroke-linecap:round; stroke-linejoin:round; stroke-width:2; stroke-opacity:0.1; fill:none" points="
  192.339,208.96 2352.76,208.96 
  "/>
<polyline clip-path="url(#clip130)" style="stroke:#000000; stroke-linecap:round; stroke-linejoin:round; stroke-width:4; stroke-opacity:1; fill:none" points="
  192.339,1486.45 192.339,47.2441 
  "/>
<polyline clip-path="url(#clip130)" style="stroke:#000000; stroke-linecap:round; stroke-linejoin:round; stroke-width:4; stroke-opacity:1; fill:none" points="
  192.339,1393.11 211.236,1393.11 
  "/>
<polyline clip-path="url(#clip130)" style="stroke:#000000; stroke-linecap:round; stroke-linejoin:round; stroke-width:4; stroke-opacity:1; fill:none" points="
  192.339,1223.94 211.236,1223.94 
  "/>
<polyline clip-path="url(#clip130)" style="stroke:#000000; stroke-linecap:round; stroke-linejoin:round; stroke-width:4; stroke-opacity:1; fill:none" points="
  192.339,1054.78 211.236,1054.78 
  "/>
<polyline clip-path="url(#clip130)" style="stroke:#000000; stroke-linecap:round; stroke-linejoin:round; stroke-width:4; stroke-opacity:1; fill:none" points="
  192.339,885.616 211.236,885.616 
  "/>
<polyline clip-path="url(#clip130)" style="stroke:#000000; stroke-linecap:round; stroke-linejoin:round; stroke-width:4; stroke-opacity:1; fill:none" points="
  192.339,716.452 211.236,716.452 
  "/>
<polyline clip-path="url(#clip130)" style="stroke:#000000; stroke-linecap:round; stroke-linejoin:round; stroke-width:4; stroke-opacity:1; fill:none" points="
  192.339,547.288 211.236,547.288 
  "/>
<polyline clip-path="url(#clip130)" style="stroke:#000000; stroke-linecap:round; stroke-linejoin:round; stroke-width:4; stroke-opacity:1; fill:none" points="
  192.339,378.124 211.236,378.124 
  "/>
<polyline clip-path="url(#clip130)" style="stroke:#000000; stroke-linecap:round; stroke-linejoin:round; stroke-width:4; stroke-opacity:1; fill:none" points="
  192.339,208.96 211.236,208.96 
  "/>
<path clip-path="url(#clip130)" d="M50.9921 1393.56 L80.6679 1393.56 L80.6679 1397.49 L50.9921 1397.49 L50.9921 1393.56 Z" fill="#000000" fill-rule="evenodd" fill-opacity="1" /><path clip-path="url(#clip130)" d="M100.76 1378.91 Q97.1493 1378.91 95.3206 1382.47 Q93.515 1386.01 93.515 1393.14 Q93.515 1400.25 95.3206 1403.81 Q97.1493 1407.35 100.76 1407.35 Q104.395 1407.35 106.2 1403.81 Q108.029 1400.25 108.029 1393.14 Q108.029 1386.01 106.2 1382.47 Q104.395 1378.91 100.76 1378.91 M100.76 1375.2 Q106.571 1375.2 109.626 1379.81 Q112.705 1384.39 112.705 1393.14 Q112.705 1401.87 109.626 1406.48 Q106.571 1411.06 100.76 1411.06 Q94.9502 1411.06 91.8715 1406.48 Q88.816 1401.87 88.816 1393.14 Q88.816 1384.39 91.8715 1379.81 Q94.9502 1375.2 100.76 1375.2 Z" fill="#000000" fill-rule="evenodd" fill-opacity="1" /><path clip-path="url(#clip130)" d="M120.922 1404.51 L125.807 1404.51 L125.807 1410.39 L120.922 1410.39 L120.922 1404.51 Z" fill="#000000" fill-rule="evenodd" fill-opacity="1" /><path clip-path="url(#clip130)" d="M140.019 1406.45 L156.339 1406.45 L156.339 1410.39 L134.394 1410.39 L134.394 1406.45 Q137.056 1403.7 141.64 1399.07 Q146.246 1394.42 147.427 1393.07 Q149.672 1390.55 150.552 1388.81 Q151.455 1387.05 151.455 1385.36 Q151.455 1382.61 149.51 1380.87 Q147.589 1379.14 144.487 1379.14 Q142.288 1379.14 139.834 1379.9 Q137.404 1380.67 134.626 1382.22 L134.626 1377.49 Q137.45 1376.36 139.904 1375.78 Q142.357 1375.2 144.394 1375.2 Q149.765 1375.2 152.959 1377.89 Q156.154 1380.57 156.154 1385.06 Q156.154 1387.19 155.343 1389.11 Q154.556 1391.01 152.45 1393.61 Q151.871 1394.28 148.769 1397.49 Q145.668 1400.69 140.019 1406.45 Z" fill="#000000" fill-rule="evenodd" fill-opacity="1" /><path clip-path="url(#clip130)" d="M99.1632 1209.74 Q95.5521 1209.74 93.7234 1213.31 Q91.9178 1216.85 91.9178 1223.98 Q91.9178 1231.08 93.7234 1234.65 Q95.5521 1238.19 99.1632 1238.19 Q102.797 1238.19 104.603 1234.65 Q106.432 1231.08 106.432 1223.98 Q106.432 1216.85 104.603 1213.31 Q102.797 1209.74 99.1632 1209.74 M99.1632 1206.04 Q104.973 1206.04 108.029 1210.64 Q111.108 1215.23 111.108 1223.98 Q111.108 1232.7 108.029 1237.31 Q104.973 1241.89 99.1632 1241.89 Q93.353 1241.89 90.2743 1237.31 Q87.2188 1232.7 87.2188 1223.98 Q87.2188 1215.23 90.2743 1210.64 Q93.353 1206.04 99.1632 1206.04 Z" fill="#000000" fill-rule="evenodd" fill-opacity="1" /><path clip-path="url(#clip130)" d="M119.325 1235.34 L124.209 1235.34 L124.209 1241.22 L119.325 1241.22 L119.325 1235.34 Z" fill="#000000" fill-rule="evenodd" fill-opacity="1" /><path clip-path="url(#clip130)" d="M144.394 1209.74 Q140.783 1209.74 138.955 1213.31 Q137.149 1216.85 137.149 1223.98 Q137.149 1231.08 138.955 1234.65 Q140.783 1238.19 144.394 1238.19 Q148.029 1238.19 149.834 1234.65 Q151.663 1231.08 151.663 1223.98 Q151.663 1216.85 149.834 1213.31 Q148.029 1209.74 144.394 1209.74 M144.394 1206.04 Q150.205 1206.04 153.26 1210.64 Q156.339 1215.23 156.339 1223.98 Q156.339 1232.7 153.26 1237.31 Q150.205 1241.89 144.394 1241.89 Q138.584 1241.89 135.506 1237.31 Q132.45 1232.7 132.45 1223.98 Q132.45 1215.23 135.506 1210.64 Q138.584 1206.04 144.394 1206.04 Z" fill="#000000" fill-rule="evenodd" fill-opacity="1" /><path clip-path="url(#clip130)" d="M100.76 1040.58 Q97.1493 1040.58 95.3206 1044.14 Q93.515 1047.68 93.515 1054.81 Q93.515 1061.92 95.3206 1065.49 Q97.1493 1069.03 100.76 1069.03 Q104.395 1069.03 106.2 1065.49 Q108.029 1061.92 108.029 1054.81 Q108.029 1047.68 106.2 1044.14 Q104.395 1040.58 100.76 1040.58 M100.76 1036.87 Q106.571 1036.87 109.626 1041.48 Q112.705 1046.06 112.705 1054.81 Q112.705 1063.54 109.626 1068.15 Q106.571 1072.73 100.76 1072.73 Q94.9502 1072.73 91.8715 1068.15 Q88.816 1063.54 88.816 1054.81 Q88.816 1046.06 91.8715 1041.48 Q94.9502 1036.87 100.76 1036.87 Z" fill="#000000" fill-rule="evenodd" fill-opacity="1" /><path clip-path="url(#clip130)" d="M120.922 1066.18 L125.807 1066.18 L125.807 1072.06 L120.922 1072.06 L120.922 1066.18 Z" fill="#000000" fill-rule="evenodd" fill-opacity="1" /><path clip-path="url(#clip130)" d="M140.019 1068.12 L156.339 1068.12 L156.339 1072.06 L134.394 1072.06 L134.394 1068.12 Q137.056 1065.37 141.64 1060.74 Q146.246 1056.09 147.427 1054.74 Q149.672 1052.22 150.552 1050.49 Q151.455 1048.73 151.455 1047.04 Q151.455 1044.28 149.51 1042.55 Q147.589 1040.81 144.487 1040.81 Q142.288 1040.81 139.834 1041.57 Q137.404 1042.34 134.626 1043.89 L134.626 1039.17 Q137.45 1038.03 139.904 1037.45 Q142.357 1036.87 144.394 1036.87 Q149.765 1036.87 152.959 1039.56 Q156.154 1042.24 156.154 1046.74 Q156.154 1048.87 155.343 1050.79 Q154.556 1052.68 152.45 1055.28 Q151.871 1055.95 148.769 1059.17 Q145.668 1062.36 140.019 1068.12 Z" fill="#000000" fill-rule="evenodd" fill-opacity="1" /><path clip-path="url(#clip130)" d="M98.6771 871.414 Q95.066 871.414 93.2373 874.979 Q91.4317 878.521 91.4317 885.65 Q91.4317 892.757 93.2373 896.322 Q95.066 899.863 98.6771 899.863 Q102.311 899.863 104.117 896.322 Q105.946 892.757 105.946 885.65 Q105.946 878.521 104.117 874.979 Q102.311 871.414 98.6771 871.414 M98.6771 867.711 Q104.487 867.711 107.543 872.317 Q110.621 876.9 110.621 885.65 Q110.621 894.377 107.543 898.984 Q104.487 903.567 98.6771 903.567 Q92.8669 903.567 89.7882 898.984 Q86.7327 894.377 86.7327 885.65 Q86.7327 876.9 89.7882 872.317 Q92.8669 867.711 98.6771 867.711 Z" fill="#000000" fill-rule="evenodd" fill-opacity="1" /><path clip-path="url(#clip130)" d="M118.839 897.016 L123.723 897.016 L123.723 902.896 L118.839 902.896 L118.839 897.016 Z" fill="#000000" fill-rule="evenodd" fill-opacity="1" /><path clip-path="url(#clip130)" d="M146.756 872.41 L134.95 890.859 L146.756 890.859 L146.756 872.41 M145.529 868.336 L151.408 868.336 L151.408 890.859 L156.339 890.859 L156.339 894.748 L151.408 894.748 L151.408 902.896 L146.756 902.896 L146.756 894.748 L131.154 894.748 L131.154 890.234 L145.529 868.336 Z" fill="#000000" fill-rule="evenodd" fill-opacity="1" /><path clip-path="url(#clip130)" d="M99.0011 702.25 Q95.39 702.25 93.5613 705.815 Q91.7558 709.357 91.7558 716.487 Q91.7558 723.593 93.5613 727.158 Q95.39 730.699 99.0011 730.699 Q102.635 730.699 104.441 727.158 Q106.27 723.593 106.27 716.487 Q106.27 709.357 104.441 705.815 Q102.635 702.25 99.0011 702.25 M99.0011 698.547 Q104.811 698.547 107.867 703.153 Q110.946 707.737 110.946 716.487 Q110.946 725.213 107.867 729.82 Q104.811 734.403 99.0011 734.403 Q93.191 734.403 90.1123 729.82 Q87.0567 725.213 87.0567 716.487 Q87.0567 707.737 90.1123 703.153 Q93.191 698.547 99.0011 698.547 Z" fill="#000000" fill-rule="evenodd" fill-opacity="1" /><path clip-path="url(#clip130)" d="M119.163 727.852 L124.047 727.852 L124.047 733.732 L119.163 733.732 L119.163 727.852 Z" fill="#000000" fill-rule="evenodd" fill-opacity="1" /><path clip-path="url(#clip130)" d="M144.811 714.588 Q141.663 714.588 139.811 716.741 Q137.982 718.894 137.982 722.644 Q137.982 726.371 139.811 728.547 Q141.663 730.699 144.811 730.699 Q147.959 730.699 149.788 728.547 Q151.64 726.371 151.64 722.644 Q151.64 718.894 149.788 716.741 Q147.959 714.588 144.811 714.588 M154.093 699.936 L154.093 704.195 Q152.334 703.362 150.529 702.922 Q148.746 702.482 146.987 702.482 Q142.357 702.482 139.904 705.607 Q137.473 708.732 137.126 715.051 Q138.492 713.037 140.552 711.973 Q142.612 710.885 145.089 710.885 Q150.297 710.885 153.306 714.056 Q156.339 717.204 156.339 722.644 Q156.339 727.968 153.191 731.186 Q150.043 734.403 144.811 734.403 Q138.816 734.403 135.644 729.82 Q132.473 725.213 132.473 716.487 Q132.473 708.292 136.362 703.431 Q140.251 698.547 146.802 698.547 Q148.561 698.547 150.343 698.894 Q152.149 699.241 154.093 699.936 Z" fill="#000000" fill-rule="evenodd" fill-opacity="1" /><path clip-path="url(#clip130)" d="M99.2558 533.087 Q95.6447 533.087 93.816 536.651 Q92.0104 540.193 92.0104 547.323 Q92.0104 554.429 93.816 557.994 Q95.6447 561.536 99.2558 561.536 Q102.89 561.536 104.696 557.994 Q106.524 554.429 106.524 547.323 Q106.524 540.193 104.696 536.651 Q102.89 533.087 99.2558 533.087 M99.2558 529.383 Q105.066 529.383 108.121 533.989 Q111.2 538.573 111.2 547.323 Q111.2 556.049 108.121 560.656 Q105.066 565.239 99.2558 565.239 Q93.4456 565.239 90.3669 560.656 Q87.3114 556.049 87.3114 547.323 Q87.3114 538.573 90.3669 533.989 Q93.4456 529.383 99.2558 529.383 Z" fill="#000000" fill-rule="evenodd" fill-opacity="1" /><path clip-path="url(#clip130)" d="M119.418 558.688 L124.302 558.688 L124.302 564.568 L119.418 564.568 L119.418 558.688 Z" fill="#000000" fill-rule="evenodd" fill-opacity="1" /><path clip-path="url(#clip130)" d="M144.487 548.156 Q141.154 548.156 139.232 549.938 Q137.334 551.721 137.334 554.846 Q137.334 557.971 139.232 559.753 Q141.154 561.536 144.487 561.536 Q147.82 561.536 149.742 559.753 Q151.663 557.948 151.663 554.846 Q151.663 551.721 149.742 549.938 Q147.843 548.156 144.487 548.156 M139.811 546.165 Q136.802 545.425 135.112 543.364 Q133.445 541.304 133.445 538.341 Q133.445 534.198 136.385 531.79 Q139.348 529.383 144.487 529.383 Q149.649 529.383 152.589 531.79 Q155.529 534.198 155.529 538.341 Q155.529 541.304 153.839 543.364 Q152.172 545.425 149.186 546.165 Q152.566 546.952 154.441 549.244 Q156.339 551.536 156.339 554.846 Q156.339 559.869 153.26 562.554 Q150.205 565.239 144.487 565.239 Q138.769 565.239 135.691 562.554 Q132.635 559.869 132.635 554.846 Q132.635 551.536 134.533 549.244 Q136.431 546.952 139.811 546.165 M138.098 538.781 Q138.098 541.466 139.765 542.971 Q141.455 544.475 144.487 544.475 Q147.496 544.475 149.186 542.971 Q150.899 541.466 150.899 538.781 Q150.899 536.096 149.186 534.591 Q147.496 533.087 144.487 533.087 Q141.455 533.087 139.765 534.591 Q138.098 536.096 138.098 538.781 Z" fill="#000000" fill-rule="evenodd" fill-opacity="1" /><path clip-path="url(#clip130)" d="M89.9734 391.469 L97.6122 391.469 L97.6122 365.103 L89.3021 366.77 L89.3021 362.511 L97.566 360.844 L102.242 360.844 L102.242 391.469 L109.881 391.469 L109.881 395.404 L89.9734 395.404 L89.9734 391.469 Z" fill="#000000" fill-rule="evenodd" fill-opacity="1" /><path clip-path="url(#clip130)" d="M119.325 389.524 L124.209 389.524 L124.209 395.404 L119.325 395.404 L119.325 389.524 Z" fill="#000000" fill-rule="evenodd" fill-opacity="1" /><path clip-path="url(#clip130)" d="M144.394 363.923 Q140.783 363.923 138.955 367.488 Q137.149 371.029 137.149 378.159 Q137.149 385.265 138.955 388.83 Q140.783 392.372 144.394 392.372 Q148.029 392.372 149.834 388.83 Q151.663 385.265 151.663 378.159 Q151.663 371.029 149.834 367.488 Q148.029 363.923 144.394 363.923 M144.394 360.219 Q150.205 360.219 153.26 364.826 Q156.339 369.409 156.339 378.159 Q156.339 386.886 153.26 391.492 Q150.205 396.075 144.394 396.075 Q138.584 396.075 135.506 391.492 Q132.45 386.886 132.45 378.159 Q132.45 369.409 135.506 364.826 Q138.584 360.219 144.394 360.219 Z" fill="#000000" fill-rule="evenodd" fill-opacity="1" /><path clip-path="url(#clip130)" d="M91.5706 222.305 L99.2095 222.305 L99.2095 195.939 L90.8993 197.606 L90.8993 193.347 L99.1632 191.68 L103.839 191.68 L103.839 222.305 L111.478 222.305 L111.478 226.24 L91.5706 226.24 L91.5706 222.305 Z" fill="#000000" fill-rule="evenodd" fill-opacity="1" /><path clip-path="url(#clip130)" d="M120.922 220.361 L125.807 220.361 L125.807 226.24 L120.922 226.24 L120.922 220.361 Z" fill="#000000" fill-rule="evenodd" fill-opacity="1" /><path clip-path="url(#clip130)" d="M140.019 222.305 L156.339 222.305 L156.339 226.24 L134.394 226.24 L134.394 222.305 Q137.056 219.55 141.64 214.921 Q146.246 210.268 147.427 208.925 Q149.672 206.402 150.552 204.666 Q151.455 202.907 151.455 201.217 Q151.455 198.463 149.51 196.726 Q147.589 194.99 144.487 194.99 Q142.288 194.99 139.834 195.754 Q137.404 196.518 134.626 198.069 L134.626 193.347 Q137.45 192.213 139.904 191.634 Q142.357 191.055 144.394 191.055 Q149.765 191.055 152.959 193.74 Q156.154 196.426 156.154 200.916 Q156.154 203.046 155.343 204.967 Q154.556 206.865 152.45 209.458 Q151.871 210.129 148.769 213.347 Q145.668 216.541 140.019 222.305 Z" fill="#000000" fill-rule="evenodd" fill-opacity="1" /><polyline clip-path="url(#clip132)" style="stroke:#009af9; stroke-linecap:round; stroke-linejoin:round; stroke-width:16; stroke-opacity:1; fill:none" stroke-dasharray="8, 16" points="
  253.483,1096.9 263.725,1023.14 273.966,996.52 284.208,1012.27 294.45,1051.76 304.692,1110.74 314.934,1172.76 325.176,1180.1 335.418,1110.36 345.659,1047.93 
  355.901,1062.74 366.143,1122.36 376.385,1194.59 386.627,1276.82 396.869,1347.7 407.111,1368.15 417.352,1337.01 427.594,1294.12 437.836,1278.07 448.078,1308.39 
  458.32,1370.49 468.562,1426.49 478.803,1445.72 489.045,1424.08 499.287,1383.07 509.529,1347.49 519.771,1320.45 530.013,1292.09 540.255,1276.4 550.497,1254.9 
  560.738,1172.18 570.98,1117.91 581.222,1139.95 591.464,1155.94 601.706,1150.74 611.948,1130.39 622.19,1092.63 632.431,1047.84 642.673,1015.01 652.915,1008.62 
  663.157,1035.8 673.399,1082.11 683.641,1101.78 693.882,1092.58 704.124,1110.01 714.366,1162.47 724.608,1209.96 734.85,1231.25 745.092,1244.28 755.334,1274.12 
  765.575,1312.98 775.817,1339.87 786.059,1357.69 796.301,1363.19 806.543,1343.78 816.785,1324.39 827.027,1344.7 837.268,1399.8 847.51,1442.19 857.752,1436.02 
  867.994,1388.31 878.236,1327.51 888.478,1274.33 898.72,1250.94 908.961,1246.88 919.203,1216.48 929.445,1164.85 939.687,1133.84 949.929,1122.33 960.171,1106.69 
  970.413,1082.48 980.654,1059.36 990.896,1045.05 1001.14,1052.07 1011.38,1107.17 1021.62,1185.5 1031.86,1189.81 1042.11,1106.91 1052.35,1038.79 1062.59,1065.31 
  1072.83,1137.14 1083.07,1188.3 1093.31,1218.91 1103.56,1246.87 1113.8,1276.98 1124.04,1306.74 1134.28,1336.96 1144.52,1366.29 1154.77,1385.05 1165.01,1387.84 
  1175.25,1387.41 1185.49,1394.26 1195.73,1399 1205.98,1386.05 1216.22,1355.17 1226.46,1325.01 1236.7,1313.67 1246.94,1306.55 1257.18,1223.39 1267.43,952.571 
  1277.67,584.063 1287.91,391.03 1298.15,388.576 1308.39,429.914 1318.64,438.441 1328.88,412.866 1339.12,382.31 1349.36,369.301 1359.6,370.776 1369.84,367.816 
  1380.09,354.77 1390.33,349.877 1400.57,362.739 1410.81,374.339 1421.05,370.814 1431.3,363.699 1441.54,371.584 1451.78,395.628 1462.02,426.58 1472.26,464.363 
  1482.51,494.647 1492.75,444.486 1502.99,303.644 1513.23,223.804 1523.47,258.506 1533.71,338.303 1543.96,395.08 1554.2,427.602 1564.44,449.377 1574.68,450.972 
  1584.92,429.862 1595.17,404.748 1605.41,386.834 1615.65,352.499 1625.89,291.875 1636.13,257.32 1646.38,285.946 1656.62,351.17 1666.86,421.883 1677.1,463.689 
  1687.34,460.842 1697.58,440.608 1707.83,424.701 1718.07,400.826 1728.31,350.139 1738.55,289.778 1748.79,261.406 1759.04,280.401 1769.28,327.844 1779.52,389.961 
  1789.76,459.308 1800,502.935 1810.24,492.928 1820.49,448.766 1830.73,404.287 1840.97,358.63 1851.21,290.204 1861.45,224.678 1871.7,227.329 1881.94,298.925 
  1892.18,391.016 1902.42,472.243 1912.66,519.615 1922.91,523.151 1933.15,492.559 1943.39,439.527 1953.63,371.969 1963.87,309.016 1974.11,259.883 1984.36,205.654 
  1994.6,209.134 2004.84,316.626 2015.08,448.532 2025.32,542.904 2035.57,580.221 2045.81,551.431 2056.05,471.689 2066.29,375.175 2076.53,298.169 2086.77,263.948 
  2097.02,269.006 2107.26,284.562 2117.5,291.709 2127.74,308.135 2137.98,363.633 2148.23,459.685 2158.47,553.475 2168.71,595.852 2178.95,571.888 2189.19,487.005 
  2199.44,343.339 2209.68,177.661 2219.92,87.9763 2230.16,127.26 2240.4,246.957 2250.64,375.712 2260.89,485.12 2271.13,566.171 2281.37,602.048 2291.61,588.558 
  
  "/>
<polyline clip-path="url(#clip132)" style="stroke:#e26f46; stroke-linecap:round; stroke-linejoin:round; stroke-width:4; stroke-opacity:1; fill:none" points="
  253.483,1096.9 263.725,1078.88 273.966,1065.59 284.208,1057.47 294.45,1054.78 304.692,1057.61 314.934,1065.87 325.176,1079.29 335.418,1097.44 345.659,1119.71 
  355.901,1145.38 366.143,1173.62 376.385,1203.49 386.627,1234.04 396.869,1264.26 407.111,1293.16 417.352,1319.8 427.594,1343.31 437.836,1362.93 448.078,1378.01 
  458.32,1388.07 468.562,1392.76 478.803,1391.95 489.045,1385.65 499.287,1374.08 509.529,1357.6 519.771,1336.77 530.013,1312.25 540.255,1284.85 550.497,1255.46 
  560.738,1225.04 570.98,1194.59 581.222,1165.09 591.464,1137.52 601.706,1112.77 611.948,1091.64 622.19,1074.83 632.431,1062.89 642.673,1056.21 652.915,1055 
  663.157,1059.3 673.399,1068.98 683.641,1083.71 693.882,1103.03 704.124,1126.28 714.366,1152.73 724.608,1181.5 734.85,1211.65 745.092,1242.21 755.334,1272.17 
  765.575,1300.56 775.817,1326.44 786.059,1348.98 796.301,1367.44 806.543,1381.22 816.785,1389.86 827.027,1393.09 837.268,1390.79 847.51,1383.06 857.752,1370.13 
  867.994,1352.42 878.236,1330.53 888.478,1305.15 898.72,1277.13 908.961,1247.37 919.203,1216.84 929.445,1186.55 939.687,1157.48 949.929,1130.57 960.171,1106.72 
  970.413,1086.69 980.654,1071.14 990.896,1060.57 1001.14,1055.34 1011.38,1055.61 1021.62,1061.38 1031.86,1072.45 1042.11,1088.46 1052.35,1108.9 1062.59,1133.09 
  1072.83,1160.25 1083.07,1189.48 1093.31,1219.84 1103.56,1250.34 1113.8,1279.97 1124.04,1307.77 1134.28,1332.84 1144.52,1354.36 1154.77,1371.61 1165.01,1384.05 
  1175.25,1391.26 1185.49,1393.01 1195.73,1389.25 1205.98,1380.09 1216.22,1365.83 1226.46,1346.94 1236.7,1324.04 1246.94,1297.87 1257.18,1269.29 1267.43,1239.22 
  1277.67,376.896 1287.91,375.498 1298.15,376.77 1308.39,381.005 1318.64,386.906 1328.88,391.978 1339.12,393.48 1349.36,389.578 1359.6,380.274 1369.84,367.731 
  1380.09,355.795 1390.33,348.822 1400.57,350.16 1410.81,360.798 1421.05,378.692 1431.3,399.057 1441.54,415.64 1451.78,422.635 1462.02,416.647 1472.26,398.068 
  1482.51,371.344 1492.75,343.957 1502.99,324.328 1513.23,319.243 1523.47,331.57 1533.71,359.032 1543.96,394.499 1554.2,427.816 1564.44,448.711 1574.68,449.949 
  1584.92,429.762 1595.17,392.765 1605.41,348.971 1615.65,311.089 1625.89,290.839 1636.13,295.341 1646.38,324.7 1656.62,371.569 1666.86,422.95 1677.1,463.792 
  1687.34,481.401 1697.58,469.36 1707.83,429.764 1718.07,373.012 1728.31,315.098 1738.55,273.106 1748.79,260.173 1759.04,281.409 1769.28,332.025 1779.52,398.333 
  1789.76,461.434 1800,502.602 1810.24,508.838 1820.49,476.939 1830.73,414.826 1840.97,339.626 1851.21,272.954 1861.45,234.705 1871.7,237.123 1881.94,280.923 
  1892.18,354.678 1902.42,437.775 1912.66,506.166 1922.91,539.329 1933.15,526.415 1943.39,469.746 1953.63,384.544 1963.87,294.865 1974.11,226.807 1984.36,200.918 
  1994.6,226.006 2004.84,296.214 2015.08,392.314 2025.32,486.963 2035.57,552.478 2045.81,568.934 2056.05,530.203 2066.29,446.117 2076.53,340.018 2086.77,242.284 
  2097.02,181.632 2107.26,176.685 2117.5,230.275 2127.74,328.229 2137.98,443.082 2148.23,541.78 2158.47,595.186 2168.71,586.683 2178.95,517.308 2189.19,405.86 
  2199.44,283.828 2209.68,186.489 2219.92,142.72 2230.16,166.431 2240.4,252.191 2250.64,376.387 2260.89,503.716 2271.13,597.219 2281.37,629.003 2291.61,588.558 
  
  "/>
<path clip-path="url(#clip130)" d="
M264.353 250.738 L731.227 250.738 L731.227 95.2176 L264.353 95.2176  Z
  " fill="#ffffff" fill-rule="evenodd" fill-opacity="1"/>
<polyline clip-path="url(#clip130)" style="stroke:#000000; stroke-linecap:round; stroke-linejoin:round; stroke-width:4; stroke-opacity:1; fill:none" points="
  264.353,250.738 731.227,250.738 731.227,95.2176 264.353,95.2176 264.353,250.738 
  "/>
<polyline clip-path="url(#clip130)" style="stroke:#009af9; stroke-linecap:round; stroke-linejoin:round; stroke-width:4; stroke-opacity:1; fill:none" stroke-dasharray="2, 4" points="
  288.357,147.058 432.385,147.058 
  "/>
<path clip-path="url(#clip130)" d="M461.066 133.62 L461.066 146.606 L466.945 146.606 Q470.209 146.606 471.992 144.916 Q473.774 143.227 473.774 140.102 Q473.774 137 471.992 135.31 Q470.209 133.62 466.945 133.62 L461.066 133.62 M456.39 129.778 L466.945 129.778 Q472.755 129.778 475.718 132.416 Q478.704 135.032 478.704 140.102 Q478.704 145.217 475.718 147.833 Q472.755 150.449 466.945 150.449 L461.066 150.449 L461.066 164.338 L456.39 164.338 L456.39 129.778 Z" fill="#000000" fill-rule="evenodd" fill-opacity="1" /><path clip-path="url(#clip130)" d="M498.982 142.393 Q498.265 141.977 497.408 141.791 Q496.575 141.583 495.556 141.583 Q491.945 141.583 490.001 143.944 Q488.079 146.282 488.079 150.68 L488.079 164.338 L483.797 164.338 L483.797 138.412 L488.079 138.412 L488.079 142.44 Q489.422 140.078 491.575 138.944 Q493.728 137.787 496.806 137.787 Q497.246 137.787 497.778 137.856 Q498.311 137.903 498.959 138.018 L498.982 142.393 Z" fill="#000000" fill-rule="evenodd" fill-opacity="1" /><path clip-path="url(#clip130)" d="M524.584 150.31 L524.584 152.393 L505.001 152.393 Q505.278 156.791 507.639 159.106 Q510.024 161.398 514.26 161.398 Q516.714 161.398 519.005 160.796 Q521.32 160.194 523.588 158.99 L523.588 163.018 Q521.297 163.99 518.889 164.5 Q516.482 165.009 514.005 165.009 Q507.802 165.009 504.167 161.398 Q500.556 157.787 500.556 151.629 Q500.556 145.264 503.982 141.537 Q507.431 137.787 513.264 137.787 Q518.496 137.787 521.528 141.166 Q524.584 144.523 524.584 150.31 M520.325 149.06 Q520.278 145.565 518.357 143.481 Q516.459 141.398 513.311 141.398 Q509.746 141.398 507.593 143.412 Q505.464 145.426 505.14 149.083 L520.325 149.06 Z" fill="#000000" fill-rule="evenodd" fill-opacity="1" /><path clip-path="url(#clip130)" d="M548.635 142.347 L548.635 128.319 L552.894 128.319 L552.894 164.338 L548.635 164.338 L548.635 160.449 Q547.292 162.763 545.232 163.898 Q543.195 165.009 540.325 165.009 Q535.625 165.009 532.663 161.259 Q529.723 157.509 529.723 151.398 Q529.723 145.287 532.663 141.537 Q535.625 137.787 540.325 137.787 Q543.195 137.787 545.232 138.921 Q547.292 140.032 548.635 142.347 M534.121 151.398 Q534.121 156.097 536.042 158.782 Q537.987 161.444 541.366 161.444 Q544.746 161.444 546.69 158.782 Q548.635 156.097 548.635 151.398 Q548.635 146.699 546.69 144.037 Q544.746 141.352 541.366 141.352 Q537.987 141.352 536.042 144.037 Q534.121 146.699 534.121 151.398 Z" fill="#000000" fill-rule="evenodd" fill-opacity="1" /><path clip-path="url(#clip130)" d="M561.667 138.412 L565.926 138.412 L565.926 164.338 L561.667 164.338 L561.667 138.412 M561.667 128.319 L565.926 128.319 L565.926 133.713 L561.667 133.713 L561.667 128.319 Z" fill="#000000" fill-rule="evenodd" fill-opacity="1" /><path clip-path="url(#clip130)" d="M593.496 139.407 L593.496 143.389 Q591.69 142.393 589.861 141.907 Q588.056 141.398 586.204 141.398 Q582.06 141.398 579.769 144.037 Q577.477 146.652 577.477 151.398 Q577.477 156.143 579.769 158.782 Q582.06 161.398 586.204 161.398 Q588.056 161.398 589.861 160.912 Q591.69 160.402 593.496 159.407 L593.496 163.342 Q591.713 164.176 589.792 164.592 Q587.894 165.009 585.741 165.009 Q579.884 165.009 576.435 161.328 Q572.986 157.648 572.986 151.398 Q572.986 145.055 576.459 141.421 Q579.954 137.787 586.019 137.787 Q587.986 137.787 589.861 138.203 Q591.736 138.597 593.496 139.407 Z" fill="#000000" fill-rule="evenodd" fill-opacity="1" /><path clip-path="url(#clip130)" d="M605.116 131.051 L605.116 138.412 L613.889 138.412 L613.889 141.722 L605.116 141.722 L605.116 155.796 Q605.116 158.967 605.972 159.87 Q606.852 160.773 609.514 160.773 L613.889 160.773 L613.889 164.338 L609.514 164.338 Q604.583 164.338 602.708 162.509 Q600.833 160.657 600.833 155.796 L600.833 141.722 L597.708 141.722 L597.708 138.412 L600.833 138.412 L600.833 131.051 L605.116 131.051 Z" fill="#000000" fill-rule="evenodd" fill-opacity="1" /><path clip-path="url(#clip130)" d="M619.491 138.412 L623.75 138.412 L623.75 164.338 L619.491 164.338 L619.491 138.412 M619.491 128.319 L623.75 128.319 L623.75 133.713 L619.491 133.713 L619.491 128.319 Z" fill="#000000" fill-rule="evenodd" fill-opacity="1" /><path clip-path="url(#clip130)" d="M642.708 141.398 Q639.282 141.398 637.292 144.083 Q635.301 146.745 635.301 151.398 Q635.301 156.051 637.268 158.736 Q639.259 161.398 642.708 161.398 Q646.111 161.398 648.102 158.713 Q650.092 156.027 650.092 151.398 Q650.092 146.791 648.102 144.106 Q646.111 141.398 642.708 141.398 M642.708 137.787 Q648.264 137.787 651.435 141.398 Q654.606 145.009 654.606 151.398 Q654.606 157.764 651.435 161.398 Q648.264 165.009 642.708 165.009 Q637.13 165.009 633.958 161.398 Q630.81 157.764 630.81 151.398 Q630.81 145.009 633.958 141.398 Q637.13 137.787 642.708 137.787 Z" fill="#000000" fill-rule="evenodd" fill-opacity="1" /><path clip-path="url(#clip130)" d="M683.217 148.689 L683.217 164.338 L678.958 164.338 L678.958 148.828 Q678.958 145.148 677.523 143.319 Q676.088 141.49 673.217 141.49 Q669.768 141.49 667.778 143.69 Q665.787 145.889 665.787 149.685 L665.787 164.338 L661.504 164.338 L661.504 138.412 L665.787 138.412 L665.787 142.44 Q667.315 140.102 669.375 138.944 Q671.458 137.787 674.166 137.787 Q678.634 137.787 680.926 140.565 Q683.217 143.319 683.217 148.689 Z" fill="#000000" fill-rule="evenodd" fill-opacity="1" /><polyline clip-path="url(#clip130)" style="stroke:#e26f46; stroke-linecap:round; stroke-linejoin:round; stroke-width:4; stroke-opacity:1; fill:none" points="
  288.357,198.898 432.385,198.898 
  "/>
<path clip-path="url(#clip130)" d="M456.39 181.618 L478.242 181.618 L478.242 185.553 L461.066 185.553 L461.066 195.784 L477.524 195.784 L477.524 199.719 L461.066 199.719 L461.066 212.242 L478.658 212.242 L478.658 216.178 L456.39 216.178 L456.39 181.618 Z" fill="#000000" fill-rule="evenodd" fill-opacity="1" /><path clip-path="url(#clip130)" d="M507.709 190.252 L498.334 202.867 L508.195 216.178 L503.172 216.178 L495.626 205.992 L488.079 216.178 L483.056 216.178 L493.126 202.613 L483.913 190.252 L488.936 190.252 L495.811 199.488 L502.686 190.252 L507.709 190.252 Z" fill="#000000" fill-rule="evenodd" fill-opacity="1" /><path clip-path="url(#clip130)" d="M525.996 203.145 Q520.834 203.145 518.843 204.326 Q516.852 205.506 516.852 208.354 Q516.852 210.622 518.334 211.965 Q519.838 213.284 522.408 213.284 Q525.95 213.284 528.079 210.784 Q530.232 208.261 530.232 204.094 L530.232 203.145 L525.996 203.145 M534.491 201.386 L534.491 216.178 L530.232 216.178 L530.232 212.242 Q528.774 214.603 526.598 215.738 Q524.422 216.849 521.274 216.849 Q517.292 216.849 514.931 214.627 Q512.593 212.381 512.593 208.631 Q512.593 204.256 515.51 202.034 Q518.45 199.812 524.26 199.812 L530.232 199.812 L530.232 199.395 Q530.232 196.455 528.288 194.858 Q526.366 193.238 522.871 193.238 Q520.649 193.238 518.542 193.77 Q516.436 194.303 514.491 195.367 L514.491 191.432 Q516.829 190.53 519.028 190.09 Q521.227 189.627 523.311 189.627 Q528.936 189.627 531.713 192.543 Q534.491 195.46 534.491 201.386 Z" fill="#000000" fill-rule="evenodd" fill-opacity="1" /><path clip-path="url(#clip130)" d="M561.922 191.247 L561.922 195.229 Q560.116 194.233 558.287 193.747 Q556.482 193.238 554.63 193.238 Q550.486 193.238 548.195 195.877 Q545.903 198.492 545.903 203.238 Q545.903 207.983 548.195 210.622 Q550.486 213.238 554.63 213.238 Q556.482 213.238 558.287 212.752 Q560.116 212.242 561.922 211.247 L561.922 215.182 Q560.139 216.016 558.218 216.432 Q556.32 216.849 554.167 216.849 Q548.311 216.849 544.862 213.168 Q541.412 209.488 541.412 203.238 Q541.412 196.895 544.885 193.261 Q548.38 189.627 554.445 189.627 Q556.412 189.627 558.287 190.043 Q560.162 190.437 561.922 191.247 Z" fill="#000000" fill-rule="evenodd" fill-opacity="1" /><path clip-path="url(#clip130)" d="M573.542 182.891 L573.542 190.252 L582.315 190.252 L582.315 193.562 L573.542 193.562 L573.542 207.636 Q573.542 210.807 574.398 211.71 Q575.278 212.613 577.94 212.613 L582.315 212.613 L582.315 216.178 L577.94 216.178 Q573.01 216.178 571.135 214.349 Q569.26 212.497 569.26 207.636 L569.26 193.562 L566.135 193.562 L566.135 190.252 L569.26 190.252 L569.26 182.891 L573.542 182.891 Z" fill="#000000" fill-rule="evenodd" fill-opacity="1" /></svg>
