<?xml version="1.0" encoding="utf-8"?>
<svg xmlns="http://www.w3.org/2000/svg" xmlns:xlink="http://www.w3.org/1999/xlink" width="600" height="400" viewBox="0 0 2400 1600">
<defs>
  <clipPath id="clip280">
    <rect x="0" y="0" width="2400" height="1600"/>
  </clipPath>
</defs>
<path clip-path="url(#clip280)" d="M0 1600 L2400 1600 L2400 0 L0 0  Z" fill="#ffffff" fill-rule="evenodd" fill-opacity="1"/>
<defs>
  <clipPath id="clip281">
    <rect x="480" y="0" width="1681" height="1600"/>
  </clipPath>
</defs>
<path clip-path="url(#clip280)" d="M156.274 1486.45 L2352.76 1486.45 L2352.76 47.2441 L156.274 47.2441  Z" fill="#ffffff" fill-rule="evenodd" fill-opacity="1"/>
<defs>
  <clipPath id="clip282">
    <rect x="156" y="47" width="2197" height="1440"/>
  </clipPath>
</defs>
<polyline clip-path="url(#clip282)" style="stroke:#000000; stroke-linecap:round; stroke-linejoin:round; stroke-width:2; stroke-opacity:0.1; fill:none" points="218.439,1486.45 218.439,47.2441 "/>
<polyline clip-path="url(#clip282)" style="stroke:#000000; stroke-linecap:round; stroke-linejoin:round; stroke-width:2; stroke-opacity:0.1; fill:none" points="736.477,1486.45 736.477,47.2441 "/>
<polyline clip-path="url(#clip282)" style="stroke:#000000; stroke-linecap:round; stroke-linejoin:round; stroke-width:2; stroke-opacity:0.1; fill:none" points="1254.52,1486.45 1254.52,47.2441 "/>
<polyline clip-path="url(#clip282)" style="stroke:#000000; stroke-linecap:round; stroke-linejoin:round; stroke-width:2; stroke-opacity:0.1; fill:none" points="1772.55,1486.45 1772.55,47.2441 "/>
<polyline clip-path="url(#clip282)" style="stroke:#000000; stroke-linecap:round; stroke-linejoin:round; stroke-width:2; stroke-opacity:0.1; fill:none" points="2290.59,1486.45 2290.59,47.2441 "/>
<polyline clip-path="url(#clip280)" style="stroke:#000000; stroke-linecap:round; stroke-linejoin:round; stroke-width:4; stroke-opacity:1; fill:none" points="156.274,1486.45 2352.76,1486.45 "/>
<polyline clip-path="url(#clip280)" style="stroke:#000000; stroke-linecap:round; stroke-linejoin:round; stroke-width:4; stroke-opacity:1; fill:none" points="218.439,1486.45 218.439,1467.55 "/>
<polyline clip-path="url(#clip280)" style="stroke:#000000; stroke-linecap:round; stroke-linejoin:round; stroke-width:4; stroke-opacity:1; fill:none" points="736.477,1486.45 736.477,1467.55 "/>
<polyline clip-path="url(#clip280)" style="stroke:#000000; stroke-linecap:round; stroke-linejoin:round; stroke-width:4; stroke-opacity:1; fill:none" points="1254.52,1486.45 1254.52,1467.55 "/>
<polyline clip-path="url(#clip280)" style="stroke:#000000; stroke-linecap:round; stroke-linejoin:round; stroke-width:4; stroke-opacity:1; fill:none" points="1772.55,1486.45 1772.55,1467.55 "/>
<polyline clip-path="url(#clip280)" style="stroke:#000000; stroke-linecap:round; stroke-linejoin:round; stroke-width:4; stroke-opacity:1; fill:none" points="2290.59,1486.45 2290.59,1467.55 "/>
<path clip-path="url(#clip280)" d="M164.967 1532.02 L194.643 1532.02 L194.643 1535.95 L164.967 1535.95 L164.967 1532.02 Z" fill="#000000" fill-rule="nonzero" fill-opacity="1" /><path clip-path="url(#clip280)" d="M205.545 1544.91 L213.184 1544.91 L213.184 1518.55 L204.874 1520.21 L204.874 1515.95 L213.138 1514.29 L217.814 1514.29 L217.814 1544.91 L225.453 1544.91 L225.453 1548.85 L205.545 1548.85 L205.545 1544.91 Z" fill="#000000" fill-rule="nonzero" fill-opacity="1" /><path clip-path="url(#clip280)" d="M234.897 1542.97 L239.781 1542.97 L239.781 1548.85 L234.897 1548.85 L234.897 1542.97 Z" fill="#000000" fill-rule="nonzero" fill-opacity="1" /><path clip-path="url(#clip280)" d="M259.966 1517.37 Q256.355 1517.37 254.527 1520.93 Q252.721 1524.47 252.721 1531.6 Q252.721 1538.71 254.527 1542.27 Q256.355 1545.82 259.966 1545.82 Q263.601 1545.82 265.406 1542.27 Q267.235 1538.71 267.235 1531.6 Q267.235 1524.47 265.406 1520.93 Q263.601 1517.37 259.966 1517.37 M259.966 1513.66 Q265.776 1513.66 268.832 1518.27 Q271.911 1522.85 271.911 1531.6 Q271.911 1540.33 268.832 1544.94 Q265.776 1549.52 259.966 1549.52 Q254.156 1549.52 251.077 1544.94 Q248.022 1540.33 248.022 1531.6 Q248.022 1522.85 251.077 1518.27 Q254.156 1513.66 259.966 1513.66 Z" fill="#000000" fill-rule="nonzero" fill-opacity="1" /><path clip-path="url(#clip280)" d="M683.503 1532.02 L713.178 1532.02 L713.178 1535.95 L683.503 1535.95 L683.503 1532.02 Z" fill="#000000" fill-rule="nonzero" fill-opacity="1" /><path clip-path="url(#clip280)" d="M733.271 1517.37 Q729.66 1517.37 727.831 1520.93 Q726.026 1524.47 726.026 1531.6 Q726.026 1538.71 727.831 1542.27 Q729.66 1545.82 733.271 1545.82 Q736.905 1545.82 738.711 1542.27 Q740.539 1538.71 740.539 1531.6 Q740.539 1524.47 738.711 1520.93 Q736.905 1517.37 733.271 1517.37 M733.271 1513.66 Q739.081 1513.66 742.137 1518.27 Q745.215 1522.85 745.215 1531.6 Q745.215 1540.33 742.137 1544.94 Q739.081 1549.52 733.271 1549.52 Q727.461 1549.52 724.382 1544.94 Q721.327 1540.33 721.327 1531.6 Q721.327 1522.85 724.382 1518.27 Q727.461 1513.66 733.271 1513.66 Z" fill="#000000" fill-rule="nonzero" fill-opacity="1" /><path clip-path="url(#clip280)" d="M753.433 1542.97 L758.317 1542.97 L758.317 1548.85 L753.433 1548.85 L753.433 1542.97 Z" fill="#000000" fill-rule="nonzero" fill-opacity="1" /><path clip-path="url(#clip280)" d="M768.548 1514.29 L786.905 1514.29 L786.905 1518.22 L772.831 1518.22 L772.831 1526.7 Q773.849 1526.35 774.868 1526.19 Q775.886 1526 776.905 1526 Q782.692 1526 786.072 1529.17 Q789.451 1532.34 789.451 1537.76 Q789.451 1543.34 785.979 1546.44 Q782.507 1549.52 776.187 1549.52 Q774.011 1549.52 771.743 1549.15 Q769.498 1548.78 767.09 1548.04 L767.09 1543.34 Q769.173 1544.47 771.396 1545.03 Q773.618 1545.58 776.095 1545.58 Q780.099 1545.58 782.437 1543.48 Q784.775 1541.37 784.775 1537.76 Q784.775 1534.15 782.437 1532.04 Q780.099 1529.94 776.095 1529.94 Q774.22 1529.94 772.345 1530.35 Q770.493 1530.77 768.548 1531.65 L768.548 1514.29 Z" fill="#000000" fill-rule="nonzero" fill-opacity="1" /><path clip-path="url(#clip280)" d="M1231.9 1517.37 Q1228.29 1517.37 1226.46 1520.93 Q1224.65 1524.47 1224.65 1531.6 Q1224.65 1538.71 1226.46 1542.27 Q1228.29 1545.82 1231.9 1545.82 Q1235.53 1545.82 1237.34 1542.27 Q1239.17 1538.71 1239.17 1531.6 Q1239.17 1524.47 1237.34 1520.93 Q1235.53 1517.37 1231.9 1517.37 M1231.9 1513.66 Q1237.71 1513.66 1240.77 1518.27 Q1243.84 1522.85 1243.84 1531.6 Q1243.84 1540.33 1240.77 1544.94 Q1237.71 1549.52 1231.9 1549.52 Q1226.09 1549.52 1223.01 1544.94 Q1219.96 1540.33 1219.96 1531.6 Q1219.96 1522.85 1223.01 1518.27 Q1226.09 1513.66 1231.9 1513.66 Z" fill="#000000" fill-rule="nonzero" fill-opacity="1" /><path clip-path="url(#clip280)" d="M1252.06 1542.97 L1256.95 1542.97 L1256.95 1548.85 L1252.06 1548.85 L1252.06 1542.97 Z" fill="#000000" fill-rule="nonzero" fill-opacity="1" /><path clip-path="url(#clip280)" d="M1277.13 1517.37 Q1273.52 1517.37 1271.69 1520.93 Q1269.89 1524.47 1269.89 1531.6 Q1269.89 1538.71 1271.69 1542.27 Q1273.52 1545.82 1277.13 1545.82 Q1280.76 1545.82 1282.57 1542.27 Q1284.4 1538.71 1284.4 1531.6 Q1284.4 1524.47 1282.57 1520.93 Q1280.76 1517.37 1277.13 1517.37 M1277.13 1513.66 Q1282.94 1513.66 1286 1518.27 Q1289.08 1522.85 1289.08 1531.6 Q1289.08 1540.33 1286 1544.94 Q1282.94 1549.52 1277.13 1549.52 Q1271.32 1549.52 1268.24 1544.94 Q1265.19 1540.33 1265.19 1531.6 Q1265.19 1522.85 1268.24 1518.27 Q1271.32 1513.66 1277.13 1513.66 Z" fill="#000000" fill-rule="nonzero" fill-opacity="1" /><path clip-path="url(#clip280)" d="M1750.44 1517.37 Q1746.82 1517.37 1745 1520.93 Q1743.19 1524.47 1743.19 1531.6 Q1743.19 1538.71 1745 1542.27 Q1746.82 1545.82 1750.44 1545.82 Q1754.07 1545.82 1755.88 1542.27 Q1757.7 1538.71 1757.7 1531.6 Q1757.7 1524.47 1755.88 1520.93 Q1754.07 1517.37 1750.44 1517.37 M1750.44 1513.66 Q1756.25 1513.66 1759.3 1518.27 Q1762.38 1522.85 1762.38 1531.6 Q1762.38 1540.33 1759.3 1544.94 Q1756.25 1549.52 1750.44 1549.52 Q1744.63 1549.52 1741.55 1544.94 Q1738.49 1540.33 1738.49 1531.6 Q1738.49 1522.85 1741.55 1518.27 Q1744.63 1513.66 1750.44 1513.66 Z" fill="#000000" fill-rule="nonzero" fill-opacity="1" /><path clip-path="url(#clip280)" d="M1770.6 1542.97 L1775.48 1542.97 L1775.48 1548.85 L1770.6 1548.85 L1770.6 1542.97 Z" fill="#000000" fill-rule="nonzero" fill-opacity="1" /><path clip-path="url(#clip280)" d="M1785.71 1514.29 L1804.07 1514.29 L1804.07 1518.22 L1790 1518.22 L1790 1526.7 Q1791.01 1526.35 1792.03 1526.19 Q1793.05 1526 1794.07 1526 Q1799.86 1526 1803.24 1529.17 Q1806.62 1532.34 1806.62 1537.76 Q1806.62 1543.34 1803.14 1546.44 Q1799.67 1549.52 1793.35 1549.52 Q1791.18 1549.52 1788.91 1549.15 Q1786.66 1548.78 1784.25 1548.04 L1784.25 1543.34 Q1786.34 1544.47 1788.56 1545.03 Q1790.78 1545.58 1793.26 1545.58 Q1797.26 1545.58 1799.6 1543.48 Q1801.94 1541.37 1801.94 1537.76 Q1801.94 1534.15 1799.6 1532.04 Q1797.26 1529.94 1793.26 1529.94 Q1791.38 1529.94 1789.51 1530.35 Q1787.66 1530.77 1785.71 1531.65 L1785.71 1514.29 Z" fill="#000000" fill-rule="nonzero" fill-opacity="1" /><path clip-path="url(#clip280)" d="M2257.74 1544.91 L2265.38 1544.91 L2265.38 1518.55 L2257.07 1520.21 L2257.07 1515.95 L2265.34 1514.29 L2270.01 1514.29 L2270.01 1544.91 L2277.65 1544.91 L2277.65 1548.85 L2257.74 1548.85 L2257.74 1544.91 Z" fill="#000000" fill-rule="nonzero" fill-opacity="1" /><path clip-path="url(#clip280)" d="M2287.1 1542.97 L2291.98 1542.97 L2291.98 1548.85 L2287.1 1548.85 L2287.1 1542.97 Z" fill="#000000" fill-rule="nonzero" fill-opacity="1" /><path clip-path="url(#clip280)" d="M2312.17 1517.37 Q2308.55 1517.37 2306.73 1520.93 Q2304.92 1524.47 2304.92 1531.6 Q2304.92 1538.71 2306.73 1542.27 Q2308.55 1545.82 2312.17 1545.82 Q2315.8 1545.82 2317.61 1542.27 Q2319.43 1538.71 2319.43 1531.6 Q2319.43 1524.47 2317.61 1520.93 Q2315.8 1517.37 2312.17 1517.37 M2312.17 1513.66 Q2317.98 1513.66 2321.03 1518.27 Q2324.11 1522.85 2324.11 1531.6 Q2324.11 1540.33 2321.03 1544.94 Q2317.98 1549.52 2312.17 1549.52 Q2306.36 1549.52 2303.28 1544.94 Q2300.22 1540.33 2300.22 1531.6 Q2300.22 1522.85 2303.28 1518.27 Q2306.36 1513.66 2312.17 1513.66 Z" fill="#000000" fill-rule="nonzero" fill-opacity="1" /><polyline clip-path="url(#clip282)" style="stroke:#000000; stroke-linecap:round; stroke-linejoin:round; stroke-width:2; stroke-opacity:0.1; fill:none" points="156.274,1246.23 2352.76,1246.23 "/>
<polyline clip-path="url(#clip282)" style="stroke:#000000; stroke-linecap:round; stroke-linejoin:round; stroke-width:2; stroke-opacity:0.1; fill:none" points="156.274,974.41 2352.76,974.41 "/>
<polyline clip-path="url(#clip282)" style="stroke:#000000; stroke-linecap:round; stroke-linejoin:round; stroke-width:2; stroke-opacity:0.1; fill:none" points="156.274,702.585 2352.76,702.585 "/>
<polyline clip-path="url(#clip282)" style="stroke:#000000; stroke-linecap:round; stroke-linejoin:round; stroke-width:2; stroke-opacity:0.1; fill:none" points="156.274,430.761 2352.76,430.761 "/>
<polyline clip-path="url(#clip282)" style="stroke:#000000; stroke-linecap:round; stroke-linejoin:round; stroke-width:2; stroke-opacity:0.1; fill:none" points="156.274,158.936 2352.76,158.936 "/>
<polyline clip-path="url(#clip280)" style="stroke:#000000; stroke-linecap:round; stroke-linejoin:round; stroke-width:4; stroke-opacity:1; fill:none" points="156.274,1486.45 156.274,47.2441 "/>
<polyline clip-path="url(#clip280)" style="stroke:#000000; stroke-linecap:round; stroke-linejoin:round; stroke-width:4; stroke-opacity:1; fill:none" points="156.274,1246.23 175.172,1246.23 "/>
<polyline clip-path="url(#clip280)" style="stroke:#000000; stroke-linecap:round; stroke-linejoin:round; stroke-width:4; stroke-opacity:1; fill:none" points="156.274,974.41 175.172,974.41 "/>
<polyline clip-path="url(#clip280)" style="stroke:#000000; stroke-linecap:round; stroke-linejoin:round; stroke-width:4; stroke-opacity:1; fill:none" points="156.274,702.585 175.172,702.585 "/>
<polyline clip-path="url(#clip280)" style="stroke:#000000; stroke-linecap:round; stroke-linejoin:round; stroke-width:4; stroke-opacity:1; fill:none" points="156.274,430.761 175.172,430.761 "/>
<polyline clip-path="url(#clip280)" style="stroke:#000000; stroke-linecap:round; stroke-linejoin:round; stroke-width:4; stroke-opacity:1; fill:none" points="156.274,158.936 175.172,158.936 "/>
<path clip-path="url(#clip280)" d="M63.0985 1232.03 Q59.4875 1232.03 57.6588 1235.6 Q55.8532 1239.14 55.8532 1246.27 Q55.8532 1253.38 57.6588 1256.94 Q59.4875 1260.48 63.0985 1260.48 Q66.7328 1260.48 68.5383 1256.94 Q70.367 1253.38 70.367 1246.27 Q70.367 1239.14 68.5383 1235.6 Q66.7328 1232.03 63.0985 1232.03 M63.0985 1228.33 Q68.9087 1228.33 71.9642 1232.94 Q75.0429 1237.52 75.0429 1246.27 Q75.0429 1255 71.9642 1259.6 Q68.9087 1264.19 63.0985 1264.19 Q57.2884 1264.19 54.2097 1259.6 Q51.1542 1255 51.1542 1246.27 Q51.1542 1237.52 54.2097 1232.94 Q57.2884 1228.33 63.0985 1228.33 Z" fill="#000000" fill-rule="nonzero" fill-opacity="1" /><path clip-path="url(#clip280)" d="M83.2605 1257.64 L88.1447 1257.64 L88.1447 1263.51 L83.2605 1263.51 L83.2605 1257.64 Z" fill="#000000" fill-rule="nonzero" fill-opacity="1" /><path clip-path="url(#clip280)" d="M108.33 1232.03 Q104.719 1232.03 102.89 1235.6 Q101.084 1239.14 101.084 1246.27 Q101.084 1253.38 102.89 1256.94 Q104.719 1260.48 108.33 1260.48 Q111.964 1260.48 113.77 1256.94 Q115.598 1253.38 115.598 1246.27 Q115.598 1239.14 113.77 1235.6 Q111.964 1232.03 108.33 1232.03 M108.33 1228.33 Q114.14 1228.33 117.195 1232.94 Q120.274 1237.52 120.274 1246.27 Q120.274 1255 117.195 1259.6 Q114.14 1264.19 108.33 1264.19 Q102.52 1264.19 99.4409 1259.6 Q96.3854 1255 96.3854 1246.27 Q96.3854 1237.52 99.4409 1232.94 Q102.52 1228.33 108.33 1228.33 Z" fill="#000000" fill-rule="nonzero" fill-opacity="1" /><path clip-path="url(#clip280)" d="M63.7467 960.209 Q60.1356 960.209 58.3069 963.774 Q56.5014 967.315 56.5014 974.445 Q56.5014 981.551 58.3069 985.116 Q60.1356 988.658 63.7467 988.658 Q67.3809 988.658 69.1865 985.116 Q71.0152 981.551 71.0152 974.445 Q71.0152 967.315 69.1865 963.774 Q67.3809 960.209 63.7467 960.209 M63.7467 956.505 Q69.5568 956.505 72.6124 961.112 Q75.6911 965.695 75.6911 974.445 Q75.6911 983.172 72.6124 987.778 Q69.5568 992.361 63.7467 992.361 Q57.9365 992.361 54.8578 987.778 Q51.8023 983.172 51.8023 974.445 Q51.8023 965.695 54.8578 961.112 Q57.9365 956.505 63.7467 956.505 Z" fill="#000000" fill-rule="nonzero" fill-opacity="1" /><path clip-path="url(#clip280)" d="M83.9086 985.81 L88.7928 985.81 L88.7928 991.69 L83.9086 991.69 L83.9086 985.81 Z" fill="#000000" fill-rule="nonzero" fill-opacity="1" /><path clip-path="url(#clip280)" d="M113.145 973.056 Q116.501 973.774 118.376 976.042 Q120.274 978.311 120.274 981.644 Q120.274 986.76 116.756 989.56 Q113.237 992.361 106.756 992.361 Q104.58 992.361 102.265 991.922 Q99.9733 991.505 97.5197 990.648 L97.5197 986.135 Q99.4641 987.269 101.779 987.848 Q104.094 988.426 106.617 988.426 Q111.015 988.426 113.307 986.69 Q115.621 984.954 115.621 981.644 Q115.621 978.588 113.469 976.875 Q111.339 975.139 107.52 975.139 L103.492 975.139 L103.492 971.297 L107.705 971.297 Q111.154 971.297 112.983 969.931 Q114.811 968.542 114.811 965.949 Q114.811 963.287 112.913 961.875 Q111.038 960.44 107.52 960.44 Q105.598 960.44 103.399 960.857 Q101.2 961.274 98.5613 962.153 L98.5613 957.987 Q101.223 957.246 103.538 956.875 Q105.876 956.505 107.936 956.505 Q113.26 956.505 116.362 958.936 Q119.464 961.343 119.464 965.463 Q119.464 968.334 117.82 970.324 Q116.177 972.292 113.145 973.056 Z" fill="#000000" fill-rule="nonzero" fill-opacity="1" /><path clip-path="url(#clip280)" d="M62.9365 688.384 Q59.3254 688.384 57.4967 691.949 Q55.6912 695.491 55.6912 702.62 Q55.6912 709.727 57.4967 713.291 Q59.3254 716.833 62.9365 716.833 Q66.5707 716.833 68.3763 713.291 Q70.205 709.727 70.205 702.62 Q70.205 695.491 68.3763 691.949 Q66.5707 688.384 62.9365 688.384 M62.9365 684.68 Q68.7467 684.68 71.8022 689.287 Q74.8809 693.87 74.8809 702.62 Q74.8809 711.347 71.8022 715.953 Q68.7467 720.537 62.9365 720.537 Q57.1264 720.537 54.0477 715.953 Q50.9921 711.347 50.9921 702.62 Q50.9921 693.87 54.0477 689.287 Q57.1264 684.68 62.9365 684.68 Z" fill="#000000" fill-rule="nonzero" fill-opacity="1" /><path clip-path="url(#clip280)" d="M83.0984 713.986 L87.9827 713.986 L87.9827 719.865 L83.0984 719.865 L83.0984 713.986 Z" fill="#000000" fill-rule="nonzero" fill-opacity="1" /><path clip-path="url(#clip280)" d="M108.746 700.722 Q105.598 700.722 103.746 702.875 Q101.918 705.028 101.918 708.778 Q101.918 712.504 103.746 714.68 Q105.598 716.833 108.746 716.833 Q111.895 716.833 113.723 714.68 Q115.575 712.504 115.575 708.778 Q115.575 705.028 113.723 702.875 Q111.895 700.722 108.746 700.722 M118.029 686.069 L118.029 690.329 Q116.27 689.495 114.464 689.055 Q112.682 688.616 110.922 688.616 Q106.293 688.616 103.839 691.741 Q101.409 694.866 101.061 701.185 Q102.427 699.171 104.487 698.106 Q106.547 697.018 109.024 697.018 Q114.233 697.018 117.242 700.19 Q120.274 703.338 120.274 708.778 Q120.274 714.102 117.126 717.319 Q113.978 720.537 108.746 720.537 Q102.751 720.537 99.5798 715.953 Q96.4085 711.347 96.4085 702.62 Q96.4085 694.426 100.297 689.565 Q104.186 684.68 110.737 684.68 Q112.496 684.68 114.279 685.028 Q116.084 685.375 118.029 686.069 Z" fill="#000000" fill-rule="nonzero" fill-opacity="1" /><path clip-path="url(#clip280)" d="M63.2837 416.559 Q59.6726 416.559 57.8439 420.124 Q56.0384 423.666 56.0384 430.795 Q56.0384 437.902 57.8439 441.467 Q59.6726 445.008 63.2837 445.008 Q66.918 445.008 68.7235 441.467 Q70.5522 437.902 70.5522 430.795 Q70.5522 423.666 68.7235 420.124 Q66.918 416.559 63.2837 416.559 M63.2837 412.856 Q69.0939 412.856 72.1494 417.462 Q75.2281 422.045 75.2281 430.795 Q75.2281 439.522 72.1494 444.129 Q69.0939 448.712 63.2837 448.712 Q57.4736 448.712 54.3949 444.129 Q51.3393 439.522 51.3393 430.795 Q51.3393 422.045 54.3949 417.462 Q57.4736 412.856 63.2837 412.856 Z" fill="#000000" fill-rule="nonzero" fill-opacity="1" /><path clip-path="url(#clip280)" d="M83.4457 442.161 L88.3299 442.161 L88.3299 448.041 L83.4457 448.041 L83.4457 442.161 Z" fill="#000000" fill-rule="nonzero" fill-opacity="1" /><path clip-path="url(#clip280)" d="M98.6539 447.323 L98.6539 443.064 Q100.413 443.897 102.219 444.337 Q104.024 444.777 105.76 444.777 Q110.39 444.777 112.82 441.675 Q115.274 438.55 115.621 432.207 Q114.279 434.198 112.219 435.263 Q110.158 436.328 107.658 436.328 Q102.473 436.328 99.4409 433.203 Q96.4317 430.055 96.4317 424.615 Q96.4317 419.291 99.5798 416.073 Q102.728 412.856 107.959 412.856 Q113.955 412.856 117.103 417.462 Q120.274 422.045 120.274 430.795 Q120.274 438.967 116.385 443.851 Q112.52 448.712 105.969 448.712 Q104.209 448.712 102.404 448.365 Q100.598 448.018 98.6539 447.323 M107.959 432.67 Q111.108 432.67 112.936 430.518 Q114.788 428.365 114.788 424.615 Q114.788 420.888 112.936 418.735 Q111.108 416.559 107.959 416.559 Q104.811 416.559 102.959 418.735 Q101.131 420.888 101.131 424.615 Q101.131 428.365 102.959 430.518 Q104.811 432.67 107.959 432.67 Z" fill="#000000" fill-rule="nonzero" fill-opacity="1" /><path clip-path="url(#clip280)" d="M55.506 172.281 L63.1448 172.281 L63.1448 145.915 L54.8347 147.582 L54.8347 143.323 L63.0985 141.656 L67.7744 141.656 L67.7744 172.281 L75.4133 172.281 L75.4133 176.216 L55.506 176.216 L55.506 172.281 Z" fill="#000000" fill-rule="nonzero" fill-opacity="1" /><path clip-path="url(#clip280)" d="M84.8577 170.336 L89.7419 170.336 L89.7419 176.216 L84.8577 176.216 L84.8577 170.336 Z" fill="#000000" fill-rule="nonzero" fill-opacity="1" /><path clip-path="url(#clip280)" d="M103.955 172.281 L120.274 172.281 L120.274 176.216 L98.3298 176.216 L98.3298 172.281 Q100.992 169.526 105.575 164.897 Q110.182 160.244 111.362 158.901 Q113.608 156.378 114.487 154.642 Q115.39 152.883 115.39 151.193 Q115.39 148.438 113.445 146.702 Q111.524 144.966 108.422 144.966 Q106.223 144.966 103.77 145.73 Q101.339 146.494 98.5613 148.045 L98.5613 143.323 Q101.385 142.188 103.839 141.61 Q106.293 141.031 108.33 141.031 Q113.7 141.031 116.895 143.716 Q120.089 146.401 120.089 150.892 Q120.089 153.022 119.279 154.943 Q118.492 156.841 116.385 159.434 Q115.807 160.105 112.705 163.323 Q109.603 166.517 103.955 172.281 Z" fill="#000000" fill-rule="nonzero" fill-opacity="1" /><polyline clip-path="url(#clip282)" style="stroke:#009af9; stroke-linecap:round; stroke-linejoin:round; stroke-width:16; stroke-opacity:1; fill:none" stroke-dasharray="8, 16" points="218.439,1110.22 228.852,1080.24 239.264,1061.56 249.677,1056.89 260.09,1064.05 270.503,1077.33 280.916,1090.84 291.329,1101.93 301.741,1112.52 312.154,1127.28 322.567,1150.36 332.98,1182.83 343.393,1222.07 353.805,1263.01 364.218,1300.18 374.631,1329.89 385.044,1351.63 395.457,1368.14 405.87,1383.62 416.282,1400.83 426.695,1418.7 437.108,1432.5 447.521,1436.71 457.934,1428.67 468.347,1410.33 478.759,1386.6 489.172,1361.74 499.585,1336.68 509.998,1309.72 520.411,1279.52 530.824,1247.02 541.236,1214.54 551.649,1183.89 562.062,1155.56 572.475,1129.46 582.888,1105.93 593.301,1086.06 603.713,1071.45 614.126,1063.58 624.539,1063.2 634.952,1069.93 645.365,1082.46 655.777,1099.18 666.19,1119.02 676.603,1141.78 687.016,1167.93 697.429,1197.84 707.842,1231.01 718.254,1265.69 728.667,1299.3 739.08,1329.55 749.493,1355.59 759.906,1378.43 770.319,1399.57 780.731,1418.5 791.144,1431.53 801.557,1433.89 811.97,1424.34 822.383,1407.43 832.796,1390.19 843.208,1375.75 853.621,1360.81 864.034,1339.56 874.447,1309.74 884.86,1274.37 895.273,1238.53 905.685,1205.43 916.098,1175.47 926.511,1147.79 936.924,1121.99 947.337,1098.86 957.749,1080.1 968.162,1067.54 978.575,1062.35 988.988,1064.64 999.401,1073.57 1009.81,1087.76 1020.23,1105.79 1030.64,1126.69 1041.05,1149.98 1051.46,1175.72 1061.88,1204.16 1072.29,1235.47 1082.7,1269.35 1093.12,1304.71 1103.53,1339.6 1113.94,1371.22 1124.35,1396.48 1134.77,1412.69 1145.18,1418.56 1155.59,1415.22 1166.01,1406.8 1176.42,1400.21 1186.83,1403.37 1197.24,1420.51 1207.66,1444.02 1218.07,1445.72 1228.48,1378.8 1238.9,1204.09 1249.31,932.118 1259.72,637.103 1270.13,411.085 1280.55,299.238 1290.96,282.875 1301.37,312.663 1311.79,345.983 1322.2,361.695 1332.61,357.346 1343.02,340.879 1353.44,323.037 1363.85,312.228 1374.26,312.15 1384.68,321.844 1395.09,337.285 1405.5,353.411 1415.91,365.775 1426.33,371.482 1436.74,369.448 1447.15,360.267 1457.57,345.87 1467.98,329.159 1478.39,313.603 1488.8,302.768 1499.22,299.703 1509.63,306.219 1520.04,322.194 1530.45,345.18 1540.87,370.545 1551.28,392.247 1561.69,403.994 1572.11,400.521 1582.52,378.873 1592.93,340.019 1603.34,290.956 1613.76,246.133 1624.17,225.159 1634.58,244.246 1645,304.45 1655.41,386.087 1665.82,456.291 1676.23,485.676 1686.65,462.876 1697.06,398.646 1707.47,318.542 1717.89,249.925 1728.3,211.652 1738.71,210.932 1749.12,245.141 1759.54,304.245 1769.95,372.656 1780.36,432.206 1790.78,466.931 1801.19,467.732 1811.6,434.571 1822.01,375.764 1832.43,305.532 1842.84,241.047 1853.25,199.318 1863.67,193.693 1874.08,229.804 1884.49,301.877 1894.9,391.683 1905.32,472.497 1915.73,517.778 1926.14,510.796 1936.56,450.618 1946.97,352.788 1957.38,245.624 1967.79,162.914 1978.21,133.262 1988.62,168.697 1999.03,258.477 2009.45,372.839 2019.86,475.182 2030.27,535.804 2040.68,540.354 2051.1,490.686 2061.51,401.034 2071.92,293.839 2082.33,196.342 2092.75,135.566 2103.16,130.565 2113.57,185.2 2123.99,285.87 2134.4,405.318 2144.81,510.191 2155.22,569.667 2165.64,563.772 2176.05,490.378 2186.46,368.759 2196.88,236.264 2207.29,136.163 2217.7,100.288 2228.11,135.892 2238.53,225.072 2248.94,336.195 2259.35,438.753 2269.77,513.266 2280.18,553.833 2290.59,565.644 "/>
<polyline clip-path="url(#clip282)" style="stroke:#e26f46; stroke-linecap:round; stroke-linejoin:round; stroke-width:4; stroke-opacity:1; fill:none" points="218.439,1110.14 228.852,1090.84 239.264,1076.6 249.677,1067.9 260.09,1065.02 270.503,1068.05 280.916,1076.9 291.329,1091.28 301.741,1110.71 312.154,1134.57 322.567,1162.07 332.98,1192.32 343.393,1224.33 353.805,1257.05 364.218,1289.42 374.631,1320.38 385.044,1348.92 395.457,1374.11 405.87,1395.13 416.282,1411.28 426.695,1422.05 437.108,1427.08 447.521,1426.21 457.934,1419.47 468.347,1407.07 478.759,1389.42 489.172,1367.1 499.585,1340.83 509.998,1311.48 520.411,1280 530.824,1247.41 541.236,1214.79 551.649,1183.19 562.062,1153.65 572.475,1127.14 582.888,1104.51 593.301,1086.5 603.713,1073.71 614.126,1066.55 624.539,1065.25 634.952,1069.86 645.365,1080.23 655.777,1096.01 666.19,1116.7 676.603,1141.62 687.016,1169.95 697.429,1200.77 707.842,1233.07 718.254,1265.8 728.667,1297.9 739.08,1328.31 749.493,1356.04 759.906,1380.18 770.319,1399.96 780.731,1414.71 791.144,1423.97 801.557,1427.43 811.97,1424.97 822.383,1416.68 832.796,1402.83 843.208,1383.87 853.621,1360.41 864.034,1333.23 874.447,1303.21 884.86,1271.33 895.273,1238.63 905.685,1206.18 916.098,1175.03 926.511,1146.21 936.924,1120.66 947.337,1099.2 957.749,1082.54 968.162,1071.23 978.575,1065.62 988.988,1065.91 999.401,1072.09 1009.81,1083.95 1020.23,1101.1 1030.64,1123 1041.05,1148.91 1051.46,1178 1061.88,1209.32 1072.29,1241.84 1082.7,1274.51 1093.12,1306.25 1103.53,1336.04 1113.94,1362.89 1124.35,1385.94 1134.77,1404.43 1145.18,1417.75 1155.59,1425.48 1166.01,1427.35 1176.42,1423.32 1186.83,1413.5 1197.24,1398.23 1207.66,1378 1218.07,1353.46 1228.48,1325.43 1238.9,1294.81 1249.31,1262.6 1259.72,338.837 1270.13,337.339 1280.55,338.702 1290.96,343.239 1301.37,349.56 1311.79,354.994 1322.2,356.603 1332.61,352.422 1343.02,342.455 1353.44,329.019 1363.85,316.233 1374.26,308.763 1384.68,310.196 1395.09,321.593 1405.5,340.761 1415.91,362.576 1426.33,380.341 1436.74,387.835 1447.15,381.42 1457.57,361.517 1467.98,332.89 1478.39,303.551 1488.8,282.524 1499.22,277.077 1509.63,290.282 1520.04,319.701 1530.45,357.694 1540.87,393.385 1551.28,415.769 1561.69,417.094 1572.11,395.469 1582.52,355.837 1592.93,308.922 1603.34,268.341 1613.76,246.648 1624.17,251.472 1634.58,282.922 1645,333.131 1655.41,388.172 1665.82,431.925 1676.23,450.788 1686.65,437.888 1697.06,395.472 1707.47,334.676 1717.89,272.636 1728.3,227.652 1738.71,213.798 1749.12,236.547 1759.54,290.769 1769.95,361.802 1780.36,429.398 1790.78,473.499 1801.19,480.179 1811.6,446.008 1822.01,379.47 1832.43,298.911 1842.84,227.489 1853.25,186.516 1863.67,189.106 1874.08,236.026 1884.49,315.036 1894.9,404.054 1905.32,477.317 1915.73,512.843 1926.14,499.009 1936.56,438.302 1946.97,347.03 1957.38,250.961 1967.79,178.054 1978.21,150.321 1988.62,177.197 1999.03,252.406 2009.45,355.354 2019.86,456.746 2030.27,526.929 2040.68,544.558 2051.1,503.067 2061.51,412.99 2071.92,299.332 2082.33,194.634 2092.75,129.661 2103.16,124.361 2113.57,181.77 2123.99,286.702 2134.4,409.738 2144.81,515.468 2155.22,572.68 2165.64,563.571 2176.05,489.253 2186.46,369.865 2196.88,239.138 2207.29,134.864 2217.7,87.9763 2228.11,113.377 2238.53,205.247 2248.94,338.292 2259.35,474.692 2269.77,574.857 2280.18,608.906 2290.59,565.579 "/>
<path clip-path="url(#clip280)" d="M229.49 250.738 L675.966 250.738 L675.966 95.2176 L229.49 95.2176  Z" fill="#ffffff" fill-rule="evenodd" fill-opacity="1"/>
<polyline clip-path="url(#clip280)" style="stroke:#000000; stroke-linecap:round; stroke-linejoin:round; stroke-width:4; stroke-opacity:1; fill:none" points="229.49,250.738 675.966,250.738 675.966,95.2176 229.49,95.2176 229.49,250.738 "/>
<polyline clip-path="url(#clip280)" style="stroke:#009af9; stroke-linecap:round; stroke-linejoin:round; stroke-width:16; stroke-opacity:1; fill:none" stroke-dasharray="8, 16" points="253.896,147.058 400.328,147.058 "/>
<path clip-path="url(#clip280)" d="M429.409 133.62 L429.409 146.606 L435.289 146.606 Q438.552 146.606 440.335 144.916 Q442.117 143.227 442.117 140.102 Q442.117 137 440.335 135.31 Q438.552 133.62 435.289 133.62 L429.409 133.62 M424.733 129.778 L435.289 129.778 Q441.099 129.778 444.062 132.416 Q447.048 135.032 447.048 140.102 Q447.048 145.217 444.062 147.833 Q441.099 150.449 435.289 150.449 L429.409 150.449 L429.409 164.338 L424.733 164.338 L424.733 129.778 Z" fill="#000000" fill-rule="nonzero" fill-opacity="1" /><path clip-path="url(#clip280)" d="M467.325 142.393 Q466.608 141.977 465.751 141.791 Q464.918 141.583 463.899 141.583 Q460.288 141.583 458.344 143.944 Q456.423 146.282 456.423 150.68 L456.423 164.338 L452.14 164.338 L452.14 138.412 L456.423 138.412 L456.423 142.44 Q457.765 140.078 459.918 138.944 Q462.071 137.787 465.149 137.787 Q465.589 137.787 466.122 137.856 Q466.654 137.903 467.302 138.018 L467.325 142.393 Z" fill="#000000" fill-rule="nonzero" fill-opacity="1" /><path clip-path="url(#clip280)" d="M492.927 150.31 L492.927 152.393 L473.344 152.393 Q473.622 156.791 475.983 159.106 Q478.367 161.398 482.603 161.398 Q485.057 161.398 487.348 160.796 Q489.663 160.194 491.932 158.99 L491.932 163.018 Q489.64 163.99 487.233 164.5 Q484.825 165.009 482.348 165.009 Q476.145 165.009 472.511 161.398 Q468.899 157.787 468.899 151.629 Q468.899 145.264 472.325 141.537 Q475.774 137.787 481.608 137.787 Q486.839 137.787 489.872 141.166 Q492.927 144.523 492.927 150.31 M488.668 149.06 Q488.622 145.565 486.7 143.481 Q484.802 141.398 481.654 141.398 Q478.089 141.398 475.936 143.412 Q473.807 145.426 473.483 149.083 L488.668 149.06 Z" fill="#000000" fill-rule="nonzero" fill-opacity="1" /><path clip-path="url(#clip280)" d="M516.978 142.347 L516.978 128.319 L521.237 128.319 L521.237 164.338 L516.978 164.338 L516.978 160.449 Q515.635 162.763 513.575 163.898 Q511.538 165.009 508.668 165.009 Q503.969 165.009 501.006 161.259 Q498.066 157.509 498.066 151.398 Q498.066 145.287 501.006 141.537 Q503.969 137.787 508.668 137.787 Q511.538 137.787 513.575 138.921 Q515.635 140.032 516.978 142.347 M502.464 151.398 Q502.464 156.097 504.385 158.782 Q506.33 161.444 509.709 161.444 Q513.089 161.444 515.033 158.782 Q516.978 156.097 516.978 151.398 Q516.978 146.699 515.033 144.037 Q513.089 141.352 509.709 141.352 Q506.33 141.352 504.385 144.037 Q502.464 146.699 502.464 151.398 Z" fill="#000000" fill-rule="nonzero" fill-opacity="1" /><path clip-path="url(#clip280)" d="M530.01 138.412 L534.269 138.412 L534.269 164.338 L530.01 164.338 L530.01 138.412 M530.01 128.319 L534.269 128.319 L534.269 133.713 L530.01 133.713 L530.01 128.319 Z" fill="#000000" fill-rule="nonzero" fill-opacity="1" /><path clip-path="url(#clip280)" d="M561.839 139.407 L561.839 143.389 Q560.033 142.393 558.205 141.907 Q556.399 141.398 554.547 141.398 Q550.404 141.398 548.112 144.037 Q545.82 146.652 545.82 151.398 Q545.82 156.143 548.112 158.782 Q550.404 161.398 554.547 161.398 Q556.399 161.398 558.205 160.912 Q560.033 160.402 561.839 159.407 L561.839 163.342 Q560.056 164.176 558.135 164.592 Q556.237 165.009 554.084 165.009 Q548.228 165.009 544.779 161.328 Q541.33 157.648 541.33 151.398 Q541.33 145.055 544.802 141.421 Q548.297 137.787 554.362 137.787 Q556.33 137.787 558.205 138.203 Q560.08 138.597 561.839 139.407 Z" fill="#000000" fill-rule="nonzero" fill-opacity="1" /><path clip-path="url(#clip280)" d="M573.459 131.051 L573.459 138.412 L582.232 138.412 L582.232 141.722 L573.459 141.722 L573.459 155.796 Q573.459 158.967 574.316 159.87 Q575.195 160.773 577.857 160.773 L582.232 160.773 L582.232 164.338 L577.857 164.338 Q572.927 164.338 571.052 162.509 Q569.177 160.657 569.177 155.796 L569.177 141.722 L566.052 141.722 L566.052 138.412 L569.177 138.412 L569.177 131.051 L573.459 131.051 Z" fill="#000000" fill-rule="nonzero" fill-opacity="1" /><path clip-path="url(#clip280)" d="M587.834 138.412 L592.093 138.412 L592.093 164.338 L587.834 164.338 L587.834 138.412 M587.834 128.319 L592.093 128.319 L592.093 133.713 L587.834 133.713 L587.834 128.319 Z" fill="#000000" fill-rule="nonzero" fill-opacity="1" /><path clip-path="url(#clip280)" d="M611.051 141.398 Q607.626 141.398 605.635 144.083 Q603.644 146.745 603.644 151.398 Q603.644 156.051 605.612 158.736 Q607.602 161.398 611.051 161.398 Q614.454 161.398 616.445 158.713 Q618.436 156.027 618.436 151.398 Q618.436 146.791 616.445 144.106 Q614.454 141.398 611.051 141.398 M611.051 137.787 Q616.607 137.787 619.778 141.398 Q622.95 145.009 622.95 151.398 Q622.95 157.764 619.778 161.398 Q616.607 165.009 611.051 165.009 Q605.473 165.009 602.302 161.398 Q599.153 157.764 599.153 151.398 Q599.153 145.009 602.302 141.398 Q605.473 137.787 611.051 137.787 Z" fill="#000000" fill-rule="nonzero" fill-opacity="1" /><path clip-path="url(#clip280)" d="M651.561 148.689 L651.561 164.338 L647.301 164.338 L647.301 148.828 Q647.301 145.148 645.866 143.319 Q644.431 141.49 641.561 141.49 Q638.112 141.49 636.121 143.69 Q634.13 145.889 634.13 149.685 L634.13 164.338 L629.848 164.338 L629.848 138.412 L634.13 138.412 L634.13 142.44 Q635.658 140.102 637.718 138.944 Q639.801 137.787 642.51 137.787 Q646.977 137.787 649.269 140.565 Q651.561 143.319 651.561 148.689 Z" fill="#000000" fill-rule="nonzero" fill-opacity="1" /><polyline clip-path="url(#clip280)" style="stroke:#e26f46; stroke-linecap:round; stroke-linejoin:round; stroke-width:4; stroke-opacity:1; fill:none" points="253.896,198.898 400.328,198.898 "/>
<path clip-path="url(#clip280)" d="M424.733 181.618 L446.585 181.618 L446.585 185.553 L429.409 185.553 L429.409 195.784 L445.867 195.784 L445.867 199.719 L429.409 199.719 L429.409 212.242 L447.001 212.242 L447.001 216.178 L424.733 216.178 L424.733 181.618 Z" fill="#000000" fill-rule="nonzero" fill-opacity="1" /><path clip-path="url(#clip280)" d="M476.052 190.252 L466.677 202.867 L476.538 216.178 L471.515 216.178 L463.969 205.992 L456.423 216.178 L451.4 216.178 L461.469 202.613 L452.256 190.252 L457.279 190.252 L464.154 199.488 L471.029 190.252 L476.052 190.252 Z" fill="#000000" fill-rule="nonzero" fill-opacity="1" /><path clip-path="url(#clip280)" d="M494.339 203.145 Q489.177 203.145 487.186 204.326 Q485.196 205.506 485.196 208.354 Q485.196 210.622 486.677 211.965 Q488.182 213.284 490.751 213.284 Q494.293 213.284 496.422 210.784 Q498.575 208.261 498.575 204.094 L498.575 203.145 L494.339 203.145 M502.834 201.386 L502.834 216.178 L498.575 216.178 L498.575 212.242 Q497.117 214.603 494.941 215.738 Q492.765 216.849 489.617 216.849 Q485.635 216.849 483.274 214.627 Q480.936 212.381 480.936 208.631 Q480.936 204.256 483.853 202.034 Q486.793 199.812 492.603 199.812 L498.575 199.812 L498.575 199.395 Q498.575 196.455 496.631 194.858 Q494.71 193.238 491.214 193.238 Q488.992 193.238 486.885 193.77 Q484.779 194.303 482.835 195.367 L482.835 191.432 Q485.173 190.53 487.372 190.09 Q489.571 189.627 491.654 189.627 Q497.279 189.627 500.057 192.543 Q502.834 195.46 502.834 201.386 Z" fill="#000000" fill-rule="nonzero" fill-opacity="1" /><path clip-path="url(#clip280)" d="M530.265 191.247 L530.265 195.229 Q528.459 194.233 526.631 193.747 Q524.825 193.238 522.973 193.238 Q518.83 193.238 516.538 195.877 Q514.246 198.492 514.246 203.238 Q514.246 207.983 516.538 210.622 Q518.83 213.238 522.973 213.238 Q524.825 213.238 526.631 212.752 Q528.459 212.242 530.265 211.247 L530.265 215.182 Q528.482 216.016 526.561 216.432 Q524.663 216.849 522.51 216.849 Q516.654 216.849 513.205 213.168 Q509.756 209.488 509.756 203.238 Q509.756 196.895 513.228 193.261 Q516.723 189.627 522.788 189.627 Q524.756 189.627 526.631 190.043 Q528.506 190.437 530.265 191.247 Z" fill="#000000" fill-rule="nonzero" fill-opacity="1" /><path clip-path="url(#clip280)" d="M541.885 182.891 L541.885 190.252 L550.658 190.252 L550.658 193.562 L541.885 193.562 L541.885 207.636 Q541.885 210.807 542.742 211.71 Q543.621 212.613 546.283 212.613 L550.658 212.613 L550.658 216.178 L546.283 216.178 Q541.353 216.178 539.478 214.349 Q537.603 212.497 537.603 207.636 L537.603 193.562 L534.478 193.562 L534.478 190.252 L537.603 190.252 L537.603 182.891 L541.885 182.891 Z" fill="#000000" fill-rule="nonzero" fill-opacity="1" /></svg>
