<?xml version="1.0" encoding="utf-8"?>
<svg xmlns="http://www.w3.org/2000/svg" xmlns:xlink="http://www.w3.org/1999/xlink" width="600" height="400" viewBox="0 0 2400 1600">
<defs>
  <clipPath id="clip340">
    <rect x="0" y="0" width="2400" height="1600"/>
  </clipPath>
</defs>
<path clip-path="url(#clip340)" d="M0 1600 L2400 1600 L2400 0 L0 0  Z" fill="#ffffff" fill-rule="evenodd" fill-opacity="1"/>
<defs>
  <clipPath id="clip341">
    <rect x="480" y="0" width="1681" height="1600"/>
  </clipPath>
</defs>
<path clip-path="url(#clip340)" d="M192.339 1486.45 L2352.76 1486.45 L2352.76 47.2441 L192.339 47.2441  Z" fill="#ffffff" fill-rule="evenodd" fill-opacity="1"/>
<defs>
  <clipPath id="clip342">
    <rect x="192" y="47" width="2161" height="1440"/>
  </clipPath>
</defs>
<polyline clip-path="url(#clip342)" style="stroke:#000000; stroke-linecap:round; stroke-linejoin:round; stroke-width:2; stroke-opacity:0.1; fill:none" points="253.483,1486.45 253.483,47.2441 "/>
<polyline clip-path="url(#clip342)" style="stroke:#000000; stroke-linecap:round; stroke-linejoin:round; stroke-width:2; stroke-opacity:0.1; fill:none" points="763.015,1486.45 763.015,47.2441 "/>
<polyline clip-path="url(#clip342)" style="stroke:#000000; stroke-linecap:round; stroke-linejoin:round; stroke-width:2; stroke-opacity:0.1; fill:none" points="1272.55,1486.45 1272.55,47.2441 "/>
<polyline clip-path="url(#clip342)" style="stroke:#000000; stroke-linecap:round; stroke-linejoin:round; stroke-width:2; stroke-opacity:0.1; fill:none" points="1782.08,1486.45 1782.08,47.2441 "/>
<polyline clip-path="url(#clip342)" style="stroke:#000000; stroke-linecap:round; stroke-linejoin:round; stroke-width:2; stroke-opacity:0.1; fill:none" points="2291.61,1486.45 2291.61,47.2441 "/>
<polyline clip-path="url(#clip340)" style="stroke:#000000; stroke-linecap:round; stroke-linejoin:round; stroke-width:4; stroke-opacity:1; fill:none" points="192.339,1486.45 2352.76,1486.45 "/>
<polyline clip-path="url(#clip340)" style="stroke:#000000; stroke-linecap:round; stroke-linejoin:round; stroke-width:4; stroke-opacity:1; fill:none" points="253.483,1486.45 253.483,1467.55 "/>
<polyline clip-path="url(#clip340)" style="stroke:#000000; stroke-linecap:round; stroke-linejoin:round; stroke-width:4; stroke-opacity:1; fill:none" points="763.015,1486.45 763.015,1467.55 "/>
<polyline clip-path="url(#clip340)" style="stroke:#000000; stroke-linecap:round; stroke-linejoin:round; stroke-width:4; stroke-opacity:1; fill:none" points="1272.55,1486.45 1272.55,1467.55 "/>
<polyline clip-path="url(#clip340)" style="stroke:#000000; stroke-linecap:round; stroke-linejoin:round; stroke-width:4; stroke-opacity:1; fill:none" points="1782.08,1486.45 1782.08,1467.55 "/>
<polyline clip-path="url(#clip340)" style="stroke:#000000; stroke-linecap:round; stroke-linejoin:round; stroke-width:4; stroke-opacity:1; fill:none" points="2291.61,1486.45 2291.61,1467.55 "/>
<path clip-path="url(#clip340)" d="M200.011 1532.02 L229.686 1532.02 L229.686 1535.95 L200.011 1535.95 L200.011 1532.02 Z" fill="#000000" fill-rule="nonzero" fill-opacity="1" /><path clip-path="url(#clip340)" d="M240.589 1544.91 L248.228 1544.91 L248.228 1518.55 L239.918 1520.21 L239.918 1515.95 L248.182 1514.29 L252.858 1514.29 L252.858 1544.91 L260.497 1544.91 L260.497 1548.85 L240.589 1548.85 L240.589 1544.91 Z" fill="#000000" fill-rule="nonzero" fill-opacity="1" /><path clip-path="url(#clip340)" d="M269.941 1542.97 L274.825 1542.97 L274.825 1548.85 L269.941 1548.85 L269.941 1542.97 Z" fill="#000000" fill-rule="nonzero" fill-opacity="1" /><path clip-path="url(#clip340)" d="M295.01 1517.37 Q291.399 1517.37 289.57 1520.93 Q287.765 1524.47 287.765 1531.6 Q287.765 1538.71 289.57 1542.27 Q291.399 1545.82 295.01 1545.82 Q298.644 1545.82 300.45 1542.27 Q302.279 1538.71 302.279 1531.6 Q302.279 1524.47 300.45 1520.93 Q298.644 1517.37 295.01 1517.37 M295.01 1513.66 Q300.82 1513.66 303.876 1518.27 Q306.955 1522.85 306.955 1531.6 Q306.955 1540.33 303.876 1544.94 Q300.82 1549.52 295.01 1549.52 Q289.2 1549.52 286.121 1544.94 Q283.066 1540.33 283.066 1531.6 Q283.066 1522.85 286.121 1518.27 Q289.2 1513.66 295.01 1513.66 Z" fill="#000000" fill-rule="nonzero" fill-opacity="1" /><path clip-path="url(#clip340)" d="M710.041 1532.02 L739.717 1532.02 L739.717 1535.95 L710.041 1535.95 L710.041 1532.02 Z" fill="#000000" fill-rule="nonzero" fill-opacity="1" /><path clip-path="url(#clip340)" d="M759.809 1517.37 Q756.198 1517.37 754.369 1520.93 Q752.564 1524.47 752.564 1531.6 Q752.564 1538.71 754.369 1542.27 Q756.198 1545.82 759.809 1545.82 Q763.443 1545.82 765.249 1542.27 Q767.077 1538.71 767.077 1531.6 Q767.077 1524.47 765.249 1520.93 Q763.443 1517.37 759.809 1517.37 M759.809 1513.66 Q765.619 1513.66 768.675 1518.27 Q771.753 1522.85 771.753 1531.6 Q771.753 1540.33 768.675 1544.94 Q765.619 1549.52 759.809 1549.52 Q753.999 1549.52 750.92 1544.94 Q747.865 1540.33 747.865 1531.6 Q747.865 1522.85 750.92 1518.27 Q753.999 1513.66 759.809 1513.66 Z" fill="#000000" fill-rule="nonzero" fill-opacity="1" /><path clip-path="url(#clip340)" d="M779.971 1542.97 L784.855 1542.97 L784.855 1548.85 L779.971 1548.85 L779.971 1542.97 Z" fill="#000000" fill-rule="nonzero" fill-opacity="1" /><path clip-path="url(#clip340)" d="M795.087 1514.29 L813.443 1514.29 L813.443 1518.22 L799.369 1518.22 L799.369 1526.7 Q800.387 1526.35 801.406 1526.19 Q802.425 1526 803.443 1526 Q809.23 1526 812.61 1529.17 Q815.989 1532.34 815.989 1537.76 Q815.989 1543.34 812.517 1546.44 Q809.045 1549.52 802.725 1549.52 Q800.55 1549.52 798.281 1549.15 Q796.036 1548.78 793.628 1548.04 L793.628 1543.34 Q795.712 1544.47 797.934 1545.03 Q800.156 1545.58 802.633 1545.58 Q806.637 1545.58 808.975 1543.48 Q811.313 1541.37 811.313 1537.76 Q811.313 1534.15 808.975 1532.04 Q806.637 1529.94 802.633 1529.94 Q800.758 1529.94 798.883 1530.35 Q797.031 1530.77 795.087 1531.65 L795.087 1514.29 Z" fill="#000000" fill-rule="nonzero" fill-opacity="1" /><path clip-path="url(#clip340)" d="M1249.93 1517.37 Q1246.32 1517.37 1244.49 1520.93 Q1242.69 1524.47 1242.69 1531.6 Q1242.69 1538.71 1244.49 1542.27 Q1246.32 1545.82 1249.93 1545.82 Q1253.57 1545.82 1255.37 1542.27 Q1257.2 1538.71 1257.2 1531.6 Q1257.2 1524.47 1255.37 1520.93 Q1253.57 1517.37 1249.93 1517.37 M1249.93 1513.66 Q1255.74 1513.66 1258.8 1518.27 Q1261.88 1522.85 1261.88 1531.6 Q1261.88 1540.33 1258.8 1544.94 Q1255.74 1549.52 1249.93 1549.52 Q1244.12 1549.52 1241.04 1544.94 Q1237.99 1540.33 1237.99 1531.6 Q1237.99 1522.85 1241.04 1518.27 Q1244.12 1513.66 1249.93 1513.66 Z" fill="#000000" fill-rule="nonzero" fill-opacity="1" /><path clip-path="url(#clip340)" d="M1270.09 1542.97 L1274.98 1542.97 L1274.98 1548.85 L1270.09 1548.85 L1270.09 1542.97 Z" fill="#000000" fill-rule="nonzero" fill-opacity="1" /><path clip-path="url(#clip340)" d="M1295.16 1517.37 Q1291.55 1517.37 1289.72 1520.93 Q1287.92 1524.47 1287.92 1531.6 Q1287.92 1538.71 1289.72 1542.27 Q1291.55 1545.82 1295.16 1545.82 Q1298.8 1545.82 1300.6 1542.27 Q1302.43 1538.71 1302.43 1531.6 Q1302.43 1524.47 1300.6 1520.93 Q1298.8 1517.37 1295.16 1517.37 M1295.16 1513.66 Q1300.97 1513.66 1304.03 1518.27 Q1307.11 1522.85 1307.11 1531.6 Q1307.11 1540.33 1304.03 1544.94 Q1300.97 1549.52 1295.16 1549.52 Q1289.35 1549.52 1286.27 1544.94 Q1283.22 1540.33 1283.22 1531.6 Q1283.22 1522.85 1286.27 1518.27 Q1289.35 1513.66 1295.16 1513.66 Z" fill="#000000" fill-rule="nonzero" fill-opacity="1" /><path clip-path="url(#clip340)" d="M1759.96 1517.37 Q1756.35 1517.37 1754.52 1520.93 Q1752.72 1524.47 1752.72 1531.6 Q1752.72 1538.71 1754.52 1542.27 Q1756.35 1545.82 1759.96 1545.82 Q1763.6 1545.82 1765.4 1542.27 Q1767.23 1538.71 1767.23 1531.6 Q1767.23 1524.47 1765.4 1520.93 Q1763.6 1517.37 1759.96 1517.37 M1759.96 1513.66 Q1765.77 1513.66 1768.83 1518.27 Q1771.91 1522.85 1771.91 1531.6 Q1771.91 1540.33 1768.83 1544.94 Q1765.77 1549.52 1759.96 1549.52 Q1754.15 1549.52 1751.07 1544.94 Q1748.02 1540.33 1748.02 1531.6 Q1748.02 1522.85 1751.07 1518.27 Q1754.15 1513.66 1759.96 1513.66 Z" fill="#000000" fill-rule="nonzero" fill-opacity="1" /><path clip-path="url(#clip340)" d="M1780.12 1542.97 L1785.01 1542.97 L1785.01 1548.85 L1780.12 1548.85 L1780.12 1542.97 Z" fill="#000000" fill-rule="nonzero" fill-opacity="1" /><path clip-path="url(#clip340)" d="M1795.24 1514.29 L1813.6 1514.29 L1813.6 1518.22 L1799.52 1518.22 L1799.52 1526.7 Q1800.54 1526.35 1801.56 1526.19 Q1802.58 1526 1803.6 1526 Q1809.38 1526 1812.76 1529.17 Q1816.14 1532.34 1816.14 1537.76 Q1816.14 1543.34 1812.67 1546.44 Q1809.2 1549.52 1802.88 1549.52 Q1800.7 1549.52 1798.43 1549.15 Q1796.19 1548.78 1793.78 1548.04 L1793.78 1543.34 Q1795.86 1544.47 1798.09 1545.03 Q1800.31 1545.58 1802.79 1545.58 Q1806.79 1545.58 1809.13 1543.48 Q1811.47 1541.37 1811.47 1537.76 Q1811.47 1534.15 1809.13 1532.04 Q1806.79 1529.94 1802.79 1529.94 Q1800.91 1529.94 1799.04 1530.35 Q1797.18 1530.77 1795.24 1531.65 L1795.24 1514.29 Z" fill="#000000" fill-rule="nonzero" fill-opacity="1" /><path clip-path="url(#clip340)" d="M2258.76 1544.91 L2266.4 1544.91 L2266.4 1518.55 L2258.09 1520.21 L2258.09 1515.95 L2266.36 1514.29 L2271.03 1514.29 L2271.03 1544.91 L2278.67 1544.91 L2278.67 1548.85 L2258.76 1548.85 L2258.76 1544.91 Z" fill="#000000" fill-rule="nonzero" fill-opacity="1" /><path clip-path="url(#clip340)" d="M2288.12 1542.97 L2293 1542.97 L2293 1548.85 L2288.12 1548.85 L2288.12 1542.97 Z" fill="#000000" fill-rule="nonzero" fill-opacity="1" /><path clip-path="url(#clip340)" d="M2313.19 1517.37 Q2309.57 1517.37 2307.75 1520.93 Q2305.94 1524.47 2305.94 1531.6 Q2305.94 1538.71 2307.75 1542.27 Q2309.57 1545.82 2313.19 1545.82 Q2316.82 1545.82 2318.63 1542.27 Q2320.45 1538.71 2320.45 1531.6 Q2320.45 1524.47 2318.63 1520.93 Q2316.82 1517.37 2313.19 1517.37 M2313.19 1513.66 Q2319 1513.66 2322.05 1518.27 Q2325.13 1522.85 2325.13 1531.6 Q2325.13 1540.33 2322.05 1544.94 Q2319 1549.52 2313.19 1549.52 Q2307.38 1549.52 2304.3 1544.94 Q2301.24 1540.33 2301.24 1531.6 Q2301.24 1522.85 2304.3 1518.27 Q2307.38 1513.66 2313.19 1513.66 Z" fill="#000000" fill-rule="nonzero" fill-opacity="1" /><polyline clip-path="url(#clip342)" style="stroke:#000000; stroke-linecap:round; stroke-linejoin:round; stroke-width:2; stroke-opacity:0.1; fill:none" points="192.339,1320.81 2352.76,1320.81 "/>
<polyline clip-path="url(#clip342)" style="stroke:#000000; stroke-linecap:round; stroke-linejoin:round; stroke-width:2; stroke-opacity:0.1; fill:none" points="192.339,1154.02 2352.76,1154.02 "/>
<polyline clip-path="url(#clip342)" style="stroke:#000000; stroke-linecap:round; stroke-linejoin:round; stroke-width:2; stroke-opacity:0.1; fill:none" points="192.339,987.233 2352.76,987.233 "/>
<polyline clip-path="url(#clip342)" style="stroke:#000000; stroke-linecap:round; stroke-linejoin:round; stroke-width:2; stroke-opacity:0.1; fill:none" points="192.339,820.443 2352.76,820.443 "/>
<polyline clip-path="url(#clip342)" style="stroke:#000000; stroke-linecap:round; stroke-linejoin:round; stroke-width:2; stroke-opacity:0.1; fill:none" points="192.339,653.654 2352.76,653.654 "/>
<polyline clip-path="url(#clip342)" style="stroke:#000000; stroke-linecap:round; stroke-linejoin:round; stroke-width:2; stroke-opacity:0.1; fill:none" points="192.339,486.865 2352.76,486.865 "/>
<polyline clip-path="url(#clip342)" style="stroke:#000000; stroke-linecap:round; stroke-linejoin:round; stroke-width:2; stroke-opacity:0.1; fill:none" points="192.339,320.076 2352.76,320.076 "/>
<polyline clip-path="url(#clip342)" style="stroke:#000000; stroke-linecap:round; stroke-linejoin:round; stroke-width:2; stroke-opacity:0.1; fill:none" points="192.339,153.287 2352.76,153.287 "/>
<polyline clip-path="url(#clip340)" style="stroke:#000000; stroke-linecap:round; stroke-linejoin:round; stroke-width:4; stroke-opacity:1; fill:none" points="192.339,1486.45 192.339,47.2441 "/>
<polyline clip-path="url(#clip340)" style="stroke:#000000; stroke-linecap:round; stroke-linejoin:round; stroke-width:4; stroke-opacity:1; fill:none" points="192.339,1320.81 211.236,1320.81 "/>
<polyline clip-path="url(#clip340)" style="stroke:#000000; stroke-linecap:round; stroke-linejoin:round; stroke-width:4; stroke-opacity:1; fill:none" points="192.339,1154.02 211.236,1154.02 "/>
<polyline clip-path="url(#clip340)" style="stroke:#000000; stroke-linecap:round; stroke-linejoin:round; stroke-width:4; stroke-opacity:1; fill:none" points="192.339,987.233 211.236,987.233 "/>
<polyline clip-path="url(#clip340)" style="stroke:#000000; stroke-linecap:round; stroke-linejoin:round; stroke-width:4; stroke-opacity:1; fill:none" points="192.339,820.443 211.236,820.443 "/>
<polyline clip-path="url(#clip340)" style="stroke:#000000; stroke-linecap:round; stroke-linejoin:round; stroke-width:4; stroke-opacity:1; fill:none" points="192.339,653.654 211.236,653.654 "/>
<polyline clip-path="url(#clip340)" style="stroke:#000000; stroke-linecap:round; stroke-linejoin:round; stroke-width:4; stroke-opacity:1; fill:none" points="192.339,486.865 211.236,486.865 "/>
<polyline clip-path="url(#clip340)" style="stroke:#000000; stroke-linecap:round; stroke-linejoin:round; stroke-width:4; stroke-opacity:1; fill:none" points="192.339,320.076 211.236,320.076 "/>
<polyline clip-path="url(#clip340)" style="stroke:#000000; stroke-linecap:round; stroke-linejoin:round; stroke-width:4; stroke-opacity:1; fill:none" points="192.339,153.287 211.236,153.287 "/>
<path clip-path="url(#clip340)" d="M50.9921 1321.26 L80.6679 1321.26 L80.6679 1325.2 L50.9921 1325.2 L50.9921 1321.26 Z" fill="#000000" fill-rule="nonzero" fill-opacity="1" /><path clip-path="url(#clip340)" d="M100.76 1306.61 Q97.1493 1306.61 95.3206 1310.17 Q93.515 1313.72 93.515 1320.85 Q93.515 1327.95 95.3206 1331.52 Q97.1493 1335.06 100.76 1335.06 Q104.395 1335.06 106.2 1331.52 Q108.029 1327.95 108.029 1320.85 Q108.029 1313.72 106.2 1310.17 Q104.395 1306.61 100.76 1306.61 M100.76 1302.91 Q106.571 1302.91 109.626 1307.51 Q112.705 1312.1 112.705 1320.85 Q112.705 1329.57 109.626 1334.18 Q106.571 1338.76 100.76 1338.76 Q94.9502 1338.76 91.8715 1334.18 Q88.816 1329.57 88.816 1320.85 Q88.816 1312.1 91.8715 1307.51 Q94.9502 1302.91 100.76 1302.91 Z" fill="#000000" fill-rule="nonzero" fill-opacity="1" /><path clip-path="url(#clip340)" d="M120.922 1332.21 L125.807 1332.21 L125.807 1338.09 L120.922 1338.09 L120.922 1332.21 Z" fill="#000000" fill-rule="nonzero" fill-opacity="1" /><path clip-path="url(#clip340)" d="M140.019 1334.16 L156.339 1334.16 L156.339 1338.09 L134.394 1338.09 L134.394 1334.16 Q137.056 1331.4 141.64 1326.77 Q146.246 1322.12 147.427 1320.78 Q149.672 1318.25 150.552 1316.52 Q151.455 1314.76 151.455 1313.07 Q151.455 1310.31 149.51 1308.58 Q147.589 1306.84 144.487 1306.84 Q142.288 1306.84 139.834 1307.61 Q137.404 1308.37 134.626 1309.92 L134.626 1305.2 Q137.45 1304.06 139.904 1303.48 Q142.357 1302.91 144.394 1302.91 Q149.765 1302.91 152.959 1305.59 Q156.154 1308.28 156.154 1312.77 Q156.154 1314.9 155.343 1316.82 Q154.556 1318.72 152.45 1321.31 Q151.871 1321.98 148.769 1325.2 Q145.668 1328.39 140.019 1334.16 Z" fill="#000000" fill-rule="nonzero" fill-opacity="1" /><path clip-path="url(#clip340)" d="M99.1632 1139.82 Q95.5521 1139.82 93.7234 1143.39 Q91.9178 1146.93 91.9178 1154.06 Q91.9178 1161.16 93.7234 1164.73 Q95.5521 1168.27 99.1632 1168.27 Q102.797 1168.27 104.603 1164.73 Q106.432 1161.16 106.432 1154.06 Q106.432 1146.93 104.603 1143.39 Q102.797 1139.82 99.1632 1139.82 M99.1632 1136.12 Q104.973 1136.12 108.029 1140.72 Q111.108 1145.31 111.108 1154.06 Q111.108 1162.78 108.029 1167.39 Q104.973 1171.97 99.1632 1171.97 Q93.353 1171.97 90.2743 1167.39 Q87.2188 1162.78 87.2188 1154.06 Q87.2188 1145.31 90.2743 1140.72 Q93.353 1136.12 99.1632 1136.12 Z" fill="#000000" fill-rule="nonzero" fill-opacity="1" /><path clip-path="url(#clip340)" d="M119.325 1165.42 L124.209 1165.42 L124.209 1171.3 L119.325 1171.3 L119.325 1165.42 Z" fill="#000000" fill-rule="nonzero" fill-opacity="1" /><path clip-path="url(#clip340)" d="M144.394 1139.82 Q140.783 1139.82 138.955 1143.39 Q137.149 1146.93 137.149 1154.06 Q137.149 1161.16 138.955 1164.73 Q140.783 1168.27 144.394 1168.27 Q148.029 1168.27 149.834 1164.73 Q151.663 1161.16 151.663 1154.06 Q151.663 1146.93 149.834 1143.39 Q148.029 1139.82 144.394 1139.82 M144.394 1136.12 Q150.205 1136.12 153.26 1140.72 Q156.339 1145.31 156.339 1154.06 Q156.339 1162.78 153.26 1167.39 Q150.205 1171.97 144.394 1171.97 Q138.584 1171.97 135.506 1167.39 Q132.45 1162.78 132.45 1154.06 Q132.45 1145.31 135.506 1140.72 Q138.584 1136.12 144.394 1136.12 Z" fill="#000000" fill-rule="nonzero" fill-opacity="1" /><path clip-path="url(#clip340)" d="M100.76 973.031 Q97.1493 973.031 95.3206 976.596 Q93.515 980.138 93.515 987.267 Q93.515 994.374 95.3206 997.939 Q97.1493 1001.48 100.76 1001.48 Q104.395 1001.48 106.2 997.939 Q108.029 994.374 108.029 987.267 Q108.029 980.138 106.2 976.596 Q104.395 973.031 100.76 973.031 M100.76 969.328 Q106.571 969.328 109.626 973.934 Q112.705 978.517 112.705 987.267 Q112.705 995.994 109.626 1000.6 Q106.571 1005.18 100.76 1005.18 Q94.9502 1005.18 91.8715 1000.6 Q88.816 995.994 88.816 987.267 Q88.816 978.517 91.8715 973.934 Q94.9502 969.328 100.76 969.328 Z" fill="#000000" fill-rule="nonzero" fill-opacity="1" /><path clip-path="url(#clip340)" d="M120.922 998.633 L125.807 998.633 L125.807 1004.51 L120.922 1004.51 L120.922 998.633 Z" fill="#000000" fill-rule="nonzero" fill-opacity="1" /><path clip-path="url(#clip340)" d="M140.019 1000.58 L156.339 1000.58 L156.339 1004.51 L134.394 1004.51 L134.394 1000.58 Q137.056 997.823 141.64 993.193 Q146.246 988.541 147.427 987.198 Q149.672 984.675 150.552 982.939 Q151.455 981.179 151.455 979.49 Q151.455 976.735 149.51 974.999 Q147.589 973.263 144.487 973.263 Q142.288 973.263 139.834 974.027 Q137.404 974.791 134.626 976.342 L134.626 971.619 Q137.45 970.485 139.904 969.906 Q142.357 969.328 144.394 969.328 Q149.765 969.328 152.959 972.013 Q156.154 974.698 156.154 979.189 Q156.154 981.318 155.343 983.24 Q154.556 985.138 152.45 987.73 Q151.871 988.402 148.769 991.619 Q145.668 994.814 140.019 1000.58 Z" fill="#000000" fill-rule="nonzero" fill-opacity="1" /><path clip-path="url(#clip340)" d="M98.6771 806.242 Q95.066 806.242 93.2373 809.807 Q91.4317 813.349 91.4317 820.478 Q91.4317 827.585 93.2373 831.149 Q95.066 834.691 98.6771 834.691 Q102.311 834.691 104.117 831.149 Q105.946 827.585 105.946 820.478 Q105.946 813.349 104.117 809.807 Q102.311 806.242 98.6771 806.242 M98.6771 802.538 Q104.487 802.538 107.543 807.145 Q110.621 811.728 110.621 820.478 Q110.621 829.205 107.543 833.811 Q104.487 838.395 98.6771 838.395 Q92.8669 838.395 89.7882 833.811 Q86.7327 829.205 86.7327 820.478 Q86.7327 811.728 89.7882 807.145 Q92.8669 802.538 98.6771 802.538 Z" fill="#000000" fill-rule="nonzero" fill-opacity="1" /><path clip-path="url(#clip340)" d="M118.839 831.844 L123.723 831.844 L123.723 837.723 L118.839 837.723 L118.839 831.844 Z" fill="#000000" fill-rule="nonzero" fill-opacity="1" /><path clip-path="url(#clip340)" d="M146.756 807.238 L134.95 825.686 L146.756 825.686 L146.756 807.238 M145.529 803.163 L151.408 803.163 L151.408 825.686 L156.339 825.686 L156.339 829.575 L151.408 829.575 L151.408 837.723 L146.756 837.723 L146.756 829.575 L131.154 829.575 L131.154 825.061 L145.529 803.163 Z" fill="#000000" fill-rule="nonzero" fill-opacity="1" /><path clip-path="url(#clip340)" d="M99.0011 639.453 Q95.39 639.453 93.5613 643.018 Q91.7558 646.559 91.7558 653.689 Q91.7558 660.795 93.5613 664.36 Q95.39 667.902 99.0011 667.902 Q102.635 667.902 104.441 664.36 Q106.27 660.795 106.27 653.689 Q106.27 646.559 104.441 643.018 Q102.635 639.453 99.0011 639.453 M99.0011 635.749 Q104.811 635.749 107.867 640.356 Q110.946 644.939 110.946 653.689 Q110.946 662.416 107.867 667.022 Q104.811 671.606 99.0011 671.606 Q93.191 671.606 90.1123 667.022 Q87.0567 662.416 87.0567 653.689 Q87.0567 644.939 90.1123 640.356 Q93.191 635.749 99.0011 635.749 Z" fill="#000000" fill-rule="nonzero" fill-opacity="1" /><path clip-path="url(#clip340)" d="M119.163 665.055 L124.047 665.055 L124.047 670.934 L119.163 670.934 L119.163 665.055 Z" fill="#000000" fill-rule="nonzero" fill-opacity="1" /><path clip-path="url(#clip340)" d="M144.811 651.791 Q141.663 651.791 139.811 653.944 Q137.982 656.096 137.982 659.846 Q137.982 663.573 139.811 665.749 Q141.663 667.902 144.811 667.902 Q147.959 667.902 149.788 665.749 Q151.64 663.573 151.64 659.846 Q151.64 656.096 149.788 653.944 Q147.959 651.791 144.811 651.791 M154.093 637.138 L154.093 641.397 Q152.334 640.564 150.529 640.124 Q148.746 639.684 146.987 639.684 Q142.357 639.684 139.904 642.809 Q137.473 645.934 137.126 652.254 Q138.492 650.24 140.552 649.175 Q142.612 648.087 145.089 648.087 Q150.297 648.087 153.306 651.258 Q156.339 654.407 156.339 659.846 Q156.339 665.17 153.191 668.388 Q150.043 671.606 144.811 671.606 Q138.816 671.606 135.644 667.022 Q132.473 662.416 132.473 653.689 Q132.473 645.495 136.362 640.634 Q140.251 635.749 146.802 635.749 Q148.561 635.749 150.343 636.096 Q152.149 636.444 154.093 637.138 Z" fill="#000000" fill-rule="nonzero" fill-opacity="1" /><path clip-path="url(#clip340)" d="M99.2558 472.664 Q95.6447 472.664 93.816 476.229 Q92.0104 479.77 92.0104 486.9 Q92.0104 494.006 93.816 497.571 Q95.6447 501.113 99.2558 501.113 Q102.89 501.113 104.696 497.571 Q106.524 494.006 106.524 486.9 Q106.524 479.77 104.696 476.229 Q102.89 472.664 99.2558 472.664 M99.2558 468.96 Q105.066 468.96 108.121 473.567 Q111.2 478.15 111.2 486.9 Q111.2 495.627 108.121 500.233 Q105.066 504.816 99.2558 504.816 Q93.4456 504.816 90.3669 500.233 Q87.3114 495.627 87.3114 486.9 Q87.3114 478.15 90.3669 473.567 Q93.4456 468.96 99.2558 468.96 Z" fill="#000000" fill-rule="nonzero" fill-opacity="1" /><path clip-path="url(#clip340)" d="M119.418 498.265 L124.302 498.265 L124.302 504.145 L119.418 504.145 L119.418 498.265 Z" fill="#000000" fill-rule="nonzero" fill-opacity="1" /><path clip-path="url(#clip340)" d="M144.487 487.733 Q141.154 487.733 139.232 489.516 Q137.334 491.298 137.334 494.423 Q137.334 497.548 139.232 499.33 Q141.154 501.113 144.487 501.113 Q147.82 501.113 149.742 499.33 Q151.663 497.525 151.663 494.423 Q151.663 491.298 149.742 489.516 Q147.843 487.733 144.487 487.733 M139.811 485.742 Q136.802 485.002 135.112 482.941 Q133.445 480.881 133.445 477.918 Q133.445 473.775 136.385 471.367 Q139.348 468.96 144.487 468.96 Q149.649 468.96 152.589 471.367 Q155.529 473.775 155.529 477.918 Q155.529 480.881 153.839 482.941 Q152.172 485.002 149.186 485.742 Q152.566 486.529 154.441 488.821 Q156.339 491.113 156.339 494.423 Q156.339 499.446 153.26 502.131 Q150.205 504.816 144.487 504.816 Q138.769 504.816 135.691 502.131 Q132.635 499.446 132.635 494.423 Q132.635 491.113 134.533 488.821 Q136.431 486.529 139.811 485.742 M138.098 478.358 Q138.098 481.043 139.765 482.548 Q141.455 484.053 144.487 484.053 Q147.496 484.053 149.186 482.548 Q150.899 481.043 150.899 478.358 Q150.899 475.673 149.186 474.168 Q147.496 472.664 144.487 472.664 Q141.455 472.664 139.765 474.168 Q138.098 475.673 138.098 478.358 Z" fill="#000000" fill-rule="nonzero" fill-opacity="1" /><path clip-path="url(#clip340)" d="M89.9734 333.421 L97.6122 333.421 L97.6122 307.055 L89.3021 308.722 L89.3021 304.463 L97.566 302.796 L102.242 302.796 L102.242 333.421 L109.881 333.421 L109.881 337.356 L89.9734 337.356 L89.9734 333.421 Z" fill="#000000" fill-rule="nonzero" fill-opacity="1" /><path clip-path="url(#clip340)" d="M119.325 331.476 L124.209 331.476 L124.209 337.356 L119.325 337.356 L119.325 331.476 Z" fill="#000000" fill-rule="nonzero" fill-opacity="1" /><path clip-path="url(#clip340)" d="M144.394 305.875 Q140.783 305.875 138.955 309.439 Q137.149 312.981 137.149 320.111 Q137.149 327.217 138.955 330.782 Q140.783 334.323 144.394 334.323 Q148.029 334.323 149.834 330.782 Q151.663 327.217 151.663 320.111 Q151.663 312.981 149.834 309.439 Q148.029 305.875 144.394 305.875 M144.394 302.171 Q150.205 302.171 153.26 306.777 Q156.339 311.361 156.339 320.111 Q156.339 328.837 153.26 333.444 Q150.205 338.027 144.394 338.027 Q138.584 338.027 135.506 333.444 Q132.45 328.837 132.45 320.111 Q132.45 311.361 135.506 306.777 Q138.584 302.171 144.394 302.171 Z" fill="#000000" fill-rule="nonzero" fill-opacity="1" /><path clip-path="url(#clip340)" d="M91.5706 166.632 L99.2095 166.632 L99.2095 140.266 L90.8993 141.933 L90.8993 137.673 L99.1632 136.007 L103.839 136.007 L103.839 166.632 L111.478 166.632 L111.478 170.567 L91.5706 170.567 L91.5706 166.632 Z" fill="#000000" fill-rule="nonzero" fill-opacity="1" /><path clip-path="url(#clip340)" d="M120.922 164.687 L125.807 164.687 L125.807 170.567 L120.922 170.567 L120.922 164.687 Z" fill="#000000" fill-rule="nonzero" fill-opacity="1" /><path clip-path="url(#clip340)" d="M140.019 166.632 L156.339 166.632 L156.339 170.567 L134.394 170.567 L134.394 166.632 Q137.056 163.877 141.64 159.247 Q146.246 154.595 147.427 153.252 Q149.672 150.729 150.552 148.993 Q151.455 147.233 151.455 145.544 Q151.455 142.789 149.51 141.053 Q147.589 139.317 144.487 139.317 Q142.288 139.317 139.834 140.081 Q137.404 140.845 134.626 142.396 L134.626 137.673 Q137.45 136.539 139.904 135.96 Q142.357 135.382 144.394 135.382 Q149.765 135.382 152.959 138.067 Q156.154 140.752 156.154 145.243 Q156.154 147.372 155.343 149.294 Q154.556 151.192 152.45 153.784 Q151.871 154.456 148.769 157.673 Q145.668 160.868 140.019 166.632 Z" fill="#000000" fill-rule="nonzero" fill-opacity="1" /><polyline clip-path="url(#clip342)" style="stroke:#009af9; stroke-linecap:round; stroke-linejoin:round; stroke-width:16; stroke-opacity:1; fill:none" stroke-dasharray="8, 16" points="253.483,1029.48 263.725,1035.7 273.966,1028.87 284.208,1009.72 294.45,984.935 304.692,969.961 314.934,977.531 325.176,1001.84 335.418,1029.57 345.659,1055.24 355.901,1080.11 366.143,1106.55 376.385,1135.04 386.627,1164.54 396.869,1194.04 407.111,1222.8 417.352,1249.8 427.594,1273.7 437.836,1293.22 448.078,1307.5 458.32,1316.2 468.562,1319.44 478.803,1317.67 489.045,1311.45 499.287,1301.22 509.529,1287.04 519.771,1268.4 530.013,1244.34 540.255,1214.11 550.497,1178.61 560.738,1141.78 570.98,1110.16 581.222,1088.88 591.464,1076.86 601.706,1066.46 611.948,1048.27 622.19,1017.59 632.431,980.84 642.673,956.46 652.915,958.463 663.157,980.474 673.399,1008.08 683.641,1033.07 693.882,1052.85 704.124,1067.43 714.366,1080.67 724.608,1100.86 734.85,1133.32 745.092,1171.82 755.334,1204.43 765.575,1227.5 775.817,1250.91 786.059,1276.51 796.301,1296.05 806.543,1308.2 816.785,1315.34 827.027,1318.83 837.268,1318.27 847.51,1312.38 857.752,1300.05 867.994,1281.38 878.236,1258.25 888.478,1233.38 898.72,1207.41 908.961,1178.21 919.203,1144.97 929.445,1110.82 939.687,1079.56 949.929,1053.38 960.171,1035.18 970.413,1026.13 980.654,1020.02 990.896,1008.74 1001.14,989.241 1011.38,956.536 1021.62,941.617 1031.86,969.93 1042.11,1012.16 1052.35,1065.35 1062.59,1087.19 1072.83,1074.26 1083.07,1108.12 1093.31,1211.77 1103.56,1308.94 1113.8,1335.94 1124.04,1269.32 1134.28,1133.82 1144.52,999.222 1154.77,1068.34 1165.01,1250.21 1175.25,1406.94 1185.49,1445.72 1195.73,1383.46 1205.98,1312.47 1216.22,1303.45 1226.46,1306.82 1236.7,1293.3 1246.94,1253.44 1257.18,1141.46 1267.43,873.001 1277.67,544.115 1287.91,364.537 1298.15,289.8 1308.39,250.827 1318.64,257.559 1328.88,310.739 1339.12,345.128 1349.36,336.879 1359.6,307.458 1369.84,293.501 1380.09,309.823 1390.33,318.936 1400.57,311.484 1410.81,308.357 1421.05,323.066 1431.3,371.941 1441.54,396.213 1451.78,378.874 1462.02,359.237 1472.26,356.488 1482.51,337.871 1492.75,301.002 1502.99,267.03 1513.23,257.202 1523.47,294.954 1533.71,335.51 1543.96,332.39 1554.2,328.095 1564.44,346.671 1574.68,367.172 1584.92,374.922 1595.17,361.825 1605.41,323.192 1615.65,269.834 1625.89,235.022 1636.13,238.848 1646.38,271.343 1656.62,316.342 1666.86,362.024 1677.1,398.978 1687.34,417.363 1697.58,408.626 1707.83,371.597 1718.07,315.6 1728.31,256.48 1738.55,210.839 1748.79,200.56 1759.04,237.886 1769.28,296.909 1779.52,354.953 1789.76,402.567 1800,433.569 1810.24,441.187 1820.49,417.609 1830.73,360.277 1840.97,283.371 1851.21,213.431 1861.45,171.749 1871.7,173.652 1881.94,228.644 1892.18,318.576 1902.42,403.04 1912.66,455.068 1922.91,468.461 1933.15,446.747 1943.39,396.58 1953.63,326.677 1963.87,249.318 1974.11,182.339 1984.36,147.883 1994.6,162.293 2004.84,222.647 2015.08,309.726 2025.32,402.607 2035.57,476.159 2045.81,494.512 2056.05,451.441 2066.29,373.309 2076.53,278.51 2086.77,183.328 2097.02,115.401 2107.26,105.035 2117.5,161.249 2127.74,263.755 2137.98,378.911 2148.23,474.74 2158.47,527.564 2168.71,525.199 2178.95,464.528 2189.19,350.865 2199.44,214.686 2209.68,140.131 2219.92,150.255 2230.16,193.707 2240.4,249.271 2250.64,310.047 2260.89,370.901 2271.13,428.008 2281.37,479.363 2291.61,524.418 "/>
<polyline clip-path="url(#clip342)" style="stroke:#e26f46; stroke-linecap:round; stroke-linejoin:round; stroke-width:4; stroke-opacity:1; fill:none" points="253.483,1028.77 263.725,1010.99 273.966,997.891 284.208,989.884 294.45,987.233 304.692,990.026 314.934,998.172 325.176,1011.4 335.418,1029.29 345.659,1051.25 355.901,1076.56 366.143,1104.4 376.385,1133.86 386.627,1163.98 396.869,1193.77 407.111,1222.27 417.352,1248.53 427.594,1271.72 437.836,1291.06 448.078,1305.93 458.32,1315.84 468.562,1320.47 478.803,1319.67 489.045,1313.46 499.287,1302.05 509.529,1285.81 519.771,1265.26 530.013,1241.09 540.255,1214.07 550.497,1185.1 560.738,1155.1 570.98,1125.08 581.222,1096 591.464,1068.81 601.706,1044.4 611.948,1023.58 622.19,1007 632.431,995.232 642.673,988.641 652.915,987.448 663.157,991.692 673.399,1001.23 683.641,1015.76 693.882,1034.8 704.124,1057.73 714.366,1083.81 724.608,1112.17 734.85,1141.91 745.092,1172.03 755.334,1201.57 765.575,1229.56 775.817,1255.08 786.059,1277.3 796.301,1295.5 806.543,1309.09 816.785,1317.61 827.027,1320.79 837.268,1318.53 847.51,1310.9 857.752,1298.15 867.994,1280.7 878.236,1259.11 888.478,1234.09 898.72,1206.46 908.961,1177.12 919.203,1147.02 929.445,1117.15 939.687,1088.49 949.929,1061.96 960.171,1038.44 970.413,1018.69 980.654,1003.36 990.896,992.946 1001.14,987.787 1011.38,988.055 1021.62,993.739 1031.86,1004.65 1042.11,1020.44 1052.35,1040.59 1062.59,1064.45 1072.83,1091.22 1083.07,1120.05 1093.31,1149.98 1103.56,1180.05 1113.8,1209.26 1124.04,1236.68 1134.28,1261.39 1144.52,1282.6 1154.77,1299.62 1165.01,1311.88 1175.25,1318.99 1185.49,1320.72 1195.73,1317.01 1205.98,1307.97 1216.22,1293.92 1226.46,1275.29 1236.7,1252.71 1246.94,1226.91 1257.18,1198.73 1267.43,1169.09 1277.67,318.865 1287.91,317.487 1298.15,318.741 1308.39,322.917 1318.64,328.734 1328.88,333.736 1339.12,335.217 1349.36,331.369 1359.6,322.195 1369.84,309.828 1380.09,298.06 1390.33,291.186 1400.57,292.504 1410.81,302.994 1421.05,320.636 1431.3,340.715 1441.54,357.065 1451.78,363.962 1462.02,358.058 1472.26,339.74 1482.51,313.391 1492.75,286.388 1502.99,267.035 1513.23,262.022 1523.47,274.175 1533.71,301.252 1543.96,336.221 1554.2,369.07 1564.44,389.672 1574.68,390.892 1584.92,370.989 1595.17,334.511 1605.41,291.332 1615.65,253.982 1625.89,234.016 1636.13,238.455 1646.38,267.402 1656.62,313.613 1666.86,364.273 1677.1,404.542 1687.34,421.903 1697.58,410.031 1707.83,370.991 1718.07,315.036 1728.31,257.935 1738.55,216.532 1748.79,203.781 1759.04,224.719 1769.28,274.624 1779.52,340.001 1789.76,402.216 1800,442.806 1810.24,448.954 1820.49,417.503 1830.73,356.263 1840.97,282.118 1851.21,216.382 1861.45,178.67 1871.7,181.054 1881.94,224.239 1892.18,296.959 1902.42,378.89 1912.66,446.321 1922.91,479.018 1933.15,466.285 1943.39,410.412 1953.63,326.406 1963.87,237.985 1974.11,170.883 1984.36,145.358 1994.6,170.093 2004.84,239.316 2015.08,334.067 2025.32,427.387 2035.57,491.983 2045.81,508.208 2056.05,470.02 2066.29,387.115 2076.53,282.505 2086.77,186.143 2097.02,126.342 2107.26,121.464 2117.5,174.303 2127.74,270.881 2137.98,384.122 2148.23,481.434 2158.47,534.091 2168.71,525.707 2178.95,457.306 2189.19,347.423 2199.44,227.103 2209.68,131.131 2219.92,87.9763 2230.16,111.355 2240.4,195.911 2250.64,318.363 2260.89,443.905 2271.13,536.095 2281.37,567.433 2291.61,527.556 "/>
<path clip-path="url(#clip340)" d="M264.353 250.738 L707.222 250.738 L707.222 95.2176 L264.353 95.2176  Z" fill="#ffffff" fill-rule="evenodd" fill-opacity="1"/>
<polyline clip-path="url(#clip340)" style="stroke:#000000; stroke-linecap:round; stroke-linejoin:round; stroke-width:4; stroke-opacity:1; fill:none" points="264.353,250.738 707.222,250.738 707.222,95.2176 264.353,95.2176 264.353,250.738 "/>
<polyline clip-path="url(#clip340)" style="stroke:#009af9; stroke-linecap:round; stroke-linejoin:round; stroke-width:16; stroke-opacity:1; fill:none" stroke-dasharray="8, 16" points="288.357,147.058 432.385,147.058 "/>
<path clip-path="url(#clip340)" d="M461.066 133.62 L461.066 146.606 L466.945 146.606 Q470.209 146.606 471.992 144.916 Q473.774 143.227 473.774 140.102 Q473.774 137 471.992 135.31 Q470.209 133.62 466.945 133.62 L461.066 133.62 M456.39 129.778 L466.945 129.778 Q472.755 129.778 475.718 132.416 Q478.704 135.032 478.704 140.102 Q478.704 145.217 475.718 147.833 Q472.755 150.449 466.945 150.449 L461.066 150.449 L461.066 164.338 L456.39 164.338 L456.39 129.778 Z" fill="#000000" fill-rule="nonzero" fill-opacity="1" /><path clip-path="url(#clip340)" d="M498.982 142.393 Q498.265 141.977 497.408 141.791 Q496.575 141.583 495.556 141.583 Q491.945 141.583 490.001 143.944 Q488.079 146.282 488.079 150.68 L488.079 164.338 L483.797 164.338 L483.797 138.412 L488.079 138.412 L488.079 142.44 Q489.422 140.078 491.575 138.944 Q493.728 137.787 496.806 137.787 Q497.246 137.787 497.778 137.856 Q498.311 137.903 498.959 138.018 L498.982 142.393 Z" fill="#000000" fill-rule="nonzero" fill-opacity="1" /><path clip-path="url(#clip340)" d="M524.584 150.31 L524.584 152.393 L505.001 152.393 Q505.278 156.791 507.639 159.106 Q510.024 161.398 514.26 161.398 Q516.714 161.398 519.005 160.796 Q521.32 160.194 523.588 158.99 L523.588 163.018 Q521.297 163.99 518.889 164.5 Q516.482 165.009 514.005 165.009 Q507.802 165.009 504.167 161.398 Q500.556 157.787 500.556 151.629 Q500.556 145.264 503.982 141.537 Q507.431 137.787 513.264 137.787 Q518.496 137.787 521.528 141.166 Q524.584 144.523 524.584 150.31 M520.325 149.06 Q520.278 145.565 518.357 143.481 Q516.459 141.398 513.311 141.398 Q509.746 141.398 507.593 143.412 Q505.464 145.426 505.14 149.083 L520.325 149.06 Z" fill="#000000" fill-rule="nonzero" fill-opacity="1" /><path clip-path="url(#clip340)" d="M548.635 142.347 L548.635 128.319 L552.894 128.319 L552.894 164.338 L548.635 164.338 L548.635 160.449 Q547.292 162.763 545.232 163.898 Q543.195 165.009 540.325 165.009 Q535.625 165.009 532.663 161.259 Q529.723 157.509 529.723 151.398 Q529.723 145.287 532.663 141.537 Q535.625 137.787 540.325 137.787 Q543.195 137.787 545.232 138.921 Q547.292 140.032 548.635 142.347 M534.121 151.398 Q534.121 156.097 536.042 158.782 Q537.987 161.444 541.366 161.444 Q544.746 161.444 546.69 158.782 Q548.635 156.097 548.635 151.398 Q548.635 146.699 546.69 144.037 Q544.746 141.352 541.366 141.352 Q537.987 141.352 536.042 144.037 Q534.121 146.699 534.121 151.398 Z" fill="#000000" fill-rule="nonzero" fill-opacity="1" /><path clip-path="url(#clip340)" d="M561.667 138.412 L565.926 138.412 L565.926 164.338 L561.667 164.338 L561.667 138.412 M561.667 128.319 L565.926 128.319 L565.926 133.713 L561.667 133.713 L561.667 128.319 Z" fill="#000000" fill-rule="nonzero" fill-opacity="1" /><path clip-path="url(#clip340)" d="M593.496 139.407 L593.496 143.389 Q591.69 142.393 589.861 141.907 Q588.056 141.398 586.204 141.398 Q582.06 141.398 579.769 144.037 Q577.477 146.652 577.477 151.398 Q577.477 156.143 579.769 158.782 Q582.06 161.398 586.204 161.398 Q588.056 161.398 589.861 160.912 Q591.69 160.402 593.496 159.407 L593.496 163.342 Q591.713 164.176 589.792 164.592 Q587.894 165.009 585.741 165.009 Q579.884 165.009 576.435 161.328 Q572.986 157.648 572.986 151.398 Q572.986 145.055 576.459 141.421 Q579.954 137.787 586.019 137.787 Q587.986 137.787 589.861 138.203 Q591.736 138.597 593.496 139.407 Z" fill="#000000" fill-rule="nonzero" fill-opacity="1" /><path clip-path="url(#clip340)" d="M605.116 131.051 L605.116 138.412 L613.889 138.412 L613.889 141.722 L605.116 141.722 L605.116 155.796 Q605.116 158.967 605.972 159.87 Q606.852 160.773 609.514 160.773 L613.889 160.773 L613.889 164.338 L609.514 164.338 Q604.583 164.338 602.708 162.509 Q600.833 160.657 600.833 155.796 L600.833 141.722 L597.708 141.722 L597.708 138.412 L600.833 138.412 L600.833 131.051 L605.116 131.051 Z" fill="#000000" fill-rule="nonzero" fill-opacity="1" /><path clip-path="url(#clip340)" d="M619.491 138.412 L623.75 138.412 L623.75 164.338 L619.491 164.338 L619.491 138.412 M619.491 128.319 L623.75 128.319 L623.75 133.713 L619.491 133.713 L619.491 128.319 Z" fill="#000000" fill-rule="nonzero" fill-opacity="1" /><path clip-path="url(#clip340)" d="M642.708 141.398 Q639.282 141.398 637.292 144.083 Q635.301 146.745 635.301 151.398 Q635.301 156.051 637.268 158.736 Q639.259 161.398 642.708 161.398 Q646.111 161.398 648.102 158.713 Q650.092 156.027 650.092 151.398 Q650.092 146.791 648.102 144.106 Q646.111 141.398 642.708 141.398 M642.708 137.787 Q648.264 137.787 651.435 141.398 Q654.606 145.009 654.606 151.398 Q654.606 157.764 651.435 161.398 Q648.264 165.009 642.708 165.009 Q637.13 165.009 633.958 161.398 Q630.81 157.764 630.81 151.398 Q630.81 145.009 633.958 141.398 Q637.13 137.787 642.708 137.787 Z" fill="#000000" fill-rule="nonzero" fill-opacity="1" /><path clip-path="url(#clip340)" d="M683.217 148.689 L683.217 164.338 L678.958 164.338 L678.958 148.828 Q678.958 145.148 677.523 143.319 Q676.088 141.49 673.217 141.49 Q669.768 141.49 667.778 143.69 Q665.787 145.889 665.787 149.685 L665.787 164.338 L661.504 164.338 L661.504 138.412 L665.787 138.412 L665.787 142.44 Q667.315 140.102 669.375 138.944 Q671.458 137.787 674.166 137.787 Q678.634 137.787 680.926 140.565 Q683.217 143.319 683.217 148.689 Z" fill="#000000" fill-rule="nonzero" fill-opacity="1" /><polyline clip-path="url(#clip340)" style="stroke:#e26f46; stroke-linecap:round; stroke-linejoin:round; stroke-width:4; stroke-opacity:1; fill:none" points="288.357,198.898 432.385,198.898 "/>
<path clip-path="url(#clip340)" d="M456.39 181.618 L478.242 181.618 L478.242 185.553 L461.066 185.553 L461.066 195.784 L477.524 195.784 L477.524 199.719 L461.066 199.719 L461.066 212.242 L478.658 212.242 L478.658 216.178 L456.39 216.178 L456.39 181.618 Z" fill="#000000" fill-rule="nonzero" fill-opacity="1" /><path clip-path="url(#clip340)" d="M507.709 190.252 L498.334 202.867 L508.195 216.178 L503.172 216.178 L495.626 205.992 L488.079 216.178 L483.056 216.178 L493.126 202.613 L483.913 190.252 L488.936 190.252 L495.811 199.488 L502.686 190.252 L507.709 190.252 Z" fill="#000000" fill-rule="nonzero" fill-opacity="1" /><path clip-path="url(#clip340)" d="M525.996 203.145 Q520.834 203.145 518.843 204.326 Q516.852 205.506 516.852 208.354 Q516.852 210.622 518.334 211.965 Q519.838 213.284 522.408 213.284 Q525.95 213.284 528.079 210.784 Q530.232 208.261 530.232 204.094 L530.232 203.145 L525.996 203.145 M534.491 201.386 L534.491 216.178 L530.232 216.178 L530.232 212.242 Q528.774 214.603 526.598 215.738 Q524.422 216.849 521.274 216.849 Q517.292 216.849 514.931 214.627 Q512.593 212.381 512.593 208.631 Q512.593 204.256 515.51 202.034 Q518.45 199.812 524.26 199.812 L530.232 199.812 L530.232 199.395 Q530.232 196.455 528.288 194.858 Q526.366 193.238 522.871 193.238 Q520.649 193.238 518.542 193.77 Q516.436 194.303 514.491 195.367 L514.491 191.432 Q516.829 190.53 519.028 190.09 Q521.227 189.627 523.311 189.627 Q528.936 189.627 531.713 192.543 Q534.491 195.46 534.491 201.386 Z" fill="#000000" fill-rule="nonzero" fill-opacity="1" /><path clip-path="url(#clip340)" d="M561.922 191.247 L561.922 195.229 Q560.116 194.233 558.287 193.747 Q556.482 193.238 554.63 193.238 Q550.486 193.238 548.195 195.877 Q545.903 198.492 545.903 203.238 Q545.903 207.983 548.195 210.622 Q550.486 213.238 554.63 213.238 Q556.482 213.238 558.287 212.752 Q560.116 212.242 561.922 211.247 L561.922 215.182 Q560.139 216.016 558.218 216.432 Q556.32 216.849 554.167 216.849 Q548.311 216.849 544.862 213.168 Q541.412 209.488 541.412 203.238 Q541.412 196.895 544.885 193.261 Q548.38 189.627 554.445 189.627 Q556.412 189.627 558.287 190.043 Q560.162 190.437 561.922 191.247 Z" fill="#000000" fill-rule="nonzero" fill-opacity="1" /><path clip-path="url(#clip340)" d="M573.542 182.891 L573.542 190.252 L582.315 190.252 L582.315 193.562 L573.542 193.562 L573.542 207.636 Q573.542 210.807 574.398 211.71 Q575.278 212.613 577.94 212.613 L582.315 212.613 L582.315 216.178 L577.94 216.178 Q573.01 216.178 571.135 214.349 Q569.26 212.497 569.26 207.636 L569.26 193.562 L566.135 193.562 L566.135 190.252 L569.26 190.252 L569.26 182.891 L573.542 182.891 Z" fill="#000000" fill-rule="nonzero" fill-opacity="1" /></svg>
