<?xml version="1.0" encoding="utf-8"?>
<svg xmlns="http://www.w3.org/2000/svg" xmlns:xlink="http://www.w3.org/1999/xlink" width="600" height="400" viewBox="0 0 2400 1600">
<defs>
  <clipPath id="clip220">
    <rect x="0" y="0" width="2400" height="1600"/>
  </clipPath>
</defs>
<path clip-path="url(#clip220)" d="M0 1600 L2400 1600 L2400 0 L0 0  Z" fill="#ffffff" fill-rule="evenodd" fill-opacity="1"/>
<defs>
  <clipPath id="clip221">
    <rect x="480" y="0" width="1681" height="1600"/>
  </clipPath>
</defs>
<path clip-path="url(#clip220)" d="M223.103 1486.45 L2352.76 1486.45 L2352.76 47.2441 L223.103 47.2441  Z" fill="#ffffff" fill-rule="evenodd" fill-opacity="1"/>
<defs>
  <clipPath id="clip222">
    <rect x="223" y="47" width="2131" height="1440"/>
  </clipPath>
</defs>
<polyline clip-path="url(#clip222)" style="stroke:#000000; stroke-linecap:round; stroke-linejoin:round; stroke-width:2; stroke-opacity:0.1; fill:none" points="283.376,1486.45 283.376,47.2441 "/>
<polyline clip-path="url(#clip222)" style="stroke:#000000; stroke-linecap:round; stroke-linejoin:round; stroke-width:2; stroke-opacity:0.1; fill:none" points="785.652,1486.45 785.652,47.2441 "/>
<polyline clip-path="url(#clip222)" style="stroke:#000000; stroke-linecap:round; stroke-linejoin:round; stroke-width:2; stroke-opacity:0.1; fill:none" points="1287.93,1486.45 1287.93,47.2441 "/>
<polyline clip-path="url(#clip222)" style="stroke:#000000; stroke-linecap:round; stroke-linejoin:round; stroke-width:2; stroke-opacity:0.1; fill:none" points="1790.21,1486.45 1790.21,47.2441 "/>
<polyline clip-path="url(#clip222)" style="stroke:#000000; stroke-linecap:round; stroke-linejoin:round; stroke-width:2; stroke-opacity:0.1; fill:none" points="2292.48,1486.45 2292.48,47.2441 "/>
<polyline clip-path="url(#clip220)" style="stroke:#000000; stroke-linecap:round; stroke-linejoin:round; stroke-width:4; stroke-opacity:1; fill:none" points="223.103,1486.45 2352.76,1486.45 "/>
<polyline clip-path="url(#clip220)" style="stroke:#000000; stroke-linecap:round; stroke-linejoin:round; stroke-width:4; stroke-opacity:1; fill:none" points="283.376,1486.45 283.376,1467.55 "/>
<polyline clip-path="url(#clip220)" style="stroke:#000000; stroke-linecap:round; stroke-linejoin:round; stroke-width:4; stroke-opacity:1; fill:none" points="785.652,1486.45 785.652,1467.55 "/>
<polyline clip-path="url(#clip220)" style="stroke:#000000; stroke-linecap:round; stroke-linejoin:round; stroke-width:4; stroke-opacity:1; fill:none" points="1287.93,1486.45 1287.93,1467.55 "/>
<polyline clip-path="url(#clip220)" style="stroke:#000000; stroke-linecap:round; stroke-linejoin:round; stroke-width:4; stroke-opacity:1; fill:none" points="1790.21,1486.45 1790.21,1467.55 "/>
<polyline clip-path="url(#clip220)" style="stroke:#000000; stroke-linecap:round; stroke-linejoin:round; stroke-width:4; stroke-opacity:1; fill:none" points="2292.48,1486.45 2292.48,1467.55 "/>
<path clip-path="url(#clip220)" d="M229.904 1532.02 L259.58 1532.02 L259.58 1535.95 L229.904 1535.95 L229.904 1532.02 Z" fill="#000000" fill-rule="nonzero" fill-opacity="1" /><path clip-path="url(#clip220)" d="M270.482 1544.91 L278.121 1544.91 L278.121 1518.55 L269.811 1520.21 L269.811 1515.95 L278.075 1514.29 L282.751 1514.29 L282.751 1544.91 L290.39 1544.91 L290.39 1548.85 L270.482 1548.85 L270.482 1544.91 Z" fill="#000000" fill-rule="nonzero" fill-opacity="1" /><path clip-path="url(#clip220)" d="M299.834 1542.97 L304.718 1542.97 L304.718 1548.85 L299.834 1548.85 L299.834 1542.97 Z" fill="#000000" fill-rule="nonzero" fill-opacity="1" /><path clip-path="url(#clip220)" d="M324.903 1517.37 Q321.292 1517.37 319.463 1520.93 Q317.658 1524.47 317.658 1531.6 Q317.658 1538.71 319.463 1542.27 Q321.292 1545.82 324.903 1545.82 Q328.538 1545.82 330.343 1542.27 Q332.172 1538.71 332.172 1531.6 Q332.172 1524.47 330.343 1520.93 Q328.538 1517.37 324.903 1517.37 M324.903 1513.66 Q330.713 1513.66 333.769 1518.27 Q336.848 1522.85 336.848 1531.6 Q336.848 1540.33 333.769 1544.94 Q330.713 1549.52 324.903 1549.52 Q319.093 1549.52 316.014 1544.94 Q312.959 1540.33 312.959 1531.6 Q312.959 1522.85 316.014 1518.27 Q319.093 1513.66 324.903 1513.66 Z" fill="#000000" fill-rule="nonzero" fill-opacity="1" /><path clip-path="url(#clip220)" d="M732.678 1532.02 L762.354 1532.02 L762.354 1535.95 L732.678 1535.95 L732.678 1532.02 Z" fill="#000000" fill-rule="nonzero" fill-opacity="1" /><path clip-path="url(#clip220)" d="M782.446 1517.37 Q778.835 1517.37 777.007 1520.93 Q775.201 1524.47 775.201 1531.6 Q775.201 1538.71 777.007 1542.27 Q778.835 1545.82 782.446 1545.82 Q786.081 1545.82 787.886 1542.27 Q789.715 1538.71 789.715 1531.6 Q789.715 1524.47 787.886 1520.93 Q786.081 1517.37 782.446 1517.37 M782.446 1513.66 Q788.257 1513.66 791.312 1518.27 Q794.391 1522.85 794.391 1531.6 Q794.391 1540.33 791.312 1544.94 Q788.257 1549.52 782.446 1549.52 Q776.636 1549.52 773.558 1544.94 Q770.502 1540.33 770.502 1531.6 Q770.502 1522.85 773.558 1518.27 Q776.636 1513.66 782.446 1513.66 Z" fill="#000000" fill-rule="nonzero" fill-opacity="1" /><path clip-path="url(#clip220)" d="M802.608 1542.97 L807.493 1542.97 L807.493 1548.85 L802.608 1548.85 L802.608 1542.97 Z" fill="#000000" fill-rule="nonzero" fill-opacity="1" /><path clip-path="url(#clip220)" d="M817.724 1514.29 L836.08 1514.29 L836.08 1518.22 L822.006 1518.22 L822.006 1526.7 Q823.025 1526.35 824.043 1526.19 Q825.062 1526 826.08 1526 Q831.867 1526 835.247 1529.17 Q838.627 1532.34 838.627 1537.76 Q838.627 1543.34 835.155 1546.44 Q831.682 1549.52 825.363 1549.52 Q823.187 1549.52 820.918 1549.15 Q818.673 1548.78 816.266 1548.04 L816.266 1543.34 Q818.349 1544.47 820.571 1545.03 Q822.793 1545.58 825.27 1545.58 Q829.275 1545.58 831.613 1543.48 Q833.951 1541.37 833.951 1537.76 Q833.951 1534.15 831.613 1532.04 Q829.275 1529.94 825.27 1529.94 Q823.395 1529.94 821.52 1530.35 Q819.668 1530.77 817.724 1531.65 L817.724 1514.29 Z" fill="#000000" fill-rule="nonzero" fill-opacity="1" /><path clip-path="url(#clip220)" d="M1265.31 1517.37 Q1261.7 1517.37 1259.87 1520.93 Q1258.07 1524.47 1258.07 1531.6 Q1258.07 1538.71 1259.87 1542.27 Q1261.7 1545.82 1265.31 1545.82 Q1268.95 1545.82 1270.75 1542.27 Q1272.58 1538.71 1272.58 1531.6 Q1272.58 1524.47 1270.75 1520.93 Q1268.95 1517.37 1265.31 1517.37 M1265.31 1513.66 Q1271.12 1513.66 1274.18 1518.27 Q1277.26 1522.85 1277.26 1531.6 Q1277.26 1540.33 1274.18 1544.94 Q1271.12 1549.52 1265.31 1549.52 Q1259.5 1549.52 1256.42 1544.94 Q1253.37 1540.33 1253.37 1531.6 Q1253.37 1522.85 1256.42 1518.27 Q1259.5 1513.66 1265.31 1513.66 Z" fill="#000000" fill-rule="nonzero" fill-opacity="1" /><path clip-path="url(#clip220)" d="M1285.48 1542.97 L1290.36 1542.97 L1290.36 1548.85 L1285.48 1548.85 L1285.48 1542.97 Z" fill="#000000" fill-rule="nonzero" fill-opacity="1" /><path clip-path="url(#clip220)" d="M1310.54 1517.37 Q1306.93 1517.37 1305.11 1520.93 Q1303.3 1524.47 1303.3 1531.6 Q1303.3 1538.71 1305.11 1542.27 Q1306.93 1545.82 1310.54 1545.82 Q1314.18 1545.82 1315.98 1542.27 Q1317.81 1538.71 1317.81 1531.6 Q1317.81 1524.47 1315.98 1520.93 Q1314.18 1517.37 1310.54 1517.37 M1310.54 1513.66 Q1316.35 1513.66 1319.41 1518.27 Q1322.49 1522.85 1322.49 1531.6 Q1322.49 1540.33 1319.41 1544.94 Q1316.35 1549.52 1310.54 1549.52 Q1304.73 1549.52 1301.66 1544.94 Q1298.6 1540.33 1298.6 1531.6 Q1298.6 1522.85 1301.66 1518.27 Q1304.73 1513.66 1310.54 1513.66 Z" fill="#000000" fill-rule="nonzero" fill-opacity="1" /><path clip-path="url(#clip220)" d="M1768.09 1517.37 Q1764.48 1517.37 1762.65 1520.93 Q1760.84 1524.47 1760.84 1531.6 Q1760.84 1538.71 1762.65 1542.27 Q1764.48 1545.82 1768.09 1545.82 Q1771.72 1545.82 1773.53 1542.27 Q1775.36 1538.71 1775.36 1531.6 Q1775.36 1524.47 1773.53 1520.93 Q1771.72 1517.37 1768.09 1517.37 M1768.09 1513.66 Q1773.9 1513.66 1776.95 1518.27 Q1780.03 1522.85 1780.03 1531.6 Q1780.03 1540.33 1776.95 1544.94 Q1773.9 1549.52 1768.09 1549.52 Q1762.28 1549.52 1759.2 1544.94 Q1756.14 1540.33 1756.14 1531.6 Q1756.14 1522.85 1759.2 1518.27 Q1762.28 1513.66 1768.09 1513.66 Z" fill="#000000" fill-rule="nonzero" fill-opacity="1" /><path clip-path="url(#clip220)" d="M1788.25 1542.97 L1793.13 1542.97 L1793.13 1548.85 L1788.25 1548.85 L1788.25 1542.97 Z" fill="#000000" fill-rule="nonzero" fill-opacity="1" /><path clip-path="url(#clip220)" d="M1803.37 1514.29 L1821.72 1514.29 L1821.72 1518.22 L1807.65 1518.22 L1807.65 1526.7 Q1808.67 1526.35 1809.69 1526.19 Q1810.7 1526 1811.72 1526 Q1817.51 1526 1820.89 1529.17 Q1824.27 1532.34 1824.27 1537.76 Q1824.27 1543.34 1820.8 1546.44 Q1817.32 1549.52 1811 1549.52 Q1808.83 1549.52 1806.56 1549.15 Q1804.31 1548.78 1801.91 1548.04 L1801.91 1543.34 Q1803.99 1544.47 1806.21 1545.03 Q1808.44 1545.58 1810.91 1545.58 Q1814.92 1545.58 1817.25 1543.48 Q1819.59 1541.37 1819.59 1537.76 Q1819.59 1534.15 1817.25 1532.04 Q1814.92 1529.94 1810.91 1529.94 Q1809.04 1529.94 1807.16 1530.35 Q1805.31 1530.77 1803.37 1531.65 L1803.37 1514.29 Z" fill="#000000" fill-rule="nonzero" fill-opacity="1" /><path clip-path="url(#clip220)" d="M2259.64 1544.91 L2267.27 1544.91 L2267.27 1518.55 L2258.96 1520.21 L2258.96 1515.95 L2267.23 1514.29 L2271.9 1514.29 L2271.9 1544.91 L2279.54 1544.91 L2279.54 1548.85 L2259.64 1548.85 L2259.64 1544.91 Z" fill="#000000" fill-rule="nonzero" fill-opacity="1" /><path clip-path="url(#clip220)" d="M2288.99 1542.97 L2293.87 1542.97 L2293.87 1548.85 L2288.99 1548.85 L2288.99 1542.97 Z" fill="#000000" fill-rule="nonzero" fill-opacity="1" /><path clip-path="url(#clip220)" d="M2314.06 1517.37 Q2310.45 1517.37 2308.62 1520.93 Q2306.81 1524.47 2306.81 1531.6 Q2306.81 1538.71 2308.62 1542.27 Q2310.45 1545.82 2314.06 1545.82 Q2317.69 1545.82 2319.5 1542.27 Q2321.33 1538.71 2321.33 1531.6 Q2321.33 1524.47 2319.5 1520.93 Q2317.69 1517.37 2314.06 1517.37 M2314.06 1513.66 Q2319.87 1513.66 2322.92 1518.27 Q2326 1522.85 2326 1531.6 Q2326 1540.33 2322.92 1544.94 Q2319.87 1549.52 2314.06 1549.52 Q2308.25 1549.52 2305.17 1544.94 Q2302.11 1540.33 2302.11 1531.6 Q2302.11 1522.85 2305.17 1518.27 Q2308.25 1513.66 2314.06 1513.66 Z" fill="#000000" fill-rule="nonzero" fill-opacity="1" /><polyline clip-path="url(#clip222)" style="stroke:#000000; stroke-linecap:round; stroke-linejoin:round; stroke-width:2; stroke-opacity:0.1; fill:none" points="223.103,1360.04 2352.76,1360.04 "/>
<polyline clip-path="url(#clip222)" style="stroke:#000000; stroke-linecap:round; stroke-linejoin:round; stroke-width:2; stroke-opacity:0.1; fill:none" points="223.103,1151.95 2352.76,1151.95 "/>
<polyline clip-path="url(#clip222)" style="stroke:#000000; stroke-linecap:round; stroke-linejoin:round; stroke-width:2; stroke-opacity:0.1; fill:none" points="223.103,943.872 2352.76,943.872 "/>
<polyline clip-path="url(#clip222)" style="stroke:#000000; stroke-linecap:round; stroke-linejoin:round; stroke-width:2; stroke-opacity:0.1; fill:none" points="223.103,735.79 2352.76,735.79 "/>
<polyline clip-path="url(#clip222)" style="stroke:#000000; stroke-linecap:round; stroke-linejoin:round; stroke-width:2; stroke-opacity:0.1; fill:none" points="223.103,527.708 2352.76,527.708 "/>
<polyline clip-path="url(#clip222)" style="stroke:#000000; stroke-linecap:round; stroke-linejoin:round; stroke-width:2; stroke-opacity:0.1; fill:none" points="223.103,319.626 2352.76,319.626 "/>
<polyline clip-path="url(#clip222)" style="stroke:#000000; stroke-linecap:round; stroke-linejoin:round; stroke-width:2; stroke-opacity:0.1; fill:none" points="223.103,111.544 2352.76,111.544 "/>
<polyline clip-path="url(#clip220)" style="stroke:#000000; stroke-linecap:round; stroke-linejoin:round; stroke-width:4; stroke-opacity:1; fill:none" points="223.103,1486.45 223.103,47.2441 "/>
<polyline clip-path="url(#clip220)" style="stroke:#000000; stroke-linecap:round; stroke-linejoin:round; stroke-width:4; stroke-opacity:1; fill:none" points="223.103,1360.04 242,1360.04 "/>
<polyline clip-path="url(#clip220)" style="stroke:#000000; stroke-linecap:round; stroke-linejoin:round; stroke-width:4; stroke-opacity:1; fill:none" points="223.103,1151.95 242,1151.95 "/>
<polyline clip-path="url(#clip220)" style="stroke:#000000; stroke-linecap:round; stroke-linejoin:round; stroke-width:4; stroke-opacity:1; fill:none" points="223.103,943.872 242,943.872 "/>
<polyline clip-path="url(#clip220)" style="stroke:#000000; stroke-linecap:round; stroke-linejoin:round; stroke-width:4; stroke-opacity:1; fill:none" points="223.103,735.79 242,735.79 "/>
<polyline clip-path="url(#clip220)" style="stroke:#000000; stroke-linecap:round; stroke-linejoin:round; stroke-width:4; stroke-opacity:1; fill:none" points="223.103,527.708 242,527.708 "/>
<polyline clip-path="url(#clip220)" style="stroke:#000000; stroke-linecap:round; stroke-linejoin:round; stroke-width:4; stroke-opacity:1; fill:none" points="223.103,319.626 242,319.626 "/>
<polyline clip-path="url(#clip220)" style="stroke:#000000; stroke-linecap:round; stroke-linejoin:round; stroke-width:4; stroke-opacity:1; fill:none" points="223.103,111.544 242,111.544 "/>
<path clip-path="url(#clip220)" d="M50.9921 1360.49 L80.6679 1360.49 L80.6679 1364.42 L50.9921 1364.42 L50.9921 1360.49 Z" fill="#000000" fill-rule="nonzero" fill-opacity="1" /><path clip-path="url(#clip220)" d="M100.76 1345.84 Q97.1493 1345.84 95.3206 1349.4 Q93.515 1352.94 93.515 1360.07 Q93.515 1367.18 95.3206 1370.74 Q97.1493 1374.28 100.76 1374.28 Q104.395 1374.28 106.2 1370.74 Q108.029 1367.18 108.029 1360.07 Q108.029 1352.94 106.2 1349.4 Q104.395 1345.84 100.76 1345.84 M100.76 1342.13 Q106.571 1342.13 109.626 1346.74 Q112.705 1351.32 112.705 1360.07 Q112.705 1368.8 109.626 1373.4 Q106.571 1377.99 100.76 1377.99 Q94.9502 1377.99 91.8715 1373.4 Q88.816 1368.8 88.816 1360.07 Q88.816 1351.32 91.8715 1346.74 Q94.9502 1342.13 100.76 1342.13 Z" fill="#000000" fill-rule="nonzero" fill-opacity="1" /><path clip-path="url(#clip220)" d="M120.922 1371.44 L125.807 1371.44 L125.807 1377.32 L120.922 1377.32 L120.922 1371.44 Z" fill="#000000" fill-rule="nonzero" fill-opacity="1" /><path clip-path="url(#clip220)" d="M140.019 1373.38 L156.339 1373.38 L156.339 1377.32 L134.394 1377.32 L134.394 1373.38 Q137.056 1370.63 141.64 1366 Q146.246 1361.34 147.427 1360 Q149.672 1357.48 150.552 1355.74 Q151.455 1353.98 151.455 1352.29 Q151.455 1349.54 149.51 1347.8 Q147.589 1346.07 144.487 1346.07 Q142.288 1346.07 139.834 1346.83 Q137.404 1347.59 134.626 1349.15 L134.626 1344.42 Q137.45 1343.29 139.904 1342.71 Q142.357 1342.13 144.394 1342.13 Q149.765 1342.13 152.959 1344.82 Q156.154 1347.5 156.154 1351.99 Q156.154 1354.12 155.343 1356.04 Q154.556 1357.94 152.45 1360.53 Q151.871 1361.21 148.769 1364.42 Q145.668 1367.62 140.019 1373.38 Z" fill="#000000" fill-rule="nonzero" fill-opacity="1" /><path clip-path="url(#clip220)" d="M166.2 1342.76 L184.556 1342.76 L184.556 1346.69 L170.482 1346.69 L170.482 1355.16 Q171.501 1354.82 172.519 1354.66 Q173.538 1354.47 174.556 1354.47 Q180.343 1354.47 183.723 1357.64 Q187.103 1360.81 187.103 1366.23 Q187.103 1371.81 183.63 1374.91 Q180.158 1377.99 173.839 1377.99 Q171.663 1377.99 169.394 1377.62 Q167.149 1377.25 164.742 1376.51 L164.742 1371.81 Q166.825 1372.94 169.047 1373.5 Q171.269 1374.05 173.746 1374.05 Q177.751 1374.05 180.089 1371.95 Q182.427 1369.84 182.427 1366.23 Q182.427 1362.62 180.089 1360.51 Q177.751 1358.4 173.746 1358.4 Q171.871 1358.4 169.996 1358.82 Q168.144 1359.24 166.2 1360.12 L166.2 1342.76 Z" fill="#000000" fill-rule="nonzero" fill-opacity="1" /><path clip-path="url(#clip220)" d="M99.765 1137.75 Q96.1539 1137.75 94.3252 1141.32 Q92.5197 1144.86 92.5197 1151.99 Q92.5197 1159.1 94.3252 1162.66 Q96.1539 1166.2 99.765 1166.2 Q103.399 1166.2 105.205 1162.66 Q107.033 1159.1 107.033 1151.99 Q107.033 1144.86 105.205 1141.32 Q103.399 1137.75 99.765 1137.75 M99.765 1134.05 Q105.575 1134.05 108.631 1138.66 Q111.709 1143.24 111.709 1151.99 Q111.709 1160.72 108.631 1165.32 Q105.575 1169.91 99.765 1169.91 Q93.9549 1169.91 90.8762 1165.32 Q87.8206 1160.72 87.8206 1151.99 Q87.8206 1143.24 90.8762 1138.66 Q93.9549 1134.05 99.765 1134.05 Z" fill="#000000" fill-rule="nonzero" fill-opacity="1" /><path clip-path="url(#clip220)" d="M119.927 1163.36 L124.811 1163.36 L124.811 1169.23 L119.927 1169.23 L119.927 1163.36 Z" fill="#000000" fill-rule="nonzero" fill-opacity="1" /><path clip-path="url(#clip220)" d="M144.996 1137.75 Q141.385 1137.75 139.556 1141.32 Q137.751 1144.86 137.751 1151.99 Q137.751 1159.1 139.556 1162.66 Q141.385 1166.2 144.996 1166.2 Q148.63 1166.2 150.436 1162.66 Q152.265 1159.1 152.265 1151.99 Q152.265 1144.86 150.436 1141.32 Q148.63 1137.75 144.996 1137.75 M144.996 1134.05 Q150.806 1134.05 153.862 1138.66 Q156.941 1143.24 156.941 1151.99 Q156.941 1160.72 153.862 1165.32 Q150.806 1169.91 144.996 1169.91 Q139.186 1169.91 136.107 1165.32 Q133.052 1160.72 133.052 1151.99 Q133.052 1143.24 136.107 1138.66 Q139.186 1134.05 144.996 1134.05 Z" fill="#000000" fill-rule="nonzero" fill-opacity="1" /><path clip-path="url(#clip220)" d="M175.158 1137.75 Q171.547 1137.75 169.718 1141.32 Q167.913 1144.86 167.913 1151.99 Q167.913 1159.1 169.718 1162.66 Q171.547 1166.2 175.158 1166.2 Q178.792 1166.2 180.598 1162.66 Q182.427 1159.1 182.427 1151.99 Q182.427 1144.86 180.598 1141.32 Q178.792 1137.75 175.158 1137.75 M175.158 1134.05 Q180.968 1134.05 184.024 1138.66 Q187.103 1143.24 187.103 1151.99 Q187.103 1160.72 184.024 1165.32 Q180.968 1169.91 175.158 1169.91 Q169.348 1169.91 166.269 1165.32 Q163.214 1160.72 163.214 1151.99 Q163.214 1143.24 166.269 1138.66 Q169.348 1134.05 175.158 1134.05 Z" fill="#000000" fill-rule="nonzero" fill-opacity="1" /><path clip-path="url(#clip220)" d="M100.76 929.671 Q97.1493 929.671 95.3206 933.236 Q93.515 936.778 93.515 943.907 Q93.515 951.014 95.3206 954.578 Q97.1493 958.12 100.76 958.12 Q104.395 958.12 106.2 954.578 Q108.029 951.014 108.029 943.907 Q108.029 936.778 106.2 933.236 Q104.395 929.671 100.76 929.671 M100.76 925.967 Q106.571 925.967 109.626 930.574 Q112.705 935.157 112.705 943.907 Q112.705 952.634 109.626 957.24 Q106.571 961.824 100.76 961.824 Q94.9502 961.824 91.8715 957.24 Q88.816 952.634 88.816 943.907 Q88.816 935.157 91.8715 930.574 Q94.9502 925.967 100.76 925.967 Z" fill="#000000" fill-rule="nonzero" fill-opacity="1" /><path clip-path="url(#clip220)" d="M120.922 955.273 L125.807 955.273 L125.807 961.152 L120.922 961.152 L120.922 955.273 Z" fill="#000000" fill-rule="nonzero" fill-opacity="1" /><path clip-path="url(#clip220)" d="M140.019 957.217 L156.339 957.217 L156.339 961.152 L134.394 961.152 L134.394 957.217 Q137.056 954.463 141.64 949.833 Q146.246 945.18 147.427 943.838 Q149.672 941.315 150.552 939.579 Q151.455 937.819 151.455 936.129 Q151.455 933.375 149.51 931.639 Q147.589 929.903 144.487 929.903 Q142.288 929.903 139.834 930.667 Q137.404 931.43 134.626 932.981 L134.626 928.259 Q137.45 927.125 139.904 926.546 Q142.357 925.967 144.394 925.967 Q149.765 925.967 152.959 928.653 Q156.154 931.338 156.154 935.829 Q156.154 937.958 155.343 939.879 Q154.556 941.778 152.45 944.37 Q151.871 945.041 148.769 948.259 Q145.668 951.453 140.019 957.217 Z" fill="#000000" fill-rule="nonzero" fill-opacity="1" /><path clip-path="url(#clip220)" d="M166.2 926.592 L184.556 926.592 L184.556 930.528 L170.482 930.528 L170.482 939 Q171.501 938.653 172.519 938.491 Q173.538 938.305 174.556 938.305 Q180.343 938.305 183.723 941.477 Q187.103 944.648 187.103 950.065 Q187.103 955.643 183.63 958.745 Q180.158 961.824 173.839 961.824 Q171.663 961.824 169.394 961.453 Q167.149 961.083 164.742 960.342 L164.742 955.643 Q166.825 956.778 169.047 957.333 Q171.269 957.889 173.746 957.889 Q177.751 957.889 180.089 955.782 Q182.427 953.676 182.427 950.065 Q182.427 946.453 180.089 944.347 Q177.751 942.241 173.746 942.241 Q171.871 942.241 169.996 942.657 Q168.144 943.074 166.2 943.954 L166.2 926.592 Z" fill="#000000" fill-rule="nonzero" fill-opacity="1" /><path clip-path="url(#clip220)" d="M99.765 721.589 Q96.1539 721.589 94.3252 725.154 Q92.5197 728.695 92.5197 735.825 Q92.5197 742.931 94.3252 746.496 Q96.1539 750.038 99.765 750.038 Q103.399 750.038 105.205 746.496 Q107.033 742.931 107.033 735.825 Q107.033 728.695 105.205 725.154 Q103.399 721.589 99.765 721.589 M99.765 717.885 Q105.575 717.885 108.631 722.492 Q111.709 727.075 111.709 735.825 Q111.709 744.552 108.631 749.158 Q105.575 753.742 99.765 753.742 Q93.9549 753.742 90.8762 749.158 Q87.8206 744.552 87.8206 735.825 Q87.8206 727.075 90.8762 722.492 Q93.9549 717.885 99.765 717.885 Z" fill="#000000" fill-rule="nonzero" fill-opacity="1" /><path clip-path="url(#clip220)" d="M119.927 747.191 L124.811 747.191 L124.811 753.07 L119.927 753.07 L119.927 747.191 Z" fill="#000000" fill-rule="nonzero" fill-opacity="1" /><path clip-path="url(#clip220)" d="M135.043 718.51 L153.399 718.51 L153.399 722.445 L139.325 722.445 L139.325 730.918 Q140.343 730.57 141.362 730.408 Q142.381 730.223 143.399 730.223 Q149.186 730.223 152.566 733.394 Q155.945 736.566 155.945 741.982 Q155.945 747.561 152.473 750.663 Q149.001 753.742 142.681 753.742 Q140.506 753.742 138.237 753.371 Q135.992 753.001 133.584 752.26 L133.584 747.561 Q135.668 748.695 137.89 749.251 Q140.112 749.806 142.589 749.806 Q146.593 749.806 148.931 747.7 Q151.269 745.593 151.269 741.982 Q151.269 738.371 148.931 736.265 Q146.593 734.158 142.589 734.158 Q140.714 734.158 138.839 734.575 Q136.987 734.992 135.043 735.871 L135.043 718.51 Z" fill="#000000" fill-rule="nonzero" fill-opacity="1" /><path clip-path="url(#clip220)" d="M175.158 721.589 Q171.547 721.589 169.718 725.154 Q167.913 728.695 167.913 735.825 Q167.913 742.931 169.718 746.496 Q171.547 750.038 175.158 750.038 Q178.792 750.038 180.598 746.496 Q182.427 742.931 182.427 735.825 Q182.427 728.695 180.598 725.154 Q178.792 721.589 175.158 721.589 M175.158 717.885 Q180.968 717.885 184.024 722.492 Q187.103 727.075 187.103 735.825 Q187.103 744.552 184.024 749.158 Q180.968 753.742 175.158 753.742 Q169.348 753.742 166.269 749.158 Q163.214 744.552 163.214 735.825 Q163.214 727.075 166.269 722.492 Q169.348 717.885 175.158 717.885 Z" fill="#000000" fill-rule="nonzero" fill-opacity="1" /><path clip-path="url(#clip220)" d="M100.76 513.507 Q97.1493 513.507 95.3206 517.072 Q93.515 520.613 93.515 527.743 Q93.515 534.849 95.3206 538.414 Q97.1493 541.956 100.76 541.956 Q104.395 541.956 106.2 538.414 Q108.029 534.849 108.029 527.743 Q108.029 520.613 106.2 517.072 Q104.395 513.507 100.76 513.507 M100.76 509.803 Q106.571 509.803 109.626 514.41 Q112.705 518.993 112.705 527.743 Q112.705 536.47 109.626 541.076 Q106.571 545.659 100.76 545.659 Q94.9502 545.659 91.8715 541.076 Q88.816 536.47 88.816 527.743 Q88.816 518.993 91.8715 514.41 Q94.9502 509.803 100.76 509.803 Z" fill="#000000" fill-rule="nonzero" fill-opacity="1" /><path clip-path="url(#clip220)" d="M120.922 539.108 L125.807 539.108 L125.807 544.988 L120.922 544.988 L120.922 539.108 Z" fill="#000000" fill-rule="nonzero" fill-opacity="1" /><path clip-path="url(#clip220)" d="M134.811 510.428 L157.033 510.428 L157.033 512.419 L144.487 544.988 L139.603 544.988 L151.408 514.363 L134.811 514.363 L134.811 510.428 Z" fill="#000000" fill-rule="nonzero" fill-opacity="1" /><path clip-path="url(#clip220)" d="M166.2 510.428 L184.556 510.428 L184.556 514.363 L170.482 514.363 L170.482 522.835 Q171.501 522.488 172.519 522.326 Q173.538 522.141 174.556 522.141 Q180.343 522.141 183.723 525.312 Q187.103 528.484 187.103 533.9 Q187.103 539.479 183.63 542.581 Q180.158 545.659 173.839 545.659 Q171.663 545.659 169.394 545.289 Q167.149 544.919 164.742 544.178 L164.742 539.479 Q166.825 540.613 169.047 541.169 Q171.269 541.724 173.746 541.724 Q177.751 541.724 180.089 539.618 Q182.427 537.511 182.427 533.9 Q182.427 530.289 180.089 528.183 Q177.751 526.076 173.746 526.076 Q171.871 526.076 169.996 526.493 Q168.144 526.909 166.2 527.789 L166.2 510.428 Z" fill="#000000" fill-rule="nonzero" fill-opacity="1" /><path clip-path="url(#clip220)" d="M90.5752 332.971 L98.2141 332.971 L98.2141 306.605 L89.904 308.272 L89.904 304.012 L98.1678 302.346 L102.844 302.346 L102.844 332.971 L110.483 332.971 L110.483 336.906 L90.5752 336.906 L90.5752 332.971 Z" fill="#000000" fill-rule="nonzero" fill-opacity="1" /><path clip-path="url(#clip220)" d="M119.927 331.026 L124.811 331.026 L124.811 336.906 L119.927 336.906 L119.927 331.026 Z" fill="#000000" fill-rule="nonzero" fill-opacity="1" /><path clip-path="url(#clip220)" d="M144.996 305.425 Q141.385 305.425 139.556 308.989 Q137.751 312.531 137.751 319.661 Q137.751 326.767 139.556 330.332 Q141.385 333.873 144.996 333.873 Q148.63 333.873 150.436 330.332 Q152.265 326.767 152.265 319.661 Q152.265 312.531 150.436 308.989 Q148.63 305.425 144.996 305.425 M144.996 301.721 Q150.806 301.721 153.862 306.327 Q156.941 310.911 156.941 319.661 Q156.941 328.387 153.862 332.994 Q150.806 337.577 144.996 337.577 Q139.186 337.577 136.107 332.994 Q133.052 328.387 133.052 319.661 Q133.052 310.911 136.107 306.327 Q139.186 301.721 144.996 301.721 Z" fill="#000000" fill-rule="nonzero" fill-opacity="1" /><path clip-path="url(#clip220)" d="M175.158 305.425 Q171.547 305.425 169.718 308.989 Q167.913 312.531 167.913 319.661 Q167.913 326.767 169.718 330.332 Q171.547 333.873 175.158 333.873 Q178.792 333.873 180.598 330.332 Q182.427 326.767 182.427 319.661 Q182.427 312.531 180.598 308.989 Q178.792 305.425 175.158 305.425 M175.158 301.721 Q180.968 301.721 184.024 306.327 Q187.103 310.911 187.103 319.661 Q187.103 328.387 184.024 332.994 Q180.968 337.577 175.158 337.577 Q169.348 337.577 166.269 332.994 Q163.214 328.387 163.214 319.661 Q163.214 310.911 166.269 306.327 Q169.348 301.721 175.158 301.721 Z" fill="#000000" fill-rule="nonzero" fill-opacity="1" /><path clip-path="url(#clip220)" d="M91.5706 124.888 L99.2095 124.888 L99.2095 98.5228 L90.8993 100.19 L90.8993 95.9303 L99.1632 94.2636 L103.839 94.2636 L103.839 124.888 L111.478 124.888 L111.478 128.824 L91.5706 128.824 L91.5706 124.888 Z" fill="#000000" fill-rule="nonzero" fill-opacity="1" /><path clip-path="url(#clip220)" d="M120.922 122.944 L125.807 122.944 L125.807 128.824 L120.922 128.824 L120.922 122.944 Z" fill="#000000" fill-rule="nonzero" fill-opacity="1" /><path clip-path="url(#clip220)" d="M140.019 124.888 L156.339 124.888 L156.339 128.824 L134.394 128.824 L134.394 124.888 Q137.056 122.134 141.64 117.504 Q146.246 112.851 147.427 111.509 Q149.672 108.986 150.552 107.25 Q151.455 105.49 151.455 103.801 Q151.455 101.046 149.51 99.3099 Q147.589 97.5738 144.487 97.5738 Q142.288 97.5738 139.834 98.3377 Q137.404 99.1015 134.626 100.652 L134.626 95.9303 Q137.45 94.796 139.904 94.2173 Q142.357 93.6386 144.394 93.6386 Q149.765 93.6386 152.959 96.3238 Q156.154 99.009 156.154 103.5 Q156.154 105.629 155.343 107.551 Q154.556 109.449 152.45 112.041 Q151.871 112.713 148.769 115.93 Q145.668 119.125 140.019 124.888 Z" fill="#000000" fill-rule="nonzero" fill-opacity="1" /><path clip-path="url(#clip220)" d="M166.2 94.2636 L184.556 94.2636 L184.556 98.1988 L170.482 98.1988 L170.482 106.671 Q171.501 106.324 172.519 106.162 Q173.538 105.977 174.556 105.977 Q180.343 105.977 183.723 109.148 Q187.103 112.319 187.103 117.736 Q187.103 123.314 183.63 126.416 Q180.158 129.495 173.839 129.495 Q171.663 129.495 169.394 129.125 Q167.149 128.754 164.742 128.013 L164.742 123.314 Q166.825 124.449 169.047 125.004 Q171.269 125.56 173.746 125.56 Q177.751 125.56 180.089 123.453 Q182.427 121.347 182.427 117.736 Q182.427 114.125 180.089 112.018 Q177.751 109.912 173.746 109.912 Q171.871 109.912 169.996 110.328 Q168.144 110.745 166.2 111.625 L166.2 94.2636 Z" fill="#000000" fill-rule="nonzero" fill-opacity="1" /><polyline clip-path="url(#clip222)" style="stroke:#009af9; stroke-linecap:round; stroke-linejoin:round; stroke-width:16; stroke-opacity:1; fill:none" stroke-dasharray="8, 16" points="283.376,1093.82 293.472,1074.93 303.568,1058.62 313.664,1045.54 323.76,1036.29 333.856,1031.58 343.952,1032.22 354.048,1038.96 364.144,1052.18 374.24,1071.51 384.336,1095.84 394.432,1123.63 404.528,1153.32 414.624,1183.44 424.72,1212.63 434.816,1239.71 444.912,1263.93 455.008,1284.93 465.104,1302.42 475.2,1315.75 485.296,1323.92 495.392,1326.24 505.488,1322.96 515.584,1315.1 525.68,1303.38 535.776,1287.08 545.872,1264.11 555.968,1232.84 566.064,1194.49 576.16,1154.22 586.256,1119.02 596.352,1092.72 606.448,1072.53 616.544,1052.17 626.64,1028 636.736,1001.34 646.832,976.316 656.928,956.945 667.024,945.513 677.12,942.426 687.216,946.897 697.312,957.649 707.408,973.349 717.504,992.825 727.6,1015.24 737.696,1040.32 747.792,1068.56 757.888,1101.06 767.984,1138.36 778.08,1178.57 788.176,1216.76 798.272,1247.45 808.369,1268.78 818.465,1284.51 828.561,1301.48 838.657,1323.23 848.753,1344.63 858.849,1355.21 868.945,1348.02 879.041,1325.1 889.137,1295.5 899.233,1267.2 909.329,1241.78 919.425,1216.5 929.521,1188.35 939.617,1156.98 949.713,1125.16 959.809,1094.24 969.905,1056.16 980.001,993.139 990.097,918.544 1000.19,889.704 1010.29,914.768 1020.38,946.09 1030.48,961.831 1040.58,975.601 1050.67,995.074 1060.77,1012.82 1070.86,1026.64 1080.96,1049.6 1091.06,1086.11 1101.15,1099.24 1111.25,1060.57 1121.34,1026.97 1131.44,1061.49 1141.54,1159.53 1151.63,1265.16 1161.73,1327.12 1171.83,1341.72 1181.92,1338.46 1192.02,1349.04 1202.11,1387.44 1212.21,1434.27 1222.31,1445.72 1232.4,1401.57 1242.5,1324.08 1252.59,1237.54 1262.69,1130.83 1272.79,965.529 1282.88,736.121 1292.98,514.595 1303.07,371.365 1313.17,302.632 1323.27,273.249 1333.36,259.02 1343.46,249.352 1353.55,240.601 1363.65,231.639 1373.75,223.316 1383.84,224.393 1393.94,256.05 1404.03,322.455 1414.13,368.178 1424.23,331.23 1434.32,267.917 1444.42,360.487 1454.51,502.913 1464.61,410.729 1474.71,339.622 1484.8,277.829 1494.9,188.067 1504.99,153.74 1515.09,215.187 1525.19,312.721 1535.28,395.073 1545.38,423.635 1555.47,373.739 1565.57,278.189 1575.67,215.383 1585.76,225.45 1595.86,305.59 1605.95,371.426 1616.05,340.873 1626.15,273.984 1636.24,239.316 1646.34,251.056 1656.43,298.875 1666.53,357.791 1676.63,412.117 1686.72,454.249 1696.82,466.789 1706.91,446.515 1717.01,409.773 1727.11,369.335 1737.2,330.07 1747.3,294.744 1757.39,267.517 1767.49,256.719 1777.59,272.304 1787.68,315.03 1797.78,372.431 1807.87,423.458 1817.97,444.931 1828.07,423.445 1838.16,361.204 1848.26,272.208 1858.35,181.202 1868.45,123.849 1878.55,131.563 1888.64,203.767 1898.74,301.896 1908.83,380.201 1918.93,416.938 1929.03,415.273 1939.12,388.223 1949.22,348.729 1959.31,307.072 1969.41,270.851 1979.51,245.406 1989.6,234.381 1999.7,240.415 2009.79,266.119 2019.89,315.021 2029.99,387.896 2040.08,465.845 2050.18,496.971 2060.27,439.804 2070.37,324.77 2080.47,217.137 2090.56,147.106 2100.66,113.046 2110.75,110.689 2120.85,140.988 2130.95,203.987 2141.04,290.931 2151.14,380.87 2161.23,444.898 2171.33,456.834 2181.43,406.705 2191.52,310.589 2201.62,206.521 2211.71,136.13 2221.81,126.684 2231.91,181.219 2242,278.024 2252.1,383.775 2262.19,472.493 2272.29,534.784 2282.39,574.428 2292.48,600.45 "/>
<polyline clip-path="url(#clip222)" style="stroke:#e26f46; stroke-linecap:round; stroke-linejoin:round; stroke-width:4; stroke-opacity:1; fill:none" points="283.376,1026.94 293.472,1009.2 303.568,996.127 313.664,988.135 323.76,985.489 333.856,988.277 343.952,996.407 354.048,1009.61 364.144,1027.47 374.24,1049.38 384.336,1074.64 394.432,1102.43 404.528,1131.83 414.624,1161.89 424.72,1191.63 434.816,1220.07 444.912,1246.28 455.008,1269.42 465.104,1288.73 475.2,1303.57 485.296,1313.46 495.392,1318.08 505.488,1317.28 515.584,1311.09 525.68,1299.7 535.776,1283.48 545.872,1262.98 555.968,1238.85 566.064,1211.89 576.16,1182.97 586.256,1153.04 596.352,1123.07 606.448,1094.04 616.544,1066.91 626.64,1042.55 636.736,1021.76 646.832,1005.22 656.928,993.472 667.024,986.895 677.12,985.704 687.216,989.939 697.312,999.463 707.408,1013.96 717.504,1032.97 727.6,1055.85 737.696,1081.88 747.792,1110.19 757.888,1139.86 767.984,1169.93 778.08,1199.41 788.176,1227.35 798.272,1252.82 808.369,1275 818.465,1293.16 828.561,1306.72 838.657,1315.22 848.753,1318.4 858.849,1316.14 868.945,1308.53 879.041,1295.81 889.137,1278.39 899.233,1256.84 909.329,1231.87 919.425,1204.29 929.521,1175.01 939.617,1144.97 949.713,1115.16 959.809,1086.55 969.905,1060.08 980.001,1036.6 990.097,1016.89 1000.19,1001.59 1010.29,991.191 1020.38,986.043 1030.48,986.309 1040.58,991.982 1050.67,1002.88 1060.77,1018.64 1070.86,1038.75 1080.96,1062.55 1091.06,1089.28 1101.15,1118.04 1111.25,1147.92 1121.34,1177.93 1131.44,1207.09 1141.54,1234.45 1151.63,1259.12 1161.73,1280.29 1171.83,1297.27 1181.92,1309.51 1192.02,1316.61 1202.11,1318.33 1212.21,1314.62 1222.31,1305.61 1232.4,1291.58 1242.5,1272.99 1252.59,1250.45 1262.69,1224.7 1272.79,1196.57 1282.88,1166.99 1292.98,318.417 1303.07,317.041 1313.17,318.293 1323.27,322.461 1333.36,328.268 1343.46,333.259 1353.55,334.737 1363.65,330.897 1373.75,321.741 1383.84,309.398 1393.94,297.653 1404.03,290.792 1414.13,292.108 1424.23,302.577 1434.32,320.185 1444.42,340.224 1454.51,356.543 1464.61,363.427 1474.71,357.534 1484.8,339.251 1494.9,312.954 1504.99,286.004 1515.09,266.688 1525.19,261.684 1535.28,273.814 1545.38,300.839 1555.47,335.74 1565.57,368.525 1575.67,389.087 1585.76,390.305 1595.86,370.44 1605.95,334.033 1616.05,290.938 1626.15,253.66 1636.24,233.733 1646.34,238.163 1656.43,267.054 1666.53,313.176 1676.63,363.737 1686.72,403.928 1696.82,421.256 1706.91,409.406 1717.01,370.442 1727.11,314.595 1737.2,257.605 1747.3,216.283 1757.39,203.556 1767.49,224.454 1777.59,274.262 1787.68,339.513 1797.78,401.607 1807.87,442.118 1817.97,448.254 1828.07,416.865 1838.16,355.743 1848.26,281.742 1858.35,216.133 1868.45,178.495 1878.55,180.874 1888.64,223.975 1898.74,296.554 1908.83,378.326 1918.93,445.626 1929.03,478.26 1939.12,465.552 1949.22,409.786 1959.31,325.943 1969.41,237.695 1979.51,170.722 1989.6,145.246 1999.7,169.934 2009.79,239.022 2019.89,333.59 2029.99,426.729 2040.08,491.199 2050.18,507.393 2060.27,469.279 2070.37,386.534 2080.47,282.128 2090.56,185.953 2100.66,126.268 2110.75,121.399 2120.85,174.135 2130.95,270.526 2141.04,383.548 2151.14,480.671 2161.23,533.226 2171.33,524.858 2181.43,456.589 2191.52,346.92 2201.62,226.833 2211.71,131.048 2221.81,87.9763 2231.91,111.31 2242,195.701 2252.1,317.917 2262.19,443.214 2272.29,535.226 2282.39,566.503 2292.48,526.703 "/>
<path clip-path="url(#clip220)" d="M294.091 250.738 L733.884 250.738 L733.884 95.2176 L294.091 95.2176  Z" fill="#ffffff" fill-rule="evenodd" fill-opacity="1"/>
<polyline clip-path="url(#clip220)" style="stroke:#000000; stroke-linecap:round; stroke-linejoin:round; stroke-width:4; stroke-opacity:1; fill:none" points="294.091,250.738 733.884,250.738 733.884,95.2176 294.091,95.2176 294.091,250.738 "/>
<polyline clip-path="url(#clip220)" style="stroke:#009af9; stroke-linecap:round; stroke-linejoin:round; stroke-width:16; stroke-opacity:1; fill:none" stroke-dasharray="8, 16" points="317.754,147.058 459.731,147.058 "/>
<path clip-path="url(#clip220)" d="M488.069 133.62 L488.069 146.606 L493.949 146.606 Q497.213 146.606 498.995 144.916 Q500.778 143.227 500.778 140.102 Q500.778 137 498.995 135.31 Q497.213 133.62 493.949 133.62 L488.069 133.62 M483.393 129.778 L493.949 129.778 Q499.759 129.778 502.722 132.416 Q505.708 135.032 505.708 140.102 Q505.708 145.217 502.722 147.833 Q499.759 150.449 493.949 150.449 L488.069 150.449 L488.069 164.338 L483.393 164.338 L483.393 129.778 Z" fill="#000000" fill-rule="nonzero" fill-opacity="1" /><path clip-path="url(#clip220)" d="M525.986 142.393 Q525.268 141.977 524.412 141.791 Q523.578 141.583 522.56 141.583 Q518.949 141.583 517.004 143.944 Q515.083 146.282 515.083 150.68 L515.083 164.338 L510.801 164.338 L510.801 138.412 L515.083 138.412 L515.083 142.44 Q516.426 140.078 518.578 138.944 Q520.731 137.787 523.81 137.787 Q524.25 137.787 524.782 137.856 Q525.315 137.903 525.963 138.018 L525.986 142.393 Z" fill="#000000" fill-rule="nonzero" fill-opacity="1" /><path clip-path="url(#clip220)" d="M551.588 150.31 L551.588 152.393 L532.004 152.393 Q532.282 156.791 534.643 159.106 Q537.027 161.398 541.264 161.398 Q543.717 161.398 546.009 160.796 Q548.324 160.194 550.592 158.99 L550.592 163.018 Q548.301 163.99 545.893 164.5 Q543.486 165.009 541.009 165.009 Q534.805 165.009 531.171 161.398 Q527.56 157.787 527.56 151.629 Q527.56 145.264 530.986 141.537 Q534.435 137.787 540.268 137.787 Q545.5 137.787 548.532 141.166 Q551.588 144.523 551.588 150.31 M547.328 149.06 Q547.282 145.565 545.361 143.481 Q543.463 141.398 540.314 141.398 Q536.75 141.398 534.597 143.412 Q532.467 145.426 532.143 149.083 L547.328 149.06 Z" fill="#000000" fill-rule="nonzero" fill-opacity="1" /><path clip-path="url(#clip220)" d="M575.638 142.347 L575.638 128.319 L579.898 128.319 L579.898 164.338 L575.638 164.338 L575.638 160.449 Q574.296 162.763 572.236 163.898 Q570.199 165.009 567.328 165.009 Q562.629 165.009 559.666 161.259 Q556.726 157.509 556.726 151.398 Q556.726 145.287 559.666 141.537 Q562.629 137.787 567.328 137.787 Q570.199 137.787 572.236 138.921 Q574.296 140.032 575.638 142.347 M561.125 151.398 Q561.125 156.097 563.046 158.782 Q564.99 161.444 568.37 161.444 Q571.749 161.444 573.694 158.782 Q575.638 156.097 575.638 151.398 Q575.638 146.699 573.694 144.037 Q571.749 141.352 568.37 141.352 Q564.99 141.352 563.046 144.037 Q561.125 146.699 561.125 151.398 Z" fill="#000000" fill-rule="nonzero" fill-opacity="1" /><path clip-path="url(#clip220)" d="M588.671 138.412 L592.93 138.412 L592.93 164.338 L588.671 164.338 L588.671 138.412 M588.671 128.319 L592.93 128.319 L592.93 133.713 L588.671 133.713 L588.671 128.319 Z" fill="#000000" fill-rule="nonzero" fill-opacity="1" /><path clip-path="url(#clip220)" d="M620.499 139.407 L620.499 143.389 Q618.694 142.393 616.865 141.907 Q615.059 141.398 613.208 141.398 Q609.064 141.398 606.772 144.037 Q604.481 146.652 604.481 151.398 Q604.481 156.143 606.772 158.782 Q609.064 161.398 613.208 161.398 Q615.059 161.398 616.865 160.912 Q618.694 160.402 620.499 159.407 L620.499 163.342 Q618.717 164.176 616.796 164.592 Q614.897 165.009 612.745 165.009 Q606.888 165.009 603.439 161.328 Q599.99 157.648 599.99 151.398 Q599.99 145.055 603.462 141.421 Q606.958 137.787 613.022 137.787 Q614.99 137.787 616.865 138.203 Q618.74 138.597 620.499 139.407 Z" fill="#000000" fill-rule="nonzero" fill-opacity="1" /><path clip-path="url(#clip220)" d="M632.12 131.051 L632.12 138.412 L640.893 138.412 L640.893 141.722 L632.12 141.722 L632.12 155.796 Q632.12 158.967 632.976 159.87 Q633.856 160.773 636.518 160.773 L640.893 160.773 L640.893 164.338 L636.518 164.338 Q631.587 164.338 629.712 162.509 Q627.837 160.657 627.837 155.796 L627.837 141.722 L624.712 141.722 L624.712 138.412 L627.837 138.412 L627.837 131.051 L632.12 131.051 Z" fill="#000000" fill-rule="nonzero" fill-opacity="1" /><path clip-path="url(#clip220)" d="M646.494 138.412 L650.754 138.412 L650.754 164.338 L646.494 164.338 L646.494 138.412 M646.494 128.319 L650.754 128.319 L650.754 133.713 L646.494 133.713 L646.494 128.319 Z" fill="#000000" fill-rule="nonzero" fill-opacity="1" /><path clip-path="url(#clip220)" d="M669.712 141.398 Q666.286 141.398 664.295 144.083 Q662.305 146.745 662.305 151.398 Q662.305 156.051 664.272 158.736 Q666.263 161.398 669.712 161.398 Q673.115 161.398 675.105 158.713 Q677.096 156.027 677.096 151.398 Q677.096 146.791 675.105 144.106 Q673.115 141.398 669.712 141.398 M669.712 137.787 Q675.267 137.787 678.439 141.398 Q681.61 145.009 681.61 151.398 Q681.61 157.764 678.439 161.398 Q675.267 165.009 669.712 165.009 Q664.133 165.009 660.962 161.398 Q657.814 157.764 657.814 151.398 Q657.814 145.009 660.962 141.398 Q664.133 137.787 669.712 137.787 Z" fill="#000000" fill-rule="nonzero" fill-opacity="1" /><path clip-path="url(#clip220)" d="M710.221 148.689 L710.221 164.338 L705.962 164.338 L705.962 148.828 Q705.962 145.148 704.527 143.319 Q703.091 141.49 700.221 141.49 Q696.772 141.49 694.781 143.69 Q692.791 145.889 692.791 149.685 L692.791 164.338 L688.508 164.338 L688.508 138.412 L692.791 138.412 L692.791 142.44 Q694.318 140.102 696.378 138.944 Q698.462 137.787 701.17 137.787 Q705.638 137.787 707.929 140.565 Q710.221 143.319 710.221 148.689 Z" fill="#000000" fill-rule="nonzero" fill-opacity="1" /><polyline clip-path="url(#clip220)" style="stroke:#e26f46; stroke-linecap:round; stroke-linejoin:round; stroke-width:4; stroke-opacity:1; fill:none" points="317.754,198.898 459.731,198.898 "/>
<path clip-path="url(#clip220)" d="M483.393 181.618 L505.245 181.618 L505.245 185.553 L488.069 185.553 L488.069 195.784 L504.528 195.784 L504.528 199.719 L488.069 199.719 L488.069 212.242 L505.662 212.242 L505.662 216.178 L483.393 216.178 L483.393 181.618 Z" fill="#000000" fill-rule="nonzero" fill-opacity="1" /><path clip-path="url(#clip220)" d="M534.713 190.252 L525.338 202.867 L535.199 216.178 L530.176 216.178 L522.629 205.992 L515.083 216.178 L510.06 216.178 L520.129 202.613 L510.916 190.252 L515.94 190.252 L522.815 199.488 L529.69 190.252 L534.713 190.252 Z" fill="#000000" fill-rule="nonzero" fill-opacity="1" /><path clip-path="url(#clip220)" d="M553 203.145 Q547.838 203.145 545.847 204.326 Q543.856 205.506 543.856 208.354 Q543.856 210.622 545.338 211.965 Q546.842 213.284 549.412 213.284 Q552.953 213.284 555.083 210.784 Q557.236 208.261 557.236 204.094 L557.236 203.145 L553 203.145 M561.495 201.386 L561.495 216.178 L557.236 216.178 L557.236 212.242 Q555.777 214.603 553.601 215.738 Q551.426 216.849 548.277 216.849 Q544.296 216.849 541.935 214.627 Q539.597 212.381 539.597 208.631 Q539.597 204.256 542.514 202.034 Q545.453 199.812 551.263 199.812 L557.236 199.812 L557.236 199.395 Q557.236 196.455 555.291 194.858 Q553.37 193.238 549.875 193.238 Q547.652 193.238 545.546 193.77 Q543.439 194.303 541.495 195.367 L541.495 191.432 Q543.833 190.53 546.032 190.09 Q548.231 189.627 550.314 189.627 Q555.939 189.627 558.717 192.543 Q561.495 195.46 561.495 201.386 Z" fill="#000000" fill-rule="nonzero" fill-opacity="1" /><path clip-path="url(#clip220)" d="M588.925 191.247 L588.925 195.229 Q587.12 194.233 585.291 193.747 Q583.486 193.238 581.634 193.238 Q577.49 193.238 575.199 195.877 Q572.907 198.492 572.907 203.238 Q572.907 207.983 575.199 210.622 Q577.49 213.238 581.634 213.238 Q583.486 213.238 585.291 212.752 Q587.12 212.242 588.925 211.247 L588.925 215.182 Q587.143 216.016 585.222 216.432 Q583.323 216.849 581.171 216.849 Q575.314 216.849 571.865 213.168 Q568.416 209.488 568.416 203.238 Q568.416 196.895 571.888 193.261 Q575.384 189.627 581.449 189.627 Q583.416 189.627 585.291 190.043 Q587.166 190.437 588.925 191.247 Z" fill="#000000" fill-rule="nonzero" fill-opacity="1" /><path clip-path="url(#clip220)" d="M600.546 182.891 L600.546 190.252 L609.319 190.252 L609.319 193.562 L600.546 193.562 L600.546 207.636 Q600.546 210.807 601.402 211.71 Q602.282 212.613 604.944 212.613 L609.319 212.613 L609.319 216.178 L604.944 216.178 Q600.013 216.178 598.138 214.349 Q596.263 212.497 596.263 207.636 L596.263 193.562 L593.138 193.562 L593.138 190.252 L596.263 190.252 L596.263 182.891 L600.546 182.891 Z" fill="#000000" fill-rule="nonzero" fill-opacity="1" /></svg>
