<?xml version="1.0" encoding="utf-8"?>
<svg xmlns="http://www.w3.org/2000/svg" xmlns:xlink="http://www.w3.org/1999/xlink" width="600" height="400" viewBox="0 0 2400 1600">
<defs>
  <clipPath id="clip160">
    <rect x="0" y="0" width="2400" height="1600"/>
  </clipPath>
</defs>
<path clip-path="url(#clip160)" d="M0 1600 L2400 1600 L2400 0 L0 0  Z" fill="#ffffff" fill-rule="evenodd" fill-opacity="1"/>
<defs>
  <clipPath id="clip161">
    <rect x="480" y="0" width="1681" height="1600"/>
  </clipPath>
</defs>
<path clip-path="url(#clip160)" d="M223.103 1486.45 L2352.76 1486.45 L2352.76 47.2441 L223.103 47.2441  Z" fill="#ffffff" fill-rule="evenodd" fill-opacity="1"/>
<defs>
  <clipPath id="clip162">
    <rect x="223" y="47" width="2131" height="1440"/>
  </clipPath>
</defs>
<polyline clip-path="url(#clip162)" style="stroke:#000000; stroke-linecap:round; stroke-linejoin:round; stroke-width:2; stroke-opacity:0.1; fill:none" points="283.376,1486.45 283.376,47.2441 "/>
<polyline clip-path="url(#clip162)" style="stroke:#000000; stroke-linecap:round; stroke-linejoin:round; stroke-width:2; stroke-opacity:0.1; fill:none" points="785.652,1486.45 785.652,47.2441 "/>
<polyline clip-path="url(#clip162)" style="stroke:#000000; stroke-linecap:round; stroke-linejoin:round; stroke-width:2; stroke-opacity:0.1; fill:none" points="1287.93,1486.45 1287.93,47.2441 "/>
<polyline clip-path="url(#clip162)" style="stroke:#000000; stroke-linecap:round; stroke-linejoin:round; stroke-width:2; stroke-opacity:0.1; fill:none" points="1790.21,1486.45 1790.21,47.2441 "/>
<polyline clip-path="url(#clip162)" style="stroke:#000000; stroke-linecap:round; stroke-linejoin:round; stroke-width:2; stroke-opacity:0.1; fill:none" points="2292.48,1486.45 2292.48,47.2441 "/>
<polyline clip-path="url(#clip160)" style="stroke:#000000; stroke-linecap:round; stroke-linejoin:round; stroke-width:4; stroke-opacity:1; fill:none" points="223.103,1486.45 2352.76,1486.45 "/>
<polyline clip-path="url(#clip160)" style="stroke:#000000; stroke-linecap:round; stroke-linejoin:round; stroke-width:4; stroke-opacity:1; fill:none" points="283.376,1486.45 283.376,1467.55 "/>
<polyline clip-path="url(#clip160)" style="stroke:#000000; stroke-linecap:round; stroke-linejoin:round; stroke-width:4; stroke-opacity:1; fill:none" points="785.652,1486.45 785.652,1467.55 "/>
<polyline clip-path="url(#clip160)" style="stroke:#000000; stroke-linecap:round; stroke-linejoin:round; stroke-width:4; stroke-opacity:1; fill:none" points="1287.93,1486.45 1287.93,1467.55 "/>
<polyline clip-path="url(#clip160)" style="stroke:#000000; stroke-linecap:round; stroke-linejoin:round; stroke-width:4; stroke-opacity:1; fill:none" points="1790.21,1486.45 1790.21,1467.55 "/>
<polyline clip-path="url(#clip160)" style="stroke:#000000; stroke-linecap:round; stroke-linejoin:round; stroke-width:4; stroke-opacity:1; fill:none" points="2292.48,1486.45 2292.48,1467.55 "/>
<path clip-path="url(#clip160)" d="M229.904 1532.02 L259.58 1532.02 L259.58 1535.95 L229.904 1535.95 L229.904 1532.02 Z" fill="#000000" fill-rule="nonzero" fill-opacity="1" /><path clip-path="url(#clip160)" d="M270.482 1544.91 L278.121 1544.91 L278.121 1518.55 L269.811 1520.21 L269.811 1515.95 L278.075 1514.29 L282.751 1514.29 L282.751 1544.91 L290.39 1544.91 L290.39 1548.85 L270.482 1548.85 L270.482 1544.91 Z" fill="#000000" fill-rule="nonzero" fill-opacity="1" /><path clip-path="url(#clip160)" d="M299.834 1542.97 L304.718 1542.97 L304.718 1548.85 L299.834 1548.85 L299.834 1542.97 Z" fill="#000000" fill-rule="nonzero" fill-opacity="1" /><path clip-path="url(#clip160)" d="M324.903 1517.37 Q321.292 1517.37 319.463 1520.93 Q317.658 1524.47 317.658 1531.6 Q317.658 1538.71 319.463 1542.27 Q321.292 1545.82 324.903 1545.82 Q328.538 1545.82 330.343 1542.27 Q332.172 1538.71 332.172 1531.6 Q332.172 1524.47 330.343 1520.93 Q328.538 1517.37 324.903 1517.37 M324.903 1513.66 Q330.713 1513.66 333.769 1518.27 Q336.848 1522.85 336.848 1531.6 Q336.848 1540.33 333.769 1544.94 Q330.713 1549.52 324.903 1549.52 Q319.093 1549.52 316.014 1544.94 Q312.959 1540.33 312.959 1531.6 Q312.959 1522.85 316.014 1518.27 Q319.093 1513.66 324.903 1513.66 Z" fill="#000000" fill-rule="nonzero" fill-opacity="1" /><path clip-path="url(#clip160)" d="M732.678 1532.02 L762.354 1532.02 L762.354 1535.95 L732.678 1535.95 L732.678 1532.02 Z" fill="#000000" fill-rule="nonzero" fill-opacity="1" /><path clip-path="url(#clip160)" d="M782.446 1517.37 Q778.835 1517.37 777.007 1520.93 Q775.201 1524.47 775.201 1531.6 Q775.201 1538.71 777.007 1542.27 Q778.835 1545.82 782.446 1545.82 Q786.081 1545.82 787.886 1542.27 Q789.715 1538.71 789.715 1531.6 Q789.715 1524.47 787.886 1520.93 Q786.081 1517.37 782.446 1517.37 M782.446 1513.66 Q788.257 1513.66 791.312 1518.27 Q794.391 1522.85 794.391 1531.6 Q794.391 1540.33 791.312 1544.94 Q788.257 1549.52 782.446 1549.52 Q776.636 1549.52 773.558 1544.94 Q770.502 1540.33 770.502 1531.6 Q770.502 1522.85 773.558 1518.27 Q776.636 1513.66 782.446 1513.66 Z" fill="#000000" fill-rule="nonzero" fill-opacity="1" /><path clip-path="url(#clip160)" d="M802.608 1542.97 L807.493 1542.97 L807.493 1548.85 L802.608 1548.85 L802.608 1542.97 Z" fill="#000000" fill-rule="nonzero" fill-opacity="1" /><path clip-path="url(#clip160)" d="M817.724 1514.29 L836.08 1514.29 L836.08 1518.22 L822.006 1518.22 L822.006 1526.7 Q823.025 1526.35 824.043 1526.19 Q825.062 1526 826.08 1526 Q831.867 1526 835.247 1529.17 Q838.627 1532.34 838.627 1537.76 Q838.627 1543.34 835.155 1546.44 Q831.682 1549.52 825.363 1549.52 Q823.187 1549.52 820.918 1549.15 Q818.673 1548.78 816.266 1548.04 L816.266 1543.34 Q818.349 1544.47 820.571 1545.03 Q822.793 1545.58 825.27 1545.58 Q829.275 1545.58 831.613 1543.48 Q833.951 1541.37 833.951 1537.76 Q833.951 1534.15 831.613 1532.04 Q829.275 1529.94 825.27 1529.94 Q823.395 1529.94 821.52 1530.35 Q819.668 1530.77 817.724 1531.65 L817.724 1514.29 Z" fill="#000000" fill-rule="nonzero" fill-opacity="1" /><path clip-path="url(#clip160)" d="M1265.31 1517.37 Q1261.7 1517.37 1259.87 1520.93 Q1258.07 1524.47 1258.07 1531.6 Q1258.07 1538.71 1259.87 1542.27 Q1261.7 1545.82 1265.31 1545.82 Q1268.95 1545.82 1270.75 1542.27 Q1272.58 1538.71 1272.58 1531.6 Q1272.58 1524.47 1270.75 1520.93 Q1268.95 1517.37 1265.31 1517.37 M1265.31 1513.66 Q1271.12 1513.66 1274.18 1518.27 Q1277.26 1522.85 1277.26 1531.6 Q1277.26 1540.33 1274.18 1544.94 Q1271.12 1549.52 1265.31 1549.52 Q1259.5 1549.52 1256.42 1544.94 Q1253.37 1540.33 1253.37 1531.6 Q1253.37 1522.85 1256.42 1518.27 Q1259.5 1513.66 1265.31 1513.66 Z" fill="#000000" fill-rule="nonzero" fill-opacity="1" /><path clip-path="url(#clip160)" d="M1285.48 1542.97 L1290.36 1542.97 L1290.36 1548.85 L1285.48 1548.85 L1285.48 1542.97 Z" fill="#000000" fill-rule="nonzero" fill-opacity="1" /><path clip-path="url(#clip160)" d="M1310.54 1517.37 Q1306.93 1517.37 1305.11 1520.93 Q1303.3 1524.47 1303.3 1531.6 Q1303.3 1538.71 1305.11 1542.27 Q1306.93 1545.82 1310.54 1545.82 Q1314.18 1545.82 1315.98 1542.27 Q1317.81 1538.71 1317.81 1531.6 Q1317.81 1524.47 1315.98 1520.93 Q1314.18 1517.37 1310.54 1517.37 M1310.54 1513.66 Q1316.35 1513.66 1319.41 1518.27 Q1322.49 1522.85 1322.49 1531.6 Q1322.49 1540.33 1319.41 1544.94 Q1316.35 1549.52 1310.54 1549.52 Q1304.73 1549.52 1301.66 1544.94 Q1298.6 1540.33 1298.6 1531.6 Q1298.6 1522.85 1301.66 1518.27 Q1304.73 1513.66 1310.54 1513.66 Z" fill="#000000" fill-rule="nonzero" fill-opacity="1" /><path clip-path="url(#clip160)" d="M1768.09 1517.37 Q1764.48 1517.37 1762.65 1520.93 Q1760.84 1524.47 1760.84 1531.6 Q1760.84 1538.71 1762.65 1542.27 Q1764.48 1545.82 1768.09 1545.82 Q1771.72 1545.82 1773.53 1542.27 Q1775.36 1538.71 1775.36 1531.6 Q1775.36 1524.47 1773.53 1520.93 Q1771.72 1517.37 1768.09 1517.37 M1768.09 1513.66 Q1773.9 1513.66 1776.95 1518.27 Q1780.03 1522.85 1780.03 1531.6 Q1780.03 1540.33 1776.95 1544.94 Q1773.9 1549.52 1768.09 1549.52 Q1762.28 1549.52 1759.2 1544.94 Q1756.14 1540.33 1756.14 1531.6 Q1756.14 1522.85 1759.2 1518.27 Q1762.28 1513.66 1768.09 1513.66 Z" fill="#000000" fill-rule="nonzero" fill-opacity="1" /><path clip-path="url(#clip160)" d="M1788.25 1542.97 L1793.13 1542.97 L1793.13 1548.85 L1788.25 1548.85 L1788.25 1542.97 Z" fill="#000000" fill-rule="nonzero" fill-opacity="1" /><path clip-path="url(#clip160)" d="M1803.37 1514.29 L1821.72 1514.29 L1821.72 1518.22 L1807.65 1518.22 L1807.65 1526.7 Q1808.67 1526.35 1809.69 1526.19 Q1810.7 1526 1811.72 1526 Q1817.51 1526 1820.89 1529.17 Q1824.27 1532.34 1824.27 1537.76 Q1824.27 1543.34 1820.8 1546.44 Q1817.32 1549.52 1811 1549.52 Q1808.83 1549.52 1806.56 1549.15 Q1804.31 1548.78 1801.91 1548.04 L1801.91 1543.34 Q1803.99 1544.47 1806.21 1545.03 Q1808.44 1545.58 1810.91 1545.58 Q1814.92 1545.58 1817.25 1543.48 Q1819.59 1541.37 1819.59 1537.76 Q1819.59 1534.15 1817.25 1532.04 Q1814.92 1529.94 1810.91 1529.94 Q1809.04 1529.94 1807.16 1530.35 Q1805.31 1530.77 1803.37 1531.65 L1803.37 1514.29 Z" fill="#000000" fill-rule="nonzero" fill-opacity="1" /><path clip-path="url(#clip160)" d="M2259.64 1544.91 L2267.27 1544.91 L2267.27 1518.55 L2258.96 1520.21 L2258.96 1515.95 L2267.23 1514.29 L2271.9 1514.29 L2271.9 1544.91 L2279.54 1544.91 L2279.54 1548.85 L2259.64 1548.85 L2259.64 1544.91 Z" fill="#000000" fill-rule="nonzero" fill-opacity="1" /><path clip-path="url(#clip160)" d="M2288.99 1542.97 L2293.87 1542.97 L2293.87 1548.85 L2288.99 1548.85 L2288.99 1542.97 Z" fill="#000000" fill-rule="nonzero" fill-opacity="1" /><path clip-path="url(#clip160)" d="M2314.06 1517.37 Q2310.45 1517.37 2308.62 1520.93 Q2306.81 1524.47 2306.81 1531.6 Q2306.81 1538.71 2308.62 1542.27 Q2310.45 1545.82 2314.06 1545.82 Q2317.69 1545.82 2319.5 1542.27 Q2321.33 1538.71 2321.33 1531.6 Q2321.33 1524.47 2319.5 1520.93 Q2317.69 1517.37 2314.06 1517.37 M2314.06 1513.66 Q2319.87 1513.66 2322.92 1518.27 Q2326 1522.85 2326 1531.6 Q2326 1540.33 2322.92 1544.94 Q2319.87 1549.52 2314.06 1549.52 Q2308.25 1549.52 2305.17 1544.94 Q2302.11 1540.33 2302.11 1531.6 Q2302.11 1522.85 2305.17 1518.27 Q2308.25 1513.66 2314.06 1513.66 Z" fill="#000000" fill-rule="nonzero" fill-opacity="1" /><polyline clip-path="url(#clip162)" style="stroke:#000000; stroke-linecap:round; stroke-linejoin:round; stroke-width:2; stroke-opacity:0.1; fill:none" points="223.103,1350.29 2352.76,1350.29 "/>
<polyline clip-path="url(#clip162)" style="stroke:#000000; stroke-linecap:round; stroke-linejoin:round; stroke-width:2; stroke-opacity:0.1; fill:none" points="223.103,1163.03 2352.76,1163.03 "/>
<polyline clip-path="url(#clip162)" style="stroke:#000000; stroke-linecap:round; stroke-linejoin:round; stroke-width:2; stroke-opacity:0.1; fill:none" points="223.103,975.767 2352.76,975.767 "/>
<polyline clip-path="url(#clip162)" style="stroke:#000000; stroke-linecap:round; stroke-linejoin:round; stroke-width:2; stroke-opacity:0.1; fill:none" points="223.103,788.504 2352.76,788.504 "/>
<polyline clip-path="url(#clip162)" style="stroke:#000000; stroke-linecap:round; stroke-linejoin:round; stroke-width:2; stroke-opacity:0.1; fill:none" points="223.103,601.241 2352.76,601.241 "/>
<polyline clip-path="url(#clip162)" style="stroke:#000000; stroke-linecap:round; stroke-linejoin:round; stroke-width:2; stroke-opacity:0.1; fill:none" points="223.103,413.978 2352.76,413.978 "/>
<polyline clip-path="url(#clip162)" style="stroke:#000000; stroke-linecap:round; stroke-linejoin:round; stroke-width:2; stroke-opacity:0.1; fill:none" points="223.103,226.715 2352.76,226.715 "/>
<polyline clip-path="url(#clip160)" style="stroke:#000000; stroke-linecap:round; stroke-linejoin:round; stroke-width:4; stroke-opacity:1; fill:none" points="223.103,1486.45 223.103,47.2441 "/>
<polyline clip-path="url(#clip160)" style="stroke:#000000; stroke-linecap:round; stroke-linejoin:round; stroke-width:4; stroke-opacity:1; fill:none" points="223.103,1350.29 242,1350.29 "/>
<polyline clip-path="url(#clip160)" style="stroke:#000000; stroke-linecap:round; stroke-linejoin:round; stroke-width:4; stroke-opacity:1; fill:none" points="223.103,1163.03 242,1163.03 "/>
<polyline clip-path="url(#clip160)" style="stroke:#000000; stroke-linecap:round; stroke-linejoin:round; stroke-width:4; stroke-opacity:1; fill:none" points="223.103,975.767 242,975.767 "/>
<polyline clip-path="url(#clip160)" style="stroke:#000000; stroke-linecap:round; stroke-linejoin:round; stroke-width:4; stroke-opacity:1; fill:none" points="223.103,788.504 242,788.504 "/>
<polyline clip-path="url(#clip160)" style="stroke:#000000; stroke-linecap:round; stroke-linejoin:round; stroke-width:4; stroke-opacity:1; fill:none" points="223.103,601.241 242,601.241 "/>
<polyline clip-path="url(#clip160)" style="stroke:#000000; stroke-linecap:round; stroke-linejoin:round; stroke-width:4; stroke-opacity:1; fill:none" points="223.103,413.978 242,413.978 "/>
<polyline clip-path="url(#clip160)" style="stroke:#000000; stroke-linecap:round; stroke-linejoin:round; stroke-width:4; stroke-opacity:1; fill:none" points="223.103,226.715 242,226.715 "/>
<path clip-path="url(#clip160)" d="M50.9921 1350.74 L80.6679 1350.74 L80.6679 1354.68 L50.9921 1354.68 L50.9921 1350.74 Z" fill="#000000" fill-rule="nonzero" fill-opacity="1" /><path clip-path="url(#clip160)" d="M100.76 1336.09 Q97.1493 1336.09 95.3206 1339.66 Q93.515 1343.2 93.515 1350.33 Q93.515 1357.43 95.3206 1361 Q97.1493 1364.54 100.76 1364.54 Q104.395 1364.54 106.2 1361 Q108.029 1357.43 108.029 1350.33 Q108.029 1343.2 106.2 1339.66 Q104.395 1336.09 100.76 1336.09 M100.76 1332.39 Q106.571 1332.39 109.626 1336.99 Q112.705 1341.58 112.705 1350.33 Q112.705 1359.06 109.626 1363.66 Q106.571 1368.24 100.76 1368.24 Q94.9502 1368.24 91.8715 1363.66 Q88.816 1359.06 88.816 1350.33 Q88.816 1341.58 91.8715 1336.99 Q94.9502 1332.39 100.76 1332.39 Z" fill="#000000" fill-rule="nonzero" fill-opacity="1" /><path clip-path="url(#clip160)" d="M120.922 1361.69 L125.807 1361.69 L125.807 1367.57 L120.922 1367.57 L120.922 1361.69 Z" fill="#000000" fill-rule="nonzero" fill-opacity="1" /><path clip-path="url(#clip160)" d="M140.019 1363.64 L156.339 1363.64 L156.339 1367.57 L134.394 1367.57 L134.394 1363.64 Q137.056 1360.88 141.64 1356.25 Q146.246 1351.6 147.427 1350.26 Q149.672 1347.74 150.552 1346 Q151.455 1344.24 151.455 1342.55 Q151.455 1339.8 149.51 1338.06 Q147.589 1336.32 144.487 1336.32 Q142.288 1336.32 139.834 1337.09 Q137.404 1337.85 134.626 1339.4 L134.626 1334.68 Q137.45 1333.55 139.904 1332.97 Q142.357 1332.39 144.394 1332.39 Q149.765 1332.39 152.959 1335.07 Q156.154 1337.76 156.154 1342.25 Q156.154 1344.38 155.343 1346.3 Q154.556 1348.2 152.45 1350.79 Q151.871 1351.46 148.769 1354.68 Q145.668 1357.87 140.019 1363.64 Z" fill="#000000" fill-rule="nonzero" fill-opacity="1" /><path clip-path="url(#clip160)" d="M166.2 1333.01 L184.556 1333.01 L184.556 1336.95 L170.482 1336.95 L170.482 1345.42 Q171.501 1345.07 172.519 1344.91 Q173.538 1344.73 174.556 1344.73 Q180.343 1344.73 183.723 1347.9 Q187.103 1351.07 187.103 1356.49 Q187.103 1362.06 183.63 1365.17 Q180.158 1368.24 173.839 1368.24 Q171.663 1368.24 169.394 1367.87 Q167.149 1367.5 164.742 1366.76 L164.742 1362.06 Q166.825 1363.2 169.047 1363.75 Q171.269 1364.31 173.746 1364.31 Q177.751 1364.31 180.089 1362.2 Q182.427 1360.1 182.427 1356.49 Q182.427 1352.87 180.089 1350.77 Q177.751 1348.66 173.746 1348.66 Q171.871 1348.66 169.996 1349.08 Q168.144 1349.49 166.2 1350.37 L166.2 1333.01 Z" fill="#000000" fill-rule="nonzero" fill-opacity="1" /><path clip-path="url(#clip160)" d="M99.765 1148.83 Q96.1539 1148.83 94.3252 1152.39 Q92.5197 1155.94 92.5197 1163.07 Q92.5197 1170.17 94.3252 1173.74 Q96.1539 1177.28 99.765 1177.28 Q103.399 1177.28 105.205 1173.74 Q107.033 1170.17 107.033 1163.07 Q107.033 1155.94 105.205 1152.39 Q103.399 1148.83 99.765 1148.83 M99.765 1145.13 Q105.575 1145.13 108.631 1149.73 Q111.709 1154.32 111.709 1163.07 Q111.709 1171.79 108.631 1176.4 Q105.575 1180.98 99.765 1180.98 Q93.9549 1180.98 90.8762 1176.4 Q87.8206 1171.79 87.8206 1163.07 Q87.8206 1154.32 90.8762 1149.73 Q93.9549 1145.13 99.765 1145.13 Z" fill="#000000" fill-rule="nonzero" fill-opacity="1" /><path clip-path="url(#clip160)" d="M119.927 1174.43 L124.811 1174.43 L124.811 1180.31 L119.927 1180.31 L119.927 1174.43 Z" fill="#000000" fill-rule="nonzero" fill-opacity="1" /><path clip-path="url(#clip160)" d="M144.996 1148.83 Q141.385 1148.83 139.556 1152.39 Q137.751 1155.94 137.751 1163.07 Q137.751 1170.17 139.556 1173.74 Q141.385 1177.28 144.996 1177.28 Q148.63 1177.28 150.436 1173.74 Q152.265 1170.17 152.265 1163.07 Q152.265 1155.94 150.436 1152.39 Q148.63 1148.83 144.996 1148.83 M144.996 1145.13 Q150.806 1145.13 153.862 1149.73 Q156.941 1154.32 156.941 1163.07 Q156.941 1171.79 153.862 1176.4 Q150.806 1180.98 144.996 1180.98 Q139.186 1180.98 136.107 1176.4 Q133.052 1171.79 133.052 1163.07 Q133.052 1154.32 136.107 1149.73 Q139.186 1145.13 144.996 1145.13 Z" fill="#000000" fill-rule="nonzero" fill-opacity="1" /><path clip-path="url(#clip160)" d="M175.158 1148.83 Q171.547 1148.83 169.718 1152.39 Q167.913 1155.94 167.913 1163.07 Q167.913 1170.17 169.718 1173.74 Q171.547 1177.28 175.158 1177.28 Q178.792 1177.28 180.598 1173.74 Q182.427 1170.17 182.427 1163.07 Q182.427 1155.94 180.598 1152.39 Q178.792 1148.83 175.158 1148.83 M175.158 1145.13 Q180.968 1145.13 184.024 1149.73 Q187.103 1154.32 187.103 1163.07 Q187.103 1171.79 184.024 1176.4 Q180.968 1180.98 175.158 1180.98 Q169.348 1180.98 166.269 1176.4 Q163.214 1171.79 163.214 1163.07 Q163.214 1154.32 166.269 1149.73 Q169.348 1145.13 175.158 1145.13 Z" fill="#000000" fill-rule="nonzero" fill-opacity="1" /><path clip-path="url(#clip160)" d="M100.76 961.566 Q97.1493 961.566 95.3206 965.131 Q93.515 968.673 93.515 975.802 Q93.515 982.909 95.3206 986.473 Q97.1493 990.015 100.76 990.015 Q104.395 990.015 106.2 986.473 Q108.029 982.909 108.029 975.802 Q108.029 968.673 106.2 965.131 Q104.395 961.566 100.76 961.566 M100.76 957.862 Q106.571 957.862 109.626 962.469 Q112.705 967.052 112.705 975.802 Q112.705 984.529 109.626 989.135 Q106.571 993.719 100.76 993.719 Q94.9502 993.719 91.8715 989.135 Q88.816 984.529 88.816 975.802 Q88.816 967.052 91.8715 962.469 Q94.9502 957.862 100.76 957.862 Z" fill="#000000" fill-rule="nonzero" fill-opacity="1" /><path clip-path="url(#clip160)" d="M120.922 987.168 L125.807 987.168 L125.807 993.047 L120.922 993.047 L120.922 987.168 Z" fill="#000000" fill-rule="nonzero" fill-opacity="1" /><path clip-path="url(#clip160)" d="M140.019 989.112 L156.339 989.112 L156.339 993.047 L134.394 993.047 L134.394 989.112 Q137.056 986.358 141.64 981.728 Q146.246 977.075 147.427 975.733 Q149.672 973.21 150.552 971.474 Q151.455 969.714 151.455 968.024 Q151.455 965.27 149.51 963.534 Q147.589 961.798 144.487 961.798 Q142.288 961.798 139.834 962.562 Q137.404 963.325 134.626 964.876 L134.626 960.154 Q137.45 959.02 139.904 958.441 Q142.357 957.862 144.394 957.862 Q149.765 957.862 152.959 960.548 Q156.154 963.233 156.154 967.724 Q156.154 969.853 155.343 971.774 Q154.556 973.673 152.45 976.265 Q151.871 976.936 148.769 980.154 Q145.668 983.348 140.019 989.112 Z" fill="#000000" fill-rule="nonzero" fill-opacity="1" /><path clip-path="url(#clip160)" d="M166.2 958.487 L184.556 958.487 L184.556 962.423 L170.482 962.423 L170.482 970.895 Q171.501 970.548 172.519 970.386 Q173.538 970.2 174.556 970.2 Q180.343 970.2 183.723 973.372 Q187.103 976.543 187.103 981.96 Q187.103 987.538 183.63 990.64 Q180.158 993.719 173.839 993.719 Q171.663 993.719 169.394 993.348 Q167.149 992.978 164.742 992.237 L164.742 987.538 Q166.825 988.673 169.047 989.228 Q171.269 989.784 173.746 989.784 Q177.751 989.784 180.089 987.677 Q182.427 985.571 182.427 981.96 Q182.427 978.348 180.089 976.242 Q177.751 974.136 173.746 974.136 Q171.871 974.136 169.996 974.552 Q168.144 974.969 166.2 975.848 L166.2 958.487 Z" fill="#000000" fill-rule="nonzero" fill-opacity="1" /><path clip-path="url(#clip160)" d="M99.765 774.303 Q96.1539 774.303 94.3252 777.868 Q92.5197 781.41 92.5197 788.539 Q92.5197 795.646 94.3252 799.21 Q96.1539 802.752 99.765 802.752 Q103.399 802.752 105.205 799.21 Q107.033 795.646 107.033 788.539 Q107.033 781.41 105.205 777.868 Q103.399 774.303 99.765 774.303 M99.765 770.599 Q105.575 770.599 108.631 775.206 Q111.709 779.789 111.709 788.539 Q111.709 797.266 108.631 801.872 Q105.575 806.456 99.765 806.456 Q93.9549 806.456 90.8762 801.872 Q87.8206 797.266 87.8206 788.539 Q87.8206 779.789 90.8762 775.206 Q93.9549 770.599 99.765 770.599 Z" fill="#000000" fill-rule="nonzero" fill-opacity="1" /><path clip-path="url(#clip160)" d="M119.927 799.905 L124.811 799.905 L124.811 805.784 L119.927 805.784 L119.927 799.905 Z" fill="#000000" fill-rule="nonzero" fill-opacity="1" /><path clip-path="url(#clip160)" d="M135.043 771.224 L153.399 771.224 L153.399 775.16 L139.325 775.16 L139.325 783.632 Q140.343 783.285 141.362 783.123 Q142.381 782.937 143.399 782.937 Q149.186 782.937 152.566 786.109 Q155.945 789.28 155.945 794.697 Q155.945 800.275 152.473 803.377 Q149.001 806.456 142.681 806.456 Q140.506 806.456 138.237 806.085 Q135.992 805.715 133.584 804.974 L133.584 800.275 Q135.668 801.409 137.89 801.965 Q140.112 802.521 142.589 802.521 Q146.593 802.521 148.931 800.414 Q151.269 798.308 151.269 794.697 Q151.269 791.085 148.931 788.979 Q146.593 786.873 142.589 786.873 Q140.714 786.873 138.839 787.289 Q136.987 787.706 135.043 788.585 L135.043 771.224 Z" fill="#000000" fill-rule="nonzero" fill-opacity="1" /><path clip-path="url(#clip160)" d="M175.158 774.303 Q171.547 774.303 169.718 777.868 Q167.913 781.41 167.913 788.539 Q167.913 795.646 169.718 799.21 Q171.547 802.752 175.158 802.752 Q178.792 802.752 180.598 799.21 Q182.427 795.646 182.427 788.539 Q182.427 781.41 180.598 777.868 Q178.792 774.303 175.158 774.303 M175.158 770.599 Q180.968 770.599 184.024 775.206 Q187.103 779.789 187.103 788.539 Q187.103 797.266 184.024 801.872 Q180.968 806.456 175.158 806.456 Q169.348 806.456 166.269 801.872 Q163.214 797.266 163.214 788.539 Q163.214 779.789 166.269 775.206 Q169.348 770.599 175.158 770.599 Z" fill="#000000" fill-rule="nonzero" fill-opacity="1" /><path clip-path="url(#clip160)" d="M100.76 587.04 Q97.1493 587.04 95.3206 590.605 Q93.515 594.147 93.515 601.276 Q93.515 608.383 95.3206 611.947 Q97.1493 615.489 100.76 615.489 Q104.395 615.489 106.2 611.947 Q108.029 608.383 108.029 601.276 Q108.029 594.147 106.2 590.605 Q104.395 587.04 100.76 587.04 M100.76 583.336 Q106.571 583.336 109.626 587.943 Q112.705 592.526 112.705 601.276 Q112.705 610.003 109.626 614.609 Q106.571 619.193 100.76 619.193 Q94.9502 619.193 91.8715 614.609 Q88.816 610.003 88.816 601.276 Q88.816 592.526 91.8715 587.943 Q94.9502 583.336 100.76 583.336 Z" fill="#000000" fill-rule="nonzero" fill-opacity="1" /><path clip-path="url(#clip160)" d="M120.922 612.642 L125.807 612.642 L125.807 618.521 L120.922 618.521 L120.922 612.642 Z" fill="#000000" fill-rule="nonzero" fill-opacity="1" /><path clip-path="url(#clip160)" d="M134.811 583.961 L157.033 583.961 L157.033 585.952 L144.487 618.521 L139.603 618.521 L151.408 587.897 L134.811 587.897 L134.811 583.961 Z" fill="#000000" fill-rule="nonzero" fill-opacity="1" /><path clip-path="url(#clip160)" d="M166.2 583.961 L184.556 583.961 L184.556 587.897 L170.482 587.897 L170.482 596.369 Q171.501 596.022 172.519 595.86 Q173.538 595.674 174.556 595.674 Q180.343 595.674 183.723 598.846 Q187.103 602.017 187.103 607.434 Q187.103 613.012 183.63 616.114 Q180.158 619.193 173.839 619.193 Q171.663 619.193 169.394 618.822 Q167.149 618.452 164.742 617.711 L164.742 613.012 Q166.825 614.146 169.047 614.702 Q171.269 615.258 173.746 615.258 Q177.751 615.258 180.089 613.151 Q182.427 611.045 182.427 607.434 Q182.427 603.822 180.089 601.716 Q177.751 599.61 173.746 599.61 Q171.871 599.61 169.996 600.026 Q168.144 600.443 166.2 601.322 L166.2 583.961 Z" fill="#000000" fill-rule="nonzero" fill-opacity="1" /><path clip-path="url(#clip160)" d="M90.5752 427.323 L98.2141 427.323 L98.2141 400.958 L89.904 402.624 L89.904 398.365 L98.1678 396.698 L102.844 396.698 L102.844 427.323 L110.483 427.323 L110.483 431.258 L90.5752 431.258 L90.5752 427.323 Z" fill="#000000" fill-rule="nonzero" fill-opacity="1" /><path clip-path="url(#clip160)" d="M119.927 425.379 L124.811 425.379 L124.811 431.258 L119.927 431.258 L119.927 425.379 Z" fill="#000000" fill-rule="nonzero" fill-opacity="1" /><path clip-path="url(#clip160)" d="M144.996 399.777 Q141.385 399.777 139.556 403.342 Q137.751 406.884 137.751 414.013 Q137.751 421.12 139.556 424.684 Q141.385 428.226 144.996 428.226 Q148.63 428.226 150.436 424.684 Q152.265 421.12 152.265 414.013 Q152.265 406.884 150.436 403.342 Q148.63 399.777 144.996 399.777 M144.996 396.073 Q150.806 396.073 153.862 400.68 Q156.941 405.263 156.941 414.013 Q156.941 422.74 153.862 427.346 Q150.806 431.93 144.996 431.93 Q139.186 431.93 136.107 427.346 Q133.052 422.74 133.052 414.013 Q133.052 405.263 136.107 400.68 Q139.186 396.073 144.996 396.073 Z" fill="#000000" fill-rule="nonzero" fill-opacity="1" /><path clip-path="url(#clip160)" d="M175.158 399.777 Q171.547 399.777 169.718 403.342 Q167.913 406.884 167.913 414.013 Q167.913 421.12 169.718 424.684 Q171.547 428.226 175.158 428.226 Q178.792 428.226 180.598 424.684 Q182.427 421.12 182.427 414.013 Q182.427 406.884 180.598 403.342 Q178.792 399.777 175.158 399.777 M175.158 396.073 Q180.968 396.073 184.024 400.68 Q187.103 405.263 187.103 414.013 Q187.103 422.74 184.024 427.346 Q180.968 431.93 175.158 431.93 Q169.348 431.93 166.269 427.346 Q163.214 422.74 163.214 414.013 Q163.214 405.263 166.269 400.68 Q169.348 396.073 175.158 396.073 Z" fill="#000000" fill-rule="nonzero" fill-opacity="1" /><path clip-path="url(#clip160)" d="M91.5706 240.06 L99.2095 240.06 L99.2095 213.695 L90.8993 215.361 L90.8993 211.102 L99.1632 209.435 L103.839 209.435 L103.839 240.06 L111.478 240.06 L111.478 243.995 L91.5706 243.995 L91.5706 240.06 Z" fill="#000000" fill-rule="nonzero" fill-opacity="1" /><path clip-path="url(#clip160)" d="M120.922 238.116 L125.807 238.116 L125.807 243.995 L120.922 243.995 L120.922 238.116 Z" fill="#000000" fill-rule="nonzero" fill-opacity="1" /><path clip-path="url(#clip160)" d="M140.019 240.06 L156.339 240.06 L156.339 243.995 L134.394 243.995 L134.394 240.06 Q137.056 237.306 141.64 232.676 Q146.246 228.023 147.427 226.681 Q149.672 224.158 150.552 222.421 Q151.455 220.662 151.455 218.972 Q151.455 216.218 149.51 214.482 Q147.589 212.746 144.487 212.746 Q142.288 212.746 139.834 213.509 Q137.404 214.273 134.626 215.824 L134.626 211.102 Q137.45 209.968 139.904 209.389 Q142.357 208.81 144.394 208.81 Q149.765 208.81 152.959 211.496 Q156.154 214.181 156.154 218.671 Q156.154 220.801 155.343 222.722 Q154.556 224.621 152.45 227.213 Q151.871 227.884 148.769 231.102 Q145.668 234.296 140.019 240.06 Z" fill="#000000" fill-rule="nonzero" fill-opacity="1" /><path clip-path="url(#clip160)" d="M166.2 209.435 L184.556 209.435 L184.556 213.371 L170.482 213.371 L170.482 221.843 Q171.501 221.496 172.519 221.334 Q173.538 221.148 174.556 221.148 Q180.343 221.148 183.723 224.32 Q187.103 227.491 187.103 232.908 Q187.103 238.486 183.63 241.588 Q180.158 244.667 173.839 244.667 Q171.663 244.667 169.394 244.296 Q167.149 243.926 164.742 243.185 L164.742 238.486 Q166.825 239.62 169.047 240.176 Q171.269 240.732 173.746 240.732 Q177.751 240.732 180.089 238.625 Q182.427 236.519 182.427 232.908 Q182.427 229.296 180.089 227.19 Q177.751 225.083 173.746 225.083 Q171.871 225.083 169.996 225.5 Q168.144 225.917 166.2 226.796 L166.2 209.435 Z" fill="#000000" fill-rule="nonzero" fill-opacity="1" /><polyline clip-path="url(#clip162)" style="stroke:#009af9; stroke-linecap:round; stroke-linejoin:round; stroke-width:16; stroke-opacity:1; fill:none" stroke-dasharray="8, 16" points="283.376,1050.52 293.472,1148.57 303.568,1198.6 313.664,1160.57 323.76,1023.11 333.856,896.816 343.952,922.016 354.048,1022.12 364.144,1054.31 374.24,1035.6 384.336,1034.31 394.432,1075.23 404.528,1137.91 414.624,1201.73 424.72,1254.16 434.816,1275.27 444.912,1259.62 455.008,1237.82 465.104,1232.89 475.2,1244.6 485.296,1287.99 495.392,1371.81 505.488,1445.72 515.584,1431.06 525.68,1334.13 535.776,1220.55 545.872,1139.54 555.968,1118.93 566.064,1168.05 576.16,1261.41 586.256,1319.58 596.352,1263.75 606.448,1143.88 616.544,1070.85 626.64,1057.67 636.736,1052.42 646.832,1033.54 656.928,1021.18 667.024,1026.73 677.12,1038.65 687.216,1035.82 697.312,1009.57 707.408,978.956 717.504,978.008 727.6,1029.69 737.696,1126.24 747.792,1219.02 757.888,1252.77 767.984,1226.64 778.08,1191.34 788.176,1184.2 798.272,1210.67 808.369,1257.6 818.465,1291.08 828.561,1289.05 838.657,1278.18 848.753,1289.5 858.849,1314.87 868.945,1327.59 879.041,1310.59 889.137,1277.62 899.233,1258.39 909.329,1253.64 919.425,1233 929.521,1186.88 939.617,1157.2 949.713,1175.47 959.809,1188.64 969.905,1141.07 980.001,1061.34 990.097,1011.42 1000.19,1001.3 1010.29,1005.36 1020.38,1012.35 1030.48,1031.48 1040.58,1067.66 1050.67,1091.76 1060.77,1057.17 1070.86,982.854 1080.96,958.168 1091.06,1022.22 1101.15,1118.92 1111.25,1196.6 1121.34,1254.23 1131.44,1278.78 1141.54,1254.56 1151.63,1230.96 1161.73,1277.66 1171.83,1353.27 1181.92,1339.21 1192.02,1233.3 1202.11,1157.62 1212.21,1177.68 1222.31,1258.71 1232.4,1349.24 1242.5,1417.02 1252.59,1427.89 1262.69,1323.61 1272.79,1051.81 1282.88,723.845 1292.98,581.772 1303.07,479.153 1313.17,359.394 1323.27,294.741 1333.36,303.91 1343.46,371.305 1353.55,468.801 1363.65,554.648 1373.75,567.254 1383.84,477.083 1393.94,364.199 1404.03,335.968 1414.13,379.509 1424.23,410.343 1434.32,407.187 1444.42,407.769 1454.51,427.722 1464.61,445.175 1474.71,452.029 1484.8,467.598 1494.9,472.95 1504.99,427.857 1515.09,358.388 1525.19,328.292 1535.28,349.46 1545.38,390.455 1555.47,428.853 1565.57,463.705 1575.67,497.256 1585.76,508.406 1595.86,457.223 1605.95,348.317 1616.05,264.142 1626.15,270.425 1636.24,335.158 1646.34,388.444 1656.43,416.987 1666.53,440.773 1676.63,456.808 1686.72,449.022 1696.82,430.193 1706.91,431.19 1717.01,450.953 1727.11,450.261 1737.2,399.857 1747.3,327.064 1757.39,304.82 1767.49,363.532 1777.59,453.716 1787.68,512.09 1797.78,510.565 1807.87,454.399 1817.97,389.173 1828.07,374.975 1838.16,411.9 1848.26,438.756 1858.35,409.129 1868.45,343.169 1878.55,300.616 1888.64,319.415 1898.74,390.594 1908.83,475.13 1918.93,533.355 1929.03,548.433 1939.12,536.571 1949.22,515.787 1959.31,448.16 1969.41,291.018 1979.51,121.078 1989.6,87.9763 1999.7,207.075 2009.79,393.226 2019.89,562.635 2029.99,647.744 2040.08,633.794 2050.18,542.453 2060.27,407.633 2070.37,300.045 2080.47,286.657 2090.56,334.327 2100.66,379.797 2110.75,392.944 2120.85,367.567 2130.95,344.992 2141.04,389.334 2151.14,486.914 2161.23,573.871 2171.33,605.005 2181.43,571.136 2191.52,482.26 2201.62,355.721 2211.71,242.106 2221.81,223.965 2231.91,336.584 2242,435.625 2252.1,400.732 2262.19,340.788 2272.29,364.956 2282.39,466.639 2292.48,600.337 "/>
<polyline clip-path="url(#clip162)" style="stroke:#e26f46; stroke-linecap:round; stroke-linejoin:round; stroke-width:4; stroke-opacity:1; fill:none" points="283.376,1050.52 293.472,1034.56 303.568,1022.79 313.664,1015.6 323.76,1013.22 333.856,1015.73 343.952,1023.05 354.048,1034.93 364.144,1051 374.24,1070.72 384.336,1093.45 394.432,1118.46 404.528,1144.92 414.624,1171.97 424.72,1198.73 434.816,1224.33 444.912,1247.92 455.008,1268.74 465.104,1286.12 475.2,1299.47 485.296,1308.38 495.392,1312.54 505.488,1311.82 515.584,1306.24 525.68,1295.99 535.776,1281.4 545.872,1262.95 555.968,1241.23 566.064,1216.97 576.16,1190.94 586.256,1164 596.352,1137.03 606.448,1110.91 616.544,1086.49 626.64,1064.57 636.736,1045.86 646.832,1030.98 656.928,1020.4 667.024,1014.49 677.12,1013.41 687.216,1017.23 697.312,1025.8 707.408,1038.84 717.504,1055.95 727.6,1076.54 737.696,1099.96 747.792,1125.44 757.888,1152.15 767.984,1179.21 778.08,1205.74 788.176,1230.88 798.272,1253.8 808.369,1273.76 818.465,1290.11 828.561,1302.31 838.657,1309.96 848.753,1312.82 858.849,1310.79 868.945,1303.94 879.041,1292.49 889.137,1276.81 899.233,1257.42 909.329,1234.95 919.425,1210.13 929.521,1183.78 939.617,1156.74 949.713,1129.92 959.809,1104.17 969.905,1080.34 980.001,1059.22 990.097,1041.48 1000.19,1027.71 1010.29,1018.35 1020.38,1013.72 1030.48,1013.96 1040.58,1019.06 1050.67,1028.87 1060.77,1043.05 1070.86,1061.15 1080.96,1082.57 1091.06,1106.62 1101.15,1132.51 1111.25,1159.4 1121.34,1186.41 1131.44,1212.65 1141.54,1237.27 1151.63,1259.47 1161.73,1278.52 1171.83,1293.81 1181.92,1304.82 1192.02,1311.21 1202.11,1312.76 1212.21,1309.42 1222.31,1301.31 1232.4,1288.68 1242.5,1271.96 1252.59,1251.67 1262.69,1228.5 1272.79,1203.19 1282.88,1176.56 1292.98,412.891 1303.07,411.653 1313.17,412.779 1323.27,416.53 1333.36,421.756 1343.46,426.248 1353.55,427.578 1363.65,424.122 1373.75,415.882 1383.84,404.774 1393.94,394.204 1404.03,388.029 1414.13,389.214 1424.23,398.635 1434.32,414.482 1444.42,432.516 1454.51,447.202 1464.61,453.397 1474.71,448.094 1484.8,431.64 1494.9,407.974 1504.99,383.72 1515.09,366.337 1525.19,361.834 1535.28,372.751 1545.38,397.071 1555.47,428.48 1565.57,457.985 1575.67,476.49 1585.76,477.586 1595.86,459.708 1605.95,426.944 1616.05,388.161 1626.15,354.613 1636.24,336.679 1646.34,340.667 1656.43,366.667 1666.53,408.174 1676.63,453.676 1686.72,489.846 1696.82,505.44 1706.91,494.776 1717.01,459.711 1727.11,409.451 1737.2,358.163 1747.3,320.975 1757.39,309.522 1767.49,328.328 1777.59,373.154 1787.68,431.876 1797.78,487.757 1807.87,524.215 1817.97,529.737 1828.07,501.488 1838.16,446.482 1848.26,379.885 1858.35,320.841 1868.45,286.968 1878.55,289.109 1888.64,327.898 1898.74,393.215 1908.83,466.805 1918.93,527.372 1929.03,556.74 1939.12,545.304 1949.22,495.118 1959.31,419.664 1969.41,340.245 1979.51,279.973 1989.6,257.046 1999.7,279.264 2009.79,341.439 2019.89,426.545 2029.99,510.366 2040.08,568.385 2050.18,582.959 2060.27,548.658 2070.37,474.193 2080.47,380.232 2090.56,293.68 2100.66,239.967 2110.75,235.585 2120.85,283.045 2130.95,369.792 2141.04,471.505 2151.14,558.911 2161.23,606.207 2171.33,598.677 2181.43,537.239 2191.52,438.542 2201.62,330.47 2211.71,244.268 2221.81,205.506 2231.91,226.505 2242,302.453 2252.1,412.44 2262.19,525.202 2272.29,608.007 2282.39,636.155 2292.48,600.337 "/>
<path clip-path="url(#clip160)" d="M294.091 250.738 L733.884 250.738 L733.884 95.2176 L294.091 95.2176  Z" fill="#ffffff" fill-rule="evenodd" fill-opacity="1"/>
<polyline clip-path="url(#clip160)" style="stroke:#000000; stroke-linecap:round; stroke-linejoin:round; stroke-width:4; stroke-opacity:1; fill:none" points="294.091,250.738 733.884,250.738 733.884,95.2176 294.091,95.2176 294.091,250.738 "/>
<polyline clip-path="url(#clip160)" style="stroke:#009af9; stroke-linecap:round; stroke-linejoin:round; stroke-width:16; stroke-opacity:1; fill:none" stroke-dasharray="8, 16" points="317.754,147.058 459.731,147.058 "/>
<path clip-path="url(#clip160)" d="M488.069 133.62 L488.069 146.606 L493.949 146.606 Q497.213 146.606 498.995 144.916 Q500.778 143.227 500.778 140.102 Q500.778 137 498.995 135.31 Q497.213 133.62 493.949 133.62 L488.069 133.62 M483.393 129.778 L493.949 129.778 Q499.759 129.778 502.722 132.416 Q505.708 135.032 505.708 140.102 Q505.708 145.217 502.722 147.833 Q499.759 150.449 493.949 150.449 L488.069 150.449 L488.069 164.338 L483.393 164.338 L483.393 129.778 Z" fill="#000000" fill-rule="nonzero" fill-opacity="1" /><path clip-path="url(#clip160)" d="M525.986 142.393 Q525.268 141.977 524.412 141.791 Q523.578 141.583 522.56 141.583 Q518.949 141.583 517.004 143.944 Q515.083 146.282 515.083 150.68 L515.083 164.338 L510.801 164.338 L510.801 138.412 L515.083 138.412 L515.083 142.44 Q516.426 140.078 518.578 138.944 Q520.731 137.787 523.81 137.787 Q524.25 137.787 524.782 137.856 Q525.315 137.903 525.963 138.018 L525.986 142.393 Z" fill="#000000" fill-rule="nonzero" fill-opacity="1" /><path clip-path="url(#clip160)" d="M551.588 150.31 L551.588 152.393 L532.004 152.393 Q532.282 156.791 534.643 159.106 Q537.027 161.398 541.264 161.398 Q543.717 161.398 546.009 160.796 Q548.324 160.194 550.592 158.99 L550.592 163.018 Q548.301 163.99 545.893 164.5 Q543.486 165.009 541.009 165.009 Q534.805 165.009 531.171 161.398 Q527.56 157.787 527.56 151.629 Q527.56 145.264 530.986 141.537 Q534.435 137.787 540.268 137.787 Q545.5 137.787 548.532 141.166 Q551.588 144.523 551.588 150.31 M547.328 149.06 Q547.282 145.565 545.361 143.481 Q543.463 141.398 540.314 141.398 Q536.75 141.398 534.597 143.412 Q532.467 145.426 532.143 149.083 L547.328 149.06 Z" fill="#000000" fill-rule="nonzero" fill-opacity="1" /><path clip-path="url(#clip160)" d="M575.638 142.347 L575.638 128.319 L579.898 128.319 L579.898 164.338 L575.638 164.338 L575.638 160.449 Q574.296 162.763 572.236 163.898 Q570.199 165.009 567.328 165.009 Q562.629 165.009 559.666 161.259 Q556.726 157.509 556.726 151.398 Q556.726 145.287 559.666 141.537 Q562.629 137.787 567.328 137.787 Q570.199 137.787 572.236 138.921 Q574.296 140.032 575.638 142.347 M561.125 151.398 Q561.125 156.097 563.046 158.782 Q564.99 161.444 568.37 161.444 Q571.749 161.444 573.694 158.782 Q575.638 156.097 575.638 151.398 Q575.638 146.699 573.694 144.037 Q571.749 141.352 568.37 141.352 Q564.99 141.352 563.046 144.037 Q561.125 146.699 561.125 151.398 Z" fill="#000000" fill-rule="nonzero" fill-opacity="1" /><path clip-path="url(#clip160)" d="M588.671 138.412 L592.93 138.412 L592.93 164.338 L588.671 164.338 L588.671 138.412 M588.671 128.319 L592.93 128.319 L592.93 133.713 L588.671 133.713 L588.671 128.319 Z" fill="#000000" fill-rule="nonzero" fill-opacity="1" /><path clip-path="url(#clip160)" d="M620.499 139.407 L620.499 143.389 Q618.694 142.393 616.865 141.907 Q615.059 141.398 613.208 141.398 Q609.064 141.398 606.772 144.037 Q604.481 146.652 604.481 151.398 Q604.481 156.143 606.772 158.782 Q609.064 161.398 613.208 161.398 Q615.059 161.398 616.865 160.912 Q618.694 160.402 620.499 159.407 L620.499 163.342 Q618.717 164.176 616.796 164.592 Q614.897 165.009 612.745 165.009 Q606.888 165.009 603.439 161.328 Q599.99 157.648 599.99 151.398 Q599.99 145.055 603.462 141.421 Q606.958 137.787 613.022 137.787 Q614.99 137.787 616.865 138.203 Q618.74 138.597 620.499 139.407 Z" fill="#000000" fill-rule="nonzero" fill-opacity="1" /><path clip-path="url(#clip160)" d="M632.12 131.051 L632.12 138.412 L640.893 138.412 L640.893 141.722 L632.12 141.722 L632.12 155.796 Q632.12 158.967 632.976 159.87 Q633.856 160.773 636.518 160.773 L640.893 160.773 L640.893 164.338 L636.518 164.338 Q631.587 164.338 629.712 162.509 Q627.837 160.657 627.837 155.796 L627.837 141.722 L624.712 141.722 L624.712 138.412 L627.837 138.412 L627.837 131.051 L632.12 131.051 Z" fill="#000000" fill-rule="nonzero" fill-opacity="1" /><path clip-path="url(#clip160)" d="M646.494 138.412 L650.754 138.412 L650.754 164.338 L646.494 164.338 L646.494 138.412 M646.494 128.319 L650.754 128.319 L650.754 133.713 L646.494 133.713 L646.494 128.319 Z" fill="#000000" fill-rule="nonzero" fill-opacity="1" /><path clip-path="url(#clip160)" d="M669.712 141.398 Q666.286 141.398 664.295 144.083 Q662.305 146.745 662.305 151.398 Q662.305 156.051 664.272 158.736 Q666.263 161.398 669.712 161.398 Q673.115 161.398 675.105 158.713 Q677.096 156.027 677.096 151.398 Q677.096 146.791 675.105 144.106 Q673.115 141.398 669.712 141.398 M669.712 137.787 Q675.267 137.787 678.439 141.398 Q681.61 145.009 681.61 151.398 Q681.61 157.764 678.439 161.398 Q675.267 165.009 669.712 165.009 Q664.133 165.009 660.962 161.398 Q657.814 157.764 657.814 151.398 Q657.814 145.009 660.962 141.398 Q664.133 137.787 669.712 137.787 Z" fill="#000000" fill-rule="nonzero" fill-opacity="1" /><path clip-path="url(#clip160)" d="M710.221 148.689 L710.221 164.338 L705.962 164.338 L705.962 148.828 Q705.962 145.148 704.527 143.319 Q703.091 141.49 700.221 141.49 Q696.772 141.49 694.781 143.69 Q692.791 145.889 692.791 149.685 L692.791 164.338 L688.508 164.338 L688.508 138.412 L692.791 138.412 L692.791 142.44 Q694.318 140.102 696.378 138.944 Q698.462 137.787 701.17 137.787 Q705.638 137.787 707.929 140.565 Q710.221 143.319 710.221 148.689 Z" fill="#000000" fill-rule="nonzero" fill-opacity="1" /><polyline clip-path="url(#clip160)" style="stroke:#e26f46; stroke-linecap:round; stroke-linejoin:round; stroke-width:4; stroke-opacity:1; fill:none" points="317.754,198.898 459.731,198.898 "/>
<path clip-path="url(#clip160)" d="M483.393 181.618 L505.245 181.618 L505.245 185.553 L488.069 185.553 L488.069 195.784 L504.528 195.784 L504.528 199.719 L488.069 199.719 L488.069 212.242 L505.662 212.242 L505.662 216.178 L483.393 216.178 L483.393 181.618 Z" fill="#000000" fill-rule="nonzero" fill-opacity="1" /><path clip-path="url(#clip160)" d="M534.713 190.252 L525.338 202.867 L535.199 216.178 L530.176 216.178 L522.629 205.992 L515.083 216.178 L510.06 216.178 L520.129 202.613 L510.916 190.252 L515.94 190.252 L522.815 199.488 L529.69 190.252 L534.713 190.252 Z" fill="#000000" fill-rule="nonzero" fill-opacity="1" /><path clip-path="url(#clip160)" d="M553 203.145 Q547.838 203.145 545.847 204.326 Q543.856 205.506 543.856 208.354 Q543.856 210.622 545.338 211.965 Q546.842 213.284 549.412 213.284 Q552.953 213.284 555.083 210.784 Q557.236 208.261 557.236 204.094 L557.236 203.145 L553 203.145 M561.495 201.386 L561.495 216.178 L557.236 216.178 L557.236 212.242 Q555.777 214.603 553.601 215.738 Q551.426 216.849 548.277 216.849 Q544.296 216.849 541.935 214.627 Q539.597 212.381 539.597 208.631 Q539.597 204.256 542.514 202.034 Q545.453 199.812 551.263 199.812 L557.236 199.812 L557.236 199.395 Q557.236 196.455 555.291 194.858 Q553.37 193.238 549.875 193.238 Q547.652 193.238 545.546 193.77 Q543.439 194.303 541.495 195.367 L541.495 191.432 Q543.833 190.53 546.032 190.09 Q548.231 189.627 550.314 189.627 Q555.939 189.627 558.717 192.543 Q561.495 195.46 561.495 201.386 Z" fill="#000000" fill-rule="nonzero" fill-opacity="1" /><path clip-path="url(#clip160)" d="M588.925 191.247 L588.925 195.229 Q587.12 194.233 585.291 193.747 Q583.486 193.238 581.634 193.238 Q577.49 193.238 575.199 195.877 Q572.907 198.492 572.907 203.238 Q572.907 207.983 575.199 210.622 Q577.49 213.238 581.634 213.238 Q583.486 213.238 585.291 212.752 Q587.12 212.242 588.925 211.247 L588.925 215.182 Q587.143 216.016 585.222 216.432 Q583.323 216.849 581.171 216.849 Q575.314 216.849 571.865 213.168 Q568.416 209.488 568.416 203.238 Q568.416 196.895 571.888 193.261 Q575.384 189.627 581.449 189.627 Q583.416 189.627 585.291 190.043 Q587.166 190.437 588.925 191.247 Z" fill="#000000" fill-rule="nonzero" fill-opacity="1" /><path clip-path="url(#clip160)" d="M600.546 182.891 L600.546 190.252 L609.319 190.252 L609.319 193.562 L600.546 193.562 L600.546 207.636 Q600.546 210.807 601.402 211.71 Q602.282 212.613 604.944 212.613 L609.319 212.613 L609.319 216.178 L604.944 216.178 Q600.013 216.178 598.138 214.349 Q596.263 212.497 596.263 207.636 L596.263 193.562 L593.138 193.562 L593.138 190.252 L596.263 190.252 L596.263 182.891 L600.546 182.891 Z" fill="#000000" fill-rule="nonzero" fill-opacity="1" /></svg>
