<?xml version="1.0" encoding="utf-8"?>
<svg xmlns="http://www.w3.org/2000/svg" xmlns:xlink="http://www.w3.org/1999/xlink" width="600" height="400" viewBox="0 0 2400 1600">
<defs>
  <clipPath id="clip130">
    <rect x="0" y="0" width="2400" height="1600"/>
  </clipPath>
</defs>
<path clip-path="url(#clip130)" d="M0 1600 L2400 1600 L2400 0 L0 0  Z" fill="#ffffff" fill-rule="evenodd" fill-opacity="1"/>
<defs>
  <clipPath id="clip131">
    <rect x="480" y="0" width="1681" height="1600"/>
  </clipPath>
</defs>
<path clip-path="url(#clip130)" d="M156.274 1486.45 L2352.76 1486.45 L2352.76 47.2441 L156.274 47.2441  Z" fill="#ffffff" fill-rule="evenodd" fill-opacity="1"/>
<defs>
  <clipPath id="clip132">
    <rect x="156" y="47" width="2197" height="1440"/>
  </clipPath>
</defs>
<polyline clip-path="url(#clip132)" style="stroke:#000000; stroke-linecap:round; stroke-linejoin:round; stroke-width:2; stroke-opacity:0.1; fill:none" points="218.439,1486.45 218.439,47.2441 "/>
<polyline clip-path="url(#clip132)" style="stroke:#000000; stroke-linecap:round; stroke-linejoin:round; stroke-width:2; stroke-opacity:0.1; fill:none" points="736.477,1486.45 736.477,47.2441 "/>
<polyline clip-path="url(#clip132)" style="stroke:#000000; stroke-linecap:round; stroke-linejoin:round; stroke-width:2; stroke-opacity:0.1; fill:none" points="1254.52,1486.45 1254.52,47.2441 "/>
<polyline clip-path="url(#clip132)" style="stroke:#000000; stroke-linecap:round; stroke-linejoin:round; stroke-width:2; stroke-opacity:0.1; fill:none" points="1772.55,1486.45 1772.55,47.2441 "/>
<polyline clip-path="url(#clip132)" style="stroke:#000000; stroke-linecap:round; stroke-linejoin:round; stroke-width:2; stroke-opacity:0.1; fill:none" points="2290.59,1486.45 2290.59,47.2441 "/>
<polyline clip-path="url(#clip130)" style="stroke:#000000; stroke-linecap:round; stroke-linejoin:round; stroke-width:4; stroke-opacity:1; fill:none" points="156.274,1486.45 2352.76,1486.45 "/>
<polyline clip-path="url(#clip130)" style="stroke:#000000; stroke-linecap:round; stroke-linejoin:round; stroke-width:4; stroke-opacity:1; fill:none" points="218.439,1486.45 218.439,1467.55 "/>
<polyline clip-path="url(#clip130)" style="stroke:#000000; stroke-linecap:round; stroke-linejoin:round; stroke-width:4; stroke-opacity:1; fill:none" points="736.477,1486.45 736.477,1467.55 "/>
<polyline clip-path="url(#clip130)" style="stroke:#000000; stroke-linecap:round; stroke-linejoin:round; stroke-width:4; stroke-opacity:1; fill:none" points="1254.52,1486.45 1254.52,1467.55 "/>
<polyline clip-path="url(#clip130)" style="stroke:#000000; stroke-linecap:round; stroke-linejoin:round; stroke-width:4; stroke-opacity:1; fill:none" points="1772.55,1486.45 1772.55,1467.55 "/>
<polyline clip-path="url(#clip130)" style="stroke:#000000; stroke-linecap:round; stroke-linejoin:round; stroke-width:4; stroke-opacity:1; fill:none" points="2290.59,1486.45 2290.59,1467.55 "/>
<path clip-path="url(#clip130)" d="M164.967 1532.02 L194.643 1532.02 L194.643 1535.95 L164.967 1535.95 L164.967 1532.02 Z" fill="#000000" fill-rule="nonzero" fill-opacity="1" /><path clip-path="url(#clip130)" d="M205.545 1544.91 L213.184 1544.91 L213.184 1518.55 L204.874 1520.21 L204.874 1515.95 L213.138 1514.29 L217.814 1514.29 L217.814 1544.91 L225.453 1544.91 L225.453 1548.85 L205.545 1548.85 L205.545 1544.91 Z" fill="#000000" fill-rule="nonzero" fill-opacity="1" /><path clip-path="url(#clip130)" d="M234.897 1542.97 L239.781 1542.97 L239.781 1548.85 L234.897 1548.85 L234.897 1542.97 Z" fill="#000000" fill-rule="nonzero" fill-opacity="1" /><path clip-path="url(#clip130)" d="M259.966 1517.37 Q256.355 1517.37 254.527 1520.93 Q252.721 1524.47 252.721 1531.6 Q252.721 1538.71 254.527 1542.27 Q256.355 1545.82 259.966 1545.82 Q263.601 1545.82 265.406 1542.27 Q267.235 1538.71 267.235 1531.6 Q267.235 1524.47 265.406 1520.93 Q263.601 1517.37 259.966 1517.37 M259.966 1513.66 Q265.776 1513.66 268.832 1518.27 Q271.911 1522.85 271.911 1531.6 Q271.911 1540.33 268.832 1544.94 Q265.776 1549.52 259.966 1549.52 Q254.156 1549.52 251.077 1544.94 Q248.022 1540.33 248.022 1531.6 Q248.022 1522.85 251.077 1518.27 Q254.156 1513.66 259.966 1513.66 Z" fill="#000000" fill-rule="nonzero" fill-opacity="1" /><path clip-path="url(#clip130)" d="M683.503 1532.02 L713.178 1532.02 L713.178 1535.95 L683.503 1535.95 L683.503 1532.02 Z" fill="#000000" fill-rule="nonzero" fill-opacity="1" /><path clip-path="url(#clip130)" d="M733.271 1517.37 Q729.66 1517.37 727.831 1520.93 Q726.026 1524.47 726.026 1531.6 Q726.026 1538.71 727.831 1542.27 Q729.66 1545.82 733.271 1545.82 Q736.905 1545.82 738.711 1542.27 Q740.539 1538.71 740.539 1531.6 Q740.539 1524.47 738.711 1520.93 Q736.905 1517.37 733.271 1517.37 M733.271 1513.66 Q739.081 1513.66 742.137 1518.27 Q745.215 1522.85 745.215 1531.6 Q745.215 1540.33 742.137 1544.94 Q739.081 1549.52 733.271 1549.52 Q727.461 1549.52 724.382 1544.94 Q721.327 1540.33 721.327 1531.6 Q721.327 1522.85 724.382 1518.27 Q727.461 1513.66 733.271 1513.66 Z" fill="#000000" fill-rule="nonzero" fill-opacity="1" /><path clip-path="url(#clip130)" d="M753.433 1542.97 L758.317 1542.97 L758.317 1548.85 L753.433 1548.85 L753.433 1542.97 Z" fill="#000000" fill-rule="nonzero" fill-opacity="1" /><path clip-path="url(#clip130)" d="M768.548 1514.29 L786.905 1514.29 L786.905 1518.22 L772.831 1518.22 L772.831 1526.7 Q773.849 1526.35 774.868 1526.19 Q775.886 1526 776.905 1526 Q782.692 1526 786.072 1529.17 Q789.451 1532.34 789.451 1537.76 Q789.451 1543.34 785.979 1546.44 Q782.507 1549.52 776.187 1549.52 Q774.011 1549.52 771.743 1549.15 Q769.498 1548.78 767.09 1548.04 L767.09 1543.34 Q769.173 1544.47 771.396 1545.03 Q773.618 1545.58 776.095 1545.58 Q780.099 1545.58 782.437 1543.48 Q784.775 1541.37 784.775 1537.76 Q784.775 1534.15 782.437 1532.04 Q780.099 1529.94 776.095 1529.94 Q774.22 1529.94 772.345 1530.35 Q770.493 1530.77 768.548 1531.65 L768.548 1514.29 Z" fill="#000000" fill-rule="nonzero" fill-opacity="1" /><path clip-path="url(#clip130)" d="M1231.9 1517.37 Q1228.29 1517.37 1226.46 1520.93 Q1224.65 1524.47 1224.65 1531.6 Q1224.65 1538.71 1226.46 1542.27 Q1228.29 1545.82 1231.9 1545.82 Q1235.53 1545.82 1237.34 1542.27 Q1239.17 1538.71 1239.17 1531.6 Q1239.17 1524.47 1237.34 1520.93 Q1235.53 1517.37 1231.9 1517.37 M1231.9 1513.66 Q1237.71 1513.66 1240.77 1518.27 Q1243.84 1522.85 1243.84 1531.6 Q1243.84 1540.33 1240.77 1544.94 Q1237.71 1549.52 1231.9 1549.52 Q1226.09 1549.52 1223.01 1544.94 Q1219.96 1540.33 1219.96 1531.6 Q1219.96 1522.85 1223.01 1518.27 Q1226.09 1513.66 1231.9 1513.66 Z" fill="#000000" fill-rule="nonzero" fill-opacity="1" /><path clip-path="url(#clip130)" d="M1252.06 1542.97 L1256.95 1542.97 L1256.95 1548.85 L1252.06 1548.85 L1252.06 1542.97 Z" fill="#000000" fill-rule="nonzero" fill-opacity="1" /><path clip-path="url(#clip130)" d="M1277.13 1517.37 Q1273.52 1517.37 1271.69 1520.93 Q1269.89 1524.47 1269.89 1531.6 Q1269.89 1538.71 1271.69 1542.27 Q1273.52 1545.82 1277.13 1545.82 Q1280.76 1545.82 1282.57 1542.27 Q1284.4 1538.71 1284.4 1531.6 Q1284.4 1524.47 1282.57 1520.93 Q1280.76 1517.37 1277.13 1517.37 M1277.13 1513.66 Q1282.94 1513.66 1286 1518.27 Q1289.08 1522.85 1289.08 1531.6 Q1289.08 1540.33 1286 1544.94 Q1282.94 1549.52 1277.13 1549.52 Q1271.32 1549.52 1268.24 1544.94 Q1265.19 1540.33 1265.19 1531.6 Q1265.19 1522.85 1268.24 1518.27 Q1271.32 1513.66 1277.13 1513.66 Z" fill="#000000" fill-rule="nonzero" fill-opacity="1" /><path clip-path="url(#clip130)" d="M1750.44 1517.37 Q1746.82 1517.37 1745 1520.93 Q1743.19 1524.47 1743.19 1531.6 Q1743.19 1538.71 1745 1542.27 Q1746.82 1545.82 1750.44 1545.82 Q1754.07 1545.82 1755.88 1542.27 Q1757.7 1538.71 1757.7 1531.6 Q1757.7 1524.47 1755.88 1520.93 Q1754.07 1517.37 1750.44 1517.37 M1750.44 1513.66 Q1756.25 1513.66 1759.3 1518.27 Q1762.38 1522.85 1762.38 1531.6 Q1762.38 1540.33 1759.3 1544.94 Q1756.25 1549.52 1750.44 1549.52 Q1744.63 1549.52 1741.55 1544.94 Q1738.49 1540.33 1738.49 1531.6 Q1738.49 1522.85 1741.55 1518.27 Q1744.63 1513.66 1750.44 1513.66 Z" fill="#000000" fill-rule="nonzero" fill-opacity="1" /><path clip-path="url(#clip130)" d="M1770.6 1542.97 L1775.48 1542.97 L1775.48 1548.85 L1770.6 1548.85 L1770.6 1542.97 Z" fill="#000000" fill-rule="nonzero" fill-opacity="1" /><path clip-path="url(#clip130)" d="M1785.71 1514.29 L1804.07 1514.29 L1804.07 1518.22 L1790 1518.22 L1790 1526.7 Q1791.01 1526.35 1792.03 1526.19 Q1793.05 1526 1794.07 1526 Q1799.86 1526 1803.24 1529.17 Q1806.62 1532.34 1806.62 1537.76 Q1806.62 1543.34 1803.14 1546.44 Q1799.67 1549.52 1793.35 1549.52 Q1791.18 1549.52 1788.91 1549.15 Q1786.66 1548.78 1784.25 1548.04 L1784.25 1543.34 Q1786.34 1544.47 1788.56 1545.03 Q1790.78 1545.58 1793.26 1545.58 Q1797.26 1545.58 1799.6 1543.48 Q1801.94 1541.37 1801.94 1537.76 Q1801.94 1534.15 1799.6 1532.04 Q1797.26 1529.94 1793.26 1529.94 Q1791.38 1529.94 1789.51 1530.35 Q1787.66 1530.77 1785.71 1531.65 L1785.71 1514.29 Z" fill="#000000" fill-rule="nonzero" fill-opacity="1" /><path clip-path="url(#clip130)" d="M2257.74 1544.91 L2265.38 1544.91 L2265.38 1518.55 L2257.07 1520.21 L2257.07 1515.95 L2265.34 1514.29 L2270.01 1514.29 L2270.01 1544.91 L2277.65 1544.91 L2277.65 1548.85 L2257.74 1548.85 L2257.74 1544.91 Z" fill="#000000" fill-rule="nonzero" fill-opacity="1" /><path clip-path="url(#clip130)" d="M2287.1 1542.97 L2291.98 1542.97 L2291.98 1548.85 L2287.1 1548.85 L2287.1 1542.97 Z" fill="#000000" fill-rule="nonzero" fill-opacity="1" /><path clip-path="url(#clip130)" d="M2312.17 1517.37 Q2308.55 1517.37 2306.73 1520.93 Q2304.92 1524.47 2304.92 1531.6 Q2304.92 1538.71 2306.73 1542.27 Q2308.55 1545.82 2312.17 1545.82 Q2315.8 1545.82 2317.61 1542.27 Q2319.43 1538.71 2319.43 1531.6 Q2319.43 1524.47 2317.61 1520.93 Q2315.8 1517.37 2312.17 1517.37 M2312.17 1513.66 Q2317.98 1513.66 2321.03 1518.27 Q2324.11 1522.85 2324.11 1531.6 Q2324.11 1540.33 2321.03 1544.94 Q2317.98 1549.52 2312.17 1549.52 Q2306.36 1549.52 2303.28 1544.94 Q2300.22 1540.33 2300.22 1531.6 Q2300.22 1522.85 2303.28 1518.27 Q2306.36 1513.66 2312.17 1513.66 Z" fill="#000000" fill-rule="nonzero" fill-opacity="1" /><polyline clip-path="url(#clip132)" style="stroke:#000000; stroke-linecap:round; stroke-linejoin:round; stroke-width:2; stroke-opacity:0.1; fill:none" points="156.274,1245.59 2352.76,1245.59 "/>
<polyline clip-path="url(#clip132)" style="stroke:#000000; stroke-linecap:round; stroke-linejoin:round; stroke-width:2; stroke-opacity:0.1; fill:none" points="156.274,973.915 2352.76,973.915 "/>
<polyline clip-path="url(#clip132)" style="stroke:#000000; stroke-linecap:round; stroke-linejoin:round; stroke-width:2; stroke-opacity:0.1; fill:none" points="156.274,702.242 2352.76,702.242 "/>
<polyline clip-path="url(#clip132)" style="stroke:#000000; stroke-linecap:round; stroke-linejoin:round; stroke-width:2; stroke-opacity:0.1; fill:none" points="156.274,430.569 2352.76,430.569 "/>
<polyline clip-path="url(#clip132)" style="stroke:#000000; stroke-linecap:round; stroke-linejoin:round; stroke-width:2; stroke-opacity:0.1; fill:none" points="156.274,158.896 2352.76,158.896 "/>
<polyline clip-path="url(#clip130)" style="stroke:#000000; stroke-linecap:round; stroke-linejoin:round; stroke-width:4; stroke-opacity:1; fill:none" points="156.274,1486.45 156.274,47.2441 "/>
<polyline clip-path="url(#clip130)" style="stroke:#000000; stroke-linecap:round; stroke-linejoin:round; stroke-width:4; stroke-opacity:1; fill:none" points="156.274,1245.59 175.172,1245.59 "/>
<polyline clip-path="url(#clip130)" style="stroke:#000000; stroke-linecap:round; stroke-linejoin:round; stroke-width:4; stroke-opacity:1; fill:none" points="156.274,973.915 175.172,973.915 "/>
<polyline clip-path="url(#clip130)" style="stroke:#000000; stroke-linecap:round; stroke-linejoin:round; stroke-width:4; stroke-opacity:1; fill:none" points="156.274,702.242 175.172,702.242 "/>
<polyline clip-path="url(#clip130)" style="stroke:#000000; stroke-linecap:round; stroke-linejoin:round; stroke-width:4; stroke-opacity:1; fill:none" points="156.274,430.569 175.172,430.569 "/>
<polyline clip-path="url(#clip130)" style="stroke:#000000; stroke-linecap:round; stroke-linejoin:round; stroke-width:4; stroke-opacity:1; fill:none" points="156.274,158.896 175.172,158.896 "/>
<path clip-path="url(#clip130)" d="M63.0985 1231.39 Q59.4875 1231.39 57.6588 1234.95 Q55.8532 1238.49 55.8532 1245.62 Q55.8532 1252.73 57.6588 1256.29 Q59.4875 1259.84 63.0985 1259.84 Q66.7328 1259.84 68.5383 1256.29 Q70.367 1252.73 70.367 1245.62 Q70.367 1238.49 68.5383 1234.95 Q66.7328 1231.39 63.0985 1231.39 M63.0985 1227.68 Q68.9087 1227.68 71.9642 1232.29 Q75.0429 1236.87 75.0429 1245.62 Q75.0429 1254.35 71.9642 1258.96 Q68.9087 1263.54 63.0985 1263.54 Q57.2884 1263.54 54.2097 1258.96 Q51.1542 1254.35 51.1542 1245.62 Q51.1542 1236.87 54.2097 1232.29 Q57.2884 1227.68 63.0985 1227.68 Z" fill="#000000" fill-rule="nonzero" fill-opacity="1" /><path clip-path="url(#clip130)" d="M83.2605 1256.99 L88.1447 1256.99 L88.1447 1262.87 L83.2605 1262.87 L83.2605 1256.99 Z" fill="#000000" fill-rule="nonzero" fill-opacity="1" /><path clip-path="url(#clip130)" d="M108.33 1231.39 Q104.719 1231.39 102.89 1234.95 Q101.084 1238.49 101.084 1245.62 Q101.084 1252.73 102.89 1256.29 Q104.719 1259.84 108.33 1259.84 Q111.964 1259.84 113.77 1256.29 Q115.598 1252.73 115.598 1245.62 Q115.598 1238.49 113.77 1234.95 Q111.964 1231.39 108.33 1231.39 M108.33 1227.68 Q114.14 1227.68 117.195 1232.29 Q120.274 1236.87 120.274 1245.62 Q120.274 1254.35 117.195 1258.96 Q114.14 1263.54 108.33 1263.54 Q102.52 1263.54 99.4409 1258.96 Q96.3854 1254.35 96.3854 1245.62 Q96.3854 1236.87 99.4409 1232.29 Q102.52 1227.68 108.33 1227.68 Z" fill="#000000" fill-rule="nonzero" fill-opacity="1" /><path clip-path="url(#clip130)" d="M63.7467 959.714 Q60.1356 959.714 58.3069 963.279 Q56.5014 966.821 56.5014 973.95 Q56.5014 981.057 58.3069 984.621 Q60.1356 988.163 63.7467 988.163 Q67.3809 988.163 69.1865 984.621 Q71.0152 981.057 71.0152 973.95 Q71.0152 966.821 69.1865 963.279 Q67.3809 959.714 63.7467 959.714 M63.7467 956.01 Q69.5568 956.01 72.6124 960.617 Q75.6911 965.2 75.6911 973.95 Q75.6911 982.677 72.6124 987.283 Q69.5568 991.867 63.7467 991.867 Q57.9365 991.867 54.8578 987.283 Q51.8023 982.677 51.8023 973.95 Q51.8023 965.2 54.8578 960.617 Q57.9365 956.01 63.7467 956.01 Z" fill="#000000" fill-rule="nonzero" fill-opacity="1" /><path clip-path="url(#clip130)" d="M83.9086 985.316 L88.7928 985.316 L88.7928 991.195 L83.9086 991.195 L83.9086 985.316 Z" fill="#000000" fill-rule="nonzero" fill-opacity="1" /><path clip-path="url(#clip130)" d="M113.145 972.561 Q116.501 973.279 118.376 975.547 Q120.274 977.816 120.274 981.149 Q120.274 986.265 116.756 989.066 Q113.237 991.867 106.756 991.867 Q104.58 991.867 102.265 991.427 Q99.9733 991.01 97.5197 990.154 L97.5197 985.64 Q99.4641 986.774 101.779 987.353 Q104.094 987.932 106.617 987.932 Q111.015 987.932 113.307 986.195 Q115.621 984.459 115.621 981.149 Q115.621 978.094 113.469 976.381 Q111.339 974.645 107.52 974.645 L103.492 974.645 L103.492 970.802 L107.705 970.802 Q111.154 970.802 112.983 969.436 Q114.811 968.047 114.811 965.455 Q114.811 962.793 112.913 961.381 Q111.038 959.946 107.52 959.946 Q105.598 959.946 103.399 960.362 Q101.2 960.779 98.5613 961.659 L98.5613 957.492 Q101.223 956.751 103.538 956.381 Q105.876 956.01 107.936 956.01 Q113.26 956.01 116.362 958.441 Q119.464 960.848 119.464 964.969 Q119.464 967.839 117.82 969.83 Q116.177 971.797 113.145 972.561 Z" fill="#000000" fill-rule="nonzero" fill-opacity="1" /><path clip-path="url(#clip130)" d="M62.9365 688.041 Q59.3254 688.041 57.4967 691.606 Q55.6912 695.148 55.6912 702.277 Q55.6912 709.384 57.4967 712.948 Q59.3254 716.49 62.9365 716.49 Q66.5707 716.49 68.3763 712.948 Q70.205 709.384 70.205 702.277 Q70.205 695.148 68.3763 691.606 Q66.5707 688.041 62.9365 688.041 M62.9365 684.337 Q68.7467 684.337 71.8022 688.944 Q74.8809 693.527 74.8809 702.277 Q74.8809 711.004 71.8022 715.61 Q68.7467 720.194 62.9365 720.194 Q57.1264 720.194 54.0477 715.61 Q50.9921 711.004 50.9921 702.277 Q50.9921 693.527 54.0477 688.944 Q57.1264 684.337 62.9365 684.337 Z" fill="#000000" fill-rule="nonzero" fill-opacity="1" /><path clip-path="url(#clip130)" d="M83.0984 713.643 L87.9827 713.643 L87.9827 719.522 L83.0984 719.522 L83.0984 713.643 Z" fill="#000000" fill-rule="nonzero" fill-opacity="1" /><path clip-path="url(#clip130)" d="M108.746 700.379 Q105.598 700.379 103.746 702.532 Q101.918 704.685 101.918 708.435 Q101.918 712.161 103.746 714.337 Q105.598 716.49 108.746 716.49 Q111.895 716.49 113.723 714.337 Q115.575 712.161 115.575 708.435 Q115.575 704.685 113.723 702.532 Q111.895 700.379 108.746 700.379 M118.029 685.726 L118.029 689.986 Q116.27 689.152 114.464 688.712 Q112.682 688.273 110.922 688.273 Q106.293 688.273 103.839 691.398 Q101.409 694.523 101.061 700.842 Q102.427 698.828 104.487 697.763 Q106.547 696.675 109.024 696.675 Q114.233 696.675 117.242 699.847 Q120.274 702.995 120.274 708.435 Q120.274 713.759 117.126 716.976 Q113.978 720.194 108.746 720.194 Q102.751 720.194 99.5798 715.61 Q96.4085 711.004 96.4085 702.277 Q96.4085 694.083 100.297 689.222 Q104.186 684.337 110.737 684.337 Q112.496 684.337 114.279 684.685 Q116.084 685.032 118.029 685.726 Z" fill="#000000" fill-rule="nonzero" fill-opacity="1" /><path clip-path="url(#clip130)" d="M63.2837 416.368 Q59.6726 416.368 57.8439 419.933 Q56.0384 423.475 56.0384 430.604 Q56.0384 437.711 57.8439 441.275 Q59.6726 444.817 63.2837 444.817 Q66.918 444.817 68.7235 441.275 Q70.5522 437.711 70.5522 430.604 Q70.5522 423.475 68.7235 419.933 Q66.918 416.368 63.2837 416.368 M63.2837 412.664 Q69.0939 412.664 72.1494 417.271 Q75.2281 421.854 75.2281 430.604 Q75.2281 439.331 72.1494 443.937 Q69.0939 448.521 63.2837 448.521 Q57.4736 448.521 54.3949 443.937 Q51.3393 439.331 51.3393 430.604 Q51.3393 421.854 54.3949 417.271 Q57.4736 412.664 63.2837 412.664 Z" fill="#000000" fill-rule="nonzero" fill-opacity="1" /><path clip-path="url(#clip130)" d="M83.4457 441.97 L88.3299 441.97 L88.3299 447.849 L83.4457 447.849 L83.4457 441.97 Z" fill="#000000" fill-rule="nonzero" fill-opacity="1" /><path clip-path="url(#clip130)" d="M98.6539 447.132 L98.6539 442.873 Q100.413 443.706 102.219 444.146 Q104.024 444.586 105.76 444.586 Q110.39 444.586 112.82 441.484 Q115.274 438.359 115.621 432.016 Q114.279 434.007 112.219 435.072 Q110.158 436.137 107.658 436.137 Q102.473 436.137 99.4409 433.012 Q96.4317 429.863 96.4317 424.424 Q96.4317 419.1 99.5798 415.882 Q102.728 412.664 107.959 412.664 Q113.955 412.664 117.103 417.271 Q120.274 421.854 120.274 430.604 Q120.274 438.775 116.385 443.66 Q112.52 448.521 105.969 448.521 Q104.209 448.521 102.404 448.174 Q100.598 447.826 98.6539 447.132 M107.959 432.479 Q111.108 432.479 112.936 430.326 Q114.788 428.174 114.788 424.424 Q114.788 420.697 112.936 418.544 Q111.108 416.368 107.959 416.368 Q104.811 416.368 102.959 418.544 Q101.131 420.697 101.131 424.424 Q101.131 428.174 102.959 430.326 Q104.811 432.479 107.959 432.479 Z" fill="#000000" fill-rule="nonzero" fill-opacity="1" /><path clip-path="url(#clip130)" d="M55.506 172.241 L63.1448 172.241 L63.1448 145.876 L54.8347 147.542 L54.8347 143.283 L63.0985 141.616 L67.7744 141.616 L67.7744 172.241 L75.4133 172.241 L75.4133 176.176 L55.506 176.176 L55.506 172.241 Z" fill="#000000" fill-rule="nonzero" fill-opacity="1" /><path clip-path="url(#clip130)" d="M84.8577 170.297 L89.7419 170.297 L89.7419 176.176 L84.8577 176.176 L84.8577 170.297 Z" fill="#000000" fill-rule="nonzero" fill-opacity="1" /><path clip-path="url(#clip130)" d="M103.955 172.241 L120.274 172.241 L120.274 176.176 L98.3298 176.176 L98.3298 172.241 Q100.992 169.487 105.575 164.857 Q110.182 160.204 111.362 158.862 Q113.608 156.339 114.487 154.602 Q115.39 152.843 115.39 151.153 Q115.39 148.399 113.445 146.663 Q111.524 144.927 108.422 144.927 Q106.223 144.927 103.77 145.69 Q101.339 146.454 98.5613 148.005 L98.5613 143.283 Q101.385 142.149 103.839 141.57 Q106.293 140.991 108.33 140.991 Q113.7 140.991 116.895 143.677 Q120.089 146.362 120.089 150.853 Q120.089 152.982 119.279 154.903 Q118.492 156.802 116.385 159.394 Q115.807 160.065 112.705 163.283 Q109.603 166.477 103.955 172.241 Z" fill="#000000" fill-rule="nonzero" fill-opacity="1" /><polyline clip-path="url(#clip132)" style="stroke:#009af9; stroke-linecap:round; stroke-linejoin:round; stroke-width:16; stroke-opacity:1; fill:none" stroke-dasharray="8, 16" points="218.439,1071.46 228.852,1073.42 239.264,1075.38 249.677,1077.34 260.09,1079.3 270.503,1081.26 280.916,1085.27 291.329,1096.87 301.741,1108.46 312.154,1130.69 322.567,1157.64 332.98,1184.6 343.393,1211.55 353.805,1238.5 364.218,1265.46 374.631,1292.41 385.044,1319.37 395.457,1343.01 405.87,1365.34 416.282,1387.66 426.695,1409.99 437.108,1432.32 447.521,1445.72 457.934,1424.01 468.347,1402.3 478.759,1379.38 489.172,1351.86 499.585,1324.34 509.998,1296.82 520.411,1269.3 530.824,1241.78 541.236,1214.26 551.649,1186.74 562.062,1160.59 572.475,1135.68 582.888,1110.78 593.301,1085.88 603.713,1060.97 614.126,1036.07 624.539,1016.69 634.952,1043.18 645.365,1069.66 655.777,1096.15 666.19,1122.64 676.603,1149.12 687.016,1175.61 697.429,1202.09 707.842,1228.58 718.254,1255.06 728.667,1281.55 739.08,1308.04 749.493,1334.52 759.906,1360.25 770.319,1381.54 780.731,1392.95 791.144,1404.35 801.557,1415.76 811.97,1427.16 822.383,1439.74 832.796,1415.49 843.208,1384.48 853.621,1353.46 864.034,1322.45 874.447,1291.43 884.86,1259.02 895.273,1233.29 905.685,1200.49 916.098,1169.48 926.511,1142.26 936.924,1115.04 947.337,1096.79 957.749,1084.36 968.162,1071.93 978.575,1061.09 988.988,1062.24 999.401,1074.87 1009.81,1087.85 1020.23,1099.58 1030.64,1104.32 1041.05,1121.72 1051.46,1160.52 1061.88,1203.32 1072.29,1245.64 1082.7,1285.11 1093.12,1310.76 1103.53,1333.65 1113.94,1358.51 1124.35,1381.65 1134.77,1403.23 1145.18,1415.18 1155.59,1415.71 1166.01,1411.83 1176.42,1407.54 1186.83,1406.35 1197.24,1404.52 1207.66,1402.06 1218.07,1386.6 1228.48,1345.22 1238.9,1220.37 1249.31,999.473 1259.72,706.844 1270.13,430.116 1280.55,327.986 1290.96,343.356 1301.37,313.214 1311.79,333.989 1322.2,353.799 1332.61,345.848 1343.02,326.792 1353.44,317.125 1363.85,321.318 1374.26,325.288 1384.68,324.516 1395.09,323.935 1405.5,336.113 1415.91,349.692 1426.33,363.11 1436.74,377.708 1447.15,372.371 1457.57,356.054 1467.98,339.761 1478.39,323.471 1488.8,311.067 1499.22,315.98 1509.63,320.894 1520.04,325.807 1530.45,330.721 1540.87,335.635 1551.28,340.548 1561.69,345.462 1572.11,349.376 1582.52,346.011 1592.93,342.647 1603.34,339.282 1613.76,335.918 1624.17,336.859 1634.58,338.212 1645,339.565 1655.41,340.918 1665.82,342.271 1676.23,341.78 1686.65,340.918 1697.06,340.056 1707.47,339.193 1717.89,338.331 1728.3,337.468 1738.71,336.606 1749.12,335.743 1759.54,334.881 1769.95,334.018 1780.36,333.156 1790.78,332.293 1801.19,331.43 1811.6,330.568 1822.01,329.706 1832.43,328.843 1842.84,327.98 1853.25,327.118 1863.67,326.256 1874.08,325.393 1884.49,324.531 1894.9,323.668 1905.32,322.805 1915.73,321.942 1926.14,321.08 1936.56,320.218 1946.97,319.355 1957.38,318.492 1967.79,317.631 1978.21,316.768 1988.62,315.906 1999.03,315.616 2009.45,318.432 2019.86,321.25 2030.27,324.068 2040.68,326.885 2051.1,329.702 2061.51,332.519 2071.92,335.337 2082.33,338.154 2092.75,340.972 2103.16,343.789 2113.57,346.607 2123.99,349.424 2134.4,352.241 2144.81,355.058 2155.22,357.876 2165.64,360.694 2176.05,363.511 2186.46,366.328 2196.88,369.146 2207.29,371.963 2217.7,374.78 2228.11,377.597 2238.53,380.415 2248.94,383.232 2259.35,386.05 2269.77,388.867 2280.18,391.684 2290.59,394.502 "/>
<polyline clip-path="url(#clip132)" style="stroke:#e26f46; stroke-linecap:round; stroke-linejoin:round; stroke-width:4; stroke-opacity:1; fill:none" points="218.439,1109.57 228.852,1090.28 239.264,1076.05 249.677,1067.35 260.09,1064.47 270.503,1067.51 280.916,1076.35 291.329,1090.72 301.741,1110.14 312.154,1133.99 322.567,1161.47 332.98,1191.7 343.393,1223.69 353.805,1256.4 364.218,1288.75 374.631,1319.69 385.044,1348.22 395.457,1373.39 405.87,1394.4 416.282,1410.54 426.695,1421.31 437.108,1426.33 447.521,1425.46 457.934,1418.72 468.347,1406.33 478.759,1388.69 489.172,1366.38 499.585,1340.13 509.998,1310.8 520.411,1279.33 530.824,1246.76 541.236,1214.16 551.649,1182.58 562.062,1153.06 572.475,1126.56 582.888,1103.94 593.301,1085.94 603.713,1073.16 614.126,1066 624.539,1064.71 634.952,1069.32 645.365,1079.68 655.777,1095.45 666.19,1116.13 676.603,1141.03 687.016,1169.34 697.429,1200.15 707.842,1232.43 718.254,1265.15 728.667,1297.22 739.08,1327.61 749.493,1355.33 759.906,1379.46 770.319,1399.22 780.731,1413.97 791.144,1423.23 801.557,1426.68 811.97,1424.23 822.383,1415.94 832.796,1402.1 843.208,1383.15 853.621,1359.7 864.034,1332.54 874.447,1302.53 884.86,1270.67 895.273,1237.99 905.685,1205.55 916.098,1174.43 926.511,1145.62 936.924,1120.08 947.337,1098.64 957.749,1081.99 968.162,1070.68 978.575,1065.08 988.988,1065.37 999.401,1071.54 1009.81,1083.39 1020.23,1100.54 1030.64,1122.42 1041.05,1148.32 1051.46,1177.39 1061.88,1208.69 1072.29,1241.2 1082.7,1273.85 1093.12,1305.57 1103.53,1335.34 1113.94,1362.18 1124.35,1385.21 1134.77,1403.69 1145.18,1417.01 1155.59,1424.73 1166.01,1426.6 1176.42,1422.57 1186.83,1412.76 1197.24,1397.5 1207.66,1377.28 1218.07,1352.75 1228.48,1324.74 1238.9,1294.13 1249.31,1261.95 1259.72,338.697 1270.13,337.2 1280.55,338.562 1290.96,343.097 1301.37,349.414 1311.79,354.845 1322.2,356.453 1332.61,352.274 1343.02,342.313 1353.44,328.884 1363.85,316.105 1374.26,308.64 1384.68,310.072 1395.09,321.462 1405.5,340.62 1415.91,362.423 1426.33,380.178 1436.74,387.667 1447.15,381.256 1457.57,361.365 1467.98,332.753 1478.39,303.431 1488.8,282.416 1499.22,276.971 1509.63,290.169 1520.04,319.571 1530.45,357.544 1540.87,393.214 1551.28,415.586 1561.69,416.911 1572.11,395.298 1582.52,355.687 1592.93,308.799 1603.34,268.241 1613.76,246.56 1624.17,251.38 1634.58,282.814 1645,332.994 1655.41,388.005 1665.82,431.733 1676.23,450.585 1686.65,437.693 1697.06,395.3 1707.47,334.539 1717.89,272.533 1728.3,227.574 1738.71,213.728 1749.12,236.464 1759.54,290.656 1769.95,361.649 1780.36,429.207 1790.78,473.284 1801.19,479.96 1811.6,445.808 1822.01,379.307 1832.43,298.794 1842.84,227.411 1853.25,186.461 1863.67,189.049 1874.08,235.943 1884.49,314.91 1894.9,403.878 1905.32,477.1 1915.73,512.606 1926.14,498.78 1936.56,438.107 1946.97,346.885 1957.38,250.87 1967.79,178.004 1978.21,150.286 1988.62,177.147 1999.03,252.315 2009.45,355.205 2019.86,456.54 2030.27,526.684 2040.68,544.303 2051.1,502.835 2061.51,412.809 2071.92,299.214 2082.33,194.575 2092.75,129.638 2103.16,124.341 2113.57,181.718 2123.99,286.591 2134.4,409.559 2144.81,515.23 2155.22,572.409 2165.64,563.305 2176.05,489.029 2186.46,369.708 2196.88,239.053 2207.29,134.838 2217.7,87.9763 2228.11,113.363 2238.53,205.182 2248.94,338.152 2259.35,474.477 2269.77,574.585 2280.18,608.615 2290.59,565.313 "/>
<path clip-path="url(#clip130)" d="M229.49 250.738 L675.966 250.738 L675.966 95.2176 L229.49 95.2176  Z" fill="#ffffff" fill-rule="evenodd" fill-opacity="1"/>
<polyline clip-path="url(#clip130)" style="stroke:#000000; stroke-linecap:round; stroke-linejoin:round; stroke-width:4; stroke-opacity:1; fill:none" points="229.49,250.738 675.966,250.738 675.966,95.2176 229.49,95.2176 229.49,250.738 "/>
<polyline clip-path="url(#clip130)" style="stroke:#009af9; stroke-linecap:round; stroke-linejoin:round; stroke-width:16; stroke-opacity:1; fill:none" stroke-dasharray="8, 16" points="253.896,147.058 400.328,147.058 "/>
<path clip-path="url(#clip130)" d="M429.409 133.62 L429.409 146.606 L435.289 146.606 Q438.552 146.606 440.335 144.916 Q442.117 143.227 442.117 140.102 Q442.117 137 440.335 135.31 Q438.552 133.62 435.289 133.62 L429.409 133.62 M424.733 129.778 L435.289 129.778 Q441.099 129.778 444.062 132.416 Q447.048 135.032 447.048 140.102 Q447.048 145.217 444.062 147.833 Q441.099 150.449 435.289 150.449 L429.409 150.449 L429.409 164.338 L424.733 164.338 L424.733 129.778 Z" fill="#000000" fill-rule="nonzero" fill-opacity="1" /><path clip-path="url(#clip130)" d="M467.325 142.393 Q466.608 141.977 465.751 141.791 Q464.918 141.583 463.899 141.583 Q460.288 141.583 458.344 143.944 Q456.423 146.282 456.423 150.68 L456.423 164.338 L452.14 164.338 L452.14 138.412 L456.423 138.412 L456.423 142.44 Q457.765 140.078 459.918 138.944 Q462.071 137.787 465.149 137.787 Q465.589 137.787 466.122 137.856 Q466.654 137.903 467.302 138.018 L467.325 142.393 Z" fill="#000000" fill-rule="nonzero" fill-opacity="1" /><path clip-path="url(#clip130)" d="M492.927 150.31 L492.927 152.393 L473.344 152.393 Q473.622 156.791 475.983 159.106 Q478.367 161.398 482.603 161.398 Q485.057 161.398 487.348 160.796 Q489.663 160.194 491.932 158.99 L491.932 163.018 Q489.64 163.99 487.233 164.5 Q484.825 165.009 482.348 165.009 Q476.145 165.009 472.511 161.398 Q468.899 157.787 468.899 151.629 Q468.899 145.264 472.325 141.537 Q475.774 137.787 481.608 137.787 Q486.839 137.787 489.872 141.166 Q492.927 144.523 492.927 150.31 M488.668 149.06 Q488.622 145.565 486.7 143.481 Q484.802 141.398 481.654 141.398 Q478.089 141.398 475.936 143.412 Q473.807 145.426 473.483 149.083 L488.668 149.06 Z" fill="#000000" fill-rule="nonzero" fill-opacity="1" /><path clip-path="url(#clip130)" d="M516.978 142.347 L516.978 128.319 L521.237 128.319 L521.237 164.338 L516.978 164.338 L516.978 160.449 Q515.635 162.763 513.575 163.898 Q511.538 165.009 508.668 165.009 Q503.969 165.009 501.006 161.259 Q498.066 157.509 498.066 151.398 Q498.066 145.287 501.006 141.537 Q503.969 137.787 508.668 137.787 Q511.538 137.787 513.575 138.921 Q515.635 140.032 516.978 142.347 M502.464 151.398 Q502.464 156.097 504.385 158.782 Q506.33 161.444 509.709 161.444 Q513.089 161.444 515.033 158.782 Q516.978 156.097 516.978 151.398 Q516.978 146.699 515.033 144.037 Q513.089 141.352 509.709 141.352 Q506.33 141.352 504.385 144.037 Q502.464 146.699 502.464 151.398 Z" fill="#000000" fill-rule="nonzero" fill-opacity="1" /><path clip-path="url(#clip130)" d="M530.01 138.412 L534.269 138.412 L534.269 164.338 L530.01 164.338 L530.01 138.412 M530.01 128.319 L534.269 128.319 L534.269 133.713 L530.01 133.713 L530.01 128.319 Z" fill="#000000" fill-rule="nonzero" fill-opacity="1" /><path clip-path="url(#clip130)" d="M561.839 139.407 L561.839 143.389 Q560.033 142.393 558.205 141.907 Q556.399 141.398 554.547 141.398 Q550.404 141.398 548.112 144.037 Q545.82 146.652 545.82 151.398 Q545.82 156.143 548.112 158.782 Q550.404 161.398 554.547 161.398 Q556.399 161.398 558.205 160.912 Q560.033 160.402 561.839 159.407 L561.839 163.342 Q560.056 164.176 558.135 164.592 Q556.237 165.009 554.084 165.009 Q548.228 165.009 544.779 161.328 Q541.33 157.648 541.33 151.398 Q541.33 145.055 544.802 141.421 Q548.297 137.787 554.362 137.787 Q556.33 137.787 558.205 138.203 Q560.08 138.597 561.839 139.407 Z" fill="#000000" fill-rule="nonzero" fill-opacity="1" /><path clip-path="url(#clip130)" d="M573.459 131.051 L573.459 138.412 L582.232 138.412 L582.232 141.722 L573.459 141.722 L573.459 155.796 Q573.459 158.967 574.316 159.87 Q575.195 160.773 577.857 160.773 L582.232 160.773 L582.232 164.338 L577.857 164.338 Q572.927 164.338 571.052 162.509 Q569.177 160.657 569.177 155.796 L569.177 141.722 L566.052 141.722 L566.052 138.412 L569.177 138.412 L569.177 131.051 L573.459 131.051 Z" fill="#000000" fill-rule="nonzero" fill-opacity="1" /><path clip-path="url(#clip130)" d="M587.834 138.412 L592.093 138.412 L592.093 164.338 L587.834 164.338 L587.834 138.412 M587.834 128.319 L592.093 128.319 L592.093 133.713 L587.834 133.713 L587.834 128.319 Z" fill="#000000" fill-rule="nonzero" fill-opacity="1" /><path clip-path="url(#clip130)" d="M611.051 141.398 Q607.626 141.398 605.635 144.083 Q603.644 146.745 603.644 151.398 Q603.644 156.051 605.612 158.736 Q607.602 161.398 611.051 161.398 Q614.454 161.398 616.445 158.713 Q618.436 156.027 618.436 151.398 Q618.436 146.791 616.445 144.106 Q614.454 141.398 611.051 141.398 M611.051 137.787 Q616.607 137.787 619.778 141.398 Q622.95 145.009 622.95 151.398 Q622.95 157.764 619.778 161.398 Q616.607 165.009 611.051 165.009 Q605.473 165.009 602.302 161.398 Q599.153 157.764 599.153 151.398 Q599.153 145.009 602.302 141.398 Q605.473 137.787 611.051 137.787 Z" fill="#000000" fill-rule="nonzero" fill-opacity="1" /><path clip-path="url(#clip130)" d="M651.561 148.689 L651.561 164.338 L647.301 164.338 L647.301 148.828 Q647.301 145.148 645.866 143.319 Q644.431 141.49 641.561 141.49 Q638.112 141.49 636.121 143.69 Q634.13 145.889 634.13 149.685 L634.13 164.338 L629.848 164.338 L629.848 138.412 L634.13 138.412 L634.13 142.44 Q635.658 140.102 637.718 138.944 Q639.801 137.787 642.51 137.787 Q646.977 137.787 649.269 140.565 Q651.561 143.319 651.561 148.689 Z" fill="#000000" fill-rule="nonzero" fill-opacity="1" /><polyline clip-path="url(#clip130)" style="stroke:#e26f46; stroke-linecap:round; stroke-linejoin:round; stroke-width:4; stroke-opacity:1; fill:none" points="253.896,198.898 400.328,198.898 "/>
<path clip-path="url(#clip130)" d="M424.733 181.618 L446.585 181.618 L446.585 185.553 L429.409 185.553 L429.409 195.784 L445.867 195.784 L445.867 199.719 L429.409 199.719 L429.409 212.242 L447.001 212.242 L447.001 216.178 L424.733 216.178 L424.733 181.618 Z" fill="#000000" fill-rule="nonzero" fill-opacity="1" /><path clip-path="url(#clip130)" d="M476.052 190.252 L466.677 202.867 L476.538 216.178 L471.515 216.178 L463.969 205.992 L456.423 216.178 L451.4 216.178 L461.469 202.613 L452.256 190.252 L457.279 190.252 L464.154 199.488 L471.029 190.252 L476.052 190.252 Z" fill="#000000" fill-rule="nonzero" fill-opacity="1" /><path clip-path="url(#clip130)" d="M494.339 203.145 Q489.177 203.145 487.186 204.326 Q485.196 205.506 485.196 208.354 Q485.196 210.622 486.677 211.965 Q488.182 213.284 490.751 213.284 Q494.293 213.284 496.422 210.784 Q498.575 208.261 498.575 204.094 L498.575 203.145 L494.339 203.145 M502.834 201.386 L502.834 216.178 L498.575 216.178 L498.575 212.242 Q497.117 214.603 494.941 215.738 Q492.765 216.849 489.617 216.849 Q485.635 216.849 483.274 214.627 Q480.936 212.381 480.936 208.631 Q480.936 204.256 483.853 202.034 Q486.793 199.812 492.603 199.812 L498.575 199.812 L498.575 199.395 Q498.575 196.455 496.631 194.858 Q494.71 193.238 491.214 193.238 Q488.992 193.238 486.885 193.77 Q484.779 194.303 482.835 195.367 L482.835 191.432 Q485.173 190.53 487.372 190.09 Q489.571 189.627 491.654 189.627 Q497.279 189.627 500.057 192.543 Q502.834 195.46 502.834 201.386 Z" fill="#000000" fill-rule="nonzero" fill-opacity="1" /><path clip-path="url(#clip130)" d="M530.265 191.247 L530.265 195.229 Q528.459 194.233 526.631 193.747 Q524.825 193.238 522.973 193.238 Q518.83 193.238 516.538 195.877 Q514.246 198.492 514.246 203.238 Q514.246 207.983 516.538 210.622 Q518.83 213.238 522.973 213.238 Q524.825 213.238 526.631 212.752 Q528.459 212.242 530.265 211.247 L530.265 215.182 Q528.482 216.016 526.561 216.432 Q524.663 216.849 522.51 216.849 Q516.654 216.849 513.205 213.168 Q509.756 209.488 509.756 203.238 Q509.756 196.895 513.228 193.261 Q516.723 189.627 522.788 189.627 Q524.756 189.627 526.631 190.043 Q528.506 190.437 530.265 191.247 Z" fill="#000000" fill-rule="nonzero" fill-opacity="1" /><path clip-path="url(#clip130)" d="M541.885 182.891 L541.885 190.252 L550.658 190.252 L550.658 193.562 L541.885 193.562 L541.885 207.636 Q541.885 210.807 542.742 211.71 Q543.621 212.613 546.283 212.613 L550.658 212.613 L550.658 216.178 L546.283 216.178 Q541.353 216.178 539.478 214.349 Q537.603 212.497 537.603 207.636 L537.603 193.562 L534.478 193.562 L534.478 190.252 L537.603 190.252 L537.603 182.891 L541.885 182.891 Z" fill="#000000" fill-rule="nonzero" fill-opacity="1" /></svg>
