<?xml version="1.0" encoding="utf-8"?>
<svg xmlns="http://www.w3.org/2000/svg" xmlns:xlink="http://www.w3.org/1999/xlink" width="600" height="400" viewBox="0 0 2400 1600">
<defs>
  <clipPath id="clip250">
    <rect x="0" y="0" width="2400" height="1600"/>
  </clipPath>
</defs>
<path clip-path="url(#clip250)" d="M0 1600 L2400 1600 L2400 0 L0 0  Z" fill="#ffffff" fill-rule="evenodd" fill-opacity="1"/>
<defs>
  <clipPath id="clip251">
    <rect x="480" y="0" width="1681" height="1600"/>
  </clipPath>
</defs>
<path clip-path="url(#clip250)" d="M156.274 1486.45 L2352.76 1486.45 L2352.76 47.2441 L156.274 47.2441  Z" fill="#ffffff" fill-rule="evenodd" fill-opacity="1"/>
<defs>
  <clipPath id="clip252">
    <rect x="156" y="47" width="2197" height="1440"/>
  </clipPath>
</defs>
<polyline clip-path="url(#clip252)" style="stroke:#000000; stroke-linecap:round; stroke-linejoin:round; stroke-width:2; stroke-opacity:0.1; fill:none" points="218.439,1486.45 218.439,47.2441 "/>
<polyline clip-path="url(#clip252)" style="stroke:#000000; stroke-linecap:round; stroke-linejoin:round; stroke-width:2; stroke-opacity:0.1; fill:none" points="736.477,1486.45 736.477,47.2441 "/>
<polyline clip-path="url(#clip252)" style="stroke:#000000; stroke-linecap:round; stroke-linejoin:round; stroke-width:2; stroke-opacity:0.1; fill:none" points="1254.52,1486.45 1254.52,47.2441 "/>
<polyline clip-path="url(#clip252)" style="stroke:#000000; stroke-linecap:round; stroke-linejoin:round; stroke-width:2; stroke-opacity:0.1; fill:none" points="1772.55,1486.45 1772.55,47.2441 "/>
<polyline clip-path="url(#clip252)" style="stroke:#000000; stroke-linecap:round; stroke-linejoin:round; stroke-width:2; stroke-opacity:0.1; fill:none" points="2290.59,1486.45 2290.59,47.2441 "/>
<polyline clip-path="url(#clip250)" style="stroke:#000000; stroke-linecap:round; stroke-linejoin:round; stroke-width:4; stroke-opacity:1; fill:none" points="156.274,1486.45 2352.76,1486.45 "/>
<polyline clip-path="url(#clip250)" style="stroke:#000000; stroke-linecap:round; stroke-linejoin:round; stroke-width:4; stroke-opacity:1; fill:none" points="218.439,1486.45 218.439,1467.55 "/>
<polyline clip-path="url(#clip250)" style="stroke:#000000; stroke-linecap:round; stroke-linejoin:round; stroke-width:4; stroke-opacity:1; fill:none" points="736.477,1486.45 736.477,1467.55 "/>
<polyline clip-path="url(#clip250)" style="stroke:#000000; stroke-linecap:round; stroke-linejoin:round; stroke-width:4; stroke-opacity:1; fill:none" points="1254.52,1486.45 1254.52,1467.55 "/>
<polyline clip-path="url(#clip250)" style="stroke:#000000; stroke-linecap:round; stroke-linejoin:round; stroke-width:4; stroke-opacity:1; fill:none" points="1772.55,1486.45 1772.55,1467.55 "/>
<polyline clip-path="url(#clip250)" style="stroke:#000000; stroke-linecap:round; stroke-linejoin:round; stroke-width:4; stroke-opacity:1; fill:none" points="2290.59,1486.45 2290.59,1467.55 "/>
<path clip-path="url(#clip250)" d="M164.967 1532.02 L194.643 1532.02 L194.643 1535.95 L164.967 1535.95 L164.967 1532.02 Z" fill="#000000" fill-rule="nonzero" fill-opacity="1" /><path clip-path="url(#clip250)" d="M205.545 1544.91 L213.184 1544.91 L213.184 1518.55 L204.874 1520.21 L204.874 1515.95 L213.138 1514.29 L217.814 1514.29 L217.814 1544.91 L225.453 1544.91 L225.453 1548.85 L205.545 1548.85 L205.545 1544.91 Z" fill="#000000" fill-rule="nonzero" fill-opacity="1" /><path clip-path="url(#clip250)" d="M234.897 1542.97 L239.781 1542.97 L239.781 1548.85 L234.897 1548.85 L234.897 1542.97 Z" fill="#000000" fill-rule="nonzero" fill-opacity="1" /><path clip-path="url(#clip250)" d="M259.966 1517.37 Q256.355 1517.37 254.527 1520.93 Q252.721 1524.47 252.721 1531.6 Q252.721 1538.71 254.527 1542.27 Q256.355 1545.82 259.966 1545.82 Q263.601 1545.82 265.406 1542.27 Q267.235 1538.71 267.235 1531.6 Q267.235 1524.47 265.406 1520.93 Q263.601 1517.37 259.966 1517.37 M259.966 1513.66 Q265.776 1513.66 268.832 1518.27 Q271.911 1522.85 271.911 1531.6 Q271.911 1540.33 268.832 1544.94 Q265.776 1549.52 259.966 1549.52 Q254.156 1549.52 251.077 1544.94 Q248.022 1540.33 248.022 1531.6 Q248.022 1522.85 251.077 1518.27 Q254.156 1513.66 259.966 1513.66 Z" fill="#000000" fill-rule="nonzero" fill-opacity="1" /><path clip-path="url(#clip250)" d="M683.503 1532.02 L713.178 1532.02 L713.178 1535.95 L683.503 1535.95 L683.503 1532.02 Z" fill="#000000" fill-rule="nonzero" fill-opacity="1" /><path clip-path="url(#clip250)" d="M733.271 1517.37 Q729.66 1517.37 727.831 1520.93 Q726.026 1524.47 726.026 1531.6 Q726.026 1538.71 727.831 1542.27 Q729.66 1545.82 733.271 1545.82 Q736.905 1545.82 738.711 1542.27 Q740.539 1538.71 740.539 1531.6 Q740.539 1524.47 738.711 1520.93 Q736.905 1517.37 733.271 1517.37 M733.271 1513.66 Q739.081 1513.66 742.137 1518.27 Q745.215 1522.85 745.215 1531.6 Q745.215 1540.33 742.137 1544.94 Q739.081 1549.52 733.271 1549.52 Q727.461 1549.52 724.382 1544.94 Q721.327 1540.33 721.327 1531.6 Q721.327 1522.85 724.382 1518.27 Q727.461 1513.66 733.271 1513.66 Z" fill="#000000" fill-rule="nonzero" fill-opacity="1" /><path clip-path="url(#clip250)" d="M753.433 1542.97 L758.317 1542.97 L758.317 1548.85 L753.433 1548.85 L753.433 1542.97 Z" fill="#000000" fill-rule="nonzero" fill-opacity="1" /><path clip-path="url(#clip250)" d="M768.548 1514.29 L786.905 1514.29 L786.905 1518.22 L772.831 1518.22 L772.831 1526.7 Q773.849 1526.35 774.868 1526.19 Q775.886 1526 776.905 1526 Q782.692 1526 786.072 1529.17 Q789.451 1532.34 789.451 1537.76 Q789.451 1543.34 785.979 1546.44 Q782.507 1549.52 776.187 1549.52 Q774.011 1549.52 771.743 1549.15 Q769.498 1548.78 767.09 1548.04 L767.09 1543.34 Q769.173 1544.47 771.396 1545.03 Q773.618 1545.58 776.095 1545.58 Q780.099 1545.58 782.437 1543.48 Q784.775 1541.37 784.775 1537.76 Q784.775 1534.15 782.437 1532.04 Q780.099 1529.94 776.095 1529.94 Q774.22 1529.94 772.345 1530.35 Q770.493 1530.77 768.548 1531.65 L768.548 1514.29 Z" fill="#000000" fill-rule="nonzero" fill-opacity="1" /><path clip-path="url(#clip250)" d="M1231.9 1517.37 Q1228.29 1517.37 1226.46 1520.93 Q1224.65 1524.47 1224.65 1531.6 Q1224.65 1538.71 1226.46 1542.27 Q1228.29 1545.82 1231.9 1545.82 Q1235.53 1545.82 1237.34 1542.27 Q1239.17 1538.71 1239.17 1531.6 Q1239.17 1524.47 1237.34 1520.93 Q1235.53 1517.37 1231.9 1517.37 M1231.9 1513.66 Q1237.71 1513.66 1240.77 1518.27 Q1243.84 1522.85 1243.84 1531.6 Q1243.84 1540.33 1240.77 1544.94 Q1237.71 1549.52 1231.9 1549.52 Q1226.09 1549.52 1223.01 1544.94 Q1219.96 1540.33 1219.96 1531.6 Q1219.96 1522.85 1223.01 1518.27 Q1226.09 1513.66 1231.9 1513.66 Z" fill="#000000" fill-rule="nonzero" fill-opacity="1" /><path clip-path="url(#clip250)" d="M1252.06 1542.97 L1256.95 1542.97 L1256.95 1548.85 L1252.06 1548.85 L1252.06 1542.97 Z" fill="#000000" fill-rule="nonzero" fill-opacity="1" /><path clip-path="url(#clip250)" d="M1277.13 1517.37 Q1273.52 1517.37 1271.69 1520.93 Q1269.89 1524.47 1269.89 1531.6 Q1269.89 1538.71 1271.69 1542.27 Q1273.52 1545.82 1277.13 1545.82 Q1280.76 1545.82 1282.57 1542.27 Q1284.4 1538.71 1284.4 1531.6 Q1284.4 1524.47 1282.57 1520.93 Q1280.76 1517.37 1277.13 1517.37 M1277.13 1513.66 Q1282.94 1513.66 1286 1518.27 Q1289.08 1522.85 1289.08 1531.6 Q1289.08 1540.33 1286 1544.94 Q1282.94 1549.52 1277.13 1549.52 Q1271.32 1549.52 1268.24 1544.94 Q1265.19 1540.33 1265.19 1531.6 Q1265.19 1522.85 1268.24 1518.27 Q1271.32 1513.66 1277.13 1513.66 Z" fill="#000000" fill-rule="nonzero" fill-opacity="1" /><path clip-path="url(#clip250)" d="M1750.44 1517.37 Q1746.82 1517.37 1745 1520.93 Q1743.19 1524.47 1743.19 1531.6 Q1743.19 1538.71 1745 1542.27 Q1746.82 1545.82 1750.44 1545.82 Q1754.07 1545.82 1755.88 1542.27 Q1757.7 1538.71 1757.7 1531.6 Q1757.7 1524.47 1755.88 1520.93 Q1754.07 1517.37 1750.44 1517.37 M1750.44 1513.66 Q1756.25 1513.66 1759.3 1518.27 Q1762.38 1522.85 1762.38 1531.6 Q1762.38 1540.33 1759.3 1544.94 Q1756.25 1549.52 1750.44 1549.52 Q1744.63 1549.52 1741.55 1544.94 Q1738.49 1540.33 1738.49 1531.6 Q1738.49 1522.85 1741.55 1518.27 Q1744.63 1513.66 1750.44 1513.66 Z" fill="#000000" fill-rule="nonzero" fill-opacity="1" /><path clip-path="url(#clip250)" d="M1770.6 1542.97 L1775.48 1542.97 L1775.48 1548.85 L1770.6 1548.85 L1770.6 1542.97 Z" fill="#000000" fill-rule="nonzero" fill-opacity="1" /><path clip-path="url(#clip250)" d="M1785.71 1514.29 L1804.07 1514.29 L1804.07 1518.22 L1790 1518.22 L1790 1526.7 Q1791.01 1526.35 1792.03 1526.19 Q1793.05 1526 1794.07 1526 Q1799.86 1526 1803.24 1529.17 Q1806.62 1532.34 1806.62 1537.76 Q1806.62 1543.34 1803.14 1546.44 Q1799.67 1549.52 1793.35 1549.52 Q1791.18 1549.52 1788.91 1549.15 Q1786.66 1548.78 1784.25 1548.04 L1784.25 1543.34 Q1786.34 1544.47 1788.56 1545.03 Q1790.78 1545.58 1793.26 1545.58 Q1797.26 1545.58 1799.6 1543.48 Q1801.94 1541.37 1801.94 1537.76 Q1801.94 1534.15 1799.6 1532.04 Q1797.26 1529.94 1793.26 1529.94 Q1791.38 1529.94 1789.51 1530.35 Q1787.66 1530.77 1785.71 1531.65 L1785.71 1514.29 Z" fill="#000000" fill-rule="nonzero" fill-opacity="1" /><path clip-path="url(#clip250)" d="M2257.74 1544.91 L2265.38 1544.91 L2265.38 1518.55 L2257.07 1520.21 L2257.07 1515.95 L2265.34 1514.29 L2270.01 1514.29 L2270.01 1544.91 L2277.65 1544.91 L2277.65 1548.85 L2257.74 1548.85 L2257.74 1544.91 Z" fill="#000000" fill-rule="nonzero" fill-opacity="1" /><path clip-path="url(#clip250)" d="M2287.1 1542.97 L2291.98 1542.97 L2291.98 1548.85 L2287.1 1548.85 L2287.1 1542.97 Z" fill="#000000" fill-rule="nonzero" fill-opacity="1" /><path clip-path="url(#clip250)" d="M2312.17 1517.37 Q2308.55 1517.37 2306.73 1520.93 Q2304.92 1524.47 2304.92 1531.6 Q2304.92 1538.71 2306.73 1542.27 Q2308.55 1545.82 2312.17 1545.82 Q2315.8 1545.82 2317.61 1542.27 Q2319.43 1538.71 2319.43 1531.6 Q2319.43 1524.47 2317.61 1520.93 Q2315.8 1517.37 2312.17 1517.37 M2312.17 1513.66 Q2317.98 1513.66 2321.03 1518.27 Q2324.11 1522.85 2324.11 1531.6 Q2324.11 1540.33 2321.03 1544.94 Q2317.98 1549.52 2312.17 1549.52 Q2306.36 1549.52 2303.28 1544.94 Q2300.22 1540.33 2300.22 1531.6 Q2300.22 1522.85 2303.28 1518.27 Q2306.36 1513.66 2312.17 1513.66 Z" fill="#000000" fill-rule="nonzero" fill-opacity="1" /><polyline clip-path="url(#clip252)" style="stroke:#000000; stroke-linecap:round; stroke-linejoin:round; stroke-width:2; stroke-opacity:0.1; fill:none" points="156.274,1254.73 2352.76,1254.73 "/>
<polyline clip-path="url(#clip252)" style="stroke:#000000; stroke-linecap:round; stroke-linejoin:round; stroke-width:2; stroke-opacity:0.1; fill:none" points="156.274,980.911 2352.76,980.911 "/>
<polyline clip-path="url(#clip252)" style="stroke:#000000; stroke-linecap:round; stroke-linejoin:round; stroke-width:2; stroke-opacity:0.1; fill:none" points="156.274,707.093 2352.76,707.093 "/>
<polyline clip-path="url(#clip252)" style="stroke:#000000; stroke-linecap:round; stroke-linejoin:round; stroke-width:2; stroke-opacity:0.1; fill:none" points="156.274,433.275 2352.76,433.275 "/>
<polyline clip-path="url(#clip252)" style="stroke:#000000; stroke-linecap:round; stroke-linejoin:round; stroke-width:2; stroke-opacity:0.1; fill:none" points="156.274,159.456 2352.76,159.456 "/>
<polyline clip-path="url(#clip250)" style="stroke:#000000; stroke-linecap:round; stroke-linejoin:round; stroke-width:4; stroke-opacity:1; fill:none" points="156.274,1486.45 156.274,47.2441 "/>
<polyline clip-path="url(#clip250)" style="stroke:#000000; stroke-linecap:round; stroke-linejoin:round; stroke-width:4; stroke-opacity:1; fill:none" points="156.274,1254.73 175.172,1254.73 "/>
<polyline clip-path="url(#clip250)" style="stroke:#000000; stroke-linecap:round; stroke-linejoin:round; stroke-width:4; stroke-opacity:1; fill:none" points="156.274,980.911 175.172,980.911 "/>
<polyline clip-path="url(#clip250)" style="stroke:#000000; stroke-linecap:round; stroke-linejoin:round; stroke-width:4; stroke-opacity:1; fill:none" points="156.274,707.093 175.172,707.093 "/>
<polyline clip-path="url(#clip250)" style="stroke:#000000; stroke-linecap:round; stroke-linejoin:round; stroke-width:4; stroke-opacity:1; fill:none" points="156.274,433.275 175.172,433.275 "/>
<polyline clip-path="url(#clip250)" style="stroke:#000000; stroke-linecap:round; stroke-linejoin:round; stroke-width:4; stroke-opacity:1; fill:none" points="156.274,159.456 175.172,159.456 "/>
<path clip-path="url(#clip250)" d="M63.0985 1240.53 Q59.4875 1240.53 57.6588 1244.09 Q55.8532 1247.63 55.8532 1254.76 Q55.8532 1261.87 57.6588 1265.44 Q59.4875 1268.98 63.0985 1268.98 Q66.7328 1268.98 68.5383 1265.44 Q70.367 1261.87 70.367 1254.76 Q70.367 1247.63 68.5383 1244.09 Q66.7328 1240.53 63.0985 1240.53 M63.0985 1236.82 Q68.9087 1236.82 71.9642 1241.43 Q75.0429 1246.01 75.0429 1254.76 Q75.0429 1263.49 71.9642 1268.1 Q68.9087 1272.68 63.0985 1272.68 Q57.2884 1272.68 54.2097 1268.1 Q51.1542 1263.49 51.1542 1254.76 Q51.1542 1246.01 54.2097 1241.43 Q57.2884 1236.82 63.0985 1236.82 Z" fill="#000000" fill-rule="nonzero" fill-opacity="1" /><path clip-path="url(#clip250)" d="M83.2605 1266.13 L88.1447 1266.13 L88.1447 1272.01 L83.2605 1272.01 L83.2605 1266.13 Z" fill="#000000" fill-rule="nonzero" fill-opacity="1" /><path clip-path="url(#clip250)" d="M108.33 1240.53 Q104.719 1240.53 102.89 1244.09 Q101.084 1247.63 101.084 1254.76 Q101.084 1261.87 102.89 1265.44 Q104.719 1268.98 108.33 1268.98 Q111.964 1268.98 113.77 1265.44 Q115.598 1261.87 115.598 1254.76 Q115.598 1247.63 113.77 1244.09 Q111.964 1240.53 108.33 1240.53 M108.33 1236.82 Q114.14 1236.82 117.195 1241.43 Q120.274 1246.01 120.274 1254.76 Q120.274 1263.49 117.195 1268.1 Q114.14 1272.68 108.33 1272.68 Q102.52 1272.68 99.4409 1268.1 Q96.3854 1263.49 96.3854 1254.76 Q96.3854 1246.01 99.4409 1241.43 Q102.52 1236.82 108.33 1236.82 Z" fill="#000000" fill-rule="nonzero" fill-opacity="1" /><path clip-path="url(#clip250)" d="M63.7467 966.71 Q60.1356 966.71 58.3069 970.275 Q56.5014 973.816 56.5014 980.946 Q56.5014 988.052 58.3069 991.617 Q60.1356 995.159 63.7467 995.159 Q67.3809 995.159 69.1865 991.617 Q71.0152 988.052 71.0152 980.946 Q71.0152 973.816 69.1865 970.275 Q67.3809 966.71 63.7467 966.71 M63.7467 963.006 Q69.5568 963.006 72.6124 967.613 Q75.6911 972.196 75.6911 980.946 Q75.6911 989.673 72.6124 994.279 Q69.5568 998.862 63.7467 998.862 Q57.9365 998.862 54.8578 994.279 Q51.8023 989.673 51.8023 980.946 Q51.8023 972.196 54.8578 967.613 Q57.9365 963.006 63.7467 963.006 Z" fill="#000000" fill-rule="nonzero" fill-opacity="1" /><path clip-path="url(#clip250)" d="M83.9086 992.312 L88.7928 992.312 L88.7928 998.191 L83.9086 998.191 L83.9086 992.312 Z" fill="#000000" fill-rule="nonzero" fill-opacity="1" /><path clip-path="url(#clip250)" d="M113.145 979.557 Q116.501 980.275 118.376 982.543 Q120.274 984.812 120.274 988.145 Q120.274 993.261 116.756 996.062 Q113.237 998.862 106.756 998.862 Q104.58 998.862 102.265 998.423 Q99.9733 998.006 97.5197 997.15 L97.5197 992.636 Q99.4641 993.77 101.779 994.349 Q104.094 994.927 106.617 994.927 Q111.015 994.927 113.307 993.191 Q115.621 991.455 115.621 988.145 Q115.621 985.089 113.469 983.376 Q111.339 981.64 107.52 981.64 L103.492 981.64 L103.492 977.798 L107.705 977.798 Q111.154 977.798 112.983 976.432 Q114.811 975.043 114.811 972.451 Q114.811 969.789 112.913 968.377 Q111.038 966.941 107.52 966.941 Q105.598 966.941 103.399 967.358 Q101.2 967.775 98.5613 968.654 L98.5613 964.488 Q101.223 963.747 103.538 963.377 Q105.876 963.006 107.936 963.006 Q113.26 963.006 116.362 965.437 Q119.464 967.844 119.464 971.964 Q119.464 974.835 117.82 976.826 Q116.177 978.793 113.145 979.557 Z" fill="#000000" fill-rule="nonzero" fill-opacity="1" /><path clip-path="url(#clip250)" d="M62.9365 692.892 Q59.3254 692.892 57.4967 696.456 Q55.6912 699.998 55.6912 707.128 Q55.6912 714.234 57.4967 717.799 Q59.3254 721.341 62.9365 721.341 Q66.5707 721.341 68.3763 717.799 Q70.205 714.234 70.205 707.128 Q70.205 699.998 68.3763 696.456 Q66.5707 692.892 62.9365 692.892 M62.9365 689.188 Q68.7467 689.188 71.8022 693.794 Q74.8809 698.378 74.8809 707.128 Q74.8809 715.854 71.8022 720.461 Q68.7467 725.044 62.9365 725.044 Q57.1264 725.044 54.0477 720.461 Q50.9921 715.854 50.9921 707.128 Q50.9921 698.378 54.0477 693.794 Q57.1264 689.188 62.9365 689.188 Z" fill="#000000" fill-rule="nonzero" fill-opacity="1" /><path clip-path="url(#clip250)" d="M83.0984 718.493 L87.9827 718.493 L87.9827 724.373 L83.0984 724.373 L83.0984 718.493 Z" fill="#000000" fill-rule="nonzero" fill-opacity="1" /><path clip-path="url(#clip250)" d="M108.746 705.23 Q105.598 705.23 103.746 707.382 Q101.918 709.535 101.918 713.285 Q101.918 717.012 103.746 719.188 Q105.598 721.341 108.746 721.341 Q111.895 721.341 113.723 719.188 Q115.575 717.012 115.575 713.285 Q115.575 709.535 113.723 707.382 Q111.895 705.23 108.746 705.23 M118.029 690.577 L118.029 694.836 Q116.27 694.003 114.464 693.563 Q112.682 693.123 110.922 693.123 Q106.293 693.123 103.839 696.248 Q101.409 699.373 101.061 705.692 Q102.427 703.679 104.487 702.614 Q106.547 701.526 109.024 701.526 Q114.233 701.526 117.242 704.697 Q120.274 707.845 120.274 713.285 Q120.274 718.609 117.126 721.827 Q113.978 725.044 108.746 725.044 Q102.751 725.044 99.5798 720.461 Q96.4085 715.854 96.4085 707.128 Q96.4085 698.933 100.297 694.072 Q104.186 689.188 110.737 689.188 Q112.496 689.188 114.279 689.535 Q116.084 689.882 118.029 690.577 Z" fill="#000000" fill-rule="nonzero" fill-opacity="1" /><path clip-path="url(#clip250)" d="M63.2837 419.073 Q59.6726 419.073 57.8439 422.638 Q56.0384 426.18 56.0384 433.309 Q56.0384 440.416 57.8439 443.981 Q59.6726 447.522 63.2837 447.522 Q66.918 447.522 68.7235 443.981 Q70.5522 440.416 70.5522 433.309 Q70.5522 426.18 68.7235 422.638 Q66.918 419.073 63.2837 419.073 M63.2837 415.37 Q69.0939 415.37 72.1494 419.976 Q75.2281 424.559 75.2281 433.309 Q75.2281 442.036 72.1494 446.643 Q69.0939 451.226 63.2837 451.226 Q57.4736 451.226 54.3949 446.643 Q51.3393 442.036 51.3393 433.309 Q51.3393 424.559 54.3949 419.976 Q57.4736 415.37 63.2837 415.37 Z" fill="#000000" fill-rule="nonzero" fill-opacity="1" /><path clip-path="url(#clip250)" d="M83.4457 444.675 L88.3299 444.675 L88.3299 450.555 L83.4457 450.555 L83.4457 444.675 Z" fill="#000000" fill-rule="nonzero" fill-opacity="1" /><path clip-path="url(#clip250)" d="M98.6539 449.837 L98.6539 445.578 Q100.413 446.411 102.219 446.851 Q104.024 447.291 105.76 447.291 Q110.39 447.291 112.82 444.189 Q115.274 441.064 115.621 434.721 Q114.279 436.712 112.219 437.777 Q110.158 438.842 107.658 438.842 Q102.473 438.842 99.4409 435.717 Q96.4317 432.569 96.4317 427.129 Q96.4317 421.805 99.5798 418.587 Q102.728 415.37 107.959 415.37 Q113.955 415.37 117.103 419.976 Q120.274 424.559 120.274 433.309 Q120.274 441.481 116.385 446.365 Q112.52 451.226 105.969 451.226 Q104.209 451.226 102.404 450.879 Q100.598 450.532 98.6539 449.837 M107.959 435.184 Q111.108 435.184 112.936 433.032 Q114.788 430.879 114.788 427.129 Q114.788 423.402 112.936 421.249 Q111.108 419.073 107.959 419.073 Q104.811 419.073 102.959 421.249 Q101.131 423.402 101.131 427.129 Q101.131 430.879 102.959 433.032 Q104.811 435.184 107.959 435.184 Z" fill="#000000" fill-rule="nonzero" fill-opacity="1" /><path clip-path="url(#clip250)" d="M55.506 172.801 L63.1448 172.801 L63.1448 146.436 L54.8347 148.102 L54.8347 143.843 L63.0985 142.176 L67.7744 142.176 L67.7744 172.801 L75.4133 172.801 L75.4133 176.736 L55.506 176.736 L55.506 172.801 Z" fill="#000000" fill-rule="nonzero" fill-opacity="1" /><path clip-path="url(#clip250)" d="M84.8577 170.857 L89.7419 170.857 L89.7419 176.736 L84.8577 176.736 L84.8577 170.857 Z" fill="#000000" fill-rule="nonzero" fill-opacity="1" /><path clip-path="url(#clip250)" d="M103.955 172.801 L120.274 172.801 L120.274 176.736 L98.3298 176.736 L98.3298 172.801 Q100.992 170.047 105.575 165.417 Q110.182 160.764 111.362 159.422 Q113.608 156.899 114.487 155.163 Q115.39 153.403 115.39 151.713 Q115.39 148.959 113.445 147.223 Q111.524 145.487 108.422 145.487 Q106.223 145.487 103.77 146.251 Q101.339 147.014 98.5613 148.565 L98.5613 143.843 Q101.385 142.709 103.839 142.13 Q106.293 141.551 108.33 141.551 Q113.7 141.551 116.895 144.237 Q120.089 146.922 120.089 151.413 Q120.089 153.542 119.279 155.463 Q118.492 157.362 116.385 159.954 Q115.807 160.625 112.705 163.843 Q109.603 167.037 103.955 172.801 Z" fill="#000000" fill-rule="nonzero" fill-opacity="1" /><polyline clip-path="url(#clip252)" style="stroke:#009af9; stroke-linecap:round; stroke-linejoin:round; stroke-width:16; stroke-opacity:1; fill:none" stroke-dasharray="8, 16" points="218.439,1117.15 228.852,1102.04 239.264,1088.75 249.677,1078.74 260.09,1073.52 270.503,1074.32 280.916,1081.87 291.329,1096.19 301.741,1116.62 312.154,1141.99 322.567,1170.91 332.98,1202.02 343.393,1234.19 353.805,1266.48 364.218,1298.16 374.631,1328.58 385.044,1357.06 395.457,1382.84 405.87,1404.95 416.282,1422.09 426.695,1432.65 437.108,1435.1 447.521,1429.47 457.934,1419.77 468.347,1412.62 478.759,1407.23 489.172,1393.17 499.585,1364.57 509.998,1325.26 520.411,1282.97 530.824,1244.27 541.236,1212.42 551.649,1187.14 562.062,1165.7 572.475,1144.62 582.888,1121.71 593.301,1097.98 603.713,1077.89 614.126,1066.64 624.539,1066.2 634.952,1074.64 645.365,1088.83 655.777,1106.64 666.19,1127.29 676.603,1150.8 687.016,1177.38 697.429,1207.03 707.842,1239.32 718.254,1273.25 728.667,1307.25 739.08,1339.45 749.493,1367.97 759.906,1391.41 770.319,1409.13 780.731,1421.46 791.144,1429.58 801.557,1434.42 811.97,1435.29 822.383,1429.9 832.796,1416.46 843.208,1395.51 853.621,1369.57 864.034,1341.18 874.447,1311.58 884.86,1280.52 895.273,1247.03 905.685,1211.45 916.098,1177.69 926.511,1150.24 936.924,1128.2 947.337,1106.42 957.749,1083.44 968.162,1066.11 978.575,1070.43 988.988,1099.88 999.401,1121.96 1009.81,1120.4 1020.23,1112.13 1030.64,1116.65 1041.05,1131.6 1051.46,1169.6 1061.88,1215.85 1072.29,1249.8 1082.7,1275.15 1093.12,1305.75 1103.53,1342.63 1113.94,1378.21 1124.35,1405.99 1134.77,1423.88 1145.18,1431.32 1155.59,1424.34 1166.01,1398.48 1176.42,1377.5 1186.83,1402.01 1197.24,1435.37 1207.66,1445.72 1218.07,1427.12 1228.48,1366.22 1238.9,1254.85 1249.31,1047.2 1259.72,674.202 1270.13,388.622 1280.55,315.492 1290.96,312.082 1301.37,337.914 1311.79,355.662 1322.2,357.798 1332.61,349.68 1343.02,337.821 1353.44,326.955 1363.85,320.383 1374.26,320.088 1384.68,326.37 1395.09,335.972 1405.5,332.185 1415.91,291.452 1426.33,266.589 1436.74,322.031 1447.15,398.031 1457.57,392.414 1467.98,337.996 1478.39,296.714 1488.8,286.445 1499.22,287.256 1509.63,281.657 1520.04,298.399 1530.45,364.308 1540.87,446.351 1551.28,483.679 1561.69,458.36 1572.11,396.253 1582.52,328.713 1592.93,274.108 1603.34,245.329 1613.76,247.291 1624.17,273.21 1634.58,311.824 1645,353.783 1655.41,391.898 1665.82,419.93 1676.23,432.48 1686.65,425.431 1697.06,395.919 1707.47,342.933 1717.89,273.493 1728.3,216.331 1738.71,210.486 1749.12,255.624 1759.54,323.169 1769.95,389.69 1780.36,438.251 1790.78,459.863 1801.19,453.849 1811.6,424.063 1822.01,375.066 1832.43,310.86 1842.84,237.582 1853.25,176.054 1863.67,178.068 1874.08,261.493 1884.49,366.936 1894.9,450.062 1905.32,495.487 1915.73,498.171 1926.14,463.295 1936.56,405.187 1946.97,335.707 1957.38,262.493 1967.79,196.316 1978.21,158.256 1988.62,176.286 1999.03,257.387 2009.45,369.536 2019.86,471.407 2030.27,534.934 2040.68,545.973 2051.1,503.418 2061.51,416.052 2071.92,302.221 2082.33,195.349 2092.75,136.889 2103.16,143.022 2113.57,193.076 2123.99,288.943 2134.4,430.393 2144.81,540.269 2155.22,585.328 2165.64,565.72 2176.05,488 2186.46,367.269 2196.88,234.57 2207.29,137.059 2217.7,113.141 2228.11,159.917 2238.53,244.963 2248.94,336.916 2259.35,417.529 2269.77,481.335 2280.18,530.492 2290.59,569.149 "/>
<polyline clip-path="url(#clip252)" style="stroke:#e26f46; stroke-linecap:round; stroke-linejoin:round; stroke-width:4; stroke-opacity:1; fill:none" points="218.439,1117.64 228.852,1098.19 239.264,1083.85 249.677,1075.09 260.09,1072.18 270.503,1075.24 280.916,1084.16 291.329,1098.64 301.741,1118.21 312.154,1142.25 322.567,1169.95 332.98,1200.42 343.393,1232.66 353.805,1265.62 364.218,1298.23 374.631,1329.42 385.044,1358.17 395.457,1383.54 405.87,1404.71 416.282,1420.99 426.695,1431.84 437.108,1436.9 447.521,1436.03 457.934,1429.23 468.347,1416.74 478.759,1398.96 489.172,1376.48 499.585,1350.02 509.998,1320.45 520.411,1288.74 530.824,1255.91 541.236,1223.05 551.649,1191.22 562.062,1161.47 572.475,1134.76 582.888,1111.96 593.301,1093.82 603.713,1080.94 614.126,1073.73 624.539,1072.42 634.952,1077.06 645.365,1087.51 655.777,1103.41 666.19,1124.25 676.603,1149.35 687.016,1177.88 697.429,1208.93 707.842,1241.47 718.254,1274.44 728.667,1306.77 739.08,1337.4 749.493,1365.34 759.906,1389.66 770.319,1409.58 780.731,1424.44 791.144,1433.77 801.557,1437.25 811.97,1434.78 822.383,1426.43 832.796,1412.48 843.208,1393.37 853.621,1369.75 864.034,1342.36 874.447,1312.12 884.86,1280.01 895.273,1247.07 905.685,1214.38 916.098,1183.01 926.511,1153.97 936.924,1128.23 947.337,1106.62 957.749,1089.84 968.162,1078.44 978.575,1072.79 988.988,1073.08 999.401,1079.3 1009.81,1091.25 1020.23,1108.53 1030.64,1130.59 1041.05,1156.69 1051.46,1186 1061.88,1217.54 1072.29,1250.31 1082.7,1283.21 1093.12,1315.19 1103.53,1345.19 1113.94,1372.24 1124.35,1395.46 1134.77,1414.08 1145.18,1427.5 1155.59,1435.28 1166.01,1437.17 1176.42,1433.11 1186.83,1423.22 1197.24,1407.84 1207.66,1387.46 1218.07,1362.74 1228.48,1334.5 1238.9,1303.66 1249.31,1271.22 1259.72,340.676 1270.13,339.168 1280.55,340.541 1290.96,345.111 1301.37,351.478 1311.79,356.952 1322.2,358.573 1332.61,354.362 1343.02,344.321 1353.44,330.786 1363.85,317.907 1374.26,310.383 1384.68,311.826 1395.09,323.306 1405.5,342.615 1415.91,364.59 1426.33,382.485 1436.74,390.034 1447.15,383.572 1457.57,363.523 1467.98,334.686 1478.39,305.132 1488.8,283.951 1499.22,278.464 1509.63,291.765 1520.04,321.4 1530.45,359.673 1540.87,395.625 1551.28,418.173 1561.69,419.508 1572.11,397.724 1582.52,357.801 1592.93,310.543 1603.34,269.664 1613.76,247.812 1624.17,252.671 1634.58,284.352 1645,334.929 1655.41,390.374 1665.82,434.447 1676.23,453.449 1686.65,440.455 1697.06,397.727 1707.47,336.486 1717.89,273.991 1728.3,228.676 1738.71,214.721 1749.12,237.637 1759.54,292.256 1769.95,363.81 1780.36,431.902 1790.78,476.327 1801.19,483.055 1811.6,448.633 1822.01,381.608 1832.43,300.458 1842.84,228.512 1853.25,187.238 1863.67,189.847 1874.08,237.112 1884.49,316.702 1894.9,406.372 1905.32,480.173 1915.73,515.959 1926.14,502.023 1936.56,440.872 1946.97,348.93 1957.38,252.157 1967.79,178.715 1978.21,150.778 1988.62,177.851 1999.03,253.612 2009.45,357.315 2019.86,459.451 2030.27,530.148 2040.68,547.906 2051.1,506.111 2061.51,415.374 2071.92,300.882 2082.33,195.417 2092.75,129.967 2103.16,124.628 2113.57,182.458 2123.99,288.16 2134.4,412.098 2144.81,518.603 2155.22,576.235 2165.64,567.059 2176.05,492.196 2186.46,371.932 2196.88,240.246 2207.29,135.208 2217.7,87.9763 2228.11,113.563 2238.53,206.107 2248.94,340.128 2259.35,477.529 2269.77,578.428 2280.18,612.727 2290.59,569.082 "/>
<path clip-path="url(#clip250)" d="M229.49 250.738 L675.966 250.738 L675.966 95.2176 L229.49 95.2176  Z" fill="#ffffff" fill-rule="evenodd" fill-opacity="1"/>
<polyline clip-path="url(#clip250)" style="stroke:#000000; stroke-linecap:round; stroke-linejoin:round; stroke-width:4; stroke-opacity:1; fill:none" points="229.49,250.738 675.966,250.738 675.966,95.2176 229.49,95.2176 229.49,250.738 "/>
<polyline clip-path="url(#clip250)" style="stroke:#009af9; stroke-linecap:round; stroke-linejoin:round; stroke-width:16; stroke-opacity:1; fill:none" stroke-dasharray="8, 16" points="253.896,147.058 400.328,147.058 "/>
<path clip-path="url(#clip250)" d="M429.409 133.62 L429.409 146.606 L435.289 146.606 Q438.552 146.606 440.335 144.916 Q442.117 143.227 442.117 140.102 Q442.117 137 440.335 135.31 Q438.552 133.62 435.289 133.62 L429.409 133.62 M424.733 129.778 L435.289 129.778 Q441.099 129.778 444.062 132.416 Q447.048 135.032 447.048 140.102 Q447.048 145.217 444.062 147.833 Q441.099 150.449 435.289 150.449 L429.409 150.449 L429.409 164.338 L424.733 164.338 L424.733 129.778 Z" fill="#000000" fill-rule="nonzero" fill-opacity="1" /><path clip-path="url(#clip250)" d="M467.325 142.393 Q466.608 141.977 465.751 141.791 Q464.918 141.583 463.899 141.583 Q460.288 141.583 458.344 143.944 Q456.423 146.282 456.423 150.68 L456.423 164.338 L452.14 164.338 L452.14 138.412 L456.423 138.412 L456.423 142.44 Q457.765 140.078 459.918 138.944 Q462.071 137.787 465.149 137.787 Q465.589 137.787 466.122 137.856 Q466.654 137.903 467.302 138.018 L467.325 142.393 Z" fill="#000000" fill-rule="nonzero" fill-opacity="1" /><path clip-path="url(#clip250)" d="M492.927 150.31 L492.927 152.393 L473.344 152.393 Q473.622 156.791 475.983 159.106 Q478.367 161.398 482.603 161.398 Q485.057 161.398 487.348 160.796 Q489.663 160.194 491.932 158.99 L491.932 163.018 Q489.64 163.99 487.233 164.5 Q484.825 165.009 482.348 165.009 Q476.145 165.009 472.511 161.398 Q468.899 157.787 468.899 151.629 Q468.899 145.264 472.325 141.537 Q475.774 137.787 481.608 137.787 Q486.839 137.787 489.872 141.166 Q492.927 144.523 492.927 150.31 M488.668 149.06 Q488.622 145.565 486.7 143.481 Q484.802 141.398 481.654 141.398 Q478.089 141.398 475.936 143.412 Q473.807 145.426 473.483 149.083 L488.668 149.06 Z" fill="#000000" fill-rule="nonzero" fill-opacity="1" /><path clip-path="url(#clip250)" d="M516.978 142.347 L516.978 128.319 L521.237 128.319 L521.237 164.338 L516.978 164.338 L516.978 160.449 Q515.635 162.763 513.575 163.898 Q511.538 165.009 508.668 165.009 Q503.969 165.009 501.006 161.259 Q498.066 157.509 498.066 151.398 Q498.066 145.287 501.006 141.537 Q503.969 137.787 508.668 137.787 Q511.538 137.787 513.575 138.921 Q515.635 140.032 516.978 142.347 M502.464 151.398 Q502.464 156.097 504.385 158.782 Q506.33 161.444 509.709 161.444 Q513.089 161.444 515.033 158.782 Q516.978 156.097 516.978 151.398 Q516.978 146.699 515.033 144.037 Q513.089 141.352 509.709 141.352 Q506.33 141.352 504.385 144.037 Q502.464 146.699 502.464 151.398 Z" fill="#000000" fill-rule="nonzero" fill-opacity="1" /><path clip-path="url(#clip250)" d="M530.01 138.412 L534.269 138.412 L534.269 164.338 L530.01 164.338 L530.01 138.412 M530.01 128.319 L534.269 128.319 L534.269 133.713 L530.01 133.713 L530.01 128.319 Z" fill="#000000" fill-rule="nonzero" fill-opacity="1" /><path clip-path="url(#clip250)" d="M561.839 139.407 L561.839 143.389 Q560.033 142.393 558.205 141.907 Q556.399 141.398 554.547 141.398 Q550.404 141.398 548.112 144.037 Q545.82 146.652 545.82 151.398 Q545.82 156.143 548.112 158.782 Q550.404 161.398 554.547 161.398 Q556.399 161.398 558.205 160.912 Q560.033 160.402 561.839 159.407 L561.839 163.342 Q560.056 164.176 558.135 164.592 Q556.237 165.009 554.084 165.009 Q548.228 165.009 544.779 161.328 Q541.33 157.648 541.33 151.398 Q541.33 145.055 544.802 141.421 Q548.297 137.787 554.362 137.787 Q556.33 137.787 558.205 138.203 Q560.08 138.597 561.839 139.407 Z" fill="#000000" fill-rule="nonzero" fill-opacity="1" /><path clip-path="url(#clip250)" d="M573.459 131.051 L573.459 138.412 L582.232 138.412 L582.232 141.722 L573.459 141.722 L573.459 155.796 Q573.459 158.967 574.316 159.87 Q575.195 160.773 577.857 160.773 L582.232 160.773 L582.232 164.338 L577.857 164.338 Q572.927 164.338 571.052 162.509 Q569.177 160.657 569.177 155.796 L569.177 141.722 L566.052 141.722 L566.052 138.412 L569.177 138.412 L569.177 131.051 L573.459 131.051 Z" fill="#000000" fill-rule="nonzero" fill-opacity="1" /><path clip-path="url(#clip250)" d="M587.834 138.412 L592.093 138.412 L592.093 164.338 L587.834 164.338 L587.834 138.412 M587.834 128.319 L592.093 128.319 L592.093 133.713 L587.834 133.713 L587.834 128.319 Z" fill="#000000" fill-rule="nonzero" fill-opacity="1" /><path clip-path="url(#clip250)" d="M611.051 141.398 Q607.626 141.398 605.635 144.083 Q603.644 146.745 603.644 151.398 Q603.644 156.051 605.612 158.736 Q607.602 161.398 611.051 161.398 Q614.454 161.398 616.445 158.713 Q618.436 156.027 618.436 151.398 Q618.436 146.791 616.445 144.106 Q614.454 141.398 611.051 141.398 M611.051 137.787 Q616.607 137.787 619.778 141.398 Q622.95 145.009 622.95 151.398 Q622.95 157.764 619.778 161.398 Q616.607 165.009 611.051 165.009 Q605.473 165.009 602.302 161.398 Q599.153 157.764 599.153 151.398 Q599.153 145.009 602.302 141.398 Q605.473 137.787 611.051 137.787 Z" fill="#000000" fill-rule="nonzero" fill-opacity="1" /><path clip-path="url(#clip250)" d="M651.561 148.689 L651.561 164.338 L647.301 164.338 L647.301 148.828 Q647.301 145.148 645.866 143.319 Q644.431 141.49 641.561 141.49 Q638.112 141.49 636.121 143.69 Q634.13 145.889 634.13 149.685 L634.13 164.338 L629.848 164.338 L629.848 138.412 L634.13 138.412 L634.13 142.44 Q635.658 140.102 637.718 138.944 Q639.801 137.787 642.51 137.787 Q646.977 137.787 649.269 140.565 Q651.561 143.319 651.561 148.689 Z" fill="#000000" fill-rule="nonzero" fill-opacity="1" /><polyline clip-path="url(#clip250)" style="stroke:#e26f46; stroke-linecap:round; stroke-linejoin:round; stroke-width:4; stroke-opacity:1; fill:none" points="253.896,198.898 400.328,198.898 "/>
<path clip-path="url(#clip250)" d="M424.733 181.618 L446.585 181.618 L446.585 185.553 L429.409 185.553 L429.409 195.784 L445.867 195.784 L445.867 199.719 L429.409 199.719 L429.409 212.242 L447.001 212.242 L447.001 216.178 L424.733 216.178 L424.733 181.618 Z" fill="#000000" fill-rule="nonzero" fill-opacity="1" /><path clip-path="url(#clip250)" d="M476.052 190.252 L466.677 202.867 L476.538 216.178 L471.515 216.178 L463.969 205.992 L456.423 216.178 L451.4 216.178 L461.469 202.613 L452.256 190.252 L457.279 190.252 L464.154 199.488 L471.029 190.252 L476.052 190.252 Z" fill="#000000" fill-rule="nonzero" fill-opacity="1" /><path clip-path="url(#clip250)" d="M494.339 203.145 Q489.177 203.145 487.186 204.326 Q485.196 205.506 485.196 208.354 Q485.196 210.622 486.677 211.965 Q488.182 213.284 490.751 213.284 Q494.293 213.284 496.422 210.784 Q498.575 208.261 498.575 204.094 L498.575 203.145 L494.339 203.145 M502.834 201.386 L502.834 216.178 L498.575 216.178 L498.575 212.242 Q497.117 214.603 494.941 215.738 Q492.765 216.849 489.617 216.849 Q485.635 216.849 483.274 214.627 Q480.936 212.381 480.936 208.631 Q480.936 204.256 483.853 202.034 Q486.793 199.812 492.603 199.812 L498.575 199.812 L498.575 199.395 Q498.575 196.455 496.631 194.858 Q494.71 193.238 491.214 193.238 Q488.992 193.238 486.885 193.77 Q484.779 194.303 482.835 195.367 L482.835 191.432 Q485.173 190.53 487.372 190.09 Q489.571 189.627 491.654 189.627 Q497.279 189.627 500.057 192.543 Q502.834 195.46 502.834 201.386 Z" fill="#000000" fill-rule="nonzero" fill-opacity="1" /><path clip-path="url(#clip250)" d="M530.265 191.247 L530.265 195.229 Q528.459 194.233 526.631 193.747 Q524.825 193.238 522.973 193.238 Q518.83 193.238 516.538 195.877 Q514.246 198.492 514.246 203.238 Q514.246 207.983 516.538 210.622 Q518.83 213.238 522.973 213.238 Q524.825 213.238 526.631 212.752 Q528.459 212.242 530.265 211.247 L530.265 215.182 Q528.482 216.016 526.561 216.432 Q524.663 216.849 522.51 216.849 Q516.654 216.849 513.205 213.168 Q509.756 209.488 509.756 203.238 Q509.756 196.895 513.228 193.261 Q516.723 189.627 522.788 189.627 Q524.756 189.627 526.631 190.043 Q528.506 190.437 530.265 191.247 Z" fill="#000000" fill-rule="nonzero" fill-opacity="1" /><path clip-path="url(#clip250)" d="M541.885 182.891 L541.885 190.252 L550.658 190.252 L550.658 193.562 L541.885 193.562 L541.885 207.636 Q541.885 210.807 542.742 211.71 Q543.621 212.613 546.283 212.613 L550.658 212.613 L550.658 216.178 L546.283 216.178 Q541.353 216.178 539.478 214.349 Q537.603 212.497 537.603 207.636 L537.603 193.562 L534.478 193.562 L534.478 190.252 L537.603 190.252 L537.603 182.891 L541.885 182.891 Z" fill="#000000" fill-rule="nonzero" fill-opacity="1" /></svg>
