<?xml version="1.0" encoding="utf-8"?>
<svg xmlns="http://www.w3.org/2000/svg" xmlns:xlink="http://www.w3.org/1999/xlink" width="600" height="400" viewBox="0 0 2400 1600">
<defs>
  <clipPath id="clip040">
    <rect x="0" y="0" width="2400" height="1600"/>
  </clipPath>
</defs>
<path clip-path="url(#clip040)" d="M0 1600 L2400 1600 L2400 0 L0 0  Z" fill="#ffffff" fill-rule="evenodd" fill-opacity="1"/>
<defs>
  <clipPath id="clip041">
    <rect x="480" y="0" width="1681" height="1600"/>
  </clipPath>
</defs>
<path clip-path="url(#clip040)" d="M156.274 1486.45 L2352.76 1486.45 L2352.76 47.2441 L156.274 47.2441  Z" fill="#ffffff" fill-rule="evenodd" fill-opacity="1"/>
<defs>
  <clipPath id="clip042">
    <rect x="156" y="47" width="2197" height="1440"/>
  </clipPath>
</defs>
<polyline clip-path="url(#clip042)" style="stroke:#000000; stroke-linecap:round; stroke-linejoin:round; stroke-width:2; stroke-opacity:0.1; fill:none" points="218.439,1486.45 218.439,47.2441 "/>
<polyline clip-path="url(#clip042)" style="stroke:#000000; stroke-linecap:round; stroke-linejoin:round; stroke-width:2; stroke-opacity:0.1; fill:none" points="736.477,1486.45 736.477,47.2441 "/>
<polyline clip-path="url(#clip042)" style="stroke:#000000; stroke-linecap:round; stroke-linejoin:round; stroke-width:2; stroke-opacity:0.1; fill:none" points="1254.52,1486.45 1254.52,47.2441 "/>
<polyline clip-path="url(#clip042)" style="stroke:#000000; stroke-linecap:round; stroke-linejoin:round; stroke-width:2; stroke-opacity:0.1; fill:none" points="1772.55,1486.45 1772.55,47.2441 "/>
<polyline clip-path="url(#clip042)" style="stroke:#000000; stroke-linecap:round; stroke-linejoin:round; stroke-width:2; stroke-opacity:0.1; fill:none" points="2290.59,1486.45 2290.59,47.2441 "/>
<polyline clip-path="url(#clip040)" style="stroke:#000000; stroke-linecap:round; stroke-linejoin:round; stroke-width:4; stroke-opacity:1; fill:none" points="156.274,1486.45 2352.76,1486.45 "/>
<polyline clip-path="url(#clip040)" style="stroke:#000000; stroke-linecap:round; stroke-linejoin:round; stroke-width:4; stroke-opacity:1; fill:none" points="218.439,1486.45 218.439,1467.55 "/>
<polyline clip-path="url(#clip040)" style="stroke:#000000; stroke-linecap:round; stroke-linejoin:round; stroke-width:4; stroke-opacity:1; fill:none" points="736.477,1486.45 736.477,1467.55 "/>
<polyline clip-path="url(#clip040)" style="stroke:#000000; stroke-linecap:round; stroke-linejoin:round; stroke-width:4; stroke-opacity:1; fill:none" points="1254.52,1486.45 1254.52,1467.55 "/>
<polyline clip-path="url(#clip040)" style="stroke:#000000; stroke-linecap:round; stroke-linejoin:round; stroke-width:4; stroke-opacity:1; fill:none" points="1772.55,1486.45 1772.55,1467.55 "/>
<polyline clip-path="url(#clip040)" style="stroke:#000000; stroke-linecap:round; stroke-linejoin:round; stroke-width:4; stroke-opacity:1; fill:none" points="2290.59,1486.45 2290.59,1467.55 "/>
<path clip-path="url(#clip040)" d="M164.967 1532.02 L194.643 1532.02 L194.643 1535.95 L164.967 1535.95 L164.967 1532.02 Z" fill="#000000" fill-rule="nonzero" fill-opacity="1" /><path clip-path="url(#clip040)" d="M205.545 1544.91 L213.184 1544.91 L213.184 1518.55 L204.874 1520.21 L204.874 1515.95 L213.138 1514.29 L217.814 1514.29 L217.814 1544.91 L225.453 1544.91 L225.453 1548.85 L205.545 1548.85 L205.545 1544.91 Z" fill="#000000" fill-rule="nonzero" fill-opacity="1" /><path clip-path="url(#clip040)" d="M234.897 1542.97 L239.781 1542.97 L239.781 1548.85 L234.897 1548.85 L234.897 1542.97 Z" fill="#000000" fill-rule="nonzero" fill-opacity="1" /><path clip-path="url(#clip040)" d="M259.966 1517.37 Q256.355 1517.37 254.527 1520.93 Q252.721 1524.47 252.721 1531.6 Q252.721 1538.71 254.527 1542.27 Q256.355 1545.82 259.966 1545.82 Q263.601 1545.82 265.406 1542.27 Q267.235 1538.71 267.235 1531.6 Q267.235 1524.47 265.406 1520.93 Q263.601 1517.37 259.966 1517.37 M259.966 1513.66 Q265.776 1513.66 268.832 1518.27 Q271.911 1522.85 271.911 1531.6 Q271.911 1540.33 268.832 1544.94 Q265.776 1549.52 259.966 1549.52 Q254.156 1549.52 251.077 1544.94 Q248.022 1540.33 248.022 1531.6 Q248.022 1522.85 251.077 1518.27 Q254.156 1513.66 259.966 1513.66 Z" fill="#000000" fill-rule="nonzero" fill-opacity="1" /><path clip-path="url(#clip040)" d="M683.503 1532.02 L713.178 1532.02 L713.178 1535.95 L683.503 1535.95 L683.503 1532.02 Z" fill="#000000" fill-rule="nonzero" fill-opacity="1" /><path clip-path="url(#clip040)" d="M733.271 1517.37 Q729.66 1517.37 727.831 1520.93 Q726.026 1524.47 726.026 1531.6 Q726.026 1538.71 727.831 1542.27 Q729.66 1545.82 733.271 1545.82 Q736.905 1545.82 738.711 1542.27 Q740.539 1538.71 740.539 1531.6 Q740.539 1524.47 738.711 1520.93 Q736.905 1517.37 733.271 1517.37 M733.271 1513.66 Q739.081 1513.66 742.137 1518.27 Q745.215 1522.85 745.215 1531.6 Q745.215 1540.33 742.137 1544.94 Q739.081 1549.52 733.271 1549.52 Q727.461 1549.52 724.382 1544.94 Q721.327 1540.33 721.327 1531.6 Q721.327 1522.85 724.382 1518.27 Q727.461 1513.66 733.271 1513.66 Z" fill="#000000" fill-rule="nonzero" fill-opacity="1" /><path clip-path="url(#clip040)" d="M753.433 1542.97 L758.317 1542.97 L758.317 1548.85 L753.433 1548.85 L753.433 1542.97 Z" fill="#000000" fill-rule="nonzero" fill-opacity="1" /><path clip-path="url(#clip040)" d="M768.548 1514.29 L786.905 1514.29 L786.905 1518.22 L772.831 1518.22 L772.831 1526.7 Q773.849 1526.35 774.868 1526.19 Q775.886 1526 776.905 1526 Q782.692 1526 786.072 1529.17 Q789.451 1532.34 789.451 1537.76 Q789.451 1543.34 785.979 1546.44 Q782.507 1549.52 776.187 1549.52 Q774.011 1549.52 771.743 1549.15 Q769.498 1548.78 767.09 1548.04 L767.09 1543.34 Q769.173 1544.47 771.396 1545.03 Q773.618 1545.58 776.095 1545.58 Q780.099 1545.58 782.437 1543.48 Q784.775 1541.37 784.775 1537.76 Q784.775 1534.15 782.437 1532.04 Q780.099 1529.94 776.095 1529.94 Q774.22 1529.94 772.345 1530.35 Q770.493 1530.77 768.548 1531.65 L768.548 1514.29 Z" fill="#000000" fill-rule="nonzero" fill-opacity="1" /><path clip-path="url(#clip040)" d="M1231.9 1517.37 Q1228.29 1517.37 1226.46 1520.93 Q1224.65 1524.47 1224.65 1531.6 Q1224.65 1538.71 1226.46 1542.27 Q1228.29 1545.82 1231.9 1545.82 Q1235.53 1545.82 1237.34 1542.27 Q1239.17 1538.71 1239.17 1531.6 Q1239.17 1524.47 1237.34 1520.93 Q1235.53 1517.37 1231.9 1517.37 M1231.9 1513.66 Q1237.71 1513.66 1240.77 1518.27 Q1243.84 1522.85 1243.84 1531.6 Q1243.84 1540.33 1240.77 1544.94 Q1237.71 1549.52 1231.9 1549.52 Q1226.09 1549.52 1223.01 1544.94 Q1219.96 1540.33 1219.96 1531.6 Q1219.96 1522.85 1223.01 1518.27 Q1226.09 1513.66 1231.9 1513.66 Z" fill="#000000" fill-rule="nonzero" fill-opacity="1" /><path clip-path="url(#clip040)" d="M1252.06 1542.97 L1256.95 1542.97 L1256.95 1548.85 L1252.06 1548.85 L1252.06 1542.97 Z" fill="#000000" fill-rule="nonzero" fill-opacity="1" /><path clip-path="url(#clip040)" d="M1277.13 1517.37 Q1273.52 1517.37 1271.69 1520.93 Q1269.89 1524.47 1269.89 1531.6 Q1269.89 1538.71 1271.69 1542.27 Q1273.52 1545.82 1277.13 1545.82 Q1280.76 1545.82 1282.57 1542.27 Q1284.4 1538.71 1284.4 1531.6 Q1284.4 1524.47 1282.57 1520.93 Q1280.76 1517.37 1277.13 1517.37 M1277.13 1513.66 Q1282.94 1513.66 1286 1518.27 Q1289.08 1522.85 1289.08 1531.6 Q1289.08 1540.33 1286 1544.94 Q1282.94 1549.52 1277.13 1549.52 Q1271.32 1549.52 1268.24 1544.94 Q1265.19 1540.33 1265.19 1531.6 Q1265.19 1522.85 1268.24 1518.27 Q1271.32 1513.66 1277.13 1513.66 Z" fill="#000000" fill-rule="nonzero" fill-opacity="1" /><path clip-path="url(#clip040)" d="M1750.44 1517.37 Q1746.82 1517.37 1745 1520.93 Q1743.19 1524.47 1743.19 1531.6 Q1743.19 1538.71 1745 1542.27 Q1746.82 1545.82 1750.44 1545.82 Q1754.07 1545.82 1755.88 1542.27 Q1757.7 1538.71 1757.7 1531.6 Q1757.7 1524.47 1755.88 1520.93 Q1754.07 1517.37 1750.44 1517.37 M1750.44 1513.66 Q1756.25 1513.66 1759.3 1518.27 Q1762.38 1522.85 1762.38 1531.6 Q1762.38 1540.33 1759.3 1544.94 Q1756.25 1549.52 1750.44 1549.52 Q1744.63 1549.52 1741.55 1544.94 Q1738.49 1540.33 1738.49 1531.6 Q1738.49 1522.85 1741.55 1518.27 Q1744.63 1513.66 1750.44 1513.66 Z" fill="#000000" fill-rule="nonzero" fill-opacity="1" /><path clip-path="url(#clip040)" d="M1770.6 1542.97 L1775.48 1542.97 L1775.48 1548.85 L1770.6 1548.85 L1770.6 1542.97 Z" fill="#000000" fill-rule="nonzero" fill-opacity="1" /><path clip-path="url(#clip040)" d="M1785.71 1514.29 L1804.07 1514.29 L1804.07 1518.22 L1790 1518.22 L1790 1526.7 Q1791.01 1526.35 1792.03 1526.19 Q1793.05 1526 1794.07 1526 Q1799.86 1526 1803.24 1529.17 Q1806.62 1532.34 1806.62 1537.76 Q1806.62 1543.34 1803.14 1546.44 Q1799.67 1549.52 1793.35 1549.52 Q1791.18 1549.52 1788.91 1549.15 Q1786.66 1548.78 1784.25 1548.04 L1784.25 1543.34 Q1786.34 1544.47 1788.56 1545.03 Q1790.78 1545.58 1793.26 1545.58 Q1797.26 1545.58 1799.6 1543.48 Q1801.94 1541.37 1801.94 1537.76 Q1801.94 1534.15 1799.6 1532.04 Q1797.26 1529.94 1793.26 1529.94 Q1791.38 1529.94 1789.51 1530.35 Q1787.66 1530.77 1785.71 1531.65 L1785.71 1514.29 Z" fill="#000000" fill-rule="nonzero" fill-opacity="1" /><path clip-path="url(#clip040)" d="M2257.74 1544.91 L2265.38 1544.91 L2265.38 1518.55 L2257.07 1520.21 L2257.07 1515.95 L2265.34 1514.29 L2270.01 1514.29 L2270.01 1544.91 L2277.65 1544.91 L2277.65 1548.85 L2257.74 1548.85 L2257.74 1544.91 Z" fill="#000000" fill-rule="nonzero" fill-opacity="1" /><path clip-path="url(#clip040)" d="M2287.1 1542.97 L2291.98 1542.97 L2291.98 1548.85 L2287.1 1548.85 L2287.1 1542.97 Z" fill="#000000" fill-rule="nonzero" fill-opacity="1" /><path clip-path="url(#clip040)" d="M2312.17 1517.37 Q2308.55 1517.37 2306.73 1520.93 Q2304.92 1524.47 2304.92 1531.6 Q2304.92 1538.71 2306.73 1542.27 Q2308.55 1545.82 2312.17 1545.82 Q2315.8 1545.82 2317.61 1542.27 Q2319.43 1538.71 2319.43 1531.6 Q2319.43 1524.47 2317.61 1520.93 Q2315.8 1517.37 2312.17 1517.37 M2312.17 1513.66 Q2317.98 1513.66 2321.03 1518.27 Q2324.11 1522.85 2324.11 1531.6 Q2324.11 1540.33 2321.03 1544.94 Q2317.98 1549.52 2312.17 1549.52 Q2306.36 1549.52 2303.28 1544.94 Q2300.22 1540.33 2300.22 1531.6 Q2300.22 1522.85 2303.28 1518.27 Q2306.36 1513.66 2312.17 1513.66 Z" fill="#000000" fill-rule="nonzero" fill-opacity="1" /><polyline clip-path="url(#clip042)" style="stroke:#000000; stroke-linecap:round; stroke-linejoin:round; stroke-width:2; stroke-opacity:0.1; fill:none" points="156.274,1255.03 2352.76,1255.03 "/>
<polyline clip-path="url(#clip042)" style="stroke:#000000; stroke-linecap:round; stroke-linejoin:round; stroke-width:2; stroke-opacity:0.1; fill:none" points="156.274,983.461 2352.76,983.461 "/>
<polyline clip-path="url(#clip042)" style="stroke:#000000; stroke-linecap:round; stroke-linejoin:round; stroke-width:2; stroke-opacity:0.1; fill:none" points="156.274,711.89 2352.76,711.89 "/>
<polyline clip-path="url(#clip042)" style="stroke:#000000; stroke-linecap:round; stroke-linejoin:round; stroke-width:2; stroke-opacity:0.1; fill:none" points="156.274,440.32 2352.76,440.32 "/>
<polyline clip-path="url(#clip042)" style="stroke:#000000; stroke-linecap:round; stroke-linejoin:round; stroke-width:2; stroke-opacity:0.1; fill:none" points="156.274,168.75 2352.76,168.75 "/>
<polyline clip-path="url(#clip040)" style="stroke:#000000; stroke-linecap:round; stroke-linejoin:round; stroke-width:4; stroke-opacity:1; fill:none" points="156.274,1486.45 156.274,47.2441 "/>
<polyline clip-path="url(#clip040)" style="stroke:#000000; stroke-linecap:round; stroke-linejoin:round; stroke-width:4; stroke-opacity:1; fill:none" points="156.274,1255.03 175.172,1255.03 "/>
<polyline clip-path="url(#clip040)" style="stroke:#000000; stroke-linecap:round; stroke-linejoin:round; stroke-width:4; stroke-opacity:1; fill:none" points="156.274,983.461 175.172,983.461 "/>
<polyline clip-path="url(#clip040)" style="stroke:#000000; stroke-linecap:round; stroke-linejoin:round; stroke-width:4; stroke-opacity:1; fill:none" points="156.274,711.89 175.172,711.89 "/>
<polyline clip-path="url(#clip040)" style="stroke:#000000; stroke-linecap:round; stroke-linejoin:round; stroke-width:4; stroke-opacity:1; fill:none" points="156.274,440.32 175.172,440.32 "/>
<polyline clip-path="url(#clip040)" style="stroke:#000000; stroke-linecap:round; stroke-linejoin:round; stroke-width:4; stroke-opacity:1; fill:none" points="156.274,168.75 175.172,168.75 "/>
<path clip-path="url(#clip040)" d="M63.0985 1240.83 Q59.4875 1240.83 57.6588 1244.39 Q55.8532 1247.94 55.8532 1255.07 Q55.8532 1262.17 57.6588 1265.74 Q59.4875 1269.28 63.0985 1269.28 Q66.7328 1269.28 68.5383 1265.74 Q70.367 1262.17 70.367 1255.07 Q70.367 1247.94 68.5383 1244.39 Q66.7328 1240.83 63.0985 1240.83 M63.0985 1237.13 Q68.9087 1237.13 71.9642 1241.73 Q75.0429 1246.32 75.0429 1255.07 Q75.0429 1263.79 71.9642 1268.4 Q68.9087 1272.98 63.0985 1272.98 Q57.2884 1272.98 54.2097 1268.4 Q51.1542 1263.79 51.1542 1255.07 Q51.1542 1246.32 54.2097 1241.73 Q57.2884 1237.13 63.0985 1237.13 Z" fill="#000000" fill-rule="nonzero" fill-opacity="1" /><path clip-path="url(#clip040)" d="M83.2605 1266.43 L88.1447 1266.43 L88.1447 1272.31 L83.2605 1272.31 L83.2605 1266.43 Z" fill="#000000" fill-rule="nonzero" fill-opacity="1" /><path clip-path="url(#clip040)" d="M108.33 1240.83 Q104.719 1240.83 102.89 1244.39 Q101.084 1247.94 101.084 1255.07 Q101.084 1262.17 102.89 1265.74 Q104.719 1269.28 108.33 1269.28 Q111.964 1269.28 113.77 1265.74 Q115.598 1262.17 115.598 1255.07 Q115.598 1247.94 113.77 1244.39 Q111.964 1240.83 108.33 1240.83 M108.33 1237.13 Q114.14 1237.13 117.195 1241.73 Q120.274 1246.32 120.274 1255.07 Q120.274 1263.79 117.195 1268.4 Q114.14 1272.98 108.33 1272.98 Q102.52 1272.98 99.4409 1268.4 Q96.3854 1263.79 96.3854 1255.07 Q96.3854 1246.32 99.4409 1241.73 Q102.52 1237.13 108.33 1237.13 Z" fill="#000000" fill-rule="nonzero" fill-opacity="1" /><path clip-path="url(#clip040)" d="M63.7467 969.259 Q60.1356 969.259 58.3069 972.824 Q56.5014 976.366 56.5014 983.495 Q56.5014 990.602 58.3069 994.166 Q60.1356 997.708 63.7467 997.708 Q67.3809 997.708 69.1865 994.166 Q71.0152 990.602 71.0152 983.495 Q71.0152 976.366 69.1865 972.824 Q67.3809 969.259 63.7467 969.259 M63.7467 965.556 Q69.5568 965.556 72.6124 970.162 Q75.6911 974.745 75.6911 983.495 Q75.6911 992.222 72.6124 996.829 Q69.5568 1001.41 63.7467 1001.41 Q57.9365 1001.41 54.8578 996.829 Q51.8023 992.222 51.8023 983.495 Q51.8023 974.745 54.8578 970.162 Q57.9365 965.556 63.7467 965.556 Z" fill="#000000" fill-rule="nonzero" fill-opacity="1" /><path clip-path="url(#clip040)" d="M83.9086 994.861 L88.7928 994.861 L88.7928 1000.74 L83.9086 1000.74 L83.9086 994.861 Z" fill="#000000" fill-rule="nonzero" fill-opacity="1" /><path clip-path="url(#clip040)" d="M113.145 982.106 Q116.501 982.824 118.376 985.092 Q120.274 987.361 120.274 990.694 Q120.274 995.81 116.756 998.611 Q113.237 1001.41 106.756 1001.41 Q104.58 1001.41 102.265 1000.97 Q99.9733 1000.56 97.5197 999.699 L97.5197 995.185 Q99.4641 996.319 101.779 996.898 Q104.094 997.477 106.617 997.477 Q111.015 997.477 113.307 995.741 Q115.621 994.004 115.621 990.694 Q115.621 987.639 113.469 985.926 Q111.339 984.19 107.52 984.19 L103.492 984.19 L103.492 980.347 L107.705 980.347 Q111.154 980.347 112.983 978.981 Q114.811 977.593 114.811 975 Q114.811 972.338 112.913 970.926 Q111.038 969.491 107.52 969.491 Q105.598 969.491 103.399 969.907 Q101.2 970.324 98.5613 971.204 L98.5613 967.037 Q101.223 966.296 103.538 965.926 Q105.876 965.556 107.936 965.556 Q113.26 965.556 116.362 967.986 Q119.464 970.393 119.464 974.514 Q119.464 977.384 117.82 979.375 Q116.177 981.342 113.145 982.106 Z" fill="#000000" fill-rule="nonzero" fill-opacity="1" /><path clip-path="url(#clip040)" d="M62.9365 697.689 Q59.3254 697.689 57.4967 701.254 Q55.6912 704.795 55.6912 711.925 Q55.6912 719.032 57.4967 722.596 Q59.3254 726.138 62.9365 726.138 Q66.5707 726.138 68.3763 722.596 Q70.205 719.032 70.205 711.925 Q70.205 704.795 68.3763 701.254 Q66.5707 697.689 62.9365 697.689 M62.9365 693.985 Q68.7467 693.985 71.8022 698.592 Q74.8809 703.175 74.8809 711.925 Q74.8809 720.652 71.8022 725.258 Q68.7467 729.842 62.9365 729.842 Q57.1264 729.842 54.0477 725.258 Q50.9921 720.652 50.9921 711.925 Q50.9921 703.175 54.0477 698.592 Q57.1264 693.985 62.9365 693.985 Z" fill="#000000" fill-rule="nonzero" fill-opacity="1" /><path clip-path="url(#clip040)" d="M83.0984 723.291 L87.9827 723.291 L87.9827 729.17 L83.0984 729.17 L83.0984 723.291 Z" fill="#000000" fill-rule="nonzero" fill-opacity="1" /><path clip-path="url(#clip040)" d="M108.746 710.027 Q105.598 710.027 103.746 712.18 Q101.918 714.332 101.918 718.082 Q101.918 721.809 103.746 723.985 Q105.598 726.138 108.746 726.138 Q111.895 726.138 113.723 723.985 Q115.575 721.809 115.575 718.082 Q115.575 714.332 113.723 712.18 Q111.895 710.027 108.746 710.027 M118.029 695.374 L118.029 699.633 Q116.27 698.8 114.464 698.36 Q112.682 697.921 110.922 697.921 Q106.293 697.921 103.839 701.045 Q101.409 704.17 101.061 710.49 Q102.427 708.476 104.487 707.411 Q106.547 706.323 109.024 706.323 Q114.233 706.323 117.242 709.495 Q120.274 712.643 120.274 718.082 Q120.274 723.406 117.126 726.624 Q113.978 729.842 108.746 729.842 Q102.751 729.842 99.5798 725.258 Q96.4085 720.652 96.4085 711.925 Q96.4085 703.731 100.297 698.87 Q104.186 693.985 110.737 693.985 Q112.496 693.985 114.279 694.333 Q116.084 694.68 118.029 695.374 Z" fill="#000000" fill-rule="nonzero" fill-opacity="1" /><path clip-path="url(#clip040)" d="M63.2837 426.119 Q59.6726 426.119 57.8439 429.684 Q56.0384 433.225 56.0384 440.355 Q56.0384 447.461 57.8439 451.026 Q59.6726 454.568 63.2837 454.568 Q66.918 454.568 68.7235 451.026 Q70.5522 447.461 70.5522 440.355 Q70.5522 433.225 68.7235 429.684 Q66.918 426.119 63.2837 426.119 M63.2837 422.415 Q69.0939 422.415 72.1494 427.022 Q75.2281 431.605 75.2281 440.355 Q75.2281 449.082 72.1494 453.688 Q69.0939 458.271 63.2837 458.271 Q57.4736 458.271 54.3949 453.688 Q51.3393 449.082 51.3393 440.355 Q51.3393 431.605 54.3949 427.022 Q57.4736 422.415 63.2837 422.415 Z" fill="#000000" fill-rule="nonzero" fill-opacity="1" /><path clip-path="url(#clip040)" d="M83.4457 451.721 L88.3299 451.721 L88.3299 457.6 L83.4457 457.6 L83.4457 451.721 Z" fill="#000000" fill-rule="nonzero" fill-opacity="1" /><path clip-path="url(#clip040)" d="M98.6539 456.883 L98.6539 452.623 Q100.413 453.457 102.219 453.896 Q104.024 454.336 105.76 454.336 Q110.39 454.336 112.82 451.234 Q115.274 448.109 115.621 441.767 Q114.279 443.758 112.219 444.822 Q110.158 445.887 107.658 445.887 Q102.473 445.887 99.4409 442.762 Q96.4317 439.614 96.4317 434.174 Q96.4317 428.85 99.5798 425.633 Q102.728 422.415 107.959 422.415 Q113.955 422.415 117.103 427.022 Q120.274 431.605 120.274 440.355 Q120.274 448.526 116.385 453.41 Q112.52 458.271 105.969 458.271 Q104.209 458.271 102.404 457.924 Q100.598 457.577 98.6539 456.883 M107.959 442.23 Q111.108 442.23 112.936 440.077 Q114.788 437.924 114.788 434.174 Q114.788 430.448 112.936 428.295 Q111.108 426.119 107.959 426.119 Q104.811 426.119 102.959 428.295 Q101.131 430.448 101.131 434.174 Q101.131 437.924 102.959 440.077 Q104.811 442.23 107.959 442.23 Z" fill="#000000" fill-rule="nonzero" fill-opacity="1" /><path clip-path="url(#clip040)" d="M55.506 182.095 L63.1448 182.095 L63.1448 155.729 L54.8347 157.396 L54.8347 153.137 L63.0985 151.47 L67.7744 151.47 L67.7744 182.095 L75.4133 182.095 L75.4133 186.03 L55.506 186.03 L55.506 182.095 Z" fill="#000000" fill-rule="nonzero" fill-opacity="1" /><path clip-path="url(#clip040)" d="M84.8577 180.15 L89.7419 180.15 L89.7419 186.03 L84.8577 186.03 L84.8577 180.15 Z" fill="#000000" fill-rule="nonzero" fill-opacity="1" /><path clip-path="url(#clip040)" d="M103.955 182.095 L120.274 182.095 L120.274 186.03 L98.3298 186.03 L98.3298 182.095 Q100.992 179.34 105.575 174.711 Q110.182 170.058 111.362 168.715 Q113.608 166.192 114.487 164.456 Q115.39 162.697 115.39 161.007 Q115.39 158.252 113.445 156.516 Q111.524 154.78 108.422 154.78 Q106.223 154.78 103.77 155.544 Q101.339 156.308 98.5613 157.859 L98.5613 153.137 Q101.385 152.002 103.839 151.424 Q106.293 150.845 108.33 150.845 Q113.7 150.845 116.895 153.53 Q120.089 156.215 120.089 160.706 Q120.089 162.836 119.279 164.757 Q118.492 166.655 116.385 169.248 Q115.807 169.919 112.705 173.137 Q109.603 176.331 103.955 182.095 Z" fill="#000000" fill-rule="nonzero" fill-opacity="1" /><polyline clip-path="url(#clip042)" style="stroke:#009af9; stroke-linecap:round; stroke-linejoin:round; stroke-width:16; stroke-opacity:1; fill:none" stroke-dasharray="8, 16" points="218.439,1119.47 228.852,1088.5 239.264,1073.06 249.677,1069.03 260.09,1072.22 270.503,1079.8 280.916,1090.67 291.329,1104.83 301.741,1122.58 312.154,1144.04 322.567,1169.13 332.98,1197.64 343.393,1229.23 353.805,1263.2 364.218,1298.16 374.631,1331.98 385.044,1362.17 395.457,1386.79 405.87,1405.14 416.282,1417.83 426.695,1426.11 437.108,1430.87 447.521,1432.02 457.934,1428.62 468.347,1419.41 478.759,1403.38 489.172,1380.21 499.585,1350.81 509.998,1317.51 520.411,1283.45 530.824,1251.16 541.236,1221.56 551.649,1194.11 562.062,1167.73 572.475,1141.88 582.888,1117.09 593.301,1095.08 603.713,1078.35 614.126,1069.28 624.539,1069.12 634.952,1077.37 645.365,1092.01 655.777,1110.51 666.19,1130.98 676.603,1152.84 687.016,1176.79 697.429,1204.12 707.842,1235.77 718.254,1271.33 728.667,1308.59 739.08,1343.86 749.493,1373.17 759.906,1394.04 770.319,1406.78 780.731,1414.31 791.144,1420.52 801.557,1427.85 811.97,1435.25 822.383,1437.79 832.796,1428.88 843.208,1404.69 853.621,1368.1 864.034,1327.93 874.447,1293.2 884.86,1267.25 895.273,1246.74 905.685,1225.35 916.098,1198.53 926.511,1166.15 936.924,1132.15 947.337,1102.25 957.749,1081.11 968.162,1070.66 978.575,1069.92 988.988,1076.34 999.401,1087.29 1009.81,1101.07 1020.23,1117.11 1030.64,1135.62 1041.05,1157.18 1051.46,1182.29 1061.88,1211.15 1072.29,1243.44 1082.7,1278.23 1093.12,1313.9 1103.53,1348.23 1113.94,1378.66 1124.35,1402.77 1134.77,1418.85 1145.18,1426.47 1155.59,1426.69 1166.01,1422.06 1176.42,1416.55 1186.83,1415.46 1197.24,1423.9 1207.66,1440.77 1218.07,1445.72 1228.48,1387.64 1238.9,1206.48 1249.31,906.818 1259.72,597.229 1270.13,396.859 1280.55,327.46 1290.96,333.502 1301.37,356.927 1311.79,369.437 1322.2,366.369 1332.61,353.307 1343.02,337.801 1353.44,325.945 1363.85,321.299 1374.26,324.768 1384.68,334.989 1395.09,349.093 1405.5,363.602 1415.91,375.224 1426.33,381.412 1436.74,380.653 1447.15,372.625 1457.57,358.289 1467.98,339.982 1478.39,321.391 1488.8,307.201 1499.22,302.176 1509.63,309.635 1520.04,329.773 1530.45,358.711 1540.87,389.091 1551.28,412.144 1561.69,420.301 1572.11,409.262 1582.52,379.21 1592.93,335.528 1603.34,289.058 1613.76,254.819 1624.17,247.554 1634.58,274.661 1645,330.714 1655.41,398.066 1665.82,453.587 1676.23,477.427 1686.65,460.008 1697.06,405.548 1707.47,331.392 1717.89,262.476 1728.3,221.959 1738.71,222.05 1749.12,260.104 1759.54,321.736 1769.95,387.893 1780.36,441.374 1790.78,470.392 1801.19,469.482 1811.6,439.131 1822.01,385.232 1832.43,318.671 1842.84,254.664 1853.25,210.859 1863.67,203.244 1874.08,239.893 1884.49,314.894 1894.9,406.827 1905.32,485.084 1915.73,522.259 1926.14,505.83 1936.56,442.489 1946.97,353.617 1957.38,265.809 1967.79,202.043 1978.21,176.834 1988.62,195.324 1999.03,254.24 2009.45,342.483 2019.86,440.817 2030.27,523.223 2040.68,562.93 2051.1,541.654 2061.51,457.51 2071.92,329.007 2082.33,194.014 2092.75,100.584 2103.16,87.9763 2113.57,165.682 2123.99,305.816 2134.4,456.464 2144.81,566.406 2155.22,604.631 2165.64,566.547 2176.05,469.711 2186.46,345.212 2196.88,228.271 2207.29,149.234 2217.7,126.209 2228.11,161.265 2238.53,241.613 2248.94,344.975 2259.35,446.656 2269.77,525.778 2280.18,569.52 2290.59,575.27 "/>
<polyline clip-path="url(#clip042)" style="stroke:#e26f46; stroke-linecap:round; stroke-linejoin:round; stroke-width:4; stroke-opacity:1; fill:none" points="218.439,1119.07 228.852,1099.78 239.264,1085.55 249.677,1076.86 260.09,1073.98 270.503,1077.02 280.916,1085.86 291.329,1100.22 301.741,1119.64 312.154,1143.47 322.567,1170.95 332.98,1201.17 343.393,1233.14 353.805,1265.84 364.218,1298.18 374.631,1329.11 385.044,1357.62 395.457,1382.79 405.87,1403.78 416.282,1419.92 426.695,1430.68 437.108,1435.71 447.521,1434.84 457.934,1428.1 468.347,1415.71 478.759,1398.08 489.172,1375.78 499.585,1349.54 509.998,1320.21 520.411,1288.76 530.824,1256.21 541.236,1223.61 551.649,1192.05 562.062,1162.54 572.475,1136.04 582.888,1113.43 593.301,1095.45 603.713,1082.67 614.126,1075.51 624.539,1074.22 634.952,1078.82 645.365,1089.18 655.777,1104.95 666.19,1125.62 676.603,1150.51 687.016,1178.81 697.429,1209.61 707.842,1241.88 718.254,1274.58 728.667,1306.65 739.08,1337.02 749.493,1364.73 759.906,1388.85 770.319,1408.61 780.731,1423.35 791.144,1432.6 801.557,1436.06 811.97,1433.6 822.383,1425.32 832.796,1411.48 843.208,1392.54 853.621,1369.1 864.034,1341.95 874.447,1311.95 884.86,1280.1 895.273,1247.43 905.685,1215.01 916.098,1183.9 926.511,1155.1 936.924,1129.57 947.337,1108.13 957.749,1091.49 968.162,1080.19 978.575,1074.59 988.988,1074.88 999.401,1081.05 1009.81,1092.89 1020.23,1110.03 1030.64,1131.91 1041.05,1157.8 1051.46,1186.86 1061.88,1218.15 1072.29,1250.64 1082.7,1283.28 1093.12,1314.99 1103.53,1344.75 1113.94,1371.58 1124.35,1394.6 1134.77,1413.07 1145.18,1426.38 1155.59,1434.1 1166.01,1435.98 1176.42,1431.95 1186.83,1422.14 1197.24,1406.88 1207.66,1386.67 1218.07,1362.16 1228.48,1334.15 1238.9,1303.56 1249.31,1271.38 1259.72,348.482 1270.13,346.986 1280.55,348.348 1290.96,352.881 1301.37,359.195 1311.79,364.624 1322.2,366.232 1332.61,362.055 1343.02,352.097 1353.44,338.673 1363.85,325.899 1374.26,318.437 1384.68,319.868 1395.09,331.254 1405.5,350.405 1415.91,372.2 1426.33,389.948 1436.74,397.434 1447.15,391.026 1457.57,371.141 1467.98,342.541 1478.39,313.23 1488.8,292.222 1499.22,286.78 1509.63,299.973 1520.04,329.364 1530.45,367.322 1540.87,402.979 1551.28,425.342 1561.69,426.667 1572.11,405.062 1582.52,365.466 1592.93,318.596 1603.34,278.053 1613.76,256.38 1624.17,261.199 1634.58,292.62 1645,342.782 1655.41,397.772 1665.82,441.483 1676.23,460.328 1686.65,447.441 1697.06,405.064 1707.47,344.326 1717.89,282.344 1728.3,237.402 1738.71,223.56 1749.12,246.288 1759.54,300.46 1769.95,371.426 1780.36,438.959 1790.78,483.019 1801.19,489.692 1811.6,455.553 1822.01,389.077 1832.43,308.594 1842.84,237.239 1853.25,196.304 1863.67,198.891 1874.08,245.768 1884.49,324.704 1894.9,413.638 1905.32,486.833 1915.73,522.325 1926.14,508.504 1936.56,447.855 1946.97,356.668 1957.38,260.689 1967.79,187.85 1978.21,160.143 1988.62,186.993 1999.03,262.133 2009.45,364.984 2019.86,466.281 2030.27,536.399 2040.68,554.011 2051.1,512.558 2061.51,422.566 2071.92,309.014 2082.33,204.415 2092.75,139.502 2103.16,134.207 2113.57,191.563 2123.99,296.397 2134.4,419.318 2144.81,524.948 2155.22,582.106 2165.64,573.006 2176.05,498.757 2186.46,379.481 2196.88,248.876 2207.29,144.701 2217.7,97.8566 2228.11,123.234 2238.53,215.018 2248.94,347.938 2259.35,484.211 2269.77,584.282 2280.18,618.299 2290.59,575.013 "/>
<path clip-path="url(#clip040)" d="M229.49 250.738 L675.966 250.738 L675.966 95.2176 L229.49 95.2176  Z" fill="#ffffff" fill-rule="evenodd" fill-opacity="1"/>
<polyline clip-path="url(#clip040)" style="stroke:#000000; stroke-linecap:round; stroke-linejoin:round; stroke-width:4; stroke-opacity:1; fill:none" points="229.49,250.738 675.966,250.738 675.966,95.2176 229.49,95.2176 229.49,250.738 "/>
<polyline clip-path="url(#clip040)" style="stroke:#009af9; stroke-linecap:round; stroke-linejoin:round; stroke-width:16; stroke-opacity:1; fill:none" stroke-dasharray="8, 16" points="253.896,147.058 400.328,147.058 "/>
<path clip-path="url(#clip040)" d="M429.409 133.62 L429.409 146.606 L435.289 146.606 Q438.552 146.606 440.335 144.916 Q442.117 143.227 442.117 140.102 Q442.117 137 440.335 135.31 Q438.552 133.62 435.289 133.62 L429.409 133.62 M424.733 129.778 L435.289 129.778 Q441.099 129.778 444.062 132.416 Q447.048 135.032 447.048 140.102 Q447.048 145.217 444.062 147.833 Q441.099 150.449 435.289 150.449 L429.409 150.449 L429.409 164.338 L424.733 164.338 L424.733 129.778 Z" fill="#000000" fill-rule="nonzero" fill-opacity="1" /><path clip-path="url(#clip040)" d="M467.325 142.393 Q466.608 141.977 465.751 141.791 Q464.918 141.583 463.899 141.583 Q460.288 141.583 458.344 143.944 Q456.423 146.282 456.423 150.68 L456.423 164.338 L452.14 164.338 L452.14 138.412 L456.423 138.412 L456.423 142.44 Q457.765 140.078 459.918 138.944 Q462.071 137.787 465.149 137.787 Q465.589 137.787 466.122 137.856 Q466.654 137.903 467.302 138.018 L467.325 142.393 Z" fill="#000000" fill-rule="nonzero" fill-opacity="1" /><path clip-path="url(#clip040)" d="M492.927 150.31 L492.927 152.393 L473.344 152.393 Q473.622 156.791 475.983 159.106 Q478.367 161.398 482.603 161.398 Q485.057 161.398 487.348 160.796 Q489.663 160.194 491.932 158.99 L491.932 163.018 Q489.64 163.99 487.233 164.5 Q484.825 165.009 482.348 165.009 Q476.145 165.009 472.511 161.398 Q468.899 157.787 468.899 151.629 Q468.899 145.264 472.325 141.537 Q475.774 137.787 481.608 137.787 Q486.839 137.787 489.872 141.166 Q492.927 144.523 492.927 150.31 M488.668 149.06 Q488.622 145.565 486.7 143.481 Q484.802 141.398 481.654 141.398 Q478.089 141.398 475.936 143.412 Q473.807 145.426 473.483 149.083 L488.668 149.06 Z" fill="#000000" fill-rule="nonzero" fill-opacity="1" /><path clip-path="url(#clip040)" d="M516.978 142.347 L516.978 128.319 L521.237 128.319 L521.237 164.338 L516.978 164.338 L516.978 160.449 Q515.635 162.763 513.575 163.898 Q511.538 165.009 508.668 165.009 Q503.969 165.009 501.006 161.259 Q498.066 157.509 498.066 151.398 Q498.066 145.287 501.006 141.537 Q503.969 137.787 508.668 137.787 Q511.538 137.787 513.575 138.921 Q515.635 140.032 516.978 142.347 M502.464 151.398 Q502.464 156.097 504.385 158.782 Q506.33 161.444 509.709 161.444 Q513.089 161.444 515.033 158.782 Q516.978 156.097 516.978 151.398 Q516.978 146.699 515.033 144.037 Q513.089 141.352 509.709 141.352 Q506.33 141.352 504.385 144.037 Q502.464 146.699 502.464 151.398 Z" fill="#000000" fill-rule="nonzero" fill-opacity="1" /><path clip-path="url(#clip040)" d="M530.01 138.412 L534.269 138.412 L534.269 164.338 L530.01 164.338 L530.01 138.412 M530.01 128.319 L534.269 128.319 L534.269 133.713 L530.01 133.713 L530.01 128.319 Z" fill="#000000" fill-rule="nonzero" fill-opacity="1" /><path clip-path="url(#clip040)" d="M561.839 139.407 L561.839 143.389 Q560.033 142.393 558.205 141.907 Q556.399 141.398 554.547 141.398 Q550.404 141.398 548.112 144.037 Q545.82 146.652 545.82 151.398 Q545.82 156.143 548.112 158.782 Q550.404 161.398 554.547 161.398 Q556.399 161.398 558.205 160.912 Q560.033 160.402 561.839 159.407 L561.839 163.342 Q560.056 164.176 558.135 164.592 Q556.237 165.009 554.084 165.009 Q548.228 165.009 544.779 161.328 Q541.33 157.648 541.33 151.398 Q541.33 145.055 544.802 141.421 Q548.297 137.787 554.362 137.787 Q556.33 137.787 558.205 138.203 Q560.08 138.597 561.839 139.407 Z" fill="#000000" fill-rule="nonzero" fill-opacity="1" /><path clip-path="url(#clip040)" d="M573.459 131.051 L573.459 138.412 L582.232 138.412 L582.232 141.722 L573.459 141.722 L573.459 155.796 Q573.459 158.967 574.316 159.87 Q575.195 160.773 577.857 160.773 L582.232 160.773 L582.232 164.338 L577.857 164.338 Q572.927 164.338 571.052 162.509 Q569.177 160.657 569.177 155.796 L569.177 141.722 L566.052 141.722 L566.052 138.412 L569.177 138.412 L569.177 131.051 L573.459 131.051 Z" fill="#000000" fill-rule="nonzero" fill-opacity="1" /><path clip-path="url(#clip040)" d="M587.834 138.412 L592.093 138.412 L592.093 164.338 L587.834 164.338 L587.834 138.412 M587.834 128.319 L592.093 128.319 L592.093 133.713 L587.834 133.713 L587.834 128.319 Z" fill="#000000" fill-rule="nonzero" fill-opacity="1" /><path clip-path="url(#clip040)" d="M611.051 141.398 Q607.626 141.398 605.635 144.083 Q603.644 146.745 603.644 151.398 Q603.644 156.051 605.612 158.736 Q607.602 161.398 611.051 161.398 Q614.454 161.398 616.445 158.713 Q618.436 156.027 618.436 151.398 Q618.436 146.791 616.445 144.106 Q614.454 141.398 611.051 141.398 M611.051 137.787 Q616.607 137.787 619.778 141.398 Q622.95 145.009 622.95 151.398 Q622.95 157.764 619.778 161.398 Q616.607 165.009 611.051 165.009 Q605.473 165.009 602.302 161.398 Q599.153 157.764 599.153 151.398 Q599.153 145.009 602.302 141.398 Q605.473 137.787 611.051 137.787 Z" fill="#000000" fill-rule="nonzero" fill-opacity="1" /><path clip-path="url(#clip040)" d="M651.561 148.689 L651.561 164.338 L647.301 164.338 L647.301 148.828 Q647.301 145.148 645.866 143.319 Q644.431 141.49 641.561 141.49 Q638.112 141.49 636.121 143.69 Q634.13 145.889 634.13 149.685 L634.13 164.338 L629.848 164.338 L629.848 138.412 L634.13 138.412 L634.13 142.44 Q635.658 140.102 637.718 138.944 Q639.801 137.787 642.51 137.787 Q646.977 137.787 649.269 140.565 Q651.561 143.319 651.561 148.689 Z" fill="#000000" fill-rule="nonzero" fill-opacity="1" /><polyline clip-path="url(#clip040)" style="stroke:#e26f46; stroke-linecap:round; stroke-linejoin:round; stroke-width:4; stroke-opacity:1; fill:none" points="253.896,198.898 400.328,198.898 "/>
<path clip-path="url(#clip040)" d="M424.733 181.618 L446.585 181.618 L446.585 185.553 L429.409 185.553 L429.409 195.784 L445.867 195.784 L445.867 199.719 L429.409 199.719 L429.409 212.242 L447.001 212.242 L447.001 216.178 L424.733 216.178 L424.733 181.618 Z" fill="#000000" fill-rule="nonzero" fill-opacity="1" /><path clip-path="url(#clip040)" d="M476.052 190.252 L466.677 202.867 L476.538 216.178 L471.515 216.178 L463.969 205.992 L456.423 216.178 L451.4 216.178 L461.469 202.613 L452.256 190.252 L457.279 190.252 L464.154 199.488 L471.029 190.252 L476.052 190.252 Z" fill="#000000" fill-rule="nonzero" fill-opacity="1" /><path clip-path="url(#clip040)" d="M494.339 203.145 Q489.177 203.145 487.186 204.326 Q485.196 205.506 485.196 208.354 Q485.196 210.622 486.677 211.965 Q488.182 213.284 490.751 213.284 Q494.293 213.284 496.422 210.784 Q498.575 208.261 498.575 204.094 L498.575 203.145 L494.339 203.145 M502.834 201.386 L502.834 216.178 L498.575 216.178 L498.575 212.242 Q497.117 214.603 494.941 215.738 Q492.765 216.849 489.617 216.849 Q485.635 216.849 483.274 214.627 Q480.936 212.381 480.936 208.631 Q480.936 204.256 483.853 202.034 Q486.793 199.812 492.603 199.812 L498.575 199.812 L498.575 199.395 Q498.575 196.455 496.631 194.858 Q494.71 193.238 491.214 193.238 Q488.992 193.238 486.885 193.77 Q484.779 194.303 482.835 195.367 L482.835 191.432 Q485.173 190.53 487.372 190.09 Q489.571 189.627 491.654 189.627 Q497.279 189.627 500.057 192.543 Q502.834 195.46 502.834 201.386 Z" fill="#000000" fill-rule="nonzero" fill-opacity="1" /><path clip-path="url(#clip040)" d="M530.265 191.247 L530.265 195.229 Q528.459 194.233 526.631 193.747 Q524.825 193.238 522.973 193.238 Q518.83 193.238 516.538 195.877 Q514.246 198.492 514.246 203.238 Q514.246 207.983 516.538 210.622 Q518.83 213.238 522.973 213.238 Q524.825 213.238 526.631 212.752 Q528.459 212.242 530.265 211.247 L530.265 215.182 Q528.482 216.016 526.561 216.432 Q524.663 216.849 522.51 216.849 Q516.654 216.849 513.205 213.168 Q509.756 209.488 509.756 203.238 Q509.756 196.895 513.228 193.261 Q516.723 189.627 522.788 189.627 Q524.756 189.627 526.631 190.043 Q528.506 190.437 530.265 191.247 Z" fill="#000000" fill-rule="nonzero" fill-opacity="1" /><path clip-path="url(#clip040)" d="M541.885 182.891 L541.885 190.252 L550.658 190.252 L550.658 193.562 L541.885 193.562 L541.885 207.636 Q541.885 210.807 542.742 211.71 Q543.621 212.613 546.283 212.613 L550.658 212.613 L550.658 216.178 L546.283 216.178 Q541.353 216.178 539.478 214.349 Q537.603 212.497 537.603 207.636 L537.603 193.562 L534.478 193.562 L534.478 190.252 L537.603 190.252 L537.603 182.891 L541.885 182.891 Z" fill="#000000" fill-rule="nonzero" fill-opacity="1" /></svg>
