<?xml version="1.0" encoding="utf-8"?>
<svg xmlns="http://www.w3.org/2000/svg" xmlns:xlink="http://www.w3.org/1999/xlink" width="600" height="400" viewBox="0 0 2400 1600">
<defs>
  <clipPath id="clip070">
    <rect x="0" y="0" width="2400" height="1600"/>
  </clipPath>
</defs>
<path clip-path="url(#clip070)" d="M0 1600 L2400 1600 L2400 0 L0 0  Z" fill="#ffffff" fill-rule="evenodd" fill-opacity="1"/>
<defs>
  <clipPath id="clip071">
    <rect x="480" y="0" width="1681" height="1600"/>
  </clipPath>
</defs>
<path clip-path="url(#clip070)" d="M156.274 1486.45 L2352.76 1486.45 L2352.76 47.2441 L156.274 47.2441  Z" fill="#ffffff" fill-rule="evenodd" fill-opacity="1"/>
<defs>
  <clipPath id="clip072">
    <rect x="156" y="47" width="2197" height="1440"/>
  </clipPath>
</defs>
<polyline clip-path="url(#clip072)" style="stroke:#000000; stroke-linecap:round; stroke-linejoin:round; stroke-width:2; stroke-opacity:0.1; fill:none" points="218.439,1486.45 218.439,47.2441 "/>
<polyline clip-path="url(#clip072)" style="stroke:#000000; stroke-linecap:round; stroke-linejoin:round; stroke-width:2; stroke-opacity:0.1; fill:none" points="736.477,1486.45 736.477,47.2441 "/>
<polyline clip-path="url(#clip072)" style="stroke:#000000; stroke-linecap:round; stroke-linejoin:round; stroke-width:2; stroke-opacity:0.1; fill:none" points="1254.52,1486.45 1254.52,47.2441 "/>
<polyline clip-path="url(#clip072)" style="stroke:#000000; stroke-linecap:round; stroke-linejoin:round; stroke-width:2; stroke-opacity:0.1; fill:none" points="1772.55,1486.45 1772.55,47.2441 "/>
<polyline clip-path="url(#clip072)" style="stroke:#000000; stroke-linecap:round; stroke-linejoin:round; stroke-width:2; stroke-opacity:0.1; fill:none" points="2290.59,1486.45 2290.59,47.2441 "/>
<polyline clip-path="url(#clip070)" style="stroke:#000000; stroke-linecap:round; stroke-linejoin:round; stroke-width:4; stroke-opacity:1; fill:none" points="156.274,1486.45 2352.76,1486.45 "/>
<polyline clip-path="url(#clip070)" style="stroke:#000000; stroke-linecap:round; stroke-linejoin:round; stroke-width:4; stroke-opacity:1; fill:none" points="218.439,1486.45 218.439,1467.55 "/>
<polyline clip-path="url(#clip070)" style="stroke:#000000; stroke-linecap:round; stroke-linejoin:round; stroke-width:4; stroke-opacity:1; fill:none" points="736.477,1486.45 736.477,1467.55 "/>
<polyline clip-path="url(#clip070)" style="stroke:#000000; stroke-linecap:round; stroke-linejoin:round; stroke-width:4; stroke-opacity:1; fill:none" points="1254.52,1486.45 1254.52,1467.55 "/>
<polyline clip-path="url(#clip070)" style="stroke:#000000; stroke-linecap:round; stroke-linejoin:round; stroke-width:4; stroke-opacity:1; fill:none" points="1772.55,1486.45 1772.55,1467.55 "/>
<polyline clip-path="url(#clip070)" style="stroke:#000000; stroke-linecap:round; stroke-linejoin:round; stroke-width:4; stroke-opacity:1; fill:none" points="2290.59,1486.45 2290.59,1467.55 "/>
<path clip-path="url(#clip070)" d="M164.967 1532.02 L194.643 1532.02 L194.643 1535.95 L164.967 1535.95 L164.967 1532.02 Z" fill="#000000" fill-rule="nonzero" fill-opacity="1" /><path clip-path="url(#clip070)" d="M205.545 1544.91 L213.184 1544.91 L213.184 1518.55 L204.874 1520.21 L204.874 1515.95 L213.138 1514.29 L217.814 1514.29 L217.814 1544.91 L225.453 1544.91 L225.453 1548.85 L205.545 1548.85 L205.545 1544.91 Z" fill="#000000" fill-rule="nonzero" fill-opacity="1" /><path clip-path="url(#clip070)" d="M234.897 1542.97 L239.781 1542.97 L239.781 1548.85 L234.897 1548.85 L234.897 1542.97 Z" fill="#000000" fill-rule="nonzero" fill-opacity="1" /><path clip-path="url(#clip070)" d="M259.966 1517.37 Q256.355 1517.37 254.527 1520.93 Q252.721 1524.47 252.721 1531.6 Q252.721 1538.71 254.527 1542.27 Q256.355 1545.82 259.966 1545.82 Q263.601 1545.82 265.406 1542.27 Q267.235 1538.71 267.235 1531.6 Q267.235 1524.47 265.406 1520.93 Q263.601 1517.37 259.966 1517.37 M259.966 1513.66 Q265.776 1513.66 268.832 1518.27 Q271.911 1522.85 271.911 1531.6 Q271.911 1540.33 268.832 1544.94 Q265.776 1549.52 259.966 1549.52 Q254.156 1549.52 251.077 1544.94 Q248.022 1540.33 248.022 1531.6 Q248.022 1522.85 251.077 1518.27 Q254.156 1513.66 259.966 1513.66 Z" fill="#000000" fill-rule="nonzero" fill-opacity="1" /><path clip-path="url(#clip070)" d="M683.503 1532.02 L713.178 1532.02 L713.178 1535.95 L683.503 1535.95 L683.503 1532.02 Z" fill="#000000" fill-rule="nonzero" fill-opacity="1" /><path clip-path="url(#clip070)" d="M733.271 1517.37 Q729.66 1517.37 727.831 1520.93 Q726.026 1524.47 726.026 1531.6 Q726.026 1538.71 727.831 1542.27 Q729.66 1545.82 733.271 1545.82 Q736.905 1545.82 738.711 1542.27 Q740.539 1538.71 740.539 1531.6 Q740.539 1524.47 738.711 1520.93 Q736.905 1517.37 733.271 1517.37 M733.271 1513.66 Q739.081 1513.66 742.137 1518.27 Q745.215 1522.85 745.215 1531.6 Q745.215 1540.33 742.137 1544.94 Q739.081 1549.52 733.271 1549.52 Q727.461 1549.52 724.382 1544.94 Q721.327 1540.33 721.327 1531.6 Q721.327 1522.85 724.382 1518.27 Q727.461 1513.66 733.271 1513.66 Z" fill="#000000" fill-rule="nonzero" fill-opacity="1" /><path clip-path="url(#clip070)" d="M753.433 1542.97 L758.317 1542.97 L758.317 1548.85 L753.433 1548.85 L753.433 1542.97 Z" fill="#000000" fill-rule="nonzero" fill-opacity="1" /><path clip-path="url(#clip070)" d="M768.548 1514.29 L786.905 1514.29 L786.905 1518.22 L772.831 1518.22 L772.831 1526.7 Q773.849 1526.35 774.868 1526.19 Q775.886 1526 776.905 1526 Q782.692 1526 786.072 1529.17 Q789.451 1532.34 789.451 1537.76 Q789.451 1543.34 785.979 1546.44 Q782.507 1549.52 776.187 1549.52 Q774.011 1549.52 771.743 1549.15 Q769.498 1548.78 767.09 1548.04 L767.09 1543.34 Q769.173 1544.47 771.396 1545.03 Q773.618 1545.58 776.095 1545.58 Q780.099 1545.58 782.437 1543.48 Q784.775 1541.37 784.775 1537.76 Q784.775 1534.15 782.437 1532.04 Q780.099 1529.94 776.095 1529.94 Q774.22 1529.94 772.345 1530.35 Q770.493 1530.77 768.548 1531.65 L768.548 1514.29 Z" fill="#000000" fill-rule="nonzero" fill-opacity="1" /><path clip-path="url(#clip070)" d="M1231.9 1517.37 Q1228.29 1517.37 1226.46 1520.93 Q1224.65 1524.47 1224.65 1531.6 Q1224.65 1538.71 1226.46 1542.27 Q1228.29 1545.82 1231.9 1545.82 Q1235.53 1545.82 1237.34 1542.27 Q1239.17 1538.71 1239.17 1531.6 Q1239.17 1524.47 1237.34 1520.93 Q1235.53 1517.37 1231.9 1517.37 M1231.9 1513.66 Q1237.71 1513.66 1240.77 1518.27 Q1243.84 1522.85 1243.84 1531.6 Q1243.84 1540.33 1240.77 1544.94 Q1237.71 1549.52 1231.9 1549.52 Q1226.09 1549.52 1223.01 1544.94 Q1219.96 1540.33 1219.96 1531.6 Q1219.96 1522.85 1223.01 1518.27 Q1226.09 1513.66 1231.9 1513.66 Z" fill="#000000" fill-rule="nonzero" fill-opacity="1" /><path clip-path="url(#clip070)" d="M1252.06 1542.97 L1256.95 1542.97 L1256.95 1548.85 L1252.06 1548.85 L1252.06 1542.97 Z" fill="#000000" fill-rule="nonzero" fill-opacity="1" /><path clip-path="url(#clip070)" d="M1277.13 1517.37 Q1273.52 1517.37 1271.69 1520.93 Q1269.89 1524.47 1269.89 1531.6 Q1269.89 1538.71 1271.69 1542.27 Q1273.52 1545.82 1277.13 1545.82 Q1280.76 1545.82 1282.57 1542.27 Q1284.4 1538.71 1284.4 1531.6 Q1284.4 1524.47 1282.57 1520.93 Q1280.76 1517.37 1277.13 1517.37 M1277.13 1513.66 Q1282.94 1513.66 1286 1518.27 Q1289.08 1522.85 1289.08 1531.6 Q1289.08 1540.33 1286 1544.94 Q1282.94 1549.52 1277.13 1549.52 Q1271.32 1549.52 1268.24 1544.94 Q1265.19 1540.33 1265.19 1531.6 Q1265.19 1522.85 1268.24 1518.27 Q1271.32 1513.66 1277.13 1513.66 Z" fill="#000000" fill-rule="nonzero" fill-opacity="1" /><path clip-path="url(#clip070)" d="M1750.44 1517.37 Q1746.82 1517.37 1745 1520.93 Q1743.19 1524.47 1743.19 1531.6 Q1743.19 1538.71 1745 1542.27 Q1746.82 1545.82 1750.44 1545.82 Q1754.07 1545.82 1755.88 1542.27 Q1757.7 1538.71 1757.7 1531.6 Q1757.7 1524.47 1755.88 1520.93 Q1754.07 1517.37 1750.44 1517.37 M1750.44 1513.66 Q1756.25 1513.66 1759.3 1518.27 Q1762.38 1522.85 1762.38 1531.6 Q1762.38 1540.33 1759.3 1544.94 Q1756.25 1549.52 1750.44 1549.52 Q1744.63 1549.52 1741.55 1544.94 Q1738.49 1540.33 1738.49 1531.6 Q1738.49 1522.85 1741.55 1518.27 Q1744.63 1513.66 1750.44 1513.66 Z" fill="#000000" fill-rule="nonzero" fill-opacity="1" /><path clip-path="url(#clip070)" d="M1770.6 1542.97 L1775.48 1542.97 L1775.48 1548.85 L1770.6 1548.85 L1770.6 1542.97 Z" fill="#000000" fill-rule="nonzero" fill-opacity="1" /><path clip-path="url(#clip070)" d="M1785.71 1514.29 L1804.07 1514.29 L1804.07 1518.22 L1790 1518.22 L1790 1526.7 Q1791.01 1526.35 1792.03 1526.19 Q1793.05 1526 1794.07 1526 Q1799.86 1526 1803.24 1529.17 Q1806.62 1532.34 1806.62 1537.76 Q1806.62 1543.34 1803.14 1546.44 Q1799.67 1549.52 1793.35 1549.52 Q1791.18 1549.52 1788.91 1549.15 Q1786.66 1548.78 1784.25 1548.04 L1784.25 1543.34 Q1786.34 1544.47 1788.56 1545.03 Q1790.78 1545.58 1793.26 1545.58 Q1797.26 1545.58 1799.6 1543.48 Q1801.94 1541.37 1801.94 1537.76 Q1801.94 1534.15 1799.6 1532.04 Q1797.26 1529.94 1793.26 1529.94 Q1791.38 1529.94 1789.51 1530.35 Q1787.66 1530.77 1785.71 1531.65 L1785.71 1514.29 Z" fill="#000000" fill-rule="nonzero" fill-opacity="1" /><path clip-path="url(#clip070)" d="M2257.74 1544.91 L2265.38 1544.91 L2265.38 1518.55 L2257.07 1520.21 L2257.07 1515.95 L2265.34 1514.29 L2270.01 1514.29 L2270.01 1544.91 L2277.65 1544.91 L2277.65 1548.85 L2257.74 1548.85 L2257.74 1544.91 Z" fill="#000000" fill-rule="nonzero" fill-opacity="1" /><path clip-path="url(#clip070)" d="M2287.1 1542.97 L2291.98 1542.97 L2291.98 1548.85 L2287.1 1548.85 L2287.1 1542.97 Z" fill="#000000" fill-rule="nonzero" fill-opacity="1" /><path clip-path="url(#clip070)" d="M2312.17 1517.37 Q2308.55 1517.37 2306.73 1520.93 Q2304.92 1524.47 2304.92 1531.6 Q2304.92 1538.71 2306.73 1542.27 Q2308.55 1545.82 2312.17 1545.82 Q2315.8 1545.82 2317.61 1542.27 Q2319.43 1538.71 2319.43 1531.6 Q2319.43 1524.47 2317.61 1520.93 Q2315.8 1517.37 2312.17 1517.37 M2312.17 1513.66 Q2317.98 1513.66 2321.03 1518.27 Q2324.11 1522.85 2324.11 1531.6 Q2324.11 1540.33 2321.03 1544.94 Q2317.98 1549.52 2312.17 1549.52 Q2306.36 1549.52 2303.28 1544.94 Q2300.22 1540.33 2300.22 1531.6 Q2300.22 1522.85 2303.28 1518.27 Q2306.36 1513.66 2312.17 1513.66 Z" fill="#000000" fill-rule="nonzero" fill-opacity="1" /><polyline clip-path="url(#clip072)" style="stroke:#000000; stroke-linecap:round; stroke-linejoin:round; stroke-width:2; stroke-opacity:0.1; fill:none" points="156.274,1241.29 2352.76,1241.29 "/>
<polyline clip-path="url(#clip072)" style="stroke:#000000; stroke-linecap:round; stroke-linejoin:round; stroke-width:2; stroke-opacity:0.1; fill:none" points="156.274,970.628 2352.76,970.628 "/>
<polyline clip-path="url(#clip072)" style="stroke:#000000; stroke-linecap:round; stroke-linejoin:round; stroke-width:2; stroke-opacity:0.1; fill:none" points="156.274,699.963 2352.76,699.963 "/>
<polyline clip-path="url(#clip072)" style="stroke:#000000; stroke-linecap:round; stroke-linejoin:round; stroke-width:2; stroke-opacity:0.1; fill:none" points="156.274,429.298 2352.76,429.298 "/>
<polyline clip-path="url(#clip072)" style="stroke:#000000; stroke-linecap:round; stroke-linejoin:round; stroke-width:2; stroke-opacity:0.1; fill:none" points="156.274,158.633 2352.76,158.633 "/>
<polyline clip-path="url(#clip070)" style="stroke:#000000; stroke-linecap:round; stroke-linejoin:round; stroke-width:4; stroke-opacity:1; fill:none" points="156.274,1486.45 156.274,47.2441 "/>
<polyline clip-path="url(#clip070)" style="stroke:#000000; stroke-linecap:round; stroke-linejoin:round; stroke-width:4; stroke-opacity:1; fill:none" points="156.274,1241.29 175.172,1241.29 "/>
<polyline clip-path="url(#clip070)" style="stroke:#000000; stroke-linecap:round; stroke-linejoin:round; stroke-width:4; stroke-opacity:1; fill:none" points="156.274,970.628 175.172,970.628 "/>
<polyline clip-path="url(#clip070)" style="stroke:#000000; stroke-linecap:round; stroke-linejoin:round; stroke-width:4; stroke-opacity:1; fill:none" points="156.274,699.963 175.172,699.963 "/>
<polyline clip-path="url(#clip070)" style="stroke:#000000; stroke-linecap:round; stroke-linejoin:round; stroke-width:4; stroke-opacity:1; fill:none" points="156.274,429.298 175.172,429.298 "/>
<polyline clip-path="url(#clip070)" style="stroke:#000000; stroke-linecap:round; stroke-linejoin:round; stroke-width:4; stroke-opacity:1; fill:none" points="156.274,158.633 175.172,158.633 "/>
<path clip-path="url(#clip070)" d="M63.0985 1227.09 Q59.4875 1227.09 57.6588 1230.66 Q55.8532 1234.2 55.8532 1241.33 Q55.8532 1248.43 57.6588 1252 Q59.4875 1255.54 63.0985 1255.54 Q66.7328 1255.54 68.5383 1252 Q70.367 1248.43 70.367 1241.33 Q70.367 1234.2 68.5383 1230.66 Q66.7328 1227.09 63.0985 1227.09 M63.0985 1223.39 Q68.9087 1223.39 71.9642 1227.99 Q75.0429 1232.58 75.0429 1241.33 Q75.0429 1250.06 71.9642 1254.66 Q68.9087 1259.24 63.0985 1259.24 Q57.2884 1259.24 54.2097 1254.66 Q51.1542 1250.06 51.1542 1241.33 Q51.1542 1232.58 54.2097 1227.99 Q57.2884 1223.39 63.0985 1223.39 Z" fill="#000000" fill-rule="nonzero" fill-opacity="1" /><path clip-path="url(#clip070)" d="M83.2605 1252.69 L88.1447 1252.69 L88.1447 1258.57 L83.2605 1258.57 L83.2605 1252.69 Z" fill="#000000" fill-rule="nonzero" fill-opacity="1" /><path clip-path="url(#clip070)" d="M108.33 1227.09 Q104.719 1227.09 102.89 1230.66 Q101.084 1234.2 101.084 1241.33 Q101.084 1248.43 102.89 1252 Q104.719 1255.54 108.33 1255.54 Q111.964 1255.54 113.77 1252 Q115.598 1248.43 115.598 1241.33 Q115.598 1234.2 113.77 1230.66 Q111.964 1227.09 108.33 1227.09 M108.33 1223.39 Q114.14 1223.39 117.195 1227.99 Q120.274 1232.58 120.274 1241.33 Q120.274 1250.06 117.195 1254.66 Q114.14 1259.24 108.33 1259.24 Q102.52 1259.24 99.4409 1254.66 Q96.3854 1250.06 96.3854 1241.33 Q96.3854 1232.58 99.4409 1227.99 Q102.52 1223.39 108.33 1223.39 Z" fill="#000000" fill-rule="nonzero" fill-opacity="1" /><path clip-path="url(#clip070)" d="M63.7467 956.427 Q60.1356 956.427 58.3069 959.992 Q56.5014 963.534 56.5014 970.663 Q56.5014 977.77 58.3069 981.334 Q60.1356 984.876 63.7467 984.876 Q67.3809 984.876 69.1865 981.334 Q71.0152 977.77 71.0152 970.663 Q71.0152 963.534 69.1865 959.992 Q67.3809 956.427 63.7467 956.427 M63.7467 952.723 Q69.5568 952.723 72.6124 957.33 Q75.6911 961.913 75.6911 970.663 Q75.6911 979.39 72.6124 983.996 Q69.5568 988.58 63.7467 988.58 Q57.9365 988.58 54.8578 983.996 Q51.8023 979.39 51.8023 970.663 Q51.8023 961.913 54.8578 957.33 Q57.9365 952.723 63.7467 952.723 Z" fill="#000000" fill-rule="nonzero" fill-opacity="1" /><path clip-path="url(#clip070)" d="M83.9086 982.029 L88.7928 982.029 L88.7928 987.908 L83.9086 987.908 L83.9086 982.029 Z" fill="#000000" fill-rule="nonzero" fill-opacity="1" /><path clip-path="url(#clip070)" d="M113.145 969.274 Q116.501 969.992 118.376 972.26 Q120.274 974.529 120.274 977.862 Q120.274 982.978 116.756 985.779 Q113.237 988.58 106.756 988.58 Q104.58 988.58 102.265 988.14 Q99.9733 987.723 97.5197 986.867 L97.5197 982.353 Q99.4641 983.487 101.779 984.066 Q104.094 984.645 106.617 984.645 Q111.015 984.645 113.307 982.908 Q115.621 981.172 115.621 977.862 Q115.621 974.807 113.469 973.094 Q111.339 971.358 107.52 971.358 L103.492 971.358 L103.492 967.515 L107.705 967.515 Q111.154 967.515 112.983 966.149 Q114.811 964.76 114.811 962.168 Q114.811 959.506 112.913 958.094 Q111.038 956.659 107.52 956.659 Q105.598 956.659 103.399 957.075 Q101.2 957.492 98.5613 958.372 L98.5613 954.205 Q101.223 953.464 103.538 953.094 Q105.876 952.723 107.936 952.723 Q113.26 952.723 116.362 955.154 Q119.464 957.561 119.464 961.682 Q119.464 964.552 117.82 966.543 Q116.177 968.51 113.145 969.274 Z" fill="#000000" fill-rule="nonzero" fill-opacity="1" /><path clip-path="url(#clip070)" d="M62.9365 685.762 Q59.3254 685.762 57.4967 689.327 Q55.6912 692.869 55.6912 699.998 Q55.6912 707.105 57.4967 710.669 Q59.3254 714.211 62.9365 714.211 Q66.5707 714.211 68.3763 710.669 Q70.205 707.105 70.205 699.998 Q70.205 692.869 68.3763 689.327 Q66.5707 685.762 62.9365 685.762 M62.9365 682.058 Q68.7467 682.058 71.8022 686.665 Q74.8809 691.248 74.8809 699.998 Q74.8809 708.725 71.8022 713.331 Q68.7467 717.915 62.9365 717.915 Q57.1264 717.915 54.0477 713.331 Q50.9921 708.725 50.9921 699.998 Q50.9921 691.248 54.0477 686.665 Q57.1264 682.058 62.9365 682.058 Z" fill="#000000" fill-rule="nonzero" fill-opacity="1" /><path clip-path="url(#clip070)" d="M83.0984 711.364 L87.9827 711.364 L87.9827 717.243 L83.0984 717.243 L83.0984 711.364 Z" fill="#000000" fill-rule="nonzero" fill-opacity="1" /><path clip-path="url(#clip070)" d="M108.746 698.1 Q105.598 698.1 103.746 700.253 Q101.918 702.406 101.918 706.156 Q101.918 709.882 103.746 712.058 Q105.598 714.211 108.746 714.211 Q111.895 714.211 113.723 712.058 Q115.575 709.882 115.575 706.156 Q115.575 702.406 113.723 700.253 Q111.895 698.1 108.746 698.1 M118.029 683.447 L118.029 687.707 Q116.27 686.873 114.464 686.433 Q112.682 685.994 110.922 685.994 Q106.293 685.994 103.839 689.119 Q101.409 692.244 101.061 698.563 Q102.427 696.549 104.487 695.484 Q106.547 694.396 109.024 694.396 Q114.233 694.396 117.242 697.568 Q120.274 700.716 120.274 706.156 Q120.274 711.48 117.126 714.697 Q113.978 717.915 108.746 717.915 Q102.751 717.915 99.5798 713.331 Q96.4085 708.725 96.4085 699.998 Q96.4085 691.804 100.297 686.943 Q104.186 682.058 110.737 682.058 Q112.496 682.058 114.279 682.406 Q116.084 682.753 118.029 683.447 Z" fill="#000000" fill-rule="nonzero" fill-opacity="1" /><path clip-path="url(#clip070)" d="M63.2837 415.097 Q59.6726 415.097 57.8439 418.662 Q56.0384 422.203 56.0384 429.333 Q56.0384 436.44 57.8439 440.004 Q59.6726 443.546 63.2837 443.546 Q66.918 443.546 68.7235 440.004 Q70.5522 436.44 70.5522 429.333 Q70.5522 422.203 68.7235 418.662 Q66.918 415.097 63.2837 415.097 M63.2837 411.393 Q69.0939 411.393 72.1494 416 Q75.2281 420.583 75.2281 429.333 Q75.2281 438.06 72.1494 442.666 Q69.0939 447.25 63.2837 447.25 Q57.4736 447.25 54.3949 442.666 Q51.3393 438.06 51.3393 429.333 Q51.3393 420.583 54.3949 416 Q57.4736 411.393 63.2837 411.393 Z" fill="#000000" fill-rule="nonzero" fill-opacity="1" /><path clip-path="url(#clip070)" d="M83.4457 440.699 L88.3299 440.699 L88.3299 446.578 L83.4457 446.578 L83.4457 440.699 Z" fill="#000000" fill-rule="nonzero" fill-opacity="1" /><path clip-path="url(#clip070)" d="M98.6539 445.861 L98.6539 441.602 Q100.413 442.435 102.219 442.875 Q104.024 443.314 105.76 443.314 Q110.39 443.314 112.82 440.213 Q115.274 437.088 115.621 430.745 Q114.279 432.736 112.219 433.801 Q110.158 434.865 107.658 434.865 Q102.473 434.865 99.4409 431.74 Q96.4317 428.592 96.4317 423.153 Q96.4317 417.829 99.5798 414.611 Q102.728 411.393 107.959 411.393 Q113.955 411.393 117.103 416 Q120.274 420.583 120.274 429.333 Q120.274 437.504 116.385 442.389 Q112.52 447.25 105.969 447.25 Q104.209 447.25 102.404 446.902 Q100.598 446.555 98.6539 445.861 M107.959 431.208 Q111.108 431.208 112.936 429.055 Q114.788 426.903 114.788 423.153 Q114.788 419.426 112.936 417.273 Q111.108 415.097 107.959 415.097 Q104.811 415.097 102.959 417.273 Q101.131 419.426 101.131 423.153 Q101.131 426.903 102.959 429.055 Q104.811 431.208 107.959 431.208 Z" fill="#000000" fill-rule="nonzero" fill-opacity="1" /><path clip-path="url(#clip070)" d="M55.506 171.978 L63.1448 171.978 L63.1448 145.613 L54.8347 147.279 L54.8347 143.02 L63.0985 141.353 L67.7744 141.353 L67.7744 171.978 L75.4133 171.978 L75.4133 175.913 L55.506 175.913 L55.506 171.978 Z" fill="#000000" fill-rule="nonzero" fill-opacity="1" /><path clip-path="url(#clip070)" d="M84.8577 170.034 L89.7419 170.034 L89.7419 175.913 L84.8577 175.913 L84.8577 170.034 Z" fill="#000000" fill-rule="nonzero" fill-opacity="1" /><path clip-path="url(#clip070)" d="M103.955 171.978 L120.274 171.978 L120.274 175.913 L98.3298 175.913 L98.3298 171.978 Q100.992 169.224 105.575 164.594 Q110.182 159.941 111.362 158.599 Q113.608 156.075 114.487 154.339 Q115.39 152.58 115.39 150.89 Q115.39 148.136 113.445 146.4 Q111.524 144.663 108.422 144.663 Q106.223 144.663 103.77 145.427 Q101.339 146.191 98.5613 147.742 L98.5613 143.02 Q101.385 141.886 103.839 141.307 Q106.293 140.728 108.33 140.728 Q113.7 140.728 116.895 143.413 Q120.089 146.099 120.089 150.589 Q120.089 152.719 119.279 154.64 Q118.492 156.538 116.385 159.131 Q115.807 159.802 112.705 163.02 Q109.603 166.214 103.955 171.978 Z" fill="#000000" fill-rule="nonzero" fill-opacity="1" /><polyline clip-path="url(#clip072)" style="stroke:#009af9; stroke-linecap:round; stroke-linejoin:round; stroke-width:16; stroke-opacity:1; fill:none" stroke-dasharray="8, 16" points="218.439,1105.78 228.852,1096.33 239.264,1085.18 249.677,1074.31 260.09,1061.74 270.503,1047.6 280.916,1042.68 291.329,1061.87 301.741,1103.33 312.154,1147.86 322.567,1180.89 332.98,1202.81 343.393,1221.69 353.805,1244.48 364.218,1273.7 374.631,1307.65 385.044,1342.08 395.457,1372.32 405.87,1395.2 416.282,1409.87 426.695,1417.37 437.108,1419.53 447.521,1417.72 457.934,1412.04 468.347,1401.2 478.759,1383.53 489.172,1358.89 499.585,1330.29 509.998,1303.15 520.411,1280.89 530.824,1260.01 541.236,1231.04 551.649,1188.21 562.062,1138.47 572.475,1097.44 582.888,1075.87 593.301,1072.26 603.713,1077.04 614.126,1080.7 624.539,1078.98 634.952,1073.75 645.365,1071.05 655.777,1077.75 666.19,1097.87 676.603,1130.13 687.016,1168.59 697.429,1206.23 707.842,1238.81 718.254,1266.17 728.667,1290.83 739.08,1315.62 749.493,1342.01 759.906,1369.54 770.319,1395.81 780.731,1416.9 791.144,1428.55 801.557,1428.34 811.97,1418.11 822.383,1403.89 832.796,1390.67 843.208,1376.02 853.621,1355.15 864.034,1332.91 874.447,1315.07 884.86,1288.98 895.273,1232.9 905.685,1151.82 916.098,1091.11 926.511,1085.65 936.924,1113.96 947.337,1142.68 957.749,1147.07 968.162,1111.97 978.575,1064.64 988.988,1052.48 999.401,1079.85 1009.81,1106.29 1020.23,1102.93 1030.64,1084.41 1041.05,1087.42 1051.46,1134.65 1061.88,1200.79 1072.29,1236.4 1082.7,1300.5 1093.12,1399.82 1103.53,1373.05 1113.94,1256.75 1124.35,1250.25 1134.77,1328.94 1145.18,1397.7 1155.59,1438.46 1166.01,1445.72 1176.42,1429.31 1186.83,1408.54 1197.24,1396.79 1207.66,1395.17 1218.07,1390 1228.48,1350.38 1238.9,1226.21 1249.31,976.69 1259.72,652.474 1270.13,403.872 1280.55,310.391 1290.96,317.243 1301.37,349.756 1311.79,363.464 1322.2,343.015 1332.61,298.673 1343.02,265.483 1353.44,280.216 1363.85,346.165 1374.26,424.063 1384.68,464.845 1395.09,420.448 1405.5,295.419 1415.91,204.917 1426.33,211.979 1436.74,288.534 1447.15,409.683 1457.57,483.27 1467.98,463.138 1478.39,376.615 1488.8,266.977 1499.22,192.476 1509.63,194.782 1520.04,263.531 1530.45,362.722 1540.87,446.41 1551.28,482.749 1561.69,460.75 1572.11,392.091 1582.52,309.243 1592.93,249.595 1603.34,231.001 1613.76,245.272 1624.17,277.227 1634.58,317.113 1645,356.922 1655.41,388.976 1665.82,408.739 1676.23,415.287 1686.65,409.197 1697.06,390.169 1707.47,355.984 1717.89,305.718 1728.3,249.696 1738.71,216.103 1749.12,232.552 1759.54,294.733 1769.95,370.324 1780.36,430.886 1790.78,464.078 1801.19,466.038 1811.6,435.877 1822.01,376.64 1832.43,298.814 1842.84,222.797 1853.25,176.318 1863.67,183.281 1874.08,246.476 1884.49,340.587 1894.9,428.744 1905.32,485.069 1915.73,500.707 1926.14,477.274 1936.56,420.866 1946.97,341.044 1957.38,253.081 1967.79,179.737 1978.21,147.314 1988.62,173.646 1999.03,255.194 2009.45,365.498 2019.86,467.828 2030.27,531.236 2040.68,538.97 2051.1,489.375 2061.51,396.091 2071.92,288.032 2082.33,200.254 2092.75,156.219 2103.16,159.702 2113.57,203.24 2123.99,278.065 2134.4,374.705 2144.81,476.718 2155.22,553.976 2165.64,562.825 2176.05,469.092 2186.46,305.388 2196.88,177.871 2207.29,145.093 2217.7,171.37 2228.11,217.022 2238.53,271.619 2248.94,332.409 2259.35,393.638 2269.77,450.101 2280.18,504.519 2290.59,563.541 "/>
<polyline clip-path="url(#clip072)" style="stroke:#e26f46; stroke-linecap:round; stroke-linejoin:round; stroke-width:4; stroke-opacity:1; fill:none" points="218.439,1105.78 228.852,1086.56 239.264,1072.38 249.677,1063.72 260.09,1060.85 270.503,1063.87 280.916,1072.68 291.329,1087 301.741,1106.35 312.154,1130.11 322.567,1157.49 332.98,1187.61 343.393,1219.48 353.805,1252.06 364.218,1284.3 374.631,1315.12 385.044,1343.54 395.457,1368.62 405.87,1389.55 416.282,1405.64 426.695,1416.36 437.108,1421.37 447.521,1420.5 457.934,1413.79 468.347,1401.44 478.759,1383.87 489.172,1361.64 499.585,1335.49 509.998,1306.26 520.411,1274.91 530.824,1242.47 541.236,1209.98 551.649,1178.52 562.062,1149.11 572.475,1122.7 582.888,1100.17 593.301,1082.24 603.713,1069.5 614.126,1062.37 624.539,1061.08 634.952,1065.67 645.365,1076 655.777,1091.71 666.19,1112.31 676.603,1137.12 687.016,1165.33 697.429,1196.02 707.842,1228.19 718.254,1260.78 728.667,1292.74 739.08,1323.01 749.493,1350.63 759.906,1374.67 770.319,1394.36 780.731,1409.05 791.144,1418.27 801.557,1421.72 811.97,1419.27 822.383,1411.02 832.796,1397.22 843.208,1378.34 853.621,1354.98 864.034,1327.92 874.447,1298.03 884.86,1266.28 895.273,1233.72 905.685,1201.41 916.098,1170.4 926.511,1141.7 936.924,1116.25 947.337,1094.89 957.749,1078.3 968.162,1067.03 978.575,1061.45 988.988,1061.74 999.401,1067.89 1009.81,1079.7 1020.23,1096.78 1030.64,1118.58 1041.05,1144.38 1051.46,1173.35 1061.88,1204.54 1072.29,1236.92 1082.7,1269.45 1093.12,1301.06 1103.53,1330.71 1113.94,1357.45 1124.35,1380.4 1134.77,1398.81 1145.18,1412.08 1155.59,1419.77 1166.01,1421.64 1176.42,1417.62 1186.83,1407.85 1197.24,1392.64 1207.66,1372.49 1218.07,1348.06 1228.48,1320.15 1238.9,1289.66 1249.31,1257.59 1259.72,337.766 1270.13,336.275 1280.55,337.632 1290.96,342.15 1301.37,348.444 1311.79,353.855 1322.2,355.457 1332.61,351.294 1343.02,341.369 1353.44,327.99 1363.85,315.259 1374.26,307.821 1384.68,309.248 1395.09,320.596 1405.5,339.683 1415.91,361.405 1426.33,379.094 1436.74,386.555 1447.15,380.168 1457.57,360.35 1467.98,331.845 1478.39,302.631 1488.8,281.694 1499.22,276.27 1509.63,289.419 1520.04,318.712 1530.45,356.544 1540.87,392.082 1551.28,414.37 1561.69,415.69 1572.11,394.157 1582.52,354.694 1592.93,307.98 1603.34,267.572 1613.76,245.971 1624.17,250.774 1634.58,282.091 1645,332.085 1655.41,386.892 1665.82,430.457 1676.23,449.24 1686.65,436.396 1697.06,394.16 1707.47,333.624 1717.89,271.848 1728.3,227.056 1738.71,213.261 1749.12,235.913 1759.54,289.904 1769.95,360.633 1780.36,427.941 1790.78,471.854 1801.19,478.506 1811.6,444.48 1822.01,378.226 1832.43,298.011 1842.84,226.894 1853.25,186.095 1863.67,188.674 1874.08,235.394 1884.49,314.068 1894.9,402.705 1905.32,475.656 1915.73,511.03 1926.14,497.255 1936.56,436.808 1946.97,345.925 1957.38,250.266 1967.79,177.67 1978.21,150.055 1988.62,176.816 1999.03,251.705 2009.45,354.213 2019.86,455.173 2030.27,525.057 2040.68,542.61 2051.1,501.296 2061.51,411.603 2071.92,298.43 2082.33,194.179 2092.75,129.483 2103.16,124.206 2113.57,181.37 2123.99,285.855 2134.4,408.366 2144.81,513.644 2155.22,570.612 2165.64,561.542 2176.05,487.541 2186.46,368.662 2196.88,238.493 2207.29,134.664 2217.7,87.9763 2228.11,113.269 2238.53,204.747 2248.94,337.224 2259.35,473.043 2269.77,572.78 2280.18,606.684 2290.59,563.542 "/>
<path clip-path="url(#clip070)" d="M229.49 250.738 L675.966 250.738 L675.966 95.2176 L229.49 95.2176  Z" fill="#ffffff" fill-rule="evenodd" fill-opacity="1"/>
<polyline clip-path="url(#clip070)" style="stroke:#000000; stroke-linecap:round; stroke-linejoin:round; stroke-width:4; stroke-opacity:1; fill:none" points="229.49,250.738 675.966,250.738 675.966,95.2176 229.49,95.2176 229.49,250.738 "/>
<polyline clip-path="url(#clip070)" style="stroke:#009af9; stroke-linecap:round; stroke-linejoin:round; stroke-width:16; stroke-opacity:1; fill:none" stroke-dasharray="8, 16" points="253.896,147.058 400.328,147.058 "/>
<path clip-path="url(#clip070)" d="M429.409 133.62 L429.409 146.606 L435.289 146.606 Q438.552 146.606 440.335 144.916 Q442.117 143.227 442.117 140.102 Q442.117 137 440.335 135.31 Q438.552 133.62 435.289 133.62 L429.409 133.62 M424.733 129.778 L435.289 129.778 Q441.099 129.778 444.062 132.416 Q447.048 135.032 447.048 140.102 Q447.048 145.217 444.062 147.833 Q441.099 150.449 435.289 150.449 L429.409 150.449 L429.409 164.338 L424.733 164.338 L424.733 129.778 Z" fill="#000000" fill-rule="nonzero" fill-opacity="1" /><path clip-path="url(#clip070)" d="M467.325 142.393 Q466.608 141.977 465.751 141.791 Q464.918 141.583 463.899 141.583 Q460.288 141.583 458.344 143.944 Q456.423 146.282 456.423 150.68 L456.423 164.338 L452.14 164.338 L452.14 138.412 L456.423 138.412 L456.423 142.44 Q457.765 140.078 459.918 138.944 Q462.071 137.787 465.149 137.787 Q465.589 137.787 466.122 137.856 Q466.654 137.903 467.302 138.018 L467.325 142.393 Z" fill="#000000" fill-rule="nonzero" fill-opacity="1" /><path clip-path="url(#clip070)" d="M492.927 150.31 L492.927 152.393 L473.344 152.393 Q473.622 156.791 475.983 159.106 Q478.367 161.398 482.603 161.398 Q485.057 161.398 487.348 160.796 Q489.663 160.194 491.932 158.99 L491.932 163.018 Q489.64 163.99 487.233 164.5 Q484.825 165.009 482.348 165.009 Q476.145 165.009 472.511 161.398 Q468.899 157.787 468.899 151.629 Q468.899 145.264 472.325 141.537 Q475.774 137.787 481.608 137.787 Q486.839 137.787 489.872 141.166 Q492.927 144.523 492.927 150.31 M488.668 149.06 Q488.622 145.565 486.7 143.481 Q484.802 141.398 481.654 141.398 Q478.089 141.398 475.936 143.412 Q473.807 145.426 473.483 149.083 L488.668 149.06 Z" fill="#000000" fill-rule="nonzero" fill-opacity="1" /><path clip-path="url(#clip070)" d="M516.978 142.347 L516.978 128.319 L521.237 128.319 L521.237 164.338 L516.978 164.338 L516.978 160.449 Q515.635 162.763 513.575 163.898 Q511.538 165.009 508.668 165.009 Q503.969 165.009 501.006 161.259 Q498.066 157.509 498.066 151.398 Q498.066 145.287 501.006 141.537 Q503.969 137.787 508.668 137.787 Q511.538 137.787 513.575 138.921 Q515.635 140.032 516.978 142.347 M502.464 151.398 Q502.464 156.097 504.385 158.782 Q506.33 161.444 509.709 161.444 Q513.089 161.444 515.033 158.782 Q516.978 156.097 516.978 151.398 Q516.978 146.699 515.033 144.037 Q513.089 141.352 509.709 141.352 Q506.33 141.352 504.385 144.037 Q502.464 146.699 502.464 151.398 Z" fill="#000000" fill-rule="nonzero" fill-opacity="1" /><path clip-path="url(#clip070)" d="M530.01 138.412 L534.269 138.412 L534.269 164.338 L530.01 164.338 L530.01 138.412 M530.01 128.319 L534.269 128.319 L534.269 133.713 L530.01 133.713 L530.01 128.319 Z" fill="#000000" fill-rule="nonzero" fill-opacity="1" /><path clip-path="url(#clip070)" d="M561.839 139.407 L561.839 143.389 Q560.033 142.393 558.205 141.907 Q556.399 141.398 554.547 141.398 Q550.404 141.398 548.112 144.037 Q545.82 146.652 545.82 151.398 Q545.82 156.143 548.112 158.782 Q550.404 161.398 554.547 161.398 Q556.399 161.398 558.205 160.912 Q560.033 160.402 561.839 159.407 L561.839 163.342 Q560.056 164.176 558.135 164.592 Q556.237 165.009 554.084 165.009 Q548.228 165.009 544.779 161.328 Q541.33 157.648 541.33 151.398 Q541.33 145.055 544.802 141.421 Q548.297 137.787 554.362 137.787 Q556.33 137.787 558.205 138.203 Q560.08 138.597 561.839 139.407 Z" fill="#000000" fill-rule="nonzero" fill-opacity="1" /><path clip-path="url(#clip070)" d="M573.459 131.051 L573.459 138.412 L582.232 138.412 L582.232 141.722 L573.459 141.722 L573.459 155.796 Q573.459 158.967 574.316 159.87 Q575.195 160.773 577.857 160.773 L582.232 160.773 L582.232 164.338 L577.857 164.338 Q572.927 164.338 571.052 162.509 Q569.177 160.657 569.177 155.796 L569.177 141.722 L566.052 141.722 L566.052 138.412 L569.177 138.412 L569.177 131.051 L573.459 131.051 Z" fill="#000000" fill-rule="nonzero" fill-opacity="1" /><path clip-path="url(#clip070)" d="M587.834 138.412 L592.093 138.412 L592.093 164.338 L587.834 164.338 L587.834 138.412 M587.834 128.319 L592.093 128.319 L592.093 133.713 L587.834 133.713 L587.834 128.319 Z" fill="#000000" fill-rule="nonzero" fill-opacity="1" /><path clip-path="url(#clip070)" d="M611.051 141.398 Q607.626 141.398 605.635 144.083 Q603.644 146.745 603.644 151.398 Q603.644 156.051 605.612 158.736 Q607.602 161.398 611.051 161.398 Q614.454 161.398 616.445 158.713 Q618.436 156.027 618.436 151.398 Q618.436 146.791 616.445 144.106 Q614.454 141.398 611.051 141.398 M611.051 137.787 Q616.607 137.787 619.778 141.398 Q622.95 145.009 622.95 151.398 Q622.95 157.764 619.778 161.398 Q616.607 165.009 611.051 165.009 Q605.473 165.009 602.302 161.398 Q599.153 157.764 599.153 151.398 Q599.153 145.009 602.302 141.398 Q605.473 137.787 611.051 137.787 Z" fill="#000000" fill-rule="nonzero" fill-opacity="1" /><path clip-path="url(#clip070)" d="M651.561 148.689 L651.561 164.338 L647.301 164.338 L647.301 148.828 Q647.301 145.148 645.866 143.319 Q644.431 141.49 641.561 141.49 Q638.112 141.49 636.121 143.69 Q634.13 145.889 634.13 149.685 L634.13 164.338 L629.848 164.338 L629.848 138.412 L634.13 138.412 L634.13 142.44 Q635.658 140.102 637.718 138.944 Q639.801 137.787 642.51 137.787 Q646.977 137.787 649.269 140.565 Q651.561 143.319 651.561 148.689 Z" fill="#000000" fill-rule="nonzero" fill-opacity="1" /><polyline clip-path="url(#clip070)" style="stroke:#e26f46; stroke-linecap:round; stroke-linejoin:round; stroke-width:4; stroke-opacity:1; fill:none" points="253.896,198.898 400.328,198.898 "/>
<path clip-path="url(#clip070)" d="M424.733 181.618 L446.585 181.618 L446.585 185.553 L429.409 185.553 L429.409 195.784 L445.867 195.784 L445.867 199.719 L429.409 199.719 L429.409 212.242 L447.001 212.242 L447.001 216.178 L424.733 216.178 L424.733 181.618 Z" fill="#000000" fill-rule="nonzero" fill-opacity="1" /><path clip-path="url(#clip070)" d="M476.052 190.252 L466.677 202.867 L476.538 216.178 L471.515 216.178 L463.969 205.992 L456.423 216.178 L451.4 216.178 L461.469 202.613 L452.256 190.252 L457.279 190.252 L464.154 199.488 L471.029 190.252 L476.052 190.252 Z" fill="#000000" fill-rule="nonzero" fill-opacity="1" /><path clip-path="url(#clip070)" d="M494.339 203.145 Q489.177 203.145 487.186 204.326 Q485.196 205.506 485.196 208.354 Q485.196 210.622 486.677 211.965 Q488.182 213.284 490.751 213.284 Q494.293 213.284 496.422 210.784 Q498.575 208.261 498.575 204.094 L498.575 203.145 L494.339 203.145 M502.834 201.386 L502.834 216.178 L498.575 216.178 L498.575 212.242 Q497.117 214.603 494.941 215.738 Q492.765 216.849 489.617 216.849 Q485.635 216.849 483.274 214.627 Q480.936 212.381 480.936 208.631 Q480.936 204.256 483.853 202.034 Q486.793 199.812 492.603 199.812 L498.575 199.812 L498.575 199.395 Q498.575 196.455 496.631 194.858 Q494.71 193.238 491.214 193.238 Q488.992 193.238 486.885 193.77 Q484.779 194.303 482.835 195.367 L482.835 191.432 Q485.173 190.53 487.372 190.09 Q489.571 189.627 491.654 189.627 Q497.279 189.627 500.057 192.543 Q502.834 195.46 502.834 201.386 Z" fill="#000000" fill-rule="nonzero" fill-opacity="1" /><path clip-path="url(#clip070)" d="M530.265 191.247 L530.265 195.229 Q528.459 194.233 526.631 193.747 Q524.825 193.238 522.973 193.238 Q518.83 193.238 516.538 195.877 Q514.246 198.492 514.246 203.238 Q514.246 207.983 516.538 210.622 Q518.83 213.238 522.973 213.238 Q524.825 213.238 526.631 212.752 Q528.459 212.242 530.265 211.247 L530.265 215.182 Q528.482 216.016 526.561 216.432 Q524.663 216.849 522.51 216.849 Q516.654 216.849 513.205 213.168 Q509.756 209.488 509.756 203.238 Q509.756 196.895 513.228 193.261 Q516.723 189.627 522.788 189.627 Q524.756 189.627 526.631 190.043 Q528.506 190.437 530.265 191.247 Z" fill="#000000" fill-rule="nonzero" fill-opacity="1" /><path clip-path="url(#clip070)" d="M541.885 182.891 L541.885 190.252 L550.658 190.252 L550.658 193.562 L541.885 193.562 L541.885 207.636 Q541.885 210.807 542.742 211.71 Q543.621 212.613 546.283 212.613 L550.658 212.613 L550.658 216.178 L546.283 216.178 Q541.353 216.178 539.478 214.349 Q537.603 212.497 537.603 207.636 L537.603 193.562 L534.478 193.562 L534.478 190.252 L537.603 190.252 L537.603 182.891 L541.885 182.891 Z" fill="#000000" fill-rule="nonzero" fill-opacity="1" /></svg>
