<?xml version="1.0" encoding="utf-8"?>
<svg xmlns="http://www.w3.org/2000/svg" xmlns:xlink="http://www.w3.org/1999/xlink" width="600" height="400" viewBox="0 0 2400 1600">
<defs>
  <clipPath id="clip390">
    <rect x="0" y="0" width="2400" height="1600"/>
  </clipPath>
</defs>
<path clip-path="url(#clip390)" d="M0 1600 L2400 1600 L2400 0 L0 0  Z" fill="#ffffff" fill-rule="evenodd" fill-opacity="1"/>
<defs>
  <clipPath id="clip391">
    <rect x="480" y="0" width="1681" height="1600"/>
  </clipPath>
</defs>
<path clip-path="url(#clip390)" d="M156.274 1486.45 L2352.76 1486.45 L2352.76 47.2441 L156.274 47.2441  Z" fill="#ffffff" fill-rule="evenodd" fill-opacity="1"/>
<defs>
  <clipPath id="clip392">
    <rect x="156" y="47" width="2197" height="1440"/>
  </clipPath>
</defs>
<polyline clip-path="url(#clip392)" style="stroke:#000000; stroke-linecap:round; stroke-linejoin:round; stroke-width:2; stroke-opacity:0.1; fill:none" points="218.439,1486.45 218.439,47.2441 "/>
<polyline clip-path="url(#clip392)" style="stroke:#000000; stroke-linecap:round; stroke-linejoin:round; stroke-width:2; stroke-opacity:0.1; fill:none" points="736.477,1486.45 736.477,47.2441 "/>
<polyline clip-path="url(#clip392)" style="stroke:#000000; stroke-linecap:round; stroke-linejoin:round; stroke-width:2; stroke-opacity:0.1; fill:none" points="1254.52,1486.45 1254.52,47.2441 "/>
<polyline clip-path="url(#clip392)" style="stroke:#000000; stroke-linecap:round; stroke-linejoin:round; stroke-width:2; stroke-opacity:0.1; fill:none" points="1772.55,1486.45 1772.55,47.2441 "/>
<polyline clip-path="url(#clip392)" style="stroke:#000000; stroke-linecap:round; stroke-linejoin:round; stroke-width:2; stroke-opacity:0.1; fill:none" points="2290.59,1486.45 2290.59,47.2441 "/>
<polyline clip-path="url(#clip390)" style="stroke:#000000; stroke-linecap:round; stroke-linejoin:round; stroke-width:4; stroke-opacity:1; fill:none" points="156.274,1486.45 2352.76,1486.45 "/>
<polyline clip-path="url(#clip390)" style="stroke:#000000; stroke-linecap:round; stroke-linejoin:round; stroke-width:4; stroke-opacity:1; fill:none" points="218.439,1486.45 218.439,1467.55 "/>
<polyline clip-path="url(#clip390)" style="stroke:#000000; stroke-linecap:round; stroke-linejoin:round; stroke-width:4; stroke-opacity:1; fill:none" points="736.477,1486.45 736.477,1467.55 "/>
<polyline clip-path="url(#clip390)" style="stroke:#000000; stroke-linecap:round; stroke-linejoin:round; stroke-width:4; stroke-opacity:1; fill:none" points="1254.52,1486.45 1254.52,1467.55 "/>
<polyline clip-path="url(#clip390)" style="stroke:#000000; stroke-linecap:round; stroke-linejoin:round; stroke-width:4; stroke-opacity:1; fill:none" points="1772.55,1486.45 1772.55,1467.55 "/>
<polyline clip-path="url(#clip390)" style="stroke:#000000; stroke-linecap:round; stroke-linejoin:round; stroke-width:4; stroke-opacity:1; fill:none" points="2290.59,1486.45 2290.59,1467.55 "/>
<path clip-path="url(#clip390)" d="M164.967 1532.02 L194.643 1532.02 L194.643 1535.95 L164.967 1535.95 L164.967 1532.02 Z" fill="#000000" fill-rule="nonzero" fill-opacity="1" /><path clip-path="url(#clip390)" d="M205.545 1544.91 L213.184 1544.91 L213.184 1518.55 L204.874 1520.21 L204.874 1515.95 L213.138 1514.29 L217.814 1514.29 L217.814 1544.91 L225.453 1544.91 L225.453 1548.85 L205.545 1548.85 L205.545 1544.91 Z" fill="#000000" fill-rule="nonzero" fill-opacity="1" /><path clip-path="url(#clip390)" d="M234.897 1542.97 L239.781 1542.97 L239.781 1548.85 L234.897 1548.85 L234.897 1542.97 Z" fill="#000000" fill-rule="nonzero" fill-opacity="1" /><path clip-path="url(#clip390)" d="M259.966 1517.37 Q256.355 1517.37 254.527 1520.93 Q252.721 1524.47 252.721 1531.6 Q252.721 1538.71 254.527 1542.27 Q256.355 1545.82 259.966 1545.82 Q263.601 1545.82 265.406 1542.27 Q267.235 1538.71 267.235 1531.6 Q267.235 1524.47 265.406 1520.93 Q263.601 1517.37 259.966 1517.37 M259.966 1513.66 Q265.776 1513.66 268.832 1518.27 Q271.911 1522.85 271.911 1531.6 Q271.911 1540.33 268.832 1544.94 Q265.776 1549.52 259.966 1549.52 Q254.156 1549.52 251.077 1544.94 Q248.022 1540.33 248.022 1531.6 Q248.022 1522.85 251.077 1518.27 Q254.156 1513.66 259.966 1513.66 Z" fill="#000000" fill-rule="nonzero" fill-opacity="1" /><path clip-path="url(#clip390)" d="M683.503 1532.02 L713.178 1532.02 L713.178 1535.95 L683.503 1535.95 L683.503 1532.02 Z" fill="#000000" fill-rule="nonzero" fill-opacity="1" /><path clip-path="url(#clip390)" d="M733.271 1517.37 Q729.66 1517.37 727.831 1520.93 Q726.026 1524.47 726.026 1531.6 Q726.026 1538.71 727.831 1542.27 Q729.66 1545.82 733.271 1545.82 Q736.905 1545.82 738.711 1542.27 Q740.539 1538.71 740.539 1531.6 Q740.539 1524.47 738.711 1520.93 Q736.905 1517.37 733.271 1517.37 M733.271 1513.66 Q739.081 1513.66 742.137 1518.27 Q745.215 1522.85 745.215 1531.6 Q745.215 1540.33 742.137 1544.94 Q739.081 1549.52 733.271 1549.52 Q727.461 1549.52 724.382 1544.94 Q721.327 1540.33 721.327 1531.6 Q721.327 1522.85 724.382 1518.27 Q727.461 1513.66 733.271 1513.66 Z" fill="#000000" fill-rule="nonzero" fill-opacity="1" /><path clip-path="url(#clip390)" d="M753.433 1542.97 L758.317 1542.97 L758.317 1548.85 L753.433 1548.85 L753.433 1542.97 Z" fill="#000000" fill-rule="nonzero" fill-opacity="1" /><path clip-path="url(#clip390)" d="M768.548 1514.29 L786.905 1514.29 L786.905 1518.22 L772.831 1518.22 L772.831 1526.7 Q773.849 1526.35 774.868 1526.19 Q775.886 1526 776.905 1526 Q782.692 1526 786.072 1529.17 Q789.451 1532.34 789.451 1537.76 Q789.451 1543.34 785.979 1546.44 Q782.507 1549.52 776.187 1549.52 Q774.011 1549.52 771.743 1549.15 Q769.498 1548.78 767.09 1548.04 L767.09 1543.34 Q769.173 1544.47 771.396 1545.03 Q773.618 1545.58 776.095 1545.58 Q780.099 1545.58 782.437 1543.48 Q784.775 1541.37 784.775 1537.76 Q784.775 1534.15 782.437 1532.04 Q780.099 1529.94 776.095 1529.94 Q774.22 1529.94 772.345 1530.35 Q770.493 1530.77 768.548 1531.65 L768.548 1514.29 Z" fill="#000000" fill-rule="nonzero" fill-opacity="1" /><path clip-path="url(#clip390)" d="M1231.9 1517.37 Q1228.29 1517.37 1226.46 1520.93 Q1224.65 1524.47 1224.65 1531.6 Q1224.65 1538.71 1226.46 1542.27 Q1228.29 1545.82 1231.9 1545.82 Q1235.53 1545.82 1237.34 1542.27 Q1239.17 1538.71 1239.17 1531.6 Q1239.17 1524.47 1237.34 1520.93 Q1235.53 1517.37 1231.9 1517.37 M1231.9 1513.66 Q1237.71 1513.66 1240.77 1518.27 Q1243.84 1522.85 1243.84 1531.6 Q1243.84 1540.33 1240.77 1544.94 Q1237.71 1549.52 1231.9 1549.52 Q1226.09 1549.52 1223.01 1544.94 Q1219.96 1540.33 1219.96 1531.6 Q1219.96 1522.85 1223.01 1518.27 Q1226.09 1513.66 1231.9 1513.66 Z" fill="#000000" fill-rule="nonzero" fill-opacity="1" /><path clip-path="url(#clip390)" d="M1252.06 1542.97 L1256.95 1542.97 L1256.95 1548.85 L1252.06 1548.85 L1252.06 1542.97 Z" fill="#000000" fill-rule="nonzero" fill-opacity="1" /><path clip-path="url(#clip390)" d="M1277.13 1517.37 Q1273.52 1517.37 1271.69 1520.93 Q1269.89 1524.47 1269.89 1531.6 Q1269.89 1538.71 1271.69 1542.27 Q1273.52 1545.82 1277.13 1545.82 Q1280.76 1545.82 1282.57 1542.27 Q1284.4 1538.71 1284.4 1531.6 Q1284.4 1524.47 1282.57 1520.93 Q1280.76 1517.37 1277.13 1517.37 M1277.13 1513.66 Q1282.94 1513.66 1286 1518.27 Q1289.08 1522.85 1289.08 1531.6 Q1289.08 1540.33 1286 1544.94 Q1282.94 1549.52 1277.13 1549.52 Q1271.32 1549.52 1268.24 1544.94 Q1265.19 1540.33 1265.19 1531.6 Q1265.19 1522.85 1268.24 1518.27 Q1271.32 1513.66 1277.13 1513.66 Z" fill="#000000" fill-rule="nonzero" fill-opacity="1" /><path clip-path="url(#clip390)" d="M1750.44 1517.37 Q1746.82 1517.37 1745 1520.93 Q1743.19 1524.47 1743.19 1531.6 Q1743.19 1538.71 1745 1542.27 Q1746.82 1545.82 1750.44 1545.82 Q1754.07 1545.82 1755.88 1542.27 Q1757.7 1538.71 1757.7 1531.6 Q1757.7 1524.47 1755.88 1520.93 Q1754.07 1517.37 1750.44 1517.37 M1750.44 1513.66 Q1756.25 1513.66 1759.3 1518.27 Q1762.38 1522.85 1762.38 1531.6 Q1762.38 1540.33 1759.3 1544.94 Q1756.25 1549.52 1750.44 1549.52 Q1744.63 1549.52 1741.55 1544.94 Q1738.49 1540.33 1738.49 1531.6 Q1738.49 1522.85 1741.55 1518.27 Q1744.63 1513.66 1750.44 1513.66 Z" fill="#000000" fill-rule="nonzero" fill-opacity="1" /><path clip-path="url(#clip390)" d="M1770.6 1542.97 L1775.48 1542.97 L1775.48 1548.85 L1770.6 1548.85 L1770.6 1542.97 Z" fill="#000000" fill-rule="nonzero" fill-opacity="1" /><path clip-path="url(#clip390)" d="M1785.71 1514.29 L1804.07 1514.29 L1804.07 1518.22 L1790 1518.22 L1790 1526.7 Q1791.01 1526.35 1792.03 1526.19 Q1793.05 1526 1794.07 1526 Q1799.86 1526 1803.24 1529.17 Q1806.62 1532.34 1806.62 1537.76 Q1806.62 1543.34 1803.14 1546.44 Q1799.67 1549.52 1793.35 1549.52 Q1791.18 1549.52 1788.91 1549.15 Q1786.66 1548.78 1784.25 1548.04 L1784.25 1543.34 Q1786.34 1544.47 1788.56 1545.03 Q1790.78 1545.58 1793.26 1545.58 Q1797.26 1545.58 1799.6 1543.48 Q1801.94 1541.37 1801.94 1537.76 Q1801.94 1534.15 1799.6 1532.04 Q1797.26 1529.94 1793.26 1529.94 Q1791.38 1529.94 1789.51 1530.35 Q1787.66 1530.77 1785.71 1531.65 L1785.71 1514.29 Z" fill="#000000" fill-rule="nonzero" fill-opacity="1" /><path clip-path="url(#clip390)" d="M2257.74 1544.91 L2265.38 1544.91 L2265.38 1518.55 L2257.07 1520.21 L2257.07 1515.95 L2265.34 1514.29 L2270.01 1514.29 L2270.01 1544.91 L2277.65 1544.91 L2277.65 1548.85 L2257.74 1548.85 L2257.74 1544.91 Z" fill="#000000" fill-rule="nonzero" fill-opacity="1" /><path clip-path="url(#clip390)" d="M2287.1 1542.97 L2291.98 1542.97 L2291.98 1548.85 L2287.1 1548.85 L2287.1 1542.97 Z" fill="#000000" fill-rule="nonzero" fill-opacity="1" /><path clip-path="url(#clip390)" d="M2312.17 1517.37 Q2308.55 1517.37 2306.73 1520.93 Q2304.92 1524.47 2304.92 1531.6 Q2304.92 1538.71 2306.73 1542.27 Q2308.55 1545.82 2312.17 1545.82 Q2315.8 1545.82 2317.61 1542.27 Q2319.43 1538.71 2319.43 1531.6 Q2319.43 1524.47 2317.61 1520.93 Q2315.8 1517.37 2312.17 1517.37 M2312.17 1513.66 Q2317.98 1513.66 2321.03 1518.27 Q2324.11 1522.85 2324.11 1531.6 Q2324.11 1540.33 2321.03 1544.94 Q2317.98 1549.52 2312.17 1549.52 Q2306.36 1549.52 2303.28 1544.94 Q2300.22 1540.33 2300.22 1531.6 Q2300.22 1522.85 2303.28 1518.27 Q2306.36 1513.66 2312.17 1513.66 Z" fill="#000000" fill-rule="nonzero" fill-opacity="1" /><polyline clip-path="url(#clip392)" style="stroke:#000000; stroke-linecap:round; stroke-linejoin:round; stroke-width:2; stroke-opacity:0.1; fill:none" points="156.274,1259.96 2352.76,1259.96 "/>
<polyline clip-path="url(#clip392)" style="stroke:#000000; stroke-linecap:round; stroke-linejoin:round; stroke-width:2; stroke-opacity:0.1; fill:none" points="156.274,984.915 2352.76,984.915 "/>
<polyline clip-path="url(#clip392)" style="stroke:#000000; stroke-linecap:round; stroke-linejoin:round; stroke-width:2; stroke-opacity:0.1; fill:none" points="156.274,709.869 2352.76,709.869 "/>
<polyline clip-path="url(#clip392)" style="stroke:#000000; stroke-linecap:round; stroke-linejoin:round; stroke-width:2; stroke-opacity:0.1; fill:none" points="156.274,434.823 2352.76,434.823 "/>
<polyline clip-path="url(#clip392)" style="stroke:#000000; stroke-linecap:round; stroke-linejoin:round; stroke-width:2; stroke-opacity:0.1; fill:none" points="156.274,159.777 2352.76,159.777 "/>
<polyline clip-path="url(#clip390)" style="stroke:#000000; stroke-linecap:round; stroke-linejoin:round; stroke-width:4; stroke-opacity:1; fill:none" points="156.274,1486.45 156.274,47.2441 "/>
<polyline clip-path="url(#clip390)" style="stroke:#000000; stroke-linecap:round; stroke-linejoin:round; stroke-width:4; stroke-opacity:1; fill:none" points="156.274,1259.96 175.172,1259.96 "/>
<polyline clip-path="url(#clip390)" style="stroke:#000000; stroke-linecap:round; stroke-linejoin:round; stroke-width:4; stroke-opacity:1; fill:none" points="156.274,984.915 175.172,984.915 "/>
<polyline clip-path="url(#clip390)" style="stroke:#000000; stroke-linecap:round; stroke-linejoin:round; stroke-width:4; stroke-opacity:1; fill:none" points="156.274,709.869 175.172,709.869 "/>
<polyline clip-path="url(#clip390)" style="stroke:#000000; stroke-linecap:round; stroke-linejoin:round; stroke-width:4; stroke-opacity:1; fill:none" points="156.274,434.823 175.172,434.823 "/>
<polyline clip-path="url(#clip390)" style="stroke:#000000; stroke-linecap:round; stroke-linejoin:round; stroke-width:4; stroke-opacity:1; fill:none" points="156.274,159.777 175.172,159.777 "/>
<path clip-path="url(#clip390)" d="M63.0985 1245.76 Q59.4875 1245.76 57.6588 1249.32 Q55.8532 1252.87 55.8532 1260 Q55.8532 1267.1 57.6588 1270.67 Q59.4875 1274.21 63.0985 1274.21 Q66.7328 1274.21 68.5383 1270.67 Q70.367 1267.1 70.367 1260 Q70.367 1252.87 68.5383 1249.32 Q66.7328 1245.76 63.0985 1245.76 M63.0985 1242.06 Q68.9087 1242.06 71.9642 1246.66 Q75.0429 1251.25 75.0429 1260 Q75.0429 1268.72 71.9642 1273.33 Q68.9087 1277.91 63.0985 1277.91 Q57.2884 1277.91 54.2097 1273.33 Q51.1542 1268.72 51.1542 1260 Q51.1542 1251.25 54.2097 1246.66 Q57.2884 1242.06 63.0985 1242.06 Z" fill="#000000" fill-rule="nonzero" fill-opacity="1" /><path clip-path="url(#clip390)" d="M83.2605 1271.36 L88.1447 1271.36 L88.1447 1277.24 L83.2605 1277.24 L83.2605 1271.36 Z" fill="#000000" fill-rule="nonzero" fill-opacity="1" /><path clip-path="url(#clip390)" d="M108.33 1245.76 Q104.719 1245.76 102.89 1249.32 Q101.084 1252.87 101.084 1260 Q101.084 1267.1 102.89 1270.67 Q104.719 1274.21 108.33 1274.21 Q111.964 1274.21 113.77 1270.67 Q115.598 1267.1 115.598 1260 Q115.598 1252.87 113.77 1249.32 Q111.964 1245.76 108.33 1245.76 M108.33 1242.06 Q114.14 1242.06 117.195 1246.66 Q120.274 1251.25 120.274 1260 Q120.274 1268.72 117.195 1273.33 Q114.14 1277.91 108.33 1277.91 Q102.52 1277.91 99.4409 1273.33 Q96.3854 1268.72 96.3854 1260 Q96.3854 1251.25 99.4409 1246.66 Q102.52 1242.06 108.33 1242.06 Z" fill="#000000" fill-rule="nonzero" fill-opacity="1" /><path clip-path="url(#clip390)" d="M63.7467 970.714 Q60.1356 970.714 58.3069 974.278 Q56.5014 977.82 56.5014 984.95 Q56.5014 992.056 58.3069 995.621 Q60.1356 999.163 63.7467 999.163 Q67.3809 999.163 69.1865 995.621 Q71.0152 992.056 71.0152 984.95 Q71.0152 977.82 69.1865 974.278 Q67.3809 970.714 63.7467 970.714 M63.7467 967.01 Q69.5568 967.01 72.6124 971.616 Q75.6911 976.2 75.6911 984.95 Q75.6911 993.676 72.6124 998.283 Q69.5568 1002.87 63.7467 1002.87 Q57.9365 1002.87 54.8578 998.283 Q51.8023 993.676 51.8023 984.95 Q51.8023 976.2 54.8578 971.616 Q57.9365 967.01 63.7467 967.01 Z" fill="#000000" fill-rule="nonzero" fill-opacity="1" /><path clip-path="url(#clip390)" d="M83.9086 996.315 L88.7928 996.315 L88.7928 1002.19 L83.9086 1002.19 L83.9086 996.315 Z" fill="#000000" fill-rule="nonzero" fill-opacity="1" /><path clip-path="url(#clip390)" d="M113.145 983.561 Q116.501 984.278 118.376 986.547 Q120.274 988.815 120.274 992.149 Q120.274 997.264 116.756 1000.07 Q113.237 1002.87 106.756 1002.87 Q104.58 1002.87 102.265 1002.43 Q99.9733 1002.01 97.5197 1001.15 L97.5197 996.639 Q99.4641 997.774 101.779 998.352 Q104.094 998.931 106.617 998.931 Q111.015 998.931 113.307 997.195 Q115.621 995.459 115.621 992.149 Q115.621 989.093 113.469 987.38 Q111.339 985.644 107.52 985.644 L103.492 985.644 L103.492 981.802 L107.705 981.802 Q111.154 981.802 112.983 980.436 Q114.811 979.047 114.811 976.454 Q114.811 973.792 112.913 972.38 Q111.038 970.945 107.52 970.945 Q105.598 970.945 103.399 971.362 Q101.2 971.778 98.5613 972.658 L98.5613 968.491 Q101.223 967.751 103.538 967.38 Q105.876 967.01 107.936 967.01 Q113.26 967.01 116.362 969.44 Q119.464 971.848 119.464 975.968 Q119.464 978.839 117.82 980.829 Q116.177 982.797 113.145 983.561 Z" fill="#000000" fill-rule="nonzero" fill-opacity="1" /><path clip-path="url(#clip390)" d="M62.9365 695.668 Q59.3254 695.668 57.4967 699.232 Q55.6912 702.774 55.6912 709.904 Q55.6912 717.01 57.4967 720.575 Q59.3254 724.117 62.9365 724.117 Q66.5707 724.117 68.3763 720.575 Q70.205 717.01 70.205 709.904 Q70.205 702.774 68.3763 699.232 Q66.5707 695.668 62.9365 695.668 M62.9365 691.964 Q68.7467 691.964 71.8022 696.57 Q74.8809 701.154 74.8809 709.904 Q74.8809 718.63 71.8022 723.237 Q68.7467 727.82 62.9365 727.82 Q57.1264 727.82 54.0477 723.237 Q50.9921 718.63 50.9921 709.904 Q50.9921 701.154 54.0477 696.57 Q57.1264 691.964 62.9365 691.964 Z" fill="#000000" fill-rule="nonzero" fill-opacity="1" /><path clip-path="url(#clip390)" d="M83.0984 721.269 L87.9827 721.269 L87.9827 727.149 L83.0984 727.149 L83.0984 721.269 Z" fill="#000000" fill-rule="nonzero" fill-opacity="1" /><path clip-path="url(#clip390)" d="M108.746 708.006 Q105.598 708.006 103.746 710.158 Q101.918 712.311 101.918 716.061 Q101.918 719.788 103.746 721.964 Q105.598 724.117 108.746 724.117 Q111.895 724.117 113.723 721.964 Q115.575 719.788 115.575 716.061 Q115.575 712.311 113.723 710.158 Q111.895 708.006 108.746 708.006 M118.029 693.353 L118.029 697.612 Q116.27 696.779 114.464 696.339 Q112.682 695.899 110.922 695.899 Q106.293 695.899 103.839 699.024 Q101.409 702.149 101.061 708.468 Q102.427 706.455 104.487 705.39 Q106.547 704.302 109.024 704.302 Q114.233 704.302 117.242 707.473 Q120.274 710.621 120.274 716.061 Q120.274 721.385 117.126 724.603 Q113.978 727.82 108.746 727.82 Q102.751 727.82 99.5798 723.237 Q96.4085 718.63 96.4085 709.904 Q96.4085 701.709 100.297 696.848 Q104.186 691.964 110.737 691.964 Q112.496 691.964 114.279 692.311 Q116.084 692.658 118.029 693.353 Z" fill="#000000" fill-rule="nonzero" fill-opacity="1" /><path clip-path="url(#clip390)" d="M63.2837 420.622 Q59.6726 420.622 57.8439 424.186 Q56.0384 427.728 56.0384 434.858 Q56.0384 441.964 57.8439 445.529 Q59.6726 449.071 63.2837 449.071 Q66.918 449.071 68.7235 445.529 Q70.5522 441.964 70.5522 434.858 Q70.5522 427.728 68.7235 424.186 Q66.918 420.622 63.2837 420.622 M63.2837 416.918 Q69.0939 416.918 72.1494 421.524 Q75.2281 426.108 75.2281 434.858 Q75.2281 443.584 72.1494 448.191 Q69.0939 452.774 63.2837 452.774 Q57.4736 452.774 54.3949 448.191 Q51.3393 443.584 51.3393 434.858 Q51.3393 426.108 54.3949 421.524 Q57.4736 416.918 63.2837 416.918 Z" fill="#000000" fill-rule="nonzero" fill-opacity="1" /><path clip-path="url(#clip390)" d="M83.4457 446.223 L88.3299 446.223 L88.3299 452.103 L83.4457 452.103 L83.4457 446.223 Z" fill="#000000" fill-rule="nonzero" fill-opacity="1" /><path clip-path="url(#clip390)" d="M98.6539 451.385 L98.6539 447.126 Q100.413 447.959 102.219 448.399 Q104.024 448.839 105.76 448.839 Q110.39 448.839 112.82 445.737 Q115.274 442.612 115.621 436.27 Q114.279 438.26 112.219 439.325 Q110.158 440.39 107.658 440.39 Q102.473 440.39 99.4409 437.265 Q96.4317 434.117 96.4317 428.677 Q96.4317 423.353 99.5798 420.136 Q102.728 416.918 107.959 416.918 Q113.955 416.918 117.103 421.524 Q120.274 426.108 120.274 434.858 Q120.274 443.029 116.385 447.913 Q112.52 452.774 105.969 452.774 Q104.209 452.774 102.404 452.427 Q100.598 452.08 98.6539 451.385 M107.959 436.733 Q111.108 436.733 112.936 434.58 Q114.788 432.427 114.788 428.677 Q114.788 424.95 112.936 422.798 Q111.108 420.622 107.959 420.622 Q104.811 420.622 102.959 422.798 Q101.131 424.95 101.131 428.677 Q101.131 432.427 102.959 434.58 Q104.811 436.733 107.959 436.733 Z" fill="#000000" fill-rule="nonzero" fill-opacity="1" /><path clip-path="url(#clip390)" d="M55.506 173.122 L63.1448 173.122 L63.1448 146.756 L54.8347 148.423 L54.8347 144.164 L63.0985 142.497 L67.7744 142.497 L67.7744 173.122 L75.4133 173.122 L75.4133 177.057 L55.506 177.057 L55.506 173.122 Z" fill="#000000" fill-rule="nonzero" fill-opacity="1" /><path clip-path="url(#clip390)" d="M84.8577 171.177 L89.7419 171.177 L89.7419 177.057 L84.8577 177.057 L84.8577 171.177 Z" fill="#000000" fill-rule="nonzero" fill-opacity="1" /><path clip-path="url(#clip390)" d="M103.955 173.122 L120.274 173.122 L120.274 177.057 L98.3298 177.057 L98.3298 173.122 Q100.992 170.367 105.575 165.738 Q110.182 161.085 111.362 159.742 Q113.608 157.219 114.487 155.483 Q115.39 153.724 115.39 152.034 Q115.39 149.279 113.445 147.543 Q111.524 145.807 108.422 145.807 Q106.223 145.807 103.77 146.571 Q101.339 147.335 98.5613 148.886 L98.5613 144.164 Q101.385 143.029 103.839 142.451 Q106.293 141.872 108.33 141.872 Q113.7 141.872 116.895 144.557 Q120.089 147.242 120.089 151.733 Q120.089 153.863 119.279 155.784 Q118.492 157.682 116.385 160.275 Q115.807 160.946 112.705 164.164 Q109.603 167.358 103.955 173.122 Z" fill="#000000" fill-rule="nonzero" fill-opacity="1" /><polyline clip-path="url(#clip392)" style="stroke:#009af9; stroke-linecap:round; stroke-linejoin:round; stroke-width:16; stroke-opacity:1; fill:none" stroke-dasharray="8, 16" points="218.439,1122.17 228.852,1143 239.264,1137.11 249.677,1111.98 260.09,1078.68 270.503,1052.68 280.916,1049.33 291.329,1074.59 301.741,1119.52 312.154,1166.21 322.567,1201.24 332.98,1223.42 343.393,1240.7 353.805,1261.81 364.218,1290.66 374.631,1325.56 385.044,1361.64 395.457,1393.7 405.87,1418.07 416.282,1433.29 426.695,1439.92 437.108,1439.92 447.521,1435.68 457.934,1429.02 468.347,1420.31 478.759,1408.19 489.172,1390.09 499.585,1363.78 509.998,1329.36 520.411,1290.48 530.824,1252.86 541.236,1220.44 551.649,1192.94 562.062,1167.72 572.475,1143.37 582.888,1120.68 593.301,1101.12 603.713,1085.85 614.126,1076 624.539,1072.9 634.952,1077.61 645.365,1090.04 655.777,1108.92 666.19,1132.35 676.603,1158.65 687.016,1186.72 697.429,1216.01 707.842,1246.13 718.254,1276.69 728.667,1307.33 739.08,1337.73 749.493,1367.44 759.906,1395.37 770.319,1419.44 780.731,1436.95 791.144,1445.72 801.557,1445.51 811.97,1438.4 822.383,1427.37 832.796,1414.1 843.208,1397.8 853.621,1376.51 864.034,1349.43 874.447,1318.03 884.86,1284.93 895.273,1252.13 905.685,1220.3 916.098,1189.49 926.511,1160.04 936.924,1133.05 947.337,1110 957.749,1092.3 968.162,1080.88 978.575,1076.13 988.988,1077.95 999.401,1085.81 1009.81,1098.91 1020.23,1116.31 1030.64,1137.26 1041.05,1161.26 1051.46,1188.12 1061.88,1217.75 1072.29,1249.99 1082.7,1284.27 1093.12,1319.43 1103.53,1353.65 1113.94,1384.56 1124.35,1409.59 1134.77,1426.62 1145.18,1434.69 1155.59,1434.63 1166.01,1429.4 1176.42,1423.62 1186.83,1422.22 1197.24,1427.92 1207.66,1437.24 1218.07,1434.21 1228.48,1382.35 1238.9,1229.1 1249.31,954.205 1259.72,635.097 1270.13,403.844 1280.55,313.981 1290.96,316.627 1301.37,344.085 1311.79,360.808 1322.2,360.044 1332.61,347.646 1343.02,331.913 1353.44,319.488 1363.85,314.249 1374.26,317.333 1384.68,327.571 1395.09,342.163 1405.5,357.48 1415.91,369.883 1426.33,376.419 1436.74,375.329 1447.15,366.355 1457.57,350.863 1467.98,331.77 1478.39,313.206 1488.8,299.851 1499.22,295.908 1509.63,303.908 1520.04,323.617 1530.45,351.502 1540.87,381.096 1551.28,404.33 1561.69,413.538 1572.11,403.622 1582.52,373.954 1592.93,329.701 1603.34,282.178 1613.76,247.142 1624.17,239.856 1634.58,267.681 1645,324.567 1655.41,392.117 1665.82,446.997 1676.23,469.957 1686.65,452.377 1697.06,399.019 1707.47,326.709 1717.89,258.913 1728.3,217.478 1738.71,214.788 1749.12,249.948 1759.54,310.517 1769.95,378.118 1780.36,434.665 1790.78,466.71 1801.19,467.35 1811.6,436.483 1822.01,380.427 1832.43,311.304 1842.84,245.703 1853.25,201.734 1863.67,194.196 1874.08,229.113 1884.49,300.345 1894.9,390.406 1905.32,475.021 1915.73,529.008 1926.14,532.014 1936.56,474.706 1946.97,365.626 1957.38,235.319 1967.79,130.997 1978.21,97.6485 1988.62,152.837 1999.03,273.936 2009.45,410.81 2019.86,514.137 2030.27,556.586 2040.68,536.181 2051.1,468.201 2061.51,375.429 2071.92,281.169 2082.33,205.265 2092.75,162.202 2103.16,160.472 2113.57,202.253 2123.99,282.492 2134.4,387.076 2144.81,491.508 2155.22,563.405 2165.64,572.12 2176.05,504.287 2186.46,376.812 2196.88,235.95 2207.29,137.476 2217.7,116.214 2228.11,166.459 2238.53,252.176 2248.94,337.359 2259.35,406.318 2269.77,461.668 2280.18,513.201 2290.59,571.175 "/>
<polyline clip-path="url(#clip392)" style="stroke:#e26f46; stroke-linecap:round; stroke-linejoin:round; stroke-width:4; stroke-opacity:1; fill:none" points="218.439,1122.26 228.852,1102.72 239.264,1088.31 249.677,1079.51 260.09,1076.6 270.503,1079.67 280.916,1088.62 291.329,1103.17 301.741,1122.83 312.154,1146.97 322.567,1174.8 332.98,1205.41 343.393,1237.79 353.805,1270.91 364.218,1303.66 374.631,1334.99 385.044,1363.86 395.457,1389.35 405.87,1410.62 416.282,1426.96 426.695,1437.86 437.108,1442.95 447.521,1442.07 457.934,1435.24 468.347,1422.7 478.759,1404.84 489.172,1382.26 499.585,1355.68 509.998,1325.98 520.411,1294.12 530.824,1261.15 541.236,1228.14 551.649,1196.17 562.062,1166.28 572.475,1139.45 582.888,1116.55 593.301,1098.33 603.713,1085.39 614.126,1078.15 624.539,1076.83 634.952,1081.5 645.365,1091.99 655.777,1107.96 666.19,1128.89 676.603,1154.1 687.016,1182.77 697.429,1213.95 707.842,1246.64 718.254,1279.76 728.667,1312.24 739.08,1343 749.493,1371.06 759.906,1395.5 770.319,1415.5 780.731,1430.44 791.144,1439.8 801.557,1443.3 811.97,1440.82 822.383,1432.43 832.796,1418.41 843.208,1399.23 853.621,1375.49 864.034,1347.99 874.447,1317.61 884.86,1285.35 895.273,1252.27 905.685,1219.43 916.098,1187.92 926.511,1158.75 936.924,1132.9 947.337,1111.18 957.749,1094.33 968.162,1082.88 978.575,1077.21 988.988,1077.5 999.401,1083.75 1009.81,1095.75 1020.23,1113.11 1030.64,1135.26 1041.05,1161.48 1051.46,1190.92 1061.88,1222.61 1072.29,1255.52 1082.7,1288.57 1093.12,1320.69 1103.53,1350.83 1113.94,1378 1124.35,1401.32 1134.77,1420.03 1145.18,1433.51 1155.59,1441.33 1166.01,1443.22 1176.42,1439.14 1186.83,1429.21 1197.24,1413.76 1207.66,1393.28 1218.07,1368.46 1228.48,1340.09 1238.9,1309.11 1249.31,1276.52 1259.72,341.809 1270.13,340.294 1280.55,341.673 1290.96,346.264 1301.37,352.66 1311.79,358.158 1322.2,359.786 1332.61,355.556 1343.02,345.471 1353.44,331.875 1363.85,318.938 1374.26,311.38 1384.68,312.83 1395.09,324.361 1405.5,343.757 1415.91,365.831 1426.33,383.806 1436.74,391.388 1447.15,384.898 1457.57,364.759 1467.98,335.792 1478.39,306.106 1488.8,284.83 1499.22,279.318 1509.63,292.679 1520.04,322.447 1530.45,360.891 1540.87,397.004 1551.28,419.653 1561.69,420.995 1572.11,399.113 1582.52,359.011 1592.93,311.541 1603.34,270.479 1613.76,248.529 1624.17,253.409 1634.58,285.233 1645,336.036 1655.41,391.73 1665.82,436.001 1676.23,455.087 1686.65,442.035 1697.06,399.116 1707.47,337.6 1717.89,274.825 1728.3,229.307 1738.71,215.289 1749.12,238.308 1759.54,293.172 1769.95,365.047 1780.36,433.444 1790.78,478.068 1801.19,484.827 1811.6,450.25 1822.01,382.924 1832.43,301.411 1842.84,229.143 1853.25,187.683 1863.67,190.304 1874.08,237.78 1884.49,317.727 1894.9,407.8 1905.32,481.931 1915.73,517.878 1926.14,503.88 1936.56,442.454 1946.97,350.1 1957.38,252.893 1967.79,179.121 1978.21,151.06 1988.62,178.254 1999.03,254.355 2009.45,358.522 2019.86,461.116 2030.27,532.131 2040.68,549.969 2051.1,507.986 2061.51,416.842 2071.92,301.837 2082.33,195.898 2092.75,130.155 2103.16,124.792 2113.57,182.882 2123.99,289.057 2134.4,413.552 2144.81,520.534 2155.22,578.424 2165.64,569.207 2176.05,494.008 2186.46,373.206 2196.88,240.929 2207.29,135.42 2217.7,87.9763 2228.11,113.678 2238.53,206.637 2248.94,341.258 2259.35,479.275 2269.77,580.627 2280.18,615.079 2290.59,571.239 "/>
<path clip-path="url(#clip390)" d="M229.49 250.738 L675.966 250.738 L675.966 95.2176 L229.49 95.2176  Z" fill="#ffffff" fill-rule="evenodd" fill-opacity="1"/>
<polyline clip-path="url(#clip390)" style="stroke:#000000; stroke-linecap:round; stroke-linejoin:round; stroke-width:4; stroke-opacity:1; fill:none" points="229.49,250.738 675.966,250.738 675.966,95.2176 229.49,95.2176 229.49,250.738 "/>
<polyline clip-path="url(#clip390)" style="stroke:#009af9; stroke-linecap:round; stroke-linejoin:round; stroke-width:16; stroke-opacity:1; fill:none" stroke-dasharray="8, 16" points="253.896,147.058 400.328,147.058 "/>
<path clip-path="url(#clip390)" d="M429.409 133.62 L429.409 146.606 L435.289 146.606 Q438.552 146.606 440.335 144.916 Q442.117 143.227 442.117 140.102 Q442.117 137 440.335 135.31 Q438.552 133.62 435.289 133.62 L429.409 133.62 M424.733 129.778 L435.289 129.778 Q441.099 129.778 444.062 132.416 Q447.048 135.032 447.048 140.102 Q447.048 145.217 444.062 147.833 Q441.099 150.449 435.289 150.449 L429.409 150.449 L429.409 164.338 L424.733 164.338 L424.733 129.778 Z" fill="#000000" fill-rule="nonzero" fill-opacity="1" /><path clip-path="url(#clip390)" d="M467.325 142.393 Q466.608 141.977 465.751 141.791 Q464.918 141.583 463.899 141.583 Q460.288 141.583 458.344 143.944 Q456.423 146.282 456.423 150.68 L456.423 164.338 L452.14 164.338 L452.14 138.412 L456.423 138.412 L456.423 142.44 Q457.765 140.078 459.918 138.944 Q462.071 137.787 465.149 137.787 Q465.589 137.787 466.122 137.856 Q466.654 137.903 467.302 138.018 L467.325 142.393 Z" fill="#000000" fill-rule="nonzero" fill-opacity="1" /><path clip-path="url(#clip390)" d="M492.927 150.31 L492.927 152.393 L473.344 152.393 Q473.622 156.791 475.983 159.106 Q478.367 161.398 482.603 161.398 Q485.057 161.398 487.348 160.796 Q489.663 160.194 491.932 158.99 L491.932 163.018 Q489.64 163.99 487.233 164.5 Q484.825 165.009 482.348 165.009 Q476.145 165.009 472.511 161.398 Q468.899 157.787 468.899 151.629 Q468.899 145.264 472.325 141.537 Q475.774 137.787 481.608 137.787 Q486.839 137.787 489.872 141.166 Q492.927 144.523 492.927 150.31 M488.668 149.06 Q488.622 145.565 486.7 143.481 Q484.802 141.398 481.654 141.398 Q478.089 141.398 475.936 143.412 Q473.807 145.426 473.483 149.083 L488.668 149.06 Z" fill="#000000" fill-rule="nonzero" fill-opacity="1" /><path clip-path="url(#clip390)" d="M516.978 142.347 L516.978 128.319 L521.237 128.319 L521.237 164.338 L516.978 164.338 L516.978 160.449 Q515.635 162.763 513.575 163.898 Q511.538 165.009 508.668 165.009 Q503.969 165.009 501.006 161.259 Q498.066 157.509 498.066 151.398 Q498.066 145.287 501.006 141.537 Q503.969 137.787 508.668 137.787 Q511.538 137.787 513.575 138.921 Q515.635 140.032 516.978 142.347 M502.464 151.398 Q502.464 156.097 504.385 158.782 Q506.33 161.444 509.709 161.444 Q513.089 161.444 515.033 158.782 Q516.978 156.097 516.978 151.398 Q516.978 146.699 515.033 144.037 Q513.089 141.352 509.709 141.352 Q506.33 141.352 504.385 144.037 Q502.464 146.699 502.464 151.398 Z" fill="#000000" fill-rule="nonzero" fill-opacity="1" /><path clip-path="url(#clip390)" d="M530.01 138.412 L534.269 138.412 L534.269 164.338 L530.01 164.338 L530.01 138.412 M530.01 128.319 L534.269 128.319 L534.269 133.713 L530.01 133.713 L530.01 128.319 Z" fill="#000000" fill-rule="nonzero" fill-opacity="1" /><path clip-path="url(#clip390)" d="M561.839 139.407 L561.839 143.389 Q560.033 142.393 558.205 141.907 Q556.399 141.398 554.547 141.398 Q550.404 141.398 548.112 144.037 Q545.82 146.652 545.82 151.398 Q545.82 156.143 548.112 158.782 Q550.404 161.398 554.547 161.398 Q556.399 161.398 558.205 160.912 Q560.033 160.402 561.839 159.407 L561.839 163.342 Q560.056 164.176 558.135 164.592 Q556.237 165.009 554.084 165.009 Q548.228 165.009 544.779 161.328 Q541.33 157.648 541.33 151.398 Q541.33 145.055 544.802 141.421 Q548.297 137.787 554.362 137.787 Q556.33 137.787 558.205 138.203 Q560.08 138.597 561.839 139.407 Z" fill="#000000" fill-rule="nonzero" fill-opacity="1" /><path clip-path="url(#clip390)" d="M573.459 131.051 L573.459 138.412 L582.232 138.412 L582.232 141.722 L573.459 141.722 L573.459 155.796 Q573.459 158.967 574.316 159.87 Q575.195 160.773 577.857 160.773 L582.232 160.773 L582.232 164.338 L577.857 164.338 Q572.927 164.338 571.052 162.509 Q569.177 160.657 569.177 155.796 L569.177 141.722 L566.052 141.722 L566.052 138.412 L569.177 138.412 L569.177 131.051 L573.459 131.051 Z" fill="#000000" fill-rule="nonzero" fill-opacity="1" /><path clip-path="url(#clip390)" d="M587.834 138.412 L592.093 138.412 L592.093 164.338 L587.834 164.338 L587.834 138.412 M587.834 128.319 L592.093 128.319 L592.093 133.713 L587.834 133.713 L587.834 128.319 Z" fill="#000000" fill-rule="nonzero" fill-opacity="1" /><path clip-path="url(#clip390)" d="M611.051 141.398 Q607.626 141.398 605.635 144.083 Q603.644 146.745 603.644 151.398 Q603.644 156.051 605.612 158.736 Q607.602 161.398 611.051 161.398 Q614.454 161.398 616.445 158.713 Q618.436 156.027 618.436 151.398 Q618.436 146.791 616.445 144.106 Q614.454 141.398 611.051 141.398 M611.051 137.787 Q616.607 137.787 619.778 141.398 Q622.95 145.009 622.95 151.398 Q622.95 157.764 619.778 161.398 Q616.607 165.009 611.051 165.009 Q605.473 165.009 602.302 161.398 Q599.153 157.764 599.153 151.398 Q599.153 145.009 602.302 141.398 Q605.473 137.787 611.051 137.787 Z" fill="#000000" fill-rule="nonzero" fill-opacity="1" /><path clip-path="url(#clip390)" d="M651.561 148.689 L651.561 164.338 L647.301 164.338 L647.301 148.828 Q647.301 145.148 645.866 143.319 Q644.431 141.49 641.561 141.49 Q638.112 141.49 636.121 143.69 Q634.13 145.889 634.13 149.685 L634.13 164.338 L629.848 164.338 L629.848 138.412 L634.13 138.412 L634.13 142.44 Q635.658 140.102 637.718 138.944 Q639.801 137.787 642.51 137.787 Q646.977 137.787 649.269 140.565 Q651.561 143.319 651.561 148.689 Z" fill="#000000" fill-rule="nonzero" fill-opacity="1" /><polyline clip-path="url(#clip390)" style="stroke:#e26f46; stroke-linecap:round; stroke-linejoin:round; stroke-width:4; stroke-opacity:1; fill:none" points="253.896,198.898 400.328,198.898 "/>
<path clip-path="url(#clip390)" d="M424.733 181.618 L446.585 181.618 L446.585 185.553 L429.409 185.553 L429.409 195.784 L445.867 195.784 L445.867 199.719 L429.409 199.719 L429.409 212.242 L447.001 212.242 L447.001 216.178 L424.733 216.178 L424.733 181.618 Z" fill="#000000" fill-rule="nonzero" fill-opacity="1" /><path clip-path="url(#clip390)" d="M476.052 190.252 L466.677 202.867 L476.538 216.178 L471.515 216.178 L463.969 205.992 L456.423 216.178 L451.4 216.178 L461.469 202.613 L452.256 190.252 L457.279 190.252 L464.154 199.488 L471.029 190.252 L476.052 190.252 Z" fill="#000000" fill-rule="nonzero" fill-opacity="1" /><path clip-path="url(#clip390)" d="M494.339 203.145 Q489.177 203.145 487.186 204.326 Q485.196 205.506 485.196 208.354 Q485.196 210.622 486.677 211.965 Q488.182 213.284 490.751 213.284 Q494.293 213.284 496.422 210.784 Q498.575 208.261 498.575 204.094 L498.575 203.145 L494.339 203.145 M502.834 201.386 L502.834 216.178 L498.575 216.178 L498.575 212.242 Q497.117 214.603 494.941 215.738 Q492.765 216.849 489.617 216.849 Q485.635 216.849 483.274 214.627 Q480.936 212.381 480.936 208.631 Q480.936 204.256 483.853 202.034 Q486.793 199.812 492.603 199.812 L498.575 199.812 L498.575 199.395 Q498.575 196.455 496.631 194.858 Q494.71 193.238 491.214 193.238 Q488.992 193.238 486.885 193.77 Q484.779 194.303 482.835 195.367 L482.835 191.432 Q485.173 190.53 487.372 190.09 Q489.571 189.627 491.654 189.627 Q497.279 189.627 500.057 192.543 Q502.834 195.46 502.834 201.386 Z" fill="#000000" fill-rule="nonzero" fill-opacity="1" /><path clip-path="url(#clip390)" d="M530.265 191.247 L530.265 195.229 Q528.459 194.233 526.631 193.747 Q524.825 193.238 522.973 193.238 Q518.83 193.238 516.538 195.877 Q514.246 198.492 514.246 203.238 Q514.246 207.983 516.538 210.622 Q518.83 213.238 522.973 213.238 Q524.825 213.238 526.631 212.752 Q528.459 212.242 530.265 211.247 L530.265 215.182 Q528.482 216.016 526.561 216.432 Q524.663 216.849 522.51 216.849 Q516.654 216.849 513.205 213.168 Q509.756 209.488 509.756 203.238 Q509.756 196.895 513.228 193.261 Q516.723 189.627 522.788 189.627 Q524.756 189.627 526.631 190.043 Q528.506 190.437 530.265 191.247 Z" fill="#000000" fill-rule="nonzero" fill-opacity="1" /><path clip-path="url(#clip390)" d="M541.885 182.891 L541.885 190.252 L550.658 190.252 L550.658 193.562 L541.885 193.562 L541.885 207.636 Q541.885 210.807 542.742 211.71 Q543.621 212.613 546.283 212.613 L550.658 212.613 L550.658 216.178 L546.283 216.178 Q541.353 216.178 539.478 214.349 Q537.603 212.497 537.603 207.636 L537.603 193.562 L534.478 193.562 L534.478 190.252 L537.603 190.252 L537.603 182.891 L541.885 182.891 Z" fill="#000000" fill-rule="nonzero" fill-opacity="1" /></svg>
