<?xml version="1.0" encoding="utf-8"?>
<svg xmlns="http://www.w3.org/2000/svg" xmlns:xlink="http://www.w3.org/1999/xlink" width="600" height="400" viewBox="0 0 2400 1600">
<defs>
  <clipPath id="clip450">
    <rect x="0" y="0" width="2400" height="1600"/>
  </clipPath>
</defs>
<path clip-path="url(#clip450)" d="M0 1600 L2400 1600 L2400 0 L0 0  Z" fill="#ffffff" fill-rule="evenodd" fill-opacity="1"/>
<defs>
  <clipPath id="clip451">
    <rect x="480" y="0" width="1681" height="1600"/>
  </clipPath>
</defs>
<path clip-path="url(#clip450)" d="M192.339 1486.45 L2352.76 1486.45 L2352.76 47.2441 L192.339 47.2441  Z" fill="#ffffff" fill-rule="evenodd" fill-opacity="1"/>
<defs>
  <clipPath id="clip452">
    <rect x="192" y="47" width="2161" height="1440"/>
  </clipPath>
</defs>
<polyline clip-path="url(#clip452)" style="stroke:#000000; stroke-linecap:round; stroke-linejoin:round; stroke-width:2; stroke-opacity:0.1; fill:none" points="253.483,1486.45 253.483,47.2441 "/>
<polyline clip-path="url(#clip452)" style="stroke:#000000; stroke-linecap:round; stroke-linejoin:round; stroke-width:2; stroke-opacity:0.1; fill:none" points="763.015,1486.45 763.015,47.2441 "/>
<polyline clip-path="url(#clip452)" style="stroke:#000000; stroke-linecap:round; stroke-linejoin:round; stroke-width:2; stroke-opacity:0.1; fill:none" points="1272.55,1486.45 1272.55,47.2441 "/>
<polyline clip-path="url(#clip452)" style="stroke:#000000; stroke-linecap:round; stroke-linejoin:round; stroke-width:2; stroke-opacity:0.1; fill:none" points="1782.08,1486.45 1782.08,47.2441 "/>
<polyline clip-path="url(#clip452)" style="stroke:#000000; stroke-linecap:round; stroke-linejoin:round; stroke-width:2; stroke-opacity:0.1; fill:none" points="2291.61,1486.45 2291.61,47.2441 "/>
<polyline clip-path="url(#clip450)" style="stroke:#000000; stroke-linecap:round; stroke-linejoin:round; stroke-width:4; stroke-opacity:1; fill:none" points="192.339,1486.45 2352.76,1486.45 "/>
<polyline clip-path="url(#clip450)" style="stroke:#000000; stroke-linecap:round; stroke-linejoin:round; stroke-width:4; stroke-opacity:1; fill:none" points="253.483,1486.45 253.483,1467.55 "/>
<polyline clip-path="url(#clip450)" style="stroke:#000000; stroke-linecap:round; stroke-linejoin:round; stroke-width:4; stroke-opacity:1; fill:none" points="763.015,1486.45 763.015,1467.55 "/>
<polyline clip-path="url(#clip450)" style="stroke:#000000; stroke-linecap:round; stroke-linejoin:round; stroke-width:4; stroke-opacity:1; fill:none" points="1272.55,1486.45 1272.55,1467.55 "/>
<polyline clip-path="url(#clip450)" style="stroke:#000000; stroke-linecap:round; stroke-linejoin:round; stroke-width:4; stroke-opacity:1; fill:none" points="1782.08,1486.45 1782.08,1467.55 "/>
<polyline clip-path="url(#clip450)" style="stroke:#000000; stroke-linecap:round; stroke-linejoin:round; stroke-width:4; stroke-opacity:1; fill:none" points="2291.61,1486.45 2291.61,1467.55 "/>
<path clip-path="url(#clip450)" d="M200.011 1532.02 L229.686 1532.02 L229.686 1535.95 L200.011 1535.95 L200.011 1532.02 Z" fill="#000000" fill-rule="nonzero" fill-opacity="1" /><path clip-path="url(#clip450)" d="M240.589 1544.91 L248.228 1544.91 L248.228 1518.55 L239.918 1520.21 L239.918 1515.95 L248.182 1514.29 L252.858 1514.29 L252.858 1544.91 L260.497 1544.91 L260.497 1548.85 L240.589 1548.85 L240.589 1544.91 Z" fill="#000000" fill-rule="nonzero" fill-opacity="1" /><path clip-path="url(#clip450)" d="M269.941 1542.97 L274.825 1542.97 L274.825 1548.85 L269.941 1548.85 L269.941 1542.97 Z" fill="#000000" fill-rule="nonzero" fill-opacity="1" /><path clip-path="url(#clip450)" d="M295.01 1517.37 Q291.399 1517.37 289.57 1520.93 Q287.765 1524.47 287.765 1531.6 Q287.765 1538.71 289.57 1542.27 Q291.399 1545.82 295.01 1545.82 Q298.644 1545.82 300.45 1542.27 Q302.279 1538.71 302.279 1531.6 Q302.279 1524.47 300.45 1520.93 Q298.644 1517.37 295.01 1517.37 M295.01 1513.66 Q300.82 1513.66 303.876 1518.27 Q306.955 1522.85 306.955 1531.6 Q306.955 1540.33 303.876 1544.94 Q300.82 1549.52 295.01 1549.52 Q289.2 1549.52 286.121 1544.94 Q283.066 1540.33 283.066 1531.6 Q283.066 1522.85 286.121 1518.27 Q289.2 1513.66 295.01 1513.66 Z" fill="#000000" fill-rule="nonzero" fill-opacity="1" /><path clip-path="url(#clip450)" d="M710.041 1532.02 L739.717 1532.02 L739.717 1535.95 L710.041 1535.95 L710.041 1532.02 Z" fill="#000000" fill-rule="nonzero" fill-opacity="1" /><path clip-path="url(#clip450)" d="M759.809 1517.37 Q756.198 1517.37 754.369 1520.93 Q752.564 1524.47 752.564 1531.6 Q752.564 1538.71 754.369 1542.27 Q756.198 1545.82 759.809 1545.82 Q763.443 1545.82 765.249 1542.27 Q767.077 1538.71 767.077 1531.6 Q767.077 1524.47 765.249 1520.93 Q763.443 1517.37 759.809 1517.37 M759.809 1513.66 Q765.619 1513.66 768.675 1518.27 Q771.753 1522.85 771.753 1531.6 Q771.753 1540.33 768.675 1544.94 Q765.619 1549.52 759.809 1549.52 Q753.999 1549.52 750.92 1544.94 Q747.865 1540.33 747.865 1531.6 Q747.865 1522.85 750.92 1518.27 Q753.999 1513.66 759.809 1513.66 Z" fill="#000000" fill-rule="nonzero" fill-opacity="1" /><path clip-path="url(#clip450)" d="M779.971 1542.97 L784.855 1542.97 L784.855 1548.85 L779.971 1548.85 L779.971 1542.97 Z" fill="#000000" fill-rule="nonzero" fill-opacity="1" /><path clip-path="url(#clip450)" d="M795.087 1514.29 L813.443 1514.29 L813.443 1518.22 L799.369 1518.22 L799.369 1526.7 Q800.387 1526.35 801.406 1526.19 Q802.425 1526 803.443 1526 Q809.23 1526 812.61 1529.17 Q815.989 1532.34 815.989 1537.76 Q815.989 1543.34 812.517 1546.44 Q809.045 1549.52 802.725 1549.52 Q800.55 1549.52 798.281 1549.15 Q796.036 1548.78 793.628 1548.04 L793.628 1543.34 Q795.712 1544.47 797.934 1545.03 Q800.156 1545.58 802.633 1545.58 Q806.637 1545.58 808.975 1543.48 Q811.313 1541.37 811.313 1537.76 Q811.313 1534.15 808.975 1532.04 Q806.637 1529.94 802.633 1529.94 Q800.758 1529.94 798.883 1530.35 Q797.031 1530.77 795.087 1531.65 L795.087 1514.29 Z" fill="#000000" fill-rule="nonzero" fill-opacity="1" /><path clip-path="url(#clip450)" d="M1249.93 1517.37 Q1246.32 1517.37 1244.49 1520.93 Q1242.69 1524.47 1242.69 1531.6 Q1242.69 1538.71 1244.49 1542.27 Q1246.32 1545.82 1249.93 1545.82 Q1253.57 1545.82 1255.37 1542.27 Q1257.2 1538.71 1257.2 1531.6 Q1257.2 1524.47 1255.37 1520.93 Q1253.57 1517.37 1249.93 1517.37 M1249.93 1513.66 Q1255.74 1513.66 1258.8 1518.27 Q1261.88 1522.85 1261.88 1531.6 Q1261.88 1540.33 1258.8 1544.94 Q1255.74 1549.52 1249.93 1549.52 Q1244.12 1549.52 1241.04 1544.94 Q1237.99 1540.33 1237.99 1531.6 Q1237.99 1522.85 1241.04 1518.27 Q1244.12 1513.66 1249.93 1513.66 Z" fill="#000000" fill-rule="nonzero" fill-opacity="1" /><path clip-path="url(#clip450)" d="M1270.09 1542.97 L1274.98 1542.97 L1274.98 1548.85 L1270.09 1548.85 L1270.09 1542.97 Z" fill="#000000" fill-rule="nonzero" fill-opacity="1" /><path clip-path="url(#clip450)" d="M1295.16 1517.37 Q1291.55 1517.37 1289.72 1520.93 Q1287.92 1524.47 1287.92 1531.6 Q1287.92 1538.71 1289.72 1542.27 Q1291.55 1545.82 1295.16 1545.82 Q1298.8 1545.82 1300.6 1542.27 Q1302.43 1538.71 1302.43 1531.6 Q1302.43 1524.47 1300.6 1520.93 Q1298.8 1517.37 1295.16 1517.37 M1295.16 1513.66 Q1300.97 1513.66 1304.03 1518.27 Q1307.11 1522.85 1307.11 1531.6 Q1307.11 1540.33 1304.03 1544.94 Q1300.97 1549.52 1295.16 1549.52 Q1289.35 1549.52 1286.27 1544.94 Q1283.22 1540.33 1283.22 1531.6 Q1283.22 1522.85 1286.27 1518.27 Q1289.35 1513.66 1295.16 1513.66 Z" fill="#000000" fill-rule="nonzero" fill-opacity="1" /><path clip-path="url(#clip450)" d="M1759.96 1517.37 Q1756.35 1517.37 1754.52 1520.93 Q1752.72 1524.47 1752.72 1531.6 Q1752.72 1538.71 1754.52 1542.27 Q1756.35 1545.82 1759.96 1545.82 Q1763.6 1545.82 1765.4 1542.27 Q1767.23 1538.71 1767.23 1531.6 Q1767.23 1524.47 1765.4 1520.93 Q1763.6 1517.37 1759.96 1517.37 M1759.96 1513.66 Q1765.77 1513.66 1768.83 1518.27 Q1771.91 1522.85 1771.91 1531.6 Q1771.91 1540.33 1768.83 1544.94 Q1765.77 1549.52 1759.96 1549.52 Q1754.15 1549.52 1751.07 1544.94 Q1748.02 1540.33 1748.02 1531.6 Q1748.02 1522.85 1751.07 1518.27 Q1754.15 1513.66 1759.96 1513.66 Z" fill="#000000" fill-rule="nonzero" fill-opacity="1" /><path clip-path="url(#clip450)" d="M1780.12 1542.97 L1785.01 1542.97 L1785.01 1548.85 L1780.12 1548.85 L1780.12 1542.97 Z" fill="#000000" fill-rule="nonzero" fill-opacity="1" /><path clip-path="url(#clip450)" d="M1795.24 1514.29 L1813.6 1514.29 L1813.6 1518.22 L1799.52 1518.22 L1799.52 1526.7 Q1800.54 1526.35 1801.56 1526.19 Q1802.58 1526 1803.6 1526 Q1809.38 1526 1812.76 1529.17 Q1816.14 1532.34 1816.14 1537.76 Q1816.14 1543.34 1812.67 1546.44 Q1809.2 1549.52 1802.88 1549.52 Q1800.7 1549.52 1798.43 1549.15 Q1796.19 1548.78 1793.78 1548.04 L1793.78 1543.34 Q1795.86 1544.47 1798.09 1545.03 Q1800.31 1545.58 1802.79 1545.58 Q1806.79 1545.58 1809.13 1543.48 Q1811.47 1541.37 1811.47 1537.76 Q1811.47 1534.15 1809.13 1532.04 Q1806.79 1529.94 1802.79 1529.94 Q1800.91 1529.94 1799.04 1530.35 Q1797.18 1530.77 1795.24 1531.65 L1795.24 1514.29 Z" fill="#000000" fill-rule="nonzero" fill-opacity="1" /><path clip-path="url(#clip450)" d="M2258.76 1544.91 L2266.4 1544.91 L2266.4 1518.55 L2258.09 1520.21 L2258.09 1515.95 L2266.36 1514.29 L2271.03 1514.29 L2271.03 1544.91 L2278.67 1544.91 L2278.67 1548.85 L2258.76 1548.85 L2258.76 1544.91 Z" fill="#000000" fill-rule="nonzero" fill-opacity="1" /><path clip-path="url(#clip450)" d="M2288.12 1542.97 L2293 1542.97 L2293 1548.85 L2288.12 1548.85 L2288.12 1542.97 Z" fill="#000000" fill-rule="nonzero" fill-opacity="1" /><path clip-path="url(#clip450)" d="M2313.19 1517.37 Q2309.57 1517.37 2307.75 1520.93 Q2305.94 1524.47 2305.94 1531.6 Q2305.94 1538.71 2307.75 1542.27 Q2309.57 1545.82 2313.19 1545.82 Q2316.82 1545.82 2318.63 1542.27 Q2320.45 1538.71 2320.45 1531.6 Q2320.45 1524.47 2318.63 1520.93 Q2316.82 1517.37 2313.19 1517.37 M2313.19 1513.66 Q2319 1513.66 2322.05 1518.27 Q2325.13 1522.85 2325.13 1531.6 Q2325.13 1540.33 2322.05 1544.94 Q2319 1549.52 2313.19 1549.52 Q2307.38 1549.52 2304.3 1544.94 Q2301.24 1540.33 2301.24 1531.6 Q2301.24 1522.85 2304.3 1518.27 Q2307.38 1513.66 2313.19 1513.66 Z" fill="#000000" fill-rule="nonzero" fill-opacity="1" /><polyline clip-path="url(#clip452)" style="stroke:#000000; stroke-linecap:round; stroke-linejoin:round; stroke-width:2; stroke-opacity:0.1; fill:none" points="192.339,1345.55 2352.76,1345.55 "/>
<polyline clip-path="url(#clip452)" style="stroke:#000000; stroke-linecap:round; stroke-linejoin:round; stroke-width:2; stroke-opacity:0.1; fill:none" points="192.339,1176.09 2352.76,1176.09 "/>
<polyline clip-path="url(#clip452)" style="stroke:#000000; stroke-linecap:round; stroke-linejoin:round; stroke-width:2; stroke-opacity:0.1; fill:none" points="192.339,1006.63 2352.76,1006.63 "/>
<polyline clip-path="url(#clip452)" style="stroke:#000000; stroke-linecap:round; stroke-linejoin:round; stroke-width:2; stroke-opacity:0.1; fill:none" points="192.339,837.174 2352.76,837.174 "/>
<polyline clip-path="url(#clip452)" style="stroke:#000000; stroke-linecap:round; stroke-linejoin:round; stroke-width:2; stroke-opacity:0.1; fill:none" points="192.339,667.716 2352.76,667.716 "/>
<polyline clip-path="url(#clip452)" style="stroke:#000000; stroke-linecap:round; stroke-linejoin:round; stroke-width:2; stroke-opacity:0.1; fill:none" points="192.339,498.258 2352.76,498.258 "/>
<polyline clip-path="url(#clip452)" style="stroke:#000000; stroke-linecap:round; stroke-linejoin:round; stroke-width:2; stroke-opacity:0.1; fill:none" points="192.339,328.8 2352.76,328.8 "/>
<polyline clip-path="url(#clip452)" style="stroke:#000000; stroke-linecap:round; stroke-linejoin:round; stroke-width:2; stroke-opacity:0.1; fill:none" points="192.339,159.342 2352.76,159.342 "/>
<polyline clip-path="url(#clip450)" style="stroke:#000000; stroke-linecap:round; stroke-linejoin:round; stroke-width:4; stroke-opacity:1; fill:none" points="192.339,1486.45 192.339,47.2441 "/>
<polyline clip-path="url(#clip450)" style="stroke:#000000; stroke-linecap:round; stroke-linejoin:round; stroke-width:4; stroke-opacity:1; fill:none" points="192.339,1345.55 211.236,1345.55 "/>
<polyline clip-path="url(#clip450)" style="stroke:#000000; stroke-linecap:round; stroke-linejoin:round; stroke-width:4; stroke-opacity:1; fill:none" points="192.339,1176.09 211.236,1176.09 "/>
<polyline clip-path="url(#clip450)" style="stroke:#000000; stroke-linecap:round; stroke-linejoin:round; stroke-width:4; stroke-opacity:1; fill:none" points="192.339,1006.63 211.236,1006.63 "/>
<polyline clip-path="url(#clip450)" style="stroke:#000000; stroke-linecap:round; stroke-linejoin:round; stroke-width:4; stroke-opacity:1; fill:none" points="192.339,837.174 211.236,837.174 "/>
<polyline clip-path="url(#clip450)" style="stroke:#000000; stroke-linecap:round; stroke-linejoin:round; stroke-width:4; stroke-opacity:1; fill:none" points="192.339,667.716 211.236,667.716 "/>
<polyline clip-path="url(#clip450)" style="stroke:#000000; stroke-linecap:round; stroke-linejoin:round; stroke-width:4; stroke-opacity:1; fill:none" points="192.339,498.258 211.236,498.258 "/>
<polyline clip-path="url(#clip450)" style="stroke:#000000; stroke-linecap:round; stroke-linejoin:round; stroke-width:4; stroke-opacity:1; fill:none" points="192.339,328.8 211.236,328.8 "/>
<polyline clip-path="url(#clip450)" style="stroke:#000000; stroke-linecap:round; stroke-linejoin:round; stroke-width:4; stroke-opacity:1; fill:none" points="192.339,159.342 211.236,159.342 "/>
<path clip-path="url(#clip450)" d="M50.9921 1346 L80.6679 1346 L80.6679 1349.93 L50.9921 1349.93 L50.9921 1346 Z" fill="#000000" fill-rule="nonzero" fill-opacity="1" /><path clip-path="url(#clip450)" d="M100.76 1331.35 Q97.1493 1331.35 95.3206 1334.91 Q93.515 1338.45 93.515 1345.58 Q93.515 1352.69 95.3206 1356.25 Q97.1493 1359.79 100.76 1359.79 Q104.395 1359.79 106.2 1356.25 Q108.029 1352.69 108.029 1345.58 Q108.029 1338.45 106.2 1334.91 Q104.395 1331.35 100.76 1331.35 M100.76 1327.64 Q106.571 1327.64 109.626 1332.25 Q112.705 1336.83 112.705 1345.58 Q112.705 1354.31 109.626 1358.92 Q106.571 1363.5 100.76 1363.5 Q94.9502 1363.5 91.8715 1358.92 Q88.816 1354.31 88.816 1345.58 Q88.816 1336.83 91.8715 1332.25 Q94.9502 1327.64 100.76 1327.64 Z" fill="#000000" fill-rule="nonzero" fill-opacity="1" /><path clip-path="url(#clip450)" d="M120.922 1356.95 L125.807 1356.95 L125.807 1362.83 L120.922 1362.83 L120.922 1356.95 Z" fill="#000000" fill-rule="nonzero" fill-opacity="1" /><path clip-path="url(#clip450)" d="M140.019 1358.89 L156.339 1358.89 L156.339 1362.83 L134.394 1362.83 L134.394 1358.89 Q137.056 1356.14 141.64 1351.51 Q146.246 1346.85 147.427 1345.51 Q149.672 1342.99 150.552 1341.25 Q151.455 1339.49 151.455 1337.8 Q151.455 1335.05 149.51 1333.31 Q147.589 1331.58 144.487 1331.58 Q142.288 1331.58 139.834 1332.34 Q137.404 1333.11 134.626 1334.66 L134.626 1329.93 Q137.45 1328.8 139.904 1328.22 Q142.357 1327.64 144.394 1327.64 Q149.765 1327.64 152.959 1330.33 Q156.154 1333.01 156.154 1337.5 Q156.154 1339.63 155.343 1341.55 Q154.556 1343.45 152.45 1346.04 Q151.871 1346.72 148.769 1349.93 Q145.668 1353.13 140.019 1358.89 Z" fill="#000000" fill-rule="nonzero" fill-opacity="1" /><path clip-path="url(#clip450)" d="M99.1632 1161.89 Q95.5521 1161.89 93.7234 1165.45 Q91.9178 1168.99 91.9178 1176.12 Q91.9178 1183.23 93.7234 1186.8 Q95.5521 1190.34 99.1632 1190.34 Q102.797 1190.34 104.603 1186.8 Q106.432 1183.23 106.432 1176.12 Q106.432 1168.99 104.603 1165.45 Q102.797 1161.89 99.1632 1161.89 M99.1632 1158.18 Q104.973 1158.18 108.029 1162.79 Q111.108 1167.37 111.108 1176.12 Q111.108 1184.85 108.029 1189.46 Q104.973 1194.04 99.1632 1194.04 Q93.353 1194.04 90.2743 1189.46 Q87.2188 1184.85 87.2188 1176.12 Q87.2188 1167.37 90.2743 1162.79 Q93.353 1158.18 99.1632 1158.18 Z" fill="#000000" fill-rule="nonzero" fill-opacity="1" /><path clip-path="url(#clip450)" d="M119.325 1187.49 L124.209 1187.49 L124.209 1193.37 L119.325 1193.37 L119.325 1187.49 Z" fill="#000000" fill-rule="nonzero" fill-opacity="1" /><path clip-path="url(#clip450)" d="M144.394 1161.89 Q140.783 1161.89 138.955 1165.45 Q137.149 1168.99 137.149 1176.12 Q137.149 1183.23 138.955 1186.8 Q140.783 1190.34 144.394 1190.34 Q148.029 1190.34 149.834 1186.8 Q151.663 1183.23 151.663 1176.12 Q151.663 1168.99 149.834 1165.45 Q148.029 1161.89 144.394 1161.89 M144.394 1158.18 Q150.205 1158.18 153.26 1162.79 Q156.339 1167.37 156.339 1176.12 Q156.339 1184.85 153.26 1189.46 Q150.205 1194.04 144.394 1194.04 Q138.584 1194.04 135.506 1189.46 Q132.45 1184.85 132.45 1176.12 Q132.45 1167.37 135.506 1162.79 Q138.584 1158.18 144.394 1158.18 Z" fill="#000000" fill-rule="nonzero" fill-opacity="1" /><path clip-path="url(#clip450)" d="M100.76 992.43 Q97.1493 992.43 95.3206 995.995 Q93.515 999.537 93.515 1006.67 Q93.515 1013.77 95.3206 1017.34 Q97.1493 1020.88 100.76 1020.88 Q104.395 1020.88 106.2 1017.34 Q108.029 1013.77 108.029 1006.67 Q108.029 999.537 106.2 995.995 Q104.395 992.43 100.76 992.43 M100.76 988.726 Q106.571 988.726 109.626 993.333 Q112.705 997.916 112.705 1006.67 Q112.705 1015.39 109.626 1020 Q106.571 1024.58 100.76 1024.58 Q94.9502 1024.58 91.8715 1020 Q88.816 1015.39 88.816 1006.67 Q88.816 997.916 91.8715 993.333 Q94.9502 988.726 100.76 988.726 Z" fill="#000000" fill-rule="nonzero" fill-opacity="1" /><path clip-path="url(#clip450)" d="M120.922 1018.03 L125.807 1018.03 L125.807 1023.91 L120.922 1023.91 L120.922 1018.03 Z" fill="#000000" fill-rule="nonzero" fill-opacity="1" /><path clip-path="url(#clip450)" d="M140.019 1019.98 L156.339 1019.98 L156.339 1023.91 L134.394 1023.91 L134.394 1019.98 Q137.056 1017.22 141.64 1012.59 Q146.246 1007.94 147.427 1006.6 Q149.672 1004.07 150.552 1002.34 Q151.455 1000.58 151.455 998.888 Q151.455 996.134 149.51 994.398 Q147.589 992.662 144.487 992.662 Q142.288 992.662 139.834 993.426 Q137.404 994.189 134.626 995.74 L134.626 991.018 Q137.45 989.884 139.904 989.305 Q142.357 988.726 144.394 988.726 Q149.765 988.726 152.959 991.412 Q156.154 994.097 156.154 998.588 Q156.154 1000.72 155.343 1002.64 Q154.556 1004.54 152.45 1007.13 Q151.871 1007.8 148.769 1011.02 Q145.668 1014.21 140.019 1019.98 Z" fill="#000000" fill-rule="nonzero" fill-opacity="1" /><path clip-path="url(#clip450)" d="M98.6771 822.972 Q95.066 822.972 93.2373 826.537 Q91.4317 830.079 91.4317 837.208 Q91.4317 844.315 93.2373 847.88 Q95.066 851.421 98.6771 851.421 Q102.311 851.421 104.117 847.88 Q105.946 844.315 105.946 837.208 Q105.946 830.079 104.117 826.537 Q102.311 822.972 98.6771 822.972 M98.6771 819.269 Q104.487 819.269 107.543 823.875 Q110.621 828.458 110.621 837.208 Q110.621 845.935 107.543 850.542 Q104.487 855.125 98.6771 855.125 Q92.8669 855.125 89.7882 850.542 Q86.7327 845.935 86.7327 837.208 Q86.7327 828.458 89.7882 823.875 Q92.8669 819.269 98.6771 819.269 Z" fill="#000000" fill-rule="nonzero" fill-opacity="1" /><path clip-path="url(#clip450)" d="M118.839 848.574 L123.723 848.574 L123.723 854.454 L118.839 854.454 L118.839 848.574 Z" fill="#000000" fill-rule="nonzero" fill-opacity="1" /><path clip-path="url(#clip450)" d="M146.756 823.968 L134.95 842.417 L146.756 842.417 L146.756 823.968 M145.529 819.894 L151.408 819.894 L151.408 842.417 L156.339 842.417 L156.339 846.306 L151.408 846.306 L151.408 854.454 L146.756 854.454 L146.756 846.306 L131.154 846.306 L131.154 841.792 L145.529 819.894 Z" fill="#000000" fill-rule="nonzero" fill-opacity="1" /><path clip-path="url(#clip450)" d="M99.0011 653.515 Q95.39 653.515 93.5613 657.079 Q91.7558 660.621 91.7558 667.751 Q91.7558 674.857 93.5613 678.422 Q95.39 681.963 99.0011 681.963 Q102.635 681.963 104.441 678.422 Q106.27 674.857 106.27 667.751 Q106.27 660.621 104.441 657.079 Q102.635 653.515 99.0011 653.515 M99.0011 649.811 Q104.811 649.811 107.867 654.417 Q110.946 659.001 110.946 667.751 Q110.946 676.477 107.867 681.084 Q104.811 685.667 99.0011 685.667 Q93.191 685.667 90.1123 681.084 Q87.0567 676.477 87.0567 667.751 Q87.0567 659.001 90.1123 654.417 Q93.191 649.811 99.0011 649.811 Z" fill="#000000" fill-rule="nonzero" fill-opacity="1" /><path clip-path="url(#clip450)" d="M119.163 679.116 L124.047 679.116 L124.047 684.996 L119.163 684.996 L119.163 679.116 Z" fill="#000000" fill-rule="nonzero" fill-opacity="1" /><path clip-path="url(#clip450)" d="M144.811 665.852 Q141.663 665.852 139.811 668.005 Q137.982 670.158 137.982 673.908 Q137.982 677.635 139.811 679.811 Q141.663 681.963 144.811 681.963 Q147.959 681.963 149.788 679.811 Q151.64 677.635 151.64 673.908 Q151.64 670.158 149.788 668.005 Q147.959 665.852 144.811 665.852 M154.093 651.2 L154.093 655.459 Q152.334 654.626 150.529 654.186 Q148.746 653.746 146.987 653.746 Q142.357 653.746 139.904 656.871 Q137.473 659.996 137.126 666.315 Q138.492 664.302 140.552 663.237 Q142.612 662.149 145.089 662.149 Q150.297 662.149 153.306 665.32 Q156.339 668.468 156.339 673.908 Q156.339 679.232 153.191 682.45 Q150.043 685.667 144.811 685.667 Q138.816 685.667 135.644 681.084 Q132.473 676.477 132.473 667.751 Q132.473 659.556 136.362 654.695 Q140.251 649.811 146.802 649.811 Q148.561 649.811 150.343 650.158 Q152.149 650.505 154.093 651.2 Z" fill="#000000" fill-rule="nonzero" fill-opacity="1" /><path clip-path="url(#clip450)" d="M99.2558 484.057 Q95.6447 484.057 93.816 487.622 Q92.0104 491.163 92.0104 498.293 Q92.0104 505.399 93.816 508.964 Q95.6447 512.506 99.2558 512.506 Q102.89 512.506 104.696 508.964 Q106.524 505.399 106.524 498.293 Q106.524 491.163 104.696 487.622 Q102.89 484.057 99.2558 484.057 M99.2558 480.353 Q105.066 480.353 108.121 484.959 Q111.2 489.543 111.2 498.293 Q111.2 507.02 108.121 511.626 Q105.066 516.209 99.2558 516.209 Q93.4456 516.209 90.3669 511.626 Q87.3114 507.02 87.3114 498.293 Q87.3114 489.543 90.3669 484.959 Q93.4456 480.353 99.2558 480.353 Z" fill="#000000" fill-rule="nonzero" fill-opacity="1" /><path clip-path="url(#clip450)" d="M119.418 509.658 L124.302 509.658 L124.302 515.538 L119.418 515.538 L119.418 509.658 Z" fill="#000000" fill-rule="nonzero" fill-opacity="1" /><path clip-path="url(#clip450)" d="M144.487 499.126 Q141.154 499.126 139.232 500.908 Q137.334 502.691 137.334 505.816 Q137.334 508.941 139.232 510.723 Q141.154 512.506 144.487 512.506 Q147.82 512.506 149.742 510.723 Q151.663 508.918 151.663 505.816 Q151.663 502.691 149.742 500.908 Q147.843 499.126 144.487 499.126 M139.811 497.135 Q136.802 496.395 135.112 494.334 Q133.445 492.274 133.445 489.311 Q133.445 485.168 136.385 482.76 Q139.348 480.353 144.487 480.353 Q149.649 480.353 152.589 482.76 Q155.529 485.168 155.529 489.311 Q155.529 492.274 153.839 494.334 Q152.172 496.395 149.186 497.135 Q152.566 497.922 154.441 500.214 Q156.339 502.506 156.339 505.816 Q156.339 510.839 153.26 513.524 Q150.205 516.209 144.487 516.209 Q138.769 516.209 135.691 513.524 Q132.635 510.839 132.635 505.816 Q132.635 502.506 134.533 500.214 Q136.431 497.922 139.811 497.135 M138.098 489.751 Q138.098 492.436 139.765 493.941 Q141.455 495.446 144.487 495.446 Q147.496 495.446 149.186 493.941 Q150.899 492.436 150.899 489.751 Q150.899 487.066 149.186 485.561 Q147.496 484.057 144.487 484.057 Q141.455 484.057 139.765 485.561 Q138.098 487.066 138.098 489.751 Z" fill="#000000" fill-rule="nonzero" fill-opacity="1" /><path clip-path="url(#clip450)" d="M89.9734 342.145 L97.6122 342.145 L97.6122 315.779 L89.3021 317.446 L89.3021 313.187 L97.566 311.52 L102.242 311.52 L102.242 342.145 L109.881 342.145 L109.881 346.08 L89.9734 346.08 L89.9734 342.145 Z" fill="#000000" fill-rule="nonzero" fill-opacity="1" /><path clip-path="url(#clip450)" d="M119.325 340.201 L124.209 340.201 L124.209 346.08 L119.325 346.08 L119.325 340.201 Z" fill="#000000" fill-rule="nonzero" fill-opacity="1" /><path clip-path="url(#clip450)" d="M144.394 314.599 Q140.783 314.599 138.955 318.164 Q137.149 321.705 137.149 328.835 Q137.149 335.941 138.955 339.506 Q140.783 343.048 144.394 343.048 Q148.029 343.048 149.834 339.506 Q151.663 335.941 151.663 328.835 Q151.663 321.705 149.834 318.164 Q148.029 314.599 144.394 314.599 M144.394 310.895 Q150.205 310.895 153.26 315.502 Q156.339 320.085 156.339 328.835 Q156.339 337.562 153.26 342.168 Q150.205 346.752 144.394 346.752 Q138.584 346.752 135.506 342.168 Q132.45 337.562 132.45 328.835 Q132.45 320.085 135.506 315.502 Q138.584 310.895 144.394 310.895 Z" fill="#000000" fill-rule="nonzero" fill-opacity="1" /><path clip-path="url(#clip450)" d="M91.5706 172.687 L99.2095 172.687 L99.2095 146.322 L90.8993 147.988 L90.8993 143.729 L99.1632 142.062 L103.839 142.062 L103.839 172.687 L111.478 172.687 L111.478 176.622 L91.5706 176.622 L91.5706 172.687 Z" fill="#000000" fill-rule="nonzero" fill-opacity="1" /><path clip-path="url(#clip450)" d="M120.922 170.743 L125.807 170.743 L125.807 176.622 L120.922 176.622 L120.922 170.743 Z" fill="#000000" fill-rule="nonzero" fill-opacity="1" /><path clip-path="url(#clip450)" d="M140.019 172.687 L156.339 172.687 L156.339 176.622 L134.394 176.622 L134.394 172.687 Q137.056 169.933 141.64 165.303 Q146.246 160.65 147.427 159.308 Q149.672 156.785 150.552 155.048 Q151.455 153.289 151.455 151.599 Q151.455 148.845 149.51 147.109 Q147.589 145.373 144.487 145.373 Q142.288 145.373 139.834 146.136 Q137.404 146.9 134.626 148.451 L134.626 143.729 Q137.45 142.595 139.904 142.016 Q142.357 141.437 144.394 141.437 Q149.765 141.437 152.959 144.123 Q156.154 146.808 156.154 151.298 Q156.154 153.428 155.343 155.349 Q154.556 157.248 152.45 159.84 Q151.871 160.511 148.769 163.729 Q145.668 166.923 140.019 172.687 Z" fill="#000000" fill-rule="nonzero" fill-opacity="1" /><polyline clip-path="url(#clip452)" style="stroke:#009af9; stroke-linecap:round; stroke-linejoin:round; stroke-width:16; stroke-opacity:1; fill:none" stroke-dasharray="8, 16" points="253.483,1047.91 263.725,1032.94 273.966,1020.21 284.208,1010.72 294.45,1005.71 304.692,1006.44 314.934,1013.84 325.176,1027.94 335.418,1047.73 345.659,1071.56 355.901,1097.86 366.143,1125.69 376.385,1154.71 386.627,1184.7 396.869,1214.99 407.111,1244.27 417.352,1271.09 427.594,1294.5 437.836,1314.03 448.078,1329.12 458.32,1339.03 468.562,1343.27 478.803,1341.92 489.045,1335.49 499.287,1324.47 509.529,1309.04 519.771,1289.12 530.013,1264.82 540.255,1236.77 550.497,1206.23 560.738,1174.79 570.98,1144.01 581.222,1115.09 591.464,1088.73 601.706,1065.19 611.948,1044.34 622.19,1026.02 632.431,1010.76 642.673,1000.64 652.915,998.527 663.157,1005.7 673.399,1020.37 683.641,1038.95 693.882,1058.54 704.124,1078.53 714.366,1100.3 724.608,1125.72 734.85,1155.48 745.092,1188.86 755.334,1224.43 765.575,1258.89 775.817,1286.8 786.059,1305.3 796.301,1316.56 806.543,1325.59 816.785,1335.68 827.027,1343.53 837.268,1344.24 847.51,1337.48 857.752,1325.11 867.994,1307.18 878.236,1283.2 888.478,1255.27 898.72,1226.65 908.961,1197.97 919.203,1167.5 929.445,1134.78 939.687,1102.96 949.929,1077.07 960.171,1059.48 970.413,1047.25 980.654,1035.33 990.896,1021.6 1001.14,1008.18 1011.38,999.375 1021.62,999.728 1031.86,1012.48 1042.11,1037.98 1052.35,1073.72 1062.59,1114.67 1072.83,1143.28 1083.07,1146.87 1093.31,1144.84 1103.56,1170.73 1113.8,1228.95 1124.04,1267.83 1134.28,1251.75 1144.52,1252.66 1154.77,1307.09 1165.01,1333.37 1175.25,1365.21 1185.49,1429.23 1195.73,1445.72 1205.98,1376 1216.22,1250.19 1226.46,1255.33 1236.7,1287.51 1246.94,1262.88 1257.18,1176.8 1267.43,979.389 1277.67,696.06 1287.91,438.698 1298.15,228.231 1308.39,148.259 1318.64,205.045 1328.88,299.477 1339.12,357.346 1349.36,332.391 1359.6,311.519 1369.84,318.696 1380.09,298.713 1390.33,254.267 1400.57,256.257 1410.81,296.398 1421.05,337.306 1431.3,371.461 1441.54,387.36 1451.78,385.238 1462.02,368.571 1472.26,340.735 1482.51,309.914 1492.75,287.015 1502.99,278.204 1513.23,282.857 1523.47,297.507 1533.71,319.624 1543.96,346.49 1554.2,372.365 1564.44,389.963 1574.68,394.12 1584.92,382.857 1595.17,356.415 1605.41,317.498 1615.65,274.484 1625.89,244.15 1636.13,243.517 1646.38,273.908 1656.62,321.969 1666.86,372.584 1677.1,412.317 1687.34,429.113 1697.58,416.806 1707.83,377.93 1718.07,320.807 1728.31,258.78 1738.55,212.952 1748.79,206.692 1759.04,245.657 1769.28,310.39 1779.52,373.887 1789.76,417.77 1800,435.795 1810.24,429.101 1820.49,401.333 1830.73,357.378 1840.97,303.977 1851.21,250.59 1861.45,209.846 1871.7,195.923 1881.94,219.263 1892.18,280.298 1902.42,365.862 1912.66,448.312 1922.91,494.341 1933.15,484.309 1943.39,423.824 1953.63,335.911 1963.87,241.219 1974.11,157.393 1984.36,116.299 1994.6,154.324 2004.84,258.731 2015.08,373.88 2025.32,460.469 2035.57,506.527 2045.81,511.564 2056.05,476.716 2066.29,403.59 2076.53,298.949 2086.77,183.343 2097.02,97.7328 2107.26,87.9763 2117.5,161.864 2127.74,282.796 2137.98,408.684 2148.23,506.482 2158.47,550.779 2168.71,530.383 2178.95,451.78 2189.19,335.093 2199.44,214.365 2209.68,137.546 2219.92,132.2 2230.16,179.465 2240.4,248.537 2250.64,321.021 2260.89,388.332 2271.13,447.145 2281.37,497.118 2291.61,539.051 "/>
<polyline clip-path="url(#clip452)" style="stroke:#e26f46; stroke-linecap:round; stroke-linejoin:round; stroke-width:4; stroke-opacity:1; fill:none" points="253.483,1048.83 263.725,1030.77 273.966,1017.46 284.208,1009.32 294.45,1006.63 304.692,1009.47 314.934,1017.75 325.176,1031.19 335.418,1049.36 345.659,1071.67 355.901,1097.39 366.143,1125.67 376.385,1155.6 386.627,1186.2 396.869,1216.47 407.111,1245.42 417.352,1272.11 427.594,1295.67 437.836,1315.32 448.078,1330.43 458.32,1340.5 468.562,1345.2 478.803,1344.39 489.045,1338.08 499.287,1326.49 509.529,1309.98 519.771,1289.11 530.013,1264.55 540.255,1237.1 550.497,1207.66 560.738,1177.19 570.98,1146.68 581.222,1117.14 591.464,1089.51 601.706,1064.72 611.948,1043.56 622.19,1026.72 632.431,1014.76 642.673,1008.06 652.915,1006.85 663.157,1011.16 673.399,1020.86 683.641,1035.62 693.882,1054.96 704.124,1078.26 714.366,1104.75 724.608,1133.57 734.85,1163.78 745.092,1194.39 755.334,1224.4 765.575,1252.84 775.817,1278.77 786.059,1301.34 796.301,1319.84 806.543,1333.64 816.785,1342.29 827.027,1345.53 837.268,1343.23 847.51,1335.48 857.752,1322.53 867.994,1304.79 878.236,1282.86 888.478,1257.44 898.72,1229.37 908.961,1199.56 919.203,1168.98 929.445,1138.63 939.687,1109.51 949.929,1082.56 960.171,1058.66 970.413,1038.6 980.654,1023.02 990.896,1012.44 1001.14,1007.2 1011.38,1007.47 1021.62,1013.24 1031.86,1024.33 1042.11,1040.37 1052.35,1060.85 1062.59,1085.08 1072.83,1112.28 1083.07,1141.57 1093.31,1171.98 1103.56,1202.53 1113.8,1232.21 1124.04,1260.07 1134.28,1285.18 1144.52,1306.73 1154.77,1324.02 1165.01,1336.47 1175.25,1343.7 1185.49,1345.45 1195.73,1341.68 1205.98,1332.5 1216.22,1318.22 1226.46,1299.3 1236.7,1276.36 1246.94,1250.14 1257.18,1221.51 1267.43,1191.4 1277.67,327.57 1287.91,326.169 1298.15,327.444 1308.39,331.687 1318.64,337.597 1328.88,342.679 1339.12,344.183 1349.36,340.274 1359.6,330.953 1369.84,318.389 1380.09,306.432 1390.33,299.448 1400.57,300.788 1410.81,311.445 1421.05,329.369 1431.3,349.769 1441.54,366.381 1451.78,373.388 1462.02,367.39 1472.26,348.779 1482.51,322.009 1492.75,294.574 1502.99,274.911 1513.23,269.817 1523.47,282.165 1533.71,309.675 1543.96,345.204 1554.2,378.578 1564.44,399.51 1574.68,400.75 1584.92,380.528 1595.17,343.467 1605.41,299.597 1615.65,261.649 1625.89,241.363 1636.13,245.874 1646.38,275.284 1656.62,322.234 1666.86,373.704 1677.1,414.617 1687.34,432.257 1697.58,420.194 1707.83,380.53 1718.07,323.679 1728.31,265.665 1738.55,223.6 1748.79,210.644 1759.04,231.917 1769.28,282.621 1779.52,349.045 1789.76,412.255 1800,453.494 1810.24,459.741 1820.49,427.787 1830.73,365.566 1840.97,290.235 1851.21,223.447 1861.45,185.132 1871.7,187.555 1881.94,231.43 1892.18,305.314 1902.42,388.555 1912.66,457.065 1922.91,490.285 1933.15,477.349 1943.39,420.581 1953.63,335.231 1963.87,245.396 1974.11,177.22 1984.36,151.286 1994.6,176.418 2004.84,246.748 2015.08,343.015 2025.32,437.828 2035.57,503.458 2045.81,519.942 2056.05,481.143 2066.29,396.911 2076.53,290.628 2086.77,192.724 2097.02,131.967 2107.26,127.011 2117.5,180.695 2127.74,278.818 2137.98,393.871 2148.23,492.74 2158.47,546.239 2168.71,537.721 2178.95,468.226 2189.19,356.585 2199.44,234.34 2209.68,136.833 2219.92,92.987 2230.16,116.74 2240.4,202.648 2250.64,327.06 2260.89,454.61 2271.13,548.276 2281.37,580.115 2291.61,539.6 "/>
<path clip-path="url(#clip450)" d="M264.353 250.738 L707.222 250.738 L707.222 95.2176 L264.353 95.2176  Z" fill="#ffffff" fill-rule="evenodd" fill-opacity="1"/>
<polyline clip-path="url(#clip450)" style="stroke:#000000; stroke-linecap:round; stroke-linejoin:round; stroke-width:4; stroke-opacity:1; fill:none" points="264.353,250.738 707.222,250.738 707.222,95.2176 264.353,95.2176 264.353,250.738 "/>
<polyline clip-path="url(#clip450)" style="stroke:#009af9; stroke-linecap:round; stroke-linejoin:round; stroke-width:16; stroke-opacity:1; fill:none" stroke-dasharray="8, 16" points="288.357,147.058 432.385,147.058 "/>
<path clip-path="url(#clip450)" d="M461.066 133.62 L461.066 146.606 L466.945 146.606 Q470.209 146.606 471.992 144.916 Q473.774 143.227 473.774 140.102 Q473.774 137 471.992 135.31 Q470.209 133.62 466.945 133.62 L461.066 133.62 M456.39 129.778 L466.945 129.778 Q472.755 129.778 475.718 132.416 Q478.704 135.032 478.704 140.102 Q478.704 145.217 475.718 147.833 Q472.755 150.449 466.945 150.449 L461.066 150.449 L461.066 164.338 L456.39 164.338 L456.39 129.778 Z" fill="#000000" fill-rule="nonzero" fill-opacity="1" /><path clip-path="url(#clip450)" d="M498.982 142.393 Q498.265 141.977 497.408 141.791 Q496.575 141.583 495.556 141.583 Q491.945 141.583 490.001 143.944 Q488.079 146.282 488.079 150.68 L488.079 164.338 L483.797 164.338 L483.797 138.412 L488.079 138.412 L488.079 142.44 Q489.422 140.078 491.575 138.944 Q493.728 137.787 496.806 137.787 Q497.246 137.787 497.778 137.856 Q498.311 137.903 498.959 138.018 L498.982 142.393 Z" fill="#000000" fill-rule="nonzero" fill-opacity="1" /><path clip-path="url(#clip450)" d="M524.584 150.31 L524.584 152.393 L505.001 152.393 Q505.278 156.791 507.639 159.106 Q510.024 161.398 514.26 161.398 Q516.714 161.398 519.005 160.796 Q521.32 160.194 523.588 158.99 L523.588 163.018 Q521.297 163.99 518.889 164.5 Q516.482 165.009 514.005 165.009 Q507.802 165.009 504.167 161.398 Q500.556 157.787 500.556 151.629 Q500.556 145.264 503.982 141.537 Q507.431 137.787 513.264 137.787 Q518.496 137.787 521.528 141.166 Q524.584 144.523 524.584 150.31 M520.325 149.06 Q520.278 145.565 518.357 143.481 Q516.459 141.398 513.311 141.398 Q509.746 141.398 507.593 143.412 Q505.464 145.426 505.14 149.083 L520.325 149.06 Z" fill="#000000" fill-rule="nonzero" fill-opacity="1" /><path clip-path="url(#clip450)" d="M548.635 142.347 L548.635 128.319 L552.894 128.319 L552.894 164.338 L548.635 164.338 L548.635 160.449 Q547.292 162.763 545.232 163.898 Q543.195 165.009 540.325 165.009 Q535.625 165.009 532.663 161.259 Q529.723 157.509 529.723 151.398 Q529.723 145.287 532.663 141.537 Q535.625 137.787 540.325 137.787 Q543.195 137.787 545.232 138.921 Q547.292 140.032 548.635 142.347 M534.121 151.398 Q534.121 156.097 536.042 158.782 Q537.987 161.444 541.366 161.444 Q544.746 161.444 546.69 158.782 Q548.635 156.097 548.635 151.398 Q548.635 146.699 546.69 144.037 Q544.746 141.352 541.366 141.352 Q537.987 141.352 536.042 144.037 Q534.121 146.699 534.121 151.398 Z" fill="#000000" fill-rule="nonzero" fill-opacity="1" /><path clip-path="url(#clip450)" d="M561.667 138.412 L565.926 138.412 L565.926 164.338 L561.667 164.338 L561.667 138.412 M561.667 128.319 L565.926 128.319 L565.926 133.713 L561.667 133.713 L561.667 128.319 Z" fill="#000000" fill-rule="nonzero" fill-opacity="1" /><path clip-path="url(#clip450)" d="M593.496 139.407 L593.496 143.389 Q591.69 142.393 589.861 141.907 Q588.056 141.398 586.204 141.398 Q582.06 141.398 579.769 144.037 Q577.477 146.652 577.477 151.398 Q577.477 156.143 579.769 158.782 Q582.06 161.398 586.204 161.398 Q588.056 161.398 589.861 160.912 Q591.69 160.402 593.496 159.407 L593.496 163.342 Q591.713 164.176 589.792 164.592 Q587.894 165.009 585.741 165.009 Q579.884 165.009 576.435 161.328 Q572.986 157.648 572.986 151.398 Q572.986 145.055 576.459 141.421 Q579.954 137.787 586.019 137.787 Q587.986 137.787 589.861 138.203 Q591.736 138.597 593.496 139.407 Z" fill="#000000" fill-rule="nonzero" fill-opacity="1" /><path clip-path="url(#clip450)" d="M605.116 131.051 L605.116 138.412 L613.889 138.412 L613.889 141.722 L605.116 141.722 L605.116 155.796 Q605.116 158.967 605.972 159.87 Q606.852 160.773 609.514 160.773 L613.889 160.773 L613.889 164.338 L609.514 164.338 Q604.583 164.338 602.708 162.509 Q600.833 160.657 600.833 155.796 L600.833 141.722 L597.708 141.722 L597.708 138.412 L600.833 138.412 L600.833 131.051 L605.116 131.051 Z" fill="#000000" fill-rule="nonzero" fill-opacity="1" /><path clip-path="url(#clip450)" d="M619.491 138.412 L623.75 138.412 L623.75 164.338 L619.491 164.338 L619.491 138.412 M619.491 128.319 L623.75 128.319 L623.75 133.713 L619.491 133.713 L619.491 128.319 Z" fill="#000000" fill-rule="nonzero" fill-opacity="1" /><path clip-path="url(#clip450)" d="M642.708 141.398 Q639.282 141.398 637.292 144.083 Q635.301 146.745 635.301 151.398 Q635.301 156.051 637.268 158.736 Q639.259 161.398 642.708 161.398 Q646.111 161.398 648.102 158.713 Q650.092 156.027 650.092 151.398 Q650.092 146.791 648.102 144.106 Q646.111 141.398 642.708 141.398 M642.708 137.787 Q648.264 137.787 651.435 141.398 Q654.606 145.009 654.606 151.398 Q654.606 157.764 651.435 161.398 Q648.264 165.009 642.708 165.009 Q637.13 165.009 633.958 161.398 Q630.81 157.764 630.81 151.398 Q630.81 145.009 633.958 141.398 Q637.13 137.787 642.708 137.787 Z" fill="#000000" fill-rule="nonzero" fill-opacity="1" /><path clip-path="url(#clip450)" d="M683.217 148.689 L683.217 164.338 L678.958 164.338 L678.958 148.828 Q678.958 145.148 677.523 143.319 Q676.088 141.49 673.217 141.49 Q669.768 141.49 667.778 143.69 Q665.787 145.889 665.787 149.685 L665.787 164.338 L661.504 164.338 L661.504 138.412 L665.787 138.412 L665.787 142.44 Q667.315 140.102 669.375 138.944 Q671.458 137.787 674.166 137.787 Q678.634 137.787 680.926 140.565 Q683.217 143.319 683.217 148.689 Z" fill="#000000" fill-rule="nonzero" fill-opacity="1" /><polyline clip-path="url(#clip450)" style="stroke:#e26f46; stroke-linecap:round; stroke-linejoin:round; stroke-width:4; stroke-opacity:1; fill:none" points="288.357,198.898 432.385,198.898 "/>
<path clip-path="url(#clip450)" d="M456.39 181.618 L478.242 181.618 L478.242 185.553 L461.066 185.553 L461.066 195.784 L477.524 195.784 L477.524 199.719 L461.066 199.719 L461.066 212.242 L478.658 212.242 L478.658 216.178 L456.39 216.178 L456.39 181.618 Z" fill="#000000" fill-rule="nonzero" fill-opacity="1" /><path clip-path="url(#clip450)" d="M507.709 190.252 L498.334 202.867 L508.195 216.178 L503.172 216.178 L495.626 205.992 L488.079 216.178 L483.056 216.178 L493.126 202.613 L483.913 190.252 L488.936 190.252 L495.811 199.488 L502.686 190.252 L507.709 190.252 Z" fill="#000000" fill-rule="nonzero" fill-opacity="1" /><path clip-path="url(#clip450)" d="M525.996 203.145 Q520.834 203.145 518.843 204.326 Q516.852 205.506 516.852 208.354 Q516.852 210.622 518.334 211.965 Q519.838 213.284 522.408 213.284 Q525.95 213.284 528.079 210.784 Q530.232 208.261 530.232 204.094 L530.232 203.145 L525.996 203.145 M534.491 201.386 L534.491 216.178 L530.232 216.178 L530.232 212.242 Q528.774 214.603 526.598 215.738 Q524.422 216.849 521.274 216.849 Q517.292 216.849 514.931 214.627 Q512.593 212.381 512.593 208.631 Q512.593 204.256 515.51 202.034 Q518.45 199.812 524.26 199.812 L530.232 199.812 L530.232 199.395 Q530.232 196.455 528.288 194.858 Q526.366 193.238 522.871 193.238 Q520.649 193.238 518.542 193.77 Q516.436 194.303 514.491 195.367 L514.491 191.432 Q516.829 190.53 519.028 190.09 Q521.227 189.627 523.311 189.627 Q528.936 189.627 531.713 192.543 Q534.491 195.46 534.491 201.386 Z" fill="#000000" fill-rule="nonzero" fill-opacity="1" /><path clip-path="url(#clip450)" d="M561.922 191.247 L561.922 195.229 Q560.116 194.233 558.287 193.747 Q556.482 193.238 554.63 193.238 Q550.486 193.238 548.195 195.877 Q545.903 198.492 545.903 203.238 Q545.903 207.983 548.195 210.622 Q550.486 213.238 554.63 213.238 Q556.482 213.238 558.287 212.752 Q560.116 212.242 561.922 211.247 L561.922 215.182 Q560.139 216.016 558.218 216.432 Q556.32 216.849 554.167 216.849 Q548.311 216.849 544.862 213.168 Q541.412 209.488 541.412 203.238 Q541.412 196.895 544.885 193.261 Q548.38 189.627 554.445 189.627 Q556.412 189.627 558.287 190.043 Q560.162 190.437 561.922 191.247 Z" fill="#000000" fill-rule="nonzero" fill-opacity="1" /><path clip-path="url(#clip450)" d="M573.542 182.891 L573.542 190.252 L582.315 190.252 L582.315 193.562 L573.542 193.562 L573.542 207.636 Q573.542 210.807 574.398 211.71 Q575.278 212.613 577.94 212.613 L582.315 212.613 L582.315 216.178 L577.94 216.178 Q573.01 216.178 571.135 214.349 Q569.26 212.497 569.26 207.636 L569.26 193.562 L566.135 193.562 L566.135 190.252 L569.26 190.252 L569.26 182.891 L573.542 182.891 Z" fill="#000000" fill-rule="nonzero" fill-opacity="1" /></svg>
