<?xml version="1.0" encoding="utf-8"?>
<svg xmlns="http://www.w3.org/2000/svg" xmlns:xlink="http://www.w3.org/1999/xlink" width="600" height="400" viewBox="0 0 2400 1600">
<defs>
  <clipPath id="clip360">
    <rect x="0" y="0" width="2400" height="1600"/>
  </clipPath>
</defs>
<path clip-path="url(#clip360)" d="M0 1600 L2400 1600 L2400 0 L0 0  Z" fill="#ffffff" fill-rule="evenodd" fill-opacity="1"/>
<defs>
  <clipPath id="clip361">
    <rect x="480" y="0" width="1681" height="1600"/>
  </clipPath>
</defs>
<path clip-path="url(#clip360)" d="M223.103 1486.45 L2352.76 1486.45 L2352.76 47.2441 L223.103 47.2441  Z" fill="#ffffff" fill-rule="evenodd" fill-opacity="1"/>
<defs>
  <clipPath id="clip362">
    <rect x="223" y="47" width="2131" height="1440"/>
  </clipPath>
</defs>
<polyline clip-path="url(#clip362)" style="stroke:#000000; stroke-linecap:round; stroke-linejoin:round; stroke-width:2; stroke-opacity:0.1; fill:none" points="283.376,1486.45 283.376,47.2441 "/>
<polyline clip-path="url(#clip362)" style="stroke:#000000; stroke-linecap:round; stroke-linejoin:round; stroke-width:2; stroke-opacity:0.1; fill:none" points="785.652,1486.45 785.652,47.2441 "/>
<polyline clip-path="url(#clip362)" style="stroke:#000000; stroke-linecap:round; stroke-linejoin:round; stroke-width:2; stroke-opacity:0.1; fill:none" points="1287.93,1486.45 1287.93,47.2441 "/>
<polyline clip-path="url(#clip362)" style="stroke:#000000; stroke-linecap:round; stroke-linejoin:round; stroke-width:2; stroke-opacity:0.1; fill:none" points="1790.21,1486.45 1790.21,47.2441 "/>
<polyline clip-path="url(#clip362)" style="stroke:#000000; stroke-linecap:round; stroke-linejoin:round; stroke-width:2; stroke-opacity:0.1; fill:none" points="2292.48,1486.45 2292.48,47.2441 "/>
<polyline clip-path="url(#clip360)" style="stroke:#000000; stroke-linecap:round; stroke-linejoin:round; stroke-width:4; stroke-opacity:1; fill:none" points="223.103,1486.45 2352.76,1486.45 "/>
<polyline clip-path="url(#clip360)" style="stroke:#000000; stroke-linecap:round; stroke-linejoin:round; stroke-width:4; stroke-opacity:1; fill:none" points="283.376,1486.45 283.376,1467.55 "/>
<polyline clip-path="url(#clip360)" style="stroke:#000000; stroke-linecap:round; stroke-linejoin:round; stroke-width:4; stroke-opacity:1; fill:none" points="785.652,1486.45 785.652,1467.55 "/>
<polyline clip-path="url(#clip360)" style="stroke:#000000; stroke-linecap:round; stroke-linejoin:round; stroke-width:4; stroke-opacity:1; fill:none" points="1287.93,1486.45 1287.93,1467.55 "/>
<polyline clip-path="url(#clip360)" style="stroke:#000000; stroke-linecap:round; stroke-linejoin:round; stroke-width:4; stroke-opacity:1; fill:none" points="1790.21,1486.45 1790.21,1467.55 "/>
<polyline clip-path="url(#clip360)" style="stroke:#000000; stroke-linecap:round; stroke-linejoin:round; stroke-width:4; stroke-opacity:1; fill:none" points="2292.48,1486.45 2292.48,1467.55 "/>
<path clip-path="url(#clip360)" d="M229.904 1532.02 L259.58 1532.02 L259.58 1535.95 L229.904 1535.95 L229.904 1532.02 Z" fill="#000000" fill-rule="nonzero" fill-opacity="1" /><path clip-path="url(#clip360)" d="M270.482 1544.91 L278.121 1544.91 L278.121 1518.55 L269.811 1520.21 L269.811 1515.95 L278.075 1514.29 L282.751 1514.29 L282.751 1544.91 L290.39 1544.91 L290.39 1548.85 L270.482 1548.85 L270.482 1544.91 Z" fill="#000000" fill-rule="nonzero" fill-opacity="1" /><path clip-path="url(#clip360)" d="M299.834 1542.97 L304.718 1542.97 L304.718 1548.85 L299.834 1548.85 L299.834 1542.97 Z" fill="#000000" fill-rule="nonzero" fill-opacity="1" /><path clip-path="url(#clip360)" d="M324.903 1517.37 Q321.292 1517.37 319.463 1520.93 Q317.658 1524.47 317.658 1531.6 Q317.658 1538.71 319.463 1542.27 Q321.292 1545.82 324.903 1545.82 Q328.538 1545.82 330.343 1542.27 Q332.172 1538.71 332.172 1531.6 Q332.172 1524.47 330.343 1520.93 Q328.538 1517.37 324.903 1517.37 M324.903 1513.66 Q330.713 1513.66 333.769 1518.27 Q336.848 1522.85 336.848 1531.6 Q336.848 1540.33 333.769 1544.94 Q330.713 1549.52 324.903 1549.52 Q319.093 1549.52 316.014 1544.94 Q312.959 1540.33 312.959 1531.6 Q312.959 1522.85 316.014 1518.27 Q319.093 1513.66 324.903 1513.66 Z" fill="#000000" fill-rule="nonzero" fill-opacity="1" /><path clip-path="url(#clip360)" d="M732.678 1532.02 L762.354 1532.02 L762.354 1535.95 L732.678 1535.95 L732.678 1532.02 Z" fill="#000000" fill-rule="nonzero" fill-opacity="1" /><path clip-path="url(#clip360)" d="M782.446 1517.37 Q778.835 1517.37 777.007 1520.93 Q775.201 1524.47 775.201 1531.6 Q775.201 1538.71 777.007 1542.27 Q778.835 1545.82 782.446 1545.82 Q786.081 1545.82 787.886 1542.27 Q789.715 1538.71 789.715 1531.6 Q789.715 1524.47 787.886 1520.93 Q786.081 1517.37 782.446 1517.37 M782.446 1513.66 Q788.257 1513.66 791.312 1518.27 Q794.391 1522.85 794.391 1531.6 Q794.391 1540.33 791.312 1544.94 Q788.257 1549.52 782.446 1549.52 Q776.636 1549.52 773.558 1544.94 Q770.502 1540.33 770.502 1531.6 Q770.502 1522.85 773.558 1518.27 Q776.636 1513.66 782.446 1513.66 Z" fill="#000000" fill-rule="nonzero" fill-opacity="1" /><path clip-path="url(#clip360)" d="M802.608 1542.97 L807.493 1542.97 L807.493 1548.85 L802.608 1548.85 L802.608 1542.97 Z" fill="#000000" fill-rule="nonzero" fill-opacity="1" /><path clip-path="url(#clip360)" d="M817.724 1514.29 L836.08 1514.29 L836.08 1518.22 L822.006 1518.22 L822.006 1526.7 Q823.025 1526.35 824.043 1526.19 Q825.062 1526 826.08 1526 Q831.867 1526 835.247 1529.17 Q838.627 1532.34 838.627 1537.76 Q838.627 1543.34 835.155 1546.44 Q831.682 1549.52 825.363 1549.52 Q823.187 1549.52 820.918 1549.15 Q818.673 1548.78 816.266 1548.04 L816.266 1543.34 Q818.349 1544.47 820.571 1545.03 Q822.793 1545.58 825.27 1545.58 Q829.275 1545.58 831.613 1543.48 Q833.951 1541.37 833.951 1537.76 Q833.951 1534.15 831.613 1532.04 Q829.275 1529.94 825.27 1529.94 Q823.395 1529.94 821.52 1530.35 Q819.668 1530.77 817.724 1531.65 L817.724 1514.29 Z" fill="#000000" fill-rule="nonzero" fill-opacity="1" /><path clip-path="url(#clip360)" d="M1265.31 1517.37 Q1261.7 1517.37 1259.87 1520.93 Q1258.07 1524.47 1258.07 1531.6 Q1258.07 1538.71 1259.87 1542.27 Q1261.7 1545.82 1265.31 1545.82 Q1268.95 1545.82 1270.75 1542.27 Q1272.58 1538.71 1272.58 1531.6 Q1272.58 1524.47 1270.75 1520.93 Q1268.95 1517.37 1265.31 1517.37 M1265.31 1513.66 Q1271.12 1513.66 1274.18 1518.27 Q1277.26 1522.85 1277.26 1531.6 Q1277.26 1540.33 1274.18 1544.94 Q1271.12 1549.52 1265.31 1549.52 Q1259.5 1549.52 1256.42 1544.94 Q1253.37 1540.33 1253.37 1531.6 Q1253.37 1522.85 1256.42 1518.27 Q1259.5 1513.66 1265.31 1513.66 Z" fill="#000000" fill-rule="nonzero" fill-opacity="1" /><path clip-path="url(#clip360)" d="M1285.48 1542.97 L1290.36 1542.97 L1290.36 1548.85 L1285.48 1548.85 L1285.48 1542.97 Z" fill="#000000" fill-rule="nonzero" fill-opacity="1" /><path clip-path="url(#clip360)" d="M1310.54 1517.37 Q1306.93 1517.37 1305.11 1520.93 Q1303.3 1524.47 1303.3 1531.6 Q1303.3 1538.71 1305.11 1542.27 Q1306.93 1545.82 1310.54 1545.82 Q1314.18 1545.82 1315.98 1542.27 Q1317.81 1538.71 1317.81 1531.6 Q1317.81 1524.47 1315.98 1520.93 Q1314.18 1517.37 1310.54 1517.37 M1310.54 1513.66 Q1316.35 1513.66 1319.41 1518.27 Q1322.49 1522.85 1322.49 1531.6 Q1322.49 1540.33 1319.41 1544.94 Q1316.35 1549.52 1310.54 1549.52 Q1304.73 1549.52 1301.66 1544.94 Q1298.6 1540.33 1298.6 1531.6 Q1298.6 1522.85 1301.66 1518.27 Q1304.73 1513.66 1310.54 1513.66 Z" fill="#000000" fill-rule="nonzero" fill-opacity="1" /><path clip-path="url(#clip360)" d="M1768.09 1517.37 Q1764.48 1517.37 1762.65 1520.93 Q1760.84 1524.47 1760.84 1531.6 Q1760.84 1538.71 1762.65 1542.27 Q1764.48 1545.82 1768.09 1545.82 Q1771.72 1545.82 1773.53 1542.27 Q1775.36 1538.71 1775.36 1531.6 Q1775.36 1524.47 1773.53 1520.93 Q1771.72 1517.37 1768.09 1517.37 M1768.09 1513.66 Q1773.9 1513.66 1776.95 1518.27 Q1780.03 1522.85 1780.03 1531.6 Q1780.03 1540.33 1776.95 1544.94 Q1773.9 1549.52 1768.09 1549.52 Q1762.28 1549.52 1759.2 1544.94 Q1756.14 1540.33 1756.14 1531.6 Q1756.14 1522.85 1759.2 1518.27 Q1762.28 1513.66 1768.09 1513.66 Z" fill="#000000" fill-rule="nonzero" fill-opacity="1" /><path clip-path="url(#clip360)" d="M1788.25 1542.97 L1793.13 1542.97 L1793.13 1548.85 L1788.25 1548.85 L1788.25 1542.97 Z" fill="#000000" fill-rule="nonzero" fill-opacity="1" /><path clip-path="url(#clip360)" d="M1803.37 1514.29 L1821.72 1514.29 L1821.72 1518.22 L1807.65 1518.22 L1807.65 1526.7 Q1808.67 1526.35 1809.69 1526.19 Q1810.7 1526 1811.72 1526 Q1817.51 1526 1820.89 1529.17 Q1824.27 1532.34 1824.27 1537.76 Q1824.27 1543.34 1820.8 1546.44 Q1817.32 1549.52 1811 1549.52 Q1808.83 1549.52 1806.56 1549.15 Q1804.31 1548.78 1801.91 1548.04 L1801.91 1543.34 Q1803.99 1544.47 1806.21 1545.03 Q1808.44 1545.58 1810.91 1545.58 Q1814.92 1545.58 1817.25 1543.48 Q1819.59 1541.37 1819.59 1537.76 Q1819.59 1534.15 1817.25 1532.04 Q1814.92 1529.94 1810.91 1529.94 Q1809.04 1529.94 1807.16 1530.35 Q1805.31 1530.77 1803.37 1531.65 L1803.37 1514.29 Z" fill="#000000" fill-rule="nonzero" fill-opacity="1" /><path clip-path="url(#clip360)" d="M2259.64 1544.91 L2267.27 1544.91 L2267.27 1518.55 L2258.96 1520.21 L2258.96 1515.95 L2267.23 1514.29 L2271.9 1514.29 L2271.9 1544.91 L2279.54 1544.91 L2279.54 1548.85 L2259.64 1548.85 L2259.64 1544.91 Z" fill="#000000" fill-rule="nonzero" fill-opacity="1" /><path clip-path="url(#clip360)" d="M2288.99 1542.97 L2293.87 1542.97 L2293.87 1548.85 L2288.99 1548.85 L2288.99 1542.97 Z" fill="#000000" fill-rule="nonzero" fill-opacity="1" /><path clip-path="url(#clip360)" d="M2314.06 1517.37 Q2310.45 1517.37 2308.62 1520.93 Q2306.81 1524.47 2306.81 1531.6 Q2306.81 1538.71 2308.62 1542.27 Q2310.45 1545.82 2314.06 1545.82 Q2317.69 1545.82 2319.5 1542.27 Q2321.33 1538.71 2321.33 1531.6 Q2321.33 1524.47 2319.5 1520.93 Q2317.69 1517.37 2314.06 1517.37 M2314.06 1513.66 Q2319.87 1513.66 2322.92 1518.27 Q2326 1522.85 2326 1531.6 Q2326 1540.33 2322.92 1544.94 Q2319.87 1549.52 2314.06 1549.52 Q2308.25 1549.52 2305.17 1544.94 Q2302.11 1540.33 2302.11 1531.6 Q2302.11 1522.85 2305.17 1518.27 Q2308.25 1513.66 2314.06 1513.66 Z" fill="#000000" fill-rule="nonzero" fill-opacity="1" /><polyline clip-path="url(#clip362)" style="stroke:#000000; stroke-linecap:round; stroke-linejoin:round; stroke-width:2; stroke-opacity:0.1; fill:none" points="223.103,1326.04 2352.76,1326.04 "/>
<polyline clip-path="url(#clip362)" style="stroke:#000000; stroke-linecap:round; stroke-linejoin:round; stroke-width:2; stroke-opacity:0.1; fill:none" points="223.103,1126.56 2352.76,1126.56 "/>
<polyline clip-path="url(#clip362)" style="stroke:#000000; stroke-linecap:round; stroke-linejoin:round; stroke-width:2; stroke-opacity:0.1; fill:none" points="223.103,927.091 2352.76,927.091 "/>
<polyline clip-path="url(#clip362)" style="stroke:#000000; stroke-linecap:round; stroke-linejoin:round; stroke-width:2; stroke-opacity:0.1; fill:none" points="223.103,727.617 2352.76,727.617 "/>
<polyline clip-path="url(#clip362)" style="stroke:#000000; stroke-linecap:round; stroke-linejoin:round; stroke-width:2; stroke-opacity:0.1; fill:none" points="223.103,528.144 2352.76,528.144 "/>
<polyline clip-path="url(#clip362)" style="stroke:#000000; stroke-linecap:round; stroke-linejoin:round; stroke-width:2; stroke-opacity:0.1; fill:none" points="223.103,328.671 2352.76,328.671 "/>
<polyline clip-path="url(#clip362)" style="stroke:#000000; stroke-linecap:round; stroke-linejoin:round; stroke-width:2; stroke-opacity:0.1; fill:none" points="223.103,129.197 2352.76,129.197 "/>
<polyline clip-path="url(#clip360)" style="stroke:#000000; stroke-linecap:round; stroke-linejoin:round; stroke-width:4; stroke-opacity:1; fill:none" points="223.103,1486.45 223.103,47.2441 "/>
<polyline clip-path="url(#clip360)" style="stroke:#000000; stroke-linecap:round; stroke-linejoin:round; stroke-width:4; stroke-opacity:1; fill:none" points="223.103,1326.04 242,1326.04 "/>
<polyline clip-path="url(#clip360)" style="stroke:#000000; stroke-linecap:round; stroke-linejoin:round; stroke-width:4; stroke-opacity:1; fill:none" points="223.103,1126.56 242,1126.56 "/>
<polyline clip-path="url(#clip360)" style="stroke:#000000; stroke-linecap:round; stroke-linejoin:round; stroke-width:4; stroke-opacity:1; fill:none" points="223.103,927.091 242,927.091 "/>
<polyline clip-path="url(#clip360)" style="stroke:#000000; stroke-linecap:round; stroke-linejoin:round; stroke-width:4; stroke-opacity:1; fill:none" points="223.103,727.617 242,727.617 "/>
<polyline clip-path="url(#clip360)" style="stroke:#000000; stroke-linecap:round; stroke-linejoin:round; stroke-width:4; stroke-opacity:1; fill:none" points="223.103,528.144 242,528.144 "/>
<polyline clip-path="url(#clip360)" style="stroke:#000000; stroke-linecap:round; stroke-linejoin:round; stroke-width:4; stroke-opacity:1; fill:none" points="223.103,328.671 242,328.671 "/>
<polyline clip-path="url(#clip360)" style="stroke:#000000; stroke-linecap:round; stroke-linejoin:round; stroke-width:4; stroke-opacity:1; fill:none" points="223.103,129.197 242,129.197 "/>
<path clip-path="url(#clip360)" d="M50.9921 1326.49 L80.6679 1326.49 L80.6679 1330.42 L50.9921 1330.42 L50.9921 1326.49 Z" fill="#000000" fill-rule="nonzero" fill-opacity="1" /><path clip-path="url(#clip360)" d="M100.76 1311.84 Q97.1493 1311.84 95.3206 1315.4 Q93.515 1318.94 93.515 1326.07 Q93.515 1333.18 95.3206 1336.74 Q97.1493 1340.29 100.76 1340.29 Q104.395 1340.29 106.2 1336.74 Q108.029 1333.18 108.029 1326.07 Q108.029 1318.94 106.2 1315.4 Q104.395 1311.84 100.76 1311.84 M100.76 1308.13 Q106.571 1308.13 109.626 1312.74 Q112.705 1317.32 112.705 1326.07 Q112.705 1334.8 109.626 1339.41 Q106.571 1343.99 100.76 1343.99 Q94.9502 1343.99 91.8715 1339.41 Q88.816 1334.8 88.816 1326.07 Q88.816 1317.32 91.8715 1312.74 Q94.9502 1308.13 100.76 1308.13 Z" fill="#000000" fill-rule="nonzero" fill-opacity="1" /><path clip-path="url(#clip360)" d="M120.922 1337.44 L125.807 1337.44 L125.807 1343.32 L120.922 1343.32 L120.922 1337.44 Z" fill="#000000" fill-rule="nonzero" fill-opacity="1" /><path clip-path="url(#clip360)" d="M140.019 1339.38 L156.339 1339.38 L156.339 1343.32 L134.394 1343.32 L134.394 1339.38 Q137.056 1336.63 141.64 1332 Q146.246 1327.35 147.427 1326 Q149.672 1323.48 150.552 1321.74 Q151.455 1319.98 151.455 1318.29 Q151.455 1315.54 149.51 1313.8 Q147.589 1312.07 144.487 1312.07 Q142.288 1312.07 139.834 1312.83 Q137.404 1313.6 134.626 1315.15 L134.626 1310.42 Q137.45 1309.29 139.904 1308.71 Q142.357 1308.13 144.394 1308.13 Q149.765 1308.13 152.959 1310.82 Q156.154 1313.5 156.154 1317.99 Q156.154 1320.12 155.343 1322.04 Q154.556 1323.94 152.45 1326.54 Q151.871 1327.21 148.769 1330.42 Q145.668 1333.62 140.019 1339.38 Z" fill="#000000" fill-rule="nonzero" fill-opacity="1" /><path clip-path="url(#clip360)" d="M166.2 1308.76 L184.556 1308.76 L184.556 1312.69 L170.482 1312.69 L170.482 1321.16 Q171.501 1320.82 172.519 1320.66 Q173.538 1320.47 174.556 1320.47 Q180.343 1320.47 183.723 1323.64 Q187.103 1326.81 187.103 1332.23 Q187.103 1337.81 183.63 1340.91 Q180.158 1343.99 173.839 1343.99 Q171.663 1343.99 169.394 1343.62 Q167.149 1343.25 164.742 1342.51 L164.742 1337.81 Q166.825 1338.94 169.047 1339.5 Q171.269 1340.05 173.746 1340.05 Q177.751 1340.05 180.089 1337.95 Q182.427 1335.84 182.427 1332.23 Q182.427 1328.62 180.089 1326.51 Q177.751 1324.41 173.746 1324.41 Q171.871 1324.41 169.996 1324.82 Q168.144 1325.24 166.2 1326.12 L166.2 1308.76 Z" fill="#000000" fill-rule="nonzero" fill-opacity="1" /><path clip-path="url(#clip360)" d="M99.765 1112.36 Q96.1539 1112.36 94.3252 1115.93 Q92.5197 1119.47 92.5197 1126.6 Q92.5197 1133.71 94.3252 1137.27 Q96.1539 1140.81 99.765 1140.81 Q103.399 1140.81 105.205 1137.27 Q107.033 1133.71 107.033 1126.6 Q107.033 1119.47 105.205 1115.93 Q103.399 1112.36 99.765 1112.36 M99.765 1108.66 Q105.575 1108.66 108.631 1113.27 Q111.709 1117.85 111.709 1126.6 Q111.709 1135.33 108.631 1139.93 Q105.575 1144.52 99.765 1144.52 Q93.9549 1144.52 90.8762 1139.93 Q87.8206 1135.33 87.8206 1126.6 Q87.8206 1117.85 90.8762 1113.27 Q93.9549 1108.66 99.765 1108.66 Z" fill="#000000" fill-rule="nonzero" fill-opacity="1" /><path clip-path="url(#clip360)" d="M119.927 1137.96 L124.811 1137.96 L124.811 1143.84 L119.927 1143.84 L119.927 1137.96 Z" fill="#000000" fill-rule="nonzero" fill-opacity="1" /><path clip-path="url(#clip360)" d="M144.996 1112.36 Q141.385 1112.36 139.556 1115.93 Q137.751 1119.47 137.751 1126.6 Q137.751 1133.71 139.556 1137.27 Q141.385 1140.81 144.996 1140.81 Q148.63 1140.81 150.436 1137.27 Q152.265 1133.71 152.265 1126.6 Q152.265 1119.47 150.436 1115.93 Q148.63 1112.36 144.996 1112.36 M144.996 1108.66 Q150.806 1108.66 153.862 1113.27 Q156.941 1117.85 156.941 1126.6 Q156.941 1135.33 153.862 1139.93 Q150.806 1144.52 144.996 1144.52 Q139.186 1144.52 136.107 1139.93 Q133.052 1135.33 133.052 1126.6 Q133.052 1117.85 136.107 1113.27 Q139.186 1108.66 144.996 1108.66 Z" fill="#000000" fill-rule="nonzero" fill-opacity="1" /><path clip-path="url(#clip360)" d="M175.158 1112.36 Q171.547 1112.36 169.718 1115.93 Q167.913 1119.47 167.913 1126.6 Q167.913 1133.71 169.718 1137.27 Q171.547 1140.81 175.158 1140.81 Q178.792 1140.81 180.598 1137.27 Q182.427 1133.71 182.427 1126.6 Q182.427 1119.47 180.598 1115.93 Q178.792 1112.36 175.158 1112.36 M175.158 1108.66 Q180.968 1108.66 184.024 1113.27 Q187.103 1117.85 187.103 1126.6 Q187.103 1135.33 184.024 1139.93 Q180.968 1144.52 175.158 1144.52 Q169.348 1144.52 166.269 1139.93 Q163.214 1135.33 163.214 1126.6 Q163.214 1117.85 166.269 1113.27 Q169.348 1108.66 175.158 1108.66 Z" fill="#000000" fill-rule="nonzero" fill-opacity="1" /><path clip-path="url(#clip360)" d="M100.76 912.889 Q97.1493 912.889 95.3206 916.454 Q93.515 919.996 93.515 927.126 Q93.515 934.232 95.3206 937.797 Q97.1493 941.338 100.76 941.338 Q104.395 941.338 106.2 937.797 Q108.029 934.232 108.029 927.126 Q108.029 919.996 106.2 916.454 Q104.395 912.889 100.76 912.889 M100.76 909.186 Q106.571 909.186 109.626 913.792 Q112.705 918.376 112.705 927.126 Q112.705 935.852 109.626 940.459 Q106.571 945.042 100.76 945.042 Q94.9502 945.042 91.8715 940.459 Q88.816 935.852 88.816 927.126 Q88.816 918.376 91.8715 913.792 Q94.9502 909.186 100.76 909.186 Z" fill="#000000" fill-rule="nonzero" fill-opacity="1" /><path clip-path="url(#clip360)" d="M120.922 938.491 L125.807 938.491 L125.807 944.371 L120.922 944.371 L120.922 938.491 Z" fill="#000000" fill-rule="nonzero" fill-opacity="1" /><path clip-path="url(#clip360)" d="M140.019 940.436 L156.339 940.436 L156.339 944.371 L134.394 944.371 L134.394 940.436 Q137.056 937.681 141.64 933.051 Q146.246 928.399 147.427 927.056 Q149.672 924.533 150.552 922.797 Q151.455 921.038 151.455 919.348 Q151.455 916.593 149.51 914.857 Q147.589 913.121 144.487 913.121 Q142.288 913.121 139.834 913.885 Q137.404 914.649 134.626 916.2 L134.626 911.477 Q137.45 910.343 139.904 909.765 Q142.357 909.186 144.394 909.186 Q149.765 909.186 152.959 911.871 Q156.154 914.556 156.154 919.047 Q156.154 921.176 155.343 923.098 Q154.556 924.996 152.45 927.588 Q151.871 928.26 148.769 931.477 Q145.668 934.672 140.019 940.436 Z" fill="#000000" fill-rule="nonzero" fill-opacity="1" /><path clip-path="url(#clip360)" d="M166.2 909.811 L184.556 909.811 L184.556 913.746 L170.482 913.746 L170.482 922.218 Q171.501 921.871 172.519 921.709 Q173.538 921.524 174.556 921.524 Q180.343 921.524 183.723 924.695 Q187.103 927.866 187.103 933.283 Q187.103 938.862 183.63 941.963 Q180.158 945.042 173.839 945.042 Q171.663 945.042 169.394 944.672 Q167.149 944.301 164.742 943.561 L164.742 938.862 Q166.825 939.996 169.047 940.551 Q171.269 941.107 173.746 941.107 Q177.751 941.107 180.089 939 Q182.427 936.894 182.427 933.283 Q182.427 929.672 180.089 927.565 Q177.751 925.459 173.746 925.459 Q171.871 925.459 169.996 925.876 Q168.144 926.292 166.2 927.172 L166.2 909.811 Z" fill="#000000" fill-rule="nonzero" fill-opacity="1" /><path clip-path="url(#clip360)" d="M99.765 713.416 Q96.1539 713.416 94.3252 716.981 Q92.5197 720.523 92.5197 727.652 Q92.5197 734.759 94.3252 738.323 Q96.1539 741.865 99.765 741.865 Q103.399 741.865 105.205 738.323 Q107.033 734.759 107.033 727.652 Q107.033 720.523 105.205 716.981 Q103.399 713.416 99.765 713.416 M99.765 709.712 Q105.575 709.712 108.631 714.319 Q111.709 718.902 111.709 727.652 Q111.709 736.379 108.631 740.985 Q105.575 745.569 99.765 745.569 Q93.9549 745.569 90.8762 740.985 Q87.8206 736.379 87.8206 727.652 Q87.8206 718.902 90.8762 714.319 Q93.9549 709.712 99.765 709.712 Z" fill="#000000" fill-rule="nonzero" fill-opacity="1" /><path clip-path="url(#clip360)" d="M119.927 739.018 L124.811 739.018 L124.811 744.897 L119.927 744.897 L119.927 739.018 Z" fill="#000000" fill-rule="nonzero" fill-opacity="1" /><path clip-path="url(#clip360)" d="M135.043 710.337 L153.399 710.337 L153.399 714.273 L139.325 714.273 L139.325 722.745 Q140.343 722.398 141.362 722.236 Q142.381 722.05 143.399 722.05 Q149.186 722.05 152.566 725.222 Q155.945 728.393 155.945 733.81 Q155.945 739.388 152.473 742.49 Q149.001 745.569 142.681 745.569 Q140.506 745.569 138.237 745.198 Q135.992 744.828 133.584 744.087 L133.584 739.388 Q135.668 740.522 137.89 741.078 Q140.112 741.634 142.589 741.634 Q146.593 741.634 148.931 739.527 Q151.269 737.421 151.269 733.81 Q151.269 730.198 148.931 728.092 Q146.593 725.986 142.589 725.986 Q140.714 725.986 138.839 726.402 Q136.987 726.819 135.043 727.698 L135.043 710.337 Z" fill="#000000" fill-rule="nonzero" fill-opacity="1" /><path clip-path="url(#clip360)" d="M175.158 713.416 Q171.547 713.416 169.718 716.981 Q167.913 720.523 167.913 727.652 Q167.913 734.759 169.718 738.323 Q171.547 741.865 175.158 741.865 Q178.792 741.865 180.598 738.323 Q182.427 734.759 182.427 727.652 Q182.427 720.523 180.598 716.981 Q178.792 713.416 175.158 713.416 M175.158 709.712 Q180.968 709.712 184.024 714.319 Q187.103 718.902 187.103 727.652 Q187.103 736.379 184.024 740.985 Q180.968 745.569 175.158 745.569 Q169.348 745.569 166.269 740.985 Q163.214 736.379 163.214 727.652 Q163.214 718.902 166.269 714.319 Q169.348 709.712 175.158 709.712 Z" fill="#000000" fill-rule="nonzero" fill-opacity="1" /><path clip-path="url(#clip360)" d="M100.76 513.943 Q97.1493 513.943 95.3206 517.508 Q93.515 521.049 93.515 528.179 Q93.515 535.285 95.3206 538.85 Q97.1493 542.392 100.76 542.392 Q104.395 542.392 106.2 538.85 Q108.029 535.285 108.029 528.179 Q108.029 521.049 106.2 517.508 Q104.395 513.943 100.76 513.943 M100.76 510.239 Q106.571 510.239 109.626 514.846 Q112.705 519.429 112.705 528.179 Q112.705 536.906 109.626 541.512 Q106.571 546.095 100.76 546.095 Q94.9502 546.095 91.8715 541.512 Q88.816 536.906 88.816 528.179 Q88.816 519.429 91.8715 514.846 Q94.9502 510.239 100.76 510.239 Z" fill="#000000" fill-rule="nonzero" fill-opacity="1" /><path clip-path="url(#clip360)" d="M120.922 539.545 L125.807 539.545 L125.807 545.424 L120.922 545.424 L120.922 539.545 Z" fill="#000000" fill-rule="nonzero" fill-opacity="1" /><path clip-path="url(#clip360)" d="M134.811 510.864 L157.033 510.864 L157.033 512.855 L144.487 545.424 L139.603 545.424 L151.408 514.799 L134.811 514.799 L134.811 510.864 Z" fill="#000000" fill-rule="nonzero" fill-opacity="1" /><path clip-path="url(#clip360)" d="M166.2 510.864 L184.556 510.864 L184.556 514.799 L170.482 514.799 L170.482 523.271 Q171.501 522.924 172.519 522.762 Q173.538 522.577 174.556 522.577 Q180.343 522.577 183.723 525.748 Q187.103 528.92 187.103 534.336 Q187.103 539.915 183.63 543.017 Q180.158 546.095 173.839 546.095 Q171.663 546.095 169.394 545.725 Q167.149 545.355 164.742 544.614 L164.742 539.915 Q166.825 541.049 169.047 541.605 Q171.269 542.16 173.746 542.16 Q177.751 542.16 180.089 540.054 Q182.427 537.947 182.427 534.336 Q182.427 530.725 180.089 528.619 Q177.751 526.512 173.746 526.512 Q171.871 526.512 169.996 526.929 Q168.144 527.345 166.2 528.225 L166.2 510.864 Z" fill="#000000" fill-rule="nonzero" fill-opacity="1" /><path clip-path="url(#clip360)" d="M90.5752 342.016 L98.2141 342.016 L98.2141 315.65 L89.904 317.317 L89.904 313.057 L98.1678 311.391 L102.844 311.391 L102.844 342.016 L110.483 342.016 L110.483 345.951 L90.5752 345.951 L90.5752 342.016 Z" fill="#000000" fill-rule="nonzero" fill-opacity="1" /><path clip-path="url(#clip360)" d="M119.927 340.071 L124.811 340.071 L124.811 345.951 L119.927 345.951 L119.927 340.071 Z" fill="#000000" fill-rule="nonzero" fill-opacity="1" /><path clip-path="url(#clip360)" d="M144.996 314.469 Q141.385 314.469 139.556 318.034 Q137.751 321.576 137.751 328.705 Q137.751 335.812 139.556 339.377 Q141.385 342.918 144.996 342.918 Q148.63 342.918 150.436 339.377 Q152.265 335.812 152.265 328.705 Q152.265 321.576 150.436 318.034 Q148.63 314.469 144.996 314.469 M144.996 310.766 Q150.806 310.766 153.862 315.372 Q156.941 319.956 156.941 328.705 Q156.941 337.432 153.862 342.039 Q150.806 346.622 144.996 346.622 Q139.186 346.622 136.107 342.039 Q133.052 337.432 133.052 328.705 Q133.052 319.956 136.107 315.372 Q139.186 310.766 144.996 310.766 Z" fill="#000000" fill-rule="nonzero" fill-opacity="1" /><path clip-path="url(#clip360)" d="M175.158 314.469 Q171.547 314.469 169.718 318.034 Q167.913 321.576 167.913 328.705 Q167.913 335.812 169.718 339.377 Q171.547 342.918 175.158 342.918 Q178.792 342.918 180.598 339.377 Q182.427 335.812 182.427 328.705 Q182.427 321.576 180.598 318.034 Q178.792 314.469 175.158 314.469 M175.158 310.766 Q180.968 310.766 184.024 315.372 Q187.103 319.956 187.103 328.705 Q187.103 337.432 184.024 342.039 Q180.968 346.622 175.158 346.622 Q169.348 346.622 166.269 342.039 Q163.214 337.432 163.214 328.705 Q163.214 319.956 166.269 315.372 Q169.348 310.766 175.158 310.766 Z" fill="#000000" fill-rule="nonzero" fill-opacity="1" /><path clip-path="url(#clip360)" d="M91.5706 142.542 L99.2095 142.542 L99.2095 116.177 L90.8993 117.843 L90.8993 113.584 L99.1632 111.917 L103.839 111.917 L103.839 142.542 L111.478 142.542 L111.478 146.477 L91.5706 146.477 L91.5706 142.542 Z" fill="#000000" fill-rule="nonzero" fill-opacity="1" /><path clip-path="url(#clip360)" d="M120.922 140.598 L125.807 140.598 L125.807 146.477 L120.922 146.477 L120.922 140.598 Z" fill="#000000" fill-rule="nonzero" fill-opacity="1" /><path clip-path="url(#clip360)" d="M140.019 142.542 L156.339 142.542 L156.339 146.477 L134.394 146.477 L134.394 142.542 Q137.056 139.788 141.64 135.158 Q146.246 130.505 147.427 129.163 Q149.672 126.64 150.552 124.903 Q151.455 123.144 151.455 121.454 Q151.455 118.7 149.51 116.964 Q147.589 115.228 144.487 115.228 Q142.288 115.228 139.834 115.991 Q137.404 116.755 134.626 118.306 L134.626 113.584 Q137.45 112.45 139.904 111.871 Q142.357 111.292 144.394 111.292 Q149.765 111.292 152.959 113.978 Q156.154 116.663 156.154 121.153 Q156.154 123.283 155.343 125.204 Q154.556 127.103 152.45 129.695 Q151.871 130.366 148.769 133.584 Q145.668 136.778 140.019 142.542 Z" fill="#000000" fill-rule="nonzero" fill-opacity="1" /><path clip-path="url(#clip360)" d="M166.2 111.917 L184.556 111.917 L184.556 115.853 L170.482 115.853 L170.482 124.325 Q171.501 123.978 172.519 123.815 Q173.538 123.63 174.556 123.63 Q180.343 123.63 183.723 126.802 Q187.103 129.973 187.103 135.389 Q187.103 140.968 183.63 144.07 Q180.158 147.149 173.839 147.149 Q171.663 147.149 169.394 146.778 Q167.149 146.408 164.742 145.667 L164.742 140.968 Q166.825 142.102 169.047 142.658 Q171.269 143.214 173.746 143.214 Q177.751 143.214 180.089 141.107 Q182.427 139.001 182.427 135.389 Q182.427 131.778 180.089 129.672 Q177.751 127.565 173.746 127.565 Q171.871 127.565 169.996 127.982 Q168.144 128.399 166.2 129.278 L166.2 111.917 Z" fill="#000000" fill-rule="nonzero" fill-opacity="1" /><polyline clip-path="url(#clip362)" style="stroke:#009af9; stroke-linecap:round; stroke-linejoin:round; stroke-width:16; stroke-opacity:1; fill:none" stroke-dasharray="8, 16" points="283.376,1006.72 293.472,1003.87 303.568,985.23 313.664,971.123 323.76,967.049 333.856,974.277 343.952,1002.35 354.048,1021.4 364.144,1011.55 374.24,1003.26 384.336,1027.67 394.432,1076.26 404.528,1110.1 414.624,1113.03 424.72,1125.28 434.816,1185.9 444.912,1224.5 455.008,1201.33 465.104,1184.36 475.2,1214.8 485.296,1269.77 495.392,1296.11 505.488,1263.44 515.584,1214.34 525.68,1233.24 535.776,1329.26 545.872,1404.6 555.968,1361.71 566.064,1233.62 576.16,1090.67 586.256,974.197 596.352,964.744 606.448,1035.7 616.544,1058.52 626.64,1006.16 636.736,966.824 646.832,986.412 656.928,954.967 667.024,886.723 677.12,859.223 687.216,907.714 697.312,1025.18 707.408,1125.77 717.504,1157.39 727.6,1113.29 737.696,1017.53 747.792,930.865 757.888,931.236 767.984,1067.5 778.08,1174.89 788.176,1087.92 798.272,1008.11 808.369,1110.85 818.465,1293.4 828.561,1408.17 838.657,1439.43 848.753,1393.07 858.849,1263.63 868.945,1142.55 879.041,1113.7 889.137,1164.48 899.233,1234.54 909.329,1299.4 919.425,1328.12 929.521,1256.26 939.617,1117.89 949.713,1028.99 959.809,993.751 969.905,996.28 980.001,1014.27 990.097,1043.37 1000.19,1086.64 1010.29,1082.13 1020.38,981.091 1030.48,837.038 1040.58,702.172 1050.67,737.041 1060.77,964.658 1070.86,1132 1080.96,1165.8 1091.06,1143.24 1101.15,1107.8 1111.25,1085.13 1121.34,1098.32 1131.44,1132.7 1141.54,1185.5 1151.63,1311.82 1161.73,1445.72 1171.83,1431.48 1181.92,1317.88 1192.02,1227.82 1202.11,1194.03 1212.21,1202.27 1222.31,1243.34 1232.4,1311.61 1242.5,1373.17 1252.59,1369.53 1262.69,1270.86 1272.79,1032.62 1282.88,640.209 1292.98,509.451 1303.07,376.354 1313.17,302.261 1323.27,269.556 1333.36,271.624 1343.46,313.554 1353.55,361.141 1363.65,391.163 1373.75,397.354 1383.84,364.699 1393.94,271.294 1404.03,133.989 1414.13,87.9763 1424.23,219.288 1434.32,352.776 1444.42,406.948 1454.51,430.843 1464.61,418.099 1474.71,346.772 1484.8,241.979 1494.9,163.179 1504.99,171.621 1515.09,311.827 1525.19,511.011 1535.28,547.099 1545.38,438.867 1555.47,330.633 1565.57,258.514 1575.67,262.292 1585.76,320.448 1595.86,380.67 1605.95,420.937 1616.05,420.879 1626.15,361.202 1636.24,248.9 1646.34,126.483 1656.43,112.454 1666.53,214.112 1676.63,361.522 1686.72,523.333 1696.82,616.485 1706.91,551.098 1717.01,393.077 1727.11,256.677 1737.2,181.099 1747.3,149.814 1757.39,195.524 1767.49,338.639 1777.59,435.909 1787.68,387.825 1797.78,386.556 1807.87,558.072 1817.97,682.116 1828.07,609.514 1838.16,409.206 1848.26,227.837 1858.35,161.541 1868.45,153.876 1878.55,175.489 1888.64,287.866 1898.74,431.693 1908.83,499.093 1918.93,486.889 1929.03,444.754 1939.12,401.506 1949.22,342.541 1959.31,297.207 1969.41,293.813 1979.51,307.668 1989.6,285.304 1999.7,237.157 2009.79,210.752 2019.89,215.302 2029.99,292.833 2040.08,436.939 2050.18,529.161 2060.27,489.174 2070.37,365.853 2080.47,260.564 2090.56,220.744 2100.66,227.658 2110.75,240.092 2120.85,242.7 2130.95,267.857 2141.04,366.957 2151.14,497.701 2161.23,551.44 2171.33,521.622 2181.43,447.46 2191.52,352.72 2201.62,246.31 2211.71,146.33 2221.81,100.087 2231.91,144.224 2242,236.156 2252.1,324.872 2262.19,424.448 2272.29,518.212 2282.39,550.714 2292.48,527.181 "/>
<polyline clip-path="url(#clip362)" style="stroke:#e26f46; stroke-linecap:round; stroke-linejoin:round; stroke-width:4; stroke-opacity:1; fill:none" points="283.376,1006.72 293.472,989.72 303.568,977.183 313.664,969.522 323.76,966.986 333.856,969.658 343.952,977.452 354.048,990.112 364.144,1007.23 374.24,1028.23 384.336,1052.45 394.432,1079.09 404.528,1107.27 414.624,1136.09 424.72,1164.59 434.816,1191.86 444.912,1216.99 455.008,1239.17 465.104,1257.68 475.2,1271.9 485.296,1281.39 495.392,1285.82 505.488,1285.05 515.584,1279.11 525.68,1268.19 535.776,1252.65 545.872,1233 555.968,1209.87 566.064,1184.02 576.16,1156.29 586.256,1127.6 596.352,1098.87 606.448,1071.05 616.544,1045.04 626.64,1021.69 636.736,1001.76 646.832,985.903 656.928,974.639 667.024,968.333 677.12,967.192 687.216,971.252 697.312,980.381 707.408,994.281 717.504,1012.5 727.6,1034.44 737.696,1059.39 747.792,1086.53 757.888,1114.97 767.984,1143.8 778.08,1172.06 788.176,1198.84 798.272,1223.25 808.369,1244.52 818.465,1261.93 828.561,1274.93 838.657,1283.08 848.753,1286.12 858.849,1283.96 868.945,1276.66 879.041,1264.46 889.137,1247.76 899.233,1227.11 909.329,1203.17 919.425,1176.74 929.521,1148.66 939.617,1119.87 949.713,1091.29 959.809,1063.86 969.905,1038.49 980.001,1015.98 990.097,997.086 1000.19,982.416 1010.29,972.451 1020.38,967.516 1030.48,967.772 1040.58,973.21 1050.67,983.654 1060.77,998.761 1070.86,1018.04 1080.96,1040.86 1091.06,1066.48 1101.15,1094.06 1111.25,1122.7 1121.34,1151.46 1131.44,1179.42 1141.54,1205.64 1151.63,1229.29 1161.73,1249.59 1171.83,1265.87 1181.92,1277.6 1192.02,1284.4 1202.11,1286.06 1212.21,1282.5 1222.31,1273.86 1232.4,1260.41 1242.5,1242.59 1252.59,1220.99 1262.69,1196.3 1272.79,1169.34 1282.88,1140.98 1292.98,327.512 1303.07,326.193 1313.17,327.393 1323.27,331.389 1333.36,336.955 1343.46,341.74 1353.55,343.157 1363.65,339.475 1373.75,330.698 1383.84,318.866 1393.94,307.607 1404.03,301.029 1414.13,302.291 1424.23,312.327 1434.32,329.207 1444.42,348.417 1454.51,364.061 1464.61,370.659 1474.71,365.011 1484.8,347.484 1494.9,322.275 1504.99,296.44 1515.09,277.923 1525.19,273.126 1535.28,284.755 1545.38,310.661 1555.47,344.118 1565.57,375.547 1575.67,395.258 1585.76,396.426 1595.86,377.382 1605.95,342.482 1616.05,301.17 1626.15,265.434 1636.24,246.331 1646.34,250.579 1656.43,278.274 1666.53,322.488 1676.63,370.957 1686.72,409.485 1696.82,426.096 1706.91,414.737 1717.01,377.385 1727.11,323.848 1737.2,269.216 1747.3,229.603 1757.39,217.403 1767.49,237.436 1777.59,285.184 1787.68,347.735 1797.78,407.26 1807.87,446.095 1817.97,451.978 1828.07,421.886 1838.16,363.294 1848.26,292.354 1858.35,229.46 1868.45,193.378 1878.55,195.659 1888.64,236.977 1898.74,306.554 1908.83,384.942 1918.93,449.458 1929.03,480.741 1939.12,468.559 1949.22,415.101 1959.31,334.727 1969.41,250.129 1979.51,185.927 1989.6,161.506 1999.7,185.172 2009.79,251.402 2019.89,342.057 2029.99,431.343 2040.08,493.146 2050.18,508.669 2060.27,472.132 2070.37,392.811 2080.47,292.724 2090.56,200.528 2100.66,143.313 2110.75,138.645 2120.85,189.2 2130.95,281.603 2141.04,389.948 2151.14,483.053 2161.23,533.434 2171.33,525.412 2181.43,459.968 2191.52,354.835 2201.62,239.717 2211.71,147.894 2221.81,106.605 2231.91,128.973 2242,209.873 2252.1,327.032 2262.19,447.146 2272.29,535.351 2282.39,565.334 2292.48,527.181 "/>
<path clip-path="url(#clip360)" d="M294.091 250.738 L733.884 250.738 L733.884 95.2176 L294.091 95.2176  Z" fill="#ffffff" fill-rule="evenodd" fill-opacity="1"/>
<polyline clip-path="url(#clip360)" style="stroke:#000000; stroke-linecap:round; stroke-linejoin:round; stroke-width:4; stroke-opacity:1; fill:none" points="294.091,250.738 733.884,250.738 733.884,95.2176 294.091,95.2176 294.091,250.738 "/>
<polyline clip-path="url(#clip360)" style="stroke:#009af9; stroke-linecap:round; stroke-linejoin:round; stroke-width:16; stroke-opacity:1; fill:none" stroke-dasharray="8, 16" points="317.754,147.058 459.731,147.058 "/>
<path clip-path="url(#clip360)" d="M488.069 133.62 L488.069 146.606 L493.949 146.606 Q497.213 146.606 498.995 144.916 Q500.778 143.227 500.778 140.102 Q500.778 137 498.995 135.31 Q497.213 133.62 493.949 133.62 L488.069 133.62 M483.393 129.778 L493.949 129.778 Q499.759 129.778 502.722 132.416 Q505.708 135.032 505.708 140.102 Q505.708 145.217 502.722 147.833 Q499.759 150.449 493.949 150.449 L488.069 150.449 L488.069 164.338 L483.393 164.338 L483.393 129.778 Z" fill="#000000" fill-rule="nonzero" fill-opacity="1" /><path clip-path="url(#clip360)" d="M525.986 142.393 Q525.268 141.977 524.412 141.791 Q523.578 141.583 522.56 141.583 Q518.949 141.583 517.004 143.944 Q515.083 146.282 515.083 150.68 L515.083 164.338 L510.801 164.338 L510.801 138.412 L515.083 138.412 L515.083 142.44 Q516.426 140.078 518.578 138.944 Q520.731 137.787 523.81 137.787 Q524.25 137.787 524.782 137.856 Q525.315 137.903 525.963 138.018 L525.986 142.393 Z" fill="#000000" fill-rule="nonzero" fill-opacity="1" /><path clip-path="url(#clip360)" d="M551.588 150.31 L551.588 152.393 L532.004 152.393 Q532.282 156.791 534.643 159.106 Q537.027 161.398 541.264 161.398 Q543.717 161.398 546.009 160.796 Q548.324 160.194 550.592 158.99 L550.592 163.018 Q548.301 163.99 545.893 164.5 Q543.486 165.009 541.009 165.009 Q534.805 165.009 531.171 161.398 Q527.56 157.787 527.56 151.629 Q527.56 145.264 530.986 141.537 Q534.435 137.787 540.268 137.787 Q545.5 137.787 548.532 141.166 Q551.588 144.523 551.588 150.31 M547.328 149.06 Q547.282 145.565 545.361 143.481 Q543.463 141.398 540.314 141.398 Q536.75 141.398 534.597 143.412 Q532.467 145.426 532.143 149.083 L547.328 149.06 Z" fill="#000000" fill-rule="nonzero" fill-opacity="1" /><path clip-path="url(#clip360)" d="M575.638 142.347 L575.638 128.319 L579.898 128.319 L579.898 164.338 L575.638 164.338 L575.638 160.449 Q574.296 162.763 572.236 163.898 Q570.199 165.009 567.328 165.009 Q562.629 165.009 559.666 161.259 Q556.726 157.509 556.726 151.398 Q556.726 145.287 559.666 141.537 Q562.629 137.787 567.328 137.787 Q570.199 137.787 572.236 138.921 Q574.296 140.032 575.638 142.347 M561.125 151.398 Q561.125 156.097 563.046 158.782 Q564.99 161.444 568.37 161.444 Q571.749 161.444 573.694 158.782 Q575.638 156.097 575.638 151.398 Q575.638 146.699 573.694 144.037 Q571.749 141.352 568.37 141.352 Q564.99 141.352 563.046 144.037 Q561.125 146.699 561.125 151.398 Z" fill="#000000" fill-rule="nonzero" fill-opacity="1" /><path clip-path="url(#clip360)" d="M588.671 138.412 L592.93 138.412 L592.93 164.338 L588.671 164.338 L588.671 138.412 M588.671 128.319 L592.93 128.319 L592.93 133.713 L588.671 133.713 L588.671 128.319 Z" fill="#000000" fill-rule="nonzero" fill-opacity="1" /><path clip-path="url(#clip360)" d="M620.499 139.407 L620.499 143.389 Q618.694 142.393 616.865 141.907 Q615.059 141.398 613.208 141.398 Q609.064 141.398 606.772 144.037 Q604.481 146.652 604.481 151.398 Q604.481 156.143 606.772 158.782 Q609.064 161.398 613.208 161.398 Q615.059 161.398 616.865 160.912 Q618.694 160.402 620.499 159.407 L620.499 163.342 Q618.717 164.176 616.796 164.592 Q614.897 165.009 612.745 165.009 Q606.888 165.009 603.439 161.328 Q599.99 157.648 599.99 151.398 Q599.99 145.055 603.462 141.421 Q606.958 137.787 613.022 137.787 Q614.99 137.787 616.865 138.203 Q618.74 138.597 620.499 139.407 Z" fill="#000000" fill-rule="nonzero" fill-opacity="1" /><path clip-path="url(#clip360)" d="M632.12 131.051 L632.12 138.412 L640.893 138.412 L640.893 141.722 L632.12 141.722 L632.12 155.796 Q632.12 158.967 632.976 159.87 Q633.856 160.773 636.518 160.773 L640.893 160.773 L640.893 164.338 L636.518 164.338 Q631.587 164.338 629.712 162.509 Q627.837 160.657 627.837 155.796 L627.837 141.722 L624.712 141.722 L624.712 138.412 L627.837 138.412 L627.837 131.051 L632.12 131.051 Z" fill="#000000" fill-rule="nonzero" fill-opacity="1" /><path clip-path="url(#clip360)" d="M646.494 138.412 L650.754 138.412 L650.754 164.338 L646.494 164.338 L646.494 138.412 M646.494 128.319 L650.754 128.319 L650.754 133.713 L646.494 133.713 L646.494 128.319 Z" fill="#000000" fill-rule="nonzero" fill-opacity="1" /><path clip-path="url(#clip360)" d="M669.712 141.398 Q666.286 141.398 664.295 144.083 Q662.305 146.745 662.305 151.398 Q662.305 156.051 664.272 158.736 Q666.263 161.398 669.712 161.398 Q673.115 161.398 675.105 158.713 Q677.096 156.027 677.096 151.398 Q677.096 146.791 675.105 144.106 Q673.115 141.398 669.712 141.398 M669.712 137.787 Q675.267 137.787 678.439 141.398 Q681.61 145.009 681.61 151.398 Q681.61 157.764 678.439 161.398 Q675.267 165.009 669.712 165.009 Q664.133 165.009 660.962 161.398 Q657.814 157.764 657.814 151.398 Q657.814 145.009 660.962 141.398 Q664.133 137.787 669.712 137.787 Z" fill="#000000" fill-rule="nonzero" fill-opacity="1" /><path clip-path="url(#clip360)" d="M710.221 148.689 L710.221 164.338 L705.962 164.338 L705.962 148.828 Q705.962 145.148 704.527 143.319 Q703.091 141.49 700.221 141.49 Q696.772 141.49 694.781 143.69 Q692.791 145.889 692.791 149.685 L692.791 164.338 L688.508 164.338 L688.508 138.412 L692.791 138.412 L692.791 142.44 Q694.318 140.102 696.378 138.944 Q698.462 137.787 701.17 137.787 Q705.638 137.787 707.929 140.565 Q710.221 143.319 710.221 148.689 Z" fill="#000000" fill-rule="nonzero" fill-opacity="1" /><polyline clip-path="url(#clip360)" style="stroke:#e26f46; stroke-linecap:round; stroke-linejoin:round; stroke-width:4; stroke-opacity:1; fill:none" points="317.754,198.898 459.731,198.898 "/>
<path clip-path="url(#clip360)" d="M483.393 181.618 L505.245 181.618 L505.245 185.553 L488.069 185.553 L488.069 195.784 L504.528 195.784 L504.528 199.719 L488.069 199.719 L488.069 212.242 L505.662 212.242 L505.662 216.178 L483.393 216.178 L483.393 181.618 Z" fill="#000000" fill-rule="nonzero" fill-opacity="1" /><path clip-path="url(#clip360)" d="M534.713 190.252 L525.338 202.867 L535.199 216.178 L530.176 216.178 L522.629 205.992 L515.083 216.178 L510.06 216.178 L520.129 202.613 L510.916 190.252 L515.94 190.252 L522.815 199.488 L529.69 190.252 L534.713 190.252 Z" fill="#000000" fill-rule="nonzero" fill-opacity="1" /><path clip-path="url(#clip360)" d="M553 203.145 Q547.838 203.145 545.847 204.326 Q543.856 205.506 543.856 208.354 Q543.856 210.622 545.338 211.965 Q546.842 213.284 549.412 213.284 Q552.953 213.284 555.083 210.784 Q557.236 208.261 557.236 204.094 L557.236 203.145 L553 203.145 M561.495 201.386 L561.495 216.178 L557.236 216.178 L557.236 212.242 Q555.777 214.603 553.601 215.738 Q551.426 216.849 548.277 216.849 Q544.296 216.849 541.935 214.627 Q539.597 212.381 539.597 208.631 Q539.597 204.256 542.514 202.034 Q545.453 199.812 551.263 199.812 L557.236 199.812 L557.236 199.395 Q557.236 196.455 555.291 194.858 Q553.37 193.238 549.875 193.238 Q547.652 193.238 545.546 193.77 Q543.439 194.303 541.495 195.367 L541.495 191.432 Q543.833 190.53 546.032 190.09 Q548.231 189.627 550.314 189.627 Q555.939 189.627 558.717 192.543 Q561.495 195.46 561.495 201.386 Z" fill="#000000" fill-rule="nonzero" fill-opacity="1" /><path clip-path="url(#clip360)" d="M588.925 191.247 L588.925 195.229 Q587.12 194.233 585.291 193.747 Q583.486 193.238 581.634 193.238 Q577.49 193.238 575.199 195.877 Q572.907 198.492 572.907 203.238 Q572.907 207.983 575.199 210.622 Q577.49 213.238 581.634 213.238 Q583.486 213.238 585.291 212.752 Q587.12 212.242 588.925 211.247 L588.925 215.182 Q587.143 216.016 585.222 216.432 Q583.323 216.849 581.171 216.849 Q575.314 216.849 571.865 213.168 Q568.416 209.488 568.416 203.238 Q568.416 196.895 571.888 193.261 Q575.384 189.627 581.449 189.627 Q583.416 189.627 585.291 190.043 Q587.166 190.437 588.925 191.247 Z" fill="#000000" fill-rule="nonzero" fill-opacity="1" /><path clip-path="url(#clip360)" d="M600.546 182.891 L600.546 190.252 L609.319 190.252 L609.319 193.562 L600.546 193.562 L600.546 207.636 Q600.546 210.807 601.402 211.71 Q602.282 212.613 604.944 212.613 L609.319 212.613 L609.319 216.178 L604.944 216.178 Q600.013 216.178 598.138 214.349 Q596.263 212.497 596.263 207.636 L596.263 193.562 L593.138 193.562 L593.138 190.252 L596.263 190.252 L596.263 182.891 L600.546 182.891 Z" fill="#000000" fill-rule="nonzero" fill-opacity="1" /></svg>
