<?xml version="1.0" encoding="utf-8"?>
<svg xmlns="http://www.w3.org/2000/svg" xmlns:xlink="http://www.w3.org/1999/xlink" width="600" height="400" viewBox="0 0 2400 1600">
<defs>
  <clipPath id="clip420">
    <rect x="0" y="0" width="2400" height="1600"/>
  </clipPath>
</defs>
<path clip-path="url(#clip420)" d="M0 1600 L2400 1600 L2400 0 L0 0  Z" fill="#ffffff" fill-rule="evenodd" fill-opacity="1"/>
<defs>
  <clipPath id="clip421">
    <rect x="480" y="0" width="1681" height="1600"/>
  </clipPath>
</defs>
<path clip-path="url(#clip420)" d="M192.339 1486.45 L2352.76 1486.45 L2352.76 47.2441 L192.339 47.2441  Z" fill="#ffffff" fill-rule="evenodd" fill-opacity="1"/>
<defs>
  <clipPath id="clip422">
    <rect x="192" y="47" width="2161" height="1440"/>
  </clipPath>
</defs>
<polyline clip-path="url(#clip422)" style="stroke:#000000; stroke-linecap:round; stroke-linejoin:round; stroke-width:2; stroke-opacity:0.1; fill:none" points="253.483,1486.45 253.483,47.2441 "/>
<polyline clip-path="url(#clip422)" style="stroke:#000000; stroke-linecap:round; stroke-linejoin:round; stroke-width:2; stroke-opacity:0.1; fill:none" points="763.015,1486.45 763.015,47.2441 "/>
<polyline clip-path="url(#clip422)" style="stroke:#000000; stroke-linecap:round; stroke-linejoin:round; stroke-width:2; stroke-opacity:0.1; fill:none" points="1272.55,1486.45 1272.55,47.2441 "/>
<polyline clip-path="url(#clip422)" style="stroke:#000000; stroke-linecap:round; stroke-linejoin:round; stroke-width:2; stroke-opacity:0.1; fill:none" points="1782.08,1486.45 1782.08,47.2441 "/>
<polyline clip-path="url(#clip422)" style="stroke:#000000; stroke-linecap:round; stroke-linejoin:round; stroke-width:2; stroke-opacity:0.1; fill:none" points="2291.61,1486.45 2291.61,47.2441 "/>
<polyline clip-path="url(#clip420)" style="stroke:#000000; stroke-linecap:round; stroke-linejoin:round; stroke-width:4; stroke-opacity:1; fill:none" points="192.339,1486.45 2352.76,1486.45 "/>
<polyline clip-path="url(#clip420)" style="stroke:#000000; stroke-linecap:round; stroke-linejoin:round; stroke-width:4; stroke-opacity:1; fill:none" points="253.483,1486.45 253.483,1467.55 "/>
<polyline clip-path="url(#clip420)" style="stroke:#000000; stroke-linecap:round; stroke-linejoin:round; stroke-width:4; stroke-opacity:1; fill:none" points="763.015,1486.45 763.015,1467.55 "/>
<polyline clip-path="url(#clip420)" style="stroke:#000000; stroke-linecap:round; stroke-linejoin:round; stroke-width:4; stroke-opacity:1; fill:none" points="1272.55,1486.45 1272.55,1467.55 "/>
<polyline clip-path="url(#clip420)" style="stroke:#000000; stroke-linecap:round; stroke-linejoin:round; stroke-width:4; stroke-opacity:1; fill:none" points="1782.08,1486.45 1782.08,1467.55 "/>
<polyline clip-path="url(#clip420)" style="stroke:#000000; stroke-linecap:round; stroke-linejoin:round; stroke-width:4; stroke-opacity:1; fill:none" points="2291.61,1486.45 2291.61,1467.55 "/>
<path clip-path="url(#clip420)" d="M200.011 1532.02 L229.686 1532.02 L229.686 1535.95 L200.011 1535.95 L200.011 1532.02 Z" fill="#000000" fill-rule="nonzero" fill-opacity="1" /><path clip-path="url(#clip420)" d="M240.589 1544.91 L248.228 1544.91 L248.228 1518.55 L239.918 1520.21 L239.918 1515.95 L248.182 1514.29 L252.858 1514.29 L252.858 1544.91 L260.497 1544.91 L260.497 1548.85 L240.589 1548.85 L240.589 1544.91 Z" fill="#000000" fill-rule="nonzero" fill-opacity="1" /><path clip-path="url(#clip420)" d="M269.941 1542.97 L274.825 1542.97 L274.825 1548.85 L269.941 1548.85 L269.941 1542.97 Z" fill="#000000" fill-rule="nonzero" fill-opacity="1" /><path clip-path="url(#clip420)" d="M295.01 1517.37 Q291.399 1517.37 289.57 1520.93 Q287.765 1524.47 287.765 1531.6 Q287.765 1538.71 289.57 1542.27 Q291.399 1545.82 295.01 1545.82 Q298.644 1545.82 300.45 1542.27 Q302.279 1538.71 302.279 1531.6 Q302.279 1524.47 300.45 1520.93 Q298.644 1517.37 295.01 1517.37 M295.01 1513.66 Q300.82 1513.66 303.876 1518.27 Q306.955 1522.85 306.955 1531.6 Q306.955 1540.33 303.876 1544.94 Q300.82 1549.52 295.01 1549.52 Q289.2 1549.52 286.121 1544.94 Q283.066 1540.33 283.066 1531.6 Q283.066 1522.85 286.121 1518.27 Q289.2 1513.66 295.01 1513.66 Z" fill="#000000" fill-rule="nonzero" fill-opacity="1" /><path clip-path="url(#clip420)" d="M710.041 1532.02 L739.717 1532.02 L739.717 1535.95 L710.041 1535.95 L710.041 1532.02 Z" fill="#000000" fill-rule="nonzero" fill-opacity="1" /><path clip-path="url(#clip420)" d="M759.809 1517.37 Q756.198 1517.37 754.369 1520.93 Q752.564 1524.47 752.564 1531.6 Q752.564 1538.71 754.369 1542.27 Q756.198 1545.82 759.809 1545.82 Q763.443 1545.82 765.249 1542.27 Q767.077 1538.71 767.077 1531.6 Q767.077 1524.47 765.249 1520.93 Q763.443 1517.37 759.809 1517.37 M759.809 1513.66 Q765.619 1513.66 768.675 1518.27 Q771.753 1522.85 771.753 1531.6 Q771.753 1540.33 768.675 1544.94 Q765.619 1549.52 759.809 1549.52 Q753.999 1549.52 750.92 1544.94 Q747.865 1540.33 747.865 1531.6 Q747.865 1522.85 750.92 1518.27 Q753.999 1513.66 759.809 1513.66 Z" fill="#000000" fill-rule="nonzero" fill-opacity="1" /><path clip-path="url(#clip420)" d="M779.971 1542.97 L784.855 1542.97 L784.855 1548.85 L779.971 1548.85 L779.971 1542.97 Z" fill="#000000" fill-rule="nonzero" fill-opacity="1" /><path clip-path="url(#clip420)" d="M795.087 1514.29 L813.443 1514.29 L813.443 1518.22 L799.369 1518.22 L799.369 1526.7 Q800.387 1526.35 801.406 1526.19 Q802.425 1526 803.443 1526 Q809.23 1526 812.61 1529.17 Q815.989 1532.34 815.989 1537.76 Q815.989 1543.34 812.517 1546.44 Q809.045 1549.52 802.725 1549.52 Q800.55 1549.52 798.281 1549.15 Q796.036 1548.78 793.628 1548.04 L793.628 1543.34 Q795.712 1544.47 797.934 1545.03 Q800.156 1545.58 802.633 1545.58 Q806.637 1545.58 808.975 1543.48 Q811.313 1541.37 811.313 1537.76 Q811.313 1534.15 808.975 1532.04 Q806.637 1529.94 802.633 1529.94 Q800.758 1529.94 798.883 1530.35 Q797.031 1530.77 795.087 1531.65 L795.087 1514.29 Z" fill="#000000" fill-rule="nonzero" fill-opacity="1" /><path clip-path="url(#clip420)" d="M1249.93 1517.37 Q1246.32 1517.37 1244.49 1520.93 Q1242.69 1524.47 1242.69 1531.6 Q1242.69 1538.71 1244.49 1542.27 Q1246.32 1545.82 1249.93 1545.82 Q1253.57 1545.82 1255.37 1542.27 Q1257.2 1538.71 1257.2 1531.6 Q1257.2 1524.47 1255.37 1520.93 Q1253.57 1517.37 1249.93 1517.37 M1249.93 1513.66 Q1255.74 1513.66 1258.8 1518.27 Q1261.88 1522.85 1261.88 1531.6 Q1261.88 1540.33 1258.8 1544.94 Q1255.74 1549.52 1249.93 1549.52 Q1244.12 1549.52 1241.04 1544.94 Q1237.99 1540.33 1237.99 1531.6 Q1237.99 1522.85 1241.04 1518.27 Q1244.12 1513.66 1249.93 1513.66 Z" fill="#000000" fill-rule="nonzero" fill-opacity="1" /><path clip-path="url(#clip420)" d="M1270.09 1542.97 L1274.98 1542.97 L1274.98 1548.85 L1270.09 1548.85 L1270.09 1542.97 Z" fill="#000000" fill-rule="nonzero" fill-opacity="1" /><path clip-path="url(#clip420)" d="M1295.16 1517.37 Q1291.55 1517.37 1289.72 1520.93 Q1287.92 1524.47 1287.92 1531.6 Q1287.92 1538.71 1289.72 1542.27 Q1291.55 1545.82 1295.16 1545.82 Q1298.8 1545.82 1300.6 1542.27 Q1302.43 1538.71 1302.43 1531.6 Q1302.43 1524.47 1300.6 1520.93 Q1298.8 1517.37 1295.16 1517.37 M1295.16 1513.66 Q1300.97 1513.66 1304.03 1518.27 Q1307.11 1522.85 1307.11 1531.6 Q1307.11 1540.33 1304.03 1544.94 Q1300.97 1549.52 1295.16 1549.52 Q1289.35 1549.52 1286.27 1544.94 Q1283.22 1540.33 1283.22 1531.6 Q1283.22 1522.85 1286.27 1518.27 Q1289.35 1513.66 1295.16 1513.66 Z" fill="#000000" fill-rule="nonzero" fill-opacity="1" /><path clip-path="url(#clip420)" d="M1759.96 1517.37 Q1756.35 1517.37 1754.52 1520.93 Q1752.72 1524.47 1752.72 1531.6 Q1752.72 1538.71 1754.52 1542.27 Q1756.35 1545.82 1759.96 1545.82 Q1763.6 1545.82 1765.4 1542.27 Q1767.23 1538.71 1767.23 1531.6 Q1767.23 1524.47 1765.4 1520.93 Q1763.6 1517.37 1759.96 1517.37 M1759.96 1513.66 Q1765.77 1513.66 1768.83 1518.27 Q1771.91 1522.85 1771.91 1531.6 Q1771.91 1540.33 1768.83 1544.94 Q1765.77 1549.52 1759.96 1549.52 Q1754.15 1549.52 1751.07 1544.94 Q1748.02 1540.33 1748.02 1531.6 Q1748.02 1522.85 1751.07 1518.27 Q1754.15 1513.66 1759.96 1513.66 Z" fill="#000000" fill-rule="nonzero" fill-opacity="1" /><path clip-path="url(#clip420)" d="M1780.12 1542.97 L1785.01 1542.97 L1785.01 1548.85 L1780.12 1548.85 L1780.12 1542.97 Z" fill="#000000" fill-rule="nonzero" fill-opacity="1" /><path clip-path="url(#clip420)" d="M1795.24 1514.29 L1813.6 1514.29 L1813.6 1518.22 L1799.52 1518.22 L1799.52 1526.7 Q1800.54 1526.35 1801.56 1526.19 Q1802.58 1526 1803.6 1526 Q1809.38 1526 1812.76 1529.17 Q1816.14 1532.34 1816.14 1537.76 Q1816.14 1543.34 1812.67 1546.44 Q1809.2 1549.52 1802.88 1549.52 Q1800.7 1549.52 1798.43 1549.15 Q1796.19 1548.78 1793.78 1548.04 L1793.78 1543.34 Q1795.86 1544.47 1798.09 1545.03 Q1800.31 1545.58 1802.79 1545.58 Q1806.79 1545.58 1809.13 1543.48 Q1811.47 1541.37 1811.47 1537.76 Q1811.47 1534.15 1809.13 1532.04 Q1806.79 1529.94 1802.79 1529.94 Q1800.91 1529.94 1799.04 1530.35 Q1797.18 1530.77 1795.24 1531.65 L1795.24 1514.29 Z" fill="#000000" fill-rule="nonzero" fill-opacity="1" /><path clip-path="url(#clip420)" d="M2258.76 1544.91 L2266.4 1544.91 L2266.4 1518.55 L2258.09 1520.21 L2258.09 1515.95 L2266.36 1514.29 L2271.03 1514.29 L2271.03 1544.91 L2278.67 1544.91 L2278.67 1548.85 L2258.76 1548.85 L2258.76 1544.91 Z" fill="#000000" fill-rule="nonzero" fill-opacity="1" /><path clip-path="url(#clip420)" d="M2288.12 1542.97 L2293 1542.97 L2293 1548.85 L2288.12 1548.85 L2288.12 1542.97 Z" fill="#000000" fill-rule="nonzero" fill-opacity="1" /><path clip-path="url(#clip420)" d="M2313.19 1517.37 Q2309.57 1517.37 2307.75 1520.93 Q2305.94 1524.47 2305.94 1531.6 Q2305.94 1538.71 2307.75 1542.27 Q2309.57 1545.82 2313.19 1545.82 Q2316.82 1545.82 2318.63 1542.27 Q2320.45 1538.71 2320.45 1531.6 Q2320.45 1524.47 2318.63 1520.93 Q2316.82 1517.37 2313.19 1517.37 M2313.19 1513.66 Q2319 1513.66 2322.05 1518.27 Q2325.13 1522.85 2325.13 1531.6 Q2325.13 1540.33 2322.05 1544.94 Q2319 1549.52 2313.19 1549.52 Q2307.38 1549.52 2304.3 1544.94 Q2301.24 1540.33 2301.24 1531.6 Q2301.24 1522.85 2304.3 1518.27 Q2307.38 1513.66 2313.19 1513.66 Z" fill="#000000" fill-rule="nonzero" fill-opacity="1" /><polyline clip-path="url(#clip422)" style="stroke:#000000; stroke-linecap:round; stroke-linejoin:round; stroke-width:2; stroke-opacity:0.1; fill:none" points="192.339,1384.85 2352.76,1384.85 "/>
<polyline clip-path="url(#clip422)" style="stroke:#000000; stroke-linecap:round; stroke-linejoin:round; stroke-width:2; stroke-opacity:0.1; fill:none" points="192.339,1210.76 2352.76,1210.76 "/>
<polyline clip-path="url(#clip422)" style="stroke:#000000; stroke-linecap:round; stroke-linejoin:round; stroke-width:2; stroke-opacity:0.1; fill:none" points="192.339,1036.68 2352.76,1036.68 "/>
<polyline clip-path="url(#clip422)" style="stroke:#000000; stroke-linecap:round; stroke-linejoin:round; stroke-width:2; stroke-opacity:0.1; fill:none" points="192.339,862.595 2352.76,862.595 "/>
<polyline clip-path="url(#clip422)" style="stroke:#000000; stroke-linecap:round; stroke-linejoin:round; stroke-width:2; stroke-opacity:0.1; fill:none" points="192.339,688.511 2352.76,688.511 "/>
<polyline clip-path="url(#clip422)" style="stroke:#000000; stroke-linecap:round; stroke-linejoin:round; stroke-width:2; stroke-opacity:0.1; fill:none" points="192.339,514.427 2352.76,514.427 "/>
<polyline clip-path="url(#clip422)" style="stroke:#000000; stroke-linecap:round; stroke-linejoin:round; stroke-width:2; stroke-opacity:0.1; fill:none" points="192.339,340.344 2352.76,340.344 "/>
<polyline clip-path="url(#clip422)" style="stroke:#000000; stroke-linecap:round; stroke-linejoin:round; stroke-width:2; stroke-opacity:0.1; fill:none" points="192.339,166.26 2352.76,166.26 "/>
<polyline clip-path="url(#clip420)" style="stroke:#000000; stroke-linecap:round; stroke-linejoin:round; stroke-width:4; stroke-opacity:1; fill:none" points="192.339,1486.45 192.339,47.2441 "/>
<polyline clip-path="url(#clip420)" style="stroke:#000000; stroke-linecap:round; stroke-linejoin:round; stroke-width:4; stroke-opacity:1; fill:none" points="192.339,1384.85 211.236,1384.85 "/>
<polyline clip-path="url(#clip420)" style="stroke:#000000; stroke-linecap:round; stroke-linejoin:round; stroke-width:4; stroke-opacity:1; fill:none" points="192.339,1210.76 211.236,1210.76 "/>
<polyline clip-path="url(#clip420)" style="stroke:#000000; stroke-linecap:round; stroke-linejoin:round; stroke-width:4; stroke-opacity:1; fill:none" points="192.339,1036.68 211.236,1036.68 "/>
<polyline clip-path="url(#clip420)" style="stroke:#000000; stroke-linecap:round; stroke-linejoin:round; stroke-width:4; stroke-opacity:1; fill:none" points="192.339,862.595 211.236,862.595 "/>
<polyline clip-path="url(#clip420)" style="stroke:#000000; stroke-linecap:round; stroke-linejoin:round; stroke-width:4; stroke-opacity:1; fill:none" points="192.339,688.511 211.236,688.511 "/>
<polyline clip-path="url(#clip420)" style="stroke:#000000; stroke-linecap:round; stroke-linejoin:round; stroke-width:4; stroke-opacity:1; fill:none" points="192.339,514.427 211.236,514.427 "/>
<polyline clip-path="url(#clip420)" style="stroke:#000000; stroke-linecap:round; stroke-linejoin:round; stroke-width:4; stroke-opacity:1; fill:none" points="192.339,340.344 211.236,340.344 "/>
<polyline clip-path="url(#clip420)" style="stroke:#000000; stroke-linecap:round; stroke-linejoin:round; stroke-width:4; stroke-opacity:1; fill:none" points="192.339,166.26 211.236,166.26 "/>
<path clip-path="url(#clip420)" d="M50.9921 1385.3 L80.6679 1385.3 L80.6679 1389.23 L50.9921 1389.23 L50.9921 1385.3 Z" fill="#000000" fill-rule="nonzero" fill-opacity="1" /><path clip-path="url(#clip420)" d="M100.76 1370.64 Q97.1493 1370.64 95.3206 1374.21 Q93.515 1377.75 93.515 1384.88 Q93.515 1391.99 95.3206 1395.55 Q97.1493 1399.09 100.76 1399.09 Q104.395 1399.09 106.2 1395.55 Q108.029 1391.99 108.029 1384.88 Q108.029 1377.75 106.2 1374.21 Q104.395 1370.64 100.76 1370.64 M100.76 1366.94 Q106.571 1366.94 109.626 1371.55 Q112.705 1376.13 112.705 1384.88 Q112.705 1393.61 109.626 1398.21 Q106.571 1402.8 100.76 1402.8 Q94.9502 1402.8 91.8715 1398.21 Q88.816 1393.61 88.816 1384.88 Q88.816 1376.13 91.8715 1371.55 Q94.9502 1366.94 100.76 1366.94 Z" fill="#000000" fill-rule="nonzero" fill-opacity="1" /><path clip-path="url(#clip420)" d="M120.922 1396.25 L125.807 1396.25 L125.807 1402.13 L120.922 1402.13 L120.922 1396.25 Z" fill="#000000" fill-rule="nonzero" fill-opacity="1" /><path clip-path="url(#clip420)" d="M140.019 1398.19 L156.339 1398.19 L156.339 1402.13 L134.394 1402.13 L134.394 1398.19 Q137.056 1395.44 141.64 1390.81 Q146.246 1386.15 147.427 1384.81 Q149.672 1382.29 150.552 1380.55 Q151.455 1378.79 151.455 1377.1 Q151.455 1374.35 149.51 1372.61 Q147.589 1370.88 144.487 1370.88 Q142.288 1370.88 139.834 1371.64 Q137.404 1372.4 134.626 1373.95 L134.626 1369.23 Q137.45 1368.1 139.904 1367.52 Q142.357 1366.94 144.394 1366.94 Q149.765 1366.94 152.959 1369.63 Q156.154 1372.31 156.154 1376.8 Q156.154 1378.93 155.343 1380.85 Q154.556 1382.75 152.45 1385.34 Q151.871 1386.01 148.769 1389.23 Q145.668 1392.43 140.019 1398.19 Z" fill="#000000" fill-rule="nonzero" fill-opacity="1" /><path clip-path="url(#clip420)" d="M99.1632 1196.56 Q95.5521 1196.56 93.7234 1200.13 Q91.9178 1203.67 91.9178 1210.8 Q91.9178 1217.9 93.7234 1221.47 Q95.5521 1225.01 99.1632 1225.01 Q102.797 1225.01 104.603 1221.47 Q106.432 1217.9 106.432 1210.8 Q106.432 1203.67 104.603 1200.13 Q102.797 1196.56 99.1632 1196.56 M99.1632 1192.86 Q104.973 1192.86 108.029 1197.46 Q111.108 1202.05 111.108 1210.8 Q111.108 1219.52 108.029 1224.13 Q104.973 1228.71 99.1632 1228.71 Q93.353 1228.71 90.2743 1224.13 Q87.2188 1219.52 87.2188 1210.8 Q87.2188 1202.05 90.2743 1197.46 Q93.353 1192.86 99.1632 1192.86 Z" fill="#000000" fill-rule="nonzero" fill-opacity="1" /><path clip-path="url(#clip420)" d="M119.325 1222.16 L124.209 1222.16 L124.209 1228.04 L119.325 1228.04 L119.325 1222.16 Z" fill="#000000" fill-rule="nonzero" fill-opacity="1" /><path clip-path="url(#clip420)" d="M144.394 1196.56 Q140.783 1196.56 138.955 1200.13 Q137.149 1203.67 137.149 1210.8 Q137.149 1217.9 138.955 1221.47 Q140.783 1225.01 144.394 1225.01 Q148.029 1225.01 149.834 1221.47 Q151.663 1217.9 151.663 1210.8 Q151.663 1203.67 149.834 1200.13 Q148.029 1196.56 144.394 1196.56 M144.394 1192.86 Q150.205 1192.86 153.26 1197.46 Q156.339 1202.05 156.339 1210.8 Q156.339 1219.52 153.26 1224.13 Q150.205 1228.71 144.394 1228.71 Q138.584 1228.71 135.506 1224.13 Q132.45 1219.52 132.45 1210.8 Q132.45 1202.05 135.506 1197.46 Q138.584 1192.86 144.394 1192.86 Z" fill="#000000" fill-rule="nonzero" fill-opacity="1" /><path clip-path="url(#clip420)" d="M100.76 1022.48 Q97.1493 1022.48 95.3206 1026.04 Q93.515 1029.58 93.515 1036.71 Q93.515 1043.82 95.3206 1047.38 Q97.1493 1050.93 100.76 1050.93 Q104.395 1050.93 106.2 1047.38 Q108.029 1043.82 108.029 1036.71 Q108.029 1029.58 106.2 1026.04 Q104.395 1022.48 100.76 1022.48 M100.76 1018.77 Q106.571 1018.77 109.626 1023.38 Q112.705 1027.96 112.705 1036.71 Q112.705 1045.44 109.626 1050.05 Q106.571 1054.63 100.76 1054.63 Q94.9502 1054.63 91.8715 1050.05 Q88.816 1045.44 88.816 1036.71 Q88.816 1027.96 91.8715 1023.38 Q94.9502 1018.77 100.76 1018.77 Z" fill="#000000" fill-rule="nonzero" fill-opacity="1" /><path clip-path="url(#clip420)" d="M120.922 1048.08 L125.807 1048.08 L125.807 1053.96 L120.922 1053.96 L120.922 1048.08 Z" fill="#000000" fill-rule="nonzero" fill-opacity="1" /><path clip-path="url(#clip420)" d="M140.019 1050.02 L156.339 1050.02 L156.339 1053.96 L134.394 1053.96 L134.394 1050.02 Q137.056 1047.27 141.64 1042.64 Q146.246 1037.99 147.427 1036.64 Q149.672 1034.12 150.552 1032.38 Q151.455 1030.63 151.455 1028.94 Q151.455 1026.18 149.51 1024.44 Q147.589 1022.71 144.487 1022.71 Q142.288 1022.71 139.834 1023.47 Q137.404 1024.24 134.626 1025.79 L134.626 1021.07 Q137.45 1019.93 139.904 1019.35 Q142.357 1018.77 144.394 1018.77 Q149.765 1018.77 152.959 1021.46 Q156.154 1024.14 156.154 1028.63 Q156.154 1030.76 155.343 1032.69 Q154.556 1034.58 152.45 1037.18 Q151.871 1037.85 148.769 1041.06 Q145.668 1044.26 140.019 1050.02 Z" fill="#000000" fill-rule="nonzero" fill-opacity="1" /><path clip-path="url(#clip420)" d="M98.6771 848.393 Q95.066 848.393 93.2373 851.958 Q91.4317 855.5 91.4317 862.629 Q91.4317 869.736 93.2373 873.301 Q95.066 876.842 98.6771 876.842 Q102.311 876.842 104.117 873.301 Q105.946 869.736 105.946 862.629 Q105.946 855.5 104.117 851.958 Q102.311 848.393 98.6771 848.393 M98.6771 844.69 Q104.487 844.69 107.543 849.296 Q110.621 853.879 110.621 862.629 Q110.621 871.356 107.543 875.963 Q104.487 880.546 98.6771 880.546 Q92.8669 880.546 89.7882 875.963 Q86.7327 871.356 86.7327 862.629 Q86.7327 853.879 89.7882 849.296 Q92.8669 844.69 98.6771 844.69 Z" fill="#000000" fill-rule="nonzero" fill-opacity="1" /><path clip-path="url(#clip420)" d="M118.839 873.995 L123.723 873.995 L123.723 879.875 L118.839 879.875 L118.839 873.995 Z" fill="#000000" fill-rule="nonzero" fill-opacity="1" /><path clip-path="url(#clip420)" d="M146.756 849.389 L134.95 867.838 L146.756 867.838 L146.756 849.389 M145.529 845.315 L151.408 845.315 L151.408 867.838 L156.339 867.838 L156.339 871.727 L151.408 871.727 L151.408 879.875 L146.756 879.875 L146.756 871.727 L131.154 871.727 L131.154 867.213 L145.529 845.315 Z" fill="#000000" fill-rule="nonzero" fill-opacity="1" /><path clip-path="url(#clip420)" d="M99.0011 674.31 Q95.39 674.31 93.5613 677.874 Q91.7558 681.416 91.7558 688.546 Q91.7558 695.652 93.5613 699.217 Q95.39 702.759 99.0011 702.759 Q102.635 702.759 104.441 699.217 Q106.27 695.652 106.27 688.546 Q106.27 681.416 104.441 677.874 Q102.635 674.31 99.0011 674.31 M99.0011 670.606 Q104.811 670.606 107.867 675.212 Q110.946 679.796 110.946 688.546 Q110.946 697.272 107.867 701.879 Q104.811 706.462 99.0011 706.462 Q93.191 706.462 90.1123 701.879 Q87.0567 697.272 87.0567 688.546 Q87.0567 679.796 90.1123 675.212 Q93.191 670.606 99.0011 670.606 Z" fill="#000000" fill-rule="nonzero" fill-opacity="1" /><path clip-path="url(#clip420)" d="M119.163 699.911 L124.047 699.911 L124.047 705.791 L119.163 705.791 L119.163 699.911 Z" fill="#000000" fill-rule="nonzero" fill-opacity="1" /><path clip-path="url(#clip420)" d="M144.811 686.648 Q141.663 686.648 139.811 688.8 Q137.982 690.953 137.982 694.703 Q137.982 698.43 139.811 700.606 Q141.663 702.759 144.811 702.759 Q147.959 702.759 149.788 700.606 Q151.64 698.43 151.64 694.703 Q151.64 690.953 149.788 688.8 Q147.959 686.648 144.811 686.648 M154.093 671.995 L154.093 676.254 Q152.334 675.421 150.529 674.981 Q148.746 674.541 146.987 674.541 Q142.357 674.541 139.904 677.666 Q137.473 680.791 137.126 687.111 Q138.492 685.097 140.552 684.032 Q142.612 682.944 145.089 682.944 Q150.297 682.944 153.306 686.115 Q156.339 689.263 156.339 694.703 Q156.339 700.027 153.191 703.245 Q150.043 706.462 144.811 706.462 Q138.816 706.462 135.644 701.879 Q132.473 697.272 132.473 688.546 Q132.473 680.351 136.362 675.49 Q140.251 670.606 146.802 670.606 Q148.561 670.606 150.343 670.953 Q152.149 671.3 154.093 671.995 Z" fill="#000000" fill-rule="nonzero" fill-opacity="1" /><path clip-path="url(#clip420)" d="M99.2558 500.226 Q95.6447 500.226 93.816 503.791 Q92.0104 507.332 92.0104 514.462 Q92.0104 521.568 93.816 525.133 Q95.6447 528.675 99.2558 528.675 Q102.89 528.675 104.696 525.133 Q106.524 521.568 106.524 514.462 Q106.524 507.332 104.696 503.791 Q102.89 500.226 99.2558 500.226 M99.2558 496.522 Q105.066 496.522 108.121 501.129 Q111.2 505.712 111.2 514.462 Q111.2 523.189 108.121 527.795 Q105.066 532.379 99.2558 532.379 Q93.4456 532.379 90.3669 527.795 Q87.3114 523.189 87.3114 514.462 Q87.3114 505.712 90.3669 501.129 Q93.4456 496.522 99.2558 496.522 Z" fill="#000000" fill-rule="nonzero" fill-opacity="1" /><path clip-path="url(#clip420)" d="M119.418 525.828 L124.302 525.828 L124.302 531.707 L119.418 531.707 L119.418 525.828 Z" fill="#000000" fill-rule="nonzero" fill-opacity="1" /><path clip-path="url(#clip420)" d="M144.487 515.295 Q141.154 515.295 139.232 517.078 Q137.334 518.86 137.334 521.985 Q137.334 525.11 139.232 526.892 Q141.154 528.675 144.487 528.675 Q147.82 528.675 149.742 526.892 Q151.663 525.087 151.663 521.985 Q151.663 518.86 149.742 517.078 Q147.843 515.295 144.487 515.295 M139.811 513.305 Q136.802 512.564 135.112 510.504 Q133.445 508.443 133.445 505.481 Q133.445 501.337 136.385 498.93 Q139.348 496.522 144.487 496.522 Q149.649 496.522 152.589 498.93 Q155.529 501.337 155.529 505.481 Q155.529 508.443 153.839 510.504 Q152.172 512.564 149.186 513.305 Q152.566 514.092 154.441 516.383 Q156.339 518.675 156.339 521.985 Q156.339 527.008 153.26 529.693 Q150.205 532.379 144.487 532.379 Q138.769 532.379 135.691 529.693 Q132.635 527.008 132.635 521.985 Q132.635 518.675 134.533 516.383 Q136.431 514.092 139.811 513.305 M138.098 505.92 Q138.098 508.606 139.765 510.11 Q141.455 511.615 144.487 511.615 Q147.496 511.615 149.186 510.11 Q150.899 508.606 150.899 505.92 Q150.899 503.235 149.186 501.731 Q147.496 500.226 144.487 500.226 Q141.455 500.226 139.765 501.731 Q138.098 503.235 138.098 505.92 Z" fill="#000000" fill-rule="nonzero" fill-opacity="1" /><path clip-path="url(#clip420)" d="M89.9734 353.688 L97.6122 353.688 L97.6122 327.323 L89.3021 328.989 L89.3021 324.73 L97.566 323.064 L102.242 323.064 L102.242 353.688 L109.881 353.688 L109.881 357.624 L89.9734 357.624 L89.9734 353.688 Z" fill="#000000" fill-rule="nonzero" fill-opacity="1" /><path clip-path="url(#clip420)" d="M119.325 351.744 L124.209 351.744 L124.209 357.624 L119.325 357.624 L119.325 351.744 Z" fill="#000000" fill-rule="nonzero" fill-opacity="1" /><path clip-path="url(#clip420)" d="M144.394 326.142 Q140.783 326.142 138.955 329.707 Q137.149 333.249 137.149 340.378 Q137.149 347.485 138.955 351.05 Q140.783 354.591 144.394 354.591 Q148.029 354.591 149.834 351.05 Q151.663 347.485 151.663 340.378 Q151.663 333.249 149.834 329.707 Q148.029 326.142 144.394 326.142 M144.394 322.439 Q150.205 322.439 153.26 327.045 Q156.339 331.628 156.339 340.378 Q156.339 349.105 153.26 353.712 Q150.205 358.295 144.394 358.295 Q138.584 358.295 135.506 353.712 Q132.45 349.105 132.45 340.378 Q132.45 331.628 135.506 327.045 Q138.584 322.439 144.394 322.439 Z" fill="#000000" fill-rule="nonzero" fill-opacity="1" /><path clip-path="url(#clip420)" d="M91.5706 179.605 L99.2095 179.605 L99.2095 153.239 L90.8993 154.906 L90.8993 150.647 L99.1632 148.98 L103.839 148.98 L103.839 179.605 L111.478 179.605 L111.478 183.54 L91.5706 183.54 L91.5706 179.605 Z" fill="#000000" fill-rule="nonzero" fill-opacity="1" /><path clip-path="url(#clip420)" d="M120.922 177.66 L125.807 177.66 L125.807 183.54 L120.922 183.54 L120.922 177.66 Z" fill="#000000" fill-rule="nonzero" fill-opacity="1" /><path clip-path="url(#clip420)" d="M140.019 179.605 L156.339 179.605 L156.339 183.54 L134.394 183.54 L134.394 179.605 Q137.056 176.85 141.64 172.22 Q146.246 167.568 147.427 166.225 Q149.672 163.702 150.552 161.966 Q151.455 160.207 151.455 158.517 Q151.455 155.762 149.51 154.026 Q147.589 152.29 144.487 152.29 Q142.288 152.29 139.834 153.054 Q137.404 153.818 134.626 155.369 L134.626 150.647 Q137.45 149.512 139.904 148.934 Q142.357 148.355 144.394 148.355 Q149.765 148.355 152.959 151.04 Q156.154 153.725 156.154 158.216 Q156.154 160.346 155.343 162.267 Q154.556 164.165 152.45 166.758 Q151.871 167.429 148.769 170.646 Q145.668 173.841 140.019 179.605 Z" fill="#000000" fill-rule="nonzero" fill-opacity="1" /><polyline clip-path="url(#clip422)" style="stroke:#009af9; stroke-linecap:round; stroke-linejoin:round; stroke-width:16; stroke-opacity:1; fill:none" stroke-dasharray="8, 16" points="253.483,1080.03 263.725,1065.65 273.966,1052.38 284.208,1042.16 294.45,1036.84 304.692,1037.8 314.934,1045.67 325.176,1060.2 335.418,1080.39 345.659,1104.79 355.901,1131.91 366.143,1160.56 376.385,1190.04 386.627,1220.01 396.869,1250.23 407.111,1280.21 417.352,1309 427.594,1335.15 437.836,1356.9 448.078,1372.48 458.32,1380.73 468.562,1381.93 478.803,1378 489.045,1371.46 499.287,1363.31 509.529,1351.73 519.771,1333.53 530.013,1307.41 540.255,1275.33 550.497,1241.06 560.738,1207.76 570.98,1176.98 581.222,1148.9 591.464,1123.13 601.706,1099.33 611.948,1077.6 622.19,1058.66 632.431,1043.9 642.673,1035.04 652.915,1033.5 663.157,1039.62 673.399,1052.44 683.641,1070.04 693.882,1090.48 704.124,1112.57 714.366,1136.22 724.608,1162.18 734.85,1191.66 745.092,1225.4 755.334,1262.24 765.575,1298.02 775.817,1326.95 786.059,1345.84 796.301,1356.74 806.543,1364.34 816.785,1371.64 827.027,1378.62 837.268,1383.66 847.51,1383.86 857.752,1374.21 867.994,1351.04 878.236,1319.91 888.478,1292.48 898.72,1270.37 908.961,1242.94 919.203,1203.23 929.445,1158.77 939.687,1123.82 949.929,1103.24 960.171,1089.77 970.413,1075.82 980.654,1060.65 990.896,1047.27 1001.14,1037.78 1011.38,1032.62 1021.62,1033.58 1031.86,1045.62 1042.11,1069.95 1052.35,1097.19 1062.59,1119.37 1072.83,1141.72 1083.07,1173.57 1093.31,1215.42 1103.56,1258.18 1113.8,1288.83 1124.04,1301.32 1134.28,1326.17 1144.52,1397.18 1154.77,1445.72 1165.01,1403.93 1175.25,1336.91 1185.49,1309.81 1195.73,1323.75 1205.98,1354.09 1216.22,1380.96 1226.46,1397.37 1236.7,1393.47 1246.94,1334.4 1257.18,1173.39 1267.43,909.461 1277.67,619.403 1287.91,403.6 1298.15,307.398 1308.39,304.054 1318.64,336.057 1328.88,357.513 1339.12,348.893 1349.36,319.139 1359.6,297.373 1369.84,304.104 1380.09,331.897 1390.33,356.592 1400.57,358.702 1410.81,342.495 1421.05,335.801 1431.3,353.647 1441.54,378.858 1451.78,389.724 1462.02,378.098 1472.26,348.134 1482.51,314.303 1492.75,292.13 1502.99,287.996 1513.23,299.144 1523.47,318.209 1533.71,338.017 1543.96,355.035 1554.2,369.484 1564.44,382.483 1574.68,392.627 1584.92,394.593 1595.17,381.105 1605.41,347.739 1615.65,298.868 1625.89,251.168 1636.13,228.895 1646.38,249.374 1656.62,309.092 1666.86,384.588 1677.1,447.054 1687.34,475.062 1697.58,457.871 1707.83,397.229 1718.07,312.193 1728.31,236.408 1738.55,200.313 1748.79,212.937 1759.04,261.583 1769.28,325.226 1779.52,385.824 1789.76,431.557 1800,455.6 1810.24,454.468 1820.49,427.123 1830.73,374.955 1840.97,303.712 1851.21,228.875 1861.45,179.716 1871.7,187.424 1881.94,256.723 1892.18,355.271 1902.42,439.938 1912.66,486.039 1922.91,490.592 1933.15,460.808 1943.39,405.974 1953.63,336.198 1963.87,263.973 1974.11,204.978 1984.36,176.222 1994.6,190.945 2004.84,251.544 2015.08,344.44 2025.32,442.29 2035.57,514.726 2045.81,540.387 2056.05,511.604 2066.29,432.276 2076.53,316.468 2086.77,191.867 2097.02,101.332 2107.26,87.9763 2117.5,163.954 2127.74,296.064 2137.98,431.057 2148.23,529.036 2158.47,571.66 2168.71,553.82 2178.95,478.456 2189.19,360.739 2199.44,234.588 2209.68,145.371 2219.92,124.035 2230.16,167.496 2240.4,247.773 2250.64,335.417 2260.89,412.876 2271.13,474.425 2281.37,521.201 2291.61,556.909 "/>
<polyline clip-path="url(#clip422)" style="stroke:#e26f46; stroke-linecap:round; stroke-linejoin:round; stroke-width:4; stroke-opacity:1; fill:none" points="253.483,1080.03 263.725,1061.48 273.966,1047.8 284.208,1039.45 294.45,1036.68 304.692,1039.59 314.934,1048.1 325.176,1061.91 335.418,1080.58 345.659,1103.49 355.901,1129.91 366.143,1158.97 376.385,1189.72 386.627,1221.15 396.869,1252.25 407.111,1281.99 417.352,1309.41 427.594,1333.6 437.836,1353.79 448.078,1369.31 458.32,1379.66 468.562,1384.49 478.803,1383.65 489.045,1377.17 499.287,1365.26 509.529,1348.31 519.771,1326.87 530.013,1301.64 540.255,1273.44 550.497,1243.19 560.738,1211.89 570.98,1180.55 581.222,1150.2 591.464,1121.82 601.706,1096.35 611.948,1074.61 622.19,1057.32 632.431,1045.03 642.673,1038.15 652.915,1036.9 663.157,1041.33 673.399,1051.29 683.641,1066.45 693.882,1086.33 704.124,1110.26 714.366,1137.48 724.608,1167.08 734.85,1198.12 745.092,1229.56 755.334,1260.39 765.575,1289.6 775.817,1316.24 786.059,1339.44 796.301,1358.43 806.543,1372.61 816.785,1381.5 827.027,1384.83 837.268,1382.47 847.51,1374.5 857.752,1361.2 867.994,1342.98 878.236,1320.45 888.478,1294.33 898.72,1265.49 908.961,1234.87 919.203,1203.46 929.445,1172.28 939.687,1142.36 949.929,1114.68 960.171,1090.13 970.413,1069.51 980.654,1053.51 990.896,1042.64 1001.14,1037.26 1011.38,1037.54 1021.62,1043.47 1031.86,1054.86 1042.11,1071.34 1052.35,1092.37 1062.59,1117.27 1072.83,1145.21 1083.07,1175.3 1093.31,1206.54 1103.56,1237.92 1113.8,1268.42 1124.04,1297.03 1134.28,1322.83 1144.52,1344.97 1154.77,1362.73 1165.01,1375.53 1175.25,1382.95 1185.49,1384.75 1195.73,1380.87 1205.98,1371.45 1216.22,1356.77 1226.46,1337.34 1236.7,1313.77 1246.94,1286.84 1257.18,1257.42 1267.43,1226.49 1277.67,339.079 1287.91,337.641 1298.15,338.95 1308.39,343.309 1318.64,349.381 1328.88,354.601 1339.12,356.147 1349.36,352.13 1359.6,342.556 1369.84,329.648 1380.09,317.365 1390.33,310.19 1400.57,311.566 1410.81,322.514 1421.05,340.928 1431.3,361.885 1441.54,378.95 1451.78,386.149 1462.02,379.987 1472.26,360.867 1482.51,333.366 1492.75,305.183 1502.99,284.983 1513.23,279.75 1523.47,292.436 1533.71,320.697 1543.96,357.195 1554.2,391.481 1564.44,412.983 1574.68,414.257 1584.92,393.483 1595.17,355.41 1605.41,310.343 1615.65,271.359 1625.89,250.52 1636.13,255.153 1646.38,285.366 1656.62,333.598 1666.86,386.473 1677.1,428.503 1687.34,446.624 1697.58,434.233 1707.83,393.485 1718.07,335.083 1728.31,275.485 1738.55,232.271 1748.79,218.962 1759.04,240.816 1769.28,292.904 1779.52,361.14 1789.76,426.076 1800,468.442 1810.24,474.859 1820.49,442.032 1830.73,378.113 1840.97,300.726 1851.21,232.115 1861.45,192.754 1871.7,195.242 1881.94,240.315 1892.18,316.216 1902.42,401.73 1912.66,472.109 1922.91,506.237 1933.15,492.947 1943.39,434.63 1953.63,346.95 1963.87,254.663 1974.11,184.625 1984.36,157.984 1994.6,183.802 2004.84,256.051 2015.08,354.946 2025.32,452.348 2035.57,519.769 2045.81,536.703 2056.05,496.845 2066.29,410.314 2076.53,301.13 2086.77,200.553 2097.02,138.137 2107.26,133.046 2117.5,188.195 2127.74,288.997 2137.98,407.191 2148.23,508.759 2158.47,563.718 2168.71,554.968 2178.95,483.575 2189.19,368.887 2199.44,243.305 2209.68,143.135 2219.92,98.0931 2230.16,122.494 2240.4,210.748 2250.64,338.556 2260.89,469.588 2271.13,565.81 2281.37,598.519 2291.61,556.898 "/>
<path clip-path="url(#clip420)" d="M264.353 250.738 L707.222 250.738 L707.222 95.2176 L264.353 95.2176  Z" fill="#ffffff" fill-rule="evenodd" fill-opacity="1"/>
<polyline clip-path="url(#clip420)" style="stroke:#000000; stroke-linecap:round; stroke-linejoin:round; stroke-width:4; stroke-opacity:1; fill:none" points="264.353,250.738 707.222,250.738 707.222,95.2176 264.353,95.2176 264.353,250.738 "/>
<polyline clip-path="url(#clip420)" style="stroke:#009af9; stroke-linecap:round; stroke-linejoin:round; stroke-width:16; stroke-opacity:1; fill:none" stroke-dasharray="8, 16" points="288.357,147.058 432.385,147.058 "/>
<path clip-path="url(#clip420)" d="M461.066 133.62 L461.066 146.606 L466.945 146.606 Q470.209 146.606 471.992 144.916 Q473.774 143.227 473.774 140.102 Q473.774 137 471.992 135.31 Q470.209 133.62 466.945 133.62 L461.066 133.62 M456.39 129.778 L466.945 129.778 Q472.755 129.778 475.718 132.416 Q478.704 135.032 478.704 140.102 Q478.704 145.217 475.718 147.833 Q472.755 150.449 466.945 150.449 L461.066 150.449 L461.066 164.338 L456.39 164.338 L456.39 129.778 Z" fill="#000000" fill-rule="nonzero" fill-opacity="1" /><path clip-path="url(#clip420)" d="M498.982 142.393 Q498.265 141.977 497.408 141.791 Q496.575 141.583 495.556 141.583 Q491.945 141.583 490.001 143.944 Q488.079 146.282 488.079 150.68 L488.079 164.338 L483.797 164.338 L483.797 138.412 L488.079 138.412 L488.079 142.44 Q489.422 140.078 491.575 138.944 Q493.728 137.787 496.806 137.787 Q497.246 137.787 497.778 137.856 Q498.311 137.903 498.959 138.018 L498.982 142.393 Z" fill="#000000" fill-rule="nonzero" fill-opacity="1" /><path clip-path="url(#clip420)" d="M524.584 150.31 L524.584 152.393 L505.001 152.393 Q505.278 156.791 507.639 159.106 Q510.024 161.398 514.26 161.398 Q516.714 161.398 519.005 160.796 Q521.32 160.194 523.588 158.99 L523.588 163.018 Q521.297 163.99 518.889 164.5 Q516.482 165.009 514.005 165.009 Q507.802 165.009 504.167 161.398 Q500.556 157.787 500.556 151.629 Q500.556 145.264 503.982 141.537 Q507.431 137.787 513.264 137.787 Q518.496 137.787 521.528 141.166 Q524.584 144.523 524.584 150.31 M520.325 149.06 Q520.278 145.565 518.357 143.481 Q516.459 141.398 513.311 141.398 Q509.746 141.398 507.593 143.412 Q505.464 145.426 505.14 149.083 L520.325 149.06 Z" fill="#000000" fill-rule="nonzero" fill-opacity="1" /><path clip-path="url(#clip420)" d="M548.635 142.347 L548.635 128.319 L552.894 128.319 L552.894 164.338 L548.635 164.338 L548.635 160.449 Q547.292 162.763 545.232 163.898 Q543.195 165.009 540.325 165.009 Q535.625 165.009 532.663 161.259 Q529.723 157.509 529.723 151.398 Q529.723 145.287 532.663 141.537 Q535.625 137.787 540.325 137.787 Q543.195 137.787 545.232 138.921 Q547.292 140.032 548.635 142.347 M534.121 151.398 Q534.121 156.097 536.042 158.782 Q537.987 161.444 541.366 161.444 Q544.746 161.444 546.69 158.782 Q548.635 156.097 548.635 151.398 Q548.635 146.699 546.69 144.037 Q544.746 141.352 541.366 141.352 Q537.987 141.352 536.042 144.037 Q534.121 146.699 534.121 151.398 Z" fill="#000000" fill-rule="nonzero" fill-opacity="1" /><path clip-path="url(#clip420)" d="M561.667 138.412 L565.926 138.412 L565.926 164.338 L561.667 164.338 L561.667 138.412 M561.667 128.319 L565.926 128.319 L565.926 133.713 L561.667 133.713 L561.667 128.319 Z" fill="#000000" fill-rule="nonzero" fill-opacity="1" /><path clip-path="url(#clip420)" d="M593.496 139.407 L593.496 143.389 Q591.69 142.393 589.861 141.907 Q588.056 141.398 586.204 141.398 Q582.06 141.398 579.769 144.037 Q577.477 146.652 577.477 151.398 Q577.477 156.143 579.769 158.782 Q582.06 161.398 586.204 161.398 Q588.056 161.398 589.861 160.912 Q591.69 160.402 593.496 159.407 L593.496 163.342 Q591.713 164.176 589.792 164.592 Q587.894 165.009 585.741 165.009 Q579.884 165.009 576.435 161.328 Q572.986 157.648 572.986 151.398 Q572.986 145.055 576.459 141.421 Q579.954 137.787 586.019 137.787 Q587.986 137.787 589.861 138.203 Q591.736 138.597 593.496 139.407 Z" fill="#000000" fill-rule="nonzero" fill-opacity="1" /><path clip-path="url(#clip420)" d="M605.116 131.051 L605.116 138.412 L613.889 138.412 L613.889 141.722 L605.116 141.722 L605.116 155.796 Q605.116 158.967 605.972 159.87 Q606.852 160.773 609.514 160.773 L613.889 160.773 L613.889 164.338 L609.514 164.338 Q604.583 164.338 602.708 162.509 Q600.833 160.657 600.833 155.796 L600.833 141.722 L597.708 141.722 L597.708 138.412 L600.833 138.412 L600.833 131.051 L605.116 131.051 Z" fill="#000000" fill-rule="nonzero" fill-opacity="1" /><path clip-path="url(#clip420)" d="M619.491 138.412 L623.75 138.412 L623.75 164.338 L619.491 164.338 L619.491 138.412 M619.491 128.319 L623.75 128.319 L623.75 133.713 L619.491 133.713 L619.491 128.319 Z" fill="#000000" fill-rule="nonzero" fill-opacity="1" /><path clip-path="url(#clip420)" d="M642.708 141.398 Q639.282 141.398 637.292 144.083 Q635.301 146.745 635.301 151.398 Q635.301 156.051 637.268 158.736 Q639.259 161.398 642.708 161.398 Q646.111 161.398 648.102 158.713 Q650.092 156.027 650.092 151.398 Q650.092 146.791 648.102 144.106 Q646.111 141.398 642.708 141.398 M642.708 137.787 Q648.264 137.787 651.435 141.398 Q654.606 145.009 654.606 151.398 Q654.606 157.764 651.435 161.398 Q648.264 165.009 642.708 165.009 Q637.13 165.009 633.958 161.398 Q630.81 157.764 630.81 151.398 Q630.81 145.009 633.958 141.398 Q637.13 137.787 642.708 137.787 Z" fill="#000000" fill-rule="nonzero" fill-opacity="1" /><path clip-path="url(#clip420)" d="M683.217 148.689 L683.217 164.338 L678.958 164.338 L678.958 148.828 Q678.958 145.148 677.523 143.319 Q676.088 141.49 673.217 141.49 Q669.768 141.49 667.778 143.69 Q665.787 145.889 665.787 149.685 L665.787 164.338 L661.504 164.338 L661.504 138.412 L665.787 138.412 L665.787 142.44 Q667.315 140.102 669.375 138.944 Q671.458 137.787 674.166 137.787 Q678.634 137.787 680.926 140.565 Q683.217 143.319 683.217 148.689 Z" fill="#000000" fill-rule="nonzero" fill-opacity="1" /><polyline clip-path="url(#clip420)" style="stroke:#e26f46; stroke-linecap:round; stroke-linejoin:round; stroke-width:4; stroke-opacity:1; fill:none" points="288.357,198.898 432.385,198.898 "/>
<path clip-path="url(#clip420)" d="M456.39 181.618 L478.242 181.618 L478.242 185.553 L461.066 185.553 L461.066 195.784 L477.524 195.784 L477.524 199.719 L461.066 199.719 L461.066 212.242 L478.658 212.242 L478.658 216.178 L456.39 216.178 L456.39 181.618 Z" fill="#000000" fill-rule="nonzero" fill-opacity="1" /><path clip-path="url(#clip420)" d="M507.709 190.252 L498.334 202.867 L508.195 216.178 L503.172 216.178 L495.626 205.992 L488.079 216.178 L483.056 216.178 L493.126 202.613 L483.913 190.252 L488.936 190.252 L495.811 199.488 L502.686 190.252 L507.709 190.252 Z" fill="#000000" fill-rule="nonzero" fill-opacity="1" /><path clip-path="url(#clip420)" d="M525.996 203.145 Q520.834 203.145 518.843 204.326 Q516.852 205.506 516.852 208.354 Q516.852 210.622 518.334 211.965 Q519.838 213.284 522.408 213.284 Q525.95 213.284 528.079 210.784 Q530.232 208.261 530.232 204.094 L530.232 203.145 L525.996 203.145 M534.491 201.386 L534.491 216.178 L530.232 216.178 L530.232 212.242 Q528.774 214.603 526.598 215.738 Q524.422 216.849 521.274 216.849 Q517.292 216.849 514.931 214.627 Q512.593 212.381 512.593 208.631 Q512.593 204.256 515.51 202.034 Q518.45 199.812 524.26 199.812 L530.232 199.812 L530.232 199.395 Q530.232 196.455 528.288 194.858 Q526.366 193.238 522.871 193.238 Q520.649 193.238 518.542 193.77 Q516.436 194.303 514.491 195.367 L514.491 191.432 Q516.829 190.53 519.028 190.09 Q521.227 189.627 523.311 189.627 Q528.936 189.627 531.713 192.543 Q534.491 195.46 534.491 201.386 Z" fill="#000000" fill-rule="nonzero" fill-opacity="1" /><path clip-path="url(#clip420)" d="M561.922 191.247 L561.922 195.229 Q560.116 194.233 558.287 193.747 Q556.482 193.238 554.63 193.238 Q550.486 193.238 548.195 195.877 Q545.903 198.492 545.903 203.238 Q545.903 207.983 548.195 210.622 Q550.486 213.238 554.63 213.238 Q556.482 213.238 558.287 212.752 Q560.116 212.242 561.922 211.247 L561.922 215.182 Q560.139 216.016 558.218 216.432 Q556.32 216.849 554.167 216.849 Q548.311 216.849 544.862 213.168 Q541.412 209.488 541.412 203.238 Q541.412 196.895 544.885 193.261 Q548.38 189.627 554.445 189.627 Q556.412 189.627 558.287 190.043 Q560.162 190.437 561.922 191.247 Z" fill="#000000" fill-rule="nonzero" fill-opacity="1" /><path clip-path="url(#clip420)" d="M573.542 182.891 L573.542 190.252 L582.315 190.252 L582.315 193.562 L573.542 193.562 L573.542 207.636 Q573.542 210.807 574.398 211.71 Q575.278 212.613 577.94 212.613 L582.315 212.613 L582.315 216.178 L577.94 216.178 Q573.01 216.178 571.135 214.349 Q569.26 212.497 569.26 207.636 L569.26 193.562 L566.135 193.562 L566.135 190.252 L569.26 190.252 L569.26 182.891 L573.542 182.891 Z" fill="#000000" fill-rule="nonzero" fill-opacity="1" /></svg>
