<?xml version="1.0" encoding="utf-8"?>
<svg xmlns="http://www.w3.org/2000/svg" xmlns:xlink="http://www.w3.org/1999/xlink" width="600" height="400" viewBox="0 0 2400 1600">
<defs>
  <clipPath id="clip430">
    <rect x="0" y="0" width="2400" height="1600"/>
  </clipPath>
</defs>
<path clip-path="url(#clip430)" d="
M0 1600 L2400 1600 L2400 0 L0 0  Z
  " fill="#ffffff" fill-rule="evenodd" fill-opacity="1"/>
<defs>
  <clipPath id="clip431">
    <rect x="480" y="0" width="1681" height="1600"/>
  </clipPath>
</defs>
<path clip-path="url(#clip430)" d="
M156.274 1486.45 L2352.76 1486.45 L2352.76 47.2441 L156.274 47.2441  Z
  " fill="#ffffff" fill-rule="evenodd" fill-opacity="1"/>
<defs>
  <clipPath id="clip432">
    <rect x="156" y="47" width="2197" height="1440"/>
  </clipPath>
</defs>
<polyline clip-path="url(#clip432)" style="stroke:#000000; stroke-linecap:round; stroke-linejoin:round; stroke-width:2; stroke-opacity:0.1; fill:none" points="
  218.439,1486.45 218.439,47.2441 
  "/>
<polyline clip-path="url(#clip432)" style="stroke:#000000; stroke-linecap:round; stroke-linejoin:round; stroke-width:2; stroke-opacity:0.1; fill:none" points="
  736.477,1486.45 736.477,47.2441 
  "/>
<polyline clip-path="url(#clip432)" style="stroke:#000000; stroke-linecap:round; stroke-linejoin:round; stroke-width:2; stroke-opacity:0.1; fill:none" points="
  1254.52,1486.45 1254.52,47.2441 
  "/>
<polyline clip-path="url(#clip432)" style="stroke:#000000; stroke-linecap:round; stroke-linejoin:round; stroke-width:2; stroke-opacity:0.1; fill:none" points="
  1772.55,1486.45 1772.55,47.2441 
  "/>
<polyline clip-path="url(#clip432)" style="stroke:#000000; stroke-linecap:round; stroke-linejoin:round; stroke-width:2; stroke-opacity:0.1; fill:none" points="
  2290.59,1486.45 2290.59,47.2441 
  "/>
<polyline clip-path="url(#clip430)" style="stroke:#000000; stroke-linecap:round; stroke-linejoin:round; stroke-width:4; stroke-opacity:1; fill:none" points="
  156.274,1486.45 2352.76,1486.45 
  "/>
<polyline clip-path="url(#clip430)" style="stroke:#000000; stroke-linecap:round; stroke-linejoin:round; stroke-width:4; stroke-opacity:1; fill:none" points="
  218.439,1486.45 218.439,1467.55 
  "/>
<polyline clip-path="url(#clip430)" style="stroke:#000000; stroke-linecap:round; stroke-linejoin:round; stroke-width:4; stroke-opacity:1; fill:none" points="
  736.477,1486.45 736.477,1467.55 
  "/>
<polyline clip-path="url(#clip430)" style="stroke:#000000; stroke-linecap:round; stroke-linejoin:round; stroke-width:4; stroke-opacity:1; fill:none" points="
  1254.52,1486.45 1254.52,1467.55 
  "/>
<polyline clip-path="url(#clip430)" style="stroke:#000000; stroke-linecap:round; stroke-linejoin:round; stroke-width:4; stroke-opacity:1; fill:none" points="
  1772.55,1486.45 1772.55,1467.55 
  "/>
<polyline clip-path="url(#clip430)" style="stroke:#000000; stroke-linecap:round; stroke-linejoin:round; stroke-width:4; stroke-opacity:1; fill:none" points="
  2290.59,1486.45 2290.59,1467.55 
  "/>
<path clip-path="url(#clip430)" d="M164.967 1532.02 L194.643 1532.02 L194.643 1535.95 L164.967 1535.95 L164.967 1532.02 Z" fill="#000000" fill-rule="evenodd" fill-opacity="1" /><path clip-path="url(#clip430)" d="M205.545 1544.91 L213.184 1544.91 L213.184 1518.55 L204.874 1520.21 L204.874 1515.95 L213.138 1514.29 L217.814 1514.29 L217.814 1544.91 L225.453 1544.91 L225.453 1548.85 L205.545 1548.85 L205.545 1544.91 Z" fill="#000000" fill-rule="evenodd" fill-opacity="1" /><path clip-path="url(#clip430)" d="M234.897 1542.97 L239.781 1542.97 L239.781 1548.85 L234.897 1548.85 L234.897 1542.97 Z" fill="#000000" fill-rule="evenodd" fill-opacity="1" /><path clip-path="url(#clip430)" d="M259.966 1517.37 Q256.355 1517.37 254.527 1520.93 Q252.721 1524.47 252.721 1531.6 Q252.721 1538.71 254.527 1542.27 Q256.355 1545.82 259.966 1545.82 Q263.601 1545.82 265.406 1542.27 Q267.235 1538.71 267.235 1531.6 Q267.235 1524.47 265.406 1520.93 Q263.601 1517.37 259.966 1517.37 M259.966 1513.66 Q265.776 1513.66 268.832 1518.27 Q271.911 1522.85 271.911 1531.6 Q271.911 1540.33 268.832 1544.94 Q265.776 1549.52 259.966 1549.52 Q254.156 1549.52 251.077 1544.94 Q248.022 1540.33 248.022 1531.6 Q248.022 1522.85 251.077 1518.27 Q254.156 1513.66 259.966 1513.66 Z" fill="#000000" fill-rule="evenodd" fill-opacity="1" /><path clip-path="url(#clip430)" d="M683.503 1532.02 L713.178 1532.02 L713.178 1535.95 L683.503 1535.95 L683.503 1532.02 Z" fill="#000000" fill-rule="evenodd" fill-opacity="1" /><path clip-path="url(#clip430)" d="M733.271 1517.37 Q729.66 1517.37 727.831 1520.93 Q726.026 1524.47 726.026 1531.6 Q726.026 1538.71 727.831 1542.27 Q729.66 1545.82 733.271 1545.82 Q736.905 1545.82 738.711 1542.27 Q740.539 1538.71 740.539 1531.6 Q740.539 1524.47 738.711 1520.93 Q736.905 1517.37 733.271 1517.37 M733.271 1513.66 Q739.081 1513.66 742.137 1518.27 Q745.215 1522.85 745.215 1531.6 Q745.215 1540.33 742.137 1544.94 Q739.081 1549.52 733.271 1549.52 Q727.461 1549.52 724.382 1544.94 Q721.327 1540.33 721.327 1531.6 Q721.327 1522.85 724.382 1518.27 Q727.461 1513.66 733.271 1513.66 Z" fill="#000000" fill-rule="evenodd" fill-opacity="1" /><path clip-path="url(#clip430)" d="M753.433 1542.97 L758.317 1542.97 L758.317 1548.85 L753.433 1548.85 L753.433 1542.97 Z" fill="#000000" fill-rule="evenodd" fill-opacity="1" /><path clip-path="url(#clip430)" d="M768.548 1514.29 L786.905 1514.29 L786.905 1518.22 L772.831 1518.22 L772.831 1526.7 Q773.849 1526.35 774.868 1526.19 Q775.886 1526 776.905 1526 Q782.692 1526 786.072 1529.17 Q789.451 1532.34 789.451 1537.76 Q789.451 1543.34 785.979 1546.44 Q782.507 1549.52 776.187 1549.52 Q774.011 1549.52 771.743 1549.15 Q769.498 1548.78 767.09 1548.04 L767.09 1543.34 Q769.173 1544.47 771.396 1545.03 Q773.618 1545.58 776.095 1545.58 Q780.099 1545.58 782.437 1543.48 Q784.775 1541.37 784.775 1537.76 Q784.775 1534.15 782.437 1532.04 Q780.099 1529.94 776.095 1529.94 Q774.22 1529.94 772.345 1530.35 Q770.493 1530.77 768.548 1531.65 L768.548 1514.29 Z" fill="#000000" fill-rule="evenodd" fill-opacity="1" /><path clip-path="url(#clip430)" d="M1231.9 1517.37 Q1228.29 1517.37 1226.46 1520.93 Q1224.65 1524.47 1224.65 1531.6 Q1224.65 1538.71 1226.46 1542.27 Q1228.29 1545.82 1231.9 1545.82 Q1235.53 1545.82 1237.34 1542.27 Q1239.17 1538.71 1239.17 1531.6 Q1239.17 1524.47 1237.34 1520.93 Q1235.53 1517.37 1231.9 1517.37 M1231.9 1513.66 Q1237.71 1513.66 1240.77 1518.27 Q1243.84 1522.85 1243.84 1531.6 Q1243.84 1540.33 1240.77 1544.94 Q1237.71 1549.52 1231.9 1549.52 Q1226.09 1549.52 1223.01 1544.94 Q1219.96 1540.33 1219.96 1531.6 Q1219.96 1522.85 1223.01 1518.27 Q1226.09 1513.66 1231.9 1513.66 Z" fill="#000000" fill-rule="evenodd" fill-opacity="1" /><path clip-path="url(#clip430)" d="M1252.06 1542.97 L1256.95 1542.97 L1256.95 1548.85 L1252.06 1548.85 L1252.06 1542.97 Z" fill="#000000" fill-rule="evenodd" fill-opacity="1" /><path clip-path="url(#clip430)" d="M1277.13 1517.37 Q1273.52 1517.37 1271.69 1520.93 Q1269.89 1524.47 1269.89 1531.6 Q1269.89 1538.71 1271.69 1542.27 Q1273.52 1545.82 1277.13 1545.82 Q1280.76 1545.82 1282.57 1542.27 Q1284.4 1538.71 1284.4 1531.6 Q1284.4 1524.47 1282.57 1520.93 Q1280.76 1517.37 1277.13 1517.37 M1277.13 1513.66 Q1282.94 1513.66 1286 1518.27 Q1289.08 1522.85 1289.08 1531.6 Q1289.08 1540.33 1286 1544.94 Q1282.94 1549.52 1277.13 1549.52 Q1271.32 1549.52 1268.24 1544.94 Q1265.19 1540.33 1265.19 1531.6 Q1265.19 1522.85 1268.24 1518.27 Q1271.32 1513.66 1277.13 1513.66 Z" fill="#000000" fill-rule="evenodd" fill-opacity="1" /><path clip-path="url(#clip430)" d="M1750.44 1517.37 Q1746.82 1517.37 1745 1520.93 Q1743.19 1524.47 1743.19 1531.6 Q1743.19 1538.71 1745 1542.27 Q1746.82 1545.82 1750.44 1545.82 Q1754.07 1545.82 1755.88 1542.27 Q1757.7 1538.71 1757.7 1531.6 Q1757.7 1524.47 1755.88 1520.93 Q1754.07 1517.37 1750.44 1517.37 M1750.44 1513.66 Q1756.25 1513.66 1759.3 1518.27 Q1762.38 1522.85 1762.38 1531.6 Q1762.38 1540.33 1759.3 1544.94 Q1756.25 1549.52 1750.44 1549.52 Q1744.63 1549.52 1741.55 1544.94 Q1738.49 1540.33 1738.49 1531.6 Q1738.49 1522.85 1741.55 1518.27 Q1744.63 1513.66 1750.44 1513.66 Z" fill="#000000" fill-rule="evenodd" fill-opacity="1" /><path clip-path="url(#clip430)" d="M1770.6 1542.97 L1775.48 1542.97 L1775.48 1548.85 L1770.6 1548.85 L1770.6 1542.97 Z" fill="#000000" fill-rule="evenodd" fill-opacity="1" /><path clip-path="url(#clip430)" d="M1785.71 1514.29 L1804.07 1514.29 L1804.07 1518.22 L1790 1518.22 L1790 1526.7 Q1791.01 1526.35 1792.03 1526.19 Q1793.05 1526 1794.07 1526 Q1799.86 1526 1803.24 1529.17 Q1806.62 1532.34 1806.62 1537.76 Q1806.62 1543.34 1803.14 1546.44 Q1799.67 1549.52 1793.35 1549.52 Q1791.18 1549.52 1788.91 1549.15 Q1786.66 1548.78 1784.25 1548.04 L1784.25 1543.34 Q1786.34 1544.47 1788.56 1545.03 Q1790.78 1545.58 1793.26 1545.58 Q1797.26 1545.58 1799.6 1543.48 Q1801.94 1541.37 1801.94 1537.76 Q1801.94 1534.15 1799.6 1532.04 Q1797.26 1529.94 1793.26 1529.94 Q1791.38 1529.94 1789.51 1530.35 Q1787.66 1530.77 1785.71 1531.65 L1785.71 1514.29 Z" fill="#000000" fill-rule="evenodd" fill-opacity="1" /><path clip-path="url(#clip430)" d="M2257.74 1544.91 L2265.38 1544.91 L2265.38 1518.55 L2257.07 1520.21 L2257.07 1515.95 L2265.34 1514.29 L2270.01 1514.29 L2270.01 1544.91 L2277.65 1544.91 L2277.65 1548.85 L2257.74 1548.85 L2257.74 1544.91 Z" fill="#000000" fill-rule="evenodd" fill-opacity="1" /><path clip-path="url(#clip430)" d="M2287.1 1542.97 L2291.98 1542.97 L2291.98 1548.85 L2287.1 1548.85 L2287.1 1542.97 Z" fill="#000000" fill-rule="evenodd" fill-opacity="1" /><path clip-path="url(#clip430)" d="M2312.17 1517.37 Q2308.55 1517.37 2306.73 1520.93 Q2304.92 1524.47 2304.92 1531.6 Q2304.92 1538.71 2306.73 1542.27 Q2308.55 1545.82 2312.17 1545.82 Q2315.8 1545.82 2317.61 1542.27 Q2319.43 1538.71 2319.43 1531.6 Q2319.43 1524.47 2317.61 1520.93 Q2315.8 1517.37 2312.17 1517.37 M2312.17 1513.66 Q2317.98 1513.66 2321.03 1518.27 Q2324.11 1522.85 2324.11 1531.6 Q2324.11 1540.33 2321.03 1544.94 Q2317.98 1549.52 2312.17 1549.52 Q2306.36 1549.52 2303.28 1544.94 Q2300.22 1540.33 2300.22 1531.6 Q2300.22 1522.85 2303.28 1518.27 Q2306.36 1513.66 2312.17 1513.66 Z" fill="#000000" fill-rule="evenodd" fill-opacity="1" /><polyline clip-path="url(#clip432)" style="stroke:#000000; stroke-linecap:round; stroke-linejoin:round; stroke-width:2; stroke-opacity:0.1; fill:none" points="
  156.274,1242.94 2352.76,1242.94 
  "/>
<polyline clip-path="url(#clip432)" style="stroke:#000000; stroke-linecap:round; stroke-linejoin:round; stroke-width:2; stroke-opacity:0.1; fill:none" points="
  156.274,971.889 2352.76,971.889 
  "/>
<polyline clip-path="url(#clip432)" style="stroke:#000000; stroke-linecap:round; stroke-linejoin:round; stroke-width:2; stroke-opacity:0.1; fill:none" points="
  156.274,700.837 2352.76,700.837 
  "/>
<polyline clip-path="url(#clip432)" style="stroke:#000000; stroke-linecap:round; stroke-linejoin:round; stroke-width:2; stroke-opacity:0.1; fill:none" points="
  156.274,429.786 2352.76,429.786 
  "/>
<polyline clip-path="url(#clip432)" style="stroke:#000000; stroke-linecap:round; stroke-linejoin:round; stroke-width:2; stroke-opacity:0.1; fill:none" points="
  156.274,158.734 2352.76,158.734 
  "/>
<polyline clip-path="url(#clip430)" style="stroke:#000000; stroke-linecap:round; stroke-linejoin:round; stroke-width:4; stroke-opacity:1; fill:none" points="
  156.274,1486.45 156.274,47.2441 
  "/>
<polyline clip-path="url(#clip430)" style="stroke:#000000; stroke-linecap:round; stroke-linejoin:round; stroke-width:4; stroke-opacity:1; fill:none" points="
  156.274,1242.94 175.172,1242.94 
  "/>
<polyline clip-path="url(#clip430)" style="stroke:#000000; stroke-linecap:round; stroke-linejoin:round; stroke-width:4; stroke-opacity:1; fill:none" points="
  156.274,971.889 175.172,971.889 
  "/>
<polyline clip-path="url(#clip430)" style="stroke:#000000; stroke-linecap:round; stroke-linejoin:round; stroke-width:4; stroke-opacity:1; fill:none" points="
  156.274,700.837 175.172,700.837 
  "/>
<polyline clip-path="url(#clip430)" style="stroke:#000000; stroke-linecap:round; stroke-linejoin:round; stroke-width:4; stroke-opacity:1; fill:none" points="
  156.274,429.786 175.172,429.786 
  "/>
<polyline clip-path="url(#clip430)" style="stroke:#000000; stroke-linecap:round; stroke-linejoin:round; stroke-width:4; stroke-opacity:1; fill:none" points="
  156.274,158.734 175.172,158.734 
  "/>
<path clip-path="url(#clip430)" d="M63.0985 1228.74 Q59.4875 1228.74 57.6588 1232.3 Q55.8532 1235.85 55.8532 1242.97 Q55.8532 1250.08 57.6588 1253.65 Q59.4875 1257.19 63.0985 1257.19 Q66.7328 1257.19 68.5383 1253.65 Q70.367 1250.08 70.367 1242.97 Q70.367 1235.85 68.5383 1232.3 Q66.7328 1228.74 63.0985 1228.74 M63.0985 1225.04 Q68.9087 1225.04 71.9642 1229.64 Q75.0429 1234.22 75.0429 1242.97 Q75.0429 1251.7 71.9642 1256.31 Q68.9087 1260.89 63.0985 1260.89 Q57.2884 1260.89 54.2097 1256.31 Q51.1542 1251.7 51.1542 1242.97 Q51.1542 1234.22 54.2097 1229.64 Q57.2884 1225.04 63.0985 1225.04 Z" fill="#000000" fill-rule="evenodd" fill-opacity="1" /><path clip-path="url(#clip430)" d="M83.2605 1254.34 L88.1447 1254.34 L88.1447 1260.22 L83.2605 1260.22 L83.2605 1254.34 Z" fill="#000000" fill-rule="evenodd" fill-opacity="1" /><path clip-path="url(#clip430)" d="M108.33 1228.74 Q104.719 1228.74 102.89 1232.3 Q101.084 1235.85 101.084 1242.97 Q101.084 1250.08 102.89 1253.65 Q104.719 1257.19 108.33 1257.19 Q111.964 1257.19 113.77 1253.65 Q115.598 1250.08 115.598 1242.97 Q115.598 1235.85 113.77 1232.3 Q111.964 1228.74 108.33 1228.74 M108.33 1225.04 Q114.14 1225.04 117.195 1229.64 Q120.274 1234.22 120.274 1242.97 Q120.274 1251.7 117.195 1256.31 Q114.14 1260.89 108.33 1260.89 Q102.52 1260.89 99.4409 1256.31 Q96.3854 1251.7 96.3854 1242.97 Q96.3854 1234.22 99.4409 1229.64 Q102.52 1225.04 108.33 1225.04 Z" fill="#000000" fill-rule="evenodd" fill-opacity="1" /><path clip-path="url(#clip430)" d="M63.7467 957.687 Q60.1356 957.687 58.3069 961.252 Q56.5014 964.794 56.5014 971.923 Q56.5014 979.03 58.3069 982.595 Q60.1356 986.136 63.7467 986.136 Q67.3809 986.136 69.1865 982.595 Q71.0152 979.03 71.0152 971.923 Q71.0152 964.794 69.1865 961.252 Q67.3809 957.687 63.7467 957.687 M63.7467 953.984 Q69.5568 953.984 72.6124 958.59 Q75.6911 963.173 75.6911 971.923 Q75.6911 980.65 72.6124 985.257 Q69.5568 989.84 63.7467 989.84 Q57.9365 989.84 54.8578 985.257 Q51.8023 980.65 51.8023 971.923 Q51.8023 963.173 54.8578 958.59 Q57.9365 953.984 63.7467 953.984 Z" fill="#000000" fill-rule="evenodd" fill-opacity="1" /><path clip-path="url(#clip430)" d="M83.9086 983.289 L88.7928 983.289 L88.7928 989.169 L83.9086 989.169 L83.9086 983.289 Z" fill="#000000" fill-rule="evenodd" fill-opacity="1" /><path clip-path="url(#clip430)" d="M113.145 970.534 Q116.501 971.252 118.376 973.52 Q120.274 975.789 120.274 979.122 Q120.274 984.238 116.756 987.039 Q113.237 989.84 106.756 989.84 Q104.58 989.84 102.265 989.4 Q99.9733 988.983 97.5197 988.127 L97.5197 983.613 Q99.4641 984.747 101.779 985.326 Q104.094 985.905 106.617 985.905 Q111.015 985.905 113.307 984.169 Q115.621 982.432 115.621 979.122 Q115.621 976.067 113.469 974.354 Q111.339 972.618 107.52 972.618 L103.492 972.618 L103.492 968.775 L107.705 968.775 Q111.154 968.775 112.983 967.409 Q114.811 966.021 114.811 963.428 Q114.811 960.766 112.913 959.354 Q111.038 957.919 107.52 957.919 Q105.598 957.919 103.399 958.335 Q101.2 958.752 98.5613 959.632 L98.5613 955.465 Q101.223 954.724 103.538 954.354 Q105.876 953.984 107.936 953.984 Q113.26 953.984 116.362 956.414 Q119.464 958.821 119.464 962.942 Q119.464 965.812 117.82 967.803 Q116.177 969.771 113.145 970.534 Z" fill="#000000" fill-rule="evenodd" fill-opacity="1" /><path clip-path="url(#clip430)" d="M62.9365 686.636 Q59.3254 686.636 57.4967 690.201 Q55.6912 693.742 55.6912 700.872 Q55.6912 707.978 57.4967 711.543 Q59.3254 715.085 62.9365 715.085 Q66.5707 715.085 68.3763 711.543 Q70.205 707.978 70.205 700.872 Q70.205 693.742 68.3763 690.201 Q66.5707 686.636 62.9365 686.636 M62.9365 682.932 Q68.7467 682.932 71.8022 687.539 Q74.8809 692.122 74.8809 700.872 Q74.8809 709.599 71.8022 714.205 Q68.7467 718.788 62.9365 718.788 Q57.1264 718.788 54.0477 714.205 Q50.9921 709.599 50.9921 700.872 Q50.9921 692.122 54.0477 687.539 Q57.1264 682.932 62.9365 682.932 Z" fill="#000000" fill-rule="evenodd" fill-opacity="1" /><path clip-path="url(#clip430)" d="M83.0984 712.238 L87.9827 712.238 L87.9827 718.117 L83.0984 718.117 L83.0984 712.238 Z" fill="#000000" fill-rule="evenodd" fill-opacity="1" /><path clip-path="url(#clip430)" d="M108.746 698.974 Q105.598 698.974 103.746 701.126 Q101.918 703.279 101.918 707.029 Q101.918 710.756 103.746 712.932 Q105.598 715.085 108.746 715.085 Q111.895 715.085 113.723 712.932 Q115.575 710.756 115.575 707.029 Q115.575 703.279 113.723 701.126 Q111.895 698.974 108.746 698.974 M118.029 684.321 L118.029 688.58 Q116.27 687.747 114.464 687.307 Q112.682 686.867 110.922 686.867 Q106.293 686.867 103.839 689.992 Q101.409 693.117 101.061 699.437 Q102.427 697.423 104.487 696.358 Q106.547 695.27 109.024 695.27 Q114.233 695.27 117.242 698.441 Q120.274 701.589 120.274 707.029 Q120.274 712.353 117.126 715.571 Q113.978 718.788 108.746 718.788 Q102.751 718.788 99.5798 714.205 Q96.4085 709.599 96.4085 700.872 Q96.4085 692.677 100.297 687.816 Q104.186 682.932 110.737 682.932 Q112.496 682.932 114.279 683.279 Q116.084 683.627 118.029 684.321 Z" fill="#000000" fill-rule="evenodd" fill-opacity="1" /><path clip-path="url(#clip430)" d="M63.2837 415.584 Q59.6726 415.584 57.8439 419.149 Q56.0384 422.691 56.0384 429.82 Q56.0384 436.927 57.8439 440.492 Q59.6726 444.033 63.2837 444.033 Q66.918 444.033 68.7235 440.492 Q70.5522 436.927 70.5522 429.82 Q70.5522 422.691 68.7235 419.149 Q66.918 415.584 63.2837 415.584 M63.2837 411.881 Q69.0939 411.881 72.1494 416.487 Q75.2281 421.07 75.2281 429.82 Q75.2281 438.547 72.1494 443.154 Q69.0939 447.737 63.2837 447.737 Q57.4736 447.737 54.3949 443.154 Q51.3393 438.547 51.3393 429.82 Q51.3393 421.07 54.3949 416.487 Q57.4736 411.881 63.2837 411.881 Z" fill="#000000" fill-rule="evenodd" fill-opacity="1" /><path clip-path="url(#clip430)" d="M83.4457 441.186 L88.3299 441.186 L88.3299 447.066 L83.4457 447.066 L83.4457 441.186 Z" fill="#000000" fill-rule="evenodd" fill-opacity="1" /><path clip-path="url(#clip430)" d="M98.6539 446.348 L98.6539 442.089 Q100.413 442.922 102.219 443.362 Q104.024 443.802 105.76 443.802 Q110.39 443.802 112.82 440.7 Q115.274 437.575 115.621 431.232 Q114.279 433.223 112.219 434.288 Q110.158 435.353 107.658 435.353 Q102.473 435.353 99.4409 432.228 Q96.4317 429.08 96.4317 423.64 Q96.4317 418.316 99.5798 415.098 Q102.728 411.881 107.959 411.881 Q113.955 411.881 117.103 416.487 Q120.274 421.07 120.274 429.82 Q120.274 437.992 116.385 442.876 Q112.52 447.737 105.969 447.737 Q104.209 447.737 102.404 447.39 Q100.598 447.042 98.6539 446.348 M107.959 431.695 Q111.108 431.695 112.936 429.543 Q114.788 427.39 114.788 423.64 Q114.788 419.913 112.936 417.76 Q111.108 415.584 107.959 415.584 Q104.811 415.584 102.959 417.76 Q101.131 419.913 101.131 423.64 Q101.131 427.39 102.959 429.543 Q104.811 431.695 107.959 431.695 Z" fill="#000000" fill-rule="evenodd" fill-opacity="1" /><path clip-path="url(#clip430)" d="M55.506 172.079 L63.1448 172.079 L63.1448 145.713 L54.8347 147.38 L54.8347 143.121 L63.0985 141.454 L67.7744 141.454 L67.7744 172.079 L75.4133 172.079 L75.4133 176.014 L55.506 176.014 L55.506 172.079 Z" fill="#000000" fill-rule="evenodd" fill-opacity="1" /><path clip-path="url(#clip430)" d="M84.8577 170.135 L89.7419 170.135 L89.7419 176.014 L84.8577 176.014 L84.8577 170.135 Z" fill="#000000" fill-rule="evenodd" fill-opacity="1" /><path clip-path="url(#clip430)" d="M103.955 172.079 L120.274 172.079 L120.274 176.014 L98.3298 176.014 L98.3298 172.079 Q100.992 169.324 105.575 164.695 Q110.182 160.042 111.362 158.699 Q113.608 156.176 114.487 154.44 Q115.39 152.681 115.39 150.991 Q115.39 148.237 113.445 146.5 Q111.524 144.764 108.422 144.764 Q106.223 144.764 103.77 145.528 Q101.339 146.292 98.5613 147.843 L98.5613 143.121 Q101.385 141.987 103.839 141.408 Q106.293 140.829 108.33 140.829 Q113.7 140.829 116.895 143.514 Q120.089 146.2 120.089 150.69 Q120.089 152.82 119.279 154.741 Q118.492 156.639 116.385 159.232 Q115.807 159.903 112.705 163.121 Q109.603 166.315 103.955 172.079 Z" fill="#000000" fill-rule="evenodd" fill-opacity="1" /><polyline clip-path="url(#clip432)" style="stroke:#009af9; stroke-linecap:round; stroke-linejoin:round; stroke-width:16; stroke-opacity:1; fill:none" stroke-dasharray="8, 16" points="
  218.439,1107.24 228.852,1088.14 239.264,1073.55 249.677,1064.75 260.09,1062.21 270.503,1065.72 280.916,1074.81 291.329,1088.99 301.741,1107.88 312.154,1131.09 
  322.567,1158.14 332.98,1188.4 343.393,1220.94 353.805,1254.48 364.218,1287.47 374.631,1318.29 385.044,1345.71 395.457,1369.2 405.87,1388.92 416.282,1405.15 
  426.695,1417.55 437.108,1424.89 447.521,1425.54 457.934,1418.55 468.347,1404.25 478.759,1384.15 489.172,1360.22 499.585,1334.11 509.998,1306.78 520.411,1278.37 
  530.824,1248.47 541.236,1216.46 551.649,1182.37 562.062,1147.85 572.475,1116.54 582.888,1092.88 593.301,1079.42 603.713,1074.61 614.126,1073.82 624.539,1073.04 
  634.952,1072.05 645.365,1074.28 655.777,1084.11 666.19,1104.14 676.603,1133.74 687.016,1169.29 697.429,1205.78 707.842,1239.06 718.254,1267.57 728.667,1292.5 
  739.08,1316.62 749.493,1342.37 759.906,1370.32 770.319,1397.97 780.731,1419.99 791.144,1431.11 801.557,1430.05 811.97,1420.11 822.383,1406.12 832.796,1391.19 
  843.208,1375.52 853.621,1357.2 864.034,1333.95 874.447,1304.82 884.86,1271 895.273,1235.3 905.685,1200.74 916.098,1169.51 926.511,1142.43 936.924,1117.78 
  947.337,1090.94 957.749,1059.73 968.162,1038.15 978.575,1057.71 988.988,1114.63 999.401,1143.44 1009.81,1124.63 1020.23,1104.41 1030.64,1070.88 1041.05,1005.78 
  1051.46,1018.05 1061.88,1166.76 1072.29,1366.2 1082.7,1445.72 1093.12,1395.04 1103.53,1344.35 1113.94,1348.86 1124.35,1381.8 1134.77,1410.02 1145.18,1418.57 
  1155.59,1411.52 1166.01,1401.68 1176.42,1398.38 1186.83,1401.98 1197.24,1406.62 1207.66,1405.73 1218.07,1392.8 1228.48,1350.17 1238.9,1231.95 1249.31,992.331 
  1259.72,678.202 1270.13,420.693 1280.55,293.648 1290.96,273.421 1301.37,304.01 1311.79,341.17 1322.2,361.354 1332.61,361.308 1343.02,350.134 1353.44,332.991 
  1363.85,312.958 1374.26,302.136 1384.68,309.597 1395.09,326.09 1405.5,336.171 1415.91,349.122 1426.33,381.858 1436.74,398.611 1447.15,379.121 1457.57,378.475 
  1467.98,375.644 1478.39,338.566 1488.8,273.659 1499.22,231.678 1509.63,248.542 1520.04,300.155 1530.45,358.663 1540.87,405.756 1551.28,429.007 1561.69,422.729 
  1572.11,394.482 1582.52,357.509 1592.93,318.136 1603.34,278.282 1613.76,246.466 1624.17,239.719 1634.58,269.299 1645,326.206 1655.41,387.077 1665.82,431.097 
  1676.23,447.523 1686.65,433.933 1697.06,394.068 1707.47,337.219 1717.89,277.421 1728.3,231.297 1738.71,214.117 1749.12,234.256 1759.54,288.296 1769.95,360.549 
  1780.36,428.553 1790.78,471.662 1801.19,477.671 1811.6,444.425 1822.01,378.868 1832.43,296.558 1842.84,218.584 1853.25,166.726 1863.67,173.118 1874.08,283.162 
  1884.49,461.858 1894.9,564.75 1905.32,534.427 1915.73,451.314 1926.14,386.512 1936.56,346.645 1946.97,314.144 1957.38,277.46 1967.79,236.889 1978.21,204.502 
  1988.62,199.42 1999.03,236.258 2009.45,315.048 2019.86,417.975 2030.27,510.369 2040.68,549.395 2051.1,508.312 2061.51,403.048 2071.92,285.679 2082.33,203.495 
  2092.75,171.344 2103.16,179.606 2113.57,214.958 2123.99,274.885 2134.4,367.253 2144.81,484.265 2155.22,571.458 2165.64,557.246 2176.05,436.438 2186.46,285.202 
  2196.88,180.351 2207.29,143.669 2217.7,159.208 2228.11,205.368 2238.53,266.6 2248.94,333.035 2259.35,398.643 2269.77,460.015 2280.18,515.441 2290.59,564.22 
  
  "/>
<polyline clip-path="url(#clip432)" style="stroke:#e26f46; stroke-linecap:round; stroke-linejoin:round; stroke-width:4; stroke-opacity:1; fill:none" points="
  218.439,1107.24 228.852,1087.98 239.264,1073.79 249.677,1065.11 260.09,1062.24 270.503,1065.27 280.916,1074.09 291.329,1088.43 301.741,1107.8 312.154,1131.59 
  322.567,1159.02 332.98,1189.18 343.393,1221.1 353.805,1253.73 364.218,1286 374.631,1316.88 385.044,1345.33 395.457,1370.45 405.87,1391.41 416.282,1407.52 
  426.695,1418.26 437.108,1423.27 447.521,1422.4 457.934,1415.68 468.347,1403.31 478.759,1385.72 489.172,1363.46 499.585,1337.27 509.998,1308 520.411,1276.61 
  530.824,1244.11 541.236,1211.58 551.649,1180.08 562.062,1150.62 572.475,1124.18 582.888,1101.61 593.301,1083.66 603.713,1070.91 614.126,1063.77 624.539,1062.47 
  634.952,1067.07 645.365,1077.41 655.777,1093.15 666.19,1113.78 676.603,1138.62 687.016,1166.87 697.429,1197.6 707.842,1229.81 718.254,1262.45 728.667,1294.46 
  739.08,1324.78 749.493,1352.43 759.906,1376.51 770.319,1396.22 780.731,1410.94 791.144,1420.17 801.557,1423.62 811.97,1421.17 822.383,1412.9 832.796,1399.09 
  843.208,1380.18 853.621,1356.79 864.034,1329.69 874.447,1299.75 884.86,1267.96 895.273,1235.36 905.685,1203 916.098,1171.94 926.511,1143.2 936.924,1117.72 
  947.337,1096.32 957.749,1079.71 968.162,1068.43 978.575,1062.84 988.988,1063.13 999.401,1069.29 1009.81,1081.11 1020.23,1098.22 1030.64,1120.05 1041.05,1145.89 
  1051.46,1174.9 1061.88,1206.13 1072.29,1238.56 1082.7,1271.13 1093.12,1302.79 1103.53,1332.49 1113.94,1359.27 1124.35,1382.25 1134.77,1400.68 1145.18,1413.97 
  1155.59,1421.67 1166.01,1423.54 1176.42,1419.52 1186.83,1409.73 1197.24,1394.5 1207.66,1374.33 1218.07,1349.86 1228.48,1321.91 1238.9,1291.37 1249.31,1259.26 
  1259.72,338.123 1270.13,336.63 1280.55,337.989 1290.96,342.513 1301.37,348.816 1311.79,354.234 1322.2,355.839 1332.61,351.67 1343.02,341.731 1353.44,328.333 
  1363.85,315.583 1374.26,308.135 1384.68,309.564 1395.09,320.928 1405.5,340.042 1415.91,361.795 1426.33,379.509 1436.74,386.982 1447.15,380.585 1457.57,360.739 
  1467.98,332.193 1478.39,302.938 1488.8,281.971 1499.22,276.539 1509.63,289.706 1520.04,319.041 1530.45,356.927 1540.87,392.516 1551.28,414.836 1561.69,416.158 
  1572.11,394.594 1582.52,355.075 1592.93,308.294 1603.34,267.828 1613.76,246.197 1624.17,251.007 1634.58,282.368 1645,332.434 1655.41,387.318 1665.82,430.946 
  1676.23,449.756 1686.65,436.893 1697.06,394.597 1707.47,333.975 1717.89,272.111 1728.3,227.255 1738.71,213.44 1749.12,236.124 1759.54,290.192 1769.95,361.023 
  1780.36,428.427 1790.78,472.402 1801.19,479.063 1811.6,444.989 1822.01,378.641 1832.43,298.311 1842.84,227.092 1853.25,186.235 1863.67,188.818 1874.08,235.605 
  1884.49,314.391 1894.9,403.155 1905.32,476.21 1915.73,511.634 1926.14,497.84 1936.56,437.306 1946.97,346.293 1957.38,250.498 1967.79,177.798 1978.21,150.144 
  1988.62,176.943 1999.03,251.939 2009.45,354.593 2019.86,455.697 2030.27,525.681 2040.68,543.259 2051.1,501.886 2061.51,412.065 2071.92,298.731 2082.33,194.331 
  2092.75,129.542 2103.16,124.258 2113.57,181.503 2123.99,286.137 2134.4,408.823 2144.81,514.252 2155.22,571.301 2165.64,562.218 2176.05,488.111 2186.46,369.063 
  2196.88,238.708 2207.29,134.731 2217.7,87.9763 2228.11,113.305 2238.53,204.913 2248.94,337.58 2259.35,473.592 2269.77,573.472 2280.18,607.424 2290.59,564.221 
  
  "/>
<path clip-path="url(#clip430)" d="
M229.49 250.738 L700.371 250.738 L700.371 95.2176 L229.49 95.2176  Z
  " fill="#ffffff" fill-rule="evenodd" fill-opacity="1"/>
<polyline clip-path="url(#clip430)" style="stroke:#000000; stroke-linecap:round; stroke-linejoin:round; stroke-width:4; stroke-opacity:1; fill:none" points="
  229.49,250.738 700.371,250.738 700.371,95.2176 229.49,95.2176 229.49,250.738 
  "/>
<polyline clip-path="url(#clip430)" style="stroke:#009af9; stroke-linecap:round; stroke-linejoin:round; stroke-width:4; stroke-opacity:1; fill:none" stroke-dasharray="2, 4" points="
  253.896,147.058 400.328,147.058 
  "/>
<path clip-path="url(#clip430)" d="M429.409 133.62 L429.409 146.606 L435.289 146.606 Q438.552 146.606 440.335 144.916 Q442.117 143.227 442.117 140.102 Q442.117 137 440.335 135.31 Q438.552 133.62 435.289 133.62 L429.409 133.62 M424.733 129.778 L435.289 129.778 Q441.099 129.778 444.062 132.416 Q447.048 135.032 447.048 140.102 Q447.048 145.217 444.062 147.833 Q441.099 150.449 435.289 150.449 L429.409 150.449 L429.409 164.338 L424.733 164.338 L424.733 129.778 Z" fill="#000000" fill-rule="evenodd" fill-opacity="1" /><path clip-path="url(#clip430)" d="M467.325 142.393 Q466.608 141.977 465.751 141.791 Q464.918 141.583 463.899 141.583 Q460.288 141.583 458.344 143.944 Q456.423 146.282 456.423 150.68 L456.423 164.338 L452.14 164.338 L452.14 138.412 L456.423 138.412 L456.423 142.44 Q457.765 140.078 459.918 138.944 Q462.071 137.787 465.149 137.787 Q465.589 137.787 466.122 137.856 Q466.654 137.903 467.302 138.018 L467.325 142.393 Z" fill="#000000" fill-rule="evenodd" fill-opacity="1" /><path clip-path="url(#clip430)" d="M492.927 150.31 L492.927 152.393 L473.344 152.393 Q473.622 156.791 475.983 159.106 Q478.367 161.398 482.603 161.398 Q485.057 161.398 487.348 160.796 Q489.663 160.194 491.932 158.99 L491.932 163.018 Q489.64 163.99 487.233 164.5 Q484.825 165.009 482.348 165.009 Q476.145 165.009 472.511 161.398 Q468.899 157.787 468.899 151.629 Q468.899 145.264 472.325 141.537 Q475.774 137.787 481.608 137.787 Q486.839 137.787 489.872 141.166 Q492.927 144.523 492.927 150.31 M488.668 149.06 Q488.622 145.565 486.7 143.481 Q484.802 141.398 481.654 141.398 Q478.089 141.398 475.936 143.412 Q473.807 145.426 473.483 149.083 L488.668 149.06 Z" fill="#000000" fill-rule="evenodd" fill-opacity="1" /><path clip-path="url(#clip430)" d="M516.978 142.347 L516.978 128.319 L521.237 128.319 L521.237 164.338 L516.978 164.338 L516.978 160.449 Q515.635 162.763 513.575 163.898 Q511.538 165.009 508.668 165.009 Q503.969 165.009 501.006 161.259 Q498.066 157.509 498.066 151.398 Q498.066 145.287 501.006 141.537 Q503.969 137.787 508.668 137.787 Q511.538 137.787 513.575 138.921 Q515.635 140.032 516.978 142.347 M502.464 151.398 Q502.464 156.097 504.385 158.782 Q506.33 161.444 509.709 161.444 Q513.089 161.444 515.033 158.782 Q516.978 156.097 516.978 151.398 Q516.978 146.699 515.033 144.037 Q513.089 141.352 509.709 141.352 Q506.33 141.352 504.385 144.037 Q502.464 146.699 502.464 151.398 Z" fill="#000000" fill-rule="evenodd" fill-opacity="1" /><path clip-path="url(#clip430)" d="M530.01 138.412 L534.269 138.412 L534.269 164.338 L530.01 164.338 L530.01 138.412 M530.01 128.319 L534.269 128.319 L534.269 133.713 L530.01 133.713 L530.01 128.319 Z" fill="#000000" fill-rule="evenodd" fill-opacity="1" /><path clip-path="url(#clip430)" d="M561.839 139.407 L561.839 143.389 Q560.033 142.393 558.205 141.907 Q556.399 141.398 554.547 141.398 Q550.404 141.398 548.112 144.037 Q545.82 146.652 545.82 151.398 Q545.82 156.143 548.112 158.782 Q550.404 161.398 554.547 161.398 Q556.399 161.398 558.205 160.912 Q560.033 160.402 561.839 159.407 L561.839 163.342 Q560.056 164.176 558.135 164.592 Q556.237 165.009 554.084 165.009 Q548.228 165.009 544.779 161.328 Q541.33 157.648 541.33 151.398 Q541.33 145.055 544.802 141.421 Q548.297 137.787 554.362 137.787 Q556.33 137.787 558.205 138.203 Q560.08 138.597 561.839 139.407 Z" fill="#000000" fill-rule="evenodd" fill-opacity="1" /><path clip-path="url(#clip430)" d="M573.459 131.051 L573.459 138.412 L582.232 138.412 L582.232 141.722 L573.459 141.722 L573.459 155.796 Q573.459 158.967 574.316 159.87 Q575.195 160.773 577.857 160.773 L582.232 160.773 L582.232 164.338 L577.857 164.338 Q572.927 164.338 571.052 162.509 Q569.177 160.657 569.177 155.796 L569.177 141.722 L566.052 141.722 L566.052 138.412 L569.177 138.412 L569.177 131.051 L573.459 131.051 Z" fill="#000000" fill-rule="evenodd" fill-opacity="1" /><path clip-path="url(#clip430)" d="M587.834 138.412 L592.093 138.412 L592.093 164.338 L587.834 164.338 L587.834 138.412 M587.834 128.319 L592.093 128.319 L592.093 133.713 L587.834 133.713 L587.834 128.319 Z" fill="#000000" fill-rule="evenodd" fill-opacity="1" /><path clip-path="url(#clip430)" d="M611.051 141.398 Q607.626 141.398 605.635 144.083 Q603.644 146.745 603.644 151.398 Q603.644 156.051 605.612 158.736 Q607.602 161.398 611.051 161.398 Q614.454 161.398 616.445 158.713 Q618.436 156.027 618.436 151.398 Q618.436 146.791 616.445 144.106 Q614.454 141.398 611.051 141.398 M611.051 137.787 Q616.607 137.787 619.778 141.398 Q622.95 145.009 622.95 151.398 Q622.95 157.764 619.778 161.398 Q616.607 165.009 611.051 165.009 Q605.473 165.009 602.302 161.398 Q599.153 157.764 599.153 151.398 Q599.153 145.009 602.302 141.398 Q605.473 137.787 611.051 137.787 Z" fill="#000000" fill-rule="evenodd" fill-opacity="1" /><path clip-path="url(#clip430)" d="M651.561 148.689 L651.561 164.338 L647.301 164.338 L647.301 148.828 Q647.301 145.148 645.866 143.319 Q644.431 141.49 641.561 141.49 Q638.112 141.49 636.121 143.69 Q634.13 145.889 634.13 149.685 L634.13 164.338 L629.848 164.338 L629.848 138.412 L634.13 138.412 L634.13 142.44 Q635.658 140.102 637.718 138.944 Q639.801 137.787 642.51 137.787 Q646.977 137.787 649.269 140.565 Q651.561 143.319 651.561 148.689 Z" fill="#000000" fill-rule="evenodd" fill-opacity="1" /><polyline clip-path="url(#clip430)" style="stroke:#e26f46; stroke-linecap:round; stroke-linejoin:round; stroke-width:4; stroke-opacity:1; fill:none" points="
  253.896,198.898 400.328,198.898 
  "/>
<path clip-path="url(#clip430)" d="M424.733 181.618 L446.585 181.618 L446.585 185.553 L429.409 185.553 L429.409 195.784 L445.867 195.784 L445.867 199.719 L429.409 199.719 L429.409 212.242 L447.001 212.242 L447.001 216.178 L424.733 216.178 L424.733 181.618 Z" fill="#000000" fill-rule="evenodd" fill-opacity="1" /><path clip-path="url(#clip430)" d="M476.052 190.252 L466.677 202.867 L476.538 216.178 L471.515 216.178 L463.969 205.992 L456.423 216.178 L451.4 216.178 L461.469 202.613 L452.256 190.252 L457.279 190.252 L464.154 199.488 L471.029 190.252 L476.052 190.252 Z" fill="#000000" fill-rule="evenodd" fill-opacity="1" /><path clip-path="url(#clip430)" d="M494.339 203.145 Q489.177 203.145 487.186 204.326 Q485.196 205.506 485.196 208.354 Q485.196 210.622 486.677 211.965 Q488.182 213.284 490.751 213.284 Q494.293 213.284 496.422 210.784 Q498.575 208.261 498.575 204.094 L498.575 203.145 L494.339 203.145 M502.834 201.386 L502.834 216.178 L498.575 216.178 L498.575 212.242 Q497.117 214.603 494.941 215.738 Q492.765 216.849 489.617 216.849 Q485.635 216.849 483.274 214.627 Q480.936 212.381 480.936 208.631 Q480.936 204.256 483.853 202.034 Q486.793 199.812 492.603 199.812 L498.575 199.812 L498.575 199.395 Q498.575 196.455 496.631 194.858 Q494.71 193.238 491.214 193.238 Q488.992 193.238 486.885 193.77 Q484.779 194.303 482.835 195.367 L482.835 191.432 Q485.173 190.53 487.372 190.09 Q489.571 189.627 491.654 189.627 Q497.279 189.627 500.057 192.543 Q502.834 195.46 502.834 201.386 Z" fill="#000000" fill-rule="evenodd" fill-opacity="1" /><path clip-path="url(#clip430)" d="M530.265 191.247 L530.265 195.229 Q528.459 194.233 526.631 193.747 Q524.825 193.238 522.973 193.238 Q518.83 193.238 516.538 195.877 Q514.246 198.492 514.246 203.238 Q514.246 207.983 516.538 210.622 Q518.83 213.238 522.973 213.238 Q524.825 213.238 526.631 212.752 Q528.459 212.242 530.265 211.247 L530.265 215.182 Q528.482 216.016 526.561 216.432 Q524.663 216.849 522.51 216.849 Q516.654 216.849 513.205 213.168 Q509.756 209.488 509.756 203.238 Q509.756 196.895 513.228 193.261 Q516.723 189.627 522.788 189.627 Q524.756 189.627 526.631 190.043 Q528.506 190.437 530.265 191.247 Z" fill="#000000" fill-rule="evenodd" fill-opacity="1" /><path clip-path="url(#clip430)" d="M541.885 182.891 L541.885 190.252 L550.658 190.252 L550.658 193.562 L541.885 193.562 L541.885 207.636 Q541.885 210.807 542.742 211.71 Q543.621 212.613 546.283 212.613 L550.658 212.613 L550.658 216.178 L546.283 216.178 Q541.353 216.178 539.478 214.349 Q537.603 212.497 537.603 207.636 L537.603 193.562 L534.478 193.562 L534.478 190.252 L537.603 190.252 L537.603 182.891 L541.885 182.891 Z" fill="#000000" fill-rule="evenodd" fill-opacity="1" /></svg>
