<?xml version="1.0" encoding="utf-8"?>
<svg xmlns="http://www.w3.org/2000/svg" xmlns:xlink="http://www.w3.org/1999/xlink" width="600" height="400" viewBox="0 0 2400 1600">
<defs>
  <clipPath id="clip890">
    <rect x="0" y="0" width="2400" height="1600"/>
  </clipPath>
</defs>
<path clip-path="url(#clip890)" d="
M0 1600 L2400 1600 L2400 0 L0 0  Z
  " fill="#ffffff" fill-rule="evenodd" fill-opacity="1"/>
<defs>
  <clipPath id="clip891">
    <rect x="480" y="0" width="1681" height="1600"/>
  </clipPath>
</defs>
<path clip-path="url(#clip890)" d="
M156.274 1486.45 L2352.76 1486.45 L2352.76 47.2441 L156.274 47.2441  Z
  " fill="#ffffff" fill-rule="evenodd" fill-opacity="1"/>
<defs>
  <clipPath id="clip892">
    <rect x="156" y="47" width="2197" height="1440"/>
  </clipPath>
</defs>
<polyline clip-path="url(#clip892)" style="stroke:#000000; stroke-linecap:round; stroke-linejoin:round; stroke-width:2; stroke-opacity:0.1; fill:none" points="
  218.439,1486.45 218.439,47.2441 
  "/>
<polyline clip-path="url(#clip892)" style="stroke:#000000; stroke-linecap:round; stroke-linejoin:round; stroke-width:2; stroke-opacity:0.1; fill:none" points="
  736.477,1486.45 736.477,47.2441 
  "/>
<polyline clip-path="url(#clip892)" style="stroke:#000000; stroke-linecap:round; stroke-linejoin:round; stroke-width:2; stroke-opacity:0.1; fill:none" points="
  1254.52,1486.45 1254.52,47.2441 
  "/>
<polyline clip-path="url(#clip892)" style="stroke:#000000; stroke-linecap:round; stroke-linejoin:round; stroke-width:2; stroke-opacity:0.1; fill:none" points="
  1772.55,1486.45 1772.55,47.2441 
  "/>
<polyline clip-path="url(#clip892)" style="stroke:#000000; stroke-linecap:round; stroke-linejoin:round; stroke-width:2; stroke-opacity:0.1; fill:none" points="
  2290.59,1486.45 2290.59,47.2441 
  "/>
<polyline clip-path="url(#clip890)" style="stroke:#000000; stroke-linecap:round; stroke-linejoin:round; stroke-width:4; stroke-opacity:1; fill:none" points="
  156.274,1486.45 2352.76,1486.45 
  "/>
<polyline clip-path="url(#clip890)" style="stroke:#000000; stroke-linecap:round; stroke-linejoin:round; stroke-width:4; stroke-opacity:1; fill:none" points="
  218.439,1486.45 218.439,1467.55 
  "/>
<polyline clip-path="url(#clip890)" style="stroke:#000000; stroke-linecap:round; stroke-linejoin:round; stroke-width:4; stroke-opacity:1; fill:none" points="
  736.477,1486.45 736.477,1467.55 
  "/>
<polyline clip-path="url(#clip890)" style="stroke:#000000; stroke-linecap:round; stroke-linejoin:round; stroke-width:4; stroke-opacity:1; fill:none" points="
  1254.52,1486.45 1254.52,1467.55 
  "/>
<polyline clip-path="url(#clip890)" style="stroke:#000000; stroke-linecap:round; stroke-linejoin:round; stroke-width:4; stroke-opacity:1; fill:none" points="
  1772.55,1486.45 1772.55,1467.55 
  "/>
<polyline clip-path="url(#clip890)" style="stroke:#000000; stroke-linecap:round; stroke-linejoin:round; stroke-width:4; stroke-opacity:1; fill:none" points="
  2290.59,1486.45 2290.59,1467.55 
  "/>
<path clip-path="url(#clip890)" d="M164.967 1532.02 L194.643 1532.02 L194.643 1535.95 L164.967 1535.95 L164.967 1532.02 Z" fill="#000000" fill-rule="evenodd" fill-opacity="1" /><path clip-path="url(#clip890)" d="M205.545 1544.91 L213.184 1544.91 L213.184 1518.55 L204.874 1520.21 L204.874 1515.95 L213.138 1514.29 L217.814 1514.29 L217.814 1544.91 L225.453 1544.91 L225.453 1548.85 L205.545 1548.85 L205.545 1544.91 Z" fill="#000000" fill-rule="evenodd" fill-opacity="1" /><path clip-path="url(#clip890)" d="M234.897 1542.97 L239.781 1542.97 L239.781 1548.85 L234.897 1548.85 L234.897 1542.97 Z" fill="#000000" fill-rule="evenodd" fill-opacity="1" /><path clip-path="url(#clip890)" d="M259.966 1517.37 Q256.355 1517.37 254.527 1520.93 Q252.721 1524.47 252.721 1531.6 Q252.721 1538.71 254.527 1542.27 Q256.355 1545.82 259.966 1545.82 Q263.601 1545.82 265.406 1542.27 Q267.235 1538.71 267.235 1531.6 Q267.235 1524.47 265.406 1520.93 Q263.601 1517.37 259.966 1517.37 M259.966 1513.66 Q265.776 1513.66 268.832 1518.27 Q271.911 1522.85 271.911 1531.6 Q271.911 1540.33 268.832 1544.94 Q265.776 1549.52 259.966 1549.52 Q254.156 1549.52 251.077 1544.94 Q248.022 1540.33 248.022 1531.6 Q248.022 1522.85 251.077 1518.27 Q254.156 1513.66 259.966 1513.66 Z" fill="#000000" fill-rule="evenodd" fill-opacity="1" /><path clip-path="url(#clip890)" d="M683.503 1532.02 L713.178 1532.02 L713.178 1535.95 L683.503 1535.95 L683.503 1532.02 Z" fill="#000000" fill-rule="evenodd" fill-opacity="1" /><path clip-path="url(#clip890)" d="M733.271 1517.37 Q729.66 1517.37 727.831 1520.93 Q726.026 1524.47 726.026 1531.6 Q726.026 1538.71 727.831 1542.27 Q729.66 1545.82 733.271 1545.82 Q736.905 1545.82 738.711 1542.27 Q740.539 1538.71 740.539 1531.6 Q740.539 1524.47 738.711 1520.93 Q736.905 1517.37 733.271 1517.37 M733.271 1513.66 Q739.081 1513.66 742.137 1518.27 Q745.215 1522.85 745.215 1531.6 Q745.215 1540.33 742.137 1544.94 Q739.081 1549.52 733.271 1549.52 Q727.461 1549.52 724.382 1544.94 Q721.327 1540.33 721.327 1531.6 Q721.327 1522.85 724.382 1518.27 Q727.461 1513.66 733.271 1513.66 Z" fill="#000000" fill-rule="evenodd" fill-opacity="1" /><path clip-path="url(#clip890)" d="M753.433 1542.97 L758.317 1542.97 L758.317 1548.85 L753.433 1548.85 L753.433 1542.97 Z" fill="#000000" fill-rule="evenodd" fill-opacity="1" /><path clip-path="url(#clip890)" d="M768.548 1514.29 L786.905 1514.29 L786.905 1518.22 L772.831 1518.22 L772.831 1526.7 Q773.849 1526.35 774.868 1526.19 Q775.886 1526 776.905 1526 Q782.692 1526 786.072 1529.17 Q789.451 1532.34 789.451 1537.76 Q789.451 1543.34 785.979 1546.44 Q782.507 1549.52 776.187 1549.52 Q774.011 1549.52 771.743 1549.15 Q769.498 1548.78 767.09 1548.04 L767.09 1543.34 Q769.173 1544.47 771.396 1545.03 Q773.618 1545.58 776.095 1545.58 Q780.099 1545.58 782.437 1543.48 Q784.775 1541.37 784.775 1537.76 Q784.775 1534.15 782.437 1532.04 Q780.099 1529.94 776.095 1529.94 Q774.22 1529.94 772.345 1530.35 Q770.493 1530.77 768.548 1531.65 L768.548 1514.29 Z" fill="#000000" fill-rule="evenodd" fill-opacity="1" /><path clip-path="url(#clip890)" d="M1231.9 1517.37 Q1228.29 1517.37 1226.46 1520.93 Q1224.65 1524.47 1224.65 1531.6 Q1224.65 1538.71 1226.46 1542.27 Q1228.29 1545.82 1231.9 1545.82 Q1235.53 1545.82 1237.34 1542.27 Q1239.17 1538.71 1239.17 1531.6 Q1239.17 1524.47 1237.34 1520.93 Q1235.53 1517.37 1231.9 1517.37 M1231.9 1513.66 Q1237.71 1513.66 1240.77 1518.27 Q1243.84 1522.85 1243.84 1531.6 Q1243.84 1540.33 1240.77 1544.94 Q1237.71 1549.52 1231.9 1549.52 Q1226.09 1549.52 1223.01 1544.94 Q1219.96 1540.33 1219.96 1531.6 Q1219.96 1522.85 1223.01 1518.27 Q1226.09 1513.66 1231.9 1513.66 Z" fill="#000000" fill-rule="evenodd" fill-opacity="1" /><path clip-path="url(#clip890)" d="M1252.06 1542.97 L1256.95 1542.97 L1256.95 1548.85 L1252.06 1548.85 L1252.06 1542.97 Z" fill="#000000" fill-rule="evenodd" fill-opacity="1" /><path clip-path="url(#clip890)" d="M1277.13 1517.37 Q1273.52 1517.37 1271.69 1520.93 Q1269.89 1524.47 1269.89 1531.6 Q1269.89 1538.71 1271.69 1542.27 Q1273.52 1545.82 1277.13 1545.82 Q1280.76 1545.82 1282.57 1542.27 Q1284.4 1538.71 1284.4 1531.6 Q1284.4 1524.47 1282.57 1520.93 Q1280.76 1517.37 1277.13 1517.37 M1277.13 1513.66 Q1282.94 1513.66 1286 1518.27 Q1289.08 1522.85 1289.08 1531.6 Q1289.08 1540.33 1286 1544.94 Q1282.94 1549.52 1277.13 1549.52 Q1271.32 1549.52 1268.24 1544.94 Q1265.19 1540.33 1265.19 1531.6 Q1265.19 1522.85 1268.24 1518.27 Q1271.32 1513.66 1277.13 1513.66 Z" fill="#000000" fill-rule="evenodd" fill-opacity="1" /><path clip-path="url(#clip890)" d="M1750.44 1517.37 Q1746.82 1517.37 1745 1520.93 Q1743.19 1524.47 1743.19 1531.6 Q1743.19 1538.71 1745 1542.27 Q1746.82 1545.82 1750.44 1545.82 Q1754.07 1545.82 1755.88 1542.27 Q1757.7 1538.71 1757.7 1531.6 Q1757.7 1524.47 1755.88 1520.93 Q1754.07 1517.37 1750.44 1517.37 M1750.44 1513.66 Q1756.25 1513.66 1759.3 1518.27 Q1762.38 1522.85 1762.38 1531.6 Q1762.38 1540.33 1759.3 1544.94 Q1756.25 1549.52 1750.44 1549.52 Q1744.63 1549.52 1741.55 1544.94 Q1738.49 1540.33 1738.49 1531.6 Q1738.49 1522.85 1741.55 1518.27 Q1744.63 1513.66 1750.44 1513.66 Z" fill="#000000" fill-rule="evenodd" fill-opacity="1" /><path clip-path="url(#clip890)" d="M1770.6 1542.97 L1775.48 1542.97 L1775.48 1548.85 L1770.6 1548.85 L1770.6 1542.97 Z" fill="#000000" fill-rule="evenodd" fill-opacity="1" /><path clip-path="url(#clip890)" d="M1785.71 1514.29 L1804.07 1514.29 L1804.07 1518.22 L1790 1518.22 L1790 1526.7 Q1791.01 1526.35 1792.03 1526.19 Q1793.05 1526 1794.07 1526 Q1799.86 1526 1803.24 1529.17 Q1806.62 1532.34 1806.62 1537.76 Q1806.62 1543.34 1803.14 1546.44 Q1799.67 1549.52 1793.35 1549.52 Q1791.18 1549.52 1788.91 1549.15 Q1786.66 1548.78 1784.25 1548.04 L1784.25 1543.34 Q1786.34 1544.47 1788.56 1545.03 Q1790.78 1545.58 1793.26 1545.58 Q1797.26 1545.58 1799.6 1543.48 Q1801.94 1541.37 1801.94 1537.76 Q1801.94 1534.15 1799.6 1532.04 Q1797.26 1529.94 1793.26 1529.94 Q1791.38 1529.94 1789.51 1530.35 Q1787.66 1530.77 1785.71 1531.65 L1785.71 1514.29 Z" fill="#000000" fill-rule="evenodd" fill-opacity="1" /><path clip-path="url(#clip890)" d="M2257.74 1544.91 L2265.38 1544.91 L2265.38 1518.55 L2257.07 1520.21 L2257.07 1515.95 L2265.34 1514.29 L2270.01 1514.29 L2270.01 1544.91 L2277.65 1544.91 L2277.65 1548.85 L2257.74 1548.85 L2257.74 1544.91 Z" fill="#000000" fill-rule="evenodd" fill-opacity="1" /><path clip-path="url(#clip890)" d="M2287.1 1542.97 L2291.98 1542.97 L2291.98 1548.85 L2287.1 1548.85 L2287.1 1542.97 Z" fill="#000000" fill-rule="evenodd" fill-opacity="1" /><path clip-path="url(#clip890)" d="M2312.17 1517.37 Q2308.55 1517.37 2306.73 1520.93 Q2304.92 1524.47 2304.92 1531.6 Q2304.92 1538.71 2306.73 1542.27 Q2308.55 1545.82 2312.17 1545.82 Q2315.8 1545.82 2317.61 1542.27 Q2319.43 1538.71 2319.43 1531.6 Q2319.43 1524.47 2317.61 1520.93 Q2315.8 1517.37 2312.17 1517.37 M2312.17 1513.66 Q2317.98 1513.66 2321.03 1518.27 Q2324.11 1522.85 2324.11 1531.6 Q2324.11 1540.33 2321.03 1544.94 Q2317.98 1549.52 2312.17 1549.52 Q2306.36 1549.52 2303.28 1544.94 Q2300.22 1540.33 2300.22 1531.6 Q2300.22 1522.85 2303.28 1518.27 Q2306.36 1513.66 2312.17 1513.66 Z" fill="#000000" fill-rule="evenodd" fill-opacity="1" /><polyline clip-path="url(#clip892)" style="stroke:#000000; stroke-linecap:round; stroke-linejoin:round; stroke-width:2; stroke-opacity:0.1; fill:none" points="
  156.274,1252.37 2352.76,1252.37 
  "/>
<polyline clip-path="url(#clip892)" style="stroke:#000000; stroke-linecap:round; stroke-linejoin:round; stroke-width:2; stroke-opacity:0.1; fill:none" points="
  156.274,979.107 2352.76,979.107 
  "/>
<polyline clip-path="url(#clip892)" style="stroke:#000000; stroke-linecap:round; stroke-linejoin:round; stroke-width:2; stroke-opacity:0.1; fill:none" points="
  156.274,705.842 2352.76,705.842 
  "/>
<polyline clip-path="url(#clip892)" style="stroke:#000000; stroke-linecap:round; stroke-linejoin:round; stroke-width:2; stroke-opacity:0.1; fill:none" points="
  156.274,432.577 2352.76,432.577 
  "/>
<polyline clip-path="url(#clip892)" style="stroke:#000000; stroke-linecap:round; stroke-linejoin:round; stroke-width:2; stroke-opacity:0.1; fill:none" points="
  156.274,159.312 2352.76,159.312 
  "/>
<polyline clip-path="url(#clip890)" style="stroke:#000000; stroke-linecap:round; stroke-linejoin:round; stroke-width:4; stroke-opacity:1; fill:none" points="
  156.274,1486.45 156.274,47.2441 
  "/>
<polyline clip-path="url(#clip890)" style="stroke:#000000; stroke-linecap:round; stroke-linejoin:round; stroke-width:4; stroke-opacity:1; fill:none" points="
  156.274,1252.37 175.172,1252.37 
  "/>
<polyline clip-path="url(#clip890)" style="stroke:#000000; stroke-linecap:round; stroke-linejoin:round; stroke-width:4; stroke-opacity:1; fill:none" points="
  156.274,979.107 175.172,979.107 
  "/>
<polyline clip-path="url(#clip890)" style="stroke:#000000; stroke-linecap:round; stroke-linejoin:round; stroke-width:4; stroke-opacity:1; fill:none" points="
  156.274,705.842 175.172,705.842 
  "/>
<polyline clip-path="url(#clip890)" style="stroke:#000000; stroke-linecap:round; stroke-linejoin:round; stroke-width:4; stroke-opacity:1; fill:none" points="
  156.274,432.577 175.172,432.577 
  "/>
<polyline clip-path="url(#clip890)" style="stroke:#000000; stroke-linecap:round; stroke-linejoin:round; stroke-width:4; stroke-opacity:1; fill:none" points="
  156.274,159.312 175.172,159.312 
  "/>
<path clip-path="url(#clip890)" d="M63.0985 1238.17 Q59.4875 1238.17 57.6588 1241.74 Q55.8532 1245.28 55.8532 1252.41 Q55.8532 1259.51 57.6588 1263.08 Q59.4875 1266.62 63.0985 1266.62 Q66.7328 1266.62 68.5383 1263.08 Q70.367 1259.51 70.367 1252.41 Q70.367 1245.28 68.5383 1241.74 Q66.7328 1238.17 63.0985 1238.17 M63.0985 1234.47 Q68.9087 1234.47 71.9642 1239.07 Q75.0429 1243.66 75.0429 1252.41 Q75.0429 1261.13 71.9642 1265.74 Q68.9087 1270.32 63.0985 1270.32 Q57.2884 1270.32 54.2097 1265.74 Q51.1542 1261.13 51.1542 1252.41 Q51.1542 1243.66 54.2097 1239.07 Q57.2884 1234.47 63.0985 1234.47 Z" fill="#000000" fill-rule="evenodd" fill-opacity="1" /><path clip-path="url(#clip890)" d="M83.2605 1263.77 L88.1447 1263.77 L88.1447 1269.65 L83.2605 1269.65 L83.2605 1263.77 Z" fill="#000000" fill-rule="evenodd" fill-opacity="1" /><path clip-path="url(#clip890)" d="M108.33 1238.17 Q104.719 1238.17 102.89 1241.74 Q101.084 1245.28 101.084 1252.41 Q101.084 1259.51 102.89 1263.08 Q104.719 1266.62 108.33 1266.62 Q111.964 1266.62 113.77 1263.08 Q115.598 1259.51 115.598 1252.41 Q115.598 1245.28 113.77 1241.74 Q111.964 1238.17 108.33 1238.17 M108.33 1234.47 Q114.14 1234.47 117.195 1239.07 Q120.274 1243.66 120.274 1252.41 Q120.274 1261.13 117.195 1265.74 Q114.14 1270.32 108.33 1270.32 Q102.52 1270.32 99.4409 1265.74 Q96.3854 1261.13 96.3854 1252.41 Q96.3854 1243.66 99.4409 1239.07 Q102.52 1234.47 108.33 1234.47 Z" fill="#000000" fill-rule="evenodd" fill-opacity="1" /><path clip-path="url(#clip890)" d="M63.7467 964.906 Q60.1356 964.906 58.3069 968.471 Q56.5014 972.013 56.5014 979.142 Q56.5014 986.249 58.3069 989.813 Q60.1356 993.355 63.7467 993.355 Q67.3809 993.355 69.1865 989.813 Q71.0152 986.249 71.0152 979.142 Q71.0152 972.013 69.1865 968.471 Q67.3809 964.906 63.7467 964.906 M63.7467 961.202 Q69.5568 961.202 72.6124 965.809 Q75.6911 970.392 75.6911 979.142 Q75.6911 987.869 72.6124 992.475 Q69.5568 997.059 63.7467 997.059 Q57.9365 997.059 54.8578 992.475 Q51.8023 987.869 51.8023 979.142 Q51.8023 970.392 54.8578 965.809 Q57.9365 961.202 63.7467 961.202 Z" fill="#000000" fill-rule="evenodd" fill-opacity="1" /><path clip-path="url(#clip890)" d="M83.9086 990.508 L88.7928 990.508 L88.7928 996.387 L83.9086 996.387 L83.9086 990.508 Z" fill="#000000" fill-rule="evenodd" fill-opacity="1" /><path clip-path="url(#clip890)" d="M113.145 977.753 Q116.501 978.471 118.376 980.739 Q120.274 983.008 120.274 986.341 Q120.274 991.457 116.756 994.258 Q113.237 997.059 106.756 997.059 Q104.58 997.059 102.265 996.619 Q99.9733 996.202 97.5197 995.346 L97.5197 990.832 Q99.4641 991.966 101.779 992.545 Q104.094 993.124 106.617 993.124 Q111.015 993.124 113.307 991.387 Q115.621 989.651 115.621 986.341 Q115.621 983.286 113.469 981.573 Q111.339 979.837 107.52 979.837 L103.492 979.837 L103.492 975.994 L107.705 975.994 Q111.154 975.994 112.983 974.628 Q114.811 973.239 114.811 970.647 Q114.811 967.985 112.913 966.573 Q111.038 965.138 107.52 965.138 Q105.598 965.138 103.399 965.554 Q101.2 965.971 98.5613 966.851 L98.5613 962.684 Q101.223 961.943 103.538 961.573 Q105.876 961.202 107.936 961.202 Q113.26 961.202 116.362 963.633 Q119.464 966.04 119.464 970.161 Q119.464 973.031 117.82 975.022 Q116.177 976.989 113.145 977.753 Z" fill="#000000" fill-rule="evenodd" fill-opacity="1" /><path clip-path="url(#clip890)" d="M62.9365 691.641 Q59.3254 691.641 57.4967 695.206 Q55.6912 698.747 55.6912 705.877 Q55.6912 712.983 57.4967 716.548 Q59.3254 720.09 62.9365 720.09 Q66.5707 720.09 68.3763 716.548 Q70.205 712.983 70.205 705.877 Q70.205 698.747 68.3763 695.206 Q66.5707 691.641 62.9365 691.641 M62.9365 687.937 Q68.7467 687.937 71.8022 692.544 Q74.8809 697.127 74.8809 705.877 Q74.8809 714.604 71.8022 719.21 Q68.7467 723.794 62.9365 723.794 Q57.1264 723.794 54.0477 719.21 Q50.9921 714.604 50.9921 705.877 Q50.9921 697.127 54.0477 692.544 Q57.1264 687.937 62.9365 687.937 Z" fill="#000000" fill-rule="evenodd" fill-opacity="1" /><path clip-path="url(#clip890)" d="M83.0984 717.243 L87.9827 717.243 L87.9827 723.122 L83.0984 723.122 L83.0984 717.243 Z" fill="#000000" fill-rule="evenodd" fill-opacity="1" /><path clip-path="url(#clip890)" d="M108.746 703.979 Q105.598 703.979 103.746 706.132 Q101.918 708.284 101.918 712.034 Q101.918 715.761 103.746 717.937 Q105.598 720.09 108.746 720.09 Q111.895 720.09 113.723 717.937 Q115.575 715.761 115.575 712.034 Q115.575 708.284 113.723 706.132 Q111.895 703.979 108.746 703.979 M118.029 689.326 L118.029 693.585 Q116.27 692.752 114.464 692.312 Q112.682 691.872 110.922 691.872 Q106.293 691.872 103.839 694.997 Q101.409 698.122 101.061 704.442 Q102.427 702.428 104.487 701.363 Q106.547 700.275 109.024 700.275 Q114.233 700.275 117.242 703.446 Q120.274 706.595 120.274 712.034 Q120.274 717.358 117.126 720.576 Q113.978 723.794 108.746 723.794 Q102.751 723.794 99.5798 719.21 Q96.4085 714.604 96.4085 705.877 Q96.4085 697.683 100.297 692.822 Q104.186 687.937 110.737 687.937 Q112.496 687.937 114.279 688.285 Q116.084 688.632 118.029 689.326 Z" fill="#000000" fill-rule="evenodd" fill-opacity="1" /><path clip-path="url(#clip890)" d="M63.2837 418.376 Q59.6726 418.376 57.8439 421.941 Q56.0384 425.482 56.0384 432.612 Q56.0384 439.718 57.8439 443.283 Q59.6726 446.825 63.2837 446.825 Q66.918 446.825 68.7235 443.283 Q70.5522 439.718 70.5522 432.612 Q70.5522 425.482 68.7235 421.941 Q66.918 418.376 63.2837 418.376 M63.2837 414.672 Q69.0939 414.672 72.1494 419.279 Q75.2281 423.862 75.2281 432.612 Q75.2281 441.339 72.1494 445.945 Q69.0939 450.528 63.2837 450.528 Q57.4736 450.528 54.3949 445.945 Q51.3393 441.339 51.3393 432.612 Q51.3393 423.862 54.3949 419.279 Q57.4736 414.672 63.2837 414.672 Z" fill="#000000" fill-rule="evenodd" fill-opacity="1" /><path clip-path="url(#clip890)" d="M83.4457 443.978 L88.3299 443.978 L88.3299 449.857 L83.4457 449.857 L83.4457 443.978 Z" fill="#000000" fill-rule="evenodd" fill-opacity="1" /><path clip-path="url(#clip890)" d="M98.6539 449.14 L98.6539 444.88 Q100.413 445.714 102.219 446.153 Q104.024 446.593 105.76 446.593 Q110.39 446.593 112.82 443.491 Q115.274 440.366 115.621 434.024 Q114.279 436.015 112.219 437.079 Q110.158 438.144 107.658 438.144 Q102.473 438.144 99.4409 435.019 Q96.4317 431.871 96.4317 426.431 Q96.4317 421.107 99.5798 417.89 Q102.728 414.672 107.959 414.672 Q113.955 414.672 117.103 419.279 Q120.274 423.862 120.274 432.612 Q120.274 440.783 116.385 445.667 Q112.52 450.528 105.969 450.528 Q104.209 450.528 102.404 450.181 Q100.598 449.834 98.6539 449.14 M107.959 434.487 Q111.108 434.487 112.936 432.334 Q114.788 430.181 114.788 426.431 Q114.788 422.705 112.936 420.552 Q111.108 418.376 107.959 418.376 Q104.811 418.376 102.959 420.552 Q101.131 422.705 101.131 426.431 Q101.131 430.181 102.959 432.334 Q104.811 434.487 107.959 434.487 Z" fill="#000000" fill-rule="evenodd" fill-opacity="1" /><path clip-path="url(#clip890)" d="M55.506 172.657 L63.1448 172.657 L63.1448 146.291 L54.8347 147.958 L54.8347 143.699 L63.0985 142.032 L67.7744 142.032 L67.7744 172.657 L75.4133 172.657 L75.4133 176.592 L55.506 176.592 L55.506 172.657 Z" fill="#000000" fill-rule="evenodd" fill-opacity="1" /><path clip-path="url(#clip890)" d="M84.8577 170.712 L89.7419 170.712 L89.7419 176.592 L84.8577 176.592 L84.8577 170.712 Z" fill="#000000" fill-rule="evenodd" fill-opacity="1" /><path clip-path="url(#clip890)" d="M103.955 172.657 L120.274 172.657 L120.274 176.592 L98.3298 176.592 L98.3298 172.657 Q100.992 169.902 105.575 165.273 Q110.182 160.62 111.362 159.277 Q113.608 156.754 114.487 155.018 Q115.39 153.259 115.39 151.569 Q115.39 148.814 113.445 147.078 Q111.524 145.342 108.422 145.342 Q106.223 145.342 103.77 146.106 Q101.339 146.87 98.5613 148.421 L98.5613 143.699 Q101.385 142.564 103.839 141.986 Q106.293 141.407 108.33 141.407 Q113.7 141.407 116.895 144.092 Q120.089 146.777 120.089 151.268 Q120.089 153.398 119.279 155.319 Q118.492 157.217 116.385 159.81 Q115.807 160.481 112.705 163.699 Q109.603 166.893 103.955 172.657 Z" fill="#000000" fill-rule="evenodd" fill-opacity="1" /><polyline clip-path="url(#clip892)" style="stroke:#009af9; stroke-linecap:round; stroke-linejoin:round; stroke-width:16; stroke-opacity:1; fill:none" stroke-dasharray="8, 16" points="
  218.439,1090.88 228.852,1092.32 239.264,1093.76 249.677,1095.2 260.09,1096.65 270.503,1100.1 280.916,1105.57 291.329,1111.04 301.741,1118.15 312.154,1144.17 
  322.567,1173.99 332.98,1203.81 343.393,1233.63 353.805,1263.45 364.218,1293.27 374.631,1323.09 385.044,1352.91 395.457,1382.72 405.87,1412.54 416.282,1430.22 
  426.695,1431.36 437.108,1432.5 447.521,1433.64 457.934,1434.78 468.347,1424.16 478.759,1395.26 489.172,1366.36 499.585,1337.47 509.998,1308.57 520.411,1279.67 
  530.824,1250.77 541.236,1221.87 551.649,1192.97 562.062,1164.07 572.475,1135.17 582.888,1114.14 593.301,1095 603.713,1075.86 614.126,1056.72 624.539,1040.68 
  634.952,1058.33 645.365,1083.65 655.777,1110.41 666.19,1137.16 676.603,1163.91 687.016,1190.66 697.429,1217.42 707.842,1244.17 718.254,1270.92 728.667,1297.68 
  739.08,1324.43 749.493,1351.18 759.906,1377.94 770.319,1400.91 780.731,1409.87 791.144,1418.82 801.557,1427.78 811.97,1436.74 822.383,1445.72 832.796,1425 
  843.208,1396 853.621,1367 864.034,1338 874.447,1309 884.86,1279.56 895.273,1244.46 905.685,1204.08 916.098,1164.65 926.511,1144.05 936.924,1125.88 
  947.337,1108.15 957.749,1087.19 968.162,1076.17 978.575,1071 988.988,1066.37 999.401,1070.96 1009.81,1088.92 1020.23,1106.88 1030.64,1137.48 1041.05,1175.48 
  1051.46,1201.65 1061.88,1218.82 1072.29,1248.64 1082.7,1279.78 1093.12,1310.92 1103.53,1342.06 1113.94,1369.69 1124.35,1386.86 1134.77,1404.57 1145.18,1422.28 
  1155.59,1432.11 1166.01,1434.77 1176.42,1425.34 1186.83,1420.43 1197.24,1403.15 1207.66,1381.21 1218.07,1360.06 1228.48,1336.68 1238.9,1286.73 1249.31,1160.08 
  1259.72,921.273 1270.13,542.063 1280.55,274.228 1290.96,278.087 1301.37,299.946 1311.79,338.446 1322.2,353.53 1332.61,340.699 1343.02,329.313 1353.44,323.554 
  1363.85,321.532 1374.26,326.894 1384.68,331.307 1395.09,334.052 1405.5,337.376 1415.91,340.7 1426.33,344.024 1436.74,347.841 1447.15,350.925 1457.57,349.861 
  1467.98,348.796 1478.39,347.732 1488.8,346.732 1499.22,346.018 1509.63,345.305 1520.04,344.592 1530.45,343.878 1540.87,343.165 1551.28,342.451 1561.69,341.738 
  1572.11,341.025 1582.52,340.311 1592.93,339.598 1603.34,338.884 1613.76,338.171 1624.17,339.746 1634.58,341.418 1645,343.089 1655.41,344.761 1665.82,345.8 
  1676.23,345.86 1686.65,345.921 1697.06,341.444 1707.47,336.308 1717.89,331.172 1728.3,326.036 1738.71,320.9 1749.12,321.462 1759.54,322.7 1769.95,323.938 
  1780.36,325.175 1790.78,326.413 1801.19,327.651 1811.6,328.889 1822.01,330.126 1832.43,331.364 1842.84,332.602 1853.25,333.84 1863.67,335.078 1874.08,336.315 
  1884.49,337.553 1894.9,338.791 1905.32,340.029 1915.73,341.267 1926.14,342.505 1936.56,343.743 1946.97,344.98 1957.38,346.219 1967.79,347.456 1978.21,348.693 
  1988.62,349.931 1999.03,351.169 2009.45,352.407 2019.86,353.644 2030.27,354.883 2040.68,356.12 2051.1,357.358 2061.51,358.596 2071.92,359.834 2082.33,361.072 
  2092.75,362.31 2103.16,363.547 2113.57,364.785 2123.99,366.023 2134.4,367.261 2144.81,368.498 2155.22,369.737 2165.64,370.974 2176.05,372.212 2186.46,373.45 
  2196.88,374.688 2207.29,375.926 2217.7,377.163 2228.11,378.401 2238.53,379.639 2248.94,380.877 2259.35,382.114 2269.77,383.353 2280.18,384.59 2290.59,385.828 
  
  "/>
<polyline clip-path="url(#clip892)" style="stroke:#e26f46; stroke-linecap:round; stroke-linejoin:round; stroke-width:4; stroke-opacity:1; fill:none" points="
  218.439,1115.56 228.852,1096.15 239.264,1081.84 249.677,1073.09 260.09,1070.2 270.503,1073.25 280.916,1082.14 291.329,1096.6 301.741,1116.13 312.154,1140.12 
  322.567,1167.76 332.98,1198.17 343.393,1230.35 353.805,1263.25 364.218,1295.79 374.631,1326.91 385.044,1355.6 395.457,1380.93 405.87,1402.05 416.282,1418.29 
  426.695,1429.12 437.108,1434.18 447.521,1433.3 457.934,1426.52 468.347,1414.06 478.759,1396.32 489.172,1373.88 499.585,1347.47 509.998,1317.96 520.411,1286.31 
  530.824,1253.56 541.236,1220.76 551.649,1189 562.062,1159.3 572.475,1132.64 582.888,1109.89 593.301,1091.79 603.713,1078.93 614.126,1071.73 624.539,1070.43 
  634.952,1075.07 645.365,1085.49 655.777,1101.36 666.19,1122.15 676.603,1147.2 687.016,1175.68 697.429,1206.66 707.842,1239.14 718.254,1272.04 728.667,1304.31 
  739.08,1334.88 749.493,1362.76 759.906,1387.03 770.319,1406.91 780.731,1421.74 791.144,1431.05 801.557,1434.53 811.97,1432.06 822.383,1423.73 832.796,1409.8 
  843.208,1390.74 853.621,1367.16 864.034,1339.83 874.447,1309.65 884.86,1277.6 895.273,1244.73 905.685,1212.1 916.098,1180.79 926.511,1151.82 936.924,1126.13 
  947.337,1104.56 957.749,1087.81 968.162,1076.44 978.575,1070.8 988.988,1071.09 999.401,1077.3 1009.81,1089.22 1020.23,1106.47 1030.64,1128.48 1041.05,1154.53 
  1051.46,1183.78 1061.88,1215.26 1072.29,1247.96 1082.7,1280.8 1093.12,1312.71 1103.53,1342.65 1113.94,1369.65 1124.35,1392.82 1134.77,1411.4 1145.18,1424.8 
  1155.59,1432.56 1166.01,1434.45 1176.42,1430.39 1186.83,1420.53 1197.24,1405.17 1207.66,1384.83 1218.07,1360.17 1228.48,1331.98 1238.9,1301.2 1249.31,1268.83 
  1259.72,340.166 1270.13,338.661 1280.55,340.031 1290.96,344.592 1301.37,350.946 1311.79,356.409 1322.2,358.027 1332.61,353.823 1343.02,343.804 1353.44,330.296 
  1363.85,317.442 1374.26,309.933 1384.68,311.374 1395.09,322.83 1405.5,342.101 1415.91,364.032 1426.33,381.89 1436.74,389.424 1447.15,382.975 1457.57,362.967 
  1467.98,334.187 1478.39,304.693 1488.8,283.555 1499.22,278.079 1509.63,291.354 1520.04,320.929 1530.45,359.124 1540.87,395.003 1551.28,417.506 1561.69,418.838 
  1572.11,397.099 1582.52,357.256 1592.93,310.093 1603.34,269.297 1613.76,247.489 1624.17,252.338 1634.58,283.955 1645,334.43 1655.41,389.763 1665.82,433.747 
  1676.23,452.71 1686.65,439.743 1697.06,397.101 1707.47,335.984 1717.89,273.615 1728.3,228.392 1738.71,214.465 1749.12,237.334 1759.54,291.844 1769.95,363.253 
  1780.36,431.207 1790.78,475.542 1801.19,482.257 1811.6,447.905 1822.01,381.015 1832.43,300.029 1842.84,228.229 1853.25,187.038 1863.67,189.642 1874.08,236.81 
  1884.49,316.24 1894.9,405.729 1905.32,479.38 1915.73,515.094 1926.14,501.187 1936.56,440.159 1946.97,348.403 1957.38,251.825 1967.79,178.531 1978.21,150.651 
  1988.62,177.669 1999.03,253.278 2009.45,356.771 2019.86,458.7 2030.27,529.255 2040.68,546.977 2051.1,505.266 2061.51,414.712 2071.92,300.452 2082.33,195.2 
  2092.75,129.882 2103.16,124.554 2113.57,182.267 2123.99,287.755 2134.4,411.444 2144.81,517.734 2155.22,575.248 2165.64,566.091 2176.05,491.379 2186.46,371.359 
  2196.88,239.939 2207.29,135.113 2217.7,87.9763 2228.11,113.512 2238.53,205.868 2248.94,339.618 2259.35,476.742 2269.77,577.437 2280.18,611.667 2290.59,568.11 
  
  "/>
<path clip-path="url(#clip890)" d="
M229.49 250.738 L700.371 250.738 L700.371 95.2176 L229.49 95.2176  Z
  " fill="#ffffff" fill-rule="evenodd" fill-opacity="1"/>
<polyline clip-path="url(#clip890)" style="stroke:#000000; stroke-linecap:round; stroke-linejoin:round; stroke-width:4; stroke-opacity:1; fill:none" points="
  229.49,250.738 700.371,250.738 700.371,95.2176 229.49,95.2176 229.49,250.738 
  "/>
<polyline clip-path="url(#clip890)" style="stroke:#009af9; stroke-linecap:round; stroke-linejoin:round; stroke-width:4; stroke-opacity:1; fill:none" stroke-dasharray="2, 4" points="
  253.896,147.058 400.328,147.058 
  "/>
<path clip-path="url(#clip890)" d="M429.409 133.62 L429.409 146.606 L435.289 146.606 Q438.552 146.606 440.335 144.916 Q442.117 143.227 442.117 140.102 Q442.117 137 440.335 135.31 Q438.552 133.62 435.289 133.62 L429.409 133.62 M424.733 129.778 L435.289 129.778 Q441.099 129.778 444.062 132.416 Q447.048 135.032 447.048 140.102 Q447.048 145.217 444.062 147.833 Q441.099 150.449 435.289 150.449 L429.409 150.449 L429.409 164.338 L424.733 164.338 L424.733 129.778 Z" fill="#000000" fill-rule="evenodd" fill-opacity="1" /><path clip-path="url(#clip890)" d="M467.325 142.393 Q466.608 141.977 465.751 141.791 Q464.918 141.583 463.899 141.583 Q460.288 141.583 458.344 143.944 Q456.423 146.282 456.423 150.68 L456.423 164.338 L452.14 164.338 L452.14 138.412 L456.423 138.412 L456.423 142.44 Q457.765 140.078 459.918 138.944 Q462.071 137.787 465.149 137.787 Q465.589 137.787 466.122 137.856 Q466.654 137.903 467.302 138.018 L467.325 142.393 Z" fill="#000000" fill-rule="evenodd" fill-opacity="1" /><path clip-path="url(#clip890)" d="M492.927 150.31 L492.927 152.393 L473.344 152.393 Q473.622 156.791 475.983 159.106 Q478.367 161.398 482.603 161.398 Q485.057 161.398 487.348 160.796 Q489.663 160.194 491.932 158.99 L491.932 163.018 Q489.64 163.99 487.233 164.5 Q484.825 165.009 482.348 165.009 Q476.145 165.009 472.511 161.398 Q468.899 157.787 468.899 151.629 Q468.899 145.264 472.325 141.537 Q475.774 137.787 481.608 137.787 Q486.839 137.787 489.872 141.166 Q492.927 144.523 492.927 150.31 M488.668 149.06 Q488.622 145.565 486.7 143.481 Q484.802 141.398 481.654 141.398 Q478.089 141.398 475.936 143.412 Q473.807 145.426 473.483 149.083 L488.668 149.06 Z" fill="#000000" fill-rule="evenodd" fill-opacity="1" /><path clip-path="url(#clip890)" d="M516.978 142.347 L516.978 128.319 L521.237 128.319 L521.237 164.338 L516.978 164.338 L516.978 160.449 Q515.635 162.763 513.575 163.898 Q511.538 165.009 508.668 165.009 Q503.969 165.009 501.006 161.259 Q498.066 157.509 498.066 151.398 Q498.066 145.287 501.006 141.537 Q503.969 137.787 508.668 137.787 Q511.538 137.787 513.575 138.921 Q515.635 140.032 516.978 142.347 M502.464 151.398 Q502.464 156.097 504.385 158.782 Q506.33 161.444 509.709 161.444 Q513.089 161.444 515.033 158.782 Q516.978 156.097 516.978 151.398 Q516.978 146.699 515.033 144.037 Q513.089 141.352 509.709 141.352 Q506.33 141.352 504.385 144.037 Q502.464 146.699 502.464 151.398 Z" fill="#000000" fill-rule="evenodd" fill-opacity="1" /><path clip-path="url(#clip890)" d="M530.01 138.412 L534.269 138.412 L534.269 164.338 L530.01 164.338 L530.01 138.412 M530.01 128.319 L534.269 128.319 L534.269 133.713 L530.01 133.713 L530.01 128.319 Z" fill="#000000" fill-rule="evenodd" fill-opacity="1" /><path clip-path="url(#clip890)" d="M561.839 139.407 L561.839 143.389 Q560.033 142.393 558.205 141.907 Q556.399 141.398 554.547 141.398 Q550.404 141.398 548.112 144.037 Q545.82 146.652 545.82 151.398 Q545.82 156.143 548.112 158.782 Q550.404 161.398 554.547 161.398 Q556.399 161.398 558.205 160.912 Q560.033 160.402 561.839 159.407 L561.839 163.342 Q560.056 164.176 558.135 164.592 Q556.237 165.009 554.084 165.009 Q548.228 165.009 544.779 161.328 Q541.33 157.648 541.33 151.398 Q541.33 145.055 544.802 141.421 Q548.297 137.787 554.362 137.787 Q556.33 137.787 558.205 138.203 Q560.08 138.597 561.839 139.407 Z" fill="#000000" fill-rule="evenodd" fill-opacity="1" /><path clip-path="url(#clip890)" d="M573.459 131.051 L573.459 138.412 L582.232 138.412 L582.232 141.722 L573.459 141.722 L573.459 155.796 Q573.459 158.967 574.316 159.87 Q575.195 160.773 577.857 160.773 L582.232 160.773 L582.232 164.338 L577.857 164.338 Q572.927 164.338 571.052 162.509 Q569.177 160.657 569.177 155.796 L569.177 141.722 L566.052 141.722 L566.052 138.412 L569.177 138.412 L569.177 131.051 L573.459 131.051 Z" fill="#000000" fill-rule="evenodd" fill-opacity="1" /><path clip-path="url(#clip890)" d="M587.834 138.412 L592.093 138.412 L592.093 164.338 L587.834 164.338 L587.834 138.412 M587.834 128.319 L592.093 128.319 L592.093 133.713 L587.834 133.713 L587.834 128.319 Z" fill="#000000" fill-rule="evenodd" fill-opacity="1" /><path clip-path="url(#clip890)" d="M611.051 141.398 Q607.626 141.398 605.635 144.083 Q603.644 146.745 603.644 151.398 Q603.644 156.051 605.612 158.736 Q607.602 161.398 611.051 161.398 Q614.454 161.398 616.445 158.713 Q618.436 156.027 618.436 151.398 Q618.436 146.791 616.445 144.106 Q614.454 141.398 611.051 141.398 M611.051 137.787 Q616.607 137.787 619.778 141.398 Q622.95 145.009 622.95 151.398 Q622.95 157.764 619.778 161.398 Q616.607 165.009 611.051 165.009 Q605.473 165.009 602.302 161.398 Q599.153 157.764 599.153 151.398 Q599.153 145.009 602.302 141.398 Q605.473 137.787 611.051 137.787 Z" fill="#000000" fill-rule="evenodd" fill-opacity="1" /><path clip-path="url(#clip890)" d="M651.561 148.689 L651.561 164.338 L647.301 164.338 L647.301 148.828 Q647.301 145.148 645.866 143.319 Q644.431 141.49 641.561 141.49 Q638.112 141.49 636.121 143.69 Q634.13 145.889 634.13 149.685 L634.13 164.338 L629.848 164.338 L629.848 138.412 L634.13 138.412 L634.13 142.44 Q635.658 140.102 637.718 138.944 Q639.801 137.787 642.51 137.787 Q646.977 137.787 649.269 140.565 Q651.561 143.319 651.561 148.689 Z" fill="#000000" fill-rule="evenodd" fill-opacity="1" /><polyline clip-path="url(#clip890)" style="stroke:#e26f46; stroke-linecap:round; stroke-linejoin:round; stroke-width:4; stroke-opacity:1; fill:none" points="
  253.896,198.898 400.328,198.898 
  "/>
<path clip-path="url(#clip890)" d="M424.733 181.618 L446.585 181.618 L446.585 185.553 L429.409 185.553 L429.409 195.784 L445.867 195.784 L445.867 199.719 L429.409 199.719 L429.409 212.242 L447.001 212.242 L447.001 216.178 L424.733 216.178 L424.733 181.618 Z" fill="#000000" fill-rule="evenodd" fill-opacity="1" /><path clip-path="url(#clip890)" d="M476.052 190.252 L466.677 202.867 L476.538 216.178 L471.515 216.178 L463.969 205.992 L456.423 216.178 L451.4 216.178 L461.469 202.613 L452.256 190.252 L457.279 190.252 L464.154 199.488 L471.029 190.252 L476.052 190.252 Z" fill="#000000" fill-rule="evenodd" fill-opacity="1" /><path clip-path="url(#clip890)" d="M494.339 203.145 Q489.177 203.145 487.186 204.326 Q485.196 205.506 485.196 208.354 Q485.196 210.622 486.677 211.965 Q488.182 213.284 490.751 213.284 Q494.293 213.284 496.422 210.784 Q498.575 208.261 498.575 204.094 L498.575 203.145 L494.339 203.145 M502.834 201.386 L502.834 216.178 L498.575 216.178 L498.575 212.242 Q497.117 214.603 494.941 215.738 Q492.765 216.849 489.617 216.849 Q485.635 216.849 483.274 214.627 Q480.936 212.381 480.936 208.631 Q480.936 204.256 483.853 202.034 Q486.793 199.812 492.603 199.812 L498.575 199.812 L498.575 199.395 Q498.575 196.455 496.631 194.858 Q494.71 193.238 491.214 193.238 Q488.992 193.238 486.885 193.77 Q484.779 194.303 482.835 195.367 L482.835 191.432 Q485.173 190.53 487.372 190.09 Q489.571 189.627 491.654 189.627 Q497.279 189.627 500.057 192.543 Q502.834 195.46 502.834 201.386 Z" fill="#000000" fill-rule="evenodd" fill-opacity="1" /><path clip-path="url(#clip890)" d="M530.265 191.247 L530.265 195.229 Q528.459 194.233 526.631 193.747 Q524.825 193.238 522.973 193.238 Q518.83 193.238 516.538 195.877 Q514.246 198.492 514.246 203.238 Q514.246 207.983 516.538 210.622 Q518.83 213.238 522.973 213.238 Q524.825 213.238 526.631 212.752 Q528.459 212.242 530.265 211.247 L530.265 215.182 Q528.482 216.016 526.561 216.432 Q524.663 216.849 522.51 216.849 Q516.654 216.849 513.205 213.168 Q509.756 209.488 509.756 203.238 Q509.756 196.895 513.228 193.261 Q516.723 189.627 522.788 189.627 Q524.756 189.627 526.631 190.043 Q528.506 190.437 530.265 191.247 Z" fill="#000000" fill-rule="evenodd" fill-opacity="1" /><path clip-path="url(#clip890)" d="M541.885 182.891 L541.885 190.252 L550.658 190.252 L550.658 193.562 L541.885 193.562 L541.885 207.636 Q541.885 210.807 542.742 211.71 Q543.621 212.613 546.283 212.613 L550.658 212.613 L550.658 216.178 L546.283 216.178 Q541.353 216.178 539.478 214.349 Q537.603 212.497 537.603 207.636 L537.603 193.562 L534.478 193.562 L534.478 190.252 L537.603 190.252 L537.603 182.891 L541.885 182.891 Z" fill="#000000" fill-rule="evenodd" fill-opacity="1" /></svg>
