<?xml version="1.0" encoding="utf-8"?>
<svg xmlns="http://www.w3.org/2000/svg" xmlns:xlink="http://www.w3.org/1999/xlink" width="600" height="400" viewBox="0 0 2400 1600">
<defs>
  <clipPath id="clip980">
    <rect x="0" y="0" width="2400" height="1600"/>
  </clipPath>
</defs>
<path clip-path="url(#clip980)" d="
M0 1600 L2400 1600 L2400 0 L0 0  Z
  " fill="#ffffff" fill-rule="evenodd" fill-opacity="1"/>
<defs>
  <clipPath id="clip981">
    <rect x="480" y="0" width="1681" height="1600"/>
  </clipPath>
</defs>
<path clip-path="url(#clip980)" d="
M156.274 1486.45 L2352.76 1486.45 L2352.76 47.2441 L156.274 47.2441  Z
  " fill="#ffffff" fill-rule="evenodd" fill-opacity="1"/>
<defs>
  <clipPath id="clip982">
    <rect x="156" y="47" width="2197" height="1440"/>
  </clipPath>
</defs>
<polyline clip-path="url(#clip982)" style="stroke:#000000; stroke-linecap:round; stroke-linejoin:round; stroke-width:2; stroke-opacity:0.1; fill:none" points="
  218.439,1486.45 218.439,47.2441 
  "/>
<polyline clip-path="url(#clip982)" style="stroke:#000000; stroke-linecap:round; stroke-linejoin:round; stroke-width:2; stroke-opacity:0.1; fill:none" points="
  736.477,1486.45 736.477,47.2441 
  "/>
<polyline clip-path="url(#clip982)" style="stroke:#000000; stroke-linecap:round; stroke-linejoin:round; stroke-width:2; stroke-opacity:0.1; fill:none" points="
  1254.52,1486.45 1254.52,47.2441 
  "/>
<polyline clip-path="url(#clip982)" style="stroke:#000000; stroke-linecap:round; stroke-linejoin:round; stroke-width:2; stroke-opacity:0.1; fill:none" points="
  1772.55,1486.45 1772.55,47.2441 
  "/>
<polyline clip-path="url(#clip982)" style="stroke:#000000; stroke-linecap:round; stroke-linejoin:round; stroke-width:2; stroke-opacity:0.1; fill:none" points="
  2290.59,1486.45 2290.59,47.2441 
  "/>
<polyline clip-path="url(#clip980)" style="stroke:#000000; stroke-linecap:round; stroke-linejoin:round; stroke-width:4; stroke-opacity:1; fill:none" points="
  156.274,1486.45 2352.76,1486.45 
  "/>
<polyline clip-path="url(#clip980)" style="stroke:#000000; stroke-linecap:round; stroke-linejoin:round; stroke-width:4; stroke-opacity:1; fill:none" points="
  218.439,1486.45 218.439,1467.55 
  "/>
<polyline clip-path="url(#clip980)" style="stroke:#000000; stroke-linecap:round; stroke-linejoin:round; stroke-width:4; stroke-opacity:1; fill:none" points="
  736.477,1486.45 736.477,1467.55 
  "/>
<polyline clip-path="url(#clip980)" style="stroke:#000000; stroke-linecap:round; stroke-linejoin:round; stroke-width:4; stroke-opacity:1; fill:none" points="
  1254.52,1486.45 1254.52,1467.55 
  "/>
<polyline clip-path="url(#clip980)" style="stroke:#000000; stroke-linecap:round; stroke-linejoin:round; stroke-width:4; stroke-opacity:1; fill:none" points="
  1772.55,1486.45 1772.55,1467.55 
  "/>
<polyline clip-path="url(#clip980)" style="stroke:#000000; stroke-linecap:round; stroke-linejoin:round; stroke-width:4; stroke-opacity:1; fill:none" points="
  2290.59,1486.45 2290.59,1467.55 
  "/>
<path clip-path="url(#clip980)" d="M164.967 1532.02 L194.643 1532.02 L194.643 1535.95 L164.967 1535.95 L164.967 1532.02 Z" fill="#000000" fill-rule="evenodd" fill-opacity="1" /><path clip-path="url(#clip980)" d="M205.545 1544.91 L213.184 1544.91 L213.184 1518.55 L204.874 1520.21 L204.874 1515.95 L213.138 1514.29 L217.814 1514.29 L217.814 1544.91 L225.453 1544.91 L225.453 1548.85 L205.545 1548.85 L205.545 1544.91 Z" fill="#000000" fill-rule="evenodd" fill-opacity="1" /><path clip-path="url(#clip980)" d="M234.897 1542.97 L239.781 1542.97 L239.781 1548.85 L234.897 1548.85 L234.897 1542.97 Z" fill="#000000" fill-rule="evenodd" fill-opacity="1" /><path clip-path="url(#clip980)" d="M259.966 1517.37 Q256.355 1517.37 254.527 1520.93 Q252.721 1524.47 252.721 1531.6 Q252.721 1538.71 254.527 1542.27 Q256.355 1545.82 259.966 1545.82 Q263.601 1545.82 265.406 1542.27 Q267.235 1538.71 267.235 1531.6 Q267.235 1524.47 265.406 1520.93 Q263.601 1517.37 259.966 1517.37 M259.966 1513.66 Q265.776 1513.66 268.832 1518.27 Q271.911 1522.85 271.911 1531.6 Q271.911 1540.33 268.832 1544.94 Q265.776 1549.52 259.966 1549.52 Q254.156 1549.52 251.077 1544.94 Q248.022 1540.33 248.022 1531.6 Q248.022 1522.85 251.077 1518.27 Q254.156 1513.66 259.966 1513.66 Z" fill="#000000" fill-rule="evenodd" fill-opacity="1" /><path clip-path="url(#clip980)" d="M683.503 1532.02 L713.178 1532.02 L713.178 1535.95 L683.503 1535.95 L683.503 1532.02 Z" fill="#000000" fill-rule="evenodd" fill-opacity="1" /><path clip-path="url(#clip980)" d="M733.271 1517.37 Q729.66 1517.37 727.831 1520.93 Q726.026 1524.47 726.026 1531.6 Q726.026 1538.71 727.831 1542.27 Q729.66 1545.82 733.271 1545.82 Q736.905 1545.82 738.711 1542.27 Q740.539 1538.71 740.539 1531.6 Q740.539 1524.47 738.711 1520.93 Q736.905 1517.37 733.271 1517.37 M733.271 1513.66 Q739.081 1513.66 742.137 1518.27 Q745.215 1522.85 745.215 1531.6 Q745.215 1540.33 742.137 1544.94 Q739.081 1549.52 733.271 1549.52 Q727.461 1549.52 724.382 1544.94 Q721.327 1540.33 721.327 1531.6 Q721.327 1522.85 724.382 1518.27 Q727.461 1513.66 733.271 1513.66 Z" fill="#000000" fill-rule="evenodd" fill-opacity="1" /><path clip-path="url(#clip980)" d="M753.433 1542.97 L758.317 1542.97 L758.317 1548.85 L753.433 1548.85 L753.433 1542.97 Z" fill="#000000" fill-rule="evenodd" fill-opacity="1" /><path clip-path="url(#clip980)" d="M768.548 1514.29 L786.905 1514.29 L786.905 1518.22 L772.831 1518.22 L772.831 1526.7 Q773.849 1526.35 774.868 1526.19 Q775.886 1526 776.905 1526 Q782.692 1526 786.072 1529.17 Q789.451 1532.34 789.451 1537.76 Q789.451 1543.34 785.979 1546.44 Q782.507 1549.52 776.187 1549.52 Q774.011 1549.52 771.743 1549.15 Q769.498 1548.78 767.09 1548.04 L767.09 1543.34 Q769.173 1544.47 771.396 1545.03 Q773.618 1545.58 776.095 1545.58 Q780.099 1545.58 782.437 1543.48 Q784.775 1541.37 784.775 1537.76 Q784.775 1534.15 782.437 1532.04 Q780.099 1529.94 776.095 1529.94 Q774.22 1529.94 772.345 1530.35 Q770.493 1530.77 768.548 1531.65 L768.548 1514.29 Z" fill="#000000" fill-rule="evenodd" fill-opacity="1" /><path clip-path="url(#clip980)" d="M1231.9 1517.37 Q1228.29 1517.37 1226.46 1520.93 Q1224.65 1524.47 1224.65 1531.6 Q1224.65 1538.71 1226.46 1542.27 Q1228.29 1545.82 1231.9 1545.82 Q1235.53 1545.82 1237.34 1542.27 Q1239.17 1538.71 1239.17 1531.6 Q1239.17 1524.47 1237.34 1520.93 Q1235.53 1517.37 1231.9 1517.37 M1231.9 1513.66 Q1237.71 1513.66 1240.77 1518.27 Q1243.84 1522.85 1243.84 1531.6 Q1243.84 1540.33 1240.77 1544.94 Q1237.71 1549.52 1231.9 1549.52 Q1226.09 1549.52 1223.01 1544.94 Q1219.96 1540.33 1219.96 1531.6 Q1219.96 1522.85 1223.01 1518.27 Q1226.09 1513.66 1231.9 1513.66 Z" fill="#000000" fill-rule="evenodd" fill-opacity="1" /><path clip-path="url(#clip980)" d="M1252.06 1542.97 L1256.95 1542.97 L1256.95 1548.85 L1252.06 1548.85 L1252.06 1542.97 Z" fill="#000000" fill-rule="evenodd" fill-opacity="1" /><path clip-path="url(#clip980)" d="M1277.13 1517.37 Q1273.52 1517.37 1271.69 1520.93 Q1269.89 1524.47 1269.89 1531.6 Q1269.89 1538.71 1271.69 1542.27 Q1273.52 1545.82 1277.13 1545.82 Q1280.76 1545.82 1282.57 1542.27 Q1284.4 1538.71 1284.4 1531.6 Q1284.4 1524.47 1282.57 1520.93 Q1280.76 1517.37 1277.13 1517.37 M1277.13 1513.66 Q1282.94 1513.66 1286 1518.27 Q1289.08 1522.85 1289.08 1531.6 Q1289.08 1540.33 1286 1544.94 Q1282.94 1549.52 1277.13 1549.52 Q1271.32 1549.52 1268.24 1544.94 Q1265.19 1540.33 1265.19 1531.6 Q1265.19 1522.85 1268.24 1518.27 Q1271.32 1513.66 1277.13 1513.66 Z" fill="#000000" fill-rule="evenodd" fill-opacity="1" /><path clip-path="url(#clip980)" d="M1750.44 1517.37 Q1746.82 1517.37 1745 1520.93 Q1743.19 1524.47 1743.19 1531.6 Q1743.19 1538.71 1745 1542.27 Q1746.82 1545.82 1750.44 1545.82 Q1754.07 1545.82 1755.88 1542.27 Q1757.7 1538.71 1757.7 1531.6 Q1757.7 1524.47 1755.88 1520.93 Q1754.07 1517.37 1750.44 1517.37 M1750.44 1513.66 Q1756.25 1513.66 1759.3 1518.27 Q1762.38 1522.85 1762.38 1531.6 Q1762.38 1540.33 1759.3 1544.94 Q1756.25 1549.52 1750.44 1549.52 Q1744.63 1549.52 1741.55 1544.94 Q1738.49 1540.33 1738.49 1531.6 Q1738.49 1522.85 1741.55 1518.27 Q1744.63 1513.66 1750.44 1513.66 Z" fill="#000000" fill-rule="evenodd" fill-opacity="1" /><path clip-path="url(#clip980)" d="M1770.6 1542.97 L1775.48 1542.97 L1775.48 1548.85 L1770.6 1548.85 L1770.6 1542.97 Z" fill="#000000" fill-rule="evenodd" fill-opacity="1" /><path clip-path="url(#clip980)" d="M1785.71 1514.29 L1804.07 1514.29 L1804.07 1518.22 L1790 1518.22 L1790 1526.7 Q1791.01 1526.35 1792.03 1526.19 Q1793.05 1526 1794.07 1526 Q1799.86 1526 1803.24 1529.17 Q1806.62 1532.34 1806.62 1537.76 Q1806.62 1543.34 1803.14 1546.44 Q1799.67 1549.52 1793.35 1549.52 Q1791.18 1549.52 1788.91 1549.15 Q1786.66 1548.78 1784.25 1548.04 L1784.25 1543.34 Q1786.34 1544.47 1788.56 1545.03 Q1790.78 1545.58 1793.26 1545.58 Q1797.26 1545.58 1799.6 1543.48 Q1801.94 1541.37 1801.94 1537.76 Q1801.94 1534.15 1799.6 1532.04 Q1797.26 1529.94 1793.26 1529.94 Q1791.38 1529.94 1789.51 1530.35 Q1787.66 1530.77 1785.71 1531.65 L1785.71 1514.29 Z" fill="#000000" fill-rule="evenodd" fill-opacity="1" /><path clip-path="url(#clip980)" d="M2257.74 1544.91 L2265.38 1544.91 L2265.38 1518.55 L2257.07 1520.21 L2257.07 1515.95 L2265.34 1514.29 L2270.01 1514.29 L2270.01 1544.91 L2277.65 1544.91 L2277.65 1548.85 L2257.74 1548.85 L2257.74 1544.91 Z" fill="#000000" fill-rule="evenodd" fill-opacity="1" /><path clip-path="url(#clip980)" d="M2287.1 1542.97 L2291.98 1542.97 L2291.98 1548.85 L2287.1 1548.85 L2287.1 1542.97 Z" fill="#000000" fill-rule="evenodd" fill-opacity="1" /><path clip-path="url(#clip980)" d="M2312.17 1517.37 Q2308.55 1517.37 2306.73 1520.93 Q2304.92 1524.47 2304.92 1531.6 Q2304.92 1538.71 2306.73 1542.27 Q2308.55 1545.82 2312.17 1545.82 Q2315.8 1545.82 2317.61 1542.27 Q2319.43 1538.71 2319.43 1531.6 Q2319.43 1524.47 2317.61 1520.93 Q2315.8 1517.37 2312.17 1517.37 M2312.17 1513.66 Q2317.98 1513.66 2321.03 1518.27 Q2324.11 1522.85 2324.11 1531.6 Q2324.11 1540.33 2321.03 1544.94 Q2317.98 1549.52 2312.17 1549.52 Q2306.36 1549.52 2303.28 1544.94 Q2300.22 1540.33 2300.22 1531.6 Q2300.22 1522.85 2303.28 1518.27 Q2306.36 1513.66 2312.17 1513.66 Z" fill="#000000" fill-rule="evenodd" fill-opacity="1" /><polyline clip-path="url(#clip982)" style="stroke:#000000; stroke-linecap:round; stroke-linejoin:round; stroke-width:2; stroke-opacity:0.1; fill:none" points="
  156.274,1248.79 2352.76,1248.79 
  "/>
<polyline clip-path="url(#clip982)" style="stroke:#000000; stroke-linecap:round; stroke-linejoin:round; stroke-width:2; stroke-opacity:0.1; fill:none" points="
  156.274,976.362 2352.76,976.362 
  "/>
<polyline clip-path="url(#clip982)" style="stroke:#000000; stroke-linecap:round; stroke-linejoin:round; stroke-width:2; stroke-opacity:0.1; fill:none" points="
  156.274,703.939 2352.76,703.939 
  "/>
<polyline clip-path="url(#clip982)" style="stroke:#000000; stroke-linecap:round; stroke-linejoin:round; stroke-width:2; stroke-opacity:0.1; fill:none" points="
  156.274,431.516 2352.76,431.516 
  "/>
<polyline clip-path="url(#clip982)" style="stroke:#000000; stroke-linecap:round; stroke-linejoin:round; stroke-width:2; stroke-opacity:0.1; fill:none" points="
  156.274,159.092 2352.76,159.092 
  "/>
<polyline clip-path="url(#clip980)" style="stroke:#000000; stroke-linecap:round; stroke-linejoin:round; stroke-width:4; stroke-opacity:1; fill:none" points="
  156.274,1486.45 156.274,47.2441 
  "/>
<polyline clip-path="url(#clip980)" style="stroke:#000000; stroke-linecap:round; stroke-linejoin:round; stroke-width:4; stroke-opacity:1; fill:none" points="
  156.274,1248.79 175.172,1248.79 
  "/>
<polyline clip-path="url(#clip980)" style="stroke:#000000; stroke-linecap:round; stroke-linejoin:round; stroke-width:4; stroke-opacity:1; fill:none" points="
  156.274,976.362 175.172,976.362 
  "/>
<polyline clip-path="url(#clip980)" style="stroke:#000000; stroke-linecap:round; stroke-linejoin:round; stroke-width:4; stroke-opacity:1; fill:none" points="
  156.274,703.939 175.172,703.939 
  "/>
<polyline clip-path="url(#clip980)" style="stroke:#000000; stroke-linecap:round; stroke-linejoin:round; stroke-width:4; stroke-opacity:1; fill:none" points="
  156.274,431.516 175.172,431.516 
  "/>
<polyline clip-path="url(#clip980)" style="stroke:#000000; stroke-linecap:round; stroke-linejoin:round; stroke-width:4; stroke-opacity:1; fill:none" points="
  156.274,159.092 175.172,159.092 
  "/>
<path clip-path="url(#clip980)" d="M63.0985 1234.58 Q59.4875 1234.58 57.6588 1238.15 Q55.8532 1241.69 55.8532 1248.82 Q55.8532 1255.93 57.6588 1259.49 Q59.4875 1263.03 63.0985 1263.03 Q66.7328 1263.03 68.5383 1259.49 Q70.367 1255.93 70.367 1248.82 Q70.367 1241.69 68.5383 1238.15 Q66.7328 1234.58 63.0985 1234.58 M63.0985 1230.88 Q68.9087 1230.88 71.9642 1235.49 Q75.0429 1240.07 75.0429 1248.82 Q75.0429 1257.55 71.9642 1262.15 Q68.9087 1266.74 63.0985 1266.74 Q57.2884 1266.74 54.2097 1262.15 Q51.1542 1257.55 51.1542 1248.82 Q51.1542 1240.07 54.2097 1235.49 Q57.2884 1230.88 63.0985 1230.88 Z" fill="#000000" fill-rule="evenodd" fill-opacity="1" /><path clip-path="url(#clip980)" d="M83.2605 1260.19 L88.1447 1260.19 L88.1447 1266.07 L83.2605 1266.07 L83.2605 1260.19 Z" fill="#000000" fill-rule="evenodd" fill-opacity="1" /><path clip-path="url(#clip980)" d="M108.33 1234.58 Q104.719 1234.58 102.89 1238.15 Q101.084 1241.69 101.084 1248.82 Q101.084 1255.93 102.89 1259.49 Q104.719 1263.03 108.33 1263.03 Q111.964 1263.03 113.77 1259.49 Q115.598 1255.93 115.598 1248.82 Q115.598 1241.69 113.77 1238.15 Q111.964 1234.58 108.33 1234.58 M108.33 1230.88 Q114.14 1230.88 117.195 1235.49 Q120.274 1240.07 120.274 1248.82 Q120.274 1257.55 117.195 1262.15 Q114.14 1266.74 108.33 1266.74 Q102.52 1266.74 99.4409 1262.15 Q96.3854 1257.55 96.3854 1248.82 Q96.3854 1240.07 99.4409 1235.49 Q102.52 1230.88 108.33 1230.88 Z" fill="#000000" fill-rule="evenodd" fill-opacity="1" /><path clip-path="url(#clip980)" d="M63.7467 962.161 Q60.1356 962.161 58.3069 965.726 Q56.5014 969.268 56.5014 976.397 Q56.5014 983.504 58.3069 987.068 Q60.1356 990.61 63.7467 990.61 Q67.3809 990.61 69.1865 987.068 Q71.0152 983.504 71.0152 976.397 Q71.0152 969.268 69.1865 965.726 Q67.3809 962.161 63.7467 962.161 M63.7467 958.457 Q69.5568 958.457 72.6124 963.064 Q75.6911 967.647 75.6911 976.397 Q75.6911 985.124 72.6124 989.73 Q69.5568 994.314 63.7467 994.314 Q57.9365 994.314 54.8578 989.73 Q51.8023 985.124 51.8023 976.397 Q51.8023 967.647 54.8578 963.064 Q57.9365 958.457 63.7467 958.457 Z" fill="#000000" fill-rule="evenodd" fill-opacity="1" /><path clip-path="url(#clip980)" d="M83.9086 987.763 L88.7928 987.763 L88.7928 993.642 L83.9086 993.642 L83.9086 987.763 Z" fill="#000000" fill-rule="evenodd" fill-opacity="1" /><path clip-path="url(#clip980)" d="M113.145 975.008 Q116.501 975.726 118.376 977.994 Q120.274 980.263 120.274 983.596 Q120.274 988.712 116.756 991.513 Q113.237 994.314 106.756 994.314 Q104.58 994.314 102.265 993.874 Q99.9733 993.457 97.5197 992.601 L97.5197 988.087 Q99.4641 989.221 101.779 989.8 Q104.094 990.379 106.617 990.379 Q111.015 990.379 113.307 988.642 Q115.621 986.906 115.621 983.596 Q115.621 980.541 113.469 978.828 Q111.339 977.092 107.52 977.092 L103.492 977.092 L103.492 973.249 L107.705 973.249 Q111.154 973.249 112.983 971.883 Q114.811 970.494 114.811 967.902 Q114.811 965.24 112.913 963.828 Q111.038 962.393 107.52 962.393 Q105.598 962.393 103.399 962.809 Q101.2 963.226 98.5613 964.106 L98.5613 959.939 Q101.223 959.198 103.538 958.828 Q105.876 958.457 107.936 958.457 Q113.26 958.457 116.362 960.888 Q119.464 963.295 119.464 967.416 Q119.464 970.286 117.82 972.277 Q116.177 974.244 113.145 975.008 Z" fill="#000000" fill-rule="evenodd" fill-opacity="1" /><path clip-path="url(#clip980)" d="M62.9365 689.738 Q59.3254 689.738 57.4967 693.303 Q55.6912 696.844 55.6912 703.974 Q55.6912 711.08 57.4967 714.645 Q59.3254 718.187 62.9365 718.187 Q66.5707 718.187 68.3763 714.645 Q70.205 711.08 70.205 703.974 Q70.205 696.844 68.3763 693.303 Q66.5707 689.738 62.9365 689.738 M62.9365 686.034 Q68.7467 686.034 71.8022 690.641 Q74.8809 695.224 74.8809 703.974 Q74.8809 712.701 71.8022 717.307 Q68.7467 721.89 62.9365 721.89 Q57.1264 721.89 54.0477 717.307 Q50.9921 712.701 50.9921 703.974 Q50.9921 695.224 54.0477 690.641 Q57.1264 686.034 62.9365 686.034 Z" fill="#000000" fill-rule="evenodd" fill-opacity="1" /><path clip-path="url(#clip980)" d="M83.0984 715.339 L87.9827 715.339 L87.9827 721.219 L83.0984 721.219 L83.0984 715.339 Z" fill="#000000" fill-rule="evenodd" fill-opacity="1" /><path clip-path="url(#clip980)" d="M108.746 702.076 Q105.598 702.076 103.746 704.228 Q101.918 706.381 101.918 710.131 Q101.918 713.858 103.746 716.034 Q105.598 718.187 108.746 718.187 Q111.895 718.187 113.723 716.034 Q115.575 713.858 115.575 710.131 Q115.575 706.381 113.723 704.228 Q111.895 702.076 108.746 702.076 M118.029 687.423 L118.029 691.682 Q116.27 690.849 114.464 690.409 Q112.682 689.969 110.922 689.969 Q106.293 689.969 103.839 693.094 Q101.409 696.219 101.061 702.539 Q102.427 700.525 104.487 699.46 Q106.547 698.372 109.024 698.372 Q114.233 698.372 117.242 701.543 Q120.274 704.691 120.274 710.131 Q120.274 715.455 117.126 718.673 Q113.978 721.89 108.746 721.89 Q102.751 721.89 99.5798 717.307 Q96.4085 712.701 96.4085 703.974 Q96.4085 695.779 100.297 690.918 Q104.186 686.034 110.737 686.034 Q112.496 686.034 114.279 686.381 Q116.084 686.729 118.029 687.423 Z" fill="#000000" fill-rule="evenodd" fill-opacity="1" /><path clip-path="url(#clip980)" d="M63.2837 417.314 Q59.6726 417.314 57.8439 420.879 Q56.0384 424.421 56.0384 431.55 Q56.0384 438.657 57.8439 442.222 Q59.6726 445.763 63.2837 445.763 Q66.918 445.763 68.7235 442.222 Q70.5522 438.657 70.5522 431.55 Q70.5522 424.421 68.7235 420.879 Q66.918 417.314 63.2837 417.314 M63.2837 413.611 Q69.0939 413.611 72.1494 418.217 Q75.2281 422.8 75.2281 431.55 Q75.2281 440.277 72.1494 444.884 Q69.0939 449.467 63.2837 449.467 Q57.4736 449.467 54.3949 444.884 Q51.3393 440.277 51.3393 431.55 Q51.3393 422.8 54.3949 418.217 Q57.4736 413.611 63.2837 413.611 Z" fill="#000000" fill-rule="evenodd" fill-opacity="1" /><path clip-path="url(#clip980)" d="M83.4457 442.916 L88.3299 442.916 L88.3299 448.796 L83.4457 448.796 L83.4457 442.916 Z" fill="#000000" fill-rule="evenodd" fill-opacity="1" /><path clip-path="url(#clip980)" d="M98.6539 448.078 L98.6539 443.819 Q100.413 444.652 102.219 445.092 Q104.024 445.532 105.76 445.532 Q110.39 445.532 112.82 442.43 Q115.274 439.305 115.621 432.962 Q114.279 434.953 112.219 436.018 Q110.158 437.083 107.658 437.083 Q102.473 437.083 99.4409 433.958 Q96.4317 430.81 96.4317 425.37 Q96.4317 420.046 99.5798 416.828 Q102.728 413.611 107.959 413.611 Q113.955 413.611 117.103 418.217 Q120.274 422.8 120.274 431.55 Q120.274 439.722 116.385 444.606 Q112.52 449.467 105.969 449.467 Q104.209 449.467 102.404 449.12 Q100.598 448.773 98.6539 448.078 M107.959 433.425 Q111.108 433.425 112.936 431.273 Q114.788 429.12 114.788 425.37 Q114.788 421.643 112.936 419.49 Q111.108 417.314 107.959 417.314 Q104.811 417.314 102.959 419.49 Q101.131 421.643 101.131 425.37 Q101.131 429.12 102.959 431.273 Q104.811 433.425 107.959 433.425 Z" fill="#000000" fill-rule="evenodd" fill-opacity="1" /><path clip-path="url(#clip980)" d="M55.506 172.437 L63.1448 172.437 L63.1448 146.072 L54.8347 147.738 L54.8347 143.479 L63.0985 141.812 L67.7744 141.812 L67.7744 172.437 L75.4133 172.437 L75.4133 176.372 L55.506 176.372 L55.506 172.437 Z" fill="#000000" fill-rule="evenodd" fill-opacity="1" /><path clip-path="url(#clip980)" d="M84.8577 170.493 L89.7419 170.493 L89.7419 176.372 L84.8577 176.372 L84.8577 170.493 Z" fill="#000000" fill-rule="evenodd" fill-opacity="1" /><path clip-path="url(#clip980)" d="M103.955 172.437 L120.274 172.437 L120.274 176.372 L98.3298 176.372 L98.3298 172.437 Q100.992 169.683 105.575 165.053 Q110.182 160.4 111.362 159.058 Q113.608 156.534 114.487 154.798 Q115.39 153.039 115.39 151.349 Q115.39 148.595 113.445 146.859 Q111.524 145.122 108.422 145.122 Q106.223 145.122 103.77 145.886 Q101.339 146.65 98.5613 148.201 L98.5613 143.479 Q101.385 142.345 103.839 141.766 Q106.293 141.187 108.33 141.187 Q113.7 141.187 116.895 143.873 Q120.089 146.558 120.089 151.048 Q120.089 153.178 119.279 155.099 Q118.492 156.997 116.385 159.59 Q115.807 160.261 112.705 163.479 Q109.603 166.673 103.955 172.437 Z" fill="#000000" fill-rule="evenodd" fill-opacity="1" /><polyline clip-path="url(#clip982)" style="stroke:#009af9; stroke-linecap:round; stroke-linejoin:round; stroke-width:16; stroke-opacity:1; fill:none" stroke-dasharray="8, 16" points="
  218.439,1112.4 228.852,1101.14 239.264,1088.1 249.677,1075.92 260.09,1067.51 270.503,1065.68 280.916,1072.51 291.329,1088.59 301.741,1112.38 312.154,1140.58 
  322.567,1169.82 332.98,1198.51 343.393,1227.37 353.805,1258.03 364.218,1290.71 374.631,1323.2 385.044,1352.03 395.457,1375.1 405.87,1393.28 416.282,1408.95 
  426.695,1423.26 437.108,1434.32 447.521,1438.12 457.934,1431.25 468.347,1413.11 478.759,1386.44 489.172,1356.55 499.585,1329.34 509.998,1308.28 520.411,1291.26 
  530.824,1270.38 541.236,1237.72 551.649,1193.68 562.062,1148.15 572.475,1112.29 582.888,1090.91 593.301,1082.12 603.713,1081.22 614.126,1083.49 624.539,1084.63 
  634.952,1081.4 645.365,1075.76 655.777,1078.43 666.19,1100.16 676.603,1136.88 687.016,1174.34 697.429,1205.52 707.842,1234.48 718.254,1266.62 728.667,1301.39 
  739.08,1334.05 749.493,1361.02 759.906,1383.04 770.319,1403.31 780.731,1423.16 791.144,1439.41 801.557,1443.68 811.97,1423.96 822.383,1376.37 832.796,1329.55 
  843.208,1330.73 853.621,1368.16 864.034,1382.5 874.447,1355.03 884.86,1301.58 895.273,1240.63 905.685,1200 916.098,1218.43 926.511,1210.89 936.924,1126.12 
  947.337,1032.8 957.749,981.99 968.162,989.769 978.575,1057.65 988.988,1164.88 999.401,1235.17 1009.81,1194.72 1020.23,1113.34 1030.64,1117.73 1041.05,1177.83 
  1051.46,1212.68 1061.88,1219.52 1072.29,1216.72 1082.7,1224.02 1093.12,1262.35 1103.53,1329.8 1113.94,1372.29 1124.35,1378.09 1134.77,1391.56 1145.18,1415.9 
  1155.59,1436.81 1166.01,1445.72 1176.42,1439.07 1186.83,1420.57 1197.24,1395.24 1207.66,1368 1218.07,1346.11 1228.48,1329.75 1238.9,1272.77 1249.31,1066.26 
  1259.72,713.353 1270.13,421.462 1280.55,301.042 1290.96,290.438 1301.37,315.883 1311.79,344.136 1322.2,363.826 1332.61,371.016 1343.02,364.268 1353.44,343.001 
  1363.85,306.105 1374.26,254.752 1384.68,219.278 1395.09,259.869 1405.5,367.566 1415.91,445.708 1426.33,457.884 1436.74,433.997 1447.15,365.601 1457.57,293.494 
  1467.98,284.039 1478.39,287.031 1488.8,287.455 1499.22,320.637 1509.63,336.46 1520.04,325.936 1530.45,359.802 1540.87,412.548 1551.28,430.99 1561.69,414.529 
  1572.11,397.027 1582.52,390.327 1592.93,367.336 1603.34,315.047 1613.76,248.158 1624.17,197.49 1634.58,208.082 1645,287.766 1655.41,386.089 1665.82,449.184 
  1676.23,461.542 1686.65,437.398 1697.06,395.062 1707.47,344.688 1717.89,291.702 1728.3,244.492 1738.71,217.37 1749.12,225.24 1759.54,273.012 1769.95,348.727 
  1780.36,427.188 1790.78,481.394 1801.19,493.213 1811.6,457.836 1822.01,383.652 1832.43,291.578 1842.84,211.964 1853.25,172.861 1863.67,185.224 1874.08,241.731 
  1884.49,325.201 1894.9,412.781 1905.32,480.615 1915.73,512.123 1926.14,501.097 1936.56,447.277 1946.97,354.784 1957.38,240.384 1967.79,141.973 1978.21,106.544 
  1988.62,156.271 1999.03,268.134 2009.45,393.101 2019.86,490.18 2030.27,540.358 2040.68,540.185 2051.1,493.044 2061.51,407.252 2071.92,299.035 2082.33,194.124 
  2092.75,123.37 2103.16,113.055 2113.57,173.586 2123.99,290.432 2134.4,424.878 2144.81,531.393 2155.22,580.163 2165.64,563.805 2176.05,489.343 2186.46,372.814 
  2196.88,241.689 2207.29,134.783 2217.7,90.2059 2228.11,124.617 2238.53,220.341 2248.94,337.171 2259.35,439.232 2269.77,510.191 2280.18,550.2 2290.59,566.631 
  
  "/>
<polyline clip-path="url(#clip982)" style="stroke:#e26f46; stroke-linecap:round; stroke-linejoin:round; stroke-width:4; stroke-opacity:1; fill:none" points="
  218.439,1112.39 228.852,1093.04 239.264,1078.78 249.677,1070.06 260.09,1067.17 270.503,1070.21 280.916,1079.08 291.329,1093.49 301.741,1112.97 312.154,1136.88 
  322.567,1164.44 332.98,1194.75 343.393,1226.83 353.805,1259.63 364.218,1292.07 374.631,1323.1 385.044,1351.7 395.457,1376.94 405.87,1398 416.282,1414.2 
  426.695,1424.99 437.108,1430.03 447.521,1429.16 457.934,1422.4 468.347,1409.97 478.759,1392.29 489.172,1369.91 499.585,1343.59 509.998,1314.17 520.411,1282.62 
  530.824,1249.97 541.236,1217.27 551.649,1185.6 562.062,1156 572.475,1129.42 582.888,1106.74 593.301,1088.7 603.713,1075.88 614.126,1068.7 624.539,1067.4 
  634.952,1072.03 645.365,1082.42 655.777,1098.24 666.19,1118.97 676.603,1143.94 687.016,1172.33 697.429,1203.22 707.842,1235.59 718.254,1268.4 728.667,1300.56 
  739.08,1331.04 749.493,1358.83 759.906,1383.03 770.319,1402.85 780.731,1417.64 791.144,1426.91 801.557,1430.38 811.97,1427.92 822.383,1419.61 832.796,1405.73 
  843.208,1386.72 853.621,1363.22 864.034,1335.97 874.447,1305.89 884.86,1273.94 895.273,1241.16 905.685,1208.64 916.098,1177.43 926.511,1148.54 936.924,1122.93 
  947.337,1101.43 957.749,1084.73 968.162,1073.39 978.575,1067.77 988.988,1068.07 999.401,1074.25 1009.81,1086.14 1020.23,1103.33 1030.64,1125.27 1041.05,1151.25 
  1051.46,1180.4 1061.88,1211.79 1072.29,1244.38 1082.7,1277.12 1093.12,1308.94 1103.53,1338.79 1113.94,1365.7 1124.35,1388.8 1134.77,1407.32 1145.18,1420.68 
  1155.59,1428.42 1166.01,1430.3 1176.42,1426.26 1186.83,1416.42 1197.24,1401.12 1207.66,1380.84 1218.07,1356.25 1228.48,1328.15 1238.9,1297.47 1249.31,1265.19 
  1259.72,339.389 1270.13,337.888 1280.55,339.254 1290.96,343.801 1301.37,350.136 1311.79,355.582 1322.2,357.195 1332.61,353.005 1343.02,343.016 1353.44,329.549 
  1363.85,316.735 1374.26,309.25 1384.68,310.686 1395.09,322.107 1405.5,341.318 1415.91,363.181 1426.33,380.985 1436.74,388.495 1447.15,382.066 1457.57,362.12 
  1467.98,333.429 1478.39,304.026 1488.8,282.953 1499.22,277.493 1509.63,290.727 1520.04,320.211 1530.45,358.289 1540.87,394.057 1551.28,416.491 1561.69,417.819 
  1572.11,396.146 1582.52,356.427 1592.93,309.409 1603.34,268.739 1613.76,246.998 1624.17,251.832 1634.58,283.352 1645,333.671 1655.41,388.833 1665.82,432.682 
  1676.23,451.587 1686.65,438.659 1697.06,396.149 1707.47,335.22 1717.89,273.043 1728.3,227.96 1738.71,214.075 1749.12,236.874 1759.54,291.216 1769.95,362.405 
  1780.36,430.15 1790.78,474.348 1801.19,481.043 1811.6,446.796 1822.01,380.112 1832.43,299.376 1842.84,227.797 1853.25,186.733 1863.67,189.328 1874.08,236.352 
  1884.49,315.536 1894.9,404.75 1905.32,478.175 1915.73,513.779 1926.14,499.914 1936.56,439.074 1946.97,347.6 1957.38,251.32 1967.79,178.252 1978.21,150.458 
  1988.62,177.393 1999.03,252.769 2009.45,355.943 2019.86,457.558 2030.27,527.896 2040.68,545.563 2051.1,503.981 2061.51,413.706 2071.92,299.797 2082.33,194.869 
  2092.75,129.753 2103.16,124.441 2113.57,181.977 2123.99,287.14 2134.4,410.447 2144.81,516.41 2155.22,573.747 2165.64,564.618 2176.05,490.136 2186.46,370.486 
  2196.88,239.471 2207.29,134.967 2217.7,87.9763 2228.11,113.433 2238.53,205.505 2248.94,338.843 2259.35,475.544 2269.77,575.929 2280.18,610.053 2290.59,566.631 
  
  "/>
<path clip-path="url(#clip980)" d="
M229.49 250.738 L700.371 250.738 L700.371 95.2176 L229.49 95.2176  Z
  " fill="#ffffff" fill-rule="evenodd" fill-opacity="1"/>
<polyline clip-path="url(#clip980)" style="stroke:#000000; stroke-linecap:round; stroke-linejoin:round; stroke-width:4; stroke-opacity:1; fill:none" points="
  229.49,250.738 700.371,250.738 700.371,95.2176 229.49,95.2176 229.49,250.738 
  "/>
<polyline clip-path="url(#clip980)" style="stroke:#009af9; stroke-linecap:round; stroke-linejoin:round; stroke-width:4; stroke-opacity:1; fill:none" stroke-dasharray="2, 4" points="
  253.896,147.058 400.328,147.058 
  "/>
<path clip-path="url(#clip980)" d="M429.409 133.62 L429.409 146.606 L435.289 146.606 Q438.552 146.606 440.335 144.916 Q442.117 143.227 442.117 140.102 Q442.117 137 440.335 135.31 Q438.552 133.62 435.289 133.62 L429.409 133.62 M424.733 129.778 L435.289 129.778 Q441.099 129.778 444.062 132.416 Q447.048 135.032 447.048 140.102 Q447.048 145.217 444.062 147.833 Q441.099 150.449 435.289 150.449 L429.409 150.449 L429.409 164.338 L424.733 164.338 L424.733 129.778 Z" fill="#000000" fill-rule="evenodd" fill-opacity="1" /><path clip-path="url(#clip980)" d="M467.325 142.393 Q466.608 141.977 465.751 141.791 Q464.918 141.583 463.899 141.583 Q460.288 141.583 458.344 143.944 Q456.423 146.282 456.423 150.68 L456.423 164.338 L452.14 164.338 L452.14 138.412 L456.423 138.412 L456.423 142.44 Q457.765 140.078 459.918 138.944 Q462.071 137.787 465.149 137.787 Q465.589 137.787 466.122 137.856 Q466.654 137.903 467.302 138.018 L467.325 142.393 Z" fill="#000000" fill-rule="evenodd" fill-opacity="1" /><path clip-path="url(#clip980)" d="M492.927 150.31 L492.927 152.393 L473.344 152.393 Q473.622 156.791 475.983 159.106 Q478.367 161.398 482.603 161.398 Q485.057 161.398 487.348 160.796 Q489.663 160.194 491.932 158.99 L491.932 163.018 Q489.64 163.99 487.233 164.5 Q484.825 165.009 482.348 165.009 Q476.145 165.009 472.511 161.398 Q468.899 157.787 468.899 151.629 Q468.899 145.264 472.325 141.537 Q475.774 137.787 481.608 137.787 Q486.839 137.787 489.872 141.166 Q492.927 144.523 492.927 150.31 M488.668 149.06 Q488.622 145.565 486.7 143.481 Q484.802 141.398 481.654 141.398 Q478.089 141.398 475.936 143.412 Q473.807 145.426 473.483 149.083 L488.668 149.06 Z" fill="#000000" fill-rule="evenodd" fill-opacity="1" /><path clip-path="url(#clip980)" d="M516.978 142.347 L516.978 128.319 L521.237 128.319 L521.237 164.338 L516.978 164.338 L516.978 160.449 Q515.635 162.763 513.575 163.898 Q511.538 165.009 508.668 165.009 Q503.969 165.009 501.006 161.259 Q498.066 157.509 498.066 151.398 Q498.066 145.287 501.006 141.537 Q503.969 137.787 508.668 137.787 Q511.538 137.787 513.575 138.921 Q515.635 140.032 516.978 142.347 M502.464 151.398 Q502.464 156.097 504.385 158.782 Q506.33 161.444 509.709 161.444 Q513.089 161.444 515.033 158.782 Q516.978 156.097 516.978 151.398 Q516.978 146.699 515.033 144.037 Q513.089 141.352 509.709 141.352 Q506.33 141.352 504.385 144.037 Q502.464 146.699 502.464 151.398 Z" fill="#000000" fill-rule="evenodd" fill-opacity="1" /><path clip-path="url(#clip980)" d="M530.01 138.412 L534.269 138.412 L534.269 164.338 L530.01 164.338 L530.01 138.412 M530.01 128.319 L534.269 128.319 L534.269 133.713 L530.01 133.713 L530.01 128.319 Z" fill="#000000" fill-rule="evenodd" fill-opacity="1" /><path clip-path="url(#clip980)" d="M561.839 139.407 L561.839 143.389 Q560.033 142.393 558.205 141.907 Q556.399 141.398 554.547 141.398 Q550.404 141.398 548.112 144.037 Q545.82 146.652 545.82 151.398 Q545.82 156.143 548.112 158.782 Q550.404 161.398 554.547 161.398 Q556.399 161.398 558.205 160.912 Q560.033 160.402 561.839 159.407 L561.839 163.342 Q560.056 164.176 558.135 164.592 Q556.237 165.009 554.084 165.009 Q548.228 165.009 544.779 161.328 Q541.33 157.648 541.33 151.398 Q541.33 145.055 544.802 141.421 Q548.297 137.787 554.362 137.787 Q556.33 137.787 558.205 138.203 Q560.08 138.597 561.839 139.407 Z" fill="#000000" fill-rule="evenodd" fill-opacity="1" /><path clip-path="url(#clip980)" d="M573.459 131.051 L573.459 138.412 L582.232 138.412 L582.232 141.722 L573.459 141.722 L573.459 155.796 Q573.459 158.967 574.316 159.87 Q575.195 160.773 577.857 160.773 L582.232 160.773 L582.232 164.338 L577.857 164.338 Q572.927 164.338 571.052 162.509 Q569.177 160.657 569.177 155.796 L569.177 141.722 L566.052 141.722 L566.052 138.412 L569.177 138.412 L569.177 131.051 L573.459 131.051 Z" fill="#000000" fill-rule="evenodd" fill-opacity="1" /><path clip-path="url(#clip980)" d="M587.834 138.412 L592.093 138.412 L592.093 164.338 L587.834 164.338 L587.834 138.412 M587.834 128.319 L592.093 128.319 L592.093 133.713 L587.834 133.713 L587.834 128.319 Z" fill="#000000" fill-rule="evenodd" fill-opacity="1" /><path clip-path="url(#clip980)" d="M611.051 141.398 Q607.626 141.398 605.635 144.083 Q603.644 146.745 603.644 151.398 Q603.644 156.051 605.612 158.736 Q607.602 161.398 611.051 161.398 Q614.454 161.398 616.445 158.713 Q618.436 156.027 618.436 151.398 Q618.436 146.791 616.445 144.106 Q614.454 141.398 611.051 141.398 M611.051 137.787 Q616.607 137.787 619.778 141.398 Q622.95 145.009 622.95 151.398 Q622.95 157.764 619.778 161.398 Q616.607 165.009 611.051 165.009 Q605.473 165.009 602.302 161.398 Q599.153 157.764 599.153 151.398 Q599.153 145.009 602.302 141.398 Q605.473 137.787 611.051 137.787 Z" fill="#000000" fill-rule="evenodd" fill-opacity="1" /><path clip-path="url(#clip980)" d="M651.561 148.689 L651.561 164.338 L647.301 164.338 L647.301 148.828 Q647.301 145.148 645.866 143.319 Q644.431 141.49 641.561 141.49 Q638.112 141.49 636.121 143.69 Q634.13 145.889 634.13 149.685 L634.13 164.338 L629.848 164.338 L629.848 138.412 L634.13 138.412 L634.13 142.44 Q635.658 140.102 637.718 138.944 Q639.801 137.787 642.51 137.787 Q646.977 137.787 649.269 140.565 Q651.561 143.319 651.561 148.689 Z" fill="#000000" fill-rule="evenodd" fill-opacity="1" /><polyline clip-path="url(#clip980)" style="stroke:#e26f46; stroke-linecap:round; stroke-linejoin:round; stroke-width:4; stroke-opacity:1; fill:none" points="
  253.896,198.898 400.328,198.898 
  "/>
<path clip-path="url(#clip980)" d="M424.733 181.618 L446.585 181.618 L446.585 185.553 L429.409 185.553 L429.409 195.784 L445.867 195.784 L445.867 199.719 L429.409 199.719 L429.409 212.242 L447.001 212.242 L447.001 216.178 L424.733 216.178 L424.733 181.618 Z" fill="#000000" fill-rule="evenodd" fill-opacity="1" /><path clip-path="url(#clip980)" d="M476.052 190.252 L466.677 202.867 L476.538 216.178 L471.515 216.178 L463.969 205.992 L456.423 216.178 L451.4 216.178 L461.469 202.613 L452.256 190.252 L457.279 190.252 L464.154 199.488 L471.029 190.252 L476.052 190.252 Z" fill="#000000" fill-rule="evenodd" fill-opacity="1" /><path clip-path="url(#clip980)" d="M494.339 203.145 Q489.177 203.145 487.186 204.326 Q485.196 205.506 485.196 208.354 Q485.196 210.622 486.677 211.965 Q488.182 213.284 490.751 213.284 Q494.293 213.284 496.422 210.784 Q498.575 208.261 498.575 204.094 L498.575 203.145 L494.339 203.145 M502.834 201.386 L502.834 216.178 L498.575 216.178 L498.575 212.242 Q497.117 214.603 494.941 215.738 Q492.765 216.849 489.617 216.849 Q485.635 216.849 483.274 214.627 Q480.936 212.381 480.936 208.631 Q480.936 204.256 483.853 202.034 Q486.793 199.812 492.603 199.812 L498.575 199.812 L498.575 199.395 Q498.575 196.455 496.631 194.858 Q494.71 193.238 491.214 193.238 Q488.992 193.238 486.885 193.77 Q484.779 194.303 482.835 195.367 L482.835 191.432 Q485.173 190.53 487.372 190.09 Q489.571 189.627 491.654 189.627 Q497.279 189.627 500.057 192.543 Q502.834 195.46 502.834 201.386 Z" fill="#000000" fill-rule="evenodd" fill-opacity="1" /><path clip-path="url(#clip980)" d="M530.265 191.247 L530.265 195.229 Q528.459 194.233 526.631 193.747 Q524.825 193.238 522.973 193.238 Q518.83 193.238 516.538 195.877 Q514.246 198.492 514.246 203.238 Q514.246 207.983 516.538 210.622 Q518.83 213.238 522.973 213.238 Q524.825 213.238 526.631 212.752 Q528.459 212.242 530.265 211.247 L530.265 215.182 Q528.482 216.016 526.561 216.432 Q524.663 216.849 522.51 216.849 Q516.654 216.849 513.205 213.168 Q509.756 209.488 509.756 203.238 Q509.756 196.895 513.228 193.261 Q516.723 189.627 522.788 189.627 Q524.756 189.627 526.631 190.043 Q528.506 190.437 530.265 191.247 Z" fill="#000000" fill-rule="evenodd" fill-opacity="1" /><path clip-path="url(#clip980)" d="M541.885 182.891 L541.885 190.252 L550.658 190.252 L550.658 193.562 L541.885 193.562 L541.885 207.636 Q541.885 210.807 542.742 211.71 Q543.621 212.613 546.283 212.613 L550.658 212.613 L550.658 216.178 L546.283 216.178 Q541.353 216.178 539.478 214.349 Q537.603 212.497 537.603 207.636 L537.603 193.562 L534.478 193.562 L534.478 190.252 L537.603 190.252 L537.603 182.891 L541.885 182.891 Z" fill="#000000" fill-rule="evenodd" fill-opacity="1" /></svg>
