<?xml version="1.0" encoding="utf-8"?>
<svg xmlns="http://www.w3.org/2000/svg" xmlns:xlink="http://www.w3.org/1999/xlink" width="600" height="400" viewBox="0 0 2400 1600">
<defs>
  <clipPath id="clip920">
    <rect x="0" y="0" width="2400" height="1600"/>
  </clipPath>
</defs>
<path clip-path="url(#clip920)" d="
M0 1600 L2400 1600 L2400 0 L0 0  Z
  " fill="#ffffff" fill-rule="evenodd" fill-opacity="1"/>
<defs>
  <clipPath id="clip921">
    <rect x="480" y="0" width="1681" height="1600"/>
  </clipPath>
</defs>
<path clip-path="url(#clip920)" d="
M223.103 1486.45 L2352.76 1486.45 L2352.76 47.2441 L223.103 47.2441  Z
  " fill="#ffffff" fill-rule="evenodd" fill-opacity="1"/>
<defs>
  <clipPath id="clip922">
    <rect x="223" y="47" width="2131" height="1440"/>
  </clipPath>
</defs>
<polyline clip-path="url(#clip922)" style="stroke:#000000; stroke-linecap:round; stroke-linejoin:round; stroke-width:2; stroke-opacity:0.1; fill:none" points="
  283.376,1486.45 283.376,47.2441 
  "/>
<polyline clip-path="url(#clip922)" style="stroke:#000000; stroke-linecap:round; stroke-linejoin:round; stroke-width:2; stroke-opacity:0.1; fill:none" points="
  785.652,1486.45 785.652,47.2441 
  "/>
<polyline clip-path="url(#clip922)" style="stroke:#000000; stroke-linecap:round; stroke-linejoin:round; stroke-width:2; stroke-opacity:0.1; fill:none" points="
  1287.93,1486.45 1287.93,47.2441 
  "/>
<polyline clip-path="url(#clip922)" style="stroke:#000000; stroke-linecap:round; stroke-linejoin:round; stroke-width:2; stroke-opacity:0.1; fill:none" points="
  1790.21,1486.45 1790.21,47.2441 
  "/>
<polyline clip-path="url(#clip922)" style="stroke:#000000; stroke-linecap:round; stroke-linejoin:round; stroke-width:2; stroke-opacity:0.1; fill:none" points="
  2292.48,1486.45 2292.48,47.2441 
  "/>
<polyline clip-path="url(#clip920)" style="stroke:#000000; stroke-linecap:round; stroke-linejoin:round; stroke-width:4; stroke-opacity:1; fill:none" points="
  223.103,1486.45 2352.76,1486.45 
  "/>
<polyline clip-path="url(#clip920)" style="stroke:#000000; stroke-linecap:round; stroke-linejoin:round; stroke-width:4; stroke-opacity:1; fill:none" points="
  283.376,1486.45 283.376,1467.55 
  "/>
<polyline clip-path="url(#clip920)" style="stroke:#000000; stroke-linecap:round; stroke-linejoin:round; stroke-width:4; stroke-opacity:1; fill:none" points="
  785.652,1486.45 785.652,1467.55 
  "/>
<polyline clip-path="url(#clip920)" style="stroke:#000000; stroke-linecap:round; stroke-linejoin:round; stroke-width:4; stroke-opacity:1; fill:none" points="
  1287.93,1486.45 1287.93,1467.55 
  "/>
<polyline clip-path="url(#clip920)" style="stroke:#000000; stroke-linecap:round; stroke-linejoin:round; stroke-width:4; stroke-opacity:1; fill:none" points="
  1790.21,1486.45 1790.21,1467.55 
  "/>
<polyline clip-path="url(#clip920)" style="stroke:#000000; stroke-linecap:round; stroke-linejoin:round; stroke-width:4; stroke-opacity:1; fill:none" points="
  2292.48,1486.45 2292.48,1467.55 
  "/>
<path clip-path="url(#clip920)" d="M229.904 1532.02 L259.58 1532.02 L259.58 1535.95 L229.904 1535.95 L229.904 1532.02 Z" fill="#000000" fill-rule="evenodd" fill-opacity="1" /><path clip-path="url(#clip920)" d="M270.482 1544.91 L278.121 1544.91 L278.121 1518.55 L269.811 1520.21 L269.811 1515.95 L278.075 1514.29 L282.751 1514.29 L282.751 1544.91 L290.39 1544.91 L290.39 1548.85 L270.482 1548.85 L270.482 1544.91 Z" fill="#000000" fill-rule="evenodd" fill-opacity="1" /><path clip-path="url(#clip920)" d="M299.834 1542.97 L304.718 1542.97 L304.718 1548.85 L299.834 1548.85 L299.834 1542.97 Z" fill="#000000" fill-rule="evenodd" fill-opacity="1" /><path clip-path="url(#clip920)" d="M324.903 1517.37 Q321.292 1517.37 319.463 1520.93 Q317.658 1524.47 317.658 1531.6 Q317.658 1538.71 319.463 1542.27 Q321.292 1545.82 324.903 1545.82 Q328.538 1545.82 330.343 1542.27 Q332.172 1538.71 332.172 1531.6 Q332.172 1524.47 330.343 1520.93 Q328.538 1517.37 324.903 1517.37 M324.903 1513.66 Q330.713 1513.66 333.769 1518.27 Q336.848 1522.85 336.848 1531.6 Q336.848 1540.33 333.769 1544.94 Q330.713 1549.52 324.903 1549.52 Q319.093 1549.52 316.014 1544.94 Q312.959 1540.33 312.959 1531.6 Q312.959 1522.85 316.014 1518.27 Q319.093 1513.66 324.903 1513.66 Z" fill="#000000" fill-rule="evenodd" fill-opacity="1" /><path clip-path="url(#clip920)" d="M732.678 1532.02 L762.354 1532.02 L762.354 1535.95 L732.678 1535.95 L732.678 1532.02 Z" fill="#000000" fill-rule="evenodd" fill-opacity="1" /><path clip-path="url(#clip920)" d="M782.446 1517.37 Q778.835 1517.37 777.007 1520.93 Q775.201 1524.47 775.201 1531.6 Q775.201 1538.71 777.007 1542.27 Q778.835 1545.82 782.446 1545.82 Q786.081 1545.82 787.886 1542.27 Q789.715 1538.71 789.715 1531.6 Q789.715 1524.47 787.886 1520.93 Q786.081 1517.37 782.446 1517.37 M782.446 1513.66 Q788.257 1513.66 791.312 1518.27 Q794.391 1522.85 794.391 1531.6 Q794.391 1540.33 791.312 1544.94 Q788.257 1549.52 782.446 1549.52 Q776.636 1549.52 773.558 1544.94 Q770.502 1540.33 770.502 1531.6 Q770.502 1522.85 773.558 1518.27 Q776.636 1513.66 782.446 1513.66 Z" fill="#000000" fill-rule="evenodd" fill-opacity="1" /><path clip-path="url(#clip920)" d="M802.608 1542.97 L807.493 1542.97 L807.493 1548.85 L802.608 1548.85 L802.608 1542.97 Z" fill="#000000" fill-rule="evenodd" fill-opacity="1" /><path clip-path="url(#clip920)" d="M817.724 1514.29 L836.08 1514.29 L836.08 1518.22 L822.006 1518.22 L822.006 1526.7 Q823.025 1526.35 824.043 1526.19 Q825.062 1526 826.08 1526 Q831.867 1526 835.247 1529.17 Q838.627 1532.34 838.627 1537.76 Q838.627 1543.34 835.155 1546.44 Q831.682 1549.52 825.363 1549.52 Q823.187 1549.52 820.918 1549.15 Q818.673 1548.78 816.266 1548.04 L816.266 1543.34 Q818.349 1544.47 820.571 1545.03 Q822.793 1545.58 825.27 1545.58 Q829.275 1545.58 831.613 1543.48 Q833.951 1541.37 833.951 1537.76 Q833.951 1534.15 831.613 1532.04 Q829.275 1529.94 825.27 1529.94 Q823.395 1529.94 821.52 1530.35 Q819.668 1530.77 817.724 1531.65 L817.724 1514.29 Z" fill="#000000" fill-rule="evenodd" fill-opacity="1" /><path clip-path="url(#clip920)" d="M1265.31 1517.37 Q1261.7 1517.37 1259.87 1520.93 Q1258.07 1524.47 1258.07 1531.6 Q1258.07 1538.71 1259.87 1542.27 Q1261.7 1545.82 1265.31 1545.82 Q1268.95 1545.82 1270.75 1542.27 Q1272.58 1538.71 1272.58 1531.6 Q1272.58 1524.47 1270.75 1520.93 Q1268.95 1517.37 1265.31 1517.37 M1265.31 1513.66 Q1271.12 1513.66 1274.18 1518.27 Q1277.26 1522.85 1277.26 1531.6 Q1277.26 1540.33 1274.18 1544.94 Q1271.12 1549.52 1265.31 1549.52 Q1259.5 1549.52 1256.42 1544.94 Q1253.37 1540.33 1253.37 1531.6 Q1253.37 1522.85 1256.42 1518.27 Q1259.5 1513.66 1265.31 1513.66 Z" fill="#000000" fill-rule="evenodd" fill-opacity="1" /><path clip-path="url(#clip920)" d="M1285.48 1542.97 L1290.36 1542.97 L1290.36 1548.85 L1285.48 1548.85 L1285.48 1542.97 Z" fill="#000000" fill-rule="evenodd" fill-opacity="1" /><path clip-path="url(#clip920)" d="M1310.54 1517.37 Q1306.93 1517.37 1305.11 1520.93 Q1303.3 1524.47 1303.3 1531.6 Q1303.3 1538.71 1305.11 1542.27 Q1306.93 1545.82 1310.54 1545.82 Q1314.18 1545.82 1315.98 1542.27 Q1317.81 1538.71 1317.81 1531.6 Q1317.81 1524.47 1315.98 1520.93 Q1314.18 1517.37 1310.54 1517.37 M1310.54 1513.66 Q1316.35 1513.66 1319.41 1518.27 Q1322.49 1522.85 1322.49 1531.6 Q1322.49 1540.33 1319.41 1544.94 Q1316.35 1549.52 1310.54 1549.52 Q1304.73 1549.52 1301.66 1544.94 Q1298.6 1540.33 1298.6 1531.6 Q1298.6 1522.85 1301.66 1518.27 Q1304.73 1513.66 1310.54 1513.66 Z" fill="#000000" fill-rule="evenodd" fill-opacity="1" /><path clip-path="url(#clip920)" d="M1768.09 1517.37 Q1764.48 1517.37 1762.65 1520.93 Q1760.84 1524.47 1760.84 1531.6 Q1760.84 1538.71 1762.65 1542.27 Q1764.48 1545.82 1768.09 1545.82 Q1771.72 1545.82 1773.53 1542.27 Q1775.36 1538.71 1775.36 1531.6 Q1775.36 1524.47 1773.53 1520.93 Q1771.72 1517.37 1768.09 1517.37 M1768.09 1513.66 Q1773.9 1513.66 1776.95 1518.27 Q1780.03 1522.85 1780.03 1531.6 Q1780.03 1540.33 1776.95 1544.94 Q1773.9 1549.52 1768.09 1549.52 Q1762.28 1549.52 1759.2 1544.94 Q1756.14 1540.33 1756.14 1531.6 Q1756.14 1522.85 1759.2 1518.27 Q1762.28 1513.66 1768.09 1513.66 Z" fill="#000000" fill-rule="evenodd" fill-opacity="1" /><path clip-path="url(#clip920)" d="M1788.25 1542.97 L1793.13 1542.97 L1793.13 1548.85 L1788.25 1548.85 L1788.25 1542.97 Z" fill="#000000" fill-rule="evenodd" fill-opacity="1" /><path clip-path="url(#clip920)" d="M1803.37 1514.29 L1821.72 1514.29 L1821.72 1518.22 L1807.65 1518.22 L1807.65 1526.7 Q1808.67 1526.35 1809.69 1526.19 Q1810.7 1526 1811.72 1526 Q1817.51 1526 1820.89 1529.17 Q1824.27 1532.34 1824.27 1537.76 Q1824.27 1543.34 1820.8 1546.44 Q1817.32 1549.52 1811 1549.52 Q1808.83 1549.52 1806.56 1549.15 Q1804.31 1548.78 1801.91 1548.04 L1801.91 1543.34 Q1803.99 1544.47 1806.21 1545.03 Q1808.44 1545.58 1810.91 1545.58 Q1814.92 1545.58 1817.25 1543.48 Q1819.59 1541.37 1819.59 1537.76 Q1819.59 1534.15 1817.25 1532.04 Q1814.92 1529.94 1810.91 1529.94 Q1809.04 1529.94 1807.16 1530.35 Q1805.31 1530.77 1803.37 1531.65 L1803.37 1514.29 Z" fill="#000000" fill-rule="evenodd" fill-opacity="1" /><path clip-path="url(#clip920)" d="M2259.64 1544.91 L2267.27 1544.91 L2267.27 1518.55 L2258.96 1520.21 L2258.96 1515.95 L2267.23 1514.29 L2271.9 1514.29 L2271.9 1544.91 L2279.54 1544.91 L2279.54 1548.85 L2259.64 1548.85 L2259.64 1544.91 Z" fill="#000000" fill-rule="evenodd" fill-opacity="1" /><path clip-path="url(#clip920)" d="M2288.99 1542.97 L2293.87 1542.97 L2293.87 1548.85 L2288.99 1548.85 L2288.99 1542.97 Z" fill="#000000" fill-rule="evenodd" fill-opacity="1" /><path clip-path="url(#clip920)" d="M2314.06 1517.37 Q2310.45 1517.37 2308.62 1520.93 Q2306.81 1524.47 2306.81 1531.6 Q2306.81 1538.71 2308.62 1542.27 Q2310.45 1545.82 2314.06 1545.82 Q2317.69 1545.82 2319.5 1542.27 Q2321.33 1538.71 2321.33 1531.6 Q2321.33 1524.47 2319.5 1520.93 Q2317.69 1517.37 2314.06 1517.37 M2314.06 1513.66 Q2319.87 1513.66 2322.92 1518.27 Q2326 1522.85 2326 1531.6 Q2326 1540.33 2322.92 1544.94 Q2319.87 1549.52 2314.06 1549.52 Q2308.25 1549.52 2305.17 1544.94 Q2302.11 1540.33 2302.11 1531.6 Q2302.11 1522.85 2305.17 1518.27 Q2308.25 1513.66 2314.06 1513.66 Z" fill="#000000" fill-rule="evenodd" fill-opacity="1" /><polyline clip-path="url(#clip922)" style="stroke:#000000; stroke-linecap:round; stroke-linejoin:round; stroke-width:2; stroke-opacity:0.1; fill:none" points="
  223.103,1357.69 2352.76,1357.69 
  "/>
<polyline clip-path="url(#clip922)" style="stroke:#000000; stroke-linecap:round; stroke-linejoin:round; stroke-width:2; stroke-opacity:0.1; fill:none" points="
  223.103,1153.38 2352.76,1153.38 
  "/>
<polyline clip-path="url(#clip922)" style="stroke:#000000; stroke-linecap:round; stroke-linejoin:round; stroke-width:2; stroke-opacity:0.1; fill:none" points="
  223.103,949.063 2352.76,949.063 
  "/>
<polyline clip-path="url(#clip922)" style="stroke:#000000; stroke-linecap:round; stroke-linejoin:round; stroke-width:2; stroke-opacity:0.1; fill:none" points="
  223.103,744.75 2352.76,744.75 
  "/>
<polyline clip-path="url(#clip922)" style="stroke:#000000; stroke-linecap:round; stroke-linejoin:round; stroke-width:2; stroke-opacity:0.1; fill:none" points="
  223.103,540.437 2352.76,540.437 
  "/>
<polyline clip-path="url(#clip922)" style="stroke:#000000; stroke-linecap:round; stroke-linejoin:round; stroke-width:2; stroke-opacity:0.1; fill:none" points="
  223.103,336.124 2352.76,336.124 
  "/>
<polyline clip-path="url(#clip922)" style="stroke:#000000; stroke-linecap:round; stroke-linejoin:round; stroke-width:2; stroke-opacity:0.1; fill:none" points="
  223.103,131.811 2352.76,131.811 
  "/>
<polyline clip-path="url(#clip920)" style="stroke:#000000; stroke-linecap:round; stroke-linejoin:round; stroke-width:4; stroke-opacity:1; fill:none" points="
  223.103,1486.45 223.103,47.2441 
  "/>
<polyline clip-path="url(#clip920)" style="stroke:#000000; stroke-linecap:round; stroke-linejoin:round; stroke-width:4; stroke-opacity:1; fill:none" points="
  223.103,1357.69 242,1357.69 
  "/>
<polyline clip-path="url(#clip920)" style="stroke:#000000; stroke-linecap:round; stroke-linejoin:round; stroke-width:4; stroke-opacity:1; fill:none" points="
  223.103,1153.38 242,1153.38 
  "/>
<polyline clip-path="url(#clip920)" style="stroke:#000000; stroke-linecap:round; stroke-linejoin:round; stroke-width:4; stroke-opacity:1; fill:none" points="
  223.103,949.063 242,949.063 
  "/>
<polyline clip-path="url(#clip920)" style="stroke:#000000; stroke-linecap:round; stroke-linejoin:round; stroke-width:4; stroke-opacity:1; fill:none" points="
  223.103,744.75 242,744.75 
  "/>
<polyline clip-path="url(#clip920)" style="stroke:#000000; stroke-linecap:round; stroke-linejoin:round; stroke-width:4; stroke-opacity:1; fill:none" points="
  223.103,540.437 242,540.437 
  "/>
<polyline clip-path="url(#clip920)" style="stroke:#000000; stroke-linecap:round; stroke-linejoin:round; stroke-width:4; stroke-opacity:1; fill:none" points="
  223.103,336.124 242,336.124 
  "/>
<polyline clip-path="url(#clip920)" style="stroke:#000000; stroke-linecap:round; stroke-linejoin:round; stroke-width:4; stroke-opacity:1; fill:none" points="
  223.103,131.811 242,131.811 
  "/>
<path clip-path="url(#clip920)" d="M50.9921 1358.14 L80.6679 1358.14 L80.6679 1362.07 L50.9921 1362.07 L50.9921 1358.14 Z" fill="#000000" fill-rule="evenodd" fill-opacity="1" /><path clip-path="url(#clip920)" d="M100.76 1343.49 Q97.1493 1343.49 95.3206 1347.05 Q93.515 1350.59 93.515 1357.72 Q93.515 1364.83 95.3206 1368.39 Q97.1493 1371.94 100.76 1371.94 Q104.395 1371.94 106.2 1368.39 Q108.029 1364.83 108.029 1357.72 Q108.029 1350.59 106.2 1347.05 Q104.395 1343.49 100.76 1343.49 M100.76 1339.78 Q106.571 1339.78 109.626 1344.39 Q112.705 1348.97 112.705 1357.72 Q112.705 1366.45 109.626 1371.06 Q106.571 1375.64 100.76 1375.64 Q94.9502 1375.64 91.8715 1371.06 Q88.816 1366.45 88.816 1357.72 Q88.816 1348.97 91.8715 1344.39 Q94.9502 1339.78 100.76 1339.78 Z" fill="#000000" fill-rule="evenodd" fill-opacity="1" /><path clip-path="url(#clip920)" d="M120.922 1369.09 L125.807 1369.09 L125.807 1374.97 L120.922 1374.97 L120.922 1369.09 Z" fill="#000000" fill-rule="evenodd" fill-opacity="1" /><path clip-path="url(#clip920)" d="M140.019 1371.03 L156.339 1371.03 L156.339 1374.97 L134.394 1374.97 L134.394 1371.03 Q137.056 1368.28 141.64 1363.65 Q146.246 1359 147.427 1357.65 Q149.672 1355.13 150.552 1353.39 Q151.455 1351.64 151.455 1349.95 Q151.455 1347.19 149.51 1345.45 Q147.589 1343.72 144.487 1343.72 Q142.288 1343.72 139.834 1344.48 Q137.404 1345.25 134.626 1346.8 L134.626 1342.07 Q137.45 1340.94 139.904 1340.36 Q142.357 1339.78 144.394 1339.78 Q149.765 1339.78 152.959 1342.47 Q156.154 1345.15 156.154 1349.64 Q156.154 1351.77 155.343 1353.7 Q154.556 1355.59 152.45 1358.19 Q151.871 1358.86 148.769 1362.07 Q145.668 1365.27 140.019 1371.03 Z" fill="#000000" fill-rule="evenodd" fill-opacity="1" /><path clip-path="url(#clip920)" d="M166.2 1340.41 L184.556 1340.41 L184.556 1344.34 L170.482 1344.34 L170.482 1352.82 Q171.501 1352.47 172.519 1352.31 Q173.538 1352.12 174.556 1352.12 Q180.343 1352.12 183.723 1355.29 Q187.103 1358.46 187.103 1363.88 Q187.103 1369.46 183.63 1372.56 Q180.158 1375.64 173.839 1375.64 Q171.663 1375.64 169.394 1375.27 Q167.149 1374.9 164.742 1374.16 L164.742 1369.46 Q166.825 1370.59 169.047 1371.15 Q171.269 1371.7 173.746 1371.7 Q177.751 1371.7 180.089 1369.6 Q182.427 1367.49 182.427 1363.88 Q182.427 1360.27 180.089 1358.16 Q177.751 1356.06 173.746 1356.06 Q171.871 1356.06 169.996 1356.47 Q168.144 1356.89 166.2 1357.77 L166.2 1340.41 Z" fill="#000000" fill-rule="evenodd" fill-opacity="1" /><path clip-path="url(#clip920)" d="M99.765 1139.17 Q96.1539 1139.17 94.3252 1142.74 Q92.5197 1146.28 92.5197 1153.41 Q92.5197 1160.52 94.3252 1164.08 Q96.1539 1167.62 99.765 1167.62 Q103.399 1167.62 105.205 1164.08 Q107.033 1160.52 107.033 1153.41 Q107.033 1146.28 105.205 1142.74 Q103.399 1139.17 99.765 1139.17 M99.765 1135.47 Q105.575 1135.47 108.631 1140.08 Q111.709 1144.66 111.709 1153.41 Q111.709 1162.14 108.631 1166.74 Q105.575 1171.33 99.765 1171.33 Q93.9549 1171.33 90.8762 1166.74 Q87.8206 1162.14 87.8206 1153.41 Q87.8206 1144.66 90.8762 1140.08 Q93.9549 1135.47 99.765 1135.47 Z" fill="#000000" fill-rule="evenodd" fill-opacity="1" /><path clip-path="url(#clip920)" d="M119.927 1164.78 L124.811 1164.78 L124.811 1170.66 L119.927 1170.66 L119.927 1164.78 Z" fill="#000000" fill-rule="evenodd" fill-opacity="1" /><path clip-path="url(#clip920)" d="M144.996 1139.17 Q141.385 1139.17 139.556 1142.74 Q137.751 1146.28 137.751 1153.41 Q137.751 1160.52 139.556 1164.08 Q141.385 1167.62 144.996 1167.62 Q148.63 1167.62 150.436 1164.08 Q152.265 1160.52 152.265 1153.41 Q152.265 1146.28 150.436 1142.74 Q148.63 1139.17 144.996 1139.17 M144.996 1135.47 Q150.806 1135.47 153.862 1140.08 Q156.941 1144.66 156.941 1153.41 Q156.941 1162.14 153.862 1166.74 Q150.806 1171.33 144.996 1171.33 Q139.186 1171.33 136.107 1166.74 Q133.052 1162.14 133.052 1153.41 Q133.052 1144.66 136.107 1140.08 Q139.186 1135.47 144.996 1135.47 Z" fill="#000000" fill-rule="evenodd" fill-opacity="1" /><path clip-path="url(#clip920)" d="M175.158 1139.17 Q171.547 1139.17 169.718 1142.74 Q167.913 1146.28 167.913 1153.41 Q167.913 1160.52 169.718 1164.08 Q171.547 1167.62 175.158 1167.62 Q178.792 1167.62 180.598 1164.08 Q182.427 1160.52 182.427 1153.41 Q182.427 1146.28 180.598 1142.74 Q178.792 1139.17 175.158 1139.17 M175.158 1135.47 Q180.968 1135.47 184.024 1140.08 Q187.103 1144.66 187.103 1153.41 Q187.103 1162.14 184.024 1166.74 Q180.968 1171.33 175.158 1171.33 Q169.348 1171.33 166.269 1166.74 Q163.214 1162.14 163.214 1153.41 Q163.214 1144.66 166.269 1140.08 Q169.348 1135.47 175.158 1135.47 Z" fill="#000000" fill-rule="evenodd" fill-opacity="1" /><path clip-path="url(#clip920)" d="M100.76 934.861 Q97.1493 934.861 95.3206 938.426 Q93.515 941.968 93.515 949.097 Q93.515 956.204 95.3206 959.769 Q97.1493 963.31 100.76 963.31 Q104.395 963.31 106.2 959.769 Q108.029 956.204 108.029 949.097 Q108.029 941.968 106.2 938.426 Q104.395 934.861 100.76 934.861 M100.76 931.158 Q106.571 931.158 109.626 935.764 Q112.705 940.347 112.705 949.097 Q112.705 957.824 109.626 962.431 Q106.571 967.014 100.76 967.014 Q94.9502 967.014 91.8715 962.431 Q88.816 957.824 88.816 949.097 Q88.816 940.347 91.8715 935.764 Q94.9502 931.158 100.76 931.158 Z" fill="#000000" fill-rule="evenodd" fill-opacity="1" /><path clip-path="url(#clip920)" d="M120.922 960.463 L125.807 960.463 L125.807 966.343 L120.922 966.343 L120.922 960.463 Z" fill="#000000" fill-rule="evenodd" fill-opacity="1" /><path clip-path="url(#clip920)" d="M140.019 962.407 L156.339 962.407 L156.339 966.343 L134.394 966.343 L134.394 962.407 Q137.056 959.653 141.64 955.023 Q146.246 950.37 147.427 949.028 Q149.672 946.505 150.552 944.769 Q151.455 943.009 151.455 941.32 Q151.455 938.565 149.51 936.829 Q147.589 935.093 144.487 935.093 Q142.288 935.093 139.834 935.857 Q137.404 936.621 134.626 938.171 L134.626 933.449 Q137.45 932.315 139.904 931.736 Q142.357 931.158 144.394 931.158 Q149.765 931.158 152.959 933.843 Q156.154 936.528 156.154 941.019 Q156.154 943.148 155.343 945.07 Q154.556 946.968 152.45 949.56 Q151.871 950.232 148.769 953.449 Q145.668 956.644 140.019 962.407 Z" fill="#000000" fill-rule="evenodd" fill-opacity="1" /><path clip-path="url(#clip920)" d="M166.2 931.783 L184.556 931.783 L184.556 935.718 L170.482 935.718 L170.482 944.19 Q171.501 943.843 172.519 943.681 Q173.538 943.495 174.556 943.495 Q180.343 943.495 183.723 946.667 Q187.103 949.838 187.103 955.255 Q187.103 960.833 183.63 963.935 Q180.158 967.014 173.839 967.014 Q171.663 967.014 169.394 966.644 Q167.149 966.273 164.742 965.532 L164.742 960.833 Q166.825 961.968 169.047 962.523 Q171.269 963.079 173.746 963.079 Q177.751 963.079 180.089 960.972 Q182.427 958.866 182.427 955.255 Q182.427 951.644 180.089 949.537 Q177.751 947.431 173.746 947.431 Q171.871 947.431 169.996 947.847 Q168.144 948.264 166.2 949.144 L166.2 931.783 Z" fill="#000000" fill-rule="evenodd" fill-opacity="1" /><path clip-path="url(#clip920)" d="M99.765 730.548 Q96.1539 730.548 94.3252 734.113 Q92.5197 737.655 92.5197 744.784 Q92.5197 751.891 94.3252 755.456 Q96.1539 758.997 99.765 758.997 Q103.399 758.997 105.205 755.456 Q107.033 751.891 107.033 744.784 Q107.033 737.655 105.205 734.113 Q103.399 730.548 99.765 730.548 M99.765 726.845 Q105.575 726.845 108.631 731.451 Q111.709 736.035 111.709 744.784 Q111.709 753.511 108.631 758.118 Q105.575 762.701 99.765 762.701 Q93.9549 762.701 90.8762 758.118 Q87.8206 753.511 87.8206 744.784 Q87.8206 736.035 90.8762 731.451 Q93.9549 726.845 99.765 726.845 Z" fill="#000000" fill-rule="evenodd" fill-opacity="1" /><path clip-path="url(#clip920)" d="M119.927 756.15 L124.811 756.15 L124.811 762.03 L119.927 762.03 L119.927 756.15 Z" fill="#000000" fill-rule="evenodd" fill-opacity="1" /><path clip-path="url(#clip920)" d="M135.043 727.47 L153.399 727.47 L153.399 731.405 L139.325 731.405 L139.325 739.877 Q140.343 739.53 141.362 739.368 Q142.381 739.183 143.399 739.183 Q149.186 739.183 152.566 742.354 Q155.945 745.525 155.945 750.942 Q155.945 756.521 152.473 759.622 Q149.001 762.701 142.681 762.701 Q140.506 762.701 138.237 762.331 Q135.992 761.96 133.584 761.22 L133.584 756.521 Q135.668 757.655 137.89 758.21 Q140.112 758.766 142.589 758.766 Q146.593 758.766 148.931 756.659 Q151.269 754.553 151.269 750.942 Q151.269 747.331 148.931 745.224 Q146.593 743.118 142.589 743.118 Q140.714 743.118 138.839 743.534 Q136.987 743.951 135.043 744.831 L135.043 727.47 Z" fill="#000000" fill-rule="evenodd" fill-opacity="1" /><path clip-path="url(#clip920)" d="M175.158 730.548 Q171.547 730.548 169.718 734.113 Q167.913 737.655 167.913 744.784 Q167.913 751.891 169.718 755.456 Q171.547 758.997 175.158 758.997 Q178.792 758.997 180.598 755.456 Q182.427 751.891 182.427 744.784 Q182.427 737.655 180.598 734.113 Q178.792 730.548 175.158 730.548 M175.158 726.845 Q180.968 726.845 184.024 731.451 Q187.103 736.035 187.103 744.784 Q187.103 753.511 184.024 758.118 Q180.968 762.701 175.158 762.701 Q169.348 762.701 166.269 758.118 Q163.214 753.511 163.214 744.784 Q163.214 736.035 166.269 731.451 Q169.348 726.845 175.158 726.845 Z" fill="#000000" fill-rule="evenodd" fill-opacity="1" /><path clip-path="url(#clip920)" d="M100.76 526.236 Q97.1493 526.236 95.3206 529.8 Q93.515 533.342 93.515 540.472 Q93.515 547.578 95.3206 551.143 Q97.1493 554.685 100.76 554.685 Q104.395 554.685 106.2 551.143 Q108.029 547.578 108.029 540.472 Q108.029 533.342 106.2 529.8 Q104.395 526.236 100.76 526.236 M100.76 522.532 Q106.571 522.532 109.626 527.138 Q112.705 531.722 112.705 540.472 Q112.705 549.198 109.626 553.805 Q106.571 558.388 100.76 558.388 Q94.9502 558.388 91.8715 553.805 Q88.816 549.198 88.816 540.472 Q88.816 531.722 91.8715 527.138 Q94.9502 522.532 100.76 522.532 Z" fill="#000000" fill-rule="evenodd" fill-opacity="1" /><path clip-path="url(#clip920)" d="M120.922 551.837 L125.807 551.837 L125.807 557.717 L120.922 557.717 L120.922 551.837 Z" fill="#000000" fill-rule="evenodd" fill-opacity="1" /><path clip-path="url(#clip920)" d="M134.811 523.157 L157.033 523.157 L157.033 525.148 L144.487 557.717 L139.603 557.717 L151.408 527.092 L134.811 527.092 L134.811 523.157 Z" fill="#000000" fill-rule="evenodd" fill-opacity="1" /><path clip-path="url(#clip920)" d="M166.2 523.157 L184.556 523.157 L184.556 527.092 L170.482 527.092 L170.482 535.564 Q171.501 535.217 172.519 535.055 Q173.538 534.87 174.556 534.87 Q180.343 534.87 183.723 538.041 Q187.103 541.212 187.103 546.629 Q187.103 552.208 183.63 555.31 Q180.158 558.388 173.839 558.388 Q171.663 558.388 169.394 558.018 Q167.149 557.648 164.742 556.907 L164.742 552.208 Q166.825 553.342 169.047 553.898 Q171.269 554.453 173.746 554.453 Q177.751 554.453 180.089 552.347 Q182.427 550.24 182.427 546.629 Q182.427 543.018 180.089 540.911 Q177.751 538.805 173.746 538.805 Q171.871 538.805 169.996 539.222 Q168.144 539.638 166.2 540.518 L166.2 523.157 Z" fill="#000000" fill-rule="evenodd" fill-opacity="1" /><path clip-path="url(#clip920)" d="M90.5752 349.469 L98.2141 349.469 L98.2141 323.103 L89.904 324.77 L89.904 320.511 L98.1678 318.844 L102.844 318.844 L102.844 349.469 L110.483 349.469 L110.483 353.404 L90.5752 353.404 L90.5752 349.469 Z" fill="#000000" fill-rule="evenodd" fill-opacity="1" /><path clip-path="url(#clip920)" d="M119.927 347.525 L124.811 347.525 L124.811 353.404 L119.927 353.404 L119.927 347.525 Z" fill="#000000" fill-rule="evenodd" fill-opacity="1" /><path clip-path="url(#clip920)" d="M144.996 321.923 Q141.385 321.923 139.556 325.488 Q137.751 329.029 137.751 336.159 Q137.751 343.265 139.556 346.83 Q141.385 350.372 144.996 350.372 Q148.63 350.372 150.436 346.83 Q152.265 343.265 152.265 336.159 Q152.265 329.029 150.436 325.488 Q148.63 321.923 144.996 321.923 M144.996 318.219 Q150.806 318.219 153.862 322.826 Q156.941 327.409 156.941 336.159 Q156.941 344.886 153.862 349.492 Q150.806 354.075 144.996 354.075 Q139.186 354.075 136.107 349.492 Q133.052 344.886 133.052 336.159 Q133.052 327.409 136.107 322.826 Q139.186 318.219 144.996 318.219 Z" fill="#000000" fill-rule="evenodd" fill-opacity="1" /><path clip-path="url(#clip920)" d="M175.158 321.923 Q171.547 321.923 169.718 325.488 Q167.913 329.029 167.913 336.159 Q167.913 343.265 169.718 346.83 Q171.547 350.372 175.158 350.372 Q178.792 350.372 180.598 346.83 Q182.427 343.265 182.427 336.159 Q182.427 329.029 180.598 325.488 Q178.792 321.923 175.158 321.923 M175.158 318.219 Q180.968 318.219 184.024 322.826 Q187.103 327.409 187.103 336.159 Q187.103 344.886 184.024 349.492 Q180.968 354.075 175.158 354.075 Q169.348 354.075 166.269 349.492 Q163.214 344.886 163.214 336.159 Q163.214 327.409 166.269 322.826 Q169.348 318.219 175.158 318.219 Z" fill="#000000" fill-rule="evenodd" fill-opacity="1" /><path clip-path="url(#clip920)" d="M91.5706 145.156 L99.2095 145.156 L99.2095 118.791 L90.8993 120.457 L90.8993 116.198 L99.1632 114.531 L103.839 114.531 L103.839 145.156 L111.478 145.156 L111.478 149.091 L91.5706 149.091 L91.5706 145.156 Z" fill="#000000" fill-rule="evenodd" fill-opacity="1" /><path clip-path="url(#clip920)" d="M120.922 143.212 L125.807 143.212 L125.807 149.091 L120.922 149.091 L120.922 143.212 Z" fill="#000000" fill-rule="evenodd" fill-opacity="1" /><path clip-path="url(#clip920)" d="M140.019 145.156 L156.339 145.156 L156.339 149.091 L134.394 149.091 L134.394 145.156 Q137.056 142.402 141.64 137.772 Q146.246 133.119 147.427 131.777 Q149.672 129.253 150.552 127.517 Q151.455 125.758 151.455 124.068 Q151.455 121.314 149.51 119.578 Q147.589 117.841 144.487 117.841 Q142.288 117.841 139.834 118.605 Q137.404 119.369 134.626 120.92 L134.626 116.198 Q137.45 115.064 139.904 114.485 Q142.357 113.906 144.394 113.906 Q149.765 113.906 152.959 116.591 Q156.154 119.277 156.154 123.767 Q156.154 125.897 155.343 127.818 Q154.556 129.716 152.45 132.309 Q151.871 132.98 148.769 136.198 Q145.668 139.392 140.019 145.156 Z" fill="#000000" fill-rule="evenodd" fill-opacity="1" /><path clip-path="url(#clip920)" d="M166.2 114.531 L184.556 114.531 L184.556 118.466 L170.482 118.466 L170.482 126.939 Q171.501 126.591 172.519 126.429 Q173.538 126.244 174.556 126.244 Q180.343 126.244 183.723 129.415 Q187.103 132.587 187.103 138.003 Q187.103 143.582 183.63 146.684 Q180.158 149.763 173.839 149.763 Q171.663 149.763 169.394 149.392 Q167.149 149.022 164.742 148.281 L164.742 143.582 Q166.825 144.716 169.047 145.272 Q171.269 145.827 173.746 145.827 Q177.751 145.827 180.089 143.721 Q182.427 141.614 182.427 138.003 Q182.427 134.392 180.089 132.286 Q177.751 130.179 173.746 130.179 Q171.871 130.179 169.996 130.596 Q168.144 131.013 166.2 131.892 L166.2 114.531 Z" fill="#000000" fill-rule="evenodd" fill-opacity="1" /><polyline clip-path="url(#clip922)" style="stroke:#009af9; stroke-linecap:round; stroke-linejoin:round; stroke-width:16; stroke-opacity:1; fill:none" stroke-dasharray="8, 16" points="
  283.376,1030.63 293.472,1108.41 303.568,1126.61 313.664,1074.95 323.76,994.331 333.856,950.945 343.952,982.153 354.048,1041.34 364.144,1039.4 374.24,977.821 
  384.336,947.515 394.432,1001.51 404.528,1116.31 414.624,1227.36 424.72,1282.63 434.816,1280.19 444.912,1256.72 455.008,1242.67 465.104,1242.42 475.2,1255.57 
  485.296,1294.86 495.392,1366.32 505.488,1437.95 515.584,1445.72 525.68,1348.39 535.776,1197.17 545.872,1106.29 555.968,1119.93 566.064,1180.91 576.16,1209.24 
  586.256,1180.04 596.352,1125.63 606.448,1088.26 616.544,1086.1 626.64,1098.74 636.736,1088 646.832,1039.23 656.928,971.353 667.024,912.026 677.12,891.856 
  687.216,942.005 697.312,1035.25 707.408,1086.99 717.504,1083.69 727.6,1078.35 737.696,1072.24 747.792,1056.38 757.888,1069.89 767.984,1132.32 778.08,1213.54 
  788.176,1279.63 798.272,1315.14 808.369,1314.04 818.465,1280.28 828.561,1248.57 838.657,1268.17 848.753,1312.09 858.849,1311.91 868.945,1272.38 879.041,1232.92 
  889.137,1223.81 899.233,1263.02 909.329,1326.15 919.425,1349.19 929.521,1282.12 939.617,1144.1 949.713,1016.44 959.809,968.208 969.905,996.253 980.001,1038.09 
  990.097,1048.48 1000.19,1038 1010.29,1026.39 1020.38,995.295 1030.48,936.502 1040.58,890.533 1050.67,910.175 1060.77,1005.75 1070.86,1121.03 1080.96,1187.14 
  1091.06,1187.1 1101.15,1139.94 1111.25,1086.01 1121.34,1074.15 1131.44,1125.89 1141.54,1215.43 1151.63,1299.81 1161.73,1351.31 1171.83,1355.62 1181.92,1323.79 
  1192.02,1292.94 1202.11,1286.12 1212.21,1294.77 1222.31,1300.66 1232.4,1291.84 1242.5,1267.36 1252.59,1241.6 1262.69,1227.19 1272.79,1162.58 1282.88,889.821 
  1292.98,492.94 1303.07,327.034 1313.17,357.109 1323.27,389.4 1333.36,380.365 1343.46,359.145 1353.55,348.479 1363.65,352.122 1373.75,357.724 1383.84,343.247 
  1393.94,302.051 1404.03,262.677 1414.13,258.649 1424.23,292.65 1434.32,348.335 1444.42,405.65 1454.51,435.387 1464.61,416.951 1474.71,361.779 1484.8,301.339 
  1494.9,259.743 1504.99,254.028 1515.09,296.061 1525.19,359.068 1535.28,389.304 1545.38,372.19 1555.47,346.862 1565.57,351.643 1575.67,373.506 1585.76,382.891 
  1595.86,387.466 1605.95,392.957 1616.05,379.511 1626.15,331.452 1636.24,253.3 1646.34,188.032 1656.43,192.848 1666.53,270.667 1676.63,375.192 1686.72,454.034 
  1696.82,476.35 1706.91,445.609 1717.01,387.162 1727.11,342.328 1737.2,327.632 1747.3,292.537 1757.39,233.166 1767.49,209.121 1777.59,245.444 1787.68,321.028 
  1797.78,408.027 1807.87,479.672 1817.97,499.885 1828.07,452.984 1838.16,373.779 1848.26,297.928 1858.35,221.454 1868.45,162.073 1878.55,180.039 1888.64,278.763 
  1898.74,389.015 1908.83,460.383 1918.93,482.982 1929.03,466.703 1939.12,432.836 1949.22,393.018 1959.31,336.281 1969.41,254.137 1979.51,166.144 1989.6,114.751 
  1999.7,151.221 2009.79,298.602 2019.89,496.573 2029.99,626.608 2040.08,606.38 2050.18,458.173 2060.27,300.178 2070.37,220.655 2080.47,216.59 2090.56,236.891 
  2100.66,243.889 2110.75,240.07 2120.85,245.219 2130.95,270.082 2141.04,316.057 2151.14,385.098 2161.23,474.013 2171.33,556.307 2181.43,580.068 2191.52,497.492 
  2201.62,319.905 2211.71,142.993 2221.81,87.9763 2231.91,173.259 2242,284.272 2252.1,327.09 2262.19,315.681 2272.29,322.155 2282.39,398.369 2292.48,539.45 
  
  "/>
<polyline clip-path="url(#clip922)" style="stroke:#e26f46; stroke-linecap:round; stroke-linejoin:round; stroke-width:4; stroke-opacity:1; fill:none" points="
  283.376,1030.63 293.472,1013.21 303.568,1000.37 313.664,992.523 323.76,989.926 333.856,992.663 343.952,1000.65 354.048,1013.61 364.144,1031.14 374.24,1052.66 
  384.336,1077.46 394.432,1104.75 404.528,1133.62 414.624,1163.13 424.72,1192.33 434.816,1220.25 444.912,1245.99 455.008,1268.71 465.104,1287.67 475.2,1302.24 
  485.296,1311.95 495.392,1316.49 505.488,1315.71 515.584,1309.62 525.68,1298.44 535.776,1282.52 545.872,1262.39 555.968,1238.7 566.064,1212.22 576.16,1183.83 
  586.256,1154.44 596.352,1125.01 606.448,1096.51 616.544,1069.87 626.64,1045.95 636.736,1025.54 646.832,1009.3 656.928,997.764 667.024,991.306 677.12,990.136 
  687.216,994.295 697.312,1003.65 707.408,1017.88 717.504,1036.54 727.6,1059.01 737.696,1084.57 747.792,1112.37 757.888,1141.5 767.984,1171.03 778.08,1199.97 
  788.176,1227.4 798.272,1252.41 808.369,1274.19 818.465,1292.03 828.561,1305.34 838.657,1313.69 848.753,1316.81 858.849,1314.59 868.945,1307.11 879.041,1294.62 
  889.137,1277.52 899.233,1256.36 909.329,1231.84 919.425,1204.76 929.521,1176.01 939.617,1146.52 949.713,1117.25 959.809,1089.16 969.905,1063.16 980.001,1040.11 
  990.097,1020.76 1000.19,1005.73 1010.29,995.524 1020.38,990.469 1030.48,990.731 1040.58,996.301 1050.67,1007 1060.77,1022.47 1070.86,1042.22 1080.96,1065.59 
  1091.06,1091.83 1101.15,1120.08 1111.25,1149.41 1121.34,1178.88 1131.44,1207.51 1141.54,1234.37 1151.63,1258.6 1161.73,1279.38 1171.83,1296.06 1181.92,1308.07 
  1192.02,1315.04 1202.11,1316.74 1212.21,1313.1 1222.31,1304.24 1232.4,1290.47 1242.5,1272.22 1252.59,1250.09 1262.69,1224.8 1272.79,1197.19 1282.88,1168.14 
  1292.98,334.937 1303.07,333.587 1313.17,334.816 1323.27,338.908 1333.36,344.609 1343.46,349.511 1353.55,350.962 1363.65,347.191 1373.75,338.201 1383.84,326.082 
  1393.94,314.549 1404.03,307.812 1414.13,309.105 1424.23,319.384 1434.32,336.673 1444.42,356.35 1454.51,372.373 1464.61,379.131 1474.71,373.346 1484.8,355.394 
  1494.9,329.573 1504.99,303.111 1515.09,284.146 1525.19,279.232 1535.28,291.143 1545.38,317.677 1555.47,351.946 1565.57,384.138 1575.67,404.327 1585.76,405.523 
  1595.86,386.018 1605.95,350.271 1616.05,307.956 1626.15,271.353 1636.24,251.787 1646.34,256.137 1656.43,284.505 1666.53,329.791 1676.63,379.436 1686.72,418.899 
  1696.82,435.913 1706.91,424.278 1717.01,386.02 1727.11,331.185 1737.2,275.227 1747.3,234.653 1757.39,222.157 1767.49,242.676 1777.59,291.582 1787.68,355.651 
  1797.78,416.62 1807.87,456.398 1817.97,462.423 1828.07,431.601 1838.16,371.587 1848.26,298.926 1858.35,234.506 1868.45,197.549 1878.55,199.886 1888.64,242.206 
  1898.74,313.47 1908.83,393.761 1918.93,459.841 1929.03,491.884 1939.12,479.406 1949.22,424.652 1959.31,342.327 1969.41,255.677 1979.51,189.917 1989.6,164.903 
  1999.7,189.144 2009.79,256.981 2019.89,349.835 2029.99,441.287 2040.08,504.59 2050.18,520.49 2060.27,483.066 2070.37,401.821 2080.47,299.305 2090.56,204.872 
  2100.66,146.269 2110.75,141.489 2120.85,193.269 2130.95,287.914 2141.04,398.888 2151.14,494.252 2161.23,545.855 2171.33,537.639 2181.43,470.607 2191.52,362.924 
  2201.62,245.013 2211.71,150.962 2221.81,108.671 2231.91,131.581 2242,214.445 2252.1,334.446 2262.19,457.474 2272.29,547.819 2282.39,578.53 2292.48,539.45 
  
  "/>
<path clip-path="url(#clip920)" d="
M294.091 250.738 L757.547 250.738 L757.547 95.2176 L294.091 95.2176  Z
  " fill="#ffffff" fill-rule="evenodd" fill-opacity="1"/>
<polyline clip-path="url(#clip920)" style="stroke:#000000; stroke-linecap:round; stroke-linejoin:round; stroke-width:4; stroke-opacity:1; fill:none" points="
  294.091,250.738 757.547,250.738 757.547,95.2176 294.091,95.2176 294.091,250.738 
  "/>
<polyline clip-path="url(#clip920)" style="stroke:#009af9; stroke-linecap:round; stroke-linejoin:round; stroke-width:4; stroke-opacity:1; fill:none" stroke-dasharray="2, 4" points="
  317.754,147.058 459.731,147.058 
  "/>
<path clip-path="url(#clip920)" d="M488.069 133.62 L488.069 146.606 L493.949 146.606 Q497.213 146.606 498.995 144.916 Q500.778 143.227 500.778 140.102 Q500.778 137 498.995 135.31 Q497.213 133.62 493.949 133.62 L488.069 133.62 M483.393 129.778 L493.949 129.778 Q499.759 129.778 502.722 132.416 Q505.708 135.032 505.708 140.102 Q505.708 145.217 502.722 147.833 Q499.759 150.449 493.949 150.449 L488.069 150.449 L488.069 164.338 L483.393 164.338 L483.393 129.778 Z" fill="#000000" fill-rule="evenodd" fill-opacity="1" /><path clip-path="url(#clip920)" d="M525.986 142.393 Q525.268 141.977 524.412 141.791 Q523.578 141.583 522.56 141.583 Q518.949 141.583 517.004 143.944 Q515.083 146.282 515.083 150.68 L515.083 164.338 L510.801 164.338 L510.801 138.412 L515.083 138.412 L515.083 142.44 Q516.426 140.078 518.578 138.944 Q520.731 137.787 523.81 137.787 Q524.25 137.787 524.782 137.856 Q525.315 137.903 525.963 138.018 L525.986 142.393 Z" fill="#000000" fill-rule="evenodd" fill-opacity="1" /><path clip-path="url(#clip920)" d="M551.588 150.31 L551.588 152.393 L532.004 152.393 Q532.282 156.791 534.643 159.106 Q537.027 161.398 541.264 161.398 Q543.717 161.398 546.009 160.796 Q548.324 160.194 550.592 158.99 L550.592 163.018 Q548.301 163.99 545.893 164.5 Q543.486 165.009 541.009 165.009 Q534.805 165.009 531.171 161.398 Q527.56 157.787 527.56 151.629 Q527.56 145.264 530.986 141.537 Q534.435 137.787 540.268 137.787 Q545.5 137.787 548.532 141.166 Q551.588 144.523 551.588 150.31 M547.328 149.06 Q547.282 145.565 545.361 143.481 Q543.463 141.398 540.314 141.398 Q536.75 141.398 534.597 143.412 Q532.467 145.426 532.143 149.083 L547.328 149.06 Z" fill="#000000" fill-rule="evenodd" fill-opacity="1" /><path clip-path="url(#clip920)" d="M575.638 142.347 L575.638 128.319 L579.898 128.319 L579.898 164.338 L575.638 164.338 L575.638 160.449 Q574.296 162.763 572.236 163.898 Q570.199 165.009 567.328 165.009 Q562.629 165.009 559.666 161.259 Q556.726 157.509 556.726 151.398 Q556.726 145.287 559.666 141.537 Q562.629 137.787 567.328 137.787 Q570.199 137.787 572.236 138.921 Q574.296 140.032 575.638 142.347 M561.125 151.398 Q561.125 156.097 563.046 158.782 Q564.99 161.444 568.37 161.444 Q571.749 161.444 573.694 158.782 Q575.638 156.097 575.638 151.398 Q575.638 146.699 573.694 144.037 Q571.749 141.352 568.37 141.352 Q564.99 141.352 563.046 144.037 Q561.125 146.699 561.125 151.398 Z" fill="#000000" fill-rule="evenodd" fill-opacity="1" /><path clip-path="url(#clip920)" d="M588.671 138.412 L592.93 138.412 L592.93 164.338 L588.671 164.338 L588.671 138.412 M588.671 128.319 L592.93 128.319 L592.93 133.713 L588.671 133.713 L588.671 128.319 Z" fill="#000000" fill-rule="evenodd" fill-opacity="1" /><path clip-path="url(#clip920)" d="M620.499 139.407 L620.499 143.389 Q618.694 142.393 616.865 141.907 Q615.059 141.398 613.208 141.398 Q609.064 141.398 606.772 144.037 Q604.481 146.652 604.481 151.398 Q604.481 156.143 606.772 158.782 Q609.064 161.398 613.208 161.398 Q615.059 161.398 616.865 160.912 Q618.694 160.402 620.499 159.407 L620.499 163.342 Q618.717 164.176 616.796 164.592 Q614.897 165.009 612.745 165.009 Q606.888 165.009 603.439 161.328 Q599.99 157.648 599.99 151.398 Q599.99 145.055 603.462 141.421 Q606.958 137.787 613.022 137.787 Q614.99 137.787 616.865 138.203 Q618.74 138.597 620.499 139.407 Z" fill="#000000" fill-rule="evenodd" fill-opacity="1" /><path clip-path="url(#clip920)" d="M632.12 131.051 L632.12 138.412 L640.893 138.412 L640.893 141.722 L632.12 141.722 L632.12 155.796 Q632.12 158.967 632.976 159.87 Q633.856 160.773 636.518 160.773 L640.893 160.773 L640.893 164.338 L636.518 164.338 Q631.587 164.338 629.712 162.509 Q627.837 160.657 627.837 155.796 L627.837 141.722 L624.712 141.722 L624.712 138.412 L627.837 138.412 L627.837 131.051 L632.12 131.051 Z" fill="#000000" fill-rule="evenodd" fill-opacity="1" /><path clip-path="url(#clip920)" d="M646.494 138.412 L650.754 138.412 L650.754 164.338 L646.494 164.338 L646.494 138.412 M646.494 128.319 L650.754 128.319 L650.754 133.713 L646.494 133.713 L646.494 128.319 Z" fill="#000000" fill-rule="evenodd" fill-opacity="1" /><path clip-path="url(#clip920)" d="M669.712 141.398 Q666.286 141.398 664.295 144.083 Q662.305 146.745 662.305 151.398 Q662.305 156.051 664.272 158.736 Q666.263 161.398 669.712 161.398 Q673.115 161.398 675.105 158.713 Q677.096 156.027 677.096 151.398 Q677.096 146.791 675.105 144.106 Q673.115 141.398 669.712 141.398 M669.712 137.787 Q675.267 137.787 678.439 141.398 Q681.61 145.009 681.61 151.398 Q681.61 157.764 678.439 161.398 Q675.267 165.009 669.712 165.009 Q664.133 165.009 660.962 161.398 Q657.814 157.764 657.814 151.398 Q657.814 145.009 660.962 141.398 Q664.133 137.787 669.712 137.787 Z" fill="#000000" fill-rule="evenodd" fill-opacity="1" /><path clip-path="url(#clip920)" d="M710.221 148.689 L710.221 164.338 L705.962 164.338 L705.962 148.828 Q705.962 145.148 704.527 143.319 Q703.091 141.49 700.221 141.49 Q696.772 141.49 694.781 143.69 Q692.791 145.889 692.791 149.685 L692.791 164.338 L688.508 164.338 L688.508 138.412 L692.791 138.412 L692.791 142.44 Q694.318 140.102 696.378 138.944 Q698.462 137.787 701.17 137.787 Q705.638 137.787 707.929 140.565 Q710.221 143.319 710.221 148.689 Z" fill="#000000" fill-rule="evenodd" fill-opacity="1" /><polyline clip-path="url(#clip920)" style="stroke:#e26f46; stroke-linecap:round; stroke-linejoin:round; stroke-width:4; stroke-opacity:1; fill:none" points="
  317.754,198.898 459.731,198.898 
  "/>
<path clip-path="url(#clip920)" d="M483.393 181.618 L505.245 181.618 L505.245 185.553 L488.069 185.553 L488.069 195.784 L504.528 195.784 L504.528 199.719 L488.069 199.719 L488.069 212.242 L505.662 212.242 L505.662 216.178 L483.393 216.178 L483.393 181.618 Z" fill="#000000" fill-rule="evenodd" fill-opacity="1" /><path clip-path="url(#clip920)" d="M534.713 190.252 L525.338 202.867 L535.199 216.178 L530.176 216.178 L522.629 205.992 L515.083 216.178 L510.06 216.178 L520.129 202.613 L510.916 190.252 L515.94 190.252 L522.815 199.488 L529.69 190.252 L534.713 190.252 Z" fill="#000000" fill-rule="evenodd" fill-opacity="1" /><path clip-path="url(#clip920)" d="M553 203.145 Q547.838 203.145 545.847 204.326 Q543.856 205.506 543.856 208.354 Q543.856 210.622 545.338 211.965 Q546.842 213.284 549.412 213.284 Q552.953 213.284 555.083 210.784 Q557.236 208.261 557.236 204.094 L557.236 203.145 L553 203.145 M561.495 201.386 L561.495 216.178 L557.236 216.178 L557.236 212.242 Q555.777 214.603 553.601 215.738 Q551.426 216.849 548.277 216.849 Q544.296 216.849 541.935 214.627 Q539.597 212.381 539.597 208.631 Q539.597 204.256 542.514 202.034 Q545.453 199.812 551.263 199.812 L557.236 199.812 L557.236 199.395 Q557.236 196.455 555.291 194.858 Q553.37 193.238 549.875 193.238 Q547.652 193.238 545.546 193.77 Q543.439 194.303 541.495 195.367 L541.495 191.432 Q543.833 190.53 546.032 190.09 Q548.231 189.627 550.314 189.627 Q555.939 189.627 558.717 192.543 Q561.495 195.46 561.495 201.386 Z" fill="#000000" fill-rule="evenodd" fill-opacity="1" /><path clip-path="url(#clip920)" d="M588.925 191.247 L588.925 195.229 Q587.12 194.233 585.291 193.747 Q583.486 193.238 581.634 193.238 Q577.49 193.238 575.199 195.877 Q572.907 198.492 572.907 203.238 Q572.907 207.983 575.199 210.622 Q577.49 213.238 581.634 213.238 Q583.486 213.238 585.291 212.752 Q587.12 212.242 588.925 211.247 L588.925 215.182 Q587.143 216.016 585.222 216.432 Q583.323 216.849 581.171 216.849 Q575.314 216.849 571.865 213.168 Q568.416 209.488 568.416 203.238 Q568.416 196.895 571.888 193.261 Q575.384 189.627 581.449 189.627 Q583.416 189.627 585.291 190.043 Q587.166 190.437 588.925 191.247 Z" fill="#000000" fill-rule="evenodd" fill-opacity="1" /><path clip-path="url(#clip920)" d="M600.546 182.891 L600.546 190.252 L609.319 190.252 L609.319 193.562 L600.546 193.562 L600.546 207.636 Q600.546 210.807 601.402 211.71 Q602.282 212.613 604.944 212.613 L609.319 212.613 L609.319 216.178 L604.944 216.178 Q600.013 216.178 598.138 214.349 Q596.263 212.497 596.263 207.636 L596.263 193.562 L593.138 193.562 L593.138 190.252 L596.263 190.252 L596.263 182.891 L600.546 182.891 Z" fill="#000000" fill-rule="evenodd" fill-opacity="1" /></svg>
