<?xml version="1.0" encoding="utf-8"?>
<svg xmlns="http://www.w3.org/2000/svg" xmlns:xlink="http://www.w3.org/1999/xlink" width="600" height="400" viewBox="0 0 2400 1600">
<defs>
  <clipPath id="clip400">
    <rect x="0" y="0" width="2400" height="1600"/>
  </clipPath>
</defs>
<path clip-path="url(#clip400)" d="
M0 1600 L2400 1600 L2400 0 L0 0  Z
  " fill="#ffffff" fill-rule="evenodd" fill-opacity="1"/>
<defs>
  <clipPath id="clip401">
    <rect x="480" y="0" width="1681" height="1600"/>
  </clipPath>
</defs>
<path clip-path="url(#clip400)" d="
M156.274 1486.45 L2352.76 1486.45 L2352.76 47.2441 L156.274 47.2441  Z
  " fill="#ffffff" fill-rule="evenodd" fill-opacity="1"/>
<defs>
  <clipPath id="clip402">
    <rect x="156" y="47" width="2197" height="1440"/>
  </clipPath>
</defs>
<polyline clip-path="url(#clip402)" style="stroke:#000000; stroke-linecap:round; stroke-linejoin:round; stroke-width:2; stroke-opacity:0.1; fill:none" points="
  218.439,1486.45 218.439,47.2441 
  "/>
<polyline clip-path="url(#clip402)" style="stroke:#000000; stroke-linecap:round; stroke-linejoin:round; stroke-width:2; stroke-opacity:0.1; fill:none" points="
  736.477,1486.45 736.477,47.2441 
  "/>
<polyline clip-path="url(#clip402)" style="stroke:#000000; stroke-linecap:round; stroke-linejoin:round; stroke-width:2; stroke-opacity:0.1; fill:none" points="
  1254.52,1486.45 1254.52,47.2441 
  "/>
<polyline clip-path="url(#clip402)" style="stroke:#000000; stroke-linecap:round; stroke-linejoin:round; stroke-width:2; stroke-opacity:0.1; fill:none" points="
  1772.55,1486.45 1772.55,47.2441 
  "/>
<polyline clip-path="url(#clip402)" style="stroke:#000000; stroke-linecap:round; stroke-linejoin:round; stroke-width:2; stroke-opacity:0.1; fill:none" points="
  2290.59,1486.45 2290.59,47.2441 
  "/>
<polyline clip-path="url(#clip400)" style="stroke:#000000; stroke-linecap:round; stroke-linejoin:round; stroke-width:4; stroke-opacity:1; fill:none" points="
  156.274,1486.45 2352.76,1486.45 
  "/>
<polyline clip-path="url(#clip400)" style="stroke:#000000; stroke-linecap:round; stroke-linejoin:round; stroke-width:4; stroke-opacity:1; fill:none" points="
  218.439,1486.45 218.439,1467.55 
  "/>
<polyline clip-path="url(#clip400)" style="stroke:#000000; stroke-linecap:round; stroke-linejoin:round; stroke-width:4; stroke-opacity:1; fill:none" points="
  736.477,1486.45 736.477,1467.55 
  "/>
<polyline clip-path="url(#clip400)" style="stroke:#000000; stroke-linecap:round; stroke-linejoin:round; stroke-width:4; stroke-opacity:1; fill:none" points="
  1254.52,1486.45 1254.52,1467.55 
  "/>
<polyline clip-path="url(#clip400)" style="stroke:#000000; stroke-linecap:round; stroke-linejoin:round; stroke-width:4; stroke-opacity:1; fill:none" points="
  1772.55,1486.45 1772.55,1467.55 
  "/>
<polyline clip-path="url(#clip400)" style="stroke:#000000; stroke-linecap:round; stroke-linejoin:round; stroke-width:4; stroke-opacity:1; fill:none" points="
  2290.59,1486.45 2290.59,1467.55 
  "/>
<path clip-path="url(#clip400)" d="M164.967 1532.02 L194.643 1532.02 L194.643 1535.95 L164.967 1535.95 L164.967 1532.02 Z" fill="#000000" fill-rule="evenodd" fill-opacity="1" /><path clip-path="url(#clip400)" d="M205.545 1544.91 L213.184 1544.91 L213.184 1518.55 L204.874 1520.21 L204.874 1515.95 L213.138 1514.29 L217.814 1514.29 L217.814 1544.91 L225.453 1544.91 L225.453 1548.85 L205.545 1548.85 L205.545 1544.91 Z" fill="#000000" fill-rule="evenodd" fill-opacity="1" /><path clip-path="url(#clip400)" d="M234.897 1542.97 L239.781 1542.97 L239.781 1548.85 L234.897 1548.85 L234.897 1542.97 Z" fill="#000000" fill-rule="evenodd" fill-opacity="1" /><path clip-path="url(#clip400)" d="M259.966 1517.37 Q256.355 1517.37 254.527 1520.93 Q252.721 1524.47 252.721 1531.6 Q252.721 1538.71 254.527 1542.27 Q256.355 1545.82 259.966 1545.82 Q263.601 1545.82 265.406 1542.27 Q267.235 1538.71 267.235 1531.6 Q267.235 1524.47 265.406 1520.93 Q263.601 1517.37 259.966 1517.37 M259.966 1513.66 Q265.776 1513.66 268.832 1518.27 Q271.911 1522.85 271.911 1531.6 Q271.911 1540.33 268.832 1544.94 Q265.776 1549.52 259.966 1549.52 Q254.156 1549.52 251.077 1544.94 Q248.022 1540.33 248.022 1531.6 Q248.022 1522.85 251.077 1518.27 Q254.156 1513.66 259.966 1513.66 Z" fill="#000000" fill-rule="evenodd" fill-opacity="1" /><path clip-path="url(#clip400)" d="M683.503 1532.02 L713.178 1532.02 L713.178 1535.95 L683.503 1535.95 L683.503 1532.02 Z" fill="#000000" fill-rule="evenodd" fill-opacity="1" /><path clip-path="url(#clip400)" d="M733.271 1517.37 Q729.66 1517.37 727.831 1520.93 Q726.026 1524.47 726.026 1531.6 Q726.026 1538.71 727.831 1542.27 Q729.66 1545.82 733.271 1545.82 Q736.905 1545.82 738.711 1542.27 Q740.539 1538.71 740.539 1531.6 Q740.539 1524.47 738.711 1520.93 Q736.905 1517.37 733.271 1517.37 M733.271 1513.66 Q739.081 1513.66 742.137 1518.27 Q745.215 1522.85 745.215 1531.6 Q745.215 1540.33 742.137 1544.94 Q739.081 1549.52 733.271 1549.52 Q727.461 1549.52 724.382 1544.94 Q721.327 1540.33 721.327 1531.6 Q721.327 1522.85 724.382 1518.27 Q727.461 1513.66 733.271 1513.66 Z" fill="#000000" fill-rule="evenodd" fill-opacity="1" /><path clip-path="url(#clip400)" d="M753.433 1542.97 L758.317 1542.97 L758.317 1548.85 L753.433 1548.85 L753.433 1542.97 Z" fill="#000000" fill-rule="evenodd" fill-opacity="1" /><path clip-path="url(#clip400)" d="M768.548 1514.29 L786.905 1514.29 L786.905 1518.22 L772.831 1518.22 L772.831 1526.7 Q773.849 1526.35 774.868 1526.19 Q775.886 1526 776.905 1526 Q782.692 1526 786.072 1529.17 Q789.451 1532.34 789.451 1537.76 Q789.451 1543.34 785.979 1546.44 Q782.507 1549.52 776.187 1549.52 Q774.011 1549.52 771.743 1549.15 Q769.498 1548.78 767.09 1548.04 L767.09 1543.34 Q769.173 1544.47 771.396 1545.03 Q773.618 1545.58 776.095 1545.58 Q780.099 1545.58 782.437 1543.48 Q784.775 1541.37 784.775 1537.76 Q784.775 1534.15 782.437 1532.04 Q780.099 1529.94 776.095 1529.94 Q774.22 1529.94 772.345 1530.35 Q770.493 1530.77 768.548 1531.65 L768.548 1514.29 Z" fill="#000000" fill-rule="evenodd" fill-opacity="1" /><path clip-path="url(#clip400)" d="M1231.9 1517.37 Q1228.29 1517.37 1226.46 1520.93 Q1224.65 1524.47 1224.65 1531.6 Q1224.65 1538.71 1226.46 1542.27 Q1228.29 1545.82 1231.9 1545.82 Q1235.53 1545.82 1237.34 1542.27 Q1239.17 1538.71 1239.17 1531.6 Q1239.17 1524.47 1237.34 1520.93 Q1235.53 1517.37 1231.9 1517.37 M1231.9 1513.66 Q1237.71 1513.66 1240.77 1518.27 Q1243.84 1522.85 1243.84 1531.6 Q1243.84 1540.33 1240.77 1544.94 Q1237.71 1549.52 1231.9 1549.52 Q1226.09 1549.52 1223.01 1544.94 Q1219.96 1540.33 1219.96 1531.6 Q1219.96 1522.85 1223.01 1518.27 Q1226.09 1513.66 1231.9 1513.66 Z" fill="#000000" fill-rule="evenodd" fill-opacity="1" /><path clip-path="url(#clip400)" d="M1252.06 1542.97 L1256.95 1542.97 L1256.95 1548.85 L1252.06 1548.85 L1252.06 1542.97 Z" fill="#000000" fill-rule="evenodd" fill-opacity="1" /><path clip-path="url(#clip400)" d="M1277.13 1517.37 Q1273.52 1517.37 1271.69 1520.93 Q1269.89 1524.47 1269.89 1531.6 Q1269.89 1538.71 1271.69 1542.27 Q1273.52 1545.82 1277.13 1545.82 Q1280.76 1545.82 1282.57 1542.27 Q1284.4 1538.71 1284.4 1531.6 Q1284.4 1524.47 1282.57 1520.93 Q1280.76 1517.37 1277.13 1517.37 M1277.13 1513.66 Q1282.94 1513.66 1286 1518.27 Q1289.08 1522.85 1289.08 1531.6 Q1289.08 1540.33 1286 1544.94 Q1282.94 1549.52 1277.13 1549.52 Q1271.32 1549.52 1268.24 1544.94 Q1265.19 1540.33 1265.19 1531.6 Q1265.19 1522.85 1268.24 1518.27 Q1271.32 1513.66 1277.13 1513.66 Z" fill="#000000" fill-rule="evenodd" fill-opacity="1" /><path clip-path="url(#clip400)" d="M1750.44 1517.37 Q1746.82 1517.37 1745 1520.93 Q1743.19 1524.47 1743.19 1531.6 Q1743.19 1538.71 1745 1542.27 Q1746.82 1545.82 1750.44 1545.82 Q1754.07 1545.82 1755.88 1542.27 Q1757.7 1538.71 1757.7 1531.6 Q1757.7 1524.47 1755.88 1520.93 Q1754.07 1517.37 1750.44 1517.37 M1750.44 1513.66 Q1756.25 1513.66 1759.3 1518.27 Q1762.38 1522.85 1762.38 1531.6 Q1762.38 1540.33 1759.3 1544.94 Q1756.25 1549.52 1750.44 1549.52 Q1744.63 1549.52 1741.55 1544.94 Q1738.49 1540.33 1738.49 1531.6 Q1738.49 1522.85 1741.55 1518.27 Q1744.63 1513.66 1750.44 1513.66 Z" fill="#000000" fill-rule="evenodd" fill-opacity="1" /><path clip-path="url(#clip400)" d="M1770.6 1542.97 L1775.48 1542.97 L1775.48 1548.85 L1770.6 1548.85 L1770.6 1542.97 Z" fill="#000000" fill-rule="evenodd" fill-opacity="1" /><path clip-path="url(#clip400)" d="M1785.71 1514.29 L1804.07 1514.29 L1804.07 1518.22 L1790 1518.22 L1790 1526.7 Q1791.01 1526.35 1792.03 1526.19 Q1793.05 1526 1794.07 1526 Q1799.86 1526 1803.24 1529.17 Q1806.62 1532.34 1806.62 1537.76 Q1806.62 1543.34 1803.14 1546.44 Q1799.67 1549.52 1793.35 1549.52 Q1791.18 1549.52 1788.91 1549.15 Q1786.66 1548.78 1784.25 1548.04 L1784.25 1543.34 Q1786.34 1544.47 1788.56 1545.03 Q1790.78 1545.58 1793.26 1545.58 Q1797.26 1545.58 1799.6 1543.48 Q1801.94 1541.37 1801.94 1537.76 Q1801.94 1534.15 1799.6 1532.04 Q1797.26 1529.94 1793.26 1529.94 Q1791.38 1529.94 1789.51 1530.35 Q1787.66 1530.77 1785.71 1531.65 L1785.71 1514.29 Z" fill="#000000" fill-rule="evenodd" fill-opacity="1" /><path clip-path="url(#clip400)" d="M2257.74 1544.91 L2265.38 1544.91 L2265.38 1518.55 L2257.07 1520.21 L2257.07 1515.95 L2265.34 1514.29 L2270.01 1514.29 L2270.01 1544.91 L2277.65 1544.91 L2277.65 1548.85 L2257.74 1548.85 L2257.74 1544.91 Z" fill="#000000" fill-rule="evenodd" fill-opacity="1" /><path clip-path="url(#clip400)" d="M2287.1 1542.97 L2291.98 1542.97 L2291.98 1548.85 L2287.1 1548.85 L2287.1 1542.97 Z" fill="#000000" fill-rule="evenodd" fill-opacity="1" /><path clip-path="url(#clip400)" d="M2312.17 1517.37 Q2308.55 1517.37 2306.73 1520.93 Q2304.92 1524.47 2304.92 1531.6 Q2304.92 1538.71 2306.73 1542.27 Q2308.55 1545.82 2312.17 1545.82 Q2315.8 1545.82 2317.61 1542.27 Q2319.43 1538.71 2319.43 1531.6 Q2319.43 1524.47 2317.61 1520.93 Q2315.8 1517.37 2312.17 1517.37 M2312.17 1513.66 Q2317.98 1513.66 2321.03 1518.27 Q2324.11 1522.85 2324.11 1531.6 Q2324.11 1540.33 2321.03 1544.94 Q2317.98 1549.52 2312.17 1549.52 Q2306.36 1549.52 2303.28 1544.94 Q2300.22 1540.33 2300.22 1531.6 Q2300.22 1522.85 2303.28 1518.27 Q2306.36 1513.66 2312.17 1513.66 Z" fill="#000000" fill-rule="evenodd" fill-opacity="1" /><polyline clip-path="url(#clip402)" style="stroke:#000000; stroke-linecap:round; stroke-linejoin:round; stroke-width:2; stroke-opacity:0.1; fill:none" points="
  156.274,1254.89 2352.76,1254.89 
  "/>
<polyline clip-path="url(#clip402)" style="stroke:#000000; stroke-linecap:round; stroke-linejoin:round; stroke-width:2; stroke-opacity:0.1; fill:none" points="
  156.274,981.87 2352.76,981.87 
  "/>
<polyline clip-path="url(#clip402)" style="stroke:#000000; stroke-linecap:round; stroke-linejoin:round; stroke-width:2; stroke-opacity:0.1; fill:none" points="
  156.274,708.855 2352.76,708.855 
  "/>
<polyline clip-path="url(#clip402)" style="stroke:#000000; stroke-linecap:round; stroke-linejoin:round; stroke-width:2; stroke-opacity:0.1; fill:none" points="
  156.274,435.839 2352.76,435.839 
  "/>
<polyline clip-path="url(#clip402)" style="stroke:#000000; stroke-linecap:round; stroke-linejoin:round; stroke-width:2; stroke-opacity:0.1; fill:none" points="
  156.274,162.824 2352.76,162.824 
  "/>
<polyline clip-path="url(#clip400)" style="stroke:#000000; stroke-linecap:round; stroke-linejoin:round; stroke-width:4; stroke-opacity:1; fill:none" points="
  156.274,1486.45 156.274,47.2441 
  "/>
<polyline clip-path="url(#clip400)" style="stroke:#000000; stroke-linecap:round; stroke-linejoin:round; stroke-width:4; stroke-opacity:1; fill:none" points="
  156.274,1254.89 175.172,1254.89 
  "/>
<polyline clip-path="url(#clip400)" style="stroke:#000000; stroke-linecap:round; stroke-linejoin:round; stroke-width:4; stroke-opacity:1; fill:none" points="
  156.274,981.87 175.172,981.87 
  "/>
<polyline clip-path="url(#clip400)" style="stroke:#000000; stroke-linecap:round; stroke-linejoin:round; stroke-width:4; stroke-opacity:1; fill:none" points="
  156.274,708.855 175.172,708.855 
  "/>
<polyline clip-path="url(#clip400)" style="stroke:#000000; stroke-linecap:round; stroke-linejoin:round; stroke-width:4; stroke-opacity:1; fill:none" points="
  156.274,435.839 175.172,435.839 
  "/>
<polyline clip-path="url(#clip400)" style="stroke:#000000; stroke-linecap:round; stroke-linejoin:round; stroke-width:4; stroke-opacity:1; fill:none" points="
  156.274,162.824 175.172,162.824 
  "/>
<path clip-path="url(#clip400)" d="M63.0985 1240.68 Q59.4875 1240.68 57.6588 1244.25 Q55.8532 1247.79 55.8532 1254.92 Q55.8532 1262.03 57.6588 1265.59 Q59.4875 1269.13 63.0985 1269.13 Q66.7328 1269.13 68.5383 1265.59 Q70.367 1262.03 70.367 1254.92 Q70.367 1247.79 68.5383 1244.25 Q66.7328 1240.68 63.0985 1240.68 M63.0985 1236.98 Q68.9087 1236.98 71.9642 1241.59 Q75.0429 1246.17 75.0429 1254.92 Q75.0429 1263.65 71.9642 1268.25 Q68.9087 1272.84 63.0985 1272.84 Q57.2884 1272.84 54.2097 1268.25 Q51.1542 1263.65 51.1542 1254.92 Q51.1542 1246.17 54.2097 1241.59 Q57.2884 1236.98 63.0985 1236.98 Z" fill="#000000" fill-rule="evenodd" fill-opacity="1" /><path clip-path="url(#clip400)" d="M83.2605 1266.29 L88.1447 1266.29 L88.1447 1272.17 L83.2605 1272.17 L83.2605 1266.29 Z" fill="#000000" fill-rule="evenodd" fill-opacity="1" /><path clip-path="url(#clip400)" d="M108.33 1240.68 Q104.719 1240.68 102.89 1244.25 Q101.084 1247.79 101.084 1254.92 Q101.084 1262.03 102.89 1265.59 Q104.719 1269.13 108.33 1269.13 Q111.964 1269.13 113.77 1265.59 Q115.598 1262.03 115.598 1254.92 Q115.598 1247.79 113.77 1244.25 Q111.964 1240.68 108.33 1240.68 M108.33 1236.98 Q114.14 1236.98 117.195 1241.59 Q120.274 1246.17 120.274 1254.92 Q120.274 1263.65 117.195 1268.25 Q114.14 1272.84 108.33 1272.84 Q102.52 1272.84 99.4409 1268.25 Q96.3854 1263.65 96.3854 1254.92 Q96.3854 1246.17 99.4409 1241.59 Q102.52 1236.98 108.33 1236.98 Z" fill="#000000" fill-rule="evenodd" fill-opacity="1" /><path clip-path="url(#clip400)" d="M63.7467 967.669 Q60.1356 967.669 58.3069 971.233 Q56.5014 974.775 56.5014 981.905 Q56.5014 989.011 58.3069 992.576 Q60.1356 996.118 63.7467 996.118 Q67.3809 996.118 69.1865 992.576 Q71.0152 989.011 71.0152 981.905 Q71.0152 974.775 69.1865 971.233 Q67.3809 967.669 63.7467 967.669 M63.7467 963.965 Q69.5568 963.965 72.6124 968.571 Q75.6911 973.155 75.6911 981.905 Q75.6911 990.632 72.6124 995.238 Q69.5568 999.821 63.7467 999.821 Q57.9365 999.821 54.8578 995.238 Q51.8023 990.632 51.8023 981.905 Q51.8023 973.155 54.8578 968.571 Q57.9365 963.965 63.7467 963.965 Z" fill="#000000" fill-rule="evenodd" fill-opacity="1" /><path clip-path="url(#clip400)" d="M83.9086 993.27 L88.7928 993.27 L88.7928 999.15 L83.9086 999.15 L83.9086 993.27 Z" fill="#000000" fill-rule="evenodd" fill-opacity="1" /><path clip-path="url(#clip400)" d="M113.145 980.516 Q116.501 981.233 118.376 983.502 Q120.274 985.77 120.274 989.104 Q120.274 994.219 116.756 997.02 Q113.237 999.821 106.756 999.821 Q104.58 999.821 102.265 999.381 Q99.9733 998.965 97.5197 998.108 L97.5197 993.594 Q99.4641 994.729 101.779 995.307 Q104.094 995.886 106.617 995.886 Q111.015 995.886 113.307 994.15 Q115.621 992.414 115.621 989.104 Q115.621 986.048 113.469 984.335 Q111.339 982.599 107.52 982.599 L103.492 982.599 L103.492 978.757 L107.705 978.757 Q111.154 978.757 112.983 977.391 Q114.811 976.002 114.811 973.409 Q114.811 970.747 112.913 969.335 Q111.038 967.9 107.52 967.9 Q105.598 967.9 103.399 968.317 Q101.2 968.733 98.5613 969.613 L98.5613 965.446 Q101.223 964.706 103.538 964.335 Q105.876 963.965 107.936 963.965 Q113.26 963.965 116.362 966.396 Q119.464 968.803 119.464 972.923 Q119.464 975.794 117.82 977.784 Q116.177 979.752 113.145 980.516 Z" fill="#000000" fill-rule="evenodd" fill-opacity="1" /><path clip-path="url(#clip400)" d="M62.9365 694.653 Q59.3254 694.653 57.4967 698.218 Q55.6912 701.76 55.6912 708.889 Q55.6912 715.996 57.4967 719.561 Q59.3254 723.102 62.9365 723.102 Q66.5707 723.102 68.3763 719.561 Q70.205 715.996 70.205 708.889 Q70.205 701.76 68.3763 698.218 Q66.5707 694.653 62.9365 694.653 M62.9365 690.95 Q68.7467 690.95 71.8022 695.556 Q74.8809 700.139 74.8809 708.889 Q74.8809 717.616 71.8022 722.223 Q68.7467 726.806 62.9365 726.806 Q57.1264 726.806 54.0477 722.223 Q50.9921 717.616 50.9921 708.889 Q50.9921 700.139 54.0477 695.556 Q57.1264 690.95 62.9365 690.95 Z" fill="#000000" fill-rule="evenodd" fill-opacity="1" /><path clip-path="url(#clip400)" d="M83.0984 720.255 L87.9827 720.255 L87.9827 726.135 L83.0984 726.135 L83.0984 720.255 Z" fill="#000000" fill-rule="evenodd" fill-opacity="1" /><path clip-path="url(#clip400)" d="M108.746 706.991 Q105.598 706.991 103.746 709.144 Q101.918 711.297 101.918 715.047 Q101.918 718.774 103.746 720.949 Q105.598 723.102 108.746 723.102 Q111.895 723.102 113.723 720.949 Q115.575 718.774 115.575 715.047 Q115.575 711.297 113.723 709.144 Q111.895 706.991 108.746 706.991 M118.029 692.338 L118.029 696.598 Q116.27 695.764 114.464 695.325 Q112.682 694.885 110.922 694.885 Q106.293 694.885 103.839 698.01 Q101.409 701.135 101.061 707.454 Q102.427 705.44 104.487 704.375 Q106.547 703.287 109.024 703.287 Q114.233 703.287 117.242 706.459 Q120.274 709.607 120.274 715.047 Q120.274 720.371 117.126 723.588 Q113.978 726.806 108.746 726.806 Q102.751 726.806 99.5798 722.223 Q96.4085 717.616 96.4085 708.889 Q96.4085 700.695 100.297 695.834 Q104.186 690.95 110.737 690.95 Q112.496 690.95 114.279 691.297 Q116.084 691.644 118.029 692.338 Z" fill="#000000" fill-rule="evenodd" fill-opacity="1" /><path clip-path="url(#clip400)" d="M63.2837 421.638 Q59.6726 421.638 57.8439 425.203 Q56.0384 428.744 56.0384 435.874 Q56.0384 442.98 57.8439 446.545 Q59.6726 450.087 63.2837 450.087 Q66.918 450.087 68.7235 446.545 Q70.5522 442.98 70.5522 435.874 Q70.5522 428.744 68.7235 425.203 Q66.918 421.638 63.2837 421.638 M63.2837 417.934 Q69.0939 417.934 72.1494 422.541 Q75.2281 427.124 75.2281 435.874 Q75.2281 444.601 72.1494 449.207 Q69.0939 453.79 63.2837 453.79 Q57.4736 453.79 54.3949 449.207 Q51.3393 444.601 51.3393 435.874 Q51.3393 427.124 54.3949 422.541 Q57.4736 417.934 63.2837 417.934 Z" fill="#000000" fill-rule="evenodd" fill-opacity="1" /><path clip-path="url(#clip400)" d="M83.4457 447.24 L88.3299 447.24 L88.3299 453.119 L83.4457 453.119 L83.4457 447.24 Z" fill="#000000" fill-rule="evenodd" fill-opacity="1" /><path clip-path="url(#clip400)" d="M98.6539 452.402 L98.6539 448.142 Q100.413 448.976 102.219 449.416 Q104.024 449.855 105.76 449.855 Q110.39 449.855 112.82 446.753 Q115.274 443.629 115.621 437.286 Q114.279 439.277 112.219 440.341 Q110.158 441.406 107.658 441.406 Q102.473 441.406 99.4409 438.281 Q96.4317 435.133 96.4317 429.693 Q96.4317 424.369 99.5798 421.152 Q102.728 417.934 107.959 417.934 Q113.955 417.934 117.103 422.541 Q120.274 427.124 120.274 435.874 Q120.274 444.045 116.385 448.929 Q112.52 453.79 105.969 453.79 Q104.209 453.79 102.404 453.443 Q100.598 453.096 98.6539 452.402 M107.959 437.749 Q111.108 437.749 112.936 435.596 Q114.788 433.443 114.788 429.693 Q114.788 425.967 112.936 423.814 Q111.108 421.638 107.959 421.638 Q104.811 421.638 102.959 423.814 Q101.131 425.967 101.131 429.693 Q101.131 433.443 102.959 435.596 Q104.811 437.749 107.959 437.749 Z" fill="#000000" fill-rule="evenodd" fill-opacity="1" /><path clip-path="url(#clip400)" d="M55.506 176.169 L63.1448 176.169 L63.1448 149.803 L54.8347 151.47 L54.8347 147.21 L63.0985 145.544 L67.7744 145.544 L67.7744 176.169 L75.4133 176.169 L75.4133 180.104 L55.506 180.104 L55.506 176.169 Z" fill="#000000" fill-rule="evenodd" fill-opacity="1" /><path clip-path="url(#clip400)" d="M84.8577 174.224 L89.7419 174.224 L89.7419 180.104 L84.8577 180.104 L84.8577 174.224 Z" fill="#000000" fill-rule="evenodd" fill-opacity="1" /><path clip-path="url(#clip400)" d="M103.955 176.169 L120.274 176.169 L120.274 180.104 L98.3298 180.104 L98.3298 176.169 Q100.992 173.414 105.575 168.784 Q110.182 164.132 111.362 162.789 Q113.608 160.266 114.487 158.53 Q115.39 156.771 115.39 155.081 Q115.39 152.326 113.445 150.59 Q111.524 148.854 108.422 148.854 Q106.223 148.854 103.77 149.618 Q101.339 150.382 98.5613 151.933 L98.5613 147.21 Q101.385 146.076 103.839 145.498 Q106.293 144.919 108.33 144.919 Q113.7 144.919 116.895 147.604 Q120.089 150.289 120.089 154.78 Q120.089 156.909 119.279 158.831 Q118.492 160.729 116.385 163.321 Q115.807 163.993 112.705 167.21 Q109.603 170.405 103.955 176.169 Z" fill="#000000" fill-rule="evenodd" fill-opacity="1" /><polyline clip-path="url(#clip402)" style="stroke:#009af9; stroke-linecap:round; stroke-linejoin:round; stroke-width:16; stroke-opacity:1; fill:none" stroke-dasharray="8, 16" points="
  218.439,1118.2 228.852,1108.11 239.264,1095.22 249.677,1082.64 260.09,1073.28 270.503,1069.97 280.916,1075.87 291.329,1092.7 301.741,1118.1 312.154,1145.97 
  322.567,1172.34 332.98,1200.07 343.393,1232.47 353.805,1267.56 364.218,1301.6 374.631,1332.28 385.044,1358.9 395.457,1381.72 405.87,1401.22 416.282,1417.49 
  426.695,1429.91 437.108,1437.3 447.521,1438.35 457.934,1432.22 468.347,1418.9 478.759,1399.27 489.172,1374.82 499.585,1347.11 509.998,1317.47 520.411,1286.77 
  530.824,1255.59 541.236,1224.39 551.649,1193.72 562.062,1164.34 572.475,1137.19 582.888,1113.34 593.301,1093.85 603.713,1079.72 614.126,1071.83 624.539,1070.87 
  634.952,1077.05 645.365,1089.74 655.777,1107.48 666.19,1128.49 676.603,1151.6 687.016,1176.78 697.429,1204.96 707.842,1236.97 718.254,1272.13 728.667,1307.85 
  739.08,1340.8 749.493,1368.7 759.906,1391.11 770.319,1408.84 780.731,1422.66 791.144,1432.36 801.557,1436.7 811.97,1434.4 822.383,1425.32 832.796,1410.71 
  843.208,1392.02 853.621,1369.65 864.034,1343.42 874.447,1313.66 884.86,1281.06 895.273,1247.24 905.685,1215.38 916.098,1187.79 926.511,1161.92 936.924,1129.35 
  947.337,1088.39 957.749,1059.7 968.162,1060.05 978.575,1072.32 988.988,1076.54 999.401,1078.55 1009.81,1092.63 1020.23,1109.94 1030.64,1104.27 1041.05,995.43 
  1051.46,993.152 1061.88,1167.87 1072.29,1409.72 1082.7,1445.72 1093.12,1340.95 1103.53,1335.79 1113.94,1385.4 1124.35,1391 1134.77,1430.83 1145.18,1438.77 
  1155.59,1412.48 1166.01,1400.85 1176.42,1406.05 1186.83,1413.83 1197.24,1422.82 1207.66,1430.69 1218.07,1422.42 1228.48,1369.8 1238.9,1240.11 1249.31,1016.72 
  1259.72,727.461 1270.13,451.903 1280.55,274.86 1290.96,218.997 1301.37,243.671 1311.79,309.84 1322.2,398.624 1332.61,474.499 1343.02,485.828 1353.44,400.658 
  1363.85,291.144 1374.26,234.644 1384.68,298.854 1395.09,388.858 1405.5,287.851 1415.91,112.254 1426.33,178.586 1436.74,320.212 1447.15,398.543 1457.57,404.769 
  1467.98,393.291 1478.39,355.247 1488.8,275.935 1499.22,216.931 1509.63,221.33 1520.04,282.82 1530.45,366.752 1540.87,431.03 1551.28,454.255 1561.69,439.315 
  1572.11,399.793 1582.52,350.537 1592.93,303.842 1603.34,268.644 1613.76,250.89 1624.17,254.37 1634.58,281.25 1645,330.273 1655.41,392.195 1665.82,447.798 
  1676.23,474.604 1686.65,458.728 1697.06,402.753 1707.47,325.861 1717.89,255.782 1728.3,215.774 1738.71,215.157 1749.12,249.116 1759.54,305.69 1769.95,372.079 
  1780.36,435.036 1790.78,479.171 1801.19,489.472 1811.6,457.489 1822.01,386.959 1832.43,296.911 1842.84,218.246 1853.25,179.12 1863.67,190.016 1874.08,244.035 
  1884.49,325.905 1894.9,415.002 1905.32,485.261 1915.73,514.387 1926.14,495.635 1936.56,436.029 1946.97,349.428 1957.38,256.811 1967.79,185.45 1978.21,158.646 
  1988.62,184.285 1999.03,253.32 2009.45,346.625 2019.86,442.308 2030.27,519.581 2040.68,559.874 2051.1,547.172 2061.51,470.662 2071.92,335.65 2082.33,184.058 
  2092.75,88.2849 2103.16,87.9763 2113.57,168.15 2123.99,296.292 2134.4,436.536 2144.81,551.11 2155.22,603.174 2165.64,559.965 2176.05,413.463 2186.46,236.834 
  2196.88,147.752 2207.29,152.258 2217.7,190.463 2228.11,235.631 2238.53,284.613 2248.94,337.637 2259.35,393.753 2269.77,451.72 2280.18,511.011 2290.59,571.285 
  
  "/>
<polyline clip-path="url(#clip402)" style="stroke:#e26f46; stroke-linecap:round; stroke-linejoin:round; stroke-width:4; stroke-opacity:1; fill:none" points="
  218.439,1118.2 228.852,1098.81 239.264,1084.51 249.677,1075.77 260.09,1072.88 270.503,1075.92 280.916,1084.81 291.329,1099.25 301.741,1118.77 312.154,1142.73 
  322.567,1170.35 332.98,1200.73 343.393,1232.88 353.805,1265.75 364.218,1298.26 374.631,1329.36 385.044,1358.02 395.457,1383.32 405.87,1404.43 416.282,1420.66 
  426.695,1431.47 437.108,1436.52 447.521,1435.65 457.934,1428.88 468.347,1416.42 478.759,1398.7 489.172,1376.28 499.585,1349.9 509.998,1320.41 520.411,1288.79 
  530.824,1256.07 541.236,1223.3 551.649,1191.57 562.062,1161.9 572.475,1135.26 582.888,1112.54 593.301,1094.45 603.713,1081.6 614.126,1074.41 624.539,1073.11 
  634.952,1077.74 645.365,1088.15 655.777,1104.01 666.19,1124.79 676.603,1149.81 687.016,1178.26 697.429,1209.22 707.842,1241.66 718.254,1274.54 728.667,1306.77 
  739.08,1337.32 749.493,1365.17 759.906,1389.42 770.319,1409.28 780.731,1424.1 791.144,1433.4 801.557,1436.87 811.97,1434.41 822.383,1426.08 832.796,1412.17 
  843.208,1393.12 853.621,1369.56 864.034,1342.26 874.447,1312.11 884.86,1280.09 895.273,1247.25 905.685,1214.65 916.098,1183.37 926.511,1154.43 936.924,1128.76 
  947.337,1107.21 957.749,1090.48 968.162,1079.11 978.575,1073.48 988.988,1073.77 999.401,1079.97 1009.81,1091.89 1020.23,1109.12 1030.64,1131.11 1041.05,1157.13 
  1051.46,1186.35 1061.88,1217.81 1072.29,1250.47 1082.7,1283.28 1093.12,1315.17 1103.53,1345.08 1113.94,1372.05 1124.35,1395.2 1134.77,1413.77 1145.18,1427.15 
  1155.59,1434.91 1166.01,1436.8 1176.42,1432.74 1186.83,1422.89 1197.24,1407.55 1207.66,1387.22 1218.07,1362.58 1228.48,1334.42 1238.9,1303.67 1249.31,1271.33 
  1259.72,343.512 1270.13,342.008 1280.55,343.377 1290.96,347.934 1301.37,354.283 1311.79,359.741 1322.2,361.357 1332.61,357.157 1343.02,347.147 1353.44,333.651 
  1363.85,320.809 1374.26,313.307 1384.68,314.746 1395.09,326.193 1405.5,345.445 1415.91,367.356 1426.33,385.199 1436.74,392.725 1447.15,386.282 1457.57,366.292 
  1467.98,337.539 1478.39,308.072 1488.8,286.953 1499.22,281.482 1509.63,294.745 1520.04,324.293 1530.45,362.453 1540.87,398.3 1551.28,420.781 1561.69,422.113 
  1572.11,400.393 1582.52,360.587 1592.93,313.467 1603.34,272.708 1613.76,250.92 1624.17,255.765 1634.58,287.353 1645,337.782 1655.41,393.064 1665.82,437.008 
  1676.23,455.954 1686.65,442.998 1697.06,400.396 1707.47,339.334 1717.89,277.022 1728.3,231.841 1738.71,217.926 1749.12,240.775 1759.54,295.234 1769.95,366.578 
  1780.36,434.47 1790.78,478.765 1801.19,485.474 1811.6,451.153 1822.01,384.324 1832.43,303.412 1842.84,231.677 1853.25,190.524 1863.67,193.126 1874.08,240.251 
  1884.49,319.608 1894.9,409.015 1905.32,482.6 1915.73,518.281 1926.14,504.386 1936.56,443.414 1946.97,351.742 1957.38,255.252 1967.79,182.025 1978.21,154.171 
  1988.62,181.164 1999.03,256.704 2009.45,360.102 2019.86,461.938 2030.27,532.429 2040.68,550.135 2051.1,508.462 2061.51,417.991 2071.92,303.835 2082.33,198.679 
  2092.75,133.42 2103.16,128.097 2113.57,185.758 2123.99,291.15 2134.4,414.725 2144.81,520.918 2155.22,578.38 2165.64,569.231 2176.05,494.587 2186.46,374.677 
  2196.88,243.377 2207.29,138.647 2217.7,91.5532 2228.11,117.065 2238.53,209.338 2248.94,342.965 2259.35,479.963 2269.77,580.567 2280.18,614.765 2290.59,571.248 
  
  "/>
<path clip-path="url(#clip400)" d="
M229.49 250.738 L700.371 250.738 L700.371 95.2176 L229.49 95.2176  Z
  " fill="#ffffff" fill-rule="evenodd" fill-opacity="1"/>
<polyline clip-path="url(#clip400)" style="stroke:#000000; stroke-linecap:round; stroke-linejoin:round; stroke-width:4; stroke-opacity:1; fill:none" points="
  229.49,250.738 700.371,250.738 700.371,95.2176 229.49,95.2176 229.49,250.738 
  "/>
<polyline clip-path="url(#clip400)" style="stroke:#009af9; stroke-linecap:round; stroke-linejoin:round; stroke-width:4; stroke-opacity:1; fill:none" stroke-dasharray="2, 4" points="
  253.896,147.058 400.328,147.058 
  "/>
<path clip-path="url(#clip400)" d="M429.409 133.62 L429.409 146.606 L435.289 146.606 Q438.552 146.606 440.335 144.916 Q442.117 143.227 442.117 140.102 Q442.117 137 440.335 135.31 Q438.552 133.62 435.289 133.62 L429.409 133.62 M424.733 129.778 L435.289 129.778 Q441.099 129.778 444.062 132.416 Q447.048 135.032 447.048 140.102 Q447.048 145.217 444.062 147.833 Q441.099 150.449 435.289 150.449 L429.409 150.449 L429.409 164.338 L424.733 164.338 L424.733 129.778 Z" fill="#000000" fill-rule="evenodd" fill-opacity="1" /><path clip-path="url(#clip400)" d="M467.325 142.393 Q466.608 141.977 465.751 141.791 Q464.918 141.583 463.899 141.583 Q460.288 141.583 458.344 143.944 Q456.423 146.282 456.423 150.68 L456.423 164.338 L452.14 164.338 L452.14 138.412 L456.423 138.412 L456.423 142.44 Q457.765 140.078 459.918 138.944 Q462.071 137.787 465.149 137.787 Q465.589 137.787 466.122 137.856 Q466.654 137.903 467.302 138.018 L467.325 142.393 Z" fill="#000000" fill-rule="evenodd" fill-opacity="1" /><path clip-path="url(#clip400)" d="M492.927 150.31 L492.927 152.393 L473.344 152.393 Q473.622 156.791 475.983 159.106 Q478.367 161.398 482.603 161.398 Q485.057 161.398 487.348 160.796 Q489.663 160.194 491.932 158.99 L491.932 163.018 Q489.64 163.99 487.233 164.5 Q484.825 165.009 482.348 165.009 Q476.145 165.009 472.511 161.398 Q468.899 157.787 468.899 151.629 Q468.899 145.264 472.325 141.537 Q475.774 137.787 481.608 137.787 Q486.839 137.787 489.872 141.166 Q492.927 144.523 492.927 150.31 M488.668 149.06 Q488.622 145.565 486.7 143.481 Q484.802 141.398 481.654 141.398 Q478.089 141.398 475.936 143.412 Q473.807 145.426 473.483 149.083 L488.668 149.06 Z" fill="#000000" fill-rule="evenodd" fill-opacity="1" /><path clip-path="url(#clip400)" d="M516.978 142.347 L516.978 128.319 L521.237 128.319 L521.237 164.338 L516.978 164.338 L516.978 160.449 Q515.635 162.763 513.575 163.898 Q511.538 165.009 508.668 165.009 Q503.969 165.009 501.006 161.259 Q498.066 157.509 498.066 151.398 Q498.066 145.287 501.006 141.537 Q503.969 137.787 508.668 137.787 Q511.538 137.787 513.575 138.921 Q515.635 140.032 516.978 142.347 M502.464 151.398 Q502.464 156.097 504.385 158.782 Q506.33 161.444 509.709 161.444 Q513.089 161.444 515.033 158.782 Q516.978 156.097 516.978 151.398 Q516.978 146.699 515.033 144.037 Q513.089 141.352 509.709 141.352 Q506.33 141.352 504.385 144.037 Q502.464 146.699 502.464 151.398 Z" fill="#000000" fill-rule="evenodd" fill-opacity="1" /><path clip-path="url(#clip400)" d="M530.01 138.412 L534.269 138.412 L534.269 164.338 L530.01 164.338 L530.01 138.412 M530.01 128.319 L534.269 128.319 L534.269 133.713 L530.01 133.713 L530.01 128.319 Z" fill="#000000" fill-rule="evenodd" fill-opacity="1" /><path clip-path="url(#clip400)" d="M561.839 139.407 L561.839 143.389 Q560.033 142.393 558.205 141.907 Q556.399 141.398 554.547 141.398 Q550.404 141.398 548.112 144.037 Q545.82 146.652 545.82 151.398 Q545.82 156.143 548.112 158.782 Q550.404 161.398 554.547 161.398 Q556.399 161.398 558.205 160.912 Q560.033 160.402 561.839 159.407 L561.839 163.342 Q560.056 164.176 558.135 164.592 Q556.237 165.009 554.084 165.009 Q548.228 165.009 544.779 161.328 Q541.33 157.648 541.33 151.398 Q541.33 145.055 544.802 141.421 Q548.297 137.787 554.362 137.787 Q556.33 137.787 558.205 138.203 Q560.08 138.597 561.839 139.407 Z" fill="#000000" fill-rule="evenodd" fill-opacity="1" /><path clip-path="url(#clip400)" d="M573.459 131.051 L573.459 138.412 L582.232 138.412 L582.232 141.722 L573.459 141.722 L573.459 155.796 Q573.459 158.967 574.316 159.87 Q575.195 160.773 577.857 160.773 L582.232 160.773 L582.232 164.338 L577.857 164.338 Q572.927 164.338 571.052 162.509 Q569.177 160.657 569.177 155.796 L569.177 141.722 L566.052 141.722 L566.052 138.412 L569.177 138.412 L569.177 131.051 L573.459 131.051 Z" fill="#000000" fill-rule="evenodd" fill-opacity="1" /><path clip-path="url(#clip400)" d="M587.834 138.412 L592.093 138.412 L592.093 164.338 L587.834 164.338 L587.834 138.412 M587.834 128.319 L592.093 128.319 L592.093 133.713 L587.834 133.713 L587.834 128.319 Z" fill="#000000" fill-rule="evenodd" fill-opacity="1" /><path clip-path="url(#clip400)" d="M611.051 141.398 Q607.626 141.398 605.635 144.083 Q603.644 146.745 603.644 151.398 Q603.644 156.051 605.612 158.736 Q607.602 161.398 611.051 161.398 Q614.454 161.398 616.445 158.713 Q618.436 156.027 618.436 151.398 Q618.436 146.791 616.445 144.106 Q614.454 141.398 611.051 141.398 M611.051 137.787 Q616.607 137.787 619.778 141.398 Q622.95 145.009 622.95 151.398 Q622.95 157.764 619.778 161.398 Q616.607 165.009 611.051 165.009 Q605.473 165.009 602.302 161.398 Q599.153 157.764 599.153 151.398 Q599.153 145.009 602.302 141.398 Q605.473 137.787 611.051 137.787 Z" fill="#000000" fill-rule="evenodd" fill-opacity="1" /><path clip-path="url(#clip400)" d="M651.561 148.689 L651.561 164.338 L647.301 164.338 L647.301 148.828 Q647.301 145.148 645.866 143.319 Q644.431 141.49 641.561 141.49 Q638.112 141.49 636.121 143.69 Q634.13 145.889 634.13 149.685 L634.13 164.338 L629.848 164.338 L629.848 138.412 L634.13 138.412 L634.13 142.44 Q635.658 140.102 637.718 138.944 Q639.801 137.787 642.51 137.787 Q646.977 137.787 649.269 140.565 Q651.561 143.319 651.561 148.689 Z" fill="#000000" fill-rule="evenodd" fill-opacity="1" /><polyline clip-path="url(#clip400)" style="stroke:#e26f46; stroke-linecap:round; stroke-linejoin:round; stroke-width:4; stroke-opacity:1; fill:none" points="
  253.896,198.898 400.328,198.898 
  "/>
<path clip-path="url(#clip400)" d="M424.733 181.618 L446.585 181.618 L446.585 185.553 L429.409 185.553 L429.409 195.784 L445.867 195.784 L445.867 199.719 L429.409 199.719 L429.409 212.242 L447.001 212.242 L447.001 216.178 L424.733 216.178 L424.733 181.618 Z" fill="#000000" fill-rule="evenodd" fill-opacity="1" /><path clip-path="url(#clip400)" d="M476.052 190.252 L466.677 202.867 L476.538 216.178 L471.515 216.178 L463.969 205.992 L456.423 216.178 L451.4 216.178 L461.469 202.613 L452.256 190.252 L457.279 190.252 L464.154 199.488 L471.029 190.252 L476.052 190.252 Z" fill="#000000" fill-rule="evenodd" fill-opacity="1" /><path clip-path="url(#clip400)" d="M494.339 203.145 Q489.177 203.145 487.186 204.326 Q485.196 205.506 485.196 208.354 Q485.196 210.622 486.677 211.965 Q488.182 213.284 490.751 213.284 Q494.293 213.284 496.422 210.784 Q498.575 208.261 498.575 204.094 L498.575 203.145 L494.339 203.145 M502.834 201.386 L502.834 216.178 L498.575 216.178 L498.575 212.242 Q497.117 214.603 494.941 215.738 Q492.765 216.849 489.617 216.849 Q485.635 216.849 483.274 214.627 Q480.936 212.381 480.936 208.631 Q480.936 204.256 483.853 202.034 Q486.793 199.812 492.603 199.812 L498.575 199.812 L498.575 199.395 Q498.575 196.455 496.631 194.858 Q494.71 193.238 491.214 193.238 Q488.992 193.238 486.885 193.77 Q484.779 194.303 482.835 195.367 L482.835 191.432 Q485.173 190.53 487.372 190.09 Q489.571 189.627 491.654 189.627 Q497.279 189.627 500.057 192.543 Q502.834 195.46 502.834 201.386 Z" fill="#000000" fill-rule="evenodd" fill-opacity="1" /><path clip-path="url(#clip400)" d="M530.265 191.247 L530.265 195.229 Q528.459 194.233 526.631 193.747 Q524.825 193.238 522.973 193.238 Q518.83 193.238 516.538 195.877 Q514.246 198.492 514.246 203.238 Q514.246 207.983 516.538 210.622 Q518.83 213.238 522.973 213.238 Q524.825 213.238 526.631 212.752 Q528.459 212.242 530.265 211.247 L530.265 215.182 Q528.482 216.016 526.561 216.432 Q524.663 216.849 522.51 216.849 Q516.654 216.849 513.205 213.168 Q509.756 209.488 509.756 203.238 Q509.756 196.895 513.228 193.261 Q516.723 189.627 522.788 189.627 Q524.756 189.627 526.631 190.043 Q528.506 190.437 530.265 191.247 Z" fill="#000000" fill-rule="evenodd" fill-opacity="1" /><path clip-path="url(#clip400)" d="M541.885 182.891 L541.885 190.252 L550.658 190.252 L550.658 193.562 L541.885 193.562 L541.885 207.636 Q541.885 210.807 542.742 211.71 Q543.621 212.613 546.283 212.613 L550.658 212.613 L550.658 216.178 L546.283 216.178 Q541.353 216.178 539.478 214.349 Q537.603 212.497 537.603 207.636 L537.603 193.562 L534.478 193.562 L534.478 190.252 L537.603 190.252 L537.603 182.891 L541.885 182.891 Z" fill="#000000" fill-rule="evenodd" fill-opacity="1" /></svg>
