<?xml version="1.0" encoding="utf-8"?>
<svg xmlns="http://www.w3.org/2000/svg" xmlns:xlink="http://www.w3.org/1999/xlink" width="600" height="400" viewBox="0 0 2400 1600">
<defs>
  <clipPath id="clip930">
    <rect x="0" y="0" width="2400" height="1600"/>
  </clipPath>
</defs>
<path clip-path="url(#clip930)" d="M0 1600 L2400 1600 L2400 0 L0 0  Z" fill="#ffffff" fill-rule="evenodd" fill-opacity="1"/>
<defs>
  <clipPath id="clip931">
    <rect x="480" y="0" width="1681" height="1600"/>
  </clipPath>
</defs>
<path clip-path="url(#clip930)" d="M156.598 1486.45 L2352.76 1486.45 L2352.76 47.2441 L156.598 47.2441  Z" fill="#ffffff" fill-rule="evenodd" fill-opacity="1"/>
<defs>
  <clipPath id="clip932">
    <rect x="156" y="47" width="2197" height="1440"/>
  </clipPath>
</defs>
<polyline clip-path="url(#clip932)" style="stroke:#000000; stroke-linecap:round; stroke-linejoin:round; stroke-width:2; stroke-opacity:0.1; fill:none" points="218.754,1486.45 218.754,47.2441 "/>
<polyline clip-path="url(#clip932)" style="stroke:#000000; stroke-linecap:round; stroke-linejoin:round; stroke-width:2; stroke-opacity:0.1; fill:none" points="736.715,1486.45 736.715,47.2441 "/>
<polyline clip-path="url(#clip932)" style="stroke:#000000; stroke-linecap:round; stroke-linejoin:round; stroke-width:2; stroke-opacity:0.1; fill:none" points="1254.68,1486.45 1254.68,47.2441 "/>
<polyline clip-path="url(#clip932)" style="stroke:#000000; stroke-linecap:round; stroke-linejoin:round; stroke-width:2; stroke-opacity:0.1; fill:none" points="1772.64,1486.45 1772.64,47.2441 "/>
<polyline clip-path="url(#clip932)" style="stroke:#000000; stroke-linecap:round; stroke-linejoin:round; stroke-width:2; stroke-opacity:0.1; fill:none" points="2290.6,1486.45 2290.6,47.2441 "/>
<polyline clip-path="url(#clip930)" style="stroke:#000000; stroke-linecap:round; stroke-linejoin:round; stroke-width:4; stroke-opacity:1; fill:none" points="156.598,1486.45 2352.76,1486.45 "/>
<polyline clip-path="url(#clip930)" style="stroke:#000000; stroke-linecap:round; stroke-linejoin:round; stroke-width:4; stroke-opacity:1; fill:none" points="218.754,1486.45 218.754,1467.55 "/>
<polyline clip-path="url(#clip930)" style="stroke:#000000; stroke-linecap:round; stroke-linejoin:round; stroke-width:4; stroke-opacity:1; fill:none" points="736.715,1486.45 736.715,1467.55 "/>
<polyline clip-path="url(#clip930)" style="stroke:#000000; stroke-linecap:round; stroke-linejoin:round; stroke-width:4; stroke-opacity:1; fill:none" points="1254.68,1486.45 1254.68,1467.55 "/>
<polyline clip-path="url(#clip930)" style="stroke:#000000; stroke-linecap:round; stroke-linejoin:round; stroke-width:4; stroke-opacity:1; fill:none" points="1772.64,1486.45 1772.64,1467.55 "/>
<polyline clip-path="url(#clip930)" style="stroke:#000000; stroke-linecap:round; stroke-linejoin:round; stroke-width:4; stroke-opacity:1; fill:none" points="2290.6,1486.45 2290.6,1467.55 "/>
<path clip-path="url(#clip930)" d="M181.057 1517.37 Q177.446 1517.37 175.617 1520.93 Q173.812 1524.47 173.812 1531.6 Q173.812 1538.71 175.617 1542.27 Q177.446 1545.82 181.057 1545.82 Q184.691 1545.82 186.497 1542.27 Q188.326 1538.71 188.326 1531.6 Q188.326 1524.47 186.497 1520.93 Q184.691 1517.37 181.057 1517.37 M181.057 1513.66 Q186.867 1513.66 189.923 1518.27 Q193.001 1522.85 193.001 1531.6 Q193.001 1540.33 189.923 1544.94 Q186.867 1549.52 181.057 1549.52 Q175.247 1549.52 172.168 1544.94 Q169.113 1540.33 169.113 1531.6 Q169.113 1522.85 172.168 1518.27 Q175.247 1513.66 181.057 1513.66 Z" fill="#000000" fill-rule="nonzero" fill-opacity="1" /><path clip-path="url(#clip930)" d="M201.219 1542.97 L206.103 1542.97 L206.103 1548.85 L201.219 1548.85 L201.219 1542.97 Z" fill="#000000" fill-rule="nonzero" fill-opacity="1" /><path clip-path="url(#clip930)" d="M226.288 1517.37 Q222.677 1517.37 220.849 1520.93 Q219.043 1524.47 219.043 1531.6 Q219.043 1538.71 220.849 1542.27 Q222.677 1545.82 226.288 1545.82 Q229.923 1545.82 231.728 1542.27 Q233.557 1538.71 233.557 1531.6 Q233.557 1524.47 231.728 1520.93 Q229.923 1517.37 226.288 1517.37 M226.288 1513.66 Q232.098 1513.66 235.154 1518.27 Q238.233 1522.85 238.233 1531.6 Q238.233 1540.33 235.154 1544.94 Q232.098 1549.52 226.288 1549.52 Q220.478 1549.52 217.399 1544.94 Q214.344 1540.33 214.344 1531.6 Q214.344 1522.85 217.399 1518.27 Q220.478 1513.66 226.288 1513.66 Z" fill="#000000" fill-rule="nonzero" fill-opacity="1" /><path clip-path="url(#clip930)" d="M256.45 1517.37 Q252.839 1517.37 251.01 1520.93 Q249.205 1524.47 249.205 1531.6 Q249.205 1538.71 251.01 1542.27 Q252.839 1545.82 256.45 1545.82 Q260.084 1545.82 261.89 1542.27 Q263.719 1538.71 263.719 1531.6 Q263.719 1524.47 261.89 1520.93 Q260.084 1517.37 256.45 1517.37 M256.45 1513.66 Q262.26 1513.66 265.316 1518.27 Q268.395 1522.85 268.395 1531.6 Q268.395 1540.33 265.316 1544.94 Q262.26 1549.52 256.45 1549.52 Q250.64 1549.52 247.561 1544.94 Q244.506 1540.33 244.506 1531.6 Q244.506 1522.85 247.561 1518.27 Q250.64 1513.66 256.45 1513.66 Z" fill="#000000" fill-rule="nonzero" fill-opacity="1" /><path clip-path="url(#clip930)" d="M699.516 1517.37 Q695.905 1517.37 694.077 1520.93 Q692.271 1524.47 692.271 1531.6 Q692.271 1538.71 694.077 1542.27 Q695.905 1545.82 699.516 1545.82 Q703.151 1545.82 704.956 1542.27 Q706.785 1538.71 706.785 1531.6 Q706.785 1524.47 704.956 1520.93 Q703.151 1517.37 699.516 1517.37 M699.516 1513.66 Q705.327 1513.66 708.382 1518.27 Q711.461 1522.85 711.461 1531.6 Q711.461 1540.33 708.382 1544.94 Q705.327 1549.52 699.516 1549.52 Q693.706 1549.52 690.628 1544.94 Q687.572 1540.33 687.572 1531.6 Q687.572 1522.85 690.628 1518.27 Q693.706 1513.66 699.516 1513.66 Z" fill="#000000" fill-rule="nonzero" fill-opacity="1" /><path clip-path="url(#clip930)" d="M719.678 1542.97 L724.563 1542.97 L724.563 1548.85 L719.678 1548.85 L719.678 1542.97 Z" fill="#000000" fill-rule="nonzero" fill-opacity="1" /><path clip-path="url(#clip930)" d="M738.776 1544.91 L755.095 1544.91 L755.095 1548.85 L733.151 1548.85 L733.151 1544.91 Q735.813 1542.16 740.396 1537.53 Q745.002 1532.88 746.183 1531.53 Q748.428 1529.01 749.308 1527.27 Q750.211 1525.51 750.211 1523.82 Q750.211 1521.07 748.266 1519.33 Q746.345 1517.6 743.243 1517.6 Q741.044 1517.6 738.59 1518.36 Q736.16 1519.13 733.382 1520.68 L733.382 1515.95 Q736.206 1514.82 738.66 1514.24 Q741.113 1513.66 743.151 1513.66 Q748.521 1513.66 751.715 1516.35 Q754.91 1519.03 754.91 1523.52 Q754.91 1525.65 754.1 1527.57 Q753.312 1529.47 751.206 1532.07 Q750.627 1532.74 747.525 1535.95 Q744.424 1539.15 738.776 1544.91 Z" fill="#000000" fill-rule="nonzero" fill-opacity="1" /><path clip-path="url(#clip930)" d="M764.956 1514.29 L783.312 1514.29 L783.312 1518.22 L769.238 1518.22 L769.238 1526.7 Q770.257 1526.35 771.275 1526.19 Q772.294 1526 773.312 1526 Q779.099 1526 782.479 1529.17 Q785.859 1532.34 785.859 1537.76 Q785.859 1543.34 782.386 1546.44 Q778.914 1549.52 772.595 1549.52 Q770.419 1549.52 768.15 1549.15 Q765.905 1548.78 763.498 1548.04 L763.498 1543.34 Q765.581 1544.47 767.803 1545.03 Q770.025 1545.58 772.502 1545.58 Q776.507 1545.58 778.845 1543.48 Q781.183 1541.37 781.183 1537.76 Q781.183 1534.15 778.845 1532.04 Q776.507 1529.94 772.502 1529.94 Q770.627 1529.94 768.752 1530.35 Q766.9 1530.77 764.956 1531.65 L764.956 1514.29 Z" fill="#000000" fill-rule="nonzero" fill-opacity="1" /><path clip-path="url(#clip930)" d="M1216.98 1517.37 Q1213.37 1517.37 1211.54 1520.93 Q1209.74 1524.47 1209.74 1531.6 Q1209.74 1538.71 1211.54 1542.27 Q1213.37 1545.82 1216.98 1545.82 Q1220.61 1545.82 1222.42 1542.27 Q1224.25 1538.71 1224.25 1531.6 Q1224.25 1524.47 1222.42 1520.93 Q1220.61 1517.37 1216.98 1517.37 M1216.98 1513.66 Q1222.79 1513.66 1225.85 1518.27 Q1228.92 1522.85 1228.92 1531.6 Q1228.92 1540.33 1225.85 1544.94 Q1222.79 1549.52 1216.98 1549.52 Q1211.17 1549.52 1208.09 1544.94 Q1205.04 1540.33 1205.04 1531.6 Q1205.04 1522.85 1208.09 1518.27 Q1211.17 1513.66 1216.98 1513.66 Z" fill="#000000" fill-rule="nonzero" fill-opacity="1" /><path clip-path="url(#clip930)" d="M1237.14 1542.97 L1242.03 1542.97 L1242.03 1548.85 L1237.14 1548.85 L1237.14 1542.97 Z" fill="#000000" fill-rule="nonzero" fill-opacity="1" /><path clip-path="url(#clip930)" d="M1252.26 1514.29 L1270.61 1514.29 L1270.61 1518.22 L1256.54 1518.22 L1256.54 1526.7 Q1257.56 1526.35 1258.58 1526.19 Q1259.6 1526 1260.61 1526 Q1266.4 1526 1269.78 1529.17 Q1273.16 1532.34 1273.16 1537.76 Q1273.16 1543.34 1269.69 1546.44 Q1266.22 1549.52 1259.9 1549.52 Q1257.72 1549.52 1255.45 1549.15 Q1253.21 1548.78 1250.8 1548.04 L1250.8 1543.34 Q1252.88 1544.47 1255.11 1545.03 Q1257.33 1545.58 1259.8 1545.58 Q1263.81 1545.58 1266.15 1543.48 Q1268.48 1541.37 1268.48 1537.76 Q1268.48 1534.15 1266.15 1532.04 Q1263.81 1529.94 1259.8 1529.94 Q1257.93 1529.94 1256.05 1530.35 Q1254.2 1530.77 1252.26 1531.65 L1252.26 1514.29 Z" fill="#000000" fill-rule="nonzero" fill-opacity="1" /><path clip-path="url(#clip930)" d="M1292.37 1517.37 Q1288.76 1517.37 1286.93 1520.93 Q1285.13 1524.47 1285.13 1531.6 Q1285.13 1538.71 1286.93 1542.27 Q1288.76 1545.82 1292.37 1545.82 Q1296.01 1545.82 1297.81 1542.27 Q1299.64 1538.71 1299.64 1531.6 Q1299.64 1524.47 1297.81 1520.93 Q1296.01 1517.37 1292.37 1517.37 M1292.37 1513.66 Q1298.18 1513.66 1301.24 1518.27 Q1304.32 1522.85 1304.32 1531.6 Q1304.32 1540.33 1301.24 1544.94 Q1298.18 1549.52 1292.37 1549.52 Q1286.56 1549.52 1283.48 1544.94 Q1280.43 1540.33 1280.43 1531.6 Q1280.43 1522.85 1283.48 1518.27 Q1286.56 1513.66 1292.37 1513.66 Z" fill="#000000" fill-rule="nonzero" fill-opacity="1" /><path clip-path="url(#clip930)" d="M1735.44 1517.37 Q1731.83 1517.37 1730 1520.93 Q1728.19 1524.47 1728.19 1531.6 Q1728.19 1538.71 1730 1542.27 Q1731.83 1545.82 1735.44 1545.82 Q1739.07 1545.82 1740.88 1542.27 Q1742.71 1538.71 1742.71 1531.6 Q1742.71 1524.47 1740.88 1520.93 Q1739.07 1517.37 1735.44 1517.37 M1735.44 1513.66 Q1741.25 1513.66 1744.31 1518.27 Q1747.38 1522.85 1747.38 1531.6 Q1747.38 1540.33 1744.31 1544.94 Q1741.25 1549.52 1735.44 1549.52 Q1729.63 1549.52 1726.55 1544.94 Q1723.5 1540.33 1723.5 1531.6 Q1723.5 1522.85 1726.55 1518.27 Q1729.63 1513.66 1735.44 1513.66 Z" fill="#000000" fill-rule="nonzero" fill-opacity="1" /><path clip-path="url(#clip930)" d="M1755.6 1542.97 L1760.49 1542.97 L1760.49 1548.85 L1755.6 1548.85 L1755.6 1542.97 Z" fill="#000000" fill-rule="nonzero" fill-opacity="1" /><path clip-path="url(#clip930)" d="M1769.49 1514.29 L1791.71 1514.29 L1791.71 1516.28 L1779.17 1548.85 L1774.28 1548.85 L1786.09 1518.22 L1769.49 1518.22 L1769.49 1514.29 Z" fill="#000000" fill-rule="nonzero" fill-opacity="1" /><path clip-path="url(#clip930)" d="M1800.88 1514.29 L1819.24 1514.29 L1819.24 1518.22 L1805.16 1518.22 L1805.16 1526.7 Q1806.18 1526.35 1807.2 1526.19 Q1808.22 1526 1809.24 1526 Q1815.02 1526 1818.4 1529.17 Q1821.78 1532.34 1821.78 1537.76 Q1821.78 1543.34 1818.31 1546.44 Q1814.84 1549.52 1808.52 1549.52 Q1806.34 1549.52 1804.07 1549.15 Q1801.83 1548.78 1799.42 1548.04 L1799.42 1543.34 Q1801.5 1544.47 1803.73 1545.03 Q1805.95 1545.58 1808.43 1545.58 Q1812.43 1545.58 1814.77 1543.48 Q1817.11 1541.37 1817.11 1537.76 Q1817.11 1534.15 1814.77 1532.04 Q1812.43 1529.94 1808.43 1529.94 Q1806.55 1529.94 1804.68 1530.35 Q1802.82 1530.77 1800.88 1531.65 L1800.88 1514.29 Z" fill="#000000" fill-rule="nonzero" fill-opacity="1" /><path clip-path="url(#clip930)" d="M2242.67 1544.91 L2250.31 1544.91 L2250.31 1518.55 L2242 1520.21 L2242 1515.95 L2250.27 1514.29 L2254.94 1514.29 L2254.94 1544.91 L2262.58 1544.91 L2262.58 1548.85 L2242.67 1548.85 L2242.67 1544.91 Z" fill="#000000" fill-rule="nonzero" fill-opacity="1" /><path clip-path="url(#clip930)" d="M2272.02 1542.97 L2276.91 1542.97 L2276.91 1548.85 L2272.02 1548.85 L2272.02 1542.97 Z" fill="#000000" fill-rule="nonzero" fill-opacity="1" /><path clip-path="url(#clip930)" d="M2297.09 1517.37 Q2293.48 1517.37 2291.65 1520.93 Q2289.85 1524.47 2289.85 1531.6 Q2289.85 1538.71 2291.65 1542.27 Q2293.48 1545.82 2297.09 1545.82 Q2300.73 1545.82 2302.53 1542.27 Q2304.36 1538.71 2304.36 1531.6 Q2304.36 1524.47 2302.53 1520.93 Q2300.73 1517.37 2297.09 1517.37 M2297.09 1513.66 Q2302.9 1513.66 2305.96 1518.27 Q2309.04 1522.85 2309.04 1531.6 Q2309.04 1540.33 2305.96 1544.94 Q2302.9 1549.52 2297.09 1549.52 Q2291.28 1549.52 2288.2 1544.94 Q2285.15 1540.33 2285.15 1531.6 Q2285.15 1522.85 2288.2 1518.27 Q2291.28 1513.66 2297.09 1513.66 Z" fill="#000000" fill-rule="nonzero" fill-opacity="1" /><path clip-path="url(#clip930)" d="M2327.26 1517.37 Q2323.64 1517.37 2321.82 1520.93 Q2320.01 1524.47 2320.01 1531.6 Q2320.01 1538.71 2321.82 1542.27 Q2323.64 1545.82 2327.26 1545.82 Q2330.89 1545.82 2332.7 1542.27 Q2334.52 1538.71 2334.52 1531.6 Q2334.52 1524.47 2332.7 1520.93 Q2330.89 1517.37 2327.26 1517.37 M2327.26 1513.66 Q2333.07 1513.66 2336.12 1518.27 Q2339.2 1522.85 2339.2 1531.6 Q2339.2 1540.33 2336.12 1544.94 Q2333.07 1549.52 2327.26 1549.52 Q2321.45 1549.52 2318.37 1544.94 Q2315.31 1540.33 2315.31 1531.6 Q2315.31 1522.85 2318.37 1518.27 Q2321.45 1513.66 2327.26 1513.66 Z" fill="#000000" fill-rule="nonzero" fill-opacity="1" /><polyline clip-path="url(#clip932)" style="stroke:#000000; stroke-linecap:round; stroke-linejoin:round; stroke-width:2; stroke-opacity:0.1; fill:none" points="156.598,1445.51 2352.76,1445.51 "/>
<polyline clip-path="url(#clip932)" style="stroke:#000000; stroke-linecap:round; stroke-linejoin:round; stroke-width:2; stroke-opacity:0.1; fill:none" points="156.598,1237.43 2352.76,1237.43 "/>
<polyline clip-path="url(#clip932)" style="stroke:#000000; stroke-linecap:round; stroke-linejoin:round; stroke-width:2; stroke-opacity:0.1; fill:none" points="156.598,1029.36 2352.76,1029.36 "/>
<polyline clip-path="url(#clip932)" style="stroke:#000000; stroke-linecap:round; stroke-linejoin:round; stroke-width:2; stroke-opacity:0.1; fill:none" points="156.598,821.276 2352.76,821.276 "/>
<polyline clip-path="url(#clip932)" style="stroke:#000000; stroke-linecap:round; stroke-linejoin:round; stroke-width:2; stroke-opacity:0.1; fill:none" points="156.598,613.197 2352.76,613.197 "/>
<polyline clip-path="url(#clip932)" style="stroke:#000000; stroke-linecap:round; stroke-linejoin:round; stroke-width:2; stroke-opacity:0.1; fill:none" points="156.598,405.118 2352.76,405.118 "/>
<polyline clip-path="url(#clip932)" style="stroke:#000000; stroke-linecap:round; stroke-linejoin:round; stroke-width:2; stroke-opacity:0.1; fill:none" points="156.598,197.039 2352.76,197.039 "/>
<polyline clip-path="url(#clip930)" style="stroke:#000000; stroke-linecap:round; stroke-linejoin:round; stroke-width:4; stroke-opacity:1; fill:none" points="156.598,1486.45 156.598,47.2441 "/>
<polyline clip-path="url(#clip930)" style="stroke:#000000; stroke-linecap:round; stroke-linejoin:round; stroke-width:4; stroke-opacity:1; fill:none" points="156.598,1445.51 175.496,1445.51 "/>
<polyline clip-path="url(#clip930)" style="stroke:#000000; stroke-linecap:round; stroke-linejoin:round; stroke-width:4; stroke-opacity:1; fill:none" points="156.598,1237.43 175.496,1237.43 "/>
<polyline clip-path="url(#clip930)" style="stroke:#000000; stroke-linecap:round; stroke-linejoin:round; stroke-width:4; stroke-opacity:1; fill:none" points="156.598,1029.36 175.496,1029.36 "/>
<polyline clip-path="url(#clip930)" style="stroke:#000000; stroke-linecap:round; stroke-linejoin:round; stroke-width:4; stroke-opacity:1; fill:none" points="156.598,821.276 175.496,821.276 "/>
<polyline clip-path="url(#clip930)" style="stroke:#000000; stroke-linecap:round; stroke-linejoin:round; stroke-width:4; stroke-opacity:1; fill:none" points="156.598,613.197 175.496,613.197 "/>
<polyline clip-path="url(#clip930)" style="stroke:#000000; stroke-linecap:round; stroke-linejoin:round; stroke-width:4; stroke-opacity:1; fill:none" points="156.598,405.118 175.496,405.118 "/>
<polyline clip-path="url(#clip930)" style="stroke:#000000; stroke-linecap:round; stroke-linejoin:round; stroke-width:4; stroke-opacity:1; fill:none" points="156.598,197.039 175.496,197.039 "/>
<path clip-path="url(#clip930)" d="M63.4226 1431.31 Q59.8115 1431.31 57.9828 1434.88 Q56.1773 1438.42 56.1773 1445.55 Q56.1773 1452.65 57.9828 1456.22 Q59.8115 1459.76 63.4226 1459.76 Q67.0569 1459.76 68.8624 1456.22 Q70.6911 1452.65 70.6911 1445.55 Q70.6911 1438.42 68.8624 1434.88 Q67.0569 1431.31 63.4226 1431.31 M63.4226 1427.61 Q69.2328 1427.61 72.2883 1432.21 Q75.367 1436.8 75.367 1445.55 Q75.367 1454.27 72.2883 1458.88 Q69.2328 1463.46 63.4226 1463.46 Q57.6125 1463.46 54.5338 1458.88 Q51.4782 1454.27 51.4782 1445.55 Q51.4782 1436.8 54.5338 1432.21 Q57.6125 1427.61 63.4226 1427.61 Z" fill="#000000" fill-rule="nonzero" fill-opacity="1" /><path clip-path="url(#clip930)" d="M83.5845 1456.91 L88.4688 1456.91 L88.4688 1462.79 L83.5845 1462.79 L83.5845 1456.91 Z" fill="#000000" fill-rule="nonzero" fill-opacity="1" /><path clip-path="url(#clip930)" d="M108.654 1431.31 Q105.043 1431.31 103.214 1434.88 Q101.409 1438.42 101.409 1445.55 Q101.409 1452.65 103.214 1456.22 Q105.043 1459.76 108.654 1459.76 Q112.288 1459.76 114.094 1456.22 Q115.922 1452.65 115.922 1445.55 Q115.922 1438.42 114.094 1434.88 Q112.288 1431.31 108.654 1431.31 M108.654 1427.61 Q114.464 1427.61 117.52 1432.21 Q120.598 1436.8 120.598 1445.55 Q120.598 1454.27 117.52 1458.88 Q114.464 1463.46 108.654 1463.46 Q102.844 1463.46 99.765 1458.88 Q96.7095 1454.27 96.7095 1445.55 Q96.7095 1436.8 99.765 1432.21 Q102.844 1427.61 108.654 1427.61 Z" fill="#000000" fill-rule="nonzero" fill-opacity="1" /><path clip-path="url(#clip930)" d="M65.0198 1223.23 Q61.4087 1223.23 59.58 1226.8 Q57.7745 1230.34 57.7745 1237.47 Q57.7745 1244.58 59.58 1248.14 Q61.4087 1251.68 65.0198 1251.68 Q68.6541 1251.68 70.4596 1248.14 Q72.2883 1244.58 72.2883 1237.47 Q72.2883 1230.34 70.4596 1226.8 Q68.6541 1223.23 65.0198 1223.23 M65.0198 1219.53 Q70.83 1219.53 73.8855 1224.14 Q76.9642 1228.72 76.9642 1237.47 Q76.9642 1246.2 73.8855 1250.8 Q70.83 1255.39 65.0198 1255.39 Q59.2097 1255.39 56.131 1250.8 Q53.0754 1246.2 53.0754 1237.47 Q53.0754 1228.72 56.131 1224.14 Q59.2097 1219.53 65.0198 1219.53 Z" fill="#000000" fill-rule="nonzero" fill-opacity="1" /><path clip-path="url(#clip930)" d="M85.1818 1248.83 L90.066 1248.83 L90.066 1254.71 L85.1818 1254.71 L85.1818 1248.83 Z" fill="#000000" fill-rule="nonzero" fill-opacity="1" /><path clip-path="url(#clip930)" d="M104.279 1250.78 L120.598 1250.78 L120.598 1254.71 L98.6539 1254.71 L98.6539 1250.78 Q101.316 1248.02 105.899 1243.39 Q110.506 1238.74 111.686 1237.4 Q113.932 1234.88 114.811 1233.14 Q115.714 1231.38 115.714 1229.69 Q115.714 1226.94 113.77 1225.2 Q111.848 1223.46 108.746 1223.46 Q106.547 1223.46 104.094 1224.23 Q101.663 1224.99 98.8854 1226.54 L98.8854 1221.82 Q101.709 1220.69 104.163 1220.11 Q106.617 1219.53 108.654 1219.53 Q114.024 1219.53 117.219 1222.21 Q120.413 1224.9 120.413 1229.39 Q120.413 1231.52 119.603 1233.44 Q118.816 1235.34 116.709 1237.93 Q116.131 1238.6 113.029 1241.82 Q109.927 1245.02 104.279 1250.78 Z" fill="#000000" fill-rule="nonzero" fill-opacity="1" /><path clip-path="url(#clip930)" d="M62.9365 1015.15 Q59.3254 1015.15 57.4967 1018.72 Q55.6912 1022.26 55.6912 1029.39 Q55.6912 1036.5 57.4967 1040.06 Q59.3254 1043.6 62.9365 1043.6 Q66.5707 1043.6 68.3763 1040.06 Q70.205 1036.5 70.205 1029.39 Q70.205 1022.26 68.3763 1018.72 Q66.5707 1015.15 62.9365 1015.15 M62.9365 1011.45 Q68.7467 1011.45 71.8022 1016.06 Q74.8809 1020.64 74.8809 1029.39 Q74.8809 1038.12 71.8022 1042.72 Q68.7467 1047.31 62.9365 1047.31 Q57.1264 1047.31 54.0477 1042.72 Q50.9921 1038.12 50.9921 1029.39 Q50.9921 1020.64 54.0477 1016.06 Q57.1264 1011.45 62.9365 1011.45 Z" fill="#000000" fill-rule="nonzero" fill-opacity="1" /><path clip-path="url(#clip930)" d="M83.0984 1040.76 L87.9827 1040.76 L87.9827 1046.64 L83.0984 1046.64 L83.0984 1040.76 Z" fill="#000000" fill-rule="nonzero" fill-opacity="1" /><path clip-path="url(#clip930)" d="M111.015 1016.15 L99.2095 1034.6 L111.015 1034.6 L111.015 1016.15 M109.788 1012.08 L115.668 1012.08 L115.668 1034.6 L120.598 1034.6 L120.598 1038.49 L115.668 1038.49 L115.668 1046.64 L111.015 1046.64 L111.015 1038.49 L95.4132 1038.49 L95.4132 1033.97 L109.788 1012.08 Z" fill="#000000" fill-rule="nonzero" fill-opacity="1" /><path clip-path="url(#clip930)" d="M63.2606 807.075 Q59.6495 807.075 57.8208 810.639 Q56.0152 814.181 56.0152 821.311 Q56.0152 828.417 57.8208 831.982 Q59.6495 835.524 63.2606 835.524 Q66.8948 835.524 68.7004 831.982 Q70.5291 828.417 70.5291 821.311 Q70.5291 814.181 68.7004 810.639 Q66.8948 807.075 63.2606 807.075 M63.2606 803.371 Q69.0707 803.371 72.1263 807.977 Q75.205 812.561 75.205 821.311 Q75.205 830.038 72.1263 834.644 Q69.0707 839.227 63.2606 839.227 Q57.4504 839.227 54.3717 834.644 Q51.3162 830.038 51.3162 821.311 Q51.3162 812.561 54.3717 807.977 Q57.4504 803.371 63.2606 803.371 Z" fill="#000000" fill-rule="nonzero" fill-opacity="1" /><path clip-path="url(#clip930)" d="M83.4225 832.676 L88.3067 832.676 L88.3067 838.556 L83.4225 838.556 L83.4225 832.676 Z" fill="#000000" fill-rule="nonzero" fill-opacity="1" /><path clip-path="url(#clip930)" d="M109.071 819.413 Q105.922 819.413 104.071 821.565 Q102.242 823.718 102.242 827.468 Q102.242 831.195 104.071 833.371 Q105.922 835.524 109.071 835.524 Q112.219 835.524 114.047 833.371 Q115.899 831.195 115.899 827.468 Q115.899 823.718 114.047 821.565 Q112.219 819.413 109.071 819.413 M118.353 804.76 L118.353 809.019 Q116.594 808.186 114.788 807.746 Q113.006 807.306 111.246 807.306 Q106.617 807.306 104.163 810.431 Q101.733 813.556 101.385 819.876 Q102.751 817.862 104.811 816.797 Q106.871 815.709 109.348 815.709 Q114.557 815.709 117.566 818.88 Q120.598 822.028 120.598 827.468 Q120.598 832.792 117.45 836.01 Q114.302 839.227 109.071 839.227 Q103.075 839.227 99.9039 834.644 Q96.7326 830.038 96.7326 821.311 Q96.7326 813.116 100.621 808.255 Q104.51 803.371 111.061 803.371 Q112.82 803.371 114.603 803.718 Q116.408 804.065 118.353 804.76 Z" fill="#000000" fill-rule="nonzero" fill-opacity="1" /><path clip-path="url(#clip930)" d="M63.5152 598.996 Q59.9041 598.996 58.0754 602.56 Q56.2699 606.102 56.2699 613.232 Q56.2699 620.338 58.0754 623.903 Q59.9041 627.444 63.5152 627.444 Q67.1494 627.444 68.955 623.903 Q70.7837 620.338 70.7837 613.232 Q70.7837 606.102 68.955 602.56 Q67.1494 598.996 63.5152 598.996 M63.5152 595.292 Q69.3254 595.292 72.3809 599.898 Q75.4596 604.482 75.4596 613.232 Q75.4596 621.958 72.3809 626.565 Q69.3254 631.148 63.5152 631.148 Q57.7051 631.148 54.6264 626.565 Q51.5708 621.958 51.5708 613.232 Q51.5708 604.482 54.6264 599.898 Q57.7051 595.292 63.5152 595.292 Z" fill="#000000" fill-rule="nonzero" fill-opacity="1" /><path clip-path="url(#clip930)" d="M83.6771 624.597 L88.5614 624.597 L88.5614 630.477 L83.6771 630.477 L83.6771 624.597 Z" fill="#000000" fill-rule="nonzero" fill-opacity="1" /><path clip-path="url(#clip930)" d="M108.746 614.065 Q105.413 614.065 103.492 615.847 Q101.594 617.63 101.594 620.755 Q101.594 623.88 103.492 625.662 Q105.413 627.444 108.746 627.444 Q112.08 627.444 114.001 625.662 Q115.922 623.857 115.922 620.755 Q115.922 617.63 114.001 615.847 Q112.103 614.065 108.746 614.065 M104.071 612.074 Q101.061 611.333 99.3715 609.273 Q97.7048 607.213 97.7048 604.25 Q97.7048 600.107 100.645 597.699 Q103.608 595.292 108.746 595.292 Q113.908 595.292 116.848 597.699 Q119.788 600.107 119.788 604.25 Q119.788 607.213 118.098 609.273 Q116.432 611.333 113.445 612.074 Q116.825 612.861 118.7 615.153 Q120.598 617.445 120.598 620.755 Q120.598 625.778 117.52 628.463 Q114.464 631.148 108.746 631.148 Q103.029 631.148 99.9502 628.463 Q96.8947 625.778 96.8947 620.755 Q96.8947 617.445 98.7928 615.153 Q100.691 612.861 104.071 612.074 M102.358 604.69 Q102.358 607.375 104.024 608.88 Q105.714 610.384 108.746 610.384 Q111.756 610.384 113.445 608.88 Q115.158 607.375 115.158 604.69 Q115.158 602.005 113.445 600.5 Q111.756 598.996 108.746 598.996 Q105.714 598.996 104.024 600.5 Q102.358 602.005 102.358 604.69 Z" fill="#000000" fill-rule="nonzero" fill-opacity="1" /><path clip-path="url(#clip930)" d="M54.2328 418.463 L61.8717 418.463 L61.8717 392.097 L53.5616 393.764 L53.5616 389.504 L61.8254 387.838 L66.5013 387.838 L66.5013 418.463 L74.1402 418.463 L74.1402 422.398 L54.2328 422.398 L54.2328 418.463 Z" fill="#000000" fill-rule="nonzero" fill-opacity="1" /><path clip-path="url(#clip930)" d="M83.5845 416.518 L88.4688 416.518 L88.4688 422.398 L83.5845 422.398 L83.5845 416.518 Z" fill="#000000" fill-rule="nonzero" fill-opacity="1" /><path clip-path="url(#clip930)" d="M108.654 390.916 Q105.043 390.916 103.214 394.481 Q101.409 398.023 101.409 405.153 Q101.409 412.259 103.214 415.824 Q105.043 419.365 108.654 419.365 Q112.288 419.365 114.094 415.824 Q115.922 412.259 115.922 405.153 Q115.922 398.023 114.094 394.481 Q112.288 390.916 108.654 390.916 M108.654 387.213 Q114.464 387.213 117.52 391.819 Q120.598 396.403 120.598 405.153 Q120.598 413.879 117.52 418.486 Q114.464 423.069 108.654 423.069 Q102.844 423.069 99.765 418.486 Q96.7095 413.879 96.7095 405.153 Q96.7095 396.403 99.765 391.819 Q102.844 387.213 108.654 387.213 Z" fill="#000000" fill-rule="nonzero" fill-opacity="1" /><path clip-path="url(#clip930)" d="M55.8301 210.384 L63.4689 210.384 L63.4689 184.018 L55.1588 185.685 L55.1588 181.425 L63.4226 179.759 L68.0985 179.759 L68.0985 210.384 L75.7374 210.384 L75.7374 214.319 L55.8301 214.319 L55.8301 210.384 Z" fill="#000000" fill-rule="nonzero" fill-opacity="1" /><path clip-path="url(#clip930)" d="M85.1818 208.439 L90.066 208.439 L90.066 214.319 L85.1818 214.319 L85.1818 208.439 Z" fill="#000000" fill-rule="nonzero" fill-opacity="1" /><path clip-path="url(#clip930)" d="M104.279 210.384 L120.598 210.384 L120.598 214.319 L98.6539 214.319 L98.6539 210.384 Q101.316 207.629 105.899 202.999 Q110.506 198.347 111.686 197.004 Q113.932 194.481 114.811 192.745 Q115.714 190.985 115.714 189.296 Q115.714 186.541 113.77 184.805 Q111.848 183.069 108.746 183.069 Q106.547 183.069 104.094 183.833 Q101.663 184.597 98.8854 186.148 L98.8854 181.425 Q101.709 180.291 104.163 179.712 Q106.617 179.134 108.654 179.134 Q114.024 179.134 117.219 181.819 Q120.413 184.504 120.413 188.995 Q120.413 191.124 119.603 193.046 Q118.816 194.944 116.709 197.536 Q116.131 198.208 113.029 201.425 Q109.927 204.62 104.279 210.384 Z" fill="#000000" fill-rule="nonzero" fill-opacity="1" /><polyline clip-path="url(#clip932)" style="stroke:#009af9; stroke-linecap:round; stroke-linejoin:round; stroke-width:4; stroke-opacity:1; fill:none" points="218.754,1445.55 239.472,1445.56 260.191,1445.57 280.909,1445.58 301.628,1445.59 322.346,1445.61 343.064,1445.62 363.783,1445.63 384.501,1445.64 405.22,1445.65 425.938,1445.66 446.657,1445.67 467.375,1445.68 488.094,1445.69 508.812,1445.7 529.531,1445.71 550.249,1445.71 570.968,1445.72 591.686,1445.71 612.405,1445.7 633.123,1445.68 653.841,1445.63 674.56,1445.52 695.278,1445.25 715.997,1444.51 736.715,1442.33 757.434,1436.57 778.152,1424.1 798.871,1402.62 819.589,1372.67 840.308,1336.93 861.026,1298.05 881.745,1257.68 902.463,1216.6 923.182,1175.1 943.9,1133.28 964.619,1091.17 985.337,1048.84 1006.06,1006.33 1026.77,963.692 1047.49,921.01 1068.21,878.381 1088.93,835.965 1109.65,794.016 1130.37,752.905 1151.08,713.12 1171.8,675.242 1192.52,639.891 1213.24,607.656 1233.96,579.028 1254.68,554.335 1275.4,533.7 1296.11,517.019 1316.83,503.976 1337.55,494.089 1358.27,486.785 1378.99,481.486 1399.71,477.682 1420.42,474.962 1441.14,473.017 1461.86,471.628 1482.58,470.638 1503.3,469.937 1524.02,469.448 1544.74,469.122 1565.45,468.929 1586.17,468.86 1606.89,468.919 1627.61,469.129 1648.33,469.528 1669.05,470.174 1689.76,471.146 1710.48,472.545 1731.2,474.481 1751.92,477.04 1772.64,480.249 1793.36,484.101 1814.08,488.679 1834.79,494.38 1855.51,501.947 1876.23,512.209 1896.95,87.9763 1917.67,1274.9 1938.39,1410.57 1959.11,1416.87 1979.82,1419.59 2000.54,1421.36 2021.26,1422.96 2041.98,1424.6 2062.7,1426.32 2083.42,1428.13 2104.13,1429.98 2124.85,1431.85 2145.57,1433.69 2166.29,1435.46 2187.01,1437.16 2207.73,1438.77 2228.45,1440.27 2249.16,1441.67 2269.88,1442.96 2290.6,1444.15 "/>
<polyline clip-path="url(#clip932)" style="stroke:#e26f46; stroke-linecap:round; stroke-linejoin:round; stroke-width:4; stroke-opacity:1; fill:none" points="218.754,404.804 239.472,404.825 260.191,404.844 280.909,404.863 301.628,404.88 322.346,404.895 343.064,404.908 363.783,404.919 384.501,404.928 405.22,404.935 425.938,404.94 446.657,404.943 467.375,404.944 488.094,404.944 508.812,404.945 529.531,404.946 550.249,404.95 570.968,404.959 591.686,404.975 612.405,405.001 633.123,405.04 653.841,405.098 674.56,405.197 695.278,405.415 715.997,406.012 736.715,407.781 757.434,412.62 778.152,423.159 798.871,440.761 819.589,464.926 840.308,493.451 861.026,524.003 881.745,554.606 902.463,584.54 923.182,613.872 943.9,642.733 964.619,671.118 985.337,698.94 1006.06,726.107 1026.77,752.574 1047.49,778.331 1068.21,803.371 1088.93,827.647 1109.65,851.038 1130.37,873.339 1151.08,894.277 1171.8,913.562 1192.52,930.937 1213.24,946.222 1233.96,959.341 1254.68,970.318 1275.4,979.258 1296.11,986.318 1316.83,991.668 1337.55,995.472 1358.27,997.856 1378.99,998.902 1399.71,998.628 1420.42,996.974 1441.14,993.752 1461.86,988.524 1482.58,980.323 1503.3,966.994 1524.02,943.751 1544.74,900.531 1565.45,822.684 1586.17,736.742 1606.89,820.757 1627.61,1113.38 1648.33,1152.47 1669.05,1168.59 1689.76,1176.87 1710.48,1181.67 1731.2,1184.91 1751.92,1187.52 1772.64,1189.98 1793.36,1192.55 1814.08,1195.26 1834.79,1198.02 1855.51,1200.86 1876.23,1205.75 1896.95,1208.24 1917.67,1296.58 1938.39,1313.17 1959.11,1313.55 1979.82,1313.01 2000.54,1312.47 2021.26,1312.19 2041.98,1312.14 2062.7,1312.22 2083.42,1312.37 2104.13,1312.57 2124.85,1312.82 2145.57,1313.1 2166.29,1313.42 2187.01,1313.79 2207.73,1314.21 2228.45,1314.68 2249.16,1315.21 2269.88,1315.8 2290.6,1316.44 "/>
<polyline clip-path="url(#clip932)" style="stroke:#3da44d; stroke-linecap:round; stroke-linejoin:round; stroke-width:4; stroke-opacity:1; fill:none" points="218.754,404.604 239.472,404.607 260.191,404.612 280.909,404.616 301.628,404.622 322.346,404.628 343.064,404.635 363.783,404.643 384.501,404.651 405.22,404.659 425.938,404.668 446.657,404.676 467.375,404.683 488.094,404.688 508.812,404.691 529.531,404.693 550.249,404.692 570.968,404.693 591.686,404.698 612.405,404.706 633.123,404.72 653.841,404.753 674.56,404.862 695.278,405.188 715.997,406.104 736.715,408.684 757.434,415.352 778.152,429.742 798.871,454.325 819.589,487.845 840.308,526.592 861.026,567.193 881.745,607.687 902.463,647.219 923.182,685.497 943.9,722.454 964.619,758.091 985.337,792.419 1006.06,825.448 1026.77,857.177 1047.49,887.589 1068.21,916.642 1088.93,944.259 1109.65,970.332 1130.37,994.719 1151.08,1017.26 1171.8,1037.79 1192.52,1056.16 1213.24,1072.26 1233.96,1086.07 1254.68,1097.6 1275.4,1106.98 1296.11,1114.39 1316.83,1120.07 1337.55,1124.31 1358.27,1127.37 1378.99,1129.54 1399.71,1131.05 1420.42,1132.12 1441.14,1132.89 1461.86,1133.5 1482.58,1134.03 1503.3,1134.53 1524.02,1135.04 1544.74,1135.56 1565.45,1136.09 1586.17,1136.64 1606.89,1137.18 1627.61,1137.72 1648.33,1138.23 1669.05,1138.71 1689.76,1139.15 1710.48,1139.55 1731.2,1139.9 1751.92,1140.21 1772.64,1140.47 1793.36,1140.73 1814.08,1141.02 1834.79,1141.34 1855.51,1141.13 1876.23,1142.01 1896.95,1130.62 1917.67,1328.8 1938.39,1338.84 1959.11,1339.92 1979.82,1340.24 2000.54,1340.5 2021.26,1340.74 2041.98,1340.94 2062.7,1341.12 2083.42,1341.29 2104.13,1341.46 2124.85,1341.63 2145.57,1341.8 2166.29,1341.96 2187.01,1342.12 2207.73,1342.26 2228.45,1342.39 2249.16,1342.5 2269.88,1342.6 2290.6,1342.68 "/>
<path clip-path="url(#clip930)" d="M1869.4 302.578 L2279.55 302.578 L2279.55 95.2176 L1869.4 95.2176  Z" fill="#ffffff" fill-rule="evenodd" fill-opacity="1"/>
<polyline clip-path="url(#clip930)" style="stroke:#000000; stroke-linecap:round; stroke-linejoin:round; stroke-width:4; stroke-opacity:1; fill:none" points="1869.4,302.578 2279.55,302.578 2279.55,95.2176 1869.4,95.2176 1869.4,302.578 "/>
<polyline clip-path="url(#clip930)" style="stroke:#009af9; stroke-linecap:round; stroke-linejoin:round; stroke-width:4; stroke-opacity:1; fill:none" points="1893.81,147.058 2040.22,147.058 "/>
<path clip-path="url(#clip930)" d="M2064.62 154.106 L2064.62 138.412 L2068.88 138.412 L2068.88 153.944 Q2068.88 157.625 2070.31 159.476 Q2071.75 161.305 2074.62 161.305 Q2078.07 161.305 2080.06 159.106 Q2082.07 156.907 2082.07 153.111 L2082.07 138.412 L2086.33 138.412 L2086.33 164.338 L2082.07 164.338 L2082.07 160.356 Q2080.52 162.717 2078.46 163.875 Q2076.42 165.009 2073.71 165.009 Q2069.25 165.009 2066.93 162.231 Q2064.62 159.453 2064.62 154.106 M2075.34 137.787 L2075.34 137.787 Z" fill="#000000" fill-rule="nonzero" fill-opacity="1" /><path clip-path="url(#clip930)" d="M2105.33 128.366 Q2102.23 133.69 2100.73 138.898 Q2099.22 144.106 2099.22 149.453 Q2099.22 154.801 2100.73 160.055 Q2102.26 165.287 2105.33 170.588 L2101.63 170.588 Q2098.16 165.148 2096.42 159.893 Q2094.71 154.639 2094.71 149.453 Q2094.71 144.291 2096.42 139.06 Q2098.14 133.828 2101.63 128.366 L2105.33 128.366 Z" fill="#000000" fill-rule="nonzero" fill-opacity="1" /><path clip-path="url(#clip930)" d="M2117.81 131.051 L2117.81 138.412 L2126.58 138.412 L2126.58 141.722 L2117.81 141.722 L2117.81 155.796 Q2117.81 158.967 2118.67 159.87 Q2119.55 160.773 2122.21 160.773 L2126.58 160.773 L2126.58 164.338 L2122.21 164.338 Q2117.28 164.338 2115.4 162.509 Q2113.53 160.657 2113.53 155.796 L2113.53 141.722 L2110.4 141.722 L2110.4 138.412 L2113.53 138.412 L2113.53 131.051 L2117.81 131.051 Z" fill="#000000" fill-rule="nonzero" fill-opacity="1" /><path clip-path="url(#clip930)" d="M2132.74 142.81 L2162.42 142.81 L2162.42 146.699 L2132.74 146.699 L2132.74 142.81 M2132.74 152.254 L2162.42 152.254 L2162.42 156.189 L2132.74 156.189 L2132.74 152.254 Z" fill="#000000" fill-rule="nonzero" fill-opacity="1" /><path clip-path="url(#clip930)" d="M2173.32 160.402 L2180.96 160.402 L2180.96 134.037 L2172.65 135.703 L2172.65 131.444 L2180.91 129.778 L2185.59 129.778 L2185.59 160.402 L2193.23 160.402 L2193.23 164.338 L2173.32 164.338 L2173.32 160.402 Z" fill="#000000" fill-rule="nonzero" fill-opacity="1" /><path clip-path="url(#clip930)" d="M2203.16 158.458 L2208.04 158.458 L2208.04 162.439 L2204.25 169.847 L2201.26 169.847 L2203.16 162.439 L2203.16 158.458 Z" fill="#000000" fill-rule="nonzero" fill-opacity="1" /><path clip-path="url(#clip930)" d="M2238.69 138.412 L2229.32 151.027 L2239.18 164.338 L2234.15 164.338 L2226.61 154.152 L2219.06 164.338 L2214.04 164.338 L2224.11 150.773 L2214.89 138.412 L2219.92 138.412 L2226.79 147.648 L2233.67 138.412 L2238.69 138.412 Z" fill="#000000" fill-rule="nonzero" fill-opacity="1" /><path clip-path="url(#clip930)" d="M2244.52 128.366 L2248.23 128.366 Q2251.7 133.828 2253.41 139.06 Q2255.15 144.291 2255.15 149.453 Q2255.15 154.639 2253.41 159.893 Q2251.7 165.148 2248.23 170.588 L2244.52 170.588 Q2247.6 165.287 2249.11 160.055 Q2250.64 154.801 2250.64 149.453 Q2250.64 144.106 2249.11 138.898 Q2247.6 133.69 2244.52 128.366 Z" fill="#000000" fill-rule="nonzero" fill-opacity="1" /><polyline clip-path="url(#clip930)" style="stroke:#e26f46; stroke-linecap:round; stroke-linejoin:round; stroke-width:4; stroke-opacity:1; fill:none" points="1893.81,198.898 2040.22,198.898 "/>
<path clip-path="url(#clip930)" d="M2066.7 194.881 Q2068.11 192.52 2071.61 190.437 Q2072.97 189.627 2077.19 189.627 Q2081.91 189.627 2084.85 193.377 Q2087.81 197.127 2087.81 203.238 Q2087.81 209.349 2084.85 213.099 Q2081.91 216.849 2077.19 216.849 Q2074.34 216.849 2072.28 215.738 Q2070.24 214.603 2068.9 212.289 L2068.9 226.039 L2064.62 226.039 L2064.62 203.469 Q2064.62 198.122 2066.7 194.881 M2083.39 203.238 Q2083.39 198.539 2081.45 195.877 Q2079.52 193.192 2076.15 193.192 Q2072.77 193.192 2070.82 195.877 Q2068.9 198.539 2068.9 203.238 Q2068.9 207.937 2070.82 210.622 Q2072.77 213.284 2076.15 213.284 Q2079.52 213.284 2081.45 210.622 Q2083.39 207.937 2083.39 203.238 Z" fill="#000000" fill-rule="nonzero" fill-opacity="1" /><path clip-path="url(#clip930)" d="M2105.1 180.206 Q2102 185.53 2100.5 190.738 Q2098.99 195.946 2098.99 201.293 Q2098.99 206.641 2100.5 211.895 Q2102.02 217.127 2105.1 222.428 L2101.4 222.428 Q2097.93 216.988 2096.19 211.733 Q2094.48 206.479 2094.48 201.293 Q2094.48 196.131 2096.19 190.9 Q2097.9 185.668 2101.4 180.206 L2105.1 180.206 Z" fill="#000000" fill-rule="nonzero" fill-opacity="1" /><path clip-path="url(#clip930)" d="M2117.58 182.891 L2117.58 190.252 L2126.35 190.252 L2126.35 193.562 L2117.58 193.562 L2117.58 207.636 Q2117.58 210.807 2118.44 211.71 Q2119.32 212.613 2121.98 212.613 L2126.35 212.613 L2126.35 216.178 L2121.98 216.178 Q2117.05 216.178 2115.17 214.349 Q2113.3 212.497 2113.3 207.636 L2113.3 193.562 L2110.17 193.562 L2110.17 190.252 L2113.3 190.252 L2113.3 182.891 L2117.58 182.891 Z" fill="#000000" fill-rule="nonzero" fill-opacity="1" /><path clip-path="url(#clip930)" d="M2132.51 194.65 L2162.19 194.65 L2162.19 198.539 L2132.51 198.539 L2132.51 194.65 M2132.51 204.094 L2162.19 204.094 L2162.19 208.029 L2132.51 208.029 L2132.51 204.094 Z" fill="#000000" fill-rule="nonzero" fill-opacity="1" /><path clip-path="url(#clip930)" d="M2173.09 212.242 L2180.73 212.242 L2180.73 185.877 L2172.42 187.543 L2172.42 183.284 L2180.68 181.618 L2185.36 181.618 L2185.36 212.242 L2193 212.242 L2193 216.178 L2173.09 216.178 L2173.09 212.242 Z" fill="#000000" fill-rule="nonzero" fill-opacity="1" /><path clip-path="url(#clip930)" d="M2202.93 210.298 L2207.81 210.298 L2207.81 214.279 L2204.01 221.687 L2201.03 221.687 L2202.93 214.279 L2202.93 210.298 Z" fill="#000000" fill-rule="nonzero" fill-opacity="1" /><path clip-path="url(#clip930)" d="M2238.46 190.252 L2229.08 202.867 L2238.95 216.178 L2233.92 216.178 L2226.38 205.992 L2218.83 216.178 L2213.81 216.178 L2223.88 202.613 L2214.66 190.252 L2219.69 190.252 L2226.56 199.488 L2233.44 190.252 L2238.46 190.252 Z" fill="#000000" fill-rule="nonzero" fill-opacity="1" /><path clip-path="url(#clip930)" d="M2244.29 180.206 L2248 180.206 Q2251.47 185.668 2253.18 190.9 Q2254.92 196.131 2254.92 201.293 Q2254.92 206.479 2253.18 211.733 Q2251.47 216.988 2248 222.428 L2244.29 222.428 Q2247.37 217.127 2248.88 211.895 Q2250.4 206.641 2250.4 201.293 Q2250.4 195.946 2248.88 190.738 Q2247.37 185.53 2244.29 180.206 Z" fill="#000000" fill-rule="nonzero" fill-opacity="1" /><polyline clip-path="url(#clip930)" style="stroke:#3da44d; stroke-linecap:round; stroke-linejoin:round; stroke-width:4; stroke-opacity:1; fill:none" points="1893.81,250.738 2040.22,250.738 "/>
<path clip-path="url(#clip930)" d="M2068.9 264.129 L2068.9 277.879 L2064.62 277.879 L2064.62 242.092 L2068.9 242.092 L2068.9 246.027 Q2070.24 243.712 2072.28 242.601 Q2074.34 241.467 2077.19 241.467 Q2081.91 241.467 2084.85 245.217 Q2087.81 248.967 2087.81 255.078 Q2087.81 261.189 2084.85 264.939 Q2081.91 268.689 2077.19 268.689 Q2074.34 268.689 2072.28 267.578 Q2070.24 266.443 2068.9 264.129 M2083.39 255.078 Q2083.39 250.379 2081.45 247.717 Q2079.52 245.032 2076.15 245.032 Q2072.77 245.032 2070.82 247.717 Q2068.9 250.379 2068.9 255.078 Q2068.9 259.777 2070.82 262.462 Q2072.77 265.124 2076.15 265.124 Q2079.52 265.124 2081.45 262.462 Q2083.39 259.777 2083.39 255.078 Z" fill="#000000" fill-rule="nonzero" fill-opacity="1" /><path clip-path="url(#clip930)" d="M2105.1 232.046 Q2102 237.37 2100.5 242.578 Q2098.99 247.786 2098.99 253.133 Q2098.99 258.481 2100.5 263.735 Q2102.02 268.967 2105.1 274.268 L2101.4 274.268 Q2097.93 268.828 2096.19 263.573 Q2094.48 258.319 2094.48 253.133 Q2094.48 247.971 2096.19 242.74 Q2097.9 237.508 2101.4 232.046 L2105.1 232.046 Z" fill="#000000" fill-rule="nonzero" fill-opacity="1" /><path clip-path="url(#clip930)" d="M2117.58 234.731 L2117.58 242.092 L2126.35 242.092 L2126.35 245.402 L2117.58 245.402 L2117.58 259.476 Q2117.58 262.647 2118.44 263.55 Q2119.32 264.453 2121.98 264.453 L2126.35 264.453 L2126.35 268.018 L2121.98 268.018 Q2117.05 268.018 2115.17 266.189 Q2113.3 264.337 2113.3 259.476 L2113.3 245.402 L2110.17 245.402 L2110.17 242.092 L2113.3 242.092 L2113.3 234.731 L2117.58 234.731 Z" fill="#000000" fill-rule="nonzero" fill-opacity="1" /><path clip-path="url(#clip930)" d="M2132.51 246.49 L2162.19 246.49 L2162.19 250.379 L2132.51 250.379 L2132.51 246.49 M2132.51 255.934 L2162.19 255.934 L2162.19 259.869 L2132.51 259.869 L2132.51 255.934 Z" fill="#000000" fill-rule="nonzero" fill-opacity="1" /><path clip-path="url(#clip930)" d="M2173.09 264.082 L2180.73 264.082 L2180.73 237.717 L2172.42 239.383 L2172.42 235.124 L2180.68 233.458 L2185.36 233.458 L2185.36 264.082 L2193 264.082 L2193 268.018 L2173.09 268.018 L2173.09 264.082 Z" fill="#000000" fill-rule="nonzero" fill-opacity="1" /><path clip-path="url(#clip930)" d="M2202.93 262.138 L2207.81 262.138 L2207.81 266.119 L2204.01 273.527 L2201.03 273.527 L2202.93 266.119 L2202.93 262.138 Z" fill="#000000" fill-rule="nonzero" fill-opacity="1" /><path clip-path="url(#clip930)" d="M2238.46 242.092 L2229.08 254.707 L2238.95 268.018 L2233.92 268.018 L2226.38 257.832 L2218.83 268.018 L2213.81 268.018 L2223.88 254.453 L2214.66 242.092 L2219.69 242.092 L2226.56 251.328 L2233.44 242.092 L2238.46 242.092 Z" fill="#000000" fill-rule="nonzero" fill-opacity="1" /><path clip-path="url(#clip930)" d="M2244.29 232.046 L2248 232.046 Q2251.47 237.508 2253.18 242.74 Q2254.92 247.971 2254.92 253.133 Q2254.92 258.319 2253.18 263.573 Q2251.47 268.828 2248 274.268 L2244.29 274.268 Q2247.37 268.967 2248.88 263.735 Q2250.4 258.481 2250.4 253.133 Q2250.4 247.786 2248.88 242.578 Q2247.37 237.37 2244.29 232.046 Z" fill="#000000" fill-rule="nonzero" fill-opacity="1" /></svg>
