<?xml version="1.0" encoding="utf-8"?>
<svg xmlns="http://www.w3.org/2000/svg" xmlns:xlink="http://www.w3.org/1999/xlink" width="600" height="400" viewBox="0 0 2400 1600">
<defs>
  <clipPath id="clip440">
    <rect x="0" y="0" width="2400" height="1600"/>
  </clipPath>
</defs>
<path clip-path="url(#clip440)" d="M0 1600 L2400 1600 L2400 0 L0 0  Z" fill="#ffffff" fill-rule="evenodd" fill-opacity="1"/>
<defs>
  <clipPath id="clip441">
    <rect x="480" y="0" width="1681" height="1600"/>
  </clipPath>
</defs>
<path clip-path="url(#clip440)" d="M156.274 1486.45 L2352.76 1486.45 L2352.76 47.2441 L156.274 47.2441  Z" fill="#ffffff" fill-rule="evenodd" fill-opacity="1"/>
<defs>
  <clipPath id="clip442">
    <rect x="156" y="47" width="2197" height="1440"/>
  </clipPath>
</defs>
<polyline clip-path="url(#clip442)" style="stroke:#000000; stroke-linecap:round; stroke-linejoin:round; stroke-width:2; stroke-opacity:0.1; fill:none" points="218.439,1486.45 218.439,47.2441 "/>
<polyline clip-path="url(#clip442)" style="stroke:#000000; stroke-linecap:round; stroke-linejoin:round; stroke-width:2; stroke-opacity:0.1; fill:none" points="736.477,1486.45 736.477,47.2441 "/>
<polyline clip-path="url(#clip442)" style="stroke:#000000; stroke-linecap:round; stroke-linejoin:round; stroke-width:2; stroke-opacity:0.1; fill:none" points="1254.52,1486.45 1254.52,47.2441 "/>
<polyline clip-path="url(#clip442)" style="stroke:#000000; stroke-linecap:round; stroke-linejoin:round; stroke-width:2; stroke-opacity:0.1; fill:none" points="1772.55,1486.45 1772.55,47.2441 "/>
<polyline clip-path="url(#clip442)" style="stroke:#000000; stroke-linecap:round; stroke-linejoin:round; stroke-width:2; stroke-opacity:0.1; fill:none" points="2290.59,1486.45 2290.59,47.2441 "/>
<polyline clip-path="url(#clip440)" style="stroke:#000000; stroke-linecap:round; stroke-linejoin:round; stroke-width:4; stroke-opacity:1; fill:none" points="156.274,1486.45 2352.76,1486.45 "/>
<polyline clip-path="url(#clip440)" style="stroke:#000000; stroke-linecap:round; stroke-linejoin:round; stroke-width:4; stroke-opacity:1; fill:none" points="218.439,1486.45 218.439,1467.55 "/>
<polyline clip-path="url(#clip440)" style="stroke:#000000; stroke-linecap:round; stroke-linejoin:round; stroke-width:4; stroke-opacity:1; fill:none" points="736.477,1486.45 736.477,1467.55 "/>
<polyline clip-path="url(#clip440)" style="stroke:#000000; stroke-linecap:round; stroke-linejoin:round; stroke-width:4; stroke-opacity:1; fill:none" points="1254.52,1486.45 1254.52,1467.55 "/>
<polyline clip-path="url(#clip440)" style="stroke:#000000; stroke-linecap:round; stroke-linejoin:round; stroke-width:4; stroke-opacity:1; fill:none" points="1772.55,1486.45 1772.55,1467.55 "/>
<polyline clip-path="url(#clip440)" style="stroke:#000000; stroke-linecap:round; stroke-linejoin:round; stroke-width:4; stroke-opacity:1; fill:none" points="2290.59,1486.45 2290.59,1467.55 "/>
<path clip-path="url(#clip440)" d="M164.967 1532.02 L194.643 1532.02 L194.643 1535.95 L164.967 1535.95 L164.967 1532.02 Z" fill="#000000" fill-rule="nonzero" fill-opacity="1" /><path clip-path="url(#clip440)" d="M205.545 1544.91 L213.184 1544.91 L213.184 1518.55 L204.874 1520.21 L204.874 1515.95 L213.138 1514.29 L217.814 1514.29 L217.814 1544.91 L225.453 1544.91 L225.453 1548.85 L205.545 1548.85 L205.545 1544.91 Z" fill="#000000" fill-rule="nonzero" fill-opacity="1" /><path clip-path="url(#clip440)" d="M234.897 1542.97 L239.781 1542.97 L239.781 1548.85 L234.897 1548.85 L234.897 1542.97 Z" fill="#000000" fill-rule="nonzero" fill-opacity="1" /><path clip-path="url(#clip440)" d="M259.966 1517.37 Q256.355 1517.37 254.527 1520.93 Q252.721 1524.47 252.721 1531.6 Q252.721 1538.71 254.527 1542.27 Q256.355 1545.82 259.966 1545.82 Q263.601 1545.82 265.406 1542.27 Q267.235 1538.71 267.235 1531.6 Q267.235 1524.47 265.406 1520.93 Q263.601 1517.37 259.966 1517.37 M259.966 1513.66 Q265.776 1513.66 268.832 1518.27 Q271.911 1522.85 271.911 1531.6 Q271.911 1540.33 268.832 1544.94 Q265.776 1549.52 259.966 1549.52 Q254.156 1549.52 251.077 1544.94 Q248.022 1540.33 248.022 1531.6 Q248.022 1522.85 251.077 1518.27 Q254.156 1513.66 259.966 1513.66 Z" fill="#000000" fill-rule="nonzero" fill-opacity="1" /><path clip-path="url(#clip440)" d="M683.503 1532.02 L713.178 1532.02 L713.178 1535.95 L683.503 1535.95 L683.503 1532.02 Z" fill="#000000" fill-rule="nonzero" fill-opacity="1" /><path clip-path="url(#clip440)" d="M733.271 1517.37 Q729.66 1517.37 727.831 1520.93 Q726.026 1524.47 726.026 1531.6 Q726.026 1538.71 727.831 1542.27 Q729.66 1545.82 733.271 1545.82 Q736.905 1545.82 738.711 1542.27 Q740.539 1538.71 740.539 1531.6 Q740.539 1524.47 738.711 1520.93 Q736.905 1517.37 733.271 1517.37 M733.271 1513.66 Q739.081 1513.66 742.137 1518.27 Q745.215 1522.85 745.215 1531.6 Q745.215 1540.33 742.137 1544.94 Q739.081 1549.52 733.271 1549.52 Q727.461 1549.52 724.382 1544.94 Q721.327 1540.33 721.327 1531.6 Q721.327 1522.85 724.382 1518.27 Q727.461 1513.66 733.271 1513.66 Z" fill="#000000" fill-rule="nonzero" fill-opacity="1" /><path clip-path="url(#clip440)" d="M753.433 1542.97 L758.317 1542.97 L758.317 1548.85 L753.433 1548.85 L753.433 1542.97 Z" fill="#000000" fill-rule="nonzero" fill-opacity="1" /><path clip-path="url(#clip440)" d="M768.548 1514.29 L786.905 1514.29 L786.905 1518.22 L772.831 1518.22 L772.831 1526.7 Q773.849 1526.35 774.868 1526.19 Q775.886 1526 776.905 1526 Q782.692 1526 786.072 1529.17 Q789.451 1532.34 789.451 1537.76 Q789.451 1543.34 785.979 1546.44 Q782.507 1549.52 776.187 1549.52 Q774.011 1549.52 771.743 1549.15 Q769.498 1548.78 767.09 1548.04 L767.09 1543.34 Q769.173 1544.47 771.396 1545.03 Q773.618 1545.58 776.095 1545.58 Q780.099 1545.58 782.437 1543.48 Q784.775 1541.37 784.775 1537.76 Q784.775 1534.15 782.437 1532.04 Q780.099 1529.94 776.095 1529.94 Q774.22 1529.94 772.345 1530.35 Q770.493 1530.77 768.548 1531.65 L768.548 1514.29 Z" fill="#000000" fill-rule="nonzero" fill-opacity="1" /><path clip-path="url(#clip440)" d="M1231.9 1517.37 Q1228.29 1517.37 1226.46 1520.93 Q1224.65 1524.47 1224.65 1531.6 Q1224.65 1538.71 1226.46 1542.27 Q1228.29 1545.82 1231.9 1545.82 Q1235.53 1545.82 1237.34 1542.27 Q1239.17 1538.71 1239.17 1531.6 Q1239.17 1524.47 1237.34 1520.93 Q1235.53 1517.37 1231.9 1517.37 M1231.9 1513.66 Q1237.71 1513.66 1240.77 1518.27 Q1243.84 1522.85 1243.84 1531.6 Q1243.84 1540.33 1240.77 1544.94 Q1237.71 1549.52 1231.9 1549.52 Q1226.09 1549.52 1223.01 1544.94 Q1219.96 1540.33 1219.96 1531.6 Q1219.96 1522.85 1223.01 1518.27 Q1226.09 1513.66 1231.9 1513.66 Z" fill="#000000" fill-rule="nonzero" fill-opacity="1" /><path clip-path="url(#clip440)" d="M1252.06 1542.97 L1256.95 1542.97 L1256.95 1548.85 L1252.06 1548.85 L1252.06 1542.97 Z" fill="#000000" fill-rule="nonzero" fill-opacity="1" /><path clip-path="url(#clip440)" d="M1277.13 1517.37 Q1273.52 1517.37 1271.69 1520.93 Q1269.89 1524.47 1269.89 1531.6 Q1269.89 1538.71 1271.69 1542.27 Q1273.52 1545.82 1277.13 1545.82 Q1280.76 1545.82 1282.57 1542.27 Q1284.4 1538.71 1284.4 1531.6 Q1284.4 1524.47 1282.57 1520.93 Q1280.76 1517.37 1277.13 1517.37 M1277.13 1513.66 Q1282.94 1513.66 1286 1518.27 Q1289.08 1522.85 1289.08 1531.6 Q1289.08 1540.33 1286 1544.94 Q1282.94 1549.52 1277.13 1549.52 Q1271.32 1549.52 1268.24 1544.94 Q1265.19 1540.33 1265.19 1531.6 Q1265.19 1522.85 1268.24 1518.27 Q1271.32 1513.66 1277.13 1513.66 Z" fill="#000000" fill-rule="nonzero" fill-opacity="1" /><path clip-path="url(#clip440)" d="M1750.44 1517.37 Q1746.82 1517.37 1745 1520.93 Q1743.19 1524.47 1743.19 1531.6 Q1743.19 1538.71 1745 1542.27 Q1746.82 1545.82 1750.44 1545.82 Q1754.07 1545.82 1755.88 1542.27 Q1757.7 1538.71 1757.7 1531.6 Q1757.7 1524.47 1755.88 1520.93 Q1754.07 1517.37 1750.44 1517.37 M1750.44 1513.66 Q1756.25 1513.66 1759.3 1518.27 Q1762.38 1522.85 1762.38 1531.6 Q1762.38 1540.33 1759.3 1544.94 Q1756.25 1549.52 1750.44 1549.52 Q1744.63 1549.52 1741.55 1544.94 Q1738.49 1540.33 1738.49 1531.6 Q1738.49 1522.85 1741.55 1518.27 Q1744.63 1513.66 1750.44 1513.66 Z" fill="#000000" fill-rule="nonzero" fill-opacity="1" /><path clip-path="url(#clip440)" d="M1770.6 1542.97 L1775.48 1542.97 L1775.48 1548.85 L1770.6 1548.85 L1770.6 1542.97 Z" fill="#000000" fill-rule="nonzero" fill-opacity="1" /><path clip-path="url(#clip440)" d="M1785.71 1514.29 L1804.07 1514.29 L1804.07 1518.22 L1790 1518.22 L1790 1526.7 Q1791.01 1526.35 1792.03 1526.19 Q1793.05 1526 1794.07 1526 Q1799.86 1526 1803.24 1529.17 Q1806.62 1532.34 1806.62 1537.76 Q1806.62 1543.34 1803.14 1546.44 Q1799.67 1549.52 1793.35 1549.52 Q1791.18 1549.52 1788.91 1549.15 Q1786.66 1548.78 1784.25 1548.04 L1784.25 1543.34 Q1786.34 1544.47 1788.56 1545.03 Q1790.78 1545.58 1793.26 1545.58 Q1797.26 1545.58 1799.6 1543.48 Q1801.94 1541.37 1801.94 1537.76 Q1801.94 1534.15 1799.6 1532.04 Q1797.26 1529.94 1793.26 1529.94 Q1791.38 1529.94 1789.51 1530.35 Q1787.66 1530.77 1785.71 1531.65 L1785.71 1514.29 Z" fill="#000000" fill-rule="nonzero" fill-opacity="1" /><path clip-path="url(#clip440)" d="M2257.74 1544.91 L2265.38 1544.91 L2265.38 1518.55 L2257.07 1520.21 L2257.07 1515.95 L2265.34 1514.29 L2270.01 1514.29 L2270.01 1544.91 L2277.65 1544.91 L2277.65 1548.85 L2257.74 1548.85 L2257.74 1544.91 Z" fill="#000000" fill-rule="nonzero" fill-opacity="1" /><path clip-path="url(#clip440)" d="M2287.1 1542.97 L2291.98 1542.97 L2291.98 1548.85 L2287.1 1548.85 L2287.1 1542.97 Z" fill="#000000" fill-rule="nonzero" fill-opacity="1" /><path clip-path="url(#clip440)" d="M2312.17 1517.37 Q2308.55 1517.37 2306.73 1520.93 Q2304.92 1524.47 2304.92 1531.6 Q2304.92 1538.71 2306.73 1542.27 Q2308.55 1545.82 2312.17 1545.82 Q2315.8 1545.82 2317.61 1542.27 Q2319.43 1538.71 2319.43 1531.6 Q2319.43 1524.47 2317.61 1520.93 Q2315.8 1517.37 2312.17 1517.37 M2312.17 1513.66 Q2317.98 1513.66 2321.03 1518.27 Q2324.11 1522.85 2324.11 1531.6 Q2324.11 1540.33 2321.03 1544.94 Q2317.98 1549.52 2312.17 1549.52 Q2306.36 1549.52 2303.28 1544.94 Q2300.22 1540.33 2300.22 1531.6 Q2300.22 1522.85 2303.28 1518.27 Q2306.36 1513.66 2312.17 1513.66 Z" fill="#000000" fill-rule="nonzero" fill-opacity="1" /><polyline clip-path="url(#clip442)" style="stroke:#000000; stroke-linecap:round; stroke-linejoin:round; stroke-width:2; stroke-opacity:0.1; fill:none" points="156.274,1238.89 2352.76,1238.89 "/>
<polyline clip-path="url(#clip442)" style="stroke:#000000; stroke-linecap:round; stroke-linejoin:round; stroke-width:2; stroke-opacity:0.1; fill:none" points="156.274,968.786 2352.76,968.786 "/>
<polyline clip-path="url(#clip442)" style="stroke:#000000; stroke-linecap:round; stroke-linejoin:round; stroke-width:2; stroke-opacity:0.1; fill:none" points="156.274,698.686 2352.76,698.686 "/>
<polyline clip-path="url(#clip442)" style="stroke:#000000; stroke-linecap:round; stroke-linejoin:round; stroke-width:2; stroke-opacity:0.1; fill:none" points="156.274,428.586 2352.76,428.586 "/>
<polyline clip-path="url(#clip442)" style="stroke:#000000; stroke-linecap:round; stroke-linejoin:round; stroke-width:2; stroke-opacity:0.1; fill:none" points="156.274,158.486 2352.76,158.486 "/>
<polyline clip-path="url(#clip440)" style="stroke:#000000; stroke-linecap:round; stroke-linejoin:round; stroke-width:4; stroke-opacity:1; fill:none" points="156.274,1486.45 156.274,47.2441 "/>
<polyline clip-path="url(#clip440)" style="stroke:#000000; stroke-linecap:round; stroke-linejoin:round; stroke-width:4; stroke-opacity:1; fill:none" points="156.274,1238.89 175.172,1238.89 "/>
<polyline clip-path="url(#clip440)" style="stroke:#000000; stroke-linecap:round; stroke-linejoin:round; stroke-width:4; stroke-opacity:1; fill:none" points="156.274,968.786 175.172,968.786 "/>
<polyline clip-path="url(#clip440)" style="stroke:#000000; stroke-linecap:round; stroke-linejoin:round; stroke-width:4; stroke-opacity:1; fill:none" points="156.274,698.686 175.172,698.686 "/>
<polyline clip-path="url(#clip440)" style="stroke:#000000; stroke-linecap:round; stroke-linejoin:round; stroke-width:4; stroke-opacity:1; fill:none" points="156.274,428.586 175.172,428.586 "/>
<polyline clip-path="url(#clip440)" style="stroke:#000000; stroke-linecap:round; stroke-linejoin:round; stroke-width:4; stroke-opacity:1; fill:none" points="156.274,158.486 175.172,158.486 "/>
<path clip-path="url(#clip440)" d="M63.0985 1224.68 Q59.4875 1224.68 57.6588 1228.25 Q55.8532 1231.79 55.8532 1238.92 Q55.8532 1246.03 57.6588 1249.59 Q59.4875 1253.13 63.0985 1253.13 Q66.7328 1253.13 68.5383 1249.59 Q70.367 1246.03 70.367 1238.92 Q70.367 1231.79 68.5383 1228.25 Q66.7328 1224.68 63.0985 1224.68 M63.0985 1220.98 Q68.9087 1220.98 71.9642 1225.59 Q75.0429 1230.17 75.0429 1238.92 Q75.0429 1247.65 71.9642 1252.25 Q68.9087 1256.84 63.0985 1256.84 Q57.2884 1256.84 54.2097 1252.25 Q51.1542 1247.65 51.1542 1238.92 Q51.1542 1230.17 54.2097 1225.59 Q57.2884 1220.98 63.0985 1220.98 Z" fill="#000000" fill-rule="nonzero" fill-opacity="1" /><path clip-path="url(#clip440)" d="M83.2605 1250.29 L88.1447 1250.29 L88.1447 1256.17 L83.2605 1256.17 L83.2605 1250.29 Z" fill="#000000" fill-rule="nonzero" fill-opacity="1" /><path clip-path="url(#clip440)" d="M108.33 1224.68 Q104.719 1224.68 102.89 1228.25 Q101.084 1231.79 101.084 1238.92 Q101.084 1246.03 102.89 1249.59 Q104.719 1253.13 108.33 1253.13 Q111.964 1253.13 113.77 1249.59 Q115.598 1246.03 115.598 1238.92 Q115.598 1231.79 113.77 1228.25 Q111.964 1224.68 108.33 1224.68 M108.33 1220.98 Q114.14 1220.98 117.195 1225.59 Q120.274 1230.17 120.274 1238.92 Q120.274 1247.65 117.195 1252.25 Q114.14 1256.84 108.33 1256.84 Q102.52 1256.84 99.4409 1252.25 Q96.3854 1247.65 96.3854 1238.92 Q96.3854 1230.17 99.4409 1225.59 Q102.52 1220.98 108.33 1220.98 Z" fill="#000000" fill-rule="nonzero" fill-opacity="1" /><path clip-path="url(#clip440)" d="M63.7467 954.585 Q60.1356 954.585 58.3069 958.15 Q56.5014 961.691 56.5014 968.821 Q56.5014 975.927 58.3069 979.492 Q60.1356 983.034 63.7467 983.034 Q67.3809 983.034 69.1865 979.492 Q71.0152 975.927 71.0152 968.821 Q71.0152 961.691 69.1865 958.15 Q67.3809 954.585 63.7467 954.585 M63.7467 950.881 Q69.5568 950.881 72.6124 955.488 Q75.6911 960.071 75.6911 968.821 Q75.6911 977.548 72.6124 982.154 Q69.5568 986.737 63.7467 986.737 Q57.9365 986.737 54.8578 982.154 Q51.8023 977.548 51.8023 968.821 Q51.8023 960.071 54.8578 955.488 Q57.9365 950.881 63.7467 950.881 Z" fill="#000000" fill-rule="nonzero" fill-opacity="1" /><path clip-path="url(#clip440)" d="M83.9086 980.186 L88.7928 980.186 L88.7928 986.066 L83.9086 986.066 L83.9086 980.186 Z" fill="#000000" fill-rule="nonzero" fill-opacity="1" /><path clip-path="url(#clip440)" d="M113.145 967.432 Q116.501 968.149 118.376 970.418 Q120.274 972.686 120.274 976.02 Q120.274 981.136 116.756 983.936 Q113.237 986.737 106.756 986.737 Q104.58 986.737 102.265 986.298 Q99.9733 985.881 97.5197 985.024 L97.5197 980.511 Q99.4641 981.645 101.779 982.223 Q104.094 982.802 106.617 982.802 Q111.015 982.802 113.307 981.066 Q115.621 979.33 115.621 976.02 Q115.621 972.964 113.469 971.251 Q111.339 969.515 107.52 969.515 L103.492 969.515 L103.492 965.673 L107.705 965.673 Q111.154 965.673 112.983 964.307 Q114.811 962.918 114.811 960.325 Q114.811 957.663 112.913 956.251 Q111.038 954.816 107.52 954.816 Q105.598 954.816 103.399 955.233 Q101.2 955.65 98.5613 956.529 L98.5613 952.363 Q101.223 951.622 103.538 951.251 Q105.876 950.881 107.936 950.881 Q113.26 950.881 116.362 953.312 Q119.464 955.719 119.464 959.839 Q119.464 962.71 117.82 964.7 Q116.177 966.668 113.145 967.432 Z" fill="#000000" fill-rule="nonzero" fill-opacity="1" /><path clip-path="url(#clip440)" d="M62.9365 684.485 Q59.3254 684.485 57.4967 688.049 Q55.6912 691.591 55.6912 698.721 Q55.6912 705.827 57.4967 709.392 Q59.3254 712.934 62.9365 712.934 Q66.5707 712.934 68.3763 709.392 Q70.205 705.827 70.205 698.721 Q70.205 691.591 68.3763 688.049 Q66.5707 684.485 62.9365 684.485 M62.9365 680.781 Q68.7467 680.781 71.8022 685.387 Q74.8809 689.971 74.8809 698.721 Q74.8809 707.448 71.8022 712.054 Q68.7467 716.637 62.9365 716.637 Q57.1264 716.637 54.0477 712.054 Q50.9921 707.448 50.9921 698.721 Q50.9921 689.971 54.0477 685.387 Q57.1264 680.781 62.9365 680.781 Z" fill="#000000" fill-rule="nonzero" fill-opacity="1" /><path clip-path="url(#clip440)" d="M83.0984 710.086 L87.9827 710.086 L87.9827 715.966 L83.0984 715.966 L83.0984 710.086 Z" fill="#000000" fill-rule="nonzero" fill-opacity="1" /><path clip-path="url(#clip440)" d="M108.746 696.823 Q105.598 696.823 103.746 698.975 Q101.918 701.128 101.918 704.878 Q101.918 708.605 103.746 710.781 Q105.598 712.934 108.746 712.934 Q111.895 712.934 113.723 710.781 Q115.575 708.605 115.575 704.878 Q115.575 701.128 113.723 698.975 Q111.895 696.823 108.746 696.823 M118.029 682.17 L118.029 686.429 Q116.27 685.596 114.464 685.156 Q112.682 684.716 110.922 684.716 Q106.293 684.716 103.839 687.841 Q101.409 690.966 101.061 697.286 Q102.427 695.272 104.487 694.207 Q106.547 693.119 109.024 693.119 Q114.233 693.119 117.242 696.29 Q120.274 699.438 120.274 704.878 Q120.274 710.202 117.126 713.42 Q113.978 716.637 108.746 716.637 Q102.751 716.637 99.5798 712.054 Q96.4085 707.448 96.4085 698.721 Q96.4085 690.526 100.297 685.665 Q104.186 680.781 110.737 680.781 Q112.496 680.781 114.279 681.128 Q116.084 681.475 118.029 682.17 Z" fill="#000000" fill-rule="nonzero" fill-opacity="1" /><path clip-path="url(#clip440)" d="M63.2837 414.385 Q59.6726 414.385 57.8439 417.949 Q56.0384 421.491 56.0384 428.621 Q56.0384 435.727 57.8439 439.292 Q59.6726 442.834 63.2837 442.834 Q66.918 442.834 68.7235 439.292 Q70.5522 435.727 70.5522 428.621 Q70.5522 421.491 68.7235 417.949 Q66.918 414.385 63.2837 414.385 M63.2837 410.681 Q69.0939 410.681 72.1494 415.287 Q75.2281 419.871 75.2281 428.621 Q75.2281 437.347 72.1494 441.954 Q69.0939 446.537 63.2837 446.537 Q57.4736 446.537 54.3949 441.954 Q51.3393 437.347 51.3393 428.621 Q51.3393 419.871 54.3949 415.287 Q57.4736 410.681 63.2837 410.681 Z" fill="#000000" fill-rule="nonzero" fill-opacity="1" /><path clip-path="url(#clip440)" d="M83.4457 439.986 L88.3299 439.986 L88.3299 445.866 L83.4457 445.866 L83.4457 439.986 Z" fill="#000000" fill-rule="nonzero" fill-opacity="1" /><path clip-path="url(#clip440)" d="M98.6539 445.148 L98.6539 440.889 Q100.413 441.722 102.219 442.162 Q104.024 442.602 105.76 442.602 Q110.39 442.602 112.82 439.5 Q115.274 436.375 115.621 430.033 Q114.279 432.023 112.219 433.088 Q110.158 434.153 107.658 434.153 Q102.473 434.153 99.4409 431.028 Q96.4317 427.88 96.4317 422.44 Q96.4317 417.116 99.5798 413.898 Q102.728 410.681 107.959 410.681 Q113.955 410.681 117.103 415.287 Q120.274 419.871 120.274 428.621 Q120.274 436.792 116.385 441.676 Q112.52 446.537 105.969 446.537 Q104.209 446.537 102.404 446.19 Q100.598 445.843 98.6539 445.148 M107.959 430.496 Q111.108 430.496 112.936 428.343 Q114.788 426.19 114.788 422.44 Q114.788 418.713 112.936 416.561 Q111.108 414.385 107.959 414.385 Q104.811 414.385 102.959 416.561 Q101.131 418.713 101.131 422.44 Q101.131 426.19 102.959 428.343 Q104.811 430.496 107.959 430.496 Z" fill="#000000" fill-rule="nonzero" fill-opacity="1" /><path clip-path="url(#clip440)" d="M55.506 171.831 L63.1448 171.831 L63.1448 145.465 L54.8347 147.132 L54.8347 142.872 L63.0985 141.206 L67.7744 141.206 L67.7744 171.831 L75.4133 171.831 L75.4133 175.766 L55.506 175.766 L55.506 171.831 Z" fill="#000000" fill-rule="nonzero" fill-opacity="1" /><path clip-path="url(#clip440)" d="M84.8577 169.886 L89.7419 169.886 L89.7419 175.766 L84.8577 175.766 L84.8577 169.886 Z" fill="#000000" fill-rule="nonzero" fill-opacity="1" /><path clip-path="url(#clip440)" d="M103.955 171.831 L120.274 171.831 L120.274 175.766 L98.3298 175.766 L98.3298 171.831 Q100.992 169.076 105.575 164.446 Q110.182 159.794 111.362 158.451 Q113.608 155.928 114.487 154.192 Q115.39 152.433 115.39 150.743 Q115.39 147.988 113.445 146.252 Q111.524 144.516 108.422 144.516 Q106.223 144.516 103.77 145.28 Q101.339 146.044 98.5613 147.595 L98.5613 142.872 Q101.385 141.738 103.839 141.16 Q106.293 140.581 108.33 140.581 Q113.7 140.581 116.895 143.266 Q120.089 145.951 120.089 150.442 Q120.089 152.572 119.279 154.493 Q118.492 156.391 116.385 158.984 Q115.807 159.655 112.705 162.872 Q109.603 166.067 103.955 171.831 Z" fill="#000000" fill-rule="nonzero" fill-opacity="1" /><polyline clip-path="url(#clip442)" style="stroke:#009af9; stroke-linecap:round; stroke-linejoin:round; stroke-width:16; stroke-opacity:1; fill:none" stroke-dasharray="8, 16" points="218.439,1103.4 228.852,1094.38 239.264,1081.38 249.677,1068.09 260.09,1058.97 270.503,1057.71 280.916,1065.76 291.329,1082.06 301.741,1104.22 312.154,1129.93 322.567,1157.75 332.98,1187.05 343.393,1217.58 353.805,1249.08 364.218,1280.94 374.631,1312.04 385.044,1340.92 395.457,1366.18 405.87,1386.91 416.282,1402.62 426.695,1412.95 437.108,1417.53 447.521,1416.36 457.934,1409.67 468.347,1397.52 478.759,1379.89 489.172,1357.13 499.585,1330.45 509.998,1301.5 520.411,1271.5 530.824,1240.65 541.236,1208.65 551.649,1175.86 562.062,1144.08 572.475,1116.02 582.888,1093.75 593.301,1077.71 603.713,1067.1 614.126,1061.12 624.539,1059.73 634.952,1063.45 645.365,1072.81 655.777,1087.97 666.19,1108.63 676.603,1134.05 687.016,1163.12 697.429,1194.48 707.842,1226.75 718.254,1258.75 728.667,1289.65 739.08,1318.86 749.493,1345.92 759.906,1370.39 770.319,1391.86 780.731,1409.35 791.144,1420.85 801.557,1423.51 811.97,1414.78 822.383,1394.82 832.796,1370.63 843.208,1355.46 853.621,1354.11 864.034,1355.28 874.447,1344.22 884.86,1307.58 895.273,1229.19 905.685,1112.49 916.098,1032.85 926.511,1046.38 936.924,1110.74 947.337,1128.98 957.749,1102.68 968.162,1077.34 978.575,1060.52 988.988,1047.39 999.401,1050.83 1009.81,1075.77 1020.23,1095.65 1030.64,1100.57 1041.05,1100.51 1051.46,1122.53 1061.88,1195.22 1072.29,1241.96 1082.7,1264.55 1093.12,1289.94 1103.53,1320.97 1113.94,1413.82 1124.35,1445.72 1134.77,1392.35 1145.18,1402.11 1155.59,1388.24 1166.01,1303.1 1176.42,1315.15 1186.83,1383.05 1197.24,1406.37 1207.66,1387.13 1218.07,1356.6 1228.48,1329.52 1238.9,1237.89 1249.31,953.319 1259.72,575.178 1270.13,360.006 1280.55,340.137 1290.96,369.104 1301.37,384.288 1311.79,371.824 1322.2,339.497 1332.61,290.951 1343.02,248.192 1353.44,269.539 1363.85,339.674 1374.26,324.418 1384.68,272.315 1395.09,289.495 1405.5,345.836 1415.91,366.268 1426.33,373.511 1436.74,376.592 1447.15,386.199 1457.57,417.371 1467.98,396.116 1478.39,327.348 1488.8,283.278 1499.22,359.222 1509.63,425.374 1520.04,389.841 1530.45,351.634 1540.87,371.175 1551.28,388.016 1561.69,397.428 1572.11,393.35 1582.52,369.671 1592.93,324.443 1603.34,271.294 1613.76,244.541 1624.17,259.06 1634.58,297.925 1645,343.542 1655.41,386.599 1665.82,421.05 1676.23,439.879 1686.65,433.624 1697.06,394.357 1707.47,326.818 1717.89,253.597 1728.3,206.308 1738.71,208.061 1749.12,255.709 1759.54,324.573 1769.95,388.995 1780.36,433.523 1790.78,452.3 1801.19,445.387 1811.6,415.989 1822.01,369.129 1832.43,311.569 1842.84,252.883 1853.25,207.29 1863.67,193.559 1874.08,226.431 1884.49,301.297 1894.9,393.037 1905.32,471.149 1915.73,510.677 1926.14,497.66 1936.56,435.11 1946.97,343.646 1957.38,251.865 1967.79,184.896 1978.21,159.28 1988.62,180.915 1999.03,243.584 2009.45,334.241 2019.86,436.945 2030.27,520.534 2040.68,536.644 2051.1,474.93 2061.51,378.025 2071.92,281.375 2082.33,200.572 2092.75,146.013 2103.16,131.666 2113.57,180.433 2123.99,281.965 2134.4,391.04 2144.81,483.754 2155.22,551.269 2165.64,561.512 2176.05,478.685 2186.46,346.517 2196.88,218.43 2207.29,137.801 2217.7,128.215 2228.11,174.804 2238.53,249.197 2248.94,330.714 2259.35,407.402 2269.77,472.877 2280.18,524.313 2290.59,561.16 "/>
<polyline clip-path="url(#clip442)" style="stroke:#e26f46; stroke-linecap:round; stroke-linejoin:round; stroke-width:4; stroke-opacity:1; fill:none" points="218.439,1103.66 228.852,1084.47 239.264,1070.33 249.677,1061.68 260.09,1058.82 270.503,1061.84 280.916,1070.63 291.329,1084.91 301.741,1104.23 312.154,1127.93 322.567,1155.26 332.98,1185.31 343.393,1217.12 353.805,1249.63 364.218,1281.8 374.631,1312.56 385.044,1340.92 395.457,1365.95 405.87,1386.83 416.282,1402.89 426.695,1413.59 437.108,1418.59 447.521,1417.72 457.934,1411.02 468.347,1398.7 478.759,1381.16 489.172,1358.98 499.585,1332.88 509.998,1303.72 520.411,1272.43 530.824,1240.06 541.236,1207.64 551.649,1176.24 562.062,1146.89 572.475,1120.54 582.888,1098.06 593.301,1080.17 603.713,1067.46 614.126,1060.34 624.539,1059.05 634.952,1063.63 645.365,1073.93 655.777,1089.62 666.19,1110.18 676.603,1134.93 687.016,1163.08 697.429,1193.71 707.842,1225.8 718.254,1258.33 728.667,1290.22 739.08,1320.44 749.493,1347.99 759.906,1371.98 770.319,1391.63 780.731,1406.3 791.144,1415.5 801.557,1418.93 811.97,1416.49 822.383,1408.25 832.796,1394.49 843.208,1375.65 853.621,1352.34 864.034,1325.33 874.447,1295.5 884.86,1263.82 895.273,1231.33 905.685,1199.08 916.098,1168.14 926.511,1139.5 936.924,1114.11 947.337,1092.78 957.749,1076.23 968.162,1064.99 978.575,1059.42 988.988,1059.71 999.401,1065.84 1009.81,1077.63 1020.23,1094.67 1030.64,1116.43 1041.05,1142.18 1051.46,1171.09 1061.88,1202.21 1072.29,1234.52 1082.7,1266.98 1093.12,1298.52 1103.53,1328.12 1113.94,1354.8 1124.35,1377.7 1134.77,1396.07 1145.18,1409.31 1155.59,1416.99 1166.01,1418.85 1176.42,1414.84 1186.83,1405.09 1197.24,1389.92 1207.66,1369.81 1218.07,1345.43 1228.48,1317.58 1238.9,1287.15 1249.31,1255.15 1259.72,337.245 1270.13,335.757 1280.55,337.111 1290.96,341.62 1301.37,347.9 1311.79,353.3 1322.2,354.899 1332.61,350.744 1343.02,340.841 1353.44,327.489 1363.85,314.784 1374.26,307.362 1384.68,308.786 1395.09,320.11 1405.5,339.157 1415.91,360.834 1426.33,378.486 1436.74,385.932 1447.15,379.558 1457.57,359.782 1467.98,331.336 1478.39,302.183 1488.8,281.29 1499.22,275.877 1509.63,288.998 1520.04,318.23 1530.45,355.983 1540.87,391.447 1551.28,413.689 1561.69,415.006 1572.11,393.518 1582.52,354.137 1592.93,307.521 1603.34,267.197 1613.76,245.641 1624.17,250.434 1634.58,281.686 1645,331.575 1655.41,386.268 1665.82,429.742 1676.23,448.486 1686.65,435.668 1697.06,393.521 1707.47,333.111 1717.89,271.465 1728.3,226.766 1738.71,213 1749.12,235.604 1759.54,289.482 1769.95,360.064 1780.36,427.232 1790.78,471.053 1801.19,477.691 1811.6,443.736 1822.01,377.62 1832.43,297.573 1842.84,226.604 1853.25,185.89 1863.67,188.464 1874.08,235.086 1884.49,313.596 1894.9,402.049 1905.32,474.847 1915.73,510.147 1926.14,496.401 1936.56,436.08 1946.97,345.386 1957.38,249.927 1967.79,177.482 1978.21,149.925 1988.62,176.631 1999.03,251.363 2009.45,353.657 2019.86,454.406 2030.27,524.144 2040.68,541.661 2051.1,500.433 2061.51,410.928 2071.92,297.991 2082.33,193.958 2092.75,129.396 2103.16,124.13 2113.57,181.175 2123.99,285.442 2134.4,407.697 2144.81,512.756 2155.22,569.605 2165.64,560.553 2176.05,486.707 2186.46,368.076 2196.88,238.179 2207.29,134.567 2217.7,87.9763 2228.11,113.216 2238.53,204.503 2248.94,336.704 2259.35,472.239 2269.77,571.768 2280.18,605.601 2290.59,562.549 "/>
<path clip-path="url(#clip440)" d="M229.49 250.738 L675.966 250.738 L675.966 95.2176 L229.49 95.2176  Z" fill="#ffffff" fill-rule="evenodd" fill-opacity="1"/>
<polyline clip-path="url(#clip440)" style="stroke:#000000; stroke-linecap:round; stroke-linejoin:round; stroke-width:4; stroke-opacity:1; fill:none" points="229.49,250.738 675.966,250.738 675.966,95.2176 229.49,95.2176 229.49,250.738 "/>
<polyline clip-path="url(#clip440)" style="stroke:#009af9; stroke-linecap:round; stroke-linejoin:round; stroke-width:16; stroke-opacity:1; fill:none" stroke-dasharray="8, 16" points="253.896,147.058 400.328,147.058 "/>
<path clip-path="url(#clip440)" d="M429.409 133.62 L429.409 146.606 L435.289 146.606 Q438.552 146.606 440.335 144.916 Q442.117 143.227 442.117 140.102 Q442.117 137 440.335 135.31 Q438.552 133.62 435.289 133.62 L429.409 133.62 M424.733 129.778 L435.289 129.778 Q441.099 129.778 444.062 132.416 Q447.048 135.032 447.048 140.102 Q447.048 145.217 444.062 147.833 Q441.099 150.449 435.289 150.449 L429.409 150.449 L429.409 164.338 L424.733 164.338 L424.733 129.778 Z" fill="#000000" fill-rule="nonzero" fill-opacity="1" /><path clip-path="url(#clip440)" d="M467.325 142.393 Q466.608 141.977 465.751 141.791 Q464.918 141.583 463.899 141.583 Q460.288 141.583 458.344 143.944 Q456.423 146.282 456.423 150.68 L456.423 164.338 L452.14 164.338 L452.14 138.412 L456.423 138.412 L456.423 142.44 Q457.765 140.078 459.918 138.944 Q462.071 137.787 465.149 137.787 Q465.589 137.787 466.122 137.856 Q466.654 137.903 467.302 138.018 L467.325 142.393 Z" fill="#000000" fill-rule="nonzero" fill-opacity="1" /><path clip-path="url(#clip440)" d="M492.927 150.31 L492.927 152.393 L473.344 152.393 Q473.622 156.791 475.983 159.106 Q478.367 161.398 482.603 161.398 Q485.057 161.398 487.348 160.796 Q489.663 160.194 491.932 158.99 L491.932 163.018 Q489.64 163.99 487.233 164.5 Q484.825 165.009 482.348 165.009 Q476.145 165.009 472.511 161.398 Q468.899 157.787 468.899 151.629 Q468.899 145.264 472.325 141.537 Q475.774 137.787 481.608 137.787 Q486.839 137.787 489.872 141.166 Q492.927 144.523 492.927 150.31 M488.668 149.06 Q488.622 145.565 486.7 143.481 Q484.802 141.398 481.654 141.398 Q478.089 141.398 475.936 143.412 Q473.807 145.426 473.483 149.083 L488.668 149.06 Z" fill="#000000" fill-rule="nonzero" fill-opacity="1" /><path clip-path="url(#clip440)" d="M516.978 142.347 L516.978 128.319 L521.237 128.319 L521.237 164.338 L516.978 164.338 L516.978 160.449 Q515.635 162.763 513.575 163.898 Q511.538 165.009 508.668 165.009 Q503.969 165.009 501.006 161.259 Q498.066 157.509 498.066 151.398 Q498.066 145.287 501.006 141.537 Q503.969 137.787 508.668 137.787 Q511.538 137.787 513.575 138.921 Q515.635 140.032 516.978 142.347 M502.464 151.398 Q502.464 156.097 504.385 158.782 Q506.33 161.444 509.709 161.444 Q513.089 161.444 515.033 158.782 Q516.978 156.097 516.978 151.398 Q516.978 146.699 515.033 144.037 Q513.089 141.352 509.709 141.352 Q506.33 141.352 504.385 144.037 Q502.464 146.699 502.464 151.398 Z" fill="#000000" fill-rule="nonzero" fill-opacity="1" /><path clip-path="url(#clip440)" d="M530.01 138.412 L534.269 138.412 L534.269 164.338 L530.01 164.338 L530.01 138.412 M530.01 128.319 L534.269 128.319 L534.269 133.713 L530.01 133.713 L530.01 128.319 Z" fill="#000000" fill-rule="nonzero" fill-opacity="1" /><path clip-path="url(#clip440)" d="M561.839 139.407 L561.839 143.389 Q560.033 142.393 558.205 141.907 Q556.399 141.398 554.547 141.398 Q550.404 141.398 548.112 144.037 Q545.82 146.652 545.82 151.398 Q545.82 156.143 548.112 158.782 Q550.404 161.398 554.547 161.398 Q556.399 161.398 558.205 160.912 Q560.033 160.402 561.839 159.407 L561.839 163.342 Q560.056 164.176 558.135 164.592 Q556.237 165.009 554.084 165.009 Q548.228 165.009 544.779 161.328 Q541.33 157.648 541.33 151.398 Q541.33 145.055 544.802 141.421 Q548.297 137.787 554.362 137.787 Q556.33 137.787 558.205 138.203 Q560.08 138.597 561.839 139.407 Z" fill="#000000" fill-rule="nonzero" fill-opacity="1" /><path clip-path="url(#clip440)" d="M573.459 131.051 L573.459 138.412 L582.232 138.412 L582.232 141.722 L573.459 141.722 L573.459 155.796 Q573.459 158.967 574.316 159.87 Q575.195 160.773 577.857 160.773 L582.232 160.773 L582.232 164.338 L577.857 164.338 Q572.927 164.338 571.052 162.509 Q569.177 160.657 569.177 155.796 L569.177 141.722 L566.052 141.722 L566.052 138.412 L569.177 138.412 L569.177 131.051 L573.459 131.051 Z" fill="#000000" fill-rule="nonzero" fill-opacity="1" /><path clip-path="url(#clip440)" d="M587.834 138.412 L592.093 138.412 L592.093 164.338 L587.834 164.338 L587.834 138.412 M587.834 128.319 L592.093 128.319 L592.093 133.713 L587.834 133.713 L587.834 128.319 Z" fill="#000000" fill-rule="nonzero" fill-opacity="1" /><path clip-path="url(#clip440)" d="M611.051 141.398 Q607.626 141.398 605.635 144.083 Q603.644 146.745 603.644 151.398 Q603.644 156.051 605.612 158.736 Q607.602 161.398 611.051 161.398 Q614.454 161.398 616.445 158.713 Q618.436 156.027 618.436 151.398 Q618.436 146.791 616.445 144.106 Q614.454 141.398 611.051 141.398 M611.051 137.787 Q616.607 137.787 619.778 141.398 Q622.95 145.009 622.95 151.398 Q622.95 157.764 619.778 161.398 Q616.607 165.009 611.051 165.009 Q605.473 165.009 602.302 161.398 Q599.153 157.764 599.153 151.398 Q599.153 145.009 602.302 141.398 Q605.473 137.787 611.051 137.787 Z" fill="#000000" fill-rule="nonzero" fill-opacity="1" /><path clip-path="url(#clip440)" d="M651.561 148.689 L651.561 164.338 L647.301 164.338 L647.301 148.828 Q647.301 145.148 645.866 143.319 Q644.431 141.49 641.561 141.49 Q638.112 141.49 636.121 143.69 Q634.13 145.889 634.13 149.685 L634.13 164.338 L629.848 164.338 L629.848 138.412 L634.13 138.412 L634.13 142.44 Q635.658 140.102 637.718 138.944 Q639.801 137.787 642.51 137.787 Q646.977 137.787 649.269 140.565 Q651.561 143.319 651.561 148.689 Z" fill="#000000" fill-rule="nonzero" fill-opacity="1" /><polyline clip-path="url(#clip440)" style="stroke:#e26f46; stroke-linecap:round; stroke-linejoin:round; stroke-width:4; stroke-opacity:1; fill:none" points="253.896,198.898 400.328,198.898 "/>
<path clip-path="url(#clip440)" d="M424.733 181.618 L446.585 181.618 L446.585 185.553 L429.409 185.553 L429.409 195.784 L445.867 195.784 L445.867 199.719 L429.409 199.719 L429.409 212.242 L447.001 212.242 L447.001 216.178 L424.733 216.178 L424.733 181.618 Z" fill="#000000" fill-rule="nonzero" fill-opacity="1" /><path clip-path="url(#clip440)" d="M476.052 190.252 L466.677 202.867 L476.538 216.178 L471.515 216.178 L463.969 205.992 L456.423 216.178 L451.4 216.178 L461.469 202.613 L452.256 190.252 L457.279 190.252 L464.154 199.488 L471.029 190.252 L476.052 190.252 Z" fill="#000000" fill-rule="nonzero" fill-opacity="1" /><path clip-path="url(#clip440)" d="M494.339 203.145 Q489.177 203.145 487.186 204.326 Q485.196 205.506 485.196 208.354 Q485.196 210.622 486.677 211.965 Q488.182 213.284 490.751 213.284 Q494.293 213.284 496.422 210.784 Q498.575 208.261 498.575 204.094 L498.575 203.145 L494.339 203.145 M502.834 201.386 L502.834 216.178 L498.575 216.178 L498.575 212.242 Q497.117 214.603 494.941 215.738 Q492.765 216.849 489.617 216.849 Q485.635 216.849 483.274 214.627 Q480.936 212.381 480.936 208.631 Q480.936 204.256 483.853 202.034 Q486.793 199.812 492.603 199.812 L498.575 199.812 L498.575 199.395 Q498.575 196.455 496.631 194.858 Q494.71 193.238 491.214 193.238 Q488.992 193.238 486.885 193.77 Q484.779 194.303 482.835 195.367 L482.835 191.432 Q485.173 190.53 487.372 190.09 Q489.571 189.627 491.654 189.627 Q497.279 189.627 500.057 192.543 Q502.834 195.46 502.834 201.386 Z" fill="#000000" fill-rule="nonzero" fill-opacity="1" /><path clip-path="url(#clip440)" d="M530.265 191.247 L530.265 195.229 Q528.459 194.233 526.631 193.747 Q524.825 193.238 522.973 193.238 Q518.83 193.238 516.538 195.877 Q514.246 198.492 514.246 203.238 Q514.246 207.983 516.538 210.622 Q518.83 213.238 522.973 213.238 Q524.825 213.238 526.631 212.752 Q528.459 212.242 530.265 211.247 L530.265 215.182 Q528.482 216.016 526.561 216.432 Q524.663 216.849 522.51 216.849 Q516.654 216.849 513.205 213.168 Q509.756 209.488 509.756 203.238 Q509.756 196.895 513.228 193.261 Q516.723 189.627 522.788 189.627 Q524.756 189.627 526.631 190.043 Q528.506 190.437 530.265 191.247 Z" fill="#000000" fill-rule="nonzero" fill-opacity="1" /><path clip-path="url(#clip440)" d="M541.885 182.891 L541.885 190.252 L550.658 190.252 L550.658 193.562 L541.885 193.562 L541.885 207.636 Q541.885 210.807 542.742 211.71 Q543.621 212.613 546.283 212.613 L550.658 212.613 L550.658 216.178 L546.283 216.178 Q541.353 216.178 539.478 214.349 Q537.603 212.497 537.603 207.636 L537.603 193.562 L534.478 193.562 L534.478 190.252 L537.603 190.252 L537.603 182.891 L541.885 182.891 Z" fill="#000000" fill-rule="nonzero" fill-opacity="1" /></svg>
