<?xml version="1.0" encoding="utf-8"?>
<svg xmlns="http://www.w3.org/2000/svg" xmlns:xlink="http://www.w3.org/1999/xlink" width="600" height="400" viewBox="0 0 2400 1600">
<defs>
  <clipPath id="clip810">
    <rect x="0" y="0" width="2400" height="1600"/>
  </clipPath>
</defs>
<path clip-path="url(#clip810)" d="M0 1600 L2400 1600 L2400 0 L0 0  Z" fill="#ffffff" fill-rule="evenodd" fill-opacity="1"/>
<defs>
  <clipPath id="clip811">
    <rect x="480" y="0" width="1681" height="1600"/>
  </clipPath>
</defs>
<path clip-path="url(#clip810)" d="M156.274 1486.45 L2352.76 1486.45 L2352.76 47.2441 L156.274 47.2441  Z" fill="#ffffff" fill-rule="evenodd" fill-opacity="1"/>
<defs>
  <clipPath id="clip812">
    <rect x="156" y="47" width="2197" height="1440"/>
  </clipPath>
</defs>
<polyline clip-path="url(#clip812)" style="stroke:#000000; stroke-linecap:round; stroke-linejoin:round; stroke-width:2; stroke-opacity:0.1; fill:none" points="218.439,1486.45 218.439,47.2441 "/>
<polyline clip-path="url(#clip812)" style="stroke:#000000; stroke-linecap:round; stroke-linejoin:round; stroke-width:2; stroke-opacity:0.1; fill:none" points="736.477,1486.45 736.477,47.2441 "/>
<polyline clip-path="url(#clip812)" style="stroke:#000000; stroke-linecap:round; stroke-linejoin:round; stroke-width:2; stroke-opacity:0.1; fill:none" points="1254.52,1486.45 1254.52,47.2441 "/>
<polyline clip-path="url(#clip812)" style="stroke:#000000; stroke-linecap:round; stroke-linejoin:round; stroke-width:2; stroke-opacity:0.1; fill:none" points="1772.55,1486.45 1772.55,47.2441 "/>
<polyline clip-path="url(#clip812)" style="stroke:#000000; stroke-linecap:round; stroke-linejoin:round; stroke-width:2; stroke-opacity:0.1; fill:none" points="2290.59,1486.45 2290.59,47.2441 "/>
<polyline clip-path="url(#clip810)" style="stroke:#000000; stroke-linecap:round; stroke-linejoin:round; stroke-width:4; stroke-opacity:1; fill:none" points="156.274,1486.45 2352.76,1486.45 "/>
<polyline clip-path="url(#clip810)" style="stroke:#000000; stroke-linecap:round; stroke-linejoin:round; stroke-width:4; stroke-opacity:1; fill:none" points="218.439,1486.45 218.439,1467.55 "/>
<polyline clip-path="url(#clip810)" style="stroke:#000000; stroke-linecap:round; stroke-linejoin:round; stroke-width:4; stroke-opacity:1; fill:none" points="736.477,1486.45 736.477,1467.55 "/>
<polyline clip-path="url(#clip810)" style="stroke:#000000; stroke-linecap:round; stroke-linejoin:round; stroke-width:4; stroke-opacity:1; fill:none" points="1254.52,1486.45 1254.52,1467.55 "/>
<polyline clip-path="url(#clip810)" style="stroke:#000000; stroke-linecap:round; stroke-linejoin:round; stroke-width:4; stroke-opacity:1; fill:none" points="1772.55,1486.45 1772.55,1467.55 "/>
<polyline clip-path="url(#clip810)" style="stroke:#000000; stroke-linecap:round; stroke-linejoin:round; stroke-width:4; stroke-opacity:1; fill:none" points="2290.59,1486.45 2290.59,1467.55 "/>
<path clip-path="url(#clip810)" d="M164.967 1532.02 L194.643 1532.02 L194.643 1535.95 L164.967 1535.95 L164.967 1532.02 Z" fill="#000000" fill-rule="nonzero" fill-opacity="1" /><path clip-path="url(#clip810)" d="M205.545 1544.91 L213.184 1544.91 L213.184 1518.55 L204.874 1520.21 L204.874 1515.95 L213.138 1514.29 L217.814 1514.29 L217.814 1544.91 L225.453 1544.91 L225.453 1548.85 L205.545 1548.85 L205.545 1544.91 Z" fill="#000000" fill-rule="nonzero" fill-opacity="1" /><path clip-path="url(#clip810)" d="M234.897 1542.97 L239.781 1542.97 L239.781 1548.85 L234.897 1548.85 L234.897 1542.97 Z" fill="#000000" fill-rule="nonzero" fill-opacity="1" /><path clip-path="url(#clip810)" d="M259.966 1517.37 Q256.355 1517.37 254.527 1520.93 Q252.721 1524.47 252.721 1531.6 Q252.721 1538.71 254.527 1542.27 Q256.355 1545.82 259.966 1545.82 Q263.601 1545.82 265.406 1542.27 Q267.235 1538.71 267.235 1531.6 Q267.235 1524.47 265.406 1520.93 Q263.601 1517.37 259.966 1517.37 M259.966 1513.66 Q265.776 1513.66 268.832 1518.27 Q271.911 1522.85 271.911 1531.6 Q271.911 1540.33 268.832 1544.94 Q265.776 1549.52 259.966 1549.52 Q254.156 1549.52 251.077 1544.94 Q248.022 1540.33 248.022 1531.6 Q248.022 1522.85 251.077 1518.27 Q254.156 1513.66 259.966 1513.66 Z" fill="#000000" fill-rule="nonzero" fill-opacity="1" /><path clip-path="url(#clip810)" d="M683.503 1532.02 L713.178 1532.02 L713.178 1535.95 L683.503 1535.95 L683.503 1532.02 Z" fill="#000000" fill-rule="nonzero" fill-opacity="1" /><path clip-path="url(#clip810)" d="M733.271 1517.37 Q729.66 1517.37 727.831 1520.93 Q726.026 1524.47 726.026 1531.6 Q726.026 1538.71 727.831 1542.27 Q729.66 1545.82 733.271 1545.82 Q736.905 1545.82 738.711 1542.27 Q740.539 1538.71 740.539 1531.6 Q740.539 1524.47 738.711 1520.93 Q736.905 1517.37 733.271 1517.37 M733.271 1513.66 Q739.081 1513.66 742.137 1518.27 Q745.215 1522.85 745.215 1531.6 Q745.215 1540.33 742.137 1544.94 Q739.081 1549.52 733.271 1549.52 Q727.461 1549.52 724.382 1544.94 Q721.327 1540.33 721.327 1531.6 Q721.327 1522.85 724.382 1518.27 Q727.461 1513.66 733.271 1513.66 Z" fill="#000000" fill-rule="nonzero" fill-opacity="1" /><path clip-path="url(#clip810)" d="M753.433 1542.97 L758.317 1542.97 L758.317 1548.85 L753.433 1548.85 L753.433 1542.97 Z" fill="#000000" fill-rule="nonzero" fill-opacity="1" /><path clip-path="url(#clip810)" d="M768.548 1514.29 L786.905 1514.29 L786.905 1518.22 L772.831 1518.22 L772.831 1526.7 Q773.849 1526.35 774.868 1526.19 Q775.886 1526 776.905 1526 Q782.692 1526 786.072 1529.17 Q789.451 1532.34 789.451 1537.76 Q789.451 1543.34 785.979 1546.44 Q782.507 1549.52 776.187 1549.52 Q774.011 1549.52 771.743 1549.15 Q769.498 1548.78 767.09 1548.04 L767.09 1543.34 Q769.173 1544.47 771.396 1545.03 Q773.618 1545.58 776.095 1545.58 Q780.099 1545.58 782.437 1543.48 Q784.775 1541.37 784.775 1537.76 Q784.775 1534.15 782.437 1532.04 Q780.099 1529.94 776.095 1529.94 Q774.22 1529.94 772.345 1530.35 Q770.493 1530.77 768.548 1531.65 L768.548 1514.29 Z" fill="#000000" fill-rule="nonzero" fill-opacity="1" /><path clip-path="url(#clip810)" d="M1231.9 1517.37 Q1228.29 1517.37 1226.46 1520.93 Q1224.65 1524.47 1224.65 1531.6 Q1224.65 1538.71 1226.46 1542.27 Q1228.29 1545.82 1231.9 1545.82 Q1235.53 1545.82 1237.34 1542.27 Q1239.17 1538.71 1239.17 1531.6 Q1239.17 1524.47 1237.34 1520.93 Q1235.53 1517.37 1231.9 1517.37 M1231.9 1513.66 Q1237.71 1513.66 1240.77 1518.27 Q1243.84 1522.85 1243.84 1531.6 Q1243.84 1540.33 1240.77 1544.94 Q1237.71 1549.52 1231.9 1549.52 Q1226.09 1549.52 1223.01 1544.94 Q1219.96 1540.33 1219.96 1531.6 Q1219.96 1522.85 1223.01 1518.27 Q1226.09 1513.66 1231.9 1513.66 Z" fill="#000000" fill-rule="nonzero" fill-opacity="1" /><path clip-path="url(#clip810)" d="M1252.06 1542.97 L1256.95 1542.97 L1256.95 1548.85 L1252.06 1548.85 L1252.06 1542.97 Z" fill="#000000" fill-rule="nonzero" fill-opacity="1" /><path clip-path="url(#clip810)" d="M1277.13 1517.37 Q1273.52 1517.37 1271.69 1520.93 Q1269.89 1524.47 1269.89 1531.6 Q1269.89 1538.71 1271.69 1542.27 Q1273.52 1545.82 1277.13 1545.82 Q1280.76 1545.82 1282.57 1542.27 Q1284.4 1538.71 1284.4 1531.6 Q1284.4 1524.47 1282.57 1520.93 Q1280.76 1517.37 1277.13 1517.37 M1277.13 1513.66 Q1282.94 1513.66 1286 1518.27 Q1289.08 1522.85 1289.08 1531.6 Q1289.08 1540.33 1286 1544.94 Q1282.94 1549.52 1277.13 1549.52 Q1271.32 1549.52 1268.24 1544.94 Q1265.19 1540.33 1265.19 1531.6 Q1265.19 1522.85 1268.24 1518.27 Q1271.32 1513.66 1277.13 1513.66 Z" fill="#000000" fill-rule="nonzero" fill-opacity="1" /><path clip-path="url(#clip810)" d="M1750.44 1517.37 Q1746.82 1517.37 1745 1520.93 Q1743.19 1524.47 1743.19 1531.6 Q1743.19 1538.71 1745 1542.27 Q1746.82 1545.82 1750.44 1545.82 Q1754.07 1545.82 1755.88 1542.27 Q1757.7 1538.71 1757.7 1531.6 Q1757.7 1524.47 1755.88 1520.93 Q1754.07 1517.37 1750.44 1517.37 M1750.44 1513.66 Q1756.25 1513.66 1759.3 1518.27 Q1762.38 1522.85 1762.38 1531.6 Q1762.38 1540.33 1759.3 1544.94 Q1756.25 1549.52 1750.44 1549.52 Q1744.63 1549.52 1741.55 1544.94 Q1738.49 1540.33 1738.49 1531.6 Q1738.49 1522.85 1741.55 1518.27 Q1744.63 1513.66 1750.44 1513.66 Z" fill="#000000" fill-rule="nonzero" fill-opacity="1" /><path clip-path="url(#clip810)" d="M1770.6 1542.97 L1775.48 1542.97 L1775.48 1548.85 L1770.6 1548.85 L1770.6 1542.97 Z" fill="#000000" fill-rule="nonzero" fill-opacity="1" /><path clip-path="url(#clip810)" d="M1785.71 1514.29 L1804.07 1514.29 L1804.07 1518.22 L1790 1518.22 L1790 1526.7 Q1791.01 1526.35 1792.03 1526.19 Q1793.05 1526 1794.07 1526 Q1799.86 1526 1803.24 1529.17 Q1806.62 1532.34 1806.62 1537.76 Q1806.62 1543.34 1803.14 1546.44 Q1799.67 1549.52 1793.35 1549.52 Q1791.18 1549.52 1788.91 1549.15 Q1786.66 1548.78 1784.25 1548.04 L1784.25 1543.34 Q1786.34 1544.47 1788.56 1545.03 Q1790.78 1545.58 1793.26 1545.58 Q1797.26 1545.58 1799.6 1543.48 Q1801.94 1541.37 1801.94 1537.76 Q1801.94 1534.15 1799.6 1532.04 Q1797.26 1529.94 1793.26 1529.94 Q1791.38 1529.94 1789.51 1530.35 Q1787.66 1530.77 1785.71 1531.65 L1785.71 1514.29 Z" fill="#000000" fill-rule="nonzero" fill-opacity="1" /><path clip-path="url(#clip810)" d="M2257.74 1544.91 L2265.38 1544.91 L2265.38 1518.55 L2257.07 1520.21 L2257.07 1515.95 L2265.34 1514.29 L2270.01 1514.29 L2270.01 1544.91 L2277.65 1544.91 L2277.65 1548.85 L2257.74 1548.85 L2257.74 1544.91 Z" fill="#000000" fill-rule="nonzero" fill-opacity="1" /><path clip-path="url(#clip810)" d="M2287.1 1542.97 L2291.98 1542.97 L2291.98 1548.85 L2287.1 1548.85 L2287.1 1542.97 Z" fill="#000000" fill-rule="nonzero" fill-opacity="1" /><path clip-path="url(#clip810)" d="M2312.17 1517.37 Q2308.55 1517.37 2306.73 1520.93 Q2304.92 1524.47 2304.92 1531.6 Q2304.92 1538.71 2306.73 1542.27 Q2308.55 1545.82 2312.17 1545.82 Q2315.8 1545.82 2317.61 1542.27 Q2319.43 1538.71 2319.43 1531.6 Q2319.43 1524.47 2317.61 1520.93 Q2315.8 1517.37 2312.17 1517.37 M2312.17 1513.66 Q2317.98 1513.66 2321.03 1518.27 Q2324.11 1522.85 2324.11 1531.6 Q2324.11 1540.33 2321.03 1544.94 Q2317.98 1549.52 2312.17 1549.52 Q2306.36 1549.52 2303.28 1544.94 Q2300.22 1540.33 2300.22 1531.6 Q2300.22 1522.85 2303.28 1518.27 Q2306.36 1513.66 2312.17 1513.66 Z" fill="#000000" fill-rule="nonzero" fill-opacity="1" /><polyline clip-path="url(#clip812)" style="stroke:#000000; stroke-linecap:round; stroke-linejoin:round; stroke-width:2; stroke-opacity:0.1; fill:none" points="156.274,1234.5 2352.76,1234.5 "/>
<polyline clip-path="url(#clip812)" style="stroke:#000000; stroke-linecap:round; stroke-linejoin:round; stroke-width:2; stroke-opacity:0.1; fill:none" points="156.274,965.433 2352.76,965.433 "/>
<polyline clip-path="url(#clip812)" style="stroke:#000000; stroke-linecap:round; stroke-linejoin:round; stroke-width:2; stroke-opacity:0.1; fill:none" points="156.274,696.361 2352.76,696.361 "/>
<polyline clip-path="url(#clip812)" style="stroke:#000000; stroke-linecap:round; stroke-linejoin:round; stroke-width:2; stroke-opacity:0.1; fill:none" points="156.274,427.289 2352.76,427.289 "/>
<polyline clip-path="url(#clip812)" style="stroke:#000000; stroke-linecap:round; stroke-linejoin:round; stroke-width:2; stroke-opacity:0.1; fill:none" points="156.274,158.217 2352.76,158.217 "/>
<polyline clip-path="url(#clip810)" style="stroke:#000000; stroke-linecap:round; stroke-linejoin:round; stroke-width:4; stroke-opacity:1; fill:none" points="156.274,1486.45 156.274,47.2441 "/>
<polyline clip-path="url(#clip810)" style="stroke:#000000; stroke-linecap:round; stroke-linejoin:round; stroke-width:4; stroke-opacity:1; fill:none" points="156.274,1234.5 175.172,1234.5 "/>
<polyline clip-path="url(#clip810)" style="stroke:#000000; stroke-linecap:round; stroke-linejoin:round; stroke-width:4; stroke-opacity:1; fill:none" points="156.274,965.433 175.172,965.433 "/>
<polyline clip-path="url(#clip810)" style="stroke:#000000; stroke-linecap:round; stroke-linejoin:round; stroke-width:4; stroke-opacity:1; fill:none" points="156.274,696.361 175.172,696.361 "/>
<polyline clip-path="url(#clip810)" style="stroke:#000000; stroke-linecap:round; stroke-linejoin:round; stroke-width:4; stroke-opacity:1; fill:none" points="156.274,427.289 175.172,427.289 "/>
<polyline clip-path="url(#clip810)" style="stroke:#000000; stroke-linecap:round; stroke-linejoin:round; stroke-width:4; stroke-opacity:1; fill:none" points="156.274,158.217 175.172,158.217 "/>
<path clip-path="url(#clip810)" d="M63.0985 1220.3 Q59.4875 1220.3 57.6588 1223.87 Q55.8532 1227.41 55.8532 1234.54 Q55.8532 1241.65 57.6588 1245.21 Q59.4875 1248.75 63.0985 1248.75 Q66.7328 1248.75 68.5383 1245.21 Q70.367 1241.65 70.367 1234.54 Q70.367 1227.41 68.5383 1223.87 Q66.7328 1220.3 63.0985 1220.3 M63.0985 1216.6 Q68.9087 1216.6 71.9642 1221.21 Q75.0429 1225.79 75.0429 1234.54 Q75.0429 1243.27 71.9642 1247.87 Q68.9087 1252.46 63.0985 1252.46 Q57.2884 1252.46 54.2097 1247.87 Q51.1542 1243.27 51.1542 1234.54 Q51.1542 1225.79 54.2097 1221.21 Q57.2884 1216.6 63.0985 1216.6 Z" fill="#000000" fill-rule="nonzero" fill-opacity="1" /><path clip-path="url(#clip810)" d="M83.2605 1245.9 L88.1447 1245.9 L88.1447 1251.78 L83.2605 1251.78 L83.2605 1245.9 Z" fill="#000000" fill-rule="nonzero" fill-opacity="1" /><path clip-path="url(#clip810)" d="M108.33 1220.3 Q104.719 1220.3 102.89 1223.87 Q101.084 1227.41 101.084 1234.54 Q101.084 1241.65 102.89 1245.21 Q104.719 1248.75 108.33 1248.75 Q111.964 1248.75 113.77 1245.21 Q115.598 1241.65 115.598 1234.54 Q115.598 1227.41 113.77 1223.87 Q111.964 1220.3 108.33 1220.3 M108.33 1216.6 Q114.14 1216.6 117.195 1221.21 Q120.274 1225.79 120.274 1234.54 Q120.274 1243.27 117.195 1247.87 Q114.14 1252.46 108.33 1252.46 Q102.52 1252.46 99.4409 1247.87 Q96.3854 1243.27 96.3854 1234.54 Q96.3854 1225.79 99.4409 1221.21 Q102.52 1216.6 108.33 1216.6 Z" fill="#000000" fill-rule="nonzero" fill-opacity="1" /><path clip-path="url(#clip810)" d="M63.7467 951.231 Q60.1356 951.231 58.3069 954.796 Q56.5014 958.338 56.5014 965.468 Q56.5014 972.574 58.3069 976.139 Q60.1356 979.68 63.7467 979.68 Q67.3809 979.68 69.1865 976.139 Q71.0152 972.574 71.0152 965.468 Q71.0152 958.338 69.1865 954.796 Q67.3809 951.231 63.7467 951.231 M63.7467 947.528 Q69.5568 947.528 72.6124 952.134 Q75.6911 956.718 75.6911 965.468 Q75.6911 974.194 72.6124 978.801 Q69.5568 983.384 63.7467 983.384 Q57.9365 983.384 54.8578 978.801 Q51.8023 974.194 51.8023 965.468 Q51.8023 956.718 54.8578 952.134 Q57.9365 947.528 63.7467 947.528 Z" fill="#000000" fill-rule="nonzero" fill-opacity="1" /><path clip-path="url(#clip810)" d="M83.9086 976.833 L88.7928 976.833 L88.7928 982.713 L83.9086 982.713 L83.9086 976.833 Z" fill="#000000" fill-rule="nonzero" fill-opacity="1" /><path clip-path="url(#clip810)" d="M113.145 964.079 Q116.501 964.796 118.376 967.065 Q120.274 969.333 120.274 972.667 Q120.274 977.782 116.756 980.583 Q113.237 983.384 106.756 983.384 Q104.58 983.384 102.265 982.944 Q99.9733 982.528 97.5197 981.671 L97.5197 977.157 Q99.4641 978.292 101.779 978.87 Q104.094 979.449 106.617 979.449 Q111.015 979.449 113.307 977.713 Q115.621 975.977 115.621 972.667 Q115.621 969.611 113.469 967.898 Q111.339 966.162 107.52 966.162 L103.492 966.162 L103.492 962.319 L107.705 962.319 Q111.154 962.319 112.983 960.954 Q114.811 959.565 114.811 956.972 Q114.811 954.31 112.913 952.898 Q111.038 951.463 107.52 951.463 Q105.598 951.463 103.399 951.88 Q101.2 952.296 98.5613 953.176 L98.5613 949.009 Q101.223 948.269 103.538 947.898 Q105.876 947.528 107.936 947.528 Q113.26 947.528 116.362 949.958 Q119.464 952.366 119.464 956.486 Q119.464 959.356 117.82 961.347 Q116.177 963.315 113.145 964.079 Z" fill="#000000" fill-rule="nonzero" fill-opacity="1" /><path clip-path="url(#clip810)" d="M62.9365 682.16 Q59.3254 682.16 57.4967 685.724 Q55.6912 689.266 55.6912 696.396 Q55.6912 703.502 57.4967 707.067 Q59.3254 710.609 62.9365 710.609 Q66.5707 710.609 68.3763 707.067 Q70.205 703.502 70.205 696.396 Q70.205 689.266 68.3763 685.724 Q66.5707 682.16 62.9365 682.16 M62.9365 678.456 Q68.7467 678.456 71.8022 683.062 Q74.8809 687.646 74.8809 696.396 Q74.8809 705.123 71.8022 709.729 Q68.7467 714.312 62.9365 714.312 Q57.1264 714.312 54.0477 709.729 Q50.9921 705.123 50.9921 696.396 Q50.9921 687.646 54.0477 683.062 Q57.1264 678.456 62.9365 678.456 Z" fill="#000000" fill-rule="nonzero" fill-opacity="1" /><path clip-path="url(#clip810)" d="M83.0984 707.761 L87.9827 707.761 L87.9827 713.641 L83.0984 713.641 L83.0984 707.761 Z" fill="#000000" fill-rule="nonzero" fill-opacity="1" /><path clip-path="url(#clip810)" d="M108.746 694.498 Q105.598 694.498 103.746 696.65 Q101.918 698.803 101.918 702.553 Q101.918 706.28 103.746 708.456 Q105.598 710.609 108.746 710.609 Q111.895 710.609 113.723 708.456 Q115.575 706.28 115.575 702.553 Q115.575 698.803 113.723 696.65 Q111.895 694.498 108.746 694.498 M118.029 679.845 L118.029 684.104 Q116.27 683.271 114.464 682.831 Q112.682 682.391 110.922 682.391 Q106.293 682.391 103.839 685.516 Q101.409 688.641 101.061 694.961 Q102.427 692.947 104.487 691.882 Q106.547 690.794 109.024 690.794 Q114.233 690.794 117.242 693.965 Q120.274 697.113 120.274 702.553 Q120.274 707.877 117.126 711.095 Q113.978 714.312 108.746 714.312 Q102.751 714.312 99.5798 709.729 Q96.4085 705.123 96.4085 696.396 Q96.4085 688.201 100.297 683.34 Q104.186 678.456 110.737 678.456 Q112.496 678.456 114.279 678.803 Q116.084 679.15 118.029 679.845 Z" fill="#000000" fill-rule="nonzero" fill-opacity="1" /><path clip-path="url(#clip810)" d="M63.2837 413.088 Q59.6726 413.088 57.8439 416.653 Q56.0384 420.194 56.0384 427.324 Q56.0384 434.43 57.8439 437.995 Q59.6726 441.537 63.2837 441.537 Q66.918 441.537 68.7235 437.995 Q70.5522 434.43 70.5522 427.324 Q70.5522 420.194 68.7235 416.653 Q66.918 413.088 63.2837 413.088 M63.2837 409.384 Q69.0939 409.384 72.1494 413.991 Q75.2281 418.574 75.2281 427.324 Q75.2281 436.051 72.1494 440.657 Q69.0939 445.24 63.2837 445.24 Q57.4736 445.24 54.3949 440.657 Q51.3393 436.051 51.3393 427.324 Q51.3393 418.574 54.3949 413.991 Q57.4736 409.384 63.2837 409.384 Z" fill="#000000" fill-rule="nonzero" fill-opacity="1" /><path clip-path="url(#clip810)" d="M83.4457 438.69 L88.3299 438.69 L88.3299 444.569 L83.4457 444.569 L83.4457 438.69 Z" fill="#000000" fill-rule="nonzero" fill-opacity="1" /><path clip-path="url(#clip810)" d="M98.6539 443.852 L98.6539 439.592 Q100.413 440.426 102.219 440.866 Q104.024 441.305 105.76 441.305 Q110.39 441.305 112.82 438.203 Q115.274 435.079 115.621 428.736 Q114.279 430.727 112.219 431.791 Q110.158 432.856 107.658 432.856 Q102.473 432.856 99.4409 429.731 Q96.4317 426.583 96.4317 421.143 Q96.4317 415.819 99.5798 412.602 Q102.728 409.384 107.959 409.384 Q113.955 409.384 117.103 413.991 Q120.274 418.574 120.274 427.324 Q120.274 435.495 116.385 440.379 Q112.52 445.24 105.969 445.24 Q104.209 445.24 102.404 444.893 Q100.598 444.546 98.6539 443.852 M107.959 429.199 Q111.108 429.199 112.936 427.046 Q114.788 424.893 114.788 421.143 Q114.788 417.417 112.936 415.264 Q111.108 413.088 107.959 413.088 Q104.811 413.088 102.959 415.264 Q101.131 417.417 101.131 421.143 Q101.131 424.893 102.959 427.046 Q104.811 429.199 107.959 429.199 Z" fill="#000000" fill-rule="nonzero" fill-opacity="1" /><path clip-path="url(#clip810)" d="M55.506 171.562 L63.1448 171.562 L63.1448 145.197 L54.8347 146.863 L54.8347 142.604 L63.0985 140.937 L67.7744 140.937 L67.7744 171.562 L75.4133 171.562 L75.4133 175.497 L55.506 175.497 L55.506 171.562 Z" fill="#000000" fill-rule="nonzero" fill-opacity="1" /><path clip-path="url(#clip810)" d="M84.8577 169.618 L89.7419 169.618 L89.7419 175.497 L84.8577 175.497 L84.8577 169.618 Z" fill="#000000" fill-rule="nonzero" fill-opacity="1" /><path clip-path="url(#clip810)" d="M103.955 171.562 L120.274 171.562 L120.274 175.497 L98.3298 175.497 L98.3298 171.562 Q100.992 168.808 105.575 164.178 Q110.182 159.525 111.362 158.183 Q113.608 155.66 114.487 153.923 Q115.39 152.164 115.39 150.474 Q115.39 147.72 113.445 145.984 Q111.524 144.248 108.422 144.248 Q106.223 144.248 103.77 145.011 Q101.339 145.775 98.5613 147.326 L98.5613 142.604 Q101.385 141.47 103.839 140.891 Q106.293 140.312 108.33 140.312 Q113.7 140.312 116.895 142.998 Q120.089 145.683 120.089 150.173 Q120.089 152.303 119.279 154.224 Q118.492 156.123 116.385 158.715 Q115.807 159.386 112.705 162.604 Q109.603 165.798 103.955 171.562 Z" fill="#000000" fill-rule="nonzero" fill-opacity="1" /><polyline clip-path="url(#clip812)" style="stroke:#009af9; stroke-linecap:round; stroke-linejoin:round; stroke-width:16; stroke-opacity:1; fill:none" stroke-dasharray="8, 16" points="218.439,1099.86 228.852,1094.1 239.264,1080.57 249.677,1065.63 260.09,1055.5 270.503,1054.35 280.916,1062.94 291.329,1079.22 301.741,1100.41 312.154,1124.77 322.567,1151.78 332.98,1181.3 343.393,1212.8 353.805,1245.23 364.218,1277.35 374.631,1308.02 385.044,1336.28 395.457,1361.32 405.87,1382.28 416.282,1398.26 426.695,1408.57 437.108,1412.96 447.521,1411.67 457.934,1405.19 468.347,1393.7 478.759,1376.92 489.172,1354.69 499.585,1327.89 509.998,1298.64 520.411,1268.75 530.824,1238.34 541.236,1206.43 551.649,1173.23 562.062,1141.15 572.475,1113.38 582.888,1091.74 593.301,1076.02 603.713,1064.99 614.126,1058.01 624.539,1055.64 634.952,1059.06 645.365,1069.04 655.777,1085.34 666.19,1106.89 676.603,1132.25 687.016,1160.15 697.429,1189.78 707.842,1220.67 718.254,1252.39 728.667,1284.23 739.08,1314.99 749.493,1343.24 759.906,1367.69 770.319,1387.49 780.731,1402.17 791.144,1411.29 801.557,1414.27 811.97,1410.73 822.383,1401.03 832.796,1386.34 843.208,1368 853.621,1346.67 864.034,1322.03 874.447,1293.61 884.86,1261.84 895.273,1228.32 905.685,1195.01 916.098,1163.29 926.511,1133.93 936.924,1107.66 947.337,1085.57 957.749,1068.99 968.162,1058.93 978.575,1055.65 988.988,1058.63 999.401,1066.87 1009.81,1079.33 1020.23,1095.18 1030.64,1114.02 1041.05,1135.77 1051.46,1160.65 1061.88,1188.9 1072.29,1220.63 1082.7,1255.47 1093.12,1292.3 1103.53,1328.97 1113.94,1362.25 1124.35,1388.2 1134.77,1403.22 1145.18,1405.63 1155.59,1397.44 1166.01,1385.14 1176.42,1378.51 1186.83,1386.77 1197.24,1412.3 1207.66,1442.9 1218.07,1445.72 1228.48,1372 1238.9,1184.93 1249.31,902.789 1259.72,609.474 1270.13,398.284 1280.55,304.023 1290.96,296.943 1301.37,325.192 1311.79,350.447 1322.2,357.27 1332.61,347.2 1343.02,329.62 1353.44,314.478 1363.85,308.136 1374.26,312.177 1384.68,324.307 1395.09,340.18 1405.5,355.176 1415.91,365.611 1426.33,369.301 1436.74,365.643 1447.15,355.435 1457.57,340.603 1467.98,323.916 1478.39,308.695 1488.8,298.436 1499.22,296.271 1509.63,304.217 1520.04,322.293 1530.45,347.786 1540.87,375.097 1551.28,396.631 1561.69,404.759 1572.11,394.384 1582.52,365.173 1592.93,322.68 1603.34,278.019 1613.76,245.71 1624.17,239.355 1634.58,265.673 1645,319.632 1655.41,384.511 1665.82,438.029 1676.23,461.192 1686.65,445.074 1697.06,393.525 1707.47,322.212 1717.89,254.282 1728.3,212.564 1738.71,210.637 1749.12,247.502 1759.54,309.226 1769.95,375.943 1780.36,429.455 1790.78,457.73 1801.19,455.878 1811.6,425.205 1822.01,372.045 1832.43,307.091 1842.84,244.819 1853.25,201.871 1863.67,193.287 1874.08,226.814 1884.49,297.648 1894.9,387.271 1905.32,468.471 1915.73,514.607 1926.14,508.692 1936.56,449.019 1946.97,350.74 1957.38,243.186 1967.79,161.647 1978.21,134.187 1988.62,169.615 1999.03,254.621 2009.45,361.502 2019.86,459.766 2030.27,524.55 2040.68,540.219 2051.1,501.655 2061.51,415.549 2071.92,301.535 2082.33,190.601 2092.75,117.88 2103.16,110.042 2113.57,172.891 2123.99,287.256 2134.4,416.657 2144.81,521.756 2155.22,573.096 2165.64,557.477 2176.05,479.134 2186.46,358.771 2196.88,230.891 2207.29,135.891 2217.7,104.68 2228.11,143.165 2238.53,230.386 2248.94,333.2 2259.35,424.289 2269.77,490.79 2280.18,533.255 2290.59,560.751 "/>
<polyline clip-path="url(#clip812)" style="stroke:#e26f46; stroke-linecap:round; stroke-linejoin:round; stroke-width:4; stroke-opacity:1; fill:none" points="218.439,1099.79 228.852,1080.68 239.264,1066.59 249.677,1057.97 260.09,1055.12 270.503,1058.13 280.916,1066.89 291.329,1081.12 301.741,1100.36 312.154,1123.97 322.567,1151.19 332.98,1181.14 343.393,1212.82 353.805,1245.21 364.218,1277.25 374.631,1307.9 385.044,1336.15 395.457,1361.08 405.87,1381.89 416.282,1397.88 426.695,1408.54 437.108,1413.52 447.521,1412.66 457.934,1405.98 468.347,1393.71 478.759,1376.24 489.172,1354.14 499.585,1328.14 509.998,1299.09 520.411,1267.92 530.824,1235.67 541.236,1203.38 551.649,1172.1 562.062,1142.86 572.475,1116.61 582.888,1094.21 593.301,1076.39 603.713,1063.73 614.126,1056.64 624.539,1055.36 634.952,1059.92 645.365,1070.18 655.777,1085.81 666.19,1106.28 676.603,1130.95 687.016,1158.99 697.429,1189.5 707.842,1221.47 718.254,1253.87 728.667,1285.64 739.08,1315.74 749.493,1343.19 759.906,1367.09 770.319,1386.67 780.731,1401.28 791.144,1410.44 801.557,1413.86 811.97,1411.43 822.383,1403.23 832.796,1389.52 843.208,1370.74 853.621,1347.53 864.034,1320.62 874.447,1290.9 884.86,1259.35 895.273,1226.98 905.685,1194.85 916.098,1164.02 926.511,1135.5 936.924,1110.2 947.337,1088.96 957.749,1072.47 968.162,1061.27 978.575,1055.72 988.988,1056.01 999.401,1062.12 1009.81,1073.86 1020.23,1090.84 1030.64,1112.51 1041.05,1138.17 1051.46,1166.96 1061.88,1197.96 1072.29,1230.16 1082.7,1262.49 1093.12,1293.92 1103.53,1323.4 1113.94,1349.98 1124.35,1372.79 1134.77,1391.09 1145.18,1404.28 1155.59,1411.93 1166.01,1413.79 1176.42,1409.79 1186.83,1400.08 1197.24,1384.96 1207.66,1364.93 1218.07,1340.64 1228.48,1312.89 1238.9,1282.59 1249.31,1250.71 1259.72,336.296 1270.13,334.814 1280.55,336.163 1290.96,340.654 1301.37,346.911 1311.79,352.29 1322.2,353.883 1332.61,349.744 1343.02,339.878 1353.44,326.577 1363.85,313.921 1374.26,306.527 1384.68,307.946 1395.09,319.227 1405.5,338.201 1415.91,359.795 1426.33,377.38 1436.74,384.798 1447.15,378.448 1457.57,358.747 1467.98,330.409 1478.39,301.368 1488.8,280.554 1499.22,275.162 1509.63,288.233 1520.04,317.354 1530.45,354.963 1540.87,390.292 1551.28,412.449 1561.69,413.761 1572.11,392.355 1582.52,353.124 1592.93,306.685 1603.34,266.515 1613.76,245.041 1624.17,249.816 1634.58,280.948 1645,330.648 1655.41,385.132 1665.82,428.441 1676.23,447.113 1686.65,434.345 1697.06,392.358 1707.47,332.178 1717.89,270.766 1728.3,226.237 1738.71,212.524 1749.12,235.042 1759.54,288.715 1769.95,359.028 1780.36,425.94 1790.78,469.595 1801.19,476.207 1811.6,442.382 1822.01,376.518 1832.43,296.775 1842.84,226.076 1853.25,185.518 1863.67,188.082 1874.08,234.526 1884.49,312.737 1894.9,400.853 1905.32,473.374 1915.73,508.54 1926.14,494.846 1936.56,434.754 1946.97,344.406 1957.38,249.311 1967.79,177.142 1978.21,149.69 1988.62,176.293 1999.03,250.741 2009.45,352.646 2019.86,453.011 2030.27,522.484 2040.68,539.934 2051.1,498.863 2061.51,409.698 2071.92,297.191 2082.33,193.554 2092.75,129.239 2103.16,123.993 2113.57,180.82 2123.99,284.69 2134.4,406.48 2144.81,511.139 2155.22,567.771 2165.64,558.754 2176.05,485.189 2186.46,367.01 2196.88,237.607 2207.29,134.389 2217.7,87.9763 2228.11,113.12 2238.53,204.059 2248.94,335.757 2259.35,470.776 2269.77,569.926 2280.18,603.63 2290.59,560.742 "/>
<path clip-path="url(#clip810)" d="M229.49 250.738 L675.966 250.738 L675.966 95.2176 L229.49 95.2176  Z" fill="#ffffff" fill-rule="evenodd" fill-opacity="1"/>
<polyline clip-path="url(#clip810)" style="stroke:#000000; stroke-linecap:round; stroke-linejoin:round; stroke-width:4; stroke-opacity:1; fill:none" points="229.49,250.738 675.966,250.738 675.966,95.2176 229.49,95.2176 229.49,250.738 "/>
<polyline clip-path="url(#clip810)" style="stroke:#009af9; stroke-linecap:round; stroke-linejoin:round; stroke-width:16; stroke-opacity:1; fill:none" stroke-dasharray="8, 16" points="253.896,147.058 400.328,147.058 "/>
<path clip-path="url(#clip810)" d="M429.409 133.62 L429.409 146.606 L435.289 146.606 Q438.552 146.606 440.335 144.916 Q442.117 143.227 442.117 140.102 Q442.117 137 440.335 135.31 Q438.552 133.62 435.289 133.62 L429.409 133.62 M424.733 129.778 L435.289 129.778 Q441.099 129.778 444.062 132.416 Q447.048 135.032 447.048 140.102 Q447.048 145.217 444.062 147.833 Q441.099 150.449 435.289 150.449 L429.409 150.449 L429.409 164.338 L424.733 164.338 L424.733 129.778 Z" fill="#000000" fill-rule="nonzero" fill-opacity="1" /><path clip-path="url(#clip810)" d="M467.325 142.393 Q466.608 141.977 465.751 141.791 Q464.918 141.583 463.899 141.583 Q460.288 141.583 458.344 143.944 Q456.423 146.282 456.423 150.68 L456.423 164.338 L452.14 164.338 L452.14 138.412 L456.423 138.412 L456.423 142.44 Q457.765 140.078 459.918 138.944 Q462.071 137.787 465.149 137.787 Q465.589 137.787 466.122 137.856 Q466.654 137.903 467.302 138.018 L467.325 142.393 Z" fill="#000000" fill-rule="nonzero" fill-opacity="1" /><path clip-path="url(#clip810)" d="M492.927 150.31 L492.927 152.393 L473.344 152.393 Q473.622 156.791 475.983 159.106 Q478.367 161.398 482.603 161.398 Q485.057 161.398 487.348 160.796 Q489.663 160.194 491.932 158.99 L491.932 163.018 Q489.64 163.99 487.233 164.5 Q484.825 165.009 482.348 165.009 Q476.145 165.009 472.511 161.398 Q468.899 157.787 468.899 151.629 Q468.899 145.264 472.325 141.537 Q475.774 137.787 481.608 137.787 Q486.839 137.787 489.872 141.166 Q492.927 144.523 492.927 150.31 M488.668 149.06 Q488.622 145.565 486.7 143.481 Q484.802 141.398 481.654 141.398 Q478.089 141.398 475.936 143.412 Q473.807 145.426 473.483 149.083 L488.668 149.06 Z" fill="#000000" fill-rule="nonzero" fill-opacity="1" /><path clip-path="url(#clip810)" d="M516.978 142.347 L516.978 128.319 L521.237 128.319 L521.237 164.338 L516.978 164.338 L516.978 160.449 Q515.635 162.763 513.575 163.898 Q511.538 165.009 508.668 165.009 Q503.969 165.009 501.006 161.259 Q498.066 157.509 498.066 151.398 Q498.066 145.287 501.006 141.537 Q503.969 137.787 508.668 137.787 Q511.538 137.787 513.575 138.921 Q515.635 140.032 516.978 142.347 M502.464 151.398 Q502.464 156.097 504.385 158.782 Q506.33 161.444 509.709 161.444 Q513.089 161.444 515.033 158.782 Q516.978 156.097 516.978 151.398 Q516.978 146.699 515.033 144.037 Q513.089 141.352 509.709 141.352 Q506.33 141.352 504.385 144.037 Q502.464 146.699 502.464 151.398 Z" fill="#000000" fill-rule="nonzero" fill-opacity="1" /><path clip-path="url(#clip810)" d="M530.01 138.412 L534.269 138.412 L534.269 164.338 L530.01 164.338 L530.01 138.412 M530.01 128.319 L534.269 128.319 L534.269 133.713 L530.01 133.713 L530.01 128.319 Z" fill="#000000" fill-rule="nonzero" fill-opacity="1" /><path clip-path="url(#clip810)" d="M561.839 139.407 L561.839 143.389 Q560.033 142.393 558.205 141.907 Q556.399 141.398 554.547 141.398 Q550.404 141.398 548.112 144.037 Q545.82 146.652 545.82 151.398 Q545.82 156.143 548.112 158.782 Q550.404 161.398 554.547 161.398 Q556.399 161.398 558.205 160.912 Q560.033 160.402 561.839 159.407 L561.839 163.342 Q560.056 164.176 558.135 164.592 Q556.237 165.009 554.084 165.009 Q548.228 165.009 544.779 161.328 Q541.33 157.648 541.33 151.398 Q541.33 145.055 544.802 141.421 Q548.297 137.787 554.362 137.787 Q556.33 137.787 558.205 138.203 Q560.08 138.597 561.839 139.407 Z" fill="#000000" fill-rule="nonzero" fill-opacity="1" /><path clip-path="url(#clip810)" d="M573.459 131.051 L573.459 138.412 L582.232 138.412 L582.232 141.722 L573.459 141.722 L573.459 155.796 Q573.459 158.967 574.316 159.87 Q575.195 160.773 577.857 160.773 L582.232 160.773 L582.232 164.338 L577.857 164.338 Q572.927 164.338 571.052 162.509 Q569.177 160.657 569.177 155.796 L569.177 141.722 L566.052 141.722 L566.052 138.412 L569.177 138.412 L569.177 131.051 L573.459 131.051 Z" fill="#000000" fill-rule="nonzero" fill-opacity="1" /><path clip-path="url(#clip810)" d="M587.834 138.412 L592.093 138.412 L592.093 164.338 L587.834 164.338 L587.834 138.412 M587.834 128.319 L592.093 128.319 L592.093 133.713 L587.834 133.713 L587.834 128.319 Z" fill="#000000" fill-rule="nonzero" fill-opacity="1" /><path clip-path="url(#clip810)" d="M611.051 141.398 Q607.626 141.398 605.635 144.083 Q603.644 146.745 603.644 151.398 Q603.644 156.051 605.612 158.736 Q607.602 161.398 611.051 161.398 Q614.454 161.398 616.445 158.713 Q618.436 156.027 618.436 151.398 Q618.436 146.791 616.445 144.106 Q614.454 141.398 611.051 141.398 M611.051 137.787 Q616.607 137.787 619.778 141.398 Q622.95 145.009 622.95 151.398 Q622.95 157.764 619.778 161.398 Q616.607 165.009 611.051 165.009 Q605.473 165.009 602.302 161.398 Q599.153 157.764 599.153 151.398 Q599.153 145.009 602.302 141.398 Q605.473 137.787 611.051 137.787 Z" fill="#000000" fill-rule="nonzero" fill-opacity="1" /><path clip-path="url(#clip810)" d="M651.561 148.689 L651.561 164.338 L647.301 164.338 L647.301 148.828 Q647.301 145.148 645.866 143.319 Q644.431 141.49 641.561 141.49 Q638.112 141.49 636.121 143.69 Q634.13 145.889 634.13 149.685 L634.13 164.338 L629.848 164.338 L629.848 138.412 L634.13 138.412 L634.13 142.44 Q635.658 140.102 637.718 138.944 Q639.801 137.787 642.51 137.787 Q646.977 137.787 649.269 140.565 Q651.561 143.319 651.561 148.689 Z" fill="#000000" fill-rule="nonzero" fill-opacity="1" /><polyline clip-path="url(#clip810)" style="stroke:#e26f46; stroke-linecap:round; stroke-linejoin:round; stroke-width:4; stroke-opacity:1; fill:none" points="253.896,198.898 400.328,198.898 "/>
<path clip-path="url(#clip810)" d="M424.733 181.618 L446.585 181.618 L446.585 185.553 L429.409 185.553 L429.409 195.784 L445.867 195.784 L445.867 199.719 L429.409 199.719 L429.409 212.242 L447.001 212.242 L447.001 216.178 L424.733 216.178 L424.733 181.618 Z" fill="#000000" fill-rule="nonzero" fill-opacity="1" /><path clip-path="url(#clip810)" d="M476.052 190.252 L466.677 202.867 L476.538 216.178 L471.515 216.178 L463.969 205.992 L456.423 216.178 L451.4 216.178 L461.469 202.613 L452.256 190.252 L457.279 190.252 L464.154 199.488 L471.029 190.252 L476.052 190.252 Z" fill="#000000" fill-rule="nonzero" fill-opacity="1" /><path clip-path="url(#clip810)" d="M494.339 203.145 Q489.177 203.145 487.186 204.326 Q485.196 205.506 485.196 208.354 Q485.196 210.622 486.677 211.965 Q488.182 213.284 490.751 213.284 Q494.293 213.284 496.422 210.784 Q498.575 208.261 498.575 204.094 L498.575 203.145 L494.339 203.145 M502.834 201.386 L502.834 216.178 L498.575 216.178 L498.575 212.242 Q497.117 214.603 494.941 215.738 Q492.765 216.849 489.617 216.849 Q485.635 216.849 483.274 214.627 Q480.936 212.381 480.936 208.631 Q480.936 204.256 483.853 202.034 Q486.793 199.812 492.603 199.812 L498.575 199.812 L498.575 199.395 Q498.575 196.455 496.631 194.858 Q494.71 193.238 491.214 193.238 Q488.992 193.238 486.885 193.77 Q484.779 194.303 482.835 195.367 L482.835 191.432 Q485.173 190.53 487.372 190.09 Q489.571 189.627 491.654 189.627 Q497.279 189.627 500.057 192.543 Q502.834 195.46 502.834 201.386 Z" fill="#000000" fill-rule="nonzero" fill-opacity="1" /><path clip-path="url(#clip810)" d="M530.265 191.247 L530.265 195.229 Q528.459 194.233 526.631 193.747 Q524.825 193.238 522.973 193.238 Q518.83 193.238 516.538 195.877 Q514.246 198.492 514.246 203.238 Q514.246 207.983 516.538 210.622 Q518.83 213.238 522.973 213.238 Q524.825 213.238 526.631 212.752 Q528.459 212.242 530.265 211.247 L530.265 215.182 Q528.482 216.016 526.561 216.432 Q524.663 216.849 522.51 216.849 Q516.654 216.849 513.205 213.168 Q509.756 209.488 509.756 203.238 Q509.756 196.895 513.228 193.261 Q516.723 189.627 522.788 189.627 Q524.756 189.627 526.631 190.043 Q528.506 190.437 530.265 191.247 Z" fill="#000000" fill-rule="nonzero" fill-opacity="1" /><path clip-path="url(#clip810)" d="M541.885 182.891 L541.885 190.252 L550.658 190.252 L550.658 193.562 L541.885 193.562 L541.885 207.636 Q541.885 210.807 542.742 211.71 Q543.621 212.613 546.283 212.613 L550.658 212.613 L550.658 216.178 L546.283 216.178 Q541.353 216.178 539.478 214.349 Q537.603 212.497 537.603 207.636 L537.603 193.562 L534.478 193.562 L534.478 190.252 L537.603 190.252 L537.603 182.891 L541.885 182.891 Z" fill="#000000" fill-rule="nonzero" fill-opacity="1" /></svg>
