<?xml version="1.0" encoding="utf-8"?>
<svg xmlns="http://www.w3.org/2000/svg" xmlns:xlink="http://www.w3.org/1999/xlink" width="600" height="400" viewBox="0 0 2400 1600">
<defs>
  <clipPath id="clip450">
    <rect x="0" y="0" width="2400" height="1600"/>
  </clipPath>
</defs>
<path clip-path="url(#clip450)" d="M0 1600 L2400 1600 L2400 0 L0 0  Z" fill="#ffffff" fill-rule="evenodd" fill-opacity="1"/>
<defs>
  <clipPath id="clip451">
    <rect x="480" y="0" width="1681" height="1600"/>
  </clipPath>
</defs>
<path clip-path="url(#clip450)" d="M156.274 1486.45 L2352.76 1486.45 L2352.76 47.2441 L156.274 47.2441  Z" fill="#ffffff" fill-rule="evenodd" fill-opacity="1"/>
<defs>
  <clipPath id="clip452">
    <rect x="156" y="47" width="2197" height="1440"/>
  </clipPath>
</defs>
<polyline clip-path="url(#clip452)" style="stroke:#000000; stroke-linecap:round; stroke-linejoin:round; stroke-width:2; stroke-opacity:0.1; fill:none" points="218.439,1486.45 218.439,47.2441 "/>
<polyline clip-path="url(#clip452)" style="stroke:#000000; stroke-linecap:round; stroke-linejoin:round; stroke-width:2; stroke-opacity:0.1; fill:none" points="736.477,1486.45 736.477,47.2441 "/>
<polyline clip-path="url(#clip452)" style="stroke:#000000; stroke-linecap:round; stroke-linejoin:round; stroke-width:2; stroke-opacity:0.1; fill:none" points="1254.52,1486.45 1254.52,47.2441 "/>
<polyline clip-path="url(#clip452)" style="stroke:#000000; stroke-linecap:round; stroke-linejoin:round; stroke-width:2; stroke-opacity:0.1; fill:none" points="1772.55,1486.45 1772.55,47.2441 "/>
<polyline clip-path="url(#clip452)" style="stroke:#000000; stroke-linecap:round; stroke-linejoin:round; stroke-width:2; stroke-opacity:0.1; fill:none" points="2290.59,1486.45 2290.59,47.2441 "/>
<polyline clip-path="url(#clip450)" style="stroke:#000000; stroke-linecap:round; stroke-linejoin:round; stroke-width:4; stroke-opacity:1; fill:none" points="156.274,1486.45 2352.76,1486.45 "/>
<polyline clip-path="url(#clip450)" style="stroke:#000000; stroke-linecap:round; stroke-linejoin:round; stroke-width:4; stroke-opacity:1; fill:none" points="218.439,1486.45 218.439,1467.55 "/>
<polyline clip-path="url(#clip450)" style="stroke:#000000; stroke-linecap:round; stroke-linejoin:round; stroke-width:4; stroke-opacity:1; fill:none" points="736.477,1486.45 736.477,1467.55 "/>
<polyline clip-path="url(#clip450)" style="stroke:#000000; stroke-linecap:round; stroke-linejoin:round; stroke-width:4; stroke-opacity:1; fill:none" points="1254.52,1486.45 1254.52,1467.55 "/>
<polyline clip-path="url(#clip450)" style="stroke:#000000; stroke-linecap:round; stroke-linejoin:round; stroke-width:4; stroke-opacity:1; fill:none" points="1772.55,1486.45 1772.55,1467.55 "/>
<polyline clip-path="url(#clip450)" style="stroke:#000000; stroke-linecap:round; stroke-linejoin:round; stroke-width:4; stroke-opacity:1; fill:none" points="2290.59,1486.45 2290.59,1467.55 "/>
<path clip-path="url(#clip450)" d="M164.967 1532.02 L194.643 1532.02 L194.643 1535.95 L164.967 1535.95 L164.967 1532.02 Z" fill="#000000" fill-rule="nonzero" fill-opacity="1" /><path clip-path="url(#clip450)" d="M205.545 1544.91 L213.184 1544.91 L213.184 1518.55 L204.874 1520.21 L204.874 1515.95 L213.138 1514.29 L217.814 1514.29 L217.814 1544.91 L225.453 1544.91 L225.453 1548.85 L205.545 1548.85 L205.545 1544.91 Z" fill="#000000" fill-rule="nonzero" fill-opacity="1" /><path clip-path="url(#clip450)" d="M234.897 1542.97 L239.781 1542.97 L239.781 1548.85 L234.897 1548.85 L234.897 1542.97 Z" fill="#000000" fill-rule="nonzero" fill-opacity="1" /><path clip-path="url(#clip450)" d="M259.966 1517.37 Q256.355 1517.37 254.527 1520.93 Q252.721 1524.47 252.721 1531.6 Q252.721 1538.71 254.527 1542.27 Q256.355 1545.82 259.966 1545.82 Q263.601 1545.82 265.406 1542.27 Q267.235 1538.71 267.235 1531.6 Q267.235 1524.47 265.406 1520.93 Q263.601 1517.37 259.966 1517.37 M259.966 1513.66 Q265.776 1513.66 268.832 1518.27 Q271.911 1522.85 271.911 1531.6 Q271.911 1540.33 268.832 1544.94 Q265.776 1549.52 259.966 1549.52 Q254.156 1549.52 251.077 1544.94 Q248.022 1540.33 248.022 1531.6 Q248.022 1522.85 251.077 1518.27 Q254.156 1513.66 259.966 1513.66 Z" fill="#000000" fill-rule="nonzero" fill-opacity="1" /><path clip-path="url(#clip450)" d="M683.503 1532.02 L713.178 1532.02 L713.178 1535.95 L683.503 1535.95 L683.503 1532.02 Z" fill="#000000" fill-rule="nonzero" fill-opacity="1" /><path clip-path="url(#clip450)" d="M733.271 1517.37 Q729.66 1517.37 727.831 1520.93 Q726.026 1524.47 726.026 1531.6 Q726.026 1538.71 727.831 1542.27 Q729.66 1545.82 733.271 1545.82 Q736.905 1545.82 738.711 1542.27 Q740.539 1538.71 740.539 1531.6 Q740.539 1524.47 738.711 1520.93 Q736.905 1517.37 733.271 1517.37 M733.271 1513.66 Q739.081 1513.66 742.137 1518.27 Q745.215 1522.85 745.215 1531.6 Q745.215 1540.33 742.137 1544.94 Q739.081 1549.52 733.271 1549.52 Q727.461 1549.52 724.382 1544.94 Q721.327 1540.33 721.327 1531.6 Q721.327 1522.85 724.382 1518.27 Q727.461 1513.66 733.271 1513.66 Z" fill="#000000" fill-rule="nonzero" fill-opacity="1" /><path clip-path="url(#clip450)" d="M753.433 1542.97 L758.317 1542.97 L758.317 1548.85 L753.433 1548.85 L753.433 1542.97 Z" fill="#000000" fill-rule="nonzero" fill-opacity="1" /><path clip-path="url(#clip450)" d="M768.548 1514.29 L786.905 1514.29 L786.905 1518.22 L772.831 1518.22 L772.831 1526.7 Q773.849 1526.35 774.868 1526.19 Q775.886 1526 776.905 1526 Q782.692 1526 786.072 1529.17 Q789.451 1532.34 789.451 1537.76 Q789.451 1543.34 785.979 1546.44 Q782.507 1549.52 776.187 1549.52 Q774.011 1549.52 771.743 1549.15 Q769.498 1548.78 767.09 1548.04 L767.09 1543.34 Q769.173 1544.47 771.396 1545.03 Q773.618 1545.58 776.095 1545.58 Q780.099 1545.58 782.437 1543.48 Q784.775 1541.37 784.775 1537.76 Q784.775 1534.15 782.437 1532.04 Q780.099 1529.94 776.095 1529.94 Q774.22 1529.94 772.345 1530.35 Q770.493 1530.77 768.548 1531.65 L768.548 1514.29 Z" fill="#000000" fill-rule="nonzero" fill-opacity="1" /><path clip-path="url(#clip450)" d="M1231.9 1517.37 Q1228.29 1517.37 1226.46 1520.93 Q1224.65 1524.47 1224.65 1531.6 Q1224.65 1538.71 1226.46 1542.27 Q1228.29 1545.82 1231.9 1545.82 Q1235.53 1545.82 1237.34 1542.27 Q1239.17 1538.71 1239.17 1531.6 Q1239.17 1524.47 1237.34 1520.93 Q1235.53 1517.37 1231.9 1517.37 M1231.9 1513.66 Q1237.71 1513.66 1240.77 1518.27 Q1243.84 1522.85 1243.84 1531.6 Q1243.84 1540.33 1240.77 1544.94 Q1237.71 1549.52 1231.9 1549.52 Q1226.09 1549.52 1223.01 1544.94 Q1219.96 1540.33 1219.96 1531.6 Q1219.96 1522.85 1223.01 1518.27 Q1226.09 1513.66 1231.9 1513.66 Z" fill="#000000" fill-rule="nonzero" fill-opacity="1" /><path clip-path="url(#clip450)" d="M1252.06 1542.97 L1256.95 1542.97 L1256.95 1548.85 L1252.06 1548.85 L1252.06 1542.97 Z" fill="#000000" fill-rule="nonzero" fill-opacity="1" /><path clip-path="url(#clip450)" d="M1277.13 1517.37 Q1273.52 1517.37 1271.69 1520.93 Q1269.89 1524.47 1269.89 1531.6 Q1269.89 1538.71 1271.69 1542.27 Q1273.52 1545.82 1277.13 1545.82 Q1280.76 1545.82 1282.57 1542.27 Q1284.4 1538.71 1284.4 1531.6 Q1284.4 1524.47 1282.57 1520.93 Q1280.76 1517.37 1277.13 1517.37 M1277.13 1513.66 Q1282.94 1513.66 1286 1518.27 Q1289.08 1522.85 1289.08 1531.6 Q1289.08 1540.33 1286 1544.94 Q1282.94 1549.52 1277.13 1549.52 Q1271.32 1549.52 1268.24 1544.94 Q1265.19 1540.33 1265.19 1531.6 Q1265.19 1522.85 1268.24 1518.27 Q1271.32 1513.66 1277.13 1513.66 Z" fill="#000000" fill-rule="nonzero" fill-opacity="1" /><path clip-path="url(#clip450)" d="M1750.44 1517.37 Q1746.82 1517.37 1745 1520.93 Q1743.19 1524.47 1743.19 1531.6 Q1743.19 1538.71 1745 1542.27 Q1746.82 1545.82 1750.44 1545.82 Q1754.07 1545.82 1755.88 1542.27 Q1757.7 1538.71 1757.7 1531.6 Q1757.7 1524.47 1755.88 1520.93 Q1754.07 1517.37 1750.44 1517.37 M1750.44 1513.66 Q1756.25 1513.66 1759.3 1518.27 Q1762.38 1522.85 1762.38 1531.6 Q1762.38 1540.33 1759.3 1544.94 Q1756.25 1549.52 1750.44 1549.52 Q1744.63 1549.52 1741.55 1544.94 Q1738.49 1540.33 1738.49 1531.6 Q1738.49 1522.85 1741.55 1518.27 Q1744.63 1513.66 1750.44 1513.66 Z" fill="#000000" fill-rule="nonzero" fill-opacity="1" /><path clip-path="url(#clip450)" d="M1770.6 1542.97 L1775.48 1542.97 L1775.48 1548.85 L1770.6 1548.85 L1770.6 1542.97 Z" fill="#000000" fill-rule="nonzero" fill-opacity="1" /><path clip-path="url(#clip450)" d="M1785.71 1514.29 L1804.07 1514.29 L1804.07 1518.22 L1790 1518.22 L1790 1526.7 Q1791.01 1526.35 1792.03 1526.19 Q1793.05 1526 1794.07 1526 Q1799.86 1526 1803.24 1529.17 Q1806.62 1532.34 1806.62 1537.76 Q1806.62 1543.34 1803.14 1546.44 Q1799.67 1549.52 1793.35 1549.52 Q1791.18 1549.52 1788.91 1549.15 Q1786.66 1548.78 1784.25 1548.04 L1784.25 1543.34 Q1786.34 1544.47 1788.56 1545.03 Q1790.78 1545.58 1793.26 1545.58 Q1797.26 1545.58 1799.6 1543.48 Q1801.94 1541.37 1801.94 1537.76 Q1801.94 1534.15 1799.6 1532.04 Q1797.26 1529.94 1793.26 1529.94 Q1791.38 1529.94 1789.51 1530.35 Q1787.66 1530.77 1785.71 1531.65 L1785.71 1514.29 Z" fill="#000000" fill-rule="nonzero" fill-opacity="1" /><path clip-path="url(#clip450)" d="M2257.74 1544.91 L2265.38 1544.91 L2265.38 1518.55 L2257.07 1520.21 L2257.07 1515.95 L2265.34 1514.29 L2270.01 1514.29 L2270.01 1544.91 L2277.65 1544.91 L2277.65 1548.85 L2257.74 1548.85 L2257.74 1544.91 Z" fill="#000000" fill-rule="nonzero" fill-opacity="1" /><path clip-path="url(#clip450)" d="M2287.1 1542.97 L2291.98 1542.97 L2291.98 1548.85 L2287.1 1548.85 L2287.1 1542.97 Z" fill="#000000" fill-rule="nonzero" fill-opacity="1" /><path clip-path="url(#clip450)" d="M2312.17 1517.37 Q2308.55 1517.37 2306.73 1520.93 Q2304.92 1524.47 2304.92 1531.6 Q2304.92 1538.71 2306.73 1542.27 Q2308.55 1545.82 2312.17 1545.82 Q2315.8 1545.82 2317.61 1542.27 Q2319.43 1538.71 2319.43 1531.6 Q2319.43 1524.47 2317.61 1520.93 Q2315.8 1517.37 2312.17 1517.37 M2312.17 1513.66 Q2317.98 1513.66 2321.03 1518.27 Q2324.11 1522.85 2324.11 1531.6 Q2324.11 1540.33 2321.03 1544.94 Q2317.98 1549.52 2312.17 1549.52 Q2306.36 1549.52 2303.28 1544.94 Q2300.22 1540.33 2300.22 1531.6 Q2300.22 1522.85 2303.28 1518.27 Q2306.36 1513.66 2312.17 1513.66 Z" fill="#000000" fill-rule="nonzero" fill-opacity="1" /><polyline clip-path="url(#clip452)" style="stroke:#000000; stroke-linecap:round; stroke-linejoin:round; stroke-width:2; stroke-opacity:0.1; fill:none" points="156.274,1224.57 2352.76,1224.57 "/>
<polyline clip-path="url(#clip452)" style="stroke:#000000; stroke-linecap:round; stroke-linejoin:round; stroke-width:2; stroke-opacity:0.1; fill:none" points="156.274,957.827 2352.76,957.827 "/>
<polyline clip-path="url(#clip452)" style="stroke:#000000; stroke-linecap:round; stroke-linejoin:round; stroke-width:2; stroke-opacity:0.1; fill:none" points="156.274,691.088 2352.76,691.088 "/>
<polyline clip-path="url(#clip452)" style="stroke:#000000; stroke-linecap:round; stroke-linejoin:round; stroke-width:2; stroke-opacity:0.1; fill:none" points="156.274,424.348 2352.76,424.348 "/>
<polyline clip-path="url(#clip452)" style="stroke:#000000; stroke-linecap:round; stroke-linejoin:round; stroke-width:2; stroke-opacity:0.1; fill:none" points="156.274,157.609 2352.76,157.609 "/>
<polyline clip-path="url(#clip450)" style="stroke:#000000; stroke-linecap:round; stroke-linejoin:round; stroke-width:4; stroke-opacity:1; fill:none" points="156.274,1486.45 156.274,47.2441 "/>
<polyline clip-path="url(#clip450)" style="stroke:#000000; stroke-linecap:round; stroke-linejoin:round; stroke-width:4; stroke-opacity:1; fill:none" points="156.274,1224.57 175.172,1224.57 "/>
<polyline clip-path="url(#clip450)" style="stroke:#000000; stroke-linecap:round; stroke-linejoin:round; stroke-width:4; stroke-opacity:1; fill:none" points="156.274,957.827 175.172,957.827 "/>
<polyline clip-path="url(#clip450)" style="stroke:#000000; stroke-linecap:round; stroke-linejoin:round; stroke-width:4; stroke-opacity:1; fill:none" points="156.274,691.088 175.172,691.088 "/>
<polyline clip-path="url(#clip450)" style="stroke:#000000; stroke-linecap:round; stroke-linejoin:round; stroke-width:4; stroke-opacity:1; fill:none" points="156.274,424.348 175.172,424.348 "/>
<polyline clip-path="url(#clip450)" style="stroke:#000000; stroke-linecap:round; stroke-linejoin:round; stroke-width:4; stroke-opacity:1; fill:none" points="156.274,157.609 175.172,157.609 "/>
<path clip-path="url(#clip450)" d="M63.0985 1210.37 Q59.4875 1210.37 57.6588 1213.93 Q55.8532 1217.47 55.8532 1224.6 Q55.8532 1231.71 57.6588 1235.27 Q59.4875 1238.81 63.0985 1238.81 Q66.7328 1238.81 68.5383 1235.27 Q70.367 1231.71 70.367 1224.6 Q70.367 1217.47 68.5383 1213.93 Q66.7328 1210.37 63.0985 1210.37 M63.0985 1206.66 Q68.9087 1206.66 71.9642 1211.27 Q75.0429 1215.85 75.0429 1224.6 Q75.0429 1233.33 71.9642 1237.93 Q68.9087 1242.52 63.0985 1242.52 Q57.2884 1242.52 54.2097 1237.93 Q51.1542 1233.33 51.1542 1224.6 Q51.1542 1215.85 54.2097 1211.27 Q57.2884 1206.66 63.0985 1206.66 Z" fill="#000000" fill-rule="nonzero" fill-opacity="1" /><path clip-path="url(#clip450)" d="M83.2605 1235.97 L88.1447 1235.97 L88.1447 1241.85 L83.2605 1241.85 L83.2605 1235.97 Z" fill="#000000" fill-rule="nonzero" fill-opacity="1" /><path clip-path="url(#clip450)" d="M108.33 1210.37 Q104.719 1210.37 102.89 1213.93 Q101.084 1217.47 101.084 1224.6 Q101.084 1231.71 102.89 1235.27 Q104.719 1238.81 108.33 1238.81 Q111.964 1238.81 113.77 1235.27 Q115.598 1231.71 115.598 1224.6 Q115.598 1217.47 113.77 1213.93 Q111.964 1210.37 108.33 1210.37 M108.33 1206.66 Q114.14 1206.66 117.195 1211.27 Q120.274 1215.85 120.274 1224.6 Q120.274 1233.33 117.195 1237.93 Q114.14 1242.52 108.33 1242.52 Q102.52 1242.52 99.4409 1237.93 Q96.3854 1233.33 96.3854 1224.6 Q96.3854 1215.85 99.4409 1211.27 Q102.52 1206.66 108.33 1206.66 Z" fill="#000000" fill-rule="nonzero" fill-opacity="1" /><path clip-path="url(#clip450)" d="M63.7467 943.626 Q60.1356 943.626 58.3069 947.191 Q56.5014 950.733 56.5014 957.862 Q56.5014 964.969 58.3069 968.533 Q60.1356 972.075 63.7467 972.075 Q67.3809 972.075 69.1865 968.533 Q71.0152 964.969 71.0152 957.862 Q71.0152 950.733 69.1865 947.191 Q67.3809 943.626 63.7467 943.626 M63.7467 939.922 Q69.5568 939.922 72.6124 944.529 Q75.6911 949.112 75.6911 957.862 Q75.6911 966.589 72.6124 971.195 Q69.5568 975.779 63.7467 975.779 Q57.9365 975.779 54.8578 971.195 Q51.8023 966.589 51.8023 957.862 Q51.8023 949.112 54.8578 944.529 Q57.9365 939.922 63.7467 939.922 Z" fill="#000000" fill-rule="nonzero" fill-opacity="1" /><path clip-path="url(#clip450)" d="M83.9086 969.228 L88.7928 969.228 L88.7928 975.107 L83.9086 975.107 L83.9086 969.228 Z" fill="#000000" fill-rule="nonzero" fill-opacity="1" /><path clip-path="url(#clip450)" d="M113.145 956.473 Q116.501 957.191 118.376 959.459 Q120.274 961.728 120.274 965.061 Q120.274 970.177 116.756 972.978 Q113.237 975.779 106.756 975.779 Q104.58 975.779 102.265 975.339 Q99.9733 974.922 97.5197 974.066 L97.5197 969.552 Q99.4641 970.686 101.779 971.265 Q104.094 971.844 106.617 971.844 Q111.015 971.844 113.307 970.107 Q115.621 968.371 115.621 965.061 Q115.621 962.006 113.469 960.293 Q111.339 958.557 107.52 958.557 L103.492 958.557 L103.492 954.714 L107.705 954.714 Q111.154 954.714 112.983 953.348 Q114.811 951.959 114.811 949.367 Q114.811 946.705 112.913 945.293 Q111.038 943.858 107.52 943.858 Q105.598 943.858 103.399 944.274 Q101.2 944.691 98.5613 945.57 L98.5613 941.404 Q101.223 940.663 103.538 940.293 Q105.876 939.922 107.936 939.922 Q113.26 939.922 116.362 942.353 Q119.464 944.76 119.464 948.881 Q119.464 951.751 117.82 953.742 Q116.177 955.709 113.145 956.473 Z" fill="#000000" fill-rule="nonzero" fill-opacity="1" /><path clip-path="url(#clip450)" d="M62.9365 676.886 Q59.3254 676.886 57.4967 680.451 Q55.6912 683.993 55.6912 691.123 Q55.6912 698.229 57.4967 701.794 Q59.3254 705.335 62.9365 705.335 Q66.5707 705.335 68.3763 701.794 Q70.205 698.229 70.205 691.123 Q70.205 683.993 68.3763 680.451 Q66.5707 676.886 62.9365 676.886 M62.9365 673.183 Q68.7467 673.183 71.8022 677.789 Q74.8809 682.373 74.8809 691.123 Q74.8809 699.849 71.8022 704.456 Q68.7467 709.039 62.9365 709.039 Q57.1264 709.039 54.0477 704.456 Q50.9921 699.849 50.9921 691.123 Q50.9921 682.373 54.0477 677.789 Q57.1264 673.183 62.9365 673.183 Z" fill="#000000" fill-rule="nonzero" fill-opacity="1" /><path clip-path="url(#clip450)" d="M83.0984 702.488 L87.9827 702.488 L87.9827 708.368 L83.0984 708.368 L83.0984 702.488 Z" fill="#000000" fill-rule="nonzero" fill-opacity="1" /><path clip-path="url(#clip450)" d="M108.746 689.224 Q105.598 689.224 103.746 691.377 Q101.918 693.53 101.918 697.28 Q101.918 701.007 103.746 703.183 Q105.598 705.335 108.746 705.335 Q111.895 705.335 113.723 703.183 Q115.575 701.007 115.575 697.28 Q115.575 693.53 113.723 691.377 Q111.895 689.224 108.746 689.224 M118.029 674.572 L118.029 678.831 Q116.27 677.998 114.464 677.558 Q112.682 677.118 110.922 677.118 Q106.293 677.118 103.839 680.243 Q101.409 683.368 101.061 689.687 Q102.427 687.673 104.487 686.609 Q106.547 685.521 109.024 685.521 Q114.233 685.521 117.242 688.692 Q120.274 691.84 120.274 697.28 Q120.274 702.604 117.126 705.821 Q113.978 709.039 108.746 709.039 Q102.751 709.039 99.5798 704.456 Q96.4085 699.849 96.4085 691.123 Q96.4085 682.928 100.297 678.067 Q104.186 673.183 110.737 673.183 Q112.496 673.183 114.279 673.53 Q116.084 673.877 118.029 674.572 Z" fill="#000000" fill-rule="nonzero" fill-opacity="1" /><path clip-path="url(#clip450)" d="M63.2837 410.147 Q59.6726 410.147 57.8439 413.712 Q56.0384 417.253 56.0384 424.383 Q56.0384 431.489 57.8439 435.054 Q59.6726 438.596 63.2837 438.596 Q66.918 438.596 68.7235 435.054 Q70.5522 431.489 70.5522 424.383 Q70.5522 417.253 68.7235 413.712 Q66.918 410.147 63.2837 410.147 M63.2837 406.443 Q69.0939 406.443 72.1494 411.05 Q75.2281 415.633 75.2281 424.383 Q75.2281 433.11 72.1494 437.716 Q69.0939 442.299 63.2837 442.299 Q57.4736 442.299 54.3949 437.716 Q51.3393 433.11 51.3393 424.383 Q51.3393 415.633 54.3949 411.05 Q57.4736 406.443 63.2837 406.443 Z" fill="#000000" fill-rule="nonzero" fill-opacity="1" /><path clip-path="url(#clip450)" d="M83.4457 435.749 L88.3299 435.749 L88.3299 441.628 L83.4457 441.628 L83.4457 435.749 Z" fill="#000000" fill-rule="nonzero" fill-opacity="1" /><path clip-path="url(#clip450)" d="M98.6539 440.911 L98.6539 436.651 Q100.413 437.485 102.219 437.924 Q104.024 438.364 105.76 438.364 Q110.39 438.364 112.82 435.262 Q115.274 432.137 115.621 425.795 Q114.279 427.786 112.219 428.85 Q110.158 429.915 107.658 429.915 Q102.473 429.915 99.4409 426.79 Q96.4317 423.642 96.4317 418.202 Q96.4317 412.878 99.5798 409.661 Q102.728 406.443 107.959 406.443 Q113.955 406.443 117.103 411.05 Q120.274 415.633 120.274 424.383 Q120.274 432.554 116.385 437.438 Q112.52 442.299 105.969 442.299 Q104.209 442.299 102.404 441.952 Q100.598 441.605 98.6539 440.911 M107.959 426.258 Q111.108 426.258 112.936 424.105 Q114.788 421.952 114.788 418.202 Q114.788 414.476 112.936 412.323 Q111.108 410.147 107.959 410.147 Q104.811 410.147 102.959 412.323 Q101.131 414.476 101.131 418.202 Q101.131 421.952 102.959 424.105 Q104.811 426.258 107.959 426.258 Z" fill="#000000" fill-rule="nonzero" fill-opacity="1" /><path clip-path="url(#clip450)" d="M55.506 170.953 L63.1448 170.953 L63.1448 144.588 L54.8347 146.254 L54.8347 141.995 L63.0985 140.329 L67.7744 140.329 L67.7744 170.953 L75.4133 170.953 L75.4133 174.889 L55.506 174.889 L55.506 170.953 Z" fill="#000000" fill-rule="nonzero" fill-opacity="1" /><path clip-path="url(#clip450)" d="M84.8577 169.009 L89.7419 169.009 L89.7419 174.889 L84.8577 174.889 L84.8577 169.009 Z" fill="#000000" fill-rule="nonzero" fill-opacity="1" /><path clip-path="url(#clip450)" d="M103.955 170.953 L120.274 170.953 L120.274 174.889 L98.3298 174.889 L98.3298 170.953 Q100.992 168.199 105.575 163.569 Q110.182 158.916 111.362 157.574 Q113.608 155.051 114.487 153.315 Q115.39 151.555 115.39 149.866 Q115.39 147.111 113.445 145.375 Q111.524 143.639 108.422 143.639 Q106.223 143.639 103.77 144.403 Q101.339 145.167 98.5613 146.717 L98.5613 141.995 Q101.385 140.861 103.839 140.282 Q106.293 139.704 108.33 139.704 Q113.7 139.704 116.895 142.389 Q120.089 145.074 120.089 149.565 Q120.089 151.694 119.279 153.616 Q118.492 155.514 116.385 158.106 Q115.807 158.778 112.705 161.995 Q109.603 165.19 103.955 170.953 Z" fill="#000000" fill-rule="nonzero" fill-opacity="1" /><polyline clip-path="url(#clip452)" style="stroke:#009af9; stroke-linecap:round; stroke-linejoin:round; stroke-width:16; stroke-opacity:1; fill:none" stroke-dasharray="8, 16" points="218.439,1090.92 228.852,1084.36 239.264,1071.73 249.677,1057.24 260.09,1047.02 270.503,1045.6 280.916,1053.76 291.329,1069.64 301.741,1090.78 312.154,1115.31 322.567,1142.19 332.98,1170.9 343.393,1201.11 353.805,1232.39 364.218,1264.09 374.631,1295.22 385.044,1324.5 395.457,1350.52 405.87,1371.93 416.282,1387.64 426.695,1397.06 437.108,1400.25 447.521,1397.97 457.934,1391.47 468.347,1381.57 478.759,1367.87 489.172,1348.75 499.585,1322.92 509.998,1291.17 520.411,1256.57 530.824,1222.68 541.236,1191.36 551.649,1162.46 562.062,1135.31 572.475,1110.13 582.888,1087.74 593.301,1068.92 603.713,1054.63 614.126,1046.27 624.539,1044.92 634.952,1050.23 645.365,1060.73 655.777,1075.54 666.19,1095.11 676.603,1119.89 687.016,1148.84 697.429,1180.01 707.842,1211.91 718.254,1243.69 728.667,1274.81 739.08,1304.79 749.493,1332.65 759.906,1356.46 770.319,1374.64 780.731,1387.29 791.144,1395.64 801.557,1400.32 811.97,1400.6 822.383,1394.87 832.796,1381.88 843.208,1361.93 853.621,1336.89 864.034,1308.84 874.447,1279.1 884.86,1248.35 895.273,1217.38 905.685,1187.1 916.098,1157.96 926.511,1129.59 936.924,1101.83 947.337,1077.36 957.749,1060.1 968.162,1050.85 978.575,1047.71 988.988,1051.15 999.401,1069.22 1009.81,1097.49 1020.23,1091.72 1030.64,1052.82 1041.05,1056.71 1051.46,1114.11 1061.88,1182.25 1072.29,1231.71 1082.7,1253.36 1093.12,1280.08 1103.53,1314.63 1113.94,1323.59 1124.35,1309.4 1134.77,1303.92 1145.18,1374.74 1155.59,1382.08 1166.01,1317.87 1176.42,1302.49 1186.83,1355.77 1197.24,1416.66 1207.66,1445.72 1218.07,1433.19 1228.48,1354.63 1238.9,1191.37 1249.31,961.069 1259.72,689.164 1270.13,426.768 1280.55,293.822 1290.96,325.875 1301.37,366.956 1311.79,353.836 1322.2,359.149 1332.61,370.677 1343.02,322.739 1353.44,292.272 1363.85,331.967 1374.26,346.756 1384.68,331.637 1395.09,331.096 1405.5,330.073 1415.91,338.003 1426.33,358.39 1436.74,379.088 1447.15,374.202 1457.57,347.336 1467.98,318.599 1478.39,294.484 1488.8,279.592 1499.22,277.258 1509.63,288.332 1520.04,314.157 1530.45,352.767 1540.87,389.842 1551.28,410.288 1561.69,410.085 1572.11,389.899 1582.52,354.366 1592.93,312.113 1603.34,272.353 1613.76,243.589 1624.17,236.621 1634.58,263.37 1645,319.765 1655.41,381.434 1665.82,426.475 1676.23,444.668 1686.65,432.384 1697.06,388.91 1707.47,321.434 1717.89,252.635 1728.3,210.031 1738.71,207.645 1749.12,243.011 1759.54,303.68 1769.95,371.665 1780.36,426.685 1790.78,453.057 1801.19,446.959 1811.6,414.767 1822.01,365.843 1832.43,309.253 1842.84,254.404 1853.25,212.414 1863.67,196.25 1874.08,217.493 1884.49,279.333 1894.9,369.475 1905.32,459.397 1915.73,515.316 1926.14,514.537 1936.56,454.207 1946.97,350.489 1957.38,234.575 1967.79,145.342 1978.21,115.337 1988.62,160.08 1999.03,262.125 2009.45,376.95 2019.86,470.292 2030.27,525.044 2040.68,530.963 2051.1,484 2061.51,394.677 2071.92,287.516 2082.33,190.407 2092.75,129.44 2103.16,125.1 2113.57,182.405 2123.99,284.877 2134.4,402.035 2144.81,501.873 2155.22,558.141 2165.64,553.385 2176.05,482.139 2186.46,357.635 2196.88,221.434 2207.29,135.305 2217.7,131.199 2228.11,185.14 2238.53,259.225 2248.94,331.928 2259.35,396.621 2269.77,453.984 2280.18,507.057 2290.59,558.548 "/>
<polyline clip-path="url(#clip452)" style="stroke:#e26f46; stroke-linecap:round; stroke-linejoin:round; stroke-width:4; stroke-opacity:1; fill:none" points="218.439,1091.02 228.852,1072.07 239.264,1058.1 249.677,1049.57 260.09,1046.74 270.503,1049.72 280.916,1058.4 291.329,1072.51 301.741,1091.58 312.154,1114.99 322.567,1141.98 332.98,1171.66 343.393,1203.07 353.805,1235.18 364.218,1266.95 374.631,1297.33 385.044,1325.33 395.457,1350.05 405.87,1370.67 416.282,1386.53 426.695,1397.09 437.108,1402.03 447.521,1401.18 457.934,1394.56 468.347,1382.39 478.759,1365.07 489.172,1343.17 499.585,1317.39 509.998,1288.59 520.411,1257.7 530.824,1225.72 541.236,1193.71 551.649,1162.7 562.062,1133.72 572.475,1107.7 582.888,1085.49 593.301,1067.82 603.713,1055.27 614.126,1048.24 624.539,1046.97 634.952,1051.49 645.365,1061.67 655.777,1077.16 666.19,1097.46 676.603,1121.91 687.016,1149.71 697.429,1179.95 707.842,1211.65 718.254,1243.77 728.667,1275.26 739.08,1305.1 749.493,1332.31 759.906,1356.01 770.319,1375.41 780.731,1389.89 791.144,1398.98 801.557,1402.37 811.97,1399.96 822.383,1391.83 832.796,1378.23 843.208,1359.63 853.621,1336.61 864.034,1309.94 874.447,1280.48 884.86,1249.19 895.273,1217.1 905.685,1185.26 916.098,1154.7 926.511,1126.42 936.924,1101.34 947.337,1080.28 957.749,1063.94 968.162,1052.83 978.575,1047.33 988.988,1047.62 999.401,1053.68 1009.81,1065.31 1020.23,1082.15 1030.64,1103.63 1041.05,1129.06 1051.46,1157.61 1061.88,1188.34 1072.29,1220.26 1082.7,1252.31 1093.12,1283.46 1103.53,1312.69 1113.94,1339.04 1124.35,1361.66 1134.77,1379.8 1145.18,1392.87 1155.59,1400.45 1166.01,1402.3 1176.42,1398.34 1186.83,1388.71 1197.24,1373.72 1207.66,1353.86 1218.07,1329.79 1228.48,1302.28 1238.9,1272.23 1249.31,1240.63 1259.72,334.144 1270.13,332.674 1280.55,334.012 1290.96,338.464 1301.37,344.667 1311.79,349.999 1322.2,351.578 1332.61,347.475 1343.02,337.695 1353.44,324.509 1363.85,311.963 1374.26,304.633 1384.68,306.039 1395.09,317.222 1405.5,336.032 1415.91,357.439 1426.33,374.872 1436.74,382.225 1447.15,375.931 1457.57,356.4 1467.98,328.308 1478.39,299.518 1488.8,278.885 1499.22,273.539 1509.63,286.497 1520.04,315.366 1530.45,352.649 1540.87,387.671 1551.28,409.637 1561.69,410.938 1572.11,389.717 1582.52,350.826 1592.93,304.789 1603.34,264.967 1613.76,243.68 1624.17,248.413 1634.58,279.275 1645,328.545 1655.41,382.556 1665.82,425.49 1676.23,444.001 1686.65,431.343 1697.06,389.719 1707.47,330.061 1717.89,269.182 1728.3,225.039 1738.71,211.444 1749.12,233.768 1759.54,286.975 1769.95,356.679 1780.36,423.011 1790.78,466.287 1801.19,472.842 1811.6,439.31 1822.01,374.017 1832.43,294.965 1842.84,224.879 1853.25,184.672 1863.67,187.214 1874.08,233.256 1884.49,310.789 1894.9,398.141 1905.32,470.034 1915.73,504.895 1926.14,491.32 1936.56,431.749 1946.97,342.184 1957.38,247.912 1967.79,176.369 1978.21,149.155 1988.62,175.528 1999.03,249.33 2009.45,350.352 2019.86,449.847 2030.27,518.718 2040.68,536.016 2051.1,495.301 2061.51,406.91 2071.92,295.378 2082.33,192.639 2092.75,128.881 2103.16,123.68 2113.57,180.015 2123.99,282.985 2134.4,403.719 2144.81,507.471 2155.22,563.612 2165.64,554.674 2176.05,481.746 2186.46,364.592 2196.88,236.31 2207.29,133.987 2217.7,87.9763 2228.11,112.902 2238.53,203.053 2248.94,333.609 2259.35,467.458 2269.77,565.749 2280.18,599.161 2290.59,556.645 "/>
<path clip-path="url(#clip450)" d="M229.49 250.738 L675.966 250.738 L675.966 95.2176 L229.49 95.2176  Z" fill="#ffffff" fill-rule="evenodd" fill-opacity="1"/>
<polyline clip-path="url(#clip450)" style="stroke:#000000; stroke-linecap:round; stroke-linejoin:round; stroke-width:4; stroke-opacity:1; fill:none" points="229.49,250.738 675.966,250.738 675.966,95.2176 229.49,95.2176 229.49,250.738 "/>
<polyline clip-path="url(#clip450)" style="stroke:#009af9; stroke-linecap:round; stroke-linejoin:round; stroke-width:16; stroke-opacity:1; fill:none" stroke-dasharray="8, 16" points="253.896,147.058 400.328,147.058 "/>
<path clip-path="url(#clip450)" d="M429.409 133.62 L429.409 146.606 L435.289 146.606 Q438.552 146.606 440.335 144.916 Q442.117 143.227 442.117 140.102 Q442.117 137 440.335 135.31 Q438.552 133.62 435.289 133.62 L429.409 133.62 M424.733 129.778 L435.289 129.778 Q441.099 129.778 444.062 132.416 Q447.048 135.032 447.048 140.102 Q447.048 145.217 444.062 147.833 Q441.099 150.449 435.289 150.449 L429.409 150.449 L429.409 164.338 L424.733 164.338 L424.733 129.778 Z" fill="#000000" fill-rule="nonzero" fill-opacity="1" /><path clip-path="url(#clip450)" d="M467.325 142.393 Q466.608 141.977 465.751 141.791 Q464.918 141.583 463.899 141.583 Q460.288 141.583 458.344 143.944 Q456.423 146.282 456.423 150.68 L456.423 164.338 L452.14 164.338 L452.14 138.412 L456.423 138.412 L456.423 142.44 Q457.765 140.078 459.918 138.944 Q462.071 137.787 465.149 137.787 Q465.589 137.787 466.122 137.856 Q466.654 137.903 467.302 138.018 L467.325 142.393 Z" fill="#000000" fill-rule="nonzero" fill-opacity="1" /><path clip-path="url(#clip450)" d="M492.927 150.31 L492.927 152.393 L473.344 152.393 Q473.622 156.791 475.983 159.106 Q478.367 161.398 482.603 161.398 Q485.057 161.398 487.348 160.796 Q489.663 160.194 491.932 158.99 L491.932 163.018 Q489.64 163.99 487.233 164.5 Q484.825 165.009 482.348 165.009 Q476.145 165.009 472.511 161.398 Q468.899 157.787 468.899 151.629 Q468.899 145.264 472.325 141.537 Q475.774 137.787 481.608 137.787 Q486.839 137.787 489.872 141.166 Q492.927 144.523 492.927 150.31 M488.668 149.06 Q488.622 145.565 486.7 143.481 Q484.802 141.398 481.654 141.398 Q478.089 141.398 475.936 143.412 Q473.807 145.426 473.483 149.083 L488.668 149.06 Z" fill="#000000" fill-rule="nonzero" fill-opacity="1" /><path clip-path="url(#clip450)" d="M516.978 142.347 L516.978 128.319 L521.237 128.319 L521.237 164.338 L516.978 164.338 L516.978 160.449 Q515.635 162.763 513.575 163.898 Q511.538 165.009 508.668 165.009 Q503.969 165.009 501.006 161.259 Q498.066 157.509 498.066 151.398 Q498.066 145.287 501.006 141.537 Q503.969 137.787 508.668 137.787 Q511.538 137.787 513.575 138.921 Q515.635 140.032 516.978 142.347 M502.464 151.398 Q502.464 156.097 504.385 158.782 Q506.33 161.444 509.709 161.444 Q513.089 161.444 515.033 158.782 Q516.978 156.097 516.978 151.398 Q516.978 146.699 515.033 144.037 Q513.089 141.352 509.709 141.352 Q506.33 141.352 504.385 144.037 Q502.464 146.699 502.464 151.398 Z" fill="#000000" fill-rule="nonzero" fill-opacity="1" /><path clip-path="url(#clip450)" d="M530.01 138.412 L534.269 138.412 L534.269 164.338 L530.01 164.338 L530.01 138.412 M530.01 128.319 L534.269 128.319 L534.269 133.713 L530.01 133.713 L530.01 128.319 Z" fill="#000000" fill-rule="nonzero" fill-opacity="1" /><path clip-path="url(#clip450)" d="M561.839 139.407 L561.839 143.389 Q560.033 142.393 558.205 141.907 Q556.399 141.398 554.547 141.398 Q550.404 141.398 548.112 144.037 Q545.82 146.652 545.82 151.398 Q545.82 156.143 548.112 158.782 Q550.404 161.398 554.547 161.398 Q556.399 161.398 558.205 160.912 Q560.033 160.402 561.839 159.407 L561.839 163.342 Q560.056 164.176 558.135 164.592 Q556.237 165.009 554.084 165.009 Q548.228 165.009 544.779 161.328 Q541.33 157.648 541.33 151.398 Q541.33 145.055 544.802 141.421 Q548.297 137.787 554.362 137.787 Q556.33 137.787 558.205 138.203 Q560.08 138.597 561.839 139.407 Z" fill="#000000" fill-rule="nonzero" fill-opacity="1" /><path clip-path="url(#clip450)" d="M573.459 131.051 L573.459 138.412 L582.232 138.412 L582.232 141.722 L573.459 141.722 L573.459 155.796 Q573.459 158.967 574.316 159.87 Q575.195 160.773 577.857 160.773 L582.232 160.773 L582.232 164.338 L577.857 164.338 Q572.927 164.338 571.052 162.509 Q569.177 160.657 569.177 155.796 L569.177 141.722 L566.052 141.722 L566.052 138.412 L569.177 138.412 L569.177 131.051 L573.459 131.051 Z" fill="#000000" fill-rule="nonzero" fill-opacity="1" /><path clip-path="url(#clip450)" d="M587.834 138.412 L592.093 138.412 L592.093 164.338 L587.834 164.338 L587.834 138.412 M587.834 128.319 L592.093 128.319 L592.093 133.713 L587.834 133.713 L587.834 128.319 Z" fill="#000000" fill-rule="nonzero" fill-opacity="1" /><path clip-path="url(#clip450)" d="M611.051 141.398 Q607.626 141.398 605.635 144.083 Q603.644 146.745 603.644 151.398 Q603.644 156.051 605.612 158.736 Q607.602 161.398 611.051 161.398 Q614.454 161.398 616.445 158.713 Q618.436 156.027 618.436 151.398 Q618.436 146.791 616.445 144.106 Q614.454 141.398 611.051 141.398 M611.051 137.787 Q616.607 137.787 619.778 141.398 Q622.95 145.009 622.95 151.398 Q622.95 157.764 619.778 161.398 Q616.607 165.009 611.051 165.009 Q605.473 165.009 602.302 161.398 Q599.153 157.764 599.153 151.398 Q599.153 145.009 602.302 141.398 Q605.473 137.787 611.051 137.787 Z" fill="#000000" fill-rule="nonzero" fill-opacity="1" /><path clip-path="url(#clip450)" d="M651.561 148.689 L651.561 164.338 L647.301 164.338 L647.301 148.828 Q647.301 145.148 645.866 143.319 Q644.431 141.49 641.561 141.49 Q638.112 141.49 636.121 143.69 Q634.13 145.889 634.13 149.685 L634.13 164.338 L629.848 164.338 L629.848 138.412 L634.13 138.412 L634.13 142.44 Q635.658 140.102 637.718 138.944 Q639.801 137.787 642.51 137.787 Q646.977 137.787 649.269 140.565 Q651.561 143.319 651.561 148.689 Z" fill="#000000" fill-rule="nonzero" fill-opacity="1" /><polyline clip-path="url(#clip450)" style="stroke:#e26f46; stroke-linecap:round; stroke-linejoin:round; stroke-width:4; stroke-opacity:1; fill:none" points="253.896,198.898 400.328,198.898 "/>
<path clip-path="url(#clip450)" d="M424.733 181.618 L446.585 181.618 L446.585 185.553 L429.409 185.553 L429.409 195.784 L445.867 195.784 L445.867 199.719 L429.409 199.719 L429.409 212.242 L447.001 212.242 L447.001 216.178 L424.733 216.178 L424.733 181.618 Z" fill="#000000" fill-rule="nonzero" fill-opacity="1" /><path clip-path="url(#clip450)" d="M476.052 190.252 L466.677 202.867 L476.538 216.178 L471.515 216.178 L463.969 205.992 L456.423 216.178 L451.4 216.178 L461.469 202.613 L452.256 190.252 L457.279 190.252 L464.154 199.488 L471.029 190.252 L476.052 190.252 Z" fill="#000000" fill-rule="nonzero" fill-opacity="1" /><path clip-path="url(#clip450)" d="M494.339 203.145 Q489.177 203.145 487.186 204.326 Q485.196 205.506 485.196 208.354 Q485.196 210.622 486.677 211.965 Q488.182 213.284 490.751 213.284 Q494.293 213.284 496.422 210.784 Q498.575 208.261 498.575 204.094 L498.575 203.145 L494.339 203.145 M502.834 201.386 L502.834 216.178 L498.575 216.178 L498.575 212.242 Q497.117 214.603 494.941 215.738 Q492.765 216.849 489.617 216.849 Q485.635 216.849 483.274 214.627 Q480.936 212.381 480.936 208.631 Q480.936 204.256 483.853 202.034 Q486.793 199.812 492.603 199.812 L498.575 199.812 L498.575 199.395 Q498.575 196.455 496.631 194.858 Q494.71 193.238 491.214 193.238 Q488.992 193.238 486.885 193.77 Q484.779 194.303 482.835 195.367 L482.835 191.432 Q485.173 190.53 487.372 190.09 Q489.571 189.627 491.654 189.627 Q497.279 189.627 500.057 192.543 Q502.834 195.46 502.834 201.386 Z" fill="#000000" fill-rule="nonzero" fill-opacity="1" /><path clip-path="url(#clip450)" d="M530.265 191.247 L530.265 195.229 Q528.459 194.233 526.631 193.747 Q524.825 193.238 522.973 193.238 Q518.83 193.238 516.538 195.877 Q514.246 198.492 514.246 203.238 Q514.246 207.983 516.538 210.622 Q518.83 213.238 522.973 213.238 Q524.825 213.238 526.631 212.752 Q528.459 212.242 530.265 211.247 L530.265 215.182 Q528.482 216.016 526.561 216.432 Q524.663 216.849 522.51 216.849 Q516.654 216.849 513.205 213.168 Q509.756 209.488 509.756 203.238 Q509.756 196.895 513.228 193.261 Q516.723 189.627 522.788 189.627 Q524.756 189.627 526.631 190.043 Q528.506 190.437 530.265 191.247 Z" fill="#000000" fill-rule="nonzero" fill-opacity="1" /><path clip-path="url(#clip450)" d="M541.885 182.891 L541.885 190.252 L550.658 190.252 L550.658 193.562 L541.885 193.562 L541.885 207.636 Q541.885 210.807 542.742 211.71 Q543.621 212.613 546.283 212.613 L550.658 212.613 L550.658 216.178 L546.283 216.178 Q541.353 216.178 539.478 214.349 Q537.603 212.497 537.603 207.636 L537.603 193.562 L534.478 193.562 L534.478 190.252 L537.603 190.252 L537.603 182.891 L541.885 182.891 Z" fill="#000000" fill-rule="nonzero" fill-opacity="1" /></svg>
