<?xml version="1.0" encoding="utf-8"?>
<svg xmlns="http://www.w3.org/2000/svg" xmlns:xlink="http://www.w3.org/1999/xlink" width="600" height="400" viewBox="0 0 2400 1600">
<defs>
  <clipPath id="clip410">
    <rect x="0" y="0" width="2400" height="1600"/>
  </clipPath>
</defs>
<path clip-path="url(#clip410)" d="M0 1600 L2400 1600 L2400 0 L0 0  Z" fill="#ffffff" fill-rule="evenodd" fill-opacity="1"/>
<defs>
  <clipPath id="clip411">
    <rect x="480" y="0" width="1681" height="1600"/>
  </clipPath>
</defs>
<path clip-path="url(#clip410)" d="M156.274 1486.45 L2352.76 1486.45 L2352.76 47.2441 L156.274 47.2441  Z" fill="#ffffff" fill-rule="evenodd" fill-opacity="1"/>
<defs>
  <clipPath id="clip412">
    <rect x="156" y="47" width="2197" height="1440"/>
  </clipPath>
</defs>
<polyline clip-path="url(#clip412)" style="stroke:#000000; stroke-linecap:round; stroke-linejoin:round; stroke-width:2; stroke-opacity:0.1; fill:none" points="218.439,1486.45 218.439,47.2441 "/>
<polyline clip-path="url(#clip412)" style="stroke:#000000; stroke-linecap:round; stroke-linejoin:round; stroke-width:2; stroke-opacity:0.1; fill:none" points="736.477,1486.45 736.477,47.2441 "/>
<polyline clip-path="url(#clip412)" style="stroke:#000000; stroke-linecap:round; stroke-linejoin:round; stroke-width:2; stroke-opacity:0.1; fill:none" points="1254.52,1486.45 1254.52,47.2441 "/>
<polyline clip-path="url(#clip412)" style="stroke:#000000; stroke-linecap:round; stroke-linejoin:round; stroke-width:2; stroke-opacity:0.1; fill:none" points="1772.55,1486.45 1772.55,47.2441 "/>
<polyline clip-path="url(#clip412)" style="stroke:#000000; stroke-linecap:round; stroke-linejoin:round; stroke-width:2; stroke-opacity:0.1; fill:none" points="2290.59,1486.45 2290.59,47.2441 "/>
<polyline clip-path="url(#clip410)" style="stroke:#000000; stroke-linecap:round; stroke-linejoin:round; stroke-width:4; stroke-opacity:1; fill:none" points="156.274,1486.45 2352.76,1486.45 "/>
<polyline clip-path="url(#clip410)" style="stroke:#000000; stroke-linecap:round; stroke-linejoin:round; stroke-width:4; stroke-opacity:1; fill:none" points="218.439,1486.45 218.439,1467.55 "/>
<polyline clip-path="url(#clip410)" style="stroke:#000000; stroke-linecap:round; stroke-linejoin:round; stroke-width:4; stroke-opacity:1; fill:none" points="736.477,1486.45 736.477,1467.55 "/>
<polyline clip-path="url(#clip410)" style="stroke:#000000; stroke-linecap:round; stroke-linejoin:round; stroke-width:4; stroke-opacity:1; fill:none" points="1254.52,1486.45 1254.52,1467.55 "/>
<polyline clip-path="url(#clip410)" style="stroke:#000000; stroke-linecap:round; stroke-linejoin:round; stroke-width:4; stroke-opacity:1; fill:none" points="1772.55,1486.45 1772.55,1467.55 "/>
<polyline clip-path="url(#clip410)" style="stroke:#000000; stroke-linecap:round; stroke-linejoin:round; stroke-width:4; stroke-opacity:1; fill:none" points="2290.59,1486.45 2290.59,1467.55 "/>
<path clip-path="url(#clip410)" d="M164.967 1532.02 L194.643 1532.02 L194.643 1535.95 L164.967 1535.95 L164.967 1532.02 Z" fill="#000000" fill-rule="nonzero" fill-opacity="1" /><path clip-path="url(#clip410)" d="M205.545 1544.91 L213.184 1544.91 L213.184 1518.55 L204.874 1520.21 L204.874 1515.95 L213.138 1514.29 L217.814 1514.29 L217.814 1544.91 L225.453 1544.91 L225.453 1548.85 L205.545 1548.85 L205.545 1544.91 Z" fill="#000000" fill-rule="nonzero" fill-opacity="1" /><path clip-path="url(#clip410)" d="M234.897 1542.97 L239.781 1542.97 L239.781 1548.85 L234.897 1548.85 L234.897 1542.97 Z" fill="#000000" fill-rule="nonzero" fill-opacity="1" /><path clip-path="url(#clip410)" d="M259.966 1517.37 Q256.355 1517.37 254.527 1520.93 Q252.721 1524.47 252.721 1531.6 Q252.721 1538.71 254.527 1542.27 Q256.355 1545.82 259.966 1545.82 Q263.601 1545.82 265.406 1542.27 Q267.235 1538.71 267.235 1531.6 Q267.235 1524.47 265.406 1520.93 Q263.601 1517.37 259.966 1517.37 M259.966 1513.66 Q265.776 1513.66 268.832 1518.27 Q271.911 1522.85 271.911 1531.6 Q271.911 1540.33 268.832 1544.94 Q265.776 1549.52 259.966 1549.52 Q254.156 1549.52 251.077 1544.94 Q248.022 1540.33 248.022 1531.6 Q248.022 1522.85 251.077 1518.27 Q254.156 1513.66 259.966 1513.66 Z" fill="#000000" fill-rule="nonzero" fill-opacity="1" /><path clip-path="url(#clip410)" d="M683.503 1532.02 L713.178 1532.02 L713.178 1535.95 L683.503 1535.95 L683.503 1532.02 Z" fill="#000000" fill-rule="nonzero" fill-opacity="1" /><path clip-path="url(#clip410)" d="M733.271 1517.37 Q729.66 1517.37 727.831 1520.93 Q726.026 1524.47 726.026 1531.6 Q726.026 1538.71 727.831 1542.27 Q729.66 1545.82 733.271 1545.82 Q736.905 1545.82 738.711 1542.27 Q740.539 1538.71 740.539 1531.6 Q740.539 1524.47 738.711 1520.93 Q736.905 1517.37 733.271 1517.37 M733.271 1513.66 Q739.081 1513.66 742.137 1518.27 Q745.215 1522.85 745.215 1531.6 Q745.215 1540.33 742.137 1544.94 Q739.081 1549.52 733.271 1549.52 Q727.461 1549.52 724.382 1544.94 Q721.327 1540.33 721.327 1531.6 Q721.327 1522.85 724.382 1518.27 Q727.461 1513.66 733.271 1513.66 Z" fill="#000000" fill-rule="nonzero" fill-opacity="1" /><path clip-path="url(#clip410)" d="M753.433 1542.97 L758.317 1542.97 L758.317 1548.85 L753.433 1548.85 L753.433 1542.97 Z" fill="#000000" fill-rule="nonzero" fill-opacity="1" /><path clip-path="url(#clip410)" d="M768.548 1514.29 L786.905 1514.29 L786.905 1518.22 L772.831 1518.22 L772.831 1526.7 Q773.849 1526.35 774.868 1526.19 Q775.886 1526 776.905 1526 Q782.692 1526 786.072 1529.17 Q789.451 1532.34 789.451 1537.76 Q789.451 1543.34 785.979 1546.44 Q782.507 1549.52 776.187 1549.52 Q774.011 1549.52 771.743 1549.15 Q769.498 1548.78 767.09 1548.04 L767.09 1543.34 Q769.173 1544.47 771.396 1545.03 Q773.618 1545.58 776.095 1545.58 Q780.099 1545.58 782.437 1543.48 Q784.775 1541.37 784.775 1537.76 Q784.775 1534.15 782.437 1532.04 Q780.099 1529.94 776.095 1529.94 Q774.22 1529.94 772.345 1530.35 Q770.493 1530.77 768.548 1531.65 L768.548 1514.29 Z" fill="#000000" fill-rule="nonzero" fill-opacity="1" /><path clip-path="url(#clip410)" d="M1231.9 1517.37 Q1228.29 1517.37 1226.46 1520.93 Q1224.65 1524.47 1224.65 1531.6 Q1224.65 1538.71 1226.46 1542.27 Q1228.29 1545.82 1231.9 1545.82 Q1235.53 1545.82 1237.34 1542.27 Q1239.17 1538.71 1239.17 1531.6 Q1239.17 1524.47 1237.34 1520.93 Q1235.53 1517.37 1231.9 1517.37 M1231.9 1513.66 Q1237.71 1513.66 1240.77 1518.27 Q1243.84 1522.85 1243.84 1531.6 Q1243.84 1540.33 1240.77 1544.94 Q1237.71 1549.52 1231.9 1549.52 Q1226.09 1549.52 1223.01 1544.94 Q1219.96 1540.33 1219.96 1531.6 Q1219.96 1522.85 1223.01 1518.27 Q1226.09 1513.66 1231.9 1513.66 Z" fill="#000000" fill-rule="nonzero" fill-opacity="1" /><path clip-path="url(#clip410)" d="M1252.06 1542.97 L1256.95 1542.97 L1256.95 1548.85 L1252.06 1548.85 L1252.06 1542.97 Z" fill="#000000" fill-rule="nonzero" fill-opacity="1" /><path clip-path="url(#clip410)" d="M1277.13 1517.37 Q1273.52 1517.37 1271.69 1520.93 Q1269.89 1524.47 1269.89 1531.6 Q1269.89 1538.71 1271.69 1542.27 Q1273.52 1545.82 1277.13 1545.82 Q1280.76 1545.82 1282.57 1542.27 Q1284.4 1538.71 1284.4 1531.6 Q1284.4 1524.47 1282.57 1520.93 Q1280.76 1517.37 1277.13 1517.37 M1277.13 1513.66 Q1282.94 1513.66 1286 1518.27 Q1289.08 1522.85 1289.08 1531.6 Q1289.08 1540.33 1286 1544.94 Q1282.94 1549.52 1277.13 1549.52 Q1271.32 1549.52 1268.24 1544.94 Q1265.19 1540.33 1265.19 1531.6 Q1265.19 1522.85 1268.24 1518.27 Q1271.32 1513.66 1277.13 1513.66 Z" fill="#000000" fill-rule="nonzero" fill-opacity="1" /><path clip-path="url(#clip410)" d="M1750.44 1517.37 Q1746.82 1517.37 1745 1520.93 Q1743.19 1524.47 1743.19 1531.6 Q1743.19 1538.71 1745 1542.27 Q1746.82 1545.82 1750.44 1545.82 Q1754.07 1545.82 1755.88 1542.27 Q1757.7 1538.71 1757.7 1531.6 Q1757.7 1524.47 1755.88 1520.93 Q1754.07 1517.37 1750.44 1517.37 M1750.44 1513.66 Q1756.25 1513.66 1759.3 1518.27 Q1762.38 1522.85 1762.38 1531.6 Q1762.38 1540.33 1759.3 1544.94 Q1756.25 1549.52 1750.44 1549.52 Q1744.63 1549.52 1741.55 1544.94 Q1738.49 1540.33 1738.49 1531.6 Q1738.49 1522.85 1741.55 1518.27 Q1744.63 1513.66 1750.44 1513.66 Z" fill="#000000" fill-rule="nonzero" fill-opacity="1" /><path clip-path="url(#clip410)" d="M1770.6 1542.97 L1775.48 1542.97 L1775.48 1548.85 L1770.6 1548.85 L1770.6 1542.97 Z" fill="#000000" fill-rule="nonzero" fill-opacity="1" /><path clip-path="url(#clip410)" d="M1785.71 1514.29 L1804.07 1514.29 L1804.07 1518.22 L1790 1518.22 L1790 1526.7 Q1791.01 1526.35 1792.03 1526.19 Q1793.05 1526 1794.07 1526 Q1799.86 1526 1803.24 1529.17 Q1806.62 1532.34 1806.62 1537.76 Q1806.62 1543.34 1803.14 1546.44 Q1799.67 1549.52 1793.35 1549.52 Q1791.18 1549.52 1788.91 1549.15 Q1786.66 1548.78 1784.25 1548.04 L1784.25 1543.34 Q1786.34 1544.47 1788.56 1545.03 Q1790.78 1545.58 1793.26 1545.58 Q1797.26 1545.58 1799.6 1543.48 Q1801.94 1541.37 1801.94 1537.76 Q1801.94 1534.15 1799.6 1532.04 Q1797.26 1529.94 1793.26 1529.94 Q1791.38 1529.94 1789.51 1530.35 Q1787.66 1530.77 1785.71 1531.65 L1785.71 1514.29 Z" fill="#000000" fill-rule="nonzero" fill-opacity="1" /><path clip-path="url(#clip410)" d="M2257.74 1544.91 L2265.38 1544.91 L2265.38 1518.55 L2257.07 1520.21 L2257.07 1515.95 L2265.34 1514.29 L2270.01 1514.29 L2270.01 1544.91 L2277.65 1544.91 L2277.65 1548.85 L2257.74 1548.85 L2257.74 1544.91 Z" fill="#000000" fill-rule="nonzero" fill-opacity="1" /><path clip-path="url(#clip410)" d="M2287.1 1542.97 L2291.98 1542.97 L2291.98 1548.85 L2287.1 1548.85 L2287.1 1542.97 Z" fill="#000000" fill-rule="nonzero" fill-opacity="1" /><path clip-path="url(#clip410)" d="M2312.17 1517.37 Q2308.55 1517.37 2306.73 1520.93 Q2304.92 1524.47 2304.92 1531.6 Q2304.92 1538.71 2306.73 1542.27 Q2308.55 1545.82 2312.17 1545.82 Q2315.8 1545.82 2317.61 1542.27 Q2319.43 1538.71 2319.43 1531.6 Q2319.43 1524.47 2317.61 1520.93 Q2315.8 1517.37 2312.17 1517.37 M2312.17 1513.66 Q2317.98 1513.66 2321.03 1518.27 Q2324.11 1522.85 2324.11 1531.6 Q2324.11 1540.33 2321.03 1544.94 Q2317.98 1549.52 2312.17 1549.52 Q2306.36 1549.52 2303.28 1544.94 Q2300.22 1540.33 2300.22 1531.6 Q2300.22 1522.85 2303.28 1518.27 Q2306.36 1513.66 2312.17 1513.66 Z" fill="#000000" fill-rule="nonzero" fill-opacity="1" /><polyline clip-path="url(#clip412)" style="stroke:#000000; stroke-linecap:round; stroke-linejoin:round; stroke-width:2; stroke-opacity:0.1; fill:none" points="156.274,1253.77 2352.76,1253.77 "/>
<polyline clip-path="url(#clip412)" style="stroke:#000000; stroke-linecap:round; stroke-linejoin:round; stroke-width:2; stroke-opacity:0.1; fill:none" points="156.274,980.179 2352.76,980.179 "/>
<polyline clip-path="url(#clip412)" style="stroke:#000000; stroke-linecap:round; stroke-linejoin:round; stroke-width:2; stroke-opacity:0.1; fill:none" points="156.274,706.586 2352.76,706.586 "/>
<polyline clip-path="url(#clip412)" style="stroke:#000000; stroke-linecap:round; stroke-linejoin:round; stroke-width:2; stroke-opacity:0.1; fill:none" points="156.274,432.992 2352.76,432.992 "/>
<polyline clip-path="url(#clip412)" style="stroke:#000000; stroke-linecap:round; stroke-linejoin:round; stroke-width:2; stroke-opacity:0.1; fill:none" points="156.274,159.398 2352.76,159.398 "/>
<polyline clip-path="url(#clip410)" style="stroke:#000000; stroke-linecap:round; stroke-linejoin:round; stroke-width:4; stroke-opacity:1; fill:none" points="156.274,1486.45 156.274,47.2441 "/>
<polyline clip-path="url(#clip410)" style="stroke:#000000; stroke-linecap:round; stroke-linejoin:round; stroke-width:4; stroke-opacity:1; fill:none" points="156.274,1253.77 175.172,1253.77 "/>
<polyline clip-path="url(#clip410)" style="stroke:#000000; stroke-linecap:round; stroke-linejoin:round; stroke-width:4; stroke-opacity:1; fill:none" points="156.274,980.179 175.172,980.179 "/>
<polyline clip-path="url(#clip410)" style="stroke:#000000; stroke-linecap:round; stroke-linejoin:round; stroke-width:4; stroke-opacity:1; fill:none" points="156.274,706.586 175.172,706.586 "/>
<polyline clip-path="url(#clip410)" style="stroke:#000000; stroke-linecap:round; stroke-linejoin:round; stroke-width:4; stroke-opacity:1; fill:none" points="156.274,432.992 175.172,432.992 "/>
<polyline clip-path="url(#clip410)" style="stroke:#000000; stroke-linecap:round; stroke-linejoin:round; stroke-width:4; stroke-opacity:1; fill:none" points="156.274,159.398 175.172,159.398 "/>
<path clip-path="url(#clip410)" d="M63.0985 1239.57 Q59.4875 1239.57 57.6588 1243.14 Q55.8532 1246.68 55.8532 1253.81 Q55.8532 1260.91 57.6588 1264.48 Q59.4875 1268.02 63.0985 1268.02 Q66.7328 1268.02 68.5383 1264.48 Q70.367 1260.91 70.367 1253.81 Q70.367 1246.68 68.5383 1243.14 Q66.7328 1239.57 63.0985 1239.57 M63.0985 1235.87 Q68.9087 1235.87 71.9642 1240.47 Q75.0429 1245.06 75.0429 1253.81 Q75.0429 1262.53 71.9642 1267.14 Q68.9087 1271.72 63.0985 1271.72 Q57.2884 1271.72 54.2097 1267.14 Q51.1542 1262.53 51.1542 1253.81 Q51.1542 1245.06 54.2097 1240.47 Q57.2884 1235.87 63.0985 1235.87 Z" fill="#000000" fill-rule="nonzero" fill-opacity="1" /><path clip-path="url(#clip410)" d="M83.2605 1265.17 L88.1447 1265.17 L88.1447 1271.05 L83.2605 1271.05 L83.2605 1265.17 Z" fill="#000000" fill-rule="nonzero" fill-opacity="1" /><path clip-path="url(#clip410)" d="M108.33 1239.57 Q104.719 1239.57 102.89 1243.14 Q101.084 1246.68 101.084 1253.81 Q101.084 1260.91 102.89 1264.48 Q104.719 1268.02 108.33 1268.02 Q111.964 1268.02 113.77 1264.48 Q115.598 1260.91 115.598 1253.81 Q115.598 1246.68 113.77 1243.14 Q111.964 1239.57 108.33 1239.57 M108.33 1235.87 Q114.14 1235.87 117.195 1240.47 Q120.274 1245.06 120.274 1253.81 Q120.274 1262.53 117.195 1267.14 Q114.14 1271.72 108.33 1271.72 Q102.52 1271.72 99.4409 1267.14 Q96.3854 1262.53 96.3854 1253.81 Q96.3854 1245.06 99.4409 1240.47 Q102.52 1235.87 108.33 1235.87 Z" fill="#000000" fill-rule="nonzero" fill-opacity="1" /><path clip-path="url(#clip410)" d="M63.7467 965.978 Q60.1356 965.978 58.3069 969.543 Q56.5014 973.085 56.5014 980.214 Q56.5014 987.321 58.3069 990.885 Q60.1356 994.427 63.7467 994.427 Q67.3809 994.427 69.1865 990.885 Q71.0152 987.321 71.0152 980.214 Q71.0152 973.085 69.1865 969.543 Q67.3809 965.978 63.7467 965.978 M63.7467 962.274 Q69.5568 962.274 72.6124 966.881 Q75.6911 971.464 75.6911 980.214 Q75.6911 988.941 72.6124 993.547 Q69.5568 998.131 63.7467 998.131 Q57.9365 998.131 54.8578 993.547 Q51.8023 988.941 51.8023 980.214 Q51.8023 971.464 54.8578 966.881 Q57.9365 962.274 63.7467 962.274 Z" fill="#000000" fill-rule="nonzero" fill-opacity="1" /><path clip-path="url(#clip410)" d="M83.9086 991.58 L88.7928 991.58 L88.7928 997.459 L83.9086 997.459 L83.9086 991.58 Z" fill="#000000" fill-rule="nonzero" fill-opacity="1" /><path clip-path="url(#clip410)" d="M113.145 978.825 Q116.501 979.543 118.376 981.811 Q120.274 984.08 120.274 987.413 Q120.274 992.529 116.756 995.33 Q113.237 998.131 106.756 998.131 Q104.58 998.131 102.265 997.691 Q99.9733 997.274 97.5197 996.418 L97.5197 991.904 Q99.4641 993.038 101.779 993.617 Q104.094 994.196 106.617 994.196 Q111.015 994.196 113.307 992.459 Q115.621 990.723 115.621 987.413 Q115.621 984.358 113.469 982.645 Q111.339 980.909 107.52 980.909 L103.492 980.909 L103.492 977.066 L107.705 977.066 Q111.154 977.066 112.983 975.7 Q114.811 974.311 114.811 971.719 Q114.811 969.057 112.913 967.645 Q111.038 966.21 107.52 966.21 Q105.598 966.21 103.399 966.626 Q101.2 967.043 98.5613 967.923 L98.5613 963.756 Q101.223 963.015 103.538 962.645 Q105.876 962.274 107.936 962.274 Q113.26 962.274 116.362 964.705 Q119.464 967.112 119.464 971.233 Q119.464 974.103 117.82 976.094 Q116.177 978.061 113.145 978.825 Z" fill="#000000" fill-rule="nonzero" fill-opacity="1" /><path clip-path="url(#clip410)" d="M62.9365 692.384 Q59.3254 692.384 57.4967 695.949 Q55.6912 699.491 55.6912 706.62 Q55.6912 713.727 57.4967 717.292 Q59.3254 720.833 62.9365 720.833 Q66.5707 720.833 68.3763 717.292 Q70.205 713.727 70.205 706.62 Q70.205 699.491 68.3763 695.949 Q66.5707 692.384 62.9365 692.384 M62.9365 688.681 Q68.7467 688.681 71.8022 693.287 Q74.8809 697.87 74.8809 706.62 Q74.8809 715.347 71.8022 719.954 Q68.7467 724.537 62.9365 724.537 Q57.1264 724.537 54.0477 719.954 Q50.9921 715.347 50.9921 706.62 Q50.9921 697.87 54.0477 693.287 Q57.1264 688.681 62.9365 688.681 Z" fill="#000000" fill-rule="nonzero" fill-opacity="1" /><path clip-path="url(#clip410)" d="M83.0984 717.986 L87.9827 717.986 L87.9827 723.866 L83.0984 723.866 L83.0984 717.986 Z" fill="#000000" fill-rule="nonzero" fill-opacity="1" /><path clip-path="url(#clip410)" d="M108.746 704.722 Q105.598 704.722 103.746 706.875 Q101.918 709.028 101.918 712.778 Q101.918 716.504 103.746 718.68 Q105.598 720.833 108.746 720.833 Q111.895 720.833 113.723 718.68 Q115.575 716.504 115.575 712.778 Q115.575 709.028 113.723 706.875 Q111.895 704.722 108.746 704.722 M118.029 690.069 L118.029 694.329 Q116.27 693.495 114.464 693.056 Q112.682 692.616 110.922 692.616 Q106.293 692.616 103.839 695.741 Q101.409 698.866 101.061 705.185 Q102.427 703.171 104.487 702.106 Q106.547 701.018 109.024 701.018 Q114.233 701.018 117.242 704.19 Q120.274 707.338 120.274 712.778 Q120.274 718.102 117.126 721.319 Q113.978 724.537 108.746 724.537 Q102.751 724.537 99.5798 719.954 Q96.4085 715.347 96.4085 706.62 Q96.4085 698.426 100.297 693.565 Q104.186 688.681 110.737 688.681 Q112.496 688.681 114.279 689.028 Q116.084 689.375 118.029 690.069 Z" fill="#000000" fill-rule="nonzero" fill-opacity="1" /><path clip-path="url(#clip410)" d="M63.2837 418.79 Q59.6726 418.79 57.8439 422.355 Q56.0384 425.897 56.0384 433.026 Q56.0384 440.133 57.8439 443.698 Q59.6726 447.239 63.2837 447.239 Q66.918 447.239 68.7235 443.698 Q70.5522 440.133 70.5522 433.026 Q70.5522 425.897 68.7235 422.355 Q66.918 418.79 63.2837 418.79 M63.2837 415.087 Q69.0939 415.087 72.1494 419.693 Q75.2281 424.276 75.2281 433.026 Q75.2281 441.753 72.1494 446.36 Q69.0939 450.943 63.2837 450.943 Q57.4736 450.943 54.3949 446.36 Q51.3393 441.753 51.3393 433.026 Q51.3393 424.276 54.3949 419.693 Q57.4736 415.087 63.2837 415.087 Z" fill="#000000" fill-rule="nonzero" fill-opacity="1" /><path clip-path="url(#clip410)" d="M83.4457 444.392 L88.3299 444.392 L88.3299 450.272 L83.4457 450.272 L83.4457 444.392 Z" fill="#000000" fill-rule="nonzero" fill-opacity="1" /><path clip-path="url(#clip410)" d="M98.6539 449.554 L98.6539 445.295 Q100.413 446.128 102.219 446.568 Q104.024 447.008 105.76 447.008 Q110.39 447.008 112.82 443.906 Q115.274 440.781 115.621 434.438 Q114.279 436.429 112.219 437.494 Q110.158 438.559 107.658 438.559 Q102.473 438.559 99.4409 435.434 Q96.4317 432.286 96.4317 426.846 Q96.4317 421.522 99.5798 418.304 Q102.728 415.087 107.959 415.087 Q113.955 415.087 117.103 419.693 Q120.274 424.276 120.274 433.026 Q120.274 441.198 116.385 446.082 Q112.52 450.943 105.969 450.943 Q104.209 450.943 102.404 450.596 Q100.598 450.249 98.6539 449.554 M107.959 434.901 Q111.108 434.901 112.936 432.749 Q114.788 430.596 114.788 426.846 Q114.788 423.119 112.936 420.966 Q111.108 418.79 107.959 418.79 Q104.811 418.79 102.959 420.966 Q101.131 423.119 101.131 426.846 Q101.131 430.596 102.959 432.749 Q104.811 434.901 107.959 434.901 Z" fill="#000000" fill-rule="nonzero" fill-opacity="1" /><path clip-path="url(#clip410)" d="M55.506 172.743 L63.1448 172.743 L63.1448 146.377 L54.8347 148.044 L54.8347 143.785 L63.0985 142.118 L67.7744 142.118 L67.7744 172.743 L75.4133 172.743 L75.4133 176.678 L55.506 176.678 L55.506 172.743 Z" fill="#000000" fill-rule="nonzero" fill-opacity="1" /><path clip-path="url(#clip410)" d="M84.8577 170.798 L89.7419 170.798 L89.7419 176.678 L84.8577 176.678 L84.8577 170.798 Z" fill="#000000" fill-rule="nonzero" fill-opacity="1" /><path clip-path="url(#clip410)" d="M103.955 172.743 L120.274 172.743 L120.274 176.678 L98.3298 176.678 L98.3298 172.743 Q100.992 169.988 105.575 165.358 Q110.182 160.706 111.362 159.363 Q113.608 156.84 114.487 155.104 Q115.39 153.345 115.39 151.655 Q115.39 148.9 113.445 147.164 Q111.524 145.428 108.422 145.428 Q106.223 145.428 103.77 146.192 Q101.339 146.956 98.5613 148.507 L98.5613 143.785 Q101.385 142.65 103.839 142.072 Q106.293 141.493 108.33 141.493 Q113.7 141.493 116.895 144.178 Q120.089 146.863 120.089 151.354 Q120.089 153.484 119.279 155.405 Q118.492 157.303 116.385 159.896 Q115.807 160.567 112.705 163.784 Q109.603 166.979 103.955 172.743 Z" fill="#000000" fill-rule="nonzero" fill-opacity="1" /><polyline clip-path="url(#clip412)" style="stroke:#009af9; stroke-linecap:round; stroke-linejoin:round; stroke-width:16; stroke-opacity:1; fill:none" stroke-dasharray="8, 16" points="218.439,1112.49 228.852,1099.57 239.264,1089.25 249.677,1082.22 260.09,1079.09 270.503,1080.36 280.916,1086.38 291.329,1097.39 301.741,1113.55 312.154,1135 322.567,1161.79 332.98,1193.53 343.393,1229.1 353.805,1266.34 364.218,1302.38 374.631,1334.55 385.044,1361.42 395.457,1383.14 405.87,1400.9 416.282,1415.73 426.695,1427.55 437.108,1435.12 447.521,1436.72 457.934,1431.15 468.347,1418.34 478.759,1399.27 489.172,1375.46 499.585,1348.34 509.998,1318.82 520.411,1287.48 530.824,1254.91 541.236,1222 551.649,1189.87 562.062,1159.66 572.475,1132.33 582.888,1108.84 593.301,1091.09 603.713,1082.61 614.126,1084.86 624.539,1089.75 634.952,1086.18 645.365,1080.47 655.777,1087.68 666.19,1108.02 676.603,1139.82 687.016,1181.7 697.429,1220.91 707.842,1251.2 718.254,1277.61 728.667,1304.81 739.08,1332.94 749.493,1360.29 759.906,1385.77 770.319,1409.23 780.731,1429.86 791.144,1444.11 801.557,1445.72 811.97,1431.14 822.383,1407.8 832.796,1390.49 843.208,1382.52 853.621,1368.67 864.034,1330.42 874.447,1272.94 884.86,1244.33 895.273,1246.37 905.685,1213.73 916.098,1162.94 926.511,1133.5 936.924,1126.3 947.337,1124.69 957.749,1118.25 968.162,1102.47 978.575,1074.63 988.988,1046.99 999.401,1043.13 1009.81,1064.27 1020.23,1101.98 1030.64,1174.54 1041.05,1247.22 1051.46,1212.94 1061.88,1211.24 1072.29,1274.31 1082.7,1311.47 1093.12,1327.09 1103.53,1345.94 1113.94,1368.71 1124.35,1390.67 1134.77,1410.01 1145.18,1425.59 1155.59,1434.63 1166.01,1434.43 1176.42,1426.84 1186.83,1418.77 1197.24,1414.94 1207.66,1411.72 1218.07,1397.51 1228.48,1355.2 1238.9,1260.65 1249.31,1074.55 1259.72,767.356 1270.13,446.849 1280.55,290.003 1290.96,283.319 1301.37,322.133 1311.79,351.485 1322.2,359.598 1332.61,351.488 1343.02,337.166 1353.44,325.746 1363.85,321.35 1374.26,322.582 1384.68,326.159 1395.09,331.025 1405.5,339.058 1415.91,352.01 1426.33,367.817 1436.74,380.823 1447.15,386.666 1457.57,382.836 1467.98,360.569 1478.39,317.117 1488.8,282.413 1499.22,272.472 1509.63,280.314 1520.04,315.819 1530.45,360.03 1540.87,383.604 1551.28,391.78 1561.69,397.984 1572.11,398.553 1582.52,382.332 1592.93,344.891 1603.34,294.213 1613.76,248.281 1624.17,237.233 1634.58,289.303 1645,345.676 1655.41,389.529 1665.82,443.115 1676.23,457.138 1686.65,440.938 1697.06,398.018 1707.47,321.687 1717.89,237.324 1728.3,192.263 1738.71,207.258 1749.12,264.329 1759.54,334.009 1769.95,395.467 1780.36,438.536 1790.78,459.151 1801.19,455.583 1811.6,427.238 1822.01,376.321 1832.43,311.36 1842.84,248.212 1853.25,204.925 1863.67,195.658 1874.08,229.122 1884.49,304.135 1894.9,399.54 1905.32,478.861 1915.73,514.426 1926.14,499.203 1936.56,439.453 1946.97,349.219 1957.38,250.799 1967.79,172.758 1978.21,142.111 1988.62,172.956 1999.03,257.491 2009.45,367.697 2019.86,468.647 2030.27,532.667 2040.68,545.147 2051.1,503.779 2061.51,417.112 2071.92,304.238 2082.33,193.318 2092.75,116.616 2103.16,102.369 2113.57,165.069 2123.99,295.592 2134.4,454.907 2144.81,581.37 2155.22,619.214 2165.64,554.123 2176.05,422.866 2186.46,285.216 2196.88,186.937 2207.29,144.721 2217.7,153.145 2228.11,197.373 2238.53,261.806 2248.94,333.798 2259.35,404.523 2269.77,468.67 2280.18,523.791 2290.59,569.582 "/>
<polyline clip-path="url(#clip412)" style="stroke:#e26f46; stroke-linecap:round; stroke-linejoin:round; stroke-width:4; stroke-opacity:1; fill:none" points="218.439,1116.8 228.852,1097.36 239.264,1083.03 249.677,1074.28 260.09,1071.38 270.503,1074.43 280.916,1083.34 291.329,1097.81 301.741,1117.37 312.154,1141.38 322.567,1169.06 332.98,1199.51 343.393,1231.72 353.805,1264.66 364.218,1297.24 374.631,1328.4 385.044,1357.13 395.457,1382.48 405.87,1403.63 416.282,1419.89 426.695,1430.73 437.108,1435.8 447.521,1434.92 457.934,1428.13 468.347,1415.65 478.759,1397.89 489.172,1375.42 499.585,1348.99 509.998,1319.44 520.411,1287.75 530.824,1254.96 541.236,1222.12 551.649,1190.32 562.062,1160.59 572.475,1133.9 582.888,1111.12 593.301,1093 603.713,1080.12 614.126,1072.92 624.539,1071.61 634.952,1076.25 645.365,1086.69 655.777,1102.58 666.19,1123.4 676.603,1148.48 687.016,1176.99 697.429,1208.01 707.842,1240.52 718.254,1273.47 728.667,1305.77 739.08,1336.38 749.493,1364.29 759.906,1388.59 770.319,1408.49 780.731,1423.35 791.144,1432.67 801.557,1436.15 811.97,1433.68 822.383,1425.33 832.796,1411.39 843.208,1392.3 853.621,1368.69 864.034,1341.34 874.447,1311.12 884.86,1279.03 895.273,1246.12 905.685,1213.46 916.098,1182.11 926.511,1153.1 936.924,1127.38 947.337,1105.78 957.749,1089.01 968.162,1077.62 978.575,1071.98 988.988,1072.28 999.401,1078.49 1009.81,1090.43 1020.23,1107.7 1030.64,1129.73 1041.05,1155.82 1051.46,1185.1 1061.88,1216.62 1072.29,1249.35 1082.7,1282.23 1093.12,1314.18 1103.53,1344.16 1113.94,1371.19 1124.35,1394.39 1134.77,1412.99 1145.18,1426.4 1155.59,1434.18 1166.01,1436.07 1176.42,1432.01 1186.83,1422.13 1197.24,1406.76 1207.66,1386.39 1218.07,1361.7 1228.48,1333.48 1238.9,1302.66 1249.31,1270.25 1259.72,340.469 1270.13,338.962 1280.55,340.334 1290.96,344.901 1301.37,351.263 1311.79,356.732 1322.2,358.351 1332.61,354.143 1343.02,344.111 1353.44,330.587 1363.85,317.718 1374.26,310.2 1384.68,311.642 1395.09,323.113 1405.5,342.406 1415.91,364.364 1426.33,382.244 1436.74,389.786 1447.15,383.33 1457.57,363.297 1467.98,334.484 1478.39,304.954 1488.8,283.79 1499.22,278.307 1509.63,291.598 1520.04,321.209 1530.45,359.45 1540.87,395.373 1551.28,417.902 1561.69,419.236 1572.11,397.47 1582.52,357.58 1592.93,310.36 1603.34,269.515 1613.76,247.681 1624.17,252.536 1634.58,284.191 1645,334.726 1655.41,390.126 1665.82,434.163 1676.23,453.149 1686.65,440.166 1697.06,397.473 1707.47,336.282 1717.89,273.838 1728.3,228.561 1738.71,214.617 1749.12,237.514 1759.54,292.089 1769.95,363.584 1780.36,431.62 1790.78,476.008 1801.19,482.732 1811.6,448.338 1822.01,381.367 1832.43,300.284 1842.84,228.397 1853.25,187.157 1863.67,189.764 1874.08,236.989 1884.49,316.514 1894.9,406.111 1905.32,479.851 1915.73,515.608 1926.14,501.684 1936.56,440.582 1946.97,348.716 1957.38,252.022 1967.79,178.64 1978.21,150.727 1988.62,177.777 1999.03,253.477 2009.45,357.094 2019.86,459.146 2030.27,529.786 2040.68,547.529 2051.1,505.768 2061.51,415.105 2071.92,300.707 2082.33,195.329 2092.75,129.932 2103.16,124.598 2113.57,182.38 2123.99,287.996 2134.4,411.833 2144.81,518.251 2155.22,575.834 2165.64,566.666 2176.05,491.864 2186.46,371.7 2196.88,240.121 2207.29,135.169 2217.7,87.9763 2228.11,113.542 2238.53,206.01 2248.94,339.921 2259.35,477.209 2269.77,578.026 2280.18,612.297 2290.59,568.688 "/>
<path clip-path="url(#clip410)" d="M229.49 250.738 L675.966 250.738 L675.966 95.2176 L229.49 95.2176  Z" fill="#ffffff" fill-rule="evenodd" fill-opacity="1"/>
<polyline clip-path="url(#clip410)" style="stroke:#000000; stroke-linecap:round; stroke-linejoin:round; stroke-width:4; stroke-opacity:1; fill:none" points="229.49,250.738 675.966,250.738 675.966,95.2176 229.49,95.2176 229.49,250.738 "/>
<polyline clip-path="url(#clip410)" style="stroke:#009af9; stroke-linecap:round; stroke-linejoin:round; stroke-width:16; stroke-opacity:1; fill:none" stroke-dasharray="8, 16" points="253.896,147.058 400.328,147.058 "/>
<path clip-path="url(#clip410)" d="M429.409 133.62 L429.409 146.606 L435.289 146.606 Q438.552 146.606 440.335 144.916 Q442.117 143.227 442.117 140.102 Q442.117 137 440.335 135.31 Q438.552 133.62 435.289 133.62 L429.409 133.62 M424.733 129.778 L435.289 129.778 Q441.099 129.778 444.062 132.416 Q447.048 135.032 447.048 140.102 Q447.048 145.217 444.062 147.833 Q441.099 150.449 435.289 150.449 L429.409 150.449 L429.409 164.338 L424.733 164.338 L424.733 129.778 Z" fill="#000000" fill-rule="nonzero" fill-opacity="1" /><path clip-path="url(#clip410)" d="M467.325 142.393 Q466.608 141.977 465.751 141.791 Q464.918 141.583 463.899 141.583 Q460.288 141.583 458.344 143.944 Q456.423 146.282 456.423 150.68 L456.423 164.338 L452.14 164.338 L452.14 138.412 L456.423 138.412 L456.423 142.44 Q457.765 140.078 459.918 138.944 Q462.071 137.787 465.149 137.787 Q465.589 137.787 466.122 137.856 Q466.654 137.903 467.302 138.018 L467.325 142.393 Z" fill="#000000" fill-rule="nonzero" fill-opacity="1" /><path clip-path="url(#clip410)" d="M492.927 150.31 L492.927 152.393 L473.344 152.393 Q473.622 156.791 475.983 159.106 Q478.367 161.398 482.603 161.398 Q485.057 161.398 487.348 160.796 Q489.663 160.194 491.932 158.99 L491.932 163.018 Q489.64 163.99 487.233 164.5 Q484.825 165.009 482.348 165.009 Q476.145 165.009 472.511 161.398 Q468.899 157.787 468.899 151.629 Q468.899 145.264 472.325 141.537 Q475.774 137.787 481.608 137.787 Q486.839 137.787 489.872 141.166 Q492.927 144.523 492.927 150.31 M488.668 149.06 Q488.622 145.565 486.7 143.481 Q484.802 141.398 481.654 141.398 Q478.089 141.398 475.936 143.412 Q473.807 145.426 473.483 149.083 L488.668 149.06 Z" fill="#000000" fill-rule="nonzero" fill-opacity="1" /><path clip-path="url(#clip410)" d="M516.978 142.347 L516.978 128.319 L521.237 128.319 L521.237 164.338 L516.978 164.338 L516.978 160.449 Q515.635 162.763 513.575 163.898 Q511.538 165.009 508.668 165.009 Q503.969 165.009 501.006 161.259 Q498.066 157.509 498.066 151.398 Q498.066 145.287 501.006 141.537 Q503.969 137.787 508.668 137.787 Q511.538 137.787 513.575 138.921 Q515.635 140.032 516.978 142.347 M502.464 151.398 Q502.464 156.097 504.385 158.782 Q506.33 161.444 509.709 161.444 Q513.089 161.444 515.033 158.782 Q516.978 156.097 516.978 151.398 Q516.978 146.699 515.033 144.037 Q513.089 141.352 509.709 141.352 Q506.33 141.352 504.385 144.037 Q502.464 146.699 502.464 151.398 Z" fill="#000000" fill-rule="nonzero" fill-opacity="1" /><path clip-path="url(#clip410)" d="M530.01 138.412 L534.269 138.412 L534.269 164.338 L530.01 164.338 L530.01 138.412 M530.01 128.319 L534.269 128.319 L534.269 133.713 L530.01 133.713 L530.01 128.319 Z" fill="#000000" fill-rule="nonzero" fill-opacity="1" /><path clip-path="url(#clip410)" d="M561.839 139.407 L561.839 143.389 Q560.033 142.393 558.205 141.907 Q556.399 141.398 554.547 141.398 Q550.404 141.398 548.112 144.037 Q545.82 146.652 545.82 151.398 Q545.82 156.143 548.112 158.782 Q550.404 161.398 554.547 161.398 Q556.399 161.398 558.205 160.912 Q560.033 160.402 561.839 159.407 L561.839 163.342 Q560.056 164.176 558.135 164.592 Q556.237 165.009 554.084 165.009 Q548.228 165.009 544.779 161.328 Q541.33 157.648 541.33 151.398 Q541.33 145.055 544.802 141.421 Q548.297 137.787 554.362 137.787 Q556.33 137.787 558.205 138.203 Q560.08 138.597 561.839 139.407 Z" fill="#000000" fill-rule="nonzero" fill-opacity="1" /><path clip-path="url(#clip410)" d="M573.459 131.051 L573.459 138.412 L582.232 138.412 L582.232 141.722 L573.459 141.722 L573.459 155.796 Q573.459 158.967 574.316 159.87 Q575.195 160.773 577.857 160.773 L582.232 160.773 L582.232 164.338 L577.857 164.338 Q572.927 164.338 571.052 162.509 Q569.177 160.657 569.177 155.796 L569.177 141.722 L566.052 141.722 L566.052 138.412 L569.177 138.412 L569.177 131.051 L573.459 131.051 Z" fill="#000000" fill-rule="nonzero" fill-opacity="1" /><path clip-path="url(#clip410)" d="M587.834 138.412 L592.093 138.412 L592.093 164.338 L587.834 164.338 L587.834 138.412 M587.834 128.319 L592.093 128.319 L592.093 133.713 L587.834 133.713 L587.834 128.319 Z" fill="#000000" fill-rule="nonzero" fill-opacity="1" /><path clip-path="url(#clip410)" d="M611.051 141.398 Q607.626 141.398 605.635 144.083 Q603.644 146.745 603.644 151.398 Q603.644 156.051 605.612 158.736 Q607.602 161.398 611.051 161.398 Q614.454 161.398 616.445 158.713 Q618.436 156.027 618.436 151.398 Q618.436 146.791 616.445 144.106 Q614.454 141.398 611.051 141.398 M611.051 137.787 Q616.607 137.787 619.778 141.398 Q622.95 145.009 622.95 151.398 Q622.95 157.764 619.778 161.398 Q616.607 165.009 611.051 165.009 Q605.473 165.009 602.302 161.398 Q599.153 157.764 599.153 151.398 Q599.153 145.009 602.302 141.398 Q605.473 137.787 611.051 137.787 Z" fill="#000000" fill-rule="nonzero" fill-opacity="1" /><path clip-path="url(#clip410)" d="M651.561 148.689 L651.561 164.338 L647.301 164.338 L647.301 148.828 Q647.301 145.148 645.866 143.319 Q644.431 141.49 641.561 141.49 Q638.112 141.49 636.121 143.69 Q634.13 145.889 634.13 149.685 L634.13 164.338 L629.848 164.338 L629.848 138.412 L634.13 138.412 L634.13 142.44 Q635.658 140.102 637.718 138.944 Q639.801 137.787 642.51 137.787 Q646.977 137.787 649.269 140.565 Q651.561 143.319 651.561 148.689 Z" fill="#000000" fill-rule="nonzero" fill-opacity="1" /><polyline clip-path="url(#clip410)" style="stroke:#e26f46; stroke-linecap:round; stroke-linejoin:round; stroke-width:4; stroke-opacity:1; fill:none" points="253.896,198.898 400.328,198.898 "/>
<path clip-path="url(#clip410)" d="M424.733 181.618 L446.585 181.618 L446.585 185.553 L429.409 185.553 L429.409 195.784 L445.867 195.784 L445.867 199.719 L429.409 199.719 L429.409 212.242 L447.001 212.242 L447.001 216.178 L424.733 216.178 L424.733 181.618 Z" fill="#000000" fill-rule="nonzero" fill-opacity="1" /><path clip-path="url(#clip410)" d="M476.052 190.252 L466.677 202.867 L476.538 216.178 L471.515 216.178 L463.969 205.992 L456.423 216.178 L451.4 216.178 L461.469 202.613 L452.256 190.252 L457.279 190.252 L464.154 199.488 L471.029 190.252 L476.052 190.252 Z" fill="#000000" fill-rule="nonzero" fill-opacity="1" /><path clip-path="url(#clip410)" d="M494.339 203.145 Q489.177 203.145 487.186 204.326 Q485.196 205.506 485.196 208.354 Q485.196 210.622 486.677 211.965 Q488.182 213.284 490.751 213.284 Q494.293 213.284 496.422 210.784 Q498.575 208.261 498.575 204.094 L498.575 203.145 L494.339 203.145 M502.834 201.386 L502.834 216.178 L498.575 216.178 L498.575 212.242 Q497.117 214.603 494.941 215.738 Q492.765 216.849 489.617 216.849 Q485.635 216.849 483.274 214.627 Q480.936 212.381 480.936 208.631 Q480.936 204.256 483.853 202.034 Q486.793 199.812 492.603 199.812 L498.575 199.812 L498.575 199.395 Q498.575 196.455 496.631 194.858 Q494.71 193.238 491.214 193.238 Q488.992 193.238 486.885 193.77 Q484.779 194.303 482.835 195.367 L482.835 191.432 Q485.173 190.53 487.372 190.09 Q489.571 189.627 491.654 189.627 Q497.279 189.627 500.057 192.543 Q502.834 195.46 502.834 201.386 Z" fill="#000000" fill-rule="nonzero" fill-opacity="1" /><path clip-path="url(#clip410)" d="M530.265 191.247 L530.265 195.229 Q528.459 194.233 526.631 193.747 Q524.825 193.238 522.973 193.238 Q518.83 193.238 516.538 195.877 Q514.246 198.492 514.246 203.238 Q514.246 207.983 516.538 210.622 Q518.83 213.238 522.973 213.238 Q524.825 213.238 526.631 212.752 Q528.459 212.242 530.265 211.247 L530.265 215.182 Q528.482 216.016 526.561 216.432 Q524.663 216.849 522.51 216.849 Q516.654 216.849 513.205 213.168 Q509.756 209.488 509.756 203.238 Q509.756 196.895 513.228 193.261 Q516.723 189.627 522.788 189.627 Q524.756 189.627 526.631 190.043 Q528.506 190.437 530.265 191.247 Z" fill="#000000" fill-rule="nonzero" fill-opacity="1" /><path clip-path="url(#clip410)" d="M541.885 182.891 L541.885 190.252 L550.658 190.252 L550.658 193.562 L541.885 193.562 L541.885 207.636 Q541.885 210.807 542.742 211.71 Q543.621 212.613 546.283 212.613 L550.658 212.613 L550.658 216.178 L546.283 216.178 Q541.353 216.178 539.478 214.349 Q537.603 212.497 537.603 207.636 L537.603 193.562 L534.478 193.562 L534.478 190.252 L537.603 190.252 L537.603 182.891 L541.885 182.891 Z" fill="#000000" fill-rule="nonzero" fill-opacity="1" /></svg>
