<?xml version="1.0" encoding="utf-8"?>
<svg xmlns="http://www.w3.org/2000/svg" xmlns:xlink="http://www.w3.org/1999/xlink" width="600" height="400" viewBox="0 0 2400 1600">
<defs>
  <clipPath id="clip840">
    <rect x="0" y="0" width="2400" height="1600"/>
  </clipPath>
</defs>
<path clip-path="url(#clip840)" d="M0 1600 L2400 1600 L2400 0 L0 0  Z" fill="#ffffff" fill-rule="evenodd" fill-opacity="1"/>
<defs>
  <clipPath id="clip841">
    <rect x="480" y="0" width="1681" height="1600"/>
  </clipPath>
</defs>
<path clip-path="url(#clip840)" d="M156.274 1486.45 L2352.76 1486.45 L2352.76 47.2441 L156.274 47.2441  Z" fill="#ffffff" fill-rule="evenodd" fill-opacity="1"/>
<defs>
  <clipPath id="clip842">
    <rect x="156" y="47" width="2197" height="1440"/>
  </clipPath>
</defs>
<polyline clip-path="url(#clip842)" style="stroke:#000000; stroke-linecap:round; stroke-linejoin:round; stroke-width:2; stroke-opacity:0.1; fill:none" points="218.439,1486.45 218.439,47.2441 "/>
<polyline clip-path="url(#clip842)" style="stroke:#000000; stroke-linecap:round; stroke-linejoin:round; stroke-width:2; stroke-opacity:0.1; fill:none" points="736.477,1486.45 736.477,47.2441 "/>
<polyline clip-path="url(#clip842)" style="stroke:#000000; stroke-linecap:round; stroke-linejoin:round; stroke-width:2; stroke-opacity:0.1; fill:none" points="1254.52,1486.45 1254.52,47.2441 "/>
<polyline clip-path="url(#clip842)" style="stroke:#000000; stroke-linecap:round; stroke-linejoin:round; stroke-width:2; stroke-opacity:0.1; fill:none" points="1772.55,1486.45 1772.55,47.2441 "/>
<polyline clip-path="url(#clip842)" style="stroke:#000000; stroke-linecap:round; stroke-linejoin:round; stroke-width:2; stroke-opacity:0.1; fill:none" points="2290.59,1486.45 2290.59,47.2441 "/>
<polyline clip-path="url(#clip840)" style="stroke:#000000; stroke-linecap:round; stroke-linejoin:round; stroke-width:4; stroke-opacity:1; fill:none" points="156.274,1486.45 2352.76,1486.45 "/>
<polyline clip-path="url(#clip840)" style="stroke:#000000; stroke-linecap:round; stroke-linejoin:round; stroke-width:4; stroke-opacity:1; fill:none" points="218.439,1486.45 218.439,1467.55 "/>
<polyline clip-path="url(#clip840)" style="stroke:#000000; stroke-linecap:round; stroke-linejoin:round; stroke-width:4; stroke-opacity:1; fill:none" points="736.477,1486.45 736.477,1467.55 "/>
<polyline clip-path="url(#clip840)" style="stroke:#000000; stroke-linecap:round; stroke-linejoin:round; stroke-width:4; stroke-opacity:1; fill:none" points="1254.52,1486.45 1254.52,1467.55 "/>
<polyline clip-path="url(#clip840)" style="stroke:#000000; stroke-linecap:round; stroke-linejoin:round; stroke-width:4; stroke-opacity:1; fill:none" points="1772.55,1486.45 1772.55,1467.55 "/>
<polyline clip-path="url(#clip840)" style="stroke:#000000; stroke-linecap:round; stroke-linejoin:round; stroke-width:4; stroke-opacity:1; fill:none" points="2290.59,1486.45 2290.59,1467.55 "/>
<path clip-path="url(#clip840)" d="M164.967 1532.02 L194.643 1532.02 L194.643 1535.95 L164.967 1535.95 L164.967 1532.02 Z" fill="#000000" fill-rule="nonzero" fill-opacity="1" /><path clip-path="url(#clip840)" d="M205.545 1544.91 L213.184 1544.91 L213.184 1518.55 L204.874 1520.21 L204.874 1515.95 L213.138 1514.29 L217.814 1514.29 L217.814 1544.91 L225.453 1544.91 L225.453 1548.85 L205.545 1548.85 L205.545 1544.91 Z" fill="#000000" fill-rule="nonzero" fill-opacity="1" /><path clip-path="url(#clip840)" d="M234.897 1542.97 L239.781 1542.97 L239.781 1548.85 L234.897 1548.85 L234.897 1542.97 Z" fill="#000000" fill-rule="nonzero" fill-opacity="1" /><path clip-path="url(#clip840)" d="M259.966 1517.37 Q256.355 1517.37 254.527 1520.93 Q252.721 1524.47 252.721 1531.6 Q252.721 1538.71 254.527 1542.27 Q256.355 1545.82 259.966 1545.82 Q263.601 1545.82 265.406 1542.27 Q267.235 1538.71 267.235 1531.6 Q267.235 1524.47 265.406 1520.93 Q263.601 1517.37 259.966 1517.37 M259.966 1513.66 Q265.776 1513.66 268.832 1518.27 Q271.911 1522.85 271.911 1531.6 Q271.911 1540.33 268.832 1544.94 Q265.776 1549.52 259.966 1549.52 Q254.156 1549.52 251.077 1544.94 Q248.022 1540.33 248.022 1531.6 Q248.022 1522.85 251.077 1518.27 Q254.156 1513.66 259.966 1513.66 Z" fill="#000000" fill-rule="nonzero" fill-opacity="1" /><path clip-path="url(#clip840)" d="M683.503 1532.02 L713.178 1532.02 L713.178 1535.95 L683.503 1535.95 L683.503 1532.02 Z" fill="#000000" fill-rule="nonzero" fill-opacity="1" /><path clip-path="url(#clip840)" d="M733.271 1517.37 Q729.66 1517.37 727.831 1520.93 Q726.026 1524.47 726.026 1531.6 Q726.026 1538.71 727.831 1542.27 Q729.66 1545.82 733.271 1545.82 Q736.905 1545.82 738.711 1542.27 Q740.539 1538.71 740.539 1531.6 Q740.539 1524.47 738.711 1520.93 Q736.905 1517.37 733.271 1517.37 M733.271 1513.66 Q739.081 1513.66 742.137 1518.27 Q745.215 1522.85 745.215 1531.6 Q745.215 1540.33 742.137 1544.94 Q739.081 1549.52 733.271 1549.52 Q727.461 1549.52 724.382 1544.94 Q721.327 1540.33 721.327 1531.6 Q721.327 1522.85 724.382 1518.27 Q727.461 1513.66 733.271 1513.66 Z" fill="#000000" fill-rule="nonzero" fill-opacity="1" /><path clip-path="url(#clip840)" d="M753.433 1542.97 L758.317 1542.97 L758.317 1548.85 L753.433 1548.85 L753.433 1542.97 Z" fill="#000000" fill-rule="nonzero" fill-opacity="1" /><path clip-path="url(#clip840)" d="M768.548 1514.29 L786.905 1514.29 L786.905 1518.22 L772.831 1518.22 L772.831 1526.7 Q773.849 1526.35 774.868 1526.19 Q775.886 1526 776.905 1526 Q782.692 1526 786.072 1529.17 Q789.451 1532.34 789.451 1537.76 Q789.451 1543.34 785.979 1546.44 Q782.507 1549.52 776.187 1549.52 Q774.011 1549.52 771.743 1549.15 Q769.498 1548.78 767.09 1548.04 L767.09 1543.34 Q769.173 1544.47 771.396 1545.03 Q773.618 1545.58 776.095 1545.58 Q780.099 1545.58 782.437 1543.48 Q784.775 1541.37 784.775 1537.76 Q784.775 1534.15 782.437 1532.04 Q780.099 1529.94 776.095 1529.94 Q774.22 1529.94 772.345 1530.35 Q770.493 1530.77 768.548 1531.65 L768.548 1514.29 Z" fill="#000000" fill-rule="nonzero" fill-opacity="1" /><path clip-path="url(#clip840)" d="M1231.9 1517.37 Q1228.29 1517.37 1226.46 1520.93 Q1224.65 1524.47 1224.65 1531.6 Q1224.65 1538.71 1226.46 1542.27 Q1228.29 1545.82 1231.9 1545.82 Q1235.53 1545.82 1237.34 1542.27 Q1239.17 1538.71 1239.17 1531.6 Q1239.17 1524.47 1237.34 1520.93 Q1235.53 1517.37 1231.9 1517.37 M1231.9 1513.66 Q1237.71 1513.66 1240.77 1518.27 Q1243.84 1522.85 1243.84 1531.6 Q1243.84 1540.33 1240.77 1544.94 Q1237.71 1549.52 1231.9 1549.52 Q1226.09 1549.52 1223.01 1544.94 Q1219.96 1540.33 1219.96 1531.6 Q1219.96 1522.85 1223.01 1518.27 Q1226.09 1513.66 1231.9 1513.66 Z" fill="#000000" fill-rule="nonzero" fill-opacity="1" /><path clip-path="url(#clip840)" d="M1252.06 1542.97 L1256.95 1542.97 L1256.95 1548.85 L1252.06 1548.85 L1252.06 1542.97 Z" fill="#000000" fill-rule="nonzero" fill-opacity="1" /><path clip-path="url(#clip840)" d="M1277.13 1517.37 Q1273.52 1517.37 1271.69 1520.93 Q1269.89 1524.47 1269.89 1531.6 Q1269.89 1538.71 1271.69 1542.27 Q1273.52 1545.82 1277.13 1545.82 Q1280.76 1545.82 1282.57 1542.27 Q1284.4 1538.71 1284.4 1531.6 Q1284.4 1524.47 1282.57 1520.93 Q1280.76 1517.37 1277.13 1517.37 M1277.13 1513.66 Q1282.94 1513.66 1286 1518.27 Q1289.08 1522.85 1289.08 1531.6 Q1289.08 1540.33 1286 1544.94 Q1282.94 1549.52 1277.13 1549.52 Q1271.32 1549.52 1268.24 1544.94 Q1265.19 1540.33 1265.19 1531.6 Q1265.19 1522.85 1268.24 1518.27 Q1271.32 1513.66 1277.13 1513.66 Z" fill="#000000" fill-rule="nonzero" fill-opacity="1" /><path clip-path="url(#clip840)" d="M1750.44 1517.37 Q1746.82 1517.37 1745 1520.93 Q1743.19 1524.47 1743.19 1531.6 Q1743.19 1538.71 1745 1542.27 Q1746.82 1545.82 1750.44 1545.82 Q1754.07 1545.82 1755.88 1542.27 Q1757.7 1538.71 1757.7 1531.6 Q1757.7 1524.47 1755.88 1520.93 Q1754.07 1517.37 1750.44 1517.37 M1750.44 1513.66 Q1756.25 1513.66 1759.3 1518.27 Q1762.38 1522.85 1762.38 1531.6 Q1762.38 1540.33 1759.3 1544.94 Q1756.25 1549.52 1750.44 1549.52 Q1744.63 1549.52 1741.55 1544.94 Q1738.49 1540.33 1738.49 1531.6 Q1738.49 1522.85 1741.55 1518.27 Q1744.63 1513.66 1750.44 1513.66 Z" fill="#000000" fill-rule="nonzero" fill-opacity="1" /><path clip-path="url(#clip840)" d="M1770.6 1542.97 L1775.48 1542.97 L1775.48 1548.85 L1770.6 1548.85 L1770.6 1542.97 Z" fill="#000000" fill-rule="nonzero" fill-opacity="1" /><path clip-path="url(#clip840)" d="M1785.71 1514.29 L1804.07 1514.29 L1804.07 1518.22 L1790 1518.22 L1790 1526.7 Q1791.01 1526.35 1792.03 1526.19 Q1793.05 1526 1794.07 1526 Q1799.86 1526 1803.24 1529.17 Q1806.62 1532.34 1806.62 1537.76 Q1806.62 1543.34 1803.14 1546.44 Q1799.67 1549.52 1793.35 1549.52 Q1791.18 1549.52 1788.91 1549.15 Q1786.66 1548.78 1784.25 1548.04 L1784.25 1543.34 Q1786.34 1544.47 1788.56 1545.03 Q1790.78 1545.58 1793.26 1545.58 Q1797.26 1545.58 1799.6 1543.48 Q1801.94 1541.37 1801.94 1537.76 Q1801.94 1534.15 1799.6 1532.04 Q1797.26 1529.94 1793.26 1529.94 Q1791.38 1529.94 1789.51 1530.35 Q1787.66 1530.77 1785.71 1531.65 L1785.71 1514.29 Z" fill="#000000" fill-rule="nonzero" fill-opacity="1" /><path clip-path="url(#clip840)" d="M2257.74 1544.91 L2265.38 1544.91 L2265.38 1518.55 L2257.07 1520.21 L2257.07 1515.95 L2265.34 1514.29 L2270.01 1514.29 L2270.01 1544.91 L2277.65 1544.91 L2277.65 1548.85 L2257.74 1548.85 L2257.74 1544.91 Z" fill="#000000" fill-rule="nonzero" fill-opacity="1" /><path clip-path="url(#clip840)" d="M2287.1 1542.97 L2291.98 1542.97 L2291.98 1548.85 L2287.1 1548.85 L2287.1 1542.97 Z" fill="#000000" fill-rule="nonzero" fill-opacity="1" /><path clip-path="url(#clip840)" d="M2312.17 1517.37 Q2308.55 1517.37 2306.73 1520.93 Q2304.92 1524.47 2304.92 1531.6 Q2304.92 1538.71 2306.73 1542.27 Q2308.55 1545.82 2312.17 1545.82 Q2315.8 1545.82 2317.61 1542.27 Q2319.43 1538.71 2319.43 1531.6 Q2319.43 1524.47 2317.61 1520.93 Q2315.8 1517.37 2312.17 1517.37 M2312.17 1513.66 Q2317.98 1513.66 2321.03 1518.27 Q2324.11 1522.85 2324.11 1531.6 Q2324.11 1540.33 2321.03 1544.94 Q2317.98 1549.52 2312.17 1549.52 Q2306.36 1549.52 2303.28 1544.94 Q2300.22 1540.33 2300.22 1531.6 Q2300.22 1522.85 2303.28 1518.27 Q2306.36 1513.66 2312.17 1513.66 Z" fill="#000000" fill-rule="nonzero" fill-opacity="1" /><polyline clip-path="url(#clip842)" style="stroke:#000000; stroke-linecap:round; stroke-linejoin:round; stroke-width:2; stroke-opacity:0.1; fill:none" points="156.274,1262.69 2352.76,1262.69 "/>
<polyline clip-path="url(#clip842)" style="stroke:#000000; stroke-linecap:round; stroke-linejoin:round; stroke-width:2; stroke-opacity:0.1; fill:none" points="156.274,1005.57 2352.76,1005.57 "/>
<polyline clip-path="url(#clip842)" style="stroke:#000000; stroke-linecap:round; stroke-linejoin:round; stroke-width:2; stroke-opacity:0.1; fill:none" points="156.274,748.439 2352.76,748.439 "/>
<polyline clip-path="url(#clip842)" style="stroke:#000000; stroke-linecap:round; stroke-linejoin:round; stroke-width:2; stroke-opacity:0.1; fill:none" points="156.274,491.311 2352.76,491.311 "/>
<polyline clip-path="url(#clip842)" style="stroke:#000000; stroke-linecap:round; stroke-linejoin:round; stroke-width:2; stroke-opacity:0.1; fill:none" points="156.274,234.184 2352.76,234.184 "/>
<polyline clip-path="url(#clip840)" style="stroke:#000000; stroke-linecap:round; stroke-linejoin:round; stroke-width:4; stroke-opacity:1; fill:none" points="156.274,1486.45 156.274,47.2441 "/>
<polyline clip-path="url(#clip840)" style="stroke:#000000; stroke-linecap:round; stroke-linejoin:round; stroke-width:4; stroke-opacity:1; fill:none" points="156.274,1262.69 175.172,1262.69 "/>
<polyline clip-path="url(#clip840)" style="stroke:#000000; stroke-linecap:round; stroke-linejoin:round; stroke-width:4; stroke-opacity:1; fill:none" points="156.274,1005.57 175.172,1005.57 "/>
<polyline clip-path="url(#clip840)" style="stroke:#000000; stroke-linecap:round; stroke-linejoin:round; stroke-width:4; stroke-opacity:1; fill:none" points="156.274,748.439 175.172,748.439 "/>
<polyline clip-path="url(#clip840)" style="stroke:#000000; stroke-linecap:round; stroke-linejoin:round; stroke-width:4; stroke-opacity:1; fill:none" points="156.274,491.311 175.172,491.311 "/>
<polyline clip-path="url(#clip840)" style="stroke:#000000; stroke-linecap:round; stroke-linejoin:round; stroke-width:4; stroke-opacity:1; fill:none" points="156.274,234.184 175.172,234.184 "/>
<path clip-path="url(#clip840)" d="M63.0985 1248.49 Q59.4875 1248.49 57.6588 1252.06 Q55.8532 1255.6 55.8532 1262.73 Q55.8532 1269.84 57.6588 1273.4 Q59.4875 1276.94 63.0985 1276.94 Q66.7328 1276.94 68.5383 1273.4 Q70.367 1269.84 70.367 1262.73 Q70.367 1255.6 68.5383 1252.06 Q66.7328 1248.49 63.0985 1248.49 M63.0985 1244.79 Q68.9087 1244.79 71.9642 1249.4 Q75.0429 1253.98 75.0429 1262.73 Q75.0429 1271.46 71.9642 1276.06 Q68.9087 1280.65 63.0985 1280.65 Q57.2884 1280.65 54.2097 1276.06 Q51.1542 1271.46 51.1542 1262.73 Q51.1542 1253.98 54.2097 1249.4 Q57.2884 1244.79 63.0985 1244.79 Z" fill="#000000" fill-rule="nonzero" fill-opacity="1" /><path clip-path="url(#clip840)" d="M83.2605 1274.09 L88.1447 1274.09 L88.1447 1279.97 L83.2605 1279.97 L83.2605 1274.09 Z" fill="#000000" fill-rule="nonzero" fill-opacity="1" /><path clip-path="url(#clip840)" d="M108.33 1248.49 Q104.719 1248.49 102.89 1252.06 Q101.084 1255.6 101.084 1262.73 Q101.084 1269.84 102.89 1273.4 Q104.719 1276.94 108.33 1276.94 Q111.964 1276.94 113.77 1273.4 Q115.598 1269.84 115.598 1262.73 Q115.598 1255.6 113.77 1252.06 Q111.964 1248.49 108.33 1248.49 M108.33 1244.79 Q114.14 1244.79 117.195 1249.4 Q120.274 1253.98 120.274 1262.73 Q120.274 1271.46 117.195 1276.06 Q114.14 1280.65 108.33 1280.65 Q102.52 1280.65 99.4409 1276.06 Q96.3854 1271.46 96.3854 1262.73 Q96.3854 1253.98 99.4409 1249.4 Q102.52 1244.79 108.33 1244.79 Z" fill="#000000" fill-rule="nonzero" fill-opacity="1" /><path clip-path="url(#clip840)" d="M63.7467 991.365 Q60.1356 991.365 58.3069 994.93 Q56.5014 998.472 56.5014 1005.6 Q56.5014 1012.71 58.3069 1016.27 Q60.1356 1019.81 63.7467 1019.81 Q67.3809 1019.81 69.1865 1016.27 Q71.0152 1012.71 71.0152 1005.6 Q71.0152 998.472 69.1865 994.93 Q67.3809 991.365 63.7467 991.365 M63.7467 987.661 Q69.5568 987.661 72.6124 992.268 Q75.6911 996.851 75.6911 1005.6 Q75.6911 1014.33 72.6124 1018.93 Q69.5568 1023.52 63.7467 1023.52 Q57.9365 1023.52 54.8578 1018.93 Q51.8023 1014.33 51.8023 1005.6 Q51.8023 996.851 54.8578 992.268 Q57.9365 987.661 63.7467 987.661 Z" fill="#000000" fill-rule="nonzero" fill-opacity="1" /><path clip-path="url(#clip840)" d="M83.9086 1016.97 L88.7928 1016.97 L88.7928 1022.85 L83.9086 1022.85 L83.9086 1016.97 Z" fill="#000000" fill-rule="nonzero" fill-opacity="1" /><path clip-path="url(#clip840)" d="M113.145 1004.21 Q116.501 1004.93 118.376 1007.2 Q120.274 1009.47 120.274 1012.8 Q120.274 1017.92 116.756 1020.72 Q113.237 1023.52 106.756 1023.52 Q104.58 1023.52 102.265 1023.08 Q99.9733 1022.66 97.5197 1021.8 L97.5197 1017.29 Q99.4641 1018.43 101.779 1019 Q104.094 1019.58 106.617 1019.58 Q111.015 1019.58 113.307 1017.85 Q115.621 1016.11 115.621 1012.8 Q115.621 1009.74 113.469 1008.03 Q111.339 1006.3 107.52 1006.3 L103.492 1006.3 L103.492 1002.45 L107.705 1002.45 Q111.154 1002.45 112.983 1001.09 Q114.811 999.698 114.811 997.106 Q114.811 994.444 112.913 993.032 Q111.038 991.597 107.52 991.597 Q105.598 991.597 103.399 992.013 Q101.2 992.43 98.5613 993.31 L98.5613 989.143 Q101.223 988.402 103.538 988.032 Q105.876 987.661 107.936 987.661 Q113.26 987.661 116.362 990.092 Q119.464 992.499 119.464 996.62 Q119.464 999.49 117.82 1001.48 Q116.177 1003.45 113.145 1004.21 Z" fill="#000000" fill-rule="nonzero" fill-opacity="1" /><path clip-path="url(#clip840)" d="M62.9365 734.238 Q59.3254 734.238 57.4967 737.802 Q55.6912 741.344 55.6912 748.474 Q55.6912 755.58 57.4967 759.145 Q59.3254 762.686 62.9365 762.686 Q66.5707 762.686 68.3763 759.145 Q70.205 755.58 70.205 748.474 Q70.205 741.344 68.3763 737.802 Q66.5707 734.238 62.9365 734.238 M62.9365 730.534 Q68.7467 730.534 71.8022 735.14 Q74.8809 739.724 74.8809 748.474 Q74.8809 757.2 71.8022 761.807 Q68.7467 766.39 62.9365 766.39 Q57.1264 766.39 54.0477 761.807 Q50.9921 757.2 50.9921 748.474 Q50.9921 739.724 54.0477 735.14 Q57.1264 730.534 62.9365 730.534 Z" fill="#000000" fill-rule="nonzero" fill-opacity="1" /><path clip-path="url(#clip840)" d="M83.0984 759.839 L87.9827 759.839 L87.9827 765.719 L83.0984 765.719 L83.0984 759.839 Z" fill="#000000" fill-rule="nonzero" fill-opacity="1" /><path clip-path="url(#clip840)" d="M108.746 746.575 Q105.598 746.575 103.746 748.728 Q101.918 750.881 101.918 754.631 Q101.918 758.358 103.746 760.534 Q105.598 762.686 108.746 762.686 Q111.895 762.686 113.723 760.534 Q115.575 758.358 115.575 754.631 Q115.575 750.881 113.723 748.728 Q111.895 746.575 108.746 746.575 M118.029 731.923 L118.029 736.182 Q116.27 735.349 114.464 734.909 Q112.682 734.469 110.922 734.469 Q106.293 734.469 103.839 737.594 Q101.409 740.719 101.061 747.038 Q102.427 745.025 104.487 743.96 Q106.547 742.872 109.024 742.872 Q114.233 742.872 117.242 746.043 Q120.274 749.191 120.274 754.631 Q120.274 759.955 117.126 763.173 Q113.978 766.39 108.746 766.39 Q102.751 766.39 99.5798 761.807 Q96.4085 757.2 96.4085 748.474 Q96.4085 740.279 100.297 735.418 Q104.186 730.534 110.737 730.534 Q112.496 730.534 114.279 730.881 Q116.084 731.228 118.029 731.923 Z" fill="#000000" fill-rule="nonzero" fill-opacity="1" /><path clip-path="url(#clip840)" d="M63.2837 477.11 Q59.6726 477.11 57.8439 480.675 Q56.0384 484.216 56.0384 491.346 Q56.0384 498.452 57.8439 502.017 Q59.6726 505.559 63.2837 505.559 Q66.918 505.559 68.7235 502.017 Q70.5522 498.452 70.5522 491.346 Q70.5522 484.216 68.7235 480.675 Q66.918 477.11 63.2837 477.11 M63.2837 473.406 Q69.0939 473.406 72.1494 478.013 Q75.2281 482.596 75.2281 491.346 Q75.2281 500.073 72.1494 504.679 Q69.0939 509.263 63.2837 509.263 Q57.4736 509.263 54.3949 504.679 Q51.3393 500.073 51.3393 491.346 Q51.3393 482.596 54.3949 478.013 Q57.4736 473.406 63.2837 473.406 Z" fill="#000000" fill-rule="nonzero" fill-opacity="1" /><path clip-path="url(#clip840)" d="M83.4457 502.712 L88.3299 502.712 L88.3299 508.591 L83.4457 508.591 L83.4457 502.712 Z" fill="#000000" fill-rule="nonzero" fill-opacity="1" /><path clip-path="url(#clip840)" d="M98.6539 507.874 L98.6539 503.614 Q100.413 504.448 102.219 504.888 Q104.024 505.327 105.76 505.327 Q110.39 505.327 112.82 502.226 Q115.274 499.101 115.621 492.758 Q114.279 494.749 112.219 495.814 Q110.158 496.878 107.658 496.878 Q102.473 496.878 99.4409 493.753 Q96.4317 490.605 96.4317 485.165 Q96.4317 479.841 99.5798 476.624 Q102.728 473.406 107.959 473.406 Q113.955 473.406 117.103 478.013 Q120.274 482.596 120.274 491.346 Q120.274 499.517 116.385 504.401 Q112.52 509.263 105.969 509.263 Q104.209 509.263 102.404 508.915 Q100.598 508.568 98.6539 507.874 M107.959 493.221 Q111.108 493.221 112.936 491.068 Q114.788 488.915 114.788 485.165 Q114.788 481.439 112.936 479.286 Q111.108 477.11 107.959 477.11 Q104.811 477.11 102.959 479.286 Q101.131 481.439 101.131 485.165 Q101.131 488.915 102.959 491.068 Q104.811 493.221 107.959 493.221 Z" fill="#000000" fill-rule="nonzero" fill-opacity="1" /><path clip-path="url(#clip840)" d="M55.506 247.529 L63.1448 247.529 L63.1448 221.163 L54.8347 222.83 L54.8347 218.57 L63.0985 216.904 L67.7744 216.904 L67.7744 247.529 L75.4133 247.529 L75.4133 251.464 L55.506 251.464 L55.506 247.529 Z" fill="#000000" fill-rule="nonzero" fill-opacity="1" /><path clip-path="url(#clip840)" d="M84.8577 245.584 L89.7419 245.584 L89.7419 251.464 L84.8577 251.464 L84.8577 245.584 Z" fill="#000000" fill-rule="nonzero" fill-opacity="1" /><path clip-path="url(#clip840)" d="M103.955 247.529 L120.274 247.529 L120.274 251.464 L98.3298 251.464 L98.3298 247.529 Q100.992 244.774 105.575 240.144 Q110.182 235.492 111.362 234.149 Q113.608 231.626 114.487 229.89 Q115.39 228.13 115.39 226.441 Q115.39 223.686 113.445 221.95 Q111.524 220.214 108.422 220.214 Q106.223 220.214 103.77 220.978 Q101.339 221.742 98.5613 223.293 L98.5613 218.57 Q101.385 217.436 103.839 216.857 Q106.293 216.279 108.33 216.279 Q113.7 216.279 116.895 218.964 Q120.089 221.649 120.089 226.14 Q120.089 228.269 119.279 230.191 Q118.492 232.089 116.385 234.681 Q115.807 235.353 112.705 238.57 Q109.603 241.765 103.955 247.529 Z" fill="#000000" fill-rule="nonzero" fill-opacity="1" /><polyline clip-path="url(#clip842)" style="stroke:#009af9; stroke-linecap:round; stroke-linejoin:round; stroke-width:16; stroke-opacity:1; fill:none" stroke-dasharray="8, 16" points="218.439,1134.45 228.852,1121.53 239.264,1108.84 249.677,1098.28 260.09,1091.85 270.503,1091.34 280.916,1098.12 291.329,1112.71 301.741,1134.39 312.154,1160.83 322.567,1188.79 332.98,1215.98 343.393,1242.74 353.805,1270.91 364.218,1301.12 374.631,1331.69 385.044,1360.05 395.457,1384.37 405.87,1404 416.282,1418.91 426.695,1429.07 437.108,1434.2 447.521,1433.85 457.934,1427.61 468.347,1415.48 478.759,1397.97 489.172,1376.13 499.585,1351.22 509.998,1324.35 520.411,1296.11 530.824,1266.62 541.236,1235.89 551.649,1204.55 562.062,1174.41 572.475,1147.88 582.888,1126.72 593.301,1111.2 603.713,1100.63 614.126,1094.55 624.539,1093.09 634.952,1096.64 645.365,1105.47 655.777,1119.64 666.19,1139.07 676.603,1163.35 687.016,1191.51 697.429,1222.03 707.842,1253.08 718.254,1283.01 728.667,1310.81 739.08,1336.48 749.493,1361.01 759.906,1385.47 770.319,1409.36 780.731,1429.63 791.144,1441.59 801.557,1441.59 811.97,1430.29 822.383,1412.89 832.796,1395.65 843.208,1382.28 853.621,1371.81 864.034,1358.65 874.447,1335.86 884.86,1299.99 895.273,1255.23 905.685,1212.87 916.098,1181.64 926.511,1159.7 936.924,1143.4 947.337,1135.12 957.749,1134.94 968.162,1129.15 978.575,1096.29 988.988,1049.3 999.401,1020.28 1009.81,1033.86 1020.23,1111.09 1030.64,1224.91 1041.05,1291.95 1051.46,1269.15 1061.88,1246.34 1072.29,1185.68 1082.7,1089.44 1093.12,1183.27 1103.53,1349.47 1113.94,1377.93 1124.35,1435.56 1134.77,1445.72 1145.18,1432.03 1155.59,1416.39 1166.01,1394.99 1176.42,1396.04 1186.83,1409.65 1197.24,1423.72 1207.66,1435.06 1218.07,1431.44 1228.48,1378.82 1238.9,1231.6 1249.31,976.95 1259.72,683.597 1270.13,466.244 1280.55,373.903 1290.96,366.746 1301.37,388.504 1311.79,410.508 1322.2,427.382 1332.61,429.317 1343.02,400.45 1353.44,384.837 1363.85,387.245 1374.26,394.011 1384.68,444.973 1395.09,480.415 1405.5,343.933 1415.91,87.9763 1426.33,210.637 1436.74,395.09 1447.15,456.776 1457.57,496.491 1467.98,536.43 1478.39,472.842 1488.8,330.445 1499.22,229.528 1509.63,222.334 1520.04,296.952 1530.45,434.43 1540.87,575.119 1551.28,596.868 1561.69,526.314 1572.11,456.51 1582.52,386.927 1592.93,322.068 1603.34,293.335 1613.76,316.027 1624.17,363.362 1634.58,404.518 1645,433.21 1655.41,453.519 1665.82,467.562 1676.23,474.496 1686.65,471.405 1697.06,454.209 1707.47,420.341 1717.89,373.121 1728.3,324.384 1738.71,291.103 1749.12,288.047 1759.54,323.061 1769.95,393.989 1780.36,482.03 1790.78,550.785 1801.19,566.246 1811.6,523.211 1822.01,445.645 1832.43,364.229 1842.84,300.323 1853.25,265.367 1863.67,265.474 1874.08,302.794 1884.49,372.303 1894.9,457.717 1905.32,532.932 1915.73,571.758 1926.14,560.029 1936.56,501.23 1946.97,413.207 1957.38,320.043 1967.79,244.072 1978.21,205.54 1988.62,233.946 1999.03,342.704 2009.45,476.267 2019.86,566.05 2030.27,599.592 2040.68,594.875 2051.1,561.819 2061.51,494.409 2071.92,385.781 2082.33,258.292 2092.75,171.279 2103.16,169.456 2113.57,243.004 2123.99,358.05 2134.4,482.002 2144.81,582.668 2155.22,632.371 2165.64,615.395 2176.05,533.337 2186.46,409.764 2196.88,288.844 2207.29,216.025 2217.7,209.715 2228.11,255.395 2238.53,325.941 2248.94,400.552 2259.35,468.998 2269.77,528.088 2280.18,577.821 2290.59,619.264 "/>
<polyline clip-path="url(#clip842)" style="stroke:#e26f46; stroke-linecap:round; stroke-linejoin:round; stroke-width:4; stroke-opacity:1; fill:none" points="218.439,1133.96 228.852,1115.7 239.264,1102.23 249.677,1094 260.09,1091.28 270.503,1094.15 280.916,1102.52 291.329,1116.12 301.741,1134.5 312.154,1157.07 322.567,1183.08 332.98,1211.69 343.393,1241.97 353.805,1272.93 364.218,1303.54 374.631,1332.83 385.044,1359.83 395.457,1383.66 405.87,1403.53 416.282,1418.82 426.695,1429 437.108,1433.76 447.521,1432.94 457.934,1426.56 468.347,1414.83 478.759,1398.14 489.172,1377.02 499.585,1352.18 509.998,1324.41 520.411,1294.63 530.824,1263.81 541.236,1232.95 551.649,1203.06 562.062,1175.12 572.475,1150.03 582.888,1128.63 593.301,1111.6 603.713,1099.5 614.126,1092.72 624.539,1091.5 634.952,1095.86 645.365,1105.66 655.777,1120.6 666.19,1140.17 676.603,1163.73 687.016,1190.53 697.429,1219.68 707.842,1250.24 718.254,1281.2 728.667,1311.56 739.08,1340.33 749.493,1366.56 759.906,1389.4 770.319,1408.1 780.731,1422.06 791.144,1430.82 801.557,1434.09 811.97,1431.77 822.383,1423.93 832.796,1410.82 843.208,1392.89 853.621,1370.7 864.034,1344.99 874.447,1316.59 884.86,1286.43 895.273,1255.5 905.685,1224.8 916.098,1195.34 926.511,1168.08 936.924,1143.91 947.337,1123.61 957.749,1107.85 968.162,1097.15 978.575,1091.85 988.988,1092.12 999.401,1097.96 1009.81,1109.18 1020.23,1125.41 1030.64,1146.12 1041.05,1170.63 1051.46,1198.15 1061.88,1227.78 1072.29,1258.54 1082.7,1289.44 1093.12,1319.47 1103.53,1347.64 1113.94,1373.04 1124.35,1394.84 1134.77,1412.33 1145.18,1424.94 1155.59,1432.24 1166.01,1434.02 1176.42,1430.2 1186.83,1420.92 1197.24,1406.47 1207.66,1387.33 1218.07,1364.12 1228.48,1337.6 1238.9,1308.64 1249.31,1278.18 1259.72,404.357 1270.13,402.941 1280.55,404.23 1290.96,408.522 1301.37,414.501 1311.79,419.641 1322.2,421.163 1332.61,417.208 1343.02,407.78 1353.44,395.07 1363.85,382.975 1374.26,375.91 1384.68,377.265 1395.09,388.046 1405.5,406.178 1415.91,426.814 1426.33,443.618 1436.74,450.706 1447.15,444.638 1457.57,425.812 1467.98,398.732 1478.39,370.98 1488.8,351.09 1499.22,345.937 1509.63,358.428 1520.04,386.256 1530.45,422.196 1540.87,455.956 1551.28,477.13 1561.69,478.384 1572.11,457.928 1582.52,420.438 1592.93,376.061 1603.34,337.674 1613.76,317.153 1624.17,321.716 1634.58,351.466 1645,398.96 1655.41,451.025 1665.82,492.412 1676.23,510.255 1686.65,498.054 1697.06,457.93 1707.47,400.422 1717.89,341.736 1728.3,299.184 1738.71,286.079 1749.12,307.598 1759.54,358.889 1769.95,426.081 1780.36,490.022 1790.78,531.739 1801.19,538.058 1811.6,505.734 1822.01,442.794 1832.43,366.591 1842.84,299.03 1853.25,260.272 1863.67,262.722 1874.08,307.105 1884.49,381.844 1894.9,466.048 1905.32,535.351 1915.73,568.955 1926.14,555.869 1936.56,498.445 1946.97,412.108 1957.38,321.233 1967.79,252.268 1978.21,226.034 1988.62,251.457 1999.03,322.6 2009.45,419.981 2019.86,515.892 2030.27,582.28 2040.68,598.955 2051.1,559.708 2061.51,474.501 2071.92,366.988 2082.33,267.952 2092.75,206.491 2103.16,201.478 2113.57,255.783 2123.99,355.042 2134.4,471.426 2144.81,571.439 2155.22,625.557 2165.64,616.94 2176.05,546.641 2186.46,433.708 2196.88,310.049 2207.29,211.413 2217.7,167.061 2228.11,191.088 2238.53,277.991 2248.94,403.842 2259.35,532.868 2269.77,627.617 2280.18,659.825 2290.59,618.84 "/>
<path clip-path="url(#clip840)" d="M229.49 250.738 L675.966 250.738 L675.966 95.2176 L229.49 95.2176  Z" fill="#ffffff" fill-rule="evenodd" fill-opacity="1"/>
<polyline clip-path="url(#clip840)" style="stroke:#000000; stroke-linecap:round; stroke-linejoin:round; stroke-width:4; stroke-opacity:1; fill:none" points="229.49,250.738 675.966,250.738 675.966,95.2176 229.49,95.2176 229.49,250.738 "/>
<polyline clip-path="url(#clip840)" style="stroke:#009af9; stroke-linecap:round; stroke-linejoin:round; stroke-width:16; stroke-opacity:1; fill:none" stroke-dasharray="8, 16" points="253.896,147.058 400.328,147.058 "/>
<path clip-path="url(#clip840)" d="M429.409 133.62 L429.409 146.606 L435.289 146.606 Q438.552 146.606 440.335 144.916 Q442.117 143.227 442.117 140.102 Q442.117 137 440.335 135.31 Q438.552 133.62 435.289 133.62 L429.409 133.62 M424.733 129.778 L435.289 129.778 Q441.099 129.778 444.062 132.416 Q447.048 135.032 447.048 140.102 Q447.048 145.217 444.062 147.833 Q441.099 150.449 435.289 150.449 L429.409 150.449 L429.409 164.338 L424.733 164.338 L424.733 129.778 Z" fill="#000000" fill-rule="nonzero" fill-opacity="1" /><path clip-path="url(#clip840)" d="M467.325 142.393 Q466.608 141.977 465.751 141.791 Q464.918 141.583 463.899 141.583 Q460.288 141.583 458.344 143.944 Q456.423 146.282 456.423 150.68 L456.423 164.338 L452.14 164.338 L452.14 138.412 L456.423 138.412 L456.423 142.44 Q457.765 140.078 459.918 138.944 Q462.071 137.787 465.149 137.787 Q465.589 137.787 466.122 137.856 Q466.654 137.903 467.302 138.018 L467.325 142.393 Z" fill="#000000" fill-rule="nonzero" fill-opacity="1" /><path clip-path="url(#clip840)" d="M492.927 150.31 L492.927 152.393 L473.344 152.393 Q473.622 156.791 475.983 159.106 Q478.367 161.398 482.603 161.398 Q485.057 161.398 487.348 160.796 Q489.663 160.194 491.932 158.99 L491.932 163.018 Q489.64 163.99 487.233 164.5 Q484.825 165.009 482.348 165.009 Q476.145 165.009 472.511 161.398 Q468.899 157.787 468.899 151.629 Q468.899 145.264 472.325 141.537 Q475.774 137.787 481.608 137.787 Q486.839 137.787 489.872 141.166 Q492.927 144.523 492.927 150.31 M488.668 149.06 Q488.622 145.565 486.7 143.481 Q484.802 141.398 481.654 141.398 Q478.089 141.398 475.936 143.412 Q473.807 145.426 473.483 149.083 L488.668 149.06 Z" fill="#000000" fill-rule="nonzero" fill-opacity="1" /><path clip-path="url(#clip840)" d="M516.978 142.347 L516.978 128.319 L521.237 128.319 L521.237 164.338 L516.978 164.338 L516.978 160.449 Q515.635 162.763 513.575 163.898 Q511.538 165.009 508.668 165.009 Q503.969 165.009 501.006 161.259 Q498.066 157.509 498.066 151.398 Q498.066 145.287 501.006 141.537 Q503.969 137.787 508.668 137.787 Q511.538 137.787 513.575 138.921 Q515.635 140.032 516.978 142.347 M502.464 151.398 Q502.464 156.097 504.385 158.782 Q506.33 161.444 509.709 161.444 Q513.089 161.444 515.033 158.782 Q516.978 156.097 516.978 151.398 Q516.978 146.699 515.033 144.037 Q513.089 141.352 509.709 141.352 Q506.33 141.352 504.385 144.037 Q502.464 146.699 502.464 151.398 Z" fill="#000000" fill-rule="nonzero" fill-opacity="1" /><path clip-path="url(#clip840)" d="M530.01 138.412 L534.269 138.412 L534.269 164.338 L530.01 164.338 L530.01 138.412 M530.01 128.319 L534.269 128.319 L534.269 133.713 L530.01 133.713 L530.01 128.319 Z" fill="#000000" fill-rule="nonzero" fill-opacity="1" /><path clip-path="url(#clip840)" d="M561.839 139.407 L561.839 143.389 Q560.033 142.393 558.205 141.907 Q556.399 141.398 554.547 141.398 Q550.404 141.398 548.112 144.037 Q545.82 146.652 545.82 151.398 Q545.82 156.143 548.112 158.782 Q550.404 161.398 554.547 161.398 Q556.399 161.398 558.205 160.912 Q560.033 160.402 561.839 159.407 L561.839 163.342 Q560.056 164.176 558.135 164.592 Q556.237 165.009 554.084 165.009 Q548.228 165.009 544.779 161.328 Q541.33 157.648 541.33 151.398 Q541.33 145.055 544.802 141.421 Q548.297 137.787 554.362 137.787 Q556.33 137.787 558.205 138.203 Q560.08 138.597 561.839 139.407 Z" fill="#000000" fill-rule="nonzero" fill-opacity="1" /><path clip-path="url(#clip840)" d="M573.459 131.051 L573.459 138.412 L582.232 138.412 L582.232 141.722 L573.459 141.722 L573.459 155.796 Q573.459 158.967 574.316 159.87 Q575.195 160.773 577.857 160.773 L582.232 160.773 L582.232 164.338 L577.857 164.338 Q572.927 164.338 571.052 162.509 Q569.177 160.657 569.177 155.796 L569.177 141.722 L566.052 141.722 L566.052 138.412 L569.177 138.412 L569.177 131.051 L573.459 131.051 Z" fill="#000000" fill-rule="nonzero" fill-opacity="1" /><path clip-path="url(#clip840)" d="M587.834 138.412 L592.093 138.412 L592.093 164.338 L587.834 164.338 L587.834 138.412 M587.834 128.319 L592.093 128.319 L592.093 133.713 L587.834 133.713 L587.834 128.319 Z" fill="#000000" fill-rule="nonzero" fill-opacity="1" /><path clip-path="url(#clip840)" d="M611.051 141.398 Q607.626 141.398 605.635 144.083 Q603.644 146.745 603.644 151.398 Q603.644 156.051 605.612 158.736 Q607.602 161.398 611.051 161.398 Q614.454 161.398 616.445 158.713 Q618.436 156.027 618.436 151.398 Q618.436 146.791 616.445 144.106 Q614.454 141.398 611.051 141.398 M611.051 137.787 Q616.607 137.787 619.778 141.398 Q622.95 145.009 622.95 151.398 Q622.95 157.764 619.778 161.398 Q616.607 165.009 611.051 165.009 Q605.473 165.009 602.302 161.398 Q599.153 157.764 599.153 151.398 Q599.153 145.009 602.302 141.398 Q605.473 137.787 611.051 137.787 Z" fill="#000000" fill-rule="nonzero" fill-opacity="1" /><path clip-path="url(#clip840)" d="M651.561 148.689 L651.561 164.338 L647.301 164.338 L647.301 148.828 Q647.301 145.148 645.866 143.319 Q644.431 141.49 641.561 141.49 Q638.112 141.49 636.121 143.69 Q634.13 145.889 634.13 149.685 L634.13 164.338 L629.848 164.338 L629.848 138.412 L634.13 138.412 L634.13 142.44 Q635.658 140.102 637.718 138.944 Q639.801 137.787 642.51 137.787 Q646.977 137.787 649.269 140.565 Q651.561 143.319 651.561 148.689 Z" fill="#000000" fill-rule="nonzero" fill-opacity="1" /><polyline clip-path="url(#clip840)" style="stroke:#e26f46; stroke-linecap:round; stroke-linejoin:round; stroke-width:4; stroke-opacity:1; fill:none" points="253.896,198.898 400.328,198.898 "/>
<path clip-path="url(#clip840)" d="M424.733 181.618 L446.585 181.618 L446.585 185.553 L429.409 185.553 L429.409 195.784 L445.867 195.784 L445.867 199.719 L429.409 199.719 L429.409 212.242 L447.001 212.242 L447.001 216.178 L424.733 216.178 L424.733 181.618 Z" fill="#000000" fill-rule="nonzero" fill-opacity="1" /><path clip-path="url(#clip840)" d="M476.052 190.252 L466.677 202.867 L476.538 216.178 L471.515 216.178 L463.969 205.992 L456.423 216.178 L451.4 216.178 L461.469 202.613 L452.256 190.252 L457.279 190.252 L464.154 199.488 L471.029 190.252 L476.052 190.252 Z" fill="#000000" fill-rule="nonzero" fill-opacity="1" /><path clip-path="url(#clip840)" d="M494.339 203.145 Q489.177 203.145 487.186 204.326 Q485.196 205.506 485.196 208.354 Q485.196 210.622 486.677 211.965 Q488.182 213.284 490.751 213.284 Q494.293 213.284 496.422 210.784 Q498.575 208.261 498.575 204.094 L498.575 203.145 L494.339 203.145 M502.834 201.386 L502.834 216.178 L498.575 216.178 L498.575 212.242 Q497.117 214.603 494.941 215.738 Q492.765 216.849 489.617 216.849 Q485.635 216.849 483.274 214.627 Q480.936 212.381 480.936 208.631 Q480.936 204.256 483.853 202.034 Q486.793 199.812 492.603 199.812 L498.575 199.812 L498.575 199.395 Q498.575 196.455 496.631 194.858 Q494.71 193.238 491.214 193.238 Q488.992 193.238 486.885 193.77 Q484.779 194.303 482.835 195.367 L482.835 191.432 Q485.173 190.53 487.372 190.09 Q489.571 189.627 491.654 189.627 Q497.279 189.627 500.057 192.543 Q502.834 195.46 502.834 201.386 Z" fill="#000000" fill-rule="nonzero" fill-opacity="1" /><path clip-path="url(#clip840)" d="M530.265 191.247 L530.265 195.229 Q528.459 194.233 526.631 193.747 Q524.825 193.238 522.973 193.238 Q518.83 193.238 516.538 195.877 Q514.246 198.492 514.246 203.238 Q514.246 207.983 516.538 210.622 Q518.83 213.238 522.973 213.238 Q524.825 213.238 526.631 212.752 Q528.459 212.242 530.265 211.247 L530.265 215.182 Q528.482 216.016 526.561 216.432 Q524.663 216.849 522.51 216.849 Q516.654 216.849 513.205 213.168 Q509.756 209.488 509.756 203.238 Q509.756 196.895 513.228 193.261 Q516.723 189.627 522.788 189.627 Q524.756 189.627 526.631 190.043 Q528.506 190.437 530.265 191.247 Z" fill="#000000" fill-rule="nonzero" fill-opacity="1" /><path clip-path="url(#clip840)" d="M541.885 182.891 L541.885 190.252 L550.658 190.252 L550.658 193.562 L541.885 193.562 L541.885 207.636 Q541.885 210.807 542.742 211.71 Q543.621 212.613 546.283 212.613 L550.658 212.613 L550.658 216.178 L546.283 216.178 Q541.353 216.178 539.478 214.349 Q537.603 212.497 537.603 207.636 L537.603 193.562 L534.478 193.562 L534.478 190.252 L537.603 190.252 L537.603 182.891 L541.885 182.891 Z" fill="#000000" fill-rule="nonzero" fill-opacity="1" /></svg>
