<?xml version="1.0" encoding="utf-8"?>
<svg xmlns="http://www.w3.org/2000/svg" xmlns:xlink="http://www.w3.org/1999/xlink" width="600" height="400" viewBox="0 0 2400 1600">
<defs>
  <clipPath id="clip330">
    <rect x="0" y="0" width="2400" height="1600"/>
  </clipPath>
</defs>
<path clip-path="url(#clip330)" d="M0 1600 L2400 1600 L2400 0 L0 0  Z" fill="#ffffff" fill-rule="evenodd" fill-opacity="1"/>
<defs>
  <clipPath id="clip331">
    <rect x="480" y="0" width="1681" height="1600"/>
  </clipPath>
</defs>
<path clip-path="url(#clip330)" d="M156.274 1486.45 L2352.76 1486.45 L2352.76 47.2441 L156.274 47.2441  Z" fill="#ffffff" fill-rule="evenodd" fill-opacity="1"/>
<defs>
  <clipPath id="clip332">
    <rect x="156" y="47" width="2197" height="1440"/>
  </clipPath>
</defs>
<polyline clip-path="url(#clip332)" style="stroke:#000000; stroke-linecap:round; stroke-linejoin:round; stroke-width:2; stroke-opacity:0.1; fill:none" points="218.439,1486.45 218.439,47.2441 "/>
<polyline clip-path="url(#clip332)" style="stroke:#000000; stroke-linecap:round; stroke-linejoin:round; stroke-width:2; stroke-opacity:0.1; fill:none" points="736.477,1486.45 736.477,47.2441 "/>
<polyline clip-path="url(#clip332)" style="stroke:#000000; stroke-linecap:round; stroke-linejoin:round; stroke-width:2; stroke-opacity:0.1; fill:none" points="1254.52,1486.45 1254.52,47.2441 "/>
<polyline clip-path="url(#clip332)" style="stroke:#000000; stroke-linecap:round; stroke-linejoin:round; stroke-width:2; stroke-opacity:0.1; fill:none" points="1772.55,1486.45 1772.55,47.2441 "/>
<polyline clip-path="url(#clip332)" style="stroke:#000000; stroke-linecap:round; stroke-linejoin:round; stroke-width:2; stroke-opacity:0.1; fill:none" points="2290.59,1486.45 2290.59,47.2441 "/>
<polyline clip-path="url(#clip330)" style="stroke:#000000; stroke-linecap:round; stroke-linejoin:round; stroke-width:4; stroke-opacity:1; fill:none" points="156.274,1486.45 2352.76,1486.45 "/>
<polyline clip-path="url(#clip330)" style="stroke:#000000; stroke-linecap:round; stroke-linejoin:round; stroke-width:4; stroke-opacity:1; fill:none" points="218.439,1486.45 218.439,1467.55 "/>
<polyline clip-path="url(#clip330)" style="stroke:#000000; stroke-linecap:round; stroke-linejoin:round; stroke-width:4; stroke-opacity:1; fill:none" points="736.477,1486.45 736.477,1467.55 "/>
<polyline clip-path="url(#clip330)" style="stroke:#000000; stroke-linecap:round; stroke-linejoin:round; stroke-width:4; stroke-opacity:1; fill:none" points="1254.52,1486.45 1254.52,1467.55 "/>
<polyline clip-path="url(#clip330)" style="stroke:#000000; stroke-linecap:round; stroke-linejoin:round; stroke-width:4; stroke-opacity:1; fill:none" points="1772.55,1486.45 1772.55,1467.55 "/>
<polyline clip-path="url(#clip330)" style="stroke:#000000; stroke-linecap:round; stroke-linejoin:round; stroke-width:4; stroke-opacity:1; fill:none" points="2290.59,1486.45 2290.59,1467.55 "/>
<path clip-path="url(#clip330)" d="M164.967 1532.02 L194.643 1532.02 L194.643 1535.95 L164.967 1535.95 L164.967 1532.02 Z" fill="#000000" fill-rule="nonzero" fill-opacity="1" /><path clip-path="url(#clip330)" d="M205.545 1544.91 L213.184 1544.91 L213.184 1518.55 L204.874 1520.21 L204.874 1515.95 L213.138 1514.29 L217.814 1514.29 L217.814 1544.91 L225.453 1544.91 L225.453 1548.85 L205.545 1548.85 L205.545 1544.91 Z" fill="#000000" fill-rule="nonzero" fill-opacity="1" /><path clip-path="url(#clip330)" d="M234.897 1542.97 L239.781 1542.97 L239.781 1548.85 L234.897 1548.85 L234.897 1542.97 Z" fill="#000000" fill-rule="nonzero" fill-opacity="1" /><path clip-path="url(#clip330)" d="M259.966 1517.37 Q256.355 1517.37 254.527 1520.93 Q252.721 1524.47 252.721 1531.6 Q252.721 1538.71 254.527 1542.27 Q256.355 1545.82 259.966 1545.82 Q263.601 1545.82 265.406 1542.27 Q267.235 1538.71 267.235 1531.6 Q267.235 1524.47 265.406 1520.93 Q263.601 1517.37 259.966 1517.37 M259.966 1513.66 Q265.776 1513.66 268.832 1518.27 Q271.911 1522.85 271.911 1531.6 Q271.911 1540.33 268.832 1544.94 Q265.776 1549.52 259.966 1549.52 Q254.156 1549.52 251.077 1544.94 Q248.022 1540.33 248.022 1531.6 Q248.022 1522.85 251.077 1518.27 Q254.156 1513.66 259.966 1513.66 Z" fill="#000000" fill-rule="nonzero" fill-opacity="1" /><path clip-path="url(#clip330)" d="M683.503 1532.02 L713.178 1532.02 L713.178 1535.95 L683.503 1535.95 L683.503 1532.02 Z" fill="#000000" fill-rule="nonzero" fill-opacity="1" /><path clip-path="url(#clip330)" d="M733.271 1517.37 Q729.66 1517.37 727.831 1520.93 Q726.026 1524.47 726.026 1531.6 Q726.026 1538.71 727.831 1542.27 Q729.66 1545.82 733.271 1545.82 Q736.905 1545.82 738.711 1542.27 Q740.539 1538.71 740.539 1531.6 Q740.539 1524.47 738.711 1520.93 Q736.905 1517.37 733.271 1517.37 M733.271 1513.66 Q739.081 1513.66 742.137 1518.27 Q745.215 1522.85 745.215 1531.6 Q745.215 1540.33 742.137 1544.94 Q739.081 1549.52 733.271 1549.52 Q727.461 1549.52 724.382 1544.94 Q721.327 1540.33 721.327 1531.6 Q721.327 1522.85 724.382 1518.27 Q727.461 1513.66 733.271 1513.66 Z" fill="#000000" fill-rule="nonzero" fill-opacity="1" /><path clip-path="url(#clip330)" d="M753.433 1542.97 L758.317 1542.97 L758.317 1548.85 L753.433 1548.85 L753.433 1542.97 Z" fill="#000000" fill-rule="nonzero" fill-opacity="1" /><path clip-path="url(#clip330)" d="M768.548 1514.29 L786.905 1514.29 L786.905 1518.22 L772.831 1518.22 L772.831 1526.7 Q773.849 1526.35 774.868 1526.19 Q775.886 1526 776.905 1526 Q782.692 1526 786.072 1529.17 Q789.451 1532.34 789.451 1537.76 Q789.451 1543.34 785.979 1546.44 Q782.507 1549.52 776.187 1549.52 Q774.011 1549.52 771.743 1549.15 Q769.498 1548.78 767.09 1548.04 L767.09 1543.34 Q769.173 1544.47 771.396 1545.03 Q773.618 1545.58 776.095 1545.58 Q780.099 1545.58 782.437 1543.48 Q784.775 1541.37 784.775 1537.76 Q784.775 1534.15 782.437 1532.04 Q780.099 1529.94 776.095 1529.94 Q774.22 1529.94 772.345 1530.35 Q770.493 1530.77 768.548 1531.65 L768.548 1514.29 Z" fill="#000000" fill-rule="nonzero" fill-opacity="1" /><path clip-path="url(#clip330)" d="M1231.9 1517.37 Q1228.29 1517.37 1226.46 1520.93 Q1224.65 1524.47 1224.65 1531.6 Q1224.65 1538.71 1226.46 1542.27 Q1228.29 1545.82 1231.9 1545.82 Q1235.53 1545.82 1237.34 1542.27 Q1239.17 1538.71 1239.17 1531.6 Q1239.17 1524.47 1237.34 1520.93 Q1235.53 1517.37 1231.9 1517.37 M1231.9 1513.66 Q1237.71 1513.66 1240.77 1518.27 Q1243.84 1522.85 1243.84 1531.6 Q1243.84 1540.33 1240.77 1544.94 Q1237.71 1549.52 1231.9 1549.52 Q1226.09 1549.52 1223.01 1544.94 Q1219.96 1540.33 1219.96 1531.6 Q1219.96 1522.85 1223.01 1518.27 Q1226.09 1513.66 1231.9 1513.66 Z" fill="#000000" fill-rule="nonzero" fill-opacity="1" /><path clip-path="url(#clip330)" d="M1252.06 1542.97 L1256.95 1542.97 L1256.95 1548.85 L1252.06 1548.85 L1252.06 1542.97 Z" fill="#000000" fill-rule="nonzero" fill-opacity="1" /><path clip-path="url(#clip330)" d="M1277.13 1517.37 Q1273.52 1517.37 1271.69 1520.93 Q1269.89 1524.47 1269.89 1531.6 Q1269.89 1538.71 1271.69 1542.27 Q1273.52 1545.82 1277.13 1545.82 Q1280.76 1545.82 1282.57 1542.27 Q1284.4 1538.71 1284.4 1531.6 Q1284.4 1524.47 1282.57 1520.93 Q1280.76 1517.37 1277.13 1517.37 M1277.13 1513.66 Q1282.94 1513.66 1286 1518.27 Q1289.08 1522.85 1289.08 1531.6 Q1289.08 1540.33 1286 1544.94 Q1282.94 1549.52 1277.13 1549.52 Q1271.32 1549.52 1268.24 1544.94 Q1265.19 1540.33 1265.19 1531.6 Q1265.19 1522.85 1268.24 1518.27 Q1271.32 1513.66 1277.13 1513.66 Z" fill="#000000" fill-rule="nonzero" fill-opacity="1" /><path clip-path="url(#clip330)" d="M1750.44 1517.37 Q1746.82 1517.37 1745 1520.93 Q1743.19 1524.47 1743.19 1531.6 Q1743.19 1538.71 1745 1542.27 Q1746.82 1545.82 1750.44 1545.82 Q1754.07 1545.82 1755.88 1542.27 Q1757.7 1538.71 1757.7 1531.6 Q1757.7 1524.47 1755.88 1520.93 Q1754.07 1517.37 1750.44 1517.37 M1750.44 1513.66 Q1756.25 1513.66 1759.3 1518.27 Q1762.38 1522.85 1762.38 1531.6 Q1762.38 1540.33 1759.3 1544.94 Q1756.25 1549.52 1750.44 1549.52 Q1744.63 1549.52 1741.55 1544.94 Q1738.49 1540.33 1738.49 1531.6 Q1738.49 1522.85 1741.55 1518.27 Q1744.63 1513.66 1750.44 1513.66 Z" fill="#000000" fill-rule="nonzero" fill-opacity="1" /><path clip-path="url(#clip330)" d="M1770.6 1542.97 L1775.48 1542.97 L1775.48 1548.85 L1770.6 1548.85 L1770.6 1542.97 Z" fill="#000000" fill-rule="nonzero" fill-opacity="1" /><path clip-path="url(#clip330)" d="M1785.71 1514.29 L1804.07 1514.29 L1804.07 1518.22 L1790 1518.22 L1790 1526.7 Q1791.01 1526.35 1792.03 1526.19 Q1793.05 1526 1794.07 1526 Q1799.86 1526 1803.24 1529.17 Q1806.62 1532.34 1806.62 1537.76 Q1806.62 1543.34 1803.14 1546.44 Q1799.67 1549.52 1793.35 1549.52 Q1791.18 1549.52 1788.91 1549.15 Q1786.66 1548.78 1784.25 1548.04 L1784.25 1543.34 Q1786.34 1544.47 1788.56 1545.03 Q1790.78 1545.58 1793.26 1545.58 Q1797.26 1545.58 1799.6 1543.48 Q1801.94 1541.37 1801.94 1537.76 Q1801.94 1534.15 1799.6 1532.04 Q1797.26 1529.94 1793.26 1529.94 Q1791.38 1529.94 1789.51 1530.35 Q1787.66 1530.77 1785.71 1531.65 L1785.71 1514.29 Z" fill="#000000" fill-rule="nonzero" fill-opacity="1" /><path clip-path="url(#clip330)" d="M2257.74 1544.91 L2265.38 1544.91 L2265.38 1518.55 L2257.07 1520.21 L2257.07 1515.95 L2265.34 1514.29 L2270.01 1514.29 L2270.01 1544.91 L2277.65 1544.91 L2277.65 1548.85 L2257.74 1548.85 L2257.74 1544.91 Z" fill="#000000" fill-rule="nonzero" fill-opacity="1" /><path clip-path="url(#clip330)" d="M2287.1 1542.97 L2291.98 1542.97 L2291.98 1548.85 L2287.1 1548.85 L2287.1 1542.97 Z" fill="#000000" fill-rule="nonzero" fill-opacity="1" /><path clip-path="url(#clip330)" d="M2312.17 1517.37 Q2308.55 1517.37 2306.73 1520.93 Q2304.92 1524.47 2304.92 1531.6 Q2304.92 1538.71 2306.73 1542.27 Q2308.55 1545.82 2312.17 1545.82 Q2315.8 1545.82 2317.61 1542.27 Q2319.43 1538.71 2319.43 1531.6 Q2319.43 1524.47 2317.61 1520.93 Q2315.8 1517.37 2312.17 1517.37 M2312.17 1513.66 Q2317.98 1513.66 2321.03 1518.27 Q2324.11 1522.85 2324.11 1531.6 Q2324.11 1540.33 2321.03 1544.94 Q2317.98 1549.52 2312.17 1549.52 Q2306.36 1549.52 2303.28 1544.94 Q2300.22 1540.33 2300.22 1531.6 Q2300.22 1522.85 2303.28 1518.27 Q2306.36 1513.66 2312.17 1513.66 Z" fill="#000000" fill-rule="nonzero" fill-opacity="1" /><polyline clip-path="url(#clip332)" style="stroke:#000000; stroke-linecap:round; stroke-linejoin:round; stroke-width:2; stroke-opacity:0.1; fill:none" points="156.274,1225.47 2352.76,1225.47 "/>
<polyline clip-path="url(#clip332)" style="stroke:#000000; stroke-linecap:round; stroke-linejoin:round; stroke-width:2; stroke-opacity:0.1; fill:none" points="156.274,958.515 2352.76,958.515 "/>
<polyline clip-path="url(#clip332)" style="stroke:#000000; stroke-linecap:round; stroke-linejoin:round; stroke-width:2; stroke-opacity:0.1; fill:none" points="156.274,691.564 2352.76,691.564 "/>
<polyline clip-path="url(#clip332)" style="stroke:#000000; stroke-linecap:round; stroke-linejoin:round; stroke-width:2; stroke-opacity:0.1; fill:none" points="156.274,424.614 2352.76,424.614 "/>
<polyline clip-path="url(#clip332)" style="stroke:#000000; stroke-linecap:round; stroke-linejoin:round; stroke-width:2; stroke-opacity:0.1; fill:none" points="156.274,157.664 2352.76,157.664 "/>
<polyline clip-path="url(#clip330)" style="stroke:#000000; stroke-linecap:round; stroke-linejoin:round; stroke-width:4; stroke-opacity:1; fill:none" points="156.274,1486.45 156.274,47.2441 "/>
<polyline clip-path="url(#clip330)" style="stroke:#000000; stroke-linecap:round; stroke-linejoin:round; stroke-width:4; stroke-opacity:1; fill:none" points="156.274,1225.47 175.172,1225.47 "/>
<polyline clip-path="url(#clip330)" style="stroke:#000000; stroke-linecap:round; stroke-linejoin:round; stroke-width:4; stroke-opacity:1; fill:none" points="156.274,958.515 175.172,958.515 "/>
<polyline clip-path="url(#clip330)" style="stroke:#000000; stroke-linecap:round; stroke-linejoin:round; stroke-width:4; stroke-opacity:1; fill:none" points="156.274,691.564 175.172,691.564 "/>
<polyline clip-path="url(#clip330)" style="stroke:#000000; stroke-linecap:round; stroke-linejoin:round; stroke-width:4; stroke-opacity:1; fill:none" points="156.274,424.614 175.172,424.614 "/>
<polyline clip-path="url(#clip330)" style="stroke:#000000; stroke-linecap:round; stroke-linejoin:round; stroke-width:4; stroke-opacity:1; fill:none" points="156.274,157.664 175.172,157.664 "/>
<path clip-path="url(#clip330)" d="M63.0985 1211.26 Q59.4875 1211.26 57.6588 1214.83 Q55.8532 1218.37 55.8532 1225.5 Q55.8532 1232.61 57.6588 1236.17 Q59.4875 1239.71 63.0985 1239.71 Q66.7328 1239.71 68.5383 1236.17 Q70.367 1232.61 70.367 1225.5 Q70.367 1218.37 68.5383 1214.83 Q66.7328 1211.26 63.0985 1211.26 M63.0985 1207.56 Q68.9087 1207.56 71.9642 1212.17 Q75.0429 1216.75 75.0429 1225.5 Q75.0429 1234.23 71.9642 1238.83 Q68.9087 1243.42 63.0985 1243.42 Q57.2884 1243.42 54.2097 1238.83 Q51.1542 1234.23 51.1542 1225.5 Q51.1542 1216.75 54.2097 1212.17 Q57.2884 1207.56 63.0985 1207.56 Z" fill="#000000" fill-rule="nonzero" fill-opacity="1" /><path clip-path="url(#clip330)" d="M83.2605 1236.87 L88.1447 1236.87 L88.1447 1242.75 L83.2605 1242.75 L83.2605 1236.87 Z" fill="#000000" fill-rule="nonzero" fill-opacity="1" /><path clip-path="url(#clip330)" d="M108.33 1211.26 Q104.719 1211.26 102.89 1214.83 Q101.084 1218.37 101.084 1225.5 Q101.084 1232.61 102.89 1236.17 Q104.719 1239.71 108.33 1239.71 Q111.964 1239.71 113.77 1236.17 Q115.598 1232.61 115.598 1225.5 Q115.598 1218.37 113.77 1214.83 Q111.964 1211.26 108.33 1211.26 M108.33 1207.56 Q114.14 1207.56 117.195 1212.17 Q120.274 1216.75 120.274 1225.5 Q120.274 1234.23 117.195 1238.83 Q114.14 1243.42 108.33 1243.42 Q102.52 1243.42 99.4409 1238.83 Q96.3854 1234.23 96.3854 1225.5 Q96.3854 1216.75 99.4409 1212.17 Q102.52 1207.56 108.33 1207.56 Z" fill="#000000" fill-rule="nonzero" fill-opacity="1" /><path clip-path="url(#clip330)" d="M63.7467 944.314 Q60.1356 944.314 58.3069 947.878 Q56.5014 951.42 56.5014 958.55 Q56.5014 965.656 58.3069 969.221 Q60.1356 972.762 63.7467 972.762 Q67.3809 972.762 69.1865 969.221 Q71.0152 965.656 71.0152 958.55 Q71.0152 951.42 69.1865 947.878 Q67.3809 944.314 63.7467 944.314 M63.7467 940.61 Q69.5568 940.61 72.6124 945.216 Q75.6911 949.8 75.6911 958.55 Q75.6911 967.276 72.6124 971.883 Q69.5568 976.466 63.7467 976.466 Q57.9365 976.466 54.8578 971.883 Q51.8023 967.276 51.8023 958.55 Q51.8023 949.8 54.8578 945.216 Q57.9365 940.61 63.7467 940.61 Z" fill="#000000" fill-rule="nonzero" fill-opacity="1" /><path clip-path="url(#clip330)" d="M83.9086 969.915 L88.7928 969.915 L88.7928 975.795 L83.9086 975.795 L83.9086 969.915 Z" fill="#000000" fill-rule="nonzero" fill-opacity="1" /><path clip-path="url(#clip330)" d="M113.145 957.161 Q116.501 957.878 118.376 960.147 Q120.274 962.415 120.274 965.749 Q120.274 970.864 116.756 973.665 Q113.237 976.466 106.756 976.466 Q104.58 976.466 102.265 976.026 Q99.9733 975.61 97.5197 974.753 L97.5197 970.239 Q99.4641 971.374 101.779 971.952 Q104.094 972.531 106.617 972.531 Q111.015 972.531 113.307 970.795 Q115.621 969.059 115.621 965.749 Q115.621 962.693 113.469 960.98 Q111.339 959.244 107.52 959.244 L103.492 959.244 L103.492 955.401 L107.705 955.401 Q111.154 955.401 112.983 954.036 Q114.811 952.647 114.811 950.054 Q114.811 947.392 112.913 945.98 Q111.038 944.545 107.52 944.545 Q105.598 944.545 103.399 944.962 Q101.2 945.378 98.5613 946.258 L98.5613 942.091 Q101.223 941.351 103.538 940.98 Q105.876 940.61 107.936 940.61 Q113.26 940.61 116.362 943.04 Q119.464 945.448 119.464 949.568 Q119.464 952.439 117.82 954.429 Q116.177 956.397 113.145 957.161 Z" fill="#000000" fill-rule="nonzero" fill-opacity="1" /><path clip-path="url(#clip330)" d="M62.9365 677.363 Q59.3254 677.363 57.4967 680.928 Q55.6912 684.47 55.6912 691.599 Q55.6912 698.706 57.4967 702.27 Q59.3254 705.812 62.9365 705.812 Q66.5707 705.812 68.3763 702.27 Q70.205 698.706 70.205 691.599 Q70.205 684.47 68.3763 680.928 Q66.5707 677.363 62.9365 677.363 M62.9365 673.659 Q68.7467 673.659 71.8022 678.266 Q74.8809 682.849 74.8809 691.599 Q74.8809 700.326 71.8022 704.932 Q68.7467 709.516 62.9365 709.516 Q57.1264 709.516 54.0477 704.932 Q50.9921 700.326 50.9921 691.599 Q50.9921 682.849 54.0477 678.266 Q57.1264 673.659 62.9365 673.659 Z" fill="#000000" fill-rule="nonzero" fill-opacity="1" /><path clip-path="url(#clip330)" d="M83.0984 702.965 L87.9827 702.965 L87.9827 708.844 L83.0984 708.844 L83.0984 702.965 Z" fill="#000000" fill-rule="nonzero" fill-opacity="1" /><path clip-path="url(#clip330)" d="M108.746 689.701 Q105.598 689.701 103.746 691.854 Q101.918 694.007 101.918 697.757 Q101.918 701.483 103.746 703.659 Q105.598 705.812 108.746 705.812 Q111.895 705.812 113.723 703.659 Q115.575 701.483 115.575 697.757 Q115.575 694.007 113.723 691.854 Q111.895 689.701 108.746 689.701 M118.029 675.048 L118.029 679.308 Q116.27 678.474 114.464 678.034 Q112.682 677.595 110.922 677.595 Q106.293 677.595 103.839 680.72 Q101.409 683.845 101.061 690.164 Q102.427 688.15 104.487 687.085 Q106.547 685.997 109.024 685.997 Q114.233 685.997 117.242 689.169 Q120.274 692.317 120.274 697.757 Q120.274 703.081 117.126 706.298 Q113.978 709.516 108.746 709.516 Q102.751 709.516 99.5798 704.932 Q96.4085 700.326 96.4085 691.599 Q96.4085 683.405 100.297 678.544 Q104.186 673.659 110.737 673.659 Q112.496 673.659 114.279 674.007 Q116.084 674.354 118.029 675.048 Z" fill="#000000" fill-rule="nonzero" fill-opacity="1" /><path clip-path="url(#clip330)" d="M63.2837 410.413 Q59.6726 410.413 57.8439 413.978 Q56.0384 417.519 56.0384 424.649 Q56.0384 431.755 57.8439 435.32 Q59.6726 438.862 63.2837 438.862 Q66.918 438.862 68.7235 435.32 Q70.5522 431.755 70.5522 424.649 Q70.5522 417.519 68.7235 413.978 Q66.918 410.413 63.2837 410.413 M63.2837 406.709 Q69.0939 406.709 72.1494 411.316 Q75.2281 415.899 75.2281 424.649 Q75.2281 433.376 72.1494 437.982 Q69.0939 442.565 63.2837 442.565 Q57.4736 442.565 54.3949 437.982 Q51.3393 433.376 51.3393 424.649 Q51.3393 415.899 54.3949 411.316 Q57.4736 406.709 63.2837 406.709 Z" fill="#000000" fill-rule="nonzero" fill-opacity="1" /><path clip-path="url(#clip330)" d="M83.4457 436.014 L88.3299 436.014 L88.3299 441.894 L83.4457 441.894 L83.4457 436.014 Z" fill="#000000" fill-rule="nonzero" fill-opacity="1" /><path clip-path="url(#clip330)" d="M98.6539 441.176 L98.6539 436.917 Q100.413 437.751 102.219 438.19 Q104.024 438.63 105.76 438.63 Q110.39 438.63 112.82 435.528 Q115.274 432.403 115.621 426.061 Q114.279 428.052 112.219 429.116 Q110.158 430.181 107.658 430.181 Q102.473 430.181 99.4409 427.056 Q96.4317 423.908 96.4317 418.468 Q96.4317 413.144 99.5798 409.927 Q102.728 406.709 107.959 406.709 Q113.955 406.709 117.103 411.316 Q120.274 415.899 120.274 424.649 Q120.274 432.82 116.385 437.704 Q112.52 442.565 105.969 442.565 Q104.209 442.565 102.404 442.218 Q100.598 441.871 98.6539 441.176 M107.959 426.524 Q111.108 426.524 112.936 424.371 Q114.788 422.218 114.788 418.468 Q114.788 414.741 112.936 412.589 Q111.108 410.413 107.959 410.413 Q104.811 410.413 102.959 412.589 Q101.131 414.741 101.131 418.468 Q101.131 422.218 102.959 424.371 Q104.811 426.524 107.959 426.524 Z" fill="#000000" fill-rule="nonzero" fill-opacity="1" /><path clip-path="url(#clip330)" d="M55.506 171.008 L63.1448 171.008 L63.1448 144.643 L54.8347 146.31 L54.8347 142.05 L63.0985 140.384 L67.7744 140.384 L67.7744 171.008 L75.4133 171.008 L75.4133 174.944 L55.506 174.944 L55.506 171.008 Z" fill="#000000" fill-rule="nonzero" fill-opacity="1" /><path clip-path="url(#clip330)" d="M84.8577 169.064 L89.7419 169.064 L89.7419 174.944 L84.8577 174.944 L84.8577 169.064 Z" fill="#000000" fill-rule="nonzero" fill-opacity="1" /><path clip-path="url(#clip330)" d="M103.955 171.008 L120.274 171.008 L120.274 174.944 L98.3298 174.944 L98.3298 171.008 Q100.992 168.254 105.575 163.624 Q110.182 158.971 111.362 157.629 Q113.608 155.106 114.487 153.37 Q115.39 151.61 115.39 149.921 Q115.39 147.166 113.445 145.43 Q111.524 143.694 108.422 143.694 Q106.223 143.694 103.77 144.458 Q101.339 145.222 98.5613 146.772 L98.5613 142.05 Q101.385 140.916 103.839 140.337 Q106.293 139.759 108.33 139.759 Q113.7 139.759 116.895 142.444 Q120.089 145.129 120.089 149.62 Q120.089 151.749 119.279 153.671 Q118.492 155.569 116.385 158.161 Q115.807 158.833 112.705 162.05 Q109.603 165.245 103.955 171.008 Z" fill="#000000" fill-rule="nonzero" fill-opacity="1" /><polyline clip-path="url(#clip332)" style="stroke:#009af9; stroke-linecap:round; stroke-linejoin:round; stroke-width:16; stroke-opacity:1; fill:none" stroke-dasharray="8, 16" points="218.439,1087.59 228.852,1082.28 239.264,1077 249.677,1071.72 260.09,1066.44 270.503,1071.83 280.916,1082.73 291.329,1096.36 301.741,1110.6 312.154,1133.98 322.567,1159.29 332.98,1184.61 343.393,1209.92 353.805,1235.23 364.218,1260.55 374.631,1285.86 385.044,1311.17 395.457,1336.49 405.87,1361.8 416.282,1387.12 426.695,1412.43 437.108,1437.74 447.521,1445.72 457.934,1419.21 468.347,1392.71 478.759,1366.2 489.172,1339.7 499.585,1313.19 509.998,1286.69 520.411,1260.18 530.824,1233.68 541.236,1207.17 551.649,1180.67 562.062,1154.16 572.475,1127.66 582.888,1101.15 593.301,1074.65 603.713,1048.14 614.126,1021.64 624.539,1023.91 634.952,1048.02 645.365,1072.14 655.777,1096.26 666.19,1120.38 676.603,1144.49 687.016,1168.61 697.429,1192.73 707.842,1216.85 718.254,1240.96 728.667,1265.08 739.08,1289.2 749.493,1313.32 759.906,1337.44 770.319,1358.31 780.731,1374.28 791.144,1390.25 801.557,1406.21 811.97,1422.18 822.383,1431.17 832.796,1400.52 843.208,1369.86 853.621,1339.2 864.034,1308.54 874.447,1278.06 884.86,1249.66 895.273,1220.32 905.685,1188.73 916.098,1158.45 926.511,1129.93 936.924,1104.09 947.337,1081.64 957.749,1068.4 968.162,1059.54 978.575,1050.73 988.988,1045.79 999.401,1045.15 1009.81,1060.41 1020.23,1084.16 1030.64,1107.26 1041.05,1134.84 1051.46,1162.96 1061.88,1192.21 1072.29,1224.93 1082.7,1256.03 1093.12,1284.34 1103.53,1315.08 1113.94,1337.67 1124.35,1369.69 1134.77,1389.97 1145.18,1396.66 1155.59,1404.42 1166.01,1412.43 1176.42,1409.67 1186.83,1394.52 1197.24,1382.63 1207.66,1382.51 1218.07,1369.37 1228.48,1320.57 1238.9,1231.35 1249.31,1053.72 1259.72,776.829 1270.13,463.622 1280.55,298.411 1290.96,266.484 1301.37,288.588 1311.79,330.087 1322.2,369.198 1332.61,346.113 1343.02,327.309 1353.44,318.834 1363.85,315.12 1374.26,317.137 1384.68,321.398 1395.09,326.699 1405.5,332.697 1415.91,343.284 1426.33,353.896 1436.74,364.527 1447.15,371.004 1457.57,362.336 1467.98,353.668 1478.39,345.075 1488.8,338.391 1499.22,337.937 1509.63,337.484 1520.04,337.03 1530.45,336.576 1540.87,336.123 1551.28,335.669 1561.69,335.215 1572.11,334.762 1582.52,334.308 1592.93,333.854 1603.34,333.401 1613.76,332.956 1624.17,332.695 1634.58,332.434 1645,332.173 1655.41,331.912 1665.82,331.651 1676.23,331.39 1686.65,331.13 1697.06,330.868 1707.47,330.608 1717.89,330.347 1728.3,330.086 1738.71,329.825 1749.12,329.564 1759.54,329.303 1769.95,329.042 1780.36,328.781 1790.78,328.52 1801.19,328.259 1811.6,327.998 1822.01,327.737 1832.43,327.476 1842.84,327.216 1853.25,326.955 1863.67,326.694 1874.08,326.433 1884.49,326.172 1894.9,325.911 1905.32,325.65 1915.73,325.389 1926.14,325.128 1936.56,324.867 1946.97,324.606 1957.38,324.346 1967.79,324.085 1978.21,323.824 1988.62,323.563 1999.03,323.301 2009.45,325.067 2019.86,327.658 2030.27,330.249 2040.68,332.84 2051.1,335.431 2061.51,338.022 2071.92,340.613 2082.33,343.204 2092.75,345.795 2103.16,348.386 2113.57,350.977 2123.99,353.572 2134.4,356.506 2144.81,359.441 2155.22,362.375 2165.64,365.309 2176.05,368.243 2186.46,371.178 2196.88,374.112 2207.29,377.046 2217.7,379.981 2228.11,382.914 2238.53,385.849 2248.94,388.783 2259.35,391.718 2269.77,394.652 2280.18,397.586 2290.59,400.521 "/>
<polyline clip-path="url(#clip332)" style="stroke:#e26f46; stroke-linecap:round; stroke-linejoin:round; stroke-width:4; stroke-opacity:1; fill:none" points="218.439,1091.81 228.852,1072.85 239.264,1058.87 249.677,1050.33 260.09,1047.5 270.503,1050.48 280.916,1059.17 291.329,1073.29 301.741,1092.37 312.154,1115.8 322.567,1142.81 332.98,1172.52 343.393,1203.95 353.805,1236.09 364.218,1267.88 374.631,1298.28 385.044,1326.31 395.457,1351.05 405.87,1371.69 416.282,1387.55 426.695,1398.13 437.108,1403.07 447.521,1402.21 457.934,1395.59 468.347,1383.41 478.759,1366.08 489.172,1344.16 499.585,1318.37 509.998,1289.54 520.411,1258.62 530.824,1226.62 541.236,1194.58 551.649,1163.55 562.062,1134.54 572.475,1108.5 582.888,1086.28 593.301,1068.6 603.713,1056.03 614.126,1049 624.539,1047.73 634.952,1052.26 645.365,1062.44 655.777,1077.94 666.19,1098.26 676.603,1122.72 687.016,1150.55 697.429,1180.81 707.842,1212.54 718.254,1244.68 728.667,1276.2 739.08,1306.06 749.493,1333.3 759.906,1357.01 770.319,1376.43 780.731,1390.92 791.144,1400.02 801.557,1403.41 811.97,1401 822.383,1392.86 832.796,1379.25 843.208,1360.63 853.621,1337.6 864.034,1310.9 874.447,1281.42 884.86,1250.11 895.273,1218 905.685,1186.13 916.098,1155.54 926.511,1127.24 936.924,1102.14 947.337,1081.07 957.749,1064.71 968.162,1053.59 978.575,1048.09 988.988,1048.38 999.401,1054.44 1009.81,1066.09 1020.23,1082.94 1030.64,1104.44 1041.05,1129.89 1051.46,1158.46 1061.88,1189.21 1072.29,1221.15 1082.7,1253.23 1093.12,1284.41 1103.53,1313.66 1113.94,1340.03 1124.35,1362.66 1134.77,1380.82 1145.18,1393.9 1155.59,1401.49 1166.01,1403.33 1176.42,1399.37 1186.83,1389.73 1197.24,1374.73 1207.66,1354.86 1218.07,1330.77 1228.48,1303.24 1238.9,1273.17 1249.31,1241.54 1259.72,334.338 1270.13,332.868 1280.55,334.206 1290.96,338.662 1301.37,344.869 1311.79,350.206 1322.2,351.786 1332.61,347.68 1343.02,337.892 1353.44,324.696 1363.85,312.14 1374.26,304.804 1384.68,306.211 1395.09,317.403 1405.5,336.228 1415.91,357.652 1426.33,375.099 1436.74,382.458 1447.15,376.158 1457.57,356.612 1467.98,328.498 1478.39,299.685 1488.8,279.036 1499.22,273.686 1509.63,286.654 1520.04,315.545 1530.45,352.858 1540.87,387.908 1551.28,409.891 1561.69,411.193 1572.11,389.955 1582.52,351.033 1592.93,304.96 1603.34,265.107 1613.76,243.803 1624.17,248.54 1634.58,279.427 1645,328.735 1655.41,382.789 1665.82,425.757 1676.23,444.282 1686.65,431.614 1697.06,389.958 1707.47,330.253 1717.89,269.325 1728.3,225.147 1738.71,211.542 1749.12,233.883 1759.54,287.133 1769.95,356.891 1780.36,423.276 1790.78,466.586 1801.19,473.146 1811.6,439.587 1822.01,374.243 1832.43,295.129 1842.84,224.988 1853.25,184.749 1863.67,187.292 1874.08,233.371 1884.49,310.965 1894.9,398.386 1905.32,470.336 1915.73,505.224 1926.14,491.638 1936.56,432.02 1946.97,342.385 1957.38,248.039 1967.79,176.439 1978.21,149.203 1988.62,175.597 1999.03,249.458 2009.45,350.559 2019.86,450.133 2030.27,519.058 2040.68,536.371 2051.1,495.623 2061.51,407.162 2071.92,295.542 2082.33,192.722 2092.75,128.913 2103.16,123.709 2113.57,180.088 2123.99,283.139 2134.4,403.969 2144.81,507.803 2155.22,563.988 2165.64,555.043 2176.05,482.057 2186.46,364.81 2196.88,236.427 2207.29,134.023 2217.7,87.9763 2228.11,112.922 2238.53,203.144 2248.94,333.803 2259.35,467.758 2269.77,566.127 2280.18,599.565 2290.59,557.015 "/>
<path clip-path="url(#clip330)" d="M229.49 250.738 L675.966 250.738 L675.966 95.2176 L229.49 95.2176  Z" fill="#ffffff" fill-rule="evenodd" fill-opacity="1"/>
<polyline clip-path="url(#clip330)" style="stroke:#000000; stroke-linecap:round; stroke-linejoin:round; stroke-width:4; stroke-opacity:1; fill:none" points="229.49,250.738 675.966,250.738 675.966,95.2176 229.49,95.2176 229.49,250.738 "/>
<polyline clip-path="url(#clip330)" style="stroke:#009af9; stroke-linecap:round; stroke-linejoin:round; stroke-width:16; stroke-opacity:1; fill:none" stroke-dasharray="8, 16" points="253.896,147.058 400.328,147.058 "/>
<path clip-path="url(#clip330)" d="M429.409 133.62 L429.409 146.606 L435.289 146.606 Q438.552 146.606 440.335 144.916 Q442.117 143.227 442.117 140.102 Q442.117 137 440.335 135.31 Q438.552 133.62 435.289 133.62 L429.409 133.62 M424.733 129.778 L435.289 129.778 Q441.099 129.778 444.062 132.416 Q447.048 135.032 447.048 140.102 Q447.048 145.217 444.062 147.833 Q441.099 150.449 435.289 150.449 L429.409 150.449 L429.409 164.338 L424.733 164.338 L424.733 129.778 Z" fill="#000000" fill-rule="nonzero" fill-opacity="1" /><path clip-path="url(#clip330)" d="M467.325 142.393 Q466.608 141.977 465.751 141.791 Q464.918 141.583 463.899 141.583 Q460.288 141.583 458.344 143.944 Q456.423 146.282 456.423 150.68 L456.423 164.338 L452.14 164.338 L452.14 138.412 L456.423 138.412 L456.423 142.44 Q457.765 140.078 459.918 138.944 Q462.071 137.787 465.149 137.787 Q465.589 137.787 466.122 137.856 Q466.654 137.903 467.302 138.018 L467.325 142.393 Z" fill="#000000" fill-rule="nonzero" fill-opacity="1" /><path clip-path="url(#clip330)" d="M492.927 150.31 L492.927 152.393 L473.344 152.393 Q473.622 156.791 475.983 159.106 Q478.367 161.398 482.603 161.398 Q485.057 161.398 487.348 160.796 Q489.663 160.194 491.932 158.99 L491.932 163.018 Q489.64 163.99 487.233 164.5 Q484.825 165.009 482.348 165.009 Q476.145 165.009 472.511 161.398 Q468.899 157.787 468.899 151.629 Q468.899 145.264 472.325 141.537 Q475.774 137.787 481.608 137.787 Q486.839 137.787 489.872 141.166 Q492.927 144.523 492.927 150.31 M488.668 149.06 Q488.622 145.565 486.7 143.481 Q484.802 141.398 481.654 141.398 Q478.089 141.398 475.936 143.412 Q473.807 145.426 473.483 149.083 L488.668 149.06 Z" fill="#000000" fill-rule="nonzero" fill-opacity="1" /><path clip-path="url(#clip330)" d="M516.978 142.347 L516.978 128.319 L521.237 128.319 L521.237 164.338 L516.978 164.338 L516.978 160.449 Q515.635 162.763 513.575 163.898 Q511.538 165.009 508.668 165.009 Q503.969 165.009 501.006 161.259 Q498.066 157.509 498.066 151.398 Q498.066 145.287 501.006 141.537 Q503.969 137.787 508.668 137.787 Q511.538 137.787 513.575 138.921 Q515.635 140.032 516.978 142.347 M502.464 151.398 Q502.464 156.097 504.385 158.782 Q506.33 161.444 509.709 161.444 Q513.089 161.444 515.033 158.782 Q516.978 156.097 516.978 151.398 Q516.978 146.699 515.033 144.037 Q513.089 141.352 509.709 141.352 Q506.33 141.352 504.385 144.037 Q502.464 146.699 502.464 151.398 Z" fill="#000000" fill-rule="nonzero" fill-opacity="1" /><path clip-path="url(#clip330)" d="M530.01 138.412 L534.269 138.412 L534.269 164.338 L530.01 164.338 L530.01 138.412 M530.01 128.319 L534.269 128.319 L534.269 133.713 L530.01 133.713 L530.01 128.319 Z" fill="#000000" fill-rule="nonzero" fill-opacity="1" /><path clip-path="url(#clip330)" d="M561.839 139.407 L561.839 143.389 Q560.033 142.393 558.205 141.907 Q556.399 141.398 554.547 141.398 Q550.404 141.398 548.112 144.037 Q545.82 146.652 545.82 151.398 Q545.82 156.143 548.112 158.782 Q550.404 161.398 554.547 161.398 Q556.399 161.398 558.205 160.912 Q560.033 160.402 561.839 159.407 L561.839 163.342 Q560.056 164.176 558.135 164.592 Q556.237 165.009 554.084 165.009 Q548.228 165.009 544.779 161.328 Q541.33 157.648 541.33 151.398 Q541.33 145.055 544.802 141.421 Q548.297 137.787 554.362 137.787 Q556.33 137.787 558.205 138.203 Q560.08 138.597 561.839 139.407 Z" fill="#000000" fill-rule="nonzero" fill-opacity="1" /><path clip-path="url(#clip330)" d="M573.459 131.051 L573.459 138.412 L582.232 138.412 L582.232 141.722 L573.459 141.722 L573.459 155.796 Q573.459 158.967 574.316 159.87 Q575.195 160.773 577.857 160.773 L582.232 160.773 L582.232 164.338 L577.857 164.338 Q572.927 164.338 571.052 162.509 Q569.177 160.657 569.177 155.796 L569.177 141.722 L566.052 141.722 L566.052 138.412 L569.177 138.412 L569.177 131.051 L573.459 131.051 Z" fill="#000000" fill-rule="nonzero" fill-opacity="1" /><path clip-path="url(#clip330)" d="M587.834 138.412 L592.093 138.412 L592.093 164.338 L587.834 164.338 L587.834 138.412 M587.834 128.319 L592.093 128.319 L592.093 133.713 L587.834 133.713 L587.834 128.319 Z" fill="#000000" fill-rule="nonzero" fill-opacity="1" /><path clip-path="url(#clip330)" d="M611.051 141.398 Q607.626 141.398 605.635 144.083 Q603.644 146.745 603.644 151.398 Q603.644 156.051 605.612 158.736 Q607.602 161.398 611.051 161.398 Q614.454 161.398 616.445 158.713 Q618.436 156.027 618.436 151.398 Q618.436 146.791 616.445 144.106 Q614.454 141.398 611.051 141.398 M611.051 137.787 Q616.607 137.787 619.778 141.398 Q622.95 145.009 622.95 151.398 Q622.95 157.764 619.778 161.398 Q616.607 165.009 611.051 165.009 Q605.473 165.009 602.302 161.398 Q599.153 157.764 599.153 151.398 Q599.153 145.009 602.302 141.398 Q605.473 137.787 611.051 137.787 Z" fill="#000000" fill-rule="nonzero" fill-opacity="1" /><path clip-path="url(#clip330)" d="M651.561 148.689 L651.561 164.338 L647.301 164.338 L647.301 148.828 Q647.301 145.148 645.866 143.319 Q644.431 141.49 641.561 141.49 Q638.112 141.49 636.121 143.69 Q634.13 145.889 634.13 149.685 L634.13 164.338 L629.848 164.338 L629.848 138.412 L634.13 138.412 L634.13 142.44 Q635.658 140.102 637.718 138.944 Q639.801 137.787 642.51 137.787 Q646.977 137.787 649.269 140.565 Q651.561 143.319 651.561 148.689 Z" fill="#000000" fill-rule="nonzero" fill-opacity="1" /><polyline clip-path="url(#clip330)" style="stroke:#e26f46; stroke-linecap:round; stroke-linejoin:round; stroke-width:4; stroke-opacity:1; fill:none" points="253.896,198.898 400.328,198.898 "/>
<path clip-path="url(#clip330)" d="M424.733 181.618 L446.585 181.618 L446.585 185.553 L429.409 185.553 L429.409 195.784 L445.867 195.784 L445.867 199.719 L429.409 199.719 L429.409 212.242 L447.001 212.242 L447.001 216.178 L424.733 216.178 L424.733 181.618 Z" fill="#000000" fill-rule="nonzero" fill-opacity="1" /><path clip-path="url(#clip330)" d="M476.052 190.252 L466.677 202.867 L476.538 216.178 L471.515 216.178 L463.969 205.992 L456.423 216.178 L451.4 216.178 L461.469 202.613 L452.256 190.252 L457.279 190.252 L464.154 199.488 L471.029 190.252 L476.052 190.252 Z" fill="#000000" fill-rule="nonzero" fill-opacity="1" /><path clip-path="url(#clip330)" d="M494.339 203.145 Q489.177 203.145 487.186 204.326 Q485.196 205.506 485.196 208.354 Q485.196 210.622 486.677 211.965 Q488.182 213.284 490.751 213.284 Q494.293 213.284 496.422 210.784 Q498.575 208.261 498.575 204.094 L498.575 203.145 L494.339 203.145 M502.834 201.386 L502.834 216.178 L498.575 216.178 L498.575 212.242 Q497.117 214.603 494.941 215.738 Q492.765 216.849 489.617 216.849 Q485.635 216.849 483.274 214.627 Q480.936 212.381 480.936 208.631 Q480.936 204.256 483.853 202.034 Q486.793 199.812 492.603 199.812 L498.575 199.812 L498.575 199.395 Q498.575 196.455 496.631 194.858 Q494.71 193.238 491.214 193.238 Q488.992 193.238 486.885 193.77 Q484.779 194.303 482.835 195.367 L482.835 191.432 Q485.173 190.53 487.372 190.09 Q489.571 189.627 491.654 189.627 Q497.279 189.627 500.057 192.543 Q502.834 195.46 502.834 201.386 Z" fill="#000000" fill-rule="nonzero" fill-opacity="1" /><path clip-path="url(#clip330)" d="M530.265 191.247 L530.265 195.229 Q528.459 194.233 526.631 193.747 Q524.825 193.238 522.973 193.238 Q518.83 193.238 516.538 195.877 Q514.246 198.492 514.246 203.238 Q514.246 207.983 516.538 210.622 Q518.83 213.238 522.973 213.238 Q524.825 213.238 526.631 212.752 Q528.459 212.242 530.265 211.247 L530.265 215.182 Q528.482 216.016 526.561 216.432 Q524.663 216.849 522.51 216.849 Q516.654 216.849 513.205 213.168 Q509.756 209.488 509.756 203.238 Q509.756 196.895 513.228 193.261 Q516.723 189.627 522.788 189.627 Q524.756 189.627 526.631 190.043 Q528.506 190.437 530.265 191.247 Z" fill="#000000" fill-rule="nonzero" fill-opacity="1" /><path clip-path="url(#clip330)" d="M541.885 182.891 L541.885 190.252 L550.658 190.252 L550.658 193.562 L541.885 193.562 L541.885 207.636 Q541.885 210.807 542.742 211.71 Q543.621 212.613 546.283 212.613 L550.658 212.613 L550.658 216.178 L546.283 216.178 Q541.353 216.178 539.478 214.349 Q537.603 212.497 537.603 207.636 L537.603 193.562 L534.478 193.562 L534.478 190.252 L537.603 190.252 L537.603 182.891 L541.885 182.891 Z" fill="#000000" fill-rule="nonzero" fill-opacity="1" /></svg>
