<?xml version="1.0" encoding="utf-8"?>
<svg xmlns="http://www.w3.org/2000/svg" xmlns:xlink="http://www.w3.org/1999/xlink" width="600" height="400" viewBox="0 0 2400 1600">
<defs>
  <clipPath id="clip870">
    <rect x="0" y="0" width="2400" height="1600"/>
  </clipPath>
</defs>
<path clip-path="url(#clip870)" d="M0 1600 L2400 1600 L2400 0 L0 0  Z" fill="#ffffff" fill-rule="evenodd" fill-opacity="1"/>
<defs>
  <clipPath id="clip871">
    <rect x="480" y="0" width="1681" height="1600"/>
  </clipPath>
</defs>
<path clip-path="url(#clip870)" d="M192.339 1486.45 L2352.76 1486.45 L2352.76 47.2441 L192.339 47.2441  Z" fill="#ffffff" fill-rule="evenodd" fill-opacity="1"/>
<defs>
  <clipPath id="clip872">
    <rect x="192" y="47" width="2161" height="1440"/>
  </clipPath>
</defs>
<polyline clip-path="url(#clip872)" style="stroke:#000000; stroke-linecap:round; stroke-linejoin:round; stroke-width:2; stroke-opacity:0.1; fill:none" points="253.483,1486.45 253.483,47.2441 "/>
<polyline clip-path="url(#clip872)" style="stroke:#000000; stroke-linecap:round; stroke-linejoin:round; stroke-width:2; stroke-opacity:0.1; fill:none" points="763.015,1486.45 763.015,47.2441 "/>
<polyline clip-path="url(#clip872)" style="stroke:#000000; stroke-linecap:round; stroke-linejoin:round; stroke-width:2; stroke-opacity:0.1; fill:none" points="1272.55,1486.45 1272.55,47.2441 "/>
<polyline clip-path="url(#clip872)" style="stroke:#000000; stroke-linecap:round; stroke-linejoin:round; stroke-width:2; stroke-opacity:0.1; fill:none" points="1782.08,1486.45 1782.08,47.2441 "/>
<polyline clip-path="url(#clip872)" style="stroke:#000000; stroke-linecap:round; stroke-linejoin:round; stroke-width:2; stroke-opacity:0.1; fill:none" points="2291.61,1486.45 2291.61,47.2441 "/>
<polyline clip-path="url(#clip870)" style="stroke:#000000; stroke-linecap:round; stroke-linejoin:round; stroke-width:4; stroke-opacity:1; fill:none" points="192.339,1486.45 2352.76,1486.45 "/>
<polyline clip-path="url(#clip870)" style="stroke:#000000; stroke-linecap:round; stroke-linejoin:round; stroke-width:4; stroke-opacity:1; fill:none" points="253.483,1486.45 253.483,1467.55 "/>
<polyline clip-path="url(#clip870)" style="stroke:#000000; stroke-linecap:round; stroke-linejoin:round; stroke-width:4; stroke-opacity:1; fill:none" points="763.015,1486.45 763.015,1467.55 "/>
<polyline clip-path="url(#clip870)" style="stroke:#000000; stroke-linecap:round; stroke-linejoin:round; stroke-width:4; stroke-opacity:1; fill:none" points="1272.55,1486.45 1272.55,1467.55 "/>
<polyline clip-path="url(#clip870)" style="stroke:#000000; stroke-linecap:round; stroke-linejoin:round; stroke-width:4; stroke-opacity:1; fill:none" points="1782.08,1486.45 1782.08,1467.55 "/>
<polyline clip-path="url(#clip870)" style="stroke:#000000; stroke-linecap:round; stroke-linejoin:round; stroke-width:4; stroke-opacity:1; fill:none" points="2291.61,1486.45 2291.61,1467.55 "/>
<path clip-path="url(#clip870)" d="M200.011 1532.02 L229.686 1532.02 L229.686 1535.95 L200.011 1535.95 L200.011 1532.02 Z" fill="#000000" fill-rule="nonzero" fill-opacity="1" /><path clip-path="url(#clip870)" d="M240.589 1544.91 L248.228 1544.91 L248.228 1518.55 L239.918 1520.21 L239.918 1515.95 L248.182 1514.29 L252.858 1514.29 L252.858 1544.91 L260.497 1544.91 L260.497 1548.85 L240.589 1548.85 L240.589 1544.91 Z" fill="#000000" fill-rule="nonzero" fill-opacity="1" /><path clip-path="url(#clip870)" d="M269.941 1542.97 L274.825 1542.97 L274.825 1548.85 L269.941 1548.85 L269.941 1542.97 Z" fill="#000000" fill-rule="nonzero" fill-opacity="1" /><path clip-path="url(#clip870)" d="M295.01 1517.37 Q291.399 1517.37 289.57 1520.93 Q287.765 1524.47 287.765 1531.6 Q287.765 1538.71 289.57 1542.27 Q291.399 1545.82 295.01 1545.82 Q298.644 1545.82 300.45 1542.27 Q302.279 1538.71 302.279 1531.6 Q302.279 1524.47 300.45 1520.93 Q298.644 1517.37 295.01 1517.37 M295.01 1513.66 Q300.82 1513.66 303.876 1518.27 Q306.955 1522.85 306.955 1531.6 Q306.955 1540.33 303.876 1544.94 Q300.82 1549.52 295.01 1549.52 Q289.2 1549.52 286.121 1544.94 Q283.066 1540.33 283.066 1531.6 Q283.066 1522.85 286.121 1518.27 Q289.2 1513.66 295.01 1513.66 Z" fill="#000000" fill-rule="nonzero" fill-opacity="1" /><path clip-path="url(#clip870)" d="M710.041 1532.02 L739.717 1532.02 L739.717 1535.95 L710.041 1535.95 L710.041 1532.02 Z" fill="#000000" fill-rule="nonzero" fill-opacity="1" /><path clip-path="url(#clip870)" d="M759.809 1517.37 Q756.198 1517.37 754.369 1520.93 Q752.564 1524.47 752.564 1531.6 Q752.564 1538.71 754.369 1542.27 Q756.198 1545.82 759.809 1545.82 Q763.443 1545.82 765.249 1542.27 Q767.077 1538.71 767.077 1531.6 Q767.077 1524.47 765.249 1520.93 Q763.443 1517.37 759.809 1517.37 M759.809 1513.66 Q765.619 1513.66 768.675 1518.27 Q771.753 1522.85 771.753 1531.6 Q771.753 1540.33 768.675 1544.94 Q765.619 1549.52 759.809 1549.52 Q753.999 1549.52 750.92 1544.94 Q747.865 1540.33 747.865 1531.6 Q747.865 1522.85 750.92 1518.27 Q753.999 1513.66 759.809 1513.66 Z" fill="#000000" fill-rule="nonzero" fill-opacity="1" /><path clip-path="url(#clip870)" d="M779.971 1542.97 L784.855 1542.97 L784.855 1548.85 L779.971 1548.85 L779.971 1542.97 Z" fill="#000000" fill-rule="nonzero" fill-opacity="1" /><path clip-path="url(#clip870)" d="M795.087 1514.29 L813.443 1514.29 L813.443 1518.22 L799.369 1518.22 L799.369 1526.7 Q800.387 1526.35 801.406 1526.19 Q802.425 1526 803.443 1526 Q809.23 1526 812.61 1529.17 Q815.989 1532.34 815.989 1537.76 Q815.989 1543.34 812.517 1546.44 Q809.045 1549.52 802.725 1549.52 Q800.55 1549.52 798.281 1549.15 Q796.036 1548.78 793.628 1548.04 L793.628 1543.34 Q795.712 1544.47 797.934 1545.03 Q800.156 1545.58 802.633 1545.58 Q806.637 1545.58 808.975 1543.48 Q811.313 1541.37 811.313 1537.76 Q811.313 1534.15 808.975 1532.04 Q806.637 1529.94 802.633 1529.94 Q800.758 1529.94 798.883 1530.35 Q797.031 1530.77 795.087 1531.65 L795.087 1514.29 Z" fill="#000000" fill-rule="nonzero" fill-opacity="1" /><path clip-path="url(#clip870)" d="M1249.93 1517.37 Q1246.32 1517.37 1244.49 1520.93 Q1242.69 1524.47 1242.69 1531.6 Q1242.69 1538.71 1244.49 1542.27 Q1246.32 1545.82 1249.93 1545.82 Q1253.57 1545.82 1255.37 1542.27 Q1257.2 1538.71 1257.2 1531.6 Q1257.2 1524.47 1255.37 1520.93 Q1253.57 1517.37 1249.93 1517.37 M1249.93 1513.66 Q1255.74 1513.66 1258.8 1518.27 Q1261.88 1522.85 1261.88 1531.6 Q1261.88 1540.33 1258.8 1544.94 Q1255.74 1549.52 1249.93 1549.52 Q1244.12 1549.52 1241.04 1544.94 Q1237.99 1540.33 1237.99 1531.6 Q1237.99 1522.85 1241.04 1518.27 Q1244.12 1513.66 1249.93 1513.66 Z" fill="#000000" fill-rule="nonzero" fill-opacity="1" /><path clip-path="url(#clip870)" d="M1270.09 1542.97 L1274.98 1542.97 L1274.98 1548.85 L1270.09 1548.85 L1270.09 1542.97 Z" fill="#000000" fill-rule="nonzero" fill-opacity="1" /><path clip-path="url(#clip870)" d="M1295.16 1517.37 Q1291.55 1517.37 1289.72 1520.93 Q1287.92 1524.47 1287.92 1531.6 Q1287.92 1538.71 1289.72 1542.27 Q1291.55 1545.82 1295.16 1545.82 Q1298.8 1545.82 1300.6 1542.27 Q1302.43 1538.71 1302.43 1531.6 Q1302.43 1524.47 1300.6 1520.93 Q1298.8 1517.37 1295.16 1517.37 M1295.16 1513.66 Q1300.97 1513.66 1304.03 1518.27 Q1307.11 1522.85 1307.11 1531.6 Q1307.11 1540.33 1304.03 1544.94 Q1300.97 1549.52 1295.16 1549.52 Q1289.35 1549.52 1286.27 1544.94 Q1283.22 1540.33 1283.22 1531.6 Q1283.22 1522.85 1286.27 1518.27 Q1289.35 1513.66 1295.16 1513.66 Z" fill="#000000" fill-rule="nonzero" fill-opacity="1" /><path clip-path="url(#clip870)" d="M1759.96 1517.37 Q1756.35 1517.37 1754.52 1520.93 Q1752.72 1524.47 1752.72 1531.6 Q1752.72 1538.71 1754.52 1542.27 Q1756.35 1545.82 1759.96 1545.82 Q1763.6 1545.82 1765.4 1542.27 Q1767.23 1538.71 1767.23 1531.6 Q1767.23 1524.47 1765.4 1520.93 Q1763.6 1517.37 1759.96 1517.37 M1759.96 1513.66 Q1765.77 1513.66 1768.83 1518.27 Q1771.91 1522.85 1771.91 1531.6 Q1771.91 1540.33 1768.83 1544.94 Q1765.77 1549.52 1759.96 1549.52 Q1754.15 1549.52 1751.07 1544.94 Q1748.02 1540.33 1748.02 1531.6 Q1748.02 1522.85 1751.07 1518.27 Q1754.15 1513.66 1759.96 1513.66 Z" fill="#000000" fill-rule="nonzero" fill-opacity="1" /><path clip-path="url(#clip870)" d="M1780.12 1542.97 L1785.01 1542.97 L1785.01 1548.85 L1780.12 1548.85 L1780.12 1542.97 Z" fill="#000000" fill-rule="nonzero" fill-opacity="1" /><path clip-path="url(#clip870)" d="M1795.24 1514.29 L1813.6 1514.29 L1813.6 1518.22 L1799.52 1518.22 L1799.52 1526.7 Q1800.54 1526.35 1801.56 1526.19 Q1802.58 1526 1803.6 1526 Q1809.38 1526 1812.76 1529.17 Q1816.14 1532.34 1816.14 1537.76 Q1816.14 1543.34 1812.67 1546.44 Q1809.2 1549.52 1802.88 1549.52 Q1800.7 1549.52 1798.43 1549.15 Q1796.19 1548.78 1793.78 1548.04 L1793.78 1543.34 Q1795.86 1544.47 1798.09 1545.03 Q1800.31 1545.58 1802.79 1545.58 Q1806.79 1545.58 1809.13 1543.48 Q1811.47 1541.37 1811.47 1537.76 Q1811.47 1534.15 1809.13 1532.04 Q1806.79 1529.94 1802.79 1529.94 Q1800.91 1529.94 1799.04 1530.35 Q1797.18 1530.77 1795.24 1531.65 L1795.24 1514.29 Z" fill="#000000" fill-rule="nonzero" fill-opacity="1" /><path clip-path="url(#clip870)" d="M2258.76 1544.91 L2266.4 1544.91 L2266.4 1518.55 L2258.09 1520.21 L2258.09 1515.95 L2266.36 1514.29 L2271.03 1514.29 L2271.03 1544.91 L2278.67 1544.91 L2278.67 1548.85 L2258.76 1548.85 L2258.76 1544.91 Z" fill="#000000" fill-rule="nonzero" fill-opacity="1" /><path clip-path="url(#clip870)" d="M2288.12 1542.97 L2293 1542.97 L2293 1548.85 L2288.12 1548.85 L2288.12 1542.97 Z" fill="#000000" fill-rule="nonzero" fill-opacity="1" /><path clip-path="url(#clip870)" d="M2313.19 1517.37 Q2309.57 1517.37 2307.75 1520.93 Q2305.94 1524.47 2305.94 1531.6 Q2305.94 1538.71 2307.75 1542.27 Q2309.57 1545.82 2313.19 1545.82 Q2316.82 1545.82 2318.63 1542.27 Q2320.45 1538.71 2320.45 1531.6 Q2320.45 1524.47 2318.63 1520.93 Q2316.82 1517.37 2313.19 1517.37 M2313.19 1513.66 Q2319 1513.66 2322.05 1518.27 Q2325.13 1522.85 2325.13 1531.6 Q2325.13 1540.33 2322.05 1544.94 Q2319 1549.52 2313.19 1549.52 Q2307.38 1549.52 2304.3 1544.94 Q2301.24 1540.33 2301.24 1531.6 Q2301.24 1522.85 2304.3 1518.27 Q2307.38 1513.66 2313.19 1513.66 Z" fill="#000000" fill-rule="nonzero" fill-opacity="1" /><polyline clip-path="url(#clip872)" style="stroke:#000000; stroke-linecap:round; stroke-linejoin:round; stroke-width:2; stroke-opacity:0.1; fill:none" points="192.339,1376.17 2352.76,1376.17 "/>
<polyline clip-path="url(#clip872)" style="stroke:#000000; stroke-linecap:round; stroke-linejoin:round; stroke-width:2; stroke-opacity:0.1; fill:none" points="192.339,1203.06 2352.76,1203.06 "/>
<polyline clip-path="url(#clip872)" style="stroke:#000000; stroke-linecap:round; stroke-linejoin:round; stroke-width:2; stroke-opacity:0.1; fill:none" points="192.339,1029.95 2352.76,1029.95 "/>
<polyline clip-path="url(#clip872)" style="stroke:#000000; stroke-linecap:round; stroke-linejoin:round; stroke-width:2; stroke-opacity:0.1; fill:none" points="192.339,856.838 2352.76,856.838 "/>
<polyline clip-path="url(#clip872)" style="stroke:#000000; stroke-linecap:round; stroke-linejoin:round; stroke-width:2; stroke-opacity:0.1; fill:none" points="192.339,683.727 2352.76,683.727 "/>
<polyline clip-path="url(#clip872)" style="stroke:#000000; stroke-linecap:round; stroke-linejoin:round; stroke-width:2; stroke-opacity:0.1; fill:none" points="192.339,510.615 2352.76,510.615 "/>
<polyline clip-path="url(#clip872)" style="stroke:#000000; stroke-linecap:round; stroke-linejoin:round; stroke-width:2; stroke-opacity:0.1; fill:none" points="192.339,337.503 2352.76,337.503 "/>
<polyline clip-path="url(#clip872)" style="stroke:#000000; stroke-linecap:round; stroke-linejoin:round; stroke-width:2; stroke-opacity:0.1; fill:none" points="192.339,164.392 2352.76,164.392 "/>
<polyline clip-path="url(#clip870)" style="stroke:#000000; stroke-linecap:round; stroke-linejoin:round; stroke-width:4; stroke-opacity:1; fill:none" points="192.339,1486.45 192.339,47.2441 "/>
<polyline clip-path="url(#clip870)" style="stroke:#000000; stroke-linecap:round; stroke-linejoin:round; stroke-width:4; stroke-opacity:1; fill:none" points="192.339,1376.17 211.236,1376.17 "/>
<polyline clip-path="url(#clip870)" style="stroke:#000000; stroke-linecap:round; stroke-linejoin:round; stroke-width:4; stroke-opacity:1; fill:none" points="192.339,1203.06 211.236,1203.06 "/>
<polyline clip-path="url(#clip870)" style="stroke:#000000; stroke-linecap:round; stroke-linejoin:round; stroke-width:4; stroke-opacity:1; fill:none" points="192.339,1029.95 211.236,1029.95 "/>
<polyline clip-path="url(#clip870)" style="stroke:#000000; stroke-linecap:round; stroke-linejoin:round; stroke-width:4; stroke-opacity:1; fill:none" points="192.339,856.838 211.236,856.838 "/>
<polyline clip-path="url(#clip870)" style="stroke:#000000; stroke-linecap:round; stroke-linejoin:round; stroke-width:4; stroke-opacity:1; fill:none" points="192.339,683.727 211.236,683.727 "/>
<polyline clip-path="url(#clip870)" style="stroke:#000000; stroke-linecap:round; stroke-linejoin:round; stroke-width:4; stroke-opacity:1; fill:none" points="192.339,510.615 211.236,510.615 "/>
<polyline clip-path="url(#clip870)" style="stroke:#000000; stroke-linecap:round; stroke-linejoin:round; stroke-width:4; stroke-opacity:1; fill:none" points="192.339,337.503 211.236,337.503 "/>
<polyline clip-path="url(#clip870)" style="stroke:#000000; stroke-linecap:round; stroke-linejoin:round; stroke-width:4; stroke-opacity:1; fill:none" points="192.339,164.392 211.236,164.392 "/>
<path clip-path="url(#clip870)" d="M50.9921 1376.62 L80.6679 1376.62 L80.6679 1380.56 L50.9921 1380.56 L50.9921 1376.62 Z" fill="#000000" fill-rule="nonzero" fill-opacity="1" /><path clip-path="url(#clip870)" d="M100.76 1361.97 Q97.1493 1361.97 95.3206 1365.54 Q93.515 1369.08 93.515 1376.21 Q93.515 1383.31 95.3206 1386.88 Q97.1493 1390.42 100.76 1390.42 Q104.395 1390.42 106.2 1386.88 Q108.029 1383.31 108.029 1376.21 Q108.029 1369.08 106.2 1365.54 Q104.395 1361.97 100.76 1361.97 M100.76 1358.27 Q106.571 1358.27 109.626 1362.87 Q112.705 1367.46 112.705 1376.21 Q112.705 1384.93 109.626 1389.54 Q106.571 1394.12 100.76 1394.12 Q94.9502 1394.12 91.8715 1389.54 Q88.816 1384.93 88.816 1376.21 Q88.816 1367.46 91.8715 1362.87 Q94.9502 1358.27 100.76 1358.27 Z" fill="#000000" fill-rule="nonzero" fill-opacity="1" /><path clip-path="url(#clip870)" d="M120.922 1387.57 L125.807 1387.57 L125.807 1393.45 L120.922 1393.45 L120.922 1387.57 Z" fill="#000000" fill-rule="nonzero" fill-opacity="1" /><path clip-path="url(#clip870)" d="M140.019 1389.52 L156.339 1389.52 L156.339 1393.45 L134.394 1393.45 L134.394 1389.52 Q137.056 1386.76 141.64 1382.13 Q146.246 1377.48 147.427 1376.14 Q149.672 1373.62 150.552 1371.88 Q151.455 1370.12 151.455 1368.43 Q151.455 1365.68 149.51 1363.94 Q147.589 1362.2 144.487 1362.2 Q142.288 1362.2 139.834 1362.97 Q137.404 1363.73 134.626 1365.28 L134.626 1360.56 Q137.45 1359.43 139.904 1358.85 Q142.357 1358.27 144.394 1358.27 Q149.765 1358.27 152.959 1360.95 Q156.154 1363.64 156.154 1368.13 Q156.154 1370.26 155.343 1372.18 Q154.556 1374.08 152.45 1376.67 Q151.871 1377.34 148.769 1380.56 Q145.668 1383.75 140.019 1389.52 Z" fill="#000000" fill-rule="nonzero" fill-opacity="1" /><path clip-path="url(#clip870)" d="M99.1632 1188.86 Q95.5521 1188.86 93.7234 1192.43 Q91.9178 1195.97 91.9178 1203.1 Q91.9178 1210.2 93.7234 1213.77 Q95.5521 1217.31 99.1632 1217.31 Q102.797 1217.31 104.603 1213.77 Q106.432 1210.2 106.432 1203.1 Q106.432 1195.97 104.603 1192.43 Q102.797 1188.86 99.1632 1188.86 M99.1632 1185.16 Q104.973 1185.16 108.029 1189.76 Q111.108 1194.35 111.108 1203.1 Q111.108 1211.82 108.029 1216.43 Q104.973 1221.01 99.1632 1221.01 Q93.353 1221.01 90.2743 1216.43 Q87.2188 1211.82 87.2188 1203.1 Q87.2188 1194.35 90.2743 1189.76 Q93.353 1185.16 99.1632 1185.16 Z" fill="#000000" fill-rule="nonzero" fill-opacity="1" /><path clip-path="url(#clip870)" d="M119.325 1214.46 L124.209 1214.46 L124.209 1220.34 L119.325 1220.34 L119.325 1214.46 Z" fill="#000000" fill-rule="nonzero" fill-opacity="1" /><path clip-path="url(#clip870)" d="M144.394 1188.86 Q140.783 1188.86 138.955 1192.43 Q137.149 1195.97 137.149 1203.1 Q137.149 1210.2 138.955 1213.77 Q140.783 1217.31 144.394 1217.31 Q148.029 1217.31 149.834 1213.77 Q151.663 1210.2 151.663 1203.1 Q151.663 1195.97 149.834 1192.43 Q148.029 1188.86 144.394 1188.86 M144.394 1185.16 Q150.205 1185.16 153.26 1189.76 Q156.339 1194.35 156.339 1203.1 Q156.339 1211.82 153.26 1216.43 Q150.205 1221.01 144.394 1221.01 Q138.584 1221.01 135.506 1216.43 Q132.45 1211.82 132.45 1203.1 Q132.45 1194.35 135.506 1189.76 Q138.584 1185.16 144.394 1185.16 Z" fill="#000000" fill-rule="nonzero" fill-opacity="1" /><path clip-path="url(#clip870)" d="M100.76 1015.75 Q97.1493 1015.75 95.3206 1019.31 Q93.515 1022.86 93.515 1029.98 Q93.515 1037.09 95.3206 1040.66 Q97.1493 1044.2 100.76 1044.2 Q104.395 1044.2 106.2 1040.66 Q108.029 1037.09 108.029 1029.98 Q108.029 1022.86 106.2 1019.31 Q104.395 1015.75 100.76 1015.75 M100.76 1012.04 Q106.571 1012.04 109.626 1016.65 Q112.705 1021.23 112.705 1029.98 Q112.705 1038.71 109.626 1043.32 Q106.571 1047.9 100.76 1047.9 Q94.9502 1047.9 91.8715 1043.32 Q88.816 1038.71 88.816 1029.98 Q88.816 1021.23 91.8715 1016.65 Q94.9502 1012.04 100.76 1012.04 Z" fill="#000000" fill-rule="nonzero" fill-opacity="1" /><path clip-path="url(#clip870)" d="M120.922 1041.35 L125.807 1041.35 L125.807 1047.23 L120.922 1047.23 L120.922 1041.35 Z" fill="#000000" fill-rule="nonzero" fill-opacity="1" /><path clip-path="url(#clip870)" d="M140.019 1043.29 L156.339 1043.29 L156.339 1047.23 L134.394 1047.23 L134.394 1043.29 Q137.056 1040.54 141.64 1035.91 Q146.246 1031.26 147.427 1029.92 Q149.672 1027.39 150.552 1025.66 Q151.455 1023.9 151.455 1022.21 Q151.455 1019.45 149.51 1017.72 Q147.589 1015.98 144.487 1015.98 Q142.288 1015.98 139.834 1016.74 Q137.404 1017.51 134.626 1019.06 L134.626 1014.34 Q137.45 1013.2 139.904 1012.62 Q142.357 1012.04 144.394 1012.04 Q149.765 1012.04 152.959 1014.73 Q156.154 1017.42 156.154 1021.91 Q156.154 1024.04 155.343 1025.96 Q154.556 1027.86 152.45 1030.45 Q151.871 1031.12 148.769 1034.34 Q145.668 1037.53 140.019 1043.29 Z" fill="#000000" fill-rule="nonzero" fill-opacity="1" /><path clip-path="url(#clip870)" d="M98.6771 842.637 Q95.066 842.637 93.2373 846.202 Q91.4317 849.743 91.4317 856.873 Q91.4317 863.98 93.2373 867.544 Q95.066 871.086 98.6771 871.086 Q102.311 871.086 104.117 867.544 Q105.946 863.98 105.946 856.873 Q105.946 849.743 104.117 846.202 Q102.311 842.637 98.6771 842.637 M98.6771 838.933 Q104.487 838.933 107.543 843.54 Q110.621 848.123 110.621 856.873 Q110.621 865.6 107.543 870.206 Q104.487 874.79 98.6771 874.79 Q92.8669 874.79 89.7882 870.206 Q86.7327 865.6 86.7327 856.873 Q86.7327 848.123 89.7882 843.54 Q92.8669 838.933 98.6771 838.933 Z" fill="#000000" fill-rule="nonzero" fill-opacity="1" /><path clip-path="url(#clip870)" d="M118.839 868.239 L123.723 868.239 L123.723 874.118 L118.839 874.118 L118.839 868.239 Z" fill="#000000" fill-rule="nonzero" fill-opacity="1" /><path clip-path="url(#clip870)" d="M146.756 843.632 L134.95 862.081 L146.756 862.081 L146.756 843.632 M145.529 839.558 L151.408 839.558 L151.408 862.081 L156.339 862.081 L156.339 865.97 L151.408 865.97 L151.408 874.118 L146.756 874.118 L146.756 865.97 L131.154 865.97 L131.154 861.456 L145.529 839.558 Z" fill="#000000" fill-rule="nonzero" fill-opacity="1" /><path clip-path="url(#clip870)" d="M99.0011 669.525 Q95.39 669.525 93.5613 673.09 Q91.7558 676.632 91.7558 683.761 Q91.7558 690.868 93.5613 694.433 Q95.39 697.974 99.0011 697.974 Q102.635 697.974 104.441 694.433 Q106.27 690.868 106.27 683.761 Q106.27 676.632 104.441 673.09 Q102.635 669.525 99.0011 669.525 M99.0011 665.822 Q104.811 665.822 107.867 670.428 Q110.946 675.011 110.946 683.761 Q110.946 692.488 107.867 697.095 Q104.811 701.678 99.0011 701.678 Q93.191 701.678 90.1123 697.095 Q87.0567 692.488 87.0567 683.761 Q87.0567 675.011 90.1123 670.428 Q93.191 665.822 99.0011 665.822 Z" fill="#000000" fill-rule="nonzero" fill-opacity="1" /><path clip-path="url(#clip870)" d="M119.163 695.127 L124.047 695.127 L124.047 701.007 L119.163 701.007 L119.163 695.127 Z" fill="#000000" fill-rule="nonzero" fill-opacity="1" /><path clip-path="url(#clip870)" d="M144.811 681.863 Q141.663 681.863 139.811 684.016 Q137.982 686.169 137.982 689.919 Q137.982 693.646 139.811 695.822 Q141.663 697.974 144.811 697.974 Q147.959 697.974 149.788 695.822 Q151.64 693.646 151.64 689.919 Q151.64 686.169 149.788 684.016 Q147.959 681.863 144.811 681.863 M154.093 667.211 L154.093 671.47 Q152.334 670.637 150.529 670.197 Q148.746 669.757 146.987 669.757 Q142.357 669.757 139.904 672.882 Q137.473 676.007 137.126 682.326 Q138.492 680.312 140.552 679.248 Q142.612 678.16 145.089 678.16 Q150.297 678.16 153.306 681.331 Q156.339 684.479 156.339 689.919 Q156.339 695.243 153.191 698.46 Q150.043 701.678 144.811 701.678 Q138.816 701.678 135.644 697.095 Q132.473 692.488 132.473 683.761 Q132.473 675.567 136.362 670.706 Q140.251 665.822 146.802 665.822 Q148.561 665.822 150.343 666.169 Q152.149 666.516 154.093 667.211 Z" fill="#000000" fill-rule="nonzero" fill-opacity="1" /><path clip-path="url(#clip870)" d="M99.2558 496.414 Q95.6447 496.414 93.816 499.979 Q92.0104 503.52 92.0104 510.65 Q92.0104 517.756 93.816 521.321 Q95.6447 524.863 99.2558 524.863 Q102.89 524.863 104.696 521.321 Q106.524 517.756 106.524 510.65 Q106.524 503.52 104.696 499.979 Q102.89 496.414 99.2558 496.414 M99.2558 492.71 Q105.066 492.71 108.121 497.317 Q111.2 501.9 111.2 510.65 Q111.2 519.377 108.121 523.983 Q105.066 528.566 99.2558 528.566 Q93.4456 528.566 90.3669 523.983 Q87.3114 519.377 87.3114 510.65 Q87.3114 501.9 90.3669 497.317 Q93.4456 492.71 99.2558 492.71 Z" fill="#000000" fill-rule="nonzero" fill-opacity="1" /><path clip-path="url(#clip870)" d="M119.418 522.015 L124.302 522.015 L124.302 527.895 L119.418 527.895 L119.418 522.015 Z" fill="#000000" fill-rule="nonzero" fill-opacity="1" /><path clip-path="url(#clip870)" d="M144.487 511.483 Q141.154 511.483 139.232 513.266 Q137.334 515.048 137.334 518.173 Q137.334 521.298 139.232 523.08 Q141.154 524.863 144.487 524.863 Q147.82 524.863 149.742 523.08 Q151.663 521.275 151.663 518.173 Q151.663 515.048 149.742 513.266 Q147.843 511.483 144.487 511.483 M139.811 509.492 Q136.802 508.752 135.112 506.691 Q133.445 504.631 133.445 501.668 Q133.445 497.525 136.385 495.117 Q139.348 492.71 144.487 492.71 Q149.649 492.71 152.589 495.117 Q155.529 497.525 155.529 501.668 Q155.529 504.631 153.839 506.691 Q152.172 508.752 149.186 509.492 Q152.566 510.279 154.441 512.571 Q156.339 514.863 156.339 518.173 Q156.339 523.196 153.26 525.881 Q150.205 528.566 144.487 528.566 Q138.769 528.566 135.691 525.881 Q132.635 523.196 132.635 518.173 Q132.635 514.863 134.533 512.571 Q136.431 510.279 139.811 509.492 M138.098 502.108 Q138.098 504.793 139.765 506.298 Q141.455 507.803 144.487 507.803 Q147.496 507.803 149.186 506.298 Q150.899 504.793 150.899 502.108 Q150.899 499.423 149.186 497.918 Q147.496 496.414 144.487 496.414 Q141.455 496.414 139.765 497.918 Q138.098 499.423 138.098 502.108 Z" fill="#000000" fill-rule="nonzero" fill-opacity="1" /><path clip-path="url(#clip870)" d="M89.9734 350.848 L97.6122 350.848 L97.6122 324.483 L89.3021 326.149 L89.3021 321.89 L97.566 320.223 L102.242 320.223 L102.242 350.848 L109.881 350.848 L109.881 354.783 L89.9734 354.783 L89.9734 350.848 Z" fill="#000000" fill-rule="nonzero" fill-opacity="1" /><path clip-path="url(#clip870)" d="M119.325 348.904 L124.209 348.904 L124.209 354.783 L119.325 354.783 L119.325 348.904 Z" fill="#000000" fill-rule="nonzero" fill-opacity="1" /><path clip-path="url(#clip870)" d="M144.394 323.302 Q140.783 323.302 138.955 326.867 Q137.149 330.409 137.149 337.538 Q137.149 344.645 138.955 348.209 Q140.783 351.751 144.394 351.751 Q148.029 351.751 149.834 348.209 Q151.663 344.645 151.663 337.538 Q151.663 330.409 149.834 326.867 Q148.029 323.302 144.394 323.302 M144.394 319.598 Q150.205 319.598 153.26 324.205 Q156.339 328.788 156.339 337.538 Q156.339 346.265 153.26 350.871 Q150.205 355.455 144.394 355.455 Q138.584 355.455 135.506 350.871 Q132.45 346.265 132.45 337.538 Q132.45 328.788 135.506 324.205 Q138.584 319.598 144.394 319.598 Z" fill="#000000" fill-rule="nonzero" fill-opacity="1" /><path clip-path="url(#clip870)" d="M91.5706 177.737 L99.2095 177.737 L99.2095 151.371 L90.8993 153.038 L90.8993 148.778 L99.1632 147.112 L103.839 147.112 L103.839 177.737 L111.478 177.737 L111.478 181.672 L91.5706 181.672 L91.5706 177.737 Z" fill="#000000" fill-rule="nonzero" fill-opacity="1" /><path clip-path="url(#clip870)" d="M120.922 175.792 L125.807 175.792 L125.807 181.672 L120.922 181.672 L120.922 175.792 Z" fill="#000000" fill-rule="nonzero" fill-opacity="1" /><path clip-path="url(#clip870)" d="M140.019 177.737 L156.339 177.737 L156.339 181.672 L134.394 181.672 L134.394 177.737 Q137.056 174.982 141.64 170.352 Q146.246 165.7 147.427 164.357 Q149.672 161.834 150.552 160.098 Q151.455 158.339 151.455 156.649 Q151.455 153.894 149.51 152.158 Q147.589 150.422 144.487 150.422 Q142.288 150.422 139.834 151.186 Q137.404 151.95 134.626 153.501 L134.626 148.778 Q137.45 147.644 139.904 147.065 Q142.357 146.487 144.394 146.487 Q149.765 146.487 152.959 149.172 Q156.154 151.857 156.154 156.348 Q156.154 158.477 155.343 160.399 Q154.556 162.297 152.45 164.889 Q151.871 165.561 148.769 168.778 Q145.668 171.973 140.019 177.737 Z" fill="#000000" fill-rule="nonzero" fill-opacity="1" /><polyline clip-path="url(#clip872)" style="stroke:#009af9; stroke-linecap:round; stroke-linejoin:round; stroke-width:16; stroke-opacity:1; fill:none" stroke-dasharray="8, 16" points="253.483,1072.36 263.725,1056.57 273.966,1043.77 284.208,1035.17 294.45,1031.59 304.692,1033.51 314.934,1041.06 325.176,1054.09 335.418,1072.16 345.659,1094.71 355.901,1121.05 366.143,1150.54 376.385,1182.51 386.627,1215.98 396.869,1249.08 407.111,1278.82 417.352,1302.37 427.594,1319.6 437.836,1333.83 448.078,1349.23 458.32,1367.38 468.562,1384.95 478.803,1393.2 489.045,1384.28 499.287,1360.94 509.529,1335.21 519.771,1315.86 530.013,1298.68 540.255,1270.43 550.497,1225.23 560.738,1178.4 570.98,1150.16 581.222,1135.51 591.464,1119.97 601.706,1098.92 611.948,1075.2 622.19,1053.43 632.431,1036.97 642.673,1027.58 652.915,1025.86 663.157,1031.52 673.399,1043.65 683.641,1061.01 693.882,1082.38 704.124,1106.71 714.366,1133.2 724.608,1161.21 734.85,1190.23 745.092,1219.75 755.334,1249.23 765.575,1278.04 775.817,1305.37 786.059,1330.3 796.301,1351.67 806.543,1368.12 816.785,1378.07 827.027,1379.92 837.268,1372.61 847.51,1356.92 857.752,1337.26 867.994,1321.32 878.236,1313.76 888.478,1308.7 898.72,1292.46 908.961,1254.14 919.203,1195.12 929.445,1133.93 939.687,1096.04 949.929,1085.45 960.171,1082.36 970.413,1073.44 980.654,1059.86 990.896,1044.22 1001.14,1031.13 1011.38,1029.35 1021.62,1039.64 1031.86,1053.69 1042.11,1065.74 1052.35,1077.77 1062.59,1099.55 1072.83,1134.51 1083.07,1169.03 1093.31,1187.59 1103.56,1206.7 1113.8,1239.01 1124.04,1280.59 1134.28,1332.1 1144.52,1369.96 1154.77,1445.72 1165.01,1413.9 1175.25,1352.45 1185.49,1407.04 1195.73,1383.33 1205.98,1356.84 1216.22,1363.19 1226.46,1366.59 1236.7,1349.73 1246.94,1304.64 1257.18,1197.03 1267.43,1001.74 1277.67,735.88 1287.91,444.398 1298.15,280.571 1308.39,211.426 1318.64,167.336 1328.88,285.92 1339.12,394.461 1349.36,440.432 1359.6,399.737 1369.84,330.992 1380.09,315.335 1390.33,306.938 1400.57,322.75 1410.81,332.241 1421.05,333.692 1431.3,340.264 1441.54,336.161 1451.78,350.893 1462.02,386.387 1472.26,391.39 1482.51,360.151 1492.75,316.775 1502.99,280.17 1513.23,268.853 1523.47,288.779 1533.71,322.289 1543.96,353.479 1554.2,382.449 1564.44,407.696 1574.68,415.912 1584.92,389.633 1595.17,321.7 1605.41,253.29 1615.65,234.677 1625.89,247.577 1636.13,274.221 1646.38,307.935 1656.62,345.867 1666.86,384.389 1677.1,417.215 1687.34,435.317 1697.58,428.057 1707.83,390.272 1718.07,331.893 1728.31,270.771 1738.55,223.377 1748.79,213.922 1759.04,254.743 1769.28,321.924 1779.52,385.206 1789.76,429.185 1800,448.127 1810.24,441.04 1820.49,411.64 1830.73,366.946 1840.97,313.988 1851.21,257.864 1861.45,204.241 1871.7,188.441 1881.94,258.073 1892.18,356.805 1902.42,433.519 1912.66,478.626 1922.91,492.156 1933.15,475.157 1943.39,427.677 1953.63,348.587 1963.87,240.515 1974.11,130.02 1984.36,87.9763 1994.6,151.367 2004.84,274.285 2015.08,401.177 2025.32,494.949 2035.57,536.521 2045.81,521.176 2056.05,458.305 2066.29,369.552 2076.53,279.605 2086.77,206.681 2097.02,164.997 2107.26,165.766 2117.5,207.9 2127.74,278.121 2137.98,365.106 2148.23,462.295 2158.47,543.824 2168.71,551.217 2178.95,468.515 2189.19,343.736 2199.44,221.768 2209.68,145.831 2219.92,145.595 2230.16,197.508 2240.4,264.747 2250.64,331.445 2260.89,393.999 2271.13,451.848 2281.37,504.807 2291.61,552.791 "/>
<polyline clip-path="url(#clip872)" style="stroke:#e26f46; stroke-linecap:round; stroke-linejoin:round; stroke-width:4; stroke-opacity:1; fill:none" points="253.483,1073.06 263.725,1054.61 273.966,1041.01 284.208,1032.7 294.45,1029.95 304.692,1032.85 314.934,1041.3 325.176,1055.04 335.418,1073.6 345.659,1096.39 355.901,1122.66 366.143,1151.56 376.385,1182.13 386.627,1213.39 396.869,1244.32 407.111,1273.89 417.352,1301.16 427.594,1325.22 437.836,1345.29 448.078,1360.73 458.32,1371.01 468.562,1375.82 478.803,1374.99 489.045,1368.54 499.287,1356.7 509.529,1339.84 519.771,1318.52 530.013,1293.43 540.255,1265.39 550.497,1235.31 560.738,1204.19 570.98,1173.02 581.222,1142.84 591.464,1114.62 601.706,1089.29 611.948,1067.67 622.19,1050.47 632.431,1038.25 642.673,1031.41 652.915,1030.17 663.157,1034.58 673.399,1044.48 683.641,1059.56 693.882,1079.32 704.124,1103.12 714.366,1130.19 724.608,1159.63 734.85,1190.49 745.092,1221.75 755.334,1252.41 765.575,1281.46 775.817,1307.95 786.059,1331.02 796.301,1349.91 806.543,1364.01 816.785,1372.85 827.027,1376.15 837.268,1373.81 847.51,1365.89 857.752,1352.66 867.994,1334.54 878.236,1312.13 888.478,1286.17 898.72,1257.49 908.961,1227.03 919.203,1195.8 929.445,1164.8 939.687,1135.05 949.929,1107.51 960.171,1083.1 970.413,1062.6 980.654,1046.69 990.896,1035.88 1001.14,1030.53 1011.38,1030.8 1021.62,1036.7 1031.86,1048.03 1042.11,1064.42 1052.35,1085.33 1062.59,1110.09 1072.83,1137.88 1083.07,1167.8 1093.31,1198.87 1103.56,1230.07 1113.8,1260.4 1124.04,1288.85 1134.28,1314.5 1144.52,1336.52 1154.77,1354.18 1165.01,1366.91 1175.25,1374.29 1185.49,1376.08 1195.73,1372.22 1205.98,1362.85 1216.22,1348.26 1226.46,1328.93 1236.7,1305.49 1246.94,1278.71 1257.18,1249.46 1267.43,1218.7 1277.67,336.246 1287.91,334.816 1298.15,336.118 1308.39,340.452 1318.64,346.49 1328.88,351.681 1339.12,353.218 1349.36,349.224 1359.6,339.703 1369.84,326.867 1380.09,314.653 1390.33,307.518 1400.57,308.887 1410.81,319.774 1421.05,338.085 1431.3,358.924 1441.54,375.895 1451.78,383.053 1462.02,376.925 1472.26,357.913 1482.51,330.565 1492.75,302.539 1502.99,282.452 1513.23,277.249 1523.47,289.863 1533.71,317.966 1543.96,354.261 1554.2,388.355 1564.44,409.738 1574.68,411.004 1584.92,390.346 1595.17,352.486 1605.41,307.67 1615.65,268.904 1625.89,248.181 1636.13,252.789 1646.38,282.833 1656.62,330.796 1666.86,383.376 1677.1,425.171 1687.34,443.191 1697.58,430.868 1707.83,390.349 1718.07,332.272 1728.31,273.007 1738.55,230.034 1748.79,216.8 1759.04,238.532 1769.28,290.329 1779.52,358.184 1789.76,422.757 1800,464.886 1810.24,471.267 1820.49,438.624 1830.73,375.062 1840.97,298.107 1851.21,229.879 1861.45,190.738 1871.7,193.212 1881.94,238.034 1892.18,313.511 1902.42,398.547 1912.66,468.534 1922.91,502.47 1933.15,489.255 1943.39,431.264 1953.63,344.073 1963.87,252.301 1974.11,182.655 1984.36,156.162 1994.6,181.836 2004.84,253.682 2015.08,352.025 2025.32,448.882 2035.57,515.927 2045.81,532.767 2056.05,493.131 2066.29,407.083 2076.53,298.508 2086.77,198.494 2097.02,136.426 2107.26,131.363 2117.5,186.205 2127.74,286.444 2137.98,403.977 2148.23,504.978 2158.47,559.631 2168.71,550.929 2178.95,479.935 2189.19,365.887 2199.44,241.006 2209.68,141.397 2219.92,96.6057 2230.16,120.87 2240.4,208.632 2250.64,335.726 2260.89,466.026 2271.13,561.711 2281.37,594.237 2291.61,552.848 "/>
<path clip-path="url(#clip870)" d="M264.353 250.738 L707.222 250.738 L707.222 95.2176 L264.353 95.2176  Z" fill="#ffffff" fill-rule="evenodd" fill-opacity="1"/>
<polyline clip-path="url(#clip870)" style="stroke:#000000; stroke-linecap:round; stroke-linejoin:round; stroke-width:4; stroke-opacity:1; fill:none" points="264.353,250.738 707.222,250.738 707.222,95.2176 264.353,95.2176 264.353,250.738 "/>
<polyline clip-path="url(#clip870)" style="stroke:#009af9; stroke-linecap:round; stroke-linejoin:round; stroke-width:16; stroke-opacity:1; fill:none" stroke-dasharray="8, 16" points="288.357,147.058 432.385,147.058 "/>
<path clip-path="url(#clip870)" d="M461.066 133.62 L461.066 146.606 L466.945 146.606 Q470.209 146.606 471.992 144.916 Q473.774 143.227 473.774 140.102 Q473.774 137 471.992 135.31 Q470.209 133.62 466.945 133.62 L461.066 133.62 M456.39 129.778 L466.945 129.778 Q472.755 129.778 475.718 132.416 Q478.704 135.032 478.704 140.102 Q478.704 145.217 475.718 147.833 Q472.755 150.449 466.945 150.449 L461.066 150.449 L461.066 164.338 L456.39 164.338 L456.39 129.778 Z" fill="#000000" fill-rule="nonzero" fill-opacity="1" /><path clip-path="url(#clip870)" d="M498.982 142.393 Q498.265 141.977 497.408 141.791 Q496.575 141.583 495.556 141.583 Q491.945 141.583 490.001 143.944 Q488.079 146.282 488.079 150.68 L488.079 164.338 L483.797 164.338 L483.797 138.412 L488.079 138.412 L488.079 142.44 Q489.422 140.078 491.575 138.944 Q493.728 137.787 496.806 137.787 Q497.246 137.787 497.778 137.856 Q498.311 137.903 498.959 138.018 L498.982 142.393 Z" fill="#000000" fill-rule="nonzero" fill-opacity="1" /><path clip-path="url(#clip870)" d="M524.584 150.31 L524.584 152.393 L505.001 152.393 Q505.278 156.791 507.639 159.106 Q510.024 161.398 514.26 161.398 Q516.714 161.398 519.005 160.796 Q521.32 160.194 523.588 158.99 L523.588 163.018 Q521.297 163.99 518.889 164.5 Q516.482 165.009 514.005 165.009 Q507.802 165.009 504.167 161.398 Q500.556 157.787 500.556 151.629 Q500.556 145.264 503.982 141.537 Q507.431 137.787 513.264 137.787 Q518.496 137.787 521.528 141.166 Q524.584 144.523 524.584 150.31 M520.325 149.06 Q520.278 145.565 518.357 143.481 Q516.459 141.398 513.311 141.398 Q509.746 141.398 507.593 143.412 Q505.464 145.426 505.14 149.083 L520.325 149.06 Z" fill="#000000" fill-rule="nonzero" fill-opacity="1" /><path clip-path="url(#clip870)" d="M548.635 142.347 L548.635 128.319 L552.894 128.319 L552.894 164.338 L548.635 164.338 L548.635 160.449 Q547.292 162.763 545.232 163.898 Q543.195 165.009 540.325 165.009 Q535.625 165.009 532.663 161.259 Q529.723 157.509 529.723 151.398 Q529.723 145.287 532.663 141.537 Q535.625 137.787 540.325 137.787 Q543.195 137.787 545.232 138.921 Q547.292 140.032 548.635 142.347 M534.121 151.398 Q534.121 156.097 536.042 158.782 Q537.987 161.444 541.366 161.444 Q544.746 161.444 546.69 158.782 Q548.635 156.097 548.635 151.398 Q548.635 146.699 546.69 144.037 Q544.746 141.352 541.366 141.352 Q537.987 141.352 536.042 144.037 Q534.121 146.699 534.121 151.398 Z" fill="#000000" fill-rule="nonzero" fill-opacity="1" /><path clip-path="url(#clip870)" d="M561.667 138.412 L565.926 138.412 L565.926 164.338 L561.667 164.338 L561.667 138.412 M561.667 128.319 L565.926 128.319 L565.926 133.713 L561.667 133.713 L561.667 128.319 Z" fill="#000000" fill-rule="nonzero" fill-opacity="1" /><path clip-path="url(#clip870)" d="M593.496 139.407 L593.496 143.389 Q591.69 142.393 589.861 141.907 Q588.056 141.398 586.204 141.398 Q582.06 141.398 579.769 144.037 Q577.477 146.652 577.477 151.398 Q577.477 156.143 579.769 158.782 Q582.06 161.398 586.204 161.398 Q588.056 161.398 589.861 160.912 Q591.69 160.402 593.496 159.407 L593.496 163.342 Q591.713 164.176 589.792 164.592 Q587.894 165.009 585.741 165.009 Q579.884 165.009 576.435 161.328 Q572.986 157.648 572.986 151.398 Q572.986 145.055 576.459 141.421 Q579.954 137.787 586.019 137.787 Q587.986 137.787 589.861 138.203 Q591.736 138.597 593.496 139.407 Z" fill="#000000" fill-rule="nonzero" fill-opacity="1" /><path clip-path="url(#clip870)" d="M605.116 131.051 L605.116 138.412 L613.889 138.412 L613.889 141.722 L605.116 141.722 L605.116 155.796 Q605.116 158.967 605.972 159.87 Q606.852 160.773 609.514 160.773 L613.889 160.773 L613.889 164.338 L609.514 164.338 Q604.583 164.338 602.708 162.509 Q600.833 160.657 600.833 155.796 L600.833 141.722 L597.708 141.722 L597.708 138.412 L600.833 138.412 L600.833 131.051 L605.116 131.051 Z" fill="#000000" fill-rule="nonzero" fill-opacity="1" /><path clip-path="url(#clip870)" d="M619.491 138.412 L623.75 138.412 L623.75 164.338 L619.491 164.338 L619.491 138.412 M619.491 128.319 L623.75 128.319 L623.75 133.713 L619.491 133.713 L619.491 128.319 Z" fill="#000000" fill-rule="nonzero" fill-opacity="1" /><path clip-path="url(#clip870)" d="M642.708 141.398 Q639.282 141.398 637.292 144.083 Q635.301 146.745 635.301 151.398 Q635.301 156.051 637.268 158.736 Q639.259 161.398 642.708 161.398 Q646.111 161.398 648.102 158.713 Q650.092 156.027 650.092 151.398 Q650.092 146.791 648.102 144.106 Q646.111 141.398 642.708 141.398 M642.708 137.787 Q648.264 137.787 651.435 141.398 Q654.606 145.009 654.606 151.398 Q654.606 157.764 651.435 161.398 Q648.264 165.009 642.708 165.009 Q637.13 165.009 633.958 161.398 Q630.81 157.764 630.81 151.398 Q630.81 145.009 633.958 141.398 Q637.13 137.787 642.708 137.787 Z" fill="#000000" fill-rule="nonzero" fill-opacity="1" /><path clip-path="url(#clip870)" d="M683.217 148.689 L683.217 164.338 L678.958 164.338 L678.958 148.828 Q678.958 145.148 677.523 143.319 Q676.088 141.49 673.217 141.49 Q669.768 141.49 667.778 143.69 Q665.787 145.889 665.787 149.685 L665.787 164.338 L661.504 164.338 L661.504 138.412 L665.787 138.412 L665.787 142.44 Q667.315 140.102 669.375 138.944 Q671.458 137.787 674.166 137.787 Q678.634 137.787 680.926 140.565 Q683.217 143.319 683.217 148.689 Z" fill="#000000" fill-rule="nonzero" fill-opacity="1" /><polyline clip-path="url(#clip870)" style="stroke:#e26f46; stroke-linecap:round; stroke-linejoin:round; stroke-width:4; stroke-opacity:1; fill:none" points="288.357,198.898 432.385,198.898 "/>
<path clip-path="url(#clip870)" d="M456.39 181.618 L478.242 181.618 L478.242 185.553 L461.066 185.553 L461.066 195.784 L477.524 195.784 L477.524 199.719 L461.066 199.719 L461.066 212.242 L478.658 212.242 L478.658 216.178 L456.39 216.178 L456.39 181.618 Z" fill="#000000" fill-rule="nonzero" fill-opacity="1" /><path clip-path="url(#clip870)" d="M507.709 190.252 L498.334 202.867 L508.195 216.178 L503.172 216.178 L495.626 205.992 L488.079 216.178 L483.056 216.178 L493.126 202.613 L483.913 190.252 L488.936 190.252 L495.811 199.488 L502.686 190.252 L507.709 190.252 Z" fill="#000000" fill-rule="nonzero" fill-opacity="1" /><path clip-path="url(#clip870)" d="M525.996 203.145 Q520.834 203.145 518.843 204.326 Q516.852 205.506 516.852 208.354 Q516.852 210.622 518.334 211.965 Q519.838 213.284 522.408 213.284 Q525.95 213.284 528.079 210.784 Q530.232 208.261 530.232 204.094 L530.232 203.145 L525.996 203.145 M534.491 201.386 L534.491 216.178 L530.232 216.178 L530.232 212.242 Q528.774 214.603 526.598 215.738 Q524.422 216.849 521.274 216.849 Q517.292 216.849 514.931 214.627 Q512.593 212.381 512.593 208.631 Q512.593 204.256 515.51 202.034 Q518.45 199.812 524.26 199.812 L530.232 199.812 L530.232 199.395 Q530.232 196.455 528.288 194.858 Q526.366 193.238 522.871 193.238 Q520.649 193.238 518.542 193.77 Q516.436 194.303 514.491 195.367 L514.491 191.432 Q516.829 190.53 519.028 190.09 Q521.227 189.627 523.311 189.627 Q528.936 189.627 531.713 192.543 Q534.491 195.46 534.491 201.386 Z" fill="#000000" fill-rule="nonzero" fill-opacity="1" /><path clip-path="url(#clip870)" d="M561.922 191.247 L561.922 195.229 Q560.116 194.233 558.287 193.747 Q556.482 193.238 554.63 193.238 Q550.486 193.238 548.195 195.877 Q545.903 198.492 545.903 203.238 Q545.903 207.983 548.195 210.622 Q550.486 213.238 554.63 213.238 Q556.482 213.238 558.287 212.752 Q560.116 212.242 561.922 211.247 L561.922 215.182 Q560.139 216.016 558.218 216.432 Q556.32 216.849 554.167 216.849 Q548.311 216.849 544.862 213.168 Q541.412 209.488 541.412 203.238 Q541.412 196.895 544.885 193.261 Q548.38 189.627 554.445 189.627 Q556.412 189.627 558.287 190.043 Q560.162 190.437 561.922 191.247 Z" fill="#000000" fill-rule="nonzero" fill-opacity="1" /><path clip-path="url(#clip870)" d="M573.542 182.891 L573.542 190.252 L582.315 190.252 L582.315 193.562 L573.542 193.562 L573.542 207.636 Q573.542 210.807 574.398 211.71 Q575.278 212.613 577.94 212.613 L582.315 212.613 L582.315 216.178 L577.94 216.178 Q573.01 216.178 571.135 214.349 Q569.26 212.497 569.26 207.636 L569.26 193.562 L566.135 193.562 L566.135 190.252 L569.26 190.252 L569.26 182.891 L573.542 182.891 Z" fill="#000000" fill-rule="nonzero" fill-opacity="1" /></svg>
