<?xml version="1.0" encoding="utf-8"?>
<svg xmlns="http://www.w3.org/2000/svg" xmlns:xlink="http://www.w3.org/1999/xlink" width="600" height="400" viewBox="0 0 2400 1600">
<defs>
  <clipPath id="clip380">
    <rect x="0" y="0" width="2400" height="1600"/>
  </clipPath>
</defs>
<path clip-path="url(#clip380)" d="M0 1600 L2400 1600 L2400 0 L0 0  Z" fill="#ffffff" fill-rule="evenodd" fill-opacity="1"/>
<defs>
  <clipPath id="clip381">
    <rect x="480" y="0" width="1681" height="1600"/>
  </clipPath>
</defs>
<path clip-path="url(#clip380)" d="M156.274 1486.45 L2352.76 1486.45 L2352.76 47.2441 L156.274 47.2441  Z" fill="#ffffff" fill-rule="evenodd" fill-opacity="1"/>
<defs>
  <clipPath id="clip382">
    <rect x="156" y="47" width="2197" height="1440"/>
  </clipPath>
</defs>
<polyline clip-path="url(#clip382)" style="stroke:#000000; stroke-linecap:round; stroke-linejoin:round; stroke-width:2; stroke-opacity:0.1; fill:none" points="218.439,1486.45 218.439,47.2441 "/>
<polyline clip-path="url(#clip382)" style="stroke:#000000; stroke-linecap:round; stroke-linejoin:round; stroke-width:2; stroke-opacity:0.1; fill:none" points="736.477,1486.45 736.477,47.2441 "/>
<polyline clip-path="url(#clip382)" style="stroke:#000000; stroke-linecap:round; stroke-linejoin:round; stroke-width:2; stroke-opacity:0.1; fill:none" points="1254.52,1486.45 1254.52,47.2441 "/>
<polyline clip-path="url(#clip382)" style="stroke:#000000; stroke-linecap:round; stroke-linejoin:round; stroke-width:2; stroke-opacity:0.1; fill:none" points="1772.55,1486.45 1772.55,47.2441 "/>
<polyline clip-path="url(#clip382)" style="stroke:#000000; stroke-linecap:round; stroke-linejoin:round; stroke-width:2; stroke-opacity:0.1; fill:none" points="2290.59,1486.45 2290.59,47.2441 "/>
<polyline clip-path="url(#clip380)" style="stroke:#000000; stroke-linecap:round; stroke-linejoin:round; stroke-width:4; stroke-opacity:1; fill:none" points="156.274,1486.45 2352.76,1486.45 "/>
<polyline clip-path="url(#clip380)" style="stroke:#000000; stroke-linecap:round; stroke-linejoin:round; stroke-width:4; stroke-opacity:1; fill:none" points="218.439,1486.45 218.439,1467.55 "/>
<polyline clip-path="url(#clip380)" style="stroke:#000000; stroke-linecap:round; stroke-linejoin:round; stroke-width:4; stroke-opacity:1; fill:none" points="736.477,1486.45 736.477,1467.55 "/>
<polyline clip-path="url(#clip380)" style="stroke:#000000; stroke-linecap:round; stroke-linejoin:round; stroke-width:4; stroke-opacity:1; fill:none" points="1254.52,1486.45 1254.52,1467.55 "/>
<polyline clip-path="url(#clip380)" style="stroke:#000000; stroke-linecap:round; stroke-linejoin:round; stroke-width:4; stroke-opacity:1; fill:none" points="1772.55,1486.45 1772.55,1467.55 "/>
<polyline clip-path="url(#clip380)" style="stroke:#000000; stroke-linecap:round; stroke-linejoin:round; stroke-width:4; stroke-opacity:1; fill:none" points="2290.59,1486.45 2290.59,1467.55 "/>
<path clip-path="url(#clip380)" d="M164.967 1532.02 L194.643 1532.02 L194.643 1535.95 L164.967 1535.95 L164.967 1532.02 Z" fill="#000000" fill-rule="nonzero" fill-opacity="1" /><path clip-path="url(#clip380)" d="M205.545 1544.91 L213.184 1544.91 L213.184 1518.55 L204.874 1520.21 L204.874 1515.95 L213.138 1514.29 L217.814 1514.29 L217.814 1544.91 L225.453 1544.91 L225.453 1548.85 L205.545 1548.85 L205.545 1544.91 Z" fill="#000000" fill-rule="nonzero" fill-opacity="1" /><path clip-path="url(#clip380)" d="M234.897 1542.97 L239.781 1542.97 L239.781 1548.85 L234.897 1548.85 L234.897 1542.97 Z" fill="#000000" fill-rule="nonzero" fill-opacity="1" /><path clip-path="url(#clip380)" d="M259.966 1517.37 Q256.355 1517.37 254.527 1520.93 Q252.721 1524.47 252.721 1531.6 Q252.721 1538.71 254.527 1542.27 Q256.355 1545.82 259.966 1545.82 Q263.601 1545.82 265.406 1542.27 Q267.235 1538.71 267.235 1531.6 Q267.235 1524.47 265.406 1520.93 Q263.601 1517.37 259.966 1517.37 M259.966 1513.66 Q265.776 1513.66 268.832 1518.27 Q271.911 1522.85 271.911 1531.6 Q271.911 1540.33 268.832 1544.94 Q265.776 1549.52 259.966 1549.52 Q254.156 1549.52 251.077 1544.94 Q248.022 1540.33 248.022 1531.6 Q248.022 1522.85 251.077 1518.27 Q254.156 1513.66 259.966 1513.66 Z" fill="#000000" fill-rule="nonzero" fill-opacity="1" /><path clip-path="url(#clip380)" d="M683.503 1532.02 L713.178 1532.02 L713.178 1535.95 L683.503 1535.95 L683.503 1532.02 Z" fill="#000000" fill-rule="nonzero" fill-opacity="1" /><path clip-path="url(#clip380)" d="M733.271 1517.37 Q729.66 1517.37 727.831 1520.93 Q726.026 1524.47 726.026 1531.6 Q726.026 1538.71 727.831 1542.27 Q729.66 1545.82 733.271 1545.82 Q736.905 1545.82 738.711 1542.27 Q740.539 1538.71 740.539 1531.6 Q740.539 1524.47 738.711 1520.93 Q736.905 1517.37 733.271 1517.37 M733.271 1513.66 Q739.081 1513.66 742.137 1518.27 Q745.215 1522.85 745.215 1531.6 Q745.215 1540.33 742.137 1544.94 Q739.081 1549.52 733.271 1549.52 Q727.461 1549.52 724.382 1544.94 Q721.327 1540.33 721.327 1531.6 Q721.327 1522.85 724.382 1518.27 Q727.461 1513.66 733.271 1513.66 Z" fill="#000000" fill-rule="nonzero" fill-opacity="1" /><path clip-path="url(#clip380)" d="M753.433 1542.97 L758.317 1542.97 L758.317 1548.85 L753.433 1548.85 L753.433 1542.97 Z" fill="#000000" fill-rule="nonzero" fill-opacity="1" /><path clip-path="url(#clip380)" d="M768.548 1514.29 L786.905 1514.29 L786.905 1518.22 L772.831 1518.22 L772.831 1526.7 Q773.849 1526.35 774.868 1526.19 Q775.886 1526 776.905 1526 Q782.692 1526 786.072 1529.17 Q789.451 1532.34 789.451 1537.76 Q789.451 1543.34 785.979 1546.44 Q782.507 1549.52 776.187 1549.52 Q774.011 1549.52 771.743 1549.15 Q769.498 1548.78 767.09 1548.04 L767.09 1543.34 Q769.173 1544.47 771.396 1545.03 Q773.618 1545.58 776.095 1545.58 Q780.099 1545.58 782.437 1543.48 Q784.775 1541.37 784.775 1537.76 Q784.775 1534.15 782.437 1532.04 Q780.099 1529.94 776.095 1529.94 Q774.22 1529.94 772.345 1530.35 Q770.493 1530.77 768.548 1531.65 L768.548 1514.29 Z" fill="#000000" fill-rule="nonzero" fill-opacity="1" /><path clip-path="url(#clip380)" d="M1231.9 1517.37 Q1228.29 1517.37 1226.46 1520.93 Q1224.65 1524.47 1224.65 1531.6 Q1224.65 1538.71 1226.46 1542.27 Q1228.29 1545.82 1231.9 1545.82 Q1235.53 1545.82 1237.34 1542.27 Q1239.17 1538.71 1239.17 1531.6 Q1239.17 1524.47 1237.34 1520.93 Q1235.53 1517.37 1231.9 1517.37 M1231.9 1513.66 Q1237.71 1513.66 1240.77 1518.27 Q1243.84 1522.85 1243.84 1531.6 Q1243.84 1540.33 1240.77 1544.94 Q1237.71 1549.52 1231.9 1549.52 Q1226.09 1549.52 1223.01 1544.94 Q1219.96 1540.33 1219.96 1531.6 Q1219.96 1522.85 1223.01 1518.27 Q1226.09 1513.66 1231.9 1513.66 Z" fill="#000000" fill-rule="nonzero" fill-opacity="1" /><path clip-path="url(#clip380)" d="M1252.06 1542.97 L1256.95 1542.97 L1256.95 1548.85 L1252.06 1548.85 L1252.06 1542.97 Z" fill="#000000" fill-rule="nonzero" fill-opacity="1" /><path clip-path="url(#clip380)" d="M1277.13 1517.37 Q1273.52 1517.37 1271.69 1520.93 Q1269.89 1524.47 1269.89 1531.6 Q1269.89 1538.71 1271.69 1542.27 Q1273.52 1545.82 1277.13 1545.82 Q1280.76 1545.82 1282.57 1542.27 Q1284.4 1538.71 1284.4 1531.6 Q1284.4 1524.47 1282.57 1520.93 Q1280.76 1517.37 1277.13 1517.37 M1277.13 1513.66 Q1282.94 1513.66 1286 1518.27 Q1289.08 1522.85 1289.08 1531.6 Q1289.08 1540.33 1286 1544.94 Q1282.94 1549.52 1277.13 1549.52 Q1271.32 1549.52 1268.24 1544.94 Q1265.19 1540.33 1265.19 1531.6 Q1265.19 1522.85 1268.24 1518.27 Q1271.32 1513.66 1277.13 1513.66 Z" fill="#000000" fill-rule="nonzero" fill-opacity="1" /><path clip-path="url(#clip380)" d="M1750.44 1517.37 Q1746.82 1517.37 1745 1520.93 Q1743.19 1524.47 1743.19 1531.6 Q1743.19 1538.71 1745 1542.27 Q1746.82 1545.82 1750.44 1545.82 Q1754.07 1545.82 1755.88 1542.27 Q1757.7 1538.71 1757.7 1531.6 Q1757.7 1524.47 1755.88 1520.93 Q1754.07 1517.37 1750.44 1517.37 M1750.44 1513.66 Q1756.25 1513.66 1759.3 1518.27 Q1762.38 1522.85 1762.38 1531.6 Q1762.38 1540.33 1759.3 1544.94 Q1756.25 1549.52 1750.44 1549.52 Q1744.63 1549.52 1741.55 1544.94 Q1738.49 1540.33 1738.49 1531.6 Q1738.49 1522.85 1741.55 1518.27 Q1744.63 1513.66 1750.44 1513.66 Z" fill="#000000" fill-rule="nonzero" fill-opacity="1" /><path clip-path="url(#clip380)" d="M1770.6 1542.97 L1775.48 1542.97 L1775.48 1548.85 L1770.6 1548.85 L1770.6 1542.97 Z" fill="#000000" fill-rule="nonzero" fill-opacity="1" /><path clip-path="url(#clip380)" d="M1785.71 1514.29 L1804.07 1514.29 L1804.07 1518.22 L1790 1518.22 L1790 1526.7 Q1791.01 1526.35 1792.03 1526.19 Q1793.05 1526 1794.07 1526 Q1799.86 1526 1803.24 1529.17 Q1806.62 1532.34 1806.62 1537.76 Q1806.62 1543.34 1803.14 1546.44 Q1799.67 1549.52 1793.35 1549.52 Q1791.18 1549.52 1788.91 1549.15 Q1786.66 1548.78 1784.25 1548.04 L1784.25 1543.34 Q1786.34 1544.47 1788.56 1545.03 Q1790.78 1545.58 1793.26 1545.58 Q1797.26 1545.58 1799.6 1543.48 Q1801.94 1541.37 1801.94 1537.76 Q1801.94 1534.15 1799.6 1532.04 Q1797.26 1529.94 1793.26 1529.94 Q1791.38 1529.94 1789.51 1530.35 Q1787.66 1530.77 1785.71 1531.65 L1785.71 1514.29 Z" fill="#000000" fill-rule="nonzero" fill-opacity="1" /><path clip-path="url(#clip380)" d="M2257.74 1544.91 L2265.38 1544.91 L2265.38 1518.55 L2257.07 1520.21 L2257.07 1515.95 L2265.34 1514.29 L2270.01 1514.29 L2270.01 1544.91 L2277.65 1544.91 L2277.65 1548.85 L2257.74 1548.85 L2257.74 1544.91 Z" fill="#000000" fill-rule="nonzero" fill-opacity="1" /><path clip-path="url(#clip380)" d="M2287.1 1542.97 L2291.98 1542.97 L2291.98 1548.85 L2287.1 1548.85 L2287.1 1542.97 Z" fill="#000000" fill-rule="nonzero" fill-opacity="1" /><path clip-path="url(#clip380)" d="M2312.17 1517.37 Q2308.55 1517.37 2306.73 1520.93 Q2304.92 1524.47 2304.92 1531.6 Q2304.92 1538.71 2306.73 1542.27 Q2308.55 1545.82 2312.17 1545.82 Q2315.8 1545.82 2317.61 1542.27 Q2319.43 1538.71 2319.43 1531.6 Q2319.43 1524.47 2317.61 1520.93 Q2315.8 1517.37 2312.17 1517.37 M2312.17 1513.66 Q2317.98 1513.66 2321.03 1518.27 Q2324.11 1522.85 2324.11 1531.6 Q2324.11 1540.33 2321.03 1544.94 Q2317.98 1549.52 2312.17 1549.52 Q2306.36 1549.52 2303.28 1544.94 Q2300.22 1540.33 2300.22 1531.6 Q2300.22 1522.85 2303.28 1518.27 Q2306.36 1513.66 2312.17 1513.66 Z" fill="#000000" fill-rule="nonzero" fill-opacity="1" /><polyline clip-path="url(#clip382)" style="stroke:#000000; stroke-linecap:round; stroke-linejoin:round; stroke-width:2; stroke-opacity:0.1; fill:none" points="156.274,1257.29 2352.76,1257.29 "/>
<polyline clip-path="url(#clip382)" style="stroke:#000000; stroke-linecap:round; stroke-linejoin:round; stroke-width:2; stroke-opacity:0.1; fill:none" points="156.274,983.866 2352.76,983.866 "/>
<polyline clip-path="url(#clip382)" style="stroke:#000000; stroke-linecap:round; stroke-linejoin:round; stroke-width:2; stroke-opacity:0.1; fill:none" points="156.274,710.446 2352.76,710.446 "/>
<polyline clip-path="url(#clip382)" style="stroke:#000000; stroke-linecap:round; stroke-linejoin:round; stroke-width:2; stroke-opacity:0.1; fill:none" points="156.274,437.026 2352.76,437.026 "/>
<polyline clip-path="url(#clip382)" style="stroke:#000000; stroke-linecap:round; stroke-linejoin:round; stroke-width:2; stroke-opacity:0.1; fill:none" points="156.274,163.607 2352.76,163.607 "/>
<polyline clip-path="url(#clip380)" style="stroke:#000000; stroke-linecap:round; stroke-linejoin:round; stroke-width:4; stroke-opacity:1; fill:none" points="156.274,1486.45 156.274,47.2441 "/>
<polyline clip-path="url(#clip380)" style="stroke:#000000; stroke-linecap:round; stroke-linejoin:round; stroke-width:4; stroke-opacity:1; fill:none" points="156.274,1257.29 175.172,1257.29 "/>
<polyline clip-path="url(#clip380)" style="stroke:#000000; stroke-linecap:round; stroke-linejoin:round; stroke-width:4; stroke-opacity:1; fill:none" points="156.274,983.866 175.172,983.866 "/>
<polyline clip-path="url(#clip380)" style="stroke:#000000; stroke-linecap:round; stroke-linejoin:round; stroke-width:4; stroke-opacity:1; fill:none" points="156.274,710.446 175.172,710.446 "/>
<polyline clip-path="url(#clip380)" style="stroke:#000000; stroke-linecap:round; stroke-linejoin:round; stroke-width:4; stroke-opacity:1; fill:none" points="156.274,437.026 175.172,437.026 "/>
<polyline clip-path="url(#clip380)" style="stroke:#000000; stroke-linecap:round; stroke-linejoin:round; stroke-width:4; stroke-opacity:1; fill:none" points="156.274,163.607 175.172,163.607 "/>
<path clip-path="url(#clip380)" d="M63.0985 1243.08 Q59.4875 1243.08 57.6588 1246.65 Q55.8532 1250.19 55.8532 1257.32 Q55.8532 1264.43 57.6588 1267.99 Q59.4875 1271.53 63.0985 1271.53 Q66.7328 1271.53 68.5383 1267.99 Q70.367 1264.43 70.367 1257.32 Q70.367 1250.19 68.5383 1246.65 Q66.7328 1243.08 63.0985 1243.08 M63.0985 1239.38 Q68.9087 1239.38 71.9642 1243.99 Q75.0429 1248.57 75.0429 1257.32 Q75.0429 1266.05 71.9642 1270.65 Q68.9087 1275.24 63.0985 1275.24 Q57.2884 1275.24 54.2097 1270.65 Q51.1542 1266.05 51.1542 1257.32 Q51.1542 1248.57 54.2097 1243.99 Q57.2884 1239.38 63.0985 1239.38 Z" fill="#000000" fill-rule="nonzero" fill-opacity="1" /><path clip-path="url(#clip380)" d="M83.2605 1268.69 L88.1447 1268.69 L88.1447 1274.57 L83.2605 1274.57 L83.2605 1268.69 Z" fill="#000000" fill-rule="nonzero" fill-opacity="1" /><path clip-path="url(#clip380)" d="M108.33 1243.08 Q104.719 1243.08 102.89 1246.65 Q101.084 1250.19 101.084 1257.32 Q101.084 1264.43 102.89 1267.99 Q104.719 1271.53 108.33 1271.53 Q111.964 1271.53 113.77 1267.99 Q115.598 1264.43 115.598 1257.32 Q115.598 1250.19 113.77 1246.65 Q111.964 1243.08 108.33 1243.08 M108.33 1239.38 Q114.14 1239.38 117.195 1243.99 Q120.274 1248.57 120.274 1257.32 Q120.274 1266.05 117.195 1270.65 Q114.14 1275.24 108.33 1275.24 Q102.52 1275.24 99.4409 1270.65 Q96.3854 1266.05 96.3854 1257.32 Q96.3854 1248.57 99.4409 1243.99 Q102.52 1239.38 108.33 1239.38 Z" fill="#000000" fill-rule="nonzero" fill-opacity="1" /><path clip-path="url(#clip380)" d="M63.7467 969.664 Q60.1356 969.664 58.3069 973.229 Q56.5014 976.771 56.5014 983.901 Q56.5014 991.007 58.3069 994.572 Q60.1356 998.113 63.7467 998.113 Q67.3809 998.113 69.1865 994.572 Q71.0152 991.007 71.0152 983.901 Q71.0152 976.771 69.1865 973.229 Q67.3809 969.664 63.7467 969.664 M63.7467 965.961 Q69.5568 965.961 72.6124 970.567 Q75.6911 975.151 75.6911 983.901 Q75.6911 992.627 72.6124 997.234 Q69.5568 1001.82 63.7467 1001.82 Q57.9365 1001.82 54.8578 997.234 Q51.8023 992.627 51.8023 983.901 Q51.8023 975.151 54.8578 970.567 Q57.9365 965.961 63.7467 965.961 Z" fill="#000000" fill-rule="nonzero" fill-opacity="1" /><path clip-path="url(#clip380)" d="M83.9086 995.266 L88.7928 995.266 L88.7928 1001.15 L83.9086 1001.15 L83.9086 995.266 Z" fill="#000000" fill-rule="nonzero" fill-opacity="1" /><path clip-path="url(#clip380)" d="M113.145 982.512 Q116.501 983.229 118.376 985.498 Q120.274 987.766 120.274 991.1 Q120.274 996.215 116.756 999.016 Q113.237 1001.82 106.756 1001.82 Q104.58 1001.82 102.265 1001.38 Q99.9733 1000.96 97.5197 1000.1 L97.5197 995.59 Q99.4641 996.725 101.779 997.303 Q104.094 997.882 106.617 997.882 Q111.015 997.882 113.307 996.146 Q115.621 994.41 115.621 991.1 Q115.621 988.044 113.469 986.331 Q111.339 984.595 107.52 984.595 L103.492 984.595 L103.492 980.752 L107.705 980.752 Q111.154 980.752 112.983 979.387 Q114.811 977.998 114.811 975.405 Q114.811 972.743 112.913 971.331 Q111.038 969.896 107.52 969.896 Q105.598 969.896 103.399 970.313 Q101.2 970.729 98.5613 971.609 L98.5613 967.442 Q101.223 966.702 103.538 966.331 Q105.876 965.961 107.936 965.961 Q113.26 965.961 116.362 968.391 Q119.464 970.799 119.464 974.919 Q119.464 977.789 117.82 979.78 Q116.177 981.748 113.145 982.512 Z" fill="#000000" fill-rule="nonzero" fill-opacity="1" /><path clip-path="url(#clip380)" d="M62.9365 696.245 Q59.3254 696.245 57.4967 699.81 Q55.6912 703.351 55.6912 710.481 Q55.6912 717.587 57.4967 721.152 Q59.3254 724.694 62.9365 724.694 Q66.5707 724.694 68.3763 721.152 Q70.205 717.587 70.205 710.481 Q70.205 703.351 68.3763 699.81 Q66.5707 696.245 62.9365 696.245 M62.9365 692.541 Q68.7467 692.541 71.8022 697.148 Q74.8809 701.731 74.8809 710.481 Q74.8809 719.208 71.8022 723.814 Q68.7467 728.397 62.9365 728.397 Q57.1264 728.397 54.0477 723.814 Q50.9921 719.208 50.9921 710.481 Q50.9921 701.731 54.0477 697.148 Q57.1264 692.541 62.9365 692.541 Z" fill="#000000" fill-rule="nonzero" fill-opacity="1" /><path clip-path="url(#clip380)" d="M83.0984 721.847 L87.9827 721.847 L87.9827 727.726 L83.0984 727.726 L83.0984 721.847 Z" fill="#000000" fill-rule="nonzero" fill-opacity="1" /><path clip-path="url(#clip380)" d="M108.746 708.583 Q105.598 708.583 103.746 710.736 Q101.918 712.888 101.918 716.638 Q101.918 720.365 103.746 722.541 Q105.598 724.694 108.746 724.694 Q111.895 724.694 113.723 722.541 Q115.575 720.365 115.575 716.638 Q115.575 712.888 113.723 710.736 Q111.895 708.583 108.746 708.583 M118.029 693.93 L118.029 698.189 Q116.27 697.356 114.464 696.916 Q112.682 696.476 110.922 696.476 Q106.293 696.476 103.839 699.601 Q101.409 702.726 101.061 709.046 Q102.427 707.032 104.487 705.967 Q106.547 704.879 109.024 704.879 Q114.233 704.879 117.242 708.05 Q120.274 711.198 120.274 716.638 Q120.274 721.962 117.126 725.18 Q113.978 728.397 108.746 728.397 Q102.751 728.397 99.5798 723.814 Q96.4085 719.208 96.4085 710.481 Q96.4085 702.286 100.297 697.425 Q104.186 692.541 110.737 692.541 Q112.496 692.541 114.279 692.888 Q116.084 693.236 118.029 693.93 Z" fill="#000000" fill-rule="nonzero" fill-opacity="1" /><path clip-path="url(#clip380)" d="M63.2837 422.825 Q59.6726 422.825 57.8439 426.39 Q56.0384 429.932 56.0384 437.061 Q56.0384 444.168 57.8439 447.732 Q59.6726 451.274 63.2837 451.274 Q66.918 451.274 68.7235 447.732 Q70.5522 444.168 70.5522 437.061 Q70.5522 429.932 68.7235 426.39 Q66.918 422.825 63.2837 422.825 M63.2837 419.121 Q69.0939 419.121 72.1494 423.728 Q75.2281 428.311 75.2281 437.061 Q75.2281 445.788 72.1494 450.394 Q69.0939 454.978 63.2837 454.978 Q57.4736 454.978 54.3949 450.394 Q51.3393 445.788 51.3393 437.061 Q51.3393 428.311 54.3949 423.728 Q57.4736 419.121 63.2837 419.121 Z" fill="#000000" fill-rule="nonzero" fill-opacity="1" /><path clip-path="url(#clip380)" d="M83.4457 448.427 L88.3299 448.427 L88.3299 454.306 L83.4457 454.306 L83.4457 448.427 Z" fill="#000000" fill-rule="nonzero" fill-opacity="1" /><path clip-path="url(#clip380)" d="M98.6539 453.589 L98.6539 449.33 Q100.413 450.163 102.219 450.603 Q104.024 451.043 105.76 451.043 Q110.39 451.043 112.82 447.941 Q115.274 444.816 115.621 438.473 Q114.279 440.464 112.219 441.529 Q110.158 442.594 107.658 442.594 Q102.473 442.594 99.4409 439.469 Q96.4317 436.32 96.4317 430.881 Q96.4317 425.557 99.5798 422.339 Q102.728 419.121 107.959 419.121 Q113.955 419.121 117.103 423.728 Q120.274 428.311 120.274 437.061 Q120.274 445.232 116.385 450.117 Q112.52 454.978 105.969 454.978 Q104.209 454.978 102.404 454.631 Q100.598 454.283 98.6539 453.589 M107.959 438.936 Q111.108 438.936 112.936 436.783 Q114.788 434.631 114.788 430.881 Q114.788 427.154 112.936 425.001 Q111.108 422.825 107.959 422.825 Q104.811 422.825 102.959 425.001 Q101.131 427.154 101.131 430.881 Q101.131 434.631 102.959 436.783 Q104.811 438.936 107.959 438.936 Z" fill="#000000" fill-rule="nonzero" fill-opacity="1" /><path clip-path="url(#clip380)" d="M55.506 176.952 L63.1448 176.952 L63.1448 150.586 L54.8347 152.253 L54.8347 147.993 L63.0985 146.327 L67.7744 146.327 L67.7744 176.952 L75.4133 176.952 L75.4133 180.887 L55.506 180.887 L55.506 176.952 Z" fill="#000000" fill-rule="nonzero" fill-opacity="1" /><path clip-path="url(#clip380)" d="M84.8577 175.007 L89.7419 175.007 L89.7419 180.887 L84.8577 180.887 L84.8577 175.007 Z" fill="#000000" fill-rule="nonzero" fill-opacity="1" /><path clip-path="url(#clip380)" d="M103.955 176.952 L120.274 176.952 L120.274 180.887 L98.3298 180.887 L98.3298 176.952 Q100.992 174.197 105.575 169.567 Q110.182 164.915 111.362 163.572 Q113.608 161.049 114.487 159.313 Q115.39 157.554 115.39 155.864 Q115.39 153.109 113.445 151.373 Q111.524 149.637 108.422 149.637 Q106.223 149.637 103.77 150.401 Q101.339 151.165 98.5613 152.716 L98.5613 147.993 Q101.385 146.859 103.839 146.281 Q106.293 145.702 108.33 145.702 Q113.7 145.702 116.895 148.387 Q120.089 151.072 120.089 155.563 Q120.089 157.693 119.279 159.614 Q118.492 161.512 116.385 164.105 Q115.807 164.776 112.705 167.993 Q109.603 171.188 103.955 176.952 Z" fill="#000000" fill-rule="nonzero" fill-opacity="1" /><polyline clip-path="url(#clip382)" style="stroke:#009af9; stroke-linecap:round; stroke-linejoin:round; stroke-width:16; stroke-opacity:1; fill:none" stroke-dasharray="8, 16" points="218.439,1120.29 228.852,1123.07 239.264,1110.94 249.677,1091.68 260.09,1075.93 270.503,1071.72 280.916,1080.37 291.329,1097.85 301.741,1120.38 312.154,1147.06 322.567,1177.1 332.98,1207.67 343.393,1236.37 353.805,1263.92 364.218,1293.04 374.631,1325.27 385.044,1359.01 395.457,1390.26 405.87,1414.75 416.282,1430 426.695,1435.97 437.108,1434.72 447.521,1429.37 457.934,1422.81 468.347,1416.12 478.759,1407.27 489.172,1391.41 499.585,1364.33 509.998,1326.93 520.411,1285.75 530.824,1248.06 541.236,1216.9 551.649,1190.95 562.062,1167.46 572.475,1144.53 582.888,1121.68 593.301,1099.69 603.713,1080.91 614.126,1069.08 624.539,1067.44 634.952,1076.17 645.365,1092.05 655.777,1111.15 666.19,1131.7 676.603,1154.4 687.016,1180.61 697.429,1210.66 707.842,1243.3 718.254,1276.3 728.667,1307.7 739.08,1336.7 749.493,1363.83 759.906,1389.88 770.319,1414.29 780.731,1434.26 791.144,1445.71 801.557,1445.72 811.97,1434.85 822.383,1417.61 832.796,1400.18 843.208,1386.29 853.621,1373.42 864.034,1353.72 874.447,1322.43 884.86,1284.56 895.273,1248.85 905.685,1218.23 916.098,1190.16 926.511,1162 936.924,1133.79 947.337,1107.79 957.749,1087.1 968.162,1074.31 978.575,1070.45 988.988,1074.82 999.401,1085.46 1009.81,1100.25 1020.23,1117.74 1030.64,1137.49 1041.05,1159.81 1051.46,1185.26 1061.88,1214.15 1072.29,1246.3 1082.7,1280.87 1093.12,1316.35 1103.53,1350.63 1113.94,1381.25 1124.35,1405.77 1134.77,1422.36 1145.18,1430.46 1155.59,1431.19 1166.01,1427.25 1176.42,1422.31 1186.83,1419.97 1197.24,1422.57 1207.66,1428.72 1218.07,1426.22 1228.48,1378.4 1238.9,1223.53 1249.31,934.79 1259.72,607.038 1270.13,392.307 1280.55,328.262 1290.96,340.058 1301.37,359.571 1311.79,365.815 1322.2,360.92 1332.61,350.013 1343.02,336.975 1353.44,325.422 1363.85,318.835 1374.26,319.52 1384.68,327.676 1395.09,341.296 1405.5,356.878 1415.91,370.477 1426.33,378.669 1436.74,379.214 1447.15,371.434 1457.57,356.4 1467.98,336.94 1478.39,317.389 1488.8,302.893 1499.22,298.172 1509.63,305.933 1520.04,325.546 1530.45,352.765 1540.87,380.875 1551.28,402.756 1561.69,412.745 1572.11,407.445 1582.52,385.642 1592.93,348.332 1603.34,299.955 1613.76,251.005 1624.17,220.106 1634.58,230.176 1645,293.096 1655.41,390.745 1665.82,477.505 1676.23,511.099 1686.65,480.401 1697.06,405.263 1707.47,318.397 1717.89,248.622 1728.3,213.061 1738.71,216.453 1749.12,253.664 1759.54,312.951 1769.95,379.261 1780.36,437.229 1790.78,473.494 1801.19,478.414 1811.6,447.826 1822.01,385.351 1832.43,304.577 1842.84,228.649 1853.25,184.268 1863.67,190.263 1874.08,246.982 1884.49,334.962 1894.9,424.628 1905.32,489.454 1915.73,513.943 1926.14,494.39 1936.56,436.008 1946.97,350.586 1957.38,256.379 1967.79,178.487 1978.21,144.944 1988.62,174.914 1999.03,264.352 2009.45,382.883 2019.86,488.167 2030.27,546.497 2040.68,544.387 2051.1,487.902 2061.51,395.896 2071.92,293.013 2082.33,204.357 2092.75,151.343 2103.16,147.917 2113.57,197.043 2123.99,288.579 2134.4,400.264 2144.81,502.782 2155.22,567.509 2165.64,573.956 2176.05,514.849 2186.46,399.681 2196.88,257.986 2207.29,137.73 2217.7,87.9763 2228.11,127.441 2238.53,228.826 2248.94,341.911 2259.35,431.012 2269.77,489.911 2280.18,531.739 2290.59,572.545 "/>
<polyline clip-path="url(#clip382)" style="stroke:#e26f46; stroke-linecap:round; stroke-linejoin:round; stroke-width:4; stroke-opacity:1; fill:none" points="218.439,1120.4 228.852,1100.97 239.264,1086.65 249.677,1077.9 260.09,1075.01 270.503,1078.06 280.916,1086.96 291.329,1101.42 301.741,1120.97 312.154,1144.97 322.567,1172.63 332.98,1203.05 343.393,1235.25 353.805,1268.17 364.218,1300.72 374.631,1331.87 385.044,1360.57 395.457,1385.91 405.87,1407.05 416.282,1423.3 426.695,1434.13 437.108,1439.19 447.521,1438.32 457.934,1431.53 468.347,1419.06 478.759,1401.31 489.172,1378.86 499.585,1352.44 509.998,1322.91 520.411,1291.24 530.824,1258.47 541.236,1225.65 551.649,1193.87 562.062,1164.16 572.475,1137.49 582.888,1114.72 593.301,1096.61 603.713,1083.75 614.126,1076.55 624.539,1075.24 634.952,1079.88 645.365,1090.31 655.777,1106.18 666.19,1126.99 676.603,1152.05 687.016,1180.55 697.429,1211.55 707.842,1244.04 718.254,1276.97 728.667,1309.25 739.08,1339.84 749.493,1367.73 759.906,1392.02 770.319,1411.91 780.731,1426.75 791.144,1436.07 801.557,1439.54 811.97,1437.07 822.383,1428.74 832.796,1414.8 843.208,1395.73 853.621,1372.13 864.034,1344.79 874.447,1314.6 884.86,1282.53 895.273,1249.64 905.685,1216.99 916.098,1185.67 926.511,1156.68 936.924,1130.97 947.337,1109.39 957.749,1092.63 968.162,1081.25 978.575,1075.61 988.988,1075.9 999.401,1082.12 1009.81,1094.05 1020.23,1111.3 1030.64,1133.32 1041.05,1159.39 1051.46,1188.65 1061.88,1220.15 1072.29,1252.87 1082.7,1285.73 1093.12,1317.66 1103.53,1347.62 1113.94,1374.63 1124.35,1397.81 1134.77,1416.4 1145.18,1429.81 1155.59,1437.58 1166.01,1439.47 1176.42,1435.41 1186.83,1425.53 1197.24,1410.17 1207.66,1389.82 1218.07,1365.14 1228.48,1336.94 1238.9,1306.14 1249.31,1273.75 1259.72,344.563 1270.13,343.057 1280.55,344.428 1290.96,348.991 1301.37,355.349 1311.79,360.815 1322.2,362.434 1332.61,358.228 1343.02,348.203 1353.44,334.687 1363.85,321.826 1374.26,314.313 1384.68,315.754 1395.09,327.218 1405.5,346.499 1415.91,368.442 1426.33,386.311 1436.74,393.848 1447.15,387.396 1457.57,367.377 1467.98,338.581 1478.39,309.07 1488.8,287.92 1499.22,282.441 1509.63,295.723 1520.04,325.315 1530.45,363.532 1540.87,399.431 1551.28,421.946 1561.69,423.28 1572.11,401.528 1582.52,361.663 1592.93,314.473 1603.34,273.654 1613.76,251.834 1624.17,256.685 1634.58,288.321 1645,338.824 1655.41,394.188 1665.82,438.197 1676.23,457.171 1686.65,444.196 1697.06,401.53 1707.47,340.378 1717.89,277.974 1728.3,232.726 1738.71,218.791 1749.12,241.673 1759.54,296.213 1769.95,367.663 1780.36,435.656 1790.78,480.016 1801.19,486.735 1811.6,452.363 1822.01,385.435 1832.43,304.403 1842.84,232.562 1853.25,191.348 1863.67,193.954 1874.08,241.149 1884.49,320.623 1894.9,410.163 1905.32,483.856 1915.73,519.59 1926.14,505.675 1936.56,444.612 1946.97,352.804 1957.38,256.172 1967.79,182.837 1978.21,154.941 1988.62,181.975 1999.03,257.626 2009.45,361.177 2019.86,463.164 2030.27,533.759 2040.68,551.491 2051.1,509.757 2061.51,419.151 2071.92,304.826 2082.33,199.515 2092.75,134.16 2103.16,128.829 2113.57,186.575 2123.99,292.123 2134.4,415.881 2144.81,522.231 2155.22,579.778 2165.64,570.616 2176.05,495.862 2186.46,375.773 2196.88,244.279 2207.29,139.394 2217.7,92.2307 2228.11,117.781 2238.53,210.19 2248.94,344.015 2259.35,481.216 2269.77,581.968 2280.18,616.217 2290.59,572.636 "/>
<path clip-path="url(#clip380)" d="M229.49 250.738 L675.966 250.738 L675.966 95.2176 L229.49 95.2176  Z" fill="#ffffff" fill-rule="evenodd" fill-opacity="1"/>
<polyline clip-path="url(#clip380)" style="stroke:#000000; stroke-linecap:round; stroke-linejoin:round; stroke-width:4; stroke-opacity:1; fill:none" points="229.49,250.738 675.966,250.738 675.966,95.2176 229.49,95.2176 229.49,250.738 "/>
<polyline clip-path="url(#clip380)" style="stroke:#009af9; stroke-linecap:round; stroke-linejoin:round; stroke-width:16; stroke-opacity:1; fill:none" stroke-dasharray="8, 16" points="253.896,147.058 400.328,147.058 "/>
<path clip-path="url(#clip380)" d="M429.409 133.62 L429.409 146.606 L435.289 146.606 Q438.552 146.606 440.335 144.916 Q442.117 143.227 442.117 140.102 Q442.117 137 440.335 135.31 Q438.552 133.62 435.289 133.62 L429.409 133.62 M424.733 129.778 L435.289 129.778 Q441.099 129.778 444.062 132.416 Q447.048 135.032 447.048 140.102 Q447.048 145.217 444.062 147.833 Q441.099 150.449 435.289 150.449 L429.409 150.449 L429.409 164.338 L424.733 164.338 L424.733 129.778 Z" fill="#000000" fill-rule="nonzero" fill-opacity="1" /><path clip-path="url(#clip380)" d="M467.325 142.393 Q466.608 141.977 465.751 141.791 Q464.918 141.583 463.899 141.583 Q460.288 141.583 458.344 143.944 Q456.423 146.282 456.423 150.68 L456.423 164.338 L452.14 164.338 L452.14 138.412 L456.423 138.412 L456.423 142.44 Q457.765 140.078 459.918 138.944 Q462.071 137.787 465.149 137.787 Q465.589 137.787 466.122 137.856 Q466.654 137.903 467.302 138.018 L467.325 142.393 Z" fill="#000000" fill-rule="nonzero" fill-opacity="1" /><path clip-path="url(#clip380)" d="M492.927 150.31 L492.927 152.393 L473.344 152.393 Q473.622 156.791 475.983 159.106 Q478.367 161.398 482.603 161.398 Q485.057 161.398 487.348 160.796 Q489.663 160.194 491.932 158.99 L491.932 163.018 Q489.64 163.99 487.233 164.5 Q484.825 165.009 482.348 165.009 Q476.145 165.009 472.511 161.398 Q468.899 157.787 468.899 151.629 Q468.899 145.264 472.325 141.537 Q475.774 137.787 481.608 137.787 Q486.839 137.787 489.872 141.166 Q492.927 144.523 492.927 150.31 M488.668 149.06 Q488.622 145.565 486.7 143.481 Q484.802 141.398 481.654 141.398 Q478.089 141.398 475.936 143.412 Q473.807 145.426 473.483 149.083 L488.668 149.06 Z" fill="#000000" fill-rule="nonzero" fill-opacity="1" /><path clip-path="url(#clip380)" d="M516.978 142.347 L516.978 128.319 L521.237 128.319 L521.237 164.338 L516.978 164.338 L516.978 160.449 Q515.635 162.763 513.575 163.898 Q511.538 165.009 508.668 165.009 Q503.969 165.009 501.006 161.259 Q498.066 157.509 498.066 151.398 Q498.066 145.287 501.006 141.537 Q503.969 137.787 508.668 137.787 Q511.538 137.787 513.575 138.921 Q515.635 140.032 516.978 142.347 M502.464 151.398 Q502.464 156.097 504.385 158.782 Q506.33 161.444 509.709 161.444 Q513.089 161.444 515.033 158.782 Q516.978 156.097 516.978 151.398 Q516.978 146.699 515.033 144.037 Q513.089 141.352 509.709 141.352 Q506.33 141.352 504.385 144.037 Q502.464 146.699 502.464 151.398 Z" fill="#000000" fill-rule="nonzero" fill-opacity="1" /><path clip-path="url(#clip380)" d="M530.01 138.412 L534.269 138.412 L534.269 164.338 L530.01 164.338 L530.01 138.412 M530.01 128.319 L534.269 128.319 L534.269 133.713 L530.01 133.713 L530.01 128.319 Z" fill="#000000" fill-rule="nonzero" fill-opacity="1" /><path clip-path="url(#clip380)" d="M561.839 139.407 L561.839 143.389 Q560.033 142.393 558.205 141.907 Q556.399 141.398 554.547 141.398 Q550.404 141.398 548.112 144.037 Q545.82 146.652 545.82 151.398 Q545.82 156.143 548.112 158.782 Q550.404 161.398 554.547 161.398 Q556.399 161.398 558.205 160.912 Q560.033 160.402 561.839 159.407 L561.839 163.342 Q560.056 164.176 558.135 164.592 Q556.237 165.009 554.084 165.009 Q548.228 165.009 544.779 161.328 Q541.33 157.648 541.33 151.398 Q541.33 145.055 544.802 141.421 Q548.297 137.787 554.362 137.787 Q556.33 137.787 558.205 138.203 Q560.08 138.597 561.839 139.407 Z" fill="#000000" fill-rule="nonzero" fill-opacity="1" /><path clip-path="url(#clip380)" d="M573.459 131.051 L573.459 138.412 L582.232 138.412 L582.232 141.722 L573.459 141.722 L573.459 155.796 Q573.459 158.967 574.316 159.87 Q575.195 160.773 577.857 160.773 L582.232 160.773 L582.232 164.338 L577.857 164.338 Q572.927 164.338 571.052 162.509 Q569.177 160.657 569.177 155.796 L569.177 141.722 L566.052 141.722 L566.052 138.412 L569.177 138.412 L569.177 131.051 L573.459 131.051 Z" fill="#000000" fill-rule="nonzero" fill-opacity="1" /><path clip-path="url(#clip380)" d="M587.834 138.412 L592.093 138.412 L592.093 164.338 L587.834 164.338 L587.834 138.412 M587.834 128.319 L592.093 128.319 L592.093 133.713 L587.834 133.713 L587.834 128.319 Z" fill="#000000" fill-rule="nonzero" fill-opacity="1" /><path clip-path="url(#clip380)" d="M611.051 141.398 Q607.626 141.398 605.635 144.083 Q603.644 146.745 603.644 151.398 Q603.644 156.051 605.612 158.736 Q607.602 161.398 611.051 161.398 Q614.454 161.398 616.445 158.713 Q618.436 156.027 618.436 151.398 Q618.436 146.791 616.445 144.106 Q614.454 141.398 611.051 141.398 M611.051 137.787 Q616.607 137.787 619.778 141.398 Q622.95 145.009 622.95 151.398 Q622.95 157.764 619.778 161.398 Q616.607 165.009 611.051 165.009 Q605.473 165.009 602.302 161.398 Q599.153 157.764 599.153 151.398 Q599.153 145.009 602.302 141.398 Q605.473 137.787 611.051 137.787 Z" fill="#000000" fill-rule="nonzero" fill-opacity="1" /><path clip-path="url(#clip380)" d="M651.561 148.689 L651.561 164.338 L647.301 164.338 L647.301 148.828 Q647.301 145.148 645.866 143.319 Q644.431 141.49 641.561 141.49 Q638.112 141.49 636.121 143.69 Q634.13 145.889 634.13 149.685 L634.13 164.338 L629.848 164.338 L629.848 138.412 L634.13 138.412 L634.13 142.44 Q635.658 140.102 637.718 138.944 Q639.801 137.787 642.51 137.787 Q646.977 137.787 649.269 140.565 Q651.561 143.319 651.561 148.689 Z" fill="#000000" fill-rule="nonzero" fill-opacity="1" /><polyline clip-path="url(#clip380)" style="stroke:#e26f46; stroke-linecap:round; stroke-linejoin:round; stroke-width:4; stroke-opacity:1; fill:none" points="253.896,198.898 400.328,198.898 "/>
<path clip-path="url(#clip380)" d="M424.733 181.618 L446.585 181.618 L446.585 185.553 L429.409 185.553 L429.409 195.784 L445.867 195.784 L445.867 199.719 L429.409 199.719 L429.409 212.242 L447.001 212.242 L447.001 216.178 L424.733 216.178 L424.733 181.618 Z" fill="#000000" fill-rule="nonzero" fill-opacity="1" /><path clip-path="url(#clip380)" d="M476.052 190.252 L466.677 202.867 L476.538 216.178 L471.515 216.178 L463.969 205.992 L456.423 216.178 L451.4 216.178 L461.469 202.613 L452.256 190.252 L457.279 190.252 L464.154 199.488 L471.029 190.252 L476.052 190.252 Z" fill="#000000" fill-rule="nonzero" fill-opacity="1" /><path clip-path="url(#clip380)" d="M494.339 203.145 Q489.177 203.145 487.186 204.326 Q485.196 205.506 485.196 208.354 Q485.196 210.622 486.677 211.965 Q488.182 213.284 490.751 213.284 Q494.293 213.284 496.422 210.784 Q498.575 208.261 498.575 204.094 L498.575 203.145 L494.339 203.145 M502.834 201.386 L502.834 216.178 L498.575 216.178 L498.575 212.242 Q497.117 214.603 494.941 215.738 Q492.765 216.849 489.617 216.849 Q485.635 216.849 483.274 214.627 Q480.936 212.381 480.936 208.631 Q480.936 204.256 483.853 202.034 Q486.793 199.812 492.603 199.812 L498.575 199.812 L498.575 199.395 Q498.575 196.455 496.631 194.858 Q494.71 193.238 491.214 193.238 Q488.992 193.238 486.885 193.77 Q484.779 194.303 482.835 195.367 L482.835 191.432 Q485.173 190.53 487.372 190.09 Q489.571 189.627 491.654 189.627 Q497.279 189.627 500.057 192.543 Q502.834 195.46 502.834 201.386 Z" fill="#000000" fill-rule="nonzero" fill-opacity="1" /><path clip-path="url(#clip380)" d="M530.265 191.247 L530.265 195.229 Q528.459 194.233 526.631 193.747 Q524.825 193.238 522.973 193.238 Q518.83 193.238 516.538 195.877 Q514.246 198.492 514.246 203.238 Q514.246 207.983 516.538 210.622 Q518.83 213.238 522.973 213.238 Q524.825 213.238 526.631 212.752 Q528.459 212.242 530.265 211.247 L530.265 215.182 Q528.482 216.016 526.561 216.432 Q524.663 216.849 522.51 216.849 Q516.654 216.849 513.205 213.168 Q509.756 209.488 509.756 203.238 Q509.756 196.895 513.228 193.261 Q516.723 189.627 522.788 189.627 Q524.756 189.627 526.631 190.043 Q528.506 190.437 530.265 191.247 Z" fill="#000000" fill-rule="nonzero" fill-opacity="1" /><path clip-path="url(#clip380)" d="M541.885 182.891 L541.885 190.252 L550.658 190.252 L550.658 193.562 L541.885 193.562 L541.885 207.636 Q541.885 210.807 542.742 211.71 Q543.621 212.613 546.283 212.613 L550.658 212.613 L550.658 216.178 L546.283 216.178 Q541.353 216.178 539.478 214.349 Q537.603 212.497 537.603 207.636 L537.603 193.562 L534.478 193.562 L534.478 190.252 L537.603 190.252 L537.603 182.891 L541.885 182.891 Z" fill="#000000" fill-rule="nonzero" fill-opacity="1" /></svg>
