<?xml version="1.0" encoding="utf-8"?>
<svg xmlns="http://www.w3.org/2000/svg" xmlns:xlink="http://www.w3.org/1999/xlink" width="600" height="400" viewBox="0 0 2400 1600">
<defs>
  <clipPath id="clip390">
    <rect x="0" y="0" width="2400" height="1600"/>
  </clipPath>
</defs>
<path clip-path="url(#clip390)" d="M0 1600 L2400 1600 L2400 0 L0 0  Z" fill="#ffffff" fill-rule="evenodd" fill-opacity="1"/>
<defs>
  <clipPath id="clip391">
    <rect x="480" y="0" width="1681" height="1600"/>
  </clipPath>
</defs>
<path clip-path="url(#clip390)" d="M156.274 1486.45 L2352.76 1486.45 L2352.76 47.2441 L156.274 47.2441  Z" fill="#ffffff" fill-rule="evenodd" fill-opacity="1"/>
<defs>
  <clipPath id="clip392">
    <rect x="156" y="47" width="2197" height="1440"/>
  </clipPath>
</defs>
<polyline clip-path="url(#clip392)" style="stroke:#000000; stroke-linecap:round; stroke-linejoin:round; stroke-width:2; stroke-opacity:0.1; fill:none" points="218.439,1486.45 218.439,47.2441 "/>
<polyline clip-path="url(#clip392)" style="stroke:#000000; stroke-linecap:round; stroke-linejoin:round; stroke-width:2; stroke-opacity:0.1; fill:none" points="736.477,1486.45 736.477,47.2441 "/>
<polyline clip-path="url(#clip392)" style="stroke:#000000; stroke-linecap:round; stroke-linejoin:round; stroke-width:2; stroke-opacity:0.1; fill:none" points="1254.52,1486.45 1254.52,47.2441 "/>
<polyline clip-path="url(#clip392)" style="stroke:#000000; stroke-linecap:round; stroke-linejoin:round; stroke-width:2; stroke-opacity:0.1; fill:none" points="1772.55,1486.45 1772.55,47.2441 "/>
<polyline clip-path="url(#clip392)" style="stroke:#000000; stroke-linecap:round; stroke-linejoin:round; stroke-width:2; stroke-opacity:0.1; fill:none" points="2290.59,1486.45 2290.59,47.2441 "/>
<polyline clip-path="url(#clip390)" style="stroke:#000000; stroke-linecap:round; stroke-linejoin:round; stroke-width:4; stroke-opacity:1; fill:none" points="156.274,1486.45 2352.76,1486.45 "/>
<polyline clip-path="url(#clip390)" style="stroke:#000000; stroke-linecap:round; stroke-linejoin:round; stroke-width:4; stroke-opacity:1; fill:none" points="218.439,1486.45 218.439,1467.55 "/>
<polyline clip-path="url(#clip390)" style="stroke:#000000; stroke-linecap:round; stroke-linejoin:round; stroke-width:4; stroke-opacity:1; fill:none" points="736.477,1486.45 736.477,1467.55 "/>
<polyline clip-path="url(#clip390)" style="stroke:#000000; stroke-linecap:round; stroke-linejoin:round; stroke-width:4; stroke-opacity:1; fill:none" points="1254.52,1486.45 1254.52,1467.55 "/>
<polyline clip-path="url(#clip390)" style="stroke:#000000; stroke-linecap:round; stroke-linejoin:round; stroke-width:4; stroke-opacity:1; fill:none" points="1772.55,1486.45 1772.55,1467.55 "/>
<polyline clip-path="url(#clip390)" style="stroke:#000000; stroke-linecap:round; stroke-linejoin:round; stroke-width:4; stroke-opacity:1; fill:none" points="2290.59,1486.45 2290.59,1467.55 "/>
<path clip-path="url(#clip390)" d="M164.967 1532.02 L194.643 1532.02 L194.643 1535.95 L164.967 1535.95 L164.967 1532.02 Z" fill="#000000" fill-rule="nonzero" fill-opacity="1" /><path clip-path="url(#clip390)" d="M205.545 1544.91 L213.184 1544.91 L213.184 1518.55 L204.874 1520.21 L204.874 1515.95 L213.138 1514.29 L217.814 1514.29 L217.814 1544.91 L225.453 1544.91 L225.453 1548.85 L205.545 1548.85 L205.545 1544.91 Z" fill="#000000" fill-rule="nonzero" fill-opacity="1" /><path clip-path="url(#clip390)" d="M234.897 1542.97 L239.781 1542.97 L239.781 1548.85 L234.897 1548.85 L234.897 1542.97 Z" fill="#000000" fill-rule="nonzero" fill-opacity="1" /><path clip-path="url(#clip390)" d="M259.966 1517.37 Q256.355 1517.37 254.527 1520.93 Q252.721 1524.47 252.721 1531.6 Q252.721 1538.71 254.527 1542.27 Q256.355 1545.82 259.966 1545.82 Q263.601 1545.82 265.406 1542.27 Q267.235 1538.71 267.235 1531.6 Q267.235 1524.47 265.406 1520.93 Q263.601 1517.37 259.966 1517.37 M259.966 1513.66 Q265.776 1513.66 268.832 1518.27 Q271.911 1522.85 271.911 1531.6 Q271.911 1540.33 268.832 1544.94 Q265.776 1549.52 259.966 1549.52 Q254.156 1549.52 251.077 1544.94 Q248.022 1540.33 248.022 1531.6 Q248.022 1522.85 251.077 1518.27 Q254.156 1513.66 259.966 1513.66 Z" fill="#000000" fill-rule="nonzero" fill-opacity="1" /><path clip-path="url(#clip390)" d="M683.503 1532.02 L713.178 1532.02 L713.178 1535.95 L683.503 1535.95 L683.503 1532.02 Z" fill="#000000" fill-rule="nonzero" fill-opacity="1" /><path clip-path="url(#clip390)" d="M733.271 1517.37 Q729.66 1517.37 727.831 1520.93 Q726.026 1524.47 726.026 1531.6 Q726.026 1538.71 727.831 1542.27 Q729.66 1545.82 733.271 1545.82 Q736.905 1545.82 738.711 1542.27 Q740.539 1538.71 740.539 1531.6 Q740.539 1524.47 738.711 1520.93 Q736.905 1517.37 733.271 1517.37 M733.271 1513.66 Q739.081 1513.66 742.137 1518.27 Q745.215 1522.85 745.215 1531.6 Q745.215 1540.33 742.137 1544.94 Q739.081 1549.52 733.271 1549.52 Q727.461 1549.52 724.382 1544.94 Q721.327 1540.33 721.327 1531.6 Q721.327 1522.85 724.382 1518.27 Q727.461 1513.66 733.271 1513.66 Z" fill="#000000" fill-rule="nonzero" fill-opacity="1" /><path clip-path="url(#clip390)" d="M753.433 1542.97 L758.317 1542.97 L758.317 1548.85 L753.433 1548.85 L753.433 1542.97 Z" fill="#000000" fill-rule="nonzero" fill-opacity="1" /><path clip-path="url(#clip390)" d="M768.548 1514.29 L786.905 1514.29 L786.905 1518.22 L772.831 1518.22 L772.831 1526.7 Q773.849 1526.35 774.868 1526.19 Q775.886 1526 776.905 1526 Q782.692 1526 786.072 1529.17 Q789.451 1532.34 789.451 1537.76 Q789.451 1543.34 785.979 1546.44 Q782.507 1549.52 776.187 1549.52 Q774.011 1549.52 771.743 1549.15 Q769.498 1548.78 767.09 1548.04 L767.09 1543.34 Q769.173 1544.47 771.396 1545.03 Q773.618 1545.58 776.095 1545.58 Q780.099 1545.58 782.437 1543.48 Q784.775 1541.37 784.775 1537.76 Q784.775 1534.15 782.437 1532.04 Q780.099 1529.94 776.095 1529.94 Q774.22 1529.94 772.345 1530.35 Q770.493 1530.77 768.548 1531.65 L768.548 1514.29 Z" fill="#000000" fill-rule="nonzero" fill-opacity="1" /><path clip-path="url(#clip390)" d="M1231.9 1517.37 Q1228.29 1517.37 1226.46 1520.93 Q1224.65 1524.47 1224.65 1531.6 Q1224.65 1538.71 1226.46 1542.27 Q1228.29 1545.82 1231.9 1545.82 Q1235.53 1545.82 1237.34 1542.27 Q1239.17 1538.71 1239.17 1531.6 Q1239.17 1524.47 1237.34 1520.93 Q1235.53 1517.37 1231.9 1517.37 M1231.9 1513.66 Q1237.71 1513.66 1240.77 1518.27 Q1243.84 1522.85 1243.84 1531.6 Q1243.84 1540.33 1240.77 1544.94 Q1237.71 1549.52 1231.9 1549.52 Q1226.09 1549.52 1223.01 1544.94 Q1219.96 1540.33 1219.96 1531.6 Q1219.96 1522.85 1223.01 1518.27 Q1226.09 1513.66 1231.9 1513.66 Z" fill="#000000" fill-rule="nonzero" fill-opacity="1" /><path clip-path="url(#clip390)" d="M1252.06 1542.97 L1256.95 1542.97 L1256.95 1548.85 L1252.06 1548.85 L1252.06 1542.97 Z" fill="#000000" fill-rule="nonzero" fill-opacity="1" /><path clip-path="url(#clip390)" d="M1277.13 1517.37 Q1273.52 1517.37 1271.69 1520.93 Q1269.89 1524.47 1269.89 1531.6 Q1269.89 1538.71 1271.69 1542.27 Q1273.52 1545.82 1277.13 1545.82 Q1280.76 1545.82 1282.57 1542.27 Q1284.4 1538.71 1284.4 1531.6 Q1284.4 1524.47 1282.57 1520.93 Q1280.76 1517.37 1277.13 1517.37 M1277.13 1513.66 Q1282.94 1513.66 1286 1518.27 Q1289.08 1522.85 1289.08 1531.6 Q1289.08 1540.33 1286 1544.94 Q1282.94 1549.52 1277.13 1549.52 Q1271.32 1549.52 1268.24 1544.94 Q1265.19 1540.33 1265.19 1531.6 Q1265.19 1522.85 1268.24 1518.27 Q1271.32 1513.66 1277.13 1513.66 Z" fill="#000000" fill-rule="nonzero" fill-opacity="1" /><path clip-path="url(#clip390)" d="M1750.44 1517.37 Q1746.82 1517.37 1745 1520.93 Q1743.19 1524.47 1743.19 1531.6 Q1743.19 1538.71 1745 1542.27 Q1746.82 1545.82 1750.44 1545.82 Q1754.07 1545.82 1755.88 1542.27 Q1757.7 1538.71 1757.7 1531.6 Q1757.7 1524.47 1755.88 1520.93 Q1754.07 1517.37 1750.44 1517.37 M1750.44 1513.66 Q1756.25 1513.66 1759.3 1518.27 Q1762.38 1522.85 1762.38 1531.6 Q1762.38 1540.33 1759.3 1544.94 Q1756.25 1549.52 1750.44 1549.52 Q1744.63 1549.52 1741.55 1544.94 Q1738.49 1540.33 1738.49 1531.6 Q1738.49 1522.85 1741.55 1518.27 Q1744.63 1513.66 1750.44 1513.66 Z" fill="#000000" fill-rule="nonzero" fill-opacity="1" /><path clip-path="url(#clip390)" d="M1770.6 1542.97 L1775.48 1542.97 L1775.48 1548.85 L1770.6 1548.85 L1770.6 1542.97 Z" fill="#000000" fill-rule="nonzero" fill-opacity="1" /><path clip-path="url(#clip390)" d="M1785.71 1514.29 L1804.07 1514.29 L1804.07 1518.22 L1790 1518.22 L1790 1526.7 Q1791.01 1526.35 1792.03 1526.19 Q1793.05 1526 1794.07 1526 Q1799.86 1526 1803.24 1529.17 Q1806.62 1532.34 1806.62 1537.76 Q1806.62 1543.34 1803.14 1546.44 Q1799.67 1549.52 1793.35 1549.52 Q1791.18 1549.52 1788.91 1549.15 Q1786.66 1548.78 1784.25 1548.04 L1784.25 1543.34 Q1786.34 1544.47 1788.56 1545.03 Q1790.78 1545.58 1793.26 1545.58 Q1797.26 1545.58 1799.6 1543.48 Q1801.94 1541.37 1801.94 1537.76 Q1801.94 1534.15 1799.6 1532.04 Q1797.26 1529.94 1793.26 1529.94 Q1791.38 1529.94 1789.51 1530.35 Q1787.66 1530.77 1785.71 1531.65 L1785.71 1514.29 Z" fill="#000000" fill-rule="nonzero" fill-opacity="1" /><path clip-path="url(#clip390)" d="M2257.74 1544.91 L2265.38 1544.91 L2265.38 1518.55 L2257.07 1520.21 L2257.07 1515.95 L2265.34 1514.29 L2270.01 1514.29 L2270.01 1544.91 L2277.65 1544.91 L2277.65 1548.85 L2257.74 1548.85 L2257.74 1544.91 Z" fill="#000000" fill-rule="nonzero" fill-opacity="1" /><path clip-path="url(#clip390)" d="M2287.1 1542.97 L2291.98 1542.97 L2291.98 1548.85 L2287.1 1548.85 L2287.1 1542.97 Z" fill="#000000" fill-rule="nonzero" fill-opacity="1" /><path clip-path="url(#clip390)" d="M2312.17 1517.37 Q2308.55 1517.37 2306.73 1520.93 Q2304.92 1524.47 2304.92 1531.6 Q2304.92 1538.71 2306.73 1542.27 Q2308.55 1545.82 2312.17 1545.82 Q2315.8 1545.82 2317.61 1542.27 Q2319.43 1538.71 2319.43 1531.6 Q2319.43 1524.47 2317.61 1520.93 Q2315.8 1517.37 2312.17 1517.37 M2312.17 1513.66 Q2317.98 1513.66 2321.03 1518.27 Q2324.11 1522.85 2324.11 1531.6 Q2324.11 1540.33 2321.03 1544.94 Q2317.98 1549.52 2312.17 1549.52 Q2306.36 1549.52 2303.28 1544.94 Q2300.22 1540.33 2300.22 1531.6 Q2300.22 1522.85 2303.28 1518.27 Q2306.36 1513.66 2312.17 1513.66 Z" fill="#000000" fill-rule="nonzero" fill-opacity="1" /><polyline clip-path="url(#clip392)" style="stroke:#000000; stroke-linecap:round; stroke-linejoin:round; stroke-width:2; stroke-opacity:0.1; fill:none" points="156.274,1260.39 2352.76,1260.39 "/>
<polyline clip-path="url(#clip392)" style="stroke:#000000; stroke-linecap:round; stroke-linejoin:round; stroke-width:2; stroke-opacity:0.1; fill:none" points="156.274,985.242 2352.76,985.242 "/>
<polyline clip-path="url(#clip392)" style="stroke:#000000; stroke-linecap:round; stroke-linejoin:round; stroke-width:2; stroke-opacity:0.1; fill:none" points="156.274,710.096 2352.76,710.096 "/>
<polyline clip-path="url(#clip392)" style="stroke:#000000; stroke-linecap:round; stroke-linejoin:round; stroke-width:2; stroke-opacity:0.1; fill:none" points="156.274,434.949 2352.76,434.949 "/>
<polyline clip-path="url(#clip392)" style="stroke:#000000; stroke-linecap:round; stroke-linejoin:round; stroke-width:2; stroke-opacity:0.1; fill:none" points="156.274,159.803 2352.76,159.803 "/>
<polyline clip-path="url(#clip390)" style="stroke:#000000; stroke-linecap:round; stroke-linejoin:round; stroke-width:4; stroke-opacity:1; fill:none" points="156.274,1486.45 156.274,47.2441 "/>
<polyline clip-path="url(#clip390)" style="stroke:#000000; stroke-linecap:round; stroke-linejoin:round; stroke-width:4; stroke-opacity:1; fill:none" points="156.274,1260.39 175.172,1260.39 "/>
<polyline clip-path="url(#clip390)" style="stroke:#000000; stroke-linecap:round; stroke-linejoin:round; stroke-width:4; stroke-opacity:1; fill:none" points="156.274,985.242 175.172,985.242 "/>
<polyline clip-path="url(#clip390)" style="stroke:#000000; stroke-linecap:round; stroke-linejoin:round; stroke-width:4; stroke-opacity:1; fill:none" points="156.274,710.096 175.172,710.096 "/>
<polyline clip-path="url(#clip390)" style="stroke:#000000; stroke-linecap:round; stroke-linejoin:round; stroke-width:4; stroke-opacity:1; fill:none" points="156.274,434.949 175.172,434.949 "/>
<polyline clip-path="url(#clip390)" style="stroke:#000000; stroke-linecap:round; stroke-linejoin:round; stroke-width:4; stroke-opacity:1; fill:none" points="156.274,159.803 175.172,159.803 "/>
<path clip-path="url(#clip390)" d="M63.0985 1246.19 Q59.4875 1246.19 57.6588 1249.75 Q55.8532 1253.29 55.8532 1260.42 Q55.8532 1267.53 57.6588 1271.09 Q59.4875 1274.64 63.0985 1274.64 Q66.7328 1274.64 68.5383 1271.09 Q70.367 1267.53 70.367 1260.42 Q70.367 1253.29 68.5383 1249.75 Q66.7328 1246.19 63.0985 1246.19 M63.0985 1242.48 Q68.9087 1242.48 71.9642 1247.09 Q75.0429 1251.67 75.0429 1260.42 Q75.0429 1269.15 71.9642 1273.76 Q68.9087 1278.34 63.0985 1278.34 Q57.2884 1278.34 54.2097 1273.76 Q51.1542 1269.15 51.1542 1260.42 Q51.1542 1251.67 54.2097 1247.09 Q57.2884 1242.48 63.0985 1242.48 Z" fill="#000000" fill-rule="nonzero" fill-opacity="1" /><path clip-path="url(#clip390)" d="M83.2605 1271.79 L88.1447 1271.79 L88.1447 1277.67 L83.2605 1277.67 L83.2605 1271.79 Z" fill="#000000" fill-rule="nonzero" fill-opacity="1" /><path clip-path="url(#clip390)" d="M108.33 1246.19 Q104.719 1246.19 102.89 1249.75 Q101.084 1253.29 101.084 1260.42 Q101.084 1267.53 102.89 1271.09 Q104.719 1274.64 108.33 1274.64 Q111.964 1274.64 113.77 1271.09 Q115.598 1267.53 115.598 1260.42 Q115.598 1253.29 113.77 1249.75 Q111.964 1246.19 108.33 1246.19 M108.33 1242.48 Q114.14 1242.48 117.195 1247.09 Q120.274 1251.67 120.274 1260.42 Q120.274 1269.15 117.195 1273.76 Q114.14 1278.34 108.33 1278.34 Q102.52 1278.34 99.4409 1273.76 Q96.3854 1269.15 96.3854 1260.42 Q96.3854 1251.67 99.4409 1247.09 Q102.52 1242.48 108.33 1242.48 Z" fill="#000000" fill-rule="nonzero" fill-opacity="1" /><path clip-path="url(#clip390)" d="M63.7467 971.041 Q60.1356 971.041 58.3069 974.605 Q56.5014 978.147 56.5014 985.277 Q56.5014 992.383 58.3069 995.948 Q60.1356 999.49 63.7467 999.49 Q67.3809 999.49 69.1865 995.948 Q71.0152 992.383 71.0152 985.277 Q71.0152 978.147 69.1865 974.605 Q67.3809 971.041 63.7467 971.041 M63.7467 967.337 Q69.5568 967.337 72.6124 971.943 Q75.6911 976.527 75.6911 985.277 Q75.6911 994.004 72.6124 998.61 Q69.5568 1003.19 63.7467 1003.19 Q57.9365 1003.19 54.8578 998.61 Q51.8023 994.004 51.8023 985.277 Q51.8023 976.527 54.8578 971.943 Q57.9365 967.337 63.7467 967.337 Z" fill="#000000" fill-rule="nonzero" fill-opacity="1" /><path clip-path="url(#clip390)" d="M83.9086 996.642 L88.7928 996.642 L88.7928 1002.52 L83.9086 1002.52 L83.9086 996.642 Z" fill="#000000" fill-rule="nonzero" fill-opacity="1" /><path clip-path="url(#clip390)" d="M113.145 983.888 Q116.501 984.605 118.376 986.874 Q120.274 989.142 120.274 992.476 Q120.274 997.591 116.756 1000.39 Q113.237 1003.19 106.756 1003.19 Q104.58 1003.19 102.265 1002.75 Q99.9733 1002.34 97.5197 1001.48 L97.5197 996.966 Q99.4641 998.101 101.779 998.679 Q104.094 999.258 106.617 999.258 Q111.015 999.258 113.307 997.522 Q115.621 995.786 115.621 992.476 Q115.621 989.42 113.469 987.707 Q111.339 985.971 107.52 985.971 L103.492 985.971 L103.492 982.129 L107.705 982.129 Q111.154 982.129 112.983 980.763 Q114.811 979.374 114.811 976.781 Q114.811 974.119 112.913 972.707 Q111.038 971.272 107.52 971.272 Q105.598 971.272 103.399 971.689 Q101.2 972.105 98.5613 972.985 L98.5613 968.818 Q101.223 968.078 103.538 967.707 Q105.876 967.337 107.936 967.337 Q113.26 967.337 116.362 969.768 Q119.464 972.175 119.464 976.295 Q119.464 979.166 117.82 981.156 Q116.177 983.124 113.145 983.888 Z" fill="#000000" fill-rule="nonzero" fill-opacity="1" /><path clip-path="url(#clip390)" d="M62.9365 695.894 Q59.3254 695.894 57.4967 699.459 Q55.6912 703.001 55.6912 710.13 Q55.6912 717.237 57.4967 720.802 Q59.3254 724.343 62.9365 724.343 Q66.5707 724.343 68.3763 720.802 Q70.205 717.237 70.205 710.13 Q70.205 703.001 68.3763 699.459 Q66.5707 695.894 62.9365 695.894 M62.9365 692.191 Q68.7467 692.191 71.8022 696.797 Q74.8809 701.38 74.8809 710.13 Q74.8809 718.857 71.8022 723.464 Q68.7467 728.047 62.9365 728.047 Q57.1264 728.047 54.0477 723.464 Q50.9921 718.857 50.9921 710.13 Q50.9921 701.38 54.0477 696.797 Q57.1264 692.191 62.9365 692.191 Z" fill="#000000" fill-rule="nonzero" fill-opacity="1" /><path clip-path="url(#clip390)" d="M83.0984 721.496 L87.9827 721.496 L87.9827 727.376 L83.0984 727.376 L83.0984 721.496 Z" fill="#000000" fill-rule="nonzero" fill-opacity="1" /><path clip-path="url(#clip390)" d="M108.746 708.232 Q105.598 708.232 103.746 710.385 Q101.918 712.538 101.918 716.288 Q101.918 720.015 103.746 722.191 Q105.598 724.343 108.746 724.343 Q111.895 724.343 113.723 722.191 Q115.575 720.015 115.575 716.288 Q115.575 712.538 113.723 710.385 Q111.895 708.232 108.746 708.232 M118.029 693.58 L118.029 697.839 Q116.27 697.005 114.464 696.566 Q112.682 696.126 110.922 696.126 Q106.293 696.126 103.839 699.251 Q101.409 702.376 101.061 708.695 Q102.427 706.681 104.487 705.617 Q106.547 704.529 109.024 704.529 Q114.233 704.529 117.242 707.7 Q120.274 710.848 120.274 716.288 Q120.274 721.612 117.126 724.829 Q113.978 728.047 108.746 728.047 Q102.751 728.047 99.5798 723.464 Q96.4085 718.857 96.4085 710.13 Q96.4085 701.936 100.297 697.075 Q104.186 692.191 110.737 692.191 Q112.496 692.191 114.279 692.538 Q116.084 692.885 118.029 693.58 Z" fill="#000000" fill-rule="nonzero" fill-opacity="1" /><path clip-path="url(#clip390)" d="M63.2837 420.748 Q59.6726 420.748 57.8439 424.313 Q56.0384 427.855 56.0384 434.984 Q56.0384 442.091 57.8439 445.655 Q59.6726 449.197 63.2837 449.197 Q66.918 449.197 68.7235 445.655 Q70.5522 442.091 70.5522 434.984 Q70.5522 427.855 68.7235 424.313 Q66.918 420.748 63.2837 420.748 M63.2837 417.044 Q69.0939 417.044 72.1494 421.651 Q75.2281 426.234 75.2281 434.984 Q75.2281 443.711 72.1494 448.317 Q69.0939 452.901 63.2837 452.901 Q57.4736 452.901 54.3949 448.317 Q51.3393 443.711 51.3393 434.984 Q51.3393 426.234 54.3949 421.651 Q57.4736 417.044 63.2837 417.044 Z" fill="#000000" fill-rule="nonzero" fill-opacity="1" /><path clip-path="url(#clip390)" d="M83.4457 446.35 L88.3299 446.35 L88.3299 452.229 L83.4457 452.229 L83.4457 446.35 Z" fill="#000000" fill-rule="nonzero" fill-opacity="1" /><path clip-path="url(#clip390)" d="M98.6539 451.512 L98.6539 447.253 Q100.413 448.086 102.219 448.526 Q104.024 448.966 105.76 448.966 Q110.39 448.966 112.82 445.864 Q115.274 442.739 115.621 436.396 Q114.279 438.387 112.219 439.452 Q110.158 440.517 107.658 440.517 Q102.473 440.517 99.4409 437.392 Q96.4317 434.243 96.4317 428.804 Q96.4317 423.48 99.5798 420.262 Q102.728 417.044 107.959 417.044 Q113.955 417.044 117.103 421.651 Q120.274 426.234 120.274 434.984 Q120.274 443.155 116.385 448.04 Q112.52 452.901 105.969 452.901 Q104.209 452.901 102.404 452.553 Q100.598 452.206 98.6539 451.512 M107.959 436.859 Q111.108 436.859 112.936 434.706 Q114.788 432.554 114.788 428.804 Q114.788 425.077 112.936 422.924 Q111.108 420.748 107.959 420.748 Q104.811 420.748 102.959 422.924 Q101.131 425.077 101.131 428.804 Q101.131 432.554 102.959 434.706 Q104.811 436.859 107.959 436.859 Z" fill="#000000" fill-rule="nonzero" fill-opacity="1" /><path clip-path="url(#clip390)" d="M55.506 173.148 L63.1448 173.148 L63.1448 146.782 L54.8347 148.449 L54.8347 144.19 L63.0985 142.523 L67.7744 142.523 L67.7744 173.148 L75.4133 173.148 L75.4133 177.083 L55.506 177.083 L55.506 173.148 Z" fill="#000000" fill-rule="nonzero" fill-opacity="1" /><path clip-path="url(#clip390)" d="M84.8577 171.204 L89.7419 171.204 L89.7419 177.083 L84.8577 177.083 L84.8577 171.204 Z" fill="#000000" fill-rule="nonzero" fill-opacity="1" /><path clip-path="url(#clip390)" d="M103.955 173.148 L120.274 173.148 L120.274 177.083 L98.3298 177.083 L98.3298 173.148 Q100.992 170.393 105.575 165.764 Q110.182 161.111 111.362 159.768 Q113.608 157.245 114.487 155.509 Q115.39 153.75 115.39 152.06 Q115.39 149.306 113.445 147.569 Q111.524 145.833 108.422 145.833 Q106.223 145.833 103.77 146.597 Q101.339 147.361 98.5613 148.912 L98.5613 144.19 Q101.385 143.056 103.839 142.477 Q106.293 141.898 108.33 141.898 Q113.7 141.898 116.895 144.583 Q120.089 147.268 120.089 151.759 Q120.089 153.889 119.279 155.81 Q118.492 157.708 116.385 160.301 Q115.807 160.972 112.705 164.19 Q109.603 167.384 103.955 173.148 Z" fill="#000000" fill-rule="nonzero" fill-opacity="1" /><polyline clip-path="url(#clip392)" style="stroke:#009af9; stroke-linecap:round; stroke-linejoin:round; stroke-width:16; stroke-opacity:1; fill:none" stroke-dasharray="8, 16" points="218.439,1122.62 228.852,1106.75 239.264,1091.61 249.677,1081.13 260.09,1076.98 270.503,1079.32 280.916,1087.9 291.329,1102.63 301.741,1123.19 312.154,1148.44 322.567,1176.76 332.98,1206.84 343.393,1238.13 353.805,1270.5 364.218,1303.37 374.631,1335.36 385.044,1364.65 395.457,1389.77 405.87,1410.11 416.282,1425.93 426.695,1437.51 437.108,1444.32 447.521,1445.01 457.934,1438.41 468.347,1424.59 478.759,1404.78 489.172,1380.58 499.585,1353.44 509.998,1324.67 520.411,1295.32 530.824,1265.36 541.236,1233.66 551.649,1199.62 562.062,1165.07 572.475,1133.98 582.888,1110.09 593.301,1094.82 603.713,1086.87 614.126,1083.66 624.539,1083.27 634.952,1085.6 645.365,1092.2 655.777,1104.97 666.19,1124.88 676.603,1151.42 687.016,1182.74 697.429,1216.39 707.842,1250.13 718.254,1282.55 728.667,1313.19 739.08,1342.14 749.493,1369.35 759.906,1394.21 770.319,1415.56 780.731,1432.04 791.144,1442.42 801.557,1445.72 811.97,1441.65 822.383,1431.12 832.796,1415.88 843.208,1397.33 853.621,1375.53 864.034,1349.73 874.447,1319.76 884.86,1286.83 895.273,1253.09 905.685,1220.37 916.098,1189.48 926.511,1160.52 936.924,1133.77 947.337,1110.23 957.749,1091.51 968.162,1079.27 978.575,1074.56 988.988,1077.45 999.401,1087.03 1009.81,1101.81 1020.23,1120.21 1030.64,1141 1041.05,1163.63 1051.46,1188.24 1061.88,1215.48 1072.29,1246.12 1082.7,1280.43 1093.12,1317.51 1103.53,1354.95 1113.94,1388.94 1124.35,1415.29 1134.77,1430.88 1145.18,1435.22 1155.59,1431 1166.01,1423.46 1176.42,1418.68 1186.83,1421.35 1197.24,1432.25 1207.66,1444.72 1218.07,1439.82 1228.48,1382.93 1238.9,1233.1 1249.31,978.459 1259.72,675.132 1270.13,425.4 1280.55,295.522 1290.96,273.723 1301.37,306.099 1311.79,345.212 1322.2,367.263 1332.61,367.556 1343.02,352.042 1353.44,330.983 1363.85,314.439 1374.26,309.004 1384.68,316.18 1395.09,332.775 1405.5,352.866 1415.91,370.213 1426.33,380.105 1436.74,380.234 1447.15,370.728 1457.57,353.729 1467.98,332.841 1478.39,312.577 1488.8,297.795 1499.22,292.959 1509.63,301.11 1520.04,322.577 1530.45,353.806 1540.87,387.069 1551.28,411.925 1561.69,418.635 1572.11,402.377 1582.52,365.913 1592.93,318.978 1603.34,274.967 1613.76,247.118 1624.17,245.503 1634.58,274.194 1645,328.199 1655.41,392.248 1665.82,444.693 1676.23,466.446 1686.65,449.464 1697.06,399.263 1707.47,331.595 1717.89,266.736 1728.3,223.664 1738.71,215.057 1749.12,243.831 1759.54,301.998 1769.95,372.632 1780.36,435.012 1790.78,471.385 1801.19,472.351 1811.6,438.666 1822.01,379.601 1832.43,309.713 1842.84,245.692 1853.25,203.611 1863.67,196.028 1874.08,228.629 1884.49,297.197 1894.9,386.584 1905.32,473.062 1915.73,529.906 1926.14,534.726 1936.56,477.241 1946.97,366.661 1957.38,235.696 1967.79,133.707 1978.21,104.04 1988.62,157.793 1999.03,268.372 2009.45,391.83 2019.86,490.777 2030.27,544.051 2040.68,544.792 2051.1,496.1 2061.51,408.544 2071.92,299.928 2082.33,195.84 2092.75,126.993 2103.16,119.231 2113.57,179.554 2123.99,290.22 2134.4,416.94 2144.81,522.987 2155.22,579.225 2165.64,569.171 2176.05,492.86 2186.46,369.818 2196.88,236.792 2207.29,136.534 2217.7,100.777 2228.11,136.979 2238.53,227.252 2248.94,339.428 2259.35,442.356 2269.77,516.676 2280.18,557.565 2290.59,571.413 "/>
<polyline clip-path="url(#clip392)" style="stroke:#e26f46; stroke-linecap:round; stroke-linejoin:round; stroke-width:4; stroke-opacity:1; fill:none" points="218.439,1122.63 228.852,1103.09 239.264,1088.68 249.677,1079.87 260.09,1076.96 270.503,1080.03 280.916,1088.99 291.329,1103.54 301.741,1123.21 312.154,1147.36 322.567,1175.2 332.98,1205.82 343.393,1238.21 353.805,1271.34 364.218,1304.1 374.631,1335.44 385.044,1364.33 395.457,1389.83 405.87,1411.1 416.282,1427.45 426.695,1438.35 437.108,1443.45 447.521,1442.56 457.934,1435.74 468.347,1423.19 478.759,1405.32 489.172,1382.73 499.585,1356.14 509.998,1326.43 520.411,1294.56 530.824,1261.58 541.236,1228.56 551.649,1196.58 562.062,1166.68 572.475,1139.83 582.888,1116.93 593.301,1098.7 603.713,1085.75 614.126,1078.51 624.539,1077.19 634.952,1081.86 645.365,1092.36 655.777,1108.33 666.19,1129.27 676.603,1154.49 687.016,1183.17 697.429,1214.36 707.842,1247.06 718.254,1280.2 728.667,1312.68 739.08,1343.46 749.493,1371.53 759.906,1395.97 770.319,1415.99 780.731,1430.93 791.144,1440.3 801.557,1443.8 811.97,1441.31 822.383,1432.92 832.796,1418.9 843.208,1399.7 853.621,1375.96 864.034,1348.45 874.447,1318.06 884.86,1285.79 895.273,1252.69 905.685,1219.84 916.098,1188.32 926.511,1159.14 936.924,1133.28 947.337,1111.56 957.749,1094.69 968.162,1083.24 978.575,1077.57 988.988,1077.86 999.401,1084.11 1009.81,1096.12 1020.23,1113.48 1030.64,1135.64 1041.05,1161.87 1051.46,1191.32 1061.88,1223.02 1072.29,1255.94 1082.7,1289.01 1093.12,1321.14 1103.53,1351.29 1113.94,1378.47 1124.35,1401.8 1134.77,1420.51 1145.18,1434 1155.59,1441.82 1166.01,1443.72 1176.42,1439.63 1186.83,1429.7 1197.24,1414.24 1207.66,1393.76 1218.07,1368.92 1228.48,1340.55 1238.9,1309.55 1249.31,1276.96 1259.72,341.902 1270.13,340.386 1280.55,341.766 1290.96,346.358 1301.37,352.756 1311.79,358.257 1322.2,359.886 1332.61,355.654 1343.02,345.565 1353.44,331.964 1363.85,319.022 1374.26,311.461 1384.68,312.912 1395.09,324.447 1405.5,343.85 1415.91,365.932 1426.33,383.914 1436.74,391.499 1447.15,385.006 1457.57,364.86 1467.98,335.882 1478.39,306.185 1488.8,284.901 1499.22,279.387 1509.63,292.754 1520.04,322.532 1530.45,360.99 1540.87,397.117 1551.28,419.774 1561.69,421.116 1572.11,399.227 1582.52,359.11 1592.93,311.622 1603.34,270.545 1613.76,248.587 1624.17,253.47 1634.58,285.305 1645,336.127 1655.41,391.841 1665.82,436.127 1676.23,455.221 1686.65,442.164 1697.06,399.229 1707.47,337.691 1717.89,274.893 1728.3,229.359 1738.71,215.335 1749.12,238.362 1759.54,293.247 1769.95,365.148 1780.36,433.57 1790.78,478.21 1801.19,484.972 1811.6,450.383 1822.01,383.032 1832.43,301.489 1842.84,229.194 1853.25,187.72 1863.67,190.342 1874.08,237.835 1884.49,317.811 1894.9,407.916 1905.32,482.075 1915.73,518.035 1926.14,504.032 1936.56,442.583 1946.97,350.195 1957.38,252.953 1967.79,179.155 1978.21,151.083 1988.62,178.287 1999.03,254.416 2009.45,358.621 2019.86,461.252 2030.27,532.293 2040.68,550.137 2051.1,508.139 2061.51,416.962 2071.92,301.914 2082.33,195.938 2092.75,130.17 2103.16,124.806 2113.57,182.916 2123.99,289.131 2134.4,413.67 2144.81,520.692 2155.22,578.603 2165.64,569.382 2176.05,494.156 2186.46,373.31 2196.88,240.985 2207.29,135.437 2217.7,87.9763 2228.11,113.687 2238.53,206.68 2248.94,341.351 2259.35,479.418 2269.77,580.807 2280.18,615.272 2290.59,571.416 "/>
<path clip-path="url(#clip390)" d="M229.49 250.738 L675.966 250.738 L675.966 95.2176 L229.49 95.2176  Z" fill="#ffffff" fill-rule="evenodd" fill-opacity="1"/>
<polyline clip-path="url(#clip390)" style="stroke:#000000; stroke-linecap:round; stroke-linejoin:round; stroke-width:4; stroke-opacity:1; fill:none" points="229.49,250.738 675.966,250.738 675.966,95.2176 229.49,95.2176 229.49,250.738 "/>
<polyline clip-path="url(#clip390)" style="stroke:#009af9; stroke-linecap:round; stroke-linejoin:round; stroke-width:16; stroke-opacity:1; fill:none" stroke-dasharray="8, 16" points="253.896,147.058 400.328,147.058 "/>
<path clip-path="url(#clip390)" d="M429.409 133.62 L429.409 146.606 L435.289 146.606 Q438.552 146.606 440.335 144.916 Q442.117 143.227 442.117 140.102 Q442.117 137 440.335 135.31 Q438.552 133.62 435.289 133.62 L429.409 133.62 M424.733 129.778 L435.289 129.778 Q441.099 129.778 444.062 132.416 Q447.048 135.032 447.048 140.102 Q447.048 145.217 444.062 147.833 Q441.099 150.449 435.289 150.449 L429.409 150.449 L429.409 164.338 L424.733 164.338 L424.733 129.778 Z" fill="#000000" fill-rule="nonzero" fill-opacity="1" /><path clip-path="url(#clip390)" d="M467.325 142.393 Q466.608 141.977 465.751 141.791 Q464.918 141.583 463.899 141.583 Q460.288 141.583 458.344 143.944 Q456.423 146.282 456.423 150.68 L456.423 164.338 L452.14 164.338 L452.14 138.412 L456.423 138.412 L456.423 142.44 Q457.765 140.078 459.918 138.944 Q462.071 137.787 465.149 137.787 Q465.589 137.787 466.122 137.856 Q466.654 137.903 467.302 138.018 L467.325 142.393 Z" fill="#000000" fill-rule="nonzero" fill-opacity="1" /><path clip-path="url(#clip390)" d="M492.927 150.31 L492.927 152.393 L473.344 152.393 Q473.622 156.791 475.983 159.106 Q478.367 161.398 482.603 161.398 Q485.057 161.398 487.348 160.796 Q489.663 160.194 491.932 158.99 L491.932 163.018 Q489.64 163.99 487.233 164.5 Q484.825 165.009 482.348 165.009 Q476.145 165.009 472.511 161.398 Q468.899 157.787 468.899 151.629 Q468.899 145.264 472.325 141.537 Q475.774 137.787 481.608 137.787 Q486.839 137.787 489.872 141.166 Q492.927 144.523 492.927 150.31 M488.668 149.06 Q488.622 145.565 486.7 143.481 Q484.802 141.398 481.654 141.398 Q478.089 141.398 475.936 143.412 Q473.807 145.426 473.483 149.083 L488.668 149.06 Z" fill="#000000" fill-rule="nonzero" fill-opacity="1" /><path clip-path="url(#clip390)" d="M516.978 142.347 L516.978 128.319 L521.237 128.319 L521.237 164.338 L516.978 164.338 L516.978 160.449 Q515.635 162.763 513.575 163.898 Q511.538 165.009 508.668 165.009 Q503.969 165.009 501.006 161.259 Q498.066 157.509 498.066 151.398 Q498.066 145.287 501.006 141.537 Q503.969 137.787 508.668 137.787 Q511.538 137.787 513.575 138.921 Q515.635 140.032 516.978 142.347 M502.464 151.398 Q502.464 156.097 504.385 158.782 Q506.33 161.444 509.709 161.444 Q513.089 161.444 515.033 158.782 Q516.978 156.097 516.978 151.398 Q516.978 146.699 515.033 144.037 Q513.089 141.352 509.709 141.352 Q506.33 141.352 504.385 144.037 Q502.464 146.699 502.464 151.398 Z" fill="#000000" fill-rule="nonzero" fill-opacity="1" /><path clip-path="url(#clip390)" d="M530.01 138.412 L534.269 138.412 L534.269 164.338 L530.01 164.338 L530.01 138.412 M530.01 128.319 L534.269 128.319 L534.269 133.713 L530.01 133.713 L530.01 128.319 Z" fill="#000000" fill-rule="nonzero" fill-opacity="1" /><path clip-path="url(#clip390)" d="M561.839 139.407 L561.839 143.389 Q560.033 142.393 558.205 141.907 Q556.399 141.398 554.547 141.398 Q550.404 141.398 548.112 144.037 Q545.82 146.652 545.82 151.398 Q545.82 156.143 548.112 158.782 Q550.404 161.398 554.547 161.398 Q556.399 161.398 558.205 160.912 Q560.033 160.402 561.839 159.407 L561.839 163.342 Q560.056 164.176 558.135 164.592 Q556.237 165.009 554.084 165.009 Q548.228 165.009 544.779 161.328 Q541.33 157.648 541.33 151.398 Q541.33 145.055 544.802 141.421 Q548.297 137.787 554.362 137.787 Q556.33 137.787 558.205 138.203 Q560.08 138.597 561.839 139.407 Z" fill="#000000" fill-rule="nonzero" fill-opacity="1" /><path clip-path="url(#clip390)" d="M573.459 131.051 L573.459 138.412 L582.232 138.412 L582.232 141.722 L573.459 141.722 L573.459 155.796 Q573.459 158.967 574.316 159.87 Q575.195 160.773 577.857 160.773 L582.232 160.773 L582.232 164.338 L577.857 164.338 Q572.927 164.338 571.052 162.509 Q569.177 160.657 569.177 155.796 L569.177 141.722 L566.052 141.722 L566.052 138.412 L569.177 138.412 L569.177 131.051 L573.459 131.051 Z" fill="#000000" fill-rule="nonzero" fill-opacity="1" /><path clip-path="url(#clip390)" d="M587.834 138.412 L592.093 138.412 L592.093 164.338 L587.834 164.338 L587.834 138.412 M587.834 128.319 L592.093 128.319 L592.093 133.713 L587.834 133.713 L587.834 128.319 Z" fill="#000000" fill-rule="nonzero" fill-opacity="1" /><path clip-path="url(#clip390)" d="M611.051 141.398 Q607.626 141.398 605.635 144.083 Q603.644 146.745 603.644 151.398 Q603.644 156.051 605.612 158.736 Q607.602 161.398 611.051 161.398 Q614.454 161.398 616.445 158.713 Q618.436 156.027 618.436 151.398 Q618.436 146.791 616.445 144.106 Q614.454 141.398 611.051 141.398 M611.051 137.787 Q616.607 137.787 619.778 141.398 Q622.95 145.009 622.95 151.398 Q622.95 157.764 619.778 161.398 Q616.607 165.009 611.051 165.009 Q605.473 165.009 602.302 161.398 Q599.153 157.764 599.153 151.398 Q599.153 145.009 602.302 141.398 Q605.473 137.787 611.051 137.787 Z" fill="#000000" fill-rule="nonzero" fill-opacity="1" /><path clip-path="url(#clip390)" d="M651.561 148.689 L651.561 164.338 L647.301 164.338 L647.301 148.828 Q647.301 145.148 645.866 143.319 Q644.431 141.49 641.561 141.49 Q638.112 141.49 636.121 143.69 Q634.13 145.889 634.13 149.685 L634.13 164.338 L629.848 164.338 L629.848 138.412 L634.13 138.412 L634.13 142.44 Q635.658 140.102 637.718 138.944 Q639.801 137.787 642.51 137.787 Q646.977 137.787 649.269 140.565 Q651.561 143.319 651.561 148.689 Z" fill="#000000" fill-rule="nonzero" fill-opacity="1" /><polyline clip-path="url(#clip390)" style="stroke:#e26f46; stroke-linecap:round; stroke-linejoin:round; stroke-width:4; stroke-opacity:1; fill:none" points="253.896,198.898 400.328,198.898 "/>
<path clip-path="url(#clip390)" d="M424.733 181.618 L446.585 181.618 L446.585 185.553 L429.409 185.553 L429.409 195.784 L445.867 195.784 L445.867 199.719 L429.409 199.719 L429.409 212.242 L447.001 212.242 L447.001 216.178 L424.733 216.178 L424.733 181.618 Z" fill="#000000" fill-rule="nonzero" fill-opacity="1" /><path clip-path="url(#clip390)" d="M476.052 190.252 L466.677 202.867 L476.538 216.178 L471.515 216.178 L463.969 205.992 L456.423 216.178 L451.4 216.178 L461.469 202.613 L452.256 190.252 L457.279 190.252 L464.154 199.488 L471.029 190.252 L476.052 190.252 Z" fill="#000000" fill-rule="nonzero" fill-opacity="1" /><path clip-path="url(#clip390)" d="M494.339 203.145 Q489.177 203.145 487.186 204.326 Q485.196 205.506 485.196 208.354 Q485.196 210.622 486.677 211.965 Q488.182 213.284 490.751 213.284 Q494.293 213.284 496.422 210.784 Q498.575 208.261 498.575 204.094 L498.575 203.145 L494.339 203.145 M502.834 201.386 L502.834 216.178 L498.575 216.178 L498.575 212.242 Q497.117 214.603 494.941 215.738 Q492.765 216.849 489.617 216.849 Q485.635 216.849 483.274 214.627 Q480.936 212.381 480.936 208.631 Q480.936 204.256 483.853 202.034 Q486.793 199.812 492.603 199.812 L498.575 199.812 L498.575 199.395 Q498.575 196.455 496.631 194.858 Q494.71 193.238 491.214 193.238 Q488.992 193.238 486.885 193.77 Q484.779 194.303 482.835 195.367 L482.835 191.432 Q485.173 190.53 487.372 190.09 Q489.571 189.627 491.654 189.627 Q497.279 189.627 500.057 192.543 Q502.834 195.46 502.834 201.386 Z" fill="#000000" fill-rule="nonzero" fill-opacity="1" /><path clip-path="url(#clip390)" d="M530.265 191.247 L530.265 195.229 Q528.459 194.233 526.631 193.747 Q524.825 193.238 522.973 193.238 Q518.83 193.238 516.538 195.877 Q514.246 198.492 514.246 203.238 Q514.246 207.983 516.538 210.622 Q518.83 213.238 522.973 213.238 Q524.825 213.238 526.631 212.752 Q528.459 212.242 530.265 211.247 L530.265 215.182 Q528.482 216.016 526.561 216.432 Q524.663 216.849 522.51 216.849 Q516.654 216.849 513.205 213.168 Q509.756 209.488 509.756 203.238 Q509.756 196.895 513.228 193.261 Q516.723 189.627 522.788 189.627 Q524.756 189.627 526.631 190.043 Q528.506 190.437 530.265 191.247 Z" fill="#000000" fill-rule="nonzero" fill-opacity="1" /><path clip-path="url(#clip390)" d="M541.885 182.891 L541.885 190.252 L550.658 190.252 L550.658 193.562 L541.885 193.562 L541.885 207.636 Q541.885 210.807 542.742 211.71 Q543.621 212.613 546.283 212.613 L550.658 212.613 L550.658 216.178 L546.283 216.178 Q541.353 216.178 539.478 214.349 Q537.603 212.497 537.603 207.636 L537.603 193.562 L534.478 193.562 L534.478 190.252 L537.603 190.252 L537.603 182.891 L541.885 182.891 Z" fill="#000000" fill-rule="nonzero" fill-opacity="1" /></svg>
