<?xml version="1.0" encoding="utf-8"?>
<svg xmlns="http://www.w3.org/2000/svg" xmlns:xlink="http://www.w3.org/1999/xlink" width="600" height="400" viewBox="0 0 2400 1600">
<defs>
  <clipPath id="clip690">
    <rect x="0" y="0" width="2400" height="1600"/>
  </clipPath>
</defs>
<path clip-path="url(#clip690)" d="M0 1600 L2400 1600 L2400 0 L0 0  Z" fill="#ffffff" fill-rule="evenodd" fill-opacity="1"/>
<defs>
  <clipPath id="clip691">
    <rect x="480" y="0" width="1681" height="1600"/>
  </clipPath>
</defs>
<path clip-path="url(#clip690)" d="M156.274 1486.45 L2352.76 1486.45 L2352.76 47.2441 L156.274 47.2441  Z" fill="#ffffff" fill-rule="evenodd" fill-opacity="1"/>
<defs>
  <clipPath id="clip692">
    <rect x="156" y="47" width="2197" height="1440"/>
  </clipPath>
</defs>
<polyline clip-path="url(#clip692)" style="stroke:#000000; stroke-linecap:round; stroke-linejoin:round; stroke-width:2; stroke-opacity:0.1; fill:none" points="218.439,1486.45 218.439,47.2441 "/>
<polyline clip-path="url(#clip692)" style="stroke:#000000; stroke-linecap:round; stroke-linejoin:round; stroke-width:2; stroke-opacity:0.1; fill:none" points="736.477,1486.45 736.477,47.2441 "/>
<polyline clip-path="url(#clip692)" style="stroke:#000000; stroke-linecap:round; stroke-linejoin:round; stroke-width:2; stroke-opacity:0.1; fill:none" points="1254.52,1486.45 1254.52,47.2441 "/>
<polyline clip-path="url(#clip692)" style="stroke:#000000; stroke-linecap:round; stroke-linejoin:round; stroke-width:2; stroke-opacity:0.1; fill:none" points="1772.55,1486.45 1772.55,47.2441 "/>
<polyline clip-path="url(#clip692)" style="stroke:#000000; stroke-linecap:round; stroke-linejoin:round; stroke-width:2; stroke-opacity:0.1; fill:none" points="2290.59,1486.45 2290.59,47.2441 "/>
<polyline clip-path="url(#clip690)" style="stroke:#000000; stroke-linecap:round; stroke-linejoin:round; stroke-width:4; stroke-opacity:1; fill:none" points="156.274,1486.45 2352.76,1486.45 "/>
<polyline clip-path="url(#clip690)" style="stroke:#000000; stroke-linecap:round; stroke-linejoin:round; stroke-width:4; stroke-opacity:1; fill:none" points="218.439,1486.45 218.439,1467.55 "/>
<polyline clip-path="url(#clip690)" style="stroke:#000000; stroke-linecap:round; stroke-linejoin:round; stroke-width:4; stroke-opacity:1; fill:none" points="736.477,1486.45 736.477,1467.55 "/>
<polyline clip-path="url(#clip690)" style="stroke:#000000; stroke-linecap:round; stroke-linejoin:round; stroke-width:4; stroke-opacity:1; fill:none" points="1254.52,1486.45 1254.52,1467.55 "/>
<polyline clip-path="url(#clip690)" style="stroke:#000000; stroke-linecap:round; stroke-linejoin:round; stroke-width:4; stroke-opacity:1; fill:none" points="1772.55,1486.45 1772.55,1467.55 "/>
<polyline clip-path="url(#clip690)" style="stroke:#000000; stroke-linecap:round; stroke-linejoin:round; stroke-width:4; stroke-opacity:1; fill:none" points="2290.59,1486.45 2290.59,1467.55 "/>
<path clip-path="url(#clip690)" d="M164.967 1532.02 L194.643 1532.02 L194.643 1535.95 L164.967 1535.95 L164.967 1532.02 Z" fill="#000000" fill-rule="evenodd" fill-opacity="1" /><path clip-path="url(#clip690)" d="M205.545 1544.91 L213.184 1544.91 L213.184 1518.55 L204.874 1520.21 L204.874 1515.95 L213.138 1514.29 L217.814 1514.29 L217.814 1544.91 L225.453 1544.91 L225.453 1548.85 L205.545 1548.85 L205.545 1544.91 Z" fill="#000000" fill-rule="evenodd" fill-opacity="1" /><path clip-path="url(#clip690)" d="M234.897 1542.97 L239.781 1542.97 L239.781 1548.85 L234.897 1548.85 L234.897 1542.97 Z" fill="#000000" fill-rule="evenodd" fill-opacity="1" /><path clip-path="url(#clip690)" d="M259.966 1517.37 Q256.355 1517.37 254.527 1520.93 Q252.721 1524.47 252.721 1531.6 Q252.721 1538.71 254.527 1542.27 Q256.355 1545.82 259.966 1545.82 Q263.601 1545.82 265.406 1542.27 Q267.235 1538.71 267.235 1531.6 Q267.235 1524.47 265.406 1520.93 Q263.601 1517.37 259.966 1517.37 M259.966 1513.66 Q265.776 1513.66 268.832 1518.27 Q271.911 1522.85 271.911 1531.6 Q271.911 1540.33 268.832 1544.94 Q265.776 1549.52 259.966 1549.52 Q254.156 1549.52 251.077 1544.94 Q248.022 1540.33 248.022 1531.6 Q248.022 1522.85 251.077 1518.27 Q254.156 1513.66 259.966 1513.66 Z" fill="#000000" fill-rule="evenodd" fill-opacity="1" /><path clip-path="url(#clip690)" d="M683.503 1532.02 L713.178 1532.02 L713.178 1535.95 L683.503 1535.95 L683.503 1532.02 Z" fill="#000000" fill-rule="evenodd" fill-opacity="1" /><path clip-path="url(#clip690)" d="M733.271 1517.37 Q729.66 1517.37 727.831 1520.93 Q726.026 1524.47 726.026 1531.6 Q726.026 1538.71 727.831 1542.27 Q729.66 1545.82 733.271 1545.82 Q736.905 1545.82 738.711 1542.27 Q740.539 1538.71 740.539 1531.6 Q740.539 1524.47 738.711 1520.93 Q736.905 1517.37 733.271 1517.37 M733.271 1513.66 Q739.081 1513.66 742.137 1518.27 Q745.215 1522.85 745.215 1531.6 Q745.215 1540.33 742.137 1544.94 Q739.081 1549.52 733.271 1549.52 Q727.461 1549.52 724.382 1544.94 Q721.327 1540.33 721.327 1531.6 Q721.327 1522.85 724.382 1518.27 Q727.461 1513.66 733.271 1513.66 Z" fill="#000000" fill-rule="evenodd" fill-opacity="1" /><path clip-path="url(#clip690)" d="M753.433 1542.97 L758.317 1542.97 L758.317 1548.85 L753.433 1548.85 L753.433 1542.97 Z" fill="#000000" fill-rule="evenodd" fill-opacity="1" /><path clip-path="url(#clip690)" d="M768.548 1514.29 L786.905 1514.29 L786.905 1518.22 L772.831 1518.22 L772.831 1526.7 Q773.849 1526.35 774.868 1526.19 Q775.886 1526 776.905 1526 Q782.692 1526 786.072 1529.17 Q789.451 1532.34 789.451 1537.76 Q789.451 1543.34 785.979 1546.44 Q782.507 1549.52 776.187 1549.52 Q774.011 1549.52 771.743 1549.15 Q769.498 1548.78 767.09 1548.04 L767.09 1543.34 Q769.173 1544.47 771.396 1545.03 Q773.618 1545.58 776.095 1545.58 Q780.099 1545.58 782.437 1543.48 Q784.775 1541.37 784.775 1537.76 Q784.775 1534.15 782.437 1532.04 Q780.099 1529.94 776.095 1529.94 Q774.22 1529.94 772.345 1530.35 Q770.493 1530.77 768.548 1531.65 L768.548 1514.29 Z" fill="#000000" fill-rule="evenodd" fill-opacity="1" /><path clip-path="url(#clip690)" d="M1231.9 1517.37 Q1228.29 1517.37 1226.46 1520.93 Q1224.65 1524.47 1224.65 1531.6 Q1224.65 1538.71 1226.46 1542.27 Q1228.29 1545.82 1231.9 1545.82 Q1235.53 1545.82 1237.34 1542.27 Q1239.17 1538.71 1239.17 1531.6 Q1239.17 1524.47 1237.34 1520.93 Q1235.53 1517.37 1231.9 1517.37 M1231.9 1513.66 Q1237.71 1513.66 1240.77 1518.27 Q1243.84 1522.85 1243.84 1531.6 Q1243.84 1540.33 1240.77 1544.94 Q1237.71 1549.52 1231.9 1549.52 Q1226.09 1549.52 1223.01 1544.94 Q1219.96 1540.33 1219.96 1531.6 Q1219.96 1522.85 1223.01 1518.27 Q1226.09 1513.66 1231.9 1513.66 Z" fill="#000000" fill-rule="evenodd" fill-opacity="1" /><path clip-path="url(#clip690)" d="M1252.06 1542.97 L1256.95 1542.97 L1256.95 1548.85 L1252.06 1548.85 L1252.06 1542.97 Z" fill="#000000" fill-rule="evenodd" fill-opacity="1" /><path clip-path="url(#clip690)" d="M1277.13 1517.37 Q1273.52 1517.37 1271.69 1520.93 Q1269.89 1524.47 1269.89 1531.6 Q1269.89 1538.71 1271.69 1542.27 Q1273.52 1545.82 1277.13 1545.82 Q1280.76 1545.82 1282.57 1542.27 Q1284.4 1538.71 1284.4 1531.6 Q1284.4 1524.47 1282.57 1520.93 Q1280.76 1517.37 1277.13 1517.37 M1277.13 1513.66 Q1282.94 1513.66 1286 1518.27 Q1289.08 1522.85 1289.08 1531.6 Q1289.08 1540.33 1286 1544.94 Q1282.94 1549.52 1277.13 1549.52 Q1271.32 1549.52 1268.24 1544.94 Q1265.19 1540.33 1265.19 1531.6 Q1265.19 1522.85 1268.24 1518.27 Q1271.32 1513.66 1277.13 1513.66 Z" fill="#000000" fill-rule="evenodd" fill-opacity="1" /><path clip-path="url(#clip690)" d="M1750.44 1517.37 Q1746.82 1517.37 1745 1520.93 Q1743.19 1524.47 1743.19 1531.6 Q1743.19 1538.71 1745 1542.27 Q1746.82 1545.82 1750.44 1545.82 Q1754.07 1545.82 1755.88 1542.27 Q1757.7 1538.71 1757.7 1531.6 Q1757.7 1524.47 1755.88 1520.93 Q1754.07 1517.37 1750.44 1517.37 M1750.44 1513.66 Q1756.25 1513.66 1759.3 1518.27 Q1762.38 1522.85 1762.38 1531.6 Q1762.38 1540.33 1759.3 1544.94 Q1756.25 1549.52 1750.44 1549.52 Q1744.63 1549.52 1741.55 1544.94 Q1738.49 1540.33 1738.49 1531.6 Q1738.49 1522.85 1741.55 1518.27 Q1744.63 1513.66 1750.44 1513.66 Z" fill="#000000" fill-rule="evenodd" fill-opacity="1" /><path clip-path="url(#clip690)" d="M1770.6 1542.97 L1775.48 1542.97 L1775.48 1548.85 L1770.6 1548.85 L1770.6 1542.97 Z" fill="#000000" fill-rule="evenodd" fill-opacity="1" /><path clip-path="url(#clip690)" d="M1785.71 1514.29 L1804.07 1514.29 L1804.07 1518.22 L1790 1518.22 L1790 1526.7 Q1791.01 1526.35 1792.03 1526.19 Q1793.05 1526 1794.07 1526 Q1799.86 1526 1803.24 1529.17 Q1806.62 1532.34 1806.62 1537.76 Q1806.62 1543.34 1803.14 1546.44 Q1799.67 1549.52 1793.35 1549.52 Q1791.18 1549.52 1788.91 1549.15 Q1786.66 1548.78 1784.25 1548.04 L1784.25 1543.34 Q1786.34 1544.47 1788.56 1545.03 Q1790.78 1545.58 1793.26 1545.58 Q1797.26 1545.58 1799.6 1543.48 Q1801.94 1541.37 1801.94 1537.76 Q1801.94 1534.15 1799.6 1532.04 Q1797.26 1529.94 1793.26 1529.94 Q1791.38 1529.94 1789.51 1530.35 Q1787.66 1530.77 1785.71 1531.65 L1785.71 1514.29 Z" fill="#000000" fill-rule="evenodd" fill-opacity="1" /><path clip-path="url(#clip690)" d="M2257.74 1544.91 L2265.38 1544.91 L2265.38 1518.55 L2257.07 1520.21 L2257.07 1515.95 L2265.34 1514.29 L2270.01 1514.29 L2270.01 1544.91 L2277.65 1544.91 L2277.65 1548.85 L2257.74 1548.85 L2257.74 1544.91 Z" fill="#000000" fill-rule="evenodd" fill-opacity="1" /><path clip-path="url(#clip690)" d="M2287.1 1542.97 L2291.98 1542.97 L2291.98 1548.85 L2287.1 1548.85 L2287.1 1542.97 Z" fill="#000000" fill-rule="evenodd" fill-opacity="1" /><path clip-path="url(#clip690)" d="M2312.17 1517.37 Q2308.55 1517.37 2306.73 1520.93 Q2304.92 1524.47 2304.92 1531.6 Q2304.92 1538.71 2306.73 1542.27 Q2308.55 1545.82 2312.17 1545.82 Q2315.8 1545.82 2317.61 1542.27 Q2319.43 1538.71 2319.43 1531.6 Q2319.43 1524.47 2317.61 1520.93 Q2315.8 1517.37 2312.17 1517.37 M2312.17 1513.66 Q2317.98 1513.66 2321.03 1518.27 Q2324.11 1522.85 2324.11 1531.6 Q2324.11 1540.33 2321.03 1544.94 Q2317.98 1549.52 2312.17 1549.52 Q2306.36 1549.52 2303.28 1544.94 Q2300.22 1540.33 2300.22 1531.6 Q2300.22 1522.85 2303.28 1518.27 Q2306.36 1513.66 2312.17 1513.66 Z" fill="#000000" fill-rule="evenodd" fill-opacity="1" /><polyline clip-path="url(#clip692)" style="stroke:#000000; stroke-linecap:round; stroke-linejoin:round; stroke-width:2; stroke-opacity:0.1; fill:none" points="156.274,1257.67 2352.76,1257.67 "/>
<polyline clip-path="url(#clip692)" style="stroke:#000000; stroke-linecap:round; stroke-linejoin:round; stroke-width:2; stroke-opacity:0.1; fill:none" points="156.274,987.199 2352.76,987.199 "/>
<polyline clip-path="url(#clip692)" style="stroke:#000000; stroke-linecap:round; stroke-linejoin:round; stroke-width:2; stroke-opacity:0.1; fill:none" points="156.274,716.725 2352.76,716.725 "/>
<polyline clip-path="url(#clip692)" style="stroke:#000000; stroke-linecap:round; stroke-linejoin:round; stroke-width:2; stroke-opacity:0.1; fill:none" points="156.274,446.252 2352.76,446.252 "/>
<polyline clip-path="url(#clip692)" style="stroke:#000000; stroke-linecap:round; stroke-linejoin:round; stroke-width:2; stroke-opacity:0.1; fill:none" points="156.274,175.778 2352.76,175.778 "/>
<polyline clip-path="url(#clip690)" style="stroke:#000000; stroke-linecap:round; stroke-linejoin:round; stroke-width:4; stroke-opacity:1; fill:none" points="156.274,1486.45 156.274,47.2441 "/>
<polyline clip-path="url(#clip690)" style="stroke:#000000; stroke-linecap:round; stroke-linejoin:round; stroke-width:4; stroke-opacity:1; fill:none" points="156.274,1257.67 175.172,1257.67 "/>
<polyline clip-path="url(#clip690)" style="stroke:#000000; stroke-linecap:round; stroke-linejoin:round; stroke-width:4; stroke-opacity:1; fill:none" points="156.274,987.199 175.172,987.199 "/>
<polyline clip-path="url(#clip690)" style="stroke:#000000; stroke-linecap:round; stroke-linejoin:round; stroke-width:4; stroke-opacity:1; fill:none" points="156.274,716.725 175.172,716.725 "/>
<polyline clip-path="url(#clip690)" style="stroke:#000000; stroke-linecap:round; stroke-linejoin:round; stroke-width:4; stroke-opacity:1; fill:none" points="156.274,446.252 175.172,446.252 "/>
<polyline clip-path="url(#clip690)" style="stroke:#000000; stroke-linecap:round; stroke-linejoin:round; stroke-width:4; stroke-opacity:1; fill:none" points="156.274,175.778 175.172,175.778 "/>
<path clip-path="url(#clip690)" d="M63.0985 1243.47 Q59.4875 1243.47 57.6588 1247.04 Q55.8532 1250.58 55.8532 1257.71 Q55.8532 1264.81 57.6588 1268.38 Q59.4875 1271.92 63.0985 1271.92 Q66.7328 1271.92 68.5383 1268.38 Q70.367 1264.81 70.367 1257.71 Q70.367 1250.58 68.5383 1247.04 Q66.7328 1243.47 63.0985 1243.47 M63.0985 1239.77 Q68.9087 1239.77 71.9642 1244.37 Q75.0429 1248.96 75.0429 1257.71 Q75.0429 1266.43 71.9642 1271.04 Q68.9087 1275.62 63.0985 1275.62 Q57.2884 1275.62 54.2097 1271.04 Q51.1542 1266.43 51.1542 1257.71 Q51.1542 1248.96 54.2097 1244.37 Q57.2884 1239.77 63.0985 1239.77 Z" fill="#000000" fill-rule="evenodd" fill-opacity="1" /><path clip-path="url(#clip690)" d="M83.2605 1269.07 L88.1447 1269.07 L88.1447 1274.95 L83.2605 1274.95 L83.2605 1269.07 Z" fill="#000000" fill-rule="evenodd" fill-opacity="1" /><path clip-path="url(#clip690)" d="M108.33 1243.47 Q104.719 1243.47 102.89 1247.04 Q101.084 1250.58 101.084 1257.71 Q101.084 1264.81 102.89 1268.38 Q104.719 1271.92 108.33 1271.92 Q111.964 1271.92 113.77 1268.38 Q115.598 1264.81 115.598 1257.71 Q115.598 1250.58 113.77 1247.04 Q111.964 1243.47 108.33 1243.47 M108.33 1239.77 Q114.14 1239.77 117.195 1244.37 Q120.274 1248.96 120.274 1257.71 Q120.274 1266.43 117.195 1271.04 Q114.14 1275.62 108.33 1275.62 Q102.52 1275.62 99.4409 1271.04 Q96.3854 1266.43 96.3854 1257.71 Q96.3854 1248.96 99.4409 1244.37 Q102.52 1239.77 108.33 1239.77 Z" fill="#000000" fill-rule="evenodd" fill-opacity="1" /><path clip-path="url(#clip690)" d="M63.7467 972.997 Q60.1356 972.997 58.3069 976.562 Q56.5014 980.104 56.5014 987.234 Q56.5014 994.34 58.3069 997.905 Q60.1356 1001.45 63.7467 1001.45 Q67.3809 1001.45 69.1865 997.905 Q71.0152 994.34 71.0152 987.234 Q71.0152 980.104 69.1865 976.562 Q67.3809 972.997 63.7467 972.997 M63.7467 969.294 Q69.5568 969.294 72.6124 973.9 Q75.6911 978.484 75.6911 987.234 Q75.6911 995.96 72.6124 1000.57 Q69.5568 1005.15 63.7467 1005.15 Q57.9365 1005.15 54.8578 1000.57 Q51.8023 995.96 51.8023 987.234 Q51.8023 978.484 54.8578 973.9 Q57.9365 969.294 63.7467 969.294 Z" fill="#000000" fill-rule="evenodd" fill-opacity="1" /><path clip-path="url(#clip690)" d="M83.9086 998.599 L88.7928 998.599 L88.7928 1004.48 L83.9086 1004.48 L83.9086 998.599 Z" fill="#000000" fill-rule="evenodd" fill-opacity="1" /><path clip-path="url(#clip690)" d="M113.145 985.845 Q116.501 986.562 118.376 988.831 Q120.274 991.099 120.274 994.433 Q120.274 999.548 116.756 1002.35 Q113.237 1005.15 106.756 1005.15 Q104.58 1005.15 102.265 1004.71 Q99.9733 1004.29 97.5197 1003.44 L97.5197 998.923 Q99.4641 1000.06 101.779 1000.64 Q104.094 1001.21 106.617 1001.21 Q111.015 1001.21 113.307 999.479 Q115.621 997.743 115.621 994.433 Q115.621 991.377 113.469 989.664 Q111.339 987.928 107.52 987.928 L103.492 987.928 L103.492 984.085 L107.705 984.085 Q111.154 984.085 112.983 982.72 Q114.811 981.331 114.811 978.738 Q114.811 976.076 112.913 974.664 Q111.038 973.229 107.52 973.229 Q105.598 973.229 103.399 973.646 Q101.2 974.062 98.5613 974.942 L98.5613 970.775 Q101.223 970.035 103.538 969.664 Q105.876 969.294 107.936 969.294 Q113.26 969.294 116.362 971.724 Q119.464 974.132 119.464 978.252 Q119.464 981.122 117.82 983.113 Q116.177 985.081 113.145 985.845 Z" fill="#000000" fill-rule="evenodd" fill-opacity="1" /><path clip-path="url(#clip690)" d="M62.9365 702.524 Q59.3254 702.524 57.4967 706.089 Q55.6912 709.63 55.6912 716.76 Q55.6912 723.867 57.4967 727.431 Q59.3254 730.973 62.9365 730.973 Q66.5707 730.973 68.3763 727.431 Q70.205 723.867 70.205 716.76 Q70.205 709.63 68.3763 706.089 Q66.5707 702.524 62.9365 702.524 M62.9365 698.82 Q68.7467 698.82 71.8022 703.427 Q74.8809 708.01 74.8809 716.76 Q74.8809 725.487 71.8022 730.093 Q68.7467 734.677 62.9365 734.677 Q57.1264 734.677 54.0477 730.093 Q50.9921 725.487 50.9921 716.76 Q50.9921 708.01 54.0477 703.427 Q57.1264 698.82 62.9365 698.82 Z" fill="#000000" fill-rule="evenodd" fill-opacity="1" /><path clip-path="url(#clip690)" d="M83.0984 728.126 L87.9827 728.126 L87.9827 734.005 L83.0984 734.005 L83.0984 728.126 Z" fill="#000000" fill-rule="evenodd" fill-opacity="1" /><path clip-path="url(#clip690)" d="M108.746 714.862 Q105.598 714.862 103.746 717.015 Q101.918 719.167 101.918 722.917 Q101.918 726.644 103.746 728.82 Q105.598 730.973 108.746 730.973 Q111.895 730.973 113.723 728.82 Q115.575 726.644 115.575 722.917 Q115.575 719.167 113.723 717.015 Q111.895 714.862 108.746 714.862 M118.029 700.209 L118.029 704.468 Q116.27 703.635 114.464 703.195 Q112.682 702.756 110.922 702.756 Q106.293 702.756 103.839 705.881 Q101.409 709.006 101.061 715.325 Q102.427 713.311 104.487 712.246 Q106.547 711.158 109.024 711.158 Q114.233 711.158 117.242 714.33 Q120.274 717.478 120.274 722.917 Q120.274 728.242 117.126 731.459 Q113.978 734.677 108.746 734.677 Q102.751 734.677 99.5798 730.093 Q96.4085 725.487 96.4085 716.76 Q96.4085 708.566 100.297 703.705 Q104.186 698.82 110.737 698.82 Q112.496 698.82 114.279 699.168 Q116.084 699.515 118.029 700.209 Z" fill="#000000" fill-rule="evenodd" fill-opacity="1" /><path clip-path="url(#clip690)" d="M63.2837 432.051 Q59.6726 432.051 57.8439 435.615 Q56.0384 439.157 56.0384 446.287 Q56.0384 453.393 57.8439 456.958 Q59.6726 460.5 63.2837 460.5 Q66.918 460.5 68.7235 456.958 Q70.5522 453.393 70.5522 446.287 Q70.5522 439.157 68.7235 435.615 Q66.918 432.051 63.2837 432.051 M63.2837 428.347 Q69.0939 428.347 72.1494 432.953 Q75.2281 437.537 75.2281 446.287 Q75.2281 455.013 72.1494 459.62 Q69.0939 464.203 63.2837 464.203 Q57.4736 464.203 54.3949 459.62 Q51.3393 455.013 51.3393 446.287 Q51.3393 437.537 54.3949 432.953 Q57.4736 428.347 63.2837 428.347 Z" fill="#000000" fill-rule="evenodd" fill-opacity="1" /><path clip-path="url(#clip690)" d="M83.4457 457.652 L88.3299 457.652 L88.3299 463.532 L83.4457 463.532 L83.4457 457.652 Z" fill="#000000" fill-rule="evenodd" fill-opacity="1" /><path clip-path="url(#clip690)" d="M98.6539 462.814 L98.6539 458.555 Q100.413 459.388 102.219 459.828 Q104.024 460.268 105.76 460.268 Q110.39 460.268 112.82 457.166 Q115.274 454.041 115.621 447.699 Q114.279 449.689 112.219 450.754 Q110.158 451.819 107.658 451.819 Q102.473 451.819 99.4409 448.694 Q96.4317 445.546 96.4317 440.106 Q96.4317 434.782 99.5798 431.565 Q102.728 428.347 107.959 428.347 Q113.955 428.347 117.103 432.953 Q120.274 437.537 120.274 446.287 Q120.274 454.458 116.385 459.342 Q112.52 464.203 105.969 464.203 Q104.209 464.203 102.404 463.856 Q100.598 463.509 98.6539 462.814 M107.959 448.162 Q111.108 448.162 112.936 446.009 Q114.788 443.856 114.788 440.106 Q114.788 436.379 112.936 434.227 Q111.108 432.051 107.959 432.051 Q104.811 432.051 102.959 434.227 Q101.131 436.379 101.131 440.106 Q101.131 443.856 102.959 446.009 Q104.811 448.162 107.959 448.162 Z" fill="#000000" fill-rule="evenodd" fill-opacity="1" /><path clip-path="url(#clip690)" d="M55.506 189.123 L63.1448 189.123 L63.1448 162.758 L54.8347 164.424 L54.8347 160.165 L63.0985 158.498 L67.7744 158.498 L67.7744 189.123 L75.4133 189.123 L75.4133 193.058 L55.506 193.058 L55.506 189.123 Z" fill="#000000" fill-rule="evenodd" fill-opacity="1" /><path clip-path="url(#clip690)" d="M84.8577 187.179 L89.7419 187.179 L89.7419 193.058 L84.8577 193.058 L84.8577 187.179 Z" fill="#000000" fill-rule="evenodd" fill-opacity="1" /><path clip-path="url(#clip690)" d="M103.955 189.123 L120.274 189.123 L120.274 193.058 L98.3298 193.058 L98.3298 189.123 Q100.992 186.369 105.575 181.739 Q110.182 177.086 111.362 175.744 Q113.608 173.221 114.487 171.485 Q115.39 169.725 115.39 168.035 Q115.39 165.281 113.445 163.545 Q111.524 161.809 108.422 161.809 Q106.223 161.809 103.77 162.573 Q101.339 163.336 98.5613 164.887 L98.5613 160.165 Q101.385 159.031 103.839 158.452 Q106.293 157.873 108.33 157.873 Q113.7 157.873 116.895 160.559 Q120.089 163.244 120.089 167.735 Q120.089 169.864 119.279 171.785 Q118.492 173.684 116.385 176.276 Q115.807 176.947 112.705 180.165 Q109.603 183.359 103.955 189.123 Z" fill="#000000" fill-rule="evenodd" fill-opacity="1" /><polyline clip-path="url(#clip692)" style="stroke:#009af9; stroke-linecap:round; stroke-linejoin:round; stroke-width:16; stroke-opacity:1; fill:none" stroke-dasharray="8, 16" points="218.439,1121.59 228.852,1088.08 239.264,1069.63 249.677,1067.12 260.09,1075.59 270.503,1088.07 280.916,1099.86 291.329,1110.58 301.741,1123.1 312.154,1140.96 322.567,1166.18 332.98,1198.29 343.393,1234.66 353.805,1271.64 364.218,1305.96 374.631,1335.73 385.044,1360.69 395.457,1381.7 405.87,1399.97 416.282,1416.4 426.695,1430.89 437.108,1441.75 447.521,1445.72 457.934,1439.3 468.347,1421.3 478.759,1394.73 489.172,1365.91 499.585,1340.41 509.998,1318.65 520.411,1295.74 530.824,1266.6 541.236,1231.57 551.649,1196.09 562.062,1165.25 572.475,1140.17 582.888,1119.03 593.301,1100.21 603.713,1084.2 614.126,1073.55 624.539,1071.34 634.952,1078.92 645.365,1094.51 655.777,1114.3 666.19,1135.28 676.603,1157 687.016,1180.99 697.429,1208.85 707.842,1240.76 718.254,1275.22 728.667,1309.66 739.08,1341.52 749.493,1369.09 759.906,1391.81 770.319,1409.8 780.731,1423.24 791.144,1431.97 801.557,1435.65 811.97,1433.94 822.383,1426.58 832.796,1413.42 843.208,1394.45 853.621,1370.07 864.034,1341.31 874.447,1309.97 884.86,1278 895.273,1246.73 905.685,1216.56 916.098,1187.26 926.511,1158.73 936.924,1131.58 947.337,1107.43 957.749,1088.42 968.162,1076.48 978.575,1072.42 988.988,1075.7 999.401,1084.84 1009.81,1098.27 1020.23,1114.93 1030.64,1134.43 1041.05,1156.88 1051.46,1182.54 1061.88,1211.51 1072.29,1243.56 1082.7,1277.95 1093.12,1313.36 1103.53,1347.83 1113.94,1378.87 1124.35,1403.72 1134.77,1420 1145.18,1426.58 1155.59,1424.58 1166.01,1417.87 1176.42,1412.39 1186.83,1413.99 1197.24,1424.82 1207.66,1438.48 1218.07,1434.76 1228.48,1377.77 1238.9,1228.07 1249.31,977.536 1259.72,682.251 1270.13,438.505 1280.55,308.56 1290.96,283.56 1301.37,314.711 1311.79,356.58 1322.2,383.726 1332.61,388.412 1343.02,374.476 1353.44,351.96 1363.85,332.101 1374.26,323.004 1384.68,327.377 1395.09,342.871 1405.5,364.053 1415.91,384.618 1426.33,399.021 1436.74,403.451 1447.15,396.346 1457.57,378.627 1467.98,353.705 1478.39,327.231 1488.8,306.378 1499.22,298.415 1509.63,308.397 1520.04,336.434 1530.45,375.926 1540.87,414.575 1551.28,438.744 1561.69,439.205 1572.11,414.923 1582.52,372.963 1592.93,325.46 1603.34,285.776 1613.76,265.198 1624.17,270.366 1634.58,301.402 1645,351.148 1655.41,406.262 1665.82,450.568 1676.23,469.908 1686.65,456.738 1697.06,412.891 1707.47,349.738 1717.89,285.617 1728.3,240.656 1738.71,229.956 1749.12,257.636 1759.54,315.099 1769.95,384.803 1780.36,447.047 1790.78,485.726 1801.19,490.951 1811.6,459.554 1822.01,395.814 1832.43,313.494 1842.84,236.546 1853.25,193.065 1863.67,201.589 1874.08,259.603 1884.49,345.632 1894.9,432.136 1905.32,496.573 1915.73,524.783 1926.14,510.183 1936.56,453.477 1946.97,364.449 1957.38,264.235 1967.79,183.613 1978.21,152.9 1988.62,186.542 1999.03,274.154 2009.45,385.77 2019.86,486.201 2030.27,547.913 2040.68,556.714 2051.1,511.687 2061.51,423.626 2071.92,313.891 2082.33,211.836 2092.75,147.947 2103.16,143.192 2113.57,200.116 2123.99,301.765 2134.4,418.882 2144.81,520.067 2155.22,579.499 2165.64,581.036 2176.05,520.565 2186.46,408.415 2196.88,271.239 2207.29,149.799 2217.7,87.9763 2228.11,112.72 2238.53,215.725 2248.94,354.829 2259.35,479.137 2269.77,557.048 2280.18,585.451 2290.59,581.002 "/>
<polyline clip-path="url(#clip692)" style="stroke:#e26f46; stroke-linecap:round; stroke-linejoin:round; stroke-width:4; stroke-opacity:1; fill:none" points="218.439,1122.26 228.852,1103.05 239.264,1088.88 249.677,1080.22 260.09,1077.36 270.503,1080.38 280.916,1089.18 291.329,1103.49 301.741,1122.83 312.154,1146.56 322.567,1173.93 332.98,1204.03 343.393,1235.87 353.805,1268.43 364.218,1300.64 374.631,1331.45 385.044,1359.85 395.457,1384.91 405.87,1405.82 416.282,1421.9 426.695,1432.61 437.108,1437.62 447.521,1436.75 457.934,1430.04 468.347,1417.7 478.759,1400.14 489.172,1377.93 499.585,1351.8 509.998,1322.59 520.411,1291.27 530.824,1258.84 541.236,1226.38 551.649,1194.94 562.062,1165.55 572.475,1139.17 582.888,1116.65 593.301,1098.73 603.713,1086 614.126,1078.88 624.539,1077.59 634.952,1082.18 645.365,1092.49 655.777,1108.2 666.19,1128.78 676.603,1153.58 687.016,1181.76 697.429,1212.43 707.842,1244.57 718.254,1277.14 728.667,1309.08 739.08,1339.34 749.493,1366.93 759.906,1390.95 770.319,1410.63 780.731,1425.31 791.144,1434.53 801.557,1437.97 811.97,1435.52 822.383,1427.27 832.796,1413.49 843.208,1394.62 853.621,1371.28 864.034,1344.24 874.447,1314.36 884.86,1282.64 895.273,1250.1 905.685,1217.81 916.098,1186.83 926.511,1158.15 936.924,1132.72 947.337,1111.37 957.749,1094.79 968.162,1083.53 978.575,1077.96 988.988,1078.25 999.401,1084.39 1009.81,1096.19 1020.23,1113.26 1030.64,1135.05 1041.05,1160.83 1051.46,1189.78 1061.88,1220.94 1072.29,1253.3 1082.7,1285.81 1093.12,1317.39 1103.53,1347.03 1113.94,1373.75 1124.35,1396.68 1134.77,1415.08 1145.18,1428.33 1155.59,1436.02 1166.01,1437.89 1176.42,1433.87 1186.83,1424.11 1197.24,1408.91 1207.66,1388.78 1218.07,1364.36 1228.48,1336.47 1238.9,1306 1249.31,1273.96 1259.72,354.785 1270.13,353.295 1280.55,354.651 1290.96,359.165 1301.37,365.455 1311.79,370.862 1322.2,372.463 1332.61,368.303 1343.02,358.385 1353.44,345.015 1363.85,332.293 1374.26,324.861 1384.68,326.287 1395.09,337.626 1405.5,356.7 1415.91,378.407 1426.33,396.083 1436.74,403.539 1447.15,397.157 1457.57,377.353 1467.98,348.867 1478.39,319.675 1488.8,298.752 1499.22,293.332 1509.63,306.471 1520.04,335.744 1530.45,373.549 1540.87,409.062 1551.28,431.334 1561.69,432.654 1572.11,411.136 1582.52,371.7 1592.93,325.019 1603.34,284.64 1613.76,263.055 1624.17,267.854 1634.58,299.148 1645,349.107 1655.41,403.875 1665.82,447.41 1676.23,466.179 1686.65,453.344 1697.06,411.138 1707.47,350.645 1717.89,288.913 1728.3,244.153 1738.71,230.368 1749.12,253.004 1759.54,306.956 1769.95,377.636 1780.36,444.896 1790.78,488.778 1801.19,495.425 1811.6,461.423 1822.01,395.216 1832.43,315.058 1842.84,243.991 1853.25,203.221 1863.67,205.798 1874.08,252.485 1884.49,331.103 1894.9,419.678 1905.32,492.577 1915.73,527.926 1926.14,514.161 1936.56,453.756 1946.97,362.937 1957.38,267.346 1967.79,194.801 1978.21,167.206 1988.62,193.948 1999.03,268.784 2009.45,371.22 2019.86,472.108 2030.27,541.942 2040.68,559.483 2051.1,518.198 2061.51,428.57 2071.92,315.476 2082.33,211.299 2092.75,146.649 2103.16,141.375 2113.57,198.499 2123.99,302.91 2134.4,425.334 2144.81,530.538 2155.22,587.465 2165.64,578.402 2176.05,504.453 2186.46,385.659 2196.88,255.581 2207.29,151.826 2217.7,105.171 2228.11,130.446 2238.53,221.859 2248.94,354.243 2259.35,489.965 2269.77,589.632 2280.18,623.512 2290.59,580.4 "/>
<path clip-path="url(#clip690)" d="M229.49 250.738 L675.966 250.738 L675.966 95.2176 L229.49 95.2176  Z" fill="#ffffff" fill-rule="evenodd" fill-opacity="1"/>
<polyline clip-path="url(#clip690)" style="stroke:#000000; stroke-linecap:round; stroke-linejoin:round; stroke-width:4; stroke-opacity:1; fill:none" points="229.49,250.738 675.966,250.738 675.966,95.2176 229.49,95.2176 229.49,250.738 "/>
<polyline clip-path="url(#clip690)" style="stroke:#009af9; stroke-linecap:round; stroke-linejoin:round; stroke-width:16; stroke-opacity:1; fill:none" stroke-dasharray="8, 16" points="253.896,147.058 400.328,147.058 "/>
<path clip-path="url(#clip690)" d="M429.409 133.62 L429.409 146.606 L435.289 146.606 Q438.552 146.606 440.335 144.916 Q442.117 143.227 442.117 140.102 Q442.117 137 440.335 135.31 Q438.552 133.62 435.289 133.62 L429.409 133.62 M424.733 129.778 L435.289 129.778 Q441.099 129.778 444.062 132.416 Q447.048 135.032 447.048 140.102 Q447.048 145.217 444.062 147.833 Q441.099 150.449 435.289 150.449 L429.409 150.449 L429.409 164.338 L424.733 164.338 L424.733 129.778 Z" fill="#000000" fill-rule="evenodd" fill-opacity="1" /><path clip-path="url(#clip690)" d="M467.325 142.393 Q466.608 141.977 465.751 141.791 Q464.918 141.583 463.899 141.583 Q460.288 141.583 458.344 143.944 Q456.423 146.282 456.423 150.68 L456.423 164.338 L452.14 164.338 L452.14 138.412 L456.423 138.412 L456.423 142.44 Q457.765 140.078 459.918 138.944 Q462.071 137.787 465.149 137.787 Q465.589 137.787 466.122 137.856 Q466.654 137.903 467.302 138.018 L467.325 142.393 Z" fill="#000000" fill-rule="evenodd" fill-opacity="1" /><path clip-path="url(#clip690)" d="M492.927 150.31 L492.927 152.393 L473.344 152.393 Q473.622 156.791 475.983 159.106 Q478.367 161.398 482.603 161.398 Q485.057 161.398 487.348 160.796 Q489.663 160.194 491.932 158.99 L491.932 163.018 Q489.64 163.99 487.233 164.5 Q484.825 165.009 482.348 165.009 Q476.145 165.009 472.511 161.398 Q468.899 157.787 468.899 151.629 Q468.899 145.264 472.325 141.537 Q475.774 137.787 481.608 137.787 Q486.839 137.787 489.872 141.166 Q492.927 144.523 492.927 150.31 M488.668 149.06 Q488.622 145.565 486.7 143.481 Q484.802 141.398 481.654 141.398 Q478.089 141.398 475.936 143.412 Q473.807 145.426 473.483 149.083 L488.668 149.06 Z" fill="#000000" fill-rule="evenodd" fill-opacity="1" /><path clip-path="url(#clip690)" d="M516.978 142.347 L516.978 128.319 L521.237 128.319 L521.237 164.338 L516.978 164.338 L516.978 160.449 Q515.635 162.763 513.575 163.898 Q511.538 165.009 508.668 165.009 Q503.969 165.009 501.006 161.259 Q498.066 157.509 498.066 151.398 Q498.066 145.287 501.006 141.537 Q503.969 137.787 508.668 137.787 Q511.538 137.787 513.575 138.921 Q515.635 140.032 516.978 142.347 M502.464 151.398 Q502.464 156.097 504.385 158.782 Q506.33 161.444 509.709 161.444 Q513.089 161.444 515.033 158.782 Q516.978 156.097 516.978 151.398 Q516.978 146.699 515.033 144.037 Q513.089 141.352 509.709 141.352 Q506.33 141.352 504.385 144.037 Q502.464 146.699 502.464 151.398 Z" fill="#000000" fill-rule="evenodd" fill-opacity="1" /><path clip-path="url(#clip690)" d="M530.01 138.412 L534.269 138.412 L534.269 164.338 L530.01 164.338 L530.01 138.412 M530.01 128.319 L534.269 128.319 L534.269 133.713 L530.01 133.713 L530.01 128.319 Z" fill="#000000" fill-rule="evenodd" fill-opacity="1" /><path clip-path="url(#clip690)" d="M561.839 139.407 L561.839 143.389 Q560.033 142.393 558.205 141.907 Q556.399 141.398 554.547 141.398 Q550.404 141.398 548.112 144.037 Q545.82 146.652 545.82 151.398 Q545.82 156.143 548.112 158.782 Q550.404 161.398 554.547 161.398 Q556.399 161.398 558.205 160.912 Q560.033 160.402 561.839 159.407 L561.839 163.342 Q560.056 164.176 558.135 164.592 Q556.237 165.009 554.084 165.009 Q548.228 165.009 544.779 161.328 Q541.33 157.648 541.33 151.398 Q541.33 145.055 544.802 141.421 Q548.297 137.787 554.362 137.787 Q556.33 137.787 558.205 138.203 Q560.08 138.597 561.839 139.407 Z" fill="#000000" fill-rule="evenodd" fill-opacity="1" /><path clip-path="url(#clip690)" d="M573.459 131.051 L573.459 138.412 L582.232 138.412 L582.232 141.722 L573.459 141.722 L573.459 155.796 Q573.459 158.967 574.316 159.87 Q575.195 160.773 577.857 160.773 L582.232 160.773 L582.232 164.338 L577.857 164.338 Q572.927 164.338 571.052 162.509 Q569.177 160.657 569.177 155.796 L569.177 141.722 L566.052 141.722 L566.052 138.412 L569.177 138.412 L569.177 131.051 L573.459 131.051 Z" fill="#000000" fill-rule="evenodd" fill-opacity="1" /><path clip-path="url(#clip690)" d="M587.834 138.412 L592.093 138.412 L592.093 164.338 L587.834 164.338 L587.834 138.412 M587.834 128.319 L592.093 128.319 L592.093 133.713 L587.834 133.713 L587.834 128.319 Z" fill="#000000" fill-rule="evenodd" fill-opacity="1" /><path clip-path="url(#clip690)" d="M611.051 141.398 Q607.626 141.398 605.635 144.083 Q603.644 146.745 603.644 151.398 Q603.644 156.051 605.612 158.736 Q607.602 161.398 611.051 161.398 Q614.454 161.398 616.445 158.713 Q618.436 156.027 618.436 151.398 Q618.436 146.791 616.445 144.106 Q614.454 141.398 611.051 141.398 M611.051 137.787 Q616.607 137.787 619.778 141.398 Q622.95 145.009 622.95 151.398 Q622.95 157.764 619.778 161.398 Q616.607 165.009 611.051 165.009 Q605.473 165.009 602.302 161.398 Q599.153 157.764 599.153 151.398 Q599.153 145.009 602.302 141.398 Q605.473 137.787 611.051 137.787 Z" fill="#000000" fill-rule="evenodd" fill-opacity="1" /><path clip-path="url(#clip690)" d="M651.561 148.689 L651.561 164.338 L647.301 164.338 L647.301 148.828 Q647.301 145.148 645.866 143.319 Q644.431 141.49 641.561 141.49 Q638.112 141.49 636.121 143.69 Q634.13 145.889 634.13 149.685 L634.13 164.338 L629.848 164.338 L629.848 138.412 L634.13 138.412 L634.13 142.44 Q635.658 140.102 637.718 138.944 Q639.801 137.787 642.51 137.787 Q646.977 137.787 649.269 140.565 Q651.561 143.319 651.561 148.689 Z" fill="#000000" fill-rule="evenodd" fill-opacity="1" /><polyline clip-path="url(#clip690)" style="stroke:#e26f46; stroke-linecap:round; stroke-linejoin:round; stroke-width:4; stroke-opacity:1; fill:none" points="253.896,198.898 400.328,198.898 "/>
<path clip-path="url(#clip690)" d="M424.733 181.618 L446.585 181.618 L446.585 185.553 L429.409 185.553 L429.409 195.784 L445.867 195.784 L445.867 199.719 L429.409 199.719 L429.409 212.242 L447.001 212.242 L447.001 216.178 L424.733 216.178 L424.733 181.618 Z" fill="#000000" fill-rule="evenodd" fill-opacity="1" /><path clip-path="url(#clip690)" d="M476.052 190.252 L466.677 202.867 L476.538 216.178 L471.515 216.178 L463.969 205.992 L456.423 216.178 L451.4 216.178 L461.469 202.613 L452.256 190.252 L457.279 190.252 L464.154 199.488 L471.029 190.252 L476.052 190.252 Z" fill="#000000" fill-rule="evenodd" fill-opacity="1" /><path clip-path="url(#clip690)" d="M494.339 203.145 Q489.177 203.145 487.186 204.326 Q485.196 205.506 485.196 208.354 Q485.196 210.622 486.677 211.965 Q488.182 213.284 490.751 213.284 Q494.293 213.284 496.422 210.784 Q498.575 208.261 498.575 204.094 L498.575 203.145 L494.339 203.145 M502.834 201.386 L502.834 216.178 L498.575 216.178 L498.575 212.242 Q497.117 214.603 494.941 215.738 Q492.765 216.849 489.617 216.849 Q485.635 216.849 483.274 214.627 Q480.936 212.381 480.936 208.631 Q480.936 204.256 483.853 202.034 Q486.793 199.812 492.603 199.812 L498.575 199.812 L498.575 199.395 Q498.575 196.455 496.631 194.858 Q494.71 193.238 491.214 193.238 Q488.992 193.238 486.885 193.77 Q484.779 194.303 482.835 195.367 L482.835 191.432 Q485.173 190.53 487.372 190.09 Q489.571 189.627 491.654 189.627 Q497.279 189.627 500.057 192.543 Q502.834 195.46 502.834 201.386 Z" fill="#000000" fill-rule="evenodd" fill-opacity="1" /><path clip-path="url(#clip690)" d="M530.265 191.247 L530.265 195.229 Q528.459 194.233 526.631 193.747 Q524.825 193.238 522.973 193.238 Q518.83 193.238 516.538 195.877 Q514.246 198.492 514.246 203.238 Q514.246 207.983 516.538 210.622 Q518.83 213.238 522.973 213.238 Q524.825 213.238 526.631 212.752 Q528.459 212.242 530.265 211.247 L530.265 215.182 Q528.482 216.016 526.561 216.432 Q524.663 216.849 522.51 216.849 Q516.654 216.849 513.205 213.168 Q509.756 209.488 509.756 203.238 Q509.756 196.895 513.228 193.261 Q516.723 189.627 522.788 189.627 Q524.756 189.627 526.631 190.043 Q528.506 190.437 530.265 191.247 Z" fill="#000000" fill-rule="evenodd" fill-opacity="1" /><path clip-path="url(#clip690)" d="M541.885 182.891 L541.885 190.252 L550.658 190.252 L550.658 193.562 L541.885 193.562 L541.885 207.636 Q541.885 210.807 542.742 211.71 Q543.621 212.613 546.283 212.613 L550.658 212.613 L550.658 216.178 L546.283 216.178 Q541.353 216.178 539.478 214.349 Q537.603 212.497 537.603 207.636 L537.603 193.562 L534.478 193.562 L534.478 190.252 L537.603 190.252 L537.603 182.891 L541.885 182.891 Z" fill="#000000" fill-rule="evenodd" fill-opacity="1" /></svg>
