<?xml version="1.0" encoding="utf-8"?>
<svg xmlns="http://www.w3.org/2000/svg" xmlns:xlink="http://www.w3.org/1999/xlink" width="600" height="400" viewBox="0 0 2400 1600">
<defs>
  <clipPath id="clip720">
    <rect x="0" y="0" width="2400" height="1600"/>
  </clipPath>
</defs>
<path clip-path="url(#clip720)" d="M0 1600 L2400 1600 L2400 0 L0 0  Z" fill="#ffffff" fill-rule="evenodd" fill-opacity="1"/>
<defs>
  <clipPath id="clip721">
    <rect x="480" y="0" width="1681" height="1600"/>
  </clipPath>
</defs>
<path clip-path="url(#clip720)" d="M192.339 1486.45 L2352.76 1486.45 L2352.76 47.2441 L192.339 47.2441  Z" fill="#ffffff" fill-rule="evenodd" fill-opacity="1"/>
<defs>
  <clipPath id="clip722">
    <rect x="192" y="47" width="2161" height="1440"/>
  </clipPath>
</defs>
<polyline clip-path="url(#clip722)" style="stroke:#000000; stroke-linecap:round; stroke-linejoin:round; stroke-width:2; stroke-opacity:0.1; fill:none" points="253.483,1486.45 253.483,47.2441 "/>
<polyline clip-path="url(#clip722)" style="stroke:#000000; stroke-linecap:round; stroke-linejoin:round; stroke-width:2; stroke-opacity:0.1; fill:none" points="763.015,1486.45 763.015,47.2441 "/>
<polyline clip-path="url(#clip722)" style="stroke:#000000; stroke-linecap:round; stroke-linejoin:round; stroke-width:2; stroke-opacity:0.1; fill:none" points="1272.55,1486.45 1272.55,47.2441 "/>
<polyline clip-path="url(#clip722)" style="stroke:#000000; stroke-linecap:round; stroke-linejoin:round; stroke-width:2; stroke-opacity:0.1; fill:none" points="1782.08,1486.45 1782.08,47.2441 "/>
<polyline clip-path="url(#clip722)" style="stroke:#000000; stroke-linecap:round; stroke-linejoin:round; stroke-width:2; stroke-opacity:0.1; fill:none" points="2291.61,1486.45 2291.61,47.2441 "/>
<polyline clip-path="url(#clip720)" style="stroke:#000000; stroke-linecap:round; stroke-linejoin:round; stroke-width:4; stroke-opacity:1; fill:none" points="192.339,1486.45 2352.76,1486.45 "/>
<polyline clip-path="url(#clip720)" style="stroke:#000000; stroke-linecap:round; stroke-linejoin:round; stroke-width:4; stroke-opacity:1; fill:none" points="253.483,1486.45 253.483,1467.55 "/>
<polyline clip-path="url(#clip720)" style="stroke:#000000; stroke-linecap:round; stroke-linejoin:round; stroke-width:4; stroke-opacity:1; fill:none" points="763.015,1486.45 763.015,1467.55 "/>
<polyline clip-path="url(#clip720)" style="stroke:#000000; stroke-linecap:round; stroke-linejoin:round; stroke-width:4; stroke-opacity:1; fill:none" points="1272.55,1486.45 1272.55,1467.55 "/>
<polyline clip-path="url(#clip720)" style="stroke:#000000; stroke-linecap:round; stroke-linejoin:round; stroke-width:4; stroke-opacity:1; fill:none" points="1782.08,1486.45 1782.08,1467.55 "/>
<polyline clip-path="url(#clip720)" style="stroke:#000000; stroke-linecap:round; stroke-linejoin:round; stroke-width:4; stroke-opacity:1; fill:none" points="2291.61,1486.45 2291.61,1467.55 "/>
<path clip-path="url(#clip720)" d="M200.011 1532.02 L229.686 1532.02 L229.686 1535.95 L200.011 1535.95 L200.011 1532.02 Z" fill="#000000" fill-rule="evenodd" fill-opacity="1" /><path clip-path="url(#clip720)" d="M240.589 1544.91 L248.228 1544.91 L248.228 1518.55 L239.918 1520.21 L239.918 1515.95 L248.182 1514.29 L252.858 1514.29 L252.858 1544.91 L260.497 1544.91 L260.497 1548.85 L240.589 1548.85 L240.589 1544.91 Z" fill="#000000" fill-rule="evenodd" fill-opacity="1" /><path clip-path="url(#clip720)" d="M269.941 1542.97 L274.825 1542.97 L274.825 1548.85 L269.941 1548.85 L269.941 1542.97 Z" fill="#000000" fill-rule="evenodd" fill-opacity="1" /><path clip-path="url(#clip720)" d="M295.01 1517.37 Q291.399 1517.37 289.57 1520.93 Q287.765 1524.47 287.765 1531.6 Q287.765 1538.71 289.57 1542.27 Q291.399 1545.82 295.01 1545.82 Q298.644 1545.82 300.45 1542.27 Q302.279 1538.71 302.279 1531.6 Q302.279 1524.47 300.45 1520.93 Q298.644 1517.37 295.01 1517.37 M295.01 1513.66 Q300.82 1513.66 303.876 1518.27 Q306.955 1522.85 306.955 1531.6 Q306.955 1540.33 303.876 1544.94 Q300.82 1549.52 295.01 1549.52 Q289.2 1549.52 286.121 1544.94 Q283.066 1540.33 283.066 1531.6 Q283.066 1522.85 286.121 1518.27 Q289.2 1513.66 295.01 1513.66 Z" fill="#000000" fill-rule="evenodd" fill-opacity="1" /><path clip-path="url(#clip720)" d="M710.041 1532.02 L739.717 1532.02 L739.717 1535.95 L710.041 1535.95 L710.041 1532.02 Z" fill="#000000" fill-rule="evenodd" fill-opacity="1" /><path clip-path="url(#clip720)" d="M759.809 1517.37 Q756.198 1517.37 754.369 1520.93 Q752.564 1524.47 752.564 1531.6 Q752.564 1538.71 754.369 1542.27 Q756.198 1545.82 759.809 1545.82 Q763.443 1545.82 765.249 1542.27 Q767.077 1538.71 767.077 1531.6 Q767.077 1524.47 765.249 1520.93 Q763.443 1517.37 759.809 1517.37 M759.809 1513.66 Q765.619 1513.66 768.675 1518.27 Q771.753 1522.85 771.753 1531.6 Q771.753 1540.33 768.675 1544.94 Q765.619 1549.52 759.809 1549.52 Q753.999 1549.52 750.92 1544.94 Q747.865 1540.33 747.865 1531.6 Q747.865 1522.85 750.92 1518.27 Q753.999 1513.66 759.809 1513.66 Z" fill="#000000" fill-rule="evenodd" fill-opacity="1" /><path clip-path="url(#clip720)" d="M779.971 1542.97 L784.855 1542.97 L784.855 1548.85 L779.971 1548.85 L779.971 1542.97 Z" fill="#000000" fill-rule="evenodd" fill-opacity="1" /><path clip-path="url(#clip720)" d="M795.087 1514.29 L813.443 1514.29 L813.443 1518.22 L799.369 1518.22 L799.369 1526.7 Q800.387 1526.35 801.406 1526.19 Q802.425 1526 803.443 1526 Q809.23 1526 812.61 1529.17 Q815.989 1532.34 815.989 1537.76 Q815.989 1543.34 812.517 1546.44 Q809.045 1549.52 802.725 1549.52 Q800.55 1549.52 798.281 1549.15 Q796.036 1548.78 793.628 1548.04 L793.628 1543.34 Q795.712 1544.47 797.934 1545.03 Q800.156 1545.58 802.633 1545.58 Q806.637 1545.58 808.975 1543.48 Q811.313 1541.37 811.313 1537.76 Q811.313 1534.15 808.975 1532.04 Q806.637 1529.94 802.633 1529.94 Q800.758 1529.94 798.883 1530.35 Q797.031 1530.77 795.087 1531.65 L795.087 1514.29 Z" fill="#000000" fill-rule="evenodd" fill-opacity="1" /><path clip-path="url(#clip720)" d="M1249.93 1517.37 Q1246.32 1517.37 1244.49 1520.93 Q1242.69 1524.47 1242.69 1531.6 Q1242.69 1538.71 1244.49 1542.27 Q1246.32 1545.82 1249.93 1545.82 Q1253.57 1545.82 1255.37 1542.27 Q1257.2 1538.71 1257.2 1531.6 Q1257.2 1524.47 1255.37 1520.93 Q1253.57 1517.37 1249.93 1517.37 M1249.93 1513.66 Q1255.74 1513.66 1258.8 1518.27 Q1261.88 1522.85 1261.88 1531.6 Q1261.88 1540.33 1258.8 1544.94 Q1255.74 1549.52 1249.93 1549.52 Q1244.12 1549.52 1241.04 1544.94 Q1237.99 1540.33 1237.99 1531.6 Q1237.99 1522.85 1241.04 1518.27 Q1244.12 1513.66 1249.93 1513.66 Z" fill="#000000" fill-rule="evenodd" fill-opacity="1" /><path clip-path="url(#clip720)" d="M1270.09 1542.97 L1274.98 1542.97 L1274.98 1548.85 L1270.09 1548.85 L1270.09 1542.97 Z" fill="#000000" fill-rule="evenodd" fill-opacity="1" /><path clip-path="url(#clip720)" d="M1295.16 1517.37 Q1291.55 1517.37 1289.72 1520.93 Q1287.92 1524.47 1287.92 1531.6 Q1287.92 1538.71 1289.72 1542.27 Q1291.55 1545.82 1295.16 1545.82 Q1298.8 1545.82 1300.6 1542.27 Q1302.43 1538.71 1302.43 1531.6 Q1302.43 1524.47 1300.6 1520.93 Q1298.8 1517.37 1295.16 1517.37 M1295.16 1513.66 Q1300.97 1513.66 1304.03 1518.27 Q1307.11 1522.85 1307.11 1531.6 Q1307.11 1540.33 1304.03 1544.94 Q1300.97 1549.52 1295.16 1549.52 Q1289.35 1549.52 1286.27 1544.94 Q1283.22 1540.33 1283.22 1531.6 Q1283.22 1522.85 1286.27 1518.27 Q1289.35 1513.66 1295.16 1513.66 Z" fill="#000000" fill-rule="evenodd" fill-opacity="1" /><path clip-path="url(#clip720)" d="M1759.96 1517.37 Q1756.35 1517.37 1754.52 1520.93 Q1752.72 1524.47 1752.72 1531.6 Q1752.72 1538.71 1754.52 1542.27 Q1756.35 1545.82 1759.96 1545.82 Q1763.6 1545.82 1765.4 1542.27 Q1767.23 1538.71 1767.23 1531.6 Q1767.23 1524.47 1765.4 1520.93 Q1763.6 1517.37 1759.96 1517.37 M1759.96 1513.66 Q1765.77 1513.66 1768.83 1518.27 Q1771.91 1522.85 1771.91 1531.6 Q1771.91 1540.33 1768.83 1544.94 Q1765.77 1549.52 1759.96 1549.52 Q1754.15 1549.52 1751.07 1544.94 Q1748.02 1540.33 1748.02 1531.6 Q1748.02 1522.85 1751.07 1518.27 Q1754.15 1513.66 1759.96 1513.66 Z" fill="#000000" fill-rule="evenodd" fill-opacity="1" /><path clip-path="url(#clip720)" d="M1780.12 1542.97 L1785.01 1542.97 L1785.01 1548.85 L1780.12 1548.85 L1780.12 1542.97 Z" fill="#000000" fill-rule="evenodd" fill-opacity="1" /><path clip-path="url(#clip720)" d="M1795.24 1514.29 L1813.6 1514.29 L1813.6 1518.22 L1799.52 1518.22 L1799.52 1526.7 Q1800.54 1526.35 1801.56 1526.19 Q1802.58 1526 1803.6 1526 Q1809.38 1526 1812.76 1529.17 Q1816.14 1532.34 1816.14 1537.76 Q1816.14 1543.34 1812.67 1546.44 Q1809.2 1549.52 1802.88 1549.52 Q1800.7 1549.52 1798.43 1549.15 Q1796.19 1548.78 1793.78 1548.04 L1793.78 1543.34 Q1795.86 1544.47 1798.09 1545.03 Q1800.31 1545.58 1802.79 1545.58 Q1806.79 1545.58 1809.13 1543.48 Q1811.47 1541.37 1811.47 1537.76 Q1811.47 1534.15 1809.13 1532.04 Q1806.79 1529.94 1802.79 1529.94 Q1800.91 1529.94 1799.04 1530.35 Q1797.18 1530.77 1795.24 1531.65 L1795.24 1514.29 Z" fill="#000000" fill-rule="evenodd" fill-opacity="1" /><path clip-path="url(#clip720)" d="M2258.76 1544.91 L2266.4 1544.91 L2266.4 1518.55 L2258.09 1520.21 L2258.09 1515.95 L2266.36 1514.29 L2271.03 1514.29 L2271.03 1544.91 L2278.67 1544.91 L2278.67 1548.85 L2258.76 1548.85 L2258.76 1544.91 Z" fill="#000000" fill-rule="evenodd" fill-opacity="1" /><path clip-path="url(#clip720)" d="M2288.12 1542.97 L2293 1542.97 L2293 1548.85 L2288.12 1548.85 L2288.12 1542.97 Z" fill="#000000" fill-rule="evenodd" fill-opacity="1" /><path clip-path="url(#clip720)" d="M2313.19 1517.37 Q2309.57 1517.37 2307.75 1520.93 Q2305.94 1524.47 2305.94 1531.6 Q2305.94 1538.71 2307.75 1542.27 Q2309.57 1545.82 2313.19 1545.82 Q2316.82 1545.82 2318.63 1542.27 Q2320.45 1538.71 2320.45 1531.6 Q2320.45 1524.47 2318.63 1520.93 Q2316.82 1517.37 2313.19 1517.37 M2313.19 1513.66 Q2319 1513.66 2322.05 1518.27 Q2325.13 1522.85 2325.13 1531.6 Q2325.13 1540.33 2322.05 1544.94 Q2319 1549.52 2313.19 1549.52 Q2307.38 1549.52 2304.3 1544.94 Q2301.24 1540.33 2301.24 1531.6 Q2301.24 1522.85 2304.3 1518.27 Q2307.38 1513.66 2313.19 1513.66 Z" fill="#000000" fill-rule="evenodd" fill-opacity="1" /><polyline clip-path="url(#clip722)" style="stroke:#000000; stroke-linecap:round; stroke-linejoin:round; stroke-width:2; stroke-opacity:0.1; fill:none" points="192.339,1324.52 2352.76,1324.52 "/>
<polyline clip-path="url(#clip722)" style="stroke:#000000; stroke-linecap:round; stroke-linejoin:round; stroke-width:2; stroke-opacity:0.1; fill:none" points="192.339,1157.23 2352.76,1157.23 "/>
<polyline clip-path="url(#clip722)" style="stroke:#000000; stroke-linecap:round; stroke-linejoin:round; stroke-width:2; stroke-opacity:0.1; fill:none" points="192.339,989.938 2352.76,989.938 "/>
<polyline clip-path="url(#clip722)" style="stroke:#000000; stroke-linecap:round; stroke-linejoin:round; stroke-width:2; stroke-opacity:0.1; fill:none" points="192.339,822.647 2352.76,822.647 "/>
<polyline clip-path="url(#clip722)" style="stroke:#000000; stroke-linecap:round; stroke-linejoin:round; stroke-width:2; stroke-opacity:0.1; fill:none" points="192.339,655.356 2352.76,655.356 "/>
<polyline clip-path="url(#clip722)" style="stroke:#000000; stroke-linecap:round; stroke-linejoin:round; stroke-width:2; stroke-opacity:0.1; fill:none" points="192.339,488.065 2352.76,488.065 "/>
<polyline clip-path="url(#clip722)" style="stroke:#000000; stroke-linecap:round; stroke-linejoin:round; stroke-width:2; stroke-opacity:0.1; fill:none" points="192.339,320.774 2352.76,320.774 "/>
<polyline clip-path="url(#clip722)" style="stroke:#000000; stroke-linecap:round; stroke-linejoin:round; stroke-width:2; stroke-opacity:0.1; fill:none" points="192.339,153.483 2352.76,153.483 "/>
<polyline clip-path="url(#clip720)" style="stroke:#000000; stroke-linecap:round; stroke-linejoin:round; stroke-width:4; stroke-opacity:1; fill:none" points="192.339,1486.45 192.339,47.2441 "/>
<polyline clip-path="url(#clip720)" style="stroke:#000000; stroke-linecap:round; stroke-linejoin:round; stroke-width:4; stroke-opacity:1; fill:none" points="192.339,1324.52 211.236,1324.52 "/>
<polyline clip-path="url(#clip720)" style="stroke:#000000; stroke-linecap:round; stroke-linejoin:round; stroke-width:4; stroke-opacity:1; fill:none" points="192.339,1157.23 211.236,1157.23 "/>
<polyline clip-path="url(#clip720)" style="stroke:#000000; stroke-linecap:round; stroke-linejoin:round; stroke-width:4; stroke-opacity:1; fill:none" points="192.339,989.938 211.236,989.938 "/>
<polyline clip-path="url(#clip720)" style="stroke:#000000; stroke-linecap:round; stroke-linejoin:round; stroke-width:4; stroke-opacity:1; fill:none" points="192.339,822.647 211.236,822.647 "/>
<polyline clip-path="url(#clip720)" style="stroke:#000000; stroke-linecap:round; stroke-linejoin:round; stroke-width:4; stroke-opacity:1; fill:none" points="192.339,655.356 211.236,655.356 "/>
<polyline clip-path="url(#clip720)" style="stroke:#000000; stroke-linecap:round; stroke-linejoin:round; stroke-width:4; stroke-opacity:1; fill:none" points="192.339,488.065 211.236,488.065 "/>
<polyline clip-path="url(#clip720)" style="stroke:#000000; stroke-linecap:round; stroke-linejoin:round; stroke-width:4; stroke-opacity:1; fill:none" points="192.339,320.774 211.236,320.774 "/>
<polyline clip-path="url(#clip720)" style="stroke:#000000; stroke-linecap:round; stroke-linejoin:round; stroke-width:4; stroke-opacity:1; fill:none" points="192.339,153.483 211.236,153.483 "/>
<path clip-path="url(#clip720)" d="M50.9921 1324.97 L80.6679 1324.97 L80.6679 1328.91 L50.9921 1328.91 L50.9921 1324.97 Z" fill="#000000" fill-rule="evenodd" fill-opacity="1" /><path clip-path="url(#clip720)" d="M100.76 1310.32 Q97.1493 1310.32 95.3206 1313.88 Q93.515 1317.43 93.515 1324.56 Q93.515 1331.66 95.3206 1335.23 Q97.1493 1338.77 100.76 1338.77 Q104.395 1338.77 106.2 1335.23 Q108.029 1331.66 108.029 1324.56 Q108.029 1317.43 106.2 1313.88 Q104.395 1310.32 100.76 1310.32 M100.76 1306.62 Q106.571 1306.62 109.626 1311.22 Q112.705 1315.81 112.705 1324.56 Q112.705 1333.28 109.626 1337.89 Q106.571 1342.47 100.76 1342.47 Q94.9502 1342.47 91.8715 1337.89 Q88.816 1333.28 88.816 1324.56 Q88.816 1315.81 91.8715 1311.22 Q94.9502 1306.62 100.76 1306.62 Z" fill="#000000" fill-rule="evenodd" fill-opacity="1" /><path clip-path="url(#clip720)" d="M120.922 1335.92 L125.807 1335.92 L125.807 1341.8 L120.922 1341.8 L120.922 1335.92 Z" fill="#000000" fill-rule="evenodd" fill-opacity="1" /><path clip-path="url(#clip720)" d="M140.019 1337.87 L156.339 1337.87 L156.339 1341.8 L134.394 1341.8 L134.394 1337.87 Q137.056 1335.11 141.64 1330.48 Q146.246 1325.83 147.427 1324.49 Q149.672 1321.96 150.552 1320.23 Q151.455 1318.47 151.455 1316.78 Q151.455 1314.02 149.51 1312.29 Q147.589 1310.55 144.487 1310.55 Q142.288 1310.55 139.834 1311.31 Q137.404 1312.08 134.626 1313.63 L134.626 1308.91 Q137.45 1307.77 139.904 1307.19 Q142.357 1306.62 144.394 1306.62 Q149.765 1306.62 152.959 1309.3 Q156.154 1311.99 156.154 1316.48 Q156.154 1318.61 155.343 1320.53 Q154.556 1322.43 152.45 1325.02 Q151.871 1325.69 148.769 1328.91 Q145.668 1332.1 140.019 1337.87 Z" fill="#000000" fill-rule="evenodd" fill-opacity="1" /><path clip-path="url(#clip720)" d="M99.1632 1143.03 Q95.5521 1143.03 93.7234 1146.59 Q91.9178 1150.13 91.9178 1157.26 Q91.9178 1164.37 93.7234 1167.94 Q95.5521 1171.48 99.1632 1171.48 Q102.797 1171.48 104.603 1167.94 Q106.432 1164.37 106.432 1157.26 Q106.432 1150.13 104.603 1146.59 Q102.797 1143.03 99.1632 1143.03 M99.1632 1139.32 Q104.973 1139.32 108.029 1143.93 Q111.108 1148.51 111.108 1157.26 Q111.108 1165.99 108.029 1170.6 Q104.973 1175.18 99.1632 1175.18 Q93.353 1175.18 90.2743 1170.6 Q87.2188 1165.99 87.2188 1157.26 Q87.2188 1148.51 90.2743 1143.93 Q93.353 1139.32 99.1632 1139.32 Z" fill="#000000" fill-rule="evenodd" fill-opacity="1" /><path clip-path="url(#clip720)" d="M119.325 1168.63 L124.209 1168.63 L124.209 1174.51 L119.325 1174.51 L119.325 1168.63 Z" fill="#000000" fill-rule="evenodd" fill-opacity="1" /><path clip-path="url(#clip720)" d="M144.394 1143.03 Q140.783 1143.03 138.955 1146.59 Q137.149 1150.13 137.149 1157.26 Q137.149 1164.37 138.955 1167.94 Q140.783 1171.48 144.394 1171.48 Q148.029 1171.48 149.834 1167.94 Q151.663 1164.37 151.663 1157.26 Q151.663 1150.13 149.834 1146.59 Q148.029 1143.03 144.394 1143.03 M144.394 1139.32 Q150.205 1139.32 153.26 1143.93 Q156.339 1148.51 156.339 1157.26 Q156.339 1165.99 153.26 1170.6 Q150.205 1175.18 144.394 1175.18 Q138.584 1175.18 135.506 1170.6 Q132.45 1165.99 132.45 1157.26 Q132.45 1148.51 135.506 1143.93 Q138.584 1139.32 144.394 1139.32 Z" fill="#000000" fill-rule="evenodd" fill-opacity="1" /><path clip-path="url(#clip720)" d="M100.76 975.737 Q97.1493 975.737 95.3206 979.302 Q93.515 982.844 93.515 989.973 Q93.515 997.08 95.3206 1000.64 Q97.1493 1004.19 100.76 1004.19 Q104.395 1004.19 106.2 1000.64 Q108.029 997.08 108.029 989.973 Q108.029 982.844 106.2 979.302 Q104.395 975.737 100.76 975.737 M100.76 972.034 Q106.571 972.034 109.626 976.64 Q112.705 981.223 112.705 989.973 Q112.705 998.7 109.626 1003.31 Q106.571 1007.89 100.76 1007.89 Q94.9502 1007.89 91.8715 1003.31 Q88.816 998.7 88.816 989.973 Q88.816 981.223 91.8715 976.64 Q94.9502 972.034 100.76 972.034 Z" fill="#000000" fill-rule="evenodd" fill-opacity="1" /><path clip-path="url(#clip720)" d="M120.922 1001.34 L125.807 1001.34 L125.807 1007.22 L120.922 1007.22 L120.922 1001.34 Z" fill="#000000" fill-rule="evenodd" fill-opacity="1" /><path clip-path="url(#clip720)" d="M140.019 1003.28 L156.339 1003.28 L156.339 1007.22 L134.394 1007.22 L134.394 1003.28 Q137.056 1000.53 141.64 995.899 Q146.246 991.246 147.427 989.904 Q149.672 987.381 150.552 985.645 Q151.455 983.885 151.455 982.195 Q151.455 979.441 149.51 977.705 Q147.589 975.969 144.487 975.969 Q142.288 975.969 139.834 976.733 Q137.404 977.496 134.626 979.047 L134.626 974.325 Q137.45 973.191 139.904 972.612 Q142.357 972.034 144.394 972.034 Q149.765 972.034 152.959 974.719 Q156.154 977.404 156.154 981.895 Q156.154 984.024 155.343 985.945 Q154.556 987.844 152.45 990.436 Q151.871 991.107 148.769 994.325 Q145.668 997.519 140.019 1003.28 Z" fill="#000000" fill-rule="evenodd" fill-opacity="1" /><path clip-path="url(#clip720)" d="M98.6771 808.446 Q95.066 808.446 93.2373 812.011 Q91.4317 815.553 91.4317 822.682 Q91.4317 829.789 93.2373 833.353 Q95.066 836.895 98.6771 836.895 Q102.311 836.895 104.117 833.353 Q105.946 829.789 105.946 822.682 Q105.946 815.553 104.117 812.011 Q102.311 808.446 98.6771 808.446 M98.6771 804.742 Q104.487 804.742 107.543 809.349 Q110.621 813.932 110.621 822.682 Q110.621 831.409 107.543 836.015 Q104.487 840.599 98.6771 840.599 Q92.8669 840.599 89.7882 836.015 Q86.7327 831.409 86.7327 822.682 Q86.7327 813.932 89.7882 809.349 Q92.8669 804.742 98.6771 804.742 Z" fill="#000000" fill-rule="evenodd" fill-opacity="1" /><path clip-path="url(#clip720)" d="M118.839 834.048 L123.723 834.048 L123.723 839.927 L118.839 839.927 L118.839 834.048 Z" fill="#000000" fill-rule="evenodd" fill-opacity="1" /><path clip-path="url(#clip720)" d="M146.756 809.441 L134.95 827.89 L146.756 827.89 L146.756 809.441 M145.529 805.367 L151.408 805.367 L151.408 827.89 L156.339 827.89 L156.339 831.779 L151.408 831.779 L151.408 839.927 L146.756 839.927 L146.756 831.779 L131.154 831.779 L131.154 827.265 L145.529 805.367 Z" fill="#000000" fill-rule="evenodd" fill-opacity="1" /><path clip-path="url(#clip720)" d="M99.0011 641.155 Q95.39 641.155 93.5613 644.72 Q91.7558 648.262 91.7558 655.391 Q91.7558 662.498 93.5613 666.062 Q95.39 669.604 99.0011 669.604 Q102.635 669.604 104.441 666.062 Q106.27 662.498 106.27 655.391 Q106.27 648.262 104.441 644.72 Q102.635 641.155 99.0011 641.155 M99.0011 637.451 Q104.811 637.451 107.867 642.058 Q110.946 646.641 110.946 655.391 Q110.946 664.118 107.867 668.724 Q104.811 673.308 99.0011 673.308 Q93.191 673.308 90.1123 668.724 Q87.0567 664.118 87.0567 655.391 Q87.0567 646.641 90.1123 642.058 Q93.191 637.451 99.0011 637.451 Z" fill="#000000" fill-rule="evenodd" fill-opacity="1" /><path clip-path="url(#clip720)" d="M119.163 666.757 L124.047 666.757 L124.047 672.636 L119.163 672.636 L119.163 666.757 Z" fill="#000000" fill-rule="evenodd" fill-opacity="1" /><path clip-path="url(#clip720)" d="M144.811 653.493 Q141.663 653.493 139.811 655.646 Q137.982 657.798 137.982 661.548 Q137.982 665.275 139.811 667.451 Q141.663 669.604 144.811 669.604 Q147.959 669.604 149.788 667.451 Q151.64 665.275 151.64 661.548 Q151.64 657.798 149.788 655.646 Q147.959 653.493 144.811 653.493 M154.093 638.84 L154.093 643.1 Q152.334 642.266 150.529 641.826 Q148.746 641.387 146.987 641.387 Q142.357 641.387 139.904 644.512 Q137.473 647.637 137.126 653.956 Q138.492 651.942 140.552 650.877 Q142.612 649.789 145.089 649.789 Q150.297 649.789 153.306 652.961 Q156.339 656.109 156.339 661.548 Q156.339 666.873 153.191 670.09 Q150.043 673.308 144.811 673.308 Q138.816 673.308 135.644 668.724 Q132.473 664.118 132.473 655.391 Q132.473 647.197 136.362 642.336 Q140.251 637.451 146.802 637.451 Q148.561 637.451 150.343 637.799 Q152.149 638.146 154.093 638.84 Z" fill="#000000" fill-rule="evenodd" fill-opacity="1" /><path clip-path="url(#clip720)" d="M99.2558 473.864 Q95.6447 473.864 93.816 477.429 Q92.0104 480.97 92.0104 488.1 Q92.0104 495.206 93.816 498.771 Q95.6447 502.313 99.2558 502.313 Q102.89 502.313 104.696 498.771 Q106.524 495.206 106.524 488.1 Q106.524 480.97 104.696 477.429 Q102.89 473.864 99.2558 473.864 M99.2558 470.16 Q105.066 470.16 108.121 474.767 Q111.2 479.35 111.2 488.1 Q111.2 496.827 108.121 501.433 Q105.066 506.017 99.2558 506.017 Q93.4456 506.017 90.3669 501.433 Q87.3114 496.827 87.3114 488.1 Q87.3114 479.35 90.3669 474.767 Q93.4456 470.16 99.2558 470.16 Z" fill="#000000" fill-rule="evenodd" fill-opacity="1" /><path clip-path="url(#clip720)" d="M119.418 499.466 L124.302 499.466 L124.302 505.345 L119.418 505.345 L119.418 499.466 Z" fill="#000000" fill-rule="evenodd" fill-opacity="1" /><path clip-path="url(#clip720)" d="M144.487 488.933 Q141.154 488.933 139.232 490.716 Q137.334 492.498 137.334 495.623 Q137.334 498.748 139.232 500.531 Q141.154 502.313 144.487 502.313 Q147.82 502.313 149.742 500.531 Q151.663 498.725 151.663 495.623 Q151.663 492.498 149.742 490.716 Q147.843 488.933 144.487 488.933 M139.811 486.943 Q136.802 486.202 135.112 484.142 Q133.445 482.082 133.445 479.119 Q133.445 474.975 136.385 472.568 Q139.348 470.16 144.487 470.16 Q149.649 470.16 152.589 472.568 Q155.529 474.975 155.529 479.119 Q155.529 482.082 153.839 484.142 Q152.172 486.202 149.186 486.943 Q152.566 487.73 154.441 490.021 Q156.339 492.313 156.339 495.623 Q156.339 500.646 153.26 503.331 Q150.205 506.017 144.487 506.017 Q138.769 506.017 135.691 503.331 Q132.635 500.646 132.635 495.623 Q132.635 492.313 134.533 490.021 Q136.431 487.73 139.811 486.943 M138.098 479.558 Q138.098 482.244 139.765 483.748 Q141.455 485.253 144.487 485.253 Q147.496 485.253 149.186 483.748 Q150.899 482.244 150.899 479.558 Q150.899 476.873 149.186 475.369 Q147.496 473.864 144.487 473.864 Q141.455 473.864 139.765 475.369 Q138.098 476.873 138.098 479.558 Z" fill="#000000" fill-rule="evenodd" fill-opacity="1" /><path clip-path="url(#clip720)" d="M89.9734 334.119 L97.6122 334.119 L97.6122 307.754 L89.3021 309.42 L89.3021 305.161 L97.566 303.494 L102.242 303.494 L102.242 334.119 L109.881 334.119 L109.881 338.054 L89.9734 338.054 L89.9734 334.119 Z" fill="#000000" fill-rule="evenodd" fill-opacity="1" /><path clip-path="url(#clip720)" d="M119.325 332.175 L124.209 332.175 L124.209 338.054 L119.325 338.054 L119.325 332.175 Z" fill="#000000" fill-rule="evenodd" fill-opacity="1" /><path clip-path="url(#clip720)" d="M144.394 306.573 Q140.783 306.573 138.955 310.138 Q137.149 313.679 137.149 320.809 Q137.149 327.915 138.955 331.48 Q140.783 335.022 144.394 335.022 Q148.029 335.022 149.834 331.48 Q151.663 327.915 151.663 320.809 Q151.663 313.679 149.834 310.138 Q148.029 306.573 144.394 306.573 M144.394 302.869 Q150.205 302.869 153.26 307.476 Q156.339 312.059 156.339 320.809 Q156.339 329.536 153.26 334.142 Q150.205 338.726 144.394 338.726 Q138.584 338.726 135.506 334.142 Q132.45 329.536 132.45 320.809 Q132.45 312.059 135.506 307.476 Q138.584 302.869 144.394 302.869 Z" fill="#000000" fill-rule="evenodd" fill-opacity="1" /><path clip-path="url(#clip720)" d="M91.5706 166.828 L99.2095 166.828 L99.2095 140.462 L90.8993 142.129 L90.8993 137.87 L99.1632 136.203 L103.839 136.203 L103.839 166.828 L111.478 166.828 L111.478 170.763 L91.5706 170.763 L91.5706 166.828 Z" fill="#000000" fill-rule="evenodd" fill-opacity="1" /><path clip-path="url(#clip720)" d="M120.922 164.884 L125.807 164.884 L125.807 170.763 L120.922 170.763 L120.922 164.884 Z" fill="#000000" fill-rule="evenodd" fill-opacity="1" /><path clip-path="url(#clip720)" d="M140.019 166.828 L156.339 166.828 L156.339 170.763 L134.394 170.763 L134.394 166.828 Q137.056 164.073 141.64 159.444 Q146.246 154.791 147.427 153.448 Q149.672 150.925 150.552 149.189 Q151.455 147.43 151.455 145.74 Q151.455 142.986 149.51 141.249 Q147.589 139.513 144.487 139.513 Q142.288 139.513 139.834 140.277 Q137.404 141.041 134.626 142.592 L134.626 137.87 Q137.45 136.736 139.904 136.157 Q142.357 135.578 144.394 135.578 Q149.765 135.578 152.959 138.263 Q156.154 140.949 156.154 145.439 Q156.154 147.569 155.343 149.49 Q154.556 151.388 152.45 153.981 Q151.871 154.652 148.769 157.87 Q145.668 161.064 140.019 166.828 Z" fill="#000000" fill-rule="evenodd" fill-opacity="1" /><polyline clip-path="url(#clip722)" style="stroke:#009af9; stroke-linecap:round; stroke-linejoin:round; stroke-width:16; stroke-opacity:1; fill:none" stroke-dasharray="8, 16" points="253.483,1031.6 263.725,1035.13 273.966,1025.76 284.208,1008.11 294.45,990.778 304.692,983.131 314.934,989.503 325.176,1007.48 335.418,1031.5 345.659,1057.22 355.901,1083.12 366.143,1109.57 376.385,1137.29 386.627,1166.36 396.869,1196.03 407.111,1225.01 417.352,1251.9 427.594,1275.52 437.836,1295.03 448.078,1309.85 458.32,1319.63 468.562,1324.12 478.803,1323.23 489.045,1316.99 499.287,1305.6 509.529,1289.4 519.771,1268.88 530.013,1244.68 540.255,1217.56 550.497,1188.43 560.738,1158.25 570.98,1128.08 581.222,1098.94 591.464,1071.77 601.706,1047.42 611.948,1026.59 622.19,1009.89 632.431,997.873 642.673,991.006 652.915,989.685 663.157,994.124 673.399,1004.22 683.641,1019.45 693.882,1038.89 704.124,1061.46 714.366,1086.29 724.608,1113.12 734.85,1142.15 745.092,1173.39 755.334,1205.76 765.575,1236.76 775.817,1263.39 786.059,1283.82 796.301,1298.32 806.543,1308.58 816.785,1316.15 827.027,1321.28 837.268,1322.82 847.51,1318.78 857.752,1307.3 867.994,1287.88 878.236,1262.3 888.478,1234.05 898.72,1206.06 908.961,1178.69 919.203,1150.22 929.445,1119.3 939.687,1087.45 949.929,1059.44 960.171,1040.92 970.413,1033.81 980.654,1032.09 990.896,1022.55 1001.14,994.336 1011.38,946.456 1021.62,897.032 1031.86,901.552 1042.11,1006.32 1052.35,1078.25 1062.59,1050.24 1072.83,1064.55 1083.07,1115.23 1093.31,1179.94 1103.56,1222.39 1113.8,1235.07 1124.04,1240.65 1134.28,1284.77 1144.52,1382.74 1154.77,1445.72 1165.01,1361.81 1175.25,1257.36 1185.49,1230.7 1195.73,1248.55 1205.98,1287.17 1216.22,1332.28 1226.46,1355.56 1236.7,1341.79 1246.94,1274.56 1257.18,1129.17 1267.43,898.528 1277.67,625.072 1287.91,396.24 1298.15,277.485 1308.39,257.72 1318.64,285.725 1328.88,321.926 1339.12,339.037 1349.36,319.771 1359.6,282.397 1369.84,277.295 1380.09,320.945 1390.33,365.225 1400.57,350.152 1410.81,288.801 1421.05,336.862 1431.3,354.023 1441.54,290.339 1451.78,300.311 1462.02,367.366 1472.26,274.888 1482.51,150.059 1492.75,227.949 1502.99,273.733 1513.23,309.104 1523.47,364.6 1533.71,367.326 1543.96,330 1554.2,320.351 1564.44,343.138 1574.68,368.55 1584.92,372.589 1595.17,345.41 1605.41,297.679 1615.65,253.742 1625.89,234.356 1636.13,245.81 1646.38,280.512 1656.62,324.767 1666.86,366.044 1677.1,395.6 1687.34,407.92 1697.58,399.764 1707.83,370.349 1718.07,323.035 1728.31,267.784 1738.55,221.793 1748.79,204.449 1759.04,226.39 1769.28,281.013 1779.52,347.933 1789.76,405.215 1800,438.42 1810.24,441.552 1820.49,413.777 1830.73,357.057 1840.97,278.792 1851.21,199.996 1861.45,155.623 1871.7,171.635 1881.94,240.751 1892.18,330.295 1902.42,408.261 1912.66,456.864 1922.91,470.449 1933.15,449.56 1943.39,397.952 1953.63,323.336 1963.87,240.334 1974.11,171.875 1984.36,143.263 1994.6,168.648 2004.84,240.903 2015.08,335.816 2025.32,425.97 2035.57,490.06 2045.81,512.296 2056.05,481.237 2066.29,398.172 2076.53,286.729 2086.77,186.014 2097.02,130.55 2107.26,132.994 2117.5,183.736 2127.74,268.104 2137.98,373.677 2148.23,476.75 2158.47,537.882 2168.71,524.903 2178.95,437.978 2189.19,312.337 2199.44,198.985 2209.68,136.307 2219.92,133.622 2230.16,176.616 2240.4,243.227 2250.64,315.405 2260.89,382.683 2271.13,440.817 2281.37,489.203 2291.61,528.873 "/>
<polyline clip-path="url(#clip722)" style="stroke:#e26f46; stroke-linecap:round; stroke-linejoin:round; stroke-width:4; stroke-opacity:1; fill:none" points="253.483,1031.6 263.725,1013.77 273.966,1000.63 284.208,992.597 294.45,989.939 304.692,992.74 314.934,1000.91 325.176,1014.18 335.418,1032.12 345.659,1054.15 355.901,1079.53 366.143,1107.46 376.385,1137.01 386.627,1167.21 396.869,1197.1 407.111,1225.68 417.352,1252.03 427.594,1275.28 437.836,1294.68 448.078,1309.59 458.32,1319.54 468.562,1324.18 478.803,1323.38 489.045,1317.15 499.287,1305.7 509.529,1289.41 519.771,1268.8 530.013,1244.56 540.255,1217.46 550.497,1188.4 560.738,1158.32 570.98,1128.2 581.222,1099.03 591.464,1071.76 601.706,1047.28 611.948,1026.39 622.19,1009.77 632.431,997.962 642.673,991.351 652.915,990.155 663.157,994.411 673.399,1003.98 683.641,1018.55 693.882,1037.65 704.124,1060.65 714.366,1086.8 724.608,1115.26 734.85,1145.08 745.092,1175.29 755.334,1204.92 765.575,1232.99 775.817,1258.59 786.059,1280.88 796.301,1299.14 806.543,1312.76 816.785,1321.31 827.027,1324.5 837.268,1322.23 847.51,1314.58 857.752,1301.79 867.994,1284.29 878.236,1262.63 888.478,1237.54 898.72,1209.83 908.961,1180.4 919.203,1150.21 929.445,1120.25 939.687,1091.5 949.929,1064.89 960.171,1041.3 970.413,1021.49 980.654,1006.12 990.896,995.669 1001.14,990.495 1011.38,990.763 1021.62,996.464 1031.86,1007.41 1042.11,1023.25 1052.35,1043.46 1062.59,1067.38 1072.83,1094.24 1083.07,1123.15 1093.31,1153.18 1103.56,1183.33 1113.8,1212.64 1124.04,1240.13 1134.28,1264.92 1144.52,1286.2 1154.77,1303.26 1165.01,1315.56 1175.25,1322.7 1185.49,1324.43 1195.73,1320.7 1205.98,1311.64 1216.22,1297.54 1226.46,1278.86 1236.7,1256.22 1246.94,1230.34 1257.18,1202.07 1267.43,1172.34 1277.67,319.559 1287.91,318.177 1298.15,319.435 1308.39,323.624 1318.64,329.459 1328.88,334.475 1339.12,335.961 1349.36,332.101 1359.6,322.9 1369.84,310.496 1380.09,298.692 1390.33,291.797 1400.57,293.12 1410.81,303.64 1421.05,321.336 1431.3,341.475 1441.54,357.875 1451.78,364.792 1462.02,358.871 1472.26,340.497 1482.51,314.069 1492.75,286.985 1502.99,267.574 1513.23,262.545 1523.47,274.736 1533.71,301.894 1543.96,336.968 1554.2,369.916 1564.44,390.58 1574.68,391.804 1584.92,371.84 1595.17,335.253 1605.41,291.944 1615.65,254.481 1625.89,234.455 1636.13,238.908 1646.38,267.942 1656.62,314.292 1666.86,365.104 1677.1,405.494 1687.34,422.908 1697.58,411 1707.83,371.843 1718.07,315.719 1728.31,258.446 1738.55,216.919 1748.79,204.129 1759.04,225.13 1769.28,275.186 1779.52,340.76 1789.76,403.162 1800,443.874 1810.24,450.041 1820.49,418.495 1830.73,357.07 1840.97,282.702 1851.21,216.769 1861.45,178.943 1871.7,181.335 1881.94,224.649 1892.18,297.588 1902.42,379.765 1912.66,447.399 1922.91,480.194 1933.15,467.424 1943.39,411.382 1953.63,327.123 1963.87,238.437 1974.11,171.132 1984.36,145.53 1994.6,170.341 2004.84,239.771 2015.08,334.807 2025.32,428.408 2035.57,493.198 2045.81,509.472 2056.05,471.169 2066.29,388.015 2076.53,283.09 2086.77,186.438 2097.02,126.458 2107.26,121.565 2117.5,174.563 2127.74,271.431 2137.98,385.013 2148.23,482.618 2158.47,535.433 2168.71,527.024 2178.95,458.417 2189.19,348.203 2199.44,227.522 2209.68,131.261 2219.92,87.9763 2230.16,111.425 2240.4,196.236 2250.64,319.057 2260.89,444.976 2271.13,537.443 2281.37,568.876 2291.61,528.878 "/>
<path clip-path="url(#clip720)" d="M264.353 250.738 L707.222 250.738 L707.222 95.2176 L264.353 95.2176  Z" fill="#ffffff" fill-rule="evenodd" fill-opacity="1"/>
<polyline clip-path="url(#clip720)" style="stroke:#000000; stroke-linecap:round; stroke-linejoin:round; stroke-width:4; stroke-opacity:1; fill:none" points="264.353,250.738 707.222,250.738 707.222,95.2176 264.353,95.2176 264.353,250.738 "/>
<polyline clip-path="url(#clip720)" style="stroke:#009af9; stroke-linecap:round; stroke-linejoin:round; stroke-width:16; stroke-opacity:1; fill:none" stroke-dasharray="8, 16" points="288.357,147.058 432.385,147.058 "/>
<path clip-path="url(#clip720)" d="M461.066 133.62 L461.066 146.606 L466.945 146.606 Q470.209 146.606 471.992 144.916 Q473.774 143.227 473.774 140.102 Q473.774 137 471.992 135.31 Q470.209 133.62 466.945 133.62 L461.066 133.62 M456.39 129.778 L466.945 129.778 Q472.755 129.778 475.718 132.416 Q478.704 135.032 478.704 140.102 Q478.704 145.217 475.718 147.833 Q472.755 150.449 466.945 150.449 L461.066 150.449 L461.066 164.338 L456.39 164.338 L456.39 129.778 Z" fill="#000000" fill-rule="evenodd" fill-opacity="1" /><path clip-path="url(#clip720)" d="M498.982 142.393 Q498.265 141.977 497.408 141.791 Q496.575 141.583 495.556 141.583 Q491.945 141.583 490.001 143.944 Q488.079 146.282 488.079 150.68 L488.079 164.338 L483.797 164.338 L483.797 138.412 L488.079 138.412 L488.079 142.44 Q489.422 140.078 491.575 138.944 Q493.728 137.787 496.806 137.787 Q497.246 137.787 497.778 137.856 Q498.311 137.903 498.959 138.018 L498.982 142.393 Z" fill="#000000" fill-rule="evenodd" fill-opacity="1" /><path clip-path="url(#clip720)" d="M524.584 150.31 L524.584 152.393 L505.001 152.393 Q505.278 156.791 507.639 159.106 Q510.024 161.398 514.26 161.398 Q516.714 161.398 519.005 160.796 Q521.32 160.194 523.588 158.99 L523.588 163.018 Q521.297 163.99 518.889 164.5 Q516.482 165.009 514.005 165.009 Q507.802 165.009 504.167 161.398 Q500.556 157.787 500.556 151.629 Q500.556 145.264 503.982 141.537 Q507.431 137.787 513.264 137.787 Q518.496 137.787 521.528 141.166 Q524.584 144.523 524.584 150.31 M520.325 149.06 Q520.278 145.565 518.357 143.481 Q516.459 141.398 513.311 141.398 Q509.746 141.398 507.593 143.412 Q505.464 145.426 505.14 149.083 L520.325 149.06 Z" fill="#000000" fill-rule="evenodd" fill-opacity="1" /><path clip-path="url(#clip720)" d="M548.635 142.347 L548.635 128.319 L552.894 128.319 L552.894 164.338 L548.635 164.338 L548.635 160.449 Q547.292 162.763 545.232 163.898 Q543.195 165.009 540.325 165.009 Q535.625 165.009 532.663 161.259 Q529.723 157.509 529.723 151.398 Q529.723 145.287 532.663 141.537 Q535.625 137.787 540.325 137.787 Q543.195 137.787 545.232 138.921 Q547.292 140.032 548.635 142.347 M534.121 151.398 Q534.121 156.097 536.042 158.782 Q537.987 161.444 541.366 161.444 Q544.746 161.444 546.69 158.782 Q548.635 156.097 548.635 151.398 Q548.635 146.699 546.69 144.037 Q544.746 141.352 541.366 141.352 Q537.987 141.352 536.042 144.037 Q534.121 146.699 534.121 151.398 Z" fill="#000000" fill-rule="evenodd" fill-opacity="1" /><path clip-path="url(#clip720)" d="M561.667 138.412 L565.926 138.412 L565.926 164.338 L561.667 164.338 L561.667 138.412 M561.667 128.319 L565.926 128.319 L565.926 133.713 L561.667 133.713 L561.667 128.319 Z" fill="#000000" fill-rule="evenodd" fill-opacity="1" /><path clip-path="url(#clip720)" d="M593.496 139.407 L593.496 143.389 Q591.69 142.393 589.861 141.907 Q588.056 141.398 586.204 141.398 Q582.06 141.398 579.769 144.037 Q577.477 146.652 577.477 151.398 Q577.477 156.143 579.769 158.782 Q582.06 161.398 586.204 161.398 Q588.056 161.398 589.861 160.912 Q591.69 160.402 593.496 159.407 L593.496 163.342 Q591.713 164.176 589.792 164.592 Q587.894 165.009 585.741 165.009 Q579.884 165.009 576.435 161.328 Q572.986 157.648 572.986 151.398 Q572.986 145.055 576.459 141.421 Q579.954 137.787 586.019 137.787 Q587.986 137.787 589.861 138.203 Q591.736 138.597 593.496 139.407 Z" fill="#000000" fill-rule="evenodd" fill-opacity="1" /><path clip-path="url(#clip720)" d="M605.116 131.051 L605.116 138.412 L613.889 138.412 L613.889 141.722 L605.116 141.722 L605.116 155.796 Q605.116 158.967 605.972 159.87 Q606.852 160.773 609.514 160.773 L613.889 160.773 L613.889 164.338 L609.514 164.338 Q604.583 164.338 602.708 162.509 Q600.833 160.657 600.833 155.796 L600.833 141.722 L597.708 141.722 L597.708 138.412 L600.833 138.412 L600.833 131.051 L605.116 131.051 Z" fill="#000000" fill-rule="evenodd" fill-opacity="1" /><path clip-path="url(#clip720)" d="M619.491 138.412 L623.75 138.412 L623.75 164.338 L619.491 164.338 L619.491 138.412 M619.491 128.319 L623.75 128.319 L623.75 133.713 L619.491 133.713 L619.491 128.319 Z" fill="#000000" fill-rule="evenodd" fill-opacity="1" /><path clip-path="url(#clip720)" d="M642.708 141.398 Q639.282 141.398 637.292 144.083 Q635.301 146.745 635.301 151.398 Q635.301 156.051 637.268 158.736 Q639.259 161.398 642.708 161.398 Q646.111 161.398 648.102 158.713 Q650.092 156.027 650.092 151.398 Q650.092 146.791 648.102 144.106 Q646.111 141.398 642.708 141.398 M642.708 137.787 Q648.264 137.787 651.435 141.398 Q654.606 145.009 654.606 151.398 Q654.606 157.764 651.435 161.398 Q648.264 165.009 642.708 165.009 Q637.13 165.009 633.958 161.398 Q630.81 157.764 630.81 151.398 Q630.81 145.009 633.958 141.398 Q637.13 137.787 642.708 137.787 Z" fill="#000000" fill-rule="evenodd" fill-opacity="1" /><path clip-path="url(#clip720)" d="M683.217 148.689 L683.217 164.338 L678.958 164.338 L678.958 148.828 Q678.958 145.148 677.523 143.319 Q676.088 141.49 673.217 141.49 Q669.768 141.49 667.778 143.69 Q665.787 145.889 665.787 149.685 L665.787 164.338 L661.504 164.338 L661.504 138.412 L665.787 138.412 L665.787 142.44 Q667.315 140.102 669.375 138.944 Q671.458 137.787 674.166 137.787 Q678.634 137.787 680.926 140.565 Q683.217 143.319 683.217 148.689 Z" fill="#000000" fill-rule="evenodd" fill-opacity="1" /><polyline clip-path="url(#clip720)" style="stroke:#e26f46; stroke-linecap:round; stroke-linejoin:round; stroke-width:4; stroke-opacity:1; fill:none" points="288.357,198.898 432.385,198.898 "/>
<path clip-path="url(#clip720)" d="M456.39 181.618 L478.242 181.618 L478.242 185.553 L461.066 185.553 L461.066 195.784 L477.524 195.784 L477.524 199.719 L461.066 199.719 L461.066 212.242 L478.658 212.242 L478.658 216.178 L456.39 216.178 L456.39 181.618 Z" fill="#000000" fill-rule="evenodd" fill-opacity="1" /><path clip-path="url(#clip720)" d="M507.709 190.252 L498.334 202.867 L508.195 216.178 L503.172 216.178 L495.626 205.992 L488.079 216.178 L483.056 216.178 L493.126 202.613 L483.913 190.252 L488.936 190.252 L495.811 199.488 L502.686 190.252 L507.709 190.252 Z" fill="#000000" fill-rule="evenodd" fill-opacity="1" /><path clip-path="url(#clip720)" d="M525.996 203.145 Q520.834 203.145 518.843 204.326 Q516.852 205.506 516.852 208.354 Q516.852 210.622 518.334 211.965 Q519.838 213.284 522.408 213.284 Q525.95 213.284 528.079 210.784 Q530.232 208.261 530.232 204.094 L530.232 203.145 L525.996 203.145 M534.491 201.386 L534.491 216.178 L530.232 216.178 L530.232 212.242 Q528.774 214.603 526.598 215.738 Q524.422 216.849 521.274 216.849 Q517.292 216.849 514.931 214.627 Q512.593 212.381 512.593 208.631 Q512.593 204.256 515.51 202.034 Q518.45 199.812 524.26 199.812 L530.232 199.812 L530.232 199.395 Q530.232 196.455 528.288 194.858 Q526.366 193.238 522.871 193.238 Q520.649 193.238 518.542 193.77 Q516.436 194.303 514.491 195.367 L514.491 191.432 Q516.829 190.53 519.028 190.09 Q521.227 189.627 523.311 189.627 Q528.936 189.627 531.713 192.543 Q534.491 195.46 534.491 201.386 Z" fill="#000000" fill-rule="evenodd" fill-opacity="1" /><path clip-path="url(#clip720)" d="M561.922 191.247 L561.922 195.229 Q560.116 194.233 558.287 193.747 Q556.482 193.238 554.63 193.238 Q550.486 193.238 548.195 195.877 Q545.903 198.492 545.903 203.238 Q545.903 207.983 548.195 210.622 Q550.486 213.238 554.63 213.238 Q556.482 213.238 558.287 212.752 Q560.116 212.242 561.922 211.247 L561.922 215.182 Q560.139 216.016 558.218 216.432 Q556.32 216.849 554.167 216.849 Q548.311 216.849 544.862 213.168 Q541.412 209.488 541.412 203.238 Q541.412 196.895 544.885 193.261 Q548.38 189.627 554.445 189.627 Q556.412 189.627 558.287 190.043 Q560.162 190.437 561.922 191.247 Z" fill="#000000" fill-rule="evenodd" fill-opacity="1" /><path clip-path="url(#clip720)" d="M573.542 182.891 L573.542 190.252 L582.315 190.252 L582.315 193.562 L573.542 193.562 L573.542 207.636 Q573.542 210.807 574.398 211.71 Q575.278 212.613 577.94 212.613 L582.315 212.613 L582.315 216.178 L577.94 216.178 Q573.01 216.178 571.135 214.349 Q569.26 212.497 569.26 207.636 L569.26 193.562 L566.135 193.562 L566.135 190.252 L569.26 190.252 L569.26 182.891 L573.542 182.891 Z" fill="#000000" fill-rule="evenodd" fill-opacity="1" /></svg>
