<?xml version="1.0" encoding="utf-8"?>
<svg xmlns="http://www.w3.org/2000/svg" xmlns:xlink="http://www.w3.org/1999/xlink" width="600" height="400" viewBox="0 0 2400 1600">
<defs>
  <clipPath id="clip750">
    <rect x="0" y="0" width="2400" height="1600"/>
  </clipPath>
</defs>
<path clip-path="url(#clip750)" d="M0 1600 L2400 1600 L2400 0 L0 0  Z" fill="#ffffff" fill-rule="evenodd" fill-opacity="1"/>
<defs>
  <clipPath id="clip751">
    <rect x="480" y="0" width="1681" height="1600"/>
  </clipPath>
</defs>
<path clip-path="url(#clip750)" d="M192.339 1486.45 L2352.76 1486.45 L2352.76 47.2441 L192.339 47.2441  Z" fill="#ffffff" fill-rule="evenodd" fill-opacity="1"/>
<defs>
  <clipPath id="clip752">
    <rect x="192" y="47" width="2161" height="1440"/>
  </clipPath>
</defs>
<polyline clip-path="url(#clip752)" style="stroke:#000000; stroke-linecap:round; stroke-linejoin:round; stroke-width:2; stroke-opacity:0.1; fill:none" points="253.483,1486.45 253.483,47.2441 "/>
<polyline clip-path="url(#clip752)" style="stroke:#000000; stroke-linecap:round; stroke-linejoin:round; stroke-width:2; stroke-opacity:0.1; fill:none" points="763.015,1486.45 763.015,47.2441 "/>
<polyline clip-path="url(#clip752)" style="stroke:#000000; stroke-linecap:round; stroke-linejoin:round; stroke-width:2; stroke-opacity:0.1; fill:none" points="1272.55,1486.45 1272.55,47.2441 "/>
<polyline clip-path="url(#clip752)" style="stroke:#000000; stroke-linecap:round; stroke-linejoin:round; stroke-width:2; stroke-opacity:0.1; fill:none" points="1782.08,1486.45 1782.08,47.2441 "/>
<polyline clip-path="url(#clip752)" style="stroke:#000000; stroke-linecap:round; stroke-linejoin:round; stroke-width:2; stroke-opacity:0.1; fill:none" points="2291.61,1486.45 2291.61,47.2441 "/>
<polyline clip-path="url(#clip750)" style="stroke:#000000; stroke-linecap:round; stroke-linejoin:round; stroke-width:4; stroke-opacity:1; fill:none" points="192.339,1486.45 2352.76,1486.45 "/>
<polyline clip-path="url(#clip750)" style="stroke:#000000; stroke-linecap:round; stroke-linejoin:round; stroke-width:4; stroke-opacity:1; fill:none" points="253.483,1486.45 253.483,1467.55 "/>
<polyline clip-path="url(#clip750)" style="stroke:#000000; stroke-linecap:round; stroke-linejoin:round; stroke-width:4; stroke-opacity:1; fill:none" points="763.015,1486.45 763.015,1467.55 "/>
<polyline clip-path="url(#clip750)" style="stroke:#000000; stroke-linecap:round; stroke-linejoin:round; stroke-width:4; stroke-opacity:1; fill:none" points="1272.55,1486.45 1272.55,1467.55 "/>
<polyline clip-path="url(#clip750)" style="stroke:#000000; stroke-linecap:round; stroke-linejoin:round; stroke-width:4; stroke-opacity:1; fill:none" points="1782.08,1486.45 1782.08,1467.55 "/>
<polyline clip-path="url(#clip750)" style="stroke:#000000; stroke-linecap:round; stroke-linejoin:round; stroke-width:4; stroke-opacity:1; fill:none" points="2291.61,1486.45 2291.61,1467.55 "/>
<path clip-path="url(#clip750)" d="M200.011 1532.02 L229.686 1532.02 L229.686 1535.95 L200.011 1535.95 L200.011 1532.02 Z" fill="#000000" fill-rule="evenodd" fill-opacity="1" /><path clip-path="url(#clip750)" d="M240.589 1544.91 L248.228 1544.91 L248.228 1518.55 L239.918 1520.21 L239.918 1515.95 L248.182 1514.29 L252.858 1514.29 L252.858 1544.91 L260.497 1544.91 L260.497 1548.85 L240.589 1548.85 L240.589 1544.91 Z" fill="#000000" fill-rule="evenodd" fill-opacity="1" /><path clip-path="url(#clip750)" d="M269.941 1542.97 L274.825 1542.97 L274.825 1548.85 L269.941 1548.85 L269.941 1542.97 Z" fill="#000000" fill-rule="evenodd" fill-opacity="1" /><path clip-path="url(#clip750)" d="M295.01 1517.37 Q291.399 1517.37 289.57 1520.93 Q287.765 1524.47 287.765 1531.6 Q287.765 1538.71 289.57 1542.27 Q291.399 1545.82 295.01 1545.82 Q298.644 1545.82 300.45 1542.27 Q302.279 1538.71 302.279 1531.6 Q302.279 1524.47 300.45 1520.93 Q298.644 1517.37 295.01 1517.37 M295.01 1513.66 Q300.82 1513.66 303.876 1518.27 Q306.955 1522.85 306.955 1531.6 Q306.955 1540.33 303.876 1544.94 Q300.82 1549.52 295.01 1549.52 Q289.2 1549.52 286.121 1544.94 Q283.066 1540.33 283.066 1531.6 Q283.066 1522.85 286.121 1518.27 Q289.2 1513.66 295.01 1513.66 Z" fill="#000000" fill-rule="evenodd" fill-opacity="1" /><path clip-path="url(#clip750)" d="M710.041 1532.02 L739.717 1532.02 L739.717 1535.95 L710.041 1535.95 L710.041 1532.02 Z" fill="#000000" fill-rule="evenodd" fill-opacity="1" /><path clip-path="url(#clip750)" d="M759.809 1517.37 Q756.198 1517.37 754.369 1520.93 Q752.564 1524.47 752.564 1531.6 Q752.564 1538.71 754.369 1542.27 Q756.198 1545.82 759.809 1545.82 Q763.443 1545.82 765.249 1542.27 Q767.077 1538.71 767.077 1531.6 Q767.077 1524.47 765.249 1520.93 Q763.443 1517.37 759.809 1517.37 M759.809 1513.66 Q765.619 1513.66 768.675 1518.27 Q771.753 1522.85 771.753 1531.6 Q771.753 1540.33 768.675 1544.94 Q765.619 1549.52 759.809 1549.52 Q753.999 1549.52 750.92 1544.94 Q747.865 1540.33 747.865 1531.6 Q747.865 1522.85 750.92 1518.27 Q753.999 1513.66 759.809 1513.66 Z" fill="#000000" fill-rule="evenodd" fill-opacity="1" /><path clip-path="url(#clip750)" d="M779.971 1542.97 L784.855 1542.97 L784.855 1548.85 L779.971 1548.85 L779.971 1542.97 Z" fill="#000000" fill-rule="evenodd" fill-opacity="1" /><path clip-path="url(#clip750)" d="M795.087 1514.29 L813.443 1514.29 L813.443 1518.22 L799.369 1518.22 L799.369 1526.7 Q800.387 1526.35 801.406 1526.19 Q802.425 1526 803.443 1526 Q809.23 1526 812.61 1529.17 Q815.989 1532.34 815.989 1537.76 Q815.989 1543.34 812.517 1546.44 Q809.045 1549.52 802.725 1549.52 Q800.55 1549.52 798.281 1549.15 Q796.036 1548.78 793.628 1548.04 L793.628 1543.34 Q795.712 1544.47 797.934 1545.03 Q800.156 1545.58 802.633 1545.58 Q806.637 1545.58 808.975 1543.48 Q811.313 1541.37 811.313 1537.76 Q811.313 1534.15 808.975 1532.04 Q806.637 1529.94 802.633 1529.94 Q800.758 1529.94 798.883 1530.35 Q797.031 1530.77 795.087 1531.65 L795.087 1514.29 Z" fill="#000000" fill-rule="evenodd" fill-opacity="1" /><path clip-path="url(#clip750)" d="M1249.93 1517.37 Q1246.32 1517.37 1244.49 1520.93 Q1242.69 1524.47 1242.69 1531.6 Q1242.69 1538.71 1244.49 1542.27 Q1246.32 1545.82 1249.93 1545.82 Q1253.57 1545.82 1255.37 1542.27 Q1257.2 1538.71 1257.2 1531.6 Q1257.2 1524.47 1255.37 1520.93 Q1253.57 1517.37 1249.93 1517.37 M1249.93 1513.66 Q1255.74 1513.66 1258.8 1518.27 Q1261.88 1522.85 1261.88 1531.6 Q1261.88 1540.33 1258.8 1544.94 Q1255.74 1549.52 1249.93 1549.52 Q1244.12 1549.52 1241.04 1544.94 Q1237.99 1540.33 1237.99 1531.6 Q1237.99 1522.85 1241.04 1518.27 Q1244.12 1513.66 1249.93 1513.66 Z" fill="#000000" fill-rule="evenodd" fill-opacity="1" /><path clip-path="url(#clip750)" d="M1270.09 1542.97 L1274.98 1542.97 L1274.98 1548.85 L1270.09 1548.85 L1270.09 1542.97 Z" fill="#000000" fill-rule="evenodd" fill-opacity="1" /><path clip-path="url(#clip750)" d="M1295.16 1517.37 Q1291.55 1517.37 1289.72 1520.93 Q1287.92 1524.47 1287.92 1531.6 Q1287.92 1538.71 1289.72 1542.27 Q1291.55 1545.82 1295.16 1545.82 Q1298.8 1545.82 1300.6 1542.27 Q1302.43 1538.71 1302.43 1531.6 Q1302.43 1524.47 1300.6 1520.93 Q1298.8 1517.37 1295.16 1517.37 M1295.16 1513.66 Q1300.97 1513.66 1304.03 1518.27 Q1307.11 1522.85 1307.11 1531.6 Q1307.11 1540.33 1304.03 1544.94 Q1300.97 1549.52 1295.16 1549.52 Q1289.35 1549.52 1286.27 1544.94 Q1283.22 1540.33 1283.22 1531.6 Q1283.22 1522.85 1286.27 1518.27 Q1289.35 1513.66 1295.16 1513.66 Z" fill="#000000" fill-rule="evenodd" fill-opacity="1" /><path clip-path="url(#clip750)" d="M1759.96 1517.37 Q1756.35 1517.37 1754.52 1520.93 Q1752.72 1524.47 1752.72 1531.6 Q1752.72 1538.71 1754.52 1542.27 Q1756.35 1545.82 1759.96 1545.82 Q1763.6 1545.82 1765.4 1542.27 Q1767.23 1538.71 1767.23 1531.6 Q1767.23 1524.47 1765.4 1520.93 Q1763.6 1517.37 1759.96 1517.37 M1759.96 1513.66 Q1765.77 1513.66 1768.83 1518.27 Q1771.91 1522.85 1771.91 1531.6 Q1771.91 1540.33 1768.83 1544.94 Q1765.77 1549.52 1759.96 1549.52 Q1754.15 1549.52 1751.07 1544.94 Q1748.02 1540.33 1748.02 1531.6 Q1748.02 1522.85 1751.07 1518.27 Q1754.15 1513.66 1759.96 1513.66 Z" fill="#000000" fill-rule="evenodd" fill-opacity="1" /><path clip-path="url(#clip750)" d="M1780.12 1542.97 L1785.01 1542.97 L1785.01 1548.85 L1780.12 1548.85 L1780.12 1542.97 Z" fill="#000000" fill-rule="evenodd" fill-opacity="1" /><path clip-path="url(#clip750)" d="M1795.24 1514.29 L1813.6 1514.29 L1813.6 1518.22 L1799.52 1518.22 L1799.52 1526.7 Q1800.54 1526.35 1801.56 1526.19 Q1802.58 1526 1803.6 1526 Q1809.38 1526 1812.76 1529.17 Q1816.14 1532.34 1816.14 1537.76 Q1816.14 1543.34 1812.67 1546.44 Q1809.2 1549.52 1802.88 1549.52 Q1800.7 1549.52 1798.43 1549.15 Q1796.19 1548.78 1793.78 1548.04 L1793.78 1543.34 Q1795.86 1544.47 1798.09 1545.03 Q1800.31 1545.58 1802.79 1545.58 Q1806.79 1545.58 1809.13 1543.48 Q1811.47 1541.37 1811.47 1537.76 Q1811.47 1534.15 1809.13 1532.04 Q1806.79 1529.94 1802.79 1529.94 Q1800.91 1529.94 1799.04 1530.35 Q1797.18 1530.77 1795.24 1531.65 L1795.24 1514.29 Z" fill="#000000" fill-rule="evenodd" fill-opacity="1" /><path clip-path="url(#clip750)" d="M2258.76 1544.91 L2266.4 1544.91 L2266.4 1518.55 L2258.09 1520.21 L2258.09 1515.95 L2266.36 1514.29 L2271.03 1514.29 L2271.03 1544.91 L2278.67 1544.91 L2278.67 1548.85 L2258.76 1548.85 L2258.76 1544.91 Z" fill="#000000" fill-rule="evenodd" fill-opacity="1" /><path clip-path="url(#clip750)" d="M2288.12 1542.97 L2293 1542.97 L2293 1548.85 L2288.12 1548.85 L2288.12 1542.97 Z" fill="#000000" fill-rule="evenodd" fill-opacity="1" /><path clip-path="url(#clip750)" d="M2313.19 1517.37 Q2309.57 1517.37 2307.75 1520.93 Q2305.94 1524.47 2305.94 1531.6 Q2305.94 1538.71 2307.75 1542.27 Q2309.57 1545.82 2313.19 1545.82 Q2316.82 1545.82 2318.63 1542.27 Q2320.45 1538.71 2320.45 1531.6 Q2320.45 1524.47 2318.63 1520.93 Q2316.82 1517.37 2313.19 1517.37 M2313.19 1513.66 Q2319 1513.66 2322.05 1518.27 Q2325.13 1522.85 2325.13 1531.6 Q2325.13 1540.33 2322.05 1544.94 Q2319 1549.52 2313.19 1549.52 Q2307.38 1549.52 2304.3 1544.94 Q2301.24 1540.33 2301.24 1531.6 Q2301.24 1522.85 2304.3 1518.27 Q2307.38 1513.66 2313.19 1513.66 Z" fill="#000000" fill-rule="evenodd" fill-opacity="1" /><polyline clip-path="url(#clip752)" style="stroke:#000000; stroke-linecap:round; stroke-linejoin:round; stroke-width:2; stroke-opacity:0.1; fill:none" points="192.339,1375.91 2352.76,1375.91 "/>
<polyline clip-path="url(#clip752)" style="stroke:#000000; stroke-linecap:round; stroke-linejoin:round; stroke-width:2; stroke-opacity:0.1; fill:none" points="192.339,1201.66 2352.76,1201.66 "/>
<polyline clip-path="url(#clip752)" style="stroke:#000000; stroke-linecap:round; stroke-linejoin:round; stroke-width:2; stroke-opacity:0.1; fill:none" points="192.339,1027.42 2352.76,1027.42 "/>
<polyline clip-path="url(#clip752)" style="stroke:#000000; stroke-linecap:round; stroke-linejoin:round; stroke-width:2; stroke-opacity:0.1; fill:none" points="192.339,853.177 2352.76,853.177 "/>
<polyline clip-path="url(#clip752)" style="stroke:#000000; stroke-linecap:round; stroke-linejoin:round; stroke-width:2; stroke-opacity:0.1; fill:none" points="192.339,678.934 2352.76,678.934 "/>
<polyline clip-path="url(#clip752)" style="stroke:#000000; stroke-linecap:round; stroke-linejoin:round; stroke-width:2; stroke-opacity:0.1; fill:none" points="192.339,504.691 2352.76,504.691 "/>
<polyline clip-path="url(#clip752)" style="stroke:#000000; stroke-linecap:round; stroke-linejoin:round; stroke-width:2; stroke-opacity:0.1; fill:none" points="192.339,330.448 2352.76,330.448 "/>
<polyline clip-path="url(#clip752)" style="stroke:#000000; stroke-linecap:round; stroke-linejoin:round; stroke-width:2; stroke-opacity:0.1; fill:none" points="192.339,156.205 2352.76,156.205 "/>
<polyline clip-path="url(#clip750)" style="stroke:#000000; stroke-linecap:round; stroke-linejoin:round; stroke-width:4; stroke-opacity:1; fill:none" points="192.339,1486.45 192.339,47.2441 "/>
<polyline clip-path="url(#clip750)" style="stroke:#000000; stroke-linecap:round; stroke-linejoin:round; stroke-width:4; stroke-opacity:1; fill:none" points="192.339,1375.91 211.236,1375.91 "/>
<polyline clip-path="url(#clip750)" style="stroke:#000000; stroke-linecap:round; stroke-linejoin:round; stroke-width:4; stroke-opacity:1; fill:none" points="192.339,1201.66 211.236,1201.66 "/>
<polyline clip-path="url(#clip750)" style="stroke:#000000; stroke-linecap:round; stroke-linejoin:round; stroke-width:4; stroke-opacity:1; fill:none" points="192.339,1027.42 211.236,1027.42 "/>
<polyline clip-path="url(#clip750)" style="stroke:#000000; stroke-linecap:round; stroke-linejoin:round; stroke-width:4; stroke-opacity:1; fill:none" points="192.339,853.177 211.236,853.177 "/>
<polyline clip-path="url(#clip750)" style="stroke:#000000; stroke-linecap:round; stroke-linejoin:round; stroke-width:4; stroke-opacity:1; fill:none" points="192.339,678.934 211.236,678.934 "/>
<polyline clip-path="url(#clip750)" style="stroke:#000000; stroke-linecap:round; stroke-linejoin:round; stroke-width:4; stroke-opacity:1; fill:none" points="192.339,504.691 211.236,504.691 "/>
<polyline clip-path="url(#clip750)" style="stroke:#000000; stroke-linecap:round; stroke-linejoin:round; stroke-width:4; stroke-opacity:1; fill:none" points="192.339,330.448 211.236,330.448 "/>
<polyline clip-path="url(#clip750)" style="stroke:#000000; stroke-linecap:round; stroke-linejoin:round; stroke-width:4; stroke-opacity:1; fill:none" points="192.339,156.205 211.236,156.205 "/>
<path clip-path="url(#clip750)" d="M50.9921 1376.36 L80.6679 1376.36 L80.6679 1380.29 L50.9921 1380.29 L50.9921 1376.36 Z" fill="#000000" fill-rule="evenodd" fill-opacity="1" /><path clip-path="url(#clip750)" d="M100.76 1361.7 Q97.1493 1361.7 95.3206 1365.27 Q93.515 1368.81 93.515 1375.94 Q93.515 1383.05 95.3206 1386.61 Q97.1493 1390.15 100.76 1390.15 Q104.395 1390.15 106.2 1386.61 Q108.029 1383.05 108.029 1375.94 Q108.029 1368.81 106.2 1365.27 Q104.395 1361.7 100.76 1361.7 M100.76 1358 Q106.571 1358 109.626 1362.61 Q112.705 1367.19 112.705 1375.94 Q112.705 1384.67 109.626 1389.27 Q106.571 1393.86 100.76 1393.86 Q94.9502 1393.86 91.8715 1389.27 Q88.816 1384.67 88.816 1375.94 Q88.816 1367.19 91.8715 1362.61 Q94.9502 1358 100.76 1358 Z" fill="#000000" fill-rule="evenodd" fill-opacity="1" /><path clip-path="url(#clip750)" d="M120.922 1387.31 L125.807 1387.31 L125.807 1393.19 L120.922 1393.19 L120.922 1387.31 Z" fill="#000000" fill-rule="evenodd" fill-opacity="1" /><path clip-path="url(#clip750)" d="M140.019 1389.25 L156.339 1389.25 L156.339 1393.19 L134.394 1393.19 L134.394 1389.25 Q137.056 1386.5 141.64 1381.87 Q146.246 1377.21 147.427 1375.87 Q149.672 1373.35 150.552 1371.61 Q151.455 1369.85 151.455 1368.16 Q151.455 1365.41 149.51 1363.67 Q147.589 1361.94 144.487 1361.94 Q142.288 1361.94 139.834 1362.7 Q137.404 1363.46 134.626 1365.01 L134.626 1360.29 Q137.45 1359.16 139.904 1358.58 Q142.357 1358 144.394 1358 Q149.765 1358 152.959 1360.69 Q156.154 1363.37 156.154 1367.86 Q156.154 1369.99 155.343 1371.91 Q154.556 1373.81 152.45 1376.4 Q151.871 1377.07 148.769 1380.29 Q145.668 1383.49 140.019 1389.25 Z" fill="#000000" fill-rule="evenodd" fill-opacity="1" /><path clip-path="url(#clip750)" d="M99.1632 1187.46 Q95.5521 1187.46 93.7234 1191.03 Q91.9178 1194.57 91.9178 1201.7 Q91.9178 1208.8 93.7234 1212.37 Q95.5521 1215.91 99.1632 1215.91 Q102.797 1215.91 104.603 1212.37 Q106.432 1208.8 106.432 1201.7 Q106.432 1194.57 104.603 1191.03 Q102.797 1187.46 99.1632 1187.46 M99.1632 1183.76 Q104.973 1183.76 108.029 1188.36 Q111.108 1192.95 111.108 1201.7 Q111.108 1210.42 108.029 1215.03 Q104.973 1219.61 99.1632 1219.61 Q93.353 1219.61 90.2743 1215.03 Q87.2188 1210.42 87.2188 1201.7 Q87.2188 1192.95 90.2743 1188.36 Q93.353 1183.76 99.1632 1183.76 Z" fill="#000000" fill-rule="evenodd" fill-opacity="1" /><path clip-path="url(#clip750)" d="M119.325 1213.06 L124.209 1213.06 L124.209 1218.94 L119.325 1218.94 L119.325 1213.06 Z" fill="#000000" fill-rule="evenodd" fill-opacity="1" /><path clip-path="url(#clip750)" d="M144.394 1187.46 Q140.783 1187.46 138.955 1191.03 Q137.149 1194.57 137.149 1201.7 Q137.149 1208.8 138.955 1212.37 Q140.783 1215.91 144.394 1215.91 Q148.029 1215.91 149.834 1212.37 Q151.663 1208.8 151.663 1201.7 Q151.663 1194.57 149.834 1191.03 Q148.029 1187.46 144.394 1187.46 M144.394 1183.76 Q150.205 1183.76 153.26 1188.36 Q156.339 1192.95 156.339 1201.7 Q156.339 1210.42 153.26 1215.03 Q150.205 1219.61 144.394 1219.61 Q138.584 1219.61 135.506 1215.03 Q132.45 1210.42 132.45 1201.7 Q132.45 1192.95 135.506 1188.36 Q138.584 1183.76 144.394 1183.76 Z" fill="#000000" fill-rule="evenodd" fill-opacity="1" /><path clip-path="url(#clip750)" d="M100.76 1013.22 Q97.1493 1013.22 95.3206 1016.78 Q93.515 1020.32 93.515 1027.45 Q93.515 1034.56 95.3206 1038.13 Q97.1493 1041.67 100.76 1041.67 Q104.395 1041.67 106.2 1038.13 Q108.029 1034.56 108.029 1027.45 Q108.029 1020.32 106.2 1016.78 Q104.395 1013.22 100.76 1013.22 M100.76 1009.51 Q106.571 1009.51 109.626 1014.12 Q112.705 1018.7 112.705 1027.45 Q112.705 1036.18 109.626 1040.79 Q106.571 1045.37 100.76 1045.37 Q94.9502 1045.37 91.8715 1040.79 Q88.816 1036.18 88.816 1027.45 Q88.816 1018.7 91.8715 1014.12 Q94.9502 1009.51 100.76 1009.51 Z" fill="#000000" fill-rule="evenodd" fill-opacity="1" /><path clip-path="url(#clip750)" d="M120.922 1038.82 L125.807 1038.82 L125.807 1044.7 L120.922 1044.7 L120.922 1038.82 Z" fill="#000000" fill-rule="evenodd" fill-opacity="1" /><path clip-path="url(#clip750)" d="M140.019 1040.76 L156.339 1040.76 L156.339 1044.7 L134.394 1044.7 L134.394 1040.76 Q137.056 1038.01 141.64 1033.38 Q146.246 1028.73 147.427 1027.39 Q149.672 1024.86 150.552 1023.13 Q151.455 1021.37 151.455 1019.68 Q151.455 1016.92 149.51 1015.19 Q147.589 1013.45 144.487 1013.45 Q142.288 1013.45 139.834 1014.21 Q137.404 1014.98 134.626 1016.53 L134.626 1011.81 Q137.45 1010.67 139.904 1010.09 Q142.357 1009.51 144.394 1009.51 Q149.765 1009.51 152.959 1012.2 Q156.154 1014.89 156.154 1019.38 Q156.154 1021.51 155.343 1023.43 Q154.556 1025.32 152.45 1027.92 Q151.871 1028.59 148.769 1031.81 Q145.668 1035 140.019 1040.76 Z" fill="#000000" fill-rule="evenodd" fill-opacity="1" /><path clip-path="url(#clip750)" d="M98.6771 838.976 Q95.066 838.976 93.2373 842.54 Q91.4317 846.082 91.4317 853.212 Q91.4317 860.318 93.2373 863.883 Q95.066 867.425 98.6771 867.425 Q102.311 867.425 104.117 863.883 Q105.946 860.318 105.946 853.212 Q105.946 846.082 104.117 842.54 Q102.311 838.976 98.6771 838.976 M98.6771 835.272 Q104.487 835.272 107.543 839.878 Q110.621 844.462 110.621 853.212 Q110.621 861.938 107.543 866.545 Q104.487 871.128 98.6771 871.128 Q92.8669 871.128 89.7882 866.545 Q86.7327 861.938 86.7327 853.212 Q86.7327 844.462 89.7882 839.878 Q92.8669 835.272 98.6771 835.272 Z" fill="#000000" fill-rule="evenodd" fill-opacity="1" /><path clip-path="url(#clip750)" d="M118.839 864.577 L123.723 864.577 L123.723 870.457 L118.839 870.457 L118.839 864.577 Z" fill="#000000" fill-rule="evenodd" fill-opacity="1" /><path clip-path="url(#clip750)" d="M146.756 839.971 L134.95 858.42 L146.756 858.42 L146.756 839.971 M145.529 835.897 L151.408 835.897 L151.408 858.42 L156.339 858.42 L156.339 862.309 L151.408 862.309 L151.408 870.457 L146.756 870.457 L146.756 862.309 L131.154 862.309 L131.154 857.795 L145.529 835.897 Z" fill="#000000" fill-rule="evenodd" fill-opacity="1" /><path clip-path="url(#clip750)" d="M99.0011 664.733 Q95.39 664.733 93.5613 668.298 Q91.7558 671.839 91.7558 678.969 Q91.7558 686.075 93.5613 689.64 Q95.39 693.182 99.0011 693.182 Q102.635 693.182 104.441 689.64 Q106.27 686.075 106.27 678.969 Q106.27 671.839 104.441 668.298 Q102.635 664.733 99.0011 664.733 M99.0011 661.029 Q104.811 661.029 107.867 665.635 Q110.946 670.219 110.946 678.969 Q110.946 687.696 107.867 692.302 Q104.811 696.885 99.0011 696.885 Q93.191 696.885 90.1123 692.302 Q87.0567 687.696 87.0567 678.969 Q87.0567 670.219 90.1123 665.635 Q93.191 661.029 99.0011 661.029 Z" fill="#000000" fill-rule="evenodd" fill-opacity="1" /><path clip-path="url(#clip750)" d="M119.163 690.334 L124.047 690.334 L124.047 696.214 L119.163 696.214 L119.163 690.334 Z" fill="#000000" fill-rule="evenodd" fill-opacity="1" /><path clip-path="url(#clip750)" d="M144.811 677.071 Q141.663 677.071 139.811 679.223 Q137.982 681.376 137.982 685.126 Q137.982 688.853 139.811 691.029 Q141.663 693.182 144.811 693.182 Q147.959 693.182 149.788 691.029 Q151.64 688.853 151.64 685.126 Q151.64 681.376 149.788 679.223 Q147.959 677.071 144.811 677.071 M154.093 662.418 L154.093 666.677 Q152.334 665.844 150.529 665.404 Q148.746 664.964 146.987 664.964 Q142.357 664.964 139.904 668.089 Q137.473 671.214 137.126 677.534 Q138.492 675.52 140.552 674.455 Q142.612 673.367 145.089 673.367 Q150.297 673.367 153.306 676.538 Q156.339 679.686 156.339 685.126 Q156.339 690.45 153.191 693.668 Q150.043 696.885 144.811 696.885 Q138.816 696.885 135.644 692.302 Q132.473 687.696 132.473 678.969 Q132.473 670.774 136.362 665.913 Q140.251 661.029 146.802 661.029 Q148.561 661.029 150.343 661.376 Q152.149 661.723 154.093 662.418 Z" fill="#000000" fill-rule="evenodd" fill-opacity="1" /><path clip-path="url(#clip750)" d="M99.2558 490.49 Q95.6447 490.49 93.816 494.055 Q92.0104 497.596 92.0104 504.726 Q92.0104 511.832 93.816 515.397 Q95.6447 518.939 99.2558 518.939 Q102.89 518.939 104.696 515.397 Q106.524 511.832 106.524 504.726 Q106.524 497.596 104.696 494.055 Q102.89 490.49 99.2558 490.49 M99.2558 486.786 Q105.066 486.786 108.121 491.393 Q111.2 495.976 111.2 504.726 Q111.2 513.453 108.121 518.059 Q105.066 522.642 99.2558 522.642 Q93.4456 522.642 90.3669 518.059 Q87.3114 513.453 87.3114 504.726 Q87.3114 495.976 90.3669 491.393 Q93.4456 486.786 99.2558 486.786 Z" fill="#000000" fill-rule="evenodd" fill-opacity="1" /><path clip-path="url(#clip750)" d="M119.418 516.092 L124.302 516.092 L124.302 521.971 L119.418 521.971 L119.418 516.092 Z" fill="#000000" fill-rule="evenodd" fill-opacity="1" /><path clip-path="url(#clip750)" d="M144.487 505.559 Q141.154 505.559 139.232 507.342 Q137.334 509.124 137.334 512.249 Q137.334 515.374 139.232 517.156 Q141.154 518.939 144.487 518.939 Q147.82 518.939 149.742 517.156 Q151.663 515.351 151.663 512.249 Q151.663 509.124 149.742 507.342 Q147.843 505.559 144.487 505.559 M139.811 503.568 Q136.802 502.828 135.112 500.768 Q133.445 498.707 133.445 495.744 Q133.445 491.601 136.385 489.194 Q139.348 486.786 144.487 486.786 Q149.649 486.786 152.589 489.194 Q155.529 491.601 155.529 495.744 Q155.529 498.707 153.839 500.768 Q152.172 502.828 149.186 503.568 Q152.566 504.355 154.441 506.647 Q156.339 508.939 156.339 512.249 Q156.339 517.272 153.26 519.957 Q150.205 522.642 144.487 522.642 Q138.769 522.642 135.691 519.957 Q132.635 517.272 132.635 512.249 Q132.635 508.939 134.533 506.647 Q136.431 504.355 139.811 503.568 M138.098 496.184 Q138.098 498.869 139.765 500.374 Q141.455 501.879 144.487 501.879 Q147.496 501.879 149.186 500.374 Q150.899 498.869 150.899 496.184 Q150.899 493.499 149.186 491.994 Q147.496 490.49 144.487 490.49 Q141.455 490.49 139.765 491.994 Q138.098 493.499 138.098 496.184 Z" fill="#000000" fill-rule="evenodd" fill-opacity="1" /><path clip-path="url(#clip750)" d="M89.9734 343.793 L97.6122 343.793 L97.6122 317.427 L89.3021 319.094 L89.3021 314.835 L97.566 313.168 L102.242 313.168 L102.242 343.793 L109.881 343.793 L109.881 347.728 L89.9734 347.728 L89.9734 343.793 Z" fill="#000000" fill-rule="evenodd" fill-opacity="1" /><path clip-path="url(#clip750)" d="M119.325 341.849 L124.209 341.849 L124.209 347.728 L119.325 347.728 L119.325 341.849 Z" fill="#000000" fill-rule="evenodd" fill-opacity="1" /><path clip-path="url(#clip750)" d="M144.394 316.247 Q140.783 316.247 138.955 319.812 Q137.149 323.353 137.149 330.483 Q137.149 337.589 138.955 341.154 Q140.783 344.696 144.394 344.696 Q148.029 344.696 149.834 341.154 Q151.663 337.589 151.663 330.483 Q151.663 323.353 149.834 319.812 Q148.029 316.247 144.394 316.247 M144.394 312.543 Q150.205 312.543 153.26 317.15 Q156.339 321.733 156.339 330.483 Q156.339 339.21 153.26 343.816 Q150.205 348.4 144.394 348.4 Q138.584 348.4 135.506 343.816 Q132.45 339.21 132.45 330.483 Q132.45 321.733 135.506 317.15 Q138.584 312.543 144.394 312.543 Z" fill="#000000" fill-rule="evenodd" fill-opacity="1" /><path clip-path="url(#clip750)" d="M91.5706 169.55 L99.2095 169.55 L99.2095 143.185 L90.8993 144.851 L90.8993 140.592 L99.1632 138.925 L103.839 138.925 L103.839 169.55 L111.478 169.55 L111.478 173.485 L91.5706 173.485 L91.5706 169.55 Z" fill="#000000" fill-rule="evenodd" fill-opacity="1" /><path clip-path="url(#clip750)" d="M120.922 167.606 L125.807 167.606 L125.807 173.485 L120.922 173.485 L120.922 167.606 Z" fill="#000000" fill-rule="evenodd" fill-opacity="1" /><path clip-path="url(#clip750)" d="M140.019 169.55 L156.339 169.55 L156.339 173.485 L134.394 173.485 L134.394 169.55 Q137.056 166.796 141.64 162.166 Q146.246 157.513 147.427 156.171 Q149.672 153.648 150.552 151.911 Q151.455 150.152 151.455 148.462 Q151.455 145.708 149.51 143.972 Q147.589 142.236 144.487 142.236 Q142.288 142.236 139.834 142.999 Q137.404 143.763 134.626 145.314 L134.626 140.592 Q137.45 139.458 139.904 138.879 Q142.357 138.3 144.394 138.3 Q149.765 138.3 152.959 140.986 Q156.154 143.671 156.154 148.161 Q156.154 150.291 155.343 152.212 Q154.556 154.11 152.45 156.703 Q151.871 157.374 148.769 160.592 Q145.668 163.786 140.019 169.55 Z" fill="#000000" fill-rule="evenodd" fill-opacity="1" /><polyline clip-path="url(#clip752)" style="stroke:#009af9; stroke-linecap:round; stroke-linejoin:round; stroke-width:16; stroke-opacity:1; fill:none" stroke-dasharray="8, 16" points="253.483,1070.76 263.725,1056.72 273.966,1043.79 284.208,1033.52 294.45,1027.66 304.692,1027.85 314.934,1035.2 325.176,1049.87 335.418,1070.98 345.659,1096.73 355.901,1124.88 366.143,1153.39 376.385,1181.29 386.627,1209.33 396.869,1239.13 407.111,1270.39 417.352,1300.02 427.594,1325.03 437.836,1344.66 448.078,1359.61 458.32,1370.37 468.562,1376.51 478.803,1376.79 489.045,1370.15 499.287,1356.88 509.529,1338.59 519.771,1316.7 530.013,1291.7 540.255,1263.94 550.497,1234.12 560.738,1203.2 570.98,1172.12 581.222,1141.81 591.464,1113.14 601.706,1087.08 611.948,1064.69 622.19,1047.02 632.431,1034.88 642.673,1028.62 652.915,1028.1 663.157,1032.95 673.399,1042.78 683.641,1057.38 693.882,1076.64 704.124,1100.36 714.366,1127.95 724.608,1158.27 734.85,1189.79 745.092,1221.13 755.334,1251.49 765.575,1280.48 775.817,1307.33 786.059,1330.66 796.301,1349.17 806.543,1362.4 816.785,1370.69 827.027,1374.55 837.268,1373.79 847.51,1366.92 857.752,1351.58 867.994,1329.04 878.236,1312.76 888.478,1312.72 898.72,1304.96 908.961,1264.88 919.203,1193.36 929.445,1120.11 939.687,1084.76 949.929,1081.28 960.171,1080.23 970.413,1069.31 980.654,1051.87 990.896,1036.24 1001.14,1028.07 1011.38,1028.94 1021.62,1036.19 1031.86,1047.5 1042.11,1062.49 1052.35,1080.56 1062.59,1100.74 1072.83,1125.45 1083.07,1162.16 1093.31,1221.79 1103.56,1299.46 1113.8,1325.78 1124.04,1297.14 1134.28,1302.6 1144.52,1288.37 1154.77,1278.3 1165.01,1335.49 1175.25,1429.42 1185.49,1445.72 1195.73,1412.8 1205.98,1376.47 1216.22,1326.61 1226.46,1286.28 1236.7,1271.95 1246.94,1272.75 1257.18,1226.4 1267.43,1005.3 1277.67,663.514 1287.91,400.926 1298.15,299.86 1308.39,299.357 1318.64,320.071 1328.88,338.948 1339.12,348.414 1349.36,340.413 1359.6,318.426 1369.84,308.896 1380.09,311.623 1390.33,309.224 1400.57,311.447 1410.81,315.574 1421.05,332.673 1431.3,362.025 1441.54,374.33 1451.78,375.815 1462.02,370.819 1472.26,355.63 1482.51,330.481 1492.75,299.92 1502.99,274.357 1513.23,270.757 1523.47,290.88 1533.71,318.41 1543.96,346.378 1554.2,373.684 1564.44,393.569 1574.68,398.003 1584.92,383.934 1595.17,353.154 1605.41,310.971 1615.65,267.626 1625.89,240.626 1636.13,246.79 1646.38,283.973 1656.62,332.882 1666.86,377.441 1677.1,410.331 1687.34,426.247 1697.58,418.757 1707.83,383.354 1718.07,322.4 1728.31,250.347 1738.55,198.408 1748.79,202.062 1759.04,260.899 1769.28,335.819 1779.52,394.238 1789.76,426.21 1800,433.978 1810.24,422.927 1820.49,397.539 1830.73,359.188 1840.97,304.019 1851.21,225.166 1861.45,147.417 1871.7,162.55 1881.94,266.433 1892.18,368.325 1902.42,437.836 1912.66,475.615 1922.91,484.522 1933.15,465.401 1943.39,417.502 1953.63,339.545 1963.87,235.555 1974.11,136.282 1984.36,107.152 1994.6,161.633 2004.84,249.836 2015.08,345.412 2025.32,439.556 2035.57,512.478 2045.81,520.244 2056.05,454.426 2066.29,362.515 2076.53,273.332 2086.77,197.408 2097.02,149.689 2107.26,148.321 2117.5,195.316 2127.74,271.615 2137.98,357.629 2148.23,445.646 2158.47,526.558 2168.71,547.523 2178.95,463.851 2189.19,337.049 2199.44,216.443 2209.68,136.489 2219.92,123.097 2230.16,165.819 2240.4,240.286 2250.64,325.542 2260.89,407.106 2271.13,474.642 2281.37,521.62 2291.61,547.198 "/>
<polyline clip-path="url(#clip752)" style="stroke:#e26f46; stroke-linecap:round; stroke-linejoin:round; stroke-width:4; stroke-opacity:1; fill:none" points="253.483,1070.81 263.725,1052.24 273.966,1038.55 284.208,1030.19 294.45,1027.42 304.692,1030.34 314.934,1038.85 325.176,1052.67 335.418,1071.36 345.659,1094.3 355.901,1120.74 366.143,1149.82 376.385,1180.6 386.627,1212.06 396.869,1243.19 407.111,1272.96 417.352,1300.4 427.594,1324.62 437.836,1344.82 448.078,1360.36 458.32,1370.71 468.562,1375.55 478.803,1374.71 489.045,1368.23 499.287,1356.31 509.529,1339.34 519.771,1317.87 530.013,1292.62 540.255,1264.4 550.497,1234.12 560.738,1202.79 570.98,1171.43 581.222,1141.05 591.464,1112.64 601.706,1087.15 611.948,1065.39 622.19,1048.08 632.431,1035.78 642.673,1028.89 652.915,1027.65 663.157,1032.08 673.399,1042.05 683.641,1057.22 693.882,1077.12 704.124,1101.07 714.366,1128.31 724.608,1157.94 734.85,1189 745.092,1220.48 755.334,1251.34 765.575,1280.58 775.817,1307.24 786.059,1330.46 796.301,1349.47 806.543,1363.66 816.785,1372.56 827.027,1375.89 837.268,1373.52 847.51,1365.55 857.752,1352.23 867.994,1334 878.236,1311.45 888.478,1285.31 898.72,1256.45 908.961,1225.79 919.203,1194.35 929.445,1163.15 939.687,1133.2 949.929,1105.49 960.171,1080.92 970.413,1060.29 980.654,1044.27 990.896,1033.39 1001.14,1028 1011.38,1028.28 1021.62,1034.22 1031.86,1045.62 1042.11,1062.12 1052.35,1083.17 1062.59,1108.08 1072.83,1136.06 1083.07,1166.17 1093.31,1197.44 1103.56,1228.85 1113.8,1259.37 1124.04,1288.01 1134.28,1313.83 1144.52,1335.99 1154.77,1353.77 1165.01,1366.58 1175.25,1374.01 1185.49,1375.81 1195.73,1371.93 1205.98,1362.49 1216.22,1347.81 1226.46,1328.35 1236.7,1304.76 1246.94,1277.81 1257.18,1248.37 1267.43,1217.4 1277.67,329.183 1287.91,327.743 1298.15,329.054 1308.39,333.416 1318.64,339.494 1328.88,344.719 1339.12,346.266 1349.36,342.246 1359.6,332.662 1369.84,319.743 1380.09,307.449 1390.33,300.267 1400.57,301.645 1410.81,312.602 1421.05,331.033 1431.3,352.009 1441.54,369.09 1451.78,376.295 1462.02,370.128 1472.26,350.991 1482.51,323.465 1492.75,295.255 1502.99,275.038 1513.23,269.8 1523.47,282.497 1533.71,310.783 1543.96,347.315 1554.2,381.632 1564.44,403.154 1574.68,404.429 1584.92,383.636 1595.17,345.529 1605.41,300.42 1615.65,261.401 1625.89,240.542 1636.13,245.18 1646.38,275.42 1656.62,323.697 1666.86,376.62 1677.1,418.689 1687.34,436.826 1697.58,424.423 1707.83,383.639 1718.07,325.183 1728.31,265.53 1738.55,222.277 1748.79,208.956 1759.04,230.83 1769.28,282.965 1779.52,351.264 1789.76,416.259 1800,458.663 1810.24,465.086 1820.49,432.23 1830.73,368.253 1840.97,290.794 1851.21,222.121 1861.45,182.724 1871.7,185.214 1881.94,230.329 1892.18,306.299 1902.42,391.891 1912.66,462.335 1922.91,496.493 1933.15,483.192 1943.39,424.821 1953.63,337.061 1963.87,244.689 1974.11,174.588 1984.36,147.922 1994.6,173.763 2004.84,246.079 2015.08,345.065 2025.32,442.555 2035.57,510.037 2045.81,526.988 2056.05,487.093 2066.29,400.483 2076.53,291.198 2086.77,190.53 2097.02,128.057 2107.26,122.961 2117.5,178.161 2127.74,279.055 2137.98,397.356 2148.23,499.017 2158.47,554.027 2168.71,545.269 2178.95,473.811 2189.19,359.017 2199.44,233.321 2209.68,133.06 2219.92,87.9763 2230.16,112.4 2240.4,200.734 2250.64,328.659 2260.89,459.811 2271.13,556.121 2281.37,588.86 2291.61,547.2 "/>
<path clip-path="url(#clip750)" d="M264.353 250.738 L707.222 250.738 L707.222 95.2176 L264.353 95.2176  Z" fill="#ffffff" fill-rule="evenodd" fill-opacity="1"/>
<polyline clip-path="url(#clip750)" style="stroke:#000000; stroke-linecap:round; stroke-linejoin:round; stroke-width:4; stroke-opacity:1; fill:none" points="264.353,250.738 707.222,250.738 707.222,95.2176 264.353,95.2176 264.353,250.738 "/>
<polyline clip-path="url(#clip750)" style="stroke:#009af9; stroke-linecap:round; stroke-linejoin:round; stroke-width:16; stroke-opacity:1; fill:none" stroke-dasharray="8, 16" points="288.357,147.058 432.385,147.058 "/>
<path clip-path="url(#clip750)" d="M461.066 133.62 L461.066 146.606 L466.945 146.606 Q470.209 146.606 471.992 144.916 Q473.774 143.227 473.774 140.102 Q473.774 137 471.992 135.31 Q470.209 133.62 466.945 133.62 L461.066 133.62 M456.39 129.778 L466.945 129.778 Q472.755 129.778 475.718 132.416 Q478.704 135.032 478.704 140.102 Q478.704 145.217 475.718 147.833 Q472.755 150.449 466.945 150.449 L461.066 150.449 L461.066 164.338 L456.39 164.338 L456.39 129.778 Z" fill="#000000" fill-rule="evenodd" fill-opacity="1" /><path clip-path="url(#clip750)" d="M498.982 142.393 Q498.265 141.977 497.408 141.791 Q496.575 141.583 495.556 141.583 Q491.945 141.583 490.001 143.944 Q488.079 146.282 488.079 150.68 L488.079 164.338 L483.797 164.338 L483.797 138.412 L488.079 138.412 L488.079 142.44 Q489.422 140.078 491.575 138.944 Q493.728 137.787 496.806 137.787 Q497.246 137.787 497.778 137.856 Q498.311 137.903 498.959 138.018 L498.982 142.393 Z" fill="#000000" fill-rule="evenodd" fill-opacity="1" /><path clip-path="url(#clip750)" d="M524.584 150.31 L524.584 152.393 L505.001 152.393 Q505.278 156.791 507.639 159.106 Q510.024 161.398 514.26 161.398 Q516.714 161.398 519.005 160.796 Q521.32 160.194 523.588 158.99 L523.588 163.018 Q521.297 163.99 518.889 164.5 Q516.482 165.009 514.005 165.009 Q507.802 165.009 504.167 161.398 Q500.556 157.787 500.556 151.629 Q500.556 145.264 503.982 141.537 Q507.431 137.787 513.264 137.787 Q518.496 137.787 521.528 141.166 Q524.584 144.523 524.584 150.31 M520.325 149.06 Q520.278 145.565 518.357 143.481 Q516.459 141.398 513.311 141.398 Q509.746 141.398 507.593 143.412 Q505.464 145.426 505.14 149.083 L520.325 149.06 Z" fill="#000000" fill-rule="evenodd" fill-opacity="1" /><path clip-path="url(#clip750)" d="M548.635 142.347 L548.635 128.319 L552.894 128.319 L552.894 164.338 L548.635 164.338 L548.635 160.449 Q547.292 162.763 545.232 163.898 Q543.195 165.009 540.325 165.009 Q535.625 165.009 532.663 161.259 Q529.723 157.509 529.723 151.398 Q529.723 145.287 532.663 141.537 Q535.625 137.787 540.325 137.787 Q543.195 137.787 545.232 138.921 Q547.292 140.032 548.635 142.347 M534.121 151.398 Q534.121 156.097 536.042 158.782 Q537.987 161.444 541.366 161.444 Q544.746 161.444 546.69 158.782 Q548.635 156.097 548.635 151.398 Q548.635 146.699 546.69 144.037 Q544.746 141.352 541.366 141.352 Q537.987 141.352 536.042 144.037 Q534.121 146.699 534.121 151.398 Z" fill="#000000" fill-rule="evenodd" fill-opacity="1" /><path clip-path="url(#clip750)" d="M561.667 138.412 L565.926 138.412 L565.926 164.338 L561.667 164.338 L561.667 138.412 M561.667 128.319 L565.926 128.319 L565.926 133.713 L561.667 133.713 L561.667 128.319 Z" fill="#000000" fill-rule="evenodd" fill-opacity="1" /><path clip-path="url(#clip750)" d="M593.496 139.407 L593.496 143.389 Q591.69 142.393 589.861 141.907 Q588.056 141.398 586.204 141.398 Q582.06 141.398 579.769 144.037 Q577.477 146.652 577.477 151.398 Q577.477 156.143 579.769 158.782 Q582.06 161.398 586.204 161.398 Q588.056 161.398 589.861 160.912 Q591.69 160.402 593.496 159.407 L593.496 163.342 Q591.713 164.176 589.792 164.592 Q587.894 165.009 585.741 165.009 Q579.884 165.009 576.435 161.328 Q572.986 157.648 572.986 151.398 Q572.986 145.055 576.459 141.421 Q579.954 137.787 586.019 137.787 Q587.986 137.787 589.861 138.203 Q591.736 138.597 593.496 139.407 Z" fill="#000000" fill-rule="evenodd" fill-opacity="1" /><path clip-path="url(#clip750)" d="M605.116 131.051 L605.116 138.412 L613.889 138.412 L613.889 141.722 L605.116 141.722 L605.116 155.796 Q605.116 158.967 605.972 159.87 Q606.852 160.773 609.514 160.773 L613.889 160.773 L613.889 164.338 L609.514 164.338 Q604.583 164.338 602.708 162.509 Q600.833 160.657 600.833 155.796 L600.833 141.722 L597.708 141.722 L597.708 138.412 L600.833 138.412 L600.833 131.051 L605.116 131.051 Z" fill="#000000" fill-rule="evenodd" fill-opacity="1" /><path clip-path="url(#clip750)" d="M619.491 138.412 L623.75 138.412 L623.75 164.338 L619.491 164.338 L619.491 138.412 M619.491 128.319 L623.75 128.319 L623.75 133.713 L619.491 133.713 L619.491 128.319 Z" fill="#000000" fill-rule="evenodd" fill-opacity="1" /><path clip-path="url(#clip750)" d="M642.708 141.398 Q639.282 141.398 637.292 144.083 Q635.301 146.745 635.301 151.398 Q635.301 156.051 637.268 158.736 Q639.259 161.398 642.708 161.398 Q646.111 161.398 648.102 158.713 Q650.092 156.027 650.092 151.398 Q650.092 146.791 648.102 144.106 Q646.111 141.398 642.708 141.398 M642.708 137.787 Q648.264 137.787 651.435 141.398 Q654.606 145.009 654.606 151.398 Q654.606 157.764 651.435 161.398 Q648.264 165.009 642.708 165.009 Q637.13 165.009 633.958 161.398 Q630.81 157.764 630.81 151.398 Q630.81 145.009 633.958 141.398 Q637.13 137.787 642.708 137.787 Z" fill="#000000" fill-rule="evenodd" fill-opacity="1" /><path clip-path="url(#clip750)" d="M683.217 148.689 L683.217 164.338 L678.958 164.338 L678.958 148.828 Q678.958 145.148 677.523 143.319 Q676.088 141.49 673.217 141.49 Q669.768 141.49 667.778 143.69 Q665.787 145.889 665.787 149.685 L665.787 164.338 L661.504 164.338 L661.504 138.412 L665.787 138.412 L665.787 142.44 Q667.315 140.102 669.375 138.944 Q671.458 137.787 674.166 137.787 Q678.634 137.787 680.926 140.565 Q683.217 143.319 683.217 148.689 Z" fill="#000000" fill-rule="evenodd" fill-opacity="1" /><polyline clip-path="url(#clip750)" style="stroke:#e26f46; stroke-linecap:round; stroke-linejoin:round; stroke-width:4; stroke-opacity:1; fill:none" points="288.357,198.898 432.385,198.898 "/>
<path clip-path="url(#clip750)" d="M456.39 181.618 L478.242 181.618 L478.242 185.553 L461.066 185.553 L461.066 195.784 L477.524 195.784 L477.524 199.719 L461.066 199.719 L461.066 212.242 L478.658 212.242 L478.658 216.178 L456.39 216.178 L456.39 181.618 Z" fill="#000000" fill-rule="evenodd" fill-opacity="1" /><path clip-path="url(#clip750)" d="M507.709 190.252 L498.334 202.867 L508.195 216.178 L503.172 216.178 L495.626 205.992 L488.079 216.178 L483.056 216.178 L493.126 202.613 L483.913 190.252 L488.936 190.252 L495.811 199.488 L502.686 190.252 L507.709 190.252 Z" fill="#000000" fill-rule="evenodd" fill-opacity="1" /><path clip-path="url(#clip750)" d="M525.996 203.145 Q520.834 203.145 518.843 204.326 Q516.852 205.506 516.852 208.354 Q516.852 210.622 518.334 211.965 Q519.838 213.284 522.408 213.284 Q525.95 213.284 528.079 210.784 Q530.232 208.261 530.232 204.094 L530.232 203.145 L525.996 203.145 M534.491 201.386 L534.491 216.178 L530.232 216.178 L530.232 212.242 Q528.774 214.603 526.598 215.738 Q524.422 216.849 521.274 216.849 Q517.292 216.849 514.931 214.627 Q512.593 212.381 512.593 208.631 Q512.593 204.256 515.51 202.034 Q518.45 199.812 524.26 199.812 L530.232 199.812 L530.232 199.395 Q530.232 196.455 528.288 194.858 Q526.366 193.238 522.871 193.238 Q520.649 193.238 518.542 193.77 Q516.436 194.303 514.491 195.367 L514.491 191.432 Q516.829 190.53 519.028 190.09 Q521.227 189.627 523.311 189.627 Q528.936 189.627 531.713 192.543 Q534.491 195.46 534.491 201.386 Z" fill="#000000" fill-rule="evenodd" fill-opacity="1" /><path clip-path="url(#clip750)" d="M561.922 191.247 L561.922 195.229 Q560.116 194.233 558.287 193.747 Q556.482 193.238 554.63 193.238 Q550.486 193.238 548.195 195.877 Q545.903 198.492 545.903 203.238 Q545.903 207.983 548.195 210.622 Q550.486 213.238 554.63 213.238 Q556.482 213.238 558.287 212.752 Q560.116 212.242 561.922 211.247 L561.922 215.182 Q560.139 216.016 558.218 216.432 Q556.32 216.849 554.167 216.849 Q548.311 216.849 544.862 213.168 Q541.412 209.488 541.412 203.238 Q541.412 196.895 544.885 193.261 Q548.38 189.627 554.445 189.627 Q556.412 189.627 558.287 190.043 Q560.162 190.437 561.922 191.247 Z" fill="#000000" fill-rule="evenodd" fill-opacity="1" /><path clip-path="url(#clip750)" d="M573.542 182.891 L573.542 190.252 L582.315 190.252 L582.315 193.562 L573.542 193.562 L573.542 207.636 Q573.542 210.807 574.398 211.71 Q575.278 212.613 577.94 212.613 L582.315 212.613 L582.315 216.178 L577.94 216.178 Q573.01 216.178 571.135 214.349 Q569.26 212.497 569.26 207.636 L569.26 193.562 L566.135 193.562 L566.135 190.252 L569.26 190.252 L569.26 182.891 L573.542 182.891 Z" fill="#000000" fill-rule="evenodd" fill-opacity="1" /></svg>
