<?xml version="1.0" encoding="utf-8"?>
<svg xmlns="http://www.w3.org/2000/svg" xmlns:xlink="http://www.w3.org/1999/xlink" width="600" height="400" viewBox="0 0 2400 1600">
<defs>
  <clipPath id="clip400">
    <rect x="0" y="0" width="2400" height="1600"/>
  </clipPath>
</defs>
<path clip-path="url(#clip400)" d="M0 1600 L2400 1600 L2400 0 L0 0  Z" fill="#ffffff" fill-rule="evenodd" fill-opacity="1"/>
<defs>
  <clipPath id="clip401">
    <rect x="480" y="0" width="1681" height="1600"/>
  </clipPath>
</defs>
<path clip-path="url(#clip400)" d="M192.339 1486.45 L2352.76 1486.45 L2352.76 47.2441 L192.339 47.2441  Z" fill="#ffffff" fill-rule="evenodd" fill-opacity="1"/>
<defs>
  <clipPath id="clip402">
    <rect x="192" y="47" width="2161" height="1440"/>
  </clipPath>
</defs>
<polyline clip-path="url(#clip402)" style="stroke:#000000; stroke-linecap:round; stroke-linejoin:round; stroke-width:2; stroke-opacity:0.1; fill:none" points="253.483,1486.45 253.483,47.2441 "/>
<polyline clip-path="url(#clip402)" style="stroke:#000000; stroke-linecap:round; stroke-linejoin:round; stroke-width:2; stroke-opacity:0.1; fill:none" points="763.015,1486.45 763.015,47.2441 "/>
<polyline clip-path="url(#clip402)" style="stroke:#000000; stroke-linecap:round; stroke-linejoin:round; stroke-width:2; stroke-opacity:0.1; fill:none" points="1272.55,1486.45 1272.55,47.2441 "/>
<polyline clip-path="url(#clip402)" style="stroke:#000000; stroke-linecap:round; stroke-linejoin:round; stroke-width:2; stroke-opacity:0.1; fill:none" points="1782.08,1486.45 1782.08,47.2441 "/>
<polyline clip-path="url(#clip402)" style="stroke:#000000; stroke-linecap:round; stroke-linejoin:round; stroke-width:2; stroke-opacity:0.1; fill:none" points="2291.61,1486.45 2291.61,47.2441 "/>
<polyline clip-path="url(#clip400)" style="stroke:#000000; stroke-linecap:round; stroke-linejoin:round; stroke-width:4; stroke-opacity:1; fill:none" points="192.339,1486.45 2352.76,1486.45 "/>
<polyline clip-path="url(#clip400)" style="stroke:#000000; stroke-linecap:round; stroke-linejoin:round; stroke-width:4; stroke-opacity:1; fill:none" points="253.483,1486.45 253.483,1467.55 "/>
<polyline clip-path="url(#clip400)" style="stroke:#000000; stroke-linecap:round; stroke-linejoin:round; stroke-width:4; stroke-opacity:1; fill:none" points="763.015,1486.45 763.015,1467.55 "/>
<polyline clip-path="url(#clip400)" style="stroke:#000000; stroke-linecap:round; stroke-linejoin:round; stroke-width:4; stroke-opacity:1; fill:none" points="1272.55,1486.45 1272.55,1467.55 "/>
<polyline clip-path="url(#clip400)" style="stroke:#000000; stroke-linecap:round; stroke-linejoin:round; stroke-width:4; stroke-opacity:1; fill:none" points="1782.08,1486.45 1782.08,1467.55 "/>
<polyline clip-path="url(#clip400)" style="stroke:#000000; stroke-linecap:round; stroke-linejoin:round; stroke-width:4; stroke-opacity:1; fill:none" points="2291.61,1486.45 2291.61,1467.55 "/>
<path clip-path="url(#clip400)" d="M200.011 1532.02 L229.686 1532.02 L229.686 1535.95 L200.011 1535.95 L200.011 1532.02 Z" fill="#000000" fill-rule="evenodd" fill-opacity="1" /><path clip-path="url(#clip400)" d="M240.589 1544.91 L248.228 1544.91 L248.228 1518.55 L239.918 1520.21 L239.918 1515.95 L248.182 1514.29 L252.858 1514.29 L252.858 1544.91 L260.497 1544.91 L260.497 1548.85 L240.589 1548.85 L240.589 1544.91 Z" fill="#000000" fill-rule="evenodd" fill-opacity="1" /><path clip-path="url(#clip400)" d="M269.941 1542.97 L274.825 1542.97 L274.825 1548.85 L269.941 1548.85 L269.941 1542.97 Z" fill="#000000" fill-rule="evenodd" fill-opacity="1" /><path clip-path="url(#clip400)" d="M295.01 1517.37 Q291.399 1517.37 289.57 1520.93 Q287.765 1524.47 287.765 1531.6 Q287.765 1538.71 289.57 1542.27 Q291.399 1545.82 295.01 1545.82 Q298.644 1545.82 300.45 1542.27 Q302.279 1538.71 302.279 1531.6 Q302.279 1524.47 300.45 1520.93 Q298.644 1517.37 295.01 1517.37 M295.01 1513.66 Q300.82 1513.66 303.876 1518.27 Q306.955 1522.85 306.955 1531.6 Q306.955 1540.33 303.876 1544.94 Q300.82 1549.52 295.01 1549.52 Q289.2 1549.52 286.121 1544.94 Q283.066 1540.33 283.066 1531.6 Q283.066 1522.85 286.121 1518.27 Q289.2 1513.66 295.01 1513.66 Z" fill="#000000" fill-rule="evenodd" fill-opacity="1" /><path clip-path="url(#clip400)" d="M710.041 1532.02 L739.717 1532.02 L739.717 1535.95 L710.041 1535.95 L710.041 1532.02 Z" fill="#000000" fill-rule="evenodd" fill-opacity="1" /><path clip-path="url(#clip400)" d="M759.809 1517.37 Q756.198 1517.37 754.369 1520.93 Q752.564 1524.47 752.564 1531.6 Q752.564 1538.71 754.369 1542.27 Q756.198 1545.82 759.809 1545.82 Q763.443 1545.82 765.249 1542.27 Q767.077 1538.71 767.077 1531.6 Q767.077 1524.47 765.249 1520.93 Q763.443 1517.37 759.809 1517.37 M759.809 1513.66 Q765.619 1513.66 768.675 1518.27 Q771.753 1522.85 771.753 1531.6 Q771.753 1540.33 768.675 1544.94 Q765.619 1549.52 759.809 1549.52 Q753.999 1549.52 750.92 1544.94 Q747.865 1540.33 747.865 1531.6 Q747.865 1522.85 750.92 1518.27 Q753.999 1513.66 759.809 1513.66 Z" fill="#000000" fill-rule="evenodd" fill-opacity="1" /><path clip-path="url(#clip400)" d="M779.971 1542.97 L784.855 1542.97 L784.855 1548.85 L779.971 1548.85 L779.971 1542.97 Z" fill="#000000" fill-rule="evenodd" fill-opacity="1" /><path clip-path="url(#clip400)" d="M795.087 1514.29 L813.443 1514.29 L813.443 1518.22 L799.369 1518.22 L799.369 1526.7 Q800.387 1526.35 801.406 1526.19 Q802.425 1526 803.443 1526 Q809.23 1526 812.61 1529.17 Q815.989 1532.34 815.989 1537.76 Q815.989 1543.34 812.517 1546.44 Q809.045 1549.52 802.725 1549.52 Q800.55 1549.52 798.281 1549.15 Q796.036 1548.78 793.628 1548.04 L793.628 1543.34 Q795.712 1544.47 797.934 1545.03 Q800.156 1545.58 802.633 1545.58 Q806.637 1545.58 808.975 1543.48 Q811.313 1541.37 811.313 1537.76 Q811.313 1534.15 808.975 1532.04 Q806.637 1529.94 802.633 1529.94 Q800.758 1529.94 798.883 1530.35 Q797.031 1530.77 795.087 1531.65 L795.087 1514.29 Z" fill="#000000" fill-rule="evenodd" fill-opacity="1" /><path clip-path="url(#clip400)" d="M1249.93 1517.37 Q1246.32 1517.37 1244.49 1520.93 Q1242.69 1524.47 1242.69 1531.6 Q1242.69 1538.71 1244.49 1542.27 Q1246.32 1545.82 1249.93 1545.82 Q1253.57 1545.82 1255.37 1542.27 Q1257.2 1538.71 1257.2 1531.6 Q1257.2 1524.47 1255.37 1520.93 Q1253.57 1517.37 1249.93 1517.37 M1249.93 1513.66 Q1255.74 1513.66 1258.8 1518.27 Q1261.88 1522.85 1261.88 1531.6 Q1261.88 1540.33 1258.8 1544.94 Q1255.74 1549.52 1249.93 1549.52 Q1244.12 1549.52 1241.04 1544.94 Q1237.99 1540.33 1237.99 1531.6 Q1237.99 1522.85 1241.04 1518.27 Q1244.12 1513.66 1249.93 1513.66 Z" fill="#000000" fill-rule="evenodd" fill-opacity="1" /><path clip-path="url(#clip400)" d="M1270.09 1542.97 L1274.98 1542.97 L1274.98 1548.85 L1270.09 1548.85 L1270.09 1542.97 Z" fill="#000000" fill-rule="evenodd" fill-opacity="1" /><path clip-path="url(#clip400)" d="M1295.16 1517.37 Q1291.55 1517.37 1289.72 1520.93 Q1287.92 1524.47 1287.92 1531.6 Q1287.92 1538.71 1289.72 1542.27 Q1291.55 1545.82 1295.16 1545.82 Q1298.8 1545.82 1300.6 1542.27 Q1302.43 1538.71 1302.43 1531.6 Q1302.43 1524.47 1300.6 1520.93 Q1298.8 1517.37 1295.16 1517.37 M1295.16 1513.66 Q1300.97 1513.66 1304.03 1518.27 Q1307.11 1522.85 1307.11 1531.6 Q1307.11 1540.33 1304.03 1544.94 Q1300.97 1549.52 1295.16 1549.52 Q1289.35 1549.52 1286.27 1544.94 Q1283.22 1540.33 1283.22 1531.6 Q1283.22 1522.85 1286.27 1518.27 Q1289.35 1513.66 1295.16 1513.66 Z" fill="#000000" fill-rule="evenodd" fill-opacity="1" /><path clip-path="url(#clip400)" d="M1759.96 1517.37 Q1756.35 1517.37 1754.52 1520.93 Q1752.72 1524.47 1752.72 1531.6 Q1752.72 1538.71 1754.52 1542.27 Q1756.35 1545.82 1759.96 1545.82 Q1763.6 1545.82 1765.4 1542.27 Q1767.23 1538.71 1767.23 1531.6 Q1767.23 1524.47 1765.4 1520.93 Q1763.6 1517.37 1759.96 1517.37 M1759.96 1513.66 Q1765.77 1513.66 1768.83 1518.27 Q1771.91 1522.85 1771.91 1531.6 Q1771.91 1540.33 1768.83 1544.94 Q1765.77 1549.52 1759.96 1549.52 Q1754.15 1549.52 1751.07 1544.94 Q1748.02 1540.33 1748.02 1531.6 Q1748.02 1522.85 1751.07 1518.27 Q1754.15 1513.66 1759.96 1513.66 Z" fill="#000000" fill-rule="evenodd" fill-opacity="1" /><path clip-path="url(#clip400)" d="M1780.12 1542.97 L1785.01 1542.97 L1785.01 1548.85 L1780.12 1548.85 L1780.12 1542.97 Z" fill="#000000" fill-rule="evenodd" fill-opacity="1" /><path clip-path="url(#clip400)" d="M1795.24 1514.29 L1813.6 1514.29 L1813.6 1518.22 L1799.52 1518.22 L1799.52 1526.7 Q1800.54 1526.35 1801.56 1526.19 Q1802.58 1526 1803.6 1526 Q1809.38 1526 1812.76 1529.17 Q1816.14 1532.34 1816.14 1537.76 Q1816.14 1543.34 1812.67 1546.44 Q1809.2 1549.52 1802.88 1549.52 Q1800.7 1549.52 1798.43 1549.15 Q1796.19 1548.78 1793.78 1548.04 L1793.78 1543.34 Q1795.86 1544.47 1798.09 1545.03 Q1800.31 1545.58 1802.79 1545.58 Q1806.79 1545.58 1809.13 1543.48 Q1811.47 1541.37 1811.47 1537.76 Q1811.47 1534.15 1809.13 1532.04 Q1806.79 1529.94 1802.79 1529.94 Q1800.91 1529.94 1799.04 1530.35 Q1797.18 1530.77 1795.24 1531.65 L1795.24 1514.29 Z" fill="#000000" fill-rule="evenodd" fill-opacity="1" /><path clip-path="url(#clip400)" d="M2258.76 1544.91 L2266.4 1544.91 L2266.4 1518.55 L2258.09 1520.21 L2258.09 1515.95 L2266.36 1514.29 L2271.03 1514.29 L2271.03 1544.91 L2278.67 1544.91 L2278.67 1548.85 L2258.76 1548.85 L2258.76 1544.91 Z" fill="#000000" fill-rule="evenodd" fill-opacity="1" /><path clip-path="url(#clip400)" d="M2288.12 1542.97 L2293 1542.97 L2293 1548.85 L2288.12 1548.85 L2288.12 1542.97 Z" fill="#000000" fill-rule="evenodd" fill-opacity="1" /><path clip-path="url(#clip400)" d="M2313.19 1517.37 Q2309.57 1517.37 2307.75 1520.93 Q2305.94 1524.47 2305.94 1531.6 Q2305.94 1538.71 2307.75 1542.27 Q2309.57 1545.82 2313.19 1545.82 Q2316.82 1545.82 2318.63 1542.27 Q2320.45 1538.71 2320.45 1531.6 Q2320.45 1524.47 2318.63 1520.93 Q2316.82 1517.37 2313.19 1517.37 M2313.19 1513.66 Q2319 1513.66 2322.05 1518.27 Q2325.13 1522.85 2325.13 1531.6 Q2325.13 1540.33 2322.05 1544.94 Q2319 1549.52 2313.19 1549.52 Q2307.38 1549.52 2304.3 1544.94 Q2301.24 1540.33 2301.24 1531.6 Q2301.24 1522.85 2304.3 1518.27 Q2307.38 1513.66 2313.19 1513.66 Z" fill="#000000" fill-rule="evenodd" fill-opacity="1" /><polyline clip-path="url(#clip402)" style="stroke:#000000; stroke-linecap:round; stroke-linejoin:round; stroke-width:2; stroke-opacity:0.1; fill:none" points="192.339,1328.71 2352.76,1328.71 "/>
<polyline clip-path="url(#clip402)" style="stroke:#000000; stroke-linecap:round; stroke-linejoin:round; stroke-width:2; stroke-opacity:0.1; fill:none" points="192.339,1160.85 2352.76,1160.85 "/>
<polyline clip-path="url(#clip402)" style="stroke:#000000; stroke-linecap:round; stroke-linejoin:round; stroke-width:2; stroke-opacity:0.1; fill:none" points="192.339,992.996 2352.76,992.996 "/>
<polyline clip-path="url(#clip402)" style="stroke:#000000; stroke-linecap:round; stroke-linejoin:round; stroke-width:2; stroke-opacity:0.1; fill:none" points="192.339,825.138 2352.76,825.138 "/>
<polyline clip-path="url(#clip402)" style="stroke:#000000; stroke-linecap:round; stroke-linejoin:round; stroke-width:2; stroke-opacity:0.1; fill:none" points="192.339,657.28 2352.76,657.28 "/>
<polyline clip-path="url(#clip402)" style="stroke:#000000; stroke-linecap:round; stroke-linejoin:round; stroke-width:2; stroke-opacity:0.1; fill:none" points="192.339,489.422 2352.76,489.422 "/>
<polyline clip-path="url(#clip402)" style="stroke:#000000; stroke-linecap:round; stroke-linejoin:round; stroke-width:2; stroke-opacity:0.1; fill:none" points="192.339,321.563 2352.76,321.563 "/>
<polyline clip-path="url(#clip402)" style="stroke:#000000; stroke-linecap:round; stroke-linejoin:round; stroke-width:2; stroke-opacity:0.1; fill:none" points="192.339,153.705 2352.76,153.705 "/>
<polyline clip-path="url(#clip400)" style="stroke:#000000; stroke-linecap:round; stroke-linejoin:round; stroke-width:4; stroke-opacity:1; fill:none" points="192.339,1486.45 192.339,47.2441 "/>
<polyline clip-path="url(#clip400)" style="stroke:#000000; stroke-linecap:round; stroke-linejoin:round; stroke-width:4; stroke-opacity:1; fill:none" points="192.339,1328.71 211.236,1328.71 "/>
<polyline clip-path="url(#clip400)" style="stroke:#000000; stroke-linecap:round; stroke-linejoin:round; stroke-width:4; stroke-opacity:1; fill:none" points="192.339,1160.85 211.236,1160.85 "/>
<polyline clip-path="url(#clip400)" style="stroke:#000000; stroke-linecap:round; stroke-linejoin:round; stroke-width:4; stroke-opacity:1; fill:none" points="192.339,992.996 211.236,992.996 "/>
<polyline clip-path="url(#clip400)" style="stroke:#000000; stroke-linecap:round; stroke-linejoin:round; stroke-width:4; stroke-opacity:1; fill:none" points="192.339,825.138 211.236,825.138 "/>
<polyline clip-path="url(#clip400)" style="stroke:#000000; stroke-linecap:round; stroke-linejoin:round; stroke-width:4; stroke-opacity:1; fill:none" points="192.339,657.28 211.236,657.28 "/>
<polyline clip-path="url(#clip400)" style="stroke:#000000; stroke-linecap:round; stroke-linejoin:round; stroke-width:4; stroke-opacity:1; fill:none" points="192.339,489.422 211.236,489.422 "/>
<polyline clip-path="url(#clip400)" style="stroke:#000000; stroke-linecap:round; stroke-linejoin:round; stroke-width:4; stroke-opacity:1; fill:none" points="192.339,321.563 211.236,321.563 "/>
<polyline clip-path="url(#clip400)" style="stroke:#000000; stroke-linecap:round; stroke-linejoin:round; stroke-width:4; stroke-opacity:1; fill:none" points="192.339,153.705 211.236,153.705 "/>
<path clip-path="url(#clip400)" d="M50.9921 1329.16 L80.6679 1329.16 L80.6679 1333.1 L50.9921 1333.1 L50.9921 1329.16 Z" fill="#000000" fill-rule="evenodd" fill-opacity="1" /><path clip-path="url(#clip400)" d="M100.76 1314.51 Q97.1493 1314.51 95.3206 1318.08 Q93.515 1321.62 93.515 1328.75 Q93.515 1335.85 95.3206 1339.42 Q97.1493 1342.96 100.76 1342.96 Q104.395 1342.96 106.2 1339.42 Q108.029 1335.85 108.029 1328.75 Q108.029 1321.62 106.2 1318.08 Q104.395 1314.51 100.76 1314.51 M100.76 1310.81 Q106.571 1310.81 109.626 1315.41 Q112.705 1320 112.705 1328.75 Q112.705 1337.47 109.626 1342.08 Q106.571 1346.66 100.76 1346.66 Q94.9502 1346.66 91.8715 1342.08 Q88.816 1337.47 88.816 1328.75 Q88.816 1320 91.8715 1315.41 Q94.9502 1310.81 100.76 1310.81 Z" fill="#000000" fill-rule="evenodd" fill-opacity="1" /><path clip-path="url(#clip400)" d="M120.922 1340.11 L125.807 1340.11 L125.807 1345.99 L120.922 1345.99 L120.922 1340.11 Z" fill="#000000" fill-rule="evenodd" fill-opacity="1" /><path clip-path="url(#clip400)" d="M140.019 1342.06 L156.339 1342.06 L156.339 1345.99 L134.394 1345.99 L134.394 1342.06 Q137.056 1339.3 141.64 1334.67 Q146.246 1330.02 147.427 1328.68 Q149.672 1326.15 150.552 1324.42 Q151.455 1322.66 151.455 1320.97 Q151.455 1318.21 149.51 1316.48 Q147.589 1314.74 144.487 1314.74 Q142.288 1314.74 139.834 1315.51 Q137.404 1316.27 134.626 1317.82 L134.626 1313.1 Q137.45 1311.96 139.904 1311.39 Q142.357 1310.81 144.394 1310.81 Q149.765 1310.81 152.959 1313.49 Q156.154 1316.18 156.154 1320.67 Q156.154 1322.8 155.343 1324.72 Q154.556 1326.62 152.45 1329.21 Q151.871 1329.88 148.769 1333.1 Q145.668 1336.29 140.019 1342.06 Z" fill="#000000" fill-rule="evenodd" fill-opacity="1" /><path clip-path="url(#clip400)" d="M99.1632 1146.65 Q95.5521 1146.65 93.7234 1150.22 Q91.9178 1153.76 91.9178 1160.89 Q91.9178 1168 93.7234 1171.56 Q95.5521 1175.1 99.1632 1175.1 Q102.797 1175.1 104.603 1171.56 Q106.432 1168 106.432 1160.89 Q106.432 1153.76 104.603 1150.22 Q102.797 1146.65 99.1632 1146.65 M99.1632 1142.95 Q104.973 1142.95 108.029 1147.56 Q111.108 1152.14 111.108 1160.89 Q111.108 1169.62 108.029 1174.22 Q104.973 1178.81 99.1632 1178.81 Q93.353 1178.81 90.2743 1174.22 Q87.2188 1169.62 87.2188 1160.89 Q87.2188 1152.14 90.2743 1147.56 Q93.353 1142.95 99.1632 1142.95 Z" fill="#000000" fill-rule="evenodd" fill-opacity="1" /><path clip-path="url(#clip400)" d="M119.325 1172.25 L124.209 1172.25 L124.209 1178.13 L119.325 1178.13 L119.325 1172.25 Z" fill="#000000" fill-rule="evenodd" fill-opacity="1" /><path clip-path="url(#clip400)" d="M144.394 1146.65 Q140.783 1146.65 138.955 1150.22 Q137.149 1153.76 137.149 1160.89 Q137.149 1168 138.955 1171.56 Q140.783 1175.1 144.394 1175.1 Q148.029 1175.1 149.834 1171.56 Q151.663 1168 151.663 1160.89 Q151.663 1153.76 149.834 1150.22 Q148.029 1146.65 144.394 1146.65 M144.394 1142.95 Q150.205 1142.95 153.26 1147.56 Q156.339 1152.14 156.339 1160.89 Q156.339 1169.62 153.26 1174.22 Q150.205 1178.81 144.394 1178.81 Q138.584 1178.81 135.506 1174.22 Q132.45 1169.62 132.45 1160.89 Q132.45 1152.14 135.506 1147.56 Q138.584 1142.95 144.394 1142.95 Z" fill="#000000" fill-rule="evenodd" fill-opacity="1" /><path clip-path="url(#clip400)" d="M100.76 978.795 Q97.1493 978.795 95.3206 982.36 Q93.515 985.901 93.515 993.031 Q93.515 1000.14 95.3206 1003.7 Q97.1493 1007.24 100.76 1007.24 Q104.395 1007.24 106.2 1003.7 Q108.029 1000.14 108.029 993.031 Q108.029 985.901 106.2 982.36 Q104.395 978.795 100.76 978.795 M100.76 975.091 Q106.571 975.091 109.626 979.698 Q112.705 984.281 112.705 993.031 Q112.705 1001.76 109.626 1006.36 Q106.571 1010.95 100.76 1010.95 Q94.9502 1010.95 91.8715 1006.36 Q88.816 1001.76 88.816 993.031 Q88.816 984.281 91.8715 979.698 Q94.9502 975.091 100.76 975.091 Z" fill="#000000" fill-rule="evenodd" fill-opacity="1" /><path clip-path="url(#clip400)" d="M120.922 1004.4 L125.807 1004.4 L125.807 1010.28 L120.922 1010.28 L120.922 1004.4 Z" fill="#000000" fill-rule="evenodd" fill-opacity="1" /><path clip-path="url(#clip400)" d="M140.019 1006.34 L156.339 1006.34 L156.339 1010.28 L134.394 1010.28 L134.394 1006.34 Q137.056 1003.59 141.64 998.957 Q146.246 994.304 147.427 992.961 Q149.672 990.438 150.552 988.702 Q151.455 986.943 151.455 985.253 Q151.455 982.499 149.51 980.762 Q147.589 979.026 144.487 979.026 Q142.288 979.026 139.834 979.79 Q137.404 980.554 134.626 982.105 L134.626 977.383 Q137.45 976.249 139.904 975.67 Q142.357 975.091 144.394 975.091 Q149.765 975.091 152.959 977.776 Q156.154 980.462 156.154 984.952 Q156.154 987.082 155.343 989.003 Q154.556 990.901 152.45 993.494 Q151.871 994.165 148.769 997.383 Q145.668 1000.58 140.019 1006.34 Z" fill="#000000" fill-rule="evenodd" fill-opacity="1" /><path clip-path="url(#clip400)" d="M98.6771 810.937 Q95.066 810.937 93.2373 814.501 Q91.4317 818.043 91.4317 825.173 Q91.4317 832.279 93.2373 835.844 Q95.066 839.386 98.6771 839.386 Q102.311 839.386 104.117 835.844 Q105.946 832.279 105.946 825.173 Q105.946 818.043 104.117 814.501 Q102.311 810.937 98.6771 810.937 M98.6771 807.233 Q104.487 807.233 107.543 811.839 Q110.621 816.423 110.621 825.173 Q110.621 833.9 107.543 838.506 Q104.487 843.089 98.6771 843.089 Q92.8669 843.089 89.7882 838.506 Q86.7327 833.9 86.7327 825.173 Q86.7327 816.423 89.7882 811.839 Q92.8669 807.233 98.6771 807.233 Z" fill="#000000" fill-rule="evenodd" fill-opacity="1" /><path clip-path="url(#clip400)" d="M118.839 836.538 L123.723 836.538 L123.723 842.418 L118.839 842.418 L118.839 836.538 Z" fill="#000000" fill-rule="evenodd" fill-opacity="1" /><path clip-path="url(#clip400)" d="M146.756 811.932 L134.95 830.381 L146.756 830.381 L146.756 811.932 M145.529 807.858 L151.408 807.858 L151.408 830.381 L156.339 830.381 L156.339 834.27 L151.408 834.27 L151.408 842.418 L146.756 842.418 L146.756 834.27 L131.154 834.27 L131.154 829.756 L145.529 807.858 Z" fill="#000000" fill-rule="evenodd" fill-opacity="1" /><path clip-path="url(#clip400)" d="M99.0011 643.079 Q95.39 643.079 93.5613 646.643 Q91.7558 650.185 91.7558 657.315 Q91.7558 664.421 93.5613 667.986 Q95.39 671.527 99.0011 671.527 Q102.635 671.527 104.441 667.986 Q106.27 664.421 106.27 657.315 Q106.27 650.185 104.441 646.643 Q102.635 643.079 99.0011 643.079 M99.0011 639.375 Q104.811 639.375 107.867 643.981 Q110.946 648.565 110.946 657.315 Q110.946 666.041 107.867 670.648 Q104.811 675.231 99.0011 675.231 Q93.191 675.231 90.1123 670.648 Q87.0567 666.041 87.0567 657.315 Q87.0567 648.565 90.1123 643.981 Q93.191 639.375 99.0011 639.375 Z" fill="#000000" fill-rule="evenodd" fill-opacity="1" /><path clip-path="url(#clip400)" d="M119.163 668.68 L124.047 668.68 L124.047 674.56 L119.163 674.56 L119.163 668.68 Z" fill="#000000" fill-rule="evenodd" fill-opacity="1" /><path clip-path="url(#clip400)" d="M144.811 655.416 Q141.663 655.416 139.811 657.569 Q137.982 659.722 137.982 663.472 Q137.982 667.199 139.811 669.375 Q141.663 671.527 144.811 671.527 Q147.959 671.527 149.788 669.375 Q151.64 667.199 151.64 663.472 Q151.64 659.722 149.788 657.569 Q147.959 655.416 144.811 655.416 M154.093 640.764 L154.093 645.023 Q152.334 644.19 150.529 643.75 Q148.746 643.31 146.987 643.31 Q142.357 643.31 139.904 646.435 Q137.473 649.56 137.126 655.879 Q138.492 653.865 140.552 652.801 Q142.612 651.713 145.089 651.713 Q150.297 651.713 153.306 654.884 Q156.339 658.032 156.339 663.472 Q156.339 668.796 153.191 672.014 Q150.043 675.231 144.811 675.231 Q138.816 675.231 135.644 670.648 Q132.473 666.041 132.473 657.315 Q132.473 649.12 136.362 644.259 Q140.251 639.375 146.802 639.375 Q148.561 639.375 150.343 639.722 Q152.149 640.069 154.093 640.764 Z" fill="#000000" fill-rule="evenodd" fill-opacity="1" /><path clip-path="url(#clip400)" d="M99.2558 475.22 Q95.6447 475.22 93.816 478.785 Q92.0104 482.327 92.0104 489.456 Q92.0104 496.563 93.816 500.128 Q95.6447 503.669 99.2558 503.669 Q102.89 503.669 104.696 500.128 Q106.524 496.563 106.524 489.456 Q106.524 482.327 104.696 478.785 Q102.89 475.22 99.2558 475.22 M99.2558 471.517 Q105.066 471.517 108.121 476.123 Q111.2 480.706 111.2 489.456 Q111.2 498.183 108.121 502.79 Q105.066 507.373 99.2558 507.373 Q93.4456 507.373 90.3669 502.79 Q87.3114 498.183 87.3114 489.456 Q87.3114 480.706 90.3669 476.123 Q93.4456 471.517 99.2558 471.517 Z" fill="#000000" fill-rule="evenodd" fill-opacity="1" /><path clip-path="url(#clip400)" d="M119.418 500.822 L124.302 500.822 L124.302 506.702 L119.418 506.702 L119.418 500.822 Z" fill="#000000" fill-rule="evenodd" fill-opacity="1" /><path clip-path="url(#clip400)" d="M144.487 490.29 Q141.154 490.29 139.232 492.072 Q137.334 493.854 137.334 496.979 Q137.334 500.104 139.232 501.887 Q141.154 503.669 144.487 503.669 Q147.82 503.669 149.742 501.887 Q151.663 500.081 151.663 496.979 Q151.663 493.854 149.742 492.072 Q147.843 490.29 144.487 490.29 M139.811 488.299 Q136.802 487.558 135.112 485.498 Q133.445 483.438 133.445 480.475 Q133.445 476.331 136.385 473.924 Q139.348 471.517 144.487 471.517 Q149.649 471.517 152.589 473.924 Q155.529 476.331 155.529 480.475 Q155.529 483.438 153.839 485.498 Q152.172 487.558 149.186 488.299 Q152.566 489.086 154.441 491.378 Q156.339 493.669 156.339 496.979 Q156.339 502.003 153.26 504.688 Q150.205 507.373 144.487 507.373 Q138.769 507.373 135.691 504.688 Q132.635 502.003 132.635 496.979 Q132.635 493.669 134.533 491.378 Q136.431 489.086 139.811 488.299 M138.098 480.915 Q138.098 483.6 139.765 485.105 Q141.455 486.609 144.487 486.609 Q147.496 486.609 149.186 485.105 Q150.899 483.6 150.899 480.915 Q150.899 478.23 149.186 476.725 Q147.496 475.22 144.487 475.22 Q141.455 475.22 139.765 476.725 Q138.098 478.23 138.098 480.915 Z" fill="#000000" fill-rule="evenodd" fill-opacity="1" /><path clip-path="url(#clip400)" d="M89.9734 334.908 L97.6122 334.908 L97.6122 308.543 L89.3021 310.209 L89.3021 305.95 L97.566 304.283 L102.242 304.283 L102.242 334.908 L109.881 334.908 L109.881 338.843 L89.9734 338.843 L89.9734 334.908 Z" fill="#000000" fill-rule="evenodd" fill-opacity="1" /><path clip-path="url(#clip400)" d="M119.325 332.964 L124.209 332.964 L124.209 338.843 L119.325 338.843 L119.325 332.964 Z" fill="#000000" fill-rule="evenodd" fill-opacity="1" /><path clip-path="url(#clip400)" d="M144.394 307.362 Q140.783 307.362 138.955 310.927 Q137.149 314.469 137.149 321.598 Q137.149 328.705 138.955 332.269 Q140.783 335.811 144.394 335.811 Q148.029 335.811 149.834 332.269 Q151.663 328.705 151.663 321.598 Q151.663 314.469 149.834 310.927 Q148.029 307.362 144.394 307.362 M144.394 303.658 Q150.205 303.658 153.26 308.265 Q156.339 312.848 156.339 321.598 Q156.339 330.325 153.26 334.931 Q150.205 339.515 144.394 339.515 Q138.584 339.515 135.506 334.931 Q132.45 330.325 132.45 321.598 Q132.45 312.848 135.506 308.265 Q138.584 303.658 144.394 303.658 Z" fill="#000000" fill-rule="evenodd" fill-opacity="1" /><path clip-path="url(#clip400)" d="M91.5706 167.05 L99.2095 167.05 L99.2095 140.685 L90.8993 142.351 L90.8993 138.092 L99.1632 136.425 L103.839 136.425 L103.839 167.05 L111.478 167.05 L111.478 170.985 L91.5706 170.985 L91.5706 167.05 Z" fill="#000000" fill-rule="evenodd" fill-opacity="1" /><path clip-path="url(#clip400)" d="M120.922 165.106 L125.807 165.106 L125.807 170.985 L120.922 170.985 L120.922 165.106 Z" fill="#000000" fill-rule="evenodd" fill-opacity="1" /><path clip-path="url(#clip400)" d="M140.019 167.05 L156.339 167.05 L156.339 170.985 L134.394 170.985 L134.394 167.05 Q137.056 164.296 141.64 159.666 Q146.246 155.013 147.427 153.671 Q149.672 151.147 150.552 149.411 Q151.455 147.652 151.455 145.962 Q151.455 143.208 149.51 141.472 Q147.589 139.735 144.487 139.735 Q142.288 139.735 139.834 140.499 Q137.404 141.263 134.626 142.814 L134.626 138.092 Q137.45 136.958 139.904 136.379 Q142.357 135.8 144.394 135.8 Q149.765 135.8 152.959 138.485 Q156.154 141.171 156.154 145.661 Q156.154 147.791 155.343 149.712 Q154.556 151.61 152.45 154.203 Q151.871 154.874 148.769 158.092 Q145.668 161.286 140.019 167.05 Z" fill="#000000" fill-rule="evenodd" fill-opacity="1" /><polyline clip-path="url(#clip402)" style="stroke:#009af9; stroke-linecap:round; stroke-linejoin:round; stroke-width:16; stroke-opacity:1; fill:none" stroke-dasharray="8, 16" points="253.483,1034.92 263.725,1021.79 273.966,1009.13 284.208,998.967 294.45,993.341 304.692,993.824 314.934,1001.12 325.176,1014.94 335.418,1034.22 345.659,1057.56 355.901,1083.64 366.143,1111.43 376.385,1140.22 386.627,1169.51 396.869,1198.79 407.111,1227.4 417.352,1254.42 427.594,1278.69 437.836,1298.97 448.078,1314.21 458.32,1323.82 468.562,1327.72 478.803,1326.23 489.045,1319.8 499.287,1308.81 509.529,1293.48 519.771,1273.97 530.013,1250.31 540.255,1222.49 550.497,1190.82 560.738,1156.94 570.98,1124.89 581.222,1099.14 591.464,1079.43 601.706,1061.07 611.948,1040.35 622.19,1017.46 632.431,996.919 642.673,985.087 652.915,984.913 663.157,993.999 673.399,1008.19 683.641,1024.86 693.882,1043.39 704.124,1064.44 714.366,1089.05 724.608,1117.41 734.85,1148.15 745.092,1179.17 755.334,1208.92 765.575,1236.68 775.817,1262.07 786.059,1284.69 796.301,1304.1 806.543,1319.67 816.785,1329.9 827.027,1332.59 837.268,1326.88 847.51,1315 857.752,1300.34 867.994,1284.67 878.236,1267.43 888.478,1246.7 898.72,1220.66 908.961,1189.26 919.203,1153.86 929.445,1114.76 939.687,1075.08 949.929,1046.69 960.171,1044.5 970.413,1059.53 980.654,1061.29 990.896,1039.09 1001.14,1000.1 1011.38,963.182 1021.62,957.486 1031.86,984.768 1042.11,1022.27 1052.35,1084.58 1062.59,1144.67 1072.83,1166.81 1083.07,1143.94 1093.31,1096.45 1103.56,1077.85 1113.8,1127.29 1124.04,1226.73 1134.28,1348.12 1144.52,1445.72 1154.77,1421.1 1165.01,1358.82 1175.25,1227.07 1185.49,1189.44 1195.73,1284.27 1205.98,1305.37 1216.22,1315.04 1226.46,1318.76 1236.7,1305.8 1246.94,1262.62 1257.18,1144 1267.43,888.452 1277.67,584.88 1287.91,373.667 1298.15,297.192 1308.39,292.936 1318.64,311.526 1328.88,329.586 1339.12,339.114 1349.36,317.411 1359.6,248.72 1369.84,263.082 1380.09,328.229 1390.33,367.826 1400.57,398.899 1410.81,358.221 1421.05,294.909 1431.3,211.073 1441.54,247.789 1451.78,314.318 1462.02,382.317 1472.26,467.091 1482.51,465.378 1492.75,370.52 1502.99,252.244 1513.23,187.841 1523.47,194.496 1533.71,259.664 1543.96,341.942 1554.2,389.759 1564.44,367.017 1574.68,350.929 1584.92,374.078 1595.17,354.826 1605.41,308.414 1615.65,263.563 1625.89,234.727 1636.13,231.058 1646.38,257.195 1656.62,307.576 1666.86,365.817 1677.1,410.698 1687.34,429.083 1697.58,416.608 1707.83,373.335 1718.07,309.01 1728.31,245.019 1738.55,203.751 1748.79,200.126 1759.04,234.81 1769.28,293.236 1779.52,355.746 1789.76,406.505 1800,435.481 1810.24,436.733 1820.49,408.119 1830.73,354.724 1840.97,289.5 1851.21,227.148 1861.45,182.898 1871.7,180.001 1881.94,232.764 1892.18,317.608 1902.42,398.379 1912.66,454.294 1922.91,476.305 1933.15,460.36 1943.39,408.149 1953.63,328.164 1963.87,236.269 1974.11,158.548 1984.36,127.205 1994.6,161.155 2004.84,248.591 2015.08,354.073 2025.32,443.151 2035.57,496.485 2045.81,506.679 2056.05,471.803 2066.29,393.939 2076.53,284.742 2086.77,175.061 2097.02,108.855 2107.26,110.822 2117.5,174.746 2127.74,278.634 2137.98,390.268 2148.23,479.791 2158.47,530.566 2168.71,534.312 2178.95,484.159 2189.19,376.497 2199.44,232.828 2209.68,131.909 2219.92,130.667 2230.16,184.094 2240.4,249.755 2250.64,317.587 2260.89,384.189 2271.13,444.723 2281.37,494.976 2291.61,532.42 "/>
<polyline clip-path="url(#clip402)" style="stroke:#e26f46; stroke-linecap:round; stroke-linejoin:round; stroke-width:4; stroke-opacity:1; fill:none" points="253.483,1034.8 263.725,1016.91 273.966,1003.72 284.208,995.664 294.45,992.997 304.692,995.808 314.934,1004.01 325.176,1017.32 335.418,1035.32 345.659,1057.42 355.901,1082.9 366.143,1110.91 376.385,1140.56 386.627,1170.87 396.869,1200.86 407.111,1229.54 417.352,1255.97 427.594,1279.3 437.836,1298.77 448.078,1313.73 458.32,1323.71 468.562,1328.37 478.803,1327.56 489.045,1321.32 499.287,1309.83 509.529,1293.48 519.771,1272.81 530.013,1248.48 540.255,1221.29 550.497,1192.13 560.738,1161.94 570.98,1131.73 581.222,1102.46 591.464,1075.1 601.706,1050.53 611.948,1029.57 622.19,1012.89 632.431,1001.05 642.673,994.414 652.915,993.213 663.157,997.484 673.399,1007.09 683.641,1021.71 693.882,1040.87 704.124,1063.95 714.366,1090.19 724.608,1118.74 734.85,1148.66 745.092,1178.98 755.334,1208.71 765.575,1236.88 775.817,1262.56 786.059,1284.93 796.301,1303.24 806.543,1316.91 816.785,1325.49 827.027,1328.69 837.268,1326.42 847.51,1318.74 857.752,1305.91 867.994,1288.34 878.236,1266.62 888.478,1241.44 898.72,1213.63 908.961,1184.1 919.203,1153.81 929.445,1123.75 939.687,1094.9 949.929,1068.21 960.171,1044.53 970.413,1024.66 980.654,1009.23 990.896,998.746 1001.14,993.554 1011.38,993.823 1021.62,999.544 1031.86,1010.53 1042.11,1026.42 1052.35,1046.7 1062.59,1070.7 1072.83,1097.65 1083.07,1126.66 1093.31,1156.79 1103.56,1187.04 1113.8,1216.45 1124.04,1244.04 1134.28,1268.91 1144.52,1290.26 1154.77,1307.38 1165.01,1319.73 1175.25,1326.88 1185.49,1328.62 1195.73,1324.88 1205.98,1315.79 1216.22,1301.64 1226.46,1282.9 1236.7,1260.18 1246.94,1234.21 1257.18,1205.85 1267.43,1176.02 1277.67,320.344 1287.91,318.957 1298.15,320.22 1308.39,324.423 1318.64,330.278 1328.88,335.311 1339.12,336.801 1349.36,332.929 1359.6,323.696 1369.84,311.25 1380.09,299.407 1390.33,292.488 1400.57,293.815 1410.81,304.372 1421.05,322.127 1431.3,342.334 1441.54,358.79 1451.78,365.731 1462.02,359.789 1472.26,341.353 1482.51,314.836 1492.75,287.66 1502.99,268.183 1513.23,263.137 1523.47,275.369 1533.71,302.619 1543.96,337.812 1554.2,370.872 1564.44,391.606 1574.68,392.834 1584.92,372.802 1595.17,336.091 1605.41,292.635 1615.65,255.046 1625.89,234.952 1636.13,239.42 1646.38,268.552 1656.62,315.059 1666.86,366.043 1677.1,406.571 1687.34,424.043 1697.58,412.095 1707.83,372.805 1718.07,316.491 1728.31,259.024 1738.55,217.356 1748.79,204.523 1759.04,225.595 1769.28,275.82 1779.52,341.617 1789.76,404.23 1800,445.081 1810.24,451.268 1820.49,419.615 1830.73,357.983 1840.97,283.362 1851.21,217.205 1861.45,179.252 1871.7,181.651 1881.94,225.112 1892.18,298.299 1902.42,380.754 1912.66,448.617 1922.91,481.524 1933.15,468.71 1943.39,412.478 1953.63,327.934 1963.87,238.947 1974.11,171.414 1984.36,145.725 1994.6,170.62 2004.84,240.286 2015.08,335.644 2025.32,429.562 2035.57,494.572 2045.81,510.901 2056.05,472.468 2066.29,389.032 2076.53,283.752 2086.77,186.772 2097.02,126.588 2107.26,121.679 2117.5,174.856 2127.74,272.053 2137.98,386.02 2148.23,483.956 2158.47,536.95 2168.71,528.513 2178.95,459.673 2189.19,349.086 2199.44,227.995 2209.68,131.408 2219.92,87.9763 2230.16,111.505 2240.4,196.603 2250.64,319.84 2260.89,446.186 2271.13,538.967 2281.37,570.506 2291.61,530.373 "/>
<path clip-path="url(#clip400)" d="M264.353 250.738 L707.222 250.738 L707.222 95.2176 L264.353 95.2176  Z" fill="#ffffff" fill-rule="evenodd" fill-opacity="1"/>
<polyline clip-path="url(#clip400)" style="stroke:#000000; stroke-linecap:round; stroke-linejoin:round; stroke-width:4; stroke-opacity:1; fill:none" points="264.353,250.738 707.222,250.738 707.222,95.2176 264.353,95.2176 264.353,250.738 "/>
<polyline clip-path="url(#clip400)" style="stroke:#009af9; stroke-linecap:round; stroke-linejoin:round; stroke-width:16; stroke-opacity:1; fill:none" stroke-dasharray="8, 16" points="288.357,147.058 432.385,147.058 "/>
<path clip-path="url(#clip400)" d="M461.066 133.62 L461.066 146.606 L466.945 146.606 Q470.209 146.606 471.992 144.916 Q473.774 143.227 473.774 140.102 Q473.774 137 471.992 135.31 Q470.209 133.62 466.945 133.62 L461.066 133.62 M456.39 129.778 L466.945 129.778 Q472.755 129.778 475.718 132.416 Q478.704 135.032 478.704 140.102 Q478.704 145.217 475.718 147.833 Q472.755 150.449 466.945 150.449 L461.066 150.449 L461.066 164.338 L456.39 164.338 L456.39 129.778 Z" fill="#000000" fill-rule="evenodd" fill-opacity="1" /><path clip-path="url(#clip400)" d="M498.982 142.393 Q498.265 141.977 497.408 141.791 Q496.575 141.583 495.556 141.583 Q491.945 141.583 490.001 143.944 Q488.079 146.282 488.079 150.68 L488.079 164.338 L483.797 164.338 L483.797 138.412 L488.079 138.412 L488.079 142.44 Q489.422 140.078 491.575 138.944 Q493.728 137.787 496.806 137.787 Q497.246 137.787 497.778 137.856 Q498.311 137.903 498.959 138.018 L498.982 142.393 Z" fill="#000000" fill-rule="evenodd" fill-opacity="1" /><path clip-path="url(#clip400)" d="M524.584 150.31 L524.584 152.393 L505.001 152.393 Q505.278 156.791 507.639 159.106 Q510.024 161.398 514.26 161.398 Q516.714 161.398 519.005 160.796 Q521.32 160.194 523.588 158.99 L523.588 163.018 Q521.297 163.99 518.889 164.5 Q516.482 165.009 514.005 165.009 Q507.802 165.009 504.167 161.398 Q500.556 157.787 500.556 151.629 Q500.556 145.264 503.982 141.537 Q507.431 137.787 513.264 137.787 Q518.496 137.787 521.528 141.166 Q524.584 144.523 524.584 150.31 M520.325 149.06 Q520.278 145.565 518.357 143.481 Q516.459 141.398 513.311 141.398 Q509.746 141.398 507.593 143.412 Q505.464 145.426 505.14 149.083 L520.325 149.06 Z" fill="#000000" fill-rule="evenodd" fill-opacity="1" /><path clip-path="url(#clip400)" d="M548.635 142.347 L548.635 128.319 L552.894 128.319 L552.894 164.338 L548.635 164.338 L548.635 160.449 Q547.292 162.763 545.232 163.898 Q543.195 165.009 540.325 165.009 Q535.625 165.009 532.663 161.259 Q529.723 157.509 529.723 151.398 Q529.723 145.287 532.663 141.537 Q535.625 137.787 540.325 137.787 Q543.195 137.787 545.232 138.921 Q547.292 140.032 548.635 142.347 M534.121 151.398 Q534.121 156.097 536.042 158.782 Q537.987 161.444 541.366 161.444 Q544.746 161.444 546.69 158.782 Q548.635 156.097 548.635 151.398 Q548.635 146.699 546.69 144.037 Q544.746 141.352 541.366 141.352 Q537.987 141.352 536.042 144.037 Q534.121 146.699 534.121 151.398 Z" fill="#000000" fill-rule="evenodd" fill-opacity="1" /><path clip-path="url(#clip400)" d="M561.667 138.412 L565.926 138.412 L565.926 164.338 L561.667 164.338 L561.667 138.412 M561.667 128.319 L565.926 128.319 L565.926 133.713 L561.667 133.713 L561.667 128.319 Z" fill="#000000" fill-rule="evenodd" fill-opacity="1" /><path clip-path="url(#clip400)" d="M593.496 139.407 L593.496 143.389 Q591.69 142.393 589.861 141.907 Q588.056 141.398 586.204 141.398 Q582.06 141.398 579.769 144.037 Q577.477 146.652 577.477 151.398 Q577.477 156.143 579.769 158.782 Q582.06 161.398 586.204 161.398 Q588.056 161.398 589.861 160.912 Q591.69 160.402 593.496 159.407 L593.496 163.342 Q591.713 164.176 589.792 164.592 Q587.894 165.009 585.741 165.009 Q579.884 165.009 576.435 161.328 Q572.986 157.648 572.986 151.398 Q572.986 145.055 576.459 141.421 Q579.954 137.787 586.019 137.787 Q587.986 137.787 589.861 138.203 Q591.736 138.597 593.496 139.407 Z" fill="#000000" fill-rule="evenodd" fill-opacity="1" /><path clip-path="url(#clip400)" d="M605.116 131.051 L605.116 138.412 L613.889 138.412 L613.889 141.722 L605.116 141.722 L605.116 155.796 Q605.116 158.967 605.972 159.87 Q606.852 160.773 609.514 160.773 L613.889 160.773 L613.889 164.338 L609.514 164.338 Q604.583 164.338 602.708 162.509 Q600.833 160.657 600.833 155.796 L600.833 141.722 L597.708 141.722 L597.708 138.412 L600.833 138.412 L600.833 131.051 L605.116 131.051 Z" fill="#000000" fill-rule="evenodd" fill-opacity="1" /><path clip-path="url(#clip400)" d="M619.491 138.412 L623.75 138.412 L623.75 164.338 L619.491 164.338 L619.491 138.412 M619.491 128.319 L623.75 128.319 L623.75 133.713 L619.491 133.713 L619.491 128.319 Z" fill="#000000" fill-rule="evenodd" fill-opacity="1" /><path clip-path="url(#clip400)" d="M642.708 141.398 Q639.282 141.398 637.292 144.083 Q635.301 146.745 635.301 151.398 Q635.301 156.051 637.268 158.736 Q639.259 161.398 642.708 161.398 Q646.111 161.398 648.102 158.713 Q650.092 156.027 650.092 151.398 Q650.092 146.791 648.102 144.106 Q646.111 141.398 642.708 141.398 M642.708 137.787 Q648.264 137.787 651.435 141.398 Q654.606 145.009 654.606 151.398 Q654.606 157.764 651.435 161.398 Q648.264 165.009 642.708 165.009 Q637.13 165.009 633.958 161.398 Q630.81 157.764 630.81 151.398 Q630.81 145.009 633.958 141.398 Q637.13 137.787 642.708 137.787 Z" fill="#000000" fill-rule="evenodd" fill-opacity="1" /><path clip-path="url(#clip400)" d="M683.217 148.689 L683.217 164.338 L678.958 164.338 L678.958 148.828 Q678.958 145.148 677.523 143.319 Q676.088 141.49 673.217 141.49 Q669.768 141.49 667.778 143.69 Q665.787 145.889 665.787 149.685 L665.787 164.338 L661.504 164.338 L661.504 138.412 L665.787 138.412 L665.787 142.44 Q667.315 140.102 669.375 138.944 Q671.458 137.787 674.166 137.787 Q678.634 137.787 680.926 140.565 Q683.217 143.319 683.217 148.689 Z" fill="#000000" fill-rule="evenodd" fill-opacity="1" /><polyline clip-path="url(#clip400)" style="stroke:#e26f46; stroke-linecap:round; stroke-linejoin:round; stroke-width:4; stroke-opacity:1; fill:none" points="288.357,198.898 432.385,198.898 "/>
<path clip-path="url(#clip400)" d="M456.39 181.618 L478.242 181.618 L478.242 185.553 L461.066 185.553 L461.066 195.784 L477.524 195.784 L477.524 199.719 L461.066 199.719 L461.066 212.242 L478.658 212.242 L478.658 216.178 L456.39 216.178 L456.39 181.618 Z" fill="#000000" fill-rule="evenodd" fill-opacity="1" /><path clip-path="url(#clip400)" d="M507.709 190.252 L498.334 202.867 L508.195 216.178 L503.172 216.178 L495.626 205.992 L488.079 216.178 L483.056 216.178 L493.126 202.613 L483.913 190.252 L488.936 190.252 L495.811 199.488 L502.686 190.252 L507.709 190.252 Z" fill="#000000" fill-rule="evenodd" fill-opacity="1" /><path clip-path="url(#clip400)" d="M525.996 203.145 Q520.834 203.145 518.843 204.326 Q516.852 205.506 516.852 208.354 Q516.852 210.622 518.334 211.965 Q519.838 213.284 522.408 213.284 Q525.95 213.284 528.079 210.784 Q530.232 208.261 530.232 204.094 L530.232 203.145 L525.996 203.145 M534.491 201.386 L534.491 216.178 L530.232 216.178 L530.232 212.242 Q528.774 214.603 526.598 215.738 Q524.422 216.849 521.274 216.849 Q517.292 216.849 514.931 214.627 Q512.593 212.381 512.593 208.631 Q512.593 204.256 515.51 202.034 Q518.45 199.812 524.26 199.812 L530.232 199.812 L530.232 199.395 Q530.232 196.455 528.288 194.858 Q526.366 193.238 522.871 193.238 Q520.649 193.238 518.542 193.77 Q516.436 194.303 514.491 195.367 L514.491 191.432 Q516.829 190.53 519.028 190.09 Q521.227 189.627 523.311 189.627 Q528.936 189.627 531.713 192.543 Q534.491 195.46 534.491 201.386 Z" fill="#000000" fill-rule="evenodd" fill-opacity="1" /><path clip-path="url(#clip400)" d="M561.922 191.247 L561.922 195.229 Q560.116 194.233 558.287 193.747 Q556.482 193.238 554.63 193.238 Q550.486 193.238 548.195 195.877 Q545.903 198.492 545.903 203.238 Q545.903 207.983 548.195 210.622 Q550.486 213.238 554.63 213.238 Q556.482 213.238 558.287 212.752 Q560.116 212.242 561.922 211.247 L561.922 215.182 Q560.139 216.016 558.218 216.432 Q556.32 216.849 554.167 216.849 Q548.311 216.849 544.862 213.168 Q541.412 209.488 541.412 203.238 Q541.412 196.895 544.885 193.261 Q548.38 189.627 554.445 189.627 Q556.412 189.627 558.287 190.043 Q560.162 190.437 561.922 191.247 Z" fill="#000000" fill-rule="evenodd" fill-opacity="1" /><path clip-path="url(#clip400)" d="M573.542 182.891 L573.542 190.252 L582.315 190.252 L582.315 193.562 L573.542 193.562 L573.542 207.636 Q573.542 210.807 574.398 211.71 Q575.278 212.613 577.94 212.613 L582.315 212.613 L582.315 216.178 L577.94 216.178 Q573.01 216.178 571.135 214.349 Q569.26 212.497 569.26 207.636 L569.26 193.562 L566.135 193.562 L566.135 190.252 L569.26 190.252 L569.26 182.891 L573.542 182.891 Z" fill="#000000" fill-rule="evenodd" fill-opacity="1" /></svg>
