<?xml version="1.0" encoding="utf-8"?>
<svg xmlns="http://www.w3.org/2000/svg" xmlns:xlink="http://www.w3.org/1999/xlink" width="600" height="400" viewBox="0 0 2400 1600">
<defs>
  <clipPath id="clip340">
    <rect x="0" y="0" width="2400" height="1600"/>
  </clipPath>
</defs>
<path clip-path="url(#clip340)" d="M0 1600 L2400 1600 L2400 0 L0 0  Z" fill="#ffffff" fill-rule="evenodd" fill-opacity="1"/>
<defs>
  <clipPath id="clip341">
    <rect x="480" y="0" width="1681" height="1600"/>
  </clipPath>
</defs>
<path clip-path="url(#clip340)" d="M156.274 1486.45 L2352.76 1486.45 L2352.76 47.2441 L156.274 47.2441  Z" fill="#ffffff" fill-rule="evenodd" fill-opacity="1"/>
<defs>
  <clipPath id="clip342">
    <rect x="156" y="47" width="2197" height="1440"/>
  </clipPath>
</defs>
<polyline clip-path="url(#clip342)" style="stroke:#000000; stroke-linecap:round; stroke-linejoin:round; stroke-width:2; stroke-opacity:0.1; fill:none" points="218.439,1486.45 218.439,47.2441 "/>
<polyline clip-path="url(#clip342)" style="stroke:#000000; stroke-linecap:round; stroke-linejoin:round; stroke-width:2; stroke-opacity:0.1; fill:none" points="736.477,1486.45 736.477,47.2441 "/>
<polyline clip-path="url(#clip342)" style="stroke:#000000; stroke-linecap:round; stroke-linejoin:round; stroke-width:2; stroke-opacity:0.1; fill:none" points="1254.52,1486.45 1254.52,47.2441 "/>
<polyline clip-path="url(#clip342)" style="stroke:#000000; stroke-linecap:round; stroke-linejoin:round; stroke-width:2; stroke-opacity:0.1; fill:none" points="1772.55,1486.45 1772.55,47.2441 "/>
<polyline clip-path="url(#clip342)" style="stroke:#000000; stroke-linecap:round; stroke-linejoin:round; stroke-width:2; stroke-opacity:0.1; fill:none" points="2290.59,1486.45 2290.59,47.2441 "/>
<polyline clip-path="url(#clip340)" style="stroke:#000000; stroke-linecap:round; stroke-linejoin:round; stroke-width:4; stroke-opacity:1; fill:none" points="156.274,1486.45 2352.76,1486.45 "/>
<polyline clip-path="url(#clip340)" style="stroke:#000000; stroke-linecap:round; stroke-linejoin:round; stroke-width:4; stroke-opacity:1; fill:none" points="218.439,1486.45 218.439,1467.55 "/>
<polyline clip-path="url(#clip340)" style="stroke:#000000; stroke-linecap:round; stroke-linejoin:round; stroke-width:4; stroke-opacity:1; fill:none" points="736.477,1486.45 736.477,1467.55 "/>
<polyline clip-path="url(#clip340)" style="stroke:#000000; stroke-linecap:round; stroke-linejoin:round; stroke-width:4; stroke-opacity:1; fill:none" points="1254.52,1486.45 1254.52,1467.55 "/>
<polyline clip-path="url(#clip340)" style="stroke:#000000; stroke-linecap:round; stroke-linejoin:round; stroke-width:4; stroke-opacity:1; fill:none" points="1772.55,1486.45 1772.55,1467.55 "/>
<polyline clip-path="url(#clip340)" style="stroke:#000000; stroke-linecap:round; stroke-linejoin:round; stroke-width:4; stroke-opacity:1; fill:none" points="2290.59,1486.45 2290.59,1467.55 "/>
<path clip-path="url(#clip340)" d="M164.967 1532.02 L194.643 1532.02 L194.643 1535.95 L164.967 1535.95 L164.967 1532.02 Z" fill="#000000" fill-rule="evenodd" fill-opacity="1" /><path clip-path="url(#clip340)" d="M205.545 1544.91 L213.184 1544.91 L213.184 1518.55 L204.874 1520.21 L204.874 1515.95 L213.138 1514.29 L217.814 1514.29 L217.814 1544.91 L225.453 1544.91 L225.453 1548.85 L205.545 1548.85 L205.545 1544.91 Z" fill="#000000" fill-rule="evenodd" fill-opacity="1" /><path clip-path="url(#clip340)" d="M234.897 1542.97 L239.781 1542.97 L239.781 1548.85 L234.897 1548.85 L234.897 1542.97 Z" fill="#000000" fill-rule="evenodd" fill-opacity="1" /><path clip-path="url(#clip340)" d="M259.966 1517.37 Q256.355 1517.37 254.527 1520.93 Q252.721 1524.47 252.721 1531.6 Q252.721 1538.71 254.527 1542.27 Q256.355 1545.82 259.966 1545.82 Q263.601 1545.82 265.406 1542.27 Q267.235 1538.71 267.235 1531.6 Q267.235 1524.47 265.406 1520.93 Q263.601 1517.37 259.966 1517.37 M259.966 1513.66 Q265.776 1513.66 268.832 1518.27 Q271.911 1522.85 271.911 1531.6 Q271.911 1540.33 268.832 1544.94 Q265.776 1549.52 259.966 1549.52 Q254.156 1549.52 251.077 1544.94 Q248.022 1540.33 248.022 1531.6 Q248.022 1522.85 251.077 1518.27 Q254.156 1513.66 259.966 1513.66 Z" fill="#000000" fill-rule="evenodd" fill-opacity="1" /><path clip-path="url(#clip340)" d="M683.503 1532.02 L713.178 1532.02 L713.178 1535.95 L683.503 1535.95 L683.503 1532.02 Z" fill="#000000" fill-rule="evenodd" fill-opacity="1" /><path clip-path="url(#clip340)" d="M733.271 1517.37 Q729.66 1517.37 727.831 1520.93 Q726.026 1524.47 726.026 1531.6 Q726.026 1538.71 727.831 1542.27 Q729.66 1545.82 733.271 1545.82 Q736.905 1545.82 738.711 1542.27 Q740.539 1538.71 740.539 1531.6 Q740.539 1524.47 738.711 1520.93 Q736.905 1517.37 733.271 1517.37 M733.271 1513.66 Q739.081 1513.66 742.137 1518.27 Q745.215 1522.85 745.215 1531.6 Q745.215 1540.33 742.137 1544.94 Q739.081 1549.52 733.271 1549.52 Q727.461 1549.52 724.382 1544.94 Q721.327 1540.33 721.327 1531.6 Q721.327 1522.85 724.382 1518.27 Q727.461 1513.66 733.271 1513.66 Z" fill="#000000" fill-rule="evenodd" fill-opacity="1" /><path clip-path="url(#clip340)" d="M753.433 1542.97 L758.317 1542.97 L758.317 1548.85 L753.433 1548.85 L753.433 1542.97 Z" fill="#000000" fill-rule="evenodd" fill-opacity="1" /><path clip-path="url(#clip340)" d="M768.548 1514.29 L786.905 1514.29 L786.905 1518.22 L772.831 1518.22 L772.831 1526.7 Q773.849 1526.35 774.868 1526.19 Q775.886 1526 776.905 1526 Q782.692 1526 786.072 1529.17 Q789.451 1532.34 789.451 1537.76 Q789.451 1543.34 785.979 1546.44 Q782.507 1549.52 776.187 1549.52 Q774.011 1549.52 771.743 1549.15 Q769.498 1548.78 767.09 1548.04 L767.09 1543.34 Q769.173 1544.47 771.396 1545.03 Q773.618 1545.58 776.095 1545.58 Q780.099 1545.58 782.437 1543.48 Q784.775 1541.37 784.775 1537.76 Q784.775 1534.15 782.437 1532.04 Q780.099 1529.94 776.095 1529.94 Q774.22 1529.94 772.345 1530.35 Q770.493 1530.77 768.548 1531.65 L768.548 1514.29 Z" fill="#000000" fill-rule="evenodd" fill-opacity="1" /><path clip-path="url(#clip340)" d="M1231.9 1517.37 Q1228.29 1517.37 1226.46 1520.93 Q1224.65 1524.47 1224.65 1531.6 Q1224.65 1538.71 1226.46 1542.27 Q1228.29 1545.82 1231.9 1545.82 Q1235.53 1545.82 1237.34 1542.27 Q1239.17 1538.71 1239.17 1531.6 Q1239.17 1524.47 1237.34 1520.93 Q1235.53 1517.37 1231.9 1517.37 M1231.9 1513.66 Q1237.71 1513.66 1240.77 1518.27 Q1243.84 1522.85 1243.84 1531.6 Q1243.84 1540.33 1240.77 1544.94 Q1237.71 1549.52 1231.9 1549.52 Q1226.09 1549.52 1223.01 1544.94 Q1219.96 1540.33 1219.96 1531.6 Q1219.96 1522.85 1223.01 1518.27 Q1226.09 1513.66 1231.9 1513.66 Z" fill="#000000" fill-rule="evenodd" fill-opacity="1" /><path clip-path="url(#clip340)" d="M1252.06 1542.97 L1256.95 1542.97 L1256.95 1548.85 L1252.06 1548.85 L1252.06 1542.97 Z" fill="#000000" fill-rule="evenodd" fill-opacity="1" /><path clip-path="url(#clip340)" d="M1277.13 1517.37 Q1273.52 1517.37 1271.69 1520.93 Q1269.89 1524.47 1269.89 1531.6 Q1269.89 1538.71 1271.69 1542.27 Q1273.52 1545.82 1277.13 1545.82 Q1280.76 1545.82 1282.57 1542.27 Q1284.4 1538.71 1284.4 1531.6 Q1284.4 1524.47 1282.57 1520.93 Q1280.76 1517.37 1277.13 1517.37 M1277.13 1513.66 Q1282.94 1513.66 1286 1518.27 Q1289.08 1522.85 1289.08 1531.6 Q1289.08 1540.33 1286 1544.94 Q1282.94 1549.52 1277.13 1549.52 Q1271.32 1549.52 1268.24 1544.94 Q1265.19 1540.33 1265.19 1531.6 Q1265.19 1522.85 1268.24 1518.27 Q1271.32 1513.66 1277.13 1513.66 Z" fill="#000000" fill-rule="evenodd" fill-opacity="1" /><path clip-path="url(#clip340)" d="M1750.44 1517.37 Q1746.82 1517.37 1745 1520.93 Q1743.19 1524.47 1743.19 1531.6 Q1743.19 1538.71 1745 1542.27 Q1746.82 1545.82 1750.44 1545.82 Q1754.07 1545.82 1755.88 1542.27 Q1757.7 1538.71 1757.7 1531.6 Q1757.7 1524.47 1755.88 1520.93 Q1754.07 1517.37 1750.44 1517.37 M1750.44 1513.66 Q1756.25 1513.66 1759.3 1518.27 Q1762.38 1522.85 1762.38 1531.6 Q1762.38 1540.33 1759.3 1544.94 Q1756.25 1549.52 1750.44 1549.52 Q1744.63 1549.52 1741.55 1544.94 Q1738.49 1540.33 1738.49 1531.6 Q1738.49 1522.85 1741.55 1518.27 Q1744.63 1513.66 1750.44 1513.66 Z" fill="#000000" fill-rule="evenodd" fill-opacity="1" /><path clip-path="url(#clip340)" d="M1770.6 1542.97 L1775.48 1542.97 L1775.48 1548.85 L1770.6 1548.85 L1770.6 1542.97 Z" fill="#000000" fill-rule="evenodd" fill-opacity="1" /><path clip-path="url(#clip340)" d="M1785.71 1514.29 L1804.07 1514.29 L1804.07 1518.22 L1790 1518.22 L1790 1526.7 Q1791.01 1526.35 1792.03 1526.19 Q1793.05 1526 1794.07 1526 Q1799.86 1526 1803.24 1529.17 Q1806.62 1532.34 1806.62 1537.76 Q1806.62 1543.34 1803.14 1546.44 Q1799.67 1549.52 1793.35 1549.52 Q1791.18 1549.52 1788.91 1549.15 Q1786.66 1548.78 1784.25 1548.04 L1784.25 1543.34 Q1786.34 1544.47 1788.56 1545.03 Q1790.78 1545.58 1793.26 1545.58 Q1797.26 1545.58 1799.6 1543.48 Q1801.94 1541.37 1801.94 1537.76 Q1801.94 1534.15 1799.6 1532.04 Q1797.26 1529.94 1793.26 1529.94 Q1791.38 1529.94 1789.51 1530.35 Q1787.66 1530.77 1785.71 1531.65 L1785.71 1514.29 Z" fill="#000000" fill-rule="evenodd" fill-opacity="1" /><path clip-path="url(#clip340)" d="M2257.74 1544.91 L2265.38 1544.91 L2265.38 1518.55 L2257.07 1520.21 L2257.07 1515.95 L2265.34 1514.29 L2270.01 1514.29 L2270.01 1544.91 L2277.65 1544.91 L2277.65 1548.85 L2257.74 1548.85 L2257.74 1544.91 Z" fill="#000000" fill-rule="evenodd" fill-opacity="1" /><path clip-path="url(#clip340)" d="M2287.1 1542.97 L2291.98 1542.97 L2291.98 1548.85 L2287.1 1548.85 L2287.1 1542.97 Z" fill="#000000" fill-rule="evenodd" fill-opacity="1" /><path clip-path="url(#clip340)" d="M2312.17 1517.37 Q2308.55 1517.37 2306.73 1520.93 Q2304.92 1524.47 2304.92 1531.6 Q2304.92 1538.71 2306.73 1542.27 Q2308.55 1545.82 2312.17 1545.82 Q2315.8 1545.82 2317.61 1542.27 Q2319.43 1538.71 2319.43 1531.6 Q2319.43 1524.47 2317.61 1520.93 Q2315.8 1517.37 2312.17 1517.37 M2312.17 1513.66 Q2317.98 1513.66 2321.03 1518.27 Q2324.11 1522.85 2324.11 1531.6 Q2324.11 1540.33 2321.03 1544.94 Q2317.98 1549.52 2312.17 1549.52 Q2306.36 1549.52 2303.28 1544.94 Q2300.22 1540.33 2300.22 1531.6 Q2300.22 1522.85 2303.28 1518.27 Q2306.36 1513.66 2312.17 1513.66 Z" fill="#000000" fill-rule="evenodd" fill-opacity="1" /><polyline clip-path="url(#clip342)" style="stroke:#000000; stroke-linecap:round; stroke-linejoin:round; stroke-width:2; stroke-opacity:0.1; fill:none" points="156.274,1258.14 2352.76,1258.14 "/>
<polyline clip-path="url(#clip342)" style="stroke:#000000; stroke-linecap:round; stroke-linejoin:round; stroke-width:2; stroke-opacity:0.1; fill:none" points="156.274,983.521 2352.76,983.521 "/>
<polyline clip-path="url(#clip342)" style="stroke:#000000; stroke-linecap:round; stroke-linejoin:round; stroke-width:2; stroke-opacity:0.1; fill:none" points="156.274,708.902 2352.76,708.902 "/>
<polyline clip-path="url(#clip342)" style="stroke:#000000; stroke-linecap:round; stroke-linejoin:round; stroke-width:2; stroke-opacity:0.1; fill:none" points="156.274,434.284 2352.76,434.284 "/>
<polyline clip-path="url(#clip342)" style="stroke:#000000; stroke-linecap:round; stroke-linejoin:round; stroke-width:2; stroke-opacity:0.1; fill:none" points="156.274,159.665 2352.76,159.665 "/>
<polyline clip-path="url(#clip340)" style="stroke:#000000; stroke-linecap:round; stroke-linejoin:round; stroke-width:4; stroke-opacity:1; fill:none" points="156.274,1486.45 156.274,47.2441 "/>
<polyline clip-path="url(#clip340)" style="stroke:#000000; stroke-linecap:round; stroke-linejoin:round; stroke-width:4; stroke-opacity:1; fill:none" points="156.274,1258.14 175.172,1258.14 "/>
<polyline clip-path="url(#clip340)" style="stroke:#000000; stroke-linecap:round; stroke-linejoin:round; stroke-width:4; stroke-opacity:1; fill:none" points="156.274,983.521 175.172,983.521 "/>
<polyline clip-path="url(#clip340)" style="stroke:#000000; stroke-linecap:round; stroke-linejoin:round; stroke-width:4; stroke-opacity:1; fill:none" points="156.274,708.902 175.172,708.902 "/>
<polyline clip-path="url(#clip340)" style="stroke:#000000; stroke-linecap:round; stroke-linejoin:round; stroke-width:4; stroke-opacity:1; fill:none" points="156.274,434.284 175.172,434.284 "/>
<polyline clip-path="url(#clip340)" style="stroke:#000000; stroke-linecap:round; stroke-linejoin:round; stroke-width:4; stroke-opacity:1; fill:none" points="156.274,159.665 175.172,159.665 "/>
<path clip-path="url(#clip340)" d="M63.0985 1243.94 Q59.4875 1243.94 57.6588 1247.5 Q55.8532 1251.04 55.8532 1258.17 Q55.8532 1265.28 57.6588 1268.85 Q59.4875 1272.39 63.0985 1272.39 Q66.7328 1272.39 68.5383 1268.85 Q70.367 1265.28 70.367 1258.17 Q70.367 1251.04 68.5383 1247.5 Q66.7328 1243.94 63.0985 1243.94 M63.0985 1240.23 Q68.9087 1240.23 71.9642 1244.84 Q75.0429 1249.42 75.0429 1258.17 Q75.0429 1266.9 71.9642 1271.51 Q68.9087 1276.09 63.0985 1276.09 Q57.2884 1276.09 54.2097 1271.51 Q51.1542 1266.9 51.1542 1258.17 Q51.1542 1249.42 54.2097 1244.84 Q57.2884 1240.23 63.0985 1240.23 Z" fill="#000000" fill-rule="evenodd" fill-opacity="1" /><path clip-path="url(#clip340)" d="M83.2605 1269.54 L88.1447 1269.54 L88.1447 1275.42 L83.2605 1275.42 L83.2605 1269.54 Z" fill="#000000" fill-rule="evenodd" fill-opacity="1" /><path clip-path="url(#clip340)" d="M108.33 1243.94 Q104.719 1243.94 102.89 1247.5 Q101.084 1251.04 101.084 1258.17 Q101.084 1265.28 102.89 1268.85 Q104.719 1272.39 108.33 1272.39 Q111.964 1272.39 113.77 1268.85 Q115.598 1265.28 115.598 1258.17 Q115.598 1251.04 113.77 1247.5 Q111.964 1243.94 108.33 1243.94 M108.33 1240.23 Q114.14 1240.23 117.195 1244.84 Q120.274 1249.42 120.274 1258.17 Q120.274 1266.9 117.195 1271.51 Q114.14 1276.09 108.33 1276.09 Q102.52 1276.09 99.4409 1271.51 Q96.3854 1266.9 96.3854 1258.17 Q96.3854 1249.42 99.4409 1244.84 Q102.52 1240.23 108.33 1240.23 Z" fill="#000000" fill-rule="evenodd" fill-opacity="1" /><path clip-path="url(#clip340)" d="M63.7467 969.32 Q60.1356 969.32 58.3069 972.884 Q56.5014 976.426 56.5014 983.556 Q56.5014 990.662 58.3069 994.227 Q60.1356 997.769 63.7467 997.769 Q67.3809 997.769 69.1865 994.227 Q71.0152 990.662 71.0152 983.556 Q71.0152 976.426 69.1865 972.884 Q67.3809 969.32 63.7467 969.32 M63.7467 965.616 Q69.5568 965.616 72.6124 970.222 Q75.6911 974.806 75.6911 983.556 Q75.6911 992.282 72.6124 996.889 Q69.5568 1001.47 63.7467 1001.47 Q57.9365 1001.47 54.8578 996.889 Q51.8023 992.282 51.8023 983.556 Q51.8023 974.806 54.8578 970.222 Q57.9365 965.616 63.7467 965.616 Z" fill="#000000" fill-rule="evenodd" fill-opacity="1" /><path clip-path="url(#clip340)" d="M83.9086 994.921 L88.7928 994.921 L88.7928 1000.8 L83.9086 1000.8 L83.9086 994.921 Z" fill="#000000" fill-rule="evenodd" fill-opacity="1" /><path clip-path="url(#clip340)" d="M113.145 982.167 Q116.501 982.884 118.376 985.153 Q120.274 987.421 120.274 990.755 Q120.274 995.87 116.756 998.671 Q113.237 1001.47 106.756 1001.47 Q104.58 1001.47 102.265 1001.03 Q99.9733 1000.62 97.5197 999.759 L97.5197 995.245 Q99.4641 996.38 101.779 996.958 Q104.094 997.537 106.617 997.537 Q111.015 997.537 113.307 995.801 Q115.621 994.065 115.621 990.755 Q115.621 987.699 113.469 985.986 Q111.339 984.25 107.52 984.25 L103.492 984.25 L103.492 980.408 L107.705 980.408 Q111.154 980.408 112.983 979.042 Q114.811 977.653 114.811 975.06 Q114.811 972.398 112.913 970.986 Q111.038 969.551 107.52 969.551 Q105.598 969.551 103.399 969.968 Q101.2 970.384 98.5613 971.264 L98.5613 967.097 Q101.223 966.357 103.538 965.986 Q105.876 965.616 107.936 965.616 Q113.26 965.616 116.362 968.047 Q119.464 970.454 119.464 974.574 Q119.464 977.445 117.82 979.435 Q116.177 981.403 113.145 982.167 Z" fill="#000000" fill-rule="evenodd" fill-opacity="1" /><path clip-path="url(#clip340)" d="M62.9365 694.701 Q59.3254 694.701 57.4967 698.266 Q55.6912 701.808 55.6912 708.937 Q55.6912 716.044 57.4967 719.608 Q59.3254 723.15 62.9365 723.15 Q66.5707 723.15 68.3763 719.608 Q70.205 716.044 70.205 708.937 Q70.205 701.808 68.3763 698.266 Q66.5707 694.701 62.9365 694.701 M62.9365 690.997 Q68.7467 690.997 71.8022 695.604 Q74.8809 700.187 74.8809 708.937 Q74.8809 717.664 71.8022 722.27 Q68.7467 726.854 62.9365 726.854 Q57.1264 726.854 54.0477 722.27 Q50.9921 717.664 50.9921 708.937 Q50.9921 700.187 54.0477 695.604 Q57.1264 690.997 62.9365 690.997 Z" fill="#000000" fill-rule="evenodd" fill-opacity="1" /><path clip-path="url(#clip340)" d="M83.0984 720.303 L87.9827 720.303 L87.9827 726.182 L83.0984 726.182 L83.0984 720.303 Z" fill="#000000" fill-rule="evenodd" fill-opacity="1" /><path clip-path="url(#clip340)" d="M108.746 707.039 Q105.598 707.039 103.746 709.192 Q101.918 711.345 101.918 715.095 Q101.918 718.821 103.746 720.997 Q105.598 723.15 108.746 723.15 Q111.895 723.15 113.723 720.997 Q115.575 718.821 115.575 715.095 Q115.575 711.345 113.723 709.192 Q111.895 707.039 108.746 707.039 M118.029 692.386 L118.029 696.646 Q116.27 695.812 114.464 695.372 Q112.682 694.933 110.922 694.933 Q106.293 694.933 103.839 698.058 Q101.409 701.183 101.061 707.502 Q102.427 705.488 104.487 704.423 Q106.547 703.335 109.024 703.335 Q114.233 703.335 117.242 706.507 Q120.274 709.655 120.274 715.095 Q120.274 720.419 117.126 723.636 Q113.978 726.854 108.746 726.854 Q102.751 726.854 99.5798 722.27 Q96.4085 717.664 96.4085 708.937 Q96.4085 700.743 100.297 695.882 Q104.186 690.997 110.737 690.997 Q112.496 690.997 114.279 691.345 Q116.084 691.692 118.029 692.386 Z" fill="#000000" fill-rule="evenodd" fill-opacity="1" /><path clip-path="url(#clip340)" d="M63.2837 420.083 Q59.6726 420.083 57.8439 423.647 Q56.0384 427.189 56.0384 434.319 Q56.0384 441.425 57.8439 444.99 Q59.6726 448.532 63.2837 448.532 Q66.918 448.532 68.7235 444.99 Q70.5522 441.425 70.5522 434.319 Q70.5522 427.189 68.7235 423.647 Q66.918 420.083 63.2837 420.083 M63.2837 416.379 Q69.0939 416.379 72.1494 420.985 Q75.2281 425.569 75.2281 434.319 Q75.2281 443.045 72.1494 447.652 Q69.0939 452.235 63.2837 452.235 Q57.4736 452.235 54.3949 447.652 Q51.3393 443.045 51.3393 434.319 Q51.3393 425.569 54.3949 420.985 Q57.4736 416.379 63.2837 416.379 Z" fill="#000000" fill-rule="evenodd" fill-opacity="1" /><path clip-path="url(#clip340)" d="M83.4457 445.684 L88.3299 445.684 L88.3299 451.564 L83.4457 451.564 L83.4457 445.684 Z" fill="#000000" fill-rule="evenodd" fill-opacity="1" /><path clip-path="url(#clip340)" d="M98.6539 450.846 L98.6539 446.587 Q100.413 447.42 102.219 447.86 Q104.024 448.3 105.76 448.3 Q110.39 448.3 112.82 445.198 Q115.274 442.073 115.621 435.731 Q114.279 437.721 112.219 438.786 Q110.158 439.851 107.658 439.851 Q102.473 439.851 99.4409 436.726 Q96.4317 433.578 96.4317 428.138 Q96.4317 422.814 99.5798 419.596 Q102.728 416.379 107.959 416.379 Q113.955 416.379 117.103 420.985 Q120.274 425.569 120.274 434.319 Q120.274 442.49 116.385 447.374 Q112.52 452.235 105.969 452.235 Q104.209 452.235 102.404 451.888 Q100.598 451.541 98.6539 450.846 M107.959 436.194 Q111.108 436.194 112.936 434.041 Q114.788 431.888 114.788 428.138 Q114.788 424.411 112.936 422.259 Q111.108 420.083 107.959 420.083 Q104.811 420.083 102.959 422.259 Q101.131 424.411 101.131 428.138 Q101.131 431.888 102.959 434.041 Q104.811 436.194 107.959 436.194 Z" fill="#000000" fill-rule="evenodd" fill-opacity="1" /><path clip-path="url(#clip340)" d="M55.506 173.01 L63.1448 173.01 L63.1448 146.645 L54.8347 148.311 L54.8347 144.052 L63.0985 142.385 L67.7744 142.385 L67.7744 173.01 L75.4133 173.01 L75.4133 176.945 L55.506 176.945 L55.506 173.01 Z" fill="#000000" fill-rule="evenodd" fill-opacity="1" /><path clip-path="url(#clip340)" d="M84.8577 171.066 L89.7419 171.066 L89.7419 176.945 L84.8577 176.945 L84.8577 171.066 Z" fill="#000000" fill-rule="evenodd" fill-opacity="1" /><path clip-path="url(#clip340)" d="M103.955 173.01 L120.274 173.01 L120.274 176.945 L98.3298 176.945 L98.3298 173.01 Q100.992 170.256 105.575 165.626 Q110.182 160.973 111.362 159.631 Q113.608 157.108 114.487 155.371 Q115.39 153.612 115.39 151.922 Q115.39 149.168 113.445 147.432 Q111.524 145.696 108.422 145.696 Q106.223 145.696 103.77 146.459 Q101.339 147.223 98.5613 148.774 L98.5613 144.052 Q101.385 142.918 103.839 142.339 Q106.293 141.76 108.33 141.76 Q113.7 141.76 116.895 144.446 Q120.089 147.131 120.089 151.621 Q120.089 153.751 119.279 155.672 Q118.492 157.57 116.385 160.163 Q115.807 160.834 112.705 164.052 Q109.603 167.246 103.955 173.01 Z" fill="#000000" fill-rule="evenodd" fill-opacity="1" /><polyline clip-path="url(#clip342)" style="stroke:#009af9; stroke-linecap:round; stroke-linejoin:round; stroke-width:16; stroke-opacity:1; fill:none" stroke-dasharray="8, 16" points="218.439,1120.71 228.852,1110.06 239.264,1098.93 249.677,1086.74 260.09,1075.78 270.503,1070.22 280.916,1074.49 291.329,1091.31 301.741,1119.9 312.154,1155.35 322.567,1190.17 332.98,1218.23 343.393,1238.88 353.805,1257.76 364.218,1282.71 374.631,1317.49 385.044,1358.47 395.457,1396.75 405.87,1423.89 416.282,1436.81 426.695,1438.72 437.108,1435.57 447.521,1431.45 457.934,1426.65 468.347,1418.84 478.759,1405.62 489.172,1385.91 499.585,1359.71 509.998,1326.84 520.411,1287.61 530.824,1246.39 541.236,1211.65 551.649,1188.05 562.062,1171.18 572.475,1153 582.888,1129.51 593.301,1102.9 603.713,1079.24 614.126,1065 624.539,1063.82 634.952,1074.75 645.365,1093.22 655.777,1114.21 666.19,1135.07 676.603,1156.14 687.016,1179.47 697.429,1206.9 707.842,1239 718.254,1274.65 728.667,1311.32 739.08,1345.71 749.493,1374.79 759.906,1396.93 770.319,1412.58 780.731,1423.71 791.144,1432.08 801.557,1437.73 811.97,1438.79 822.383,1433.11 832.796,1419.79 843.208,1399.54 853.621,1373.81 864.034,1344.14 874.447,1312.3 884.86,1280.28 895.273,1249.48 905.685,1220.04 916.098,1191.08 926.511,1161.89 936.924,1133.17 947.337,1107.19 957.749,1087.02 968.162,1075.06 978.575,1072.06 988.988,1076.9 999.401,1087.37 1009.81,1101.36 1020.23,1117.67 1030.64,1136.24 1041.05,1157.78 1051.46,1183.1 1061.88,1212.66 1072.29,1246.18 1082.7,1282.52 1093.12,1319.7 1103.53,1355.12 1113.94,1385.94 1124.35,1409.62 1134.77,1424.56 1145.18,1430.54 1155.59,1429.1 1166.01,1423.53 1176.42,1418.6 1186.83,1419.58 1197.24,1429.8 1207.66,1445.28 1218.07,1445.72 1228.48,1387.26 1238.9,1217.98 1249.31,933.824 1259.72,622.498 1270.13,401.991 1280.55,313.169 1290.96,312 1301.37,337.987 1311.79,356.811 1322.2,360.08 1332.61,351.67 1343.02,338.099 1353.44,324.948 1363.85,316.267 1374.26,314.562 1384.68,320.62 1395.09,333.342 1405.5,349.901 1415.91,366.329 1426.33,378.387 1436.74,382.493 1447.15,376.538 1457.57,360.521 1467.98,336.966 1478.39,311.009 1488.8,289.862 1499.22,281.237 1509.63,290.666 1520.04,318.415 1530.45,357.757 1540.87,396.36 1551.28,420.9 1561.69,422.549 1572.11,400.216 1582.52,360.16 1592.93,313.234 1603.34,271.859 1613.76,247.647 1624.17,249.117 1634.58,278.882 1645,331.094 1655.41,391.282 1665.82,440.293 1676.23,461.334 1686.65,446.438 1697.06,399.171 1707.47,333.204 1717.89,268.141 1728.3,223.823 1738.71,214.187 1749.12,242.524 1759.54,300.393 1769.95,370.874 1780.36,434.342 1790.78,473.884 1801.19,478.748 1811.6,446.103 1822.01,382.021 1832.43,301.756 1842.84,227.902 1853.25,184.645 1863.67,188.557 1874.08,240.38 1884.49,323.841 1894.9,413.036 1905.32,483.027 1915.73,516.657 1926.14,505.611 1936.56,449.22 1946.97,355.339 1957.38,244.258 1967.79,150.769 1978.21,115.031 1988.62,159.446 1999.03,269.013 2009.45,398.427 2019.86,500.674 2030.27,549.176 2040.68,540.002 2051.1,483.053 2061.51,394.193 2071.92,292.247 2082.33,198.79 2092.75,137.129 2103.16,127.925 2113.57,181.515 2123.99,290.114 2134.4,424.721 2144.81,540.894 2155.22,594.631 2165.64,563.287 2176.05,459.029 2186.46,323.526 2196.88,206.117 2207.29,140.892 2217.7,136.713 2228.11,181.8 2238.53,255.199 2248.94,337.006 2259.35,413.679 2269.77,478.732 2280.18,530.728 2290.59,570.366 "/>
<polyline clip-path="url(#clip342)" style="stroke:#e26f46; stroke-linecap:round; stroke-linejoin:round; stroke-width:4; stroke-opacity:1; fill:none" points="218.439,1120.65 228.852,1101.14 239.264,1086.76 249.677,1077.97 260.09,1075.06 270.503,1078.13 280.916,1087.07 291.329,1101.59 301.741,1121.23 312.154,1145.33 322.567,1173.11 332.98,1203.67 343.393,1236.01 353.805,1269.07 364.218,1301.77 374.631,1333.05 385.044,1361.88 395.457,1387.33 405.87,1408.56 416.282,1424.88 426.695,1435.76 437.108,1440.85 447.521,1439.97 457.934,1433.15 468.347,1420.62 478.759,1402.8 489.172,1380.24 499.585,1353.71 509.998,1324.05 520.411,1292.25 530.824,1259.33 541.236,1226.37 551.649,1194.45 562.062,1164.61 572.475,1137.82 582.888,1114.95 593.301,1096.76 603.713,1083.84 614.126,1076.61 624.539,1075.3 634.952,1079.96 645.365,1090.43 655.777,1106.38 666.19,1127.28 676.603,1152.45 687.016,1181.07 697.429,1212.2 707.842,1244.84 718.254,1277.91 728.667,1310.33 739.08,1341.05 749.493,1369.07 759.906,1393.46 770.319,1413.44 780.731,1428.35 791.144,1437.7 801.557,1441.2 811.97,1438.72 822.383,1430.34 832.796,1416.35 843.208,1397.19 853.621,1373.49 864.034,1346.03 874.447,1315.7 884.86,1283.49 895.273,1250.46 905.685,1217.67 916.098,1186.21 926.511,1157.09 936.924,1131.27 947.337,1109.59 957.749,1092.76 968.162,1081.33 978.575,1075.67 988.988,1075.96 999.401,1082.2 1009.81,1094.18 1020.23,1111.52 1030.64,1133.63 1041.05,1159.81 1051.46,1189.21 1061.88,1220.85 1072.29,1253.7 1082.7,1286.7 1093.12,1318.77 1103.53,1348.87 1113.94,1376 1124.35,1399.28 1134.77,1417.96 1145.18,1431.42 1155.59,1439.22 1166.01,1441.12 1176.42,1437.04 1186.83,1427.13 1197.24,1411.7 1207.66,1391.25 1218.07,1366.47 1228.48,1338.15 1238.9,1307.21 1249.31,1274.68 1259.72,341.415 1270.13,339.902 1280.55,341.279 1290.96,345.863 1301.37,352.249 1311.79,357.738 1322.2,359.364 1332.61,355.14 1343.02,345.071 1353.44,331.496 1363.85,318.579 1374.26,311.033 1384.68,312.48 1395.09,323.994 1405.5,343.359 1415.91,365.399 1426.33,383.346 1436.74,390.917 1447.15,384.436 1457.57,364.329 1467.98,335.407 1478.39,305.767 1488.8,284.524 1499.22,279.02 1509.63,292.361 1520.04,322.082 1530.45,360.467 1540.87,396.524 1551.28,419.138 1561.69,420.477 1572.11,398.63 1582.52,358.59 1592.93,311.193 1603.34,270.195 1613.76,248.279 1624.17,253.152 1634.58,284.926 1645,335.651 1655.41,391.258 1665.82,435.46 1676.23,454.517 1686.65,441.485 1697.06,398.632 1707.47,337.212 1717.89,274.534 1728.3,229.088 1738.71,215.091 1749.12,238.074 1759.54,292.853 1769.95,364.616 1780.36,432.907 1790.78,477.462 1801.19,484.21 1811.6,449.687 1822.01,382.466 1832.43,301.079 1842.84,228.923 1853.25,187.528 1863.67,190.145 1874.08,237.547 1884.49,317.37 1894.9,407.303 1905.32,481.319 1915.73,517.21 1926.14,503.234 1936.56,441.903 1946.97,349.692 1957.38,252.636 1967.79,178.98 1978.21,150.962 1988.62,178.114 1999.03,254.096 2009.45,358.102 2019.86,460.536 2030.27,531.441 2040.68,549.251 2051.1,507.333 2061.51,416.331 2071.92,301.504 2082.33,195.731 2092.75,130.089 2103.16,124.735 2113.57,182.734 2123.99,288.745 2134.4,413.046 2144.81,519.862 2155.22,577.662 2165.64,568.459 2176.05,493.377 2186.46,372.762 2196.88,240.691 2207.29,135.346 2217.7,87.9763 2228.11,113.638 2238.53,206.452 2248.94,340.865 2259.35,478.667 2269.77,579.861 2280.18,614.26 2290.59,570.488 "/>
<path clip-path="url(#clip340)" d="M229.49 250.738 L675.966 250.738 L675.966 95.2176 L229.49 95.2176  Z" fill="#ffffff" fill-rule="evenodd" fill-opacity="1"/>
<polyline clip-path="url(#clip340)" style="stroke:#000000; stroke-linecap:round; stroke-linejoin:round; stroke-width:4; stroke-opacity:1; fill:none" points="229.49,250.738 675.966,250.738 675.966,95.2176 229.49,95.2176 229.49,250.738 "/>
<polyline clip-path="url(#clip340)" style="stroke:#009af9; stroke-linecap:round; stroke-linejoin:round; stroke-width:16; stroke-opacity:1; fill:none" stroke-dasharray="8, 16" points="253.896,147.058 400.328,147.058 "/>
<path clip-path="url(#clip340)" d="M429.409 133.62 L429.409 146.606 L435.289 146.606 Q438.552 146.606 440.335 144.916 Q442.117 143.227 442.117 140.102 Q442.117 137 440.335 135.31 Q438.552 133.62 435.289 133.62 L429.409 133.62 M424.733 129.778 L435.289 129.778 Q441.099 129.778 444.062 132.416 Q447.048 135.032 447.048 140.102 Q447.048 145.217 444.062 147.833 Q441.099 150.449 435.289 150.449 L429.409 150.449 L429.409 164.338 L424.733 164.338 L424.733 129.778 Z" fill="#000000" fill-rule="evenodd" fill-opacity="1" /><path clip-path="url(#clip340)" d="M467.325 142.393 Q466.608 141.977 465.751 141.791 Q464.918 141.583 463.899 141.583 Q460.288 141.583 458.344 143.944 Q456.423 146.282 456.423 150.68 L456.423 164.338 L452.14 164.338 L452.14 138.412 L456.423 138.412 L456.423 142.44 Q457.765 140.078 459.918 138.944 Q462.071 137.787 465.149 137.787 Q465.589 137.787 466.122 137.856 Q466.654 137.903 467.302 138.018 L467.325 142.393 Z" fill="#000000" fill-rule="evenodd" fill-opacity="1" /><path clip-path="url(#clip340)" d="M492.927 150.31 L492.927 152.393 L473.344 152.393 Q473.622 156.791 475.983 159.106 Q478.367 161.398 482.603 161.398 Q485.057 161.398 487.348 160.796 Q489.663 160.194 491.932 158.99 L491.932 163.018 Q489.64 163.99 487.233 164.5 Q484.825 165.009 482.348 165.009 Q476.145 165.009 472.511 161.398 Q468.899 157.787 468.899 151.629 Q468.899 145.264 472.325 141.537 Q475.774 137.787 481.608 137.787 Q486.839 137.787 489.872 141.166 Q492.927 144.523 492.927 150.31 M488.668 149.06 Q488.622 145.565 486.7 143.481 Q484.802 141.398 481.654 141.398 Q478.089 141.398 475.936 143.412 Q473.807 145.426 473.483 149.083 L488.668 149.06 Z" fill="#000000" fill-rule="evenodd" fill-opacity="1" /><path clip-path="url(#clip340)" d="M516.978 142.347 L516.978 128.319 L521.237 128.319 L521.237 164.338 L516.978 164.338 L516.978 160.449 Q515.635 162.763 513.575 163.898 Q511.538 165.009 508.668 165.009 Q503.969 165.009 501.006 161.259 Q498.066 157.509 498.066 151.398 Q498.066 145.287 501.006 141.537 Q503.969 137.787 508.668 137.787 Q511.538 137.787 513.575 138.921 Q515.635 140.032 516.978 142.347 M502.464 151.398 Q502.464 156.097 504.385 158.782 Q506.33 161.444 509.709 161.444 Q513.089 161.444 515.033 158.782 Q516.978 156.097 516.978 151.398 Q516.978 146.699 515.033 144.037 Q513.089 141.352 509.709 141.352 Q506.33 141.352 504.385 144.037 Q502.464 146.699 502.464 151.398 Z" fill="#000000" fill-rule="evenodd" fill-opacity="1" /><path clip-path="url(#clip340)" d="M530.01 138.412 L534.269 138.412 L534.269 164.338 L530.01 164.338 L530.01 138.412 M530.01 128.319 L534.269 128.319 L534.269 133.713 L530.01 133.713 L530.01 128.319 Z" fill="#000000" fill-rule="evenodd" fill-opacity="1" /><path clip-path="url(#clip340)" d="M561.839 139.407 L561.839 143.389 Q560.033 142.393 558.205 141.907 Q556.399 141.398 554.547 141.398 Q550.404 141.398 548.112 144.037 Q545.82 146.652 545.82 151.398 Q545.82 156.143 548.112 158.782 Q550.404 161.398 554.547 161.398 Q556.399 161.398 558.205 160.912 Q560.033 160.402 561.839 159.407 L561.839 163.342 Q560.056 164.176 558.135 164.592 Q556.237 165.009 554.084 165.009 Q548.228 165.009 544.779 161.328 Q541.33 157.648 541.33 151.398 Q541.33 145.055 544.802 141.421 Q548.297 137.787 554.362 137.787 Q556.33 137.787 558.205 138.203 Q560.08 138.597 561.839 139.407 Z" fill="#000000" fill-rule="evenodd" fill-opacity="1" /><path clip-path="url(#clip340)" d="M573.459 131.051 L573.459 138.412 L582.232 138.412 L582.232 141.722 L573.459 141.722 L573.459 155.796 Q573.459 158.967 574.316 159.87 Q575.195 160.773 577.857 160.773 L582.232 160.773 L582.232 164.338 L577.857 164.338 Q572.927 164.338 571.052 162.509 Q569.177 160.657 569.177 155.796 L569.177 141.722 L566.052 141.722 L566.052 138.412 L569.177 138.412 L569.177 131.051 L573.459 131.051 Z" fill="#000000" fill-rule="evenodd" fill-opacity="1" /><path clip-path="url(#clip340)" d="M587.834 138.412 L592.093 138.412 L592.093 164.338 L587.834 164.338 L587.834 138.412 M587.834 128.319 L592.093 128.319 L592.093 133.713 L587.834 133.713 L587.834 128.319 Z" fill="#000000" fill-rule="evenodd" fill-opacity="1" /><path clip-path="url(#clip340)" d="M611.051 141.398 Q607.626 141.398 605.635 144.083 Q603.644 146.745 603.644 151.398 Q603.644 156.051 605.612 158.736 Q607.602 161.398 611.051 161.398 Q614.454 161.398 616.445 158.713 Q618.436 156.027 618.436 151.398 Q618.436 146.791 616.445 144.106 Q614.454 141.398 611.051 141.398 M611.051 137.787 Q616.607 137.787 619.778 141.398 Q622.95 145.009 622.95 151.398 Q622.95 157.764 619.778 161.398 Q616.607 165.009 611.051 165.009 Q605.473 165.009 602.302 161.398 Q599.153 157.764 599.153 151.398 Q599.153 145.009 602.302 141.398 Q605.473 137.787 611.051 137.787 Z" fill="#000000" fill-rule="evenodd" fill-opacity="1" /><path clip-path="url(#clip340)" d="M651.561 148.689 L651.561 164.338 L647.301 164.338 L647.301 148.828 Q647.301 145.148 645.866 143.319 Q644.431 141.49 641.561 141.49 Q638.112 141.49 636.121 143.69 Q634.13 145.889 634.13 149.685 L634.13 164.338 L629.848 164.338 L629.848 138.412 L634.13 138.412 L634.13 142.44 Q635.658 140.102 637.718 138.944 Q639.801 137.787 642.51 137.787 Q646.977 137.787 649.269 140.565 Q651.561 143.319 651.561 148.689 Z" fill="#000000" fill-rule="evenodd" fill-opacity="1" /><polyline clip-path="url(#clip340)" style="stroke:#e26f46; stroke-linecap:round; stroke-linejoin:round; stroke-width:4; stroke-opacity:1; fill:none" points="253.896,198.898 400.328,198.898 "/>
<path clip-path="url(#clip340)" d="M424.733 181.618 L446.585 181.618 L446.585 185.553 L429.409 185.553 L429.409 195.784 L445.867 195.784 L445.867 199.719 L429.409 199.719 L429.409 212.242 L447.001 212.242 L447.001 216.178 L424.733 216.178 L424.733 181.618 Z" fill="#000000" fill-rule="evenodd" fill-opacity="1" /><path clip-path="url(#clip340)" d="M476.052 190.252 L466.677 202.867 L476.538 216.178 L471.515 216.178 L463.969 205.992 L456.423 216.178 L451.4 216.178 L461.469 202.613 L452.256 190.252 L457.279 190.252 L464.154 199.488 L471.029 190.252 L476.052 190.252 Z" fill="#000000" fill-rule="evenodd" fill-opacity="1" /><path clip-path="url(#clip340)" d="M494.339 203.145 Q489.177 203.145 487.186 204.326 Q485.196 205.506 485.196 208.354 Q485.196 210.622 486.677 211.965 Q488.182 213.284 490.751 213.284 Q494.293 213.284 496.422 210.784 Q498.575 208.261 498.575 204.094 L498.575 203.145 L494.339 203.145 M502.834 201.386 L502.834 216.178 L498.575 216.178 L498.575 212.242 Q497.117 214.603 494.941 215.738 Q492.765 216.849 489.617 216.849 Q485.635 216.849 483.274 214.627 Q480.936 212.381 480.936 208.631 Q480.936 204.256 483.853 202.034 Q486.793 199.812 492.603 199.812 L498.575 199.812 L498.575 199.395 Q498.575 196.455 496.631 194.858 Q494.71 193.238 491.214 193.238 Q488.992 193.238 486.885 193.77 Q484.779 194.303 482.835 195.367 L482.835 191.432 Q485.173 190.53 487.372 190.09 Q489.571 189.627 491.654 189.627 Q497.279 189.627 500.057 192.543 Q502.834 195.46 502.834 201.386 Z" fill="#000000" fill-rule="evenodd" fill-opacity="1" /><path clip-path="url(#clip340)" d="M530.265 191.247 L530.265 195.229 Q528.459 194.233 526.631 193.747 Q524.825 193.238 522.973 193.238 Q518.83 193.238 516.538 195.877 Q514.246 198.492 514.246 203.238 Q514.246 207.983 516.538 210.622 Q518.83 213.238 522.973 213.238 Q524.825 213.238 526.631 212.752 Q528.459 212.242 530.265 211.247 L530.265 215.182 Q528.482 216.016 526.561 216.432 Q524.663 216.849 522.51 216.849 Q516.654 216.849 513.205 213.168 Q509.756 209.488 509.756 203.238 Q509.756 196.895 513.228 193.261 Q516.723 189.627 522.788 189.627 Q524.756 189.627 526.631 190.043 Q528.506 190.437 530.265 191.247 Z" fill="#000000" fill-rule="evenodd" fill-opacity="1" /><path clip-path="url(#clip340)" d="M541.885 182.891 L541.885 190.252 L550.658 190.252 L550.658 193.562 L541.885 193.562 L541.885 207.636 Q541.885 210.807 542.742 211.71 Q543.621 212.613 546.283 212.613 L550.658 212.613 L550.658 216.178 L546.283 216.178 Q541.353 216.178 539.478 214.349 Q537.603 212.497 537.603 207.636 L537.603 193.562 L534.478 193.562 L534.478 190.252 L537.603 190.252 L537.603 182.891 L541.885 182.891 Z" fill="#000000" fill-rule="evenodd" fill-opacity="1" /></svg>
