<?xml version="1.0" encoding="utf-8"?>
<svg xmlns="http://www.w3.org/2000/svg" xmlns:xlink="http://www.w3.org/1999/xlink" width="600" height="400" viewBox="0 0 2400 1600">
<defs>
  <clipPath id="clip310">
    <rect x="0" y="0" width="2400" height="1600"/>
  </clipPath>
</defs>
<path clip-path="url(#clip310)" d="M0 1600 L2400 1600 L2400 0 L0 0  Z" fill="#ffffff" fill-rule="evenodd" fill-opacity="1"/>
<defs>
  <clipPath id="clip311">
    <rect x="480" y="0" width="1681" height="1600"/>
  </clipPath>
</defs>
<path clip-path="url(#clip310)" d="M223.103 1486.45 L2352.76 1486.45 L2352.76 47.2441 L223.103 47.2441  Z" fill="#ffffff" fill-rule="evenodd" fill-opacity="1"/>
<defs>
  <clipPath id="clip312">
    <rect x="223" y="47" width="2131" height="1440"/>
  </clipPath>
</defs>
<polyline clip-path="url(#clip312)" style="stroke:#000000; stroke-linecap:round; stroke-linejoin:round; stroke-width:2; stroke-opacity:0.1; fill:none" points="283.376,1486.45 283.376,47.2441 "/>
<polyline clip-path="url(#clip312)" style="stroke:#000000; stroke-linecap:round; stroke-linejoin:round; stroke-width:2; stroke-opacity:0.1; fill:none" points="785.652,1486.45 785.652,47.2441 "/>
<polyline clip-path="url(#clip312)" style="stroke:#000000; stroke-linecap:round; stroke-linejoin:round; stroke-width:2; stroke-opacity:0.1; fill:none" points="1287.93,1486.45 1287.93,47.2441 "/>
<polyline clip-path="url(#clip312)" style="stroke:#000000; stroke-linecap:round; stroke-linejoin:round; stroke-width:2; stroke-opacity:0.1; fill:none" points="1790.21,1486.45 1790.21,47.2441 "/>
<polyline clip-path="url(#clip312)" style="stroke:#000000; stroke-linecap:round; stroke-linejoin:round; stroke-width:2; stroke-opacity:0.1; fill:none" points="2292.48,1486.45 2292.48,47.2441 "/>
<polyline clip-path="url(#clip310)" style="stroke:#000000; stroke-linecap:round; stroke-linejoin:round; stroke-width:4; stroke-opacity:1; fill:none" points="223.103,1486.45 2352.76,1486.45 "/>
<polyline clip-path="url(#clip310)" style="stroke:#000000; stroke-linecap:round; stroke-linejoin:round; stroke-width:4; stroke-opacity:1; fill:none" points="283.376,1486.45 283.376,1467.55 "/>
<polyline clip-path="url(#clip310)" style="stroke:#000000; stroke-linecap:round; stroke-linejoin:round; stroke-width:4; stroke-opacity:1; fill:none" points="785.652,1486.45 785.652,1467.55 "/>
<polyline clip-path="url(#clip310)" style="stroke:#000000; stroke-linecap:round; stroke-linejoin:round; stroke-width:4; stroke-opacity:1; fill:none" points="1287.93,1486.45 1287.93,1467.55 "/>
<polyline clip-path="url(#clip310)" style="stroke:#000000; stroke-linecap:round; stroke-linejoin:round; stroke-width:4; stroke-opacity:1; fill:none" points="1790.21,1486.45 1790.21,1467.55 "/>
<polyline clip-path="url(#clip310)" style="stroke:#000000; stroke-linecap:round; stroke-linejoin:round; stroke-width:4; stroke-opacity:1; fill:none" points="2292.48,1486.45 2292.48,1467.55 "/>
<path clip-path="url(#clip310)" d="M229.904 1532.02 L259.58 1532.02 L259.58 1535.95 L229.904 1535.95 L229.904 1532.02 Z" fill="#000000" fill-rule="evenodd" fill-opacity="1" /><path clip-path="url(#clip310)" d="M270.482 1544.91 L278.121 1544.91 L278.121 1518.55 L269.811 1520.21 L269.811 1515.95 L278.075 1514.29 L282.751 1514.29 L282.751 1544.91 L290.39 1544.91 L290.39 1548.85 L270.482 1548.85 L270.482 1544.91 Z" fill="#000000" fill-rule="evenodd" fill-opacity="1" /><path clip-path="url(#clip310)" d="M299.834 1542.97 L304.718 1542.97 L304.718 1548.85 L299.834 1548.85 L299.834 1542.97 Z" fill="#000000" fill-rule="evenodd" fill-opacity="1" /><path clip-path="url(#clip310)" d="M324.903 1517.37 Q321.292 1517.37 319.463 1520.93 Q317.658 1524.47 317.658 1531.6 Q317.658 1538.71 319.463 1542.27 Q321.292 1545.82 324.903 1545.82 Q328.538 1545.82 330.343 1542.27 Q332.172 1538.71 332.172 1531.6 Q332.172 1524.47 330.343 1520.93 Q328.538 1517.37 324.903 1517.37 M324.903 1513.66 Q330.713 1513.66 333.769 1518.27 Q336.848 1522.85 336.848 1531.6 Q336.848 1540.33 333.769 1544.94 Q330.713 1549.52 324.903 1549.52 Q319.093 1549.52 316.014 1544.94 Q312.959 1540.33 312.959 1531.6 Q312.959 1522.85 316.014 1518.27 Q319.093 1513.66 324.903 1513.66 Z" fill="#000000" fill-rule="evenodd" fill-opacity="1" /><path clip-path="url(#clip310)" d="M732.678 1532.02 L762.354 1532.02 L762.354 1535.95 L732.678 1535.95 L732.678 1532.02 Z" fill="#000000" fill-rule="evenodd" fill-opacity="1" /><path clip-path="url(#clip310)" d="M782.446 1517.37 Q778.835 1517.37 777.007 1520.93 Q775.201 1524.47 775.201 1531.6 Q775.201 1538.71 777.007 1542.27 Q778.835 1545.82 782.446 1545.82 Q786.081 1545.82 787.886 1542.27 Q789.715 1538.71 789.715 1531.6 Q789.715 1524.47 787.886 1520.93 Q786.081 1517.37 782.446 1517.37 M782.446 1513.66 Q788.257 1513.66 791.312 1518.27 Q794.391 1522.85 794.391 1531.6 Q794.391 1540.33 791.312 1544.94 Q788.257 1549.52 782.446 1549.52 Q776.636 1549.52 773.558 1544.94 Q770.502 1540.33 770.502 1531.6 Q770.502 1522.85 773.558 1518.27 Q776.636 1513.66 782.446 1513.66 Z" fill="#000000" fill-rule="evenodd" fill-opacity="1" /><path clip-path="url(#clip310)" d="M802.608 1542.97 L807.493 1542.97 L807.493 1548.85 L802.608 1548.85 L802.608 1542.97 Z" fill="#000000" fill-rule="evenodd" fill-opacity="1" /><path clip-path="url(#clip310)" d="M817.724 1514.29 L836.08 1514.29 L836.08 1518.22 L822.006 1518.22 L822.006 1526.7 Q823.025 1526.35 824.043 1526.19 Q825.062 1526 826.08 1526 Q831.867 1526 835.247 1529.17 Q838.627 1532.34 838.627 1537.76 Q838.627 1543.34 835.155 1546.44 Q831.682 1549.52 825.363 1549.52 Q823.187 1549.52 820.918 1549.15 Q818.673 1548.78 816.266 1548.04 L816.266 1543.34 Q818.349 1544.47 820.571 1545.03 Q822.793 1545.58 825.27 1545.58 Q829.275 1545.58 831.613 1543.48 Q833.951 1541.37 833.951 1537.76 Q833.951 1534.15 831.613 1532.04 Q829.275 1529.94 825.27 1529.94 Q823.395 1529.94 821.52 1530.35 Q819.668 1530.77 817.724 1531.65 L817.724 1514.29 Z" fill="#000000" fill-rule="evenodd" fill-opacity="1" /><path clip-path="url(#clip310)" d="M1265.31 1517.37 Q1261.7 1517.37 1259.87 1520.93 Q1258.07 1524.47 1258.07 1531.6 Q1258.07 1538.71 1259.87 1542.27 Q1261.7 1545.82 1265.31 1545.82 Q1268.95 1545.82 1270.75 1542.27 Q1272.58 1538.71 1272.58 1531.6 Q1272.58 1524.47 1270.75 1520.93 Q1268.95 1517.37 1265.31 1517.37 M1265.31 1513.66 Q1271.12 1513.66 1274.18 1518.27 Q1277.26 1522.85 1277.26 1531.6 Q1277.26 1540.33 1274.18 1544.94 Q1271.12 1549.52 1265.31 1549.52 Q1259.5 1549.52 1256.42 1544.94 Q1253.37 1540.33 1253.37 1531.6 Q1253.37 1522.85 1256.42 1518.27 Q1259.5 1513.66 1265.31 1513.66 Z" fill="#000000" fill-rule="evenodd" fill-opacity="1" /><path clip-path="url(#clip310)" d="M1285.48 1542.97 L1290.36 1542.97 L1290.36 1548.85 L1285.48 1548.85 L1285.48 1542.97 Z" fill="#000000" fill-rule="evenodd" fill-opacity="1" /><path clip-path="url(#clip310)" d="M1310.54 1517.37 Q1306.93 1517.37 1305.11 1520.93 Q1303.3 1524.47 1303.3 1531.6 Q1303.3 1538.71 1305.11 1542.27 Q1306.93 1545.82 1310.54 1545.82 Q1314.18 1545.82 1315.98 1542.27 Q1317.81 1538.71 1317.81 1531.6 Q1317.81 1524.47 1315.98 1520.93 Q1314.18 1517.37 1310.54 1517.37 M1310.54 1513.66 Q1316.35 1513.66 1319.41 1518.27 Q1322.49 1522.85 1322.49 1531.6 Q1322.49 1540.33 1319.41 1544.94 Q1316.35 1549.52 1310.54 1549.52 Q1304.73 1549.52 1301.66 1544.94 Q1298.6 1540.33 1298.6 1531.6 Q1298.6 1522.85 1301.66 1518.27 Q1304.73 1513.66 1310.54 1513.66 Z" fill="#000000" fill-rule="evenodd" fill-opacity="1" /><path clip-path="url(#clip310)" d="M1768.09 1517.37 Q1764.48 1517.37 1762.65 1520.93 Q1760.84 1524.47 1760.84 1531.6 Q1760.84 1538.71 1762.65 1542.27 Q1764.48 1545.82 1768.09 1545.82 Q1771.72 1545.82 1773.53 1542.27 Q1775.36 1538.71 1775.36 1531.6 Q1775.36 1524.47 1773.53 1520.93 Q1771.72 1517.37 1768.09 1517.37 M1768.09 1513.66 Q1773.9 1513.66 1776.95 1518.27 Q1780.03 1522.85 1780.03 1531.6 Q1780.03 1540.33 1776.95 1544.94 Q1773.9 1549.52 1768.09 1549.52 Q1762.28 1549.52 1759.2 1544.94 Q1756.14 1540.33 1756.14 1531.6 Q1756.14 1522.85 1759.2 1518.27 Q1762.28 1513.66 1768.09 1513.66 Z" fill="#000000" fill-rule="evenodd" fill-opacity="1" /><path clip-path="url(#clip310)" d="M1788.25 1542.97 L1793.13 1542.97 L1793.13 1548.85 L1788.25 1548.85 L1788.25 1542.97 Z" fill="#000000" fill-rule="evenodd" fill-opacity="1" /><path clip-path="url(#clip310)" d="M1803.37 1514.29 L1821.72 1514.29 L1821.72 1518.22 L1807.65 1518.22 L1807.65 1526.7 Q1808.67 1526.35 1809.69 1526.19 Q1810.7 1526 1811.72 1526 Q1817.51 1526 1820.89 1529.17 Q1824.27 1532.34 1824.27 1537.76 Q1824.27 1543.34 1820.8 1546.44 Q1817.32 1549.52 1811 1549.52 Q1808.83 1549.52 1806.56 1549.15 Q1804.31 1548.78 1801.91 1548.04 L1801.91 1543.34 Q1803.99 1544.47 1806.21 1545.03 Q1808.44 1545.58 1810.91 1545.58 Q1814.92 1545.58 1817.25 1543.48 Q1819.59 1541.37 1819.59 1537.76 Q1819.59 1534.15 1817.25 1532.04 Q1814.92 1529.94 1810.91 1529.94 Q1809.04 1529.94 1807.16 1530.35 Q1805.31 1530.77 1803.37 1531.65 L1803.37 1514.29 Z" fill="#000000" fill-rule="evenodd" fill-opacity="1" /><path clip-path="url(#clip310)" d="M2259.64 1544.91 L2267.27 1544.91 L2267.27 1518.55 L2258.96 1520.21 L2258.96 1515.95 L2267.23 1514.29 L2271.9 1514.29 L2271.9 1544.91 L2279.54 1544.91 L2279.54 1548.85 L2259.64 1548.85 L2259.64 1544.91 Z" fill="#000000" fill-rule="evenodd" fill-opacity="1" /><path clip-path="url(#clip310)" d="M2288.99 1542.97 L2293.87 1542.97 L2293.87 1548.85 L2288.99 1548.85 L2288.99 1542.97 Z" fill="#000000" fill-rule="evenodd" fill-opacity="1" /><path clip-path="url(#clip310)" d="M2314.06 1517.37 Q2310.45 1517.37 2308.62 1520.93 Q2306.81 1524.47 2306.81 1531.6 Q2306.81 1538.71 2308.62 1542.27 Q2310.45 1545.82 2314.06 1545.82 Q2317.69 1545.82 2319.5 1542.27 Q2321.33 1538.71 2321.33 1531.6 Q2321.33 1524.47 2319.5 1520.93 Q2317.69 1517.37 2314.06 1517.37 M2314.06 1513.66 Q2319.87 1513.66 2322.92 1518.27 Q2326 1522.85 2326 1531.6 Q2326 1540.33 2322.92 1544.94 Q2319.87 1549.52 2314.06 1549.52 Q2308.25 1549.52 2305.17 1544.94 Q2302.11 1540.33 2302.11 1531.6 Q2302.11 1522.85 2305.17 1518.27 Q2308.25 1513.66 2314.06 1513.66 Z" fill="#000000" fill-rule="evenodd" fill-opacity="1" /><polyline clip-path="url(#clip312)" style="stroke:#000000; stroke-linecap:round; stroke-linejoin:round; stroke-width:2; stroke-opacity:0.1; fill:none" points="223.103,1356.52 2352.76,1356.52 "/>
<polyline clip-path="url(#clip312)" style="stroke:#000000; stroke-linecap:round; stroke-linejoin:round; stroke-width:2; stroke-opacity:0.1; fill:none" points="223.103,1151.43 2352.76,1151.43 "/>
<polyline clip-path="url(#clip312)" style="stroke:#000000; stroke-linecap:round; stroke-linejoin:round; stroke-width:2; stroke-opacity:0.1; fill:none" points="223.103,946.333 2352.76,946.333 "/>
<polyline clip-path="url(#clip312)" style="stroke:#000000; stroke-linecap:round; stroke-linejoin:round; stroke-width:2; stroke-opacity:0.1; fill:none" points="223.103,741.24 2352.76,741.24 "/>
<polyline clip-path="url(#clip312)" style="stroke:#000000; stroke-linecap:round; stroke-linejoin:round; stroke-width:2; stroke-opacity:0.1; fill:none" points="223.103,536.147 2352.76,536.147 "/>
<polyline clip-path="url(#clip312)" style="stroke:#000000; stroke-linecap:round; stroke-linejoin:round; stroke-width:2; stroke-opacity:0.1; fill:none" points="223.103,331.054 2352.76,331.054 "/>
<polyline clip-path="url(#clip312)" style="stroke:#000000; stroke-linecap:round; stroke-linejoin:round; stroke-width:2; stroke-opacity:0.1; fill:none" points="223.103,125.961 2352.76,125.961 "/>
<polyline clip-path="url(#clip310)" style="stroke:#000000; stroke-linecap:round; stroke-linejoin:round; stroke-width:4; stroke-opacity:1; fill:none" points="223.103,1486.45 223.103,47.2441 "/>
<polyline clip-path="url(#clip310)" style="stroke:#000000; stroke-linecap:round; stroke-linejoin:round; stroke-width:4; stroke-opacity:1; fill:none" points="223.103,1356.52 242,1356.52 "/>
<polyline clip-path="url(#clip310)" style="stroke:#000000; stroke-linecap:round; stroke-linejoin:round; stroke-width:4; stroke-opacity:1; fill:none" points="223.103,1151.43 242,1151.43 "/>
<polyline clip-path="url(#clip310)" style="stroke:#000000; stroke-linecap:round; stroke-linejoin:round; stroke-width:4; stroke-opacity:1; fill:none" points="223.103,946.333 242,946.333 "/>
<polyline clip-path="url(#clip310)" style="stroke:#000000; stroke-linecap:round; stroke-linejoin:round; stroke-width:4; stroke-opacity:1; fill:none" points="223.103,741.24 242,741.24 "/>
<polyline clip-path="url(#clip310)" style="stroke:#000000; stroke-linecap:round; stroke-linejoin:round; stroke-width:4; stroke-opacity:1; fill:none" points="223.103,536.147 242,536.147 "/>
<polyline clip-path="url(#clip310)" style="stroke:#000000; stroke-linecap:round; stroke-linejoin:round; stroke-width:4; stroke-opacity:1; fill:none" points="223.103,331.054 242,331.054 "/>
<polyline clip-path="url(#clip310)" style="stroke:#000000; stroke-linecap:round; stroke-linejoin:round; stroke-width:4; stroke-opacity:1; fill:none" points="223.103,125.961 242,125.961 "/>
<path clip-path="url(#clip310)" d="M50.9921 1356.97 L80.6679 1356.97 L80.6679 1360.9 L50.9921 1360.9 L50.9921 1356.97 Z" fill="#000000" fill-rule="evenodd" fill-opacity="1" /><path clip-path="url(#clip310)" d="M100.76 1342.32 Q97.1493 1342.32 95.3206 1345.88 Q93.515 1349.42 93.515 1356.55 Q93.515 1363.66 95.3206 1367.22 Q97.1493 1370.77 100.76 1370.77 Q104.395 1370.77 106.2 1367.22 Q108.029 1363.66 108.029 1356.55 Q108.029 1349.42 106.2 1345.88 Q104.395 1342.32 100.76 1342.32 M100.76 1338.61 Q106.571 1338.61 109.626 1343.22 Q112.705 1347.8 112.705 1356.55 Q112.705 1365.28 109.626 1369.89 Q106.571 1374.47 100.76 1374.47 Q94.9502 1374.47 91.8715 1369.89 Q88.816 1365.28 88.816 1356.55 Q88.816 1347.8 91.8715 1343.22 Q94.9502 1338.61 100.76 1338.61 Z" fill="#000000" fill-rule="evenodd" fill-opacity="1" /><path clip-path="url(#clip310)" d="M120.922 1367.92 L125.807 1367.92 L125.807 1373.8 L120.922 1373.8 L120.922 1367.92 Z" fill="#000000" fill-rule="evenodd" fill-opacity="1" /><path clip-path="url(#clip310)" d="M140.019 1369.86 L156.339 1369.86 L156.339 1373.8 L134.394 1373.8 L134.394 1369.86 Q137.056 1367.11 141.64 1362.48 Q146.246 1357.83 147.427 1356.48 Q149.672 1353.96 150.552 1352.22 Q151.455 1350.46 151.455 1348.78 Q151.455 1346.02 149.51 1344.28 Q147.589 1342.55 144.487 1342.55 Q142.288 1342.55 139.834 1343.31 Q137.404 1344.08 134.626 1345.63 L134.626 1340.9 Q137.45 1339.77 139.904 1339.19 Q142.357 1338.61 144.394 1338.61 Q149.765 1338.61 152.959 1341.3 Q156.154 1343.98 156.154 1348.47 Q156.154 1350.6 155.343 1352.53 Q154.556 1354.42 152.45 1357.02 Q151.871 1357.69 148.769 1360.9 Q145.668 1364.1 140.019 1369.86 Z" fill="#000000" fill-rule="evenodd" fill-opacity="1" /><path clip-path="url(#clip310)" d="M166.2 1339.24 L184.556 1339.24 L184.556 1343.17 L170.482 1343.17 L170.482 1351.65 Q171.501 1351.3 172.519 1351.14 Q173.538 1350.95 174.556 1350.95 Q180.343 1350.95 183.723 1354.12 Q187.103 1357.29 187.103 1362.71 Q187.103 1368.29 183.63 1371.39 Q180.158 1374.47 173.839 1374.47 Q171.663 1374.47 169.394 1374.1 Q167.149 1373.73 164.742 1372.99 L164.742 1368.29 Q166.825 1369.42 169.047 1369.98 Q171.269 1370.53 173.746 1370.53 Q177.751 1370.53 180.089 1368.43 Q182.427 1366.32 182.427 1362.71 Q182.427 1359.1 180.089 1356.99 Q177.751 1354.89 173.746 1354.89 Q171.871 1354.89 169.996 1355.3 Q168.144 1355.72 166.2 1356.6 L166.2 1339.24 Z" fill="#000000" fill-rule="evenodd" fill-opacity="1" /><path clip-path="url(#clip310)" d="M99.765 1137.22 Q96.1539 1137.22 94.3252 1140.79 Q92.5197 1144.33 92.5197 1151.46 Q92.5197 1158.57 94.3252 1162.13 Q96.1539 1165.67 99.765 1165.67 Q103.399 1165.67 105.205 1162.13 Q107.033 1158.57 107.033 1151.46 Q107.033 1144.33 105.205 1140.79 Q103.399 1137.22 99.765 1137.22 M99.765 1133.52 Q105.575 1133.52 108.631 1138.13 Q111.709 1142.71 111.709 1151.46 Q111.709 1160.19 108.631 1164.79 Q105.575 1169.38 99.765 1169.38 Q93.9549 1169.38 90.8762 1164.79 Q87.8206 1160.19 87.8206 1151.46 Q87.8206 1142.71 90.8762 1138.13 Q93.9549 1133.52 99.765 1133.52 Z" fill="#000000" fill-rule="evenodd" fill-opacity="1" /><path clip-path="url(#clip310)" d="M119.927 1162.83 L124.811 1162.83 L124.811 1168.71 L119.927 1168.71 L119.927 1162.83 Z" fill="#000000" fill-rule="evenodd" fill-opacity="1" /><path clip-path="url(#clip310)" d="M144.996 1137.22 Q141.385 1137.22 139.556 1140.79 Q137.751 1144.33 137.751 1151.46 Q137.751 1158.57 139.556 1162.13 Q141.385 1165.67 144.996 1165.67 Q148.63 1165.67 150.436 1162.13 Q152.265 1158.57 152.265 1151.46 Q152.265 1144.33 150.436 1140.79 Q148.63 1137.22 144.996 1137.22 M144.996 1133.52 Q150.806 1133.52 153.862 1138.13 Q156.941 1142.71 156.941 1151.46 Q156.941 1160.19 153.862 1164.79 Q150.806 1169.38 144.996 1169.38 Q139.186 1169.38 136.107 1164.79 Q133.052 1160.19 133.052 1151.46 Q133.052 1142.71 136.107 1138.13 Q139.186 1133.52 144.996 1133.52 Z" fill="#000000" fill-rule="evenodd" fill-opacity="1" /><path clip-path="url(#clip310)" d="M175.158 1137.22 Q171.547 1137.22 169.718 1140.79 Q167.913 1144.33 167.913 1151.46 Q167.913 1158.57 169.718 1162.13 Q171.547 1165.67 175.158 1165.67 Q178.792 1165.67 180.598 1162.13 Q182.427 1158.57 182.427 1151.46 Q182.427 1144.33 180.598 1140.79 Q178.792 1137.22 175.158 1137.22 M175.158 1133.52 Q180.968 1133.52 184.024 1138.13 Q187.103 1142.71 187.103 1151.46 Q187.103 1160.19 184.024 1164.79 Q180.968 1169.38 175.158 1169.38 Q169.348 1169.38 166.269 1164.79 Q163.214 1160.19 163.214 1151.46 Q163.214 1142.71 166.269 1138.13 Q169.348 1133.52 175.158 1133.52 Z" fill="#000000" fill-rule="evenodd" fill-opacity="1" /><path clip-path="url(#clip310)" d="M100.76 932.131 Q97.1493 932.131 95.3206 935.696 Q93.515 939.238 93.515 946.367 Q93.515 953.474 95.3206 957.038 Q97.1493 960.58 100.76 960.58 Q104.395 960.58 106.2 957.038 Q108.029 953.474 108.029 946.367 Q108.029 939.238 106.2 935.696 Q104.395 932.131 100.76 932.131 M100.76 928.428 Q106.571 928.428 109.626 933.034 Q112.705 937.617 112.705 946.367 Q112.705 955.094 109.626 959.701 Q106.571 964.284 100.76 964.284 Q94.9502 964.284 91.8715 959.701 Q88.816 955.094 88.816 946.367 Q88.816 937.617 91.8715 933.034 Q94.9502 928.428 100.76 928.428 Z" fill="#000000" fill-rule="evenodd" fill-opacity="1" /><path clip-path="url(#clip310)" d="M120.922 957.733 L125.807 957.733 L125.807 963.613 L120.922 963.613 L120.922 957.733 Z" fill="#000000" fill-rule="evenodd" fill-opacity="1" /><path clip-path="url(#clip310)" d="M140.019 959.677 L156.339 959.677 L156.339 963.613 L134.394 963.613 L134.394 959.677 Q137.056 956.923 141.64 952.293 Q146.246 947.64 147.427 946.298 Q149.672 943.775 150.552 942.039 Q151.455 940.279 151.455 938.59 Q151.455 935.835 149.51 934.099 Q147.589 932.363 144.487 932.363 Q142.288 932.363 139.834 933.127 Q137.404 933.89 134.626 935.441 L134.626 930.719 Q137.45 929.585 139.904 929.006 Q142.357 928.428 144.394 928.428 Q149.765 928.428 152.959 931.113 Q156.154 933.798 156.154 938.289 Q156.154 940.418 155.343 942.339 Q154.556 944.238 152.45 946.83 Q151.871 947.502 148.769 950.719 Q145.668 953.914 140.019 959.677 Z" fill="#000000" fill-rule="evenodd" fill-opacity="1" /><path clip-path="url(#clip310)" d="M166.2 929.053 L184.556 929.053 L184.556 932.988 L170.482 932.988 L170.482 941.46 Q171.501 941.113 172.519 940.951 Q173.538 940.765 174.556 940.765 Q180.343 940.765 183.723 943.937 Q187.103 947.108 187.103 952.525 Q187.103 958.103 183.63 961.205 Q180.158 964.284 173.839 964.284 Q171.663 964.284 169.394 963.913 Q167.149 963.543 164.742 962.802 L164.742 958.103 Q166.825 959.238 169.047 959.793 Q171.269 960.349 173.746 960.349 Q177.751 960.349 180.089 958.242 Q182.427 956.136 182.427 952.525 Q182.427 948.914 180.089 946.807 Q177.751 944.701 173.746 944.701 Q171.871 944.701 169.996 945.117 Q168.144 945.534 166.2 946.414 L166.2 929.053 Z" fill="#000000" fill-rule="evenodd" fill-opacity="1" /><path clip-path="url(#clip310)" d="M99.765 727.038 Q96.1539 727.038 94.3252 730.603 Q92.5197 734.145 92.5197 741.274 Q92.5197 748.381 94.3252 751.946 Q96.1539 755.487 99.765 755.487 Q103.399 755.487 105.205 751.946 Q107.033 748.381 107.033 741.274 Q107.033 734.145 105.205 730.603 Q103.399 727.038 99.765 727.038 M99.765 723.335 Q105.575 723.335 108.631 727.941 Q111.709 732.525 111.709 741.274 Q111.709 750.001 108.631 754.608 Q105.575 759.191 99.765 759.191 Q93.9549 759.191 90.8762 754.608 Q87.8206 750.001 87.8206 741.274 Q87.8206 732.525 90.8762 727.941 Q93.9549 723.335 99.765 723.335 Z" fill="#000000" fill-rule="evenodd" fill-opacity="1" /><path clip-path="url(#clip310)" d="M119.927 752.64 L124.811 752.64 L124.811 758.52 L119.927 758.52 L119.927 752.64 Z" fill="#000000" fill-rule="evenodd" fill-opacity="1" /><path clip-path="url(#clip310)" d="M135.043 723.96 L153.399 723.96 L153.399 727.895 L139.325 727.895 L139.325 736.367 Q140.343 736.02 141.362 735.858 Q142.381 735.673 143.399 735.673 Q149.186 735.673 152.566 738.844 Q155.945 742.015 155.945 747.432 Q155.945 753.011 152.473 756.112 Q149.001 759.191 142.681 759.191 Q140.506 759.191 138.237 758.821 Q135.992 758.45 133.584 757.71 L133.584 753.011 Q135.668 754.145 137.89 754.7 Q140.112 755.256 142.589 755.256 Q146.593 755.256 148.931 753.149 Q151.269 751.043 151.269 747.432 Q151.269 743.821 148.931 741.714 Q146.593 739.608 142.589 739.608 Q140.714 739.608 138.839 740.024 Q136.987 740.441 135.043 741.321 L135.043 723.96 Z" fill="#000000" fill-rule="evenodd" fill-opacity="1" /><path clip-path="url(#clip310)" d="M175.158 727.038 Q171.547 727.038 169.718 730.603 Q167.913 734.145 167.913 741.274 Q167.913 748.381 169.718 751.946 Q171.547 755.487 175.158 755.487 Q178.792 755.487 180.598 751.946 Q182.427 748.381 182.427 741.274 Q182.427 734.145 180.598 730.603 Q178.792 727.038 175.158 727.038 M175.158 723.335 Q180.968 723.335 184.024 727.941 Q187.103 732.525 187.103 741.274 Q187.103 750.001 184.024 754.608 Q180.968 759.191 175.158 759.191 Q169.348 759.191 166.269 754.608 Q163.214 750.001 163.214 741.274 Q163.214 732.525 166.269 727.941 Q169.348 723.335 175.158 723.335 Z" fill="#000000" fill-rule="evenodd" fill-opacity="1" /><path clip-path="url(#clip310)" d="M100.76 521.946 Q97.1493 521.946 95.3206 525.51 Q93.515 529.052 93.515 536.182 Q93.515 543.288 95.3206 546.853 Q97.1493 550.395 100.76 550.395 Q104.395 550.395 106.2 546.853 Q108.029 543.288 108.029 536.182 Q108.029 529.052 106.2 525.51 Q104.395 521.946 100.76 521.946 M100.76 518.242 Q106.571 518.242 109.626 522.848 Q112.705 527.432 112.705 536.182 Q112.705 544.908 109.626 549.515 Q106.571 554.098 100.76 554.098 Q94.9502 554.098 91.8715 549.515 Q88.816 544.908 88.816 536.182 Q88.816 527.432 91.8715 522.848 Q94.9502 518.242 100.76 518.242 Z" fill="#000000" fill-rule="evenodd" fill-opacity="1" /><path clip-path="url(#clip310)" d="M120.922 547.547 L125.807 547.547 L125.807 553.427 L120.922 553.427 L120.922 547.547 Z" fill="#000000" fill-rule="evenodd" fill-opacity="1" /><path clip-path="url(#clip310)" d="M134.811 518.867 L157.033 518.867 L157.033 520.858 L144.487 553.427 L139.603 553.427 L151.408 522.802 L134.811 522.802 L134.811 518.867 Z" fill="#000000" fill-rule="evenodd" fill-opacity="1" /><path clip-path="url(#clip310)" d="M166.2 518.867 L184.556 518.867 L184.556 522.802 L170.482 522.802 L170.482 531.274 Q171.501 530.927 172.519 530.765 Q173.538 530.58 174.556 530.58 Q180.343 530.58 183.723 533.751 Q187.103 536.922 187.103 542.339 Q187.103 547.918 183.63 551.02 Q180.158 554.098 173.839 554.098 Q171.663 554.098 169.394 553.728 Q167.149 553.358 164.742 552.617 L164.742 547.918 Q166.825 549.052 169.047 549.608 Q171.269 550.163 173.746 550.163 Q177.751 550.163 180.089 548.057 Q182.427 545.95 182.427 542.339 Q182.427 538.728 180.089 536.621 Q177.751 534.515 173.746 534.515 Q171.871 534.515 169.996 534.932 Q168.144 535.348 166.2 536.228 L166.2 518.867 Z" fill="#000000" fill-rule="evenodd" fill-opacity="1" /><path clip-path="url(#clip310)" d="M90.5752 344.399 L98.2141 344.399 L98.2141 318.033 L89.904 319.7 L89.904 315.441 L98.1678 313.774 L102.844 313.774 L102.844 344.399 L110.483 344.399 L110.483 348.334 L90.5752 348.334 L90.5752 344.399 Z" fill="#000000" fill-rule="evenodd" fill-opacity="1" /><path clip-path="url(#clip310)" d="M119.927 342.455 L124.811 342.455 L124.811 348.334 L119.927 348.334 L119.927 342.455 Z" fill="#000000" fill-rule="evenodd" fill-opacity="1" /><path clip-path="url(#clip310)" d="M144.996 316.853 Q141.385 316.853 139.556 320.418 Q137.751 323.959 137.751 331.089 Q137.751 338.195 139.556 341.76 Q141.385 345.302 144.996 345.302 Q148.63 345.302 150.436 341.76 Q152.265 338.195 152.265 331.089 Q152.265 323.959 150.436 320.418 Q148.63 316.853 144.996 316.853 M144.996 313.149 Q150.806 313.149 153.862 317.756 Q156.941 322.339 156.941 331.089 Q156.941 339.816 153.862 344.422 Q150.806 349.005 144.996 349.005 Q139.186 349.005 136.107 344.422 Q133.052 339.816 133.052 331.089 Q133.052 322.339 136.107 317.756 Q139.186 313.149 144.996 313.149 Z" fill="#000000" fill-rule="evenodd" fill-opacity="1" /><path clip-path="url(#clip310)" d="M175.158 316.853 Q171.547 316.853 169.718 320.418 Q167.913 323.959 167.913 331.089 Q167.913 338.195 169.718 341.76 Q171.547 345.302 175.158 345.302 Q178.792 345.302 180.598 341.76 Q182.427 338.195 182.427 331.089 Q182.427 323.959 180.598 320.418 Q178.792 316.853 175.158 316.853 M175.158 313.149 Q180.968 313.149 184.024 317.756 Q187.103 322.339 187.103 331.089 Q187.103 339.816 184.024 344.422 Q180.968 349.005 175.158 349.005 Q169.348 349.005 166.269 344.422 Q163.214 339.816 163.214 331.089 Q163.214 322.339 166.269 317.756 Q169.348 313.149 175.158 313.149 Z" fill="#000000" fill-rule="evenodd" fill-opacity="1" /><path clip-path="url(#clip310)" d="M91.5706 139.306 L99.2095 139.306 L99.2095 112.941 L90.8993 114.607 L90.8993 110.348 L99.1632 108.681 L103.839 108.681 L103.839 139.306 L111.478 139.306 L111.478 143.241 L91.5706 143.241 L91.5706 139.306 Z" fill="#000000" fill-rule="evenodd" fill-opacity="1" /><path clip-path="url(#clip310)" d="M120.922 137.362 L125.807 137.362 L125.807 143.241 L120.922 143.241 L120.922 137.362 Z" fill="#000000" fill-rule="evenodd" fill-opacity="1" /><path clip-path="url(#clip310)" d="M140.019 139.306 L156.339 139.306 L156.339 143.241 L134.394 143.241 L134.394 139.306 Q137.056 136.552 141.64 131.922 Q146.246 127.269 147.427 125.927 Q149.672 123.404 150.552 121.667 Q151.455 119.908 151.455 118.218 Q151.455 115.464 149.51 113.728 Q147.589 111.992 144.487 111.992 Q142.288 111.992 139.834 112.755 Q137.404 113.519 134.626 115.07 L134.626 110.348 Q137.45 109.214 139.904 108.635 Q142.357 108.056 144.394 108.056 Q149.765 108.056 152.959 110.742 Q156.154 113.427 156.154 117.917 Q156.154 120.047 155.343 121.968 Q154.556 123.866 152.45 126.459 Q151.871 127.13 148.769 130.348 Q145.668 133.542 140.019 139.306 Z" fill="#000000" fill-rule="evenodd" fill-opacity="1" /><path clip-path="url(#clip310)" d="M166.2 108.681 L184.556 108.681 L184.556 112.617 L170.482 112.617 L170.482 121.089 Q171.501 120.741 172.519 120.579 Q173.538 120.394 174.556 120.394 Q180.343 120.394 183.723 123.566 Q187.103 126.737 187.103 132.153 Q187.103 137.732 183.63 140.834 Q180.158 143.913 173.839 143.913 Q171.663 143.913 169.394 143.542 Q167.149 143.172 164.742 142.431 L164.742 137.732 Q166.825 138.866 169.047 139.422 Q171.269 139.977 173.746 139.977 Q177.751 139.977 180.089 137.871 Q182.427 135.765 182.427 132.153 Q182.427 128.542 180.089 126.436 Q177.751 124.329 173.746 124.329 Q171.871 124.329 169.996 124.746 Q168.144 125.163 166.2 126.042 L166.2 108.681 Z" fill="#000000" fill-rule="evenodd" fill-opacity="1" /><polyline clip-path="url(#clip312)" style="stroke:#009af9; stroke-linecap:round; stroke-linejoin:round; stroke-width:16; stroke-opacity:1; fill:none" stroke-dasharray="8, 16" points="283.376,1028.21 293.472,983.277 303.568,938.019 313.664,934.598 323.76,983.031 333.856,1056.15 343.952,1085.7 354.048,1056.98 364.144,1031.83 374.24,1041.8 384.336,1075.1 394.432,1106.49 404.528,1130.34 414.624,1182.94 424.72,1258.97 434.816,1311.62 444.912,1275.11 455.008,1161.81 465.104,1098.02 475.2,1145.28 485.296,1270.48 495.392,1394.05 505.488,1445.72 515.584,1413.34 525.68,1327.85 535.776,1233.23 545.872,1172.08 555.968,1165.08 566.064,1191.48 576.16,1192.71 586.256,1147.25 596.352,1111.21 606.448,1097.03 616.544,1053.26 626.64,989.4 636.736,959.721 646.832,977.567 656.928,1020.18 667.024,1057.75 677.12,1060.8 687.216,1024.16 697.312,984.721 707.408,985.835 717.504,1016.69 727.6,1045.47 737.696,1093.87 747.792,1174.32 757.888,1232.97 767.984,1221.88 778.08,1182.49 788.176,1190.76 798.272,1245.96 808.369,1287.07 818.465,1284.04 828.561,1266.52 838.657,1269.31 848.753,1294.09 858.849,1315.74 868.945,1314.13 879.041,1299.01 889.137,1281.66 899.233,1254.09 909.329,1223.83 919.425,1200.59 929.521,1176.59 939.617,1144.42 949.713,1107.96 959.809,1075.48 969.905,1052.16 980.001,1037.32 990.097,1030.1 1000.19,1034.18 1010.29,1035.86 1020.38,994.385 1030.48,936.86 1040.58,942.233 1050.67,987.377 1060.77,1019.9 1070.86,1031.93 1080.96,1039.86 1091.06,1063.73 1101.15,1111.44 1111.25,1171.5 1121.34,1222.04 1131.44,1243.06 1141.54,1238.95 1151.63,1260.46 1161.73,1316.5 1171.83,1345.33 1181.92,1323.97 1192.02,1283.94 1202.11,1262.46 1212.21,1265.25 1222.31,1286.12 1232.4,1315.59 1242.5,1339.78 1252.59,1341.24 1262.69,1284.52 1272.79,1068.41 1282.88,691.908 1292.98,416.264 1303.07,326.859 1313.17,340.964 1323.27,359.173 1333.36,351.423 1343.46,343.243 1353.55,350.746 1363.65,366.163 1373.75,371.516 1383.84,347.577 1393.94,291.265 1404.03,233.882 1414.13,216.12 1424.23,271.376 1434.32,341.846 1444.42,365.464 1454.51,368.782 1464.61,370.795 1474.71,370.054 1484.8,358.537 1494.9,332.641 1504.99,299.993 1515.09,279.954 1525.19,301.052 1535.28,360.182 1545.38,382.696 1555.47,338.277 1565.57,322.722 1575.67,361.342 1585.76,389.837 1595.86,381.29 1605.95,343.65 1616.05,294.78 1626.15,256.828 1636.24,246.119 1646.34,266.079 1656.43,305.465 1666.53,343.539 1676.63,375.459 1686.72,417.198 1696.82,450.552 1706.91,432.565 1717.01,381.089 1727.11,339.511 1737.2,306.797 1747.3,261 1757.39,220.682 1767.49,239.558 1777.59,329.716 1787.68,422.781 1797.78,437.411 1807.87,370.89 1817.97,311.873 1828.07,320.573 1838.16,345.4 1848.26,314.304 1858.35,237.737 1868.45,193.332 1878.55,198.157 1888.64,223.426 1898.74,266.991 1908.83,338.718 1918.93,432.526 1929.03,519.826 1939.12,560.827 1949.22,517.719 1959.31,380.958 1969.41,210.921 1979.51,103.521 1989.6,87.9763 1999.7,147.842 2009.79,285.198 2019.89,451.343 2029.99,559.649 2040.08,564.312 2050.18,476.157 2060.27,349.449 2070.37,247.786 2080.47,211.929 2090.56,237.911 2100.66,278.968 2110.75,285.356 2120.85,255.893 2130.95,269.552 2141.04,385.109 2151.14,519.101 2161.23,579.826 2171.33,518.042 2181.43,355.048 2191.52,214.152 2201.62,156.533 2211.71,155.528 2221.81,161.546 2231.91,168.631 2242,223.467 2252.1,328.382 2262.19,428.565 2272.29,496.607 2282.39,537.798 2292.48,535.157 "/>
<polyline clip-path="url(#clip312)" style="stroke:#e26f46; stroke-linecap:round; stroke-linejoin:round; stroke-width:4; stroke-opacity:1; fill:none" points="283.376,1028.21 293.472,1010.73 303.568,997.836 313.664,989.959 323.76,987.352 333.856,990.099 343.952,998.112 354.048,1011.13 364.144,1028.72 374.24,1050.32 384.336,1075.22 394.432,1102.61 404.528,1131.59 414.624,1161.22 424.72,1190.53 434.816,1218.56 444.912,1244.4 455.008,1267.2 465.104,1286.23 475.2,1300.86 485.296,1310.61 495.392,1315.17 505.488,1314.38 515.584,1308.27 525.68,1297.04 535.776,1281.06 545.872,1260.86 555.968,1237.07 566.064,1210.5 576.16,1181.99 586.256,1152.49 596.352,1122.95 606.448,1094.35 616.544,1067.6 626.64,1043.59 636.736,1023.1 646.832,1006.8 656.928,995.22 667.024,988.737 677.12,987.563 687.216,991.738 697.312,1001.12 707.408,1015.42 717.504,1034.15 727.6,1056.7 737.696,1082.35 747.792,1110.26 757.888,1139.51 767.984,1169.14 778.08,1198.2 788.176,1225.73 798.272,1250.84 808.369,1272.7 818.465,1290.61 828.561,1303.97 838.657,1312.35 848.753,1315.48 858.849,1313.26 868.945,1305.75 879.041,1293.21 889.137,1276.04 899.233,1254.8 909.329,1230.19 919.425,1203.01 929.521,1174.15 939.617,1144.54 949.713,1115.16 959.809,1086.96 969.905,1060.87 980.001,1037.73 990.097,1018.3 1000.19,1003.22 1010.29,992.971 1020.38,987.897 1030.48,988.16 1040.58,993.751 1050.67,1004.49 1060.77,1020.02 1070.86,1039.84 1080.96,1063.31 1091.06,1089.65 1101.15,1118 1111.25,1147.45 1121.34,1177.03 1131.44,1205.77 1141.54,1232.73 1151.63,1257.05 1161.73,1277.91 1171.83,1294.65 1181.92,1306.72 1192.02,1313.71 1202.11,1315.41 1212.21,1311.76 1222.31,1302.87 1232.4,1289.04 1242.5,1270.72 1252.59,1248.51 1262.69,1223.13 1272.79,1195.4 1282.88,1166.25 1292.98,329.863 1303.07,328.507 1313.17,329.741 1323.27,333.849 1333.36,339.572 1343.46,344.492 1353.55,345.949 1363.65,342.163 1373.75,333.139 1383.84,320.973 1393.94,309.397 1404.03,302.634 1414.13,303.932 1424.23,314.25 1434.32,331.605 1444.42,351.357 1454.51,367.441 1464.61,374.226 1474.71,368.418 1484.8,350.398 1494.9,324.478 1504.99,297.915 1515.09,278.877 1525.19,273.945 1535.28,285.901 1545.38,312.537 1555.47,346.937 1565.57,379.251 1575.67,399.517 1585.76,400.718 1595.86,381.138 1605.95,345.255 1616.05,302.778 1626.15,266.036 1636.24,246.395 1646.34,250.762 1656.43,279.238 1666.53,324.697 1676.63,374.531 1686.72,414.145 1696.82,431.224 1706.91,419.545 1717.01,381.141 1727.11,326.096 1737.2,269.925 1747.3,229.196 1757.39,216.652 1767.49,237.249 1777.59,286.342 1787.68,350.655 1797.78,411.857 1807.87,451.787 1817.97,457.835 1828.07,426.896 1838.16,366.652 1848.26,293.714 1858.35,229.048 1868.45,191.951 1878.55,194.296 1888.64,236.777 1898.74,308.314 1908.83,388.911 1918.93,455.244 1929.03,487.409 1939.12,474.884 1949.22,419.92 1959.31,337.281 1969.41,250.3 1979.51,184.289 1989.6,159.18 1999.7,183.513 2009.79,251.608 2019.89,344.817 2029.99,436.618 2040.08,500.163 2050.18,516.124 2060.27,478.557 2070.37,397.002 2080.47,294.095 2090.56,199.301 2100.66,140.474 2110.75,135.676 2120.85,187.654 2130.95,282.66 2141.04,394.058 2151.14,489.786 2161.23,541.585 2171.33,533.338 2181.43,466.05 2191.52,357.956 2201.62,239.595 2211.71,145.185 2221.81,102.733 2231.91,125.731 2242,208.91 2252.1,329.37 2262.19,452.867 2272.29,543.557 2282.39,574.385 2292.48,535.157 "/>
<path clip-path="url(#clip310)" d="M294.091 250.738 L733.884 250.738 L733.884 95.2176 L294.091 95.2176  Z" fill="#ffffff" fill-rule="evenodd" fill-opacity="1"/>
<polyline clip-path="url(#clip310)" style="stroke:#000000; stroke-linecap:round; stroke-linejoin:round; stroke-width:4; stroke-opacity:1; fill:none" points="294.091,250.738 733.884,250.738 733.884,95.2176 294.091,95.2176 294.091,250.738 "/>
<polyline clip-path="url(#clip310)" style="stroke:#009af9; stroke-linecap:round; stroke-linejoin:round; stroke-width:16; stroke-opacity:1; fill:none" stroke-dasharray="8, 16" points="317.754,147.058 459.731,147.058 "/>
<path clip-path="url(#clip310)" d="M488.069 133.62 L488.069 146.606 L493.949 146.606 Q497.213 146.606 498.995 144.916 Q500.778 143.227 500.778 140.102 Q500.778 137 498.995 135.31 Q497.213 133.62 493.949 133.62 L488.069 133.62 M483.393 129.778 L493.949 129.778 Q499.759 129.778 502.722 132.416 Q505.708 135.032 505.708 140.102 Q505.708 145.217 502.722 147.833 Q499.759 150.449 493.949 150.449 L488.069 150.449 L488.069 164.338 L483.393 164.338 L483.393 129.778 Z" fill="#000000" fill-rule="evenodd" fill-opacity="1" /><path clip-path="url(#clip310)" d="M525.986 142.393 Q525.268 141.977 524.412 141.791 Q523.578 141.583 522.56 141.583 Q518.949 141.583 517.004 143.944 Q515.083 146.282 515.083 150.68 L515.083 164.338 L510.801 164.338 L510.801 138.412 L515.083 138.412 L515.083 142.44 Q516.426 140.078 518.578 138.944 Q520.731 137.787 523.81 137.787 Q524.25 137.787 524.782 137.856 Q525.315 137.903 525.963 138.018 L525.986 142.393 Z" fill="#000000" fill-rule="evenodd" fill-opacity="1" /><path clip-path="url(#clip310)" d="M551.588 150.31 L551.588 152.393 L532.004 152.393 Q532.282 156.791 534.643 159.106 Q537.027 161.398 541.264 161.398 Q543.717 161.398 546.009 160.796 Q548.324 160.194 550.592 158.99 L550.592 163.018 Q548.301 163.99 545.893 164.5 Q543.486 165.009 541.009 165.009 Q534.805 165.009 531.171 161.398 Q527.56 157.787 527.56 151.629 Q527.56 145.264 530.986 141.537 Q534.435 137.787 540.268 137.787 Q545.5 137.787 548.532 141.166 Q551.588 144.523 551.588 150.31 M547.328 149.06 Q547.282 145.565 545.361 143.481 Q543.463 141.398 540.314 141.398 Q536.75 141.398 534.597 143.412 Q532.467 145.426 532.143 149.083 L547.328 149.06 Z" fill="#000000" fill-rule="evenodd" fill-opacity="1" /><path clip-path="url(#clip310)" d="M575.638 142.347 L575.638 128.319 L579.898 128.319 L579.898 164.338 L575.638 164.338 L575.638 160.449 Q574.296 162.763 572.236 163.898 Q570.199 165.009 567.328 165.009 Q562.629 165.009 559.666 161.259 Q556.726 157.509 556.726 151.398 Q556.726 145.287 559.666 141.537 Q562.629 137.787 567.328 137.787 Q570.199 137.787 572.236 138.921 Q574.296 140.032 575.638 142.347 M561.125 151.398 Q561.125 156.097 563.046 158.782 Q564.99 161.444 568.37 161.444 Q571.749 161.444 573.694 158.782 Q575.638 156.097 575.638 151.398 Q575.638 146.699 573.694 144.037 Q571.749 141.352 568.37 141.352 Q564.99 141.352 563.046 144.037 Q561.125 146.699 561.125 151.398 Z" fill="#000000" fill-rule="evenodd" fill-opacity="1" /><path clip-path="url(#clip310)" d="M588.671 138.412 L592.93 138.412 L592.93 164.338 L588.671 164.338 L588.671 138.412 M588.671 128.319 L592.93 128.319 L592.93 133.713 L588.671 133.713 L588.671 128.319 Z" fill="#000000" fill-rule="evenodd" fill-opacity="1" /><path clip-path="url(#clip310)" d="M620.499 139.407 L620.499 143.389 Q618.694 142.393 616.865 141.907 Q615.059 141.398 613.208 141.398 Q609.064 141.398 606.772 144.037 Q604.481 146.652 604.481 151.398 Q604.481 156.143 606.772 158.782 Q609.064 161.398 613.208 161.398 Q615.059 161.398 616.865 160.912 Q618.694 160.402 620.499 159.407 L620.499 163.342 Q618.717 164.176 616.796 164.592 Q614.897 165.009 612.745 165.009 Q606.888 165.009 603.439 161.328 Q599.99 157.648 599.99 151.398 Q599.99 145.055 603.462 141.421 Q606.958 137.787 613.022 137.787 Q614.99 137.787 616.865 138.203 Q618.74 138.597 620.499 139.407 Z" fill="#000000" fill-rule="evenodd" fill-opacity="1" /><path clip-path="url(#clip310)" d="M632.12 131.051 L632.12 138.412 L640.893 138.412 L640.893 141.722 L632.12 141.722 L632.12 155.796 Q632.12 158.967 632.976 159.87 Q633.856 160.773 636.518 160.773 L640.893 160.773 L640.893 164.338 L636.518 164.338 Q631.587 164.338 629.712 162.509 Q627.837 160.657 627.837 155.796 L627.837 141.722 L624.712 141.722 L624.712 138.412 L627.837 138.412 L627.837 131.051 L632.12 131.051 Z" fill="#000000" fill-rule="evenodd" fill-opacity="1" /><path clip-path="url(#clip310)" d="M646.494 138.412 L650.754 138.412 L650.754 164.338 L646.494 164.338 L646.494 138.412 M646.494 128.319 L650.754 128.319 L650.754 133.713 L646.494 133.713 L646.494 128.319 Z" fill="#000000" fill-rule="evenodd" fill-opacity="1" /><path clip-path="url(#clip310)" d="M669.712 141.398 Q666.286 141.398 664.295 144.083 Q662.305 146.745 662.305 151.398 Q662.305 156.051 664.272 158.736 Q666.263 161.398 669.712 161.398 Q673.115 161.398 675.105 158.713 Q677.096 156.027 677.096 151.398 Q677.096 146.791 675.105 144.106 Q673.115 141.398 669.712 141.398 M669.712 137.787 Q675.267 137.787 678.439 141.398 Q681.61 145.009 681.61 151.398 Q681.61 157.764 678.439 161.398 Q675.267 165.009 669.712 165.009 Q664.133 165.009 660.962 161.398 Q657.814 157.764 657.814 151.398 Q657.814 145.009 660.962 141.398 Q664.133 137.787 669.712 137.787 Z" fill="#000000" fill-rule="evenodd" fill-opacity="1" /><path clip-path="url(#clip310)" d="M710.221 148.689 L710.221 164.338 L705.962 164.338 L705.962 148.828 Q705.962 145.148 704.527 143.319 Q703.091 141.49 700.221 141.49 Q696.772 141.49 694.781 143.69 Q692.791 145.889 692.791 149.685 L692.791 164.338 L688.508 164.338 L688.508 138.412 L692.791 138.412 L692.791 142.44 Q694.318 140.102 696.378 138.944 Q698.462 137.787 701.17 137.787 Q705.638 137.787 707.929 140.565 Q710.221 143.319 710.221 148.689 Z" fill="#000000" fill-rule="evenodd" fill-opacity="1" /><polyline clip-path="url(#clip310)" style="stroke:#e26f46; stroke-linecap:round; stroke-linejoin:round; stroke-width:4; stroke-opacity:1; fill:none" points="317.754,198.898 459.731,198.898 "/>
<path clip-path="url(#clip310)" d="M483.393 181.618 L505.245 181.618 L505.245 185.553 L488.069 185.553 L488.069 195.784 L504.528 195.784 L504.528 199.719 L488.069 199.719 L488.069 212.242 L505.662 212.242 L505.662 216.178 L483.393 216.178 L483.393 181.618 Z" fill="#000000" fill-rule="evenodd" fill-opacity="1" /><path clip-path="url(#clip310)" d="M534.713 190.252 L525.338 202.867 L535.199 216.178 L530.176 216.178 L522.629 205.992 L515.083 216.178 L510.06 216.178 L520.129 202.613 L510.916 190.252 L515.94 190.252 L522.815 199.488 L529.69 190.252 L534.713 190.252 Z" fill="#000000" fill-rule="evenodd" fill-opacity="1" /><path clip-path="url(#clip310)" d="M553 203.145 Q547.838 203.145 545.847 204.326 Q543.856 205.506 543.856 208.354 Q543.856 210.622 545.338 211.965 Q546.842 213.284 549.412 213.284 Q552.953 213.284 555.083 210.784 Q557.236 208.261 557.236 204.094 L557.236 203.145 L553 203.145 M561.495 201.386 L561.495 216.178 L557.236 216.178 L557.236 212.242 Q555.777 214.603 553.601 215.738 Q551.426 216.849 548.277 216.849 Q544.296 216.849 541.935 214.627 Q539.597 212.381 539.597 208.631 Q539.597 204.256 542.514 202.034 Q545.453 199.812 551.263 199.812 L557.236 199.812 L557.236 199.395 Q557.236 196.455 555.291 194.858 Q553.37 193.238 549.875 193.238 Q547.652 193.238 545.546 193.77 Q543.439 194.303 541.495 195.367 L541.495 191.432 Q543.833 190.53 546.032 190.09 Q548.231 189.627 550.314 189.627 Q555.939 189.627 558.717 192.543 Q561.495 195.46 561.495 201.386 Z" fill="#000000" fill-rule="evenodd" fill-opacity="1" /><path clip-path="url(#clip310)" d="M588.925 191.247 L588.925 195.229 Q587.12 194.233 585.291 193.747 Q583.486 193.238 581.634 193.238 Q577.49 193.238 575.199 195.877 Q572.907 198.492 572.907 203.238 Q572.907 207.983 575.199 210.622 Q577.49 213.238 581.634 213.238 Q583.486 213.238 585.291 212.752 Q587.12 212.242 588.925 211.247 L588.925 215.182 Q587.143 216.016 585.222 216.432 Q583.323 216.849 581.171 216.849 Q575.314 216.849 571.865 213.168 Q568.416 209.488 568.416 203.238 Q568.416 196.895 571.888 193.261 Q575.384 189.627 581.449 189.627 Q583.416 189.627 585.291 190.043 Q587.166 190.437 588.925 191.247 Z" fill="#000000" fill-rule="evenodd" fill-opacity="1" /><path clip-path="url(#clip310)" d="M600.546 182.891 L600.546 190.252 L609.319 190.252 L609.319 193.562 L600.546 193.562 L600.546 207.636 Q600.546 210.807 601.402 211.71 Q602.282 212.613 604.944 212.613 L609.319 212.613 L609.319 216.178 L604.944 216.178 Q600.013 216.178 598.138 214.349 Q596.263 212.497 596.263 207.636 L596.263 193.562 L593.138 193.562 L593.138 190.252 L596.263 190.252 L596.263 182.891 L600.546 182.891 Z" fill="#000000" fill-rule="evenodd" fill-opacity="1" /></svg>
