<?xml version="1.0" encoding="utf-8"?>
<svg xmlns="http://www.w3.org/2000/svg" xmlns:xlink="http://www.w3.org/1999/xlink" width="600" height="400" viewBox="0 0 2400 1600">
<defs>
  <clipPath id="clip780">
    <rect x="0" y="0" width="2400" height="1600"/>
  </clipPath>
</defs>
<path clip-path="url(#clip780)" d="M0 1600 L2400 1600 L2400 0 L0 0  Z" fill="#ffffff" fill-rule="evenodd" fill-opacity="1"/>
<defs>
  <clipPath id="clip781">
    <rect x="480" y="0" width="1681" height="1600"/>
  </clipPath>
</defs>
<path clip-path="url(#clip780)" d="M156.274 1486.45 L2352.76 1486.45 L2352.76 47.2441 L156.274 47.2441  Z" fill="#ffffff" fill-rule="evenodd" fill-opacity="1"/>
<defs>
  <clipPath id="clip782">
    <rect x="156" y="47" width="2197" height="1440"/>
  </clipPath>
</defs>
<polyline clip-path="url(#clip782)" style="stroke:#000000; stroke-linecap:round; stroke-linejoin:round; stroke-width:2; stroke-opacity:0.1; fill:none" points="218.439,1486.45 218.439,47.2441 "/>
<polyline clip-path="url(#clip782)" style="stroke:#000000; stroke-linecap:round; stroke-linejoin:round; stroke-width:2; stroke-opacity:0.1; fill:none" points="736.477,1486.45 736.477,47.2441 "/>
<polyline clip-path="url(#clip782)" style="stroke:#000000; stroke-linecap:round; stroke-linejoin:round; stroke-width:2; stroke-opacity:0.1; fill:none" points="1254.52,1486.45 1254.52,47.2441 "/>
<polyline clip-path="url(#clip782)" style="stroke:#000000; stroke-linecap:round; stroke-linejoin:round; stroke-width:2; stroke-opacity:0.1; fill:none" points="1772.55,1486.45 1772.55,47.2441 "/>
<polyline clip-path="url(#clip782)" style="stroke:#000000; stroke-linecap:round; stroke-linejoin:round; stroke-width:2; stroke-opacity:0.1; fill:none" points="2290.59,1486.45 2290.59,47.2441 "/>
<polyline clip-path="url(#clip780)" style="stroke:#000000; stroke-linecap:round; stroke-linejoin:round; stroke-width:4; stroke-opacity:1; fill:none" points="156.274,1486.45 2352.76,1486.45 "/>
<polyline clip-path="url(#clip780)" style="stroke:#000000; stroke-linecap:round; stroke-linejoin:round; stroke-width:4; stroke-opacity:1; fill:none" points="218.439,1486.45 218.439,1467.55 "/>
<polyline clip-path="url(#clip780)" style="stroke:#000000; stroke-linecap:round; stroke-linejoin:round; stroke-width:4; stroke-opacity:1; fill:none" points="736.477,1486.45 736.477,1467.55 "/>
<polyline clip-path="url(#clip780)" style="stroke:#000000; stroke-linecap:round; stroke-linejoin:round; stroke-width:4; stroke-opacity:1; fill:none" points="1254.52,1486.45 1254.52,1467.55 "/>
<polyline clip-path="url(#clip780)" style="stroke:#000000; stroke-linecap:round; stroke-linejoin:round; stroke-width:4; stroke-opacity:1; fill:none" points="1772.55,1486.45 1772.55,1467.55 "/>
<polyline clip-path="url(#clip780)" style="stroke:#000000; stroke-linecap:round; stroke-linejoin:round; stroke-width:4; stroke-opacity:1; fill:none" points="2290.59,1486.45 2290.59,1467.55 "/>
<path clip-path="url(#clip780)" d="M164.967 1532.02 L194.643 1532.02 L194.643 1535.95 L164.967 1535.95 L164.967 1532.02 Z" fill="#000000" fill-rule="nonzero" fill-opacity="1" /><path clip-path="url(#clip780)" d="M205.545 1544.91 L213.184 1544.91 L213.184 1518.55 L204.874 1520.21 L204.874 1515.95 L213.138 1514.29 L217.814 1514.29 L217.814 1544.91 L225.453 1544.91 L225.453 1548.85 L205.545 1548.85 L205.545 1544.91 Z" fill="#000000" fill-rule="nonzero" fill-opacity="1" /><path clip-path="url(#clip780)" d="M234.897 1542.97 L239.781 1542.97 L239.781 1548.85 L234.897 1548.85 L234.897 1542.97 Z" fill="#000000" fill-rule="nonzero" fill-opacity="1" /><path clip-path="url(#clip780)" d="M259.966 1517.37 Q256.355 1517.37 254.527 1520.93 Q252.721 1524.47 252.721 1531.6 Q252.721 1538.71 254.527 1542.27 Q256.355 1545.82 259.966 1545.82 Q263.601 1545.82 265.406 1542.27 Q267.235 1538.71 267.235 1531.6 Q267.235 1524.47 265.406 1520.93 Q263.601 1517.37 259.966 1517.37 M259.966 1513.66 Q265.776 1513.66 268.832 1518.27 Q271.911 1522.85 271.911 1531.6 Q271.911 1540.33 268.832 1544.94 Q265.776 1549.52 259.966 1549.52 Q254.156 1549.52 251.077 1544.94 Q248.022 1540.33 248.022 1531.6 Q248.022 1522.85 251.077 1518.27 Q254.156 1513.66 259.966 1513.66 Z" fill="#000000" fill-rule="nonzero" fill-opacity="1" /><path clip-path="url(#clip780)" d="M683.503 1532.02 L713.178 1532.02 L713.178 1535.95 L683.503 1535.95 L683.503 1532.02 Z" fill="#000000" fill-rule="nonzero" fill-opacity="1" /><path clip-path="url(#clip780)" d="M733.271 1517.37 Q729.66 1517.37 727.831 1520.93 Q726.026 1524.47 726.026 1531.6 Q726.026 1538.71 727.831 1542.27 Q729.66 1545.82 733.271 1545.82 Q736.905 1545.82 738.711 1542.27 Q740.539 1538.71 740.539 1531.6 Q740.539 1524.47 738.711 1520.93 Q736.905 1517.37 733.271 1517.37 M733.271 1513.66 Q739.081 1513.66 742.137 1518.27 Q745.215 1522.85 745.215 1531.6 Q745.215 1540.33 742.137 1544.94 Q739.081 1549.52 733.271 1549.52 Q727.461 1549.52 724.382 1544.94 Q721.327 1540.33 721.327 1531.6 Q721.327 1522.85 724.382 1518.27 Q727.461 1513.66 733.271 1513.66 Z" fill="#000000" fill-rule="nonzero" fill-opacity="1" /><path clip-path="url(#clip780)" d="M753.433 1542.97 L758.317 1542.97 L758.317 1548.85 L753.433 1548.85 L753.433 1542.97 Z" fill="#000000" fill-rule="nonzero" fill-opacity="1" /><path clip-path="url(#clip780)" d="M768.548 1514.29 L786.905 1514.29 L786.905 1518.22 L772.831 1518.22 L772.831 1526.7 Q773.849 1526.35 774.868 1526.19 Q775.886 1526 776.905 1526 Q782.692 1526 786.072 1529.17 Q789.451 1532.34 789.451 1537.76 Q789.451 1543.34 785.979 1546.44 Q782.507 1549.52 776.187 1549.52 Q774.011 1549.52 771.743 1549.15 Q769.498 1548.78 767.09 1548.04 L767.09 1543.34 Q769.173 1544.47 771.396 1545.03 Q773.618 1545.58 776.095 1545.58 Q780.099 1545.58 782.437 1543.48 Q784.775 1541.37 784.775 1537.76 Q784.775 1534.15 782.437 1532.04 Q780.099 1529.94 776.095 1529.94 Q774.22 1529.94 772.345 1530.35 Q770.493 1530.77 768.548 1531.65 L768.548 1514.29 Z" fill="#000000" fill-rule="nonzero" fill-opacity="1" /><path clip-path="url(#clip780)" d="M1231.9 1517.37 Q1228.29 1517.37 1226.46 1520.93 Q1224.65 1524.47 1224.65 1531.6 Q1224.65 1538.71 1226.46 1542.27 Q1228.29 1545.82 1231.9 1545.82 Q1235.53 1545.82 1237.34 1542.27 Q1239.17 1538.71 1239.17 1531.6 Q1239.17 1524.47 1237.34 1520.93 Q1235.53 1517.37 1231.9 1517.37 M1231.9 1513.66 Q1237.71 1513.66 1240.77 1518.27 Q1243.84 1522.85 1243.84 1531.6 Q1243.84 1540.33 1240.77 1544.94 Q1237.71 1549.52 1231.9 1549.52 Q1226.09 1549.52 1223.01 1544.94 Q1219.96 1540.33 1219.96 1531.6 Q1219.96 1522.85 1223.01 1518.27 Q1226.09 1513.66 1231.9 1513.66 Z" fill="#000000" fill-rule="nonzero" fill-opacity="1" /><path clip-path="url(#clip780)" d="M1252.06 1542.97 L1256.95 1542.97 L1256.95 1548.85 L1252.06 1548.85 L1252.06 1542.97 Z" fill="#000000" fill-rule="nonzero" fill-opacity="1" /><path clip-path="url(#clip780)" d="M1277.13 1517.37 Q1273.52 1517.37 1271.69 1520.93 Q1269.89 1524.47 1269.89 1531.6 Q1269.89 1538.71 1271.69 1542.27 Q1273.52 1545.82 1277.13 1545.82 Q1280.76 1545.82 1282.57 1542.27 Q1284.4 1538.71 1284.4 1531.6 Q1284.4 1524.47 1282.57 1520.93 Q1280.76 1517.37 1277.13 1517.37 M1277.13 1513.66 Q1282.94 1513.66 1286 1518.27 Q1289.08 1522.85 1289.08 1531.6 Q1289.08 1540.33 1286 1544.94 Q1282.94 1549.52 1277.13 1549.52 Q1271.32 1549.52 1268.24 1544.94 Q1265.19 1540.33 1265.19 1531.6 Q1265.19 1522.85 1268.24 1518.27 Q1271.32 1513.66 1277.13 1513.66 Z" fill="#000000" fill-rule="nonzero" fill-opacity="1" /><path clip-path="url(#clip780)" d="M1750.44 1517.37 Q1746.82 1517.37 1745 1520.93 Q1743.19 1524.47 1743.19 1531.6 Q1743.19 1538.71 1745 1542.27 Q1746.82 1545.82 1750.44 1545.82 Q1754.07 1545.82 1755.88 1542.27 Q1757.7 1538.71 1757.7 1531.6 Q1757.7 1524.47 1755.88 1520.93 Q1754.07 1517.37 1750.44 1517.37 M1750.44 1513.66 Q1756.25 1513.66 1759.3 1518.27 Q1762.38 1522.85 1762.38 1531.6 Q1762.38 1540.33 1759.3 1544.94 Q1756.25 1549.52 1750.44 1549.52 Q1744.63 1549.52 1741.55 1544.94 Q1738.49 1540.33 1738.49 1531.6 Q1738.49 1522.85 1741.55 1518.27 Q1744.63 1513.66 1750.44 1513.66 Z" fill="#000000" fill-rule="nonzero" fill-opacity="1" /><path clip-path="url(#clip780)" d="M1770.6 1542.97 L1775.48 1542.97 L1775.48 1548.85 L1770.6 1548.85 L1770.6 1542.97 Z" fill="#000000" fill-rule="nonzero" fill-opacity="1" /><path clip-path="url(#clip780)" d="M1785.71 1514.29 L1804.07 1514.29 L1804.07 1518.22 L1790 1518.22 L1790 1526.7 Q1791.01 1526.35 1792.03 1526.19 Q1793.05 1526 1794.07 1526 Q1799.86 1526 1803.24 1529.17 Q1806.62 1532.34 1806.62 1537.76 Q1806.62 1543.34 1803.14 1546.44 Q1799.67 1549.52 1793.35 1549.52 Q1791.18 1549.52 1788.91 1549.15 Q1786.66 1548.78 1784.25 1548.04 L1784.25 1543.34 Q1786.34 1544.47 1788.56 1545.03 Q1790.78 1545.58 1793.26 1545.58 Q1797.26 1545.58 1799.6 1543.48 Q1801.94 1541.37 1801.94 1537.76 Q1801.94 1534.15 1799.6 1532.04 Q1797.26 1529.94 1793.26 1529.94 Q1791.38 1529.94 1789.51 1530.35 Q1787.66 1530.77 1785.71 1531.65 L1785.71 1514.29 Z" fill="#000000" fill-rule="nonzero" fill-opacity="1" /><path clip-path="url(#clip780)" d="M2257.74 1544.91 L2265.38 1544.91 L2265.38 1518.55 L2257.07 1520.21 L2257.07 1515.95 L2265.34 1514.29 L2270.01 1514.29 L2270.01 1544.91 L2277.65 1544.91 L2277.65 1548.85 L2257.74 1548.85 L2257.74 1544.91 Z" fill="#000000" fill-rule="nonzero" fill-opacity="1" /><path clip-path="url(#clip780)" d="M2287.1 1542.97 L2291.98 1542.97 L2291.98 1548.85 L2287.1 1548.85 L2287.1 1542.97 Z" fill="#000000" fill-rule="nonzero" fill-opacity="1" /><path clip-path="url(#clip780)" d="M2312.17 1517.37 Q2308.55 1517.37 2306.73 1520.93 Q2304.92 1524.47 2304.92 1531.6 Q2304.92 1538.71 2306.73 1542.27 Q2308.55 1545.82 2312.17 1545.82 Q2315.8 1545.82 2317.61 1542.27 Q2319.43 1538.71 2319.43 1531.6 Q2319.43 1524.47 2317.61 1520.93 Q2315.8 1517.37 2312.17 1517.37 M2312.17 1513.66 Q2317.98 1513.66 2321.03 1518.27 Q2324.11 1522.85 2324.11 1531.6 Q2324.11 1540.33 2321.03 1544.94 Q2317.98 1549.52 2312.17 1549.52 Q2306.36 1549.52 2303.28 1544.94 Q2300.22 1540.33 2300.22 1531.6 Q2300.22 1522.85 2303.28 1518.27 Q2306.36 1513.66 2312.17 1513.66 Z" fill="#000000" fill-rule="nonzero" fill-opacity="1" /><polyline clip-path="url(#clip782)" style="stroke:#000000; stroke-linecap:round; stroke-linejoin:round; stroke-width:2; stroke-opacity:0.1; fill:none" points="156.274,1247.56 2352.76,1247.56 "/>
<polyline clip-path="url(#clip782)" style="stroke:#000000; stroke-linecap:round; stroke-linejoin:round; stroke-width:2; stroke-opacity:0.1; fill:none" points="156.274,991.694 2352.76,991.694 "/>
<polyline clip-path="url(#clip782)" style="stroke:#000000; stroke-linecap:round; stroke-linejoin:round; stroke-width:2; stroke-opacity:0.1; fill:none" points="156.274,735.83 2352.76,735.83 "/>
<polyline clip-path="url(#clip782)" style="stroke:#000000; stroke-linecap:round; stroke-linejoin:round; stroke-width:2; stroke-opacity:0.1; fill:none" points="156.274,479.966 2352.76,479.966 "/>
<polyline clip-path="url(#clip782)" style="stroke:#000000; stroke-linecap:round; stroke-linejoin:round; stroke-width:2; stroke-opacity:0.1; fill:none" points="156.274,224.102 2352.76,224.102 "/>
<polyline clip-path="url(#clip780)" style="stroke:#000000; stroke-linecap:round; stroke-linejoin:round; stroke-width:4; stroke-opacity:1; fill:none" points="156.274,1486.45 156.274,47.2441 "/>
<polyline clip-path="url(#clip780)" style="stroke:#000000; stroke-linecap:round; stroke-linejoin:round; stroke-width:4; stroke-opacity:1; fill:none" points="156.274,1247.56 175.172,1247.56 "/>
<polyline clip-path="url(#clip780)" style="stroke:#000000; stroke-linecap:round; stroke-linejoin:round; stroke-width:4; stroke-opacity:1; fill:none" points="156.274,991.694 175.172,991.694 "/>
<polyline clip-path="url(#clip780)" style="stroke:#000000; stroke-linecap:round; stroke-linejoin:round; stroke-width:4; stroke-opacity:1; fill:none" points="156.274,735.83 175.172,735.83 "/>
<polyline clip-path="url(#clip780)" style="stroke:#000000; stroke-linecap:round; stroke-linejoin:round; stroke-width:4; stroke-opacity:1; fill:none" points="156.274,479.966 175.172,479.966 "/>
<polyline clip-path="url(#clip780)" style="stroke:#000000; stroke-linecap:round; stroke-linejoin:round; stroke-width:4; stroke-opacity:1; fill:none" points="156.274,224.102 175.172,224.102 "/>
<path clip-path="url(#clip780)" d="M63.0985 1233.36 Q59.4875 1233.36 57.6588 1236.92 Q55.8532 1240.46 55.8532 1247.59 Q55.8532 1254.7 57.6588 1258.26 Q59.4875 1261.81 63.0985 1261.81 Q66.7328 1261.81 68.5383 1258.26 Q70.367 1254.7 70.367 1247.59 Q70.367 1240.46 68.5383 1236.92 Q66.7328 1233.36 63.0985 1233.36 M63.0985 1229.65 Q68.9087 1229.65 71.9642 1234.26 Q75.0429 1238.84 75.0429 1247.59 Q75.0429 1256.32 71.9642 1260.93 Q68.9087 1265.51 63.0985 1265.51 Q57.2884 1265.51 54.2097 1260.93 Q51.1542 1256.32 51.1542 1247.59 Q51.1542 1238.84 54.2097 1234.26 Q57.2884 1229.65 63.0985 1229.65 Z" fill="#000000" fill-rule="nonzero" fill-opacity="1" /><path clip-path="url(#clip780)" d="M83.2605 1258.96 L88.1447 1258.96 L88.1447 1264.84 L83.2605 1264.84 L83.2605 1258.96 Z" fill="#000000" fill-rule="nonzero" fill-opacity="1" /><path clip-path="url(#clip780)" d="M108.33 1233.36 Q104.719 1233.36 102.89 1236.92 Q101.084 1240.46 101.084 1247.59 Q101.084 1254.7 102.89 1258.26 Q104.719 1261.81 108.33 1261.81 Q111.964 1261.81 113.77 1258.26 Q115.598 1254.7 115.598 1247.59 Q115.598 1240.46 113.77 1236.92 Q111.964 1233.36 108.33 1233.36 M108.33 1229.65 Q114.14 1229.65 117.195 1234.26 Q120.274 1238.84 120.274 1247.59 Q120.274 1256.32 117.195 1260.93 Q114.14 1265.51 108.33 1265.51 Q102.52 1265.51 99.4409 1260.93 Q96.3854 1256.32 96.3854 1247.59 Q96.3854 1238.84 99.4409 1234.26 Q102.52 1229.65 108.33 1229.65 Z" fill="#000000" fill-rule="nonzero" fill-opacity="1" /><path clip-path="url(#clip780)" d="M63.7467 977.493 Q60.1356 977.493 58.3069 981.058 Q56.5014 984.599 56.5014 991.729 Q56.5014 998.835 58.3069 1002.4 Q60.1356 1005.94 63.7467 1005.94 Q67.3809 1005.94 69.1865 1002.4 Q71.0152 998.835 71.0152 991.729 Q71.0152 984.599 69.1865 981.058 Q67.3809 977.493 63.7467 977.493 M63.7467 973.789 Q69.5568 973.789 72.6124 978.395 Q75.6911 982.979 75.6911 991.729 Q75.6911 1000.46 72.6124 1005.06 Q69.5568 1009.65 63.7467 1009.65 Q57.9365 1009.65 54.8578 1005.06 Q51.8023 1000.46 51.8023 991.729 Q51.8023 982.979 54.8578 978.395 Q57.9365 973.789 63.7467 973.789 Z" fill="#000000" fill-rule="nonzero" fill-opacity="1" /><path clip-path="url(#clip780)" d="M83.9086 1003.09 L88.7928 1003.09 L88.7928 1008.97 L83.9086 1008.97 L83.9086 1003.09 Z" fill="#000000" fill-rule="nonzero" fill-opacity="1" /><path clip-path="url(#clip780)" d="M113.145 990.34 Q116.501 991.057 118.376 993.326 Q120.274 995.594 120.274 998.928 Q120.274 1004.04 116.756 1006.84 Q113.237 1009.65 106.756 1009.65 Q104.58 1009.65 102.265 1009.21 Q99.9733 1008.79 97.5197 1007.93 L97.5197 1003.42 Q99.4641 1004.55 101.779 1005.13 Q104.094 1005.71 106.617 1005.71 Q111.015 1005.71 113.307 1003.97 Q115.621 1002.24 115.621 998.928 Q115.621 995.872 113.469 994.159 Q111.339 992.423 107.52 992.423 L103.492 992.423 L103.492 988.581 L107.705 988.581 Q111.154 988.581 112.983 987.215 Q114.811 985.826 114.811 983.233 Q114.811 980.571 112.913 979.159 Q111.038 977.724 107.52 977.724 Q105.598 977.724 103.399 978.141 Q101.2 978.558 98.5613 979.437 L98.5613 975.27 Q101.223 974.53 103.538 974.159 Q105.876 973.789 107.936 973.789 Q113.26 973.789 116.362 976.22 Q119.464 978.627 119.464 982.747 Q119.464 985.618 117.82 987.608 Q116.177 989.576 113.145 990.34 Z" fill="#000000" fill-rule="nonzero" fill-opacity="1" /><path clip-path="url(#clip780)" d="M62.9365 721.629 Q59.3254 721.629 57.4967 725.194 Q55.6912 728.735 55.6912 735.865 Q55.6912 742.971 57.4967 746.536 Q59.3254 750.078 62.9365 750.078 Q66.5707 750.078 68.3763 746.536 Q70.205 742.971 70.205 735.865 Q70.205 728.735 68.3763 725.194 Q66.5707 721.629 62.9365 721.629 M62.9365 717.925 Q68.7467 717.925 71.8022 722.532 Q74.8809 727.115 74.8809 735.865 Q74.8809 744.592 71.8022 749.198 Q68.7467 753.781 62.9365 753.781 Q57.1264 753.781 54.0477 749.198 Q50.9921 744.592 50.9921 735.865 Q50.9921 727.115 54.0477 722.532 Q57.1264 717.925 62.9365 717.925 Z" fill="#000000" fill-rule="nonzero" fill-opacity="1" /><path clip-path="url(#clip780)" d="M83.0984 747.23 L87.9827 747.23 L87.9827 753.11 L83.0984 753.11 L83.0984 747.23 Z" fill="#000000" fill-rule="nonzero" fill-opacity="1" /><path clip-path="url(#clip780)" d="M108.746 733.967 Q105.598 733.967 103.746 736.119 Q101.918 738.272 101.918 742.022 Q101.918 745.749 103.746 747.925 Q105.598 750.078 108.746 750.078 Q111.895 750.078 113.723 747.925 Q115.575 745.749 115.575 742.022 Q115.575 738.272 113.723 736.119 Q111.895 733.967 108.746 733.967 M118.029 719.314 L118.029 723.573 Q116.27 722.74 114.464 722.3 Q112.682 721.86 110.922 721.86 Q106.293 721.86 103.839 724.985 Q101.409 728.11 101.061 734.43 Q102.427 732.416 104.487 731.351 Q106.547 730.263 109.024 730.263 Q114.233 730.263 117.242 733.434 Q120.274 736.582 120.274 742.022 Q120.274 747.346 117.126 750.564 Q113.978 753.781 108.746 753.781 Q102.751 753.781 99.5798 749.198 Q96.4085 744.592 96.4085 735.865 Q96.4085 727.67 100.297 722.809 Q104.186 717.925 110.737 717.925 Q112.496 717.925 114.279 718.272 Q116.084 718.62 118.029 719.314 Z" fill="#000000" fill-rule="nonzero" fill-opacity="1" /><path clip-path="url(#clip780)" d="M63.2837 465.765 Q59.6726 465.765 57.8439 469.33 Q56.0384 472.871 56.0384 480.001 Q56.0384 487.107 57.8439 490.672 Q59.6726 494.214 63.2837 494.214 Q66.918 494.214 68.7235 490.672 Q70.5522 487.107 70.5522 480.001 Q70.5522 472.871 68.7235 469.33 Q66.918 465.765 63.2837 465.765 M63.2837 462.061 Q69.0939 462.061 72.1494 466.668 Q75.2281 471.251 75.2281 480.001 Q75.2281 488.728 72.1494 493.334 Q69.0939 497.917 63.2837 497.917 Q57.4736 497.917 54.3949 493.334 Q51.3393 488.728 51.3393 480.001 Q51.3393 471.251 54.3949 466.668 Q57.4736 462.061 63.2837 462.061 Z" fill="#000000" fill-rule="nonzero" fill-opacity="1" /><path clip-path="url(#clip780)" d="M83.4457 491.367 L88.3299 491.367 L88.3299 497.246 L83.4457 497.246 L83.4457 491.367 Z" fill="#000000" fill-rule="nonzero" fill-opacity="1" /><path clip-path="url(#clip780)" d="M98.6539 496.529 L98.6539 492.269 Q100.413 493.103 102.219 493.542 Q104.024 493.982 105.76 493.982 Q110.39 493.982 112.82 490.88 Q115.274 487.755 115.621 481.413 Q114.279 483.404 112.219 484.468 Q110.158 485.533 107.658 485.533 Q102.473 485.533 99.4409 482.408 Q96.4317 479.26 96.4317 473.82 Q96.4317 468.496 99.5798 465.279 Q102.728 462.061 107.959 462.061 Q113.955 462.061 117.103 466.668 Q120.274 471.251 120.274 480.001 Q120.274 488.172 116.385 493.056 Q112.52 497.917 105.969 497.917 Q104.209 497.917 102.404 497.57 Q100.598 497.223 98.6539 496.529 M107.959 481.876 Q111.108 481.876 112.936 479.723 Q114.788 477.57 114.788 473.82 Q114.788 470.093 112.936 467.941 Q111.108 465.765 107.959 465.765 Q104.811 465.765 102.959 467.941 Q101.131 470.093 101.131 473.82 Q101.131 477.57 102.959 479.723 Q104.811 481.876 107.959 481.876 Z" fill="#000000" fill-rule="nonzero" fill-opacity="1" /><path clip-path="url(#clip780)" d="M55.506 237.447 L63.1448 237.447 L63.1448 211.081 L54.8347 212.748 L54.8347 208.489 L63.0985 206.822 L67.7744 206.822 L67.7744 237.447 L75.4133 237.447 L75.4133 241.382 L55.506 241.382 L55.506 237.447 Z" fill="#000000" fill-rule="nonzero" fill-opacity="1" /><path clip-path="url(#clip780)" d="M84.8577 235.503 L89.7419 235.503 L89.7419 241.382 L84.8577 241.382 L84.8577 235.503 Z" fill="#000000" fill-rule="nonzero" fill-opacity="1" /><path clip-path="url(#clip780)" d="M103.955 237.447 L120.274 237.447 L120.274 241.382 L98.3298 241.382 L98.3298 237.447 Q100.992 234.692 105.575 230.063 Q110.182 225.41 111.362 224.067 Q113.608 221.544 114.487 219.808 Q115.39 218.049 115.39 216.359 Q115.39 213.605 113.445 211.868 Q111.524 210.132 108.422 210.132 Q106.223 210.132 103.77 210.896 Q101.339 211.66 98.5613 213.211 L98.5613 208.489 Q101.385 207.355 103.839 206.776 Q106.293 206.197 108.33 206.197 Q113.7 206.197 116.895 208.882 Q120.089 211.568 120.089 216.058 Q120.089 218.188 119.279 220.109 Q118.492 222.007 116.385 224.6 Q115.807 225.271 112.705 228.489 Q109.603 231.683 103.955 237.447 Z" fill="#000000" fill-rule="nonzero" fill-opacity="1" /><polyline clip-path="url(#clip782)" style="stroke:#009af9; stroke-linecap:round; stroke-linejoin:round; stroke-width:16; stroke-opacity:1; fill:none" stroke-dasharray="8, 16" points="218.439,1119.85 228.852,1078.11 239.264,1053.58 249.677,1054.24 260.09,1077.27 270.503,1107.68 280.916,1126.98 291.329,1129.2 301.741,1125.35 312.154,1130.94 322.567,1152.95 332.98,1188.08 343.393,1228.5 353.805,1267.36 364.218,1300.88 374.631,1328.06 385.044,1349.65 395.457,1367.43 405.87,1383.52 416.282,1399.4 426.695,1414.71 437.108,1426.55 447.521,1430.56 457.934,1423.45 468.347,1405.65 478.759,1381.81 489.172,1357.73 499.585,1335.5 509.998,1311.62 520.411,1281.5 530.824,1246.2 541.236,1212.6 551.649,1186.6 562.062,1167.8 572.475,1150.82 582.888,1130.43 593.301,1105.8 603.713,1081.56 614.126,1065.4 624.539,1063.31 634.952,1075.82 645.365,1097.7 655.777,1121.45 666.19,1141.78 676.603,1158.1 687.016,1173.93 697.429,1194.32 707.842,1222.82 718.254,1259.38 728.667,1299.91 739.08,1337.8 749.493,1366.72 759.906,1383.63 770.319,1390.1 780.731,1391.38 791.144,1393.95 801.557,1402.9 811.97,1419.56 822.383,1438.7 832.796,1445.72 843.208,1419.49 853.621,1350.05 864.034,1262.98 874.447,1209.17 884.86,1211.38 895.273,1241.49 905.685,1257.54 916.098,1238.91 926.511,1190.1 936.924,1130.62 947.337,1083.2 957.749,1061.63 968.162,1063.54 978.575,1075.67 988.988,1086.72 999.401,1094.22 1009.81,1101.74 1020.23,1113.3 1030.64,1130.65 1041.05,1153.43 1051.46,1180.3 1061.88,1209.79 1072.29,1240.67 1082.7,1272.09 1093.12,1303.36 1103.53,1333.74 1113.94,1362.04 1124.35,1386.21 1134.77,1403.34 1145.18,1410.75 1155.59,1408.4 1166.01,1400.8 1176.42,1395.3 1186.83,1397.31 1197.24,1406.35 1207.66,1415.6 1218.07,1410.96 1228.48,1362.26 1238.9,1213.46 1249.31,934.985 1259.72,628.432 1270.13,437.684 1280.55,373.842 1290.96,372.681 1301.37,389.689 1311.79,405.465 1322.2,412.245 1332.61,408.44 1343.02,396.695 1353.44,382.337 1363.85,371.158 1374.26,367.069 1384.68,371.043 1395.09,381.663 1405.5,396.255 1415.91,411.72 1426.33,424.9 1436.74,432.717 1447.15,432.347 1457.57,421.668 1467.98,400.193 1478.39,370.541 1488.8,339.965 1499.22,320.393 1509.63,324.693 1520.04,358.523 1530.45,412.639 1540.87,464.521 1551.28,491.358 1561.69,483.385 1572.11,446.342 1582.52,394.96 1592.93,346.104 1603.34,314.38 1613.76,306.704 1624.17,318.994 1634.58,345.547 1645,387.381 1655.41,439.865 1665.82,485.099 1676.23,504.527 1686.65,490.526 1697.06,447.259 1707.47,387.218 1717.89,327.52 1728.3,285.697 1738.71,274.786 1749.12,298.99 1759.54,351.875 1769.95,418.253 1780.36,479.036 1790.78,516.967 1801.19,521.182 1811.6,489.677 1822.01,429.662 1832.43,356.162 1842.84,289.101 1853.25,248.84 1863.67,250.262 1874.08,296.438 1884.49,374.891 1894.9,460.403 1905.32,525.159 1915.73,550.537 1926.14,532.296 1936.56,477.17 1946.97,397.098 1957.38,307.891 1967.79,232.033 1978.21,197.808 1988.62,227.426 1999.03,319.022 2009.45,439.861 2019.86,541.874 2030.27,588.421 2040.68,570.555 2051.1,503.993 2061.51,415.26 2071.92,329.318 2082.33,264.039 2092.75,229.886 2103.16,231.176 2113.57,266.908 2123.99,331.171 2134.4,413.66 2144.81,500.224 2155.22,573.093 2165.64,611.202 2176.05,592.784 2186.46,503.743 2196.88,353.419 2207.29,189.363 2217.7,87.9763 2228.11,106.087 2238.53,231.121 2248.94,392.549 2259.35,522.378 2269.77,593.363 2280.18,613.628 2290.59,606.266 "/>
<polyline clip-path="url(#clip782)" style="stroke:#e26f46; stroke-linecap:round; stroke-linejoin:round; stroke-width:4; stroke-opacity:1; fill:none" points="218.439,1119.46 228.852,1101.28 239.264,1087.88 249.677,1079.69 260.09,1076.98 270.503,1079.84 280.916,1088.17 291.329,1101.7 301.741,1119.99 312.154,1142.45 322.567,1168.34 332.98,1196.81 343.393,1226.94 353.805,1257.74 364.218,1288.21 374.631,1317.35 385.044,1344.21 395.457,1367.92 405.87,1387.71 416.282,1402.91 426.695,1413.05 437.108,1417.79 447.521,1416.97 457.934,1410.62 468.347,1398.95 478.759,1382.33 489.172,1361.32 499.585,1336.6 509.998,1308.97 520.411,1279.34 530.824,1248.67 541.236,1217.96 551.649,1188.22 562.062,1160.41 572.475,1135.45 582.888,1114.15 593.301,1097.2 603.713,1085.16 614.126,1078.42 624.539,1077.2 634.952,1081.54 645.365,1091.3 655.777,1106.16 666.19,1125.63 676.603,1149.08 687.016,1175.75 697.429,1204.76 707.842,1235.17 718.254,1265.98 728.667,1296.19 739.08,1324.81 749.493,1350.91 759.906,1373.64 770.319,1392.25 780.731,1406.14 791.144,1414.86 801.557,1418.11 811.97,1415.8 822.383,1408 832.796,1394.96 843.208,1377.11 853.621,1355.03 864.034,1329.45 874.447,1301.19 884.86,1271.18 895.273,1240.4 905.685,1209.85 916.098,1180.54 926.511,1153.41 936.924,1129.35 947.337,1109.16 957.749,1093.48 968.162,1082.82 978.575,1077.55 988.988,1077.82 999.401,1083.64 1009.81,1094.8 1020.23,1110.95 1030.64,1131.55 1041.05,1155.95 1051.46,1183.33 1061.88,1212.81 1072.29,1243.42 1082.7,1274.17 1093.12,1304.05 1103.53,1332.09 1113.94,1357.37 1124.35,1379.06 1134.77,1396.46 1145.18,1409 1155.59,1416.27 1166.01,1418.04 1176.42,1414.24 1186.83,1405 1197.24,1390.63 1207.66,1371.58 1218.07,1348.49 1228.48,1322.1 1238.9,1293.28 1249.31,1262.97 1259.72,393.439 1270.13,392.03 1280.55,393.313 1290.96,397.584 1301.37,403.533 1311.79,408.648 1322.2,410.163 1332.61,406.227 1343.02,396.846 1353.44,384.198 1363.85,372.163 1374.26,365.132 1384.68,366.481 1395.09,377.208 1405.5,395.251 1415.91,415.785 1426.33,432.507 1436.74,439.56 1447.15,433.523 1457.57,414.788 1467.98,387.842 1478.39,360.226 1488.8,340.433 1499.22,335.306 1509.63,347.736 1520.04,375.427 1530.45,411.19 1540.87,444.785 1551.28,465.854 1561.69,467.102 1572.11,446.747 1582.52,409.441 1592.93,365.282 1603.34,327.084 1613.76,306.664 1624.17,311.204 1634.58,340.808 1645,388.069 1655.41,439.878 1665.82,481.062 1676.23,498.817 1686.65,486.675 1697.06,446.749 1707.47,389.524 1717.89,331.126 1728.3,288.783 1738.71,275.743 1749.12,297.156 1759.54,348.194 1769.95,415.056 1780.36,478.683 1790.78,520.195 1801.19,526.483 1811.6,494.318 1822.01,431.687 1832.43,355.858 1842.84,288.63 1853.25,250.062 1863.67,252.5 1874.08,296.665 1884.49,371.037 1894.9,454.827 1905.32,523.789 1915.73,557.229 1926.14,544.207 1936.56,487.065 1946.97,401.152 1957.38,310.724 1967.79,242.098 1978.21,215.993 1988.62,241.291 1999.03,312.084 2009.45,408.987 2019.86,504.426 2030.27,570.488 2040.68,587.081 2051.1,548.026 2061.51,463.239 2071.92,356.254 2082.33,257.704 2092.75,196.546 2103.16,191.557 2113.57,245.595 2123.99,344.366 2134.4,460.178 2144.81,559.7 2155.22,613.552 2165.64,604.978 2176.05,535.024 2186.46,422.646 2196.88,299.595 2207.29,201.444 2217.7,157.309 2228.11,181.218 2238.53,267.694 2248.94,392.927 2259.35,521.318 2269.77,615.602 2280.18,647.651 2290.59,606.869 "/>
<path clip-path="url(#clip780)" d="M229.49 250.738 L675.966 250.738 L675.966 95.2176 L229.49 95.2176  Z" fill="#ffffff" fill-rule="evenodd" fill-opacity="1"/>
<polyline clip-path="url(#clip780)" style="stroke:#000000; stroke-linecap:round; stroke-linejoin:round; stroke-width:4; stroke-opacity:1; fill:none" points="229.49,250.738 675.966,250.738 675.966,95.2176 229.49,95.2176 229.49,250.738 "/>
<polyline clip-path="url(#clip780)" style="stroke:#009af9; stroke-linecap:round; stroke-linejoin:round; stroke-width:16; stroke-opacity:1; fill:none" stroke-dasharray="8, 16" points="253.896,147.058 400.328,147.058 "/>
<path clip-path="url(#clip780)" d="M429.409 133.62 L429.409 146.606 L435.289 146.606 Q438.552 146.606 440.335 144.916 Q442.117 143.227 442.117 140.102 Q442.117 137 440.335 135.31 Q438.552 133.62 435.289 133.62 L429.409 133.62 M424.733 129.778 L435.289 129.778 Q441.099 129.778 444.062 132.416 Q447.048 135.032 447.048 140.102 Q447.048 145.217 444.062 147.833 Q441.099 150.449 435.289 150.449 L429.409 150.449 L429.409 164.338 L424.733 164.338 L424.733 129.778 Z" fill="#000000" fill-rule="nonzero" fill-opacity="1" /><path clip-path="url(#clip780)" d="M467.325 142.393 Q466.608 141.977 465.751 141.791 Q464.918 141.583 463.899 141.583 Q460.288 141.583 458.344 143.944 Q456.423 146.282 456.423 150.68 L456.423 164.338 L452.14 164.338 L452.14 138.412 L456.423 138.412 L456.423 142.44 Q457.765 140.078 459.918 138.944 Q462.071 137.787 465.149 137.787 Q465.589 137.787 466.122 137.856 Q466.654 137.903 467.302 138.018 L467.325 142.393 Z" fill="#000000" fill-rule="nonzero" fill-opacity="1" /><path clip-path="url(#clip780)" d="M492.927 150.31 L492.927 152.393 L473.344 152.393 Q473.622 156.791 475.983 159.106 Q478.367 161.398 482.603 161.398 Q485.057 161.398 487.348 160.796 Q489.663 160.194 491.932 158.99 L491.932 163.018 Q489.64 163.99 487.233 164.5 Q484.825 165.009 482.348 165.009 Q476.145 165.009 472.511 161.398 Q468.899 157.787 468.899 151.629 Q468.899 145.264 472.325 141.537 Q475.774 137.787 481.608 137.787 Q486.839 137.787 489.872 141.166 Q492.927 144.523 492.927 150.31 M488.668 149.06 Q488.622 145.565 486.7 143.481 Q484.802 141.398 481.654 141.398 Q478.089 141.398 475.936 143.412 Q473.807 145.426 473.483 149.083 L488.668 149.06 Z" fill="#000000" fill-rule="nonzero" fill-opacity="1" /><path clip-path="url(#clip780)" d="M516.978 142.347 L516.978 128.319 L521.237 128.319 L521.237 164.338 L516.978 164.338 L516.978 160.449 Q515.635 162.763 513.575 163.898 Q511.538 165.009 508.668 165.009 Q503.969 165.009 501.006 161.259 Q498.066 157.509 498.066 151.398 Q498.066 145.287 501.006 141.537 Q503.969 137.787 508.668 137.787 Q511.538 137.787 513.575 138.921 Q515.635 140.032 516.978 142.347 M502.464 151.398 Q502.464 156.097 504.385 158.782 Q506.33 161.444 509.709 161.444 Q513.089 161.444 515.033 158.782 Q516.978 156.097 516.978 151.398 Q516.978 146.699 515.033 144.037 Q513.089 141.352 509.709 141.352 Q506.33 141.352 504.385 144.037 Q502.464 146.699 502.464 151.398 Z" fill="#000000" fill-rule="nonzero" fill-opacity="1" /><path clip-path="url(#clip780)" d="M530.01 138.412 L534.269 138.412 L534.269 164.338 L530.01 164.338 L530.01 138.412 M530.01 128.319 L534.269 128.319 L534.269 133.713 L530.01 133.713 L530.01 128.319 Z" fill="#000000" fill-rule="nonzero" fill-opacity="1" /><path clip-path="url(#clip780)" d="M561.839 139.407 L561.839 143.389 Q560.033 142.393 558.205 141.907 Q556.399 141.398 554.547 141.398 Q550.404 141.398 548.112 144.037 Q545.82 146.652 545.82 151.398 Q545.82 156.143 548.112 158.782 Q550.404 161.398 554.547 161.398 Q556.399 161.398 558.205 160.912 Q560.033 160.402 561.839 159.407 L561.839 163.342 Q560.056 164.176 558.135 164.592 Q556.237 165.009 554.084 165.009 Q548.228 165.009 544.779 161.328 Q541.33 157.648 541.33 151.398 Q541.33 145.055 544.802 141.421 Q548.297 137.787 554.362 137.787 Q556.33 137.787 558.205 138.203 Q560.08 138.597 561.839 139.407 Z" fill="#000000" fill-rule="nonzero" fill-opacity="1" /><path clip-path="url(#clip780)" d="M573.459 131.051 L573.459 138.412 L582.232 138.412 L582.232 141.722 L573.459 141.722 L573.459 155.796 Q573.459 158.967 574.316 159.87 Q575.195 160.773 577.857 160.773 L582.232 160.773 L582.232 164.338 L577.857 164.338 Q572.927 164.338 571.052 162.509 Q569.177 160.657 569.177 155.796 L569.177 141.722 L566.052 141.722 L566.052 138.412 L569.177 138.412 L569.177 131.051 L573.459 131.051 Z" fill="#000000" fill-rule="nonzero" fill-opacity="1" /><path clip-path="url(#clip780)" d="M587.834 138.412 L592.093 138.412 L592.093 164.338 L587.834 164.338 L587.834 138.412 M587.834 128.319 L592.093 128.319 L592.093 133.713 L587.834 133.713 L587.834 128.319 Z" fill="#000000" fill-rule="nonzero" fill-opacity="1" /><path clip-path="url(#clip780)" d="M611.051 141.398 Q607.626 141.398 605.635 144.083 Q603.644 146.745 603.644 151.398 Q603.644 156.051 605.612 158.736 Q607.602 161.398 611.051 161.398 Q614.454 161.398 616.445 158.713 Q618.436 156.027 618.436 151.398 Q618.436 146.791 616.445 144.106 Q614.454 141.398 611.051 141.398 M611.051 137.787 Q616.607 137.787 619.778 141.398 Q622.95 145.009 622.95 151.398 Q622.95 157.764 619.778 161.398 Q616.607 165.009 611.051 165.009 Q605.473 165.009 602.302 161.398 Q599.153 157.764 599.153 151.398 Q599.153 145.009 602.302 141.398 Q605.473 137.787 611.051 137.787 Z" fill="#000000" fill-rule="nonzero" fill-opacity="1" /><path clip-path="url(#clip780)" d="M651.561 148.689 L651.561 164.338 L647.301 164.338 L647.301 148.828 Q647.301 145.148 645.866 143.319 Q644.431 141.49 641.561 141.49 Q638.112 141.49 636.121 143.69 Q634.13 145.889 634.13 149.685 L634.13 164.338 L629.848 164.338 L629.848 138.412 L634.13 138.412 L634.13 142.44 Q635.658 140.102 637.718 138.944 Q639.801 137.787 642.51 137.787 Q646.977 137.787 649.269 140.565 Q651.561 143.319 651.561 148.689 Z" fill="#000000" fill-rule="nonzero" fill-opacity="1" /><polyline clip-path="url(#clip780)" style="stroke:#e26f46; stroke-linecap:round; stroke-linejoin:round; stroke-width:4; stroke-opacity:1; fill:none" points="253.896,198.898 400.328,198.898 "/>
<path clip-path="url(#clip780)" d="M424.733 181.618 L446.585 181.618 L446.585 185.553 L429.409 185.553 L429.409 195.784 L445.867 195.784 L445.867 199.719 L429.409 199.719 L429.409 212.242 L447.001 212.242 L447.001 216.178 L424.733 216.178 L424.733 181.618 Z" fill="#000000" fill-rule="nonzero" fill-opacity="1" /><path clip-path="url(#clip780)" d="M476.052 190.252 L466.677 202.867 L476.538 216.178 L471.515 216.178 L463.969 205.992 L456.423 216.178 L451.4 216.178 L461.469 202.613 L452.256 190.252 L457.279 190.252 L464.154 199.488 L471.029 190.252 L476.052 190.252 Z" fill="#000000" fill-rule="nonzero" fill-opacity="1" /><path clip-path="url(#clip780)" d="M494.339 203.145 Q489.177 203.145 487.186 204.326 Q485.196 205.506 485.196 208.354 Q485.196 210.622 486.677 211.965 Q488.182 213.284 490.751 213.284 Q494.293 213.284 496.422 210.784 Q498.575 208.261 498.575 204.094 L498.575 203.145 L494.339 203.145 M502.834 201.386 L502.834 216.178 L498.575 216.178 L498.575 212.242 Q497.117 214.603 494.941 215.738 Q492.765 216.849 489.617 216.849 Q485.635 216.849 483.274 214.627 Q480.936 212.381 480.936 208.631 Q480.936 204.256 483.853 202.034 Q486.793 199.812 492.603 199.812 L498.575 199.812 L498.575 199.395 Q498.575 196.455 496.631 194.858 Q494.71 193.238 491.214 193.238 Q488.992 193.238 486.885 193.77 Q484.779 194.303 482.835 195.367 L482.835 191.432 Q485.173 190.53 487.372 190.09 Q489.571 189.627 491.654 189.627 Q497.279 189.627 500.057 192.543 Q502.834 195.46 502.834 201.386 Z" fill="#000000" fill-rule="nonzero" fill-opacity="1" /><path clip-path="url(#clip780)" d="M530.265 191.247 L530.265 195.229 Q528.459 194.233 526.631 193.747 Q524.825 193.238 522.973 193.238 Q518.83 193.238 516.538 195.877 Q514.246 198.492 514.246 203.238 Q514.246 207.983 516.538 210.622 Q518.83 213.238 522.973 213.238 Q524.825 213.238 526.631 212.752 Q528.459 212.242 530.265 211.247 L530.265 215.182 Q528.482 216.016 526.561 216.432 Q524.663 216.849 522.51 216.849 Q516.654 216.849 513.205 213.168 Q509.756 209.488 509.756 203.238 Q509.756 196.895 513.228 193.261 Q516.723 189.627 522.788 189.627 Q524.756 189.627 526.631 190.043 Q528.506 190.437 530.265 191.247 Z" fill="#000000" fill-rule="nonzero" fill-opacity="1" /><path clip-path="url(#clip780)" d="M541.885 182.891 L541.885 190.252 L550.658 190.252 L550.658 193.562 L541.885 193.562 L541.885 207.636 Q541.885 210.807 542.742 211.71 Q543.621 212.613 546.283 212.613 L550.658 212.613 L550.658 216.178 L546.283 216.178 Q541.353 216.178 539.478 214.349 Q537.603 212.497 537.603 207.636 L537.603 193.562 L534.478 193.562 L534.478 190.252 L537.603 190.252 L537.603 182.891 L541.885 182.891 Z" fill="#000000" fill-rule="nonzero" fill-opacity="1" /></svg>
