<?xml version="1.0" encoding="utf-8"?>
<svg xmlns="http://www.w3.org/2000/svg" xmlns:xlink="http://www.w3.org/1999/xlink" width="600" height="400" viewBox="0 0 2400 1600">
<defs>
  <clipPath id="clip750">
    <rect x="0" y="0" width="2400" height="1600"/>
  </clipPath>
</defs>
<path clip-path="url(#clip750)" d="M0 1600 L2400 1600 L2400 0 L0 0  Z" fill="#ffffff" fill-rule="evenodd" fill-opacity="1"/>
<defs>
  <clipPath id="clip751">
    <rect x="480" y="0" width="1681" height="1600"/>
  </clipPath>
</defs>
<path clip-path="url(#clip750)" d="M223.103 1486.45 L2352.76 1486.45 L2352.76 47.2441 L223.103 47.2441  Z" fill="#ffffff" fill-rule="evenodd" fill-opacity="1"/>
<defs>
  <clipPath id="clip752">
    <rect x="223" y="47" width="2131" height="1440"/>
  </clipPath>
</defs>
<polyline clip-path="url(#clip752)" style="stroke:#000000; stroke-linecap:round; stroke-linejoin:round; stroke-width:2; stroke-opacity:0.1; fill:none" points="283.376,1486.45 283.376,47.2441 "/>
<polyline clip-path="url(#clip752)" style="stroke:#000000; stroke-linecap:round; stroke-linejoin:round; stroke-width:2; stroke-opacity:0.1; fill:none" points="785.652,1486.45 785.652,47.2441 "/>
<polyline clip-path="url(#clip752)" style="stroke:#000000; stroke-linecap:round; stroke-linejoin:round; stroke-width:2; stroke-opacity:0.1; fill:none" points="1287.93,1486.45 1287.93,47.2441 "/>
<polyline clip-path="url(#clip752)" style="stroke:#000000; stroke-linecap:round; stroke-linejoin:round; stroke-width:2; stroke-opacity:0.1; fill:none" points="1790.21,1486.45 1790.21,47.2441 "/>
<polyline clip-path="url(#clip752)" style="stroke:#000000; stroke-linecap:round; stroke-linejoin:round; stroke-width:2; stroke-opacity:0.1; fill:none" points="2292.48,1486.45 2292.48,47.2441 "/>
<polyline clip-path="url(#clip750)" style="stroke:#000000; stroke-linecap:round; stroke-linejoin:round; stroke-width:4; stroke-opacity:1; fill:none" points="223.103,1486.45 2352.76,1486.45 "/>
<polyline clip-path="url(#clip750)" style="stroke:#000000; stroke-linecap:round; stroke-linejoin:round; stroke-width:4; stroke-opacity:1; fill:none" points="283.376,1486.45 283.376,1467.55 "/>
<polyline clip-path="url(#clip750)" style="stroke:#000000; stroke-linecap:round; stroke-linejoin:round; stroke-width:4; stroke-opacity:1; fill:none" points="785.652,1486.45 785.652,1467.55 "/>
<polyline clip-path="url(#clip750)" style="stroke:#000000; stroke-linecap:round; stroke-linejoin:round; stroke-width:4; stroke-opacity:1; fill:none" points="1287.93,1486.45 1287.93,1467.55 "/>
<polyline clip-path="url(#clip750)" style="stroke:#000000; stroke-linecap:round; stroke-linejoin:round; stroke-width:4; stroke-opacity:1; fill:none" points="1790.21,1486.45 1790.21,1467.55 "/>
<polyline clip-path="url(#clip750)" style="stroke:#000000; stroke-linecap:round; stroke-linejoin:round; stroke-width:4; stroke-opacity:1; fill:none" points="2292.48,1486.45 2292.48,1467.55 "/>
<path clip-path="url(#clip750)" d="M229.904 1532.02 L259.58 1532.02 L259.58 1535.95 L229.904 1535.95 L229.904 1532.02 Z" fill="#000000" fill-rule="nonzero" fill-opacity="1" /><path clip-path="url(#clip750)" d="M270.482 1544.91 L278.121 1544.91 L278.121 1518.55 L269.811 1520.21 L269.811 1515.95 L278.075 1514.29 L282.751 1514.29 L282.751 1544.91 L290.39 1544.91 L290.39 1548.85 L270.482 1548.85 L270.482 1544.91 Z" fill="#000000" fill-rule="nonzero" fill-opacity="1" /><path clip-path="url(#clip750)" d="M299.834 1542.97 L304.718 1542.97 L304.718 1548.85 L299.834 1548.85 L299.834 1542.97 Z" fill="#000000" fill-rule="nonzero" fill-opacity="1" /><path clip-path="url(#clip750)" d="M324.903 1517.37 Q321.292 1517.37 319.463 1520.93 Q317.658 1524.47 317.658 1531.6 Q317.658 1538.71 319.463 1542.27 Q321.292 1545.82 324.903 1545.82 Q328.538 1545.82 330.343 1542.27 Q332.172 1538.71 332.172 1531.6 Q332.172 1524.47 330.343 1520.93 Q328.538 1517.37 324.903 1517.37 M324.903 1513.66 Q330.713 1513.66 333.769 1518.27 Q336.848 1522.85 336.848 1531.6 Q336.848 1540.33 333.769 1544.94 Q330.713 1549.52 324.903 1549.52 Q319.093 1549.52 316.014 1544.94 Q312.959 1540.33 312.959 1531.6 Q312.959 1522.85 316.014 1518.27 Q319.093 1513.66 324.903 1513.66 Z" fill="#000000" fill-rule="nonzero" fill-opacity="1" /><path clip-path="url(#clip750)" d="M732.678 1532.02 L762.354 1532.02 L762.354 1535.95 L732.678 1535.95 L732.678 1532.02 Z" fill="#000000" fill-rule="nonzero" fill-opacity="1" /><path clip-path="url(#clip750)" d="M782.446 1517.37 Q778.835 1517.37 777.007 1520.93 Q775.201 1524.47 775.201 1531.6 Q775.201 1538.71 777.007 1542.27 Q778.835 1545.82 782.446 1545.82 Q786.081 1545.82 787.886 1542.27 Q789.715 1538.71 789.715 1531.6 Q789.715 1524.47 787.886 1520.93 Q786.081 1517.37 782.446 1517.37 M782.446 1513.66 Q788.257 1513.66 791.312 1518.27 Q794.391 1522.85 794.391 1531.6 Q794.391 1540.33 791.312 1544.94 Q788.257 1549.52 782.446 1549.52 Q776.636 1549.52 773.558 1544.94 Q770.502 1540.33 770.502 1531.6 Q770.502 1522.85 773.558 1518.27 Q776.636 1513.66 782.446 1513.66 Z" fill="#000000" fill-rule="nonzero" fill-opacity="1" /><path clip-path="url(#clip750)" d="M802.608 1542.97 L807.493 1542.97 L807.493 1548.85 L802.608 1548.85 L802.608 1542.97 Z" fill="#000000" fill-rule="nonzero" fill-opacity="1" /><path clip-path="url(#clip750)" d="M817.724 1514.29 L836.08 1514.29 L836.08 1518.22 L822.006 1518.22 L822.006 1526.7 Q823.025 1526.35 824.043 1526.19 Q825.062 1526 826.08 1526 Q831.867 1526 835.247 1529.17 Q838.627 1532.34 838.627 1537.76 Q838.627 1543.34 835.155 1546.44 Q831.682 1549.52 825.363 1549.52 Q823.187 1549.52 820.918 1549.15 Q818.673 1548.78 816.266 1548.04 L816.266 1543.34 Q818.349 1544.47 820.571 1545.03 Q822.793 1545.58 825.27 1545.58 Q829.275 1545.58 831.613 1543.48 Q833.951 1541.37 833.951 1537.76 Q833.951 1534.15 831.613 1532.04 Q829.275 1529.94 825.27 1529.94 Q823.395 1529.94 821.52 1530.35 Q819.668 1530.77 817.724 1531.65 L817.724 1514.29 Z" fill="#000000" fill-rule="nonzero" fill-opacity="1" /><path clip-path="url(#clip750)" d="M1265.31 1517.37 Q1261.7 1517.37 1259.87 1520.93 Q1258.07 1524.47 1258.07 1531.6 Q1258.07 1538.71 1259.87 1542.27 Q1261.7 1545.82 1265.31 1545.82 Q1268.95 1545.82 1270.75 1542.27 Q1272.58 1538.71 1272.58 1531.6 Q1272.58 1524.47 1270.75 1520.93 Q1268.95 1517.37 1265.31 1517.37 M1265.31 1513.66 Q1271.12 1513.66 1274.18 1518.27 Q1277.26 1522.85 1277.26 1531.6 Q1277.26 1540.33 1274.18 1544.94 Q1271.12 1549.52 1265.31 1549.52 Q1259.5 1549.52 1256.42 1544.94 Q1253.37 1540.33 1253.37 1531.6 Q1253.37 1522.85 1256.42 1518.27 Q1259.5 1513.66 1265.31 1513.66 Z" fill="#000000" fill-rule="nonzero" fill-opacity="1" /><path clip-path="url(#clip750)" d="M1285.48 1542.97 L1290.36 1542.97 L1290.36 1548.85 L1285.48 1548.85 L1285.48 1542.97 Z" fill="#000000" fill-rule="nonzero" fill-opacity="1" /><path clip-path="url(#clip750)" d="M1310.54 1517.37 Q1306.93 1517.37 1305.11 1520.93 Q1303.3 1524.47 1303.3 1531.6 Q1303.3 1538.71 1305.11 1542.27 Q1306.93 1545.82 1310.54 1545.82 Q1314.18 1545.82 1315.98 1542.27 Q1317.81 1538.71 1317.81 1531.6 Q1317.81 1524.47 1315.98 1520.93 Q1314.18 1517.37 1310.54 1517.37 M1310.54 1513.66 Q1316.35 1513.66 1319.41 1518.27 Q1322.49 1522.85 1322.49 1531.6 Q1322.49 1540.33 1319.41 1544.94 Q1316.35 1549.52 1310.54 1549.52 Q1304.73 1549.52 1301.66 1544.94 Q1298.6 1540.33 1298.6 1531.6 Q1298.6 1522.85 1301.66 1518.27 Q1304.73 1513.66 1310.54 1513.66 Z" fill="#000000" fill-rule="nonzero" fill-opacity="1" /><path clip-path="url(#clip750)" d="M1768.09 1517.37 Q1764.48 1517.37 1762.65 1520.93 Q1760.84 1524.47 1760.84 1531.6 Q1760.84 1538.71 1762.65 1542.27 Q1764.48 1545.82 1768.09 1545.82 Q1771.72 1545.82 1773.53 1542.27 Q1775.36 1538.71 1775.36 1531.6 Q1775.36 1524.47 1773.53 1520.93 Q1771.72 1517.37 1768.09 1517.37 M1768.09 1513.66 Q1773.9 1513.66 1776.95 1518.27 Q1780.03 1522.85 1780.03 1531.6 Q1780.03 1540.33 1776.95 1544.94 Q1773.9 1549.52 1768.09 1549.52 Q1762.28 1549.52 1759.2 1544.94 Q1756.14 1540.33 1756.14 1531.6 Q1756.14 1522.85 1759.2 1518.27 Q1762.28 1513.66 1768.09 1513.66 Z" fill="#000000" fill-rule="nonzero" fill-opacity="1" /><path clip-path="url(#clip750)" d="M1788.25 1542.97 L1793.13 1542.97 L1793.13 1548.85 L1788.25 1548.85 L1788.25 1542.97 Z" fill="#000000" fill-rule="nonzero" fill-opacity="1" /><path clip-path="url(#clip750)" d="M1803.37 1514.29 L1821.72 1514.29 L1821.72 1518.22 L1807.65 1518.22 L1807.65 1526.7 Q1808.67 1526.35 1809.69 1526.19 Q1810.7 1526 1811.72 1526 Q1817.51 1526 1820.89 1529.17 Q1824.27 1532.34 1824.27 1537.76 Q1824.27 1543.34 1820.8 1546.44 Q1817.32 1549.52 1811 1549.52 Q1808.83 1549.52 1806.56 1549.15 Q1804.31 1548.78 1801.91 1548.04 L1801.91 1543.34 Q1803.99 1544.47 1806.21 1545.03 Q1808.44 1545.58 1810.91 1545.58 Q1814.92 1545.58 1817.25 1543.48 Q1819.59 1541.37 1819.59 1537.76 Q1819.59 1534.15 1817.25 1532.04 Q1814.92 1529.94 1810.91 1529.94 Q1809.04 1529.94 1807.16 1530.35 Q1805.31 1530.77 1803.37 1531.65 L1803.37 1514.29 Z" fill="#000000" fill-rule="nonzero" fill-opacity="1" /><path clip-path="url(#clip750)" d="M2259.64 1544.91 L2267.27 1544.91 L2267.27 1518.55 L2258.96 1520.21 L2258.96 1515.95 L2267.23 1514.29 L2271.9 1514.29 L2271.9 1544.91 L2279.54 1544.91 L2279.54 1548.85 L2259.64 1548.85 L2259.64 1544.91 Z" fill="#000000" fill-rule="nonzero" fill-opacity="1" /><path clip-path="url(#clip750)" d="M2288.99 1542.97 L2293.87 1542.97 L2293.87 1548.85 L2288.99 1548.85 L2288.99 1542.97 Z" fill="#000000" fill-rule="nonzero" fill-opacity="1" /><path clip-path="url(#clip750)" d="M2314.06 1517.37 Q2310.45 1517.37 2308.62 1520.93 Q2306.81 1524.47 2306.81 1531.6 Q2306.81 1538.71 2308.62 1542.27 Q2310.45 1545.82 2314.06 1545.82 Q2317.69 1545.82 2319.5 1542.27 Q2321.33 1538.71 2321.33 1531.6 Q2321.33 1524.47 2319.5 1520.93 Q2317.69 1517.37 2314.06 1517.37 M2314.06 1513.66 Q2319.87 1513.66 2322.92 1518.27 Q2326 1522.85 2326 1531.6 Q2326 1540.33 2322.92 1544.94 Q2319.87 1549.52 2314.06 1549.52 Q2308.25 1549.52 2305.17 1544.94 Q2302.11 1540.33 2302.11 1531.6 Q2302.11 1522.85 2305.17 1518.27 Q2308.25 1513.66 2314.06 1513.66 Z" fill="#000000" fill-rule="nonzero" fill-opacity="1" /><polyline clip-path="url(#clip752)" style="stroke:#000000; stroke-linecap:round; stroke-linejoin:round; stroke-width:2; stroke-opacity:0.1; fill:none" points="223.103,1400.47 2352.76,1400.47 "/>
<polyline clip-path="url(#clip752)" style="stroke:#000000; stroke-linecap:round; stroke-linejoin:round; stroke-width:2; stroke-opacity:0.1; fill:none" points="223.103,1206.47 2352.76,1206.47 "/>
<polyline clip-path="url(#clip752)" style="stroke:#000000; stroke-linecap:round; stroke-linejoin:round; stroke-width:2; stroke-opacity:0.1; fill:none" points="223.103,1012.47 2352.76,1012.47 "/>
<polyline clip-path="url(#clip752)" style="stroke:#000000; stroke-linecap:round; stroke-linejoin:round; stroke-width:2; stroke-opacity:0.1; fill:none" points="223.103,818.464 2352.76,818.464 "/>
<polyline clip-path="url(#clip752)" style="stroke:#000000; stroke-linecap:round; stroke-linejoin:round; stroke-width:2; stroke-opacity:0.1; fill:none" points="223.103,624.461 2352.76,624.461 "/>
<polyline clip-path="url(#clip752)" style="stroke:#000000; stroke-linecap:round; stroke-linejoin:round; stroke-width:2; stroke-opacity:0.1; fill:none" points="223.103,430.458 2352.76,430.458 "/>
<polyline clip-path="url(#clip752)" style="stroke:#000000; stroke-linecap:round; stroke-linejoin:round; stroke-width:2; stroke-opacity:0.1; fill:none" points="223.103,236.455 2352.76,236.455 "/>
<polyline clip-path="url(#clip750)" style="stroke:#000000; stroke-linecap:round; stroke-linejoin:round; stroke-width:4; stroke-opacity:1; fill:none" points="223.103,1486.45 223.103,47.2441 "/>
<polyline clip-path="url(#clip750)" style="stroke:#000000; stroke-linecap:round; stroke-linejoin:round; stroke-width:4; stroke-opacity:1; fill:none" points="223.103,1400.47 242,1400.47 "/>
<polyline clip-path="url(#clip750)" style="stroke:#000000; stroke-linecap:round; stroke-linejoin:round; stroke-width:4; stroke-opacity:1; fill:none" points="223.103,1206.47 242,1206.47 "/>
<polyline clip-path="url(#clip750)" style="stroke:#000000; stroke-linecap:round; stroke-linejoin:round; stroke-width:4; stroke-opacity:1; fill:none" points="223.103,1012.47 242,1012.47 "/>
<polyline clip-path="url(#clip750)" style="stroke:#000000; stroke-linecap:round; stroke-linejoin:round; stroke-width:4; stroke-opacity:1; fill:none" points="223.103,818.464 242,818.464 "/>
<polyline clip-path="url(#clip750)" style="stroke:#000000; stroke-linecap:round; stroke-linejoin:round; stroke-width:4; stroke-opacity:1; fill:none" points="223.103,624.461 242,624.461 "/>
<polyline clip-path="url(#clip750)" style="stroke:#000000; stroke-linecap:round; stroke-linejoin:round; stroke-width:4; stroke-opacity:1; fill:none" points="223.103,430.458 242,430.458 "/>
<polyline clip-path="url(#clip750)" style="stroke:#000000; stroke-linecap:round; stroke-linejoin:round; stroke-width:4; stroke-opacity:1; fill:none" points="223.103,236.455 242,236.455 "/>
<path clip-path="url(#clip750)" d="M50.9921 1400.93 L80.6679 1400.93 L80.6679 1404.86 L50.9921 1404.86 L50.9921 1400.93 Z" fill="#000000" fill-rule="nonzero" fill-opacity="1" /><path clip-path="url(#clip750)" d="M100.76 1386.27 Q97.1493 1386.27 95.3206 1389.84 Q93.515 1393.38 93.515 1400.51 Q93.515 1407.61 95.3206 1411.18 Q97.1493 1414.72 100.76 1414.72 Q104.395 1414.72 106.2 1411.18 Q108.029 1407.61 108.029 1400.51 Q108.029 1393.38 106.2 1389.84 Q104.395 1386.27 100.76 1386.27 M100.76 1382.57 Q106.571 1382.57 109.626 1387.18 Q112.705 1391.76 112.705 1400.51 Q112.705 1409.24 109.626 1413.84 Q106.571 1418.43 100.76 1418.43 Q94.9502 1418.43 91.8715 1413.84 Q88.816 1409.24 88.816 1400.51 Q88.816 1391.76 91.8715 1387.18 Q94.9502 1382.57 100.76 1382.57 Z" fill="#000000" fill-rule="nonzero" fill-opacity="1" /><path clip-path="url(#clip750)" d="M120.922 1411.87 L125.807 1411.87 L125.807 1417.75 L120.922 1417.75 L120.922 1411.87 Z" fill="#000000" fill-rule="nonzero" fill-opacity="1" /><path clip-path="url(#clip750)" d="M140.019 1413.82 L156.339 1413.82 L156.339 1417.75 L134.394 1417.75 L134.394 1413.82 Q137.056 1411.06 141.64 1406.43 Q146.246 1401.78 147.427 1400.44 Q149.672 1397.92 150.552 1396.18 Q151.455 1394.42 151.455 1392.73 Q151.455 1389.98 149.51 1388.24 Q147.589 1386.5 144.487 1386.5 Q142.288 1386.5 139.834 1387.27 Q137.404 1388.03 134.626 1389.58 L134.626 1384.86 Q137.45 1383.73 139.904 1383.15 Q142.357 1382.57 144.394 1382.57 Q149.765 1382.57 152.959 1385.25 Q156.154 1387.94 156.154 1392.43 Q156.154 1394.56 155.343 1396.48 Q154.556 1398.38 152.45 1400.97 Q151.871 1401.64 148.769 1404.86 Q145.668 1408.05 140.019 1413.82 Z" fill="#000000" fill-rule="nonzero" fill-opacity="1" /><path clip-path="url(#clip750)" d="M166.2 1383.19 L184.556 1383.19 L184.556 1387.13 L170.482 1387.13 L170.482 1395.6 Q171.501 1395.25 172.519 1395.09 Q173.538 1394.91 174.556 1394.91 Q180.343 1394.91 183.723 1398.08 Q187.103 1401.25 187.103 1406.67 Q187.103 1412.24 183.63 1415.35 Q180.158 1418.43 173.839 1418.43 Q171.663 1418.43 169.394 1418.05 Q167.149 1417.68 164.742 1416.94 L164.742 1412.24 Q166.825 1413.38 169.047 1413.93 Q171.269 1414.49 173.746 1414.49 Q177.751 1414.49 180.089 1412.38 Q182.427 1410.28 182.427 1406.67 Q182.427 1403.05 180.089 1400.95 Q177.751 1398.84 173.746 1398.84 Q171.871 1398.84 169.996 1399.26 Q168.144 1399.68 166.2 1400.55 L166.2 1383.19 Z" fill="#000000" fill-rule="nonzero" fill-opacity="1" /><path clip-path="url(#clip750)" d="M99.765 1192.27 Q96.1539 1192.27 94.3252 1195.83 Q92.5197 1199.38 92.5197 1206.51 Q92.5197 1213.61 94.3252 1217.18 Q96.1539 1220.72 99.765 1220.72 Q103.399 1220.72 105.205 1217.18 Q107.033 1213.61 107.033 1206.51 Q107.033 1199.38 105.205 1195.83 Q103.399 1192.27 99.765 1192.27 M99.765 1188.57 Q105.575 1188.57 108.631 1193.17 Q111.709 1197.76 111.709 1206.51 Q111.709 1215.23 108.631 1219.84 Q105.575 1224.42 99.765 1224.42 Q93.9549 1224.42 90.8762 1219.84 Q87.8206 1215.23 87.8206 1206.51 Q87.8206 1197.76 90.8762 1193.17 Q93.9549 1188.57 99.765 1188.57 Z" fill="#000000" fill-rule="nonzero" fill-opacity="1" /><path clip-path="url(#clip750)" d="M119.927 1217.87 L124.811 1217.87 L124.811 1223.75 L119.927 1223.75 L119.927 1217.87 Z" fill="#000000" fill-rule="nonzero" fill-opacity="1" /><path clip-path="url(#clip750)" d="M144.996 1192.27 Q141.385 1192.27 139.556 1195.83 Q137.751 1199.38 137.751 1206.51 Q137.751 1213.61 139.556 1217.18 Q141.385 1220.72 144.996 1220.72 Q148.63 1220.72 150.436 1217.18 Q152.265 1213.61 152.265 1206.51 Q152.265 1199.38 150.436 1195.83 Q148.63 1192.27 144.996 1192.27 M144.996 1188.57 Q150.806 1188.57 153.862 1193.17 Q156.941 1197.76 156.941 1206.51 Q156.941 1215.23 153.862 1219.84 Q150.806 1224.42 144.996 1224.42 Q139.186 1224.42 136.107 1219.84 Q133.052 1215.23 133.052 1206.51 Q133.052 1197.76 136.107 1193.17 Q139.186 1188.57 144.996 1188.57 Z" fill="#000000" fill-rule="nonzero" fill-opacity="1" /><path clip-path="url(#clip750)" d="M175.158 1192.27 Q171.547 1192.27 169.718 1195.83 Q167.913 1199.38 167.913 1206.51 Q167.913 1213.61 169.718 1217.18 Q171.547 1220.72 175.158 1220.72 Q178.792 1220.72 180.598 1217.18 Q182.427 1213.61 182.427 1206.51 Q182.427 1199.38 180.598 1195.83 Q178.792 1192.27 175.158 1192.27 M175.158 1188.57 Q180.968 1188.57 184.024 1193.17 Q187.103 1197.76 187.103 1206.51 Q187.103 1215.23 184.024 1219.84 Q180.968 1224.42 175.158 1224.42 Q169.348 1224.42 166.269 1219.84 Q163.214 1215.23 163.214 1206.51 Q163.214 1197.76 166.269 1193.17 Q169.348 1188.57 175.158 1188.57 Z" fill="#000000" fill-rule="nonzero" fill-opacity="1" /><path clip-path="url(#clip750)" d="M100.76 998.266 Q97.1493 998.266 95.3206 1001.83 Q93.515 1005.37 93.515 1012.5 Q93.515 1019.61 95.3206 1023.17 Q97.1493 1026.72 100.76 1026.72 Q104.395 1026.72 106.2 1023.17 Q108.029 1019.61 108.029 1012.5 Q108.029 1005.37 106.2 1001.83 Q104.395 998.266 100.76 998.266 M100.76 994.562 Q106.571 994.562 109.626 999.169 Q112.705 1003.75 112.705 1012.5 Q112.705 1021.23 109.626 1025.84 Q106.571 1030.42 100.76 1030.42 Q94.9502 1030.42 91.8715 1025.84 Q88.816 1021.23 88.816 1012.5 Q88.816 1003.75 91.8715 999.169 Q94.9502 994.562 100.76 994.562 Z" fill="#000000" fill-rule="nonzero" fill-opacity="1" /><path clip-path="url(#clip750)" d="M120.922 1023.87 L125.807 1023.87 L125.807 1029.75 L120.922 1029.75 L120.922 1023.87 Z" fill="#000000" fill-rule="nonzero" fill-opacity="1" /><path clip-path="url(#clip750)" d="M140.019 1025.81 L156.339 1025.81 L156.339 1029.75 L134.394 1029.75 L134.394 1025.81 Q137.056 1023.06 141.64 1018.43 Q146.246 1013.78 147.427 1012.43 Q149.672 1009.91 150.552 1008.17 Q151.455 1006.41 151.455 1004.72 Q151.455 1001.97 149.51 1000.23 Q147.589 998.498 144.487 998.498 Q142.288 998.498 139.834 999.262 Q137.404 1000.03 134.626 1001.58 L134.626 996.854 Q137.45 995.72 139.904 995.141 Q142.357 994.562 144.394 994.562 Q149.765 994.562 152.959 997.248 Q156.154 999.933 156.154 1004.42 Q156.154 1006.55 155.343 1008.47 Q154.556 1010.37 152.45 1012.97 Q151.871 1013.64 148.769 1016.85 Q145.668 1020.05 140.019 1025.81 Z" fill="#000000" fill-rule="nonzero" fill-opacity="1" /><path clip-path="url(#clip750)" d="M166.2 995.187 L184.556 995.187 L184.556 999.123 L170.482 999.123 L170.482 1007.59 Q171.501 1007.25 172.519 1007.09 Q173.538 1006.9 174.556 1006.9 Q180.343 1006.9 183.723 1010.07 Q187.103 1013.24 187.103 1018.66 Q187.103 1024.24 183.63 1027.34 Q180.158 1030.42 173.839 1030.42 Q171.663 1030.42 169.394 1030.05 Q167.149 1029.68 164.742 1028.94 L164.742 1024.24 Q166.825 1025.37 169.047 1025.93 Q171.269 1026.48 173.746 1026.48 Q177.751 1026.48 180.089 1024.38 Q182.427 1022.27 182.427 1018.66 Q182.427 1015.05 180.089 1012.94 Q177.751 1010.84 173.746 1010.84 Q171.871 1010.84 169.996 1011.25 Q168.144 1011.67 166.2 1012.55 L166.2 995.187 Z" fill="#000000" fill-rule="nonzero" fill-opacity="1" /><path clip-path="url(#clip750)" d="M99.765 804.263 Q96.1539 804.263 94.3252 807.828 Q92.5197 811.369 92.5197 818.499 Q92.5197 825.605 94.3252 829.17 Q96.1539 832.712 99.765 832.712 Q103.399 832.712 105.205 829.17 Q107.033 825.605 107.033 818.499 Q107.033 811.369 105.205 807.828 Q103.399 804.263 99.765 804.263 M99.765 800.559 Q105.575 800.559 108.631 805.166 Q111.709 809.749 111.709 818.499 Q111.709 827.226 108.631 831.832 Q105.575 836.416 99.765 836.416 Q93.9549 836.416 90.8762 831.832 Q87.8206 827.226 87.8206 818.499 Q87.8206 809.749 90.8762 805.166 Q93.9549 800.559 99.765 800.559 Z" fill="#000000" fill-rule="nonzero" fill-opacity="1" /><path clip-path="url(#clip750)" d="M119.927 829.865 L124.811 829.865 L124.811 835.744 L119.927 835.744 L119.927 829.865 Z" fill="#000000" fill-rule="nonzero" fill-opacity="1" /><path clip-path="url(#clip750)" d="M135.043 801.184 L153.399 801.184 L153.399 805.119 L139.325 805.119 L139.325 813.592 Q140.343 813.244 141.362 813.082 Q142.381 812.897 143.399 812.897 Q149.186 812.897 152.566 816.068 Q155.945 819.24 155.945 824.656 Q155.945 830.235 152.473 833.337 Q149.001 836.416 142.681 836.416 Q140.506 836.416 138.237 836.045 Q135.992 835.675 133.584 834.934 L133.584 830.235 Q135.668 831.369 137.89 831.925 Q140.112 832.48 142.589 832.48 Q146.593 832.48 148.931 830.374 Q151.269 828.267 151.269 824.656 Q151.269 821.045 148.931 818.939 Q146.593 816.832 142.589 816.832 Q140.714 816.832 138.839 817.249 Q136.987 817.666 135.043 818.545 L135.043 801.184 Z" fill="#000000" fill-rule="nonzero" fill-opacity="1" /><path clip-path="url(#clip750)" d="M175.158 804.263 Q171.547 804.263 169.718 807.828 Q167.913 811.369 167.913 818.499 Q167.913 825.605 169.718 829.17 Q171.547 832.712 175.158 832.712 Q178.792 832.712 180.598 829.17 Q182.427 825.605 182.427 818.499 Q182.427 811.369 180.598 807.828 Q178.792 804.263 175.158 804.263 M175.158 800.559 Q180.968 800.559 184.024 805.166 Q187.103 809.749 187.103 818.499 Q187.103 827.226 184.024 831.832 Q180.968 836.416 175.158 836.416 Q169.348 836.416 166.269 831.832 Q163.214 827.226 163.214 818.499 Q163.214 809.749 166.269 805.166 Q169.348 800.559 175.158 800.559 Z" fill="#000000" fill-rule="nonzero" fill-opacity="1" /><path clip-path="url(#clip750)" d="M100.76 610.26 Q97.1493 610.26 95.3206 613.825 Q93.515 617.366 93.515 624.496 Q93.515 631.602 95.3206 635.167 Q97.1493 638.709 100.76 638.709 Q104.395 638.709 106.2 635.167 Q108.029 631.602 108.029 624.496 Q108.029 617.366 106.2 613.825 Q104.395 610.26 100.76 610.26 M100.76 606.556 Q106.571 606.556 109.626 611.163 Q112.705 615.746 112.705 624.496 Q112.705 633.223 109.626 637.829 Q106.571 642.412 100.76 642.412 Q94.9502 642.412 91.8715 637.829 Q88.816 633.223 88.816 624.496 Q88.816 615.746 91.8715 611.163 Q94.9502 606.556 100.76 606.556 Z" fill="#000000" fill-rule="nonzero" fill-opacity="1" /><path clip-path="url(#clip750)" d="M120.922 635.862 L125.807 635.862 L125.807 641.741 L120.922 641.741 L120.922 635.862 Z" fill="#000000" fill-rule="nonzero" fill-opacity="1" /><path clip-path="url(#clip750)" d="M134.811 607.181 L157.033 607.181 L157.033 609.172 L144.487 641.741 L139.603 641.741 L151.408 611.116 L134.811 611.116 L134.811 607.181 Z" fill="#000000" fill-rule="nonzero" fill-opacity="1" /><path clip-path="url(#clip750)" d="M166.2 607.181 L184.556 607.181 L184.556 611.116 L170.482 611.116 L170.482 619.588 Q171.501 619.241 172.519 619.079 Q173.538 618.894 174.556 618.894 Q180.343 618.894 183.723 622.065 Q187.103 625.237 187.103 630.653 Q187.103 636.232 183.63 639.334 Q180.158 642.412 173.839 642.412 Q171.663 642.412 169.394 642.042 Q167.149 641.672 164.742 640.931 L164.742 636.232 Q166.825 637.366 169.047 637.922 Q171.269 638.477 173.746 638.477 Q177.751 638.477 180.089 636.371 Q182.427 634.264 182.427 630.653 Q182.427 627.042 180.089 624.936 Q177.751 622.829 173.746 622.829 Q171.871 622.829 169.996 623.246 Q168.144 623.663 166.2 624.542 L166.2 607.181 Z" fill="#000000" fill-rule="nonzero" fill-opacity="1" /><path clip-path="url(#clip750)" d="M90.5752 443.803 L98.2141 443.803 L98.2141 417.437 L89.904 419.104 L89.904 414.845 L98.1678 413.178 L102.844 413.178 L102.844 443.803 L110.483 443.803 L110.483 447.738 L90.5752 447.738 L90.5752 443.803 Z" fill="#000000" fill-rule="nonzero" fill-opacity="1" /><path clip-path="url(#clip750)" d="M119.927 441.858 L124.811 441.858 L124.811 447.738 L119.927 447.738 L119.927 441.858 Z" fill="#000000" fill-rule="nonzero" fill-opacity="1" /><path clip-path="url(#clip750)" d="M144.996 416.257 Q141.385 416.257 139.556 419.821 Q137.751 423.363 137.751 430.493 Q137.751 437.599 139.556 441.164 Q141.385 444.706 144.996 444.706 Q148.63 444.706 150.436 441.164 Q152.265 437.599 152.265 430.493 Q152.265 423.363 150.436 419.821 Q148.63 416.257 144.996 416.257 M144.996 412.553 Q150.806 412.553 153.862 417.159 Q156.941 421.743 156.941 430.493 Q156.941 439.219 153.862 443.826 Q150.806 448.409 144.996 448.409 Q139.186 448.409 136.107 443.826 Q133.052 439.219 133.052 430.493 Q133.052 421.743 136.107 417.159 Q139.186 412.553 144.996 412.553 Z" fill="#000000" fill-rule="nonzero" fill-opacity="1" /><path clip-path="url(#clip750)" d="M175.158 416.257 Q171.547 416.257 169.718 419.821 Q167.913 423.363 167.913 430.493 Q167.913 437.599 169.718 441.164 Q171.547 444.706 175.158 444.706 Q178.792 444.706 180.598 441.164 Q182.427 437.599 182.427 430.493 Q182.427 423.363 180.598 419.821 Q178.792 416.257 175.158 416.257 M175.158 412.553 Q180.968 412.553 184.024 417.159 Q187.103 421.743 187.103 430.493 Q187.103 439.219 184.024 443.826 Q180.968 448.409 175.158 448.409 Q169.348 448.409 166.269 443.826 Q163.214 439.219 163.214 430.493 Q163.214 421.743 166.269 417.159 Q169.348 412.553 175.158 412.553 Z" fill="#000000" fill-rule="nonzero" fill-opacity="1" /><path clip-path="url(#clip750)" d="M91.5706 249.8 L99.2095 249.8 L99.2095 223.434 L90.8993 225.101 L90.8993 220.841 L99.1632 219.175 L103.839 219.175 L103.839 249.8 L111.478 249.8 L111.478 253.735 L91.5706 253.735 L91.5706 249.8 Z" fill="#000000" fill-rule="nonzero" fill-opacity="1" /><path clip-path="url(#clip750)" d="M120.922 247.855 L125.807 247.855 L125.807 253.735 L120.922 253.735 L120.922 247.855 Z" fill="#000000" fill-rule="nonzero" fill-opacity="1" /><path clip-path="url(#clip750)" d="M140.019 249.8 L156.339 249.8 L156.339 253.735 L134.394 253.735 L134.394 249.8 Q137.056 247.045 141.64 242.415 Q146.246 237.763 147.427 236.42 Q149.672 233.897 150.552 232.161 Q151.455 230.402 151.455 228.712 Q151.455 225.957 149.51 224.221 Q147.589 222.485 144.487 222.485 Q142.288 222.485 139.834 223.249 Q137.404 224.013 134.626 225.564 L134.626 220.841 Q137.45 219.707 139.904 219.129 Q142.357 218.55 144.394 218.55 Q149.765 218.55 152.959 221.235 Q156.154 223.92 156.154 228.411 Q156.154 230.54 155.343 232.462 Q154.556 234.36 152.45 236.952 Q151.871 237.624 148.769 240.841 Q145.668 244.036 140.019 249.8 Z" fill="#000000" fill-rule="nonzero" fill-opacity="1" /><path clip-path="url(#clip750)" d="M166.2 219.175 L184.556 219.175 L184.556 223.11 L170.482 223.11 L170.482 231.582 Q171.501 231.235 172.519 231.073 Q173.538 230.888 174.556 230.888 Q180.343 230.888 183.723 234.059 Q187.103 237.23 187.103 242.647 Q187.103 248.226 183.63 251.327 Q180.158 254.406 173.839 254.406 Q171.663 254.406 169.394 254.036 Q167.149 253.665 164.742 252.925 L164.742 248.226 Q166.825 249.36 169.047 249.915 Q171.269 250.471 173.746 250.471 Q177.751 250.471 180.089 248.364 Q182.427 246.258 182.427 242.647 Q182.427 239.036 180.089 236.929 Q177.751 234.823 173.746 234.823 Q171.871 234.823 169.996 235.24 Q168.144 235.656 166.2 236.536 L166.2 219.175 Z" fill="#000000" fill-rule="nonzero" fill-opacity="1" /><polyline clip-path="url(#clip752)" style="stroke:#009af9; stroke-linecap:round; stroke-linejoin:round; stroke-width:16; stroke-opacity:1; fill:none" stroke-dasharray="8, 16" points="283.376,1089.92 293.472,950.912 303.568,884.634 313.664,906.944 323.76,1040.62 333.856,1207.11 343.952,1280.22 354.048,1232.17 364.144,1109.74 374.24,979.907 384.336,918.211 394.432,978.791 404.528,1154.72 414.624,1346.54 424.72,1441.33 434.816,1419.04 444.912,1325.03 455.008,1240.31 465.104,1226.25 475.2,1272.08 485.296,1339.33 495.392,1394.13 505.488,1410.53 515.584,1388.85 525.68,1352.57 535.776,1316.32 545.872,1280.04 555.968,1253.4 566.064,1250.14 576.16,1244.65 586.256,1204.27 596.352,1156.48 606.448,1139.04 616.544,1140.91 626.64,1129.11 636.736,1097.8 646.832,1068.16 656.928,1068.71 667.024,1109.58 677.12,1139.47 687.216,1102.99 697.312,1035.34 707.408,997.723 717.504,1003.99 727.6,1065.87 737.696,1167.25 747.792,1252.88 757.888,1282.23 767.984,1264.44 778.08,1236.94 788.176,1221.58 798.272,1228.76 808.369,1273.04 818.465,1352.53 828.561,1425.49 838.657,1445.72 848.753,1410.02 858.849,1352.04 868.945,1306.59 879.041,1286.18 889.137,1289.59 899.233,1307.71 909.329,1324.98 919.425,1319.03 929.521,1272.35 939.617,1198.97 949.713,1131.59 959.809,1099.26 969.905,1097.77 980.001,1098.27 990.097,1092.72 1000.19,1092.85 1010.29,1089.74 1020.38,1056.96 1030.48,996.306 1040.58,955.301 1050.67,985.342 1060.77,1070.9 1070.86,1139.04 1080.96,1162.5 1091.06,1167.79 1101.15,1176.91 1111.25,1204.39 1121.34,1252.94 1131.44,1299.62 1141.54,1303.43 1151.63,1228.89 1161.73,1142.29 1171.83,1175.37 1181.92,1311.48 1192.02,1409.67 1202.11,1418.53 1212.21,1392.88 1222.31,1359.51 1232.4,1325.79 1242.5,1310.07 1252.59,1317.72 1262.69,1304.27 1272.79,1157.38 1282.88,747.154 1292.98,395.996 1303.07,385.861 1313.17,463.959 1323.27,509.95 1333.36,505.537 1343.46,467.899 1353.55,431.316 1363.65,409.389 1373.75,391.049 1383.84,385.711 1393.94,440.048 1404.03,521.966 1414.13,527.299 1424.23,458.887 1434.32,421.943 1444.42,435.415 1454.51,460.414 1464.61,473.143 1474.71,464.364 1484.8,437.968 1494.9,399.989 1504.99,370.454 1515.09,390.828 1525.19,454.202 1535.28,491.636 1545.38,472.243 1555.47,440.025 1565.57,444.035 1575.67,474.446 1585.76,490.056 1595.86,478.095 1605.95,452.483 1616.05,416.865 1626.15,375.55 1636.24,350.467 1646.34,348.35 1656.43,367.423 1666.53,413.747 1676.63,470.899 1686.72,514.338 1696.82,535.475 1706.91,529.041 1717.01,481.504 1727.11,395.993 1737.2,312.04 1747.3,278.865 1757.39,311.37 1767.49,378.002 1777.59,442.326 1787.68,492.86 1797.78,519.063 1807.87,504.578 1817.97,460.383 1828.07,429.542 1838.16,436.006 1848.26,447.509 1858.35,416.041 1868.45,348.292 1878.55,306.806 1888.64,352.587 1898.74,471.755 1908.83,569.184 1918.93,582.573 1929.03,539.003 1939.12,488.459 1949.22,445.465 1959.31,409.829 1969.41,376.388 1979.51,331.646 1989.6,285.505 1999.7,287.315 2009.79,364.392 2019.89,476.397 2029.99,570.375 2040.08,613.995 2050.18,587.708 2060.27,499.324 2070.37,396.758 2080.47,336.624 2090.56,335.79 2100.66,369.82 2110.75,403.849 2120.85,399.495 2130.95,344.286 2141.04,303.368 2151.14,350.876 2161.23,492.962 2171.33,652.605 2181.43,710.5 2191.52,618.885 2201.62,433.668 2211.71,242.164 2221.81,112.989 2231.91,87.9763 2242,202.648 2252.1,436.824 2262.19,645.938 2272.29,727.02 2282.39,706.943 2292.48,623.524 "/>
<polyline clip-path="url(#clip752)" style="stroke:#e26f46; stroke-linecap:round; stroke-linejoin:round; stroke-width:4; stroke-opacity:1; fill:none" points="283.376,1089.92 293.472,1073.38 303.568,1061.19 313.664,1053.73 323.76,1051.27 333.856,1053.87 343.952,1061.45 354.048,1073.76 364.144,1090.4 374.24,1110.84 384.336,1134.39 394.432,1160.3 404.528,1187.71 414.624,1215.73 424.72,1243.46 434.816,1269.97 444.912,1294.42 455.008,1315.99 465.104,1333.99 475.2,1347.82 485.296,1357.05 495.392,1361.36 505.488,1360.61 515.584,1354.83 525.68,1344.21 535.776,1329.1 545.872,1309.98 555.968,1287.49 566.064,1262.35 576.16,1235.39 586.256,1207.48 596.352,1179.54 606.448,1152.48 616.544,1127.18 626.64,1104.47 636.736,1085.09 646.832,1069.67 656.928,1058.71 667.024,1052.58 677.12,1051.47 687.216,1055.42 697.312,1064.3 707.408,1077.82 717.504,1095.53 727.6,1116.87 737.696,1141.13 747.792,1167.53 757.888,1195.2 767.984,1223.23 778.08,1250.72 788.176,1276.76 798.272,1300.51 808.369,1321.19 818.465,1338.12 828.561,1350.76 838.657,1358.69 848.753,1361.65 858.849,1359.55 868.945,1352.45 879.041,1340.59 889.137,1324.35 899.233,1304.26 909.329,1280.98 919.425,1255.27 929.521,1227.96 939.617,1199.96 949.713,1172.16 959.809,1145.49 969.905,1120.81 980.001,1098.92 990.097,1080.54 1000.19,1066.28 1010.29,1056.58 1020.38,1051.78 1030.48,1052.03 1040.58,1057.32 1050.67,1067.48 1060.77,1082.17 1070.86,1100.92 1080.96,1123.12 1091.06,1148.03 1101.15,1174.86 1111.25,1202.71 1121.34,1230.69 1131.44,1257.87 1141.54,1283.38 1151.63,1306.38 1161.73,1326.12 1171.83,1341.95 1181.92,1353.36 1192.02,1359.98 1202.11,1361.59 1212.21,1358.13 1222.31,1349.73 1232.4,1336.65 1242.5,1319.32 1252.59,1298.3 1262.69,1274.29 1272.79,1248.07 1282.88,1220.49 1292.98,429.331 1303.07,428.048 1313.17,429.216 1323.27,433.102 1333.36,438.515 1343.46,443.169 1353.55,444.547 1363.65,440.966 1373.75,432.43 1383.84,420.922 1393.94,409.972 1404.03,403.575 1414.13,404.802 1424.23,414.562 1434.32,430.979 1444.42,449.663 1454.51,464.877 1464.61,471.295 1474.71,465.802 1484.8,448.756 1494.9,424.238 1504.99,399.111 1515.09,381.102 1525.19,376.437 1535.28,387.746 1545.38,412.942 1555.47,445.482 1565.57,476.049 1575.67,495.219 1585.76,496.355 1595.86,477.834 1605.95,443.891 1616.05,403.711 1626.15,368.956 1636.24,350.376 1646.34,354.507 1656.43,381.443 1666.53,424.444 1676.63,471.584 1686.72,509.056 1696.82,525.211 1706.91,514.164 1717.01,477.836 1727.11,425.768 1737.2,372.634 1747.3,334.107 1757.39,322.242 1767.49,341.725 1777.59,388.164 1787.68,448.999 1797.78,506.892 1807.87,544.662 1817.97,550.383 1828.07,521.117 1838.16,464.131 1848.26,395.137 1858.35,333.968 1868.45,298.876 1878.55,301.094 1888.64,341.279 1898.74,408.947 1908.83,485.186 1918.93,547.933 1929.03,578.358 1939.12,566.51 1949.22,514.518 1959.31,436.348 1969.41,354.07 1979.51,291.629 1989.6,267.877 1999.7,290.895 2009.79,355.308 2019.89,443.477 2029.99,530.314 2040.08,590.423 2050.18,605.521 2060.27,569.986 2070.37,492.84 2080.47,395.497 2090.56,305.829 2100.66,250.183 2110.75,245.644 2120.85,294.812 2130.95,384.681 2141.04,490.055 2151.14,580.607 2161.23,629.606 2171.33,621.804 2181.43,558.155 2191.52,455.905 2201.62,343.944 2211.71,254.639 2221.81,214.482 2231.91,236.237 2242,314.918 2252.1,428.865 2262.19,545.684 2272.29,631.47 2282.39,660.632 2292.48,623.524 "/>
<path clip-path="url(#clip750)" d="M294.091 250.738 L733.884 250.738 L733.884 95.2176 L294.091 95.2176  Z" fill="#ffffff" fill-rule="evenodd" fill-opacity="1"/>
<polyline clip-path="url(#clip750)" style="stroke:#000000; stroke-linecap:round; stroke-linejoin:round; stroke-width:4; stroke-opacity:1; fill:none" points="294.091,250.738 733.884,250.738 733.884,95.2176 294.091,95.2176 294.091,250.738 "/>
<polyline clip-path="url(#clip750)" style="stroke:#009af9; stroke-linecap:round; stroke-linejoin:round; stroke-width:16; stroke-opacity:1; fill:none" stroke-dasharray="8, 16" points="317.754,147.058 459.731,147.058 "/>
<path clip-path="url(#clip750)" d="M488.069 133.62 L488.069 146.606 L493.949 146.606 Q497.213 146.606 498.995 144.916 Q500.778 143.227 500.778 140.102 Q500.778 137 498.995 135.31 Q497.213 133.62 493.949 133.62 L488.069 133.62 M483.393 129.778 L493.949 129.778 Q499.759 129.778 502.722 132.416 Q505.708 135.032 505.708 140.102 Q505.708 145.217 502.722 147.833 Q499.759 150.449 493.949 150.449 L488.069 150.449 L488.069 164.338 L483.393 164.338 L483.393 129.778 Z" fill="#000000" fill-rule="nonzero" fill-opacity="1" /><path clip-path="url(#clip750)" d="M525.986 142.393 Q525.268 141.977 524.412 141.791 Q523.578 141.583 522.56 141.583 Q518.949 141.583 517.004 143.944 Q515.083 146.282 515.083 150.68 L515.083 164.338 L510.801 164.338 L510.801 138.412 L515.083 138.412 L515.083 142.44 Q516.426 140.078 518.578 138.944 Q520.731 137.787 523.81 137.787 Q524.25 137.787 524.782 137.856 Q525.315 137.903 525.963 138.018 L525.986 142.393 Z" fill="#000000" fill-rule="nonzero" fill-opacity="1" /><path clip-path="url(#clip750)" d="M551.588 150.31 L551.588 152.393 L532.004 152.393 Q532.282 156.791 534.643 159.106 Q537.027 161.398 541.264 161.398 Q543.717 161.398 546.009 160.796 Q548.324 160.194 550.592 158.99 L550.592 163.018 Q548.301 163.99 545.893 164.5 Q543.486 165.009 541.009 165.009 Q534.805 165.009 531.171 161.398 Q527.56 157.787 527.56 151.629 Q527.56 145.264 530.986 141.537 Q534.435 137.787 540.268 137.787 Q545.5 137.787 548.532 141.166 Q551.588 144.523 551.588 150.31 M547.328 149.06 Q547.282 145.565 545.361 143.481 Q543.463 141.398 540.314 141.398 Q536.75 141.398 534.597 143.412 Q532.467 145.426 532.143 149.083 L547.328 149.06 Z" fill="#000000" fill-rule="nonzero" fill-opacity="1" /><path clip-path="url(#clip750)" d="M575.638 142.347 L575.638 128.319 L579.898 128.319 L579.898 164.338 L575.638 164.338 L575.638 160.449 Q574.296 162.763 572.236 163.898 Q570.199 165.009 567.328 165.009 Q562.629 165.009 559.666 161.259 Q556.726 157.509 556.726 151.398 Q556.726 145.287 559.666 141.537 Q562.629 137.787 567.328 137.787 Q570.199 137.787 572.236 138.921 Q574.296 140.032 575.638 142.347 M561.125 151.398 Q561.125 156.097 563.046 158.782 Q564.99 161.444 568.37 161.444 Q571.749 161.444 573.694 158.782 Q575.638 156.097 575.638 151.398 Q575.638 146.699 573.694 144.037 Q571.749 141.352 568.37 141.352 Q564.99 141.352 563.046 144.037 Q561.125 146.699 561.125 151.398 Z" fill="#000000" fill-rule="nonzero" fill-opacity="1" /><path clip-path="url(#clip750)" d="M588.671 138.412 L592.93 138.412 L592.93 164.338 L588.671 164.338 L588.671 138.412 M588.671 128.319 L592.93 128.319 L592.93 133.713 L588.671 133.713 L588.671 128.319 Z" fill="#000000" fill-rule="nonzero" fill-opacity="1" /><path clip-path="url(#clip750)" d="M620.499 139.407 L620.499 143.389 Q618.694 142.393 616.865 141.907 Q615.059 141.398 613.208 141.398 Q609.064 141.398 606.772 144.037 Q604.481 146.652 604.481 151.398 Q604.481 156.143 606.772 158.782 Q609.064 161.398 613.208 161.398 Q615.059 161.398 616.865 160.912 Q618.694 160.402 620.499 159.407 L620.499 163.342 Q618.717 164.176 616.796 164.592 Q614.897 165.009 612.745 165.009 Q606.888 165.009 603.439 161.328 Q599.99 157.648 599.99 151.398 Q599.99 145.055 603.462 141.421 Q606.958 137.787 613.022 137.787 Q614.99 137.787 616.865 138.203 Q618.74 138.597 620.499 139.407 Z" fill="#000000" fill-rule="nonzero" fill-opacity="1" /><path clip-path="url(#clip750)" d="M632.12 131.051 L632.12 138.412 L640.893 138.412 L640.893 141.722 L632.12 141.722 L632.12 155.796 Q632.12 158.967 632.976 159.87 Q633.856 160.773 636.518 160.773 L640.893 160.773 L640.893 164.338 L636.518 164.338 Q631.587 164.338 629.712 162.509 Q627.837 160.657 627.837 155.796 L627.837 141.722 L624.712 141.722 L624.712 138.412 L627.837 138.412 L627.837 131.051 L632.12 131.051 Z" fill="#000000" fill-rule="nonzero" fill-opacity="1" /><path clip-path="url(#clip750)" d="M646.494 138.412 L650.754 138.412 L650.754 164.338 L646.494 164.338 L646.494 138.412 M646.494 128.319 L650.754 128.319 L650.754 133.713 L646.494 133.713 L646.494 128.319 Z" fill="#000000" fill-rule="nonzero" fill-opacity="1" /><path clip-path="url(#clip750)" d="M669.712 141.398 Q666.286 141.398 664.295 144.083 Q662.305 146.745 662.305 151.398 Q662.305 156.051 664.272 158.736 Q666.263 161.398 669.712 161.398 Q673.115 161.398 675.105 158.713 Q677.096 156.027 677.096 151.398 Q677.096 146.791 675.105 144.106 Q673.115 141.398 669.712 141.398 M669.712 137.787 Q675.267 137.787 678.439 141.398 Q681.61 145.009 681.61 151.398 Q681.61 157.764 678.439 161.398 Q675.267 165.009 669.712 165.009 Q664.133 165.009 660.962 161.398 Q657.814 157.764 657.814 151.398 Q657.814 145.009 660.962 141.398 Q664.133 137.787 669.712 137.787 Z" fill="#000000" fill-rule="nonzero" fill-opacity="1" /><path clip-path="url(#clip750)" d="M710.221 148.689 L710.221 164.338 L705.962 164.338 L705.962 148.828 Q705.962 145.148 704.527 143.319 Q703.091 141.49 700.221 141.49 Q696.772 141.49 694.781 143.69 Q692.791 145.889 692.791 149.685 L692.791 164.338 L688.508 164.338 L688.508 138.412 L692.791 138.412 L692.791 142.44 Q694.318 140.102 696.378 138.944 Q698.462 137.787 701.17 137.787 Q705.638 137.787 707.929 140.565 Q710.221 143.319 710.221 148.689 Z" fill="#000000" fill-rule="nonzero" fill-opacity="1" /><polyline clip-path="url(#clip750)" style="stroke:#e26f46; stroke-linecap:round; stroke-linejoin:round; stroke-width:4; stroke-opacity:1; fill:none" points="317.754,198.898 459.731,198.898 "/>
<path clip-path="url(#clip750)" d="M483.393 181.618 L505.245 181.618 L505.245 185.553 L488.069 185.553 L488.069 195.784 L504.528 195.784 L504.528 199.719 L488.069 199.719 L488.069 212.242 L505.662 212.242 L505.662 216.178 L483.393 216.178 L483.393 181.618 Z" fill="#000000" fill-rule="nonzero" fill-opacity="1" /><path clip-path="url(#clip750)" d="M534.713 190.252 L525.338 202.867 L535.199 216.178 L530.176 216.178 L522.629 205.992 L515.083 216.178 L510.06 216.178 L520.129 202.613 L510.916 190.252 L515.94 190.252 L522.815 199.488 L529.69 190.252 L534.713 190.252 Z" fill="#000000" fill-rule="nonzero" fill-opacity="1" /><path clip-path="url(#clip750)" d="M553 203.145 Q547.838 203.145 545.847 204.326 Q543.856 205.506 543.856 208.354 Q543.856 210.622 545.338 211.965 Q546.842 213.284 549.412 213.284 Q552.953 213.284 555.083 210.784 Q557.236 208.261 557.236 204.094 L557.236 203.145 L553 203.145 M561.495 201.386 L561.495 216.178 L557.236 216.178 L557.236 212.242 Q555.777 214.603 553.601 215.738 Q551.426 216.849 548.277 216.849 Q544.296 216.849 541.935 214.627 Q539.597 212.381 539.597 208.631 Q539.597 204.256 542.514 202.034 Q545.453 199.812 551.263 199.812 L557.236 199.812 L557.236 199.395 Q557.236 196.455 555.291 194.858 Q553.37 193.238 549.875 193.238 Q547.652 193.238 545.546 193.77 Q543.439 194.303 541.495 195.367 L541.495 191.432 Q543.833 190.53 546.032 190.09 Q548.231 189.627 550.314 189.627 Q555.939 189.627 558.717 192.543 Q561.495 195.46 561.495 201.386 Z" fill="#000000" fill-rule="nonzero" fill-opacity="1" /><path clip-path="url(#clip750)" d="M588.925 191.247 L588.925 195.229 Q587.12 194.233 585.291 193.747 Q583.486 193.238 581.634 193.238 Q577.49 193.238 575.199 195.877 Q572.907 198.492 572.907 203.238 Q572.907 207.983 575.199 210.622 Q577.49 213.238 581.634 213.238 Q583.486 213.238 585.291 212.752 Q587.12 212.242 588.925 211.247 L588.925 215.182 Q587.143 216.016 585.222 216.432 Q583.323 216.849 581.171 216.849 Q575.314 216.849 571.865 213.168 Q568.416 209.488 568.416 203.238 Q568.416 196.895 571.888 193.261 Q575.384 189.627 581.449 189.627 Q583.416 189.627 585.291 190.043 Q587.166 190.437 588.925 191.247 Z" fill="#000000" fill-rule="nonzero" fill-opacity="1" /><path clip-path="url(#clip750)" d="M600.546 182.891 L600.546 190.252 L609.319 190.252 L609.319 193.562 L600.546 193.562 L600.546 207.636 Q600.546 210.807 601.402 211.71 Q602.282 212.613 604.944 212.613 L609.319 212.613 L609.319 216.178 L604.944 216.178 Q600.013 216.178 598.138 214.349 Q596.263 212.497 596.263 207.636 L596.263 193.562 L593.138 193.562 L593.138 190.252 L596.263 190.252 L596.263 182.891 L600.546 182.891 Z" fill="#000000" fill-rule="nonzero" fill-opacity="1" /></svg>
