<?xml version="1.0" encoding="utf-8"?>
<svg xmlns="http://www.w3.org/2000/svg" xmlns:xlink="http://www.w3.org/1999/xlink" width="600" height="400" viewBox="0 0 2400 1600">
<defs>
  <clipPath id="clip840">
    <rect x="0" y="0" width="2400" height="1600"/>
  </clipPath>
</defs>
<path clip-path="url(#clip840)" d="M0 1600 L2400 1600 L2400 0 L0 0  Z" fill="#ffffff" fill-rule="evenodd" fill-opacity="1"/>
<defs>
  <clipPath id="clip841">
    <rect x="480" y="0" width="1681" height="1600"/>
  </clipPath>
</defs>
<path clip-path="url(#clip840)" d="M156.274 1486.45 L2352.76 1486.45 L2352.76 47.2441 L156.274 47.2441  Z" fill="#ffffff" fill-rule="evenodd" fill-opacity="1"/>
<defs>
  <clipPath id="clip842">
    <rect x="156" y="47" width="2197" height="1440"/>
  </clipPath>
</defs>
<polyline clip-path="url(#clip842)" style="stroke:#000000; stroke-linecap:round; stroke-linejoin:round; stroke-width:2; stroke-opacity:0.1; fill:none" points="218.439,1486.45 218.439,47.2441 "/>
<polyline clip-path="url(#clip842)" style="stroke:#000000; stroke-linecap:round; stroke-linejoin:round; stroke-width:2; stroke-opacity:0.1; fill:none" points="736.477,1486.45 736.477,47.2441 "/>
<polyline clip-path="url(#clip842)" style="stroke:#000000; stroke-linecap:round; stroke-linejoin:round; stroke-width:2; stroke-opacity:0.1; fill:none" points="1254.52,1486.45 1254.52,47.2441 "/>
<polyline clip-path="url(#clip842)" style="stroke:#000000; stroke-linecap:round; stroke-linejoin:round; stroke-width:2; stroke-opacity:0.1; fill:none" points="1772.55,1486.45 1772.55,47.2441 "/>
<polyline clip-path="url(#clip842)" style="stroke:#000000; stroke-linecap:round; stroke-linejoin:round; stroke-width:2; stroke-opacity:0.1; fill:none" points="2290.59,1486.45 2290.59,47.2441 "/>
<polyline clip-path="url(#clip840)" style="stroke:#000000; stroke-linecap:round; stroke-linejoin:round; stroke-width:4; stroke-opacity:1; fill:none" points="156.274,1486.45 2352.76,1486.45 "/>
<polyline clip-path="url(#clip840)" style="stroke:#000000; stroke-linecap:round; stroke-linejoin:round; stroke-width:4; stroke-opacity:1; fill:none" points="218.439,1486.45 218.439,1467.55 "/>
<polyline clip-path="url(#clip840)" style="stroke:#000000; stroke-linecap:round; stroke-linejoin:round; stroke-width:4; stroke-opacity:1; fill:none" points="736.477,1486.45 736.477,1467.55 "/>
<polyline clip-path="url(#clip840)" style="stroke:#000000; stroke-linecap:round; stroke-linejoin:round; stroke-width:4; stroke-opacity:1; fill:none" points="1254.52,1486.45 1254.52,1467.55 "/>
<polyline clip-path="url(#clip840)" style="stroke:#000000; stroke-linecap:round; stroke-linejoin:round; stroke-width:4; stroke-opacity:1; fill:none" points="1772.55,1486.45 1772.55,1467.55 "/>
<polyline clip-path="url(#clip840)" style="stroke:#000000; stroke-linecap:round; stroke-linejoin:round; stroke-width:4; stroke-opacity:1; fill:none" points="2290.59,1486.45 2290.59,1467.55 "/>
<path clip-path="url(#clip840)" d="M164.967 1532.02 L194.643 1532.02 L194.643 1535.95 L164.967 1535.95 L164.967 1532.02 Z" fill="#000000" fill-rule="nonzero" fill-opacity="1" /><path clip-path="url(#clip840)" d="M205.545 1544.91 L213.184 1544.91 L213.184 1518.55 L204.874 1520.21 L204.874 1515.95 L213.138 1514.29 L217.814 1514.29 L217.814 1544.91 L225.453 1544.91 L225.453 1548.85 L205.545 1548.85 L205.545 1544.91 Z" fill="#000000" fill-rule="nonzero" fill-opacity="1" /><path clip-path="url(#clip840)" d="M234.897 1542.97 L239.781 1542.97 L239.781 1548.85 L234.897 1548.85 L234.897 1542.97 Z" fill="#000000" fill-rule="nonzero" fill-opacity="1" /><path clip-path="url(#clip840)" d="M259.966 1517.37 Q256.355 1517.37 254.527 1520.93 Q252.721 1524.47 252.721 1531.6 Q252.721 1538.71 254.527 1542.27 Q256.355 1545.82 259.966 1545.82 Q263.601 1545.82 265.406 1542.27 Q267.235 1538.71 267.235 1531.6 Q267.235 1524.47 265.406 1520.93 Q263.601 1517.37 259.966 1517.37 M259.966 1513.66 Q265.776 1513.66 268.832 1518.27 Q271.911 1522.85 271.911 1531.6 Q271.911 1540.33 268.832 1544.94 Q265.776 1549.52 259.966 1549.52 Q254.156 1549.52 251.077 1544.94 Q248.022 1540.33 248.022 1531.6 Q248.022 1522.85 251.077 1518.27 Q254.156 1513.66 259.966 1513.66 Z" fill="#000000" fill-rule="nonzero" fill-opacity="1" /><path clip-path="url(#clip840)" d="M683.503 1532.02 L713.178 1532.02 L713.178 1535.95 L683.503 1535.95 L683.503 1532.02 Z" fill="#000000" fill-rule="nonzero" fill-opacity="1" /><path clip-path="url(#clip840)" d="M733.271 1517.37 Q729.66 1517.37 727.831 1520.93 Q726.026 1524.47 726.026 1531.6 Q726.026 1538.71 727.831 1542.27 Q729.66 1545.82 733.271 1545.82 Q736.905 1545.82 738.711 1542.27 Q740.539 1538.71 740.539 1531.6 Q740.539 1524.47 738.711 1520.93 Q736.905 1517.37 733.271 1517.37 M733.271 1513.66 Q739.081 1513.66 742.137 1518.27 Q745.215 1522.85 745.215 1531.6 Q745.215 1540.33 742.137 1544.94 Q739.081 1549.52 733.271 1549.52 Q727.461 1549.52 724.382 1544.94 Q721.327 1540.33 721.327 1531.6 Q721.327 1522.85 724.382 1518.27 Q727.461 1513.66 733.271 1513.66 Z" fill="#000000" fill-rule="nonzero" fill-opacity="1" /><path clip-path="url(#clip840)" d="M753.433 1542.97 L758.317 1542.97 L758.317 1548.85 L753.433 1548.85 L753.433 1542.97 Z" fill="#000000" fill-rule="nonzero" fill-opacity="1" /><path clip-path="url(#clip840)" d="M768.548 1514.29 L786.905 1514.29 L786.905 1518.22 L772.831 1518.22 L772.831 1526.7 Q773.849 1526.35 774.868 1526.19 Q775.886 1526 776.905 1526 Q782.692 1526 786.072 1529.17 Q789.451 1532.34 789.451 1537.76 Q789.451 1543.34 785.979 1546.44 Q782.507 1549.52 776.187 1549.52 Q774.011 1549.52 771.743 1549.15 Q769.498 1548.78 767.09 1548.04 L767.09 1543.34 Q769.173 1544.47 771.396 1545.03 Q773.618 1545.58 776.095 1545.58 Q780.099 1545.58 782.437 1543.48 Q784.775 1541.37 784.775 1537.76 Q784.775 1534.15 782.437 1532.04 Q780.099 1529.94 776.095 1529.94 Q774.22 1529.94 772.345 1530.35 Q770.493 1530.77 768.548 1531.65 L768.548 1514.29 Z" fill="#000000" fill-rule="nonzero" fill-opacity="1" /><path clip-path="url(#clip840)" d="M1231.9 1517.37 Q1228.29 1517.37 1226.46 1520.93 Q1224.65 1524.47 1224.65 1531.6 Q1224.65 1538.71 1226.46 1542.27 Q1228.29 1545.82 1231.9 1545.82 Q1235.53 1545.82 1237.34 1542.27 Q1239.17 1538.71 1239.17 1531.6 Q1239.17 1524.47 1237.34 1520.93 Q1235.53 1517.37 1231.9 1517.37 M1231.9 1513.66 Q1237.71 1513.66 1240.77 1518.27 Q1243.84 1522.85 1243.84 1531.6 Q1243.84 1540.33 1240.77 1544.94 Q1237.71 1549.52 1231.9 1549.52 Q1226.09 1549.52 1223.01 1544.94 Q1219.96 1540.33 1219.96 1531.6 Q1219.96 1522.85 1223.01 1518.27 Q1226.09 1513.66 1231.9 1513.66 Z" fill="#000000" fill-rule="nonzero" fill-opacity="1" /><path clip-path="url(#clip840)" d="M1252.06 1542.97 L1256.95 1542.97 L1256.95 1548.85 L1252.06 1548.85 L1252.06 1542.97 Z" fill="#000000" fill-rule="nonzero" fill-opacity="1" /><path clip-path="url(#clip840)" d="M1277.13 1517.37 Q1273.52 1517.37 1271.69 1520.93 Q1269.89 1524.47 1269.89 1531.6 Q1269.89 1538.71 1271.69 1542.27 Q1273.52 1545.82 1277.13 1545.82 Q1280.76 1545.82 1282.57 1542.27 Q1284.4 1538.71 1284.4 1531.6 Q1284.4 1524.47 1282.57 1520.93 Q1280.76 1517.37 1277.13 1517.37 M1277.13 1513.66 Q1282.94 1513.66 1286 1518.27 Q1289.08 1522.85 1289.08 1531.6 Q1289.08 1540.33 1286 1544.94 Q1282.94 1549.52 1277.13 1549.52 Q1271.32 1549.52 1268.24 1544.94 Q1265.19 1540.33 1265.19 1531.6 Q1265.19 1522.85 1268.24 1518.27 Q1271.32 1513.66 1277.13 1513.66 Z" fill="#000000" fill-rule="nonzero" fill-opacity="1" /><path clip-path="url(#clip840)" d="M1750.44 1517.37 Q1746.82 1517.37 1745 1520.93 Q1743.19 1524.47 1743.19 1531.6 Q1743.19 1538.71 1745 1542.27 Q1746.82 1545.82 1750.44 1545.82 Q1754.07 1545.82 1755.88 1542.27 Q1757.7 1538.71 1757.7 1531.6 Q1757.7 1524.47 1755.88 1520.93 Q1754.07 1517.37 1750.44 1517.37 M1750.44 1513.66 Q1756.25 1513.66 1759.3 1518.27 Q1762.38 1522.85 1762.38 1531.6 Q1762.38 1540.33 1759.3 1544.94 Q1756.25 1549.52 1750.44 1549.52 Q1744.63 1549.52 1741.55 1544.94 Q1738.49 1540.33 1738.49 1531.6 Q1738.49 1522.85 1741.55 1518.27 Q1744.63 1513.66 1750.44 1513.66 Z" fill="#000000" fill-rule="nonzero" fill-opacity="1" /><path clip-path="url(#clip840)" d="M1770.6 1542.97 L1775.48 1542.97 L1775.48 1548.85 L1770.6 1548.85 L1770.6 1542.97 Z" fill="#000000" fill-rule="nonzero" fill-opacity="1" /><path clip-path="url(#clip840)" d="M1785.71 1514.29 L1804.07 1514.29 L1804.07 1518.22 L1790 1518.22 L1790 1526.7 Q1791.01 1526.35 1792.03 1526.19 Q1793.05 1526 1794.07 1526 Q1799.86 1526 1803.24 1529.17 Q1806.62 1532.34 1806.62 1537.76 Q1806.62 1543.34 1803.14 1546.44 Q1799.67 1549.52 1793.35 1549.52 Q1791.18 1549.52 1788.91 1549.15 Q1786.66 1548.78 1784.25 1548.04 L1784.25 1543.34 Q1786.34 1544.47 1788.56 1545.03 Q1790.78 1545.58 1793.26 1545.58 Q1797.26 1545.58 1799.6 1543.48 Q1801.94 1541.37 1801.94 1537.76 Q1801.94 1534.15 1799.6 1532.04 Q1797.26 1529.94 1793.26 1529.94 Q1791.38 1529.94 1789.51 1530.35 Q1787.66 1530.77 1785.71 1531.65 L1785.71 1514.29 Z" fill="#000000" fill-rule="nonzero" fill-opacity="1" /><path clip-path="url(#clip840)" d="M2257.74 1544.91 L2265.38 1544.91 L2265.38 1518.55 L2257.07 1520.21 L2257.07 1515.95 L2265.34 1514.29 L2270.01 1514.29 L2270.01 1544.91 L2277.65 1544.91 L2277.65 1548.85 L2257.74 1548.85 L2257.74 1544.91 Z" fill="#000000" fill-rule="nonzero" fill-opacity="1" /><path clip-path="url(#clip840)" d="M2287.1 1542.97 L2291.98 1542.97 L2291.98 1548.85 L2287.1 1548.85 L2287.1 1542.97 Z" fill="#000000" fill-rule="nonzero" fill-opacity="1" /><path clip-path="url(#clip840)" d="M2312.17 1517.37 Q2308.55 1517.37 2306.73 1520.93 Q2304.92 1524.47 2304.92 1531.6 Q2304.92 1538.71 2306.73 1542.27 Q2308.55 1545.82 2312.17 1545.82 Q2315.8 1545.82 2317.61 1542.27 Q2319.43 1538.71 2319.43 1531.6 Q2319.43 1524.47 2317.61 1520.93 Q2315.8 1517.37 2312.17 1517.37 M2312.17 1513.66 Q2317.98 1513.66 2321.03 1518.27 Q2324.11 1522.85 2324.11 1531.6 Q2324.11 1540.33 2321.03 1544.94 Q2317.98 1549.52 2312.17 1549.52 Q2306.36 1549.52 2303.28 1544.94 Q2300.22 1540.33 2300.22 1531.6 Q2300.22 1522.85 2303.28 1518.27 Q2306.36 1513.66 2312.17 1513.66 Z" fill="#000000" fill-rule="nonzero" fill-opacity="1" /><polyline clip-path="url(#clip842)" style="stroke:#000000; stroke-linecap:round; stroke-linejoin:round; stroke-width:2; stroke-opacity:0.1; fill:none" points="156.274,1262.9 2352.76,1262.9 "/>
<polyline clip-path="url(#clip842)" style="stroke:#000000; stroke-linecap:round; stroke-linejoin:round; stroke-width:2; stroke-opacity:0.1; fill:none" points="156.274,988.635 2352.76,988.635 "/>
<polyline clip-path="url(#clip842)" style="stroke:#000000; stroke-linecap:round; stroke-linejoin:round; stroke-width:2; stroke-opacity:0.1; fill:none" points="156.274,714.373 2352.76,714.373 "/>
<polyline clip-path="url(#clip842)" style="stroke:#000000; stroke-linecap:round; stroke-linejoin:round; stroke-width:2; stroke-opacity:0.1; fill:none" points="156.274,440.111 2352.76,440.111 "/>
<polyline clip-path="url(#clip842)" style="stroke:#000000; stroke-linecap:round; stroke-linejoin:round; stroke-width:2; stroke-opacity:0.1; fill:none" points="156.274,165.85 2352.76,165.85 "/>
<polyline clip-path="url(#clip840)" style="stroke:#000000; stroke-linecap:round; stroke-linejoin:round; stroke-width:4; stroke-opacity:1; fill:none" points="156.274,1486.45 156.274,47.2441 "/>
<polyline clip-path="url(#clip840)" style="stroke:#000000; stroke-linecap:round; stroke-linejoin:round; stroke-width:4; stroke-opacity:1; fill:none" points="156.274,1262.9 175.172,1262.9 "/>
<polyline clip-path="url(#clip840)" style="stroke:#000000; stroke-linecap:round; stroke-linejoin:round; stroke-width:4; stroke-opacity:1; fill:none" points="156.274,988.635 175.172,988.635 "/>
<polyline clip-path="url(#clip840)" style="stroke:#000000; stroke-linecap:round; stroke-linejoin:round; stroke-width:4; stroke-opacity:1; fill:none" points="156.274,714.373 175.172,714.373 "/>
<polyline clip-path="url(#clip840)" style="stroke:#000000; stroke-linecap:round; stroke-linejoin:round; stroke-width:4; stroke-opacity:1; fill:none" points="156.274,440.111 175.172,440.111 "/>
<polyline clip-path="url(#clip840)" style="stroke:#000000; stroke-linecap:round; stroke-linejoin:round; stroke-width:4; stroke-opacity:1; fill:none" points="156.274,165.85 175.172,165.85 "/>
<path clip-path="url(#clip840)" d="M63.0985 1248.69 Q59.4875 1248.69 57.6588 1252.26 Q55.8532 1255.8 55.8532 1262.93 Q55.8532 1270.04 57.6588 1273.6 Q59.4875 1277.14 63.0985 1277.14 Q66.7328 1277.14 68.5383 1273.6 Q70.367 1270.04 70.367 1262.93 Q70.367 1255.8 68.5383 1252.26 Q66.7328 1248.69 63.0985 1248.69 M63.0985 1244.99 Q68.9087 1244.99 71.9642 1249.6 Q75.0429 1254.18 75.0429 1262.93 Q75.0429 1271.66 71.9642 1276.26 Q68.9087 1280.85 63.0985 1280.85 Q57.2884 1280.85 54.2097 1276.26 Q51.1542 1271.66 51.1542 1262.93 Q51.1542 1254.18 54.2097 1249.6 Q57.2884 1244.99 63.0985 1244.99 Z" fill="#000000" fill-rule="nonzero" fill-opacity="1" /><path clip-path="url(#clip840)" d="M83.2605 1274.3 L88.1447 1274.3 L88.1447 1280.18 L83.2605 1280.18 L83.2605 1274.3 Z" fill="#000000" fill-rule="nonzero" fill-opacity="1" /><path clip-path="url(#clip840)" d="M108.33 1248.69 Q104.719 1248.69 102.89 1252.26 Q101.084 1255.8 101.084 1262.93 Q101.084 1270.04 102.89 1273.6 Q104.719 1277.14 108.33 1277.14 Q111.964 1277.14 113.77 1273.6 Q115.598 1270.04 115.598 1262.93 Q115.598 1255.8 113.77 1252.26 Q111.964 1248.69 108.33 1248.69 M108.33 1244.99 Q114.14 1244.99 117.195 1249.6 Q120.274 1254.18 120.274 1262.93 Q120.274 1271.66 117.195 1276.26 Q114.14 1280.85 108.33 1280.85 Q102.52 1280.85 99.4409 1276.26 Q96.3854 1271.66 96.3854 1262.93 Q96.3854 1254.18 99.4409 1249.6 Q102.52 1244.99 108.33 1244.99 Z" fill="#000000" fill-rule="nonzero" fill-opacity="1" /><path clip-path="url(#clip840)" d="M63.7467 974.433 Q60.1356 974.433 58.3069 977.998 Q56.5014 981.54 56.5014 988.669 Q56.5014 995.776 58.3069 999.34 Q60.1356 1002.88 63.7467 1002.88 Q67.3809 1002.88 69.1865 999.34 Q71.0152 995.776 71.0152 988.669 Q71.0152 981.54 69.1865 977.998 Q67.3809 974.433 63.7467 974.433 M63.7467 970.73 Q69.5568 970.73 72.6124 975.336 Q75.6911 979.919 75.6911 988.669 Q75.6911 997.396 72.6124 1002 Q69.5568 1006.59 63.7467 1006.59 Q57.9365 1006.59 54.8578 1002 Q51.8023 997.396 51.8023 988.669 Q51.8023 979.919 54.8578 975.336 Q57.9365 970.73 63.7467 970.73 Z" fill="#000000" fill-rule="nonzero" fill-opacity="1" /><path clip-path="url(#clip840)" d="M83.9086 1000.03 L88.7928 1000.03 L88.7928 1005.91 L83.9086 1005.91 L83.9086 1000.03 Z" fill="#000000" fill-rule="nonzero" fill-opacity="1" /><path clip-path="url(#clip840)" d="M113.145 987.28 Q116.501 987.998 118.376 990.266 Q120.274 992.535 120.274 995.868 Q120.274 1000.98 116.756 1003.78 Q113.237 1006.59 106.756 1006.59 Q104.58 1006.59 102.265 1006.15 Q99.9733 1005.73 97.5197 1004.87 L97.5197 1000.36 Q99.4641 1001.49 101.779 1002.07 Q104.094 1002.65 106.617 1002.65 Q111.015 1002.65 113.307 1000.91 Q115.621 999.178 115.621 995.868 Q115.621 992.813 113.469 991.1 Q111.339 989.364 107.52 989.364 L103.492 989.364 L103.492 985.521 L107.705 985.521 Q111.154 985.521 112.983 984.155 Q114.811 982.767 114.811 980.174 Q114.811 977.512 112.913 976.1 Q111.038 974.665 107.52 974.665 Q105.598 974.665 103.399 975.081 Q101.2 975.498 98.5613 976.378 L98.5613 972.211 Q101.223 971.47 103.538 971.1 Q105.876 970.73 107.936 970.73 Q113.26 970.73 116.362 973.16 Q119.464 975.567 119.464 979.688 Q119.464 982.558 117.82 984.549 Q116.177 986.516 113.145 987.28 Z" fill="#000000" fill-rule="nonzero" fill-opacity="1" /><path clip-path="url(#clip840)" d="M62.9365 700.172 Q59.3254 700.172 57.4967 703.736 Q55.6912 707.278 55.6912 714.408 Q55.6912 721.514 57.4967 725.079 Q59.3254 728.62 62.9365 728.62 Q66.5707 728.62 68.3763 725.079 Q70.205 721.514 70.205 714.408 Q70.205 707.278 68.3763 703.736 Q66.5707 700.172 62.9365 700.172 M62.9365 696.468 Q68.7467 696.468 71.8022 701.074 Q74.8809 705.658 74.8809 714.408 Q74.8809 723.134 71.8022 727.741 Q68.7467 732.324 62.9365 732.324 Q57.1264 732.324 54.0477 727.741 Q50.9921 723.134 50.9921 714.408 Q50.9921 705.658 54.0477 701.074 Q57.1264 696.468 62.9365 696.468 Z" fill="#000000" fill-rule="nonzero" fill-opacity="1" /><path clip-path="url(#clip840)" d="M83.0984 725.773 L87.9827 725.773 L87.9827 731.653 L83.0984 731.653 L83.0984 725.773 Z" fill="#000000" fill-rule="nonzero" fill-opacity="1" /><path clip-path="url(#clip840)" d="M108.746 712.509 Q105.598 712.509 103.746 714.662 Q101.918 716.815 101.918 720.565 Q101.918 724.292 103.746 726.468 Q105.598 728.62 108.746 728.62 Q111.895 728.62 113.723 726.468 Q115.575 724.292 115.575 720.565 Q115.575 716.815 113.723 714.662 Q111.895 712.509 108.746 712.509 M118.029 697.857 L118.029 702.116 Q116.27 701.283 114.464 700.843 Q112.682 700.403 110.922 700.403 Q106.293 700.403 103.839 703.528 Q101.409 706.653 101.061 712.972 Q102.427 710.959 104.487 709.894 Q106.547 708.806 109.024 708.806 Q114.233 708.806 117.242 711.977 Q120.274 715.125 120.274 720.565 Q120.274 725.889 117.126 729.107 Q113.978 732.324 108.746 732.324 Q102.751 732.324 99.5798 727.741 Q96.4085 723.134 96.4085 714.408 Q96.4085 706.213 100.297 701.352 Q104.186 696.468 110.737 696.468 Q112.496 696.468 114.279 696.815 Q116.084 697.162 118.029 697.857 Z" fill="#000000" fill-rule="nonzero" fill-opacity="1" /><path clip-path="url(#clip840)" d="M63.2837 425.91 Q59.6726 425.91 57.8439 429.475 Q56.0384 433.016 56.0384 440.146 Q56.0384 447.252 57.8439 450.817 Q59.6726 454.359 63.2837 454.359 Q66.918 454.359 68.7235 450.817 Q70.5522 447.252 70.5522 440.146 Q70.5522 433.016 68.7235 429.475 Q66.918 425.91 63.2837 425.91 M63.2837 422.206 Q69.0939 422.206 72.1494 426.813 Q75.2281 431.396 75.2281 440.146 Q75.2281 448.873 72.1494 453.479 Q69.0939 458.063 63.2837 458.063 Q57.4736 458.063 54.3949 453.479 Q51.3393 448.873 51.3393 440.146 Q51.3393 431.396 54.3949 426.813 Q57.4736 422.206 63.2837 422.206 Z" fill="#000000" fill-rule="nonzero" fill-opacity="1" /><path clip-path="url(#clip840)" d="M83.4457 451.512 L88.3299 451.512 L88.3299 457.391 L83.4457 457.391 L83.4457 451.512 Z" fill="#000000" fill-rule="nonzero" fill-opacity="1" /><path clip-path="url(#clip840)" d="M98.6539 456.674 L98.6539 452.414 Q100.413 453.248 102.219 453.688 Q104.024 454.127 105.76 454.127 Q110.39 454.127 112.82 451.026 Q115.274 447.901 115.621 441.558 Q114.279 443.549 112.219 444.614 Q110.158 445.678 107.658 445.678 Q102.473 445.678 99.4409 442.553 Q96.4317 439.405 96.4317 433.965 Q96.4317 428.641 99.5798 425.424 Q102.728 422.206 107.959 422.206 Q113.955 422.206 117.103 426.813 Q120.274 431.396 120.274 440.146 Q120.274 448.317 116.385 453.201 Q112.52 458.063 105.969 458.063 Q104.209 458.063 102.404 457.715 Q100.598 457.368 98.6539 456.674 M107.959 442.021 Q111.108 442.021 112.936 439.868 Q114.788 437.715 114.788 433.965 Q114.788 430.239 112.936 428.086 Q111.108 425.91 107.959 425.91 Q104.811 425.91 102.959 428.086 Q101.131 430.239 101.131 433.965 Q101.131 437.715 102.959 439.868 Q104.811 442.021 107.959 442.021 Z" fill="#000000" fill-rule="nonzero" fill-opacity="1" /><path clip-path="url(#clip840)" d="M55.506 179.194 L63.1448 179.194 L63.1448 152.829 L54.8347 154.495 L54.8347 150.236 L63.0985 148.57 L67.7744 148.57 L67.7744 179.194 L75.4133 179.194 L75.4133 183.13 L55.506 183.13 L55.506 179.194 Z" fill="#000000" fill-rule="nonzero" fill-opacity="1" /><path clip-path="url(#clip840)" d="M84.8577 177.25 L89.7419 177.25 L89.7419 183.13 L84.8577 183.13 L84.8577 177.25 Z" fill="#000000" fill-rule="nonzero" fill-opacity="1" /><path clip-path="url(#clip840)" d="M103.955 179.194 L120.274 179.194 L120.274 183.13 L98.3298 183.13 L98.3298 179.194 Q100.992 176.44 105.575 171.81 Q110.182 167.157 111.362 165.815 Q113.608 163.292 114.487 161.556 Q115.39 159.796 115.39 158.107 Q115.39 155.352 113.445 153.616 Q111.524 151.88 108.422 151.88 Q106.223 151.88 103.77 152.644 Q101.339 153.408 98.5613 154.958 L98.5613 150.236 Q101.385 149.102 103.839 148.523 Q106.293 147.945 108.33 147.945 Q113.7 147.945 116.895 150.63 Q120.089 153.315 120.089 157.806 Q120.089 159.935 119.279 161.857 Q118.492 163.755 116.385 166.347 Q115.807 167.019 112.705 170.236 Q109.603 173.431 103.955 179.194 Z" fill="#000000" fill-rule="nonzero" fill-opacity="1" /><polyline clip-path="url(#clip842)" style="stroke:#009af9; stroke-linecap:round; stroke-linejoin:round; stroke-width:16; stroke-opacity:1; fill:none" stroke-dasharray="8, 16" points="218.439,1122.53 228.852,1110.14 239.264,1096.95 249.677,1085.38 260.09,1078.58 270.503,1079.2 280.916,1088.06 291.329,1104 301.741,1125.18 312.154,1150.17 322.567,1178.12 332.98,1208.18 343.393,1239.3 353.805,1270.73 364.218,1302.59 374.631,1335.22 385.044,1367.43 395.457,1396.15 405.87,1418.3 416.282,1432.9 426.695,1441.09 437.108,1444.45 447.521,1443.36 457.934,1436.94 468.347,1424.22 478.759,1405.25 489.172,1381.27 499.585,1353.93 509.998,1324.53 520.411,1293.78 530.824,1261.99 541.236,1229.41 551.649,1196.66 562.062,1164.95 572.475,1136.31 582.888,1113.35 593.301,1098.3 603.713,1091.1 614.126,1088.39 624.539,1086.64 634.952,1087.17 645.365,1094.98 655.777,1111.71 666.19,1134.14 676.603,1158.71 687.016,1184.34 697.429,1212.09 707.842,1243.46 718.254,1278.36 728.667,1314.26 739.08,1347.49 749.493,1375.55 759.906,1398.08 770.319,1416.03 780.731,1430.1 791.144,1439.95 801.557,1444.38 811.97,1442.23 822.383,1433.21 832.796,1418.27 843.208,1399.09 853.621,1377.32 864.034,1353.64 874.447,1326.96 884.86,1294.5 895.273,1255.05 905.685,1214.58 916.098,1182.21 926.511,1158.4 936.924,1136.56 947.337,1110.91 957.749,1082.91 968.162,1067.55 978.575,1078.29 988.988,1108.98 999.401,1141.42 1009.81,1153.2 1020.23,1126.39 1030.64,1077.11 1041.05,1076.34 1051.46,1149.01 1061.88,1220.67 1072.29,1254.91 1082.7,1273.32 1093.12,1303.1 1103.53,1347.44 1113.94,1391.82 1124.35,1423.65 1134.77,1441.26 1145.18,1444.3 1155.59,1417.54 1166.01,1373.13 1176.42,1384.34 1186.83,1419.64 1197.24,1429.84 1207.66,1426.01 1218.07,1417.51 1228.48,1373.9 1238.9,1254.64 1249.31,1062.72 1259.72,804.059 1270.13,481.183 1280.55,279.253 1290.96,247.361 1301.37,270.466 1311.79,324.543 1322.2,390.797 1332.61,429.354 1343.02,429.588 1353.44,371.727 1363.85,310.895 1374.26,299.166 1384.68,327.512 1395.09,352.196 1405.5,335.38 1415.91,313.293 1426.33,321.149 1436.74,359.261 1447.15,399.993 1457.57,407.24 1467.98,372.063 1478.39,321.615 1488.8,288.168 1499.22,280.378 1509.63,296.853 1520.04,328.603 1530.45,365.538 1540.87,400.407 1551.28,424.892 1561.69,428.725 1572.11,404.539 1582.52,357.025 1592.93,307.02 1603.34,272.164 1613.76,255.904 1624.17,262.113 1634.58,294.212 1645,344.621 1655.41,397.854 1665.82,439.209 1676.23,457.322 1686.65,444.987 1697.06,402.482 1707.47,339.742 1717.89,274.302 1728.3,227.459 1738.71,217.872 1749.12,250.552 1759.54,312.257 1769.95,381.353 1780.36,438.748 1790.78,471.218 1801.19,471.524 1811.6,439.205 1822.01,381.736 1832.43,313.383 1842.84,250.653 1853.25,209.059 1863.67,201.891 1874.08,235.826 1884.49,306.461 1894.9,396.578 1905.32,480.162 1915.73,532.384 1926.14,535.737 1936.56,481.358 1946.97,372.727 1957.38,234.505 1967.79,118.796 1978.21,87.9763 1988.62,159.626 1999.03,285.611 2009.45,408.501 2019.86,498.784 2030.27,547.601 2040.68,553.57 2051.1,516.842 2061.51,438.795 2071.92,326.256 2082.33,200.922 2092.75,108.028 2103.16,95.7131 2113.57,170.041 2123.99,297.275 2134.4,434.027 2144.81,543.021 2155.22,594.238 2165.64,574.575 2176.05,492.129 2186.46,366.499 2196.88,234.232 2207.29,148.959 2217.7,138.995 2228.11,185.771 2238.53,259.127 2248.94,339.162 2259.35,414.4 2269.77,478.734 2280.18,531.089 2290.59,573.935 "/>
<polyline clip-path="url(#clip842)" style="stroke:#e26f46; stroke-linecap:round; stroke-linejoin:round; stroke-width:4; stroke-opacity:1; fill:none" points="218.439,1125.58 228.852,1106.1 239.264,1091.74 249.677,1082.96 260.09,1080.06 270.503,1083.12 280.916,1092.05 291.329,1106.55 301.741,1126.16 312.154,1150.23 322.567,1177.98 332.98,1208.5 343.393,1240.79 353.805,1273.81 364.218,1306.47 374.631,1337.71 385.044,1366.5 395.457,1391.92 405.87,1413.12 416.282,1429.42 426.695,1440.29 437.108,1445.36 447.521,1444.49 457.934,1437.68 468.347,1425.17 478.759,1407.36 489.172,1384.84 499.585,1358.34 509.998,1328.72 520.411,1296.96 530.824,1264.08 541.236,1231.17 551.649,1199.29 562.062,1169.48 572.475,1142.73 582.888,1119.9 593.301,1101.73 603.713,1088.82 614.126,1081.6 624.539,1080.29 634.952,1084.94 645.365,1095.4 655.777,1111.33 666.19,1132.2 676.603,1157.34 687.016,1185.92 697.429,1217.02 707.842,1249.61 718.254,1282.64 728.667,1315.02 739.08,1345.7 749.493,1373.68 759.906,1398.04 770.319,1418 780.731,1432.89 791.144,1442.23 801.557,1445.72 811.97,1443.24 822.383,1434.87 832.796,1420.9 843.208,1401.76 853.621,1378.1 864.034,1350.67 874.447,1320.38 884.86,1288.22 895.273,1255.22 905.685,1222.48 916.098,1191.06 926.511,1161.98 936.924,1136.19 947.337,1114.54 957.749,1097.74 968.162,1086.32 978.575,1080.66 988.988,1080.96 999.401,1087.19 1009.81,1099.15 1020.23,1116.46 1030.64,1138.55 1041.05,1164.7 1051.46,1194.05 1061.88,1225.65 1072.29,1258.47 1082.7,1291.42 1093.12,1323.45 1103.53,1353.5 1113.94,1380.6 1124.35,1403.85 1134.77,1422.5 1145.18,1435.95 1155.59,1443.74 1166.01,1445.64 1176.42,1441.57 1186.83,1431.66 1197.24,1416.25 1207.66,1395.84 1218.07,1371.08 1228.48,1342.8 1238.9,1311.9 1249.31,1279.41 1259.72,347.363 1270.13,345.852 1280.55,347.227 1290.96,351.805 1301.37,358.183 1311.79,363.665 1322.2,365.289 1332.61,361.07 1343.02,351.014 1353.44,337.457 1363.85,324.556 1374.26,317.02 1384.68,318.466 1395.09,329.964 1405.5,349.305 1415.91,371.316 1426.33,389.24 1436.74,396.8 1447.15,390.328 1457.57,370.247 1467.98,341.363 1478.39,311.761 1488.8,290.546 1499.22,285.049 1509.63,298.373 1520.04,328.055 1530.45,366.39 1540.87,402.4 1551.28,424.985 1561.69,426.322 1572.11,404.503 1582.52,364.515 1592.93,317.181 1603.34,276.236 1613.76,254.348 1624.17,259.215 1634.58,290.947 1645,341.606 1655.41,397.141 1665.82,441.285 1676.23,460.318 1686.65,447.303 1697.06,404.506 1707.47,343.165 1717.89,280.569 1728.3,235.182 1738.71,221.203 1749.12,244.156 1759.54,298.865 1769.95,370.534 1780.36,438.736 1790.78,483.233 1801.19,489.973 1811.6,455.495 1822.01,388.361 1832.43,307.08 1842.84,235.017 1853.25,193.676 1863.67,196.29 1874.08,243.63 1884.49,323.349 1894.9,413.165 1905.32,487.085 1915.73,522.929 1926.14,508.971 1936.56,447.72 1946.97,355.63 1957.38,258.7 1967.79,185.139 1978.21,157.157 1988.62,184.274 1999.03,260.158 2009.45,364.028 2019.86,466.329 2030.27,537.142 2040.68,554.928 2051.1,513.065 2061.51,422.181 2071.92,307.504 2082.33,201.868 2092.75,136.312 2103.16,130.965 2113.57,188.888 2123.99,294.761 2134.4,418.901 2144.81,525.578 2155.22,583.303 2165.64,574.112 2176.05,499.128 2186.46,378.67 2196.88,246.77 2207.29,141.562 2217.7,94.2536 2228.11,119.882 2238.53,212.576 2248.94,346.813 2259.35,484.437 2269.77,585.5 2280.18,619.854 2290.59,576.139 "/>
<path clip-path="url(#clip840)" d="M229.49 250.738 L675.966 250.738 L675.966 95.2176 L229.49 95.2176  Z" fill="#ffffff" fill-rule="evenodd" fill-opacity="1"/>
<polyline clip-path="url(#clip840)" style="stroke:#000000; stroke-linecap:round; stroke-linejoin:round; stroke-width:4; stroke-opacity:1; fill:none" points="229.49,250.738 675.966,250.738 675.966,95.2176 229.49,95.2176 229.49,250.738 "/>
<polyline clip-path="url(#clip840)" style="stroke:#009af9; stroke-linecap:round; stroke-linejoin:round; stroke-width:16; stroke-opacity:1; fill:none" stroke-dasharray="8, 16" points="253.896,147.058 400.328,147.058 "/>
<path clip-path="url(#clip840)" d="M429.409 133.62 L429.409 146.606 L435.289 146.606 Q438.552 146.606 440.335 144.916 Q442.117 143.227 442.117 140.102 Q442.117 137 440.335 135.31 Q438.552 133.62 435.289 133.62 L429.409 133.62 M424.733 129.778 L435.289 129.778 Q441.099 129.778 444.062 132.416 Q447.048 135.032 447.048 140.102 Q447.048 145.217 444.062 147.833 Q441.099 150.449 435.289 150.449 L429.409 150.449 L429.409 164.338 L424.733 164.338 L424.733 129.778 Z" fill="#000000" fill-rule="nonzero" fill-opacity="1" /><path clip-path="url(#clip840)" d="M467.325 142.393 Q466.608 141.977 465.751 141.791 Q464.918 141.583 463.899 141.583 Q460.288 141.583 458.344 143.944 Q456.423 146.282 456.423 150.68 L456.423 164.338 L452.14 164.338 L452.14 138.412 L456.423 138.412 L456.423 142.44 Q457.765 140.078 459.918 138.944 Q462.071 137.787 465.149 137.787 Q465.589 137.787 466.122 137.856 Q466.654 137.903 467.302 138.018 L467.325 142.393 Z" fill="#000000" fill-rule="nonzero" fill-opacity="1" /><path clip-path="url(#clip840)" d="M492.927 150.31 L492.927 152.393 L473.344 152.393 Q473.622 156.791 475.983 159.106 Q478.367 161.398 482.603 161.398 Q485.057 161.398 487.348 160.796 Q489.663 160.194 491.932 158.99 L491.932 163.018 Q489.64 163.99 487.233 164.5 Q484.825 165.009 482.348 165.009 Q476.145 165.009 472.511 161.398 Q468.899 157.787 468.899 151.629 Q468.899 145.264 472.325 141.537 Q475.774 137.787 481.608 137.787 Q486.839 137.787 489.872 141.166 Q492.927 144.523 492.927 150.31 M488.668 149.06 Q488.622 145.565 486.7 143.481 Q484.802 141.398 481.654 141.398 Q478.089 141.398 475.936 143.412 Q473.807 145.426 473.483 149.083 L488.668 149.06 Z" fill="#000000" fill-rule="nonzero" fill-opacity="1" /><path clip-path="url(#clip840)" d="M516.978 142.347 L516.978 128.319 L521.237 128.319 L521.237 164.338 L516.978 164.338 L516.978 160.449 Q515.635 162.763 513.575 163.898 Q511.538 165.009 508.668 165.009 Q503.969 165.009 501.006 161.259 Q498.066 157.509 498.066 151.398 Q498.066 145.287 501.006 141.537 Q503.969 137.787 508.668 137.787 Q511.538 137.787 513.575 138.921 Q515.635 140.032 516.978 142.347 M502.464 151.398 Q502.464 156.097 504.385 158.782 Q506.33 161.444 509.709 161.444 Q513.089 161.444 515.033 158.782 Q516.978 156.097 516.978 151.398 Q516.978 146.699 515.033 144.037 Q513.089 141.352 509.709 141.352 Q506.33 141.352 504.385 144.037 Q502.464 146.699 502.464 151.398 Z" fill="#000000" fill-rule="nonzero" fill-opacity="1" /><path clip-path="url(#clip840)" d="M530.01 138.412 L534.269 138.412 L534.269 164.338 L530.01 164.338 L530.01 138.412 M530.01 128.319 L534.269 128.319 L534.269 133.713 L530.01 133.713 L530.01 128.319 Z" fill="#000000" fill-rule="nonzero" fill-opacity="1" /><path clip-path="url(#clip840)" d="M561.839 139.407 L561.839 143.389 Q560.033 142.393 558.205 141.907 Q556.399 141.398 554.547 141.398 Q550.404 141.398 548.112 144.037 Q545.82 146.652 545.82 151.398 Q545.82 156.143 548.112 158.782 Q550.404 161.398 554.547 161.398 Q556.399 161.398 558.205 160.912 Q560.033 160.402 561.839 159.407 L561.839 163.342 Q560.056 164.176 558.135 164.592 Q556.237 165.009 554.084 165.009 Q548.228 165.009 544.779 161.328 Q541.33 157.648 541.33 151.398 Q541.33 145.055 544.802 141.421 Q548.297 137.787 554.362 137.787 Q556.33 137.787 558.205 138.203 Q560.08 138.597 561.839 139.407 Z" fill="#000000" fill-rule="nonzero" fill-opacity="1" /><path clip-path="url(#clip840)" d="M573.459 131.051 L573.459 138.412 L582.232 138.412 L582.232 141.722 L573.459 141.722 L573.459 155.796 Q573.459 158.967 574.316 159.87 Q575.195 160.773 577.857 160.773 L582.232 160.773 L582.232 164.338 L577.857 164.338 Q572.927 164.338 571.052 162.509 Q569.177 160.657 569.177 155.796 L569.177 141.722 L566.052 141.722 L566.052 138.412 L569.177 138.412 L569.177 131.051 L573.459 131.051 Z" fill="#000000" fill-rule="nonzero" fill-opacity="1" /><path clip-path="url(#clip840)" d="M587.834 138.412 L592.093 138.412 L592.093 164.338 L587.834 164.338 L587.834 138.412 M587.834 128.319 L592.093 128.319 L592.093 133.713 L587.834 133.713 L587.834 128.319 Z" fill="#000000" fill-rule="nonzero" fill-opacity="1" /><path clip-path="url(#clip840)" d="M611.051 141.398 Q607.626 141.398 605.635 144.083 Q603.644 146.745 603.644 151.398 Q603.644 156.051 605.612 158.736 Q607.602 161.398 611.051 161.398 Q614.454 161.398 616.445 158.713 Q618.436 156.027 618.436 151.398 Q618.436 146.791 616.445 144.106 Q614.454 141.398 611.051 141.398 M611.051 137.787 Q616.607 137.787 619.778 141.398 Q622.95 145.009 622.95 151.398 Q622.95 157.764 619.778 161.398 Q616.607 165.009 611.051 165.009 Q605.473 165.009 602.302 161.398 Q599.153 157.764 599.153 151.398 Q599.153 145.009 602.302 141.398 Q605.473 137.787 611.051 137.787 Z" fill="#000000" fill-rule="nonzero" fill-opacity="1" /><path clip-path="url(#clip840)" d="M651.561 148.689 L651.561 164.338 L647.301 164.338 L647.301 148.828 Q647.301 145.148 645.866 143.319 Q644.431 141.49 641.561 141.49 Q638.112 141.49 636.121 143.69 Q634.13 145.889 634.13 149.685 L634.13 164.338 L629.848 164.338 L629.848 138.412 L634.13 138.412 L634.13 142.44 Q635.658 140.102 637.718 138.944 Q639.801 137.787 642.51 137.787 Q646.977 137.787 649.269 140.565 Q651.561 143.319 651.561 148.689 Z" fill="#000000" fill-rule="nonzero" fill-opacity="1" /><polyline clip-path="url(#clip840)" style="stroke:#e26f46; stroke-linecap:round; stroke-linejoin:round; stroke-width:4; stroke-opacity:1; fill:none" points="253.896,198.898 400.328,198.898 "/>
<path clip-path="url(#clip840)" d="M424.733 181.618 L446.585 181.618 L446.585 185.553 L429.409 185.553 L429.409 195.784 L445.867 195.784 L445.867 199.719 L429.409 199.719 L429.409 212.242 L447.001 212.242 L447.001 216.178 L424.733 216.178 L424.733 181.618 Z" fill="#000000" fill-rule="nonzero" fill-opacity="1" /><path clip-path="url(#clip840)" d="M476.052 190.252 L466.677 202.867 L476.538 216.178 L471.515 216.178 L463.969 205.992 L456.423 216.178 L451.4 216.178 L461.469 202.613 L452.256 190.252 L457.279 190.252 L464.154 199.488 L471.029 190.252 L476.052 190.252 Z" fill="#000000" fill-rule="nonzero" fill-opacity="1" /><path clip-path="url(#clip840)" d="M494.339 203.145 Q489.177 203.145 487.186 204.326 Q485.196 205.506 485.196 208.354 Q485.196 210.622 486.677 211.965 Q488.182 213.284 490.751 213.284 Q494.293 213.284 496.422 210.784 Q498.575 208.261 498.575 204.094 L498.575 203.145 L494.339 203.145 M502.834 201.386 L502.834 216.178 L498.575 216.178 L498.575 212.242 Q497.117 214.603 494.941 215.738 Q492.765 216.849 489.617 216.849 Q485.635 216.849 483.274 214.627 Q480.936 212.381 480.936 208.631 Q480.936 204.256 483.853 202.034 Q486.793 199.812 492.603 199.812 L498.575 199.812 L498.575 199.395 Q498.575 196.455 496.631 194.858 Q494.71 193.238 491.214 193.238 Q488.992 193.238 486.885 193.77 Q484.779 194.303 482.835 195.367 L482.835 191.432 Q485.173 190.53 487.372 190.09 Q489.571 189.627 491.654 189.627 Q497.279 189.627 500.057 192.543 Q502.834 195.46 502.834 201.386 Z" fill="#000000" fill-rule="nonzero" fill-opacity="1" /><path clip-path="url(#clip840)" d="M530.265 191.247 L530.265 195.229 Q528.459 194.233 526.631 193.747 Q524.825 193.238 522.973 193.238 Q518.83 193.238 516.538 195.877 Q514.246 198.492 514.246 203.238 Q514.246 207.983 516.538 210.622 Q518.83 213.238 522.973 213.238 Q524.825 213.238 526.631 212.752 Q528.459 212.242 530.265 211.247 L530.265 215.182 Q528.482 216.016 526.561 216.432 Q524.663 216.849 522.51 216.849 Q516.654 216.849 513.205 213.168 Q509.756 209.488 509.756 203.238 Q509.756 196.895 513.228 193.261 Q516.723 189.627 522.788 189.627 Q524.756 189.627 526.631 190.043 Q528.506 190.437 530.265 191.247 Z" fill="#000000" fill-rule="nonzero" fill-opacity="1" /><path clip-path="url(#clip840)" d="M541.885 182.891 L541.885 190.252 L550.658 190.252 L550.658 193.562 L541.885 193.562 L541.885 207.636 Q541.885 210.807 542.742 211.71 Q543.621 212.613 546.283 212.613 L550.658 212.613 L550.658 216.178 L546.283 216.178 Q541.353 216.178 539.478 214.349 Q537.603 212.497 537.603 207.636 L537.603 193.562 L534.478 193.562 L534.478 190.252 L537.603 190.252 L537.603 182.891 L541.885 182.891 Z" fill="#000000" fill-rule="nonzero" fill-opacity="1" /></svg>
