<?xml version="1.0" encoding="utf-8"?>
<svg xmlns="http://www.w3.org/2000/svg" xmlns:xlink="http://www.w3.org/1999/xlink" width="600" height="400" viewBox="0 0 2400 1600">
<defs>
  <clipPath id="clip810">
    <rect x="0" y="0" width="2400" height="1600"/>
  </clipPath>
</defs>
<path clip-path="url(#clip810)" d="M0 1600 L2400 1600 L2400 0 L0 0  Z" fill="#ffffff" fill-rule="evenodd" fill-opacity="1"/>
<defs>
  <clipPath id="clip811">
    <rect x="480" y="0" width="1681" height="1600"/>
  </clipPath>
</defs>
<path clip-path="url(#clip810)" d="M156.274 1486.45 L2352.76 1486.45 L2352.76 47.2441 L156.274 47.2441  Z" fill="#ffffff" fill-rule="evenodd" fill-opacity="1"/>
<defs>
  <clipPath id="clip812">
    <rect x="156" y="47" width="2197" height="1440"/>
  </clipPath>
</defs>
<polyline clip-path="url(#clip812)" style="stroke:#000000; stroke-linecap:round; stroke-linejoin:round; stroke-width:2; stroke-opacity:0.1; fill:none" points="218.439,1486.45 218.439,47.2441 "/>
<polyline clip-path="url(#clip812)" style="stroke:#000000; stroke-linecap:round; stroke-linejoin:round; stroke-width:2; stroke-opacity:0.1; fill:none" points="736.477,1486.45 736.477,47.2441 "/>
<polyline clip-path="url(#clip812)" style="stroke:#000000; stroke-linecap:round; stroke-linejoin:round; stroke-width:2; stroke-opacity:0.1; fill:none" points="1254.52,1486.45 1254.52,47.2441 "/>
<polyline clip-path="url(#clip812)" style="stroke:#000000; stroke-linecap:round; stroke-linejoin:round; stroke-width:2; stroke-opacity:0.1; fill:none" points="1772.55,1486.45 1772.55,47.2441 "/>
<polyline clip-path="url(#clip812)" style="stroke:#000000; stroke-linecap:round; stroke-linejoin:round; stroke-width:2; stroke-opacity:0.1; fill:none" points="2290.59,1486.45 2290.59,47.2441 "/>
<polyline clip-path="url(#clip810)" style="stroke:#000000; stroke-linecap:round; stroke-linejoin:round; stroke-width:4; stroke-opacity:1; fill:none" points="156.274,1486.45 2352.76,1486.45 "/>
<polyline clip-path="url(#clip810)" style="stroke:#000000; stroke-linecap:round; stroke-linejoin:round; stroke-width:4; stroke-opacity:1; fill:none" points="218.439,1486.45 218.439,1467.55 "/>
<polyline clip-path="url(#clip810)" style="stroke:#000000; stroke-linecap:round; stroke-linejoin:round; stroke-width:4; stroke-opacity:1; fill:none" points="736.477,1486.45 736.477,1467.55 "/>
<polyline clip-path="url(#clip810)" style="stroke:#000000; stroke-linecap:round; stroke-linejoin:round; stroke-width:4; stroke-opacity:1; fill:none" points="1254.52,1486.45 1254.52,1467.55 "/>
<polyline clip-path="url(#clip810)" style="stroke:#000000; stroke-linecap:round; stroke-linejoin:round; stroke-width:4; stroke-opacity:1; fill:none" points="1772.55,1486.45 1772.55,1467.55 "/>
<polyline clip-path="url(#clip810)" style="stroke:#000000; stroke-linecap:round; stroke-linejoin:round; stroke-width:4; stroke-opacity:1; fill:none" points="2290.59,1486.45 2290.59,1467.55 "/>
<path clip-path="url(#clip810)" d="M164.967 1532.02 L194.643 1532.02 L194.643 1535.95 L164.967 1535.95 L164.967 1532.02 Z" fill="#000000" fill-rule="nonzero" fill-opacity="1" /><path clip-path="url(#clip810)" d="M205.545 1544.91 L213.184 1544.91 L213.184 1518.55 L204.874 1520.21 L204.874 1515.95 L213.138 1514.29 L217.814 1514.29 L217.814 1544.91 L225.453 1544.91 L225.453 1548.85 L205.545 1548.85 L205.545 1544.91 Z" fill="#000000" fill-rule="nonzero" fill-opacity="1" /><path clip-path="url(#clip810)" d="M234.897 1542.97 L239.781 1542.97 L239.781 1548.85 L234.897 1548.85 L234.897 1542.97 Z" fill="#000000" fill-rule="nonzero" fill-opacity="1" /><path clip-path="url(#clip810)" d="M259.966 1517.37 Q256.355 1517.37 254.527 1520.93 Q252.721 1524.47 252.721 1531.6 Q252.721 1538.71 254.527 1542.27 Q256.355 1545.82 259.966 1545.82 Q263.601 1545.82 265.406 1542.27 Q267.235 1538.71 267.235 1531.6 Q267.235 1524.47 265.406 1520.93 Q263.601 1517.37 259.966 1517.37 M259.966 1513.66 Q265.776 1513.66 268.832 1518.27 Q271.911 1522.85 271.911 1531.6 Q271.911 1540.33 268.832 1544.94 Q265.776 1549.52 259.966 1549.52 Q254.156 1549.52 251.077 1544.94 Q248.022 1540.33 248.022 1531.6 Q248.022 1522.85 251.077 1518.27 Q254.156 1513.66 259.966 1513.66 Z" fill="#000000" fill-rule="nonzero" fill-opacity="1" /><path clip-path="url(#clip810)" d="M683.503 1532.02 L713.178 1532.02 L713.178 1535.95 L683.503 1535.95 L683.503 1532.02 Z" fill="#000000" fill-rule="nonzero" fill-opacity="1" /><path clip-path="url(#clip810)" d="M733.271 1517.37 Q729.66 1517.37 727.831 1520.93 Q726.026 1524.47 726.026 1531.6 Q726.026 1538.71 727.831 1542.27 Q729.66 1545.82 733.271 1545.82 Q736.905 1545.82 738.711 1542.27 Q740.539 1538.71 740.539 1531.6 Q740.539 1524.47 738.711 1520.93 Q736.905 1517.37 733.271 1517.37 M733.271 1513.66 Q739.081 1513.66 742.137 1518.27 Q745.215 1522.85 745.215 1531.6 Q745.215 1540.33 742.137 1544.94 Q739.081 1549.52 733.271 1549.52 Q727.461 1549.52 724.382 1544.94 Q721.327 1540.33 721.327 1531.6 Q721.327 1522.85 724.382 1518.27 Q727.461 1513.66 733.271 1513.66 Z" fill="#000000" fill-rule="nonzero" fill-opacity="1" /><path clip-path="url(#clip810)" d="M753.433 1542.97 L758.317 1542.97 L758.317 1548.85 L753.433 1548.85 L753.433 1542.97 Z" fill="#000000" fill-rule="nonzero" fill-opacity="1" /><path clip-path="url(#clip810)" d="M768.548 1514.29 L786.905 1514.29 L786.905 1518.22 L772.831 1518.22 L772.831 1526.7 Q773.849 1526.35 774.868 1526.19 Q775.886 1526 776.905 1526 Q782.692 1526 786.072 1529.17 Q789.451 1532.34 789.451 1537.76 Q789.451 1543.34 785.979 1546.44 Q782.507 1549.52 776.187 1549.52 Q774.011 1549.52 771.743 1549.15 Q769.498 1548.78 767.09 1548.04 L767.09 1543.34 Q769.173 1544.47 771.396 1545.03 Q773.618 1545.58 776.095 1545.58 Q780.099 1545.58 782.437 1543.48 Q784.775 1541.37 784.775 1537.76 Q784.775 1534.15 782.437 1532.04 Q780.099 1529.94 776.095 1529.94 Q774.22 1529.94 772.345 1530.35 Q770.493 1530.77 768.548 1531.65 L768.548 1514.29 Z" fill="#000000" fill-rule="nonzero" fill-opacity="1" /><path clip-path="url(#clip810)" d="M1231.9 1517.37 Q1228.29 1517.37 1226.46 1520.93 Q1224.65 1524.47 1224.65 1531.6 Q1224.65 1538.71 1226.46 1542.27 Q1228.29 1545.82 1231.9 1545.82 Q1235.53 1545.82 1237.34 1542.27 Q1239.17 1538.71 1239.17 1531.6 Q1239.17 1524.47 1237.34 1520.93 Q1235.53 1517.37 1231.9 1517.37 M1231.9 1513.66 Q1237.71 1513.66 1240.77 1518.27 Q1243.84 1522.85 1243.84 1531.6 Q1243.84 1540.33 1240.77 1544.94 Q1237.71 1549.52 1231.9 1549.52 Q1226.09 1549.52 1223.01 1544.94 Q1219.96 1540.33 1219.96 1531.6 Q1219.96 1522.85 1223.01 1518.27 Q1226.09 1513.66 1231.9 1513.66 Z" fill="#000000" fill-rule="nonzero" fill-opacity="1" /><path clip-path="url(#clip810)" d="M1252.06 1542.97 L1256.95 1542.97 L1256.95 1548.85 L1252.06 1548.85 L1252.06 1542.97 Z" fill="#000000" fill-rule="nonzero" fill-opacity="1" /><path clip-path="url(#clip810)" d="M1277.13 1517.37 Q1273.52 1517.37 1271.69 1520.93 Q1269.89 1524.47 1269.89 1531.6 Q1269.89 1538.71 1271.69 1542.27 Q1273.52 1545.82 1277.13 1545.82 Q1280.76 1545.82 1282.57 1542.27 Q1284.4 1538.71 1284.4 1531.6 Q1284.4 1524.47 1282.57 1520.93 Q1280.76 1517.37 1277.13 1517.37 M1277.13 1513.66 Q1282.94 1513.66 1286 1518.27 Q1289.08 1522.85 1289.08 1531.6 Q1289.08 1540.33 1286 1544.94 Q1282.94 1549.52 1277.13 1549.52 Q1271.32 1549.52 1268.24 1544.94 Q1265.19 1540.33 1265.19 1531.6 Q1265.19 1522.85 1268.24 1518.27 Q1271.32 1513.66 1277.13 1513.66 Z" fill="#000000" fill-rule="nonzero" fill-opacity="1" /><path clip-path="url(#clip810)" d="M1750.44 1517.37 Q1746.82 1517.37 1745 1520.93 Q1743.19 1524.47 1743.19 1531.6 Q1743.19 1538.71 1745 1542.27 Q1746.82 1545.82 1750.44 1545.82 Q1754.07 1545.82 1755.88 1542.27 Q1757.7 1538.71 1757.7 1531.6 Q1757.7 1524.47 1755.88 1520.93 Q1754.07 1517.37 1750.44 1517.37 M1750.44 1513.66 Q1756.25 1513.66 1759.3 1518.27 Q1762.38 1522.85 1762.38 1531.6 Q1762.38 1540.33 1759.3 1544.94 Q1756.25 1549.52 1750.44 1549.52 Q1744.63 1549.52 1741.55 1544.94 Q1738.49 1540.33 1738.49 1531.6 Q1738.49 1522.85 1741.55 1518.27 Q1744.63 1513.66 1750.44 1513.66 Z" fill="#000000" fill-rule="nonzero" fill-opacity="1" /><path clip-path="url(#clip810)" d="M1770.6 1542.97 L1775.48 1542.97 L1775.48 1548.85 L1770.6 1548.85 L1770.6 1542.97 Z" fill="#000000" fill-rule="nonzero" fill-opacity="1" /><path clip-path="url(#clip810)" d="M1785.71 1514.29 L1804.07 1514.29 L1804.07 1518.22 L1790 1518.22 L1790 1526.7 Q1791.01 1526.35 1792.03 1526.19 Q1793.05 1526 1794.07 1526 Q1799.86 1526 1803.24 1529.17 Q1806.62 1532.34 1806.62 1537.76 Q1806.62 1543.34 1803.14 1546.44 Q1799.67 1549.52 1793.35 1549.52 Q1791.18 1549.52 1788.91 1549.15 Q1786.66 1548.78 1784.25 1548.04 L1784.25 1543.34 Q1786.34 1544.47 1788.56 1545.03 Q1790.78 1545.58 1793.26 1545.58 Q1797.26 1545.58 1799.6 1543.48 Q1801.94 1541.37 1801.94 1537.76 Q1801.94 1534.15 1799.6 1532.04 Q1797.26 1529.94 1793.26 1529.94 Q1791.38 1529.94 1789.51 1530.35 Q1787.66 1530.77 1785.71 1531.65 L1785.71 1514.29 Z" fill="#000000" fill-rule="nonzero" fill-opacity="1" /><path clip-path="url(#clip810)" d="M2257.74 1544.91 L2265.38 1544.91 L2265.38 1518.55 L2257.07 1520.21 L2257.07 1515.95 L2265.34 1514.29 L2270.01 1514.29 L2270.01 1544.91 L2277.65 1544.91 L2277.65 1548.85 L2257.74 1548.85 L2257.74 1544.91 Z" fill="#000000" fill-rule="nonzero" fill-opacity="1" /><path clip-path="url(#clip810)" d="M2287.1 1542.97 L2291.98 1542.97 L2291.98 1548.85 L2287.1 1548.85 L2287.1 1542.97 Z" fill="#000000" fill-rule="nonzero" fill-opacity="1" /><path clip-path="url(#clip810)" d="M2312.17 1517.37 Q2308.55 1517.37 2306.73 1520.93 Q2304.92 1524.47 2304.92 1531.6 Q2304.92 1538.71 2306.73 1542.27 Q2308.55 1545.82 2312.17 1545.82 Q2315.8 1545.82 2317.61 1542.27 Q2319.43 1538.71 2319.43 1531.6 Q2319.43 1524.47 2317.61 1520.93 Q2315.8 1517.37 2312.17 1517.37 M2312.17 1513.66 Q2317.98 1513.66 2321.03 1518.27 Q2324.11 1522.85 2324.11 1531.6 Q2324.11 1540.33 2321.03 1544.94 Q2317.98 1549.52 2312.17 1549.52 Q2306.36 1549.52 2303.28 1544.94 Q2300.22 1540.33 2300.22 1531.6 Q2300.22 1522.85 2303.28 1518.27 Q2306.36 1513.66 2312.17 1513.66 Z" fill="#000000" fill-rule="nonzero" fill-opacity="1" /><polyline clip-path="url(#clip812)" style="stroke:#000000; stroke-linecap:round; stroke-linejoin:round; stroke-width:2; stroke-opacity:0.1; fill:none" points="156.274,1256.27 2352.76,1256.27 "/>
<polyline clip-path="url(#clip812)" style="stroke:#000000; stroke-linecap:round; stroke-linejoin:round; stroke-width:2; stroke-opacity:0.1; fill:none" points="156.274,983.513 2352.76,983.513 "/>
<polyline clip-path="url(#clip812)" style="stroke:#000000; stroke-linecap:round; stroke-linejoin:round; stroke-width:2; stroke-opacity:0.1; fill:none" points="156.274,710.755 2352.76,710.755 "/>
<polyline clip-path="url(#clip812)" style="stroke:#000000; stroke-linecap:round; stroke-linejoin:round; stroke-width:2; stroke-opacity:0.1; fill:none" points="156.274,437.997 2352.76,437.997 "/>
<polyline clip-path="url(#clip812)" style="stroke:#000000; stroke-linecap:round; stroke-linejoin:round; stroke-width:2; stroke-opacity:0.1; fill:none" points="156.274,165.239 2352.76,165.239 "/>
<polyline clip-path="url(#clip810)" style="stroke:#000000; stroke-linecap:round; stroke-linejoin:round; stroke-width:4; stroke-opacity:1; fill:none" points="156.274,1486.45 156.274,47.2441 "/>
<polyline clip-path="url(#clip810)" style="stroke:#000000; stroke-linecap:round; stroke-linejoin:round; stroke-width:4; stroke-opacity:1; fill:none" points="156.274,1256.27 175.172,1256.27 "/>
<polyline clip-path="url(#clip810)" style="stroke:#000000; stroke-linecap:round; stroke-linejoin:round; stroke-width:4; stroke-opacity:1; fill:none" points="156.274,983.513 175.172,983.513 "/>
<polyline clip-path="url(#clip810)" style="stroke:#000000; stroke-linecap:round; stroke-linejoin:round; stroke-width:4; stroke-opacity:1; fill:none" points="156.274,710.755 175.172,710.755 "/>
<polyline clip-path="url(#clip810)" style="stroke:#000000; stroke-linecap:round; stroke-linejoin:round; stroke-width:4; stroke-opacity:1; fill:none" points="156.274,437.997 175.172,437.997 "/>
<polyline clip-path="url(#clip810)" style="stroke:#000000; stroke-linecap:round; stroke-linejoin:round; stroke-width:4; stroke-opacity:1; fill:none" points="156.274,165.239 175.172,165.239 "/>
<path clip-path="url(#clip810)" d="M63.0985 1242.07 Q59.4875 1242.07 57.6588 1245.64 Q55.8532 1249.18 55.8532 1256.31 Q55.8532 1263.41 57.6588 1266.98 Q59.4875 1270.52 63.0985 1270.52 Q66.7328 1270.52 68.5383 1266.98 Q70.367 1263.41 70.367 1256.31 Q70.367 1249.18 68.5383 1245.64 Q66.7328 1242.07 63.0985 1242.07 M63.0985 1238.37 Q68.9087 1238.37 71.9642 1242.97 Q75.0429 1247.56 75.0429 1256.31 Q75.0429 1265.03 71.9642 1269.64 Q68.9087 1274.22 63.0985 1274.22 Q57.2884 1274.22 54.2097 1269.64 Q51.1542 1265.03 51.1542 1256.31 Q51.1542 1247.56 54.2097 1242.97 Q57.2884 1238.37 63.0985 1238.37 Z" fill="#000000" fill-rule="nonzero" fill-opacity="1" /><path clip-path="url(#clip810)" d="M83.2605 1267.67 L88.1447 1267.67 L88.1447 1273.55 L83.2605 1273.55 L83.2605 1267.67 Z" fill="#000000" fill-rule="nonzero" fill-opacity="1" /><path clip-path="url(#clip810)" d="M108.33 1242.07 Q104.719 1242.07 102.89 1245.64 Q101.084 1249.18 101.084 1256.31 Q101.084 1263.41 102.89 1266.98 Q104.719 1270.52 108.33 1270.52 Q111.964 1270.52 113.77 1266.98 Q115.598 1263.41 115.598 1256.31 Q115.598 1249.18 113.77 1245.64 Q111.964 1242.07 108.33 1242.07 M108.33 1238.37 Q114.14 1238.37 117.195 1242.97 Q120.274 1247.56 120.274 1256.31 Q120.274 1265.03 117.195 1269.64 Q114.14 1274.22 108.33 1274.22 Q102.52 1274.22 99.4409 1269.64 Q96.3854 1265.03 96.3854 1256.31 Q96.3854 1247.56 99.4409 1242.97 Q102.52 1238.37 108.33 1238.37 Z" fill="#000000" fill-rule="nonzero" fill-opacity="1" /><path clip-path="url(#clip810)" d="M63.7467 969.312 Q60.1356 969.312 58.3069 972.877 Q56.5014 976.419 56.5014 983.548 Q56.5014 990.655 58.3069 994.219 Q60.1356 997.761 63.7467 997.761 Q67.3809 997.761 69.1865 994.219 Q71.0152 990.655 71.0152 983.548 Q71.0152 976.419 69.1865 972.877 Q67.3809 969.312 63.7467 969.312 M63.7467 965.608 Q69.5568 965.608 72.6124 970.215 Q75.6911 974.798 75.6911 983.548 Q75.6911 992.275 72.6124 996.881 Q69.5568 1001.46 63.7467 1001.46 Q57.9365 1001.46 54.8578 996.881 Q51.8023 992.275 51.8023 983.548 Q51.8023 974.798 54.8578 970.215 Q57.9365 965.608 63.7467 965.608 Z" fill="#000000" fill-rule="nonzero" fill-opacity="1" /><path clip-path="url(#clip810)" d="M83.9086 994.914 L88.7928 994.914 L88.7928 1000.79 L83.9086 1000.79 L83.9086 994.914 Z" fill="#000000" fill-rule="nonzero" fill-opacity="1" /><path clip-path="url(#clip810)" d="M113.145 982.159 Q116.501 982.877 118.376 985.145 Q120.274 987.414 120.274 990.747 Q120.274 995.863 116.756 998.664 Q113.237 1001.46 106.756 1001.46 Q104.58 1001.46 102.265 1001.02 Q99.9733 1000.61 97.5197 999.752 L97.5197 995.238 Q99.4641 996.372 101.779 996.951 Q104.094 997.53 106.617 997.53 Q111.015 997.53 113.307 995.793 Q115.621 994.057 115.621 990.747 Q115.621 987.692 113.469 985.979 Q111.339 984.243 107.52 984.243 L103.492 984.243 L103.492 980.4 L107.705 980.4 Q111.154 980.4 112.983 979.034 Q114.811 977.645 114.811 975.053 Q114.811 972.391 112.913 970.979 Q111.038 969.544 107.52 969.544 Q105.598 969.544 103.399 969.96 Q101.2 970.377 98.5613 971.257 L98.5613 967.09 Q101.223 966.349 103.538 965.979 Q105.876 965.608 107.936 965.608 Q113.26 965.608 116.362 968.039 Q119.464 970.446 119.464 974.567 Q119.464 977.437 117.82 979.428 Q116.177 981.395 113.145 982.159 Z" fill="#000000" fill-rule="nonzero" fill-opacity="1" /><path clip-path="url(#clip810)" d="M62.9365 696.554 Q59.3254 696.554 57.4967 700.119 Q55.6912 703.66 55.6912 710.79 Q55.6912 717.896 57.4967 721.461 Q59.3254 725.003 62.9365 725.003 Q66.5707 725.003 68.3763 721.461 Q70.205 717.896 70.205 710.79 Q70.205 703.66 68.3763 700.119 Q66.5707 696.554 62.9365 696.554 M62.9365 692.85 Q68.7467 692.85 71.8022 697.457 Q74.8809 702.04 74.8809 710.79 Q74.8809 719.517 71.8022 724.123 Q68.7467 728.706 62.9365 728.706 Q57.1264 728.706 54.0477 724.123 Q50.9921 719.517 50.9921 710.79 Q50.9921 702.04 54.0477 697.457 Q57.1264 692.85 62.9365 692.85 Z" fill="#000000" fill-rule="nonzero" fill-opacity="1" /><path clip-path="url(#clip810)" d="M83.0984 722.156 L87.9827 722.156 L87.9827 728.035 L83.0984 728.035 L83.0984 722.156 Z" fill="#000000" fill-rule="nonzero" fill-opacity="1" /><path clip-path="url(#clip810)" d="M108.746 708.892 Q105.598 708.892 103.746 711.045 Q101.918 713.197 101.918 716.947 Q101.918 720.674 103.746 722.85 Q105.598 725.003 108.746 725.003 Q111.895 725.003 113.723 722.85 Q115.575 720.674 115.575 716.947 Q115.575 713.197 113.723 711.045 Q111.895 708.892 108.746 708.892 M118.029 694.239 L118.029 698.498 Q116.27 697.665 114.464 697.225 Q112.682 696.785 110.922 696.785 Q106.293 696.785 103.839 699.91 Q101.409 703.035 101.061 709.355 Q102.427 707.341 104.487 706.276 Q106.547 705.188 109.024 705.188 Q114.233 705.188 117.242 708.359 Q120.274 711.507 120.274 716.947 Q120.274 722.271 117.126 725.489 Q113.978 728.706 108.746 728.706 Q102.751 728.706 99.5798 724.123 Q96.4085 719.517 96.4085 710.79 Q96.4085 702.595 100.297 697.734 Q104.186 692.85 110.737 692.85 Q112.496 692.85 114.279 693.197 Q116.084 693.545 118.029 694.239 Z" fill="#000000" fill-rule="nonzero" fill-opacity="1" /><path clip-path="url(#clip810)" d="M63.2837 423.796 Q59.6726 423.796 57.8439 427.36 Q56.0384 430.902 56.0384 438.032 Q56.0384 445.138 57.8439 448.703 Q59.6726 452.244 63.2837 452.244 Q66.918 452.244 68.7235 448.703 Q70.5522 445.138 70.5522 438.032 Q70.5522 430.902 68.7235 427.36 Q66.918 423.796 63.2837 423.796 M63.2837 420.092 Q69.0939 420.092 72.1494 424.698 Q75.2281 429.282 75.2281 438.032 Q75.2281 446.758 72.1494 451.365 Q69.0939 455.948 63.2837 455.948 Q57.4736 455.948 54.3949 451.365 Q51.3393 446.758 51.3393 438.032 Q51.3393 429.282 54.3949 424.698 Q57.4736 420.092 63.2837 420.092 Z" fill="#000000" fill-rule="nonzero" fill-opacity="1" /><path clip-path="url(#clip810)" d="M83.4457 449.397 L88.3299 449.397 L88.3299 455.277 L83.4457 455.277 L83.4457 449.397 Z" fill="#000000" fill-rule="nonzero" fill-opacity="1" /><path clip-path="url(#clip810)" d="M98.6539 454.559 L98.6539 450.3 Q100.413 451.133 102.219 451.573 Q104.024 452.013 105.76 452.013 Q110.39 452.013 112.82 448.911 Q115.274 445.786 115.621 439.444 Q114.279 441.434 112.219 442.499 Q110.158 443.564 107.658 443.564 Q102.473 443.564 99.4409 440.439 Q96.4317 437.291 96.4317 431.851 Q96.4317 426.527 99.5798 423.309 Q102.728 420.092 107.959 420.092 Q113.955 420.092 117.103 424.698 Q120.274 429.282 120.274 438.032 Q120.274 446.203 116.385 451.087 Q112.52 455.948 105.969 455.948 Q104.209 455.948 102.404 455.601 Q100.598 455.254 98.6539 454.559 M107.959 439.907 Q111.108 439.907 112.936 437.754 Q114.788 435.601 114.788 431.851 Q114.788 428.124 112.936 425.971 Q111.108 423.796 107.959 423.796 Q104.811 423.796 102.959 425.971 Q101.131 428.124 101.131 431.851 Q101.131 435.601 102.959 437.754 Q104.811 439.907 107.959 439.907 Z" fill="#000000" fill-rule="nonzero" fill-opacity="1" /><path clip-path="url(#clip810)" d="M55.506 178.583 L63.1448 178.583 L63.1448 152.218 L54.8347 153.884 L54.8347 149.625 L63.0985 147.959 L67.7744 147.959 L67.7744 178.583 L75.4133 178.583 L75.4133 182.519 L55.506 182.519 L55.506 178.583 Z" fill="#000000" fill-rule="nonzero" fill-opacity="1" /><path clip-path="url(#clip810)" d="M84.8577 176.639 L89.7419 176.639 L89.7419 182.519 L84.8577 182.519 L84.8577 176.639 Z" fill="#000000" fill-rule="nonzero" fill-opacity="1" /><path clip-path="url(#clip810)" d="M103.955 178.583 L120.274 178.583 L120.274 182.519 L98.3298 182.519 L98.3298 178.583 Q100.992 175.829 105.575 171.199 Q110.182 166.546 111.362 165.204 Q113.608 162.681 114.487 160.945 Q115.39 159.185 115.39 157.496 Q115.39 154.741 113.445 153.005 Q111.524 151.269 108.422 151.269 Q106.223 151.269 103.77 152.033 Q101.339 152.797 98.5613 154.347 L98.5613 149.625 Q101.385 148.491 103.839 147.912 Q106.293 147.334 108.33 147.334 Q113.7 147.334 116.895 150.019 Q120.089 152.704 120.089 157.195 Q120.089 159.324 119.279 161.246 Q118.492 163.144 116.385 165.736 Q115.807 166.408 112.705 169.625 Q109.603 172.82 103.955 178.583 Z" fill="#000000" fill-rule="nonzero" fill-opacity="1" /><polyline clip-path="url(#clip812)" style="stroke:#009af9; stroke-linecap:round; stroke-linejoin:round; stroke-width:16; stroke-opacity:1; fill:none" stroke-dasharray="8, 16" points="218.439,1119.56 228.852,1104.41 239.264,1090.54 249.677,1080.29 260.09,1075.45 270.503,1077.06 280.916,1085.41 291.329,1100.11 301.741,1120.32 312.154,1145 322.567,1173.06 332.98,1203.53 343.393,1235.51 353.805,1268.11 364.218,1300.42 374.631,1331.45 385.044,1360.16 395.457,1385.56 405.87,1406.76 416.282,1422.98 426.695,1433.69 437.108,1438.6 447.521,1437.75 457.934,1431.34 468.347,1419.62 478.759,1402.71 489.172,1380.79 499.585,1354.22 509.998,1323.87 520.411,1291.09 530.824,1257.55 541.236,1224.8 551.649,1193.9 562.062,1165.33 572.475,1139.26 582.888,1116.07 593.301,1096.74 603.713,1082.63 614.126,1074.92 624.539,1074.1 634.952,1079.82 645.365,1091.29 655.777,1107.65 666.19,1128.2 676.603,1152.46 687.016,1179.98 697.429,1210.24 707.842,1242.5 718.254,1275.63 728.667,1308.2 739.08,1338.63 749.493,1365.81 759.906,1389.57 770.319,1410.26 780.731,1427.41 791.144,1438.95 801.557,1441.91 811.97,1433.94 822.383,1418.46 832.796,1407 843.208,1398.3 853.621,1368.25 864.034,1314.17 874.447,1272.5 884.86,1262.34 895.273,1249.88 905.685,1206.58 916.098,1154.96 926.511,1128.77 936.924,1128.33 947.337,1120.26 957.749,1092.08 968.162,1076.87 978.575,1075.67 988.988,1054.39 999.401,1022.66 1009.81,1034.94 1020.23,1100.63 1030.64,1173.42 1041.05,1217.16 1051.46,1224.48 1061.88,1220.44 1072.29,1281.64 1082.7,1392.16 1093.12,1416.33 1103.53,1369.71 1113.94,1328.81 1124.35,1318.78 1134.77,1350.42 1145.18,1412.15 1155.59,1445.72 1166.01,1429.35 1176.42,1433.82 1186.83,1428.17 1197.24,1402.36 1207.66,1389.15 1218.07,1385 1228.48,1361.06 1238.9,1265.22 1249.31,1036.52 1259.72,706.624 1270.13,431.947 1280.55,313.03 1290.96,311.386 1301.37,348.154 1311.79,367.118 1322.2,349.591 1332.61,312.526 1343.02,280.627 1353.44,287.683 1363.85,345.972 1374.26,384.354 1384.68,354.086 1395.09,332.647 1405.5,343.866 1415.91,368.734 1426.33,415.734 1436.74,427.557 1447.15,376.209 1457.57,329.613 1467.98,323.027 1478.39,313.778 1488.8,294.059 1499.22,309.045 1509.63,353.006 1520.04,377.986 1530.45,367.962 1540.87,354.852 1551.28,367.528 1561.69,396.876 1572.11,407.498 1582.52,364.751 1592.93,266.895 1603.34,207.171 1613.76,246.474 1624.17,312.584 1634.58,353.526 1645,375.682 1655.41,395.4 1665.82,415.873 1676.23,429.682 1686.65,426.952 1697.06,400.018 1707.47,347.366 1717.89,280.759 1728.3,228.201 1738.71,218.204 1749.12,255.618 1759.54,320.882 1769.95,389.145 1780.36,441.999 1790.78,468.655 1801.19,465.201 1811.6,433.692 1822.01,380.464 1832.43,314.844 1842.84,249.943 1853.25,204.312 1863.67,197.967 1874.08,239.923 1884.49,319.182 1894.9,410.23 1905.32,485.059 1915.73,521.34 1926.14,507.364 1936.56,445.618 1946.97,352.892 1957.38,255.62 1967.79,182.224 1978.21,155.228 1988.62,184.503 1999.03,262.815 2009.45,366.936 2019.86,466.326 2030.27,534.478 2040.68,555.211 2051.1,522.522 2061.51,439.268 2071.92,319.344 2082.33,192.22 2092.75,101.459 2103.16,87.9763 2113.57,164.186 2123.99,303.189 2134.4,454.433 2144.81,567.774 2155.22,608.878 2165.64,567.831 2176.05,462.281 2186.46,330.209 2196.88,214.617 2207.29,148.256 2217.7,143.274 2228.11,189.336 2238.53,262.943 2248.94,341.914 2259.35,413.898 2269.77,475.684 2280.18,528.53 2290.59,574.521 "/>
<polyline clip-path="url(#clip812)" style="stroke:#e26f46; stroke-linecap:round; stroke-linejoin:round; stroke-width:4; stroke-opacity:1; fill:none" points="218.439,1119.71 228.852,1100.34 239.264,1086.05 249.677,1077.32 260.09,1074.43 270.503,1077.48 280.916,1086.36 291.329,1100.79 301.741,1120.29 312.154,1144.22 322.567,1171.82 332.98,1202.17 343.393,1234.29 353.805,1267.13 364.218,1299.61 374.631,1330.67 385.044,1359.31 395.457,1384.59 405.87,1405.67 416.282,1421.89 426.695,1432.69 437.108,1437.74 447.521,1436.87 457.934,1430.1 468.347,1417.66 478.759,1399.95 489.172,1377.55 499.585,1351.19 509.998,1321.74 520.411,1290.15 530.824,1257.45 541.236,1224.72 551.649,1193.01 562.062,1163.37 572.475,1136.76 582.888,1114.06 593.301,1095.99 603.713,1083.15 614.126,1075.97 624.539,1074.67 634.952,1079.29 645.365,1089.7 655.777,1105.54 666.19,1126.29 676.603,1151.3 687.016,1179.72 697.429,1210.65 707.842,1243.06 718.254,1275.91 728.667,1308.11 739.08,1338.62 749.493,1366.45 759.906,1390.68 770.319,1410.52 780.731,1425.33 791.144,1434.62 801.557,1438.09 811.97,1435.62 822.383,1427.31 832.796,1413.41 843.208,1394.38 853.621,1370.84 864.034,1343.57 874.447,1313.44 884.86,1281.45 895.273,1248.64 905.685,1216.08 916.098,1184.83 926.511,1155.91 936.924,1130.26 947.337,1108.73 957.749,1092.02 968.162,1080.66 978.575,1075.04 988.988,1075.33 999.401,1081.53 1009.81,1093.43 1020.23,1110.64 1030.64,1132.61 1041.05,1158.61 1051.46,1187.8 1061.88,1219.23 1072.29,1251.87 1082.7,1284.64 1093.12,1316.5 1103.53,1346.38 1113.94,1373.33 1124.35,1396.46 1134.77,1415.01 1145.18,1428.38 1155.59,1436.13 1166.01,1438.01 1176.42,1433.96 1186.83,1424.11 1197.24,1408.79 1207.66,1388.48 1218.07,1363.87 1228.48,1335.74 1238.9,1305.01 1249.31,1272.7 1259.72,345.757 1270.13,344.254 1280.55,345.622 1290.96,350.175 1301.37,356.517 1311.79,361.97 1322.2,363.584 1332.61,359.389 1343.02,349.388 1353.44,335.905 1363.85,323.075 1374.26,315.58 1384.68,317.018 1395.09,328.454 1405.5,347.688 1415.91,369.578 1426.33,387.404 1436.74,394.923 1447.15,388.487 1457.57,368.515 1467.98,339.79 1478.39,310.35 1488.8,289.251 1499.22,283.785 1509.63,297.035 1520.04,326.555 1530.45,364.68 1540.87,400.493 1551.28,422.953 1561.69,424.284 1572.11,402.584 1582.52,362.815 1592.93,315.74 1603.34,275.02 1613.76,253.252 1624.17,258.092 1634.58,289.651 1645,340.032 1655.41,395.262 1665.82,439.165 1676.23,458.093 1686.65,445.149 1697.06,402.587 1707.47,341.583 1717.89,279.329 1728.3,234.19 1738.71,220.289 1749.12,243.116 1759.54,297.524 1769.95,368.801 1780.36,436.629 1790.78,480.882 1801.19,487.585 1811.6,453.296 1822.01,386.53 1832.43,305.695 1842.84,234.027 1853.25,192.913 1863.67,195.512 1874.08,242.593 1884.49,321.875 1894.9,411.198 1905.32,484.713 1915.73,520.361 1926.14,506.479 1936.56,445.564 1946.97,353.978 1957.38,257.58 1967.79,184.422 1978.21,156.594 1988.62,183.562 1999.03,259.03 2009.45,362.331 2019.86,464.071 2030.27,534.496 2040.68,552.185 2051.1,510.551 2061.51,420.165 2071.92,306.117 2082.33,201.06 2092.75,135.863 2103.16,130.545 2113.57,188.151 2123.99,293.444 2134.4,416.902 2144.81,522.995 2155.22,580.403 2165.64,571.263 2176.05,496.69 2186.46,376.892 2196.88,245.716 2207.29,141.084 2217.7,94.0351 2228.11,119.523 2238.53,211.709 2248.94,345.21 2259.35,482.079 2269.77,582.588 2280.18,616.754 2290.59,573.279 "/>
<path clip-path="url(#clip810)" d="M229.49 250.738 L675.966 250.738 L675.966 95.2176 L229.49 95.2176  Z" fill="#ffffff" fill-rule="evenodd" fill-opacity="1"/>
<polyline clip-path="url(#clip810)" style="stroke:#000000; stroke-linecap:round; stroke-linejoin:round; stroke-width:4; stroke-opacity:1; fill:none" points="229.49,250.738 675.966,250.738 675.966,95.2176 229.49,95.2176 229.49,250.738 "/>
<polyline clip-path="url(#clip810)" style="stroke:#009af9; stroke-linecap:round; stroke-linejoin:round; stroke-width:16; stroke-opacity:1; fill:none" stroke-dasharray="8, 16" points="253.896,147.058 400.328,147.058 "/>
<path clip-path="url(#clip810)" d="M429.409 133.62 L429.409 146.606 L435.289 146.606 Q438.552 146.606 440.335 144.916 Q442.117 143.227 442.117 140.102 Q442.117 137 440.335 135.31 Q438.552 133.62 435.289 133.62 L429.409 133.62 M424.733 129.778 L435.289 129.778 Q441.099 129.778 444.062 132.416 Q447.048 135.032 447.048 140.102 Q447.048 145.217 444.062 147.833 Q441.099 150.449 435.289 150.449 L429.409 150.449 L429.409 164.338 L424.733 164.338 L424.733 129.778 Z" fill="#000000" fill-rule="nonzero" fill-opacity="1" /><path clip-path="url(#clip810)" d="M467.325 142.393 Q466.608 141.977 465.751 141.791 Q464.918 141.583 463.899 141.583 Q460.288 141.583 458.344 143.944 Q456.423 146.282 456.423 150.68 L456.423 164.338 L452.14 164.338 L452.14 138.412 L456.423 138.412 L456.423 142.44 Q457.765 140.078 459.918 138.944 Q462.071 137.787 465.149 137.787 Q465.589 137.787 466.122 137.856 Q466.654 137.903 467.302 138.018 L467.325 142.393 Z" fill="#000000" fill-rule="nonzero" fill-opacity="1" /><path clip-path="url(#clip810)" d="M492.927 150.31 L492.927 152.393 L473.344 152.393 Q473.622 156.791 475.983 159.106 Q478.367 161.398 482.603 161.398 Q485.057 161.398 487.348 160.796 Q489.663 160.194 491.932 158.99 L491.932 163.018 Q489.64 163.99 487.233 164.5 Q484.825 165.009 482.348 165.009 Q476.145 165.009 472.511 161.398 Q468.899 157.787 468.899 151.629 Q468.899 145.264 472.325 141.537 Q475.774 137.787 481.608 137.787 Q486.839 137.787 489.872 141.166 Q492.927 144.523 492.927 150.31 M488.668 149.06 Q488.622 145.565 486.7 143.481 Q484.802 141.398 481.654 141.398 Q478.089 141.398 475.936 143.412 Q473.807 145.426 473.483 149.083 L488.668 149.06 Z" fill="#000000" fill-rule="nonzero" fill-opacity="1" /><path clip-path="url(#clip810)" d="M516.978 142.347 L516.978 128.319 L521.237 128.319 L521.237 164.338 L516.978 164.338 L516.978 160.449 Q515.635 162.763 513.575 163.898 Q511.538 165.009 508.668 165.009 Q503.969 165.009 501.006 161.259 Q498.066 157.509 498.066 151.398 Q498.066 145.287 501.006 141.537 Q503.969 137.787 508.668 137.787 Q511.538 137.787 513.575 138.921 Q515.635 140.032 516.978 142.347 M502.464 151.398 Q502.464 156.097 504.385 158.782 Q506.33 161.444 509.709 161.444 Q513.089 161.444 515.033 158.782 Q516.978 156.097 516.978 151.398 Q516.978 146.699 515.033 144.037 Q513.089 141.352 509.709 141.352 Q506.33 141.352 504.385 144.037 Q502.464 146.699 502.464 151.398 Z" fill="#000000" fill-rule="nonzero" fill-opacity="1" /><path clip-path="url(#clip810)" d="M530.01 138.412 L534.269 138.412 L534.269 164.338 L530.01 164.338 L530.01 138.412 M530.01 128.319 L534.269 128.319 L534.269 133.713 L530.01 133.713 L530.01 128.319 Z" fill="#000000" fill-rule="nonzero" fill-opacity="1" /><path clip-path="url(#clip810)" d="M561.839 139.407 L561.839 143.389 Q560.033 142.393 558.205 141.907 Q556.399 141.398 554.547 141.398 Q550.404 141.398 548.112 144.037 Q545.82 146.652 545.82 151.398 Q545.82 156.143 548.112 158.782 Q550.404 161.398 554.547 161.398 Q556.399 161.398 558.205 160.912 Q560.033 160.402 561.839 159.407 L561.839 163.342 Q560.056 164.176 558.135 164.592 Q556.237 165.009 554.084 165.009 Q548.228 165.009 544.779 161.328 Q541.33 157.648 541.33 151.398 Q541.33 145.055 544.802 141.421 Q548.297 137.787 554.362 137.787 Q556.33 137.787 558.205 138.203 Q560.08 138.597 561.839 139.407 Z" fill="#000000" fill-rule="nonzero" fill-opacity="1" /><path clip-path="url(#clip810)" d="M573.459 131.051 L573.459 138.412 L582.232 138.412 L582.232 141.722 L573.459 141.722 L573.459 155.796 Q573.459 158.967 574.316 159.87 Q575.195 160.773 577.857 160.773 L582.232 160.773 L582.232 164.338 L577.857 164.338 Q572.927 164.338 571.052 162.509 Q569.177 160.657 569.177 155.796 L569.177 141.722 L566.052 141.722 L566.052 138.412 L569.177 138.412 L569.177 131.051 L573.459 131.051 Z" fill="#000000" fill-rule="nonzero" fill-opacity="1" /><path clip-path="url(#clip810)" d="M587.834 138.412 L592.093 138.412 L592.093 164.338 L587.834 164.338 L587.834 138.412 M587.834 128.319 L592.093 128.319 L592.093 133.713 L587.834 133.713 L587.834 128.319 Z" fill="#000000" fill-rule="nonzero" fill-opacity="1" /><path clip-path="url(#clip810)" d="M611.051 141.398 Q607.626 141.398 605.635 144.083 Q603.644 146.745 603.644 151.398 Q603.644 156.051 605.612 158.736 Q607.602 161.398 611.051 161.398 Q614.454 161.398 616.445 158.713 Q618.436 156.027 618.436 151.398 Q618.436 146.791 616.445 144.106 Q614.454 141.398 611.051 141.398 M611.051 137.787 Q616.607 137.787 619.778 141.398 Q622.95 145.009 622.95 151.398 Q622.95 157.764 619.778 161.398 Q616.607 165.009 611.051 165.009 Q605.473 165.009 602.302 161.398 Q599.153 157.764 599.153 151.398 Q599.153 145.009 602.302 141.398 Q605.473 137.787 611.051 137.787 Z" fill="#000000" fill-rule="nonzero" fill-opacity="1" /><path clip-path="url(#clip810)" d="M651.561 148.689 L651.561 164.338 L647.301 164.338 L647.301 148.828 Q647.301 145.148 645.866 143.319 Q644.431 141.49 641.561 141.49 Q638.112 141.49 636.121 143.69 Q634.13 145.889 634.13 149.685 L634.13 164.338 L629.848 164.338 L629.848 138.412 L634.13 138.412 L634.13 142.44 Q635.658 140.102 637.718 138.944 Q639.801 137.787 642.51 137.787 Q646.977 137.787 649.269 140.565 Q651.561 143.319 651.561 148.689 Z" fill="#000000" fill-rule="nonzero" fill-opacity="1" /><polyline clip-path="url(#clip810)" style="stroke:#e26f46; stroke-linecap:round; stroke-linejoin:round; stroke-width:4; stroke-opacity:1; fill:none" points="253.896,198.898 400.328,198.898 "/>
<path clip-path="url(#clip810)" d="M424.733 181.618 L446.585 181.618 L446.585 185.553 L429.409 185.553 L429.409 195.784 L445.867 195.784 L445.867 199.719 L429.409 199.719 L429.409 212.242 L447.001 212.242 L447.001 216.178 L424.733 216.178 L424.733 181.618 Z" fill="#000000" fill-rule="nonzero" fill-opacity="1" /><path clip-path="url(#clip810)" d="M476.052 190.252 L466.677 202.867 L476.538 216.178 L471.515 216.178 L463.969 205.992 L456.423 216.178 L451.4 216.178 L461.469 202.613 L452.256 190.252 L457.279 190.252 L464.154 199.488 L471.029 190.252 L476.052 190.252 Z" fill="#000000" fill-rule="nonzero" fill-opacity="1" /><path clip-path="url(#clip810)" d="M494.339 203.145 Q489.177 203.145 487.186 204.326 Q485.196 205.506 485.196 208.354 Q485.196 210.622 486.677 211.965 Q488.182 213.284 490.751 213.284 Q494.293 213.284 496.422 210.784 Q498.575 208.261 498.575 204.094 L498.575 203.145 L494.339 203.145 M502.834 201.386 L502.834 216.178 L498.575 216.178 L498.575 212.242 Q497.117 214.603 494.941 215.738 Q492.765 216.849 489.617 216.849 Q485.635 216.849 483.274 214.627 Q480.936 212.381 480.936 208.631 Q480.936 204.256 483.853 202.034 Q486.793 199.812 492.603 199.812 L498.575 199.812 L498.575 199.395 Q498.575 196.455 496.631 194.858 Q494.71 193.238 491.214 193.238 Q488.992 193.238 486.885 193.77 Q484.779 194.303 482.835 195.367 L482.835 191.432 Q485.173 190.53 487.372 190.09 Q489.571 189.627 491.654 189.627 Q497.279 189.627 500.057 192.543 Q502.834 195.46 502.834 201.386 Z" fill="#000000" fill-rule="nonzero" fill-opacity="1" /><path clip-path="url(#clip810)" d="M530.265 191.247 L530.265 195.229 Q528.459 194.233 526.631 193.747 Q524.825 193.238 522.973 193.238 Q518.83 193.238 516.538 195.877 Q514.246 198.492 514.246 203.238 Q514.246 207.983 516.538 210.622 Q518.83 213.238 522.973 213.238 Q524.825 213.238 526.631 212.752 Q528.459 212.242 530.265 211.247 L530.265 215.182 Q528.482 216.016 526.561 216.432 Q524.663 216.849 522.51 216.849 Q516.654 216.849 513.205 213.168 Q509.756 209.488 509.756 203.238 Q509.756 196.895 513.228 193.261 Q516.723 189.627 522.788 189.627 Q524.756 189.627 526.631 190.043 Q528.506 190.437 530.265 191.247 Z" fill="#000000" fill-rule="nonzero" fill-opacity="1" /><path clip-path="url(#clip810)" d="M541.885 182.891 L541.885 190.252 L550.658 190.252 L550.658 193.562 L541.885 193.562 L541.885 207.636 Q541.885 210.807 542.742 211.71 Q543.621 212.613 546.283 212.613 L550.658 212.613 L550.658 216.178 L546.283 216.178 Q541.353 216.178 539.478 214.349 Q537.603 212.497 537.603 207.636 L537.603 193.562 L534.478 193.562 L534.478 190.252 L537.603 190.252 L537.603 182.891 L541.885 182.891 Z" fill="#000000" fill-rule="nonzero" fill-opacity="1" /></svg>
