<?xml version="1.0" encoding="utf-8"?>
<svg xmlns="http://www.w3.org/2000/svg" xmlns:xlink="http://www.w3.org/1999/xlink" width="600" height="400" viewBox="0 0 2400 1600">
<defs>
  <clipPath id="clip210">
    <rect x="0" y="0" width="2400" height="1600"/>
  </clipPath>
</defs>
<path clip-path="url(#clip210)" d="M0 1600 L2400 1600 L2400 0 L0 0  Z" fill="#ffffff" fill-rule="evenodd" fill-opacity="1"/>
<defs>
  <clipPath id="clip211">
    <rect x="480" y="0" width="1681" height="1600"/>
  </clipPath>
</defs>
<path clip-path="url(#clip210)" d="M156.274 1486.45 L2352.76 1486.45 L2352.76 47.2441 L156.274 47.2441  Z" fill="#ffffff" fill-rule="evenodd" fill-opacity="1"/>
<defs>
  <clipPath id="clip212">
    <rect x="156" y="47" width="2197" height="1440"/>
  </clipPath>
</defs>
<polyline clip-path="url(#clip212)" style="stroke:#000000; stroke-linecap:round; stroke-linejoin:round; stroke-width:2; stroke-opacity:0.1; fill:none" points="218.439,1486.45 218.439,47.2441 "/>
<polyline clip-path="url(#clip212)" style="stroke:#000000; stroke-linecap:round; stroke-linejoin:round; stroke-width:2; stroke-opacity:0.1; fill:none" points="736.477,1486.45 736.477,47.2441 "/>
<polyline clip-path="url(#clip212)" style="stroke:#000000; stroke-linecap:round; stroke-linejoin:round; stroke-width:2; stroke-opacity:0.1; fill:none" points="1254.52,1486.45 1254.52,47.2441 "/>
<polyline clip-path="url(#clip212)" style="stroke:#000000; stroke-linecap:round; stroke-linejoin:round; stroke-width:2; stroke-opacity:0.1; fill:none" points="1772.55,1486.45 1772.55,47.2441 "/>
<polyline clip-path="url(#clip212)" style="stroke:#000000; stroke-linecap:round; stroke-linejoin:round; stroke-width:2; stroke-opacity:0.1; fill:none" points="2290.59,1486.45 2290.59,47.2441 "/>
<polyline clip-path="url(#clip210)" style="stroke:#000000; stroke-linecap:round; stroke-linejoin:round; stroke-width:4; stroke-opacity:1; fill:none" points="156.274,1486.45 2352.76,1486.45 "/>
<polyline clip-path="url(#clip210)" style="stroke:#000000; stroke-linecap:round; stroke-linejoin:round; stroke-width:4; stroke-opacity:1; fill:none" points="218.439,1486.45 218.439,1467.55 "/>
<polyline clip-path="url(#clip210)" style="stroke:#000000; stroke-linecap:round; stroke-linejoin:round; stroke-width:4; stroke-opacity:1; fill:none" points="736.477,1486.45 736.477,1467.55 "/>
<polyline clip-path="url(#clip210)" style="stroke:#000000; stroke-linecap:round; stroke-linejoin:round; stroke-width:4; stroke-opacity:1; fill:none" points="1254.52,1486.45 1254.52,1467.55 "/>
<polyline clip-path="url(#clip210)" style="stroke:#000000; stroke-linecap:round; stroke-linejoin:round; stroke-width:4; stroke-opacity:1; fill:none" points="1772.55,1486.45 1772.55,1467.55 "/>
<polyline clip-path="url(#clip210)" style="stroke:#000000; stroke-linecap:round; stroke-linejoin:round; stroke-width:4; stroke-opacity:1; fill:none" points="2290.59,1486.45 2290.59,1467.55 "/>
<path clip-path="url(#clip210)" d="M164.967 1532.02 L194.643 1532.02 L194.643 1535.95 L164.967 1535.95 L164.967 1532.02 Z" fill="#000000" fill-rule="nonzero" fill-opacity="1" /><path clip-path="url(#clip210)" d="M205.545 1544.91 L213.184 1544.91 L213.184 1518.55 L204.874 1520.21 L204.874 1515.95 L213.138 1514.29 L217.814 1514.29 L217.814 1544.91 L225.453 1544.91 L225.453 1548.85 L205.545 1548.85 L205.545 1544.91 Z" fill="#000000" fill-rule="nonzero" fill-opacity="1" /><path clip-path="url(#clip210)" d="M234.897 1542.97 L239.781 1542.97 L239.781 1548.85 L234.897 1548.85 L234.897 1542.97 Z" fill="#000000" fill-rule="nonzero" fill-opacity="1" /><path clip-path="url(#clip210)" d="M259.966 1517.37 Q256.355 1517.37 254.527 1520.93 Q252.721 1524.47 252.721 1531.6 Q252.721 1538.71 254.527 1542.27 Q256.355 1545.82 259.966 1545.82 Q263.601 1545.82 265.406 1542.27 Q267.235 1538.71 267.235 1531.6 Q267.235 1524.47 265.406 1520.93 Q263.601 1517.37 259.966 1517.37 M259.966 1513.66 Q265.776 1513.66 268.832 1518.27 Q271.911 1522.85 271.911 1531.6 Q271.911 1540.33 268.832 1544.94 Q265.776 1549.52 259.966 1549.52 Q254.156 1549.52 251.077 1544.94 Q248.022 1540.33 248.022 1531.6 Q248.022 1522.85 251.077 1518.27 Q254.156 1513.66 259.966 1513.66 Z" fill="#000000" fill-rule="nonzero" fill-opacity="1" /><path clip-path="url(#clip210)" d="M683.503 1532.02 L713.178 1532.02 L713.178 1535.95 L683.503 1535.95 L683.503 1532.02 Z" fill="#000000" fill-rule="nonzero" fill-opacity="1" /><path clip-path="url(#clip210)" d="M733.271 1517.37 Q729.66 1517.37 727.831 1520.93 Q726.026 1524.47 726.026 1531.6 Q726.026 1538.71 727.831 1542.27 Q729.66 1545.82 733.271 1545.82 Q736.905 1545.82 738.711 1542.27 Q740.539 1538.71 740.539 1531.6 Q740.539 1524.47 738.711 1520.93 Q736.905 1517.37 733.271 1517.37 M733.271 1513.66 Q739.081 1513.66 742.137 1518.27 Q745.215 1522.85 745.215 1531.6 Q745.215 1540.33 742.137 1544.94 Q739.081 1549.52 733.271 1549.52 Q727.461 1549.52 724.382 1544.94 Q721.327 1540.33 721.327 1531.6 Q721.327 1522.85 724.382 1518.27 Q727.461 1513.66 733.271 1513.66 Z" fill="#000000" fill-rule="nonzero" fill-opacity="1" /><path clip-path="url(#clip210)" d="M753.433 1542.97 L758.317 1542.97 L758.317 1548.85 L753.433 1548.85 L753.433 1542.97 Z" fill="#000000" fill-rule="nonzero" fill-opacity="1" /><path clip-path="url(#clip210)" d="M768.548 1514.29 L786.905 1514.29 L786.905 1518.22 L772.831 1518.22 L772.831 1526.7 Q773.849 1526.35 774.868 1526.19 Q775.886 1526 776.905 1526 Q782.692 1526 786.072 1529.17 Q789.451 1532.34 789.451 1537.76 Q789.451 1543.34 785.979 1546.44 Q782.507 1549.52 776.187 1549.52 Q774.011 1549.52 771.743 1549.15 Q769.498 1548.78 767.09 1548.04 L767.09 1543.34 Q769.173 1544.47 771.396 1545.03 Q773.618 1545.58 776.095 1545.58 Q780.099 1545.58 782.437 1543.48 Q784.775 1541.37 784.775 1537.76 Q784.775 1534.15 782.437 1532.04 Q780.099 1529.94 776.095 1529.94 Q774.22 1529.94 772.345 1530.35 Q770.493 1530.77 768.548 1531.65 L768.548 1514.29 Z" fill="#000000" fill-rule="nonzero" fill-opacity="1" /><path clip-path="url(#clip210)" d="M1231.9 1517.37 Q1228.29 1517.37 1226.46 1520.93 Q1224.65 1524.47 1224.65 1531.6 Q1224.65 1538.71 1226.46 1542.27 Q1228.29 1545.82 1231.9 1545.82 Q1235.53 1545.82 1237.34 1542.27 Q1239.17 1538.71 1239.17 1531.6 Q1239.17 1524.47 1237.34 1520.93 Q1235.53 1517.37 1231.9 1517.37 M1231.9 1513.66 Q1237.71 1513.66 1240.77 1518.27 Q1243.84 1522.85 1243.84 1531.6 Q1243.84 1540.33 1240.77 1544.94 Q1237.71 1549.52 1231.9 1549.52 Q1226.09 1549.52 1223.01 1544.94 Q1219.96 1540.33 1219.96 1531.6 Q1219.96 1522.85 1223.01 1518.27 Q1226.09 1513.66 1231.9 1513.66 Z" fill="#000000" fill-rule="nonzero" fill-opacity="1" /><path clip-path="url(#clip210)" d="M1252.06 1542.97 L1256.95 1542.97 L1256.95 1548.85 L1252.06 1548.85 L1252.06 1542.97 Z" fill="#000000" fill-rule="nonzero" fill-opacity="1" /><path clip-path="url(#clip210)" d="M1277.13 1517.37 Q1273.52 1517.37 1271.69 1520.93 Q1269.89 1524.47 1269.89 1531.6 Q1269.89 1538.71 1271.69 1542.27 Q1273.52 1545.82 1277.13 1545.82 Q1280.76 1545.82 1282.57 1542.27 Q1284.4 1538.71 1284.4 1531.6 Q1284.4 1524.47 1282.57 1520.93 Q1280.76 1517.37 1277.13 1517.37 M1277.13 1513.66 Q1282.94 1513.66 1286 1518.27 Q1289.08 1522.85 1289.08 1531.6 Q1289.08 1540.33 1286 1544.94 Q1282.94 1549.52 1277.13 1549.52 Q1271.32 1549.52 1268.24 1544.94 Q1265.19 1540.33 1265.19 1531.6 Q1265.19 1522.85 1268.24 1518.27 Q1271.32 1513.66 1277.13 1513.66 Z" fill="#000000" fill-rule="nonzero" fill-opacity="1" /><path clip-path="url(#clip210)" d="M1750.44 1517.37 Q1746.82 1517.37 1745 1520.93 Q1743.19 1524.47 1743.19 1531.6 Q1743.19 1538.71 1745 1542.27 Q1746.82 1545.82 1750.44 1545.82 Q1754.07 1545.82 1755.88 1542.27 Q1757.7 1538.71 1757.7 1531.6 Q1757.7 1524.47 1755.88 1520.93 Q1754.07 1517.37 1750.44 1517.37 M1750.44 1513.66 Q1756.25 1513.66 1759.3 1518.27 Q1762.38 1522.85 1762.38 1531.6 Q1762.38 1540.33 1759.3 1544.94 Q1756.25 1549.52 1750.44 1549.52 Q1744.63 1549.52 1741.55 1544.94 Q1738.49 1540.33 1738.49 1531.6 Q1738.49 1522.85 1741.55 1518.27 Q1744.63 1513.66 1750.44 1513.66 Z" fill="#000000" fill-rule="nonzero" fill-opacity="1" /><path clip-path="url(#clip210)" d="M1770.6 1542.97 L1775.48 1542.97 L1775.48 1548.85 L1770.6 1548.85 L1770.6 1542.97 Z" fill="#000000" fill-rule="nonzero" fill-opacity="1" /><path clip-path="url(#clip210)" d="M1785.71 1514.29 L1804.07 1514.29 L1804.07 1518.22 L1790 1518.22 L1790 1526.7 Q1791.01 1526.35 1792.03 1526.19 Q1793.05 1526 1794.07 1526 Q1799.86 1526 1803.24 1529.17 Q1806.62 1532.34 1806.62 1537.76 Q1806.62 1543.34 1803.14 1546.44 Q1799.67 1549.52 1793.35 1549.52 Q1791.18 1549.52 1788.91 1549.15 Q1786.66 1548.78 1784.25 1548.04 L1784.25 1543.34 Q1786.34 1544.47 1788.56 1545.03 Q1790.78 1545.58 1793.26 1545.58 Q1797.26 1545.58 1799.6 1543.48 Q1801.94 1541.37 1801.94 1537.76 Q1801.94 1534.15 1799.6 1532.04 Q1797.26 1529.94 1793.26 1529.94 Q1791.38 1529.94 1789.51 1530.35 Q1787.66 1530.77 1785.71 1531.65 L1785.71 1514.29 Z" fill="#000000" fill-rule="nonzero" fill-opacity="1" /><path clip-path="url(#clip210)" d="M2257.74 1544.91 L2265.38 1544.91 L2265.38 1518.55 L2257.07 1520.21 L2257.07 1515.95 L2265.34 1514.29 L2270.01 1514.29 L2270.01 1544.91 L2277.65 1544.91 L2277.65 1548.85 L2257.74 1548.85 L2257.74 1544.91 Z" fill="#000000" fill-rule="nonzero" fill-opacity="1" /><path clip-path="url(#clip210)" d="M2287.1 1542.97 L2291.98 1542.97 L2291.98 1548.85 L2287.1 1548.85 L2287.1 1542.97 Z" fill="#000000" fill-rule="nonzero" fill-opacity="1" /><path clip-path="url(#clip210)" d="M2312.17 1517.37 Q2308.55 1517.37 2306.73 1520.93 Q2304.92 1524.47 2304.92 1531.6 Q2304.92 1538.71 2306.73 1542.27 Q2308.55 1545.82 2312.17 1545.82 Q2315.8 1545.82 2317.61 1542.27 Q2319.43 1538.71 2319.43 1531.6 Q2319.43 1524.47 2317.61 1520.93 Q2315.8 1517.37 2312.17 1517.37 M2312.17 1513.66 Q2317.98 1513.66 2321.03 1518.27 Q2324.11 1522.85 2324.11 1531.6 Q2324.11 1540.33 2321.03 1544.94 Q2317.98 1549.52 2312.17 1549.52 Q2306.36 1549.52 2303.28 1544.94 Q2300.22 1540.33 2300.22 1531.6 Q2300.22 1522.85 2303.28 1518.27 Q2306.36 1513.66 2312.17 1513.66 Z" fill="#000000" fill-rule="nonzero" fill-opacity="1" /><polyline clip-path="url(#clip212)" style="stroke:#000000; stroke-linecap:round; stroke-linejoin:round; stroke-width:2; stroke-opacity:0.1; fill:none" points="156.274,1226.23 2352.76,1226.23 "/>
<polyline clip-path="url(#clip212)" style="stroke:#000000; stroke-linecap:round; stroke-linejoin:round; stroke-width:2; stroke-opacity:0.1; fill:none" points="156.274,959.096 2352.76,959.096 "/>
<polyline clip-path="url(#clip212)" style="stroke:#000000; stroke-linecap:round; stroke-linejoin:round; stroke-width:2; stroke-opacity:0.1; fill:none" points="156.274,691.968 2352.76,691.968 "/>
<polyline clip-path="url(#clip212)" style="stroke:#000000; stroke-linecap:round; stroke-linejoin:round; stroke-width:2; stroke-opacity:0.1; fill:none" points="156.274,424.839 2352.76,424.839 "/>
<polyline clip-path="url(#clip212)" style="stroke:#000000; stroke-linecap:round; stroke-linejoin:round; stroke-width:2; stroke-opacity:0.1; fill:none" points="156.274,157.71 2352.76,157.71 "/>
<polyline clip-path="url(#clip210)" style="stroke:#000000; stroke-linecap:round; stroke-linejoin:round; stroke-width:4; stroke-opacity:1; fill:none" points="156.274,1486.45 156.274,47.2441 "/>
<polyline clip-path="url(#clip210)" style="stroke:#000000; stroke-linecap:round; stroke-linejoin:round; stroke-width:4; stroke-opacity:1; fill:none" points="156.274,1226.23 175.172,1226.23 "/>
<polyline clip-path="url(#clip210)" style="stroke:#000000; stroke-linecap:round; stroke-linejoin:round; stroke-width:4; stroke-opacity:1; fill:none" points="156.274,959.096 175.172,959.096 "/>
<polyline clip-path="url(#clip210)" style="stroke:#000000; stroke-linecap:round; stroke-linejoin:round; stroke-width:4; stroke-opacity:1; fill:none" points="156.274,691.968 175.172,691.968 "/>
<polyline clip-path="url(#clip210)" style="stroke:#000000; stroke-linecap:round; stroke-linejoin:round; stroke-width:4; stroke-opacity:1; fill:none" points="156.274,424.839 175.172,424.839 "/>
<polyline clip-path="url(#clip210)" style="stroke:#000000; stroke-linecap:round; stroke-linejoin:round; stroke-width:4; stroke-opacity:1; fill:none" points="156.274,157.71 175.172,157.71 "/>
<path clip-path="url(#clip210)" d="M63.0985 1212.02 Q59.4875 1212.02 57.6588 1215.59 Q55.8532 1219.13 55.8532 1226.26 Q55.8532 1233.37 57.6588 1236.93 Q59.4875 1240.47 63.0985 1240.47 Q66.7328 1240.47 68.5383 1236.93 Q70.367 1233.37 70.367 1226.26 Q70.367 1219.13 68.5383 1215.59 Q66.7328 1212.02 63.0985 1212.02 M63.0985 1208.32 Q68.9087 1208.32 71.9642 1212.93 Q75.0429 1217.51 75.0429 1226.26 Q75.0429 1234.99 71.9642 1239.59 Q68.9087 1244.18 63.0985 1244.18 Q57.2884 1244.18 54.2097 1239.59 Q51.1542 1234.99 51.1542 1226.26 Q51.1542 1217.51 54.2097 1212.93 Q57.2884 1208.32 63.0985 1208.32 Z" fill="#000000" fill-rule="nonzero" fill-opacity="1" /><path clip-path="url(#clip210)" d="M83.2605 1237.63 L88.1447 1237.63 L88.1447 1243.51 L83.2605 1243.51 L83.2605 1237.63 Z" fill="#000000" fill-rule="nonzero" fill-opacity="1" /><path clip-path="url(#clip210)" d="M108.33 1212.02 Q104.719 1212.02 102.89 1215.59 Q101.084 1219.13 101.084 1226.26 Q101.084 1233.37 102.89 1236.93 Q104.719 1240.47 108.33 1240.47 Q111.964 1240.47 113.77 1236.93 Q115.598 1233.37 115.598 1226.26 Q115.598 1219.13 113.77 1215.59 Q111.964 1212.02 108.33 1212.02 M108.33 1208.32 Q114.14 1208.32 117.195 1212.93 Q120.274 1217.51 120.274 1226.26 Q120.274 1234.99 117.195 1239.59 Q114.14 1244.18 108.33 1244.18 Q102.52 1244.18 99.4409 1239.59 Q96.3854 1234.99 96.3854 1226.26 Q96.3854 1217.51 99.4409 1212.93 Q102.52 1208.32 108.33 1208.32 Z" fill="#000000" fill-rule="nonzero" fill-opacity="1" /><path clip-path="url(#clip210)" d="M63.7467 944.895 Q60.1356 944.895 58.3069 948.46 Q56.5014 952.002 56.5014 959.131 Q56.5014 966.238 58.3069 969.802 Q60.1356 973.344 63.7467 973.344 Q67.3809 973.344 69.1865 969.802 Q71.0152 966.238 71.0152 959.131 Q71.0152 952.002 69.1865 948.46 Q67.3809 944.895 63.7467 944.895 M63.7467 941.191 Q69.5568 941.191 72.6124 945.798 Q75.6911 950.381 75.6911 959.131 Q75.6911 967.858 72.6124 972.464 Q69.5568 977.048 63.7467 977.048 Q57.9365 977.048 54.8578 972.464 Q51.8023 967.858 51.8023 959.131 Q51.8023 950.381 54.8578 945.798 Q57.9365 941.191 63.7467 941.191 Z" fill="#000000" fill-rule="nonzero" fill-opacity="1" /><path clip-path="url(#clip210)" d="M83.9086 970.497 L88.7928 970.497 L88.7928 976.376 L83.9086 976.376 L83.9086 970.497 Z" fill="#000000" fill-rule="nonzero" fill-opacity="1" /><path clip-path="url(#clip210)" d="M113.145 957.742 Q116.501 958.46 118.376 960.728 Q120.274 962.997 120.274 966.33 Q120.274 971.446 116.756 974.247 Q113.237 977.048 106.756 977.048 Q104.58 977.048 102.265 976.608 Q99.9733 976.191 97.5197 975.335 L97.5197 970.821 Q99.4641 971.955 101.779 972.534 Q104.094 973.113 106.617 973.113 Q111.015 973.113 113.307 971.376 Q115.621 969.64 115.621 966.33 Q115.621 963.275 113.469 961.562 Q111.339 959.826 107.52 959.826 L103.492 959.826 L103.492 955.983 L107.705 955.983 Q111.154 955.983 112.983 954.617 Q114.811 953.228 114.811 950.636 Q114.811 947.974 112.913 946.562 Q111.038 945.127 107.52 945.127 Q105.598 945.127 103.399 945.543 Q101.2 945.96 98.5613 946.84 L98.5613 942.673 Q101.223 941.932 103.538 941.562 Q105.876 941.191 107.936 941.191 Q113.26 941.191 116.362 943.622 Q119.464 946.029 119.464 950.15 Q119.464 953.02 117.82 955.011 Q116.177 956.978 113.145 957.742 Z" fill="#000000" fill-rule="nonzero" fill-opacity="1" /><path clip-path="url(#clip210)" d="M62.9365 677.766 Q59.3254 677.766 57.4967 681.331 Q55.6912 684.873 55.6912 692.002 Q55.6912 699.109 57.4967 702.674 Q59.3254 706.215 62.9365 706.215 Q66.5707 706.215 68.3763 702.674 Q70.205 699.109 70.205 692.002 Q70.205 684.873 68.3763 681.331 Q66.5707 677.766 62.9365 677.766 M62.9365 674.063 Q68.7467 674.063 71.8022 678.669 Q74.8809 683.252 74.8809 692.002 Q74.8809 700.729 71.8022 705.336 Q68.7467 709.919 62.9365 709.919 Q57.1264 709.919 54.0477 705.336 Q50.9921 700.729 50.9921 692.002 Q50.9921 683.252 54.0477 678.669 Q57.1264 674.063 62.9365 674.063 Z" fill="#000000" fill-rule="nonzero" fill-opacity="1" /><path clip-path="url(#clip210)" d="M83.0984 703.368 L87.9827 703.368 L87.9827 709.248 L83.0984 709.248 L83.0984 703.368 Z" fill="#000000" fill-rule="nonzero" fill-opacity="1" /><path clip-path="url(#clip210)" d="M108.746 690.104 Q105.598 690.104 103.746 692.257 Q101.918 694.41 101.918 698.16 Q101.918 701.887 103.746 704.062 Q105.598 706.215 108.746 706.215 Q111.895 706.215 113.723 704.062 Q115.575 701.887 115.575 698.16 Q115.575 694.41 113.723 692.257 Q111.895 690.104 108.746 690.104 M118.029 675.452 L118.029 679.711 Q116.27 678.877 114.464 678.438 Q112.682 677.998 110.922 677.998 Q106.293 677.998 103.839 681.123 Q101.409 684.248 101.061 690.567 Q102.427 688.553 104.487 687.489 Q106.547 686.401 109.024 686.401 Q114.233 686.401 117.242 689.572 Q120.274 692.72 120.274 698.16 Q120.274 703.484 117.126 706.701 Q113.978 709.919 108.746 709.919 Q102.751 709.919 99.5798 705.336 Q96.4085 700.729 96.4085 692.002 Q96.4085 683.808 100.297 678.947 Q104.186 674.063 110.737 674.063 Q112.496 674.063 114.279 674.41 Q116.084 674.757 118.029 675.452 Z" fill="#000000" fill-rule="nonzero" fill-opacity="1" /><path clip-path="url(#clip210)" d="M63.2837 410.638 Q59.6726 410.638 57.8439 414.202 Q56.0384 417.744 56.0384 424.874 Q56.0384 431.98 57.8439 435.545 Q59.6726 439.087 63.2837 439.087 Q66.918 439.087 68.7235 435.545 Q70.5522 431.98 70.5522 424.874 Q70.5522 417.744 68.7235 414.202 Q66.918 410.638 63.2837 410.638 M63.2837 406.934 Q69.0939 406.934 72.1494 411.54 Q75.2281 416.124 75.2281 424.874 Q75.2281 433.6 72.1494 438.207 Q69.0939 442.79 63.2837 442.79 Q57.4736 442.79 54.3949 438.207 Q51.3393 433.6 51.3393 424.874 Q51.3393 416.124 54.3949 411.54 Q57.4736 406.934 63.2837 406.934 Z" fill="#000000" fill-rule="nonzero" fill-opacity="1" /><path clip-path="url(#clip210)" d="M83.4457 436.239 L88.3299 436.239 L88.3299 442.119 L83.4457 442.119 L83.4457 436.239 Z" fill="#000000" fill-rule="nonzero" fill-opacity="1" /><path clip-path="url(#clip210)" d="M98.6539 441.401 L98.6539 437.142 Q100.413 437.975 102.219 438.415 Q104.024 438.855 105.76 438.855 Q110.39 438.855 112.82 435.753 Q115.274 432.628 115.621 426.286 Q114.279 428.276 112.219 429.341 Q110.158 430.406 107.658 430.406 Q102.473 430.406 99.4409 427.281 Q96.4317 424.133 96.4317 418.693 Q96.4317 413.369 99.5798 410.151 Q102.728 406.934 107.959 406.934 Q113.955 406.934 117.103 411.54 Q120.274 416.124 120.274 424.874 Q120.274 433.045 116.385 437.929 Q112.52 442.79 105.969 442.79 Q104.209 442.79 102.404 442.443 Q100.598 442.096 98.6539 441.401 M107.959 426.749 Q111.108 426.749 112.936 424.596 Q114.788 422.443 114.788 418.693 Q114.788 414.966 112.936 412.814 Q111.108 410.638 107.959 410.638 Q104.811 410.638 102.959 412.814 Q101.131 414.966 101.131 418.693 Q101.131 422.443 102.959 424.596 Q104.811 426.749 107.959 426.749 Z" fill="#000000" fill-rule="nonzero" fill-opacity="1" /><path clip-path="url(#clip210)" d="M55.506 171.055 L63.1448 171.055 L63.1448 144.689 L54.8347 146.356 L54.8347 142.097 L63.0985 140.43 L67.7744 140.43 L67.7744 171.055 L75.4133 171.055 L75.4133 174.99 L55.506 174.99 L55.506 171.055 Z" fill="#000000" fill-rule="nonzero" fill-opacity="1" /><path clip-path="url(#clip210)" d="M84.8577 169.111 L89.7419 169.111 L89.7419 174.99 L84.8577 174.99 L84.8577 169.111 Z" fill="#000000" fill-rule="nonzero" fill-opacity="1" /><path clip-path="url(#clip210)" d="M103.955 171.055 L120.274 171.055 L120.274 174.99 L98.3298 174.99 L98.3298 171.055 Q100.992 168.3 105.575 163.671 Q110.182 159.018 111.362 157.675 Q113.608 155.152 114.487 153.416 Q115.39 151.657 115.39 149.967 Q115.39 147.213 113.445 145.476 Q111.524 143.74 108.422 143.74 Q106.223 143.74 103.77 144.504 Q101.339 145.268 98.5613 146.819 L98.5613 142.097 Q101.385 140.963 103.839 140.384 Q106.293 139.805 108.33 139.805 Q113.7 139.805 116.895 142.49 Q120.089 145.176 120.089 149.666 Q120.089 151.796 119.279 153.717 Q118.492 155.615 116.385 158.208 Q115.807 158.879 112.705 162.097 Q109.603 165.291 103.955 171.055 Z" fill="#000000" fill-rule="nonzero" fill-opacity="1" /><polyline clip-path="url(#clip212)" style="stroke:#009af9; stroke-linecap:round; stroke-linejoin:round; stroke-width:16; stroke-opacity:1; fill:none" stroke-dasharray="8, 16" points="218.439,1090.31 228.852,1095.73 239.264,1070.78 249.677,1050.2 260.09,1043.99 270.503,1048.46 280.916,1059.35 291.329,1074.42 301.741,1093.05 312.154,1115.39 322.567,1141.6 332.98,1171.33 343.393,1203.58 353.805,1236.87 364.218,1269.61 374.631,1300.41 385.044,1328.24 395.457,1352.42 405.87,1372.46 416.282,1387.91 426.695,1398.25 437.108,1403 447.521,1401.92 457.934,1395.1 468.347,1382.88 478.759,1365.7 489.172,1343.91 499.585,1317.67 509.998,1287.24 520.411,1253.44 530.824,1218.29 541.236,1184.89 551.649,1156.16 562.062,1133.07 572.475,1113.61 582.888,1093.85 593.301,1071.26 603.713,1049.24 614.126,1036.25 624.539,1036.63 634.952,1046.35 645.365,1059.75 655.777,1074.97 666.19,1093.58 676.603,1117.98 687.016,1148.87 697.429,1183.92 707.842,1218.5 718.254,1248.12 728.667,1271.74 739.08,1293.67 749.493,1319.58 759.906,1349.06 770.319,1375.84 780.731,1394.73 791.144,1404.53 801.557,1406.4 811.97,1401.84 822.383,1391.87 832.796,1377.03 843.208,1357.6 853.621,1333.25 864.034,1302.74 874.447,1266.4 884.86,1231.38 895.273,1211.96 905.685,1212.14 916.098,1204.59 926.511,1161.85 936.924,1098.08 947.337,1052.38 957.749,1039.18 968.162,1041.82 978.575,1044.27 988.988,1043.68 999.401,1045.78 1009.81,1056.87 1020.23,1079.64 1030.64,1112.25 1041.05,1149.01 1051.46,1181.39 1061.88,1197.02 1072.29,1186.07 1082.7,1154.22 1093.12,1201.01 1103.53,1291.86 1113.94,1401.39 1124.35,1439.25 1134.77,1434.3 1145.18,1422.65 1155.59,1313.96 1166.01,1269.38 1176.42,1301.93 1186.83,1357.11 1197.24,1426.41 1207.66,1445.72 1218.07,1414.2 1228.48,1345.08 1238.9,1178.02 1249.31,864.266 1259.72,553.054 1270.13,376.243 1280.55,315.264 1290.96,316.458 1301.37,325.079 1311.79,344.234 1322.2,351.448 1332.61,333.606 1343.02,293.705 1353.44,298.931 1363.85,311.475 1374.26,247.076 1384.68,208.121 1395.09,247.885 1405.5,375.968 1415.91,492.798 1426.33,459.739 1436.74,402.091 1447.15,370.834 1457.57,343.786 1467.98,316.223 1478.39,293.712 1488.8,279.113 1499.22,276.399 1509.63,290.956 1520.04,319.683 1530.45,354.644 1540.87,387.636 1551.28,408.399 1561.69,409.958 1572.11,392.519 1582.52,359.838 1592.93,317.109 1603.34,273.476 1613.76,244.222 1624.17,246.049 1634.58,280.999 1645,332.367 1655.41,381.207 1665.82,416.319 1676.23,431.957 1686.65,423.994 1697.06,389.199 1707.47,329.04 1717.89,258.688 1728.3,209.232 1738.71,204.877 1749.12,244.517 1759.54,309.472 1769.95,376.15 1780.36,425.16 1790.78,446.665 1801.19,440.653 1811.6,411.92 1822.01,366.138 1832.43,309.939 1842.84,252.748 1853.25,208.16 1863.67,192.787 1874.08,219.386 1884.49,286.85 1894.9,377.934 1905.32,462.862 1915.73,504.25 1926.14,483.749 1936.56,419.42 1946.97,337.751 1957.38,256.079 1967.79,190.7 1978.21,162.038 1988.62,180.658 1999.03,237.325 2009.45,318.203 2019.86,417.977 2030.27,513.443 2040.68,520.48 2051.1,433.835 2061.51,339.861 2071.92,264.991 2082.33,205.341 2092.75,160.797 2103.16,144.775 2113.57,179.987 2123.99,269.653 2134.4,383.512 2144.81,484.869 2155.22,547.775 2165.64,555.673 2176.05,499.456 2186.46,381.782 2196.88,237.62 2207.29,141.915 2217.7,131.054 2228.11,176.989 2238.53,247.466 2248.94,323.09 2259.35,394.015 2269.77,456.157 2280.18,508.458 2290.59,551.193 "/>
<polyline clip-path="url(#clip212)" style="stroke:#e26f46; stroke-linecap:round; stroke-linejoin:round; stroke-width:4; stroke-opacity:1; fill:none" points="218.439,1092.48 228.852,1073.51 239.264,1059.52 249.677,1050.97 260.09,1048.14 270.503,1051.12 280.916,1059.82 291.329,1073.95 301.741,1093.05 312.154,1116.49 322.567,1143.52 332.98,1173.24 343.393,1204.7 353.805,1236.85 364.218,1268.66 374.631,1299.09 385.044,1327.14 395.457,1351.89 405.87,1372.54 416.282,1388.42 426.695,1399 437.108,1403.95 447.521,1403.09 457.934,1396.46 468.347,1384.28 478.759,1366.94 489.172,1345 499.585,1319.19 509.998,1290.34 520.411,1259.4 530.824,1227.38 541.236,1195.32 551.649,1164.27 562.062,1135.24 572.475,1109.18 582.888,1086.94 593.301,1069.25 603.713,1056.68 614.126,1049.64 624.539,1048.37 634.952,1052.9 645.365,1063.09 655.777,1078.6 666.19,1098.93 676.603,1123.42 687.016,1151.26 697.429,1181.54 707.842,1213.29 718.254,1245.46 728.667,1277 739.08,1306.88 749.493,1334.13 759.906,1357.86 770.319,1377.29 780.731,1391.79 791.144,1400.89 801.557,1404.29 811.97,1401.88 822.383,1393.73 832.796,1380.12 843.208,1361.48 853.621,1338.43 864.034,1311.72 874.447,1282.22 884.86,1250.89 895.273,1218.75 905.685,1186.86 916.098,1156.25 926.511,1127.93 936.924,1102.82 947.337,1081.73 957.749,1065.36 968.162,1054.24 978.575,1048.73 988.988,1049.02 999.401,1055.09 1009.81,1066.74 1020.23,1083.6 1030.64,1105.11 1041.05,1130.58 1051.46,1159.17 1061.88,1189.95 1072.29,1221.91 1082.7,1254.01 1093.12,1285.21 1103.53,1314.48 1113.94,1340.87 1124.35,1363.52 1134.77,1381.68 1145.18,1394.78 1155.59,1402.37 1166.01,1404.21 1176.42,1400.25 1186.83,1390.6 1197.24,1375.59 1207.66,1355.71 1218.07,1331.6 1228.48,1304.05 1238.9,1273.96 1249.31,1242.31 1259.72,334.503 1270.13,333.031 1280.55,334.371 1290.96,338.829 1301.37,345.041 1311.79,350.381 1322.2,351.962 1332.61,347.854 1343.02,338.059 1353.44,324.854 1363.85,312.289 1374.26,304.949 1384.68,306.357 1395.09,317.557 1405.5,336.394 1415.91,357.832 1426.33,375.29 1436.74,382.654 1447.15,376.351 1457.57,356.792 1467.98,328.658 1478.39,299.827 1488.8,279.163 1499.22,273.81 1509.63,286.787 1520.04,315.697 1530.45,353.035 1540.87,388.109 1551.28,410.106 1561.69,411.409 1572.11,390.157 1582.52,351.209 1592.93,305.105 1603.34,265.226 1613.76,243.907 1624.17,248.647 1634.58,279.555 1645,328.896 1655.41,382.986 1665.82,425.983 1676.23,444.52 1686.65,431.843 1697.06,390.16 1707.47,330.414 1717.89,269.446 1728.3,225.239 1738.71,211.624 1749.12,233.98 1759.54,287.266 1769.95,357.071 1780.36,423.5 1790.78,466.839 1801.19,473.403 1811.6,439.822 1822.01,374.434 1832.43,295.267 1842.84,225.079 1853.25,184.813 1863.67,187.359 1874.08,233.468 1884.49,311.114 1894.9,398.593 1905.32,470.591 1915.73,505.503 1926.14,491.908 1936.56,432.25 1946.97,342.555 1957.38,248.146 1967.79,176.498 1978.21,149.244 1988.62,175.655 1999.03,249.566 2009.45,350.735 2019.86,450.375 2030.27,519.346 2040.68,536.67 2051.1,495.896 2061.51,407.375 2071.92,295.681 2082.33,192.792 2092.75,128.941 2103.16,123.732 2113.57,180.15 2123.99,283.269 2134.4,404.18 2144.81,508.083 2155.22,564.306 2165.64,555.355 2176.05,482.32 2186.46,364.995 2196.88,236.526 2207.29,134.054 2217.7,87.9763 2228.11,112.938 2238.53,203.221 2248.94,333.968 2259.35,468.012 2269.77,566.446 2280.18,599.907 2290.59,557.328 "/>
<path clip-path="url(#clip210)" d="M229.49 250.738 L675.966 250.738 L675.966 95.2176 L229.49 95.2176  Z" fill="#ffffff" fill-rule="evenodd" fill-opacity="1"/>
<polyline clip-path="url(#clip210)" style="stroke:#000000; stroke-linecap:round; stroke-linejoin:round; stroke-width:4; stroke-opacity:1; fill:none" points="229.49,250.738 675.966,250.738 675.966,95.2176 229.49,95.2176 229.49,250.738 "/>
<polyline clip-path="url(#clip210)" style="stroke:#009af9; stroke-linecap:round; stroke-linejoin:round; stroke-width:16; stroke-opacity:1; fill:none" stroke-dasharray="8, 16" points="253.896,147.058 400.328,147.058 "/>
<path clip-path="url(#clip210)" d="M429.409 133.62 L429.409 146.606 L435.289 146.606 Q438.552 146.606 440.335 144.916 Q442.117 143.227 442.117 140.102 Q442.117 137 440.335 135.31 Q438.552 133.62 435.289 133.62 L429.409 133.62 M424.733 129.778 L435.289 129.778 Q441.099 129.778 444.062 132.416 Q447.048 135.032 447.048 140.102 Q447.048 145.217 444.062 147.833 Q441.099 150.449 435.289 150.449 L429.409 150.449 L429.409 164.338 L424.733 164.338 L424.733 129.778 Z" fill="#000000" fill-rule="nonzero" fill-opacity="1" /><path clip-path="url(#clip210)" d="M467.325 142.393 Q466.608 141.977 465.751 141.791 Q464.918 141.583 463.899 141.583 Q460.288 141.583 458.344 143.944 Q456.423 146.282 456.423 150.68 L456.423 164.338 L452.14 164.338 L452.14 138.412 L456.423 138.412 L456.423 142.44 Q457.765 140.078 459.918 138.944 Q462.071 137.787 465.149 137.787 Q465.589 137.787 466.122 137.856 Q466.654 137.903 467.302 138.018 L467.325 142.393 Z" fill="#000000" fill-rule="nonzero" fill-opacity="1" /><path clip-path="url(#clip210)" d="M492.927 150.31 L492.927 152.393 L473.344 152.393 Q473.622 156.791 475.983 159.106 Q478.367 161.398 482.603 161.398 Q485.057 161.398 487.348 160.796 Q489.663 160.194 491.932 158.99 L491.932 163.018 Q489.64 163.99 487.233 164.5 Q484.825 165.009 482.348 165.009 Q476.145 165.009 472.511 161.398 Q468.899 157.787 468.899 151.629 Q468.899 145.264 472.325 141.537 Q475.774 137.787 481.608 137.787 Q486.839 137.787 489.872 141.166 Q492.927 144.523 492.927 150.31 M488.668 149.06 Q488.622 145.565 486.7 143.481 Q484.802 141.398 481.654 141.398 Q478.089 141.398 475.936 143.412 Q473.807 145.426 473.483 149.083 L488.668 149.06 Z" fill="#000000" fill-rule="nonzero" fill-opacity="1" /><path clip-path="url(#clip210)" d="M516.978 142.347 L516.978 128.319 L521.237 128.319 L521.237 164.338 L516.978 164.338 L516.978 160.449 Q515.635 162.763 513.575 163.898 Q511.538 165.009 508.668 165.009 Q503.969 165.009 501.006 161.259 Q498.066 157.509 498.066 151.398 Q498.066 145.287 501.006 141.537 Q503.969 137.787 508.668 137.787 Q511.538 137.787 513.575 138.921 Q515.635 140.032 516.978 142.347 M502.464 151.398 Q502.464 156.097 504.385 158.782 Q506.33 161.444 509.709 161.444 Q513.089 161.444 515.033 158.782 Q516.978 156.097 516.978 151.398 Q516.978 146.699 515.033 144.037 Q513.089 141.352 509.709 141.352 Q506.33 141.352 504.385 144.037 Q502.464 146.699 502.464 151.398 Z" fill="#000000" fill-rule="nonzero" fill-opacity="1" /><path clip-path="url(#clip210)" d="M530.01 138.412 L534.269 138.412 L534.269 164.338 L530.01 164.338 L530.01 138.412 M530.01 128.319 L534.269 128.319 L534.269 133.713 L530.01 133.713 L530.01 128.319 Z" fill="#000000" fill-rule="nonzero" fill-opacity="1" /><path clip-path="url(#clip210)" d="M561.839 139.407 L561.839 143.389 Q560.033 142.393 558.205 141.907 Q556.399 141.398 554.547 141.398 Q550.404 141.398 548.112 144.037 Q545.82 146.652 545.82 151.398 Q545.82 156.143 548.112 158.782 Q550.404 161.398 554.547 161.398 Q556.399 161.398 558.205 160.912 Q560.033 160.402 561.839 159.407 L561.839 163.342 Q560.056 164.176 558.135 164.592 Q556.237 165.009 554.084 165.009 Q548.228 165.009 544.779 161.328 Q541.33 157.648 541.33 151.398 Q541.33 145.055 544.802 141.421 Q548.297 137.787 554.362 137.787 Q556.33 137.787 558.205 138.203 Q560.08 138.597 561.839 139.407 Z" fill="#000000" fill-rule="nonzero" fill-opacity="1" /><path clip-path="url(#clip210)" d="M573.459 131.051 L573.459 138.412 L582.232 138.412 L582.232 141.722 L573.459 141.722 L573.459 155.796 Q573.459 158.967 574.316 159.87 Q575.195 160.773 577.857 160.773 L582.232 160.773 L582.232 164.338 L577.857 164.338 Q572.927 164.338 571.052 162.509 Q569.177 160.657 569.177 155.796 L569.177 141.722 L566.052 141.722 L566.052 138.412 L569.177 138.412 L569.177 131.051 L573.459 131.051 Z" fill="#000000" fill-rule="nonzero" fill-opacity="1" /><path clip-path="url(#clip210)" d="M587.834 138.412 L592.093 138.412 L592.093 164.338 L587.834 164.338 L587.834 138.412 M587.834 128.319 L592.093 128.319 L592.093 133.713 L587.834 133.713 L587.834 128.319 Z" fill="#000000" fill-rule="nonzero" fill-opacity="1" /><path clip-path="url(#clip210)" d="M611.051 141.398 Q607.626 141.398 605.635 144.083 Q603.644 146.745 603.644 151.398 Q603.644 156.051 605.612 158.736 Q607.602 161.398 611.051 161.398 Q614.454 161.398 616.445 158.713 Q618.436 156.027 618.436 151.398 Q618.436 146.791 616.445 144.106 Q614.454 141.398 611.051 141.398 M611.051 137.787 Q616.607 137.787 619.778 141.398 Q622.95 145.009 622.95 151.398 Q622.95 157.764 619.778 161.398 Q616.607 165.009 611.051 165.009 Q605.473 165.009 602.302 161.398 Q599.153 157.764 599.153 151.398 Q599.153 145.009 602.302 141.398 Q605.473 137.787 611.051 137.787 Z" fill="#000000" fill-rule="nonzero" fill-opacity="1" /><path clip-path="url(#clip210)" d="M651.561 148.689 L651.561 164.338 L647.301 164.338 L647.301 148.828 Q647.301 145.148 645.866 143.319 Q644.431 141.49 641.561 141.49 Q638.112 141.49 636.121 143.69 Q634.13 145.889 634.13 149.685 L634.13 164.338 L629.848 164.338 L629.848 138.412 L634.13 138.412 L634.13 142.44 Q635.658 140.102 637.718 138.944 Q639.801 137.787 642.51 137.787 Q646.977 137.787 649.269 140.565 Q651.561 143.319 651.561 148.689 Z" fill="#000000" fill-rule="nonzero" fill-opacity="1" /><polyline clip-path="url(#clip210)" style="stroke:#e26f46; stroke-linecap:round; stroke-linejoin:round; stroke-width:4; stroke-opacity:1; fill:none" points="253.896,198.898 400.328,198.898 "/>
<path clip-path="url(#clip210)" d="M424.733 181.618 L446.585 181.618 L446.585 185.553 L429.409 185.553 L429.409 195.784 L445.867 195.784 L445.867 199.719 L429.409 199.719 L429.409 212.242 L447.001 212.242 L447.001 216.178 L424.733 216.178 L424.733 181.618 Z" fill="#000000" fill-rule="nonzero" fill-opacity="1" /><path clip-path="url(#clip210)" d="M476.052 190.252 L466.677 202.867 L476.538 216.178 L471.515 216.178 L463.969 205.992 L456.423 216.178 L451.4 216.178 L461.469 202.613 L452.256 190.252 L457.279 190.252 L464.154 199.488 L471.029 190.252 L476.052 190.252 Z" fill="#000000" fill-rule="nonzero" fill-opacity="1" /><path clip-path="url(#clip210)" d="M494.339 203.145 Q489.177 203.145 487.186 204.326 Q485.196 205.506 485.196 208.354 Q485.196 210.622 486.677 211.965 Q488.182 213.284 490.751 213.284 Q494.293 213.284 496.422 210.784 Q498.575 208.261 498.575 204.094 L498.575 203.145 L494.339 203.145 M502.834 201.386 L502.834 216.178 L498.575 216.178 L498.575 212.242 Q497.117 214.603 494.941 215.738 Q492.765 216.849 489.617 216.849 Q485.635 216.849 483.274 214.627 Q480.936 212.381 480.936 208.631 Q480.936 204.256 483.853 202.034 Q486.793 199.812 492.603 199.812 L498.575 199.812 L498.575 199.395 Q498.575 196.455 496.631 194.858 Q494.71 193.238 491.214 193.238 Q488.992 193.238 486.885 193.77 Q484.779 194.303 482.835 195.367 L482.835 191.432 Q485.173 190.53 487.372 190.09 Q489.571 189.627 491.654 189.627 Q497.279 189.627 500.057 192.543 Q502.834 195.46 502.834 201.386 Z" fill="#000000" fill-rule="nonzero" fill-opacity="1" /><path clip-path="url(#clip210)" d="M530.265 191.247 L530.265 195.229 Q528.459 194.233 526.631 193.747 Q524.825 193.238 522.973 193.238 Q518.83 193.238 516.538 195.877 Q514.246 198.492 514.246 203.238 Q514.246 207.983 516.538 210.622 Q518.83 213.238 522.973 213.238 Q524.825 213.238 526.631 212.752 Q528.459 212.242 530.265 211.247 L530.265 215.182 Q528.482 216.016 526.561 216.432 Q524.663 216.849 522.51 216.849 Q516.654 216.849 513.205 213.168 Q509.756 209.488 509.756 203.238 Q509.756 196.895 513.228 193.261 Q516.723 189.627 522.788 189.627 Q524.756 189.627 526.631 190.043 Q528.506 190.437 530.265 191.247 Z" fill="#000000" fill-rule="nonzero" fill-opacity="1" /><path clip-path="url(#clip210)" d="M541.885 182.891 L541.885 190.252 L550.658 190.252 L550.658 193.562 L541.885 193.562 L541.885 207.636 Q541.885 210.807 542.742 211.71 Q543.621 212.613 546.283 212.613 L550.658 212.613 L550.658 216.178 L546.283 216.178 Q541.353 216.178 539.478 214.349 Q537.603 212.497 537.603 207.636 L537.603 193.562 L534.478 193.562 L534.478 190.252 L537.603 190.252 L537.603 182.891 L541.885 182.891 Z" fill="#000000" fill-rule="nonzero" fill-opacity="1" /></svg>
