<?xml version="1.0" encoding="utf-8"?>
<svg xmlns="http://www.w3.org/2000/svg" xmlns:xlink="http://www.w3.org/1999/xlink" width="600" height="400" viewBox="0 0 2400 1600">
<defs>
  <clipPath id="clip120">
    <rect x="0" y="0" width="2400" height="1600"/>
  </clipPath>
</defs>
<path clip-path="url(#clip120)" d="M0 1600 L2400 1600 L2400 0 L0 0  Z" fill="#ffffff" fill-rule="evenodd" fill-opacity="1"/>
<defs>
  <clipPath id="clip121">
    <rect x="480" y="0" width="1681" height="1600"/>
  </clipPath>
</defs>
<path clip-path="url(#clip120)" d="M192.339 1486.45 L2352.76 1486.45 L2352.76 47.2441 L192.339 47.2441  Z" fill="#ffffff" fill-rule="evenodd" fill-opacity="1"/>
<defs>
  <clipPath id="clip122">
    <rect x="192" y="47" width="2161" height="1440"/>
  </clipPath>
</defs>
<polyline clip-path="url(#clip122)" style="stroke:#000000; stroke-linecap:round; stroke-linejoin:round; stroke-width:2; stroke-opacity:0.1; fill:none" points="253.483,1486.45 253.483,47.2441 "/>
<polyline clip-path="url(#clip122)" style="stroke:#000000; stroke-linecap:round; stroke-linejoin:round; stroke-width:2; stroke-opacity:0.1; fill:none" points="763.015,1486.45 763.015,47.2441 "/>
<polyline clip-path="url(#clip122)" style="stroke:#000000; stroke-linecap:round; stroke-linejoin:round; stroke-width:2; stroke-opacity:0.1; fill:none" points="1272.55,1486.45 1272.55,47.2441 "/>
<polyline clip-path="url(#clip122)" style="stroke:#000000; stroke-linecap:round; stroke-linejoin:round; stroke-width:2; stroke-opacity:0.1; fill:none" points="1782.08,1486.45 1782.08,47.2441 "/>
<polyline clip-path="url(#clip122)" style="stroke:#000000; stroke-linecap:round; stroke-linejoin:round; stroke-width:2; stroke-opacity:0.1; fill:none" points="2291.61,1486.45 2291.61,47.2441 "/>
<polyline clip-path="url(#clip120)" style="stroke:#000000; stroke-linecap:round; stroke-linejoin:round; stroke-width:4; stroke-opacity:1; fill:none" points="192.339,1486.45 2352.76,1486.45 "/>
<polyline clip-path="url(#clip120)" style="stroke:#000000; stroke-linecap:round; stroke-linejoin:round; stroke-width:4; stroke-opacity:1; fill:none" points="253.483,1486.45 253.483,1467.55 "/>
<polyline clip-path="url(#clip120)" style="stroke:#000000; stroke-linecap:round; stroke-linejoin:round; stroke-width:4; stroke-opacity:1; fill:none" points="763.015,1486.45 763.015,1467.55 "/>
<polyline clip-path="url(#clip120)" style="stroke:#000000; stroke-linecap:round; stroke-linejoin:round; stroke-width:4; stroke-opacity:1; fill:none" points="1272.55,1486.45 1272.55,1467.55 "/>
<polyline clip-path="url(#clip120)" style="stroke:#000000; stroke-linecap:round; stroke-linejoin:round; stroke-width:4; stroke-opacity:1; fill:none" points="1782.08,1486.45 1782.08,1467.55 "/>
<polyline clip-path="url(#clip120)" style="stroke:#000000; stroke-linecap:round; stroke-linejoin:round; stroke-width:4; stroke-opacity:1; fill:none" points="2291.61,1486.45 2291.61,1467.55 "/>
<path clip-path="url(#clip120)" d="M200.011 1532.02 L229.686 1532.02 L229.686 1535.95 L200.011 1535.95 L200.011 1532.02 Z" fill="#000000" fill-rule="nonzero" fill-opacity="1" /><path clip-path="url(#clip120)" d="M240.589 1544.91 L248.228 1544.91 L248.228 1518.55 L239.918 1520.21 L239.918 1515.95 L248.182 1514.29 L252.858 1514.29 L252.858 1544.91 L260.497 1544.91 L260.497 1548.85 L240.589 1548.85 L240.589 1544.91 Z" fill="#000000" fill-rule="nonzero" fill-opacity="1" /><path clip-path="url(#clip120)" d="M269.941 1542.97 L274.825 1542.97 L274.825 1548.85 L269.941 1548.85 L269.941 1542.97 Z" fill="#000000" fill-rule="nonzero" fill-opacity="1" /><path clip-path="url(#clip120)" d="M295.01 1517.37 Q291.399 1517.37 289.57 1520.93 Q287.765 1524.47 287.765 1531.6 Q287.765 1538.71 289.57 1542.27 Q291.399 1545.82 295.01 1545.82 Q298.644 1545.82 300.45 1542.27 Q302.279 1538.71 302.279 1531.6 Q302.279 1524.47 300.45 1520.93 Q298.644 1517.37 295.01 1517.37 M295.01 1513.66 Q300.82 1513.66 303.876 1518.27 Q306.955 1522.85 306.955 1531.6 Q306.955 1540.33 303.876 1544.94 Q300.82 1549.52 295.01 1549.52 Q289.2 1549.52 286.121 1544.94 Q283.066 1540.33 283.066 1531.6 Q283.066 1522.85 286.121 1518.27 Q289.2 1513.66 295.01 1513.66 Z" fill="#000000" fill-rule="nonzero" fill-opacity="1" /><path clip-path="url(#clip120)" d="M710.041 1532.02 L739.717 1532.02 L739.717 1535.95 L710.041 1535.95 L710.041 1532.02 Z" fill="#000000" fill-rule="nonzero" fill-opacity="1" /><path clip-path="url(#clip120)" d="M759.809 1517.37 Q756.198 1517.37 754.369 1520.93 Q752.564 1524.47 752.564 1531.6 Q752.564 1538.71 754.369 1542.27 Q756.198 1545.82 759.809 1545.82 Q763.443 1545.82 765.249 1542.27 Q767.077 1538.71 767.077 1531.6 Q767.077 1524.47 765.249 1520.93 Q763.443 1517.37 759.809 1517.37 M759.809 1513.66 Q765.619 1513.66 768.675 1518.27 Q771.753 1522.85 771.753 1531.6 Q771.753 1540.33 768.675 1544.94 Q765.619 1549.52 759.809 1549.52 Q753.999 1549.52 750.92 1544.94 Q747.865 1540.33 747.865 1531.6 Q747.865 1522.85 750.92 1518.27 Q753.999 1513.66 759.809 1513.66 Z" fill="#000000" fill-rule="nonzero" fill-opacity="1" /><path clip-path="url(#clip120)" d="M779.971 1542.97 L784.855 1542.97 L784.855 1548.85 L779.971 1548.85 L779.971 1542.97 Z" fill="#000000" fill-rule="nonzero" fill-opacity="1" /><path clip-path="url(#clip120)" d="M795.087 1514.29 L813.443 1514.29 L813.443 1518.22 L799.369 1518.22 L799.369 1526.7 Q800.387 1526.35 801.406 1526.19 Q802.425 1526 803.443 1526 Q809.23 1526 812.61 1529.17 Q815.989 1532.34 815.989 1537.76 Q815.989 1543.34 812.517 1546.44 Q809.045 1549.52 802.725 1549.52 Q800.55 1549.52 798.281 1549.15 Q796.036 1548.78 793.628 1548.04 L793.628 1543.34 Q795.712 1544.47 797.934 1545.03 Q800.156 1545.58 802.633 1545.58 Q806.637 1545.58 808.975 1543.48 Q811.313 1541.37 811.313 1537.76 Q811.313 1534.15 808.975 1532.04 Q806.637 1529.94 802.633 1529.94 Q800.758 1529.94 798.883 1530.35 Q797.031 1530.77 795.087 1531.65 L795.087 1514.29 Z" fill="#000000" fill-rule="nonzero" fill-opacity="1" /><path clip-path="url(#clip120)" d="M1249.93 1517.37 Q1246.32 1517.37 1244.49 1520.93 Q1242.69 1524.47 1242.69 1531.6 Q1242.69 1538.71 1244.49 1542.27 Q1246.32 1545.82 1249.93 1545.82 Q1253.57 1545.82 1255.37 1542.27 Q1257.2 1538.71 1257.2 1531.6 Q1257.2 1524.47 1255.37 1520.93 Q1253.57 1517.37 1249.93 1517.37 M1249.93 1513.66 Q1255.74 1513.66 1258.8 1518.27 Q1261.88 1522.85 1261.88 1531.6 Q1261.88 1540.33 1258.8 1544.94 Q1255.74 1549.52 1249.93 1549.52 Q1244.12 1549.52 1241.04 1544.94 Q1237.99 1540.33 1237.99 1531.6 Q1237.99 1522.85 1241.04 1518.27 Q1244.12 1513.66 1249.93 1513.66 Z" fill="#000000" fill-rule="nonzero" fill-opacity="1" /><path clip-path="url(#clip120)" d="M1270.09 1542.97 L1274.98 1542.97 L1274.98 1548.85 L1270.09 1548.85 L1270.09 1542.97 Z" fill="#000000" fill-rule="nonzero" fill-opacity="1" /><path clip-path="url(#clip120)" d="M1295.16 1517.37 Q1291.55 1517.37 1289.72 1520.93 Q1287.92 1524.47 1287.92 1531.6 Q1287.92 1538.71 1289.72 1542.27 Q1291.55 1545.82 1295.16 1545.82 Q1298.8 1545.82 1300.6 1542.27 Q1302.43 1538.71 1302.43 1531.6 Q1302.43 1524.47 1300.6 1520.93 Q1298.8 1517.37 1295.16 1517.37 M1295.16 1513.66 Q1300.97 1513.66 1304.03 1518.27 Q1307.11 1522.85 1307.11 1531.6 Q1307.11 1540.33 1304.03 1544.94 Q1300.97 1549.52 1295.16 1549.52 Q1289.35 1549.52 1286.27 1544.94 Q1283.22 1540.33 1283.22 1531.6 Q1283.22 1522.85 1286.27 1518.27 Q1289.35 1513.66 1295.16 1513.66 Z" fill="#000000" fill-rule="nonzero" fill-opacity="1" /><path clip-path="url(#clip120)" d="M1759.96 1517.37 Q1756.35 1517.37 1754.52 1520.93 Q1752.72 1524.47 1752.72 1531.6 Q1752.72 1538.71 1754.52 1542.27 Q1756.35 1545.82 1759.96 1545.82 Q1763.6 1545.82 1765.4 1542.27 Q1767.23 1538.71 1767.23 1531.6 Q1767.23 1524.47 1765.4 1520.93 Q1763.6 1517.37 1759.96 1517.37 M1759.96 1513.66 Q1765.77 1513.66 1768.83 1518.27 Q1771.91 1522.85 1771.91 1531.6 Q1771.91 1540.33 1768.83 1544.94 Q1765.77 1549.52 1759.96 1549.52 Q1754.15 1549.52 1751.07 1544.94 Q1748.02 1540.33 1748.02 1531.6 Q1748.02 1522.85 1751.07 1518.27 Q1754.15 1513.66 1759.96 1513.66 Z" fill="#000000" fill-rule="nonzero" fill-opacity="1" /><path clip-path="url(#clip120)" d="M1780.12 1542.97 L1785.01 1542.97 L1785.01 1548.85 L1780.12 1548.85 L1780.12 1542.97 Z" fill="#000000" fill-rule="nonzero" fill-opacity="1" /><path clip-path="url(#clip120)" d="M1795.24 1514.29 L1813.6 1514.29 L1813.6 1518.22 L1799.52 1518.22 L1799.52 1526.7 Q1800.54 1526.35 1801.56 1526.19 Q1802.58 1526 1803.6 1526 Q1809.38 1526 1812.76 1529.17 Q1816.14 1532.34 1816.14 1537.76 Q1816.14 1543.34 1812.67 1546.44 Q1809.2 1549.52 1802.88 1549.52 Q1800.7 1549.52 1798.43 1549.15 Q1796.19 1548.78 1793.78 1548.04 L1793.78 1543.34 Q1795.86 1544.47 1798.09 1545.03 Q1800.31 1545.58 1802.79 1545.58 Q1806.79 1545.58 1809.13 1543.48 Q1811.47 1541.37 1811.47 1537.76 Q1811.47 1534.15 1809.13 1532.04 Q1806.79 1529.94 1802.79 1529.94 Q1800.91 1529.94 1799.04 1530.35 Q1797.18 1530.77 1795.24 1531.65 L1795.24 1514.29 Z" fill="#000000" fill-rule="nonzero" fill-opacity="1" /><path clip-path="url(#clip120)" d="M2258.76 1544.91 L2266.4 1544.91 L2266.4 1518.55 L2258.09 1520.21 L2258.09 1515.95 L2266.36 1514.29 L2271.03 1514.29 L2271.03 1544.91 L2278.67 1544.91 L2278.67 1548.85 L2258.76 1548.85 L2258.76 1544.91 Z" fill="#000000" fill-rule="nonzero" fill-opacity="1" /><path clip-path="url(#clip120)" d="M2288.12 1542.97 L2293 1542.97 L2293 1548.85 L2288.12 1548.85 L2288.12 1542.97 Z" fill="#000000" fill-rule="nonzero" fill-opacity="1" /><path clip-path="url(#clip120)" d="M2313.19 1517.37 Q2309.57 1517.37 2307.75 1520.93 Q2305.94 1524.47 2305.94 1531.6 Q2305.94 1538.71 2307.75 1542.27 Q2309.57 1545.82 2313.19 1545.82 Q2316.82 1545.82 2318.63 1542.27 Q2320.45 1538.71 2320.45 1531.6 Q2320.45 1524.47 2318.63 1520.93 Q2316.82 1517.37 2313.19 1517.37 M2313.19 1513.66 Q2319 1513.66 2322.05 1518.27 Q2325.13 1522.85 2325.13 1531.6 Q2325.13 1540.33 2322.05 1544.94 Q2319 1549.52 2313.19 1549.52 Q2307.38 1549.52 2304.3 1544.94 Q2301.24 1540.33 2301.24 1531.6 Q2301.24 1522.85 2304.3 1518.27 Q2307.38 1513.66 2313.19 1513.66 Z" fill="#000000" fill-rule="nonzero" fill-opacity="1" /><polyline clip-path="url(#clip122)" style="stroke:#000000; stroke-linecap:round; stroke-linejoin:round; stroke-width:2; stroke-opacity:0.1; fill:none" points="192.339,1356.98 2352.76,1356.98 "/>
<polyline clip-path="url(#clip122)" style="stroke:#000000; stroke-linecap:round; stroke-linejoin:round; stroke-width:2; stroke-opacity:0.1; fill:none" points="192.339,1185.3 2352.76,1185.3 "/>
<polyline clip-path="url(#clip122)" style="stroke:#000000; stroke-linecap:round; stroke-linejoin:round; stroke-width:2; stroke-opacity:0.1; fill:none" points="192.339,1013.61 2352.76,1013.61 "/>
<polyline clip-path="url(#clip122)" style="stroke:#000000; stroke-linecap:round; stroke-linejoin:round; stroke-width:2; stroke-opacity:0.1; fill:none" points="192.339,841.931 2352.76,841.931 "/>
<polyline clip-path="url(#clip122)" style="stroke:#000000; stroke-linecap:round; stroke-linejoin:round; stroke-width:2; stroke-opacity:0.1; fill:none" points="192.339,670.249 2352.76,670.249 "/>
<polyline clip-path="url(#clip122)" style="stroke:#000000; stroke-linecap:round; stroke-linejoin:round; stroke-width:2; stroke-opacity:0.1; fill:none" points="192.339,498.567 2352.76,498.567 "/>
<polyline clip-path="url(#clip122)" style="stroke:#000000; stroke-linecap:round; stroke-linejoin:round; stroke-width:2; stroke-opacity:0.1; fill:none" points="192.339,326.885 2352.76,326.885 "/>
<polyline clip-path="url(#clip122)" style="stroke:#000000; stroke-linecap:round; stroke-linejoin:round; stroke-width:2; stroke-opacity:0.1; fill:none" points="192.339,155.203 2352.76,155.203 "/>
<polyline clip-path="url(#clip120)" style="stroke:#000000; stroke-linecap:round; stroke-linejoin:round; stroke-width:4; stroke-opacity:1; fill:none" points="192.339,1486.45 192.339,47.2441 "/>
<polyline clip-path="url(#clip120)" style="stroke:#000000; stroke-linecap:round; stroke-linejoin:round; stroke-width:4; stroke-opacity:1; fill:none" points="192.339,1356.98 211.236,1356.98 "/>
<polyline clip-path="url(#clip120)" style="stroke:#000000; stroke-linecap:round; stroke-linejoin:round; stroke-width:4; stroke-opacity:1; fill:none" points="192.339,1185.3 211.236,1185.3 "/>
<polyline clip-path="url(#clip120)" style="stroke:#000000; stroke-linecap:round; stroke-linejoin:round; stroke-width:4; stroke-opacity:1; fill:none" points="192.339,1013.61 211.236,1013.61 "/>
<polyline clip-path="url(#clip120)" style="stroke:#000000; stroke-linecap:round; stroke-linejoin:round; stroke-width:4; stroke-opacity:1; fill:none" points="192.339,841.931 211.236,841.931 "/>
<polyline clip-path="url(#clip120)" style="stroke:#000000; stroke-linecap:round; stroke-linejoin:round; stroke-width:4; stroke-opacity:1; fill:none" points="192.339,670.249 211.236,670.249 "/>
<polyline clip-path="url(#clip120)" style="stroke:#000000; stroke-linecap:round; stroke-linejoin:round; stroke-width:4; stroke-opacity:1; fill:none" points="192.339,498.567 211.236,498.567 "/>
<polyline clip-path="url(#clip120)" style="stroke:#000000; stroke-linecap:round; stroke-linejoin:round; stroke-width:4; stroke-opacity:1; fill:none" points="192.339,326.885 211.236,326.885 "/>
<polyline clip-path="url(#clip120)" style="stroke:#000000; stroke-linecap:round; stroke-linejoin:round; stroke-width:4; stroke-opacity:1; fill:none" points="192.339,155.203 211.236,155.203 "/>
<path clip-path="url(#clip120)" d="M50.9921 1357.43 L80.6679 1357.43 L80.6679 1361.36 L50.9921 1361.36 L50.9921 1357.43 Z" fill="#000000" fill-rule="nonzero" fill-opacity="1" /><path clip-path="url(#clip120)" d="M100.76 1342.78 Q97.1493 1342.78 95.3206 1346.34 Q93.515 1349.88 93.515 1357.01 Q93.515 1364.12 95.3206 1367.68 Q97.1493 1371.23 100.76 1371.23 Q104.395 1371.23 106.2 1367.68 Q108.029 1364.12 108.029 1357.01 Q108.029 1349.88 106.2 1346.34 Q104.395 1342.78 100.76 1342.78 M100.76 1339.07 Q106.571 1339.07 109.626 1343.68 Q112.705 1348.26 112.705 1357.01 Q112.705 1365.74 109.626 1370.35 Q106.571 1374.93 100.76 1374.93 Q94.9502 1374.93 91.8715 1370.35 Q88.816 1365.74 88.816 1357.01 Q88.816 1348.26 91.8715 1343.68 Q94.9502 1339.07 100.76 1339.07 Z" fill="#000000" fill-rule="nonzero" fill-opacity="1" /><path clip-path="url(#clip120)" d="M120.922 1368.38 L125.807 1368.38 L125.807 1374.26 L120.922 1374.26 L120.922 1368.38 Z" fill="#000000" fill-rule="nonzero" fill-opacity="1" /><path clip-path="url(#clip120)" d="M140.019 1370.32 L156.339 1370.32 L156.339 1374.26 L134.394 1374.26 L134.394 1370.32 Q137.056 1367.57 141.64 1362.94 Q146.246 1358.29 147.427 1356.94 Q149.672 1354.42 150.552 1352.68 Q151.455 1350.92 151.455 1349.23 Q151.455 1346.48 149.51 1344.74 Q147.589 1343.01 144.487 1343.01 Q142.288 1343.01 139.834 1343.77 Q137.404 1344.54 134.626 1346.09 L134.626 1341.36 Q137.45 1340.23 139.904 1339.65 Q142.357 1339.07 144.394 1339.07 Q149.765 1339.07 152.959 1341.76 Q156.154 1344.44 156.154 1348.93 Q156.154 1351.06 155.343 1352.98 Q154.556 1354.88 152.45 1357.48 Q151.871 1358.15 148.769 1361.36 Q145.668 1364.56 140.019 1370.32 Z" fill="#000000" fill-rule="nonzero" fill-opacity="1" /><path clip-path="url(#clip120)" d="M99.1632 1171.09 Q95.5521 1171.09 93.7234 1174.66 Q91.9178 1178.2 91.9178 1185.33 Q91.9178 1192.44 93.7234 1196 Q95.5521 1199.54 99.1632 1199.54 Q102.797 1199.54 104.603 1196 Q106.432 1192.44 106.432 1185.33 Q106.432 1178.2 104.603 1174.66 Q102.797 1171.09 99.1632 1171.09 M99.1632 1167.39 Q104.973 1167.39 108.029 1172 Q111.108 1176.58 111.108 1185.33 Q111.108 1194.06 108.029 1198.66 Q104.973 1203.25 99.1632 1203.25 Q93.353 1203.25 90.2743 1198.66 Q87.2188 1194.06 87.2188 1185.33 Q87.2188 1176.58 90.2743 1172 Q93.353 1167.39 99.1632 1167.39 Z" fill="#000000" fill-rule="nonzero" fill-opacity="1" /><path clip-path="url(#clip120)" d="M119.325 1196.7 L124.209 1196.7 L124.209 1202.58 L119.325 1202.58 L119.325 1196.7 Z" fill="#000000" fill-rule="nonzero" fill-opacity="1" /><path clip-path="url(#clip120)" d="M144.394 1171.09 Q140.783 1171.09 138.955 1174.66 Q137.149 1178.2 137.149 1185.33 Q137.149 1192.44 138.955 1196 Q140.783 1199.54 144.394 1199.54 Q148.029 1199.54 149.834 1196 Q151.663 1192.44 151.663 1185.33 Q151.663 1178.2 149.834 1174.66 Q148.029 1171.09 144.394 1171.09 M144.394 1167.39 Q150.205 1167.39 153.26 1172 Q156.339 1176.58 156.339 1185.33 Q156.339 1194.06 153.26 1198.66 Q150.205 1203.25 144.394 1203.25 Q138.584 1203.25 135.506 1198.66 Q132.45 1194.06 132.45 1185.33 Q132.45 1176.58 135.506 1172 Q138.584 1167.39 144.394 1167.39 Z" fill="#000000" fill-rule="nonzero" fill-opacity="1" /><path clip-path="url(#clip120)" d="M100.76 999.412 Q97.1493 999.412 95.3206 1002.98 Q93.515 1006.52 93.515 1013.65 Q93.515 1020.75 95.3206 1024.32 Q97.1493 1027.86 100.76 1027.86 Q104.395 1027.86 106.2 1024.32 Q108.029 1020.75 108.029 1013.65 Q108.029 1006.52 106.2 1002.98 Q104.395 999.412 100.76 999.412 M100.76 995.709 Q106.571 995.709 109.626 1000.31 Q112.705 1004.9 112.705 1013.65 Q112.705 1022.38 109.626 1026.98 Q106.571 1031.56 100.76 1031.56 Q94.9502 1031.56 91.8715 1026.98 Q88.816 1022.38 88.816 1013.65 Q88.816 1004.9 91.8715 1000.31 Q94.9502 995.709 100.76 995.709 Z" fill="#000000" fill-rule="nonzero" fill-opacity="1" /><path clip-path="url(#clip120)" d="M120.922 1025.01 L125.807 1025.01 L125.807 1030.89 L120.922 1030.89 L120.922 1025.01 Z" fill="#000000" fill-rule="nonzero" fill-opacity="1" /><path clip-path="url(#clip120)" d="M140.019 1026.96 L156.339 1026.96 L156.339 1030.89 L134.394 1030.89 L134.394 1026.96 Q137.056 1024.2 141.64 1019.57 Q146.246 1014.92 147.427 1013.58 Q149.672 1011.06 150.552 1009.32 Q151.455 1007.56 151.455 1005.87 Q151.455 1003.12 149.51 1001.38 Q147.589 999.644 144.487 999.644 Q142.288 999.644 139.834 1000.41 Q137.404 1001.17 134.626 1002.72 L134.626 998 Q137.45 996.866 139.904 996.287 Q142.357 995.709 144.394 995.709 Q149.765 995.709 152.959 998.394 Q156.154 1001.08 156.154 1005.57 Q156.154 1007.7 155.343 1009.62 Q154.556 1011.52 152.45 1014.11 Q151.871 1014.78 148.769 1018 Q145.668 1021.19 140.019 1026.96 Z" fill="#000000" fill-rule="nonzero" fill-opacity="1" /><path clip-path="url(#clip120)" d="M98.6771 827.73 Q95.066 827.73 93.2373 831.295 Q91.4317 834.836 91.4317 841.966 Q91.4317 849.073 93.2373 852.637 Q95.066 856.179 98.6771 856.179 Q102.311 856.179 104.117 852.637 Q105.946 849.073 105.946 841.966 Q105.946 834.836 104.117 831.295 Q102.311 827.73 98.6771 827.73 M98.6771 824.026 Q104.487 824.026 107.543 828.633 Q110.621 833.216 110.621 841.966 Q110.621 850.693 107.543 855.299 Q104.487 859.883 98.6771 859.883 Q92.8669 859.883 89.7882 855.299 Q86.7327 850.693 86.7327 841.966 Q86.7327 833.216 89.7882 828.633 Q92.8669 824.026 98.6771 824.026 Z" fill="#000000" fill-rule="nonzero" fill-opacity="1" /><path clip-path="url(#clip120)" d="M118.839 853.332 L123.723 853.332 L123.723 859.211 L118.839 859.211 L118.839 853.332 Z" fill="#000000" fill-rule="nonzero" fill-opacity="1" /><path clip-path="url(#clip120)" d="M146.756 828.725 L134.95 847.174 L146.756 847.174 L146.756 828.725 M145.529 824.651 L151.408 824.651 L151.408 847.174 L156.339 847.174 L156.339 851.063 L151.408 851.063 L151.408 859.211 L146.756 859.211 L146.756 851.063 L131.154 851.063 L131.154 846.549 L145.529 824.651 Z" fill="#000000" fill-rule="nonzero" fill-opacity="1" /><path clip-path="url(#clip120)" d="M99.0011 656.048 Q95.39 656.048 93.5613 659.613 Q91.7558 663.154 91.7558 670.284 Q91.7558 677.39 93.5613 680.955 Q95.39 684.497 99.0011 684.497 Q102.635 684.497 104.441 680.955 Q106.27 677.39 106.27 670.284 Q106.27 663.154 104.441 659.613 Q102.635 656.048 99.0011 656.048 M99.0011 652.344 Q104.811 652.344 107.867 656.951 Q110.946 661.534 110.946 670.284 Q110.946 679.011 107.867 683.617 Q104.811 688.2 99.0011 688.2 Q93.191 688.2 90.1123 683.617 Q87.0567 679.011 87.0567 670.284 Q87.0567 661.534 90.1123 656.951 Q93.191 652.344 99.0011 652.344 Z" fill="#000000" fill-rule="nonzero" fill-opacity="1" /><path clip-path="url(#clip120)" d="M119.163 681.65 L124.047 681.65 L124.047 687.529 L119.163 687.529 L119.163 681.65 Z" fill="#000000" fill-rule="nonzero" fill-opacity="1" /><path clip-path="url(#clip120)" d="M144.811 668.386 Q141.663 668.386 139.811 670.539 Q137.982 672.691 137.982 676.441 Q137.982 680.168 139.811 682.344 Q141.663 684.497 144.811 684.497 Q147.959 684.497 149.788 682.344 Q151.64 680.168 151.64 676.441 Q151.64 672.691 149.788 670.539 Q147.959 668.386 144.811 668.386 M154.093 653.733 L154.093 657.992 Q152.334 657.159 150.529 656.719 Q148.746 656.279 146.987 656.279 Q142.357 656.279 139.904 659.404 Q137.473 662.529 137.126 668.849 Q138.492 666.835 140.552 665.77 Q142.612 664.682 145.089 664.682 Q150.297 664.682 153.306 667.853 Q156.339 671.001 156.339 676.441 Q156.339 681.765 153.191 684.983 Q150.043 688.2 144.811 688.2 Q138.816 688.2 135.644 683.617 Q132.473 679.011 132.473 670.284 Q132.473 662.089 136.362 657.228 Q140.251 652.344 146.802 652.344 Q148.561 652.344 150.343 652.691 Q152.149 653.039 154.093 653.733 Z" fill="#000000" fill-rule="nonzero" fill-opacity="1" /><path clip-path="url(#clip120)" d="M99.2558 484.366 Q95.6447 484.366 93.816 487.93 Q92.0104 491.472 92.0104 498.602 Q92.0104 505.708 93.816 509.273 Q95.6447 512.815 99.2558 512.815 Q102.89 512.815 104.696 509.273 Q106.524 505.708 106.524 498.602 Q106.524 491.472 104.696 487.93 Q102.89 484.366 99.2558 484.366 M99.2558 480.662 Q105.066 480.662 108.121 485.268 Q111.2 489.852 111.2 498.602 Q111.2 507.329 108.121 511.935 Q105.066 516.518 99.2558 516.518 Q93.4456 516.518 90.3669 511.935 Q87.3114 507.329 87.3114 498.602 Q87.3114 489.852 90.3669 485.268 Q93.4456 480.662 99.2558 480.662 Z" fill="#000000" fill-rule="nonzero" fill-opacity="1" /><path clip-path="url(#clip120)" d="M119.418 509.967 L124.302 509.967 L124.302 515.847 L119.418 515.847 L119.418 509.967 Z" fill="#000000" fill-rule="nonzero" fill-opacity="1" /><path clip-path="url(#clip120)" d="M144.487 499.435 Q141.154 499.435 139.232 501.217 Q137.334 503 137.334 506.125 Q137.334 509.25 139.232 511.032 Q141.154 512.815 144.487 512.815 Q147.82 512.815 149.742 511.032 Q151.663 509.227 151.663 506.125 Q151.663 503 149.742 501.217 Q147.843 499.435 144.487 499.435 M139.811 497.444 Q136.802 496.704 135.112 494.643 Q133.445 492.583 133.445 489.62 Q133.445 485.477 136.385 483.069 Q139.348 480.662 144.487 480.662 Q149.649 480.662 152.589 483.069 Q155.529 485.477 155.529 489.62 Q155.529 492.583 153.839 494.643 Q152.172 496.704 149.186 497.444 Q152.566 498.231 154.441 500.523 Q156.339 502.815 156.339 506.125 Q156.339 511.148 153.26 513.833 Q150.205 516.518 144.487 516.518 Q138.769 516.518 135.691 513.833 Q132.635 511.148 132.635 506.125 Q132.635 502.815 134.533 500.523 Q136.431 498.231 139.811 497.444 M138.098 490.06 Q138.098 492.745 139.765 494.25 Q141.455 495.755 144.487 495.755 Q147.496 495.755 149.186 494.25 Q150.899 492.745 150.899 490.06 Q150.899 487.375 149.186 485.87 Q147.496 484.366 144.487 484.366 Q141.455 484.366 139.765 485.87 Q138.098 487.375 138.098 490.06 Z" fill="#000000" fill-rule="nonzero" fill-opacity="1" /><path clip-path="url(#clip120)" d="M89.9734 340.23 L97.6122 340.23 L97.6122 313.864 L89.3021 315.531 L89.3021 311.271 L97.566 309.605 L102.242 309.605 L102.242 340.23 L109.881 340.23 L109.881 344.165 L89.9734 344.165 L89.9734 340.23 Z" fill="#000000" fill-rule="nonzero" fill-opacity="1" /><path clip-path="url(#clip120)" d="M119.325 338.285 L124.209 338.285 L124.209 344.165 L119.325 344.165 L119.325 338.285 Z" fill="#000000" fill-rule="nonzero" fill-opacity="1" /><path clip-path="url(#clip120)" d="M144.394 312.684 Q140.783 312.684 138.955 316.248 Q137.149 319.79 137.149 326.92 Q137.149 334.026 138.955 337.591 Q140.783 341.132 144.394 341.132 Q148.029 341.132 149.834 337.591 Q151.663 334.026 151.663 326.92 Q151.663 319.79 149.834 316.248 Q148.029 312.684 144.394 312.684 M144.394 308.98 Q150.205 308.98 153.26 313.586 Q156.339 318.17 156.339 326.92 Q156.339 335.646 153.26 340.253 Q150.205 344.836 144.394 344.836 Q138.584 344.836 135.506 340.253 Q132.45 335.646 132.45 326.92 Q132.45 318.17 135.506 313.586 Q138.584 308.98 144.394 308.98 Z" fill="#000000" fill-rule="nonzero" fill-opacity="1" /><path clip-path="url(#clip120)" d="M91.5706 168.547 L99.2095 168.547 L99.2095 142.182 L90.8993 143.849 L90.8993 139.589 L99.1632 137.923 L103.839 137.923 L103.839 168.547 L111.478 168.547 L111.478 172.483 L91.5706 172.483 L91.5706 168.547 Z" fill="#000000" fill-rule="nonzero" fill-opacity="1" /><path clip-path="url(#clip120)" d="M120.922 166.603 L125.807 166.603 L125.807 172.483 L120.922 172.483 L120.922 166.603 Z" fill="#000000" fill-rule="nonzero" fill-opacity="1" /><path clip-path="url(#clip120)" d="M140.019 168.547 L156.339 168.547 L156.339 172.483 L134.394 172.483 L134.394 168.547 Q137.056 165.793 141.64 161.163 Q146.246 156.511 147.427 155.168 Q149.672 152.645 150.552 150.909 Q151.455 149.149 151.455 147.46 Q151.455 144.705 149.51 142.969 Q147.589 141.233 144.487 141.233 Q142.288 141.233 139.834 141.997 Q137.404 142.761 134.626 144.312 L134.626 139.589 Q137.45 138.455 139.904 137.876 Q142.357 137.298 144.394 137.298 Q149.765 137.298 152.959 139.983 Q156.154 142.668 156.154 147.159 Q156.154 149.288 155.343 151.21 Q154.556 153.108 152.45 155.7 Q151.871 156.372 148.769 159.589 Q145.668 162.784 140.019 168.547 Z" fill="#000000" fill-rule="nonzero" fill-opacity="1" /><polyline clip-path="url(#clip122)" style="stroke:#009af9; stroke-linecap:round; stroke-linejoin:round; stroke-width:16; stroke-opacity:1; fill:none" stroke-dasharray="8, 16" points="253.483,1056.36 263.725,976.302 273.966,945.048 284.208,960.372 294.45,1010.25 304.692,1057.72 314.934,1077.16 325.176,1075.69 335.418,1062.63 345.659,1020.31 355.901,965.54 366.143,992.475 376.385,1136.98 386.627,1310.98 396.869,1415.42 407.111,1404.45 417.352,1312.15 427.594,1240.25 437.836,1248.7 448.078,1304.32 458.32,1347.56 468.562,1357.92 478.803,1351.44 489.045,1346.73 499.287,1339.89 509.529,1307.34 519.771,1248.65 530.013,1215 540.255,1226.95 550.497,1238.73 560.738,1226.77 570.98,1192.24 581.222,1139.29 591.464,1085.25 601.706,1047.62 611.948,1028.24 622.19,1023.65 632.431,1030.39 642.673,1034.36 652.915,1028.75 663.157,1023.77 673.399,1024.52 683.641,1031.34 693.882,1047.94 704.124,1078.09 714.366,1116.19 724.608,1142.7 734.85,1154.59 745.092,1183.58 755.334,1244.29 765.575,1304.64 775.817,1325.95 786.059,1318.76 796.301,1334.59 806.543,1394.28 816.785,1445.72 827.027,1422.32 837.268,1343.36 847.51,1276.66 857.752,1253.73 867.994,1268.91 878.236,1297.19 888.478,1295.62 898.72,1252.22 908.961,1205.75 919.203,1178.27 929.445,1156.73 939.687,1138.47 949.929,1117.12 960.171,1068.09 970.413,998.276 980.654,950.528 990.896,955.019 1001.14,1007.08 1011.38,1074.3 1021.62,1115.14 1031.86,1105.99 1042.11,1059.22 1052.35,1020.66 1062.59,1029.96 1072.83,1076.58 1083.07,1140.08 1093.31,1225.55 1103.56,1314.66 1113.8,1346.45 1124.04,1297.56 1134.28,1243.97 1144.52,1257.23 1154.77,1306.93 1165.01,1343.8 1175.25,1357.65 1185.49,1356.55 1195.73,1349.41 1205.98,1341.34 1216.22,1335.28 1226.46,1333.65 1236.7,1331.88 1246.94,1296.7 1257.18,1148.62 1267.43,840.417 1277.67,515.487 1287.91,351.415 1298.15,320.163 1308.39,335.714 1318.64,350.434 1328.88,349.487 1339.12,335.771 1349.36,317.023 1359.6,301.722 1369.84,299.04 1380.09,316.891 1390.33,355.463 1400.57,391.77 1410.81,375.173 1421.05,296.909 1431.3,238.418 1441.54,258.089 1451.78,323.157 1462.02,378.467 1472.26,403.097 1482.51,392.594 1492.75,339.442 1502.99,262.273 1513.23,205.399 1523.47,201.295 1533.71,256.767 1543.96,349.764 1554.2,436.505 1564.44,474.523 1574.68,446.876 1584.92,377.478 1595.17,311.405 1605.41,265.428 1615.65,236.057 1625.89,237.727 1636.13,264.272 1646.38,283.819 1656.62,307.43 1666.86,369.682 1677.1,453.377 1687.34,507.783 1697.58,493.148 1707.83,391.823 1718.07,248.489 1728.31,164.437 1738.55,173.493 1748.79,204.862 1759.04,219.483 1769.28,250.599 1779.52,323.069 1789.76,407.704 1800,453.256 1810.24,437.114 1820.49,389.398 1830.73,350.382 1840.97,315.175 1851.21,267.461 1861.45,217.77 1871.7,193.461 1881.94,217.229 1892.18,285.917 1902.42,373.705 1912.66,452.519 1922.91,494.167 1933.15,483.886 1943.39,429.074 1953.63,339.893 1963.87,233.564 1974.11,147.223 1984.36,114.86 1994.6,151.43 2004.84,268.197 2015.08,426.893 2025.32,526.707 2035.57,539.027 2045.81,504.855 2056.05,441.658 2066.29,353.446 2076.53,262.583 2086.77,203.96 2097.02,200.086 2107.26,237.268 2117.5,263.369 2127.74,239.494 2137.98,214.433 2148.23,281.983 2158.47,434.301 2168.71,560.826 2178.95,555.796 2189.19,405.957 2199.44,225.959 2209.68,137.314 2219.92,143.208 2230.16,186.127 2240.4,243.307 2250.64,322.442 2260.89,418.171 2271.13,501.861 2281.37,547.965 2291.61,540.452 "/>
<polyline clip-path="url(#clip122)" style="stroke:#e26f46; stroke-linecap:round; stroke-linejoin:round; stroke-width:4; stroke-opacity:1; fill:none" points="253.483,1056.36 263.725,1038.07 273.966,1024.58 284.208,1016.34 294.45,1013.61 304.692,1016.49 314.934,1024.87 325.176,1038.49 335.418,1056.91 345.659,1079.51 355.901,1105.56 366.143,1134.22 376.385,1164.54 386.627,1195.54 396.869,1226.21 407.111,1255.54 417.352,1282.58 427.594,1306.44 437.836,1326.35 448.078,1341.66 458.32,1351.86 468.562,1356.63 478.803,1355.8 489.045,1349.41 499.287,1337.67 509.529,1320.95 519.771,1299.8 530.013,1274.92 540.255,1247.11 550.497,1217.28 560.738,1186.41 570.98,1155.5 581.222,1125.57 591.464,1097.58 601.706,1072.46 611.948,1051.02 622.19,1033.97 632.431,1021.85 642.673,1015.06 652.915,1013.84 663.157,1018.2 673.399,1028.02 683.641,1042.98 693.882,1062.58 704.124,1086.18 714.366,1113.02 724.608,1142.22 734.85,1172.82 745.092,1203.83 755.334,1234.24 765.575,1263.05 775.817,1289.32 786.059,1312.2 796.301,1330.93 806.543,1344.91 816.785,1353.68 827.027,1356.96 837.268,1354.63 847.51,1346.78 857.752,1333.65 867.994,1315.69 878.236,1293.47 888.478,1267.72 898.72,1239.27 908.961,1209.07 919.203,1178.09 929.445,1147.35 939.687,1117.84 949.929,1090.54 960.171,1066.33 970.413,1046 980.654,1030.21 990.896,1019.49 1001.14,1014.18 1011.38,1014.46 1021.62,1020.31 1031.86,1031.55 1042.11,1047.8 1052.35,1068.54 1062.59,1093.09 1072.83,1120.65 1083.07,1150.32 1093.31,1181.14 1103.56,1212.08 1113.8,1242.16 1124.04,1270.37 1134.28,1295.82 1144.52,1317.65 1154.77,1335.16 1165.01,1347.79 1175.25,1355.11 1185.49,1356.88 1195.73,1353.06 1205.98,1343.76 1216.22,1329.29 1226.46,1310.12 1236.7,1286.88 1246.94,1260.32 1257.18,1231.31 1267.43,1200.8 1277.67,325.638 1287.91,324.219 1298.15,325.511 1308.39,329.809 1318.64,335.797 1328.88,340.945 1339.12,342.47 1349.36,338.509 1359.6,329.066 1369.84,316.337 1380.09,304.223 1390.33,297.147 1400.57,298.505 1410.81,309.301 1421.05,327.461 1431.3,348.129 1441.54,364.959 1451.78,372.058 1462.02,365.981 1472.26,347.125 1482.51,320.004 1492.75,292.209 1502.99,272.288 1513.23,267.128 1523.47,279.638 1533.71,307.509 1543.96,343.504 1554.2,377.316 1564.44,398.523 1574.68,399.779 1584.92,379.291 1595.17,341.744 1605.41,297.298 1615.65,258.852 1625.89,238.3 1636.13,242.87 1646.38,272.666 1656.62,320.233 1666.86,372.378 1677.1,413.828 1687.34,431.699 1697.58,419.479 1707.83,379.294 1718.07,321.697 1728.31,262.921 1738.55,220.303 1748.79,207.178 1759.04,228.73 1769.28,280.1 1779.52,347.395 1789.76,411.435 1800,453.216 1810.24,459.544 1820.49,427.171 1830.73,364.134 1840.97,287.813 1851.21,220.149 1861.45,181.331 1871.7,183.785 1881.94,228.237 1892.18,303.09 1902.42,387.424 1912.66,456.833 1922.91,490.49 1933.15,477.383 1943.39,419.871 1953.63,333.4 1963.87,242.386 1974.11,173.315 1984.36,147.041 1994.6,172.502 2004.84,243.755 2015.08,341.286 2025.32,437.344 2035.57,503.835 2045.81,520.536 2056.05,481.228 2066.29,395.89 2076.53,288.212 2086.77,189.023 2097.02,127.468 2107.26,122.447 2117.5,176.835 2127.74,276.247 2137.98,392.81 2148.23,492.977 2158.47,547.178 2168.71,538.548 2178.95,468.14 2189.19,355.034 2199.44,231.185 2209.68,132.397 2219.92,87.9763 2230.16,112.041 2240.4,199.077 2250.64,325.122 2260.89,454.346 2271.13,549.241 2281.37,581.499 2291.61,540.451 "/>
<path clip-path="url(#clip120)" d="M264.353 250.738 L707.222 250.738 L707.222 95.2176 L264.353 95.2176  Z" fill="#ffffff" fill-rule="evenodd" fill-opacity="1"/>
<polyline clip-path="url(#clip120)" style="stroke:#000000; stroke-linecap:round; stroke-linejoin:round; stroke-width:4; stroke-opacity:1; fill:none" points="264.353,250.738 707.222,250.738 707.222,95.2176 264.353,95.2176 264.353,250.738 "/>
<polyline clip-path="url(#clip120)" style="stroke:#009af9; stroke-linecap:round; stroke-linejoin:round; stroke-width:16; stroke-opacity:1; fill:none" stroke-dasharray="8, 16" points="288.357,147.058 432.385,147.058 "/>
<path clip-path="url(#clip120)" d="M461.066 133.62 L461.066 146.606 L466.945 146.606 Q470.209 146.606 471.992 144.916 Q473.774 143.227 473.774 140.102 Q473.774 137 471.992 135.31 Q470.209 133.62 466.945 133.62 L461.066 133.62 M456.39 129.778 L466.945 129.778 Q472.755 129.778 475.718 132.416 Q478.704 135.032 478.704 140.102 Q478.704 145.217 475.718 147.833 Q472.755 150.449 466.945 150.449 L461.066 150.449 L461.066 164.338 L456.39 164.338 L456.39 129.778 Z" fill="#000000" fill-rule="nonzero" fill-opacity="1" /><path clip-path="url(#clip120)" d="M498.982 142.393 Q498.265 141.977 497.408 141.791 Q496.575 141.583 495.556 141.583 Q491.945 141.583 490.001 143.944 Q488.079 146.282 488.079 150.68 L488.079 164.338 L483.797 164.338 L483.797 138.412 L488.079 138.412 L488.079 142.44 Q489.422 140.078 491.575 138.944 Q493.728 137.787 496.806 137.787 Q497.246 137.787 497.778 137.856 Q498.311 137.903 498.959 138.018 L498.982 142.393 Z" fill="#000000" fill-rule="nonzero" fill-opacity="1" /><path clip-path="url(#clip120)" d="M524.584 150.31 L524.584 152.393 L505.001 152.393 Q505.278 156.791 507.639 159.106 Q510.024 161.398 514.26 161.398 Q516.714 161.398 519.005 160.796 Q521.32 160.194 523.588 158.99 L523.588 163.018 Q521.297 163.99 518.889 164.5 Q516.482 165.009 514.005 165.009 Q507.802 165.009 504.167 161.398 Q500.556 157.787 500.556 151.629 Q500.556 145.264 503.982 141.537 Q507.431 137.787 513.264 137.787 Q518.496 137.787 521.528 141.166 Q524.584 144.523 524.584 150.31 M520.325 149.06 Q520.278 145.565 518.357 143.481 Q516.459 141.398 513.311 141.398 Q509.746 141.398 507.593 143.412 Q505.464 145.426 505.14 149.083 L520.325 149.06 Z" fill="#000000" fill-rule="nonzero" fill-opacity="1" /><path clip-path="url(#clip120)" d="M548.635 142.347 L548.635 128.319 L552.894 128.319 L552.894 164.338 L548.635 164.338 L548.635 160.449 Q547.292 162.763 545.232 163.898 Q543.195 165.009 540.325 165.009 Q535.625 165.009 532.663 161.259 Q529.723 157.509 529.723 151.398 Q529.723 145.287 532.663 141.537 Q535.625 137.787 540.325 137.787 Q543.195 137.787 545.232 138.921 Q547.292 140.032 548.635 142.347 M534.121 151.398 Q534.121 156.097 536.042 158.782 Q537.987 161.444 541.366 161.444 Q544.746 161.444 546.69 158.782 Q548.635 156.097 548.635 151.398 Q548.635 146.699 546.69 144.037 Q544.746 141.352 541.366 141.352 Q537.987 141.352 536.042 144.037 Q534.121 146.699 534.121 151.398 Z" fill="#000000" fill-rule="nonzero" fill-opacity="1" /><path clip-path="url(#clip120)" d="M561.667 138.412 L565.926 138.412 L565.926 164.338 L561.667 164.338 L561.667 138.412 M561.667 128.319 L565.926 128.319 L565.926 133.713 L561.667 133.713 L561.667 128.319 Z" fill="#000000" fill-rule="nonzero" fill-opacity="1" /><path clip-path="url(#clip120)" d="M593.496 139.407 L593.496 143.389 Q591.69 142.393 589.861 141.907 Q588.056 141.398 586.204 141.398 Q582.06 141.398 579.769 144.037 Q577.477 146.652 577.477 151.398 Q577.477 156.143 579.769 158.782 Q582.06 161.398 586.204 161.398 Q588.056 161.398 589.861 160.912 Q591.69 160.402 593.496 159.407 L593.496 163.342 Q591.713 164.176 589.792 164.592 Q587.894 165.009 585.741 165.009 Q579.884 165.009 576.435 161.328 Q572.986 157.648 572.986 151.398 Q572.986 145.055 576.459 141.421 Q579.954 137.787 586.019 137.787 Q587.986 137.787 589.861 138.203 Q591.736 138.597 593.496 139.407 Z" fill="#000000" fill-rule="nonzero" fill-opacity="1" /><path clip-path="url(#clip120)" d="M605.116 131.051 L605.116 138.412 L613.889 138.412 L613.889 141.722 L605.116 141.722 L605.116 155.796 Q605.116 158.967 605.972 159.87 Q606.852 160.773 609.514 160.773 L613.889 160.773 L613.889 164.338 L609.514 164.338 Q604.583 164.338 602.708 162.509 Q600.833 160.657 600.833 155.796 L600.833 141.722 L597.708 141.722 L597.708 138.412 L600.833 138.412 L600.833 131.051 L605.116 131.051 Z" fill="#000000" fill-rule="nonzero" fill-opacity="1" /><path clip-path="url(#clip120)" d="M619.491 138.412 L623.75 138.412 L623.75 164.338 L619.491 164.338 L619.491 138.412 M619.491 128.319 L623.75 128.319 L623.75 133.713 L619.491 133.713 L619.491 128.319 Z" fill="#000000" fill-rule="nonzero" fill-opacity="1" /><path clip-path="url(#clip120)" d="M642.708 141.398 Q639.282 141.398 637.292 144.083 Q635.301 146.745 635.301 151.398 Q635.301 156.051 637.268 158.736 Q639.259 161.398 642.708 161.398 Q646.111 161.398 648.102 158.713 Q650.092 156.027 650.092 151.398 Q650.092 146.791 648.102 144.106 Q646.111 141.398 642.708 141.398 M642.708 137.787 Q648.264 137.787 651.435 141.398 Q654.606 145.009 654.606 151.398 Q654.606 157.764 651.435 161.398 Q648.264 165.009 642.708 165.009 Q637.13 165.009 633.958 161.398 Q630.81 157.764 630.81 151.398 Q630.81 145.009 633.958 141.398 Q637.13 137.787 642.708 137.787 Z" fill="#000000" fill-rule="nonzero" fill-opacity="1" /><path clip-path="url(#clip120)" d="M683.217 148.689 L683.217 164.338 L678.958 164.338 L678.958 148.828 Q678.958 145.148 677.523 143.319 Q676.088 141.49 673.217 141.49 Q669.768 141.49 667.778 143.69 Q665.787 145.889 665.787 149.685 L665.787 164.338 L661.504 164.338 L661.504 138.412 L665.787 138.412 L665.787 142.44 Q667.315 140.102 669.375 138.944 Q671.458 137.787 674.166 137.787 Q678.634 137.787 680.926 140.565 Q683.217 143.319 683.217 148.689 Z" fill="#000000" fill-rule="nonzero" fill-opacity="1" /><polyline clip-path="url(#clip120)" style="stroke:#e26f46; stroke-linecap:round; stroke-linejoin:round; stroke-width:4; stroke-opacity:1; fill:none" points="288.357,198.898 432.385,198.898 "/>
<path clip-path="url(#clip120)" d="M456.39 181.618 L478.242 181.618 L478.242 185.553 L461.066 185.553 L461.066 195.784 L477.524 195.784 L477.524 199.719 L461.066 199.719 L461.066 212.242 L478.658 212.242 L478.658 216.178 L456.39 216.178 L456.39 181.618 Z" fill="#000000" fill-rule="nonzero" fill-opacity="1" /><path clip-path="url(#clip120)" d="M507.709 190.252 L498.334 202.867 L508.195 216.178 L503.172 216.178 L495.626 205.992 L488.079 216.178 L483.056 216.178 L493.126 202.613 L483.913 190.252 L488.936 190.252 L495.811 199.488 L502.686 190.252 L507.709 190.252 Z" fill="#000000" fill-rule="nonzero" fill-opacity="1" /><path clip-path="url(#clip120)" d="M525.996 203.145 Q520.834 203.145 518.843 204.326 Q516.852 205.506 516.852 208.354 Q516.852 210.622 518.334 211.965 Q519.838 213.284 522.408 213.284 Q525.95 213.284 528.079 210.784 Q530.232 208.261 530.232 204.094 L530.232 203.145 L525.996 203.145 M534.491 201.386 L534.491 216.178 L530.232 216.178 L530.232 212.242 Q528.774 214.603 526.598 215.738 Q524.422 216.849 521.274 216.849 Q517.292 216.849 514.931 214.627 Q512.593 212.381 512.593 208.631 Q512.593 204.256 515.51 202.034 Q518.45 199.812 524.26 199.812 L530.232 199.812 L530.232 199.395 Q530.232 196.455 528.288 194.858 Q526.366 193.238 522.871 193.238 Q520.649 193.238 518.542 193.77 Q516.436 194.303 514.491 195.367 L514.491 191.432 Q516.829 190.53 519.028 190.09 Q521.227 189.627 523.311 189.627 Q528.936 189.627 531.713 192.543 Q534.491 195.46 534.491 201.386 Z" fill="#000000" fill-rule="nonzero" fill-opacity="1" /><path clip-path="url(#clip120)" d="M561.922 191.247 L561.922 195.229 Q560.116 194.233 558.287 193.747 Q556.482 193.238 554.63 193.238 Q550.486 193.238 548.195 195.877 Q545.903 198.492 545.903 203.238 Q545.903 207.983 548.195 210.622 Q550.486 213.238 554.63 213.238 Q556.482 213.238 558.287 212.752 Q560.116 212.242 561.922 211.247 L561.922 215.182 Q560.139 216.016 558.218 216.432 Q556.32 216.849 554.167 216.849 Q548.311 216.849 544.862 213.168 Q541.412 209.488 541.412 203.238 Q541.412 196.895 544.885 193.261 Q548.38 189.627 554.445 189.627 Q556.412 189.627 558.287 190.043 Q560.162 190.437 561.922 191.247 Z" fill="#000000" fill-rule="nonzero" fill-opacity="1" /><path clip-path="url(#clip120)" d="M573.542 182.891 L573.542 190.252 L582.315 190.252 L582.315 193.562 L573.542 193.562 L573.542 207.636 Q573.542 210.807 574.398 211.71 Q575.278 212.613 577.94 212.613 L582.315 212.613 L582.315 216.178 L577.94 216.178 Q573.01 216.178 571.135 214.349 Q569.26 212.497 569.26 207.636 L569.26 193.562 L566.135 193.562 L566.135 190.252 L569.26 190.252 L569.26 182.891 L573.542 182.891 Z" fill="#000000" fill-rule="nonzero" fill-opacity="1" /></svg>
