<?xml version="1.0" encoding="utf-8"?>
<svg xmlns="http://www.w3.org/2000/svg" xmlns:xlink="http://www.w3.org/1999/xlink" width="600" height="400" viewBox="0 0 2400 1600">
<defs>
  <clipPath id="clip150">
    <rect x="0" y="0" width="2400" height="1600"/>
  </clipPath>
</defs>
<path clip-path="url(#clip150)" d="M0 1600 L2400 1600 L2400 0 L0 0  Z" fill="#ffffff" fill-rule="evenodd" fill-opacity="1"/>
<defs>
  <clipPath id="clip151">
    <rect x="480" y="0" width="1681" height="1600"/>
  </clipPath>
</defs>
<path clip-path="url(#clip150)" d="M156.274 1486.45 L2352.76 1486.45 L2352.76 47.2441 L156.274 47.2441  Z" fill="#ffffff" fill-rule="evenodd" fill-opacity="1"/>
<defs>
  <clipPath id="clip152">
    <rect x="156" y="47" width="2197" height="1440"/>
  </clipPath>
</defs>
<polyline clip-path="url(#clip152)" style="stroke:#000000; stroke-linecap:round; stroke-linejoin:round; stroke-width:2; stroke-opacity:0.1; fill:none" points="218.439,1486.45 218.439,47.2441 "/>
<polyline clip-path="url(#clip152)" style="stroke:#000000; stroke-linecap:round; stroke-linejoin:round; stroke-width:2; stroke-opacity:0.1; fill:none" points="736.477,1486.45 736.477,47.2441 "/>
<polyline clip-path="url(#clip152)" style="stroke:#000000; stroke-linecap:round; stroke-linejoin:round; stroke-width:2; stroke-opacity:0.1; fill:none" points="1254.52,1486.45 1254.52,47.2441 "/>
<polyline clip-path="url(#clip152)" style="stroke:#000000; stroke-linecap:round; stroke-linejoin:round; stroke-width:2; stroke-opacity:0.1; fill:none" points="1772.55,1486.45 1772.55,47.2441 "/>
<polyline clip-path="url(#clip152)" style="stroke:#000000; stroke-linecap:round; stroke-linejoin:round; stroke-width:2; stroke-opacity:0.1; fill:none" points="2290.59,1486.45 2290.59,47.2441 "/>
<polyline clip-path="url(#clip150)" style="stroke:#000000; stroke-linecap:round; stroke-linejoin:round; stroke-width:4; stroke-opacity:1; fill:none" points="156.274,1486.45 2352.76,1486.45 "/>
<polyline clip-path="url(#clip150)" style="stroke:#000000; stroke-linecap:round; stroke-linejoin:round; stroke-width:4; stroke-opacity:1; fill:none" points="218.439,1486.45 218.439,1467.55 "/>
<polyline clip-path="url(#clip150)" style="stroke:#000000; stroke-linecap:round; stroke-linejoin:round; stroke-width:4; stroke-opacity:1; fill:none" points="736.477,1486.45 736.477,1467.55 "/>
<polyline clip-path="url(#clip150)" style="stroke:#000000; stroke-linecap:round; stroke-linejoin:round; stroke-width:4; stroke-opacity:1; fill:none" points="1254.52,1486.45 1254.52,1467.55 "/>
<polyline clip-path="url(#clip150)" style="stroke:#000000; stroke-linecap:round; stroke-linejoin:round; stroke-width:4; stroke-opacity:1; fill:none" points="1772.55,1486.45 1772.55,1467.55 "/>
<polyline clip-path="url(#clip150)" style="stroke:#000000; stroke-linecap:round; stroke-linejoin:round; stroke-width:4; stroke-opacity:1; fill:none" points="2290.59,1486.45 2290.59,1467.55 "/>
<path clip-path="url(#clip150)" d="M164.967 1532.02 L194.643 1532.02 L194.643 1535.95 L164.967 1535.95 L164.967 1532.02 Z" fill="#000000" fill-rule="nonzero" fill-opacity="1" /><path clip-path="url(#clip150)" d="M205.545 1544.91 L213.184 1544.91 L213.184 1518.55 L204.874 1520.21 L204.874 1515.95 L213.138 1514.29 L217.814 1514.29 L217.814 1544.91 L225.453 1544.91 L225.453 1548.85 L205.545 1548.85 L205.545 1544.91 Z" fill="#000000" fill-rule="nonzero" fill-opacity="1" /><path clip-path="url(#clip150)" d="M234.897 1542.97 L239.781 1542.97 L239.781 1548.85 L234.897 1548.85 L234.897 1542.97 Z" fill="#000000" fill-rule="nonzero" fill-opacity="1" /><path clip-path="url(#clip150)" d="M259.966 1517.37 Q256.355 1517.37 254.527 1520.93 Q252.721 1524.47 252.721 1531.6 Q252.721 1538.71 254.527 1542.27 Q256.355 1545.82 259.966 1545.82 Q263.601 1545.82 265.406 1542.27 Q267.235 1538.71 267.235 1531.6 Q267.235 1524.47 265.406 1520.93 Q263.601 1517.37 259.966 1517.37 M259.966 1513.66 Q265.776 1513.66 268.832 1518.27 Q271.911 1522.85 271.911 1531.6 Q271.911 1540.33 268.832 1544.94 Q265.776 1549.52 259.966 1549.52 Q254.156 1549.52 251.077 1544.94 Q248.022 1540.33 248.022 1531.6 Q248.022 1522.85 251.077 1518.27 Q254.156 1513.66 259.966 1513.66 Z" fill="#000000" fill-rule="nonzero" fill-opacity="1" /><path clip-path="url(#clip150)" d="M683.503 1532.02 L713.178 1532.02 L713.178 1535.95 L683.503 1535.95 L683.503 1532.02 Z" fill="#000000" fill-rule="nonzero" fill-opacity="1" /><path clip-path="url(#clip150)" d="M733.271 1517.37 Q729.66 1517.37 727.831 1520.93 Q726.026 1524.47 726.026 1531.6 Q726.026 1538.71 727.831 1542.27 Q729.66 1545.82 733.271 1545.82 Q736.905 1545.82 738.711 1542.27 Q740.539 1538.71 740.539 1531.6 Q740.539 1524.47 738.711 1520.93 Q736.905 1517.37 733.271 1517.37 M733.271 1513.66 Q739.081 1513.66 742.137 1518.27 Q745.215 1522.85 745.215 1531.6 Q745.215 1540.33 742.137 1544.94 Q739.081 1549.52 733.271 1549.52 Q727.461 1549.52 724.382 1544.94 Q721.327 1540.33 721.327 1531.6 Q721.327 1522.85 724.382 1518.27 Q727.461 1513.66 733.271 1513.66 Z" fill="#000000" fill-rule="nonzero" fill-opacity="1" /><path clip-path="url(#clip150)" d="M753.433 1542.97 L758.317 1542.97 L758.317 1548.85 L753.433 1548.85 L753.433 1542.97 Z" fill="#000000" fill-rule="nonzero" fill-opacity="1" /><path clip-path="url(#clip150)" d="M768.548 1514.29 L786.905 1514.29 L786.905 1518.22 L772.831 1518.22 L772.831 1526.7 Q773.849 1526.35 774.868 1526.19 Q775.886 1526 776.905 1526 Q782.692 1526 786.072 1529.17 Q789.451 1532.34 789.451 1537.76 Q789.451 1543.34 785.979 1546.44 Q782.507 1549.52 776.187 1549.52 Q774.011 1549.52 771.743 1549.15 Q769.498 1548.78 767.09 1548.04 L767.09 1543.34 Q769.173 1544.47 771.396 1545.03 Q773.618 1545.58 776.095 1545.58 Q780.099 1545.58 782.437 1543.48 Q784.775 1541.37 784.775 1537.76 Q784.775 1534.15 782.437 1532.04 Q780.099 1529.94 776.095 1529.94 Q774.22 1529.94 772.345 1530.35 Q770.493 1530.77 768.548 1531.65 L768.548 1514.29 Z" fill="#000000" fill-rule="nonzero" fill-opacity="1" /><path clip-path="url(#clip150)" d="M1231.9 1517.37 Q1228.29 1517.37 1226.46 1520.93 Q1224.65 1524.47 1224.65 1531.6 Q1224.65 1538.71 1226.46 1542.27 Q1228.29 1545.82 1231.9 1545.82 Q1235.53 1545.82 1237.34 1542.27 Q1239.17 1538.71 1239.17 1531.6 Q1239.17 1524.47 1237.34 1520.93 Q1235.53 1517.37 1231.9 1517.37 M1231.9 1513.66 Q1237.71 1513.66 1240.77 1518.27 Q1243.84 1522.85 1243.84 1531.6 Q1243.84 1540.33 1240.77 1544.94 Q1237.71 1549.52 1231.9 1549.52 Q1226.09 1549.52 1223.01 1544.94 Q1219.96 1540.33 1219.96 1531.6 Q1219.96 1522.85 1223.01 1518.27 Q1226.09 1513.66 1231.9 1513.66 Z" fill="#000000" fill-rule="nonzero" fill-opacity="1" /><path clip-path="url(#clip150)" d="M1252.06 1542.97 L1256.95 1542.97 L1256.95 1548.85 L1252.06 1548.85 L1252.06 1542.97 Z" fill="#000000" fill-rule="nonzero" fill-opacity="1" /><path clip-path="url(#clip150)" d="M1277.13 1517.37 Q1273.52 1517.37 1271.69 1520.93 Q1269.89 1524.47 1269.89 1531.6 Q1269.89 1538.71 1271.69 1542.27 Q1273.52 1545.82 1277.13 1545.82 Q1280.76 1545.82 1282.57 1542.27 Q1284.4 1538.71 1284.4 1531.6 Q1284.4 1524.47 1282.57 1520.93 Q1280.76 1517.37 1277.13 1517.37 M1277.13 1513.66 Q1282.94 1513.66 1286 1518.27 Q1289.08 1522.85 1289.08 1531.6 Q1289.08 1540.33 1286 1544.94 Q1282.94 1549.52 1277.13 1549.52 Q1271.32 1549.52 1268.24 1544.94 Q1265.19 1540.33 1265.19 1531.6 Q1265.19 1522.85 1268.24 1518.27 Q1271.32 1513.66 1277.13 1513.66 Z" fill="#000000" fill-rule="nonzero" fill-opacity="1" /><path clip-path="url(#clip150)" d="M1750.44 1517.37 Q1746.82 1517.37 1745 1520.93 Q1743.19 1524.47 1743.19 1531.6 Q1743.19 1538.71 1745 1542.27 Q1746.82 1545.82 1750.44 1545.82 Q1754.07 1545.82 1755.88 1542.27 Q1757.7 1538.71 1757.7 1531.6 Q1757.7 1524.47 1755.88 1520.93 Q1754.07 1517.37 1750.44 1517.37 M1750.44 1513.66 Q1756.25 1513.66 1759.3 1518.27 Q1762.38 1522.85 1762.38 1531.6 Q1762.38 1540.33 1759.3 1544.94 Q1756.25 1549.52 1750.44 1549.52 Q1744.63 1549.52 1741.55 1544.94 Q1738.49 1540.33 1738.49 1531.6 Q1738.49 1522.85 1741.55 1518.27 Q1744.63 1513.66 1750.44 1513.66 Z" fill="#000000" fill-rule="nonzero" fill-opacity="1" /><path clip-path="url(#clip150)" d="M1770.6 1542.97 L1775.48 1542.97 L1775.48 1548.85 L1770.6 1548.85 L1770.6 1542.97 Z" fill="#000000" fill-rule="nonzero" fill-opacity="1" /><path clip-path="url(#clip150)" d="M1785.71 1514.29 L1804.07 1514.29 L1804.07 1518.22 L1790 1518.22 L1790 1526.7 Q1791.01 1526.35 1792.03 1526.19 Q1793.05 1526 1794.07 1526 Q1799.86 1526 1803.24 1529.17 Q1806.62 1532.34 1806.62 1537.76 Q1806.62 1543.34 1803.14 1546.44 Q1799.67 1549.52 1793.35 1549.52 Q1791.18 1549.52 1788.91 1549.15 Q1786.66 1548.78 1784.25 1548.04 L1784.25 1543.34 Q1786.34 1544.47 1788.56 1545.03 Q1790.78 1545.58 1793.26 1545.58 Q1797.26 1545.58 1799.6 1543.48 Q1801.94 1541.37 1801.94 1537.76 Q1801.94 1534.15 1799.6 1532.04 Q1797.26 1529.94 1793.26 1529.94 Q1791.38 1529.94 1789.51 1530.35 Q1787.66 1530.77 1785.71 1531.65 L1785.71 1514.29 Z" fill="#000000" fill-rule="nonzero" fill-opacity="1" /><path clip-path="url(#clip150)" d="M2257.74 1544.91 L2265.38 1544.91 L2265.38 1518.55 L2257.07 1520.21 L2257.07 1515.95 L2265.34 1514.29 L2270.01 1514.29 L2270.01 1544.91 L2277.65 1544.91 L2277.65 1548.85 L2257.74 1548.85 L2257.74 1544.91 Z" fill="#000000" fill-rule="nonzero" fill-opacity="1" /><path clip-path="url(#clip150)" d="M2287.1 1542.97 L2291.98 1542.97 L2291.98 1548.85 L2287.1 1548.85 L2287.1 1542.97 Z" fill="#000000" fill-rule="nonzero" fill-opacity="1" /><path clip-path="url(#clip150)" d="M2312.17 1517.37 Q2308.55 1517.37 2306.73 1520.93 Q2304.92 1524.47 2304.92 1531.6 Q2304.92 1538.71 2306.73 1542.27 Q2308.55 1545.82 2312.17 1545.82 Q2315.8 1545.82 2317.61 1542.27 Q2319.43 1538.71 2319.43 1531.6 Q2319.43 1524.47 2317.61 1520.93 Q2315.8 1517.37 2312.17 1517.37 M2312.17 1513.66 Q2317.98 1513.66 2321.03 1518.27 Q2324.11 1522.85 2324.11 1531.6 Q2324.11 1540.33 2321.03 1544.94 Q2317.98 1549.52 2312.17 1549.52 Q2306.36 1549.52 2303.28 1544.94 Q2300.22 1540.33 2300.22 1531.6 Q2300.22 1522.85 2303.28 1518.27 Q2306.36 1513.66 2312.17 1513.66 Z" fill="#000000" fill-rule="nonzero" fill-opacity="1" /><polyline clip-path="url(#clip152)" style="stroke:#000000; stroke-linecap:round; stroke-linejoin:round; stroke-width:2; stroke-opacity:0.1; fill:none" points="156.274,1253.93 2352.76,1253.93 "/>
<polyline clip-path="url(#clip152)" style="stroke:#000000; stroke-linecap:round; stroke-linejoin:round; stroke-width:2; stroke-opacity:0.1; fill:none" points="156.274,983.203 2352.76,983.203 "/>
<polyline clip-path="url(#clip152)" style="stroke:#000000; stroke-linecap:round; stroke-linejoin:round; stroke-width:2; stroke-opacity:0.1; fill:none" points="156.274,712.476 2352.76,712.476 "/>
<polyline clip-path="url(#clip152)" style="stroke:#000000; stroke-linecap:round; stroke-linejoin:round; stroke-width:2; stroke-opacity:0.1; fill:none" points="156.274,441.748 2352.76,441.748 "/>
<polyline clip-path="url(#clip152)" style="stroke:#000000; stroke-linecap:round; stroke-linejoin:round; stroke-width:2; stroke-opacity:0.1; fill:none" points="156.274,171.02 2352.76,171.02 "/>
<polyline clip-path="url(#clip150)" style="stroke:#000000; stroke-linecap:round; stroke-linejoin:round; stroke-width:4; stroke-opacity:1; fill:none" points="156.274,1486.45 156.274,47.2441 "/>
<polyline clip-path="url(#clip150)" style="stroke:#000000; stroke-linecap:round; stroke-linejoin:round; stroke-width:4; stroke-opacity:1; fill:none" points="156.274,1253.93 175.172,1253.93 "/>
<polyline clip-path="url(#clip150)" style="stroke:#000000; stroke-linecap:round; stroke-linejoin:round; stroke-width:4; stroke-opacity:1; fill:none" points="156.274,983.203 175.172,983.203 "/>
<polyline clip-path="url(#clip150)" style="stroke:#000000; stroke-linecap:round; stroke-linejoin:round; stroke-width:4; stroke-opacity:1; fill:none" points="156.274,712.476 175.172,712.476 "/>
<polyline clip-path="url(#clip150)" style="stroke:#000000; stroke-linecap:round; stroke-linejoin:round; stroke-width:4; stroke-opacity:1; fill:none" points="156.274,441.748 175.172,441.748 "/>
<polyline clip-path="url(#clip150)" style="stroke:#000000; stroke-linecap:round; stroke-linejoin:round; stroke-width:4; stroke-opacity:1; fill:none" points="156.274,171.02 175.172,171.02 "/>
<path clip-path="url(#clip150)" d="M63.0985 1239.73 Q59.4875 1239.73 57.6588 1243.29 Q55.8532 1246.84 55.8532 1253.97 Q55.8532 1261.07 57.6588 1264.64 Q59.4875 1268.18 63.0985 1268.18 Q66.7328 1268.18 68.5383 1264.64 Q70.367 1261.07 70.367 1253.97 Q70.367 1246.84 68.5383 1243.29 Q66.7328 1239.73 63.0985 1239.73 M63.0985 1236.03 Q68.9087 1236.03 71.9642 1240.63 Q75.0429 1245.22 75.0429 1253.97 Q75.0429 1262.69 71.9642 1267.3 Q68.9087 1271.88 63.0985 1271.88 Q57.2884 1271.88 54.2097 1267.3 Q51.1542 1262.69 51.1542 1253.97 Q51.1542 1245.22 54.2097 1240.63 Q57.2884 1236.03 63.0985 1236.03 Z" fill="#000000" fill-rule="nonzero" fill-opacity="1" /><path clip-path="url(#clip150)" d="M83.2605 1265.33 L88.1447 1265.33 L88.1447 1271.21 L83.2605 1271.21 L83.2605 1265.33 Z" fill="#000000" fill-rule="nonzero" fill-opacity="1" /><path clip-path="url(#clip150)" d="M108.33 1239.73 Q104.719 1239.73 102.89 1243.29 Q101.084 1246.84 101.084 1253.97 Q101.084 1261.07 102.89 1264.64 Q104.719 1268.18 108.33 1268.18 Q111.964 1268.18 113.77 1264.64 Q115.598 1261.07 115.598 1253.97 Q115.598 1246.84 113.77 1243.29 Q111.964 1239.73 108.33 1239.73 M108.33 1236.03 Q114.14 1236.03 117.195 1240.63 Q120.274 1245.22 120.274 1253.97 Q120.274 1262.69 117.195 1267.3 Q114.14 1271.88 108.33 1271.88 Q102.52 1271.88 99.4409 1267.3 Q96.3854 1262.69 96.3854 1253.97 Q96.3854 1245.22 99.4409 1240.63 Q102.52 1236.03 108.33 1236.03 Z" fill="#000000" fill-rule="nonzero" fill-opacity="1" /><path clip-path="url(#clip150)" d="M63.7467 969.002 Q60.1356 969.002 58.3069 972.567 Q56.5014 976.109 56.5014 983.238 Q56.5014 990.345 58.3069 993.909 Q60.1356 997.451 63.7467 997.451 Q67.3809 997.451 69.1865 993.909 Q71.0152 990.345 71.0152 983.238 Q71.0152 976.109 69.1865 972.567 Q67.3809 969.002 63.7467 969.002 M63.7467 965.298 Q69.5568 965.298 72.6124 969.905 Q75.6911 974.488 75.6911 983.238 Q75.6911 991.965 72.6124 996.571 Q69.5568 1001.15 63.7467 1001.15 Q57.9365 1001.15 54.8578 996.571 Q51.8023 991.965 51.8023 983.238 Q51.8023 974.488 54.8578 969.905 Q57.9365 965.298 63.7467 965.298 Z" fill="#000000" fill-rule="nonzero" fill-opacity="1" /><path clip-path="url(#clip150)" d="M83.9086 994.604 L88.7928 994.604 L88.7928 1000.48 L83.9086 1000.48 L83.9086 994.604 Z" fill="#000000" fill-rule="nonzero" fill-opacity="1" /><path clip-path="url(#clip150)" d="M113.145 981.849 Q116.501 982.567 118.376 984.835 Q120.274 987.104 120.274 990.437 Q120.274 995.553 116.756 998.354 Q113.237 1001.15 106.756 1001.15 Q104.58 1001.15 102.265 1000.71 Q99.9733 1000.3 97.5197 999.442 L97.5197 994.928 Q99.4641 996.062 101.779 996.641 Q104.094 997.219 106.617 997.219 Q111.015 997.219 113.307 995.483 Q115.621 993.747 115.621 990.437 Q115.621 987.382 113.469 985.669 Q111.339 983.933 107.52 983.933 L103.492 983.933 L103.492 980.09 L107.705 980.09 Q111.154 980.09 112.983 978.724 Q114.811 977.335 114.811 974.743 Q114.811 972.081 112.913 970.669 Q111.038 969.234 107.52 969.234 Q105.598 969.234 103.399 969.65 Q101.2 970.067 98.5613 970.946 L98.5613 966.78 Q101.223 966.039 103.538 965.669 Q105.876 965.298 107.936 965.298 Q113.26 965.298 116.362 967.729 Q119.464 970.136 119.464 974.257 Q119.464 977.127 117.82 979.118 Q116.177 981.085 113.145 981.849 Z" fill="#000000" fill-rule="nonzero" fill-opacity="1" /><path clip-path="url(#clip150)" d="M62.9365 698.274 Q59.3254 698.274 57.4967 701.839 Q55.6912 705.381 55.6912 712.51 Q55.6912 719.617 57.4967 723.182 Q59.3254 726.723 62.9365 726.723 Q66.5707 726.723 68.3763 723.182 Q70.205 719.617 70.205 712.51 Q70.205 705.381 68.3763 701.839 Q66.5707 698.274 62.9365 698.274 M62.9365 694.571 Q68.7467 694.571 71.8022 699.177 Q74.8809 703.76 74.8809 712.51 Q74.8809 721.237 71.8022 725.844 Q68.7467 730.427 62.9365 730.427 Q57.1264 730.427 54.0477 725.844 Q50.9921 721.237 50.9921 712.51 Q50.9921 703.76 54.0477 699.177 Q57.1264 694.571 62.9365 694.571 Z" fill="#000000" fill-rule="nonzero" fill-opacity="1" /><path clip-path="url(#clip150)" d="M83.0984 723.876 L87.9827 723.876 L87.9827 729.756 L83.0984 729.756 L83.0984 723.876 Z" fill="#000000" fill-rule="nonzero" fill-opacity="1" /><path clip-path="url(#clip150)" d="M108.746 710.612 Q105.598 710.612 103.746 712.765 Q101.918 714.918 101.918 718.668 Q101.918 722.395 103.746 724.57 Q105.598 726.723 108.746 726.723 Q111.895 726.723 113.723 724.57 Q115.575 722.395 115.575 718.668 Q115.575 714.918 113.723 712.765 Q111.895 710.612 108.746 710.612 M118.029 695.96 L118.029 700.219 Q116.27 699.385 114.464 698.946 Q112.682 698.506 110.922 698.506 Q106.293 698.506 103.839 701.631 Q101.409 704.756 101.061 711.075 Q102.427 709.061 104.487 707.996 Q106.547 706.909 109.024 706.909 Q114.233 706.909 117.242 710.08 Q120.274 713.228 120.274 718.668 Q120.274 723.992 117.126 727.209 Q113.978 730.427 108.746 730.427 Q102.751 730.427 99.5798 725.844 Q96.4085 721.237 96.4085 712.51 Q96.4085 704.316 100.297 699.455 Q104.186 694.571 110.737 694.571 Q112.496 694.571 114.279 694.918 Q116.084 695.265 118.029 695.96 Z" fill="#000000" fill-rule="nonzero" fill-opacity="1" /><path clip-path="url(#clip150)" d="M63.2837 427.547 Q59.6726 427.547 57.8439 431.111 Q56.0384 434.653 56.0384 441.783 Q56.0384 448.889 57.8439 452.454 Q59.6726 455.996 63.2837 455.996 Q66.918 455.996 68.7235 452.454 Q70.5522 448.889 70.5522 441.783 Q70.5522 434.653 68.7235 431.111 Q66.918 427.547 63.2837 427.547 M63.2837 423.843 Q69.0939 423.843 72.1494 428.449 Q75.2281 433.033 75.2281 441.783 Q75.2281 450.509 72.1494 455.116 Q69.0939 459.699 63.2837 459.699 Q57.4736 459.699 54.3949 455.116 Q51.3393 450.509 51.3393 441.783 Q51.3393 433.033 54.3949 428.449 Q57.4736 423.843 63.2837 423.843 Z" fill="#000000" fill-rule="nonzero" fill-opacity="1" /><path clip-path="url(#clip150)" d="M83.4457 453.148 L88.3299 453.148 L88.3299 459.028 L83.4457 459.028 L83.4457 453.148 Z" fill="#000000" fill-rule="nonzero" fill-opacity="1" /><path clip-path="url(#clip150)" d="M98.6539 458.31 L98.6539 454.051 Q100.413 454.884 102.219 455.324 Q104.024 455.764 105.76 455.764 Q110.39 455.764 112.82 452.662 Q115.274 449.537 115.621 443.195 Q114.279 445.185 112.219 446.25 Q110.158 447.315 107.658 447.315 Q102.473 447.315 99.4409 444.19 Q96.4317 441.042 96.4317 435.602 Q96.4317 430.278 99.5798 427.06 Q102.728 423.843 107.959 423.843 Q113.955 423.843 117.103 428.449 Q120.274 433.033 120.274 441.783 Q120.274 449.954 116.385 454.838 Q112.52 459.699 105.969 459.699 Q104.209 459.699 102.404 459.352 Q100.598 459.005 98.6539 458.31 M107.959 443.658 Q111.108 443.658 112.936 441.505 Q114.788 439.352 114.788 435.602 Q114.788 431.875 112.936 429.722 Q111.108 427.547 107.959 427.547 Q104.811 427.547 102.959 429.722 Q101.131 431.875 101.131 435.602 Q101.131 439.352 102.959 441.505 Q104.811 443.658 107.959 443.658 Z" fill="#000000" fill-rule="nonzero" fill-opacity="1" /><path clip-path="url(#clip150)" d="M55.506 184.365 L63.1448 184.365 L63.1448 157.999 L54.8347 159.666 L54.8347 155.407 L63.0985 153.74 L67.7744 153.74 L67.7744 184.365 L75.4133 184.365 L75.4133 188.3 L55.506 188.3 L55.506 184.365 Z" fill="#000000" fill-rule="nonzero" fill-opacity="1" /><path clip-path="url(#clip150)" d="M84.8577 182.421 L89.7419 182.421 L89.7419 188.3 L84.8577 188.3 L84.8577 182.421 Z" fill="#000000" fill-rule="nonzero" fill-opacity="1" /><path clip-path="url(#clip150)" d="M103.955 184.365 L120.274 184.365 L120.274 188.3 L98.3298 188.3 L98.3298 184.365 Q100.992 181.61 105.575 176.981 Q110.182 172.328 111.362 170.985 Q113.608 168.462 114.487 166.726 Q115.39 164.967 115.39 163.277 Q115.39 160.523 113.445 158.786 Q111.524 157.05 108.422 157.05 Q106.223 157.05 103.77 157.814 Q101.339 158.578 98.5613 160.129 L98.5613 155.407 Q101.385 154.273 103.839 153.694 Q106.293 153.115 108.33 153.115 Q113.7 153.115 116.895 155.8 Q120.089 158.485 120.089 162.976 Q120.089 165.106 119.279 167.027 Q118.492 168.925 116.385 171.518 Q115.807 172.189 112.705 175.407 Q109.603 178.601 103.955 184.365 Z" fill="#000000" fill-rule="nonzero" fill-opacity="1" /><polyline clip-path="url(#clip152)" style="stroke:#009af9; stroke-linecap:round; stroke-linejoin:round; stroke-width:16; stroke-opacity:1; fill:none" stroke-dasharray="8, 16" points="218.439,1118.25 228.852,1112.94 239.264,1102.11 249.677,1087.97 260.09,1074.37 270.503,1066.7 280.916,1070.41 291.329,1088.05 301.741,1116.95 312.154,1150.3 322.567,1181.7 332.98,1208.98 343.393,1234.23 353.805,1260.75 364.218,1290.29 374.631,1322.16 385.044,1353.88 395.457,1382.51 405.87,1405.62 416.282,1421.9 426.695,1431.11 437.108,1433.82 447.521,1430.96 457.934,1423.47 468.347,1412.08 478.759,1396.99 489.172,1377.62 499.585,1352.7 509.998,1321.61 520.411,1286.04 530.824,1249.88 541.236,1216.85 551.649,1188.12 562.062,1162.67 572.475,1139.23 582.888,1117.61 593.301,1098.56 603.713,1083.31 614.126,1073.25 624.539,1069.76 634.952,1073.83 645.365,1085.56 655.777,1104.12 666.19,1127.99 676.603,1155.37 687.016,1184.55 697.429,1214.11 707.842,1243.11 718.254,1271.24 728.667,1298.79 739.08,1326.54 749.493,1355.15 759.906,1384.33 770.319,1412.02 780.731,1434.16 791.144,1445.72 801.557,1443.52 811.97,1429.3 822.383,1410.14 832.796,1393.91 843.208,1382.27 853.621,1368.98 864.034,1346.75 874.447,1314.96 884.86,1279.29 895.273,1245.38 905.685,1214.87 916.098,1186.41 926.511,1158.52 936.924,1131.33 947.337,1106.63 957.749,1086.89 968.162,1074.18 978.575,1069.42 988.988,1072.33 999.401,1081.79 1009.81,1096.39 1020.23,1114.9 1030.64,1136.42 1041.05,1160.48 1051.46,1186.79 1061.88,1215.14 1072.29,1245.24 1082.7,1276.6 1093.12,1308.44 1103.53,1339.69 1113.94,1369 1124.35,1394.81 1134.77,1415.44 1145.18,1429.31 1155.59,1435.36 1166.01,1433.59 1176.42,1425.8 1186.83,1416 1197.24,1409.3 1207.66,1407.78 1218.07,1402.27 1228.48,1362.97 1238.9,1242.13 1249.31,1008.53 1259.72,703.014 1270.13,438.24 1280.55,303.346 1290.96,289.199 1301.37,326.787 1311.79,360.087 1322.2,370.121 1332.61,361.528 1343.02,345.68 1353.44,332.034 1363.85,325.742 1374.26,328.008 1384.68,337.254 1395.09,350.346 1405.5,363.683 1415.91,374.046 1426.33,379.149 1436.74,377.878 1447.15,370.334 1457.57,357.746 1467.98,342.337 1478.39,327.135 1488.8,315.652 1499.22,311.343 1509.63,316.801 1520.04,332.749 1530.45,357.114 1540.87,384.672 1551.28,407.8 1561.69,418.492 1572.11,411.094 1582.52,384.61 1592.93,343.524 1603.34,297.031 1613.76,257.543 1624.17,239.235 1634.58,255.422 1645,311.87 1655.41,396.892 1665.82,478.122 1676.23,516.417 1686.65,490.501 1697.06,411.308 1707.47,314.152 1717.89,237.583 1728.3,205.405 1738.71,220.744 1749.12,270.819 1759.54,336.112 1769.95,398.227 1780.36,443.958 1790.78,465.979 1801.19,461.933 1811.6,433.384 1822.01,385.311 1832.43,326.087 1842.84,267.417 1853.25,223.457 1863.67,208.433 1874.08,232.44 1884.49,296.134 1894.9,386.607 1905.32,477.725 1915.73,537.261 1926.14,539.522 1936.56,477.829 1946.97,369.659 1957.38,250.931 1967.79,162.283 1978.21,134.166 1988.62,176.464 1999.03,275.102 2009.45,396.537 2019.86,499.972 2030.27,553.23 2040.68,544.233 2051.1,482.142 2061.51,389.725 2071.92,293.381 2082.33,215.856 2092.75,172.808 2103.16,172.02 2113.57,213.672 2123.99,290.689 2134.4,388.847 2144.81,487.135 2155.22,559.58 2165.64,580.205 2176.05,532.093 2186.46,418.826 2196.88,271.906 2207.29,144.576 2217.7,87.9763 2228.11,121.883 2238.53,224.083 2248.94,348.54 2259.35,454.853 2269.77,524.848 2280.18,560.89 2290.59,576.095 "/>
<polyline clip-path="url(#clip152)" style="stroke:#e26f46; stroke-linecap:round; stroke-linejoin:round; stroke-width:4; stroke-opacity:1; fill:none" points="218.439,1118.39 228.852,1099.16 239.264,1084.98 249.677,1076.31 260.09,1073.45 270.503,1076.47 280.916,1085.28 291.329,1099.6 301.741,1118.96 312.154,1142.72 322.567,1170.11 332.98,1200.23 343.393,1232.11 353.805,1264.7 364.218,1296.94 374.631,1327.78 385.044,1356.2 395.457,1381.29 405.87,1402.22 416.282,1418.31 426.695,1429.04 437.108,1434.05 447.521,1433.18 457.934,1426.46 468.347,1414.11 478.759,1396.54 489.172,1374.31 499.585,1348.15 509.998,1318.91 520.411,1287.56 530.824,1255.1 541.236,1222.61 551.649,1191.14 562.062,1161.72 572.475,1135.31 582.888,1112.77 593.301,1094.84 603.713,1082.1 614.126,1074.97 624.539,1073.68 634.952,1078.27 645.365,1088.6 655.777,1104.32 666.19,1124.92 676.603,1149.74 687.016,1177.95 697.429,1208.65 707.842,1240.82 718.254,1273.42 728.667,1305.39 739.08,1335.67 749.493,1363.29 759.906,1387.34 770.319,1407.03 780.731,1421.73 791.144,1430.95 801.557,1434.39 811.97,1431.95 822.383,1423.69 832.796,1409.9 843.208,1391.01 853.621,1367.65 864.034,1340.58 874.447,1310.68 884.86,1278.92 895.273,1246.36 905.685,1214.04 916.098,1183.02 926.511,1154.31 936.924,1128.86 947.337,1107.49 957.749,1090.9 968.162,1079.63 978.575,1074.05 988.988,1074.34 999.401,1080.49 1009.81,1092.3 1020.23,1109.38 1030.64,1131.19 1041.05,1157 1051.46,1185.97 1061.88,1217.17 1072.29,1249.56 1082.7,1282.09 1093.12,1313.71 1103.53,1343.37 1113.94,1370.12 1124.35,1393.07 1134.77,1411.48 1145.18,1424.75 1155.59,1432.45 1166.01,1434.32 1176.42,1430.3 1186.83,1420.52 1197.24,1405.31 1207.66,1385.16 1218.07,1360.72 1228.48,1332.8 1238.9,1302.31 1249.31,1270.23 1259.72,350.195 1270.13,348.703 1280.55,350.061 1290.96,354.579 1301.37,360.875 1311.79,366.287 1322.2,367.889 1332.61,363.725 1343.02,353.799 1353.44,340.416 1363.85,327.682 1374.26,320.243 1384.68,321.67 1395.09,333.02 1405.5,352.112 1415.91,373.839 1426.33,391.532 1436.74,398.995 1447.15,392.606 1457.57,372.784 1467.98,344.272 1478.39,315.052 1488.8,294.109 1499.22,288.684 1509.63,301.836 1520.04,331.136 1530.45,368.976 1540.87,404.523 1551.28,426.816 1561.69,428.137 1572.11,406.599 1582.52,367.126 1592.93,320.401 1603.34,279.984 1613.76,258.378 1624.17,263.182 1634.58,294.506 1645,344.512 1655.41,399.331 1665.82,442.907 1676.23,461.694 1686.65,448.847 1697.06,406.601 1707.47,346.051 1717.89,284.262 1728.3,239.459 1738.71,225.661 1749.12,248.318 1759.54,302.321 1769.95,373.067 1780.36,440.391 1790.78,484.314 1801.19,490.967 1811.6,456.933 1822.01,390.664 1832.43,310.431 1842.84,239.297 1853.25,198.488 1863.67,201.068 1874.08,247.799 1884.49,326.491 1894.9,415.149 1905.32,488.117 1915.73,523.499 1926.14,509.721 1936.56,449.259 1946.97,358.355 1957.38,262.674 1967.79,190.061 1978.21,162.44 1988.62,189.207 1999.03,264.113 2009.45,366.645 2019.86,467.628 2030.27,537.528 2040.68,555.086 2051.1,513.762 2061.51,424.049 2071.92,310.849 2082.33,206.574 2092.75,141.863 2103.16,136.585 2113.57,193.762 2123.99,298.271 2134.4,420.81 2144.81,526.114 2155.22,583.094 2165.64,574.022 2176.05,500.004 2186.46,381.098 2196.88,250.898 2207.29,147.045 2217.7,100.347 2228.11,125.645 2238.53,217.144 2248.94,349.652 2259.35,485.502 2269.77,585.263 2280.18,619.174 2290.59,576.022 "/>
<path clip-path="url(#clip150)" d="M229.49 250.738 L675.966 250.738 L675.966 95.2176 L229.49 95.2176  Z" fill="#ffffff" fill-rule="evenodd" fill-opacity="1"/>
<polyline clip-path="url(#clip150)" style="stroke:#000000; stroke-linecap:round; stroke-linejoin:round; stroke-width:4; stroke-opacity:1; fill:none" points="229.49,250.738 675.966,250.738 675.966,95.2176 229.49,95.2176 229.49,250.738 "/>
<polyline clip-path="url(#clip150)" style="stroke:#009af9; stroke-linecap:round; stroke-linejoin:round; stroke-width:16; stroke-opacity:1; fill:none" stroke-dasharray="8, 16" points="253.896,147.058 400.328,147.058 "/>
<path clip-path="url(#clip150)" d="M429.409 133.62 L429.409 146.606 L435.289 146.606 Q438.552 146.606 440.335 144.916 Q442.117 143.227 442.117 140.102 Q442.117 137 440.335 135.31 Q438.552 133.62 435.289 133.62 L429.409 133.62 M424.733 129.778 L435.289 129.778 Q441.099 129.778 444.062 132.416 Q447.048 135.032 447.048 140.102 Q447.048 145.217 444.062 147.833 Q441.099 150.449 435.289 150.449 L429.409 150.449 L429.409 164.338 L424.733 164.338 L424.733 129.778 Z" fill="#000000" fill-rule="nonzero" fill-opacity="1" /><path clip-path="url(#clip150)" d="M467.325 142.393 Q466.608 141.977 465.751 141.791 Q464.918 141.583 463.899 141.583 Q460.288 141.583 458.344 143.944 Q456.423 146.282 456.423 150.68 L456.423 164.338 L452.14 164.338 L452.14 138.412 L456.423 138.412 L456.423 142.44 Q457.765 140.078 459.918 138.944 Q462.071 137.787 465.149 137.787 Q465.589 137.787 466.122 137.856 Q466.654 137.903 467.302 138.018 L467.325 142.393 Z" fill="#000000" fill-rule="nonzero" fill-opacity="1" /><path clip-path="url(#clip150)" d="M492.927 150.31 L492.927 152.393 L473.344 152.393 Q473.622 156.791 475.983 159.106 Q478.367 161.398 482.603 161.398 Q485.057 161.398 487.348 160.796 Q489.663 160.194 491.932 158.99 L491.932 163.018 Q489.64 163.99 487.233 164.5 Q484.825 165.009 482.348 165.009 Q476.145 165.009 472.511 161.398 Q468.899 157.787 468.899 151.629 Q468.899 145.264 472.325 141.537 Q475.774 137.787 481.608 137.787 Q486.839 137.787 489.872 141.166 Q492.927 144.523 492.927 150.31 M488.668 149.06 Q488.622 145.565 486.7 143.481 Q484.802 141.398 481.654 141.398 Q478.089 141.398 475.936 143.412 Q473.807 145.426 473.483 149.083 L488.668 149.06 Z" fill="#000000" fill-rule="nonzero" fill-opacity="1" /><path clip-path="url(#clip150)" d="M516.978 142.347 L516.978 128.319 L521.237 128.319 L521.237 164.338 L516.978 164.338 L516.978 160.449 Q515.635 162.763 513.575 163.898 Q511.538 165.009 508.668 165.009 Q503.969 165.009 501.006 161.259 Q498.066 157.509 498.066 151.398 Q498.066 145.287 501.006 141.537 Q503.969 137.787 508.668 137.787 Q511.538 137.787 513.575 138.921 Q515.635 140.032 516.978 142.347 M502.464 151.398 Q502.464 156.097 504.385 158.782 Q506.33 161.444 509.709 161.444 Q513.089 161.444 515.033 158.782 Q516.978 156.097 516.978 151.398 Q516.978 146.699 515.033 144.037 Q513.089 141.352 509.709 141.352 Q506.33 141.352 504.385 144.037 Q502.464 146.699 502.464 151.398 Z" fill="#000000" fill-rule="nonzero" fill-opacity="1" /><path clip-path="url(#clip150)" d="M530.01 138.412 L534.269 138.412 L534.269 164.338 L530.01 164.338 L530.01 138.412 M530.01 128.319 L534.269 128.319 L534.269 133.713 L530.01 133.713 L530.01 128.319 Z" fill="#000000" fill-rule="nonzero" fill-opacity="1" /><path clip-path="url(#clip150)" d="M561.839 139.407 L561.839 143.389 Q560.033 142.393 558.205 141.907 Q556.399 141.398 554.547 141.398 Q550.404 141.398 548.112 144.037 Q545.82 146.652 545.82 151.398 Q545.82 156.143 548.112 158.782 Q550.404 161.398 554.547 161.398 Q556.399 161.398 558.205 160.912 Q560.033 160.402 561.839 159.407 L561.839 163.342 Q560.056 164.176 558.135 164.592 Q556.237 165.009 554.084 165.009 Q548.228 165.009 544.779 161.328 Q541.33 157.648 541.33 151.398 Q541.33 145.055 544.802 141.421 Q548.297 137.787 554.362 137.787 Q556.33 137.787 558.205 138.203 Q560.08 138.597 561.839 139.407 Z" fill="#000000" fill-rule="nonzero" fill-opacity="1" /><path clip-path="url(#clip150)" d="M573.459 131.051 L573.459 138.412 L582.232 138.412 L582.232 141.722 L573.459 141.722 L573.459 155.796 Q573.459 158.967 574.316 159.87 Q575.195 160.773 577.857 160.773 L582.232 160.773 L582.232 164.338 L577.857 164.338 Q572.927 164.338 571.052 162.509 Q569.177 160.657 569.177 155.796 L569.177 141.722 L566.052 141.722 L566.052 138.412 L569.177 138.412 L569.177 131.051 L573.459 131.051 Z" fill="#000000" fill-rule="nonzero" fill-opacity="1" /><path clip-path="url(#clip150)" d="M587.834 138.412 L592.093 138.412 L592.093 164.338 L587.834 164.338 L587.834 138.412 M587.834 128.319 L592.093 128.319 L592.093 133.713 L587.834 133.713 L587.834 128.319 Z" fill="#000000" fill-rule="nonzero" fill-opacity="1" /><path clip-path="url(#clip150)" d="M611.051 141.398 Q607.626 141.398 605.635 144.083 Q603.644 146.745 603.644 151.398 Q603.644 156.051 605.612 158.736 Q607.602 161.398 611.051 161.398 Q614.454 161.398 616.445 158.713 Q618.436 156.027 618.436 151.398 Q618.436 146.791 616.445 144.106 Q614.454 141.398 611.051 141.398 M611.051 137.787 Q616.607 137.787 619.778 141.398 Q622.95 145.009 622.95 151.398 Q622.95 157.764 619.778 161.398 Q616.607 165.009 611.051 165.009 Q605.473 165.009 602.302 161.398 Q599.153 157.764 599.153 151.398 Q599.153 145.009 602.302 141.398 Q605.473 137.787 611.051 137.787 Z" fill="#000000" fill-rule="nonzero" fill-opacity="1" /><path clip-path="url(#clip150)" d="M651.561 148.689 L651.561 164.338 L647.301 164.338 L647.301 148.828 Q647.301 145.148 645.866 143.319 Q644.431 141.49 641.561 141.49 Q638.112 141.49 636.121 143.69 Q634.13 145.889 634.13 149.685 L634.13 164.338 L629.848 164.338 L629.848 138.412 L634.13 138.412 L634.13 142.44 Q635.658 140.102 637.718 138.944 Q639.801 137.787 642.51 137.787 Q646.977 137.787 649.269 140.565 Q651.561 143.319 651.561 148.689 Z" fill="#000000" fill-rule="nonzero" fill-opacity="1" /><polyline clip-path="url(#clip150)" style="stroke:#e26f46; stroke-linecap:round; stroke-linejoin:round; stroke-width:4; stroke-opacity:1; fill:none" points="253.896,198.898 400.328,198.898 "/>
<path clip-path="url(#clip150)" d="M424.733 181.618 L446.585 181.618 L446.585 185.553 L429.409 185.553 L429.409 195.784 L445.867 195.784 L445.867 199.719 L429.409 199.719 L429.409 212.242 L447.001 212.242 L447.001 216.178 L424.733 216.178 L424.733 181.618 Z" fill="#000000" fill-rule="nonzero" fill-opacity="1" /><path clip-path="url(#clip150)" d="M476.052 190.252 L466.677 202.867 L476.538 216.178 L471.515 216.178 L463.969 205.992 L456.423 216.178 L451.4 216.178 L461.469 202.613 L452.256 190.252 L457.279 190.252 L464.154 199.488 L471.029 190.252 L476.052 190.252 Z" fill="#000000" fill-rule="nonzero" fill-opacity="1" /><path clip-path="url(#clip150)" d="M494.339 203.145 Q489.177 203.145 487.186 204.326 Q485.196 205.506 485.196 208.354 Q485.196 210.622 486.677 211.965 Q488.182 213.284 490.751 213.284 Q494.293 213.284 496.422 210.784 Q498.575 208.261 498.575 204.094 L498.575 203.145 L494.339 203.145 M502.834 201.386 L502.834 216.178 L498.575 216.178 L498.575 212.242 Q497.117 214.603 494.941 215.738 Q492.765 216.849 489.617 216.849 Q485.635 216.849 483.274 214.627 Q480.936 212.381 480.936 208.631 Q480.936 204.256 483.853 202.034 Q486.793 199.812 492.603 199.812 L498.575 199.812 L498.575 199.395 Q498.575 196.455 496.631 194.858 Q494.71 193.238 491.214 193.238 Q488.992 193.238 486.885 193.77 Q484.779 194.303 482.835 195.367 L482.835 191.432 Q485.173 190.53 487.372 190.09 Q489.571 189.627 491.654 189.627 Q497.279 189.627 500.057 192.543 Q502.834 195.46 502.834 201.386 Z" fill="#000000" fill-rule="nonzero" fill-opacity="1" /><path clip-path="url(#clip150)" d="M530.265 191.247 L530.265 195.229 Q528.459 194.233 526.631 193.747 Q524.825 193.238 522.973 193.238 Q518.83 193.238 516.538 195.877 Q514.246 198.492 514.246 203.238 Q514.246 207.983 516.538 210.622 Q518.83 213.238 522.973 213.238 Q524.825 213.238 526.631 212.752 Q528.459 212.242 530.265 211.247 L530.265 215.182 Q528.482 216.016 526.561 216.432 Q524.663 216.849 522.51 216.849 Q516.654 216.849 513.205 213.168 Q509.756 209.488 509.756 203.238 Q509.756 196.895 513.228 193.261 Q516.723 189.627 522.788 189.627 Q524.756 189.627 526.631 190.043 Q528.506 190.437 530.265 191.247 Z" fill="#000000" fill-rule="nonzero" fill-opacity="1" /><path clip-path="url(#clip150)" d="M541.885 182.891 L541.885 190.252 L550.658 190.252 L550.658 193.562 L541.885 193.562 L541.885 207.636 Q541.885 210.807 542.742 211.71 Q543.621 212.613 546.283 212.613 L550.658 212.613 L550.658 216.178 L546.283 216.178 Q541.353 216.178 539.478 214.349 Q537.603 212.497 537.603 207.636 L537.603 193.562 L534.478 193.562 L534.478 190.252 L537.603 190.252 L537.603 182.891 L541.885 182.891 Z" fill="#000000" fill-rule="nonzero" fill-opacity="1" /></svg>
