<?xml version="1.0" encoding="utf-8"?>
<svg xmlns="http://www.w3.org/2000/svg" xmlns:xlink="http://www.w3.org/1999/xlink" width="600" height="400" viewBox="0 0 2400 1600">
<defs>
  <clipPath id="clip180">
    <rect x="0" y="0" width="2400" height="1600"/>
  </clipPath>
</defs>
<path clip-path="url(#clip180)" d="M0 1600 L2400 1600 L2400 0 L0 0  Z" fill="#ffffff" fill-rule="evenodd" fill-opacity="1"/>
<defs>
  <clipPath id="clip181">
    <rect x="480" y="0" width="1681" height="1600"/>
  </clipPath>
</defs>
<path clip-path="url(#clip180)" d="M156.274 1486.45 L2352.76 1486.45 L2352.76 47.2441 L156.274 47.2441  Z" fill="#ffffff" fill-rule="evenodd" fill-opacity="1"/>
<defs>
  <clipPath id="clip182">
    <rect x="156" y="47" width="2197" height="1440"/>
  </clipPath>
</defs>
<polyline clip-path="url(#clip182)" style="stroke:#000000; stroke-linecap:round; stroke-linejoin:round; stroke-width:2; stroke-opacity:0.1; fill:none" points="218.439,1486.45 218.439,47.2441 "/>
<polyline clip-path="url(#clip182)" style="stroke:#000000; stroke-linecap:round; stroke-linejoin:round; stroke-width:2; stroke-opacity:0.1; fill:none" points="736.477,1486.45 736.477,47.2441 "/>
<polyline clip-path="url(#clip182)" style="stroke:#000000; stroke-linecap:round; stroke-linejoin:round; stroke-width:2; stroke-opacity:0.1; fill:none" points="1254.52,1486.45 1254.52,47.2441 "/>
<polyline clip-path="url(#clip182)" style="stroke:#000000; stroke-linecap:round; stroke-linejoin:round; stroke-width:2; stroke-opacity:0.1; fill:none" points="1772.55,1486.45 1772.55,47.2441 "/>
<polyline clip-path="url(#clip182)" style="stroke:#000000; stroke-linecap:round; stroke-linejoin:round; stroke-width:2; stroke-opacity:0.1; fill:none" points="2290.59,1486.45 2290.59,47.2441 "/>
<polyline clip-path="url(#clip180)" style="stroke:#000000; stroke-linecap:round; stroke-linejoin:round; stroke-width:4; stroke-opacity:1; fill:none" points="156.274,1486.45 2352.76,1486.45 "/>
<polyline clip-path="url(#clip180)" style="stroke:#000000; stroke-linecap:round; stroke-linejoin:round; stroke-width:4; stroke-opacity:1; fill:none" points="218.439,1486.45 218.439,1467.55 "/>
<polyline clip-path="url(#clip180)" style="stroke:#000000; stroke-linecap:round; stroke-linejoin:round; stroke-width:4; stroke-opacity:1; fill:none" points="736.477,1486.45 736.477,1467.55 "/>
<polyline clip-path="url(#clip180)" style="stroke:#000000; stroke-linecap:round; stroke-linejoin:round; stroke-width:4; stroke-opacity:1; fill:none" points="1254.52,1486.45 1254.52,1467.55 "/>
<polyline clip-path="url(#clip180)" style="stroke:#000000; stroke-linecap:round; stroke-linejoin:round; stroke-width:4; stroke-opacity:1; fill:none" points="1772.55,1486.45 1772.55,1467.55 "/>
<polyline clip-path="url(#clip180)" style="stroke:#000000; stroke-linecap:round; stroke-linejoin:round; stroke-width:4; stroke-opacity:1; fill:none" points="2290.59,1486.45 2290.59,1467.55 "/>
<path clip-path="url(#clip180)" d="M164.967 1532.02 L194.643 1532.02 L194.643 1535.95 L164.967 1535.95 L164.967 1532.02 Z" fill="#000000" fill-rule="nonzero" fill-opacity="1" /><path clip-path="url(#clip180)" d="M205.545 1544.91 L213.184 1544.91 L213.184 1518.55 L204.874 1520.21 L204.874 1515.95 L213.138 1514.29 L217.814 1514.29 L217.814 1544.91 L225.453 1544.91 L225.453 1548.85 L205.545 1548.85 L205.545 1544.91 Z" fill="#000000" fill-rule="nonzero" fill-opacity="1" /><path clip-path="url(#clip180)" d="M234.897 1542.97 L239.781 1542.97 L239.781 1548.85 L234.897 1548.85 L234.897 1542.97 Z" fill="#000000" fill-rule="nonzero" fill-opacity="1" /><path clip-path="url(#clip180)" d="M259.966 1517.37 Q256.355 1517.37 254.527 1520.93 Q252.721 1524.47 252.721 1531.6 Q252.721 1538.71 254.527 1542.27 Q256.355 1545.82 259.966 1545.82 Q263.601 1545.82 265.406 1542.27 Q267.235 1538.71 267.235 1531.6 Q267.235 1524.47 265.406 1520.93 Q263.601 1517.37 259.966 1517.37 M259.966 1513.66 Q265.776 1513.66 268.832 1518.27 Q271.911 1522.85 271.911 1531.6 Q271.911 1540.33 268.832 1544.94 Q265.776 1549.52 259.966 1549.52 Q254.156 1549.52 251.077 1544.94 Q248.022 1540.33 248.022 1531.6 Q248.022 1522.85 251.077 1518.27 Q254.156 1513.66 259.966 1513.66 Z" fill="#000000" fill-rule="nonzero" fill-opacity="1" /><path clip-path="url(#clip180)" d="M683.503 1532.02 L713.178 1532.02 L713.178 1535.95 L683.503 1535.95 L683.503 1532.02 Z" fill="#000000" fill-rule="nonzero" fill-opacity="1" /><path clip-path="url(#clip180)" d="M733.271 1517.37 Q729.66 1517.37 727.831 1520.93 Q726.026 1524.47 726.026 1531.6 Q726.026 1538.71 727.831 1542.27 Q729.66 1545.82 733.271 1545.82 Q736.905 1545.82 738.711 1542.27 Q740.539 1538.71 740.539 1531.6 Q740.539 1524.47 738.711 1520.93 Q736.905 1517.37 733.271 1517.37 M733.271 1513.66 Q739.081 1513.66 742.137 1518.27 Q745.215 1522.85 745.215 1531.6 Q745.215 1540.33 742.137 1544.94 Q739.081 1549.52 733.271 1549.52 Q727.461 1549.52 724.382 1544.94 Q721.327 1540.33 721.327 1531.6 Q721.327 1522.85 724.382 1518.27 Q727.461 1513.66 733.271 1513.66 Z" fill="#000000" fill-rule="nonzero" fill-opacity="1" /><path clip-path="url(#clip180)" d="M753.433 1542.97 L758.317 1542.97 L758.317 1548.85 L753.433 1548.85 L753.433 1542.97 Z" fill="#000000" fill-rule="nonzero" fill-opacity="1" /><path clip-path="url(#clip180)" d="M768.548 1514.29 L786.905 1514.29 L786.905 1518.22 L772.831 1518.22 L772.831 1526.7 Q773.849 1526.35 774.868 1526.19 Q775.886 1526 776.905 1526 Q782.692 1526 786.072 1529.17 Q789.451 1532.34 789.451 1537.76 Q789.451 1543.34 785.979 1546.44 Q782.507 1549.52 776.187 1549.52 Q774.011 1549.52 771.743 1549.15 Q769.498 1548.78 767.09 1548.04 L767.09 1543.34 Q769.173 1544.47 771.396 1545.03 Q773.618 1545.58 776.095 1545.58 Q780.099 1545.58 782.437 1543.48 Q784.775 1541.37 784.775 1537.76 Q784.775 1534.15 782.437 1532.04 Q780.099 1529.94 776.095 1529.94 Q774.22 1529.94 772.345 1530.35 Q770.493 1530.77 768.548 1531.65 L768.548 1514.29 Z" fill="#000000" fill-rule="nonzero" fill-opacity="1" /><path clip-path="url(#clip180)" d="M1231.9 1517.37 Q1228.29 1517.37 1226.46 1520.93 Q1224.65 1524.47 1224.65 1531.6 Q1224.65 1538.71 1226.46 1542.27 Q1228.29 1545.82 1231.9 1545.82 Q1235.53 1545.82 1237.34 1542.27 Q1239.17 1538.71 1239.17 1531.6 Q1239.17 1524.47 1237.34 1520.93 Q1235.53 1517.37 1231.9 1517.37 M1231.9 1513.66 Q1237.71 1513.66 1240.77 1518.27 Q1243.84 1522.85 1243.84 1531.6 Q1243.84 1540.33 1240.77 1544.94 Q1237.71 1549.52 1231.9 1549.52 Q1226.09 1549.52 1223.01 1544.94 Q1219.96 1540.33 1219.96 1531.6 Q1219.96 1522.85 1223.01 1518.27 Q1226.09 1513.66 1231.9 1513.66 Z" fill="#000000" fill-rule="nonzero" fill-opacity="1" /><path clip-path="url(#clip180)" d="M1252.06 1542.97 L1256.95 1542.97 L1256.95 1548.85 L1252.06 1548.85 L1252.06 1542.97 Z" fill="#000000" fill-rule="nonzero" fill-opacity="1" /><path clip-path="url(#clip180)" d="M1277.13 1517.37 Q1273.52 1517.37 1271.69 1520.93 Q1269.89 1524.47 1269.89 1531.6 Q1269.89 1538.71 1271.69 1542.27 Q1273.52 1545.82 1277.13 1545.82 Q1280.76 1545.82 1282.57 1542.27 Q1284.4 1538.71 1284.4 1531.6 Q1284.4 1524.47 1282.57 1520.93 Q1280.76 1517.37 1277.13 1517.37 M1277.13 1513.66 Q1282.94 1513.66 1286 1518.27 Q1289.08 1522.85 1289.08 1531.6 Q1289.08 1540.33 1286 1544.94 Q1282.94 1549.52 1277.13 1549.52 Q1271.32 1549.52 1268.24 1544.94 Q1265.19 1540.33 1265.19 1531.6 Q1265.19 1522.85 1268.24 1518.27 Q1271.32 1513.66 1277.13 1513.66 Z" fill="#000000" fill-rule="nonzero" fill-opacity="1" /><path clip-path="url(#clip180)" d="M1750.44 1517.37 Q1746.82 1517.37 1745 1520.93 Q1743.19 1524.47 1743.19 1531.6 Q1743.19 1538.71 1745 1542.27 Q1746.82 1545.82 1750.44 1545.82 Q1754.07 1545.82 1755.88 1542.27 Q1757.7 1538.71 1757.7 1531.6 Q1757.7 1524.47 1755.88 1520.93 Q1754.07 1517.37 1750.44 1517.37 M1750.44 1513.66 Q1756.25 1513.66 1759.3 1518.27 Q1762.38 1522.85 1762.38 1531.6 Q1762.38 1540.33 1759.3 1544.94 Q1756.25 1549.52 1750.44 1549.52 Q1744.63 1549.52 1741.55 1544.94 Q1738.49 1540.33 1738.49 1531.6 Q1738.49 1522.85 1741.55 1518.27 Q1744.63 1513.66 1750.44 1513.66 Z" fill="#000000" fill-rule="nonzero" fill-opacity="1" /><path clip-path="url(#clip180)" d="M1770.6 1542.97 L1775.48 1542.97 L1775.48 1548.85 L1770.6 1548.85 L1770.6 1542.97 Z" fill="#000000" fill-rule="nonzero" fill-opacity="1" /><path clip-path="url(#clip180)" d="M1785.71 1514.29 L1804.07 1514.29 L1804.07 1518.22 L1790 1518.22 L1790 1526.7 Q1791.01 1526.35 1792.03 1526.19 Q1793.05 1526 1794.07 1526 Q1799.86 1526 1803.24 1529.17 Q1806.62 1532.34 1806.62 1537.76 Q1806.62 1543.34 1803.14 1546.44 Q1799.67 1549.52 1793.35 1549.52 Q1791.18 1549.52 1788.91 1549.15 Q1786.66 1548.78 1784.25 1548.04 L1784.25 1543.34 Q1786.34 1544.47 1788.56 1545.03 Q1790.78 1545.58 1793.26 1545.58 Q1797.26 1545.58 1799.6 1543.48 Q1801.94 1541.37 1801.94 1537.76 Q1801.94 1534.15 1799.6 1532.04 Q1797.26 1529.94 1793.26 1529.94 Q1791.38 1529.94 1789.51 1530.35 Q1787.66 1530.77 1785.71 1531.65 L1785.71 1514.29 Z" fill="#000000" fill-rule="nonzero" fill-opacity="1" /><path clip-path="url(#clip180)" d="M2257.74 1544.91 L2265.38 1544.91 L2265.38 1518.55 L2257.07 1520.21 L2257.07 1515.95 L2265.34 1514.29 L2270.01 1514.29 L2270.01 1544.91 L2277.65 1544.91 L2277.65 1548.85 L2257.74 1548.85 L2257.74 1544.91 Z" fill="#000000" fill-rule="nonzero" fill-opacity="1" /><path clip-path="url(#clip180)" d="M2287.1 1542.97 L2291.98 1542.97 L2291.98 1548.85 L2287.1 1548.85 L2287.1 1542.97 Z" fill="#000000" fill-rule="nonzero" fill-opacity="1" /><path clip-path="url(#clip180)" d="M2312.17 1517.37 Q2308.55 1517.37 2306.73 1520.93 Q2304.92 1524.47 2304.92 1531.6 Q2304.92 1538.71 2306.73 1542.27 Q2308.55 1545.82 2312.17 1545.82 Q2315.8 1545.82 2317.61 1542.27 Q2319.43 1538.71 2319.43 1531.6 Q2319.43 1524.47 2317.61 1520.93 Q2315.8 1517.37 2312.17 1517.37 M2312.17 1513.66 Q2317.98 1513.66 2321.03 1518.27 Q2324.11 1522.85 2324.11 1531.6 Q2324.11 1540.33 2321.03 1544.94 Q2317.98 1549.52 2312.17 1549.52 Q2306.36 1549.52 2303.28 1544.94 Q2300.22 1540.33 2300.22 1531.6 Q2300.22 1522.85 2303.28 1518.27 Q2306.36 1513.66 2312.17 1513.66 Z" fill="#000000" fill-rule="nonzero" fill-opacity="1" /><polyline clip-path="url(#clip182)" style="stroke:#000000; stroke-linecap:round; stroke-linejoin:round; stroke-width:2; stroke-opacity:0.1; fill:none" points="156.274,1247.46 2352.76,1247.46 "/>
<polyline clip-path="url(#clip182)" style="stroke:#000000; stroke-linecap:round; stroke-linejoin:round; stroke-width:2; stroke-opacity:0.1; fill:none" points="156.274,975.349 2352.76,975.349 "/>
<polyline clip-path="url(#clip182)" style="stroke:#000000; stroke-linecap:round; stroke-linejoin:round; stroke-width:2; stroke-opacity:0.1; fill:none" points="156.274,703.236 2352.76,703.236 "/>
<polyline clip-path="url(#clip182)" style="stroke:#000000; stroke-linecap:round; stroke-linejoin:round; stroke-width:2; stroke-opacity:0.1; fill:none" points="156.274,431.124 2352.76,431.124 "/>
<polyline clip-path="url(#clip182)" style="stroke:#000000; stroke-linecap:round; stroke-linejoin:round; stroke-width:2; stroke-opacity:0.1; fill:none" points="156.274,159.011 2352.76,159.011 "/>
<polyline clip-path="url(#clip180)" style="stroke:#000000; stroke-linecap:round; stroke-linejoin:round; stroke-width:4; stroke-opacity:1; fill:none" points="156.274,1486.45 156.274,47.2441 "/>
<polyline clip-path="url(#clip180)" style="stroke:#000000; stroke-linecap:round; stroke-linejoin:round; stroke-width:4; stroke-opacity:1; fill:none" points="156.274,1247.46 175.172,1247.46 "/>
<polyline clip-path="url(#clip180)" style="stroke:#000000; stroke-linecap:round; stroke-linejoin:round; stroke-width:4; stroke-opacity:1; fill:none" points="156.274,975.349 175.172,975.349 "/>
<polyline clip-path="url(#clip180)" style="stroke:#000000; stroke-linecap:round; stroke-linejoin:round; stroke-width:4; stroke-opacity:1; fill:none" points="156.274,703.236 175.172,703.236 "/>
<polyline clip-path="url(#clip180)" style="stroke:#000000; stroke-linecap:round; stroke-linejoin:round; stroke-width:4; stroke-opacity:1; fill:none" points="156.274,431.124 175.172,431.124 "/>
<polyline clip-path="url(#clip180)" style="stroke:#000000; stroke-linecap:round; stroke-linejoin:round; stroke-width:4; stroke-opacity:1; fill:none" points="156.274,159.011 175.172,159.011 "/>
<path clip-path="url(#clip180)" d="M63.0985 1233.26 Q59.4875 1233.26 57.6588 1236.83 Q55.8532 1240.37 55.8532 1247.5 Q55.8532 1254.6 57.6588 1258.17 Q59.4875 1261.71 63.0985 1261.71 Q66.7328 1261.71 68.5383 1258.17 Q70.367 1254.6 70.367 1247.5 Q70.367 1240.37 68.5383 1236.83 Q66.7328 1233.26 63.0985 1233.26 M63.0985 1229.56 Q68.9087 1229.56 71.9642 1234.16 Q75.0429 1238.75 75.0429 1247.5 Q75.0429 1256.22 71.9642 1260.83 Q68.9087 1265.41 63.0985 1265.41 Q57.2884 1265.41 54.2097 1260.83 Q51.1542 1256.22 51.1542 1247.5 Q51.1542 1238.75 54.2097 1234.16 Q57.2884 1229.56 63.0985 1229.56 Z" fill="#000000" fill-rule="nonzero" fill-opacity="1" /><path clip-path="url(#clip180)" d="M83.2605 1258.86 L88.1447 1258.86 L88.1447 1264.74 L83.2605 1264.74 L83.2605 1258.86 Z" fill="#000000" fill-rule="nonzero" fill-opacity="1" /><path clip-path="url(#clip180)" d="M108.33 1233.26 Q104.719 1233.26 102.89 1236.83 Q101.084 1240.37 101.084 1247.5 Q101.084 1254.6 102.89 1258.17 Q104.719 1261.71 108.33 1261.71 Q111.964 1261.71 113.77 1258.17 Q115.598 1254.6 115.598 1247.5 Q115.598 1240.37 113.77 1236.83 Q111.964 1233.26 108.33 1233.26 M108.33 1229.56 Q114.14 1229.56 117.195 1234.16 Q120.274 1238.75 120.274 1247.5 Q120.274 1256.22 117.195 1260.83 Q114.14 1265.41 108.33 1265.41 Q102.52 1265.41 99.4409 1260.83 Q96.3854 1256.22 96.3854 1247.5 Q96.3854 1238.75 99.4409 1234.16 Q102.52 1229.56 108.33 1229.56 Z" fill="#000000" fill-rule="nonzero" fill-opacity="1" /><path clip-path="url(#clip180)" d="M63.7467 961.148 Q60.1356 961.148 58.3069 964.713 Q56.5014 968.254 56.5014 975.384 Q56.5014 982.49 58.3069 986.055 Q60.1356 989.597 63.7467 989.597 Q67.3809 989.597 69.1865 986.055 Q71.0152 982.49 71.0152 975.384 Q71.0152 968.254 69.1865 964.713 Q67.3809 961.148 63.7467 961.148 M63.7467 957.444 Q69.5568 957.444 72.6124 962.05 Q75.6911 966.634 75.6911 975.384 Q75.6911 984.111 72.6124 988.717 Q69.5568 993.3 63.7467 993.3 Q57.9365 993.3 54.8578 988.717 Q51.8023 984.111 51.8023 975.384 Q51.8023 966.634 54.8578 962.05 Q57.9365 957.444 63.7467 957.444 Z" fill="#000000" fill-rule="nonzero" fill-opacity="1" /><path clip-path="url(#clip180)" d="M83.9086 986.749 L88.7928 986.749 L88.7928 992.629 L83.9086 992.629 L83.9086 986.749 Z" fill="#000000" fill-rule="nonzero" fill-opacity="1" /><path clip-path="url(#clip180)" d="M113.145 973.995 Q116.501 974.712 118.376 976.981 Q120.274 979.249 120.274 982.583 Q120.274 987.699 116.756 990.499 Q113.237 993.3 106.756 993.3 Q104.58 993.3 102.265 992.861 Q99.9733 992.444 97.5197 991.587 L97.5197 987.074 Q99.4641 988.208 101.779 988.786 Q104.094 989.365 106.617 989.365 Q111.015 989.365 113.307 987.629 Q115.621 985.893 115.621 982.583 Q115.621 979.527 113.469 977.814 Q111.339 976.078 107.52 976.078 L103.492 976.078 L103.492 972.236 L107.705 972.236 Q111.154 972.236 112.983 970.87 Q114.811 969.481 114.811 966.888 Q114.811 964.226 112.913 962.814 Q111.038 961.379 107.52 961.379 Q105.598 961.379 103.399 961.796 Q101.2 962.213 98.5613 963.092 L98.5613 958.926 Q101.223 958.185 103.538 957.814 Q105.876 957.444 107.936 957.444 Q113.26 957.444 116.362 959.875 Q119.464 962.282 119.464 966.402 Q119.464 969.273 117.82 971.263 Q116.177 973.231 113.145 973.995 Z" fill="#000000" fill-rule="nonzero" fill-opacity="1" /><path clip-path="url(#clip180)" d="M62.9365 689.035 Q59.3254 689.035 57.4967 692.6 Q55.6912 696.142 55.6912 703.271 Q55.6912 710.378 57.4967 713.942 Q59.3254 717.484 62.9365 717.484 Q66.5707 717.484 68.3763 713.942 Q70.205 710.378 70.205 703.271 Q70.205 696.142 68.3763 692.6 Q66.5707 689.035 62.9365 689.035 M62.9365 685.331 Q68.7467 685.331 71.8022 689.938 Q74.8809 694.521 74.8809 703.271 Q74.8809 711.998 71.8022 716.604 Q68.7467 721.188 62.9365 721.188 Q57.1264 721.188 54.0477 716.604 Q50.9921 711.998 50.9921 703.271 Q50.9921 694.521 54.0477 689.938 Q57.1264 685.331 62.9365 685.331 Z" fill="#000000" fill-rule="nonzero" fill-opacity="1" /><path clip-path="url(#clip180)" d="M83.0984 714.637 L87.9827 714.637 L87.9827 720.516 L83.0984 720.516 L83.0984 714.637 Z" fill="#000000" fill-rule="nonzero" fill-opacity="1" /><path clip-path="url(#clip180)" d="M108.746 701.373 Q105.598 701.373 103.746 703.526 Q101.918 705.679 101.918 709.429 Q101.918 713.155 103.746 715.331 Q105.598 717.484 108.746 717.484 Q111.895 717.484 113.723 715.331 Q115.575 713.155 115.575 709.429 Q115.575 705.679 113.723 703.526 Q111.895 701.373 108.746 701.373 M118.029 686.72 L118.029 690.98 Q116.27 690.146 114.464 689.706 Q112.682 689.267 110.922 689.267 Q106.293 689.267 103.839 692.392 Q101.409 695.517 101.061 701.836 Q102.427 699.822 104.487 698.757 Q106.547 697.669 109.024 697.669 Q114.233 697.669 117.242 700.841 Q120.274 703.989 120.274 709.429 Q120.274 714.753 117.126 717.97 Q113.978 721.188 108.746 721.188 Q102.751 721.188 99.5798 716.604 Q96.4085 711.998 96.4085 703.271 Q96.4085 695.077 100.297 690.216 Q104.186 685.331 110.737 685.331 Q112.496 685.331 114.279 685.679 Q116.084 686.026 118.029 686.72 Z" fill="#000000" fill-rule="nonzero" fill-opacity="1" /><path clip-path="url(#clip180)" d="M63.2837 416.923 Q59.6726 416.923 57.8439 420.487 Q56.0384 424.029 56.0384 431.159 Q56.0384 438.265 57.8439 441.83 Q59.6726 445.371 63.2837 445.371 Q66.918 445.371 68.7235 441.83 Q70.5522 438.265 70.5522 431.159 Q70.5522 424.029 68.7235 420.487 Q66.918 416.923 63.2837 416.923 M63.2837 413.219 Q69.0939 413.219 72.1494 417.825 Q75.2281 422.409 75.2281 431.159 Q75.2281 439.885 72.1494 444.492 Q69.0939 449.075 63.2837 449.075 Q57.4736 449.075 54.3949 444.492 Q51.3393 439.885 51.3393 431.159 Q51.3393 422.409 54.3949 417.825 Q57.4736 413.219 63.2837 413.219 Z" fill="#000000" fill-rule="nonzero" fill-opacity="1" /><path clip-path="url(#clip180)" d="M83.4457 442.524 L88.3299 442.524 L88.3299 448.404 L83.4457 448.404 L83.4457 442.524 Z" fill="#000000" fill-rule="nonzero" fill-opacity="1" /><path clip-path="url(#clip180)" d="M98.6539 447.686 L98.6539 443.427 Q100.413 444.26 102.219 444.7 Q104.024 445.14 105.76 445.14 Q110.39 445.14 112.82 442.038 Q115.274 438.913 115.621 432.571 Q114.279 434.561 112.219 435.626 Q110.158 436.691 107.658 436.691 Q102.473 436.691 99.4409 433.566 Q96.4317 430.418 96.4317 424.978 Q96.4317 419.654 99.5798 416.436 Q102.728 413.219 107.959 413.219 Q113.955 413.219 117.103 417.825 Q120.274 422.409 120.274 431.159 Q120.274 439.33 116.385 444.214 Q112.52 449.075 105.969 449.075 Q104.209 449.075 102.404 448.728 Q100.598 448.381 98.6539 447.686 M107.959 433.034 Q111.108 433.034 112.936 430.881 Q114.788 428.728 114.788 424.978 Q114.788 421.251 112.936 419.098 Q111.108 416.923 107.959 416.923 Q104.811 416.923 102.959 419.098 Q101.131 421.251 101.131 424.978 Q101.131 428.728 102.959 430.881 Q104.811 433.034 107.959 433.034 Z" fill="#000000" fill-rule="nonzero" fill-opacity="1" /><path clip-path="url(#clip180)" d="M55.506 172.356 L63.1448 172.356 L63.1448 145.99 L54.8347 147.657 L54.8347 143.398 L63.0985 141.731 L67.7744 141.731 L67.7744 172.356 L75.4133 172.356 L75.4133 176.291 L55.506 176.291 L55.506 172.356 Z" fill="#000000" fill-rule="nonzero" fill-opacity="1" /><path clip-path="url(#clip180)" d="M84.8577 170.412 L89.7419 170.412 L89.7419 176.291 L84.8577 176.291 L84.8577 170.412 Z" fill="#000000" fill-rule="nonzero" fill-opacity="1" /><path clip-path="url(#clip180)" d="M103.955 172.356 L120.274 172.356 L120.274 176.291 L98.3298 176.291 L98.3298 172.356 Q100.992 169.601 105.575 164.972 Q110.182 160.319 111.362 158.976 Q113.608 156.453 114.487 154.717 Q115.39 152.958 115.39 151.268 Q115.39 148.514 113.445 146.777 Q111.524 145.041 108.422 145.041 Q106.223 145.041 103.77 145.805 Q101.339 146.569 98.5613 148.12 L98.5613 143.398 Q101.385 142.264 103.839 141.685 Q106.293 141.106 108.33 141.106 Q113.7 141.106 116.895 143.791 Q120.089 146.477 120.089 150.967 Q120.089 153.097 119.279 155.018 Q118.492 156.916 116.385 159.509 Q115.807 160.18 112.705 163.398 Q109.603 166.592 103.955 172.356 Z" fill="#000000" fill-rule="nonzero" fill-opacity="1" /><polyline clip-path="url(#clip182)" style="stroke:#009af9; stroke-linecap:round; stroke-linejoin:round; stroke-width:16; stroke-opacity:1; fill:none" stroke-dasharray="8, 16" points="218.439,1110.98 228.852,1093.47 239.264,1079.6 249.677,1070.32 260.09,1066.48 270.503,1068.74 280.916,1077.42 291.329,1092.32 301.741,1112.65 312.154,1137.21 322.567,1164.79 332.98,1194.65 343.393,1226.59 353.805,1260.27 364.218,1294.2 374.631,1325.57 385.044,1351.77 395.457,1372.33 405.87,1389.38 416.282,1405.63 426.695,1421.54 437.108,1434.1 447.521,1438.29 457.934,1430.36 468.347,1410.84 478.759,1384.69 489.172,1357.87 499.585,1333.22 509.998,1309.4 520.411,1283.21 530.824,1252.81 541.236,1219.11 551.649,1184.89 562.062,1153.13 572.475,1125.85 582.888,1103.89 593.301,1087.32 603.713,1076 614.126,1069.79 624.539,1068.56 634.952,1072.2 645.365,1080.92 655.777,1095.41 666.19,1116.21 676.603,1142.46 687.016,1171.61 697.429,1201.49 707.842,1232.38 718.254,1265.62 728.667,1300.53 739.08,1333.78 749.493,1361.9 759.906,1383.72 770.319,1400.2 780.731,1412.7 791.144,1421.6 801.557,1426.27 811.97,1425.72 822.383,1419.04 832.796,1405.64 843.208,1385.79 853.621,1360.79 864.034,1332.46 874.447,1302.37 884.86,1271.44 895.273,1239.44 905.685,1205.65 916.098,1170.98 926.511,1139.99 936.924,1121.09 947.337,1126.34 957.749,1157.92 968.162,1165.36 978.575,1079.95 988.988,1012.62 999.401,1165.35 1009.81,1278.81 1020.23,1136.3 1030.64,1049.91 1041.05,1108.01 1051.46,1180.35 1061.88,1219.4 1072.29,1196.94 1082.7,1179.29 1093.12,1223.21 1103.53,1317.45 1113.94,1404.85 1124.35,1443 1134.77,1438.63 1145.18,1425.78 1155.59,1415.5 1166.01,1393.17 1176.42,1377.23 1186.83,1395.71 1197.24,1428.76 1207.66,1445.72 1218.07,1437.38 1228.48,1377.32 1238.9,1209.1 1249.31,947.234 1259.72,673.662 1270.13,440.8 1280.55,262.233 1290.96,165.085 1301.37,188.96 1311.79,297.281 1322.2,381.833 1332.61,394.64 1343.02,363.308 1353.44,330.076 1363.85,318.274 1374.26,325.028 1384.68,332.264 1395.09,332.003 1405.5,338.121 1415.91,359.004 1426.33,381.806 1436.74,395.135 1447.15,376.086 1457.57,333.407 1467.98,315.355 1478.39,297.799 1488.8,287.333 1499.22,342.913 1509.63,422.856 1520.04,396.376 1530.45,354.209 1540.87,390.353 1551.28,433.452 1561.69,433.669 1572.11,393.657 1582.52,338.53 1592.93,290.091 1603.34,258.581 1613.76,247.113 1624.17,257.549 1634.58,290.041 1645,338.563 1655.41,389.495 1665.82,427.148 1676.23,441.187 1686.65,429.084 1697.06,394.087 1707.47,343.069 1717.89,286.375 1728.3,238.554 1738.71,216.827 1749.12,234.295 1759.54,289.73 1769.95,364.16 1780.36,432.359 1790.78,477.241 1801.19,489.367 1811.6,460.003 1822.01,387.397 1832.43,290.064 1842.84,204.258 1853.25,164.112 1863.67,182.89 1874.08,249.316 1884.49,338.093 1894.9,423.259 1905.32,485.204 1915.73,511.341 1926.14,495.327 1936.56,438.246 1946.97,351.025 1957.38,254.828 1967.79,177.275 1978.21,144.943 1988.62,173.003 1999.03,255.568 2009.45,365.557 2019.86,467.379 2030.27,532.055 2040.68,544.1 2051.1,501.25 2061.51,413.169 2071.92,301.508 2082.33,197.956 2092.75,134.704 2103.16,130.152 2113.57,183.831 2123.99,283.525 2134.4,408.229 2144.81,522.862 2155.22,583.766 2165.64,561.931 2176.05,463.557 2186.46,328.567 2196.88,208.69 2207.29,141.246 2217.7,135.962 2228.11,180.024 2238.53,251.897 2248.94,332.255 2259.35,408.246 2269.77,473.31 2280.18,525.395 2290.59,565.104 "/>
<polyline clip-path="url(#clip182)" style="stroke:#e26f46; stroke-linecap:round; stroke-linejoin:round; stroke-width:4; stroke-opacity:1; fill:none" points="218.439,1111.23 228.852,1091.9 239.264,1077.65 249.677,1068.94 260.09,1066.05 270.503,1069.09 280.916,1077.95 291.329,1092.34 301.741,1111.8 312.154,1135.68 322.567,1163.21 332.98,1193.49 343.393,1225.53 353.805,1258.29 364.218,1290.69 374.631,1321.69 385.044,1350.26 395.457,1375.47 405.87,1396.51 416.282,1412.68 426.695,1423.46 437.108,1428.5 447.521,1427.63 457.934,1420.88 468.347,1408.46 478.759,1390.8 489.172,1368.45 499.585,1342.16 509.998,1312.77 520.411,1281.26 530.824,1248.64 541.236,1215.98 551.649,1184.35 562.062,1154.78 572.475,1128.24 582.888,1105.58 593.301,1087.56 603.713,1074.75 614.126,1067.59 624.539,1066.29 634.952,1070.9 645.365,1081.28 655.777,1097.08 666.19,1117.79 676.603,1142.73 687.016,1171.09 697.429,1201.95 707.842,1234.28 718.254,1267.05 728.667,1299.18 739.08,1329.62 749.493,1357.38 759.906,1381.55 770.319,1401.35 780.731,1416.12 791.144,1425.39 801.557,1428.85 811.97,1426.39 822.383,1418.09 832.796,1404.22 843.208,1385.24 853.621,1361.76 864.034,1334.55 874.447,1304.5 884.86,1272.58 895.273,1239.85 905.685,1207.36 916.098,1176.19 926.511,1147.33 936.924,1121.75 947.337,1100.27 957.749,1083.59 968.162,1072.27 978.575,1066.66 988.988,1066.95 999.401,1073.13 1009.81,1085 1020.23,1102.18 1030.64,1124.09 1041.05,1150.03 1051.46,1179.16 1061.88,1210.51 1072.29,1243.07 1082.7,1275.77 1093.12,1307.54 1103.53,1337.36 1113.94,1364.24 1124.35,1387.31 1134.77,1405.82 1145.18,1419.16 1155.59,1426.89 1166.01,1428.77 1176.42,1424.73 1186.83,1414.91 1197.24,1399.62 1207.66,1379.36 1218.07,1354.8 1228.48,1326.74 1238.9,1296.09 1249.31,1263.85 1259.72,339.102 1270.13,337.603 1280.55,338.968 1290.96,343.51 1301.37,349.837 1311.79,355.277 1322.2,356.888 1332.61,352.702 1343.02,342.725 1353.44,329.274 1363.85,316.474 1374.26,308.997 1384.68,310.431 1395.09,321.84 1405.5,341.029 1415.91,362.867 1426.33,380.651 1436.74,388.152 1447.15,381.731 1457.57,361.807 1467.98,333.149 1478.39,303.779 1488.8,282.73 1499.22,277.277 1509.63,290.496 1520.04,319.946 1530.45,357.98 1540.87,393.708 1551.28,416.116 1561.69,417.443 1572.11,395.795 1582.52,356.12 1592.93,309.156 1603.34,268.533 1613.76,246.816 1624.17,251.645 1634.58,283.129 1645,333.391 1655.41,388.49 1665.82,432.289 1676.23,451.172 1686.65,438.259 1697.06,395.798 1707.47,334.938 1717.89,272.832 1728.3,227.8 1738.71,213.931 1749.12,236.704 1759.54,290.984 1769.95,362.092 1780.36,429.76 1790.78,473.907 1801.19,480.594 1811.6,446.387 1822.01,379.779 1832.43,299.135 1842.84,227.637 1853.25,186.62 1863.67,189.213 1874.08,236.183 1884.49,315.277 1894.9,404.389 1905.32,477.73 1915.73,513.293 1926.14,499.444 1936.56,438.673 1946.97,347.304 1957.38,251.134 1967.79,178.149 1978.21,150.387 1988.62,177.291 1999.03,252.581 2009.45,355.637 2019.86,457.137 2030.27,527.394 2040.68,545.041 2051.1,503.506 2061.51,413.334 2071.92,299.556 2082.33,194.747 2092.75,129.705 2103.16,124.4 2113.57,181.869 2123.99,286.913 2134.4,410.079 2144.81,515.921 2155.22,573.193 2165.64,564.075 2176.05,489.678 2186.46,370.164 2196.88,239.298 2207.29,134.914 2217.7,87.9763 2228.11,113.404 2238.53,205.371 2248.94,338.557 2259.35,475.102 2269.77,575.373 2280.18,609.458 2290.59,566.085 "/>
<path clip-path="url(#clip180)" d="M229.49 250.738 L675.966 250.738 L675.966 95.2176 L229.49 95.2176  Z" fill="#ffffff" fill-rule="evenodd" fill-opacity="1"/>
<polyline clip-path="url(#clip180)" style="stroke:#000000; stroke-linecap:round; stroke-linejoin:round; stroke-width:4; stroke-opacity:1; fill:none" points="229.49,250.738 675.966,250.738 675.966,95.2176 229.49,95.2176 229.49,250.738 "/>
<polyline clip-path="url(#clip180)" style="stroke:#009af9; stroke-linecap:round; stroke-linejoin:round; stroke-width:16; stroke-opacity:1; fill:none" stroke-dasharray="8, 16" points="253.896,147.058 400.328,147.058 "/>
<path clip-path="url(#clip180)" d="M429.409 133.62 L429.409 146.606 L435.289 146.606 Q438.552 146.606 440.335 144.916 Q442.117 143.227 442.117 140.102 Q442.117 137 440.335 135.31 Q438.552 133.62 435.289 133.62 L429.409 133.62 M424.733 129.778 L435.289 129.778 Q441.099 129.778 444.062 132.416 Q447.048 135.032 447.048 140.102 Q447.048 145.217 444.062 147.833 Q441.099 150.449 435.289 150.449 L429.409 150.449 L429.409 164.338 L424.733 164.338 L424.733 129.778 Z" fill="#000000" fill-rule="nonzero" fill-opacity="1" /><path clip-path="url(#clip180)" d="M467.325 142.393 Q466.608 141.977 465.751 141.791 Q464.918 141.583 463.899 141.583 Q460.288 141.583 458.344 143.944 Q456.423 146.282 456.423 150.68 L456.423 164.338 L452.14 164.338 L452.14 138.412 L456.423 138.412 L456.423 142.44 Q457.765 140.078 459.918 138.944 Q462.071 137.787 465.149 137.787 Q465.589 137.787 466.122 137.856 Q466.654 137.903 467.302 138.018 L467.325 142.393 Z" fill="#000000" fill-rule="nonzero" fill-opacity="1" /><path clip-path="url(#clip180)" d="M492.927 150.31 L492.927 152.393 L473.344 152.393 Q473.622 156.791 475.983 159.106 Q478.367 161.398 482.603 161.398 Q485.057 161.398 487.348 160.796 Q489.663 160.194 491.932 158.99 L491.932 163.018 Q489.64 163.99 487.233 164.5 Q484.825 165.009 482.348 165.009 Q476.145 165.009 472.511 161.398 Q468.899 157.787 468.899 151.629 Q468.899 145.264 472.325 141.537 Q475.774 137.787 481.608 137.787 Q486.839 137.787 489.872 141.166 Q492.927 144.523 492.927 150.31 M488.668 149.06 Q488.622 145.565 486.7 143.481 Q484.802 141.398 481.654 141.398 Q478.089 141.398 475.936 143.412 Q473.807 145.426 473.483 149.083 L488.668 149.06 Z" fill="#000000" fill-rule="nonzero" fill-opacity="1" /><path clip-path="url(#clip180)" d="M516.978 142.347 L516.978 128.319 L521.237 128.319 L521.237 164.338 L516.978 164.338 L516.978 160.449 Q515.635 162.763 513.575 163.898 Q511.538 165.009 508.668 165.009 Q503.969 165.009 501.006 161.259 Q498.066 157.509 498.066 151.398 Q498.066 145.287 501.006 141.537 Q503.969 137.787 508.668 137.787 Q511.538 137.787 513.575 138.921 Q515.635 140.032 516.978 142.347 M502.464 151.398 Q502.464 156.097 504.385 158.782 Q506.33 161.444 509.709 161.444 Q513.089 161.444 515.033 158.782 Q516.978 156.097 516.978 151.398 Q516.978 146.699 515.033 144.037 Q513.089 141.352 509.709 141.352 Q506.33 141.352 504.385 144.037 Q502.464 146.699 502.464 151.398 Z" fill="#000000" fill-rule="nonzero" fill-opacity="1" /><path clip-path="url(#clip180)" d="M530.01 138.412 L534.269 138.412 L534.269 164.338 L530.01 164.338 L530.01 138.412 M530.01 128.319 L534.269 128.319 L534.269 133.713 L530.01 133.713 L530.01 128.319 Z" fill="#000000" fill-rule="nonzero" fill-opacity="1" /><path clip-path="url(#clip180)" d="M561.839 139.407 L561.839 143.389 Q560.033 142.393 558.205 141.907 Q556.399 141.398 554.547 141.398 Q550.404 141.398 548.112 144.037 Q545.82 146.652 545.82 151.398 Q545.82 156.143 548.112 158.782 Q550.404 161.398 554.547 161.398 Q556.399 161.398 558.205 160.912 Q560.033 160.402 561.839 159.407 L561.839 163.342 Q560.056 164.176 558.135 164.592 Q556.237 165.009 554.084 165.009 Q548.228 165.009 544.779 161.328 Q541.33 157.648 541.33 151.398 Q541.33 145.055 544.802 141.421 Q548.297 137.787 554.362 137.787 Q556.33 137.787 558.205 138.203 Q560.08 138.597 561.839 139.407 Z" fill="#000000" fill-rule="nonzero" fill-opacity="1" /><path clip-path="url(#clip180)" d="M573.459 131.051 L573.459 138.412 L582.232 138.412 L582.232 141.722 L573.459 141.722 L573.459 155.796 Q573.459 158.967 574.316 159.87 Q575.195 160.773 577.857 160.773 L582.232 160.773 L582.232 164.338 L577.857 164.338 Q572.927 164.338 571.052 162.509 Q569.177 160.657 569.177 155.796 L569.177 141.722 L566.052 141.722 L566.052 138.412 L569.177 138.412 L569.177 131.051 L573.459 131.051 Z" fill="#000000" fill-rule="nonzero" fill-opacity="1" /><path clip-path="url(#clip180)" d="M587.834 138.412 L592.093 138.412 L592.093 164.338 L587.834 164.338 L587.834 138.412 M587.834 128.319 L592.093 128.319 L592.093 133.713 L587.834 133.713 L587.834 128.319 Z" fill="#000000" fill-rule="nonzero" fill-opacity="1" /><path clip-path="url(#clip180)" d="M611.051 141.398 Q607.626 141.398 605.635 144.083 Q603.644 146.745 603.644 151.398 Q603.644 156.051 605.612 158.736 Q607.602 161.398 611.051 161.398 Q614.454 161.398 616.445 158.713 Q618.436 156.027 618.436 151.398 Q618.436 146.791 616.445 144.106 Q614.454 141.398 611.051 141.398 M611.051 137.787 Q616.607 137.787 619.778 141.398 Q622.95 145.009 622.95 151.398 Q622.95 157.764 619.778 161.398 Q616.607 165.009 611.051 165.009 Q605.473 165.009 602.302 161.398 Q599.153 157.764 599.153 151.398 Q599.153 145.009 602.302 141.398 Q605.473 137.787 611.051 137.787 Z" fill="#000000" fill-rule="nonzero" fill-opacity="1" /><path clip-path="url(#clip180)" d="M651.561 148.689 L651.561 164.338 L647.301 164.338 L647.301 148.828 Q647.301 145.148 645.866 143.319 Q644.431 141.49 641.561 141.49 Q638.112 141.49 636.121 143.69 Q634.13 145.889 634.13 149.685 L634.13 164.338 L629.848 164.338 L629.848 138.412 L634.13 138.412 L634.13 142.44 Q635.658 140.102 637.718 138.944 Q639.801 137.787 642.51 137.787 Q646.977 137.787 649.269 140.565 Q651.561 143.319 651.561 148.689 Z" fill="#000000" fill-rule="nonzero" fill-opacity="1" /><polyline clip-path="url(#clip180)" style="stroke:#e26f46; stroke-linecap:round; stroke-linejoin:round; stroke-width:4; stroke-opacity:1; fill:none" points="253.896,198.898 400.328,198.898 "/>
<path clip-path="url(#clip180)" d="M424.733 181.618 L446.585 181.618 L446.585 185.553 L429.409 185.553 L429.409 195.784 L445.867 195.784 L445.867 199.719 L429.409 199.719 L429.409 212.242 L447.001 212.242 L447.001 216.178 L424.733 216.178 L424.733 181.618 Z" fill="#000000" fill-rule="nonzero" fill-opacity="1" /><path clip-path="url(#clip180)" d="M476.052 190.252 L466.677 202.867 L476.538 216.178 L471.515 216.178 L463.969 205.992 L456.423 216.178 L451.4 216.178 L461.469 202.613 L452.256 190.252 L457.279 190.252 L464.154 199.488 L471.029 190.252 L476.052 190.252 Z" fill="#000000" fill-rule="nonzero" fill-opacity="1" /><path clip-path="url(#clip180)" d="M494.339 203.145 Q489.177 203.145 487.186 204.326 Q485.196 205.506 485.196 208.354 Q485.196 210.622 486.677 211.965 Q488.182 213.284 490.751 213.284 Q494.293 213.284 496.422 210.784 Q498.575 208.261 498.575 204.094 L498.575 203.145 L494.339 203.145 M502.834 201.386 L502.834 216.178 L498.575 216.178 L498.575 212.242 Q497.117 214.603 494.941 215.738 Q492.765 216.849 489.617 216.849 Q485.635 216.849 483.274 214.627 Q480.936 212.381 480.936 208.631 Q480.936 204.256 483.853 202.034 Q486.793 199.812 492.603 199.812 L498.575 199.812 L498.575 199.395 Q498.575 196.455 496.631 194.858 Q494.71 193.238 491.214 193.238 Q488.992 193.238 486.885 193.77 Q484.779 194.303 482.835 195.367 L482.835 191.432 Q485.173 190.53 487.372 190.09 Q489.571 189.627 491.654 189.627 Q497.279 189.627 500.057 192.543 Q502.834 195.46 502.834 201.386 Z" fill="#000000" fill-rule="nonzero" fill-opacity="1" /><path clip-path="url(#clip180)" d="M530.265 191.247 L530.265 195.229 Q528.459 194.233 526.631 193.747 Q524.825 193.238 522.973 193.238 Q518.83 193.238 516.538 195.877 Q514.246 198.492 514.246 203.238 Q514.246 207.983 516.538 210.622 Q518.83 213.238 522.973 213.238 Q524.825 213.238 526.631 212.752 Q528.459 212.242 530.265 211.247 L530.265 215.182 Q528.482 216.016 526.561 216.432 Q524.663 216.849 522.51 216.849 Q516.654 216.849 513.205 213.168 Q509.756 209.488 509.756 203.238 Q509.756 196.895 513.228 193.261 Q516.723 189.627 522.788 189.627 Q524.756 189.627 526.631 190.043 Q528.506 190.437 530.265 191.247 Z" fill="#000000" fill-rule="nonzero" fill-opacity="1" /><path clip-path="url(#clip180)" d="M541.885 182.891 L541.885 190.252 L550.658 190.252 L550.658 193.562 L541.885 193.562 L541.885 207.636 Q541.885 210.807 542.742 211.71 Q543.621 212.613 546.283 212.613 L550.658 212.613 L550.658 216.178 L546.283 216.178 Q541.353 216.178 539.478 214.349 Q537.603 212.497 537.603 207.636 L537.603 193.562 L534.478 193.562 L534.478 190.252 L537.603 190.252 L537.603 182.891 L541.885 182.891 Z" fill="#000000" fill-rule="nonzero" fill-opacity="1" /></svg>
