<?xml version="1.0" encoding="utf-8"?>
<svg xmlns="http://www.w3.org/2000/svg" xmlns:xlink="http://www.w3.org/1999/xlink" width="600" height="400" viewBox="0 0 2400 1600">
<defs>
  <clipPath id="clip090">
    <rect x="0" y="0" width="2400" height="1600"/>
  </clipPath>
</defs>
<path clip-path="url(#clip090)" d="M0 1600 L2400 1600 L2400 0 L0 0  Z" fill="#ffffff" fill-rule="evenodd" fill-opacity="1"/>
<defs>
  <clipPath id="clip091">
    <rect x="480" y="0" width="1681" height="1600"/>
  </clipPath>
</defs>
<path clip-path="url(#clip090)" d="M156.274 1486.45 L2352.76 1486.45 L2352.76 47.2441 L156.274 47.2441  Z" fill="#ffffff" fill-rule="evenodd" fill-opacity="1"/>
<defs>
  <clipPath id="clip092">
    <rect x="156" y="47" width="2197" height="1440"/>
  </clipPath>
</defs>
<polyline clip-path="url(#clip092)" style="stroke:#000000; stroke-linecap:round; stroke-linejoin:round; stroke-width:2; stroke-opacity:0.1; fill:none" points="218.439,1486.45 218.439,47.2441 "/>
<polyline clip-path="url(#clip092)" style="stroke:#000000; stroke-linecap:round; stroke-linejoin:round; stroke-width:2; stroke-opacity:0.1; fill:none" points="736.477,1486.45 736.477,47.2441 "/>
<polyline clip-path="url(#clip092)" style="stroke:#000000; stroke-linecap:round; stroke-linejoin:round; stroke-width:2; stroke-opacity:0.1; fill:none" points="1254.52,1486.45 1254.52,47.2441 "/>
<polyline clip-path="url(#clip092)" style="stroke:#000000; stroke-linecap:round; stroke-linejoin:round; stroke-width:2; stroke-opacity:0.1; fill:none" points="1772.55,1486.45 1772.55,47.2441 "/>
<polyline clip-path="url(#clip092)" style="stroke:#000000; stroke-linecap:round; stroke-linejoin:round; stroke-width:2; stroke-opacity:0.1; fill:none" points="2290.59,1486.45 2290.59,47.2441 "/>
<polyline clip-path="url(#clip090)" style="stroke:#000000; stroke-linecap:round; stroke-linejoin:round; stroke-width:4; stroke-opacity:1; fill:none" points="156.274,1486.45 2352.76,1486.45 "/>
<polyline clip-path="url(#clip090)" style="stroke:#000000; stroke-linecap:round; stroke-linejoin:round; stroke-width:4; stroke-opacity:1; fill:none" points="218.439,1486.45 218.439,1467.55 "/>
<polyline clip-path="url(#clip090)" style="stroke:#000000; stroke-linecap:round; stroke-linejoin:round; stroke-width:4; stroke-opacity:1; fill:none" points="736.477,1486.45 736.477,1467.55 "/>
<polyline clip-path="url(#clip090)" style="stroke:#000000; stroke-linecap:round; stroke-linejoin:round; stroke-width:4; stroke-opacity:1; fill:none" points="1254.52,1486.45 1254.52,1467.55 "/>
<polyline clip-path="url(#clip090)" style="stroke:#000000; stroke-linecap:round; stroke-linejoin:round; stroke-width:4; stroke-opacity:1; fill:none" points="1772.55,1486.45 1772.55,1467.55 "/>
<polyline clip-path="url(#clip090)" style="stroke:#000000; stroke-linecap:round; stroke-linejoin:round; stroke-width:4; stroke-opacity:1; fill:none" points="2290.59,1486.45 2290.59,1467.55 "/>
<path clip-path="url(#clip090)" d="M164.967 1532.02 L194.643 1532.02 L194.643 1535.95 L164.967 1535.95 L164.967 1532.02 Z" fill="#000000" fill-rule="nonzero" fill-opacity="1" /><path clip-path="url(#clip090)" d="M205.545 1544.91 L213.184 1544.91 L213.184 1518.55 L204.874 1520.21 L204.874 1515.95 L213.138 1514.29 L217.814 1514.29 L217.814 1544.91 L225.453 1544.91 L225.453 1548.85 L205.545 1548.85 L205.545 1544.91 Z" fill="#000000" fill-rule="nonzero" fill-opacity="1" /><path clip-path="url(#clip090)" d="M234.897 1542.97 L239.781 1542.97 L239.781 1548.85 L234.897 1548.85 L234.897 1542.97 Z" fill="#000000" fill-rule="nonzero" fill-opacity="1" /><path clip-path="url(#clip090)" d="M259.966 1517.37 Q256.355 1517.37 254.527 1520.93 Q252.721 1524.47 252.721 1531.6 Q252.721 1538.71 254.527 1542.27 Q256.355 1545.82 259.966 1545.82 Q263.601 1545.82 265.406 1542.27 Q267.235 1538.71 267.235 1531.6 Q267.235 1524.47 265.406 1520.93 Q263.601 1517.37 259.966 1517.37 M259.966 1513.66 Q265.776 1513.66 268.832 1518.27 Q271.911 1522.85 271.911 1531.6 Q271.911 1540.33 268.832 1544.94 Q265.776 1549.52 259.966 1549.52 Q254.156 1549.52 251.077 1544.94 Q248.022 1540.33 248.022 1531.6 Q248.022 1522.85 251.077 1518.27 Q254.156 1513.66 259.966 1513.66 Z" fill="#000000" fill-rule="nonzero" fill-opacity="1" /><path clip-path="url(#clip090)" d="M683.503 1532.02 L713.178 1532.02 L713.178 1535.95 L683.503 1535.95 L683.503 1532.02 Z" fill="#000000" fill-rule="nonzero" fill-opacity="1" /><path clip-path="url(#clip090)" d="M733.271 1517.37 Q729.66 1517.37 727.831 1520.93 Q726.026 1524.47 726.026 1531.6 Q726.026 1538.71 727.831 1542.27 Q729.66 1545.82 733.271 1545.82 Q736.905 1545.82 738.711 1542.27 Q740.539 1538.71 740.539 1531.6 Q740.539 1524.47 738.711 1520.93 Q736.905 1517.37 733.271 1517.37 M733.271 1513.66 Q739.081 1513.66 742.137 1518.27 Q745.215 1522.85 745.215 1531.6 Q745.215 1540.33 742.137 1544.94 Q739.081 1549.52 733.271 1549.52 Q727.461 1549.52 724.382 1544.94 Q721.327 1540.33 721.327 1531.6 Q721.327 1522.85 724.382 1518.27 Q727.461 1513.66 733.271 1513.66 Z" fill="#000000" fill-rule="nonzero" fill-opacity="1" /><path clip-path="url(#clip090)" d="M753.433 1542.97 L758.317 1542.97 L758.317 1548.85 L753.433 1548.85 L753.433 1542.97 Z" fill="#000000" fill-rule="nonzero" fill-opacity="1" /><path clip-path="url(#clip090)" d="M768.548 1514.29 L786.905 1514.29 L786.905 1518.22 L772.831 1518.22 L772.831 1526.7 Q773.849 1526.35 774.868 1526.19 Q775.886 1526 776.905 1526 Q782.692 1526 786.072 1529.17 Q789.451 1532.34 789.451 1537.76 Q789.451 1543.34 785.979 1546.44 Q782.507 1549.52 776.187 1549.52 Q774.011 1549.52 771.743 1549.15 Q769.498 1548.78 767.09 1548.04 L767.09 1543.34 Q769.173 1544.47 771.396 1545.03 Q773.618 1545.58 776.095 1545.58 Q780.099 1545.58 782.437 1543.48 Q784.775 1541.37 784.775 1537.76 Q784.775 1534.15 782.437 1532.04 Q780.099 1529.94 776.095 1529.94 Q774.22 1529.94 772.345 1530.35 Q770.493 1530.77 768.548 1531.65 L768.548 1514.29 Z" fill="#000000" fill-rule="nonzero" fill-opacity="1" /><path clip-path="url(#clip090)" d="M1231.9 1517.37 Q1228.29 1517.37 1226.46 1520.93 Q1224.65 1524.47 1224.65 1531.6 Q1224.65 1538.71 1226.46 1542.27 Q1228.29 1545.82 1231.9 1545.82 Q1235.53 1545.82 1237.34 1542.27 Q1239.17 1538.71 1239.17 1531.6 Q1239.17 1524.47 1237.34 1520.93 Q1235.53 1517.37 1231.9 1517.37 M1231.9 1513.66 Q1237.71 1513.66 1240.77 1518.27 Q1243.84 1522.85 1243.84 1531.6 Q1243.84 1540.33 1240.77 1544.94 Q1237.71 1549.52 1231.9 1549.52 Q1226.09 1549.52 1223.01 1544.94 Q1219.96 1540.33 1219.96 1531.6 Q1219.96 1522.85 1223.01 1518.27 Q1226.09 1513.66 1231.9 1513.66 Z" fill="#000000" fill-rule="nonzero" fill-opacity="1" /><path clip-path="url(#clip090)" d="M1252.06 1542.97 L1256.95 1542.97 L1256.95 1548.85 L1252.06 1548.85 L1252.06 1542.97 Z" fill="#000000" fill-rule="nonzero" fill-opacity="1" /><path clip-path="url(#clip090)" d="M1277.13 1517.37 Q1273.52 1517.37 1271.69 1520.93 Q1269.89 1524.47 1269.89 1531.6 Q1269.89 1538.71 1271.69 1542.27 Q1273.52 1545.82 1277.13 1545.82 Q1280.76 1545.82 1282.57 1542.27 Q1284.4 1538.71 1284.4 1531.6 Q1284.4 1524.47 1282.57 1520.93 Q1280.76 1517.37 1277.13 1517.37 M1277.13 1513.66 Q1282.94 1513.66 1286 1518.27 Q1289.08 1522.85 1289.08 1531.6 Q1289.08 1540.33 1286 1544.94 Q1282.94 1549.52 1277.13 1549.52 Q1271.32 1549.52 1268.24 1544.94 Q1265.19 1540.33 1265.19 1531.6 Q1265.19 1522.85 1268.24 1518.27 Q1271.32 1513.66 1277.13 1513.66 Z" fill="#000000" fill-rule="nonzero" fill-opacity="1" /><path clip-path="url(#clip090)" d="M1750.44 1517.37 Q1746.82 1517.37 1745 1520.93 Q1743.19 1524.47 1743.19 1531.6 Q1743.19 1538.71 1745 1542.27 Q1746.82 1545.82 1750.44 1545.82 Q1754.07 1545.82 1755.88 1542.27 Q1757.7 1538.71 1757.7 1531.6 Q1757.7 1524.47 1755.88 1520.93 Q1754.07 1517.37 1750.44 1517.37 M1750.44 1513.66 Q1756.25 1513.66 1759.3 1518.27 Q1762.38 1522.85 1762.38 1531.6 Q1762.38 1540.33 1759.3 1544.94 Q1756.25 1549.52 1750.44 1549.52 Q1744.63 1549.52 1741.55 1544.94 Q1738.49 1540.33 1738.49 1531.6 Q1738.49 1522.85 1741.55 1518.27 Q1744.63 1513.66 1750.44 1513.66 Z" fill="#000000" fill-rule="nonzero" fill-opacity="1" /><path clip-path="url(#clip090)" d="M1770.6 1542.97 L1775.48 1542.97 L1775.48 1548.85 L1770.6 1548.85 L1770.6 1542.97 Z" fill="#000000" fill-rule="nonzero" fill-opacity="1" /><path clip-path="url(#clip090)" d="M1785.71 1514.29 L1804.07 1514.29 L1804.07 1518.22 L1790 1518.22 L1790 1526.7 Q1791.01 1526.35 1792.03 1526.19 Q1793.05 1526 1794.07 1526 Q1799.86 1526 1803.24 1529.17 Q1806.62 1532.34 1806.62 1537.76 Q1806.62 1543.34 1803.14 1546.44 Q1799.67 1549.52 1793.35 1549.52 Q1791.18 1549.52 1788.91 1549.15 Q1786.66 1548.78 1784.25 1548.04 L1784.25 1543.34 Q1786.34 1544.47 1788.56 1545.03 Q1790.78 1545.58 1793.26 1545.58 Q1797.26 1545.58 1799.6 1543.48 Q1801.94 1541.37 1801.94 1537.76 Q1801.94 1534.15 1799.6 1532.04 Q1797.26 1529.94 1793.26 1529.94 Q1791.38 1529.94 1789.51 1530.35 Q1787.66 1530.77 1785.71 1531.65 L1785.71 1514.29 Z" fill="#000000" fill-rule="nonzero" fill-opacity="1" /><path clip-path="url(#clip090)" d="M2257.74 1544.91 L2265.38 1544.91 L2265.38 1518.55 L2257.07 1520.21 L2257.07 1515.95 L2265.34 1514.29 L2270.01 1514.29 L2270.01 1544.91 L2277.65 1544.91 L2277.65 1548.85 L2257.74 1548.85 L2257.74 1544.91 Z" fill="#000000" fill-rule="nonzero" fill-opacity="1" /><path clip-path="url(#clip090)" d="M2287.1 1542.97 L2291.98 1542.97 L2291.98 1548.85 L2287.1 1548.85 L2287.1 1542.97 Z" fill="#000000" fill-rule="nonzero" fill-opacity="1" /><path clip-path="url(#clip090)" d="M2312.17 1517.37 Q2308.55 1517.37 2306.73 1520.93 Q2304.92 1524.47 2304.92 1531.6 Q2304.92 1538.71 2306.73 1542.27 Q2308.55 1545.82 2312.17 1545.82 Q2315.8 1545.82 2317.61 1542.27 Q2319.43 1538.71 2319.43 1531.6 Q2319.43 1524.47 2317.61 1520.93 Q2315.8 1517.37 2312.17 1517.37 M2312.17 1513.66 Q2317.98 1513.66 2321.03 1518.27 Q2324.11 1522.85 2324.11 1531.6 Q2324.11 1540.33 2321.03 1544.94 Q2317.98 1549.52 2312.17 1549.52 Q2306.36 1549.52 2303.28 1544.94 Q2300.22 1540.33 2300.22 1531.6 Q2300.22 1522.85 2303.28 1518.27 Q2306.36 1513.66 2312.17 1513.66 Z" fill="#000000" fill-rule="nonzero" fill-opacity="1" /><polyline clip-path="url(#clip092)" style="stroke:#000000; stroke-linecap:round; stroke-linejoin:round; stroke-width:2; stroke-opacity:0.1; fill:none" points="156.274,1253.13 2352.76,1253.13 "/>
<polyline clip-path="url(#clip092)" style="stroke:#000000; stroke-linecap:round; stroke-linejoin:round; stroke-width:2; stroke-opacity:0.1; fill:none" points="156.274,979.691 2352.76,979.691 "/>
<polyline clip-path="url(#clip092)" style="stroke:#000000; stroke-linecap:round; stroke-linejoin:round; stroke-width:2; stroke-opacity:0.1; fill:none" points="156.274,706.247 2352.76,706.247 "/>
<polyline clip-path="url(#clip092)" style="stroke:#000000; stroke-linecap:round; stroke-linejoin:round; stroke-width:2; stroke-opacity:0.1; fill:none" points="156.274,432.803 2352.76,432.803 "/>
<polyline clip-path="url(#clip092)" style="stroke:#000000; stroke-linecap:round; stroke-linejoin:round; stroke-width:2; stroke-opacity:0.1; fill:none" points="156.274,159.359 2352.76,159.359 "/>
<polyline clip-path="url(#clip090)" style="stroke:#000000; stroke-linecap:round; stroke-linejoin:round; stroke-width:4; stroke-opacity:1; fill:none" points="156.274,1486.45 156.274,47.2441 "/>
<polyline clip-path="url(#clip090)" style="stroke:#000000; stroke-linecap:round; stroke-linejoin:round; stroke-width:4; stroke-opacity:1; fill:none" points="156.274,1253.13 175.172,1253.13 "/>
<polyline clip-path="url(#clip090)" style="stroke:#000000; stroke-linecap:round; stroke-linejoin:round; stroke-width:4; stroke-opacity:1; fill:none" points="156.274,979.691 175.172,979.691 "/>
<polyline clip-path="url(#clip090)" style="stroke:#000000; stroke-linecap:round; stroke-linejoin:round; stroke-width:4; stroke-opacity:1; fill:none" points="156.274,706.247 175.172,706.247 "/>
<polyline clip-path="url(#clip090)" style="stroke:#000000; stroke-linecap:round; stroke-linejoin:round; stroke-width:4; stroke-opacity:1; fill:none" points="156.274,432.803 175.172,432.803 "/>
<polyline clip-path="url(#clip090)" style="stroke:#000000; stroke-linecap:round; stroke-linejoin:round; stroke-width:4; stroke-opacity:1; fill:none" points="156.274,159.359 175.172,159.359 "/>
<path clip-path="url(#clip090)" d="M63.0985 1238.93 Q59.4875 1238.93 57.6588 1242.5 Q55.8532 1246.04 55.8532 1253.17 Q55.8532 1260.28 57.6588 1263.84 Q59.4875 1267.38 63.0985 1267.38 Q66.7328 1267.38 68.5383 1263.84 Q70.367 1260.28 70.367 1253.17 Q70.367 1246.04 68.5383 1242.5 Q66.7328 1238.93 63.0985 1238.93 M63.0985 1235.23 Q68.9087 1235.23 71.9642 1239.84 Q75.0429 1244.42 75.0429 1253.17 Q75.0429 1261.9 71.9642 1266.5 Q68.9087 1271.09 63.0985 1271.09 Q57.2884 1271.09 54.2097 1266.5 Q51.1542 1261.9 51.1542 1253.17 Q51.1542 1244.42 54.2097 1239.84 Q57.2884 1235.23 63.0985 1235.23 Z" fill="#000000" fill-rule="nonzero" fill-opacity="1" /><path clip-path="url(#clip090)" d="M83.2605 1264.54 L88.1447 1264.54 L88.1447 1270.41 L83.2605 1270.41 L83.2605 1264.54 Z" fill="#000000" fill-rule="nonzero" fill-opacity="1" /><path clip-path="url(#clip090)" d="M108.33 1238.93 Q104.719 1238.93 102.89 1242.5 Q101.084 1246.04 101.084 1253.17 Q101.084 1260.28 102.89 1263.84 Q104.719 1267.38 108.33 1267.38 Q111.964 1267.38 113.77 1263.84 Q115.598 1260.28 115.598 1253.17 Q115.598 1246.04 113.77 1242.5 Q111.964 1238.93 108.33 1238.93 M108.33 1235.23 Q114.14 1235.23 117.195 1239.84 Q120.274 1244.42 120.274 1253.17 Q120.274 1261.9 117.195 1266.5 Q114.14 1271.09 108.33 1271.09 Q102.52 1271.09 99.4409 1266.5 Q96.3854 1261.9 96.3854 1253.17 Q96.3854 1244.42 99.4409 1239.84 Q102.52 1235.23 108.33 1235.23 Z" fill="#000000" fill-rule="nonzero" fill-opacity="1" /><path clip-path="url(#clip090)" d="M63.7467 965.49 Q60.1356 965.49 58.3069 969.054 Q56.5014 972.596 56.5014 979.726 Q56.5014 986.832 58.3069 990.397 Q60.1356 993.939 63.7467 993.939 Q67.3809 993.939 69.1865 990.397 Q71.0152 986.832 71.0152 979.726 Q71.0152 972.596 69.1865 969.054 Q67.3809 965.49 63.7467 965.49 M63.7467 961.786 Q69.5568 961.786 72.6124 966.392 Q75.6911 970.976 75.6911 979.726 Q75.6911 988.452 72.6124 993.059 Q69.5568 997.642 63.7467 997.642 Q57.9365 997.642 54.8578 993.059 Q51.8023 988.452 51.8023 979.726 Q51.8023 970.976 54.8578 966.392 Q57.9365 961.786 63.7467 961.786 Z" fill="#000000" fill-rule="nonzero" fill-opacity="1" /><path clip-path="url(#clip090)" d="M83.9086 991.091 L88.7928 991.091 L88.7928 996.971 L83.9086 996.971 L83.9086 991.091 Z" fill="#000000" fill-rule="nonzero" fill-opacity="1" /><path clip-path="url(#clip090)" d="M113.145 978.337 Q116.501 979.054 118.376 981.323 Q120.274 983.591 120.274 986.925 Q120.274 992.04 116.756 994.841 Q113.237 997.642 106.756 997.642 Q104.58 997.642 102.265 997.202 Q99.9733 996.786 97.5197 995.929 L97.5197 991.415 Q99.4641 992.55 101.779 993.128 Q104.094 993.707 106.617 993.707 Q111.015 993.707 113.307 991.971 Q115.621 990.235 115.621 986.925 Q115.621 983.869 113.469 982.156 Q111.339 980.42 107.52 980.42 L103.492 980.42 L103.492 976.578 L107.705 976.578 Q111.154 976.578 112.983 975.212 Q114.811 973.823 114.811 971.23 Q114.811 968.568 112.913 967.156 Q111.038 965.721 107.52 965.721 Q105.598 965.721 103.399 966.138 Q101.2 966.554 98.5613 967.434 L98.5613 963.267 Q101.223 962.527 103.538 962.156 Q105.876 961.786 107.936 961.786 Q113.26 961.786 116.362 964.216 Q119.464 966.624 119.464 970.744 Q119.464 973.615 117.82 975.605 Q116.177 977.573 113.145 978.337 Z" fill="#000000" fill-rule="nonzero" fill-opacity="1" /><path clip-path="url(#clip090)" d="M62.9365 692.046 Q59.3254 692.046 57.4967 695.61 Q55.6912 699.152 55.6912 706.282 Q55.6912 713.388 57.4967 716.953 Q59.3254 720.494 62.9365 720.494 Q66.5707 720.494 68.3763 716.953 Q70.205 713.388 70.205 706.282 Q70.205 699.152 68.3763 695.61 Q66.5707 692.046 62.9365 692.046 M62.9365 688.342 Q68.7467 688.342 71.8022 692.948 Q74.8809 697.532 74.8809 706.282 Q74.8809 715.008 71.8022 719.615 Q68.7467 724.198 62.9365 724.198 Q57.1264 724.198 54.0477 719.615 Q50.9921 715.008 50.9921 706.282 Q50.9921 697.532 54.0477 692.948 Q57.1264 688.342 62.9365 688.342 Z" fill="#000000" fill-rule="nonzero" fill-opacity="1" /><path clip-path="url(#clip090)" d="M83.0984 717.647 L87.9827 717.647 L87.9827 723.527 L83.0984 723.527 L83.0984 717.647 Z" fill="#000000" fill-rule="nonzero" fill-opacity="1" /><path clip-path="url(#clip090)" d="M108.746 704.383 Q105.598 704.383 103.746 706.536 Q101.918 708.689 101.918 712.439 Q101.918 716.166 103.746 718.342 Q105.598 720.494 108.746 720.494 Q111.895 720.494 113.723 718.342 Q115.575 716.166 115.575 712.439 Q115.575 708.689 113.723 706.536 Q111.895 704.383 108.746 704.383 M118.029 689.731 L118.029 693.99 Q116.27 693.157 114.464 692.717 Q112.682 692.277 110.922 692.277 Q106.293 692.277 103.839 695.402 Q101.409 698.527 101.061 704.846 Q102.427 702.833 104.487 701.768 Q106.547 700.68 109.024 700.68 Q114.233 700.68 117.242 703.851 Q120.274 706.999 120.274 712.439 Q120.274 717.763 117.126 720.981 Q113.978 724.198 108.746 724.198 Q102.751 724.198 99.5798 719.615 Q96.4085 715.008 96.4085 706.282 Q96.4085 698.087 100.297 693.226 Q104.186 688.342 110.737 688.342 Q112.496 688.342 114.279 688.689 Q116.084 689.036 118.029 689.731 Z" fill="#000000" fill-rule="nonzero" fill-opacity="1" /><path clip-path="url(#clip090)" d="M63.2837 418.602 Q59.6726 418.602 57.8439 422.166 Q56.0384 425.708 56.0384 432.838 Q56.0384 439.944 57.8439 443.509 Q59.6726 447.05 63.2837 447.05 Q66.918 447.05 68.7235 443.509 Q70.5522 439.944 70.5522 432.838 Q70.5522 425.708 68.7235 422.166 Q66.918 418.602 63.2837 418.602 M63.2837 414.898 Q69.0939 414.898 72.1494 419.504 Q75.2281 424.088 75.2281 432.838 Q75.2281 441.564 72.1494 446.171 Q69.0939 450.754 63.2837 450.754 Q57.4736 450.754 54.3949 446.171 Q51.3393 441.564 51.3393 432.838 Q51.3393 424.088 54.3949 419.504 Q57.4736 414.898 63.2837 414.898 Z" fill="#000000" fill-rule="nonzero" fill-opacity="1" /><path clip-path="url(#clip090)" d="M83.4457 444.203 L88.3299 444.203 L88.3299 450.083 L83.4457 450.083 L83.4457 444.203 Z" fill="#000000" fill-rule="nonzero" fill-opacity="1" /><path clip-path="url(#clip090)" d="M98.6539 449.365 L98.6539 445.106 Q100.413 445.939 102.219 446.379 Q104.024 446.819 105.76 446.819 Q110.39 446.819 112.82 443.717 Q115.274 440.592 115.621 434.25 Q114.279 436.24 112.219 437.305 Q110.158 438.37 107.658 438.37 Q102.473 438.37 99.4409 435.245 Q96.4317 432.097 96.4317 426.657 Q96.4317 421.333 99.5798 418.115 Q102.728 414.898 107.959 414.898 Q113.955 414.898 117.103 419.504 Q120.274 424.088 120.274 432.838 Q120.274 441.009 116.385 445.893 Q112.52 450.754 105.969 450.754 Q104.209 450.754 102.404 450.407 Q100.598 450.06 98.6539 449.365 M107.959 434.713 Q111.108 434.713 112.936 432.56 Q114.788 430.407 114.788 426.657 Q114.788 422.93 112.936 420.777 Q111.108 418.602 107.959 418.602 Q104.811 418.602 102.959 420.777 Q101.131 422.93 101.131 426.657 Q101.131 430.407 102.959 432.56 Q104.811 434.713 107.959 434.713 Z" fill="#000000" fill-rule="nonzero" fill-opacity="1" /><path clip-path="url(#clip090)" d="M55.506 172.704 L63.1448 172.704 L63.1448 146.338 L54.8347 148.005 L54.8347 143.745 L63.0985 142.079 L67.7744 142.079 L67.7744 172.704 L75.4133 172.704 L75.4133 176.639 L55.506 176.639 L55.506 172.704 Z" fill="#000000" fill-rule="nonzero" fill-opacity="1" /><path clip-path="url(#clip090)" d="M84.8577 170.759 L89.7419 170.759 L89.7419 176.639 L84.8577 176.639 L84.8577 170.759 Z" fill="#000000" fill-rule="nonzero" fill-opacity="1" /><path clip-path="url(#clip090)" d="M103.955 172.704 L120.274 172.704 L120.274 176.639 L98.3298 176.639 L98.3298 172.704 Q100.992 169.949 105.575 165.319 Q110.182 160.667 111.362 159.324 Q113.608 156.801 114.487 155.065 Q115.39 153.306 115.39 151.616 Q115.39 148.861 113.445 147.125 Q111.524 145.389 108.422 145.389 Q106.223 145.389 103.77 146.153 Q101.339 146.917 98.5613 148.468 L98.5613 143.745 Q101.385 142.611 103.839 142.032 Q106.293 141.454 108.33 141.454 Q113.7 141.454 116.895 144.139 Q120.089 146.824 120.089 151.315 Q120.089 153.444 119.279 155.366 Q118.492 157.264 116.385 159.856 Q115.807 160.528 112.705 163.745 Q109.603 166.94 103.955 172.704 Z" fill="#000000" fill-rule="nonzero" fill-opacity="1" /><polyline clip-path="url(#clip092)" style="stroke:#009af9; stroke-linecap:round; stroke-linejoin:round; stroke-width:16; stroke-opacity:1; fill:none" stroke-dasharray="8, 16" points="218.439,1100.82 228.852,1100.1 239.264,1099.21 249.677,1098.33 260.09,1097.44 270.503,1096.55 280.916,1095.67 291.329,1101.19 301.741,1115.33 312.154,1141.64 322.567,1170.32 332.98,1198.99 343.393,1227.66 353.805,1256.33 364.218,1285 374.631,1313.67 385.044,1342.34 395.457,1366.01 405.87,1385.94 416.282,1405.86 426.695,1425.79 437.108,1445.72 447.521,1429.8 457.934,1409.75 468.347,1386.17 478.759,1362.6 489.172,1339.03 499.585,1315.46 509.998,1291.89 520.411,1268.32 530.824,1244.75 541.236,1221.18 551.649,1197.6 562.062,1174.03 572.475,1150.46 582.888,1126.89 593.301,1103.32 603.713,1079.75 614.126,1056.18 624.539,1062.54 634.952,1084.47 645.365,1106.4 655.777,1128.33 666.19,1150.26 676.603,1172.19 687.016,1194.13 697.429,1216.06 707.842,1237.99 718.254,1259.92 728.667,1281.85 739.08,1303.78 749.493,1325.71 759.906,1347.65 770.319,1369.3 780.731,1390.3 791.144,1408.52 801.557,1426.04 811.97,1443.56 822.383,1425.56 832.796,1402.46 843.208,1379.36 853.621,1352.76 864.034,1325.21 874.447,1297.67 884.86,1270.13 895.273,1242.58 905.685,1215.04 916.098,1187.5 926.511,1159.95 936.924,1132.41 947.337,1112.66 957.749,1093.88 968.162,1077.11 978.575,1067.99 988.988,1068.84 999.401,1072.33 1009.81,1070.65 1020.23,1101.06 1030.64,1130.92 1041.05,1158.41 1051.46,1185.89 1061.88,1212.21 1072.29,1241.84 1082.7,1272.3 1093.12,1300.68 1103.53,1337.67 1113.94,1372.26 1124.35,1398.08 1134.77,1420.93 1145.18,1426.26 1155.59,1415.29 1166.01,1405.2 1176.42,1397.81 1186.83,1406.22 1197.24,1427.27 1207.66,1435.98 1218.07,1428.3 1228.48,1366.22 1238.9,1211.56 1249.31,1025.92 1259.72,809.729 1270.13,511.21 1280.55,244.405 1290.96,157.775 1301.37,176.216 1311.79,289.776 1322.2,387.406 1332.61,391.145 1343.02,317.454 1353.44,320.695 1363.85,317.033 1374.26,313.294 1384.68,320.316 1395.09,331.426 1405.5,334.397 1415.91,340.373 1426.33,346.422 1436.74,352.664 1447.15,354.243 1457.57,352.818 1467.98,351.393 1478.39,349.969 1488.8,348.582 1499.22,347.419 1509.63,346.255 1520.04,345.091 1530.45,343.927 1540.87,342.764 1551.28,341.6 1561.69,340.436 1572.11,339.272 1582.52,338.108 1592.93,336.944 1603.34,335.781 1613.76,334.639 1624.17,333.94 1634.58,333.241 1645,332.542 1655.41,331.844 1665.82,331.145 1676.23,330.446 1686.65,329.747 1697.06,329.048 1707.47,328.349 1717.89,327.651 1728.3,326.951 1738.71,326.253 1749.12,325.554 1759.54,324.855 1769.95,324.156 1780.36,323.457 1790.78,322.758 1801.19,322.059 1811.6,321.361 1822.01,320.662 1832.43,319.963 1842.84,319.264 1853.25,318.565 1863.67,317.866 1874.08,317.168 1884.49,316.468 1894.9,315.764 1905.32,315.025 1915.73,314.285 1926.14,313.546 1936.56,312.807 1946.97,312.068 1957.38,311.328 1967.79,310.589 1978.21,309.85 1988.62,309.111 1999.03,309.807 2009.45,312.768 2019.86,315.728 2030.27,318.688 2040.68,321.648 2051.1,324.609 2061.51,327.57 2071.92,330.53 2082.33,333.49 2092.75,336.45 2103.16,339.411 2113.57,342.371 2123.99,345.331 2134.4,348.291 2144.81,351.252 2155.22,354.212 2165.64,357.174 2176.05,360.132 2186.46,363.128 2196.88,366.208 2207.29,369.289 2217.7,372.37 2228.11,375.449 2238.53,378.53 2248.94,381.61 2259.35,384.69 2269.77,387.77 2280.18,390.85 2290.59,393.931 "/>
<polyline clip-path="url(#clip092)" style="stroke:#e26f46; stroke-linecap:round; stroke-linejoin:round; stroke-width:4; stroke-opacity:1; fill:none" points="218.439,1116.23 228.852,1096.81 239.264,1082.49 249.677,1073.74 260.09,1070.84 270.503,1073.89 280.916,1082.79 291.329,1097.26 301.741,1116.81 312.154,1140.81 322.567,1168.47 332.98,1198.9 343.393,1231.1 353.805,1264.02 364.218,1296.58 374.631,1327.72 385.044,1356.43 395.457,1381.77 405.87,1402.91 416.282,1419.16 426.695,1430 437.108,1435.06 447.521,1434.18 457.934,1427.4 468.347,1414.93 478.759,1397.17 489.172,1374.72 499.585,1348.3 509.998,1318.77 520.411,1287.1 530.824,1254.32 541.236,1221.5 551.649,1189.72 562.062,1160 572.475,1133.33 582.888,1110.56 593.301,1092.45 603.713,1079.58 614.126,1072.38 624.539,1071.07 634.952,1075.71 645.365,1086.14 655.777,1102.02 666.19,1122.83 676.603,1147.89 687.016,1176.39 697.429,1207.4 707.842,1239.89 718.254,1272.82 728.667,1305.11 739.08,1335.69 749.493,1363.59 759.906,1387.88 770.319,1407.77 780.731,1422.62 791.144,1431.93 801.557,1435.41 811.97,1432.94 822.383,1424.6 832.796,1410.67 843.208,1391.59 853.621,1367.99 864.034,1340.65 874.447,1310.45 884.86,1278.38 895.273,1245.48 905.685,1212.84 916.098,1181.51 926.511,1152.52 936.924,1126.81 947.337,1105.22 957.749,1088.47 968.162,1077.08 978.575,1071.45 988.988,1071.74 999.401,1077.95 1009.81,1089.88 1020.23,1107.14 1030.64,1129.16 1041.05,1155.23 1051.46,1184.5 1061.88,1216 1072.29,1248.72 1082.7,1281.58 1093.12,1313.51 1103.53,1343.47 1113.94,1370.49 1124.35,1393.67 1134.77,1412.27 1145.18,1425.67 1155.59,1433.44 1166.01,1435.33 1176.42,1431.27 1186.83,1421.4 1197.24,1406.03 1207.66,1385.68 1218.07,1361 1228.48,1332.8 1238.9,1302 1249.31,1269.6 1259.72,340.331 1270.13,338.825 1280.55,340.196 1290.96,344.76 1301.37,351.118 1311.79,356.585 1322.2,358.203 1332.61,353.997 1343.02,343.971 1353.44,330.454 1363.85,317.592 1374.26,310.079 1384.68,311.52 1395.09,322.984 1405.5,342.267 1415.91,364.212 1426.33,382.083 1436.74,389.621 1447.15,383.168 1457.57,363.147 1467.98,334.349 1478.39,304.835 1488.8,283.683 1499.22,278.203 1509.63,291.487 1520.04,321.081 1530.45,359.301 1540.87,395.204 1551.28,417.721 1561.69,419.055 1572.11,397.301 1582.52,357.432 1592.93,310.239 1603.34,269.416 1613.76,247.593 1624.17,252.446 1634.58,284.084 1645,334.591 1655.41,389.961 1665.82,433.974 1676.23,452.949 1686.65,439.973 1697.06,397.304 1707.47,336.146 1717.89,273.736 1728.3,228.484 1738.71,214.547 1749.12,237.432 1759.54,291.977 1769.95,363.433 1780.36,431.432 1790.78,475.796 1801.19,482.516 1811.6,448.141 1822.01,381.206 1832.43,300.168 1842.84,228.32 1853.25,187.103 1863.67,189.708 1874.08,236.908 1884.49,316.389 1894.9,405.937 1905.32,479.637 1915.73,515.374 1926.14,501.458 1936.56,440.389 1946.97,348.573 1957.38,251.932 1967.79,178.591 1978.21,150.692 1988.62,177.728 1999.03,253.386 2009.45,356.947 2019.86,458.943 2030.27,529.544 2040.68,547.278 2051.1,505.539 2061.51,414.926 2071.92,300.591 2082.33,195.27 2092.75,129.909 2103.16,124.578 2113.57,182.329 2123.99,287.886 2134.4,411.655 2144.81,518.015 2155.22,575.567 2165.64,566.404 2176.05,491.643 2186.46,371.544 2196.88,240.038 2207.29,135.144 2217.7,87.9763 2228.11,113.528 2238.53,205.946 2248.94,339.783 2259.35,476.996 2269.77,577.758 2280.18,612.01 2290.59,568.425 "/>
<path clip-path="url(#clip090)" d="M229.49 250.738 L675.966 250.738 L675.966 95.2176 L229.49 95.2176  Z" fill="#ffffff" fill-rule="evenodd" fill-opacity="1"/>
<polyline clip-path="url(#clip090)" style="stroke:#000000; stroke-linecap:round; stroke-linejoin:round; stroke-width:4; stroke-opacity:1; fill:none" points="229.49,250.738 675.966,250.738 675.966,95.2176 229.49,95.2176 229.49,250.738 "/>
<polyline clip-path="url(#clip090)" style="stroke:#009af9; stroke-linecap:round; stroke-linejoin:round; stroke-width:16; stroke-opacity:1; fill:none" stroke-dasharray="8, 16" points="253.896,147.058 400.328,147.058 "/>
<path clip-path="url(#clip090)" d="M429.409 133.62 L429.409 146.606 L435.289 146.606 Q438.552 146.606 440.335 144.916 Q442.117 143.227 442.117 140.102 Q442.117 137 440.335 135.31 Q438.552 133.62 435.289 133.62 L429.409 133.62 M424.733 129.778 L435.289 129.778 Q441.099 129.778 444.062 132.416 Q447.048 135.032 447.048 140.102 Q447.048 145.217 444.062 147.833 Q441.099 150.449 435.289 150.449 L429.409 150.449 L429.409 164.338 L424.733 164.338 L424.733 129.778 Z" fill="#000000" fill-rule="nonzero" fill-opacity="1" /><path clip-path="url(#clip090)" d="M467.325 142.393 Q466.608 141.977 465.751 141.791 Q464.918 141.583 463.899 141.583 Q460.288 141.583 458.344 143.944 Q456.423 146.282 456.423 150.68 L456.423 164.338 L452.14 164.338 L452.14 138.412 L456.423 138.412 L456.423 142.44 Q457.765 140.078 459.918 138.944 Q462.071 137.787 465.149 137.787 Q465.589 137.787 466.122 137.856 Q466.654 137.903 467.302 138.018 L467.325 142.393 Z" fill="#000000" fill-rule="nonzero" fill-opacity="1" /><path clip-path="url(#clip090)" d="M492.927 150.31 L492.927 152.393 L473.344 152.393 Q473.622 156.791 475.983 159.106 Q478.367 161.398 482.603 161.398 Q485.057 161.398 487.348 160.796 Q489.663 160.194 491.932 158.99 L491.932 163.018 Q489.64 163.99 487.233 164.5 Q484.825 165.009 482.348 165.009 Q476.145 165.009 472.511 161.398 Q468.899 157.787 468.899 151.629 Q468.899 145.264 472.325 141.537 Q475.774 137.787 481.608 137.787 Q486.839 137.787 489.872 141.166 Q492.927 144.523 492.927 150.31 M488.668 149.06 Q488.622 145.565 486.7 143.481 Q484.802 141.398 481.654 141.398 Q478.089 141.398 475.936 143.412 Q473.807 145.426 473.483 149.083 L488.668 149.06 Z" fill="#000000" fill-rule="nonzero" fill-opacity="1" /><path clip-path="url(#clip090)" d="M516.978 142.347 L516.978 128.319 L521.237 128.319 L521.237 164.338 L516.978 164.338 L516.978 160.449 Q515.635 162.763 513.575 163.898 Q511.538 165.009 508.668 165.009 Q503.969 165.009 501.006 161.259 Q498.066 157.509 498.066 151.398 Q498.066 145.287 501.006 141.537 Q503.969 137.787 508.668 137.787 Q511.538 137.787 513.575 138.921 Q515.635 140.032 516.978 142.347 M502.464 151.398 Q502.464 156.097 504.385 158.782 Q506.33 161.444 509.709 161.444 Q513.089 161.444 515.033 158.782 Q516.978 156.097 516.978 151.398 Q516.978 146.699 515.033 144.037 Q513.089 141.352 509.709 141.352 Q506.33 141.352 504.385 144.037 Q502.464 146.699 502.464 151.398 Z" fill="#000000" fill-rule="nonzero" fill-opacity="1" /><path clip-path="url(#clip090)" d="M530.01 138.412 L534.269 138.412 L534.269 164.338 L530.01 164.338 L530.01 138.412 M530.01 128.319 L534.269 128.319 L534.269 133.713 L530.01 133.713 L530.01 128.319 Z" fill="#000000" fill-rule="nonzero" fill-opacity="1" /><path clip-path="url(#clip090)" d="M561.839 139.407 L561.839 143.389 Q560.033 142.393 558.205 141.907 Q556.399 141.398 554.547 141.398 Q550.404 141.398 548.112 144.037 Q545.82 146.652 545.82 151.398 Q545.82 156.143 548.112 158.782 Q550.404 161.398 554.547 161.398 Q556.399 161.398 558.205 160.912 Q560.033 160.402 561.839 159.407 L561.839 163.342 Q560.056 164.176 558.135 164.592 Q556.237 165.009 554.084 165.009 Q548.228 165.009 544.779 161.328 Q541.33 157.648 541.33 151.398 Q541.33 145.055 544.802 141.421 Q548.297 137.787 554.362 137.787 Q556.33 137.787 558.205 138.203 Q560.08 138.597 561.839 139.407 Z" fill="#000000" fill-rule="nonzero" fill-opacity="1" /><path clip-path="url(#clip090)" d="M573.459 131.051 L573.459 138.412 L582.232 138.412 L582.232 141.722 L573.459 141.722 L573.459 155.796 Q573.459 158.967 574.316 159.87 Q575.195 160.773 577.857 160.773 L582.232 160.773 L582.232 164.338 L577.857 164.338 Q572.927 164.338 571.052 162.509 Q569.177 160.657 569.177 155.796 L569.177 141.722 L566.052 141.722 L566.052 138.412 L569.177 138.412 L569.177 131.051 L573.459 131.051 Z" fill="#000000" fill-rule="nonzero" fill-opacity="1" /><path clip-path="url(#clip090)" d="M587.834 138.412 L592.093 138.412 L592.093 164.338 L587.834 164.338 L587.834 138.412 M587.834 128.319 L592.093 128.319 L592.093 133.713 L587.834 133.713 L587.834 128.319 Z" fill="#000000" fill-rule="nonzero" fill-opacity="1" /><path clip-path="url(#clip090)" d="M611.051 141.398 Q607.626 141.398 605.635 144.083 Q603.644 146.745 603.644 151.398 Q603.644 156.051 605.612 158.736 Q607.602 161.398 611.051 161.398 Q614.454 161.398 616.445 158.713 Q618.436 156.027 618.436 151.398 Q618.436 146.791 616.445 144.106 Q614.454 141.398 611.051 141.398 M611.051 137.787 Q616.607 137.787 619.778 141.398 Q622.95 145.009 622.95 151.398 Q622.95 157.764 619.778 161.398 Q616.607 165.009 611.051 165.009 Q605.473 165.009 602.302 161.398 Q599.153 157.764 599.153 151.398 Q599.153 145.009 602.302 141.398 Q605.473 137.787 611.051 137.787 Z" fill="#000000" fill-rule="nonzero" fill-opacity="1" /><path clip-path="url(#clip090)" d="M651.561 148.689 L651.561 164.338 L647.301 164.338 L647.301 148.828 Q647.301 145.148 645.866 143.319 Q644.431 141.49 641.561 141.49 Q638.112 141.49 636.121 143.69 Q634.13 145.889 634.13 149.685 L634.13 164.338 L629.848 164.338 L629.848 138.412 L634.13 138.412 L634.13 142.44 Q635.658 140.102 637.718 138.944 Q639.801 137.787 642.51 137.787 Q646.977 137.787 649.269 140.565 Q651.561 143.319 651.561 148.689 Z" fill="#000000" fill-rule="nonzero" fill-opacity="1" /><polyline clip-path="url(#clip090)" style="stroke:#e26f46; stroke-linecap:round; stroke-linejoin:round; stroke-width:4; stroke-opacity:1; fill:none" points="253.896,198.898 400.328,198.898 "/>
<path clip-path="url(#clip090)" d="M424.733 181.618 L446.585 181.618 L446.585 185.553 L429.409 185.553 L429.409 195.784 L445.867 195.784 L445.867 199.719 L429.409 199.719 L429.409 212.242 L447.001 212.242 L447.001 216.178 L424.733 216.178 L424.733 181.618 Z" fill="#000000" fill-rule="nonzero" fill-opacity="1" /><path clip-path="url(#clip090)" d="M476.052 190.252 L466.677 202.867 L476.538 216.178 L471.515 216.178 L463.969 205.992 L456.423 216.178 L451.4 216.178 L461.469 202.613 L452.256 190.252 L457.279 190.252 L464.154 199.488 L471.029 190.252 L476.052 190.252 Z" fill="#000000" fill-rule="nonzero" fill-opacity="1" /><path clip-path="url(#clip090)" d="M494.339 203.145 Q489.177 203.145 487.186 204.326 Q485.196 205.506 485.196 208.354 Q485.196 210.622 486.677 211.965 Q488.182 213.284 490.751 213.284 Q494.293 213.284 496.422 210.784 Q498.575 208.261 498.575 204.094 L498.575 203.145 L494.339 203.145 M502.834 201.386 L502.834 216.178 L498.575 216.178 L498.575 212.242 Q497.117 214.603 494.941 215.738 Q492.765 216.849 489.617 216.849 Q485.635 216.849 483.274 214.627 Q480.936 212.381 480.936 208.631 Q480.936 204.256 483.853 202.034 Q486.793 199.812 492.603 199.812 L498.575 199.812 L498.575 199.395 Q498.575 196.455 496.631 194.858 Q494.71 193.238 491.214 193.238 Q488.992 193.238 486.885 193.77 Q484.779 194.303 482.835 195.367 L482.835 191.432 Q485.173 190.53 487.372 190.09 Q489.571 189.627 491.654 189.627 Q497.279 189.627 500.057 192.543 Q502.834 195.46 502.834 201.386 Z" fill="#000000" fill-rule="nonzero" fill-opacity="1" /><path clip-path="url(#clip090)" d="M530.265 191.247 L530.265 195.229 Q528.459 194.233 526.631 193.747 Q524.825 193.238 522.973 193.238 Q518.83 193.238 516.538 195.877 Q514.246 198.492 514.246 203.238 Q514.246 207.983 516.538 210.622 Q518.83 213.238 522.973 213.238 Q524.825 213.238 526.631 212.752 Q528.459 212.242 530.265 211.247 L530.265 215.182 Q528.482 216.016 526.561 216.432 Q524.663 216.849 522.51 216.849 Q516.654 216.849 513.205 213.168 Q509.756 209.488 509.756 203.238 Q509.756 196.895 513.228 193.261 Q516.723 189.627 522.788 189.627 Q524.756 189.627 526.631 190.043 Q528.506 190.437 530.265 191.247 Z" fill="#000000" fill-rule="nonzero" fill-opacity="1" /><path clip-path="url(#clip090)" d="M541.885 182.891 L541.885 190.252 L550.658 190.252 L550.658 193.562 L541.885 193.562 L541.885 207.636 Q541.885 210.807 542.742 211.71 Q543.621 212.613 546.283 212.613 L550.658 212.613 L550.658 216.178 L546.283 216.178 Q541.353 216.178 539.478 214.349 Q537.603 212.497 537.603 207.636 L537.603 193.562 L534.478 193.562 L534.478 190.252 L537.603 190.252 L537.603 182.891 L541.885 182.891 Z" fill="#000000" fill-rule="nonzero" fill-opacity="1" /></svg>
