<?xml version="1.0" encoding="utf-8"?>
<svg xmlns="http://www.w3.org/2000/svg" xmlns:xlink="http://www.w3.org/1999/xlink" width="600" height="400" viewBox="0 0 2400 1600">
<defs>
  <clipPath id="clip720">
    <rect x="0" y="0" width="2400" height="1600"/>
  </clipPath>
</defs>
<path clip-path="url(#clip720)" d="M0 1600 L2400 1600 L2400 0 L0 0  Z" fill="#ffffff" fill-rule="evenodd" fill-opacity="1"/>
<defs>
  <clipPath id="clip721">
    <rect x="480" y="0" width="1681" height="1600"/>
  </clipPath>
</defs>
<path clip-path="url(#clip720)" d="M156.274 1486.45 L2352.76 1486.45 L2352.76 47.2441 L156.274 47.2441  Z" fill="#ffffff" fill-rule="evenodd" fill-opacity="1"/>
<defs>
  <clipPath id="clip722">
    <rect x="156" y="47" width="2197" height="1440"/>
  </clipPath>
</defs>
<polyline clip-path="url(#clip722)" style="stroke:#000000; stroke-linecap:round; stroke-linejoin:round; stroke-width:2; stroke-opacity:0.1; fill:none" points="218.439,1486.45 218.439,47.2441 "/>
<polyline clip-path="url(#clip722)" style="stroke:#000000; stroke-linecap:round; stroke-linejoin:round; stroke-width:2; stroke-opacity:0.1; fill:none" points="736.477,1486.45 736.477,47.2441 "/>
<polyline clip-path="url(#clip722)" style="stroke:#000000; stroke-linecap:round; stroke-linejoin:round; stroke-width:2; stroke-opacity:0.1; fill:none" points="1254.52,1486.45 1254.52,47.2441 "/>
<polyline clip-path="url(#clip722)" style="stroke:#000000; stroke-linecap:round; stroke-linejoin:round; stroke-width:2; stroke-opacity:0.1; fill:none" points="1772.55,1486.45 1772.55,47.2441 "/>
<polyline clip-path="url(#clip722)" style="stroke:#000000; stroke-linecap:round; stroke-linejoin:round; stroke-width:2; stroke-opacity:0.1; fill:none" points="2290.59,1486.45 2290.59,47.2441 "/>
<polyline clip-path="url(#clip720)" style="stroke:#000000; stroke-linecap:round; stroke-linejoin:round; stroke-width:4; stroke-opacity:1; fill:none" points="156.274,1486.45 2352.76,1486.45 "/>
<polyline clip-path="url(#clip720)" style="stroke:#000000; stroke-linecap:round; stroke-linejoin:round; stroke-width:4; stroke-opacity:1; fill:none" points="218.439,1486.45 218.439,1467.55 "/>
<polyline clip-path="url(#clip720)" style="stroke:#000000; stroke-linecap:round; stroke-linejoin:round; stroke-width:4; stroke-opacity:1; fill:none" points="736.477,1486.45 736.477,1467.55 "/>
<polyline clip-path="url(#clip720)" style="stroke:#000000; stroke-linecap:round; stroke-linejoin:round; stroke-width:4; stroke-opacity:1; fill:none" points="1254.52,1486.45 1254.52,1467.55 "/>
<polyline clip-path="url(#clip720)" style="stroke:#000000; stroke-linecap:round; stroke-linejoin:round; stroke-width:4; stroke-opacity:1; fill:none" points="1772.55,1486.45 1772.55,1467.55 "/>
<polyline clip-path="url(#clip720)" style="stroke:#000000; stroke-linecap:round; stroke-linejoin:round; stroke-width:4; stroke-opacity:1; fill:none" points="2290.59,1486.45 2290.59,1467.55 "/>
<path clip-path="url(#clip720)" d="M164.967 1532.02 L194.643 1532.02 L194.643 1535.95 L164.967 1535.95 L164.967 1532.02 Z" fill="#000000" fill-rule="nonzero" fill-opacity="1" /><path clip-path="url(#clip720)" d="M205.545 1544.91 L213.184 1544.91 L213.184 1518.55 L204.874 1520.21 L204.874 1515.95 L213.138 1514.29 L217.814 1514.29 L217.814 1544.91 L225.453 1544.91 L225.453 1548.85 L205.545 1548.85 L205.545 1544.91 Z" fill="#000000" fill-rule="nonzero" fill-opacity="1" /><path clip-path="url(#clip720)" d="M234.897 1542.97 L239.781 1542.97 L239.781 1548.85 L234.897 1548.85 L234.897 1542.97 Z" fill="#000000" fill-rule="nonzero" fill-opacity="1" /><path clip-path="url(#clip720)" d="M259.966 1517.37 Q256.355 1517.37 254.527 1520.93 Q252.721 1524.47 252.721 1531.6 Q252.721 1538.71 254.527 1542.27 Q256.355 1545.82 259.966 1545.82 Q263.601 1545.82 265.406 1542.27 Q267.235 1538.71 267.235 1531.6 Q267.235 1524.47 265.406 1520.93 Q263.601 1517.37 259.966 1517.37 M259.966 1513.66 Q265.776 1513.66 268.832 1518.27 Q271.911 1522.85 271.911 1531.6 Q271.911 1540.33 268.832 1544.94 Q265.776 1549.52 259.966 1549.52 Q254.156 1549.52 251.077 1544.94 Q248.022 1540.33 248.022 1531.6 Q248.022 1522.85 251.077 1518.27 Q254.156 1513.66 259.966 1513.66 Z" fill="#000000" fill-rule="nonzero" fill-opacity="1" /><path clip-path="url(#clip720)" d="M683.503 1532.02 L713.178 1532.02 L713.178 1535.95 L683.503 1535.95 L683.503 1532.02 Z" fill="#000000" fill-rule="nonzero" fill-opacity="1" /><path clip-path="url(#clip720)" d="M733.271 1517.37 Q729.66 1517.37 727.831 1520.93 Q726.026 1524.47 726.026 1531.6 Q726.026 1538.71 727.831 1542.27 Q729.66 1545.82 733.271 1545.82 Q736.905 1545.82 738.711 1542.27 Q740.539 1538.71 740.539 1531.6 Q740.539 1524.47 738.711 1520.93 Q736.905 1517.37 733.271 1517.37 M733.271 1513.66 Q739.081 1513.66 742.137 1518.27 Q745.215 1522.85 745.215 1531.6 Q745.215 1540.33 742.137 1544.94 Q739.081 1549.52 733.271 1549.52 Q727.461 1549.52 724.382 1544.94 Q721.327 1540.33 721.327 1531.6 Q721.327 1522.85 724.382 1518.27 Q727.461 1513.66 733.271 1513.66 Z" fill="#000000" fill-rule="nonzero" fill-opacity="1" /><path clip-path="url(#clip720)" d="M753.433 1542.97 L758.317 1542.97 L758.317 1548.85 L753.433 1548.85 L753.433 1542.97 Z" fill="#000000" fill-rule="nonzero" fill-opacity="1" /><path clip-path="url(#clip720)" d="M768.548 1514.29 L786.905 1514.29 L786.905 1518.22 L772.831 1518.22 L772.831 1526.7 Q773.849 1526.35 774.868 1526.19 Q775.886 1526 776.905 1526 Q782.692 1526 786.072 1529.17 Q789.451 1532.34 789.451 1537.76 Q789.451 1543.34 785.979 1546.44 Q782.507 1549.52 776.187 1549.52 Q774.011 1549.52 771.743 1549.15 Q769.498 1548.78 767.09 1548.04 L767.09 1543.34 Q769.173 1544.47 771.396 1545.03 Q773.618 1545.58 776.095 1545.58 Q780.099 1545.58 782.437 1543.48 Q784.775 1541.37 784.775 1537.76 Q784.775 1534.15 782.437 1532.04 Q780.099 1529.94 776.095 1529.94 Q774.22 1529.94 772.345 1530.35 Q770.493 1530.77 768.548 1531.65 L768.548 1514.29 Z" fill="#000000" fill-rule="nonzero" fill-opacity="1" /><path clip-path="url(#clip720)" d="M1231.9 1517.37 Q1228.29 1517.37 1226.46 1520.93 Q1224.65 1524.47 1224.65 1531.6 Q1224.65 1538.71 1226.46 1542.27 Q1228.29 1545.82 1231.9 1545.82 Q1235.53 1545.82 1237.34 1542.27 Q1239.17 1538.71 1239.17 1531.6 Q1239.17 1524.47 1237.34 1520.93 Q1235.53 1517.37 1231.9 1517.37 M1231.9 1513.66 Q1237.71 1513.66 1240.77 1518.27 Q1243.84 1522.85 1243.84 1531.6 Q1243.84 1540.33 1240.77 1544.94 Q1237.71 1549.52 1231.9 1549.52 Q1226.09 1549.52 1223.01 1544.94 Q1219.96 1540.33 1219.96 1531.6 Q1219.96 1522.85 1223.01 1518.27 Q1226.09 1513.66 1231.9 1513.66 Z" fill="#000000" fill-rule="nonzero" fill-opacity="1" /><path clip-path="url(#clip720)" d="M1252.06 1542.97 L1256.95 1542.97 L1256.95 1548.85 L1252.06 1548.85 L1252.06 1542.97 Z" fill="#000000" fill-rule="nonzero" fill-opacity="1" /><path clip-path="url(#clip720)" d="M1277.13 1517.37 Q1273.52 1517.37 1271.69 1520.93 Q1269.89 1524.47 1269.89 1531.6 Q1269.89 1538.71 1271.69 1542.27 Q1273.52 1545.82 1277.13 1545.82 Q1280.76 1545.82 1282.57 1542.27 Q1284.4 1538.71 1284.4 1531.6 Q1284.4 1524.47 1282.57 1520.93 Q1280.76 1517.37 1277.13 1517.37 M1277.13 1513.66 Q1282.94 1513.66 1286 1518.27 Q1289.08 1522.85 1289.08 1531.6 Q1289.08 1540.33 1286 1544.94 Q1282.94 1549.52 1277.13 1549.52 Q1271.32 1549.52 1268.24 1544.94 Q1265.19 1540.33 1265.19 1531.6 Q1265.19 1522.85 1268.24 1518.27 Q1271.32 1513.66 1277.13 1513.66 Z" fill="#000000" fill-rule="nonzero" fill-opacity="1" /><path clip-path="url(#clip720)" d="M1750.44 1517.37 Q1746.82 1517.37 1745 1520.93 Q1743.19 1524.47 1743.19 1531.6 Q1743.19 1538.71 1745 1542.27 Q1746.82 1545.82 1750.44 1545.82 Q1754.07 1545.82 1755.88 1542.27 Q1757.7 1538.71 1757.7 1531.6 Q1757.7 1524.47 1755.88 1520.93 Q1754.07 1517.37 1750.44 1517.37 M1750.44 1513.66 Q1756.25 1513.66 1759.3 1518.27 Q1762.38 1522.85 1762.38 1531.6 Q1762.38 1540.33 1759.3 1544.94 Q1756.25 1549.52 1750.44 1549.52 Q1744.63 1549.52 1741.55 1544.94 Q1738.49 1540.33 1738.49 1531.6 Q1738.49 1522.85 1741.55 1518.27 Q1744.63 1513.66 1750.44 1513.66 Z" fill="#000000" fill-rule="nonzero" fill-opacity="1" /><path clip-path="url(#clip720)" d="M1770.6 1542.97 L1775.48 1542.97 L1775.48 1548.85 L1770.6 1548.85 L1770.6 1542.97 Z" fill="#000000" fill-rule="nonzero" fill-opacity="1" /><path clip-path="url(#clip720)" d="M1785.71 1514.29 L1804.07 1514.29 L1804.07 1518.22 L1790 1518.22 L1790 1526.7 Q1791.01 1526.35 1792.03 1526.19 Q1793.05 1526 1794.07 1526 Q1799.86 1526 1803.24 1529.17 Q1806.62 1532.34 1806.62 1537.76 Q1806.62 1543.34 1803.14 1546.44 Q1799.67 1549.52 1793.35 1549.52 Q1791.18 1549.52 1788.91 1549.15 Q1786.66 1548.78 1784.25 1548.04 L1784.25 1543.34 Q1786.34 1544.47 1788.56 1545.03 Q1790.78 1545.58 1793.26 1545.58 Q1797.26 1545.58 1799.6 1543.48 Q1801.94 1541.37 1801.94 1537.76 Q1801.94 1534.15 1799.6 1532.04 Q1797.26 1529.94 1793.26 1529.94 Q1791.38 1529.94 1789.51 1530.35 Q1787.66 1530.77 1785.71 1531.65 L1785.71 1514.29 Z" fill="#000000" fill-rule="nonzero" fill-opacity="1" /><path clip-path="url(#clip720)" d="M2257.74 1544.91 L2265.38 1544.91 L2265.38 1518.55 L2257.07 1520.21 L2257.07 1515.95 L2265.34 1514.29 L2270.01 1514.29 L2270.01 1544.91 L2277.65 1544.91 L2277.65 1548.85 L2257.74 1548.85 L2257.74 1544.91 Z" fill="#000000" fill-rule="nonzero" fill-opacity="1" /><path clip-path="url(#clip720)" d="M2287.1 1542.97 L2291.98 1542.97 L2291.98 1548.85 L2287.1 1548.85 L2287.1 1542.97 Z" fill="#000000" fill-rule="nonzero" fill-opacity="1" /><path clip-path="url(#clip720)" d="M2312.17 1517.37 Q2308.55 1517.37 2306.73 1520.93 Q2304.92 1524.47 2304.92 1531.6 Q2304.92 1538.71 2306.73 1542.27 Q2308.55 1545.82 2312.17 1545.82 Q2315.8 1545.82 2317.61 1542.27 Q2319.43 1538.71 2319.43 1531.6 Q2319.43 1524.47 2317.61 1520.93 Q2315.8 1517.37 2312.17 1517.37 M2312.17 1513.66 Q2317.98 1513.66 2321.03 1518.27 Q2324.11 1522.85 2324.11 1531.6 Q2324.11 1540.33 2321.03 1544.94 Q2317.98 1549.52 2312.17 1549.52 Q2306.36 1549.52 2303.28 1544.94 Q2300.22 1540.33 2300.22 1531.6 Q2300.22 1522.85 2303.28 1518.27 Q2306.36 1513.66 2312.17 1513.66 Z" fill="#000000" fill-rule="nonzero" fill-opacity="1" /><polyline clip-path="url(#clip722)" style="stroke:#000000; stroke-linecap:round; stroke-linejoin:round; stroke-width:2; stroke-opacity:0.1; fill:none" points="156.274,1261.5 2352.76,1261.5 "/>
<polyline clip-path="url(#clip722)" style="stroke:#000000; stroke-linecap:round; stroke-linejoin:round; stroke-width:2; stroke-opacity:0.1; fill:none" points="156.274,986.093 2352.76,986.093 "/>
<polyline clip-path="url(#clip722)" style="stroke:#000000; stroke-linecap:round; stroke-linejoin:round; stroke-width:2; stroke-opacity:0.1; fill:none" points="156.274,710.686 2352.76,710.686 "/>
<polyline clip-path="url(#clip722)" style="stroke:#000000; stroke-linecap:round; stroke-linejoin:round; stroke-width:2; stroke-opacity:0.1; fill:none" points="156.274,435.278 2352.76,435.278 "/>
<polyline clip-path="url(#clip722)" style="stroke:#000000; stroke-linecap:round; stroke-linejoin:round; stroke-width:2; stroke-opacity:0.1; fill:none" points="156.274,159.871 2352.76,159.871 "/>
<polyline clip-path="url(#clip720)" style="stroke:#000000; stroke-linecap:round; stroke-linejoin:round; stroke-width:4; stroke-opacity:1; fill:none" points="156.274,1486.45 156.274,47.2441 "/>
<polyline clip-path="url(#clip720)" style="stroke:#000000; stroke-linecap:round; stroke-linejoin:round; stroke-width:4; stroke-opacity:1; fill:none" points="156.274,1261.5 175.172,1261.5 "/>
<polyline clip-path="url(#clip720)" style="stroke:#000000; stroke-linecap:round; stroke-linejoin:round; stroke-width:4; stroke-opacity:1; fill:none" points="156.274,986.093 175.172,986.093 "/>
<polyline clip-path="url(#clip720)" style="stroke:#000000; stroke-linecap:round; stroke-linejoin:round; stroke-width:4; stroke-opacity:1; fill:none" points="156.274,710.686 175.172,710.686 "/>
<polyline clip-path="url(#clip720)" style="stroke:#000000; stroke-linecap:round; stroke-linejoin:round; stroke-width:4; stroke-opacity:1; fill:none" points="156.274,435.278 175.172,435.278 "/>
<polyline clip-path="url(#clip720)" style="stroke:#000000; stroke-linecap:round; stroke-linejoin:round; stroke-width:4; stroke-opacity:1; fill:none" points="156.274,159.871 175.172,159.871 "/>
<path clip-path="url(#clip720)" d="M63.0985 1247.3 Q59.4875 1247.3 57.6588 1250.86 Q55.8532 1254.4 55.8532 1261.53 Q55.8532 1268.64 57.6588 1272.21 Q59.4875 1275.75 63.0985 1275.75 Q66.7328 1275.75 68.5383 1272.21 Q70.367 1268.64 70.367 1261.53 Q70.367 1254.4 68.5383 1250.86 Q66.7328 1247.3 63.0985 1247.3 M63.0985 1243.59 Q68.9087 1243.59 71.9642 1248.2 Q75.0429 1252.78 75.0429 1261.53 Q75.0429 1270.26 71.9642 1274.87 Q68.9087 1279.45 63.0985 1279.45 Q57.2884 1279.45 54.2097 1274.87 Q51.1542 1270.26 51.1542 1261.53 Q51.1542 1252.78 54.2097 1248.2 Q57.2884 1243.59 63.0985 1243.59 Z" fill="#000000" fill-rule="nonzero" fill-opacity="1" /><path clip-path="url(#clip720)" d="M83.2605 1272.9 L88.1447 1272.9 L88.1447 1278.78 L83.2605 1278.78 L83.2605 1272.9 Z" fill="#000000" fill-rule="nonzero" fill-opacity="1" /><path clip-path="url(#clip720)" d="M108.33 1247.3 Q104.719 1247.3 102.89 1250.86 Q101.084 1254.4 101.084 1261.53 Q101.084 1268.64 102.89 1272.21 Q104.719 1275.75 108.33 1275.75 Q111.964 1275.75 113.77 1272.21 Q115.598 1268.64 115.598 1261.53 Q115.598 1254.4 113.77 1250.86 Q111.964 1247.3 108.33 1247.3 M108.33 1243.59 Q114.14 1243.59 117.195 1248.2 Q120.274 1252.78 120.274 1261.53 Q120.274 1270.26 117.195 1274.87 Q114.14 1279.45 108.33 1279.45 Q102.52 1279.45 99.4409 1274.87 Q96.3854 1270.26 96.3854 1261.53 Q96.3854 1252.78 99.4409 1248.2 Q102.52 1243.59 108.33 1243.59 Z" fill="#000000" fill-rule="nonzero" fill-opacity="1" /><path clip-path="url(#clip720)" d="M63.7467 971.891 Q60.1356 971.891 58.3069 975.456 Q56.5014 978.998 56.5014 986.127 Q56.5014 993.234 58.3069 996.799 Q60.1356 1000.34 63.7467 1000.34 Q67.3809 1000.34 69.1865 996.799 Q71.0152 993.234 71.0152 986.127 Q71.0152 978.998 69.1865 975.456 Q67.3809 971.891 63.7467 971.891 M63.7467 968.188 Q69.5568 968.188 72.6124 972.794 Q75.6911 977.377 75.6911 986.127 Q75.6911 994.854 72.6124 999.461 Q69.5568 1004.04 63.7467 1004.04 Q57.9365 1004.04 54.8578 999.461 Q51.8023 994.854 51.8023 986.127 Q51.8023 977.377 54.8578 972.794 Q57.9365 968.188 63.7467 968.188 Z" fill="#000000" fill-rule="nonzero" fill-opacity="1" /><path clip-path="url(#clip720)" d="M83.9086 997.493 L88.7928 997.493 L88.7928 1003.37 L83.9086 1003.37 L83.9086 997.493 Z" fill="#000000" fill-rule="nonzero" fill-opacity="1" /><path clip-path="url(#clip720)" d="M113.145 984.739 Q116.501 985.456 118.376 987.725 Q120.274 989.993 120.274 993.326 Q120.274 998.442 116.756 1001.24 Q113.237 1004.04 106.756 1004.04 Q104.58 1004.04 102.265 1003.6 Q99.9733 1003.19 97.5197 1002.33 L97.5197 997.817 Q99.4641 998.951 101.779 999.53 Q104.094 1000.11 106.617 1000.11 Q111.015 1000.11 113.307 998.373 Q115.621 996.637 115.621 993.326 Q115.621 990.271 113.469 988.558 Q111.339 986.822 107.52 986.822 L103.492 986.822 L103.492 982.979 L107.705 982.979 Q111.154 982.979 112.983 981.614 Q114.811 980.225 114.811 977.632 Q114.811 974.97 112.913 973.558 Q111.038 972.123 107.52 972.123 Q105.598 972.123 103.399 972.539 Q101.2 972.956 98.5613 973.836 L98.5613 969.669 Q101.223 968.928 103.538 968.558 Q105.876 968.188 107.936 968.188 Q113.26 968.188 116.362 970.618 Q119.464 973.026 119.464 977.146 Q119.464 980.016 117.82 982.007 Q116.177 983.975 113.145 984.739 Z" fill="#000000" fill-rule="nonzero" fill-opacity="1" /><path clip-path="url(#clip720)" d="M62.9365 696.484 Q59.3254 696.484 57.4967 700.049 Q55.6912 703.591 55.6912 710.72 Q55.6912 717.827 57.4967 721.391 Q59.3254 724.933 62.9365 724.933 Q66.5707 724.933 68.3763 721.391 Q70.205 717.827 70.205 710.72 Q70.205 703.591 68.3763 700.049 Q66.5707 696.484 62.9365 696.484 M62.9365 692.781 Q68.7467 692.781 71.8022 697.387 Q74.8809 701.97 74.8809 710.72 Q74.8809 719.447 71.8022 724.054 Q68.7467 728.637 62.9365 728.637 Q57.1264 728.637 54.0477 724.054 Q50.9921 719.447 50.9921 710.72 Q50.9921 701.97 54.0477 697.387 Q57.1264 692.781 62.9365 692.781 Z" fill="#000000" fill-rule="nonzero" fill-opacity="1" /><path clip-path="url(#clip720)" d="M83.0984 722.086 L87.9827 722.086 L87.9827 727.966 L83.0984 727.966 L83.0984 722.086 Z" fill="#000000" fill-rule="nonzero" fill-opacity="1" /><path clip-path="url(#clip720)" d="M108.746 708.822 Q105.598 708.822 103.746 710.975 Q101.918 713.128 101.918 716.878 Q101.918 720.604 103.746 722.78 Q105.598 724.933 108.746 724.933 Q111.895 724.933 113.723 722.78 Q115.575 720.604 115.575 716.878 Q115.575 713.128 113.723 710.975 Q111.895 708.822 108.746 708.822 M118.029 694.169 L118.029 698.429 Q116.27 697.595 114.464 697.156 Q112.682 696.716 110.922 696.716 Q106.293 696.716 103.839 699.841 Q101.409 702.966 101.061 709.285 Q102.427 707.271 104.487 706.206 Q106.547 705.118 109.024 705.118 Q114.233 705.118 117.242 708.29 Q120.274 711.438 120.274 716.878 Q120.274 722.202 117.126 725.419 Q113.978 728.637 108.746 728.637 Q102.751 728.637 99.5798 724.054 Q96.4085 719.447 96.4085 710.72 Q96.4085 702.526 100.297 697.665 Q104.186 692.781 110.737 692.781 Q112.496 692.781 114.279 693.128 Q116.084 693.475 118.029 694.169 Z" fill="#000000" fill-rule="nonzero" fill-opacity="1" /><path clip-path="url(#clip720)" d="M63.2837 421.077 Q59.6726 421.077 57.8439 424.642 Q56.0384 428.184 56.0384 435.313 Q56.0384 442.42 57.8439 445.984 Q59.6726 449.526 63.2837 449.526 Q66.918 449.526 68.7235 445.984 Q70.5522 442.42 70.5522 435.313 Q70.5522 428.184 68.7235 424.642 Q66.918 421.077 63.2837 421.077 M63.2837 417.373 Q69.0939 417.373 72.1494 421.98 Q75.2281 426.563 75.2281 435.313 Q75.2281 444.04 72.1494 448.646 Q69.0939 453.23 63.2837 453.23 Q57.4736 453.23 54.3949 448.646 Q51.3393 444.04 51.3393 435.313 Q51.3393 426.563 54.3949 421.98 Q57.4736 417.373 63.2837 417.373 Z" fill="#000000" fill-rule="nonzero" fill-opacity="1" /><path clip-path="url(#clip720)" d="M83.4457 446.679 L88.3299 446.679 L88.3299 452.558 L83.4457 452.558 L83.4457 446.679 Z" fill="#000000" fill-rule="nonzero" fill-opacity="1" /><path clip-path="url(#clip720)" d="M98.6539 451.841 L98.6539 447.582 Q100.413 448.415 102.219 448.855 Q104.024 449.295 105.76 449.295 Q110.39 449.295 112.82 446.193 Q115.274 443.068 115.621 436.725 Q114.279 438.716 112.219 439.781 Q110.158 440.845 107.658 440.845 Q102.473 440.845 99.4409 437.72 Q96.4317 434.572 96.4317 429.133 Q96.4317 423.809 99.5798 420.591 Q102.728 417.373 107.959 417.373 Q113.955 417.373 117.103 421.98 Q120.274 426.563 120.274 435.313 Q120.274 443.484 116.385 448.369 Q112.52 453.23 105.969 453.23 Q104.209 453.23 102.404 452.882 Q100.598 452.535 98.6539 451.841 M107.959 437.188 Q111.108 437.188 112.936 435.035 Q114.788 432.883 114.788 429.133 Q114.788 425.406 112.936 423.253 Q111.108 421.077 107.959 421.077 Q104.811 421.077 102.959 423.253 Q101.131 425.406 101.131 429.133 Q101.131 432.883 102.959 435.035 Q104.811 437.188 107.959 437.188 Z" fill="#000000" fill-rule="nonzero" fill-opacity="1" /><path clip-path="url(#clip720)" d="M55.506 173.216 L63.1448 173.216 L63.1448 146.85 L54.8347 148.517 L54.8347 144.258 L63.0985 142.591 L67.7744 142.591 L67.7744 173.216 L75.4133 173.216 L75.4133 177.151 L55.506 177.151 L55.506 173.216 Z" fill="#000000" fill-rule="nonzero" fill-opacity="1" /><path clip-path="url(#clip720)" d="M84.8577 171.272 L89.7419 171.272 L89.7419 177.151 L84.8577 177.151 L84.8577 171.272 Z" fill="#000000" fill-rule="nonzero" fill-opacity="1" /><path clip-path="url(#clip720)" d="M103.955 173.216 L120.274 173.216 L120.274 177.151 L98.3298 177.151 L98.3298 173.216 Q100.992 170.461 105.575 165.832 Q110.182 161.179 111.362 159.837 Q113.608 157.313 114.487 155.577 Q115.39 153.818 115.39 152.128 Q115.39 149.374 113.445 147.638 Q111.524 145.901 108.422 145.901 Q106.223 145.901 103.77 146.665 Q101.339 147.429 98.5613 148.98 L98.5613 144.258 Q101.385 143.124 103.839 142.545 Q106.293 141.966 108.33 141.966 Q113.7 141.966 116.895 144.651 Q120.089 147.337 120.089 151.827 Q120.089 153.957 119.279 155.878 Q118.492 157.776 116.385 160.369 Q115.807 161.04 112.705 164.258 Q109.603 167.452 103.955 173.216 Z" fill="#000000" fill-rule="nonzero" fill-opacity="1" /><polyline clip-path="url(#clip722)" style="stroke:#009af9; stroke-linecap:round; stroke-linejoin:round; stroke-width:16; stroke-opacity:1; fill:none" stroke-dasharray="8, 16" points="218.439,1123.58 228.852,1118.64 239.264,1107.61 249.677,1093.06 260.09,1078.69 270.503,1069.58 280.916,1071.62 291.329,1089.27 301.741,1122.11 312.154,1162.87 322.567,1200.41 332.98,1226.78 343.393,1242.89 353.805,1257.64 364.218,1281.08 374.631,1317.19 385.044,1361.3 395.457,1403.17 405.87,1432.85 416.282,1445.72 426.695,1444.09 437.108,1435.18 447.521,1426.73 457.934,1422.51 468.347,1420.22 478.759,1413.39 489.172,1396.14 499.585,1367.27 509.998,1330.63 520.411,1292.1 530.824,1256.19 541.236,1224.45 551.649,1196 562.062,1169.34 572.475,1143.87 582.888,1120.43 593.301,1100.63 603.713,1086.02 614.126,1077.67 624.539,1076.22 634.952,1081.86 645.365,1094.15 655.777,1111.8 666.19,1133.19 676.603,1157.05 687.016,1183.06 697.429,1211.71 707.842,1243.68 718.254,1278.82 728.667,1315.47 739.08,1350.43 749.493,1379.96 759.906,1401.58 770.319,1415.53 780.731,1424.68 791.144,1432.41 801.557,1439.7 811.97,1443.76 822.383,1439.89 832.796,1425.47 843.208,1402.74 853.621,1377.04 864.034,1351.36 874.447,1323.66 884.86,1290.77 895.273,1253.69 905.685,1217.24 916.098,1185.37 926.511,1158.5 936.924,1134.93 947.337,1113.48 957.749,1094.96 968.162,1081.58 978.575,1075.51 988.988,1077.55 999.401,1086.87 1009.81,1101.62 1020.23,1119.99 1030.64,1140.86 1041.05,1164 1051.46,1189.75 1061.88,1218.57 1072.29,1250.49 1082.7,1284.88 1093.12,1320.33 1103.53,1354.73 1113.94,1385.63 1124.35,1410.63 1134.77,1427.88 1145.18,1436.59 1155.59,1437.39 1166.01,1432.59 1176.42,1426.29 1186.83,1423.87 1197.24,1429.7 1207.66,1441.84 1218.07,1442.63 1228.48,1388.95 1238.9,1222.17 1249.31,929.766 1259.72,608.766 1270.13,394.226 1280.55,320.691 1290.96,326.981 1301.37,349.812 1311.79,361.851 1322.2,359.645 1332.61,348.147 1343.02,333.688 1353.44,321.671 1363.85,315.745 1374.26,317.485 1384.68,326.384 1395.09,340.206 1405.5,355.6 1415.91,368.872 1426.33,376.75 1436.74,377.006 1447.15,368.913 1457.57,353.513 1467.98,333.66 1478.39,313.755 1488.8,299.05 1499.22,294.424 1509.63,302.829 1520.04,323.862 1530.45,353.215 1540.87,383.483 1551.28,406.183 1561.69,414.111 1572.11,403.184 1582.52,373.506 1592.93,330.06 1603.34,283.206 1613.76,247.946 1624.17,239.937 1634.58,267.664 1645,325.04 1655.41,391.793 1665.82,443.441 1676.23,463.05 1686.65,446.322 1697.06,399.703 1707.47,336.399 1717.89,273.314 1728.3,228.164 1738.71,215.164 1749.12,239.89 1759.54,296.271 1769.95,368.125 1780.36,434.603 1790.78,476.696 1801.19,482.221 1811.6,448.486 1822.01,382.955 1832.43,302.179 1842.84,228.72 1853.25,185.616 1863.67,188.926 1874.08,240.734 1884.49,326.306 1894.9,418.307 1905.32,487.147 1915.73,512.315 1926.14,488.768 1936.56,426.099 1946.97,342.905 1957.38,260.377 1967.79,197.798 1978.21,170.207 1988.62,186.816 1999.03,248.399 2009.45,343.619 2019.86,447.547 2030.27,527.029 2040.68,553.247 2051.1,514.691 2061.51,422.214 2071.92,304.027 2082.33,195.185 2092.75,127.225 2103.16,120.564 2113.57,179.685 2123.99,290.885 2134.4,423.526 2144.81,536.594 2155.22,591.214 2165.64,566.227 2176.05,469.41 2186.46,336.082 2196.88,213.559 2207.29,140.118 2217.7,130.81 2228.11,176.457 2238.53,253.581 2248.94,337.919 2259.35,413.81 2269.77,476.177 2280.18,527.199 2290.59,571.846 "/>
<polyline clip-path="url(#clip722)" style="stroke:#e26f46; stroke-linecap:round; stroke-linejoin:round; stroke-width:4; stroke-opacity:1; fill:none" points="218.439,1123.61 228.852,1104.05 239.264,1089.63 249.677,1080.81 260.09,1077.9 270.503,1080.97 280.916,1089.94 291.329,1104.5 301.741,1124.19 312.154,1148.36 322.567,1176.23 332.98,1206.88 343.393,1239.3 353.805,1272.46 364.218,1305.25 374.631,1336.62 385.044,1365.54 395.457,1391.06 405.87,1412.35 416.282,1428.72 426.695,1439.63 437.108,1444.73 447.521,1443.85 457.934,1437.01 468.347,1424.45 478.759,1406.57 489.172,1383.96 499.585,1357.34 509.998,1327.6 520.411,1295.71 530.824,1262.69 541.236,1229.64 551.649,1197.63 562.062,1167.7 572.475,1140.83 582.888,1117.9 593.301,1099.66 603.713,1086.7 614.126,1079.45 624.539,1078.13 634.952,1082.8 645.365,1093.31 655.777,1109.3 666.19,1130.26 676.603,1155.5 687.016,1184.21 697.429,1215.43 707.842,1248.16 718.254,1281.33 728.667,1313.84 739.08,1344.65 749.493,1372.75 759.906,1397.21 770.319,1417.25 780.731,1432.2 791.144,1441.58 801.557,1445.08 811.97,1442.59 822.383,1434.2 832.796,1420.16 843.208,1400.95 853.621,1377.18 864.034,1349.64 874.447,1319.23 884.86,1286.93 895.273,1253.79 905.685,1220.92 916.098,1189.36 926.511,1160.16 936.924,1134.27 947.337,1112.53 957.749,1095.65 968.162,1084.18 978.575,1078.51 988.988,1078.8 999.401,1085.06 1009.81,1097.07 1020.23,1114.45 1030.64,1136.64 1041.05,1162.89 1051.46,1192.37 1061.88,1224.1 1072.29,1257.05 1082.7,1290.15 1093.12,1322.31 1103.53,1352.49 1113.94,1379.69 1124.35,1403.04 1134.77,1421.78 1145.18,1435.27 1155.59,1443.1 1166.01,1445 1176.42,1440.92 1186.83,1430.97 1197.24,1415.5 1207.66,1395 1218.07,1370.14 1228.48,1341.74 1238.9,1310.71 1249.31,1278.08 1259.72,342.143 1270.13,340.626 1280.55,342.006 1290.96,346.603 1301.37,353.008 1311.79,358.513 1322.2,360.143 1332.61,355.907 1343.02,345.809 1353.44,332.195 1363.85,319.241 1374.26,311.673 1384.68,313.125 1395.09,324.671 1405.5,344.093 1415.91,366.195 1426.33,384.194 1436.74,391.786 1447.15,385.288 1457.57,365.122 1467.98,336.117 1478.39,306.392 1488.8,285.088 1499.22,279.569 1509.63,292.948 1520.04,322.755 1530.45,361.249 1540.87,397.41 1551.28,420.089 1561.69,421.432 1572.11,399.522 1582.52,359.367 1592.93,311.834 1603.34,270.719 1613.76,248.739 1624.17,253.626 1634.58,285.492 1645,336.362 1655.41,392.129 1665.82,436.458 1676.23,455.569 1686.65,442.5 1697.06,399.524 1707.47,337.928 1717.89,275.07 1728.3,229.493 1738.71,215.456 1749.12,238.505 1759.54,293.442 1769.95,365.41 1780.36,433.898 1790.78,478.58 1801.19,485.348 1811.6,450.726 1822.01,383.312 1832.43,301.691 1842.84,229.328 1853.25,187.814 1863.67,190.439 1874.08,237.977 1884.49,318.029 1894.9,408.22 1905.32,482.449 1915.73,518.442 1926.14,504.426 1936.56,442.919 1946.97,350.444 1957.38,253.109 1967.79,179.241 1978.21,151.143 1988.62,178.372 1999.03,254.574 2009.45,358.878 2019.86,461.606 2030.27,532.714 2040.68,550.575 2051.1,508.537 2061.51,417.273 2071.92,302.117 2082.33,196.04 2092.75,130.21 2103.16,124.841 2113.57,183.006 2123.99,289.321 2134.4,413.979 2144.81,521.102 2155.22,579.068 2165.64,569.839 2176.05,494.541 2186.46,373.58 2196.88,241.13 2207.29,135.482 2217.7,87.9763 2228.11,113.712 2238.53,206.793 2248.94,341.591 2259.35,479.789 2269.77,581.274 2280.18,615.772 2290.59,571.874 "/>
<path clip-path="url(#clip720)" d="M229.49 250.738 L675.966 250.738 L675.966 95.2176 L229.49 95.2176  Z" fill="#ffffff" fill-rule="evenodd" fill-opacity="1"/>
<polyline clip-path="url(#clip720)" style="stroke:#000000; stroke-linecap:round; stroke-linejoin:round; stroke-width:4; stroke-opacity:1; fill:none" points="229.49,250.738 675.966,250.738 675.966,95.2176 229.49,95.2176 229.49,250.738 "/>
<polyline clip-path="url(#clip720)" style="stroke:#009af9; stroke-linecap:round; stroke-linejoin:round; stroke-width:16; stroke-opacity:1; fill:none" stroke-dasharray="8, 16" points="253.896,147.058 400.328,147.058 "/>
<path clip-path="url(#clip720)" d="M429.409 133.62 L429.409 146.606 L435.289 146.606 Q438.552 146.606 440.335 144.916 Q442.117 143.227 442.117 140.102 Q442.117 137 440.335 135.31 Q438.552 133.62 435.289 133.62 L429.409 133.62 M424.733 129.778 L435.289 129.778 Q441.099 129.778 444.062 132.416 Q447.048 135.032 447.048 140.102 Q447.048 145.217 444.062 147.833 Q441.099 150.449 435.289 150.449 L429.409 150.449 L429.409 164.338 L424.733 164.338 L424.733 129.778 Z" fill="#000000" fill-rule="nonzero" fill-opacity="1" /><path clip-path="url(#clip720)" d="M467.325 142.393 Q466.608 141.977 465.751 141.791 Q464.918 141.583 463.899 141.583 Q460.288 141.583 458.344 143.944 Q456.423 146.282 456.423 150.68 L456.423 164.338 L452.14 164.338 L452.14 138.412 L456.423 138.412 L456.423 142.44 Q457.765 140.078 459.918 138.944 Q462.071 137.787 465.149 137.787 Q465.589 137.787 466.122 137.856 Q466.654 137.903 467.302 138.018 L467.325 142.393 Z" fill="#000000" fill-rule="nonzero" fill-opacity="1" /><path clip-path="url(#clip720)" d="M492.927 150.31 L492.927 152.393 L473.344 152.393 Q473.622 156.791 475.983 159.106 Q478.367 161.398 482.603 161.398 Q485.057 161.398 487.348 160.796 Q489.663 160.194 491.932 158.99 L491.932 163.018 Q489.64 163.99 487.233 164.5 Q484.825 165.009 482.348 165.009 Q476.145 165.009 472.511 161.398 Q468.899 157.787 468.899 151.629 Q468.899 145.264 472.325 141.537 Q475.774 137.787 481.608 137.787 Q486.839 137.787 489.872 141.166 Q492.927 144.523 492.927 150.31 M488.668 149.06 Q488.622 145.565 486.7 143.481 Q484.802 141.398 481.654 141.398 Q478.089 141.398 475.936 143.412 Q473.807 145.426 473.483 149.083 L488.668 149.06 Z" fill="#000000" fill-rule="nonzero" fill-opacity="1" /><path clip-path="url(#clip720)" d="M516.978 142.347 L516.978 128.319 L521.237 128.319 L521.237 164.338 L516.978 164.338 L516.978 160.449 Q515.635 162.763 513.575 163.898 Q511.538 165.009 508.668 165.009 Q503.969 165.009 501.006 161.259 Q498.066 157.509 498.066 151.398 Q498.066 145.287 501.006 141.537 Q503.969 137.787 508.668 137.787 Q511.538 137.787 513.575 138.921 Q515.635 140.032 516.978 142.347 M502.464 151.398 Q502.464 156.097 504.385 158.782 Q506.33 161.444 509.709 161.444 Q513.089 161.444 515.033 158.782 Q516.978 156.097 516.978 151.398 Q516.978 146.699 515.033 144.037 Q513.089 141.352 509.709 141.352 Q506.33 141.352 504.385 144.037 Q502.464 146.699 502.464 151.398 Z" fill="#000000" fill-rule="nonzero" fill-opacity="1" /><path clip-path="url(#clip720)" d="M530.01 138.412 L534.269 138.412 L534.269 164.338 L530.01 164.338 L530.01 138.412 M530.01 128.319 L534.269 128.319 L534.269 133.713 L530.01 133.713 L530.01 128.319 Z" fill="#000000" fill-rule="nonzero" fill-opacity="1" /><path clip-path="url(#clip720)" d="M561.839 139.407 L561.839 143.389 Q560.033 142.393 558.205 141.907 Q556.399 141.398 554.547 141.398 Q550.404 141.398 548.112 144.037 Q545.82 146.652 545.82 151.398 Q545.82 156.143 548.112 158.782 Q550.404 161.398 554.547 161.398 Q556.399 161.398 558.205 160.912 Q560.033 160.402 561.839 159.407 L561.839 163.342 Q560.056 164.176 558.135 164.592 Q556.237 165.009 554.084 165.009 Q548.228 165.009 544.779 161.328 Q541.33 157.648 541.33 151.398 Q541.33 145.055 544.802 141.421 Q548.297 137.787 554.362 137.787 Q556.33 137.787 558.205 138.203 Q560.08 138.597 561.839 139.407 Z" fill="#000000" fill-rule="nonzero" fill-opacity="1" /><path clip-path="url(#clip720)" d="M573.459 131.051 L573.459 138.412 L582.232 138.412 L582.232 141.722 L573.459 141.722 L573.459 155.796 Q573.459 158.967 574.316 159.87 Q575.195 160.773 577.857 160.773 L582.232 160.773 L582.232 164.338 L577.857 164.338 Q572.927 164.338 571.052 162.509 Q569.177 160.657 569.177 155.796 L569.177 141.722 L566.052 141.722 L566.052 138.412 L569.177 138.412 L569.177 131.051 L573.459 131.051 Z" fill="#000000" fill-rule="nonzero" fill-opacity="1" /><path clip-path="url(#clip720)" d="M587.834 138.412 L592.093 138.412 L592.093 164.338 L587.834 164.338 L587.834 138.412 M587.834 128.319 L592.093 128.319 L592.093 133.713 L587.834 133.713 L587.834 128.319 Z" fill="#000000" fill-rule="nonzero" fill-opacity="1" /><path clip-path="url(#clip720)" d="M611.051 141.398 Q607.626 141.398 605.635 144.083 Q603.644 146.745 603.644 151.398 Q603.644 156.051 605.612 158.736 Q607.602 161.398 611.051 161.398 Q614.454 161.398 616.445 158.713 Q618.436 156.027 618.436 151.398 Q618.436 146.791 616.445 144.106 Q614.454 141.398 611.051 141.398 M611.051 137.787 Q616.607 137.787 619.778 141.398 Q622.95 145.009 622.95 151.398 Q622.95 157.764 619.778 161.398 Q616.607 165.009 611.051 165.009 Q605.473 165.009 602.302 161.398 Q599.153 157.764 599.153 151.398 Q599.153 145.009 602.302 141.398 Q605.473 137.787 611.051 137.787 Z" fill="#000000" fill-rule="nonzero" fill-opacity="1" /><path clip-path="url(#clip720)" d="M651.561 148.689 L651.561 164.338 L647.301 164.338 L647.301 148.828 Q647.301 145.148 645.866 143.319 Q644.431 141.49 641.561 141.49 Q638.112 141.49 636.121 143.69 Q634.13 145.889 634.13 149.685 L634.13 164.338 L629.848 164.338 L629.848 138.412 L634.13 138.412 L634.13 142.44 Q635.658 140.102 637.718 138.944 Q639.801 137.787 642.51 137.787 Q646.977 137.787 649.269 140.565 Q651.561 143.319 651.561 148.689 Z" fill="#000000" fill-rule="nonzero" fill-opacity="1" /><polyline clip-path="url(#clip720)" style="stroke:#e26f46; stroke-linecap:round; stroke-linejoin:round; stroke-width:4; stroke-opacity:1; fill:none" points="253.896,198.898 400.328,198.898 "/>
<path clip-path="url(#clip720)" d="M424.733 181.618 L446.585 181.618 L446.585 185.553 L429.409 185.553 L429.409 195.784 L445.867 195.784 L445.867 199.719 L429.409 199.719 L429.409 212.242 L447.001 212.242 L447.001 216.178 L424.733 216.178 L424.733 181.618 Z" fill="#000000" fill-rule="nonzero" fill-opacity="1" /><path clip-path="url(#clip720)" d="M476.052 190.252 L466.677 202.867 L476.538 216.178 L471.515 216.178 L463.969 205.992 L456.423 216.178 L451.4 216.178 L461.469 202.613 L452.256 190.252 L457.279 190.252 L464.154 199.488 L471.029 190.252 L476.052 190.252 Z" fill="#000000" fill-rule="nonzero" fill-opacity="1" /><path clip-path="url(#clip720)" d="M494.339 203.145 Q489.177 203.145 487.186 204.326 Q485.196 205.506 485.196 208.354 Q485.196 210.622 486.677 211.965 Q488.182 213.284 490.751 213.284 Q494.293 213.284 496.422 210.784 Q498.575 208.261 498.575 204.094 L498.575 203.145 L494.339 203.145 M502.834 201.386 L502.834 216.178 L498.575 216.178 L498.575 212.242 Q497.117 214.603 494.941 215.738 Q492.765 216.849 489.617 216.849 Q485.635 216.849 483.274 214.627 Q480.936 212.381 480.936 208.631 Q480.936 204.256 483.853 202.034 Q486.793 199.812 492.603 199.812 L498.575 199.812 L498.575 199.395 Q498.575 196.455 496.631 194.858 Q494.71 193.238 491.214 193.238 Q488.992 193.238 486.885 193.77 Q484.779 194.303 482.835 195.367 L482.835 191.432 Q485.173 190.53 487.372 190.09 Q489.571 189.627 491.654 189.627 Q497.279 189.627 500.057 192.543 Q502.834 195.46 502.834 201.386 Z" fill="#000000" fill-rule="nonzero" fill-opacity="1" /><path clip-path="url(#clip720)" d="M530.265 191.247 L530.265 195.229 Q528.459 194.233 526.631 193.747 Q524.825 193.238 522.973 193.238 Q518.83 193.238 516.538 195.877 Q514.246 198.492 514.246 203.238 Q514.246 207.983 516.538 210.622 Q518.83 213.238 522.973 213.238 Q524.825 213.238 526.631 212.752 Q528.459 212.242 530.265 211.247 L530.265 215.182 Q528.482 216.016 526.561 216.432 Q524.663 216.849 522.51 216.849 Q516.654 216.849 513.205 213.168 Q509.756 209.488 509.756 203.238 Q509.756 196.895 513.228 193.261 Q516.723 189.627 522.788 189.627 Q524.756 189.627 526.631 190.043 Q528.506 190.437 530.265 191.247 Z" fill="#000000" fill-rule="nonzero" fill-opacity="1" /><path clip-path="url(#clip720)" d="M541.885 182.891 L541.885 190.252 L550.658 190.252 L550.658 193.562 L541.885 193.562 L541.885 207.636 Q541.885 210.807 542.742 211.71 Q543.621 212.613 546.283 212.613 L550.658 212.613 L550.658 216.178 L546.283 216.178 Q541.353 216.178 539.478 214.349 Q537.603 212.497 537.603 207.636 L537.603 193.562 L534.478 193.562 L534.478 190.252 L537.603 190.252 L537.603 182.891 L541.885 182.891 Z" fill="#000000" fill-rule="nonzero" fill-opacity="1" /></svg>
