<?xml version="1.0" encoding="utf-8"?>
<svg xmlns="http://www.w3.org/2000/svg" xmlns:xlink="http://www.w3.org/1999/xlink" width="600" height="400" viewBox="0 0 2400 1600">
<defs>
  <clipPath id="clip210">
    <rect x="0" y="0" width="2400" height="1600"/>
  </clipPath>
</defs>
<path clip-path="url(#clip210)" d="
M0 1600 L2400 1600 L2400 0 L0 0  Z
  " fill="#ffffff" fill-rule="evenodd" fill-opacity="1"/>
<defs>
  <clipPath id="clip211">
    <rect x="480" y="0" width="1681" height="1600"/>
  </clipPath>
</defs>
<path clip-path="url(#clip210)" d="
M223.103 1486.45 L2352.76 1486.45 L2352.76 47.2441 L223.103 47.2441  Z
  " fill="#ffffff" fill-rule="evenodd" fill-opacity="1"/>
<defs>
  <clipPath id="clip212">
    <rect x="223" y="47" width="2131" height="1440"/>
  </clipPath>
</defs>
<polyline clip-path="url(#clip212)" style="stroke:#000000; stroke-linecap:round; stroke-linejoin:round; stroke-width:2; stroke-opacity:0.1; fill:none" points="
  283.376,1486.45 283.376,47.2441 
  "/>
<polyline clip-path="url(#clip212)" style="stroke:#000000; stroke-linecap:round; stroke-linejoin:round; stroke-width:2; stroke-opacity:0.1; fill:none" points="
  785.652,1486.45 785.652,47.2441 
  "/>
<polyline clip-path="url(#clip212)" style="stroke:#000000; stroke-linecap:round; stroke-linejoin:round; stroke-width:2; stroke-opacity:0.1; fill:none" points="
  1287.93,1486.45 1287.93,47.2441 
  "/>
<polyline clip-path="url(#clip212)" style="stroke:#000000; stroke-linecap:round; stroke-linejoin:round; stroke-width:2; stroke-opacity:0.1; fill:none" points="
  1790.21,1486.45 1790.21,47.2441 
  "/>
<polyline clip-path="url(#clip212)" style="stroke:#000000; stroke-linecap:round; stroke-linejoin:round; stroke-width:2; stroke-opacity:0.1; fill:none" points="
  2292.48,1486.45 2292.48,47.2441 
  "/>
<polyline clip-path="url(#clip210)" style="stroke:#000000; stroke-linecap:round; stroke-linejoin:round; stroke-width:4; stroke-opacity:1; fill:none" points="
  223.103,1486.45 2352.76,1486.45 
  "/>
<polyline clip-path="url(#clip210)" style="stroke:#000000; stroke-linecap:round; stroke-linejoin:round; stroke-width:4; stroke-opacity:1; fill:none" points="
  283.376,1486.45 283.376,1467.55 
  "/>
<polyline clip-path="url(#clip210)" style="stroke:#000000; stroke-linecap:round; stroke-linejoin:round; stroke-width:4; stroke-opacity:1; fill:none" points="
  785.652,1486.45 785.652,1467.55 
  "/>
<polyline clip-path="url(#clip210)" style="stroke:#000000; stroke-linecap:round; stroke-linejoin:round; stroke-width:4; stroke-opacity:1; fill:none" points="
  1287.93,1486.45 1287.93,1467.55 
  "/>
<polyline clip-path="url(#clip210)" style="stroke:#000000; stroke-linecap:round; stroke-linejoin:round; stroke-width:4; stroke-opacity:1; fill:none" points="
  1790.21,1486.45 1790.21,1467.55 
  "/>
<polyline clip-path="url(#clip210)" style="stroke:#000000; stroke-linecap:round; stroke-linejoin:round; stroke-width:4; stroke-opacity:1; fill:none" points="
  2292.48,1486.45 2292.48,1467.55 
  "/>
<path clip-path="url(#clip210)" d="M229.904 1532.02 L259.58 1532.02 L259.58 1535.95 L229.904 1535.95 L229.904 1532.02 Z" fill="#000000" fill-rule="evenodd" fill-opacity="1" /><path clip-path="url(#clip210)" d="M270.482 1544.91 L278.121 1544.91 L278.121 1518.55 L269.811 1520.21 L269.811 1515.95 L278.075 1514.29 L282.751 1514.29 L282.751 1544.91 L290.39 1544.91 L290.39 1548.85 L270.482 1548.85 L270.482 1544.91 Z" fill="#000000" fill-rule="evenodd" fill-opacity="1" /><path clip-path="url(#clip210)" d="M299.834 1542.97 L304.718 1542.97 L304.718 1548.85 L299.834 1548.85 L299.834 1542.97 Z" fill="#000000" fill-rule="evenodd" fill-opacity="1" /><path clip-path="url(#clip210)" d="M324.903 1517.37 Q321.292 1517.37 319.463 1520.93 Q317.658 1524.47 317.658 1531.6 Q317.658 1538.71 319.463 1542.27 Q321.292 1545.82 324.903 1545.82 Q328.538 1545.82 330.343 1542.27 Q332.172 1538.71 332.172 1531.6 Q332.172 1524.47 330.343 1520.93 Q328.538 1517.37 324.903 1517.37 M324.903 1513.66 Q330.713 1513.66 333.769 1518.27 Q336.848 1522.85 336.848 1531.6 Q336.848 1540.33 333.769 1544.94 Q330.713 1549.52 324.903 1549.52 Q319.093 1549.52 316.014 1544.94 Q312.959 1540.33 312.959 1531.6 Q312.959 1522.85 316.014 1518.27 Q319.093 1513.66 324.903 1513.66 Z" fill="#000000" fill-rule="evenodd" fill-opacity="1" /><path clip-path="url(#clip210)" d="M732.678 1532.02 L762.354 1532.02 L762.354 1535.95 L732.678 1535.95 L732.678 1532.02 Z" fill="#000000" fill-rule="evenodd" fill-opacity="1" /><path clip-path="url(#clip210)" d="M782.446 1517.37 Q778.835 1517.37 777.007 1520.93 Q775.201 1524.47 775.201 1531.6 Q775.201 1538.71 777.007 1542.27 Q778.835 1545.82 782.446 1545.82 Q786.081 1545.82 787.886 1542.27 Q789.715 1538.71 789.715 1531.6 Q789.715 1524.47 787.886 1520.93 Q786.081 1517.37 782.446 1517.37 M782.446 1513.66 Q788.257 1513.66 791.312 1518.27 Q794.391 1522.85 794.391 1531.6 Q794.391 1540.33 791.312 1544.94 Q788.257 1549.52 782.446 1549.52 Q776.636 1549.52 773.558 1544.94 Q770.502 1540.33 770.502 1531.6 Q770.502 1522.85 773.558 1518.27 Q776.636 1513.66 782.446 1513.66 Z" fill="#000000" fill-rule="evenodd" fill-opacity="1" /><path clip-path="url(#clip210)" d="M802.608 1542.97 L807.493 1542.97 L807.493 1548.85 L802.608 1548.85 L802.608 1542.97 Z" fill="#000000" fill-rule="evenodd" fill-opacity="1" /><path clip-path="url(#clip210)" d="M817.724 1514.29 L836.08 1514.29 L836.08 1518.22 L822.006 1518.22 L822.006 1526.7 Q823.025 1526.35 824.043 1526.19 Q825.062 1526 826.08 1526 Q831.867 1526 835.247 1529.17 Q838.627 1532.34 838.627 1537.76 Q838.627 1543.34 835.155 1546.44 Q831.682 1549.52 825.363 1549.52 Q823.187 1549.52 820.918 1549.15 Q818.673 1548.78 816.266 1548.04 L816.266 1543.34 Q818.349 1544.47 820.571 1545.03 Q822.793 1545.58 825.27 1545.58 Q829.275 1545.58 831.613 1543.48 Q833.951 1541.37 833.951 1537.76 Q833.951 1534.15 831.613 1532.04 Q829.275 1529.94 825.27 1529.94 Q823.395 1529.94 821.52 1530.35 Q819.668 1530.77 817.724 1531.65 L817.724 1514.29 Z" fill="#000000" fill-rule="evenodd" fill-opacity="1" /><path clip-path="url(#clip210)" d="M1265.31 1517.37 Q1261.7 1517.37 1259.87 1520.93 Q1258.07 1524.47 1258.07 1531.6 Q1258.07 1538.71 1259.87 1542.27 Q1261.7 1545.82 1265.31 1545.82 Q1268.95 1545.82 1270.75 1542.27 Q1272.58 1538.71 1272.58 1531.6 Q1272.58 1524.47 1270.75 1520.93 Q1268.95 1517.37 1265.31 1517.37 M1265.31 1513.66 Q1271.12 1513.66 1274.18 1518.27 Q1277.26 1522.85 1277.26 1531.6 Q1277.26 1540.33 1274.18 1544.94 Q1271.12 1549.52 1265.31 1549.52 Q1259.5 1549.52 1256.42 1544.94 Q1253.37 1540.33 1253.37 1531.6 Q1253.37 1522.85 1256.42 1518.27 Q1259.5 1513.66 1265.31 1513.66 Z" fill="#000000" fill-rule="evenodd" fill-opacity="1" /><path clip-path="url(#clip210)" d="M1285.48 1542.97 L1290.36 1542.97 L1290.36 1548.85 L1285.48 1548.85 L1285.48 1542.97 Z" fill="#000000" fill-rule="evenodd" fill-opacity="1" /><path clip-path="url(#clip210)" d="M1310.54 1517.37 Q1306.93 1517.37 1305.11 1520.93 Q1303.3 1524.47 1303.3 1531.6 Q1303.3 1538.71 1305.11 1542.27 Q1306.93 1545.82 1310.54 1545.82 Q1314.18 1545.82 1315.98 1542.27 Q1317.81 1538.71 1317.81 1531.6 Q1317.81 1524.47 1315.98 1520.93 Q1314.18 1517.37 1310.54 1517.37 M1310.54 1513.66 Q1316.35 1513.66 1319.41 1518.27 Q1322.49 1522.85 1322.49 1531.6 Q1322.49 1540.33 1319.41 1544.94 Q1316.35 1549.52 1310.54 1549.52 Q1304.73 1549.52 1301.66 1544.94 Q1298.6 1540.33 1298.6 1531.6 Q1298.6 1522.85 1301.66 1518.27 Q1304.73 1513.66 1310.54 1513.66 Z" fill="#000000" fill-rule="evenodd" fill-opacity="1" /><path clip-path="url(#clip210)" d="M1768.09 1517.37 Q1764.48 1517.37 1762.65 1520.93 Q1760.84 1524.47 1760.84 1531.6 Q1760.84 1538.71 1762.65 1542.27 Q1764.48 1545.82 1768.09 1545.82 Q1771.72 1545.82 1773.53 1542.27 Q1775.36 1538.71 1775.36 1531.6 Q1775.36 1524.47 1773.53 1520.93 Q1771.72 1517.37 1768.09 1517.37 M1768.09 1513.66 Q1773.9 1513.66 1776.95 1518.27 Q1780.03 1522.85 1780.03 1531.6 Q1780.03 1540.33 1776.95 1544.94 Q1773.9 1549.52 1768.09 1549.52 Q1762.28 1549.52 1759.2 1544.94 Q1756.14 1540.33 1756.14 1531.6 Q1756.14 1522.85 1759.2 1518.27 Q1762.28 1513.66 1768.09 1513.66 Z" fill="#000000" fill-rule="evenodd" fill-opacity="1" /><path clip-path="url(#clip210)" d="M1788.25 1542.97 L1793.13 1542.97 L1793.13 1548.85 L1788.25 1548.85 L1788.25 1542.97 Z" fill="#000000" fill-rule="evenodd" fill-opacity="1" /><path clip-path="url(#clip210)" d="M1803.37 1514.29 L1821.72 1514.29 L1821.72 1518.22 L1807.65 1518.22 L1807.65 1526.7 Q1808.67 1526.35 1809.69 1526.19 Q1810.7 1526 1811.72 1526 Q1817.51 1526 1820.89 1529.17 Q1824.27 1532.34 1824.27 1537.76 Q1824.27 1543.34 1820.8 1546.44 Q1817.32 1549.52 1811 1549.52 Q1808.83 1549.52 1806.56 1549.15 Q1804.31 1548.78 1801.91 1548.04 L1801.91 1543.34 Q1803.99 1544.47 1806.21 1545.03 Q1808.44 1545.58 1810.91 1545.58 Q1814.92 1545.58 1817.25 1543.48 Q1819.59 1541.37 1819.59 1537.76 Q1819.59 1534.15 1817.25 1532.04 Q1814.92 1529.94 1810.91 1529.94 Q1809.04 1529.94 1807.16 1530.35 Q1805.31 1530.77 1803.37 1531.65 L1803.37 1514.29 Z" fill="#000000" fill-rule="evenodd" fill-opacity="1" /><path clip-path="url(#clip210)" d="M2259.64 1544.91 L2267.27 1544.91 L2267.27 1518.55 L2258.96 1520.21 L2258.96 1515.95 L2267.23 1514.29 L2271.9 1514.29 L2271.9 1544.91 L2279.54 1544.91 L2279.54 1548.85 L2259.64 1548.85 L2259.64 1544.91 Z" fill="#000000" fill-rule="evenodd" fill-opacity="1" /><path clip-path="url(#clip210)" d="M2288.99 1542.97 L2293.87 1542.97 L2293.87 1548.85 L2288.99 1548.85 L2288.99 1542.97 Z" fill="#000000" fill-rule="evenodd" fill-opacity="1" /><path clip-path="url(#clip210)" d="M2314.06 1517.37 Q2310.45 1517.37 2308.62 1520.93 Q2306.81 1524.47 2306.81 1531.6 Q2306.81 1538.71 2308.62 1542.27 Q2310.45 1545.82 2314.06 1545.82 Q2317.69 1545.82 2319.5 1542.27 Q2321.33 1538.71 2321.33 1531.6 Q2321.33 1524.47 2319.5 1520.93 Q2317.69 1517.37 2314.06 1517.37 M2314.06 1513.66 Q2319.87 1513.66 2322.92 1518.27 Q2326 1522.85 2326 1531.6 Q2326 1540.33 2322.92 1544.94 Q2319.87 1549.52 2314.06 1549.52 Q2308.25 1549.52 2305.17 1544.94 Q2302.11 1540.33 2302.11 1531.6 Q2302.11 1522.85 2305.17 1518.27 Q2308.25 1513.66 2314.06 1513.66 Z" fill="#000000" fill-rule="evenodd" fill-opacity="1" /><polyline clip-path="url(#clip212)" style="stroke:#000000; stroke-linecap:round; stroke-linejoin:round; stroke-width:2; stroke-opacity:0.1; fill:none" points="
  223.103,1364.28 2352.76,1364.28 
  "/>
<polyline clip-path="url(#clip212)" style="stroke:#000000; stroke-linecap:round; stroke-linejoin:round; stroke-width:2; stroke-opacity:0.1; fill:none" points="
  223.103,1162.82 2352.76,1162.82 
  "/>
<polyline clip-path="url(#clip212)" style="stroke:#000000; stroke-linecap:round; stroke-linejoin:round; stroke-width:2; stroke-opacity:0.1; fill:none" points="
  223.103,961.369 2352.76,961.369 
  "/>
<polyline clip-path="url(#clip212)" style="stroke:#000000; stroke-linecap:round; stroke-linejoin:round; stroke-width:2; stroke-opacity:0.1; fill:none" points="
  223.103,759.915 2352.76,759.915 
  "/>
<polyline clip-path="url(#clip212)" style="stroke:#000000; stroke-linecap:round; stroke-linejoin:round; stroke-width:2; stroke-opacity:0.1; fill:none" points="
  223.103,558.461 2352.76,558.461 
  "/>
<polyline clip-path="url(#clip212)" style="stroke:#000000; stroke-linecap:round; stroke-linejoin:round; stroke-width:2; stroke-opacity:0.1; fill:none" points="
  223.103,357.007 2352.76,357.007 
  "/>
<polyline clip-path="url(#clip212)" style="stroke:#000000; stroke-linecap:round; stroke-linejoin:round; stroke-width:2; stroke-opacity:0.1; fill:none" points="
  223.103,155.552 2352.76,155.552 
  "/>
<polyline clip-path="url(#clip210)" style="stroke:#000000; stroke-linecap:round; stroke-linejoin:round; stroke-width:4; stroke-opacity:1; fill:none" points="
  223.103,1486.45 223.103,47.2441 
  "/>
<polyline clip-path="url(#clip210)" style="stroke:#000000; stroke-linecap:round; stroke-linejoin:round; stroke-width:4; stroke-opacity:1; fill:none" points="
  223.103,1364.28 242,1364.28 
  "/>
<polyline clip-path="url(#clip210)" style="stroke:#000000; stroke-linecap:round; stroke-linejoin:round; stroke-width:4; stroke-opacity:1; fill:none" points="
  223.103,1162.82 242,1162.82 
  "/>
<polyline clip-path="url(#clip210)" style="stroke:#000000; stroke-linecap:round; stroke-linejoin:round; stroke-width:4; stroke-opacity:1; fill:none" points="
  223.103,961.369 242,961.369 
  "/>
<polyline clip-path="url(#clip210)" style="stroke:#000000; stroke-linecap:round; stroke-linejoin:round; stroke-width:4; stroke-opacity:1; fill:none" points="
  223.103,759.915 242,759.915 
  "/>
<polyline clip-path="url(#clip210)" style="stroke:#000000; stroke-linecap:round; stroke-linejoin:round; stroke-width:4; stroke-opacity:1; fill:none" points="
  223.103,558.461 242,558.461 
  "/>
<polyline clip-path="url(#clip210)" style="stroke:#000000; stroke-linecap:round; stroke-linejoin:round; stroke-width:4; stroke-opacity:1; fill:none" points="
  223.103,357.007 242,357.007 
  "/>
<polyline clip-path="url(#clip210)" style="stroke:#000000; stroke-linecap:round; stroke-linejoin:round; stroke-width:4; stroke-opacity:1; fill:none" points="
  223.103,155.552 242,155.552 
  "/>
<path clip-path="url(#clip210)" d="M50.9921 1364.73 L80.6679 1364.73 L80.6679 1368.66 L50.9921 1368.66 L50.9921 1364.73 Z" fill="#000000" fill-rule="evenodd" fill-opacity="1" /><path clip-path="url(#clip210)" d="M100.76 1350.08 Q97.1493 1350.08 95.3206 1353.64 Q93.515 1357.18 93.515 1364.31 Q93.515 1371.42 95.3206 1374.98 Q97.1493 1378.52 100.76 1378.52 Q104.395 1378.52 106.2 1374.98 Q108.029 1371.42 108.029 1364.31 Q108.029 1357.18 106.2 1353.64 Q104.395 1350.08 100.76 1350.08 M100.76 1346.37 Q106.571 1346.37 109.626 1350.98 Q112.705 1355.56 112.705 1364.31 Q112.705 1373.04 109.626 1377.65 Q106.571 1382.23 100.76 1382.23 Q94.9502 1382.23 91.8715 1377.65 Q88.816 1373.04 88.816 1364.31 Q88.816 1355.56 91.8715 1350.98 Q94.9502 1346.37 100.76 1346.37 Z" fill="#000000" fill-rule="evenodd" fill-opacity="1" /><path clip-path="url(#clip210)" d="M120.922 1375.68 L125.807 1375.68 L125.807 1381.56 L120.922 1381.56 L120.922 1375.68 Z" fill="#000000" fill-rule="evenodd" fill-opacity="1" /><path clip-path="url(#clip210)" d="M140.019 1377.62 L156.339 1377.62 L156.339 1381.56 L134.394 1381.56 L134.394 1377.62 Q137.056 1374.87 141.64 1370.24 Q146.246 1365.59 147.427 1364.24 Q149.672 1361.72 150.552 1359.98 Q151.455 1358.22 151.455 1356.53 Q151.455 1353.78 149.51 1352.04 Q147.589 1350.31 144.487 1350.31 Q142.288 1350.31 139.834 1351.07 Q137.404 1351.84 134.626 1353.39 L134.626 1348.66 Q137.45 1347.53 139.904 1346.95 Q142.357 1346.37 144.394 1346.37 Q149.765 1346.37 152.959 1349.06 Q156.154 1351.74 156.154 1356.23 Q156.154 1358.36 155.343 1360.28 Q154.556 1362.18 152.45 1364.77 Q151.871 1365.45 148.769 1368.66 Q145.668 1371.86 140.019 1377.62 Z" fill="#000000" fill-rule="evenodd" fill-opacity="1" /><path clip-path="url(#clip210)" d="M166.2 1347 L184.556 1347 L184.556 1350.93 L170.482 1350.93 L170.482 1359.4 Q171.501 1359.06 172.519 1358.9 Q173.538 1358.71 174.556 1358.71 Q180.343 1358.71 183.723 1361.88 Q187.103 1365.05 187.103 1370.47 Q187.103 1376.05 183.63 1379.15 Q180.158 1382.23 173.839 1382.23 Q171.663 1382.23 169.394 1381.86 Q167.149 1381.49 164.742 1380.75 L164.742 1376.05 Q166.825 1377.18 169.047 1377.74 Q171.269 1378.29 173.746 1378.29 Q177.751 1378.29 180.089 1376.19 Q182.427 1374.08 182.427 1370.47 Q182.427 1366.86 180.089 1364.75 Q177.751 1362.65 173.746 1362.65 Q171.871 1362.65 169.996 1363.06 Q168.144 1363.48 166.2 1364.36 L166.2 1347 Z" fill="#000000" fill-rule="evenodd" fill-opacity="1" /><path clip-path="url(#clip210)" d="M99.765 1148.62 Q96.1539 1148.62 94.3252 1152.19 Q92.5197 1155.73 92.5197 1162.86 Q92.5197 1169.96 94.3252 1173.53 Q96.1539 1177.07 99.765 1177.07 Q103.399 1177.07 105.205 1173.53 Q107.033 1169.96 107.033 1162.86 Q107.033 1155.73 105.205 1152.19 Q103.399 1148.62 99.765 1148.62 M99.765 1144.92 Q105.575 1144.92 108.631 1149.52 Q111.709 1154.11 111.709 1162.86 Q111.709 1171.58 108.631 1176.19 Q105.575 1180.77 99.765 1180.77 Q93.9549 1180.77 90.8762 1176.19 Q87.8206 1171.58 87.8206 1162.86 Q87.8206 1154.11 90.8762 1149.52 Q93.9549 1144.92 99.765 1144.92 Z" fill="#000000" fill-rule="evenodd" fill-opacity="1" /><path clip-path="url(#clip210)" d="M119.927 1174.22 L124.811 1174.22 L124.811 1180.1 L119.927 1180.1 L119.927 1174.22 Z" fill="#000000" fill-rule="evenodd" fill-opacity="1" /><path clip-path="url(#clip210)" d="M144.996 1148.62 Q141.385 1148.62 139.556 1152.19 Q137.751 1155.73 137.751 1162.86 Q137.751 1169.96 139.556 1173.53 Q141.385 1177.07 144.996 1177.07 Q148.63 1177.07 150.436 1173.53 Q152.265 1169.96 152.265 1162.86 Q152.265 1155.73 150.436 1152.19 Q148.63 1148.62 144.996 1148.62 M144.996 1144.92 Q150.806 1144.92 153.862 1149.52 Q156.941 1154.11 156.941 1162.86 Q156.941 1171.58 153.862 1176.19 Q150.806 1180.77 144.996 1180.77 Q139.186 1180.77 136.107 1176.19 Q133.052 1171.58 133.052 1162.86 Q133.052 1154.11 136.107 1149.52 Q139.186 1144.92 144.996 1144.92 Z" fill="#000000" fill-rule="evenodd" fill-opacity="1" /><path clip-path="url(#clip210)" d="M175.158 1148.62 Q171.547 1148.62 169.718 1152.19 Q167.913 1155.73 167.913 1162.86 Q167.913 1169.96 169.718 1173.53 Q171.547 1177.07 175.158 1177.07 Q178.792 1177.07 180.598 1173.53 Q182.427 1169.96 182.427 1162.86 Q182.427 1155.73 180.598 1152.19 Q178.792 1148.62 175.158 1148.62 M175.158 1144.92 Q180.968 1144.92 184.024 1149.52 Q187.103 1154.11 187.103 1162.86 Q187.103 1171.58 184.024 1176.19 Q180.968 1180.77 175.158 1180.77 Q169.348 1180.77 166.269 1176.19 Q163.214 1171.58 163.214 1162.86 Q163.214 1154.11 166.269 1149.52 Q169.348 1144.92 175.158 1144.92 Z" fill="#000000" fill-rule="evenodd" fill-opacity="1" /><path clip-path="url(#clip210)" d="M100.76 947.168 Q97.1493 947.168 95.3206 950.733 Q93.515 954.274 93.515 961.404 Q93.515 968.51 95.3206 972.075 Q97.1493 975.617 100.76 975.617 Q104.395 975.617 106.2 972.075 Q108.029 968.51 108.029 961.404 Q108.029 954.274 106.2 950.733 Q104.395 947.168 100.76 947.168 M100.76 943.464 Q106.571 943.464 109.626 948.07 Q112.705 952.654 112.705 961.404 Q112.705 970.131 109.626 974.737 Q106.571 979.32 100.76 979.32 Q94.9502 979.32 91.8715 974.737 Q88.816 970.131 88.816 961.404 Q88.816 952.654 91.8715 948.07 Q94.9502 943.464 100.76 943.464 Z" fill="#000000" fill-rule="evenodd" fill-opacity="1" /><path clip-path="url(#clip210)" d="M120.922 972.769 L125.807 972.769 L125.807 978.649 L120.922 978.649 L120.922 972.769 Z" fill="#000000" fill-rule="evenodd" fill-opacity="1" /><path clip-path="url(#clip210)" d="M140.019 974.714 L156.339 974.714 L156.339 978.649 L134.394 978.649 L134.394 974.714 Q137.056 971.959 141.64 967.33 Q146.246 962.677 147.427 961.334 Q149.672 958.811 150.552 957.075 Q151.455 955.316 151.455 953.626 Q151.455 950.871 149.51 949.135 Q147.589 947.399 144.487 947.399 Q142.288 947.399 139.834 948.163 Q137.404 948.927 134.626 950.478 L134.626 945.756 Q137.45 944.621 139.904 944.043 Q142.357 943.464 144.394 943.464 Q149.765 943.464 152.959 946.149 Q156.154 948.834 156.154 953.325 Q156.154 955.455 155.343 957.376 Q154.556 959.274 152.45 961.867 Q151.871 962.538 148.769 965.756 Q145.668 968.95 140.019 974.714 Z" fill="#000000" fill-rule="evenodd" fill-opacity="1" /><path clip-path="url(#clip210)" d="M166.2 944.089 L184.556 944.089 L184.556 948.024 L170.482 948.024 L170.482 956.496 Q171.501 956.149 172.519 955.987 Q173.538 955.802 174.556 955.802 Q180.343 955.802 183.723 958.973 Q187.103 962.144 187.103 967.561 Q187.103 973.14 183.63 976.242 Q180.158 979.32 173.839 979.32 Q171.663 979.32 169.394 978.95 Q167.149 978.58 164.742 977.839 L164.742 973.14 Q166.825 974.274 169.047 974.83 Q171.269 975.385 173.746 975.385 Q177.751 975.385 180.089 973.279 Q182.427 971.172 182.427 967.561 Q182.427 963.95 180.089 961.844 Q177.751 959.737 173.746 959.737 Q171.871 959.737 169.996 960.154 Q168.144 960.57 166.2 961.45 L166.2 944.089 Z" fill="#000000" fill-rule="evenodd" fill-opacity="1" /><path clip-path="url(#clip210)" d="M99.765 745.714 Q96.1539 745.714 94.3252 749.278 Q92.5197 752.82 92.5197 759.95 Q92.5197 767.056 94.3252 770.621 Q96.1539 774.162 99.765 774.162 Q103.399 774.162 105.205 770.621 Q107.033 767.056 107.033 759.95 Q107.033 752.82 105.205 749.278 Q103.399 745.714 99.765 745.714 M99.765 742.01 Q105.575 742.01 108.631 746.616 Q111.709 751.2 111.709 759.95 Q111.709 768.676 108.631 773.283 Q105.575 777.866 99.765 777.866 Q93.9549 777.866 90.8762 773.283 Q87.8206 768.676 87.8206 759.95 Q87.8206 751.2 90.8762 746.616 Q93.9549 742.01 99.765 742.01 Z" fill="#000000" fill-rule="evenodd" fill-opacity="1" /><path clip-path="url(#clip210)" d="M119.927 771.315 L124.811 771.315 L124.811 777.195 L119.927 777.195 L119.927 771.315 Z" fill="#000000" fill-rule="evenodd" fill-opacity="1" /><path clip-path="url(#clip210)" d="M135.043 742.635 L153.399 742.635 L153.399 746.57 L139.325 746.57 L139.325 755.042 Q140.343 754.695 141.362 754.533 Q142.381 754.348 143.399 754.348 Q149.186 754.348 152.566 757.519 Q155.945 760.69 155.945 766.107 Q155.945 771.686 152.473 774.787 Q149.001 777.866 142.681 777.866 Q140.506 777.866 138.237 777.496 Q135.992 777.125 133.584 776.385 L133.584 771.686 Q135.668 772.82 137.89 773.375 Q140.112 773.931 142.589 773.931 Q146.593 773.931 148.931 771.825 Q151.269 769.718 151.269 766.107 Q151.269 762.496 148.931 760.389 Q146.593 758.283 142.589 758.283 Q140.714 758.283 138.839 758.7 Q136.987 759.116 135.043 759.996 L135.043 742.635 Z" fill="#000000" fill-rule="evenodd" fill-opacity="1" /><path clip-path="url(#clip210)" d="M175.158 745.714 Q171.547 745.714 169.718 749.278 Q167.913 752.82 167.913 759.95 Q167.913 767.056 169.718 770.621 Q171.547 774.162 175.158 774.162 Q178.792 774.162 180.598 770.621 Q182.427 767.056 182.427 759.95 Q182.427 752.82 180.598 749.278 Q178.792 745.714 175.158 745.714 M175.158 742.01 Q180.968 742.01 184.024 746.616 Q187.103 751.2 187.103 759.95 Q187.103 768.676 184.024 773.283 Q180.968 777.866 175.158 777.866 Q169.348 777.866 166.269 773.283 Q163.214 768.676 163.214 759.95 Q163.214 751.2 166.269 746.616 Q169.348 742.01 175.158 742.01 Z" fill="#000000" fill-rule="evenodd" fill-opacity="1" /><path clip-path="url(#clip210)" d="M100.76 544.259 Q97.1493 544.259 95.3206 547.824 Q93.515 551.366 93.515 558.495 Q93.515 565.602 95.3206 569.167 Q97.1493 572.708 100.76 572.708 Q104.395 572.708 106.2 569.167 Q108.029 565.602 108.029 558.495 Q108.029 551.366 106.2 547.824 Q104.395 544.259 100.76 544.259 M100.76 540.556 Q106.571 540.556 109.626 545.162 Q112.705 549.746 112.705 558.495 Q112.705 567.222 109.626 571.829 Q106.571 576.412 100.76 576.412 Q94.9502 576.412 91.8715 571.829 Q88.816 567.222 88.816 558.495 Q88.816 549.746 91.8715 545.162 Q94.9502 540.556 100.76 540.556 Z" fill="#000000" fill-rule="evenodd" fill-opacity="1" /><path clip-path="url(#clip210)" d="M120.922 569.861 L125.807 569.861 L125.807 575.741 L120.922 575.741 L120.922 569.861 Z" fill="#000000" fill-rule="evenodd" fill-opacity="1" /><path clip-path="url(#clip210)" d="M134.811 541.181 L157.033 541.181 L157.033 543.171 L144.487 575.741 L139.603 575.741 L151.408 545.116 L134.811 545.116 L134.811 541.181 Z" fill="#000000" fill-rule="evenodd" fill-opacity="1" /><path clip-path="url(#clip210)" d="M166.2 541.181 L184.556 541.181 L184.556 545.116 L170.482 545.116 L170.482 553.588 Q171.501 553.241 172.519 553.079 Q173.538 552.894 174.556 552.894 Q180.343 552.894 183.723 556.065 Q187.103 559.236 187.103 564.653 Q187.103 570.232 183.63 573.333 Q180.158 576.412 173.839 576.412 Q171.663 576.412 169.394 576.042 Q167.149 575.671 164.742 574.931 L164.742 570.232 Q166.825 571.366 169.047 571.921 Q171.269 572.477 173.746 572.477 Q177.751 572.477 180.089 570.37 Q182.427 568.264 182.427 564.653 Q182.427 561.042 180.089 558.935 Q177.751 556.829 173.746 556.829 Q171.871 556.829 169.996 557.245 Q168.144 557.662 166.2 558.542 L166.2 541.181 Z" fill="#000000" fill-rule="evenodd" fill-opacity="1" /><path clip-path="url(#clip210)" d="M90.5752 370.351 L98.2141 370.351 L98.2141 343.986 L89.904 345.653 L89.904 341.393 L98.1678 339.727 L102.844 339.727 L102.844 370.351 L110.483 370.351 L110.483 374.287 L90.5752 374.287 L90.5752 370.351 Z" fill="#000000" fill-rule="evenodd" fill-opacity="1" /><path clip-path="url(#clip210)" d="M119.927 368.407 L124.811 368.407 L124.811 374.287 L119.927 374.287 L119.927 368.407 Z" fill="#000000" fill-rule="evenodd" fill-opacity="1" /><path clip-path="url(#clip210)" d="M144.996 342.805 Q141.385 342.805 139.556 346.37 Q137.751 349.912 137.751 357.041 Q137.751 364.148 139.556 367.713 Q141.385 371.254 144.996 371.254 Q148.63 371.254 150.436 367.713 Q152.265 364.148 152.265 357.041 Q152.265 349.912 150.436 346.37 Q148.63 342.805 144.996 342.805 M144.996 339.102 Q150.806 339.102 153.862 343.708 Q156.941 348.291 156.941 357.041 Q156.941 365.768 153.862 370.375 Q150.806 374.958 144.996 374.958 Q139.186 374.958 136.107 370.375 Q133.052 365.768 133.052 357.041 Q133.052 348.291 136.107 343.708 Q139.186 339.102 144.996 339.102 Z" fill="#000000" fill-rule="evenodd" fill-opacity="1" /><path clip-path="url(#clip210)" d="M175.158 342.805 Q171.547 342.805 169.718 346.37 Q167.913 349.912 167.913 357.041 Q167.913 364.148 169.718 367.713 Q171.547 371.254 175.158 371.254 Q178.792 371.254 180.598 367.713 Q182.427 364.148 182.427 357.041 Q182.427 349.912 180.598 346.37 Q178.792 342.805 175.158 342.805 M175.158 339.102 Q180.968 339.102 184.024 343.708 Q187.103 348.291 187.103 357.041 Q187.103 365.768 184.024 370.375 Q180.968 374.958 175.158 374.958 Q169.348 374.958 166.269 370.375 Q163.214 365.768 163.214 357.041 Q163.214 348.291 166.269 343.708 Q169.348 339.102 175.158 339.102 Z" fill="#000000" fill-rule="evenodd" fill-opacity="1" /><path clip-path="url(#clip210)" d="M91.5706 168.897 L99.2095 168.897 L99.2095 142.532 L90.8993 144.198 L90.8993 139.939 L99.1632 138.272 L103.839 138.272 L103.839 168.897 L111.478 168.897 L111.478 172.832 L91.5706 172.832 L91.5706 168.897 Z" fill="#000000" fill-rule="evenodd" fill-opacity="1" /><path clip-path="url(#clip210)" d="M120.922 166.953 L125.807 166.953 L125.807 172.832 L120.922 172.832 L120.922 166.953 Z" fill="#000000" fill-rule="evenodd" fill-opacity="1" /><path clip-path="url(#clip210)" d="M140.019 168.897 L156.339 168.897 L156.339 172.832 L134.394 172.832 L134.394 168.897 Q137.056 166.143 141.64 161.513 Q146.246 156.86 147.427 155.518 Q149.672 152.995 150.552 151.259 Q151.455 149.499 151.455 147.809 Q151.455 145.055 149.51 143.319 Q147.589 141.583 144.487 141.583 Q142.288 141.583 139.834 142.347 Q137.404 143.11 134.626 144.661 L134.626 139.939 Q137.45 138.805 139.904 138.226 Q142.357 137.647 144.394 137.647 Q149.765 137.647 152.959 140.333 Q156.154 143.018 156.154 147.509 Q156.154 149.638 155.343 151.559 Q154.556 153.458 152.45 156.05 Q151.871 156.721 148.769 159.939 Q145.668 163.133 140.019 168.897 Z" fill="#000000" fill-rule="evenodd" fill-opacity="1" /><path clip-path="url(#clip210)" d="M166.2 138.272 L184.556 138.272 L184.556 142.208 L170.482 142.208 L170.482 150.68 Q171.501 150.333 172.519 150.171 Q173.538 149.985 174.556 149.985 Q180.343 149.985 183.723 153.157 Q187.103 156.328 187.103 161.745 Q187.103 167.323 183.63 170.425 Q180.158 173.504 173.839 173.504 Q171.663 173.504 169.394 173.133 Q167.149 172.763 164.742 172.022 L164.742 167.323 Q166.825 168.457 169.047 169.013 Q171.269 169.569 173.746 169.569 Q177.751 169.569 180.089 167.462 Q182.427 165.356 182.427 161.745 Q182.427 158.133 180.089 156.027 Q177.751 153.921 173.746 153.921 Q171.871 153.921 169.996 154.337 Q168.144 154.754 166.2 155.633 L166.2 138.272 Z" fill="#000000" fill-rule="evenodd" fill-opacity="1" /><polyline clip-path="url(#clip212)" style="stroke:#009af9; stroke-linecap:round; stroke-linejoin:round; stroke-width:16; stroke-opacity:1; fill:none" stroke-dasharray="8, 16" points="
  283.376,1041.79 293.472,1001.25 303.568,945.621 313.664,950.591 323.76,999.21 333.856,1010.95 343.952,989.761 354.048,1007.02 364.144,1041.39 374.24,1063.45 
  384.336,1081.34 394.432,1102.97 404.528,1139.63 414.624,1194.95 424.72,1248.25 434.816,1273.26 444.912,1264.96 455.008,1248.07 465.104,1267.39 475.2,1317.11 
  485.296,1330.39 495.392,1281.31 505.488,1212.68 515.584,1199.2 525.68,1267.92 535.776,1344.99 545.872,1357.59 555.968,1307.26 566.064,1235.91 576.16,1180.89 
  586.256,1152.2 596.352,1134.78 606.448,1110.22 616.544,1074.21 626.64,1037.31 636.736,1011.79 646.832,1004.7 656.928,1030.48 667.024,1082.49 677.12,1094.21 
  687.216,1042.61 697.312,999.042 707.408,992.953 717.504,1010.06 727.6,1052.73 737.696,1099.99 747.792,1122.72 757.888,1136.2 767.984,1169.07 778.08,1212.24 
  788.176,1243.25 798.272,1260.53 808.369,1277.36 818.465,1301.69 828.561,1325.08 838.657,1332.41 848.753,1325.27 858.849,1322.94 868.945,1332.22 879.041,1341.53 
  889.137,1334.53 899.233,1255.75 909.329,1097.9 919.425,1007.88 929.521,1057.35 939.617,1158.54 949.713,1218.76 959.809,1200.74 969.905,1127.58 980.001,1052.74 
  990.097,1011.05 1000.19,999.568 1010.29,997.326 1020.38,1000.61 1030.48,1027.81 1040.58,1072.69 1050.67,1082.05 1060.77,1043.43 1070.86,1016 1080.96,1026.57 
  1091.06,1065.43 1101.15,1122.73 1111.25,1179.13 1121.34,1213.09 1131.44,1229.42 1141.54,1243.82 1151.63,1276.46 1161.73,1335.8 1171.83,1367.24 1181.92,1339.1 
  1192.02,1273.85 1202.11,1220.48 1212.21,1216.63 1222.31,1271.27 1232.4,1363.89 1242.5,1445.72 1252.59,1444.83 1262.69,1314.54 1272.79,1101.22 1282.88,794.77 
  1292.98,482.675 1303.07,396.956 1313.17,302.141 1323.27,217.142 1333.36,234.371 1343.46,317.717 1353.55,404.106 1363.65,452.84 1373.75,443.733 1383.84,384.401 
  1393.94,320.541 1404.03,303.629 1414.13,330.073 1424.23,351.474 1434.32,353.141 1444.42,376.761 1454.51,406.901 1464.61,410.108 1474.71,389.875 1484.8,353.389 
  1494.9,318.073 1504.99,305.104 1515.09,308.957 1525.19,317.817 1535.28,340.676 1545.38,364.678 1555.47,368.733 1565.57,368.773 1575.67,391.275 1585.76,417.669 
  1595.86,405.842 1605.95,345.941 1616.05,268.282 1626.15,227.818 1636.24,271.821 1646.34,394.354 1656.43,507.725 1666.53,498.704 1676.63,409.247 1686.72,379.58 
  1696.82,403.346 1706.91,416.308 1717.01,403.361 1727.11,361.565 1737.2,302.142 1747.3,255.242 1757.39,243.748 1767.49,267.969 1777.59,315.46 1787.68,375.301 
  1797.78,435.904 1807.87,474.192 1817.97,465.139 1828.07,417.624 1838.16,376.589 1848.26,357.468 1858.35,330.892 1868.45,289.211 1878.55,249.425 1888.64,214.311 
  1898.74,225.762 1908.83,331.381 1918.93,461.275 1929.03,518.721 1939.12,500.753 1949.22,438.631 1959.31,357.615 1969.41,286.586 1979.51,244.958 1989.6,232.993 
  1999.7,238.996 2009.79,252.531 2019.89,279.298 2029.99,345.259 2040.08,461.567 2050.18,574.665 2060.27,598.547 2070.37,499.467 2080.47,342.905 2090.56,226.402 
  2100.66,198.075 2110.75,229.235 2120.85,261.218 2130.95,294.166 2141.04,359.611 2151.14,453.922 2161.23,536.211 2171.33,560.993 2181.43,518.404 2191.52,427.751 
  2201.62,303.894 2211.71,168.048 2221.81,87.9763 2231.91,115.269 2242,208.207 2252.1,358.591 2262.19,537.203 2272.29,632.848 2282.39,611.614 2292.48,557.488 
  
  "/>
<polyline clip-path="url(#clip212)" style="stroke:#e26f46; stroke-linecap:round; stroke-linejoin:round; stroke-width:4; stroke-opacity:1; fill:none" points="
  283.376,1041.79 293.472,1024.62 303.568,1011.96 313.664,1004.22 323.76,1001.66 333.856,1004.36 343.952,1012.23 354.048,1025.02 364.144,1042.3 374.24,1063.52 
  384.336,1087.97 394.432,1114.87 404.528,1143.34 414.624,1172.44 424.72,1201.23 434.816,1228.76 444.912,1254.15 455.008,1276.55 465.104,1295.24 475.2,1309.61 
  485.296,1319.18 495.392,1323.66 505.488,1322.88 515.584,1316.88 525.68,1305.86 535.776,1290.16 545.872,1270.31 555.968,1246.95 566.064,1220.85 576.16,1192.85 
  586.256,1163.87 596.352,1134.86 606.448,1106.76 616.544,1080.49 626.64,1056.9 636.736,1036.78 646.832,1020.76 656.928,1009.39 667.024,1003.02 677.12,1001.87 
  687.216,1005.97 697.312,1015.19 707.408,1029.23 717.504,1047.62 727.6,1069.78 737.696,1094.98 747.792,1122.39 757.888,1151.12 767.984,1180.23 778.08,1208.77 
  788.176,1235.81 798.272,1260.47 808.369,1281.95 818.465,1299.53 828.561,1312.66 838.657,1320.89 848.753,1323.97 858.849,1321.78 868.945,1314.41 879.041,1302.09 
  889.137,1285.23 899.233,1264.37 909.329,1240.19 919.425,1213.49 929.521,1185.14 939.617,1156.06 949.713,1127.2 959.809,1099.5 969.905,1073.87 980.001,1051.14 
  990.097,1032.06 1000.19,1017.24 1010.29,1007.18 1020.38,1002.2 1030.48,1002.45 1040.58,1007.95 1050.67,1018.49 1060.77,1033.75 1070.86,1053.22 1080.96,1076.27 
  1091.06,1102.14 1101.15,1129.99 1111.25,1158.92 1121.34,1187.97 1131.44,1216.2 1141.54,1242.69 1151.63,1266.57 1161.73,1287.07 1171.83,1303.51 1181.92,1315.36 
  1192.02,1322.23 1202.11,1323.9 1212.21,1320.31 1222.31,1311.58 1232.4,1298 1242.5,1280 1252.59,1258.18 1262.69,1233.25 1272.79,1206.02 1282.88,1177.38 
  1292.98,355.836 1303.07,354.505 1313.17,355.717 1323.27,359.752 1333.36,365.373 1343.46,370.206 1353.55,371.637 1363.65,367.918 1373.75,359.054 1383.84,347.105 
  1393.94,335.734 1404.03,329.091 1414.13,330.365 1424.23,340.5 1434.32,357.548 1444.42,376.949 1454.51,392.748 1464.61,399.412 1474.71,393.708 1484.8,376.007 
  1494.9,350.547 1504.99,324.455 1515.09,305.755 1525.19,300.911 1535.28,312.654 1545.38,338.818 1555.47,372.607 1565.57,404.348 1575.67,424.255 1585.76,425.434 
  1595.86,406.202 1605.95,370.955 1616.05,329.232 1626.15,293.142 1636.24,273.849 1646.34,278.139 1656.43,306.109 1666.53,350.762 1676.63,399.713 1686.72,438.623 
  1696.82,455.399 1706.91,443.927 1717.01,406.204 1727.11,352.136 1737.2,296.962 1747.3,256.955 1757.39,244.634 1767.49,264.866 1777.59,313.088 1787.68,376.26 
  1797.78,436.376 1807.87,475.597 1817.97,481.538 1828.07,451.148 1838.16,391.973 1848.26,320.329 1858.35,256.811 1868.45,220.371 1878.55,222.674 1888.64,264.402 
  1898.74,334.67 1908.83,413.837 1918.93,478.993 1929.03,510.587 1939.12,498.284 1949.22,444.295 1959.31,363.123 1969.41,277.685 1979.51,212.846 1989.6,188.182 
  1999.7,212.083 2009.79,278.97 2019.89,370.526 2029.99,460.698 2040.08,523.115 2050.18,538.793 2060.27,501.893 2070.37,421.784 2080.47,320.703 2090.56,227.591 
  2100.66,169.808 2110.75,165.094 2120.85,216.15 2130.95,309.471 2141.04,418.892 2151.14,512.922 2161.23,563.803 2171.33,555.702 2181.43,489.608 2191.52,383.431 
  2201.62,267.17 2211.71,174.435 2221.81,132.736 2231.91,155.326 2242,237.03 2252.1,355.352 2262.19,476.659 2272.29,565.739 2282.39,596.02 2292.48,557.488 
  
  "/>
<path clip-path="url(#clip210)" d="
M294.091 250.738 L757.547 250.738 L757.547 95.2176 L294.091 95.2176  Z
  " fill="#ffffff" fill-rule="evenodd" fill-opacity="1"/>
<polyline clip-path="url(#clip210)" style="stroke:#000000; stroke-linecap:round; stroke-linejoin:round; stroke-width:4; stroke-opacity:1; fill:none" points="
  294.091,250.738 757.547,250.738 757.547,95.2176 294.091,95.2176 294.091,250.738 
  "/>
<polyline clip-path="url(#clip210)" style="stroke:#009af9; stroke-linecap:round; stroke-linejoin:round; stroke-width:4; stroke-opacity:1; fill:none" stroke-dasharray="2, 4" points="
  317.754,147.058 459.731,147.058 
  "/>
<path clip-path="url(#clip210)" d="M488.069 133.62 L488.069 146.606 L493.949 146.606 Q497.213 146.606 498.995 144.916 Q500.778 143.227 500.778 140.102 Q500.778 137 498.995 135.31 Q497.213 133.62 493.949 133.62 L488.069 133.62 M483.393 129.778 L493.949 129.778 Q499.759 129.778 502.722 132.416 Q505.708 135.032 505.708 140.102 Q505.708 145.217 502.722 147.833 Q499.759 150.449 493.949 150.449 L488.069 150.449 L488.069 164.338 L483.393 164.338 L483.393 129.778 Z" fill="#000000" fill-rule="evenodd" fill-opacity="1" /><path clip-path="url(#clip210)" d="M525.986 142.393 Q525.268 141.977 524.412 141.791 Q523.578 141.583 522.56 141.583 Q518.949 141.583 517.004 143.944 Q515.083 146.282 515.083 150.68 L515.083 164.338 L510.801 164.338 L510.801 138.412 L515.083 138.412 L515.083 142.44 Q516.426 140.078 518.578 138.944 Q520.731 137.787 523.81 137.787 Q524.25 137.787 524.782 137.856 Q525.315 137.903 525.963 138.018 L525.986 142.393 Z" fill="#000000" fill-rule="evenodd" fill-opacity="1" /><path clip-path="url(#clip210)" d="M551.588 150.31 L551.588 152.393 L532.004 152.393 Q532.282 156.791 534.643 159.106 Q537.027 161.398 541.264 161.398 Q543.717 161.398 546.009 160.796 Q548.324 160.194 550.592 158.99 L550.592 163.018 Q548.301 163.99 545.893 164.5 Q543.486 165.009 541.009 165.009 Q534.805 165.009 531.171 161.398 Q527.56 157.787 527.56 151.629 Q527.56 145.264 530.986 141.537 Q534.435 137.787 540.268 137.787 Q545.5 137.787 548.532 141.166 Q551.588 144.523 551.588 150.31 M547.328 149.06 Q547.282 145.565 545.361 143.481 Q543.463 141.398 540.314 141.398 Q536.75 141.398 534.597 143.412 Q532.467 145.426 532.143 149.083 L547.328 149.06 Z" fill="#000000" fill-rule="evenodd" fill-opacity="1" /><path clip-path="url(#clip210)" d="M575.638 142.347 L575.638 128.319 L579.898 128.319 L579.898 164.338 L575.638 164.338 L575.638 160.449 Q574.296 162.763 572.236 163.898 Q570.199 165.009 567.328 165.009 Q562.629 165.009 559.666 161.259 Q556.726 157.509 556.726 151.398 Q556.726 145.287 559.666 141.537 Q562.629 137.787 567.328 137.787 Q570.199 137.787 572.236 138.921 Q574.296 140.032 575.638 142.347 M561.125 151.398 Q561.125 156.097 563.046 158.782 Q564.99 161.444 568.37 161.444 Q571.749 161.444 573.694 158.782 Q575.638 156.097 575.638 151.398 Q575.638 146.699 573.694 144.037 Q571.749 141.352 568.37 141.352 Q564.99 141.352 563.046 144.037 Q561.125 146.699 561.125 151.398 Z" fill="#000000" fill-rule="evenodd" fill-opacity="1" /><path clip-path="url(#clip210)" d="M588.671 138.412 L592.93 138.412 L592.93 164.338 L588.671 164.338 L588.671 138.412 M588.671 128.319 L592.93 128.319 L592.93 133.713 L588.671 133.713 L588.671 128.319 Z" fill="#000000" fill-rule="evenodd" fill-opacity="1" /><path clip-path="url(#clip210)" d="M620.499 139.407 L620.499 143.389 Q618.694 142.393 616.865 141.907 Q615.059 141.398 613.208 141.398 Q609.064 141.398 606.772 144.037 Q604.481 146.652 604.481 151.398 Q604.481 156.143 606.772 158.782 Q609.064 161.398 613.208 161.398 Q615.059 161.398 616.865 160.912 Q618.694 160.402 620.499 159.407 L620.499 163.342 Q618.717 164.176 616.796 164.592 Q614.897 165.009 612.745 165.009 Q606.888 165.009 603.439 161.328 Q599.99 157.648 599.99 151.398 Q599.99 145.055 603.462 141.421 Q606.958 137.787 613.022 137.787 Q614.99 137.787 616.865 138.203 Q618.74 138.597 620.499 139.407 Z" fill="#000000" fill-rule="evenodd" fill-opacity="1" /><path clip-path="url(#clip210)" d="M632.12 131.051 L632.12 138.412 L640.893 138.412 L640.893 141.722 L632.12 141.722 L632.12 155.796 Q632.12 158.967 632.976 159.87 Q633.856 160.773 636.518 160.773 L640.893 160.773 L640.893 164.338 L636.518 164.338 Q631.587 164.338 629.712 162.509 Q627.837 160.657 627.837 155.796 L627.837 141.722 L624.712 141.722 L624.712 138.412 L627.837 138.412 L627.837 131.051 L632.12 131.051 Z" fill="#000000" fill-rule="evenodd" fill-opacity="1" /><path clip-path="url(#clip210)" d="M646.494 138.412 L650.754 138.412 L650.754 164.338 L646.494 164.338 L646.494 138.412 M646.494 128.319 L650.754 128.319 L650.754 133.713 L646.494 133.713 L646.494 128.319 Z" fill="#000000" fill-rule="evenodd" fill-opacity="1" /><path clip-path="url(#clip210)" d="M669.712 141.398 Q666.286 141.398 664.295 144.083 Q662.305 146.745 662.305 151.398 Q662.305 156.051 664.272 158.736 Q666.263 161.398 669.712 161.398 Q673.115 161.398 675.105 158.713 Q677.096 156.027 677.096 151.398 Q677.096 146.791 675.105 144.106 Q673.115 141.398 669.712 141.398 M669.712 137.787 Q675.267 137.787 678.439 141.398 Q681.61 145.009 681.61 151.398 Q681.61 157.764 678.439 161.398 Q675.267 165.009 669.712 165.009 Q664.133 165.009 660.962 161.398 Q657.814 157.764 657.814 151.398 Q657.814 145.009 660.962 141.398 Q664.133 137.787 669.712 137.787 Z" fill="#000000" fill-rule="evenodd" fill-opacity="1" /><path clip-path="url(#clip210)" d="M710.221 148.689 L710.221 164.338 L705.962 164.338 L705.962 148.828 Q705.962 145.148 704.527 143.319 Q703.091 141.49 700.221 141.49 Q696.772 141.49 694.781 143.69 Q692.791 145.889 692.791 149.685 L692.791 164.338 L688.508 164.338 L688.508 138.412 L692.791 138.412 L692.791 142.44 Q694.318 140.102 696.378 138.944 Q698.462 137.787 701.17 137.787 Q705.638 137.787 707.929 140.565 Q710.221 143.319 710.221 148.689 Z" fill="#000000" fill-rule="evenodd" fill-opacity="1" /><polyline clip-path="url(#clip210)" style="stroke:#e26f46; stroke-linecap:round; stroke-linejoin:round; stroke-width:4; stroke-opacity:1; fill:none" points="
  317.754,198.898 459.731,198.898 
  "/>
<path clip-path="url(#clip210)" d="M483.393 181.618 L505.245 181.618 L505.245 185.553 L488.069 185.553 L488.069 195.784 L504.528 195.784 L504.528 199.719 L488.069 199.719 L488.069 212.242 L505.662 212.242 L505.662 216.178 L483.393 216.178 L483.393 181.618 Z" fill="#000000" fill-rule="evenodd" fill-opacity="1" /><path clip-path="url(#clip210)" d="M534.713 190.252 L525.338 202.867 L535.199 216.178 L530.176 216.178 L522.629 205.992 L515.083 216.178 L510.06 216.178 L520.129 202.613 L510.916 190.252 L515.94 190.252 L522.815 199.488 L529.69 190.252 L534.713 190.252 Z" fill="#000000" fill-rule="evenodd" fill-opacity="1" /><path clip-path="url(#clip210)" d="M553 203.145 Q547.838 203.145 545.847 204.326 Q543.856 205.506 543.856 208.354 Q543.856 210.622 545.338 211.965 Q546.842 213.284 549.412 213.284 Q552.953 213.284 555.083 210.784 Q557.236 208.261 557.236 204.094 L557.236 203.145 L553 203.145 M561.495 201.386 L561.495 216.178 L557.236 216.178 L557.236 212.242 Q555.777 214.603 553.601 215.738 Q551.426 216.849 548.277 216.849 Q544.296 216.849 541.935 214.627 Q539.597 212.381 539.597 208.631 Q539.597 204.256 542.514 202.034 Q545.453 199.812 551.263 199.812 L557.236 199.812 L557.236 199.395 Q557.236 196.455 555.291 194.858 Q553.37 193.238 549.875 193.238 Q547.652 193.238 545.546 193.77 Q543.439 194.303 541.495 195.367 L541.495 191.432 Q543.833 190.53 546.032 190.09 Q548.231 189.627 550.314 189.627 Q555.939 189.627 558.717 192.543 Q561.495 195.46 561.495 201.386 Z" fill="#000000" fill-rule="evenodd" fill-opacity="1" /><path clip-path="url(#clip210)" d="M588.925 191.247 L588.925 195.229 Q587.12 194.233 585.291 193.747 Q583.486 193.238 581.634 193.238 Q577.49 193.238 575.199 195.877 Q572.907 198.492 572.907 203.238 Q572.907 207.983 575.199 210.622 Q577.49 213.238 581.634 213.238 Q583.486 213.238 585.291 212.752 Q587.12 212.242 588.925 211.247 L588.925 215.182 Q587.143 216.016 585.222 216.432 Q583.323 216.849 581.171 216.849 Q575.314 216.849 571.865 213.168 Q568.416 209.488 568.416 203.238 Q568.416 196.895 571.888 193.261 Q575.384 189.627 581.449 189.627 Q583.416 189.627 585.291 190.043 Q587.166 190.437 588.925 191.247 Z" fill="#000000" fill-rule="evenodd" fill-opacity="1" /><path clip-path="url(#clip210)" d="M600.546 182.891 L600.546 190.252 L609.319 190.252 L609.319 193.562 L600.546 193.562 L600.546 207.636 Q600.546 210.807 601.402 211.71 Q602.282 212.613 604.944 212.613 L609.319 212.613 L609.319 216.178 L604.944 216.178 Q600.013 216.178 598.138 214.349 Q596.263 212.497 596.263 207.636 L596.263 193.562 L593.138 193.562 L593.138 190.252 L596.263 190.252 L596.263 182.891 L600.546 182.891 Z" fill="#000000" fill-rule="evenodd" fill-opacity="1" /></svg>
