<?xml version="1.0" encoding="utf-8"?>
<svg xmlns="http://www.w3.org/2000/svg" xmlns:xlink="http://www.w3.org/1999/xlink" width="600" height="400" viewBox="0 0 2400 1600">
<defs>
  <clipPath id="clip300">
    <rect x="0" y="0" width="2400" height="1600"/>
  </clipPath>
</defs>
<path clip-path="url(#clip300)" d="
M0 1600 L2400 1600 L2400 0 L0 0  Z
  " fill="#ffffff" fill-rule="evenodd" fill-opacity="1"/>
<defs>
  <clipPath id="clip301">
    <rect x="480" y="0" width="1681" height="1600"/>
  </clipPath>
</defs>
<path clip-path="url(#clip300)" d="
M156.274 1486.45 L2352.76 1486.45 L2352.76 47.2441 L156.274 47.2441  Z
  " fill="#ffffff" fill-rule="evenodd" fill-opacity="1"/>
<defs>
  <clipPath id="clip302">
    <rect x="156" y="47" width="2197" height="1440"/>
  </clipPath>
</defs>
<polyline clip-path="url(#clip302)" style="stroke:#000000; stroke-linecap:round; stroke-linejoin:round; stroke-width:2; stroke-opacity:0.1; fill:none" points="
  218.439,1486.45 218.439,47.2441 
  "/>
<polyline clip-path="url(#clip302)" style="stroke:#000000; stroke-linecap:round; stroke-linejoin:round; stroke-width:2; stroke-opacity:0.1; fill:none" points="
  736.477,1486.45 736.477,47.2441 
  "/>
<polyline clip-path="url(#clip302)" style="stroke:#000000; stroke-linecap:round; stroke-linejoin:round; stroke-width:2; stroke-opacity:0.1; fill:none" points="
  1254.52,1486.45 1254.52,47.2441 
  "/>
<polyline clip-path="url(#clip302)" style="stroke:#000000; stroke-linecap:round; stroke-linejoin:round; stroke-width:2; stroke-opacity:0.1; fill:none" points="
  1772.55,1486.45 1772.55,47.2441 
  "/>
<polyline clip-path="url(#clip302)" style="stroke:#000000; stroke-linecap:round; stroke-linejoin:round; stroke-width:2; stroke-opacity:0.1; fill:none" points="
  2290.59,1486.45 2290.59,47.2441 
  "/>
<polyline clip-path="url(#clip300)" style="stroke:#000000; stroke-linecap:round; stroke-linejoin:round; stroke-width:4; stroke-opacity:1; fill:none" points="
  156.274,1486.45 2352.76,1486.45 
  "/>
<polyline clip-path="url(#clip300)" style="stroke:#000000; stroke-linecap:round; stroke-linejoin:round; stroke-width:4; stroke-opacity:1; fill:none" points="
  218.439,1486.45 218.439,1467.55 
  "/>
<polyline clip-path="url(#clip300)" style="stroke:#000000; stroke-linecap:round; stroke-linejoin:round; stroke-width:4; stroke-opacity:1; fill:none" points="
  736.477,1486.45 736.477,1467.55 
  "/>
<polyline clip-path="url(#clip300)" style="stroke:#000000; stroke-linecap:round; stroke-linejoin:round; stroke-width:4; stroke-opacity:1; fill:none" points="
  1254.52,1486.45 1254.52,1467.55 
  "/>
<polyline clip-path="url(#clip300)" style="stroke:#000000; stroke-linecap:round; stroke-linejoin:round; stroke-width:4; stroke-opacity:1; fill:none" points="
  1772.55,1486.45 1772.55,1467.55 
  "/>
<polyline clip-path="url(#clip300)" style="stroke:#000000; stroke-linecap:round; stroke-linejoin:round; stroke-width:4; stroke-opacity:1; fill:none" points="
  2290.59,1486.45 2290.59,1467.55 
  "/>
<path clip-path="url(#clip300)" d="M164.967 1532.02 L194.643 1532.02 L194.643 1535.95 L164.967 1535.95 L164.967 1532.02 Z" fill="#000000" fill-rule="evenodd" fill-opacity="1" /><path clip-path="url(#clip300)" d="M205.545 1544.91 L213.184 1544.91 L213.184 1518.55 L204.874 1520.21 L204.874 1515.95 L213.138 1514.29 L217.814 1514.29 L217.814 1544.91 L225.453 1544.91 L225.453 1548.85 L205.545 1548.85 L205.545 1544.91 Z" fill="#000000" fill-rule="evenodd" fill-opacity="1" /><path clip-path="url(#clip300)" d="M234.897 1542.97 L239.781 1542.97 L239.781 1548.85 L234.897 1548.85 L234.897 1542.97 Z" fill="#000000" fill-rule="evenodd" fill-opacity="1" /><path clip-path="url(#clip300)" d="M259.966 1517.37 Q256.355 1517.37 254.527 1520.93 Q252.721 1524.47 252.721 1531.6 Q252.721 1538.71 254.527 1542.27 Q256.355 1545.82 259.966 1545.82 Q263.601 1545.82 265.406 1542.27 Q267.235 1538.71 267.235 1531.6 Q267.235 1524.47 265.406 1520.93 Q263.601 1517.37 259.966 1517.37 M259.966 1513.66 Q265.776 1513.66 268.832 1518.27 Q271.911 1522.85 271.911 1531.6 Q271.911 1540.33 268.832 1544.94 Q265.776 1549.52 259.966 1549.52 Q254.156 1549.52 251.077 1544.94 Q248.022 1540.33 248.022 1531.6 Q248.022 1522.85 251.077 1518.27 Q254.156 1513.66 259.966 1513.66 Z" fill="#000000" fill-rule="evenodd" fill-opacity="1" /><path clip-path="url(#clip300)" d="M683.503 1532.02 L713.178 1532.02 L713.178 1535.95 L683.503 1535.95 L683.503 1532.02 Z" fill="#000000" fill-rule="evenodd" fill-opacity="1" /><path clip-path="url(#clip300)" d="M733.271 1517.37 Q729.66 1517.37 727.831 1520.93 Q726.026 1524.47 726.026 1531.6 Q726.026 1538.71 727.831 1542.27 Q729.66 1545.82 733.271 1545.82 Q736.905 1545.82 738.711 1542.27 Q740.539 1538.71 740.539 1531.6 Q740.539 1524.47 738.711 1520.93 Q736.905 1517.37 733.271 1517.37 M733.271 1513.66 Q739.081 1513.66 742.137 1518.27 Q745.215 1522.85 745.215 1531.6 Q745.215 1540.33 742.137 1544.94 Q739.081 1549.52 733.271 1549.52 Q727.461 1549.52 724.382 1544.94 Q721.327 1540.33 721.327 1531.6 Q721.327 1522.85 724.382 1518.27 Q727.461 1513.66 733.271 1513.66 Z" fill="#000000" fill-rule="evenodd" fill-opacity="1" /><path clip-path="url(#clip300)" d="M753.433 1542.97 L758.317 1542.97 L758.317 1548.85 L753.433 1548.85 L753.433 1542.97 Z" fill="#000000" fill-rule="evenodd" fill-opacity="1" /><path clip-path="url(#clip300)" d="M768.548 1514.29 L786.905 1514.29 L786.905 1518.22 L772.831 1518.22 L772.831 1526.7 Q773.849 1526.35 774.868 1526.19 Q775.886 1526 776.905 1526 Q782.692 1526 786.072 1529.17 Q789.451 1532.34 789.451 1537.76 Q789.451 1543.34 785.979 1546.44 Q782.507 1549.52 776.187 1549.52 Q774.011 1549.52 771.743 1549.15 Q769.498 1548.78 767.09 1548.04 L767.09 1543.34 Q769.173 1544.47 771.396 1545.03 Q773.618 1545.58 776.095 1545.58 Q780.099 1545.58 782.437 1543.48 Q784.775 1541.37 784.775 1537.76 Q784.775 1534.15 782.437 1532.04 Q780.099 1529.94 776.095 1529.94 Q774.22 1529.94 772.345 1530.35 Q770.493 1530.77 768.548 1531.65 L768.548 1514.29 Z" fill="#000000" fill-rule="evenodd" fill-opacity="1" /><path clip-path="url(#clip300)" d="M1231.9 1517.37 Q1228.29 1517.37 1226.46 1520.93 Q1224.65 1524.47 1224.65 1531.6 Q1224.65 1538.71 1226.46 1542.27 Q1228.29 1545.82 1231.9 1545.82 Q1235.53 1545.82 1237.34 1542.27 Q1239.17 1538.71 1239.17 1531.6 Q1239.17 1524.47 1237.34 1520.93 Q1235.53 1517.37 1231.9 1517.37 M1231.9 1513.66 Q1237.71 1513.66 1240.77 1518.27 Q1243.84 1522.85 1243.84 1531.6 Q1243.84 1540.33 1240.77 1544.94 Q1237.71 1549.52 1231.9 1549.52 Q1226.09 1549.52 1223.01 1544.94 Q1219.96 1540.33 1219.96 1531.6 Q1219.96 1522.85 1223.01 1518.27 Q1226.09 1513.66 1231.9 1513.66 Z" fill="#000000" fill-rule="evenodd" fill-opacity="1" /><path clip-path="url(#clip300)" d="M1252.06 1542.97 L1256.95 1542.97 L1256.95 1548.85 L1252.06 1548.85 L1252.06 1542.97 Z" fill="#000000" fill-rule="evenodd" fill-opacity="1" /><path clip-path="url(#clip300)" d="M1277.13 1517.37 Q1273.52 1517.37 1271.69 1520.93 Q1269.89 1524.47 1269.89 1531.6 Q1269.89 1538.71 1271.69 1542.27 Q1273.52 1545.82 1277.13 1545.82 Q1280.76 1545.82 1282.57 1542.27 Q1284.4 1538.71 1284.4 1531.6 Q1284.4 1524.47 1282.57 1520.93 Q1280.76 1517.37 1277.13 1517.37 M1277.13 1513.66 Q1282.94 1513.66 1286 1518.27 Q1289.08 1522.85 1289.08 1531.6 Q1289.08 1540.33 1286 1544.94 Q1282.94 1549.52 1277.13 1549.52 Q1271.32 1549.52 1268.24 1544.94 Q1265.19 1540.33 1265.19 1531.6 Q1265.19 1522.85 1268.24 1518.27 Q1271.32 1513.66 1277.13 1513.66 Z" fill="#000000" fill-rule="evenodd" fill-opacity="1" /><path clip-path="url(#clip300)" d="M1750.44 1517.37 Q1746.82 1517.37 1745 1520.93 Q1743.19 1524.47 1743.19 1531.6 Q1743.19 1538.71 1745 1542.27 Q1746.82 1545.82 1750.44 1545.82 Q1754.07 1545.82 1755.88 1542.27 Q1757.7 1538.71 1757.7 1531.6 Q1757.7 1524.47 1755.88 1520.93 Q1754.07 1517.37 1750.44 1517.37 M1750.44 1513.66 Q1756.25 1513.66 1759.3 1518.27 Q1762.38 1522.85 1762.38 1531.6 Q1762.38 1540.33 1759.3 1544.94 Q1756.25 1549.52 1750.44 1549.52 Q1744.63 1549.52 1741.55 1544.94 Q1738.49 1540.33 1738.49 1531.6 Q1738.49 1522.85 1741.55 1518.27 Q1744.63 1513.66 1750.44 1513.66 Z" fill="#000000" fill-rule="evenodd" fill-opacity="1" /><path clip-path="url(#clip300)" d="M1770.6 1542.97 L1775.48 1542.97 L1775.48 1548.85 L1770.6 1548.85 L1770.6 1542.97 Z" fill="#000000" fill-rule="evenodd" fill-opacity="1" /><path clip-path="url(#clip300)" d="M1785.71 1514.29 L1804.07 1514.29 L1804.07 1518.22 L1790 1518.22 L1790 1526.7 Q1791.01 1526.35 1792.03 1526.19 Q1793.05 1526 1794.07 1526 Q1799.86 1526 1803.24 1529.17 Q1806.62 1532.34 1806.62 1537.76 Q1806.62 1543.34 1803.14 1546.44 Q1799.67 1549.52 1793.35 1549.52 Q1791.18 1549.52 1788.91 1549.15 Q1786.66 1548.78 1784.25 1548.04 L1784.25 1543.34 Q1786.34 1544.47 1788.56 1545.03 Q1790.78 1545.58 1793.26 1545.58 Q1797.26 1545.58 1799.6 1543.48 Q1801.94 1541.37 1801.94 1537.76 Q1801.94 1534.15 1799.6 1532.04 Q1797.26 1529.94 1793.26 1529.94 Q1791.38 1529.94 1789.51 1530.35 Q1787.66 1530.77 1785.71 1531.65 L1785.71 1514.29 Z" fill="#000000" fill-rule="evenodd" fill-opacity="1" /><path clip-path="url(#clip300)" d="M2257.74 1544.91 L2265.38 1544.91 L2265.38 1518.55 L2257.07 1520.21 L2257.07 1515.95 L2265.34 1514.29 L2270.01 1514.29 L2270.01 1544.91 L2277.65 1544.91 L2277.65 1548.85 L2257.74 1548.85 L2257.74 1544.91 Z" fill="#000000" fill-rule="evenodd" fill-opacity="1" /><path clip-path="url(#clip300)" d="M2287.1 1542.97 L2291.98 1542.97 L2291.98 1548.85 L2287.1 1548.85 L2287.1 1542.97 Z" fill="#000000" fill-rule="evenodd" fill-opacity="1" /><path clip-path="url(#clip300)" d="M2312.17 1517.37 Q2308.55 1517.37 2306.73 1520.93 Q2304.92 1524.47 2304.92 1531.6 Q2304.92 1538.71 2306.73 1542.27 Q2308.55 1545.82 2312.17 1545.82 Q2315.8 1545.82 2317.61 1542.27 Q2319.43 1538.71 2319.43 1531.6 Q2319.43 1524.47 2317.61 1520.93 Q2315.8 1517.37 2312.17 1517.37 M2312.17 1513.66 Q2317.98 1513.66 2321.03 1518.27 Q2324.11 1522.85 2324.11 1531.6 Q2324.11 1540.33 2321.03 1544.94 Q2317.98 1549.52 2312.17 1549.52 Q2306.36 1549.52 2303.28 1544.94 Q2300.22 1540.33 2300.22 1531.6 Q2300.22 1522.85 2303.28 1518.27 Q2306.36 1513.66 2312.17 1513.66 Z" fill="#000000" fill-rule="evenodd" fill-opacity="1" /><polyline clip-path="url(#clip302)" style="stroke:#000000; stroke-linecap:round; stroke-linejoin:round; stroke-width:2; stroke-opacity:0.1; fill:none" points="
  156.274,1228.82 2352.76,1228.82 
  "/>
<polyline clip-path="url(#clip302)" style="stroke:#000000; stroke-linecap:round; stroke-linejoin:round; stroke-width:2; stroke-opacity:0.1; fill:none" points="
  156.274,961.083 2352.76,961.083 
  "/>
<polyline clip-path="url(#clip302)" style="stroke:#000000; stroke-linecap:round; stroke-linejoin:round; stroke-width:2; stroke-opacity:0.1; fill:none" points="
  156.274,693.345 2352.76,693.345 
  "/>
<polyline clip-path="url(#clip302)" style="stroke:#000000; stroke-linecap:round; stroke-linejoin:round; stroke-width:2; stroke-opacity:0.1; fill:none" points="
  156.274,425.607 2352.76,425.607 
  "/>
<polyline clip-path="url(#clip302)" style="stroke:#000000; stroke-linecap:round; stroke-linejoin:round; stroke-width:2; stroke-opacity:0.1; fill:none" points="
  156.274,157.869 2352.76,157.869 
  "/>
<polyline clip-path="url(#clip300)" style="stroke:#000000; stroke-linecap:round; stroke-linejoin:round; stroke-width:4; stroke-opacity:1; fill:none" points="
  156.274,1486.45 156.274,47.2441 
  "/>
<polyline clip-path="url(#clip300)" style="stroke:#000000; stroke-linecap:round; stroke-linejoin:round; stroke-width:4; stroke-opacity:1; fill:none" points="
  156.274,1228.82 175.172,1228.82 
  "/>
<polyline clip-path="url(#clip300)" style="stroke:#000000; stroke-linecap:round; stroke-linejoin:round; stroke-width:4; stroke-opacity:1; fill:none" points="
  156.274,961.083 175.172,961.083 
  "/>
<polyline clip-path="url(#clip300)" style="stroke:#000000; stroke-linecap:round; stroke-linejoin:round; stroke-width:4; stroke-opacity:1; fill:none" points="
  156.274,693.345 175.172,693.345 
  "/>
<polyline clip-path="url(#clip300)" style="stroke:#000000; stroke-linecap:round; stroke-linejoin:round; stroke-width:4; stroke-opacity:1; fill:none" points="
  156.274,425.607 175.172,425.607 
  "/>
<polyline clip-path="url(#clip300)" style="stroke:#000000; stroke-linecap:round; stroke-linejoin:round; stroke-width:4; stroke-opacity:1; fill:none" points="
  156.274,157.869 175.172,157.869 
  "/>
<path clip-path="url(#clip300)" d="M63.0985 1214.62 Q59.4875 1214.62 57.6588 1218.18 Q55.8532 1221.73 55.8532 1228.86 Q55.8532 1235.96 57.6588 1239.53 Q59.4875 1243.07 63.0985 1243.07 Q66.7328 1243.07 68.5383 1239.53 Q70.367 1235.96 70.367 1228.86 Q70.367 1221.73 68.5383 1218.18 Q66.7328 1214.62 63.0985 1214.62 M63.0985 1210.92 Q68.9087 1210.92 71.9642 1215.52 Q75.0429 1220.11 75.0429 1228.86 Q75.0429 1237.58 71.9642 1242.19 Q68.9087 1246.77 63.0985 1246.77 Q57.2884 1246.77 54.2097 1242.19 Q51.1542 1237.58 51.1542 1228.86 Q51.1542 1220.11 54.2097 1215.52 Q57.2884 1210.92 63.0985 1210.92 Z" fill="#000000" fill-rule="evenodd" fill-opacity="1" /><path clip-path="url(#clip300)" d="M83.2605 1240.22 L88.1447 1240.22 L88.1447 1246.1 L83.2605 1246.1 L83.2605 1240.22 Z" fill="#000000" fill-rule="evenodd" fill-opacity="1" /><path clip-path="url(#clip300)" d="M108.33 1214.62 Q104.719 1214.62 102.89 1218.18 Q101.084 1221.73 101.084 1228.86 Q101.084 1235.96 102.89 1239.53 Q104.719 1243.07 108.33 1243.07 Q111.964 1243.07 113.77 1239.53 Q115.598 1235.96 115.598 1228.86 Q115.598 1221.73 113.77 1218.18 Q111.964 1214.62 108.33 1214.62 M108.33 1210.92 Q114.14 1210.92 117.195 1215.52 Q120.274 1220.11 120.274 1228.86 Q120.274 1237.58 117.195 1242.19 Q114.14 1246.77 108.33 1246.77 Q102.52 1246.77 99.4409 1242.19 Q96.3854 1237.58 96.3854 1228.86 Q96.3854 1220.11 99.4409 1215.52 Q102.52 1210.92 108.33 1210.92 Z" fill="#000000" fill-rule="evenodd" fill-opacity="1" /><path clip-path="url(#clip300)" d="M63.7467 946.882 Q60.1356 946.882 58.3069 950.447 Q56.5014 953.989 56.5014 961.118 Q56.5014 968.225 58.3069 971.789 Q60.1356 975.331 63.7467 975.331 Q67.3809 975.331 69.1865 971.789 Q71.0152 968.225 71.0152 961.118 Q71.0152 953.989 69.1865 950.447 Q67.3809 946.882 63.7467 946.882 M63.7467 943.178 Q69.5568 943.178 72.6124 947.785 Q75.6911 952.368 75.6911 961.118 Q75.6911 969.845 72.6124 974.451 Q69.5568 979.035 63.7467 979.035 Q57.9365 979.035 54.8578 974.451 Q51.8023 969.845 51.8023 961.118 Q51.8023 952.368 54.8578 947.785 Q57.9365 943.178 63.7467 943.178 Z" fill="#000000" fill-rule="evenodd" fill-opacity="1" /><path clip-path="url(#clip300)" d="M83.9086 972.484 L88.7928 972.484 L88.7928 978.363 L83.9086 978.363 L83.9086 972.484 Z" fill="#000000" fill-rule="evenodd" fill-opacity="1" /><path clip-path="url(#clip300)" d="M113.145 959.729 Q116.501 960.447 118.376 962.715 Q120.274 964.984 120.274 968.317 Q120.274 973.433 116.756 976.234 Q113.237 979.035 106.756 979.035 Q104.58 979.035 102.265 978.595 Q99.9733 978.178 97.5197 977.322 L97.5197 972.808 Q99.4641 973.942 101.779 974.521 Q104.094 975.1 106.617 975.1 Q111.015 975.1 113.307 973.363 Q115.621 971.627 115.621 968.317 Q115.621 965.262 113.469 963.549 Q111.339 961.813 107.52 961.813 L103.492 961.813 L103.492 957.97 L107.705 957.97 Q111.154 957.97 112.983 956.604 Q114.811 955.215 114.811 952.623 Q114.811 949.961 112.913 948.549 Q111.038 947.114 107.52 947.114 Q105.598 947.114 103.399 947.53 Q101.2 947.947 98.5613 948.827 L98.5613 944.66 Q101.223 943.919 103.538 943.549 Q105.876 943.178 107.936 943.178 Q113.26 943.178 116.362 945.609 Q119.464 948.016 119.464 952.137 Q119.464 955.007 117.82 956.998 Q116.177 958.965 113.145 959.729 Z" fill="#000000" fill-rule="evenodd" fill-opacity="1" /><path clip-path="url(#clip300)" d="M62.9365 679.144 Q59.3254 679.144 57.4967 682.709 Q55.6912 686.25 55.6912 693.38 Q55.6912 700.486 57.4967 704.051 Q59.3254 707.593 62.9365 707.593 Q66.5707 707.593 68.3763 704.051 Q70.205 700.486 70.205 693.38 Q70.205 686.25 68.3763 682.709 Q66.5707 679.144 62.9365 679.144 M62.9365 675.44 Q68.7467 675.44 71.8022 680.047 Q74.8809 684.63 74.8809 693.38 Q74.8809 702.107 71.8022 706.713 Q68.7467 711.297 62.9365 711.297 Q57.1264 711.297 54.0477 706.713 Q50.9921 702.107 50.9921 693.38 Q50.9921 684.63 54.0477 680.047 Q57.1264 675.44 62.9365 675.44 Z" fill="#000000" fill-rule="evenodd" fill-opacity="1" /><path clip-path="url(#clip300)" d="M83.0984 704.746 L87.9827 704.746 L87.9827 710.625 L83.0984 710.625 L83.0984 704.746 Z" fill="#000000" fill-rule="evenodd" fill-opacity="1" /><path clip-path="url(#clip300)" d="M108.746 691.482 Q105.598 691.482 103.746 693.635 Q101.918 695.787 101.918 699.537 Q101.918 703.264 103.746 705.44 Q105.598 707.593 108.746 707.593 Q111.895 707.593 113.723 705.44 Q115.575 703.264 115.575 699.537 Q115.575 695.787 113.723 693.635 Q111.895 691.482 108.746 691.482 M118.029 676.829 L118.029 681.088 Q116.27 680.255 114.464 679.815 Q112.682 679.375 110.922 679.375 Q106.293 679.375 103.839 682.5 Q101.409 685.625 101.061 691.945 Q102.427 689.931 104.487 688.866 Q106.547 687.778 109.024 687.778 Q114.233 687.778 117.242 690.95 Q120.274 694.098 120.274 699.537 Q120.274 704.861 117.126 708.079 Q113.978 711.297 108.746 711.297 Q102.751 711.297 99.5798 706.713 Q96.4085 702.107 96.4085 693.38 Q96.4085 685.186 100.297 680.325 Q104.186 675.44 110.737 675.44 Q112.496 675.44 114.279 675.788 Q116.084 676.135 118.029 676.829 Z" fill="#000000" fill-rule="evenodd" fill-opacity="1" /><path clip-path="url(#clip300)" d="M63.2837 411.406 Q59.6726 411.406 57.8439 414.971 Q56.0384 418.512 56.0384 425.642 Q56.0384 432.748 57.8439 436.313 Q59.6726 439.855 63.2837 439.855 Q66.918 439.855 68.7235 436.313 Q70.5522 432.748 70.5522 425.642 Q70.5522 418.512 68.7235 414.971 Q66.918 411.406 63.2837 411.406 M63.2837 407.702 Q69.0939 407.702 72.1494 412.309 Q75.2281 416.892 75.2281 425.642 Q75.2281 434.369 72.1494 438.975 Q69.0939 443.559 63.2837 443.559 Q57.4736 443.559 54.3949 438.975 Q51.3393 434.369 51.3393 425.642 Q51.3393 416.892 54.3949 412.309 Q57.4736 407.702 63.2837 407.702 Z" fill="#000000" fill-rule="evenodd" fill-opacity="1" /><path clip-path="url(#clip300)" d="M83.4457 437.008 L88.3299 437.008 L88.3299 442.887 L83.4457 442.887 L83.4457 437.008 Z" fill="#000000" fill-rule="evenodd" fill-opacity="1" /><path clip-path="url(#clip300)" d="M98.6539 442.17 L98.6539 437.91 Q100.413 438.744 102.219 439.184 Q104.024 439.623 105.76 439.623 Q110.39 439.623 112.82 436.522 Q115.274 433.397 115.621 427.054 Q114.279 429.045 112.219 430.11 Q110.158 431.174 107.658 431.174 Q102.473 431.174 99.4409 428.049 Q96.4317 424.901 96.4317 419.461 Q96.4317 414.137 99.5798 410.92 Q102.728 407.702 107.959 407.702 Q113.955 407.702 117.103 412.309 Q120.274 416.892 120.274 425.642 Q120.274 433.813 116.385 438.697 Q112.52 443.559 105.969 443.559 Q104.209 443.559 102.404 443.211 Q100.598 442.864 98.6539 442.17 M107.959 427.517 Q111.108 427.517 112.936 425.364 Q114.788 423.211 114.788 419.461 Q114.788 415.735 112.936 413.582 Q111.108 411.406 107.959 411.406 Q104.811 411.406 102.959 413.582 Q101.131 415.735 101.131 419.461 Q101.131 423.211 102.959 425.364 Q104.811 427.517 107.959 427.517 Z" fill="#000000" fill-rule="evenodd" fill-opacity="1" /><path clip-path="url(#clip300)" d="M55.506 171.214 L63.1448 171.214 L63.1448 144.848 L54.8347 146.515 L54.8347 142.256 L63.0985 140.589 L67.7744 140.589 L67.7744 171.214 L75.4133 171.214 L75.4133 175.149 L55.506 175.149 L55.506 171.214 Z" fill="#000000" fill-rule="evenodd" fill-opacity="1" /><path clip-path="url(#clip300)" d="M84.8577 169.27 L89.7419 169.27 L89.7419 175.149 L84.8577 175.149 L84.8577 169.27 Z" fill="#000000" fill-rule="evenodd" fill-opacity="1" /><path clip-path="url(#clip300)" d="M103.955 171.214 L120.274 171.214 L120.274 175.149 L98.3298 175.149 L98.3298 171.214 Q100.992 168.459 105.575 163.83 Q110.182 159.177 111.362 157.835 Q113.608 155.311 114.487 153.575 Q115.39 151.816 115.39 150.126 Q115.39 147.372 113.445 145.635 Q111.524 143.899 108.422 143.899 Q106.223 143.899 103.77 144.663 Q101.339 145.427 98.5613 146.978 L98.5613 142.256 Q101.385 141.122 103.839 140.543 Q106.293 139.964 108.33 139.964 Q113.7 139.964 116.895 142.649 Q120.089 145.335 120.089 149.825 Q120.089 151.955 119.279 153.876 Q118.492 155.774 116.385 158.367 Q115.807 159.038 112.705 162.256 Q109.603 165.45 103.955 171.214 Z" fill="#000000" fill-rule="evenodd" fill-opacity="1" /><polyline clip-path="url(#clip302)" style="stroke:#009af9; stroke-linecap:round; stroke-linejoin:round; stroke-width:16; stroke-opacity:1; fill:none" stroke-dasharray="8, 16" points="
  218.439,1088.37 228.852,1074.24 239.264,1061.48 249.677,1051.81 260.09,1046.89 270.503,1048.02 280.916,1055.85 291.329,1070.26 301.741,1090.45 312.154,1115.18 
  322.567,1143.12 332.98,1173.12 343.393,1204.26 353.805,1235.83 364.218,1267.2 374.631,1297.59 385.044,1326.06 395.457,1351.47 405.87,1372.66 416.282,1388.65 
  426.695,1398.81 437.108,1402.99 447.521,1401.39 457.934,1394.4 468.347,1382.38 478.759,1365.53 489.172,1343.93 499.585,1317.83 509.998,1287.98 520.411,1255.8 
  530.824,1223.12 541.236,1191.56 551.649,1162.15 562.062,1135.38 572.475,1111.24 582.888,1089.47 593.301,1070.11 603.713,1054.31 614.126,1044.48 624.539,1043.31 
  634.952,1051.52 645.365,1066.67 655.777,1085.01 666.19,1104.72 676.603,1126.42 687.016,1151.09 697.429,1179.02 707.842,1210.2 718.254,1244.27 728.667,1279.55 
  739.08,1313.05 749.493,1341.76 759.906,1363.99 770.319,1379.99 780.731,1391.43 791.144,1399.9 801.557,1405.42 811.97,1406.68 822.383,1402.43 832.796,1391.52 
  843.208,1371.43 853.621,1341.25 864.034,1306.77 874.447,1275.77 884.86,1249.23 895.273,1221.17 905.685,1187.41 916.098,1151.85 926.511,1122.28 936.924,1101.98 
  947.337,1087.72 957.749,1075.03 968.162,1062.86 978.575,1051.67 988.988,1040.27 999.401,1029.87 1009.81,1040.79 1020.23,1085.63 1030.64,1126.58 1041.05,1153.3 
  1051.46,1177.67 1061.88,1198.24 1072.29,1212.69 1082.7,1230.65 1093.12,1268.08 1103.53,1315.41 1113.94,1345.68 1124.35,1350.76 1134.77,1360.5 1145.18,1388.14 
  1155.59,1436.85 1166.01,1445.72 1176.42,1422.8 1186.83,1396.79 1197.24,1392.72 1207.66,1363.14 1218.07,1318.75 1228.48,1314.3 1238.9,1239.18 1249.31,999.874 
  1259.72,661.16 1270.13,404.305 1280.55,310.454 1290.96,300.819 1301.37,305.16 1311.79,322.591 1322.2,383.169 1332.61,436.167 1343.02,419.554 1353.44,356.846 
  1363.85,307.385 1374.26,276.981 1384.68,269.315 1395.09,310.939 1405.5,336.002 1415.91,327.857 1426.33,316.771 1436.74,341.743 1447.15,393.684 1457.57,375.797 
  1467.98,329.681 1478.39,308.262 1488.8,278.024 1499.22,255.891 1509.63,296.886 1520.04,335.991 1530.45,351.422 1540.87,366.748 1551.28,385.922 1561.69,398.5 
  1572.11,390.125 1582.52,352.5 1592.93,297.06 1603.34,253.989 1613.76,243.578 1624.17,261.478 1634.58,296.686 1645,341.384 1655.41,385.64 1665.82,418.31 
  1676.23,431.713 1686.65,422.392 1697.06,390.788 1707.47,341.589 1717.89,284.234 1728.3,234.427 1738.71,214.599 1749.12,242.152 1759.54,307.908 1769.95,380.448 
  1780.36,432.804 1790.78,454.397 1801.19,446.693 1811.6,415.604 1822.01,366.971 1832.43,305.835 1842.84,240.215 1853.25,190.153 1863.67,186.57 1874.08,241.719 
  1884.49,330.612 1894.9,417.162 1905.32,477.639 1915.73,500.984 1926.14,483.82 1936.56,428.368 1946.97,343.052 1957.38,244.849 1967.79,161.897 1978.21,128.842 
  1988.62,165.914 1999.03,259.688 2009.45,373.482 2019.86,471.904 2030.27,530.111 2040.68,532.706 2051.1,479.346 2061.51,388.425 2071.92,286.276 2082.33,198.059 
  2092.75,145.02 2103.16,140.749 2113.57,187.93 2123.99,277.592 2134.4,389.135 2144.81,493.044 2155.22,558.509 2165.64,562.406 2176.05,496.519 2186.46,374.146 
  2196.88,236.076 2207.29,142.323 2217.7,128.067 2228.11,175.401 2238.53,249.751 2248.94,328.71 2259.35,401.743 2269.77,464.687 2280.18,516.474 2290.59,557.563 
  
  "/>
<polyline clip-path="url(#clip302)" style="stroke:#e26f46; stroke-linecap:round; stroke-linejoin:round; stroke-width:4; stroke-opacity:1; fill:none" points="
  218.439,1094.78 228.852,1075.76 239.264,1061.74 249.677,1053.17 260.09,1050.33 270.503,1053.32 280.916,1062.04 291.329,1076.2 301.741,1095.34 312.154,1118.84 
  322.567,1145.92 332.98,1175.72 343.393,1207.24 353.805,1239.48 364.218,1271.36 374.631,1301.85 385.044,1329.96 395.457,1354.77 405.87,1375.47 416.282,1391.39 
  426.695,1401.99 437.108,1406.95 447.521,1406.09 457.934,1399.45 468.347,1387.24 478.759,1369.85 489.172,1347.87 499.585,1322 509.998,1293.08 520.411,1262.08 
  530.824,1229.98 541.236,1197.85 551.649,1166.73 562.062,1137.63 572.475,1111.51 582.888,1089.22 593.301,1071.49 603.713,1058.89 614.126,1051.84 624.539,1050.56 
  634.952,1055.1 645.365,1065.31 655.777,1080.86 666.19,1101.24 676.603,1125.78 687.016,1153.68 697.429,1184.04 707.842,1215.85 718.254,1248.1 728.667,1279.71 
  739.08,1309.66 749.493,1336.97 759.906,1360.75 770.319,1380.23 780.731,1394.77 791.144,1403.89 801.557,1407.29 811.97,1404.87 822.383,1396.71 832.796,1383.06 
  843.208,1364.39 853.621,1341.28 864.034,1314.51 874.447,1284.94 884.86,1253.54 895.273,1221.33 905.685,1189.37 916.098,1158.69 926.511,1130.3 936.924,1105.13 
  947.337,1084 957.749,1067.59 968.162,1056.44 978.575,1050.92 988.988,1051.21 999.401,1057.29 1009.81,1068.97 1020.23,1085.87 1030.64,1107.43 1041.05,1132.96 
  1051.46,1161.61 1061.88,1192.46 1072.29,1224.5 1082.7,1256.67 1093.12,1287.94 1103.53,1317.27 1113.94,1343.72 1124.35,1366.42 1134.77,1384.63 1145.18,1397.76 
  1155.59,1405.37 1166.01,1407.22 1176.42,1403.24 1186.83,1393.57 1197.24,1378.53 1207.66,1358.6 1218.07,1334.44 1228.48,1306.82 1238.9,1276.66 1249.31,1244.94 
  1259.72,335.065 1270.13,333.59 1280.55,334.933 1290.96,339.401 1301.37,345.627 1311.79,350.98 1322.2,352.564 1332.61,348.446 1343.02,338.629 1353.44,325.395 
  1363.85,312.801 1374.26,305.444 1384.68,306.855 1395.09,318.08 1405.5,336.961 1415.91,358.448 1426.33,375.946 1436.74,383.326 1447.15,377.008 1457.57,357.405 
  1467.98,329.207 1478.39,300.31 1488.8,279.599 1499.22,274.234 1509.63,287.24 1520.04,316.217 1530.45,353.64 1540.87,388.793 1551.28,410.841 1561.69,412.146 
  1572.11,390.846 1582.52,351.81 1592.93,305.601 1603.34,265.63 1613.76,244.263 1624.17,249.014 1634.58,279.992 1645,329.445 1655.41,383.659 1665.82,426.754 
  1676.23,445.333 1686.65,432.628 1697.06,390.849 1707.47,330.967 1717.89,269.86 1728.3,225.552 1738.71,211.906 1749.12,234.313 1759.54,287.72 1769.95,357.685 
  1780.36,424.265 1790.78,467.703 1801.19,474.283 1811.6,440.625 1822.01,375.088 1832.43,295.74 1842.84,225.392 1853.25,185.034 1863.67,187.585 1874.08,233.8 
  1884.49,311.623 1894.9,399.302 1905.32,471.464 1915.73,506.455 1926.14,492.829 1936.56,433.036 1946.97,343.135 1957.38,248.511 1967.79,176.7 1978.21,149.384 
  1988.62,175.855 1999.03,249.934 2009.45,351.334 2019.86,451.202 2030.27,520.33 2040.68,537.693 2051.1,496.826 2061.51,408.104 2071.92,296.154 2082.33,193.031 
  2092.75,129.034 2103.16,123.814 2113.57,180.36 2123.99,283.715 2134.4,404.901 2144.81,509.041 2155.22,565.393 2165.64,556.421 2176.05,483.22 2186.46,365.627 
  2196.88,236.865 2207.29,134.159 2217.7,87.9763 2228.11,112.995 2238.53,203.484 2248.94,334.529 2259.35,468.878 2269.77,567.537 2280.18,601.074 2290.59,558.399 
  
  "/>
<path clip-path="url(#clip300)" d="
M229.49 250.738 L700.371 250.738 L700.371 95.2176 L229.49 95.2176  Z
  " fill="#ffffff" fill-rule="evenodd" fill-opacity="1"/>
<polyline clip-path="url(#clip300)" style="stroke:#000000; stroke-linecap:round; stroke-linejoin:round; stroke-width:4; stroke-opacity:1; fill:none" points="
  229.49,250.738 700.371,250.738 700.371,95.2176 229.49,95.2176 229.49,250.738 
  "/>
<polyline clip-path="url(#clip300)" style="stroke:#009af9; stroke-linecap:round; stroke-linejoin:round; stroke-width:4; stroke-opacity:1; fill:none" stroke-dasharray="2, 4" points="
  253.896,147.058 400.328,147.058 
  "/>
<path clip-path="url(#clip300)" d="M429.409 133.62 L429.409 146.606 L435.289 146.606 Q438.552 146.606 440.335 144.916 Q442.117 143.227 442.117 140.102 Q442.117 137 440.335 135.31 Q438.552 133.62 435.289 133.62 L429.409 133.62 M424.733 129.778 L435.289 129.778 Q441.099 129.778 444.062 132.416 Q447.048 135.032 447.048 140.102 Q447.048 145.217 444.062 147.833 Q441.099 150.449 435.289 150.449 L429.409 150.449 L429.409 164.338 L424.733 164.338 L424.733 129.778 Z" fill="#000000" fill-rule="evenodd" fill-opacity="1" /><path clip-path="url(#clip300)" d="M467.325 142.393 Q466.608 141.977 465.751 141.791 Q464.918 141.583 463.899 141.583 Q460.288 141.583 458.344 143.944 Q456.423 146.282 456.423 150.68 L456.423 164.338 L452.14 164.338 L452.14 138.412 L456.423 138.412 L456.423 142.44 Q457.765 140.078 459.918 138.944 Q462.071 137.787 465.149 137.787 Q465.589 137.787 466.122 137.856 Q466.654 137.903 467.302 138.018 L467.325 142.393 Z" fill="#000000" fill-rule="evenodd" fill-opacity="1" /><path clip-path="url(#clip300)" d="M492.927 150.31 L492.927 152.393 L473.344 152.393 Q473.622 156.791 475.983 159.106 Q478.367 161.398 482.603 161.398 Q485.057 161.398 487.348 160.796 Q489.663 160.194 491.932 158.99 L491.932 163.018 Q489.64 163.99 487.233 164.5 Q484.825 165.009 482.348 165.009 Q476.145 165.009 472.511 161.398 Q468.899 157.787 468.899 151.629 Q468.899 145.264 472.325 141.537 Q475.774 137.787 481.608 137.787 Q486.839 137.787 489.872 141.166 Q492.927 144.523 492.927 150.31 M488.668 149.06 Q488.622 145.565 486.7 143.481 Q484.802 141.398 481.654 141.398 Q478.089 141.398 475.936 143.412 Q473.807 145.426 473.483 149.083 L488.668 149.06 Z" fill="#000000" fill-rule="evenodd" fill-opacity="1" /><path clip-path="url(#clip300)" d="M516.978 142.347 L516.978 128.319 L521.237 128.319 L521.237 164.338 L516.978 164.338 L516.978 160.449 Q515.635 162.763 513.575 163.898 Q511.538 165.009 508.668 165.009 Q503.969 165.009 501.006 161.259 Q498.066 157.509 498.066 151.398 Q498.066 145.287 501.006 141.537 Q503.969 137.787 508.668 137.787 Q511.538 137.787 513.575 138.921 Q515.635 140.032 516.978 142.347 M502.464 151.398 Q502.464 156.097 504.385 158.782 Q506.33 161.444 509.709 161.444 Q513.089 161.444 515.033 158.782 Q516.978 156.097 516.978 151.398 Q516.978 146.699 515.033 144.037 Q513.089 141.352 509.709 141.352 Q506.33 141.352 504.385 144.037 Q502.464 146.699 502.464 151.398 Z" fill="#000000" fill-rule="evenodd" fill-opacity="1" /><path clip-path="url(#clip300)" d="M530.01 138.412 L534.269 138.412 L534.269 164.338 L530.01 164.338 L530.01 138.412 M530.01 128.319 L534.269 128.319 L534.269 133.713 L530.01 133.713 L530.01 128.319 Z" fill="#000000" fill-rule="evenodd" fill-opacity="1" /><path clip-path="url(#clip300)" d="M561.839 139.407 L561.839 143.389 Q560.033 142.393 558.205 141.907 Q556.399 141.398 554.547 141.398 Q550.404 141.398 548.112 144.037 Q545.82 146.652 545.82 151.398 Q545.82 156.143 548.112 158.782 Q550.404 161.398 554.547 161.398 Q556.399 161.398 558.205 160.912 Q560.033 160.402 561.839 159.407 L561.839 163.342 Q560.056 164.176 558.135 164.592 Q556.237 165.009 554.084 165.009 Q548.228 165.009 544.779 161.328 Q541.33 157.648 541.33 151.398 Q541.33 145.055 544.802 141.421 Q548.297 137.787 554.362 137.787 Q556.33 137.787 558.205 138.203 Q560.08 138.597 561.839 139.407 Z" fill="#000000" fill-rule="evenodd" fill-opacity="1" /><path clip-path="url(#clip300)" d="M573.459 131.051 L573.459 138.412 L582.232 138.412 L582.232 141.722 L573.459 141.722 L573.459 155.796 Q573.459 158.967 574.316 159.87 Q575.195 160.773 577.857 160.773 L582.232 160.773 L582.232 164.338 L577.857 164.338 Q572.927 164.338 571.052 162.509 Q569.177 160.657 569.177 155.796 L569.177 141.722 L566.052 141.722 L566.052 138.412 L569.177 138.412 L569.177 131.051 L573.459 131.051 Z" fill="#000000" fill-rule="evenodd" fill-opacity="1" /><path clip-path="url(#clip300)" d="M587.834 138.412 L592.093 138.412 L592.093 164.338 L587.834 164.338 L587.834 138.412 M587.834 128.319 L592.093 128.319 L592.093 133.713 L587.834 133.713 L587.834 128.319 Z" fill="#000000" fill-rule="evenodd" fill-opacity="1" /><path clip-path="url(#clip300)" d="M611.051 141.398 Q607.626 141.398 605.635 144.083 Q603.644 146.745 603.644 151.398 Q603.644 156.051 605.612 158.736 Q607.602 161.398 611.051 161.398 Q614.454 161.398 616.445 158.713 Q618.436 156.027 618.436 151.398 Q618.436 146.791 616.445 144.106 Q614.454 141.398 611.051 141.398 M611.051 137.787 Q616.607 137.787 619.778 141.398 Q622.95 145.009 622.95 151.398 Q622.95 157.764 619.778 161.398 Q616.607 165.009 611.051 165.009 Q605.473 165.009 602.302 161.398 Q599.153 157.764 599.153 151.398 Q599.153 145.009 602.302 141.398 Q605.473 137.787 611.051 137.787 Z" fill="#000000" fill-rule="evenodd" fill-opacity="1" /><path clip-path="url(#clip300)" d="M651.561 148.689 L651.561 164.338 L647.301 164.338 L647.301 148.828 Q647.301 145.148 645.866 143.319 Q644.431 141.49 641.561 141.49 Q638.112 141.49 636.121 143.69 Q634.13 145.889 634.13 149.685 L634.13 164.338 L629.848 164.338 L629.848 138.412 L634.13 138.412 L634.13 142.44 Q635.658 140.102 637.718 138.944 Q639.801 137.787 642.51 137.787 Q646.977 137.787 649.269 140.565 Q651.561 143.319 651.561 148.689 Z" fill="#000000" fill-rule="evenodd" fill-opacity="1" /><polyline clip-path="url(#clip300)" style="stroke:#e26f46; stroke-linecap:round; stroke-linejoin:round; stroke-width:4; stroke-opacity:1; fill:none" points="
  253.896,198.898 400.328,198.898 
  "/>
<path clip-path="url(#clip300)" d="M424.733 181.618 L446.585 181.618 L446.585 185.553 L429.409 185.553 L429.409 195.784 L445.867 195.784 L445.867 199.719 L429.409 199.719 L429.409 212.242 L447.001 212.242 L447.001 216.178 L424.733 216.178 L424.733 181.618 Z" fill="#000000" fill-rule="evenodd" fill-opacity="1" /><path clip-path="url(#clip300)" d="M476.052 190.252 L466.677 202.867 L476.538 216.178 L471.515 216.178 L463.969 205.992 L456.423 216.178 L451.4 216.178 L461.469 202.613 L452.256 190.252 L457.279 190.252 L464.154 199.488 L471.029 190.252 L476.052 190.252 Z" fill="#000000" fill-rule="evenodd" fill-opacity="1" /><path clip-path="url(#clip300)" d="M494.339 203.145 Q489.177 203.145 487.186 204.326 Q485.196 205.506 485.196 208.354 Q485.196 210.622 486.677 211.965 Q488.182 213.284 490.751 213.284 Q494.293 213.284 496.422 210.784 Q498.575 208.261 498.575 204.094 L498.575 203.145 L494.339 203.145 M502.834 201.386 L502.834 216.178 L498.575 216.178 L498.575 212.242 Q497.117 214.603 494.941 215.738 Q492.765 216.849 489.617 216.849 Q485.635 216.849 483.274 214.627 Q480.936 212.381 480.936 208.631 Q480.936 204.256 483.853 202.034 Q486.793 199.812 492.603 199.812 L498.575 199.812 L498.575 199.395 Q498.575 196.455 496.631 194.858 Q494.71 193.238 491.214 193.238 Q488.992 193.238 486.885 193.77 Q484.779 194.303 482.835 195.367 L482.835 191.432 Q485.173 190.53 487.372 190.09 Q489.571 189.627 491.654 189.627 Q497.279 189.627 500.057 192.543 Q502.834 195.46 502.834 201.386 Z" fill="#000000" fill-rule="evenodd" fill-opacity="1" /><path clip-path="url(#clip300)" d="M530.265 191.247 L530.265 195.229 Q528.459 194.233 526.631 193.747 Q524.825 193.238 522.973 193.238 Q518.83 193.238 516.538 195.877 Q514.246 198.492 514.246 203.238 Q514.246 207.983 516.538 210.622 Q518.83 213.238 522.973 213.238 Q524.825 213.238 526.631 212.752 Q528.459 212.242 530.265 211.247 L530.265 215.182 Q528.482 216.016 526.561 216.432 Q524.663 216.849 522.51 216.849 Q516.654 216.849 513.205 213.168 Q509.756 209.488 509.756 203.238 Q509.756 196.895 513.228 193.261 Q516.723 189.627 522.788 189.627 Q524.756 189.627 526.631 190.043 Q528.506 190.437 530.265 191.247 Z" fill="#000000" fill-rule="evenodd" fill-opacity="1" /><path clip-path="url(#clip300)" d="M541.885 182.891 L541.885 190.252 L550.658 190.252 L550.658 193.562 L541.885 193.562 L541.885 207.636 Q541.885 210.807 542.742 211.71 Q543.621 212.613 546.283 212.613 L550.658 212.613 L550.658 216.178 L546.283 216.178 Q541.353 216.178 539.478 214.349 Q537.603 212.497 537.603 207.636 L537.603 193.562 L534.478 193.562 L534.478 190.252 L537.603 190.252 L537.603 182.891 L541.885 182.891 Z" fill="#000000" fill-rule="evenodd" fill-opacity="1" /></svg>
