<?xml version="1.0" encoding="utf-8"?>
<svg xmlns="http://www.w3.org/2000/svg" xmlns:xlink="http://www.w3.org/1999/xlink" width="600" height="400" viewBox="0 0 2400 1600">
<defs>
  <clipPath id="clip270">
    <rect x="0" y="0" width="2400" height="1600"/>
  </clipPath>
</defs>
<path clip-path="url(#clip270)" d="
M0 1600 L2400 1600 L2400 0 L0 0  Z
  " fill="#ffffff" fill-rule="evenodd" fill-opacity="1"/>
<defs>
  <clipPath id="clip271">
    <rect x="480" y="0" width="1681" height="1600"/>
  </clipPath>
</defs>
<path clip-path="url(#clip270)" d="
M156.274 1486.45 L2352.76 1486.45 L2352.76 47.2441 L156.274 47.2441  Z
  " fill="#ffffff" fill-rule="evenodd" fill-opacity="1"/>
<defs>
  <clipPath id="clip272">
    <rect x="156" y="47" width="2197" height="1440"/>
  </clipPath>
</defs>
<polyline clip-path="url(#clip272)" style="stroke:#000000; stroke-linecap:round; stroke-linejoin:round; stroke-width:2; stroke-opacity:0.1; fill:none" points="
  218.439,1486.45 218.439,47.2441 
  "/>
<polyline clip-path="url(#clip272)" style="stroke:#000000; stroke-linecap:round; stroke-linejoin:round; stroke-width:2; stroke-opacity:0.1; fill:none" points="
  736.477,1486.45 736.477,47.2441 
  "/>
<polyline clip-path="url(#clip272)" style="stroke:#000000; stroke-linecap:round; stroke-linejoin:round; stroke-width:2; stroke-opacity:0.1; fill:none" points="
  1254.52,1486.45 1254.52,47.2441 
  "/>
<polyline clip-path="url(#clip272)" style="stroke:#000000; stroke-linecap:round; stroke-linejoin:round; stroke-width:2; stroke-opacity:0.1; fill:none" points="
  1772.55,1486.45 1772.55,47.2441 
  "/>
<polyline clip-path="url(#clip272)" style="stroke:#000000; stroke-linecap:round; stroke-linejoin:round; stroke-width:2; stroke-opacity:0.1; fill:none" points="
  2290.59,1486.45 2290.59,47.2441 
  "/>
<polyline clip-path="url(#clip270)" style="stroke:#000000; stroke-linecap:round; stroke-linejoin:round; stroke-width:4; stroke-opacity:1; fill:none" points="
  156.274,1486.45 2352.76,1486.45 
  "/>
<polyline clip-path="url(#clip270)" style="stroke:#000000; stroke-linecap:round; stroke-linejoin:round; stroke-width:4; stroke-opacity:1; fill:none" points="
  218.439,1486.45 218.439,1467.55 
  "/>
<polyline clip-path="url(#clip270)" style="stroke:#000000; stroke-linecap:round; stroke-linejoin:round; stroke-width:4; stroke-opacity:1; fill:none" points="
  736.477,1486.45 736.477,1467.55 
  "/>
<polyline clip-path="url(#clip270)" style="stroke:#000000; stroke-linecap:round; stroke-linejoin:round; stroke-width:4; stroke-opacity:1; fill:none" points="
  1254.52,1486.45 1254.52,1467.55 
  "/>
<polyline clip-path="url(#clip270)" style="stroke:#000000; stroke-linecap:round; stroke-linejoin:round; stroke-width:4; stroke-opacity:1; fill:none" points="
  1772.55,1486.45 1772.55,1467.55 
  "/>
<polyline clip-path="url(#clip270)" style="stroke:#000000; stroke-linecap:round; stroke-linejoin:round; stroke-width:4; stroke-opacity:1; fill:none" points="
  2290.59,1486.45 2290.59,1467.55 
  "/>
<path clip-path="url(#clip270)" d="M164.967 1532.02 L194.643 1532.02 L194.643 1535.95 L164.967 1535.95 L164.967 1532.02 Z" fill="#000000" fill-rule="evenodd" fill-opacity="1" /><path clip-path="url(#clip270)" d="M205.545 1544.91 L213.184 1544.91 L213.184 1518.55 L204.874 1520.21 L204.874 1515.95 L213.138 1514.29 L217.814 1514.29 L217.814 1544.91 L225.453 1544.91 L225.453 1548.85 L205.545 1548.85 L205.545 1544.91 Z" fill="#000000" fill-rule="evenodd" fill-opacity="1" /><path clip-path="url(#clip270)" d="M234.897 1542.97 L239.781 1542.97 L239.781 1548.85 L234.897 1548.85 L234.897 1542.97 Z" fill="#000000" fill-rule="evenodd" fill-opacity="1" /><path clip-path="url(#clip270)" d="M259.966 1517.37 Q256.355 1517.37 254.527 1520.93 Q252.721 1524.47 252.721 1531.6 Q252.721 1538.71 254.527 1542.27 Q256.355 1545.82 259.966 1545.82 Q263.601 1545.82 265.406 1542.27 Q267.235 1538.71 267.235 1531.6 Q267.235 1524.47 265.406 1520.93 Q263.601 1517.37 259.966 1517.37 M259.966 1513.66 Q265.776 1513.66 268.832 1518.27 Q271.911 1522.85 271.911 1531.6 Q271.911 1540.33 268.832 1544.94 Q265.776 1549.52 259.966 1549.52 Q254.156 1549.52 251.077 1544.94 Q248.022 1540.33 248.022 1531.6 Q248.022 1522.85 251.077 1518.27 Q254.156 1513.66 259.966 1513.66 Z" fill="#000000" fill-rule="evenodd" fill-opacity="1" /><path clip-path="url(#clip270)" d="M683.503 1532.02 L713.178 1532.02 L713.178 1535.95 L683.503 1535.95 L683.503 1532.02 Z" fill="#000000" fill-rule="evenodd" fill-opacity="1" /><path clip-path="url(#clip270)" d="M733.271 1517.37 Q729.66 1517.37 727.831 1520.93 Q726.026 1524.47 726.026 1531.6 Q726.026 1538.71 727.831 1542.27 Q729.66 1545.82 733.271 1545.82 Q736.905 1545.82 738.711 1542.27 Q740.539 1538.71 740.539 1531.6 Q740.539 1524.47 738.711 1520.93 Q736.905 1517.37 733.271 1517.37 M733.271 1513.66 Q739.081 1513.66 742.137 1518.27 Q745.215 1522.85 745.215 1531.6 Q745.215 1540.33 742.137 1544.94 Q739.081 1549.52 733.271 1549.52 Q727.461 1549.52 724.382 1544.94 Q721.327 1540.33 721.327 1531.6 Q721.327 1522.85 724.382 1518.27 Q727.461 1513.66 733.271 1513.66 Z" fill="#000000" fill-rule="evenodd" fill-opacity="1" /><path clip-path="url(#clip270)" d="M753.433 1542.97 L758.317 1542.97 L758.317 1548.85 L753.433 1548.85 L753.433 1542.97 Z" fill="#000000" fill-rule="evenodd" fill-opacity="1" /><path clip-path="url(#clip270)" d="M768.548 1514.29 L786.905 1514.29 L786.905 1518.22 L772.831 1518.22 L772.831 1526.7 Q773.849 1526.35 774.868 1526.19 Q775.886 1526 776.905 1526 Q782.692 1526 786.072 1529.17 Q789.451 1532.34 789.451 1537.76 Q789.451 1543.34 785.979 1546.44 Q782.507 1549.52 776.187 1549.52 Q774.011 1549.52 771.743 1549.15 Q769.498 1548.78 767.09 1548.04 L767.09 1543.34 Q769.173 1544.47 771.396 1545.03 Q773.618 1545.58 776.095 1545.58 Q780.099 1545.58 782.437 1543.48 Q784.775 1541.37 784.775 1537.76 Q784.775 1534.15 782.437 1532.04 Q780.099 1529.94 776.095 1529.94 Q774.22 1529.94 772.345 1530.35 Q770.493 1530.77 768.548 1531.65 L768.548 1514.29 Z" fill="#000000" fill-rule="evenodd" fill-opacity="1" /><path clip-path="url(#clip270)" d="M1231.9 1517.37 Q1228.29 1517.37 1226.46 1520.93 Q1224.65 1524.47 1224.65 1531.6 Q1224.65 1538.71 1226.46 1542.27 Q1228.29 1545.82 1231.9 1545.82 Q1235.53 1545.82 1237.34 1542.27 Q1239.17 1538.71 1239.17 1531.6 Q1239.17 1524.47 1237.34 1520.93 Q1235.53 1517.37 1231.9 1517.37 M1231.9 1513.66 Q1237.71 1513.66 1240.77 1518.27 Q1243.84 1522.85 1243.84 1531.6 Q1243.84 1540.33 1240.77 1544.94 Q1237.71 1549.52 1231.9 1549.52 Q1226.09 1549.52 1223.01 1544.94 Q1219.96 1540.33 1219.96 1531.6 Q1219.96 1522.85 1223.01 1518.27 Q1226.09 1513.66 1231.9 1513.66 Z" fill="#000000" fill-rule="evenodd" fill-opacity="1" /><path clip-path="url(#clip270)" d="M1252.06 1542.97 L1256.95 1542.97 L1256.95 1548.85 L1252.06 1548.85 L1252.06 1542.97 Z" fill="#000000" fill-rule="evenodd" fill-opacity="1" /><path clip-path="url(#clip270)" d="M1277.13 1517.37 Q1273.52 1517.37 1271.69 1520.93 Q1269.89 1524.47 1269.89 1531.6 Q1269.89 1538.71 1271.69 1542.27 Q1273.52 1545.82 1277.13 1545.82 Q1280.76 1545.82 1282.57 1542.27 Q1284.4 1538.71 1284.4 1531.6 Q1284.4 1524.47 1282.57 1520.93 Q1280.76 1517.37 1277.13 1517.37 M1277.13 1513.66 Q1282.94 1513.66 1286 1518.27 Q1289.08 1522.85 1289.08 1531.6 Q1289.08 1540.33 1286 1544.94 Q1282.94 1549.52 1277.13 1549.52 Q1271.32 1549.52 1268.24 1544.94 Q1265.19 1540.33 1265.19 1531.6 Q1265.19 1522.85 1268.24 1518.27 Q1271.32 1513.66 1277.13 1513.66 Z" fill="#000000" fill-rule="evenodd" fill-opacity="1" /><path clip-path="url(#clip270)" d="M1750.44 1517.37 Q1746.82 1517.37 1745 1520.93 Q1743.19 1524.47 1743.19 1531.6 Q1743.19 1538.71 1745 1542.27 Q1746.82 1545.82 1750.44 1545.82 Q1754.07 1545.82 1755.88 1542.27 Q1757.7 1538.71 1757.7 1531.6 Q1757.7 1524.47 1755.88 1520.93 Q1754.07 1517.37 1750.44 1517.37 M1750.44 1513.66 Q1756.25 1513.66 1759.3 1518.27 Q1762.38 1522.85 1762.38 1531.6 Q1762.38 1540.33 1759.3 1544.94 Q1756.25 1549.52 1750.44 1549.52 Q1744.63 1549.52 1741.55 1544.94 Q1738.49 1540.33 1738.49 1531.6 Q1738.49 1522.85 1741.55 1518.27 Q1744.63 1513.66 1750.44 1513.66 Z" fill="#000000" fill-rule="evenodd" fill-opacity="1" /><path clip-path="url(#clip270)" d="M1770.6 1542.97 L1775.48 1542.97 L1775.48 1548.85 L1770.6 1548.85 L1770.6 1542.97 Z" fill="#000000" fill-rule="evenodd" fill-opacity="1" /><path clip-path="url(#clip270)" d="M1785.71 1514.29 L1804.07 1514.29 L1804.07 1518.22 L1790 1518.22 L1790 1526.7 Q1791.01 1526.35 1792.03 1526.19 Q1793.05 1526 1794.07 1526 Q1799.86 1526 1803.24 1529.17 Q1806.62 1532.34 1806.62 1537.76 Q1806.62 1543.34 1803.14 1546.44 Q1799.67 1549.52 1793.35 1549.52 Q1791.18 1549.52 1788.91 1549.15 Q1786.66 1548.78 1784.25 1548.04 L1784.25 1543.34 Q1786.34 1544.47 1788.56 1545.03 Q1790.78 1545.58 1793.26 1545.58 Q1797.26 1545.58 1799.6 1543.48 Q1801.94 1541.37 1801.94 1537.76 Q1801.94 1534.15 1799.6 1532.04 Q1797.26 1529.94 1793.26 1529.94 Q1791.38 1529.94 1789.51 1530.35 Q1787.66 1530.77 1785.71 1531.65 L1785.71 1514.29 Z" fill="#000000" fill-rule="evenodd" fill-opacity="1" /><path clip-path="url(#clip270)" d="M2257.74 1544.91 L2265.38 1544.91 L2265.38 1518.55 L2257.07 1520.21 L2257.07 1515.95 L2265.34 1514.29 L2270.01 1514.29 L2270.01 1544.91 L2277.65 1544.91 L2277.65 1548.85 L2257.74 1548.85 L2257.74 1544.91 Z" fill="#000000" fill-rule="evenodd" fill-opacity="1" /><path clip-path="url(#clip270)" d="M2287.1 1542.97 L2291.98 1542.97 L2291.98 1548.85 L2287.1 1548.85 L2287.1 1542.97 Z" fill="#000000" fill-rule="evenodd" fill-opacity="1" /><path clip-path="url(#clip270)" d="M2312.17 1517.37 Q2308.55 1517.37 2306.73 1520.93 Q2304.92 1524.47 2304.92 1531.6 Q2304.92 1538.71 2306.73 1542.27 Q2308.55 1545.82 2312.17 1545.82 Q2315.8 1545.82 2317.61 1542.27 Q2319.43 1538.71 2319.43 1531.6 Q2319.43 1524.47 2317.61 1520.93 Q2315.8 1517.37 2312.17 1517.37 M2312.17 1513.66 Q2317.98 1513.66 2321.03 1518.27 Q2324.11 1522.85 2324.11 1531.6 Q2324.11 1540.33 2321.03 1544.94 Q2317.98 1549.52 2312.17 1549.52 Q2306.36 1549.52 2303.28 1544.94 Q2300.22 1540.33 2300.22 1531.6 Q2300.22 1522.85 2303.28 1518.27 Q2306.36 1513.66 2312.17 1513.66 Z" fill="#000000" fill-rule="evenodd" fill-opacity="1" /><polyline clip-path="url(#clip272)" style="stroke:#000000; stroke-linecap:round; stroke-linejoin:round; stroke-width:2; stroke-opacity:0.1; fill:none" points="
  156.274,1241.91 2352.76,1241.91 
  "/>
<polyline clip-path="url(#clip272)" style="stroke:#000000; stroke-linecap:round; stroke-linejoin:round; stroke-width:2; stroke-opacity:0.1; fill:none" points="
  156.274,971.097 2352.76,971.097 
  "/>
<polyline clip-path="url(#clip272)" style="stroke:#000000; stroke-linecap:round; stroke-linejoin:round; stroke-width:2; stroke-opacity:0.1; fill:none" points="
  156.274,700.289 2352.76,700.289 
  "/>
<polyline clip-path="url(#clip272)" style="stroke:#000000; stroke-linecap:round; stroke-linejoin:round; stroke-width:2; stroke-opacity:0.1; fill:none" points="
  156.274,429.48 2352.76,429.48 
  "/>
<polyline clip-path="url(#clip272)" style="stroke:#000000; stroke-linecap:round; stroke-linejoin:round; stroke-width:2; stroke-opacity:0.1; fill:none" points="
  156.274,158.671 2352.76,158.671 
  "/>
<polyline clip-path="url(#clip270)" style="stroke:#000000; stroke-linecap:round; stroke-linejoin:round; stroke-width:4; stroke-opacity:1; fill:none" points="
  156.274,1486.45 156.274,47.2441 
  "/>
<polyline clip-path="url(#clip270)" style="stroke:#000000; stroke-linecap:round; stroke-linejoin:round; stroke-width:4; stroke-opacity:1; fill:none" points="
  156.274,1241.91 175.172,1241.91 
  "/>
<polyline clip-path="url(#clip270)" style="stroke:#000000; stroke-linecap:round; stroke-linejoin:round; stroke-width:4; stroke-opacity:1; fill:none" points="
  156.274,971.097 175.172,971.097 
  "/>
<polyline clip-path="url(#clip270)" style="stroke:#000000; stroke-linecap:round; stroke-linejoin:round; stroke-width:4; stroke-opacity:1; fill:none" points="
  156.274,700.289 175.172,700.289 
  "/>
<polyline clip-path="url(#clip270)" style="stroke:#000000; stroke-linecap:round; stroke-linejoin:round; stroke-width:4; stroke-opacity:1; fill:none" points="
  156.274,429.48 175.172,429.48 
  "/>
<polyline clip-path="url(#clip270)" style="stroke:#000000; stroke-linecap:round; stroke-linejoin:round; stroke-width:4; stroke-opacity:1; fill:none" points="
  156.274,158.671 175.172,158.671 
  "/>
<path clip-path="url(#clip270)" d="M63.0985 1227.7 Q59.4875 1227.7 57.6588 1231.27 Q55.8532 1234.81 55.8532 1241.94 Q55.8532 1249.05 57.6588 1252.61 Q59.4875 1256.15 63.0985 1256.15 Q66.7328 1256.15 68.5383 1252.61 Q70.367 1249.05 70.367 1241.94 Q70.367 1234.81 68.5383 1231.27 Q66.7328 1227.7 63.0985 1227.7 M63.0985 1224 Q68.9087 1224 71.9642 1228.61 Q75.0429 1233.19 75.0429 1241.94 Q75.0429 1250.67 71.9642 1255.27 Q68.9087 1259.86 63.0985 1259.86 Q57.2884 1259.86 54.2097 1255.27 Q51.1542 1250.67 51.1542 1241.94 Q51.1542 1233.19 54.2097 1228.61 Q57.2884 1224 63.0985 1224 Z" fill="#000000" fill-rule="evenodd" fill-opacity="1" /><path clip-path="url(#clip270)" d="M83.2605 1253.31 L88.1447 1253.31 L88.1447 1259.19 L83.2605 1259.19 L83.2605 1253.31 Z" fill="#000000" fill-rule="evenodd" fill-opacity="1" /><path clip-path="url(#clip270)" d="M108.33 1227.7 Q104.719 1227.7 102.89 1231.27 Q101.084 1234.81 101.084 1241.94 Q101.084 1249.05 102.89 1252.61 Q104.719 1256.15 108.33 1256.15 Q111.964 1256.15 113.77 1252.61 Q115.598 1249.05 115.598 1241.94 Q115.598 1234.81 113.77 1231.27 Q111.964 1227.7 108.33 1227.7 M108.33 1224 Q114.14 1224 117.195 1228.61 Q120.274 1233.19 120.274 1241.94 Q120.274 1250.67 117.195 1255.27 Q114.14 1259.86 108.33 1259.86 Q102.52 1259.86 99.4409 1255.27 Q96.3854 1250.67 96.3854 1241.94 Q96.3854 1233.19 99.4409 1228.61 Q102.52 1224 108.33 1224 Z" fill="#000000" fill-rule="evenodd" fill-opacity="1" /><path clip-path="url(#clip270)" d="M63.7467 956.896 Q60.1356 956.896 58.3069 960.461 Q56.5014 964.003 56.5014 971.132 Q56.5014 978.239 58.3069 981.803 Q60.1356 985.345 63.7467 985.345 Q67.3809 985.345 69.1865 981.803 Q71.0152 978.239 71.0152 971.132 Q71.0152 964.003 69.1865 960.461 Q67.3809 956.896 63.7467 956.896 M63.7467 953.192 Q69.5568 953.192 72.6124 957.799 Q75.6911 962.382 75.6911 971.132 Q75.6911 979.859 72.6124 984.465 Q69.5568 989.049 63.7467 989.049 Q57.9365 989.049 54.8578 984.465 Q51.8023 979.859 51.8023 971.132 Q51.8023 962.382 54.8578 957.799 Q57.9365 953.192 63.7467 953.192 Z" fill="#000000" fill-rule="evenodd" fill-opacity="1" /><path clip-path="url(#clip270)" d="M83.9086 982.498 L88.7928 982.498 L88.7928 988.377 L83.9086 988.377 L83.9086 982.498 Z" fill="#000000" fill-rule="evenodd" fill-opacity="1" /><path clip-path="url(#clip270)" d="M113.145 969.743 Q116.501 970.461 118.376 972.729 Q120.274 974.998 120.274 978.331 Q120.274 983.447 116.756 986.248 Q113.237 989.049 106.756 989.049 Q104.58 989.049 102.265 988.609 Q99.9733 988.192 97.5197 987.336 L97.5197 982.822 Q99.4641 983.956 101.779 984.535 Q104.094 985.114 106.617 985.114 Q111.015 985.114 113.307 983.377 Q115.621 981.641 115.621 978.331 Q115.621 975.276 113.469 973.563 Q111.339 971.827 107.52 971.827 L103.492 971.827 L103.492 967.984 L107.705 967.984 Q111.154 967.984 112.983 966.618 Q114.811 965.229 114.811 962.637 Q114.811 959.975 112.913 958.563 Q111.038 957.128 107.52 957.128 Q105.598 957.128 103.399 957.544 Q101.2 957.961 98.5613 958.841 L98.5613 954.674 Q101.223 953.933 103.538 953.563 Q105.876 953.192 107.936 953.192 Q113.26 953.192 116.362 955.623 Q119.464 958.03 119.464 962.151 Q119.464 965.021 117.82 967.012 Q116.177 968.979 113.145 969.743 Z" fill="#000000" fill-rule="evenodd" fill-opacity="1" /><path clip-path="url(#clip270)" d="M62.9365 686.087 Q59.3254 686.087 57.4967 689.652 Q55.6912 693.194 55.6912 700.323 Q55.6912 707.43 57.4967 710.995 Q59.3254 714.536 62.9365 714.536 Q66.5707 714.536 68.3763 710.995 Q70.205 707.43 70.205 700.323 Q70.205 693.194 68.3763 689.652 Q66.5707 686.087 62.9365 686.087 M62.9365 682.384 Q68.7467 682.384 71.8022 686.99 Q74.8809 691.573 74.8809 700.323 Q74.8809 709.05 71.8022 713.657 Q68.7467 718.24 62.9365 718.24 Q57.1264 718.24 54.0477 713.657 Q50.9921 709.05 50.9921 700.323 Q50.9921 691.573 54.0477 686.99 Q57.1264 682.384 62.9365 682.384 Z" fill="#000000" fill-rule="evenodd" fill-opacity="1" /><path clip-path="url(#clip270)" d="M83.0984 711.689 L87.9827 711.689 L87.9827 717.569 L83.0984 717.569 L83.0984 711.689 Z" fill="#000000" fill-rule="evenodd" fill-opacity="1" /><path clip-path="url(#clip270)" d="M108.746 698.425 Q105.598 698.425 103.746 700.578 Q101.918 702.731 101.918 706.481 Q101.918 710.207 103.746 712.383 Q105.598 714.536 108.746 714.536 Q111.895 714.536 113.723 712.383 Q115.575 710.207 115.575 706.481 Q115.575 702.731 113.723 700.578 Q111.895 698.425 108.746 698.425 M118.029 683.772 L118.029 688.032 Q116.27 687.198 114.464 686.759 Q112.682 686.319 110.922 686.319 Q106.293 686.319 103.839 689.444 Q101.409 692.569 101.061 698.888 Q102.427 696.874 104.487 695.809 Q106.547 694.721 109.024 694.721 Q114.233 694.721 117.242 697.893 Q120.274 701.041 120.274 706.481 Q120.274 711.805 117.126 715.022 Q113.978 718.24 108.746 718.24 Q102.751 718.24 99.5798 713.657 Q96.4085 709.05 96.4085 700.323 Q96.4085 692.129 100.297 687.268 Q104.186 682.384 110.737 682.384 Q112.496 682.384 114.279 682.731 Q116.084 683.078 118.029 683.772 Z" fill="#000000" fill-rule="evenodd" fill-opacity="1" /><path clip-path="url(#clip270)" d="M63.2837 415.278 Q59.6726 415.278 57.8439 418.843 Q56.0384 422.385 56.0384 429.514 Q56.0384 436.621 57.8439 440.186 Q59.6726 443.727 63.2837 443.727 Q66.918 443.727 68.7235 440.186 Q70.5522 436.621 70.5522 429.514 Q70.5522 422.385 68.7235 418.843 Q66.918 415.278 63.2837 415.278 M63.2837 411.575 Q69.0939 411.575 72.1494 416.181 Q75.2281 420.764 75.2281 429.514 Q75.2281 438.241 72.1494 442.848 Q69.0939 447.431 63.2837 447.431 Q57.4736 447.431 54.3949 442.848 Q51.3393 438.241 51.3393 429.514 Q51.3393 420.764 54.3949 416.181 Q57.4736 411.575 63.2837 411.575 Z" fill="#000000" fill-rule="evenodd" fill-opacity="1" /><path clip-path="url(#clip270)" d="M83.4457 440.88 L88.3299 440.88 L88.3299 446.76 L83.4457 446.76 L83.4457 440.88 Z" fill="#000000" fill-rule="evenodd" fill-opacity="1" /><path clip-path="url(#clip270)" d="M98.6539 446.042 L98.6539 441.783 Q100.413 442.616 102.219 443.056 Q104.024 443.496 105.76 443.496 Q110.39 443.496 112.82 440.394 Q115.274 437.269 115.621 430.926 Q114.279 432.917 112.219 433.982 Q110.158 435.047 107.658 435.047 Q102.473 435.047 99.4409 431.922 Q96.4317 428.774 96.4317 423.334 Q96.4317 418.01 99.5798 414.792 Q102.728 411.575 107.959 411.575 Q113.955 411.575 117.103 416.181 Q120.274 420.764 120.274 429.514 Q120.274 437.686 116.385 442.57 Q112.52 447.431 105.969 447.431 Q104.209 447.431 102.404 447.084 Q100.598 446.737 98.6539 446.042 M107.959 431.389 Q111.108 431.389 112.936 429.237 Q114.788 427.084 114.788 423.334 Q114.788 419.607 112.936 417.454 Q111.108 415.278 107.959 415.278 Q104.811 415.278 102.959 417.454 Q101.131 419.607 101.131 423.334 Q101.131 427.084 102.959 429.237 Q104.811 431.389 107.959 431.389 Z" fill="#000000" fill-rule="evenodd" fill-opacity="1" /><path clip-path="url(#clip270)" d="M55.506 172.016 L63.1448 172.016 L63.1448 145.65 L54.8347 147.317 L54.8347 143.058 L63.0985 141.391 L67.7744 141.391 L67.7744 172.016 L75.4133 172.016 L75.4133 175.951 L55.506 175.951 L55.506 172.016 Z" fill="#000000" fill-rule="evenodd" fill-opacity="1" /><path clip-path="url(#clip270)" d="M84.8577 170.071 L89.7419 170.071 L89.7419 175.951 L84.8577 175.951 L84.8577 170.071 Z" fill="#000000" fill-rule="evenodd" fill-opacity="1" /><path clip-path="url(#clip270)" d="M103.955 172.016 L120.274 172.016 L120.274 175.951 L98.3298 175.951 L98.3298 172.016 Q100.992 169.261 105.575 164.631 Q110.182 159.979 111.362 158.636 Q113.608 156.113 114.487 154.377 Q115.39 152.618 115.39 150.928 Q115.39 148.173 113.445 146.437 Q111.524 144.701 108.422 144.701 Q106.223 144.701 103.77 145.465 Q101.339 146.229 98.5613 147.78 L98.5613 143.058 Q101.385 141.923 103.839 141.345 Q106.293 140.766 108.33 140.766 Q113.7 140.766 116.895 143.451 Q120.089 146.136 120.089 150.627 Q120.089 152.757 119.279 154.678 Q118.492 156.576 116.385 159.169 Q115.807 159.84 112.705 163.057 Q109.603 166.252 103.955 172.016 Z" fill="#000000" fill-rule="evenodd" fill-opacity="1" /><polyline clip-path="url(#clip272)" style="stroke:#009af9; stroke-linecap:round; stroke-linejoin:round; stroke-width:16; stroke-opacity:1; fill:none" stroke-dasharray="8, 16" points="
  218.439,1106.32 228.852,1104.2 239.264,1092.64 249.677,1076.55 260.09,1062.08 270.503,1055.07 280.916,1059.68 291.329,1077.27 301.741,1105.61 312.154,1139.23 
  322.567,1171.73 332.98,1199.09 343.393,1221.99 353.805,1245 364.218,1272.81 374.631,1306.41 385.044,1342.22 395.457,1374.54 405.87,1398.83 416.282,1413.33 
  426.695,1418.92 437.108,1418.2 447.521,1414.2 457.934,1408.58 468.347,1400.39 478.759,1387.07 489.172,1366.74 499.585,1339.71 509.998,1308.06 520.411,1274.41 
  530.824,1240.83 541.236,1208.59 551.649,1178.28 562.062,1150.13 572.475,1124.45 582.888,1101.84 593.301,1083.28 603.713,1069.94 614.126,1062.7 624.539,1061.7 
  634.952,1066.41 645.365,1076.07 655.777,1090.51 666.19,1110.36 676.603,1136.11 687.016,1166.84 697.429,1199.95 707.842,1232.66 718.254,1263.54 728.667,1292.53 
  739.08,1320.1 749.493,1346.74 759.906,1372.41 770.319,1395.95 780.731,1414.79 791.144,1425.86 801.557,1427.11 811.97,1419.05 822.383,1404.68 832.796,1387.88 
  843.208,1371.45 853.621,1356.55 864.034,1342.69 874.447,1324.97 884.86,1291.35 895.273,1233.64 905.685,1170.71 916.098,1136.45 926.511,1128.09 936.924,1116.58 
  947.337,1092.81 957.749,1065.49 968.162,1050.36 978.575,1059.43 988.988,1088.3 999.401,1116.04 1009.81,1120.46 1020.23,1103.5 1030.64,1093.52 1041.05,1110.34 
  1051.46,1149.45 1061.88,1200.12 1072.29,1255.21 1082.7,1306.8 1093.12,1341.71 1103.53,1344.77 1113.94,1319.17 1124.35,1303.53 1134.77,1338.69 1145.18,1400.07 
  1155.59,1434.4 1166.01,1445.72 1176.42,1444.72 1186.83,1418.39 1197.24,1384.18 1207.66,1374.43 1218.07,1380.12 1228.48,1352.8 1238.9,1215.99 1249.31,934.994 
  1259.72,608.646 1270.13,390.176 1280.55,317.088 1290.96,320.786 1301.37,339.903 1311.79,352.863 1322.2,354.92 1332.61,345.495 1343.02,332.398 1353.44,324.873 
  1363.85,314.05 1374.26,287.114 1384.68,268.019 1395.09,293.413 1405.5,351.258 1415.91,402.564 1426.33,424.311 1436.74,411.888 1447.15,372.497 1457.57,321.956 
  1467.98,282.92 1478.39,273.13 1488.8,287.416 1499.22,305.759 1509.63,317.293 1520.04,328.548 1530.45,356.769 1540.87,403.524 1551.28,430.372 1561.69,423.873 
  1572.11,393.959 1582.52,348.574 1592.93,305.866 1603.34,271.002 1613.76,246.198 1624.17,243.694 1634.58,272.755 1645,326.647 1655.41,386.693 1665.82,433.485 
  1676.23,453.253 1686.65,439.623 1697.06,394.828 1707.47,330.584 1717.89,266.025 1728.3,221.736 1738.71,212.192 1749.12,240.453 1759.54,297.645 1769.95,366.951 
  1780.36,429.494 1790.78,469.118 1801.19,474.959 1811.6,443.015 1822.01,378.389 1832.43,297.241 1842.84,224.298 1853.25,183.565 1863.67,187.97 1874.08,236.528 
  1884.49,317.169 1894.9,407.766 1905.32,478.905 1915.73,505.841 1926.14,481.721 1936.56,418.607 1946.97,337.548 1957.38,258.978 1967.79,199.408 1978.21,172.011 
  1988.62,186.386 1999.03,245.201 2009.45,338.858 2019.86,442.47 2030.27,520.999 2040.68,544.144 2051.1,502.023 2061.51,409.103 2071.92,295.67 2082.33,196.201 
  2092.75,139.39 2103.16,139.561 2113.57,192.696 2123.99,281.189 2134.4,384.075 2144.81,482.679 2155.22,554.282 2165.64,564.182 2176.05,486.457 2186.46,346.264 
  2196.88,212.714 2207.29,139.862 2217.7,136.641 2228.11,183.265 2238.53,255.087 2248.94,333.517 2259.35,407.157 2269.77,470.339 2280.18,521.909 2290.59,563.815 
  
  "/>
<polyline clip-path="url(#clip272)" style="stroke:#e26f46; stroke-linecap:round; stroke-linejoin:round; stroke-width:4; stroke-opacity:1; fill:none" points="
  218.439,1106.32 228.852,1087.09 239.264,1072.9 249.677,1064.24 260.09,1061.37 270.503,1064.39 280.916,1073.21 291.329,1087.53 301.741,1106.89 312.154,1130.66 
  322.567,1158.06 332.98,1188.19 343.393,1220.08 353.805,1252.68 364.218,1284.93 374.631,1315.78 385.044,1344.21 395.457,1369.3 405.87,1390.24 416.282,1406.34 
  426.695,1417.07 437.108,1422.08 447.521,1421.21 457.934,1414.49 468.347,1402.14 478.759,1384.56 489.172,1362.32 499.585,1336.15 509.998,1306.91 520.411,1275.54 
  530.824,1243.08 541.236,1210.58 551.649,1179.1 562.062,1149.67 572.475,1123.25 582.888,1100.71 593.301,1082.77 603.713,1070.03 614.126,1062.89 624.539,1061.6 
  634.952,1066.19 645.365,1076.52 655.777,1092.25 666.19,1112.86 676.603,1137.68 687.016,1165.9 697.429,1196.61 707.842,1228.79 718.254,1261.4 728.667,1293.38 
  739.08,1323.67 749.493,1351.3 759.906,1375.35 770.319,1395.05 780.731,1409.76 791.144,1418.98 801.557,1422.42 811.97,1419.98 822.383,1411.72 832.796,1397.92 
  843.208,1379.03 853.621,1355.66 864.034,1328.58 874.447,1298.67 884.86,1266.91 895.273,1234.33 905.685,1202 916.098,1170.97 926.511,1142.26 936.924,1116.8 
  947.337,1095.42 957.749,1078.82 968.162,1067.55 978.575,1061.97 988.988,1062.26 999.401,1068.41 1009.81,1080.22 1020.23,1097.32 1030.64,1119.13 1041.05,1144.95 
  1051.46,1173.93 1061.88,1205.13 1072.29,1237.53 1082.7,1270.08 1093.12,1301.7 1103.53,1331.37 1113.94,1358.13 1124.35,1381.09 1134.77,1399.51 1145.18,1412.78 
  1155.59,1420.48 1166.01,1422.35 1176.42,1418.33 1186.83,1408.55 1197.24,1393.33 1207.66,1373.17 1218.07,1348.73 1228.48,1320.8 1238.9,1290.3 1249.31,1258.21 
  1259.72,337.899 1270.13,336.407 1280.55,337.765 1290.96,342.285 1301.37,348.582 1311.79,353.996 1322.2,355.599 1332.61,351.434 1343.02,341.504 1353.44,328.118 
  1363.85,315.38 1374.26,307.938 1384.68,309.366 1395.09,320.719 1405.5,339.816 1415.91,361.55 1426.33,379.249 1436.74,386.714 1447.15,380.323 1457.57,360.495 
  1467.98,331.974 1478.39,302.745 1488.8,281.797 1499.22,276.37 1509.63,289.526 1520.04,318.835 1530.45,356.686 1540.87,392.243 1551.28,414.544 1561.69,415.864 
  1572.11,394.32 1582.52,354.836 1592.93,308.097 1603.34,267.667 1613.76,246.055 1624.17,250.861 1634.58,282.194 1645,332.215 1655.41,387.05 1665.82,430.639 
  1676.23,449.432 1686.65,436.581 1697.06,394.323 1707.47,333.754 1717.89,271.946 1728.3,227.13 1738.71,213.328 1749.12,235.992 1759.54,290.011 1769.95,360.778 
  1780.36,428.122 1790.78,472.058 1801.19,478.713 1811.6,444.67 1822.01,378.381 1832.43,298.123 1842.84,226.968 1853.25,186.147 1863.67,188.728 1874.08,235.473 
  1884.49,314.188 1894.9,402.873 1905.32,475.862 1915.73,511.255 1926.14,497.473 1936.56,436.993 1946.97,346.062 1957.38,250.352 1967.79,177.717 1978.21,150.088 
  1988.62,176.863 1999.03,251.792 2009.45,354.355 2019.86,455.368 2030.27,525.289 2040.68,542.851 2051.1,501.515 2061.51,411.775 2071.92,298.542 2082.33,194.236 
  2092.75,129.505 2103.16,124.225 2113.57,181.419 2123.99,285.96 2134.4,408.536 2144.81,513.871 2155.22,570.868 2165.64,561.793 2176.05,487.753 2186.46,368.811 
  2196.88,238.573 2207.29,134.689 2217.7,87.9763 2228.11,113.282 2238.53,204.809 2248.94,337.356 2259.35,473.247 2269.77,573.038 2280.18,606.959 2290.59,563.795 
  
  "/>
<path clip-path="url(#clip270)" d="
M229.49 250.738 L700.371 250.738 L700.371 95.2176 L229.49 95.2176  Z
  " fill="#ffffff" fill-rule="evenodd" fill-opacity="1"/>
<polyline clip-path="url(#clip270)" style="stroke:#000000; stroke-linecap:round; stroke-linejoin:round; stroke-width:4; stroke-opacity:1; fill:none" points="
  229.49,250.738 700.371,250.738 700.371,95.2176 229.49,95.2176 229.49,250.738 
  "/>
<polyline clip-path="url(#clip270)" style="stroke:#009af9; stroke-linecap:round; stroke-linejoin:round; stroke-width:4; stroke-opacity:1; fill:none" stroke-dasharray="2, 4" points="
  253.896,147.058 400.328,147.058 
  "/>
<path clip-path="url(#clip270)" d="M429.409 133.62 L429.409 146.606 L435.289 146.606 Q438.552 146.606 440.335 144.916 Q442.117 143.227 442.117 140.102 Q442.117 137 440.335 135.31 Q438.552 133.62 435.289 133.62 L429.409 133.62 M424.733 129.778 L435.289 129.778 Q441.099 129.778 444.062 132.416 Q447.048 135.032 447.048 140.102 Q447.048 145.217 444.062 147.833 Q441.099 150.449 435.289 150.449 L429.409 150.449 L429.409 164.338 L424.733 164.338 L424.733 129.778 Z" fill="#000000" fill-rule="evenodd" fill-opacity="1" /><path clip-path="url(#clip270)" d="M467.325 142.393 Q466.608 141.977 465.751 141.791 Q464.918 141.583 463.899 141.583 Q460.288 141.583 458.344 143.944 Q456.423 146.282 456.423 150.68 L456.423 164.338 L452.14 164.338 L452.14 138.412 L456.423 138.412 L456.423 142.44 Q457.765 140.078 459.918 138.944 Q462.071 137.787 465.149 137.787 Q465.589 137.787 466.122 137.856 Q466.654 137.903 467.302 138.018 L467.325 142.393 Z" fill="#000000" fill-rule="evenodd" fill-opacity="1" /><path clip-path="url(#clip270)" d="M492.927 150.31 L492.927 152.393 L473.344 152.393 Q473.622 156.791 475.983 159.106 Q478.367 161.398 482.603 161.398 Q485.057 161.398 487.348 160.796 Q489.663 160.194 491.932 158.99 L491.932 163.018 Q489.64 163.99 487.233 164.5 Q484.825 165.009 482.348 165.009 Q476.145 165.009 472.511 161.398 Q468.899 157.787 468.899 151.629 Q468.899 145.264 472.325 141.537 Q475.774 137.787 481.608 137.787 Q486.839 137.787 489.872 141.166 Q492.927 144.523 492.927 150.31 M488.668 149.06 Q488.622 145.565 486.7 143.481 Q484.802 141.398 481.654 141.398 Q478.089 141.398 475.936 143.412 Q473.807 145.426 473.483 149.083 L488.668 149.06 Z" fill="#000000" fill-rule="evenodd" fill-opacity="1" /><path clip-path="url(#clip270)" d="M516.978 142.347 L516.978 128.319 L521.237 128.319 L521.237 164.338 L516.978 164.338 L516.978 160.449 Q515.635 162.763 513.575 163.898 Q511.538 165.009 508.668 165.009 Q503.969 165.009 501.006 161.259 Q498.066 157.509 498.066 151.398 Q498.066 145.287 501.006 141.537 Q503.969 137.787 508.668 137.787 Q511.538 137.787 513.575 138.921 Q515.635 140.032 516.978 142.347 M502.464 151.398 Q502.464 156.097 504.385 158.782 Q506.33 161.444 509.709 161.444 Q513.089 161.444 515.033 158.782 Q516.978 156.097 516.978 151.398 Q516.978 146.699 515.033 144.037 Q513.089 141.352 509.709 141.352 Q506.33 141.352 504.385 144.037 Q502.464 146.699 502.464 151.398 Z" fill="#000000" fill-rule="evenodd" fill-opacity="1" /><path clip-path="url(#clip270)" d="M530.01 138.412 L534.269 138.412 L534.269 164.338 L530.01 164.338 L530.01 138.412 M530.01 128.319 L534.269 128.319 L534.269 133.713 L530.01 133.713 L530.01 128.319 Z" fill="#000000" fill-rule="evenodd" fill-opacity="1" /><path clip-path="url(#clip270)" d="M561.839 139.407 L561.839 143.389 Q560.033 142.393 558.205 141.907 Q556.399 141.398 554.547 141.398 Q550.404 141.398 548.112 144.037 Q545.82 146.652 545.82 151.398 Q545.82 156.143 548.112 158.782 Q550.404 161.398 554.547 161.398 Q556.399 161.398 558.205 160.912 Q560.033 160.402 561.839 159.407 L561.839 163.342 Q560.056 164.176 558.135 164.592 Q556.237 165.009 554.084 165.009 Q548.228 165.009 544.779 161.328 Q541.33 157.648 541.33 151.398 Q541.33 145.055 544.802 141.421 Q548.297 137.787 554.362 137.787 Q556.33 137.787 558.205 138.203 Q560.08 138.597 561.839 139.407 Z" fill="#000000" fill-rule="evenodd" fill-opacity="1" /><path clip-path="url(#clip270)" d="M573.459 131.051 L573.459 138.412 L582.232 138.412 L582.232 141.722 L573.459 141.722 L573.459 155.796 Q573.459 158.967 574.316 159.87 Q575.195 160.773 577.857 160.773 L582.232 160.773 L582.232 164.338 L577.857 164.338 Q572.927 164.338 571.052 162.509 Q569.177 160.657 569.177 155.796 L569.177 141.722 L566.052 141.722 L566.052 138.412 L569.177 138.412 L569.177 131.051 L573.459 131.051 Z" fill="#000000" fill-rule="evenodd" fill-opacity="1" /><path clip-path="url(#clip270)" d="M587.834 138.412 L592.093 138.412 L592.093 164.338 L587.834 164.338 L587.834 138.412 M587.834 128.319 L592.093 128.319 L592.093 133.713 L587.834 133.713 L587.834 128.319 Z" fill="#000000" fill-rule="evenodd" fill-opacity="1" /><path clip-path="url(#clip270)" d="M611.051 141.398 Q607.626 141.398 605.635 144.083 Q603.644 146.745 603.644 151.398 Q603.644 156.051 605.612 158.736 Q607.602 161.398 611.051 161.398 Q614.454 161.398 616.445 158.713 Q618.436 156.027 618.436 151.398 Q618.436 146.791 616.445 144.106 Q614.454 141.398 611.051 141.398 M611.051 137.787 Q616.607 137.787 619.778 141.398 Q622.95 145.009 622.95 151.398 Q622.95 157.764 619.778 161.398 Q616.607 165.009 611.051 165.009 Q605.473 165.009 602.302 161.398 Q599.153 157.764 599.153 151.398 Q599.153 145.009 602.302 141.398 Q605.473 137.787 611.051 137.787 Z" fill="#000000" fill-rule="evenodd" fill-opacity="1" /><path clip-path="url(#clip270)" d="M651.561 148.689 L651.561 164.338 L647.301 164.338 L647.301 148.828 Q647.301 145.148 645.866 143.319 Q644.431 141.49 641.561 141.49 Q638.112 141.49 636.121 143.69 Q634.13 145.889 634.13 149.685 L634.13 164.338 L629.848 164.338 L629.848 138.412 L634.13 138.412 L634.13 142.44 Q635.658 140.102 637.718 138.944 Q639.801 137.787 642.51 137.787 Q646.977 137.787 649.269 140.565 Q651.561 143.319 651.561 148.689 Z" fill="#000000" fill-rule="evenodd" fill-opacity="1" /><polyline clip-path="url(#clip270)" style="stroke:#e26f46; stroke-linecap:round; stroke-linejoin:round; stroke-width:4; stroke-opacity:1; fill:none" points="
  253.896,198.898 400.328,198.898 
  "/>
<path clip-path="url(#clip270)" d="M424.733 181.618 L446.585 181.618 L446.585 185.553 L429.409 185.553 L429.409 195.784 L445.867 195.784 L445.867 199.719 L429.409 199.719 L429.409 212.242 L447.001 212.242 L447.001 216.178 L424.733 216.178 L424.733 181.618 Z" fill="#000000" fill-rule="evenodd" fill-opacity="1" /><path clip-path="url(#clip270)" d="M476.052 190.252 L466.677 202.867 L476.538 216.178 L471.515 216.178 L463.969 205.992 L456.423 216.178 L451.4 216.178 L461.469 202.613 L452.256 190.252 L457.279 190.252 L464.154 199.488 L471.029 190.252 L476.052 190.252 Z" fill="#000000" fill-rule="evenodd" fill-opacity="1" /><path clip-path="url(#clip270)" d="M494.339 203.145 Q489.177 203.145 487.186 204.326 Q485.196 205.506 485.196 208.354 Q485.196 210.622 486.677 211.965 Q488.182 213.284 490.751 213.284 Q494.293 213.284 496.422 210.784 Q498.575 208.261 498.575 204.094 L498.575 203.145 L494.339 203.145 M502.834 201.386 L502.834 216.178 L498.575 216.178 L498.575 212.242 Q497.117 214.603 494.941 215.738 Q492.765 216.849 489.617 216.849 Q485.635 216.849 483.274 214.627 Q480.936 212.381 480.936 208.631 Q480.936 204.256 483.853 202.034 Q486.793 199.812 492.603 199.812 L498.575 199.812 L498.575 199.395 Q498.575 196.455 496.631 194.858 Q494.71 193.238 491.214 193.238 Q488.992 193.238 486.885 193.77 Q484.779 194.303 482.835 195.367 L482.835 191.432 Q485.173 190.53 487.372 190.09 Q489.571 189.627 491.654 189.627 Q497.279 189.627 500.057 192.543 Q502.834 195.46 502.834 201.386 Z" fill="#000000" fill-rule="evenodd" fill-opacity="1" /><path clip-path="url(#clip270)" d="M530.265 191.247 L530.265 195.229 Q528.459 194.233 526.631 193.747 Q524.825 193.238 522.973 193.238 Q518.83 193.238 516.538 195.877 Q514.246 198.492 514.246 203.238 Q514.246 207.983 516.538 210.622 Q518.83 213.238 522.973 213.238 Q524.825 213.238 526.631 212.752 Q528.459 212.242 530.265 211.247 L530.265 215.182 Q528.482 216.016 526.561 216.432 Q524.663 216.849 522.51 216.849 Q516.654 216.849 513.205 213.168 Q509.756 209.488 509.756 203.238 Q509.756 196.895 513.228 193.261 Q516.723 189.627 522.788 189.627 Q524.756 189.627 526.631 190.043 Q528.506 190.437 530.265 191.247 Z" fill="#000000" fill-rule="evenodd" fill-opacity="1" /><path clip-path="url(#clip270)" d="M541.885 182.891 L541.885 190.252 L550.658 190.252 L550.658 193.562 L541.885 193.562 L541.885 207.636 Q541.885 210.807 542.742 211.71 Q543.621 212.613 546.283 212.613 L550.658 212.613 L550.658 216.178 L546.283 216.178 Q541.353 216.178 539.478 214.349 Q537.603 212.497 537.603 207.636 L537.603 193.562 L534.478 193.562 L534.478 190.252 L537.603 190.252 L537.603 182.891 L541.885 182.891 Z" fill="#000000" fill-rule="evenodd" fill-opacity="1" /></svg>
