<?xml version="1.0" encoding="utf-8"?>
<svg xmlns="http://www.w3.org/2000/svg" xmlns:xlink="http://www.w3.org/1999/xlink" width="600" height="400" viewBox="0 0 2400 1600">
<defs>
  <clipPath id="clip180">
    <rect x="0" y="0" width="2400" height="1600"/>
  </clipPath>
</defs>
<path clip-path="url(#clip180)" d="
M0 1600 L2400 1600 L2400 0 L0 0  Z
  " fill="#ffffff" fill-rule="evenodd" fill-opacity="1"/>
<defs>
  <clipPath id="clip181">
    <rect x="480" y="0" width="1681" height="1600"/>
  </clipPath>
</defs>
<path clip-path="url(#clip180)" d="
M156.274 1486.45 L2352.76 1486.45 L2352.76 47.2441 L156.274 47.2441  Z
  " fill="#ffffff" fill-rule="evenodd" fill-opacity="1"/>
<defs>
  <clipPath id="clip182">
    <rect x="156" y="47" width="2197" height="1440"/>
  </clipPath>
</defs>
<polyline clip-path="url(#clip182)" style="stroke:#000000; stroke-linecap:round; stroke-linejoin:round; stroke-width:2; stroke-opacity:0.1; fill:none" points="
  218.439,1486.45 218.439,47.2441 
  "/>
<polyline clip-path="url(#clip182)" style="stroke:#000000; stroke-linecap:round; stroke-linejoin:round; stroke-width:2; stroke-opacity:0.1; fill:none" points="
  736.477,1486.45 736.477,47.2441 
  "/>
<polyline clip-path="url(#clip182)" style="stroke:#000000; stroke-linecap:round; stroke-linejoin:round; stroke-width:2; stroke-opacity:0.1; fill:none" points="
  1254.52,1486.45 1254.52,47.2441 
  "/>
<polyline clip-path="url(#clip182)" style="stroke:#000000; stroke-linecap:round; stroke-linejoin:round; stroke-width:2; stroke-opacity:0.1; fill:none" points="
  1772.55,1486.45 1772.55,47.2441 
  "/>
<polyline clip-path="url(#clip182)" style="stroke:#000000; stroke-linecap:round; stroke-linejoin:round; stroke-width:2; stroke-opacity:0.1; fill:none" points="
  2290.59,1486.45 2290.59,47.2441 
  "/>
<polyline clip-path="url(#clip180)" style="stroke:#000000; stroke-linecap:round; stroke-linejoin:round; stroke-width:4; stroke-opacity:1; fill:none" points="
  156.274,1486.45 2352.76,1486.45 
  "/>
<polyline clip-path="url(#clip180)" style="stroke:#000000; stroke-linecap:round; stroke-linejoin:round; stroke-width:4; stroke-opacity:1; fill:none" points="
  218.439,1486.45 218.439,1467.55 
  "/>
<polyline clip-path="url(#clip180)" style="stroke:#000000; stroke-linecap:round; stroke-linejoin:round; stroke-width:4; stroke-opacity:1; fill:none" points="
  736.477,1486.45 736.477,1467.55 
  "/>
<polyline clip-path="url(#clip180)" style="stroke:#000000; stroke-linecap:round; stroke-linejoin:round; stroke-width:4; stroke-opacity:1; fill:none" points="
  1254.52,1486.45 1254.52,1467.55 
  "/>
<polyline clip-path="url(#clip180)" style="stroke:#000000; stroke-linecap:round; stroke-linejoin:round; stroke-width:4; stroke-opacity:1; fill:none" points="
  1772.55,1486.45 1772.55,1467.55 
  "/>
<polyline clip-path="url(#clip180)" style="stroke:#000000; stroke-linecap:round; stroke-linejoin:round; stroke-width:4; stroke-opacity:1; fill:none" points="
  2290.59,1486.45 2290.59,1467.55 
  "/>
<path clip-path="url(#clip180)" d="M164.967 1532.02 L194.643 1532.02 L194.643 1535.95 L164.967 1535.95 L164.967 1532.02 Z" fill="#000000" fill-rule="evenodd" fill-opacity="1" /><path clip-path="url(#clip180)" d="M205.545 1544.91 L213.184 1544.91 L213.184 1518.55 L204.874 1520.21 L204.874 1515.95 L213.138 1514.29 L217.814 1514.29 L217.814 1544.91 L225.453 1544.91 L225.453 1548.85 L205.545 1548.85 L205.545 1544.91 Z" fill="#000000" fill-rule="evenodd" fill-opacity="1" /><path clip-path="url(#clip180)" d="M234.897 1542.97 L239.781 1542.97 L239.781 1548.85 L234.897 1548.85 L234.897 1542.97 Z" fill="#000000" fill-rule="evenodd" fill-opacity="1" /><path clip-path="url(#clip180)" d="M259.966 1517.37 Q256.355 1517.37 254.527 1520.93 Q252.721 1524.47 252.721 1531.6 Q252.721 1538.71 254.527 1542.27 Q256.355 1545.82 259.966 1545.82 Q263.601 1545.82 265.406 1542.27 Q267.235 1538.71 267.235 1531.6 Q267.235 1524.47 265.406 1520.93 Q263.601 1517.37 259.966 1517.37 M259.966 1513.66 Q265.776 1513.66 268.832 1518.27 Q271.911 1522.85 271.911 1531.6 Q271.911 1540.33 268.832 1544.94 Q265.776 1549.52 259.966 1549.52 Q254.156 1549.52 251.077 1544.94 Q248.022 1540.33 248.022 1531.6 Q248.022 1522.85 251.077 1518.27 Q254.156 1513.66 259.966 1513.66 Z" fill="#000000" fill-rule="evenodd" fill-opacity="1" /><path clip-path="url(#clip180)" d="M683.503 1532.02 L713.178 1532.02 L713.178 1535.95 L683.503 1535.95 L683.503 1532.02 Z" fill="#000000" fill-rule="evenodd" fill-opacity="1" /><path clip-path="url(#clip180)" d="M733.271 1517.37 Q729.66 1517.37 727.831 1520.93 Q726.026 1524.47 726.026 1531.6 Q726.026 1538.71 727.831 1542.27 Q729.66 1545.82 733.271 1545.82 Q736.905 1545.82 738.711 1542.27 Q740.539 1538.71 740.539 1531.6 Q740.539 1524.47 738.711 1520.93 Q736.905 1517.37 733.271 1517.37 M733.271 1513.66 Q739.081 1513.66 742.137 1518.27 Q745.215 1522.85 745.215 1531.6 Q745.215 1540.33 742.137 1544.94 Q739.081 1549.52 733.271 1549.52 Q727.461 1549.52 724.382 1544.94 Q721.327 1540.33 721.327 1531.6 Q721.327 1522.85 724.382 1518.27 Q727.461 1513.66 733.271 1513.66 Z" fill="#000000" fill-rule="evenodd" fill-opacity="1" /><path clip-path="url(#clip180)" d="M753.433 1542.97 L758.317 1542.97 L758.317 1548.85 L753.433 1548.85 L753.433 1542.97 Z" fill="#000000" fill-rule="evenodd" fill-opacity="1" /><path clip-path="url(#clip180)" d="M768.548 1514.29 L786.905 1514.29 L786.905 1518.22 L772.831 1518.22 L772.831 1526.7 Q773.849 1526.35 774.868 1526.19 Q775.886 1526 776.905 1526 Q782.692 1526 786.072 1529.17 Q789.451 1532.34 789.451 1537.76 Q789.451 1543.34 785.979 1546.44 Q782.507 1549.52 776.187 1549.52 Q774.011 1549.52 771.743 1549.15 Q769.498 1548.78 767.09 1548.04 L767.09 1543.34 Q769.173 1544.47 771.396 1545.03 Q773.618 1545.58 776.095 1545.58 Q780.099 1545.58 782.437 1543.48 Q784.775 1541.37 784.775 1537.76 Q784.775 1534.15 782.437 1532.04 Q780.099 1529.94 776.095 1529.94 Q774.22 1529.94 772.345 1530.35 Q770.493 1530.77 768.548 1531.65 L768.548 1514.29 Z" fill="#000000" fill-rule="evenodd" fill-opacity="1" /><path clip-path="url(#clip180)" d="M1231.9 1517.37 Q1228.29 1517.37 1226.46 1520.93 Q1224.65 1524.47 1224.65 1531.6 Q1224.65 1538.71 1226.46 1542.27 Q1228.29 1545.82 1231.9 1545.82 Q1235.53 1545.82 1237.34 1542.27 Q1239.17 1538.71 1239.17 1531.6 Q1239.17 1524.47 1237.34 1520.93 Q1235.53 1517.37 1231.9 1517.37 M1231.9 1513.66 Q1237.71 1513.66 1240.77 1518.27 Q1243.84 1522.85 1243.84 1531.6 Q1243.84 1540.33 1240.77 1544.94 Q1237.71 1549.52 1231.9 1549.52 Q1226.09 1549.52 1223.01 1544.94 Q1219.96 1540.33 1219.96 1531.6 Q1219.96 1522.85 1223.01 1518.27 Q1226.09 1513.66 1231.9 1513.66 Z" fill="#000000" fill-rule="evenodd" fill-opacity="1" /><path clip-path="url(#clip180)" d="M1252.06 1542.97 L1256.95 1542.97 L1256.95 1548.85 L1252.06 1548.85 L1252.06 1542.97 Z" fill="#000000" fill-rule="evenodd" fill-opacity="1" /><path clip-path="url(#clip180)" d="M1277.13 1517.37 Q1273.52 1517.37 1271.69 1520.93 Q1269.89 1524.47 1269.89 1531.6 Q1269.89 1538.71 1271.69 1542.27 Q1273.52 1545.82 1277.13 1545.82 Q1280.76 1545.82 1282.57 1542.27 Q1284.4 1538.71 1284.4 1531.6 Q1284.4 1524.47 1282.57 1520.93 Q1280.76 1517.37 1277.13 1517.37 M1277.13 1513.66 Q1282.94 1513.66 1286 1518.27 Q1289.08 1522.85 1289.08 1531.6 Q1289.08 1540.33 1286 1544.94 Q1282.94 1549.52 1277.13 1549.52 Q1271.32 1549.52 1268.24 1544.94 Q1265.19 1540.33 1265.19 1531.6 Q1265.19 1522.85 1268.24 1518.27 Q1271.32 1513.66 1277.13 1513.66 Z" fill="#000000" fill-rule="evenodd" fill-opacity="1" /><path clip-path="url(#clip180)" d="M1750.44 1517.37 Q1746.82 1517.37 1745 1520.93 Q1743.19 1524.47 1743.19 1531.6 Q1743.19 1538.71 1745 1542.27 Q1746.82 1545.82 1750.44 1545.82 Q1754.07 1545.82 1755.88 1542.27 Q1757.7 1538.71 1757.7 1531.6 Q1757.7 1524.47 1755.88 1520.93 Q1754.07 1517.37 1750.44 1517.37 M1750.44 1513.66 Q1756.25 1513.66 1759.3 1518.27 Q1762.38 1522.85 1762.38 1531.6 Q1762.38 1540.33 1759.3 1544.94 Q1756.25 1549.52 1750.44 1549.52 Q1744.63 1549.52 1741.55 1544.94 Q1738.49 1540.33 1738.49 1531.6 Q1738.49 1522.85 1741.55 1518.27 Q1744.63 1513.66 1750.44 1513.66 Z" fill="#000000" fill-rule="evenodd" fill-opacity="1" /><path clip-path="url(#clip180)" d="M1770.6 1542.97 L1775.48 1542.97 L1775.48 1548.85 L1770.6 1548.85 L1770.6 1542.97 Z" fill="#000000" fill-rule="evenodd" fill-opacity="1" /><path clip-path="url(#clip180)" d="M1785.71 1514.29 L1804.07 1514.29 L1804.07 1518.22 L1790 1518.22 L1790 1526.7 Q1791.01 1526.35 1792.03 1526.19 Q1793.05 1526 1794.07 1526 Q1799.86 1526 1803.24 1529.17 Q1806.62 1532.34 1806.62 1537.76 Q1806.62 1543.34 1803.14 1546.44 Q1799.67 1549.52 1793.35 1549.52 Q1791.18 1549.52 1788.91 1549.15 Q1786.66 1548.78 1784.25 1548.04 L1784.25 1543.34 Q1786.34 1544.47 1788.56 1545.03 Q1790.78 1545.58 1793.26 1545.58 Q1797.26 1545.58 1799.6 1543.48 Q1801.94 1541.37 1801.94 1537.76 Q1801.94 1534.15 1799.6 1532.04 Q1797.26 1529.94 1793.26 1529.94 Q1791.38 1529.94 1789.51 1530.35 Q1787.66 1530.77 1785.71 1531.65 L1785.71 1514.29 Z" fill="#000000" fill-rule="evenodd" fill-opacity="1" /><path clip-path="url(#clip180)" d="M2257.74 1544.91 L2265.38 1544.91 L2265.38 1518.55 L2257.07 1520.21 L2257.07 1515.95 L2265.34 1514.29 L2270.01 1514.29 L2270.01 1544.91 L2277.65 1544.91 L2277.65 1548.85 L2257.74 1548.85 L2257.74 1544.91 Z" fill="#000000" fill-rule="evenodd" fill-opacity="1" /><path clip-path="url(#clip180)" d="M2287.1 1542.97 L2291.98 1542.97 L2291.98 1548.85 L2287.1 1548.85 L2287.1 1542.97 Z" fill="#000000" fill-rule="evenodd" fill-opacity="1" /><path clip-path="url(#clip180)" d="M2312.17 1517.37 Q2308.55 1517.37 2306.73 1520.93 Q2304.92 1524.47 2304.92 1531.6 Q2304.92 1538.71 2306.73 1542.27 Q2308.55 1545.82 2312.17 1545.82 Q2315.8 1545.82 2317.61 1542.27 Q2319.43 1538.71 2319.43 1531.6 Q2319.43 1524.47 2317.61 1520.93 Q2315.8 1517.37 2312.17 1517.37 M2312.17 1513.66 Q2317.98 1513.66 2321.03 1518.27 Q2324.11 1522.85 2324.11 1531.6 Q2324.11 1540.33 2321.03 1544.94 Q2317.98 1549.52 2312.17 1549.52 Q2306.36 1549.52 2303.28 1544.94 Q2300.22 1540.33 2300.22 1531.6 Q2300.22 1522.85 2303.28 1518.27 Q2306.36 1513.66 2312.17 1513.66 Z" fill="#000000" fill-rule="evenodd" fill-opacity="1" /><polyline clip-path="url(#clip182)" style="stroke:#000000; stroke-linecap:round; stroke-linejoin:round; stroke-width:2; stroke-opacity:0.1; fill:none" points="
  156.274,1262.05 2352.76,1262.05 
  "/>
<polyline clip-path="url(#clip182)" style="stroke:#000000; stroke-linecap:round; stroke-linejoin:round; stroke-width:2; stroke-opacity:0.1; fill:none" points="
  156.274,986.511 2352.76,986.511 
  "/>
<polyline clip-path="url(#clip182)" style="stroke:#000000; stroke-linecap:round; stroke-linejoin:round; stroke-width:2; stroke-opacity:0.1; fill:none" points="
  156.274,710.976 2352.76,710.976 
  "/>
<polyline clip-path="url(#clip182)" style="stroke:#000000; stroke-linecap:round; stroke-linejoin:round; stroke-width:2; stroke-opacity:0.1; fill:none" points="
  156.274,435.44 2352.76,435.44 
  "/>
<polyline clip-path="url(#clip182)" style="stroke:#000000; stroke-linecap:round; stroke-linejoin:round; stroke-width:2; stroke-opacity:0.1; fill:none" points="
  156.274,159.905 2352.76,159.905 
  "/>
<polyline clip-path="url(#clip180)" style="stroke:#000000; stroke-linecap:round; stroke-linejoin:round; stroke-width:4; stroke-opacity:1; fill:none" points="
  156.274,1486.45 156.274,47.2441 
  "/>
<polyline clip-path="url(#clip180)" style="stroke:#000000; stroke-linecap:round; stroke-linejoin:round; stroke-width:4; stroke-opacity:1; fill:none" points="
  156.274,1262.05 175.172,1262.05 
  "/>
<polyline clip-path="url(#clip180)" style="stroke:#000000; stroke-linecap:round; stroke-linejoin:round; stroke-width:4; stroke-opacity:1; fill:none" points="
  156.274,986.511 175.172,986.511 
  "/>
<polyline clip-path="url(#clip180)" style="stroke:#000000; stroke-linecap:round; stroke-linejoin:round; stroke-width:4; stroke-opacity:1; fill:none" points="
  156.274,710.976 175.172,710.976 
  "/>
<polyline clip-path="url(#clip180)" style="stroke:#000000; stroke-linecap:round; stroke-linejoin:round; stroke-width:4; stroke-opacity:1; fill:none" points="
  156.274,435.44 175.172,435.44 
  "/>
<polyline clip-path="url(#clip180)" style="stroke:#000000; stroke-linecap:round; stroke-linejoin:round; stroke-width:4; stroke-opacity:1; fill:none" points="
  156.274,159.905 175.172,159.905 
  "/>
<path clip-path="url(#clip180)" d="M63.0985 1247.85 Q59.4875 1247.85 57.6588 1251.41 Q55.8532 1254.95 55.8532 1262.08 Q55.8532 1269.19 57.6588 1272.75 Q59.4875 1276.29 63.0985 1276.29 Q66.7328 1276.29 68.5383 1272.75 Q70.367 1269.19 70.367 1262.08 Q70.367 1254.95 68.5383 1251.41 Q66.7328 1247.85 63.0985 1247.85 M63.0985 1244.14 Q68.9087 1244.14 71.9642 1248.75 Q75.0429 1253.33 75.0429 1262.08 Q75.0429 1270.81 71.9642 1275.41 Q68.9087 1280 63.0985 1280 Q57.2884 1280 54.2097 1275.41 Q51.1542 1270.81 51.1542 1262.08 Q51.1542 1253.33 54.2097 1248.75 Q57.2884 1244.14 63.0985 1244.14 Z" fill="#000000" fill-rule="evenodd" fill-opacity="1" /><path clip-path="url(#clip180)" d="M83.2605 1273.45 L88.1447 1273.45 L88.1447 1279.33 L83.2605 1279.33 L83.2605 1273.45 Z" fill="#000000" fill-rule="evenodd" fill-opacity="1" /><path clip-path="url(#clip180)" d="M108.33 1247.85 Q104.719 1247.85 102.89 1251.41 Q101.084 1254.95 101.084 1262.08 Q101.084 1269.19 102.89 1272.75 Q104.719 1276.29 108.33 1276.29 Q111.964 1276.29 113.77 1272.75 Q115.598 1269.19 115.598 1262.08 Q115.598 1254.95 113.77 1251.41 Q111.964 1247.85 108.33 1247.85 M108.33 1244.14 Q114.14 1244.14 117.195 1248.75 Q120.274 1253.33 120.274 1262.08 Q120.274 1270.81 117.195 1275.41 Q114.14 1280 108.33 1280 Q102.52 1280 99.4409 1275.41 Q96.3854 1270.81 96.3854 1262.08 Q96.3854 1253.33 99.4409 1248.75 Q102.52 1244.14 108.33 1244.14 Z" fill="#000000" fill-rule="evenodd" fill-opacity="1" /><path clip-path="url(#clip180)" d="M63.7467 972.31 Q60.1356 972.31 58.3069 975.875 Q56.5014 979.417 56.5014 986.546 Q56.5014 993.653 58.3069 997.217 Q60.1356 1000.76 63.7467 1000.76 Q67.3809 1000.76 69.1865 997.217 Q71.0152 993.653 71.0152 986.546 Q71.0152 979.417 69.1865 975.875 Q67.3809 972.31 63.7467 972.31 M63.7467 968.606 Q69.5568 968.606 72.6124 973.213 Q75.6911 977.796 75.6911 986.546 Q75.6911 995.273 72.6124 999.879 Q69.5568 1004.46 63.7467 1004.46 Q57.9365 1004.46 54.8578 999.879 Q51.8023 995.273 51.8023 986.546 Q51.8023 977.796 54.8578 973.213 Q57.9365 968.606 63.7467 968.606 Z" fill="#000000" fill-rule="evenodd" fill-opacity="1" /><path clip-path="url(#clip180)" d="M83.9086 997.912 L88.7928 997.912 L88.7928 1003.79 L83.9086 1003.79 L83.9086 997.912 Z" fill="#000000" fill-rule="evenodd" fill-opacity="1" /><path clip-path="url(#clip180)" d="M113.145 985.157 Q116.501 985.875 118.376 988.143 Q120.274 990.412 120.274 993.745 Q120.274 998.861 116.756 1001.66 Q113.237 1004.46 106.756 1004.46 Q104.58 1004.46 102.265 1004.02 Q99.9733 1003.61 97.5197 1002.75 L97.5197 998.236 Q99.4641 999.37 101.779 999.949 Q104.094 1000.53 106.617 1000.53 Q111.015 1000.53 113.307 998.791 Q115.621 997.055 115.621 993.745 Q115.621 990.69 113.469 988.977 Q111.339 987.241 107.52 987.241 L103.492 987.241 L103.492 983.398 L107.705 983.398 Q111.154 983.398 112.983 982.032 Q114.811 980.643 114.811 978.051 Q114.811 975.389 112.913 973.977 Q111.038 972.542 107.52 972.542 Q105.598 972.542 103.399 972.958 Q101.2 973.375 98.5613 974.255 L98.5613 970.088 Q101.223 969.347 103.538 968.977 Q105.876 968.606 107.936 968.606 Q113.26 968.606 116.362 971.037 Q119.464 973.444 119.464 977.565 Q119.464 980.435 117.82 982.426 Q116.177 984.393 113.145 985.157 Z" fill="#000000" fill-rule="evenodd" fill-opacity="1" /><path clip-path="url(#clip180)" d="M62.9365 696.775 Q59.3254 696.775 57.4967 700.339 Q55.6912 703.881 55.6912 711.011 Q55.6912 718.117 57.4967 721.682 Q59.3254 725.223 62.9365 725.223 Q66.5707 725.223 68.3763 721.682 Q70.205 718.117 70.205 711.011 Q70.205 703.881 68.3763 700.339 Q66.5707 696.775 62.9365 696.775 M62.9365 693.071 Q68.7467 693.071 71.8022 697.677 Q74.8809 702.261 74.8809 711.011 Q74.8809 719.737 71.8022 724.344 Q68.7467 728.927 62.9365 728.927 Q57.1264 728.927 54.0477 724.344 Q50.9921 719.737 50.9921 711.011 Q50.9921 702.261 54.0477 697.677 Q57.1264 693.071 62.9365 693.071 Z" fill="#000000" fill-rule="evenodd" fill-opacity="1" /><path clip-path="url(#clip180)" d="M83.0984 722.376 L87.9827 722.376 L87.9827 728.256 L83.0984 728.256 L83.0984 722.376 Z" fill="#000000" fill-rule="evenodd" fill-opacity="1" /><path clip-path="url(#clip180)" d="M108.746 709.112 Q105.598 709.112 103.746 711.265 Q101.918 713.418 101.918 717.168 Q101.918 720.895 103.746 723.071 Q105.598 725.223 108.746 725.223 Q111.895 725.223 113.723 723.071 Q115.575 720.895 115.575 717.168 Q115.575 713.418 113.723 711.265 Q111.895 709.112 108.746 709.112 M118.029 694.46 L118.029 698.719 Q116.27 697.886 114.464 697.446 Q112.682 697.006 110.922 697.006 Q106.293 697.006 103.839 700.131 Q101.409 703.256 101.061 709.575 Q102.427 707.562 104.487 706.497 Q106.547 705.409 109.024 705.409 Q114.233 705.409 117.242 708.58 Q120.274 711.728 120.274 717.168 Q120.274 722.492 117.126 725.71 Q113.978 728.927 108.746 728.927 Q102.751 728.927 99.5798 724.344 Q96.4085 719.737 96.4085 711.011 Q96.4085 702.816 100.297 697.955 Q104.186 693.071 110.737 693.071 Q112.496 693.071 114.279 693.418 Q116.084 693.765 118.029 694.46 Z" fill="#000000" fill-rule="evenodd" fill-opacity="1" /><path clip-path="url(#clip180)" d="M63.2837 421.239 Q59.6726 421.239 57.8439 424.804 Q56.0384 428.345 56.0384 435.475 Q56.0384 442.581 57.8439 446.146 Q59.6726 449.688 63.2837 449.688 Q66.918 449.688 68.7235 446.146 Q70.5522 442.581 70.5522 435.475 Q70.5522 428.345 68.7235 424.804 Q66.918 421.239 63.2837 421.239 M63.2837 417.535 Q69.0939 417.535 72.1494 422.142 Q75.2281 426.725 75.2281 435.475 Q75.2281 444.202 72.1494 448.808 Q69.0939 453.392 63.2837 453.392 Q57.4736 453.392 54.3949 448.808 Q51.3393 444.202 51.3393 435.475 Q51.3393 426.725 54.3949 422.142 Q57.4736 417.535 63.2837 417.535 Z" fill="#000000" fill-rule="evenodd" fill-opacity="1" /><path clip-path="url(#clip180)" d="M83.4457 446.841 L88.3299 446.841 L88.3299 452.72 L83.4457 452.72 L83.4457 446.841 Z" fill="#000000" fill-rule="evenodd" fill-opacity="1" /><path clip-path="url(#clip180)" d="M98.6539 452.003 L98.6539 447.743 Q100.413 448.577 102.219 449.017 Q104.024 449.456 105.76 449.456 Q110.39 449.456 112.82 446.355 Q115.274 443.23 115.621 436.887 Q114.279 438.878 112.219 439.943 Q110.158 441.007 107.658 441.007 Q102.473 441.007 99.4409 437.882 Q96.4317 434.734 96.4317 429.295 Q96.4317 423.97 99.5798 420.753 Q102.728 417.535 107.959 417.535 Q113.955 417.535 117.103 422.142 Q120.274 426.725 120.274 435.475 Q120.274 443.646 116.385 448.531 Q112.52 453.392 105.969 453.392 Q104.209 453.392 102.404 453.044 Q100.598 452.697 98.6539 452.003 M107.959 437.35 Q111.108 437.35 112.936 435.197 Q114.788 433.045 114.788 429.295 Q114.788 425.568 112.936 423.415 Q111.108 421.239 107.959 421.239 Q104.811 421.239 102.959 423.415 Q101.131 425.568 101.131 429.295 Q101.131 433.045 102.959 435.197 Q104.811 437.35 107.959 437.35 Z" fill="#000000" fill-rule="evenodd" fill-opacity="1" /><path clip-path="url(#clip180)" d="M55.506 173.25 L63.1448 173.25 L63.1448 146.884 L54.8347 148.551 L54.8347 144.291 L63.0985 142.625 L67.7744 142.625 L67.7744 173.25 L75.4133 173.25 L75.4133 177.185 L55.506 177.185 L55.506 173.25 Z" fill="#000000" fill-rule="evenodd" fill-opacity="1" /><path clip-path="url(#clip180)" d="M84.8577 171.305 L89.7419 171.305 L89.7419 177.185 L84.8577 177.185 L84.8577 171.305 Z" fill="#000000" fill-rule="evenodd" fill-opacity="1" /><path clip-path="url(#clip180)" d="M103.955 173.25 L120.274 173.25 L120.274 177.185 L98.3298 177.185 L98.3298 173.25 Q100.992 170.495 105.575 165.865 Q110.182 161.213 111.362 159.87 Q113.608 157.347 114.487 155.611 Q115.39 153.852 115.39 152.162 Q115.39 149.407 113.445 147.671 Q111.524 145.935 108.422 145.935 Q106.223 145.935 103.77 146.699 Q101.339 147.463 98.5613 149.014 L98.5613 144.291 Q101.385 143.157 103.839 142.578 Q106.293 142 108.33 142 Q113.7 142 116.895 144.685 Q120.089 147.37 120.089 151.861 Q120.089 153.99 119.279 155.912 Q118.492 157.81 116.385 160.402 Q115.807 161.074 112.705 164.291 Q109.603 167.486 103.955 173.25 Z" fill="#000000" fill-rule="evenodd" fill-opacity="1" /><polyline clip-path="url(#clip182)" style="stroke:#009af9; stroke-linecap:round; stroke-linejoin:round; stroke-width:16; stroke-opacity:1; fill:none" stroke-dasharray="8, 16" points="
  218.439,1239.95 228.852,1239.94 239.264,1239.93 249.677,1239.92 260.09,1239.9 270.503,1239.89 280.916,1239.88 291.329,1239.87 301.741,1239.86 312.154,1239.85 
  322.567,1239.83 332.98,1239.82 343.393,1239.81 353.805,1239.8 364.218,1239.79 374.631,1239.78 385.044,1239.77 395.457,1239.75 405.87,1239.74 416.282,1239.73 
  426.695,1239.72 437.108,1239.71 447.521,1239.7 457.934,1239.68 468.347,1239.67 478.759,1239.66 489.172,1239.65 499.585,1239.64 509.998,1239.63 520.411,1239.62 
  530.824,1239.6 541.236,1239.59 551.649,1239.58 562.062,1239.57 572.475,1239.56 582.888,1239.55 593.301,1239.54 603.713,1239.52 614.126,1239.51 624.539,1239.5 
  634.952,1239.49 645.365,1239.48 655.777,1239.47 666.19,1239.45 676.603,1239.44 687.016,1239.43 697.429,1239.42 707.842,1239.41 718.254,1239.4 728.667,1239.39 
  739.08,1239.37 749.493,1239.36 759.906,1239.35 770.319,1239.34 780.731,1239.33 791.144,1239.32 801.557,1239.3 811.97,1239.29 822.383,1239.28 832.796,1239.27 
  843.208,1239.26 853.621,1239.25 864.034,1239.24 874.447,1239.22 884.86,1239.21 895.273,1239.2 905.685,1239.19 916.098,1239.18 926.511,1239.17 936.924,1239.16 
  947.337,1239.14 957.749,1239.13 968.162,1239.12 978.575,1239.11 988.988,1239.1 999.401,1239.09 1009.81,1239.07 1020.23,1239.06 1030.64,1239.05 1041.05,1239.04 
  1051.46,1239.03 1061.88,1239.02 1072.29,1259.28 1082.7,1290.49 1093.12,1321.86 1103.53,1353.18 1113.94,1379.91 1124.35,1402.85 1134.77,1422.36 1145.18,1438.82 
  1155.59,1438.32 1166.01,1439.58 1176.42,1433.91 1186.83,1428.41 1197.24,1428.62 1207.66,1427.61 1218.07,1412.48 1228.48,1377.97 1238.9,1204.19 1249.31,951.946 
  1259.72,626.227 1270.13,398.628 1280.55,321.387 1290.96,309.691 1301.37,321.051 1311.79,344.446 1322.2,354.512 1332.61,346.426 1343.02,338.34 1353.44,330.147 
  1363.85,325.084 1374.26,326.256 1384.68,329.006 1395.09,332.553 1405.5,340.421 1415.91,348.473 1426.33,356.351 1436.74,364.229 1447.15,366.926 1457.57,361.898 
  1467.98,356.869 1478.39,351.84 1488.8,347.935 1499.22,347.605 1509.63,347.274 1520.04,346.944 1530.45,346.613 1540.87,346.283 1551.28,345.953 1561.69,345.622 
  1572.11,345.292 1582.52,344.962 1592.93,344.632 1603.34,344.301 1613.76,343.971 1624.17,343.64 1634.58,343.31 1645,342.98 1655.41,342.649 1665.82,342.319 
  1676.23,341.989 1686.65,341.659 1697.06,341.328 1707.47,340.998 1717.89,340.667 1728.3,340.337 1738.71,340.007 1749.12,339.676 1759.54,339.346 1769.95,339.016 
  1780.36,338.685 1790.78,338.355 1801.19,338.025 1811.6,337.695 1822.01,337.364 1832.43,337.034 1842.84,336.703 1853.25,336.373 1863.67,336.043 1874.08,336.647 
  1884.49,337.806 1894.9,338.966 1905.32,340.125 1915.73,340.2 1926.14,340.198 1936.56,340.198 1946.97,340.197 1957.38,340.196 1967.79,340.195 1978.21,340.195 
  1988.62,340.194 1999.03,340.193 2009.45,340.193 2019.86,340.192 2030.27,340.191 2040.68,340.19 2051.1,340.19 2061.51,340.189 2071.92,340.188 2082.33,340.187 
  2092.75,340.186 2103.16,340.186 2113.57,340.185 2123.99,340.184 2134.4,343.654 2144.81,348.681 2155.22,353.708 2165.64,358.736 2176.05,363.763 2186.46,368.79 
  2196.88,373.817 2207.29,378.844 2217.7,383.871 2228.11,388.898 2238.53,393.926 2248.94,398.952 2259.35,403.98 2269.77,409.006 2280.18,414.034 2290.59,419.061 
  
  "/>
<polyline clip-path="url(#clip182)" style="stroke:#e26f46; stroke-linecap:round; stroke-linejoin:round; stroke-width:4; stroke-opacity:1; fill:none" points="
  218.439,1124.1 228.852,1104.53 239.264,1090.1 249.677,1081.28 260.09,1078.36 270.503,1081.43 280.916,1090.4 291.329,1104.98 301.741,1124.68 312.154,1148.86 
  322.567,1176.74 332.98,1207.4 343.393,1239.84 353.805,1273.01 364.218,1305.82 374.631,1337.21 385.044,1366.14 395.457,1391.67 405.87,1412.97 416.282,1429.35 
  426.695,1440.26 437.108,1445.36 447.521,1444.48 457.934,1437.64 468.347,1425.07 478.759,1407.19 489.172,1384.56 499.585,1357.94 509.998,1328.18 520.411,1296.27 
  530.824,1263.24 541.236,1230.17 551.649,1198.14 562.062,1168.2 572.475,1141.32 582.888,1118.38 593.301,1100.13 603.713,1087.17 614.126,1079.91 624.539,1078.59 
  634.952,1083.27 645.365,1093.78 655.777,1109.78 666.19,1130.75 676.603,1156 687.016,1184.72 697.429,1215.96 707.842,1248.7 718.254,1281.88 728.667,1314.42 
  739.08,1345.24 749.493,1373.35 759.906,1397.82 770.319,1417.87 780.731,1432.83 791.144,1442.21 801.557,1445.72 811.97,1443.23 822.383,1434.82 832.796,1420.78 
  843.208,1401.56 853.621,1377.78 864.034,1350.23 874.447,1319.8 884.86,1287.48 895.273,1254.34 905.685,1221.44 916.098,1189.87 926.511,1160.66 936.924,1134.76 
  947.337,1113.01 957.749,1096.12 968.162,1084.65 978.575,1078.97 988.988,1079.26 999.401,1085.52 1009.81,1097.54 1020.23,1114.93 1030.64,1137.13 1041.05,1163.39 
  1051.46,1192.88 1061.88,1224.63 1072.29,1257.6 1082.7,1290.71 1093.12,1322.88 1103.53,1353.08 1113.94,1380.3 1124.35,1403.66 1134.77,1422.4 1145.18,1435.9 
  1155.59,1443.73 1166.01,1445.64 1176.42,1441.55 1186.83,1431.6 1197.24,1416.12 1207.66,1395.61 1218.07,1370.74 1228.48,1342.32 1238.9,1311.28 1249.31,1278.64 
  1259.72,342.261 1270.13,340.743 1280.55,342.125 1290.96,346.724 1301.37,353.131 1311.79,358.639 1322.2,360.27 1332.61,356.032 1343.02,345.929 1353.44,332.309 
  1363.85,319.349 1374.26,311.777 1384.68,313.23 1395.09,324.782 1405.5,344.212 1415.91,366.325 1426.33,384.332 1436.74,391.928 1447.15,385.426 1457.57,365.251 
  1467.98,336.233 1478.39,306.494 1488.8,285.18 1499.22,279.658 1509.63,293.043 1520.04,322.864 1530.45,361.377 1540.87,397.554 1551.28,420.244 1561.69,421.587 
  1572.11,399.667 1582.52,359.493 1592.93,311.939 1603.34,270.804 1613.76,248.814 1624.17,253.704 1634.58,285.584 1645,336.478 1655.41,392.27 1665.82,436.62 
  1676.23,455.741 1686.65,442.665 1697.06,399.67 1707.47,338.044 1717.89,275.157 1728.3,229.559 1738.71,215.516 1749.12,238.575 1759.54,293.538 1769.95,365.54 
  1780.36,434.059 1790.78,478.762 1801.19,485.533 1811.6,450.895 1822.01,383.449 1832.43,301.791 1842.84,229.394 1853.25,187.861 1863.67,190.486 1874.08,238.047 
  1884.49,318.136 1894.9,408.369 1905.32,482.632 1915.73,518.643 1926.14,504.62 1936.56,443.085 1946.97,350.566 1957.38,253.186 1967.79,179.284 1978.21,151.172 
  1988.62,178.415 1999.03,254.651 2009.45,359.004 2019.86,461.78 2030.27,532.922 2040.68,550.791 2051.1,508.733 2061.51,417.427 2071.92,302.217 2082.33,196.09 
  2092.75,130.23 2103.16,124.858 2113.57,183.05 2123.99,289.415 2134.4,414.131 2144.81,521.304 2155.22,579.297 2165.64,570.063 2176.05,494.731 2186.46,373.713 
  2196.88,241.201 2207.29,135.504 2217.7,87.9763 2228.11,113.724 2238.53,206.848 2248.94,341.709 2259.35,479.972 2269.77,581.504 2280.18,616.018 2290.59,572.099 
  
  "/>
<path clip-path="url(#clip180)" d="
M229.49 250.738 L700.371 250.738 L700.371 95.2176 L229.49 95.2176  Z
  " fill="#ffffff" fill-rule="evenodd" fill-opacity="1"/>
<polyline clip-path="url(#clip180)" style="stroke:#000000; stroke-linecap:round; stroke-linejoin:round; stroke-width:4; stroke-opacity:1; fill:none" points="
  229.49,250.738 700.371,250.738 700.371,95.2176 229.49,95.2176 229.49,250.738 
  "/>
<polyline clip-path="url(#clip180)" style="stroke:#009af9; stroke-linecap:round; stroke-linejoin:round; stroke-width:4; stroke-opacity:1; fill:none" stroke-dasharray="2, 4" points="
  253.896,147.058 400.328,147.058 
  "/>
<path clip-path="url(#clip180)" d="M429.409 133.62 L429.409 146.606 L435.289 146.606 Q438.552 146.606 440.335 144.916 Q442.117 143.227 442.117 140.102 Q442.117 137 440.335 135.31 Q438.552 133.62 435.289 133.62 L429.409 133.62 M424.733 129.778 L435.289 129.778 Q441.099 129.778 444.062 132.416 Q447.048 135.032 447.048 140.102 Q447.048 145.217 444.062 147.833 Q441.099 150.449 435.289 150.449 L429.409 150.449 L429.409 164.338 L424.733 164.338 L424.733 129.778 Z" fill="#000000" fill-rule="evenodd" fill-opacity="1" /><path clip-path="url(#clip180)" d="M467.325 142.393 Q466.608 141.977 465.751 141.791 Q464.918 141.583 463.899 141.583 Q460.288 141.583 458.344 143.944 Q456.423 146.282 456.423 150.68 L456.423 164.338 L452.14 164.338 L452.14 138.412 L456.423 138.412 L456.423 142.44 Q457.765 140.078 459.918 138.944 Q462.071 137.787 465.149 137.787 Q465.589 137.787 466.122 137.856 Q466.654 137.903 467.302 138.018 L467.325 142.393 Z" fill="#000000" fill-rule="evenodd" fill-opacity="1" /><path clip-path="url(#clip180)" d="M492.927 150.31 L492.927 152.393 L473.344 152.393 Q473.622 156.791 475.983 159.106 Q478.367 161.398 482.603 161.398 Q485.057 161.398 487.348 160.796 Q489.663 160.194 491.932 158.99 L491.932 163.018 Q489.64 163.99 487.233 164.5 Q484.825 165.009 482.348 165.009 Q476.145 165.009 472.511 161.398 Q468.899 157.787 468.899 151.629 Q468.899 145.264 472.325 141.537 Q475.774 137.787 481.608 137.787 Q486.839 137.787 489.872 141.166 Q492.927 144.523 492.927 150.31 M488.668 149.06 Q488.622 145.565 486.7 143.481 Q484.802 141.398 481.654 141.398 Q478.089 141.398 475.936 143.412 Q473.807 145.426 473.483 149.083 L488.668 149.06 Z" fill="#000000" fill-rule="evenodd" fill-opacity="1" /><path clip-path="url(#clip180)" d="M516.978 142.347 L516.978 128.319 L521.237 128.319 L521.237 164.338 L516.978 164.338 L516.978 160.449 Q515.635 162.763 513.575 163.898 Q511.538 165.009 508.668 165.009 Q503.969 165.009 501.006 161.259 Q498.066 157.509 498.066 151.398 Q498.066 145.287 501.006 141.537 Q503.969 137.787 508.668 137.787 Q511.538 137.787 513.575 138.921 Q515.635 140.032 516.978 142.347 M502.464 151.398 Q502.464 156.097 504.385 158.782 Q506.33 161.444 509.709 161.444 Q513.089 161.444 515.033 158.782 Q516.978 156.097 516.978 151.398 Q516.978 146.699 515.033 144.037 Q513.089 141.352 509.709 141.352 Q506.33 141.352 504.385 144.037 Q502.464 146.699 502.464 151.398 Z" fill="#000000" fill-rule="evenodd" fill-opacity="1" /><path clip-path="url(#clip180)" d="M530.01 138.412 L534.269 138.412 L534.269 164.338 L530.01 164.338 L530.01 138.412 M530.01 128.319 L534.269 128.319 L534.269 133.713 L530.01 133.713 L530.01 128.319 Z" fill="#000000" fill-rule="evenodd" fill-opacity="1" /><path clip-path="url(#clip180)" d="M561.839 139.407 L561.839 143.389 Q560.033 142.393 558.205 141.907 Q556.399 141.398 554.547 141.398 Q550.404 141.398 548.112 144.037 Q545.82 146.652 545.82 151.398 Q545.82 156.143 548.112 158.782 Q550.404 161.398 554.547 161.398 Q556.399 161.398 558.205 160.912 Q560.033 160.402 561.839 159.407 L561.839 163.342 Q560.056 164.176 558.135 164.592 Q556.237 165.009 554.084 165.009 Q548.228 165.009 544.779 161.328 Q541.33 157.648 541.33 151.398 Q541.33 145.055 544.802 141.421 Q548.297 137.787 554.362 137.787 Q556.33 137.787 558.205 138.203 Q560.08 138.597 561.839 139.407 Z" fill="#000000" fill-rule="evenodd" fill-opacity="1" /><path clip-path="url(#clip180)" d="M573.459 131.051 L573.459 138.412 L582.232 138.412 L582.232 141.722 L573.459 141.722 L573.459 155.796 Q573.459 158.967 574.316 159.87 Q575.195 160.773 577.857 160.773 L582.232 160.773 L582.232 164.338 L577.857 164.338 Q572.927 164.338 571.052 162.509 Q569.177 160.657 569.177 155.796 L569.177 141.722 L566.052 141.722 L566.052 138.412 L569.177 138.412 L569.177 131.051 L573.459 131.051 Z" fill="#000000" fill-rule="evenodd" fill-opacity="1" /><path clip-path="url(#clip180)" d="M587.834 138.412 L592.093 138.412 L592.093 164.338 L587.834 164.338 L587.834 138.412 M587.834 128.319 L592.093 128.319 L592.093 133.713 L587.834 133.713 L587.834 128.319 Z" fill="#000000" fill-rule="evenodd" fill-opacity="1" /><path clip-path="url(#clip180)" d="M611.051 141.398 Q607.626 141.398 605.635 144.083 Q603.644 146.745 603.644 151.398 Q603.644 156.051 605.612 158.736 Q607.602 161.398 611.051 161.398 Q614.454 161.398 616.445 158.713 Q618.436 156.027 618.436 151.398 Q618.436 146.791 616.445 144.106 Q614.454 141.398 611.051 141.398 M611.051 137.787 Q616.607 137.787 619.778 141.398 Q622.95 145.009 622.95 151.398 Q622.95 157.764 619.778 161.398 Q616.607 165.009 611.051 165.009 Q605.473 165.009 602.302 161.398 Q599.153 157.764 599.153 151.398 Q599.153 145.009 602.302 141.398 Q605.473 137.787 611.051 137.787 Z" fill="#000000" fill-rule="evenodd" fill-opacity="1" /><path clip-path="url(#clip180)" d="M651.561 148.689 L651.561 164.338 L647.301 164.338 L647.301 148.828 Q647.301 145.148 645.866 143.319 Q644.431 141.49 641.561 141.49 Q638.112 141.49 636.121 143.69 Q634.13 145.889 634.13 149.685 L634.13 164.338 L629.848 164.338 L629.848 138.412 L634.13 138.412 L634.13 142.44 Q635.658 140.102 637.718 138.944 Q639.801 137.787 642.51 137.787 Q646.977 137.787 649.269 140.565 Q651.561 143.319 651.561 148.689 Z" fill="#000000" fill-rule="evenodd" fill-opacity="1" /><polyline clip-path="url(#clip180)" style="stroke:#e26f46; stroke-linecap:round; stroke-linejoin:round; stroke-width:4; stroke-opacity:1; fill:none" points="
  253.896,198.898 400.328,198.898 
  "/>
<path clip-path="url(#clip180)" d="M424.733 181.618 L446.585 181.618 L446.585 185.553 L429.409 185.553 L429.409 195.784 L445.867 195.784 L445.867 199.719 L429.409 199.719 L429.409 212.242 L447.001 212.242 L447.001 216.178 L424.733 216.178 L424.733 181.618 Z" fill="#000000" fill-rule="evenodd" fill-opacity="1" /><path clip-path="url(#clip180)" d="M476.052 190.252 L466.677 202.867 L476.538 216.178 L471.515 216.178 L463.969 205.992 L456.423 216.178 L451.4 216.178 L461.469 202.613 L452.256 190.252 L457.279 190.252 L464.154 199.488 L471.029 190.252 L476.052 190.252 Z" fill="#000000" fill-rule="evenodd" fill-opacity="1" /><path clip-path="url(#clip180)" d="M494.339 203.145 Q489.177 203.145 487.186 204.326 Q485.196 205.506 485.196 208.354 Q485.196 210.622 486.677 211.965 Q488.182 213.284 490.751 213.284 Q494.293 213.284 496.422 210.784 Q498.575 208.261 498.575 204.094 L498.575 203.145 L494.339 203.145 M502.834 201.386 L502.834 216.178 L498.575 216.178 L498.575 212.242 Q497.117 214.603 494.941 215.738 Q492.765 216.849 489.617 216.849 Q485.635 216.849 483.274 214.627 Q480.936 212.381 480.936 208.631 Q480.936 204.256 483.853 202.034 Q486.793 199.812 492.603 199.812 L498.575 199.812 L498.575 199.395 Q498.575 196.455 496.631 194.858 Q494.71 193.238 491.214 193.238 Q488.992 193.238 486.885 193.77 Q484.779 194.303 482.835 195.367 L482.835 191.432 Q485.173 190.53 487.372 190.09 Q489.571 189.627 491.654 189.627 Q497.279 189.627 500.057 192.543 Q502.834 195.46 502.834 201.386 Z" fill="#000000" fill-rule="evenodd" fill-opacity="1" /><path clip-path="url(#clip180)" d="M530.265 191.247 L530.265 195.229 Q528.459 194.233 526.631 193.747 Q524.825 193.238 522.973 193.238 Q518.83 193.238 516.538 195.877 Q514.246 198.492 514.246 203.238 Q514.246 207.983 516.538 210.622 Q518.83 213.238 522.973 213.238 Q524.825 213.238 526.631 212.752 Q528.459 212.242 530.265 211.247 L530.265 215.182 Q528.482 216.016 526.561 216.432 Q524.663 216.849 522.51 216.849 Q516.654 216.849 513.205 213.168 Q509.756 209.488 509.756 203.238 Q509.756 196.895 513.228 193.261 Q516.723 189.627 522.788 189.627 Q524.756 189.627 526.631 190.043 Q528.506 190.437 530.265 191.247 Z" fill="#000000" fill-rule="evenodd" fill-opacity="1" /><path clip-path="url(#clip180)" d="M541.885 182.891 L541.885 190.252 L550.658 190.252 L550.658 193.562 L541.885 193.562 L541.885 207.636 Q541.885 210.807 542.742 211.71 Q543.621 212.613 546.283 212.613 L550.658 212.613 L550.658 216.178 L546.283 216.178 Q541.353 216.178 539.478 214.349 Q537.603 212.497 537.603 207.636 L537.603 193.562 L534.478 193.562 L534.478 190.252 L537.603 190.252 L537.603 182.891 L541.885 182.891 Z" fill="#000000" fill-rule="evenodd" fill-opacity="1" /></svg>
