<?xml version="1.0" encoding="utf-8"?>
<svg xmlns="http://www.w3.org/2000/svg" xmlns:xlink="http://www.w3.org/1999/xlink" width="600" height="400" viewBox="0 0 2400 1600">
<defs>
  <clipPath id="clip610">
    <rect x="0" y="0" width="2400" height="1600"/>
  </clipPath>
</defs>
<path clip-path="url(#clip610)" d="
M0 1600 L2400 1600 L2400 0 L0 0  Z
  " fill="#ffffff" fill-rule="evenodd" fill-opacity="1"/>
<defs>
  <clipPath id="clip611">
    <rect x="480" y="0" width="1681" height="1600"/>
  </clipPath>
</defs>
<path clip-path="url(#clip610)" d="
M156.274 1486.45 L2352.76 1486.45 L2352.76 47.2441 L156.274 47.2441  Z
  " fill="#ffffff" fill-rule="evenodd" fill-opacity="1"/>
<defs>
  <clipPath id="clip612">
    <rect x="156" y="47" width="2197" height="1440"/>
  </clipPath>
</defs>
<polyline clip-path="url(#clip612)" style="stroke:#000000; stroke-linecap:butt; stroke-linejoin:round; stroke-width:2; stroke-opacity:0.1; fill:none" points="
  218.439,1486.45 218.439,47.2441 
  "/>
<polyline clip-path="url(#clip612)" style="stroke:#000000; stroke-linecap:butt; stroke-linejoin:round; stroke-width:2; stroke-opacity:0.1; fill:none" points="
  736.477,1486.45 736.477,47.2441 
  "/>
<polyline clip-path="url(#clip612)" style="stroke:#000000; stroke-linecap:butt; stroke-linejoin:round; stroke-width:2; stroke-opacity:0.1; fill:none" points="
  1254.52,1486.45 1254.52,47.2441 
  "/>
<polyline clip-path="url(#clip612)" style="stroke:#000000; stroke-linecap:butt; stroke-linejoin:round; stroke-width:2; stroke-opacity:0.1; fill:none" points="
  1772.55,1486.45 1772.55,47.2441 
  "/>
<polyline clip-path="url(#clip612)" style="stroke:#000000; stroke-linecap:butt; stroke-linejoin:round; stroke-width:2; stroke-opacity:0.1; fill:none" points="
  2290.59,1486.45 2290.59,47.2441 
  "/>
<polyline clip-path="url(#clip610)" style="stroke:#000000; stroke-linecap:butt; stroke-linejoin:round; stroke-width:4; stroke-opacity:1; fill:none" points="
  156.274,1486.45 2352.76,1486.45 
  "/>
<polyline clip-path="url(#clip610)" style="stroke:#000000; stroke-linecap:butt; stroke-linejoin:round; stroke-width:4; stroke-opacity:1; fill:none" points="
  218.439,1486.45 218.439,1467.55 
  "/>
<polyline clip-path="url(#clip610)" style="stroke:#000000; stroke-linecap:butt; stroke-linejoin:round; stroke-width:4; stroke-opacity:1; fill:none" points="
  736.477,1486.45 736.477,1467.55 
  "/>
<polyline clip-path="url(#clip610)" style="stroke:#000000; stroke-linecap:butt; stroke-linejoin:round; stroke-width:4; stroke-opacity:1; fill:none" points="
  1254.52,1486.45 1254.52,1467.55 
  "/>
<polyline clip-path="url(#clip610)" style="stroke:#000000; stroke-linecap:butt; stroke-linejoin:round; stroke-width:4; stroke-opacity:1; fill:none" points="
  1772.55,1486.45 1772.55,1467.55 
  "/>
<polyline clip-path="url(#clip610)" style="stroke:#000000; stroke-linecap:butt; stroke-linejoin:round; stroke-width:4; stroke-opacity:1; fill:none" points="
  2290.59,1486.45 2290.59,1467.55 
  "/>
<path clip-path="url(#clip610)" d="M164.967 1532.02 L194.643 1532.02 L194.643 1535.95 L164.967 1535.95 L164.967 1532.02 Z" fill="#000000" fill-rule="evenodd" fill-opacity="1" /><path clip-path="url(#clip610)" d="M205.545 1544.91 L213.184 1544.91 L213.184 1518.55 L204.874 1520.21 L204.874 1515.95 L213.138 1514.29 L217.814 1514.29 L217.814 1544.91 L225.453 1544.91 L225.453 1548.85 L205.545 1548.85 L205.545 1544.91 Z" fill="#000000" fill-rule="evenodd" fill-opacity="1" /><path clip-path="url(#clip610)" d="M234.897 1542.97 L239.781 1542.97 L239.781 1548.85 L234.897 1548.85 L234.897 1542.97 Z" fill="#000000" fill-rule="evenodd" fill-opacity="1" /><path clip-path="url(#clip610)" d="M259.966 1517.37 Q256.355 1517.37 254.527 1520.93 Q252.721 1524.47 252.721 1531.6 Q252.721 1538.71 254.527 1542.27 Q256.355 1545.82 259.966 1545.82 Q263.601 1545.82 265.406 1542.27 Q267.235 1538.71 267.235 1531.6 Q267.235 1524.47 265.406 1520.93 Q263.601 1517.37 259.966 1517.37 M259.966 1513.66 Q265.776 1513.66 268.832 1518.27 Q271.911 1522.85 271.911 1531.6 Q271.911 1540.33 268.832 1544.94 Q265.776 1549.52 259.966 1549.52 Q254.156 1549.52 251.077 1544.94 Q248.022 1540.33 248.022 1531.6 Q248.022 1522.85 251.077 1518.27 Q254.156 1513.66 259.966 1513.66 Z" fill="#000000" fill-rule="evenodd" fill-opacity="1" /><path clip-path="url(#clip610)" d="M683.503 1532.02 L713.178 1532.02 L713.178 1535.95 L683.503 1535.95 L683.503 1532.02 Z" fill="#000000" fill-rule="evenodd" fill-opacity="1" /><path clip-path="url(#clip610)" d="M733.271 1517.37 Q729.66 1517.37 727.831 1520.93 Q726.026 1524.47 726.026 1531.6 Q726.026 1538.71 727.831 1542.27 Q729.66 1545.82 733.271 1545.82 Q736.905 1545.82 738.711 1542.27 Q740.539 1538.71 740.539 1531.6 Q740.539 1524.47 738.711 1520.93 Q736.905 1517.37 733.271 1517.37 M733.271 1513.66 Q739.081 1513.66 742.137 1518.27 Q745.215 1522.85 745.215 1531.6 Q745.215 1540.33 742.137 1544.94 Q739.081 1549.52 733.271 1549.52 Q727.461 1549.52 724.382 1544.94 Q721.327 1540.33 721.327 1531.6 Q721.327 1522.85 724.382 1518.27 Q727.461 1513.66 733.271 1513.66 Z" fill="#000000" fill-rule="evenodd" fill-opacity="1" /><path clip-path="url(#clip610)" d="M753.433 1542.97 L758.317 1542.97 L758.317 1548.85 L753.433 1548.85 L753.433 1542.97 Z" fill="#000000" fill-rule="evenodd" fill-opacity="1" /><path clip-path="url(#clip610)" d="M768.548 1514.29 L786.905 1514.29 L786.905 1518.22 L772.831 1518.22 L772.831 1526.7 Q773.849 1526.35 774.868 1526.19 Q775.886 1526 776.905 1526 Q782.692 1526 786.072 1529.17 Q789.451 1532.34 789.451 1537.76 Q789.451 1543.34 785.979 1546.44 Q782.507 1549.52 776.187 1549.52 Q774.011 1549.52 771.743 1549.15 Q769.498 1548.78 767.09 1548.04 L767.09 1543.34 Q769.173 1544.47 771.396 1545.03 Q773.618 1545.58 776.095 1545.58 Q780.099 1545.58 782.437 1543.48 Q784.775 1541.37 784.775 1537.76 Q784.775 1534.15 782.437 1532.04 Q780.099 1529.94 776.095 1529.94 Q774.22 1529.94 772.345 1530.35 Q770.493 1530.77 768.548 1531.65 L768.548 1514.29 Z" fill="#000000" fill-rule="evenodd" fill-opacity="1" /><path clip-path="url(#clip610)" d="M1231.9 1517.37 Q1228.29 1517.37 1226.46 1520.93 Q1224.65 1524.47 1224.65 1531.6 Q1224.65 1538.71 1226.46 1542.27 Q1228.29 1545.82 1231.9 1545.82 Q1235.53 1545.82 1237.34 1542.27 Q1239.17 1538.71 1239.17 1531.6 Q1239.17 1524.47 1237.34 1520.93 Q1235.53 1517.37 1231.9 1517.37 M1231.9 1513.66 Q1237.71 1513.66 1240.77 1518.27 Q1243.84 1522.85 1243.84 1531.6 Q1243.84 1540.33 1240.77 1544.94 Q1237.71 1549.52 1231.9 1549.52 Q1226.09 1549.52 1223.01 1544.94 Q1219.96 1540.33 1219.96 1531.6 Q1219.96 1522.85 1223.01 1518.27 Q1226.09 1513.66 1231.9 1513.66 Z" fill="#000000" fill-rule="evenodd" fill-opacity="1" /><path clip-path="url(#clip610)" d="M1252.06 1542.97 L1256.95 1542.97 L1256.95 1548.85 L1252.06 1548.85 L1252.06 1542.97 Z" fill="#000000" fill-rule="evenodd" fill-opacity="1" /><path clip-path="url(#clip610)" d="M1277.13 1517.37 Q1273.52 1517.37 1271.69 1520.93 Q1269.89 1524.47 1269.89 1531.6 Q1269.89 1538.71 1271.69 1542.27 Q1273.52 1545.82 1277.13 1545.82 Q1280.76 1545.82 1282.57 1542.27 Q1284.4 1538.71 1284.4 1531.6 Q1284.4 1524.47 1282.57 1520.93 Q1280.76 1517.37 1277.13 1517.37 M1277.13 1513.66 Q1282.94 1513.66 1286 1518.27 Q1289.08 1522.85 1289.08 1531.6 Q1289.08 1540.33 1286 1544.94 Q1282.94 1549.52 1277.13 1549.52 Q1271.32 1549.52 1268.24 1544.94 Q1265.19 1540.33 1265.19 1531.6 Q1265.19 1522.85 1268.24 1518.27 Q1271.32 1513.66 1277.13 1513.66 Z" fill="#000000" fill-rule="evenodd" fill-opacity="1" /><path clip-path="url(#clip610)" d="M1750.44 1517.37 Q1746.82 1517.37 1745 1520.93 Q1743.19 1524.47 1743.19 1531.6 Q1743.19 1538.71 1745 1542.27 Q1746.82 1545.82 1750.44 1545.82 Q1754.07 1545.82 1755.88 1542.27 Q1757.7 1538.71 1757.7 1531.6 Q1757.7 1524.47 1755.88 1520.93 Q1754.07 1517.37 1750.44 1517.37 M1750.44 1513.66 Q1756.25 1513.66 1759.3 1518.27 Q1762.38 1522.85 1762.38 1531.6 Q1762.38 1540.33 1759.3 1544.94 Q1756.25 1549.52 1750.44 1549.52 Q1744.63 1549.52 1741.55 1544.94 Q1738.49 1540.33 1738.49 1531.6 Q1738.49 1522.85 1741.55 1518.27 Q1744.63 1513.66 1750.44 1513.66 Z" fill="#000000" fill-rule="evenodd" fill-opacity="1" /><path clip-path="url(#clip610)" d="M1770.6 1542.97 L1775.48 1542.97 L1775.48 1548.85 L1770.6 1548.85 L1770.6 1542.97 Z" fill="#000000" fill-rule="evenodd" fill-opacity="1" /><path clip-path="url(#clip610)" d="M1785.71 1514.29 L1804.07 1514.29 L1804.07 1518.22 L1790 1518.22 L1790 1526.7 Q1791.01 1526.35 1792.03 1526.19 Q1793.05 1526 1794.07 1526 Q1799.86 1526 1803.24 1529.17 Q1806.62 1532.34 1806.62 1537.76 Q1806.62 1543.34 1803.14 1546.44 Q1799.67 1549.52 1793.35 1549.52 Q1791.18 1549.52 1788.91 1549.15 Q1786.66 1548.78 1784.25 1548.04 L1784.25 1543.34 Q1786.34 1544.47 1788.56 1545.03 Q1790.78 1545.58 1793.26 1545.58 Q1797.26 1545.58 1799.6 1543.48 Q1801.94 1541.37 1801.94 1537.76 Q1801.94 1534.15 1799.6 1532.04 Q1797.26 1529.94 1793.26 1529.94 Q1791.38 1529.94 1789.51 1530.35 Q1787.66 1530.77 1785.71 1531.65 L1785.71 1514.29 Z" fill="#000000" fill-rule="evenodd" fill-opacity="1" /><path clip-path="url(#clip610)" d="M2257.74 1544.91 L2265.38 1544.91 L2265.38 1518.55 L2257.07 1520.21 L2257.07 1515.95 L2265.34 1514.29 L2270.01 1514.29 L2270.01 1544.91 L2277.65 1544.91 L2277.65 1548.85 L2257.74 1548.85 L2257.74 1544.91 Z" fill="#000000" fill-rule="evenodd" fill-opacity="1" /><path clip-path="url(#clip610)" d="M2287.1 1542.97 L2291.98 1542.97 L2291.98 1548.85 L2287.1 1548.85 L2287.1 1542.97 Z" fill="#000000" fill-rule="evenodd" fill-opacity="1" /><path clip-path="url(#clip610)" d="M2312.17 1517.37 Q2308.55 1517.37 2306.73 1520.93 Q2304.92 1524.47 2304.92 1531.6 Q2304.92 1538.71 2306.73 1542.27 Q2308.55 1545.82 2312.17 1545.82 Q2315.8 1545.82 2317.61 1542.27 Q2319.43 1538.71 2319.43 1531.6 Q2319.43 1524.47 2317.61 1520.93 Q2315.8 1517.37 2312.17 1517.37 M2312.17 1513.66 Q2317.98 1513.66 2321.03 1518.27 Q2324.11 1522.85 2324.11 1531.6 Q2324.11 1540.33 2321.03 1544.94 Q2317.98 1549.52 2312.17 1549.52 Q2306.36 1549.52 2303.28 1544.94 Q2300.22 1540.33 2300.22 1531.6 Q2300.22 1522.85 2303.28 1518.27 Q2306.36 1513.66 2312.17 1513.66 Z" fill="#000000" fill-rule="evenodd" fill-opacity="1" /><polyline clip-path="url(#clip612)" style="stroke:#000000; stroke-linecap:butt; stroke-linejoin:round; stroke-width:2; stroke-opacity:0.1; fill:none" points="
  156.274,1261.15 2352.76,1261.15 
  "/>
<polyline clip-path="url(#clip612)" style="stroke:#000000; stroke-linecap:butt; stroke-linejoin:round; stroke-width:2; stroke-opacity:0.1; fill:none" points="
  156.274,985.721 2352.76,985.721 
  "/>
<polyline clip-path="url(#clip612)" style="stroke:#000000; stroke-linecap:butt; stroke-linejoin:round; stroke-width:2; stroke-opacity:0.1; fill:none" points="
  156.274,710.293 2352.76,710.293 
  "/>
<polyline clip-path="url(#clip612)" style="stroke:#000000; stroke-linecap:butt; stroke-linejoin:round; stroke-width:2; stroke-opacity:0.1; fill:none" points="
  156.274,434.865 2352.76,434.865 
  "/>
<polyline clip-path="url(#clip612)" style="stroke:#000000; stroke-linecap:butt; stroke-linejoin:round; stroke-width:2; stroke-opacity:0.1; fill:none" points="
  156.274,159.437 2352.76,159.437 
  "/>
<polyline clip-path="url(#clip610)" style="stroke:#000000; stroke-linecap:butt; stroke-linejoin:round; stroke-width:4; stroke-opacity:1; fill:none" points="
  156.274,1486.45 156.274,47.2441 
  "/>
<polyline clip-path="url(#clip610)" style="stroke:#000000; stroke-linecap:butt; stroke-linejoin:round; stroke-width:4; stroke-opacity:1; fill:none" points="
  156.274,1261.15 175.172,1261.15 
  "/>
<polyline clip-path="url(#clip610)" style="stroke:#000000; stroke-linecap:butt; stroke-linejoin:round; stroke-width:4; stroke-opacity:1; fill:none" points="
  156.274,985.721 175.172,985.721 
  "/>
<polyline clip-path="url(#clip610)" style="stroke:#000000; stroke-linecap:butt; stroke-linejoin:round; stroke-width:4; stroke-opacity:1; fill:none" points="
  156.274,710.293 175.172,710.293 
  "/>
<polyline clip-path="url(#clip610)" style="stroke:#000000; stroke-linecap:butt; stroke-linejoin:round; stroke-width:4; stroke-opacity:1; fill:none" points="
  156.274,434.865 175.172,434.865 
  "/>
<polyline clip-path="url(#clip610)" style="stroke:#000000; stroke-linecap:butt; stroke-linejoin:round; stroke-width:4; stroke-opacity:1; fill:none" points="
  156.274,159.437 175.172,159.437 
  "/>
<path clip-path="url(#clip610)" d="M63.0985 1246.95 Q59.4875 1246.95 57.6588 1250.51 Q55.8532 1254.05 55.8532 1261.18 Q55.8532 1268.29 57.6588 1271.86 Q59.4875 1275.4 63.0985 1275.4 Q66.7328 1275.4 68.5383 1271.86 Q70.367 1268.29 70.367 1261.18 Q70.367 1254.05 68.5383 1250.51 Q66.7328 1246.95 63.0985 1246.95 M63.0985 1243.24 Q68.9087 1243.24 71.9642 1247.85 Q75.0429 1252.43 75.0429 1261.18 Q75.0429 1269.91 71.9642 1274.52 Q68.9087 1279.1 63.0985 1279.1 Q57.2884 1279.1 54.2097 1274.52 Q51.1542 1269.91 51.1542 1261.18 Q51.1542 1252.43 54.2097 1247.85 Q57.2884 1243.24 63.0985 1243.24 Z" fill="#000000" fill-rule="evenodd" fill-opacity="1" /><path clip-path="url(#clip610)" d="M83.2605 1272.55 L88.1447 1272.55 L88.1447 1278.43 L83.2605 1278.43 L83.2605 1272.55 Z" fill="#000000" fill-rule="evenodd" fill-opacity="1" /><path clip-path="url(#clip610)" d="M108.33 1246.95 Q104.719 1246.95 102.89 1250.51 Q101.084 1254.05 101.084 1261.18 Q101.084 1268.29 102.89 1271.86 Q104.719 1275.4 108.33 1275.4 Q111.964 1275.4 113.77 1271.86 Q115.598 1268.29 115.598 1261.18 Q115.598 1254.05 113.77 1250.51 Q111.964 1246.95 108.33 1246.95 M108.33 1243.24 Q114.14 1243.24 117.195 1247.85 Q120.274 1252.43 120.274 1261.18 Q120.274 1269.91 117.195 1274.52 Q114.14 1279.1 108.33 1279.1 Q102.52 1279.1 99.4409 1274.52 Q96.3854 1269.91 96.3854 1261.18 Q96.3854 1252.43 99.4409 1247.85 Q102.52 1243.24 108.33 1243.24 Z" fill="#000000" fill-rule="evenodd" fill-opacity="1" /><path clip-path="url(#clip610)" d="M63.7467 971.52 Q60.1356 971.52 58.3069 975.085 Q56.5014 978.626 56.5014 985.756 Q56.5014 992.863 58.3069 996.427 Q60.1356 999.969 63.7467 999.969 Q67.3809 999.969 69.1865 996.427 Q71.0152 992.863 71.0152 985.756 Q71.0152 978.626 69.1865 975.085 Q67.3809 971.52 63.7467 971.52 M63.7467 967.816 Q69.5568 967.816 72.6124 972.423 Q75.6911 977.006 75.6911 985.756 Q75.6911 994.483 72.6124 999.089 Q69.5568 1003.67 63.7467 1003.67 Q57.9365 1003.67 54.8578 999.089 Q51.8023 994.483 51.8023 985.756 Q51.8023 977.006 54.8578 972.423 Q57.9365 967.816 63.7467 967.816 Z" fill="#000000" fill-rule="evenodd" fill-opacity="1" /><path clip-path="url(#clip610)" d="M83.9086 997.122 L88.7928 997.122 L88.7928 1003 L83.9086 1003 L83.9086 997.122 Z" fill="#000000" fill-rule="evenodd" fill-opacity="1" /><path clip-path="url(#clip610)" d="M113.145 984.367 Q116.501 985.085 118.376 987.353 Q120.274 989.622 120.274 992.955 Q120.274 998.071 116.756 1000.87 Q113.237 1003.67 106.756 1003.67 Q104.58 1003.67 102.265 1003.23 Q99.9733 1002.82 97.5197 1001.96 L97.5197 997.446 Q99.4641 998.58 101.779 999.159 Q104.094 999.737 106.617 999.737 Q111.015 999.737 113.307 998.001 Q115.621 996.265 115.621 992.955 Q115.621 989.9 113.469 988.187 Q111.339 986.451 107.52 986.451 L103.492 986.451 L103.492 982.608 L107.705 982.608 Q111.154 982.608 112.983 981.242 Q114.811 979.853 114.811 977.261 Q114.811 974.599 112.913 973.187 Q111.038 971.752 107.52 971.752 Q105.598 971.752 103.399 972.168 Q101.2 972.585 98.5613 973.464 L98.5613 969.298 Q101.223 968.557 103.538 968.187 Q105.876 967.816 107.936 967.816 Q113.26 967.816 116.362 970.247 Q119.464 972.654 119.464 976.775 Q119.464 979.645 117.82 981.636 Q116.177 983.603 113.145 984.367 Z" fill="#000000" fill-rule="evenodd" fill-opacity="1" /><path clip-path="url(#clip610)" d="M62.9365 696.092 Q59.3254 696.092 57.4967 699.657 Q55.6912 703.198 55.6912 710.328 Q55.6912 717.434 57.4967 720.999 Q59.3254 724.541 62.9365 724.541 Q66.5707 724.541 68.3763 720.999 Q70.205 717.434 70.205 710.328 Q70.205 703.198 68.3763 699.657 Q66.5707 696.092 62.9365 696.092 M62.9365 692.388 Q68.7467 692.388 71.8022 696.995 Q74.8809 701.578 74.8809 710.328 Q74.8809 719.055 71.8022 723.661 Q68.7467 728.245 62.9365 728.245 Q57.1264 728.245 54.0477 723.661 Q50.9921 719.055 50.9921 710.328 Q50.9921 701.578 54.0477 696.995 Q57.1264 692.388 62.9365 692.388 Z" fill="#000000" fill-rule="evenodd" fill-opacity="1" /><path clip-path="url(#clip610)" d="M83.0984 721.694 L87.9827 721.694 L87.9827 727.573 L83.0984 727.573 L83.0984 721.694 Z" fill="#000000" fill-rule="evenodd" fill-opacity="1" /><path clip-path="url(#clip610)" d="M108.746 708.43 Q105.598 708.43 103.746 710.583 Q101.918 712.735 101.918 716.485 Q101.918 720.212 103.746 722.388 Q105.598 724.541 108.746 724.541 Q111.895 724.541 113.723 722.388 Q115.575 720.212 115.575 716.485 Q115.575 712.735 113.723 710.583 Q111.895 708.43 108.746 708.43 M118.029 693.777 L118.029 698.036 Q116.27 697.203 114.464 696.763 Q112.682 696.323 110.922 696.323 Q106.293 696.323 103.839 699.448 Q101.409 702.573 101.061 708.893 Q102.427 706.879 104.487 705.814 Q106.547 704.726 109.024 704.726 Q114.233 704.726 117.242 707.897 Q120.274 711.046 120.274 716.485 Q120.274 721.809 117.126 725.027 Q113.978 728.245 108.746 728.245 Q102.751 728.245 99.5798 723.661 Q96.4085 719.055 96.4085 710.328 Q96.4085 702.134 100.297 697.273 Q104.186 692.388 110.737 692.388 Q112.496 692.388 114.279 692.736 Q116.084 693.083 118.029 693.777 Z" fill="#000000" fill-rule="evenodd" fill-opacity="1" /><path clip-path="url(#clip610)" d="M63.2837 420.664 Q59.6726 420.664 57.8439 424.229 Q56.0384 427.77 56.0384 434.9 Q56.0384 442.006 57.8439 445.571 Q59.6726 449.113 63.2837 449.113 Q66.918 449.113 68.7235 445.571 Q70.5522 442.006 70.5522 434.9 Q70.5522 427.77 68.7235 424.229 Q66.918 420.664 63.2837 420.664 M63.2837 416.96 Q69.0939 416.96 72.1494 421.567 Q75.2281 426.15 75.2281 434.9 Q75.2281 443.627 72.1494 448.233 Q69.0939 452.817 63.2837 452.817 Q57.4736 452.817 54.3949 448.233 Q51.3393 443.627 51.3393 434.9 Q51.3393 426.15 54.3949 421.567 Q57.4736 416.96 63.2837 416.96 Z" fill="#000000" fill-rule="evenodd" fill-opacity="1" /><path clip-path="url(#clip610)" d="M83.4457 446.266 L88.3299 446.266 L88.3299 452.145 L83.4457 452.145 L83.4457 446.266 Z" fill="#000000" fill-rule="evenodd" fill-opacity="1" /><path clip-path="url(#clip610)" d="M98.6539 451.428 L98.6539 447.168 Q100.413 448.002 102.219 448.442 Q104.024 448.881 105.76 448.881 Q110.39 448.881 112.82 445.78 Q115.274 442.655 115.621 436.312 Q114.279 438.303 112.219 439.368 Q110.158 440.432 107.658 440.432 Q102.473 440.432 99.4409 437.307 Q96.4317 434.159 96.4317 428.719 Q96.4317 423.395 99.5798 420.178 Q102.728 416.96 107.959 416.96 Q113.955 416.96 117.103 421.567 Q120.274 426.15 120.274 434.9 Q120.274 443.071 116.385 447.955 Q112.52 452.817 105.969 452.817 Q104.209 452.817 102.404 452.469 Q100.598 452.122 98.6539 451.428 M107.959 436.775 Q111.108 436.775 112.936 434.622 Q114.788 432.469 114.788 428.719 Q114.788 424.993 112.936 422.84 Q111.108 420.664 107.959 420.664 Q104.811 420.664 102.959 422.84 Q101.131 424.993 101.131 428.719 Q101.131 432.469 102.959 434.622 Q104.811 436.775 107.959 436.775 Z" fill="#000000" fill-rule="evenodd" fill-opacity="1" /><path clip-path="url(#clip610)" d="M55.506 172.782 L63.1448 172.782 L63.1448 146.416 L54.8347 148.083 L54.8347 143.824 L63.0985 142.157 L67.7744 142.157 L67.7744 172.782 L75.4133 172.782 L75.4133 176.717 L55.506 176.717 L55.506 172.782 Z" fill="#000000" fill-rule="evenodd" fill-opacity="1" /><path clip-path="url(#clip610)" d="M84.8577 170.838 L89.7419 170.838 L89.7419 176.717 L84.8577 176.717 L84.8577 170.838 Z" fill="#000000" fill-rule="evenodd" fill-opacity="1" /><path clip-path="url(#clip610)" d="M103.955 172.782 L120.274 172.782 L120.274 176.717 L98.3298 176.717 L98.3298 172.782 Q100.992 170.027 105.575 165.398 Q110.182 160.745 111.362 159.402 Q113.608 156.879 114.487 155.143 Q115.39 153.384 115.39 151.694 Q115.39 148.94 113.445 147.203 Q111.524 145.467 108.422 145.467 Q106.223 145.467 103.77 146.231 Q101.339 146.995 98.5613 148.546 L98.5613 143.824 Q101.385 142.69 103.839 142.111 Q106.293 141.532 108.33 141.532 Q113.7 141.532 116.895 144.217 Q120.089 146.903 120.089 151.393 Q120.089 153.523 119.279 155.444 Q118.492 157.342 116.385 159.935 Q115.807 160.606 112.705 163.824 Q109.603 167.018 103.955 172.782 Z" fill="#000000" fill-rule="evenodd" fill-opacity="1" /><polyline clip-path="url(#clip612)" style="stroke:#009af9; stroke-linecap:butt; stroke-linejoin:round; stroke-width:16; stroke-opacity:1; fill:none" stroke-dasharray="8, 16" points="
  218.439,1117.89 225.369,1110.31 232.299,1101.23 239.23,1091.91 246.16,1083.89 253.09,1078.51 260.02,1076.48 266.951,1077.91 273.881,1082.47 280.811,1089.68 
  287.742,1099.09 294.672,1110.43 301.602,1123.67 308.532,1138.85 315.463,1155.97 322.393,1174.85 329.323,1195.15 336.253,1216.44 343.184,1238.31 350.114,1260.38 
  357.044,1282.4 363.975,1304.12 370.905,1325.27 377.835,1345.47 384.765,1364.25 391.696,1381.38 398.626,1397.08 405.556,1411.46 412.486,1423.8 419.417,1433.05 
  426.347,1438.96 433.277,1442.18 440.208,1443.47 447.138,1443 454.068,1440.3 460.998,1434.66 467.929,1425.67 474.859,1413.52 481.789,1398.93 488.72,1382.83 
  495.65,1365.86 502.58,1348.2 509.51,1329.6 516.441,1309.7 523.371,1288.35 530.301,1265.8 537.231,1242.68 544.162,1219.78 551.092,1197.84 558.022,1177.33 
  564.953,1158.45 571.883,1141.2 578.813,1125.54 585.743,1111.56 592.674,1099.61 599.604,1090.18 606.534,1083.69 613.464,1080.27 620.395,1079.59 627.325,1081.01 
  634.255,1083.97 641.186,1088.4 648.116,1094.97 655.046,1104.71 661.976,1118.25 668.907,1135.18 675.837,1154.23 682.767,1174.09 689.698,1194.09 696.628,1214.21 
  703.558,1234.73 710.488,1255.87 717.419,1277.58 724.349,1299.58 731.279,1321.39 738.209,1342.46 745.14,1362.2 752.07,1380.11 759,1395.85 765.931,1409.25 
  772.861,1420.34 779.791,1429.24 786.721,1436.07 793.652,1440.85 800.582,1443.48 807.512,1443.74 814.442,1441.38 821.373,1436.21 828.303,1428.18 835.233,1417.38 
  842.164,1404 849.094,1388.33 856.024,1370.73 862.954,1351.6 869.885,1331.42 876.815,1310.65 883.745,1289.64 890.676,1268.56 897.606,1247.31 904.536,1225.69 
  911.466,1203.7 918.397,1181.95 925.327,1161.56 932.257,1143.54 939.187,1128.21 946.118,1115.27 953.048,1104.15 959.978,1094.39 966.909,1085.96 973.839,1079.5 
  980.769,1076.1 987.699,1076.7 994.63,1081.23 1001.56,1088.45 1008.49,1096.83 1015.42,1106 1022.35,1116.99 1029.28,1131.11 1036.21,1148.68 1043.14,1168.58 
  1050.07,1188.72 1057,1208.37 1063.93,1229.12 1070.86,1251.61 1077.79,1274.62 1084.72,1296.6 1091.65,1316.95 1098.58,1338.46 1105.51,1356.93 1112.44,1374.21 
  1119.37,1392.59 1126.3,1406.85 1133.24,1418.95 1140.17,1429.89 1147.1,1435.78 1154.03,1441.25 1160.96,1445.72 1167.89,1444.69 1174.82,1441.37 1181.75,1436.87 
  1188.68,1427.63 1195.61,1417.17 1202.54,1406.89 1209.47,1391.03 1216.4,1371.93 1223.33,1354.58 1230.26,1337.1 1237.19,1312.25 1244.12,1297.49 1251.05,1270.34 
  1257.98,343.515 1264.91,338.832 1271.84,342.608 1278.77,338.663 1285.7,344.867 1292.63,346.889 1299.56,351.17 1306.49,356.944 1313.42,358.459 1320.35,359.707 
  1327.28,359.123 1334.21,355.156 1341.14,349.231 1348.07,338.786 1355,329.777 1361.93,320.895 1368.86,315.028 1375.79,310.628 1382.73,310.642 1389.66,319.088 
  1396.59,326.123 1403.52,338.709 1410.45,356.153 1417.38,368.609 1424.31,380.451 1431.24,391.903 1438.17,389.289 1445.1,387.629 1452.03,379.493 1458.96,358.215 
  1465.89,342.615 1472.82,322.338 1479.75,300.332 1486.68,288.899 1493.61,281.179 1500.54,278.948 1507.47,287.061 1514.4,304.92 1521.33,328.346 1528.26,353.732 
  1535.19,378.528 1542.12,400.165 1549.05,415.649 1555.98,422.435 1562.91,419.272 1569.84,406.081 1576.77,383.685 1583.7,354.175 1590.63,321.46 1597.56,290.794 
  1604.49,266.69 1611.42,251.617 1618.35,247.184 1625.28,254.842 1632.22,274.813 1639.15,305.198 1646.08,342.089 1653.01,380.369 1659.94,414.669 1666.87,440.21 
  1673.8,453.488 1680.73,452.728 1687.66,437.999 1694.59,411.013 1701.52,374.76 1708.45,333.209 1715.38,291.115 1722.31,253.784 1729.24,226.567 1736.17,213.974 
  1743.1,218.655 1750.03,240.689 1756.96,277.409 1763.89,323.773 1770.82,373.279 1777.75,419.208 1784.68,455.711 1791.61,478.395 1798.54,484.485 1805.47,472.889 
  1812.4,444.393 1819.33,401.941 1826.26,350.722 1833.19,297.567 1840.12,249.405 1847.05,211.494 1853.98,187.386 1860.91,181.088 1867.84,197.571 1874.77,237.992 
  1881.71,295.515 1888.64,358.938 1895.57,418.581 1902.5,467.755 1909.43,501.507 1916.36,515.907 1923.29,508.749 1930.22,480.588 1937.15,434.836 1944.08,376.887 
  1951.01,313.245 1957.94,251.207 1964.87,198.685 1971.8,163.251 1978.73,150.456 1985.66,162.738 1992.59,199.407 1999.52,256.602 2006.45,327.085 2013.38,400.938 
  2020.31,467.516 2027.24,517.68 2034.17,545.217 2041.1,547.193 2048.03,523.663 2054.96,477.309 2061.89,413.194 2068.82,338.533 2075.75,262.208 2082.68,193.943 
  2089.61,143.344 2096.54,118.61 2103.47,124.504 2110.4,160.256 2117.33,219.666 2124.26,293.917 2131.19,374.47 2138.13,453.485 2145.06,521.868 2151.99,568.148 
  2158.92,582.659 2165.85,564.342 2172.78,519.841 2179.71,456.194 2186.64,377.478 2193.57,287.769 2200.5,197.668 2207.43,127.389 2214.36,93.3303 2221.29,92.7874 
  2228.22,117.854 2235.15,169.198 2242.08,247.575 2249.01,344.056 2255.94,441.391 2262.87,521.808 2269.8,574.763 2276.73,599.671 2283.66,602.272 2290.59,589.74 
  
  "/>
<polyline clip-path="url(#clip612)" style="stroke:#e26f46; stroke-linecap:butt; stroke-linejoin:round; stroke-width:4; stroke-opacity:1; fill:none" points="
  218.439,1123.25 225.369,1109.69 232.299,1098.32 239.23,1089.3 246.16,1082.78 253.09,1078.83 260.02,1077.53 266.951,1078.89 273.881,1082.88 280.811,1089.46 
  287.742,1098.52 294.672,1109.93 301.602,1123.54 308.532,1139.14 315.463,1156.5 322.393,1175.38 329.323,1195.5 336.253,1216.57 343.184,1238.29 350.114,1260.34 
  357.044,1282.4 363.975,1304.15 370.905,1325.28 377.835,1345.48 384.765,1364.46 391.696,1381.95 398.626,1397.68 405.556,1411.44 412.486,1423.02 419.417,1432.26 
  426.347,1439.02 433.277,1443.21 440.208,1444.76 447.138,1443.65 454.068,1439.9 460.998,1433.56 467.929,1424.72 474.859,1413.52 481.789,1400.11 488.72,1384.69 
  495.65,1367.48 502.58,1348.73 509.51,1328.71 516.441,1307.71 523.371,1286.04 530.301,1264.01 537.231,1241.94 544.162,1220.14 551.092,1198.94 558.022,1178.64 
  564.953,1159.54 571.883,1141.9 578.813,1125.99 585.743,1112.04 592.674,1100.25 599.604,1090.79 606.534,1083.79 613.464,1079.37 620.395,1077.57 627.325,1078.43 
  634.255,1081.94 641.186,1088.05 648.116,1096.65 655.046,1107.65 661.976,1120.86 668.907,1136.1 675.837,1153.16 682.767,1171.78 689.698,1191.69 696.628,1212.61 
  703.558,1234.23 710.488,1256.24 717.419,1278.32 724.349,1300.16 731.279,1321.43 738.209,1341.82 745.14,1361.05 752.07,1378.83 759,1394.91 765.931,1409.05 
  772.861,1421.05 779.791,1430.73 786.721,1437.96 793.652,1442.63 800.582,1444.67 807.512,1444.06 814.442,1440.79 821.373,1434.93 828.303,1426.54 835.233,1415.77 
  842.164,1402.75 849.094,1387.69 856.024,1370.79 862.954,1352.3 869.885,1332.5 876.815,1311.66 883.745,1290.09 890.676,1268.1 897.606,1246.02 904.536,1224.15 
  911.466,1202.81 918.397,1182.32 925.327,1162.97 932.257,1145.05 939.187,1128.8 946.118,1114.47 953.048,1102.27 959.978,1092.36 966.909,1084.9 973.839,1079.99 
  980.769,1077.7 987.699,1078.07 994.63,1081.09 1001.56,1086.72 1008.49,1094.88 1015.42,1105.44 1022.35,1118.25 1029.28,1133.13 1036.21,1149.87 1043.14,1168.22 
  1050.07,1187.92 1057,1208.67 1063.93,1230.18 1070.86,1252.15 1077.79,1274.24 1084.72,1296.14 1091.65,1317.54 1098.58,1338.12 1105.51,1357.59 1112.44,1375.66 
  1119.37,1392.07 1126.3,1406.59 1133.24,1419 1140.17,1429.12 1147.1,1436.81 1154.03,1441.96 1160.96,1444.49 1167.89,1444.37 1174.82,1441.59 1181.75,1436.21 
  1188.68,1428.28 1195.61,1417.94 1202.54,1405.33 1209.47,1390.62 1216.4,1374.05 1223.33,1355.84 1230.26,1336.26 1237.19,1315.59 1244.12,1294.13 1251.05,1272.2 
  1257.98,342.15 1264.91,340.688 1271.84,340.204 1278.77,341.11 1285.7,343.508 1292.63,347.149 1299.56,351.452 1306.49,355.601 1313.42,358.676 1320.35,359.828 
  1327.28,358.443 1334.21,354.284 1341.14,347.571 1348.07,338.999 1355,329.665 1361.93,320.933 1368.86,314.233 1375.79,310.838 1382.73,311.651 1389.66,317.023 
  1396.59,326.652 1403.52,339.571 1410.45,354.237 1417.38,368.713 1424.31,380.928 1431.24,388.963 1438.17,391.35 1445.1,387.314 1452.03,376.932 1458.96,361.183 
  1465.89,341.868 1472.82,321.403 1479.75,302.525 1486.68,287.92 1493.61,279.844 1500.54,279.791 1507.47,288.232 1514.4,304.503 1521.33,326.829 1528.26,352.518 
  1535.19,378.276 1542.12,400.637 1549.05,416.424 1555.98,423.196 1562.91,419.621 1569.84,405.698 1576.77,382.826 1583.7,353.668 1590.63,321.848 1597.56,291.5 
  1604.49,266.731 1611.42,251.068 1618.35,246.958 1625.28,255.397 1632.22,275.744 1639.15,305.745 1646.08,341.773 1653.01,379.269 1659.94,413.315 1666.87,439.281 
  1673.8,453.452 1680.73,453.556 1687.66,439.111 1694.59,411.552 1701.52,374.097 1708.45,331.379 1715.38,288.872 1722.31,252.19 1729.24,226.346 1736.17,215.068 
  1743.1,220.27 1750.03,241.744 1756.96,277.124 1763.89,322.146 1770.82,371.152 1777.75,417.808 1784.68,455.914 1791.61,480.235 1798.54,487.214 1805.47,475.484 
  1812.4,446.107 1819.33,402.494 1826.26,350.014 1833.19,295.336 1840.12,245.579 1847.05,207.386 1853.98,186.04 1860.91,184.736 1867.84,204.109 1874.77,242.095 
  1881.71,294.14 1888.64,353.744 1895.57,413.267 1902.5,464.916 1909.43,501.758 1916.36,518.654 1923.29,512.97 1930.22,484.974 1937.15,437.864 1944.08,377.409 
  1951.01,311.241 1957.94,247.896 1964.87,195.711 1971.8,161.727 1978.73,150.743 1985.66,164.638 1992.59,202.075 1999.52,258.613 2006.45,327.226 2013.38,399.181 
  2020.31,465.143 2027.24,516.39 2034.17,545.967 2041.1,549.623 2048.03,526.417 2054.96,478.904 2061.89,412.856 2068.82,336.569 2075.75,259.818 2082.68,192.605 
  2089.61,143.858 2096.54,120.244 2103.47,125.26 2110.4,158.726 2117.33,216.743 2124.26,292.15 2131.19,375.395 2138.13,455.758 2145.06,522.717 2151.99,567.338 
  2158.92,583.459 2165.85,568.536 2172.78,524.038 2179.71,455.309 2186.64,370.935 2193.57,281.669 2200.5,199.062 2207.43,133.972 2214.36,95.1298 2221.29,87.9763 
  2228.22,113.901 2235.15,170.006 2242.08,249.417 2249.01,342.13 2255.94,436.264 2262.87,519.589 2269.8,581.111 2276.73,612.524 2283.66,609.329 2290.59,571.471 
  
  "/>
<path clip-path="url(#clip610)" d="
M229.49 250.738 L700.371 250.738 L700.371 95.2176 L229.49 95.2176  Z
  " fill="#ffffff" fill-rule="evenodd" fill-opacity="1"/>
<polyline clip-path="url(#clip610)" style="stroke:#000000; stroke-linecap:butt; stroke-linejoin:round; stroke-width:4; stroke-opacity:1; fill:none" points="
  229.49,250.738 700.371,250.738 700.371,95.2176 229.49,95.2176 229.49,250.738 
  "/>
<polyline clip-path="url(#clip610)" style="stroke:#009af9; stroke-linecap:butt; stroke-linejoin:round; stroke-width:4; stroke-opacity:1; fill:none" stroke-dasharray="2, 4" points="
  253.896,147.058 400.328,147.058 
  "/>
<path clip-path="url(#clip610)" d="M429.409 133.62 L429.409 146.606 L435.289 146.606 Q438.552 146.606 440.335 144.916 Q442.117 143.227 442.117 140.102 Q442.117 137 440.335 135.31 Q438.552 133.62 435.289 133.62 L429.409 133.62 M424.733 129.778 L435.289 129.778 Q441.099 129.778 444.062 132.416 Q447.048 135.032 447.048 140.102 Q447.048 145.217 444.062 147.833 Q441.099 150.449 435.289 150.449 L429.409 150.449 L429.409 164.338 L424.733 164.338 L424.733 129.778 Z" fill="#000000" fill-rule="evenodd" fill-opacity="1" /><path clip-path="url(#clip610)" d="M467.325 142.393 Q466.608 141.977 465.751 141.791 Q464.918 141.583 463.899 141.583 Q460.288 141.583 458.344 143.944 Q456.423 146.282 456.423 150.68 L456.423 164.338 L452.14 164.338 L452.14 138.412 L456.423 138.412 L456.423 142.44 Q457.765 140.078 459.918 138.944 Q462.071 137.787 465.149 137.787 Q465.589 137.787 466.122 137.856 Q466.654 137.903 467.302 138.018 L467.325 142.393 Z" fill="#000000" fill-rule="evenodd" fill-opacity="1" /><path clip-path="url(#clip610)" d="M492.927 150.31 L492.927 152.393 L473.344 152.393 Q473.622 156.791 475.983 159.106 Q478.367 161.398 482.603 161.398 Q485.057 161.398 487.348 160.796 Q489.663 160.194 491.932 158.99 L491.932 163.018 Q489.64 163.99 487.233 164.5 Q484.825 165.009 482.348 165.009 Q476.145 165.009 472.511 161.398 Q468.899 157.787 468.899 151.629 Q468.899 145.264 472.325 141.537 Q475.774 137.787 481.608 137.787 Q486.839 137.787 489.872 141.166 Q492.927 144.523 492.927 150.31 M488.668 149.06 Q488.622 145.565 486.7 143.481 Q484.802 141.398 481.654 141.398 Q478.089 141.398 475.936 143.412 Q473.807 145.426 473.483 149.083 L488.668 149.06 Z" fill="#000000" fill-rule="evenodd" fill-opacity="1" /><path clip-path="url(#clip610)" d="M516.978 142.347 L516.978 128.319 L521.237 128.319 L521.237 164.338 L516.978 164.338 L516.978 160.449 Q515.635 162.763 513.575 163.898 Q511.538 165.009 508.668 165.009 Q503.969 165.009 501.006 161.259 Q498.066 157.509 498.066 151.398 Q498.066 145.287 501.006 141.537 Q503.969 137.787 508.668 137.787 Q511.538 137.787 513.575 138.921 Q515.635 140.032 516.978 142.347 M502.464 151.398 Q502.464 156.097 504.385 158.782 Q506.33 161.444 509.709 161.444 Q513.089 161.444 515.033 158.782 Q516.978 156.097 516.978 151.398 Q516.978 146.699 515.033 144.037 Q513.089 141.352 509.709 141.352 Q506.33 141.352 504.385 144.037 Q502.464 146.699 502.464 151.398 Z" fill="#000000" fill-rule="evenodd" fill-opacity="1" /><path clip-path="url(#clip610)" d="M530.01 138.412 L534.269 138.412 L534.269 164.338 L530.01 164.338 L530.01 138.412 M530.01 128.319 L534.269 128.319 L534.269 133.713 L530.01 133.713 L530.01 128.319 Z" fill="#000000" fill-rule="evenodd" fill-opacity="1" /><path clip-path="url(#clip610)" d="M561.839 139.407 L561.839 143.389 Q560.033 142.393 558.205 141.907 Q556.399 141.398 554.547 141.398 Q550.404 141.398 548.112 144.037 Q545.82 146.652 545.82 151.398 Q545.82 156.143 548.112 158.782 Q550.404 161.398 554.547 161.398 Q556.399 161.398 558.205 160.912 Q560.033 160.402 561.839 159.407 L561.839 163.342 Q560.056 164.176 558.135 164.592 Q556.237 165.009 554.084 165.009 Q548.228 165.009 544.779 161.328 Q541.33 157.648 541.33 151.398 Q541.33 145.055 544.802 141.421 Q548.297 137.787 554.362 137.787 Q556.33 137.787 558.205 138.203 Q560.08 138.597 561.839 139.407 Z" fill="#000000" fill-rule="evenodd" fill-opacity="1" /><path clip-path="url(#clip610)" d="M573.459 131.051 L573.459 138.412 L582.232 138.412 L582.232 141.722 L573.459 141.722 L573.459 155.796 Q573.459 158.967 574.316 159.87 Q575.195 160.773 577.857 160.773 L582.232 160.773 L582.232 164.338 L577.857 164.338 Q572.927 164.338 571.052 162.509 Q569.177 160.657 569.177 155.796 L569.177 141.722 L566.052 141.722 L566.052 138.412 L569.177 138.412 L569.177 131.051 L573.459 131.051 Z" fill="#000000" fill-rule="evenodd" fill-opacity="1" /><path clip-path="url(#clip610)" d="M587.834 138.412 L592.093 138.412 L592.093 164.338 L587.834 164.338 L587.834 138.412 M587.834 128.319 L592.093 128.319 L592.093 133.713 L587.834 133.713 L587.834 128.319 Z" fill="#000000" fill-rule="evenodd" fill-opacity="1" /><path clip-path="url(#clip610)" d="M611.051 141.398 Q607.626 141.398 605.635 144.083 Q603.644 146.745 603.644 151.398 Q603.644 156.051 605.612 158.736 Q607.602 161.398 611.051 161.398 Q614.454 161.398 616.445 158.713 Q618.436 156.027 618.436 151.398 Q618.436 146.791 616.445 144.106 Q614.454 141.398 611.051 141.398 M611.051 137.787 Q616.607 137.787 619.778 141.398 Q622.95 145.009 622.95 151.398 Q622.95 157.764 619.778 161.398 Q616.607 165.009 611.051 165.009 Q605.473 165.009 602.302 161.398 Q599.153 157.764 599.153 151.398 Q599.153 145.009 602.302 141.398 Q605.473 137.787 611.051 137.787 Z" fill="#000000" fill-rule="evenodd" fill-opacity="1" /><path clip-path="url(#clip610)" d="M651.561 148.689 L651.561 164.338 L647.301 164.338 L647.301 148.828 Q647.301 145.148 645.866 143.319 Q644.431 141.49 641.561 141.49 Q638.112 141.49 636.121 143.69 Q634.13 145.889 634.13 149.685 L634.13 164.338 L629.848 164.338 L629.848 138.412 L634.13 138.412 L634.13 142.44 Q635.658 140.102 637.718 138.944 Q639.801 137.787 642.51 137.787 Q646.977 137.787 649.269 140.565 Q651.561 143.319 651.561 148.689 Z" fill="#000000" fill-rule="evenodd" fill-opacity="1" /><polyline clip-path="url(#clip610)" style="stroke:#e26f46; stroke-linecap:butt; stroke-linejoin:round; stroke-width:4; stroke-opacity:1; fill:none" points="
  253.896,198.898 400.328,198.898 
  "/>
<path clip-path="url(#clip610)" d="M424.733 181.618 L446.585 181.618 L446.585 185.553 L429.409 185.553 L429.409 195.784 L445.867 195.784 L445.867 199.719 L429.409 199.719 L429.409 212.242 L447.001 212.242 L447.001 216.178 L424.733 216.178 L424.733 181.618 Z" fill="#000000" fill-rule="evenodd" fill-opacity="1" /><path clip-path="url(#clip610)" d="M476.052 190.252 L466.677 202.867 L476.538 216.178 L471.515 216.178 L463.969 205.992 L456.423 216.178 L451.4 216.178 L461.469 202.613 L452.256 190.252 L457.279 190.252 L464.154 199.488 L471.029 190.252 L476.052 190.252 Z" fill="#000000" fill-rule="evenodd" fill-opacity="1" /><path clip-path="url(#clip610)" d="M494.339 203.145 Q489.177 203.145 487.186 204.326 Q485.196 205.506 485.196 208.354 Q485.196 210.622 486.677 211.965 Q488.182 213.284 490.751 213.284 Q494.293 213.284 496.422 210.784 Q498.575 208.261 498.575 204.094 L498.575 203.145 L494.339 203.145 M502.834 201.386 L502.834 216.178 L498.575 216.178 L498.575 212.242 Q497.117 214.603 494.941 215.738 Q492.765 216.849 489.617 216.849 Q485.635 216.849 483.274 214.627 Q480.936 212.381 480.936 208.631 Q480.936 204.256 483.853 202.034 Q486.793 199.812 492.603 199.812 L498.575 199.812 L498.575 199.395 Q498.575 196.455 496.631 194.858 Q494.71 193.238 491.214 193.238 Q488.992 193.238 486.885 193.77 Q484.779 194.303 482.835 195.367 L482.835 191.432 Q485.173 190.53 487.372 190.09 Q489.571 189.627 491.654 189.627 Q497.279 189.627 500.057 192.543 Q502.834 195.46 502.834 201.386 Z" fill="#000000" fill-rule="evenodd" fill-opacity="1" /><path clip-path="url(#clip610)" d="M530.265 191.247 L530.265 195.229 Q528.459 194.233 526.631 193.747 Q524.825 193.238 522.973 193.238 Q518.83 193.238 516.538 195.877 Q514.246 198.492 514.246 203.238 Q514.246 207.983 516.538 210.622 Q518.83 213.238 522.973 213.238 Q524.825 213.238 526.631 212.752 Q528.459 212.242 530.265 211.247 L530.265 215.182 Q528.482 216.016 526.561 216.432 Q524.663 216.849 522.51 216.849 Q516.654 216.849 513.205 213.168 Q509.756 209.488 509.756 203.238 Q509.756 196.895 513.228 193.261 Q516.723 189.627 522.788 189.627 Q524.756 189.627 526.631 190.043 Q528.506 190.437 530.265 191.247 Z" fill="#000000" fill-rule="evenodd" fill-opacity="1" /><path clip-path="url(#clip610)" d="M541.885 182.891 L541.885 190.252 L550.658 190.252 L550.658 193.562 L541.885 193.562 L541.885 207.636 Q541.885 210.807 542.742 211.71 Q543.621 212.613 546.283 212.613 L550.658 212.613 L550.658 216.178 L546.283 216.178 Q541.353 216.178 539.478 214.349 Q537.603 212.497 537.603 207.636 L537.603 193.562 L534.478 193.562 L534.478 190.252 L537.603 190.252 L537.603 182.891 L541.885 182.891 Z" fill="#000000" fill-rule="evenodd" fill-opacity="1" /></svg>
