<?xml version="1.0" encoding="utf-8"?>
<svg xmlns="http://www.w3.org/2000/svg" xmlns:xlink="http://www.w3.org/1999/xlink" width="600" height="400" viewBox="0 0 2400 1600">
<defs>
  <clipPath id="clip580">
    <rect x="0" y="0" width="2400" height="1600"/>
  </clipPath>
</defs>
<path clip-path="url(#clip580)" d="
M0 1600 L2400 1600 L2400 0 L0 0  Z
  " fill="#ffffff" fill-rule="evenodd" fill-opacity="1"/>
<defs>
  <clipPath id="clip581">
    <rect x="480" y="0" width="1681" height="1600"/>
  </clipPath>
</defs>
<path clip-path="url(#clip580)" d="
M156.274 1486.45 L2352.76 1486.45 L2352.76 47.2441 L156.274 47.2441  Z
  " fill="#ffffff" fill-rule="evenodd" fill-opacity="1"/>
<defs>
  <clipPath id="clip582">
    <rect x="156" y="47" width="2197" height="1440"/>
  </clipPath>
</defs>
<polyline clip-path="url(#clip582)" style="stroke:#000000; stroke-linecap:butt; stroke-linejoin:round; stroke-width:2; stroke-opacity:0.1; fill:none" points="
  218.439,1486.45 218.439,47.2441 
  "/>
<polyline clip-path="url(#clip582)" style="stroke:#000000; stroke-linecap:butt; stroke-linejoin:round; stroke-width:2; stroke-opacity:0.1; fill:none" points="
  736.477,1486.45 736.477,47.2441 
  "/>
<polyline clip-path="url(#clip582)" style="stroke:#000000; stroke-linecap:butt; stroke-linejoin:round; stroke-width:2; stroke-opacity:0.1; fill:none" points="
  1254.52,1486.45 1254.52,47.2441 
  "/>
<polyline clip-path="url(#clip582)" style="stroke:#000000; stroke-linecap:butt; stroke-linejoin:round; stroke-width:2; stroke-opacity:0.1; fill:none" points="
  1772.55,1486.45 1772.55,47.2441 
  "/>
<polyline clip-path="url(#clip582)" style="stroke:#000000; stroke-linecap:butt; stroke-linejoin:round; stroke-width:2; stroke-opacity:0.1; fill:none" points="
  2290.59,1486.45 2290.59,47.2441 
  "/>
<polyline clip-path="url(#clip580)" style="stroke:#000000; stroke-linecap:butt; stroke-linejoin:round; stroke-width:4; stroke-opacity:1; fill:none" points="
  156.274,1486.45 2352.76,1486.45 
  "/>
<polyline clip-path="url(#clip580)" style="stroke:#000000; stroke-linecap:butt; stroke-linejoin:round; stroke-width:4; stroke-opacity:1; fill:none" points="
  218.439,1486.45 218.439,1467.55 
  "/>
<polyline clip-path="url(#clip580)" style="stroke:#000000; stroke-linecap:butt; stroke-linejoin:round; stroke-width:4; stroke-opacity:1; fill:none" points="
  736.477,1486.45 736.477,1467.55 
  "/>
<polyline clip-path="url(#clip580)" style="stroke:#000000; stroke-linecap:butt; stroke-linejoin:round; stroke-width:4; stroke-opacity:1; fill:none" points="
  1254.52,1486.45 1254.52,1467.55 
  "/>
<polyline clip-path="url(#clip580)" style="stroke:#000000; stroke-linecap:butt; stroke-linejoin:round; stroke-width:4; stroke-opacity:1; fill:none" points="
  1772.55,1486.45 1772.55,1467.55 
  "/>
<polyline clip-path="url(#clip580)" style="stroke:#000000; stroke-linecap:butt; stroke-linejoin:round; stroke-width:4; stroke-opacity:1; fill:none" points="
  2290.59,1486.45 2290.59,1467.55 
  "/>
<path clip-path="url(#clip580)" d="M164.967 1532.02 L194.643 1532.02 L194.643 1535.95 L164.967 1535.95 L164.967 1532.02 Z" fill="#000000" fill-rule="evenodd" fill-opacity="1" /><path clip-path="url(#clip580)" d="M205.545 1544.91 L213.184 1544.91 L213.184 1518.55 L204.874 1520.21 L204.874 1515.95 L213.138 1514.29 L217.814 1514.29 L217.814 1544.91 L225.453 1544.91 L225.453 1548.85 L205.545 1548.85 L205.545 1544.91 Z" fill="#000000" fill-rule="evenodd" fill-opacity="1" /><path clip-path="url(#clip580)" d="M234.897 1542.97 L239.781 1542.97 L239.781 1548.85 L234.897 1548.85 L234.897 1542.97 Z" fill="#000000" fill-rule="evenodd" fill-opacity="1" /><path clip-path="url(#clip580)" d="M259.966 1517.37 Q256.355 1517.37 254.527 1520.93 Q252.721 1524.47 252.721 1531.6 Q252.721 1538.71 254.527 1542.27 Q256.355 1545.82 259.966 1545.82 Q263.601 1545.82 265.406 1542.27 Q267.235 1538.71 267.235 1531.6 Q267.235 1524.47 265.406 1520.93 Q263.601 1517.37 259.966 1517.37 M259.966 1513.66 Q265.776 1513.66 268.832 1518.27 Q271.911 1522.85 271.911 1531.6 Q271.911 1540.33 268.832 1544.94 Q265.776 1549.52 259.966 1549.52 Q254.156 1549.52 251.077 1544.94 Q248.022 1540.33 248.022 1531.6 Q248.022 1522.85 251.077 1518.27 Q254.156 1513.66 259.966 1513.66 Z" fill="#000000" fill-rule="evenodd" fill-opacity="1" /><path clip-path="url(#clip580)" d="M683.503 1532.02 L713.178 1532.02 L713.178 1535.95 L683.503 1535.95 L683.503 1532.02 Z" fill="#000000" fill-rule="evenodd" fill-opacity="1" /><path clip-path="url(#clip580)" d="M733.271 1517.37 Q729.66 1517.37 727.831 1520.93 Q726.026 1524.47 726.026 1531.6 Q726.026 1538.71 727.831 1542.27 Q729.66 1545.82 733.271 1545.82 Q736.905 1545.82 738.711 1542.27 Q740.539 1538.71 740.539 1531.6 Q740.539 1524.47 738.711 1520.93 Q736.905 1517.37 733.271 1517.37 M733.271 1513.66 Q739.081 1513.66 742.137 1518.27 Q745.215 1522.85 745.215 1531.6 Q745.215 1540.33 742.137 1544.94 Q739.081 1549.52 733.271 1549.52 Q727.461 1549.52 724.382 1544.94 Q721.327 1540.33 721.327 1531.6 Q721.327 1522.85 724.382 1518.27 Q727.461 1513.66 733.271 1513.66 Z" fill="#000000" fill-rule="evenodd" fill-opacity="1" /><path clip-path="url(#clip580)" d="M753.433 1542.97 L758.317 1542.97 L758.317 1548.85 L753.433 1548.85 L753.433 1542.97 Z" fill="#000000" fill-rule="evenodd" fill-opacity="1" /><path clip-path="url(#clip580)" d="M768.548 1514.29 L786.905 1514.29 L786.905 1518.22 L772.831 1518.22 L772.831 1526.7 Q773.849 1526.35 774.868 1526.19 Q775.886 1526 776.905 1526 Q782.692 1526 786.072 1529.17 Q789.451 1532.34 789.451 1537.76 Q789.451 1543.34 785.979 1546.44 Q782.507 1549.52 776.187 1549.52 Q774.011 1549.52 771.743 1549.15 Q769.498 1548.78 767.09 1548.04 L767.09 1543.34 Q769.173 1544.47 771.396 1545.03 Q773.618 1545.58 776.095 1545.58 Q780.099 1545.58 782.437 1543.48 Q784.775 1541.37 784.775 1537.76 Q784.775 1534.15 782.437 1532.04 Q780.099 1529.94 776.095 1529.94 Q774.22 1529.94 772.345 1530.35 Q770.493 1530.77 768.548 1531.65 L768.548 1514.29 Z" fill="#000000" fill-rule="evenodd" fill-opacity="1" /><path clip-path="url(#clip580)" d="M1231.9 1517.37 Q1228.29 1517.37 1226.46 1520.93 Q1224.65 1524.47 1224.65 1531.6 Q1224.65 1538.71 1226.46 1542.27 Q1228.29 1545.82 1231.9 1545.82 Q1235.53 1545.82 1237.34 1542.27 Q1239.17 1538.71 1239.17 1531.6 Q1239.17 1524.47 1237.34 1520.93 Q1235.53 1517.37 1231.9 1517.37 M1231.9 1513.66 Q1237.71 1513.66 1240.77 1518.27 Q1243.84 1522.85 1243.84 1531.6 Q1243.84 1540.33 1240.77 1544.94 Q1237.71 1549.52 1231.9 1549.52 Q1226.09 1549.52 1223.01 1544.94 Q1219.96 1540.33 1219.96 1531.6 Q1219.96 1522.85 1223.01 1518.27 Q1226.09 1513.66 1231.9 1513.66 Z" fill="#000000" fill-rule="evenodd" fill-opacity="1" /><path clip-path="url(#clip580)" d="M1252.06 1542.97 L1256.95 1542.97 L1256.95 1548.85 L1252.06 1548.85 L1252.06 1542.97 Z" fill="#000000" fill-rule="evenodd" fill-opacity="1" /><path clip-path="url(#clip580)" d="M1277.13 1517.37 Q1273.52 1517.37 1271.69 1520.93 Q1269.89 1524.47 1269.89 1531.6 Q1269.89 1538.71 1271.69 1542.27 Q1273.52 1545.82 1277.13 1545.82 Q1280.76 1545.82 1282.57 1542.27 Q1284.4 1538.71 1284.4 1531.6 Q1284.4 1524.47 1282.57 1520.93 Q1280.76 1517.37 1277.13 1517.37 M1277.13 1513.66 Q1282.94 1513.66 1286 1518.27 Q1289.08 1522.85 1289.08 1531.6 Q1289.08 1540.33 1286 1544.94 Q1282.94 1549.52 1277.13 1549.52 Q1271.32 1549.52 1268.24 1544.94 Q1265.19 1540.33 1265.19 1531.6 Q1265.19 1522.85 1268.24 1518.27 Q1271.32 1513.66 1277.13 1513.66 Z" fill="#000000" fill-rule="evenodd" fill-opacity="1" /><path clip-path="url(#clip580)" d="M1750.44 1517.37 Q1746.82 1517.37 1745 1520.93 Q1743.19 1524.47 1743.19 1531.6 Q1743.19 1538.71 1745 1542.27 Q1746.82 1545.82 1750.44 1545.82 Q1754.07 1545.82 1755.88 1542.27 Q1757.7 1538.71 1757.7 1531.6 Q1757.7 1524.47 1755.88 1520.93 Q1754.07 1517.37 1750.44 1517.37 M1750.44 1513.66 Q1756.25 1513.66 1759.3 1518.27 Q1762.38 1522.85 1762.38 1531.6 Q1762.38 1540.33 1759.3 1544.94 Q1756.25 1549.52 1750.44 1549.52 Q1744.63 1549.52 1741.55 1544.94 Q1738.49 1540.33 1738.49 1531.6 Q1738.49 1522.85 1741.55 1518.27 Q1744.63 1513.66 1750.44 1513.66 Z" fill="#000000" fill-rule="evenodd" fill-opacity="1" /><path clip-path="url(#clip580)" d="M1770.6 1542.97 L1775.48 1542.97 L1775.48 1548.85 L1770.6 1548.85 L1770.6 1542.97 Z" fill="#000000" fill-rule="evenodd" fill-opacity="1" /><path clip-path="url(#clip580)" d="M1785.71 1514.29 L1804.07 1514.29 L1804.07 1518.22 L1790 1518.22 L1790 1526.7 Q1791.01 1526.35 1792.03 1526.19 Q1793.05 1526 1794.07 1526 Q1799.86 1526 1803.24 1529.17 Q1806.62 1532.34 1806.62 1537.76 Q1806.62 1543.34 1803.14 1546.44 Q1799.67 1549.52 1793.35 1549.52 Q1791.18 1549.52 1788.91 1549.15 Q1786.66 1548.78 1784.25 1548.04 L1784.25 1543.34 Q1786.34 1544.47 1788.56 1545.03 Q1790.78 1545.58 1793.26 1545.58 Q1797.26 1545.58 1799.6 1543.48 Q1801.94 1541.37 1801.94 1537.76 Q1801.94 1534.15 1799.6 1532.04 Q1797.26 1529.94 1793.26 1529.94 Q1791.38 1529.94 1789.51 1530.35 Q1787.66 1530.77 1785.71 1531.65 L1785.71 1514.29 Z" fill="#000000" fill-rule="evenodd" fill-opacity="1" /><path clip-path="url(#clip580)" d="M2257.74 1544.91 L2265.38 1544.91 L2265.38 1518.55 L2257.07 1520.21 L2257.07 1515.95 L2265.34 1514.29 L2270.01 1514.29 L2270.01 1544.91 L2277.65 1544.91 L2277.65 1548.85 L2257.74 1548.85 L2257.74 1544.91 Z" fill="#000000" fill-rule="evenodd" fill-opacity="1" /><path clip-path="url(#clip580)" d="M2287.1 1542.97 L2291.98 1542.97 L2291.98 1548.85 L2287.1 1548.85 L2287.1 1542.97 Z" fill="#000000" fill-rule="evenodd" fill-opacity="1" /><path clip-path="url(#clip580)" d="M2312.17 1517.37 Q2308.55 1517.37 2306.73 1520.93 Q2304.92 1524.47 2304.92 1531.6 Q2304.92 1538.71 2306.73 1542.27 Q2308.55 1545.82 2312.17 1545.82 Q2315.8 1545.82 2317.61 1542.27 Q2319.43 1538.71 2319.43 1531.6 Q2319.43 1524.47 2317.61 1520.93 Q2315.8 1517.37 2312.17 1517.37 M2312.17 1513.66 Q2317.98 1513.66 2321.03 1518.27 Q2324.11 1522.85 2324.11 1531.6 Q2324.11 1540.33 2321.03 1544.94 Q2317.98 1549.52 2312.17 1549.52 Q2306.36 1549.52 2303.28 1544.94 Q2300.22 1540.33 2300.22 1531.6 Q2300.22 1522.85 2303.28 1518.27 Q2306.36 1513.66 2312.17 1513.66 Z" fill="#000000" fill-rule="evenodd" fill-opacity="1" /><polyline clip-path="url(#clip582)" style="stroke:#000000; stroke-linecap:butt; stroke-linejoin:round; stroke-width:2; stroke-opacity:0.1; fill:none" points="
  156.274,1261.39 2352.76,1261.39 
  "/>
<polyline clip-path="url(#clip582)" style="stroke:#000000; stroke-linecap:butt; stroke-linejoin:round; stroke-width:2; stroke-opacity:0.1; fill:none" points="
  156.274,985.902 2352.76,985.902 
  "/>
<polyline clip-path="url(#clip582)" style="stroke:#000000; stroke-linecap:butt; stroke-linejoin:round; stroke-width:2; stroke-opacity:0.1; fill:none" points="
  156.274,710.418 2352.76,710.418 
  "/>
<polyline clip-path="url(#clip582)" style="stroke:#000000; stroke-linecap:butt; stroke-linejoin:round; stroke-width:2; stroke-opacity:0.1; fill:none" points="
  156.274,434.935 2352.76,434.935 
  "/>
<polyline clip-path="url(#clip582)" style="stroke:#000000; stroke-linecap:butt; stroke-linejoin:round; stroke-width:2; stroke-opacity:0.1; fill:none" points="
  156.274,159.452 2352.76,159.452 
  "/>
<polyline clip-path="url(#clip580)" style="stroke:#000000; stroke-linecap:butt; stroke-linejoin:round; stroke-width:4; stroke-opacity:1; fill:none" points="
  156.274,1486.45 156.274,47.2441 
  "/>
<polyline clip-path="url(#clip580)" style="stroke:#000000; stroke-linecap:butt; stroke-linejoin:round; stroke-width:4; stroke-opacity:1; fill:none" points="
  156.274,1261.39 175.172,1261.39 
  "/>
<polyline clip-path="url(#clip580)" style="stroke:#000000; stroke-linecap:butt; stroke-linejoin:round; stroke-width:4; stroke-opacity:1; fill:none" points="
  156.274,985.902 175.172,985.902 
  "/>
<polyline clip-path="url(#clip580)" style="stroke:#000000; stroke-linecap:butt; stroke-linejoin:round; stroke-width:4; stroke-opacity:1; fill:none" points="
  156.274,710.418 175.172,710.418 
  "/>
<polyline clip-path="url(#clip580)" style="stroke:#000000; stroke-linecap:butt; stroke-linejoin:round; stroke-width:4; stroke-opacity:1; fill:none" points="
  156.274,434.935 175.172,434.935 
  "/>
<polyline clip-path="url(#clip580)" style="stroke:#000000; stroke-linecap:butt; stroke-linejoin:round; stroke-width:4; stroke-opacity:1; fill:none" points="
  156.274,159.452 175.172,159.452 
  "/>
<path clip-path="url(#clip580)" d="M63.0985 1247.18 Q59.4875 1247.18 57.6588 1250.75 Q55.8532 1254.29 55.8532 1261.42 Q55.8532 1268.53 57.6588 1272.09 Q59.4875 1275.63 63.0985 1275.63 Q66.7328 1275.63 68.5383 1272.09 Q70.367 1268.53 70.367 1261.42 Q70.367 1254.29 68.5383 1250.75 Q66.7328 1247.18 63.0985 1247.18 M63.0985 1243.48 Q68.9087 1243.48 71.9642 1248.09 Q75.0429 1252.67 75.0429 1261.42 Q75.0429 1270.15 71.9642 1274.75 Q68.9087 1279.34 63.0985 1279.34 Q57.2884 1279.34 54.2097 1274.75 Q51.1542 1270.15 51.1542 1261.42 Q51.1542 1252.67 54.2097 1248.09 Q57.2884 1243.48 63.0985 1243.48 Z" fill="#000000" fill-rule="evenodd" fill-opacity="1" /><path clip-path="url(#clip580)" d="M83.2605 1272.79 L88.1447 1272.79 L88.1447 1278.67 L83.2605 1278.67 L83.2605 1272.79 Z" fill="#000000" fill-rule="evenodd" fill-opacity="1" /><path clip-path="url(#clip580)" d="M108.33 1247.18 Q104.719 1247.18 102.89 1250.75 Q101.084 1254.29 101.084 1261.42 Q101.084 1268.53 102.89 1272.09 Q104.719 1275.63 108.33 1275.63 Q111.964 1275.63 113.77 1272.09 Q115.598 1268.53 115.598 1261.42 Q115.598 1254.29 113.77 1250.75 Q111.964 1247.18 108.33 1247.18 M108.33 1243.48 Q114.14 1243.48 117.195 1248.09 Q120.274 1252.67 120.274 1261.42 Q120.274 1270.15 117.195 1274.75 Q114.14 1279.34 108.33 1279.34 Q102.52 1279.34 99.4409 1274.75 Q96.3854 1270.15 96.3854 1261.42 Q96.3854 1252.67 99.4409 1248.09 Q102.52 1243.48 108.33 1243.48 Z" fill="#000000" fill-rule="evenodd" fill-opacity="1" /><path clip-path="url(#clip580)" d="M63.7467 971.701 Q60.1356 971.701 58.3069 975.265 Q56.5014 978.807 56.5014 985.937 Q56.5014 993.043 58.3069 996.608 Q60.1356 1000.15 63.7467 1000.15 Q67.3809 1000.15 69.1865 996.608 Q71.0152 993.043 71.0152 985.937 Q71.0152 978.807 69.1865 975.265 Q67.3809 971.701 63.7467 971.701 M63.7467 967.997 Q69.5568 967.997 72.6124 972.603 Q75.6911 977.187 75.6911 985.937 Q75.6911 994.663 72.6124 999.27 Q69.5568 1003.85 63.7467 1003.85 Q57.9365 1003.85 54.8578 999.27 Q51.8023 994.663 51.8023 985.937 Q51.8023 977.187 54.8578 972.603 Q57.9365 967.997 63.7467 967.997 Z" fill="#000000" fill-rule="evenodd" fill-opacity="1" /><path clip-path="url(#clip580)" d="M83.9086 997.302 L88.7928 997.302 L88.7928 1003.18 L83.9086 1003.18 L83.9086 997.302 Z" fill="#000000" fill-rule="evenodd" fill-opacity="1" /><path clip-path="url(#clip580)" d="M113.145 984.548 Q116.501 985.265 118.376 987.534 Q120.274 989.802 120.274 993.136 Q120.274 998.251 116.756 1001.05 Q113.237 1003.85 106.756 1003.85 Q104.58 1003.85 102.265 1003.41 Q99.9733 1003 97.5197 1002.14 L97.5197 997.626 Q99.4641 998.761 101.779 999.339 Q104.094 999.918 106.617 999.918 Q111.015 999.918 113.307 998.182 Q115.621 996.446 115.621 993.136 Q115.621 990.08 113.469 988.367 Q111.339 986.631 107.52 986.631 L103.492 986.631 L103.492 982.788 L107.705 982.788 Q111.154 982.788 112.983 981.423 Q114.811 980.034 114.811 977.441 Q114.811 974.779 112.913 973.367 Q111.038 971.932 107.52 971.932 Q105.598 971.932 103.399 972.349 Q101.2 972.765 98.5613 973.645 L98.5613 969.478 Q101.223 968.738 103.538 968.367 Q105.876 967.997 107.936 967.997 Q113.26 967.997 116.362 970.427 Q119.464 972.835 119.464 976.955 Q119.464 979.826 117.82 981.816 Q116.177 983.784 113.145 984.548 Z" fill="#000000" fill-rule="evenodd" fill-opacity="1" /><path clip-path="url(#clip580)" d="M62.9365 696.217 Q59.3254 696.217 57.4967 699.782 Q55.6912 703.324 55.6912 710.453 Q55.6912 717.56 57.4967 721.124 Q59.3254 724.666 62.9365 724.666 Q66.5707 724.666 68.3763 721.124 Q70.205 717.56 70.205 710.453 Q70.205 703.324 68.3763 699.782 Q66.5707 696.217 62.9365 696.217 M62.9365 692.513 Q68.7467 692.513 71.8022 697.12 Q74.8809 701.703 74.8809 710.453 Q74.8809 719.18 71.8022 723.786 Q68.7467 728.37 62.9365 728.37 Q57.1264 728.37 54.0477 723.786 Q50.9921 719.18 50.9921 710.453 Q50.9921 701.703 54.0477 697.12 Q57.1264 692.513 62.9365 692.513 Z" fill="#000000" fill-rule="evenodd" fill-opacity="1" /><path clip-path="url(#clip580)" d="M83.0984 721.819 L87.9827 721.819 L87.9827 727.698 L83.0984 727.698 L83.0984 721.819 Z" fill="#000000" fill-rule="evenodd" fill-opacity="1" /><path clip-path="url(#clip580)" d="M108.746 708.555 Q105.598 708.555 103.746 710.708 Q101.918 712.861 101.918 716.611 Q101.918 720.337 103.746 722.513 Q105.598 724.666 108.746 724.666 Q111.895 724.666 113.723 722.513 Q115.575 720.337 115.575 716.611 Q115.575 712.861 113.723 710.708 Q111.895 708.555 108.746 708.555 M118.029 693.902 L118.029 698.162 Q116.27 697.328 114.464 696.888 Q112.682 696.449 110.922 696.449 Q106.293 696.449 103.839 699.574 Q101.409 702.699 101.061 709.018 Q102.427 707.004 104.487 705.939 Q106.547 704.851 109.024 704.851 Q114.233 704.851 117.242 708.023 Q120.274 711.171 120.274 716.611 Q120.274 721.935 117.126 725.152 Q113.978 728.37 108.746 728.37 Q102.751 728.37 99.5798 723.786 Q96.4085 719.18 96.4085 710.453 Q96.4085 702.259 100.297 697.398 Q104.186 692.513 110.737 692.513 Q112.496 692.513 114.279 692.861 Q116.084 693.208 118.029 693.902 Z" fill="#000000" fill-rule="evenodd" fill-opacity="1" /><path clip-path="url(#clip580)" d="M63.2837 420.734 Q59.6726 420.734 57.8439 424.298 Q56.0384 427.84 56.0384 434.97 Q56.0384 442.076 57.8439 445.641 Q59.6726 449.183 63.2837 449.183 Q66.918 449.183 68.7235 445.641 Q70.5522 442.076 70.5522 434.97 Q70.5522 427.84 68.7235 424.298 Q66.918 420.734 63.2837 420.734 M63.2837 417.03 Q69.0939 417.03 72.1494 421.636 Q75.2281 426.22 75.2281 434.97 Q75.2281 443.697 72.1494 448.303 Q69.0939 452.886 63.2837 452.886 Q57.4736 452.886 54.3949 448.303 Q51.3393 443.697 51.3393 434.97 Q51.3393 426.22 54.3949 421.636 Q57.4736 417.03 63.2837 417.03 Z" fill="#000000" fill-rule="evenodd" fill-opacity="1" /><path clip-path="url(#clip580)" d="M83.4457 446.335 L88.3299 446.335 L88.3299 452.215 L83.4457 452.215 L83.4457 446.335 Z" fill="#000000" fill-rule="evenodd" fill-opacity="1" /><path clip-path="url(#clip580)" d="M98.6539 451.497 L98.6539 447.238 Q100.413 448.071 102.219 448.511 Q104.024 448.951 105.76 448.951 Q110.39 448.951 112.82 445.849 Q115.274 442.724 115.621 436.382 Q114.279 438.372 112.219 439.437 Q110.158 440.502 107.658 440.502 Q102.473 440.502 99.4409 437.377 Q96.4317 434.229 96.4317 428.789 Q96.4317 423.465 99.5798 420.248 Q102.728 417.03 107.959 417.03 Q113.955 417.03 117.103 421.636 Q120.274 426.22 120.274 434.97 Q120.274 443.141 116.385 448.025 Q112.52 452.886 105.969 452.886 Q104.209 452.886 102.404 452.539 Q100.598 452.192 98.6539 451.497 M107.959 436.845 Q111.108 436.845 112.936 434.692 Q114.788 432.539 114.788 428.789 Q114.788 425.062 112.936 422.91 Q111.108 420.734 107.959 420.734 Q104.811 420.734 102.959 422.91 Q101.131 425.062 101.131 428.789 Q101.131 432.539 102.959 434.692 Q104.811 436.845 107.959 436.845 Z" fill="#000000" fill-rule="evenodd" fill-opacity="1" /><path clip-path="url(#clip580)" d="M55.506 172.796 L63.1448 172.796 L63.1448 146.431 L54.8347 148.097 L54.8347 143.838 L63.0985 142.172 L67.7744 142.172 L67.7744 172.796 L75.4133 172.796 L75.4133 176.732 L55.506 176.732 L55.506 172.796 Z" fill="#000000" fill-rule="evenodd" fill-opacity="1" /><path clip-path="url(#clip580)" d="M84.8577 170.852 L89.7419 170.852 L89.7419 176.732 L84.8577 176.732 L84.8577 170.852 Z" fill="#000000" fill-rule="evenodd" fill-opacity="1" /><path clip-path="url(#clip580)" d="M103.955 172.796 L120.274 172.796 L120.274 176.732 L98.3298 176.732 L98.3298 172.796 Q100.992 170.042 105.575 165.412 Q110.182 160.759 111.362 159.417 Q113.608 156.894 114.487 155.158 Q115.39 153.398 115.39 151.709 Q115.39 148.954 113.445 147.218 Q111.524 145.482 108.422 145.482 Q106.223 145.482 103.77 146.246 Q101.339 147.009 98.5613 148.56 L98.5613 143.838 Q101.385 142.704 103.839 142.125 Q106.293 141.547 108.33 141.547 Q113.7 141.547 116.895 144.232 Q120.089 146.917 120.089 151.408 Q120.089 153.537 119.279 155.459 Q118.492 157.357 116.385 159.949 Q115.807 160.621 112.705 163.838 Q109.603 167.033 103.955 172.796 Z" fill="#000000" fill-rule="evenodd" fill-opacity="1" /><polyline clip-path="url(#clip582)" style="stroke:#009af9; stroke-linecap:butt; stroke-linejoin:round; stroke-width:16; stroke-opacity:1; fill:none" stroke-dasharray="8, 16" points="
  218.439,1121.6 225.369,1111.3 232.299,1100.45 239.23,1090.42 246.16,1082.55 253.09,1077.83 260.02,1076.68 266.951,1078.92 273.881,1084.01 280.811,1091.29 
  287.742,1100.33 294.672,1111.03 301.602,1123.59 308.532,1138.27 315.463,1155.29 322.393,1174.68 329.323,1196.06 336.253,1218.49 343.184,1240.68 350.114,1261.69 
  357.044,1281.71 363.975,1301.95 370.905,1323.38 377.835,1345.5 384.765,1366.51 391.696,1384.74 398.626,1399.68 405.556,1411.86 412.486,1422.09 419.417,1430.82 
  426.347,1437.97 433.277,1443.1 440.208,1445.66 447.138,1445.22 454.068,1441.59 460.998,1434.85 467.929,1425.32 474.859,1413.42 481.789,1399.58 488.72,1384.11 
  495.65,1367.21 502.58,1348.97 509.51,1329.44 516.441,1308.76 523.371,1287.16 530.301,1264.99 537.231,1242.69 544.162,1220.64 551.092,1199.21 558.022,1178.71 
  564.953,1159.46 571.883,1141.79 578.813,1126.02 585.743,1112.4 592.674,1101.09 599.604,1092.12 606.534,1085.42 613.464,1080.94 620.395,1078.69 627.325,1078.79 
  634.255,1081.54 641.186,1087.24 648.116,1096.05 655.046,1107.84 661.976,1122.1 668.907,1138.1 675.837,1155.21 682.767,1173.2 689.698,1192.23 696.628,1212.51 
  703.558,1234.04 710.488,1256.45 717.419,1279.1 724.349,1301.36 731.279,1322.76 738.209,1343 745.14,1361.93 752.07,1379.4 759,1395.24 765.931,1409.27 
  772.861,1421.29 779.791,1431.1 786.721,1438.51 793.652,1443.34 800.582,1445.44 807.512,1444.78 814.442,1441.38 821.373,1435.38 828.303,1426.89 835.233,1416.06 
  842.164,1403.06 849.094,1388.12 856.024,1371.42 862.954,1353.2 869.885,1333.54 876.815,1312.41 883.745,1290.23 890.676,1267.93 897.606,1246.19 904.536,1225.03 
  911.466,1204.13 918.397,1183.15 925.327,1162.69 932.257,1144.8 939.187,1129.91 946.118,1115.43 953.048,1101.94 959.978,1092.76 966.909,1085.98 973.839,1079.95 
  980.769,1077.9 987.699,1079.14 994.63,1080.7 1001.56,1085.84 1008.49,1095.64 1015.42,1105.39 1022.35,1117 1029.28,1133.21 1036.21,1150.84 1043.14,1168.59 
  1050.07,1187.48 1057,1208.7 1063.93,1231.62 1070.86,1253.51 1077.79,1274.36 1084.72,1296.15 1091.65,1318.49 1098.58,1339.38 1105.51,1358.03 1112.44,1375.27 
  1119.37,1392.01 1126.3,1407.68 1133.24,1420.39 1140.17,1429.23 1147.1,1435.7 1154.03,1441.38 1160.96,1445.41 1167.89,1445.72 1174.82,1441.66 1181.75,1434.66 
  1188.68,1426.71 1195.61,1418.19 1202.54,1406.98 1209.47,1390.93 1216.4,1372.44 1223.33,1355.87 1230.26,1336.38 1237.19,1316.89 1244.12,1295.24 1251.05,1260.64 
  1257.98,345.602 1264.91,330.969 1271.84,350.255 1278.77,334.462 1285.7,343.981 1292.63,351.742 1299.56,351.84 1306.49,353.631 1313.42,357.487 1320.35,360.164 
  1327.28,359.894 1334.21,356.298 1341.14,349.458 1348.07,339.901 1355,329.244 1361.93,320.07 1368.86,314.219 1375.79,311.579 1382.73,311.974 1389.66,316.734 
  1396.59,326.459 1403.52,340.021 1410.45,355.423 1417.38,369.58 1424.31,380.483 1431.24,388.464 1438.17,392.582 1445.1,389.404 1452.03,377.635 1458.96,360.648 
  1465.89,342.212 1472.82,322.235 1479.75,302.044 1486.68,287.183 1493.61,279.561 1500.54,280.204 1507.47,289.625 1514.4,304.854 1521.33,326.239 1528.26,354.153 
  1535.19,380.188 1542.12,399.554 1549.05,414.723 1555.98,423.725 1562.91,421.211 1569.84,405.325 1576.77,380.965 1583.7,353.481 1590.63,324.181 1597.56,294.09 
  1604.49,267.418 1611.42,249.937 1618.35,245.645 1625.28,255.295 1632.22,276.981 1639.15,307.37 1646.08,342.653 1653.01,378.936 1659.94,412.265 1666.87,438.589 
  1673.8,453.975 1680.73,455.284 1687.66,441.17 1694.59,412.859 1701.52,374.148 1708.45,330.56 1715.38,288.133 1722.31,252.414 1729.24,227.839 1736.17,217.38 
  1743.1,222.396 1750.03,242.665 1756.96,276.503 1763.89,320.734 1770.82,370.42 1777.75,418.827 1784.68,458.369 1791.61,482.57 1798.54,487.925 1805.47,474.36 
  1812.4,444.343 1819.33,401.692 1826.26,351.004 1833.19,297.669 1840.12,247.887 1847.05,208.261 1853.98,184.91 1860.91,182.271 1867.84,201.898 1874.77,241.688 
  1881.71,296.023 1888.64,356.954 1895.57,415.953 1902.5,465.472 1909.43,499.785 1916.36,515.184 1923.29,509.851 1930.22,483.816 1937.15,439.14 1944.08,380.217 
  1951.01,313.87 1957.94,248.859 1964.87,194.615 1971.8,159.44 1978.73,148.763 1985.66,164.119 1992.59,203.166 1999.52,260.5 2006.45,328.779 2013.38,399.677 
  2020.31,464.609 2027.24,515.408 2034.17,545.19 2041.1,549.378 2048.03,526.632 2054.96,479.299 2061.89,413.18 2068.82,336.701 2075.75,259.736 2082.68,192.34 
  2089.61,143.513 2096.54,120.024 2103.47,125.385 2110.4,159.255 2117.33,217.478 2124.26,292.743 2131.19,375.582 2138.13,455.507 2145.06,522.245 2151.99,567.019 
  2158.92,583.66 2165.85,569.369 2172.78,525.176 2179.71,456.12 2186.64,370.937 2193.57,280.94 2200.5,198.22 2207.43,133.744 2214.36,95.8466 2221.29,89.3038 
  2228.22,114.968 2235.15,169.998 2242.08,248.396 2249.01,341.344 2255.94,437.149 2262.87,521.954 2269.8,582.568 2276.73,610.771 2283.66,606.163 2290.59,575.325 
  
  "/>
<polyline clip-path="url(#clip582)" style="stroke:#e26f46; stroke-linecap:butt; stroke-linejoin:round; stroke-width:4; stroke-opacity:1; fill:none" points="
  218.439,1123.46 225.369,1109.89 232.299,1098.52 239.23,1089.5 246.16,1082.98 253.09,1079.03 260.02,1077.73 266.951,1079.09 273.881,1083.08 280.811,1089.66 
  287.742,1098.72 294.672,1110.14 301.602,1123.75 308.532,1139.35 315.463,1156.71 322.393,1175.6 329.323,1195.72 336.253,1216.8 343.184,1238.52 350.114,1260.58 
  357.044,1282.64 363.975,1304.4 370.905,1325.53 377.835,1345.74 384.765,1364.72 391.696,1382.21 398.626,1397.95 405.556,1411.71 412.486,1423.29 419.417,1432.53 
  426.347,1439.3 433.277,1443.48 440.208,1445.03 447.138,1443.92 454.068,1440.17 460.998,1433.83 467.929,1424.99 474.859,1413.79 481.789,1400.37 488.72,1384.95 
  495.65,1367.73 502.58,1348.98 509.51,1328.96 516.441,1307.96 523.371,1286.28 530.301,1264.24 537.231,1242.17 544.162,1220.37 551.092,1199.16 558.022,1178.86 
  564.953,1159.75 571.883,1142.11 578.813,1126.2 585.743,1112.25 592.674,1100.46 599.604,1090.99 606.534,1083.99 613.464,1079.57 620.395,1077.77 627.325,1078.63 
  634.255,1082.14 641.186,1088.25 648.116,1096.86 655.046,1107.85 661.976,1121.07 668.907,1136.31 675.837,1153.37 682.767,1172 689.698,1191.91 696.628,1212.84 
  703.558,1234.46 710.488,1256.48 717.419,1278.56 724.349,1300.4 731.279,1321.67 738.209,1342.07 745.14,1361.31 752.07,1379.09 759,1395.17 765.931,1409.32 
  772.861,1421.32 779.791,1431 786.721,1438.23 793.652,1442.9 800.582,1444.95 807.512,1444.33 814.442,1441.06 821.373,1435.2 828.303,1426.81 835.233,1416.03 
  842.164,1403.02 849.094,1387.95 856.024,1371.05 862.954,1352.56 869.885,1332.75 876.815,1311.91 883.745,1290.33 890.676,1268.34 897.606,1246.25 904.536,1224.37 
  911.466,1203.04 918.397,1182.54 925.327,1163.19 932.257,1145.26 939.187,1129.01 946.118,1114.68 953.048,1102.47 959.978,1092.56 966.909,1085.1 973.839,1080.19 
  980.769,1077.9 987.699,1078.27 994.63,1081.29 1001.56,1086.92 1008.49,1095.08 1015.42,1105.64 1022.35,1118.46 1029.28,1133.35 1036.21,1150.09 1043.14,1168.44 
  1050.07,1188.14 1057,1208.9 1063.93,1230.41 1070.86,1252.38 1077.79,1274.48 1084.72,1296.39 1091.65,1317.79 1098.58,1338.37 1105.51,1357.84 1112.44,1375.92 
  1119.37,1392.33 1126.3,1406.85 1133.24,1419.26 1140.17,1429.39 1147.1,1437.08 1154.03,1442.24 1160.96,1444.77 1167.89,1444.64 1174.82,1441.87 1181.75,1436.48 
  1188.68,1428.55 1195.61,1418.21 1202.54,1405.59 1209.47,1390.89 1216.4,1374.31 1223.33,1356.09 1230.26,1336.51 1237.19,1315.84 1244.12,1294.37 1251.05,1272.43 
  1257.98,342.201 1264.91,340.739 1271.84,340.254 1278.77,341.161 1285.7,343.56 1292.63,347.201 1299.56,351.505 1306.49,355.654 1313.42,358.73 1320.35,359.883 
  1327.28,358.498 1334.21,354.337 1341.14,347.623 1348.07,339.049 1355,329.714 1361.93,320.98 1368.86,314.278 1375.79,310.883 1382.73,311.696 1389.66,317.069 
  1396.59,326.7 1403.52,339.622 1410.45,354.29 1417.38,368.77 1424.31,380.987 1431.24,389.023 1438.17,391.411 1445.1,387.374 1452.03,376.99 1458.96,361.238 
  1465.89,341.919 1472.82,321.45 1479.75,302.569 1486.68,287.96 1493.61,279.883 1500.54,279.829 1507.47,288.272 1514.4,304.546 1521.33,326.877 1528.26,352.571 
  1535.19,378.335 1542.12,400.7 1549.05,416.49 1555.98,423.264 1562.91,419.687 1569.84,405.762 1576.77,382.886 1583.7,353.722 1590.63,321.895 1597.56,291.541 
  1604.49,266.767 1611.42,251.101 1618.35,246.99 1625.28,255.43 1632.22,275.782 1639.15,305.789 1646.08,341.824 1653.01,379.327 1659.94,413.38 1666.87,439.352 
  1673.8,453.526 1680.73,453.63 1687.66,439.182 1694.59,411.617 1701.52,374.154 1708.45,331.428 1715.38,288.912 1722.31,252.223 1729.24,226.373 1736.17,215.094 
  1743.1,220.297 1750.03,241.774 1756.96,277.162 1763.89,322.193 1770.82,371.209 1777.75,417.874 1784.68,455.988 1791.61,480.314 1798.54,487.294 1805.47,475.562 
  1812.4,446.179 1819.33,402.557 1826.26,350.067 1833.19,295.378 1840.12,245.61 1847.05,207.41 1853.98,186.06 1860.91,184.755 1867.84,204.132 1874.77,242.126 
  1881.71,294.182 1888.64,353.797 1895.57,413.333 1902.5,464.992 1909.43,501.841 1916.36,518.741 1923.29,513.055 1930.22,485.054 1937.15,437.935 1944.08,377.467 
  1951.01,311.286 1957.94,247.928 1964.87,195.732 1971.8,161.742 1978.73,150.755 1985.66,164.653 1992.59,202.098 1999.52,258.647 2006.45,327.275 2013.38,399.244 
  2020.31,465.219 2027.24,516.476 2034.17,546.059 2041.1,549.715 2048.03,526.505 2054.96,478.982 2061.89,412.921 2068.82,336.619 2075.75,259.853 2082.68,192.626 
  2089.61,143.869 2096.54,120.25 2103.47,125.268 2110.4,158.74 2117.33,216.769 2124.26,292.191 2131.19,375.453 2138.13,455.832 2145.06,522.805 2151.99,567.435 
  2158.92,583.558 2165.85,568.633 2172.78,524.126 2179.71,455.383 2186.64,370.991 2193.57,281.708 2200.5,199.084 2207.43,133.981 2214.36,95.1313 2221.29,87.9763 
  2228.22,113.906 2235.15,170.023 2242.08,249.45 2249.01,342.181 2255.94,436.334 2262.87,519.676 2269.8,581.21 2276.73,612.63 2283.66,609.434 2290.59,571.568 
  
  "/>
<path clip-path="url(#clip580)" d="
M229.49 250.738 L700.371 250.738 L700.371 95.2176 L229.49 95.2176  Z
  " fill="#ffffff" fill-rule="evenodd" fill-opacity="1"/>
<polyline clip-path="url(#clip580)" style="stroke:#000000; stroke-linecap:butt; stroke-linejoin:round; stroke-width:4; stroke-opacity:1; fill:none" points="
  229.49,250.738 700.371,250.738 700.371,95.2176 229.49,95.2176 229.49,250.738 
  "/>
<polyline clip-path="url(#clip580)" style="stroke:#009af9; stroke-linecap:butt; stroke-linejoin:round; stroke-width:4; stroke-opacity:1; fill:none" stroke-dasharray="2, 4" points="
  253.896,147.058 400.328,147.058 
  "/>
<path clip-path="url(#clip580)" d="M429.409 133.62 L429.409 146.606 L435.289 146.606 Q438.552 146.606 440.335 144.916 Q442.117 143.227 442.117 140.102 Q442.117 137 440.335 135.31 Q438.552 133.62 435.289 133.62 L429.409 133.62 M424.733 129.778 L435.289 129.778 Q441.099 129.778 444.062 132.416 Q447.048 135.032 447.048 140.102 Q447.048 145.217 444.062 147.833 Q441.099 150.449 435.289 150.449 L429.409 150.449 L429.409 164.338 L424.733 164.338 L424.733 129.778 Z" fill="#000000" fill-rule="evenodd" fill-opacity="1" /><path clip-path="url(#clip580)" d="M467.325 142.393 Q466.608 141.977 465.751 141.791 Q464.918 141.583 463.899 141.583 Q460.288 141.583 458.344 143.944 Q456.423 146.282 456.423 150.68 L456.423 164.338 L452.14 164.338 L452.14 138.412 L456.423 138.412 L456.423 142.44 Q457.765 140.078 459.918 138.944 Q462.071 137.787 465.149 137.787 Q465.589 137.787 466.122 137.856 Q466.654 137.903 467.302 138.018 L467.325 142.393 Z" fill="#000000" fill-rule="evenodd" fill-opacity="1" /><path clip-path="url(#clip580)" d="M492.927 150.31 L492.927 152.393 L473.344 152.393 Q473.622 156.791 475.983 159.106 Q478.367 161.398 482.603 161.398 Q485.057 161.398 487.348 160.796 Q489.663 160.194 491.932 158.99 L491.932 163.018 Q489.64 163.99 487.233 164.5 Q484.825 165.009 482.348 165.009 Q476.145 165.009 472.511 161.398 Q468.899 157.787 468.899 151.629 Q468.899 145.264 472.325 141.537 Q475.774 137.787 481.608 137.787 Q486.839 137.787 489.872 141.166 Q492.927 144.523 492.927 150.31 M488.668 149.06 Q488.622 145.565 486.7 143.481 Q484.802 141.398 481.654 141.398 Q478.089 141.398 475.936 143.412 Q473.807 145.426 473.483 149.083 L488.668 149.06 Z" fill="#000000" fill-rule="evenodd" fill-opacity="1" /><path clip-path="url(#clip580)" d="M516.978 142.347 L516.978 128.319 L521.237 128.319 L521.237 164.338 L516.978 164.338 L516.978 160.449 Q515.635 162.763 513.575 163.898 Q511.538 165.009 508.668 165.009 Q503.969 165.009 501.006 161.259 Q498.066 157.509 498.066 151.398 Q498.066 145.287 501.006 141.537 Q503.969 137.787 508.668 137.787 Q511.538 137.787 513.575 138.921 Q515.635 140.032 516.978 142.347 M502.464 151.398 Q502.464 156.097 504.385 158.782 Q506.33 161.444 509.709 161.444 Q513.089 161.444 515.033 158.782 Q516.978 156.097 516.978 151.398 Q516.978 146.699 515.033 144.037 Q513.089 141.352 509.709 141.352 Q506.33 141.352 504.385 144.037 Q502.464 146.699 502.464 151.398 Z" fill="#000000" fill-rule="evenodd" fill-opacity="1" /><path clip-path="url(#clip580)" d="M530.01 138.412 L534.269 138.412 L534.269 164.338 L530.01 164.338 L530.01 138.412 M530.01 128.319 L534.269 128.319 L534.269 133.713 L530.01 133.713 L530.01 128.319 Z" fill="#000000" fill-rule="evenodd" fill-opacity="1" /><path clip-path="url(#clip580)" d="M561.839 139.407 L561.839 143.389 Q560.033 142.393 558.205 141.907 Q556.399 141.398 554.547 141.398 Q550.404 141.398 548.112 144.037 Q545.82 146.652 545.82 151.398 Q545.82 156.143 548.112 158.782 Q550.404 161.398 554.547 161.398 Q556.399 161.398 558.205 160.912 Q560.033 160.402 561.839 159.407 L561.839 163.342 Q560.056 164.176 558.135 164.592 Q556.237 165.009 554.084 165.009 Q548.228 165.009 544.779 161.328 Q541.33 157.648 541.33 151.398 Q541.33 145.055 544.802 141.421 Q548.297 137.787 554.362 137.787 Q556.33 137.787 558.205 138.203 Q560.08 138.597 561.839 139.407 Z" fill="#000000" fill-rule="evenodd" fill-opacity="1" /><path clip-path="url(#clip580)" d="M573.459 131.051 L573.459 138.412 L582.232 138.412 L582.232 141.722 L573.459 141.722 L573.459 155.796 Q573.459 158.967 574.316 159.87 Q575.195 160.773 577.857 160.773 L582.232 160.773 L582.232 164.338 L577.857 164.338 Q572.927 164.338 571.052 162.509 Q569.177 160.657 569.177 155.796 L569.177 141.722 L566.052 141.722 L566.052 138.412 L569.177 138.412 L569.177 131.051 L573.459 131.051 Z" fill="#000000" fill-rule="evenodd" fill-opacity="1" /><path clip-path="url(#clip580)" d="M587.834 138.412 L592.093 138.412 L592.093 164.338 L587.834 164.338 L587.834 138.412 M587.834 128.319 L592.093 128.319 L592.093 133.713 L587.834 133.713 L587.834 128.319 Z" fill="#000000" fill-rule="evenodd" fill-opacity="1" /><path clip-path="url(#clip580)" d="M611.051 141.398 Q607.626 141.398 605.635 144.083 Q603.644 146.745 603.644 151.398 Q603.644 156.051 605.612 158.736 Q607.602 161.398 611.051 161.398 Q614.454 161.398 616.445 158.713 Q618.436 156.027 618.436 151.398 Q618.436 146.791 616.445 144.106 Q614.454 141.398 611.051 141.398 M611.051 137.787 Q616.607 137.787 619.778 141.398 Q622.95 145.009 622.95 151.398 Q622.95 157.764 619.778 161.398 Q616.607 165.009 611.051 165.009 Q605.473 165.009 602.302 161.398 Q599.153 157.764 599.153 151.398 Q599.153 145.009 602.302 141.398 Q605.473 137.787 611.051 137.787 Z" fill="#000000" fill-rule="evenodd" fill-opacity="1" /><path clip-path="url(#clip580)" d="M651.561 148.689 L651.561 164.338 L647.301 164.338 L647.301 148.828 Q647.301 145.148 645.866 143.319 Q644.431 141.49 641.561 141.49 Q638.112 141.49 636.121 143.69 Q634.13 145.889 634.13 149.685 L634.13 164.338 L629.848 164.338 L629.848 138.412 L634.13 138.412 L634.13 142.44 Q635.658 140.102 637.718 138.944 Q639.801 137.787 642.51 137.787 Q646.977 137.787 649.269 140.565 Q651.561 143.319 651.561 148.689 Z" fill="#000000" fill-rule="evenodd" fill-opacity="1" /><polyline clip-path="url(#clip580)" style="stroke:#e26f46; stroke-linecap:butt; stroke-linejoin:round; stroke-width:4; stroke-opacity:1; fill:none" points="
  253.896,198.898 400.328,198.898 
  "/>
<path clip-path="url(#clip580)" d="M424.733 181.618 L446.585 181.618 L446.585 185.553 L429.409 185.553 L429.409 195.784 L445.867 195.784 L445.867 199.719 L429.409 199.719 L429.409 212.242 L447.001 212.242 L447.001 216.178 L424.733 216.178 L424.733 181.618 Z" fill="#000000" fill-rule="evenodd" fill-opacity="1" /><path clip-path="url(#clip580)" d="M476.052 190.252 L466.677 202.867 L476.538 216.178 L471.515 216.178 L463.969 205.992 L456.423 216.178 L451.4 216.178 L461.469 202.613 L452.256 190.252 L457.279 190.252 L464.154 199.488 L471.029 190.252 L476.052 190.252 Z" fill="#000000" fill-rule="evenodd" fill-opacity="1" /><path clip-path="url(#clip580)" d="M494.339 203.145 Q489.177 203.145 487.186 204.326 Q485.196 205.506 485.196 208.354 Q485.196 210.622 486.677 211.965 Q488.182 213.284 490.751 213.284 Q494.293 213.284 496.422 210.784 Q498.575 208.261 498.575 204.094 L498.575 203.145 L494.339 203.145 M502.834 201.386 L502.834 216.178 L498.575 216.178 L498.575 212.242 Q497.117 214.603 494.941 215.738 Q492.765 216.849 489.617 216.849 Q485.635 216.849 483.274 214.627 Q480.936 212.381 480.936 208.631 Q480.936 204.256 483.853 202.034 Q486.793 199.812 492.603 199.812 L498.575 199.812 L498.575 199.395 Q498.575 196.455 496.631 194.858 Q494.71 193.238 491.214 193.238 Q488.992 193.238 486.885 193.77 Q484.779 194.303 482.835 195.367 L482.835 191.432 Q485.173 190.53 487.372 190.09 Q489.571 189.627 491.654 189.627 Q497.279 189.627 500.057 192.543 Q502.834 195.46 502.834 201.386 Z" fill="#000000" fill-rule="evenodd" fill-opacity="1" /><path clip-path="url(#clip580)" d="M530.265 191.247 L530.265 195.229 Q528.459 194.233 526.631 193.747 Q524.825 193.238 522.973 193.238 Q518.83 193.238 516.538 195.877 Q514.246 198.492 514.246 203.238 Q514.246 207.983 516.538 210.622 Q518.83 213.238 522.973 213.238 Q524.825 213.238 526.631 212.752 Q528.459 212.242 530.265 211.247 L530.265 215.182 Q528.482 216.016 526.561 216.432 Q524.663 216.849 522.51 216.849 Q516.654 216.849 513.205 213.168 Q509.756 209.488 509.756 203.238 Q509.756 196.895 513.228 193.261 Q516.723 189.627 522.788 189.627 Q524.756 189.627 526.631 190.043 Q528.506 190.437 530.265 191.247 Z" fill="#000000" fill-rule="evenodd" fill-opacity="1" /><path clip-path="url(#clip580)" d="M541.885 182.891 L541.885 190.252 L550.658 190.252 L550.658 193.562 L541.885 193.562 L541.885 207.636 Q541.885 210.807 542.742 211.71 Q543.621 212.613 546.283 212.613 L550.658 212.613 L550.658 216.178 L546.283 216.178 Q541.353 216.178 539.478 214.349 Q537.603 212.497 537.603 207.636 L537.603 193.562 L534.478 193.562 L534.478 190.252 L537.603 190.252 L537.603 182.891 L541.885 182.891 Z" fill="#000000" fill-rule="evenodd" fill-opacity="1" /></svg>
