<?xml version="1.0" encoding="utf-8"?>
<svg xmlns="http://www.w3.org/2000/svg" xmlns:xlink="http://www.w3.org/1999/xlink" width="600" height="400" viewBox="0 0 2400 1600">
<defs>
  <clipPath id="clip520">
    <rect x="0" y="0" width="2400" height="1600"/>
  </clipPath>
</defs>
<path clip-path="url(#clip520)" d="
M0 1600 L2400 1600 L2400 0 L0 0  Z
  " fill="#ffffff" fill-rule="evenodd" fill-opacity="1"/>
<defs>
  <clipPath id="clip521">
    <rect x="480" y="0" width="1681" height="1600"/>
  </clipPath>
</defs>
<path clip-path="url(#clip520)" d="
M156.274 1486.45 L2352.76 1486.45 L2352.76 47.2441 L156.274 47.2441  Z
  " fill="#ffffff" fill-rule="evenodd" fill-opacity="1"/>
<defs>
  <clipPath id="clip522">
    <rect x="156" y="47" width="2197" height="1440"/>
  </clipPath>
</defs>
<polyline clip-path="url(#clip522)" style="stroke:#000000; stroke-linecap:butt; stroke-linejoin:round; stroke-width:2; stroke-opacity:0.1; fill:none" points="
  218.439,1486.45 218.439,47.2441 
  "/>
<polyline clip-path="url(#clip522)" style="stroke:#000000; stroke-linecap:butt; stroke-linejoin:round; stroke-width:2; stroke-opacity:0.1; fill:none" points="
  736.477,1486.45 736.477,47.2441 
  "/>
<polyline clip-path="url(#clip522)" style="stroke:#000000; stroke-linecap:butt; stroke-linejoin:round; stroke-width:2; stroke-opacity:0.1; fill:none" points="
  1254.52,1486.45 1254.52,47.2441 
  "/>
<polyline clip-path="url(#clip522)" style="stroke:#000000; stroke-linecap:butt; stroke-linejoin:round; stroke-width:2; stroke-opacity:0.1; fill:none" points="
  1772.55,1486.45 1772.55,47.2441 
  "/>
<polyline clip-path="url(#clip522)" style="stroke:#000000; stroke-linecap:butt; stroke-linejoin:round; stroke-width:2; stroke-opacity:0.1; fill:none" points="
  2290.59,1486.45 2290.59,47.2441 
  "/>
<polyline clip-path="url(#clip520)" style="stroke:#000000; stroke-linecap:butt; stroke-linejoin:round; stroke-width:4; stroke-opacity:1; fill:none" points="
  156.274,1486.45 2352.76,1486.45 
  "/>
<polyline clip-path="url(#clip520)" style="stroke:#000000; stroke-linecap:butt; stroke-linejoin:round; stroke-width:4; stroke-opacity:1; fill:none" points="
  218.439,1486.45 218.439,1467.55 
  "/>
<polyline clip-path="url(#clip520)" style="stroke:#000000; stroke-linecap:butt; stroke-linejoin:round; stroke-width:4; stroke-opacity:1; fill:none" points="
  736.477,1486.45 736.477,1467.55 
  "/>
<polyline clip-path="url(#clip520)" style="stroke:#000000; stroke-linecap:butt; stroke-linejoin:round; stroke-width:4; stroke-opacity:1; fill:none" points="
  1254.52,1486.45 1254.52,1467.55 
  "/>
<polyline clip-path="url(#clip520)" style="stroke:#000000; stroke-linecap:butt; stroke-linejoin:round; stroke-width:4; stroke-opacity:1; fill:none" points="
  1772.55,1486.45 1772.55,1467.55 
  "/>
<polyline clip-path="url(#clip520)" style="stroke:#000000; stroke-linecap:butt; stroke-linejoin:round; stroke-width:4; stroke-opacity:1; fill:none" points="
  2290.59,1486.45 2290.59,1467.55 
  "/>
<path clip-path="url(#clip520)" d="M164.967 1532.02 L194.643 1532.02 L194.643 1535.95 L164.967 1535.95 L164.967 1532.02 Z" fill="#000000" fill-rule="evenodd" fill-opacity="1" /><path clip-path="url(#clip520)" d="M205.545 1544.91 L213.184 1544.91 L213.184 1518.55 L204.874 1520.21 L204.874 1515.95 L213.138 1514.29 L217.814 1514.29 L217.814 1544.91 L225.453 1544.91 L225.453 1548.85 L205.545 1548.85 L205.545 1544.91 Z" fill="#000000" fill-rule="evenodd" fill-opacity="1" /><path clip-path="url(#clip520)" d="M234.897 1542.97 L239.781 1542.97 L239.781 1548.85 L234.897 1548.85 L234.897 1542.97 Z" fill="#000000" fill-rule="evenodd" fill-opacity="1" /><path clip-path="url(#clip520)" d="M259.966 1517.37 Q256.355 1517.37 254.527 1520.93 Q252.721 1524.47 252.721 1531.6 Q252.721 1538.71 254.527 1542.27 Q256.355 1545.82 259.966 1545.82 Q263.601 1545.82 265.406 1542.27 Q267.235 1538.71 267.235 1531.6 Q267.235 1524.47 265.406 1520.93 Q263.601 1517.37 259.966 1517.37 M259.966 1513.66 Q265.776 1513.66 268.832 1518.27 Q271.911 1522.85 271.911 1531.6 Q271.911 1540.33 268.832 1544.94 Q265.776 1549.52 259.966 1549.52 Q254.156 1549.52 251.077 1544.94 Q248.022 1540.33 248.022 1531.6 Q248.022 1522.85 251.077 1518.27 Q254.156 1513.66 259.966 1513.66 Z" fill="#000000" fill-rule="evenodd" fill-opacity="1" /><path clip-path="url(#clip520)" d="M683.503 1532.02 L713.178 1532.02 L713.178 1535.95 L683.503 1535.95 L683.503 1532.02 Z" fill="#000000" fill-rule="evenodd" fill-opacity="1" /><path clip-path="url(#clip520)" d="M733.271 1517.37 Q729.66 1517.37 727.831 1520.93 Q726.026 1524.47 726.026 1531.6 Q726.026 1538.71 727.831 1542.27 Q729.66 1545.82 733.271 1545.82 Q736.905 1545.82 738.711 1542.27 Q740.539 1538.71 740.539 1531.6 Q740.539 1524.47 738.711 1520.93 Q736.905 1517.37 733.271 1517.37 M733.271 1513.66 Q739.081 1513.66 742.137 1518.27 Q745.215 1522.85 745.215 1531.6 Q745.215 1540.33 742.137 1544.94 Q739.081 1549.52 733.271 1549.52 Q727.461 1549.52 724.382 1544.94 Q721.327 1540.33 721.327 1531.6 Q721.327 1522.85 724.382 1518.27 Q727.461 1513.66 733.271 1513.66 Z" fill="#000000" fill-rule="evenodd" fill-opacity="1" /><path clip-path="url(#clip520)" d="M753.433 1542.97 L758.317 1542.97 L758.317 1548.85 L753.433 1548.85 L753.433 1542.97 Z" fill="#000000" fill-rule="evenodd" fill-opacity="1" /><path clip-path="url(#clip520)" d="M768.548 1514.29 L786.905 1514.29 L786.905 1518.22 L772.831 1518.22 L772.831 1526.7 Q773.849 1526.35 774.868 1526.19 Q775.886 1526 776.905 1526 Q782.692 1526 786.072 1529.17 Q789.451 1532.34 789.451 1537.76 Q789.451 1543.34 785.979 1546.44 Q782.507 1549.52 776.187 1549.52 Q774.011 1549.52 771.743 1549.15 Q769.498 1548.78 767.09 1548.04 L767.09 1543.34 Q769.173 1544.47 771.396 1545.03 Q773.618 1545.58 776.095 1545.58 Q780.099 1545.58 782.437 1543.48 Q784.775 1541.37 784.775 1537.76 Q784.775 1534.15 782.437 1532.04 Q780.099 1529.94 776.095 1529.94 Q774.22 1529.94 772.345 1530.35 Q770.493 1530.77 768.548 1531.65 L768.548 1514.29 Z" fill="#000000" fill-rule="evenodd" fill-opacity="1" /><path clip-path="url(#clip520)" d="M1231.9 1517.37 Q1228.29 1517.37 1226.46 1520.93 Q1224.65 1524.47 1224.65 1531.6 Q1224.65 1538.71 1226.46 1542.27 Q1228.29 1545.82 1231.9 1545.82 Q1235.53 1545.82 1237.34 1542.27 Q1239.17 1538.71 1239.17 1531.6 Q1239.17 1524.47 1237.34 1520.93 Q1235.53 1517.37 1231.9 1517.37 M1231.9 1513.66 Q1237.71 1513.66 1240.77 1518.27 Q1243.84 1522.85 1243.84 1531.6 Q1243.84 1540.33 1240.77 1544.94 Q1237.71 1549.52 1231.9 1549.52 Q1226.09 1549.52 1223.01 1544.94 Q1219.96 1540.33 1219.96 1531.6 Q1219.96 1522.85 1223.01 1518.27 Q1226.09 1513.66 1231.9 1513.66 Z" fill="#000000" fill-rule="evenodd" fill-opacity="1" /><path clip-path="url(#clip520)" d="M1252.06 1542.97 L1256.95 1542.97 L1256.95 1548.85 L1252.06 1548.85 L1252.06 1542.97 Z" fill="#000000" fill-rule="evenodd" fill-opacity="1" /><path clip-path="url(#clip520)" d="M1277.13 1517.37 Q1273.52 1517.37 1271.69 1520.93 Q1269.89 1524.47 1269.89 1531.6 Q1269.89 1538.71 1271.69 1542.27 Q1273.52 1545.82 1277.13 1545.82 Q1280.76 1545.82 1282.57 1542.27 Q1284.4 1538.71 1284.4 1531.6 Q1284.4 1524.47 1282.57 1520.93 Q1280.76 1517.37 1277.13 1517.37 M1277.13 1513.66 Q1282.94 1513.66 1286 1518.27 Q1289.08 1522.85 1289.08 1531.6 Q1289.08 1540.33 1286 1544.94 Q1282.94 1549.52 1277.13 1549.52 Q1271.32 1549.52 1268.24 1544.94 Q1265.19 1540.33 1265.19 1531.6 Q1265.19 1522.85 1268.24 1518.27 Q1271.32 1513.66 1277.13 1513.66 Z" fill="#000000" fill-rule="evenodd" fill-opacity="1" /><path clip-path="url(#clip520)" d="M1750.44 1517.37 Q1746.82 1517.37 1745 1520.93 Q1743.19 1524.47 1743.19 1531.6 Q1743.19 1538.71 1745 1542.27 Q1746.82 1545.82 1750.44 1545.82 Q1754.07 1545.82 1755.88 1542.27 Q1757.7 1538.71 1757.7 1531.6 Q1757.7 1524.47 1755.88 1520.93 Q1754.07 1517.37 1750.44 1517.37 M1750.44 1513.66 Q1756.25 1513.66 1759.3 1518.27 Q1762.38 1522.85 1762.38 1531.6 Q1762.38 1540.33 1759.3 1544.94 Q1756.25 1549.52 1750.44 1549.52 Q1744.63 1549.52 1741.55 1544.94 Q1738.49 1540.33 1738.49 1531.6 Q1738.49 1522.85 1741.55 1518.27 Q1744.63 1513.66 1750.44 1513.66 Z" fill="#000000" fill-rule="evenodd" fill-opacity="1" /><path clip-path="url(#clip520)" d="M1770.6 1542.97 L1775.48 1542.97 L1775.48 1548.85 L1770.6 1548.85 L1770.6 1542.97 Z" fill="#000000" fill-rule="evenodd" fill-opacity="1" /><path clip-path="url(#clip520)" d="M1785.71 1514.29 L1804.07 1514.29 L1804.07 1518.22 L1790 1518.22 L1790 1526.7 Q1791.01 1526.35 1792.03 1526.19 Q1793.05 1526 1794.07 1526 Q1799.86 1526 1803.24 1529.17 Q1806.62 1532.34 1806.62 1537.76 Q1806.62 1543.34 1803.14 1546.44 Q1799.67 1549.52 1793.35 1549.52 Q1791.18 1549.52 1788.91 1549.15 Q1786.66 1548.78 1784.25 1548.04 L1784.25 1543.34 Q1786.34 1544.47 1788.56 1545.03 Q1790.78 1545.58 1793.26 1545.58 Q1797.26 1545.58 1799.6 1543.48 Q1801.94 1541.37 1801.94 1537.76 Q1801.94 1534.15 1799.6 1532.04 Q1797.26 1529.94 1793.26 1529.94 Q1791.38 1529.94 1789.51 1530.35 Q1787.66 1530.77 1785.71 1531.65 L1785.71 1514.29 Z" fill="#000000" fill-rule="evenodd" fill-opacity="1" /><path clip-path="url(#clip520)" d="M2257.74 1544.91 L2265.38 1544.91 L2265.38 1518.55 L2257.07 1520.21 L2257.07 1515.95 L2265.34 1514.29 L2270.01 1514.29 L2270.01 1544.91 L2277.65 1544.91 L2277.65 1548.85 L2257.74 1548.85 L2257.74 1544.91 Z" fill="#000000" fill-rule="evenodd" fill-opacity="1" /><path clip-path="url(#clip520)" d="M2287.1 1542.97 L2291.98 1542.97 L2291.98 1548.85 L2287.1 1548.85 L2287.1 1542.97 Z" fill="#000000" fill-rule="evenodd" fill-opacity="1" /><path clip-path="url(#clip520)" d="M2312.17 1517.37 Q2308.55 1517.37 2306.73 1520.93 Q2304.92 1524.47 2304.92 1531.6 Q2304.92 1538.71 2306.73 1542.27 Q2308.55 1545.82 2312.17 1545.82 Q2315.8 1545.82 2317.61 1542.27 Q2319.43 1538.71 2319.43 1531.6 Q2319.43 1524.47 2317.61 1520.93 Q2315.8 1517.37 2312.17 1517.37 M2312.17 1513.66 Q2317.98 1513.66 2321.03 1518.27 Q2324.11 1522.85 2324.11 1531.6 Q2324.11 1540.33 2321.03 1544.94 Q2317.98 1549.52 2312.17 1549.52 Q2306.36 1549.52 2303.28 1544.94 Q2300.22 1540.33 2300.22 1531.6 Q2300.22 1522.85 2303.28 1518.27 Q2306.36 1513.66 2312.17 1513.66 Z" fill="#000000" fill-rule="evenodd" fill-opacity="1" /><polyline clip-path="url(#clip522)" style="stroke:#000000; stroke-linecap:butt; stroke-linejoin:round; stroke-width:2; stroke-opacity:0.1; fill:none" points="
  156.274,1258.6 2352.76,1258.6 
  "/>
<polyline clip-path="url(#clip522)" style="stroke:#000000; stroke-linecap:butt; stroke-linejoin:round; stroke-width:2; stroke-opacity:0.1; fill:none" points="
  156.274,983.772 2352.76,983.772 
  "/>
<polyline clip-path="url(#clip522)" style="stroke:#000000; stroke-linecap:butt; stroke-linejoin:round; stroke-width:2; stroke-opacity:0.1; fill:none" points="
  156.274,708.942 2352.76,708.942 
  "/>
<polyline clip-path="url(#clip522)" style="stroke:#000000; stroke-linecap:butt; stroke-linejoin:round; stroke-width:2; stroke-opacity:0.1; fill:none" points="
  156.274,434.112 2352.76,434.112 
  "/>
<polyline clip-path="url(#clip522)" style="stroke:#000000; stroke-linecap:butt; stroke-linejoin:round; stroke-width:2; stroke-opacity:0.1; fill:none" points="
  156.274,159.282 2352.76,159.282 
  "/>
<polyline clip-path="url(#clip520)" style="stroke:#000000; stroke-linecap:butt; stroke-linejoin:round; stroke-width:4; stroke-opacity:1; fill:none" points="
  156.274,1486.45 156.274,47.2441 
  "/>
<polyline clip-path="url(#clip520)" style="stroke:#000000; stroke-linecap:butt; stroke-linejoin:round; stroke-width:4; stroke-opacity:1; fill:none" points="
  156.274,1258.6 175.172,1258.6 
  "/>
<polyline clip-path="url(#clip520)" style="stroke:#000000; stroke-linecap:butt; stroke-linejoin:round; stroke-width:4; stroke-opacity:1; fill:none" points="
  156.274,983.772 175.172,983.772 
  "/>
<polyline clip-path="url(#clip520)" style="stroke:#000000; stroke-linecap:butt; stroke-linejoin:round; stroke-width:4; stroke-opacity:1; fill:none" points="
  156.274,708.942 175.172,708.942 
  "/>
<polyline clip-path="url(#clip520)" style="stroke:#000000; stroke-linecap:butt; stroke-linejoin:round; stroke-width:4; stroke-opacity:1; fill:none" points="
  156.274,434.112 175.172,434.112 
  "/>
<polyline clip-path="url(#clip520)" style="stroke:#000000; stroke-linecap:butt; stroke-linejoin:round; stroke-width:4; stroke-opacity:1; fill:none" points="
  156.274,159.282 175.172,159.282 
  "/>
<path clip-path="url(#clip520)" d="M63.0985 1244.4 Q59.4875 1244.4 57.6588 1247.96 Q55.8532 1251.51 55.8532 1258.64 Q55.8532 1265.74 57.6588 1269.31 Q59.4875 1272.85 63.0985 1272.85 Q66.7328 1272.85 68.5383 1269.31 Q70.367 1265.74 70.367 1258.64 Q70.367 1251.51 68.5383 1247.96 Q66.7328 1244.4 63.0985 1244.4 M63.0985 1240.7 Q68.9087 1240.7 71.9642 1245.3 Q75.0429 1249.89 75.0429 1258.64 Q75.0429 1267.36 71.9642 1271.97 Q68.9087 1276.55 63.0985 1276.55 Q57.2884 1276.55 54.2097 1271.97 Q51.1542 1267.36 51.1542 1258.64 Q51.1542 1249.89 54.2097 1245.3 Q57.2884 1240.7 63.0985 1240.7 Z" fill="#000000" fill-rule="evenodd" fill-opacity="1" /><path clip-path="url(#clip520)" d="M83.2605 1270 L88.1447 1270 L88.1447 1275.88 L83.2605 1275.88 L83.2605 1270 Z" fill="#000000" fill-rule="evenodd" fill-opacity="1" /><path clip-path="url(#clip520)" d="M108.33 1244.4 Q104.719 1244.4 102.89 1247.96 Q101.084 1251.51 101.084 1258.64 Q101.084 1265.74 102.89 1269.31 Q104.719 1272.85 108.33 1272.85 Q111.964 1272.85 113.77 1269.31 Q115.598 1265.74 115.598 1258.64 Q115.598 1251.51 113.77 1247.96 Q111.964 1244.4 108.33 1244.4 M108.33 1240.7 Q114.14 1240.7 117.195 1245.3 Q120.274 1249.89 120.274 1258.64 Q120.274 1267.36 117.195 1271.97 Q114.14 1276.55 108.33 1276.55 Q102.52 1276.55 99.4409 1271.97 Q96.3854 1267.36 96.3854 1258.64 Q96.3854 1249.89 99.4409 1245.3 Q102.52 1240.7 108.33 1240.7 Z" fill="#000000" fill-rule="evenodd" fill-opacity="1" /><path clip-path="url(#clip520)" d="M63.7467 969.57 Q60.1356 969.57 58.3069 973.135 Q56.5014 976.677 56.5014 983.806 Q56.5014 990.913 58.3069 994.477 Q60.1356 998.019 63.7467 998.019 Q67.3809 998.019 69.1865 994.477 Q71.0152 990.913 71.0152 983.806 Q71.0152 976.677 69.1865 973.135 Q67.3809 969.57 63.7467 969.57 M63.7467 965.867 Q69.5568 965.867 72.6124 970.473 Q75.6911 975.056 75.6911 983.806 Q75.6911 992.533 72.6124 997.14 Q69.5568 1001.72 63.7467 1001.72 Q57.9365 1001.72 54.8578 997.14 Q51.8023 992.533 51.8023 983.806 Q51.8023 975.056 54.8578 970.473 Q57.9365 965.867 63.7467 965.867 Z" fill="#000000" fill-rule="evenodd" fill-opacity="1" /><path clip-path="url(#clip520)" d="M83.9086 995.172 L88.7928 995.172 L88.7928 1001.05 L83.9086 1001.05 L83.9086 995.172 Z" fill="#000000" fill-rule="evenodd" fill-opacity="1" /><path clip-path="url(#clip520)" d="M113.145 982.417 Q116.501 983.135 118.376 985.403 Q120.274 987.672 120.274 991.005 Q120.274 996.121 116.756 998.922 Q113.237 1001.72 106.756 1001.72 Q104.58 1001.72 102.265 1001.28 Q99.9733 1000.87 97.5197 1000.01 L97.5197 995.496 Q99.4641 996.63 101.779 997.209 Q104.094 997.788 106.617 997.788 Q111.015 997.788 113.307 996.052 Q115.621 994.315 115.621 991.005 Q115.621 987.95 113.469 986.237 Q111.339 984.501 107.52 984.501 L103.492 984.501 L103.492 980.658 L107.705 980.658 Q111.154 980.658 112.983 979.292 Q114.811 977.903 114.811 975.311 Q114.811 972.649 112.913 971.237 Q111.038 969.802 107.52 969.802 Q105.598 969.802 103.399 970.218 Q101.2 970.635 98.5613 971.515 L98.5613 967.348 Q101.223 966.607 103.538 966.237 Q105.876 965.867 107.936 965.867 Q113.26 965.867 116.362 968.297 Q119.464 970.704 119.464 974.825 Q119.464 977.695 117.82 979.686 Q116.177 981.653 113.145 982.417 Z" fill="#000000" fill-rule="evenodd" fill-opacity="1" /><path clip-path="url(#clip520)" d="M62.9365 694.74 Q59.3254 694.74 57.4967 698.305 Q55.6912 701.847 55.6912 708.976 Q55.6912 716.083 57.4967 719.648 Q59.3254 723.189 62.9365 723.189 Q66.5707 723.189 68.3763 719.648 Q70.205 716.083 70.205 708.976 Q70.205 701.847 68.3763 698.305 Q66.5707 694.74 62.9365 694.74 M62.9365 691.037 Q68.7467 691.037 71.8022 695.643 Q74.8809 700.226 74.8809 708.976 Q74.8809 717.703 71.8022 722.31 Q68.7467 726.893 62.9365 726.893 Q57.1264 726.893 54.0477 722.31 Q50.9921 717.703 50.9921 708.976 Q50.9921 700.226 54.0477 695.643 Q57.1264 691.037 62.9365 691.037 Z" fill="#000000" fill-rule="evenodd" fill-opacity="1" /><path clip-path="url(#clip520)" d="M83.0984 720.342 L87.9827 720.342 L87.9827 726.222 L83.0984 726.222 L83.0984 720.342 Z" fill="#000000" fill-rule="evenodd" fill-opacity="1" /><path clip-path="url(#clip520)" d="M108.746 707.078 Q105.598 707.078 103.746 709.231 Q101.918 711.384 101.918 715.134 Q101.918 718.861 103.746 721.037 Q105.598 723.189 108.746 723.189 Q111.895 723.189 113.723 721.037 Q115.575 718.861 115.575 715.134 Q115.575 711.384 113.723 709.231 Q111.895 707.078 108.746 707.078 M118.029 692.426 L118.029 696.685 Q116.27 695.851 114.464 695.412 Q112.682 694.972 110.922 694.972 Q106.293 694.972 103.839 698.097 Q101.409 701.222 101.061 707.541 Q102.427 705.527 104.487 704.463 Q106.547 703.375 109.024 703.375 Q114.233 703.375 117.242 706.546 Q120.274 709.694 120.274 715.134 Q120.274 720.458 117.126 723.675 Q113.978 726.893 108.746 726.893 Q102.751 726.893 99.5798 722.31 Q96.4085 717.703 96.4085 708.976 Q96.4085 700.782 100.297 695.921 Q104.186 691.037 110.737 691.037 Q112.496 691.037 114.279 691.384 Q116.084 691.731 118.029 692.426 Z" fill="#000000" fill-rule="evenodd" fill-opacity="1" /><path clip-path="url(#clip520)" d="M63.2837 419.911 Q59.6726 419.911 57.8439 423.475 Q56.0384 427.017 56.0384 434.147 Q56.0384 441.253 57.8439 444.818 Q59.6726 448.359 63.2837 448.359 Q66.918 448.359 68.7235 444.818 Q70.5522 441.253 70.5522 434.147 Q70.5522 427.017 68.7235 423.475 Q66.918 419.911 63.2837 419.911 M63.2837 416.207 Q69.0939 416.207 72.1494 420.813 Q75.2281 425.397 75.2281 434.147 Q75.2281 442.873 72.1494 447.48 Q69.0939 452.063 63.2837 452.063 Q57.4736 452.063 54.3949 447.48 Q51.3393 442.873 51.3393 434.147 Q51.3393 425.397 54.3949 420.813 Q57.4736 416.207 63.2837 416.207 Z" fill="#000000" fill-rule="evenodd" fill-opacity="1" /><path clip-path="url(#clip520)" d="M83.4457 445.512 L88.3299 445.512 L88.3299 451.392 L83.4457 451.392 L83.4457 445.512 Z" fill="#000000" fill-rule="evenodd" fill-opacity="1" /><path clip-path="url(#clip520)" d="M98.6539 450.674 L98.6539 446.415 Q100.413 447.248 102.219 447.688 Q104.024 448.128 105.76 448.128 Q110.39 448.128 112.82 445.026 Q115.274 441.901 115.621 435.559 Q114.279 437.549 112.219 438.614 Q110.158 439.679 107.658 439.679 Q102.473 439.679 99.4409 436.554 Q96.4317 433.406 96.4317 427.966 Q96.4317 422.642 99.5798 419.424 Q102.728 416.207 107.959 416.207 Q113.955 416.207 117.103 420.813 Q120.274 425.397 120.274 434.147 Q120.274 442.318 116.385 447.202 Q112.52 452.063 105.969 452.063 Q104.209 452.063 102.404 451.716 Q100.598 451.369 98.6539 450.674 M107.959 436.022 Q111.108 436.022 112.936 433.869 Q114.788 431.716 114.788 427.966 Q114.788 424.239 112.936 422.086 Q111.108 419.911 107.959 419.911 Q104.811 419.911 102.959 422.086 Q101.131 424.239 101.131 427.966 Q101.131 431.716 102.959 433.869 Q104.811 436.022 107.959 436.022 Z" fill="#000000" fill-rule="evenodd" fill-opacity="1" /><path clip-path="url(#clip520)" d="M55.506 172.627 L63.1448 172.627 L63.1448 146.261 L54.8347 147.928 L54.8347 143.669 L63.0985 142.002 L67.7744 142.002 L67.7744 172.627 L75.4133 172.627 L75.4133 176.562 L55.506 176.562 L55.506 172.627 Z" fill="#000000" fill-rule="evenodd" fill-opacity="1" /><path clip-path="url(#clip520)" d="M84.8577 170.682 L89.7419 170.682 L89.7419 176.562 L84.8577 176.562 L84.8577 170.682 Z" fill="#000000" fill-rule="evenodd" fill-opacity="1" /><path clip-path="url(#clip520)" d="M103.955 172.627 L120.274 172.627 L120.274 176.562 L98.3298 176.562 L98.3298 172.627 Q100.992 169.872 105.575 165.243 Q110.182 160.59 111.362 159.247 Q113.608 156.724 114.487 154.988 Q115.39 153.229 115.39 151.539 Q115.39 148.784 113.445 147.048 Q111.524 145.312 108.422 145.312 Q106.223 145.312 103.77 146.076 Q101.339 146.84 98.5613 148.391 L98.5613 143.669 Q101.385 142.534 103.839 141.956 Q106.293 141.377 108.33 141.377 Q113.7 141.377 116.895 144.062 Q120.089 146.747 120.089 151.238 Q120.089 153.368 119.279 155.289 Q118.492 157.187 116.385 159.78 Q115.807 160.451 112.705 163.669 Q109.603 166.863 103.955 172.627 Z" fill="#000000" fill-rule="evenodd" fill-opacity="1" /><polyline clip-path="url(#clip522)" style="stroke:#009af9; stroke-linecap:butt; stroke-linejoin:round; stroke-width:16; stroke-opacity:1; fill:none" stroke-dasharray="8, 16" points="
  218.439,1055.39 225.369,1066.31 232.299,1077.24 239.23,1088.16 246.16,1099.09 253.09,1110.01 260.02,1120.94 266.951,1131.86 273.881,1142.79 280.811,1153.72 
  287.742,1164.64 294.672,1175.56 301.602,1186.49 308.532,1197.42 315.463,1208.34 322.393,1219.27 329.323,1230.19 336.253,1241.12 343.184,1252.04 350.114,1262.97 
  357.044,1273.89 363.975,1284.82 370.905,1295.74 377.835,1306.67 384.765,1317.59 391.696,1328.52 398.626,1339.44 405.556,1350.37 412.486,1361.29 419.417,1372.22 
  426.347,1383.14 433.277,1394.07 440.208,1405 447.138,1414.6 454.068,1401.92 460.998,1389.24 467.929,1376.56 474.859,1363.89 481.789,1351.21 488.72,1338.53 
  495.65,1325.86 502.58,1313.18 509.51,1300.5 516.441,1287.82 523.371,1275.15 530.301,1262.47 537.231,1249.79 544.162,1237.12 551.092,1224.44 558.022,1211.76 
  564.953,1199.09 571.883,1186.41 578.813,1173.73 585.743,1161.06 592.674,1148.38 599.604,1135.7 606.534,1123.02 613.464,1110.35 620.395,1097.67 627.325,1086.13 
  634.255,1079.77 641.186,1096.03 648.116,1112.29 655.046,1128.55 661.976,1144.81 668.907,1161.07 675.837,1177.33 682.767,1193.59 689.698,1209.85 696.628,1226.11 
  703.558,1242.37 710.488,1258.63 717.419,1274.89 724.349,1291.15 731.279,1307.41 738.209,1323.67 745.14,1339.93 752.07,1356.19 759,1372.45 765.931,1387.5 
  772.861,1400.51 779.791,1413.52 786.721,1423.26 793.652,1431.61 800.582,1439.78 807.512,1445.72 814.442,1438.49 821.373,1430.81 828.303,1420.63 835.233,1408.93 
  842.164,1396.32 849.094,1383.7 856.024,1368.75 862.954,1348.65 869.885,1328.56 876.815,1308.47 883.745,1288.37 890.676,1268.28 897.606,1247.36 904.536,1225.7 
  911.466,1204.05 918.397,1182.39 925.327,1159.76 932.257,1135.05 939.187,1112.19 946.118,1106.67 953.048,1101.15 959.978,1095.62 966.909,1090.1 973.839,1084.58 
  980.769,1080.68 987.699,1077.95 994.63,1081.78 1001.56,1085.44 1008.49,1088.97 1015.42,1099.09 1022.35,1116.35 1029.28,1133.6 1036.21,1150.86 1043.14,1168.12 
  1050.07,1186.06 1057,1206.5 1063.93,1226.93 1070.86,1249.47 1077.79,1272.32 1084.72,1292.2 1091.65,1312.63 1098.58,1334.42 1105.51,1355.7 1112.44,1377.35 
  1119.37,1390.34 1126.3,1401.72 1133.24,1417.31 1140.17,1428 1147.1,1434.49 1154.03,1440.25 1160.96,1440.86 1167.89,1440.2 1174.82,1438.59 1181.75,1434.27 
  1188.68,1425.21 1195.61,1414.72 1202.54,1402.98 1209.47,1389.37 1216.4,1370.08 1223.33,1352.4 1230.26,1334.56 1237.19,1313.66 1244.12,1292.26 1251.05,1270.14 
  1257.98,342.588 1264.91,339.846 1271.84,340.824 1278.77,334.635 1285.7,346.122 1292.63,357.863 1299.56,346.289 1306.49,351.133 1313.42,356.566 1320.35,359.111 
  1327.28,360.916 1334.21,351.984 1341.14,344.219 1348.07,336.655 1355,330.005 1361.93,322.845 1368.86,314.066 1375.79,311.015 1382.73,313.106 1389.66,321.507 
  1396.59,331.29 1403.52,341.206 1410.45,351.123 1417.38,361.008 1424.31,365.591 1431.24,361.682 1438.17,357.773 1445.1,353.863 1452.03,349.954 1458.96,346.045 
  1465.89,342.135 1472.82,338.226 1479.75,334.316 1486.68,330.407 1493.61,326.498 1500.54,324.556 1507.47,328.711 1514.4,332.866 1521.33,337.021 1528.26,341.176 
  1535.19,345.331 1542.12,349.486 1549.05,352.933 1555.98,352.179 1562.91,351.426 1569.84,350.672 1576.77,349.918 1583.7,349.164 1590.63,348.41 1597.56,347.656 
  1604.49,346.902 1611.42,346.149 1618.35,345.503 1625.28,344.856 1632.22,344.209 1639.15,343.563 1646.08,342.916 1653.01,342.269 1659.94,341.622 1666.87,340.976 
  1673.8,340.329 1680.73,339.683 1687.66,339.036 1694.59,338.389 1701.52,337.742 1708.45,337.096 1715.38,336.449 1722.31,335.802 1729.24,335.156 1736.17,334.509 
  1743.1,334.84 1750.03,335.252 1756.96,335.663 1763.89,336.075 1770.82,336.486 1777.75,336.897 1784.68,337.309 1791.61,337.72 1798.54,338.131 1805.47,338.543 
  1812.4,338.954 1819.33,339.366 1826.26,339.776 1833.19,340.188 1840.12,340.599 1847.05,341.01 1853.98,341.422 1860.91,341.834 1867.84,342.245 1874.77,342.656 
  1881.71,343.067 1888.64,343.479 1895.57,343.89 1902.5,344.302 1909.43,344.712 1916.36,345.125 1923.29,345.535 1930.22,345.947 1937.15,346.358 1944.08,346.77 
  1951.01,347.181 1957.94,347.592 1964.87,348.004 1971.8,348.415 1978.73,348.827 1985.66,349.238 1992.59,349.649 1999.52,350.061 2006.45,350.472 2013.38,350.883 
  2020.31,351.295 2027.24,351.706 2034.17,352.117 2041.1,352.528 2048.03,352.94 2054.96,353.351 2061.89,353.762 2068.82,354.174 2075.75,354.585 2082.68,354.997 
  2089.61,355.408 2096.54,355.876 2103.47,356.411 2110.4,356.945 2117.33,357.479 2124.26,358.013 2131.19,358.547 2138.13,359.082 2145.06,359.616 2151.99,360.15 
  2158.92,360.684 2165.85,361.218 2172.78,361.752 2179.71,362.287 2186.64,362.82 2193.57,363.355 2200.5,363.889 2207.43,364.423 2214.36,364.957 2221.29,365.491 
  2228.22,366.025 2235.15,366.56 2242.08,367.094 2249.01,367.628 2255.94,368.162 2262.87,368.696 2269.8,369.23 2276.73,369.765 2283.66,370.299 2290.59,370.833 
  
  "/>
<polyline clip-path="url(#clip522)" style="stroke:#e26f46; stroke-linecap:butt; stroke-linejoin:round; stroke-width:4; stroke-opacity:1; fill:none" points="
  218.439,1121.01 225.369,1107.47 232.299,1096.12 239.23,1087.13 246.16,1080.62 253.09,1076.68 260.02,1075.38 266.951,1076.73 273.881,1080.72 280.811,1087.28 
  287.742,1096.32 294.672,1107.71 301.602,1121.29 308.532,1136.85 315.463,1154.18 322.393,1173.02 329.323,1193.1 336.253,1214.12 343.184,1235.79 350.114,1257.79 
  357.044,1279.81 363.975,1301.51 370.905,1322.59 377.835,1342.75 384.765,1361.69 391.696,1379.14 398.626,1394.84 405.556,1408.57 412.486,1420.12 419.417,1429.34 
  426.347,1436.09 433.277,1440.27 440.208,1441.81 447.138,1440.71 454.068,1436.96 460.998,1430.64 467.929,1421.82 474.859,1410.64 481.789,1397.26 488.72,1381.87 
  495.65,1364.7 502.58,1345.99 509.51,1326.01 516.441,1305.06 523.371,1283.44 530.301,1261.45 537.231,1239.43 544.162,1217.68 551.092,1196.53 558.022,1176.27 
  564.953,1157.21 571.883,1139.61 578.813,1123.74 585.743,1109.82 592.674,1098.05 599.604,1088.61 606.534,1081.63 613.464,1077.21 620.395,1075.42 627.325,1076.28 
  634.255,1079.78 641.186,1085.87 648.116,1094.46 655.046,1105.43 661.976,1118.62 668.907,1133.83 675.837,1150.85 682.767,1169.42 689.698,1189.29 696.628,1210.17 
  703.558,1231.74 710.488,1253.71 717.419,1275.74 724.349,1297.53 731.279,1318.75 738.209,1339.1 745.14,1358.29 752.07,1376.03 759,1392.07 765.931,1406.18 
  772.861,1418.15 779.791,1427.82 786.721,1435.03 793.652,1439.69 800.582,1441.73 807.512,1441.11 814.442,1437.85 821.373,1432 828.303,1423.64 835.233,1412.88 
  842.164,1399.9 849.094,1384.86 856.024,1368 862.954,1349.56 869.885,1329.8 876.815,1309 883.745,1287.48 890.676,1265.54 897.606,1243.5 904.536,1221.68 
  911.466,1200.39 918.397,1179.94 925.327,1160.64 932.257,1142.75 939.187,1126.54 946.118,1112.24 953.048,1100.06 959.978,1090.18 966.909,1082.73 973.839,1077.84 
  980.769,1075.55 987.699,1075.92 994.63,1078.94 1001.56,1084.55 1008.49,1092.69 1015.42,1103.23 1022.35,1116.01 1029.28,1130.86 1036.21,1147.57 1043.14,1165.88 
  1050.07,1185.53 1057,1206.24 1063.93,1227.7 1070.86,1249.62 1077.79,1271.66 1084.72,1293.52 1091.65,1314.87 1098.58,1335.41 1105.51,1354.83 1112.44,1372.86 
  1119.37,1389.24 1126.3,1403.72 1133.24,1416.1 1140.17,1426.21 1147.1,1433.88 1154.03,1439.02 1160.96,1441.55 1167.89,1441.43 1174.82,1438.65 1181.75,1433.28 
  1188.68,1425.37 1195.61,1415.05 1202.54,1402.46 1209.47,1387.8 1216.4,1371.26 1223.33,1353.08 1230.26,1333.55 1237.19,1312.92 1244.12,1291.51 1251.05,1269.62 
  1257.98,341.598 1264.91,340.139 1271.84,339.656 1278.77,340.56 1285.7,342.953 1292.63,346.586 1299.56,350.88 1306.49,355.019 1313.42,358.088 1320.35,359.238 
  1327.28,357.856 1334.21,353.705 1341.14,347.007 1348.07,338.453 1355,329.14 1361.93,320.427 1368.86,313.741 1375.79,310.354 1382.73,311.165 1389.66,316.526 
  1396.59,326.134 1403.52,339.025 1410.45,353.658 1417.38,368.104 1424.31,380.291 1431.24,388.309 1438.17,390.691 1445.1,386.664 1452.03,376.304 1458.96,360.59 
  1465.89,341.316 1472.82,320.896 1479.75,302.059 1486.68,287.485 1493.61,279.428 1500.54,279.374 1507.47,287.797 1514.4,304.032 1521.33,326.311 1528.26,351.943 
  1535.19,377.646 1542.12,399.958 1549.05,415.71 1555.98,422.468 1562.91,418.9 1569.84,405.008 1576.77,382.186 1583.7,353.091 1590.63,321.34 1597.56,291.058 
  1604.49,266.343 1611.42,250.714 1618.35,246.612 1625.28,255.033 1632.22,275.336 1639.15,305.272 1646.08,341.222 1653.01,378.636 1659.94,412.608 1666.87,438.518 
  1673.8,452.659 1680.73,452.762 1687.66,438.349 1694.59,410.849 1701.52,373.475 1708.45,330.85 1715.38,288.436 1722.31,251.833 1729.24,226.045 1736.17,214.792 
  1743.1,219.983 1750.03,241.41 1756.96,276.713 1763.89,321.637 1770.82,370.537 1777.75,417.091 1784.68,455.115 1791.61,479.383 1798.54,486.347 1805.47,474.642 
  1812.4,445.329 1819.33,401.811 1826.26,349.445 1833.19,294.886 1840.12,245.236 1847.05,207.126 1853.98,185.827 1860.91,184.526 1867.84,203.856 1874.77,241.76 
  1881.71,293.692 1888.64,353.166 1895.57,412.561 1902.5,464.097 1909.43,500.859 1916.36,517.719 1923.29,512.047 1930.22,484.112 1937.15,437.105 1944.08,376.78 
  1951.01,310.756 1957.94,247.549 1964.87,195.477 1971.8,161.567 1978.73,150.606 1985.66,164.471 1992.59,201.828 1999.52,258.242 2006.45,326.707 2013.38,398.505 
  2020.31,464.324 2027.24,515.46 2034.17,544.973 2041.1,548.62 2048.03,525.464 2054.96,478.055 2061.89,412.15 2068.82,336.029 2075.75,259.445 2082.68,192.378 
  2089.61,143.736 2096.54,120.174 2103.47,125.179 2110.4,158.572 2117.33,216.464 2124.26,291.706 2131.19,374.771 2138.13,454.959 2145.06,521.773 2151.99,566.297 
  2158.92,582.382 2165.85,567.492 2172.78,523.091 2179.71,454.512 2186.64,370.32 2193.57,281.248 2200.5,198.821 2207.43,133.872 2214.36,95.1143 2221.29,87.9763 
  2228.22,113.845 2235.15,169.828 2242.08,249.067 2249.01,341.578 2255.94,435.508 2262.87,518.651 2269.8,580.04 2276.73,611.385 2283.66,608.197 2290.59,570.421 
  
  "/>
<path clip-path="url(#clip520)" d="
M229.49 250.738 L700.371 250.738 L700.371 95.2176 L229.49 95.2176  Z
  " fill="#ffffff" fill-rule="evenodd" fill-opacity="1"/>
<polyline clip-path="url(#clip520)" style="stroke:#000000; stroke-linecap:butt; stroke-linejoin:round; stroke-width:4; stroke-opacity:1; fill:none" points="
  229.49,250.738 700.371,250.738 700.371,95.2176 229.49,95.2176 229.49,250.738 
  "/>
<polyline clip-path="url(#clip520)" style="stroke:#009af9; stroke-linecap:butt; stroke-linejoin:round; stroke-width:4; stroke-opacity:1; fill:none" stroke-dasharray="2, 4" points="
  253.896,147.058 400.328,147.058 
  "/>
<path clip-path="url(#clip520)" d="M429.409 133.62 L429.409 146.606 L435.289 146.606 Q438.552 146.606 440.335 144.916 Q442.117 143.227 442.117 140.102 Q442.117 137 440.335 135.31 Q438.552 133.62 435.289 133.62 L429.409 133.62 M424.733 129.778 L435.289 129.778 Q441.099 129.778 444.062 132.416 Q447.048 135.032 447.048 140.102 Q447.048 145.217 444.062 147.833 Q441.099 150.449 435.289 150.449 L429.409 150.449 L429.409 164.338 L424.733 164.338 L424.733 129.778 Z" fill="#000000" fill-rule="evenodd" fill-opacity="1" /><path clip-path="url(#clip520)" d="M467.325 142.393 Q466.608 141.977 465.751 141.791 Q464.918 141.583 463.899 141.583 Q460.288 141.583 458.344 143.944 Q456.423 146.282 456.423 150.68 L456.423 164.338 L452.14 164.338 L452.14 138.412 L456.423 138.412 L456.423 142.44 Q457.765 140.078 459.918 138.944 Q462.071 137.787 465.149 137.787 Q465.589 137.787 466.122 137.856 Q466.654 137.903 467.302 138.018 L467.325 142.393 Z" fill="#000000" fill-rule="evenodd" fill-opacity="1" /><path clip-path="url(#clip520)" d="M492.927 150.31 L492.927 152.393 L473.344 152.393 Q473.622 156.791 475.983 159.106 Q478.367 161.398 482.603 161.398 Q485.057 161.398 487.348 160.796 Q489.663 160.194 491.932 158.99 L491.932 163.018 Q489.64 163.99 487.233 164.5 Q484.825 165.009 482.348 165.009 Q476.145 165.009 472.511 161.398 Q468.899 157.787 468.899 151.629 Q468.899 145.264 472.325 141.537 Q475.774 137.787 481.608 137.787 Q486.839 137.787 489.872 141.166 Q492.927 144.523 492.927 150.31 M488.668 149.06 Q488.622 145.565 486.7 143.481 Q484.802 141.398 481.654 141.398 Q478.089 141.398 475.936 143.412 Q473.807 145.426 473.483 149.083 L488.668 149.06 Z" fill="#000000" fill-rule="evenodd" fill-opacity="1" /><path clip-path="url(#clip520)" d="M516.978 142.347 L516.978 128.319 L521.237 128.319 L521.237 164.338 L516.978 164.338 L516.978 160.449 Q515.635 162.763 513.575 163.898 Q511.538 165.009 508.668 165.009 Q503.969 165.009 501.006 161.259 Q498.066 157.509 498.066 151.398 Q498.066 145.287 501.006 141.537 Q503.969 137.787 508.668 137.787 Q511.538 137.787 513.575 138.921 Q515.635 140.032 516.978 142.347 M502.464 151.398 Q502.464 156.097 504.385 158.782 Q506.33 161.444 509.709 161.444 Q513.089 161.444 515.033 158.782 Q516.978 156.097 516.978 151.398 Q516.978 146.699 515.033 144.037 Q513.089 141.352 509.709 141.352 Q506.33 141.352 504.385 144.037 Q502.464 146.699 502.464 151.398 Z" fill="#000000" fill-rule="evenodd" fill-opacity="1" /><path clip-path="url(#clip520)" d="M530.01 138.412 L534.269 138.412 L534.269 164.338 L530.01 164.338 L530.01 138.412 M530.01 128.319 L534.269 128.319 L534.269 133.713 L530.01 133.713 L530.01 128.319 Z" fill="#000000" fill-rule="evenodd" fill-opacity="1" /><path clip-path="url(#clip520)" d="M561.839 139.407 L561.839 143.389 Q560.033 142.393 558.205 141.907 Q556.399 141.398 554.547 141.398 Q550.404 141.398 548.112 144.037 Q545.82 146.652 545.82 151.398 Q545.82 156.143 548.112 158.782 Q550.404 161.398 554.547 161.398 Q556.399 161.398 558.205 160.912 Q560.033 160.402 561.839 159.407 L561.839 163.342 Q560.056 164.176 558.135 164.592 Q556.237 165.009 554.084 165.009 Q548.228 165.009 544.779 161.328 Q541.33 157.648 541.33 151.398 Q541.33 145.055 544.802 141.421 Q548.297 137.787 554.362 137.787 Q556.33 137.787 558.205 138.203 Q560.08 138.597 561.839 139.407 Z" fill="#000000" fill-rule="evenodd" fill-opacity="1" /><path clip-path="url(#clip520)" d="M573.459 131.051 L573.459 138.412 L582.232 138.412 L582.232 141.722 L573.459 141.722 L573.459 155.796 Q573.459 158.967 574.316 159.87 Q575.195 160.773 577.857 160.773 L582.232 160.773 L582.232 164.338 L577.857 164.338 Q572.927 164.338 571.052 162.509 Q569.177 160.657 569.177 155.796 L569.177 141.722 L566.052 141.722 L566.052 138.412 L569.177 138.412 L569.177 131.051 L573.459 131.051 Z" fill="#000000" fill-rule="evenodd" fill-opacity="1" /><path clip-path="url(#clip520)" d="M587.834 138.412 L592.093 138.412 L592.093 164.338 L587.834 164.338 L587.834 138.412 M587.834 128.319 L592.093 128.319 L592.093 133.713 L587.834 133.713 L587.834 128.319 Z" fill="#000000" fill-rule="evenodd" fill-opacity="1" /><path clip-path="url(#clip520)" d="M611.051 141.398 Q607.626 141.398 605.635 144.083 Q603.644 146.745 603.644 151.398 Q603.644 156.051 605.612 158.736 Q607.602 161.398 611.051 161.398 Q614.454 161.398 616.445 158.713 Q618.436 156.027 618.436 151.398 Q618.436 146.791 616.445 144.106 Q614.454 141.398 611.051 141.398 M611.051 137.787 Q616.607 137.787 619.778 141.398 Q622.95 145.009 622.95 151.398 Q622.95 157.764 619.778 161.398 Q616.607 165.009 611.051 165.009 Q605.473 165.009 602.302 161.398 Q599.153 157.764 599.153 151.398 Q599.153 145.009 602.302 141.398 Q605.473 137.787 611.051 137.787 Z" fill="#000000" fill-rule="evenodd" fill-opacity="1" /><path clip-path="url(#clip520)" d="M651.561 148.689 L651.561 164.338 L647.301 164.338 L647.301 148.828 Q647.301 145.148 645.866 143.319 Q644.431 141.49 641.561 141.49 Q638.112 141.49 636.121 143.69 Q634.13 145.889 634.13 149.685 L634.13 164.338 L629.848 164.338 L629.848 138.412 L634.13 138.412 L634.13 142.44 Q635.658 140.102 637.718 138.944 Q639.801 137.787 642.51 137.787 Q646.977 137.787 649.269 140.565 Q651.561 143.319 651.561 148.689 Z" fill="#000000" fill-rule="evenodd" fill-opacity="1" /><polyline clip-path="url(#clip520)" style="stroke:#e26f46; stroke-linecap:butt; stroke-linejoin:round; stroke-width:4; stroke-opacity:1; fill:none" points="
  253.896,198.898 400.328,198.898 
  "/>
<path clip-path="url(#clip520)" d="M424.733 181.618 L446.585 181.618 L446.585 185.553 L429.409 185.553 L429.409 195.784 L445.867 195.784 L445.867 199.719 L429.409 199.719 L429.409 212.242 L447.001 212.242 L447.001 216.178 L424.733 216.178 L424.733 181.618 Z" fill="#000000" fill-rule="evenodd" fill-opacity="1" /><path clip-path="url(#clip520)" d="M476.052 190.252 L466.677 202.867 L476.538 216.178 L471.515 216.178 L463.969 205.992 L456.423 216.178 L451.4 216.178 L461.469 202.613 L452.256 190.252 L457.279 190.252 L464.154 199.488 L471.029 190.252 L476.052 190.252 Z" fill="#000000" fill-rule="evenodd" fill-opacity="1" /><path clip-path="url(#clip520)" d="M494.339 203.145 Q489.177 203.145 487.186 204.326 Q485.196 205.506 485.196 208.354 Q485.196 210.622 486.677 211.965 Q488.182 213.284 490.751 213.284 Q494.293 213.284 496.422 210.784 Q498.575 208.261 498.575 204.094 L498.575 203.145 L494.339 203.145 M502.834 201.386 L502.834 216.178 L498.575 216.178 L498.575 212.242 Q497.117 214.603 494.941 215.738 Q492.765 216.849 489.617 216.849 Q485.635 216.849 483.274 214.627 Q480.936 212.381 480.936 208.631 Q480.936 204.256 483.853 202.034 Q486.793 199.812 492.603 199.812 L498.575 199.812 L498.575 199.395 Q498.575 196.455 496.631 194.858 Q494.71 193.238 491.214 193.238 Q488.992 193.238 486.885 193.77 Q484.779 194.303 482.835 195.367 L482.835 191.432 Q485.173 190.53 487.372 190.09 Q489.571 189.627 491.654 189.627 Q497.279 189.627 500.057 192.543 Q502.834 195.46 502.834 201.386 Z" fill="#000000" fill-rule="evenodd" fill-opacity="1" /><path clip-path="url(#clip520)" d="M530.265 191.247 L530.265 195.229 Q528.459 194.233 526.631 193.747 Q524.825 193.238 522.973 193.238 Q518.83 193.238 516.538 195.877 Q514.246 198.492 514.246 203.238 Q514.246 207.983 516.538 210.622 Q518.83 213.238 522.973 213.238 Q524.825 213.238 526.631 212.752 Q528.459 212.242 530.265 211.247 L530.265 215.182 Q528.482 216.016 526.561 216.432 Q524.663 216.849 522.51 216.849 Q516.654 216.849 513.205 213.168 Q509.756 209.488 509.756 203.238 Q509.756 196.895 513.228 193.261 Q516.723 189.627 522.788 189.627 Q524.756 189.627 526.631 190.043 Q528.506 190.437 530.265 191.247 Z" fill="#000000" fill-rule="evenodd" fill-opacity="1" /><path clip-path="url(#clip520)" d="M541.885 182.891 L541.885 190.252 L550.658 190.252 L550.658 193.562 L541.885 193.562 L541.885 207.636 Q541.885 210.807 542.742 211.71 Q543.621 212.613 546.283 212.613 L550.658 212.613 L550.658 216.178 L546.283 216.178 Q541.353 216.178 539.478 214.349 Q537.603 212.497 537.603 207.636 L537.603 193.562 L534.478 193.562 L534.478 190.252 L537.603 190.252 L537.603 182.891 L541.885 182.891 Z" fill="#000000" fill-rule="evenodd" fill-opacity="1" /></svg>
