<?xml version="1.0" encoding="utf-8"?>
<svg xmlns="http://www.w3.org/2000/svg" xmlns:xlink="http://www.w3.org/1999/xlink" width="600" height="400" viewBox="0 0 2400 1600">
<defs>
  <clipPath id="clip550">
    <rect x="0" y="0" width="2400" height="1600"/>
  </clipPath>
</defs>
<path clip-path="url(#clip550)" d="
M0 1600 L2400 1600 L2400 0 L0 0  Z
  " fill="#ffffff" fill-rule="evenodd" fill-opacity="1"/>
<defs>
  <clipPath id="clip551">
    <rect x="480" y="0" width="1681" height="1600"/>
  </clipPath>
</defs>
<path clip-path="url(#clip550)" d="
M156.274 1486.45 L2352.76 1486.45 L2352.76 47.2441 L156.274 47.2441  Z
  " fill="#ffffff" fill-rule="evenodd" fill-opacity="1"/>
<defs>
  <clipPath id="clip552">
    <rect x="156" y="47" width="2197" height="1440"/>
  </clipPath>
</defs>
<polyline clip-path="url(#clip552)" style="stroke:#000000; stroke-linecap:butt; stroke-linejoin:round; stroke-width:2; stroke-opacity:0.1; fill:none" points="
  218.439,1486.45 218.439,47.2441 
  "/>
<polyline clip-path="url(#clip552)" style="stroke:#000000; stroke-linecap:butt; stroke-linejoin:round; stroke-width:2; stroke-opacity:0.1; fill:none" points="
  736.477,1486.45 736.477,47.2441 
  "/>
<polyline clip-path="url(#clip552)" style="stroke:#000000; stroke-linecap:butt; stroke-linejoin:round; stroke-width:2; stroke-opacity:0.1; fill:none" points="
  1254.52,1486.45 1254.52,47.2441 
  "/>
<polyline clip-path="url(#clip552)" style="stroke:#000000; stroke-linecap:butt; stroke-linejoin:round; stroke-width:2; stroke-opacity:0.1; fill:none" points="
  1772.55,1486.45 1772.55,47.2441 
  "/>
<polyline clip-path="url(#clip552)" style="stroke:#000000; stroke-linecap:butt; stroke-linejoin:round; stroke-width:2; stroke-opacity:0.1; fill:none" points="
  2290.59,1486.45 2290.59,47.2441 
  "/>
<polyline clip-path="url(#clip550)" style="stroke:#000000; stroke-linecap:butt; stroke-linejoin:round; stroke-width:4; stroke-opacity:1; fill:none" points="
  156.274,1486.45 2352.76,1486.45 
  "/>
<polyline clip-path="url(#clip550)" style="stroke:#000000; stroke-linecap:butt; stroke-linejoin:round; stroke-width:4; stroke-opacity:1; fill:none" points="
  218.439,1486.45 218.439,1467.55 
  "/>
<polyline clip-path="url(#clip550)" style="stroke:#000000; stroke-linecap:butt; stroke-linejoin:round; stroke-width:4; stroke-opacity:1; fill:none" points="
  736.477,1486.45 736.477,1467.55 
  "/>
<polyline clip-path="url(#clip550)" style="stroke:#000000; stroke-linecap:butt; stroke-linejoin:round; stroke-width:4; stroke-opacity:1; fill:none" points="
  1254.52,1486.45 1254.52,1467.55 
  "/>
<polyline clip-path="url(#clip550)" style="stroke:#000000; stroke-linecap:butt; stroke-linejoin:round; stroke-width:4; stroke-opacity:1; fill:none" points="
  1772.55,1486.45 1772.55,1467.55 
  "/>
<polyline clip-path="url(#clip550)" style="stroke:#000000; stroke-linecap:butt; stroke-linejoin:round; stroke-width:4; stroke-opacity:1; fill:none" points="
  2290.59,1486.45 2290.59,1467.55 
  "/>
<path clip-path="url(#clip550)" d="M164.967 1532.02 L194.643 1532.02 L194.643 1535.95 L164.967 1535.95 L164.967 1532.02 Z" fill="#000000" fill-rule="evenodd" fill-opacity="1" /><path clip-path="url(#clip550)" d="M205.545 1544.91 L213.184 1544.91 L213.184 1518.55 L204.874 1520.21 L204.874 1515.95 L213.138 1514.29 L217.814 1514.29 L217.814 1544.91 L225.453 1544.91 L225.453 1548.85 L205.545 1548.85 L205.545 1544.91 Z" fill="#000000" fill-rule="evenodd" fill-opacity="1" /><path clip-path="url(#clip550)" d="M234.897 1542.97 L239.781 1542.97 L239.781 1548.85 L234.897 1548.85 L234.897 1542.97 Z" fill="#000000" fill-rule="evenodd" fill-opacity="1" /><path clip-path="url(#clip550)" d="M259.966 1517.37 Q256.355 1517.37 254.527 1520.93 Q252.721 1524.47 252.721 1531.6 Q252.721 1538.71 254.527 1542.27 Q256.355 1545.82 259.966 1545.82 Q263.601 1545.82 265.406 1542.27 Q267.235 1538.71 267.235 1531.6 Q267.235 1524.47 265.406 1520.93 Q263.601 1517.37 259.966 1517.37 M259.966 1513.66 Q265.776 1513.66 268.832 1518.27 Q271.911 1522.85 271.911 1531.6 Q271.911 1540.33 268.832 1544.94 Q265.776 1549.52 259.966 1549.52 Q254.156 1549.52 251.077 1544.94 Q248.022 1540.33 248.022 1531.6 Q248.022 1522.85 251.077 1518.27 Q254.156 1513.66 259.966 1513.66 Z" fill="#000000" fill-rule="evenodd" fill-opacity="1" /><path clip-path="url(#clip550)" d="M683.503 1532.02 L713.178 1532.02 L713.178 1535.95 L683.503 1535.95 L683.503 1532.02 Z" fill="#000000" fill-rule="evenodd" fill-opacity="1" /><path clip-path="url(#clip550)" d="M733.271 1517.37 Q729.66 1517.37 727.831 1520.93 Q726.026 1524.47 726.026 1531.6 Q726.026 1538.71 727.831 1542.27 Q729.66 1545.82 733.271 1545.82 Q736.905 1545.82 738.711 1542.27 Q740.539 1538.71 740.539 1531.6 Q740.539 1524.47 738.711 1520.93 Q736.905 1517.37 733.271 1517.37 M733.271 1513.66 Q739.081 1513.66 742.137 1518.27 Q745.215 1522.85 745.215 1531.6 Q745.215 1540.33 742.137 1544.94 Q739.081 1549.52 733.271 1549.52 Q727.461 1549.52 724.382 1544.94 Q721.327 1540.33 721.327 1531.6 Q721.327 1522.85 724.382 1518.27 Q727.461 1513.66 733.271 1513.66 Z" fill="#000000" fill-rule="evenodd" fill-opacity="1" /><path clip-path="url(#clip550)" d="M753.433 1542.97 L758.317 1542.97 L758.317 1548.85 L753.433 1548.85 L753.433 1542.97 Z" fill="#000000" fill-rule="evenodd" fill-opacity="1" /><path clip-path="url(#clip550)" d="M768.548 1514.29 L786.905 1514.29 L786.905 1518.22 L772.831 1518.22 L772.831 1526.7 Q773.849 1526.35 774.868 1526.19 Q775.886 1526 776.905 1526 Q782.692 1526 786.072 1529.17 Q789.451 1532.34 789.451 1537.76 Q789.451 1543.34 785.979 1546.44 Q782.507 1549.52 776.187 1549.52 Q774.011 1549.52 771.743 1549.15 Q769.498 1548.78 767.09 1548.04 L767.09 1543.34 Q769.173 1544.47 771.396 1545.03 Q773.618 1545.58 776.095 1545.58 Q780.099 1545.58 782.437 1543.48 Q784.775 1541.37 784.775 1537.76 Q784.775 1534.15 782.437 1532.04 Q780.099 1529.94 776.095 1529.94 Q774.22 1529.94 772.345 1530.35 Q770.493 1530.77 768.548 1531.65 L768.548 1514.29 Z" fill="#000000" fill-rule="evenodd" fill-opacity="1" /><path clip-path="url(#clip550)" d="M1231.9 1517.37 Q1228.29 1517.37 1226.46 1520.93 Q1224.65 1524.47 1224.65 1531.6 Q1224.65 1538.71 1226.46 1542.27 Q1228.29 1545.82 1231.9 1545.82 Q1235.53 1545.82 1237.34 1542.27 Q1239.17 1538.71 1239.17 1531.6 Q1239.17 1524.47 1237.34 1520.93 Q1235.53 1517.37 1231.9 1517.37 M1231.9 1513.66 Q1237.71 1513.66 1240.77 1518.27 Q1243.84 1522.85 1243.84 1531.6 Q1243.84 1540.33 1240.77 1544.94 Q1237.71 1549.52 1231.9 1549.52 Q1226.09 1549.52 1223.01 1544.94 Q1219.96 1540.33 1219.96 1531.6 Q1219.96 1522.85 1223.01 1518.27 Q1226.09 1513.66 1231.9 1513.66 Z" fill="#000000" fill-rule="evenodd" fill-opacity="1" /><path clip-path="url(#clip550)" d="M1252.06 1542.97 L1256.95 1542.97 L1256.95 1548.85 L1252.06 1548.85 L1252.06 1542.97 Z" fill="#000000" fill-rule="evenodd" fill-opacity="1" /><path clip-path="url(#clip550)" d="M1277.13 1517.37 Q1273.52 1517.37 1271.69 1520.93 Q1269.89 1524.47 1269.89 1531.6 Q1269.89 1538.71 1271.69 1542.27 Q1273.52 1545.82 1277.13 1545.82 Q1280.76 1545.82 1282.57 1542.27 Q1284.4 1538.71 1284.4 1531.6 Q1284.4 1524.47 1282.57 1520.93 Q1280.76 1517.37 1277.13 1517.37 M1277.13 1513.66 Q1282.94 1513.66 1286 1518.27 Q1289.08 1522.85 1289.08 1531.6 Q1289.08 1540.33 1286 1544.94 Q1282.94 1549.52 1277.13 1549.52 Q1271.32 1549.52 1268.24 1544.94 Q1265.19 1540.33 1265.19 1531.6 Q1265.19 1522.85 1268.24 1518.27 Q1271.32 1513.66 1277.13 1513.66 Z" fill="#000000" fill-rule="evenodd" fill-opacity="1" /><path clip-path="url(#clip550)" d="M1750.44 1517.37 Q1746.82 1517.37 1745 1520.93 Q1743.19 1524.47 1743.19 1531.6 Q1743.19 1538.71 1745 1542.27 Q1746.82 1545.82 1750.44 1545.82 Q1754.07 1545.82 1755.88 1542.27 Q1757.7 1538.71 1757.7 1531.6 Q1757.7 1524.47 1755.88 1520.93 Q1754.07 1517.37 1750.44 1517.37 M1750.44 1513.66 Q1756.25 1513.66 1759.3 1518.27 Q1762.38 1522.85 1762.38 1531.6 Q1762.38 1540.33 1759.3 1544.94 Q1756.25 1549.52 1750.44 1549.52 Q1744.63 1549.52 1741.55 1544.94 Q1738.49 1540.33 1738.49 1531.6 Q1738.49 1522.85 1741.55 1518.27 Q1744.63 1513.66 1750.44 1513.66 Z" fill="#000000" fill-rule="evenodd" fill-opacity="1" /><path clip-path="url(#clip550)" d="M1770.6 1542.97 L1775.48 1542.97 L1775.48 1548.85 L1770.6 1548.85 L1770.6 1542.97 Z" fill="#000000" fill-rule="evenodd" fill-opacity="1" /><path clip-path="url(#clip550)" d="M1785.71 1514.29 L1804.07 1514.29 L1804.07 1518.22 L1790 1518.22 L1790 1526.7 Q1791.01 1526.35 1792.03 1526.19 Q1793.05 1526 1794.07 1526 Q1799.86 1526 1803.24 1529.17 Q1806.62 1532.34 1806.62 1537.76 Q1806.62 1543.34 1803.14 1546.44 Q1799.67 1549.52 1793.35 1549.52 Q1791.18 1549.52 1788.91 1549.15 Q1786.66 1548.78 1784.25 1548.04 L1784.25 1543.34 Q1786.34 1544.47 1788.56 1545.03 Q1790.78 1545.58 1793.26 1545.58 Q1797.26 1545.58 1799.6 1543.48 Q1801.94 1541.37 1801.94 1537.76 Q1801.94 1534.15 1799.6 1532.04 Q1797.26 1529.94 1793.26 1529.94 Q1791.38 1529.94 1789.51 1530.35 Q1787.66 1530.77 1785.71 1531.65 L1785.71 1514.29 Z" fill="#000000" fill-rule="evenodd" fill-opacity="1" /><path clip-path="url(#clip550)" d="M2257.74 1544.91 L2265.38 1544.91 L2265.38 1518.55 L2257.07 1520.21 L2257.07 1515.95 L2265.34 1514.29 L2270.01 1514.29 L2270.01 1544.91 L2277.65 1544.91 L2277.65 1548.85 L2257.74 1548.85 L2257.74 1544.91 Z" fill="#000000" fill-rule="evenodd" fill-opacity="1" /><path clip-path="url(#clip550)" d="M2287.1 1542.97 L2291.98 1542.97 L2291.98 1548.85 L2287.1 1548.85 L2287.1 1542.97 Z" fill="#000000" fill-rule="evenodd" fill-opacity="1" /><path clip-path="url(#clip550)" d="M2312.17 1517.37 Q2308.55 1517.37 2306.73 1520.93 Q2304.92 1524.47 2304.92 1531.6 Q2304.92 1538.71 2306.73 1542.27 Q2308.55 1545.82 2312.17 1545.82 Q2315.8 1545.82 2317.61 1542.27 Q2319.43 1538.71 2319.43 1531.6 Q2319.43 1524.47 2317.61 1520.93 Q2315.8 1517.37 2312.17 1517.37 M2312.17 1513.66 Q2317.98 1513.66 2321.03 1518.27 Q2324.11 1522.85 2324.11 1531.6 Q2324.11 1540.33 2321.03 1544.94 Q2317.98 1549.52 2312.17 1549.52 Q2306.36 1549.52 2303.28 1544.94 Q2300.22 1540.33 2300.22 1531.6 Q2300.22 1522.85 2303.28 1518.27 Q2306.36 1513.66 2312.17 1513.66 Z" fill="#000000" fill-rule="evenodd" fill-opacity="1" /><polyline clip-path="url(#clip552)" style="stroke:#000000; stroke-linecap:butt; stroke-linejoin:round; stroke-width:2; stroke-opacity:0.1; fill:none" points="
  156.274,1256.83 2352.76,1256.83 
  "/>
<polyline clip-path="url(#clip552)" style="stroke:#000000; stroke-linecap:butt; stroke-linejoin:round; stroke-width:2; stroke-opacity:0.1; fill:none" points="
  156.274,983.389 2352.76,983.389 
  "/>
<polyline clip-path="url(#clip552)" style="stroke:#000000; stroke-linecap:butt; stroke-linejoin:round; stroke-width:2; stroke-opacity:0.1; fill:none" points="
  156.274,709.952 2352.76,709.952 
  "/>
<polyline clip-path="url(#clip552)" style="stroke:#000000; stroke-linecap:butt; stroke-linejoin:round; stroke-width:2; stroke-opacity:0.1; fill:none" points="
  156.274,436.515 2352.76,436.515 
  "/>
<polyline clip-path="url(#clip552)" style="stroke:#000000; stroke-linecap:butt; stroke-linejoin:round; stroke-width:2; stroke-opacity:0.1; fill:none" points="
  156.274,163.078 2352.76,163.078 
  "/>
<polyline clip-path="url(#clip550)" style="stroke:#000000; stroke-linecap:butt; stroke-linejoin:round; stroke-width:4; stroke-opacity:1; fill:none" points="
  156.274,1486.45 156.274,47.2441 
  "/>
<polyline clip-path="url(#clip550)" style="stroke:#000000; stroke-linecap:butt; stroke-linejoin:round; stroke-width:4; stroke-opacity:1; fill:none" points="
  156.274,1256.83 175.172,1256.83 
  "/>
<polyline clip-path="url(#clip550)" style="stroke:#000000; stroke-linecap:butt; stroke-linejoin:round; stroke-width:4; stroke-opacity:1; fill:none" points="
  156.274,983.389 175.172,983.389 
  "/>
<polyline clip-path="url(#clip550)" style="stroke:#000000; stroke-linecap:butt; stroke-linejoin:round; stroke-width:4; stroke-opacity:1; fill:none" points="
  156.274,709.952 175.172,709.952 
  "/>
<polyline clip-path="url(#clip550)" style="stroke:#000000; stroke-linecap:butt; stroke-linejoin:round; stroke-width:4; stroke-opacity:1; fill:none" points="
  156.274,436.515 175.172,436.515 
  "/>
<polyline clip-path="url(#clip550)" style="stroke:#000000; stroke-linecap:butt; stroke-linejoin:round; stroke-width:4; stroke-opacity:1; fill:none" points="
  156.274,163.078 175.172,163.078 
  "/>
<path clip-path="url(#clip550)" d="M63.0985 1242.62 Q59.4875 1242.62 57.6588 1246.19 Q55.8532 1249.73 55.8532 1256.86 Q55.8532 1263.97 57.6588 1267.53 Q59.4875 1271.07 63.0985 1271.07 Q66.7328 1271.07 68.5383 1267.53 Q70.367 1263.97 70.367 1256.86 Q70.367 1249.73 68.5383 1246.19 Q66.7328 1242.62 63.0985 1242.62 M63.0985 1238.92 Q68.9087 1238.92 71.9642 1243.53 Q75.0429 1248.11 75.0429 1256.86 Q75.0429 1265.59 71.9642 1270.19 Q68.9087 1274.78 63.0985 1274.78 Q57.2884 1274.78 54.2097 1270.19 Q51.1542 1265.59 51.1542 1256.86 Q51.1542 1248.11 54.2097 1243.53 Q57.2884 1238.92 63.0985 1238.92 Z" fill="#000000" fill-rule="evenodd" fill-opacity="1" /><path clip-path="url(#clip550)" d="M83.2605 1268.23 L88.1447 1268.23 L88.1447 1274.11 L83.2605 1274.11 L83.2605 1268.23 Z" fill="#000000" fill-rule="evenodd" fill-opacity="1" /><path clip-path="url(#clip550)" d="M108.33 1242.62 Q104.719 1242.62 102.89 1246.19 Q101.084 1249.73 101.084 1256.86 Q101.084 1263.97 102.89 1267.53 Q104.719 1271.07 108.33 1271.07 Q111.964 1271.07 113.77 1267.53 Q115.598 1263.97 115.598 1256.86 Q115.598 1249.73 113.77 1246.19 Q111.964 1242.62 108.33 1242.62 M108.33 1238.92 Q114.14 1238.92 117.195 1243.53 Q120.274 1248.11 120.274 1256.86 Q120.274 1265.59 117.195 1270.19 Q114.14 1274.78 108.33 1274.78 Q102.52 1274.78 99.4409 1270.19 Q96.3854 1265.59 96.3854 1256.86 Q96.3854 1248.11 99.4409 1243.53 Q102.52 1238.92 108.33 1238.92 Z" fill="#000000" fill-rule="evenodd" fill-opacity="1" /><path clip-path="url(#clip550)" d="M63.7467 969.188 Q60.1356 969.188 58.3069 972.753 Q56.5014 976.294 56.5014 983.424 Q56.5014 990.53 58.3069 994.095 Q60.1356 997.637 63.7467 997.637 Q67.3809 997.637 69.1865 994.095 Q71.0152 990.53 71.0152 983.424 Q71.0152 976.294 69.1865 972.753 Q67.3809 969.188 63.7467 969.188 M63.7467 965.484 Q69.5568 965.484 72.6124 970.091 Q75.6911 974.674 75.6911 983.424 Q75.6911 992.151 72.6124 996.757 Q69.5568 1001.34 63.7467 1001.34 Q57.9365 1001.34 54.8578 996.757 Q51.8023 992.151 51.8023 983.424 Q51.8023 974.674 54.8578 970.091 Q57.9365 965.484 63.7467 965.484 Z" fill="#000000" fill-rule="evenodd" fill-opacity="1" /><path clip-path="url(#clip550)" d="M83.9086 994.79 L88.7928 994.79 L88.7928 1000.67 L83.9086 1000.67 L83.9086 994.79 Z" fill="#000000" fill-rule="evenodd" fill-opacity="1" /><path clip-path="url(#clip550)" d="M113.145 982.035 Q116.501 982.753 118.376 985.021 Q120.274 987.29 120.274 990.623 Q120.274 995.739 116.756 998.54 Q113.237 1001.34 106.756 1001.34 Q104.58 1001.34 102.265 1000.9 Q99.9733 1000.48 97.5197 999.627 L97.5197 995.114 Q99.4641 996.248 101.779 996.827 Q104.094 997.405 106.617 997.405 Q111.015 997.405 113.307 995.669 Q115.621 993.933 115.621 990.623 Q115.621 987.567 113.469 985.854 Q111.339 984.118 107.52 984.118 L103.492 984.118 L103.492 980.276 L107.705 980.276 Q111.154 980.276 112.983 978.91 Q114.811 977.521 114.811 974.929 Q114.811 972.266 112.913 970.854 Q111.038 969.419 107.52 969.419 Q105.598 969.419 103.399 969.836 Q101.2 970.253 98.5613 971.132 L98.5613 966.966 Q101.223 966.225 103.538 965.854 Q105.876 965.484 107.936 965.484 Q113.26 965.484 116.362 967.915 Q119.464 970.322 119.464 974.442 Q119.464 977.313 117.82 979.303 Q116.177 981.271 113.145 982.035 Z" fill="#000000" fill-rule="evenodd" fill-opacity="1" /><path clip-path="url(#clip550)" d="M62.9365 695.751 Q59.3254 695.751 57.4967 699.316 Q55.6912 702.857 55.6912 709.987 Q55.6912 717.093 57.4967 720.658 Q59.3254 724.2 62.9365 724.2 Q66.5707 724.2 68.3763 720.658 Q70.205 717.093 70.205 709.987 Q70.205 702.857 68.3763 699.316 Q66.5707 695.751 62.9365 695.751 M62.9365 692.047 Q68.7467 692.047 71.8022 696.654 Q74.8809 701.237 74.8809 709.987 Q74.8809 718.714 71.8022 723.32 Q68.7467 727.903 62.9365 727.903 Q57.1264 727.903 54.0477 723.32 Q50.9921 718.714 50.9921 709.987 Q50.9921 701.237 54.0477 696.654 Q57.1264 692.047 62.9365 692.047 Z" fill="#000000" fill-rule="evenodd" fill-opacity="1" /><path clip-path="url(#clip550)" d="M83.0984 721.352 L87.9827 721.352 L87.9827 727.232 L83.0984 727.232 L83.0984 721.352 Z" fill="#000000" fill-rule="evenodd" fill-opacity="1" /><path clip-path="url(#clip550)" d="M108.746 708.089 Q105.598 708.089 103.746 710.241 Q101.918 712.394 101.918 716.144 Q101.918 719.871 103.746 722.047 Q105.598 724.2 108.746 724.2 Q111.895 724.2 113.723 722.047 Q115.575 719.871 115.575 716.144 Q115.575 712.394 113.723 710.241 Q111.895 708.089 108.746 708.089 M118.029 693.436 L118.029 697.695 Q116.27 696.862 114.464 696.422 Q112.682 695.982 110.922 695.982 Q106.293 695.982 103.839 699.107 Q101.409 702.232 101.061 708.552 Q102.427 706.538 104.487 705.473 Q106.547 704.385 109.024 704.385 Q114.233 704.385 117.242 707.556 Q120.274 710.704 120.274 716.144 Q120.274 721.468 117.126 724.686 Q113.978 727.903 108.746 727.903 Q102.751 727.903 99.5798 723.32 Q96.4085 718.714 96.4085 709.987 Q96.4085 701.792 100.297 696.931 Q104.186 692.047 110.737 692.047 Q112.496 692.047 114.279 692.394 Q116.084 692.742 118.029 693.436 Z" fill="#000000" fill-rule="evenodd" fill-opacity="1" /><path clip-path="url(#clip550)" d="M63.2837 422.314 Q59.6726 422.314 57.8439 425.878 Q56.0384 429.42 56.0384 436.55 Q56.0384 443.656 57.8439 447.221 Q59.6726 450.763 63.2837 450.763 Q66.918 450.763 68.7235 447.221 Q70.5522 443.656 70.5522 436.55 Q70.5522 429.42 68.7235 425.878 Q66.918 422.314 63.2837 422.314 M63.2837 418.61 Q69.0939 418.61 72.1494 423.216 Q75.2281 427.8 75.2281 436.55 Q75.2281 445.277 72.1494 449.883 Q69.0939 454.466 63.2837 454.466 Q57.4736 454.466 54.3949 449.883 Q51.3393 445.277 51.3393 436.55 Q51.3393 427.8 54.3949 423.216 Q57.4736 418.61 63.2837 418.61 Z" fill="#000000" fill-rule="evenodd" fill-opacity="1" /><path clip-path="url(#clip550)" d="M83.4457 447.915 L88.3299 447.915 L88.3299 453.795 L83.4457 453.795 L83.4457 447.915 Z" fill="#000000" fill-rule="evenodd" fill-opacity="1" /><path clip-path="url(#clip550)" d="M98.6539 453.077 L98.6539 448.818 Q100.413 449.652 102.219 450.091 Q104.024 450.531 105.76 450.531 Q110.39 450.531 112.82 447.429 Q115.274 444.304 115.621 437.962 Q114.279 439.952 112.219 441.017 Q110.158 442.082 107.658 442.082 Q102.473 442.082 99.4409 438.957 Q96.4317 435.809 96.4317 430.369 Q96.4317 425.045 99.5798 421.828 Q102.728 418.61 107.959 418.61 Q113.955 418.61 117.103 423.216 Q120.274 427.8 120.274 436.55 Q120.274 444.721 116.385 449.605 Q112.52 454.466 105.969 454.466 Q104.209 454.466 102.404 454.119 Q100.598 453.772 98.6539 453.077 M107.959 438.425 Q111.108 438.425 112.936 436.272 Q114.788 434.119 114.788 430.369 Q114.788 426.642 112.936 424.49 Q111.108 422.314 107.959 422.314 Q104.811 422.314 102.959 424.49 Q101.131 426.642 101.131 430.369 Q101.131 434.119 102.959 436.272 Q104.811 438.425 107.959 438.425 Z" fill="#000000" fill-rule="evenodd" fill-opacity="1" /><path clip-path="url(#clip550)" d="M55.506 176.423 L63.1448 176.423 L63.1448 150.057 L54.8347 151.724 L54.8347 147.465 L63.0985 145.798 L67.7744 145.798 L67.7744 176.423 L75.4133 176.423 L75.4133 180.358 L55.506 180.358 L55.506 176.423 Z" fill="#000000" fill-rule="evenodd" fill-opacity="1" /><path clip-path="url(#clip550)" d="M84.8577 174.478 L89.7419 174.478 L89.7419 180.358 L84.8577 180.358 L84.8577 174.478 Z" fill="#000000" fill-rule="evenodd" fill-opacity="1" /><path clip-path="url(#clip550)" d="M103.955 176.423 L120.274 176.423 L120.274 180.358 L98.3298 180.358 L98.3298 176.423 Q100.992 173.668 105.575 169.039 Q110.182 164.386 111.362 163.043 Q113.608 160.52 114.487 158.784 Q115.39 157.025 115.39 155.335 Q115.39 152.58 113.445 150.844 Q111.524 149.108 108.422 149.108 Q106.223 149.108 103.77 149.872 Q101.339 150.636 98.5613 152.187 L98.5613 147.465 Q101.385 146.33 103.839 145.752 Q106.293 145.173 108.33 145.173 Q113.7 145.173 116.895 147.858 Q120.089 150.543 120.089 155.034 Q120.089 157.164 119.279 159.085 Q118.492 160.983 116.385 163.576 Q115.807 164.247 112.705 167.464 Q109.603 170.659 103.955 176.423 Z" fill="#000000" fill-rule="evenodd" fill-opacity="1" /><polyline clip-path="url(#clip552)" style="stroke:#009af9; stroke-linecap:butt; stroke-linejoin:round; stroke-width:16; stroke-opacity:1; fill:none" stroke-dasharray="8, 16" points="
  218.439,1118.64 225.369,1116.25 232.299,1092.56 239.23,1074.99 246.16,1075.66 253.09,1083.31 260.02,1082.6 266.951,1075.52 273.881,1074.3 280.811,1083.23 
  287.742,1096.35 294.672,1108.34 301.602,1121.15 308.532,1137.82 315.463,1154.27 322.393,1168.05 329.323,1187.94 336.253,1215.27 343.184,1238.03 350.114,1255.57 
  357.044,1275.97 363.975,1298.65 370.905,1320.65 377.835,1342.61 384.765,1361.68 391.696,1375.13 398.626,1387.85 405.556,1405.34 412.486,1423.8 419.417,1433.39 
  426.347,1431.54 433.277,1428.76 440.208,1435.54 447.138,1443.86 454.068,1437.42 460.998,1422.81 467.929,1417.42 474.859,1413.21 481.789,1396.53 488.72,1375.06 
  495.65,1359.84 502.58,1345.78 509.51,1326.31 516.441,1303.9 523.371,1281.52 530.301,1258.89 537.231,1236.14 544.162,1215.08 551.092,1196.37 558.022,1177.45 
  564.953,1155.81 571.883,1135.22 578.813,1122.08 585.743,1111.95 592.674,1097.75 599.604,1085.51 606.534,1080.2 613.464,1077.54 620.395,1074.03 627.325,1072.93 
  634.255,1078.16 641.186,1086.94 648.116,1094.8 655.046,1103.43 661.976,1117.12 668.907,1134.4 675.837,1150.6 682.767,1166.56 689.698,1186.3 696.628,1209.33 
  703.558,1231.89 710.488,1251.86 717.419,1271.36 724.349,1294.29 731.279,1319.38 738.209,1340.71 745.14,1356 752.07,1369.29 759,1385.55 765.931,1404.85 
  772.861,1421 779.791,1428 786.721,1429.42 793.652,1433.88 800.582,1440.24 807.512,1440.35 814.442,1433.7 821.373,1426.49 828.303,1420.91 835.233,1412.81 
  842.164,1398.88 849.094,1381.01 856.024,1362.83 862.954,1346.19 869.885,1330.25 876.815,1311.9 883.745,1288.33 890.676,1261.12 897.606,1236.27 904.536,1217.61 
  911.466,1201.95 918.397,1183.55 925.327,1161.17 932.257,1138.8 939.187,1121.02 946.118,1109.12 953.048,1100.97 959.978,1093.46 966.909,1084.96 973.839,1076.25 
  980.769,1070.27 987.699,1070.69 994.63,1078.65 1001.56,1089.46 1008.49,1096.14 1015.42,1099.42 1022.35,1108.92 1029.28,1128.91 1036.21,1150.87 1043.14,1167.51 
  1050.07,1182.24 1057,1201.08 1063.93,1224.79 1070.86,1249.68 1077.79,1272.34 1084.72,1292.54 1091.65,1311.83 1098.58,1331.21 1105.51,1350.97 1112.44,1370.71 
  1119.37,1388.83 1126.3,1403.25 1133.24,1412.95 1140.17,1419.71 1147.1,1427.72 1154.03,1437.83 1160.96,1445.31 1167.89,1445.72 1174.82,1438.97 1181.75,1427.86 
  1188.68,1415.5 1195.61,1404.4 1202.54,1396.44 1209.47,1391.8 1216.4,1384.81 1223.33,1359.42 1230.26,1306.02 1237.19,1288.66 1244.12,1373.43 1251.05,1151.49 
  1257.98,460.116 1264.91,259.621 1271.84,366.048 1278.77,364.869 1285.7,334.754 1292.63,336.315 1299.56,351.889 1306.49,363.583 1313.42,367.596 1320.35,365.921 
  1327.28,360.982 1334.21,354.443 1341.14,347.385 1348.07,340.177 1355,332.389 1361.93,324.333 1368.86,318.473 1375.79,316.09 1382.73,315.032 1389.66,315.981 
  1396.59,324.278 1403.52,341.157 1410.45,360.445 1417.38,375.308 1424.31,383.564 1431.24,387.206 1438.17,389.119 1445.1,389.123 1452.03,382.656 1458.96,365.486 
  1465.89,341.22 1472.82,320.588 1479.75,308.114 1486.68,296.618 1493.61,282.692 1500.54,275.985 1507.47,285.961 1514.4,309.11 1521.33,334.845 1528.26,357.712 
  1535.19,378.912 1542.12,399.564 1549.05,416.805 1555.98,425.718 1562.91,422.823 1569.84,407.841 1576.77,383.59 1583.7,354.5 1590.63,324.485 1597.56,296.021 
  1604.49,271.269 1611.42,253.536 1618.35,247.166 1625.28,255.595 1632.22,278.691 1639.15,311.949 1646.08,348.761 1653.01,383.496 1659.94,413.025 1666.87,436.416 
  1673.8,452.808 1680.73,457.924 1687.66,444.658 1694.59,411.989 1701.52,370.126 1708.45,331.22 1715.38,296.764 1722.31,261.028 1729.24,228.356 1736.17,213.054 
  1743.1,221.307 1750.03,246.894 1756.96,282.208 1763.89,324.67 1770.82,372.895 1777.75,420.622 1784.68,457.895 1791.61,479.228 1798.54,486.082 1805.47,478.37 
  1812.4,451.028 1819.33,404.454 1826.26,348.892 1833.19,295.345 1840.12,249.988 1847.05,214.755 1853.98,191.316 1860.91,185.765 1867.84,204.636 1874.77,245.856 
  1881.71,299.024 1888.64,355.674 1895.57,413.23 1902.5,466.398 1909.43,504.204 1916.36,519.282 1923.29,512.29 1930.22,485.95 1937.15,440.655 1944.08,380.146 
  1951.01,313.663 1957.94,250.678 1964.87,198.658 1971.8,164.645 1978.73,154.754 1985.66,170.39 1992.59,207.056 1999.52,259.505 2006.45,326.172 2013.38,402.052 
  2020.31,470.62 2027.24,517.085 2034.17,542.774 2041.1,550.693 2048.03,530.764 2054.96,479.229 2061.89,412.175 2068.82,340.527 2075.75,264.501 2082.68,193.014 
  2089.61,143.274 2096.54,124.796 2103.47,134.442 2110.4,165.951 2117.33,218.558 2124.26,292.599 2131.19,378.085 2138.13,457.151 2145.06,521.104 2151.99,568.23 
  2158.92,587.66 2165.85,570.57 2172.78,524.625 2179.71,457.402 2186.64,370.998 2193.57,280.943 2200.5,203.997 2207.43,142.171 2214.36,99.1192 2221.29,87.9763 
  2228.22,116.555 2235.15,177.417 2242.08,255.916 2249.01,342.839 2255.94,434.352 2262.87,520.781 2269.8,584.076 2276.73,610.859 2283.66,603.574 2290.59,578.564 
  
  "/>
<polyline clip-path="url(#clip552)" style="stroke:#e26f46; stroke-linecap:butt; stroke-linejoin:round; stroke-width:4; stroke-opacity:1; fill:none" points="
  218.439,1119.93 225.369,1106.46 232.299,1095.17 239.23,1086.22 246.16,1079.74 253.09,1075.83 260.02,1074.53 266.951,1075.88 273.881,1079.85 280.811,1086.37 
  287.742,1095.37 294.672,1106.7 301.602,1120.21 308.532,1135.69 315.463,1152.93 322.393,1171.68 329.323,1191.65 336.253,1212.57 343.184,1234.13 350.114,1256.02 
  357.044,1277.92 363.975,1299.52 370.905,1320.5 377.835,1340.55 384.765,1359.39 391.696,1376.75 398.626,1392.37 405.556,1406.03 412.486,1417.53 419.417,1426.7 
  426.347,1433.41 433.277,1437.57 440.208,1439.11 447.138,1438.01 454.068,1434.28 460.998,1427.99 467.929,1419.22 474.859,1408.09 481.789,1394.78 488.72,1379.47 
  495.65,1362.38 502.58,1343.77 509.51,1323.9 516.441,1303.05 523.371,1281.54 530.301,1259.66 537.231,1237.75 544.162,1216.11 551.092,1195.07 558.022,1174.91 
  564.953,1155.95 571.883,1138.44 578.813,1122.65 585.743,1108.8 592.674,1097.09 599.604,1087.7 606.534,1080.75 613.464,1076.36 620.395,1074.58 627.325,1075.43 
  634.255,1078.91 641.186,1084.97 648.116,1093.52 655.046,1104.43 661.976,1117.55 668.907,1132.68 675.837,1149.62 682.767,1168.1 689.698,1187.87 696.628,1208.64 
  703.558,1230.1 710.488,1251.95 717.419,1273.88 724.349,1295.55 731.279,1316.67 738.209,1336.92 745.14,1356.01 752.07,1373.66 759,1389.62 765.931,1403.66 
  772.861,1415.57 779.791,1425.18 786.721,1432.36 793.652,1437 800.582,1439.02 807.512,1438.41 814.442,1435.17 821.373,1429.35 828.303,1421.03 835.233,1410.33 
  842.164,1397.41 849.094,1382.45 856.024,1365.67 862.954,1347.32 869.885,1327.66 876.815,1306.97 883.745,1285.56 890.676,1263.73 897.606,1241.8 904.536,1220.09 
  911.466,1198.91 918.397,1178.57 925.327,1159.36 932.257,1141.56 939.187,1125.43 946.118,1111.21 953.048,1099.09 959.978,1089.26 966.909,1081.85 973.839,1076.98 
  980.769,1074.71 987.699,1075.07 994.63,1078.07 1001.56,1083.66 1008.49,1091.75 1015.42,1102.24 1022.35,1114.96 1029.28,1129.74 1036.21,1146.35 1043.14,1164.57 
  1050.07,1184.12 1057,1204.73 1063.93,1226.09 1070.86,1247.89 1077.79,1269.82 1084.72,1291.57 1091.65,1312.81 1098.58,1333.24 1105.51,1352.57 1112.44,1370.51 
  1119.37,1386.8 1126.3,1401.21 1133.24,1413.53 1140.17,1423.58 1147.1,1431.22 1154.03,1436.33 1160.96,1438.85 1167.89,1438.72 1174.82,1435.97 1181.75,1430.62 
  1188.68,1422.75 1195.61,1412.48 1202.54,1399.96 1209.47,1385.37 1216.4,1368.91 1223.33,1350.83 1230.26,1331.39 1237.19,1310.87 1244.12,1289.57 1251.05,1267.79 
  1257.98,344.47 1264.91,343.019 1271.84,342.538 1278.77,343.437 1285.7,345.819 1292.63,349.433 1299.56,353.705 1306.49,357.823 1313.42,360.876 1320.35,362.02 
  1327.28,360.646 1334.21,356.516 1341.14,349.852 1348.07,341.341 1355,332.075 1361.93,323.406 1368.86,316.754 1375.79,313.385 1382.73,314.192 1389.66,319.525 
  1396.59,329.084 1403.52,341.91 1410.45,356.469 1417.38,370.841 1424.31,382.967 1431.24,390.944 1438.17,393.314 1445.1,389.307 1452.03,379.001 1458.96,363.366 
  1465.89,344.19 1472.82,323.873 1479.75,305.132 1486.68,290.632 1493.61,282.615 1500.54,282.562 1507.47,290.942 1514.4,307.095 1521.33,329.26 1528.26,354.763 
  1535.19,380.335 1542.12,402.534 1549.05,418.207 1555.98,424.931 1562.91,421.381 1569.84,407.559 1576.77,384.852 1583.7,355.905 1590.63,324.315 1597.56,294.186 
  1604.49,269.597 1611.42,254.047 1618.35,249.966 1625.28,258.344 1632.22,278.544 1639.15,308.328 1646.08,344.096 1653.01,381.321 1659.94,415.12 1666.87,440.899 
  1673.8,454.968 1680.73,455.071 1687.66,440.73 1694.59,413.37 1701.52,376.186 1708.45,333.777 1715.38,291.577 1722.31,255.16 1729.24,229.503 1736.17,218.307 
  1743.1,223.471 1750.03,244.789 1756.96,279.914 1763.89,324.61 1770.82,373.262 1777.75,419.581 1784.68,457.412 1791.61,481.557 1798.54,488.485 1805.47,476.84 
  1812.4,447.675 1819.33,404.378 1826.26,352.278 1833.19,297.995 1840.12,248.597 1847.05,210.68 1853.98,189.488 1860.91,188.194 1867.84,207.427 1874.77,245.138 
  1881.71,296.807 1888.64,355.98 1895.57,415.073 1902.5,466.348 1909.43,502.924 1916.36,519.698 1923.29,514.055 1930.22,486.261 1937.15,439.493 1944.08,379.474 
  1951.01,313.784 1957.94,250.898 1964.87,199.089 1971.8,165.352 1978.73,154.446 1985.66,168.241 1992.59,205.408 1999.52,261.537 2006.45,329.654 2013.38,401.089 
  2020.31,466.574 2027.24,517.451 2034.17,546.814 2041.1,550.443 2048.03,527.405 2054.96,480.235 2061.89,414.665 2068.82,338.929 2075.75,262.733 2082.68,196.006 
  2089.61,147.611 2096.54,124.168 2103.47,129.148 2110.4,162.372 2117.33,219.97 2124.26,294.831 2131.19,377.475 2138.13,457.257 2145.06,523.732 2151.99,568.03 
  2158.92,584.034 2165.85,569.22 2172.78,525.043 2179.71,456.811 2186.64,373.046 2193.57,284.426 2200.5,202.416 2207.43,137.796 2214.36,99.2355 2221.29,92.1336 
  2228.22,117.871 2235.15,173.571 2242.08,252.408 2249.01,344.45 2255.94,437.904 2262.87,520.626 2269.8,581.703 2276.73,612.89 2283.66,609.718 2290.59,572.133 
  
  "/>
<path clip-path="url(#clip550)" d="
M229.49 250.738 L700.371 250.738 L700.371 95.2176 L229.49 95.2176  Z
  " fill="#ffffff" fill-rule="evenodd" fill-opacity="1"/>
<polyline clip-path="url(#clip550)" style="stroke:#000000; stroke-linecap:butt; stroke-linejoin:round; stroke-width:4; stroke-opacity:1; fill:none" points="
  229.49,250.738 700.371,250.738 700.371,95.2176 229.49,95.2176 229.49,250.738 
  "/>
<polyline clip-path="url(#clip550)" style="stroke:#009af9; stroke-linecap:butt; stroke-linejoin:round; stroke-width:4; stroke-opacity:1; fill:none" stroke-dasharray="2, 4" points="
  253.896,147.058 400.328,147.058 
  "/>
<path clip-path="url(#clip550)" d="M429.409 133.62 L429.409 146.606 L435.289 146.606 Q438.552 146.606 440.335 144.916 Q442.117 143.227 442.117 140.102 Q442.117 137 440.335 135.31 Q438.552 133.62 435.289 133.62 L429.409 133.62 M424.733 129.778 L435.289 129.778 Q441.099 129.778 444.062 132.416 Q447.048 135.032 447.048 140.102 Q447.048 145.217 444.062 147.833 Q441.099 150.449 435.289 150.449 L429.409 150.449 L429.409 164.338 L424.733 164.338 L424.733 129.778 Z" fill="#000000" fill-rule="evenodd" fill-opacity="1" /><path clip-path="url(#clip550)" d="M467.325 142.393 Q466.608 141.977 465.751 141.791 Q464.918 141.583 463.899 141.583 Q460.288 141.583 458.344 143.944 Q456.423 146.282 456.423 150.68 L456.423 164.338 L452.14 164.338 L452.14 138.412 L456.423 138.412 L456.423 142.44 Q457.765 140.078 459.918 138.944 Q462.071 137.787 465.149 137.787 Q465.589 137.787 466.122 137.856 Q466.654 137.903 467.302 138.018 L467.325 142.393 Z" fill="#000000" fill-rule="evenodd" fill-opacity="1" /><path clip-path="url(#clip550)" d="M492.927 150.31 L492.927 152.393 L473.344 152.393 Q473.622 156.791 475.983 159.106 Q478.367 161.398 482.603 161.398 Q485.057 161.398 487.348 160.796 Q489.663 160.194 491.932 158.99 L491.932 163.018 Q489.64 163.99 487.233 164.5 Q484.825 165.009 482.348 165.009 Q476.145 165.009 472.511 161.398 Q468.899 157.787 468.899 151.629 Q468.899 145.264 472.325 141.537 Q475.774 137.787 481.608 137.787 Q486.839 137.787 489.872 141.166 Q492.927 144.523 492.927 150.31 M488.668 149.06 Q488.622 145.565 486.7 143.481 Q484.802 141.398 481.654 141.398 Q478.089 141.398 475.936 143.412 Q473.807 145.426 473.483 149.083 L488.668 149.06 Z" fill="#000000" fill-rule="evenodd" fill-opacity="1" /><path clip-path="url(#clip550)" d="M516.978 142.347 L516.978 128.319 L521.237 128.319 L521.237 164.338 L516.978 164.338 L516.978 160.449 Q515.635 162.763 513.575 163.898 Q511.538 165.009 508.668 165.009 Q503.969 165.009 501.006 161.259 Q498.066 157.509 498.066 151.398 Q498.066 145.287 501.006 141.537 Q503.969 137.787 508.668 137.787 Q511.538 137.787 513.575 138.921 Q515.635 140.032 516.978 142.347 M502.464 151.398 Q502.464 156.097 504.385 158.782 Q506.33 161.444 509.709 161.444 Q513.089 161.444 515.033 158.782 Q516.978 156.097 516.978 151.398 Q516.978 146.699 515.033 144.037 Q513.089 141.352 509.709 141.352 Q506.33 141.352 504.385 144.037 Q502.464 146.699 502.464 151.398 Z" fill="#000000" fill-rule="evenodd" fill-opacity="1" /><path clip-path="url(#clip550)" d="M530.01 138.412 L534.269 138.412 L534.269 164.338 L530.01 164.338 L530.01 138.412 M530.01 128.319 L534.269 128.319 L534.269 133.713 L530.01 133.713 L530.01 128.319 Z" fill="#000000" fill-rule="evenodd" fill-opacity="1" /><path clip-path="url(#clip550)" d="M561.839 139.407 L561.839 143.389 Q560.033 142.393 558.205 141.907 Q556.399 141.398 554.547 141.398 Q550.404 141.398 548.112 144.037 Q545.82 146.652 545.82 151.398 Q545.82 156.143 548.112 158.782 Q550.404 161.398 554.547 161.398 Q556.399 161.398 558.205 160.912 Q560.033 160.402 561.839 159.407 L561.839 163.342 Q560.056 164.176 558.135 164.592 Q556.237 165.009 554.084 165.009 Q548.228 165.009 544.779 161.328 Q541.33 157.648 541.33 151.398 Q541.33 145.055 544.802 141.421 Q548.297 137.787 554.362 137.787 Q556.33 137.787 558.205 138.203 Q560.08 138.597 561.839 139.407 Z" fill="#000000" fill-rule="evenodd" fill-opacity="1" /><path clip-path="url(#clip550)" d="M573.459 131.051 L573.459 138.412 L582.232 138.412 L582.232 141.722 L573.459 141.722 L573.459 155.796 Q573.459 158.967 574.316 159.87 Q575.195 160.773 577.857 160.773 L582.232 160.773 L582.232 164.338 L577.857 164.338 Q572.927 164.338 571.052 162.509 Q569.177 160.657 569.177 155.796 L569.177 141.722 L566.052 141.722 L566.052 138.412 L569.177 138.412 L569.177 131.051 L573.459 131.051 Z" fill="#000000" fill-rule="evenodd" fill-opacity="1" /><path clip-path="url(#clip550)" d="M587.834 138.412 L592.093 138.412 L592.093 164.338 L587.834 164.338 L587.834 138.412 M587.834 128.319 L592.093 128.319 L592.093 133.713 L587.834 133.713 L587.834 128.319 Z" fill="#000000" fill-rule="evenodd" fill-opacity="1" /><path clip-path="url(#clip550)" d="M611.051 141.398 Q607.626 141.398 605.635 144.083 Q603.644 146.745 603.644 151.398 Q603.644 156.051 605.612 158.736 Q607.602 161.398 611.051 161.398 Q614.454 161.398 616.445 158.713 Q618.436 156.027 618.436 151.398 Q618.436 146.791 616.445 144.106 Q614.454 141.398 611.051 141.398 M611.051 137.787 Q616.607 137.787 619.778 141.398 Q622.95 145.009 622.95 151.398 Q622.95 157.764 619.778 161.398 Q616.607 165.009 611.051 165.009 Q605.473 165.009 602.302 161.398 Q599.153 157.764 599.153 151.398 Q599.153 145.009 602.302 141.398 Q605.473 137.787 611.051 137.787 Z" fill="#000000" fill-rule="evenodd" fill-opacity="1" /><path clip-path="url(#clip550)" d="M651.561 148.689 L651.561 164.338 L647.301 164.338 L647.301 148.828 Q647.301 145.148 645.866 143.319 Q644.431 141.49 641.561 141.49 Q638.112 141.49 636.121 143.69 Q634.13 145.889 634.13 149.685 L634.13 164.338 L629.848 164.338 L629.848 138.412 L634.13 138.412 L634.13 142.44 Q635.658 140.102 637.718 138.944 Q639.801 137.787 642.51 137.787 Q646.977 137.787 649.269 140.565 Q651.561 143.319 651.561 148.689 Z" fill="#000000" fill-rule="evenodd" fill-opacity="1" /><polyline clip-path="url(#clip550)" style="stroke:#e26f46; stroke-linecap:butt; stroke-linejoin:round; stroke-width:4; stroke-opacity:1; fill:none" points="
  253.896,198.898 400.328,198.898 
  "/>
<path clip-path="url(#clip550)" d="M424.733 181.618 L446.585 181.618 L446.585 185.553 L429.409 185.553 L429.409 195.784 L445.867 195.784 L445.867 199.719 L429.409 199.719 L429.409 212.242 L447.001 212.242 L447.001 216.178 L424.733 216.178 L424.733 181.618 Z" fill="#000000" fill-rule="evenodd" fill-opacity="1" /><path clip-path="url(#clip550)" d="M476.052 190.252 L466.677 202.867 L476.538 216.178 L471.515 216.178 L463.969 205.992 L456.423 216.178 L451.4 216.178 L461.469 202.613 L452.256 190.252 L457.279 190.252 L464.154 199.488 L471.029 190.252 L476.052 190.252 Z" fill="#000000" fill-rule="evenodd" fill-opacity="1" /><path clip-path="url(#clip550)" d="M494.339 203.145 Q489.177 203.145 487.186 204.326 Q485.196 205.506 485.196 208.354 Q485.196 210.622 486.677 211.965 Q488.182 213.284 490.751 213.284 Q494.293 213.284 496.422 210.784 Q498.575 208.261 498.575 204.094 L498.575 203.145 L494.339 203.145 M502.834 201.386 L502.834 216.178 L498.575 216.178 L498.575 212.242 Q497.117 214.603 494.941 215.738 Q492.765 216.849 489.617 216.849 Q485.635 216.849 483.274 214.627 Q480.936 212.381 480.936 208.631 Q480.936 204.256 483.853 202.034 Q486.793 199.812 492.603 199.812 L498.575 199.812 L498.575 199.395 Q498.575 196.455 496.631 194.858 Q494.71 193.238 491.214 193.238 Q488.992 193.238 486.885 193.77 Q484.779 194.303 482.835 195.367 L482.835 191.432 Q485.173 190.53 487.372 190.09 Q489.571 189.627 491.654 189.627 Q497.279 189.627 500.057 192.543 Q502.834 195.46 502.834 201.386 Z" fill="#000000" fill-rule="evenodd" fill-opacity="1" /><path clip-path="url(#clip550)" d="M530.265 191.247 L530.265 195.229 Q528.459 194.233 526.631 193.747 Q524.825 193.238 522.973 193.238 Q518.83 193.238 516.538 195.877 Q514.246 198.492 514.246 203.238 Q514.246 207.983 516.538 210.622 Q518.83 213.238 522.973 213.238 Q524.825 213.238 526.631 212.752 Q528.459 212.242 530.265 211.247 L530.265 215.182 Q528.482 216.016 526.561 216.432 Q524.663 216.849 522.51 216.849 Q516.654 216.849 513.205 213.168 Q509.756 209.488 509.756 203.238 Q509.756 196.895 513.228 193.261 Q516.723 189.627 522.788 189.627 Q524.756 189.627 526.631 190.043 Q528.506 190.437 530.265 191.247 Z" fill="#000000" fill-rule="evenodd" fill-opacity="1" /><path clip-path="url(#clip550)" d="M541.885 182.891 L541.885 190.252 L550.658 190.252 L550.658 193.562 L541.885 193.562 L541.885 207.636 Q541.885 210.807 542.742 211.71 Q543.621 212.613 546.283 212.613 L550.658 212.613 L550.658 216.178 L546.283 216.178 Q541.353 216.178 539.478 214.349 Q537.603 212.497 537.603 207.636 L537.603 193.562 L534.478 193.562 L534.478 190.252 L537.603 190.252 L537.603 182.891 L541.885 182.891 Z" fill="#000000" fill-rule="evenodd" fill-opacity="1" /></svg>
