<?xml version="1.0" encoding="utf-8"?>
<svg xmlns="http://www.w3.org/2000/svg" xmlns:xlink="http://www.w3.org/1999/xlink" width="600" height="400" viewBox="0 0 2400 1600">
<defs>
  <clipPath id="clip010">
    <rect x="0" y="0" width="2400" height="1600"/>
  </clipPath>
</defs>
<path clip-path="url(#clip010)" d="M0 1600 L2400 1600 L2400 0 L0 0  Z" fill="#ffffff" fill-rule="evenodd" fill-opacity="1"/>
<defs>
  <clipPath id="clip011">
    <rect x="480" y="0" width="1681" height="1600"/>
  </clipPath>
</defs>
<path clip-path="url(#clip010)" d="M156.274 1486.45 L2352.76 1486.45 L2352.76 47.2441 L156.274 47.2441  Z" fill="#ffffff" fill-rule="evenodd" fill-opacity="1"/>
<defs>
  <clipPath id="clip012">
    <rect x="156" y="47" width="2197" height="1440"/>
  </clipPath>
</defs>
<polyline clip-path="url(#clip012)" style="stroke:#000000; stroke-linecap:round; stroke-linejoin:round; stroke-width:2; stroke-opacity:0.1; fill:none" points="218.439,1486.45 218.439,47.2441 "/>
<polyline clip-path="url(#clip012)" style="stroke:#000000; stroke-linecap:round; stroke-linejoin:round; stroke-width:2; stroke-opacity:0.1; fill:none" points="736.477,1486.45 736.477,47.2441 "/>
<polyline clip-path="url(#clip012)" style="stroke:#000000; stroke-linecap:round; stroke-linejoin:round; stroke-width:2; stroke-opacity:0.1; fill:none" points="1254.52,1486.45 1254.52,47.2441 "/>
<polyline clip-path="url(#clip012)" style="stroke:#000000; stroke-linecap:round; stroke-linejoin:round; stroke-width:2; stroke-opacity:0.1; fill:none" points="1772.55,1486.45 1772.55,47.2441 "/>
<polyline clip-path="url(#clip012)" style="stroke:#000000; stroke-linecap:round; stroke-linejoin:round; stroke-width:2; stroke-opacity:0.1; fill:none" points="2290.59,1486.45 2290.59,47.2441 "/>
<polyline clip-path="url(#clip010)" style="stroke:#000000; stroke-linecap:round; stroke-linejoin:round; stroke-width:4; stroke-opacity:1; fill:none" points="156.274,1486.45 2352.76,1486.45 "/>
<polyline clip-path="url(#clip010)" style="stroke:#000000; stroke-linecap:round; stroke-linejoin:round; stroke-width:4; stroke-opacity:1; fill:none" points="218.439,1486.45 218.439,1467.55 "/>
<polyline clip-path="url(#clip010)" style="stroke:#000000; stroke-linecap:round; stroke-linejoin:round; stroke-width:4; stroke-opacity:1; fill:none" points="736.477,1486.45 736.477,1467.55 "/>
<polyline clip-path="url(#clip010)" style="stroke:#000000; stroke-linecap:round; stroke-linejoin:round; stroke-width:4; stroke-opacity:1; fill:none" points="1254.52,1486.45 1254.52,1467.55 "/>
<polyline clip-path="url(#clip010)" style="stroke:#000000; stroke-linecap:round; stroke-linejoin:round; stroke-width:4; stroke-opacity:1; fill:none" points="1772.55,1486.45 1772.55,1467.55 "/>
<polyline clip-path="url(#clip010)" style="stroke:#000000; stroke-linecap:round; stroke-linejoin:round; stroke-width:4; stroke-opacity:1; fill:none" points="2290.59,1486.45 2290.59,1467.55 "/>
<path clip-path="url(#clip010)" d="M164.967 1532.02 L194.643 1532.02 L194.643 1535.95 L164.967 1535.95 L164.967 1532.02 Z" fill="#000000" fill-rule="nonzero" fill-opacity="1" /><path clip-path="url(#clip010)" d="M205.545 1544.91 L213.184 1544.91 L213.184 1518.55 L204.874 1520.21 L204.874 1515.95 L213.138 1514.29 L217.814 1514.29 L217.814 1544.91 L225.453 1544.91 L225.453 1548.85 L205.545 1548.85 L205.545 1544.91 Z" fill="#000000" fill-rule="nonzero" fill-opacity="1" /><path clip-path="url(#clip010)" d="M234.897 1542.97 L239.781 1542.97 L239.781 1548.85 L234.897 1548.85 L234.897 1542.97 Z" fill="#000000" fill-rule="nonzero" fill-opacity="1" /><path clip-path="url(#clip010)" d="M259.966 1517.37 Q256.355 1517.37 254.527 1520.93 Q252.721 1524.47 252.721 1531.6 Q252.721 1538.71 254.527 1542.27 Q256.355 1545.82 259.966 1545.82 Q263.601 1545.82 265.406 1542.27 Q267.235 1538.71 267.235 1531.6 Q267.235 1524.47 265.406 1520.93 Q263.601 1517.37 259.966 1517.37 M259.966 1513.66 Q265.776 1513.66 268.832 1518.27 Q271.911 1522.85 271.911 1531.6 Q271.911 1540.33 268.832 1544.94 Q265.776 1549.52 259.966 1549.52 Q254.156 1549.52 251.077 1544.94 Q248.022 1540.33 248.022 1531.6 Q248.022 1522.85 251.077 1518.27 Q254.156 1513.66 259.966 1513.66 Z" fill="#000000" fill-rule="nonzero" fill-opacity="1" /><path clip-path="url(#clip010)" d="M683.503 1532.02 L713.178 1532.02 L713.178 1535.95 L683.503 1535.95 L683.503 1532.02 Z" fill="#000000" fill-rule="nonzero" fill-opacity="1" /><path clip-path="url(#clip010)" d="M733.271 1517.37 Q729.66 1517.37 727.831 1520.93 Q726.026 1524.47 726.026 1531.6 Q726.026 1538.71 727.831 1542.27 Q729.66 1545.82 733.271 1545.82 Q736.905 1545.82 738.711 1542.27 Q740.539 1538.71 740.539 1531.6 Q740.539 1524.47 738.711 1520.93 Q736.905 1517.37 733.271 1517.37 M733.271 1513.66 Q739.081 1513.66 742.137 1518.27 Q745.215 1522.85 745.215 1531.6 Q745.215 1540.33 742.137 1544.94 Q739.081 1549.52 733.271 1549.52 Q727.461 1549.52 724.382 1544.94 Q721.327 1540.33 721.327 1531.6 Q721.327 1522.85 724.382 1518.27 Q727.461 1513.66 733.271 1513.66 Z" fill="#000000" fill-rule="nonzero" fill-opacity="1" /><path clip-path="url(#clip010)" d="M753.433 1542.97 L758.317 1542.97 L758.317 1548.85 L753.433 1548.85 L753.433 1542.97 Z" fill="#000000" fill-rule="nonzero" fill-opacity="1" /><path clip-path="url(#clip010)" d="M768.548 1514.29 L786.905 1514.29 L786.905 1518.22 L772.831 1518.22 L772.831 1526.7 Q773.849 1526.35 774.868 1526.19 Q775.886 1526 776.905 1526 Q782.692 1526 786.072 1529.17 Q789.451 1532.34 789.451 1537.76 Q789.451 1543.34 785.979 1546.44 Q782.507 1549.52 776.187 1549.52 Q774.011 1549.52 771.743 1549.15 Q769.498 1548.78 767.09 1548.04 L767.09 1543.34 Q769.173 1544.47 771.396 1545.03 Q773.618 1545.58 776.095 1545.58 Q780.099 1545.58 782.437 1543.48 Q784.775 1541.37 784.775 1537.76 Q784.775 1534.15 782.437 1532.04 Q780.099 1529.94 776.095 1529.94 Q774.22 1529.94 772.345 1530.35 Q770.493 1530.77 768.548 1531.65 L768.548 1514.29 Z" fill="#000000" fill-rule="nonzero" fill-opacity="1" /><path clip-path="url(#clip010)" d="M1231.9 1517.37 Q1228.29 1517.37 1226.46 1520.93 Q1224.65 1524.47 1224.65 1531.6 Q1224.65 1538.71 1226.46 1542.27 Q1228.29 1545.82 1231.9 1545.82 Q1235.53 1545.82 1237.34 1542.27 Q1239.17 1538.71 1239.17 1531.6 Q1239.17 1524.47 1237.34 1520.93 Q1235.53 1517.37 1231.9 1517.37 M1231.9 1513.66 Q1237.71 1513.66 1240.77 1518.27 Q1243.84 1522.85 1243.84 1531.6 Q1243.84 1540.33 1240.77 1544.94 Q1237.71 1549.52 1231.9 1549.52 Q1226.09 1549.52 1223.01 1544.94 Q1219.96 1540.33 1219.96 1531.6 Q1219.96 1522.85 1223.01 1518.27 Q1226.09 1513.66 1231.9 1513.66 Z" fill="#000000" fill-rule="nonzero" fill-opacity="1" /><path clip-path="url(#clip010)" d="M1252.06 1542.97 L1256.95 1542.97 L1256.95 1548.85 L1252.06 1548.85 L1252.06 1542.97 Z" fill="#000000" fill-rule="nonzero" fill-opacity="1" /><path clip-path="url(#clip010)" d="M1277.13 1517.37 Q1273.52 1517.37 1271.69 1520.93 Q1269.89 1524.47 1269.89 1531.6 Q1269.89 1538.71 1271.69 1542.27 Q1273.52 1545.82 1277.13 1545.82 Q1280.76 1545.82 1282.57 1542.27 Q1284.4 1538.71 1284.4 1531.6 Q1284.4 1524.47 1282.57 1520.93 Q1280.76 1517.37 1277.13 1517.37 M1277.13 1513.66 Q1282.94 1513.66 1286 1518.27 Q1289.08 1522.85 1289.08 1531.6 Q1289.08 1540.33 1286 1544.94 Q1282.94 1549.52 1277.13 1549.52 Q1271.32 1549.52 1268.24 1544.94 Q1265.19 1540.33 1265.19 1531.6 Q1265.19 1522.85 1268.24 1518.27 Q1271.32 1513.66 1277.13 1513.66 Z" fill="#000000" fill-rule="nonzero" fill-opacity="1" /><path clip-path="url(#clip010)" d="M1750.44 1517.37 Q1746.82 1517.37 1745 1520.93 Q1743.19 1524.47 1743.19 1531.6 Q1743.19 1538.71 1745 1542.27 Q1746.82 1545.82 1750.44 1545.82 Q1754.07 1545.82 1755.88 1542.27 Q1757.7 1538.71 1757.7 1531.6 Q1757.7 1524.47 1755.88 1520.93 Q1754.07 1517.37 1750.44 1517.37 M1750.44 1513.66 Q1756.25 1513.66 1759.3 1518.27 Q1762.38 1522.85 1762.38 1531.6 Q1762.38 1540.33 1759.3 1544.94 Q1756.25 1549.52 1750.44 1549.52 Q1744.63 1549.52 1741.55 1544.94 Q1738.49 1540.33 1738.49 1531.6 Q1738.49 1522.85 1741.55 1518.27 Q1744.63 1513.66 1750.44 1513.66 Z" fill="#000000" fill-rule="nonzero" fill-opacity="1" /><path clip-path="url(#clip010)" d="M1770.6 1542.97 L1775.48 1542.97 L1775.48 1548.85 L1770.6 1548.85 L1770.6 1542.97 Z" fill="#000000" fill-rule="nonzero" fill-opacity="1" /><path clip-path="url(#clip010)" d="M1785.71 1514.29 L1804.07 1514.29 L1804.07 1518.22 L1790 1518.22 L1790 1526.7 Q1791.01 1526.35 1792.03 1526.19 Q1793.05 1526 1794.07 1526 Q1799.86 1526 1803.24 1529.17 Q1806.62 1532.34 1806.62 1537.76 Q1806.62 1543.34 1803.14 1546.44 Q1799.67 1549.52 1793.35 1549.52 Q1791.18 1549.52 1788.91 1549.15 Q1786.66 1548.78 1784.25 1548.04 L1784.25 1543.34 Q1786.34 1544.47 1788.56 1545.03 Q1790.78 1545.58 1793.26 1545.58 Q1797.26 1545.58 1799.6 1543.48 Q1801.94 1541.37 1801.94 1537.76 Q1801.94 1534.15 1799.6 1532.04 Q1797.26 1529.94 1793.26 1529.94 Q1791.38 1529.94 1789.51 1530.35 Q1787.66 1530.77 1785.71 1531.65 L1785.71 1514.29 Z" fill="#000000" fill-rule="nonzero" fill-opacity="1" /><path clip-path="url(#clip010)" d="M2257.74 1544.91 L2265.38 1544.91 L2265.38 1518.55 L2257.07 1520.21 L2257.07 1515.95 L2265.34 1514.29 L2270.01 1514.29 L2270.01 1544.91 L2277.65 1544.91 L2277.65 1548.85 L2257.74 1548.85 L2257.74 1544.91 Z" fill="#000000" fill-rule="nonzero" fill-opacity="1" /><path clip-path="url(#clip010)" d="M2287.1 1542.97 L2291.98 1542.97 L2291.98 1548.85 L2287.1 1548.85 L2287.1 1542.97 Z" fill="#000000" fill-rule="nonzero" fill-opacity="1" /><path clip-path="url(#clip010)" d="M2312.17 1517.37 Q2308.55 1517.37 2306.73 1520.93 Q2304.92 1524.47 2304.92 1531.6 Q2304.92 1538.71 2306.73 1542.27 Q2308.55 1545.82 2312.17 1545.82 Q2315.8 1545.82 2317.61 1542.27 Q2319.43 1538.71 2319.43 1531.6 Q2319.43 1524.47 2317.61 1520.93 Q2315.8 1517.37 2312.17 1517.37 M2312.17 1513.66 Q2317.98 1513.66 2321.03 1518.27 Q2324.11 1522.85 2324.11 1531.6 Q2324.11 1540.33 2321.03 1544.94 Q2317.98 1549.52 2312.17 1549.52 Q2306.36 1549.52 2303.28 1544.94 Q2300.22 1540.33 2300.22 1531.6 Q2300.22 1522.85 2303.28 1518.27 Q2306.36 1513.66 2312.17 1513.66 Z" fill="#000000" fill-rule="nonzero" fill-opacity="1" /><polyline clip-path="url(#clip012)" style="stroke:#000000; stroke-linecap:round; stroke-linejoin:round; stroke-width:2; stroke-opacity:0.1; fill:none" points="156.274,1245.73 2352.76,1245.73 "/>
<polyline clip-path="url(#clip012)" style="stroke:#000000; stroke-linecap:round; stroke-linejoin:round; stroke-width:2; stroke-opacity:0.1; fill:none" points="156.274,974.02 2352.76,974.02 "/>
<polyline clip-path="url(#clip012)" style="stroke:#000000; stroke-linecap:round; stroke-linejoin:round; stroke-width:2; stroke-opacity:0.1; fill:none" points="156.274,702.315 2352.76,702.315 "/>
<polyline clip-path="url(#clip012)" style="stroke:#000000; stroke-linecap:round; stroke-linejoin:round; stroke-width:2; stroke-opacity:0.1; fill:none" points="156.274,430.61 2352.76,430.61 "/>
<polyline clip-path="url(#clip012)" style="stroke:#000000; stroke-linecap:round; stroke-linejoin:round; stroke-width:2; stroke-opacity:0.1; fill:none" points="156.274,158.905 2352.76,158.905 "/>
<polyline clip-path="url(#clip010)" style="stroke:#000000; stroke-linecap:round; stroke-linejoin:round; stroke-width:4; stroke-opacity:1; fill:none" points="156.274,1486.45 156.274,47.2441 "/>
<polyline clip-path="url(#clip010)" style="stroke:#000000; stroke-linecap:round; stroke-linejoin:round; stroke-width:4; stroke-opacity:1; fill:none" points="156.274,1245.73 175.172,1245.73 "/>
<polyline clip-path="url(#clip010)" style="stroke:#000000; stroke-linecap:round; stroke-linejoin:round; stroke-width:4; stroke-opacity:1; fill:none" points="156.274,974.02 175.172,974.02 "/>
<polyline clip-path="url(#clip010)" style="stroke:#000000; stroke-linecap:round; stroke-linejoin:round; stroke-width:4; stroke-opacity:1; fill:none" points="156.274,702.315 175.172,702.315 "/>
<polyline clip-path="url(#clip010)" style="stroke:#000000; stroke-linecap:round; stroke-linejoin:round; stroke-width:4; stroke-opacity:1; fill:none" points="156.274,430.61 175.172,430.61 "/>
<polyline clip-path="url(#clip010)" style="stroke:#000000; stroke-linecap:round; stroke-linejoin:round; stroke-width:4; stroke-opacity:1; fill:none" points="156.274,158.905 175.172,158.905 "/>
<path clip-path="url(#clip010)" d="M63.0985 1231.52 Q59.4875 1231.52 57.6588 1235.09 Q55.8532 1238.63 55.8532 1245.76 Q55.8532 1252.87 57.6588 1256.43 Q59.4875 1259.97 63.0985 1259.97 Q66.7328 1259.97 68.5383 1256.43 Q70.367 1252.87 70.367 1245.76 Q70.367 1238.63 68.5383 1235.09 Q66.7328 1231.52 63.0985 1231.52 M63.0985 1227.82 Q68.9087 1227.82 71.9642 1232.43 Q75.0429 1237.01 75.0429 1245.76 Q75.0429 1254.49 71.9642 1259.09 Q68.9087 1263.68 63.0985 1263.68 Q57.2884 1263.68 54.2097 1259.09 Q51.1542 1254.49 51.1542 1245.76 Q51.1542 1237.01 54.2097 1232.43 Q57.2884 1227.82 63.0985 1227.82 Z" fill="#000000" fill-rule="nonzero" fill-opacity="1" /><path clip-path="url(#clip010)" d="M83.2605 1257.13 L88.1447 1257.13 L88.1447 1263.01 L83.2605 1263.01 L83.2605 1257.13 Z" fill="#000000" fill-rule="nonzero" fill-opacity="1" /><path clip-path="url(#clip010)" d="M108.33 1231.52 Q104.719 1231.52 102.89 1235.09 Q101.084 1238.63 101.084 1245.76 Q101.084 1252.87 102.89 1256.43 Q104.719 1259.97 108.33 1259.97 Q111.964 1259.97 113.77 1256.43 Q115.598 1252.87 115.598 1245.76 Q115.598 1238.63 113.77 1235.09 Q111.964 1231.52 108.33 1231.52 M108.33 1227.82 Q114.14 1227.82 117.195 1232.43 Q120.274 1237.01 120.274 1245.76 Q120.274 1254.49 117.195 1259.09 Q114.14 1263.68 108.33 1263.68 Q102.52 1263.68 99.4409 1259.09 Q96.3854 1254.49 96.3854 1245.76 Q96.3854 1237.01 99.4409 1232.43 Q102.52 1227.82 108.33 1227.82 Z" fill="#000000" fill-rule="nonzero" fill-opacity="1" /><path clip-path="url(#clip010)" d="M63.7467 959.819 Q60.1356 959.819 58.3069 963.384 Q56.5014 966.925 56.5014 974.055 Q56.5014 981.161 58.3069 984.726 Q60.1356 988.268 63.7467 988.268 Q67.3809 988.268 69.1865 984.726 Q71.0152 981.161 71.0152 974.055 Q71.0152 966.925 69.1865 963.384 Q67.3809 959.819 63.7467 959.819 M63.7467 956.115 Q69.5568 956.115 72.6124 960.722 Q75.6911 965.305 75.6911 974.055 Q75.6911 982.782 72.6124 987.388 Q69.5568 991.972 63.7467 991.972 Q57.9365 991.972 54.8578 987.388 Q51.8023 982.782 51.8023 974.055 Q51.8023 965.305 54.8578 960.722 Q57.9365 956.115 63.7467 956.115 Z" fill="#000000" fill-rule="nonzero" fill-opacity="1" /><path clip-path="url(#clip010)" d="M83.9086 985.421 L88.7928 985.421 L88.7928 991.3 L83.9086 991.3 L83.9086 985.421 Z" fill="#000000" fill-rule="nonzero" fill-opacity="1" /><path clip-path="url(#clip010)" d="M113.145 972.666 Q116.501 973.384 118.376 975.652 Q120.274 977.921 120.274 981.254 Q120.274 986.37 116.756 989.171 Q113.237 991.972 106.756 991.972 Q104.58 991.972 102.265 991.532 Q99.9733 991.115 97.5197 990.259 L97.5197 985.745 Q99.4641 986.879 101.779 987.458 Q104.094 988.036 106.617 988.036 Q111.015 988.036 113.307 986.3 Q115.621 984.564 115.621 981.254 Q115.621 978.198 113.469 976.485 Q111.339 974.749 107.52 974.749 L103.492 974.749 L103.492 970.907 L107.705 970.907 Q111.154 970.907 112.983 969.541 Q114.811 968.152 114.811 965.56 Q114.811 962.898 112.913 961.486 Q111.038 960.05 107.52 960.05 Q105.598 960.05 103.399 960.467 Q101.2 960.884 98.5613 961.763 L98.5613 957.597 Q101.223 956.856 103.538 956.486 Q105.876 956.115 107.936 956.115 Q113.26 956.115 116.362 958.546 Q119.464 960.953 119.464 965.074 Q119.464 967.944 117.82 969.935 Q116.177 971.902 113.145 972.666 Z" fill="#000000" fill-rule="nonzero" fill-opacity="1" /><path clip-path="url(#clip010)" d="M62.9365 688.114 Q59.3254 688.114 57.4967 691.679 Q55.6912 695.22 55.6912 702.35 Q55.6912 709.456 57.4967 713.021 Q59.3254 716.563 62.9365 716.563 Q66.5707 716.563 68.3763 713.021 Q70.205 709.456 70.205 702.35 Q70.205 695.22 68.3763 691.679 Q66.5707 688.114 62.9365 688.114 M62.9365 684.41 Q68.7467 684.41 71.8022 689.017 Q74.8809 693.6 74.8809 702.35 Q74.8809 711.077 71.8022 715.683 Q68.7467 720.266 62.9365 720.266 Q57.1264 720.266 54.0477 715.683 Q50.9921 711.077 50.9921 702.35 Q50.9921 693.6 54.0477 689.017 Q57.1264 684.41 62.9365 684.41 Z" fill="#000000" fill-rule="nonzero" fill-opacity="1" /><path clip-path="url(#clip010)" d="M83.0984 713.715 L87.9827 713.715 L87.9827 719.595 L83.0984 719.595 L83.0984 713.715 Z" fill="#000000" fill-rule="nonzero" fill-opacity="1" /><path clip-path="url(#clip010)" d="M108.746 700.452 Q105.598 700.452 103.746 702.604 Q101.918 704.757 101.918 708.507 Q101.918 712.234 103.746 714.41 Q105.598 716.563 108.746 716.563 Q111.895 716.563 113.723 714.41 Q115.575 712.234 115.575 708.507 Q115.575 704.757 113.723 702.604 Q111.895 700.452 108.746 700.452 M118.029 685.799 L118.029 690.058 Q116.27 689.225 114.464 688.785 Q112.682 688.345 110.922 688.345 Q106.293 688.345 103.839 691.47 Q101.409 694.595 101.061 700.915 Q102.427 698.901 104.487 697.836 Q106.547 696.748 109.024 696.748 Q114.233 696.748 117.242 699.919 Q120.274 703.067 120.274 708.507 Q120.274 713.831 117.126 717.049 Q113.978 720.266 108.746 720.266 Q102.751 720.266 99.5798 715.683 Q96.4085 711.077 96.4085 702.35 Q96.4085 694.155 100.297 689.294 Q104.186 684.41 110.737 684.41 Q112.496 684.41 114.279 684.757 Q116.084 685.105 118.029 685.799 Z" fill="#000000" fill-rule="nonzero" fill-opacity="1" /><path clip-path="url(#clip010)" d="M63.2837 416.409 Q59.6726 416.409 57.8439 419.973 Q56.0384 423.515 56.0384 430.645 Q56.0384 437.751 57.8439 441.316 Q59.6726 444.858 63.2837 444.858 Q66.918 444.858 68.7235 441.316 Q70.5522 437.751 70.5522 430.645 Q70.5522 423.515 68.7235 419.973 Q66.918 416.409 63.2837 416.409 M63.2837 412.705 Q69.0939 412.705 72.1494 417.311 Q75.2281 421.895 75.2281 430.645 Q75.2281 439.371 72.1494 443.978 Q69.0939 448.561 63.2837 448.561 Q57.4736 448.561 54.3949 443.978 Q51.3393 439.371 51.3393 430.645 Q51.3393 421.895 54.3949 417.311 Q57.4736 412.705 63.2837 412.705 Z" fill="#000000" fill-rule="nonzero" fill-opacity="1" /><path clip-path="url(#clip010)" d="M83.4457 442.01 L88.3299 442.01 L88.3299 447.89 L83.4457 447.89 L83.4457 442.01 Z" fill="#000000" fill-rule="nonzero" fill-opacity="1" /><path clip-path="url(#clip010)" d="M98.6539 447.172 L98.6539 442.913 Q100.413 443.746 102.219 444.186 Q104.024 444.626 105.76 444.626 Q110.39 444.626 112.82 441.524 Q115.274 438.399 115.621 432.057 Q114.279 434.047 112.219 435.112 Q110.158 436.177 107.658 436.177 Q102.473 436.177 99.4409 433.052 Q96.4317 429.904 96.4317 424.464 Q96.4317 419.14 99.5798 415.923 Q102.728 412.705 107.959 412.705 Q113.955 412.705 117.103 417.311 Q120.274 421.895 120.274 430.645 Q120.274 438.816 116.385 443.7 Q112.52 448.561 105.969 448.561 Q104.209 448.561 102.404 448.214 Q100.598 447.867 98.6539 447.172 M107.959 432.52 Q111.108 432.52 112.936 430.367 Q114.788 428.214 114.788 424.464 Q114.788 420.737 112.936 418.585 Q111.108 416.409 107.959 416.409 Q104.811 416.409 102.959 418.585 Q101.131 420.737 101.131 424.464 Q101.131 428.214 102.959 430.367 Q104.811 432.52 107.959 432.52 Z" fill="#000000" fill-rule="nonzero" fill-opacity="1" /><path clip-path="url(#clip010)" d="M55.506 172.25 L63.1448 172.25 L63.1448 145.884 L54.8347 147.551 L54.8347 143.291 L63.0985 141.625 L67.7744 141.625 L67.7744 172.25 L75.4133 172.25 L75.4133 176.185 L55.506 176.185 L55.506 172.25 Z" fill="#000000" fill-rule="nonzero" fill-opacity="1" /><path clip-path="url(#clip010)" d="M84.8577 170.305 L89.7419 170.305 L89.7419 176.185 L84.8577 176.185 L84.8577 170.305 Z" fill="#000000" fill-rule="nonzero" fill-opacity="1" /><path clip-path="url(#clip010)" d="M103.955 172.25 L120.274 172.25 L120.274 176.185 L98.3298 176.185 L98.3298 172.25 Q100.992 169.495 105.575 164.865 Q110.182 160.213 111.362 158.87 Q113.608 156.347 114.487 154.611 Q115.39 152.852 115.39 151.162 Q115.39 148.407 113.445 146.671 Q111.524 144.935 108.422 144.935 Q106.223 144.935 103.77 145.699 Q101.339 146.463 98.5613 148.014 L98.5613 143.291 Q101.385 142.157 103.839 141.579 Q106.293 141 108.33 141 Q113.7 141 116.895 143.685 Q120.089 146.37 120.089 150.861 Q120.089 152.991 119.279 154.912 Q118.492 156.81 116.385 159.403 Q115.807 160.074 112.705 163.291 Q109.603 166.486 103.955 172.25 Z" fill="#000000" fill-rule="nonzero" fill-opacity="1" /><polyline clip-path="url(#clip012)" style="stroke:#009af9; stroke-linecap:round; stroke-linejoin:round; stroke-width:16; stroke-opacity:1; fill:none" stroke-dasharray="8, 16" points="218.439,1204.4 228.852,1204.4 239.264,1204.4 249.677,1204.39 260.09,1204.39 270.503,1204.39 280.916,1204.39 291.329,1204.39 301.741,1204.39 312.154,1204.39 322.567,1204.39 332.98,1204.39 343.393,1204.39 353.805,1204.39 364.218,1204.39 374.631,1204.39 385.044,1204.38 395.457,1204.38 405.87,1204.38 416.282,1204.38 426.695,1204.38 437.108,1204.38 447.521,1204.38 457.934,1204.38 468.347,1204.38 478.759,1204.38 489.172,1204.38 499.585,1204.38 509.998,1204.38 520.411,1204.38 530.824,1204.37 541.236,1204.37 551.649,1204.37 562.062,1204.37 572.475,1204.37 582.888,1204.37 593.301,1204.37 603.713,1204.37 614.126,1204.37 624.539,1204.37 634.952,1204.37 645.365,1204.37 655.777,1204.37 666.19,1204.36 676.603,1204.36 687.016,1213.75 697.429,1235.94 707.842,1258.13 718.254,1280.32 728.667,1302.51 739.08,1324.7 749.493,1346.9 759.906,1369.09 770.319,1386.52 780.731,1400.32 791.144,1414.12 801.557,1427.92 811.97,1441.73 822.383,1445.72 832.796,1415.89 843.208,1386.06 853.621,1356.23 864.034,1326.41 874.447,1296.58 884.86,1265.82 895.273,1234.87 905.685,1203.92 916.098,1173.19 926.511,1142.93 936.924,1118.27 947.337,1104.85 957.749,1090.77 968.162,1076.98 978.575,1065.26 988.988,1052.15 999.401,1050.59 1009.81,1072.86 1020.23,1100.15 1030.64,1127.57 1041.05,1154.99 1051.46,1182.41 1061.88,1210.45 1072.29,1240.68 1082.7,1272.4 1093.12,1304.06 1103.53,1335.29 1113.94,1365.95 1124.35,1390.22 1134.77,1406.11 1145.18,1416.45 1155.59,1423.87 1166.01,1427.9 1176.42,1420.78 1186.83,1410.68 1197.24,1406.77 1207.66,1411.83 1218.07,1406.19 1228.48,1362.41 1238.9,1225.43 1249.31,976.758 1259.72,719.995 1270.13,454.492 1280.55,306.999 1290.96,279.285 1301.37,301.021 1311.79,335.803 1322.2,377.62 1332.61,431.161 1343.02,387.927 1353.44,343.398 1363.85,319.572 1374.26,321.081 1384.68,324.01 1395.09,329.497 1405.5,336.425 1415.91,343.353 1426.33,350.281 1436.74,358.011 1447.15,357.069 1457.57,352.17 1467.98,347.271 1478.39,342.372 1488.8,338.253 1499.22,338.402 1509.63,338.55 1520.04,338.699 1530.45,338.848 1540.87,338.996 1551.28,339.145 1561.69,339.293 1572.11,339.442 1582.52,339.59 1592.93,339.739 1603.34,339.888 1613.76,340.036 1624.17,340.185 1634.58,340.333 1645,340.482 1655.41,340.63 1665.82,339.748 1676.23,336.965 1686.65,334.181 1697.06,331.398 1707.47,328.614 1717.89,325.831 1728.3,323.048 1738.71,320.264 1749.12,320.544 1759.54,321.683 1769.95,322.821 1780.36,323.96 1790.78,325.098 1801.19,326.236 1811.6,327.375 1822.01,328.513 1832.43,329.652 1842.84,330.79 1853.25,331.929 1863.67,333.067 1874.08,334.206 1884.49,335.344 1894.9,336.482 1905.32,337.621 1915.73,338.759 1926.14,339.898 1936.56,341.036 1946.97,342.174 1957.38,343.313 1967.79,344.451 1978.21,345.59 1988.62,346.728 1999.03,347.867 2009.45,349.005 2019.86,350.143 2030.27,351.282 2040.68,352.42 2051.1,353.559 2061.51,354.697 2071.92,355.836 2082.33,356.974 2092.75,358.112 2103.16,359.251 2113.57,360.389 2123.99,361.528 2134.4,362.666 2144.81,363.805 2155.22,364.943 2165.64,366.081 2176.05,367.22 2186.46,368.358 2196.88,369.496 2207.29,370.635 2217.7,371.774 2228.11,372.911 2238.53,374.05 2248.94,375.189 2259.35,376.327 2269.77,377.465 2280.18,378.604 2290.59,379.742 "/>
<polyline clip-path="url(#clip012)" style="stroke:#e26f46; stroke-linecap:round; stroke-linejoin:round; stroke-width:4; stroke-opacity:1; fill:none" points="218.439,1109.69 228.852,1090.39 239.264,1076.16 249.677,1067.47 260.09,1064.59 270.503,1067.62 280.916,1076.47 291.329,1090.84 301.741,1110.26 312.154,1134.11 322.567,1161.6 332.98,1191.83 343.393,1223.83 353.805,1256.54 364.218,1288.89 374.631,1319.84 385.044,1348.37 395.457,1373.54 405.87,1394.55 416.282,1410.7 426.695,1421.46 437.108,1426.49 447.521,1425.62 457.934,1418.88 468.347,1406.49 478.759,1388.85 489.172,1366.54 499.585,1340.28 509.998,1310.94 520.411,1279.47 530.824,1246.9 541.236,1214.29 551.649,1182.71 562.062,1153.18 572.475,1126.68 582.888,1104.06 593.301,1086.06 603.713,1073.28 614.126,1066.12 624.539,1064.82 634.952,1069.43 645.365,1079.79 655.777,1095.57 666.19,1116.25 676.603,1141.15 687.016,1169.47 697.429,1200.28 707.842,1232.57 718.254,1265.29 728.667,1297.37 739.08,1327.76 749.493,1355.48 759.906,1379.61 770.319,1399.38 780.731,1414.13 791.144,1423.38 801.557,1426.84 811.97,1424.39 822.383,1416.1 832.796,1402.25 843.208,1383.3 853.621,1359.85 864.034,1332.68 874.447,1302.68 884.86,1270.81 895.273,1238.12 905.685,1205.69 916.098,1174.56 926.511,1145.75 936.924,1120.2 947.337,1098.76 957.749,1082.1 968.162,1070.79 978.575,1065.19 988.988,1065.48 999.401,1071.65 1009.81,1083.51 1020.23,1100.66 1030.64,1122.54 1041.05,1148.44 1051.46,1177.52 1061.88,1208.83 1072.29,1241.34 1082.7,1273.99 1093.12,1305.72 1103.53,1335.49 1113.94,1362.33 1124.35,1385.37 1134.77,1403.85 1145.18,1417.16 1155.59,1424.89 1166.01,1426.76 1176.42,1422.73 1186.83,1412.92 1197.24,1397.65 1207.66,1377.43 1218.07,1352.9 1228.48,1324.88 1238.9,1294.28 1249.31,1262.09 1259.72,338.726 1270.13,337.229 1280.55,338.592 1290.96,343.127 1301.37,349.445 1311.79,354.877 1322.2,356.485 1332.61,352.306 1343.02,342.343 1353.44,328.912 1363.85,316.132 1374.26,308.666 1384.68,310.098 1395.09,321.49 1405.5,340.65 1415.91,362.456 1426.33,380.213 1436.74,387.703 1447.15,381.291 1457.57,361.397 1467.98,332.782 1478.39,303.456 1488.8,282.439 1499.22,276.994 1509.63,290.193 1520.04,319.599 1530.45,357.576 1540.87,393.251 1551.28,415.624 1561.69,416.95 1572.11,395.334 1582.52,355.719 1592.93,308.825 1603.34,268.262 1613.76,246.578 1624.17,251.4 1634.58,282.837 1645,333.023 1655.41,388.04 1665.82,431.773 1676.23,450.628 1686.65,437.735 1697.06,395.337 1707.47,334.568 1717.89,272.555 1728.3,227.591 1738.71,213.743 1749.12,236.482 1759.54,290.68 1769.95,361.681 1780.36,429.248 1790.78,473.33 1801.19,480.007 1811.6,445.85 1822.01,379.342 1832.43,298.818 1842.84,227.428 1853.25,186.472 1863.67,189.061 1874.08,235.961 1884.49,314.937 1894.9,403.915 1905.32,477.146 1915.73,512.656 1926.14,498.828 1936.56,438.148 1946.97,346.916 1957.38,250.889 1967.79,178.014 1978.21,150.294 1988.62,177.157 1999.03,252.334 2009.45,355.236 2019.86,456.584 2030.27,526.736 2040.68,544.357 2051.1,502.884 2061.51,412.847 2071.92,299.239 2082.33,194.587 2092.75,129.643 2103.16,124.345 2113.57,181.729 2123.99,286.615 2134.4,409.597 2144.81,515.28 2155.22,572.467 2165.64,563.362 2176.05,489.076 2186.46,369.741 2196.88,239.071 2207.29,134.844 2217.7,87.9763 2228.11,113.366 2238.53,205.195 2248.94,338.182 2259.35,474.522 2269.77,574.643 2280.18,608.677 2290.59,565.369 "/>
<path clip-path="url(#clip010)" d="M229.49 250.738 L675.966 250.738 L675.966 95.2176 L229.49 95.2176  Z" fill="#ffffff" fill-rule="evenodd" fill-opacity="1"/>
<polyline clip-path="url(#clip010)" style="stroke:#000000; stroke-linecap:round; stroke-linejoin:round; stroke-width:4; stroke-opacity:1; fill:none" points="229.49,250.738 675.966,250.738 675.966,95.2176 229.49,95.2176 229.49,250.738 "/>
<polyline clip-path="url(#clip010)" style="stroke:#009af9; stroke-linecap:round; stroke-linejoin:round; stroke-width:16; stroke-opacity:1; fill:none" stroke-dasharray="8, 16" points="253.896,147.058 400.328,147.058 "/>
<path clip-path="url(#clip010)" d="M429.409 133.62 L429.409 146.606 L435.289 146.606 Q438.552 146.606 440.335 144.916 Q442.117 143.227 442.117 140.102 Q442.117 137 440.335 135.31 Q438.552 133.62 435.289 133.62 L429.409 133.62 M424.733 129.778 L435.289 129.778 Q441.099 129.778 444.062 132.416 Q447.048 135.032 447.048 140.102 Q447.048 145.217 444.062 147.833 Q441.099 150.449 435.289 150.449 L429.409 150.449 L429.409 164.338 L424.733 164.338 L424.733 129.778 Z" fill="#000000" fill-rule="nonzero" fill-opacity="1" /><path clip-path="url(#clip010)" d="M467.325 142.393 Q466.608 141.977 465.751 141.791 Q464.918 141.583 463.899 141.583 Q460.288 141.583 458.344 143.944 Q456.423 146.282 456.423 150.68 L456.423 164.338 L452.14 164.338 L452.14 138.412 L456.423 138.412 L456.423 142.44 Q457.765 140.078 459.918 138.944 Q462.071 137.787 465.149 137.787 Q465.589 137.787 466.122 137.856 Q466.654 137.903 467.302 138.018 L467.325 142.393 Z" fill="#000000" fill-rule="nonzero" fill-opacity="1" /><path clip-path="url(#clip010)" d="M492.927 150.31 L492.927 152.393 L473.344 152.393 Q473.622 156.791 475.983 159.106 Q478.367 161.398 482.603 161.398 Q485.057 161.398 487.348 160.796 Q489.663 160.194 491.932 158.99 L491.932 163.018 Q489.64 163.99 487.233 164.5 Q484.825 165.009 482.348 165.009 Q476.145 165.009 472.511 161.398 Q468.899 157.787 468.899 151.629 Q468.899 145.264 472.325 141.537 Q475.774 137.787 481.608 137.787 Q486.839 137.787 489.872 141.166 Q492.927 144.523 492.927 150.31 M488.668 149.06 Q488.622 145.565 486.7 143.481 Q484.802 141.398 481.654 141.398 Q478.089 141.398 475.936 143.412 Q473.807 145.426 473.483 149.083 L488.668 149.06 Z" fill="#000000" fill-rule="nonzero" fill-opacity="1" /><path clip-path="url(#clip010)" d="M516.978 142.347 L516.978 128.319 L521.237 128.319 L521.237 164.338 L516.978 164.338 L516.978 160.449 Q515.635 162.763 513.575 163.898 Q511.538 165.009 508.668 165.009 Q503.969 165.009 501.006 161.259 Q498.066 157.509 498.066 151.398 Q498.066 145.287 501.006 141.537 Q503.969 137.787 508.668 137.787 Q511.538 137.787 513.575 138.921 Q515.635 140.032 516.978 142.347 M502.464 151.398 Q502.464 156.097 504.385 158.782 Q506.33 161.444 509.709 161.444 Q513.089 161.444 515.033 158.782 Q516.978 156.097 516.978 151.398 Q516.978 146.699 515.033 144.037 Q513.089 141.352 509.709 141.352 Q506.33 141.352 504.385 144.037 Q502.464 146.699 502.464 151.398 Z" fill="#000000" fill-rule="nonzero" fill-opacity="1" /><path clip-path="url(#clip010)" d="M530.01 138.412 L534.269 138.412 L534.269 164.338 L530.01 164.338 L530.01 138.412 M530.01 128.319 L534.269 128.319 L534.269 133.713 L530.01 133.713 L530.01 128.319 Z" fill="#000000" fill-rule="nonzero" fill-opacity="1" /><path clip-path="url(#clip010)" d="M561.839 139.407 L561.839 143.389 Q560.033 142.393 558.205 141.907 Q556.399 141.398 554.547 141.398 Q550.404 141.398 548.112 144.037 Q545.82 146.652 545.82 151.398 Q545.82 156.143 548.112 158.782 Q550.404 161.398 554.547 161.398 Q556.399 161.398 558.205 160.912 Q560.033 160.402 561.839 159.407 L561.839 163.342 Q560.056 164.176 558.135 164.592 Q556.237 165.009 554.084 165.009 Q548.228 165.009 544.779 161.328 Q541.33 157.648 541.33 151.398 Q541.33 145.055 544.802 141.421 Q548.297 137.787 554.362 137.787 Q556.33 137.787 558.205 138.203 Q560.08 138.597 561.839 139.407 Z" fill="#000000" fill-rule="nonzero" fill-opacity="1" /><path clip-path="url(#clip010)" d="M573.459 131.051 L573.459 138.412 L582.232 138.412 L582.232 141.722 L573.459 141.722 L573.459 155.796 Q573.459 158.967 574.316 159.87 Q575.195 160.773 577.857 160.773 L582.232 160.773 L582.232 164.338 L577.857 164.338 Q572.927 164.338 571.052 162.509 Q569.177 160.657 569.177 155.796 L569.177 141.722 L566.052 141.722 L566.052 138.412 L569.177 138.412 L569.177 131.051 L573.459 131.051 Z" fill="#000000" fill-rule="nonzero" fill-opacity="1" /><path clip-path="url(#clip010)" d="M587.834 138.412 L592.093 138.412 L592.093 164.338 L587.834 164.338 L587.834 138.412 M587.834 128.319 L592.093 128.319 L592.093 133.713 L587.834 133.713 L587.834 128.319 Z" fill="#000000" fill-rule="nonzero" fill-opacity="1" /><path clip-path="url(#clip010)" d="M611.051 141.398 Q607.626 141.398 605.635 144.083 Q603.644 146.745 603.644 151.398 Q603.644 156.051 605.612 158.736 Q607.602 161.398 611.051 161.398 Q614.454 161.398 616.445 158.713 Q618.436 156.027 618.436 151.398 Q618.436 146.791 616.445 144.106 Q614.454 141.398 611.051 141.398 M611.051 137.787 Q616.607 137.787 619.778 141.398 Q622.95 145.009 622.95 151.398 Q622.95 157.764 619.778 161.398 Q616.607 165.009 611.051 165.009 Q605.473 165.009 602.302 161.398 Q599.153 157.764 599.153 151.398 Q599.153 145.009 602.302 141.398 Q605.473 137.787 611.051 137.787 Z" fill="#000000" fill-rule="nonzero" fill-opacity="1" /><path clip-path="url(#clip010)" d="M651.561 148.689 L651.561 164.338 L647.301 164.338 L647.301 148.828 Q647.301 145.148 645.866 143.319 Q644.431 141.49 641.561 141.49 Q638.112 141.49 636.121 143.69 Q634.13 145.889 634.13 149.685 L634.13 164.338 L629.848 164.338 L629.848 138.412 L634.13 138.412 L634.13 142.44 Q635.658 140.102 637.718 138.944 Q639.801 137.787 642.51 137.787 Q646.977 137.787 649.269 140.565 Q651.561 143.319 651.561 148.689 Z" fill="#000000" fill-rule="nonzero" fill-opacity="1" /><polyline clip-path="url(#clip010)" style="stroke:#e26f46; stroke-linecap:round; stroke-linejoin:round; stroke-width:4; stroke-opacity:1; fill:none" points="253.896,198.898 400.328,198.898 "/>
<path clip-path="url(#clip010)" d="M424.733 181.618 L446.585 181.618 L446.585 185.553 L429.409 185.553 L429.409 195.784 L445.867 195.784 L445.867 199.719 L429.409 199.719 L429.409 212.242 L447.001 212.242 L447.001 216.178 L424.733 216.178 L424.733 181.618 Z" fill="#000000" fill-rule="nonzero" fill-opacity="1" /><path clip-path="url(#clip010)" d="M476.052 190.252 L466.677 202.867 L476.538 216.178 L471.515 216.178 L463.969 205.992 L456.423 216.178 L451.4 216.178 L461.469 202.613 L452.256 190.252 L457.279 190.252 L464.154 199.488 L471.029 190.252 L476.052 190.252 Z" fill="#000000" fill-rule="nonzero" fill-opacity="1" /><path clip-path="url(#clip010)" d="M494.339 203.145 Q489.177 203.145 487.186 204.326 Q485.196 205.506 485.196 208.354 Q485.196 210.622 486.677 211.965 Q488.182 213.284 490.751 213.284 Q494.293 213.284 496.422 210.784 Q498.575 208.261 498.575 204.094 L498.575 203.145 L494.339 203.145 M502.834 201.386 L502.834 216.178 L498.575 216.178 L498.575 212.242 Q497.117 214.603 494.941 215.738 Q492.765 216.849 489.617 216.849 Q485.635 216.849 483.274 214.627 Q480.936 212.381 480.936 208.631 Q480.936 204.256 483.853 202.034 Q486.793 199.812 492.603 199.812 L498.575 199.812 L498.575 199.395 Q498.575 196.455 496.631 194.858 Q494.71 193.238 491.214 193.238 Q488.992 193.238 486.885 193.77 Q484.779 194.303 482.835 195.367 L482.835 191.432 Q485.173 190.53 487.372 190.09 Q489.571 189.627 491.654 189.627 Q497.279 189.627 500.057 192.543 Q502.834 195.46 502.834 201.386 Z" fill="#000000" fill-rule="nonzero" fill-opacity="1" /><path clip-path="url(#clip010)" d="M530.265 191.247 L530.265 195.229 Q528.459 194.233 526.631 193.747 Q524.825 193.238 522.973 193.238 Q518.83 193.238 516.538 195.877 Q514.246 198.492 514.246 203.238 Q514.246 207.983 516.538 210.622 Q518.83 213.238 522.973 213.238 Q524.825 213.238 526.631 212.752 Q528.459 212.242 530.265 211.247 L530.265 215.182 Q528.482 216.016 526.561 216.432 Q524.663 216.849 522.51 216.849 Q516.654 216.849 513.205 213.168 Q509.756 209.488 509.756 203.238 Q509.756 196.895 513.228 193.261 Q516.723 189.627 522.788 189.627 Q524.756 189.627 526.631 190.043 Q528.506 190.437 530.265 191.247 Z" fill="#000000" fill-rule="nonzero" fill-opacity="1" /><path clip-path="url(#clip010)" d="M541.885 182.891 L541.885 190.252 L550.658 190.252 L550.658 193.562 L541.885 193.562 L541.885 207.636 Q541.885 210.807 542.742 211.71 Q543.621 212.613 546.283 212.613 L550.658 212.613 L550.658 216.178 L546.283 216.178 Q541.353 216.178 539.478 214.349 Q537.603 212.497 537.603 207.636 L537.603 193.562 L534.478 193.562 L534.478 190.252 L537.603 190.252 L537.603 182.891 L541.885 182.891 Z" fill="#000000" fill-rule="nonzero" fill-opacity="1" /></svg>
