<?xml version="1.0" encoding="utf-8"?>
<svg xmlns="http://www.w3.org/2000/svg" xmlns:xlink="http://www.w3.org/1999/xlink" width="600" height="400" viewBox="0 0 2400 1600">
<defs>
  <clipPath id="clip130">
    <rect x="0" y="0" width="2400" height="1600"/>
  </clipPath>
</defs>
<path clip-path="url(#clip130)" d="M0 1600 L2400 1600 L2400 0 L0 0  Z" fill="#ffffff" fill-rule="evenodd" fill-opacity="1"/>
<defs>
  <clipPath id="clip131">
    <rect x="480" y="0" width="1681" height="1600"/>
  </clipPath>
</defs>
<path clip-path="url(#clip130)" d="M192.339 1486.45 L2352.76 1486.45 L2352.76 47.2441 L192.339 47.2441  Z" fill="#ffffff" fill-rule="evenodd" fill-opacity="1"/>
<defs>
  <clipPath id="clip132">
    <rect x="192" y="47" width="2161" height="1440"/>
  </clipPath>
</defs>
<polyline clip-path="url(#clip132)" style="stroke:#000000; stroke-linecap:round; stroke-linejoin:round; stroke-width:2; stroke-opacity:0.1; fill:none" points="253.483,1486.45 253.483,47.2441 "/>
<polyline clip-path="url(#clip132)" style="stroke:#000000; stroke-linecap:round; stroke-linejoin:round; stroke-width:2; stroke-opacity:0.1; fill:none" points="763.015,1486.45 763.015,47.2441 "/>
<polyline clip-path="url(#clip132)" style="stroke:#000000; stroke-linecap:round; stroke-linejoin:round; stroke-width:2; stroke-opacity:0.1; fill:none" points="1272.55,1486.45 1272.55,47.2441 "/>
<polyline clip-path="url(#clip132)" style="stroke:#000000; stroke-linecap:round; stroke-linejoin:round; stroke-width:2; stroke-opacity:0.1; fill:none" points="1782.08,1486.45 1782.08,47.2441 "/>
<polyline clip-path="url(#clip132)" style="stroke:#000000; stroke-linecap:round; stroke-linejoin:round; stroke-width:2; stroke-opacity:0.1; fill:none" points="2291.61,1486.45 2291.61,47.2441 "/>
<polyline clip-path="url(#clip130)" style="stroke:#000000; stroke-linecap:round; stroke-linejoin:round; stroke-width:4; stroke-opacity:1; fill:none" points="192.339,1486.45 2352.76,1486.45 "/>
<polyline clip-path="url(#clip130)" style="stroke:#000000; stroke-linecap:round; stroke-linejoin:round; stroke-width:4; stroke-opacity:1; fill:none" points="253.483,1486.45 253.483,1467.55 "/>
<polyline clip-path="url(#clip130)" style="stroke:#000000; stroke-linecap:round; stroke-linejoin:round; stroke-width:4; stroke-opacity:1; fill:none" points="763.015,1486.45 763.015,1467.55 "/>
<polyline clip-path="url(#clip130)" style="stroke:#000000; stroke-linecap:round; stroke-linejoin:round; stroke-width:4; stroke-opacity:1; fill:none" points="1272.55,1486.45 1272.55,1467.55 "/>
<polyline clip-path="url(#clip130)" style="stroke:#000000; stroke-linecap:round; stroke-linejoin:round; stroke-width:4; stroke-opacity:1; fill:none" points="1782.08,1486.45 1782.08,1467.55 "/>
<polyline clip-path="url(#clip130)" style="stroke:#000000; stroke-linecap:round; stroke-linejoin:round; stroke-width:4; stroke-opacity:1; fill:none" points="2291.61,1486.45 2291.61,1467.55 "/>
<path clip-path="url(#clip130)" d="M200.011 1532.02 L229.686 1532.02 L229.686 1535.95 L200.011 1535.95 L200.011 1532.02 Z" fill="#000000" fill-rule="nonzero" fill-opacity="1" /><path clip-path="url(#clip130)" d="M240.589 1544.91 L248.228 1544.91 L248.228 1518.55 L239.918 1520.21 L239.918 1515.95 L248.182 1514.29 L252.858 1514.29 L252.858 1544.91 L260.497 1544.91 L260.497 1548.85 L240.589 1548.85 L240.589 1544.91 Z" fill="#000000" fill-rule="nonzero" fill-opacity="1" /><path clip-path="url(#clip130)" d="M269.941 1542.97 L274.825 1542.97 L274.825 1548.85 L269.941 1548.85 L269.941 1542.97 Z" fill="#000000" fill-rule="nonzero" fill-opacity="1" /><path clip-path="url(#clip130)" d="M295.01 1517.37 Q291.399 1517.37 289.57 1520.93 Q287.765 1524.47 287.765 1531.6 Q287.765 1538.71 289.57 1542.27 Q291.399 1545.82 295.01 1545.82 Q298.644 1545.82 300.45 1542.27 Q302.279 1538.71 302.279 1531.6 Q302.279 1524.47 300.45 1520.93 Q298.644 1517.37 295.01 1517.37 M295.01 1513.66 Q300.82 1513.66 303.876 1518.27 Q306.955 1522.85 306.955 1531.6 Q306.955 1540.33 303.876 1544.94 Q300.82 1549.52 295.01 1549.52 Q289.2 1549.52 286.121 1544.94 Q283.066 1540.33 283.066 1531.6 Q283.066 1522.85 286.121 1518.27 Q289.2 1513.66 295.01 1513.66 Z" fill="#000000" fill-rule="nonzero" fill-opacity="1" /><path clip-path="url(#clip130)" d="M710.041 1532.02 L739.717 1532.02 L739.717 1535.95 L710.041 1535.95 L710.041 1532.02 Z" fill="#000000" fill-rule="nonzero" fill-opacity="1" /><path clip-path="url(#clip130)" d="M759.809 1517.37 Q756.198 1517.37 754.369 1520.93 Q752.564 1524.47 752.564 1531.6 Q752.564 1538.71 754.369 1542.27 Q756.198 1545.82 759.809 1545.82 Q763.443 1545.82 765.249 1542.27 Q767.077 1538.71 767.077 1531.6 Q767.077 1524.47 765.249 1520.93 Q763.443 1517.37 759.809 1517.37 M759.809 1513.66 Q765.619 1513.66 768.675 1518.27 Q771.753 1522.85 771.753 1531.6 Q771.753 1540.33 768.675 1544.94 Q765.619 1549.52 759.809 1549.52 Q753.999 1549.52 750.92 1544.94 Q747.865 1540.33 747.865 1531.6 Q747.865 1522.85 750.92 1518.27 Q753.999 1513.66 759.809 1513.66 Z" fill="#000000" fill-rule="nonzero" fill-opacity="1" /><path clip-path="url(#clip130)" d="M779.971 1542.97 L784.855 1542.97 L784.855 1548.85 L779.971 1548.85 L779.971 1542.97 Z" fill="#000000" fill-rule="nonzero" fill-opacity="1" /><path clip-path="url(#clip130)" d="M795.087 1514.29 L813.443 1514.29 L813.443 1518.22 L799.369 1518.22 L799.369 1526.7 Q800.387 1526.35 801.406 1526.19 Q802.425 1526 803.443 1526 Q809.23 1526 812.61 1529.17 Q815.989 1532.34 815.989 1537.76 Q815.989 1543.34 812.517 1546.44 Q809.045 1549.52 802.725 1549.52 Q800.55 1549.52 798.281 1549.15 Q796.036 1548.78 793.628 1548.04 L793.628 1543.34 Q795.712 1544.47 797.934 1545.03 Q800.156 1545.58 802.633 1545.58 Q806.637 1545.58 808.975 1543.48 Q811.313 1541.37 811.313 1537.76 Q811.313 1534.15 808.975 1532.04 Q806.637 1529.94 802.633 1529.94 Q800.758 1529.94 798.883 1530.35 Q797.031 1530.77 795.087 1531.65 L795.087 1514.29 Z" fill="#000000" fill-rule="nonzero" fill-opacity="1" /><path clip-path="url(#clip130)" d="M1249.93 1517.37 Q1246.32 1517.37 1244.49 1520.93 Q1242.69 1524.47 1242.69 1531.6 Q1242.69 1538.71 1244.49 1542.27 Q1246.32 1545.82 1249.93 1545.82 Q1253.57 1545.82 1255.37 1542.27 Q1257.2 1538.71 1257.2 1531.6 Q1257.2 1524.47 1255.37 1520.93 Q1253.57 1517.37 1249.93 1517.37 M1249.93 1513.66 Q1255.74 1513.66 1258.8 1518.27 Q1261.88 1522.85 1261.88 1531.6 Q1261.88 1540.33 1258.8 1544.94 Q1255.74 1549.52 1249.93 1549.52 Q1244.12 1549.52 1241.04 1544.94 Q1237.99 1540.33 1237.99 1531.6 Q1237.99 1522.85 1241.04 1518.27 Q1244.12 1513.66 1249.93 1513.66 Z" fill="#000000" fill-rule="nonzero" fill-opacity="1" /><path clip-path="url(#clip130)" d="M1270.09 1542.97 L1274.98 1542.97 L1274.98 1548.85 L1270.09 1548.85 L1270.09 1542.97 Z" fill="#000000" fill-rule="nonzero" fill-opacity="1" /><path clip-path="url(#clip130)" d="M1295.16 1517.37 Q1291.55 1517.37 1289.72 1520.93 Q1287.92 1524.47 1287.92 1531.6 Q1287.92 1538.71 1289.72 1542.27 Q1291.55 1545.82 1295.16 1545.82 Q1298.8 1545.82 1300.6 1542.27 Q1302.43 1538.71 1302.43 1531.6 Q1302.43 1524.47 1300.6 1520.93 Q1298.8 1517.37 1295.16 1517.37 M1295.16 1513.66 Q1300.97 1513.66 1304.03 1518.27 Q1307.11 1522.85 1307.11 1531.6 Q1307.11 1540.33 1304.03 1544.94 Q1300.97 1549.52 1295.16 1549.52 Q1289.35 1549.52 1286.27 1544.94 Q1283.22 1540.33 1283.22 1531.6 Q1283.22 1522.85 1286.27 1518.27 Q1289.35 1513.66 1295.16 1513.66 Z" fill="#000000" fill-rule="nonzero" fill-opacity="1" /><path clip-path="url(#clip130)" d="M1759.96 1517.37 Q1756.35 1517.37 1754.52 1520.93 Q1752.72 1524.47 1752.72 1531.6 Q1752.72 1538.71 1754.52 1542.27 Q1756.35 1545.82 1759.96 1545.82 Q1763.6 1545.82 1765.4 1542.27 Q1767.23 1538.71 1767.23 1531.6 Q1767.23 1524.47 1765.4 1520.93 Q1763.6 1517.37 1759.96 1517.37 M1759.96 1513.66 Q1765.77 1513.66 1768.83 1518.27 Q1771.91 1522.85 1771.91 1531.6 Q1771.91 1540.33 1768.83 1544.94 Q1765.77 1549.52 1759.96 1549.52 Q1754.15 1549.52 1751.07 1544.94 Q1748.02 1540.33 1748.02 1531.6 Q1748.02 1522.85 1751.07 1518.27 Q1754.15 1513.66 1759.96 1513.66 Z" fill="#000000" fill-rule="nonzero" fill-opacity="1" /><path clip-path="url(#clip130)" d="M1780.12 1542.97 L1785.01 1542.97 L1785.01 1548.85 L1780.12 1548.85 L1780.12 1542.97 Z" fill="#000000" fill-rule="nonzero" fill-opacity="1" /><path clip-path="url(#clip130)" d="M1795.24 1514.29 L1813.6 1514.29 L1813.6 1518.22 L1799.52 1518.22 L1799.52 1526.7 Q1800.54 1526.35 1801.56 1526.19 Q1802.58 1526 1803.6 1526 Q1809.38 1526 1812.76 1529.17 Q1816.14 1532.34 1816.14 1537.76 Q1816.14 1543.34 1812.67 1546.44 Q1809.2 1549.52 1802.88 1549.52 Q1800.7 1549.52 1798.43 1549.15 Q1796.19 1548.78 1793.78 1548.04 L1793.78 1543.34 Q1795.86 1544.47 1798.09 1545.03 Q1800.31 1545.58 1802.79 1545.58 Q1806.79 1545.58 1809.13 1543.48 Q1811.47 1541.37 1811.47 1537.76 Q1811.47 1534.15 1809.13 1532.04 Q1806.79 1529.94 1802.79 1529.94 Q1800.91 1529.94 1799.04 1530.35 Q1797.18 1530.77 1795.24 1531.65 L1795.24 1514.29 Z" fill="#000000" fill-rule="nonzero" fill-opacity="1" /><path clip-path="url(#clip130)" d="M2258.76 1544.91 L2266.4 1544.91 L2266.4 1518.55 L2258.09 1520.21 L2258.09 1515.95 L2266.36 1514.29 L2271.03 1514.29 L2271.03 1544.91 L2278.67 1544.91 L2278.67 1548.85 L2258.76 1548.85 L2258.76 1544.91 Z" fill="#000000" fill-rule="nonzero" fill-opacity="1" /><path clip-path="url(#clip130)" d="M2288.12 1542.97 L2293 1542.97 L2293 1548.85 L2288.12 1548.85 L2288.12 1542.97 Z" fill="#000000" fill-rule="nonzero" fill-opacity="1" /><path clip-path="url(#clip130)" d="M2313.19 1517.37 Q2309.57 1517.37 2307.75 1520.93 Q2305.94 1524.47 2305.94 1531.6 Q2305.94 1538.71 2307.75 1542.27 Q2309.57 1545.82 2313.19 1545.82 Q2316.82 1545.82 2318.63 1542.27 Q2320.45 1538.71 2320.45 1531.6 Q2320.45 1524.47 2318.63 1520.93 Q2316.82 1517.37 2313.19 1517.37 M2313.19 1513.66 Q2319 1513.66 2322.05 1518.27 Q2325.13 1522.85 2325.13 1531.6 Q2325.13 1540.33 2322.05 1544.94 Q2319 1549.52 2313.19 1549.52 Q2307.38 1549.52 2304.3 1544.94 Q2301.24 1540.33 2301.24 1531.6 Q2301.24 1522.85 2304.3 1518.27 Q2307.38 1513.66 2313.19 1513.66 Z" fill="#000000" fill-rule="nonzero" fill-opacity="1" /><polyline clip-path="url(#clip132)" style="stroke:#000000; stroke-linecap:round; stroke-linejoin:round; stroke-width:2; stroke-opacity:0.1; fill:none" points="192.339,1335.62 2352.76,1335.62 "/>
<polyline clip-path="url(#clip132)" style="stroke:#000000; stroke-linecap:round; stroke-linejoin:round; stroke-width:2; stroke-opacity:0.1; fill:none" points="192.339,1166.83 2352.76,1166.83 "/>
<polyline clip-path="url(#clip132)" style="stroke:#000000; stroke-linecap:round; stroke-linejoin:round; stroke-width:2; stroke-opacity:0.1; fill:none" points="192.339,998.037 2352.76,998.037 "/>
<polyline clip-path="url(#clip132)" style="stroke:#000000; stroke-linecap:round; stroke-linejoin:round; stroke-width:2; stroke-opacity:0.1; fill:none" points="192.339,829.244 2352.76,829.244 "/>
<polyline clip-path="url(#clip132)" style="stroke:#000000; stroke-linecap:round; stroke-linejoin:round; stroke-width:2; stroke-opacity:0.1; fill:none" points="192.339,660.451 2352.76,660.451 "/>
<polyline clip-path="url(#clip132)" style="stroke:#000000; stroke-linecap:round; stroke-linejoin:round; stroke-width:2; stroke-opacity:0.1; fill:none" points="192.339,491.658 2352.76,491.658 "/>
<polyline clip-path="url(#clip132)" style="stroke:#000000; stroke-linecap:round; stroke-linejoin:round; stroke-width:2; stroke-opacity:0.1; fill:none" points="192.339,322.865 2352.76,322.865 "/>
<polyline clip-path="url(#clip132)" style="stroke:#000000; stroke-linecap:round; stroke-linejoin:round; stroke-width:2; stroke-opacity:0.1; fill:none" points="192.339,154.071 2352.76,154.071 "/>
<polyline clip-path="url(#clip130)" style="stroke:#000000; stroke-linecap:round; stroke-linejoin:round; stroke-width:4; stroke-opacity:1; fill:none" points="192.339,1486.45 192.339,47.2441 "/>
<polyline clip-path="url(#clip130)" style="stroke:#000000; stroke-linecap:round; stroke-linejoin:round; stroke-width:4; stroke-opacity:1; fill:none" points="192.339,1335.62 211.236,1335.62 "/>
<polyline clip-path="url(#clip130)" style="stroke:#000000; stroke-linecap:round; stroke-linejoin:round; stroke-width:4; stroke-opacity:1; fill:none" points="192.339,1166.83 211.236,1166.83 "/>
<polyline clip-path="url(#clip130)" style="stroke:#000000; stroke-linecap:round; stroke-linejoin:round; stroke-width:4; stroke-opacity:1; fill:none" points="192.339,998.037 211.236,998.037 "/>
<polyline clip-path="url(#clip130)" style="stroke:#000000; stroke-linecap:round; stroke-linejoin:round; stroke-width:4; stroke-opacity:1; fill:none" points="192.339,829.244 211.236,829.244 "/>
<polyline clip-path="url(#clip130)" style="stroke:#000000; stroke-linecap:round; stroke-linejoin:round; stroke-width:4; stroke-opacity:1; fill:none" points="192.339,660.451 211.236,660.451 "/>
<polyline clip-path="url(#clip130)" style="stroke:#000000; stroke-linecap:round; stroke-linejoin:round; stroke-width:4; stroke-opacity:1; fill:none" points="192.339,491.658 211.236,491.658 "/>
<polyline clip-path="url(#clip130)" style="stroke:#000000; stroke-linecap:round; stroke-linejoin:round; stroke-width:4; stroke-opacity:1; fill:none" points="192.339,322.865 211.236,322.865 "/>
<polyline clip-path="url(#clip130)" style="stroke:#000000; stroke-linecap:round; stroke-linejoin:round; stroke-width:4; stroke-opacity:1; fill:none" points="192.339,154.071 211.236,154.071 "/>
<path clip-path="url(#clip130)" d="M50.9921 1336.07 L80.6679 1336.07 L80.6679 1340.01 L50.9921 1340.01 L50.9921 1336.07 Z" fill="#000000" fill-rule="nonzero" fill-opacity="1" /><path clip-path="url(#clip130)" d="M100.76 1321.42 Q97.1493 1321.42 95.3206 1324.99 Q93.515 1328.53 93.515 1335.66 Q93.515 1342.76 95.3206 1346.33 Q97.1493 1349.87 100.76 1349.87 Q104.395 1349.87 106.2 1346.33 Q108.029 1342.76 108.029 1335.66 Q108.029 1328.53 106.2 1324.99 Q104.395 1321.42 100.76 1321.42 M100.76 1317.72 Q106.571 1317.72 109.626 1322.32 Q112.705 1326.91 112.705 1335.66 Q112.705 1344.38 109.626 1348.99 Q106.571 1353.57 100.76 1353.57 Q94.9502 1353.57 91.8715 1348.99 Q88.816 1344.38 88.816 1335.66 Q88.816 1326.91 91.8715 1322.32 Q94.9502 1317.72 100.76 1317.72 Z" fill="#000000" fill-rule="nonzero" fill-opacity="1" /><path clip-path="url(#clip130)" d="M120.922 1347.02 L125.807 1347.02 L125.807 1352.9 L120.922 1352.9 L120.922 1347.02 Z" fill="#000000" fill-rule="nonzero" fill-opacity="1" /><path clip-path="url(#clip130)" d="M140.019 1348.97 L156.339 1348.97 L156.339 1352.9 L134.394 1352.9 L134.394 1348.97 Q137.056 1346.21 141.64 1341.58 Q146.246 1336.93 147.427 1335.59 Q149.672 1333.07 150.552 1331.33 Q151.455 1329.57 151.455 1327.88 Q151.455 1325.13 149.51 1323.39 Q147.589 1321.65 144.487 1321.65 Q142.288 1321.65 139.834 1322.42 Q137.404 1323.18 134.626 1324.73 L134.626 1320.01 Q137.45 1318.88 139.904 1318.3 Q142.357 1317.72 144.394 1317.72 Q149.765 1317.72 152.959 1320.4 Q156.154 1323.09 156.154 1327.58 Q156.154 1329.71 155.343 1331.63 Q154.556 1333.53 152.45 1336.12 Q151.871 1336.79 148.769 1340.01 Q145.668 1343.2 140.019 1348.97 Z" fill="#000000" fill-rule="nonzero" fill-opacity="1" /><path clip-path="url(#clip130)" d="M99.1632 1152.63 Q95.5521 1152.63 93.7234 1156.19 Q91.9178 1159.74 91.9178 1166.86 Q91.9178 1173.97 93.7234 1177.54 Q95.5521 1181.08 99.1632 1181.08 Q102.797 1181.08 104.603 1177.54 Q106.432 1173.97 106.432 1166.86 Q106.432 1159.74 104.603 1156.19 Q102.797 1152.63 99.1632 1152.63 M99.1632 1148.93 Q104.973 1148.93 108.029 1153.53 Q111.108 1158.12 111.108 1166.86 Q111.108 1175.59 108.029 1180.2 Q104.973 1184.78 99.1632 1184.78 Q93.353 1184.78 90.2743 1180.2 Q87.2188 1175.59 87.2188 1166.86 Q87.2188 1158.12 90.2743 1153.53 Q93.353 1148.93 99.1632 1148.93 Z" fill="#000000" fill-rule="nonzero" fill-opacity="1" /><path clip-path="url(#clip130)" d="M119.325 1178.23 L124.209 1178.23 L124.209 1184.11 L119.325 1184.11 L119.325 1178.23 Z" fill="#000000" fill-rule="nonzero" fill-opacity="1" /><path clip-path="url(#clip130)" d="M144.394 1152.63 Q140.783 1152.63 138.955 1156.19 Q137.149 1159.74 137.149 1166.86 Q137.149 1173.97 138.955 1177.54 Q140.783 1181.08 144.394 1181.08 Q148.029 1181.08 149.834 1177.54 Q151.663 1173.97 151.663 1166.86 Q151.663 1159.74 149.834 1156.19 Q148.029 1152.63 144.394 1152.63 M144.394 1148.93 Q150.205 1148.93 153.26 1153.53 Q156.339 1158.12 156.339 1166.86 Q156.339 1175.59 153.26 1180.2 Q150.205 1184.78 144.394 1184.78 Q138.584 1184.78 135.506 1180.2 Q132.45 1175.59 132.45 1166.86 Q132.45 1158.12 135.506 1153.53 Q138.584 1148.93 144.394 1148.93 Z" fill="#000000" fill-rule="nonzero" fill-opacity="1" /><path clip-path="url(#clip130)" d="M100.76 983.836 Q97.1493 983.836 95.3206 987.401 Q93.515 990.942 93.515 998.072 Q93.515 1005.18 95.3206 1008.74 Q97.1493 1012.28 100.76 1012.28 Q104.395 1012.28 106.2 1008.74 Q108.029 1005.18 108.029 998.072 Q108.029 990.942 106.2 987.401 Q104.395 983.836 100.76 983.836 M100.76 980.132 Q106.571 980.132 109.626 984.739 Q112.705 989.322 112.705 998.072 Q112.705 1006.8 109.626 1011.41 Q106.571 1015.99 100.76 1015.99 Q94.9502 1015.99 91.8715 1011.41 Q88.816 1006.8 88.816 998.072 Q88.816 989.322 91.8715 984.739 Q94.9502 980.132 100.76 980.132 Z" fill="#000000" fill-rule="nonzero" fill-opacity="1" /><path clip-path="url(#clip130)" d="M120.922 1009.44 L125.807 1009.44 L125.807 1015.32 L120.922 1015.32 L120.922 1009.44 Z" fill="#000000" fill-rule="nonzero" fill-opacity="1" /><path clip-path="url(#clip130)" d="M140.019 1011.38 L156.339 1011.38 L156.339 1015.32 L134.394 1015.32 L134.394 1011.38 Q137.056 1008.63 141.64 1004 Q146.246 999.345 147.427 998.002 Q149.672 995.479 150.552 993.743 Q151.455 991.984 151.455 990.294 Q151.455 987.539 149.51 985.803 Q147.589 984.067 144.487 984.067 Q142.288 984.067 139.834 984.831 Q137.404 985.595 134.626 987.146 L134.626 982.424 Q137.45 981.29 139.904 980.711 Q142.357 980.132 144.394 980.132 Q149.765 980.132 152.959 982.817 Q156.154 985.502 156.154 989.993 Q156.154 992.123 155.343 994.044 Q154.556 995.942 152.45 998.535 Q151.871 999.206 148.769 1002.42 Q145.668 1005.62 140.019 1011.38 Z" fill="#000000" fill-rule="nonzero" fill-opacity="1" /><path clip-path="url(#clip130)" d="M98.6771 815.043 Q95.066 815.043 93.2373 818.607 Q91.4317 822.149 91.4317 829.279 Q91.4317 836.385 93.2373 839.95 Q95.066 843.492 98.6771 843.492 Q102.311 843.492 104.117 839.95 Q105.946 836.385 105.946 829.279 Q105.946 822.149 104.117 818.607 Q102.311 815.043 98.6771 815.043 M98.6771 811.339 Q104.487 811.339 107.543 815.945 Q110.621 820.529 110.621 829.279 Q110.621 838.005 107.543 842.612 Q104.487 847.195 98.6771 847.195 Q92.8669 847.195 89.7882 842.612 Q86.7327 838.005 86.7327 829.279 Q86.7327 820.529 89.7882 815.945 Q92.8669 811.339 98.6771 811.339 Z" fill="#000000" fill-rule="nonzero" fill-opacity="1" /><path clip-path="url(#clip130)" d="M118.839 840.644 L123.723 840.644 L123.723 846.524 L118.839 846.524 L118.839 840.644 Z" fill="#000000" fill-rule="nonzero" fill-opacity="1" /><path clip-path="url(#clip130)" d="M146.756 816.038 L134.95 834.487 L146.756 834.487 L146.756 816.038 M145.529 811.964 L151.408 811.964 L151.408 834.487 L156.339 834.487 L156.339 838.376 L151.408 838.376 L151.408 846.524 L146.756 846.524 L146.756 838.376 L131.154 838.376 L131.154 833.862 L145.529 811.964 Z" fill="#000000" fill-rule="nonzero" fill-opacity="1" /><path clip-path="url(#clip130)" d="M99.0011 646.25 Q95.39 646.25 93.5613 649.814 Q91.7558 653.356 91.7558 660.486 Q91.7558 667.592 93.5613 671.157 Q95.39 674.698 99.0011 674.698 Q102.635 674.698 104.441 671.157 Q106.27 667.592 106.27 660.486 Q106.27 653.356 104.441 649.814 Q102.635 646.25 99.0011 646.25 M99.0011 642.546 Q104.811 642.546 107.867 647.152 Q110.946 651.736 110.946 660.486 Q110.946 669.212 107.867 673.819 Q104.811 678.402 99.0011 678.402 Q93.191 678.402 90.1123 673.819 Q87.0567 669.212 87.0567 660.486 Q87.0567 651.736 90.1123 647.152 Q93.191 642.546 99.0011 642.546 Z" fill="#000000" fill-rule="nonzero" fill-opacity="1" /><path clip-path="url(#clip130)" d="M119.163 671.851 L124.047 671.851 L124.047 677.731 L119.163 677.731 L119.163 671.851 Z" fill="#000000" fill-rule="nonzero" fill-opacity="1" /><path clip-path="url(#clip130)" d="M144.811 658.587 Q141.663 658.587 139.811 660.74 Q137.982 662.893 137.982 666.643 Q137.982 670.37 139.811 672.546 Q141.663 674.698 144.811 674.698 Q147.959 674.698 149.788 672.546 Q151.64 670.37 151.64 666.643 Q151.64 662.893 149.788 660.74 Q147.959 658.587 144.811 658.587 M154.093 643.935 L154.093 648.194 Q152.334 647.361 150.529 646.921 Q148.746 646.481 146.987 646.481 Q142.357 646.481 139.904 649.606 Q137.473 652.731 137.126 659.05 Q138.492 657.036 140.552 655.972 Q142.612 654.884 145.089 654.884 Q150.297 654.884 153.306 658.055 Q156.339 661.203 156.339 666.643 Q156.339 671.967 153.191 675.185 Q150.043 678.402 144.811 678.402 Q138.816 678.402 135.644 673.819 Q132.473 669.212 132.473 660.486 Q132.473 652.291 136.362 647.43 Q140.251 642.546 146.802 642.546 Q148.561 642.546 150.343 642.893 Q152.149 643.24 154.093 643.935 Z" fill="#000000" fill-rule="nonzero" fill-opacity="1" /><path clip-path="url(#clip130)" d="M99.2558 477.456 Q95.6447 477.456 93.816 481.021 Q92.0104 484.563 92.0104 491.692 Q92.0104 498.799 93.816 502.364 Q95.6447 505.905 99.2558 505.905 Q102.89 505.905 104.696 502.364 Q106.524 498.799 106.524 491.692 Q106.524 484.563 104.696 481.021 Q102.89 477.456 99.2558 477.456 M99.2558 473.753 Q105.066 473.753 108.121 478.359 Q111.2 482.942 111.2 491.692 Q111.2 500.419 108.121 505.026 Q105.066 509.609 99.2558 509.609 Q93.4456 509.609 90.3669 505.026 Q87.3114 500.419 87.3114 491.692 Q87.3114 482.942 90.3669 478.359 Q93.4456 473.753 99.2558 473.753 Z" fill="#000000" fill-rule="nonzero" fill-opacity="1" /><path clip-path="url(#clip130)" d="M119.418 503.058 L124.302 503.058 L124.302 508.938 L119.418 508.938 L119.418 503.058 Z" fill="#000000" fill-rule="nonzero" fill-opacity="1" /><path clip-path="url(#clip130)" d="M144.487 492.526 Q141.154 492.526 139.232 494.308 Q137.334 496.091 137.334 499.216 Q137.334 502.34 139.232 504.123 Q141.154 505.905 144.487 505.905 Q147.82 505.905 149.742 504.123 Q151.663 502.317 151.663 499.216 Q151.663 496.091 149.742 494.308 Q147.843 492.526 144.487 492.526 M139.811 490.535 Q136.802 489.794 135.112 487.734 Q133.445 485.674 133.445 482.711 Q133.445 478.567 136.385 476.16 Q139.348 473.753 144.487 473.753 Q149.649 473.753 152.589 476.16 Q155.529 478.567 155.529 482.711 Q155.529 485.674 153.839 487.734 Q152.172 489.794 149.186 490.535 Q152.566 491.322 154.441 493.614 Q156.339 495.905 156.339 499.216 Q156.339 504.239 153.26 506.924 Q150.205 509.609 144.487 509.609 Q138.769 509.609 135.691 506.924 Q132.635 504.239 132.635 499.216 Q132.635 495.905 134.533 493.614 Q136.431 491.322 139.811 490.535 M138.098 483.151 Q138.098 485.836 139.765 487.341 Q141.455 488.845 144.487 488.845 Q147.496 488.845 149.186 487.341 Q150.899 485.836 150.899 483.151 Q150.899 480.466 149.186 478.961 Q147.496 477.456 144.487 477.456 Q141.455 477.456 139.765 478.961 Q138.098 480.466 138.098 483.151 Z" fill="#000000" fill-rule="nonzero" fill-opacity="1" /><path clip-path="url(#clip130)" d="M89.9734 336.209 L97.6122 336.209 L97.6122 309.844 L89.3021 311.51 L89.3021 307.251 L97.566 305.585 L102.242 305.585 L102.242 336.209 L109.881 336.209 L109.881 340.145 L89.9734 340.145 L89.9734 336.209 Z" fill="#000000" fill-rule="nonzero" fill-opacity="1" /><path clip-path="url(#clip130)" d="M119.325 334.265 L124.209 334.265 L124.209 340.145 L119.325 340.145 L119.325 334.265 Z" fill="#000000" fill-rule="nonzero" fill-opacity="1" /><path clip-path="url(#clip130)" d="M144.394 308.663 Q140.783 308.663 138.955 312.228 Q137.149 315.77 137.149 322.899 Q137.149 330.006 138.955 333.57 Q140.783 337.112 144.394 337.112 Q148.029 337.112 149.834 333.57 Q151.663 330.006 151.663 322.899 Q151.663 315.77 149.834 312.228 Q148.029 308.663 144.394 308.663 M144.394 304.96 Q150.205 304.96 153.26 309.566 Q156.339 314.149 156.339 322.899 Q156.339 331.626 153.26 336.233 Q150.205 340.816 144.394 340.816 Q138.584 340.816 135.506 336.233 Q132.45 331.626 132.45 322.899 Q132.45 314.149 135.506 309.566 Q138.584 304.96 144.394 304.96 Z" fill="#000000" fill-rule="nonzero" fill-opacity="1" /><path clip-path="url(#clip130)" d="M91.5706 167.416 L99.2095 167.416 L99.2095 141.051 L90.8993 142.717 L90.8993 138.458 L99.1632 136.791 L103.839 136.791 L103.839 167.416 L111.478 167.416 L111.478 171.351 L91.5706 171.351 L91.5706 167.416 Z" fill="#000000" fill-rule="nonzero" fill-opacity="1" /><path clip-path="url(#clip130)" d="M120.922 165.472 L125.807 165.472 L125.807 171.351 L120.922 171.351 L120.922 165.472 Z" fill="#000000" fill-rule="nonzero" fill-opacity="1" /><path clip-path="url(#clip130)" d="M140.019 167.416 L156.339 167.416 L156.339 171.351 L134.394 171.351 L134.394 167.416 Q137.056 164.662 141.64 160.032 Q146.246 155.379 147.427 154.037 Q149.672 151.514 150.552 149.777 Q151.455 148.018 151.455 146.328 Q151.455 143.574 149.51 141.838 Q147.589 140.102 144.487 140.102 Q142.288 140.102 139.834 140.865 Q137.404 141.629 134.626 143.18 L134.626 138.458 Q137.45 137.324 139.904 136.745 Q142.357 136.166 144.394 136.166 Q149.765 136.166 152.959 138.852 Q156.154 141.537 156.154 146.027 Q156.154 148.157 155.343 150.078 Q154.556 151.976 152.45 154.569 Q151.871 155.24 148.769 158.458 Q145.668 161.652 140.019 167.416 Z" fill="#000000" fill-rule="nonzero" fill-opacity="1" /><polyline clip-path="url(#clip132)" style="stroke:#009af9; stroke-linecap:round; stroke-linejoin:round; stroke-width:16; stroke-opacity:1; fill:none" stroke-dasharray="8, 16" points="253.483,1039.84 263.725,1026.11 273.966,1013.25 284.208,1003.62 294.45,998.821 304.692,999.826 314.934,1007.03 325.176,1020.31 335.418,1039.05 345.659,1062.31 355.901,1088.94 366.143,1117.81 376.385,1147.88 386.627,1178.18 396.869,1207.8 407.111,1235.9 417.352,1261.71 427.594,1284.59 437.836,1304.03 448.078,1319.51 458.32,1330.48 468.562,1336.23 478.803,1336.1 489.045,1329.72 499.287,1317.29 509.529,1299.62 519.771,1277.85 530.013,1253.1 540.255,1226.24 550.497,1197.84 560.738,1168.42 570.98,1138.62 581.222,1109.32 591.464,1081.57 601.706,1056.38 611.948,1034.64 622.19,1017.13 632.431,1004.59 642.673,997.705 652.915,996.894 663.157,1002.13 673.399,1012.94 683.641,1028.48 693.882,1047.81 704.124,1070.09 714.366,1094.88 724.608,1122.22 734.85,1152.22 745.092,1183.9 755.334,1214.83 765.575,1243.49 775.817,1270.05 786.059,1292.98 796.301,1309.34 806.543,1319.26 816.785,1326.35 827.027,1332.32 837.268,1333.55 847.51,1325.66 857.752,1310.09 867.994,1291.83 878.236,1273.56 888.478,1254.81 898.72,1233.35 908.961,1204.17 919.203,1159.23 929.445,1094.56 939.687,1032.66 949.929,1016.7 960.171,1047.19 970.413,1085.12 980.654,1084.58 990.896,1027.06 1001.14,997.44 1011.38,1010.44 1021.62,993.385 1031.86,972.75 1042.11,1025.06 1052.35,1028.11 1062.59,942.12 1072.83,1094.05 1083.07,1152.01 1093.31,1044.21 1103.56,922.166 1113.8,940.672 1124.04,1182.53 1134.28,1350.19 1144.52,1350.75 1154.77,1230.54 1165.01,1317.07 1175.25,1272.27 1185.49,1198.9 1195.73,1236.39 1205.98,1287.14 1216.22,1373.06 1226.46,1445.72 1236.7,1419.38 1246.94,1309.43 1257.18,1101.93 1267.43,773.589 1277.67,461.65 1287.91,334.316 1298.15,318.168 1308.39,323.126 1318.64,360.414 1328.88,381.604 1339.12,297.046 1349.36,181.876 1359.6,135.361 1369.84,228.708 1380.09,355.364 1390.33,526.79 1400.57,557.582 1410.81,414.402 1421.05,292.164 1431.3,327.778 1441.54,495.508 1451.78,404.935 1462.02,390.535 1472.26,412.145 1482.51,262.581 1492.75,187.07 1502.99,289.842 1513.23,372.395 1523.47,383.299 1533.71,357.888 1543.96,333.652 1554.2,320.975 1564.44,318.512 1574.68,332.557 1584.92,377.843 1595.17,406.043 1605.41,344.344 1615.65,269.26 1625.89,235.822 1636.13,239.419 1646.38,272.419 1656.62,317.999 1666.86,367.337 1677.1,415.646 1687.34,439.73 1697.58,423.198 1707.83,375.222 1718.07,314.902 1728.31,259.072 1738.55,219.684 1748.79,205.709 1759.04,223.974 1769.28,274.342 1779.52,343.23 1789.76,406.581 1800,442.877 1810.24,443.222 1820.49,410.76 1830.73,355.841 1840.97,292.069 1851.21,233.813 1861.45,195.128 1871.7,187.579 1881.94,216.68 1892.18,280.335 1902.42,367.939 1912.66,449.381 1922.91,477.927 1933.15,447.958 1943.39,388.568 1953.63,318.562 1963.87,249.436 1974.11,193.831 1984.36,166.305 1994.6,179.375 2004.84,235.644 2015.08,323.331 2025.32,420.017 2035.57,494.531 2045.81,511.532 2056.05,460.628 2066.29,370.742 2076.53,274.565 2086.77,191.506 2097.02,137.948 2107.26,131.457 2117.5,180.297 2127.74,270.859 2137.98,373.826 2148.23,463.141 2158.47,522.353 2168.71,535.702 2178.95,485.583 2189.19,375.054 2199.44,238.17 2209.68,132.28 2219.92,107.919 2230.16,151.399 2240.4,230.004 2250.64,318.326 2260.89,398.365 2271.13,461.15 2281.37,505.166 2291.61,532.797 "/>
<polyline clip-path="url(#clip132)" style="stroke:#e26f46; stroke-linecap:round; stroke-linejoin:round; stroke-width:4; stroke-opacity:1; fill:none" points="253.483,1040.07 263.725,1022.08 273.966,1008.82 284.208,1000.72 294.45,998.038 304.692,1000.86 314.934,1009.11 325.176,1022.5 335.418,1040.6 345.659,1062.82 355.901,1088.44 366.143,1116.61 376.385,1146.43 386.627,1176.9 396.869,1207.06 407.111,1235.89 417.352,1262.48 427.594,1285.94 437.836,1305.51 448.078,1320.56 458.32,1330.59 468.562,1335.28 478.803,1334.47 489.045,1328.19 499.287,1316.64 509.529,1300.2 519.771,1279.41 530.013,1254.94 540.255,1227.6 550.497,1198.28 560.738,1167.93 570.98,1137.54 581.222,1108.11 591.464,1080.6 601.706,1055.9 611.948,1034.82 622.19,1018.05 632.431,1006.13 642.673,999.463 652.915,998.255 663.157,1002.55 673.399,1012.21 683.641,1026.91 693.882,1046.18 704.124,1069.39 714.366,1095.77 724.608,1124.48 734.85,1154.57 745.092,1185.06 755.334,1214.95 765.575,1243.27 775.817,1269.1 786.059,1291.59 796.301,1310.01 806.543,1323.76 816.785,1332.38 827.027,1335.6 837.268,1333.32 847.51,1325.59 857.752,1312.69 867.994,1295.03 878.236,1273.18 888.478,1247.86 898.72,1219.9 908.961,1190.2 919.203,1159.75 929.445,1129.52 939.687,1100.51 949.929,1073.67 960.171,1049.86 970.413,1029.88 980.654,1014.36 990.896,1003.82 1001.14,998.599 1011.38,998.869 1021.62,1004.62 1031.86,1015.67 1042.11,1031.65 1052.35,1052.04 1062.59,1076.18 1072.83,1103.27 1083.07,1132.45 1093.31,1162.74 1103.56,1193.17 1113.8,1222.73 1124.04,1250.48 1134.28,1275.49 1144.52,1296.96 1154.77,1314.18 1165.01,1326.59 1175.25,1333.78 1185.49,1335.53 1195.73,1331.77 1205.98,1322.63 1216.22,1308.4 1226.46,1289.56 1236.7,1266.71 1246.94,1240.59 1257.18,1212.07 1267.43,1182.08 1277.67,321.639 1287.91,320.244 1298.15,321.513 1308.39,325.74 1318.64,331.627 1328.88,336.689 1339.12,338.187 1349.36,334.293 1359.6,325.009 1369.84,312.494 1380.09,300.584 1390.33,293.627 1400.57,294.962 1410.81,305.577 1421.05,323.431 1431.3,343.751 1441.54,360.298 1451.78,367.278 1462.02,361.303 1472.26,342.765 1482.51,316.099 1492.75,288.772 1502.99,269.187 1513.23,264.113 1523.47,276.413 1533.71,303.815 1543.96,339.204 1554.2,372.448 1564.44,393.297 1574.68,394.532 1584.92,374.389 1595.17,337.473 1605.41,293.775 1615.65,255.977 1625.89,235.77 1636.13,240.263 1646.38,269.558 1656.62,316.324 1666.86,367.592 1677.1,408.345 1687.34,425.915 1697.58,413.9 1707.83,374.391 1718.07,317.764 1728.31,259.977 1738.55,218.076 1748.79,205.172 1759.04,226.362 1769.28,276.867 1779.52,343.029 1789.76,405.992 1800,447.07 1810.24,453.292 1820.49,421.463 1830.73,359.487 1840.97,284.451 1851.21,217.925 1861.45,179.76 1871.7,182.173 1881.94,225.876 1892.18,299.47 1902.42,382.385 1912.66,450.626 1922.91,483.716 1933.15,470.831 1943.39,414.286 1953.63,329.27 1963.87,239.788 1974.11,171.879 1984.36,146.047 1994.6,171.08 2004.84,241.134 2015.08,337.024 2025.32,431.465 2035.57,496.837 2045.81,513.257 2056.05,474.61 2066.29,390.709 2076.53,284.842 2086.77,187.322 2097.02,126.803 2107.26,121.867 2117.5,175.34 2127.74,273.079 2137.98,387.68 2148.23,486.161 2158.47,539.451 2168.71,530.966 2178.95,461.743 2189.19,350.54 2199.44,228.775 2209.68,131.65 2219.92,87.9763 2230.16,111.636 2240.4,197.208 2250.64,321.132 2260.89,448.181 2271.13,541.479 2281.37,573.194 2291.61,532.837 "/>
<path clip-path="url(#clip130)" d="M264.353 250.738 L707.222 250.738 L707.222 95.2176 L264.353 95.2176  Z" fill="#ffffff" fill-rule="evenodd" fill-opacity="1"/>
<polyline clip-path="url(#clip130)" style="stroke:#000000; stroke-linecap:round; stroke-linejoin:round; stroke-width:4; stroke-opacity:1; fill:none" points="264.353,250.738 707.222,250.738 707.222,95.2176 264.353,95.2176 264.353,250.738 "/>
<polyline clip-path="url(#clip130)" style="stroke:#009af9; stroke-linecap:round; stroke-linejoin:round; stroke-width:16; stroke-opacity:1; fill:none" stroke-dasharray="8, 16" points="288.357,147.058 432.385,147.058 "/>
<path clip-path="url(#clip130)" d="M461.066 133.62 L461.066 146.606 L466.945 146.606 Q470.209 146.606 471.992 144.916 Q473.774 143.227 473.774 140.102 Q473.774 137 471.992 135.31 Q470.209 133.62 466.945 133.62 L461.066 133.62 M456.39 129.778 L466.945 129.778 Q472.755 129.778 475.718 132.416 Q478.704 135.032 478.704 140.102 Q478.704 145.217 475.718 147.833 Q472.755 150.449 466.945 150.449 L461.066 150.449 L461.066 164.338 L456.39 164.338 L456.39 129.778 Z" fill="#000000" fill-rule="nonzero" fill-opacity="1" /><path clip-path="url(#clip130)" d="M498.982 142.393 Q498.265 141.977 497.408 141.791 Q496.575 141.583 495.556 141.583 Q491.945 141.583 490.001 143.944 Q488.079 146.282 488.079 150.68 L488.079 164.338 L483.797 164.338 L483.797 138.412 L488.079 138.412 L488.079 142.44 Q489.422 140.078 491.575 138.944 Q493.728 137.787 496.806 137.787 Q497.246 137.787 497.778 137.856 Q498.311 137.903 498.959 138.018 L498.982 142.393 Z" fill="#000000" fill-rule="nonzero" fill-opacity="1" /><path clip-path="url(#clip130)" d="M524.584 150.31 L524.584 152.393 L505.001 152.393 Q505.278 156.791 507.639 159.106 Q510.024 161.398 514.26 161.398 Q516.714 161.398 519.005 160.796 Q521.32 160.194 523.588 158.99 L523.588 163.018 Q521.297 163.99 518.889 164.5 Q516.482 165.009 514.005 165.009 Q507.802 165.009 504.167 161.398 Q500.556 157.787 500.556 151.629 Q500.556 145.264 503.982 141.537 Q507.431 137.787 513.264 137.787 Q518.496 137.787 521.528 141.166 Q524.584 144.523 524.584 150.31 M520.325 149.06 Q520.278 145.565 518.357 143.481 Q516.459 141.398 513.311 141.398 Q509.746 141.398 507.593 143.412 Q505.464 145.426 505.14 149.083 L520.325 149.06 Z" fill="#000000" fill-rule="nonzero" fill-opacity="1" /><path clip-path="url(#clip130)" d="M548.635 142.347 L548.635 128.319 L552.894 128.319 L552.894 164.338 L548.635 164.338 L548.635 160.449 Q547.292 162.763 545.232 163.898 Q543.195 165.009 540.325 165.009 Q535.625 165.009 532.663 161.259 Q529.723 157.509 529.723 151.398 Q529.723 145.287 532.663 141.537 Q535.625 137.787 540.325 137.787 Q543.195 137.787 545.232 138.921 Q547.292 140.032 548.635 142.347 M534.121 151.398 Q534.121 156.097 536.042 158.782 Q537.987 161.444 541.366 161.444 Q544.746 161.444 546.69 158.782 Q548.635 156.097 548.635 151.398 Q548.635 146.699 546.69 144.037 Q544.746 141.352 541.366 141.352 Q537.987 141.352 536.042 144.037 Q534.121 146.699 534.121 151.398 Z" fill="#000000" fill-rule="nonzero" fill-opacity="1" /><path clip-path="url(#clip130)" d="M561.667 138.412 L565.926 138.412 L565.926 164.338 L561.667 164.338 L561.667 138.412 M561.667 128.319 L565.926 128.319 L565.926 133.713 L561.667 133.713 L561.667 128.319 Z" fill="#000000" fill-rule="nonzero" fill-opacity="1" /><path clip-path="url(#clip130)" d="M593.496 139.407 L593.496 143.389 Q591.69 142.393 589.861 141.907 Q588.056 141.398 586.204 141.398 Q582.06 141.398 579.769 144.037 Q577.477 146.652 577.477 151.398 Q577.477 156.143 579.769 158.782 Q582.06 161.398 586.204 161.398 Q588.056 161.398 589.861 160.912 Q591.69 160.402 593.496 159.407 L593.496 163.342 Q591.713 164.176 589.792 164.592 Q587.894 165.009 585.741 165.009 Q579.884 165.009 576.435 161.328 Q572.986 157.648 572.986 151.398 Q572.986 145.055 576.459 141.421 Q579.954 137.787 586.019 137.787 Q587.986 137.787 589.861 138.203 Q591.736 138.597 593.496 139.407 Z" fill="#000000" fill-rule="nonzero" fill-opacity="1" /><path clip-path="url(#clip130)" d="M605.116 131.051 L605.116 138.412 L613.889 138.412 L613.889 141.722 L605.116 141.722 L605.116 155.796 Q605.116 158.967 605.972 159.87 Q606.852 160.773 609.514 160.773 L613.889 160.773 L613.889 164.338 L609.514 164.338 Q604.583 164.338 602.708 162.509 Q600.833 160.657 600.833 155.796 L600.833 141.722 L597.708 141.722 L597.708 138.412 L600.833 138.412 L600.833 131.051 L605.116 131.051 Z" fill="#000000" fill-rule="nonzero" fill-opacity="1" /><path clip-path="url(#clip130)" d="M619.491 138.412 L623.75 138.412 L623.75 164.338 L619.491 164.338 L619.491 138.412 M619.491 128.319 L623.75 128.319 L623.75 133.713 L619.491 133.713 L619.491 128.319 Z" fill="#000000" fill-rule="nonzero" fill-opacity="1" /><path clip-path="url(#clip130)" d="M642.708 141.398 Q639.282 141.398 637.292 144.083 Q635.301 146.745 635.301 151.398 Q635.301 156.051 637.268 158.736 Q639.259 161.398 642.708 161.398 Q646.111 161.398 648.102 158.713 Q650.092 156.027 650.092 151.398 Q650.092 146.791 648.102 144.106 Q646.111 141.398 642.708 141.398 M642.708 137.787 Q648.264 137.787 651.435 141.398 Q654.606 145.009 654.606 151.398 Q654.606 157.764 651.435 161.398 Q648.264 165.009 642.708 165.009 Q637.13 165.009 633.958 161.398 Q630.81 157.764 630.81 151.398 Q630.81 145.009 633.958 141.398 Q637.13 137.787 642.708 137.787 Z" fill="#000000" fill-rule="nonzero" fill-opacity="1" /><path clip-path="url(#clip130)" d="M683.217 148.689 L683.217 164.338 L678.958 164.338 L678.958 148.828 Q678.958 145.148 677.523 143.319 Q676.088 141.49 673.217 141.49 Q669.768 141.49 667.778 143.69 Q665.787 145.889 665.787 149.685 L665.787 164.338 L661.504 164.338 L661.504 138.412 L665.787 138.412 L665.787 142.44 Q667.315 140.102 669.375 138.944 Q671.458 137.787 674.166 137.787 Q678.634 137.787 680.926 140.565 Q683.217 143.319 683.217 148.689 Z" fill="#000000" fill-rule="nonzero" fill-opacity="1" /><polyline clip-path="url(#clip130)" style="stroke:#e26f46; stroke-linecap:round; stroke-linejoin:round; stroke-width:4; stroke-opacity:1; fill:none" points="288.357,198.898 432.385,198.898 "/>
<path clip-path="url(#clip130)" d="M456.39 181.618 L478.242 181.618 L478.242 185.553 L461.066 185.553 L461.066 195.784 L477.524 195.784 L477.524 199.719 L461.066 199.719 L461.066 212.242 L478.658 212.242 L478.658 216.178 L456.39 216.178 L456.39 181.618 Z" fill="#000000" fill-rule="nonzero" fill-opacity="1" /><path clip-path="url(#clip130)" d="M507.709 190.252 L498.334 202.867 L508.195 216.178 L503.172 216.178 L495.626 205.992 L488.079 216.178 L483.056 216.178 L493.126 202.613 L483.913 190.252 L488.936 190.252 L495.811 199.488 L502.686 190.252 L507.709 190.252 Z" fill="#000000" fill-rule="nonzero" fill-opacity="1" /><path clip-path="url(#clip130)" d="M525.996 203.145 Q520.834 203.145 518.843 204.326 Q516.852 205.506 516.852 208.354 Q516.852 210.622 518.334 211.965 Q519.838 213.284 522.408 213.284 Q525.95 213.284 528.079 210.784 Q530.232 208.261 530.232 204.094 L530.232 203.145 L525.996 203.145 M534.491 201.386 L534.491 216.178 L530.232 216.178 L530.232 212.242 Q528.774 214.603 526.598 215.738 Q524.422 216.849 521.274 216.849 Q517.292 216.849 514.931 214.627 Q512.593 212.381 512.593 208.631 Q512.593 204.256 515.51 202.034 Q518.45 199.812 524.26 199.812 L530.232 199.812 L530.232 199.395 Q530.232 196.455 528.288 194.858 Q526.366 193.238 522.871 193.238 Q520.649 193.238 518.542 193.77 Q516.436 194.303 514.491 195.367 L514.491 191.432 Q516.829 190.53 519.028 190.09 Q521.227 189.627 523.311 189.627 Q528.936 189.627 531.713 192.543 Q534.491 195.46 534.491 201.386 Z" fill="#000000" fill-rule="nonzero" fill-opacity="1" /><path clip-path="url(#clip130)" d="M561.922 191.247 L561.922 195.229 Q560.116 194.233 558.287 193.747 Q556.482 193.238 554.63 193.238 Q550.486 193.238 548.195 195.877 Q545.903 198.492 545.903 203.238 Q545.903 207.983 548.195 210.622 Q550.486 213.238 554.63 213.238 Q556.482 213.238 558.287 212.752 Q560.116 212.242 561.922 211.247 L561.922 215.182 Q560.139 216.016 558.218 216.432 Q556.32 216.849 554.167 216.849 Q548.311 216.849 544.862 213.168 Q541.412 209.488 541.412 203.238 Q541.412 196.895 544.885 193.261 Q548.38 189.627 554.445 189.627 Q556.412 189.627 558.287 190.043 Q560.162 190.437 561.922 191.247 Z" fill="#000000" fill-rule="nonzero" fill-opacity="1" /><path clip-path="url(#clip130)" d="M573.542 182.891 L573.542 190.252 L582.315 190.252 L582.315 193.562 L573.542 193.562 L573.542 207.636 Q573.542 210.807 574.398 211.71 Q575.278 212.613 577.94 212.613 L582.315 212.613 L582.315 216.178 L577.94 216.178 Q573.01 216.178 571.135 214.349 Q569.26 212.497 569.26 207.636 L569.26 193.562 L566.135 193.562 L566.135 190.252 L569.26 190.252 L569.26 182.891 L573.542 182.891 Z" fill="#000000" fill-rule="nonzero" fill-opacity="1" /></svg>
