<?xml version="1.0" encoding="utf-8"?>
<svg xmlns="http://www.w3.org/2000/svg" xmlns:xlink="http://www.w3.org/1999/xlink" width="600" height="400" viewBox="0 0 2400 1600">
<defs>
  <clipPath id="clip260">
    <rect x="0" y="0" width="2400" height="1600"/>
  </clipPath>
</defs>
<path clip-path="url(#clip260)" d="M0 1600 L2400 1600 L2400 0 L0 0  Z" fill="#ffffff" fill-rule="evenodd" fill-opacity="1"/>
<defs>
  <clipPath id="clip261">
    <rect x="480" y="0" width="1681" height="1600"/>
  </clipPath>
</defs>
<path clip-path="url(#clip260)" d="M156.274 1486.45 L2352.76 1486.45 L2352.76 47.2441 L156.274 47.2441  Z" fill="#ffffff" fill-rule="evenodd" fill-opacity="1"/>
<defs>
  <clipPath id="clip262">
    <rect x="156" y="47" width="2197" height="1440"/>
  </clipPath>
</defs>
<polyline clip-path="url(#clip262)" style="stroke:#000000; stroke-linecap:round; stroke-linejoin:round; stroke-width:2; stroke-opacity:0.1; fill:none" points="218.439,1486.45 218.439,47.2441 "/>
<polyline clip-path="url(#clip262)" style="stroke:#000000; stroke-linecap:round; stroke-linejoin:round; stroke-width:2; stroke-opacity:0.1; fill:none" points="736.477,1486.45 736.477,47.2441 "/>
<polyline clip-path="url(#clip262)" style="stroke:#000000; stroke-linecap:round; stroke-linejoin:round; stroke-width:2; stroke-opacity:0.1; fill:none" points="1254.52,1486.45 1254.52,47.2441 "/>
<polyline clip-path="url(#clip262)" style="stroke:#000000; stroke-linecap:round; stroke-linejoin:round; stroke-width:2; stroke-opacity:0.1; fill:none" points="1772.55,1486.45 1772.55,47.2441 "/>
<polyline clip-path="url(#clip262)" style="stroke:#000000; stroke-linecap:round; stroke-linejoin:round; stroke-width:2; stroke-opacity:0.1; fill:none" points="2290.59,1486.45 2290.59,47.2441 "/>
<polyline clip-path="url(#clip260)" style="stroke:#000000; stroke-linecap:round; stroke-linejoin:round; stroke-width:4; stroke-opacity:1; fill:none" points="156.274,1486.45 2352.76,1486.45 "/>
<polyline clip-path="url(#clip260)" style="stroke:#000000; stroke-linecap:round; stroke-linejoin:round; stroke-width:4; stroke-opacity:1; fill:none" points="218.439,1486.45 218.439,1467.55 "/>
<polyline clip-path="url(#clip260)" style="stroke:#000000; stroke-linecap:round; stroke-linejoin:round; stroke-width:4; stroke-opacity:1; fill:none" points="736.477,1486.45 736.477,1467.55 "/>
<polyline clip-path="url(#clip260)" style="stroke:#000000; stroke-linecap:round; stroke-linejoin:round; stroke-width:4; stroke-opacity:1; fill:none" points="1254.52,1486.45 1254.52,1467.55 "/>
<polyline clip-path="url(#clip260)" style="stroke:#000000; stroke-linecap:round; stroke-linejoin:round; stroke-width:4; stroke-opacity:1; fill:none" points="1772.55,1486.45 1772.55,1467.55 "/>
<polyline clip-path="url(#clip260)" style="stroke:#000000; stroke-linecap:round; stroke-linejoin:round; stroke-width:4; stroke-opacity:1; fill:none" points="2290.59,1486.45 2290.59,1467.55 "/>
<path clip-path="url(#clip260)" d="M164.967 1532.02 L194.643 1532.02 L194.643 1535.95 L164.967 1535.95 L164.967 1532.02 Z" fill="#000000" fill-rule="nonzero" fill-opacity="1" /><path clip-path="url(#clip260)" d="M205.545 1544.91 L213.184 1544.91 L213.184 1518.55 L204.874 1520.21 L204.874 1515.95 L213.138 1514.29 L217.814 1514.29 L217.814 1544.91 L225.453 1544.91 L225.453 1548.85 L205.545 1548.85 L205.545 1544.91 Z" fill="#000000" fill-rule="nonzero" fill-opacity="1" /><path clip-path="url(#clip260)" d="M234.897 1542.97 L239.781 1542.97 L239.781 1548.85 L234.897 1548.85 L234.897 1542.97 Z" fill="#000000" fill-rule="nonzero" fill-opacity="1" /><path clip-path="url(#clip260)" d="M259.966 1517.37 Q256.355 1517.37 254.527 1520.93 Q252.721 1524.47 252.721 1531.6 Q252.721 1538.71 254.527 1542.27 Q256.355 1545.82 259.966 1545.82 Q263.601 1545.82 265.406 1542.27 Q267.235 1538.71 267.235 1531.6 Q267.235 1524.47 265.406 1520.93 Q263.601 1517.37 259.966 1517.37 M259.966 1513.66 Q265.776 1513.66 268.832 1518.27 Q271.911 1522.85 271.911 1531.6 Q271.911 1540.33 268.832 1544.94 Q265.776 1549.52 259.966 1549.52 Q254.156 1549.52 251.077 1544.94 Q248.022 1540.33 248.022 1531.6 Q248.022 1522.85 251.077 1518.27 Q254.156 1513.66 259.966 1513.66 Z" fill="#000000" fill-rule="nonzero" fill-opacity="1" /><path clip-path="url(#clip260)" d="M683.503 1532.02 L713.178 1532.02 L713.178 1535.95 L683.503 1535.95 L683.503 1532.02 Z" fill="#000000" fill-rule="nonzero" fill-opacity="1" /><path clip-path="url(#clip260)" d="M733.271 1517.37 Q729.66 1517.37 727.831 1520.93 Q726.026 1524.47 726.026 1531.6 Q726.026 1538.71 727.831 1542.27 Q729.66 1545.82 733.271 1545.82 Q736.905 1545.82 738.711 1542.27 Q740.539 1538.71 740.539 1531.6 Q740.539 1524.47 738.711 1520.93 Q736.905 1517.37 733.271 1517.37 M733.271 1513.66 Q739.081 1513.66 742.137 1518.27 Q745.215 1522.85 745.215 1531.6 Q745.215 1540.33 742.137 1544.94 Q739.081 1549.52 733.271 1549.52 Q727.461 1549.52 724.382 1544.94 Q721.327 1540.33 721.327 1531.6 Q721.327 1522.85 724.382 1518.27 Q727.461 1513.66 733.271 1513.66 Z" fill="#000000" fill-rule="nonzero" fill-opacity="1" /><path clip-path="url(#clip260)" d="M753.433 1542.97 L758.317 1542.97 L758.317 1548.85 L753.433 1548.85 L753.433 1542.97 Z" fill="#000000" fill-rule="nonzero" fill-opacity="1" /><path clip-path="url(#clip260)" d="M768.548 1514.29 L786.905 1514.29 L786.905 1518.22 L772.831 1518.22 L772.831 1526.7 Q773.849 1526.35 774.868 1526.19 Q775.886 1526 776.905 1526 Q782.692 1526 786.072 1529.17 Q789.451 1532.34 789.451 1537.76 Q789.451 1543.34 785.979 1546.44 Q782.507 1549.52 776.187 1549.52 Q774.011 1549.52 771.743 1549.15 Q769.498 1548.78 767.09 1548.04 L767.09 1543.34 Q769.173 1544.47 771.396 1545.03 Q773.618 1545.58 776.095 1545.58 Q780.099 1545.58 782.437 1543.48 Q784.775 1541.37 784.775 1537.76 Q784.775 1534.15 782.437 1532.04 Q780.099 1529.94 776.095 1529.94 Q774.22 1529.94 772.345 1530.35 Q770.493 1530.77 768.548 1531.65 L768.548 1514.29 Z" fill="#000000" fill-rule="nonzero" fill-opacity="1" /><path clip-path="url(#clip260)" d="M1231.9 1517.37 Q1228.29 1517.37 1226.46 1520.93 Q1224.65 1524.47 1224.65 1531.6 Q1224.65 1538.71 1226.46 1542.27 Q1228.29 1545.82 1231.9 1545.82 Q1235.53 1545.82 1237.34 1542.27 Q1239.17 1538.71 1239.17 1531.6 Q1239.17 1524.47 1237.34 1520.93 Q1235.53 1517.37 1231.9 1517.37 M1231.9 1513.66 Q1237.71 1513.66 1240.77 1518.27 Q1243.84 1522.85 1243.84 1531.6 Q1243.84 1540.33 1240.77 1544.94 Q1237.71 1549.52 1231.9 1549.52 Q1226.09 1549.52 1223.01 1544.94 Q1219.96 1540.33 1219.96 1531.6 Q1219.96 1522.85 1223.01 1518.27 Q1226.09 1513.66 1231.9 1513.66 Z" fill="#000000" fill-rule="nonzero" fill-opacity="1" /><path clip-path="url(#clip260)" d="M1252.06 1542.97 L1256.95 1542.97 L1256.95 1548.85 L1252.06 1548.85 L1252.06 1542.97 Z" fill="#000000" fill-rule="nonzero" fill-opacity="1" /><path clip-path="url(#clip260)" d="M1277.13 1517.37 Q1273.52 1517.37 1271.69 1520.93 Q1269.89 1524.47 1269.89 1531.6 Q1269.89 1538.71 1271.69 1542.27 Q1273.52 1545.82 1277.13 1545.82 Q1280.76 1545.82 1282.57 1542.27 Q1284.4 1538.71 1284.4 1531.6 Q1284.4 1524.47 1282.57 1520.93 Q1280.76 1517.37 1277.13 1517.37 M1277.13 1513.66 Q1282.94 1513.66 1286 1518.27 Q1289.08 1522.85 1289.08 1531.6 Q1289.08 1540.33 1286 1544.94 Q1282.94 1549.52 1277.13 1549.52 Q1271.32 1549.52 1268.24 1544.94 Q1265.19 1540.33 1265.19 1531.6 Q1265.19 1522.85 1268.24 1518.27 Q1271.32 1513.66 1277.13 1513.66 Z" fill="#000000" fill-rule="nonzero" fill-opacity="1" /><path clip-path="url(#clip260)" d="M1750.44 1517.37 Q1746.82 1517.37 1745 1520.93 Q1743.19 1524.47 1743.19 1531.6 Q1743.19 1538.71 1745 1542.27 Q1746.82 1545.82 1750.44 1545.82 Q1754.07 1545.82 1755.88 1542.27 Q1757.7 1538.71 1757.7 1531.6 Q1757.7 1524.47 1755.88 1520.93 Q1754.07 1517.37 1750.44 1517.37 M1750.44 1513.66 Q1756.25 1513.66 1759.3 1518.27 Q1762.38 1522.85 1762.38 1531.6 Q1762.38 1540.33 1759.3 1544.94 Q1756.25 1549.52 1750.44 1549.52 Q1744.63 1549.52 1741.55 1544.94 Q1738.49 1540.33 1738.49 1531.6 Q1738.49 1522.85 1741.55 1518.27 Q1744.63 1513.66 1750.44 1513.66 Z" fill="#000000" fill-rule="nonzero" fill-opacity="1" /><path clip-path="url(#clip260)" d="M1770.6 1542.97 L1775.48 1542.97 L1775.48 1548.85 L1770.6 1548.85 L1770.6 1542.97 Z" fill="#000000" fill-rule="nonzero" fill-opacity="1" /><path clip-path="url(#clip260)" d="M1785.71 1514.29 L1804.07 1514.29 L1804.07 1518.22 L1790 1518.22 L1790 1526.7 Q1791.01 1526.35 1792.03 1526.19 Q1793.05 1526 1794.07 1526 Q1799.86 1526 1803.24 1529.17 Q1806.62 1532.34 1806.62 1537.76 Q1806.62 1543.34 1803.14 1546.44 Q1799.67 1549.52 1793.35 1549.52 Q1791.18 1549.52 1788.91 1549.15 Q1786.66 1548.78 1784.25 1548.04 L1784.25 1543.34 Q1786.34 1544.47 1788.56 1545.03 Q1790.78 1545.58 1793.26 1545.58 Q1797.26 1545.58 1799.6 1543.48 Q1801.94 1541.37 1801.94 1537.76 Q1801.94 1534.15 1799.6 1532.04 Q1797.26 1529.94 1793.26 1529.94 Q1791.38 1529.94 1789.51 1530.35 Q1787.66 1530.77 1785.71 1531.65 L1785.71 1514.29 Z" fill="#000000" fill-rule="nonzero" fill-opacity="1" /><path clip-path="url(#clip260)" d="M2257.74 1544.91 L2265.38 1544.91 L2265.38 1518.55 L2257.07 1520.21 L2257.07 1515.95 L2265.34 1514.29 L2270.01 1514.29 L2270.01 1544.91 L2277.65 1544.91 L2277.65 1548.85 L2257.74 1548.85 L2257.74 1544.91 Z" fill="#000000" fill-rule="nonzero" fill-opacity="1" /><path clip-path="url(#clip260)" d="M2287.1 1542.97 L2291.98 1542.97 L2291.98 1548.85 L2287.1 1548.85 L2287.1 1542.97 Z" fill="#000000" fill-rule="nonzero" fill-opacity="1" /><path clip-path="url(#clip260)" d="M2312.17 1517.37 Q2308.55 1517.37 2306.73 1520.93 Q2304.92 1524.47 2304.92 1531.6 Q2304.92 1538.71 2306.73 1542.27 Q2308.55 1545.82 2312.17 1545.82 Q2315.8 1545.82 2317.61 1542.27 Q2319.43 1538.71 2319.43 1531.6 Q2319.43 1524.47 2317.61 1520.93 Q2315.8 1517.37 2312.17 1517.37 M2312.17 1513.66 Q2317.98 1513.66 2321.03 1518.27 Q2324.11 1522.85 2324.11 1531.6 Q2324.11 1540.33 2321.03 1544.94 Q2317.98 1549.52 2312.17 1549.52 Q2306.36 1549.52 2303.28 1544.94 Q2300.22 1540.33 2300.22 1531.6 Q2300.22 1522.85 2303.28 1518.27 Q2306.36 1513.66 2312.17 1513.66 Z" fill="#000000" fill-rule="nonzero" fill-opacity="1" /><polyline clip-path="url(#clip262)" style="stroke:#000000; stroke-linecap:round; stroke-linejoin:round; stroke-width:2; stroke-opacity:0.1; fill:none" points="156.274,1261.54 2352.76,1261.54 "/>
<polyline clip-path="url(#clip262)" style="stroke:#000000; stroke-linecap:round; stroke-linejoin:round; stroke-width:2; stroke-opacity:0.1; fill:none" points="156.274,986.728 2352.76,986.728 "/>
<polyline clip-path="url(#clip262)" style="stroke:#000000; stroke-linecap:round; stroke-linejoin:round; stroke-width:2; stroke-opacity:0.1; fill:none" points="156.274,711.92 2352.76,711.92 "/>
<polyline clip-path="url(#clip262)" style="stroke:#000000; stroke-linecap:round; stroke-linejoin:round; stroke-width:2; stroke-opacity:0.1; fill:none" points="156.274,437.111 2352.76,437.111 "/>
<polyline clip-path="url(#clip262)" style="stroke:#000000; stroke-linecap:round; stroke-linejoin:round; stroke-width:2; stroke-opacity:0.1; fill:none" points="156.274,162.303 2352.76,162.303 "/>
<polyline clip-path="url(#clip260)" style="stroke:#000000; stroke-linecap:round; stroke-linejoin:round; stroke-width:4; stroke-opacity:1; fill:none" points="156.274,1486.45 156.274,47.2441 "/>
<polyline clip-path="url(#clip260)" style="stroke:#000000; stroke-linecap:round; stroke-linejoin:round; stroke-width:4; stroke-opacity:1; fill:none" points="156.274,1261.54 175.172,1261.54 "/>
<polyline clip-path="url(#clip260)" style="stroke:#000000; stroke-linecap:round; stroke-linejoin:round; stroke-width:4; stroke-opacity:1; fill:none" points="156.274,986.728 175.172,986.728 "/>
<polyline clip-path="url(#clip260)" style="stroke:#000000; stroke-linecap:round; stroke-linejoin:round; stroke-width:4; stroke-opacity:1; fill:none" points="156.274,711.92 175.172,711.92 "/>
<polyline clip-path="url(#clip260)" style="stroke:#000000; stroke-linecap:round; stroke-linejoin:round; stroke-width:4; stroke-opacity:1; fill:none" points="156.274,437.111 175.172,437.111 "/>
<polyline clip-path="url(#clip260)" style="stroke:#000000; stroke-linecap:round; stroke-linejoin:round; stroke-width:4; stroke-opacity:1; fill:none" points="156.274,162.303 175.172,162.303 "/>
<path clip-path="url(#clip260)" d="M63.0985 1247.34 Q59.4875 1247.34 57.6588 1250.9 Q55.8532 1254.44 55.8532 1261.57 Q55.8532 1268.68 57.6588 1272.24 Q59.4875 1275.78 63.0985 1275.78 Q66.7328 1275.78 68.5383 1272.24 Q70.367 1268.68 70.367 1261.57 Q70.367 1254.44 68.5383 1250.9 Q66.7328 1247.34 63.0985 1247.34 M63.0985 1243.63 Q68.9087 1243.63 71.9642 1248.24 Q75.0429 1252.82 75.0429 1261.57 Q75.0429 1270.3 71.9642 1274.9 Q68.9087 1279.49 63.0985 1279.49 Q57.2884 1279.49 54.2097 1274.9 Q51.1542 1270.3 51.1542 1261.57 Q51.1542 1252.82 54.2097 1248.24 Q57.2884 1243.63 63.0985 1243.63 Z" fill="#000000" fill-rule="nonzero" fill-opacity="1" /><path clip-path="url(#clip260)" d="M83.2605 1272.94 L88.1447 1272.94 L88.1447 1278.82 L83.2605 1278.82 L83.2605 1272.94 Z" fill="#000000" fill-rule="nonzero" fill-opacity="1" /><path clip-path="url(#clip260)" d="M108.33 1247.34 Q104.719 1247.34 102.89 1250.9 Q101.084 1254.44 101.084 1261.57 Q101.084 1268.68 102.89 1272.24 Q104.719 1275.78 108.33 1275.78 Q111.964 1275.78 113.77 1272.24 Q115.598 1268.68 115.598 1261.57 Q115.598 1254.44 113.77 1250.9 Q111.964 1247.34 108.33 1247.34 M108.33 1243.63 Q114.14 1243.63 117.195 1248.24 Q120.274 1252.82 120.274 1261.57 Q120.274 1270.3 117.195 1274.9 Q114.14 1279.49 108.33 1279.49 Q102.52 1279.49 99.4409 1274.9 Q96.3854 1270.3 96.3854 1261.57 Q96.3854 1252.82 99.4409 1248.24 Q102.52 1243.63 108.33 1243.63 Z" fill="#000000" fill-rule="nonzero" fill-opacity="1" /><path clip-path="url(#clip260)" d="M63.7467 972.527 Q60.1356 972.527 58.3069 976.092 Q56.5014 979.633 56.5014 986.763 Q56.5014 993.869 58.3069 997.434 Q60.1356 1000.98 63.7467 1000.98 Q67.3809 1000.98 69.1865 997.434 Q71.0152 993.869 71.0152 986.763 Q71.0152 979.633 69.1865 976.092 Q67.3809 972.527 63.7467 972.527 M63.7467 968.823 Q69.5568 968.823 72.6124 973.43 Q75.6911 978.013 75.6911 986.763 Q75.6911 995.49 72.6124 1000.1 Q69.5568 1004.68 63.7467 1004.68 Q57.9365 1004.68 54.8578 1000.1 Q51.8023 995.49 51.8023 986.763 Q51.8023 978.013 54.8578 973.43 Q57.9365 968.823 63.7467 968.823 Z" fill="#000000" fill-rule="nonzero" fill-opacity="1" /><path clip-path="url(#clip260)" d="M83.9086 998.129 L88.7928 998.129 L88.7928 1004.01 L83.9086 1004.01 L83.9086 998.129 Z" fill="#000000" fill-rule="nonzero" fill-opacity="1" /><path clip-path="url(#clip260)" d="M113.145 985.374 Q116.501 986.092 118.376 988.36 Q120.274 990.629 120.274 993.962 Q120.274 999.078 116.756 1001.88 Q113.237 1004.68 106.756 1004.68 Q104.58 1004.68 102.265 1004.24 Q99.9733 1003.82 97.5197 1002.97 L97.5197 998.453 Q99.4641 999.587 101.779 1000.17 Q104.094 1000.74 106.617 1000.74 Q111.015 1000.74 113.307 999.008 Q115.621 997.272 115.621 993.962 Q115.621 990.906 113.469 989.193 Q111.339 987.457 107.52 987.457 L103.492 987.457 L103.492 983.615 L107.705 983.615 Q111.154 983.615 112.983 982.249 Q114.811 980.86 114.811 978.268 Q114.811 975.606 112.913 974.193 Q111.038 972.758 107.52 972.758 Q105.598 972.758 103.399 973.175 Q101.2 973.592 98.5613 974.471 L98.5613 970.305 Q101.223 969.564 103.538 969.194 Q105.876 968.823 107.936 968.823 Q113.26 968.823 116.362 971.254 Q119.464 973.661 119.464 977.781 Q119.464 980.652 117.82 982.643 Q116.177 984.61 113.145 985.374 Z" fill="#000000" fill-rule="nonzero" fill-opacity="1" /><path clip-path="url(#clip260)" d="M62.9365 697.718 Q59.3254 697.718 57.4967 701.283 Q55.6912 704.825 55.6912 711.954 Q55.6912 719.061 57.4967 722.626 Q59.3254 726.167 62.9365 726.167 Q66.5707 726.167 68.3763 722.626 Q70.205 719.061 70.205 711.954 Q70.205 704.825 68.3763 701.283 Q66.5707 697.718 62.9365 697.718 M62.9365 694.015 Q68.7467 694.015 71.8022 698.621 Q74.8809 703.204 74.8809 711.954 Q74.8809 720.681 71.8022 725.288 Q68.7467 729.871 62.9365 729.871 Q57.1264 729.871 54.0477 725.288 Q50.9921 720.681 50.9921 711.954 Q50.9921 703.204 54.0477 698.621 Q57.1264 694.015 62.9365 694.015 Z" fill="#000000" fill-rule="nonzero" fill-opacity="1" /><path clip-path="url(#clip260)" d="M83.0984 723.32 L87.9827 723.32 L87.9827 729.2 L83.0984 729.2 L83.0984 723.32 Z" fill="#000000" fill-rule="nonzero" fill-opacity="1" /><path clip-path="url(#clip260)" d="M108.746 710.056 Q105.598 710.056 103.746 712.209 Q101.918 714.362 101.918 718.112 Q101.918 721.839 103.746 724.014 Q105.598 726.167 108.746 726.167 Q111.895 726.167 113.723 724.014 Q115.575 721.839 115.575 718.112 Q115.575 714.362 113.723 712.209 Q111.895 710.056 108.746 710.056 M118.029 695.404 L118.029 699.663 Q116.27 698.829 114.464 698.39 Q112.682 697.95 110.922 697.95 Q106.293 697.95 103.839 701.075 Q101.409 704.2 101.061 710.519 Q102.427 708.505 104.487 707.441 Q106.547 706.353 109.024 706.353 Q114.233 706.353 117.242 709.524 Q120.274 712.672 120.274 718.112 Q120.274 723.436 117.126 726.653 Q113.978 729.871 108.746 729.871 Q102.751 729.871 99.5798 725.288 Q96.4085 720.681 96.4085 711.954 Q96.4085 703.76 100.297 698.899 Q104.186 694.015 110.737 694.015 Q112.496 694.015 114.279 694.362 Q116.084 694.709 118.029 695.404 Z" fill="#000000" fill-rule="nonzero" fill-opacity="1" /><path clip-path="url(#clip260)" d="M63.2837 422.91 Q59.6726 422.91 57.8439 426.475 Q56.0384 430.016 56.0384 437.146 Q56.0384 444.252 57.8439 447.817 Q59.6726 451.359 63.2837 451.359 Q66.918 451.359 68.7235 447.817 Q70.5522 444.252 70.5522 437.146 Q70.5522 430.016 68.7235 426.475 Q66.918 422.91 63.2837 422.91 M63.2837 419.206 Q69.0939 419.206 72.1494 423.813 Q75.2281 428.396 75.2281 437.146 Q75.2281 445.873 72.1494 450.479 Q69.0939 455.062 63.2837 455.062 Q57.4736 455.062 54.3949 450.479 Q51.3393 445.873 51.3393 437.146 Q51.3393 428.396 54.3949 423.813 Q57.4736 419.206 63.2837 419.206 Z" fill="#000000" fill-rule="nonzero" fill-opacity="1" /><path clip-path="url(#clip260)" d="M83.4457 448.512 L88.3299 448.512 L88.3299 454.391 L83.4457 454.391 L83.4457 448.512 Z" fill="#000000" fill-rule="nonzero" fill-opacity="1" /><path clip-path="url(#clip260)" d="M98.6539 453.674 L98.6539 449.414 Q100.413 450.248 102.219 450.687 Q104.024 451.127 105.76 451.127 Q110.39 451.127 112.82 448.025 Q115.274 444.9 115.621 438.558 Q114.279 440.549 112.219 441.613 Q110.158 442.678 107.658 442.678 Q102.473 442.678 99.4409 439.553 Q96.4317 436.405 96.4317 430.965 Q96.4317 425.641 99.5798 422.424 Q102.728 419.206 107.959 419.206 Q113.955 419.206 117.103 423.813 Q120.274 428.396 120.274 437.146 Q120.274 445.317 116.385 450.201 Q112.52 455.062 105.969 455.062 Q104.209 455.062 102.404 454.715 Q100.598 454.368 98.6539 453.674 M107.959 439.021 Q111.108 439.021 112.936 436.868 Q114.788 434.715 114.788 430.965 Q114.788 427.239 112.936 425.086 Q111.108 422.91 107.959 422.91 Q104.811 422.91 102.959 425.086 Q101.131 427.239 101.131 430.965 Q101.131 434.715 102.959 436.868 Q104.811 439.021 107.959 439.021 Z" fill="#000000" fill-rule="nonzero" fill-opacity="1" /><path clip-path="url(#clip260)" d="M55.506 175.648 L63.1448 175.648 L63.1448 149.282 L54.8347 150.949 L54.8347 146.689 L63.0985 145.023 L67.7744 145.023 L67.7744 175.648 L75.4133 175.648 L75.4133 179.583 L55.506 179.583 L55.506 175.648 Z" fill="#000000" fill-rule="nonzero" fill-opacity="1" /><path clip-path="url(#clip260)" d="M84.8577 173.703 L89.7419 173.703 L89.7419 179.583 L84.8577 179.583 L84.8577 173.703 Z" fill="#000000" fill-rule="nonzero" fill-opacity="1" /><path clip-path="url(#clip260)" d="M103.955 175.648 L120.274 175.648 L120.274 179.583 L98.3298 179.583 L98.3298 175.648 Q100.992 172.893 105.575 168.263 Q110.182 163.611 111.362 162.268 Q113.608 159.745 114.487 158.009 Q115.39 156.249 115.39 154.56 Q115.39 151.805 113.445 150.069 Q111.524 148.333 108.422 148.333 Q106.223 148.333 103.77 149.097 Q101.339 149.861 98.5613 151.412 L98.5613 146.689 Q101.385 145.555 103.839 144.976 Q106.293 144.398 108.33 144.398 Q113.7 144.398 116.895 147.083 Q120.089 149.768 120.089 154.259 Q120.089 156.388 119.279 158.31 Q118.492 160.208 116.385 162.8 Q115.807 163.472 112.705 166.689 Q109.603 169.884 103.955 175.648 Z" fill="#000000" fill-rule="nonzero" fill-opacity="1" /><polyline clip-path="url(#clip262)" style="stroke:#009af9; stroke-linecap:round; stroke-linejoin:round; stroke-width:16; stroke-opacity:1; fill:none" stroke-dasharray="8, 16" points="218.439,1123.89 228.852,1142.79 239.264,1142.61 249.677,1119.64 260.09,1080.83 270.503,1045.89 280.916,1038.27 291.329,1067.5 301.741,1120.2 312.154,1171.96 322.567,1207.29 332.98,1227.28 343.393,1242.44 353.805,1262.43 364.218,1291.03 374.631,1326.33 385.044,1363.1 395.457,1395.59 405.87,1419.63 416.282,1434.04 426.695,1440.56 437.108,1442.26 447.521,1441.02 457.934,1435.94 468.347,1424.36 478.759,1404.91 489.172,1379.58 499.585,1352.34 509.998,1325.52 520.411,1298.22 530.824,1268.25 541.236,1234.9 551.649,1199.78 562.062,1165.7 572.475,1135.59 582.888,1112.12 593.301,1097.05 603.713,1089.89 614.126,1087.6 624.539,1086.81 634.952,1086.98 645.365,1091.15 655.777,1103.17 666.19,1124.49 676.603,1153.29 687.016,1185.91 697.429,1219.11 707.842,1251.27 718.254,1282.25 728.667,1312.46 739.08,1342.02 749.493,1370.36 759.906,1396.29 770.319,1418.22 780.731,1434.48 791.144,1443.78 801.557,1445.72 811.97,1441.03 822.383,1431.21 832.796,1417.52 843.208,1400.08 853.621,1378 864.034,1350.57 874.447,1318.69 884.86,1285.03 895.273,1252.42 905.685,1222.09 916.098,1193.36 926.511,1165.11 936.924,1137.33 947.337,1111.73 957.749,1091.15 968.162,1078.16 978.575,1074 988.988,1078.14 999.401,1088.82 1009.81,1103.91 1020.23,1121.79 1030.64,1141.72 1041.05,1163.8 1051.46,1188.65 1061.88,1216.9 1072.29,1248.75 1082.7,1283.66 1093.12,1320.17 1103.53,1355.9 1113.94,1387.92 1124.35,1413.22 1134.77,1429.53 1145.18,1436.12 1155.59,1434.44 1166.01,1428.21 1176.42,1422.68 1186.83,1422.84 1197.24,1430.77 1207.66,1441.71 1218.07,1438.08 1228.48,1383.83 1238.9,1232.89 1249.31,970.761 1259.72,662.158 1270.13,419.709 1280.55,304.57 1290.96,291.872 1301.37,322.703 1311.79,353.282 1322.2,366.018 1332.61,361.087 1343.02,346.129 1353.44,329.745 1363.85,318.534 1374.26,316.087 1384.68,322.912 1395.09,336.913 1405.5,354.254 1415.91,370.405 1426.33,381.158 1436.74,383.458 1447.15,376 1457.57,359.607 1467.98,337.348 1478.39,314.303 1488.8,296.77 1499.22,290.774 1509.63,300.049 1520.04,324.153 1530.45,357.728 1540.87,391.581 1551.28,415.375 1561.69,420.879 1572.11,404.579 1582.52,368.995 1592.93,322.558 1603.34,278.071 1613.76,249.694 1624.17,248.602 1634.58,278.371 1645,332.274 1655.41,394.463 1665.82,445.086 1676.23,467.039 1686.65,451.67 1697.06,401.96 1707.47,332.514 1717.89,265.417 1728.3,222.353 1738.71,216.471 1749.12,248.367 1759.54,307.46 1769.95,376.644 1780.36,437.462 1790.78,474.367 1801.19,477.658 1811.6,445.27 1822.01,383.614 1832.43,307.29 1842.84,236.843 1853.25,193.777 1863.67,193.563 1874.08,239.394 1884.49,319.807 1894.9,411.312 1905.32,485.341 1915.73,517.981 1926.14,499.112 1936.56,435.841 1946.97,348.072 1957.38,260.086 1967.79,193.91 1978.21,166.227 1988.62,186.343 1999.03,252.969 2009.45,351.301 2019.86,454.408 2030.27,530.613 2040.68,553.963 2051.1,513.826 2061.51,420.541 2071.92,303.42 2082.33,199.763 2092.75,140.291 2103.16,139.41 2113.57,193.957 2123.99,287.811 2134.4,397.823 2144.81,498.413 2155.22,564.707 2165.64,575.795 2176.05,520.137 2186.46,403.913 2196.88,258.483 2207.29,136.492 2217.7,87.9763 2228.11,128.291 2238.53,228.696 2248.94,341.497 2259.35,433.138 2269.77,495.944 2280.18,538.739 2290.59,573.465 "/>
<polyline clip-path="url(#clip262)" style="stroke:#e26f46; stroke-linecap:round; stroke-linejoin:round; stroke-width:4; stroke-opacity:1; fill:none" points="218.439,1123.95 228.852,1104.43 239.264,1090.04 249.677,1081.24 260.09,1078.33 270.503,1081.4 280.916,1090.35 291.329,1104.88 301.741,1124.53 312.154,1148.65 322.567,1176.45 332.98,1207.03 343.393,1239.39 353.805,1272.47 364.218,1305.2 374.631,1336.5 385.044,1365.35 395.457,1390.82 405.87,1412.06 416.282,1428.4 426.695,1439.28 437.108,1444.37 447.521,1443.49 457.934,1436.67 468.347,1424.13 478.759,1406.29 489.172,1383.73 499.585,1357.17 509.998,1327.5 520.411,1295.67 530.824,1262.73 541.236,1229.75 551.649,1197.8 562.062,1167.94 572.475,1141.13 582.888,1118.25 593.301,1100.05 603.713,1087.12 614.126,1079.88 624.539,1078.57 634.952,1083.23 645.365,1093.71 655.777,1109.67 666.19,1130.58 676.603,1155.77 687.016,1184.41 697.429,1215.57 707.842,1248.23 718.254,1281.32 728.667,1313.77 739.08,1344.51 749.493,1372.54 759.906,1396.95 770.319,1416.95 780.731,1431.86 791.144,1441.22 801.557,1444.72 811.97,1442.24 822.383,1433.86 832.796,1419.85 843.208,1400.68 853.621,1376.97 864.034,1349.49 874.447,1319.14 884.86,1286.91 895.273,1253.85 905.685,1221.04 916.098,1189.55 926.511,1160.42 936.924,1134.58 947.337,1112.89 957.749,1096.05 968.162,1084.61 978.575,1078.94 988.988,1079.23 999.401,1085.48 1009.81,1097.47 1020.23,1114.81 1030.64,1136.94 1041.05,1163.14 1051.46,1192.55 1061.88,1224.22 1072.29,1257.1 1082.7,1290.12 1093.12,1322.21 1103.53,1352.33 1113.94,1379.47 1124.35,1402.77 1134.77,1421.46 1145.18,1434.93 1155.59,1442.74 1166.01,1444.64 1176.42,1440.56 1186.83,1430.64 1197.24,1415.2 1207.66,1394.74 1218.07,1369.94 1228.48,1341.6 1238.9,1310.64 1249.31,1278.09 1259.72,344.178 1270.13,342.664 1280.55,344.042 1290.96,348.629 1301.37,355.019 1311.79,360.513 1322.2,362.139 1332.61,357.913 1343.02,347.836 1353.44,334.252 1363.85,321.326 1374.26,313.775 1384.68,315.223 1395.09,326.745 1405.5,346.124 1415.91,368.178 1426.33,386.138 1436.74,393.714 1447.15,387.229 1457.57,367.108 1467.98,338.166 1478.39,308.505 1488.8,287.247 1499.22,281.74 1509.63,295.09 1520.04,324.832 1530.45,363.243 1540.87,399.325 1551.28,421.954 1561.69,423.295 1572.11,401.432 1582.52,361.365 1592.93,313.935 1603.34,272.909 1613.76,250.978 1624.17,255.854 1634.58,287.65 1645,338.41 1655.41,394.055 1665.82,438.288 1676.23,457.358 1686.65,444.317 1697.06,401.435 1707.47,339.972 1717.89,277.251 1728.3,231.773 1738.71,217.767 1749.12,240.765 1759.54,295.583 1769.95,367.395 1780.36,435.733 1790.78,480.319 1801.19,487.072 1811.6,452.525 1822.01,385.257 1832.43,303.814 1842.84,231.608 1853.25,190.185 1863.67,192.804 1874.08,240.239 1884.49,320.117 1894.9,410.111 1905.32,484.179 1915.73,520.094 1926.14,506.109 1936.56,444.736 1946.97,352.461 1957.38,255.338 1967.79,181.63 1978.21,153.593 1988.62,180.764 1999.03,256.799 2009.45,360.876 2019.86,463.382 2030.27,534.335 2040.68,552.157 2051.1,510.211 2061.51,419.145 2071.92,304.24 2082.33,198.393 2092.75,132.706 2103.16,127.348 2113.57,185.387 2123.99,291.472 2134.4,415.858 2144.81,522.748 2155.22,580.588 2165.64,571.379 2176.05,496.245 2186.46,375.547 2196.88,243.385 2207.29,137.967 2217.7,90.564 2228.11,116.244 2238.53,209.122 2248.94,343.627 2259.35,481.525 2269.77,582.789 2280.18,617.212 2290.59,573.41 "/>
<path clip-path="url(#clip260)" d="M229.49 250.738 L675.966 250.738 L675.966 95.2176 L229.49 95.2176  Z" fill="#ffffff" fill-rule="evenodd" fill-opacity="1"/>
<polyline clip-path="url(#clip260)" style="stroke:#000000; stroke-linecap:round; stroke-linejoin:round; stroke-width:4; stroke-opacity:1; fill:none" points="229.49,250.738 675.966,250.738 675.966,95.2176 229.49,95.2176 229.49,250.738 "/>
<polyline clip-path="url(#clip260)" style="stroke:#009af9; stroke-linecap:round; stroke-linejoin:round; stroke-width:16; stroke-opacity:1; fill:none" stroke-dasharray="8, 16" points="253.896,147.058 400.328,147.058 "/>
<path clip-path="url(#clip260)" d="M429.409 133.62 L429.409 146.606 L435.289 146.606 Q438.552 146.606 440.335 144.916 Q442.117 143.227 442.117 140.102 Q442.117 137 440.335 135.31 Q438.552 133.62 435.289 133.62 L429.409 133.62 M424.733 129.778 L435.289 129.778 Q441.099 129.778 444.062 132.416 Q447.048 135.032 447.048 140.102 Q447.048 145.217 444.062 147.833 Q441.099 150.449 435.289 150.449 L429.409 150.449 L429.409 164.338 L424.733 164.338 L424.733 129.778 Z" fill="#000000" fill-rule="nonzero" fill-opacity="1" /><path clip-path="url(#clip260)" d="M467.325 142.393 Q466.608 141.977 465.751 141.791 Q464.918 141.583 463.899 141.583 Q460.288 141.583 458.344 143.944 Q456.423 146.282 456.423 150.68 L456.423 164.338 L452.14 164.338 L452.14 138.412 L456.423 138.412 L456.423 142.44 Q457.765 140.078 459.918 138.944 Q462.071 137.787 465.149 137.787 Q465.589 137.787 466.122 137.856 Q466.654 137.903 467.302 138.018 L467.325 142.393 Z" fill="#000000" fill-rule="nonzero" fill-opacity="1" /><path clip-path="url(#clip260)" d="M492.927 150.31 L492.927 152.393 L473.344 152.393 Q473.622 156.791 475.983 159.106 Q478.367 161.398 482.603 161.398 Q485.057 161.398 487.348 160.796 Q489.663 160.194 491.932 158.99 L491.932 163.018 Q489.64 163.99 487.233 164.5 Q484.825 165.009 482.348 165.009 Q476.145 165.009 472.511 161.398 Q468.899 157.787 468.899 151.629 Q468.899 145.264 472.325 141.537 Q475.774 137.787 481.608 137.787 Q486.839 137.787 489.872 141.166 Q492.927 144.523 492.927 150.31 M488.668 149.06 Q488.622 145.565 486.7 143.481 Q484.802 141.398 481.654 141.398 Q478.089 141.398 475.936 143.412 Q473.807 145.426 473.483 149.083 L488.668 149.06 Z" fill="#000000" fill-rule="nonzero" fill-opacity="1" /><path clip-path="url(#clip260)" d="M516.978 142.347 L516.978 128.319 L521.237 128.319 L521.237 164.338 L516.978 164.338 L516.978 160.449 Q515.635 162.763 513.575 163.898 Q511.538 165.009 508.668 165.009 Q503.969 165.009 501.006 161.259 Q498.066 157.509 498.066 151.398 Q498.066 145.287 501.006 141.537 Q503.969 137.787 508.668 137.787 Q511.538 137.787 513.575 138.921 Q515.635 140.032 516.978 142.347 M502.464 151.398 Q502.464 156.097 504.385 158.782 Q506.33 161.444 509.709 161.444 Q513.089 161.444 515.033 158.782 Q516.978 156.097 516.978 151.398 Q516.978 146.699 515.033 144.037 Q513.089 141.352 509.709 141.352 Q506.33 141.352 504.385 144.037 Q502.464 146.699 502.464 151.398 Z" fill="#000000" fill-rule="nonzero" fill-opacity="1" /><path clip-path="url(#clip260)" d="M530.01 138.412 L534.269 138.412 L534.269 164.338 L530.01 164.338 L530.01 138.412 M530.01 128.319 L534.269 128.319 L534.269 133.713 L530.01 133.713 L530.01 128.319 Z" fill="#000000" fill-rule="nonzero" fill-opacity="1" /><path clip-path="url(#clip260)" d="M561.839 139.407 L561.839 143.389 Q560.033 142.393 558.205 141.907 Q556.399 141.398 554.547 141.398 Q550.404 141.398 548.112 144.037 Q545.82 146.652 545.82 151.398 Q545.82 156.143 548.112 158.782 Q550.404 161.398 554.547 161.398 Q556.399 161.398 558.205 160.912 Q560.033 160.402 561.839 159.407 L561.839 163.342 Q560.056 164.176 558.135 164.592 Q556.237 165.009 554.084 165.009 Q548.228 165.009 544.779 161.328 Q541.33 157.648 541.33 151.398 Q541.33 145.055 544.802 141.421 Q548.297 137.787 554.362 137.787 Q556.33 137.787 558.205 138.203 Q560.08 138.597 561.839 139.407 Z" fill="#000000" fill-rule="nonzero" fill-opacity="1" /><path clip-path="url(#clip260)" d="M573.459 131.051 L573.459 138.412 L582.232 138.412 L582.232 141.722 L573.459 141.722 L573.459 155.796 Q573.459 158.967 574.316 159.87 Q575.195 160.773 577.857 160.773 L582.232 160.773 L582.232 164.338 L577.857 164.338 Q572.927 164.338 571.052 162.509 Q569.177 160.657 569.177 155.796 L569.177 141.722 L566.052 141.722 L566.052 138.412 L569.177 138.412 L569.177 131.051 L573.459 131.051 Z" fill="#000000" fill-rule="nonzero" fill-opacity="1" /><path clip-path="url(#clip260)" d="M587.834 138.412 L592.093 138.412 L592.093 164.338 L587.834 164.338 L587.834 138.412 M587.834 128.319 L592.093 128.319 L592.093 133.713 L587.834 133.713 L587.834 128.319 Z" fill="#000000" fill-rule="nonzero" fill-opacity="1" /><path clip-path="url(#clip260)" d="M611.051 141.398 Q607.626 141.398 605.635 144.083 Q603.644 146.745 603.644 151.398 Q603.644 156.051 605.612 158.736 Q607.602 161.398 611.051 161.398 Q614.454 161.398 616.445 158.713 Q618.436 156.027 618.436 151.398 Q618.436 146.791 616.445 144.106 Q614.454 141.398 611.051 141.398 M611.051 137.787 Q616.607 137.787 619.778 141.398 Q622.95 145.009 622.95 151.398 Q622.95 157.764 619.778 161.398 Q616.607 165.009 611.051 165.009 Q605.473 165.009 602.302 161.398 Q599.153 157.764 599.153 151.398 Q599.153 145.009 602.302 141.398 Q605.473 137.787 611.051 137.787 Z" fill="#000000" fill-rule="nonzero" fill-opacity="1" /><path clip-path="url(#clip260)" d="M651.561 148.689 L651.561 164.338 L647.301 164.338 L647.301 148.828 Q647.301 145.148 645.866 143.319 Q644.431 141.49 641.561 141.49 Q638.112 141.49 636.121 143.69 Q634.13 145.889 634.13 149.685 L634.13 164.338 L629.848 164.338 L629.848 138.412 L634.13 138.412 L634.13 142.44 Q635.658 140.102 637.718 138.944 Q639.801 137.787 642.51 137.787 Q646.977 137.787 649.269 140.565 Q651.561 143.319 651.561 148.689 Z" fill="#000000" fill-rule="nonzero" fill-opacity="1" /><polyline clip-path="url(#clip260)" style="stroke:#e26f46; stroke-linecap:round; stroke-linejoin:round; stroke-width:4; stroke-opacity:1; fill:none" points="253.896,198.898 400.328,198.898 "/>
<path clip-path="url(#clip260)" d="M424.733 181.618 L446.585 181.618 L446.585 185.553 L429.409 185.553 L429.409 195.784 L445.867 195.784 L445.867 199.719 L429.409 199.719 L429.409 212.242 L447.001 212.242 L447.001 216.178 L424.733 216.178 L424.733 181.618 Z" fill="#000000" fill-rule="nonzero" fill-opacity="1" /><path clip-path="url(#clip260)" d="M476.052 190.252 L466.677 202.867 L476.538 216.178 L471.515 216.178 L463.969 205.992 L456.423 216.178 L451.4 216.178 L461.469 202.613 L452.256 190.252 L457.279 190.252 L464.154 199.488 L471.029 190.252 L476.052 190.252 Z" fill="#000000" fill-rule="nonzero" fill-opacity="1" /><path clip-path="url(#clip260)" d="M494.339 203.145 Q489.177 203.145 487.186 204.326 Q485.196 205.506 485.196 208.354 Q485.196 210.622 486.677 211.965 Q488.182 213.284 490.751 213.284 Q494.293 213.284 496.422 210.784 Q498.575 208.261 498.575 204.094 L498.575 203.145 L494.339 203.145 M502.834 201.386 L502.834 216.178 L498.575 216.178 L498.575 212.242 Q497.117 214.603 494.941 215.738 Q492.765 216.849 489.617 216.849 Q485.635 216.849 483.274 214.627 Q480.936 212.381 480.936 208.631 Q480.936 204.256 483.853 202.034 Q486.793 199.812 492.603 199.812 L498.575 199.812 L498.575 199.395 Q498.575 196.455 496.631 194.858 Q494.71 193.238 491.214 193.238 Q488.992 193.238 486.885 193.77 Q484.779 194.303 482.835 195.367 L482.835 191.432 Q485.173 190.53 487.372 190.09 Q489.571 189.627 491.654 189.627 Q497.279 189.627 500.057 192.543 Q502.834 195.46 502.834 201.386 Z" fill="#000000" fill-rule="nonzero" fill-opacity="1" /><path clip-path="url(#clip260)" d="M530.265 191.247 L530.265 195.229 Q528.459 194.233 526.631 193.747 Q524.825 193.238 522.973 193.238 Q518.83 193.238 516.538 195.877 Q514.246 198.492 514.246 203.238 Q514.246 207.983 516.538 210.622 Q518.83 213.238 522.973 213.238 Q524.825 213.238 526.631 212.752 Q528.459 212.242 530.265 211.247 L530.265 215.182 Q528.482 216.016 526.561 216.432 Q524.663 216.849 522.51 216.849 Q516.654 216.849 513.205 213.168 Q509.756 209.488 509.756 203.238 Q509.756 196.895 513.228 193.261 Q516.723 189.627 522.788 189.627 Q524.756 189.627 526.631 190.043 Q528.506 190.437 530.265 191.247 Z" fill="#000000" fill-rule="nonzero" fill-opacity="1" /><path clip-path="url(#clip260)" d="M541.885 182.891 L541.885 190.252 L550.658 190.252 L550.658 193.562 L541.885 193.562 L541.885 207.636 Q541.885 210.807 542.742 211.71 Q543.621 212.613 546.283 212.613 L550.658 212.613 L550.658 216.178 L546.283 216.178 Q541.353 216.178 539.478 214.349 Q537.603 212.497 537.603 207.636 L537.603 193.562 L534.478 193.562 L534.478 190.252 L537.603 190.252 L537.603 182.891 L541.885 182.891 Z" fill="#000000" fill-rule="nonzero" fill-opacity="1" /></svg>
