<?xml version="1.0" encoding="utf-8"?>
<svg xmlns="http://www.w3.org/2000/svg" xmlns:xlink="http://www.w3.org/1999/xlink" width="600" height="400" viewBox="0 0 2400 1600">
<defs>
  <clipPath id="clip290">
    <rect x="0" y="0" width="2400" height="1600"/>
  </clipPath>
</defs>
<path clip-path="url(#clip290)" d="M0 1600 L2400 1600 L2400 0 L0 0  Z" fill="#ffffff" fill-rule="evenodd" fill-opacity="1"/>
<defs>
  <clipPath id="clip291">
    <rect x="480" y="0" width="1681" height="1600"/>
  </clipPath>
</defs>
<path clip-path="url(#clip290)" d="M156.274 1486.45 L2352.76 1486.45 L2352.76 47.2441 L156.274 47.2441  Z" fill="#ffffff" fill-rule="evenodd" fill-opacity="1"/>
<defs>
  <clipPath id="clip292">
    <rect x="156" y="47" width="2197" height="1440"/>
  </clipPath>
</defs>
<polyline clip-path="url(#clip292)" style="stroke:#000000; stroke-linecap:round; stroke-linejoin:round; stroke-width:2; stroke-opacity:0.1; fill:none" points="218.439,1486.45 218.439,47.2441 "/>
<polyline clip-path="url(#clip292)" style="stroke:#000000; stroke-linecap:round; stroke-linejoin:round; stroke-width:2; stroke-opacity:0.1; fill:none" points="736.477,1486.45 736.477,47.2441 "/>
<polyline clip-path="url(#clip292)" style="stroke:#000000; stroke-linecap:round; stroke-linejoin:round; stroke-width:2; stroke-opacity:0.1; fill:none" points="1254.52,1486.45 1254.52,47.2441 "/>
<polyline clip-path="url(#clip292)" style="stroke:#000000; stroke-linecap:round; stroke-linejoin:round; stroke-width:2; stroke-opacity:0.1; fill:none" points="1772.55,1486.45 1772.55,47.2441 "/>
<polyline clip-path="url(#clip292)" style="stroke:#000000; stroke-linecap:round; stroke-linejoin:round; stroke-width:2; stroke-opacity:0.1; fill:none" points="2290.59,1486.45 2290.59,47.2441 "/>
<polyline clip-path="url(#clip290)" style="stroke:#000000; stroke-linecap:round; stroke-linejoin:round; stroke-width:4; stroke-opacity:1; fill:none" points="156.274,1486.45 2352.76,1486.45 "/>
<polyline clip-path="url(#clip290)" style="stroke:#000000; stroke-linecap:round; stroke-linejoin:round; stroke-width:4; stroke-opacity:1; fill:none" points="218.439,1486.45 218.439,1467.55 "/>
<polyline clip-path="url(#clip290)" style="stroke:#000000; stroke-linecap:round; stroke-linejoin:round; stroke-width:4; stroke-opacity:1; fill:none" points="736.477,1486.45 736.477,1467.55 "/>
<polyline clip-path="url(#clip290)" style="stroke:#000000; stroke-linecap:round; stroke-linejoin:round; stroke-width:4; stroke-opacity:1; fill:none" points="1254.52,1486.45 1254.52,1467.55 "/>
<polyline clip-path="url(#clip290)" style="stroke:#000000; stroke-linecap:round; stroke-linejoin:round; stroke-width:4; stroke-opacity:1; fill:none" points="1772.55,1486.45 1772.55,1467.55 "/>
<polyline clip-path="url(#clip290)" style="stroke:#000000; stroke-linecap:round; stroke-linejoin:round; stroke-width:4; stroke-opacity:1; fill:none" points="2290.59,1486.45 2290.59,1467.55 "/>
<path clip-path="url(#clip290)" d="M164.967 1532.02 L194.643 1532.02 L194.643 1535.95 L164.967 1535.95 L164.967 1532.02 Z" fill="#000000" fill-rule="nonzero" fill-opacity="1" /><path clip-path="url(#clip290)" d="M205.545 1544.91 L213.184 1544.91 L213.184 1518.55 L204.874 1520.21 L204.874 1515.95 L213.138 1514.29 L217.814 1514.29 L217.814 1544.91 L225.453 1544.91 L225.453 1548.85 L205.545 1548.85 L205.545 1544.91 Z" fill="#000000" fill-rule="nonzero" fill-opacity="1" /><path clip-path="url(#clip290)" d="M234.897 1542.97 L239.781 1542.97 L239.781 1548.85 L234.897 1548.85 L234.897 1542.97 Z" fill="#000000" fill-rule="nonzero" fill-opacity="1" /><path clip-path="url(#clip290)" d="M259.966 1517.37 Q256.355 1517.37 254.527 1520.93 Q252.721 1524.47 252.721 1531.6 Q252.721 1538.71 254.527 1542.27 Q256.355 1545.82 259.966 1545.82 Q263.601 1545.82 265.406 1542.27 Q267.235 1538.71 267.235 1531.6 Q267.235 1524.47 265.406 1520.93 Q263.601 1517.37 259.966 1517.37 M259.966 1513.66 Q265.776 1513.66 268.832 1518.27 Q271.911 1522.85 271.911 1531.6 Q271.911 1540.33 268.832 1544.94 Q265.776 1549.52 259.966 1549.52 Q254.156 1549.52 251.077 1544.94 Q248.022 1540.33 248.022 1531.6 Q248.022 1522.85 251.077 1518.27 Q254.156 1513.66 259.966 1513.66 Z" fill="#000000" fill-rule="nonzero" fill-opacity="1" /><path clip-path="url(#clip290)" d="M683.503 1532.02 L713.178 1532.02 L713.178 1535.95 L683.503 1535.95 L683.503 1532.02 Z" fill="#000000" fill-rule="nonzero" fill-opacity="1" /><path clip-path="url(#clip290)" d="M733.271 1517.37 Q729.66 1517.37 727.831 1520.93 Q726.026 1524.47 726.026 1531.6 Q726.026 1538.71 727.831 1542.27 Q729.66 1545.82 733.271 1545.82 Q736.905 1545.82 738.711 1542.27 Q740.539 1538.71 740.539 1531.6 Q740.539 1524.47 738.711 1520.93 Q736.905 1517.37 733.271 1517.37 M733.271 1513.66 Q739.081 1513.66 742.137 1518.27 Q745.215 1522.85 745.215 1531.6 Q745.215 1540.33 742.137 1544.94 Q739.081 1549.52 733.271 1549.52 Q727.461 1549.52 724.382 1544.94 Q721.327 1540.33 721.327 1531.6 Q721.327 1522.85 724.382 1518.27 Q727.461 1513.66 733.271 1513.66 Z" fill="#000000" fill-rule="nonzero" fill-opacity="1" /><path clip-path="url(#clip290)" d="M753.433 1542.97 L758.317 1542.97 L758.317 1548.85 L753.433 1548.85 L753.433 1542.97 Z" fill="#000000" fill-rule="nonzero" fill-opacity="1" /><path clip-path="url(#clip290)" d="M768.548 1514.29 L786.905 1514.29 L786.905 1518.22 L772.831 1518.22 L772.831 1526.7 Q773.849 1526.35 774.868 1526.19 Q775.886 1526 776.905 1526 Q782.692 1526 786.072 1529.17 Q789.451 1532.34 789.451 1537.76 Q789.451 1543.34 785.979 1546.44 Q782.507 1549.52 776.187 1549.52 Q774.011 1549.52 771.743 1549.15 Q769.498 1548.78 767.09 1548.04 L767.09 1543.34 Q769.173 1544.47 771.396 1545.03 Q773.618 1545.58 776.095 1545.58 Q780.099 1545.58 782.437 1543.48 Q784.775 1541.37 784.775 1537.76 Q784.775 1534.15 782.437 1532.04 Q780.099 1529.94 776.095 1529.94 Q774.22 1529.94 772.345 1530.35 Q770.493 1530.77 768.548 1531.65 L768.548 1514.29 Z" fill="#000000" fill-rule="nonzero" fill-opacity="1" /><path clip-path="url(#clip290)" d="M1231.9 1517.37 Q1228.29 1517.37 1226.46 1520.93 Q1224.65 1524.47 1224.65 1531.6 Q1224.65 1538.71 1226.46 1542.27 Q1228.29 1545.82 1231.9 1545.82 Q1235.53 1545.82 1237.34 1542.27 Q1239.17 1538.71 1239.17 1531.6 Q1239.17 1524.47 1237.34 1520.93 Q1235.53 1517.37 1231.9 1517.37 M1231.9 1513.66 Q1237.71 1513.66 1240.77 1518.27 Q1243.84 1522.85 1243.84 1531.6 Q1243.84 1540.33 1240.77 1544.94 Q1237.71 1549.52 1231.9 1549.52 Q1226.09 1549.52 1223.01 1544.94 Q1219.96 1540.33 1219.96 1531.6 Q1219.96 1522.85 1223.01 1518.27 Q1226.09 1513.66 1231.9 1513.66 Z" fill="#000000" fill-rule="nonzero" fill-opacity="1" /><path clip-path="url(#clip290)" d="M1252.06 1542.97 L1256.95 1542.97 L1256.95 1548.85 L1252.06 1548.85 L1252.06 1542.97 Z" fill="#000000" fill-rule="nonzero" fill-opacity="1" /><path clip-path="url(#clip290)" d="M1277.13 1517.37 Q1273.52 1517.37 1271.69 1520.93 Q1269.89 1524.47 1269.89 1531.6 Q1269.89 1538.71 1271.69 1542.27 Q1273.52 1545.82 1277.13 1545.82 Q1280.76 1545.82 1282.57 1542.27 Q1284.4 1538.71 1284.4 1531.6 Q1284.4 1524.47 1282.57 1520.93 Q1280.76 1517.37 1277.13 1517.37 M1277.13 1513.66 Q1282.94 1513.66 1286 1518.27 Q1289.08 1522.85 1289.08 1531.6 Q1289.08 1540.33 1286 1544.94 Q1282.94 1549.52 1277.13 1549.52 Q1271.32 1549.52 1268.24 1544.94 Q1265.19 1540.33 1265.19 1531.6 Q1265.19 1522.85 1268.24 1518.27 Q1271.32 1513.66 1277.13 1513.66 Z" fill="#000000" fill-rule="nonzero" fill-opacity="1" /><path clip-path="url(#clip290)" d="M1750.44 1517.37 Q1746.82 1517.37 1745 1520.93 Q1743.19 1524.47 1743.19 1531.6 Q1743.19 1538.71 1745 1542.27 Q1746.82 1545.82 1750.44 1545.82 Q1754.07 1545.82 1755.88 1542.27 Q1757.7 1538.71 1757.7 1531.6 Q1757.7 1524.47 1755.88 1520.93 Q1754.07 1517.37 1750.44 1517.37 M1750.44 1513.66 Q1756.25 1513.66 1759.3 1518.27 Q1762.38 1522.85 1762.38 1531.6 Q1762.38 1540.33 1759.3 1544.94 Q1756.25 1549.52 1750.44 1549.52 Q1744.63 1549.52 1741.55 1544.94 Q1738.49 1540.33 1738.49 1531.6 Q1738.49 1522.85 1741.55 1518.27 Q1744.63 1513.66 1750.44 1513.66 Z" fill="#000000" fill-rule="nonzero" fill-opacity="1" /><path clip-path="url(#clip290)" d="M1770.6 1542.97 L1775.48 1542.97 L1775.48 1548.85 L1770.6 1548.85 L1770.6 1542.97 Z" fill="#000000" fill-rule="nonzero" fill-opacity="1" /><path clip-path="url(#clip290)" d="M1785.71 1514.29 L1804.07 1514.29 L1804.07 1518.22 L1790 1518.22 L1790 1526.7 Q1791.01 1526.35 1792.03 1526.19 Q1793.05 1526 1794.07 1526 Q1799.86 1526 1803.24 1529.17 Q1806.62 1532.34 1806.62 1537.76 Q1806.62 1543.34 1803.14 1546.44 Q1799.67 1549.52 1793.35 1549.52 Q1791.18 1549.52 1788.91 1549.15 Q1786.66 1548.78 1784.25 1548.04 L1784.25 1543.34 Q1786.34 1544.47 1788.56 1545.03 Q1790.78 1545.58 1793.26 1545.58 Q1797.26 1545.58 1799.6 1543.48 Q1801.94 1541.37 1801.94 1537.76 Q1801.94 1534.15 1799.6 1532.04 Q1797.26 1529.94 1793.26 1529.94 Q1791.38 1529.94 1789.51 1530.35 Q1787.66 1530.77 1785.71 1531.65 L1785.71 1514.29 Z" fill="#000000" fill-rule="nonzero" fill-opacity="1" /><path clip-path="url(#clip290)" d="M2257.74 1544.91 L2265.38 1544.91 L2265.38 1518.55 L2257.07 1520.21 L2257.07 1515.95 L2265.34 1514.29 L2270.01 1514.29 L2270.01 1544.91 L2277.65 1544.91 L2277.65 1548.85 L2257.74 1548.85 L2257.74 1544.91 Z" fill="#000000" fill-rule="nonzero" fill-opacity="1" /><path clip-path="url(#clip290)" d="M2287.1 1542.97 L2291.98 1542.97 L2291.98 1548.85 L2287.1 1548.85 L2287.1 1542.97 Z" fill="#000000" fill-rule="nonzero" fill-opacity="1" /><path clip-path="url(#clip290)" d="M2312.17 1517.37 Q2308.55 1517.37 2306.73 1520.93 Q2304.92 1524.47 2304.92 1531.6 Q2304.92 1538.71 2306.73 1542.27 Q2308.55 1545.82 2312.17 1545.82 Q2315.8 1545.82 2317.61 1542.27 Q2319.43 1538.71 2319.43 1531.6 Q2319.43 1524.47 2317.61 1520.93 Q2315.8 1517.37 2312.17 1517.37 M2312.17 1513.66 Q2317.98 1513.66 2321.03 1518.27 Q2324.11 1522.85 2324.11 1531.6 Q2324.11 1540.33 2321.03 1544.94 Q2317.98 1549.52 2312.17 1549.52 Q2306.36 1549.52 2303.28 1544.94 Q2300.22 1540.33 2300.22 1531.6 Q2300.22 1522.85 2303.28 1518.27 Q2306.36 1513.66 2312.17 1513.66 Z" fill="#000000" fill-rule="nonzero" fill-opacity="1" /><polyline clip-path="url(#clip292)" style="stroke:#000000; stroke-linecap:round; stroke-linejoin:round; stroke-width:2; stroke-opacity:0.1; fill:none" points="156.274,1237.59 2352.76,1237.59 "/>
<polyline clip-path="url(#clip292)" style="stroke:#000000; stroke-linecap:round; stroke-linejoin:round; stroke-width:2; stroke-opacity:0.1; fill:none" points="156.274,967.798 2352.76,967.798 "/>
<polyline clip-path="url(#clip292)" style="stroke:#000000; stroke-linecap:round; stroke-linejoin:round; stroke-width:2; stroke-opacity:0.1; fill:none" points="156.274,698.001 2352.76,698.001 "/>
<polyline clip-path="url(#clip292)" style="stroke:#000000; stroke-linecap:round; stroke-linejoin:round; stroke-width:2; stroke-opacity:0.1; fill:none" points="156.274,428.204 2352.76,428.204 "/>
<polyline clip-path="url(#clip292)" style="stroke:#000000; stroke-linecap:round; stroke-linejoin:round; stroke-width:2; stroke-opacity:0.1; fill:none" points="156.274,158.407 2352.76,158.407 "/>
<polyline clip-path="url(#clip290)" style="stroke:#000000; stroke-linecap:round; stroke-linejoin:round; stroke-width:4; stroke-opacity:1; fill:none" points="156.274,1486.45 156.274,47.2441 "/>
<polyline clip-path="url(#clip290)" style="stroke:#000000; stroke-linecap:round; stroke-linejoin:round; stroke-width:4; stroke-opacity:1; fill:none" points="156.274,1237.59 175.172,1237.59 "/>
<polyline clip-path="url(#clip290)" style="stroke:#000000; stroke-linecap:round; stroke-linejoin:round; stroke-width:4; stroke-opacity:1; fill:none" points="156.274,967.798 175.172,967.798 "/>
<polyline clip-path="url(#clip290)" style="stroke:#000000; stroke-linecap:round; stroke-linejoin:round; stroke-width:4; stroke-opacity:1; fill:none" points="156.274,698.001 175.172,698.001 "/>
<polyline clip-path="url(#clip290)" style="stroke:#000000; stroke-linecap:round; stroke-linejoin:round; stroke-width:4; stroke-opacity:1; fill:none" points="156.274,428.204 175.172,428.204 "/>
<polyline clip-path="url(#clip290)" style="stroke:#000000; stroke-linecap:round; stroke-linejoin:round; stroke-width:4; stroke-opacity:1; fill:none" points="156.274,158.407 175.172,158.407 "/>
<path clip-path="url(#clip290)" d="M63.0985 1223.39 Q59.4875 1223.39 57.6588 1226.96 Q55.8532 1230.5 55.8532 1237.63 Q55.8532 1244.74 57.6588 1248.3 Q59.4875 1251.84 63.0985 1251.84 Q66.7328 1251.84 68.5383 1248.3 Q70.367 1244.74 70.367 1237.63 Q70.367 1230.5 68.5383 1226.96 Q66.7328 1223.39 63.0985 1223.39 M63.0985 1219.69 Q68.9087 1219.69 71.9642 1224.3 Q75.0429 1228.88 75.0429 1237.63 Q75.0429 1246.36 71.9642 1250.96 Q68.9087 1255.55 63.0985 1255.55 Q57.2884 1255.55 54.2097 1250.96 Q51.1542 1246.36 51.1542 1237.63 Q51.1542 1228.88 54.2097 1224.3 Q57.2884 1219.69 63.0985 1219.69 Z" fill="#000000" fill-rule="nonzero" fill-opacity="1" /><path clip-path="url(#clip290)" d="M83.2605 1249 L88.1447 1249 L88.1447 1254.87 L83.2605 1254.87 L83.2605 1249 Z" fill="#000000" fill-rule="nonzero" fill-opacity="1" /><path clip-path="url(#clip290)" d="M108.33 1223.39 Q104.719 1223.39 102.89 1226.96 Q101.084 1230.5 101.084 1237.63 Q101.084 1244.74 102.89 1248.3 Q104.719 1251.84 108.33 1251.84 Q111.964 1251.84 113.77 1248.3 Q115.598 1244.74 115.598 1237.63 Q115.598 1230.5 113.77 1226.96 Q111.964 1223.39 108.33 1223.39 M108.33 1219.69 Q114.14 1219.69 117.195 1224.3 Q120.274 1228.88 120.274 1237.63 Q120.274 1246.36 117.195 1250.96 Q114.14 1255.55 108.33 1255.55 Q102.52 1255.55 99.4409 1250.96 Q96.3854 1246.36 96.3854 1237.63 Q96.3854 1228.88 99.4409 1224.3 Q102.52 1219.69 108.33 1219.69 Z" fill="#000000" fill-rule="nonzero" fill-opacity="1" /><path clip-path="url(#clip290)" d="M63.7467 953.597 Q60.1356 953.597 58.3069 957.161 Q56.5014 960.703 56.5014 967.833 Q56.5014 974.939 58.3069 978.504 Q60.1356 982.046 63.7467 982.046 Q67.3809 982.046 69.1865 978.504 Q71.0152 974.939 71.0152 967.833 Q71.0152 960.703 69.1865 957.161 Q67.3809 953.597 63.7467 953.597 M63.7467 949.893 Q69.5568 949.893 72.6124 954.499 Q75.6911 959.083 75.6911 967.833 Q75.6911 976.559 72.6124 981.166 Q69.5568 985.749 63.7467 985.749 Q57.9365 985.749 54.8578 981.166 Q51.8023 976.559 51.8023 967.833 Q51.8023 959.083 54.8578 954.499 Q57.9365 949.893 63.7467 949.893 Z" fill="#000000" fill-rule="nonzero" fill-opacity="1" /><path clip-path="url(#clip290)" d="M83.9086 979.198 L88.7928 979.198 L88.7928 985.078 L83.9086 985.078 L83.9086 979.198 Z" fill="#000000" fill-rule="nonzero" fill-opacity="1" /><path clip-path="url(#clip290)" d="M113.145 966.444 Q116.501 967.161 118.376 969.43 Q120.274 971.698 120.274 975.032 Q120.274 980.147 116.756 982.948 Q113.237 985.749 106.756 985.749 Q104.58 985.749 102.265 985.309 Q99.9733 984.893 97.5197 984.036 L97.5197 979.522 Q99.4641 980.657 101.779 981.235 Q104.094 981.814 106.617 981.814 Q111.015 981.814 113.307 980.078 Q115.621 978.342 115.621 975.032 Q115.621 971.976 113.469 970.263 Q111.339 968.527 107.52 968.527 L103.492 968.527 L103.492 964.684 L107.705 964.684 Q111.154 964.684 112.983 963.319 Q114.811 961.93 114.811 959.337 Q114.811 956.675 112.913 955.263 Q111.038 953.828 107.52 953.828 Q105.598 953.828 103.399 954.245 Q101.2 954.661 98.5613 955.541 L98.5613 951.374 Q101.223 950.634 103.538 950.263 Q105.876 949.893 107.936 949.893 Q113.26 949.893 116.362 952.323 Q119.464 954.731 119.464 958.851 Q119.464 961.722 117.82 963.712 Q116.177 965.68 113.145 966.444 Z" fill="#000000" fill-rule="nonzero" fill-opacity="1" /><path clip-path="url(#clip290)" d="M62.9365 683.8 Q59.3254 683.8 57.4967 687.364 Q55.6912 690.906 55.6912 698.036 Q55.6912 705.142 57.4967 708.707 Q59.3254 712.248 62.9365 712.248 Q66.5707 712.248 68.3763 708.707 Q70.205 705.142 70.205 698.036 Q70.205 690.906 68.3763 687.364 Q66.5707 683.8 62.9365 683.8 M62.9365 680.096 Q68.7467 680.096 71.8022 684.702 Q74.8809 689.286 74.8809 698.036 Q74.8809 706.762 71.8022 711.369 Q68.7467 715.952 62.9365 715.952 Q57.1264 715.952 54.0477 711.369 Q50.9921 706.762 50.9921 698.036 Q50.9921 689.286 54.0477 684.702 Q57.1264 680.096 62.9365 680.096 Z" fill="#000000" fill-rule="nonzero" fill-opacity="1" /><path clip-path="url(#clip290)" d="M83.0984 709.401 L87.9827 709.401 L87.9827 715.281 L83.0984 715.281 L83.0984 709.401 Z" fill="#000000" fill-rule="nonzero" fill-opacity="1" /><path clip-path="url(#clip290)" d="M108.746 696.137 Q105.598 696.137 103.746 698.29 Q101.918 700.443 101.918 704.193 Q101.918 707.92 103.746 710.096 Q105.598 712.248 108.746 712.248 Q111.895 712.248 113.723 710.096 Q115.575 707.92 115.575 704.193 Q115.575 700.443 113.723 698.29 Q111.895 696.137 108.746 696.137 M118.029 681.485 L118.029 685.744 Q116.27 684.911 114.464 684.471 Q112.682 684.031 110.922 684.031 Q106.293 684.031 103.839 687.156 Q101.409 690.281 101.061 696.6 Q102.427 694.587 104.487 693.522 Q106.547 692.434 109.024 692.434 Q114.233 692.434 117.242 695.605 Q120.274 698.753 120.274 704.193 Q120.274 709.517 117.126 712.735 Q113.978 715.952 108.746 715.952 Q102.751 715.952 99.5798 711.369 Q96.4085 706.762 96.4085 698.036 Q96.4085 689.841 100.297 684.98 Q104.186 680.096 110.737 680.096 Q112.496 680.096 114.279 680.443 Q116.084 680.79 118.029 681.485 Z" fill="#000000" fill-rule="nonzero" fill-opacity="1" /><path clip-path="url(#clip290)" d="M63.2837 414.002 Q59.6726 414.002 57.8439 417.567 Q56.0384 421.109 56.0384 428.239 Q56.0384 435.345 57.8439 438.91 Q59.6726 442.451 63.2837 442.451 Q66.918 442.451 68.7235 438.91 Q70.5522 435.345 70.5522 428.239 Q70.5522 421.109 68.7235 417.567 Q66.918 414.002 63.2837 414.002 M63.2837 410.299 Q69.0939 410.299 72.1494 414.905 Q75.2281 419.489 75.2281 428.239 Q75.2281 436.965 72.1494 441.572 Q69.0939 446.155 63.2837 446.155 Q57.4736 446.155 54.3949 441.572 Q51.3393 436.965 51.3393 428.239 Q51.3393 419.489 54.3949 414.905 Q57.4736 410.299 63.2837 410.299 Z" fill="#000000" fill-rule="nonzero" fill-opacity="1" /><path clip-path="url(#clip290)" d="M83.4457 439.604 L88.3299 439.604 L88.3299 445.484 L83.4457 445.484 L83.4457 439.604 Z" fill="#000000" fill-rule="nonzero" fill-opacity="1" /><path clip-path="url(#clip290)" d="M98.6539 444.766 L98.6539 440.507 Q100.413 441.34 102.219 441.78 Q104.024 442.22 105.76 442.22 Q110.39 442.22 112.82 439.118 Q115.274 435.993 115.621 429.651 Q114.279 431.641 112.219 432.706 Q110.158 433.771 107.658 433.771 Q102.473 433.771 99.4409 430.646 Q96.4317 427.498 96.4317 422.058 Q96.4317 416.734 99.5798 413.516 Q102.728 410.299 107.959 410.299 Q113.955 410.299 117.103 414.905 Q120.274 419.489 120.274 428.239 Q120.274 436.41 116.385 441.294 Q112.52 446.155 105.969 446.155 Q104.209 446.155 102.404 445.808 Q100.598 445.461 98.6539 444.766 M107.959 430.113 Q111.108 430.113 112.936 427.961 Q114.788 425.808 114.788 422.058 Q114.788 418.331 112.936 416.178 Q111.108 414.002 107.959 414.002 Q104.811 414.002 102.959 416.178 Q101.131 418.331 101.131 422.058 Q101.131 425.808 102.959 427.961 Q104.811 430.113 107.959 430.113 Z" fill="#000000" fill-rule="nonzero" fill-opacity="1" /><path clip-path="url(#clip290)" d="M55.506 171.752 L63.1448 171.752 L63.1448 145.386 L54.8347 147.053 L54.8347 142.793 L63.0985 141.127 L67.7744 141.127 L67.7744 171.752 L75.4133 171.752 L75.4133 175.687 L55.506 175.687 L55.506 171.752 Z" fill="#000000" fill-rule="nonzero" fill-opacity="1" /><path clip-path="url(#clip290)" d="M84.8577 169.807 L89.7419 169.807 L89.7419 175.687 L84.8577 175.687 L84.8577 169.807 Z" fill="#000000" fill-rule="nonzero" fill-opacity="1" /><path clip-path="url(#clip290)" d="M103.955 171.752 L120.274 171.752 L120.274 175.687 L98.3298 175.687 L98.3298 171.752 Q100.992 168.997 105.575 164.367 Q110.182 159.715 111.362 158.372 Q113.608 155.849 114.487 154.113 Q115.39 152.354 115.39 150.664 Q115.39 147.909 113.445 146.173 Q111.524 144.437 108.422 144.437 Q106.223 144.437 103.77 145.201 Q101.339 145.965 98.5613 147.516 L98.5613 142.793 Q101.385 141.659 103.839 141.08 Q106.293 140.502 108.33 140.502 Q113.7 140.502 116.895 143.187 Q120.089 145.872 120.089 150.363 Q120.089 152.492 119.279 154.414 Q118.492 156.312 116.385 158.904 Q115.807 159.576 112.705 162.793 Q109.603 165.988 103.955 171.752 Z" fill="#000000" fill-rule="nonzero" fill-opacity="1" /><polyline clip-path="url(#clip292)" style="stroke:#009af9; stroke-linecap:round; stroke-linejoin:round; stroke-width:16; stroke-opacity:1; fill:none" stroke-dasharray="8, 16" points="218.439,1102.51 228.852,1093.59 239.264,1080.52 249.677,1067 260.09,1058.04 270.503,1057.57 280.916,1066.31 291.329,1082.3 301.741,1102.95 312.154,1126.81 322.567,1153.61 332.98,1183.43 343.393,1215.74 353.805,1249.11 364.218,1281.7 374.631,1312.09 385.044,1339.56 395.457,1363.81 405.87,1384.44 416.282,1400.8 426.695,1412.14 437.108,1417.76 447.521,1417.19 457.934,1410.24 468.347,1397.2 478.759,1378.86 489.172,1356.29 499.585,1330.53 509.998,1302.3 520.411,1272.05 530.824,1240.24 541.236,1207.62 551.649,1175.3 562.062,1144.74 572.475,1117.51 582.888,1095.04 593.301,1078.27 603.713,1067.43 614.126,1061.98 624.539,1061.05 634.952,1064.1 645.365,1071.58 655.777,1084.81 666.19,1104.9 676.603,1131.62 687.016,1163.01 697.429,1196.18 707.842,1228.6 718.254,1259.13 728.667,1288.11 739.08,1316.34 749.493,1343.76 759.906,1369.11 770.319,1390.51 780.731,1406.24 791.144,1415.34 801.557,1417.94 811.97,1414.97 822.383,1407.14 832.796,1394.24 843.208,1375.6 853.621,1350.71 864.034,1320.04 874.447,1286.35 884.86,1255.07 895.273,1230.27 905.685,1208.87 916.098,1182.9 926.511,1149.08 936.924,1113.35 947.337,1085.57 957.749,1070.4 968.162,1063.61 978.575,1058.58 988.988,1055.29 999.401,1059.7 1009.81,1074 1020.23,1093.27 1030.64,1119.4 1041.05,1159.97 1051.46,1197.01 1061.88,1207.2 1072.29,1224.08 1082.7,1282.25 1093.12,1327.83 1103.53,1334.83 1113.94,1336.75 1124.35,1348.61 1134.77,1370.27 1145.18,1400.04 1155.59,1430.16 1166.01,1445.72 1176.42,1437.04 1186.83,1410.42 1197.24,1381.52 1207.66,1361.17 1218.07,1348.02 1228.48,1325.83 1238.9,1253.29 1249.31,1046.03 1259.72,687.563 1270.13,401.274 1280.55,317.135 1290.96,331.47 1301.37,350.775 1311.79,355.644 1322.2,353.045 1332.61,347.317 1343.02,337.839 1353.44,325.506 1363.85,315.98 1374.26,313.761 1384.68,318.632 1395.09,327.695 1405.5,334.103 1415.91,335.224 1426.33,339.719 1436.74,358.602 1447.15,388.681 1457.57,405.013 1467.98,374.028 1478.39,307.339 1488.8,284.801 1499.22,309.922 1509.63,327.222 1520.04,336.957 1530.45,353.719 1540.87,371.687 1551.28,383.207 1561.69,390.631 1572.11,394.443 1582.52,384.799 1592.93,349.875 1603.34,294.376 1613.76,245.958 1624.17,234.604 1634.58,267.016 1645,325.496 1655.41,385.717 1665.82,430.096 1676.23,448.92 1686.65,436.93 1697.06,393.677 1707.47,328.17 1717.89,260.804 1728.3,216.209 1738.71,210.583 1749.12,244.054 1759.54,303.374 1769.95,370.401 1780.36,428.962 1790.78,466.945 1801.19,475.312 1811.6,447.267 1822.01,380.611 1832.43,285.471 1842.84,192.96 1853.25,147.309 1863.67,173.991 1874.08,257.285 1884.49,356.919 1894.9,438.738 1905.32,486.571 1915.73,497.126 1926.14,472.615 1936.56,417.566 1946.97,339.668 1957.38,252.803 1967.79,179.297 1978.21,146.346 1988.62,172.96 1999.03,254.735 2009.45,363.563 2019.86,464.241 2030.27,528.302 2040.68,538.559 2051.1,492.303 2061.51,401.688 2071.92,292.031 2082.33,197.298 2092.75,145.657 2103.16,146.756 2113.57,195.275 2123.99,280.17 2134.4,385.07 2144.81,484.994 2155.22,551.726 2165.64,564.555 2176.05,514.089 2186.46,402.572 2196.88,255.399 2207.29,133.555 2217.7,100.433 2228.11,156.792 2238.53,248.345 2248.94,332.507 2259.35,400.637 2269.77,458.78 2280.18,512.173 2290.59,562.034 "/>
<polyline clip-path="url(#clip292)" style="stroke:#e26f46; stroke-linecap:round; stroke-linejoin:round; stroke-width:4; stroke-opacity:1; fill:none" points="218.439,1102.52 228.852,1083.35 239.264,1069.22 249.677,1060.59 260.09,1057.73 270.503,1060.74 280.916,1069.53 291.329,1083.8 301.741,1103.09 312.154,1126.76 322.567,1154.06 332.98,1184.08 343.393,1215.85 353.805,1248.33 364.218,1280.46 374.631,1311.19 385.044,1339.52 395.457,1364.52 405.87,1385.38 416.282,1401.41 426.695,1412.1 437.108,1417.09 447.521,1416.23 457.934,1409.53 468.347,1397.23 478.759,1379.71 489.172,1357.56 499.585,1331.49 509.998,1302.35 520.411,1271.1 530.824,1238.76 541.236,1206.38 551.649,1175.02 562.062,1145.7 572.475,1119.38 582.888,1096.92 593.301,1079.05 603.713,1066.36 614.126,1059.25 624.539,1057.96 634.952,1062.54 645.365,1072.83 655.777,1088.5 666.19,1109.03 676.603,1133.76 687.016,1161.88 697.429,1192.47 707.842,1224.53 718.254,1257.02 728.667,1288.87 739.08,1319.05 749.493,1346.58 759.906,1370.54 770.319,1390.17 780.731,1404.82 791.144,1414.01 801.557,1417.44 811.97,1415 822.383,1406.77 832.796,1393.02 843.208,1374.2 853.621,1350.92 864.034,1323.94 874.447,1294.15 884.86,1262.5 895.273,1230.05 905.685,1197.84 916.098,1166.93 926.511,1138.32 936.924,1112.95 947.337,1091.66 957.749,1075.12 968.162,1063.89 978.575,1058.33 988.988,1058.62 999.401,1064.75 1009.81,1076.52 1020.23,1093.55 1030.64,1115.27 1041.05,1141 1051.46,1169.87 1061.88,1200.96 1072.29,1233.24 1082.7,1265.66 1093.12,1297.17 1103.53,1326.73 1113.94,1353.38 1124.35,1376.26 1134.77,1394.61 1145.18,1407.83 1155.59,1415.5 1166.01,1417.36 1176.42,1413.36 1186.83,1403.62 1197.24,1388.46 1207.66,1368.37 1218.07,1344.02 1228.48,1316.2 1238.9,1285.81 1249.31,1253.84 1259.72,336.965 1270.13,335.479 1280.55,336.832 1290.96,341.335 1301.37,347.609 1311.79,353.002 1322.2,354.599 1332.61,350.449 1343.02,340.557 1353.44,327.22 1363.85,314.53 1374.26,307.116 1384.68,308.539 1395.09,319.85 1405.5,338.876 1415.91,360.528 1426.33,378.16 1436.74,385.598 1447.15,379.231 1457.57,359.477 1467.98,331.063 1478.39,301.943 1488.8,281.073 1499.22,275.666 1509.63,288.773 1520.04,317.972 1530.45,355.683 1540.87,391.107 1551.28,413.323 1561.69,414.639 1572.11,393.175 1582.52,353.839 1592.93,307.274 1603.34,266.996 1613.76,245.465 1624.17,250.252 1634.58,281.468 1645,331.302 1655.41,385.933 1665.82,429.359 1676.23,448.081 1686.65,435.278 1697.06,393.178 1707.47,332.836 1717.89,271.259 1728.3,226.61 1738.71,212.859 1749.12,235.439 1759.54,289.256 1769.95,359.759 1780.36,426.851 1790.78,470.623 1801.19,477.253 1811.6,443.337 1822.01,377.296 1832.43,297.338 1842.84,226.449 1853.25,185.78 1863.67,188.351 1874.08,234.921 1884.49,313.343 1894.9,401.696 1905.32,474.413 1915.73,509.674 1926.14,495.943 1936.56,435.689 1946.97,345.098 1957.38,249.745 1967.79,177.382 1978.21,149.856 1988.62,176.531 1999.03,251.18 2009.45,353.359 2019.86,453.995 2030.27,523.655 2040.68,541.152 2051.1,499.97 2061.51,410.566 2071.92,297.755 2082.33,193.839 2092.75,129.35 2103.16,124.09 2113.57,181.07 2123.99,285.22 2134.4,407.338 2144.81,512.279 2155.22,569.064 2165.64,560.023 2176.05,486.259 2186.46,367.762 2196.88,238.01 2207.29,134.514 2217.7,87.9763 2228.11,113.188 2238.53,204.372 2248.94,336.425 2259.35,471.808 2269.77,571.225 2280.18,605.02 2290.59,562.017 "/>
<path clip-path="url(#clip290)" d="M229.49 250.738 L675.966 250.738 L675.966 95.2176 L229.49 95.2176  Z" fill="#ffffff" fill-rule="evenodd" fill-opacity="1"/>
<polyline clip-path="url(#clip290)" style="stroke:#000000; stroke-linecap:round; stroke-linejoin:round; stroke-width:4; stroke-opacity:1; fill:none" points="229.49,250.738 675.966,250.738 675.966,95.2176 229.49,95.2176 229.49,250.738 "/>
<polyline clip-path="url(#clip290)" style="stroke:#009af9; stroke-linecap:round; stroke-linejoin:round; stroke-width:16; stroke-opacity:1; fill:none" stroke-dasharray="8, 16" points="253.896,147.058 400.328,147.058 "/>
<path clip-path="url(#clip290)" d="M429.409 133.62 L429.409 146.606 L435.289 146.606 Q438.552 146.606 440.335 144.916 Q442.117 143.227 442.117 140.102 Q442.117 137 440.335 135.31 Q438.552 133.62 435.289 133.62 L429.409 133.62 M424.733 129.778 L435.289 129.778 Q441.099 129.778 444.062 132.416 Q447.048 135.032 447.048 140.102 Q447.048 145.217 444.062 147.833 Q441.099 150.449 435.289 150.449 L429.409 150.449 L429.409 164.338 L424.733 164.338 L424.733 129.778 Z" fill="#000000" fill-rule="nonzero" fill-opacity="1" /><path clip-path="url(#clip290)" d="M467.325 142.393 Q466.608 141.977 465.751 141.791 Q464.918 141.583 463.899 141.583 Q460.288 141.583 458.344 143.944 Q456.423 146.282 456.423 150.68 L456.423 164.338 L452.14 164.338 L452.14 138.412 L456.423 138.412 L456.423 142.44 Q457.765 140.078 459.918 138.944 Q462.071 137.787 465.149 137.787 Q465.589 137.787 466.122 137.856 Q466.654 137.903 467.302 138.018 L467.325 142.393 Z" fill="#000000" fill-rule="nonzero" fill-opacity="1" /><path clip-path="url(#clip290)" d="M492.927 150.31 L492.927 152.393 L473.344 152.393 Q473.622 156.791 475.983 159.106 Q478.367 161.398 482.603 161.398 Q485.057 161.398 487.348 160.796 Q489.663 160.194 491.932 158.99 L491.932 163.018 Q489.64 163.99 487.233 164.5 Q484.825 165.009 482.348 165.009 Q476.145 165.009 472.511 161.398 Q468.899 157.787 468.899 151.629 Q468.899 145.264 472.325 141.537 Q475.774 137.787 481.608 137.787 Q486.839 137.787 489.872 141.166 Q492.927 144.523 492.927 150.31 M488.668 149.06 Q488.622 145.565 486.7 143.481 Q484.802 141.398 481.654 141.398 Q478.089 141.398 475.936 143.412 Q473.807 145.426 473.483 149.083 L488.668 149.06 Z" fill="#000000" fill-rule="nonzero" fill-opacity="1" /><path clip-path="url(#clip290)" d="M516.978 142.347 L516.978 128.319 L521.237 128.319 L521.237 164.338 L516.978 164.338 L516.978 160.449 Q515.635 162.763 513.575 163.898 Q511.538 165.009 508.668 165.009 Q503.969 165.009 501.006 161.259 Q498.066 157.509 498.066 151.398 Q498.066 145.287 501.006 141.537 Q503.969 137.787 508.668 137.787 Q511.538 137.787 513.575 138.921 Q515.635 140.032 516.978 142.347 M502.464 151.398 Q502.464 156.097 504.385 158.782 Q506.33 161.444 509.709 161.444 Q513.089 161.444 515.033 158.782 Q516.978 156.097 516.978 151.398 Q516.978 146.699 515.033 144.037 Q513.089 141.352 509.709 141.352 Q506.33 141.352 504.385 144.037 Q502.464 146.699 502.464 151.398 Z" fill="#000000" fill-rule="nonzero" fill-opacity="1" /><path clip-path="url(#clip290)" d="M530.01 138.412 L534.269 138.412 L534.269 164.338 L530.01 164.338 L530.01 138.412 M530.01 128.319 L534.269 128.319 L534.269 133.713 L530.01 133.713 L530.01 128.319 Z" fill="#000000" fill-rule="nonzero" fill-opacity="1" /><path clip-path="url(#clip290)" d="M561.839 139.407 L561.839 143.389 Q560.033 142.393 558.205 141.907 Q556.399 141.398 554.547 141.398 Q550.404 141.398 548.112 144.037 Q545.82 146.652 545.82 151.398 Q545.82 156.143 548.112 158.782 Q550.404 161.398 554.547 161.398 Q556.399 161.398 558.205 160.912 Q560.033 160.402 561.839 159.407 L561.839 163.342 Q560.056 164.176 558.135 164.592 Q556.237 165.009 554.084 165.009 Q548.228 165.009 544.779 161.328 Q541.33 157.648 541.33 151.398 Q541.33 145.055 544.802 141.421 Q548.297 137.787 554.362 137.787 Q556.33 137.787 558.205 138.203 Q560.08 138.597 561.839 139.407 Z" fill="#000000" fill-rule="nonzero" fill-opacity="1" /><path clip-path="url(#clip290)" d="M573.459 131.051 L573.459 138.412 L582.232 138.412 L582.232 141.722 L573.459 141.722 L573.459 155.796 Q573.459 158.967 574.316 159.87 Q575.195 160.773 577.857 160.773 L582.232 160.773 L582.232 164.338 L577.857 164.338 Q572.927 164.338 571.052 162.509 Q569.177 160.657 569.177 155.796 L569.177 141.722 L566.052 141.722 L566.052 138.412 L569.177 138.412 L569.177 131.051 L573.459 131.051 Z" fill="#000000" fill-rule="nonzero" fill-opacity="1" /><path clip-path="url(#clip290)" d="M587.834 138.412 L592.093 138.412 L592.093 164.338 L587.834 164.338 L587.834 138.412 M587.834 128.319 L592.093 128.319 L592.093 133.713 L587.834 133.713 L587.834 128.319 Z" fill="#000000" fill-rule="nonzero" fill-opacity="1" /><path clip-path="url(#clip290)" d="M611.051 141.398 Q607.626 141.398 605.635 144.083 Q603.644 146.745 603.644 151.398 Q603.644 156.051 605.612 158.736 Q607.602 161.398 611.051 161.398 Q614.454 161.398 616.445 158.713 Q618.436 156.027 618.436 151.398 Q618.436 146.791 616.445 144.106 Q614.454 141.398 611.051 141.398 M611.051 137.787 Q616.607 137.787 619.778 141.398 Q622.95 145.009 622.95 151.398 Q622.95 157.764 619.778 161.398 Q616.607 165.009 611.051 165.009 Q605.473 165.009 602.302 161.398 Q599.153 157.764 599.153 151.398 Q599.153 145.009 602.302 141.398 Q605.473 137.787 611.051 137.787 Z" fill="#000000" fill-rule="nonzero" fill-opacity="1" /><path clip-path="url(#clip290)" d="M651.561 148.689 L651.561 164.338 L647.301 164.338 L647.301 148.828 Q647.301 145.148 645.866 143.319 Q644.431 141.49 641.561 141.49 Q638.112 141.49 636.121 143.69 Q634.13 145.889 634.13 149.685 L634.13 164.338 L629.848 164.338 L629.848 138.412 L634.13 138.412 L634.13 142.44 Q635.658 140.102 637.718 138.944 Q639.801 137.787 642.51 137.787 Q646.977 137.787 649.269 140.565 Q651.561 143.319 651.561 148.689 Z" fill="#000000" fill-rule="nonzero" fill-opacity="1" /><polyline clip-path="url(#clip290)" style="stroke:#e26f46; stroke-linecap:round; stroke-linejoin:round; stroke-width:4; stroke-opacity:1; fill:none" points="253.896,198.898 400.328,198.898 "/>
<path clip-path="url(#clip290)" d="M424.733 181.618 L446.585 181.618 L446.585 185.553 L429.409 185.553 L429.409 195.784 L445.867 195.784 L445.867 199.719 L429.409 199.719 L429.409 212.242 L447.001 212.242 L447.001 216.178 L424.733 216.178 L424.733 181.618 Z" fill="#000000" fill-rule="nonzero" fill-opacity="1" /><path clip-path="url(#clip290)" d="M476.052 190.252 L466.677 202.867 L476.538 216.178 L471.515 216.178 L463.969 205.992 L456.423 216.178 L451.4 216.178 L461.469 202.613 L452.256 190.252 L457.279 190.252 L464.154 199.488 L471.029 190.252 L476.052 190.252 Z" fill="#000000" fill-rule="nonzero" fill-opacity="1" /><path clip-path="url(#clip290)" d="M494.339 203.145 Q489.177 203.145 487.186 204.326 Q485.196 205.506 485.196 208.354 Q485.196 210.622 486.677 211.965 Q488.182 213.284 490.751 213.284 Q494.293 213.284 496.422 210.784 Q498.575 208.261 498.575 204.094 L498.575 203.145 L494.339 203.145 M502.834 201.386 L502.834 216.178 L498.575 216.178 L498.575 212.242 Q497.117 214.603 494.941 215.738 Q492.765 216.849 489.617 216.849 Q485.635 216.849 483.274 214.627 Q480.936 212.381 480.936 208.631 Q480.936 204.256 483.853 202.034 Q486.793 199.812 492.603 199.812 L498.575 199.812 L498.575 199.395 Q498.575 196.455 496.631 194.858 Q494.71 193.238 491.214 193.238 Q488.992 193.238 486.885 193.77 Q484.779 194.303 482.835 195.367 L482.835 191.432 Q485.173 190.53 487.372 190.09 Q489.571 189.627 491.654 189.627 Q497.279 189.627 500.057 192.543 Q502.834 195.46 502.834 201.386 Z" fill="#000000" fill-rule="nonzero" fill-opacity="1" /><path clip-path="url(#clip290)" d="M530.265 191.247 L530.265 195.229 Q528.459 194.233 526.631 193.747 Q524.825 193.238 522.973 193.238 Q518.83 193.238 516.538 195.877 Q514.246 198.492 514.246 203.238 Q514.246 207.983 516.538 210.622 Q518.83 213.238 522.973 213.238 Q524.825 213.238 526.631 212.752 Q528.459 212.242 530.265 211.247 L530.265 215.182 Q528.482 216.016 526.561 216.432 Q524.663 216.849 522.51 216.849 Q516.654 216.849 513.205 213.168 Q509.756 209.488 509.756 203.238 Q509.756 196.895 513.228 193.261 Q516.723 189.627 522.788 189.627 Q524.756 189.627 526.631 190.043 Q528.506 190.437 530.265 191.247 Z" fill="#000000" fill-rule="nonzero" fill-opacity="1" /><path clip-path="url(#clip290)" d="M541.885 182.891 L541.885 190.252 L550.658 190.252 L550.658 193.562 L541.885 193.562 L541.885 207.636 Q541.885 210.807 542.742 211.71 Q543.621 212.613 546.283 212.613 L550.658 212.613 L550.658 216.178 L546.283 216.178 Q541.353 216.178 539.478 214.349 Q537.603 212.497 537.603 207.636 L537.603 193.562 L534.478 193.562 L534.478 190.252 L537.603 190.252 L537.603 182.891 L541.885 182.891 Z" fill="#000000" fill-rule="nonzero" fill-opacity="1" /></svg>
