<?xml version="1.0" encoding="utf-8"?>
<svg xmlns="http://www.w3.org/2000/svg" xmlns:xlink="http://www.w3.org/1999/xlink" width="600" height="400" viewBox="0 0 2400 1600">
<defs>
  <clipPath id="clip320">
    <rect x="0" y="0" width="2400" height="1600"/>
  </clipPath>
</defs>
<path clip-path="url(#clip320)" d="M0 1600 L2400 1600 L2400 0 L0 0  Z" fill="#ffffff" fill-rule="evenodd" fill-opacity="1"/>
<defs>
  <clipPath id="clip321">
    <rect x="480" y="0" width="1681" height="1600"/>
  </clipPath>
</defs>
<path clip-path="url(#clip320)" d="M156.274 1486.45 L2352.76 1486.45 L2352.76 47.2441 L156.274 47.2441  Z" fill="#ffffff" fill-rule="evenodd" fill-opacity="1"/>
<defs>
  <clipPath id="clip322">
    <rect x="156" y="47" width="2197" height="1440"/>
  </clipPath>
</defs>
<polyline clip-path="url(#clip322)" style="stroke:#000000; stroke-linecap:round; stroke-linejoin:round; stroke-width:2; stroke-opacity:0.1; fill:none" points="218.439,1486.45 218.439,47.2441 "/>
<polyline clip-path="url(#clip322)" style="stroke:#000000; stroke-linecap:round; stroke-linejoin:round; stroke-width:2; stroke-opacity:0.1; fill:none" points="736.477,1486.45 736.477,47.2441 "/>
<polyline clip-path="url(#clip322)" style="stroke:#000000; stroke-linecap:round; stroke-linejoin:round; stroke-width:2; stroke-opacity:0.1; fill:none" points="1254.52,1486.45 1254.52,47.2441 "/>
<polyline clip-path="url(#clip322)" style="stroke:#000000; stroke-linecap:round; stroke-linejoin:round; stroke-width:2; stroke-opacity:0.1; fill:none" points="1772.55,1486.45 1772.55,47.2441 "/>
<polyline clip-path="url(#clip322)" style="stroke:#000000; stroke-linecap:round; stroke-linejoin:round; stroke-width:2; stroke-opacity:0.1; fill:none" points="2290.59,1486.45 2290.59,47.2441 "/>
<polyline clip-path="url(#clip320)" style="stroke:#000000; stroke-linecap:round; stroke-linejoin:round; stroke-width:4; stroke-opacity:1; fill:none" points="156.274,1486.45 2352.76,1486.45 "/>
<polyline clip-path="url(#clip320)" style="stroke:#000000; stroke-linecap:round; stroke-linejoin:round; stroke-width:4; stroke-opacity:1; fill:none" points="218.439,1486.45 218.439,1467.55 "/>
<polyline clip-path="url(#clip320)" style="stroke:#000000; stroke-linecap:round; stroke-linejoin:round; stroke-width:4; stroke-opacity:1; fill:none" points="736.477,1486.45 736.477,1467.55 "/>
<polyline clip-path="url(#clip320)" style="stroke:#000000; stroke-linecap:round; stroke-linejoin:round; stroke-width:4; stroke-opacity:1; fill:none" points="1254.52,1486.45 1254.52,1467.55 "/>
<polyline clip-path="url(#clip320)" style="stroke:#000000; stroke-linecap:round; stroke-linejoin:round; stroke-width:4; stroke-opacity:1; fill:none" points="1772.55,1486.45 1772.55,1467.55 "/>
<polyline clip-path="url(#clip320)" style="stroke:#000000; stroke-linecap:round; stroke-linejoin:round; stroke-width:4; stroke-opacity:1; fill:none" points="2290.59,1486.45 2290.59,1467.55 "/>
<path clip-path="url(#clip320)" d="M164.967 1532.02 L194.643 1532.02 L194.643 1535.95 L164.967 1535.95 L164.967 1532.02 Z" fill="#000000" fill-rule="nonzero" fill-opacity="1" /><path clip-path="url(#clip320)" d="M205.545 1544.91 L213.184 1544.91 L213.184 1518.55 L204.874 1520.21 L204.874 1515.95 L213.138 1514.29 L217.814 1514.29 L217.814 1544.91 L225.453 1544.91 L225.453 1548.85 L205.545 1548.85 L205.545 1544.91 Z" fill="#000000" fill-rule="nonzero" fill-opacity="1" /><path clip-path="url(#clip320)" d="M234.897 1542.97 L239.781 1542.97 L239.781 1548.85 L234.897 1548.85 L234.897 1542.97 Z" fill="#000000" fill-rule="nonzero" fill-opacity="1" /><path clip-path="url(#clip320)" d="M259.966 1517.37 Q256.355 1517.37 254.527 1520.93 Q252.721 1524.47 252.721 1531.6 Q252.721 1538.71 254.527 1542.27 Q256.355 1545.82 259.966 1545.82 Q263.601 1545.82 265.406 1542.27 Q267.235 1538.71 267.235 1531.6 Q267.235 1524.47 265.406 1520.93 Q263.601 1517.37 259.966 1517.37 M259.966 1513.66 Q265.776 1513.66 268.832 1518.27 Q271.911 1522.85 271.911 1531.6 Q271.911 1540.33 268.832 1544.94 Q265.776 1549.52 259.966 1549.52 Q254.156 1549.52 251.077 1544.94 Q248.022 1540.33 248.022 1531.6 Q248.022 1522.85 251.077 1518.27 Q254.156 1513.66 259.966 1513.66 Z" fill="#000000" fill-rule="nonzero" fill-opacity="1" /><path clip-path="url(#clip320)" d="M683.503 1532.02 L713.178 1532.02 L713.178 1535.95 L683.503 1535.95 L683.503 1532.02 Z" fill="#000000" fill-rule="nonzero" fill-opacity="1" /><path clip-path="url(#clip320)" d="M733.271 1517.37 Q729.66 1517.37 727.831 1520.93 Q726.026 1524.47 726.026 1531.6 Q726.026 1538.71 727.831 1542.27 Q729.66 1545.82 733.271 1545.82 Q736.905 1545.82 738.711 1542.27 Q740.539 1538.71 740.539 1531.6 Q740.539 1524.47 738.711 1520.93 Q736.905 1517.37 733.271 1517.37 M733.271 1513.66 Q739.081 1513.66 742.137 1518.27 Q745.215 1522.85 745.215 1531.6 Q745.215 1540.33 742.137 1544.94 Q739.081 1549.52 733.271 1549.52 Q727.461 1549.52 724.382 1544.94 Q721.327 1540.33 721.327 1531.6 Q721.327 1522.85 724.382 1518.27 Q727.461 1513.66 733.271 1513.66 Z" fill="#000000" fill-rule="nonzero" fill-opacity="1" /><path clip-path="url(#clip320)" d="M753.433 1542.97 L758.317 1542.97 L758.317 1548.85 L753.433 1548.85 L753.433 1542.97 Z" fill="#000000" fill-rule="nonzero" fill-opacity="1" /><path clip-path="url(#clip320)" d="M768.548 1514.29 L786.905 1514.29 L786.905 1518.22 L772.831 1518.22 L772.831 1526.7 Q773.849 1526.35 774.868 1526.19 Q775.886 1526 776.905 1526 Q782.692 1526 786.072 1529.17 Q789.451 1532.34 789.451 1537.76 Q789.451 1543.34 785.979 1546.44 Q782.507 1549.52 776.187 1549.52 Q774.011 1549.52 771.743 1549.15 Q769.498 1548.78 767.09 1548.04 L767.09 1543.34 Q769.173 1544.47 771.396 1545.03 Q773.618 1545.58 776.095 1545.58 Q780.099 1545.58 782.437 1543.48 Q784.775 1541.37 784.775 1537.76 Q784.775 1534.15 782.437 1532.04 Q780.099 1529.94 776.095 1529.94 Q774.22 1529.94 772.345 1530.35 Q770.493 1530.77 768.548 1531.65 L768.548 1514.29 Z" fill="#000000" fill-rule="nonzero" fill-opacity="1" /><path clip-path="url(#clip320)" d="M1231.9 1517.37 Q1228.29 1517.37 1226.46 1520.93 Q1224.65 1524.47 1224.65 1531.6 Q1224.65 1538.71 1226.46 1542.27 Q1228.29 1545.82 1231.9 1545.82 Q1235.53 1545.82 1237.34 1542.27 Q1239.17 1538.71 1239.17 1531.6 Q1239.17 1524.47 1237.34 1520.93 Q1235.53 1517.37 1231.9 1517.37 M1231.9 1513.66 Q1237.71 1513.66 1240.77 1518.27 Q1243.84 1522.85 1243.84 1531.6 Q1243.84 1540.33 1240.77 1544.94 Q1237.71 1549.52 1231.9 1549.52 Q1226.09 1549.52 1223.01 1544.94 Q1219.96 1540.33 1219.96 1531.6 Q1219.96 1522.85 1223.01 1518.27 Q1226.09 1513.66 1231.9 1513.66 Z" fill="#000000" fill-rule="nonzero" fill-opacity="1" /><path clip-path="url(#clip320)" d="M1252.06 1542.97 L1256.95 1542.97 L1256.95 1548.85 L1252.06 1548.85 L1252.06 1542.97 Z" fill="#000000" fill-rule="nonzero" fill-opacity="1" /><path clip-path="url(#clip320)" d="M1277.13 1517.37 Q1273.52 1517.37 1271.69 1520.93 Q1269.89 1524.47 1269.89 1531.6 Q1269.89 1538.71 1271.69 1542.27 Q1273.52 1545.82 1277.13 1545.82 Q1280.76 1545.82 1282.57 1542.27 Q1284.4 1538.71 1284.4 1531.6 Q1284.4 1524.47 1282.57 1520.93 Q1280.76 1517.37 1277.13 1517.37 M1277.13 1513.66 Q1282.94 1513.66 1286 1518.27 Q1289.08 1522.85 1289.08 1531.6 Q1289.08 1540.33 1286 1544.94 Q1282.94 1549.52 1277.13 1549.52 Q1271.32 1549.52 1268.24 1544.94 Q1265.19 1540.33 1265.19 1531.6 Q1265.19 1522.85 1268.24 1518.27 Q1271.32 1513.66 1277.13 1513.66 Z" fill="#000000" fill-rule="nonzero" fill-opacity="1" /><path clip-path="url(#clip320)" d="M1750.44 1517.37 Q1746.82 1517.37 1745 1520.93 Q1743.19 1524.47 1743.19 1531.6 Q1743.19 1538.71 1745 1542.27 Q1746.82 1545.82 1750.44 1545.82 Q1754.07 1545.82 1755.88 1542.27 Q1757.7 1538.71 1757.7 1531.6 Q1757.7 1524.47 1755.88 1520.93 Q1754.07 1517.37 1750.44 1517.37 M1750.44 1513.66 Q1756.25 1513.66 1759.3 1518.27 Q1762.38 1522.85 1762.38 1531.6 Q1762.38 1540.33 1759.3 1544.94 Q1756.25 1549.52 1750.44 1549.52 Q1744.63 1549.52 1741.55 1544.94 Q1738.49 1540.33 1738.49 1531.6 Q1738.49 1522.85 1741.55 1518.27 Q1744.63 1513.66 1750.44 1513.66 Z" fill="#000000" fill-rule="nonzero" fill-opacity="1" /><path clip-path="url(#clip320)" d="M1770.6 1542.97 L1775.48 1542.97 L1775.48 1548.85 L1770.6 1548.85 L1770.6 1542.97 Z" fill="#000000" fill-rule="nonzero" fill-opacity="1" /><path clip-path="url(#clip320)" d="M1785.71 1514.29 L1804.07 1514.29 L1804.07 1518.22 L1790 1518.22 L1790 1526.7 Q1791.01 1526.35 1792.03 1526.19 Q1793.05 1526 1794.07 1526 Q1799.86 1526 1803.24 1529.17 Q1806.62 1532.34 1806.62 1537.76 Q1806.62 1543.34 1803.14 1546.44 Q1799.67 1549.52 1793.35 1549.52 Q1791.18 1549.52 1788.91 1549.15 Q1786.66 1548.78 1784.25 1548.04 L1784.25 1543.34 Q1786.34 1544.47 1788.56 1545.03 Q1790.78 1545.58 1793.26 1545.58 Q1797.26 1545.58 1799.6 1543.48 Q1801.94 1541.37 1801.94 1537.76 Q1801.94 1534.15 1799.6 1532.04 Q1797.26 1529.94 1793.26 1529.94 Q1791.38 1529.94 1789.51 1530.35 Q1787.66 1530.77 1785.71 1531.65 L1785.71 1514.29 Z" fill="#000000" fill-rule="nonzero" fill-opacity="1" /><path clip-path="url(#clip320)" d="M2257.74 1544.91 L2265.38 1544.91 L2265.38 1518.55 L2257.07 1520.21 L2257.07 1515.95 L2265.34 1514.29 L2270.01 1514.29 L2270.01 1544.91 L2277.65 1544.91 L2277.65 1548.85 L2257.74 1548.85 L2257.74 1544.91 Z" fill="#000000" fill-rule="nonzero" fill-opacity="1" /><path clip-path="url(#clip320)" d="M2287.1 1542.97 L2291.98 1542.97 L2291.98 1548.85 L2287.1 1548.85 L2287.1 1542.97 Z" fill="#000000" fill-rule="nonzero" fill-opacity="1" /><path clip-path="url(#clip320)" d="M2312.17 1517.37 Q2308.55 1517.37 2306.73 1520.93 Q2304.92 1524.47 2304.92 1531.6 Q2304.92 1538.71 2306.73 1542.27 Q2308.55 1545.82 2312.17 1545.82 Q2315.8 1545.82 2317.61 1542.27 Q2319.43 1538.71 2319.43 1531.6 Q2319.43 1524.47 2317.61 1520.93 Q2315.8 1517.37 2312.17 1517.37 M2312.17 1513.66 Q2317.98 1513.66 2321.03 1518.27 Q2324.11 1522.85 2324.11 1531.6 Q2324.11 1540.33 2321.03 1544.94 Q2317.98 1549.52 2312.17 1549.52 Q2306.36 1549.52 2303.28 1544.94 Q2300.22 1540.33 2300.22 1531.6 Q2300.22 1522.85 2303.28 1518.27 Q2306.36 1513.66 2312.17 1513.66 Z" fill="#000000" fill-rule="nonzero" fill-opacity="1" /><polyline clip-path="url(#clip322)" style="stroke:#000000; stroke-linecap:round; stroke-linejoin:round; stroke-width:2; stroke-opacity:0.1; fill:none" points="156.274,1260.29 2352.76,1260.29 "/>
<polyline clip-path="url(#clip322)" style="stroke:#000000; stroke-linecap:round; stroke-linejoin:round; stroke-width:2; stroke-opacity:0.1; fill:none" points="156.274,985.168 2352.76,985.168 "/>
<polyline clip-path="url(#clip322)" style="stroke:#000000; stroke-linecap:round; stroke-linejoin:round; stroke-width:2; stroke-opacity:0.1; fill:none" points="156.274,710.045 2352.76,710.045 "/>
<polyline clip-path="url(#clip322)" style="stroke:#000000; stroke-linecap:round; stroke-linejoin:round; stroke-width:2; stroke-opacity:0.1; fill:none" points="156.274,434.921 2352.76,434.921 "/>
<polyline clip-path="url(#clip322)" style="stroke:#000000; stroke-linecap:round; stroke-linejoin:round; stroke-width:2; stroke-opacity:0.1; fill:none" points="156.274,159.797 2352.76,159.797 "/>
<polyline clip-path="url(#clip320)" style="stroke:#000000; stroke-linecap:round; stroke-linejoin:round; stroke-width:4; stroke-opacity:1; fill:none" points="156.274,1486.45 156.274,47.2441 "/>
<polyline clip-path="url(#clip320)" style="stroke:#000000; stroke-linecap:round; stroke-linejoin:round; stroke-width:4; stroke-opacity:1; fill:none" points="156.274,1260.29 175.172,1260.29 "/>
<polyline clip-path="url(#clip320)" style="stroke:#000000; stroke-linecap:round; stroke-linejoin:round; stroke-width:4; stroke-opacity:1; fill:none" points="156.274,985.168 175.172,985.168 "/>
<polyline clip-path="url(#clip320)" style="stroke:#000000; stroke-linecap:round; stroke-linejoin:round; stroke-width:4; stroke-opacity:1; fill:none" points="156.274,710.045 175.172,710.045 "/>
<polyline clip-path="url(#clip320)" style="stroke:#000000; stroke-linecap:round; stroke-linejoin:round; stroke-width:4; stroke-opacity:1; fill:none" points="156.274,434.921 175.172,434.921 "/>
<polyline clip-path="url(#clip320)" style="stroke:#000000; stroke-linecap:round; stroke-linejoin:round; stroke-width:4; stroke-opacity:1; fill:none" points="156.274,159.797 175.172,159.797 "/>
<path clip-path="url(#clip320)" d="M63.0985 1246.09 Q59.4875 1246.09 57.6588 1249.66 Q55.8532 1253.2 55.8532 1260.33 Q55.8532 1267.43 57.6588 1271 Q59.4875 1274.54 63.0985 1274.54 Q66.7328 1274.54 68.5383 1271 Q70.367 1267.43 70.367 1260.33 Q70.367 1253.2 68.5383 1249.66 Q66.7328 1246.09 63.0985 1246.09 M63.0985 1242.39 Q68.9087 1242.39 71.9642 1246.99 Q75.0429 1251.58 75.0429 1260.33 Q75.0429 1269.05 71.9642 1273.66 Q68.9087 1278.24 63.0985 1278.24 Q57.2884 1278.24 54.2097 1273.66 Q51.1542 1269.05 51.1542 1260.33 Q51.1542 1251.58 54.2097 1246.99 Q57.2884 1242.39 63.0985 1242.39 Z" fill="#000000" fill-rule="nonzero" fill-opacity="1" /><path clip-path="url(#clip320)" d="M83.2605 1271.69 L88.1447 1271.69 L88.1447 1277.57 L83.2605 1277.57 L83.2605 1271.69 Z" fill="#000000" fill-rule="nonzero" fill-opacity="1" /><path clip-path="url(#clip320)" d="M108.33 1246.09 Q104.719 1246.09 102.89 1249.66 Q101.084 1253.2 101.084 1260.33 Q101.084 1267.43 102.89 1271 Q104.719 1274.54 108.33 1274.54 Q111.964 1274.54 113.77 1271 Q115.598 1267.43 115.598 1260.33 Q115.598 1253.2 113.77 1249.66 Q111.964 1246.09 108.33 1246.09 M108.33 1242.39 Q114.14 1242.39 117.195 1246.99 Q120.274 1251.58 120.274 1260.33 Q120.274 1269.05 117.195 1273.66 Q114.14 1278.24 108.33 1278.24 Q102.52 1278.24 99.4409 1273.66 Q96.3854 1269.05 96.3854 1260.33 Q96.3854 1251.58 99.4409 1246.99 Q102.52 1242.39 108.33 1242.39 Z" fill="#000000" fill-rule="nonzero" fill-opacity="1" /><path clip-path="url(#clip320)" d="M63.7467 970.967 Q60.1356 970.967 58.3069 974.532 Q56.5014 978.073 56.5014 985.203 Q56.5014 992.309 58.3069 995.874 Q60.1356 999.416 63.7467 999.416 Q67.3809 999.416 69.1865 995.874 Q71.0152 992.309 71.0152 985.203 Q71.0152 978.073 69.1865 974.532 Q67.3809 970.967 63.7467 970.967 M63.7467 967.263 Q69.5568 967.263 72.6124 971.87 Q75.6911 976.453 75.6911 985.203 Q75.6911 993.93 72.6124 998.536 Q69.5568 1003.12 63.7467 1003.12 Q57.9365 1003.12 54.8578 998.536 Q51.8023 993.93 51.8023 985.203 Q51.8023 976.453 54.8578 971.87 Q57.9365 967.263 63.7467 967.263 Z" fill="#000000" fill-rule="nonzero" fill-opacity="1" /><path clip-path="url(#clip320)" d="M83.9086 996.569 L88.7928 996.569 L88.7928 1002.45 L83.9086 1002.45 L83.9086 996.569 Z" fill="#000000" fill-rule="nonzero" fill-opacity="1" /><path clip-path="url(#clip320)" d="M113.145 983.814 Q116.501 984.532 118.376 986.8 Q120.274 989.069 120.274 992.402 Q120.274 997.518 116.756 1000.32 Q113.237 1003.12 106.756 1003.12 Q104.58 1003.12 102.265 1002.68 Q99.9733 1002.26 97.5197 1001.41 L97.5197 996.893 Q99.4641 998.027 101.779 998.606 Q104.094 999.184 106.617 999.184 Q111.015 999.184 113.307 997.448 Q115.621 995.712 115.621 992.402 Q115.621 989.347 113.469 987.634 Q111.339 985.897 107.52 985.897 L103.492 985.897 L103.492 982.055 L107.705 982.055 Q111.154 982.055 112.983 980.689 Q114.811 979.3 114.811 976.708 Q114.811 974.046 112.913 972.634 Q111.038 971.198 107.52 971.198 Q105.598 971.198 103.399 971.615 Q101.2 972.032 98.5613 972.911 L98.5613 968.745 Q101.223 968.004 103.538 967.634 Q105.876 967.263 107.936 967.263 Q113.26 967.263 116.362 969.694 Q119.464 972.101 119.464 976.222 Q119.464 979.092 117.82 981.083 Q116.177 983.05 113.145 983.814 Z" fill="#000000" fill-rule="nonzero" fill-opacity="1" /><path clip-path="url(#clip320)" d="M62.9365 695.843 Q59.3254 695.843 57.4967 699.408 Q55.6912 702.95 55.6912 710.079 Q55.6912 717.186 57.4967 720.751 Q59.3254 724.292 62.9365 724.292 Q66.5707 724.292 68.3763 720.751 Q70.205 717.186 70.205 710.079 Q70.205 702.95 68.3763 699.408 Q66.5707 695.843 62.9365 695.843 M62.9365 692.14 Q68.7467 692.14 71.8022 696.746 Q74.8809 701.329 74.8809 710.079 Q74.8809 718.806 71.8022 723.413 Q68.7467 727.996 62.9365 727.996 Q57.1264 727.996 54.0477 723.413 Q50.9921 718.806 50.9921 710.079 Q50.9921 701.329 54.0477 696.746 Q57.1264 692.14 62.9365 692.14 Z" fill="#000000" fill-rule="nonzero" fill-opacity="1" /><path clip-path="url(#clip320)" d="M83.0984 721.445 L87.9827 721.445 L87.9827 727.325 L83.0984 727.325 L83.0984 721.445 Z" fill="#000000" fill-rule="nonzero" fill-opacity="1" /><path clip-path="url(#clip320)" d="M108.746 708.181 Q105.598 708.181 103.746 710.334 Q101.918 712.487 101.918 716.237 Q101.918 719.964 103.746 722.139 Q105.598 724.292 108.746 724.292 Q111.895 724.292 113.723 722.139 Q115.575 719.964 115.575 716.237 Q115.575 712.487 113.723 710.334 Q111.895 708.181 108.746 708.181 M118.029 693.528 L118.029 697.788 Q116.27 696.954 114.464 696.515 Q112.682 696.075 110.922 696.075 Q106.293 696.075 103.839 699.2 Q101.409 702.325 101.061 708.644 Q102.427 706.63 104.487 705.565 Q106.547 704.478 109.024 704.478 Q114.233 704.478 117.242 707.649 Q120.274 710.797 120.274 716.237 Q120.274 721.561 117.126 724.778 Q113.978 727.996 108.746 727.996 Q102.751 727.996 99.5798 723.413 Q96.4085 718.806 96.4085 710.079 Q96.4085 701.885 100.297 697.024 Q104.186 692.14 110.737 692.14 Q112.496 692.14 114.279 692.487 Q116.084 692.834 118.029 693.528 Z" fill="#000000" fill-rule="nonzero" fill-opacity="1" /><path clip-path="url(#clip320)" d="M63.2837 420.72 Q59.6726 420.72 57.8439 424.284 Q56.0384 427.826 56.0384 434.956 Q56.0384 442.062 57.8439 445.627 Q59.6726 449.169 63.2837 449.169 Q66.918 449.169 68.7235 445.627 Q70.5522 442.062 70.5522 434.956 Q70.5522 427.826 68.7235 424.284 Q66.918 420.72 63.2837 420.72 M63.2837 417.016 Q69.0939 417.016 72.1494 421.622 Q75.2281 426.206 75.2281 434.956 Q75.2281 443.682 72.1494 448.289 Q69.0939 452.872 63.2837 452.872 Q57.4736 452.872 54.3949 448.289 Q51.3393 443.682 51.3393 434.956 Q51.3393 426.206 54.3949 421.622 Q57.4736 417.016 63.2837 417.016 Z" fill="#000000" fill-rule="nonzero" fill-opacity="1" /><path clip-path="url(#clip320)" d="M83.4457 446.321 L88.3299 446.321 L88.3299 452.201 L83.4457 452.201 L83.4457 446.321 Z" fill="#000000" fill-rule="nonzero" fill-opacity="1" /><path clip-path="url(#clip320)" d="M98.6539 451.483 L98.6539 447.224 Q100.413 448.057 102.219 448.497 Q104.024 448.937 105.76 448.937 Q110.39 448.937 112.82 445.835 Q115.274 442.71 115.621 436.368 Q114.279 438.358 112.219 439.423 Q110.158 440.488 107.658 440.488 Q102.473 440.488 99.4409 437.363 Q96.4317 434.215 96.4317 428.775 Q96.4317 423.451 99.5798 420.234 Q102.728 417.016 107.959 417.016 Q113.955 417.016 117.103 421.622 Q120.274 426.206 120.274 434.956 Q120.274 443.127 116.385 448.011 Q112.52 452.872 105.969 452.872 Q104.209 452.872 102.404 452.525 Q100.598 452.178 98.6539 451.483 M107.959 436.831 Q111.108 436.831 112.936 434.678 Q114.788 432.525 114.788 428.775 Q114.788 425.048 112.936 422.896 Q111.108 420.72 107.959 420.72 Q104.811 420.72 102.959 422.896 Q101.131 425.048 101.131 428.775 Q101.131 432.525 102.959 434.678 Q104.811 436.831 107.959 436.831 Z" fill="#000000" fill-rule="nonzero" fill-opacity="1" /><path clip-path="url(#clip320)" d="M55.506 173.142 L63.1448 173.142 L63.1448 146.776 L54.8347 148.443 L54.8347 144.184 L63.0985 142.517 L67.7744 142.517 L67.7744 173.142 L75.4133 173.142 L75.4133 177.077 L55.506 177.077 L55.506 173.142 Z" fill="#000000" fill-rule="nonzero" fill-opacity="1" /><path clip-path="url(#clip320)" d="M84.8577 171.198 L89.7419 171.198 L89.7419 177.077 L84.8577 177.077 L84.8577 171.198 Z" fill="#000000" fill-rule="nonzero" fill-opacity="1" /><path clip-path="url(#clip320)" d="M103.955 173.142 L120.274 173.142 L120.274 177.077 L98.3298 177.077 L98.3298 173.142 Q100.992 170.387 105.575 165.758 Q110.182 161.105 111.362 159.763 Q113.608 157.239 114.487 155.503 Q115.39 153.744 115.39 152.054 Q115.39 149.3 113.445 147.564 Q111.524 145.827 108.422 145.827 Q106.223 145.827 103.77 146.591 Q101.339 147.355 98.5613 148.906 L98.5613 144.184 Q101.385 143.05 103.839 142.471 Q106.293 141.892 108.33 141.892 Q113.7 141.892 116.895 144.577 Q120.089 147.263 120.089 151.753 Q120.089 153.883 119.279 155.804 Q118.492 157.702 116.385 160.295 Q115.807 160.966 112.705 164.184 Q109.603 167.378 103.955 173.142 Z" fill="#000000" fill-rule="nonzero" fill-opacity="1" /><polyline clip-path="url(#clip322)" style="stroke:#009af9; stroke-linecap:round; stroke-linejoin:round; stroke-width:16; stroke-opacity:1; fill:none" stroke-dasharray="8, 16" points="218.439,1122.56 228.852,1111.98 239.264,1099.14 249.677,1086.39 260.09,1077.24 270.503,1075.4 280.916,1083.03 291.329,1099.62 301.741,1122.67 312.154,1149.36 322.567,1177.89 332.98,1207.64 343.393,1238.59 353.805,1270.66 364.218,1303.24 374.631,1334.98 385.044,1364.04 395.457,1388.91 405.87,1409.25 416.282,1425.51 426.695,1437.8 437.108,1445.1 447.521,1445.72 457.934,1438.52 468.347,1423.91 478.759,1403.64 489.172,1379.78 499.585,1353.65 509.998,1325.57 520.411,1295.35 530.824,1263.13 541.236,1229.85 551.649,1197.05 562.062,1166.36 572.475,1139.09 582.888,1116.16 593.301,1098.17 603.713,1085.52 614.126,1078.52 624.539,1077.37 634.952,1082.13 645.365,1092.68 655.777,1108.66 666.19,1129.47 676.603,1154.38 687.016,1182.6 697.429,1213.38 707.842,1245.98 718.254,1279.6 728.667,1313.14 739.08,1345.04 749.493,1373.48 759.906,1397.05 770.319,1415.4 780.731,1428.9 791.144,1437.94 801.557,1442.37 811.97,1441.54 822.383,1434.72 832.796,1421.37 843.208,1401.42 853.621,1375.63 864.034,1345.72 874.447,1314.12 884.86,1282.92 895.273,1252.7 905.685,1222.69 916.098,1192.22 926.511,1161.83 936.924,1133.3 947.337,1109 957.749,1091.02 968.162,1080.5 978.575,1077.23 988.988,1079.82 999.401,1086.43 1009.81,1096.48 1020.23,1113.01 1030.64,1140.89 1041.05,1178.65 1051.46,1215 1061.88,1231.53 1072.29,1210.17 1082.7,1186.85 1093.12,1254.58 1103.53,1345.77 1113.94,1369.45 1124.35,1351.02 1134.77,1399.34 1145.18,1437.74 1155.59,1436.07 1166.01,1442.73 1176.42,1432.84 1186.83,1421.85 1197.24,1431.39 1207.66,1443.37 1218.07,1439.11 1228.48,1377.72 1238.9,1252.7 1249.31,1038 1259.72,720.413 1270.13,437.568 1280.55,282.062 1290.96,234.467 1301.37,276.123 1311.79,338.155 1322.2,367.877 1332.61,385.379 1343.02,360.501 1353.44,315.841 1363.85,334.482 1374.26,329.438 1384.68,282.285 1395.09,298.353 1405.5,358.532 1415.91,443.485 1426.33,482.563 1436.74,435.037 1447.15,376.695 1457.57,334.093 1467.98,304.509 1478.39,292.459 1488.8,286.815 1499.22,287.825 1509.63,301.498 1520.04,327.405 1530.45,360.567 1540.87,396.656 1551.28,424.541 1561.69,427.676 1572.11,398.773 1582.52,348.276 1592.93,295.656 1603.34,258.675 1613.76,248.293 1624.17,266.165 1634.58,304.298 1645,350.093 1655.41,392.939 1665.82,425.727 1676.23,442.308 1686.65,435.3 1697.06,398.764 1707.47,336.563 1717.89,267.039 1728.3,217.734 1738.71,212.049 1749.12,253.173 1759.54,320.936 1769.95,388.712 1780.36,439.124 1790.78,464.226 1801.19,461.457 1811.6,431.635 1822.01,378.305 1832.43,308.593 1842.84,236.604 1853.25,187.315 1863.67,188.035 1874.08,243.138 1884.49,329.474 1894.9,418.153 1905.32,485.519 1915.73,514.095 1926.14,495.618 1936.56,434.319 1946.97,346.64 1957.38,256.417 1967.79,186.921 1978.21,156.214 1988.62,178.45 1999.03,255.856 2009.45,365.555 2019.86,471.077 2030.27,538.641 2040.68,545.21 2051.1,490.545 2061.51,397.267 2071.92,293.037 2082.33,198.473 2092.75,130.281 2103.16,113.066 2113.57,173.064 2123.99,291.587 2134.4,418.026 2144.81,521.126 2155.22,579.265 2165.64,568.564 2176.05,486.383 2186.46,357.129 2196.88,221.862 2207.29,140.204 2217.7,138.479 2228.11,187.995 2238.53,259.426 2248.94,337.299 2259.35,412.015 2269.77,477.587 2280.18,531.03 2290.59,571.356 "/>
<polyline clip-path="url(#clip322)" style="stroke:#e26f46; stroke-linecap:round; stroke-linejoin:round; stroke-width:4; stroke-opacity:1; fill:none" points="218.439,1122.55 228.852,1103.01 239.264,1088.6 249.677,1079.79 260.09,1076.88 270.503,1079.95 280.916,1088.91 291.329,1103.46 301.741,1123.13 312.154,1147.27 322.567,1175.11 332.98,1205.72 343.393,1238.12 353.805,1271.24 364.218,1304 374.631,1335.34 385.044,1364.22 395.457,1389.72 405.87,1410.99 416.282,1427.34 426.695,1438.24 437.108,1443.33 447.521,1442.45 457.934,1435.63 468.347,1423.08 478.759,1405.21 489.172,1382.62 499.585,1356.04 509.998,1326.33 520.411,1294.46 530.824,1261.48 541.236,1228.46 551.649,1196.48 562.062,1166.59 572.475,1139.75 582.888,1116.84 593.301,1098.62 603.713,1085.67 614.126,1078.43 624.539,1077.11 634.952,1081.78 645.365,1092.27 655.777,1108.25 666.19,1129.19 676.603,1154.41 687.016,1183.08 697.429,1214.27 707.842,1246.97 718.254,1280.1 728.667,1312.58 739.08,1343.36 749.493,1371.43 759.906,1395.86 770.319,1415.88 780.731,1430.82 791.144,1440.19 801.557,1443.69 811.97,1441.2 822.383,1432.81 832.796,1418.79 843.208,1399.6 853.621,1375.86 864.034,1348.34 874.447,1317.96 884.86,1285.69 895.273,1252.59 905.685,1219.75 916.098,1188.23 926.511,1159.06 936.924,1133.19 947.337,1111.47 957.749,1094.61 968.162,1083.16 978.575,1077.49 988.988,1077.78 999.401,1084.03 1009.81,1096.03 1020.23,1113.4 1030.64,1135.56 1041.05,1161.79 1051.46,1191.23 1061.88,1222.93 1072.29,1255.85 1082.7,1288.91 1093.12,1321.04 1103.53,1351.19 1113.94,1378.36 1124.35,1401.69 1134.77,1420.4 1145.18,1433.89 1155.59,1441.71 1166.01,1443.61 1176.42,1439.52 1186.83,1429.59 1197.24,1414.13 1207.66,1393.65 1218.07,1368.82 1228.48,1340.44 1238.9,1309.45 1249.31,1276.86 1259.72,341.881 1270.13,340.366 1280.55,341.745 1290.96,346.337 1301.37,352.735 1311.79,358.235 1322.2,359.863 1332.61,355.632 1343.02,345.544 1353.44,331.944 1363.85,319.003 1374.26,311.443 1384.68,312.893 1395.09,324.428 1405.5,343.829 1415.91,365.909 1426.33,383.889 1436.74,391.474 1447.15,384.982 1457.57,364.837 1467.98,335.862 1478.39,306.167 1488.8,284.885 1499.22,279.372 1509.63,292.737 1520.04,322.513 1530.45,360.968 1540.87,397.091 1551.28,419.747 1561.69,421.089 1572.11,399.201 1582.52,359.088 1592.93,311.604 1603.34,270.53 1613.76,248.574 1624.17,253.456 1634.58,285.288 1645,336.106 1655.41,391.816 1665.82,436.099 1676.23,455.191 1686.65,442.135 1697.06,399.204 1707.47,337.67 1717.89,274.877 1728.3,229.347 1738.71,215.325 1749.12,238.35 1759.54,293.23 1769.95,365.125 1780.36,433.542 1790.78,478.178 1801.19,484.939 1811.6,450.353 1822.01,383.008 1832.43,301.471 1842.84,229.183 1853.25,187.711 1863.67,190.333 1874.08,237.823 1884.49,317.792 1894.9,407.89 1905.32,482.043 1915.73,517.999 1926.14,503.997 1936.56,442.554 1946.97,350.174 1957.38,252.939 1967.79,179.147 1978.21,151.078 1988.62,178.279 1999.03,254.402 2009.45,358.599 2019.86,461.222 2030.27,532.257 2040.68,550.099 2051.1,508.104 2061.51,416.935 2071.92,301.897 2082.33,195.929 2092.75,130.167 2103.16,124.803 2113.57,182.908 2123.99,289.114 2134.4,413.644 2144.81,520.656 2155.22,578.562 2165.64,569.343 2176.05,494.123 2186.46,373.286 2196.88,240.972 2207.29,135.433 2217.7,87.9763 2228.11,113.685 2238.53,206.67 2248.94,341.33 2259.35,479.386 2269.77,580.766 2280.18,615.228 2290.59,571.376 "/>
<path clip-path="url(#clip320)" d="M229.49 250.738 L675.966 250.738 L675.966 95.2176 L229.49 95.2176  Z" fill="#ffffff" fill-rule="evenodd" fill-opacity="1"/>
<polyline clip-path="url(#clip320)" style="stroke:#000000; stroke-linecap:round; stroke-linejoin:round; stroke-width:4; stroke-opacity:1; fill:none" points="229.49,250.738 675.966,250.738 675.966,95.2176 229.49,95.2176 229.49,250.738 "/>
<polyline clip-path="url(#clip320)" style="stroke:#009af9; stroke-linecap:round; stroke-linejoin:round; stroke-width:16; stroke-opacity:1; fill:none" stroke-dasharray="8, 16" points="253.896,147.058 400.328,147.058 "/>
<path clip-path="url(#clip320)" d="M429.409 133.62 L429.409 146.606 L435.289 146.606 Q438.552 146.606 440.335 144.916 Q442.117 143.227 442.117 140.102 Q442.117 137 440.335 135.31 Q438.552 133.62 435.289 133.62 L429.409 133.62 M424.733 129.778 L435.289 129.778 Q441.099 129.778 444.062 132.416 Q447.048 135.032 447.048 140.102 Q447.048 145.217 444.062 147.833 Q441.099 150.449 435.289 150.449 L429.409 150.449 L429.409 164.338 L424.733 164.338 L424.733 129.778 Z" fill="#000000" fill-rule="nonzero" fill-opacity="1" /><path clip-path="url(#clip320)" d="M467.325 142.393 Q466.608 141.977 465.751 141.791 Q464.918 141.583 463.899 141.583 Q460.288 141.583 458.344 143.944 Q456.423 146.282 456.423 150.68 L456.423 164.338 L452.14 164.338 L452.14 138.412 L456.423 138.412 L456.423 142.44 Q457.765 140.078 459.918 138.944 Q462.071 137.787 465.149 137.787 Q465.589 137.787 466.122 137.856 Q466.654 137.903 467.302 138.018 L467.325 142.393 Z" fill="#000000" fill-rule="nonzero" fill-opacity="1" /><path clip-path="url(#clip320)" d="M492.927 150.31 L492.927 152.393 L473.344 152.393 Q473.622 156.791 475.983 159.106 Q478.367 161.398 482.603 161.398 Q485.057 161.398 487.348 160.796 Q489.663 160.194 491.932 158.99 L491.932 163.018 Q489.64 163.99 487.233 164.5 Q484.825 165.009 482.348 165.009 Q476.145 165.009 472.511 161.398 Q468.899 157.787 468.899 151.629 Q468.899 145.264 472.325 141.537 Q475.774 137.787 481.608 137.787 Q486.839 137.787 489.872 141.166 Q492.927 144.523 492.927 150.31 M488.668 149.06 Q488.622 145.565 486.7 143.481 Q484.802 141.398 481.654 141.398 Q478.089 141.398 475.936 143.412 Q473.807 145.426 473.483 149.083 L488.668 149.06 Z" fill="#000000" fill-rule="nonzero" fill-opacity="1" /><path clip-path="url(#clip320)" d="M516.978 142.347 L516.978 128.319 L521.237 128.319 L521.237 164.338 L516.978 164.338 L516.978 160.449 Q515.635 162.763 513.575 163.898 Q511.538 165.009 508.668 165.009 Q503.969 165.009 501.006 161.259 Q498.066 157.509 498.066 151.398 Q498.066 145.287 501.006 141.537 Q503.969 137.787 508.668 137.787 Q511.538 137.787 513.575 138.921 Q515.635 140.032 516.978 142.347 M502.464 151.398 Q502.464 156.097 504.385 158.782 Q506.33 161.444 509.709 161.444 Q513.089 161.444 515.033 158.782 Q516.978 156.097 516.978 151.398 Q516.978 146.699 515.033 144.037 Q513.089 141.352 509.709 141.352 Q506.33 141.352 504.385 144.037 Q502.464 146.699 502.464 151.398 Z" fill="#000000" fill-rule="nonzero" fill-opacity="1" /><path clip-path="url(#clip320)" d="M530.01 138.412 L534.269 138.412 L534.269 164.338 L530.01 164.338 L530.01 138.412 M530.01 128.319 L534.269 128.319 L534.269 133.713 L530.01 133.713 L530.01 128.319 Z" fill="#000000" fill-rule="nonzero" fill-opacity="1" /><path clip-path="url(#clip320)" d="M561.839 139.407 L561.839 143.389 Q560.033 142.393 558.205 141.907 Q556.399 141.398 554.547 141.398 Q550.404 141.398 548.112 144.037 Q545.82 146.652 545.82 151.398 Q545.82 156.143 548.112 158.782 Q550.404 161.398 554.547 161.398 Q556.399 161.398 558.205 160.912 Q560.033 160.402 561.839 159.407 L561.839 163.342 Q560.056 164.176 558.135 164.592 Q556.237 165.009 554.084 165.009 Q548.228 165.009 544.779 161.328 Q541.33 157.648 541.33 151.398 Q541.33 145.055 544.802 141.421 Q548.297 137.787 554.362 137.787 Q556.33 137.787 558.205 138.203 Q560.08 138.597 561.839 139.407 Z" fill="#000000" fill-rule="nonzero" fill-opacity="1" /><path clip-path="url(#clip320)" d="M573.459 131.051 L573.459 138.412 L582.232 138.412 L582.232 141.722 L573.459 141.722 L573.459 155.796 Q573.459 158.967 574.316 159.87 Q575.195 160.773 577.857 160.773 L582.232 160.773 L582.232 164.338 L577.857 164.338 Q572.927 164.338 571.052 162.509 Q569.177 160.657 569.177 155.796 L569.177 141.722 L566.052 141.722 L566.052 138.412 L569.177 138.412 L569.177 131.051 L573.459 131.051 Z" fill="#000000" fill-rule="nonzero" fill-opacity="1" /><path clip-path="url(#clip320)" d="M587.834 138.412 L592.093 138.412 L592.093 164.338 L587.834 164.338 L587.834 138.412 M587.834 128.319 L592.093 128.319 L592.093 133.713 L587.834 133.713 L587.834 128.319 Z" fill="#000000" fill-rule="nonzero" fill-opacity="1" /><path clip-path="url(#clip320)" d="M611.051 141.398 Q607.626 141.398 605.635 144.083 Q603.644 146.745 603.644 151.398 Q603.644 156.051 605.612 158.736 Q607.602 161.398 611.051 161.398 Q614.454 161.398 616.445 158.713 Q618.436 156.027 618.436 151.398 Q618.436 146.791 616.445 144.106 Q614.454 141.398 611.051 141.398 M611.051 137.787 Q616.607 137.787 619.778 141.398 Q622.95 145.009 622.95 151.398 Q622.95 157.764 619.778 161.398 Q616.607 165.009 611.051 165.009 Q605.473 165.009 602.302 161.398 Q599.153 157.764 599.153 151.398 Q599.153 145.009 602.302 141.398 Q605.473 137.787 611.051 137.787 Z" fill="#000000" fill-rule="nonzero" fill-opacity="1" /><path clip-path="url(#clip320)" d="M651.561 148.689 L651.561 164.338 L647.301 164.338 L647.301 148.828 Q647.301 145.148 645.866 143.319 Q644.431 141.49 641.561 141.49 Q638.112 141.49 636.121 143.69 Q634.13 145.889 634.13 149.685 L634.13 164.338 L629.848 164.338 L629.848 138.412 L634.13 138.412 L634.13 142.44 Q635.658 140.102 637.718 138.944 Q639.801 137.787 642.51 137.787 Q646.977 137.787 649.269 140.565 Q651.561 143.319 651.561 148.689 Z" fill="#000000" fill-rule="nonzero" fill-opacity="1" /><polyline clip-path="url(#clip320)" style="stroke:#e26f46; stroke-linecap:round; stroke-linejoin:round; stroke-width:4; stroke-opacity:1; fill:none" points="253.896,198.898 400.328,198.898 "/>
<path clip-path="url(#clip320)" d="M424.733 181.618 L446.585 181.618 L446.585 185.553 L429.409 185.553 L429.409 195.784 L445.867 195.784 L445.867 199.719 L429.409 199.719 L429.409 212.242 L447.001 212.242 L447.001 216.178 L424.733 216.178 L424.733 181.618 Z" fill="#000000" fill-rule="nonzero" fill-opacity="1" /><path clip-path="url(#clip320)" d="M476.052 190.252 L466.677 202.867 L476.538 216.178 L471.515 216.178 L463.969 205.992 L456.423 216.178 L451.4 216.178 L461.469 202.613 L452.256 190.252 L457.279 190.252 L464.154 199.488 L471.029 190.252 L476.052 190.252 Z" fill="#000000" fill-rule="nonzero" fill-opacity="1" /><path clip-path="url(#clip320)" d="M494.339 203.145 Q489.177 203.145 487.186 204.326 Q485.196 205.506 485.196 208.354 Q485.196 210.622 486.677 211.965 Q488.182 213.284 490.751 213.284 Q494.293 213.284 496.422 210.784 Q498.575 208.261 498.575 204.094 L498.575 203.145 L494.339 203.145 M502.834 201.386 L502.834 216.178 L498.575 216.178 L498.575 212.242 Q497.117 214.603 494.941 215.738 Q492.765 216.849 489.617 216.849 Q485.635 216.849 483.274 214.627 Q480.936 212.381 480.936 208.631 Q480.936 204.256 483.853 202.034 Q486.793 199.812 492.603 199.812 L498.575 199.812 L498.575 199.395 Q498.575 196.455 496.631 194.858 Q494.71 193.238 491.214 193.238 Q488.992 193.238 486.885 193.77 Q484.779 194.303 482.835 195.367 L482.835 191.432 Q485.173 190.53 487.372 190.09 Q489.571 189.627 491.654 189.627 Q497.279 189.627 500.057 192.543 Q502.834 195.46 502.834 201.386 Z" fill="#000000" fill-rule="nonzero" fill-opacity="1" /><path clip-path="url(#clip320)" d="M530.265 191.247 L530.265 195.229 Q528.459 194.233 526.631 193.747 Q524.825 193.238 522.973 193.238 Q518.83 193.238 516.538 195.877 Q514.246 198.492 514.246 203.238 Q514.246 207.983 516.538 210.622 Q518.83 213.238 522.973 213.238 Q524.825 213.238 526.631 212.752 Q528.459 212.242 530.265 211.247 L530.265 215.182 Q528.482 216.016 526.561 216.432 Q524.663 216.849 522.51 216.849 Q516.654 216.849 513.205 213.168 Q509.756 209.488 509.756 203.238 Q509.756 196.895 513.228 193.261 Q516.723 189.627 522.788 189.627 Q524.756 189.627 526.631 190.043 Q528.506 190.437 530.265 191.247 Z" fill="#000000" fill-rule="nonzero" fill-opacity="1" /><path clip-path="url(#clip320)" d="M541.885 182.891 L541.885 190.252 L550.658 190.252 L550.658 193.562 L541.885 193.562 L541.885 207.636 Q541.885 210.807 542.742 211.71 Q543.621 212.613 546.283 212.613 L550.658 212.613 L550.658 216.178 L546.283 216.178 Q541.353 216.178 539.478 214.349 Q537.603 212.497 537.603 207.636 L537.603 193.562 L534.478 193.562 L534.478 190.252 L537.603 190.252 L537.603 182.891 L541.885 182.891 Z" fill="#000000" fill-rule="nonzero" fill-opacity="1" /></svg>
