<?xml version="1.0" encoding="utf-8"?>
<svg xmlns="http://www.w3.org/2000/svg" xmlns:xlink="http://www.w3.org/1999/xlink" width="600" height="400" viewBox="0 0 2400 1600">
<defs>
  <clipPath id="clip350">
    <rect x="0" y="0" width="2400" height="1600"/>
  </clipPath>
</defs>
<path clip-path="url(#clip350)" d="M0 1600 L2400 1600 L2400 0 L0 0  Z" fill="#ffffff" fill-rule="evenodd" fill-opacity="1"/>
<defs>
  <clipPath id="clip351">
    <rect x="480" y="0" width="1681" height="1600"/>
  </clipPath>
</defs>
<path clip-path="url(#clip350)" d="M156.274 1486.45 L2352.76 1486.45 L2352.76 47.2441 L156.274 47.2441  Z" fill="#ffffff" fill-rule="evenodd" fill-opacity="1"/>
<defs>
  <clipPath id="clip352">
    <rect x="156" y="47" width="2197" height="1440"/>
  </clipPath>
</defs>
<polyline clip-path="url(#clip352)" style="stroke:#000000; stroke-linecap:round; stroke-linejoin:round; stroke-width:2; stroke-opacity:0.1; fill:none" points="218.439,1486.45 218.439,47.2441 "/>
<polyline clip-path="url(#clip352)" style="stroke:#000000; stroke-linecap:round; stroke-linejoin:round; stroke-width:2; stroke-opacity:0.1; fill:none" points="736.477,1486.45 736.477,47.2441 "/>
<polyline clip-path="url(#clip352)" style="stroke:#000000; stroke-linecap:round; stroke-linejoin:round; stroke-width:2; stroke-opacity:0.1; fill:none" points="1254.52,1486.45 1254.52,47.2441 "/>
<polyline clip-path="url(#clip352)" style="stroke:#000000; stroke-linecap:round; stroke-linejoin:round; stroke-width:2; stroke-opacity:0.1; fill:none" points="1772.55,1486.45 1772.55,47.2441 "/>
<polyline clip-path="url(#clip352)" style="stroke:#000000; stroke-linecap:round; stroke-linejoin:round; stroke-width:2; stroke-opacity:0.1; fill:none" points="2290.59,1486.45 2290.59,47.2441 "/>
<polyline clip-path="url(#clip350)" style="stroke:#000000; stroke-linecap:round; stroke-linejoin:round; stroke-width:4; stroke-opacity:1; fill:none" points="156.274,1486.45 2352.76,1486.45 "/>
<polyline clip-path="url(#clip350)" style="stroke:#000000; stroke-linecap:round; stroke-linejoin:round; stroke-width:4; stroke-opacity:1; fill:none" points="218.439,1486.45 218.439,1467.55 "/>
<polyline clip-path="url(#clip350)" style="stroke:#000000; stroke-linecap:round; stroke-linejoin:round; stroke-width:4; stroke-opacity:1; fill:none" points="736.477,1486.45 736.477,1467.55 "/>
<polyline clip-path="url(#clip350)" style="stroke:#000000; stroke-linecap:round; stroke-linejoin:round; stroke-width:4; stroke-opacity:1; fill:none" points="1254.52,1486.45 1254.52,1467.55 "/>
<polyline clip-path="url(#clip350)" style="stroke:#000000; stroke-linecap:round; stroke-linejoin:round; stroke-width:4; stroke-opacity:1; fill:none" points="1772.55,1486.45 1772.55,1467.55 "/>
<polyline clip-path="url(#clip350)" style="stroke:#000000; stroke-linecap:round; stroke-linejoin:round; stroke-width:4; stroke-opacity:1; fill:none" points="2290.59,1486.45 2290.59,1467.55 "/>
<path clip-path="url(#clip350)" d="M164.967 1532.02 L194.643 1532.02 L194.643 1535.95 L164.967 1535.95 L164.967 1532.02 Z" fill="#000000" fill-rule="nonzero" fill-opacity="1" /><path clip-path="url(#clip350)" d="M205.545 1544.91 L213.184 1544.91 L213.184 1518.55 L204.874 1520.21 L204.874 1515.95 L213.138 1514.29 L217.814 1514.29 L217.814 1544.91 L225.453 1544.91 L225.453 1548.85 L205.545 1548.85 L205.545 1544.91 Z" fill="#000000" fill-rule="nonzero" fill-opacity="1" /><path clip-path="url(#clip350)" d="M234.897 1542.97 L239.781 1542.97 L239.781 1548.85 L234.897 1548.85 L234.897 1542.97 Z" fill="#000000" fill-rule="nonzero" fill-opacity="1" /><path clip-path="url(#clip350)" d="M259.966 1517.37 Q256.355 1517.37 254.527 1520.93 Q252.721 1524.47 252.721 1531.6 Q252.721 1538.71 254.527 1542.27 Q256.355 1545.82 259.966 1545.82 Q263.601 1545.82 265.406 1542.27 Q267.235 1538.71 267.235 1531.6 Q267.235 1524.47 265.406 1520.93 Q263.601 1517.37 259.966 1517.37 M259.966 1513.66 Q265.776 1513.66 268.832 1518.27 Q271.911 1522.85 271.911 1531.6 Q271.911 1540.33 268.832 1544.94 Q265.776 1549.52 259.966 1549.52 Q254.156 1549.52 251.077 1544.94 Q248.022 1540.33 248.022 1531.6 Q248.022 1522.85 251.077 1518.27 Q254.156 1513.66 259.966 1513.66 Z" fill="#000000" fill-rule="nonzero" fill-opacity="1" /><path clip-path="url(#clip350)" d="M683.503 1532.02 L713.178 1532.02 L713.178 1535.95 L683.503 1535.95 L683.503 1532.02 Z" fill="#000000" fill-rule="nonzero" fill-opacity="1" /><path clip-path="url(#clip350)" d="M733.271 1517.37 Q729.66 1517.37 727.831 1520.93 Q726.026 1524.47 726.026 1531.6 Q726.026 1538.71 727.831 1542.27 Q729.66 1545.82 733.271 1545.82 Q736.905 1545.82 738.711 1542.27 Q740.539 1538.71 740.539 1531.6 Q740.539 1524.47 738.711 1520.93 Q736.905 1517.37 733.271 1517.37 M733.271 1513.66 Q739.081 1513.66 742.137 1518.27 Q745.215 1522.85 745.215 1531.6 Q745.215 1540.33 742.137 1544.94 Q739.081 1549.52 733.271 1549.52 Q727.461 1549.52 724.382 1544.94 Q721.327 1540.33 721.327 1531.6 Q721.327 1522.85 724.382 1518.27 Q727.461 1513.66 733.271 1513.66 Z" fill="#000000" fill-rule="nonzero" fill-opacity="1" /><path clip-path="url(#clip350)" d="M753.433 1542.97 L758.317 1542.97 L758.317 1548.85 L753.433 1548.85 L753.433 1542.97 Z" fill="#000000" fill-rule="nonzero" fill-opacity="1" /><path clip-path="url(#clip350)" d="M768.548 1514.29 L786.905 1514.29 L786.905 1518.22 L772.831 1518.22 L772.831 1526.7 Q773.849 1526.35 774.868 1526.19 Q775.886 1526 776.905 1526 Q782.692 1526 786.072 1529.17 Q789.451 1532.34 789.451 1537.76 Q789.451 1543.34 785.979 1546.44 Q782.507 1549.52 776.187 1549.52 Q774.011 1549.52 771.743 1549.15 Q769.498 1548.78 767.09 1548.04 L767.09 1543.34 Q769.173 1544.47 771.396 1545.03 Q773.618 1545.58 776.095 1545.58 Q780.099 1545.58 782.437 1543.48 Q784.775 1541.37 784.775 1537.76 Q784.775 1534.15 782.437 1532.04 Q780.099 1529.94 776.095 1529.94 Q774.22 1529.94 772.345 1530.35 Q770.493 1530.77 768.548 1531.65 L768.548 1514.29 Z" fill="#000000" fill-rule="nonzero" fill-opacity="1" /><path clip-path="url(#clip350)" d="M1231.9 1517.37 Q1228.29 1517.37 1226.46 1520.93 Q1224.65 1524.47 1224.65 1531.6 Q1224.65 1538.71 1226.46 1542.27 Q1228.29 1545.82 1231.9 1545.82 Q1235.53 1545.82 1237.34 1542.27 Q1239.17 1538.71 1239.17 1531.6 Q1239.17 1524.47 1237.34 1520.93 Q1235.53 1517.37 1231.9 1517.37 M1231.9 1513.66 Q1237.71 1513.66 1240.77 1518.27 Q1243.84 1522.85 1243.84 1531.6 Q1243.84 1540.33 1240.77 1544.94 Q1237.71 1549.52 1231.9 1549.52 Q1226.09 1549.52 1223.01 1544.94 Q1219.96 1540.33 1219.96 1531.6 Q1219.96 1522.85 1223.01 1518.27 Q1226.09 1513.66 1231.9 1513.66 Z" fill="#000000" fill-rule="nonzero" fill-opacity="1" /><path clip-path="url(#clip350)" d="M1252.06 1542.97 L1256.95 1542.97 L1256.95 1548.85 L1252.06 1548.85 L1252.06 1542.97 Z" fill="#000000" fill-rule="nonzero" fill-opacity="1" /><path clip-path="url(#clip350)" d="M1277.13 1517.37 Q1273.52 1517.37 1271.69 1520.93 Q1269.89 1524.47 1269.89 1531.6 Q1269.89 1538.71 1271.69 1542.27 Q1273.52 1545.82 1277.13 1545.82 Q1280.76 1545.82 1282.57 1542.27 Q1284.4 1538.71 1284.4 1531.6 Q1284.4 1524.47 1282.57 1520.93 Q1280.76 1517.37 1277.13 1517.37 M1277.13 1513.66 Q1282.94 1513.66 1286 1518.27 Q1289.08 1522.85 1289.08 1531.6 Q1289.08 1540.33 1286 1544.94 Q1282.94 1549.52 1277.13 1549.52 Q1271.32 1549.52 1268.24 1544.94 Q1265.19 1540.33 1265.19 1531.6 Q1265.19 1522.85 1268.24 1518.27 Q1271.32 1513.66 1277.13 1513.66 Z" fill="#000000" fill-rule="nonzero" fill-opacity="1" /><path clip-path="url(#clip350)" d="M1750.44 1517.37 Q1746.82 1517.37 1745 1520.93 Q1743.19 1524.47 1743.19 1531.6 Q1743.19 1538.71 1745 1542.27 Q1746.82 1545.82 1750.44 1545.82 Q1754.07 1545.82 1755.88 1542.27 Q1757.7 1538.71 1757.7 1531.6 Q1757.7 1524.47 1755.88 1520.93 Q1754.07 1517.37 1750.44 1517.37 M1750.44 1513.66 Q1756.25 1513.66 1759.3 1518.27 Q1762.38 1522.85 1762.38 1531.6 Q1762.38 1540.33 1759.3 1544.94 Q1756.25 1549.52 1750.44 1549.52 Q1744.63 1549.52 1741.55 1544.94 Q1738.49 1540.33 1738.49 1531.6 Q1738.49 1522.85 1741.55 1518.27 Q1744.63 1513.66 1750.44 1513.66 Z" fill="#000000" fill-rule="nonzero" fill-opacity="1" /><path clip-path="url(#clip350)" d="M1770.6 1542.97 L1775.48 1542.97 L1775.48 1548.85 L1770.6 1548.85 L1770.6 1542.97 Z" fill="#000000" fill-rule="nonzero" fill-opacity="1" /><path clip-path="url(#clip350)" d="M1785.71 1514.29 L1804.07 1514.29 L1804.07 1518.22 L1790 1518.22 L1790 1526.7 Q1791.01 1526.35 1792.03 1526.19 Q1793.05 1526 1794.07 1526 Q1799.86 1526 1803.24 1529.17 Q1806.62 1532.34 1806.62 1537.76 Q1806.62 1543.34 1803.14 1546.44 Q1799.67 1549.52 1793.35 1549.52 Q1791.18 1549.52 1788.91 1549.15 Q1786.66 1548.78 1784.25 1548.04 L1784.25 1543.34 Q1786.34 1544.47 1788.56 1545.03 Q1790.78 1545.58 1793.26 1545.58 Q1797.26 1545.58 1799.6 1543.48 Q1801.94 1541.37 1801.94 1537.76 Q1801.94 1534.15 1799.6 1532.04 Q1797.26 1529.94 1793.26 1529.94 Q1791.38 1529.94 1789.51 1530.35 Q1787.66 1530.77 1785.71 1531.65 L1785.71 1514.29 Z" fill="#000000" fill-rule="nonzero" fill-opacity="1" /><path clip-path="url(#clip350)" d="M2257.74 1544.91 L2265.38 1544.91 L2265.38 1518.55 L2257.07 1520.21 L2257.07 1515.95 L2265.34 1514.29 L2270.01 1514.29 L2270.01 1544.91 L2277.65 1544.91 L2277.65 1548.85 L2257.74 1548.85 L2257.74 1544.91 Z" fill="#000000" fill-rule="nonzero" fill-opacity="1" /><path clip-path="url(#clip350)" d="M2287.1 1542.97 L2291.98 1542.97 L2291.98 1548.85 L2287.1 1548.85 L2287.1 1542.97 Z" fill="#000000" fill-rule="nonzero" fill-opacity="1" /><path clip-path="url(#clip350)" d="M2312.17 1517.37 Q2308.55 1517.37 2306.73 1520.93 Q2304.92 1524.47 2304.92 1531.6 Q2304.92 1538.71 2306.73 1542.27 Q2308.55 1545.82 2312.17 1545.82 Q2315.8 1545.82 2317.61 1542.27 Q2319.43 1538.71 2319.43 1531.6 Q2319.43 1524.47 2317.61 1520.93 Q2315.8 1517.37 2312.17 1517.37 M2312.17 1513.66 Q2317.98 1513.66 2321.03 1518.27 Q2324.11 1522.85 2324.11 1531.6 Q2324.11 1540.33 2321.03 1544.94 Q2317.98 1549.52 2312.17 1549.52 Q2306.36 1549.52 2303.28 1544.94 Q2300.22 1540.33 2300.22 1531.6 Q2300.22 1522.85 2303.28 1518.27 Q2306.36 1513.66 2312.17 1513.66 Z" fill="#000000" fill-rule="nonzero" fill-opacity="1" /><polyline clip-path="url(#clip352)" style="stroke:#000000; stroke-linecap:round; stroke-linejoin:round; stroke-width:2; stroke-opacity:0.1; fill:none" points="156.274,1255.49 2352.76,1255.49 "/>
<polyline clip-path="url(#clip352)" style="stroke:#000000; stroke-linecap:round; stroke-linejoin:round; stroke-width:2; stroke-opacity:0.1; fill:none" points="156.274,981.495 2352.76,981.495 "/>
<polyline clip-path="url(#clip352)" style="stroke:#000000; stroke-linecap:round; stroke-linejoin:round; stroke-width:2; stroke-opacity:0.1; fill:none" points="156.274,707.498 2352.76,707.498 "/>
<polyline clip-path="url(#clip352)" style="stroke:#000000; stroke-linecap:round; stroke-linejoin:round; stroke-width:2; stroke-opacity:0.1; fill:none" points="156.274,433.501 2352.76,433.501 "/>
<polyline clip-path="url(#clip352)" style="stroke:#000000; stroke-linecap:round; stroke-linejoin:round; stroke-width:2; stroke-opacity:0.1; fill:none" points="156.274,159.503 2352.76,159.503 "/>
<polyline clip-path="url(#clip350)" style="stroke:#000000; stroke-linecap:round; stroke-linejoin:round; stroke-width:4; stroke-opacity:1; fill:none" points="156.274,1486.45 156.274,47.2441 "/>
<polyline clip-path="url(#clip350)" style="stroke:#000000; stroke-linecap:round; stroke-linejoin:round; stroke-width:4; stroke-opacity:1; fill:none" points="156.274,1255.49 175.172,1255.49 "/>
<polyline clip-path="url(#clip350)" style="stroke:#000000; stroke-linecap:round; stroke-linejoin:round; stroke-width:4; stroke-opacity:1; fill:none" points="156.274,981.495 175.172,981.495 "/>
<polyline clip-path="url(#clip350)" style="stroke:#000000; stroke-linecap:round; stroke-linejoin:round; stroke-width:4; stroke-opacity:1; fill:none" points="156.274,707.498 175.172,707.498 "/>
<polyline clip-path="url(#clip350)" style="stroke:#000000; stroke-linecap:round; stroke-linejoin:round; stroke-width:4; stroke-opacity:1; fill:none" points="156.274,433.501 175.172,433.501 "/>
<polyline clip-path="url(#clip350)" style="stroke:#000000; stroke-linecap:round; stroke-linejoin:round; stroke-width:4; stroke-opacity:1; fill:none" points="156.274,159.503 175.172,159.503 "/>
<path clip-path="url(#clip350)" d="M63.0985 1241.29 Q59.4875 1241.29 57.6588 1244.86 Q55.8532 1248.4 55.8532 1255.53 Q55.8532 1262.63 57.6588 1266.2 Q59.4875 1269.74 63.0985 1269.74 Q66.7328 1269.74 68.5383 1266.2 Q70.367 1262.63 70.367 1255.53 Q70.367 1248.4 68.5383 1244.86 Q66.7328 1241.29 63.0985 1241.29 M63.0985 1237.59 Q68.9087 1237.59 71.9642 1242.19 Q75.0429 1246.78 75.0429 1255.53 Q75.0429 1264.25 71.9642 1268.86 Q68.9087 1273.44 63.0985 1273.44 Q57.2884 1273.44 54.2097 1268.86 Q51.1542 1264.25 51.1542 1255.53 Q51.1542 1246.78 54.2097 1242.19 Q57.2884 1237.59 63.0985 1237.59 Z" fill="#000000" fill-rule="nonzero" fill-opacity="1" /><path clip-path="url(#clip350)" d="M83.2605 1266.89 L88.1447 1266.89 L88.1447 1272.77 L83.2605 1272.77 L83.2605 1266.89 Z" fill="#000000" fill-rule="nonzero" fill-opacity="1" /><path clip-path="url(#clip350)" d="M108.33 1241.29 Q104.719 1241.29 102.89 1244.86 Q101.084 1248.4 101.084 1255.53 Q101.084 1262.63 102.89 1266.2 Q104.719 1269.74 108.33 1269.74 Q111.964 1269.74 113.77 1266.2 Q115.598 1262.63 115.598 1255.53 Q115.598 1248.4 113.77 1244.86 Q111.964 1241.29 108.33 1241.29 M108.33 1237.59 Q114.14 1237.59 117.195 1242.19 Q120.274 1246.78 120.274 1255.53 Q120.274 1264.25 117.195 1268.86 Q114.14 1273.44 108.33 1273.44 Q102.52 1273.44 99.4409 1268.86 Q96.3854 1264.25 96.3854 1255.53 Q96.3854 1246.78 99.4409 1242.19 Q102.52 1237.59 108.33 1237.59 Z" fill="#000000" fill-rule="nonzero" fill-opacity="1" /><path clip-path="url(#clip350)" d="M63.7467 967.294 Q60.1356 967.294 58.3069 970.859 Q56.5014 974.401 56.5014 981.53 Q56.5014 988.637 58.3069 992.201 Q60.1356 995.743 63.7467 995.743 Q67.3809 995.743 69.1865 992.201 Q71.0152 988.637 71.0152 981.53 Q71.0152 974.401 69.1865 970.859 Q67.3809 967.294 63.7467 967.294 M63.7467 963.59 Q69.5568 963.59 72.6124 968.197 Q75.6911 972.78 75.6911 981.53 Q75.6911 990.257 72.6124 994.863 Q69.5568 999.447 63.7467 999.447 Q57.9365 999.447 54.8578 994.863 Q51.8023 990.257 51.8023 981.53 Q51.8023 972.78 54.8578 968.197 Q57.9365 963.59 63.7467 963.59 Z" fill="#000000" fill-rule="nonzero" fill-opacity="1" /><path clip-path="url(#clip350)" d="M83.9086 992.896 L88.7928 992.896 L88.7928 998.775 L83.9086 998.775 L83.9086 992.896 Z" fill="#000000" fill-rule="nonzero" fill-opacity="1" /><path clip-path="url(#clip350)" d="M113.145 980.141 Q116.501 980.859 118.376 983.127 Q120.274 985.396 120.274 988.729 Q120.274 993.845 116.756 996.646 Q113.237 999.447 106.756 999.447 Q104.58 999.447 102.265 999.007 Q99.9733 998.59 97.5197 997.734 L97.5197 993.22 Q99.4641 994.354 101.779 994.933 Q104.094 995.512 106.617 995.512 Q111.015 995.512 113.307 993.775 Q115.621 992.039 115.621 988.729 Q115.621 985.674 113.469 983.961 Q111.339 982.225 107.52 982.225 L103.492 982.225 L103.492 978.382 L107.705 978.382 Q111.154 978.382 112.983 977.016 Q114.811 975.627 114.811 973.035 Q114.811 970.373 112.913 968.961 Q111.038 967.526 107.52 967.526 Q105.598 967.526 103.399 967.942 Q101.2 968.359 98.5613 969.239 L98.5613 965.072 Q101.223 964.331 103.538 963.961 Q105.876 963.59 107.936 963.59 Q113.26 963.59 116.362 966.021 Q119.464 968.428 119.464 972.549 Q119.464 975.419 117.82 977.41 Q116.177 979.377 113.145 980.141 Z" fill="#000000" fill-rule="nonzero" fill-opacity="1" /><path clip-path="url(#clip350)" d="M62.9365 693.297 Q59.3254 693.297 57.4967 696.862 Q55.6912 700.403 55.6912 707.533 Q55.6912 714.639 57.4967 718.204 Q59.3254 721.746 62.9365 721.746 Q66.5707 721.746 68.3763 718.204 Q70.205 714.639 70.205 707.533 Q70.205 700.403 68.3763 696.862 Q66.5707 693.297 62.9365 693.297 M62.9365 689.593 Q68.7467 689.593 71.8022 694.2 Q74.8809 698.783 74.8809 707.533 Q74.8809 716.26 71.8022 720.866 Q68.7467 725.449 62.9365 725.449 Q57.1264 725.449 54.0477 720.866 Q50.9921 716.26 50.9921 707.533 Q50.9921 698.783 54.0477 694.2 Q57.1264 689.593 62.9365 689.593 Z" fill="#000000" fill-rule="nonzero" fill-opacity="1" /><path clip-path="url(#clip350)" d="M83.0984 718.898 L87.9827 718.898 L87.9827 724.778 L83.0984 724.778 L83.0984 718.898 Z" fill="#000000" fill-rule="nonzero" fill-opacity="1" /><path clip-path="url(#clip350)" d="M108.746 705.635 Q105.598 705.635 103.746 707.787 Q101.918 709.94 101.918 713.69 Q101.918 717.417 103.746 719.593 Q105.598 721.746 108.746 721.746 Q111.895 721.746 113.723 719.593 Q115.575 717.417 115.575 713.69 Q115.575 709.94 113.723 707.787 Q111.895 705.635 108.746 705.635 M118.029 690.982 L118.029 695.241 Q116.27 694.408 114.464 693.968 Q112.682 693.528 110.922 693.528 Q106.293 693.528 103.839 696.653 Q101.409 699.778 101.061 706.098 Q102.427 704.084 104.487 703.019 Q106.547 701.931 109.024 701.931 Q114.233 701.931 117.242 705.102 Q120.274 708.25 120.274 713.69 Q120.274 719.014 117.126 722.232 Q113.978 725.449 108.746 725.449 Q102.751 725.449 99.5798 720.866 Q96.4085 716.26 96.4085 707.533 Q96.4085 699.338 100.297 694.477 Q104.186 689.593 110.737 689.593 Q112.496 689.593 114.279 689.94 Q116.084 690.287 118.029 690.982 Z" fill="#000000" fill-rule="nonzero" fill-opacity="1" /><path clip-path="url(#clip350)" d="M63.2837 419.299 Q59.6726 419.299 57.8439 422.864 Q56.0384 426.406 56.0384 433.535 Q56.0384 440.642 57.8439 444.207 Q59.6726 447.748 63.2837 447.748 Q66.918 447.748 68.7235 444.207 Q70.5522 440.642 70.5522 433.535 Q70.5522 426.406 68.7235 422.864 Q66.918 419.299 63.2837 419.299 M63.2837 415.596 Q69.0939 415.596 72.1494 420.202 Q75.2281 424.785 75.2281 433.535 Q75.2281 442.262 72.1494 446.869 Q69.0939 451.452 63.2837 451.452 Q57.4736 451.452 54.3949 446.869 Q51.3393 442.262 51.3393 433.535 Q51.3393 424.785 54.3949 420.202 Q57.4736 415.596 63.2837 415.596 Z" fill="#000000" fill-rule="nonzero" fill-opacity="1" /><path clip-path="url(#clip350)" d="M83.4457 444.901 L88.3299 444.901 L88.3299 450.781 L83.4457 450.781 L83.4457 444.901 Z" fill="#000000" fill-rule="nonzero" fill-opacity="1" /><path clip-path="url(#clip350)" d="M98.6539 450.063 L98.6539 445.804 Q100.413 446.637 102.219 447.077 Q104.024 447.517 105.76 447.517 Q110.39 447.517 112.82 444.415 Q115.274 441.29 115.621 434.947 Q114.279 436.938 112.219 438.003 Q110.158 439.068 107.658 439.068 Q102.473 439.068 99.4409 435.943 Q96.4317 432.795 96.4317 427.355 Q96.4317 422.031 99.5798 418.813 Q102.728 415.596 107.959 415.596 Q113.955 415.596 117.103 420.202 Q120.274 424.785 120.274 433.535 Q120.274 441.707 116.385 446.591 Q112.52 451.452 105.969 451.452 Q104.209 451.452 102.404 451.105 Q100.598 450.757 98.6539 450.063 M107.959 435.41 Q111.108 435.41 112.936 433.258 Q114.788 431.105 114.788 427.355 Q114.788 423.628 112.936 421.475 Q111.108 419.299 107.959 419.299 Q104.811 419.299 102.959 421.475 Q101.131 423.628 101.131 427.355 Q101.131 431.105 102.959 433.258 Q104.811 435.41 107.959 435.41 Z" fill="#000000" fill-rule="nonzero" fill-opacity="1" /><path clip-path="url(#clip350)" d="M55.506 172.848 L63.1448 172.848 L63.1448 146.482 L54.8347 148.149 L54.8347 143.89 L63.0985 142.223 L67.7744 142.223 L67.7744 172.848 L75.4133 172.848 L75.4133 176.783 L55.506 176.783 L55.506 172.848 Z" fill="#000000" fill-rule="nonzero" fill-opacity="1" /><path clip-path="url(#clip350)" d="M84.8577 170.904 L89.7419 170.904 L89.7419 176.783 L84.8577 176.783 L84.8577 170.904 Z" fill="#000000" fill-rule="nonzero" fill-opacity="1" /><path clip-path="url(#clip350)" d="M103.955 172.848 L120.274 172.848 L120.274 176.783 L98.3298 176.783 L98.3298 172.848 Q100.992 170.093 105.575 165.464 Q110.182 160.811 111.362 159.469 Q113.608 156.945 114.487 155.209 Q115.39 153.45 115.39 151.76 Q115.39 149.006 113.445 147.269 Q111.524 145.533 108.422 145.533 Q106.223 145.533 103.77 146.297 Q101.339 147.061 98.5613 148.612 L98.5613 143.89 Q101.385 142.756 103.839 142.177 Q106.293 141.598 108.33 141.598 Q113.7 141.598 116.895 144.283 Q120.089 146.969 120.089 151.459 Q120.089 153.589 119.279 155.51 Q118.492 157.408 116.385 160.001 Q115.807 160.672 112.705 163.89 Q109.603 167.084 103.955 172.848 Z" fill="#000000" fill-rule="nonzero" fill-opacity="1" /><polyline clip-path="url(#clip352)" style="stroke:#009af9; stroke-linecap:round; stroke-linejoin:round; stroke-width:16; stroke-opacity:1; fill:none" stroke-dasharray="8, 16" points="218.439,1118.31 228.852,1109.88 239.264,1097.79 249.677,1084.17 260.09,1073.3 270.503,1070.21 280.916,1077.84 291.329,1095.25 301.741,1118.56 312.154,1143.96 322.567,1170.34 332.98,1199.35 343.393,1232.84 353.805,1269.65 364.218,1305.3 374.631,1335.49 385.044,1360.05 395.457,1382.13 405.87,1403.25 416.282,1421.15 426.695,1432.79 437.108,1437.23 447.521,1435.41 457.934,1428.51 468.347,1417.04 478.759,1400.88 489.172,1379.64 499.585,1353.21 509.998,1322.19 520.411,1288.21 530.824,1253.59 541.236,1220.59 551.649,1190.57 562.062,1163.7 572.475,1139.37 582.888,1116.93 593.301,1096.57 603.713,1079.7 614.126,1068.84 624.539,1066.61 634.952,1074.29 645.365,1090.58 655.777,1111.74 666.19,1133.53 676.603,1154.3 687.016,1176.76 697.429,1205 707.842,1239.19 718.254,1274.83 728.667,1307.26 739.08,1335.27 749.493,1360.87 759.906,1386.43 770.319,1411.8 780.731,1433.37 791.144,1445.72 801.557,1445.45 811.97,1434.33 822.383,1418.23 832.796,1402.59 843.208,1388.19 853.621,1371.04 864.034,1346.62 874.447,1314.91 884.86,1280.58 895.273,1247.86 905.685,1217.25 916.098,1187.82 926.511,1158.78 936.924,1129.14 947.337,1102.24 957.749,1086.22 968.162,1080.77 978.575,1074.21 988.988,1064.28 999.401,1066.68 1009.81,1089.23 1020.23,1110.9 1030.64,1114.35 1041.05,1133.5 1051.46,1189.32 1061.88,1224.42 1072.29,1226.59 1082.7,1271.39 1093.12,1330.03 1103.53,1349.44 1113.94,1369.16 1124.35,1392.92 1134.77,1414.85 1145.18,1429.38 1155.59,1432.71 1166.01,1428.65 1176.42,1422.91 1186.83,1419.17 1197.24,1417.99 1207.66,1416.36 1218.07,1405.14 1228.48,1362.62 1238.9,1249.11 1249.31,1026.11 1259.72,716.986 1270.13,436.216 1280.55,290.367 1290.96,273.262 1301.37,311.393 1311.79,347.811 1322.2,361 1332.61,351.799 1343.02,332.894 1353.44,320.96 1363.85,325.691 1374.26,342.224 1384.68,355.604 1395.09,351.853 1405.5,329.098 1415.91,310.16 1426.33,322.543 1436.74,357.068 1447.15,394.512 1457.57,418.505 1467.98,402.834 1478.39,342.029 1488.8,278.596 1499.22,258.931 1509.63,277.114 1520.04,314.537 1530.45,360.328 1540.87,396.343 1551.28,417.649 1561.69,421.427 1572.11,397.66 1582.52,347.064 1592.93,289.593 1603.34,252.178 1613.76,247.518 1624.17,268.159 1634.58,300.931 1645,341.418 1655.41,390.568 1665.82,439.928 1676.23,468.735 1686.65,457.351 1697.06,400.983 1707.47,316.275 1717.89,237.616 1728.3,198.206 1738.71,209.013 1749.12,257.151 1759.54,320.996 1769.95,383.588 1780.36,435.667 1790.78,470.929 1801.19,479.928 1811.6,451.185 1822.01,383.527 1832.43,296.335 1842.84,220.879 1853.25,181.78 1863.67,188.647 1874.08,238.413 1884.49,318.341 1894.9,407.525 1905.32,480.739 1915.73,515.846 1926.14,501.356 1936.56,440.189 1946.97,348.754 1957.38,252.56 1967.79,179.446 1978.21,151.434 1988.62,178.056 1999.03,253.898 2009.45,359.532 2019.86,464.419 2030.27,534.366 2040.68,544.841 2051.1,493.016 2061.51,398.238 2071.92,290.895 2082.33,200.471 2092.75,149.269 2103.16,148.56 2113.57,196.81 2123.99,283.359 2134.4,392.315 2144.81,499.229 2155.22,568.871 2165.64,567.918 2176.05,486.385 2186.46,350.62 2196.88,216.997 2207.29,140.171 2217.7,137.282 2228.11,187.425 2238.53,260.255 2248.94,336.104 2259.35,406.744 2269.77,469.541 2280.18,523.755 2290.59,569.397 "/>
<polyline clip-path="url(#clip352)" style="stroke:#e26f46; stroke-linecap:round; stroke-linejoin:round; stroke-width:4; stroke-opacity:1; fill:none" points="218.439,1118.31 228.852,1098.85 239.264,1084.5 249.677,1075.73 260.09,1072.83 270.503,1075.89 280.916,1084.81 291.329,1099.3 301.741,1118.89 312.154,1142.94 322.567,1170.66 332.98,1201.15 343.393,1233.41 353.805,1266.4 364.218,1299.02 374.631,1330.23 385.044,1359 395.457,1384.39 405.87,1405.57 416.282,1421.86 426.695,1432.71 437.108,1437.79 447.521,1436.91 457.934,1430.11 468.347,1417.61 478.759,1399.82 489.172,1377.32 499.585,1350.85 509.998,1321.26 520.411,1289.52 530.824,1256.68 541.236,1223.8 551.649,1191.95 562.062,1162.17 572.475,1135.44 582.888,1112.63 593.301,1094.48 603.713,1081.59 614.126,1074.37 624.539,1073.06 634.952,1077.71 645.365,1088.16 655.777,1104.07 666.19,1124.93 676.603,1150.04 687.016,1178.6 697.429,1209.66 707.842,1242.22 718.254,1275.22 728.667,1307.57 739.08,1338.22 749.493,1366.17 759.906,1390.51 770.319,1410.44 780.731,1425.32 791.144,1434.65 801.557,1438.14 811.97,1435.66 822.383,1427.3 832.796,1413.34 843.208,1394.23 853.621,1370.58 864.034,1343.18 874.447,1312.92 884.86,1280.79 895.273,1247.83 905.685,1215.12 916.098,1183.72 926.511,1154.67 936.924,1128.91 947.337,1107.28 957.749,1090.49 968.162,1079.08 978.575,1073.44 988.988,1073.73 999.401,1079.95 1009.81,1091.91 1020.23,1109.2 1030.64,1131.27 1041.05,1157.39 1051.46,1186.71 1061.88,1218.28 1072.29,1251.07 1082.7,1283.99 1093.12,1315.99 1103.53,1346.01 1113.94,1373.08 1124.35,1396.31 1134.77,1414.95 1145.18,1428.38 1155.59,1436.17 1166.01,1438.06 1176.42,1433.99 1186.83,1424.1 1197.24,1408.7 1207.66,1388.31 1218.07,1363.58 1228.48,1335.32 1238.9,1304.45 1249.31,1271.99 1259.72,340.842 1270.13,339.332 1280.55,340.706 1290.96,345.279 1301.37,351.651 1311.79,357.128 1322.2,358.75 1332.61,354.536 1343.02,344.489 1353.44,330.945 1363.85,318.057 1374.26,310.528 1384.68,311.972 1395.09,323.46 1405.5,342.782 1415.91,364.771 1426.33,382.678 1436.74,390.231 1447.15,383.766 1457.57,363.704 1467.98,334.847 1478.39,305.274 1488.8,284.079 1499.22,278.588 1509.63,291.899 1520.04,321.553 1530.45,359.85 1540.87,395.826 1551.28,418.389 1561.69,419.725 1572.11,397.927 1582.52,357.978 1592.93,310.688 1603.34,269.783 1613.76,247.916 1624.17,252.779 1634.58,284.481 1645,335.09 1655.41,390.572 1665.82,434.674 1676.23,453.688 1686.65,440.685 1697.06,397.93 1707.47,336.648 1717.89,274.112 1728.3,228.768 1738.71,214.804 1749.12,237.734 1759.54,292.39 1769.95,363.99 1780.36,432.127 1790.78,476.581 1801.19,483.314 1811.6,448.869 1822.01,381.8 1832.43,300.597 1842.84,228.604 1853.25,187.303 1863.67,189.914 1874.08,237.209 1884.49,316.851 1894.9,406.58 1905.32,480.429 1915.73,516.239 1926.14,502.294 1936.56,441.103 1946.97,349.101 1957.38,252.264 1967.79,178.774 1978.21,150.819 1988.62,177.91 1999.03,253.721 2009.45,357.491 2019.86,459.694 2030.27,530.438 2040.68,548.207 2051.1,506.384 2061.51,415.588 2071.92,301.021 2082.33,195.487 2092.75,129.994 2103.16,124.652 2113.57,182.52 2123.99,288.291 2134.4,412.31 2144.81,518.885 2155.22,576.554 2165.64,567.372 2176.05,492.46 2186.46,372.118 2196.88,240.346 2207.29,135.239 2217.7,87.9763 2228.11,113.58 2238.53,206.184 2248.94,340.293 2259.35,477.783 2269.77,578.749 2280.18,613.07 2290.59,569.397 "/>
<path clip-path="url(#clip350)" d="M229.49 250.738 L675.966 250.738 L675.966 95.2176 L229.49 95.2176  Z" fill="#ffffff" fill-rule="evenodd" fill-opacity="1"/>
<polyline clip-path="url(#clip350)" style="stroke:#000000; stroke-linecap:round; stroke-linejoin:round; stroke-width:4; stroke-opacity:1; fill:none" points="229.49,250.738 675.966,250.738 675.966,95.2176 229.49,95.2176 229.49,250.738 "/>
<polyline clip-path="url(#clip350)" style="stroke:#009af9; stroke-linecap:round; stroke-linejoin:round; stroke-width:16; stroke-opacity:1; fill:none" stroke-dasharray="8, 16" points="253.896,147.058 400.328,147.058 "/>
<path clip-path="url(#clip350)" d="M429.409 133.62 L429.409 146.606 L435.289 146.606 Q438.552 146.606 440.335 144.916 Q442.117 143.227 442.117 140.102 Q442.117 137 440.335 135.31 Q438.552 133.62 435.289 133.62 L429.409 133.62 M424.733 129.778 L435.289 129.778 Q441.099 129.778 444.062 132.416 Q447.048 135.032 447.048 140.102 Q447.048 145.217 444.062 147.833 Q441.099 150.449 435.289 150.449 L429.409 150.449 L429.409 164.338 L424.733 164.338 L424.733 129.778 Z" fill="#000000" fill-rule="nonzero" fill-opacity="1" /><path clip-path="url(#clip350)" d="M467.325 142.393 Q466.608 141.977 465.751 141.791 Q464.918 141.583 463.899 141.583 Q460.288 141.583 458.344 143.944 Q456.423 146.282 456.423 150.68 L456.423 164.338 L452.14 164.338 L452.14 138.412 L456.423 138.412 L456.423 142.44 Q457.765 140.078 459.918 138.944 Q462.071 137.787 465.149 137.787 Q465.589 137.787 466.122 137.856 Q466.654 137.903 467.302 138.018 L467.325 142.393 Z" fill="#000000" fill-rule="nonzero" fill-opacity="1" /><path clip-path="url(#clip350)" d="M492.927 150.31 L492.927 152.393 L473.344 152.393 Q473.622 156.791 475.983 159.106 Q478.367 161.398 482.603 161.398 Q485.057 161.398 487.348 160.796 Q489.663 160.194 491.932 158.99 L491.932 163.018 Q489.64 163.99 487.233 164.5 Q484.825 165.009 482.348 165.009 Q476.145 165.009 472.511 161.398 Q468.899 157.787 468.899 151.629 Q468.899 145.264 472.325 141.537 Q475.774 137.787 481.608 137.787 Q486.839 137.787 489.872 141.166 Q492.927 144.523 492.927 150.31 M488.668 149.06 Q488.622 145.565 486.7 143.481 Q484.802 141.398 481.654 141.398 Q478.089 141.398 475.936 143.412 Q473.807 145.426 473.483 149.083 L488.668 149.06 Z" fill="#000000" fill-rule="nonzero" fill-opacity="1" /><path clip-path="url(#clip350)" d="M516.978 142.347 L516.978 128.319 L521.237 128.319 L521.237 164.338 L516.978 164.338 L516.978 160.449 Q515.635 162.763 513.575 163.898 Q511.538 165.009 508.668 165.009 Q503.969 165.009 501.006 161.259 Q498.066 157.509 498.066 151.398 Q498.066 145.287 501.006 141.537 Q503.969 137.787 508.668 137.787 Q511.538 137.787 513.575 138.921 Q515.635 140.032 516.978 142.347 M502.464 151.398 Q502.464 156.097 504.385 158.782 Q506.33 161.444 509.709 161.444 Q513.089 161.444 515.033 158.782 Q516.978 156.097 516.978 151.398 Q516.978 146.699 515.033 144.037 Q513.089 141.352 509.709 141.352 Q506.33 141.352 504.385 144.037 Q502.464 146.699 502.464 151.398 Z" fill="#000000" fill-rule="nonzero" fill-opacity="1" /><path clip-path="url(#clip350)" d="M530.01 138.412 L534.269 138.412 L534.269 164.338 L530.01 164.338 L530.01 138.412 M530.01 128.319 L534.269 128.319 L534.269 133.713 L530.01 133.713 L530.01 128.319 Z" fill="#000000" fill-rule="nonzero" fill-opacity="1" /><path clip-path="url(#clip350)" d="M561.839 139.407 L561.839 143.389 Q560.033 142.393 558.205 141.907 Q556.399 141.398 554.547 141.398 Q550.404 141.398 548.112 144.037 Q545.82 146.652 545.82 151.398 Q545.82 156.143 548.112 158.782 Q550.404 161.398 554.547 161.398 Q556.399 161.398 558.205 160.912 Q560.033 160.402 561.839 159.407 L561.839 163.342 Q560.056 164.176 558.135 164.592 Q556.237 165.009 554.084 165.009 Q548.228 165.009 544.779 161.328 Q541.33 157.648 541.33 151.398 Q541.33 145.055 544.802 141.421 Q548.297 137.787 554.362 137.787 Q556.33 137.787 558.205 138.203 Q560.08 138.597 561.839 139.407 Z" fill="#000000" fill-rule="nonzero" fill-opacity="1" /><path clip-path="url(#clip350)" d="M573.459 131.051 L573.459 138.412 L582.232 138.412 L582.232 141.722 L573.459 141.722 L573.459 155.796 Q573.459 158.967 574.316 159.87 Q575.195 160.773 577.857 160.773 L582.232 160.773 L582.232 164.338 L577.857 164.338 Q572.927 164.338 571.052 162.509 Q569.177 160.657 569.177 155.796 L569.177 141.722 L566.052 141.722 L566.052 138.412 L569.177 138.412 L569.177 131.051 L573.459 131.051 Z" fill="#000000" fill-rule="nonzero" fill-opacity="1" /><path clip-path="url(#clip350)" d="M587.834 138.412 L592.093 138.412 L592.093 164.338 L587.834 164.338 L587.834 138.412 M587.834 128.319 L592.093 128.319 L592.093 133.713 L587.834 133.713 L587.834 128.319 Z" fill="#000000" fill-rule="nonzero" fill-opacity="1" /><path clip-path="url(#clip350)" d="M611.051 141.398 Q607.626 141.398 605.635 144.083 Q603.644 146.745 603.644 151.398 Q603.644 156.051 605.612 158.736 Q607.602 161.398 611.051 161.398 Q614.454 161.398 616.445 158.713 Q618.436 156.027 618.436 151.398 Q618.436 146.791 616.445 144.106 Q614.454 141.398 611.051 141.398 M611.051 137.787 Q616.607 137.787 619.778 141.398 Q622.95 145.009 622.95 151.398 Q622.95 157.764 619.778 161.398 Q616.607 165.009 611.051 165.009 Q605.473 165.009 602.302 161.398 Q599.153 157.764 599.153 151.398 Q599.153 145.009 602.302 141.398 Q605.473 137.787 611.051 137.787 Z" fill="#000000" fill-rule="nonzero" fill-opacity="1" /><path clip-path="url(#clip350)" d="M651.561 148.689 L651.561 164.338 L647.301 164.338 L647.301 148.828 Q647.301 145.148 645.866 143.319 Q644.431 141.49 641.561 141.49 Q638.112 141.49 636.121 143.69 Q634.13 145.889 634.13 149.685 L634.13 164.338 L629.848 164.338 L629.848 138.412 L634.13 138.412 L634.13 142.44 Q635.658 140.102 637.718 138.944 Q639.801 137.787 642.51 137.787 Q646.977 137.787 649.269 140.565 Q651.561 143.319 651.561 148.689 Z" fill="#000000" fill-rule="nonzero" fill-opacity="1" /><polyline clip-path="url(#clip350)" style="stroke:#e26f46; stroke-linecap:round; stroke-linejoin:round; stroke-width:4; stroke-opacity:1; fill:none" points="253.896,198.898 400.328,198.898 "/>
<path clip-path="url(#clip350)" d="M424.733 181.618 L446.585 181.618 L446.585 185.553 L429.409 185.553 L429.409 195.784 L445.867 195.784 L445.867 199.719 L429.409 199.719 L429.409 212.242 L447.001 212.242 L447.001 216.178 L424.733 216.178 L424.733 181.618 Z" fill="#000000" fill-rule="nonzero" fill-opacity="1" /><path clip-path="url(#clip350)" d="M476.052 190.252 L466.677 202.867 L476.538 216.178 L471.515 216.178 L463.969 205.992 L456.423 216.178 L451.4 216.178 L461.469 202.613 L452.256 190.252 L457.279 190.252 L464.154 199.488 L471.029 190.252 L476.052 190.252 Z" fill="#000000" fill-rule="nonzero" fill-opacity="1" /><path clip-path="url(#clip350)" d="M494.339 203.145 Q489.177 203.145 487.186 204.326 Q485.196 205.506 485.196 208.354 Q485.196 210.622 486.677 211.965 Q488.182 213.284 490.751 213.284 Q494.293 213.284 496.422 210.784 Q498.575 208.261 498.575 204.094 L498.575 203.145 L494.339 203.145 M502.834 201.386 L502.834 216.178 L498.575 216.178 L498.575 212.242 Q497.117 214.603 494.941 215.738 Q492.765 216.849 489.617 216.849 Q485.635 216.849 483.274 214.627 Q480.936 212.381 480.936 208.631 Q480.936 204.256 483.853 202.034 Q486.793 199.812 492.603 199.812 L498.575 199.812 L498.575 199.395 Q498.575 196.455 496.631 194.858 Q494.71 193.238 491.214 193.238 Q488.992 193.238 486.885 193.77 Q484.779 194.303 482.835 195.367 L482.835 191.432 Q485.173 190.53 487.372 190.09 Q489.571 189.627 491.654 189.627 Q497.279 189.627 500.057 192.543 Q502.834 195.46 502.834 201.386 Z" fill="#000000" fill-rule="nonzero" fill-opacity="1" /><path clip-path="url(#clip350)" d="M530.265 191.247 L530.265 195.229 Q528.459 194.233 526.631 193.747 Q524.825 193.238 522.973 193.238 Q518.83 193.238 516.538 195.877 Q514.246 198.492 514.246 203.238 Q514.246 207.983 516.538 210.622 Q518.83 213.238 522.973 213.238 Q524.825 213.238 526.631 212.752 Q528.459 212.242 530.265 211.247 L530.265 215.182 Q528.482 216.016 526.561 216.432 Q524.663 216.849 522.51 216.849 Q516.654 216.849 513.205 213.168 Q509.756 209.488 509.756 203.238 Q509.756 196.895 513.228 193.261 Q516.723 189.627 522.788 189.627 Q524.756 189.627 526.631 190.043 Q528.506 190.437 530.265 191.247 Z" fill="#000000" fill-rule="nonzero" fill-opacity="1" /><path clip-path="url(#clip350)" d="M541.885 182.891 L541.885 190.252 L550.658 190.252 L550.658 193.562 L541.885 193.562 L541.885 207.636 Q541.885 210.807 542.742 211.71 Q543.621 212.613 546.283 212.613 L550.658 212.613 L550.658 216.178 L546.283 216.178 Q541.353 216.178 539.478 214.349 Q537.603 212.497 537.603 207.636 L537.603 193.562 L534.478 193.562 L534.478 190.252 L537.603 190.252 L537.603 182.891 L541.885 182.891 Z" fill="#000000" fill-rule="nonzero" fill-opacity="1" /></svg>
