<?xml version="1.0" encoding="utf-8"?>
<svg xmlns="http://www.w3.org/2000/svg" xmlns:xlink="http://www.w3.org/1999/xlink" width="600" height="400" viewBox="0 0 2400 1600">
<defs>
  <clipPath id="clip380">
    <rect x="0" y="0" width="2400" height="1600"/>
  </clipPath>
</defs>
<path clip-path="url(#clip380)" d="M0 1600 L2400 1600 L2400 0 L0 0  Z" fill="#ffffff" fill-rule="evenodd" fill-opacity="1"/>
<defs>
  <clipPath id="clip381">
    <rect x="480" y="0" width="1681" height="1600"/>
  </clipPath>
</defs>
<path clip-path="url(#clip380)" d="M156.274 1486.45 L2352.76 1486.45 L2352.76 47.2441 L156.274 47.2441  Z" fill="#ffffff" fill-rule="evenodd" fill-opacity="1"/>
<defs>
  <clipPath id="clip382">
    <rect x="156" y="47" width="2197" height="1440"/>
  </clipPath>
</defs>
<polyline clip-path="url(#clip382)" style="stroke:#000000; stroke-linecap:round; stroke-linejoin:round; stroke-width:2; stroke-opacity:0.1; fill:none" points="218.439,1486.45 218.439,47.2441 "/>
<polyline clip-path="url(#clip382)" style="stroke:#000000; stroke-linecap:round; stroke-linejoin:round; stroke-width:2; stroke-opacity:0.1; fill:none" points="736.477,1486.45 736.477,47.2441 "/>
<polyline clip-path="url(#clip382)" style="stroke:#000000; stroke-linecap:round; stroke-linejoin:round; stroke-width:2; stroke-opacity:0.1; fill:none" points="1254.52,1486.45 1254.52,47.2441 "/>
<polyline clip-path="url(#clip382)" style="stroke:#000000; stroke-linecap:round; stroke-linejoin:round; stroke-width:2; stroke-opacity:0.1; fill:none" points="1772.55,1486.45 1772.55,47.2441 "/>
<polyline clip-path="url(#clip382)" style="stroke:#000000; stroke-linecap:round; stroke-linejoin:round; stroke-width:2; stroke-opacity:0.1; fill:none" points="2290.59,1486.45 2290.59,47.2441 "/>
<polyline clip-path="url(#clip380)" style="stroke:#000000; stroke-linecap:round; stroke-linejoin:round; stroke-width:4; stroke-opacity:1; fill:none" points="156.274,1486.45 2352.76,1486.45 "/>
<polyline clip-path="url(#clip380)" style="stroke:#000000; stroke-linecap:round; stroke-linejoin:round; stroke-width:4; stroke-opacity:1; fill:none" points="218.439,1486.45 218.439,1467.55 "/>
<polyline clip-path="url(#clip380)" style="stroke:#000000; stroke-linecap:round; stroke-linejoin:round; stroke-width:4; stroke-opacity:1; fill:none" points="736.477,1486.45 736.477,1467.55 "/>
<polyline clip-path="url(#clip380)" style="stroke:#000000; stroke-linecap:round; stroke-linejoin:round; stroke-width:4; stroke-opacity:1; fill:none" points="1254.52,1486.45 1254.52,1467.55 "/>
<polyline clip-path="url(#clip380)" style="stroke:#000000; stroke-linecap:round; stroke-linejoin:round; stroke-width:4; stroke-opacity:1; fill:none" points="1772.55,1486.45 1772.55,1467.55 "/>
<polyline clip-path="url(#clip380)" style="stroke:#000000; stroke-linecap:round; stroke-linejoin:round; stroke-width:4; stroke-opacity:1; fill:none" points="2290.59,1486.45 2290.59,1467.55 "/>
<path clip-path="url(#clip380)" d="M164.967 1532.02 L194.643 1532.02 L194.643 1535.95 L164.967 1535.95 L164.967 1532.02 Z" fill="#000000" fill-rule="nonzero" fill-opacity="1" /><path clip-path="url(#clip380)" d="M205.545 1544.91 L213.184 1544.91 L213.184 1518.55 L204.874 1520.21 L204.874 1515.95 L213.138 1514.29 L217.814 1514.29 L217.814 1544.91 L225.453 1544.91 L225.453 1548.85 L205.545 1548.85 L205.545 1544.91 Z" fill="#000000" fill-rule="nonzero" fill-opacity="1" /><path clip-path="url(#clip380)" d="M234.897 1542.97 L239.781 1542.97 L239.781 1548.85 L234.897 1548.85 L234.897 1542.97 Z" fill="#000000" fill-rule="nonzero" fill-opacity="1" /><path clip-path="url(#clip380)" d="M259.966 1517.37 Q256.355 1517.37 254.527 1520.93 Q252.721 1524.47 252.721 1531.6 Q252.721 1538.71 254.527 1542.27 Q256.355 1545.82 259.966 1545.82 Q263.601 1545.82 265.406 1542.27 Q267.235 1538.71 267.235 1531.6 Q267.235 1524.47 265.406 1520.93 Q263.601 1517.37 259.966 1517.37 M259.966 1513.66 Q265.776 1513.66 268.832 1518.27 Q271.911 1522.85 271.911 1531.6 Q271.911 1540.33 268.832 1544.94 Q265.776 1549.52 259.966 1549.52 Q254.156 1549.52 251.077 1544.94 Q248.022 1540.33 248.022 1531.6 Q248.022 1522.85 251.077 1518.27 Q254.156 1513.66 259.966 1513.66 Z" fill="#000000" fill-rule="nonzero" fill-opacity="1" /><path clip-path="url(#clip380)" d="M683.503 1532.02 L713.178 1532.02 L713.178 1535.95 L683.503 1535.95 L683.503 1532.02 Z" fill="#000000" fill-rule="nonzero" fill-opacity="1" /><path clip-path="url(#clip380)" d="M733.271 1517.37 Q729.66 1517.37 727.831 1520.93 Q726.026 1524.47 726.026 1531.6 Q726.026 1538.71 727.831 1542.27 Q729.66 1545.82 733.271 1545.82 Q736.905 1545.82 738.711 1542.27 Q740.539 1538.71 740.539 1531.6 Q740.539 1524.47 738.711 1520.93 Q736.905 1517.37 733.271 1517.37 M733.271 1513.66 Q739.081 1513.66 742.137 1518.27 Q745.215 1522.85 745.215 1531.6 Q745.215 1540.33 742.137 1544.94 Q739.081 1549.52 733.271 1549.52 Q727.461 1549.52 724.382 1544.94 Q721.327 1540.33 721.327 1531.6 Q721.327 1522.85 724.382 1518.27 Q727.461 1513.66 733.271 1513.66 Z" fill="#000000" fill-rule="nonzero" fill-opacity="1" /><path clip-path="url(#clip380)" d="M753.433 1542.97 L758.317 1542.97 L758.317 1548.85 L753.433 1548.85 L753.433 1542.97 Z" fill="#000000" fill-rule="nonzero" fill-opacity="1" /><path clip-path="url(#clip380)" d="M768.548 1514.29 L786.905 1514.29 L786.905 1518.22 L772.831 1518.22 L772.831 1526.7 Q773.849 1526.35 774.868 1526.19 Q775.886 1526 776.905 1526 Q782.692 1526 786.072 1529.17 Q789.451 1532.34 789.451 1537.76 Q789.451 1543.34 785.979 1546.44 Q782.507 1549.52 776.187 1549.52 Q774.011 1549.52 771.743 1549.15 Q769.498 1548.78 767.09 1548.04 L767.09 1543.34 Q769.173 1544.47 771.396 1545.03 Q773.618 1545.58 776.095 1545.58 Q780.099 1545.58 782.437 1543.48 Q784.775 1541.37 784.775 1537.76 Q784.775 1534.15 782.437 1532.04 Q780.099 1529.94 776.095 1529.94 Q774.22 1529.94 772.345 1530.35 Q770.493 1530.77 768.548 1531.65 L768.548 1514.29 Z" fill="#000000" fill-rule="nonzero" fill-opacity="1" /><path clip-path="url(#clip380)" d="M1231.9 1517.37 Q1228.29 1517.37 1226.46 1520.93 Q1224.65 1524.47 1224.65 1531.6 Q1224.65 1538.71 1226.46 1542.27 Q1228.29 1545.82 1231.9 1545.82 Q1235.53 1545.82 1237.34 1542.27 Q1239.17 1538.71 1239.17 1531.6 Q1239.17 1524.47 1237.34 1520.93 Q1235.53 1517.37 1231.9 1517.37 M1231.9 1513.66 Q1237.71 1513.66 1240.77 1518.27 Q1243.84 1522.85 1243.84 1531.6 Q1243.84 1540.33 1240.77 1544.94 Q1237.71 1549.52 1231.9 1549.52 Q1226.09 1549.52 1223.01 1544.94 Q1219.96 1540.33 1219.96 1531.6 Q1219.96 1522.85 1223.01 1518.27 Q1226.09 1513.66 1231.9 1513.66 Z" fill="#000000" fill-rule="nonzero" fill-opacity="1" /><path clip-path="url(#clip380)" d="M1252.06 1542.97 L1256.95 1542.97 L1256.95 1548.85 L1252.06 1548.85 L1252.06 1542.97 Z" fill="#000000" fill-rule="nonzero" fill-opacity="1" /><path clip-path="url(#clip380)" d="M1277.13 1517.37 Q1273.52 1517.37 1271.69 1520.93 Q1269.89 1524.47 1269.89 1531.6 Q1269.89 1538.71 1271.69 1542.27 Q1273.52 1545.82 1277.13 1545.82 Q1280.76 1545.82 1282.57 1542.27 Q1284.4 1538.71 1284.4 1531.6 Q1284.4 1524.47 1282.57 1520.93 Q1280.76 1517.37 1277.13 1517.37 M1277.13 1513.66 Q1282.94 1513.66 1286 1518.27 Q1289.08 1522.85 1289.08 1531.6 Q1289.08 1540.33 1286 1544.94 Q1282.94 1549.52 1277.13 1549.52 Q1271.32 1549.52 1268.24 1544.94 Q1265.19 1540.33 1265.19 1531.6 Q1265.19 1522.85 1268.24 1518.27 Q1271.32 1513.66 1277.13 1513.66 Z" fill="#000000" fill-rule="nonzero" fill-opacity="1" /><path clip-path="url(#clip380)" d="M1750.44 1517.37 Q1746.82 1517.37 1745 1520.93 Q1743.19 1524.47 1743.19 1531.6 Q1743.19 1538.71 1745 1542.27 Q1746.82 1545.82 1750.44 1545.82 Q1754.07 1545.82 1755.88 1542.27 Q1757.7 1538.71 1757.7 1531.6 Q1757.7 1524.47 1755.88 1520.93 Q1754.07 1517.37 1750.44 1517.37 M1750.44 1513.66 Q1756.25 1513.66 1759.3 1518.27 Q1762.38 1522.85 1762.38 1531.6 Q1762.38 1540.33 1759.3 1544.94 Q1756.25 1549.52 1750.44 1549.52 Q1744.63 1549.52 1741.55 1544.94 Q1738.49 1540.33 1738.49 1531.6 Q1738.49 1522.85 1741.55 1518.27 Q1744.63 1513.66 1750.44 1513.66 Z" fill="#000000" fill-rule="nonzero" fill-opacity="1" /><path clip-path="url(#clip380)" d="M1770.6 1542.97 L1775.48 1542.97 L1775.48 1548.85 L1770.6 1548.85 L1770.6 1542.97 Z" fill="#000000" fill-rule="nonzero" fill-opacity="1" /><path clip-path="url(#clip380)" d="M1785.71 1514.29 L1804.07 1514.29 L1804.07 1518.22 L1790 1518.22 L1790 1526.7 Q1791.01 1526.35 1792.03 1526.19 Q1793.05 1526 1794.07 1526 Q1799.86 1526 1803.24 1529.17 Q1806.62 1532.34 1806.62 1537.76 Q1806.62 1543.34 1803.14 1546.44 Q1799.67 1549.52 1793.35 1549.52 Q1791.18 1549.52 1788.91 1549.15 Q1786.66 1548.78 1784.25 1548.04 L1784.25 1543.34 Q1786.34 1544.47 1788.56 1545.03 Q1790.78 1545.58 1793.26 1545.58 Q1797.26 1545.58 1799.6 1543.48 Q1801.94 1541.37 1801.94 1537.76 Q1801.94 1534.15 1799.6 1532.04 Q1797.26 1529.94 1793.26 1529.94 Q1791.38 1529.94 1789.51 1530.35 Q1787.66 1530.77 1785.71 1531.65 L1785.71 1514.29 Z" fill="#000000" fill-rule="nonzero" fill-opacity="1" /><path clip-path="url(#clip380)" d="M2257.74 1544.91 L2265.38 1544.91 L2265.38 1518.55 L2257.07 1520.21 L2257.07 1515.95 L2265.34 1514.29 L2270.01 1514.29 L2270.01 1544.91 L2277.65 1544.91 L2277.65 1548.85 L2257.74 1548.85 L2257.74 1544.91 Z" fill="#000000" fill-rule="nonzero" fill-opacity="1" /><path clip-path="url(#clip380)" d="M2287.1 1542.97 L2291.98 1542.97 L2291.98 1548.85 L2287.1 1548.85 L2287.1 1542.97 Z" fill="#000000" fill-rule="nonzero" fill-opacity="1" /><path clip-path="url(#clip380)" d="M2312.17 1517.37 Q2308.55 1517.37 2306.73 1520.93 Q2304.92 1524.47 2304.92 1531.6 Q2304.92 1538.71 2306.73 1542.27 Q2308.55 1545.82 2312.17 1545.82 Q2315.8 1545.82 2317.61 1542.27 Q2319.43 1538.71 2319.43 1531.6 Q2319.43 1524.47 2317.61 1520.93 Q2315.8 1517.37 2312.17 1517.37 M2312.17 1513.66 Q2317.98 1513.66 2321.03 1518.27 Q2324.11 1522.85 2324.11 1531.6 Q2324.11 1540.33 2321.03 1544.94 Q2317.98 1549.52 2312.17 1549.52 Q2306.36 1549.52 2303.28 1544.94 Q2300.22 1540.33 2300.22 1531.6 Q2300.22 1522.85 2303.28 1518.27 Q2306.36 1513.66 2312.17 1513.66 Z" fill="#000000" fill-rule="nonzero" fill-opacity="1" /><polyline clip-path="url(#clip382)" style="stroke:#000000; stroke-linecap:round; stroke-linejoin:round; stroke-width:2; stroke-opacity:0.1; fill:none" points="156.274,1229.66 2352.76,1229.66 "/>
<polyline clip-path="url(#clip382)" style="stroke:#000000; stroke-linecap:round; stroke-linejoin:round; stroke-width:2; stroke-opacity:0.1; fill:none" points="156.274,961.727 2352.76,961.727 "/>
<polyline clip-path="url(#clip382)" style="stroke:#000000; stroke-linecap:round; stroke-linejoin:round; stroke-width:2; stroke-opacity:0.1; fill:none" points="156.274,693.792 2352.76,693.792 "/>
<polyline clip-path="url(#clip382)" style="stroke:#000000; stroke-linecap:round; stroke-linejoin:round; stroke-width:2; stroke-opacity:0.1; fill:none" points="156.274,425.856 2352.76,425.856 "/>
<polyline clip-path="url(#clip382)" style="stroke:#000000; stroke-linecap:round; stroke-linejoin:round; stroke-width:2; stroke-opacity:0.1; fill:none" points="156.274,157.921 2352.76,157.921 "/>
<polyline clip-path="url(#clip380)" style="stroke:#000000; stroke-linecap:round; stroke-linejoin:round; stroke-width:4; stroke-opacity:1; fill:none" points="156.274,1486.45 156.274,47.2441 "/>
<polyline clip-path="url(#clip380)" style="stroke:#000000; stroke-linecap:round; stroke-linejoin:round; stroke-width:4; stroke-opacity:1; fill:none" points="156.274,1229.66 175.172,1229.66 "/>
<polyline clip-path="url(#clip380)" style="stroke:#000000; stroke-linecap:round; stroke-linejoin:round; stroke-width:4; stroke-opacity:1; fill:none" points="156.274,961.727 175.172,961.727 "/>
<polyline clip-path="url(#clip380)" style="stroke:#000000; stroke-linecap:round; stroke-linejoin:round; stroke-width:4; stroke-opacity:1; fill:none" points="156.274,693.792 175.172,693.792 "/>
<polyline clip-path="url(#clip380)" style="stroke:#000000; stroke-linecap:round; stroke-linejoin:round; stroke-width:4; stroke-opacity:1; fill:none" points="156.274,425.856 175.172,425.856 "/>
<polyline clip-path="url(#clip380)" style="stroke:#000000; stroke-linecap:round; stroke-linejoin:round; stroke-width:4; stroke-opacity:1; fill:none" points="156.274,157.921 175.172,157.921 "/>
<path clip-path="url(#clip380)" d="M63.0985 1215.46 Q59.4875 1215.46 57.6588 1219.03 Q55.8532 1222.57 55.8532 1229.7 Q55.8532 1236.8 57.6588 1240.37 Q59.4875 1243.91 63.0985 1243.91 Q66.7328 1243.91 68.5383 1240.37 Q70.367 1236.8 70.367 1229.7 Q70.367 1222.57 68.5383 1219.03 Q66.7328 1215.46 63.0985 1215.46 M63.0985 1211.76 Q68.9087 1211.76 71.9642 1216.36 Q75.0429 1220.95 75.0429 1229.7 Q75.0429 1238.42 71.9642 1243.03 Q68.9087 1247.61 63.0985 1247.61 Q57.2884 1247.61 54.2097 1243.03 Q51.1542 1238.42 51.1542 1229.7 Q51.1542 1220.95 54.2097 1216.36 Q57.2884 1211.76 63.0985 1211.76 Z" fill="#000000" fill-rule="nonzero" fill-opacity="1" /><path clip-path="url(#clip380)" d="M83.2605 1241.06 L88.1447 1241.06 L88.1447 1246.94 L83.2605 1246.94 L83.2605 1241.06 Z" fill="#000000" fill-rule="nonzero" fill-opacity="1" /><path clip-path="url(#clip380)" d="M108.33 1215.46 Q104.719 1215.46 102.89 1219.03 Q101.084 1222.57 101.084 1229.7 Q101.084 1236.8 102.89 1240.37 Q104.719 1243.91 108.33 1243.91 Q111.964 1243.91 113.77 1240.37 Q115.598 1236.8 115.598 1229.7 Q115.598 1222.57 113.77 1219.03 Q111.964 1215.46 108.33 1215.46 M108.33 1211.76 Q114.14 1211.76 117.195 1216.36 Q120.274 1220.95 120.274 1229.7 Q120.274 1238.42 117.195 1243.03 Q114.14 1247.61 108.33 1247.61 Q102.52 1247.61 99.4409 1243.03 Q96.3854 1238.42 96.3854 1229.7 Q96.3854 1220.95 99.4409 1216.36 Q102.52 1211.76 108.33 1211.76 Z" fill="#000000" fill-rule="nonzero" fill-opacity="1" /><path clip-path="url(#clip380)" d="M63.7467 947.526 Q60.1356 947.526 58.3069 951.091 Q56.5014 954.633 56.5014 961.762 Q56.5014 968.869 58.3069 972.433 Q60.1356 975.975 63.7467 975.975 Q67.3809 975.975 69.1865 972.433 Q71.0152 968.869 71.0152 961.762 Q71.0152 954.633 69.1865 951.091 Q67.3809 947.526 63.7467 947.526 M63.7467 943.822 Q69.5568 943.822 72.6124 948.429 Q75.6911 953.012 75.6911 961.762 Q75.6911 970.489 72.6124 975.095 Q69.5568 979.679 63.7467 979.679 Q57.9365 979.679 54.8578 975.095 Q51.8023 970.489 51.8023 961.762 Q51.8023 953.012 54.8578 948.429 Q57.9365 943.822 63.7467 943.822 Z" fill="#000000" fill-rule="nonzero" fill-opacity="1" /><path clip-path="url(#clip380)" d="M83.9086 973.128 L88.7928 973.128 L88.7928 979.007 L83.9086 979.007 L83.9086 973.128 Z" fill="#000000" fill-rule="nonzero" fill-opacity="1" /><path clip-path="url(#clip380)" d="M113.145 960.373 Q116.501 961.091 118.376 963.359 Q120.274 965.628 120.274 968.961 Q120.274 974.077 116.756 976.878 Q113.237 979.679 106.756 979.679 Q104.58 979.679 102.265 979.239 Q99.9733 978.822 97.5197 977.966 L97.5197 973.452 Q99.4641 974.586 101.779 975.165 Q104.094 975.744 106.617 975.744 Q111.015 975.744 113.307 974.008 Q115.621 972.271 115.621 968.961 Q115.621 965.906 113.469 964.193 Q111.339 962.457 107.52 962.457 L103.492 962.457 L103.492 958.614 L107.705 958.614 Q111.154 958.614 112.983 957.248 Q114.811 955.859 114.811 953.267 Q114.811 950.605 112.913 949.193 Q111.038 947.758 107.52 947.758 Q105.598 947.758 103.399 948.174 Q101.2 948.591 98.5613 949.471 L98.5613 945.304 Q101.223 944.563 103.538 944.193 Q105.876 943.822 107.936 943.822 Q113.26 943.822 116.362 946.253 Q119.464 948.66 119.464 952.781 Q119.464 955.651 117.82 957.642 Q116.177 959.609 113.145 960.373 Z" fill="#000000" fill-rule="nonzero" fill-opacity="1" /><path clip-path="url(#clip380)" d="M62.9365 679.591 Q59.3254 679.591 57.4967 683.155 Q55.6912 686.697 55.6912 693.827 Q55.6912 700.933 57.4967 704.498 Q59.3254 708.04 62.9365 708.04 Q66.5707 708.04 68.3763 704.498 Q70.205 700.933 70.205 693.827 Q70.205 686.697 68.3763 683.155 Q66.5707 679.591 62.9365 679.591 M62.9365 675.887 Q68.7467 675.887 71.8022 680.493 Q74.8809 685.077 74.8809 693.827 Q74.8809 702.553 71.8022 707.16 Q68.7467 711.743 62.9365 711.743 Q57.1264 711.743 54.0477 707.16 Q50.9921 702.553 50.9921 693.827 Q50.9921 685.077 54.0477 680.493 Q57.1264 675.887 62.9365 675.887 Z" fill="#000000" fill-rule="nonzero" fill-opacity="1" /><path clip-path="url(#clip380)" d="M83.0984 705.192 L87.9827 705.192 L87.9827 711.072 L83.0984 711.072 L83.0984 705.192 Z" fill="#000000" fill-rule="nonzero" fill-opacity="1" /><path clip-path="url(#clip380)" d="M108.746 691.928 Q105.598 691.928 103.746 694.081 Q101.918 696.234 101.918 699.984 Q101.918 703.711 103.746 705.887 Q105.598 708.04 108.746 708.04 Q111.895 708.04 113.723 705.887 Q115.575 703.711 115.575 699.984 Q115.575 696.234 113.723 694.081 Q111.895 691.928 108.746 691.928 M118.029 677.276 L118.029 681.535 Q116.27 680.702 114.464 680.262 Q112.682 679.822 110.922 679.822 Q106.293 679.822 103.839 682.947 Q101.409 686.072 101.061 692.391 Q102.427 690.378 104.487 689.313 Q106.547 688.225 109.024 688.225 Q114.233 688.225 117.242 691.396 Q120.274 694.544 120.274 699.984 Q120.274 705.308 117.126 708.526 Q113.978 711.743 108.746 711.743 Q102.751 711.743 99.5798 707.16 Q96.4085 702.553 96.4085 693.827 Q96.4085 685.632 100.297 680.771 Q104.186 675.887 110.737 675.887 Q112.496 675.887 114.279 676.234 Q116.084 676.581 118.029 677.276 Z" fill="#000000" fill-rule="nonzero" fill-opacity="1" /><path clip-path="url(#clip380)" d="M63.2837 411.655 Q59.6726 411.655 57.8439 415.22 Q56.0384 418.761 56.0384 425.891 Q56.0384 432.998 57.8439 436.562 Q59.6726 440.104 63.2837 440.104 Q66.918 440.104 68.7235 436.562 Q70.5522 432.998 70.5522 425.891 Q70.5522 418.761 68.7235 415.22 Q66.918 411.655 63.2837 411.655 M63.2837 407.951 Q69.0939 407.951 72.1494 412.558 Q75.2281 417.141 75.2281 425.891 Q75.2281 434.618 72.1494 439.224 Q69.0939 443.808 63.2837 443.808 Q57.4736 443.808 54.3949 439.224 Q51.3393 434.618 51.3393 425.891 Q51.3393 417.141 54.3949 412.558 Q57.4736 407.951 63.2837 407.951 Z" fill="#000000" fill-rule="nonzero" fill-opacity="1" /><path clip-path="url(#clip380)" d="M83.4457 437.257 L88.3299 437.257 L88.3299 443.136 L83.4457 443.136 L83.4457 437.257 Z" fill="#000000" fill-rule="nonzero" fill-opacity="1" /><path clip-path="url(#clip380)" d="M98.6539 442.419 L98.6539 438.16 Q100.413 438.993 102.219 439.433 Q104.024 439.872 105.76 439.872 Q110.39 439.872 112.82 436.771 Q115.274 433.646 115.621 427.303 Q114.279 429.294 112.219 430.359 Q110.158 431.423 107.658 431.423 Q102.473 431.423 99.4409 428.298 Q96.4317 425.15 96.4317 419.711 Q96.4317 414.387 99.5798 411.169 Q102.728 407.951 107.959 407.951 Q113.955 407.951 117.103 412.558 Q120.274 417.141 120.274 425.891 Q120.274 434.062 116.385 438.947 Q112.52 443.808 105.969 443.808 Q104.209 443.808 102.404 443.46 Q100.598 443.113 98.6539 442.419 M107.959 427.766 Q111.108 427.766 112.936 425.613 Q114.788 423.461 114.788 419.711 Q114.788 415.984 112.936 413.831 Q111.108 411.655 107.959 411.655 Q104.811 411.655 102.959 413.831 Q101.131 415.984 101.131 419.711 Q101.131 423.461 102.959 425.613 Q104.811 427.766 107.959 427.766 Z" fill="#000000" fill-rule="nonzero" fill-opacity="1" /><path clip-path="url(#clip380)" d="M55.506 171.266 L63.1448 171.266 L63.1448 144.9 L54.8347 146.567 L54.8347 142.307 L63.0985 140.641 L67.7744 140.641 L67.7744 171.266 L75.4133 171.266 L75.4133 175.201 L55.506 175.201 L55.506 171.266 Z" fill="#000000" fill-rule="nonzero" fill-opacity="1" /><path clip-path="url(#clip380)" d="M84.8577 169.321 L89.7419 169.321 L89.7419 175.201 L84.8577 175.201 L84.8577 169.321 Z" fill="#000000" fill-rule="nonzero" fill-opacity="1" /><path clip-path="url(#clip380)" d="M103.955 171.266 L120.274 171.266 L120.274 175.201 L98.3298 175.201 L98.3298 171.266 Q100.992 168.511 105.575 163.881 Q110.182 159.229 111.362 157.886 Q113.608 155.363 114.487 153.627 Q115.39 151.868 115.39 150.178 Q115.39 147.423 113.445 145.687 Q111.524 143.951 108.422 143.951 Q106.223 143.951 103.77 144.715 Q101.339 145.479 98.5613 147.03 L98.5613 142.307 Q101.385 141.173 103.839 140.594 Q106.293 140.016 108.33 140.016 Q113.7 140.016 116.895 142.701 Q120.089 145.386 120.089 149.877 Q120.089 152.006 119.279 153.928 Q118.492 155.826 116.385 158.418 Q115.807 159.09 112.705 162.307 Q109.603 165.502 103.955 171.266 Z" fill="#000000" fill-rule="nonzero" fill-opacity="1" /><polyline clip-path="url(#clip382)" style="stroke:#009af9; stroke-linecap:round; stroke-linejoin:round; stroke-width:16; stroke-opacity:1; fill:none" stroke-dasharray="8, 16" points="218.439,1094.48 228.852,1083.61 239.264,1070.88 249.677,1059.34 260.09,1052.01 270.503,1051.33 280.916,1058.6 291.329,1073.71 301.741,1095.37 312.154,1121.54 322.567,1150.19 332.98,1179.84 343.393,1209.82 353.805,1240.16 364.218,1270.89 374.631,1301.43 385.044,1330.53 395.457,1356.59 405.87,1378.09 416.282,1393.87 426.695,1403.4 437.108,1406.96 447.521,1405.33 457.934,1399.22 468.347,1388.76 478.759,1373.54 489.172,1352.97 499.585,1326.99 509.998,1296.47 520.411,1263.28 530.824,1229.66 541.236,1197.58 551.649,1168.12 562.062,1141.45 572.475,1117.21 582.888,1095.16 593.301,1075.71 603.713,1060.13 614.126,1050.39 624.539,1048.46 634.952,1055.66 645.365,1072.11 655.777,1095.83 666.19,1121.09 676.603,1140.07 687.016,1150.67 697.429,1163.63 707.842,1193.54 718.254,1238.68 728.667,1284.48 739.08,1321.43 749.493,1348.29 759.906,1367.39 770.319,1381.37 780.731,1392.05 791.144,1400.14 801.557,1405.28 811.97,1406.23 822.383,1401.29 832.796,1389 843.208,1368.79 853.621,1341.47 864.034,1309.43 874.447,1276.59 884.86,1247.11 895.273,1222.45 905.685,1199.78 916.098,1174.62 926.511,1143.9 936.924,1106.24 947.337,1064.49 957.749,1030.78 968.162,1021.67 978.575,1048.2 988.988,1094.15 999.401,1111.58 1009.81,1099.7 1020.23,1090.6 1030.64,1090.97 1041.05,1118.87 1051.46,1169.49 1061.88,1200.05 1072.29,1184.19 1082.7,1174.23 1093.12,1234.51 1103.53,1311.86 1113.94,1352.52 1124.35,1368.27 1134.77,1383.05 1145.18,1400.51 1155.59,1392.12 1166.01,1336.65 1176.42,1306.16 1186.83,1358.57 1197.24,1424.93 1207.66,1445.72 1218.07,1417.9 1228.48,1349.92 1238.9,1214.97 1249.31,989.85 1259.72,709.003 1270.13,450.591 1280.55,259.702 1290.96,170.289 1301.37,190.243 1311.79,294.888 1322.2,367.774 1332.61,384.149 1343.02,378.539 1353.44,336.053 1363.85,313.008 1374.26,292.5 1384.68,263.015 1395.09,277.945 1405.5,358.429 1415.91,423.711 1426.33,420.03 1436.74,395.018 1447.15,378.227 1457.57,370.179 1467.98,353.58 1478.39,317.593 1488.8,276.526 1499.22,253.874 1509.63,267.299 1520.04,308.076 1530.45,356.097 1540.87,397.909 1551.28,422.621 1561.69,421.04 1572.11,391.956 1582.52,344.869 1592.93,295.629 1603.34,259.074 1613.76,243.319 1624.17,248.668 1634.58,273.506 1645,320.505 1655.41,382.184 1665.82,432.525 1676.23,452.477 1686.65,438.01 1697.06,392.591 1707.47,326.172 1717.89,257.963 1728.3,213.054 1738.71,209.346 1749.12,247.042 1759.54,310.806 1769.95,378.309 1780.36,428.497 1790.78,449.83 1801.19,442.726 1811.6,413.141 1822.01,367.056 1832.43,310.437 1842.84,251.954 1853.25,206.211 1863.67,193.061 1874.08,225.374 1884.49,296.193 1894.9,384.958 1905.32,466.408 1915.73,511.001 1926.14,496.704 1936.56,430.081 1946.97,339.025 1957.38,248.776 1967.79,178.184 1978.21,146.761 1988.62,170.694 1999.03,248.884 2009.45,356.616 2019.86,457.206 2030.27,520.831 2040.68,533.188 2051.1,493.109 2061.51,408.637 2071.92,297.373 2082.33,189.767 2092.75,123.541 2103.16,121.455 2113.57,180.327 2123.99,282.317 2134.4,399.961 2144.81,500.443 2155.22,557.629 2165.64,556.052 2176.05,490.837 2186.46,371.311 2196.88,231.164 2207.29,136.091 2217.7,127.706 2228.11,179.386 2238.53,254.005 2248.94,331.274 2259.35,402.129 2269.77,463.466 2280.18,515.115 2290.59,558.107 "/>
<polyline clip-path="url(#clip382)" style="stroke:#e26f46; stroke-linecap:round; stroke-linejoin:round; stroke-width:4; stroke-opacity:1; fill:none" points="218.439,1095.52 228.852,1076.49 239.264,1062.45 249.677,1053.88 260.09,1051.04 270.503,1054.03 280.916,1062.75 291.329,1076.93 301.741,1096.08 312.154,1119.6 322.567,1146.7 332.98,1176.52 343.393,1208.07 353.805,1240.32 364.218,1272.23 374.631,1302.75 385.044,1330.88 395.457,1355.71 405.87,1376.42 416.282,1392.35 426.695,1402.96 437.108,1407.92 447.521,1407.06 457.934,1400.42 468.347,1388.19 478.759,1370.8 489.172,1348.8 499.585,1322.91 509.998,1293.97 520.411,1262.94 530.824,1230.82 541.236,1198.67 551.649,1167.52 562.062,1138.41 572.475,1112.27 582.888,1089.96 593.301,1072.21 603.713,1059.61 614.126,1052.55 624.539,1051.27 634.952,1055.81 645.365,1066.03 655.777,1081.59 666.19,1101.98 676.603,1126.54 687.016,1154.47 697.429,1184.85 707.842,1216.69 718.254,1248.95 728.667,1280.59 739.08,1310.56 749.493,1337.89 759.906,1361.69 770.319,1381.18 780.731,1395.73 791.144,1404.86 801.557,1408.27 811.97,1405.84 822.383,1397.67 832.796,1384.02 843.208,1365.33 853.621,1342.21 864.034,1315.41 874.447,1285.82 884.86,1254.4 895.273,1222.17 905.685,1190.18 916.098,1159.48 926.511,1131.07 936.924,1105.88 947.337,1084.73 957.749,1068.31 968.162,1057.16 978.575,1051.63 988.988,1051.92 999.401,1058.01 1009.81,1069.7 1020.23,1086.61 1030.64,1108.19 1041.05,1133.73 1051.46,1162.41 1061.88,1193.28 1072.29,1225.33 1082.7,1257.53 1093.12,1288.82 1103.53,1318.18 1113.94,1344.65 1124.35,1367.37 1134.77,1385.59 1145.18,1398.72 1155.59,1406.34 1166.01,1408.19 1176.42,1404.21 1186.83,1394.54 1197.24,1379.48 1207.66,1359.54 1218.07,1335.35 1228.48,1307.72 1238.9,1277.54 1249.31,1245.8 1259.72,335.247 1270.13,333.771 1280.55,335.115 1290.96,339.587 1301.37,345.817 1311.79,351.174 1322.2,352.76 1332.61,348.639 1343.02,338.814 1353.44,325.57 1363.85,312.967 1374.26,305.604 1384.68,307.017 1395.09,318.25 1405.5,337.144 1415.91,358.648 1426.33,376.158 1436.74,383.544 1447.15,377.222 1457.57,357.603 1467.98,329.385 1478.39,300.467 1488.8,279.741 1499.22,274.371 1509.63,287.387 1520.04,316.385 1530.45,353.835 1540.87,389.015 1551.28,411.079 1561.69,412.386 1572.11,391.07 1582.52,352.004 1592.93,305.761 1603.34,265.761 1613.76,244.378 1624.17,249.132 1634.58,280.133 1645,329.623 1655.41,383.877 1665.82,427.003 1676.23,445.597 1686.65,432.882 1697.06,391.072 1707.47,331.147 1717.89,269.994 1728.3,225.654 1738.71,211.998 1749.12,234.421 1759.54,287.868 1769.95,357.884 1780.36,424.513 1790.78,467.983 1801.19,474.568 1811.6,440.885 1822.01,375.299 1832.43,295.893 1842.84,225.493 1853.25,185.106 1863.67,187.659 1874.08,233.908 1884.49,311.788 1894.9,399.532 1905.32,471.747 1915.73,506.764 1926.14,493.128 1936.56,433.29 1946.97,343.323 1957.38,248.629 1967.79,176.765 1978.21,149.429 1988.62,175.92 1999.03,250.054 2009.45,351.528 2019.86,451.47 2030.27,520.649 2040.68,538.025 2051.1,497.128 2061.51,408.34 2071.92,296.308 2082.33,193.108 2092.75,129.065 2103.16,123.84 2113.57,180.428 2123.99,283.859 2134.4,405.135 2144.81,509.352 2155.22,565.745 2165.64,556.766 2176.05,483.511 2186.46,365.832 2196.88,236.975 2207.29,134.193 2217.7,87.9763 2228.11,113.014 2238.53,203.569 2248.94,334.711 2259.35,469.159 2269.77,567.891 2280.18,601.453 2290.59,558.746 "/>
<path clip-path="url(#clip380)" d="M229.49 250.738 L675.966 250.738 L675.966 95.2176 L229.49 95.2176  Z" fill="#ffffff" fill-rule="evenodd" fill-opacity="1"/>
<polyline clip-path="url(#clip380)" style="stroke:#000000; stroke-linecap:round; stroke-linejoin:round; stroke-width:4; stroke-opacity:1; fill:none" points="229.49,250.738 675.966,250.738 675.966,95.2176 229.49,95.2176 229.49,250.738 "/>
<polyline clip-path="url(#clip380)" style="stroke:#009af9; stroke-linecap:round; stroke-linejoin:round; stroke-width:16; stroke-opacity:1; fill:none" stroke-dasharray="8, 16" points="253.896,147.058 400.328,147.058 "/>
<path clip-path="url(#clip380)" d="M429.409 133.62 L429.409 146.606 L435.289 146.606 Q438.552 146.606 440.335 144.916 Q442.117 143.227 442.117 140.102 Q442.117 137 440.335 135.31 Q438.552 133.62 435.289 133.62 L429.409 133.62 M424.733 129.778 L435.289 129.778 Q441.099 129.778 444.062 132.416 Q447.048 135.032 447.048 140.102 Q447.048 145.217 444.062 147.833 Q441.099 150.449 435.289 150.449 L429.409 150.449 L429.409 164.338 L424.733 164.338 L424.733 129.778 Z" fill="#000000" fill-rule="nonzero" fill-opacity="1" /><path clip-path="url(#clip380)" d="M467.325 142.393 Q466.608 141.977 465.751 141.791 Q464.918 141.583 463.899 141.583 Q460.288 141.583 458.344 143.944 Q456.423 146.282 456.423 150.68 L456.423 164.338 L452.14 164.338 L452.14 138.412 L456.423 138.412 L456.423 142.44 Q457.765 140.078 459.918 138.944 Q462.071 137.787 465.149 137.787 Q465.589 137.787 466.122 137.856 Q466.654 137.903 467.302 138.018 L467.325 142.393 Z" fill="#000000" fill-rule="nonzero" fill-opacity="1" /><path clip-path="url(#clip380)" d="M492.927 150.31 L492.927 152.393 L473.344 152.393 Q473.622 156.791 475.983 159.106 Q478.367 161.398 482.603 161.398 Q485.057 161.398 487.348 160.796 Q489.663 160.194 491.932 158.99 L491.932 163.018 Q489.64 163.99 487.233 164.5 Q484.825 165.009 482.348 165.009 Q476.145 165.009 472.511 161.398 Q468.899 157.787 468.899 151.629 Q468.899 145.264 472.325 141.537 Q475.774 137.787 481.608 137.787 Q486.839 137.787 489.872 141.166 Q492.927 144.523 492.927 150.31 M488.668 149.06 Q488.622 145.565 486.7 143.481 Q484.802 141.398 481.654 141.398 Q478.089 141.398 475.936 143.412 Q473.807 145.426 473.483 149.083 L488.668 149.06 Z" fill="#000000" fill-rule="nonzero" fill-opacity="1" /><path clip-path="url(#clip380)" d="M516.978 142.347 L516.978 128.319 L521.237 128.319 L521.237 164.338 L516.978 164.338 L516.978 160.449 Q515.635 162.763 513.575 163.898 Q511.538 165.009 508.668 165.009 Q503.969 165.009 501.006 161.259 Q498.066 157.509 498.066 151.398 Q498.066 145.287 501.006 141.537 Q503.969 137.787 508.668 137.787 Q511.538 137.787 513.575 138.921 Q515.635 140.032 516.978 142.347 M502.464 151.398 Q502.464 156.097 504.385 158.782 Q506.33 161.444 509.709 161.444 Q513.089 161.444 515.033 158.782 Q516.978 156.097 516.978 151.398 Q516.978 146.699 515.033 144.037 Q513.089 141.352 509.709 141.352 Q506.33 141.352 504.385 144.037 Q502.464 146.699 502.464 151.398 Z" fill="#000000" fill-rule="nonzero" fill-opacity="1" /><path clip-path="url(#clip380)" d="M530.01 138.412 L534.269 138.412 L534.269 164.338 L530.01 164.338 L530.01 138.412 M530.01 128.319 L534.269 128.319 L534.269 133.713 L530.01 133.713 L530.01 128.319 Z" fill="#000000" fill-rule="nonzero" fill-opacity="1" /><path clip-path="url(#clip380)" d="M561.839 139.407 L561.839 143.389 Q560.033 142.393 558.205 141.907 Q556.399 141.398 554.547 141.398 Q550.404 141.398 548.112 144.037 Q545.82 146.652 545.82 151.398 Q545.82 156.143 548.112 158.782 Q550.404 161.398 554.547 161.398 Q556.399 161.398 558.205 160.912 Q560.033 160.402 561.839 159.407 L561.839 163.342 Q560.056 164.176 558.135 164.592 Q556.237 165.009 554.084 165.009 Q548.228 165.009 544.779 161.328 Q541.33 157.648 541.33 151.398 Q541.33 145.055 544.802 141.421 Q548.297 137.787 554.362 137.787 Q556.33 137.787 558.205 138.203 Q560.08 138.597 561.839 139.407 Z" fill="#000000" fill-rule="nonzero" fill-opacity="1" /><path clip-path="url(#clip380)" d="M573.459 131.051 L573.459 138.412 L582.232 138.412 L582.232 141.722 L573.459 141.722 L573.459 155.796 Q573.459 158.967 574.316 159.87 Q575.195 160.773 577.857 160.773 L582.232 160.773 L582.232 164.338 L577.857 164.338 Q572.927 164.338 571.052 162.509 Q569.177 160.657 569.177 155.796 L569.177 141.722 L566.052 141.722 L566.052 138.412 L569.177 138.412 L569.177 131.051 L573.459 131.051 Z" fill="#000000" fill-rule="nonzero" fill-opacity="1" /><path clip-path="url(#clip380)" d="M587.834 138.412 L592.093 138.412 L592.093 164.338 L587.834 164.338 L587.834 138.412 M587.834 128.319 L592.093 128.319 L592.093 133.713 L587.834 133.713 L587.834 128.319 Z" fill="#000000" fill-rule="nonzero" fill-opacity="1" /><path clip-path="url(#clip380)" d="M611.051 141.398 Q607.626 141.398 605.635 144.083 Q603.644 146.745 603.644 151.398 Q603.644 156.051 605.612 158.736 Q607.602 161.398 611.051 161.398 Q614.454 161.398 616.445 158.713 Q618.436 156.027 618.436 151.398 Q618.436 146.791 616.445 144.106 Q614.454 141.398 611.051 141.398 M611.051 137.787 Q616.607 137.787 619.778 141.398 Q622.95 145.009 622.95 151.398 Q622.95 157.764 619.778 161.398 Q616.607 165.009 611.051 165.009 Q605.473 165.009 602.302 161.398 Q599.153 157.764 599.153 151.398 Q599.153 145.009 602.302 141.398 Q605.473 137.787 611.051 137.787 Z" fill="#000000" fill-rule="nonzero" fill-opacity="1" /><path clip-path="url(#clip380)" d="M651.561 148.689 L651.561 164.338 L647.301 164.338 L647.301 148.828 Q647.301 145.148 645.866 143.319 Q644.431 141.49 641.561 141.49 Q638.112 141.49 636.121 143.69 Q634.13 145.889 634.13 149.685 L634.13 164.338 L629.848 164.338 L629.848 138.412 L634.13 138.412 L634.13 142.44 Q635.658 140.102 637.718 138.944 Q639.801 137.787 642.51 137.787 Q646.977 137.787 649.269 140.565 Q651.561 143.319 651.561 148.689 Z" fill="#000000" fill-rule="nonzero" fill-opacity="1" /><polyline clip-path="url(#clip380)" style="stroke:#e26f46; stroke-linecap:round; stroke-linejoin:round; stroke-width:4; stroke-opacity:1; fill:none" points="253.896,198.898 400.328,198.898 "/>
<path clip-path="url(#clip380)" d="M424.733 181.618 L446.585 181.618 L446.585 185.553 L429.409 185.553 L429.409 195.784 L445.867 195.784 L445.867 199.719 L429.409 199.719 L429.409 212.242 L447.001 212.242 L447.001 216.178 L424.733 216.178 L424.733 181.618 Z" fill="#000000" fill-rule="nonzero" fill-opacity="1" /><path clip-path="url(#clip380)" d="M476.052 190.252 L466.677 202.867 L476.538 216.178 L471.515 216.178 L463.969 205.992 L456.423 216.178 L451.4 216.178 L461.469 202.613 L452.256 190.252 L457.279 190.252 L464.154 199.488 L471.029 190.252 L476.052 190.252 Z" fill="#000000" fill-rule="nonzero" fill-opacity="1" /><path clip-path="url(#clip380)" d="M494.339 203.145 Q489.177 203.145 487.186 204.326 Q485.196 205.506 485.196 208.354 Q485.196 210.622 486.677 211.965 Q488.182 213.284 490.751 213.284 Q494.293 213.284 496.422 210.784 Q498.575 208.261 498.575 204.094 L498.575 203.145 L494.339 203.145 M502.834 201.386 L502.834 216.178 L498.575 216.178 L498.575 212.242 Q497.117 214.603 494.941 215.738 Q492.765 216.849 489.617 216.849 Q485.635 216.849 483.274 214.627 Q480.936 212.381 480.936 208.631 Q480.936 204.256 483.853 202.034 Q486.793 199.812 492.603 199.812 L498.575 199.812 L498.575 199.395 Q498.575 196.455 496.631 194.858 Q494.71 193.238 491.214 193.238 Q488.992 193.238 486.885 193.77 Q484.779 194.303 482.835 195.367 L482.835 191.432 Q485.173 190.53 487.372 190.09 Q489.571 189.627 491.654 189.627 Q497.279 189.627 500.057 192.543 Q502.834 195.46 502.834 201.386 Z" fill="#000000" fill-rule="nonzero" fill-opacity="1" /><path clip-path="url(#clip380)" d="M530.265 191.247 L530.265 195.229 Q528.459 194.233 526.631 193.747 Q524.825 193.238 522.973 193.238 Q518.83 193.238 516.538 195.877 Q514.246 198.492 514.246 203.238 Q514.246 207.983 516.538 210.622 Q518.83 213.238 522.973 213.238 Q524.825 213.238 526.631 212.752 Q528.459 212.242 530.265 211.247 L530.265 215.182 Q528.482 216.016 526.561 216.432 Q524.663 216.849 522.51 216.849 Q516.654 216.849 513.205 213.168 Q509.756 209.488 509.756 203.238 Q509.756 196.895 513.228 193.261 Q516.723 189.627 522.788 189.627 Q524.756 189.627 526.631 190.043 Q528.506 190.437 530.265 191.247 Z" fill="#000000" fill-rule="nonzero" fill-opacity="1" /><path clip-path="url(#clip380)" d="M541.885 182.891 L541.885 190.252 L550.658 190.252 L550.658 193.562 L541.885 193.562 L541.885 207.636 Q541.885 210.807 542.742 211.71 Q543.621 212.613 546.283 212.613 L550.658 212.613 L550.658 216.178 L546.283 216.178 Q541.353 216.178 539.478 214.349 Q537.603 212.497 537.603 207.636 L537.603 193.562 L534.478 193.562 L534.478 190.252 L537.603 190.252 L537.603 182.891 L541.885 182.891 Z" fill="#000000" fill-rule="nonzero" fill-opacity="1" /></svg>
