<?xml version="1.0" encoding="utf-8"?>
<svg xmlns="http://www.w3.org/2000/svg" xmlns:xlink="http://www.w3.org/1999/xlink" width="600" height="400" viewBox="0 0 2400 1600">
<defs>
  <clipPath id="clip060">
    <rect x="0" y="0" width="2400" height="1600"/>
  </clipPath>
</defs>
<path clip-path="url(#clip060)" d="M0 1600 L2400 1600 L2400 0 L0 0  Z" fill="#ffffff" fill-rule="evenodd" fill-opacity="1"/>
<defs>
  <clipPath id="clip061">
    <rect x="480" y="0" width="1681" height="1600"/>
  </clipPath>
</defs>
<path clip-path="url(#clip060)" d="M156.274 1486.45 L2352.76 1486.45 L2352.76 47.2441 L156.274 47.2441  Z" fill="#ffffff" fill-rule="evenodd" fill-opacity="1"/>
<defs>
  <clipPath id="clip062">
    <rect x="156" y="47" width="2197" height="1440"/>
  </clipPath>
</defs>
<polyline clip-path="url(#clip062)" style="stroke:#000000; stroke-linecap:round; stroke-linejoin:round; stroke-width:2; stroke-opacity:0.1; fill:none" points="218.439,1486.45 218.439,47.2441 "/>
<polyline clip-path="url(#clip062)" style="stroke:#000000; stroke-linecap:round; stroke-linejoin:round; stroke-width:2; stroke-opacity:0.1; fill:none" points="736.477,1486.45 736.477,47.2441 "/>
<polyline clip-path="url(#clip062)" style="stroke:#000000; stroke-linecap:round; stroke-linejoin:round; stroke-width:2; stroke-opacity:0.1; fill:none" points="1254.52,1486.45 1254.52,47.2441 "/>
<polyline clip-path="url(#clip062)" style="stroke:#000000; stroke-linecap:round; stroke-linejoin:round; stroke-width:2; stroke-opacity:0.1; fill:none" points="1772.55,1486.45 1772.55,47.2441 "/>
<polyline clip-path="url(#clip062)" style="stroke:#000000; stroke-linecap:round; stroke-linejoin:round; stroke-width:2; stroke-opacity:0.1; fill:none" points="2290.59,1486.45 2290.59,47.2441 "/>
<polyline clip-path="url(#clip060)" style="stroke:#000000; stroke-linecap:round; stroke-linejoin:round; stroke-width:4; stroke-opacity:1; fill:none" points="156.274,1486.45 2352.76,1486.45 "/>
<polyline clip-path="url(#clip060)" style="stroke:#000000; stroke-linecap:round; stroke-linejoin:round; stroke-width:4; stroke-opacity:1; fill:none" points="218.439,1486.45 218.439,1467.55 "/>
<polyline clip-path="url(#clip060)" style="stroke:#000000; stroke-linecap:round; stroke-linejoin:round; stroke-width:4; stroke-opacity:1; fill:none" points="736.477,1486.45 736.477,1467.55 "/>
<polyline clip-path="url(#clip060)" style="stroke:#000000; stroke-linecap:round; stroke-linejoin:round; stroke-width:4; stroke-opacity:1; fill:none" points="1254.52,1486.45 1254.52,1467.55 "/>
<polyline clip-path="url(#clip060)" style="stroke:#000000; stroke-linecap:round; stroke-linejoin:round; stroke-width:4; stroke-opacity:1; fill:none" points="1772.55,1486.45 1772.55,1467.55 "/>
<polyline clip-path="url(#clip060)" style="stroke:#000000; stroke-linecap:round; stroke-linejoin:round; stroke-width:4; stroke-opacity:1; fill:none" points="2290.59,1486.45 2290.59,1467.55 "/>
<path clip-path="url(#clip060)" d="M164.967 1532.02 L194.643 1532.02 L194.643 1535.95 L164.967 1535.95 L164.967 1532.02 Z" fill="#000000" fill-rule="nonzero" fill-opacity="1" /><path clip-path="url(#clip060)" d="M205.545 1544.91 L213.184 1544.91 L213.184 1518.55 L204.874 1520.21 L204.874 1515.95 L213.138 1514.29 L217.814 1514.29 L217.814 1544.91 L225.453 1544.91 L225.453 1548.85 L205.545 1548.85 L205.545 1544.91 Z" fill="#000000" fill-rule="nonzero" fill-opacity="1" /><path clip-path="url(#clip060)" d="M234.897 1542.97 L239.781 1542.97 L239.781 1548.85 L234.897 1548.85 L234.897 1542.97 Z" fill="#000000" fill-rule="nonzero" fill-opacity="1" /><path clip-path="url(#clip060)" d="M259.966 1517.37 Q256.355 1517.37 254.527 1520.93 Q252.721 1524.47 252.721 1531.6 Q252.721 1538.71 254.527 1542.27 Q256.355 1545.82 259.966 1545.82 Q263.601 1545.82 265.406 1542.27 Q267.235 1538.71 267.235 1531.6 Q267.235 1524.47 265.406 1520.93 Q263.601 1517.37 259.966 1517.37 M259.966 1513.66 Q265.776 1513.66 268.832 1518.27 Q271.911 1522.85 271.911 1531.6 Q271.911 1540.33 268.832 1544.94 Q265.776 1549.52 259.966 1549.52 Q254.156 1549.52 251.077 1544.94 Q248.022 1540.33 248.022 1531.6 Q248.022 1522.85 251.077 1518.27 Q254.156 1513.66 259.966 1513.66 Z" fill="#000000" fill-rule="nonzero" fill-opacity="1" /><path clip-path="url(#clip060)" d="M683.503 1532.02 L713.178 1532.02 L713.178 1535.95 L683.503 1535.95 L683.503 1532.02 Z" fill="#000000" fill-rule="nonzero" fill-opacity="1" /><path clip-path="url(#clip060)" d="M733.271 1517.37 Q729.66 1517.37 727.831 1520.93 Q726.026 1524.47 726.026 1531.6 Q726.026 1538.71 727.831 1542.27 Q729.66 1545.82 733.271 1545.82 Q736.905 1545.82 738.711 1542.27 Q740.539 1538.71 740.539 1531.6 Q740.539 1524.47 738.711 1520.93 Q736.905 1517.37 733.271 1517.37 M733.271 1513.66 Q739.081 1513.66 742.137 1518.27 Q745.215 1522.85 745.215 1531.6 Q745.215 1540.33 742.137 1544.94 Q739.081 1549.52 733.271 1549.52 Q727.461 1549.52 724.382 1544.94 Q721.327 1540.33 721.327 1531.6 Q721.327 1522.85 724.382 1518.27 Q727.461 1513.66 733.271 1513.66 Z" fill="#000000" fill-rule="nonzero" fill-opacity="1" /><path clip-path="url(#clip060)" d="M753.433 1542.97 L758.317 1542.97 L758.317 1548.85 L753.433 1548.85 L753.433 1542.97 Z" fill="#000000" fill-rule="nonzero" fill-opacity="1" /><path clip-path="url(#clip060)" d="M768.548 1514.29 L786.905 1514.29 L786.905 1518.22 L772.831 1518.22 L772.831 1526.7 Q773.849 1526.35 774.868 1526.19 Q775.886 1526 776.905 1526 Q782.692 1526 786.072 1529.17 Q789.451 1532.34 789.451 1537.76 Q789.451 1543.34 785.979 1546.44 Q782.507 1549.52 776.187 1549.52 Q774.011 1549.52 771.743 1549.15 Q769.498 1548.78 767.09 1548.04 L767.09 1543.34 Q769.173 1544.47 771.396 1545.03 Q773.618 1545.58 776.095 1545.58 Q780.099 1545.58 782.437 1543.48 Q784.775 1541.37 784.775 1537.76 Q784.775 1534.15 782.437 1532.04 Q780.099 1529.94 776.095 1529.94 Q774.22 1529.94 772.345 1530.35 Q770.493 1530.77 768.548 1531.65 L768.548 1514.29 Z" fill="#000000" fill-rule="nonzero" fill-opacity="1" /><path clip-path="url(#clip060)" d="M1231.9 1517.37 Q1228.29 1517.37 1226.46 1520.93 Q1224.65 1524.47 1224.65 1531.6 Q1224.65 1538.71 1226.46 1542.27 Q1228.29 1545.82 1231.9 1545.82 Q1235.53 1545.82 1237.34 1542.27 Q1239.17 1538.71 1239.17 1531.6 Q1239.17 1524.47 1237.34 1520.93 Q1235.53 1517.37 1231.9 1517.37 M1231.9 1513.66 Q1237.71 1513.66 1240.77 1518.27 Q1243.84 1522.85 1243.84 1531.6 Q1243.84 1540.33 1240.77 1544.94 Q1237.71 1549.52 1231.9 1549.52 Q1226.09 1549.52 1223.01 1544.94 Q1219.96 1540.33 1219.96 1531.6 Q1219.96 1522.85 1223.01 1518.27 Q1226.09 1513.66 1231.9 1513.66 Z" fill="#000000" fill-rule="nonzero" fill-opacity="1" /><path clip-path="url(#clip060)" d="M1252.06 1542.97 L1256.95 1542.97 L1256.95 1548.85 L1252.06 1548.85 L1252.06 1542.97 Z" fill="#000000" fill-rule="nonzero" fill-opacity="1" /><path clip-path="url(#clip060)" d="M1277.13 1517.37 Q1273.52 1517.37 1271.69 1520.93 Q1269.89 1524.47 1269.89 1531.6 Q1269.89 1538.71 1271.69 1542.27 Q1273.52 1545.82 1277.13 1545.82 Q1280.76 1545.82 1282.57 1542.27 Q1284.4 1538.71 1284.4 1531.6 Q1284.4 1524.47 1282.57 1520.93 Q1280.76 1517.37 1277.13 1517.37 M1277.13 1513.66 Q1282.94 1513.66 1286 1518.27 Q1289.08 1522.85 1289.08 1531.6 Q1289.08 1540.33 1286 1544.94 Q1282.94 1549.52 1277.13 1549.52 Q1271.32 1549.52 1268.24 1544.94 Q1265.19 1540.33 1265.19 1531.6 Q1265.19 1522.85 1268.24 1518.27 Q1271.32 1513.66 1277.13 1513.66 Z" fill="#000000" fill-rule="nonzero" fill-opacity="1" /><path clip-path="url(#clip060)" d="M1750.44 1517.37 Q1746.82 1517.37 1745 1520.93 Q1743.19 1524.47 1743.19 1531.6 Q1743.19 1538.71 1745 1542.27 Q1746.82 1545.82 1750.44 1545.82 Q1754.07 1545.82 1755.88 1542.27 Q1757.7 1538.71 1757.7 1531.6 Q1757.7 1524.47 1755.88 1520.93 Q1754.07 1517.37 1750.44 1517.37 M1750.44 1513.66 Q1756.25 1513.66 1759.3 1518.27 Q1762.38 1522.85 1762.38 1531.6 Q1762.38 1540.33 1759.3 1544.94 Q1756.25 1549.52 1750.44 1549.52 Q1744.63 1549.52 1741.55 1544.94 Q1738.49 1540.33 1738.49 1531.6 Q1738.49 1522.85 1741.55 1518.27 Q1744.63 1513.66 1750.44 1513.66 Z" fill="#000000" fill-rule="nonzero" fill-opacity="1" /><path clip-path="url(#clip060)" d="M1770.6 1542.97 L1775.48 1542.97 L1775.48 1548.85 L1770.6 1548.85 L1770.6 1542.97 Z" fill="#000000" fill-rule="nonzero" fill-opacity="1" /><path clip-path="url(#clip060)" d="M1785.71 1514.29 L1804.07 1514.29 L1804.07 1518.22 L1790 1518.22 L1790 1526.7 Q1791.01 1526.35 1792.03 1526.19 Q1793.05 1526 1794.07 1526 Q1799.86 1526 1803.24 1529.17 Q1806.62 1532.34 1806.62 1537.76 Q1806.62 1543.34 1803.14 1546.44 Q1799.67 1549.52 1793.35 1549.52 Q1791.18 1549.52 1788.91 1549.15 Q1786.66 1548.78 1784.25 1548.04 L1784.25 1543.34 Q1786.34 1544.47 1788.56 1545.03 Q1790.78 1545.58 1793.26 1545.58 Q1797.26 1545.58 1799.6 1543.48 Q1801.94 1541.37 1801.94 1537.76 Q1801.94 1534.15 1799.6 1532.04 Q1797.26 1529.94 1793.26 1529.94 Q1791.38 1529.94 1789.51 1530.35 Q1787.66 1530.77 1785.71 1531.65 L1785.71 1514.29 Z" fill="#000000" fill-rule="nonzero" fill-opacity="1" /><path clip-path="url(#clip060)" d="M2257.74 1544.91 L2265.38 1544.91 L2265.38 1518.55 L2257.07 1520.21 L2257.07 1515.95 L2265.34 1514.29 L2270.01 1514.29 L2270.01 1544.91 L2277.65 1544.91 L2277.65 1548.85 L2257.74 1548.85 L2257.74 1544.91 Z" fill="#000000" fill-rule="nonzero" fill-opacity="1" /><path clip-path="url(#clip060)" d="M2287.1 1542.97 L2291.98 1542.97 L2291.98 1548.85 L2287.1 1548.85 L2287.1 1542.97 Z" fill="#000000" fill-rule="nonzero" fill-opacity="1" /><path clip-path="url(#clip060)" d="M2312.17 1517.37 Q2308.55 1517.37 2306.73 1520.93 Q2304.92 1524.47 2304.92 1531.6 Q2304.92 1538.71 2306.73 1542.27 Q2308.55 1545.82 2312.17 1545.82 Q2315.8 1545.82 2317.61 1542.27 Q2319.43 1538.71 2319.43 1531.6 Q2319.43 1524.47 2317.61 1520.93 Q2315.8 1517.37 2312.17 1517.37 M2312.17 1513.66 Q2317.98 1513.66 2321.03 1518.27 Q2324.11 1522.85 2324.11 1531.6 Q2324.11 1540.33 2321.03 1544.94 Q2317.98 1549.52 2312.17 1549.52 Q2306.36 1549.52 2303.28 1544.94 Q2300.22 1540.33 2300.22 1531.6 Q2300.22 1522.85 2303.28 1518.27 Q2306.36 1513.66 2312.17 1513.66 Z" fill="#000000" fill-rule="nonzero" fill-opacity="1" /><polyline clip-path="url(#clip062)" style="stroke:#000000; stroke-linecap:round; stroke-linejoin:round; stroke-width:2; stroke-opacity:0.1; fill:none" points="156.274,1247.85 2352.76,1247.85 "/>
<polyline clip-path="url(#clip062)" style="stroke:#000000; stroke-linecap:round; stroke-linejoin:round; stroke-width:2; stroke-opacity:0.1; fill:none" points="156.274,979.125 2352.76,979.125 "/>
<polyline clip-path="url(#clip062)" style="stroke:#000000; stroke-linecap:round; stroke-linejoin:round; stroke-width:2; stroke-opacity:0.1; fill:none" points="156.274,710.399 2352.76,710.399 "/>
<polyline clip-path="url(#clip062)" style="stroke:#000000; stroke-linecap:round; stroke-linejoin:round; stroke-width:2; stroke-opacity:0.1; fill:none" points="156.274,441.672 2352.76,441.672 "/>
<polyline clip-path="url(#clip062)" style="stroke:#000000; stroke-linecap:round; stroke-linejoin:round; stroke-width:2; stroke-opacity:0.1; fill:none" points="156.274,172.946 2352.76,172.946 "/>
<polyline clip-path="url(#clip060)" style="stroke:#000000; stroke-linecap:round; stroke-linejoin:round; stroke-width:4; stroke-opacity:1; fill:none" points="156.274,1486.45 156.274,47.2441 "/>
<polyline clip-path="url(#clip060)" style="stroke:#000000; stroke-linecap:round; stroke-linejoin:round; stroke-width:4; stroke-opacity:1; fill:none" points="156.274,1247.85 175.172,1247.85 "/>
<polyline clip-path="url(#clip060)" style="stroke:#000000; stroke-linecap:round; stroke-linejoin:round; stroke-width:4; stroke-opacity:1; fill:none" points="156.274,979.125 175.172,979.125 "/>
<polyline clip-path="url(#clip060)" style="stroke:#000000; stroke-linecap:round; stroke-linejoin:round; stroke-width:4; stroke-opacity:1; fill:none" points="156.274,710.399 175.172,710.399 "/>
<polyline clip-path="url(#clip060)" style="stroke:#000000; stroke-linecap:round; stroke-linejoin:round; stroke-width:4; stroke-opacity:1; fill:none" points="156.274,441.672 175.172,441.672 "/>
<polyline clip-path="url(#clip060)" style="stroke:#000000; stroke-linecap:round; stroke-linejoin:round; stroke-width:4; stroke-opacity:1; fill:none" points="156.274,172.946 175.172,172.946 "/>
<path clip-path="url(#clip060)" d="M63.0985 1233.65 Q59.4875 1233.65 57.6588 1237.22 Q55.8532 1240.76 55.8532 1247.89 Q55.8532 1254.99 57.6588 1258.56 Q59.4875 1262.1 63.0985 1262.1 Q66.7328 1262.1 68.5383 1258.56 Q70.367 1254.99 70.367 1247.89 Q70.367 1240.76 68.5383 1237.22 Q66.7328 1233.65 63.0985 1233.65 M63.0985 1229.95 Q68.9087 1229.95 71.9642 1234.55 Q75.0429 1239.14 75.0429 1247.89 Q75.0429 1256.61 71.9642 1261.22 Q68.9087 1265.8 63.0985 1265.8 Q57.2884 1265.8 54.2097 1261.22 Q51.1542 1256.61 51.1542 1247.89 Q51.1542 1239.14 54.2097 1234.55 Q57.2884 1229.95 63.0985 1229.95 Z" fill="#000000" fill-rule="nonzero" fill-opacity="1" /><path clip-path="url(#clip060)" d="M83.2605 1259.25 L88.1447 1259.25 L88.1447 1265.13 L83.2605 1265.13 L83.2605 1259.25 Z" fill="#000000" fill-rule="nonzero" fill-opacity="1" /><path clip-path="url(#clip060)" d="M108.33 1233.65 Q104.719 1233.65 102.89 1237.22 Q101.084 1240.76 101.084 1247.89 Q101.084 1254.99 102.89 1258.56 Q104.719 1262.1 108.33 1262.1 Q111.964 1262.1 113.77 1258.56 Q115.598 1254.99 115.598 1247.89 Q115.598 1240.76 113.77 1237.22 Q111.964 1233.65 108.33 1233.65 M108.33 1229.95 Q114.14 1229.95 117.195 1234.55 Q120.274 1239.14 120.274 1247.89 Q120.274 1256.61 117.195 1261.22 Q114.14 1265.8 108.33 1265.8 Q102.52 1265.8 99.4409 1261.22 Q96.3854 1256.61 96.3854 1247.89 Q96.3854 1239.14 99.4409 1234.55 Q102.52 1229.95 108.33 1229.95 Z" fill="#000000" fill-rule="nonzero" fill-opacity="1" /><path clip-path="url(#clip060)" d="M63.7467 964.924 Q60.1356 964.924 58.3069 968.489 Q56.5014 972.03 56.5014 979.16 Q56.5014 986.266 58.3069 989.831 Q60.1356 993.373 63.7467 993.373 Q67.3809 993.373 69.1865 989.831 Q71.0152 986.266 71.0152 979.16 Q71.0152 972.03 69.1865 968.489 Q67.3809 964.924 63.7467 964.924 M63.7467 961.22 Q69.5568 961.22 72.6124 965.827 Q75.6911 970.41 75.6911 979.16 Q75.6911 987.887 72.6124 992.493 Q69.5568 997.076 63.7467 997.076 Q57.9365 997.076 54.8578 992.493 Q51.8023 987.887 51.8023 979.16 Q51.8023 970.41 54.8578 965.827 Q57.9365 961.22 63.7467 961.22 Z" fill="#000000" fill-rule="nonzero" fill-opacity="1" /><path clip-path="url(#clip060)" d="M83.9086 990.526 L88.7928 990.526 L88.7928 996.405 L83.9086 996.405 L83.9086 990.526 Z" fill="#000000" fill-rule="nonzero" fill-opacity="1" /><path clip-path="url(#clip060)" d="M113.145 977.771 Q116.501 978.489 118.376 980.757 Q120.274 983.026 120.274 986.359 Q120.274 991.475 116.756 994.276 Q113.237 997.076 106.756 997.076 Q104.58 997.076 102.265 996.637 Q99.9733 996.22 97.5197 995.363 L97.5197 990.85 Q99.4641 991.984 101.779 992.563 Q104.094 993.141 106.617 993.141 Q111.015 993.141 113.307 991.405 Q115.621 989.669 115.621 986.359 Q115.621 983.303 113.469 981.59 Q111.339 979.854 107.52 979.854 L103.492 979.854 L103.492 976.012 L107.705 976.012 Q111.154 976.012 112.983 974.646 Q114.811 973.257 114.811 970.665 Q114.811 968.003 112.913 966.59 Q111.038 965.155 107.52 965.155 Q105.598 965.155 103.399 965.572 Q101.2 965.989 98.5613 966.868 L98.5613 962.702 Q101.223 961.961 103.538 961.591 Q105.876 961.22 107.936 961.22 Q113.26 961.22 116.362 963.651 Q119.464 966.058 119.464 970.178 Q119.464 973.049 117.82 975.04 Q116.177 977.007 113.145 977.771 Z" fill="#000000" fill-rule="nonzero" fill-opacity="1" /><path clip-path="url(#clip060)" d="M62.9365 696.197 Q59.3254 696.197 57.4967 699.762 Q55.6912 703.304 55.6912 710.433 Q55.6912 717.54 57.4967 721.105 Q59.3254 724.646 62.9365 724.646 Q66.5707 724.646 68.3763 721.105 Q70.205 717.54 70.205 710.433 Q70.205 703.304 68.3763 699.762 Q66.5707 696.197 62.9365 696.197 M62.9365 692.494 Q68.7467 692.494 71.8022 697.1 Q74.8809 701.683 74.8809 710.433 Q74.8809 719.16 71.8022 723.767 Q68.7467 728.35 62.9365 728.35 Q57.1264 728.35 54.0477 723.767 Q50.9921 719.16 50.9921 710.433 Q50.9921 701.683 54.0477 697.1 Q57.1264 692.494 62.9365 692.494 Z" fill="#000000" fill-rule="nonzero" fill-opacity="1" /><path clip-path="url(#clip060)" d="M83.0984 721.799 L87.9827 721.799 L87.9827 727.679 L83.0984 727.679 L83.0984 721.799 Z" fill="#000000" fill-rule="nonzero" fill-opacity="1" /><path clip-path="url(#clip060)" d="M108.746 708.535 Q105.598 708.535 103.746 710.688 Q101.918 712.841 101.918 716.591 Q101.918 720.318 103.746 722.494 Q105.598 724.646 108.746 724.646 Q111.895 724.646 113.723 722.494 Q115.575 720.318 115.575 716.591 Q115.575 712.841 113.723 710.688 Q111.895 708.535 108.746 708.535 M118.029 693.883 L118.029 698.142 Q116.27 697.308 114.464 696.869 Q112.682 696.429 110.922 696.429 Q106.293 696.429 103.839 699.554 Q101.409 702.679 101.061 708.998 Q102.427 706.984 104.487 705.92 Q106.547 704.832 109.024 704.832 Q114.233 704.832 117.242 708.003 Q120.274 711.151 120.274 716.591 Q120.274 721.915 117.126 725.132 Q113.978 728.35 108.746 728.35 Q102.751 728.35 99.5798 723.767 Q96.4085 719.16 96.4085 710.433 Q96.4085 702.239 100.297 697.378 Q104.186 692.494 110.737 692.494 Q112.496 692.494 114.279 692.841 Q116.084 693.188 118.029 693.883 Z" fill="#000000" fill-rule="nonzero" fill-opacity="1" /><path clip-path="url(#clip060)" d="M63.2837 427.471 Q59.6726 427.471 57.8439 431.036 Q56.0384 434.577 56.0384 441.707 Q56.0384 448.813 57.8439 452.378 Q59.6726 455.92 63.2837 455.92 Q66.918 455.92 68.7235 452.378 Q70.5522 448.813 70.5522 441.707 Q70.5522 434.577 68.7235 431.036 Q66.918 427.471 63.2837 427.471 M63.2837 423.767 Q69.0939 423.767 72.1494 428.374 Q75.2281 432.957 75.2281 441.707 Q75.2281 450.434 72.1494 455.04 Q69.0939 459.623 63.2837 459.623 Q57.4736 459.623 54.3949 455.04 Q51.3393 450.434 51.3393 441.707 Q51.3393 432.957 54.3949 428.374 Q57.4736 423.767 63.2837 423.767 Z" fill="#000000" fill-rule="nonzero" fill-opacity="1" /><path clip-path="url(#clip060)" d="M83.4457 453.073 L88.3299 453.073 L88.3299 458.952 L83.4457 458.952 L83.4457 453.073 Z" fill="#000000" fill-rule="nonzero" fill-opacity="1" /><path clip-path="url(#clip060)" d="M98.6539 458.235 L98.6539 453.975 Q100.413 454.809 102.219 455.248 Q104.024 455.688 105.76 455.688 Q110.39 455.688 112.82 452.586 Q115.274 449.461 115.621 443.119 Q114.279 445.11 112.219 446.174 Q110.158 447.239 107.658 447.239 Q102.473 447.239 99.4409 444.114 Q96.4317 440.966 96.4317 435.526 Q96.4317 430.202 99.5798 426.985 Q102.728 423.767 107.959 423.767 Q113.955 423.767 117.103 428.374 Q120.274 432.957 120.274 441.707 Q120.274 449.878 116.385 454.762 Q112.52 459.623 105.969 459.623 Q104.209 459.623 102.404 459.276 Q100.598 458.929 98.6539 458.235 M107.959 443.582 Q111.108 443.582 112.936 441.429 Q114.788 439.276 114.788 435.526 Q114.788 431.8 112.936 429.647 Q111.108 427.471 107.959 427.471 Q104.811 427.471 102.959 429.647 Q101.131 431.8 101.131 435.526 Q101.131 439.276 102.959 441.429 Q104.811 443.582 107.959 443.582 Z" fill="#000000" fill-rule="nonzero" fill-opacity="1" /><path clip-path="url(#clip060)" d="M55.506 186.291 L63.1448 186.291 L63.1448 159.925 L54.8347 161.592 L54.8347 157.332 L63.0985 155.666 L67.7744 155.666 L67.7744 186.291 L75.4133 186.291 L75.4133 190.226 L55.506 190.226 L55.506 186.291 Z" fill="#000000" fill-rule="nonzero" fill-opacity="1" /><path clip-path="url(#clip060)" d="M84.8577 184.346 L89.7419 184.346 L89.7419 190.226 L84.8577 190.226 L84.8577 184.346 Z" fill="#000000" fill-rule="nonzero" fill-opacity="1" /><path clip-path="url(#clip060)" d="M103.955 186.291 L120.274 186.291 L120.274 190.226 L98.3298 190.226 L98.3298 186.291 Q100.992 183.536 105.575 178.906 Q110.182 174.254 111.362 172.911 Q113.608 170.388 114.487 168.652 Q115.39 166.892 115.39 165.203 Q115.39 162.448 113.445 160.712 Q111.524 158.976 108.422 158.976 Q106.223 158.976 103.77 159.74 Q101.339 160.504 98.5613 162.055 L98.5613 157.332 Q101.385 156.198 103.839 155.619 Q106.293 155.041 108.33 155.041 Q113.7 155.041 116.895 157.726 Q120.089 160.411 120.089 164.902 Q120.089 167.031 119.279 168.953 Q118.492 170.851 116.385 173.443 Q115.807 174.115 112.705 177.332 Q109.603 180.527 103.955 186.291 Z" fill="#000000" fill-rule="nonzero" fill-opacity="1" /><polyline clip-path="url(#clip062)" style="stroke:#009af9; stroke-linecap:round; stroke-linejoin:round; stroke-width:16; stroke-opacity:1; fill:none" stroke-dasharray="8, 16" points="218.439,1113.31 228.852,1094.25 239.264,1078.42 249.677,1070.91 260.09,1068.75 270.503,1068.11 280.916,1071.25 291.329,1085.07 301.741,1112.45 312.154,1147.55 322.567,1180.8 332.98,1207.08 343.393,1228.47 353.805,1250.76 364.218,1278.38 374.631,1311.64 385.044,1347 395.457,1379.18 405.87,1403.68 416.282,1418.4 426.695,1424.03 437.108,1423.16 447.521,1418.75 457.934,1412.56 468.347,1404.41 478.759,1392.35 489.172,1373.9 499.585,1347.68 509.998,1314.81 520.411,1278.73 530.824,1243.53 541.236,1211.67 551.649,1183.37 562.062,1157.8 572.475,1134.26 582.888,1112.54 593.301,1092.8 603.713,1076.08 614.126,1064.63 624.539,1061.5 634.952,1068.66 645.365,1085.02 655.777,1106.44 666.19,1128.63 676.603,1150.11 687.016,1172.51 697.429,1198.34 707.842,1228.67 718.254,1262.45 728.667,1297.28 739.08,1330.45 749.493,1359.75 759.906,1383.68 770.319,1401.51 780.731,1413.33 791.144,1420.06 801.557,1423.17 811.97,1423.79 822.383,1421.21 832.796,1412.12 843.208,1392.26 853.621,1360.75 864.034,1323.13 874.447,1288.32 884.86,1261.4 895.273,1239.74 905.685,1216.76 916.098,1188.58 926.511,1156.63 936.924,1125.31 947.337,1098.77 957.749,1079.65 968.162,1068.91 978.575,1066.19 988.988,1070.26 999.401,1079.54 1009.81,1092.74 1020.23,1109.16 1030.64,1128.66 1041.05,1151.4 1051.46,1177.49 1061.88,1206.77 1072.29,1238.69 1082.7,1272.28 1093.12,1306.22 1103.53,1338.84 1113.94,1368.23 1124.35,1392.41 1134.77,1409.56 1145.18,1418.44 1155.59,1418.98 1166.01,1413.16 1176.42,1405.84 1186.83,1404.81 1197.24,1417.24 1207.66,1439.92 1218.07,1445.72 1228.48,1381.69 1238.9,1199.42 1249.31,911.274 1259.72,611.196 1270.13,405.566 1280.55,325.785 1290.96,328.789 1301.37,355.57 1311.79,370.885 1322.2,367.422 1332.61,352.793 1343.02,336.979 1353.44,326.602 1363.85,324.239 1374.26,329.529 1384.68,340.396 1395.09,353.973 1405.5,367.255 1415.91,377.531 1426.33,382.683 1436.74,381.4 1447.15,373.359 1457.57,359.415 1467.98,341.741 1478.39,323.812 1488.8,310.052 1499.22,305.022 1509.63,312.164 1520.04,332.339 1530.45,362.543 1540.87,395.409 1551.28,420.295 1561.69,426.624 1572.11,408.824 1582.52,370.136 1592.93,322.29 1603.34,280.83 1613.76,258.864 1624.17,262.76 1634.58,291.946 1645,340.998 1655.41,399.747 1665.82,451.771 1676.23,477.189 1686.65,462.059 1697.06,407.844 1707.47,332.894 1717.89,264.251 1728.3,225.111 1738.71,225.771 1749.12,262.326 1759.54,321.383 1769.95,386.246 1780.36,441.388 1790.78,474.63 1801.19,478.021 1811.6,448.692 1822.01,390.396 1832.43,315.291 1842.84,243.837 1853.25,199.976 1863.67,201.331 1874.08,249.79 1884.49,330.155 1894.9,417.895 1905.32,488.727 1915.73,523.921 1926.14,512.54 1936.56,454.091 1946.97,361.39 1957.38,260.094 1967.79,182.067 1978.21,153.928 1988.62,186.275 1999.03,269.433 2009.45,377.506 2019.86,477.892 2030.27,541.56 2040.68,550.773 2051.1,503.281 2061.51,412.854 2071.92,305.566 2082.33,211.916 2092.75,157.387 2103.16,155.502 2113.57,205.658 2123.99,295.006 2134.4,402.174 2144.81,501.384 2155.22,566.734 2165.64,577.101 2176.05,522.224 2186.46,409.636 2196.88,268.97 2207.29,146.728 2217.7,87.9763 2228.11,114.201 2238.53,213.794 2248.94,350.406 2259.35,479.921 2269.77,566.738 2280.18,595.537 2290.59,574.902 "/>
<polyline clip-path="url(#clip062)" style="stroke:#e26f46; stroke-linecap:round; stroke-linejoin:round; stroke-width:4; stroke-opacity:1; fill:none" points="218.439,1113.31 228.852,1094.22 239.264,1080.15 249.677,1071.55 260.09,1068.7 270.503,1071.7 280.916,1080.45 291.329,1094.66 301.741,1113.88 312.154,1137.46 322.567,1164.65 332.98,1194.55 343.393,1226.19 353.805,1258.54 364.218,1290.55 374.631,1321.15 385.044,1349.37 395.457,1374.27 405.87,1395.05 416.282,1411.02 426.695,1421.66 437.108,1426.64 447.521,1425.78 457.934,1419.11 468.347,1406.85 478.759,1389.4 489.172,1367.34 499.585,1341.37 509.998,1312.35 520.411,1281.23 530.824,1249.02 541.236,1216.76 551.649,1185.53 562.062,1156.33 572.475,1130.11 582.888,1107.74 593.301,1089.94 603.713,1077.29 614.126,1070.21 624.539,1068.93 634.952,1073.49 645.365,1083.74 655.777,1099.34 666.19,1119.8 676.603,1144.43 687.016,1172.43 697.429,1202.9 707.842,1234.84 718.254,1267.2 728.667,1298.93 739.08,1328.99 749.493,1356.4 759.906,1380.27 770.319,1399.82 780.731,1414.41 791.144,1423.56 801.557,1426.98 811.97,1424.55 822.383,1416.36 832.796,1402.66 843.208,1383.92 853.621,1360.73 864.034,1333.86 874.447,1304.18 884.86,1272.66 895.273,1240.33 905.685,1208.25 916.098,1177.46 926.511,1148.97 936.924,1123.71 947.337,1102.49 957.749,1086.02 968.162,1074.84 978.575,1069.3 988.988,1069.58 999.401,1075.69 1009.81,1087.41 1020.23,1104.37 1030.64,1126.02 1041.05,1151.64 1051.46,1180.4 1061.88,1211.36 1072.29,1243.51 1082.7,1275.8 1093.12,1307.19 1103.53,1336.63 1113.94,1363.18 1124.35,1385.96 1134.77,1404.24 1145.18,1417.41 1155.59,1425.05 1166.01,1426.9 1176.42,1422.92 1186.83,1413.21 1197.24,1398.11 1207.66,1378.11 1218.07,1353.86 1228.48,1326.14 1238.9,1295.87 1249.31,1264.03 1259.72,350.796 1270.13,349.315 1280.55,350.663 1290.96,355.148 1301.37,361.397 1311.79,366.769 1322.2,368.36 1332.61,364.226 1343.02,354.373 1353.44,341.09 1363.85,328.449 1374.26,321.065 1384.68,322.482 1395.09,333.748 1405.5,352.698 1415.91,374.265 1426.33,391.827 1436.74,399.235 1447.15,392.894 1457.57,373.218 1467.98,344.916 1478.39,315.912 1488.8,295.125 1499.22,289.74 1509.63,302.794 1520.04,331.878 1530.45,369.439 1540.87,404.722 1551.28,426.851 1561.69,428.162 1572.11,406.783 1582.52,367.602 1592.93,321.223 1603.34,281.104 1613.76,259.658 1624.17,264.427 1634.58,295.519 1645,345.155 1655.41,399.569 1665.82,442.823 1676.23,461.471 1686.65,448.719 1697.06,406.785 1707.47,346.683 1717.89,285.35 1728.3,240.878 1738.71,227.182 1749.12,249.672 1759.54,303.276 1769.95,373.499 1780.36,440.325 1790.78,483.923 1801.19,490.527 1811.6,456.745 1822.01,390.966 1832.43,311.325 1842.84,240.718 1853.25,200.211 1863.67,202.772 1874.08,249.157 1884.49,327.267 1894.9,415.27 1905.32,487.698 1915.73,522.819 1926.14,509.142 1936.56,449.128 1946.97,358.896 1957.38,263.922 1967.79,191.846 1978.21,164.429 1988.62,190.998 1999.03,265.351 2009.45,367.125 2019.86,467.361 2030.27,536.745 2040.68,554.172 2051.1,513.154 2061.51,424.104 2071.92,311.741 2082.33,208.237 2092.75,144.004 2103.16,138.765 2113.57,195.519 2123.99,299.256 2134.4,420.89 2144.81,525.414 2155.22,581.974 2165.64,572.968 2176.05,499.497 2186.46,381.47 2196.88,252.233 2207.29,149.148 2217.7,102.795 2228.11,127.906 2238.53,218.729 2248.94,350.257 2259.35,485.103 2269.77,584.126 2280.18,617.787 2290.59,574.954 "/>
<path clip-path="url(#clip060)" d="M229.49 250.738 L675.966 250.738 L675.966 95.2176 L229.49 95.2176  Z" fill="#ffffff" fill-rule="evenodd" fill-opacity="1"/>
<polyline clip-path="url(#clip060)" style="stroke:#000000; stroke-linecap:round; stroke-linejoin:round; stroke-width:4; stroke-opacity:1; fill:none" points="229.49,250.738 675.966,250.738 675.966,95.2176 229.49,95.2176 229.49,250.738 "/>
<polyline clip-path="url(#clip060)" style="stroke:#009af9; stroke-linecap:round; stroke-linejoin:round; stroke-width:16; stroke-opacity:1; fill:none" stroke-dasharray="8, 16" points="253.896,147.058 400.328,147.058 "/>
<path clip-path="url(#clip060)" d="M429.409 133.62 L429.409 146.606 L435.289 146.606 Q438.552 146.606 440.335 144.916 Q442.117 143.227 442.117 140.102 Q442.117 137 440.335 135.31 Q438.552 133.62 435.289 133.62 L429.409 133.62 M424.733 129.778 L435.289 129.778 Q441.099 129.778 444.062 132.416 Q447.048 135.032 447.048 140.102 Q447.048 145.217 444.062 147.833 Q441.099 150.449 435.289 150.449 L429.409 150.449 L429.409 164.338 L424.733 164.338 L424.733 129.778 Z" fill="#000000" fill-rule="nonzero" fill-opacity="1" /><path clip-path="url(#clip060)" d="M467.325 142.393 Q466.608 141.977 465.751 141.791 Q464.918 141.583 463.899 141.583 Q460.288 141.583 458.344 143.944 Q456.423 146.282 456.423 150.68 L456.423 164.338 L452.14 164.338 L452.14 138.412 L456.423 138.412 L456.423 142.44 Q457.765 140.078 459.918 138.944 Q462.071 137.787 465.149 137.787 Q465.589 137.787 466.122 137.856 Q466.654 137.903 467.302 138.018 L467.325 142.393 Z" fill="#000000" fill-rule="nonzero" fill-opacity="1" /><path clip-path="url(#clip060)" d="M492.927 150.31 L492.927 152.393 L473.344 152.393 Q473.622 156.791 475.983 159.106 Q478.367 161.398 482.603 161.398 Q485.057 161.398 487.348 160.796 Q489.663 160.194 491.932 158.99 L491.932 163.018 Q489.64 163.99 487.233 164.5 Q484.825 165.009 482.348 165.009 Q476.145 165.009 472.511 161.398 Q468.899 157.787 468.899 151.629 Q468.899 145.264 472.325 141.537 Q475.774 137.787 481.608 137.787 Q486.839 137.787 489.872 141.166 Q492.927 144.523 492.927 150.31 M488.668 149.06 Q488.622 145.565 486.7 143.481 Q484.802 141.398 481.654 141.398 Q478.089 141.398 475.936 143.412 Q473.807 145.426 473.483 149.083 L488.668 149.06 Z" fill="#000000" fill-rule="nonzero" fill-opacity="1" /><path clip-path="url(#clip060)" d="M516.978 142.347 L516.978 128.319 L521.237 128.319 L521.237 164.338 L516.978 164.338 L516.978 160.449 Q515.635 162.763 513.575 163.898 Q511.538 165.009 508.668 165.009 Q503.969 165.009 501.006 161.259 Q498.066 157.509 498.066 151.398 Q498.066 145.287 501.006 141.537 Q503.969 137.787 508.668 137.787 Q511.538 137.787 513.575 138.921 Q515.635 140.032 516.978 142.347 M502.464 151.398 Q502.464 156.097 504.385 158.782 Q506.33 161.444 509.709 161.444 Q513.089 161.444 515.033 158.782 Q516.978 156.097 516.978 151.398 Q516.978 146.699 515.033 144.037 Q513.089 141.352 509.709 141.352 Q506.33 141.352 504.385 144.037 Q502.464 146.699 502.464 151.398 Z" fill="#000000" fill-rule="nonzero" fill-opacity="1" /><path clip-path="url(#clip060)" d="M530.01 138.412 L534.269 138.412 L534.269 164.338 L530.01 164.338 L530.01 138.412 M530.01 128.319 L534.269 128.319 L534.269 133.713 L530.01 133.713 L530.01 128.319 Z" fill="#000000" fill-rule="nonzero" fill-opacity="1" /><path clip-path="url(#clip060)" d="M561.839 139.407 L561.839 143.389 Q560.033 142.393 558.205 141.907 Q556.399 141.398 554.547 141.398 Q550.404 141.398 548.112 144.037 Q545.82 146.652 545.82 151.398 Q545.82 156.143 548.112 158.782 Q550.404 161.398 554.547 161.398 Q556.399 161.398 558.205 160.912 Q560.033 160.402 561.839 159.407 L561.839 163.342 Q560.056 164.176 558.135 164.592 Q556.237 165.009 554.084 165.009 Q548.228 165.009 544.779 161.328 Q541.33 157.648 541.33 151.398 Q541.33 145.055 544.802 141.421 Q548.297 137.787 554.362 137.787 Q556.33 137.787 558.205 138.203 Q560.08 138.597 561.839 139.407 Z" fill="#000000" fill-rule="nonzero" fill-opacity="1" /><path clip-path="url(#clip060)" d="M573.459 131.051 L573.459 138.412 L582.232 138.412 L582.232 141.722 L573.459 141.722 L573.459 155.796 Q573.459 158.967 574.316 159.87 Q575.195 160.773 577.857 160.773 L582.232 160.773 L582.232 164.338 L577.857 164.338 Q572.927 164.338 571.052 162.509 Q569.177 160.657 569.177 155.796 L569.177 141.722 L566.052 141.722 L566.052 138.412 L569.177 138.412 L569.177 131.051 L573.459 131.051 Z" fill="#000000" fill-rule="nonzero" fill-opacity="1" /><path clip-path="url(#clip060)" d="M587.834 138.412 L592.093 138.412 L592.093 164.338 L587.834 164.338 L587.834 138.412 M587.834 128.319 L592.093 128.319 L592.093 133.713 L587.834 133.713 L587.834 128.319 Z" fill="#000000" fill-rule="nonzero" fill-opacity="1" /><path clip-path="url(#clip060)" d="M611.051 141.398 Q607.626 141.398 605.635 144.083 Q603.644 146.745 603.644 151.398 Q603.644 156.051 605.612 158.736 Q607.602 161.398 611.051 161.398 Q614.454 161.398 616.445 158.713 Q618.436 156.027 618.436 151.398 Q618.436 146.791 616.445 144.106 Q614.454 141.398 611.051 141.398 M611.051 137.787 Q616.607 137.787 619.778 141.398 Q622.95 145.009 622.95 151.398 Q622.95 157.764 619.778 161.398 Q616.607 165.009 611.051 165.009 Q605.473 165.009 602.302 161.398 Q599.153 157.764 599.153 151.398 Q599.153 145.009 602.302 141.398 Q605.473 137.787 611.051 137.787 Z" fill="#000000" fill-rule="nonzero" fill-opacity="1" /><path clip-path="url(#clip060)" d="M651.561 148.689 L651.561 164.338 L647.301 164.338 L647.301 148.828 Q647.301 145.148 645.866 143.319 Q644.431 141.49 641.561 141.49 Q638.112 141.49 636.121 143.69 Q634.13 145.889 634.13 149.685 L634.13 164.338 L629.848 164.338 L629.848 138.412 L634.13 138.412 L634.13 142.44 Q635.658 140.102 637.718 138.944 Q639.801 137.787 642.51 137.787 Q646.977 137.787 649.269 140.565 Q651.561 143.319 651.561 148.689 Z" fill="#000000" fill-rule="nonzero" fill-opacity="1" /><polyline clip-path="url(#clip060)" style="stroke:#e26f46; stroke-linecap:round; stroke-linejoin:round; stroke-width:4; stroke-opacity:1; fill:none" points="253.896,198.898 400.328,198.898 "/>
<path clip-path="url(#clip060)" d="M424.733 181.618 L446.585 181.618 L446.585 185.553 L429.409 185.553 L429.409 195.784 L445.867 195.784 L445.867 199.719 L429.409 199.719 L429.409 212.242 L447.001 212.242 L447.001 216.178 L424.733 216.178 L424.733 181.618 Z" fill="#000000" fill-rule="nonzero" fill-opacity="1" /><path clip-path="url(#clip060)" d="M476.052 190.252 L466.677 202.867 L476.538 216.178 L471.515 216.178 L463.969 205.992 L456.423 216.178 L451.4 216.178 L461.469 202.613 L452.256 190.252 L457.279 190.252 L464.154 199.488 L471.029 190.252 L476.052 190.252 Z" fill="#000000" fill-rule="nonzero" fill-opacity="1" /><path clip-path="url(#clip060)" d="M494.339 203.145 Q489.177 203.145 487.186 204.326 Q485.196 205.506 485.196 208.354 Q485.196 210.622 486.677 211.965 Q488.182 213.284 490.751 213.284 Q494.293 213.284 496.422 210.784 Q498.575 208.261 498.575 204.094 L498.575 203.145 L494.339 203.145 M502.834 201.386 L502.834 216.178 L498.575 216.178 L498.575 212.242 Q497.117 214.603 494.941 215.738 Q492.765 216.849 489.617 216.849 Q485.635 216.849 483.274 214.627 Q480.936 212.381 480.936 208.631 Q480.936 204.256 483.853 202.034 Q486.793 199.812 492.603 199.812 L498.575 199.812 L498.575 199.395 Q498.575 196.455 496.631 194.858 Q494.71 193.238 491.214 193.238 Q488.992 193.238 486.885 193.77 Q484.779 194.303 482.835 195.367 L482.835 191.432 Q485.173 190.53 487.372 190.09 Q489.571 189.627 491.654 189.627 Q497.279 189.627 500.057 192.543 Q502.834 195.46 502.834 201.386 Z" fill="#000000" fill-rule="nonzero" fill-opacity="1" /><path clip-path="url(#clip060)" d="M530.265 191.247 L530.265 195.229 Q528.459 194.233 526.631 193.747 Q524.825 193.238 522.973 193.238 Q518.83 193.238 516.538 195.877 Q514.246 198.492 514.246 203.238 Q514.246 207.983 516.538 210.622 Q518.83 213.238 522.973 213.238 Q524.825 213.238 526.631 212.752 Q528.459 212.242 530.265 211.247 L530.265 215.182 Q528.482 216.016 526.561 216.432 Q524.663 216.849 522.51 216.849 Q516.654 216.849 513.205 213.168 Q509.756 209.488 509.756 203.238 Q509.756 196.895 513.228 193.261 Q516.723 189.627 522.788 189.627 Q524.756 189.627 526.631 190.043 Q528.506 190.437 530.265 191.247 Z" fill="#000000" fill-rule="nonzero" fill-opacity="1" /><path clip-path="url(#clip060)" d="M541.885 182.891 L541.885 190.252 L550.658 190.252 L550.658 193.562 L541.885 193.562 L541.885 207.636 Q541.885 210.807 542.742 211.71 Q543.621 212.613 546.283 212.613 L550.658 212.613 L550.658 216.178 L546.283 216.178 Q541.353 216.178 539.478 214.349 Q537.603 212.497 537.603 207.636 L537.603 193.562 L534.478 193.562 L534.478 190.252 L537.603 190.252 L537.603 182.891 L541.885 182.891 Z" fill="#000000" fill-rule="nonzero" fill-opacity="1" /></svg>
