<?xml version="1.0" encoding="utf-8"?>
<svg xmlns="http://www.w3.org/2000/svg" xmlns:xlink="http://www.w3.org/1999/xlink" width="600" height="400" viewBox="0 0 2400 1600">
<defs>
  <clipPath id="clip190">
    <rect x="0" y="0" width="2400" height="1600"/>
  </clipPath>
</defs>
<path clip-path="url(#clip190)" d="M0 1600 L2400 1600 L2400 0 L0 0  Z" fill="#ffffff" fill-rule="evenodd" fill-opacity="1"/>
<defs>
  <clipPath id="clip191">
    <rect x="480" y="0" width="1681" height="1600"/>
  </clipPath>
</defs>
<path clip-path="url(#clip190)" d="M192.339 1486.45 L2352.76 1486.45 L2352.76 47.2441 L192.339 47.2441  Z" fill="#ffffff" fill-rule="evenodd" fill-opacity="1"/>
<defs>
  <clipPath id="clip192">
    <rect x="192" y="47" width="2161" height="1440"/>
  </clipPath>
</defs>
<polyline clip-path="url(#clip192)" style="stroke:#000000; stroke-linecap:round; stroke-linejoin:round; stroke-width:2; stroke-opacity:0.1; fill:none" points="253.483,1486.45 253.483,47.2441 "/>
<polyline clip-path="url(#clip192)" style="stroke:#000000; stroke-linecap:round; stroke-linejoin:round; stroke-width:2; stroke-opacity:0.1; fill:none" points="763.015,1486.45 763.015,47.2441 "/>
<polyline clip-path="url(#clip192)" style="stroke:#000000; stroke-linecap:round; stroke-linejoin:round; stroke-width:2; stroke-opacity:0.1; fill:none" points="1272.55,1486.45 1272.55,47.2441 "/>
<polyline clip-path="url(#clip192)" style="stroke:#000000; stroke-linecap:round; stroke-linejoin:round; stroke-width:2; stroke-opacity:0.1; fill:none" points="1782.08,1486.45 1782.08,47.2441 "/>
<polyline clip-path="url(#clip192)" style="stroke:#000000; stroke-linecap:round; stroke-linejoin:round; stroke-width:2; stroke-opacity:0.1; fill:none" points="2291.61,1486.45 2291.61,47.2441 "/>
<polyline clip-path="url(#clip190)" style="stroke:#000000; stroke-linecap:round; stroke-linejoin:round; stroke-width:4; stroke-opacity:1; fill:none" points="192.339,1486.45 2352.76,1486.45 "/>
<polyline clip-path="url(#clip190)" style="stroke:#000000; stroke-linecap:round; stroke-linejoin:round; stroke-width:4; stroke-opacity:1; fill:none" points="253.483,1486.45 253.483,1467.55 "/>
<polyline clip-path="url(#clip190)" style="stroke:#000000; stroke-linecap:round; stroke-linejoin:round; stroke-width:4; stroke-opacity:1; fill:none" points="763.015,1486.45 763.015,1467.55 "/>
<polyline clip-path="url(#clip190)" style="stroke:#000000; stroke-linecap:round; stroke-linejoin:round; stroke-width:4; stroke-opacity:1; fill:none" points="1272.55,1486.45 1272.55,1467.55 "/>
<polyline clip-path="url(#clip190)" style="stroke:#000000; stroke-linecap:round; stroke-linejoin:round; stroke-width:4; stroke-opacity:1; fill:none" points="1782.08,1486.45 1782.08,1467.55 "/>
<polyline clip-path="url(#clip190)" style="stroke:#000000; stroke-linecap:round; stroke-linejoin:round; stroke-width:4; stroke-opacity:1; fill:none" points="2291.61,1486.45 2291.61,1467.55 "/>
<path clip-path="url(#clip190)" d="M200.011 1532.02 L229.686 1532.02 L229.686 1535.95 L200.011 1535.95 L200.011 1532.02 Z" fill="#000000" fill-rule="nonzero" fill-opacity="1" /><path clip-path="url(#clip190)" d="M240.589 1544.91 L248.228 1544.91 L248.228 1518.55 L239.918 1520.21 L239.918 1515.95 L248.182 1514.29 L252.858 1514.29 L252.858 1544.91 L260.497 1544.91 L260.497 1548.85 L240.589 1548.85 L240.589 1544.91 Z" fill="#000000" fill-rule="nonzero" fill-opacity="1" /><path clip-path="url(#clip190)" d="M269.941 1542.97 L274.825 1542.97 L274.825 1548.85 L269.941 1548.85 L269.941 1542.97 Z" fill="#000000" fill-rule="nonzero" fill-opacity="1" /><path clip-path="url(#clip190)" d="M295.01 1517.37 Q291.399 1517.37 289.57 1520.93 Q287.765 1524.47 287.765 1531.6 Q287.765 1538.71 289.57 1542.27 Q291.399 1545.82 295.01 1545.82 Q298.644 1545.82 300.45 1542.27 Q302.279 1538.71 302.279 1531.6 Q302.279 1524.47 300.45 1520.93 Q298.644 1517.37 295.01 1517.37 M295.01 1513.66 Q300.82 1513.66 303.876 1518.27 Q306.955 1522.85 306.955 1531.6 Q306.955 1540.33 303.876 1544.94 Q300.82 1549.52 295.01 1549.52 Q289.2 1549.52 286.121 1544.94 Q283.066 1540.33 283.066 1531.6 Q283.066 1522.85 286.121 1518.27 Q289.2 1513.66 295.01 1513.66 Z" fill="#000000" fill-rule="nonzero" fill-opacity="1" /><path clip-path="url(#clip190)" d="M710.041 1532.02 L739.717 1532.02 L739.717 1535.95 L710.041 1535.95 L710.041 1532.02 Z" fill="#000000" fill-rule="nonzero" fill-opacity="1" /><path clip-path="url(#clip190)" d="M759.809 1517.37 Q756.198 1517.37 754.369 1520.93 Q752.564 1524.47 752.564 1531.6 Q752.564 1538.71 754.369 1542.27 Q756.198 1545.82 759.809 1545.82 Q763.443 1545.82 765.249 1542.27 Q767.077 1538.71 767.077 1531.6 Q767.077 1524.47 765.249 1520.93 Q763.443 1517.37 759.809 1517.37 M759.809 1513.66 Q765.619 1513.66 768.675 1518.27 Q771.753 1522.85 771.753 1531.6 Q771.753 1540.33 768.675 1544.94 Q765.619 1549.52 759.809 1549.52 Q753.999 1549.52 750.92 1544.94 Q747.865 1540.33 747.865 1531.6 Q747.865 1522.85 750.92 1518.27 Q753.999 1513.66 759.809 1513.66 Z" fill="#000000" fill-rule="nonzero" fill-opacity="1" /><path clip-path="url(#clip190)" d="M779.971 1542.97 L784.855 1542.97 L784.855 1548.85 L779.971 1548.85 L779.971 1542.97 Z" fill="#000000" fill-rule="nonzero" fill-opacity="1" /><path clip-path="url(#clip190)" d="M795.087 1514.29 L813.443 1514.29 L813.443 1518.22 L799.369 1518.22 L799.369 1526.7 Q800.387 1526.35 801.406 1526.19 Q802.425 1526 803.443 1526 Q809.23 1526 812.61 1529.17 Q815.989 1532.34 815.989 1537.76 Q815.989 1543.34 812.517 1546.44 Q809.045 1549.52 802.725 1549.52 Q800.55 1549.52 798.281 1549.15 Q796.036 1548.78 793.628 1548.04 L793.628 1543.34 Q795.712 1544.47 797.934 1545.03 Q800.156 1545.58 802.633 1545.58 Q806.637 1545.58 808.975 1543.48 Q811.313 1541.37 811.313 1537.76 Q811.313 1534.15 808.975 1532.04 Q806.637 1529.94 802.633 1529.94 Q800.758 1529.94 798.883 1530.35 Q797.031 1530.77 795.087 1531.65 L795.087 1514.29 Z" fill="#000000" fill-rule="nonzero" fill-opacity="1" /><path clip-path="url(#clip190)" d="M1249.93 1517.37 Q1246.32 1517.37 1244.49 1520.93 Q1242.69 1524.47 1242.69 1531.6 Q1242.69 1538.71 1244.49 1542.27 Q1246.32 1545.82 1249.93 1545.82 Q1253.57 1545.82 1255.37 1542.27 Q1257.2 1538.71 1257.2 1531.6 Q1257.2 1524.47 1255.37 1520.93 Q1253.57 1517.37 1249.93 1517.37 M1249.93 1513.66 Q1255.74 1513.66 1258.8 1518.27 Q1261.88 1522.85 1261.88 1531.6 Q1261.88 1540.33 1258.8 1544.94 Q1255.74 1549.52 1249.93 1549.52 Q1244.12 1549.52 1241.04 1544.94 Q1237.99 1540.33 1237.99 1531.6 Q1237.99 1522.85 1241.04 1518.27 Q1244.12 1513.66 1249.93 1513.66 Z" fill="#000000" fill-rule="nonzero" fill-opacity="1" /><path clip-path="url(#clip190)" d="M1270.09 1542.97 L1274.98 1542.97 L1274.98 1548.85 L1270.09 1548.85 L1270.09 1542.97 Z" fill="#000000" fill-rule="nonzero" fill-opacity="1" /><path clip-path="url(#clip190)" d="M1295.16 1517.37 Q1291.55 1517.37 1289.72 1520.93 Q1287.92 1524.47 1287.92 1531.6 Q1287.92 1538.71 1289.72 1542.27 Q1291.55 1545.82 1295.16 1545.82 Q1298.8 1545.82 1300.6 1542.27 Q1302.43 1538.71 1302.43 1531.6 Q1302.43 1524.47 1300.6 1520.93 Q1298.8 1517.37 1295.16 1517.37 M1295.16 1513.66 Q1300.97 1513.66 1304.03 1518.27 Q1307.11 1522.85 1307.11 1531.6 Q1307.11 1540.33 1304.03 1544.94 Q1300.97 1549.52 1295.16 1549.52 Q1289.35 1549.52 1286.27 1544.94 Q1283.22 1540.33 1283.22 1531.6 Q1283.22 1522.85 1286.27 1518.27 Q1289.35 1513.66 1295.16 1513.66 Z" fill="#000000" fill-rule="nonzero" fill-opacity="1" /><path clip-path="url(#clip190)" d="M1759.96 1517.37 Q1756.35 1517.37 1754.52 1520.93 Q1752.72 1524.47 1752.72 1531.6 Q1752.72 1538.71 1754.52 1542.27 Q1756.35 1545.82 1759.96 1545.82 Q1763.6 1545.82 1765.4 1542.27 Q1767.23 1538.71 1767.23 1531.6 Q1767.23 1524.47 1765.4 1520.93 Q1763.6 1517.37 1759.96 1517.37 M1759.96 1513.66 Q1765.77 1513.66 1768.83 1518.27 Q1771.91 1522.85 1771.91 1531.6 Q1771.91 1540.33 1768.83 1544.94 Q1765.77 1549.52 1759.96 1549.52 Q1754.15 1549.52 1751.07 1544.94 Q1748.02 1540.33 1748.02 1531.6 Q1748.02 1522.85 1751.07 1518.27 Q1754.15 1513.66 1759.96 1513.66 Z" fill="#000000" fill-rule="nonzero" fill-opacity="1" /><path clip-path="url(#clip190)" d="M1780.12 1542.97 L1785.01 1542.97 L1785.01 1548.85 L1780.12 1548.85 L1780.12 1542.97 Z" fill="#000000" fill-rule="nonzero" fill-opacity="1" /><path clip-path="url(#clip190)" d="M1795.24 1514.29 L1813.6 1514.29 L1813.6 1518.22 L1799.52 1518.22 L1799.52 1526.7 Q1800.54 1526.35 1801.56 1526.19 Q1802.58 1526 1803.6 1526 Q1809.38 1526 1812.76 1529.17 Q1816.14 1532.34 1816.14 1537.76 Q1816.14 1543.34 1812.67 1546.44 Q1809.2 1549.52 1802.88 1549.52 Q1800.7 1549.52 1798.43 1549.15 Q1796.19 1548.78 1793.78 1548.04 L1793.78 1543.34 Q1795.86 1544.47 1798.09 1545.03 Q1800.31 1545.58 1802.79 1545.58 Q1806.79 1545.58 1809.13 1543.48 Q1811.47 1541.37 1811.47 1537.76 Q1811.47 1534.15 1809.13 1532.04 Q1806.79 1529.94 1802.79 1529.94 Q1800.91 1529.94 1799.04 1530.35 Q1797.18 1530.77 1795.24 1531.65 L1795.24 1514.29 Z" fill="#000000" fill-rule="nonzero" fill-opacity="1" /><path clip-path="url(#clip190)" d="M2258.76 1544.91 L2266.4 1544.91 L2266.4 1518.55 L2258.09 1520.21 L2258.09 1515.95 L2266.36 1514.29 L2271.03 1514.29 L2271.03 1544.91 L2278.67 1544.91 L2278.67 1548.85 L2258.76 1548.85 L2258.76 1544.91 Z" fill="#000000" fill-rule="nonzero" fill-opacity="1" /><path clip-path="url(#clip190)" d="M2288.12 1542.97 L2293 1542.97 L2293 1548.85 L2288.12 1548.85 L2288.12 1542.97 Z" fill="#000000" fill-rule="nonzero" fill-opacity="1" /><path clip-path="url(#clip190)" d="M2313.19 1517.37 Q2309.57 1517.37 2307.75 1520.93 Q2305.94 1524.47 2305.94 1531.6 Q2305.94 1538.71 2307.75 1542.27 Q2309.57 1545.82 2313.19 1545.82 Q2316.82 1545.82 2318.63 1542.27 Q2320.45 1538.71 2320.45 1531.6 Q2320.45 1524.47 2318.63 1520.93 Q2316.82 1517.37 2313.19 1517.37 M2313.19 1513.66 Q2319 1513.66 2322.05 1518.27 Q2325.13 1522.85 2325.13 1531.6 Q2325.13 1540.33 2322.05 1544.94 Q2319 1549.52 2313.19 1549.52 Q2307.38 1549.52 2304.3 1544.94 Q2301.24 1540.33 2301.24 1531.6 Q2301.24 1522.85 2304.3 1518.27 Q2307.38 1513.66 2313.19 1513.66 Z" fill="#000000" fill-rule="nonzero" fill-opacity="1" /><polyline clip-path="url(#clip192)" style="stroke:#000000; stroke-linecap:round; stroke-linejoin:round; stroke-width:2; stroke-opacity:0.1; fill:none" points="192.339,1337.45 2352.76,1337.45 "/>
<polyline clip-path="url(#clip192)" style="stroke:#000000; stroke-linecap:round; stroke-linejoin:round; stroke-width:2; stroke-opacity:0.1; fill:none" points="192.339,1168.41 2352.76,1168.41 "/>
<polyline clip-path="url(#clip192)" style="stroke:#000000; stroke-linecap:round; stroke-linejoin:round; stroke-width:2; stroke-opacity:0.1; fill:none" points="192.339,999.368 2352.76,999.368 "/>
<polyline clip-path="url(#clip192)" style="stroke:#000000; stroke-linecap:round; stroke-linejoin:round; stroke-width:2; stroke-opacity:0.1; fill:none" points="192.339,830.328 2352.76,830.328 "/>
<polyline clip-path="url(#clip192)" style="stroke:#000000; stroke-linecap:round; stroke-linejoin:round; stroke-width:2; stroke-opacity:0.1; fill:none" points="192.339,661.288 2352.76,661.288 "/>
<polyline clip-path="url(#clip192)" style="stroke:#000000; stroke-linecap:round; stroke-linejoin:round; stroke-width:2; stroke-opacity:0.1; fill:none" points="192.339,492.248 2352.76,492.248 "/>
<polyline clip-path="url(#clip192)" style="stroke:#000000; stroke-linecap:round; stroke-linejoin:round; stroke-width:2; stroke-opacity:0.1; fill:none" points="192.339,323.208 2352.76,323.208 "/>
<polyline clip-path="url(#clip192)" style="stroke:#000000; stroke-linecap:round; stroke-linejoin:round; stroke-width:2; stroke-opacity:0.1; fill:none" points="192.339,154.168 2352.76,154.168 "/>
<polyline clip-path="url(#clip190)" style="stroke:#000000; stroke-linecap:round; stroke-linejoin:round; stroke-width:4; stroke-opacity:1; fill:none" points="192.339,1486.45 192.339,47.2441 "/>
<polyline clip-path="url(#clip190)" style="stroke:#000000; stroke-linecap:round; stroke-linejoin:round; stroke-width:4; stroke-opacity:1; fill:none" points="192.339,1337.45 211.236,1337.45 "/>
<polyline clip-path="url(#clip190)" style="stroke:#000000; stroke-linecap:round; stroke-linejoin:round; stroke-width:4; stroke-opacity:1; fill:none" points="192.339,1168.41 211.236,1168.41 "/>
<polyline clip-path="url(#clip190)" style="stroke:#000000; stroke-linecap:round; stroke-linejoin:round; stroke-width:4; stroke-opacity:1; fill:none" points="192.339,999.368 211.236,999.368 "/>
<polyline clip-path="url(#clip190)" style="stroke:#000000; stroke-linecap:round; stroke-linejoin:round; stroke-width:4; stroke-opacity:1; fill:none" points="192.339,830.328 211.236,830.328 "/>
<polyline clip-path="url(#clip190)" style="stroke:#000000; stroke-linecap:round; stroke-linejoin:round; stroke-width:4; stroke-opacity:1; fill:none" points="192.339,661.288 211.236,661.288 "/>
<polyline clip-path="url(#clip190)" style="stroke:#000000; stroke-linecap:round; stroke-linejoin:round; stroke-width:4; stroke-opacity:1; fill:none" points="192.339,492.248 211.236,492.248 "/>
<polyline clip-path="url(#clip190)" style="stroke:#000000; stroke-linecap:round; stroke-linejoin:round; stroke-width:4; stroke-opacity:1; fill:none" points="192.339,323.208 211.236,323.208 "/>
<polyline clip-path="url(#clip190)" style="stroke:#000000; stroke-linecap:round; stroke-linejoin:round; stroke-width:4; stroke-opacity:1; fill:none" points="192.339,154.168 211.236,154.168 "/>
<path clip-path="url(#clip190)" d="M50.9921 1337.9 L80.6679 1337.9 L80.6679 1341.84 L50.9921 1341.84 L50.9921 1337.9 Z" fill="#000000" fill-rule="nonzero" fill-opacity="1" /><path clip-path="url(#clip190)" d="M100.76 1323.25 Q97.1493 1323.25 95.3206 1326.81 Q93.515 1330.35 93.515 1337.48 Q93.515 1344.59 95.3206 1348.15 Q97.1493 1351.7 100.76 1351.7 Q104.395 1351.7 106.2 1348.15 Q108.029 1344.59 108.029 1337.48 Q108.029 1330.35 106.2 1326.81 Q104.395 1323.25 100.76 1323.25 M100.76 1319.54 Q106.571 1319.54 109.626 1324.15 Q112.705 1328.73 112.705 1337.48 Q112.705 1346.21 109.626 1350.82 Q106.571 1355.4 100.76 1355.4 Q94.9502 1355.4 91.8715 1350.82 Q88.816 1346.21 88.816 1337.48 Q88.816 1328.73 91.8715 1324.15 Q94.9502 1319.54 100.76 1319.54 Z" fill="#000000" fill-rule="nonzero" fill-opacity="1" /><path clip-path="url(#clip190)" d="M120.922 1348.85 L125.807 1348.85 L125.807 1354.73 L120.922 1354.73 L120.922 1348.85 Z" fill="#000000" fill-rule="nonzero" fill-opacity="1" /><path clip-path="url(#clip190)" d="M140.019 1350.79 L156.339 1350.79 L156.339 1354.73 L134.394 1354.73 L134.394 1350.79 Q137.056 1348.04 141.64 1343.41 Q146.246 1338.76 147.427 1337.41 Q149.672 1334.89 150.552 1333.15 Q151.455 1331.4 151.455 1329.71 Q151.455 1326.95 149.51 1325.21 Q147.589 1323.48 144.487 1323.48 Q142.288 1323.48 139.834 1324.24 Q137.404 1325.01 134.626 1326.56 L134.626 1321.84 Q137.45 1320.7 139.904 1320.12 Q142.357 1319.54 144.394 1319.54 Q149.765 1319.54 152.959 1322.23 Q156.154 1324.91 156.154 1329.4 Q156.154 1331.53 155.343 1333.46 Q154.556 1335.35 152.45 1337.95 Q151.871 1338.62 148.769 1341.84 Q145.668 1345.03 140.019 1350.79 Z" fill="#000000" fill-rule="nonzero" fill-opacity="1" /><path clip-path="url(#clip190)" d="M99.1632 1154.21 Q95.5521 1154.21 93.7234 1157.77 Q91.9178 1161.31 91.9178 1168.44 Q91.9178 1175.55 93.7234 1179.11 Q95.5521 1182.66 99.1632 1182.66 Q102.797 1182.66 104.603 1179.11 Q106.432 1175.55 106.432 1168.44 Q106.432 1161.31 104.603 1157.77 Q102.797 1154.21 99.1632 1154.21 M99.1632 1150.5 Q104.973 1150.5 108.029 1155.11 Q111.108 1159.69 111.108 1168.44 Q111.108 1177.17 108.029 1181.78 Q104.973 1186.36 99.1632 1186.36 Q93.353 1186.36 90.2743 1181.78 Q87.2188 1177.17 87.2188 1168.44 Q87.2188 1159.69 90.2743 1155.11 Q93.353 1150.5 99.1632 1150.5 Z" fill="#000000" fill-rule="nonzero" fill-opacity="1" /><path clip-path="url(#clip190)" d="M119.325 1179.81 L124.209 1179.81 L124.209 1185.69 L119.325 1185.69 L119.325 1179.81 Z" fill="#000000" fill-rule="nonzero" fill-opacity="1" /><path clip-path="url(#clip190)" d="M144.394 1154.21 Q140.783 1154.21 138.955 1157.77 Q137.149 1161.31 137.149 1168.44 Q137.149 1175.55 138.955 1179.11 Q140.783 1182.66 144.394 1182.66 Q148.029 1182.66 149.834 1179.11 Q151.663 1175.55 151.663 1168.44 Q151.663 1161.31 149.834 1157.77 Q148.029 1154.21 144.394 1154.21 M144.394 1150.5 Q150.205 1150.5 153.26 1155.11 Q156.339 1159.69 156.339 1168.44 Q156.339 1177.17 153.26 1181.78 Q150.205 1186.36 144.394 1186.36 Q138.584 1186.36 135.506 1181.78 Q132.45 1177.17 132.45 1168.44 Q132.45 1159.69 135.506 1155.11 Q138.584 1150.5 144.394 1150.5 Z" fill="#000000" fill-rule="nonzero" fill-opacity="1" /><path clip-path="url(#clip190)" d="M100.76 985.167 Q97.1493 985.167 95.3206 988.732 Q93.515 992.273 93.515 999.403 Q93.515 1006.51 95.3206 1010.07 Q97.1493 1013.62 100.76 1013.62 Q104.395 1013.62 106.2 1010.07 Q108.029 1006.51 108.029 999.403 Q108.029 992.273 106.2 988.732 Q104.395 985.167 100.76 985.167 M100.76 981.463 Q106.571 981.463 109.626 986.07 Q112.705 990.653 112.705 999.403 Q112.705 1008.13 109.626 1012.74 Q106.571 1017.32 100.76 1017.32 Q94.9502 1017.32 91.8715 1012.74 Q88.816 1008.13 88.816 999.403 Q88.816 990.653 91.8715 986.07 Q94.9502 981.463 100.76 981.463 Z" fill="#000000" fill-rule="nonzero" fill-opacity="1" /><path clip-path="url(#clip190)" d="M120.922 1010.77 L125.807 1010.77 L125.807 1016.65 L120.922 1016.65 L120.922 1010.77 Z" fill="#000000" fill-rule="nonzero" fill-opacity="1" /><path clip-path="url(#clip190)" d="M140.019 1012.71 L156.339 1012.71 L156.339 1016.65 L134.394 1016.65 L134.394 1012.71 Q137.056 1009.96 141.64 1005.33 Q146.246 1000.68 147.427 999.334 Q149.672 996.811 150.552 995.074 Q151.455 993.315 151.455 991.625 Q151.455 988.871 149.51 987.135 Q147.589 985.399 144.487 985.399 Q142.288 985.399 139.834 986.162 Q137.404 986.926 134.626 988.477 L134.626 983.755 Q137.45 982.621 139.904 982.042 Q142.357 981.463 144.394 981.463 Q149.765 981.463 152.959 984.149 Q156.154 986.834 156.154 991.324 Q156.154 993.454 155.343 995.375 Q154.556 997.273 152.45 999.866 Q151.871 1000.54 148.769 1003.75 Q145.668 1006.95 140.019 1012.71 Z" fill="#000000" fill-rule="nonzero" fill-opacity="1" /><path clip-path="url(#clip190)" d="M98.6771 816.127 Q95.066 816.127 93.2373 819.692 Q91.4317 823.233 91.4317 830.363 Q91.4317 837.469 93.2373 841.034 Q95.066 844.576 98.6771 844.576 Q102.311 844.576 104.117 841.034 Q105.946 837.469 105.946 830.363 Q105.946 823.233 104.117 819.692 Q102.311 816.127 98.6771 816.127 M98.6771 812.423 Q104.487 812.423 107.543 817.03 Q110.621 821.613 110.621 830.363 Q110.621 839.09 107.543 843.696 Q104.487 848.28 98.6771 848.28 Q92.8669 848.28 89.7882 843.696 Q86.7327 839.09 86.7327 830.363 Q86.7327 821.613 89.7882 817.03 Q92.8669 812.423 98.6771 812.423 Z" fill="#000000" fill-rule="nonzero" fill-opacity="1" /><path clip-path="url(#clip190)" d="M118.839 841.729 L123.723 841.729 L123.723 847.608 L118.839 847.608 L118.839 841.729 Z" fill="#000000" fill-rule="nonzero" fill-opacity="1" /><path clip-path="url(#clip190)" d="M146.756 817.122 L134.95 835.571 L146.756 835.571 L146.756 817.122 M145.529 813.048 L151.408 813.048 L151.408 835.571 L156.339 835.571 L156.339 839.46 L151.408 839.46 L151.408 847.608 L146.756 847.608 L146.756 839.46 L131.154 839.46 L131.154 834.946 L145.529 813.048 Z" fill="#000000" fill-rule="nonzero" fill-opacity="1" /><path clip-path="url(#clip190)" d="M99.0011 647.087 Q95.39 647.087 93.5613 650.652 Q91.7558 654.193 91.7558 661.323 Q91.7558 668.429 93.5613 671.994 Q95.39 675.536 99.0011 675.536 Q102.635 675.536 104.441 671.994 Q106.27 668.429 106.27 661.323 Q106.27 654.193 104.441 650.652 Q102.635 647.087 99.0011 647.087 M99.0011 643.383 Q104.811 643.383 107.867 647.99 Q110.946 652.573 110.946 661.323 Q110.946 670.05 107.867 674.656 Q104.811 679.24 99.0011 679.24 Q93.191 679.24 90.1123 674.656 Q87.0567 670.05 87.0567 661.323 Q87.0567 652.573 90.1123 647.99 Q93.191 643.383 99.0011 643.383 Z" fill="#000000" fill-rule="nonzero" fill-opacity="1" /><path clip-path="url(#clip190)" d="M119.163 672.689 L124.047 672.689 L124.047 678.568 L119.163 678.568 L119.163 672.689 Z" fill="#000000" fill-rule="nonzero" fill-opacity="1" /><path clip-path="url(#clip190)" d="M144.811 659.425 Q141.663 659.425 139.811 661.578 Q137.982 663.73 137.982 667.48 Q137.982 671.207 139.811 673.383 Q141.663 675.536 144.811 675.536 Q147.959 675.536 149.788 673.383 Q151.64 671.207 151.64 667.48 Q151.64 663.73 149.788 661.578 Q147.959 659.425 144.811 659.425 M154.093 644.772 L154.093 649.031 Q152.334 648.198 150.529 647.758 Q148.746 647.318 146.987 647.318 Q142.357 647.318 139.904 650.443 Q137.473 653.568 137.126 659.888 Q138.492 657.874 140.552 656.809 Q142.612 655.721 145.089 655.721 Q150.297 655.721 153.306 658.892 Q156.339 662.041 156.339 667.48 Q156.339 672.804 153.191 676.022 Q150.043 679.24 144.811 679.24 Q138.816 679.24 135.644 674.656 Q132.473 670.05 132.473 661.323 Q132.473 653.129 136.362 648.267 Q140.251 643.383 146.802 643.383 Q148.561 643.383 150.343 643.73 Q152.149 644.078 154.093 644.772 Z" fill="#000000" fill-rule="nonzero" fill-opacity="1" /><path clip-path="url(#clip190)" d="M99.2558 478.047 Q95.6447 478.047 93.816 481.612 Q92.0104 485.153 92.0104 492.283 Q92.0104 499.389 93.816 502.954 Q95.6447 506.496 99.2558 506.496 Q102.89 506.496 104.696 502.954 Q106.524 499.389 106.524 492.283 Q106.524 485.153 104.696 481.612 Q102.89 478.047 99.2558 478.047 M99.2558 474.343 Q105.066 474.343 108.121 478.95 Q111.2 483.533 111.2 492.283 Q111.2 501.01 108.121 505.616 Q105.066 510.199 99.2558 510.199 Q93.4456 510.199 90.3669 505.616 Q87.3114 501.01 87.3114 492.283 Q87.3114 483.533 90.3669 478.95 Q93.4456 474.343 99.2558 474.343 Z" fill="#000000" fill-rule="nonzero" fill-opacity="1" /><path clip-path="url(#clip190)" d="M119.418 503.649 L124.302 503.649 L124.302 509.528 L119.418 509.528 L119.418 503.649 Z" fill="#000000" fill-rule="nonzero" fill-opacity="1" /><path clip-path="url(#clip190)" d="M144.487 493.116 Q141.154 493.116 139.232 494.899 Q137.334 496.681 137.334 499.806 Q137.334 502.931 139.232 504.713 Q141.154 506.496 144.487 506.496 Q147.82 506.496 149.742 504.713 Q151.663 502.908 151.663 499.806 Q151.663 496.681 149.742 494.899 Q147.843 493.116 144.487 493.116 M139.811 491.126 Q136.802 490.385 135.112 488.325 Q133.445 486.264 133.445 483.301 Q133.445 479.158 136.385 476.751 Q139.348 474.343 144.487 474.343 Q149.649 474.343 152.589 476.751 Q155.529 479.158 155.529 483.301 Q155.529 486.264 153.839 488.325 Q152.172 490.385 149.186 491.126 Q152.566 491.913 154.441 494.204 Q156.339 496.496 156.339 499.806 Q156.339 504.829 153.26 507.514 Q150.205 510.199 144.487 510.199 Q138.769 510.199 135.691 507.514 Q132.635 504.829 132.635 499.806 Q132.635 496.496 134.533 494.204 Q136.431 491.913 139.811 491.126 M138.098 483.741 Q138.098 486.426 139.765 487.931 Q141.455 489.436 144.487 489.436 Q147.496 489.436 149.186 487.931 Q150.899 486.426 150.899 483.741 Q150.899 481.056 149.186 479.552 Q147.496 478.047 144.487 478.047 Q141.455 478.047 139.765 479.552 Q138.098 481.056 138.098 483.741 Z" fill="#000000" fill-rule="nonzero" fill-opacity="1" /><path clip-path="url(#clip190)" d="M89.9734 336.553 L97.6122 336.553 L97.6122 310.187 L89.3021 311.854 L89.3021 307.595 L97.566 305.928 L102.242 305.928 L102.242 336.553 L109.881 336.553 L109.881 340.488 L89.9734 340.488 L89.9734 336.553 Z" fill="#000000" fill-rule="nonzero" fill-opacity="1" /><path clip-path="url(#clip190)" d="M119.325 334.609 L124.209 334.609 L124.209 340.488 L119.325 340.488 L119.325 334.609 Z" fill="#000000" fill-rule="nonzero" fill-opacity="1" /><path clip-path="url(#clip190)" d="M144.394 309.007 Q140.783 309.007 138.955 312.572 Q137.149 316.113 137.149 323.243 Q137.149 330.349 138.955 333.914 Q140.783 337.456 144.394 337.456 Q148.029 337.456 149.834 333.914 Q151.663 330.349 151.663 323.243 Q151.663 316.113 149.834 312.572 Q148.029 309.007 144.394 309.007 M144.394 305.303 Q150.205 305.303 153.26 309.91 Q156.339 314.493 156.339 323.243 Q156.339 331.97 153.26 336.576 Q150.205 341.159 144.394 341.159 Q138.584 341.159 135.506 336.576 Q132.45 331.97 132.45 323.243 Q132.45 314.493 135.506 309.91 Q138.584 305.303 144.394 305.303 Z" fill="#000000" fill-rule="nonzero" fill-opacity="1" /><path clip-path="url(#clip190)" d="M91.5706 167.513 L99.2095 167.513 L99.2095 141.147 L90.8993 142.814 L90.8993 138.555 L99.1632 136.888 L103.839 136.888 L103.839 167.513 L111.478 167.513 L111.478 171.448 L91.5706 171.448 L91.5706 167.513 Z" fill="#000000" fill-rule="nonzero" fill-opacity="1" /><path clip-path="url(#clip190)" d="M120.922 165.568 L125.807 165.568 L125.807 171.448 L120.922 171.448 L120.922 165.568 Z" fill="#000000" fill-rule="nonzero" fill-opacity="1" /><path clip-path="url(#clip190)" d="M140.019 167.513 L156.339 167.513 L156.339 171.448 L134.394 171.448 L134.394 167.513 Q137.056 164.758 141.64 160.129 Q146.246 155.476 147.427 154.133 Q149.672 151.61 150.552 149.874 Q151.455 148.115 151.455 146.425 Q151.455 143.67 149.51 141.934 Q147.589 140.198 144.487 140.198 Q142.288 140.198 139.834 140.962 Q137.404 141.726 134.626 143.277 L134.626 138.555 Q137.45 137.42 139.904 136.842 Q142.357 136.263 144.394 136.263 Q149.765 136.263 152.959 138.948 Q156.154 141.633 156.154 146.124 Q156.154 148.254 155.343 150.175 Q154.556 152.073 152.45 154.666 Q151.871 155.337 148.769 158.555 Q145.668 161.749 140.019 167.513 Z" fill="#000000" fill-rule="nonzero" fill-opacity="1" /><polyline clip-path="url(#clip192)" style="stroke:#009af9; stroke-linecap:round; stroke-linejoin:round; stroke-width:16; stroke-opacity:1; fill:none" stroke-dasharray="8, 16" points="253.483,1042.69 263.725,1028.93 273.966,1016.18 284.208,1006.12 294.45,1000.53 304.692,1000.91 314.934,1008.17 325.176,1022.26 335.418,1042.21 345.659,1066.37 355.901,1092.89 366.143,1120.46 376.385,1148.87 386.627,1178.58 396.869,1209.12 407.111,1238.53 417.352,1264.95 427.594,1287.74 437.836,1306.98 448.078,1322.36 458.32,1333.01 468.562,1337.92 478.803,1336.66 489.045,1329.81 499.287,1318.6 509.529,1303.82 519.771,1284.95 530.013,1260.78 540.255,1231.43 550.497,1199.3 560.738,1167.47 570.98,1137.61 581.222,1109.46 591.464,1082.36 601.706,1056.91 611.948,1035.11 622.19,1018.79 632.431,1008.06 642.673,1001.94 652.915,1000.38 663.157,1004.19 673.399,1013.17 683.641,1027.03 693.882,1046.49 704.124,1070.61 714.366,1096.86 724.608,1124.1 734.85,1153.06 745.092,1184.51 755.334,1217.26 765.575,1247.85 775.817,1273.26 786.059,1293.8 796.301,1311.58 806.543,1326.73 816.785,1336.77 827.027,1339.37 837.268,1334.48 847.51,1324.04 857.752,1310.13 867.994,1293.69 878.236,1274.56 888.478,1252.02 898.72,1225.29 908.961,1194.28 919.203,1160.48 929.445,1127.36 939.687,1098.34 949.929,1073.82 960.171,1050.94 970.413,1023.57 980.654,995.225 990.896,985.47 1001.14,997.417 1011.38,1029.25 1021.62,1081.16 1031.86,1084.26 1042.11,1043.01 1052.35,1005.54 1062.59,1008.59 1072.83,1062.41 1083.07,1128.13 1093.31,1186.73 1103.56,1230.14 1113.8,1252.79 1124.04,1264.52 1134.28,1243.84 1144.52,1229.59 1154.77,1222.2 1165.01,1293.22 1175.25,1396.91 1185.49,1445.72 1195.73,1421.31 1205.98,1350.52 1216.22,1281.59 1226.46,1247.4 1236.7,1235.05 1246.94,1233.98 1257.18,1201.39 1267.43,1022.31 1277.67,710.37 1287.91,418.92 1298.15,276.139 1308.39,267.187 1318.64,311.052 1328.88,347.293 1339.12,317.433 1349.36,244.727 1359.6,221.09 1369.84,270.168 1380.09,312.273 1390.33,306.192 1400.57,311.001 1410.81,309.976 1421.05,299.316 1431.3,223.514 1441.54,214.673 1451.78,268.702 1462.02,400.141 1472.26,523.095 1482.51,451.533 1492.75,329.838 1502.99,267.599 1513.23,272.737 1523.47,308.422 1533.71,334.783 1543.96,335.78 1554.2,343.059 1564.44,372.502 1574.68,392.55 1584.92,375.55 1595.17,324.88 1605.41,266.915 1615.65,234.96 1625.89,236.005 1636.13,246.746 1646.38,274.618 1656.62,320.317 1666.86,368.476 1677.1,401.385 1687.34,410.72 1697.58,399.209 1707.83,372.339 1718.07,333.727 1728.31,286.998 1738.55,239.766 1748.79,208.766 1759.04,224.176 1769.28,291.153 1779.52,363.7 1789.76,411.844 1800,432.827 1810.24,426.924 1820.49,397.608 1830.73,352.892 1840.97,301.636 1851.21,252.354 1861.45,213.046 1871.7,193.689 1881.94,213.015 1892.18,280.59 1902.42,370.713 1912.66,448.003 1922.91,488.414 1933.15,479.117 1943.39,420.673 1953.63,331.61 1963.87,238.95 1974.11,166.306 1984.36,135.815 1994.6,164.182 2004.84,245.235 2015.08,351.477 2025.32,451.373 2035.57,510.144 2045.81,503.041 2056.05,441.708 2066.29,355.702 2076.53,267.441 2086.77,194.111 2097.02,151.692 2107.26,150.961 2117.5,192.811 2127.74,269.232 2137.98,366.064 2148.23,461.674 2158.47,526.959 2168.71,535.663 2178.95,477.18 2189.19,362.14 2199.44,228.507 2209.68,134.581 2219.92,116.508 2230.16,162.42 2240.4,239.351 2250.64,321.242 2260.89,394.725 2271.13,455.03 2281.37,501.635 2291.61,535.81 "/>
<polyline clip-path="url(#clip192)" style="stroke:#e26f46; stroke-linecap:round; stroke-linejoin:round; stroke-width:4; stroke-opacity:1; fill:none" points="253.483,1041.46 263.725,1023.45 273.966,1010.17 284.208,1002.06 294.45,999.369 304.692,1002.2 314.934,1010.46 325.176,1023.87 335.418,1041.99 345.659,1064.25 355.901,1089.9 366.143,1118.12 376.385,1147.97 386.627,1178.5 396.869,1208.69 407.111,1237.57 417.352,1264.2 427.594,1287.69 437.836,1307.29 448.078,1322.37 458.32,1332.41 468.562,1337.1 478.803,1336.29 489.045,1330 499.287,1318.43 509.529,1301.97 519.771,1281.15 530.013,1256.65 540.255,1229.27 550.497,1199.9 560.738,1169.51 570.98,1139.08 581.222,1109.6 591.464,1082.05 601.706,1057.31 611.948,1036.2 622.19,1019.41 632.431,1007.48 642.673,1000.8 652.915,999.587 663.157,1003.89 673.399,1013.56 683.641,1028.28 693.882,1047.58 704.124,1070.82 714.366,1097.25 724.608,1126 734.85,1156.13 745.092,1186.66 755.334,1216.6 765.575,1244.96 775.817,1270.83 786.059,1293.36 796.301,1311.8 806.543,1325.57 816.785,1334.2 827.027,1337.43 837.268,1335.14 847.51,1327.41 857.752,1314.48 867.994,1296.79 878.236,1274.91 888.478,1249.56 898.72,1221.56 908.961,1191.82 919.203,1161.31 929.445,1131.04 939.687,1101.99 949.929,1075.11 960.171,1051.27 970.413,1031.25 980.654,1015.71 990.896,1005.16 1001.14,999.931 1011.38,1000.2 1021.62,1005.96 1031.86,1017.02 1042.11,1033.03 1052.35,1053.45 1062.59,1077.62 1072.83,1104.76 1083.07,1133.97 1093.31,1164.31 1103.56,1194.78 1113.8,1224.39 1124.04,1252.18 1134.28,1277.23 1144.52,1298.72 1154.77,1315.97 1165.01,1328.4 1175.25,1335.61 1185.49,1337.36 1195.73,1333.59 1205.98,1324.44 1216.22,1310.19 1226.46,1291.32 1236.7,1268.43 1246.94,1242.28 1257.18,1213.72 1267.43,1183.68 1277.67,321.981 1287.91,320.584 1298.15,321.855 1308.39,326.087 1318.64,331.984 1328.88,337.052 1339.12,338.553 1349.36,334.653 1359.6,325.356 1369.84,312.822 1380.09,300.895 1390.33,293.928 1400.57,295.265 1410.81,305.895 1421.05,323.776 1431.3,344.125 1441.54,360.696 1451.78,367.686 1462.02,361.703 1472.26,343.137 1482.51,316.433 1492.75,289.066 1502.99,269.452 1513.23,264.371 1523.47,276.688 1533.71,304.13 1543.96,339.571 1554.2,372.864 1564.44,393.743 1574.68,394.98 1584.92,374.808 1595.17,337.838 1605.41,294.076 1615.65,256.222 1625.89,235.987 1636.13,240.486 1646.38,269.823 1656.62,316.658 1666.86,368.001 1677.1,408.814 1687.34,426.409 1697.58,414.377 1707.83,374.81 1718.07,318.1 1728.31,260.228 1738.55,218.267 1748.79,205.344 1759.04,226.564 1769.28,277.143 1779.52,343.403 1789.76,406.457 1800,447.595 1810.24,453.826 1820.49,421.951 1830.73,359.884 1840.97,284.738 1851.21,218.115 1861.45,179.894 1871.7,182.311 1881.94,226.078 1892.18,299.78 1902.42,382.816 1912.66,451.156 1922.91,484.295 1933.15,471.391 1943.39,414.763 1953.63,329.623 1963.87,240.01 1974.11,172.001 1984.36,146.132 1994.6,171.202 2004.84,241.358 2015.08,337.388 2025.32,431.967 2035.57,497.435 2045.81,513.879 2056.05,475.176 2066.29,391.151 2076.53,285.13 2086.77,187.468 2097.02,126.86 2107.26,121.916 2117.5,175.468 2127.74,273.349 2137.98,388.118 2148.23,486.744 2158.47,540.111 2168.71,531.614 2178.95,462.29 2189.19,350.924 2199.44,228.981 2209.68,131.714 2219.92,87.9763 2230.16,111.67 2240.4,197.367 2250.64,321.473 2260.89,448.708 2271.13,542.142 2281.37,573.904 2291.61,533.488 "/>
<path clip-path="url(#clip190)" d="M264.353 250.738 L707.222 250.738 L707.222 95.2176 L264.353 95.2176  Z" fill="#ffffff" fill-rule="evenodd" fill-opacity="1"/>
<polyline clip-path="url(#clip190)" style="stroke:#000000; stroke-linecap:round; stroke-linejoin:round; stroke-width:4; stroke-opacity:1; fill:none" points="264.353,250.738 707.222,250.738 707.222,95.2176 264.353,95.2176 264.353,250.738 "/>
<polyline clip-path="url(#clip190)" style="stroke:#009af9; stroke-linecap:round; stroke-linejoin:round; stroke-width:16; stroke-opacity:1; fill:none" stroke-dasharray="8, 16" points="288.357,147.058 432.385,147.058 "/>
<path clip-path="url(#clip190)" d="M461.066 133.62 L461.066 146.606 L466.945 146.606 Q470.209 146.606 471.992 144.916 Q473.774 143.227 473.774 140.102 Q473.774 137 471.992 135.31 Q470.209 133.62 466.945 133.62 L461.066 133.62 M456.39 129.778 L466.945 129.778 Q472.755 129.778 475.718 132.416 Q478.704 135.032 478.704 140.102 Q478.704 145.217 475.718 147.833 Q472.755 150.449 466.945 150.449 L461.066 150.449 L461.066 164.338 L456.39 164.338 L456.39 129.778 Z" fill="#000000" fill-rule="nonzero" fill-opacity="1" /><path clip-path="url(#clip190)" d="M498.982 142.393 Q498.265 141.977 497.408 141.791 Q496.575 141.583 495.556 141.583 Q491.945 141.583 490.001 143.944 Q488.079 146.282 488.079 150.68 L488.079 164.338 L483.797 164.338 L483.797 138.412 L488.079 138.412 L488.079 142.44 Q489.422 140.078 491.575 138.944 Q493.728 137.787 496.806 137.787 Q497.246 137.787 497.778 137.856 Q498.311 137.903 498.959 138.018 L498.982 142.393 Z" fill="#000000" fill-rule="nonzero" fill-opacity="1" /><path clip-path="url(#clip190)" d="M524.584 150.31 L524.584 152.393 L505.001 152.393 Q505.278 156.791 507.639 159.106 Q510.024 161.398 514.26 161.398 Q516.714 161.398 519.005 160.796 Q521.32 160.194 523.588 158.99 L523.588 163.018 Q521.297 163.99 518.889 164.5 Q516.482 165.009 514.005 165.009 Q507.802 165.009 504.167 161.398 Q500.556 157.787 500.556 151.629 Q500.556 145.264 503.982 141.537 Q507.431 137.787 513.264 137.787 Q518.496 137.787 521.528 141.166 Q524.584 144.523 524.584 150.31 M520.325 149.06 Q520.278 145.565 518.357 143.481 Q516.459 141.398 513.311 141.398 Q509.746 141.398 507.593 143.412 Q505.464 145.426 505.14 149.083 L520.325 149.06 Z" fill="#000000" fill-rule="nonzero" fill-opacity="1" /><path clip-path="url(#clip190)" d="M548.635 142.347 L548.635 128.319 L552.894 128.319 L552.894 164.338 L548.635 164.338 L548.635 160.449 Q547.292 162.763 545.232 163.898 Q543.195 165.009 540.325 165.009 Q535.625 165.009 532.663 161.259 Q529.723 157.509 529.723 151.398 Q529.723 145.287 532.663 141.537 Q535.625 137.787 540.325 137.787 Q543.195 137.787 545.232 138.921 Q547.292 140.032 548.635 142.347 M534.121 151.398 Q534.121 156.097 536.042 158.782 Q537.987 161.444 541.366 161.444 Q544.746 161.444 546.69 158.782 Q548.635 156.097 548.635 151.398 Q548.635 146.699 546.69 144.037 Q544.746 141.352 541.366 141.352 Q537.987 141.352 536.042 144.037 Q534.121 146.699 534.121 151.398 Z" fill="#000000" fill-rule="nonzero" fill-opacity="1" /><path clip-path="url(#clip190)" d="M561.667 138.412 L565.926 138.412 L565.926 164.338 L561.667 164.338 L561.667 138.412 M561.667 128.319 L565.926 128.319 L565.926 133.713 L561.667 133.713 L561.667 128.319 Z" fill="#000000" fill-rule="nonzero" fill-opacity="1" /><path clip-path="url(#clip190)" d="M593.496 139.407 L593.496 143.389 Q591.69 142.393 589.861 141.907 Q588.056 141.398 586.204 141.398 Q582.06 141.398 579.769 144.037 Q577.477 146.652 577.477 151.398 Q577.477 156.143 579.769 158.782 Q582.06 161.398 586.204 161.398 Q588.056 161.398 589.861 160.912 Q591.69 160.402 593.496 159.407 L593.496 163.342 Q591.713 164.176 589.792 164.592 Q587.894 165.009 585.741 165.009 Q579.884 165.009 576.435 161.328 Q572.986 157.648 572.986 151.398 Q572.986 145.055 576.459 141.421 Q579.954 137.787 586.019 137.787 Q587.986 137.787 589.861 138.203 Q591.736 138.597 593.496 139.407 Z" fill="#000000" fill-rule="nonzero" fill-opacity="1" /><path clip-path="url(#clip190)" d="M605.116 131.051 L605.116 138.412 L613.889 138.412 L613.889 141.722 L605.116 141.722 L605.116 155.796 Q605.116 158.967 605.972 159.87 Q606.852 160.773 609.514 160.773 L613.889 160.773 L613.889 164.338 L609.514 164.338 Q604.583 164.338 602.708 162.509 Q600.833 160.657 600.833 155.796 L600.833 141.722 L597.708 141.722 L597.708 138.412 L600.833 138.412 L600.833 131.051 L605.116 131.051 Z" fill="#000000" fill-rule="nonzero" fill-opacity="1" /><path clip-path="url(#clip190)" d="M619.491 138.412 L623.75 138.412 L623.75 164.338 L619.491 164.338 L619.491 138.412 M619.491 128.319 L623.75 128.319 L623.75 133.713 L619.491 133.713 L619.491 128.319 Z" fill="#000000" fill-rule="nonzero" fill-opacity="1" /><path clip-path="url(#clip190)" d="M642.708 141.398 Q639.282 141.398 637.292 144.083 Q635.301 146.745 635.301 151.398 Q635.301 156.051 637.268 158.736 Q639.259 161.398 642.708 161.398 Q646.111 161.398 648.102 158.713 Q650.092 156.027 650.092 151.398 Q650.092 146.791 648.102 144.106 Q646.111 141.398 642.708 141.398 M642.708 137.787 Q648.264 137.787 651.435 141.398 Q654.606 145.009 654.606 151.398 Q654.606 157.764 651.435 161.398 Q648.264 165.009 642.708 165.009 Q637.13 165.009 633.958 161.398 Q630.81 157.764 630.81 151.398 Q630.81 145.009 633.958 141.398 Q637.13 137.787 642.708 137.787 Z" fill="#000000" fill-rule="nonzero" fill-opacity="1" /><path clip-path="url(#clip190)" d="M683.217 148.689 L683.217 164.338 L678.958 164.338 L678.958 148.828 Q678.958 145.148 677.523 143.319 Q676.088 141.49 673.217 141.49 Q669.768 141.49 667.778 143.69 Q665.787 145.889 665.787 149.685 L665.787 164.338 L661.504 164.338 L661.504 138.412 L665.787 138.412 L665.787 142.44 Q667.315 140.102 669.375 138.944 Q671.458 137.787 674.166 137.787 Q678.634 137.787 680.926 140.565 Q683.217 143.319 683.217 148.689 Z" fill="#000000" fill-rule="nonzero" fill-opacity="1" /><polyline clip-path="url(#clip190)" style="stroke:#e26f46; stroke-linecap:round; stroke-linejoin:round; stroke-width:4; stroke-opacity:1; fill:none" points="288.357,198.898 432.385,198.898 "/>
<path clip-path="url(#clip190)" d="M456.39 181.618 L478.242 181.618 L478.242 185.553 L461.066 185.553 L461.066 195.784 L477.524 195.784 L477.524 199.719 L461.066 199.719 L461.066 212.242 L478.658 212.242 L478.658 216.178 L456.39 216.178 L456.39 181.618 Z" fill="#000000" fill-rule="nonzero" fill-opacity="1" /><path clip-path="url(#clip190)" d="M507.709 190.252 L498.334 202.867 L508.195 216.178 L503.172 216.178 L495.626 205.992 L488.079 216.178 L483.056 216.178 L493.126 202.613 L483.913 190.252 L488.936 190.252 L495.811 199.488 L502.686 190.252 L507.709 190.252 Z" fill="#000000" fill-rule="nonzero" fill-opacity="1" /><path clip-path="url(#clip190)" d="M525.996 203.145 Q520.834 203.145 518.843 204.326 Q516.852 205.506 516.852 208.354 Q516.852 210.622 518.334 211.965 Q519.838 213.284 522.408 213.284 Q525.95 213.284 528.079 210.784 Q530.232 208.261 530.232 204.094 L530.232 203.145 L525.996 203.145 M534.491 201.386 L534.491 216.178 L530.232 216.178 L530.232 212.242 Q528.774 214.603 526.598 215.738 Q524.422 216.849 521.274 216.849 Q517.292 216.849 514.931 214.627 Q512.593 212.381 512.593 208.631 Q512.593 204.256 515.51 202.034 Q518.45 199.812 524.26 199.812 L530.232 199.812 L530.232 199.395 Q530.232 196.455 528.288 194.858 Q526.366 193.238 522.871 193.238 Q520.649 193.238 518.542 193.77 Q516.436 194.303 514.491 195.367 L514.491 191.432 Q516.829 190.53 519.028 190.09 Q521.227 189.627 523.311 189.627 Q528.936 189.627 531.713 192.543 Q534.491 195.46 534.491 201.386 Z" fill="#000000" fill-rule="nonzero" fill-opacity="1" /><path clip-path="url(#clip190)" d="M561.922 191.247 L561.922 195.229 Q560.116 194.233 558.287 193.747 Q556.482 193.238 554.63 193.238 Q550.486 193.238 548.195 195.877 Q545.903 198.492 545.903 203.238 Q545.903 207.983 548.195 210.622 Q550.486 213.238 554.63 213.238 Q556.482 213.238 558.287 212.752 Q560.116 212.242 561.922 211.247 L561.922 215.182 Q560.139 216.016 558.218 216.432 Q556.32 216.849 554.167 216.849 Q548.311 216.849 544.862 213.168 Q541.412 209.488 541.412 203.238 Q541.412 196.895 544.885 193.261 Q548.38 189.627 554.445 189.627 Q556.412 189.627 558.287 190.043 Q560.162 190.437 561.922 191.247 Z" fill="#000000" fill-rule="nonzero" fill-opacity="1" /><path clip-path="url(#clip190)" d="M573.542 182.891 L573.542 190.252 L582.315 190.252 L582.315 193.562 L573.542 193.562 L573.542 207.636 Q573.542 210.807 574.398 211.71 Q575.278 212.613 577.94 212.613 L582.315 212.613 L582.315 216.178 L577.94 216.178 Q573.01 216.178 571.135 214.349 Q569.26 212.497 569.26 207.636 L569.26 193.562 L566.135 193.562 L566.135 190.252 L569.26 190.252 L569.26 182.891 L573.542 182.891 Z" fill="#000000" fill-rule="nonzero" fill-opacity="1" /></svg>
