<?xml version="1.0" encoding="utf-8"?>
<svg xmlns="http://www.w3.org/2000/svg" xmlns:xlink="http://www.w3.org/1999/xlink" width="600" height="400" viewBox="0 0 2400 1600">
<defs>
  <clipPath id="clip130">
    <rect x="0" y="0" width="2400" height="1600"/>
  </clipPath>
</defs>
<path clip-path="url(#clip130)" d="M0 1600 L2400 1600 L2400 0 L0 0  Z" fill="#ffffff" fill-rule="evenodd" fill-opacity="1"/>
<defs>
  <clipPath id="clip131">
    <rect x="480" y="0" width="1681" height="1600"/>
  </clipPath>
</defs>
<path clip-path="url(#clip130)" d="M156.274 1486.45 L2352.76 1486.45 L2352.76 47.2441 L156.274 47.2441  Z" fill="#ffffff" fill-rule="evenodd" fill-opacity="1"/>
<defs>
  <clipPath id="clip132">
    <rect x="156" y="47" width="2197" height="1440"/>
  </clipPath>
</defs>
<polyline clip-path="url(#clip132)" style="stroke:#000000; stroke-linecap:round; stroke-linejoin:round; stroke-width:2; stroke-opacity:0.1; fill:none" points="218.439,1486.45 218.439,47.2441 "/>
<polyline clip-path="url(#clip132)" style="stroke:#000000; stroke-linecap:round; stroke-linejoin:round; stroke-width:2; stroke-opacity:0.1; fill:none" points="736.477,1486.45 736.477,47.2441 "/>
<polyline clip-path="url(#clip132)" style="stroke:#000000; stroke-linecap:round; stroke-linejoin:round; stroke-width:2; stroke-opacity:0.1; fill:none" points="1254.52,1486.45 1254.52,47.2441 "/>
<polyline clip-path="url(#clip132)" style="stroke:#000000; stroke-linecap:round; stroke-linejoin:round; stroke-width:2; stroke-opacity:0.1; fill:none" points="1772.55,1486.45 1772.55,47.2441 "/>
<polyline clip-path="url(#clip132)" style="stroke:#000000; stroke-linecap:round; stroke-linejoin:round; stroke-width:2; stroke-opacity:0.1; fill:none" points="2290.59,1486.45 2290.59,47.2441 "/>
<polyline clip-path="url(#clip130)" style="stroke:#000000; stroke-linecap:round; stroke-linejoin:round; stroke-width:4; stroke-opacity:1; fill:none" points="156.274,1486.45 2352.76,1486.45 "/>
<polyline clip-path="url(#clip130)" style="stroke:#000000; stroke-linecap:round; stroke-linejoin:round; stroke-width:4; stroke-opacity:1; fill:none" points="218.439,1486.45 218.439,1467.55 "/>
<polyline clip-path="url(#clip130)" style="stroke:#000000; stroke-linecap:round; stroke-linejoin:round; stroke-width:4; stroke-opacity:1; fill:none" points="736.477,1486.45 736.477,1467.55 "/>
<polyline clip-path="url(#clip130)" style="stroke:#000000; stroke-linecap:round; stroke-linejoin:round; stroke-width:4; stroke-opacity:1; fill:none" points="1254.52,1486.45 1254.52,1467.55 "/>
<polyline clip-path="url(#clip130)" style="stroke:#000000; stroke-linecap:round; stroke-linejoin:round; stroke-width:4; stroke-opacity:1; fill:none" points="1772.55,1486.45 1772.55,1467.55 "/>
<polyline clip-path="url(#clip130)" style="stroke:#000000; stroke-linecap:round; stroke-linejoin:round; stroke-width:4; stroke-opacity:1; fill:none" points="2290.59,1486.45 2290.59,1467.55 "/>
<path clip-path="url(#clip130)" d="M164.967 1532.02 L194.643 1532.02 L194.643 1535.95 L164.967 1535.95 L164.967 1532.02 Z" fill="#000000" fill-rule="nonzero" fill-opacity="1" /><path clip-path="url(#clip130)" d="M205.545 1544.91 L213.184 1544.91 L213.184 1518.55 L204.874 1520.21 L204.874 1515.95 L213.138 1514.29 L217.814 1514.29 L217.814 1544.91 L225.453 1544.91 L225.453 1548.85 L205.545 1548.85 L205.545 1544.91 Z" fill="#000000" fill-rule="nonzero" fill-opacity="1" /><path clip-path="url(#clip130)" d="M234.897 1542.97 L239.781 1542.97 L239.781 1548.85 L234.897 1548.85 L234.897 1542.97 Z" fill="#000000" fill-rule="nonzero" fill-opacity="1" /><path clip-path="url(#clip130)" d="M259.966 1517.37 Q256.355 1517.37 254.527 1520.93 Q252.721 1524.47 252.721 1531.6 Q252.721 1538.71 254.527 1542.27 Q256.355 1545.82 259.966 1545.82 Q263.601 1545.82 265.406 1542.27 Q267.235 1538.71 267.235 1531.6 Q267.235 1524.47 265.406 1520.93 Q263.601 1517.37 259.966 1517.37 M259.966 1513.66 Q265.776 1513.66 268.832 1518.27 Q271.911 1522.85 271.911 1531.6 Q271.911 1540.33 268.832 1544.94 Q265.776 1549.52 259.966 1549.52 Q254.156 1549.52 251.077 1544.94 Q248.022 1540.33 248.022 1531.6 Q248.022 1522.85 251.077 1518.27 Q254.156 1513.66 259.966 1513.66 Z" fill="#000000" fill-rule="nonzero" fill-opacity="1" /><path clip-path="url(#clip130)" d="M683.503 1532.02 L713.178 1532.02 L713.178 1535.95 L683.503 1535.95 L683.503 1532.02 Z" fill="#000000" fill-rule="nonzero" fill-opacity="1" /><path clip-path="url(#clip130)" d="M733.271 1517.37 Q729.66 1517.37 727.831 1520.93 Q726.026 1524.47 726.026 1531.6 Q726.026 1538.71 727.831 1542.27 Q729.66 1545.82 733.271 1545.82 Q736.905 1545.82 738.711 1542.27 Q740.539 1538.71 740.539 1531.6 Q740.539 1524.47 738.711 1520.93 Q736.905 1517.37 733.271 1517.37 M733.271 1513.66 Q739.081 1513.66 742.137 1518.27 Q745.215 1522.85 745.215 1531.6 Q745.215 1540.33 742.137 1544.94 Q739.081 1549.52 733.271 1549.52 Q727.461 1549.52 724.382 1544.94 Q721.327 1540.33 721.327 1531.6 Q721.327 1522.85 724.382 1518.27 Q727.461 1513.66 733.271 1513.66 Z" fill="#000000" fill-rule="nonzero" fill-opacity="1" /><path clip-path="url(#clip130)" d="M753.433 1542.97 L758.317 1542.97 L758.317 1548.85 L753.433 1548.85 L753.433 1542.97 Z" fill="#000000" fill-rule="nonzero" fill-opacity="1" /><path clip-path="url(#clip130)" d="M768.548 1514.29 L786.905 1514.29 L786.905 1518.22 L772.831 1518.22 L772.831 1526.7 Q773.849 1526.35 774.868 1526.19 Q775.886 1526 776.905 1526 Q782.692 1526 786.072 1529.17 Q789.451 1532.34 789.451 1537.76 Q789.451 1543.34 785.979 1546.44 Q782.507 1549.52 776.187 1549.52 Q774.011 1549.52 771.743 1549.15 Q769.498 1548.78 767.09 1548.04 L767.09 1543.34 Q769.173 1544.47 771.396 1545.03 Q773.618 1545.58 776.095 1545.58 Q780.099 1545.58 782.437 1543.48 Q784.775 1541.37 784.775 1537.76 Q784.775 1534.15 782.437 1532.04 Q780.099 1529.94 776.095 1529.94 Q774.22 1529.94 772.345 1530.35 Q770.493 1530.77 768.548 1531.65 L768.548 1514.29 Z" fill="#000000" fill-rule="nonzero" fill-opacity="1" /><path clip-path="url(#clip130)" d="M1231.9 1517.37 Q1228.29 1517.37 1226.46 1520.93 Q1224.65 1524.47 1224.65 1531.6 Q1224.65 1538.71 1226.46 1542.27 Q1228.29 1545.82 1231.9 1545.82 Q1235.53 1545.82 1237.34 1542.27 Q1239.17 1538.71 1239.17 1531.6 Q1239.17 1524.47 1237.34 1520.93 Q1235.53 1517.37 1231.9 1517.37 M1231.9 1513.66 Q1237.71 1513.66 1240.77 1518.27 Q1243.84 1522.85 1243.84 1531.6 Q1243.84 1540.33 1240.77 1544.94 Q1237.71 1549.52 1231.9 1549.52 Q1226.09 1549.52 1223.01 1544.94 Q1219.96 1540.33 1219.96 1531.6 Q1219.96 1522.85 1223.01 1518.27 Q1226.09 1513.66 1231.9 1513.66 Z" fill="#000000" fill-rule="nonzero" fill-opacity="1" /><path clip-path="url(#clip130)" d="M1252.06 1542.97 L1256.95 1542.97 L1256.95 1548.85 L1252.06 1548.85 L1252.06 1542.97 Z" fill="#000000" fill-rule="nonzero" fill-opacity="1" /><path clip-path="url(#clip130)" d="M1277.13 1517.37 Q1273.52 1517.37 1271.69 1520.93 Q1269.89 1524.47 1269.89 1531.6 Q1269.89 1538.71 1271.69 1542.27 Q1273.52 1545.82 1277.13 1545.82 Q1280.76 1545.82 1282.57 1542.27 Q1284.4 1538.71 1284.4 1531.6 Q1284.4 1524.47 1282.57 1520.93 Q1280.76 1517.37 1277.13 1517.37 M1277.13 1513.66 Q1282.94 1513.66 1286 1518.27 Q1289.08 1522.85 1289.08 1531.6 Q1289.08 1540.33 1286 1544.94 Q1282.94 1549.52 1277.13 1549.52 Q1271.32 1549.52 1268.24 1544.94 Q1265.19 1540.33 1265.19 1531.6 Q1265.19 1522.85 1268.24 1518.27 Q1271.32 1513.66 1277.13 1513.66 Z" fill="#000000" fill-rule="nonzero" fill-opacity="1" /><path clip-path="url(#clip130)" d="M1750.44 1517.37 Q1746.82 1517.37 1745 1520.93 Q1743.19 1524.47 1743.19 1531.6 Q1743.19 1538.71 1745 1542.27 Q1746.82 1545.82 1750.44 1545.82 Q1754.07 1545.82 1755.88 1542.27 Q1757.7 1538.71 1757.7 1531.6 Q1757.7 1524.47 1755.88 1520.93 Q1754.07 1517.37 1750.44 1517.37 M1750.44 1513.66 Q1756.25 1513.66 1759.3 1518.27 Q1762.38 1522.85 1762.38 1531.6 Q1762.38 1540.33 1759.3 1544.94 Q1756.25 1549.52 1750.44 1549.52 Q1744.63 1549.52 1741.55 1544.94 Q1738.49 1540.33 1738.49 1531.6 Q1738.49 1522.85 1741.55 1518.27 Q1744.63 1513.66 1750.44 1513.66 Z" fill="#000000" fill-rule="nonzero" fill-opacity="1" /><path clip-path="url(#clip130)" d="M1770.6 1542.97 L1775.48 1542.97 L1775.48 1548.85 L1770.6 1548.85 L1770.6 1542.97 Z" fill="#000000" fill-rule="nonzero" fill-opacity="1" /><path clip-path="url(#clip130)" d="M1785.71 1514.29 L1804.07 1514.29 L1804.07 1518.22 L1790 1518.22 L1790 1526.7 Q1791.01 1526.35 1792.03 1526.19 Q1793.05 1526 1794.07 1526 Q1799.86 1526 1803.24 1529.17 Q1806.62 1532.34 1806.62 1537.76 Q1806.62 1543.34 1803.14 1546.44 Q1799.67 1549.52 1793.35 1549.52 Q1791.18 1549.52 1788.91 1549.15 Q1786.66 1548.78 1784.25 1548.04 L1784.25 1543.34 Q1786.34 1544.47 1788.56 1545.03 Q1790.78 1545.58 1793.26 1545.58 Q1797.26 1545.58 1799.6 1543.48 Q1801.94 1541.37 1801.94 1537.76 Q1801.94 1534.15 1799.6 1532.04 Q1797.26 1529.94 1793.26 1529.94 Q1791.38 1529.94 1789.51 1530.35 Q1787.66 1530.77 1785.71 1531.65 L1785.71 1514.29 Z" fill="#000000" fill-rule="nonzero" fill-opacity="1" /><path clip-path="url(#clip130)" d="M2257.74 1544.91 L2265.38 1544.91 L2265.38 1518.55 L2257.07 1520.21 L2257.07 1515.95 L2265.34 1514.29 L2270.01 1514.29 L2270.01 1544.91 L2277.65 1544.91 L2277.65 1548.85 L2257.74 1548.85 L2257.74 1544.91 Z" fill="#000000" fill-rule="nonzero" fill-opacity="1" /><path clip-path="url(#clip130)" d="M2287.1 1542.97 L2291.98 1542.97 L2291.98 1548.85 L2287.1 1548.85 L2287.1 1542.97 Z" fill="#000000" fill-rule="nonzero" fill-opacity="1" /><path clip-path="url(#clip130)" d="M2312.17 1517.37 Q2308.55 1517.37 2306.73 1520.93 Q2304.92 1524.47 2304.92 1531.6 Q2304.92 1538.71 2306.73 1542.27 Q2308.55 1545.82 2312.17 1545.82 Q2315.8 1545.82 2317.61 1542.27 Q2319.43 1538.71 2319.43 1531.6 Q2319.43 1524.47 2317.61 1520.93 Q2315.8 1517.37 2312.17 1517.37 M2312.17 1513.66 Q2317.98 1513.66 2321.03 1518.27 Q2324.11 1522.85 2324.11 1531.6 Q2324.11 1540.33 2321.03 1544.94 Q2317.98 1549.52 2312.17 1549.52 Q2306.36 1549.52 2303.28 1544.94 Q2300.22 1540.33 2300.22 1531.6 Q2300.22 1522.85 2303.28 1518.27 Q2306.36 1513.66 2312.17 1513.66 Z" fill="#000000" fill-rule="nonzero" fill-opacity="1" /><polyline clip-path="url(#clip132)" style="stroke:#000000; stroke-linecap:round; stroke-linejoin:round; stroke-width:2; stroke-opacity:0.1; fill:none" points="156.274,1249.34 2352.76,1249.34 "/>
<polyline clip-path="url(#clip132)" style="stroke:#000000; stroke-linecap:round; stroke-linejoin:round; stroke-width:2; stroke-opacity:0.1; fill:none" points="156.274,976.98 2352.76,976.98 "/>
<polyline clip-path="url(#clip132)" style="stroke:#000000; stroke-linecap:round; stroke-linejoin:round; stroke-width:2; stroke-opacity:0.1; fill:none" points="156.274,704.624 2352.76,704.624 "/>
<polyline clip-path="url(#clip132)" style="stroke:#000000; stroke-linecap:round; stroke-linejoin:round; stroke-width:2; stroke-opacity:0.1; fill:none" points="156.274,432.268 2352.76,432.268 "/>
<polyline clip-path="url(#clip132)" style="stroke:#000000; stroke-linecap:round; stroke-linejoin:round; stroke-width:2; stroke-opacity:0.1; fill:none" points="156.274,159.912 2352.76,159.912 "/>
<polyline clip-path="url(#clip130)" style="stroke:#000000; stroke-linecap:round; stroke-linejoin:round; stroke-width:4; stroke-opacity:1; fill:none" points="156.274,1486.45 156.274,47.2441 "/>
<polyline clip-path="url(#clip130)" style="stroke:#000000; stroke-linecap:round; stroke-linejoin:round; stroke-width:4; stroke-opacity:1; fill:none" points="156.274,1249.34 175.172,1249.34 "/>
<polyline clip-path="url(#clip130)" style="stroke:#000000; stroke-linecap:round; stroke-linejoin:round; stroke-width:4; stroke-opacity:1; fill:none" points="156.274,976.98 175.172,976.98 "/>
<polyline clip-path="url(#clip130)" style="stroke:#000000; stroke-linecap:round; stroke-linejoin:round; stroke-width:4; stroke-opacity:1; fill:none" points="156.274,704.624 175.172,704.624 "/>
<polyline clip-path="url(#clip130)" style="stroke:#000000; stroke-linecap:round; stroke-linejoin:round; stroke-width:4; stroke-opacity:1; fill:none" points="156.274,432.268 175.172,432.268 "/>
<polyline clip-path="url(#clip130)" style="stroke:#000000; stroke-linecap:round; stroke-linejoin:round; stroke-width:4; stroke-opacity:1; fill:none" points="156.274,159.912 175.172,159.912 "/>
<path clip-path="url(#clip130)" d="M63.0985 1235.13 Q59.4875 1235.13 57.6588 1238.7 Q55.8532 1242.24 55.8532 1249.37 Q55.8532 1256.48 57.6588 1260.04 Q59.4875 1263.58 63.0985 1263.58 Q66.7328 1263.58 68.5383 1260.04 Q70.367 1256.48 70.367 1249.37 Q70.367 1242.24 68.5383 1238.7 Q66.7328 1235.13 63.0985 1235.13 M63.0985 1231.43 Q68.9087 1231.43 71.9642 1236.04 Q75.0429 1240.62 75.0429 1249.37 Q75.0429 1258.1 71.9642 1262.7 Q68.9087 1267.29 63.0985 1267.29 Q57.2884 1267.29 54.2097 1262.7 Q51.1542 1258.1 51.1542 1249.37 Q51.1542 1240.62 54.2097 1236.04 Q57.2884 1231.43 63.0985 1231.43 Z" fill="#000000" fill-rule="nonzero" fill-opacity="1" /><path clip-path="url(#clip130)" d="M83.2605 1260.74 L88.1447 1260.74 L88.1447 1266.62 L83.2605 1266.62 L83.2605 1260.74 Z" fill="#000000" fill-rule="nonzero" fill-opacity="1" /><path clip-path="url(#clip130)" d="M108.33 1235.13 Q104.719 1235.13 102.89 1238.7 Q101.084 1242.24 101.084 1249.37 Q101.084 1256.48 102.89 1260.04 Q104.719 1263.58 108.33 1263.58 Q111.964 1263.58 113.77 1260.04 Q115.598 1256.48 115.598 1249.37 Q115.598 1242.24 113.77 1238.7 Q111.964 1235.13 108.33 1235.13 M108.33 1231.43 Q114.14 1231.43 117.195 1236.04 Q120.274 1240.62 120.274 1249.37 Q120.274 1258.1 117.195 1262.7 Q114.14 1267.29 108.33 1267.29 Q102.52 1267.29 99.4409 1262.7 Q96.3854 1258.1 96.3854 1249.37 Q96.3854 1240.62 99.4409 1236.04 Q102.52 1231.43 108.33 1231.43 Z" fill="#000000" fill-rule="nonzero" fill-opacity="1" /><path clip-path="url(#clip130)" d="M63.7467 962.778 Q60.1356 962.778 58.3069 966.343 Q56.5014 969.885 56.5014 977.015 Q56.5014 984.121 58.3069 987.686 Q60.1356 991.227 63.7467 991.227 Q67.3809 991.227 69.1865 987.686 Q71.0152 984.121 71.0152 977.015 Q71.0152 969.885 69.1865 966.343 Q67.3809 962.778 63.7467 962.778 M63.7467 959.075 Q69.5568 959.075 72.6124 963.681 Q75.6911 968.265 75.6911 977.015 Q75.6911 985.741 72.6124 990.348 Q69.5568 994.931 63.7467 994.931 Q57.9365 994.931 54.8578 990.348 Q51.8023 985.741 51.8023 977.015 Q51.8023 968.265 54.8578 963.681 Q57.9365 959.075 63.7467 959.075 Z" fill="#000000" fill-rule="nonzero" fill-opacity="1" /><path clip-path="url(#clip130)" d="M83.9086 988.38 L88.7928 988.38 L88.7928 994.26 L83.9086 994.26 L83.9086 988.38 Z" fill="#000000" fill-rule="nonzero" fill-opacity="1" /><path clip-path="url(#clip130)" d="M113.145 975.626 Q116.501 976.343 118.376 978.612 Q120.274 980.88 120.274 984.214 Q120.274 989.329 116.756 992.13 Q113.237 994.931 106.756 994.931 Q104.58 994.931 102.265 994.491 Q99.9733 994.075 97.5197 993.218 L97.5197 988.704 Q99.4641 989.839 101.779 990.417 Q104.094 990.996 106.617 990.996 Q111.015 990.996 113.307 989.26 Q115.621 987.524 115.621 984.214 Q115.621 981.158 113.469 979.445 Q111.339 977.709 107.52 977.709 L103.492 977.709 L103.492 973.866 L107.705 973.866 Q111.154 973.866 112.983 972.501 Q114.811 971.112 114.811 968.519 Q114.811 965.857 112.913 964.445 Q111.038 963.01 107.52 963.01 Q105.598 963.01 103.399 963.427 Q101.2 963.843 98.5613 964.723 L98.5613 960.556 Q101.223 959.816 103.538 959.445 Q105.876 959.075 107.936 959.075 Q113.26 959.075 116.362 961.505 Q119.464 963.913 119.464 968.033 Q119.464 970.903 117.82 972.894 Q116.177 974.862 113.145 975.626 Z" fill="#000000" fill-rule="nonzero" fill-opacity="1" /><path clip-path="url(#clip130)" d="M62.9365 690.423 Q59.3254 690.423 57.4967 693.987 Q55.6912 697.529 55.6912 704.659 Q55.6912 711.765 57.4967 715.33 Q59.3254 718.872 62.9365 718.872 Q66.5707 718.872 68.3763 715.33 Q70.205 711.765 70.205 704.659 Q70.205 697.529 68.3763 693.987 Q66.5707 690.423 62.9365 690.423 M62.9365 686.719 Q68.7467 686.719 71.8022 691.325 Q74.8809 695.909 74.8809 704.659 Q74.8809 713.386 71.8022 717.992 Q68.7467 722.575 62.9365 722.575 Q57.1264 722.575 54.0477 717.992 Q50.9921 713.386 50.9921 704.659 Q50.9921 695.909 54.0477 691.325 Q57.1264 686.719 62.9365 686.719 Z" fill="#000000" fill-rule="nonzero" fill-opacity="1" /><path clip-path="url(#clip130)" d="M83.0984 716.024 L87.9827 716.024 L87.9827 721.904 L83.0984 721.904 L83.0984 716.024 Z" fill="#000000" fill-rule="nonzero" fill-opacity="1" /><path clip-path="url(#clip130)" d="M108.746 702.761 Q105.598 702.761 103.746 704.913 Q101.918 707.066 101.918 710.816 Q101.918 714.543 103.746 716.719 Q105.598 718.872 108.746 718.872 Q111.895 718.872 113.723 716.719 Q115.575 714.543 115.575 710.816 Q115.575 707.066 113.723 704.913 Q111.895 702.761 108.746 702.761 M118.029 688.108 L118.029 692.367 Q116.27 691.534 114.464 691.094 Q112.682 690.654 110.922 690.654 Q106.293 690.654 103.839 693.779 Q101.409 696.904 101.061 703.224 Q102.427 701.21 104.487 700.145 Q106.547 699.057 109.024 699.057 Q114.233 699.057 117.242 702.228 Q120.274 705.376 120.274 710.816 Q120.274 716.14 117.126 719.358 Q113.978 722.575 108.746 722.575 Q102.751 722.575 99.5798 717.992 Q96.4085 713.386 96.4085 704.659 Q96.4085 696.464 100.297 691.603 Q104.186 686.719 110.737 686.719 Q112.496 686.719 114.279 687.066 Q116.084 687.413 118.029 688.108 Z" fill="#000000" fill-rule="nonzero" fill-opacity="1" /><path clip-path="url(#clip130)" d="M63.2837 418.067 Q59.6726 418.067 57.8439 421.632 Q56.0384 425.173 56.0384 432.303 Q56.0384 439.409 57.8439 442.974 Q59.6726 446.516 63.2837 446.516 Q66.918 446.516 68.7235 442.974 Q70.5522 439.409 70.5522 432.303 Q70.5522 425.173 68.7235 421.632 Q66.918 418.067 63.2837 418.067 M63.2837 414.363 Q69.0939 414.363 72.1494 418.97 Q75.2281 423.553 75.2281 432.303 Q75.2281 441.03 72.1494 445.636 Q69.0939 450.219 63.2837 450.219 Q57.4736 450.219 54.3949 445.636 Q51.3393 441.03 51.3393 432.303 Q51.3393 423.553 54.3949 418.97 Q57.4736 414.363 63.2837 414.363 Z" fill="#000000" fill-rule="nonzero" fill-opacity="1" /><path clip-path="url(#clip130)" d="M83.4457 443.669 L88.3299 443.669 L88.3299 449.548 L83.4457 449.548 L83.4457 443.669 Z" fill="#000000" fill-rule="nonzero" fill-opacity="1" /><path clip-path="url(#clip130)" d="M98.6539 448.831 L98.6539 444.571 Q100.413 445.405 102.219 445.844 Q104.024 446.284 105.76 446.284 Q110.39 446.284 112.82 443.182 Q115.274 440.057 115.621 433.715 Q114.279 435.706 112.219 436.77 Q110.158 437.835 107.658 437.835 Q102.473 437.835 99.4409 434.71 Q96.4317 431.562 96.4317 426.122 Q96.4317 420.798 99.5798 417.581 Q102.728 414.363 107.959 414.363 Q113.955 414.363 117.103 418.97 Q120.274 423.553 120.274 432.303 Q120.274 440.474 116.385 445.358 Q112.52 450.219 105.969 450.219 Q104.209 450.219 102.404 449.872 Q100.598 449.525 98.6539 448.831 M107.959 434.178 Q111.108 434.178 112.936 432.025 Q114.788 429.872 114.788 426.122 Q114.788 422.396 112.936 420.243 Q111.108 418.067 107.959 418.067 Q104.811 418.067 102.959 420.243 Q101.131 422.396 101.131 426.122 Q101.131 429.872 102.959 432.025 Q104.811 434.178 107.959 434.178 Z" fill="#000000" fill-rule="nonzero" fill-opacity="1" /><path clip-path="url(#clip130)" d="M55.506 173.257 L63.1448 173.257 L63.1448 146.892 L54.8347 148.558 L54.8347 144.299 L63.0985 142.632 L67.7744 142.632 L67.7744 173.257 L75.4133 173.257 L75.4133 177.192 L55.506 177.192 L55.506 173.257 Z" fill="#000000" fill-rule="nonzero" fill-opacity="1" /><path clip-path="url(#clip130)" d="M84.8577 171.313 L89.7419 171.313 L89.7419 177.192 L84.8577 177.192 L84.8577 171.313 Z" fill="#000000" fill-rule="nonzero" fill-opacity="1" /><path clip-path="url(#clip130)" d="M103.955 173.257 L120.274 173.257 L120.274 177.192 L98.3298 177.192 L98.3298 173.257 Q100.992 170.503 105.575 165.873 Q110.182 161.22 111.362 159.878 Q113.608 157.355 114.487 155.618 Q115.39 153.859 115.39 152.169 Q115.39 149.415 113.445 147.679 Q111.524 145.943 108.422 145.943 Q106.223 145.943 103.77 146.706 Q101.339 147.47 98.5613 149.021 L98.5613 144.299 Q101.385 143.165 103.839 142.586 Q106.293 142.007 108.33 142.007 Q113.7 142.007 116.895 144.693 Q120.089 147.378 120.089 151.868 Q120.089 153.998 119.279 155.919 Q118.492 157.817 116.385 160.41 Q115.807 161.081 112.705 164.299 Q109.603 167.493 103.955 173.257 Z" fill="#000000" fill-rule="nonzero" fill-opacity="1" /><polyline clip-path="url(#clip132)" style="stroke:#009af9; stroke-linecap:round; stroke-linejoin:round; stroke-width:16; stroke-opacity:1; fill:none" stroke-dasharray="8, 16" points="218.439,1113.86 228.852,1091.6 239.264,1075.02 249.677,1065.93 260.09,1064.92 270.503,1071.25 280.916,1083.31 291.329,1099.38 301.741,1118.3 312.154,1139.76 322.567,1164.04 332.98,1191.57 343.393,1222.42 353.805,1255.92 364.218,1290.56 374.631,1324.17 385.044,1354.46 395.457,1379.86 405.87,1399.94 416.282,1415.3 426.695,1426.53 437.108,1433.01 447.521,1432.84 457.934,1424.31 468.347,1407.85 478.759,1386.35 489.172,1363.37 499.585,1340.68 509.998,1317.35 520.411,1290.84 530.824,1259.15 541.236,1222.7 551.649,1184.62 562.062,1149.53 572.475,1121.39 582.888,1101.77 593.301,1089.5 603.713,1081.87 614.126,1076.6 624.539,1073.26 634.952,1073.42 645.365,1079.47 655.777,1093.17 666.19,1114.64 676.603,1142.44 687.016,1174.21 697.429,1207.56 707.842,1240.62 718.254,1272.33 728.667,1302.28 739.08,1330.37 749.493,1356.46 759.906,1380.05 770.319,1400.31 780.731,1416.25 791.144,1427.07 801.557,1432.35 811.97,1431.84 822.383,1425.06 832.796,1411.12 843.208,1389.35 853.621,1360.6 864.034,1328.12 874.447,1296.42 884.86,1268.57 895.273,1244 905.685,1219.04 916.098,1190.17 926.511,1157.2 936.924,1123.7 947.337,1094.77 957.749,1074.45 968.162,1064.32 978.575,1063.65 988.988,1070.35 999.401,1082.04 1009.81,1096.81 1020.23,1113.58 1030.64,1132.07 1041.05,1152.66 1051.46,1176.04 1061.88,1202.93 1072.29,1233.71 1082.7,1268.1 1093.12,1304.92 1103.53,1341.89 1113.94,1375.76 1124.35,1402.81 1134.77,1419.78 1145.18,1425.08 1155.59,1420.05 1166.01,1409.65 1176.42,1401.98 1186.83,1405.46 1197.24,1423.23 1207.66,1445.72 1218.07,1445.28 1228.48,1379.52 1238.9,1210.88 1249.31,942.806 1259.72,643.805 1270.13,412.715 1280.55,302.576 1290.96,291.14 1301.37,321.578 1311.79,349.93 1322.2,359.358 1332.61,351.996 1343.02,337.217 1353.44,323.989 1363.85,317.686 1374.26,319.711 1384.68,328.451 1395.09,340.668 1405.5,352.782 1415.91,361.802 1426.33,365.814 1436.74,364.106 1447.15,357.062 1457.57,345.959 1467.98,332.755 1478.39,319.892 1488.8,310.102 1499.22,306.115 1509.63,310.222 1520.04,323.574 1530.45,345.3 1540.87,371.638 1551.28,395.629 1561.69,408.151 1572.11,400.906 1582.52,370.983 1592.93,324.708 1603.34,277.301 1613.76,246.859 1624.17,245.907 1634.58,276.24 1645,329.371 1655.41,390.056 1665.82,440.002 1676.23,462.177 1686.65,446.865 1697.06,397.101 1707.47,328.697 1717.89,263.723 1728.3,221.81 1738.71,214.248 1749.12,242.28 1759.54,298.117 1769.95,367.201 1780.36,431.317 1790.78,472.636 1801.19,478.417 1811.6,445.173 1822.01,380.646 1832.43,302.286 1842.84,232.305 1853.25,191.018 1863.67,190.932 1874.08,233.441 1884.49,308.606 1894.9,397.468 1905.32,476.092 1915.73,520.905 1926.14,515.002 1936.56,454.645 1946.97,353.84 1957.38,243.299 1967.79,160.748 1978.21,135.078 1988.62,173.744 1999.03,261.632 2009.45,370.071 2019.86,468.007 2030.27,529.941 2040.68,540.425 2051.1,496.634 2061.51,409.135 2071.92,300.117 2082.33,198.84 2092.75,134.651 2103.16,128.233 2113.57,183.79 2123.99,286.453 2134.4,407.012 2144.81,511.423 2155.22,570.388 2165.64,566.273 2176.05,497.286 2186.46,379.424 2196.88,245.075 2207.29,135.711 2217.7,87.9763 2228.11,117.93 2238.53,213.006 2248.94,338.464 2259.35,454.824 2269.77,534.72 2280.18,569.818 2290.59,567.384 "/>
<polyline clip-path="url(#clip132)" style="stroke:#e26f46; stroke-linecap:round; stroke-linejoin:round; stroke-width:4; stroke-opacity:1; fill:none" points="218.439,1112.98 228.852,1093.63 239.264,1079.37 249.677,1070.65 260.09,1067.77 270.503,1070.81 280.916,1079.67 291.329,1094.08 301.741,1113.55 312.154,1137.45 322.567,1165.01 332.98,1195.32 343.393,1227.39 353.805,1260.17 364.218,1292.61 374.631,1323.63 385.044,1352.22 395.457,1377.46 405.87,1398.52 416.282,1414.7 426.695,1425.5 437.108,1430.54 447.521,1429.66 457.934,1422.91 468.347,1410.48 478.759,1392.8 489.172,1370.43 499.585,1344.12 509.998,1314.71 520.411,1283.16 530.824,1250.51 541.236,1217.83 551.649,1186.17 562.062,1156.57 572.475,1130 582.888,1107.33 593.301,1089.29 603.713,1076.47 614.126,1069.3 624.539,1068 634.952,1072.62 645.365,1083.01 655.777,1098.82 666.19,1119.55 676.603,1144.51 687.016,1172.9 697.429,1203.78 707.842,1236.15 718.254,1268.94 728.667,1301.1 739.08,1331.57 749.493,1359.35 759.906,1383.54 770.319,1403.36 780.731,1418.14 791.144,1427.42 801.557,1430.88 811.97,1428.42 822.383,1420.12 832.796,1406.24 843.208,1387.24 853.621,1363.74 864.034,1336.5 874.447,1306.42 884.86,1274.48 895.273,1241.72 905.685,1209.2 916.098,1178 926.511,1149.12 936.924,1123.51 947.337,1102.01 957.749,1085.32 968.162,1073.98 978.575,1068.37 988.988,1068.66 999.401,1074.85 1009.81,1086.73 1020.23,1103.92 1030.64,1125.86 1041.05,1151.82 1051.46,1180.97 1061.88,1212.35 1072.29,1244.94 1082.7,1277.67 1093.12,1309.47 1103.53,1339.31 1113.94,1366.22 1124.35,1389.31 1134.77,1407.84 1145.18,1421.19 1155.59,1428.93 1166.01,1430.81 1176.42,1426.76 1186.83,1416.93 1197.24,1401.63 1207.66,1381.35 1218.07,1356.77 1228.48,1328.68 1238.9,1298 1249.31,1265.74 1259.72,340.164 1270.13,338.664 1280.55,340.03 1290.96,344.576 1301.37,350.909 1311.79,356.353 1322.2,357.966 1332.61,353.776 1343.02,343.79 1353.44,330.327 1363.85,317.516 1374.26,310.032 1384.68,311.468 1395.09,322.887 1405.5,342.093 1415.91,363.951 1426.33,381.75 1436.74,389.258 1447.15,382.831 1457.57,362.889 1467.98,334.206 1478.39,304.81 1488.8,283.742 1499.22,278.284 1509.63,291.515 1520.04,320.991 1530.45,359.059 1540.87,394.819 1551.28,417.247 1561.69,418.575 1572.11,396.908 1582.52,357.198 1592.93,310.192 1603.34,269.532 1613.76,247.796 1624.17,252.629 1634.58,284.141 1645,334.448 1655.41,389.597 1665.82,433.434 1676.23,452.334 1686.65,439.41 1697.06,396.91 1707.47,335.996 1717.89,273.835 1728.3,228.763 1738.71,214.881 1749.12,237.675 1759.54,292.003 1769.95,363.174 1780.36,430.903 1790.78,475.09 1801.19,481.783 1811.6,447.545 1822.01,380.877 1832.43,300.161 1842.84,228.6 1853.25,187.546 1863.67,190.141 1874.08,237.153 1884.49,316.318 1894.9,405.509 1905.32,478.916 1915.73,514.511 1926.14,500.65 1936.56,439.825 1946.97,348.374 1957.38,252.117 1967.79,179.068 1978.21,151.281 1988.62,178.209 1999.03,253.565 2009.45,356.714 2019.86,458.304 2030.27,528.625 2040.68,546.288 2051.1,504.715 2061.51,414.463 2071.92,300.582 2082.33,195.68 2092.75,130.58 2103.16,125.27 2113.57,182.791 2123.99,287.928 2134.4,411.205 2144.81,517.141 2155.22,574.465 2165.64,565.338 2176.05,490.874 2186.46,371.253 2196.88,240.271 2207.29,135.793 2217.7,88.814 2228.11,114.264 2238.53,206.314 2248.94,339.619 2259.35,476.286 2269.77,576.646 2280.18,610.762 2290.59,567.35 "/>
<path clip-path="url(#clip130)" d="M229.49 250.738 L675.966 250.738 L675.966 95.2176 L229.49 95.2176  Z" fill="#ffffff" fill-rule="evenodd" fill-opacity="1"/>
<polyline clip-path="url(#clip130)" style="stroke:#000000; stroke-linecap:round; stroke-linejoin:round; stroke-width:4; stroke-opacity:1; fill:none" points="229.49,250.738 675.966,250.738 675.966,95.2176 229.49,95.2176 229.49,250.738 "/>
<polyline clip-path="url(#clip130)" style="stroke:#009af9; stroke-linecap:round; stroke-linejoin:round; stroke-width:16; stroke-opacity:1; fill:none" stroke-dasharray="8, 16" points="253.896,147.058 400.328,147.058 "/>
<path clip-path="url(#clip130)" d="M429.409 133.62 L429.409 146.606 L435.289 146.606 Q438.552 146.606 440.335 144.916 Q442.117 143.227 442.117 140.102 Q442.117 137 440.335 135.31 Q438.552 133.62 435.289 133.62 L429.409 133.62 M424.733 129.778 L435.289 129.778 Q441.099 129.778 444.062 132.416 Q447.048 135.032 447.048 140.102 Q447.048 145.217 444.062 147.833 Q441.099 150.449 435.289 150.449 L429.409 150.449 L429.409 164.338 L424.733 164.338 L424.733 129.778 Z" fill="#000000" fill-rule="nonzero" fill-opacity="1" /><path clip-path="url(#clip130)" d="M467.325 142.393 Q466.608 141.977 465.751 141.791 Q464.918 141.583 463.899 141.583 Q460.288 141.583 458.344 143.944 Q456.423 146.282 456.423 150.68 L456.423 164.338 L452.14 164.338 L452.14 138.412 L456.423 138.412 L456.423 142.44 Q457.765 140.078 459.918 138.944 Q462.071 137.787 465.149 137.787 Q465.589 137.787 466.122 137.856 Q466.654 137.903 467.302 138.018 L467.325 142.393 Z" fill="#000000" fill-rule="nonzero" fill-opacity="1" /><path clip-path="url(#clip130)" d="M492.927 150.31 L492.927 152.393 L473.344 152.393 Q473.622 156.791 475.983 159.106 Q478.367 161.398 482.603 161.398 Q485.057 161.398 487.348 160.796 Q489.663 160.194 491.932 158.99 L491.932 163.018 Q489.64 163.99 487.233 164.5 Q484.825 165.009 482.348 165.009 Q476.145 165.009 472.511 161.398 Q468.899 157.787 468.899 151.629 Q468.899 145.264 472.325 141.537 Q475.774 137.787 481.608 137.787 Q486.839 137.787 489.872 141.166 Q492.927 144.523 492.927 150.31 M488.668 149.06 Q488.622 145.565 486.7 143.481 Q484.802 141.398 481.654 141.398 Q478.089 141.398 475.936 143.412 Q473.807 145.426 473.483 149.083 L488.668 149.06 Z" fill="#000000" fill-rule="nonzero" fill-opacity="1" /><path clip-path="url(#clip130)" d="M516.978 142.347 L516.978 128.319 L521.237 128.319 L521.237 164.338 L516.978 164.338 L516.978 160.449 Q515.635 162.763 513.575 163.898 Q511.538 165.009 508.668 165.009 Q503.969 165.009 501.006 161.259 Q498.066 157.509 498.066 151.398 Q498.066 145.287 501.006 141.537 Q503.969 137.787 508.668 137.787 Q511.538 137.787 513.575 138.921 Q515.635 140.032 516.978 142.347 M502.464 151.398 Q502.464 156.097 504.385 158.782 Q506.33 161.444 509.709 161.444 Q513.089 161.444 515.033 158.782 Q516.978 156.097 516.978 151.398 Q516.978 146.699 515.033 144.037 Q513.089 141.352 509.709 141.352 Q506.33 141.352 504.385 144.037 Q502.464 146.699 502.464 151.398 Z" fill="#000000" fill-rule="nonzero" fill-opacity="1" /><path clip-path="url(#clip130)" d="M530.01 138.412 L534.269 138.412 L534.269 164.338 L530.01 164.338 L530.01 138.412 M530.01 128.319 L534.269 128.319 L534.269 133.713 L530.01 133.713 L530.01 128.319 Z" fill="#000000" fill-rule="nonzero" fill-opacity="1" /><path clip-path="url(#clip130)" d="M561.839 139.407 L561.839 143.389 Q560.033 142.393 558.205 141.907 Q556.399 141.398 554.547 141.398 Q550.404 141.398 548.112 144.037 Q545.82 146.652 545.82 151.398 Q545.82 156.143 548.112 158.782 Q550.404 161.398 554.547 161.398 Q556.399 161.398 558.205 160.912 Q560.033 160.402 561.839 159.407 L561.839 163.342 Q560.056 164.176 558.135 164.592 Q556.237 165.009 554.084 165.009 Q548.228 165.009 544.779 161.328 Q541.33 157.648 541.33 151.398 Q541.33 145.055 544.802 141.421 Q548.297 137.787 554.362 137.787 Q556.33 137.787 558.205 138.203 Q560.08 138.597 561.839 139.407 Z" fill="#000000" fill-rule="nonzero" fill-opacity="1" /><path clip-path="url(#clip130)" d="M573.459 131.051 L573.459 138.412 L582.232 138.412 L582.232 141.722 L573.459 141.722 L573.459 155.796 Q573.459 158.967 574.316 159.87 Q575.195 160.773 577.857 160.773 L582.232 160.773 L582.232 164.338 L577.857 164.338 Q572.927 164.338 571.052 162.509 Q569.177 160.657 569.177 155.796 L569.177 141.722 L566.052 141.722 L566.052 138.412 L569.177 138.412 L569.177 131.051 L573.459 131.051 Z" fill="#000000" fill-rule="nonzero" fill-opacity="1" /><path clip-path="url(#clip130)" d="M587.834 138.412 L592.093 138.412 L592.093 164.338 L587.834 164.338 L587.834 138.412 M587.834 128.319 L592.093 128.319 L592.093 133.713 L587.834 133.713 L587.834 128.319 Z" fill="#000000" fill-rule="nonzero" fill-opacity="1" /><path clip-path="url(#clip130)" d="M611.051 141.398 Q607.626 141.398 605.635 144.083 Q603.644 146.745 603.644 151.398 Q603.644 156.051 605.612 158.736 Q607.602 161.398 611.051 161.398 Q614.454 161.398 616.445 158.713 Q618.436 156.027 618.436 151.398 Q618.436 146.791 616.445 144.106 Q614.454 141.398 611.051 141.398 M611.051 137.787 Q616.607 137.787 619.778 141.398 Q622.95 145.009 622.95 151.398 Q622.95 157.764 619.778 161.398 Q616.607 165.009 611.051 165.009 Q605.473 165.009 602.302 161.398 Q599.153 157.764 599.153 151.398 Q599.153 145.009 602.302 141.398 Q605.473 137.787 611.051 137.787 Z" fill="#000000" fill-rule="nonzero" fill-opacity="1" /><path clip-path="url(#clip130)" d="M651.561 148.689 L651.561 164.338 L647.301 164.338 L647.301 148.828 Q647.301 145.148 645.866 143.319 Q644.431 141.49 641.561 141.49 Q638.112 141.49 636.121 143.69 Q634.13 145.889 634.13 149.685 L634.13 164.338 L629.848 164.338 L629.848 138.412 L634.13 138.412 L634.13 142.44 Q635.658 140.102 637.718 138.944 Q639.801 137.787 642.51 137.787 Q646.977 137.787 649.269 140.565 Q651.561 143.319 651.561 148.689 Z" fill="#000000" fill-rule="nonzero" fill-opacity="1" /><polyline clip-path="url(#clip130)" style="stroke:#e26f46; stroke-linecap:round; stroke-linejoin:round; stroke-width:4; stroke-opacity:1; fill:none" points="253.896,198.898 400.328,198.898 "/>
<path clip-path="url(#clip130)" d="M424.733 181.618 L446.585 181.618 L446.585 185.553 L429.409 185.553 L429.409 195.784 L445.867 195.784 L445.867 199.719 L429.409 199.719 L429.409 212.242 L447.001 212.242 L447.001 216.178 L424.733 216.178 L424.733 181.618 Z" fill="#000000" fill-rule="nonzero" fill-opacity="1" /><path clip-path="url(#clip130)" d="M476.052 190.252 L466.677 202.867 L476.538 216.178 L471.515 216.178 L463.969 205.992 L456.423 216.178 L451.4 216.178 L461.469 202.613 L452.256 190.252 L457.279 190.252 L464.154 199.488 L471.029 190.252 L476.052 190.252 Z" fill="#000000" fill-rule="nonzero" fill-opacity="1" /><path clip-path="url(#clip130)" d="M494.339 203.145 Q489.177 203.145 487.186 204.326 Q485.196 205.506 485.196 208.354 Q485.196 210.622 486.677 211.965 Q488.182 213.284 490.751 213.284 Q494.293 213.284 496.422 210.784 Q498.575 208.261 498.575 204.094 L498.575 203.145 L494.339 203.145 M502.834 201.386 L502.834 216.178 L498.575 216.178 L498.575 212.242 Q497.117 214.603 494.941 215.738 Q492.765 216.849 489.617 216.849 Q485.635 216.849 483.274 214.627 Q480.936 212.381 480.936 208.631 Q480.936 204.256 483.853 202.034 Q486.793 199.812 492.603 199.812 L498.575 199.812 L498.575 199.395 Q498.575 196.455 496.631 194.858 Q494.71 193.238 491.214 193.238 Q488.992 193.238 486.885 193.77 Q484.779 194.303 482.835 195.367 L482.835 191.432 Q485.173 190.53 487.372 190.09 Q489.571 189.627 491.654 189.627 Q497.279 189.627 500.057 192.543 Q502.834 195.46 502.834 201.386 Z" fill="#000000" fill-rule="nonzero" fill-opacity="1" /><path clip-path="url(#clip130)" d="M530.265 191.247 L530.265 195.229 Q528.459 194.233 526.631 193.747 Q524.825 193.238 522.973 193.238 Q518.83 193.238 516.538 195.877 Q514.246 198.492 514.246 203.238 Q514.246 207.983 516.538 210.622 Q518.83 213.238 522.973 213.238 Q524.825 213.238 526.631 212.752 Q528.459 212.242 530.265 211.247 L530.265 215.182 Q528.482 216.016 526.561 216.432 Q524.663 216.849 522.51 216.849 Q516.654 216.849 513.205 213.168 Q509.756 209.488 509.756 203.238 Q509.756 196.895 513.228 193.261 Q516.723 189.627 522.788 189.627 Q524.756 189.627 526.631 190.043 Q528.506 190.437 530.265 191.247 Z" fill="#000000" fill-rule="nonzero" fill-opacity="1" /><path clip-path="url(#clip130)" d="M541.885 182.891 L541.885 190.252 L550.658 190.252 L550.658 193.562 L541.885 193.562 L541.885 207.636 Q541.885 210.807 542.742 211.71 Q543.621 212.613 546.283 212.613 L550.658 212.613 L550.658 216.178 L546.283 216.178 Q541.353 216.178 539.478 214.349 Q537.603 212.497 537.603 207.636 L537.603 193.562 L534.478 193.562 L534.478 190.252 L537.603 190.252 L537.603 182.891 L541.885 182.891 Z" fill="#000000" fill-rule="nonzero" fill-opacity="1" /></svg>
