<?xml version="1.0" encoding="utf-8"?>
<svg xmlns="http://www.w3.org/2000/svg" xmlns:xlink="http://www.w3.org/1999/xlink" width="600" height="400" viewBox="0 0 2400 1600">
<defs>
  <clipPath id="clip120">
    <rect x="0" y="0" width="2400" height="1600"/>
  </clipPath>
</defs>
<path clip-path="url(#clip120)" d="M0 1600 L2400 1600 L2400 0 L0 0  Z" fill="#ffffff" fill-rule="evenodd" fill-opacity="1"/>
<defs>
  <clipPath id="clip121">
    <rect x="480" y="0" width="1681" height="1600"/>
  </clipPath>
</defs>
<path clip-path="url(#clip120)" d="M223.103 1486.45 L2352.76 1486.45 L2352.76 47.2441 L223.103 47.2441  Z" fill="#ffffff" fill-rule="evenodd" fill-opacity="1"/>
<defs>
  <clipPath id="clip122">
    <rect x="223" y="47" width="2131" height="1440"/>
  </clipPath>
</defs>
<polyline clip-path="url(#clip122)" style="stroke:#000000; stroke-linecap:round; stroke-linejoin:round; stroke-width:2; stroke-opacity:0.1; fill:none" points="283.376,1486.45 283.376,47.2441 "/>
<polyline clip-path="url(#clip122)" style="stroke:#000000; stroke-linecap:round; stroke-linejoin:round; stroke-width:2; stroke-opacity:0.1; fill:none" points="785.652,1486.45 785.652,47.2441 "/>
<polyline clip-path="url(#clip122)" style="stroke:#000000; stroke-linecap:round; stroke-linejoin:round; stroke-width:2; stroke-opacity:0.1; fill:none" points="1287.93,1486.45 1287.93,47.2441 "/>
<polyline clip-path="url(#clip122)" style="stroke:#000000; stroke-linecap:round; stroke-linejoin:round; stroke-width:2; stroke-opacity:0.1; fill:none" points="1790.21,1486.45 1790.21,47.2441 "/>
<polyline clip-path="url(#clip122)" style="stroke:#000000; stroke-linecap:round; stroke-linejoin:round; stroke-width:2; stroke-opacity:0.1; fill:none" points="2292.48,1486.45 2292.48,47.2441 "/>
<polyline clip-path="url(#clip120)" style="stroke:#000000; stroke-linecap:round; stroke-linejoin:round; stroke-width:4; stroke-opacity:1; fill:none" points="223.103,1486.45 2352.76,1486.45 "/>
<polyline clip-path="url(#clip120)" style="stroke:#000000; stroke-linecap:round; stroke-linejoin:round; stroke-width:4; stroke-opacity:1; fill:none" points="283.376,1486.45 283.376,1467.55 "/>
<polyline clip-path="url(#clip120)" style="stroke:#000000; stroke-linecap:round; stroke-linejoin:round; stroke-width:4; stroke-opacity:1; fill:none" points="785.652,1486.45 785.652,1467.55 "/>
<polyline clip-path="url(#clip120)" style="stroke:#000000; stroke-linecap:round; stroke-linejoin:round; stroke-width:4; stroke-opacity:1; fill:none" points="1287.93,1486.45 1287.93,1467.55 "/>
<polyline clip-path="url(#clip120)" style="stroke:#000000; stroke-linecap:round; stroke-linejoin:round; stroke-width:4; stroke-opacity:1; fill:none" points="1790.21,1486.45 1790.21,1467.55 "/>
<polyline clip-path="url(#clip120)" style="stroke:#000000; stroke-linecap:round; stroke-linejoin:round; stroke-width:4; stroke-opacity:1; fill:none" points="2292.48,1486.45 2292.48,1467.55 "/>
<path clip-path="url(#clip120)" d="M229.904 1532.02 L259.58 1532.02 L259.58 1535.95 L229.904 1535.95 L229.904 1532.02 Z" fill="#000000" fill-rule="nonzero" fill-opacity="1" /><path clip-path="url(#clip120)" d="M270.482 1544.91 L278.121 1544.91 L278.121 1518.55 L269.811 1520.21 L269.811 1515.95 L278.075 1514.29 L282.751 1514.29 L282.751 1544.91 L290.39 1544.91 L290.39 1548.85 L270.482 1548.85 L270.482 1544.91 Z" fill="#000000" fill-rule="nonzero" fill-opacity="1" /><path clip-path="url(#clip120)" d="M299.834 1542.97 L304.718 1542.97 L304.718 1548.85 L299.834 1548.85 L299.834 1542.97 Z" fill="#000000" fill-rule="nonzero" fill-opacity="1" /><path clip-path="url(#clip120)" d="M324.903 1517.37 Q321.292 1517.37 319.463 1520.93 Q317.658 1524.47 317.658 1531.6 Q317.658 1538.71 319.463 1542.27 Q321.292 1545.82 324.903 1545.82 Q328.538 1545.82 330.343 1542.27 Q332.172 1538.71 332.172 1531.6 Q332.172 1524.47 330.343 1520.93 Q328.538 1517.37 324.903 1517.37 M324.903 1513.66 Q330.713 1513.66 333.769 1518.27 Q336.848 1522.85 336.848 1531.6 Q336.848 1540.33 333.769 1544.94 Q330.713 1549.52 324.903 1549.52 Q319.093 1549.52 316.014 1544.94 Q312.959 1540.33 312.959 1531.6 Q312.959 1522.85 316.014 1518.27 Q319.093 1513.66 324.903 1513.66 Z" fill="#000000" fill-rule="nonzero" fill-opacity="1" /><path clip-path="url(#clip120)" d="M732.678 1532.02 L762.354 1532.02 L762.354 1535.95 L732.678 1535.95 L732.678 1532.02 Z" fill="#000000" fill-rule="nonzero" fill-opacity="1" /><path clip-path="url(#clip120)" d="M782.446 1517.37 Q778.835 1517.37 777.007 1520.93 Q775.201 1524.47 775.201 1531.6 Q775.201 1538.71 777.007 1542.27 Q778.835 1545.82 782.446 1545.82 Q786.081 1545.82 787.886 1542.27 Q789.715 1538.71 789.715 1531.6 Q789.715 1524.47 787.886 1520.93 Q786.081 1517.37 782.446 1517.37 M782.446 1513.66 Q788.257 1513.66 791.312 1518.27 Q794.391 1522.85 794.391 1531.6 Q794.391 1540.33 791.312 1544.94 Q788.257 1549.52 782.446 1549.52 Q776.636 1549.52 773.558 1544.94 Q770.502 1540.33 770.502 1531.6 Q770.502 1522.85 773.558 1518.27 Q776.636 1513.66 782.446 1513.66 Z" fill="#000000" fill-rule="nonzero" fill-opacity="1" /><path clip-path="url(#clip120)" d="M802.608 1542.97 L807.493 1542.97 L807.493 1548.85 L802.608 1548.85 L802.608 1542.97 Z" fill="#000000" fill-rule="nonzero" fill-opacity="1" /><path clip-path="url(#clip120)" d="M817.724 1514.29 L836.08 1514.29 L836.08 1518.22 L822.006 1518.22 L822.006 1526.7 Q823.025 1526.35 824.043 1526.19 Q825.062 1526 826.08 1526 Q831.867 1526 835.247 1529.17 Q838.627 1532.34 838.627 1537.76 Q838.627 1543.34 835.155 1546.44 Q831.682 1549.52 825.363 1549.52 Q823.187 1549.52 820.918 1549.15 Q818.673 1548.78 816.266 1548.04 L816.266 1543.34 Q818.349 1544.47 820.571 1545.03 Q822.793 1545.58 825.27 1545.58 Q829.275 1545.58 831.613 1543.48 Q833.951 1541.37 833.951 1537.76 Q833.951 1534.15 831.613 1532.04 Q829.275 1529.94 825.27 1529.94 Q823.395 1529.94 821.52 1530.35 Q819.668 1530.77 817.724 1531.65 L817.724 1514.29 Z" fill="#000000" fill-rule="nonzero" fill-opacity="1" /><path clip-path="url(#clip120)" d="M1265.31 1517.37 Q1261.7 1517.37 1259.87 1520.93 Q1258.07 1524.47 1258.07 1531.6 Q1258.07 1538.71 1259.87 1542.27 Q1261.7 1545.82 1265.31 1545.82 Q1268.95 1545.82 1270.75 1542.27 Q1272.58 1538.71 1272.58 1531.6 Q1272.58 1524.47 1270.75 1520.93 Q1268.95 1517.37 1265.31 1517.37 M1265.31 1513.66 Q1271.12 1513.66 1274.18 1518.27 Q1277.26 1522.85 1277.26 1531.6 Q1277.26 1540.33 1274.18 1544.94 Q1271.12 1549.52 1265.31 1549.52 Q1259.5 1549.52 1256.42 1544.94 Q1253.37 1540.33 1253.37 1531.6 Q1253.37 1522.85 1256.42 1518.27 Q1259.5 1513.66 1265.31 1513.66 Z" fill="#000000" fill-rule="nonzero" fill-opacity="1" /><path clip-path="url(#clip120)" d="M1285.48 1542.97 L1290.36 1542.97 L1290.36 1548.85 L1285.48 1548.85 L1285.48 1542.97 Z" fill="#000000" fill-rule="nonzero" fill-opacity="1" /><path clip-path="url(#clip120)" d="M1310.54 1517.37 Q1306.93 1517.37 1305.11 1520.93 Q1303.3 1524.47 1303.3 1531.6 Q1303.3 1538.71 1305.11 1542.27 Q1306.93 1545.82 1310.54 1545.82 Q1314.18 1545.82 1315.98 1542.27 Q1317.81 1538.71 1317.81 1531.6 Q1317.81 1524.47 1315.98 1520.93 Q1314.18 1517.37 1310.54 1517.37 M1310.54 1513.66 Q1316.35 1513.66 1319.41 1518.27 Q1322.49 1522.85 1322.49 1531.6 Q1322.49 1540.33 1319.41 1544.94 Q1316.35 1549.52 1310.54 1549.52 Q1304.73 1549.52 1301.66 1544.94 Q1298.6 1540.33 1298.6 1531.6 Q1298.6 1522.85 1301.66 1518.27 Q1304.73 1513.66 1310.54 1513.66 Z" fill="#000000" fill-rule="nonzero" fill-opacity="1" /><path clip-path="url(#clip120)" d="M1768.09 1517.37 Q1764.48 1517.37 1762.65 1520.93 Q1760.84 1524.47 1760.84 1531.6 Q1760.84 1538.71 1762.65 1542.27 Q1764.48 1545.82 1768.09 1545.82 Q1771.72 1545.82 1773.53 1542.27 Q1775.36 1538.71 1775.36 1531.6 Q1775.36 1524.47 1773.53 1520.93 Q1771.72 1517.37 1768.09 1517.37 M1768.09 1513.66 Q1773.9 1513.66 1776.95 1518.27 Q1780.03 1522.85 1780.03 1531.6 Q1780.03 1540.33 1776.95 1544.94 Q1773.9 1549.52 1768.09 1549.52 Q1762.28 1549.52 1759.2 1544.94 Q1756.14 1540.33 1756.14 1531.6 Q1756.14 1522.85 1759.2 1518.27 Q1762.28 1513.66 1768.09 1513.66 Z" fill="#000000" fill-rule="nonzero" fill-opacity="1" /><path clip-path="url(#clip120)" d="M1788.25 1542.97 L1793.13 1542.97 L1793.13 1548.85 L1788.25 1548.85 L1788.25 1542.97 Z" fill="#000000" fill-rule="nonzero" fill-opacity="1" /><path clip-path="url(#clip120)" d="M1803.37 1514.29 L1821.72 1514.29 L1821.72 1518.22 L1807.65 1518.22 L1807.65 1526.7 Q1808.67 1526.35 1809.69 1526.19 Q1810.7 1526 1811.72 1526 Q1817.51 1526 1820.89 1529.17 Q1824.27 1532.34 1824.27 1537.76 Q1824.27 1543.34 1820.8 1546.44 Q1817.32 1549.52 1811 1549.52 Q1808.83 1549.52 1806.56 1549.15 Q1804.31 1548.78 1801.91 1548.04 L1801.91 1543.34 Q1803.99 1544.47 1806.21 1545.03 Q1808.44 1545.58 1810.91 1545.58 Q1814.92 1545.58 1817.25 1543.48 Q1819.59 1541.37 1819.59 1537.76 Q1819.59 1534.15 1817.25 1532.04 Q1814.92 1529.94 1810.91 1529.94 Q1809.04 1529.94 1807.16 1530.35 Q1805.31 1530.77 1803.37 1531.65 L1803.37 1514.29 Z" fill="#000000" fill-rule="nonzero" fill-opacity="1" /><path clip-path="url(#clip120)" d="M2259.64 1544.91 L2267.27 1544.91 L2267.27 1518.55 L2258.96 1520.21 L2258.96 1515.95 L2267.23 1514.29 L2271.9 1514.29 L2271.9 1544.91 L2279.54 1544.91 L2279.54 1548.85 L2259.64 1548.85 L2259.64 1544.91 Z" fill="#000000" fill-rule="nonzero" fill-opacity="1" /><path clip-path="url(#clip120)" d="M2288.99 1542.97 L2293.87 1542.97 L2293.87 1548.85 L2288.99 1548.85 L2288.99 1542.97 Z" fill="#000000" fill-rule="nonzero" fill-opacity="1" /><path clip-path="url(#clip120)" d="M2314.06 1517.37 Q2310.45 1517.37 2308.62 1520.93 Q2306.81 1524.47 2306.81 1531.6 Q2306.81 1538.71 2308.62 1542.27 Q2310.45 1545.82 2314.06 1545.82 Q2317.69 1545.82 2319.5 1542.27 Q2321.33 1538.71 2321.33 1531.6 Q2321.33 1524.47 2319.5 1520.93 Q2317.69 1517.37 2314.06 1517.37 M2314.06 1513.66 Q2319.87 1513.66 2322.92 1518.27 Q2326 1522.85 2326 1531.6 Q2326 1540.33 2322.92 1544.94 Q2319.87 1549.52 2314.06 1549.52 Q2308.25 1549.52 2305.17 1544.94 Q2302.11 1540.33 2302.11 1531.6 Q2302.11 1522.85 2305.17 1518.27 Q2308.25 1513.66 2314.06 1513.66 Z" fill="#000000" fill-rule="nonzero" fill-opacity="1" /><polyline clip-path="url(#clip122)" style="stroke:#000000; stroke-linecap:round; stroke-linejoin:round; stroke-width:2; stroke-opacity:0.1; fill:none" points="223.103,1321.11 2352.76,1321.11 "/>
<polyline clip-path="url(#clip122)" style="stroke:#000000; stroke-linecap:round; stroke-linejoin:round; stroke-width:2; stroke-opacity:0.1; fill:none" points="223.103,1119.39 2352.76,1119.39 "/>
<polyline clip-path="url(#clip122)" style="stroke:#000000; stroke-linecap:round; stroke-linejoin:round; stroke-width:2; stroke-opacity:0.1; fill:none" points="223.103,917.68 2352.76,917.68 "/>
<polyline clip-path="url(#clip122)" style="stroke:#000000; stroke-linecap:round; stroke-linejoin:round; stroke-width:2; stroke-opacity:0.1; fill:none" points="223.103,715.966 2352.76,715.966 "/>
<polyline clip-path="url(#clip122)" style="stroke:#000000; stroke-linecap:round; stroke-linejoin:round; stroke-width:2; stroke-opacity:0.1; fill:none" points="223.103,514.251 2352.76,514.251 "/>
<polyline clip-path="url(#clip122)" style="stroke:#000000; stroke-linecap:round; stroke-linejoin:round; stroke-width:2; stroke-opacity:0.1; fill:none" points="223.103,312.537 2352.76,312.537 "/>
<polyline clip-path="url(#clip122)" style="stroke:#000000; stroke-linecap:round; stroke-linejoin:round; stroke-width:2; stroke-opacity:0.1; fill:none" points="223.103,110.822 2352.76,110.822 "/>
<polyline clip-path="url(#clip120)" style="stroke:#000000; stroke-linecap:round; stroke-linejoin:round; stroke-width:4; stroke-opacity:1; fill:none" points="223.103,1486.45 223.103,47.2441 "/>
<polyline clip-path="url(#clip120)" style="stroke:#000000; stroke-linecap:round; stroke-linejoin:round; stroke-width:4; stroke-opacity:1; fill:none" points="223.103,1321.11 242,1321.11 "/>
<polyline clip-path="url(#clip120)" style="stroke:#000000; stroke-linecap:round; stroke-linejoin:round; stroke-width:4; stroke-opacity:1; fill:none" points="223.103,1119.39 242,1119.39 "/>
<polyline clip-path="url(#clip120)" style="stroke:#000000; stroke-linecap:round; stroke-linejoin:round; stroke-width:4; stroke-opacity:1; fill:none" points="223.103,917.68 242,917.68 "/>
<polyline clip-path="url(#clip120)" style="stroke:#000000; stroke-linecap:round; stroke-linejoin:round; stroke-width:4; stroke-opacity:1; fill:none" points="223.103,715.966 242,715.966 "/>
<polyline clip-path="url(#clip120)" style="stroke:#000000; stroke-linecap:round; stroke-linejoin:round; stroke-width:4; stroke-opacity:1; fill:none" points="223.103,514.251 242,514.251 "/>
<polyline clip-path="url(#clip120)" style="stroke:#000000; stroke-linecap:round; stroke-linejoin:round; stroke-width:4; stroke-opacity:1; fill:none" points="223.103,312.537 242,312.537 "/>
<polyline clip-path="url(#clip120)" style="stroke:#000000; stroke-linecap:round; stroke-linejoin:round; stroke-width:4; stroke-opacity:1; fill:none" points="223.103,110.822 242,110.822 "/>
<path clip-path="url(#clip120)" d="M50.9921 1321.56 L80.6679 1321.56 L80.6679 1325.5 L50.9921 1325.5 L50.9921 1321.56 Z" fill="#000000" fill-rule="nonzero" fill-opacity="1" /><path clip-path="url(#clip120)" d="M100.76 1306.91 Q97.1493 1306.91 95.3206 1310.47 Q93.515 1314.01 93.515 1321.14 Q93.515 1328.25 95.3206 1331.81 Q97.1493 1335.36 100.76 1335.36 Q104.395 1335.36 106.2 1331.81 Q108.029 1328.25 108.029 1321.14 Q108.029 1314.01 106.2 1310.47 Q104.395 1306.91 100.76 1306.91 M100.76 1303.2 Q106.571 1303.2 109.626 1307.81 Q112.705 1312.39 112.705 1321.14 Q112.705 1329.87 109.626 1334.48 Q106.571 1339.06 100.76 1339.06 Q94.9502 1339.06 91.8715 1334.48 Q88.816 1329.87 88.816 1321.14 Q88.816 1312.39 91.8715 1307.81 Q94.9502 1303.2 100.76 1303.2 Z" fill="#000000" fill-rule="nonzero" fill-opacity="1" /><path clip-path="url(#clip120)" d="M120.922 1332.51 L125.807 1332.51 L125.807 1338.39 L120.922 1338.39 L120.922 1332.51 Z" fill="#000000" fill-rule="nonzero" fill-opacity="1" /><path clip-path="url(#clip120)" d="M140.019 1334.45 L156.339 1334.45 L156.339 1338.39 L134.394 1338.39 L134.394 1334.45 Q137.056 1331.7 141.64 1327.07 Q146.246 1322.42 147.427 1321.07 Q149.672 1318.55 150.552 1316.81 Q151.455 1315.06 151.455 1313.37 Q151.455 1310.61 149.51 1308.87 Q147.589 1307.14 144.487 1307.14 Q142.288 1307.14 139.834 1307.9 Q137.404 1308.67 134.626 1310.22 L134.626 1305.5 Q137.45 1304.36 139.904 1303.78 Q142.357 1303.2 144.394 1303.2 Q149.765 1303.2 152.959 1305.89 Q156.154 1308.57 156.154 1313.06 Q156.154 1315.19 155.343 1317.12 Q154.556 1319.01 152.45 1321.61 Q151.871 1322.28 148.769 1325.5 Q145.668 1328.69 140.019 1334.45 Z" fill="#000000" fill-rule="nonzero" fill-opacity="1" /><path clip-path="url(#clip120)" d="M166.2 1303.83 L184.556 1303.83 L184.556 1307.76 L170.482 1307.76 L170.482 1316.24 Q171.501 1315.89 172.519 1315.73 Q173.538 1315.54 174.556 1315.54 Q180.343 1315.54 183.723 1318.71 Q187.103 1321.88 187.103 1327.3 Q187.103 1332.88 183.63 1335.98 Q180.158 1339.06 173.839 1339.06 Q171.663 1339.06 169.394 1338.69 Q167.149 1338.32 164.742 1337.58 L164.742 1332.88 Q166.825 1334.01 169.047 1334.57 Q171.269 1335.12 173.746 1335.12 Q177.751 1335.12 180.089 1333.02 Q182.427 1330.91 182.427 1327.3 Q182.427 1323.69 180.089 1321.58 Q177.751 1319.48 173.746 1319.48 Q171.871 1319.48 169.996 1319.89 Q168.144 1320.31 166.2 1321.19 L166.2 1303.83 Z" fill="#000000" fill-rule="nonzero" fill-opacity="1" /><path clip-path="url(#clip120)" d="M99.765 1105.19 Q96.1539 1105.19 94.3252 1108.76 Q92.5197 1112.3 92.5197 1119.43 Q92.5197 1126.54 94.3252 1130.1 Q96.1539 1133.64 99.765 1133.64 Q103.399 1133.64 105.205 1130.1 Q107.033 1126.54 107.033 1119.43 Q107.033 1112.3 105.205 1108.76 Q103.399 1105.19 99.765 1105.19 M99.765 1101.49 Q105.575 1101.49 108.631 1106.1 Q111.709 1110.68 111.709 1119.43 Q111.709 1128.16 108.631 1132.76 Q105.575 1137.35 99.765 1137.35 Q93.9549 1137.35 90.8762 1132.76 Q87.8206 1128.16 87.8206 1119.43 Q87.8206 1110.68 90.8762 1106.1 Q93.9549 1101.49 99.765 1101.49 Z" fill="#000000" fill-rule="nonzero" fill-opacity="1" /><path clip-path="url(#clip120)" d="M119.927 1130.79 L124.811 1130.79 L124.811 1136.67 L119.927 1136.67 L119.927 1130.79 Z" fill="#000000" fill-rule="nonzero" fill-opacity="1" /><path clip-path="url(#clip120)" d="M144.996 1105.19 Q141.385 1105.19 139.556 1108.76 Q137.751 1112.3 137.751 1119.43 Q137.751 1126.54 139.556 1130.1 Q141.385 1133.64 144.996 1133.64 Q148.63 1133.64 150.436 1130.1 Q152.265 1126.54 152.265 1119.43 Q152.265 1112.3 150.436 1108.76 Q148.63 1105.19 144.996 1105.19 M144.996 1101.49 Q150.806 1101.49 153.862 1106.1 Q156.941 1110.68 156.941 1119.43 Q156.941 1128.16 153.862 1132.76 Q150.806 1137.35 144.996 1137.35 Q139.186 1137.35 136.107 1132.76 Q133.052 1128.16 133.052 1119.43 Q133.052 1110.68 136.107 1106.1 Q139.186 1101.49 144.996 1101.49 Z" fill="#000000" fill-rule="nonzero" fill-opacity="1" /><path clip-path="url(#clip120)" d="M175.158 1105.19 Q171.547 1105.19 169.718 1108.76 Q167.913 1112.3 167.913 1119.43 Q167.913 1126.54 169.718 1130.1 Q171.547 1133.64 175.158 1133.64 Q178.792 1133.64 180.598 1130.1 Q182.427 1126.54 182.427 1119.43 Q182.427 1112.3 180.598 1108.76 Q178.792 1105.19 175.158 1105.19 M175.158 1101.49 Q180.968 1101.49 184.024 1106.1 Q187.103 1110.68 187.103 1119.43 Q187.103 1128.16 184.024 1132.76 Q180.968 1137.35 175.158 1137.35 Q169.348 1137.35 166.269 1132.76 Q163.214 1128.16 163.214 1119.43 Q163.214 1110.68 166.269 1106.1 Q169.348 1101.49 175.158 1101.49 Z" fill="#000000" fill-rule="nonzero" fill-opacity="1" /><path clip-path="url(#clip120)" d="M100.76 903.479 Q97.1493 903.479 95.3206 907.043 Q93.515 910.585 93.515 917.715 Q93.515 924.821 95.3206 928.386 Q97.1493 931.928 100.76 931.928 Q104.395 931.928 106.2 928.386 Q108.029 924.821 108.029 917.715 Q108.029 910.585 106.2 907.043 Q104.395 903.479 100.76 903.479 M100.76 899.775 Q106.571 899.775 109.626 904.381 Q112.705 908.965 112.705 917.715 Q112.705 926.441 109.626 931.048 Q106.571 935.631 100.76 935.631 Q94.9502 935.631 91.8715 931.048 Q88.816 926.441 88.816 917.715 Q88.816 908.965 91.8715 904.381 Q94.9502 899.775 100.76 899.775 Z" fill="#000000" fill-rule="nonzero" fill-opacity="1" /><path clip-path="url(#clip120)" d="M120.922 929.08 L125.807 929.08 L125.807 934.96 L120.922 934.96 L120.922 929.08 Z" fill="#000000" fill-rule="nonzero" fill-opacity="1" /><path clip-path="url(#clip120)" d="M140.019 931.025 L156.339 931.025 L156.339 934.96 L134.394 934.96 L134.394 931.025 Q137.056 928.27 141.64 923.641 Q146.246 918.988 147.427 917.645 Q149.672 915.122 150.552 913.386 Q151.455 911.627 151.455 909.937 Q151.455 907.182 149.51 905.446 Q147.589 903.71 144.487 903.71 Q142.288 903.71 139.834 904.474 Q137.404 905.238 134.626 906.789 L134.626 902.067 Q137.45 900.932 139.904 900.354 Q142.357 899.775 144.394 899.775 Q149.765 899.775 152.959 902.46 Q156.154 905.145 156.154 909.636 Q156.154 911.766 155.343 913.687 Q154.556 915.585 152.45 918.178 Q151.871 918.849 148.769 922.066 Q145.668 925.261 140.019 931.025 Z" fill="#000000" fill-rule="nonzero" fill-opacity="1" /><path clip-path="url(#clip120)" d="M166.2 900.4 L184.556 900.4 L184.556 904.335 L170.482 904.335 L170.482 912.807 Q171.501 912.46 172.519 912.298 Q173.538 912.113 174.556 912.113 Q180.343 912.113 183.723 915.284 Q187.103 918.455 187.103 923.872 Q187.103 929.451 183.63 932.553 Q180.158 935.631 173.839 935.631 Q171.663 935.631 169.394 935.261 Q167.149 934.89 164.742 934.15 L164.742 929.451 Q166.825 930.585 169.047 931.141 Q171.269 931.696 173.746 931.696 Q177.751 931.696 180.089 929.59 Q182.427 927.483 182.427 923.872 Q182.427 920.261 180.089 918.154 Q177.751 916.048 173.746 916.048 Q171.871 916.048 169.996 916.465 Q168.144 916.881 166.2 917.761 L166.2 900.4 Z" fill="#000000" fill-rule="nonzero" fill-opacity="1" /><path clip-path="url(#clip120)" d="M99.765 701.764 Q96.1539 701.764 94.3252 705.329 Q92.5197 708.871 92.5197 716 Q92.5197 723.107 94.3252 726.672 Q96.1539 730.213 99.765 730.213 Q103.399 730.213 105.205 726.672 Q107.033 723.107 107.033 716 Q107.033 708.871 105.205 705.329 Q103.399 701.764 99.765 701.764 M99.765 698.061 Q105.575 698.061 108.631 702.667 Q111.709 707.25 111.709 716 Q111.709 724.727 108.631 729.334 Q105.575 733.917 99.765 733.917 Q93.9549 733.917 90.8762 729.334 Q87.8206 724.727 87.8206 716 Q87.8206 707.25 90.8762 702.667 Q93.9549 698.061 99.765 698.061 Z" fill="#000000" fill-rule="nonzero" fill-opacity="1" /><path clip-path="url(#clip120)" d="M119.927 727.366 L124.811 727.366 L124.811 733.246 L119.927 733.246 L119.927 727.366 Z" fill="#000000" fill-rule="nonzero" fill-opacity="1" /><path clip-path="url(#clip120)" d="M135.043 698.686 L153.399 698.686 L153.399 702.621 L139.325 702.621 L139.325 711.093 Q140.343 710.746 141.362 710.584 Q142.381 710.398 143.399 710.398 Q149.186 710.398 152.566 713.57 Q155.945 716.741 155.945 722.158 Q155.945 727.736 152.473 730.838 Q149.001 733.917 142.681 733.917 Q140.506 733.917 138.237 733.546 Q135.992 733.176 133.584 732.435 L133.584 727.736 Q135.668 728.871 137.89 729.426 Q140.112 729.982 142.589 729.982 Q146.593 729.982 148.931 727.875 Q151.269 725.769 151.269 722.158 Q151.269 718.547 148.931 716.44 Q146.593 714.334 142.589 714.334 Q140.714 714.334 138.839 714.75 Q136.987 715.167 135.043 716.047 L135.043 698.686 Z" fill="#000000" fill-rule="nonzero" fill-opacity="1" /><path clip-path="url(#clip120)" d="M175.158 701.764 Q171.547 701.764 169.718 705.329 Q167.913 708.871 167.913 716 Q167.913 723.107 169.718 726.672 Q171.547 730.213 175.158 730.213 Q178.792 730.213 180.598 726.672 Q182.427 723.107 182.427 716 Q182.427 708.871 180.598 705.329 Q178.792 701.764 175.158 701.764 M175.158 698.061 Q180.968 698.061 184.024 702.667 Q187.103 707.25 187.103 716 Q187.103 724.727 184.024 729.334 Q180.968 733.917 175.158 733.917 Q169.348 733.917 166.269 729.334 Q163.214 724.727 163.214 716 Q163.214 707.25 166.269 702.667 Q169.348 698.061 175.158 698.061 Z" fill="#000000" fill-rule="nonzero" fill-opacity="1" /><path clip-path="url(#clip120)" d="M100.76 500.05 Q97.1493 500.05 95.3206 503.615 Q93.515 507.156 93.515 514.286 Q93.515 521.392 95.3206 524.957 Q97.1493 528.499 100.76 528.499 Q104.395 528.499 106.2 524.957 Q108.029 521.392 108.029 514.286 Q108.029 507.156 106.2 503.615 Q104.395 500.05 100.76 500.05 M100.76 496.346 Q106.571 496.346 109.626 500.953 Q112.705 505.536 112.705 514.286 Q112.705 523.013 109.626 527.619 Q106.571 532.202 100.76 532.202 Q94.9502 532.202 91.8715 527.619 Q88.816 523.013 88.816 514.286 Q88.816 505.536 91.8715 500.953 Q94.9502 496.346 100.76 496.346 Z" fill="#000000" fill-rule="nonzero" fill-opacity="1" /><path clip-path="url(#clip120)" d="M120.922 525.652 L125.807 525.652 L125.807 531.531 L120.922 531.531 L120.922 525.652 Z" fill="#000000" fill-rule="nonzero" fill-opacity="1" /><path clip-path="url(#clip120)" d="M134.811 496.971 L157.033 496.971 L157.033 498.962 L144.487 531.531 L139.603 531.531 L151.408 500.906 L134.811 500.906 L134.811 496.971 Z" fill="#000000" fill-rule="nonzero" fill-opacity="1" /><path clip-path="url(#clip120)" d="M166.2 496.971 L184.556 496.971 L184.556 500.906 L170.482 500.906 L170.482 509.379 Q171.501 509.031 172.519 508.869 Q173.538 508.684 174.556 508.684 Q180.343 508.684 183.723 511.855 Q187.103 515.027 187.103 520.443 Q187.103 526.022 183.63 529.124 Q180.158 532.202 173.839 532.202 Q171.663 532.202 169.394 531.832 Q167.149 531.462 164.742 530.721 L164.742 526.022 Q166.825 527.156 169.047 527.712 Q171.269 528.267 173.746 528.267 Q177.751 528.267 180.089 526.161 Q182.427 524.054 182.427 520.443 Q182.427 516.832 180.089 514.726 Q177.751 512.619 173.746 512.619 Q171.871 512.619 169.996 513.036 Q168.144 513.453 166.2 514.332 L166.2 496.971 Z" fill="#000000" fill-rule="nonzero" fill-opacity="1" /><path clip-path="url(#clip120)" d="M90.5752 325.882 L98.2141 325.882 L98.2141 299.516 L89.904 301.183 L89.904 296.923 L98.1678 295.257 L102.844 295.257 L102.844 325.882 L110.483 325.882 L110.483 329.817 L90.5752 329.817 L90.5752 325.882 Z" fill="#000000" fill-rule="nonzero" fill-opacity="1" /><path clip-path="url(#clip120)" d="M119.927 323.937 L124.811 323.937 L124.811 329.817 L119.927 329.817 L119.927 323.937 Z" fill="#000000" fill-rule="nonzero" fill-opacity="1" /><path clip-path="url(#clip120)" d="M144.996 298.335 Q141.385 298.335 139.556 301.9 Q137.751 305.442 137.751 312.571 Q137.751 319.678 139.556 323.243 Q141.385 326.784 144.996 326.784 Q148.63 326.784 150.436 323.243 Q152.265 319.678 152.265 312.571 Q152.265 305.442 150.436 301.9 Q148.63 298.335 144.996 298.335 M144.996 294.632 Q150.806 294.632 153.862 299.238 Q156.941 303.822 156.941 312.571 Q156.941 321.298 153.862 325.905 Q150.806 330.488 144.996 330.488 Q139.186 330.488 136.107 325.905 Q133.052 321.298 133.052 312.571 Q133.052 303.822 136.107 299.238 Q139.186 294.632 144.996 294.632 Z" fill="#000000" fill-rule="nonzero" fill-opacity="1" /><path clip-path="url(#clip120)" d="M175.158 298.335 Q171.547 298.335 169.718 301.9 Q167.913 305.442 167.913 312.571 Q167.913 319.678 169.718 323.243 Q171.547 326.784 175.158 326.784 Q178.792 326.784 180.598 323.243 Q182.427 319.678 182.427 312.571 Q182.427 305.442 180.598 301.9 Q178.792 298.335 175.158 298.335 M175.158 294.632 Q180.968 294.632 184.024 299.238 Q187.103 303.822 187.103 312.571 Q187.103 321.298 184.024 325.905 Q180.968 330.488 175.158 330.488 Q169.348 330.488 166.269 325.905 Q163.214 321.298 163.214 312.571 Q163.214 303.822 166.269 299.238 Q169.348 294.632 175.158 294.632 Z" fill="#000000" fill-rule="nonzero" fill-opacity="1" /><path clip-path="url(#clip120)" d="M91.5706 124.167 L99.2095 124.167 L99.2095 97.8016 L90.8993 99.4683 L90.8993 95.209 L99.1632 93.5424 L103.839 93.5424 L103.839 124.167 L111.478 124.167 L111.478 128.102 L91.5706 128.102 L91.5706 124.167 Z" fill="#000000" fill-rule="nonzero" fill-opacity="1" /><path clip-path="url(#clip120)" d="M120.922 122.223 L125.807 122.223 L125.807 128.102 L120.922 128.102 L120.922 122.223 Z" fill="#000000" fill-rule="nonzero" fill-opacity="1" /><path clip-path="url(#clip120)" d="M140.019 124.167 L156.339 124.167 L156.339 128.102 L134.394 128.102 L134.394 124.167 Q137.056 121.413 141.64 116.783 Q146.246 112.13 147.427 110.788 Q149.672 108.265 150.552 106.528 Q151.455 104.769 151.455 103.079 Q151.455 100.325 149.51 98.5887 Q147.589 96.8526 144.487 96.8526 Q142.288 96.8526 139.834 97.6164 Q137.404 98.3803 134.626 99.9312 L134.626 95.209 Q137.45 94.0748 139.904 93.4961 Q142.357 92.9174 144.394 92.9174 Q149.765 92.9174 152.959 95.6026 Q156.154 98.2877 156.154 102.778 Q156.154 104.908 155.343 106.829 Q154.556 108.727 152.45 111.32 Q151.871 111.991 148.769 115.209 Q145.668 118.403 140.019 124.167 Z" fill="#000000" fill-rule="nonzero" fill-opacity="1" /><path clip-path="url(#clip120)" d="M166.2 93.5424 L184.556 93.5424 L184.556 97.4776 L170.482 97.4776 L170.482 105.95 Q171.501 105.603 172.519 105.44 Q173.538 105.255 174.556 105.255 Q180.343 105.255 183.723 108.427 Q187.103 111.598 187.103 117.014 Q187.103 122.593 183.63 125.695 Q180.158 128.774 173.839 128.774 Q171.663 128.774 169.394 128.403 Q167.149 128.033 164.742 127.292 L164.742 122.593 Q166.825 123.727 169.047 124.283 Q171.269 124.839 173.746 124.839 Q177.751 124.839 180.089 122.732 Q182.427 120.626 182.427 117.014 Q182.427 113.403 180.089 111.297 Q177.751 109.19 173.746 109.19 Q171.871 109.19 169.996 109.607 Q168.144 110.024 166.2 110.903 L166.2 93.5424 Z" fill="#000000" fill-rule="nonzero" fill-opacity="1" /><polyline clip-path="url(#clip122)" style="stroke:#009af9; stroke-linecap:round; stroke-linejoin:round; stroke-width:16; stroke-opacity:1; fill:none" stroke-dasharray="8, 16" points="283.376,999.513 293.472,989.957 303.568,978.949 313.664,968.241 323.76,960.318 333.856,958.247 343.952,964.555 354.048,979.48 364.144,1000.58 374.24,1024.56 384.336,1049.34 394.432,1074.75 404.528,1101.45 414.624,1129.56 424.72,1158.22 434.816,1185.94 444.912,1211.15 455.008,1232.76 465.104,1250.49 475.2,1264.63 485.296,1275.35 495.392,1281.83 505.488,1282.43 515.584,1275.92 525.68,1262.57 535.776,1244.02 545.872,1222.28 555.968,1198.95 566.064,1174.78 576.16,1149.59 586.256,1122.74 596.352,1093.81 606.448,1063.47 616.544,1033.93 626.64,1008.14 636.736,988.199 646.832,974.479 656.928,966.194 667.024,962.432 677.12,962.329 687.216,964.799 697.312,969.344 707.408,978.051 717.504,995.211 727.6,1021.94 737.696,1053.14 747.792,1083.11 757.888,1110.77 767.984,1138.08 778.08,1166.01 788.176,1193.41 798.272,1218.34 808.369,1239.4 818.465,1255.85 828.561,1267.58 838.657,1274.93 848.753,1278.5 858.849,1278.73 868.945,1275.1 879.041,1265.53 889.137,1247.26 899.233,1220.02 909.329,1188.42 919.425,1158.94 929.521,1134.35 939.617,1112.37 949.713,1089.2 959.809,1063.05 969.905,1035.02 980.001,1007.84 990.097,983.877 1000.19,965.322 1010.29,955.719 1020.38,957.932 1030.48,970.408 1040.58,986.937 1050.67,998.558 1060.77,995.682 1070.86,974.44 1080.96,960.448 1091.06,1001.25 1101.15,1076.05 1111.25,1141.76 1121.34,1180.3 1131.44,1196.78 1141.54,1204.16 1151.63,1212.34 1161.73,1232.13 1171.83,1259.39 1181.92,1263.23 1192.02,1336.81 1202.11,1445.72 1212.21,1393.8 1222.31,1296.19 1232.4,1205.75 1242.5,1102.01 1252.59,1132.3 1262.69,1184.03 1272.79,1140.09 1282.88,970.715 1292.98,688.054 1303.07,399.192 1313.17,263.881 1323.27,216.838 1333.36,208.518 1343.46,253.805 1353.55,392.948 1363.65,468.995 1373.75,386.373 1383.84,335.462 1393.94,274.404 1404.03,253.559 1414.13,275.251 1424.23,298.434 1434.32,309.987 1444.42,315.493 1454.51,322.398 1464.61,336.634 1474.71,355.803 1484.8,362.456 1494.9,338.811 1504.99,293.342 1515.09,259.227 1525.19,252.012 1535.28,261.996 1545.38,287.947 1555.47,329.092 1565.57,368.213 1575.67,388.579 1585.76,386.41 1595.86,361.22 1605.95,318.902 1616.05,273.04 1626.15,238.838 1636.24,228.467 1646.34,244.943 1656.43,279.272 1666.53,318.932 1676.63,356.086 1686.72,385.353 1696.82,399.883 1706.91,392.56 1717.01,361.098 1727.11,310.885 1737.2,253.736 1747.3,208.174 1757.39,196.87 1767.49,229.107 1777.59,288.077 1787.68,348.392 1797.78,393.771 1807.87,416.97 1817.97,415.394 1828.07,389.437 1838.16,342.252 1848.26,279.668 1858.35,212.298 1868.45,163.206 1878.55,168.195 1888.64,235.192 1898.74,324.102 1908.83,398.387 1918.93,443.923 1929.03,454.175 1939.12,431.711 1949.22,385.09 1959.31,317.934 1969.41,234.869 1979.51,154.335 1989.6,116.139 1999.7,150.71 2009.79,239.575 2019.89,340.785 2029.99,424.749 2040.08,477.508 2050.18,491.988 2060.27,463.729 2070.37,392.519 2080.47,287.925 2090.56,175.4 2100.66,95.9646 2110.75,90.8352 2120.85,158.647 2130.95,261.381 2141.04,372.036 2151.14,469.425 2161.23,522.329 2171.33,504.228 2181.43,421.762 2191.52,306.37 2201.62,196.644 2211.71,132.535 2221.81,131.963 2231.91,177.799 2242,242.32 2252.1,308.162 2262.19,368.74 2272.29,422.745 2282.39,470.673 2292.48,513.418 "/>
<polyline clip-path="url(#clip122)" style="stroke:#e26f46; stroke-linecap:round; stroke-linejoin:round; stroke-width:4; stroke-opacity:1; fill:none" points="283.376,998.206 293.472,981.012 303.568,968.335 313.664,960.588 323.76,958.023 333.856,960.726 343.952,968.607 354.048,981.409 364.144,998.715 374.24,1019.96 384.336,1044.45 394.432,1071.38 404.528,1099.89 414.624,1129.03 424.72,1157.85 434.816,1185.42 444.912,1210.84 455.008,1233.27 465.104,1251.98 475.2,1266.37 485.296,1275.96 495.392,1280.44 505.488,1279.66 515.584,1273.65 525.68,1262.61 535.776,1246.9 545.872,1227.02 555.968,1203.63 566.064,1177.49 576.16,1149.46 586.256,1120.44 596.352,1091.39 606.448,1063.26 616.544,1036.95 626.64,1013.34 636.736,993.186 646.832,977.153 656.928,965.762 667.024,959.386 677.12,958.231 687.216,962.337 697.312,971.569 707.408,985.625 717.504,1004.05 727.6,1026.23 737.696,1051.46 747.792,1078.91 757.888,1107.67 767.984,1136.82 778.08,1165.4 788.176,1192.48 798.272,1217.17 808.369,1238.67 818.465,1256.28 828.561,1269.42 838.657,1277.67 848.753,1280.75 858.849,1278.56 868.945,1271.18 879.041,1258.84 889.137,1241.96 899.233,1221.07 909.329,1196.86 919.425,1170.13 929.521,1141.74 939.617,1112.62 949.713,1083.72 959.809,1055.99 969.905,1030.33 980.001,1007.57 990.097,988.461 1000.19,973.627 1010.29,963.55 1020.38,958.56 1030.48,958.818 1040.58,964.318 1050.67,974.878 1060.77,990.156 1070.86,1009.65 1080.96,1032.73 1091.06,1058.63 1101.15,1086.52 1111.25,1115.48 1121.34,1144.57 1131.44,1172.84 1141.54,1199.36 1151.63,1223.28 1161.73,1243.8 1171.83,1260.26 1181.92,1272.13 1192.02,1279.01 1202.11,1280.68 1212.21,1277.08 1222.31,1268.34 1232.4,1254.74 1242.5,1236.73 1252.59,1214.88 1262.69,1189.91 1272.79,1162.65 1282.88,1133.97 1292.98,311.365 1303.07,310.032 1313.17,311.245 1323.27,315.285 1333.36,320.914 1343.46,325.753 1353.55,327.186 1363.65,323.463 1373.75,314.587 1383.84,302.622 1393.94,291.236 1404.03,284.585 1414.13,285.861 1424.23,296.009 1434.32,313.079 1444.42,332.505 1454.51,348.324 1464.61,354.997 1474.71,349.285 1484.8,331.562 1494.9,306.069 1504.99,279.944 1515.09,261.219 1525.19,256.368 1535.28,268.127 1545.38,294.325 1555.47,328.158 1565.57,359.94 1575.67,379.872 1585.76,381.053 1595.86,361.796 1605.95,326.503 1616.05,284.727 1626.15,248.59 1636.24,229.272 1646.34,233.567 1656.43,261.574 1666.53,306.284 1676.63,355.298 1686.72,394.259 1696.82,411.056 1706.91,399.57 1717.01,361.798 1727.11,307.66 1737.2,252.414 1747.3,212.356 1757.39,200.019 1767.49,220.277 1777.59,268.561 1787.68,331.815 1797.78,392.009 1807.87,431.281 1817.97,437.229 1828.07,406.8 1838.16,347.549 1848.26,275.812 1858.35,212.211 1868.45,175.725 1878.55,178.031 1888.64,219.813 1898.74,290.171 1908.83,369.44 1918.93,434.681 1929.03,466.316 1939.12,453.997 1949.22,399.938 1959.31,318.661 1969.41,233.113 1979.51,168.19 1989.6,143.494 1999.7,167.426 2009.79,234.4 2019.89,326.073 2029.99,416.362 2040.08,478.86 2050.18,494.558 2060.27,457.61 2070.37,377.398 2080.47,276.186 2090.56,182.954 2100.66,125.096 2110.75,120.377 2120.85,171.499 2130.95,264.94 2141.04,374.502 2151.14,468.654 2161.23,519.6 2171.33,511.489 2181.43,445.309 2191.52,338.995 2201.62,222.584 2211.71,129.73 2221.81,87.9763 2231.91,110.595 2242,192.405 2252.1,310.88 2262.19,432.343 2272.29,521.539 2282.39,551.859 2292.48,513.277 "/>
<path clip-path="url(#clip120)" d="M294.091 250.738 L733.884 250.738 L733.884 95.2176 L294.091 95.2176  Z" fill="#ffffff" fill-rule="evenodd" fill-opacity="1"/>
<polyline clip-path="url(#clip120)" style="stroke:#000000; stroke-linecap:round; stroke-linejoin:round; stroke-width:4; stroke-opacity:1; fill:none" points="294.091,250.738 733.884,250.738 733.884,95.2176 294.091,95.2176 294.091,250.738 "/>
<polyline clip-path="url(#clip120)" style="stroke:#009af9; stroke-linecap:round; stroke-linejoin:round; stroke-width:16; stroke-opacity:1; fill:none" stroke-dasharray="8, 16" points="317.754,147.058 459.731,147.058 "/>
<path clip-path="url(#clip120)" d="M488.069 133.62 L488.069 146.606 L493.949 146.606 Q497.213 146.606 498.995 144.916 Q500.778 143.227 500.778 140.102 Q500.778 137 498.995 135.31 Q497.213 133.62 493.949 133.62 L488.069 133.62 M483.393 129.778 L493.949 129.778 Q499.759 129.778 502.722 132.416 Q505.708 135.032 505.708 140.102 Q505.708 145.217 502.722 147.833 Q499.759 150.449 493.949 150.449 L488.069 150.449 L488.069 164.338 L483.393 164.338 L483.393 129.778 Z" fill="#000000" fill-rule="nonzero" fill-opacity="1" /><path clip-path="url(#clip120)" d="M525.986 142.393 Q525.268 141.977 524.412 141.791 Q523.578 141.583 522.56 141.583 Q518.949 141.583 517.004 143.944 Q515.083 146.282 515.083 150.68 L515.083 164.338 L510.801 164.338 L510.801 138.412 L515.083 138.412 L515.083 142.44 Q516.426 140.078 518.578 138.944 Q520.731 137.787 523.81 137.787 Q524.25 137.787 524.782 137.856 Q525.315 137.903 525.963 138.018 L525.986 142.393 Z" fill="#000000" fill-rule="nonzero" fill-opacity="1" /><path clip-path="url(#clip120)" d="M551.588 150.31 L551.588 152.393 L532.004 152.393 Q532.282 156.791 534.643 159.106 Q537.027 161.398 541.264 161.398 Q543.717 161.398 546.009 160.796 Q548.324 160.194 550.592 158.99 L550.592 163.018 Q548.301 163.99 545.893 164.5 Q543.486 165.009 541.009 165.009 Q534.805 165.009 531.171 161.398 Q527.56 157.787 527.56 151.629 Q527.56 145.264 530.986 141.537 Q534.435 137.787 540.268 137.787 Q545.5 137.787 548.532 141.166 Q551.588 144.523 551.588 150.31 M547.328 149.06 Q547.282 145.565 545.361 143.481 Q543.463 141.398 540.314 141.398 Q536.75 141.398 534.597 143.412 Q532.467 145.426 532.143 149.083 L547.328 149.06 Z" fill="#000000" fill-rule="nonzero" fill-opacity="1" /><path clip-path="url(#clip120)" d="M575.638 142.347 L575.638 128.319 L579.898 128.319 L579.898 164.338 L575.638 164.338 L575.638 160.449 Q574.296 162.763 572.236 163.898 Q570.199 165.009 567.328 165.009 Q562.629 165.009 559.666 161.259 Q556.726 157.509 556.726 151.398 Q556.726 145.287 559.666 141.537 Q562.629 137.787 567.328 137.787 Q570.199 137.787 572.236 138.921 Q574.296 140.032 575.638 142.347 M561.125 151.398 Q561.125 156.097 563.046 158.782 Q564.99 161.444 568.37 161.444 Q571.749 161.444 573.694 158.782 Q575.638 156.097 575.638 151.398 Q575.638 146.699 573.694 144.037 Q571.749 141.352 568.37 141.352 Q564.99 141.352 563.046 144.037 Q561.125 146.699 561.125 151.398 Z" fill="#000000" fill-rule="nonzero" fill-opacity="1" /><path clip-path="url(#clip120)" d="M588.671 138.412 L592.93 138.412 L592.93 164.338 L588.671 164.338 L588.671 138.412 M588.671 128.319 L592.93 128.319 L592.93 133.713 L588.671 133.713 L588.671 128.319 Z" fill="#000000" fill-rule="nonzero" fill-opacity="1" /><path clip-path="url(#clip120)" d="M620.499 139.407 L620.499 143.389 Q618.694 142.393 616.865 141.907 Q615.059 141.398 613.208 141.398 Q609.064 141.398 606.772 144.037 Q604.481 146.652 604.481 151.398 Q604.481 156.143 606.772 158.782 Q609.064 161.398 613.208 161.398 Q615.059 161.398 616.865 160.912 Q618.694 160.402 620.499 159.407 L620.499 163.342 Q618.717 164.176 616.796 164.592 Q614.897 165.009 612.745 165.009 Q606.888 165.009 603.439 161.328 Q599.99 157.648 599.99 151.398 Q599.99 145.055 603.462 141.421 Q606.958 137.787 613.022 137.787 Q614.99 137.787 616.865 138.203 Q618.74 138.597 620.499 139.407 Z" fill="#000000" fill-rule="nonzero" fill-opacity="1" /><path clip-path="url(#clip120)" d="M632.12 131.051 L632.12 138.412 L640.893 138.412 L640.893 141.722 L632.12 141.722 L632.12 155.796 Q632.12 158.967 632.976 159.87 Q633.856 160.773 636.518 160.773 L640.893 160.773 L640.893 164.338 L636.518 164.338 Q631.587 164.338 629.712 162.509 Q627.837 160.657 627.837 155.796 L627.837 141.722 L624.712 141.722 L624.712 138.412 L627.837 138.412 L627.837 131.051 L632.12 131.051 Z" fill="#000000" fill-rule="nonzero" fill-opacity="1" /><path clip-path="url(#clip120)" d="M646.494 138.412 L650.754 138.412 L650.754 164.338 L646.494 164.338 L646.494 138.412 M646.494 128.319 L650.754 128.319 L650.754 133.713 L646.494 133.713 L646.494 128.319 Z" fill="#000000" fill-rule="nonzero" fill-opacity="1" /><path clip-path="url(#clip120)" d="M669.712 141.398 Q666.286 141.398 664.295 144.083 Q662.305 146.745 662.305 151.398 Q662.305 156.051 664.272 158.736 Q666.263 161.398 669.712 161.398 Q673.115 161.398 675.105 158.713 Q677.096 156.027 677.096 151.398 Q677.096 146.791 675.105 144.106 Q673.115 141.398 669.712 141.398 M669.712 137.787 Q675.267 137.787 678.439 141.398 Q681.61 145.009 681.61 151.398 Q681.61 157.764 678.439 161.398 Q675.267 165.009 669.712 165.009 Q664.133 165.009 660.962 161.398 Q657.814 157.764 657.814 151.398 Q657.814 145.009 660.962 141.398 Q664.133 137.787 669.712 137.787 Z" fill="#000000" fill-rule="nonzero" fill-opacity="1" /><path clip-path="url(#clip120)" d="M710.221 148.689 L710.221 164.338 L705.962 164.338 L705.962 148.828 Q705.962 145.148 704.527 143.319 Q703.091 141.49 700.221 141.49 Q696.772 141.49 694.781 143.69 Q692.791 145.889 692.791 149.685 L692.791 164.338 L688.508 164.338 L688.508 138.412 L692.791 138.412 L692.791 142.44 Q694.318 140.102 696.378 138.944 Q698.462 137.787 701.17 137.787 Q705.638 137.787 707.929 140.565 Q710.221 143.319 710.221 148.689 Z" fill="#000000" fill-rule="nonzero" fill-opacity="1" /><polyline clip-path="url(#clip120)" style="stroke:#e26f46; stroke-linecap:round; stroke-linejoin:round; stroke-width:4; stroke-opacity:1; fill:none" points="317.754,198.898 459.731,198.898 "/>
<path clip-path="url(#clip120)" d="M483.393 181.618 L505.245 181.618 L505.245 185.553 L488.069 185.553 L488.069 195.784 L504.528 195.784 L504.528 199.719 L488.069 199.719 L488.069 212.242 L505.662 212.242 L505.662 216.178 L483.393 216.178 L483.393 181.618 Z" fill="#000000" fill-rule="nonzero" fill-opacity="1" /><path clip-path="url(#clip120)" d="M534.713 190.252 L525.338 202.867 L535.199 216.178 L530.176 216.178 L522.629 205.992 L515.083 216.178 L510.06 216.178 L520.129 202.613 L510.916 190.252 L515.94 190.252 L522.815 199.488 L529.69 190.252 L534.713 190.252 Z" fill="#000000" fill-rule="nonzero" fill-opacity="1" /><path clip-path="url(#clip120)" d="M553 203.145 Q547.838 203.145 545.847 204.326 Q543.856 205.506 543.856 208.354 Q543.856 210.622 545.338 211.965 Q546.842 213.284 549.412 213.284 Q552.953 213.284 555.083 210.784 Q557.236 208.261 557.236 204.094 L557.236 203.145 L553 203.145 M561.495 201.386 L561.495 216.178 L557.236 216.178 L557.236 212.242 Q555.777 214.603 553.601 215.738 Q551.426 216.849 548.277 216.849 Q544.296 216.849 541.935 214.627 Q539.597 212.381 539.597 208.631 Q539.597 204.256 542.514 202.034 Q545.453 199.812 551.263 199.812 L557.236 199.812 L557.236 199.395 Q557.236 196.455 555.291 194.858 Q553.37 193.238 549.875 193.238 Q547.652 193.238 545.546 193.77 Q543.439 194.303 541.495 195.367 L541.495 191.432 Q543.833 190.53 546.032 190.09 Q548.231 189.627 550.314 189.627 Q555.939 189.627 558.717 192.543 Q561.495 195.46 561.495 201.386 Z" fill="#000000" fill-rule="nonzero" fill-opacity="1" /><path clip-path="url(#clip120)" d="M588.925 191.247 L588.925 195.229 Q587.12 194.233 585.291 193.747 Q583.486 193.238 581.634 193.238 Q577.49 193.238 575.199 195.877 Q572.907 198.492 572.907 203.238 Q572.907 207.983 575.199 210.622 Q577.49 213.238 581.634 213.238 Q583.486 213.238 585.291 212.752 Q587.12 212.242 588.925 211.247 L588.925 215.182 Q587.143 216.016 585.222 216.432 Q583.323 216.849 581.171 216.849 Q575.314 216.849 571.865 213.168 Q568.416 209.488 568.416 203.238 Q568.416 196.895 571.888 193.261 Q575.384 189.627 581.449 189.627 Q583.416 189.627 585.291 190.043 Q587.166 190.437 588.925 191.247 Z" fill="#000000" fill-rule="nonzero" fill-opacity="1" /><path clip-path="url(#clip120)" d="M600.546 182.891 L600.546 190.252 L609.319 190.252 L609.319 193.562 L600.546 193.562 L600.546 207.636 Q600.546 210.807 601.402 211.71 Q602.282 212.613 604.944 212.613 L609.319 212.613 L609.319 216.178 L604.944 216.178 Q600.013 216.178 598.138 214.349 Q596.263 212.497 596.263 207.636 L596.263 193.562 L593.138 193.562 L593.138 190.252 L596.263 190.252 L596.263 182.891 L600.546 182.891 Z" fill="#000000" fill-rule="nonzero" fill-opacity="1" /></svg>
