<?xml version="1.0" encoding="utf-8"?>
<svg xmlns="http://www.w3.org/2000/svg" xmlns:xlink="http://www.w3.org/1999/xlink" width="600" height="400" viewBox="0 0 2400 1600">
<defs>
  <clipPath id="clip030">
    <rect x="0" y="0" width="2400" height="1600"/>
  </clipPath>
</defs>
<path clip-path="url(#clip030)" d="M0 1600 L2400 1600 L2400 0 L0 0  Z" fill="#ffffff" fill-rule="evenodd" fill-opacity="1"/>
<defs>
  <clipPath id="clip031">
    <rect x="480" y="0" width="1681" height="1600"/>
  </clipPath>
</defs>
<path clip-path="url(#clip030)" d="M223.103 1486.45 L2352.76 1486.45 L2352.76 47.2441 L223.103 47.2441  Z" fill="#ffffff" fill-rule="evenodd" fill-opacity="1"/>
<defs>
  <clipPath id="clip032">
    <rect x="223" y="47" width="2131" height="1440"/>
  </clipPath>
</defs>
<polyline clip-path="url(#clip032)" style="stroke:#000000; stroke-linecap:round; stroke-linejoin:round; stroke-width:2; stroke-opacity:0.1; fill:none" points="283.376,1486.45 283.376,47.2441 "/>
<polyline clip-path="url(#clip032)" style="stroke:#000000; stroke-linecap:round; stroke-linejoin:round; stroke-width:2; stroke-opacity:0.1; fill:none" points="785.652,1486.45 785.652,47.2441 "/>
<polyline clip-path="url(#clip032)" style="stroke:#000000; stroke-linecap:round; stroke-linejoin:round; stroke-width:2; stroke-opacity:0.1; fill:none" points="1287.93,1486.45 1287.93,47.2441 "/>
<polyline clip-path="url(#clip032)" style="stroke:#000000; stroke-linecap:round; stroke-linejoin:round; stroke-width:2; stroke-opacity:0.1; fill:none" points="1790.21,1486.45 1790.21,47.2441 "/>
<polyline clip-path="url(#clip032)" style="stroke:#000000; stroke-linecap:round; stroke-linejoin:round; stroke-width:2; stroke-opacity:0.1; fill:none" points="2292.48,1486.45 2292.48,47.2441 "/>
<polyline clip-path="url(#clip030)" style="stroke:#000000; stroke-linecap:round; stroke-linejoin:round; stroke-width:4; stroke-opacity:1; fill:none" points="223.103,1486.45 2352.76,1486.45 "/>
<polyline clip-path="url(#clip030)" style="stroke:#000000; stroke-linecap:round; stroke-linejoin:round; stroke-width:4; stroke-opacity:1; fill:none" points="283.376,1486.45 283.376,1467.55 "/>
<polyline clip-path="url(#clip030)" style="stroke:#000000; stroke-linecap:round; stroke-linejoin:round; stroke-width:4; stroke-opacity:1; fill:none" points="785.652,1486.45 785.652,1467.55 "/>
<polyline clip-path="url(#clip030)" style="stroke:#000000; stroke-linecap:round; stroke-linejoin:round; stroke-width:4; stroke-opacity:1; fill:none" points="1287.93,1486.45 1287.93,1467.55 "/>
<polyline clip-path="url(#clip030)" style="stroke:#000000; stroke-linecap:round; stroke-linejoin:round; stroke-width:4; stroke-opacity:1; fill:none" points="1790.21,1486.45 1790.21,1467.55 "/>
<polyline clip-path="url(#clip030)" style="stroke:#000000; stroke-linecap:round; stroke-linejoin:round; stroke-width:4; stroke-opacity:1; fill:none" points="2292.48,1486.45 2292.48,1467.55 "/>
<path clip-path="url(#clip030)" d="M229.904 1532.02 L259.58 1532.02 L259.58 1535.95 L229.904 1535.95 L229.904 1532.02 Z" fill="#000000" fill-rule="nonzero" fill-opacity="1" /><path clip-path="url(#clip030)" d="M270.482 1544.91 L278.121 1544.91 L278.121 1518.55 L269.811 1520.21 L269.811 1515.95 L278.075 1514.29 L282.751 1514.29 L282.751 1544.91 L290.39 1544.91 L290.39 1548.85 L270.482 1548.85 L270.482 1544.91 Z" fill="#000000" fill-rule="nonzero" fill-opacity="1" /><path clip-path="url(#clip030)" d="M299.834 1542.97 L304.718 1542.97 L304.718 1548.85 L299.834 1548.85 L299.834 1542.97 Z" fill="#000000" fill-rule="nonzero" fill-opacity="1" /><path clip-path="url(#clip030)" d="M324.903 1517.37 Q321.292 1517.37 319.463 1520.93 Q317.658 1524.47 317.658 1531.6 Q317.658 1538.71 319.463 1542.27 Q321.292 1545.82 324.903 1545.82 Q328.538 1545.82 330.343 1542.27 Q332.172 1538.71 332.172 1531.6 Q332.172 1524.47 330.343 1520.93 Q328.538 1517.37 324.903 1517.37 M324.903 1513.66 Q330.713 1513.66 333.769 1518.27 Q336.848 1522.85 336.848 1531.6 Q336.848 1540.33 333.769 1544.94 Q330.713 1549.52 324.903 1549.52 Q319.093 1549.52 316.014 1544.94 Q312.959 1540.33 312.959 1531.6 Q312.959 1522.85 316.014 1518.27 Q319.093 1513.66 324.903 1513.66 Z" fill="#000000" fill-rule="nonzero" fill-opacity="1" /><path clip-path="url(#clip030)" d="M732.678 1532.02 L762.354 1532.02 L762.354 1535.95 L732.678 1535.95 L732.678 1532.02 Z" fill="#000000" fill-rule="nonzero" fill-opacity="1" /><path clip-path="url(#clip030)" d="M782.446 1517.37 Q778.835 1517.37 777.007 1520.93 Q775.201 1524.47 775.201 1531.6 Q775.201 1538.71 777.007 1542.27 Q778.835 1545.82 782.446 1545.82 Q786.081 1545.82 787.886 1542.27 Q789.715 1538.71 789.715 1531.6 Q789.715 1524.47 787.886 1520.93 Q786.081 1517.37 782.446 1517.37 M782.446 1513.66 Q788.257 1513.66 791.312 1518.27 Q794.391 1522.85 794.391 1531.6 Q794.391 1540.33 791.312 1544.94 Q788.257 1549.52 782.446 1549.52 Q776.636 1549.52 773.558 1544.94 Q770.502 1540.33 770.502 1531.6 Q770.502 1522.85 773.558 1518.27 Q776.636 1513.66 782.446 1513.66 Z" fill="#000000" fill-rule="nonzero" fill-opacity="1" /><path clip-path="url(#clip030)" d="M802.608 1542.97 L807.493 1542.97 L807.493 1548.85 L802.608 1548.85 L802.608 1542.97 Z" fill="#000000" fill-rule="nonzero" fill-opacity="1" /><path clip-path="url(#clip030)" d="M817.724 1514.29 L836.08 1514.29 L836.08 1518.22 L822.006 1518.22 L822.006 1526.7 Q823.025 1526.35 824.043 1526.19 Q825.062 1526 826.08 1526 Q831.867 1526 835.247 1529.17 Q838.627 1532.34 838.627 1537.76 Q838.627 1543.34 835.155 1546.44 Q831.682 1549.52 825.363 1549.52 Q823.187 1549.52 820.918 1549.15 Q818.673 1548.78 816.266 1548.04 L816.266 1543.34 Q818.349 1544.47 820.571 1545.03 Q822.793 1545.58 825.27 1545.58 Q829.275 1545.58 831.613 1543.48 Q833.951 1541.37 833.951 1537.76 Q833.951 1534.15 831.613 1532.04 Q829.275 1529.94 825.27 1529.94 Q823.395 1529.94 821.52 1530.35 Q819.668 1530.77 817.724 1531.65 L817.724 1514.29 Z" fill="#000000" fill-rule="nonzero" fill-opacity="1" /><path clip-path="url(#clip030)" d="M1265.31 1517.37 Q1261.7 1517.37 1259.87 1520.93 Q1258.07 1524.47 1258.07 1531.6 Q1258.07 1538.71 1259.87 1542.27 Q1261.7 1545.82 1265.31 1545.82 Q1268.95 1545.82 1270.75 1542.27 Q1272.58 1538.71 1272.58 1531.6 Q1272.58 1524.47 1270.75 1520.93 Q1268.95 1517.37 1265.31 1517.37 M1265.31 1513.66 Q1271.12 1513.66 1274.18 1518.27 Q1277.26 1522.85 1277.26 1531.6 Q1277.26 1540.33 1274.18 1544.94 Q1271.12 1549.52 1265.31 1549.52 Q1259.5 1549.52 1256.42 1544.94 Q1253.37 1540.33 1253.37 1531.6 Q1253.37 1522.85 1256.42 1518.27 Q1259.5 1513.66 1265.31 1513.66 Z" fill="#000000" fill-rule="nonzero" fill-opacity="1" /><path clip-path="url(#clip030)" d="M1285.48 1542.97 L1290.36 1542.97 L1290.36 1548.85 L1285.48 1548.85 L1285.48 1542.97 Z" fill="#000000" fill-rule="nonzero" fill-opacity="1" /><path clip-path="url(#clip030)" d="M1310.54 1517.37 Q1306.93 1517.37 1305.11 1520.93 Q1303.3 1524.47 1303.3 1531.6 Q1303.3 1538.71 1305.11 1542.27 Q1306.93 1545.82 1310.54 1545.82 Q1314.18 1545.82 1315.98 1542.27 Q1317.81 1538.71 1317.81 1531.6 Q1317.81 1524.47 1315.98 1520.93 Q1314.18 1517.37 1310.54 1517.37 M1310.54 1513.66 Q1316.35 1513.66 1319.41 1518.27 Q1322.49 1522.85 1322.49 1531.6 Q1322.49 1540.33 1319.41 1544.94 Q1316.35 1549.52 1310.54 1549.52 Q1304.73 1549.52 1301.66 1544.94 Q1298.6 1540.33 1298.6 1531.6 Q1298.6 1522.85 1301.66 1518.27 Q1304.73 1513.66 1310.54 1513.66 Z" fill="#000000" fill-rule="nonzero" fill-opacity="1" /><path clip-path="url(#clip030)" d="M1768.09 1517.37 Q1764.48 1517.37 1762.65 1520.93 Q1760.84 1524.47 1760.84 1531.6 Q1760.84 1538.71 1762.65 1542.27 Q1764.48 1545.82 1768.09 1545.82 Q1771.72 1545.82 1773.53 1542.27 Q1775.36 1538.71 1775.36 1531.6 Q1775.36 1524.47 1773.53 1520.93 Q1771.72 1517.37 1768.09 1517.37 M1768.09 1513.66 Q1773.9 1513.66 1776.95 1518.27 Q1780.03 1522.85 1780.03 1531.6 Q1780.03 1540.33 1776.95 1544.94 Q1773.9 1549.52 1768.09 1549.52 Q1762.28 1549.52 1759.2 1544.94 Q1756.14 1540.33 1756.14 1531.6 Q1756.14 1522.85 1759.2 1518.27 Q1762.28 1513.66 1768.09 1513.66 Z" fill="#000000" fill-rule="nonzero" fill-opacity="1" /><path clip-path="url(#clip030)" d="M1788.25 1542.97 L1793.13 1542.97 L1793.13 1548.85 L1788.25 1548.85 L1788.25 1542.97 Z" fill="#000000" fill-rule="nonzero" fill-opacity="1" /><path clip-path="url(#clip030)" d="M1803.37 1514.29 L1821.72 1514.29 L1821.72 1518.22 L1807.65 1518.22 L1807.65 1526.7 Q1808.67 1526.35 1809.69 1526.19 Q1810.7 1526 1811.72 1526 Q1817.51 1526 1820.89 1529.17 Q1824.27 1532.34 1824.27 1537.76 Q1824.27 1543.34 1820.8 1546.44 Q1817.32 1549.52 1811 1549.52 Q1808.83 1549.52 1806.56 1549.15 Q1804.31 1548.78 1801.91 1548.04 L1801.91 1543.34 Q1803.99 1544.47 1806.21 1545.03 Q1808.44 1545.58 1810.91 1545.58 Q1814.92 1545.58 1817.25 1543.48 Q1819.59 1541.37 1819.59 1537.76 Q1819.59 1534.15 1817.25 1532.04 Q1814.92 1529.94 1810.91 1529.94 Q1809.04 1529.94 1807.16 1530.35 Q1805.31 1530.77 1803.37 1531.65 L1803.37 1514.29 Z" fill="#000000" fill-rule="nonzero" fill-opacity="1" /><path clip-path="url(#clip030)" d="M2259.64 1544.91 L2267.27 1544.91 L2267.27 1518.55 L2258.96 1520.21 L2258.96 1515.95 L2267.23 1514.29 L2271.9 1514.29 L2271.9 1544.91 L2279.54 1544.91 L2279.54 1548.85 L2259.64 1548.85 L2259.64 1544.91 Z" fill="#000000" fill-rule="nonzero" fill-opacity="1" /><path clip-path="url(#clip030)" d="M2288.99 1542.97 L2293.87 1542.97 L2293.87 1548.85 L2288.99 1548.85 L2288.99 1542.97 Z" fill="#000000" fill-rule="nonzero" fill-opacity="1" /><path clip-path="url(#clip030)" d="M2314.06 1517.37 Q2310.45 1517.37 2308.62 1520.93 Q2306.81 1524.47 2306.81 1531.6 Q2306.81 1538.71 2308.62 1542.27 Q2310.45 1545.82 2314.06 1545.82 Q2317.69 1545.82 2319.5 1542.27 Q2321.33 1538.71 2321.33 1531.6 Q2321.33 1524.47 2319.5 1520.93 Q2317.69 1517.37 2314.06 1517.37 M2314.06 1513.66 Q2319.87 1513.66 2322.92 1518.27 Q2326 1522.85 2326 1531.6 Q2326 1540.33 2322.92 1544.94 Q2319.87 1549.52 2314.06 1549.52 Q2308.25 1549.52 2305.17 1544.94 Q2302.11 1540.33 2302.11 1531.6 Q2302.11 1522.85 2305.17 1518.27 Q2308.25 1513.66 2314.06 1513.66 Z" fill="#000000" fill-rule="nonzero" fill-opacity="1" /><polyline clip-path="url(#clip032)" style="stroke:#000000; stroke-linecap:round; stroke-linejoin:round; stroke-width:2; stroke-opacity:0.1; fill:none" points="223.103,1391.26 2352.76,1391.26 "/>
<polyline clip-path="url(#clip032)" style="stroke:#000000; stroke-linecap:round; stroke-linejoin:round; stroke-width:2; stroke-opacity:0.1; fill:none" points="223.103,1192.44 2352.76,1192.44 "/>
<polyline clip-path="url(#clip032)" style="stroke:#000000; stroke-linecap:round; stroke-linejoin:round; stroke-width:2; stroke-opacity:0.1; fill:none" points="223.103,993.611 2352.76,993.611 "/>
<polyline clip-path="url(#clip032)" style="stroke:#000000; stroke-linecap:round; stroke-linejoin:round; stroke-width:2; stroke-opacity:0.1; fill:none" points="223.103,794.784 2352.76,794.784 "/>
<polyline clip-path="url(#clip032)" style="stroke:#000000; stroke-linecap:round; stroke-linejoin:round; stroke-width:2; stroke-opacity:0.1; fill:none" points="223.103,595.958 2352.76,595.958 "/>
<polyline clip-path="url(#clip032)" style="stroke:#000000; stroke-linecap:round; stroke-linejoin:round; stroke-width:2; stroke-opacity:0.1; fill:none" points="223.103,397.131 2352.76,397.131 "/>
<polyline clip-path="url(#clip032)" style="stroke:#000000; stroke-linecap:round; stroke-linejoin:round; stroke-width:2; stroke-opacity:0.1; fill:none" points="223.103,198.304 2352.76,198.304 "/>
<polyline clip-path="url(#clip030)" style="stroke:#000000; stroke-linecap:round; stroke-linejoin:round; stroke-width:4; stroke-opacity:1; fill:none" points="223.103,1486.45 223.103,47.2441 "/>
<polyline clip-path="url(#clip030)" style="stroke:#000000; stroke-linecap:round; stroke-linejoin:round; stroke-width:4; stroke-opacity:1; fill:none" points="223.103,1391.26 242,1391.26 "/>
<polyline clip-path="url(#clip030)" style="stroke:#000000; stroke-linecap:round; stroke-linejoin:round; stroke-width:4; stroke-opacity:1; fill:none" points="223.103,1192.44 242,1192.44 "/>
<polyline clip-path="url(#clip030)" style="stroke:#000000; stroke-linecap:round; stroke-linejoin:round; stroke-width:4; stroke-opacity:1; fill:none" points="223.103,993.611 242,993.611 "/>
<polyline clip-path="url(#clip030)" style="stroke:#000000; stroke-linecap:round; stroke-linejoin:round; stroke-width:4; stroke-opacity:1; fill:none" points="223.103,794.784 242,794.784 "/>
<polyline clip-path="url(#clip030)" style="stroke:#000000; stroke-linecap:round; stroke-linejoin:round; stroke-width:4; stroke-opacity:1; fill:none" points="223.103,595.958 242,595.958 "/>
<polyline clip-path="url(#clip030)" style="stroke:#000000; stroke-linecap:round; stroke-linejoin:round; stroke-width:4; stroke-opacity:1; fill:none" points="223.103,397.131 242,397.131 "/>
<polyline clip-path="url(#clip030)" style="stroke:#000000; stroke-linecap:round; stroke-linejoin:round; stroke-width:4; stroke-opacity:1; fill:none" points="223.103,198.304 242,198.304 "/>
<path clip-path="url(#clip030)" d="M50.9921 1391.72 L80.6679 1391.72 L80.6679 1395.65 L50.9921 1395.65 L50.9921 1391.72 Z" fill="#000000" fill-rule="nonzero" fill-opacity="1" /><path clip-path="url(#clip030)" d="M100.76 1377.06 Q97.1493 1377.06 95.3206 1380.63 Q93.515 1384.17 93.515 1391.3 Q93.515 1398.41 95.3206 1401.97 Q97.1493 1405.51 100.76 1405.51 Q104.395 1405.51 106.2 1401.97 Q108.029 1398.41 108.029 1391.3 Q108.029 1384.17 106.2 1380.63 Q104.395 1377.06 100.76 1377.06 M100.76 1373.36 Q106.571 1373.36 109.626 1377.97 Q112.705 1382.55 112.705 1391.3 Q112.705 1400.03 109.626 1404.63 Q106.571 1409.22 100.76 1409.22 Q94.9502 1409.22 91.8715 1404.63 Q88.816 1400.03 88.816 1391.3 Q88.816 1382.55 91.8715 1377.97 Q94.9502 1373.36 100.76 1373.36 Z" fill="#000000" fill-rule="nonzero" fill-opacity="1" /><path clip-path="url(#clip030)" d="M120.922 1402.66 L125.807 1402.66 L125.807 1408.54 L120.922 1408.54 L120.922 1402.66 Z" fill="#000000" fill-rule="nonzero" fill-opacity="1" /><path clip-path="url(#clip030)" d="M140.019 1404.61 L156.339 1404.61 L156.339 1408.54 L134.394 1408.54 L134.394 1404.61 Q137.056 1401.85 141.64 1397.22 Q146.246 1392.57 147.427 1391.23 Q149.672 1388.71 150.552 1386.97 Q151.455 1385.21 151.455 1383.52 Q151.455 1380.77 149.51 1379.03 Q147.589 1377.29 144.487 1377.29 Q142.288 1377.29 139.834 1378.06 Q137.404 1378.82 134.626 1380.37 L134.626 1375.65 Q137.45 1374.52 139.904 1373.94 Q142.357 1373.36 144.394 1373.36 Q149.765 1373.36 152.959 1376.04 Q156.154 1378.73 156.154 1383.22 Q156.154 1385.35 155.343 1387.27 Q154.556 1389.17 152.45 1391.76 Q151.871 1392.43 148.769 1395.65 Q145.668 1398.85 140.019 1404.61 Z" fill="#000000" fill-rule="nonzero" fill-opacity="1" /><path clip-path="url(#clip030)" d="M166.2 1373.98 L184.556 1373.98 L184.556 1377.92 L170.482 1377.92 L170.482 1386.39 Q171.501 1386.04 172.519 1385.88 Q173.538 1385.7 174.556 1385.7 Q180.343 1385.7 183.723 1388.87 Q187.103 1392.04 187.103 1397.46 Q187.103 1403.04 183.63 1406.14 Q180.158 1409.22 173.839 1409.22 Q171.663 1409.22 169.394 1408.85 Q167.149 1408.47 164.742 1407.73 L164.742 1403.04 Q166.825 1404.17 169.047 1404.72 Q171.269 1405.28 173.746 1405.28 Q177.751 1405.28 180.089 1403.17 Q182.427 1401.07 182.427 1397.46 Q182.427 1393.85 180.089 1391.74 Q177.751 1389.63 173.746 1389.63 Q171.871 1389.63 169.996 1390.05 Q168.144 1390.47 166.2 1391.35 L166.2 1373.98 Z" fill="#000000" fill-rule="nonzero" fill-opacity="1" /><path clip-path="url(#clip030)" d="M99.765 1178.24 Q96.1539 1178.24 94.3252 1181.8 Q92.5197 1185.34 92.5197 1192.47 Q92.5197 1199.58 94.3252 1203.14 Q96.1539 1206.69 99.765 1206.69 Q103.399 1206.69 105.205 1203.14 Q107.033 1199.58 107.033 1192.47 Q107.033 1185.34 105.205 1181.8 Q103.399 1178.24 99.765 1178.24 M99.765 1174.53 Q105.575 1174.53 108.631 1179.14 Q111.709 1183.72 111.709 1192.47 Q111.709 1201.2 108.631 1205.81 Q105.575 1210.39 99.765 1210.39 Q93.9549 1210.39 90.8762 1205.81 Q87.8206 1201.2 87.8206 1192.47 Q87.8206 1183.72 90.8762 1179.14 Q93.9549 1174.53 99.765 1174.53 Z" fill="#000000" fill-rule="nonzero" fill-opacity="1" /><path clip-path="url(#clip030)" d="M119.927 1203.84 L124.811 1203.84 L124.811 1209.72 L119.927 1209.72 L119.927 1203.84 Z" fill="#000000" fill-rule="nonzero" fill-opacity="1" /><path clip-path="url(#clip030)" d="M144.996 1178.24 Q141.385 1178.24 139.556 1181.8 Q137.751 1185.34 137.751 1192.47 Q137.751 1199.58 139.556 1203.14 Q141.385 1206.69 144.996 1206.69 Q148.63 1206.69 150.436 1203.14 Q152.265 1199.58 152.265 1192.47 Q152.265 1185.34 150.436 1181.8 Q148.63 1178.24 144.996 1178.24 M144.996 1174.53 Q150.806 1174.53 153.862 1179.14 Q156.941 1183.72 156.941 1192.47 Q156.941 1201.2 153.862 1205.81 Q150.806 1210.39 144.996 1210.39 Q139.186 1210.39 136.107 1205.81 Q133.052 1201.2 133.052 1192.47 Q133.052 1183.72 136.107 1179.14 Q139.186 1174.53 144.996 1174.53 Z" fill="#000000" fill-rule="nonzero" fill-opacity="1" /><path clip-path="url(#clip030)" d="M175.158 1178.24 Q171.547 1178.24 169.718 1181.8 Q167.913 1185.34 167.913 1192.47 Q167.913 1199.58 169.718 1203.14 Q171.547 1206.69 175.158 1206.69 Q178.792 1206.69 180.598 1203.14 Q182.427 1199.58 182.427 1192.47 Q182.427 1185.34 180.598 1181.8 Q178.792 1178.24 175.158 1178.24 M175.158 1174.53 Q180.968 1174.53 184.024 1179.14 Q187.103 1183.72 187.103 1192.47 Q187.103 1201.2 184.024 1205.81 Q180.968 1210.39 175.158 1210.39 Q169.348 1210.39 166.269 1205.81 Q163.214 1201.2 163.214 1192.47 Q163.214 1183.72 166.269 1179.14 Q169.348 1174.53 175.158 1174.53 Z" fill="#000000" fill-rule="nonzero" fill-opacity="1" /><path clip-path="url(#clip030)" d="M100.76 979.41 Q97.1493 979.41 95.3206 982.974 Q93.515 986.516 93.515 993.646 Q93.515 1000.75 95.3206 1004.32 Q97.1493 1007.86 100.76 1007.86 Q104.395 1007.86 106.2 1004.32 Q108.029 1000.75 108.029 993.646 Q108.029 986.516 106.2 982.974 Q104.395 979.41 100.76 979.41 M100.76 975.706 Q106.571 975.706 109.626 980.312 Q112.705 984.896 112.705 993.646 Q112.705 1002.37 109.626 1006.98 Q106.571 1011.56 100.76 1011.56 Q94.9502 1011.56 91.8715 1006.98 Q88.816 1002.37 88.816 993.646 Q88.816 984.896 91.8715 980.312 Q94.9502 975.706 100.76 975.706 Z" fill="#000000" fill-rule="nonzero" fill-opacity="1" /><path clip-path="url(#clip030)" d="M120.922 1005.01 L125.807 1005.01 L125.807 1010.89 L120.922 1010.89 L120.922 1005.01 Z" fill="#000000" fill-rule="nonzero" fill-opacity="1" /><path clip-path="url(#clip030)" d="M140.019 1006.96 L156.339 1006.96 L156.339 1010.89 L134.394 1010.89 L134.394 1006.96 Q137.056 1004.2 141.64 999.572 Q146.246 994.919 147.427 993.576 Q149.672 991.053 150.552 989.317 Q151.455 987.558 151.455 985.868 Q151.455 983.113 149.51 981.377 Q147.589 979.641 144.487 979.641 Q142.288 979.641 139.834 980.405 Q137.404 981.169 134.626 982.72 L134.626 977.998 Q137.45 976.863 139.904 976.285 Q142.357 975.706 144.394 975.706 Q149.765 975.706 152.959 978.391 Q156.154 981.076 156.154 985.567 Q156.154 987.697 155.343 989.618 Q154.556 991.516 152.45 994.109 Q151.871 994.78 148.769 997.997 Q145.668 1001.19 140.019 1006.96 Z" fill="#000000" fill-rule="nonzero" fill-opacity="1" /><path clip-path="url(#clip030)" d="M166.2 976.331 L184.556 976.331 L184.556 980.266 L170.482 980.266 L170.482 988.738 Q171.501 988.391 172.519 988.229 Q173.538 988.044 174.556 988.044 Q180.343 988.044 183.723 991.215 Q187.103 994.386 187.103 999.803 Q187.103 1005.38 183.63 1008.48 Q180.158 1011.56 173.839 1011.56 Q171.663 1011.56 169.394 1011.19 Q167.149 1010.82 164.742 1010.08 L164.742 1005.38 Q166.825 1006.52 169.047 1007.07 Q171.269 1007.63 173.746 1007.63 Q177.751 1007.63 180.089 1005.52 Q182.427 1003.41 182.427 999.803 Q182.427 996.192 180.089 994.085 Q177.751 991.979 173.746 991.979 Q171.871 991.979 169.996 992.396 Q168.144 992.812 166.2 993.692 L166.2 976.331 Z" fill="#000000" fill-rule="nonzero" fill-opacity="1" /><path clip-path="url(#clip030)" d="M99.765 780.583 Q96.1539 780.583 94.3252 784.148 Q92.5197 787.689 92.5197 794.819 Q92.5197 801.925 94.3252 805.49 Q96.1539 809.032 99.765 809.032 Q103.399 809.032 105.205 805.49 Q107.033 801.925 107.033 794.819 Q107.033 787.689 105.205 784.148 Q103.399 780.583 99.765 780.583 M99.765 776.879 Q105.575 776.879 108.631 781.486 Q111.709 786.069 111.709 794.819 Q111.709 803.546 108.631 808.152 Q105.575 812.736 99.765 812.736 Q93.9549 812.736 90.8762 808.152 Q87.8206 803.546 87.8206 794.819 Q87.8206 786.069 90.8762 781.486 Q93.9549 776.879 99.765 776.879 Z" fill="#000000" fill-rule="nonzero" fill-opacity="1" /><path clip-path="url(#clip030)" d="M119.927 806.185 L124.811 806.185 L124.811 812.064 L119.927 812.064 L119.927 806.185 Z" fill="#000000" fill-rule="nonzero" fill-opacity="1" /><path clip-path="url(#clip030)" d="M135.043 777.504 L153.399 777.504 L153.399 781.439 L139.325 781.439 L139.325 789.912 Q140.343 789.564 141.362 789.402 Q142.381 789.217 143.399 789.217 Q149.186 789.217 152.566 792.388 Q155.945 795.56 155.945 800.976 Q155.945 806.555 152.473 809.657 Q149.001 812.736 142.681 812.736 Q140.506 812.736 138.237 812.365 Q135.992 811.995 133.584 811.254 L133.584 806.555 Q135.668 807.689 137.89 808.245 Q140.112 808.8 142.589 808.8 Q146.593 808.8 148.931 806.694 Q151.269 804.587 151.269 800.976 Q151.269 797.365 148.931 795.259 Q146.593 793.152 142.589 793.152 Q140.714 793.152 138.839 793.569 Q136.987 793.986 135.043 794.865 L135.043 777.504 Z" fill="#000000" fill-rule="nonzero" fill-opacity="1" /><path clip-path="url(#clip030)" d="M175.158 780.583 Q171.547 780.583 169.718 784.148 Q167.913 787.689 167.913 794.819 Q167.913 801.925 169.718 805.49 Q171.547 809.032 175.158 809.032 Q178.792 809.032 180.598 805.49 Q182.427 801.925 182.427 794.819 Q182.427 787.689 180.598 784.148 Q178.792 780.583 175.158 780.583 M175.158 776.879 Q180.968 776.879 184.024 781.486 Q187.103 786.069 187.103 794.819 Q187.103 803.546 184.024 808.152 Q180.968 812.736 175.158 812.736 Q169.348 812.736 166.269 808.152 Q163.214 803.546 163.214 794.819 Q163.214 786.069 166.269 781.486 Q169.348 776.879 175.158 776.879 Z" fill="#000000" fill-rule="nonzero" fill-opacity="1" /><path clip-path="url(#clip030)" d="M100.76 581.756 Q97.1493 581.756 95.3206 585.321 Q93.515 588.863 93.515 595.992 Q93.515 603.099 95.3206 606.664 Q97.1493 610.205 100.76 610.205 Q104.395 610.205 106.2 606.664 Q108.029 603.099 108.029 595.992 Q108.029 588.863 106.2 585.321 Q104.395 581.756 100.76 581.756 M100.76 578.053 Q106.571 578.053 109.626 582.659 Q112.705 587.242 112.705 595.992 Q112.705 604.719 109.626 609.326 Q106.571 613.909 100.76 613.909 Q94.9502 613.909 91.8715 609.326 Q88.816 604.719 88.816 595.992 Q88.816 587.242 91.8715 582.659 Q94.9502 578.053 100.76 578.053 Z" fill="#000000" fill-rule="nonzero" fill-opacity="1" /><path clip-path="url(#clip030)" d="M120.922 607.358 L125.807 607.358 L125.807 613.238 L120.922 613.238 L120.922 607.358 Z" fill="#000000" fill-rule="nonzero" fill-opacity="1" /><path clip-path="url(#clip030)" d="M134.811 578.678 L157.033 578.678 L157.033 580.668 L144.487 613.238 L139.603 613.238 L151.408 582.613 L134.811 582.613 L134.811 578.678 Z" fill="#000000" fill-rule="nonzero" fill-opacity="1" /><path clip-path="url(#clip030)" d="M166.2 578.678 L184.556 578.678 L184.556 582.613 L170.482 582.613 L170.482 591.085 Q171.501 590.738 172.519 590.576 Q173.538 590.39 174.556 590.39 Q180.343 590.39 183.723 593.562 Q187.103 596.733 187.103 602.15 Q187.103 607.728 183.63 610.83 Q180.158 613.909 173.839 613.909 Q171.663 613.909 169.394 613.538 Q167.149 613.168 164.742 612.427 L164.742 607.728 Q166.825 608.863 169.047 609.418 Q171.269 609.974 173.746 609.974 Q177.751 609.974 180.089 607.867 Q182.427 605.761 182.427 602.15 Q182.427 598.539 180.089 596.432 Q177.751 594.326 173.746 594.326 Q171.871 594.326 169.996 594.742 Q168.144 595.159 166.2 596.039 L166.2 578.678 Z" fill="#000000" fill-rule="nonzero" fill-opacity="1" /><path clip-path="url(#clip030)" d="M90.5752 410.476 L98.2141 410.476 L98.2141 384.11 L89.904 385.777 L89.904 381.518 L98.1678 379.851 L102.844 379.851 L102.844 410.476 L110.483 410.476 L110.483 414.411 L90.5752 414.411 L90.5752 410.476 Z" fill="#000000" fill-rule="nonzero" fill-opacity="1" /><path clip-path="url(#clip030)" d="M119.927 408.531 L124.811 408.531 L124.811 414.411 L119.927 414.411 L119.927 408.531 Z" fill="#000000" fill-rule="nonzero" fill-opacity="1" /><path clip-path="url(#clip030)" d="M144.996 382.93 Q141.385 382.93 139.556 386.494 Q137.751 390.036 137.751 397.166 Q137.751 404.272 139.556 407.837 Q141.385 411.378 144.996 411.378 Q148.63 411.378 150.436 407.837 Q152.265 404.272 152.265 397.166 Q152.265 390.036 150.436 386.494 Q148.63 382.93 144.996 382.93 M144.996 379.226 Q150.806 379.226 153.862 383.832 Q156.941 388.416 156.941 397.166 Q156.941 405.892 153.862 410.499 Q150.806 415.082 144.996 415.082 Q139.186 415.082 136.107 410.499 Q133.052 405.892 133.052 397.166 Q133.052 388.416 136.107 383.832 Q139.186 379.226 144.996 379.226 Z" fill="#000000" fill-rule="nonzero" fill-opacity="1" /><path clip-path="url(#clip030)" d="M175.158 382.93 Q171.547 382.93 169.718 386.494 Q167.913 390.036 167.913 397.166 Q167.913 404.272 169.718 407.837 Q171.547 411.378 175.158 411.378 Q178.792 411.378 180.598 407.837 Q182.427 404.272 182.427 397.166 Q182.427 390.036 180.598 386.494 Q178.792 382.93 175.158 382.93 M175.158 379.226 Q180.968 379.226 184.024 383.832 Q187.103 388.416 187.103 397.166 Q187.103 405.892 184.024 410.499 Q180.968 415.082 175.158 415.082 Q169.348 415.082 166.269 410.499 Q163.214 405.892 163.214 397.166 Q163.214 388.416 166.269 383.832 Q169.348 379.226 175.158 379.226 Z" fill="#000000" fill-rule="nonzero" fill-opacity="1" /><path clip-path="url(#clip030)" d="M91.5706 211.649 L99.2095 211.649 L99.2095 185.283 L90.8993 186.95 L90.8993 182.691 L99.1632 181.024 L103.839 181.024 L103.839 211.649 L111.478 211.649 L111.478 215.584 L91.5706 215.584 L91.5706 211.649 Z" fill="#000000" fill-rule="nonzero" fill-opacity="1" /><path clip-path="url(#clip030)" d="M120.922 209.705 L125.807 209.705 L125.807 215.584 L120.922 215.584 L120.922 209.705 Z" fill="#000000" fill-rule="nonzero" fill-opacity="1" /><path clip-path="url(#clip030)" d="M140.019 211.649 L156.339 211.649 L156.339 215.584 L134.394 215.584 L134.394 211.649 Q137.056 208.894 141.64 204.265 Q146.246 199.612 147.427 198.269 Q149.672 195.746 150.552 194.01 Q151.455 192.251 151.455 190.561 Q151.455 187.807 149.51 186.07 Q147.589 184.334 144.487 184.334 Q142.288 184.334 139.834 185.098 Q137.404 185.862 134.626 187.413 L134.626 182.691 Q137.45 181.557 139.904 180.978 Q142.357 180.399 144.394 180.399 Q149.765 180.399 152.959 183.084 Q156.154 185.77 156.154 190.26 Q156.154 192.39 155.343 194.311 Q154.556 196.209 152.45 198.802 Q151.871 199.473 148.769 202.691 Q145.668 205.885 140.019 211.649 Z" fill="#000000" fill-rule="nonzero" fill-opacity="1" /><path clip-path="url(#clip030)" d="M166.2 181.024 L184.556 181.024 L184.556 184.959 L170.482 184.959 L170.482 193.432 Q171.501 193.084 172.519 192.922 Q173.538 192.737 174.556 192.737 Q180.343 192.737 183.723 195.908 Q187.103 199.08 187.103 204.496 Q187.103 210.075 183.63 213.177 Q180.158 216.255 173.839 216.255 Q171.663 216.255 169.394 215.885 Q167.149 215.515 164.742 214.774 L164.742 210.075 Q166.825 211.209 169.047 211.765 Q171.269 212.32 173.746 212.32 Q177.751 212.32 180.089 210.214 Q182.427 208.107 182.427 204.496 Q182.427 200.885 180.089 198.779 Q177.751 196.672 173.746 196.672 Q171.871 196.672 169.996 197.089 Q168.144 197.506 166.2 198.385 L166.2 181.024 Z" fill="#000000" fill-rule="nonzero" fill-opacity="1" /><polyline clip-path="url(#clip032)" style="stroke:#009af9; stroke-linecap:round; stroke-linejoin:round; stroke-width:16; stroke-opacity:1; fill:none" stroke-dasharray="8, 16" points="283.376,1072.98 293.472,1010.06 303.568,991.663 313.664,989.551 323.76,1029.07 333.856,1113.12 343.952,1171.45 354.048,1150.7 364.144,1083.46 374.24,1043.41 384.336,1060.2 394.432,1111.97 404.528,1168.85 414.624,1216.83 424.72,1254.62 434.816,1279.64 444.912,1288.29 455.008,1285.18 465.104,1279.56 475.2,1287.89 485.296,1330.44 495.392,1385.59 505.488,1395.65 515.584,1359.83 525.68,1330.9 535.776,1334.21 545.872,1351.17 555.968,1336.99 566.064,1273.04 576.16,1195.82 586.256,1160.3 596.352,1170.26 606.448,1155.83 616.544,1080.44 626.64,1010.9 636.736,1011.57 646.832,1044.32 656.928,1033.34 667.024,988.237 677.12,970.724 687.216,1005.53 697.312,1066.21 707.408,1107.41 717.504,1114.57 727.6,1114.02 737.696,1119.54 747.792,1135.28 757.888,1164.69 767.984,1199.42 778.08,1243.49 788.176,1300.17 798.272,1351.59 808.369,1361.49 818.465,1309.31 828.561,1232.8 838.657,1207.84 848.753,1262.74 858.849,1365.03 868.945,1436.96 879.041,1412.93 889.137,1336.93 899.233,1293.06 909.329,1297.48 919.425,1301.2 929.521,1259.61 939.617,1184.92 949.713,1148.45 959.809,1183.09 969.905,1190.33 980.001,1086.74 990.097,987.298 1000.19,986.566 1010.29,1026.28 1020.38,1035.46 1030.48,1001.51 1040.58,956.97 1050.67,957.511 1060.77,1045.79 1070.86,1191.13 1080.96,1282.14 1091.06,1250.75 1101.15,1175.36 1111.25,1172.66 1121.34,1233.78 1131.44,1280.95 1141.54,1282.13 1151.63,1274.77 1161.73,1300.38 1171.83,1343.44 1181.92,1355.26 1192.02,1316.05 1202.11,1275.76 1212.21,1272.67 1222.31,1309.59 1232.4,1375.91 1242.5,1439.27 1252.59,1445.72 1262.69,1341.52 1272.79,1122.11 1282.88,868.346 1292.98,654.089 1303.07,477.206 1313.17,335.96 1323.27,275.238 1333.36,299.15 1343.46,368.493 1353.55,436.709 1363.65,471.763 1373.75,461.342 1383.84,412.219 1393.94,369.28 1404.03,368.28 1414.13,380.175 1424.23,386.356 1434.32,397.31 1444.42,434.789 1454.51,492.847 1464.61,506.266 1474.71,401.719 1484.8,227.624 1494.9,141.209 1504.99,219.792 1515.09,372.259 1525.19,465.993 1535.28,467.631 1545.38,427.112 1555.47,409.82 1565.57,456.321 1575.67,550.646 1585.76,579.803 1595.86,438.844 1605.95,276.955 1616.05,252.493 1626.15,295.036 1636.24,314.828 1646.34,316.212 1656.43,339.137 1666.53,392.562 1676.63,440.958 1686.72,433.831 1696.82,373.998 1706.91,348.803 1717.01,423.343 1727.11,514.332 1737.2,512.192 1747.3,415.457 1757.39,303.866 1767.49,259.669 1777.59,300.527 1787.68,388.541 1797.78,472.137 1807.87,515.05 1817.97,509.332 1828.07,471.487 1838.16,423.764 1848.26,377.909 1858.35,318.935 1868.45,260.612 1878.55,257.557 1888.64,321.489 1898.74,405.259 1908.83,469.559 1918.93,517.658 1929.03,555.315 1939.12,562.569 1949.22,510.178 1959.31,408.812 1969.41,324.363 1979.51,299.666 1989.6,299.899 1999.7,290.337 2009.79,293.313 2019.89,349.336 2029.99,455.8 2040.08,552.52 2050.18,573.347 2060.27,503.771 2070.37,393.402 2080.47,318.202 2090.56,287.275 2100.66,259.592 2110.75,248.774 2120.85,280.123 2130.95,343.274 2141.04,433.854 2151.14,525.344 2161.23,583.374 2171.33,599.158 2181.43,574.438 2191.52,501.27 2201.62,370.619 2211.71,206.216 2221.81,87.9763 2231.91,96.4486 2242,227.188 2252.1,397.686 2262.19,524.634 2272.29,596.287 2282.39,627.107 2292.48,594.997 "/>
<polyline clip-path="url(#clip032)" style="stroke:#e26f46; stroke-linecap:round; stroke-linejoin:round; stroke-width:4; stroke-opacity:1; fill:none" points="283.376,1072.98 293.472,1056.04 303.568,1043.54 313.664,1035.9 323.76,1033.38 333.856,1036.04 343.952,1043.81 354.048,1056.43 364.144,1073.49 374.24,1094.43 384.336,1118.56 394.432,1145.11 404.528,1173.21 414.624,1201.93 424.72,1230.34 434.816,1257.52 444.912,1282.57 455.008,1304.68 465.104,1323.13 475.2,1337.31 485.296,1346.76 495.392,1351.17 505.488,1350.41 515.584,1344.49 525.68,1333.61 535.776,1318.12 545.872,1298.52 555.968,1275.47 566.064,1249.7 576.16,1222.07 586.256,1193.47 596.352,1164.84 606.448,1137.1 616.544,1111.17 626.64,1087.9 636.736,1068.04 646.832,1052.23 656.928,1041 667.024,1034.72 677.12,1033.58 687.216,1037.63 697.312,1046.73 707.408,1060.58 717.504,1078.74 727.6,1100.61 737.696,1125.48 747.792,1152.53 757.888,1180.88 767.984,1209.61 778.08,1237.78 788.176,1264.47 798.272,1288.81 808.369,1310.01 818.465,1327.37 828.561,1340.32 838.657,1348.45 848.753,1351.48 858.849,1349.32 868.945,1342.05 879.041,1329.89 889.137,1313.24 899.233,1292.66 909.329,1268.8 919.425,1242.45 929.521,1214.46 939.617,1185.76 949.713,1157.28 959.809,1129.94 969.905,1104.64 980.001,1082.21 990.097,1063.38 1000.19,1048.76 1010.29,1038.82 1020.38,1033.91 1030.48,1034.16 1040.58,1039.58 1050.67,1049.99 1060.77,1065.05 1070.86,1084.27 1080.96,1107.01 1091.06,1132.55 1101.15,1160.04 1111.25,1188.58 1121.34,1217.26 1131.44,1245.12 1141.54,1271.26 1151.63,1294.83 1161.73,1315.06 1171.83,1331.29 1181.92,1342.98 1192.02,1349.76 1202.11,1351.41 1212.21,1347.87 1222.31,1339.26 1232.4,1325.85 1242.5,1308.09 1252.59,1286.55 1262.69,1261.95 1272.79,1235.07 1282.88,1206.81 1292.98,395.976 1303.07,394.661 1313.17,395.858 1323.27,399.84 1333.36,405.388 1343.46,410.158 1353.55,411.57 1363.65,407.9 1373.75,399.152 1383.84,387.358 1393.94,376.135 1404.03,369.579 1414.13,370.837 1424.23,380.84 1434.32,397.665 1444.42,416.813 1454.51,432.406 1464.61,438.983 1474.71,433.353 1484.8,415.884 1494.9,390.756 1504.99,365.004 1515.09,346.548 1525.19,341.767 1535.28,353.357 1545.38,379.179 1555.47,412.528 1565.57,443.855 1575.67,463.502 1585.76,464.666 1595.86,445.685 1605.95,410.898 1616.05,369.719 1626.15,334.099 1636.24,315.058 1646.34,319.292 1656.43,346.898 1666.53,390.968 1676.63,439.28 1686.72,477.683 1696.82,494.24 1706.91,482.918 1717.01,445.687 1727.11,392.324 1737.2,337.869 1747.3,298.384 1757.39,286.224 1767.49,306.192 1777.59,353.785 1787.68,416.133 1797.78,475.465 1807.87,514.175 1817.97,520.038 1828.07,490.044 1838.16,431.641 1848.26,360.932 1858.35,298.242 1868.45,262.277 1878.55,264.551 1888.64,305.734 1898.74,375.085 1908.83,453.22 1918.93,517.526 1929.03,548.709 1939.12,536.566 1949.22,483.281 1959.31,403.167 1969.41,318.844 1979.51,254.85 1989.6,230.508 1999.7,254.098 2009.79,320.112 2019.89,410.474 2029.99,499.47 2040.08,561.073 2050.18,576.546 2060.27,540.128 2070.37,461.063 2080.47,361.301 2090.56,269.403 2100.66,212.374 2110.75,207.722 2120.85,258.112 2130.95,350.215 2141.04,458.209 2151.14,551.013 2161.23,601.23 2171.33,593.235 2181.43,528.002 2191.52,423.211 2201.62,308.466 2211.71,216.941 2221.81,175.785 2231.91,198.081 2242,278.719 2252.1,395.498 2262.19,515.222 2272.29,603.141 2282.39,633.027 2292.48,594.998 "/>
<path clip-path="url(#clip030)" d="M294.091 250.738 L733.884 250.738 L733.884 95.2176 L294.091 95.2176  Z" fill="#ffffff" fill-rule="evenodd" fill-opacity="1"/>
<polyline clip-path="url(#clip030)" style="stroke:#000000; stroke-linecap:round; stroke-linejoin:round; stroke-width:4; stroke-opacity:1; fill:none" points="294.091,250.738 733.884,250.738 733.884,95.2176 294.091,95.2176 294.091,250.738 "/>
<polyline clip-path="url(#clip030)" style="stroke:#009af9; stroke-linecap:round; stroke-linejoin:round; stroke-width:16; stroke-opacity:1; fill:none" stroke-dasharray="8, 16" points="317.754,147.058 459.731,147.058 "/>
<path clip-path="url(#clip030)" d="M488.069 133.62 L488.069 146.606 L493.949 146.606 Q497.213 146.606 498.995 144.916 Q500.778 143.227 500.778 140.102 Q500.778 137 498.995 135.31 Q497.213 133.62 493.949 133.62 L488.069 133.62 M483.393 129.778 L493.949 129.778 Q499.759 129.778 502.722 132.416 Q505.708 135.032 505.708 140.102 Q505.708 145.217 502.722 147.833 Q499.759 150.449 493.949 150.449 L488.069 150.449 L488.069 164.338 L483.393 164.338 L483.393 129.778 Z" fill="#000000" fill-rule="nonzero" fill-opacity="1" /><path clip-path="url(#clip030)" d="M525.986 142.393 Q525.268 141.977 524.412 141.791 Q523.578 141.583 522.56 141.583 Q518.949 141.583 517.004 143.944 Q515.083 146.282 515.083 150.68 L515.083 164.338 L510.801 164.338 L510.801 138.412 L515.083 138.412 L515.083 142.44 Q516.426 140.078 518.578 138.944 Q520.731 137.787 523.81 137.787 Q524.25 137.787 524.782 137.856 Q525.315 137.903 525.963 138.018 L525.986 142.393 Z" fill="#000000" fill-rule="nonzero" fill-opacity="1" /><path clip-path="url(#clip030)" d="M551.588 150.31 L551.588 152.393 L532.004 152.393 Q532.282 156.791 534.643 159.106 Q537.027 161.398 541.264 161.398 Q543.717 161.398 546.009 160.796 Q548.324 160.194 550.592 158.99 L550.592 163.018 Q548.301 163.99 545.893 164.5 Q543.486 165.009 541.009 165.009 Q534.805 165.009 531.171 161.398 Q527.56 157.787 527.56 151.629 Q527.56 145.264 530.986 141.537 Q534.435 137.787 540.268 137.787 Q545.5 137.787 548.532 141.166 Q551.588 144.523 551.588 150.31 M547.328 149.06 Q547.282 145.565 545.361 143.481 Q543.463 141.398 540.314 141.398 Q536.75 141.398 534.597 143.412 Q532.467 145.426 532.143 149.083 L547.328 149.06 Z" fill="#000000" fill-rule="nonzero" fill-opacity="1" /><path clip-path="url(#clip030)" d="M575.638 142.347 L575.638 128.319 L579.898 128.319 L579.898 164.338 L575.638 164.338 L575.638 160.449 Q574.296 162.763 572.236 163.898 Q570.199 165.009 567.328 165.009 Q562.629 165.009 559.666 161.259 Q556.726 157.509 556.726 151.398 Q556.726 145.287 559.666 141.537 Q562.629 137.787 567.328 137.787 Q570.199 137.787 572.236 138.921 Q574.296 140.032 575.638 142.347 M561.125 151.398 Q561.125 156.097 563.046 158.782 Q564.99 161.444 568.37 161.444 Q571.749 161.444 573.694 158.782 Q575.638 156.097 575.638 151.398 Q575.638 146.699 573.694 144.037 Q571.749 141.352 568.37 141.352 Q564.99 141.352 563.046 144.037 Q561.125 146.699 561.125 151.398 Z" fill="#000000" fill-rule="nonzero" fill-opacity="1" /><path clip-path="url(#clip030)" d="M588.671 138.412 L592.93 138.412 L592.93 164.338 L588.671 164.338 L588.671 138.412 M588.671 128.319 L592.93 128.319 L592.93 133.713 L588.671 133.713 L588.671 128.319 Z" fill="#000000" fill-rule="nonzero" fill-opacity="1" /><path clip-path="url(#clip030)" d="M620.499 139.407 L620.499 143.389 Q618.694 142.393 616.865 141.907 Q615.059 141.398 613.208 141.398 Q609.064 141.398 606.772 144.037 Q604.481 146.652 604.481 151.398 Q604.481 156.143 606.772 158.782 Q609.064 161.398 613.208 161.398 Q615.059 161.398 616.865 160.912 Q618.694 160.402 620.499 159.407 L620.499 163.342 Q618.717 164.176 616.796 164.592 Q614.897 165.009 612.745 165.009 Q606.888 165.009 603.439 161.328 Q599.99 157.648 599.99 151.398 Q599.99 145.055 603.462 141.421 Q606.958 137.787 613.022 137.787 Q614.99 137.787 616.865 138.203 Q618.74 138.597 620.499 139.407 Z" fill="#000000" fill-rule="nonzero" fill-opacity="1" /><path clip-path="url(#clip030)" d="M632.12 131.051 L632.12 138.412 L640.893 138.412 L640.893 141.722 L632.12 141.722 L632.12 155.796 Q632.12 158.967 632.976 159.87 Q633.856 160.773 636.518 160.773 L640.893 160.773 L640.893 164.338 L636.518 164.338 Q631.587 164.338 629.712 162.509 Q627.837 160.657 627.837 155.796 L627.837 141.722 L624.712 141.722 L624.712 138.412 L627.837 138.412 L627.837 131.051 L632.12 131.051 Z" fill="#000000" fill-rule="nonzero" fill-opacity="1" /><path clip-path="url(#clip030)" d="M646.494 138.412 L650.754 138.412 L650.754 164.338 L646.494 164.338 L646.494 138.412 M646.494 128.319 L650.754 128.319 L650.754 133.713 L646.494 133.713 L646.494 128.319 Z" fill="#000000" fill-rule="nonzero" fill-opacity="1" /><path clip-path="url(#clip030)" d="M669.712 141.398 Q666.286 141.398 664.295 144.083 Q662.305 146.745 662.305 151.398 Q662.305 156.051 664.272 158.736 Q666.263 161.398 669.712 161.398 Q673.115 161.398 675.105 158.713 Q677.096 156.027 677.096 151.398 Q677.096 146.791 675.105 144.106 Q673.115 141.398 669.712 141.398 M669.712 137.787 Q675.267 137.787 678.439 141.398 Q681.61 145.009 681.61 151.398 Q681.61 157.764 678.439 161.398 Q675.267 165.009 669.712 165.009 Q664.133 165.009 660.962 161.398 Q657.814 157.764 657.814 151.398 Q657.814 145.009 660.962 141.398 Q664.133 137.787 669.712 137.787 Z" fill="#000000" fill-rule="nonzero" fill-opacity="1" /><path clip-path="url(#clip030)" d="M710.221 148.689 L710.221 164.338 L705.962 164.338 L705.962 148.828 Q705.962 145.148 704.527 143.319 Q703.091 141.49 700.221 141.49 Q696.772 141.49 694.781 143.69 Q692.791 145.889 692.791 149.685 L692.791 164.338 L688.508 164.338 L688.508 138.412 L692.791 138.412 L692.791 142.44 Q694.318 140.102 696.378 138.944 Q698.462 137.787 701.17 137.787 Q705.638 137.787 707.929 140.565 Q710.221 143.319 710.221 148.689 Z" fill="#000000" fill-rule="nonzero" fill-opacity="1" /><polyline clip-path="url(#clip030)" style="stroke:#e26f46; stroke-linecap:round; stroke-linejoin:round; stroke-width:4; stroke-opacity:1; fill:none" points="317.754,198.898 459.731,198.898 "/>
<path clip-path="url(#clip030)" d="M483.393 181.618 L505.245 181.618 L505.245 185.553 L488.069 185.553 L488.069 195.784 L504.528 195.784 L504.528 199.719 L488.069 199.719 L488.069 212.242 L505.662 212.242 L505.662 216.178 L483.393 216.178 L483.393 181.618 Z" fill="#000000" fill-rule="nonzero" fill-opacity="1" /><path clip-path="url(#clip030)" d="M534.713 190.252 L525.338 202.867 L535.199 216.178 L530.176 216.178 L522.629 205.992 L515.083 216.178 L510.06 216.178 L520.129 202.613 L510.916 190.252 L515.94 190.252 L522.815 199.488 L529.69 190.252 L534.713 190.252 Z" fill="#000000" fill-rule="nonzero" fill-opacity="1" /><path clip-path="url(#clip030)" d="M553 203.145 Q547.838 203.145 545.847 204.326 Q543.856 205.506 543.856 208.354 Q543.856 210.622 545.338 211.965 Q546.842 213.284 549.412 213.284 Q552.953 213.284 555.083 210.784 Q557.236 208.261 557.236 204.094 L557.236 203.145 L553 203.145 M561.495 201.386 L561.495 216.178 L557.236 216.178 L557.236 212.242 Q555.777 214.603 553.601 215.738 Q551.426 216.849 548.277 216.849 Q544.296 216.849 541.935 214.627 Q539.597 212.381 539.597 208.631 Q539.597 204.256 542.514 202.034 Q545.453 199.812 551.263 199.812 L557.236 199.812 L557.236 199.395 Q557.236 196.455 555.291 194.858 Q553.37 193.238 549.875 193.238 Q547.652 193.238 545.546 193.77 Q543.439 194.303 541.495 195.367 L541.495 191.432 Q543.833 190.53 546.032 190.09 Q548.231 189.627 550.314 189.627 Q555.939 189.627 558.717 192.543 Q561.495 195.46 561.495 201.386 Z" fill="#000000" fill-rule="nonzero" fill-opacity="1" /><path clip-path="url(#clip030)" d="M588.925 191.247 L588.925 195.229 Q587.12 194.233 585.291 193.747 Q583.486 193.238 581.634 193.238 Q577.49 193.238 575.199 195.877 Q572.907 198.492 572.907 203.238 Q572.907 207.983 575.199 210.622 Q577.49 213.238 581.634 213.238 Q583.486 213.238 585.291 212.752 Q587.12 212.242 588.925 211.247 L588.925 215.182 Q587.143 216.016 585.222 216.432 Q583.323 216.849 581.171 216.849 Q575.314 216.849 571.865 213.168 Q568.416 209.488 568.416 203.238 Q568.416 196.895 571.888 193.261 Q575.384 189.627 581.449 189.627 Q583.416 189.627 585.291 190.043 Q587.166 190.437 588.925 191.247 Z" fill="#000000" fill-rule="nonzero" fill-opacity="1" /><path clip-path="url(#clip030)" d="M600.546 182.891 L600.546 190.252 L609.319 190.252 L609.319 193.562 L600.546 193.562 L600.546 207.636 Q600.546 210.807 601.402 211.71 Q602.282 212.613 604.944 212.613 L609.319 212.613 L609.319 216.178 L604.944 216.178 Q600.013 216.178 598.138 214.349 Q596.263 212.497 596.263 207.636 L596.263 193.562 L593.138 193.562 L593.138 190.252 L596.263 190.252 L596.263 182.891 L600.546 182.891 Z" fill="#000000" fill-rule="nonzero" fill-opacity="1" /></svg>
