<?xml version="1.0" encoding="utf-8"?>
<svg xmlns="http://www.w3.org/2000/svg" xmlns:xlink="http://www.w3.org/1999/xlink" width="600" height="400" viewBox="0 0 2400 1600">
<defs>
  <clipPath id="clip290">
    <rect x="0" y="0" width="2400" height="1600"/>
  </clipPath>
</defs>
<path clip-path="url(#clip290)" d="M0 1600 L2400 1600 L2400 0 L0 0  Z" fill="#ffffff" fill-rule="evenodd" fill-opacity="1"/>
<defs>
  <clipPath id="clip291">
    <rect x="480" y="0" width="1681" height="1600"/>
  </clipPath>
</defs>
<path clip-path="url(#clip290)" d="M192.339 1486.45 L2352.76 1486.45 L2352.76 47.2441 L192.339 47.2441  Z" fill="#ffffff" fill-rule="evenodd" fill-opacity="1"/>
<defs>
  <clipPath id="clip292">
    <rect x="192" y="47" width="2161" height="1440"/>
  </clipPath>
</defs>
<polyline clip-path="url(#clip292)" style="stroke:#000000; stroke-linecap:round; stroke-linejoin:round; stroke-width:2; stroke-opacity:0.1; fill:none" points="253.483,1486.45 253.483,47.2441 "/>
<polyline clip-path="url(#clip292)" style="stroke:#000000; stroke-linecap:round; stroke-linejoin:round; stroke-width:2; stroke-opacity:0.1; fill:none" points="763.015,1486.45 763.015,47.2441 "/>
<polyline clip-path="url(#clip292)" style="stroke:#000000; stroke-linecap:round; stroke-linejoin:round; stroke-width:2; stroke-opacity:0.1; fill:none" points="1272.55,1486.45 1272.55,47.2441 "/>
<polyline clip-path="url(#clip292)" style="stroke:#000000; stroke-linecap:round; stroke-linejoin:round; stroke-width:2; stroke-opacity:0.1; fill:none" points="1782.08,1486.45 1782.08,47.2441 "/>
<polyline clip-path="url(#clip292)" style="stroke:#000000; stroke-linecap:round; stroke-linejoin:round; stroke-width:2; stroke-opacity:0.1; fill:none" points="2291.61,1486.45 2291.61,47.2441 "/>
<polyline clip-path="url(#clip290)" style="stroke:#000000; stroke-linecap:round; stroke-linejoin:round; stroke-width:4; stroke-opacity:1; fill:none" points="192.339,1486.45 2352.76,1486.45 "/>
<polyline clip-path="url(#clip290)" style="stroke:#000000; stroke-linecap:round; stroke-linejoin:round; stroke-width:4; stroke-opacity:1; fill:none" points="253.483,1486.45 253.483,1467.55 "/>
<polyline clip-path="url(#clip290)" style="stroke:#000000; stroke-linecap:round; stroke-linejoin:round; stroke-width:4; stroke-opacity:1; fill:none" points="763.015,1486.45 763.015,1467.55 "/>
<polyline clip-path="url(#clip290)" style="stroke:#000000; stroke-linecap:round; stroke-linejoin:round; stroke-width:4; stroke-opacity:1; fill:none" points="1272.55,1486.45 1272.55,1467.55 "/>
<polyline clip-path="url(#clip290)" style="stroke:#000000; stroke-linecap:round; stroke-linejoin:round; stroke-width:4; stroke-opacity:1; fill:none" points="1782.08,1486.45 1782.08,1467.55 "/>
<polyline clip-path="url(#clip290)" style="stroke:#000000; stroke-linecap:round; stroke-linejoin:round; stroke-width:4; stroke-opacity:1; fill:none" points="2291.61,1486.45 2291.61,1467.55 "/>
<path clip-path="url(#clip290)" d="M200.011 1532.02 L229.686 1532.02 L229.686 1535.95 L200.011 1535.95 L200.011 1532.02 Z" fill="#000000" fill-rule="nonzero" fill-opacity="1" /><path clip-path="url(#clip290)" d="M240.589 1544.91 L248.228 1544.91 L248.228 1518.55 L239.918 1520.21 L239.918 1515.95 L248.182 1514.29 L252.858 1514.29 L252.858 1544.91 L260.497 1544.91 L260.497 1548.85 L240.589 1548.85 L240.589 1544.91 Z" fill="#000000" fill-rule="nonzero" fill-opacity="1" /><path clip-path="url(#clip290)" d="M269.941 1542.97 L274.825 1542.97 L274.825 1548.85 L269.941 1548.85 L269.941 1542.97 Z" fill="#000000" fill-rule="nonzero" fill-opacity="1" /><path clip-path="url(#clip290)" d="M295.01 1517.37 Q291.399 1517.37 289.57 1520.93 Q287.765 1524.47 287.765 1531.6 Q287.765 1538.71 289.57 1542.27 Q291.399 1545.82 295.01 1545.82 Q298.644 1545.82 300.45 1542.27 Q302.279 1538.71 302.279 1531.6 Q302.279 1524.47 300.45 1520.93 Q298.644 1517.37 295.01 1517.37 M295.01 1513.66 Q300.82 1513.66 303.876 1518.27 Q306.955 1522.85 306.955 1531.6 Q306.955 1540.33 303.876 1544.94 Q300.82 1549.52 295.01 1549.52 Q289.2 1549.52 286.121 1544.94 Q283.066 1540.33 283.066 1531.6 Q283.066 1522.85 286.121 1518.27 Q289.2 1513.66 295.01 1513.66 Z" fill="#000000" fill-rule="nonzero" fill-opacity="1" /><path clip-path="url(#clip290)" d="M710.041 1532.02 L739.717 1532.02 L739.717 1535.95 L710.041 1535.95 L710.041 1532.02 Z" fill="#000000" fill-rule="nonzero" fill-opacity="1" /><path clip-path="url(#clip290)" d="M759.809 1517.37 Q756.198 1517.37 754.369 1520.93 Q752.564 1524.47 752.564 1531.6 Q752.564 1538.71 754.369 1542.27 Q756.198 1545.82 759.809 1545.82 Q763.443 1545.82 765.249 1542.27 Q767.077 1538.71 767.077 1531.6 Q767.077 1524.47 765.249 1520.93 Q763.443 1517.37 759.809 1517.37 M759.809 1513.66 Q765.619 1513.66 768.675 1518.27 Q771.753 1522.85 771.753 1531.6 Q771.753 1540.33 768.675 1544.94 Q765.619 1549.52 759.809 1549.52 Q753.999 1549.52 750.92 1544.94 Q747.865 1540.33 747.865 1531.6 Q747.865 1522.85 750.92 1518.27 Q753.999 1513.66 759.809 1513.66 Z" fill="#000000" fill-rule="nonzero" fill-opacity="1" /><path clip-path="url(#clip290)" d="M779.971 1542.97 L784.855 1542.97 L784.855 1548.85 L779.971 1548.85 L779.971 1542.97 Z" fill="#000000" fill-rule="nonzero" fill-opacity="1" /><path clip-path="url(#clip290)" d="M795.087 1514.29 L813.443 1514.29 L813.443 1518.22 L799.369 1518.22 L799.369 1526.7 Q800.387 1526.35 801.406 1526.19 Q802.425 1526 803.443 1526 Q809.23 1526 812.61 1529.17 Q815.989 1532.34 815.989 1537.76 Q815.989 1543.34 812.517 1546.44 Q809.045 1549.52 802.725 1549.52 Q800.55 1549.52 798.281 1549.15 Q796.036 1548.78 793.628 1548.04 L793.628 1543.34 Q795.712 1544.47 797.934 1545.03 Q800.156 1545.58 802.633 1545.58 Q806.637 1545.58 808.975 1543.48 Q811.313 1541.37 811.313 1537.76 Q811.313 1534.15 808.975 1532.04 Q806.637 1529.94 802.633 1529.94 Q800.758 1529.94 798.883 1530.35 Q797.031 1530.77 795.087 1531.65 L795.087 1514.29 Z" fill="#000000" fill-rule="nonzero" fill-opacity="1" /><path clip-path="url(#clip290)" d="M1249.93 1517.37 Q1246.32 1517.37 1244.49 1520.93 Q1242.69 1524.47 1242.69 1531.6 Q1242.69 1538.71 1244.49 1542.27 Q1246.32 1545.82 1249.93 1545.82 Q1253.57 1545.82 1255.37 1542.27 Q1257.2 1538.71 1257.2 1531.6 Q1257.2 1524.47 1255.37 1520.93 Q1253.57 1517.37 1249.93 1517.37 M1249.93 1513.66 Q1255.74 1513.66 1258.8 1518.27 Q1261.88 1522.85 1261.88 1531.6 Q1261.88 1540.33 1258.8 1544.94 Q1255.74 1549.52 1249.93 1549.52 Q1244.12 1549.52 1241.04 1544.94 Q1237.99 1540.33 1237.99 1531.6 Q1237.99 1522.85 1241.04 1518.27 Q1244.12 1513.66 1249.93 1513.66 Z" fill="#000000" fill-rule="nonzero" fill-opacity="1" /><path clip-path="url(#clip290)" d="M1270.09 1542.97 L1274.98 1542.97 L1274.98 1548.85 L1270.09 1548.85 L1270.09 1542.97 Z" fill="#000000" fill-rule="nonzero" fill-opacity="1" /><path clip-path="url(#clip290)" d="M1295.16 1517.37 Q1291.55 1517.37 1289.72 1520.93 Q1287.92 1524.47 1287.92 1531.6 Q1287.92 1538.71 1289.72 1542.27 Q1291.55 1545.82 1295.16 1545.82 Q1298.8 1545.82 1300.6 1542.27 Q1302.43 1538.71 1302.43 1531.6 Q1302.43 1524.47 1300.6 1520.93 Q1298.8 1517.37 1295.16 1517.37 M1295.16 1513.66 Q1300.97 1513.66 1304.03 1518.27 Q1307.11 1522.85 1307.11 1531.6 Q1307.11 1540.33 1304.03 1544.94 Q1300.97 1549.52 1295.16 1549.52 Q1289.35 1549.52 1286.27 1544.94 Q1283.22 1540.33 1283.22 1531.6 Q1283.22 1522.85 1286.27 1518.27 Q1289.35 1513.66 1295.16 1513.66 Z" fill="#000000" fill-rule="nonzero" fill-opacity="1" /><path clip-path="url(#clip290)" d="M1759.96 1517.37 Q1756.35 1517.37 1754.52 1520.93 Q1752.72 1524.47 1752.72 1531.6 Q1752.72 1538.71 1754.52 1542.27 Q1756.35 1545.82 1759.96 1545.82 Q1763.6 1545.82 1765.4 1542.27 Q1767.23 1538.71 1767.23 1531.6 Q1767.23 1524.47 1765.4 1520.93 Q1763.6 1517.37 1759.96 1517.37 M1759.96 1513.66 Q1765.77 1513.66 1768.83 1518.27 Q1771.91 1522.85 1771.91 1531.6 Q1771.91 1540.33 1768.83 1544.94 Q1765.77 1549.52 1759.96 1549.52 Q1754.15 1549.52 1751.07 1544.94 Q1748.02 1540.33 1748.02 1531.6 Q1748.02 1522.85 1751.07 1518.27 Q1754.15 1513.66 1759.96 1513.66 Z" fill="#000000" fill-rule="nonzero" fill-opacity="1" /><path clip-path="url(#clip290)" d="M1780.12 1542.97 L1785.01 1542.97 L1785.01 1548.85 L1780.12 1548.85 L1780.12 1542.97 Z" fill="#000000" fill-rule="nonzero" fill-opacity="1" /><path clip-path="url(#clip290)" d="M1795.24 1514.29 L1813.6 1514.29 L1813.6 1518.22 L1799.52 1518.22 L1799.52 1526.7 Q1800.54 1526.35 1801.56 1526.19 Q1802.58 1526 1803.6 1526 Q1809.38 1526 1812.76 1529.17 Q1816.14 1532.34 1816.14 1537.76 Q1816.14 1543.34 1812.67 1546.44 Q1809.2 1549.52 1802.88 1549.52 Q1800.7 1549.52 1798.43 1549.15 Q1796.19 1548.78 1793.78 1548.04 L1793.78 1543.34 Q1795.86 1544.47 1798.09 1545.03 Q1800.31 1545.58 1802.79 1545.58 Q1806.79 1545.58 1809.13 1543.48 Q1811.47 1541.37 1811.47 1537.76 Q1811.47 1534.15 1809.13 1532.04 Q1806.79 1529.94 1802.79 1529.94 Q1800.91 1529.94 1799.04 1530.35 Q1797.18 1530.77 1795.24 1531.65 L1795.24 1514.29 Z" fill="#000000" fill-rule="nonzero" fill-opacity="1" /><path clip-path="url(#clip290)" d="M2258.76 1544.91 L2266.4 1544.91 L2266.4 1518.55 L2258.09 1520.21 L2258.09 1515.95 L2266.36 1514.29 L2271.03 1514.29 L2271.03 1544.91 L2278.67 1544.91 L2278.67 1548.85 L2258.76 1548.85 L2258.76 1544.91 Z" fill="#000000" fill-rule="nonzero" fill-opacity="1" /><path clip-path="url(#clip290)" d="M2288.12 1542.97 L2293 1542.97 L2293 1548.85 L2288.12 1548.85 L2288.12 1542.97 Z" fill="#000000" fill-rule="nonzero" fill-opacity="1" /><path clip-path="url(#clip290)" d="M2313.19 1517.37 Q2309.57 1517.37 2307.75 1520.93 Q2305.94 1524.47 2305.94 1531.6 Q2305.94 1538.71 2307.75 1542.27 Q2309.57 1545.82 2313.19 1545.82 Q2316.82 1545.82 2318.63 1542.27 Q2320.45 1538.71 2320.45 1531.6 Q2320.45 1524.47 2318.63 1520.93 Q2316.82 1517.37 2313.19 1517.37 M2313.19 1513.66 Q2319 1513.66 2322.05 1518.27 Q2325.13 1522.85 2325.13 1531.6 Q2325.13 1540.33 2322.05 1544.94 Q2319 1549.52 2313.19 1549.52 Q2307.38 1549.52 2304.3 1544.94 Q2301.24 1540.33 2301.24 1531.6 Q2301.24 1522.85 2304.3 1518.27 Q2307.38 1513.66 2313.19 1513.66 Z" fill="#000000" fill-rule="nonzero" fill-opacity="1" /><polyline clip-path="url(#clip292)" style="stroke:#000000; stroke-linecap:round; stroke-linejoin:round; stroke-width:2; stroke-opacity:0.1; fill:none" points="192.339,1361.95 2352.76,1361.95 "/>
<polyline clip-path="url(#clip292)" style="stroke:#000000; stroke-linecap:round; stroke-linejoin:round; stroke-width:2; stroke-opacity:0.1; fill:none" points="192.339,1192.61 2352.76,1192.61 "/>
<polyline clip-path="url(#clip292)" style="stroke:#000000; stroke-linecap:round; stroke-linejoin:round; stroke-width:2; stroke-opacity:0.1; fill:none" points="192.339,1023.27 2352.76,1023.27 "/>
<polyline clip-path="url(#clip292)" style="stroke:#000000; stroke-linecap:round; stroke-linejoin:round; stroke-width:2; stroke-opacity:0.1; fill:none" points="192.339,853.933 2352.76,853.933 "/>
<polyline clip-path="url(#clip292)" style="stroke:#000000; stroke-linecap:round; stroke-linejoin:round; stroke-width:2; stroke-opacity:0.1; fill:none" points="192.339,684.594 2352.76,684.594 "/>
<polyline clip-path="url(#clip292)" style="stroke:#000000; stroke-linecap:round; stroke-linejoin:round; stroke-width:2; stroke-opacity:0.1; fill:none" points="192.339,515.255 2352.76,515.255 "/>
<polyline clip-path="url(#clip292)" style="stroke:#000000; stroke-linecap:round; stroke-linejoin:round; stroke-width:2; stroke-opacity:0.1; fill:none" points="192.339,345.916 2352.76,345.916 "/>
<polyline clip-path="url(#clip292)" style="stroke:#000000; stroke-linecap:round; stroke-linejoin:round; stroke-width:2; stroke-opacity:0.1; fill:none" points="192.339,176.577 2352.76,176.577 "/>
<polyline clip-path="url(#clip290)" style="stroke:#000000; stroke-linecap:round; stroke-linejoin:round; stroke-width:4; stroke-opacity:1; fill:none" points="192.339,1486.45 192.339,47.2441 "/>
<polyline clip-path="url(#clip290)" style="stroke:#000000; stroke-linecap:round; stroke-linejoin:round; stroke-width:4; stroke-opacity:1; fill:none" points="192.339,1361.95 211.236,1361.95 "/>
<polyline clip-path="url(#clip290)" style="stroke:#000000; stroke-linecap:round; stroke-linejoin:round; stroke-width:4; stroke-opacity:1; fill:none" points="192.339,1192.61 211.236,1192.61 "/>
<polyline clip-path="url(#clip290)" style="stroke:#000000; stroke-linecap:round; stroke-linejoin:round; stroke-width:4; stroke-opacity:1; fill:none" points="192.339,1023.27 211.236,1023.27 "/>
<polyline clip-path="url(#clip290)" style="stroke:#000000; stroke-linecap:round; stroke-linejoin:round; stroke-width:4; stroke-opacity:1; fill:none" points="192.339,853.933 211.236,853.933 "/>
<polyline clip-path="url(#clip290)" style="stroke:#000000; stroke-linecap:round; stroke-linejoin:round; stroke-width:4; stroke-opacity:1; fill:none" points="192.339,684.594 211.236,684.594 "/>
<polyline clip-path="url(#clip290)" style="stroke:#000000; stroke-linecap:round; stroke-linejoin:round; stroke-width:4; stroke-opacity:1; fill:none" points="192.339,515.255 211.236,515.255 "/>
<polyline clip-path="url(#clip290)" style="stroke:#000000; stroke-linecap:round; stroke-linejoin:round; stroke-width:4; stroke-opacity:1; fill:none" points="192.339,345.916 211.236,345.916 "/>
<polyline clip-path="url(#clip290)" style="stroke:#000000; stroke-linecap:round; stroke-linejoin:round; stroke-width:4; stroke-opacity:1; fill:none" points="192.339,176.577 211.236,176.577 "/>
<path clip-path="url(#clip290)" d="M50.9921 1362.4 L80.6679 1362.4 L80.6679 1366.34 L50.9921 1366.34 L50.9921 1362.4 Z" fill="#000000" fill-rule="nonzero" fill-opacity="1" /><path clip-path="url(#clip290)" d="M100.76 1347.75 Q97.1493 1347.75 95.3206 1351.31 Q93.515 1354.85 93.515 1361.98 Q93.515 1369.09 95.3206 1372.66 Q97.1493 1376.2 100.76 1376.2 Q104.395 1376.2 106.2 1372.66 Q108.029 1369.09 108.029 1361.98 Q108.029 1354.85 106.2 1351.31 Q104.395 1347.75 100.76 1347.75 M100.76 1344.04 Q106.571 1344.04 109.626 1348.65 Q112.705 1353.23 112.705 1361.98 Q112.705 1370.71 109.626 1375.32 Q106.571 1379.9 100.76 1379.9 Q94.9502 1379.9 91.8715 1375.32 Q88.816 1370.71 88.816 1361.98 Q88.816 1353.23 91.8715 1348.65 Q94.9502 1344.04 100.76 1344.04 Z" fill="#000000" fill-rule="nonzero" fill-opacity="1" /><path clip-path="url(#clip290)" d="M120.922 1373.35 L125.807 1373.35 L125.807 1379.23 L120.922 1379.23 L120.922 1373.35 Z" fill="#000000" fill-rule="nonzero" fill-opacity="1" /><path clip-path="url(#clip290)" d="M140.019 1375.29 L156.339 1375.29 L156.339 1379.23 L134.394 1379.23 L134.394 1375.29 Q137.056 1372.54 141.64 1367.91 Q146.246 1363.26 147.427 1361.91 Q149.672 1359.39 150.552 1357.66 Q151.455 1355.9 151.455 1354.21 Q151.455 1351.45 149.51 1349.72 Q147.589 1347.98 144.487 1347.98 Q142.288 1347.98 139.834 1348.74 Q137.404 1349.51 134.626 1351.06 L134.626 1346.34 Q137.45 1345.2 139.904 1344.62 Q142.357 1344.04 144.394 1344.04 Q149.765 1344.04 152.959 1346.73 Q156.154 1349.41 156.154 1353.91 Q156.154 1356.04 155.343 1357.96 Q154.556 1359.85 152.45 1362.45 Q151.871 1363.12 148.769 1366.34 Q145.668 1369.53 140.019 1375.29 Z" fill="#000000" fill-rule="nonzero" fill-opacity="1" /><path clip-path="url(#clip290)" d="M99.1632 1178.41 Q95.5521 1178.41 93.7234 1181.97 Q91.9178 1185.52 91.9178 1192.65 Q91.9178 1199.75 93.7234 1203.32 Q95.5521 1206.86 99.1632 1206.86 Q102.797 1206.86 104.603 1203.32 Q106.432 1199.75 106.432 1192.65 Q106.432 1185.52 104.603 1181.97 Q102.797 1178.41 99.1632 1178.41 M99.1632 1174.71 Q104.973 1174.71 108.029 1179.31 Q111.108 1183.9 111.108 1192.65 Q111.108 1201.37 108.029 1205.98 Q104.973 1210.56 99.1632 1210.56 Q93.353 1210.56 90.2743 1205.98 Q87.2188 1201.37 87.2188 1192.65 Q87.2188 1183.9 90.2743 1179.31 Q93.353 1174.71 99.1632 1174.71 Z" fill="#000000" fill-rule="nonzero" fill-opacity="1" /><path clip-path="url(#clip290)" d="M119.325 1204.01 L124.209 1204.01 L124.209 1209.89 L119.325 1209.89 L119.325 1204.01 Z" fill="#000000" fill-rule="nonzero" fill-opacity="1" /><path clip-path="url(#clip290)" d="M144.394 1178.41 Q140.783 1178.41 138.955 1181.97 Q137.149 1185.52 137.149 1192.65 Q137.149 1199.75 138.955 1203.32 Q140.783 1206.86 144.394 1206.86 Q148.029 1206.86 149.834 1203.32 Q151.663 1199.75 151.663 1192.65 Q151.663 1185.52 149.834 1181.97 Q148.029 1178.41 144.394 1178.41 M144.394 1174.71 Q150.205 1174.71 153.26 1179.31 Q156.339 1183.9 156.339 1192.65 Q156.339 1201.37 153.26 1205.98 Q150.205 1210.56 144.394 1210.56 Q138.584 1210.56 135.506 1205.98 Q132.45 1201.37 132.45 1192.65 Q132.45 1183.9 135.506 1179.31 Q138.584 1174.71 144.394 1174.71 Z" fill="#000000" fill-rule="nonzero" fill-opacity="1" /><path clip-path="url(#clip290)" d="M100.76 1009.07 Q97.1493 1009.07 95.3206 1012.64 Q93.515 1016.18 93.515 1023.31 Q93.515 1030.41 95.3206 1033.98 Q97.1493 1037.52 100.76 1037.52 Q104.395 1037.52 106.2 1033.98 Q108.029 1030.41 108.029 1023.31 Q108.029 1016.18 106.2 1012.64 Q104.395 1009.07 100.76 1009.07 M100.76 1005.37 Q106.571 1005.37 109.626 1009.97 Q112.705 1014.56 112.705 1023.31 Q112.705 1032.03 109.626 1036.64 Q106.571 1041.22 100.76 1041.22 Q94.9502 1041.22 91.8715 1036.64 Q88.816 1032.03 88.816 1023.31 Q88.816 1014.56 91.8715 1009.97 Q94.9502 1005.37 100.76 1005.37 Z" fill="#000000" fill-rule="nonzero" fill-opacity="1" /><path clip-path="url(#clip290)" d="M120.922 1034.67 L125.807 1034.67 L125.807 1040.55 L120.922 1040.55 L120.922 1034.67 Z" fill="#000000" fill-rule="nonzero" fill-opacity="1" /><path clip-path="url(#clip290)" d="M140.019 1036.62 L156.339 1036.62 L156.339 1040.55 L134.394 1040.55 L134.394 1036.62 Q137.056 1033.86 141.64 1029.23 Q146.246 1024.58 147.427 1023.24 Q149.672 1020.71 150.552 1018.98 Q151.455 1017.22 151.455 1015.53 Q151.455 1012.77 149.51 1011.04 Q147.589 1009.3 144.487 1009.3 Q142.288 1009.3 139.834 1010.07 Q137.404 1010.83 134.626 1012.38 L134.626 1007.66 Q137.45 1006.52 139.904 1005.95 Q142.357 1005.37 144.394 1005.37 Q149.765 1005.37 152.959 1008.05 Q156.154 1010.74 156.154 1015.23 Q156.154 1017.36 155.343 1019.28 Q154.556 1021.18 152.45 1023.77 Q151.871 1024.44 148.769 1027.66 Q145.668 1030.85 140.019 1036.62 Z" fill="#000000" fill-rule="nonzero" fill-opacity="1" /><path clip-path="url(#clip290)" d="M98.6771 839.731 Q95.066 839.731 93.2373 843.296 Q91.4317 846.838 91.4317 853.967 Q91.4317 861.074 93.2373 864.639 Q95.066 868.18 98.6771 868.18 Q102.311 868.18 104.117 864.639 Q105.946 861.074 105.946 853.967 Q105.946 846.838 104.117 843.296 Q102.311 839.731 98.6771 839.731 M98.6771 836.028 Q104.487 836.028 107.543 840.634 Q110.621 845.217 110.621 853.967 Q110.621 862.694 107.543 867.301 Q104.487 871.884 98.6771 871.884 Q92.8669 871.884 89.7882 867.301 Q86.7327 862.694 86.7327 853.967 Q86.7327 845.217 89.7882 840.634 Q92.8669 836.028 98.6771 836.028 Z" fill="#000000" fill-rule="nonzero" fill-opacity="1" /><path clip-path="url(#clip290)" d="M118.839 865.333 L123.723 865.333 L123.723 871.213 L118.839 871.213 L118.839 865.333 Z" fill="#000000" fill-rule="nonzero" fill-opacity="1" /><path clip-path="url(#clip290)" d="M146.756 840.727 L134.95 859.176 L146.756 859.176 L146.756 840.727 M145.529 836.653 L151.408 836.653 L151.408 859.176 L156.339 859.176 L156.339 863.065 L151.408 863.065 L151.408 871.213 L146.756 871.213 L146.756 863.065 L131.154 863.065 L131.154 858.551 L145.529 836.653 Z" fill="#000000" fill-rule="nonzero" fill-opacity="1" /><path clip-path="url(#clip290)" d="M99.0011 670.392 Q95.39 670.392 93.5613 673.957 Q91.7558 677.499 91.7558 684.628 Q91.7558 691.735 93.5613 695.3 Q95.39 698.841 99.0011 698.841 Q102.635 698.841 104.441 695.3 Q106.27 691.735 106.27 684.628 Q106.27 677.499 104.441 673.957 Q102.635 670.392 99.0011 670.392 M99.0011 666.689 Q104.811 666.689 107.867 671.295 Q110.946 675.878 110.946 684.628 Q110.946 693.355 107.867 697.962 Q104.811 702.545 99.0011 702.545 Q93.191 702.545 90.1123 697.962 Q87.0567 693.355 87.0567 684.628 Q87.0567 675.878 90.1123 671.295 Q93.191 666.689 99.0011 666.689 Z" fill="#000000" fill-rule="nonzero" fill-opacity="1" /><path clip-path="url(#clip290)" d="M119.163 695.994 L124.047 695.994 L124.047 701.874 L119.163 701.874 L119.163 695.994 Z" fill="#000000" fill-rule="nonzero" fill-opacity="1" /><path clip-path="url(#clip290)" d="M144.811 682.73 Q141.663 682.73 139.811 684.883 Q137.982 687.036 137.982 690.786 Q137.982 694.513 139.811 696.689 Q141.663 698.841 144.811 698.841 Q147.959 698.841 149.788 696.689 Q151.64 694.513 151.64 690.786 Q151.64 687.036 149.788 684.883 Q147.959 682.73 144.811 682.73 M154.093 668.078 L154.093 672.337 Q152.334 671.503 150.529 671.064 Q148.746 670.624 146.987 670.624 Q142.357 670.624 139.904 673.749 Q137.473 676.874 137.126 683.193 Q138.492 681.179 140.552 680.115 Q142.612 679.027 145.089 679.027 Q150.297 679.027 153.306 682.198 Q156.339 685.346 156.339 690.786 Q156.339 696.11 153.191 699.327 Q150.043 702.545 144.811 702.545 Q138.816 702.545 135.644 697.962 Q132.473 693.355 132.473 684.628 Q132.473 676.434 136.362 671.573 Q140.251 666.689 146.802 666.689 Q148.561 666.689 150.343 667.036 Q152.149 667.383 154.093 668.078 Z" fill="#000000" fill-rule="nonzero" fill-opacity="1" /><path clip-path="url(#clip290)" d="M99.2558 501.053 Q95.6447 501.053 93.816 504.618 Q92.0104 508.16 92.0104 515.289 Q92.0104 522.396 93.816 525.961 Q95.6447 529.502 99.2558 529.502 Q102.89 529.502 104.696 525.961 Q106.524 522.396 106.524 515.289 Q106.524 508.16 104.696 504.618 Q102.89 501.053 99.2558 501.053 M99.2558 497.35 Q105.066 497.35 108.121 501.956 Q111.2 506.54 111.2 515.289 Q111.2 524.016 108.121 528.623 Q105.066 533.206 99.2558 533.206 Q93.4456 533.206 90.3669 528.623 Q87.3114 524.016 87.3114 515.289 Q87.3114 506.54 90.3669 501.956 Q93.4456 497.35 99.2558 497.35 Z" fill="#000000" fill-rule="nonzero" fill-opacity="1" /><path clip-path="url(#clip290)" d="M119.418 526.655 L124.302 526.655 L124.302 532.535 L119.418 532.535 L119.418 526.655 Z" fill="#000000" fill-rule="nonzero" fill-opacity="1" /><path clip-path="url(#clip290)" d="M144.487 516.123 Q141.154 516.123 139.232 517.905 Q137.334 519.688 137.334 522.813 Q137.334 525.938 139.232 527.72 Q141.154 529.502 144.487 529.502 Q147.82 529.502 149.742 527.72 Q151.663 525.914 151.663 522.813 Q151.663 519.688 149.742 517.905 Q147.843 516.123 144.487 516.123 M139.811 514.132 Q136.802 513.391 135.112 511.331 Q133.445 509.271 133.445 506.308 Q133.445 502.165 136.385 499.757 Q139.348 497.35 144.487 497.35 Q149.649 497.35 152.589 499.757 Q155.529 502.165 155.529 506.308 Q155.529 509.271 153.839 511.331 Q152.172 513.391 149.186 514.132 Q152.566 514.919 154.441 517.211 Q156.339 519.502 156.339 522.813 Q156.339 527.836 153.26 530.521 Q150.205 533.206 144.487 533.206 Q138.769 533.206 135.691 530.521 Q132.635 527.836 132.635 522.813 Q132.635 519.502 134.533 517.211 Q136.431 514.919 139.811 514.132 M138.098 506.748 Q138.098 509.433 139.765 510.938 Q141.455 512.442 144.487 512.442 Q147.496 512.442 149.186 510.938 Q150.899 509.433 150.899 506.748 Q150.899 504.063 149.186 502.558 Q147.496 501.053 144.487 501.053 Q141.455 501.053 139.765 502.558 Q138.098 504.063 138.098 506.748 Z" fill="#000000" fill-rule="nonzero" fill-opacity="1" /><path clip-path="url(#clip290)" d="M89.9734 359.261 L97.6122 359.261 L97.6122 332.895 L89.3021 334.562 L89.3021 330.302 L97.566 328.636 L102.242 328.636 L102.242 359.261 L109.881 359.261 L109.881 363.196 L89.9734 363.196 L89.9734 359.261 Z" fill="#000000" fill-rule="nonzero" fill-opacity="1" /><path clip-path="url(#clip290)" d="M119.325 357.316 L124.209 357.316 L124.209 363.196 L119.325 363.196 L119.325 357.316 Z" fill="#000000" fill-rule="nonzero" fill-opacity="1" /><path clip-path="url(#clip290)" d="M144.394 331.714 Q140.783 331.714 138.955 335.279 Q137.149 338.821 137.149 345.951 Q137.149 353.057 138.955 356.622 Q140.783 360.163 144.394 360.163 Q148.029 360.163 149.834 356.622 Q151.663 353.057 151.663 345.951 Q151.663 338.821 149.834 335.279 Q148.029 331.714 144.394 331.714 M144.394 328.011 Q150.205 328.011 153.26 332.617 Q156.339 337.201 156.339 345.951 Q156.339 354.677 153.26 359.284 Q150.205 363.867 144.394 363.867 Q138.584 363.867 135.506 359.284 Q132.45 354.677 132.45 345.951 Q132.45 337.201 135.506 332.617 Q138.584 328.011 144.394 328.011 Z" fill="#000000" fill-rule="nonzero" fill-opacity="1" /><path clip-path="url(#clip290)" d="M91.5706 189.922 L99.2095 189.922 L99.2095 163.556 L90.8993 165.223 L90.8993 160.964 L99.1632 159.297 L103.839 159.297 L103.839 189.922 L111.478 189.922 L111.478 193.857 L91.5706 193.857 L91.5706 189.922 Z" fill="#000000" fill-rule="nonzero" fill-opacity="1" /><path clip-path="url(#clip290)" d="M120.922 187.977 L125.807 187.977 L125.807 193.857 L120.922 193.857 L120.922 187.977 Z" fill="#000000" fill-rule="nonzero" fill-opacity="1" /><path clip-path="url(#clip290)" d="M140.019 189.922 L156.339 189.922 L156.339 193.857 L134.394 193.857 L134.394 189.922 Q137.056 187.167 141.64 182.537 Q146.246 177.885 147.427 176.542 Q149.672 174.019 150.552 172.283 Q151.455 170.524 151.455 168.834 Q151.455 166.079 149.51 164.343 Q147.589 162.607 144.487 162.607 Q142.288 162.607 139.834 163.371 Q137.404 164.135 134.626 165.686 L134.626 160.964 Q137.45 159.829 139.904 159.251 Q142.357 158.672 144.394 158.672 Q149.765 158.672 152.959 161.357 Q156.154 164.042 156.154 168.533 Q156.154 170.663 155.343 172.584 Q154.556 174.482 152.45 177.075 Q151.871 177.746 148.769 180.963 Q145.668 184.158 140.019 189.922 Z" fill="#000000" fill-rule="nonzero" fill-opacity="1" /><polyline clip-path="url(#clip292)" style="stroke:#009af9; stroke-linecap:round; stroke-linejoin:round; stroke-width:16; stroke-opacity:1; fill:none" stroke-dasharray="8, 16" points="253.483,1065.44 263.725,1034.62 273.966,980.763 284.208,974.092 294.45,1020.19 304.692,1052.33 314.934,1038.1 325.176,1021.23 335.418,1059.39 345.659,1146.17 355.901,1211.38 366.143,1212.95 376.385,1182.3 386.627,1168.37 396.869,1170.79 407.111,1190.38 417.352,1267.68 427.594,1376.01 437.836,1437.03 448.078,1434.82 458.32,1382.3 468.562,1304.68 478.803,1261.03 489.045,1279.98 499.287,1323.88 509.529,1348.6 519.771,1316.32 530.013,1257.66 540.255,1241.58 550.497,1232.64 560.738,1185.46 570.98,1129.49 581.222,1112.29 591.464,1130.34 601.706,1118.99 611.948,1054.96 622.19,1024.27 632.431,1053.25 642.673,1086.19 652.915,1087.35 663.157,1061.99 673.399,1007.96 683.641,933.548 693.882,912.52 704.124,1008.29 714.366,1157.24 724.608,1218.59 734.85,1195.62 745.092,1195.45 755.334,1253.97 765.575,1359.48 775.817,1445.72 786.059,1413.89 796.301,1313.53 806.543,1257.68 816.785,1270.3 827.027,1323.32 837.268,1362.6 847.51,1334.14 857.752,1272.13 867.994,1260.08 878.236,1306.31 888.478,1364.87 898.72,1367.23 908.961,1284.54 919.203,1184.54 929.445,1134.9 939.687,1103.12 949.929,1065.59 960.171,1072.75 970.413,1120.83 980.654,1133.15 990.896,1086.16 1001.14,1027.4 1011.38,1019.71 1021.62,1035.13 1031.86,996.669 1042.11,1035.25 1052.35,1221.53 1062.59,1307.77 1072.83,1236.98 1083.07,1170.94 1093.31,1161.47 1103.56,1174.56 1113.8,1200.18 1124.04,1260.32 1134.28,1336.36 1144.52,1330.54 1154.77,1289.52 1165.01,1330.69 1175.25,1400.93 1185.49,1432.15 1195.73,1405.5 1205.98,1358.04 1216.22,1333.49 1226.46,1343.07 1236.7,1354.93 1246.94,1309.07 1257.18,1154.95 1267.43,825.991 1277.67,456.537 1287.91,345.741 1298.15,342.195 1308.39,333.081 1318.64,339.846 1328.88,356.705 1339.12,360.431 1349.36,349.294 1359.6,340.535 1369.84,337.87 1380.09,315.373 1390.33,251.797 1400.57,195.402 1410.81,255.371 1421.05,370.844 1431.3,429.507 1441.54,430.836 1451.78,410.804 1462.02,376.705 1472.26,294.039 1482.51,184.989 1492.75,198.221 1502.99,308.224 1513.23,313.426 1523.47,299.447 1533.71,342.941 1543.96,357.111 1554.2,321.325 1564.44,296.168 1574.68,332.523 1584.92,400.804 1595.17,394.396 1605.41,314.353 1615.65,269.308 1625.89,258.662 1636.13,241.194 1646.38,251.57 1656.62,312.494 1666.86,389.256 1677.1,435.728 1687.34,425.913 1697.58,382.301 1707.83,383.069 1718.07,457.641 1728.31,513.806 1738.55,446.529 1748.79,268.939 1759.04,105.338 1769.28,87.9763 1779.52,226.434 1789.76,404.06 1800,516.489 1810.24,516.993 1820.49,433.241 1830.73,366.648 1840.97,353.39 1851.21,334.423 1861.45,276.777 1871.7,223.015 1881.94,230.012 1892.18,293.489 1902.42,380.016 1912.66,464.96 1922.91,516.01 1933.15,496.271 1943.39,408.609 1953.63,327.912 1963.87,291.442 1974.11,262.532 1984.36,227.859 1994.6,216.956 2004.84,245.183 2015.08,291.551 2025.32,366.951 2035.57,483.934 2045.81,550.541 2056.05,525.735 2066.29,436.93 2076.53,312.373 2086.77,212.857 2097.02,172.275 2107.26,164.51 2117.5,192.13 2127.74,305.342 2137.98,472.867 2148.23,597.208 2158.47,625.012 2168.71,537.115 2178.95,377.664 2189.19,243.193 2199.44,183.843 2209.68,160.295 2219.92,121.635 2230.16,106.987 2240.4,188.736 2250.64,346.338 2260.89,490.955 2271.13,554.869 2281.37,555.442 2291.61,556.567 "/>
<polyline clip-path="url(#clip292)" style="stroke:#e26f46; stroke-linecap:round; stroke-linejoin:round; stroke-width:4; stroke-opacity:1; fill:none" points="253.483,1065.44 263.725,1047.4 273.966,1034.09 284.208,1025.96 294.45,1023.27 304.692,1026.11 314.934,1034.38 325.176,1047.81 335.418,1065.97 345.659,1088.27 355.901,1113.96 366.143,1142.23 376.385,1172.14 386.627,1202.72 396.869,1232.97 407.111,1261.9 417.352,1288.57 427.594,1312.1 437.836,1331.74 448.078,1346.84 458.32,1356.9 468.562,1361.6 478.803,1360.79 489.045,1354.49 499.287,1342.9 509.529,1326.41 519.771,1305.55 530.013,1281.01 540.255,1253.58 550.497,1224.16 560.738,1193.71 570.98,1163.23 581.222,1133.7 591.464,1106.1 601.706,1081.32 611.948,1060.17 622.19,1043.35 632.431,1031.39 642.673,1024.7 652.915,1023.49 663.157,1027.8 673.399,1037.49 683.641,1052.24 693.882,1071.57 704.124,1094.85 714.366,1121.32 724.608,1150.12 734.85,1180.31 745.092,1210.9 755.334,1240.89 765.575,1269.3 775.817,1295.21 786.059,1317.78 796.301,1336.26 806.543,1350.05 816.785,1358.7 827.027,1361.93 837.268,1359.63 847.51,1351.89 857.752,1338.94 867.994,1321.22 878.236,1299.31 888.478,1273.91 898.72,1245.85 908.961,1216.06 919.203,1185.5 929.445,1155.18 939.687,1126.08 949.929,1099.15 960.171,1075.26 970.413,1055.21 980.654,1039.65 990.896,1029.07 1001.14,1023.83 1011.38,1024.11 1021.62,1029.88 1031.86,1040.96 1042.11,1056.99 1052.35,1077.45 1062.59,1101.67 1072.83,1128.85 1083.07,1158.12 1093.31,1188.51 1103.56,1219.03 1113.8,1248.7 1124.04,1276.53 1134.28,1301.62 1144.52,1323.16 1154.77,1340.43 1165.01,1352.88 1175.25,1360.1 1185.49,1361.86 1195.73,1358.09 1205.98,1348.92 1216.22,1334.64 1226.46,1315.73 1236.7,1292.81 1246.94,1266.61 1257.18,1238 1267.43,1207.91 1277.67,344.686 1287.91,343.287 1298.15,344.56 1308.39,348.8 1318.64,354.707 1328.88,359.785 1339.12,361.288 1349.36,357.381 1359.6,348.068 1369.84,335.512 1380.09,323.564 1390.33,316.584 1400.57,317.923 1410.81,328.572 1421.05,346.485 1431.3,366.87 1441.54,383.47 1451.78,390.473 1462.02,384.479 1472.26,365.88 1482.51,339.129 1492.75,311.713 1502.99,292.065 1513.23,286.974 1523.47,299.314 1533.71,326.804 1543.96,362.308 1554.2,395.659 1564.44,416.576 1574.68,417.815 1584.92,397.607 1595.17,360.572 1605.41,316.733 1615.65,278.812 1625.89,258.54 1636.13,263.047 1646.38,292.437 1656.62,339.354 1666.86,390.788 1677.1,431.673 1687.34,449.3 1697.58,437.246 1707.83,397.609 1718.07,340.799 1728.31,282.825 1738.55,240.789 1748.79,227.843 1759.04,249.101 1769.28,299.769 1779.52,366.146 1789.76,429.312 1800,470.522 1810.24,476.765 1820.49,444.833 1830.73,382.656 1840.97,307.378 1851.21,240.637 1861.45,202.349 1871.7,204.769 1881.94,248.614 1892.18,322.446 1902.42,405.629 1912.66,474.09 1922.91,507.288 1933.15,494.36 1943.39,437.633 1953.63,352.342 1963.87,262.57 1974.11,194.442 1984.36,168.527 1994.6,193.641 2004.84,263.921 2015.08,360.121 2025.32,454.867 2035.57,520.451 2045.81,536.924 2056.05,498.152 2066.29,413.979 2076.53,307.771 2086.77,209.935 2097.02,149.221 2107.26,144.268 2117.5,197.914 2127.74,295.969 2137.98,410.941 2148.23,509.741 2158.47,563.202 2168.71,554.691 2178.95,485.243 2189.19,373.681 2199.44,251.522 2209.68,154.083 2219.92,110.268 2230.16,134.004 2240.4,219.853 2250.64,344.177 2260.89,471.638 2271.13,565.237 2281.37,597.054 2291.61,556.567 "/>
<path clip-path="url(#clip290)" d="M264.353 250.738 L707.222 250.738 L707.222 95.2176 L264.353 95.2176  Z" fill="#ffffff" fill-rule="evenodd" fill-opacity="1"/>
<polyline clip-path="url(#clip290)" style="stroke:#000000; stroke-linecap:round; stroke-linejoin:round; stroke-width:4; stroke-opacity:1; fill:none" points="264.353,250.738 707.222,250.738 707.222,95.2176 264.353,95.2176 264.353,250.738 "/>
<polyline clip-path="url(#clip290)" style="stroke:#009af9; stroke-linecap:round; stroke-linejoin:round; stroke-width:16; stroke-opacity:1; fill:none" stroke-dasharray="8, 16" points="288.357,147.058 432.385,147.058 "/>
<path clip-path="url(#clip290)" d="M461.066 133.62 L461.066 146.606 L466.945 146.606 Q470.209 146.606 471.992 144.916 Q473.774 143.227 473.774 140.102 Q473.774 137 471.992 135.31 Q470.209 133.62 466.945 133.62 L461.066 133.62 M456.39 129.778 L466.945 129.778 Q472.755 129.778 475.718 132.416 Q478.704 135.032 478.704 140.102 Q478.704 145.217 475.718 147.833 Q472.755 150.449 466.945 150.449 L461.066 150.449 L461.066 164.338 L456.39 164.338 L456.39 129.778 Z" fill="#000000" fill-rule="nonzero" fill-opacity="1" /><path clip-path="url(#clip290)" d="M498.982 142.393 Q498.265 141.977 497.408 141.791 Q496.575 141.583 495.556 141.583 Q491.945 141.583 490.001 143.944 Q488.079 146.282 488.079 150.68 L488.079 164.338 L483.797 164.338 L483.797 138.412 L488.079 138.412 L488.079 142.44 Q489.422 140.078 491.575 138.944 Q493.728 137.787 496.806 137.787 Q497.246 137.787 497.778 137.856 Q498.311 137.903 498.959 138.018 L498.982 142.393 Z" fill="#000000" fill-rule="nonzero" fill-opacity="1" /><path clip-path="url(#clip290)" d="M524.584 150.31 L524.584 152.393 L505.001 152.393 Q505.278 156.791 507.639 159.106 Q510.024 161.398 514.26 161.398 Q516.714 161.398 519.005 160.796 Q521.32 160.194 523.588 158.99 L523.588 163.018 Q521.297 163.99 518.889 164.5 Q516.482 165.009 514.005 165.009 Q507.802 165.009 504.167 161.398 Q500.556 157.787 500.556 151.629 Q500.556 145.264 503.982 141.537 Q507.431 137.787 513.264 137.787 Q518.496 137.787 521.528 141.166 Q524.584 144.523 524.584 150.31 M520.325 149.06 Q520.278 145.565 518.357 143.481 Q516.459 141.398 513.311 141.398 Q509.746 141.398 507.593 143.412 Q505.464 145.426 505.14 149.083 L520.325 149.06 Z" fill="#000000" fill-rule="nonzero" fill-opacity="1" /><path clip-path="url(#clip290)" d="M548.635 142.347 L548.635 128.319 L552.894 128.319 L552.894 164.338 L548.635 164.338 L548.635 160.449 Q547.292 162.763 545.232 163.898 Q543.195 165.009 540.325 165.009 Q535.625 165.009 532.663 161.259 Q529.723 157.509 529.723 151.398 Q529.723 145.287 532.663 141.537 Q535.625 137.787 540.325 137.787 Q543.195 137.787 545.232 138.921 Q547.292 140.032 548.635 142.347 M534.121 151.398 Q534.121 156.097 536.042 158.782 Q537.987 161.444 541.366 161.444 Q544.746 161.444 546.69 158.782 Q548.635 156.097 548.635 151.398 Q548.635 146.699 546.69 144.037 Q544.746 141.352 541.366 141.352 Q537.987 141.352 536.042 144.037 Q534.121 146.699 534.121 151.398 Z" fill="#000000" fill-rule="nonzero" fill-opacity="1" /><path clip-path="url(#clip290)" d="M561.667 138.412 L565.926 138.412 L565.926 164.338 L561.667 164.338 L561.667 138.412 M561.667 128.319 L565.926 128.319 L565.926 133.713 L561.667 133.713 L561.667 128.319 Z" fill="#000000" fill-rule="nonzero" fill-opacity="1" /><path clip-path="url(#clip290)" d="M593.496 139.407 L593.496 143.389 Q591.69 142.393 589.861 141.907 Q588.056 141.398 586.204 141.398 Q582.06 141.398 579.769 144.037 Q577.477 146.652 577.477 151.398 Q577.477 156.143 579.769 158.782 Q582.06 161.398 586.204 161.398 Q588.056 161.398 589.861 160.912 Q591.69 160.402 593.496 159.407 L593.496 163.342 Q591.713 164.176 589.792 164.592 Q587.894 165.009 585.741 165.009 Q579.884 165.009 576.435 161.328 Q572.986 157.648 572.986 151.398 Q572.986 145.055 576.459 141.421 Q579.954 137.787 586.019 137.787 Q587.986 137.787 589.861 138.203 Q591.736 138.597 593.496 139.407 Z" fill="#000000" fill-rule="nonzero" fill-opacity="1" /><path clip-path="url(#clip290)" d="M605.116 131.051 L605.116 138.412 L613.889 138.412 L613.889 141.722 L605.116 141.722 L605.116 155.796 Q605.116 158.967 605.972 159.87 Q606.852 160.773 609.514 160.773 L613.889 160.773 L613.889 164.338 L609.514 164.338 Q604.583 164.338 602.708 162.509 Q600.833 160.657 600.833 155.796 L600.833 141.722 L597.708 141.722 L597.708 138.412 L600.833 138.412 L600.833 131.051 L605.116 131.051 Z" fill="#000000" fill-rule="nonzero" fill-opacity="1" /><path clip-path="url(#clip290)" d="M619.491 138.412 L623.75 138.412 L623.75 164.338 L619.491 164.338 L619.491 138.412 M619.491 128.319 L623.75 128.319 L623.75 133.713 L619.491 133.713 L619.491 128.319 Z" fill="#000000" fill-rule="nonzero" fill-opacity="1" /><path clip-path="url(#clip290)" d="M642.708 141.398 Q639.282 141.398 637.292 144.083 Q635.301 146.745 635.301 151.398 Q635.301 156.051 637.268 158.736 Q639.259 161.398 642.708 161.398 Q646.111 161.398 648.102 158.713 Q650.092 156.027 650.092 151.398 Q650.092 146.791 648.102 144.106 Q646.111 141.398 642.708 141.398 M642.708 137.787 Q648.264 137.787 651.435 141.398 Q654.606 145.009 654.606 151.398 Q654.606 157.764 651.435 161.398 Q648.264 165.009 642.708 165.009 Q637.13 165.009 633.958 161.398 Q630.81 157.764 630.81 151.398 Q630.81 145.009 633.958 141.398 Q637.13 137.787 642.708 137.787 Z" fill="#000000" fill-rule="nonzero" fill-opacity="1" /><path clip-path="url(#clip290)" d="M683.217 148.689 L683.217 164.338 L678.958 164.338 L678.958 148.828 Q678.958 145.148 677.523 143.319 Q676.088 141.49 673.217 141.49 Q669.768 141.49 667.778 143.69 Q665.787 145.889 665.787 149.685 L665.787 164.338 L661.504 164.338 L661.504 138.412 L665.787 138.412 L665.787 142.44 Q667.315 140.102 669.375 138.944 Q671.458 137.787 674.166 137.787 Q678.634 137.787 680.926 140.565 Q683.217 143.319 683.217 148.689 Z" fill="#000000" fill-rule="nonzero" fill-opacity="1" /><polyline clip-path="url(#clip290)" style="stroke:#e26f46; stroke-linecap:round; stroke-linejoin:round; stroke-width:4; stroke-opacity:1; fill:none" points="288.357,198.898 432.385,198.898 "/>
<path clip-path="url(#clip290)" d="M456.39 181.618 L478.242 181.618 L478.242 185.553 L461.066 185.553 L461.066 195.784 L477.524 195.784 L477.524 199.719 L461.066 199.719 L461.066 212.242 L478.658 212.242 L478.658 216.178 L456.39 216.178 L456.39 181.618 Z" fill="#000000" fill-rule="nonzero" fill-opacity="1" /><path clip-path="url(#clip290)" d="M507.709 190.252 L498.334 202.867 L508.195 216.178 L503.172 216.178 L495.626 205.992 L488.079 216.178 L483.056 216.178 L493.126 202.613 L483.913 190.252 L488.936 190.252 L495.811 199.488 L502.686 190.252 L507.709 190.252 Z" fill="#000000" fill-rule="nonzero" fill-opacity="1" /><path clip-path="url(#clip290)" d="M525.996 203.145 Q520.834 203.145 518.843 204.326 Q516.852 205.506 516.852 208.354 Q516.852 210.622 518.334 211.965 Q519.838 213.284 522.408 213.284 Q525.95 213.284 528.079 210.784 Q530.232 208.261 530.232 204.094 L530.232 203.145 L525.996 203.145 M534.491 201.386 L534.491 216.178 L530.232 216.178 L530.232 212.242 Q528.774 214.603 526.598 215.738 Q524.422 216.849 521.274 216.849 Q517.292 216.849 514.931 214.627 Q512.593 212.381 512.593 208.631 Q512.593 204.256 515.51 202.034 Q518.45 199.812 524.26 199.812 L530.232 199.812 L530.232 199.395 Q530.232 196.455 528.288 194.858 Q526.366 193.238 522.871 193.238 Q520.649 193.238 518.542 193.77 Q516.436 194.303 514.491 195.367 L514.491 191.432 Q516.829 190.53 519.028 190.09 Q521.227 189.627 523.311 189.627 Q528.936 189.627 531.713 192.543 Q534.491 195.46 534.491 201.386 Z" fill="#000000" fill-rule="nonzero" fill-opacity="1" /><path clip-path="url(#clip290)" d="M561.922 191.247 L561.922 195.229 Q560.116 194.233 558.287 193.747 Q556.482 193.238 554.63 193.238 Q550.486 193.238 548.195 195.877 Q545.903 198.492 545.903 203.238 Q545.903 207.983 548.195 210.622 Q550.486 213.238 554.63 213.238 Q556.482 213.238 558.287 212.752 Q560.116 212.242 561.922 211.247 L561.922 215.182 Q560.139 216.016 558.218 216.432 Q556.32 216.849 554.167 216.849 Q548.311 216.849 544.862 213.168 Q541.412 209.488 541.412 203.238 Q541.412 196.895 544.885 193.261 Q548.38 189.627 554.445 189.627 Q556.412 189.627 558.287 190.043 Q560.162 190.437 561.922 191.247 Z" fill="#000000" fill-rule="nonzero" fill-opacity="1" /><path clip-path="url(#clip290)" d="M573.542 182.891 L573.542 190.252 L582.315 190.252 L582.315 193.562 L573.542 193.562 L573.542 207.636 Q573.542 210.807 574.398 211.71 Q575.278 212.613 577.94 212.613 L582.315 212.613 L582.315 216.178 L577.94 216.178 Q573.01 216.178 571.135 214.349 Q569.26 212.497 569.26 207.636 L569.26 193.562 L566.135 193.562 L566.135 190.252 L569.26 190.252 L569.26 182.891 L573.542 182.891 Z" fill="#000000" fill-rule="nonzero" fill-opacity="1" /></svg>
