<?xml version="1.0" encoding="utf-8"?>
<svg xmlns="http://www.w3.org/2000/svg" xmlns:xlink="http://www.w3.org/1999/xlink" width="600" height="400" viewBox="0 0 2400 1600">
<defs>
  <clipPath id="clip070">
    <rect x="0" y="0" width="2400" height="1600"/>
  </clipPath>
</defs>
<path clip-path="url(#clip070)" d="M0 1600 L2400 1600 L2400 0 L0 0  Z" fill="#ffffff" fill-rule="evenodd" fill-opacity="1"/>
<defs>
  <clipPath id="clip071">
    <rect x="480" y="0" width="1681" height="1600"/>
  </clipPath>
</defs>
<path clip-path="url(#clip070)" d="M156.274 1486.45 L2352.76 1486.45 L2352.76 47.2441 L156.274 47.2441  Z" fill="#ffffff" fill-rule="evenodd" fill-opacity="1"/>
<defs>
  <clipPath id="clip072">
    <rect x="156" y="47" width="2197" height="1440"/>
  </clipPath>
</defs>
<polyline clip-path="url(#clip072)" style="stroke:#000000; stroke-linecap:round; stroke-linejoin:round; stroke-width:2; stroke-opacity:0.1; fill:none" points="218.439,1486.45 218.439,47.2441 "/>
<polyline clip-path="url(#clip072)" style="stroke:#000000; stroke-linecap:round; stroke-linejoin:round; stroke-width:2; stroke-opacity:0.1; fill:none" points="736.477,1486.45 736.477,47.2441 "/>
<polyline clip-path="url(#clip072)" style="stroke:#000000; stroke-linecap:round; stroke-linejoin:round; stroke-width:2; stroke-opacity:0.1; fill:none" points="1254.52,1486.45 1254.52,47.2441 "/>
<polyline clip-path="url(#clip072)" style="stroke:#000000; stroke-linecap:round; stroke-linejoin:round; stroke-width:2; stroke-opacity:0.1; fill:none" points="1772.55,1486.45 1772.55,47.2441 "/>
<polyline clip-path="url(#clip072)" style="stroke:#000000; stroke-linecap:round; stroke-linejoin:round; stroke-width:2; stroke-opacity:0.1; fill:none" points="2290.59,1486.45 2290.59,47.2441 "/>
<polyline clip-path="url(#clip070)" style="stroke:#000000; stroke-linecap:round; stroke-linejoin:round; stroke-width:4; stroke-opacity:1; fill:none" points="156.274,1486.45 2352.76,1486.45 "/>
<polyline clip-path="url(#clip070)" style="stroke:#000000; stroke-linecap:round; stroke-linejoin:round; stroke-width:4; stroke-opacity:1; fill:none" points="218.439,1486.45 218.439,1467.55 "/>
<polyline clip-path="url(#clip070)" style="stroke:#000000; stroke-linecap:round; stroke-linejoin:round; stroke-width:4; stroke-opacity:1; fill:none" points="736.477,1486.45 736.477,1467.55 "/>
<polyline clip-path="url(#clip070)" style="stroke:#000000; stroke-linecap:round; stroke-linejoin:round; stroke-width:4; stroke-opacity:1; fill:none" points="1254.52,1486.45 1254.52,1467.55 "/>
<polyline clip-path="url(#clip070)" style="stroke:#000000; stroke-linecap:round; stroke-linejoin:round; stroke-width:4; stroke-opacity:1; fill:none" points="1772.55,1486.45 1772.55,1467.55 "/>
<polyline clip-path="url(#clip070)" style="stroke:#000000; stroke-linecap:round; stroke-linejoin:round; stroke-width:4; stroke-opacity:1; fill:none" points="2290.59,1486.45 2290.59,1467.55 "/>
<path clip-path="url(#clip070)" d="M164.967 1532.02 L194.643 1532.02 L194.643 1535.95 L164.967 1535.95 L164.967 1532.02 Z" fill="#000000" fill-rule="nonzero" fill-opacity="1" /><path clip-path="url(#clip070)" d="M205.545 1544.91 L213.184 1544.91 L213.184 1518.55 L204.874 1520.21 L204.874 1515.95 L213.138 1514.29 L217.814 1514.29 L217.814 1544.91 L225.453 1544.91 L225.453 1548.85 L205.545 1548.85 L205.545 1544.91 Z" fill="#000000" fill-rule="nonzero" fill-opacity="1" /><path clip-path="url(#clip070)" d="M234.897 1542.97 L239.781 1542.97 L239.781 1548.85 L234.897 1548.85 L234.897 1542.97 Z" fill="#000000" fill-rule="nonzero" fill-opacity="1" /><path clip-path="url(#clip070)" d="M259.966 1517.37 Q256.355 1517.37 254.527 1520.93 Q252.721 1524.47 252.721 1531.6 Q252.721 1538.71 254.527 1542.27 Q256.355 1545.82 259.966 1545.82 Q263.601 1545.82 265.406 1542.27 Q267.235 1538.71 267.235 1531.6 Q267.235 1524.47 265.406 1520.93 Q263.601 1517.37 259.966 1517.37 M259.966 1513.66 Q265.776 1513.66 268.832 1518.27 Q271.911 1522.85 271.911 1531.6 Q271.911 1540.33 268.832 1544.94 Q265.776 1549.52 259.966 1549.52 Q254.156 1549.52 251.077 1544.94 Q248.022 1540.33 248.022 1531.6 Q248.022 1522.85 251.077 1518.27 Q254.156 1513.66 259.966 1513.66 Z" fill="#000000" fill-rule="nonzero" fill-opacity="1" /><path clip-path="url(#clip070)" d="M683.503 1532.02 L713.178 1532.02 L713.178 1535.95 L683.503 1535.95 L683.503 1532.02 Z" fill="#000000" fill-rule="nonzero" fill-opacity="1" /><path clip-path="url(#clip070)" d="M733.271 1517.37 Q729.66 1517.37 727.831 1520.93 Q726.026 1524.47 726.026 1531.6 Q726.026 1538.71 727.831 1542.27 Q729.66 1545.82 733.271 1545.82 Q736.905 1545.82 738.711 1542.27 Q740.539 1538.71 740.539 1531.6 Q740.539 1524.47 738.711 1520.93 Q736.905 1517.37 733.271 1517.37 M733.271 1513.66 Q739.081 1513.66 742.137 1518.27 Q745.215 1522.85 745.215 1531.6 Q745.215 1540.33 742.137 1544.94 Q739.081 1549.52 733.271 1549.52 Q727.461 1549.52 724.382 1544.94 Q721.327 1540.33 721.327 1531.6 Q721.327 1522.85 724.382 1518.27 Q727.461 1513.66 733.271 1513.66 Z" fill="#000000" fill-rule="nonzero" fill-opacity="1" /><path clip-path="url(#clip070)" d="M753.433 1542.97 L758.317 1542.97 L758.317 1548.85 L753.433 1548.85 L753.433 1542.97 Z" fill="#000000" fill-rule="nonzero" fill-opacity="1" /><path clip-path="url(#clip070)" d="M768.548 1514.29 L786.905 1514.29 L786.905 1518.22 L772.831 1518.22 L772.831 1526.7 Q773.849 1526.35 774.868 1526.19 Q775.886 1526 776.905 1526 Q782.692 1526 786.072 1529.17 Q789.451 1532.34 789.451 1537.76 Q789.451 1543.34 785.979 1546.44 Q782.507 1549.52 776.187 1549.52 Q774.011 1549.52 771.743 1549.15 Q769.498 1548.78 767.09 1548.04 L767.09 1543.34 Q769.173 1544.47 771.396 1545.03 Q773.618 1545.58 776.095 1545.58 Q780.099 1545.58 782.437 1543.48 Q784.775 1541.37 784.775 1537.76 Q784.775 1534.15 782.437 1532.04 Q780.099 1529.94 776.095 1529.94 Q774.22 1529.94 772.345 1530.35 Q770.493 1530.77 768.548 1531.65 L768.548 1514.29 Z" fill="#000000" fill-rule="nonzero" fill-opacity="1" /><path clip-path="url(#clip070)" d="M1231.9 1517.37 Q1228.29 1517.37 1226.46 1520.93 Q1224.65 1524.47 1224.65 1531.6 Q1224.65 1538.71 1226.46 1542.27 Q1228.29 1545.82 1231.9 1545.82 Q1235.53 1545.82 1237.34 1542.27 Q1239.17 1538.71 1239.17 1531.6 Q1239.17 1524.47 1237.34 1520.93 Q1235.53 1517.37 1231.9 1517.37 M1231.9 1513.66 Q1237.71 1513.66 1240.77 1518.27 Q1243.84 1522.85 1243.84 1531.6 Q1243.84 1540.33 1240.77 1544.94 Q1237.71 1549.52 1231.9 1549.52 Q1226.09 1549.52 1223.01 1544.94 Q1219.96 1540.33 1219.96 1531.6 Q1219.96 1522.85 1223.01 1518.27 Q1226.09 1513.66 1231.9 1513.66 Z" fill="#000000" fill-rule="nonzero" fill-opacity="1" /><path clip-path="url(#clip070)" d="M1252.06 1542.97 L1256.95 1542.97 L1256.95 1548.85 L1252.06 1548.85 L1252.06 1542.97 Z" fill="#000000" fill-rule="nonzero" fill-opacity="1" /><path clip-path="url(#clip070)" d="M1277.13 1517.37 Q1273.52 1517.37 1271.69 1520.93 Q1269.89 1524.47 1269.89 1531.6 Q1269.89 1538.71 1271.69 1542.27 Q1273.52 1545.82 1277.13 1545.82 Q1280.76 1545.82 1282.57 1542.27 Q1284.4 1538.71 1284.4 1531.6 Q1284.4 1524.47 1282.57 1520.93 Q1280.76 1517.37 1277.13 1517.37 M1277.13 1513.66 Q1282.94 1513.66 1286 1518.27 Q1289.08 1522.85 1289.08 1531.6 Q1289.08 1540.33 1286 1544.94 Q1282.94 1549.52 1277.13 1549.52 Q1271.32 1549.52 1268.24 1544.94 Q1265.19 1540.33 1265.19 1531.6 Q1265.19 1522.85 1268.24 1518.27 Q1271.32 1513.66 1277.13 1513.66 Z" fill="#000000" fill-rule="nonzero" fill-opacity="1" /><path clip-path="url(#clip070)" d="M1750.44 1517.37 Q1746.82 1517.37 1745 1520.93 Q1743.19 1524.47 1743.19 1531.6 Q1743.19 1538.71 1745 1542.27 Q1746.82 1545.82 1750.44 1545.82 Q1754.07 1545.82 1755.88 1542.27 Q1757.7 1538.71 1757.7 1531.6 Q1757.7 1524.47 1755.88 1520.93 Q1754.07 1517.37 1750.44 1517.37 M1750.44 1513.66 Q1756.25 1513.66 1759.3 1518.27 Q1762.38 1522.85 1762.38 1531.6 Q1762.38 1540.33 1759.3 1544.94 Q1756.25 1549.52 1750.44 1549.52 Q1744.63 1549.52 1741.55 1544.94 Q1738.49 1540.33 1738.49 1531.6 Q1738.49 1522.85 1741.55 1518.27 Q1744.63 1513.66 1750.44 1513.66 Z" fill="#000000" fill-rule="nonzero" fill-opacity="1" /><path clip-path="url(#clip070)" d="M1770.6 1542.97 L1775.48 1542.97 L1775.48 1548.85 L1770.6 1548.85 L1770.6 1542.97 Z" fill="#000000" fill-rule="nonzero" fill-opacity="1" /><path clip-path="url(#clip070)" d="M1785.71 1514.29 L1804.07 1514.29 L1804.07 1518.22 L1790 1518.22 L1790 1526.7 Q1791.01 1526.35 1792.03 1526.19 Q1793.05 1526 1794.07 1526 Q1799.86 1526 1803.24 1529.17 Q1806.62 1532.34 1806.62 1537.76 Q1806.62 1543.34 1803.14 1546.44 Q1799.67 1549.52 1793.35 1549.52 Q1791.18 1549.52 1788.91 1549.15 Q1786.66 1548.78 1784.25 1548.04 L1784.25 1543.34 Q1786.34 1544.47 1788.56 1545.03 Q1790.78 1545.58 1793.26 1545.58 Q1797.26 1545.58 1799.6 1543.48 Q1801.94 1541.37 1801.94 1537.76 Q1801.94 1534.15 1799.6 1532.04 Q1797.26 1529.94 1793.26 1529.94 Q1791.38 1529.94 1789.51 1530.35 Q1787.66 1530.77 1785.71 1531.65 L1785.71 1514.29 Z" fill="#000000" fill-rule="nonzero" fill-opacity="1" /><path clip-path="url(#clip070)" d="M2257.74 1544.91 L2265.38 1544.91 L2265.38 1518.55 L2257.07 1520.21 L2257.07 1515.95 L2265.34 1514.29 L2270.01 1514.29 L2270.01 1544.91 L2277.65 1544.91 L2277.65 1548.85 L2257.74 1548.85 L2257.74 1544.91 Z" fill="#000000" fill-rule="nonzero" fill-opacity="1" /><path clip-path="url(#clip070)" d="M2287.1 1542.97 L2291.98 1542.97 L2291.98 1548.85 L2287.1 1548.85 L2287.1 1542.97 Z" fill="#000000" fill-rule="nonzero" fill-opacity="1" /><path clip-path="url(#clip070)" d="M2312.17 1517.37 Q2308.55 1517.37 2306.73 1520.93 Q2304.92 1524.47 2304.92 1531.6 Q2304.92 1538.71 2306.73 1542.27 Q2308.55 1545.82 2312.17 1545.82 Q2315.8 1545.82 2317.61 1542.27 Q2319.43 1538.71 2319.43 1531.6 Q2319.43 1524.47 2317.61 1520.93 Q2315.8 1517.37 2312.17 1517.37 M2312.17 1513.66 Q2317.98 1513.66 2321.03 1518.27 Q2324.11 1522.85 2324.11 1531.6 Q2324.11 1540.33 2321.03 1544.94 Q2317.98 1549.52 2312.17 1549.52 Q2306.36 1549.52 2303.28 1544.94 Q2300.22 1540.33 2300.22 1531.6 Q2300.22 1522.85 2303.28 1518.27 Q2306.36 1513.66 2312.17 1513.66 Z" fill="#000000" fill-rule="nonzero" fill-opacity="1" /><polyline clip-path="url(#clip072)" style="stroke:#000000; stroke-linecap:round; stroke-linejoin:round; stroke-width:2; stroke-opacity:0.1; fill:none" points="156.274,1238.02 2352.76,1238.02 "/>
<polyline clip-path="url(#clip072)" style="stroke:#000000; stroke-linecap:round; stroke-linejoin:round; stroke-width:2; stroke-opacity:0.1; fill:none" points="156.274,968.123 2352.76,968.123 "/>
<polyline clip-path="url(#clip072)" style="stroke:#000000; stroke-linecap:round; stroke-linejoin:round; stroke-width:2; stroke-opacity:0.1; fill:none" points="156.274,698.226 2352.76,698.226 "/>
<polyline clip-path="url(#clip072)" style="stroke:#000000; stroke-linecap:round; stroke-linejoin:round; stroke-width:2; stroke-opacity:0.1; fill:none" points="156.274,428.329 2352.76,428.329 "/>
<polyline clip-path="url(#clip072)" style="stroke:#000000; stroke-linecap:round; stroke-linejoin:round; stroke-width:2; stroke-opacity:0.1; fill:none" points="156.274,158.433 2352.76,158.433 "/>
<polyline clip-path="url(#clip070)" style="stroke:#000000; stroke-linecap:round; stroke-linejoin:round; stroke-width:4; stroke-opacity:1; fill:none" points="156.274,1486.45 156.274,47.2441 "/>
<polyline clip-path="url(#clip070)" style="stroke:#000000; stroke-linecap:round; stroke-linejoin:round; stroke-width:4; stroke-opacity:1; fill:none" points="156.274,1238.02 175.172,1238.02 "/>
<polyline clip-path="url(#clip070)" style="stroke:#000000; stroke-linecap:round; stroke-linejoin:round; stroke-width:4; stroke-opacity:1; fill:none" points="156.274,968.123 175.172,968.123 "/>
<polyline clip-path="url(#clip070)" style="stroke:#000000; stroke-linecap:round; stroke-linejoin:round; stroke-width:4; stroke-opacity:1; fill:none" points="156.274,698.226 175.172,698.226 "/>
<polyline clip-path="url(#clip070)" style="stroke:#000000; stroke-linecap:round; stroke-linejoin:round; stroke-width:4; stroke-opacity:1; fill:none" points="156.274,428.329 175.172,428.329 "/>
<polyline clip-path="url(#clip070)" style="stroke:#000000; stroke-linecap:round; stroke-linejoin:round; stroke-width:4; stroke-opacity:1; fill:none" points="156.274,158.433 175.172,158.433 "/>
<path clip-path="url(#clip070)" d="M63.0985 1223.82 Q59.4875 1223.82 57.6588 1227.38 Q55.8532 1230.92 55.8532 1238.05 Q55.8532 1245.16 57.6588 1248.73 Q59.4875 1252.27 63.0985 1252.27 Q66.7328 1252.27 68.5383 1248.73 Q70.367 1245.16 70.367 1238.05 Q70.367 1230.92 68.5383 1227.38 Q66.7328 1223.82 63.0985 1223.82 M63.0985 1220.11 Q68.9087 1220.11 71.9642 1224.72 Q75.0429 1229.3 75.0429 1238.05 Q75.0429 1246.78 71.9642 1251.39 Q68.9087 1255.97 63.0985 1255.97 Q57.2884 1255.97 54.2097 1251.39 Q51.1542 1246.78 51.1542 1238.05 Q51.1542 1229.3 54.2097 1224.72 Q57.2884 1220.11 63.0985 1220.11 Z" fill="#000000" fill-rule="nonzero" fill-opacity="1" /><path clip-path="url(#clip070)" d="M83.2605 1249.42 L88.1447 1249.42 L88.1447 1255.3 L83.2605 1255.3 L83.2605 1249.42 Z" fill="#000000" fill-rule="nonzero" fill-opacity="1" /><path clip-path="url(#clip070)" d="M108.33 1223.82 Q104.719 1223.82 102.89 1227.38 Q101.084 1230.92 101.084 1238.05 Q101.084 1245.16 102.89 1248.73 Q104.719 1252.27 108.33 1252.27 Q111.964 1252.27 113.77 1248.73 Q115.598 1245.16 115.598 1238.05 Q115.598 1230.92 113.77 1227.38 Q111.964 1223.82 108.33 1223.82 M108.33 1220.11 Q114.14 1220.11 117.195 1224.72 Q120.274 1229.3 120.274 1238.05 Q120.274 1246.78 117.195 1251.39 Q114.14 1255.97 108.33 1255.97 Q102.52 1255.97 99.4409 1251.39 Q96.3854 1246.78 96.3854 1238.05 Q96.3854 1229.3 99.4409 1224.72 Q102.52 1220.11 108.33 1220.11 Z" fill="#000000" fill-rule="nonzero" fill-opacity="1" /><path clip-path="url(#clip070)" d="M63.7467 953.921 Q60.1356 953.921 58.3069 957.486 Q56.5014 961.028 56.5014 968.157 Q56.5014 975.264 58.3069 978.829 Q60.1356 982.37 63.7467 982.37 Q67.3809 982.37 69.1865 978.829 Q71.0152 975.264 71.0152 968.157 Q71.0152 961.028 69.1865 957.486 Q67.3809 953.921 63.7467 953.921 M63.7467 950.218 Q69.5568 950.218 72.6124 954.824 Q75.6911 959.407 75.6911 968.157 Q75.6911 976.884 72.6124 981.491 Q69.5568 986.074 63.7467 986.074 Q57.9365 986.074 54.8578 981.491 Q51.8023 976.884 51.8023 968.157 Q51.8023 959.407 54.8578 954.824 Q57.9365 950.218 63.7467 950.218 Z" fill="#000000" fill-rule="nonzero" fill-opacity="1" /><path clip-path="url(#clip070)" d="M83.9086 979.523 L88.7928 979.523 L88.7928 985.403 L83.9086 985.403 L83.9086 979.523 Z" fill="#000000" fill-rule="nonzero" fill-opacity="1" /><path clip-path="url(#clip070)" d="M113.145 966.769 Q116.501 967.486 118.376 969.755 Q120.274 972.023 120.274 975.356 Q120.274 980.472 116.756 983.273 Q113.237 986.074 106.756 986.074 Q104.58 986.074 102.265 985.634 Q99.9733 985.218 97.5197 984.361 L97.5197 979.847 Q99.4641 980.981 101.779 981.56 Q104.094 982.139 106.617 982.139 Q111.015 982.139 113.307 980.403 Q115.621 978.667 115.621 975.356 Q115.621 972.301 113.469 970.588 Q111.339 968.852 107.52 968.852 L103.492 968.852 L103.492 965.009 L107.705 965.009 Q111.154 965.009 112.983 963.644 Q114.811 962.255 114.811 959.662 Q114.811 957 112.913 955.588 Q111.038 954.153 107.52 954.153 Q105.598 954.153 103.399 954.57 Q101.2 954.986 98.5613 955.866 L98.5613 951.699 Q101.223 950.958 103.538 950.588 Q105.876 950.218 107.936 950.218 Q113.26 950.218 116.362 952.648 Q119.464 955.056 119.464 959.176 Q119.464 962.046 117.82 964.037 Q116.177 966.005 113.145 966.769 Z" fill="#000000" fill-rule="nonzero" fill-opacity="1" /><path clip-path="url(#clip070)" d="M62.9365 684.025 Q59.3254 684.025 57.4967 687.59 Q55.6912 691.131 55.6912 698.261 Q55.6912 705.367 57.4967 708.932 Q59.3254 712.474 62.9365 712.474 Q66.5707 712.474 68.3763 708.932 Q70.205 705.367 70.205 698.261 Q70.205 691.131 68.3763 687.59 Q66.5707 684.025 62.9365 684.025 M62.9365 680.321 Q68.7467 680.321 71.8022 684.927 Q74.8809 689.511 74.8809 698.261 Q74.8809 706.988 71.8022 711.594 Q68.7467 716.177 62.9365 716.177 Q57.1264 716.177 54.0477 711.594 Q50.9921 706.988 50.9921 698.261 Q50.9921 689.511 54.0477 684.927 Q57.1264 680.321 62.9365 680.321 Z" fill="#000000" fill-rule="nonzero" fill-opacity="1" /><path clip-path="url(#clip070)" d="M83.0984 709.626 L87.9827 709.626 L87.9827 715.506 L83.0984 715.506 L83.0984 709.626 Z" fill="#000000" fill-rule="nonzero" fill-opacity="1" /><path clip-path="url(#clip070)" d="M108.746 696.363 Q105.598 696.363 103.746 698.515 Q101.918 700.668 101.918 704.418 Q101.918 708.145 103.746 710.321 Q105.598 712.474 108.746 712.474 Q111.895 712.474 113.723 710.321 Q115.575 708.145 115.575 704.418 Q115.575 700.668 113.723 698.515 Q111.895 696.363 108.746 696.363 M118.029 681.71 L118.029 685.969 Q116.27 685.136 114.464 684.696 Q112.682 684.256 110.922 684.256 Q106.293 684.256 103.839 687.381 Q101.409 690.506 101.061 696.826 Q102.427 694.812 104.487 693.747 Q106.547 692.659 109.024 692.659 Q114.233 692.659 117.242 695.83 Q120.274 698.978 120.274 704.418 Q120.274 709.742 117.126 712.96 Q113.978 716.177 108.746 716.177 Q102.751 716.177 99.5798 711.594 Q96.4085 706.988 96.4085 698.261 Q96.4085 690.066 100.297 685.205 Q104.186 680.321 110.737 680.321 Q112.496 680.321 114.279 680.668 Q116.084 681.015 118.029 681.71 Z" fill="#000000" fill-rule="nonzero" fill-opacity="1" /><path clip-path="url(#clip070)" d="M63.2837 414.128 Q59.6726 414.128 57.8439 417.693 Q56.0384 421.235 56.0384 428.364 Q56.0384 435.471 57.8439 439.035 Q59.6726 442.577 63.2837 442.577 Q66.918 442.577 68.7235 439.035 Q70.5522 435.471 70.5522 428.364 Q70.5522 421.235 68.7235 417.693 Q66.918 414.128 63.2837 414.128 M63.2837 410.424 Q69.0939 410.424 72.1494 415.031 Q75.2281 419.614 75.2281 428.364 Q75.2281 437.091 72.1494 441.697 Q69.0939 446.281 63.2837 446.281 Q57.4736 446.281 54.3949 441.697 Q51.3393 437.091 51.3393 428.364 Q51.3393 419.614 54.3949 415.031 Q57.4736 410.424 63.2837 410.424 Z" fill="#000000" fill-rule="nonzero" fill-opacity="1" /><path clip-path="url(#clip070)" d="M83.4457 439.73 L88.3299 439.73 L88.3299 445.609 L83.4457 445.609 L83.4457 439.73 Z" fill="#000000" fill-rule="nonzero" fill-opacity="1" /><path clip-path="url(#clip070)" d="M98.6539 444.892 L98.6539 440.633 Q100.413 441.466 102.219 441.906 Q104.024 442.346 105.76 442.346 Q110.39 442.346 112.82 439.244 Q115.274 436.119 115.621 429.776 Q114.279 431.767 112.219 432.832 Q110.158 433.896 107.658 433.896 Q102.473 433.896 99.4409 430.771 Q96.4317 427.623 96.4317 422.184 Q96.4317 416.86 99.5798 413.642 Q102.728 410.424 107.959 410.424 Q113.955 410.424 117.103 415.031 Q120.274 419.614 120.274 428.364 Q120.274 436.535 116.385 441.42 Q112.52 446.281 105.969 446.281 Q104.209 446.281 102.404 445.933 Q100.598 445.586 98.6539 444.892 M107.959 430.239 Q111.108 430.239 112.936 428.086 Q114.788 425.934 114.788 422.184 Q114.788 418.457 112.936 416.304 Q111.108 414.128 107.959 414.128 Q104.811 414.128 102.959 416.304 Q101.131 418.457 101.131 422.184 Q101.131 425.934 102.959 428.086 Q104.811 430.239 107.959 430.239 Z" fill="#000000" fill-rule="nonzero" fill-opacity="1" /><path clip-path="url(#clip070)" d="M55.506 171.778 L63.1448 171.778 L63.1448 145.412 L54.8347 147.079 L54.8347 142.819 L63.0985 141.153 L67.7744 141.153 L67.7744 171.778 L75.4133 171.778 L75.4133 175.713 L55.506 175.713 L55.506 171.778 Z" fill="#000000" fill-rule="nonzero" fill-opacity="1" /><path clip-path="url(#clip070)" d="M84.8577 169.833 L89.7419 169.833 L89.7419 175.713 L84.8577 175.713 L84.8577 169.833 Z" fill="#000000" fill-rule="nonzero" fill-opacity="1" /><path clip-path="url(#clip070)" d="M103.955 171.778 L120.274 171.778 L120.274 175.713 L98.3298 175.713 L98.3298 171.778 Q100.992 169.023 105.575 164.393 Q110.182 159.741 111.362 158.398 Q113.608 155.875 114.487 154.139 Q115.39 152.38 115.39 150.69 Q115.39 147.935 113.445 146.199 Q111.524 144.463 108.422 144.463 Q106.223 144.463 103.77 145.227 Q101.339 145.991 98.5613 147.542 L98.5613 142.819 Q101.385 141.685 103.839 141.106 Q106.293 140.528 108.33 140.528 Q113.7 140.528 116.895 143.213 Q120.089 145.898 120.089 150.389 Q120.089 152.518 119.279 154.44 Q118.492 156.338 116.385 158.93 Q115.807 159.602 112.705 162.819 Q109.603 166.014 103.955 171.778 Z" fill="#000000" fill-rule="nonzero" fill-opacity="1" /><polyline clip-path="url(#clip072)" style="stroke:#009af9; stroke-linecap:round; stroke-linejoin:round; stroke-width:16; stroke-opacity:1; fill:none" stroke-dasharray="8, 16" points="218.439,1069.06 228.852,1075.93 239.264,1082.79 249.677,1089.66 260.09,1096.52 270.503,1103.39 280.916,1110.25 291.329,1117.12 301.741,1123.98 312.154,1150.52 322.567,1177.58 332.98,1204.64 343.393,1231.7 353.805,1258.76 364.218,1285.82 374.631,1312.88 385.044,1339.94 395.457,1360.98 405.87,1380.68 416.282,1400.39 426.695,1420.09 437.108,1439.79 447.521,1445.72 457.934,1426.1 468.347,1404 478.759,1379.79 489.172,1353.99 499.585,1325.71 509.998,1297.43 520.411,1269.15 530.824,1240.86 541.236,1212.58 551.649,1184.3 562.062,1157.82 572.475,1133.93 582.888,1110.04 593.301,1086.16 603.713,1065.92 614.126,1053.43 624.539,1053.01 634.952,1065.89 645.365,1079.1 655.777,1103.54 666.19,1129.03 676.603,1154.51 687.016,1179.99 697.429,1205.48 707.842,1230.96 718.254,1256.45 728.667,1281.93 739.08,1307.41 749.493,1332.9 759.906,1358.38 770.319,1379.07 780.731,1393.12 791.144,1407.17 801.557,1421.22 811.97,1435.34 822.383,1436.71 832.796,1409.62 843.208,1382.16 853.621,1351.62 864.034,1323.51 874.447,1293 884.86,1262.48 895.273,1231.97 905.685,1201.46 916.098,1170.94 926.511,1140.58 936.924,1115.07 947.337,1105.22 957.749,1091.74 968.162,1077.49 978.575,1061.49 988.988,1051.74 999.401,1058.52 1009.81,1070.99 1020.23,1093.37 1030.64,1115.21 1041.05,1142.26 1051.46,1170.73 1061.88,1201.45 1072.29,1232.17 1082.7,1259.2 1093.12,1281.07 1103.53,1323.36 1113.94,1357.07 1124.35,1376.77 1134.77,1392.36 1145.18,1408.1 1155.59,1410.51 1166.01,1407.06 1176.42,1404.5 1186.83,1401.2 1197.24,1402.02 1207.66,1408.06 1218.07,1382.95 1228.48,1346 1238.9,1252.26 1249.31,1044.77 1259.72,747.748 1270.13,453.81 1280.55,337.915 1290.96,336.421 1301.37,328.846 1311.79,337.31 1322.2,359.341 1332.61,347.777 1343.02,336.647 1353.44,325.461 1363.85,322.267 1374.26,322.922 1384.68,325.105 1395.09,330.074 1405.5,335.305 1415.91,339.755 1426.33,345.538 1436.74,350.133 1447.15,351.081 1457.57,350.29 1467.98,349.54 1478.39,348.79 1488.8,348.039 1499.22,347.289 1509.63,346.539 1520.04,345.788 1530.45,345.038 1540.87,344.288 1551.28,343.538 1561.69,342.787 1572.11,342.037 1582.52,341.287 1592.93,340.536 1603.34,339.786 1613.76,339.094 1624.17,339.964 1634.58,340.835 1645,341.705 1655.41,342.576 1665.82,343.446 1676.23,344.317 1686.65,344.658 1697.06,344.259 1707.47,343.861 1717.89,343.462 1728.3,343.064 1738.71,342.665 1749.12,342.267 1759.54,341.869 1769.95,341.47 1780.36,341.072 1790.78,340.673 1801.19,340.275 1811.6,339.876 1822.01,339.478 1832.43,339.079 1842.84,338.681 1853.25,338.282 1863.67,337.884 1874.08,337.485 1884.49,337.087 1894.9,336.688 1905.32,336.29 1915.73,335.892 1926.14,335.493 1936.56,335.095 1946.97,334.696 1957.38,334.298 1967.79,333.899 1978.21,333.501 1988.62,333.102 1999.03,332.703 2009.45,333.568 2019.86,334.973 2030.27,336.379 2040.68,337.784 2051.1,339.19 2061.51,340.595 2071.92,342.001 2082.33,343.406 2092.75,344.812 2103.16,346.217 2113.57,349.65 2123.99,354.151 2134.4,358.653 2144.81,363.155 2155.22,367.657 2165.64,372.158 2176.05,376.66 2186.46,381.162 2196.88,385.663 2207.29,390.165 2217.7,394.667 2228.11,399.168 2238.53,403.67 2248.94,408.171 2259.35,412.673 2269.77,417.175 2280.18,421.677 2290.59,426.178 "/>
<polyline clip-path="url(#clip072)" style="stroke:#e26f46; stroke-linecap:round; stroke-linejoin:round; stroke-width:4; stroke-opacity:1; fill:none" points="218.439,1102.89 228.852,1083.72 239.264,1069.59 249.677,1060.95 260.09,1058.09 270.503,1061.1 280.916,1069.89 291.329,1084.16 301.741,1103.46 312.154,1127.15 322.567,1154.45 332.98,1184.49 343.393,1216.27 353.805,1248.76 364.218,1280.9 374.631,1311.64 385.044,1339.98 395.457,1364.99 405.87,1385.85 416.282,1401.9 426.695,1412.59 437.108,1417.58 447.521,1416.72 457.934,1410.02 468.347,1397.71 478.759,1380.19 489.172,1358.02 499.585,1331.95 509.998,1302.8 520.411,1271.54 530.824,1239.19 541.236,1206.8 551.649,1175.42 562.062,1146.09 572.475,1119.76 582.888,1097.3 593.301,1079.42 603.713,1066.72 614.126,1059.61 624.539,1058.32 634.952,1062.9 645.365,1073.19 655.777,1088.87 666.19,1109.41 676.603,1134.14 687.016,1162.27 697.429,1192.87 707.842,1224.95 718.254,1257.45 728.667,1289.32 739.08,1319.51 749.493,1347.04 759.906,1371.02 770.319,1390.65 780.731,1405.3 791.144,1414.5 801.557,1417.93 811.97,1415.49 822.383,1407.26 832.796,1393.51 843.208,1374.68 853.621,1351.39 864.034,1324.4 874.447,1294.59 884.86,1262.94 895.273,1230.47 905.685,1198.25 916.098,1167.32 926.511,1138.71 936.924,1113.33 947.337,1092.03 957.749,1075.49 968.162,1064.25 978.575,1058.69 988.988,1058.98 999.401,1065.11 1009.81,1076.88 1020.23,1093.92 1030.64,1115.65 1041.05,1141.39 1051.46,1170.27 1061.88,1201.37 1072.29,1233.66 1082.7,1266.09 1093.12,1297.61 1103.53,1327.19 1113.94,1353.85 1124.35,1376.73 1134.77,1395.09 1145.18,1408.32 1155.59,1415.99 1166.01,1417.85 1176.42,1413.85 1186.83,1404.1 1197.24,1388.94 1207.66,1368.85 1218.07,1344.48 1228.48,1316.65 1238.9,1286.25 1249.31,1254.27 1259.72,337.057 1270.13,335.57 1280.55,336.924 1290.96,341.429 1301.37,347.705 1311.79,353.1 1322.2,354.698 1332.61,350.546 1343.02,340.65 1353.44,327.309 1363.85,314.614 1374.26,307.197 1384.68,308.62 1395.09,319.935 1405.5,338.968 1415.91,360.629 1426.33,378.267 1436.74,385.708 1447.15,379.339 1457.57,359.577 1467.98,331.152 1478.39,302.022 1488.8,281.144 1499.22,275.735 1509.63,288.847 1520.04,318.057 1530.45,355.781 1540.87,391.219 1551.28,413.444 1561.69,414.76 1572.11,393.288 1582.52,353.937 1592.93,307.355 1603.34,267.062 1613.76,245.523 1624.17,250.312 1634.58,281.54 1645,331.392 1655.41,386.043 1665.82,429.485 1676.23,448.214 1686.65,435.407 1697.06,393.291 1707.47,332.927 1717.89,271.326 1728.3,226.661 1738.71,212.905 1749.12,235.493 1759.54,289.331 1769.95,359.859 1780.36,426.976 1790.78,470.765 1801.19,477.397 1811.6,443.468 1822.01,377.402 1832.43,297.415 1842.84,226.5 1853.25,185.817 1863.67,188.388 1874.08,234.976 1884.49,313.426 1894.9,401.812 1905.32,474.556 1915.73,509.829 1926.14,496.093 1936.56,435.818 1946.97,345.192 1957.38,249.805 1967.79,177.415 1978.21,149.879 1988.62,176.564 1999.03,251.24 2009.45,353.457 2019.86,454.13 2030.27,523.816 2040.68,541.319 2051.1,500.122 2061.51,410.685 2071.92,297.833 2082.33,193.878 2092.75,129.365 2103.16,124.103 2113.57,181.105 2123.99,285.293 2134.4,407.456 2144.81,512.436 2155.22,569.242 2165.64,560.197 2176.05,486.406 2186.46,367.866 2196.88,238.065 2207.29,134.532 2217.7,87.9763 2228.11,113.197 2238.53,204.415 2248.94,336.516 2259.35,471.949 2269.77,571.404 2280.18,605.211 2290.59,562.192 "/>
<path clip-path="url(#clip070)" d="M229.49 250.738 L675.966 250.738 L675.966 95.2176 L229.49 95.2176  Z" fill="#ffffff" fill-rule="evenodd" fill-opacity="1"/>
<polyline clip-path="url(#clip070)" style="stroke:#000000; stroke-linecap:round; stroke-linejoin:round; stroke-width:4; stroke-opacity:1; fill:none" points="229.49,250.738 675.966,250.738 675.966,95.2176 229.49,95.2176 229.49,250.738 "/>
<polyline clip-path="url(#clip070)" style="stroke:#009af9; stroke-linecap:round; stroke-linejoin:round; stroke-width:16; stroke-opacity:1; fill:none" stroke-dasharray="8, 16" points="253.896,147.058 400.328,147.058 "/>
<path clip-path="url(#clip070)" d="M429.409 133.62 L429.409 146.606 L435.289 146.606 Q438.552 146.606 440.335 144.916 Q442.117 143.227 442.117 140.102 Q442.117 137 440.335 135.31 Q438.552 133.62 435.289 133.62 L429.409 133.62 M424.733 129.778 L435.289 129.778 Q441.099 129.778 444.062 132.416 Q447.048 135.032 447.048 140.102 Q447.048 145.217 444.062 147.833 Q441.099 150.449 435.289 150.449 L429.409 150.449 L429.409 164.338 L424.733 164.338 L424.733 129.778 Z" fill="#000000" fill-rule="nonzero" fill-opacity="1" /><path clip-path="url(#clip070)" d="M467.325 142.393 Q466.608 141.977 465.751 141.791 Q464.918 141.583 463.899 141.583 Q460.288 141.583 458.344 143.944 Q456.423 146.282 456.423 150.68 L456.423 164.338 L452.14 164.338 L452.14 138.412 L456.423 138.412 L456.423 142.44 Q457.765 140.078 459.918 138.944 Q462.071 137.787 465.149 137.787 Q465.589 137.787 466.122 137.856 Q466.654 137.903 467.302 138.018 L467.325 142.393 Z" fill="#000000" fill-rule="nonzero" fill-opacity="1" /><path clip-path="url(#clip070)" d="M492.927 150.31 L492.927 152.393 L473.344 152.393 Q473.622 156.791 475.983 159.106 Q478.367 161.398 482.603 161.398 Q485.057 161.398 487.348 160.796 Q489.663 160.194 491.932 158.99 L491.932 163.018 Q489.64 163.99 487.233 164.5 Q484.825 165.009 482.348 165.009 Q476.145 165.009 472.511 161.398 Q468.899 157.787 468.899 151.629 Q468.899 145.264 472.325 141.537 Q475.774 137.787 481.608 137.787 Q486.839 137.787 489.872 141.166 Q492.927 144.523 492.927 150.31 M488.668 149.06 Q488.622 145.565 486.7 143.481 Q484.802 141.398 481.654 141.398 Q478.089 141.398 475.936 143.412 Q473.807 145.426 473.483 149.083 L488.668 149.06 Z" fill="#000000" fill-rule="nonzero" fill-opacity="1" /><path clip-path="url(#clip070)" d="M516.978 142.347 L516.978 128.319 L521.237 128.319 L521.237 164.338 L516.978 164.338 L516.978 160.449 Q515.635 162.763 513.575 163.898 Q511.538 165.009 508.668 165.009 Q503.969 165.009 501.006 161.259 Q498.066 157.509 498.066 151.398 Q498.066 145.287 501.006 141.537 Q503.969 137.787 508.668 137.787 Q511.538 137.787 513.575 138.921 Q515.635 140.032 516.978 142.347 M502.464 151.398 Q502.464 156.097 504.385 158.782 Q506.33 161.444 509.709 161.444 Q513.089 161.444 515.033 158.782 Q516.978 156.097 516.978 151.398 Q516.978 146.699 515.033 144.037 Q513.089 141.352 509.709 141.352 Q506.33 141.352 504.385 144.037 Q502.464 146.699 502.464 151.398 Z" fill="#000000" fill-rule="nonzero" fill-opacity="1" /><path clip-path="url(#clip070)" d="M530.01 138.412 L534.269 138.412 L534.269 164.338 L530.01 164.338 L530.01 138.412 M530.01 128.319 L534.269 128.319 L534.269 133.713 L530.01 133.713 L530.01 128.319 Z" fill="#000000" fill-rule="nonzero" fill-opacity="1" /><path clip-path="url(#clip070)" d="M561.839 139.407 L561.839 143.389 Q560.033 142.393 558.205 141.907 Q556.399 141.398 554.547 141.398 Q550.404 141.398 548.112 144.037 Q545.82 146.652 545.82 151.398 Q545.82 156.143 548.112 158.782 Q550.404 161.398 554.547 161.398 Q556.399 161.398 558.205 160.912 Q560.033 160.402 561.839 159.407 L561.839 163.342 Q560.056 164.176 558.135 164.592 Q556.237 165.009 554.084 165.009 Q548.228 165.009 544.779 161.328 Q541.33 157.648 541.33 151.398 Q541.33 145.055 544.802 141.421 Q548.297 137.787 554.362 137.787 Q556.33 137.787 558.205 138.203 Q560.08 138.597 561.839 139.407 Z" fill="#000000" fill-rule="nonzero" fill-opacity="1" /><path clip-path="url(#clip070)" d="M573.459 131.051 L573.459 138.412 L582.232 138.412 L582.232 141.722 L573.459 141.722 L573.459 155.796 Q573.459 158.967 574.316 159.87 Q575.195 160.773 577.857 160.773 L582.232 160.773 L582.232 164.338 L577.857 164.338 Q572.927 164.338 571.052 162.509 Q569.177 160.657 569.177 155.796 L569.177 141.722 L566.052 141.722 L566.052 138.412 L569.177 138.412 L569.177 131.051 L573.459 131.051 Z" fill="#000000" fill-rule="nonzero" fill-opacity="1" /><path clip-path="url(#clip070)" d="M587.834 138.412 L592.093 138.412 L592.093 164.338 L587.834 164.338 L587.834 138.412 M587.834 128.319 L592.093 128.319 L592.093 133.713 L587.834 133.713 L587.834 128.319 Z" fill="#000000" fill-rule="nonzero" fill-opacity="1" /><path clip-path="url(#clip070)" d="M611.051 141.398 Q607.626 141.398 605.635 144.083 Q603.644 146.745 603.644 151.398 Q603.644 156.051 605.612 158.736 Q607.602 161.398 611.051 161.398 Q614.454 161.398 616.445 158.713 Q618.436 156.027 618.436 151.398 Q618.436 146.791 616.445 144.106 Q614.454 141.398 611.051 141.398 M611.051 137.787 Q616.607 137.787 619.778 141.398 Q622.95 145.009 622.95 151.398 Q622.95 157.764 619.778 161.398 Q616.607 165.009 611.051 165.009 Q605.473 165.009 602.302 161.398 Q599.153 157.764 599.153 151.398 Q599.153 145.009 602.302 141.398 Q605.473 137.787 611.051 137.787 Z" fill="#000000" fill-rule="nonzero" fill-opacity="1" /><path clip-path="url(#clip070)" d="M651.561 148.689 L651.561 164.338 L647.301 164.338 L647.301 148.828 Q647.301 145.148 645.866 143.319 Q644.431 141.49 641.561 141.49 Q638.112 141.49 636.121 143.69 Q634.13 145.889 634.13 149.685 L634.13 164.338 L629.848 164.338 L629.848 138.412 L634.13 138.412 L634.13 142.44 Q635.658 140.102 637.718 138.944 Q639.801 137.787 642.51 137.787 Q646.977 137.787 649.269 140.565 Q651.561 143.319 651.561 148.689 Z" fill="#000000" fill-rule="nonzero" fill-opacity="1" /><polyline clip-path="url(#clip070)" style="stroke:#e26f46; stroke-linecap:round; stroke-linejoin:round; stroke-width:4; stroke-opacity:1; fill:none" points="253.896,198.898 400.328,198.898 "/>
<path clip-path="url(#clip070)" d="M424.733 181.618 L446.585 181.618 L446.585 185.553 L429.409 185.553 L429.409 195.784 L445.867 195.784 L445.867 199.719 L429.409 199.719 L429.409 212.242 L447.001 212.242 L447.001 216.178 L424.733 216.178 L424.733 181.618 Z" fill="#000000" fill-rule="nonzero" fill-opacity="1" /><path clip-path="url(#clip070)" d="M476.052 190.252 L466.677 202.867 L476.538 216.178 L471.515 216.178 L463.969 205.992 L456.423 216.178 L451.4 216.178 L461.469 202.613 L452.256 190.252 L457.279 190.252 L464.154 199.488 L471.029 190.252 L476.052 190.252 Z" fill="#000000" fill-rule="nonzero" fill-opacity="1" /><path clip-path="url(#clip070)" d="M494.339 203.145 Q489.177 203.145 487.186 204.326 Q485.196 205.506 485.196 208.354 Q485.196 210.622 486.677 211.965 Q488.182 213.284 490.751 213.284 Q494.293 213.284 496.422 210.784 Q498.575 208.261 498.575 204.094 L498.575 203.145 L494.339 203.145 M502.834 201.386 L502.834 216.178 L498.575 216.178 L498.575 212.242 Q497.117 214.603 494.941 215.738 Q492.765 216.849 489.617 216.849 Q485.635 216.849 483.274 214.627 Q480.936 212.381 480.936 208.631 Q480.936 204.256 483.853 202.034 Q486.793 199.812 492.603 199.812 L498.575 199.812 L498.575 199.395 Q498.575 196.455 496.631 194.858 Q494.71 193.238 491.214 193.238 Q488.992 193.238 486.885 193.77 Q484.779 194.303 482.835 195.367 L482.835 191.432 Q485.173 190.53 487.372 190.09 Q489.571 189.627 491.654 189.627 Q497.279 189.627 500.057 192.543 Q502.834 195.46 502.834 201.386 Z" fill="#000000" fill-rule="nonzero" fill-opacity="1" /><path clip-path="url(#clip070)" d="M530.265 191.247 L530.265 195.229 Q528.459 194.233 526.631 193.747 Q524.825 193.238 522.973 193.238 Q518.83 193.238 516.538 195.877 Q514.246 198.492 514.246 203.238 Q514.246 207.983 516.538 210.622 Q518.83 213.238 522.973 213.238 Q524.825 213.238 526.631 212.752 Q528.459 212.242 530.265 211.247 L530.265 215.182 Q528.482 216.016 526.561 216.432 Q524.663 216.849 522.51 216.849 Q516.654 216.849 513.205 213.168 Q509.756 209.488 509.756 203.238 Q509.756 196.895 513.228 193.261 Q516.723 189.627 522.788 189.627 Q524.756 189.627 526.631 190.043 Q528.506 190.437 530.265 191.247 Z" fill="#000000" fill-rule="nonzero" fill-opacity="1" /><path clip-path="url(#clip070)" d="M541.885 182.891 L541.885 190.252 L550.658 190.252 L550.658 193.562 L541.885 193.562 L541.885 207.636 Q541.885 210.807 542.742 211.71 Q543.621 212.613 546.283 212.613 L550.658 212.613 L550.658 216.178 L546.283 216.178 Q541.353 216.178 539.478 214.349 Q537.603 212.497 537.603 207.636 L537.603 193.562 L534.478 193.562 L534.478 190.252 L537.603 190.252 L537.603 182.891 L541.885 182.891 Z" fill="#000000" fill-rule="nonzero" fill-opacity="1" /></svg>
