<?xml version="1.0" encoding="utf-8"?>
<svg xmlns="http://www.w3.org/2000/svg" xmlns:xlink="http://www.w3.org/1999/xlink" width="600" height="400" viewBox="0 0 2400 1600">
<defs>
  <clipPath id="clip260">
    <rect x="0" y="0" width="2400" height="1600"/>
  </clipPath>
</defs>
<path clip-path="url(#clip260)" d="M0 1600 L2400 1600 L2400 0 L0 0  Z" fill="#ffffff" fill-rule="evenodd" fill-opacity="1"/>
<defs>
  <clipPath id="clip261">
    <rect x="480" y="0" width="1681" height="1600"/>
  </clipPath>
</defs>
<path clip-path="url(#clip260)" d="M156.274 1486.45 L2352.76 1486.45 L2352.76 47.2441 L156.274 47.2441  Z" fill="#ffffff" fill-rule="evenodd" fill-opacity="1"/>
<defs>
  <clipPath id="clip262">
    <rect x="156" y="47" width="2197" height="1440"/>
  </clipPath>
</defs>
<polyline clip-path="url(#clip262)" style="stroke:#000000; stroke-linecap:round; stroke-linejoin:round; stroke-width:2; stroke-opacity:0.1; fill:none" points="218.439,1486.45 218.439,47.2441 "/>
<polyline clip-path="url(#clip262)" style="stroke:#000000; stroke-linecap:round; stroke-linejoin:round; stroke-width:2; stroke-opacity:0.1; fill:none" points="736.477,1486.45 736.477,47.2441 "/>
<polyline clip-path="url(#clip262)" style="stroke:#000000; stroke-linecap:round; stroke-linejoin:round; stroke-width:2; stroke-opacity:0.1; fill:none" points="1254.52,1486.45 1254.52,47.2441 "/>
<polyline clip-path="url(#clip262)" style="stroke:#000000; stroke-linecap:round; stroke-linejoin:round; stroke-width:2; stroke-opacity:0.1; fill:none" points="1772.55,1486.45 1772.55,47.2441 "/>
<polyline clip-path="url(#clip262)" style="stroke:#000000; stroke-linecap:round; stroke-linejoin:round; stroke-width:2; stroke-opacity:0.1; fill:none" points="2290.59,1486.45 2290.59,47.2441 "/>
<polyline clip-path="url(#clip260)" style="stroke:#000000; stroke-linecap:round; stroke-linejoin:round; stroke-width:4; stroke-opacity:1; fill:none" points="156.274,1486.45 2352.76,1486.45 "/>
<polyline clip-path="url(#clip260)" style="stroke:#000000; stroke-linecap:round; stroke-linejoin:round; stroke-width:4; stroke-opacity:1; fill:none" points="218.439,1486.45 218.439,1467.55 "/>
<polyline clip-path="url(#clip260)" style="stroke:#000000; stroke-linecap:round; stroke-linejoin:round; stroke-width:4; stroke-opacity:1; fill:none" points="736.477,1486.45 736.477,1467.55 "/>
<polyline clip-path="url(#clip260)" style="stroke:#000000; stroke-linecap:round; stroke-linejoin:round; stroke-width:4; stroke-opacity:1; fill:none" points="1254.52,1486.45 1254.52,1467.55 "/>
<polyline clip-path="url(#clip260)" style="stroke:#000000; stroke-linecap:round; stroke-linejoin:round; stroke-width:4; stroke-opacity:1; fill:none" points="1772.55,1486.45 1772.55,1467.55 "/>
<polyline clip-path="url(#clip260)" style="stroke:#000000; stroke-linecap:round; stroke-linejoin:round; stroke-width:4; stroke-opacity:1; fill:none" points="2290.59,1486.45 2290.59,1467.55 "/>
<path clip-path="url(#clip260)" d="M164.967 1532.02 L194.643 1532.02 L194.643 1535.95 L164.967 1535.95 L164.967 1532.02 Z" fill="#000000" fill-rule="nonzero" fill-opacity="1" /><path clip-path="url(#clip260)" d="M205.545 1544.91 L213.184 1544.91 L213.184 1518.55 L204.874 1520.21 L204.874 1515.95 L213.138 1514.29 L217.814 1514.29 L217.814 1544.91 L225.453 1544.91 L225.453 1548.85 L205.545 1548.85 L205.545 1544.91 Z" fill="#000000" fill-rule="nonzero" fill-opacity="1" /><path clip-path="url(#clip260)" d="M234.897 1542.97 L239.781 1542.97 L239.781 1548.85 L234.897 1548.85 L234.897 1542.97 Z" fill="#000000" fill-rule="nonzero" fill-opacity="1" /><path clip-path="url(#clip260)" d="M259.966 1517.37 Q256.355 1517.37 254.527 1520.93 Q252.721 1524.47 252.721 1531.6 Q252.721 1538.71 254.527 1542.27 Q256.355 1545.82 259.966 1545.82 Q263.601 1545.82 265.406 1542.27 Q267.235 1538.71 267.235 1531.6 Q267.235 1524.47 265.406 1520.93 Q263.601 1517.37 259.966 1517.37 M259.966 1513.66 Q265.776 1513.66 268.832 1518.27 Q271.911 1522.85 271.911 1531.6 Q271.911 1540.33 268.832 1544.94 Q265.776 1549.52 259.966 1549.52 Q254.156 1549.52 251.077 1544.94 Q248.022 1540.33 248.022 1531.6 Q248.022 1522.85 251.077 1518.27 Q254.156 1513.66 259.966 1513.66 Z" fill="#000000" fill-rule="nonzero" fill-opacity="1" /><path clip-path="url(#clip260)" d="M683.503 1532.02 L713.178 1532.02 L713.178 1535.95 L683.503 1535.95 L683.503 1532.02 Z" fill="#000000" fill-rule="nonzero" fill-opacity="1" /><path clip-path="url(#clip260)" d="M733.271 1517.37 Q729.66 1517.37 727.831 1520.93 Q726.026 1524.47 726.026 1531.6 Q726.026 1538.71 727.831 1542.27 Q729.66 1545.82 733.271 1545.82 Q736.905 1545.82 738.711 1542.27 Q740.539 1538.71 740.539 1531.6 Q740.539 1524.47 738.711 1520.93 Q736.905 1517.37 733.271 1517.37 M733.271 1513.66 Q739.081 1513.66 742.137 1518.27 Q745.215 1522.85 745.215 1531.6 Q745.215 1540.33 742.137 1544.94 Q739.081 1549.52 733.271 1549.52 Q727.461 1549.52 724.382 1544.94 Q721.327 1540.33 721.327 1531.6 Q721.327 1522.85 724.382 1518.27 Q727.461 1513.66 733.271 1513.66 Z" fill="#000000" fill-rule="nonzero" fill-opacity="1" /><path clip-path="url(#clip260)" d="M753.433 1542.97 L758.317 1542.97 L758.317 1548.85 L753.433 1548.85 L753.433 1542.97 Z" fill="#000000" fill-rule="nonzero" fill-opacity="1" /><path clip-path="url(#clip260)" d="M768.548 1514.29 L786.905 1514.29 L786.905 1518.22 L772.831 1518.22 L772.831 1526.7 Q773.849 1526.35 774.868 1526.19 Q775.886 1526 776.905 1526 Q782.692 1526 786.072 1529.17 Q789.451 1532.34 789.451 1537.76 Q789.451 1543.34 785.979 1546.44 Q782.507 1549.52 776.187 1549.52 Q774.011 1549.52 771.743 1549.15 Q769.498 1548.78 767.09 1548.04 L767.09 1543.34 Q769.173 1544.47 771.396 1545.03 Q773.618 1545.58 776.095 1545.58 Q780.099 1545.58 782.437 1543.48 Q784.775 1541.37 784.775 1537.76 Q784.775 1534.15 782.437 1532.04 Q780.099 1529.94 776.095 1529.94 Q774.22 1529.94 772.345 1530.35 Q770.493 1530.77 768.548 1531.65 L768.548 1514.29 Z" fill="#000000" fill-rule="nonzero" fill-opacity="1" /><path clip-path="url(#clip260)" d="M1231.9 1517.37 Q1228.29 1517.37 1226.46 1520.93 Q1224.65 1524.47 1224.65 1531.6 Q1224.65 1538.71 1226.46 1542.27 Q1228.29 1545.82 1231.9 1545.82 Q1235.53 1545.82 1237.34 1542.27 Q1239.17 1538.71 1239.17 1531.6 Q1239.17 1524.47 1237.34 1520.93 Q1235.53 1517.37 1231.9 1517.37 M1231.9 1513.66 Q1237.71 1513.66 1240.77 1518.27 Q1243.84 1522.85 1243.84 1531.6 Q1243.84 1540.33 1240.77 1544.94 Q1237.71 1549.52 1231.9 1549.52 Q1226.09 1549.52 1223.01 1544.94 Q1219.96 1540.33 1219.96 1531.6 Q1219.96 1522.85 1223.01 1518.27 Q1226.09 1513.66 1231.9 1513.66 Z" fill="#000000" fill-rule="nonzero" fill-opacity="1" /><path clip-path="url(#clip260)" d="M1252.06 1542.97 L1256.95 1542.97 L1256.95 1548.85 L1252.06 1548.85 L1252.06 1542.97 Z" fill="#000000" fill-rule="nonzero" fill-opacity="1" /><path clip-path="url(#clip260)" d="M1277.13 1517.37 Q1273.52 1517.37 1271.69 1520.93 Q1269.89 1524.47 1269.89 1531.6 Q1269.89 1538.71 1271.69 1542.27 Q1273.52 1545.82 1277.13 1545.82 Q1280.76 1545.82 1282.57 1542.27 Q1284.4 1538.71 1284.4 1531.6 Q1284.4 1524.47 1282.57 1520.93 Q1280.76 1517.37 1277.13 1517.37 M1277.13 1513.66 Q1282.94 1513.66 1286 1518.27 Q1289.08 1522.85 1289.08 1531.6 Q1289.08 1540.33 1286 1544.94 Q1282.94 1549.52 1277.13 1549.52 Q1271.32 1549.52 1268.24 1544.94 Q1265.19 1540.33 1265.19 1531.6 Q1265.19 1522.85 1268.24 1518.27 Q1271.32 1513.66 1277.13 1513.66 Z" fill="#000000" fill-rule="nonzero" fill-opacity="1" /><path clip-path="url(#clip260)" d="M1750.44 1517.37 Q1746.82 1517.37 1745 1520.93 Q1743.19 1524.47 1743.19 1531.6 Q1743.19 1538.71 1745 1542.27 Q1746.82 1545.82 1750.44 1545.82 Q1754.07 1545.82 1755.88 1542.27 Q1757.7 1538.71 1757.7 1531.6 Q1757.7 1524.47 1755.88 1520.93 Q1754.07 1517.37 1750.44 1517.37 M1750.44 1513.66 Q1756.25 1513.66 1759.3 1518.27 Q1762.38 1522.85 1762.38 1531.6 Q1762.38 1540.33 1759.3 1544.94 Q1756.25 1549.52 1750.44 1549.52 Q1744.63 1549.52 1741.55 1544.94 Q1738.49 1540.33 1738.49 1531.6 Q1738.49 1522.85 1741.55 1518.27 Q1744.63 1513.66 1750.44 1513.66 Z" fill="#000000" fill-rule="nonzero" fill-opacity="1" /><path clip-path="url(#clip260)" d="M1770.6 1542.97 L1775.48 1542.97 L1775.48 1548.85 L1770.6 1548.85 L1770.6 1542.97 Z" fill="#000000" fill-rule="nonzero" fill-opacity="1" /><path clip-path="url(#clip260)" d="M1785.71 1514.29 L1804.07 1514.29 L1804.07 1518.22 L1790 1518.22 L1790 1526.7 Q1791.01 1526.35 1792.03 1526.19 Q1793.05 1526 1794.07 1526 Q1799.86 1526 1803.24 1529.17 Q1806.62 1532.34 1806.62 1537.76 Q1806.62 1543.34 1803.14 1546.44 Q1799.67 1549.52 1793.35 1549.52 Q1791.18 1549.52 1788.91 1549.15 Q1786.66 1548.78 1784.25 1548.04 L1784.25 1543.34 Q1786.34 1544.47 1788.56 1545.03 Q1790.78 1545.58 1793.26 1545.58 Q1797.26 1545.58 1799.6 1543.48 Q1801.94 1541.37 1801.94 1537.76 Q1801.94 1534.15 1799.6 1532.04 Q1797.26 1529.94 1793.26 1529.94 Q1791.38 1529.94 1789.51 1530.35 Q1787.66 1530.77 1785.71 1531.65 L1785.71 1514.29 Z" fill="#000000" fill-rule="nonzero" fill-opacity="1" /><path clip-path="url(#clip260)" d="M2257.74 1544.91 L2265.38 1544.91 L2265.38 1518.55 L2257.07 1520.21 L2257.07 1515.95 L2265.34 1514.29 L2270.01 1514.29 L2270.01 1544.91 L2277.65 1544.91 L2277.65 1548.85 L2257.74 1548.85 L2257.74 1544.91 Z" fill="#000000" fill-rule="nonzero" fill-opacity="1" /><path clip-path="url(#clip260)" d="M2287.1 1542.97 L2291.98 1542.97 L2291.98 1548.85 L2287.1 1548.85 L2287.1 1542.97 Z" fill="#000000" fill-rule="nonzero" fill-opacity="1" /><path clip-path="url(#clip260)" d="M2312.17 1517.37 Q2308.55 1517.37 2306.73 1520.93 Q2304.92 1524.47 2304.92 1531.6 Q2304.92 1538.71 2306.73 1542.27 Q2308.55 1545.82 2312.17 1545.82 Q2315.8 1545.82 2317.61 1542.27 Q2319.43 1538.71 2319.43 1531.6 Q2319.43 1524.47 2317.61 1520.93 Q2315.8 1517.37 2312.17 1517.37 M2312.17 1513.66 Q2317.98 1513.66 2321.03 1518.27 Q2324.11 1522.85 2324.11 1531.6 Q2324.11 1540.33 2321.03 1544.94 Q2317.98 1549.52 2312.17 1549.52 Q2306.36 1549.52 2303.28 1544.94 Q2300.22 1540.33 2300.22 1531.6 Q2300.22 1522.85 2303.28 1518.27 Q2306.36 1513.66 2312.17 1513.66 Z" fill="#000000" fill-rule="nonzero" fill-opacity="1" /><polyline clip-path="url(#clip262)" style="stroke:#000000; stroke-linecap:round; stroke-linejoin:round; stroke-width:2; stroke-opacity:0.1; fill:none" points="156.274,1261.1 2352.76,1261.1 "/>
<polyline clip-path="url(#clip262)" style="stroke:#000000; stroke-linecap:round; stroke-linejoin:round; stroke-width:2; stroke-opacity:0.1; fill:none" points="156.274,985.784 2352.76,985.784 "/>
<polyline clip-path="url(#clip262)" style="stroke:#000000; stroke-linecap:round; stroke-linejoin:round; stroke-width:2; stroke-opacity:0.1; fill:none" points="156.274,710.471 2352.76,710.471 "/>
<polyline clip-path="url(#clip262)" style="stroke:#000000; stroke-linecap:round; stroke-linejoin:round; stroke-width:2; stroke-opacity:0.1; fill:none" points="156.274,435.159 2352.76,435.159 "/>
<polyline clip-path="url(#clip262)" style="stroke:#000000; stroke-linecap:round; stroke-linejoin:round; stroke-width:2; stroke-opacity:0.1; fill:none" points="156.274,159.846 2352.76,159.846 "/>
<polyline clip-path="url(#clip260)" style="stroke:#000000; stroke-linecap:round; stroke-linejoin:round; stroke-width:4; stroke-opacity:1; fill:none" points="156.274,1486.45 156.274,47.2441 "/>
<polyline clip-path="url(#clip260)" style="stroke:#000000; stroke-linecap:round; stroke-linejoin:round; stroke-width:4; stroke-opacity:1; fill:none" points="156.274,1261.1 175.172,1261.1 "/>
<polyline clip-path="url(#clip260)" style="stroke:#000000; stroke-linecap:round; stroke-linejoin:round; stroke-width:4; stroke-opacity:1; fill:none" points="156.274,985.784 175.172,985.784 "/>
<polyline clip-path="url(#clip260)" style="stroke:#000000; stroke-linecap:round; stroke-linejoin:round; stroke-width:4; stroke-opacity:1; fill:none" points="156.274,710.471 175.172,710.471 "/>
<polyline clip-path="url(#clip260)" style="stroke:#000000; stroke-linecap:round; stroke-linejoin:round; stroke-width:4; stroke-opacity:1; fill:none" points="156.274,435.159 175.172,435.159 "/>
<polyline clip-path="url(#clip260)" style="stroke:#000000; stroke-linecap:round; stroke-linejoin:round; stroke-width:4; stroke-opacity:1; fill:none" points="156.274,159.846 175.172,159.846 "/>
<path clip-path="url(#clip260)" d="M63.0985 1246.89 Q59.4875 1246.89 57.6588 1250.46 Q55.8532 1254 55.8532 1261.13 Q55.8532 1268.24 57.6588 1271.8 Q59.4875 1275.34 63.0985 1275.34 Q66.7328 1275.34 68.5383 1271.8 Q70.367 1268.24 70.367 1261.13 Q70.367 1254 68.5383 1250.46 Q66.7328 1246.89 63.0985 1246.89 M63.0985 1243.19 Q68.9087 1243.19 71.9642 1247.8 Q75.0429 1252.38 75.0429 1261.13 Q75.0429 1269.86 71.9642 1274.46 Q68.9087 1279.05 63.0985 1279.05 Q57.2884 1279.05 54.2097 1274.46 Q51.1542 1269.86 51.1542 1261.13 Q51.1542 1252.38 54.2097 1247.8 Q57.2884 1243.19 63.0985 1243.19 Z" fill="#000000" fill-rule="nonzero" fill-opacity="1" /><path clip-path="url(#clip260)" d="M83.2605 1272.5 L88.1447 1272.5 L88.1447 1278.38 L83.2605 1278.38 L83.2605 1272.5 Z" fill="#000000" fill-rule="nonzero" fill-opacity="1" /><path clip-path="url(#clip260)" d="M108.33 1246.89 Q104.719 1246.89 102.89 1250.46 Q101.084 1254 101.084 1261.13 Q101.084 1268.24 102.89 1271.8 Q104.719 1275.34 108.33 1275.34 Q111.964 1275.34 113.77 1271.8 Q115.598 1268.24 115.598 1261.13 Q115.598 1254 113.77 1250.46 Q111.964 1246.89 108.33 1246.89 M108.33 1243.19 Q114.14 1243.19 117.195 1247.8 Q120.274 1252.38 120.274 1261.13 Q120.274 1269.86 117.195 1274.46 Q114.14 1279.05 108.33 1279.05 Q102.52 1279.05 99.4409 1274.46 Q96.3854 1269.86 96.3854 1261.13 Q96.3854 1252.38 99.4409 1247.8 Q102.52 1243.19 108.33 1243.19 Z" fill="#000000" fill-rule="nonzero" fill-opacity="1" /><path clip-path="url(#clip260)" d="M63.7467 971.582 Q60.1356 971.582 58.3069 975.147 Q56.5014 978.689 56.5014 985.818 Q56.5014 992.925 58.3069 996.49 Q60.1356 1000.03 63.7467 1000.03 Q67.3809 1000.03 69.1865 996.49 Q71.0152 992.925 71.0152 985.818 Q71.0152 978.689 69.1865 975.147 Q67.3809 971.582 63.7467 971.582 M63.7467 967.879 Q69.5568 967.879 72.6124 972.485 Q75.6911 977.068 75.6911 985.818 Q75.6911 994.545 72.6124 999.152 Q69.5568 1003.73 63.7467 1003.73 Q57.9365 1003.73 54.8578 999.152 Q51.8023 994.545 51.8023 985.818 Q51.8023 977.068 54.8578 972.485 Q57.9365 967.879 63.7467 967.879 Z" fill="#000000" fill-rule="nonzero" fill-opacity="1" /><path clip-path="url(#clip260)" d="M83.9086 997.184 L88.7928 997.184 L88.7928 1003.06 L83.9086 1003.06 L83.9086 997.184 Z" fill="#000000" fill-rule="nonzero" fill-opacity="1" /><path clip-path="url(#clip260)" d="M113.145 984.429 Q116.501 985.147 118.376 987.415 Q120.274 989.684 120.274 993.017 Q120.274 998.133 116.756 1000.93 Q113.237 1003.73 106.756 1003.73 Q104.58 1003.73 102.265 1003.3 Q99.9733 1002.88 97.5197 1002.02 L97.5197 997.508 Q99.4641 998.642 101.779 999.221 Q104.094 999.8 106.617 999.8 Q111.015 999.8 113.307 998.064 Q115.621 996.327 115.621 993.017 Q115.621 989.962 113.469 988.249 Q111.339 986.513 107.52 986.513 L103.492 986.513 L103.492 982.67 L107.705 982.67 Q111.154 982.67 112.983 981.304 Q114.811 979.916 114.811 977.323 Q114.811 974.661 112.913 973.249 Q111.038 971.814 107.52 971.814 Q105.598 971.814 103.399 972.23 Q101.2 972.647 98.5613 973.527 L98.5613 969.36 Q101.223 968.619 103.538 968.249 Q105.876 967.879 107.936 967.879 Q113.26 967.879 116.362 970.309 Q119.464 972.716 119.464 976.837 Q119.464 979.707 117.82 981.698 Q116.177 983.666 113.145 984.429 Z" fill="#000000" fill-rule="nonzero" fill-opacity="1" /><path clip-path="url(#clip260)" d="M62.9365 696.27 Q59.3254 696.27 57.4967 699.835 Q55.6912 703.376 55.6912 710.506 Q55.6912 717.612 57.4967 721.177 Q59.3254 724.719 62.9365 724.719 Q66.5707 724.719 68.3763 721.177 Q70.205 717.612 70.205 710.506 Q70.205 703.376 68.3763 699.835 Q66.5707 696.27 62.9365 696.27 M62.9365 692.566 Q68.7467 692.566 71.8022 697.173 Q74.8809 701.756 74.8809 710.506 Q74.8809 719.233 71.8022 723.839 Q68.7467 728.422 62.9365 728.422 Q57.1264 728.422 54.0477 723.839 Q50.9921 719.233 50.9921 710.506 Q50.9921 701.756 54.0477 697.173 Q57.1264 692.566 62.9365 692.566 Z" fill="#000000" fill-rule="nonzero" fill-opacity="1" /><path clip-path="url(#clip260)" d="M83.0984 721.872 L87.9827 721.872 L87.9827 727.751 L83.0984 727.751 L83.0984 721.872 Z" fill="#000000" fill-rule="nonzero" fill-opacity="1" /><path clip-path="url(#clip260)" d="M108.746 708.608 Q105.598 708.608 103.746 710.761 Q101.918 712.913 101.918 716.663 Q101.918 720.39 103.746 722.566 Q105.598 724.719 108.746 724.719 Q111.895 724.719 113.723 722.566 Q115.575 720.39 115.575 716.663 Q115.575 712.913 113.723 710.761 Q111.895 708.608 108.746 708.608 M118.029 693.955 L118.029 698.214 Q116.27 697.381 114.464 696.941 Q112.682 696.501 110.922 696.501 Q106.293 696.501 103.839 699.626 Q101.409 702.751 101.061 709.071 Q102.427 707.057 104.487 705.992 Q106.547 704.904 109.024 704.904 Q114.233 704.904 117.242 708.075 Q120.274 711.224 120.274 716.663 Q120.274 721.987 117.126 725.205 Q113.978 728.422 108.746 728.422 Q102.751 728.422 99.5798 723.839 Q96.4085 719.233 96.4085 710.506 Q96.4085 702.312 100.297 697.45 Q104.186 692.566 110.737 692.566 Q112.496 692.566 114.279 692.913 Q116.084 693.261 118.029 693.955 Z" fill="#000000" fill-rule="nonzero" fill-opacity="1" /><path clip-path="url(#clip260)" d="M63.2837 420.958 Q59.6726 420.958 57.8439 424.522 Q56.0384 428.064 56.0384 435.194 Q56.0384 442.3 57.8439 445.865 Q59.6726 449.406 63.2837 449.406 Q66.918 449.406 68.7235 445.865 Q70.5522 442.3 70.5522 435.194 Q70.5522 428.064 68.7235 424.522 Q66.918 420.958 63.2837 420.958 M63.2837 417.254 Q69.0939 417.254 72.1494 421.86 Q75.2281 426.444 75.2281 435.194 Q75.2281 443.92 72.1494 448.527 Q69.0939 453.11 63.2837 453.11 Q57.4736 453.11 54.3949 448.527 Q51.3393 443.92 51.3393 435.194 Q51.3393 426.444 54.3949 421.86 Q57.4736 417.254 63.2837 417.254 Z" fill="#000000" fill-rule="nonzero" fill-opacity="1" /><path clip-path="url(#clip260)" d="M83.4457 446.559 L88.3299 446.559 L88.3299 452.439 L83.4457 452.439 L83.4457 446.559 Z" fill="#000000" fill-rule="nonzero" fill-opacity="1" /><path clip-path="url(#clip260)" d="M98.6539 451.721 L98.6539 447.462 Q100.413 448.295 102.219 448.735 Q104.024 449.175 105.76 449.175 Q110.39 449.175 112.82 446.073 Q115.274 442.948 115.621 436.606 Q114.279 438.596 112.219 439.661 Q110.158 440.726 107.658 440.726 Q102.473 440.726 99.4409 437.601 Q96.4317 434.453 96.4317 429.013 Q96.4317 423.689 99.5798 420.471 Q102.728 417.254 107.959 417.254 Q113.955 417.254 117.103 421.86 Q120.274 426.444 120.274 435.194 Q120.274 443.365 116.385 448.249 Q112.52 453.11 105.969 453.11 Q104.209 453.11 102.404 452.763 Q100.598 452.416 98.6539 451.721 M107.959 437.069 Q111.108 437.069 112.936 434.916 Q114.788 432.763 114.788 429.013 Q114.788 425.286 112.936 423.133 Q111.108 420.958 107.959 420.958 Q104.811 420.958 102.959 423.133 Q101.131 425.286 101.131 429.013 Q101.131 432.763 102.959 434.916 Q104.811 437.069 107.959 437.069 Z" fill="#000000" fill-rule="nonzero" fill-opacity="1" /><path clip-path="url(#clip260)" d="M55.506 173.191 L63.1448 173.191 L63.1448 146.826 L54.8347 148.492 L54.8347 144.233 L63.0985 142.566 L67.7744 142.566 L67.7744 173.191 L75.4133 173.191 L75.4133 177.126 L55.506 177.126 L55.506 173.191 Z" fill="#000000" fill-rule="nonzero" fill-opacity="1" /><path clip-path="url(#clip260)" d="M84.8577 171.247 L89.7419 171.247 L89.7419 177.126 L84.8577 177.126 L84.8577 171.247 Z" fill="#000000" fill-rule="nonzero" fill-opacity="1" /><path clip-path="url(#clip260)" d="M103.955 173.191 L120.274 173.191 L120.274 177.126 L98.3298 177.126 L98.3298 173.191 Q100.992 170.437 105.575 165.807 Q110.182 161.154 111.362 159.812 Q113.608 157.289 114.487 155.553 Q115.39 153.793 115.39 152.103 Q115.39 149.349 113.445 147.613 Q111.524 145.877 108.422 145.877 Q106.223 145.877 103.77 146.641 Q101.339 147.404 98.5613 148.955 L98.5613 144.233 Q101.385 143.099 103.839 142.52 Q106.293 141.942 108.33 141.942 Q113.7 141.942 116.895 144.627 Q120.089 147.312 120.089 151.803 Q120.089 153.932 119.279 155.853 Q118.492 157.752 116.385 160.344 Q115.807 161.015 112.705 164.233 Q109.603 167.427 103.955 173.191 Z" fill="#000000" fill-rule="nonzero" fill-opacity="1" /><polyline clip-path="url(#clip262)" style="stroke:#009af9; stroke-linecap:round; stroke-linejoin:round; stroke-width:16; stroke-opacity:1; fill:none" stroke-dasharray="8, 16" points="218.439,1101.13 228.852,1101.09 239.264,1101.04 249.677,1101 260.09,1100.95 270.503,1101.08 280.916,1101.84 291.329,1103.04 301.741,1123.9 312.154,1149.91 322.567,1180.01 332.98,1210.49 343.393,1240.97 353.805,1271.44 364.218,1301.92 374.631,1332.4 385.044,1362.87 395.457,1393.35 405.87,1415.33 416.282,1428.11 426.695,1438.94 437.108,1445.72 447.521,1441.88 457.934,1432.13 468.347,1419 478.759,1396.94 489.172,1370.26 499.585,1343.59 509.998,1316.91 520.411,1290.24 530.824,1263.57 541.236,1236.89 551.649,1210.22 562.062,1183.54 572.475,1156.87 582.888,1130.2 593.301,1103.52 603.713,1076.85 614.126,1060.39 624.539,1066.74 634.952,1079.93 645.365,1093.12 655.777,1109.23 666.19,1137.13 676.603,1165.03 687.016,1192.92 697.429,1220.82 707.842,1248.72 718.254,1276.62 728.667,1304.52 739.08,1332.41 749.493,1360.31 759.906,1388.21 770.319,1415.88 780.731,1438.18 791.144,1442.89 801.557,1442.93 811.97,1442.98 822.383,1437.6 832.796,1423.09 843.208,1404.93 853.621,1375.89 864.034,1346.48 874.447,1315.22 884.86,1283.96 895.273,1252.69 905.685,1221.43 916.098,1190.17 926.511,1159.15 936.924,1134.7 947.337,1121.16 957.749,1108.94 968.162,1100.9 978.575,1079.82 988.988,1080.32 999.401,1094 1009.81,1105.2 1020.23,1115.88 1030.64,1126.28 1041.05,1153.73 1051.46,1186.2 1061.88,1223.23 1072.29,1259.4 1082.7,1290.53 1093.12,1322.72 1103.53,1352.9 1113.94,1379.48 1124.35,1404.87 1134.77,1423.71 1145.18,1435.09 1155.59,1438.08 1166.01,1437.12 1176.42,1430.97 1186.83,1426.51 1197.24,1420 1207.66,1402.51 1218.07,1384.94 1228.48,1361.18 1238.9,1266.84 1249.31,1078.29 1259.72,793.65 1270.13,490.831 1280.55,317.62 1290.96,311.455 1301.37,291.496 1311.79,325.513 1322.2,391.799 1332.61,412.052 1343.02,410.217 1353.44,371.667 1363.85,311.934 1374.26,281.214 1384.68,287.019 1395.09,322.988 1405.5,341.982 1415.91,355.058 1426.33,368.135 1436.74,380.858 1447.15,376.333 1457.57,363.325 1467.98,350.317 1478.39,337.31 1488.8,327.423 1499.22,328.357 1509.63,329.29 1520.04,330.223 1530.45,331.157 1540.87,332.091 1551.28,333.024 1561.69,333.935 1572.11,333.718 1582.52,332.724 1592.93,331.73 1603.34,330.736 1613.76,329.742 1624.17,330.304 1634.58,331.035 1645,331.766 1655.41,332.496 1665.82,333.227 1676.23,333.958 1686.65,334.689 1697.06,335.42 1707.47,336.151 1717.89,336.882 1728.3,337.613 1738.71,338.344 1749.12,339.075 1759.54,339.806 1769.95,340.536 1780.36,341.268 1790.78,341.998 1801.19,342.729 1811.6,343.46 1822.01,344.191 1832.43,344.922 1842.84,345.653 1853.25,346.384 1863.67,347.115 1874.08,347.846 1884.49,348.576 1894.9,349.308 1905.32,350.038 1915.73,350.769 1926.14,351.5 1936.56,352.231 1946.97,352.962 1957.38,353.693 1967.79,354.424 1978.21,355.155 1988.62,355.885 1999.03,356.616 2009.45,357.347 2019.86,358.078 2030.27,358.809 2040.68,359.54 2051.1,360.271 2061.51,361.002 2071.92,361.732 2082.33,362.464 2092.75,363.195 2103.16,363.925 2113.57,364.656 2123.99,365.387 2134.4,366.118 2144.81,366.848 2155.22,367.58 2165.64,368.311 2176.05,369.042 2186.46,369.772 2196.88,370.503 2207.29,371.235 2217.7,371.965 2228.11,372.696 2238.53,373.427 2248.94,374.158 2259.35,374.889 2269.77,375.62 2280.18,376.351 2290.59,377.082 "/>
<polyline clip-path="url(#clip262)" style="stroke:#e26f46; stroke-linecap:round; stroke-linejoin:round; stroke-width:4; stroke-opacity:1; fill:none" points="218.439,1123.26 228.852,1103.7 239.264,1089.28 249.677,1080.47 260.09,1077.55 270.503,1080.63 280.916,1089.59 291.329,1104.15 301.741,1123.84 312.154,1148 322.567,1175.85 332.98,1206.49 343.393,1238.91 353.805,1272.05 364.218,1304.84 374.631,1336.19 385.044,1365.1 395.457,1390.61 405.87,1411.9 416.282,1428.26 426.695,1439.17 437.108,1444.26 447.521,1443.38 457.934,1436.55 468.347,1423.99 478.759,1406.12 489.172,1383.51 499.585,1356.91 509.998,1327.18 520.411,1295.29 530.824,1262.29 541.236,1229.25 551.649,1197.24 562.062,1167.33 572.475,1140.47 582.888,1117.55 593.301,1099.31 603.713,1086.36 614.126,1079.1 624.539,1077.79 634.952,1082.46 645.365,1092.96 655.777,1108.95 666.19,1129.9 676.603,1155.14 687.016,1183.83 697.429,1215.04 707.842,1247.76 718.254,1280.92 728.667,1313.42 739.08,1344.22 749.493,1372.31 759.906,1396.76 770.319,1416.79 780.731,1431.74 791.144,1441.11 801.557,1444.62 811.97,1442.13 822.383,1433.73 832.796,1419.7 843.208,1400.5 853.621,1376.74 864.034,1349.21 874.447,1318.8 884.86,1286.51 895.273,1253.39 905.685,1220.53 916.098,1188.98 926.511,1159.79 936.924,1133.91 947.337,1112.17 957.749,1095.3 968.162,1083.84 978.575,1078.16 988.988,1078.46 999.401,1084.71 1009.81,1096.73 1020.23,1114.1 1030.64,1136.28 1041.05,1162.52 1051.46,1191.99 1061.88,1223.71 1072.29,1256.65 1082.7,1289.73 1093.12,1321.88 1103.53,1352.05 1113.94,1379.25 1124.35,1402.59 1134.77,1421.32 1145.18,1434.81 1155.59,1442.64 1166.01,1444.54 1176.42,1440.45 1186.83,1430.51 1197.24,1415.04 1207.66,1394.55 1218.07,1369.7 1228.48,1341.3 1238.9,1310.29 1249.31,1277.68 1259.72,342.055 1270.13,340.539 1280.55,341.919 1290.96,346.514 1301.37,352.916 1311.79,358.42 1322.2,360.05 1332.61,355.815 1343.02,345.72 1353.44,332.111 1363.85,319.161 1374.26,311.596 1384.68,313.047 1395.09,324.59 1405.5,344.005 1415.91,366.1 1426.33,384.092 1436.74,391.682 1447.15,385.185 1457.57,365.027 1467.98,336.032 1478.39,306.317 1488.8,285.02 1499.22,279.503 1509.63,292.877 1520.04,322.674 1530.45,361.155 1540.87,397.303 1551.28,419.974 1561.69,421.317 1572.11,399.414 1582.52,359.273 1592.93,311.757 1603.34,270.656 1613.76,248.684 1624.17,253.569 1634.58,285.424 1645,336.276 1655.41,392.024 1665.82,436.338 1676.23,455.443 1686.65,442.378 1697.06,399.417 1707.47,337.842 1717.89,275.006 1728.3,229.444 1738.71,215.412 1749.12,238.453 1759.54,293.371 1769.95,365.315 1780.36,433.779 1790.78,478.446 1801.19,485.211 1811.6,450.601 1822.01,383.21 1832.43,301.618 1842.84,229.279 1853.25,187.78 1863.67,190.403 1874.08,237.925 1884.49,317.95 1894.9,408.109 1905.32,482.313 1915.73,518.294 1926.14,504.283 1936.56,442.797 1946.97,350.354 1957.38,253.052 1967.79,179.21 1978.21,151.121 1988.62,178.341 1999.03,254.516 2009.45,358.784 2019.86,461.478 2030.27,532.561 2040.68,550.416 2051.1,508.392 2061.51,417.16 2071.92,302.044 2082.33,196.003 2092.75,130.196 2103.16,124.828 2113.57,182.973 2123.99,289.252 2134.4,413.867 2144.81,520.953 2155.22,578.899 2165.64,569.673 2176.05,494.401 2186.46,373.482 2196.88,241.077 2207.29,135.466 2217.7,87.9763 2228.11,113.703 2238.53,206.752 2248.94,341.504 2259.35,479.654 2269.77,581.104 2280.18,615.59 2290.59,571.707 "/>
<path clip-path="url(#clip260)" d="M229.49 250.738 L675.966 250.738 L675.966 95.2176 L229.49 95.2176  Z" fill="#ffffff" fill-rule="evenodd" fill-opacity="1"/>
<polyline clip-path="url(#clip260)" style="stroke:#000000; stroke-linecap:round; stroke-linejoin:round; stroke-width:4; stroke-opacity:1; fill:none" points="229.49,250.738 675.966,250.738 675.966,95.2176 229.49,95.2176 229.49,250.738 "/>
<polyline clip-path="url(#clip260)" style="stroke:#009af9; stroke-linecap:round; stroke-linejoin:round; stroke-width:16; stroke-opacity:1; fill:none" stroke-dasharray="8, 16" points="253.896,147.058 400.328,147.058 "/>
<path clip-path="url(#clip260)" d="M429.409 133.62 L429.409 146.606 L435.289 146.606 Q438.552 146.606 440.335 144.916 Q442.117 143.227 442.117 140.102 Q442.117 137 440.335 135.31 Q438.552 133.62 435.289 133.62 L429.409 133.62 M424.733 129.778 L435.289 129.778 Q441.099 129.778 444.062 132.416 Q447.048 135.032 447.048 140.102 Q447.048 145.217 444.062 147.833 Q441.099 150.449 435.289 150.449 L429.409 150.449 L429.409 164.338 L424.733 164.338 L424.733 129.778 Z" fill="#000000" fill-rule="nonzero" fill-opacity="1" /><path clip-path="url(#clip260)" d="M467.325 142.393 Q466.608 141.977 465.751 141.791 Q464.918 141.583 463.899 141.583 Q460.288 141.583 458.344 143.944 Q456.423 146.282 456.423 150.68 L456.423 164.338 L452.14 164.338 L452.14 138.412 L456.423 138.412 L456.423 142.44 Q457.765 140.078 459.918 138.944 Q462.071 137.787 465.149 137.787 Q465.589 137.787 466.122 137.856 Q466.654 137.903 467.302 138.018 L467.325 142.393 Z" fill="#000000" fill-rule="nonzero" fill-opacity="1" /><path clip-path="url(#clip260)" d="M492.927 150.31 L492.927 152.393 L473.344 152.393 Q473.622 156.791 475.983 159.106 Q478.367 161.398 482.603 161.398 Q485.057 161.398 487.348 160.796 Q489.663 160.194 491.932 158.99 L491.932 163.018 Q489.64 163.99 487.233 164.5 Q484.825 165.009 482.348 165.009 Q476.145 165.009 472.511 161.398 Q468.899 157.787 468.899 151.629 Q468.899 145.264 472.325 141.537 Q475.774 137.787 481.608 137.787 Q486.839 137.787 489.872 141.166 Q492.927 144.523 492.927 150.31 M488.668 149.06 Q488.622 145.565 486.7 143.481 Q484.802 141.398 481.654 141.398 Q478.089 141.398 475.936 143.412 Q473.807 145.426 473.483 149.083 L488.668 149.06 Z" fill="#000000" fill-rule="nonzero" fill-opacity="1" /><path clip-path="url(#clip260)" d="M516.978 142.347 L516.978 128.319 L521.237 128.319 L521.237 164.338 L516.978 164.338 L516.978 160.449 Q515.635 162.763 513.575 163.898 Q511.538 165.009 508.668 165.009 Q503.969 165.009 501.006 161.259 Q498.066 157.509 498.066 151.398 Q498.066 145.287 501.006 141.537 Q503.969 137.787 508.668 137.787 Q511.538 137.787 513.575 138.921 Q515.635 140.032 516.978 142.347 M502.464 151.398 Q502.464 156.097 504.385 158.782 Q506.33 161.444 509.709 161.444 Q513.089 161.444 515.033 158.782 Q516.978 156.097 516.978 151.398 Q516.978 146.699 515.033 144.037 Q513.089 141.352 509.709 141.352 Q506.33 141.352 504.385 144.037 Q502.464 146.699 502.464 151.398 Z" fill="#000000" fill-rule="nonzero" fill-opacity="1" /><path clip-path="url(#clip260)" d="M530.01 138.412 L534.269 138.412 L534.269 164.338 L530.01 164.338 L530.01 138.412 M530.01 128.319 L534.269 128.319 L534.269 133.713 L530.01 133.713 L530.01 128.319 Z" fill="#000000" fill-rule="nonzero" fill-opacity="1" /><path clip-path="url(#clip260)" d="M561.839 139.407 L561.839 143.389 Q560.033 142.393 558.205 141.907 Q556.399 141.398 554.547 141.398 Q550.404 141.398 548.112 144.037 Q545.82 146.652 545.82 151.398 Q545.82 156.143 548.112 158.782 Q550.404 161.398 554.547 161.398 Q556.399 161.398 558.205 160.912 Q560.033 160.402 561.839 159.407 L561.839 163.342 Q560.056 164.176 558.135 164.592 Q556.237 165.009 554.084 165.009 Q548.228 165.009 544.779 161.328 Q541.33 157.648 541.33 151.398 Q541.33 145.055 544.802 141.421 Q548.297 137.787 554.362 137.787 Q556.33 137.787 558.205 138.203 Q560.08 138.597 561.839 139.407 Z" fill="#000000" fill-rule="nonzero" fill-opacity="1" /><path clip-path="url(#clip260)" d="M573.459 131.051 L573.459 138.412 L582.232 138.412 L582.232 141.722 L573.459 141.722 L573.459 155.796 Q573.459 158.967 574.316 159.87 Q575.195 160.773 577.857 160.773 L582.232 160.773 L582.232 164.338 L577.857 164.338 Q572.927 164.338 571.052 162.509 Q569.177 160.657 569.177 155.796 L569.177 141.722 L566.052 141.722 L566.052 138.412 L569.177 138.412 L569.177 131.051 L573.459 131.051 Z" fill="#000000" fill-rule="nonzero" fill-opacity="1" /><path clip-path="url(#clip260)" d="M587.834 138.412 L592.093 138.412 L592.093 164.338 L587.834 164.338 L587.834 138.412 M587.834 128.319 L592.093 128.319 L592.093 133.713 L587.834 133.713 L587.834 128.319 Z" fill="#000000" fill-rule="nonzero" fill-opacity="1" /><path clip-path="url(#clip260)" d="M611.051 141.398 Q607.626 141.398 605.635 144.083 Q603.644 146.745 603.644 151.398 Q603.644 156.051 605.612 158.736 Q607.602 161.398 611.051 161.398 Q614.454 161.398 616.445 158.713 Q618.436 156.027 618.436 151.398 Q618.436 146.791 616.445 144.106 Q614.454 141.398 611.051 141.398 M611.051 137.787 Q616.607 137.787 619.778 141.398 Q622.95 145.009 622.95 151.398 Q622.95 157.764 619.778 161.398 Q616.607 165.009 611.051 165.009 Q605.473 165.009 602.302 161.398 Q599.153 157.764 599.153 151.398 Q599.153 145.009 602.302 141.398 Q605.473 137.787 611.051 137.787 Z" fill="#000000" fill-rule="nonzero" fill-opacity="1" /><path clip-path="url(#clip260)" d="M651.561 148.689 L651.561 164.338 L647.301 164.338 L647.301 148.828 Q647.301 145.148 645.866 143.319 Q644.431 141.49 641.561 141.49 Q638.112 141.49 636.121 143.69 Q634.13 145.889 634.13 149.685 L634.13 164.338 L629.848 164.338 L629.848 138.412 L634.13 138.412 L634.13 142.44 Q635.658 140.102 637.718 138.944 Q639.801 137.787 642.51 137.787 Q646.977 137.787 649.269 140.565 Q651.561 143.319 651.561 148.689 Z" fill="#000000" fill-rule="nonzero" fill-opacity="1" /><polyline clip-path="url(#clip260)" style="stroke:#e26f46; stroke-linecap:round; stroke-linejoin:round; stroke-width:4; stroke-opacity:1; fill:none" points="253.896,198.898 400.328,198.898 "/>
<path clip-path="url(#clip260)" d="M424.733 181.618 L446.585 181.618 L446.585 185.553 L429.409 185.553 L429.409 195.784 L445.867 195.784 L445.867 199.719 L429.409 199.719 L429.409 212.242 L447.001 212.242 L447.001 216.178 L424.733 216.178 L424.733 181.618 Z" fill="#000000" fill-rule="nonzero" fill-opacity="1" /><path clip-path="url(#clip260)" d="M476.052 190.252 L466.677 202.867 L476.538 216.178 L471.515 216.178 L463.969 205.992 L456.423 216.178 L451.4 216.178 L461.469 202.613 L452.256 190.252 L457.279 190.252 L464.154 199.488 L471.029 190.252 L476.052 190.252 Z" fill="#000000" fill-rule="nonzero" fill-opacity="1" /><path clip-path="url(#clip260)" d="M494.339 203.145 Q489.177 203.145 487.186 204.326 Q485.196 205.506 485.196 208.354 Q485.196 210.622 486.677 211.965 Q488.182 213.284 490.751 213.284 Q494.293 213.284 496.422 210.784 Q498.575 208.261 498.575 204.094 L498.575 203.145 L494.339 203.145 M502.834 201.386 L502.834 216.178 L498.575 216.178 L498.575 212.242 Q497.117 214.603 494.941 215.738 Q492.765 216.849 489.617 216.849 Q485.635 216.849 483.274 214.627 Q480.936 212.381 480.936 208.631 Q480.936 204.256 483.853 202.034 Q486.793 199.812 492.603 199.812 L498.575 199.812 L498.575 199.395 Q498.575 196.455 496.631 194.858 Q494.71 193.238 491.214 193.238 Q488.992 193.238 486.885 193.77 Q484.779 194.303 482.835 195.367 L482.835 191.432 Q485.173 190.53 487.372 190.09 Q489.571 189.627 491.654 189.627 Q497.279 189.627 500.057 192.543 Q502.834 195.46 502.834 201.386 Z" fill="#000000" fill-rule="nonzero" fill-opacity="1" /><path clip-path="url(#clip260)" d="M530.265 191.247 L530.265 195.229 Q528.459 194.233 526.631 193.747 Q524.825 193.238 522.973 193.238 Q518.83 193.238 516.538 195.877 Q514.246 198.492 514.246 203.238 Q514.246 207.983 516.538 210.622 Q518.83 213.238 522.973 213.238 Q524.825 213.238 526.631 212.752 Q528.459 212.242 530.265 211.247 L530.265 215.182 Q528.482 216.016 526.561 216.432 Q524.663 216.849 522.51 216.849 Q516.654 216.849 513.205 213.168 Q509.756 209.488 509.756 203.238 Q509.756 196.895 513.228 193.261 Q516.723 189.627 522.788 189.627 Q524.756 189.627 526.631 190.043 Q528.506 190.437 530.265 191.247 Z" fill="#000000" fill-rule="nonzero" fill-opacity="1" /><path clip-path="url(#clip260)" d="M541.885 182.891 L541.885 190.252 L550.658 190.252 L550.658 193.562 L541.885 193.562 L541.885 207.636 Q541.885 210.807 542.742 211.71 Q543.621 212.613 546.283 212.613 L550.658 212.613 L550.658 216.178 L546.283 216.178 Q541.353 216.178 539.478 214.349 Q537.603 212.497 537.603 207.636 L537.603 193.562 L534.478 193.562 L534.478 190.252 L537.603 190.252 L537.603 182.891 L541.885 182.891 Z" fill="#000000" fill-rule="nonzero" fill-opacity="1" /></svg>
