<?xml version="1.0" encoding="utf-8"?>
<svg xmlns="http://www.w3.org/2000/svg" xmlns:xlink="http://www.w3.org/1999/xlink" width="600" height="400" viewBox="0 0 2400 1600">
<defs>
  <clipPath id="clip820">
    <rect x="0" y="0" width="2400" height="1600"/>
  </clipPath>
</defs>
<path clip-path="url(#clip820)" d="M0 1600 L2400 1600 L2400 0 L0 0  Z" fill="#ffffff" fill-rule="evenodd" fill-opacity="1"/>
<defs>
  <clipPath id="clip821">
    <rect x="480" y="0" width="1681" height="1600"/>
  </clipPath>
</defs>
<path clip-path="url(#clip820)" d="M156.274 1486.45 L2352.76 1486.45 L2352.76 47.2441 L156.274 47.2441  Z" fill="#ffffff" fill-rule="evenodd" fill-opacity="1"/>
<defs>
  <clipPath id="clip822">
    <rect x="156" y="47" width="2197" height="1440"/>
  </clipPath>
</defs>
<polyline clip-path="url(#clip822)" style="stroke:#000000; stroke-linecap:round; stroke-linejoin:round; stroke-width:2; stroke-opacity:0.1; fill:none" points="218.439,1486.45 218.439,47.2441 "/>
<polyline clip-path="url(#clip822)" style="stroke:#000000; stroke-linecap:round; stroke-linejoin:round; stroke-width:2; stroke-opacity:0.1; fill:none" points="736.477,1486.45 736.477,47.2441 "/>
<polyline clip-path="url(#clip822)" style="stroke:#000000; stroke-linecap:round; stroke-linejoin:round; stroke-width:2; stroke-opacity:0.1; fill:none" points="1254.52,1486.45 1254.52,47.2441 "/>
<polyline clip-path="url(#clip822)" style="stroke:#000000; stroke-linecap:round; stroke-linejoin:round; stroke-width:2; stroke-opacity:0.1; fill:none" points="1772.55,1486.45 1772.55,47.2441 "/>
<polyline clip-path="url(#clip822)" style="stroke:#000000; stroke-linecap:round; stroke-linejoin:round; stroke-width:2; stroke-opacity:0.1; fill:none" points="2290.59,1486.45 2290.59,47.2441 "/>
<polyline clip-path="url(#clip820)" style="stroke:#000000; stroke-linecap:round; stroke-linejoin:round; stroke-width:4; stroke-opacity:1; fill:none" points="156.274,1486.45 2352.76,1486.45 "/>
<polyline clip-path="url(#clip820)" style="stroke:#000000; stroke-linecap:round; stroke-linejoin:round; stroke-width:4; stroke-opacity:1; fill:none" points="218.439,1486.45 218.439,1467.55 "/>
<polyline clip-path="url(#clip820)" style="stroke:#000000; stroke-linecap:round; stroke-linejoin:round; stroke-width:4; stroke-opacity:1; fill:none" points="736.477,1486.45 736.477,1467.55 "/>
<polyline clip-path="url(#clip820)" style="stroke:#000000; stroke-linecap:round; stroke-linejoin:round; stroke-width:4; stroke-opacity:1; fill:none" points="1254.52,1486.45 1254.52,1467.55 "/>
<polyline clip-path="url(#clip820)" style="stroke:#000000; stroke-linecap:round; stroke-linejoin:round; stroke-width:4; stroke-opacity:1; fill:none" points="1772.55,1486.45 1772.55,1467.55 "/>
<polyline clip-path="url(#clip820)" style="stroke:#000000; stroke-linecap:round; stroke-linejoin:round; stroke-width:4; stroke-opacity:1; fill:none" points="2290.59,1486.45 2290.59,1467.55 "/>
<path clip-path="url(#clip820)" d="M164.967 1532.02 L194.643 1532.02 L194.643 1535.95 L164.967 1535.95 L164.967 1532.02 Z" fill="#000000" fill-rule="nonzero" fill-opacity="1" /><path clip-path="url(#clip820)" d="M205.545 1544.91 L213.184 1544.91 L213.184 1518.55 L204.874 1520.21 L204.874 1515.95 L213.138 1514.29 L217.814 1514.29 L217.814 1544.91 L225.453 1544.91 L225.453 1548.85 L205.545 1548.85 L205.545 1544.91 Z" fill="#000000" fill-rule="nonzero" fill-opacity="1" /><path clip-path="url(#clip820)" d="M234.897 1542.97 L239.781 1542.97 L239.781 1548.85 L234.897 1548.85 L234.897 1542.97 Z" fill="#000000" fill-rule="nonzero" fill-opacity="1" /><path clip-path="url(#clip820)" d="M259.966 1517.37 Q256.355 1517.37 254.527 1520.93 Q252.721 1524.47 252.721 1531.6 Q252.721 1538.71 254.527 1542.27 Q256.355 1545.82 259.966 1545.82 Q263.601 1545.82 265.406 1542.27 Q267.235 1538.71 267.235 1531.6 Q267.235 1524.47 265.406 1520.93 Q263.601 1517.37 259.966 1517.37 M259.966 1513.66 Q265.776 1513.66 268.832 1518.27 Q271.911 1522.85 271.911 1531.6 Q271.911 1540.33 268.832 1544.94 Q265.776 1549.52 259.966 1549.52 Q254.156 1549.52 251.077 1544.94 Q248.022 1540.33 248.022 1531.6 Q248.022 1522.85 251.077 1518.27 Q254.156 1513.66 259.966 1513.66 Z" fill="#000000" fill-rule="nonzero" fill-opacity="1" /><path clip-path="url(#clip820)" d="M683.503 1532.02 L713.178 1532.02 L713.178 1535.95 L683.503 1535.95 L683.503 1532.02 Z" fill="#000000" fill-rule="nonzero" fill-opacity="1" /><path clip-path="url(#clip820)" d="M733.271 1517.37 Q729.66 1517.37 727.831 1520.93 Q726.026 1524.47 726.026 1531.6 Q726.026 1538.71 727.831 1542.27 Q729.66 1545.82 733.271 1545.82 Q736.905 1545.82 738.711 1542.27 Q740.539 1538.71 740.539 1531.6 Q740.539 1524.47 738.711 1520.93 Q736.905 1517.37 733.271 1517.37 M733.271 1513.66 Q739.081 1513.66 742.137 1518.27 Q745.215 1522.85 745.215 1531.6 Q745.215 1540.33 742.137 1544.94 Q739.081 1549.52 733.271 1549.52 Q727.461 1549.52 724.382 1544.94 Q721.327 1540.33 721.327 1531.6 Q721.327 1522.85 724.382 1518.27 Q727.461 1513.66 733.271 1513.66 Z" fill="#000000" fill-rule="nonzero" fill-opacity="1" /><path clip-path="url(#clip820)" d="M753.433 1542.97 L758.317 1542.97 L758.317 1548.85 L753.433 1548.85 L753.433 1542.97 Z" fill="#000000" fill-rule="nonzero" fill-opacity="1" /><path clip-path="url(#clip820)" d="M768.548 1514.29 L786.905 1514.29 L786.905 1518.22 L772.831 1518.22 L772.831 1526.7 Q773.849 1526.35 774.868 1526.19 Q775.886 1526 776.905 1526 Q782.692 1526 786.072 1529.17 Q789.451 1532.34 789.451 1537.76 Q789.451 1543.34 785.979 1546.44 Q782.507 1549.52 776.187 1549.52 Q774.011 1549.52 771.743 1549.15 Q769.498 1548.78 767.09 1548.04 L767.09 1543.34 Q769.173 1544.47 771.396 1545.03 Q773.618 1545.58 776.095 1545.58 Q780.099 1545.58 782.437 1543.48 Q784.775 1541.37 784.775 1537.76 Q784.775 1534.15 782.437 1532.04 Q780.099 1529.94 776.095 1529.94 Q774.22 1529.94 772.345 1530.35 Q770.493 1530.77 768.548 1531.65 L768.548 1514.29 Z" fill="#000000" fill-rule="nonzero" fill-opacity="1" /><path clip-path="url(#clip820)" d="M1231.9 1517.37 Q1228.29 1517.37 1226.46 1520.93 Q1224.65 1524.47 1224.65 1531.6 Q1224.65 1538.71 1226.46 1542.27 Q1228.29 1545.82 1231.9 1545.82 Q1235.53 1545.82 1237.34 1542.27 Q1239.17 1538.71 1239.17 1531.6 Q1239.17 1524.47 1237.34 1520.93 Q1235.53 1517.37 1231.9 1517.37 M1231.9 1513.66 Q1237.71 1513.66 1240.77 1518.27 Q1243.84 1522.85 1243.84 1531.6 Q1243.84 1540.33 1240.77 1544.94 Q1237.71 1549.52 1231.9 1549.52 Q1226.09 1549.52 1223.01 1544.94 Q1219.96 1540.33 1219.96 1531.6 Q1219.96 1522.85 1223.01 1518.27 Q1226.09 1513.66 1231.9 1513.66 Z" fill="#000000" fill-rule="nonzero" fill-opacity="1" /><path clip-path="url(#clip820)" d="M1252.06 1542.97 L1256.95 1542.97 L1256.95 1548.85 L1252.06 1548.85 L1252.06 1542.97 Z" fill="#000000" fill-rule="nonzero" fill-opacity="1" /><path clip-path="url(#clip820)" d="M1277.13 1517.37 Q1273.52 1517.37 1271.69 1520.93 Q1269.89 1524.47 1269.89 1531.6 Q1269.89 1538.71 1271.69 1542.27 Q1273.52 1545.82 1277.13 1545.82 Q1280.76 1545.82 1282.57 1542.27 Q1284.4 1538.71 1284.4 1531.6 Q1284.4 1524.47 1282.57 1520.93 Q1280.76 1517.37 1277.13 1517.37 M1277.13 1513.66 Q1282.94 1513.66 1286 1518.27 Q1289.08 1522.85 1289.08 1531.6 Q1289.08 1540.33 1286 1544.94 Q1282.94 1549.52 1277.13 1549.52 Q1271.32 1549.52 1268.24 1544.94 Q1265.19 1540.33 1265.19 1531.6 Q1265.19 1522.85 1268.24 1518.27 Q1271.32 1513.66 1277.13 1513.66 Z" fill="#000000" fill-rule="nonzero" fill-opacity="1" /><path clip-path="url(#clip820)" d="M1750.44 1517.37 Q1746.82 1517.37 1745 1520.93 Q1743.19 1524.47 1743.19 1531.6 Q1743.19 1538.71 1745 1542.27 Q1746.82 1545.82 1750.44 1545.82 Q1754.07 1545.82 1755.88 1542.27 Q1757.7 1538.71 1757.7 1531.6 Q1757.7 1524.47 1755.88 1520.93 Q1754.07 1517.37 1750.44 1517.37 M1750.44 1513.66 Q1756.25 1513.66 1759.3 1518.27 Q1762.38 1522.85 1762.38 1531.6 Q1762.38 1540.33 1759.3 1544.94 Q1756.25 1549.52 1750.44 1549.52 Q1744.63 1549.52 1741.55 1544.94 Q1738.49 1540.33 1738.49 1531.6 Q1738.49 1522.85 1741.55 1518.27 Q1744.63 1513.66 1750.44 1513.66 Z" fill="#000000" fill-rule="nonzero" fill-opacity="1" /><path clip-path="url(#clip820)" d="M1770.6 1542.97 L1775.48 1542.97 L1775.48 1548.85 L1770.6 1548.85 L1770.6 1542.97 Z" fill="#000000" fill-rule="nonzero" fill-opacity="1" /><path clip-path="url(#clip820)" d="M1785.71 1514.29 L1804.07 1514.29 L1804.07 1518.22 L1790 1518.22 L1790 1526.7 Q1791.01 1526.35 1792.03 1526.19 Q1793.05 1526 1794.07 1526 Q1799.86 1526 1803.24 1529.17 Q1806.62 1532.34 1806.62 1537.76 Q1806.62 1543.34 1803.14 1546.44 Q1799.67 1549.52 1793.35 1549.52 Q1791.18 1549.52 1788.91 1549.15 Q1786.66 1548.78 1784.25 1548.04 L1784.25 1543.34 Q1786.34 1544.47 1788.56 1545.03 Q1790.78 1545.58 1793.26 1545.58 Q1797.26 1545.58 1799.6 1543.48 Q1801.94 1541.37 1801.94 1537.76 Q1801.94 1534.15 1799.6 1532.04 Q1797.26 1529.94 1793.26 1529.94 Q1791.38 1529.94 1789.51 1530.35 Q1787.66 1530.77 1785.71 1531.65 L1785.71 1514.29 Z" fill="#000000" fill-rule="nonzero" fill-opacity="1" /><path clip-path="url(#clip820)" d="M2257.74 1544.91 L2265.38 1544.91 L2265.38 1518.55 L2257.07 1520.21 L2257.07 1515.95 L2265.34 1514.29 L2270.01 1514.29 L2270.01 1544.91 L2277.65 1544.91 L2277.65 1548.85 L2257.74 1548.85 L2257.74 1544.91 Z" fill="#000000" fill-rule="nonzero" fill-opacity="1" /><path clip-path="url(#clip820)" d="M2287.1 1542.97 L2291.98 1542.97 L2291.98 1548.85 L2287.1 1548.85 L2287.1 1542.97 Z" fill="#000000" fill-rule="nonzero" fill-opacity="1" /><path clip-path="url(#clip820)" d="M2312.17 1517.37 Q2308.55 1517.37 2306.73 1520.93 Q2304.92 1524.47 2304.92 1531.6 Q2304.92 1538.71 2306.73 1542.27 Q2308.55 1545.82 2312.17 1545.82 Q2315.8 1545.82 2317.61 1542.27 Q2319.43 1538.71 2319.43 1531.6 Q2319.43 1524.47 2317.61 1520.93 Q2315.8 1517.37 2312.17 1517.37 M2312.17 1513.66 Q2317.98 1513.66 2321.03 1518.27 Q2324.11 1522.85 2324.11 1531.6 Q2324.11 1540.33 2321.03 1544.94 Q2317.98 1549.52 2312.17 1549.52 Q2306.36 1549.52 2303.28 1544.94 Q2300.22 1540.33 2300.22 1531.6 Q2300.22 1522.85 2303.28 1518.27 Q2306.36 1513.66 2312.17 1513.66 Z" fill="#000000" fill-rule="nonzero" fill-opacity="1" /><polyline clip-path="url(#clip822)" style="stroke:#000000; stroke-linecap:round; stroke-linejoin:round; stroke-width:2; stroke-opacity:0.1; fill:none" points="156.274,1254.41 2352.76,1254.41 "/>
<polyline clip-path="url(#clip822)" style="stroke:#000000; stroke-linecap:round; stroke-linejoin:round; stroke-width:2; stroke-opacity:0.1; fill:none" points="156.274,985.189 2352.76,985.189 "/>
<polyline clip-path="url(#clip822)" style="stroke:#000000; stroke-linecap:round; stroke-linejoin:round; stroke-width:2; stroke-opacity:0.1; fill:none" points="156.274,715.971 2352.76,715.971 "/>
<polyline clip-path="url(#clip822)" style="stroke:#000000; stroke-linecap:round; stroke-linejoin:round; stroke-width:2; stroke-opacity:0.1; fill:none" points="156.274,446.752 2352.76,446.752 "/>
<polyline clip-path="url(#clip822)" style="stroke:#000000; stroke-linecap:round; stroke-linejoin:round; stroke-width:2; stroke-opacity:0.1; fill:none" points="156.274,177.533 2352.76,177.533 "/>
<polyline clip-path="url(#clip820)" style="stroke:#000000; stroke-linecap:round; stroke-linejoin:round; stroke-width:4; stroke-opacity:1; fill:none" points="156.274,1486.45 156.274,47.2441 "/>
<polyline clip-path="url(#clip820)" style="stroke:#000000; stroke-linecap:round; stroke-linejoin:round; stroke-width:4; stroke-opacity:1; fill:none" points="156.274,1254.41 175.172,1254.41 "/>
<polyline clip-path="url(#clip820)" style="stroke:#000000; stroke-linecap:round; stroke-linejoin:round; stroke-width:4; stroke-opacity:1; fill:none" points="156.274,985.189 175.172,985.189 "/>
<polyline clip-path="url(#clip820)" style="stroke:#000000; stroke-linecap:round; stroke-linejoin:round; stroke-width:4; stroke-opacity:1; fill:none" points="156.274,715.971 175.172,715.971 "/>
<polyline clip-path="url(#clip820)" style="stroke:#000000; stroke-linecap:round; stroke-linejoin:round; stroke-width:4; stroke-opacity:1; fill:none" points="156.274,446.752 175.172,446.752 "/>
<polyline clip-path="url(#clip820)" style="stroke:#000000; stroke-linecap:round; stroke-linejoin:round; stroke-width:4; stroke-opacity:1; fill:none" points="156.274,177.533 175.172,177.533 "/>
<path clip-path="url(#clip820)" d="M63.0985 1240.21 Q59.4875 1240.21 57.6588 1243.77 Q55.8532 1247.31 55.8532 1254.44 Q55.8532 1261.55 57.6588 1265.11 Q59.4875 1268.66 63.0985 1268.66 Q66.7328 1268.66 68.5383 1265.11 Q70.367 1261.55 70.367 1254.44 Q70.367 1247.31 68.5383 1243.77 Q66.7328 1240.21 63.0985 1240.21 M63.0985 1236.5 Q68.9087 1236.5 71.9642 1241.11 Q75.0429 1245.69 75.0429 1254.44 Q75.0429 1263.17 71.9642 1267.78 Q68.9087 1272.36 63.0985 1272.36 Q57.2884 1272.36 54.2097 1267.78 Q51.1542 1263.17 51.1542 1254.44 Q51.1542 1245.69 54.2097 1241.11 Q57.2884 1236.5 63.0985 1236.5 Z" fill="#000000" fill-rule="nonzero" fill-opacity="1" /><path clip-path="url(#clip820)" d="M83.2605 1265.81 L88.1447 1265.81 L88.1447 1271.69 L83.2605 1271.69 L83.2605 1265.81 Z" fill="#000000" fill-rule="nonzero" fill-opacity="1" /><path clip-path="url(#clip820)" d="M108.33 1240.21 Q104.719 1240.21 102.89 1243.77 Q101.084 1247.31 101.084 1254.44 Q101.084 1261.55 102.89 1265.11 Q104.719 1268.66 108.33 1268.66 Q111.964 1268.66 113.77 1265.11 Q115.598 1261.55 115.598 1254.44 Q115.598 1247.31 113.77 1243.77 Q111.964 1240.21 108.33 1240.21 M108.33 1236.5 Q114.14 1236.5 117.195 1241.11 Q120.274 1245.69 120.274 1254.44 Q120.274 1263.17 117.195 1267.78 Q114.14 1272.36 108.33 1272.36 Q102.52 1272.36 99.4409 1267.78 Q96.3854 1263.17 96.3854 1254.44 Q96.3854 1245.69 99.4409 1241.11 Q102.52 1236.5 108.33 1236.5 Z" fill="#000000" fill-rule="nonzero" fill-opacity="1" /><path clip-path="url(#clip820)" d="M63.7467 970.988 Q60.1356 970.988 58.3069 974.553 Q56.5014 978.094 56.5014 985.224 Q56.5014 992.33 58.3069 995.895 Q60.1356 999.437 63.7467 999.437 Q67.3809 999.437 69.1865 995.895 Q71.0152 992.33 71.0152 985.224 Q71.0152 978.094 69.1865 974.553 Q67.3809 970.988 63.7467 970.988 M63.7467 967.284 Q69.5568 967.284 72.6124 971.891 Q75.6911 976.474 75.6911 985.224 Q75.6911 993.951 72.6124 998.557 Q69.5568 1003.14 63.7467 1003.14 Q57.9365 1003.14 54.8578 998.557 Q51.8023 993.951 51.8023 985.224 Q51.8023 976.474 54.8578 971.891 Q57.9365 967.284 63.7467 967.284 Z" fill="#000000" fill-rule="nonzero" fill-opacity="1" /><path clip-path="url(#clip820)" d="M83.9086 996.59 L88.7928 996.59 L88.7928 1002.47 L83.9086 1002.47 L83.9086 996.59 Z" fill="#000000" fill-rule="nonzero" fill-opacity="1" /><path clip-path="url(#clip820)" d="M113.145 983.835 Q116.501 984.553 118.376 986.821 Q120.274 989.09 120.274 992.423 Q120.274 997.539 116.756 1000.34 Q113.237 1003.14 106.756 1003.14 Q104.58 1003.14 102.265 1002.7 Q99.9733 1002.28 97.5197 1001.43 L97.5197 996.914 Q99.4641 998.048 101.779 998.627 Q104.094 999.205 106.617 999.205 Q111.015 999.205 113.307 997.469 Q115.621 995.733 115.621 992.423 Q115.621 989.367 113.469 987.655 Q111.339 985.918 107.52 985.918 L103.492 985.918 L103.492 982.076 L107.705 982.076 Q111.154 982.076 112.983 980.71 Q114.811 979.321 114.811 976.729 Q114.811 974.067 112.913 972.655 Q111.038 971.219 107.52 971.219 Q105.598 971.219 103.399 971.636 Q101.2 972.053 98.5613 972.932 L98.5613 968.766 Q101.223 968.025 103.538 967.655 Q105.876 967.284 107.936 967.284 Q113.26 967.284 116.362 969.715 Q119.464 972.122 119.464 976.243 Q119.464 979.113 117.82 981.104 Q116.177 983.071 113.145 983.835 Z" fill="#000000" fill-rule="nonzero" fill-opacity="1" /><path clip-path="url(#clip820)" d="M62.9365 701.769 Q59.3254 701.769 57.4967 705.334 Q55.6912 708.876 55.6912 716.005 Q55.6912 723.112 57.4967 726.677 Q59.3254 730.218 62.9365 730.218 Q66.5707 730.218 68.3763 726.677 Q70.205 723.112 70.205 716.005 Q70.205 708.876 68.3763 705.334 Q66.5707 701.769 62.9365 701.769 M62.9365 698.066 Q68.7467 698.066 71.8022 702.672 Q74.8809 707.255 74.8809 716.005 Q74.8809 724.732 71.8022 729.339 Q68.7467 733.922 62.9365 733.922 Q57.1264 733.922 54.0477 729.339 Q50.9921 724.732 50.9921 716.005 Q50.9921 707.255 54.0477 702.672 Q57.1264 698.066 62.9365 698.066 Z" fill="#000000" fill-rule="nonzero" fill-opacity="1" /><path clip-path="url(#clip820)" d="M83.0984 727.371 L87.9827 727.371 L87.9827 733.251 L83.0984 733.251 L83.0984 727.371 Z" fill="#000000" fill-rule="nonzero" fill-opacity="1" /><path clip-path="url(#clip820)" d="M108.746 714.107 Q105.598 714.107 103.746 716.26 Q101.918 718.413 101.918 722.163 Q101.918 725.89 103.746 728.066 Q105.598 730.218 108.746 730.218 Q111.895 730.218 113.723 728.066 Q115.575 725.89 115.575 722.163 Q115.575 718.413 113.723 716.26 Q111.895 714.107 108.746 714.107 M118.029 699.455 L118.029 703.714 Q116.27 702.88 114.464 702.441 Q112.682 702.001 110.922 702.001 Q106.293 702.001 103.839 705.126 Q101.409 708.251 101.061 714.57 Q102.427 712.556 104.487 711.492 Q106.547 710.404 109.024 710.404 Q114.233 710.404 117.242 713.575 Q120.274 716.723 120.274 722.163 Q120.274 727.487 117.126 730.704 Q113.978 733.922 108.746 733.922 Q102.751 733.922 99.5798 729.339 Q96.4085 724.732 96.4085 716.005 Q96.4085 707.811 100.297 702.95 Q104.186 698.066 110.737 698.066 Q112.496 698.066 114.279 698.413 Q116.084 698.76 118.029 699.455 Z" fill="#000000" fill-rule="nonzero" fill-opacity="1" /><path clip-path="url(#clip820)" d="M63.2837 432.551 Q59.6726 432.551 57.8439 436.116 Q56.0384 439.657 56.0384 446.787 Q56.0384 453.893 57.8439 457.458 Q59.6726 461 63.2837 461 Q66.918 461 68.7235 457.458 Q70.5522 453.893 70.5522 446.787 Q70.5522 439.657 68.7235 436.116 Q66.918 432.551 63.2837 432.551 M63.2837 428.847 Q69.0939 428.847 72.1494 433.454 Q75.2281 438.037 75.2281 446.787 Q75.2281 455.514 72.1494 460.12 Q69.0939 464.703 63.2837 464.703 Q57.4736 464.703 54.3949 460.12 Q51.3393 455.514 51.3393 446.787 Q51.3393 438.037 54.3949 433.454 Q57.4736 428.847 63.2837 428.847 Z" fill="#000000" fill-rule="nonzero" fill-opacity="1" /><path clip-path="url(#clip820)" d="M83.4457 458.152 L88.3299 458.152 L88.3299 464.032 L83.4457 464.032 L83.4457 458.152 Z" fill="#000000" fill-rule="nonzero" fill-opacity="1" /><path clip-path="url(#clip820)" d="M98.6539 463.314 L98.6539 459.055 Q100.413 459.889 102.219 460.328 Q104.024 460.768 105.76 460.768 Q110.39 460.768 112.82 457.666 Q115.274 454.541 115.621 448.199 Q114.279 450.19 112.219 451.254 Q110.158 452.319 107.658 452.319 Q102.473 452.319 99.4409 449.194 Q96.4317 446.046 96.4317 440.606 Q96.4317 435.282 99.5798 432.065 Q102.728 428.847 107.959 428.847 Q113.955 428.847 117.103 433.454 Q120.274 438.037 120.274 446.787 Q120.274 454.958 116.385 459.842 Q112.52 464.703 105.969 464.703 Q104.209 464.703 102.404 464.356 Q100.598 464.009 98.6539 463.314 M107.959 448.662 Q111.108 448.662 112.936 446.509 Q114.788 444.356 114.788 440.606 Q114.788 436.879 112.936 434.727 Q111.108 432.551 107.959 432.551 Q104.811 432.551 102.959 434.727 Q101.131 436.879 101.131 440.606 Q101.131 444.356 102.959 446.509 Q104.811 448.662 107.959 448.662 Z" fill="#000000" fill-rule="nonzero" fill-opacity="1" /><path clip-path="url(#clip820)" d="M55.506 190.878 L63.1448 190.878 L63.1448 164.513 L54.8347 166.179 L54.8347 161.92 L63.0985 160.253 L67.7744 160.253 L67.7744 190.878 L75.4133 190.878 L75.4133 194.813 L55.506 194.813 L55.506 190.878 Z" fill="#000000" fill-rule="nonzero" fill-opacity="1" /><path clip-path="url(#clip820)" d="M84.8577 188.934 L89.7419 188.934 L89.7419 194.813 L84.8577 194.813 L84.8577 188.934 Z" fill="#000000" fill-rule="nonzero" fill-opacity="1" /><path clip-path="url(#clip820)" d="M103.955 190.878 L120.274 190.878 L120.274 194.813 L98.3298 194.813 L98.3298 190.878 Q100.992 188.124 105.575 183.494 Q110.182 178.841 111.362 177.499 Q113.608 174.976 114.487 173.24 Q115.39 171.48 115.39 169.79 Q115.39 167.036 113.445 165.3 Q111.524 163.564 108.422 163.564 Q106.223 163.564 103.77 164.328 Q101.339 165.091 98.5613 166.642 L98.5613 161.92 Q101.385 160.786 103.839 160.207 Q106.293 159.628 108.33 159.628 Q113.7 159.628 116.895 162.314 Q120.089 164.999 120.089 169.49 Q120.089 171.619 119.279 173.54 Q118.492 175.439 116.385 178.031 Q115.807 178.702 112.705 181.92 Q109.603 185.114 103.955 190.878 Z" fill="#000000" fill-rule="nonzero" fill-opacity="1" /><polyline clip-path="url(#clip822)" style="stroke:#009af9; stroke-linecap:round; stroke-linejoin:round; stroke-width:16; stroke-opacity:1; fill:none" stroke-dasharray="8, 16" points="218.439,1119.72 228.852,1076.84 239.264,1056.51 249.677,1057.44 260.09,1073.54 270.503,1094.55 280.916,1110.47 291.329,1117.89 301.741,1122.21 312.154,1132.76 322.567,1155.55 332.98,1190.04 343.393,1230.94 353.805,1271.75 364.218,1307.53 374.631,1336.08 385.044,1357.93 395.457,1375.44 405.87,1391.59 416.282,1408.51 426.695,1425.85 437.108,1440 447.521,1445.29 457.934,1437.51 468.347,1417.26 478.759,1389.98 489.172,1362.33 499.585,1337.93 509.998,1315.85 520.411,1292.45 530.824,1264.53 541.236,1231.33 551.649,1194.77 562.062,1158.84 572.475,1128.32 582.888,1106.58 593.301,1093.74 603.713,1086.89 614.126,1082.72 624.539,1080.07 634.952,1080.55 645.365,1086.97 655.777,1101.25 666.19,1123.33 676.603,1151.38 687.016,1182.69 697.429,1214.63 707.842,1245.33 718.254,1273.95 728.667,1300.81 739.08,1327.13 749.493,1354.33 759.906,1382.9 770.319,1410.97 780.731,1433.87 791.144,1445.72 801.557,1443.09 811.97,1428.13 822.383,1407.96 832.796,1390.36 843.208,1378.76 853.621,1369.84 864.034,1355.36 874.447,1328.21 884.86,1288.73 895.273,1245.29 905.685,1207.34 916.098,1178.23 926.511,1154.81 936.924,1132.52 947.337,1109.9 957.749,1089.49 968.162,1075.51 978.575,1070.93 988.988,1075.72 999.401,1087.24 1009.81,1102.21 1020.23,1118.49 1030.64,1135.81 1041.05,1155.37 1051.46,1178.82 1061.88,1207.31 1072.29,1240.86 1082.7,1278.08 1093.12,1316.34 1103.53,1352.28 1113.94,1382.53 1124.35,1404.55 1134.77,1417.27 1145.18,1421.31 1155.59,1418.91 1166.01,1413.63 1176.42,1409.99 1186.83,1412.85 1197.24,1425.2 1207.66,1442.61 1218.07,1443.49 1228.48,1383.17 1238.9,1212.54 1249.31,932.519 1259.72,629.574 1270.13,415.037 1280.55,327.686 1290.96,326.432 1301.37,352.696 1311.79,371.764 1322.2,374.465 1332.61,364.786 1343.02,350.158 1353.44,337.017 1363.85,329.539 1374.26,329.623 1384.68,337.185 1395.09,350.473 1405.5,366.459 1415.91,381.39 1426.33,391.516 1436.74,393.866 1447.15,386.94 1457.57,371.206 1467.98,349.368 1478.39,326.281 1488.8,308.307 1499.22,301.854 1509.63,311.109 1520.04,335.657 1530.45,369.445 1540.87,402.391 1551.28,424.322 1561.69,428.866 1572.11,414.792 1582.52,384.7 1592.93,343.508 1603.34,298.935 1613.76,263.135 1624.17,251.392 1634.58,274.942 1645,331.82 1655.41,404.313 1665.82,466.085 1676.23,493.425 1686.65,474.323 1697.06,413.377 1707.47,331.611 1717.89,259.142 1728.3,221.813 1738.71,229.465 1749.12,274.09 1759.54,337.378 1769.95,400.156 1780.36,447.93 1790.78,472.149 1801.19,469.492 1811.6,441.015 1822.01,391.781 1832.43,330.794 1842.84,270.734 1853.25,226.779 1863.67,213.731 1874.08,241.155 1884.49,307.778 1894.9,398.217 1905.32,485.248 1915.73,538.413 1926.14,535.93 1936.56,474.49 1946.97,371.814 1957.38,260.458 1967.79,176.337 1978.21,147.404 1988.62,185.118 1999.03,279.204 2009.45,398.646 2019.86,502.554 2030.27,557.396 2040.68,549.771 2051.1,487.921 2061.51,394.755 2071.92,298.05 2082.33,221.729 2092.75,180.882 2103.16,181.404 2113.57,222.112 2123.99,296.282 2134.4,391.378 2144.81,488.114 2155.22,561.31 2165.64,584.678 2176.05,540.08 2186.46,429.222 2196.88,281.81 2207.29,150.548 2217.7,87.9763 2228.11,117.233 2238.53,220.59 2248.94,354.761 2259.35,476.633 2269.77,559.218 2280.18,593.094 2290.59,580.343 "/>
<polyline clip-path="url(#clip822)" style="stroke:#e26f46; stroke-linecap:round; stroke-linejoin:round; stroke-width:4; stroke-opacity:1; fill:none" points="218.439,1119.62 228.852,1100.5 239.264,1086.4 249.677,1077.78 260.09,1074.93 270.503,1077.93 280.916,1086.7 291.329,1100.94 301.741,1120.19 312.154,1143.81 322.567,1171.05 332.98,1201.01 343.393,1232.71 353.805,1265.12 364.218,1297.18 374.631,1327.84 385.044,1356.11 395.457,1381.06 405.87,1401.87 416.282,1417.87 426.695,1428.54 437.108,1433.52 447.521,1432.66 457.934,1425.98 468.347,1413.7 478.759,1396.22 489.172,1374.11 499.585,1348.1 509.998,1319.03 520.411,1287.85 530.824,1255.57 541.236,1223.26 551.649,1191.97 562.062,1162.71 572.475,1136.45 582.888,1114.04 593.301,1096.21 603.713,1083.54 614.126,1076.44 624.539,1075.16 634.952,1079.73 645.365,1089.99 655.777,1105.63 666.19,1126.12 676.603,1150.79 687.016,1178.85 697.429,1209.38 707.842,1241.37 718.254,1273.79 728.667,1305.58 739.08,1335.69 749.493,1363.16 759.906,1387.07 770.319,1406.66 780.731,1421.27 791.144,1430.44 801.557,1433.87 811.97,1431.43 822.383,1423.22 832.796,1409.5 843.208,1390.72 853.621,1367.49 864.034,1340.57 874.447,1310.84 884.86,1279.26 895.273,1246.88 905.685,1214.74 916.098,1183.89 926.511,1155.35 936.924,1130.03 947.337,1108.78 957.749,1092.28 968.162,1081.08 978.575,1075.53 988.988,1075.81 999.401,1081.93 1009.81,1093.68 1020.23,1110.67 1030.64,1132.35 1041.05,1158.02 1051.46,1186.83 1061.88,1217.85 1072.29,1250.06 1082.7,1282.41 1093.12,1313.85 1103.53,1343.35 1113.94,1369.95 1124.35,1392.77 1134.77,1411.08 1145.18,1424.28 1155.59,1431.93 1166.01,1433.79 1176.42,1429.79 1186.83,1420.07 1197.24,1404.95 1207.66,1384.9 1218.07,1360.61 1228.48,1332.84 1238.9,1302.52 1249.31,1270.62 1259.72,355.709 1270.13,354.226 1280.55,355.576 1290.96,360.07 1301.37,366.33 1311.79,371.712 1322.2,373.305 1332.61,369.164 1343.02,359.293 1353.44,345.985 1363.85,333.322 1374.26,325.924 1384.68,327.343 1395.09,338.63 1405.5,357.615 1415.91,379.221 1426.33,396.816 1436.74,404.237 1447.15,397.885 1457.57,378.172 1467.98,349.819 1478.39,320.762 1488.8,299.937 1499.22,294.541 1509.63,307.62 1520.04,336.757 1530.45,374.386 1540.87,409.735 1551.28,431.904 1561.69,433.217 1572.11,411.799 1582.52,372.546 1592.93,326.082 1603.34,285.89 1613.76,264.405 1624.17,269.182 1634.58,300.331 1645,350.058 1655.41,404.572 1665.82,447.905 1676.23,466.587 1686.65,453.811 1697.06,411.801 1707.47,351.589 1717.89,290.144 1728.3,245.591 1738.71,231.869 1749.12,254.4 1759.54,308.103 1769.95,378.454 1780.36,445.402 1790.78,489.081 1801.19,495.697 1811.6,461.853 1822.01,395.953 1832.43,316.167 1842.84,245.429 1853.25,204.849 1863.67,207.414 1874.08,253.884 1884.49,332.137 1894.9,420.301 1905.32,492.862 1915.73,528.047 1926.14,514.346 1936.56,454.221 1946.97,363.824 1957.38,268.676 1967.79,196.468 1978.21,169.001 1988.62,195.619 1999.03,270.108 2009.45,372.068 2019.86,472.488 2030.27,541.999 2040.68,559.458 2051.1,518.365 2061.51,429.152 2071.92,316.583 2082.33,212.89 2092.75,148.539 2103.16,143.29 2113.57,200.149 2123.99,304.075 2134.4,425.931 2144.81,530.647 2155.22,587.31 2165.64,578.289 2176.05,504.683 2186.46,386.44 2196.88,256.966 2207.29,153.692 2217.7,107.254 2228.11,132.411 2238.53,223.401 2248.94,355.17 2259.35,490.263 2269.77,589.467 2280.18,623.19 2290.59,580.278 "/>
<path clip-path="url(#clip820)" d="M229.49 250.738 L675.966 250.738 L675.966 95.2176 L229.49 95.2176  Z" fill="#ffffff" fill-rule="evenodd" fill-opacity="1"/>
<polyline clip-path="url(#clip820)" style="stroke:#000000; stroke-linecap:round; stroke-linejoin:round; stroke-width:4; stroke-opacity:1; fill:none" points="229.49,250.738 675.966,250.738 675.966,95.2176 229.49,95.2176 229.49,250.738 "/>
<polyline clip-path="url(#clip820)" style="stroke:#009af9; stroke-linecap:round; stroke-linejoin:round; stroke-width:16; stroke-opacity:1; fill:none" stroke-dasharray="8, 16" points="253.896,147.058 400.328,147.058 "/>
<path clip-path="url(#clip820)" d="M429.409 133.62 L429.409 146.606 L435.289 146.606 Q438.552 146.606 440.335 144.916 Q442.117 143.227 442.117 140.102 Q442.117 137 440.335 135.31 Q438.552 133.62 435.289 133.62 L429.409 133.62 M424.733 129.778 L435.289 129.778 Q441.099 129.778 444.062 132.416 Q447.048 135.032 447.048 140.102 Q447.048 145.217 444.062 147.833 Q441.099 150.449 435.289 150.449 L429.409 150.449 L429.409 164.338 L424.733 164.338 L424.733 129.778 Z" fill="#000000" fill-rule="nonzero" fill-opacity="1" /><path clip-path="url(#clip820)" d="M467.325 142.393 Q466.608 141.977 465.751 141.791 Q464.918 141.583 463.899 141.583 Q460.288 141.583 458.344 143.944 Q456.423 146.282 456.423 150.68 L456.423 164.338 L452.14 164.338 L452.14 138.412 L456.423 138.412 L456.423 142.44 Q457.765 140.078 459.918 138.944 Q462.071 137.787 465.149 137.787 Q465.589 137.787 466.122 137.856 Q466.654 137.903 467.302 138.018 L467.325 142.393 Z" fill="#000000" fill-rule="nonzero" fill-opacity="1" /><path clip-path="url(#clip820)" d="M492.927 150.31 L492.927 152.393 L473.344 152.393 Q473.622 156.791 475.983 159.106 Q478.367 161.398 482.603 161.398 Q485.057 161.398 487.348 160.796 Q489.663 160.194 491.932 158.99 L491.932 163.018 Q489.64 163.99 487.233 164.5 Q484.825 165.009 482.348 165.009 Q476.145 165.009 472.511 161.398 Q468.899 157.787 468.899 151.629 Q468.899 145.264 472.325 141.537 Q475.774 137.787 481.608 137.787 Q486.839 137.787 489.872 141.166 Q492.927 144.523 492.927 150.31 M488.668 149.06 Q488.622 145.565 486.7 143.481 Q484.802 141.398 481.654 141.398 Q478.089 141.398 475.936 143.412 Q473.807 145.426 473.483 149.083 L488.668 149.06 Z" fill="#000000" fill-rule="nonzero" fill-opacity="1" /><path clip-path="url(#clip820)" d="M516.978 142.347 L516.978 128.319 L521.237 128.319 L521.237 164.338 L516.978 164.338 L516.978 160.449 Q515.635 162.763 513.575 163.898 Q511.538 165.009 508.668 165.009 Q503.969 165.009 501.006 161.259 Q498.066 157.509 498.066 151.398 Q498.066 145.287 501.006 141.537 Q503.969 137.787 508.668 137.787 Q511.538 137.787 513.575 138.921 Q515.635 140.032 516.978 142.347 M502.464 151.398 Q502.464 156.097 504.385 158.782 Q506.33 161.444 509.709 161.444 Q513.089 161.444 515.033 158.782 Q516.978 156.097 516.978 151.398 Q516.978 146.699 515.033 144.037 Q513.089 141.352 509.709 141.352 Q506.33 141.352 504.385 144.037 Q502.464 146.699 502.464 151.398 Z" fill="#000000" fill-rule="nonzero" fill-opacity="1" /><path clip-path="url(#clip820)" d="M530.01 138.412 L534.269 138.412 L534.269 164.338 L530.01 164.338 L530.01 138.412 M530.01 128.319 L534.269 128.319 L534.269 133.713 L530.01 133.713 L530.01 128.319 Z" fill="#000000" fill-rule="nonzero" fill-opacity="1" /><path clip-path="url(#clip820)" d="M561.839 139.407 L561.839 143.389 Q560.033 142.393 558.205 141.907 Q556.399 141.398 554.547 141.398 Q550.404 141.398 548.112 144.037 Q545.82 146.652 545.82 151.398 Q545.82 156.143 548.112 158.782 Q550.404 161.398 554.547 161.398 Q556.399 161.398 558.205 160.912 Q560.033 160.402 561.839 159.407 L561.839 163.342 Q560.056 164.176 558.135 164.592 Q556.237 165.009 554.084 165.009 Q548.228 165.009 544.779 161.328 Q541.33 157.648 541.33 151.398 Q541.33 145.055 544.802 141.421 Q548.297 137.787 554.362 137.787 Q556.33 137.787 558.205 138.203 Q560.08 138.597 561.839 139.407 Z" fill="#000000" fill-rule="nonzero" fill-opacity="1" /><path clip-path="url(#clip820)" d="M573.459 131.051 L573.459 138.412 L582.232 138.412 L582.232 141.722 L573.459 141.722 L573.459 155.796 Q573.459 158.967 574.316 159.87 Q575.195 160.773 577.857 160.773 L582.232 160.773 L582.232 164.338 L577.857 164.338 Q572.927 164.338 571.052 162.509 Q569.177 160.657 569.177 155.796 L569.177 141.722 L566.052 141.722 L566.052 138.412 L569.177 138.412 L569.177 131.051 L573.459 131.051 Z" fill="#000000" fill-rule="nonzero" fill-opacity="1" /><path clip-path="url(#clip820)" d="M587.834 138.412 L592.093 138.412 L592.093 164.338 L587.834 164.338 L587.834 138.412 M587.834 128.319 L592.093 128.319 L592.093 133.713 L587.834 133.713 L587.834 128.319 Z" fill="#000000" fill-rule="nonzero" fill-opacity="1" /><path clip-path="url(#clip820)" d="M611.051 141.398 Q607.626 141.398 605.635 144.083 Q603.644 146.745 603.644 151.398 Q603.644 156.051 605.612 158.736 Q607.602 161.398 611.051 161.398 Q614.454 161.398 616.445 158.713 Q618.436 156.027 618.436 151.398 Q618.436 146.791 616.445 144.106 Q614.454 141.398 611.051 141.398 M611.051 137.787 Q616.607 137.787 619.778 141.398 Q622.95 145.009 622.95 151.398 Q622.95 157.764 619.778 161.398 Q616.607 165.009 611.051 165.009 Q605.473 165.009 602.302 161.398 Q599.153 157.764 599.153 151.398 Q599.153 145.009 602.302 141.398 Q605.473 137.787 611.051 137.787 Z" fill="#000000" fill-rule="nonzero" fill-opacity="1" /><path clip-path="url(#clip820)" d="M651.561 148.689 L651.561 164.338 L647.301 164.338 L647.301 148.828 Q647.301 145.148 645.866 143.319 Q644.431 141.49 641.561 141.49 Q638.112 141.49 636.121 143.69 Q634.13 145.889 634.13 149.685 L634.13 164.338 L629.848 164.338 L629.848 138.412 L634.13 138.412 L634.13 142.44 Q635.658 140.102 637.718 138.944 Q639.801 137.787 642.51 137.787 Q646.977 137.787 649.269 140.565 Q651.561 143.319 651.561 148.689 Z" fill="#000000" fill-rule="nonzero" fill-opacity="1" /><polyline clip-path="url(#clip820)" style="stroke:#e26f46; stroke-linecap:round; stroke-linejoin:round; stroke-width:4; stroke-opacity:1; fill:none" points="253.896,198.898 400.328,198.898 "/>
<path clip-path="url(#clip820)" d="M424.733 181.618 L446.585 181.618 L446.585 185.553 L429.409 185.553 L429.409 195.784 L445.867 195.784 L445.867 199.719 L429.409 199.719 L429.409 212.242 L447.001 212.242 L447.001 216.178 L424.733 216.178 L424.733 181.618 Z" fill="#000000" fill-rule="nonzero" fill-opacity="1" /><path clip-path="url(#clip820)" d="M476.052 190.252 L466.677 202.867 L476.538 216.178 L471.515 216.178 L463.969 205.992 L456.423 216.178 L451.4 216.178 L461.469 202.613 L452.256 190.252 L457.279 190.252 L464.154 199.488 L471.029 190.252 L476.052 190.252 Z" fill="#000000" fill-rule="nonzero" fill-opacity="1" /><path clip-path="url(#clip820)" d="M494.339 203.145 Q489.177 203.145 487.186 204.326 Q485.196 205.506 485.196 208.354 Q485.196 210.622 486.677 211.965 Q488.182 213.284 490.751 213.284 Q494.293 213.284 496.422 210.784 Q498.575 208.261 498.575 204.094 L498.575 203.145 L494.339 203.145 M502.834 201.386 L502.834 216.178 L498.575 216.178 L498.575 212.242 Q497.117 214.603 494.941 215.738 Q492.765 216.849 489.617 216.849 Q485.635 216.849 483.274 214.627 Q480.936 212.381 480.936 208.631 Q480.936 204.256 483.853 202.034 Q486.793 199.812 492.603 199.812 L498.575 199.812 L498.575 199.395 Q498.575 196.455 496.631 194.858 Q494.71 193.238 491.214 193.238 Q488.992 193.238 486.885 193.77 Q484.779 194.303 482.835 195.367 L482.835 191.432 Q485.173 190.53 487.372 190.09 Q489.571 189.627 491.654 189.627 Q497.279 189.627 500.057 192.543 Q502.834 195.46 502.834 201.386 Z" fill="#000000" fill-rule="nonzero" fill-opacity="1" /><path clip-path="url(#clip820)" d="M530.265 191.247 L530.265 195.229 Q528.459 194.233 526.631 193.747 Q524.825 193.238 522.973 193.238 Q518.83 193.238 516.538 195.877 Q514.246 198.492 514.246 203.238 Q514.246 207.983 516.538 210.622 Q518.83 213.238 522.973 213.238 Q524.825 213.238 526.631 212.752 Q528.459 212.242 530.265 211.247 L530.265 215.182 Q528.482 216.016 526.561 216.432 Q524.663 216.849 522.51 216.849 Q516.654 216.849 513.205 213.168 Q509.756 209.488 509.756 203.238 Q509.756 196.895 513.228 193.261 Q516.723 189.627 522.788 189.627 Q524.756 189.627 526.631 190.043 Q528.506 190.437 530.265 191.247 Z" fill="#000000" fill-rule="nonzero" fill-opacity="1" /><path clip-path="url(#clip820)" d="M541.885 182.891 L541.885 190.252 L550.658 190.252 L550.658 193.562 L541.885 193.562 L541.885 207.636 Q541.885 210.807 542.742 211.71 Q543.621 212.613 546.283 212.613 L550.658 212.613 L550.658 216.178 L546.283 216.178 Q541.353 216.178 539.478 214.349 Q537.603 212.497 537.603 207.636 L537.603 193.562 L534.478 193.562 L534.478 190.252 L537.603 190.252 L537.603 182.891 L541.885 182.891 Z" fill="#000000" fill-rule="nonzero" fill-opacity="1" /></svg>
