<?xml version="1.0" encoding="utf-8"?>
<svg xmlns="http://www.w3.org/2000/svg" xmlns:xlink="http://www.w3.org/1999/xlink" width="600" height="400" viewBox="0 0 2400 1600">
<defs>
  <clipPath id="clip790">
    <rect x="0" y="0" width="2400" height="1600"/>
  </clipPath>
</defs>
<path clip-path="url(#clip790)" d="M0 1600 L2400 1600 L2400 0 L0 0  Z" fill="#ffffff" fill-rule="evenodd" fill-opacity="1"/>
<defs>
  <clipPath id="clip791">
    <rect x="480" y="0" width="1681" height="1600"/>
  </clipPath>
</defs>
<path clip-path="url(#clip790)" d="M192.339 1486.45 L2352.76 1486.45 L2352.76 47.2441 L192.339 47.2441  Z" fill="#ffffff" fill-rule="evenodd" fill-opacity="1"/>
<defs>
  <clipPath id="clip792">
    <rect x="192" y="47" width="2161" height="1440"/>
  </clipPath>
</defs>
<polyline clip-path="url(#clip792)" style="stroke:#000000; stroke-linecap:round; stroke-linejoin:round; stroke-width:2; stroke-opacity:0.1; fill:none" points="253.483,1486.45 253.483,47.2441 "/>
<polyline clip-path="url(#clip792)" style="stroke:#000000; stroke-linecap:round; stroke-linejoin:round; stroke-width:2; stroke-opacity:0.1; fill:none" points="763.015,1486.45 763.015,47.2441 "/>
<polyline clip-path="url(#clip792)" style="stroke:#000000; stroke-linecap:round; stroke-linejoin:round; stroke-width:2; stroke-opacity:0.1; fill:none" points="1272.55,1486.45 1272.55,47.2441 "/>
<polyline clip-path="url(#clip792)" style="stroke:#000000; stroke-linecap:round; stroke-linejoin:round; stroke-width:2; stroke-opacity:0.1; fill:none" points="1782.08,1486.45 1782.08,47.2441 "/>
<polyline clip-path="url(#clip792)" style="stroke:#000000; stroke-linecap:round; stroke-linejoin:round; stroke-width:2; stroke-opacity:0.1; fill:none" points="2291.61,1486.45 2291.61,47.2441 "/>
<polyline clip-path="url(#clip790)" style="stroke:#000000; stroke-linecap:round; stroke-linejoin:round; stroke-width:4; stroke-opacity:1; fill:none" points="192.339,1486.45 2352.76,1486.45 "/>
<polyline clip-path="url(#clip790)" style="stroke:#000000; stroke-linecap:round; stroke-linejoin:round; stroke-width:4; stroke-opacity:1; fill:none" points="253.483,1486.45 253.483,1467.55 "/>
<polyline clip-path="url(#clip790)" style="stroke:#000000; stroke-linecap:round; stroke-linejoin:round; stroke-width:4; stroke-opacity:1; fill:none" points="763.015,1486.45 763.015,1467.55 "/>
<polyline clip-path="url(#clip790)" style="stroke:#000000; stroke-linecap:round; stroke-linejoin:round; stroke-width:4; stroke-opacity:1; fill:none" points="1272.55,1486.45 1272.55,1467.55 "/>
<polyline clip-path="url(#clip790)" style="stroke:#000000; stroke-linecap:round; stroke-linejoin:round; stroke-width:4; stroke-opacity:1; fill:none" points="1782.08,1486.45 1782.08,1467.55 "/>
<polyline clip-path="url(#clip790)" style="stroke:#000000; stroke-linecap:round; stroke-linejoin:round; stroke-width:4; stroke-opacity:1; fill:none" points="2291.61,1486.45 2291.61,1467.55 "/>
<path clip-path="url(#clip790)" d="M200.011 1532.02 L229.686 1532.02 L229.686 1535.95 L200.011 1535.95 L200.011 1532.02 Z" fill="#000000" fill-rule="nonzero" fill-opacity="1" /><path clip-path="url(#clip790)" d="M240.589 1544.91 L248.228 1544.91 L248.228 1518.55 L239.918 1520.21 L239.918 1515.95 L248.182 1514.29 L252.858 1514.29 L252.858 1544.91 L260.497 1544.91 L260.497 1548.85 L240.589 1548.85 L240.589 1544.91 Z" fill="#000000" fill-rule="nonzero" fill-opacity="1" /><path clip-path="url(#clip790)" d="M269.941 1542.97 L274.825 1542.97 L274.825 1548.85 L269.941 1548.85 L269.941 1542.97 Z" fill="#000000" fill-rule="nonzero" fill-opacity="1" /><path clip-path="url(#clip790)" d="M295.01 1517.37 Q291.399 1517.37 289.57 1520.93 Q287.765 1524.47 287.765 1531.6 Q287.765 1538.71 289.57 1542.27 Q291.399 1545.82 295.01 1545.82 Q298.644 1545.82 300.45 1542.27 Q302.279 1538.71 302.279 1531.6 Q302.279 1524.47 300.45 1520.93 Q298.644 1517.37 295.01 1517.37 M295.01 1513.66 Q300.82 1513.66 303.876 1518.27 Q306.955 1522.85 306.955 1531.6 Q306.955 1540.33 303.876 1544.94 Q300.82 1549.52 295.01 1549.52 Q289.2 1549.52 286.121 1544.94 Q283.066 1540.33 283.066 1531.6 Q283.066 1522.85 286.121 1518.27 Q289.2 1513.66 295.01 1513.66 Z" fill="#000000" fill-rule="nonzero" fill-opacity="1" /><path clip-path="url(#clip790)" d="M710.041 1532.02 L739.717 1532.02 L739.717 1535.95 L710.041 1535.95 L710.041 1532.02 Z" fill="#000000" fill-rule="nonzero" fill-opacity="1" /><path clip-path="url(#clip790)" d="M759.809 1517.37 Q756.198 1517.37 754.369 1520.93 Q752.564 1524.47 752.564 1531.6 Q752.564 1538.71 754.369 1542.27 Q756.198 1545.82 759.809 1545.82 Q763.443 1545.82 765.249 1542.27 Q767.077 1538.71 767.077 1531.6 Q767.077 1524.47 765.249 1520.93 Q763.443 1517.37 759.809 1517.37 M759.809 1513.66 Q765.619 1513.66 768.675 1518.27 Q771.753 1522.85 771.753 1531.6 Q771.753 1540.33 768.675 1544.94 Q765.619 1549.52 759.809 1549.52 Q753.999 1549.52 750.92 1544.94 Q747.865 1540.33 747.865 1531.6 Q747.865 1522.85 750.92 1518.27 Q753.999 1513.66 759.809 1513.66 Z" fill="#000000" fill-rule="nonzero" fill-opacity="1" /><path clip-path="url(#clip790)" d="M779.971 1542.97 L784.855 1542.97 L784.855 1548.85 L779.971 1548.85 L779.971 1542.97 Z" fill="#000000" fill-rule="nonzero" fill-opacity="1" /><path clip-path="url(#clip790)" d="M795.087 1514.29 L813.443 1514.29 L813.443 1518.22 L799.369 1518.22 L799.369 1526.7 Q800.387 1526.35 801.406 1526.19 Q802.425 1526 803.443 1526 Q809.23 1526 812.61 1529.17 Q815.989 1532.34 815.989 1537.76 Q815.989 1543.34 812.517 1546.44 Q809.045 1549.52 802.725 1549.52 Q800.55 1549.52 798.281 1549.15 Q796.036 1548.78 793.628 1548.04 L793.628 1543.34 Q795.712 1544.47 797.934 1545.03 Q800.156 1545.58 802.633 1545.58 Q806.637 1545.58 808.975 1543.48 Q811.313 1541.37 811.313 1537.76 Q811.313 1534.15 808.975 1532.04 Q806.637 1529.94 802.633 1529.94 Q800.758 1529.94 798.883 1530.35 Q797.031 1530.77 795.087 1531.65 L795.087 1514.29 Z" fill="#000000" fill-rule="nonzero" fill-opacity="1" /><path clip-path="url(#clip790)" d="M1249.93 1517.37 Q1246.32 1517.37 1244.49 1520.93 Q1242.69 1524.47 1242.69 1531.6 Q1242.69 1538.71 1244.49 1542.27 Q1246.32 1545.82 1249.93 1545.82 Q1253.57 1545.82 1255.37 1542.27 Q1257.2 1538.71 1257.2 1531.6 Q1257.2 1524.47 1255.37 1520.93 Q1253.57 1517.37 1249.93 1517.37 M1249.93 1513.66 Q1255.74 1513.66 1258.8 1518.27 Q1261.88 1522.85 1261.88 1531.6 Q1261.88 1540.33 1258.8 1544.94 Q1255.74 1549.52 1249.93 1549.52 Q1244.12 1549.52 1241.04 1544.94 Q1237.99 1540.33 1237.99 1531.6 Q1237.99 1522.85 1241.04 1518.27 Q1244.12 1513.66 1249.93 1513.66 Z" fill="#000000" fill-rule="nonzero" fill-opacity="1" /><path clip-path="url(#clip790)" d="M1270.09 1542.97 L1274.98 1542.97 L1274.98 1548.85 L1270.09 1548.85 L1270.09 1542.97 Z" fill="#000000" fill-rule="nonzero" fill-opacity="1" /><path clip-path="url(#clip790)" d="M1295.16 1517.37 Q1291.55 1517.37 1289.72 1520.93 Q1287.92 1524.47 1287.92 1531.6 Q1287.92 1538.71 1289.72 1542.27 Q1291.55 1545.82 1295.16 1545.82 Q1298.8 1545.82 1300.6 1542.27 Q1302.43 1538.71 1302.43 1531.6 Q1302.43 1524.47 1300.6 1520.93 Q1298.8 1517.37 1295.16 1517.37 M1295.16 1513.66 Q1300.97 1513.66 1304.03 1518.27 Q1307.11 1522.85 1307.11 1531.6 Q1307.11 1540.33 1304.03 1544.94 Q1300.97 1549.52 1295.16 1549.52 Q1289.35 1549.52 1286.27 1544.94 Q1283.22 1540.33 1283.22 1531.6 Q1283.22 1522.85 1286.27 1518.27 Q1289.35 1513.66 1295.16 1513.66 Z" fill="#000000" fill-rule="nonzero" fill-opacity="1" /><path clip-path="url(#clip790)" d="M1759.96 1517.37 Q1756.35 1517.37 1754.52 1520.93 Q1752.72 1524.47 1752.72 1531.6 Q1752.72 1538.71 1754.52 1542.27 Q1756.35 1545.82 1759.96 1545.82 Q1763.6 1545.82 1765.4 1542.27 Q1767.23 1538.71 1767.23 1531.6 Q1767.23 1524.47 1765.4 1520.93 Q1763.6 1517.37 1759.96 1517.37 M1759.96 1513.66 Q1765.77 1513.66 1768.83 1518.27 Q1771.91 1522.85 1771.91 1531.6 Q1771.91 1540.33 1768.83 1544.94 Q1765.77 1549.52 1759.96 1549.52 Q1754.15 1549.52 1751.07 1544.94 Q1748.02 1540.33 1748.02 1531.6 Q1748.02 1522.85 1751.07 1518.27 Q1754.15 1513.66 1759.96 1513.66 Z" fill="#000000" fill-rule="nonzero" fill-opacity="1" /><path clip-path="url(#clip790)" d="M1780.12 1542.97 L1785.01 1542.97 L1785.01 1548.85 L1780.12 1548.85 L1780.12 1542.97 Z" fill="#000000" fill-rule="nonzero" fill-opacity="1" /><path clip-path="url(#clip790)" d="M1795.24 1514.29 L1813.6 1514.29 L1813.6 1518.22 L1799.52 1518.22 L1799.52 1526.7 Q1800.54 1526.35 1801.56 1526.19 Q1802.58 1526 1803.6 1526 Q1809.38 1526 1812.76 1529.17 Q1816.14 1532.34 1816.14 1537.76 Q1816.14 1543.34 1812.67 1546.44 Q1809.2 1549.52 1802.88 1549.52 Q1800.7 1549.52 1798.43 1549.15 Q1796.19 1548.78 1793.78 1548.04 L1793.78 1543.34 Q1795.86 1544.47 1798.09 1545.03 Q1800.31 1545.58 1802.79 1545.58 Q1806.79 1545.58 1809.13 1543.48 Q1811.47 1541.37 1811.47 1537.76 Q1811.47 1534.15 1809.13 1532.04 Q1806.79 1529.94 1802.79 1529.94 Q1800.91 1529.94 1799.04 1530.35 Q1797.18 1530.77 1795.24 1531.65 L1795.24 1514.29 Z" fill="#000000" fill-rule="nonzero" fill-opacity="1" /><path clip-path="url(#clip790)" d="M2258.76 1544.91 L2266.4 1544.91 L2266.4 1518.55 L2258.09 1520.21 L2258.09 1515.95 L2266.36 1514.29 L2271.03 1514.29 L2271.03 1544.91 L2278.67 1544.91 L2278.67 1548.85 L2258.76 1548.85 L2258.76 1544.91 Z" fill="#000000" fill-rule="nonzero" fill-opacity="1" /><path clip-path="url(#clip790)" d="M2288.12 1542.97 L2293 1542.97 L2293 1548.85 L2288.12 1548.85 L2288.12 1542.97 Z" fill="#000000" fill-rule="nonzero" fill-opacity="1" /><path clip-path="url(#clip790)" d="M2313.19 1517.37 Q2309.57 1517.37 2307.75 1520.93 Q2305.94 1524.47 2305.94 1531.6 Q2305.94 1538.71 2307.75 1542.27 Q2309.57 1545.82 2313.19 1545.82 Q2316.82 1545.82 2318.63 1542.27 Q2320.45 1538.71 2320.45 1531.6 Q2320.45 1524.47 2318.63 1520.93 Q2316.82 1517.37 2313.19 1517.37 M2313.19 1513.66 Q2319 1513.66 2322.05 1518.27 Q2325.13 1522.85 2325.13 1531.6 Q2325.13 1540.33 2322.05 1544.94 Q2319 1549.52 2313.19 1549.52 Q2307.38 1549.52 2304.3 1544.94 Q2301.24 1540.33 2301.24 1531.6 Q2301.24 1522.85 2304.3 1518.27 Q2307.38 1513.66 2313.19 1513.66 Z" fill="#000000" fill-rule="nonzero" fill-opacity="1" /><polyline clip-path="url(#clip792)" style="stroke:#000000; stroke-linecap:round; stroke-linejoin:round; stroke-width:2; stroke-opacity:0.1; fill:none" points="192.339,1354.86 2352.76,1354.86 "/>
<polyline clip-path="url(#clip792)" style="stroke:#000000; stroke-linecap:round; stroke-linejoin:round; stroke-width:2; stroke-opacity:0.1; fill:none" points="192.339,1184.51 2352.76,1184.51 "/>
<polyline clip-path="url(#clip792)" style="stroke:#000000; stroke-linecap:round; stroke-linejoin:round; stroke-width:2; stroke-opacity:0.1; fill:none" points="192.339,1014.16 2352.76,1014.16 "/>
<polyline clip-path="url(#clip792)" style="stroke:#000000; stroke-linecap:round; stroke-linejoin:round; stroke-width:2; stroke-opacity:0.1; fill:none" points="192.339,843.816 2352.76,843.816 "/>
<polyline clip-path="url(#clip792)" style="stroke:#000000; stroke-linecap:round; stroke-linejoin:round; stroke-width:2; stroke-opacity:0.1; fill:none" points="192.339,673.468 2352.76,673.468 "/>
<polyline clip-path="url(#clip792)" style="stroke:#000000; stroke-linecap:round; stroke-linejoin:round; stroke-width:2; stroke-opacity:0.1; fill:none" points="192.339,503.121 2352.76,503.121 "/>
<polyline clip-path="url(#clip792)" style="stroke:#000000; stroke-linecap:round; stroke-linejoin:round; stroke-width:2; stroke-opacity:0.1; fill:none" points="192.339,332.773 2352.76,332.773 "/>
<polyline clip-path="url(#clip792)" style="stroke:#000000; stroke-linecap:round; stroke-linejoin:round; stroke-width:2; stroke-opacity:0.1; fill:none" points="192.339,162.425 2352.76,162.425 "/>
<polyline clip-path="url(#clip790)" style="stroke:#000000; stroke-linecap:round; stroke-linejoin:round; stroke-width:4; stroke-opacity:1; fill:none" points="192.339,1486.45 192.339,47.2441 "/>
<polyline clip-path="url(#clip790)" style="stroke:#000000; stroke-linecap:round; stroke-linejoin:round; stroke-width:4; stroke-opacity:1; fill:none" points="192.339,1354.86 211.236,1354.86 "/>
<polyline clip-path="url(#clip790)" style="stroke:#000000; stroke-linecap:round; stroke-linejoin:round; stroke-width:4; stroke-opacity:1; fill:none" points="192.339,1184.51 211.236,1184.51 "/>
<polyline clip-path="url(#clip790)" style="stroke:#000000; stroke-linecap:round; stroke-linejoin:round; stroke-width:4; stroke-opacity:1; fill:none" points="192.339,1014.16 211.236,1014.16 "/>
<polyline clip-path="url(#clip790)" style="stroke:#000000; stroke-linecap:round; stroke-linejoin:round; stroke-width:4; stroke-opacity:1; fill:none" points="192.339,843.816 211.236,843.816 "/>
<polyline clip-path="url(#clip790)" style="stroke:#000000; stroke-linecap:round; stroke-linejoin:round; stroke-width:4; stroke-opacity:1; fill:none" points="192.339,673.468 211.236,673.468 "/>
<polyline clip-path="url(#clip790)" style="stroke:#000000; stroke-linecap:round; stroke-linejoin:round; stroke-width:4; stroke-opacity:1; fill:none" points="192.339,503.121 211.236,503.121 "/>
<polyline clip-path="url(#clip790)" style="stroke:#000000; stroke-linecap:round; stroke-linejoin:round; stroke-width:4; stroke-opacity:1; fill:none" points="192.339,332.773 211.236,332.773 "/>
<polyline clip-path="url(#clip790)" style="stroke:#000000; stroke-linecap:round; stroke-linejoin:round; stroke-width:4; stroke-opacity:1; fill:none" points="192.339,162.425 211.236,162.425 "/>
<path clip-path="url(#clip790)" d="M50.9921 1355.31 L80.6679 1355.31 L80.6679 1359.25 L50.9921 1359.25 L50.9921 1355.31 Z" fill="#000000" fill-rule="nonzero" fill-opacity="1" /><path clip-path="url(#clip790)" d="M100.76 1340.66 Q97.1493 1340.66 95.3206 1344.22 Q93.515 1347.76 93.515 1354.89 Q93.515 1362 95.3206 1365.56 Q97.1493 1369.11 100.76 1369.11 Q104.395 1369.11 106.2 1365.56 Q108.029 1362 108.029 1354.89 Q108.029 1347.76 106.2 1344.22 Q104.395 1340.66 100.76 1340.66 M100.76 1336.95 Q106.571 1336.95 109.626 1341.56 Q112.705 1346.14 112.705 1354.89 Q112.705 1363.62 109.626 1368.23 Q106.571 1372.81 100.76 1372.81 Q94.9502 1372.81 91.8715 1368.23 Q88.816 1363.62 88.816 1354.89 Q88.816 1346.14 91.8715 1341.56 Q94.9502 1336.95 100.76 1336.95 Z" fill="#000000" fill-rule="nonzero" fill-opacity="1" /><path clip-path="url(#clip790)" d="M120.922 1366.26 L125.807 1366.26 L125.807 1372.14 L120.922 1372.14 L120.922 1366.26 Z" fill="#000000" fill-rule="nonzero" fill-opacity="1" /><path clip-path="url(#clip790)" d="M140.019 1368.2 L156.339 1368.2 L156.339 1372.14 L134.394 1372.14 L134.394 1368.2 Q137.056 1365.45 141.64 1360.82 Q146.246 1356.17 147.427 1354.82 Q149.672 1352.3 150.552 1350.56 Q151.455 1348.81 151.455 1347.12 Q151.455 1344.36 149.51 1342.62 Q147.589 1340.89 144.487 1340.89 Q142.288 1340.89 139.834 1341.65 Q137.404 1342.42 134.626 1343.97 L134.626 1339.25 Q137.45 1338.11 139.904 1337.53 Q142.357 1336.95 144.394 1336.95 Q149.765 1336.95 152.959 1339.64 Q156.154 1342.32 156.154 1346.81 Q156.154 1348.94 155.343 1350.87 Q154.556 1352.76 152.45 1355.36 Q151.871 1356.03 148.769 1359.25 Q145.668 1362.44 140.019 1368.2 Z" fill="#000000" fill-rule="nonzero" fill-opacity="1" /><path clip-path="url(#clip790)" d="M99.1632 1170.31 Q95.5521 1170.31 93.7234 1173.87 Q91.9178 1177.42 91.9178 1184.55 Q91.9178 1191.65 93.7234 1195.22 Q95.5521 1198.76 99.1632 1198.76 Q102.797 1198.76 104.603 1195.22 Q106.432 1191.65 106.432 1184.55 Q106.432 1177.42 104.603 1173.87 Q102.797 1170.31 99.1632 1170.31 M99.1632 1166.61 Q104.973 1166.61 108.029 1171.21 Q111.108 1175.8 111.108 1184.55 Q111.108 1193.27 108.029 1197.88 Q104.973 1202.46 99.1632 1202.46 Q93.353 1202.46 90.2743 1197.88 Q87.2188 1193.27 87.2188 1184.55 Q87.2188 1175.8 90.2743 1171.21 Q93.353 1166.61 99.1632 1166.61 Z" fill="#000000" fill-rule="nonzero" fill-opacity="1" /><path clip-path="url(#clip790)" d="M119.325 1195.91 L124.209 1195.91 L124.209 1201.79 L119.325 1201.79 L119.325 1195.91 Z" fill="#000000" fill-rule="nonzero" fill-opacity="1" /><path clip-path="url(#clip790)" d="M144.394 1170.31 Q140.783 1170.31 138.955 1173.87 Q137.149 1177.42 137.149 1184.55 Q137.149 1191.65 138.955 1195.22 Q140.783 1198.76 144.394 1198.76 Q148.029 1198.76 149.834 1195.22 Q151.663 1191.65 151.663 1184.55 Q151.663 1177.42 149.834 1173.87 Q148.029 1170.31 144.394 1170.31 M144.394 1166.61 Q150.205 1166.61 153.26 1171.21 Q156.339 1175.8 156.339 1184.55 Q156.339 1193.27 153.26 1197.88 Q150.205 1202.46 144.394 1202.46 Q138.584 1202.46 135.506 1197.88 Q132.45 1193.27 132.45 1184.55 Q132.45 1175.8 135.506 1171.21 Q138.584 1166.61 144.394 1166.61 Z" fill="#000000" fill-rule="nonzero" fill-opacity="1" /><path clip-path="url(#clip790)" d="M100.76 999.962 Q97.1493 999.962 95.3206 1003.53 Q93.515 1007.07 93.515 1014.2 Q93.515 1021.3 95.3206 1024.87 Q97.1493 1028.41 100.76 1028.41 Q104.395 1028.41 106.2 1024.87 Q108.029 1021.3 108.029 1014.2 Q108.029 1007.07 106.2 1003.53 Q104.395 999.962 100.76 999.962 M100.76 996.258 Q106.571 996.258 109.626 1000.86 Q112.705 1005.45 112.705 1014.2 Q112.705 1022.92 109.626 1027.53 Q106.571 1032.11 100.76 1032.11 Q94.9502 1032.11 91.8715 1027.53 Q88.816 1022.92 88.816 1014.2 Q88.816 1005.45 91.8715 1000.86 Q94.9502 996.258 100.76 996.258 Z" fill="#000000" fill-rule="nonzero" fill-opacity="1" /><path clip-path="url(#clip790)" d="M120.922 1025.56 L125.807 1025.56 L125.807 1031.44 L120.922 1031.44 L120.922 1025.56 Z" fill="#000000" fill-rule="nonzero" fill-opacity="1" /><path clip-path="url(#clip790)" d="M140.019 1027.51 L156.339 1027.51 L156.339 1031.44 L134.394 1031.44 L134.394 1027.51 Q137.056 1024.75 141.64 1020.12 Q146.246 1015.47 147.427 1014.13 Q149.672 1011.61 150.552 1009.87 Q151.455 1008.11 151.455 1006.42 Q151.455 1003.67 149.51 1001.93 Q147.589 1000.19 144.487 1000.19 Q142.288 1000.19 139.834 1000.96 Q137.404 1001.72 134.626 1003.27 L134.626 998.55 Q137.45 997.416 139.904 996.837 Q142.357 996.258 144.394 996.258 Q149.765 996.258 152.959 998.944 Q156.154 1001.63 156.154 1006.12 Q156.154 1008.25 155.343 1010.17 Q154.556 1012.07 152.45 1014.66 Q151.871 1015.33 148.769 1018.55 Q145.668 1021.74 140.019 1027.51 Z" fill="#000000" fill-rule="nonzero" fill-opacity="1" /><path clip-path="url(#clip790)" d="M98.6771 829.615 Q95.066 829.615 93.2373 833.179 Q91.4317 836.721 91.4317 843.851 Q91.4317 850.957 93.2373 854.522 Q95.066 858.063 98.6771 858.063 Q102.311 858.063 104.117 854.522 Q105.946 850.957 105.946 843.851 Q105.946 836.721 104.117 833.179 Q102.311 829.615 98.6771 829.615 M98.6771 825.911 Q104.487 825.911 107.543 830.517 Q110.621 835.101 110.621 843.851 Q110.621 852.577 107.543 857.184 Q104.487 861.767 98.6771 861.767 Q92.8669 861.767 89.7882 857.184 Q86.7327 852.577 86.7327 843.851 Q86.7327 835.101 89.7882 830.517 Q92.8669 825.911 98.6771 825.911 Z" fill="#000000" fill-rule="nonzero" fill-opacity="1" /><path clip-path="url(#clip790)" d="M118.839 855.216 L123.723 855.216 L123.723 861.096 L118.839 861.096 L118.839 855.216 Z" fill="#000000" fill-rule="nonzero" fill-opacity="1" /><path clip-path="url(#clip790)" d="M146.756 830.61 L134.95 849.059 L146.756 849.059 L146.756 830.61 M145.529 826.536 L151.408 826.536 L151.408 849.059 L156.339 849.059 L156.339 852.948 L151.408 852.948 L151.408 861.096 L146.756 861.096 L146.756 852.948 L131.154 852.948 L131.154 848.434 L145.529 826.536 Z" fill="#000000" fill-rule="nonzero" fill-opacity="1" /><path clip-path="url(#clip790)" d="M99.0011 659.267 Q95.39 659.267 93.5613 662.832 Q91.7558 666.373 91.7558 673.503 Q91.7558 680.609 93.5613 684.174 Q95.39 687.716 99.0011 687.716 Q102.635 687.716 104.441 684.174 Q106.27 680.609 106.27 673.503 Q106.27 666.373 104.441 662.832 Q102.635 659.267 99.0011 659.267 M99.0011 655.563 Q104.811 655.563 107.867 660.17 Q110.946 664.753 110.946 673.503 Q110.946 682.23 107.867 686.836 Q104.811 691.42 99.0011 691.42 Q93.191 691.42 90.1123 686.836 Q87.0567 682.23 87.0567 673.503 Q87.0567 664.753 90.1123 660.17 Q93.191 655.563 99.0011 655.563 Z" fill="#000000" fill-rule="nonzero" fill-opacity="1" /><path clip-path="url(#clip790)" d="M119.163 684.869 L124.047 684.869 L124.047 690.748 L119.163 690.748 L119.163 684.869 Z" fill="#000000" fill-rule="nonzero" fill-opacity="1" /><path clip-path="url(#clip790)" d="M144.811 671.605 Q141.663 671.605 139.811 673.758 Q137.982 675.91 137.982 679.66 Q137.982 683.387 139.811 685.563 Q141.663 687.716 144.811 687.716 Q147.959 687.716 149.788 685.563 Q151.64 683.387 151.64 679.66 Q151.64 675.91 149.788 673.758 Q147.959 671.605 144.811 671.605 M154.093 656.952 L154.093 661.211 Q152.334 660.378 150.529 659.938 Q148.746 659.498 146.987 659.498 Q142.357 659.498 139.904 662.623 Q137.473 665.748 137.126 672.068 Q138.492 670.054 140.552 668.989 Q142.612 667.901 145.089 667.901 Q150.297 667.901 153.306 671.072 Q156.339 674.221 156.339 679.66 Q156.339 684.984 153.191 688.202 Q150.043 691.42 144.811 691.42 Q138.816 691.42 135.644 686.836 Q132.473 682.23 132.473 673.503 Q132.473 665.309 136.362 660.447 Q140.251 655.563 146.802 655.563 Q148.561 655.563 150.343 655.91 Q152.149 656.258 154.093 656.952 Z" fill="#000000" fill-rule="nonzero" fill-opacity="1" /><path clip-path="url(#clip790)" d="M99.2558 488.919 Q95.6447 488.919 93.816 492.484 Q92.0104 496.026 92.0104 503.155 Q92.0104 510.262 93.816 513.827 Q95.6447 517.368 99.2558 517.368 Q102.89 517.368 104.696 513.827 Q106.524 510.262 106.524 503.155 Q106.524 496.026 104.696 492.484 Q102.89 488.919 99.2558 488.919 M99.2558 485.216 Q105.066 485.216 108.121 489.822 Q111.2 494.405 111.2 503.155 Q111.2 511.882 108.121 516.489 Q105.066 521.072 99.2558 521.072 Q93.4456 521.072 90.3669 516.489 Q87.3114 511.882 87.3114 503.155 Q87.3114 494.405 90.3669 489.822 Q93.4456 485.216 99.2558 485.216 Z" fill="#000000" fill-rule="nonzero" fill-opacity="1" /><path clip-path="url(#clip790)" d="M119.418 514.521 L124.302 514.521 L124.302 520.401 L119.418 520.401 L119.418 514.521 Z" fill="#000000" fill-rule="nonzero" fill-opacity="1" /><path clip-path="url(#clip790)" d="M144.487 503.989 Q141.154 503.989 139.232 505.771 Q137.334 507.553 137.334 510.678 Q137.334 513.803 139.232 515.586 Q141.154 517.368 144.487 517.368 Q147.82 517.368 149.742 515.586 Q151.663 513.78 151.663 510.678 Q151.663 507.553 149.742 505.771 Q147.843 503.989 144.487 503.989 M139.811 501.998 Q136.802 501.257 135.112 499.197 Q133.445 497.137 133.445 494.174 Q133.445 490.03 136.385 487.623 Q139.348 485.216 144.487 485.216 Q149.649 485.216 152.589 487.623 Q155.529 490.03 155.529 494.174 Q155.529 497.137 153.839 499.197 Q152.172 501.257 149.186 501.998 Q152.566 502.785 154.441 505.077 Q156.339 507.368 156.339 510.678 Q156.339 515.702 153.26 518.387 Q150.205 521.072 144.487 521.072 Q138.769 521.072 135.691 518.387 Q132.635 515.702 132.635 510.678 Q132.635 507.368 134.533 505.077 Q136.431 502.785 139.811 501.998 M138.098 494.614 Q138.098 497.299 139.765 498.804 Q141.455 500.308 144.487 500.308 Q147.496 500.308 149.186 498.804 Q150.899 497.299 150.899 494.614 Q150.899 491.929 149.186 490.424 Q147.496 488.919 144.487 488.919 Q141.455 488.919 139.765 490.424 Q138.098 491.929 138.098 494.614 Z" fill="#000000" fill-rule="nonzero" fill-opacity="1" /><path clip-path="url(#clip790)" d="M89.9734 346.118 L97.6122 346.118 L97.6122 319.752 L89.3021 321.419 L89.3021 317.16 L97.566 315.493 L102.242 315.493 L102.242 346.118 L109.881 346.118 L109.881 350.053 L89.9734 350.053 L89.9734 346.118 Z" fill="#000000" fill-rule="nonzero" fill-opacity="1" /><path clip-path="url(#clip790)" d="M119.325 344.173 L124.209 344.173 L124.209 350.053 L119.325 350.053 L119.325 344.173 Z" fill="#000000" fill-rule="nonzero" fill-opacity="1" /><path clip-path="url(#clip790)" d="M144.394 318.572 Q140.783 318.572 138.955 322.136 Q137.149 325.678 137.149 332.808 Q137.149 339.914 138.955 343.479 Q140.783 347.021 144.394 347.021 Q148.029 347.021 149.834 343.479 Q151.663 339.914 151.663 332.808 Q151.663 325.678 149.834 322.136 Q148.029 318.572 144.394 318.572 M144.394 314.868 Q150.205 314.868 153.26 319.474 Q156.339 324.058 156.339 332.808 Q156.339 341.535 153.26 346.141 Q150.205 350.724 144.394 350.724 Q138.584 350.724 135.506 346.141 Q132.45 341.535 132.45 332.808 Q132.45 324.058 135.506 319.474 Q138.584 314.868 144.394 314.868 Z" fill="#000000" fill-rule="nonzero" fill-opacity="1" /><path clip-path="url(#clip790)" d="M91.5706 175.77 L99.2095 175.77 L99.2095 149.405 L90.8993 151.071 L90.8993 146.812 L99.1632 145.145 L103.839 145.145 L103.839 175.77 L111.478 175.77 L111.478 179.705 L91.5706 179.705 L91.5706 175.77 Z" fill="#000000" fill-rule="nonzero" fill-opacity="1" /><path clip-path="url(#clip790)" d="M120.922 173.826 L125.807 173.826 L125.807 179.705 L120.922 179.705 L120.922 173.826 Z" fill="#000000" fill-rule="nonzero" fill-opacity="1" /><path clip-path="url(#clip790)" d="M140.019 175.77 L156.339 175.77 L156.339 179.705 L134.394 179.705 L134.394 175.77 Q137.056 173.016 141.64 168.386 Q146.246 163.733 147.427 162.391 Q149.672 159.868 150.552 158.131 Q151.455 156.372 151.455 154.682 Q151.455 151.928 149.51 150.192 Q147.589 148.456 144.487 148.456 Q142.288 148.456 139.834 149.219 Q137.404 149.983 134.626 151.534 L134.626 146.812 Q137.45 145.678 139.904 145.099 Q142.357 144.52 144.394 144.52 Q149.765 144.52 152.959 147.206 Q156.154 149.891 156.154 154.381 Q156.154 156.511 155.343 158.432 Q154.556 160.331 152.45 162.923 Q151.871 163.594 148.769 166.812 Q145.668 170.006 140.019 175.77 Z" fill="#000000" fill-rule="nonzero" fill-opacity="1" /><polyline clip-path="url(#clip792)" style="stroke:#009af9; stroke-linecap:round; stroke-linejoin:round; stroke-width:16; stroke-opacity:1; fill:none" stroke-dasharray="8, 16" points="253.483,1056.58 263.725,1112.23 273.966,1123.74 284.208,1092.47 294.45,1020.24 304.692,901.43 314.934,810.133 325.176,873.124 335.418,1041.1 345.659,1144.33 355.901,1154.71 366.143,1145.52 376.385,1162.69 386.627,1210.46 396.869,1264.43 407.111,1291.36 417.352,1288.85 427.594,1288.05 437.836,1309.82 448.078,1339.87 458.32,1352.67 468.562,1344.84 478.803,1338.16 489.045,1349.65 499.287,1346.94 509.529,1278.89 519.771,1191.38 530.013,1176.7 540.255,1216.86 550.497,1246.52 560.738,1243.08 570.98,1211.7 581.222,1151.28 591.464,1067.21 601.706,999.193 611.948,981.654 622.19,1004.88 632.431,1046.5 642.673,1075.96 652.915,1068.96 663.157,1042.36 673.399,1012.95 683.641,997.092 693.882,1015.87 704.124,1064.67 714.366,1122.46 724.608,1171.77 734.85,1203.06 745.092,1218.54 755.334,1228.12 765.575,1251.4 775.817,1291.27 786.059,1319.35 796.301,1325.35 806.543,1318.49 816.785,1315.31 827.027,1329.93 837.268,1357.11 847.51,1376.55 857.752,1374.74 867.994,1351.52 878.236,1285.22 888.478,1117.75 898.72,940.845 908.961,995.495 919.203,1180.98 929.445,1234.22 939.687,1152 949.929,1068.26 960.171,1064.31 970.413,1093.25 980.654,1064.7 990.896,1002.58 1001.14,1008.32 1011.38,1097.75 1021.62,1188.44 1031.86,1186.32 1042.11,1075.22 1052.35,925.687 1062.59,837.52 1072.83,903.845 1083.07,1104.5 1093.31,1321.87 1103.56,1445.72 1113.8,1437.14 1124.04,1318.48 1134.28,1195.64 1144.52,1203.56 1154.77,1296.86 1165.01,1346.42 1175.25,1353.55 1185.49,1386.58 1195.73,1404.8 1205.98,1364.92 1216.22,1291.98 1226.46,1230.9 1236.7,1212.97 1246.94,1240.19 1257.18,1201.18 1267.43,784.403 1277.67,221.49 1287.91,226.677 1298.15,408.422 1308.39,493.807 1318.64,482.745 1328.88,405.996 1339.12,310.871 1349.36,255.3 1359.6,274.742 1369.84,319.73 1380.09,298.949 1390.33,265.354 1400.57,309.259 1410.81,356.532 1421.05,303.401 1431.3,211.236 1441.54,175.655 1451.78,248.371 1462.02,415.584 1472.26,571.799 1482.51,591.144 1492.75,448.892 1502.99,250.784 1513.23,132.398 1523.47,160.963 1533.71,268.33 1543.96,350.643 1554.2,355.339 1564.44,322.223 1574.68,333.986 1584.92,387.893 1595.17,391.328 1605.41,298.118 1615.65,198.916 1625.89,241.884 1636.13,424.468 1646.38,524.861 1656.62,456.234 1666.86,384.815 1677.1,367.243 1687.34,365.144 1697.58,369.664 1707.83,377.032 1718.07,369.514 1728.31,334.643 1738.55,279.762 1748.79,224.764 1759.04,194.093 1769.28,220.552 1779.52,311.462 1789.76,410.917 1800,461.994 1810.24,451.904 1820.49,406.632 1830.73,359.113 1840.97,320.183 1851.21,286.312 1861.45,247.163 1871.7,209.67 1881.94,209.401 1892.18,258.48 1902.42,340.732 1912.66,441.356 1922.91,519.613 1933.15,541.442 1943.39,492.852 1953.63,370.307 1963.87,219.851 1974.11,114.755 1984.36,87.9763 1994.6,144.52 2004.84,284.881 2015.08,472.469 2025.32,607.457 2035.57,594.727 2045.81,479.533 2056.05,377.562 2066.29,310.641 2076.53,255.632 2086.77,211.308 2097.02,184.198 2107.26,181.594 2117.5,211.106 2127.74,273.501 2137.98,359.804 2148.23,455.18 2158.47,529.711 2168.71,546.968 2178.95,488.565 2189.19,360.071 2199.44,210.619 2209.68,150.385 2219.92,234.883 2230.16,330.781 2240.4,330.713 2250.64,324.127 2260.89,368.366 2271.13,420.772 2281.37,471.415 2291.61,544.68 "/>
<polyline clip-path="url(#clip792)" style="stroke:#e26f46; stroke-linecap:round; stroke-linejoin:round; stroke-width:4; stroke-opacity:1; fill:none" points="253.483,1056.58 263.725,1038.43 273.966,1025.05 284.208,1016.87 294.45,1014.16 304.692,1017.02 314.934,1025.34 325.176,1038.85 335.418,1057.12 345.659,1079.54 355.901,1105.4 366.143,1133.83 376.385,1163.92 386.627,1194.68 396.869,1225.11 407.111,1254.21 417.352,1281.04 427.594,1304.72 437.836,1324.47 448.078,1339.66 458.32,1349.78 468.562,1354.51 478.803,1353.69 489.045,1347.35 499.287,1335.7 509.529,1319.11 519.771,1298.12 530.013,1273.43 540.255,1245.84 550.497,1216.25 560.738,1185.62 570.98,1154.95 581.222,1125.25 591.464,1097.48 601.706,1072.56 611.948,1051.28 622.19,1034.36 632.431,1022.33 642.673,1015.6 652.915,1014.38 663.157,1018.72 673.399,1028.46 683.641,1043.3 693.882,1062.75 704.124,1086.17 714.366,1112.8 724.608,1141.77 734.85,1172.14 745.092,1202.91 755.334,1233.08 765.575,1261.66 775.817,1287.73 786.059,1310.42 796.301,1329.01 806.543,1342.88 816.785,1351.59 827.027,1354.84 837.268,1352.53 847.51,1344.74 857.752,1331.72 867.994,1313.89 878.236,1291.84 888.478,1266.29 898.72,1238.07 908.961,1208.1 919.203,1177.36 929.445,1146.86 939.687,1117.58 949.929,1090.49 960.171,1066.47 970.413,1046.3 980.654,1030.64 990.896,1020 1001.14,1014.73 1011.38,1015 1021.62,1020.81 1031.86,1031.96 1042.11,1048.08 1052.35,1068.66 1062.59,1093.02 1072.83,1120.37 1083.07,1149.81 1093.31,1180.38 1103.56,1211.09 1113.8,1240.93 1124.04,1268.93 1134.28,1294.17 1144.52,1315.84 1154.77,1333.21 1165.01,1345.74 1175.25,1353 1185.49,1354.77 1195.73,1350.97 1205.98,1341.75 1216.22,1327.39 1226.46,1308.37 1236.7,1285.31 1246.94,1258.95 1257.18,1230.17 1267.43,1199.9 1277.67,331.536 1287.91,330.128 1298.15,331.409 1308.39,335.675 1318.64,341.616 1328.88,346.724 1339.12,348.237 1349.36,344.307 1359.6,334.938 1369.84,322.307 1380.09,310.288 1390.33,303.266 1400.57,304.613 1410.81,315.326 1421.05,333.345 1431.3,353.852 1441.54,370.551 1451.78,377.595 1462.02,371.566 1472.26,352.856 1482.51,325.946 1492.75,298.367 1502.99,278.601 1513.23,273.48 1523.47,285.893 1533.71,313.548 1543.96,349.263 1554.2,382.813 1564.44,403.854 1574.68,405.1 1584.92,384.772 1595.17,347.516 1605.41,303.416 1615.65,265.269 1625.89,244.877 1636.13,249.411 1646.38,278.975 1656.62,326.173 1666.86,377.913 1677.1,419.041 1687.34,436.773 1697.58,424.647 1707.83,384.774 1718.07,327.625 1728.31,269.306 1738.55,227.02 1748.79,213.997 1759.04,235.381 1769.28,286.351 1779.52,353.124 1789.76,416.666 1800,458.122 1810.24,464.401 1820.49,432.279 1830.73,369.732 1840.97,294.005 1851.21,226.867 1861.45,188.351 1871.7,190.786 1881.94,234.892 1892.18,309.163 1902.42,392.842 1912.66,461.711 1922.91,495.106 1933.15,482.102 1943.39,425.036 1953.63,339.238 1963.87,248.931 1974.11,180.397 1984.36,154.327 1994.6,179.591 2004.84,250.29 2015.08,347.063 2025.32,442.374 2035.57,508.347 2045.81,524.919 2056.05,485.916 2066.29,401.242 2076.53,294.401 2086.77,195.983 2097.02,134.906 2107.26,129.924 2117.5,183.89 2127.74,282.529 2137.98,398.185 2148.23,497.574 2158.47,551.354 2168.71,542.791 2178.95,472.931 2189.19,360.703 2199.44,237.817 2209.68,139.797 2219.92,95.7216 2230.16,119.599 2240.4,205.959 2250.64,331.024 2260.89,459.244 2271.13,553.401 2281.37,585.408 2291.61,544.679 "/>
<path clip-path="url(#clip790)" d="M264.353 250.738 L707.222 250.738 L707.222 95.2176 L264.353 95.2176  Z" fill="#ffffff" fill-rule="evenodd" fill-opacity="1"/>
<polyline clip-path="url(#clip790)" style="stroke:#000000; stroke-linecap:round; stroke-linejoin:round; stroke-width:4; stroke-opacity:1; fill:none" points="264.353,250.738 707.222,250.738 707.222,95.2176 264.353,95.2176 264.353,250.738 "/>
<polyline clip-path="url(#clip790)" style="stroke:#009af9; stroke-linecap:round; stroke-linejoin:round; stroke-width:16; stroke-opacity:1; fill:none" stroke-dasharray="8, 16" points="288.357,147.058 432.385,147.058 "/>
<path clip-path="url(#clip790)" d="M461.066 133.62 L461.066 146.606 L466.945 146.606 Q470.209 146.606 471.992 144.916 Q473.774 143.227 473.774 140.102 Q473.774 137 471.992 135.31 Q470.209 133.62 466.945 133.62 L461.066 133.62 M456.39 129.778 L466.945 129.778 Q472.755 129.778 475.718 132.416 Q478.704 135.032 478.704 140.102 Q478.704 145.217 475.718 147.833 Q472.755 150.449 466.945 150.449 L461.066 150.449 L461.066 164.338 L456.39 164.338 L456.39 129.778 Z" fill="#000000" fill-rule="nonzero" fill-opacity="1" /><path clip-path="url(#clip790)" d="M498.982 142.393 Q498.265 141.977 497.408 141.791 Q496.575 141.583 495.556 141.583 Q491.945 141.583 490.001 143.944 Q488.079 146.282 488.079 150.68 L488.079 164.338 L483.797 164.338 L483.797 138.412 L488.079 138.412 L488.079 142.44 Q489.422 140.078 491.575 138.944 Q493.728 137.787 496.806 137.787 Q497.246 137.787 497.778 137.856 Q498.311 137.903 498.959 138.018 L498.982 142.393 Z" fill="#000000" fill-rule="nonzero" fill-opacity="1" /><path clip-path="url(#clip790)" d="M524.584 150.31 L524.584 152.393 L505.001 152.393 Q505.278 156.791 507.639 159.106 Q510.024 161.398 514.26 161.398 Q516.714 161.398 519.005 160.796 Q521.32 160.194 523.588 158.99 L523.588 163.018 Q521.297 163.99 518.889 164.5 Q516.482 165.009 514.005 165.009 Q507.802 165.009 504.167 161.398 Q500.556 157.787 500.556 151.629 Q500.556 145.264 503.982 141.537 Q507.431 137.787 513.264 137.787 Q518.496 137.787 521.528 141.166 Q524.584 144.523 524.584 150.31 M520.325 149.06 Q520.278 145.565 518.357 143.481 Q516.459 141.398 513.311 141.398 Q509.746 141.398 507.593 143.412 Q505.464 145.426 505.14 149.083 L520.325 149.06 Z" fill="#000000" fill-rule="nonzero" fill-opacity="1" /><path clip-path="url(#clip790)" d="M548.635 142.347 L548.635 128.319 L552.894 128.319 L552.894 164.338 L548.635 164.338 L548.635 160.449 Q547.292 162.763 545.232 163.898 Q543.195 165.009 540.325 165.009 Q535.625 165.009 532.663 161.259 Q529.723 157.509 529.723 151.398 Q529.723 145.287 532.663 141.537 Q535.625 137.787 540.325 137.787 Q543.195 137.787 545.232 138.921 Q547.292 140.032 548.635 142.347 M534.121 151.398 Q534.121 156.097 536.042 158.782 Q537.987 161.444 541.366 161.444 Q544.746 161.444 546.69 158.782 Q548.635 156.097 548.635 151.398 Q548.635 146.699 546.69 144.037 Q544.746 141.352 541.366 141.352 Q537.987 141.352 536.042 144.037 Q534.121 146.699 534.121 151.398 Z" fill="#000000" fill-rule="nonzero" fill-opacity="1" /><path clip-path="url(#clip790)" d="M561.667 138.412 L565.926 138.412 L565.926 164.338 L561.667 164.338 L561.667 138.412 M561.667 128.319 L565.926 128.319 L565.926 133.713 L561.667 133.713 L561.667 128.319 Z" fill="#000000" fill-rule="nonzero" fill-opacity="1" /><path clip-path="url(#clip790)" d="M593.496 139.407 L593.496 143.389 Q591.69 142.393 589.861 141.907 Q588.056 141.398 586.204 141.398 Q582.06 141.398 579.769 144.037 Q577.477 146.652 577.477 151.398 Q577.477 156.143 579.769 158.782 Q582.06 161.398 586.204 161.398 Q588.056 161.398 589.861 160.912 Q591.69 160.402 593.496 159.407 L593.496 163.342 Q591.713 164.176 589.792 164.592 Q587.894 165.009 585.741 165.009 Q579.884 165.009 576.435 161.328 Q572.986 157.648 572.986 151.398 Q572.986 145.055 576.459 141.421 Q579.954 137.787 586.019 137.787 Q587.986 137.787 589.861 138.203 Q591.736 138.597 593.496 139.407 Z" fill="#000000" fill-rule="nonzero" fill-opacity="1" /><path clip-path="url(#clip790)" d="M605.116 131.051 L605.116 138.412 L613.889 138.412 L613.889 141.722 L605.116 141.722 L605.116 155.796 Q605.116 158.967 605.972 159.87 Q606.852 160.773 609.514 160.773 L613.889 160.773 L613.889 164.338 L609.514 164.338 Q604.583 164.338 602.708 162.509 Q600.833 160.657 600.833 155.796 L600.833 141.722 L597.708 141.722 L597.708 138.412 L600.833 138.412 L600.833 131.051 L605.116 131.051 Z" fill="#000000" fill-rule="nonzero" fill-opacity="1" /><path clip-path="url(#clip790)" d="M619.491 138.412 L623.75 138.412 L623.75 164.338 L619.491 164.338 L619.491 138.412 M619.491 128.319 L623.75 128.319 L623.75 133.713 L619.491 133.713 L619.491 128.319 Z" fill="#000000" fill-rule="nonzero" fill-opacity="1" /><path clip-path="url(#clip790)" d="M642.708 141.398 Q639.282 141.398 637.292 144.083 Q635.301 146.745 635.301 151.398 Q635.301 156.051 637.268 158.736 Q639.259 161.398 642.708 161.398 Q646.111 161.398 648.102 158.713 Q650.092 156.027 650.092 151.398 Q650.092 146.791 648.102 144.106 Q646.111 141.398 642.708 141.398 M642.708 137.787 Q648.264 137.787 651.435 141.398 Q654.606 145.009 654.606 151.398 Q654.606 157.764 651.435 161.398 Q648.264 165.009 642.708 165.009 Q637.13 165.009 633.958 161.398 Q630.81 157.764 630.81 151.398 Q630.81 145.009 633.958 141.398 Q637.13 137.787 642.708 137.787 Z" fill="#000000" fill-rule="nonzero" fill-opacity="1" /><path clip-path="url(#clip790)" d="M683.217 148.689 L683.217 164.338 L678.958 164.338 L678.958 148.828 Q678.958 145.148 677.523 143.319 Q676.088 141.49 673.217 141.49 Q669.768 141.49 667.778 143.69 Q665.787 145.889 665.787 149.685 L665.787 164.338 L661.504 164.338 L661.504 138.412 L665.787 138.412 L665.787 142.44 Q667.315 140.102 669.375 138.944 Q671.458 137.787 674.166 137.787 Q678.634 137.787 680.926 140.565 Q683.217 143.319 683.217 148.689 Z" fill="#000000" fill-rule="nonzero" fill-opacity="1" /><polyline clip-path="url(#clip790)" style="stroke:#e26f46; stroke-linecap:round; stroke-linejoin:round; stroke-width:4; stroke-opacity:1; fill:none" points="288.357,198.898 432.385,198.898 "/>
<path clip-path="url(#clip790)" d="M456.39 181.618 L478.242 181.618 L478.242 185.553 L461.066 185.553 L461.066 195.784 L477.524 195.784 L477.524 199.719 L461.066 199.719 L461.066 212.242 L478.658 212.242 L478.658 216.178 L456.39 216.178 L456.39 181.618 Z" fill="#000000" fill-rule="nonzero" fill-opacity="1" /><path clip-path="url(#clip790)" d="M507.709 190.252 L498.334 202.867 L508.195 216.178 L503.172 216.178 L495.626 205.992 L488.079 216.178 L483.056 216.178 L493.126 202.613 L483.913 190.252 L488.936 190.252 L495.811 199.488 L502.686 190.252 L507.709 190.252 Z" fill="#000000" fill-rule="nonzero" fill-opacity="1" /><path clip-path="url(#clip790)" d="M525.996 203.145 Q520.834 203.145 518.843 204.326 Q516.852 205.506 516.852 208.354 Q516.852 210.622 518.334 211.965 Q519.838 213.284 522.408 213.284 Q525.95 213.284 528.079 210.784 Q530.232 208.261 530.232 204.094 L530.232 203.145 L525.996 203.145 M534.491 201.386 L534.491 216.178 L530.232 216.178 L530.232 212.242 Q528.774 214.603 526.598 215.738 Q524.422 216.849 521.274 216.849 Q517.292 216.849 514.931 214.627 Q512.593 212.381 512.593 208.631 Q512.593 204.256 515.51 202.034 Q518.45 199.812 524.26 199.812 L530.232 199.812 L530.232 199.395 Q530.232 196.455 528.288 194.858 Q526.366 193.238 522.871 193.238 Q520.649 193.238 518.542 193.77 Q516.436 194.303 514.491 195.367 L514.491 191.432 Q516.829 190.53 519.028 190.09 Q521.227 189.627 523.311 189.627 Q528.936 189.627 531.713 192.543 Q534.491 195.46 534.491 201.386 Z" fill="#000000" fill-rule="nonzero" fill-opacity="1" /><path clip-path="url(#clip790)" d="M561.922 191.247 L561.922 195.229 Q560.116 194.233 558.287 193.747 Q556.482 193.238 554.63 193.238 Q550.486 193.238 548.195 195.877 Q545.903 198.492 545.903 203.238 Q545.903 207.983 548.195 210.622 Q550.486 213.238 554.63 213.238 Q556.482 213.238 558.287 212.752 Q560.116 212.242 561.922 211.247 L561.922 215.182 Q560.139 216.016 558.218 216.432 Q556.32 216.849 554.167 216.849 Q548.311 216.849 544.862 213.168 Q541.412 209.488 541.412 203.238 Q541.412 196.895 544.885 193.261 Q548.38 189.627 554.445 189.627 Q556.412 189.627 558.287 190.043 Q560.162 190.437 561.922 191.247 Z" fill="#000000" fill-rule="nonzero" fill-opacity="1" /><path clip-path="url(#clip790)" d="M573.542 182.891 L573.542 190.252 L582.315 190.252 L582.315 193.562 L573.542 193.562 L573.542 207.636 Q573.542 210.807 574.398 211.71 Q575.278 212.613 577.94 212.613 L582.315 212.613 L582.315 216.178 L577.94 216.178 Q573.01 216.178 571.135 214.349 Q569.26 212.497 569.26 207.636 L569.26 193.562 L566.135 193.562 L566.135 190.252 L569.26 190.252 L569.26 182.891 L573.542 182.891 Z" fill="#000000" fill-rule="nonzero" fill-opacity="1" /></svg>
