<?xml version="1.0" encoding="utf-8"?>
<svg xmlns="http://www.w3.org/2000/svg" xmlns:xlink="http://www.w3.org/1999/xlink" width="600" height="400" viewBox="0 0 2400 1600">
<defs>
  <clipPath id="clip850">
    <rect x="0" y="0" width="2400" height="1600"/>
  </clipPath>
</defs>
<path clip-path="url(#clip850)" d="M0 1600 L2400 1600 L2400 0 L0 0  Z" fill="#ffffff" fill-rule="evenodd" fill-opacity="1"/>
<defs>
  <clipPath id="clip851">
    <rect x="480" y="0" width="1681" height="1600"/>
  </clipPath>
</defs>
<path clip-path="url(#clip850)" d="M156.274 1486.45 L2352.76 1486.45 L2352.76 47.2441 L156.274 47.2441  Z" fill="#ffffff" fill-rule="evenodd" fill-opacity="1"/>
<defs>
  <clipPath id="clip852">
    <rect x="156" y="47" width="2197" height="1440"/>
  </clipPath>
</defs>
<polyline clip-path="url(#clip852)" style="stroke:#000000; stroke-linecap:round; stroke-linejoin:round; stroke-width:2; stroke-opacity:0.1; fill:none" points="218.439,1486.45 218.439,47.2441 "/>
<polyline clip-path="url(#clip852)" style="stroke:#000000; stroke-linecap:round; stroke-linejoin:round; stroke-width:2; stroke-opacity:0.1; fill:none" points="736.477,1486.45 736.477,47.2441 "/>
<polyline clip-path="url(#clip852)" style="stroke:#000000; stroke-linecap:round; stroke-linejoin:round; stroke-width:2; stroke-opacity:0.1; fill:none" points="1254.52,1486.45 1254.52,47.2441 "/>
<polyline clip-path="url(#clip852)" style="stroke:#000000; stroke-linecap:round; stroke-linejoin:round; stroke-width:2; stroke-opacity:0.1; fill:none" points="1772.55,1486.45 1772.55,47.2441 "/>
<polyline clip-path="url(#clip852)" style="stroke:#000000; stroke-linecap:round; stroke-linejoin:round; stroke-width:2; stroke-opacity:0.1; fill:none" points="2290.59,1486.45 2290.59,47.2441 "/>
<polyline clip-path="url(#clip850)" style="stroke:#000000; stroke-linecap:round; stroke-linejoin:round; stroke-width:4; stroke-opacity:1; fill:none" points="156.274,1486.45 2352.76,1486.45 "/>
<polyline clip-path="url(#clip850)" style="stroke:#000000; stroke-linecap:round; stroke-linejoin:round; stroke-width:4; stroke-opacity:1; fill:none" points="218.439,1486.45 218.439,1467.55 "/>
<polyline clip-path="url(#clip850)" style="stroke:#000000; stroke-linecap:round; stroke-linejoin:round; stroke-width:4; stroke-opacity:1; fill:none" points="736.477,1486.45 736.477,1467.55 "/>
<polyline clip-path="url(#clip850)" style="stroke:#000000; stroke-linecap:round; stroke-linejoin:round; stroke-width:4; stroke-opacity:1; fill:none" points="1254.52,1486.45 1254.52,1467.55 "/>
<polyline clip-path="url(#clip850)" style="stroke:#000000; stroke-linecap:round; stroke-linejoin:round; stroke-width:4; stroke-opacity:1; fill:none" points="1772.55,1486.45 1772.55,1467.55 "/>
<polyline clip-path="url(#clip850)" style="stroke:#000000; stroke-linecap:round; stroke-linejoin:round; stroke-width:4; stroke-opacity:1; fill:none" points="2290.59,1486.45 2290.59,1467.55 "/>
<path clip-path="url(#clip850)" d="M164.967 1532.02 L194.643 1532.02 L194.643 1535.95 L164.967 1535.95 L164.967 1532.02 Z" fill="#000000" fill-rule="nonzero" fill-opacity="1" /><path clip-path="url(#clip850)" d="M205.545 1544.91 L213.184 1544.91 L213.184 1518.55 L204.874 1520.21 L204.874 1515.95 L213.138 1514.29 L217.814 1514.29 L217.814 1544.91 L225.453 1544.91 L225.453 1548.85 L205.545 1548.85 L205.545 1544.91 Z" fill="#000000" fill-rule="nonzero" fill-opacity="1" /><path clip-path="url(#clip850)" d="M234.897 1542.97 L239.781 1542.97 L239.781 1548.85 L234.897 1548.85 L234.897 1542.97 Z" fill="#000000" fill-rule="nonzero" fill-opacity="1" /><path clip-path="url(#clip850)" d="M259.966 1517.37 Q256.355 1517.37 254.527 1520.93 Q252.721 1524.47 252.721 1531.6 Q252.721 1538.71 254.527 1542.27 Q256.355 1545.82 259.966 1545.82 Q263.601 1545.82 265.406 1542.27 Q267.235 1538.71 267.235 1531.6 Q267.235 1524.47 265.406 1520.93 Q263.601 1517.37 259.966 1517.37 M259.966 1513.66 Q265.776 1513.66 268.832 1518.27 Q271.911 1522.85 271.911 1531.6 Q271.911 1540.33 268.832 1544.94 Q265.776 1549.52 259.966 1549.52 Q254.156 1549.52 251.077 1544.94 Q248.022 1540.33 248.022 1531.6 Q248.022 1522.85 251.077 1518.27 Q254.156 1513.66 259.966 1513.66 Z" fill="#000000" fill-rule="nonzero" fill-opacity="1" /><path clip-path="url(#clip850)" d="M683.503 1532.02 L713.178 1532.02 L713.178 1535.95 L683.503 1535.95 L683.503 1532.02 Z" fill="#000000" fill-rule="nonzero" fill-opacity="1" /><path clip-path="url(#clip850)" d="M733.271 1517.37 Q729.66 1517.37 727.831 1520.93 Q726.026 1524.47 726.026 1531.6 Q726.026 1538.71 727.831 1542.27 Q729.66 1545.82 733.271 1545.82 Q736.905 1545.82 738.711 1542.27 Q740.539 1538.71 740.539 1531.6 Q740.539 1524.47 738.711 1520.93 Q736.905 1517.37 733.271 1517.37 M733.271 1513.66 Q739.081 1513.66 742.137 1518.27 Q745.215 1522.85 745.215 1531.6 Q745.215 1540.33 742.137 1544.94 Q739.081 1549.52 733.271 1549.52 Q727.461 1549.52 724.382 1544.94 Q721.327 1540.33 721.327 1531.6 Q721.327 1522.85 724.382 1518.27 Q727.461 1513.66 733.271 1513.66 Z" fill="#000000" fill-rule="nonzero" fill-opacity="1" /><path clip-path="url(#clip850)" d="M753.433 1542.97 L758.317 1542.97 L758.317 1548.85 L753.433 1548.85 L753.433 1542.97 Z" fill="#000000" fill-rule="nonzero" fill-opacity="1" /><path clip-path="url(#clip850)" d="M768.548 1514.29 L786.905 1514.29 L786.905 1518.22 L772.831 1518.22 L772.831 1526.7 Q773.849 1526.35 774.868 1526.19 Q775.886 1526 776.905 1526 Q782.692 1526 786.072 1529.17 Q789.451 1532.34 789.451 1537.76 Q789.451 1543.34 785.979 1546.44 Q782.507 1549.52 776.187 1549.52 Q774.011 1549.52 771.743 1549.15 Q769.498 1548.78 767.09 1548.04 L767.09 1543.34 Q769.173 1544.47 771.396 1545.03 Q773.618 1545.58 776.095 1545.58 Q780.099 1545.58 782.437 1543.48 Q784.775 1541.37 784.775 1537.76 Q784.775 1534.15 782.437 1532.04 Q780.099 1529.94 776.095 1529.94 Q774.22 1529.94 772.345 1530.35 Q770.493 1530.77 768.548 1531.65 L768.548 1514.29 Z" fill="#000000" fill-rule="nonzero" fill-opacity="1" /><path clip-path="url(#clip850)" d="M1231.9 1517.37 Q1228.29 1517.37 1226.46 1520.93 Q1224.65 1524.47 1224.65 1531.6 Q1224.65 1538.71 1226.46 1542.27 Q1228.29 1545.82 1231.9 1545.82 Q1235.53 1545.82 1237.34 1542.27 Q1239.17 1538.71 1239.17 1531.6 Q1239.17 1524.47 1237.34 1520.93 Q1235.53 1517.37 1231.9 1517.37 M1231.9 1513.66 Q1237.71 1513.66 1240.77 1518.27 Q1243.84 1522.85 1243.84 1531.6 Q1243.84 1540.33 1240.77 1544.94 Q1237.71 1549.52 1231.9 1549.52 Q1226.09 1549.52 1223.01 1544.94 Q1219.96 1540.33 1219.96 1531.6 Q1219.96 1522.85 1223.01 1518.27 Q1226.09 1513.66 1231.9 1513.66 Z" fill="#000000" fill-rule="nonzero" fill-opacity="1" /><path clip-path="url(#clip850)" d="M1252.06 1542.97 L1256.95 1542.97 L1256.95 1548.85 L1252.06 1548.85 L1252.06 1542.97 Z" fill="#000000" fill-rule="nonzero" fill-opacity="1" /><path clip-path="url(#clip850)" d="M1277.13 1517.37 Q1273.52 1517.37 1271.69 1520.93 Q1269.89 1524.47 1269.89 1531.6 Q1269.89 1538.71 1271.69 1542.27 Q1273.52 1545.82 1277.13 1545.82 Q1280.76 1545.82 1282.57 1542.27 Q1284.4 1538.71 1284.4 1531.6 Q1284.4 1524.47 1282.57 1520.93 Q1280.76 1517.37 1277.13 1517.37 M1277.13 1513.66 Q1282.94 1513.66 1286 1518.27 Q1289.08 1522.85 1289.08 1531.6 Q1289.08 1540.33 1286 1544.94 Q1282.94 1549.52 1277.13 1549.52 Q1271.32 1549.52 1268.24 1544.94 Q1265.19 1540.33 1265.19 1531.6 Q1265.19 1522.85 1268.24 1518.27 Q1271.32 1513.66 1277.13 1513.66 Z" fill="#000000" fill-rule="nonzero" fill-opacity="1" /><path clip-path="url(#clip850)" d="M1750.44 1517.37 Q1746.82 1517.37 1745 1520.93 Q1743.19 1524.47 1743.19 1531.6 Q1743.19 1538.71 1745 1542.27 Q1746.82 1545.82 1750.44 1545.82 Q1754.07 1545.82 1755.88 1542.27 Q1757.7 1538.71 1757.7 1531.6 Q1757.7 1524.47 1755.88 1520.93 Q1754.07 1517.37 1750.44 1517.37 M1750.44 1513.66 Q1756.25 1513.66 1759.3 1518.27 Q1762.38 1522.85 1762.38 1531.6 Q1762.38 1540.33 1759.3 1544.94 Q1756.25 1549.52 1750.44 1549.52 Q1744.63 1549.52 1741.55 1544.94 Q1738.49 1540.33 1738.49 1531.6 Q1738.49 1522.85 1741.55 1518.27 Q1744.63 1513.66 1750.44 1513.66 Z" fill="#000000" fill-rule="nonzero" fill-opacity="1" /><path clip-path="url(#clip850)" d="M1770.6 1542.97 L1775.48 1542.97 L1775.48 1548.85 L1770.6 1548.85 L1770.6 1542.97 Z" fill="#000000" fill-rule="nonzero" fill-opacity="1" /><path clip-path="url(#clip850)" d="M1785.71 1514.29 L1804.07 1514.29 L1804.07 1518.22 L1790 1518.22 L1790 1526.7 Q1791.01 1526.35 1792.03 1526.19 Q1793.05 1526 1794.07 1526 Q1799.86 1526 1803.24 1529.17 Q1806.62 1532.34 1806.62 1537.76 Q1806.62 1543.34 1803.14 1546.44 Q1799.67 1549.52 1793.35 1549.52 Q1791.18 1549.52 1788.91 1549.15 Q1786.66 1548.78 1784.25 1548.04 L1784.25 1543.34 Q1786.34 1544.47 1788.56 1545.03 Q1790.78 1545.58 1793.26 1545.58 Q1797.26 1545.58 1799.6 1543.48 Q1801.94 1541.37 1801.94 1537.76 Q1801.94 1534.15 1799.6 1532.04 Q1797.26 1529.94 1793.26 1529.94 Q1791.38 1529.94 1789.51 1530.35 Q1787.66 1530.77 1785.71 1531.65 L1785.71 1514.29 Z" fill="#000000" fill-rule="nonzero" fill-opacity="1" /><path clip-path="url(#clip850)" d="M2257.74 1544.91 L2265.38 1544.91 L2265.38 1518.55 L2257.07 1520.21 L2257.07 1515.95 L2265.34 1514.29 L2270.01 1514.29 L2270.01 1544.91 L2277.65 1544.91 L2277.65 1548.85 L2257.74 1548.85 L2257.74 1544.91 Z" fill="#000000" fill-rule="nonzero" fill-opacity="1" /><path clip-path="url(#clip850)" d="M2287.1 1542.97 L2291.98 1542.97 L2291.98 1548.85 L2287.1 1548.85 L2287.1 1542.97 Z" fill="#000000" fill-rule="nonzero" fill-opacity="1" /><path clip-path="url(#clip850)" d="M2312.17 1517.37 Q2308.55 1517.37 2306.73 1520.93 Q2304.92 1524.47 2304.92 1531.6 Q2304.92 1538.71 2306.73 1542.27 Q2308.55 1545.82 2312.17 1545.82 Q2315.8 1545.82 2317.61 1542.27 Q2319.43 1538.71 2319.43 1531.6 Q2319.43 1524.47 2317.61 1520.93 Q2315.8 1517.37 2312.17 1517.37 M2312.17 1513.66 Q2317.98 1513.66 2321.03 1518.27 Q2324.11 1522.85 2324.11 1531.6 Q2324.11 1540.33 2321.03 1544.94 Q2317.98 1549.52 2312.17 1549.52 Q2306.36 1549.52 2303.28 1544.94 Q2300.22 1540.33 2300.22 1531.6 Q2300.22 1522.85 2303.28 1518.27 Q2306.36 1513.66 2312.17 1513.66 Z" fill="#000000" fill-rule="nonzero" fill-opacity="1" /><polyline clip-path="url(#clip852)" style="stroke:#000000; stroke-linecap:round; stroke-linejoin:round; stroke-width:2; stroke-opacity:0.1; fill:none" points="156.274,1235.98 2352.76,1235.98 "/>
<polyline clip-path="url(#clip852)" style="stroke:#000000; stroke-linecap:round; stroke-linejoin:round; stroke-width:2; stroke-opacity:0.1; fill:none" points="156.274,966.562 2352.76,966.562 "/>
<polyline clip-path="url(#clip852)" style="stroke:#000000; stroke-linecap:round; stroke-linejoin:round; stroke-width:2; stroke-opacity:0.1; fill:none" points="156.274,697.144 2352.76,697.144 "/>
<polyline clip-path="url(#clip852)" style="stroke:#000000; stroke-linecap:round; stroke-linejoin:round; stroke-width:2; stroke-opacity:0.1; fill:none" points="156.274,427.726 2352.76,427.726 "/>
<polyline clip-path="url(#clip852)" style="stroke:#000000; stroke-linecap:round; stroke-linejoin:round; stroke-width:2; stroke-opacity:0.1; fill:none" points="156.274,158.308 2352.76,158.308 "/>
<polyline clip-path="url(#clip850)" style="stroke:#000000; stroke-linecap:round; stroke-linejoin:round; stroke-width:4; stroke-opacity:1; fill:none" points="156.274,1486.45 156.274,47.2441 "/>
<polyline clip-path="url(#clip850)" style="stroke:#000000; stroke-linecap:round; stroke-linejoin:round; stroke-width:4; stroke-opacity:1; fill:none" points="156.274,1235.98 175.172,1235.98 "/>
<polyline clip-path="url(#clip850)" style="stroke:#000000; stroke-linecap:round; stroke-linejoin:round; stroke-width:4; stroke-opacity:1; fill:none" points="156.274,966.562 175.172,966.562 "/>
<polyline clip-path="url(#clip850)" style="stroke:#000000; stroke-linecap:round; stroke-linejoin:round; stroke-width:4; stroke-opacity:1; fill:none" points="156.274,697.144 175.172,697.144 "/>
<polyline clip-path="url(#clip850)" style="stroke:#000000; stroke-linecap:round; stroke-linejoin:round; stroke-width:4; stroke-opacity:1; fill:none" points="156.274,427.726 175.172,427.726 "/>
<polyline clip-path="url(#clip850)" style="stroke:#000000; stroke-linecap:round; stroke-linejoin:round; stroke-width:4; stroke-opacity:1; fill:none" points="156.274,158.308 175.172,158.308 "/>
<path clip-path="url(#clip850)" d="M63.0985 1221.78 Q59.4875 1221.78 57.6588 1225.34 Q55.8532 1228.89 55.8532 1236.02 Q55.8532 1243.12 57.6588 1246.69 Q59.4875 1250.23 63.0985 1250.23 Q66.7328 1250.23 68.5383 1246.69 Q70.367 1243.12 70.367 1236.02 Q70.367 1228.89 68.5383 1225.34 Q66.7328 1221.78 63.0985 1221.78 M63.0985 1218.08 Q68.9087 1218.08 71.9642 1222.68 Q75.0429 1227.27 75.0429 1236.02 Q75.0429 1244.74 71.9642 1249.35 Q68.9087 1253.93 63.0985 1253.93 Q57.2884 1253.93 54.2097 1249.35 Q51.1542 1244.74 51.1542 1236.02 Q51.1542 1227.27 54.2097 1222.68 Q57.2884 1218.08 63.0985 1218.08 Z" fill="#000000" fill-rule="nonzero" fill-opacity="1" /><path clip-path="url(#clip850)" d="M83.2605 1247.38 L88.1447 1247.38 L88.1447 1253.26 L83.2605 1253.26 L83.2605 1247.38 Z" fill="#000000" fill-rule="nonzero" fill-opacity="1" /><path clip-path="url(#clip850)" d="M108.33 1221.78 Q104.719 1221.78 102.89 1225.34 Q101.084 1228.89 101.084 1236.02 Q101.084 1243.12 102.89 1246.69 Q104.719 1250.23 108.33 1250.23 Q111.964 1250.23 113.77 1246.69 Q115.598 1243.12 115.598 1236.02 Q115.598 1228.89 113.77 1225.34 Q111.964 1221.78 108.33 1221.78 M108.33 1218.08 Q114.14 1218.08 117.195 1222.68 Q120.274 1227.27 120.274 1236.02 Q120.274 1244.74 117.195 1249.35 Q114.14 1253.93 108.33 1253.93 Q102.52 1253.93 99.4409 1249.35 Q96.3854 1244.74 96.3854 1236.02 Q96.3854 1227.27 99.4409 1222.68 Q102.52 1218.08 108.33 1218.08 Z" fill="#000000" fill-rule="nonzero" fill-opacity="1" /><path clip-path="url(#clip850)" d="M63.7467 952.361 Q60.1356 952.361 58.3069 955.926 Q56.5014 959.467 56.5014 966.597 Q56.5014 973.703 58.3069 977.268 Q60.1356 980.81 63.7467 980.81 Q67.3809 980.81 69.1865 977.268 Q71.0152 973.703 71.0152 966.597 Q71.0152 959.467 69.1865 955.926 Q67.3809 952.361 63.7467 952.361 M63.7467 948.657 Q69.5568 948.657 72.6124 953.264 Q75.6911 957.847 75.6911 966.597 Q75.6911 975.324 72.6124 979.93 Q69.5568 984.514 63.7467 984.514 Q57.9365 984.514 54.8578 979.93 Q51.8023 975.324 51.8023 966.597 Q51.8023 957.847 54.8578 953.264 Q57.9365 948.657 63.7467 948.657 Z" fill="#000000" fill-rule="nonzero" fill-opacity="1" /><path clip-path="url(#clip850)" d="M83.9086 977.963 L88.7928 977.963 L88.7928 983.842 L83.9086 983.842 L83.9086 977.963 Z" fill="#000000" fill-rule="nonzero" fill-opacity="1" /><path clip-path="url(#clip850)" d="M113.145 965.208 Q116.501 965.926 118.376 968.194 Q120.274 970.463 120.274 973.796 Q120.274 978.912 116.756 981.713 Q113.237 984.514 106.756 984.514 Q104.58 984.514 102.265 984.074 Q99.9733 983.657 97.5197 982.801 L97.5197 978.287 Q99.4641 979.421 101.779 980 Q104.094 980.578 106.617 980.578 Q111.015 980.578 113.307 978.842 Q115.621 977.106 115.621 973.796 Q115.621 970.741 113.469 969.028 Q111.339 967.291 107.52 967.291 L103.492 967.291 L103.492 963.449 L107.705 963.449 Q111.154 963.449 112.983 962.083 Q114.811 960.694 114.811 958.102 Q114.811 955.44 112.913 954.028 Q111.038 952.592 107.52 952.592 Q105.598 952.592 103.399 953.009 Q101.2 953.426 98.5613 954.305 L98.5613 950.139 Q101.223 949.398 103.538 949.028 Q105.876 948.657 107.936 948.657 Q113.26 948.657 116.362 951.088 Q119.464 953.495 119.464 957.616 Q119.464 960.486 117.82 962.477 Q116.177 964.444 113.145 965.208 Z" fill="#000000" fill-rule="nonzero" fill-opacity="1" /><path clip-path="url(#clip850)" d="M62.9365 682.943 Q59.3254 682.943 57.4967 686.508 Q55.6912 690.049 55.6912 697.179 Q55.6912 704.285 57.4967 707.85 Q59.3254 711.392 62.9365 711.392 Q66.5707 711.392 68.3763 707.85 Q70.205 704.285 70.205 697.179 Q70.205 690.049 68.3763 686.508 Q66.5707 682.943 62.9365 682.943 M62.9365 679.239 Q68.7467 679.239 71.8022 683.846 Q74.8809 688.429 74.8809 697.179 Q74.8809 705.906 71.8022 710.512 Q68.7467 715.095 62.9365 715.095 Q57.1264 715.095 54.0477 710.512 Q50.9921 705.906 50.9921 697.179 Q50.9921 688.429 54.0477 683.846 Q57.1264 679.239 62.9365 679.239 Z" fill="#000000" fill-rule="nonzero" fill-opacity="1" /><path clip-path="url(#clip850)" d="M83.0984 708.545 L87.9827 708.545 L87.9827 714.424 L83.0984 714.424 L83.0984 708.545 Z" fill="#000000" fill-rule="nonzero" fill-opacity="1" /><path clip-path="url(#clip850)" d="M108.746 695.281 Q105.598 695.281 103.746 697.433 Q101.918 699.586 101.918 703.336 Q101.918 707.063 103.746 709.239 Q105.598 711.392 108.746 711.392 Q111.895 711.392 113.723 709.239 Q115.575 707.063 115.575 703.336 Q115.575 699.586 113.723 697.433 Q111.895 695.281 108.746 695.281 M118.029 680.628 L118.029 684.887 Q116.27 684.054 114.464 683.614 Q112.682 683.174 110.922 683.174 Q106.293 683.174 103.839 686.299 Q101.409 689.424 101.061 695.744 Q102.427 693.73 104.487 692.665 Q106.547 691.577 109.024 691.577 Q114.233 691.577 117.242 694.748 Q120.274 697.896 120.274 703.336 Q120.274 708.66 117.126 711.878 Q113.978 715.095 108.746 715.095 Q102.751 715.095 99.5798 710.512 Q96.4085 705.906 96.4085 697.179 Q96.4085 688.984 100.297 684.123 Q104.186 679.239 110.737 679.239 Q112.496 679.239 114.279 679.586 Q116.084 679.934 118.029 680.628 Z" fill="#000000" fill-rule="nonzero" fill-opacity="1" /><path clip-path="url(#clip850)" d="M63.2837 413.525 Q59.6726 413.525 57.8439 417.089 Q56.0384 420.631 56.0384 427.761 Q56.0384 434.867 57.8439 438.432 Q59.6726 441.974 63.2837 441.974 Q66.918 441.974 68.7235 438.432 Q70.5522 434.867 70.5522 427.761 Q70.5522 420.631 68.7235 417.089 Q66.918 413.525 63.2837 413.525 M63.2837 409.821 Q69.0939 409.821 72.1494 414.427 Q75.2281 419.011 75.2281 427.761 Q75.2281 436.488 72.1494 441.094 Q69.0939 445.677 63.2837 445.677 Q57.4736 445.677 54.3949 441.094 Q51.3393 436.488 51.3393 427.761 Q51.3393 419.011 54.3949 414.427 Q57.4736 409.821 63.2837 409.821 Z" fill="#000000" fill-rule="nonzero" fill-opacity="1" /><path clip-path="url(#clip850)" d="M83.4457 439.126 L88.3299 439.126 L88.3299 445.006 L83.4457 445.006 L83.4457 439.126 Z" fill="#000000" fill-rule="nonzero" fill-opacity="1" /><path clip-path="url(#clip850)" d="M98.6539 444.288 L98.6539 440.029 Q100.413 440.862 102.219 441.302 Q104.024 441.742 105.76 441.742 Q110.39 441.742 112.82 438.64 Q115.274 435.515 115.621 429.173 Q114.279 431.163 112.219 432.228 Q110.158 433.293 107.658 433.293 Q102.473 433.293 99.4409 430.168 Q96.4317 427.02 96.4317 421.58 Q96.4317 416.256 99.5798 413.039 Q102.728 409.821 107.959 409.821 Q113.955 409.821 117.103 414.427 Q120.274 419.011 120.274 427.761 Q120.274 435.932 116.385 440.816 Q112.52 445.677 105.969 445.677 Q104.209 445.677 102.404 445.33 Q100.598 444.983 98.6539 444.288 M107.959 429.636 Q111.108 429.636 112.936 427.483 Q114.788 425.33 114.788 421.58 Q114.788 417.853 112.936 415.701 Q111.108 413.525 107.959 413.525 Q104.811 413.525 102.959 415.701 Q101.131 417.853 101.131 421.58 Q101.131 425.33 102.959 427.483 Q104.811 429.636 107.959 429.636 Z" fill="#000000" fill-rule="nonzero" fill-opacity="1" /><path clip-path="url(#clip850)" d="M55.506 171.653 L63.1448 171.653 L63.1448 145.287 L54.8347 146.954 L54.8347 142.694 L63.0985 141.028 L67.7744 141.028 L67.7744 171.653 L75.4133 171.653 L75.4133 175.588 L55.506 175.588 L55.506 171.653 Z" fill="#000000" fill-rule="nonzero" fill-opacity="1" /><path clip-path="url(#clip850)" d="M84.8577 169.708 L89.7419 169.708 L89.7419 175.588 L84.8577 175.588 L84.8577 169.708 Z" fill="#000000" fill-rule="nonzero" fill-opacity="1" /><path clip-path="url(#clip850)" d="M103.955 171.653 L120.274 171.653 L120.274 175.588 L98.3298 175.588 L98.3298 171.653 Q100.992 168.898 105.575 164.268 Q110.182 159.616 111.362 158.273 Q113.608 155.75 114.487 154.014 Q115.39 152.255 115.39 150.565 Q115.39 147.81 113.445 146.074 Q111.524 144.338 108.422 144.338 Q106.223 144.338 103.77 145.102 Q101.339 145.866 98.5613 147.417 L98.5613 142.694 Q101.385 141.56 103.839 140.982 Q106.293 140.403 108.33 140.403 Q113.7 140.403 116.895 143.088 Q120.089 145.773 120.089 150.264 Q120.089 152.393 119.279 154.315 Q118.492 156.213 116.385 158.806 Q115.807 159.477 112.705 162.694 Q109.603 165.889 103.955 171.653 Z" fill="#000000" fill-rule="nonzero" fill-opacity="1" /><polyline clip-path="url(#clip852)" style="stroke:#009af9; stroke-linecap:round; stroke-linejoin:round; stroke-width:16; stroke-opacity:1; fill:none" stroke-dasharray="8, 16" points="218.439,1101.67 228.852,1090.37 239.264,1076.87 249.677,1064.56 260.09,1056.79 270.503,1055.91 280.916,1063.27 291.329,1079.08 301.741,1101.61 312.154,1127.34 322.567,1154.03 332.98,1182.81 343.393,1214.71 353.805,1247.69 364.218,1279.47 374.631,1309.69 385.044,1338.48 395.457,1364.85 405.87,1386.83 416.282,1402.63 426.695,1411.41 437.108,1413.54 447.521,1410.29 457.934,1403.3 468.347,1393.8 478.759,1381.82 489.172,1365.47 499.585,1341.11 509.998,1305.62 520.411,1260.81 530.824,1216 541.236,1182.85 551.649,1164.62 562.062,1152.89 572.475,1136.68 582.888,1112.44 593.301,1084.59 603.713,1060.33 614.126,1045.65 624.539,1044.12 634.952,1056.03 645.365,1077.61 655.777,1102.2 666.19,1123.95 676.603,1141.28 687.016,1157.78 697.429,1179.48 707.842,1210.42 718.254,1249.4 728.667,1290.27 739.08,1325.9 749.493,1352.8 759.906,1372.4 770.319,1388.17 780.731,1401.9 791.144,1412.44 801.557,1416.84 811.97,1412.92 822.383,1401.79 832.796,1386.89 843.208,1369.91 853.621,1349.2 864.034,1323.14 874.447,1292.96 884.86,1260.91 895.273,1228.3 905.685,1198.45 916.098,1173.94 926.511,1147.75 936.924,1111.91 947.337,1071.09 957.749,1040.31 968.162,1037.48 978.575,1055.93 988.988,1034.43 999.401,983.259 1009.81,1030.18 1020.23,1093.79 1030.64,1085.86 1041.05,1081.34 1051.46,1122.62 1061.88,1199.22 1072.29,1194.43 1082.7,1196.5 1093.12,1287.6 1103.53,1327.15 1113.94,1372.36 1124.35,1387.73 1134.77,1383.25 1145.18,1404.63 1155.59,1409.97 1166.01,1410.49 1176.42,1445.72 1186.83,1426.46 1197.24,1373.6 1207.66,1402.31 1218.07,1406.22 1228.48,1348.79 1238.9,1226.5 1249.31,984.986 1259.72,661.004 1270.13,410.29 1280.55,303.653 1290.96,288.465 1301.37,304.611 1311.79,333.192 1322.2,369.35 1332.61,393.662 1343.02,386.919 1353.44,349.546 1363.85,304.556 1374.26,285.611 1384.68,292.965 1395.09,306.72 1405.5,353.597 1415.91,478.007 1426.33,523.622 1436.74,440.473 1447.15,368.953 1457.57,309.841 1467.98,222.702 1478.39,214.247 1488.8,299.507 1499.22,389.826 1509.63,444.206 1520.04,399.786 1530.45,354.166 1540.87,431.156 1551.28,471.493 1561.69,430.704 1572.11,393.72 1582.52,357.307 1592.93,310.445 1603.34,266.621 1613.76,246.706 1624.17,259.934 1634.58,297.562 1645,344.6 1655.41,387.931 1665.82,418.252 1676.23,430.375 1686.65,421.944 1697.06,391.326 1707.47,340.699 1717.89,282.903 1728.3,236.827 1738.71,215.669 1749.12,226.67 1759.54,272.819 1769.95,345.771 1780.36,423.478 1790.78,479.086 1801.19,492.123 1811.6,456.106 1822.01,381.32 1832.43,291.411 1842.84,214.642 1853.25,174.671 1863.67,184.883 1874.08,244.644 1884.49,335.988 1894.9,426.911 1905.32,486.199 1915.73,499.458 1926.14,471.249 1936.56,414.416 1946.97,340.043 1957.38,257.239 1967.79,181.605 1978.21,141.743 1988.62,167.703 1999.03,262.168 2009.45,387.358 2019.86,490.759 2030.27,540.739 2040.68,534.455 2051.1,482.833 2061.51,398.097 2071.92,294.817 2082.33,197.064 2092.75,136.061 2103.16,133.407 2113.57,187.751 2123.99,280.365 2134.4,387.924 2144.81,487.285 2155.22,553.909 2165.64,561.39 2176.05,490.576 2186.46,354.687 2196.88,215.048 2207.29,140.529 2217.7,147.708 2228.11,203.798 2238.53,270.936 2248.94,331.833 2259.35,386.961 2269.77,442.331 2280.18,501.304 2290.59,562.061 "/>
<polyline clip-path="url(#clip852)" style="stroke:#e26f46; stroke-linecap:round; stroke-linejoin:round; stroke-width:4; stroke-opacity:1; fill:none" points="218.439,1101.09 228.852,1081.96 239.264,1067.85 249.677,1059.22 260.09,1056.37 270.503,1059.38 280.916,1068.15 291.329,1082.4 301.741,1101.66 312.154,1125.31 322.567,1152.56 332.98,1182.54 343.393,1214.27 353.805,1246.7 364.218,1278.78 374.631,1309.47 385.044,1337.76 395.457,1362.72 405.87,1383.55 416.282,1399.57 426.695,1410.24 437.108,1415.23 447.521,1414.36 457.934,1407.68 468.347,1395.39 478.759,1377.9 489.172,1355.77 499.585,1329.74 509.998,1300.65 520.411,1269.44 530.824,1237.15 541.236,1204.81 551.649,1173.5 562.062,1144.22 572.475,1117.94 582.888,1095.51 593.301,1077.66 603.713,1064.98 614.126,1057.89 624.539,1056.6 634.952,1061.17 645.365,1071.45 655.777,1087.09 666.19,1107.6 676.603,1132.29 687.016,1160.37 697.429,1190.92 707.842,1222.93 718.254,1255.38 728.667,1287.19 739.08,1317.32 749.493,1344.81 759.906,1368.74 770.319,1388.34 780.731,1402.97 791.144,1412.14 801.557,1415.57 811.97,1413.14 822.383,1404.92 832.796,1391.19 843.208,1372.4 853.621,1349.15 864.034,1322.21 874.447,1292.45 884.86,1260.85 895.273,1228.44 905.685,1196.28 916.098,1165.41 926.511,1136.84 936.924,1111.52 947.337,1090.25 957.749,1073.74 968.162,1062.52 978.575,1056.97 988.988,1057.25 999.401,1063.37 1009.81,1075.13 1020.23,1092.13 1030.64,1113.83 1041.05,1139.52 1051.46,1168.35 1061.88,1199.39 1072.29,1231.63 1082.7,1264 1093.12,1295.47 1103.53,1324.99 1113.94,1351.6 1124.35,1374.45 1134.77,1392.77 1145.18,1405.98 1155.59,1413.63 1166.01,1415.49 1176.42,1411.5 1186.83,1401.77 1197.24,1386.63 1207.66,1366.57 1218.07,1342.26 1228.48,1314.47 1238.9,1284.12 1249.31,1252.2 1259.72,336.616 1270.13,335.131 1280.55,336.482 1290.96,340.979 1301.37,347.244 1311.79,352.63 1322.2,354.225 1332.61,350.081 1343.02,340.202 1353.44,326.885 1363.85,314.212 1374.26,306.809 1384.68,308.229 1395.09,319.524 1405.5,338.523 1415.91,360.145 1426.33,377.753 1436.74,385.18 1447.15,378.822 1457.57,359.095 1467.98,330.721 1478.39,301.642 1488.8,280.802 1499.22,275.403 1509.63,288.491 1520.04,317.649 1530.45,355.307 1540.87,390.681 1551.28,412.867 1561.69,414.181 1572.11,392.747 1582.52,353.465 1592.93,306.966 1603.34,266.745 1613.76,245.243 1624.17,250.024 1634.58,281.196 1645,330.96 1655.41,385.515 1665.82,428.879 1676.23,447.576 1686.65,434.791 1697.06,392.749 1707.47,332.492 1717.89,271.001 1728.3,226.415 1738.71,212.684 1749.12,235.232 1759.54,288.974 1769.95,359.377 1780.36,426.375 1790.78,470.086 1801.19,476.707 1811.6,442.838 1822.01,376.889 1832.43,297.044 1842.84,226.254 1853.25,185.643 1863.67,188.21 1874.08,234.715 1884.49,313.026 1894.9,401.256 1905.32,473.87 1915.73,509.081 1926.14,495.37 1936.56,435.201 1946.97,344.736 1957.38,249.518 1967.79,177.256 1978.21,149.769 1988.62,176.407 1999.03,250.951 2009.45,352.987 2019.86,453.481 2030.27,523.043 2040.68,540.516 2051.1,499.392 2061.51,410.113 2071.92,297.461 2082.33,193.69 2092.75,129.292 2103.16,124.039 2113.57,180.94 2123.99,284.943 2134.4,406.89 2144.81,511.684 2155.22,568.389 2165.64,559.36 2176.05,485.7 2186.46,367.369 2196.88,237.799 2207.29,134.449 2217.7,87.9763 2228.11,113.152 2238.53,204.209 2248.94,336.076 2259.35,471.269 2269.77,570.547 2280.18,604.294 2290.59,561.351 "/>
<path clip-path="url(#clip850)" d="M229.49 250.738 L675.966 250.738 L675.966 95.2176 L229.49 95.2176  Z" fill="#ffffff" fill-rule="evenodd" fill-opacity="1"/>
<polyline clip-path="url(#clip850)" style="stroke:#000000; stroke-linecap:round; stroke-linejoin:round; stroke-width:4; stroke-opacity:1; fill:none" points="229.49,250.738 675.966,250.738 675.966,95.2176 229.49,95.2176 229.49,250.738 "/>
<polyline clip-path="url(#clip850)" style="stroke:#009af9; stroke-linecap:round; stroke-linejoin:round; stroke-width:16; stroke-opacity:1; fill:none" stroke-dasharray="8, 16" points="253.896,147.058 400.328,147.058 "/>
<path clip-path="url(#clip850)" d="M429.409 133.62 L429.409 146.606 L435.289 146.606 Q438.552 146.606 440.335 144.916 Q442.117 143.227 442.117 140.102 Q442.117 137 440.335 135.31 Q438.552 133.62 435.289 133.62 L429.409 133.62 M424.733 129.778 L435.289 129.778 Q441.099 129.778 444.062 132.416 Q447.048 135.032 447.048 140.102 Q447.048 145.217 444.062 147.833 Q441.099 150.449 435.289 150.449 L429.409 150.449 L429.409 164.338 L424.733 164.338 L424.733 129.778 Z" fill="#000000" fill-rule="nonzero" fill-opacity="1" /><path clip-path="url(#clip850)" d="M467.325 142.393 Q466.608 141.977 465.751 141.791 Q464.918 141.583 463.899 141.583 Q460.288 141.583 458.344 143.944 Q456.423 146.282 456.423 150.68 L456.423 164.338 L452.14 164.338 L452.14 138.412 L456.423 138.412 L456.423 142.44 Q457.765 140.078 459.918 138.944 Q462.071 137.787 465.149 137.787 Q465.589 137.787 466.122 137.856 Q466.654 137.903 467.302 138.018 L467.325 142.393 Z" fill="#000000" fill-rule="nonzero" fill-opacity="1" /><path clip-path="url(#clip850)" d="M492.927 150.31 L492.927 152.393 L473.344 152.393 Q473.622 156.791 475.983 159.106 Q478.367 161.398 482.603 161.398 Q485.057 161.398 487.348 160.796 Q489.663 160.194 491.932 158.99 L491.932 163.018 Q489.64 163.99 487.233 164.5 Q484.825 165.009 482.348 165.009 Q476.145 165.009 472.511 161.398 Q468.899 157.787 468.899 151.629 Q468.899 145.264 472.325 141.537 Q475.774 137.787 481.608 137.787 Q486.839 137.787 489.872 141.166 Q492.927 144.523 492.927 150.31 M488.668 149.06 Q488.622 145.565 486.7 143.481 Q484.802 141.398 481.654 141.398 Q478.089 141.398 475.936 143.412 Q473.807 145.426 473.483 149.083 L488.668 149.06 Z" fill="#000000" fill-rule="nonzero" fill-opacity="1" /><path clip-path="url(#clip850)" d="M516.978 142.347 L516.978 128.319 L521.237 128.319 L521.237 164.338 L516.978 164.338 L516.978 160.449 Q515.635 162.763 513.575 163.898 Q511.538 165.009 508.668 165.009 Q503.969 165.009 501.006 161.259 Q498.066 157.509 498.066 151.398 Q498.066 145.287 501.006 141.537 Q503.969 137.787 508.668 137.787 Q511.538 137.787 513.575 138.921 Q515.635 140.032 516.978 142.347 M502.464 151.398 Q502.464 156.097 504.385 158.782 Q506.33 161.444 509.709 161.444 Q513.089 161.444 515.033 158.782 Q516.978 156.097 516.978 151.398 Q516.978 146.699 515.033 144.037 Q513.089 141.352 509.709 141.352 Q506.33 141.352 504.385 144.037 Q502.464 146.699 502.464 151.398 Z" fill="#000000" fill-rule="nonzero" fill-opacity="1" /><path clip-path="url(#clip850)" d="M530.01 138.412 L534.269 138.412 L534.269 164.338 L530.01 164.338 L530.01 138.412 M530.01 128.319 L534.269 128.319 L534.269 133.713 L530.01 133.713 L530.01 128.319 Z" fill="#000000" fill-rule="nonzero" fill-opacity="1" /><path clip-path="url(#clip850)" d="M561.839 139.407 L561.839 143.389 Q560.033 142.393 558.205 141.907 Q556.399 141.398 554.547 141.398 Q550.404 141.398 548.112 144.037 Q545.82 146.652 545.82 151.398 Q545.82 156.143 548.112 158.782 Q550.404 161.398 554.547 161.398 Q556.399 161.398 558.205 160.912 Q560.033 160.402 561.839 159.407 L561.839 163.342 Q560.056 164.176 558.135 164.592 Q556.237 165.009 554.084 165.009 Q548.228 165.009 544.779 161.328 Q541.33 157.648 541.33 151.398 Q541.33 145.055 544.802 141.421 Q548.297 137.787 554.362 137.787 Q556.33 137.787 558.205 138.203 Q560.08 138.597 561.839 139.407 Z" fill="#000000" fill-rule="nonzero" fill-opacity="1" /><path clip-path="url(#clip850)" d="M573.459 131.051 L573.459 138.412 L582.232 138.412 L582.232 141.722 L573.459 141.722 L573.459 155.796 Q573.459 158.967 574.316 159.87 Q575.195 160.773 577.857 160.773 L582.232 160.773 L582.232 164.338 L577.857 164.338 Q572.927 164.338 571.052 162.509 Q569.177 160.657 569.177 155.796 L569.177 141.722 L566.052 141.722 L566.052 138.412 L569.177 138.412 L569.177 131.051 L573.459 131.051 Z" fill="#000000" fill-rule="nonzero" fill-opacity="1" /><path clip-path="url(#clip850)" d="M587.834 138.412 L592.093 138.412 L592.093 164.338 L587.834 164.338 L587.834 138.412 M587.834 128.319 L592.093 128.319 L592.093 133.713 L587.834 133.713 L587.834 128.319 Z" fill="#000000" fill-rule="nonzero" fill-opacity="1" /><path clip-path="url(#clip850)" d="M611.051 141.398 Q607.626 141.398 605.635 144.083 Q603.644 146.745 603.644 151.398 Q603.644 156.051 605.612 158.736 Q607.602 161.398 611.051 161.398 Q614.454 161.398 616.445 158.713 Q618.436 156.027 618.436 151.398 Q618.436 146.791 616.445 144.106 Q614.454 141.398 611.051 141.398 M611.051 137.787 Q616.607 137.787 619.778 141.398 Q622.95 145.009 622.95 151.398 Q622.95 157.764 619.778 161.398 Q616.607 165.009 611.051 165.009 Q605.473 165.009 602.302 161.398 Q599.153 157.764 599.153 151.398 Q599.153 145.009 602.302 141.398 Q605.473 137.787 611.051 137.787 Z" fill="#000000" fill-rule="nonzero" fill-opacity="1" /><path clip-path="url(#clip850)" d="M651.561 148.689 L651.561 164.338 L647.301 164.338 L647.301 148.828 Q647.301 145.148 645.866 143.319 Q644.431 141.49 641.561 141.49 Q638.112 141.49 636.121 143.69 Q634.13 145.889 634.13 149.685 L634.13 164.338 L629.848 164.338 L629.848 138.412 L634.13 138.412 L634.13 142.44 Q635.658 140.102 637.718 138.944 Q639.801 137.787 642.51 137.787 Q646.977 137.787 649.269 140.565 Q651.561 143.319 651.561 148.689 Z" fill="#000000" fill-rule="nonzero" fill-opacity="1" /><polyline clip-path="url(#clip850)" style="stroke:#e26f46; stroke-linecap:round; stroke-linejoin:round; stroke-width:4; stroke-opacity:1; fill:none" points="253.896,198.898 400.328,198.898 "/>
<path clip-path="url(#clip850)" d="M424.733 181.618 L446.585 181.618 L446.585 185.553 L429.409 185.553 L429.409 195.784 L445.867 195.784 L445.867 199.719 L429.409 199.719 L429.409 212.242 L447.001 212.242 L447.001 216.178 L424.733 216.178 L424.733 181.618 Z" fill="#000000" fill-rule="nonzero" fill-opacity="1" /><path clip-path="url(#clip850)" d="M476.052 190.252 L466.677 202.867 L476.538 216.178 L471.515 216.178 L463.969 205.992 L456.423 216.178 L451.4 216.178 L461.469 202.613 L452.256 190.252 L457.279 190.252 L464.154 199.488 L471.029 190.252 L476.052 190.252 Z" fill="#000000" fill-rule="nonzero" fill-opacity="1" /><path clip-path="url(#clip850)" d="M494.339 203.145 Q489.177 203.145 487.186 204.326 Q485.196 205.506 485.196 208.354 Q485.196 210.622 486.677 211.965 Q488.182 213.284 490.751 213.284 Q494.293 213.284 496.422 210.784 Q498.575 208.261 498.575 204.094 L498.575 203.145 L494.339 203.145 M502.834 201.386 L502.834 216.178 L498.575 216.178 L498.575 212.242 Q497.117 214.603 494.941 215.738 Q492.765 216.849 489.617 216.849 Q485.635 216.849 483.274 214.627 Q480.936 212.381 480.936 208.631 Q480.936 204.256 483.853 202.034 Q486.793 199.812 492.603 199.812 L498.575 199.812 L498.575 199.395 Q498.575 196.455 496.631 194.858 Q494.71 193.238 491.214 193.238 Q488.992 193.238 486.885 193.77 Q484.779 194.303 482.835 195.367 L482.835 191.432 Q485.173 190.53 487.372 190.09 Q489.571 189.627 491.654 189.627 Q497.279 189.627 500.057 192.543 Q502.834 195.46 502.834 201.386 Z" fill="#000000" fill-rule="nonzero" fill-opacity="1" /><path clip-path="url(#clip850)" d="M530.265 191.247 L530.265 195.229 Q528.459 194.233 526.631 193.747 Q524.825 193.238 522.973 193.238 Q518.83 193.238 516.538 195.877 Q514.246 198.492 514.246 203.238 Q514.246 207.983 516.538 210.622 Q518.83 213.238 522.973 213.238 Q524.825 213.238 526.631 212.752 Q528.459 212.242 530.265 211.247 L530.265 215.182 Q528.482 216.016 526.561 216.432 Q524.663 216.849 522.51 216.849 Q516.654 216.849 513.205 213.168 Q509.756 209.488 509.756 203.238 Q509.756 196.895 513.228 193.261 Q516.723 189.627 522.788 189.627 Q524.756 189.627 526.631 190.043 Q528.506 190.437 530.265 191.247 Z" fill="#000000" fill-rule="nonzero" fill-opacity="1" /><path clip-path="url(#clip850)" d="M541.885 182.891 L541.885 190.252 L550.658 190.252 L550.658 193.562 L541.885 193.562 L541.885 207.636 Q541.885 210.807 542.742 211.71 Q543.621 212.613 546.283 212.613 L550.658 212.613 L550.658 216.178 L546.283 216.178 Q541.353 216.178 539.478 214.349 Q537.603 212.497 537.603 207.636 L537.603 193.562 L534.478 193.562 L534.478 190.252 L537.603 190.252 L537.603 182.891 L541.885 182.891 Z" fill="#000000" fill-rule="nonzero" fill-opacity="1" /></svg>
