<?xml version="1.0" encoding="utf-8"?>
<svg xmlns="http://www.w3.org/2000/svg" xmlns:xlink="http://www.w3.org/1999/xlink" width="600" height="400" viewBox="0 0 2400 1600">
<defs>
  <clipPath id="clip760">
    <rect x="0" y="0" width="2400" height="1600"/>
  </clipPath>
</defs>
<path clip-path="url(#clip760)" d="M0 1600 L2400 1600 L2400 0 L0 0  Z" fill="#ffffff" fill-rule="evenodd" fill-opacity="1"/>
<defs>
  <clipPath id="clip761">
    <rect x="480" y="0" width="1681" height="1600"/>
  </clipPath>
</defs>
<path clip-path="url(#clip760)" d="M156.274 1486.45 L2352.76 1486.45 L2352.76 47.2441 L156.274 47.2441  Z" fill="#ffffff" fill-rule="evenodd" fill-opacity="1"/>
<defs>
  <clipPath id="clip762">
    <rect x="156" y="47" width="2197" height="1440"/>
  </clipPath>
</defs>
<polyline clip-path="url(#clip762)" style="stroke:#000000; stroke-linecap:round; stroke-linejoin:round; stroke-width:2; stroke-opacity:0.1; fill:none" points="218.439,1486.45 218.439,47.2441 "/>
<polyline clip-path="url(#clip762)" style="stroke:#000000; stroke-linecap:round; stroke-linejoin:round; stroke-width:2; stroke-opacity:0.1; fill:none" points="736.477,1486.45 736.477,47.2441 "/>
<polyline clip-path="url(#clip762)" style="stroke:#000000; stroke-linecap:round; stroke-linejoin:round; stroke-width:2; stroke-opacity:0.1; fill:none" points="1254.52,1486.45 1254.52,47.2441 "/>
<polyline clip-path="url(#clip762)" style="stroke:#000000; stroke-linecap:round; stroke-linejoin:round; stroke-width:2; stroke-opacity:0.1; fill:none" points="1772.55,1486.45 1772.55,47.2441 "/>
<polyline clip-path="url(#clip762)" style="stroke:#000000; stroke-linecap:round; stroke-linejoin:round; stroke-width:2; stroke-opacity:0.1; fill:none" points="2290.59,1486.45 2290.59,47.2441 "/>
<polyline clip-path="url(#clip760)" style="stroke:#000000; stroke-linecap:round; stroke-linejoin:round; stroke-width:4; stroke-opacity:1; fill:none" points="156.274,1486.45 2352.76,1486.45 "/>
<polyline clip-path="url(#clip760)" style="stroke:#000000; stroke-linecap:round; stroke-linejoin:round; stroke-width:4; stroke-opacity:1; fill:none" points="218.439,1486.45 218.439,1467.55 "/>
<polyline clip-path="url(#clip760)" style="stroke:#000000; stroke-linecap:round; stroke-linejoin:round; stroke-width:4; stroke-opacity:1; fill:none" points="736.477,1486.45 736.477,1467.55 "/>
<polyline clip-path="url(#clip760)" style="stroke:#000000; stroke-linecap:round; stroke-linejoin:round; stroke-width:4; stroke-opacity:1; fill:none" points="1254.52,1486.45 1254.52,1467.55 "/>
<polyline clip-path="url(#clip760)" style="stroke:#000000; stroke-linecap:round; stroke-linejoin:round; stroke-width:4; stroke-opacity:1; fill:none" points="1772.55,1486.45 1772.55,1467.55 "/>
<polyline clip-path="url(#clip760)" style="stroke:#000000; stroke-linecap:round; stroke-linejoin:round; stroke-width:4; stroke-opacity:1; fill:none" points="2290.59,1486.45 2290.59,1467.55 "/>
<path clip-path="url(#clip760)" d="M164.967 1532.02 L194.643 1532.02 L194.643 1535.95 L164.967 1535.95 L164.967 1532.02 Z" fill="#000000" fill-rule="nonzero" fill-opacity="1" /><path clip-path="url(#clip760)" d="M205.545 1544.91 L213.184 1544.91 L213.184 1518.55 L204.874 1520.21 L204.874 1515.95 L213.138 1514.29 L217.814 1514.29 L217.814 1544.91 L225.453 1544.91 L225.453 1548.85 L205.545 1548.85 L205.545 1544.91 Z" fill="#000000" fill-rule="nonzero" fill-opacity="1" /><path clip-path="url(#clip760)" d="M234.897 1542.97 L239.781 1542.97 L239.781 1548.85 L234.897 1548.85 L234.897 1542.97 Z" fill="#000000" fill-rule="nonzero" fill-opacity="1" /><path clip-path="url(#clip760)" d="M259.966 1517.37 Q256.355 1517.37 254.527 1520.93 Q252.721 1524.47 252.721 1531.6 Q252.721 1538.71 254.527 1542.27 Q256.355 1545.82 259.966 1545.82 Q263.601 1545.82 265.406 1542.27 Q267.235 1538.71 267.235 1531.6 Q267.235 1524.47 265.406 1520.93 Q263.601 1517.37 259.966 1517.37 M259.966 1513.66 Q265.776 1513.66 268.832 1518.27 Q271.911 1522.85 271.911 1531.6 Q271.911 1540.33 268.832 1544.94 Q265.776 1549.52 259.966 1549.52 Q254.156 1549.52 251.077 1544.94 Q248.022 1540.33 248.022 1531.6 Q248.022 1522.85 251.077 1518.27 Q254.156 1513.66 259.966 1513.66 Z" fill="#000000" fill-rule="nonzero" fill-opacity="1" /><path clip-path="url(#clip760)" d="M683.503 1532.02 L713.178 1532.02 L713.178 1535.95 L683.503 1535.95 L683.503 1532.02 Z" fill="#000000" fill-rule="nonzero" fill-opacity="1" /><path clip-path="url(#clip760)" d="M733.271 1517.37 Q729.66 1517.37 727.831 1520.93 Q726.026 1524.47 726.026 1531.6 Q726.026 1538.71 727.831 1542.27 Q729.66 1545.82 733.271 1545.82 Q736.905 1545.82 738.711 1542.27 Q740.539 1538.71 740.539 1531.6 Q740.539 1524.47 738.711 1520.93 Q736.905 1517.37 733.271 1517.37 M733.271 1513.66 Q739.081 1513.66 742.137 1518.27 Q745.215 1522.85 745.215 1531.6 Q745.215 1540.33 742.137 1544.94 Q739.081 1549.52 733.271 1549.52 Q727.461 1549.52 724.382 1544.94 Q721.327 1540.33 721.327 1531.6 Q721.327 1522.85 724.382 1518.27 Q727.461 1513.66 733.271 1513.66 Z" fill="#000000" fill-rule="nonzero" fill-opacity="1" /><path clip-path="url(#clip760)" d="M753.433 1542.97 L758.317 1542.97 L758.317 1548.85 L753.433 1548.85 L753.433 1542.97 Z" fill="#000000" fill-rule="nonzero" fill-opacity="1" /><path clip-path="url(#clip760)" d="M768.548 1514.29 L786.905 1514.29 L786.905 1518.22 L772.831 1518.22 L772.831 1526.7 Q773.849 1526.35 774.868 1526.19 Q775.886 1526 776.905 1526 Q782.692 1526 786.072 1529.17 Q789.451 1532.34 789.451 1537.76 Q789.451 1543.34 785.979 1546.44 Q782.507 1549.52 776.187 1549.52 Q774.011 1549.52 771.743 1549.15 Q769.498 1548.78 767.09 1548.04 L767.09 1543.34 Q769.173 1544.47 771.396 1545.03 Q773.618 1545.58 776.095 1545.58 Q780.099 1545.58 782.437 1543.48 Q784.775 1541.37 784.775 1537.76 Q784.775 1534.15 782.437 1532.04 Q780.099 1529.94 776.095 1529.94 Q774.22 1529.94 772.345 1530.35 Q770.493 1530.77 768.548 1531.65 L768.548 1514.29 Z" fill="#000000" fill-rule="nonzero" fill-opacity="1" /><path clip-path="url(#clip760)" d="M1231.9 1517.37 Q1228.29 1517.37 1226.46 1520.93 Q1224.65 1524.47 1224.65 1531.6 Q1224.65 1538.71 1226.46 1542.27 Q1228.29 1545.82 1231.9 1545.82 Q1235.53 1545.82 1237.34 1542.27 Q1239.17 1538.71 1239.17 1531.6 Q1239.17 1524.47 1237.34 1520.93 Q1235.53 1517.37 1231.9 1517.37 M1231.9 1513.66 Q1237.71 1513.66 1240.77 1518.27 Q1243.84 1522.85 1243.84 1531.6 Q1243.84 1540.33 1240.77 1544.94 Q1237.71 1549.52 1231.9 1549.52 Q1226.09 1549.52 1223.01 1544.94 Q1219.96 1540.33 1219.96 1531.6 Q1219.96 1522.85 1223.01 1518.27 Q1226.09 1513.66 1231.9 1513.66 Z" fill="#000000" fill-rule="nonzero" fill-opacity="1" /><path clip-path="url(#clip760)" d="M1252.06 1542.97 L1256.95 1542.97 L1256.95 1548.85 L1252.06 1548.85 L1252.06 1542.97 Z" fill="#000000" fill-rule="nonzero" fill-opacity="1" /><path clip-path="url(#clip760)" d="M1277.13 1517.37 Q1273.52 1517.37 1271.69 1520.93 Q1269.89 1524.47 1269.89 1531.6 Q1269.89 1538.71 1271.69 1542.27 Q1273.52 1545.82 1277.13 1545.82 Q1280.76 1545.82 1282.57 1542.27 Q1284.4 1538.71 1284.4 1531.6 Q1284.4 1524.47 1282.57 1520.93 Q1280.76 1517.37 1277.13 1517.37 M1277.13 1513.66 Q1282.94 1513.66 1286 1518.27 Q1289.08 1522.85 1289.08 1531.6 Q1289.08 1540.33 1286 1544.94 Q1282.94 1549.52 1277.13 1549.52 Q1271.32 1549.52 1268.24 1544.94 Q1265.19 1540.33 1265.19 1531.6 Q1265.19 1522.85 1268.24 1518.27 Q1271.32 1513.66 1277.13 1513.66 Z" fill="#000000" fill-rule="nonzero" fill-opacity="1" /><path clip-path="url(#clip760)" d="M1750.44 1517.37 Q1746.82 1517.37 1745 1520.93 Q1743.19 1524.47 1743.19 1531.6 Q1743.19 1538.71 1745 1542.27 Q1746.82 1545.82 1750.44 1545.82 Q1754.07 1545.82 1755.88 1542.27 Q1757.7 1538.71 1757.7 1531.6 Q1757.7 1524.47 1755.88 1520.93 Q1754.07 1517.37 1750.44 1517.37 M1750.44 1513.66 Q1756.25 1513.66 1759.3 1518.27 Q1762.38 1522.85 1762.38 1531.6 Q1762.38 1540.33 1759.3 1544.94 Q1756.25 1549.52 1750.44 1549.52 Q1744.63 1549.52 1741.55 1544.94 Q1738.49 1540.33 1738.49 1531.6 Q1738.49 1522.85 1741.55 1518.27 Q1744.63 1513.66 1750.44 1513.66 Z" fill="#000000" fill-rule="nonzero" fill-opacity="1" /><path clip-path="url(#clip760)" d="M1770.6 1542.97 L1775.48 1542.97 L1775.48 1548.85 L1770.6 1548.85 L1770.6 1542.97 Z" fill="#000000" fill-rule="nonzero" fill-opacity="1" /><path clip-path="url(#clip760)" d="M1785.71 1514.29 L1804.07 1514.29 L1804.07 1518.22 L1790 1518.22 L1790 1526.7 Q1791.01 1526.35 1792.03 1526.19 Q1793.05 1526 1794.07 1526 Q1799.86 1526 1803.24 1529.17 Q1806.62 1532.34 1806.62 1537.76 Q1806.62 1543.34 1803.14 1546.44 Q1799.67 1549.52 1793.35 1549.52 Q1791.18 1549.52 1788.91 1549.15 Q1786.66 1548.78 1784.25 1548.04 L1784.25 1543.34 Q1786.34 1544.47 1788.56 1545.03 Q1790.78 1545.58 1793.26 1545.58 Q1797.26 1545.58 1799.6 1543.48 Q1801.94 1541.37 1801.94 1537.76 Q1801.94 1534.15 1799.6 1532.04 Q1797.26 1529.94 1793.26 1529.94 Q1791.38 1529.94 1789.51 1530.35 Q1787.66 1530.77 1785.71 1531.65 L1785.71 1514.29 Z" fill="#000000" fill-rule="nonzero" fill-opacity="1" /><path clip-path="url(#clip760)" d="M2257.74 1544.91 L2265.38 1544.91 L2265.38 1518.55 L2257.07 1520.21 L2257.07 1515.95 L2265.34 1514.29 L2270.01 1514.29 L2270.01 1544.91 L2277.65 1544.91 L2277.65 1548.85 L2257.74 1548.85 L2257.74 1544.91 Z" fill="#000000" fill-rule="nonzero" fill-opacity="1" /><path clip-path="url(#clip760)" d="M2287.1 1542.97 L2291.98 1542.97 L2291.98 1548.85 L2287.1 1548.85 L2287.1 1542.97 Z" fill="#000000" fill-rule="nonzero" fill-opacity="1" /><path clip-path="url(#clip760)" d="M2312.17 1517.37 Q2308.55 1517.37 2306.73 1520.93 Q2304.92 1524.47 2304.92 1531.6 Q2304.92 1538.71 2306.73 1542.27 Q2308.55 1545.82 2312.17 1545.82 Q2315.8 1545.82 2317.61 1542.27 Q2319.43 1538.71 2319.43 1531.6 Q2319.43 1524.47 2317.61 1520.93 Q2315.8 1517.37 2312.17 1517.37 M2312.17 1513.66 Q2317.98 1513.66 2321.03 1518.27 Q2324.11 1522.85 2324.11 1531.6 Q2324.11 1540.33 2321.03 1544.94 Q2317.98 1549.52 2312.17 1549.52 Q2306.36 1549.52 2303.28 1544.94 Q2300.22 1540.33 2300.22 1531.6 Q2300.22 1522.85 2303.28 1518.27 Q2306.36 1513.66 2312.17 1513.66 Z" fill="#000000" fill-rule="nonzero" fill-opacity="1" /><polyline clip-path="url(#clip762)" style="stroke:#000000; stroke-linecap:round; stroke-linejoin:round; stroke-width:2; stroke-opacity:0.1; fill:none" points="156.274,1257.29 2352.76,1257.29 "/>
<polyline clip-path="url(#clip762)" style="stroke:#000000; stroke-linecap:round; stroke-linejoin:round; stroke-width:2; stroke-opacity:0.1; fill:none" points="156.274,982.874 2352.76,982.874 "/>
<polyline clip-path="url(#clip762)" style="stroke:#000000; stroke-linecap:round; stroke-linejoin:round; stroke-width:2; stroke-opacity:0.1; fill:none" points="156.274,708.454 2352.76,708.454 "/>
<polyline clip-path="url(#clip762)" style="stroke:#000000; stroke-linecap:round; stroke-linejoin:round; stroke-width:2; stroke-opacity:0.1; fill:none" points="156.274,434.034 2352.76,434.034 "/>
<polyline clip-path="url(#clip762)" style="stroke:#000000; stroke-linecap:round; stroke-linejoin:round; stroke-width:2; stroke-opacity:0.1; fill:none" points="156.274,159.614 2352.76,159.614 "/>
<polyline clip-path="url(#clip760)" style="stroke:#000000; stroke-linecap:round; stroke-linejoin:round; stroke-width:4; stroke-opacity:1; fill:none" points="156.274,1486.45 156.274,47.2441 "/>
<polyline clip-path="url(#clip760)" style="stroke:#000000; stroke-linecap:round; stroke-linejoin:round; stroke-width:4; stroke-opacity:1; fill:none" points="156.274,1257.29 175.172,1257.29 "/>
<polyline clip-path="url(#clip760)" style="stroke:#000000; stroke-linecap:round; stroke-linejoin:round; stroke-width:4; stroke-opacity:1; fill:none" points="156.274,982.874 175.172,982.874 "/>
<polyline clip-path="url(#clip760)" style="stroke:#000000; stroke-linecap:round; stroke-linejoin:round; stroke-width:4; stroke-opacity:1; fill:none" points="156.274,708.454 175.172,708.454 "/>
<polyline clip-path="url(#clip760)" style="stroke:#000000; stroke-linecap:round; stroke-linejoin:round; stroke-width:4; stroke-opacity:1; fill:none" points="156.274,434.034 175.172,434.034 "/>
<polyline clip-path="url(#clip760)" style="stroke:#000000; stroke-linecap:round; stroke-linejoin:round; stroke-width:4; stroke-opacity:1; fill:none" points="156.274,159.614 175.172,159.614 "/>
<path clip-path="url(#clip760)" d="M63.0985 1243.09 Q59.4875 1243.09 57.6588 1246.66 Q55.8532 1250.2 55.8532 1257.33 Q55.8532 1264.43 57.6588 1268 Q59.4875 1271.54 63.0985 1271.54 Q66.7328 1271.54 68.5383 1268 Q70.367 1264.43 70.367 1257.33 Q70.367 1250.2 68.5383 1246.66 Q66.7328 1243.09 63.0985 1243.09 M63.0985 1239.39 Q68.9087 1239.39 71.9642 1244 Q75.0429 1248.58 75.0429 1257.33 Q75.0429 1266.06 71.9642 1270.66 Q68.9087 1275.25 63.0985 1275.25 Q57.2884 1275.25 54.2097 1270.66 Q51.1542 1266.06 51.1542 1257.33 Q51.1542 1248.58 54.2097 1244 Q57.2884 1239.39 63.0985 1239.39 Z" fill="#000000" fill-rule="nonzero" fill-opacity="1" /><path clip-path="url(#clip760)" d="M83.2605 1268.69 L88.1447 1268.69 L88.1447 1274.57 L83.2605 1274.57 L83.2605 1268.69 Z" fill="#000000" fill-rule="nonzero" fill-opacity="1" /><path clip-path="url(#clip760)" d="M108.33 1243.09 Q104.719 1243.09 102.89 1246.66 Q101.084 1250.2 101.084 1257.33 Q101.084 1264.43 102.89 1268 Q104.719 1271.54 108.33 1271.54 Q111.964 1271.54 113.77 1268 Q115.598 1264.43 115.598 1257.33 Q115.598 1250.2 113.77 1246.66 Q111.964 1243.09 108.33 1243.09 M108.33 1239.39 Q114.14 1239.39 117.195 1244 Q120.274 1248.58 120.274 1257.33 Q120.274 1266.06 117.195 1270.66 Q114.14 1275.25 108.33 1275.25 Q102.52 1275.25 99.4409 1270.66 Q96.3854 1266.06 96.3854 1257.33 Q96.3854 1248.58 99.4409 1244 Q102.52 1239.39 108.33 1239.39 Z" fill="#000000" fill-rule="nonzero" fill-opacity="1" /><path clip-path="url(#clip760)" d="M63.7467 968.672 Q60.1356 968.672 58.3069 972.237 Q56.5014 975.779 56.5014 982.908 Q56.5014 990.015 58.3069 993.58 Q60.1356 997.121 63.7467 997.121 Q67.3809 997.121 69.1865 993.58 Q71.0152 990.015 71.0152 982.908 Q71.0152 975.779 69.1865 972.237 Q67.3809 968.672 63.7467 968.672 M63.7467 964.969 Q69.5568 964.969 72.6124 969.575 Q75.6911 974.158 75.6911 982.908 Q75.6911 991.635 72.6124 996.242 Q69.5568 1000.83 63.7467 1000.83 Q57.9365 1000.83 54.8578 996.242 Q51.8023 991.635 51.8023 982.908 Q51.8023 974.158 54.8578 969.575 Q57.9365 964.969 63.7467 964.969 Z" fill="#000000" fill-rule="nonzero" fill-opacity="1" /><path clip-path="url(#clip760)" d="M83.9086 994.274 L88.7928 994.274 L88.7928 1000.15 L83.9086 1000.15 L83.9086 994.274 Z" fill="#000000" fill-rule="nonzero" fill-opacity="1" /><path clip-path="url(#clip760)" d="M113.145 981.52 Q116.501 982.237 118.376 984.506 Q120.274 986.774 120.274 990.107 Q120.274 995.223 116.756 998.024 Q113.237 1000.83 106.756 1000.83 Q104.58 1000.83 102.265 1000.39 Q99.9733 999.969 97.5197 999.112 L97.5197 994.598 Q99.4641 995.732 101.779 996.311 Q104.094 996.89 106.617 996.89 Q111.015 996.89 113.307 995.154 Q115.621 993.418 115.621 990.107 Q115.621 987.052 113.469 985.339 Q111.339 983.603 107.52 983.603 L103.492 983.603 L103.492 979.76 L107.705 979.76 Q111.154 979.76 112.983 978.395 Q114.811 977.006 114.811 974.413 Q114.811 971.751 112.913 970.339 Q111.038 968.904 107.52 968.904 Q105.598 968.904 103.399 969.321 Q101.2 969.737 98.5613 970.617 L98.5613 966.45 Q101.223 965.709 103.538 965.339 Q105.876 964.969 107.936 964.969 Q113.26 964.969 116.362 967.399 Q119.464 969.807 119.464 973.927 Q119.464 976.797 117.82 978.788 Q116.177 980.756 113.145 981.52 Z" fill="#000000" fill-rule="nonzero" fill-opacity="1" /><path clip-path="url(#clip760)" d="M62.9365 694.252 Q59.3254 694.252 57.4967 697.817 Q55.6912 701.359 55.6912 708.488 Q55.6912 715.595 57.4967 719.16 Q59.3254 722.701 62.9365 722.701 Q66.5707 722.701 68.3763 719.16 Q70.205 715.595 70.205 708.488 Q70.205 701.359 68.3763 697.817 Q66.5707 694.252 62.9365 694.252 M62.9365 690.549 Q68.7467 690.549 71.8022 695.155 Q74.8809 699.738 74.8809 708.488 Q74.8809 717.215 71.8022 721.822 Q68.7467 726.405 62.9365 726.405 Q57.1264 726.405 54.0477 721.822 Q50.9921 717.215 50.9921 708.488 Q50.9921 699.738 54.0477 695.155 Q57.1264 690.549 62.9365 690.549 Z" fill="#000000" fill-rule="nonzero" fill-opacity="1" /><path clip-path="url(#clip760)" d="M83.0984 719.854 L87.9827 719.854 L87.9827 725.734 L83.0984 725.734 L83.0984 719.854 Z" fill="#000000" fill-rule="nonzero" fill-opacity="1" /><path clip-path="url(#clip760)" d="M108.746 706.59 Q105.598 706.59 103.746 708.743 Q101.918 710.896 101.918 714.646 Q101.918 718.373 103.746 720.549 Q105.598 722.701 108.746 722.701 Q111.895 722.701 113.723 720.549 Q115.575 718.373 115.575 714.646 Q115.575 710.896 113.723 708.743 Q111.895 706.59 108.746 706.59 M118.029 691.938 L118.029 696.197 Q116.27 695.363 114.464 694.924 Q112.682 694.484 110.922 694.484 Q106.293 694.484 103.839 697.609 Q101.409 700.734 101.061 707.053 Q102.427 705.039 104.487 703.975 Q106.547 702.887 109.024 702.887 Q114.233 702.887 117.242 706.058 Q120.274 709.206 120.274 714.646 Q120.274 719.97 117.126 723.187 Q113.978 726.405 108.746 726.405 Q102.751 726.405 99.5798 721.822 Q96.4085 717.215 96.4085 708.488 Q96.4085 700.294 100.297 695.433 Q104.186 690.549 110.737 690.549 Q112.496 690.549 114.279 690.896 Q116.084 691.243 118.029 691.938 Z" fill="#000000" fill-rule="nonzero" fill-opacity="1" /><path clip-path="url(#clip760)" d="M63.2837 419.832 Q59.6726 419.832 57.8439 423.397 Q56.0384 426.939 56.0384 434.068 Q56.0384 441.175 57.8439 444.74 Q59.6726 448.281 63.2837 448.281 Q66.918 448.281 68.7235 444.74 Q70.5522 441.175 70.5522 434.068 Q70.5522 426.939 68.7235 423.397 Q66.918 419.832 63.2837 419.832 M63.2837 416.129 Q69.0939 416.129 72.1494 420.735 Q75.2281 425.318 75.2281 434.068 Q75.2281 442.795 72.1494 447.402 Q69.0939 451.985 63.2837 451.985 Q57.4736 451.985 54.3949 447.402 Q51.3393 442.795 51.3393 434.068 Q51.3393 425.318 54.3949 420.735 Q57.4736 416.129 63.2837 416.129 Z" fill="#000000" fill-rule="nonzero" fill-opacity="1" /><path clip-path="url(#clip760)" d="M83.4457 445.434 L88.3299 445.434 L88.3299 451.314 L83.4457 451.314 L83.4457 445.434 Z" fill="#000000" fill-rule="nonzero" fill-opacity="1" /><path clip-path="url(#clip760)" d="M98.6539 450.596 L98.6539 446.337 Q100.413 447.17 102.219 447.61 Q104.024 448.05 105.76 448.05 Q110.39 448.05 112.82 444.948 Q115.274 441.823 115.621 435.48 Q114.279 437.471 112.219 438.536 Q110.158 439.601 107.658 439.601 Q102.473 439.601 99.4409 436.476 Q96.4317 433.328 96.4317 427.888 Q96.4317 422.564 99.5798 419.346 Q102.728 416.129 107.959 416.129 Q113.955 416.129 117.103 420.735 Q120.274 425.318 120.274 434.068 Q120.274 442.24 116.385 447.124 Q112.52 451.985 105.969 451.985 Q104.209 451.985 102.404 451.638 Q100.598 451.29 98.6539 450.596 M107.959 435.943 Q111.108 435.943 112.936 433.791 Q114.788 431.638 114.788 427.888 Q114.788 424.161 112.936 422.008 Q111.108 419.832 107.959 419.832 Q104.811 419.832 102.959 422.008 Q101.131 424.161 101.131 427.888 Q101.131 431.638 102.959 433.791 Q104.811 435.943 107.959 435.943 Z" fill="#000000" fill-rule="nonzero" fill-opacity="1" /><path clip-path="url(#clip760)" d="M55.506 172.958 L63.1448 172.958 L63.1448 146.593 L54.8347 148.259 L54.8347 144 L63.0985 142.334 L67.7744 142.334 L67.7744 172.958 L75.4133 172.958 L75.4133 176.894 L55.506 176.894 L55.506 172.958 Z" fill="#000000" fill-rule="nonzero" fill-opacity="1" /><path clip-path="url(#clip760)" d="M84.8577 171.014 L89.7419 171.014 L89.7419 176.894 L84.8577 176.894 L84.8577 171.014 Z" fill="#000000" fill-rule="nonzero" fill-opacity="1" /><path clip-path="url(#clip760)" d="M103.955 172.958 L120.274 172.958 L120.274 176.894 L98.3298 176.894 L98.3298 172.958 Q100.992 170.204 105.575 165.574 Q110.182 160.921 111.362 159.579 Q113.608 157.056 114.487 155.32 Q115.39 153.56 115.39 151.871 Q115.39 149.116 113.445 147.38 Q111.524 145.644 108.422 145.644 Q106.223 145.644 103.77 146.408 Q101.339 147.171 98.5613 148.722 L98.5613 144 Q101.385 142.866 103.839 142.287 Q106.293 141.709 108.33 141.709 Q113.7 141.709 116.895 144.394 Q120.089 147.079 120.089 151.57 Q120.089 153.699 119.279 155.621 Q118.492 157.519 116.385 160.111 Q115.807 160.783 112.705 164 Q109.603 167.195 103.955 172.958 Z" fill="#000000" fill-rule="nonzero" fill-opacity="1" /><polyline clip-path="url(#clip762)" style="stroke:#009af9; stroke-linecap:round; stroke-linejoin:round; stroke-width:16; stroke-opacity:1; fill:none" stroke-dasharray="8, 16" points="218.439,1080.69 228.852,1088.46 239.264,1096.23 249.677,1104 260.09,1111.76 270.503,1119.53 280.916,1127.3 291.329,1135.07 301.741,1142.84 312.154,1159.59 322.567,1188.35 332.98,1217.11 343.393,1245.87 353.805,1274.62 364.218,1303.38 374.631,1332.14 385.044,1360.9 395.457,1384.85 405.87,1402.26 416.282,1419.67 426.695,1437.08 437.108,1438.46 447.521,1419.14 457.934,1399.77 468.347,1380.4 478.759,1361.03 489.172,1341.66 499.585,1322.29 509.998,1302.92 520.411,1283.55 530.824,1264.18 541.236,1244.81 551.649,1225.44 562.062,1206.07 572.475,1186.7 582.888,1167.33 593.301,1147.96 603.713,1128.59 614.126,1109.23 624.539,1113.46 634.952,1124.34 645.365,1138.64 655.777,1157.29 666.19,1175.95 676.603,1194.61 687.016,1213.27 697.429,1231.93 707.842,1250.58 718.254,1269.24 728.667,1287.9 739.08,1306.56 749.493,1325.22 759.906,1343.87 770.319,1362.53 780.731,1381.88 791.144,1402.13 801.557,1422.37 811.97,1442.61 822.383,1445.72 832.796,1422.04 843.208,1398.37 853.621,1374.94 864.034,1357.17 874.447,1338.42 884.86,1297.62 895.273,1250.26 905.685,1202.8 916.098,1174.25 926.511,1151.8 936.924,1131.86 947.337,1113.38 957.749,1095.07 968.162,1078.59 978.575,1075.48 988.988,1083.62 999.401,1089.38 1009.81,1096.92 1020.23,1111.07 1030.64,1139.03 1041.05,1158.86 1051.46,1184.79 1061.88,1219.62 1072.29,1253.9 1082.7,1287.95 1093.12,1321.98 1103.53,1349.2 1113.94,1375.12 1124.35,1399.14 1134.77,1420.9 1145.18,1437.45 1155.59,1426.22 1166.01,1426.48 1176.42,1428 1186.83,1423.81 1197.24,1418.75 1207.66,1412.88 1218.07,1403.57 1228.48,1366.57 1238.9,1247.35 1249.31,1043.09 1259.72,717.503 1270.13,436.345 1280.55,302.583 1290.96,272.897 1301.37,300.574 1311.79,338.839 1322.2,359.814 1332.61,347.634 1343.02,335.968 1353.44,325.739 1363.85,319.62 1374.26,321.94 1384.68,326.822 1395.09,332.879 1405.5,342.671 1415.91,352.881 1426.33,363.937 1436.74,375.917 1447.15,382.296 1457.57,366.081 1467.98,349.867 1478.39,333.652 1488.8,320.135 1499.22,322.851 1509.63,325.566 1520.04,328.281 1530.45,330.997 1540.87,333.712 1551.28,336.427 1561.69,339.142 1572.11,339.764 1582.52,336.678 1592.93,333.592 1603.34,330.506 1613.76,327.42 1624.17,328.094 1634.58,328.982 1645,329.87 1655.41,330.737 1665.82,331.52 1676.23,332.303 1686.65,333.087 1697.06,333.87 1707.47,334.653 1717.89,335.436 1728.3,336.22 1738.71,337.003 1749.12,337.786 1759.54,338.57 1769.95,339.353 1780.36,340.136 1790.78,340.919 1801.19,341.703 1811.6,342.486 1822.01,343.269 1832.43,344.053 1842.84,344.836 1853.25,345.619 1863.67,346.402 1874.08,347.186 1884.49,347.969 1894.9,348.753 1905.32,349.536 1915.73,350.319 1926.14,351.102 1936.56,351.885 1946.97,352.669 1957.38,353.452 1967.79,354.236 1978.21,355.019 1988.62,355.802 1999.03,356.585 2009.45,357.369 2019.86,358.152 2030.27,358.935 2040.68,359.718 2051.1,360.502 2061.51,361.285 2071.92,362.068 2082.33,362.851 2092.75,363.635 2103.16,364.418 2113.57,365.201 2123.99,365.985 2134.4,366.768 2144.81,367.552 2155.22,368.335 2165.64,369.118 2176.05,369.901 2186.46,370.685 2196.88,371.468 2207.29,372.251 2217.7,373.035 2228.11,373.818 2238.53,374.601 2248.94,375.384 2259.35,376.168 2269.77,376.951 2280.18,377.734 2290.59,378.518 "/>
<polyline clip-path="url(#clip762)" style="stroke:#e26f46; stroke-linecap:round; stroke-linejoin:round; stroke-width:4; stroke-opacity:1; fill:none" points="218.439,1119.9 228.852,1100.41 239.264,1086.04 249.677,1077.25 260.09,1074.35 270.503,1077.41 280.916,1086.35 291.329,1100.86 301.741,1120.48 312.154,1144.56 322.567,1172.33 332.98,1202.86 343.393,1235.18 353.805,1268.21 364.218,1300.89 374.631,1332.15 385.044,1360.96 395.457,1386.39 405.87,1407.61 416.282,1423.92 426.695,1434.79 437.108,1439.87 447.521,1438.99 457.934,1432.18 468.347,1419.66 478.759,1401.84 489.172,1379.31 499.585,1352.79 509.998,1323.16 520.411,1291.38 530.824,1258.48 541.236,1225.55 551.649,1193.65 562.062,1163.83 572.475,1137.06 582.888,1114.21 593.301,1096.03 603.713,1083.12 614.126,1075.89 624.539,1074.58 634.952,1079.24 645.365,1089.7 655.777,1105.64 666.19,1126.52 676.603,1151.68 687.016,1180.28 697.429,1211.39 707.842,1244 718.254,1277.05 728.667,1309.45 739.08,1340.15 749.493,1368.14 759.906,1392.52 770.319,1412.48 780.731,1427.38 791.144,1436.73 801.557,1440.22 811.97,1437.74 822.383,1429.37 832.796,1415.39 843.208,1396.24 853.621,1372.56 864.034,1345.12 874.447,1314.81 884.86,1282.63 895.273,1249.62 905.685,1216.85 916.098,1185.41 926.511,1156.32 936.924,1130.52 947.337,1108.86 957.749,1092.04 968.162,1080.61 978.575,1074.96 988.988,1075.25 999.401,1081.48 1009.81,1093.46 1020.23,1110.78 1030.64,1132.88 1041.05,1159.04 1051.46,1188.41 1061.88,1220.03 1072.29,1252.86 1082.7,1285.84 1093.12,1317.89 1103.53,1347.95 1113.94,1375.06 1124.35,1398.33 1134.77,1416.99 1145.18,1430.45 1155.59,1438.25 1166.01,1440.14 1176.42,1436.07 1186.83,1426.16 1197.24,1410.74 1207.66,1390.31 1218.07,1365.54 1228.48,1337.24 1238.9,1306.33 1249.31,1273.82 1259.72,341.232 1270.13,339.72 1280.55,341.096 1290.96,345.676 1301.37,352.058 1311.79,357.543 1322.2,359.168 1332.61,354.947 1343.02,344.885 1353.44,331.32 1363.85,318.412 1374.26,310.871 1384.68,312.318 1395.09,323.823 1405.5,343.175 1415.91,365.198 1426.33,383.133 1436.74,390.698 1447.15,384.222 1457.57,364.129 1467.98,335.228 1478.39,305.609 1488.8,284.382 1499.22,278.882 1509.63,292.213 1520.04,321.913 1530.45,360.27 1540.87,396.301 1551.28,418.898 1561.69,420.237 1572.11,398.405 1582.52,358.394 1592.93,311.032 1603.34,270.064 1613.76,248.163 1624.17,253.033 1634.58,284.784 1645,335.472 1655.41,391.039 1665.82,435.209 1676.23,454.252 1686.65,441.229 1697.06,398.408 1707.47,337.032 1717.89,274.399 1728.3,228.986 1738.71,214.999 1749.12,237.965 1759.54,292.705 1769.95,364.416 1780.36,432.658 1790.78,477.18 1801.19,483.924 1811.6,449.426 1822.01,382.253 1832.43,300.925 1842.84,228.821 1853.25,187.456 1863.67,190.071 1874.08,237.439 1884.49,317.204 1894.9,407.072 1905.32,481.035 1915.73,516.899 1926.14,502.933 1936.56,441.647 1946.97,349.503 1957.38,252.517 1967.79,178.914 1978.21,150.916 1988.62,178.048 1999.03,253.976 2009.45,357.907 2019.86,460.267 2030.27,531.12 2040.68,548.917 2051.1,507.03 2061.51,416.093 2071.92,301.35 2082.33,195.653 2092.75,130.059 2103.16,124.708 2113.57,182.666 2123.99,288.6 2134.4,412.811 2144.81,519.55 2155.22,577.308 2165.64,568.112 2176.05,493.084 2186.46,372.556 2196.88,240.581 2207.29,135.312 2217.7,87.9763 2228.11,113.62 2238.53,206.367 2248.94,340.682 2259.35,478.385 2269.77,579.506 2280.18,613.88 2290.59,570.14 "/>
<path clip-path="url(#clip760)" d="M229.49 250.738 L675.966 250.738 L675.966 95.2176 L229.49 95.2176  Z" fill="#ffffff" fill-rule="evenodd" fill-opacity="1"/>
<polyline clip-path="url(#clip760)" style="stroke:#000000; stroke-linecap:round; stroke-linejoin:round; stroke-width:4; stroke-opacity:1; fill:none" points="229.49,250.738 675.966,250.738 675.966,95.2176 229.49,95.2176 229.49,250.738 "/>
<polyline clip-path="url(#clip760)" style="stroke:#009af9; stroke-linecap:round; stroke-linejoin:round; stroke-width:16; stroke-opacity:1; fill:none" stroke-dasharray="8, 16" points="253.896,147.058 400.328,147.058 "/>
<path clip-path="url(#clip760)" d="M429.409 133.62 L429.409 146.606 L435.289 146.606 Q438.552 146.606 440.335 144.916 Q442.117 143.227 442.117 140.102 Q442.117 137 440.335 135.31 Q438.552 133.62 435.289 133.62 L429.409 133.62 M424.733 129.778 L435.289 129.778 Q441.099 129.778 444.062 132.416 Q447.048 135.032 447.048 140.102 Q447.048 145.217 444.062 147.833 Q441.099 150.449 435.289 150.449 L429.409 150.449 L429.409 164.338 L424.733 164.338 L424.733 129.778 Z" fill="#000000" fill-rule="nonzero" fill-opacity="1" /><path clip-path="url(#clip760)" d="M467.325 142.393 Q466.608 141.977 465.751 141.791 Q464.918 141.583 463.899 141.583 Q460.288 141.583 458.344 143.944 Q456.423 146.282 456.423 150.68 L456.423 164.338 L452.14 164.338 L452.14 138.412 L456.423 138.412 L456.423 142.44 Q457.765 140.078 459.918 138.944 Q462.071 137.787 465.149 137.787 Q465.589 137.787 466.122 137.856 Q466.654 137.903 467.302 138.018 L467.325 142.393 Z" fill="#000000" fill-rule="nonzero" fill-opacity="1" /><path clip-path="url(#clip760)" d="M492.927 150.31 L492.927 152.393 L473.344 152.393 Q473.622 156.791 475.983 159.106 Q478.367 161.398 482.603 161.398 Q485.057 161.398 487.348 160.796 Q489.663 160.194 491.932 158.99 L491.932 163.018 Q489.64 163.99 487.233 164.5 Q484.825 165.009 482.348 165.009 Q476.145 165.009 472.511 161.398 Q468.899 157.787 468.899 151.629 Q468.899 145.264 472.325 141.537 Q475.774 137.787 481.608 137.787 Q486.839 137.787 489.872 141.166 Q492.927 144.523 492.927 150.31 M488.668 149.06 Q488.622 145.565 486.7 143.481 Q484.802 141.398 481.654 141.398 Q478.089 141.398 475.936 143.412 Q473.807 145.426 473.483 149.083 L488.668 149.06 Z" fill="#000000" fill-rule="nonzero" fill-opacity="1" /><path clip-path="url(#clip760)" d="M516.978 142.347 L516.978 128.319 L521.237 128.319 L521.237 164.338 L516.978 164.338 L516.978 160.449 Q515.635 162.763 513.575 163.898 Q511.538 165.009 508.668 165.009 Q503.969 165.009 501.006 161.259 Q498.066 157.509 498.066 151.398 Q498.066 145.287 501.006 141.537 Q503.969 137.787 508.668 137.787 Q511.538 137.787 513.575 138.921 Q515.635 140.032 516.978 142.347 M502.464 151.398 Q502.464 156.097 504.385 158.782 Q506.33 161.444 509.709 161.444 Q513.089 161.444 515.033 158.782 Q516.978 156.097 516.978 151.398 Q516.978 146.699 515.033 144.037 Q513.089 141.352 509.709 141.352 Q506.33 141.352 504.385 144.037 Q502.464 146.699 502.464 151.398 Z" fill="#000000" fill-rule="nonzero" fill-opacity="1" /><path clip-path="url(#clip760)" d="M530.01 138.412 L534.269 138.412 L534.269 164.338 L530.01 164.338 L530.01 138.412 M530.01 128.319 L534.269 128.319 L534.269 133.713 L530.01 133.713 L530.01 128.319 Z" fill="#000000" fill-rule="nonzero" fill-opacity="1" /><path clip-path="url(#clip760)" d="M561.839 139.407 L561.839 143.389 Q560.033 142.393 558.205 141.907 Q556.399 141.398 554.547 141.398 Q550.404 141.398 548.112 144.037 Q545.82 146.652 545.82 151.398 Q545.82 156.143 548.112 158.782 Q550.404 161.398 554.547 161.398 Q556.399 161.398 558.205 160.912 Q560.033 160.402 561.839 159.407 L561.839 163.342 Q560.056 164.176 558.135 164.592 Q556.237 165.009 554.084 165.009 Q548.228 165.009 544.779 161.328 Q541.33 157.648 541.33 151.398 Q541.33 145.055 544.802 141.421 Q548.297 137.787 554.362 137.787 Q556.33 137.787 558.205 138.203 Q560.08 138.597 561.839 139.407 Z" fill="#000000" fill-rule="nonzero" fill-opacity="1" /><path clip-path="url(#clip760)" d="M573.459 131.051 L573.459 138.412 L582.232 138.412 L582.232 141.722 L573.459 141.722 L573.459 155.796 Q573.459 158.967 574.316 159.87 Q575.195 160.773 577.857 160.773 L582.232 160.773 L582.232 164.338 L577.857 164.338 Q572.927 164.338 571.052 162.509 Q569.177 160.657 569.177 155.796 L569.177 141.722 L566.052 141.722 L566.052 138.412 L569.177 138.412 L569.177 131.051 L573.459 131.051 Z" fill="#000000" fill-rule="nonzero" fill-opacity="1" /><path clip-path="url(#clip760)" d="M587.834 138.412 L592.093 138.412 L592.093 164.338 L587.834 164.338 L587.834 138.412 M587.834 128.319 L592.093 128.319 L592.093 133.713 L587.834 133.713 L587.834 128.319 Z" fill="#000000" fill-rule="nonzero" fill-opacity="1" /><path clip-path="url(#clip760)" d="M611.051 141.398 Q607.626 141.398 605.635 144.083 Q603.644 146.745 603.644 151.398 Q603.644 156.051 605.612 158.736 Q607.602 161.398 611.051 161.398 Q614.454 161.398 616.445 158.713 Q618.436 156.027 618.436 151.398 Q618.436 146.791 616.445 144.106 Q614.454 141.398 611.051 141.398 M611.051 137.787 Q616.607 137.787 619.778 141.398 Q622.95 145.009 622.95 151.398 Q622.95 157.764 619.778 161.398 Q616.607 165.009 611.051 165.009 Q605.473 165.009 602.302 161.398 Q599.153 157.764 599.153 151.398 Q599.153 145.009 602.302 141.398 Q605.473 137.787 611.051 137.787 Z" fill="#000000" fill-rule="nonzero" fill-opacity="1" /><path clip-path="url(#clip760)" d="M651.561 148.689 L651.561 164.338 L647.301 164.338 L647.301 148.828 Q647.301 145.148 645.866 143.319 Q644.431 141.49 641.561 141.49 Q638.112 141.49 636.121 143.69 Q634.13 145.889 634.13 149.685 L634.13 164.338 L629.848 164.338 L629.848 138.412 L634.13 138.412 L634.13 142.44 Q635.658 140.102 637.718 138.944 Q639.801 137.787 642.51 137.787 Q646.977 137.787 649.269 140.565 Q651.561 143.319 651.561 148.689 Z" fill="#000000" fill-rule="nonzero" fill-opacity="1" /><polyline clip-path="url(#clip760)" style="stroke:#e26f46; stroke-linecap:round; stroke-linejoin:round; stroke-width:4; stroke-opacity:1; fill:none" points="253.896,198.898 400.328,198.898 "/>
<path clip-path="url(#clip760)" d="M424.733 181.618 L446.585 181.618 L446.585 185.553 L429.409 185.553 L429.409 195.784 L445.867 195.784 L445.867 199.719 L429.409 199.719 L429.409 212.242 L447.001 212.242 L447.001 216.178 L424.733 216.178 L424.733 181.618 Z" fill="#000000" fill-rule="nonzero" fill-opacity="1" /><path clip-path="url(#clip760)" d="M476.052 190.252 L466.677 202.867 L476.538 216.178 L471.515 216.178 L463.969 205.992 L456.423 216.178 L451.4 216.178 L461.469 202.613 L452.256 190.252 L457.279 190.252 L464.154 199.488 L471.029 190.252 L476.052 190.252 Z" fill="#000000" fill-rule="nonzero" fill-opacity="1" /><path clip-path="url(#clip760)" d="M494.339 203.145 Q489.177 203.145 487.186 204.326 Q485.196 205.506 485.196 208.354 Q485.196 210.622 486.677 211.965 Q488.182 213.284 490.751 213.284 Q494.293 213.284 496.422 210.784 Q498.575 208.261 498.575 204.094 L498.575 203.145 L494.339 203.145 M502.834 201.386 L502.834 216.178 L498.575 216.178 L498.575 212.242 Q497.117 214.603 494.941 215.738 Q492.765 216.849 489.617 216.849 Q485.635 216.849 483.274 214.627 Q480.936 212.381 480.936 208.631 Q480.936 204.256 483.853 202.034 Q486.793 199.812 492.603 199.812 L498.575 199.812 L498.575 199.395 Q498.575 196.455 496.631 194.858 Q494.71 193.238 491.214 193.238 Q488.992 193.238 486.885 193.77 Q484.779 194.303 482.835 195.367 L482.835 191.432 Q485.173 190.53 487.372 190.09 Q489.571 189.627 491.654 189.627 Q497.279 189.627 500.057 192.543 Q502.834 195.46 502.834 201.386 Z" fill="#000000" fill-rule="nonzero" fill-opacity="1" /><path clip-path="url(#clip760)" d="M530.265 191.247 L530.265 195.229 Q528.459 194.233 526.631 193.747 Q524.825 193.238 522.973 193.238 Q518.83 193.238 516.538 195.877 Q514.246 198.492 514.246 203.238 Q514.246 207.983 516.538 210.622 Q518.83 213.238 522.973 213.238 Q524.825 213.238 526.631 212.752 Q528.459 212.242 530.265 211.247 L530.265 215.182 Q528.482 216.016 526.561 216.432 Q524.663 216.849 522.51 216.849 Q516.654 216.849 513.205 213.168 Q509.756 209.488 509.756 203.238 Q509.756 196.895 513.228 193.261 Q516.723 189.627 522.788 189.627 Q524.756 189.627 526.631 190.043 Q528.506 190.437 530.265 191.247 Z" fill="#000000" fill-rule="nonzero" fill-opacity="1" /><path clip-path="url(#clip760)" d="M541.885 182.891 L541.885 190.252 L550.658 190.252 L550.658 193.562 L541.885 193.562 L541.885 207.636 Q541.885 210.807 542.742 211.71 Q543.621 212.613 546.283 212.613 L550.658 212.613 L550.658 216.178 L546.283 216.178 Q541.353 216.178 539.478 214.349 Q537.603 212.497 537.603 207.636 L537.603 193.562 L534.478 193.562 L534.478 190.252 L537.603 190.252 L537.603 182.891 L541.885 182.891 Z" fill="#000000" fill-rule="nonzero" fill-opacity="1" /></svg>
