<?xml version="1.0" encoding="utf-8"?>
<svg xmlns="http://www.w3.org/2000/svg" xmlns:xlink="http://www.w3.org/1999/xlink" width="600" height="400" viewBox="0 0 2400 1600">
<defs>
  <clipPath id="clip760">
    <rect x="0" y="0" width="2400" height="1600"/>
  </clipPath>
</defs>
<path clip-path="url(#clip760)" d="M0 1600 L2400 1600 L2400 0 L0 0  Z" fill="#ffffff" fill-rule="evenodd" fill-opacity="1"/>
<defs>
  <clipPath id="clip761">
    <rect x="480" y="0" width="1681" height="1600"/>
  </clipPath>
</defs>
<path clip-path="url(#clip760)" d="M186.274 1486.45 L2352.76 1486.45 L2352.76 47.2441 L186.274 47.2441  Z" fill="#ffffff" fill-rule="evenodd" fill-opacity="1"/>
<defs>
  <clipPath id="clip762">
    <rect x="186" y="47" width="2167" height="1440"/>
  </clipPath>
</defs>
<polyline clip-path="url(#clip762)" style="stroke:#000000; stroke-linecap:round; stroke-linejoin:round; stroke-width:2; stroke-opacity:0.1; fill:none" points="247.59,1486.45 247.59,47.2441 "/>
<polyline clip-path="url(#clip762)" style="stroke:#000000; stroke-linecap:round; stroke-linejoin:round; stroke-width:2; stroke-opacity:0.1; fill:none" points="758.552,1486.45 758.552,47.2441 "/>
<polyline clip-path="url(#clip762)" style="stroke:#000000; stroke-linecap:round; stroke-linejoin:round; stroke-width:2; stroke-opacity:0.1; fill:none" points="1269.51,1486.45 1269.51,47.2441 "/>
<polyline clip-path="url(#clip762)" style="stroke:#000000; stroke-linecap:round; stroke-linejoin:round; stroke-width:2; stroke-opacity:0.1; fill:none" points="1780.48,1486.45 1780.48,47.2441 "/>
<polyline clip-path="url(#clip762)" style="stroke:#000000; stroke-linecap:round; stroke-linejoin:round; stroke-width:2; stroke-opacity:0.1; fill:none" points="2291.44,1486.45 2291.44,47.2441 "/>
<polyline clip-path="url(#clip760)" style="stroke:#000000; stroke-linecap:round; stroke-linejoin:round; stroke-width:4; stroke-opacity:1; fill:none" points="186.274,1486.45 2352.76,1486.45 "/>
<polyline clip-path="url(#clip760)" style="stroke:#000000; stroke-linecap:round; stroke-linejoin:round; stroke-width:4; stroke-opacity:1; fill:none" points="247.59,1486.45 247.59,1467.55 "/>
<polyline clip-path="url(#clip760)" style="stroke:#000000; stroke-linecap:round; stroke-linejoin:round; stroke-width:4; stroke-opacity:1; fill:none" points="758.552,1486.45 758.552,1467.55 "/>
<polyline clip-path="url(#clip760)" style="stroke:#000000; stroke-linecap:round; stroke-linejoin:round; stroke-width:4; stroke-opacity:1; fill:none" points="1269.51,1486.45 1269.51,1467.55 "/>
<polyline clip-path="url(#clip760)" style="stroke:#000000; stroke-linecap:round; stroke-linejoin:round; stroke-width:4; stroke-opacity:1; fill:none" points="1780.48,1486.45 1780.48,1467.55 "/>
<polyline clip-path="url(#clip760)" style="stroke:#000000; stroke-linecap:round; stroke-linejoin:round; stroke-width:4; stroke-opacity:1; fill:none" points="2291.44,1486.45 2291.44,1467.55 "/>
<path clip-path="url(#clip760)" d="M209.893 1517.37 Q206.282 1517.37 204.453 1520.93 Q202.648 1524.47 202.648 1531.6 Q202.648 1538.71 204.453 1542.27 Q206.282 1545.82 209.893 1545.82 Q213.527 1545.82 215.333 1542.27 Q217.161 1538.71 217.161 1531.6 Q217.161 1524.47 215.333 1520.93 Q213.527 1517.37 209.893 1517.37 M209.893 1513.66 Q215.703 1513.66 218.759 1518.27 Q221.837 1522.85 221.837 1531.6 Q221.837 1540.33 218.759 1544.94 Q215.703 1549.52 209.893 1549.52 Q204.083 1549.52 201.004 1544.94 Q197.949 1540.33 197.949 1531.6 Q197.949 1522.85 201.004 1518.27 Q204.083 1513.66 209.893 1513.66 Z" fill="#000000" fill-rule="nonzero" fill-opacity="1" /><path clip-path="url(#clip760)" d="M230.055 1542.97 L234.939 1542.97 L234.939 1548.85 L230.055 1548.85 L230.055 1542.97 Z" fill="#000000" fill-rule="nonzero" fill-opacity="1" /><path clip-path="url(#clip760)" d="M255.124 1517.37 Q251.513 1517.37 249.684 1520.93 Q247.879 1524.47 247.879 1531.6 Q247.879 1538.71 249.684 1542.27 Q251.513 1545.82 255.124 1545.82 Q258.758 1545.82 260.564 1542.27 Q262.393 1538.71 262.393 1531.6 Q262.393 1524.47 260.564 1520.93 Q258.758 1517.37 255.124 1517.37 M255.124 1513.66 Q260.934 1513.66 263.99 1518.27 Q267.069 1522.85 267.069 1531.6 Q267.069 1540.33 263.99 1544.94 Q260.934 1549.52 255.124 1549.52 Q249.314 1549.52 246.235 1544.94 Q243.18 1540.33 243.18 1531.6 Q243.18 1522.85 246.235 1518.27 Q249.314 1513.66 255.124 1513.66 Z" fill="#000000" fill-rule="nonzero" fill-opacity="1" /><path clip-path="url(#clip760)" d="M285.286 1517.37 Q281.675 1517.37 279.846 1520.93 Q278.041 1524.47 278.041 1531.6 Q278.041 1538.71 279.846 1542.27 Q281.675 1545.82 285.286 1545.82 Q288.92 1545.82 290.726 1542.27 Q292.555 1538.71 292.555 1531.6 Q292.555 1524.47 290.726 1520.93 Q288.92 1517.37 285.286 1517.37 M285.286 1513.66 Q291.096 1513.66 294.152 1518.27 Q297.23 1522.85 297.23 1531.6 Q297.23 1540.33 294.152 1544.94 Q291.096 1549.52 285.286 1549.52 Q279.476 1549.52 276.397 1544.94 Q273.342 1540.33 273.342 1531.6 Q273.342 1522.85 276.397 1518.27 Q279.476 1513.66 285.286 1513.66 Z" fill="#000000" fill-rule="nonzero" fill-opacity="1" /><path clip-path="url(#clip760)" d="M721.353 1517.37 Q717.742 1517.37 715.914 1520.93 Q714.108 1524.47 714.108 1531.6 Q714.108 1538.71 715.914 1542.27 Q717.742 1545.82 721.353 1545.82 Q724.988 1545.82 726.793 1542.27 Q728.622 1538.71 728.622 1531.6 Q728.622 1524.47 726.793 1520.93 Q724.988 1517.37 721.353 1517.37 M721.353 1513.66 Q727.164 1513.66 730.219 1518.27 Q733.298 1522.85 733.298 1531.6 Q733.298 1540.33 730.219 1544.94 Q727.164 1549.52 721.353 1549.52 Q715.543 1549.52 712.465 1544.94 Q709.409 1540.33 709.409 1531.6 Q709.409 1522.85 712.465 1518.27 Q715.543 1513.66 721.353 1513.66 Z" fill="#000000" fill-rule="nonzero" fill-opacity="1" /><path clip-path="url(#clip760)" d="M741.515 1542.97 L746.4 1542.97 L746.4 1548.85 L741.515 1548.85 L741.515 1542.97 Z" fill="#000000" fill-rule="nonzero" fill-opacity="1" /><path clip-path="url(#clip760)" d="M760.612 1544.91 L776.932 1544.91 L776.932 1548.85 L754.987 1548.85 L754.987 1544.91 Q757.649 1542.16 762.233 1537.53 Q766.839 1532.88 768.02 1531.53 Q770.265 1529.01 771.145 1527.27 Q772.048 1525.51 772.048 1523.82 Q772.048 1521.07 770.103 1519.33 Q768.182 1517.6 765.08 1517.6 Q762.881 1517.6 760.427 1518.36 Q757.997 1519.13 755.219 1520.68 L755.219 1515.95 Q758.043 1514.82 760.497 1514.24 Q762.95 1513.66 764.987 1513.66 Q770.358 1513.66 773.552 1516.35 Q776.747 1519.03 776.747 1523.52 Q776.747 1525.65 775.936 1527.57 Q775.149 1529.47 773.043 1532.07 Q772.464 1532.74 769.362 1535.95 Q766.261 1539.15 760.612 1544.91 Z" fill="#000000" fill-rule="nonzero" fill-opacity="1" /><path clip-path="url(#clip760)" d="M786.793 1514.29 L805.149 1514.29 L805.149 1518.22 L791.075 1518.22 L791.075 1526.7 Q792.094 1526.35 793.112 1526.19 Q794.131 1526 795.149 1526 Q800.936 1526 804.316 1529.17 Q807.695 1532.34 807.695 1537.76 Q807.695 1543.34 804.223 1546.44 Q800.751 1549.52 794.432 1549.52 Q792.256 1549.52 789.987 1549.15 Q787.742 1548.78 785.335 1548.04 L785.335 1543.34 Q787.418 1544.47 789.64 1545.03 Q791.862 1545.58 794.339 1545.58 Q798.344 1545.58 800.682 1543.48 Q803.02 1541.37 803.02 1537.76 Q803.02 1534.15 800.682 1532.04 Q798.344 1529.94 794.339 1529.94 Q792.464 1529.94 790.589 1530.35 Q788.737 1530.77 786.793 1531.65 L786.793 1514.29 Z" fill="#000000" fill-rule="nonzero" fill-opacity="1" /><path clip-path="url(#clip760)" d="M1231.82 1517.37 Q1228.21 1517.37 1226.38 1520.93 Q1224.57 1524.47 1224.57 1531.6 Q1224.57 1538.71 1226.38 1542.27 Q1228.21 1545.82 1231.82 1545.82 Q1235.45 1545.82 1237.26 1542.27 Q1239.09 1538.71 1239.09 1531.6 Q1239.09 1524.47 1237.26 1520.93 Q1235.45 1517.37 1231.82 1517.37 M1231.82 1513.66 Q1237.63 1513.66 1240.68 1518.27 Q1243.76 1522.85 1243.76 1531.6 Q1243.76 1540.33 1240.68 1544.94 Q1237.63 1549.52 1231.82 1549.52 Q1226.01 1549.52 1222.93 1544.94 Q1219.87 1540.33 1219.87 1531.6 Q1219.87 1522.85 1222.93 1518.27 Q1226.01 1513.66 1231.82 1513.66 Z" fill="#000000" fill-rule="nonzero" fill-opacity="1" /><path clip-path="url(#clip760)" d="M1251.98 1542.97 L1256.86 1542.97 L1256.86 1548.85 L1251.98 1548.85 L1251.98 1542.97 Z" fill="#000000" fill-rule="nonzero" fill-opacity="1" /><path clip-path="url(#clip760)" d="M1267.1 1514.29 L1285.45 1514.29 L1285.45 1518.22 L1271.38 1518.22 L1271.38 1526.7 Q1272.4 1526.35 1273.42 1526.19 Q1274.43 1526 1275.45 1526 Q1281.24 1526 1284.62 1529.17 Q1288 1532.34 1288 1537.76 Q1288 1543.34 1284.53 1546.44 Q1281.05 1549.52 1274.73 1549.52 Q1272.56 1549.52 1270.29 1549.15 Q1268.05 1548.78 1265.64 1548.04 L1265.64 1543.34 Q1267.72 1544.47 1269.94 1545.03 Q1272.17 1545.58 1274.64 1545.58 Q1278.65 1545.58 1280.98 1543.48 Q1283.32 1541.37 1283.32 1537.76 Q1283.32 1534.15 1280.98 1532.04 Q1278.65 1529.94 1274.64 1529.94 Q1272.77 1529.94 1270.89 1530.35 Q1269.04 1530.77 1267.1 1531.65 L1267.1 1514.29 Z" fill="#000000" fill-rule="nonzero" fill-opacity="1" /><path clip-path="url(#clip760)" d="M1307.21 1517.37 Q1303.6 1517.37 1301.77 1520.93 Q1299.97 1524.47 1299.97 1531.6 Q1299.97 1538.71 1301.77 1542.27 Q1303.6 1545.82 1307.21 1545.82 Q1310.85 1545.82 1312.65 1542.27 Q1314.48 1538.71 1314.48 1531.6 Q1314.48 1524.47 1312.65 1520.93 Q1310.85 1517.37 1307.21 1517.37 M1307.21 1513.66 Q1313.02 1513.66 1316.08 1518.27 Q1319.16 1522.85 1319.16 1531.6 Q1319.16 1540.33 1316.08 1544.94 Q1313.02 1549.52 1307.21 1549.52 Q1301.4 1549.52 1298.32 1544.94 Q1295.27 1540.33 1295.27 1531.6 Q1295.27 1522.85 1298.32 1518.27 Q1301.4 1513.66 1307.21 1513.66 Z" fill="#000000" fill-rule="nonzero" fill-opacity="1" /><path clip-path="url(#clip760)" d="M1743.28 1517.37 Q1739.67 1517.37 1737.84 1520.93 Q1736.03 1524.47 1736.03 1531.6 Q1736.03 1538.71 1737.84 1542.27 Q1739.67 1545.82 1743.28 1545.82 Q1746.91 1545.82 1748.72 1542.27 Q1750.55 1538.71 1750.55 1531.6 Q1750.55 1524.47 1748.72 1520.93 Q1746.91 1517.37 1743.28 1517.37 M1743.28 1513.66 Q1749.09 1513.66 1752.14 1518.27 Q1755.22 1522.85 1755.22 1531.6 Q1755.22 1540.33 1752.14 1544.94 Q1749.09 1549.52 1743.28 1549.52 Q1737.47 1549.52 1734.39 1544.94 Q1731.33 1540.33 1731.33 1531.6 Q1731.33 1522.85 1734.39 1518.27 Q1737.47 1513.66 1743.28 1513.66 Z" fill="#000000" fill-rule="nonzero" fill-opacity="1" /><path clip-path="url(#clip760)" d="M1763.44 1542.97 L1768.32 1542.97 L1768.32 1548.85 L1763.44 1548.85 L1763.44 1542.97 Z" fill="#000000" fill-rule="nonzero" fill-opacity="1" /><path clip-path="url(#clip760)" d="M1777.33 1514.29 L1799.55 1514.29 L1799.55 1516.28 L1787.01 1548.85 L1782.12 1548.85 L1793.93 1518.22 L1777.33 1518.22 L1777.33 1514.29 Z" fill="#000000" fill-rule="nonzero" fill-opacity="1" /><path clip-path="url(#clip760)" d="M1808.72 1514.29 L1827.07 1514.29 L1827.07 1518.22 L1813 1518.22 L1813 1526.7 Q1814.02 1526.35 1815.04 1526.19 Q1816.06 1526 1817.07 1526 Q1822.86 1526 1826.24 1529.17 Q1829.62 1532.34 1829.62 1537.76 Q1829.62 1543.34 1826.15 1546.44 Q1822.68 1549.52 1816.36 1549.52 Q1814.18 1549.52 1811.91 1549.15 Q1809.67 1548.78 1807.26 1548.04 L1807.26 1543.34 Q1809.34 1544.47 1811.57 1545.03 Q1813.79 1545.58 1816.26 1545.58 Q1820.27 1545.58 1822.61 1543.48 Q1824.95 1541.37 1824.95 1537.76 Q1824.95 1534.15 1822.61 1532.04 Q1820.27 1529.94 1816.26 1529.94 Q1814.39 1529.94 1812.51 1530.35 Q1810.66 1530.77 1808.72 1531.65 L1808.72 1514.29 Z" fill="#000000" fill-rule="nonzero" fill-opacity="1" /><path clip-path="url(#clip760)" d="M2243.51 1544.91 L2251.15 1544.91 L2251.15 1518.55 L2242.84 1520.21 L2242.84 1515.95 L2251.1 1514.29 L2255.78 1514.29 L2255.78 1544.91 L2263.42 1544.91 L2263.42 1548.85 L2243.51 1548.85 L2243.51 1544.91 Z" fill="#000000" fill-rule="nonzero" fill-opacity="1" /><path clip-path="url(#clip760)" d="M2272.86 1542.97 L2277.75 1542.97 L2277.75 1548.85 L2272.86 1548.85 L2272.86 1542.97 Z" fill="#000000" fill-rule="nonzero" fill-opacity="1" /><path clip-path="url(#clip760)" d="M2297.93 1517.37 Q2294.32 1517.37 2292.49 1520.93 Q2290.69 1524.47 2290.69 1531.6 Q2290.69 1538.71 2292.49 1542.27 Q2294.32 1545.82 2297.93 1545.82 Q2301.57 1545.82 2303.37 1542.27 Q2305.2 1538.71 2305.2 1531.6 Q2305.2 1524.47 2303.37 1520.93 Q2301.57 1517.37 2297.93 1517.37 M2297.93 1513.66 Q2303.74 1513.66 2306.8 1518.27 Q2309.88 1522.85 2309.88 1531.6 Q2309.88 1540.33 2306.8 1544.94 Q2303.74 1549.52 2297.93 1549.52 Q2292.12 1549.52 2289.04 1544.94 Q2285.99 1540.33 2285.99 1531.6 Q2285.99 1522.85 2289.04 1518.27 Q2292.12 1513.66 2297.93 1513.66 Z" fill="#000000" fill-rule="nonzero" fill-opacity="1" /><path clip-path="url(#clip760)" d="M2328.1 1517.37 Q2324.48 1517.37 2322.66 1520.93 Q2320.85 1524.47 2320.85 1531.6 Q2320.85 1538.71 2322.66 1542.27 Q2324.48 1545.82 2328.1 1545.82 Q2331.73 1545.82 2333.54 1542.27 Q2335.36 1538.71 2335.36 1531.6 Q2335.36 1524.47 2333.54 1520.93 Q2331.73 1517.37 2328.1 1517.37 M2328.1 1513.66 Q2333.91 1513.66 2336.96 1518.27 Q2340.04 1522.85 2340.04 1531.6 Q2340.04 1540.33 2336.96 1544.94 Q2333.91 1549.52 2328.1 1549.52 Q2322.29 1549.52 2319.21 1544.94 Q2316.15 1540.33 2316.15 1531.6 Q2316.15 1522.85 2319.21 1518.27 Q2322.29 1513.66 2328.1 1513.66 Z" fill="#000000" fill-rule="nonzero" fill-opacity="1" /><polyline clip-path="url(#clip762)" style="stroke:#000000; stroke-linecap:round; stroke-linejoin:round; stroke-width:2; stroke-opacity:0.1; fill:none" points="186.274,1444.84 2352.76,1444.84 "/>
<polyline clip-path="url(#clip762)" style="stroke:#000000; stroke-linecap:round; stroke-linejoin:round; stroke-width:2; stroke-opacity:0.1; fill:none" points="186.274,1105.83 2352.76,1105.83 "/>
<polyline clip-path="url(#clip762)" style="stroke:#000000; stroke-linecap:round; stroke-linejoin:round; stroke-width:2; stroke-opacity:0.1; fill:none" points="186.274,766.815 2352.76,766.815 "/>
<polyline clip-path="url(#clip762)" style="stroke:#000000; stroke-linecap:round; stroke-linejoin:round; stroke-width:2; stroke-opacity:0.1; fill:none" points="186.274,427.805 2352.76,427.805 "/>
<polyline clip-path="url(#clip762)" style="stroke:#000000; stroke-linecap:round; stroke-linejoin:round; stroke-width:2; stroke-opacity:0.1; fill:none" points="186.274,88.7952 2352.76,88.7952 "/>
<polyline clip-path="url(#clip760)" style="stroke:#000000; stroke-linecap:round; stroke-linejoin:round; stroke-width:4; stroke-opacity:1; fill:none" points="186.274,1486.45 186.274,47.2441 "/>
<polyline clip-path="url(#clip760)" style="stroke:#000000; stroke-linecap:round; stroke-linejoin:round; stroke-width:4; stroke-opacity:1; fill:none" points="186.274,1444.84 205.172,1444.84 "/>
<polyline clip-path="url(#clip760)" style="stroke:#000000; stroke-linecap:round; stroke-linejoin:round; stroke-width:4; stroke-opacity:1; fill:none" points="186.274,1105.83 205.172,1105.83 "/>
<polyline clip-path="url(#clip760)" style="stroke:#000000; stroke-linecap:round; stroke-linejoin:round; stroke-width:4; stroke-opacity:1; fill:none" points="186.274,766.815 205.172,766.815 "/>
<polyline clip-path="url(#clip760)" style="stroke:#000000; stroke-linecap:round; stroke-linejoin:round; stroke-width:4; stroke-opacity:1; fill:none" points="186.274,427.805 205.172,427.805 "/>
<polyline clip-path="url(#clip760)" style="stroke:#000000; stroke-linecap:round; stroke-linejoin:round; stroke-width:4; stroke-opacity:1; fill:none" points="186.274,88.7952 205.172,88.7952 "/>
<path clip-path="url(#clip760)" d="M62.9365 1430.63 Q59.3254 1430.63 57.4967 1434.2 Q55.6912 1437.74 55.6912 1444.87 Q55.6912 1451.98 57.4967 1455.54 Q59.3254 1459.08 62.9365 1459.08 Q66.5707 1459.08 68.3763 1455.54 Q70.205 1451.98 70.205 1444.87 Q70.205 1437.74 68.3763 1434.2 Q66.5707 1430.63 62.9365 1430.63 M62.9365 1426.93 Q68.7467 1426.93 71.8022 1431.54 Q74.8809 1436.12 74.8809 1444.87 Q74.8809 1453.6 71.8022 1458.2 Q68.7467 1462.79 62.9365 1462.79 Q57.1264 1462.79 54.0477 1458.2 Q50.9921 1453.6 50.9921 1444.87 Q50.9921 1436.12 54.0477 1431.54 Q57.1264 1426.93 62.9365 1426.93 Z" fill="#000000" fill-rule="nonzero" fill-opacity="1" /><path clip-path="url(#clip760)" d="M83.0984 1456.24 L87.9827 1456.24 L87.9827 1462.12 L83.0984 1462.12 L83.0984 1456.24 Z" fill="#000000" fill-rule="nonzero" fill-opacity="1" /><path clip-path="url(#clip760)" d="M108.168 1430.63 Q104.557 1430.63 102.728 1434.2 Q100.922 1437.74 100.922 1444.87 Q100.922 1451.98 102.728 1455.54 Q104.557 1459.08 108.168 1459.08 Q111.802 1459.08 113.608 1455.54 Q115.436 1451.98 115.436 1444.87 Q115.436 1437.74 113.608 1434.2 Q111.802 1430.63 108.168 1430.63 M108.168 1426.93 Q113.978 1426.93 117.033 1431.54 Q120.112 1436.12 120.112 1444.87 Q120.112 1453.6 117.033 1458.2 Q113.978 1462.79 108.168 1462.79 Q102.358 1462.79 99.2789 1458.2 Q96.2234 1453.6 96.2234 1444.87 Q96.2234 1436.12 99.2789 1431.54 Q102.358 1426.93 108.168 1426.93 Z" fill="#000000" fill-rule="nonzero" fill-opacity="1" /><path clip-path="url(#clip760)" d="M138.33 1430.63 Q134.719 1430.63 132.89 1434.2 Q131.084 1437.74 131.084 1444.87 Q131.084 1451.98 132.89 1455.54 Q134.719 1459.08 138.33 1459.08 Q141.964 1459.08 143.769 1455.54 Q145.598 1451.98 145.598 1444.87 Q145.598 1437.74 143.769 1434.2 Q141.964 1430.63 138.33 1430.63 M138.33 1426.93 Q144.14 1426.93 147.195 1431.54 Q150.274 1436.12 150.274 1444.87 Q150.274 1453.6 147.195 1458.2 Q144.14 1462.79 138.33 1462.79 Q132.519 1462.79 129.441 1458.2 Q126.385 1453.6 126.385 1444.87 Q126.385 1436.12 129.441 1431.54 Q132.519 1426.93 138.33 1426.93 Z" fill="#000000" fill-rule="nonzero" fill-opacity="1" /><path clip-path="url(#clip760)" d="M63.9319 1091.62 Q60.3208 1091.62 58.4921 1095.19 Q56.6865 1098.73 56.6865 1105.86 Q56.6865 1112.97 58.4921 1116.53 Q60.3208 1120.07 63.9319 1120.07 Q67.5661 1120.07 69.3717 1116.53 Q71.2004 1112.97 71.2004 1105.86 Q71.2004 1098.73 69.3717 1095.19 Q67.5661 1091.62 63.9319 1091.62 M63.9319 1087.92 Q69.742 1087.92 72.7976 1092.53 Q75.8763 1097.11 75.8763 1105.86 Q75.8763 1114.59 72.7976 1119.19 Q69.742 1123.78 63.9319 1123.78 Q58.1217 1123.78 55.043 1119.19 Q51.9875 1114.59 51.9875 1105.86 Q51.9875 1097.11 55.043 1092.53 Q58.1217 1087.92 63.9319 1087.92 Z" fill="#000000" fill-rule="nonzero" fill-opacity="1" /><path clip-path="url(#clip760)" d="M84.0938 1117.23 L88.978 1117.23 L88.978 1123.11 L84.0938 1123.11 L84.0938 1117.23 Z" fill="#000000" fill-rule="nonzero" fill-opacity="1" /><path clip-path="url(#clip760)" d="M103.191 1119.17 L119.51 1119.17 L119.51 1123.11 L97.566 1123.11 L97.566 1119.17 Q100.228 1116.42 104.811 1111.79 Q109.418 1107.13 110.598 1105.79 Q112.844 1103.27 113.723 1101.53 Q114.626 1099.77 114.626 1098.08 Q114.626 1095.33 112.682 1093.59 Q110.76 1091.86 107.658 1091.86 Q105.459 1091.86 103.006 1092.62 Q100.575 1093.38 97.7974 1094.93 L97.7974 1090.21 Q100.621 1089.08 103.075 1088.5 Q105.529 1087.92 107.566 1087.92 Q112.936 1087.92 116.131 1090.61 Q119.325 1093.29 119.325 1097.78 Q119.325 1099.91 118.515 1101.83 Q117.728 1103.73 115.621 1106.32 Q115.043 1106.99 111.941 1110.21 Q108.839 1113.41 103.191 1119.17 Z" fill="#000000" fill-rule="nonzero" fill-opacity="1" /><path clip-path="url(#clip760)" d="M129.371 1088.55 L147.728 1088.55 L147.728 1092.48 L133.654 1092.48 L133.654 1100.95 Q134.672 1100.61 135.691 1100.44 Q136.709 1100.26 137.728 1100.26 Q143.515 1100.26 146.894 1103.43 Q150.274 1106.6 150.274 1112.02 Q150.274 1117.6 146.802 1120.7 Q143.33 1123.78 137.01 1123.78 Q134.834 1123.78 132.566 1123.41 Q130.32 1123.04 127.913 1122.3 L127.913 1117.6 Q129.996 1118.73 132.219 1119.29 Q134.441 1119.84 136.918 1119.84 Q140.922 1119.84 143.26 1117.73 Q145.598 1115.63 145.598 1112.02 Q145.598 1108.41 143.26 1106.3 Q140.922 1104.19 136.918 1104.19 Q135.043 1104.19 133.168 1104.61 Q131.316 1105.03 129.371 1105.91 L129.371 1088.55 Z" fill="#000000" fill-rule="nonzero" fill-opacity="1" /><path clip-path="url(#clip760)" d="M62.9365 752.614 Q59.3254 752.614 57.4967 756.179 Q55.6912 759.72 55.6912 766.85 Q55.6912 773.956 57.4967 777.521 Q59.3254 781.063 62.9365 781.063 Q66.5707 781.063 68.3763 777.521 Q70.205 773.956 70.205 766.85 Q70.205 759.72 68.3763 756.179 Q66.5707 752.614 62.9365 752.614 M62.9365 748.91 Q68.7467 748.91 71.8022 753.517 Q74.8809 758.1 74.8809 766.85 Q74.8809 775.577 71.8022 780.183 Q68.7467 784.767 62.9365 784.767 Q57.1264 784.767 54.0477 780.183 Q50.9921 775.577 50.9921 766.85 Q50.9921 758.1 54.0477 753.517 Q57.1264 748.91 62.9365 748.91 Z" fill="#000000" fill-rule="nonzero" fill-opacity="1" /><path clip-path="url(#clip760)" d="M83.0984 778.216 L87.9827 778.216 L87.9827 784.095 L83.0984 784.095 L83.0984 778.216 Z" fill="#000000" fill-rule="nonzero" fill-opacity="1" /><path clip-path="url(#clip760)" d="M98.2141 749.535 L116.57 749.535 L116.57 753.47 L102.496 753.47 L102.496 761.943 Q103.515 761.595 104.534 761.433 Q105.552 761.248 106.571 761.248 Q112.358 761.248 115.737 764.419 Q119.117 767.591 119.117 773.007 Q119.117 778.586 115.645 781.688 Q112.172 784.767 105.853 784.767 Q103.677 784.767 101.409 784.396 Q99.1632 784.026 96.7558 783.285 L96.7558 778.586 Q98.8391 779.72 101.061 780.276 Q103.284 780.831 105.76 780.831 Q109.765 780.831 112.103 778.725 Q114.441 776.618 114.441 773.007 Q114.441 769.396 112.103 767.29 Q109.765 765.183 105.76 765.183 Q103.885 765.183 102.01 765.6 Q100.159 766.017 98.2141 766.896 L98.2141 749.535 Z" fill="#000000" fill-rule="nonzero" fill-opacity="1" /><path clip-path="url(#clip760)" d="M138.33 752.614 Q134.719 752.614 132.89 756.179 Q131.084 759.72 131.084 766.85 Q131.084 773.956 132.89 777.521 Q134.719 781.063 138.33 781.063 Q141.964 781.063 143.769 777.521 Q145.598 773.956 145.598 766.85 Q145.598 759.72 143.769 756.179 Q141.964 752.614 138.33 752.614 M138.33 748.91 Q144.14 748.91 147.195 753.517 Q150.274 758.1 150.274 766.85 Q150.274 775.577 147.195 780.183 Q144.14 784.767 138.33 784.767 Q132.519 784.767 129.441 780.183 Q126.385 775.577 126.385 766.85 Q126.385 758.1 129.441 753.517 Q132.519 748.91 138.33 748.91 Z" fill="#000000" fill-rule="nonzero" fill-opacity="1" /><path clip-path="url(#clip760)" d="M63.9319 413.604 Q60.3208 413.604 58.4921 417.169 Q56.6865 420.71 56.6865 427.84 Q56.6865 434.946 58.4921 438.511 Q60.3208 442.053 63.9319 442.053 Q67.5661 442.053 69.3717 438.511 Q71.2004 434.946 71.2004 427.84 Q71.2004 420.71 69.3717 417.169 Q67.5661 413.604 63.9319 413.604 M63.9319 409.9 Q69.742 409.9 72.7976 414.507 Q75.8763 419.09 75.8763 427.84 Q75.8763 436.567 72.7976 441.173 Q69.742 445.756 63.9319 445.756 Q58.1217 445.756 55.043 441.173 Q51.9875 436.567 51.9875 427.84 Q51.9875 419.09 55.043 414.507 Q58.1217 409.9 63.9319 409.9 Z" fill="#000000" fill-rule="nonzero" fill-opacity="1" /><path clip-path="url(#clip760)" d="M84.0938 439.206 L88.978 439.206 L88.978 445.085 L84.0938 445.085 L84.0938 439.206 Z" fill="#000000" fill-rule="nonzero" fill-opacity="1" /><path clip-path="url(#clip760)" d="M97.9826 410.525 L120.205 410.525 L120.205 412.516 L107.658 445.085 L102.774 445.085 L114.58 414.46 L97.9826 414.46 L97.9826 410.525 Z" fill="#000000" fill-rule="nonzero" fill-opacity="1" /><path clip-path="url(#clip760)" d="M129.371 410.525 L147.728 410.525 L147.728 414.46 L133.654 414.46 L133.654 422.933 Q134.672 422.585 135.691 422.423 Q136.709 422.238 137.728 422.238 Q143.515 422.238 146.894 425.409 Q150.274 428.581 150.274 433.997 Q150.274 439.576 146.802 442.678 Q143.33 445.756 137.01 445.756 Q134.834 445.756 132.566 445.386 Q130.32 445.016 127.913 444.275 L127.913 439.576 Q129.996 440.71 132.219 441.266 Q134.441 441.821 136.918 441.821 Q140.922 441.821 143.26 439.715 Q145.598 437.608 145.598 433.997 Q145.598 430.386 143.26 428.28 Q140.922 426.173 136.918 426.173 Q135.043 426.173 133.168 426.59 Q131.316 427.007 129.371 427.886 L129.371 410.525 Z" fill="#000000" fill-rule="nonzero" fill-opacity="1" /><path clip-path="url(#clip760)" d="M53.7467 102.14 L61.3856 102.14 L61.3856 75.7744 L53.0754 77.4411 L53.0754 73.1818 L61.3393 71.5152 L66.0152 71.5152 L66.0152 102.14 L73.654 102.14 L73.654 106.075 L53.7467 106.075 L53.7467 102.14 Z" fill="#000000" fill-rule="nonzero" fill-opacity="1" /><path clip-path="url(#clip760)" d="M83.0984 100.196 L87.9827 100.196 L87.9827 106.075 L83.0984 106.075 L83.0984 100.196 Z" fill="#000000" fill-rule="nonzero" fill-opacity="1" /><path clip-path="url(#clip760)" d="M108.168 74.5939 Q104.557 74.5939 102.728 78.1587 Q100.922 81.7003 100.922 88.8299 Q100.922 95.9363 102.728 99.5011 Q104.557 103.043 108.168 103.043 Q111.802 103.043 113.608 99.5011 Q115.436 95.9363 115.436 88.8299 Q115.436 81.7003 113.608 78.1587 Q111.802 74.5939 108.168 74.5939 M108.168 70.8902 Q113.978 70.8902 117.033 75.4966 Q120.112 80.0799 120.112 88.8299 Q120.112 97.5567 117.033 102.163 Q113.978 106.746 108.168 106.746 Q102.358 106.746 99.2789 102.163 Q96.2234 97.5567 96.2234 88.8299 Q96.2234 80.0799 99.2789 75.4966 Q102.358 70.8902 108.168 70.8902 Z" fill="#000000" fill-rule="nonzero" fill-opacity="1" /><path clip-path="url(#clip760)" d="M138.33 74.5939 Q134.719 74.5939 132.89 78.1587 Q131.084 81.7003 131.084 88.8299 Q131.084 95.9363 132.89 99.5011 Q134.719 103.043 138.33 103.043 Q141.964 103.043 143.769 99.5011 Q145.598 95.9363 145.598 88.8299 Q145.598 81.7003 143.769 78.1587 Q141.964 74.5939 138.33 74.5939 M138.33 70.8902 Q144.14 70.8902 147.195 75.4966 Q150.274 80.0799 150.274 88.8299 Q150.274 97.5567 147.195 102.163 Q144.14 106.746 138.33 106.746 Q132.519 106.746 129.441 102.163 Q126.385 97.5567 126.385 88.8299 Q126.385 80.0799 129.441 75.4966 Q132.519 70.8902 138.33 70.8902 Z" fill="#000000" fill-rule="nonzero" fill-opacity="1" /><polyline clip-path="url(#clip762)" style="stroke:#009af9; stroke-linecap:round; stroke-linejoin:round; stroke-width:4; stroke-opacity:1; fill:none" points="247.59,1445 268.028,1445.01 288.467,1445.02 308.905,1445.03 329.344,1445.04 349.782,1445.04 370.221,1445.05 390.659,1445.06 411.098,1445.08 431.536,1445.09 451.975,1445.1 472.413,1445.11 492.852,1445.12 513.29,1445.13 533.729,1445.15 554.167,1445.16 574.606,1445.17 595.044,1445.18 615.483,1445.19 635.921,1445.18 656.36,1445.15 676.798,1445.05 697.237,1444.81 717.675,1444.2 738.114,1442.62 758.552,1438.53 778.991,1428.81 799.429,1409.99 819.868,1381.27 840.306,1343.98 860.745,1300.01 881.183,1251.59 901.622,1200.63 922.06,1148.02 942.499,1094 962.937,1038.66 983.376,982.153 1003.81,924.72 1024.25,866.623 1044.69,808.13 1065.13,749.512 1085.57,691.065 1106.01,633.136 1126.45,576.159 1146.88,520.676 1167.32,467.352 1187.76,416.966 1208.2,370.359 1228.64,328.345 1249.08,291.592 1269.51,260.506 1289.95,235.151 1310.39,215.239 1330.83,200.198 1351.27,189.274 1371.71,181.657 1392.15,176.576 1412.58,173.365 1433.02,171.485 1453.46,170.527 1473.9,170.194 1494.34,170.283 1514.78,170.663 1535.22,171.254 1555.65,172.015 1576.09,172.937 1596.53,174.029 1616.97,175.323 1637.41,176.867 1657.85,178.73 1678.29,181.01 1698.72,183.844 1719.16,187.427 1739.6,192.053 1760.04,198.166 1780.48,206.424 1800.92,217.755 1821.35,233.294 1841.79,253.876 1862.23,278.679 1882.67,304.637 1903.11,300.555 1923.55,1127.6 1943.99,1431.46 1964.42,1432.45 1984.86,1433.13 2005.3,1433.85 2025.74,1434.56 2046.18,1435.3 2066.62,1436.08 2087.06,1436.92 2107.49,1437.81 2127.93,1438.73 2148.37,1439.66 2168.81,1440.6 2189.25,1441.52 2209.69,1442.42 2230.12,1443.29 2250.56,1444.13 2271,1444.94 2291.44,1445.72 "/>
<polyline clip-path="url(#clip762)" style="stroke:#e26f46; stroke-linecap:round; stroke-linejoin:round; stroke-width:4; stroke-opacity:1; fill:none" points="247.59,89.197 268.028,89.1316 288.467,89.0705 308.905,89.0134 329.344,88.9599 349.782,88.9094 370.221,88.8616 390.659,88.8161 411.098,88.7729 431.536,88.7321 451.975,88.6942 472.413,88.6595 492.852,88.628 513.29,88.5996 533.729,88.5739 554.167,88.5496 574.606,88.5251 595.044,88.4974 615.483,88.4628 635.921,88.418 656.36,88.364 676.798,88.3189 697.237,88.3521 717.675,88.6769 738.114,89.8842 758.552,93.3981 778.991,101.754 799.429,117.665 819.868,141.454 840.306,171.462 860.745,206.296 881.183,243.883 901.622,282.537 922.06,321.424 942.499,360.179 962.937,398.62 983.376,436.623 1003.81,474.069 1024.25,510.829 1044.69,546.76 1065.13,581.709 1085.57,615.514 1106.01,648.007 1126.45,679.011 1146.88,708.327 1167.32,735.733 1187.76,760.981 1208.2,783.807 1228.64,803.969 1249.08,821.281 1269.51,835.66 1289.95,847.144 1310.39,855.895 1330.83,862.171 1351.27,866.282 1371.71,868.544 1392.15,869.229 1412.58,868.524 1433.02,866.478 1453.46,862.916 1473.9,857.254 1494.34,848.062 1514.78,831.919 1535.22,800.159 1555.65,729.225 1576.09,565.016 1596.53,355.664 1616.97,605.231 1637.41,668.226 1657.85,678.639 1678.29,681.873 1698.72,682.521 1719.16,681.275 1739.6,679.421 1760.04,678.108 1780.48,678.345 1800.92,681.124 1821.35,687.596 1841.79,699.108 1862.23,716.094 1882.67,733.774 1903.11,738.204 1923.55,1164.82 1943.99,1273.72 1964.42,1273.52 1984.86,1273.31 2005.3,1273.09 2025.74,1272.92 2046.18,1272.81 2066.62,1272.73 2087.06,1272.68 2107.49,1272.64 2127.93,1272.61 2148.37,1272.59 2168.81,1272.57 2189.25,1272.56 2209.69,1272.57 2230.12,1272.57 2250.56,1272.59 2271,1272.62 2291.44,1272.65 "/>
<polyline clip-path="url(#clip762)" style="stroke:#3da44d; stroke-linecap:round; stroke-linejoin:round; stroke-width:4; stroke-opacity:1; fill:none" points="247.59,88.5032 268.028,88.4845 288.467,88.465 308.905,88.4446 329.344,88.4232 349.782,88.4008 370.221,88.3775 390.659,88.3533 411.098,88.3283 431.536,88.3024 451.975,88.2756 472.413,88.2478 492.852,88.2185 513.29,88.1871 533.729,88.1532 554.167,88.1162 574.606,88.0765 595.044,88.0361 615.483,87.9996 635.921,87.9763 656.36,87.9856 676.798,88.0713 697.237,88.3365 717.675,89.0388 738.114,90.8783 758.552,95.6704 778.991,106.941 799.429,128.525 819.868,161.377 840.306,203.207 860.745,250.757 881.183,301.119 901.622,352.262 922.06,403.099 942.499,453.166 962.937,502.258 983.376,550.206 1003.81,596.802 1024.25,641.805 1044.69,684.984 1065.13,726.155 1085.57,765.198 1106.01,802.034 1126.45,836.585 1146.88,868.74 1167.32,898.341 1187.76,925.195 1208.2,949.111 1228.64,969.943 1249.08,987.628 1269.51,1002.21 1289.95,1013.86 1310.39,1022.84 1330.83,1029.5 1351.27,1034.24 1371.71,1037.43 1392.15,1039.46 1412.58,1040.63 1433.02,1041.2 1453.46,1041.37 1473.9,1041.28 1494.34,1041.04 1514.78,1040.72 1535.22,1040.39 1555.65,1040.08 1576.09,1039.84 1596.53,1039.68 1616.97,1039.64 1637.41,1039.73 1657.85,1040 1678.29,1040.47 1698.72,1041.23 1719.16,1042.4 1739.6,1044.19 1760.04,1046.74 1780.48,1050 1800.92,1053.57 1821.35,1057.75 1841.79,1065.13 1862.23,1077.1 1882.67,1089.1 1903.11,1096.06 1923.55,1276.78 1943.99,1308.34 1964.42,1308.47 1984.86,1308.54 2005.3,1308.58 2025.74,1308.61 2046.18,1308.64 2066.62,1308.68 2087.06,1308.72 2107.49,1308.75 2127.93,1308.78 2148.37,1308.81 2168.81,1308.83 2189.25,1308.84 2209.69,1308.85 2230.12,1308.86 2250.56,1308.87 2271,1308.87 2291.44,1308.87 "/>
<path clip-path="url(#clip760)" d="M1873.36 302.578 L2280.54 302.578 L2280.54 95.2176 L1873.36 95.2176  Z" fill="#ffffff" fill-rule="evenodd" fill-opacity="1"/>
<polyline clip-path="url(#clip760)" style="stroke:#000000; stroke-linecap:round; stroke-linejoin:round; stroke-width:4; stroke-opacity:1; fill:none" points="1873.36,302.578 2280.54,302.578 2280.54,95.2176 1873.36,95.2176 1873.36,302.578 "/>
<polyline clip-path="url(#clip760)" style="stroke:#009af9; stroke-linecap:round; stroke-linejoin:round; stroke-width:4; stroke-opacity:1; fill:none" points="1897.43,147.058 2041.86,147.058 "/>
<path clip-path="url(#clip760)" d="M2065.94 154.106 L2065.94 138.412 L2070.2 138.412 L2070.2 153.944 Q2070.2 157.625 2071.63 159.476 Q2073.07 161.305 2075.94 161.305 Q2079.39 161.305 2081.38 159.106 Q2083.39 156.907 2083.39 153.111 L2083.39 138.412 L2087.65 138.412 L2087.65 164.338 L2083.39 164.338 L2083.39 160.356 Q2081.84 162.717 2079.78 163.875 Q2077.74 165.009 2075.03 165.009 Q2070.57 165.009 2068.25 162.231 Q2065.94 159.453 2065.94 154.106 M2076.65 137.787 L2076.65 137.787 Z" fill="#000000" fill-rule="nonzero" fill-opacity="1" /><path clip-path="url(#clip760)" d="M2106.65 128.366 Q2103.55 133.69 2102.05 138.898 Q2100.54 144.106 2100.54 149.453 Q2100.54 154.801 2102.05 160.055 Q2103.58 165.287 2106.65 170.588 L2102.95 170.588 Q2099.48 165.148 2097.74 159.893 Q2096.03 154.639 2096.03 149.453 Q2096.03 144.291 2097.74 139.06 Q2099.45 133.828 2102.95 128.366 L2106.65 128.366 Z" fill="#000000" fill-rule="nonzero" fill-opacity="1" /><path clip-path="url(#clip760)" d="M2119.13 131.051 L2119.13 138.412 L2127.9 138.412 L2127.9 141.722 L2119.13 141.722 L2119.13 155.796 Q2119.13 158.967 2119.99 159.87 Q2120.87 160.773 2123.53 160.773 L2127.9 160.773 L2127.9 164.338 L2123.53 164.338 Q2118.6 164.338 2116.72 162.509 Q2114.85 160.657 2114.85 155.796 L2114.85 141.722 L2111.72 141.722 L2111.72 138.412 L2114.85 138.412 L2114.85 131.051 L2119.13 131.051 Z" fill="#000000" fill-rule="nonzero" fill-opacity="1" /><path clip-path="url(#clip760)" d="M2134.06 142.81 L2163.74 142.81 L2163.74 146.699 L2134.06 146.699 L2134.06 142.81 M2134.06 152.254 L2163.74 152.254 L2163.74 156.189 L2134.06 156.189 L2134.06 152.254 Z" fill="#000000" fill-rule="nonzero" fill-opacity="1" /><path clip-path="url(#clip760)" d="M2174.64 160.402 L2182.28 160.402 L2182.28 134.037 L2173.97 135.703 L2173.97 131.444 L2182.23 129.778 L2186.91 129.778 L2186.91 160.402 L2194.55 160.402 L2194.55 164.338 L2174.64 164.338 L2174.64 160.402 Z" fill="#000000" fill-rule="nonzero" fill-opacity="1" /><path clip-path="url(#clip760)" d="M2204.48 158.458 L2209.36 158.458 L2209.36 162.439 L2205.57 169.847 L2202.58 169.847 L2204.48 162.439 L2204.48 158.458 Z" fill="#000000" fill-rule="nonzero" fill-opacity="1" /><path clip-path="url(#clip760)" d="M2240.01 138.412 L2230.63 151.027 L2240.5 164.338 L2235.47 164.338 L2227.93 154.152 L2220.38 164.338 L2215.36 164.338 L2225.43 150.773 L2216.21 138.412 L2221.24 138.412 L2228.11 147.648 L2234.99 138.412 L2240.01 138.412 Z" fill="#000000" fill-rule="nonzero" fill-opacity="1" /><path clip-path="url(#clip760)" d="M2245.84 128.366 L2249.55 128.366 Q2253.02 133.828 2254.73 139.06 Q2256.47 144.291 2256.47 149.453 Q2256.47 154.639 2254.73 159.893 Q2253.02 165.148 2249.55 170.588 L2245.84 170.588 Q2248.92 165.287 2250.43 160.055 Q2251.95 154.801 2251.95 149.453 Q2251.95 144.106 2250.43 138.898 Q2248.92 133.69 2245.84 128.366 Z" fill="#000000" fill-rule="nonzero" fill-opacity="1" /><polyline clip-path="url(#clip760)" style="stroke:#e26f46; stroke-linecap:round; stroke-linejoin:round; stroke-width:4; stroke-opacity:1; fill:none" points="1897.43,198.898 2041.86,198.898 "/>
<path clip-path="url(#clip760)" d="M2068.02 194.881 Q2069.43 192.52 2072.93 190.437 Q2074.29 189.627 2078.51 189.627 Q2083.23 189.627 2086.17 193.377 Q2089.13 197.127 2089.13 203.238 Q2089.13 209.349 2086.17 213.099 Q2083.23 216.849 2078.51 216.849 Q2075.66 216.849 2073.6 215.738 Q2071.56 214.603 2070.22 212.289 L2070.22 226.039 L2065.94 226.039 L2065.94 203.469 Q2065.94 198.122 2068.02 194.881 M2084.71 203.238 Q2084.71 198.539 2082.77 195.877 Q2080.84 193.192 2077.46 193.192 Q2074.08 193.192 2072.14 195.877 Q2070.22 198.539 2070.22 203.238 Q2070.22 207.937 2072.14 210.622 Q2074.08 213.284 2077.46 213.284 Q2080.84 213.284 2082.77 210.622 Q2084.71 207.937 2084.71 203.238 Z" fill="#000000" fill-rule="nonzero" fill-opacity="1" /><path clip-path="url(#clip760)" d="M2106.42 180.206 Q2103.32 185.53 2101.82 190.738 Q2100.31 195.946 2100.31 201.293 Q2100.31 206.641 2101.82 211.895 Q2103.34 217.127 2106.42 222.428 L2102.72 222.428 Q2099.25 216.988 2097.51 211.733 Q2095.8 206.479 2095.8 201.293 Q2095.8 196.131 2097.51 190.9 Q2099.22 185.668 2102.72 180.206 L2106.42 180.206 Z" fill="#000000" fill-rule="nonzero" fill-opacity="1" /><path clip-path="url(#clip760)" d="M2118.9 182.891 L2118.9 190.252 L2127.67 190.252 L2127.67 193.562 L2118.9 193.562 L2118.9 207.636 Q2118.9 210.807 2119.76 211.71 Q2120.64 212.613 2123.3 212.613 L2127.67 212.613 L2127.67 216.178 L2123.3 216.178 Q2118.37 216.178 2116.49 214.349 Q2114.62 212.497 2114.62 207.636 L2114.62 193.562 L2111.49 193.562 L2111.49 190.252 L2114.62 190.252 L2114.62 182.891 L2118.9 182.891 Z" fill="#000000" fill-rule="nonzero" fill-opacity="1" /><path clip-path="url(#clip760)" d="M2133.83 194.65 L2163.51 194.65 L2163.51 198.539 L2133.83 198.539 L2133.83 194.65 M2133.83 204.094 L2163.51 204.094 L2163.51 208.029 L2133.83 208.029 L2133.83 204.094 Z" fill="#000000" fill-rule="nonzero" fill-opacity="1" /><path clip-path="url(#clip760)" d="M2174.41 212.242 L2182.05 212.242 L2182.05 185.877 L2173.74 187.543 L2173.74 183.284 L2182 181.618 L2186.68 181.618 L2186.68 212.242 L2194.32 212.242 L2194.32 216.178 L2174.41 216.178 L2174.41 212.242 Z" fill="#000000" fill-rule="nonzero" fill-opacity="1" /><path clip-path="url(#clip760)" d="M2204.25 210.298 L2209.13 210.298 L2209.13 214.279 L2205.33 221.687 L2202.35 221.687 L2204.25 214.279 L2204.25 210.298 Z" fill="#000000" fill-rule="nonzero" fill-opacity="1" /><path clip-path="url(#clip760)" d="M2239.78 190.252 L2230.4 202.867 L2240.26 216.178 L2235.24 216.178 L2227.69 205.992 L2220.15 216.178 L2215.13 216.178 L2225.19 202.613 L2215.98 190.252 L2221.01 190.252 L2227.88 199.488 L2234.75 190.252 L2239.78 190.252 Z" fill="#000000" fill-rule="nonzero" fill-opacity="1" /><path clip-path="url(#clip760)" d="M2245.61 180.206 L2249.32 180.206 Q2252.79 185.668 2254.5 190.9 Q2256.24 196.131 2256.24 201.293 Q2256.24 206.479 2254.5 211.733 Q2252.79 216.988 2249.32 222.428 L2245.61 222.428 Q2248.69 217.127 2250.19 211.895 Q2251.72 206.641 2251.72 201.293 Q2251.72 195.946 2250.19 190.738 Q2248.69 185.53 2245.61 180.206 Z" fill="#000000" fill-rule="nonzero" fill-opacity="1" /><polyline clip-path="url(#clip760)" style="stroke:#3da44d; stroke-linecap:round; stroke-linejoin:round; stroke-width:4; stroke-opacity:1; fill:none" points="1897.43,250.738 2041.86,250.738 "/>
<path clip-path="url(#clip760)" d="M2070.22 264.129 L2070.22 277.879 L2065.94 277.879 L2065.94 242.092 L2070.22 242.092 L2070.22 246.027 Q2071.56 243.712 2073.6 242.601 Q2075.66 241.467 2078.51 241.467 Q2083.23 241.467 2086.17 245.217 Q2089.13 248.967 2089.13 255.078 Q2089.13 261.189 2086.17 264.939 Q2083.23 268.689 2078.51 268.689 Q2075.66 268.689 2073.6 267.578 Q2071.56 266.443 2070.22 264.129 M2084.71 255.078 Q2084.71 250.379 2082.77 247.717 Q2080.84 245.032 2077.46 245.032 Q2074.08 245.032 2072.14 247.717 Q2070.22 250.379 2070.22 255.078 Q2070.22 259.777 2072.14 262.462 Q2074.08 265.124 2077.46 265.124 Q2080.84 265.124 2082.77 262.462 Q2084.71 259.777 2084.71 255.078 Z" fill="#000000" fill-rule="nonzero" fill-opacity="1" /><path clip-path="url(#clip760)" d="M2106.42 232.046 Q2103.32 237.37 2101.82 242.578 Q2100.31 247.786 2100.31 253.133 Q2100.31 258.481 2101.82 263.735 Q2103.34 268.967 2106.42 274.268 L2102.72 274.268 Q2099.25 268.828 2097.51 263.573 Q2095.8 258.319 2095.8 253.133 Q2095.8 247.971 2097.51 242.74 Q2099.22 237.508 2102.72 232.046 L2106.42 232.046 Z" fill="#000000" fill-rule="nonzero" fill-opacity="1" /><path clip-path="url(#clip760)" d="M2118.9 234.731 L2118.9 242.092 L2127.67 242.092 L2127.67 245.402 L2118.9 245.402 L2118.9 259.476 Q2118.9 262.647 2119.76 263.55 Q2120.64 264.453 2123.3 264.453 L2127.67 264.453 L2127.67 268.018 L2123.3 268.018 Q2118.37 268.018 2116.49 266.189 Q2114.62 264.337 2114.62 259.476 L2114.62 245.402 L2111.49 245.402 L2111.49 242.092 L2114.62 242.092 L2114.62 234.731 L2118.9 234.731 Z" fill="#000000" fill-rule="nonzero" fill-opacity="1" /><path clip-path="url(#clip760)" d="M2133.83 246.49 L2163.51 246.49 L2163.51 250.379 L2133.83 250.379 L2133.83 246.49 M2133.83 255.934 L2163.51 255.934 L2163.51 259.869 L2133.83 259.869 L2133.83 255.934 Z" fill="#000000" fill-rule="nonzero" fill-opacity="1" /><path clip-path="url(#clip760)" d="M2174.41 264.082 L2182.05 264.082 L2182.05 237.717 L2173.74 239.383 L2173.74 235.124 L2182 233.458 L2186.68 233.458 L2186.68 264.082 L2194.32 264.082 L2194.32 268.018 L2174.41 268.018 L2174.41 264.082 Z" fill="#000000" fill-rule="nonzero" fill-opacity="1" /><path clip-path="url(#clip760)" d="M2204.25 262.138 L2209.13 262.138 L2209.13 266.119 L2205.33 273.527 L2202.35 273.527 L2204.25 266.119 L2204.25 262.138 Z" fill="#000000" fill-rule="nonzero" fill-opacity="1" /><path clip-path="url(#clip760)" d="M2239.78 242.092 L2230.4 254.707 L2240.26 268.018 L2235.24 268.018 L2227.69 257.832 L2220.15 268.018 L2215.13 268.018 L2225.19 254.453 L2215.98 242.092 L2221.01 242.092 L2227.88 251.328 L2234.75 242.092 L2239.78 242.092 Z" fill="#000000" fill-rule="nonzero" fill-opacity="1" /><path clip-path="url(#clip760)" d="M2245.61 232.046 L2249.32 232.046 Q2252.79 237.508 2254.5 242.74 Q2256.24 247.971 2256.24 253.133 Q2256.24 258.319 2254.5 263.573 Q2252.79 268.828 2249.32 274.268 L2245.61 274.268 Q2248.69 268.967 2250.19 263.735 Q2251.72 258.481 2251.72 253.133 Q2251.72 247.786 2250.19 242.578 Q2248.69 237.37 2245.61 232.046 Z" fill="#000000" fill-rule="nonzero" fill-opacity="1" /></svg>
