<?xml version="1.0" encoding="utf-8"?>
<svg xmlns="http://www.w3.org/2000/svg" xmlns:xlink="http://www.w3.org/1999/xlink" width="600" height="400" viewBox="0 0 2400 1600">
<defs>
  <clipPath id="clip710">
    <rect x="0" y="0" width="2400" height="1600"/>
  </clipPath>
</defs>
<path clip-path="url(#clip710)" d="M0 1600 L2400 1600 L2400 0 L0 0  Z" fill="#ffffff" fill-rule="evenodd" fill-opacity="1"/>
<defs>
  <clipPath id="clip711">
    <rect x="480" y="0" width="1681" height="1600"/>
  </clipPath>
</defs>
<path clip-path="url(#clip710)" d="M156.274 1486.45 L2352.76 1486.45 L2352.76 47.2441 L156.274 47.2441  Z" fill="#ffffff" fill-rule="evenodd" fill-opacity="1"/>
<defs>
  <clipPath id="clip712">
    <rect x="156" y="47" width="2197" height="1440"/>
  </clipPath>
</defs>
<polyline clip-path="url(#clip712)" style="stroke:#000000; stroke-linecap:round; stroke-linejoin:round; stroke-width:2; stroke-opacity:0.1; fill:none" points="218.439,1486.45 218.439,47.2441 "/>
<polyline clip-path="url(#clip712)" style="stroke:#000000; stroke-linecap:round; stroke-linejoin:round; stroke-width:2; stroke-opacity:0.1; fill:none" points="736.477,1486.45 736.477,47.2441 "/>
<polyline clip-path="url(#clip712)" style="stroke:#000000; stroke-linecap:round; stroke-linejoin:round; stroke-width:2; stroke-opacity:0.1; fill:none" points="1254.52,1486.45 1254.52,47.2441 "/>
<polyline clip-path="url(#clip712)" style="stroke:#000000; stroke-linecap:round; stroke-linejoin:round; stroke-width:2; stroke-opacity:0.1; fill:none" points="1772.55,1486.45 1772.55,47.2441 "/>
<polyline clip-path="url(#clip712)" style="stroke:#000000; stroke-linecap:round; stroke-linejoin:round; stroke-width:2; stroke-opacity:0.1; fill:none" points="2290.59,1486.45 2290.59,47.2441 "/>
<polyline clip-path="url(#clip710)" style="stroke:#000000; stroke-linecap:round; stroke-linejoin:round; stroke-width:4; stroke-opacity:1; fill:none" points="156.274,1486.45 2352.76,1486.45 "/>
<polyline clip-path="url(#clip710)" style="stroke:#000000; stroke-linecap:round; stroke-linejoin:round; stroke-width:4; stroke-opacity:1; fill:none" points="218.439,1486.45 218.439,1467.55 "/>
<polyline clip-path="url(#clip710)" style="stroke:#000000; stroke-linecap:round; stroke-linejoin:round; stroke-width:4; stroke-opacity:1; fill:none" points="736.477,1486.45 736.477,1467.55 "/>
<polyline clip-path="url(#clip710)" style="stroke:#000000; stroke-linecap:round; stroke-linejoin:round; stroke-width:4; stroke-opacity:1; fill:none" points="1254.52,1486.45 1254.52,1467.55 "/>
<polyline clip-path="url(#clip710)" style="stroke:#000000; stroke-linecap:round; stroke-linejoin:round; stroke-width:4; stroke-opacity:1; fill:none" points="1772.55,1486.45 1772.55,1467.55 "/>
<polyline clip-path="url(#clip710)" style="stroke:#000000; stroke-linecap:round; stroke-linejoin:round; stroke-width:4; stroke-opacity:1; fill:none" points="2290.59,1486.45 2290.59,1467.55 "/>
<path clip-path="url(#clip710)" d="M164.967 1532.02 L194.643 1532.02 L194.643 1535.95 L164.967 1535.95 L164.967 1532.02 Z" fill="#000000" fill-rule="nonzero" fill-opacity="1" /><path clip-path="url(#clip710)" d="M205.545 1544.91 L213.184 1544.91 L213.184 1518.55 L204.874 1520.21 L204.874 1515.95 L213.138 1514.29 L217.814 1514.29 L217.814 1544.91 L225.453 1544.91 L225.453 1548.85 L205.545 1548.85 L205.545 1544.91 Z" fill="#000000" fill-rule="nonzero" fill-opacity="1" /><path clip-path="url(#clip710)" d="M234.897 1542.97 L239.781 1542.97 L239.781 1548.85 L234.897 1548.85 L234.897 1542.97 Z" fill="#000000" fill-rule="nonzero" fill-opacity="1" /><path clip-path="url(#clip710)" d="M259.966 1517.37 Q256.355 1517.37 254.527 1520.93 Q252.721 1524.47 252.721 1531.6 Q252.721 1538.71 254.527 1542.27 Q256.355 1545.82 259.966 1545.82 Q263.601 1545.82 265.406 1542.27 Q267.235 1538.71 267.235 1531.6 Q267.235 1524.47 265.406 1520.93 Q263.601 1517.37 259.966 1517.37 M259.966 1513.66 Q265.776 1513.66 268.832 1518.27 Q271.911 1522.85 271.911 1531.6 Q271.911 1540.33 268.832 1544.94 Q265.776 1549.52 259.966 1549.52 Q254.156 1549.52 251.077 1544.94 Q248.022 1540.33 248.022 1531.6 Q248.022 1522.85 251.077 1518.27 Q254.156 1513.66 259.966 1513.66 Z" fill="#000000" fill-rule="nonzero" fill-opacity="1" /><path clip-path="url(#clip710)" d="M683.503 1532.02 L713.178 1532.02 L713.178 1535.95 L683.503 1535.95 L683.503 1532.02 Z" fill="#000000" fill-rule="nonzero" fill-opacity="1" /><path clip-path="url(#clip710)" d="M733.271 1517.37 Q729.66 1517.37 727.831 1520.93 Q726.026 1524.47 726.026 1531.6 Q726.026 1538.71 727.831 1542.27 Q729.66 1545.82 733.271 1545.82 Q736.905 1545.82 738.711 1542.27 Q740.539 1538.71 740.539 1531.6 Q740.539 1524.47 738.711 1520.93 Q736.905 1517.37 733.271 1517.37 M733.271 1513.66 Q739.081 1513.66 742.137 1518.27 Q745.215 1522.85 745.215 1531.6 Q745.215 1540.33 742.137 1544.94 Q739.081 1549.52 733.271 1549.52 Q727.461 1549.52 724.382 1544.94 Q721.327 1540.33 721.327 1531.6 Q721.327 1522.85 724.382 1518.27 Q727.461 1513.66 733.271 1513.66 Z" fill="#000000" fill-rule="nonzero" fill-opacity="1" /><path clip-path="url(#clip710)" d="M753.433 1542.97 L758.317 1542.97 L758.317 1548.85 L753.433 1548.85 L753.433 1542.97 Z" fill="#000000" fill-rule="nonzero" fill-opacity="1" /><path clip-path="url(#clip710)" d="M768.548 1514.29 L786.905 1514.29 L786.905 1518.22 L772.831 1518.22 L772.831 1526.7 Q773.849 1526.35 774.868 1526.19 Q775.886 1526 776.905 1526 Q782.692 1526 786.072 1529.17 Q789.451 1532.34 789.451 1537.76 Q789.451 1543.34 785.979 1546.44 Q782.507 1549.52 776.187 1549.52 Q774.011 1549.52 771.743 1549.15 Q769.498 1548.78 767.09 1548.04 L767.09 1543.34 Q769.173 1544.47 771.396 1545.03 Q773.618 1545.58 776.095 1545.58 Q780.099 1545.58 782.437 1543.48 Q784.775 1541.37 784.775 1537.76 Q784.775 1534.15 782.437 1532.04 Q780.099 1529.94 776.095 1529.94 Q774.22 1529.94 772.345 1530.35 Q770.493 1530.77 768.548 1531.65 L768.548 1514.29 Z" fill="#000000" fill-rule="nonzero" fill-opacity="1" /><path clip-path="url(#clip710)" d="M1231.9 1517.37 Q1228.29 1517.37 1226.46 1520.93 Q1224.65 1524.47 1224.65 1531.6 Q1224.65 1538.71 1226.46 1542.27 Q1228.29 1545.82 1231.9 1545.82 Q1235.53 1545.82 1237.34 1542.27 Q1239.17 1538.71 1239.17 1531.6 Q1239.17 1524.47 1237.34 1520.93 Q1235.53 1517.37 1231.9 1517.37 M1231.9 1513.66 Q1237.71 1513.66 1240.77 1518.27 Q1243.84 1522.85 1243.84 1531.6 Q1243.84 1540.33 1240.77 1544.94 Q1237.71 1549.52 1231.9 1549.52 Q1226.09 1549.52 1223.01 1544.94 Q1219.96 1540.33 1219.96 1531.6 Q1219.96 1522.85 1223.01 1518.27 Q1226.09 1513.66 1231.9 1513.66 Z" fill="#000000" fill-rule="nonzero" fill-opacity="1" /><path clip-path="url(#clip710)" d="M1252.06 1542.97 L1256.95 1542.97 L1256.95 1548.85 L1252.06 1548.85 L1252.06 1542.97 Z" fill="#000000" fill-rule="nonzero" fill-opacity="1" /><path clip-path="url(#clip710)" d="M1277.13 1517.37 Q1273.52 1517.37 1271.69 1520.93 Q1269.89 1524.47 1269.89 1531.6 Q1269.89 1538.71 1271.69 1542.27 Q1273.52 1545.82 1277.13 1545.82 Q1280.76 1545.82 1282.57 1542.27 Q1284.4 1538.71 1284.4 1531.6 Q1284.4 1524.47 1282.57 1520.93 Q1280.76 1517.37 1277.13 1517.37 M1277.13 1513.66 Q1282.94 1513.66 1286 1518.27 Q1289.08 1522.85 1289.08 1531.6 Q1289.08 1540.33 1286 1544.94 Q1282.94 1549.52 1277.13 1549.52 Q1271.32 1549.52 1268.24 1544.94 Q1265.19 1540.33 1265.19 1531.6 Q1265.19 1522.85 1268.24 1518.27 Q1271.32 1513.66 1277.13 1513.66 Z" fill="#000000" fill-rule="nonzero" fill-opacity="1" /><path clip-path="url(#clip710)" d="M1750.44 1517.37 Q1746.82 1517.37 1745 1520.93 Q1743.19 1524.47 1743.19 1531.6 Q1743.19 1538.71 1745 1542.27 Q1746.82 1545.82 1750.44 1545.82 Q1754.07 1545.82 1755.88 1542.27 Q1757.7 1538.71 1757.7 1531.6 Q1757.7 1524.47 1755.88 1520.93 Q1754.07 1517.37 1750.44 1517.37 M1750.44 1513.66 Q1756.25 1513.66 1759.3 1518.27 Q1762.38 1522.85 1762.38 1531.6 Q1762.38 1540.33 1759.3 1544.94 Q1756.25 1549.52 1750.44 1549.52 Q1744.63 1549.52 1741.55 1544.94 Q1738.49 1540.33 1738.49 1531.6 Q1738.49 1522.85 1741.55 1518.27 Q1744.63 1513.66 1750.44 1513.66 Z" fill="#000000" fill-rule="nonzero" fill-opacity="1" /><path clip-path="url(#clip710)" d="M1770.6 1542.97 L1775.48 1542.97 L1775.48 1548.85 L1770.6 1548.85 L1770.6 1542.97 Z" fill="#000000" fill-rule="nonzero" fill-opacity="1" /><path clip-path="url(#clip710)" d="M1785.71 1514.29 L1804.07 1514.29 L1804.07 1518.22 L1790 1518.22 L1790 1526.7 Q1791.01 1526.35 1792.03 1526.19 Q1793.05 1526 1794.07 1526 Q1799.86 1526 1803.24 1529.17 Q1806.62 1532.34 1806.62 1537.76 Q1806.62 1543.34 1803.14 1546.44 Q1799.67 1549.52 1793.35 1549.52 Q1791.18 1549.52 1788.91 1549.15 Q1786.66 1548.78 1784.25 1548.04 L1784.25 1543.34 Q1786.34 1544.47 1788.56 1545.03 Q1790.78 1545.58 1793.26 1545.58 Q1797.26 1545.58 1799.6 1543.48 Q1801.94 1541.37 1801.94 1537.76 Q1801.94 1534.15 1799.6 1532.04 Q1797.26 1529.94 1793.26 1529.94 Q1791.38 1529.94 1789.51 1530.35 Q1787.66 1530.77 1785.71 1531.65 L1785.71 1514.29 Z" fill="#000000" fill-rule="nonzero" fill-opacity="1" /><path clip-path="url(#clip710)" d="M2257.74 1544.91 L2265.38 1544.91 L2265.38 1518.55 L2257.07 1520.21 L2257.07 1515.95 L2265.34 1514.29 L2270.01 1514.29 L2270.01 1544.91 L2277.65 1544.91 L2277.65 1548.85 L2257.74 1548.85 L2257.74 1544.91 Z" fill="#000000" fill-rule="nonzero" fill-opacity="1" /><path clip-path="url(#clip710)" d="M2287.1 1542.97 L2291.98 1542.97 L2291.98 1548.85 L2287.1 1548.85 L2287.1 1542.97 Z" fill="#000000" fill-rule="nonzero" fill-opacity="1" /><path clip-path="url(#clip710)" d="M2312.17 1517.37 Q2308.55 1517.37 2306.73 1520.93 Q2304.92 1524.47 2304.92 1531.6 Q2304.92 1538.71 2306.73 1542.27 Q2308.55 1545.82 2312.17 1545.82 Q2315.8 1545.82 2317.61 1542.27 Q2319.43 1538.71 2319.43 1531.6 Q2319.43 1524.47 2317.61 1520.93 Q2315.8 1517.37 2312.17 1517.37 M2312.17 1513.66 Q2317.98 1513.66 2321.03 1518.27 Q2324.11 1522.85 2324.11 1531.6 Q2324.11 1540.33 2321.03 1544.94 Q2317.98 1549.52 2312.17 1549.52 Q2306.36 1549.52 2303.28 1544.94 Q2300.22 1540.33 2300.22 1531.6 Q2300.22 1522.85 2303.28 1518.27 Q2306.36 1513.66 2312.17 1513.66 Z" fill="#000000" fill-rule="nonzero" fill-opacity="1" /><polyline clip-path="url(#clip712)" style="stroke:#000000; stroke-linecap:round; stroke-linejoin:round; stroke-width:2; stroke-opacity:0.1; fill:none" points="156.274,1262.49 2352.76,1262.49 "/>
<polyline clip-path="url(#clip712)" style="stroke:#000000; stroke-linecap:round; stroke-linejoin:round; stroke-width:2; stroke-opacity:0.1; fill:none" points="156.274,992.83 2352.76,992.83 "/>
<polyline clip-path="url(#clip712)" style="stroke:#000000; stroke-linecap:round; stroke-linejoin:round; stroke-width:2; stroke-opacity:0.1; fill:none" points="156.274,723.174 2352.76,723.174 "/>
<polyline clip-path="url(#clip712)" style="stroke:#000000; stroke-linecap:round; stroke-linejoin:round; stroke-width:2; stroke-opacity:0.1; fill:none" points="156.274,453.518 2352.76,453.518 "/>
<polyline clip-path="url(#clip712)" style="stroke:#000000; stroke-linecap:round; stroke-linejoin:round; stroke-width:2; stroke-opacity:0.1; fill:none" points="156.274,183.862 2352.76,183.862 "/>
<polyline clip-path="url(#clip710)" style="stroke:#000000; stroke-linecap:round; stroke-linejoin:round; stroke-width:4; stroke-opacity:1; fill:none" points="156.274,1486.45 156.274,47.2441 "/>
<polyline clip-path="url(#clip710)" style="stroke:#000000; stroke-linecap:round; stroke-linejoin:round; stroke-width:4; stroke-opacity:1; fill:none" points="156.274,1262.49 175.172,1262.49 "/>
<polyline clip-path="url(#clip710)" style="stroke:#000000; stroke-linecap:round; stroke-linejoin:round; stroke-width:4; stroke-opacity:1; fill:none" points="156.274,992.83 175.172,992.83 "/>
<polyline clip-path="url(#clip710)" style="stroke:#000000; stroke-linecap:round; stroke-linejoin:round; stroke-width:4; stroke-opacity:1; fill:none" points="156.274,723.174 175.172,723.174 "/>
<polyline clip-path="url(#clip710)" style="stroke:#000000; stroke-linecap:round; stroke-linejoin:round; stroke-width:4; stroke-opacity:1; fill:none" points="156.274,453.518 175.172,453.518 "/>
<polyline clip-path="url(#clip710)" style="stroke:#000000; stroke-linecap:round; stroke-linejoin:round; stroke-width:4; stroke-opacity:1; fill:none" points="156.274,183.862 175.172,183.862 "/>
<path clip-path="url(#clip710)" d="M63.0985 1248.28 Q59.4875 1248.28 57.6588 1251.85 Q55.8532 1255.39 55.8532 1262.52 Q55.8532 1269.63 57.6588 1273.19 Q59.4875 1276.73 63.0985 1276.73 Q66.7328 1276.73 68.5383 1273.19 Q70.367 1269.63 70.367 1262.52 Q70.367 1255.39 68.5383 1251.85 Q66.7328 1248.28 63.0985 1248.28 M63.0985 1244.58 Q68.9087 1244.58 71.9642 1249.19 Q75.0429 1253.77 75.0429 1262.52 Q75.0429 1271.25 71.9642 1275.85 Q68.9087 1280.44 63.0985 1280.44 Q57.2884 1280.44 54.2097 1275.85 Q51.1542 1271.25 51.1542 1262.52 Q51.1542 1253.77 54.2097 1249.19 Q57.2884 1244.58 63.0985 1244.58 Z" fill="#000000" fill-rule="nonzero" fill-opacity="1" /><path clip-path="url(#clip710)" d="M83.2605 1273.89 L88.1447 1273.89 L88.1447 1279.77 L83.2605 1279.77 L83.2605 1273.89 Z" fill="#000000" fill-rule="nonzero" fill-opacity="1" /><path clip-path="url(#clip710)" d="M108.33 1248.28 Q104.719 1248.28 102.89 1251.85 Q101.084 1255.39 101.084 1262.52 Q101.084 1269.63 102.89 1273.19 Q104.719 1276.73 108.33 1276.73 Q111.964 1276.73 113.77 1273.19 Q115.598 1269.63 115.598 1262.52 Q115.598 1255.39 113.77 1251.85 Q111.964 1248.28 108.33 1248.28 M108.33 1244.58 Q114.14 1244.58 117.195 1249.19 Q120.274 1253.77 120.274 1262.52 Q120.274 1271.25 117.195 1275.85 Q114.14 1280.44 108.33 1280.44 Q102.52 1280.44 99.4409 1275.85 Q96.3854 1271.25 96.3854 1262.52 Q96.3854 1253.77 99.4409 1249.19 Q102.52 1244.58 108.33 1244.58 Z" fill="#000000" fill-rule="nonzero" fill-opacity="1" /><path clip-path="url(#clip710)" d="M63.7467 978.628 Q60.1356 978.628 58.3069 982.193 Q56.5014 985.735 56.5014 992.864 Q56.5014 999.971 58.3069 1003.54 Q60.1356 1007.08 63.7467 1007.08 Q67.3809 1007.08 69.1865 1003.54 Q71.0152 999.971 71.0152 992.864 Q71.0152 985.735 69.1865 982.193 Q67.3809 978.628 63.7467 978.628 M63.7467 974.925 Q69.5568 974.925 72.6124 979.531 Q75.6911 984.114 75.6911 992.864 Q75.6911 1001.59 72.6124 1006.2 Q69.5568 1010.78 63.7467 1010.78 Q57.9365 1010.78 54.8578 1006.2 Q51.8023 1001.59 51.8023 992.864 Q51.8023 984.114 54.8578 979.531 Q57.9365 974.925 63.7467 974.925 Z" fill="#000000" fill-rule="nonzero" fill-opacity="1" /><path clip-path="url(#clip710)" d="M83.9086 1004.23 L88.7928 1004.23 L88.7928 1010.11 L83.9086 1010.11 L83.9086 1004.23 Z" fill="#000000" fill-rule="nonzero" fill-opacity="1" /><path clip-path="url(#clip710)" d="M113.145 991.475 Q116.501 992.193 118.376 994.462 Q120.274 996.73 120.274 1000.06 Q120.274 1005.18 116.756 1007.98 Q113.237 1010.78 106.756 1010.78 Q104.58 1010.78 102.265 1010.34 Q99.9733 1009.92 97.5197 1009.07 L97.5197 1004.55 Q99.4641 1005.69 101.779 1006.27 Q104.094 1006.85 106.617 1006.85 Q111.015 1006.85 113.307 1005.11 Q115.621 1003.37 115.621 1000.06 Q115.621 997.008 113.469 995.295 Q111.339 993.559 107.52 993.559 L103.492 993.559 L103.492 989.716 L107.705 989.716 Q111.154 989.716 112.983 988.351 Q114.811 986.962 114.811 984.369 Q114.811 981.707 112.913 980.295 Q111.038 978.86 107.52 978.86 Q105.598 978.86 103.399 979.276 Q101.2 979.693 98.5613 980.573 L98.5613 976.406 Q101.223 975.665 103.538 975.295 Q105.876 974.925 107.936 974.925 Q113.26 974.925 116.362 977.355 Q119.464 979.763 119.464 983.883 Q119.464 986.753 117.82 988.744 Q116.177 990.712 113.145 991.475 Z" fill="#000000" fill-rule="nonzero" fill-opacity="1" /><path clip-path="url(#clip710)" d="M62.9365 708.973 Q59.3254 708.973 57.4967 712.537 Q55.6912 716.079 55.6912 723.209 Q55.6912 730.315 57.4967 733.88 Q59.3254 737.421 62.9365 737.421 Q66.5707 737.421 68.3763 733.88 Q70.205 730.315 70.205 723.209 Q70.205 716.079 68.3763 712.537 Q66.5707 708.973 62.9365 708.973 M62.9365 705.269 Q68.7467 705.269 71.8022 709.875 Q74.8809 714.459 74.8809 723.209 Q74.8809 731.935 71.8022 736.542 Q68.7467 741.125 62.9365 741.125 Q57.1264 741.125 54.0477 736.542 Q50.9921 731.935 50.9921 723.209 Q50.9921 714.459 54.0477 709.875 Q57.1264 705.269 62.9365 705.269 Z" fill="#000000" fill-rule="nonzero" fill-opacity="1" /><path clip-path="url(#clip710)" d="M83.0984 734.574 L87.9827 734.574 L87.9827 740.454 L83.0984 740.454 L83.0984 734.574 Z" fill="#000000" fill-rule="nonzero" fill-opacity="1" /><path clip-path="url(#clip710)" d="M108.746 721.31 Q105.598 721.31 103.746 723.463 Q101.918 725.616 101.918 729.366 Q101.918 733.093 103.746 735.269 Q105.598 737.421 108.746 737.421 Q111.895 737.421 113.723 735.269 Q115.575 733.093 115.575 729.366 Q115.575 725.616 113.723 723.463 Q111.895 721.31 108.746 721.31 M118.029 706.658 L118.029 710.917 Q116.27 710.084 114.464 709.644 Q112.682 709.204 110.922 709.204 Q106.293 709.204 103.839 712.329 Q101.409 715.454 101.061 721.773 Q102.427 719.76 104.487 718.695 Q106.547 717.607 109.024 717.607 Q114.233 717.607 117.242 720.778 Q120.274 723.926 120.274 729.366 Q120.274 734.69 117.126 737.908 Q113.978 741.125 108.746 741.125 Q102.751 741.125 99.5798 736.542 Q96.4085 731.935 96.4085 723.209 Q96.4085 715.014 100.297 710.153 Q104.186 705.269 110.737 705.269 Q112.496 705.269 114.279 705.616 Q116.084 705.963 118.029 706.658 Z" fill="#000000" fill-rule="nonzero" fill-opacity="1" /><path clip-path="url(#clip710)" d="M63.2837 439.317 Q59.6726 439.317 57.8439 442.882 Q56.0384 446.423 56.0384 453.553 Q56.0384 460.659 57.8439 464.224 Q59.6726 467.766 63.2837 467.766 Q66.918 467.766 68.7235 464.224 Q70.5522 460.659 70.5522 453.553 Q70.5522 446.423 68.7235 442.882 Q66.918 439.317 63.2837 439.317 M63.2837 435.613 Q69.0939 435.613 72.1494 440.22 Q75.2281 444.803 75.2281 453.553 Q75.2281 462.28 72.1494 466.886 Q69.0939 471.469 63.2837 471.469 Q57.4736 471.469 54.3949 466.886 Q51.3393 462.28 51.3393 453.553 Q51.3393 444.803 54.3949 440.22 Q57.4736 435.613 63.2837 435.613 Z" fill="#000000" fill-rule="nonzero" fill-opacity="1" /><path clip-path="url(#clip710)" d="M83.4457 464.918 L88.3299 464.918 L88.3299 470.798 L83.4457 470.798 L83.4457 464.918 Z" fill="#000000" fill-rule="nonzero" fill-opacity="1" /><path clip-path="url(#clip710)" d="M98.6539 470.081 L98.6539 465.821 Q100.413 466.655 102.219 467.094 Q104.024 467.534 105.76 467.534 Q110.39 467.534 112.82 464.432 Q115.274 461.307 115.621 454.965 Q114.279 456.956 112.219 458.02 Q110.158 459.085 107.658 459.085 Q102.473 459.085 99.4409 455.96 Q96.4317 452.812 96.4317 447.372 Q96.4317 442.048 99.5798 438.831 Q102.728 435.613 107.959 435.613 Q113.955 435.613 117.103 440.22 Q120.274 444.803 120.274 453.553 Q120.274 461.724 116.385 466.608 Q112.52 471.469 105.969 471.469 Q104.209 471.469 102.404 471.122 Q100.598 470.775 98.6539 470.081 M107.959 455.428 Q111.108 455.428 112.936 453.275 Q114.788 451.122 114.788 447.372 Q114.788 443.645 112.936 441.493 Q111.108 439.317 107.959 439.317 Q104.811 439.317 102.959 441.493 Q101.131 443.645 101.131 447.372 Q101.131 451.122 102.959 453.275 Q104.811 455.428 107.959 455.428 Z" fill="#000000" fill-rule="nonzero" fill-opacity="1" /><path clip-path="url(#clip710)" d="M55.506 197.207 L63.1448 197.207 L63.1448 170.842 L54.8347 172.508 L54.8347 168.249 L63.0985 166.582 L67.7744 166.582 L67.7744 197.207 L75.4133 197.207 L75.4133 201.142 L55.506 201.142 L55.506 197.207 Z" fill="#000000" fill-rule="nonzero" fill-opacity="1" /><path clip-path="url(#clip710)" d="M84.8577 195.263 L89.7419 195.263 L89.7419 201.142 L84.8577 201.142 L84.8577 195.263 Z" fill="#000000" fill-rule="nonzero" fill-opacity="1" /><path clip-path="url(#clip710)" d="M103.955 197.207 L120.274 197.207 L120.274 201.142 L98.3298 201.142 L98.3298 197.207 Q100.992 194.453 105.575 189.823 Q110.182 185.17 111.362 183.828 Q113.608 181.304 114.487 179.568 Q115.39 177.809 115.39 176.119 Q115.39 173.365 113.445 171.629 Q111.524 169.892 108.422 169.892 Q106.223 169.892 103.77 170.656 Q101.339 171.42 98.5613 172.971 L98.5613 168.249 Q101.385 167.115 103.839 166.536 Q106.293 165.957 108.33 165.957 Q113.7 165.957 116.895 168.642 Q120.089 171.328 120.089 175.818 Q120.089 177.948 119.279 179.869 Q118.492 181.767 116.385 184.36 Q115.807 185.031 112.705 188.249 Q109.603 191.443 103.955 197.207 Z" fill="#000000" fill-rule="nonzero" fill-opacity="1" /><polyline clip-path="url(#clip712)" style="stroke:#009af9; stroke-linecap:round; stroke-linejoin:round; stroke-width:16; stroke-opacity:1; fill:none" stroke-dasharray="8, 16" points="218.439,1127.49 228.852,1113.87 239.264,1100.16 249.677,1088.93 260.09,1082.9 270.503,1084.14 280.916,1093.3 291.329,1108.96 301.741,1128.26 312.154,1149.54 322.567,1174.2 332.98,1204.61 343.393,1239.94 353.805,1276.24 364.218,1309.87 374.631,1339.44 385.044,1365.23 395.457,1387.91 405.87,1407.72 416.282,1424.14 426.695,1436.13 437.108,1442.53 447.521,1442.5 457.934,1435.78 468.347,1422.79 478.759,1404.42 489.172,1381.73 499.585,1355.62 509.998,1326.79 520.411,1296 530.824,1264.07 541.236,1231.86 551.649,1200.27 562.062,1170.5 572.475,1143.89 582.888,1121.49 593.301,1103.94 603.713,1091.57 614.126,1084.61 624.539,1083.2 634.952,1087.51 645.365,1097.79 655.777,1114.11 666.19,1135.75 676.603,1160.54 687.016,1185.31 697.429,1208.95 707.842,1235.7 718.254,1272.2 728.667,1317.97 739.08,1362.55 749.493,1394.3 759.906,1408.96 770.319,1411.35 780.731,1412.04 791.144,1419.22 801.557,1431.87 811.97,1441.23 822.383,1438.72 832.796,1423.27 843.208,1400.42 853.621,1375.79 864.034,1350.89 874.447,1323.84 884.86,1292.16 895.273,1254.78 905.685,1213.16 916.098,1173.38 926.511,1146.16 936.924,1137.02 947.337,1137.08 957.749,1131.63 968.162,1113.38 978.575,1085.9 988.988,1063.16 999.401,1062.73 1009.81,1086.68 1020.23,1117.18 1030.64,1144.01 1041.05,1174.09 1051.46,1206.67 1061.88,1229.75 1072.29,1241.75 1082.7,1259.46 1093.12,1298.1 1103.53,1347.26 1113.94,1382.93 1124.35,1402.13 1134.77,1417.47 1145.18,1431.85 1155.59,1441.89 1166.01,1445.72 1176.42,1441.12 1186.83,1428.65 1197.24,1415.65 1207.66,1409.3 1218.07,1405.98 1228.48,1373.43 1238.9,1236.34 1249.31,960.426 1259.72,649.918 1270.13,429.59 1280.55,323.874 1290.96,294.985 1301.37,307.325 1311.79,346.382 1322.2,406.037 1332.61,465.614 1343.02,474.946 1353.44,403.139 1363.85,322.415 1374.26,323.018 1384.68,368.122 1395.09,367.333 1405.5,362.794 1415.91,416.089 1426.33,458.724 1436.74,441.913 1447.15,397.024 1457.57,360.076 1467.98,338.391 1478.39,323.024 1488.8,306.008 1499.22,290.242 1509.63,290.673 1520.04,323.409 1530.45,383.665 1540.87,438.997 1551.28,462.579 1561.69,452.97 1572.11,417.985 1582.52,369.027 1592.93,317.598 1603.34,278.255 1613.76,270.466 1624.17,297.944 1634.58,343.612 1645,386.262 1655.41,413.913 1665.82,425.997 1676.23,427.914 1686.65,423.839 1697.06,412.997 1707.47,390.974 1717.89,354.05 1728.3,303.676 1738.71,249.744 1749.12,213.098 1759.54,225.441 1769.95,310.536 1780.36,437.014 1790.78,522.497 1801.19,528.49 1811.6,481.001 1822.01,405.971 1832.43,312.626 1842.84,221.74 1853.25,174.891 1863.67,200.086 1874.08,281.591 1884.49,378.771 1894.9,459.506 1905.32,509.729 1915.73,525.963 1926.14,507.476 1936.56,454.162 1946.97,370.564 1957.38,272.146 1967.79,185.06 1978.21,141.582 1988.62,178.025 1999.03,299.737 2009.45,445.158 2019.86,544.156 2030.27,576.302 2040.68,552.772 2051.1,489.454 2061.51,401.755 2071.92,307.201 2082.33,225.997 2092.75,177.69 2103.16,175.458 2113.57,221.372 2123.99,305.24 2134.4,407.244 2144.81,503.229 2155.22,570.606 2165.64,592.02 2176.05,555.547 2186.46,455.624 2196.88,304.528 2207.29,154.702 2217.7,87.9763 2228.11,135.164 2238.53,244.74 2248.94,359.819 2259.35,455.471 2269.77,524.296 2280.18,566.739 2290.59,587.303 "/>
<polyline clip-path="url(#clip712)" style="stroke:#e26f46; stroke-linecap:round; stroke-linejoin:round; stroke-width:4; stroke-opacity:1; fill:none" points="218.439,1127.48 228.852,1108.33 239.264,1094.2 249.677,1085.57 260.09,1082.72 270.503,1085.73 280.916,1094.51 291.329,1108.77 301.741,1128.05 312.154,1151.71 322.567,1178.99 332.98,1209 343.393,1240.75 353.805,1273.22 364.218,1305.33 374.631,1336.04 385.044,1364.35 395.457,1389.34 405.87,1410.19 416.282,1426.22 426.695,1436.9 437.108,1441.89 447.521,1441.03 457.934,1434.33 468.347,1422.03 478.759,1404.53 489.172,1382.38 499.585,1356.33 509.998,1327.21 520.411,1295.98 530.824,1263.65 541.236,1231.29 551.649,1199.95 562.062,1170.64 572.475,1144.34 582.888,1121.89 593.301,1104.03 603.713,1091.34 614.126,1084.23 624.539,1082.95 634.952,1087.52 645.365,1097.81 655.777,1113.46 666.19,1133.99 676.603,1158.7 687.016,1186.81 697.429,1217.38 707.842,1249.43 718.254,1281.9 728.667,1313.74 739.08,1343.9 749.493,1371.41 759.906,1395.36 770.319,1414.98 780.731,1429.62 791.144,1438.8 801.557,1442.23 811.97,1439.8 822.383,1431.58 832.796,1417.83 843.208,1399.02 853.621,1375.75 864.034,1348.79 874.447,1319.01 884.86,1287.38 895.273,1254.94 905.685,1222.75 916.098,1191.85 926.511,1163.26 936.924,1137.91 947.337,1116.62 957.749,1100.1 968.162,1088.87 978.575,1083.31 988.988,1083.6 999.401,1089.73 1009.81,1101.49 1020.23,1118.51 1030.64,1140.23 1041.05,1165.94 1051.46,1194.8 1061.88,1225.87 1072.29,1258.13 1082.7,1290.53 1093.12,1322.03 1103.53,1351.57 1113.94,1378.21 1124.35,1401.07 1134.77,1419.41 1145.18,1432.63 1155.59,1440.3 1166.01,1442.16 1176.42,1438.15 1186.83,1428.42 1197.24,1413.27 1207.66,1393.19 1218.07,1368.86 1228.48,1341.05 1238.9,1310.67 1249.31,1278.72 1259.72,362.327 1270.13,360.842 1280.55,362.194 1290.96,366.695 1301.37,372.965 1311.79,378.356 1322.2,379.952 1332.61,375.805 1343.02,365.917 1353.44,352.588 1363.85,339.904 1374.26,332.494 1384.68,333.915 1395.09,345.221 1405.5,364.237 1415.91,385.878 1426.33,403.501 1436.74,410.934 1447.15,404.571 1457.57,384.827 1467.98,356.428 1478.39,327.323 1488.8,306.464 1499.22,301.06 1509.63,314.16 1520.04,343.344 1530.45,381.035 1540.87,416.44 1551.28,438.646 1561.69,439.961 1572.11,418.508 1582.52,379.192 1592.93,332.652 1603.34,292.395 1613.76,270.875 1624.17,275.66 1634.58,306.859 1645,356.667 1655.41,411.269 1665.82,454.673 1676.23,473.385 1686.65,460.589 1697.06,418.511 1707.47,358.2 1717.89,296.655 1728.3,252.03 1738.71,238.286 1749.12,260.854 1759.54,314.643 1769.95,385.109 1780.36,452.166 1790.78,495.915 1801.19,502.542 1811.6,468.643 1822.01,402.637 1832.43,322.721 1842.84,251.869 1853.25,211.222 1863.67,213.791 1874.08,260.337 1884.49,338.717 1894.9,427.024 1905.32,499.703 1915.73,534.945 1926.14,521.222 1936.56,461 1946.97,370.455 1957.38,275.153 1967.79,202.828 1978.21,175.316 1988.62,201.977 1999.03,276.587 2009.45,378.713 2019.86,479.296 2030.27,548.919 2040.68,566.407 2051.1,525.247 2061.51,435.889 2071.92,323.138 2082.33,219.276 2092.75,154.821 2103.16,149.563 2113.57,206.514 2123.99,310.609 2134.4,432.664 2144.81,537.55 2155.22,594.305 2165.64,585.268 2176.05,511.543 2186.46,393.108 2196.88,263.424 2207.29,159.983 2217.7,113.469 2228.11,138.667 2238.53,229.804 2248.94,361.787 2259.35,497.099 2269.77,596.465 2280.18,630.242 2290.59,587.261 "/>
<path clip-path="url(#clip710)" d="M229.49 250.738 L675.966 250.738 L675.966 95.2176 L229.49 95.2176  Z" fill="#ffffff" fill-rule="evenodd" fill-opacity="1"/>
<polyline clip-path="url(#clip710)" style="stroke:#000000; stroke-linecap:round; stroke-linejoin:round; stroke-width:4; stroke-opacity:1; fill:none" points="229.49,250.738 675.966,250.738 675.966,95.2176 229.49,95.2176 229.49,250.738 "/>
<polyline clip-path="url(#clip710)" style="stroke:#009af9; stroke-linecap:round; stroke-linejoin:round; stroke-width:16; stroke-opacity:1; fill:none" stroke-dasharray="8, 16" points="253.896,147.058 400.328,147.058 "/>
<path clip-path="url(#clip710)" d="M429.409 133.62 L429.409 146.606 L435.289 146.606 Q438.552 146.606 440.335 144.916 Q442.117 143.227 442.117 140.102 Q442.117 137 440.335 135.31 Q438.552 133.62 435.289 133.62 L429.409 133.62 M424.733 129.778 L435.289 129.778 Q441.099 129.778 444.062 132.416 Q447.048 135.032 447.048 140.102 Q447.048 145.217 444.062 147.833 Q441.099 150.449 435.289 150.449 L429.409 150.449 L429.409 164.338 L424.733 164.338 L424.733 129.778 Z" fill="#000000" fill-rule="nonzero" fill-opacity="1" /><path clip-path="url(#clip710)" d="M467.325 142.393 Q466.608 141.977 465.751 141.791 Q464.918 141.583 463.899 141.583 Q460.288 141.583 458.344 143.944 Q456.423 146.282 456.423 150.68 L456.423 164.338 L452.14 164.338 L452.14 138.412 L456.423 138.412 L456.423 142.44 Q457.765 140.078 459.918 138.944 Q462.071 137.787 465.149 137.787 Q465.589 137.787 466.122 137.856 Q466.654 137.903 467.302 138.018 L467.325 142.393 Z" fill="#000000" fill-rule="nonzero" fill-opacity="1" /><path clip-path="url(#clip710)" d="M492.927 150.31 L492.927 152.393 L473.344 152.393 Q473.622 156.791 475.983 159.106 Q478.367 161.398 482.603 161.398 Q485.057 161.398 487.348 160.796 Q489.663 160.194 491.932 158.99 L491.932 163.018 Q489.64 163.99 487.233 164.5 Q484.825 165.009 482.348 165.009 Q476.145 165.009 472.511 161.398 Q468.899 157.787 468.899 151.629 Q468.899 145.264 472.325 141.537 Q475.774 137.787 481.608 137.787 Q486.839 137.787 489.872 141.166 Q492.927 144.523 492.927 150.31 M488.668 149.06 Q488.622 145.565 486.7 143.481 Q484.802 141.398 481.654 141.398 Q478.089 141.398 475.936 143.412 Q473.807 145.426 473.483 149.083 L488.668 149.06 Z" fill="#000000" fill-rule="nonzero" fill-opacity="1" /><path clip-path="url(#clip710)" d="M516.978 142.347 L516.978 128.319 L521.237 128.319 L521.237 164.338 L516.978 164.338 L516.978 160.449 Q515.635 162.763 513.575 163.898 Q511.538 165.009 508.668 165.009 Q503.969 165.009 501.006 161.259 Q498.066 157.509 498.066 151.398 Q498.066 145.287 501.006 141.537 Q503.969 137.787 508.668 137.787 Q511.538 137.787 513.575 138.921 Q515.635 140.032 516.978 142.347 M502.464 151.398 Q502.464 156.097 504.385 158.782 Q506.33 161.444 509.709 161.444 Q513.089 161.444 515.033 158.782 Q516.978 156.097 516.978 151.398 Q516.978 146.699 515.033 144.037 Q513.089 141.352 509.709 141.352 Q506.33 141.352 504.385 144.037 Q502.464 146.699 502.464 151.398 Z" fill="#000000" fill-rule="nonzero" fill-opacity="1" /><path clip-path="url(#clip710)" d="M530.01 138.412 L534.269 138.412 L534.269 164.338 L530.01 164.338 L530.01 138.412 M530.01 128.319 L534.269 128.319 L534.269 133.713 L530.01 133.713 L530.01 128.319 Z" fill="#000000" fill-rule="nonzero" fill-opacity="1" /><path clip-path="url(#clip710)" d="M561.839 139.407 L561.839 143.389 Q560.033 142.393 558.205 141.907 Q556.399 141.398 554.547 141.398 Q550.404 141.398 548.112 144.037 Q545.82 146.652 545.82 151.398 Q545.82 156.143 548.112 158.782 Q550.404 161.398 554.547 161.398 Q556.399 161.398 558.205 160.912 Q560.033 160.402 561.839 159.407 L561.839 163.342 Q560.056 164.176 558.135 164.592 Q556.237 165.009 554.084 165.009 Q548.228 165.009 544.779 161.328 Q541.33 157.648 541.33 151.398 Q541.33 145.055 544.802 141.421 Q548.297 137.787 554.362 137.787 Q556.33 137.787 558.205 138.203 Q560.08 138.597 561.839 139.407 Z" fill="#000000" fill-rule="nonzero" fill-opacity="1" /><path clip-path="url(#clip710)" d="M573.459 131.051 L573.459 138.412 L582.232 138.412 L582.232 141.722 L573.459 141.722 L573.459 155.796 Q573.459 158.967 574.316 159.87 Q575.195 160.773 577.857 160.773 L582.232 160.773 L582.232 164.338 L577.857 164.338 Q572.927 164.338 571.052 162.509 Q569.177 160.657 569.177 155.796 L569.177 141.722 L566.052 141.722 L566.052 138.412 L569.177 138.412 L569.177 131.051 L573.459 131.051 Z" fill="#000000" fill-rule="nonzero" fill-opacity="1" /><path clip-path="url(#clip710)" d="M587.834 138.412 L592.093 138.412 L592.093 164.338 L587.834 164.338 L587.834 138.412 M587.834 128.319 L592.093 128.319 L592.093 133.713 L587.834 133.713 L587.834 128.319 Z" fill="#000000" fill-rule="nonzero" fill-opacity="1" /><path clip-path="url(#clip710)" d="M611.051 141.398 Q607.626 141.398 605.635 144.083 Q603.644 146.745 603.644 151.398 Q603.644 156.051 605.612 158.736 Q607.602 161.398 611.051 161.398 Q614.454 161.398 616.445 158.713 Q618.436 156.027 618.436 151.398 Q618.436 146.791 616.445 144.106 Q614.454 141.398 611.051 141.398 M611.051 137.787 Q616.607 137.787 619.778 141.398 Q622.95 145.009 622.95 151.398 Q622.95 157.764 619.778 161.398 Q616.607 165.009 611.051 165.009 Q605.473 165.009 602.302 161.398 Q599.153 157.764 599.153 151.398 Q599.153 145.009 602.302 141.398 Q605.473 137.787 611.051 137.787 Z" fill="#000000" fill-rule="nonzero" fill-opacity="1" /><path clip-path="url(#clip710)" d="M651.561 148.689 L651.561 164.338 L647.301 164.338 L647.301 148.828 Q647.301 145.148 645.866 143.319 Q644.431 141.49 641.561 141.49 Q638.112 141.49 636.121 143.69 Q634.13 145.889 634.13 149.685 L634.13 164.338 L629.848 164.338 L629.848 138.412 L634.13 138.412 L634.13 142.44 Q635.658 140.102 637.718 138.944 Q639.801 137.787 642.51 137.787 Q646.977 137.787 649.269 140.565 Q651.561 143.319 651.561 148.689 Z" fill="#000000" fill-rule="nonzero" fill-opacity="1" /><polyline clip-path="url(#clip710)" style="stroke:#e26f46; stroke-linecap:round; stroke-linejoin:round; stroke-width:4; stroke-opacity:1; fill:none" points="253.896,198.898 400.328,198.898 "/>
<path clip-path="url(#clip710)" d="M424.733 181.618 L446.585 181.618 L446.585 185.553 L429.409 185.553 L429.409 195.784 L445.867 195.784 L445.867 199.719 L429.409 199.719 L429.409 212.242 L447.001 212.242 L447.001 216.178 L424.733 216.178 L424.733 181.618 Z" fill="#000000" fill-rule="nonzero" fill-opacity="1" /><path clip-path="url(#clip710)" d="M476.052 190.252 L466.677 202.867 L476.538 216.178 L471.515 216.178 L463.969 205.992 L456.423 216.178 L451.4 216.178 L461.469 202.613 L452.256 190.252 L457.279 190.252 L464.154 199.488 L471.029 190.252 L476.052 190.252 Z" fill="#000000" fill-rule="nonzero" fill-opacity="1" /><path clip-path="url(#clip710)" d="M494.339 203.145 Q489.177 203.145 487.186 204.326 Q485.196 205.506 485.196 208.354 Q485.196 210.622 486.677 211.965 Q488.182 213.284 490.751 213.284 Q494.293 213.284 496.422 210.784 Q498.575 208.261 498.575 204.094 L498.575 203.145 L494.339 203.145 M502.834 201.386 L502.834 216.178 L498.575 216.178 L498.575 212.242 Q497.117 214.603 494.941 215.738 Q492.765 216.849 489.617 216.849 Q485.635 216.849 483.274 214.627 Q480.936 212.381 480.936 208.631 Q480.936 204.256 483.853 202.034 Q486.793 199.812 492.603 199.812 L498.575 199.812 L498.575 199.395 Q498.575 196.455 496.631 194.858 Q494.71 193.238 491.214 193.238 Q488.992 193.238 486.885 193.77 Q484.779 194.303 482.835 195.367 L482.835 191.432 Q485.173 190.53 487.372 190.09 Q489.571 189.627 491.654 189.627 Q497.279 189.627 500.057 192.543 Q502.834 195.46 502.834 201.386 Z" fill="#000000" fill-rule="nonzero" fill-opacity="1" /><path clip-path="url(#clip710)" d="M530.265 191.247 L530.265 195.229 Q528.459 194.233 526.631 193.747 Q524.825 193.238 522.973 193.238 Q518.83 193.238 516.538 195.877 Q514.246 198.492 514.246 203.238 Q514.246 207.983 516.538 210.622 Q518.83 213.238 522.973 213.238 Q524.825 213.238 526.631 212.752 Q528.459 212.242 530.265 211.247 L530.265 215.182 Q528.482 216.016 526.561 216.432 Q524.663 216.849 522.51 216.849 Q516.654 216.849 513.205 213.168 Q509.756 209.488 509.756 203.238 Q509.756 196.895 513.228 193.261 Q516.723 189.627 522.788 189.627 Q524.756 189.627 526.631 190.043 Q528.506 190.437 530.265 191.247 Z" fill="#000000" fill-rule="nonzero" fill-opacity="1" /><path clip-path="url(#clip710)" d="M541.885 182.891 L541.885 190.252 L550.658 190.252 L550.658 193.562 L541.885 193.562 L541.885 207.636 Q541.885 210.807 542.742 211.71 Q543.621 212.613 546.283 212.613 L550.658 212.613 L550.658 216.178 L546.283 216.178 Q541.353 216.178 539.478 214.349 Q537.603 212.497 537.603 207.636 L537.603 193.562 L534.478 193.562 L534.478 190.252 L537.603 190.252 L537.603 182.891 L541.885 182.891 Z" fill="#000000" fill-rule="nonzero" fill-opacity="1" /></svg>
