<?xml version="1.0" encoding="utf-8"?>
<svg xmlns="http://www.w3.org/2000/svg" xmlns:xlink="http://www.w3.org/1999/xlink" width="600" height="400" viewBox="0 0 2400 1600">
<defs>
  <clipPath id="clip620">
    <rect x="0" y="0" width="2400" height="1600"/>
  </clipPath>
</defs>
<path clip-path="url(#clip620)" d="M0 1600 L2400 1600 L2400 0 L0 0  Z" fill="#ffffff" fill-rule="evenodd" fill-opacity="1"/>
<defs>
  <clipPath id="clip621">
    <rect x="480" y="0" width="1681" height="1600"/>
  </clipPath>
</defs>
<path clip-path="url(#clip620)" d="M156.274 1486.45 L2352.76 1486.45 L2352.76 47.2441 L156.274 47.2441  Z" fill="#ffffff" fill-rule="evenodd" fill-opacity="1"/>
<defs>
  <clipPath id="clip622">
    <rect x="156" y="47" width="2197" height="1440"/>
  </clipPath>
</defs>
<polyline clip-path="url(#clip622)" style="stroke:#000000; stroke-linecap:round; stroke-linejoin:round; stroke-width:2; stroke-opacity:0.1; fill:none" points="218.439,1486.45 218.439,47.2441 "/>
<polyline clip-path="url(#clip622)" style="stroke:#000000; stroke-linecap:round; stroke-linejoin:round; stroke-width:2; stroke-opacity:0.1; fill:none" points="736.477,1486.45 736.477,47.2441 "/>
<polyline clip-path="url(#clip622)" style="stroke:#000000; stroke-linecap:round; stroke-linejoin:round; stroke-width:2; stroke-opacity:0.1; fill:none" points="1254.52,1486.45 1254.52,47.2441 "/>
<polyline clip-path="url(#clip622)" style="stroke:#000000; stroke-linecap:round; stroke-linejoin:round; stroke-width:2; stroke-opacity:0.1; fill:none" points="1772.55,1486.45 1772.55,47.2441 "/>
<polyline clip-path="url(#clip622)" style="stroke:#000000; stroke-linecap:round; stroke-linejoin:round; stroke-width:2; stroke-opacity:0.1; fill:none" points="2290.59,1486.45 2290.59,47.2441 "/>
<polyline clip-path="url(#clip620)" style="stroke:#000000; stroke-linecap:round; stroke-linejoin:round; stroke-width:4; stroke-opacity:1; fill:none" points="156.274,1486.45 2352.76,1486.45 "/>
<polyline clip-path="url(#clip620)" style="stroke:#000000; stroke-linecap:round; stroke-linejoin:round; stroke-width:4; stroke-opacity:1; fill:none" points="218.439,1486.45 218.439,1467.55 "/>
<polyline clip-path="url(#clip620)" style="stroke:#000000; stroke-linecap:round; stroke-linejoin:round; stroke-width:4; stroke-opacity:1; fill:none" points="736.477,1486.45 736.477,1467.55 "/>
<polyline clip-path="url(#clip620)" style="stroke:#000000; stroke-linecap:round; stroke-linejoin:round; stroke-width:4; stroke-opacity:1; fill:none" points="1254.52,1486.45 1254.52,1467.55 "/>
<polyline clip-path="url(#clip620)" style="stroke:#000000; stroke-linecap:round; stroke-linejoin:round; stroke-width:4; stroke-opacity:1; fill:none" points="1772.55,1486.45 1772.55,1467.55 "/>
<polyline clip-path="url(#clip620)" style="stroke:#000000; stroke-linecap:round; stroke-linejoin:round; stroke-width:4; stroke-opacity:1; fill:none" points="2290.59,1486.45 2290.59,1467.55 "/>
<path clip-path="url(#clip620)" d="M164.967 1532.02 L194.643 1532.02 L194.643 1535.95 L164.967 1535.95 L164.967 1532.02 Z" fill="#000000" fill-rule="nonzero" fill-opacity="1" /><path clip-path="url(#clip620)" d="M205.545 1544.91 L213.184 1544.91 L213.184 1518.55 L204.874 1520.21 L204.874 1515.95 L213.138 1514.29 L217.814 1514.29 L217.814 1544.91 L225.453 1544.91 L225.453 1548.85 L205.545 1548.85 L205.545 1544.91 Z" fill="#000000" fill-rule="nonzero" fill-opacity="1" /><path clip-path="url(#clip620)" d="M234.897 1542.97 L239.781 1542.97 L239.781 1548.85 L234.897 1548.85 L234.897 1542.97 Z" fill="#000000" fill-rule="nonzero" fill-opacity="1" /><path clip-path="url(#clip620)" d="M259.966 1517.37 Q256.355 1517.37 254.527 1520.93 Q252.721 1524.47 252.721 1531.6 Q252.721 1538.71 254.527 1542.27 Q256.355 1545.82 259.966 1545.82 Q263.601 1545.82 265.406 1542.27 Q267.235 1538.71 267.235 1531.6 Q267.235 1524.47 265.406 1520.93 Q263.601 1517.37 259.966 1517.37 M259.966 1513.66 Q265.776 1513.66 268.832 1518.27 Q271.911 1522.85 271.911 1531.6 Q271.911 1540.33 268.832 1544.94 Q265.776 1549.52 259.966 1549.52 Q254.156 1549.52 251.077 1544.94 Q248.022 1540.33 248.022 1531.6 Q248.022 1522.85 251.077 1518.27 Q254.156 1513.66 259.966 1513.66 Z" fill="#000000" fill-rule="nonzero" fill-opacity="1" /><path clip-path="url(#clip620)" d="M683.503 1532.02 L713.178 1532.02 L713.178 1535.95 L683.503 1535.95 L683.503 1532.02 Z" fill="#000000" fill-rule="nonzero" fill-opacity="1" /><path clip-path="url(#clip620)" d="M733.271 1517.37 Q729.66 1517.37 727.831 1520.93 Q726.026 1524.47 726.026 1531.6 Q726.026 1538.71 727.831 1542.27 Q729.66 1545.82 733.271 1545.82 Q736.905 1545.82 738.711 1542.27 Q740.539 1538.71 740.539 1531.6 Q740.539 1524.47 738.711 1520.93 Q736.905 1517.37 733.271 1517.37 M733.271 1513.66 Q739.081 1513.66 742.137 1518.27 Q745.215 1522.85 745.215 1531.6 Q745.215 1540.33 742.137 1544.94 Q739.081 1549.52 733.271 1549.52 Q727.461 1549.52 724.382 1544.94 Q721.327 1540.33 721.327 1531.6 Q721.327 1522.85 724.382 1518.27 Q727.461 1513.66 733.271 1513.66 Z" fill="#000000" fill-rule="nonzero" fill-opacity="1" /><path clip-path="url(#clip620)" d="M753.433 1542.97 L758.317 1542.97 L758.317 1548.85 L753.433 1548.85 L753.433 1542.97 Z" fill="#000000" fill-rule="nonzero" fill-opacity="1" /><path clip-path="url(#clip620)" d="M768.548 1514.29 L786.905 1514.29 L786.905 1518.22 L772.831 1518.22 L772.831 1526.7 Q773.849 1526.35 774.868 1526.19 Q775.886 1526 776.905 1526 Q782.692 1526 786.072 1529.17 Q789.451 1532.34 789.451 1537.76 Q789.451 1543.34 785.979 1546.44 Q782.507 1549.52 776.187 1549.52 Q774.011 1549.52 771.743 1549.15 Q769.498 1548.78 767.09 1548.04 L767.09 1543.34 Q769.173 1544.47 771.396 1545.03 Q773.618 1545.58 776.095 1545.58 Q780.099 1545.58 782.437 1543.48 Q784.775 1541.37 784.775 1537.76 Q784.775 1534.15 782.437 1532.04 Q780.099 1529.94 776.095 1529.94 Q774.22 1529.94 772.345 1530.35 Q770.493 1530.77 768.548 1531.65 L768.548 1514.29 Z" fill="#000000" fill-rule="nonzero" fill-opacity="1" /><path clip-path="url(#clip620)" d="M1231.9 1517.37 Q1228.29 1517.37 1226.46 1520.93 Q1224.65 1524.47 1224.65 1531.6 Q1224.65 1538.71 1226.46 1542.27 Q1228.29 1545.82 1231.9 1545.82 Q1235.53 1545.82 1237.34 1542.27 Q1239.17 1538.71 1239.17 1531.6 Q1239.17 1524.47 1237.34 1520.93 Q1235.53 1517.37 1231.9 1517.37 M1231.9 1513.66 Q1237.71 1513.66 1240.77 1518.27 Q1243.84 1522.85 1243.84 1531.6 Q1243.84 1540.33 1240.77 1544.94 Q1237.71 1549.52 1231.9 1549.52 Q1226.09 1549.52 1223.01 1544.94 Q1219.96 1540.33 1219.96 1531.6 Q1219.96 1522.85 1223.01 1518.27 Q1226.09 1513.66 1231.9 1513.66 Z" fill="#000000" fill-rule="nonzero" fill-opacity="1" /><path clip-path="url(#clip620)" d="M1252.06 1542.97 L1256.95 1542.97 L1256.95 1548.85 L1252.06 1548.85 L1252.06 1542.97 Z" fill="#000000" fill-rule="nonzero" fill-opacity="1" /><path clip-path="url(#clip620)" d="M1277.13 1517.37 Q1273.52 1517.37 1271.69 1520.93 Q1269.89 1524.47 1269.89 1531.6 Q1269.89 1538.71 1271.69 1542.27 Q1273.52 1545.82 1277.13 1545.82 Q1280.76 1545.82 1282.57 1542.27 Q1284.4 1538.71 1284.4 1531.6 Q1284.4 1524.47 1282.57 1520.93 Q1280.76 1517.37 1277.13 1517.37 M1277.13 1513.66 Q1282.94 1513.66 1286 1518.27 Q1289.08 1522.85 1289.08 1531.6 Q1289.08 1540.33 1286 1544.94 Q1282.94 1549.52 1277.13 1549.52 Q1271.32 1549.52 1268.24 1544.94 Q1265.19 1540.33 1265.19 1531.6 Q1265.19 1522.85 1268.24 1518.27 Q1271.32 1513.66 1277.13 1513.66 Z" fill="#000000" fill-rule="nonzero" fill-opacity="1" /><path clip-path="url(#clip620)" d="M1750.44 1517.37 Q1746.82 1517.37 1745 1520.93 Q1743.19 1524.47 1743.19 1531.6 Q1743.19 1538.71 1745 1542.27 Q1746.82 1545.82 1750.44 1545.82 Q1754.07 1545.82 1755.88 1542.27 Q1757.7 1538.71 1757.7 1531.6 Q1757.7 1524.47 1755.88 1520.93 Q1754.07 1517.37 1750.44 1517.37 M1750.44 1513.66 Q1756.25 1513.66 1759.3 1518.27 Q1762.38 1522.85 1762.38 1531.6 Q1762.38 1540.33 1759.3 1544.94 Q1756.25 1549.52 1750.44 1549.52 Q1744.63 1549.52 1741.55 1544.94 Q1738.49 1540.33 1738.49 1531.6 Q1738.49 1522.85 1741.55 1518.27 Q1744.63 1513.66 1750.44 1513.66 Z" fill="#000000" fill-rule="nonzero" fill-opacity="1" /><path clip-path="url(#clip620)" d="M1770.6 1542.97 L1775.48 1542.97 L1775.48 1548.85 L1770.6 1548.85 L1770.6 1542.97 Z" fill="#000000" fill-rule="nonzero" fill-opacity="1" /><path clip-path="url(#clip620)" d="M1785.71 1514.29 L1804.07 1514.29 L1804.07 1518.22 L1790 1518.22 L1790 1526.7 Q1791.01 1526.35 1792.03 1526.19 Q1793.05 1526 1794.07 1526 Q1799.86 1526 1803.24 1529.17 Q1806.62 1532.34 1806.62 1537.76 Q1806.62 1543.34 1803.14 1546.44 Q1799.67 1549.52 1793.35 1549.52 Q1791.18 1549.52 1788.91 1549.15 Q1786.66 1548.78 1784.25 1548.04 L1784.25 1543.34 Q1786.34 1544.47 1788.56 1545.03 Q1790.78 1545.58 1793.26 1545.58 Q1797.26 1545.58 1799.6 1543.48 Q1801.94 1541.37 1801.94 1537.76 Q1801.94 1534.15 1799.6 1532.04 Q1797.26 1529.94 1793.26 1529.94 Q1791.38 1529.94 1789.51 1530.35 Q1787.66 1530.77 1785.71 1531.65 L1785.71 1514.29 Z" fill="#000000" fill-rule="nonzero" fill-opacity="1" /><path clip-path="url(#clip620)" d="M2257.74 1544.91 L2265.38 1544.91 L2265.38 1518.55 L2257.07 1520.21 L2257.07 1515.95 L2265.34 1514.29 L2270.01 1514.29 L2270.01 1544.91 L2277.65 1544.91 L2277.65 1548.85 L2257.74 1548.85 L2257.74 1544.91 Z" fill="#000000" fill-rule="nonzero" fill-opacity="1" /><path clip-path="url(#clip620)" d="M2287.1 1542.97 L2291.98 1542.97 L2291.98 1548.85 L2287.1 1548.85 L2287.1 1542.97 Z" fill="#000000" fill-rule="nonzero" fill-opacity="1" /><path clip-path="url(#clip620)" d="M2312.17 1517.37 Q2308.55 1517.37 2306.73 1520.93 Q2304.92 1524.47 2304.92 1531.6 Q2304.92 1538.71 2306.73 1542.27 Q2308.55 1545.82 2312.17 1545.82 Q2315.8 1545.82 2317.61 1542.27 Q2319.43 1538.71 2319.43 1531.6 Q2319.43 1524.47 2317.61 1520.93 Q2315.8 1517.37 2312.17 1517.37 M2312.17 1513.66 Q2317.98 1513.66 2321.03 1518.27 Q2324.11 1522.85 2324.11 1531.6 Q2324.11 1540.33 2321.03 1544.94 Q2317.98 1549.52 2312.17 1549.52 Q2306.36 1549.52 2303.28 1544.94 Q2300.22 1540.33 2300.22 1531.6 Q2300.22 1522.85 2303.28 1518.27 Q2306.36 1513.66 2312.17 1513.66 Z" fill="#000000" fill-rule="nonzero" fill-opacity="1" /><polyline clip-path="url(#clip622)" style="stroke:#000000; stroke-linecap:round; stroke-linejoin:round; stroke-width:2; stroke-opacity:0.1; fill:none" points="156.274,1241.43 2352.76,1241.43 "/>
<polyline clip-path="url(#clip622)" style="stroke:#000000; stroke-linecap:round; stroke-linejoin:round; stroke-width:2; stroke-opacity:0.1; fill:none" points="156.274,970.73 2352.76,970.73 "/>
<polyline clip-path="url(#clip622)" style="stroke:#000000; stroke-linecap:round; stroke-linejoin:round; stroke-width:2; stroke-opacity:0.1; fill:none" points="156.274,700.034 2352.76,700.034 "/>
<polyline clip-path="url(#clip622)" style="stroke:#000000; stroke-linecap:round; stroke-linejoin:round; stroke-width:2; stroke-opacity:0.1; fill:none" points="156.274,429.338 2352.76,429.338 "/>
<polyline clip-path="url(#clip622)" style="stroke:#000000; stroke-linecap:round; stroke-linejoin:round; stroke-width:2; stroke-opacity:0.1; fill:none" points="156.274,158.641 2352.76,158.641 "/>
<polyline clip-path="url(#clip620)" style="stroke:#000000; stroke-linecap:round; stroke-linejoin:round; stroke-width:4; stroke-opacity:1; fill:none" points="156.274,1486.45 156.274,47.2441 "/>
<polyline clip-path="url(#clip620)" style="stroke:#000000; stroke-linecap:round; stroke-linejoin:round; stroke-width:4; stroke-opacity:1; fill:none" points="156.274,1241.43 175.172,1241.43 "/>
<polyline clip-path="url(#clip620)" style="stroke:#000000; stroke-linecap:round; stroke-linejoin:round; stroke-width:4; stroke-opacity:1; fill:none" points="156.274,970.73 175.172,970.73 "/>
<polyline clip-path="url(#clip620)" style="stroke:#000000; stroke-linecap:round; stroke-linejoin:round; stroke-width:4; stroke-opacity:1; fill:none" points="156.274,700.034 175.172,700.034 "/>
<polyline clip-path="url(#clip620)" style="stroke:#000000; stroke-linecap:round; stroke-linejoin:round; stroke-width:4; stroke-opacity:1; fill:none" points="156.274,429.338 175.172,429.338 "/>
<polyline clip-path="url(#clip620)" style="stroke:#000000; stroke-linecap:round; stroke-linejoin:round; stroke-width:4; stroke-opacity:1; fill:none" points="156.274,158.641 175.172,158.641 "/>
<path clip-path="url(#clip620)" d="M63.0985 1227.23 Q59.4875 1227.23 57.6588 1230.79 Q55.8532 1234.33 55.8532 1241.46 Q55.8532 1248.57 57.6588 1252.13 Q59.4875 1255.67 63.0985 1255.67 Q66.7328 1255.67 68.5383 1252.13 Q70.367 1248.57 70.367 1241.46 Q70.367 1234.33 68.5383 1230.79 Q66.7328 1227.23 63.0985 1227.23 M63.0985 1223.52 Q68.9087 1223.52 71.9642 1228.13 Q75.0429 1232.71 75.0429 1241.46 Q75.0429 1250.19 71.9642 1254.79 Q68.9087 1259.38 63.0985 1259.38 Q57.2884 1259.38 54.2097 1254.79 Q51.1542 1250.19 51.1542 1241.46 Q51.1542 1232.71 54.2097 1228.13 Q57.2884 1223.52 63.0985 1223.52 Z" fill="#000000" fill-rule="nonzero" fill-opacity="1" /><path clip-path="url(#clip620)" d="M83.2605 1252.83 L88.1447 1252.83 L88.1447 1258.71 L83.2605 1258.71 L83.2605 1252.83 Z" fill="#000000" fill-rule="nonzero" fill-opacity="1" /><path clip-path="url(#clip620)" d="M108.33 1227.23 Q104.719 1227.23 102.89 1230.79 Q101.084 1234.33 101.084 1241.46 Q101.084 1248.57 102.89 1252.13 Q104.719 1255.67 108.33 1255.67 Q111.964 1255.67 113.77 1252.13 Q115.598 1248.57 115.598 1241.46 Q115.598 1234.33 113.77 1230.79 Q111.964 1227.23 108.33 1227.23 M108.33 1223.52 Q114.14 1223.52 117.195 1228.13 Q120.274 1232.71 120.274 1241.46 Q120.274 1250.19 117.195 1254.79 Q114.14 1259.38 108.33 1259.38 Q102.52 1259.38 99.4409 1254.79 Q96.3854 1250.19 96.3854 1241.46 Q96.3854 1232.71 99.4409 1228.13 Q102.52 1223.52 108.33 1223.52 Z" fill="#000000" fill-rule="nonzero" fill-opacity="1" /><path clip-path="url(#clip620)" d="M63.7467 956.529 Q60.1356 956.529 58.3069 960.094 Q56.5014 963.635 56.5014 970.765 Q56.5014 977.871 58.3069 981.436 Q60.1356 984.978 63.7467 984.978 Q67.3809 984.978 69.1865 981.436 Q71.0152 977.871 71.0152 970.765 Q71.0152 963.635 69.1865 960.094 Q67.3809 956.529 63.7467 956.529 M63.7467 952.825 Q69.5568 952.825 72.6124 957.432 Q75.6911 962.015 75.6911 970.765 Q75.6911 979.492 72.6124 984.098 Q69.5568 988.681 63.7467 988.681 Q57.9365 988.681 54.8578 984.098 Q51.8023 979.492 51.8023 970.765 Q51.8023 962.015 54.8578 957.432 Q57.9365 952.825 63.7467 952.825 Z" fill="#000000" fill-rule="nonzero" fill-opacity="1" /><path clip-path="url(#clip620)" d="M83.9086 982.131 L88.7928 982.131 L88.7928 988.01 L83.9086 988.01 L83.9086 982.131 Z" fill="#000000" fill-rule="nonzero" fill-opacity="1" /><path clip-path="url(#clip620)" d="M113.145 969.376 Q116.501 970.094 118.376 972.362 Q120.274 974.631 120.274 977.964 Q120.274 983.08 116.756 985.88 Q113.237 988.681 106.756 988.681 Q104.58 988.681 102.265 988.242 Q99.9733 987.825 97.5197 986.968 L97.5197 982.455 Q99.4641 983.589 101.779 984.168 Q104.094 984.746 106.617 984.746 Q111.015 984.746 113.307 983.01 Q115.621 981.274 115.621 977.964 Q115.621 974.908 113.469 973.195 Q111.339 971.459 107.52 971.459 L103.492 971.459 L103.492 967.617 L107.705 967.617 Q111.154 967.617 112.983 966.251 Q114.811 964.862 114.811 962.27 Q114.811 959.607 112.913 958.195 Q111.038 956.76 107.52 956.76 Q105.598 956.76 103.399 957.177 Q101.2 957.594 98.5613 958.473 L98.5613 954.307 Q101.223 953.566 103.538 953.195 Q105.876 952.825 107.936 952.825 Q113.26 952.825 116.362 955.256 Q119.464 957.663 119.464 961.783 Q119.464 964.654 117.82 966.644 Q116.177 968.612 113.145 969.376 Z" fill="#000000" fill-rule="nonzero" fill-opacity="1" /><path clip-path="url(#clip620)" d="M62.9365 685.833 Q59.3254 685.833 57.4967 689.397 Q55.6912 692.939 55.6912 700.069 Q55.6912 707.175 57.4967 710.74 Q59.3254 714.281 62.9365 714.281 Q66.5707 714.281 68.3763 710.74 Q70.205 707.175 70.205 700.069 Q70.205 692.939 68.3763 689.397 Q66.5707 685.833 62.9365 685.833 M62.9365 682.129 Q68.7467 682.129 71.8022 686.735 Q74.8809 691.319 74.8809 700.069 Q74.8809 708.795 71.8022 713.402 Q68.7467 717.985 62.9365 717.985 Q57.1264 717.985 54.0477 713.402 Q50.9921 708.795 50.9921 700.069 Q50.9921 691.319 54.0477 686.735 Q57.1264 682.129 62.9365 682.129 Z" fill="#000000" fill-rule="nonzero" fill-opacity="1" /><path clip-path="url(#clip620)" d="M83.0984 711.434 L87.9827 711.434 L87.9827 717.314 L83.0984 717.314 L83.0984 711.434 Z" fill="#000000" fill-rule="nonzero" fill-opacity="1" /><path clip-path="url(#clip620)" d="M108.746 698.17 Q105.598 698.17 103.746 700.323 Q101.918 702.476 101.918 706.226 Q101.918 709.953 103.746 712.129 Q105.598 714.281 108.746 714.281 Q111.895 714.281 113.723 712.129 Q115.575 709.953 115.575 706.226 Q115.575 702.476 113.723 700.323 Q111.895 698.17 108.746 698.17 M118.029 683.518 L118.029 687.777 Q116.27 686.944 114.464 686.504 Q112.682 686.064 110.922 686.064 Q106.293 686.064 103.839 689.189 Q101.409 692.314 101.061 698.633 Q102.427 696.62 104.487 695.555 Q106.547 694.467 109.024 694.467 Q114.233 694.467 117.242 697.638 Q120.274 700.786 120.274 706.226 Q120.274 711.55 117.126 714.768 Q113.978 717.985 108.746 717.985 Q102.751 717.985 99.5798 713.402 Q96.4085 708.795 96.4085 700.069 Q96.4085 691.874 100.297 687.013 Q104.186 682.129 110.737 682.129 Q112.496 682.129 114.279 682.476 Q116.084 682.823 118.029 683.518 Z" fill="#000000" fill-rule="nonzero" fill-opacity="1" /><path clip-path="url(#clip620)" d="M63.2837 415.136 Q59.6726 415.136 57.8439 418.701 Q56.0384 422.243 56.0384 429.372 Q56.0384 436.479 57.8439 440.044 Q59.6726 443.585 63.2837 443.585 Q66.918 443.585 68.7235 440.044 Q70.5522 436.479 70.5522 429.372 Q70.5522 422.243 68.7235 418.701 Q66.918 415.136 63.2837 415.136 M63.2837 411.433 Q69.0939 411.433 72.1494 416.039 Q75.2281 420.622 75.2281 429.372 Q75.2281 438.099 72.1494 442.706 Q69.0939 447.289 63.2837 447.289 Q57.4736 447.289 54.3949 442.706 Q51.3393 438.099 51.3393 429.372 Q51.3393 420.622 54.3949 416.039 Q57.4736 411.433 63.2837 411.433 Z" fill="#000000" fill-rule="nonzero" fill-opacity="1" /><path clip-path="url(#clip620)" d="M83.4457 440.738 L88.3299 440.738 L88.3299 446.618 L83.4457 446.618 L83.4457 440.738 Z" fill="#000000" fill-rule="nonzero" fill-opacity="1" /><path clip-path="url(#clip620)" d="M98.6539 445.9 L98.6539 441.641 Q100.413 442.474 102.219 442.914 Q104.024 443.354 105.76 443.354 Q110.39 443.354 112.82 440.252 Q115.274 437.127 115.621 430.784 Q114.279 432.775 112.219 433.84 Q110.158 434.905 107.658 434.905 Q102.473 434.905 99.4409 431.78 Q96.4317 428.632 96.4317 423.192 Q96.4317 417.868 99.5798 414.65 Q102.728 411.433 107.959 411.433 Q113.955 411.433 117.103 416.039 Q120.274 420.622 120.274 429.372 Q120.274 437.544 116.385 442.428 Q112.52 447.289 105.969 447.289 Q104.209 447.289 102.404 446.942 Q100.598 446.595 98.6539 445.9 M107.959 431.247 Q111.108 431.247 112.936 429.095 Q114.788 426.942 114.788 423.192 Q114.788 419.465 112.936 417.312 Q111.108 415.136 107.959 415.136 Q104.811 415.136 102.959 417.312 Q101.131 419.465 101.131 423.192 Q101.131 426.942 102.959 429.095 Q104.811 431.247 107.959 431.247 Z" fill="#000000" fill-rule="nonzero" fill-opacity="1" /><path clip-path="url(#clip620)" d="M55.506 171.986 L63.1448 171.986 L63.1448 145.621 L54.8347 147.287 L54.8347 143.028 L63.0985 141.361 L67.7744 141.361 L67.7744 171.986 L75.4133 171.986 L75.4133 175.921 L55.506 175.921 L55.506 171.986 Z" fill="#000000" fill-rule="nonzero" fill-opacity="1" /><path clip-path="url(#clip620)" d="M84.8577 170.042 L89.7419 170.042 L89.7419 175.921 L84.8577 175.921 L84.8577 170.042 Z" fill="#000000" fill-rule="nonzero" fill-opacity="1" /><path clip-path="url(#clip620)" d="M103.955 171.986 L120.274 171.986 L120.274 175.921 L98.3298 175.921 L98.3298 171.986 Q100.992 169.232 105.575 164.602 Q110.182 159.949 111.362 158.607 Q113.608 156.084 114.487 154.347 Q115.39 152.588 115.39 150.898 Q115.39 148.144 113.445 146.408 Q111.524 144.672 108.422 144.672 Q106.223 144.672 103.77 145.436 Q101.339 146.199 98.5613 147.75 L98.5613 143.028 Q101.385 141.894 103.839 141.315 Q106.293 140.736 108.33 140.736 Q113.7 140.736 116.895 143.422 Q120.089 146.107 120.089 150.598 Q120.089 152.727 119.279 154.648 Q118.492 156.547 116.385 159.139 Q115.807 159.81 112.705 163.028 Q109.603 166.222 103.955 171.986 Z" fill="#000000" fill-rule="nonzero" fill-opacity="1" /><polyline clip-path="url(#clip622)" style="stroke:#009af9; stroke-linecap:round; stroke-linejoin:round; stroke-width:16; stroke-opacity:1; fill:none" stroke-dasharray="8, 16" points="218.439,1105.52 228.852,1101.28 239.264,1097.04 249.677,1092.8 260.09,1088.56 270.503,1084.46 280.916,1092.41 291.329,1119.4 301.741,1146.44 312.154,1173.65 322.567,1200.85 332.98,1228.06 343.393,1255.27 353.805,1282.48 364.218,1309.68 374.631,1336.89 385.044,1364.1 395.457,1391.3 405.87,1418.51 416.282,1445.72 426.695,1439.96 437.108,1422.23 447.521,1404.5 457.934,1386.78 468.347,1369.05 478.759,1351.32 489.172,1333.59 499.585,1315.86 509.998,1298.13 520.411,1280.4 530.824,1262.67 541.236,1244.94 551.649,1227.21 562.062,1209.48 572.475,1191.75 582.888,1174.02 593.301,1156.29 603.713,1138.56 614.126,1120.84 624.539,1103.49 634.952,1086.9 645.365,1105.75 655.777,1128.88 666.19,1152.01 676.603,1175.14 687.016,1198.27 697.429,1221.4 707.842,1244.53 718.254,1267.66 728.667,1290.79 739.08,1313.92 749.493,1337.05 759.906,1360.18 770.319,1382.62 780.731,1397.87 791.144,1413.12 801.557,1426.36 811.97,1427.85 822.383,1415.6 832.796,1401.9 843.208,1380.8 853.621,1359.69 864.034,1338.57 874.447,1307.5 884.86,1274.31 895.273,1240.58 905.685,1206.31 916.098,1172.54 926.511,1147.27 936.924,1123.5 947.337,1099.89 957.749,1076.35 968.162,1054.93 978.575,1064.85 988.988,1075.52 999.401,1086.19 1009.81,1096.87 1020.23,1108.38 1030.64,1129.89 1041.05,1153.75 1051.46,1178.92 1061.88,1208.51 1072.29,1243.29 1082.7,1278.15 1093.12,1307.36 1103.53,1335 1113.94,1360.68 1124.35,1384.08 1134.77,1399.8 1145.18,1415.37 1155.59,1422.05 1166.01,1426.06 1176.42,1425.55 1186.83,1410.67 1197.24,1410.31 1207.66,1425.08 1218.07,1408.85 1228.48,1360.72 1238.9,1214.79 1249.31,949.074 1259.72,675.753 1270.13,446.837 1280.55,318.505 1290.96,311.255 1301.37,316.438 1311.79,342.695 1322.2,354.148 1332.61,346.781 1343.02,338.445 1353.44,329.43 1363.85,320.345 1374.26,321.008 1384.68,327.536 1395.09,332.786 1405.5,337.959 1415.91,342.299 1426.33,346.231 1436.74,349.649 1447.15,349.286 1457.57,345.899 1467.98,342.512 1478.39,339.125 1488.8,336.866 1499.22,338.838 1509.63,340.809 1520.04,342.781 1530.45,344.752 1540.87,346.723 1551.28,348.694 1561.69,350.666 1572.11,352.559 1582.52,351.443 1592.93,350.326 1603.34,349.209 1613.76,348.252 1624.17,347.86 1634.58,347.48 1645,347.101 1655.41,346.722 1665.82,346.343 1676.23,345.964 1686.65,345.584 1697.06,345.166 1707.47,344.442 1717.89,343.24 1728.3,342.038 1738.71,340.836 1749.12,339.634 1759.54,338.432 1769.95,337.231 1780.36,336.029 1790.78,334.827 1801.19,333.625 1811.6,332.424 1822.01,331.222 1832.43,330.02 1842.84,328.818 1853.25,327.616 1863.67,326.414 1874.08,327.342 1884.49,328.612 1894.9,329.868 1905.32,331.124 1915.73,332.38 1926.14,333.636 1936.56,334.892 1946.97,336.149 1957.38,337.404 1967.79,338.66 1978.21,339.917 1988.62,341.173 1999.03,342.429 2009.45,343.685 2019.86,344.941 2030.27,346.197 2040.68,347.453 2051.1,348.709 2061.51,349.965 2071.92,351.221 2082.33,352.477 2092.75,353.735 2103.16,355.01 2113.57,356.285 2123.99,357.561 2134.4,358.836 2144.81,360.11 2155.22,361.385 2165.64,362.661 2176.05,363.936 2186.46,365.211 2196.88,367.21 2207.29,370.437 2217.7,377.465 2228.11,384.493 2238.53,391.521 2248.94,398.55 2259.35,405.578 2269.77,412.607 2280.18,419.635 2290.59,426.664 "/>
<polyline clip-path="url(#clip622)" style="stroke:#e26f46; stroke-linecap:round; stroke-linejoin:round; stroke-width:4; stroke-opacity:1; fill:none" points="218.439,1105.9 228.852,1086.67 239.264,1072.49 249.677,1063.83 260.09,1060.96 270.503,1063.98 280.916,1072.8 291.329,1087.12 301.741,1106.47 312.154,1130.23 322.567,1157.61 332.98,1187.74 343.393,1219.61 353.805,1252.2 364.218,1284.43 374.631,1315.26 385.044,1343.69 395.457,1368.77 405.87,1389.7 416.282,1405.79 426.695,1416.51 437.108,1421.52 447.521,1420.66 457.934,1413.94 468.347,1401.59 478.759,1384.02 489.172,1361.79 499.585,1335.63 509.998,1306.4 520.411,1275.05 530.824,1242.6 541.236,1210.11 551.649,1178.65 562.062,1149.23 572.475,1122.82 582.888,1100.29 593.301,1082.36 603.713,1069.62 614.126,1062.49 624.539,1061.2 634.952,1065.79 645.365,1076.11 655.777,1091.83 666.19,1112.43 676.603,1137.24 687.016,1165.46 697.429,1196.15 707.842,1228.32 718.254,1260.91 728.667,1292.87 739.08,1323.16 749.493,1350.77 759.906,1374.82 770.319,1394.51 780.731,1409.21 791.144,1418.43 801.557,1421.87 811.97,1419.42 822.383,1411.17 832.796,1397.37 843.208,1378.49 853.621,1355.13 864.034,1328.06 874.447,1298.17 884.86,1266.42 895.273,1233.85 905.685,1201.54 916.098,1170.52 926.511,1141.82 936.924,1116.37 947.337,1095 957.749,1078.41 968.162,1067.14 978.575,1061.56 988.988,1061.85 999.401,1068 1009.81,1079.81 1020.23,1096.9 1030.64,1118.7 1041.05,1144.51 1051.46,1173.48 1061.88,1204.66 1072.29,1237.05 1082.7,1269.58 1093.12,1301.2 1103.53,1330.86 1113.94,1357.6 1124.35,1380.55 1134.77,1398.96 1145.18,1412.23 1155.59,1419.92 1166.01,1421.79 1176.42,1417.77 1186.83,1408 1197.24,1392.79 1207.66,1372.64 1218.07,1348.21 1228.48,1320.29 1238.9,1289.8 1249.31,1257.73 1259.72,337.795 1270.13,336.304 1280.55,337.661 1290.96,342.179 1301.37,348.474 1311.79,353.885 1322.2,355.488 1332.61,351.324 1343.02,341.399 1353.44,328.018 1363.85,315.285 1374.26,307.847 1384.68,309.274 1395.09,320.623 1405.5,339.712 1415.91,361.436 1426.33,379.127 1436.74,386.59 1447.15,380.202 1457.57,360.382 1467.98,331.873 1478.39,302.656 1488.8,281.716 1499.22,276.292 1509.63,289.442 1520.04,318.739 1530.45,356.575 1540.87,392.117 1551.28,414.408 1561.69,415.728 1572.11,394.193 1582.52,354.725 1592.93,308.005 1603.34,267.593 1613.76,245.989 1624.17,250.793 1634.58,282.113 1645,332.113 1655.41,386.926 1665.82,430.497 1676.23,449.282 1686.65,436.436 1697.06,394.195 1707.47,333.652 1717.89,271.87 1728.3,227.072 1738.71,213.276 1749.12,235.93 1759.54,289.927 1769.95,360.665 1780.36,427.981 1790.78,471.899 1801.19,478.551 1811.6,444.521 1822.01,378.26 1832.43,298.036 1842.84,226.91 1853.25,186.106 1863.67,188.686 1874.08,235.411 1884.49,314.094 1894.9,402.742 1905.32,475.701 1915.73,511.079 1926.14,497.303 1936.56,436.848 1946.97,345.954 1957.38,250.285 1967.79,177.68 1978.21,150.062 1988.62,176.826 1999.03,251.724 2009.45,354.244 2019.86,455.215 2030.27,525.107 2040.68,542.662 2051.1,501.343 2061.51,411.641 2071.92,298.454 2082.33,194.192 2092.75,129.488 2103.16,124.21 2113.57,181.381 2123.99,285.877 2134.4,408.403 2144.81,513.694 2155.22,570.668 2165.64,561.596 2176.05,487.587 2186.46,368.695 2196.88,238.51 2207.29,134.67 2217.7,87.9763 2228.11,113.272 2238.53,204.76 2248.94,337.253 2259.35,473.087 2269.77,572.836 2280.18,606.744 2290.59,563.597 "/>
<path clip-path="url(#clip620)" d="M229.49 250.738 L675.966 250.738 L675.966 95.2176 L229.49 95.2176  Z" fill="#ffffff" fill-rule="evenodd" fill-opacity="1"/>
<polyline clip-path="url(#clip620)" style="stroke:#000000; stroke-linecap:round; stroke-linejoin:round; stroke-width:4; stroke-opacity:1; fill:none" points="229.49,250.738 675.966,250.738 675.966,95.2176 229.49,95.2176 229.49,250.738 "/>
<polyline clip-path="url(#clip620)" style="stroke:#009af9; stroke-linecap:round; stroke-linejoin:round; stroke-width:16; stroke-opacity:1; fill:none" stroke-dasharray="8, 16" points="253.896,147.058 400.328,147.058 "/>
<path clip-path="url(#clip620)" d="M429.409 133.62 L429.409 146.606 L435.289 146.606 Q438.552 146.606 440.335 144.916 Q442.117 143.227 442.117 140.102 Q442.117 137 440.335 135.31 Q438.552 133.62 435.289 133.62 L429.409 133.62 M424.733 129.778 L435.289 129.778 Q441.099 129.778 444.062 132.416 Q447.048 135.032 447.048 140.102 Q447.048 145.217 444.062 147.833 Q441.099 150.449 435.289 150.449 L429.409 150.449 L429.409 164.338 L424.733 164.338 L424.733 129.778 Z" fill="#000000" fill-rule="nonzero" fill-opacity="1" /><path clip-path="url(#clip620)" d="M467.325 142.393 Q466.608 141.977 465.751 141.791 Q464.918 141.583 463.899 141.583 Q460.288 141.583 458.344 143.944 Q456.423 146.282 456.423 150.68 L456.423 164.338 L452.14 164.338 L452.14 138.412 L456.423 138.412 L456.423 142.44 Q457.765 140.078 459.918 138.944 Q462.071 137.787 465.149 137.787 Q465.589 137.787 466.122 137.856 Q466.654 137.903 467.302 138.018 L467.325 142.393 Z" fill="#000000" fill-rule="nonzero" fill-opacity="1" /><path clip-path="url(#clip620)" d="M492.927 150.31 L492.927 152.393 L473.344 152.393 Q473.622 156.791 475.983 159.106 Q478.367 161.398 482.603 161.398 Q485.057 161.398 487.348 160.796 Q489.663 160.194 491.932 158.99 L491.932 163.018 Q489.64 163.99 487.233 164.5 Q484.825 165.009 482.348 165.009 Q476.145 165.009 472.511 161.398 Q468.899 157.787 468.899 151.629 Q468.899 145.264 472.325 141.537 Q475.774 137.787 481.608 137.787 Q486.839 137.787 489.872 141.166 Q492.927 144.523 492.927 150.31 M488.668 149.06 Q488.622 145.565 486.7 143.481 Q484.802 141.398 481.654 141.398 Q478.089 141.398 475.936 143.412 Q473.807 145.426 473.483 149.083 L488.668 149.06 Z" fill="#000000" fill-rule="nonzero" fill-opacity="1" /><path clip-path="url(#clip620)" d="M516.978 142.347 L516.978 128.319 L521.237 128.319 L521.237 164.338 L516.978 164.338 L516.978 160.449 Q515.635 162.763 513.575 163.898 Q511.538 165.009 508.668 165.009 Q503.969 165.009 501.006 161.259 Q498.066 157.509 498.066 151.398 Q498.066 145.287 501.006 141.537 Q503.969 137.787 508.668 137.787 Q511.538 137.787 513.575 138.921 Q515.635 140.032 516.978 142.347 M502.464 151.398 Q502.464 156.097 504.385 158.782 Q506.33 161.444 509.709 161.444 Q513.089 161.444 515.033 158.782 Q516.978 156.097 516.978 151.398 Q516.978 146.699 515.033 144.037 Q513.089 141.352 509.709 141.352 Q506.33 141.352 504.385 144.037 Q502.464 146.699 502.464 151.398 Z" fill="#000000" fill-rule="nonzero" fill-opacity="1" /><path clip-path="url(#clip620)" d="M530.01 138.412 L534.269 138.412 L534.269 164.338 L530.01 164.338 L530.01 138.412 M530.01 128.319 L534.269 128.319 L534.269 133.713 L530.01 133.713 L530.01 128.319 Z" fill="#000000" fill-rule="nonzero" fill-opacity="1" /><path clip-path="url(#clip620)" d="M561.839 139.407 L561.839 143.389 Q560.033 142.393 558.205 141.907 Q556.399 141.398 554.547 141.398 Q550.404 141.398 548.112 144.037 Q545.82 146.652 545.82 151.398 Q545.82 156.143 548.112 158.782 Q550.404 161.398 554.547 161.398 Q556.399 161.398 558.205 160.912 Q560.033 160.402 561.839 159.407 L561.839 163.342 Q560.056 164.176 558.135 164.592 Q556.237 165.009 554.084 165.009 Q548.228 165.009 544.779 161.328 Q541.33 157.648 541.33 151.398 Q541.33 145.055 544.802 141.421 Q548.297 137.787 554.362 137.787 Q556.33 137.787 558.205 138.203 Q560.08 138.597 561.839 139.407 Z" fill="#000000" fill-rule="nonzero" fill-opacity="1" /><path clip-path="url(#clip620)" d="M573.459 131.051 L573.459 138.412 L582.232 138.412 L582.232 141.722 L573.459 141.722 L573.459 155.796 Q573.459 158.967 574.316 159.87 Q575.195 160.773 577.857 160.773 L582.232 160.773 L582.232 164.338 L577.857 164.338 Q572.927 164.338 571.052 162.509 Q569.177 160.657 569.177 155.796 L569.177 141.722 L566.052 141.722 L566.052 138.412 L569.177 138.412 L569.177 131.051 L573.459 131.051 Z" fill="#000000" fill-rule="nonzero" fill-opacity="1" /><path clip-path="url(#clip620)" d="M587.834 138.412 L592.093 138.412 L592.093 164.338 L587.834 164.338 L587.834 138.412 M587.834 128.319 L592.093 128.319 L592.093 133.713 L587.834 133.713 L587.834 128.319 Z" fill="#000000" fill-rule="nonzero" fill-opacity="1" /><path clip-path="url(#clip620)" d="M611.051 141.398 Q607.626 141.398 605.635 144.083 Q603.644 146.745 603.644 151.398 Q603.644 156.051 605.612 158.736 Q607.602 161.398 611.051 161.398 Q614.454 161.398 616.445 158.713 Q618.436 156.027 618.436 151.398 Q618.436 146.791 616.445 144.106 Q614.454 141.398 611.051 141.398 M611.051 137.787 Q616.607 137.787 619.778 141.398 Q622.95 145.009 622.95 151.398 Q622.95 157.764 619.778 161.398 Q616.607 165.009 611.051 165.009 Q605.473 165.009 602.302 161.398 Q599.153 157.764 599.153 151.398 Q599.153 145.009 602.302 141.398 Q605.473 137.787 611.051 137.787 Z" fill="#000000" fill-rule="nonzero" fill-opacity="1" /><path clip-path="url(#clip620)" d="M651.561 148.689 L651.561 164.338 L647.301 164.338 L647.301 148.828 Q647.301 145.148 645.866 143.319 Q644.431 141.49 641.561 141.49 Q638.112 141.49 636.121 143.69 Q634.13 145.889 634.13 149.685 L634.13 164.338 L629.848 164.338 L629.848 138.412 L634.13 138.412 L634.13 142.44 Q635.658 140.102 637.718 138.944 Q639.801 137.787 642.51 137.787 Q646.977 137.787 649.269 140.565 Q651.561 143.319 651.561 148.689 Z" fill="#000000" fill-rule="nonzero" fill-opacity="1" /><polyline clip-path="url(#clip620)" style="stroke:#e26f46; stroke-linecap:round; stroke-linejoin:round; stroke-width:4; stroke-opacity:1; fill:none" points="253.896,198.898 400.328,198.898 "/>
<path clip-path="url(#clip620)" d="M424.733 181.618 L446.585 181.618 L446.585 185.553 L429.409 185.553 L429.409 195.784 L445.867 195.784 L445.867 199.719 L429.409 199.719 L429.409 212.242 L447.001 212.242 L447.001 216.178 L424.733 216.178 L424.733 181.618 Z" fill="#000000" fill-rule="nonzero" fill-opacity="1" /><path clip-path="url(#clip620)" d="M476.052 190.252 L466.677 202.867 L476.538 216.178 L471.515 216.178 L463.969 205.992 L456.423 216.178 L451.4 216.178 L461.469 202.613 L452.256 190.252 L457.279 190.252 L464.154 199.488 L471.029 190.252 L476.052 190.252 Z" fill="#000000" fill-rule="nonzero" fill-opacity="1" /><path clip-path="url(#clip620)" d="M494.339 203.145 Q489.177 203.145 487.186 204.326 Q485.196 205.506 485.196 208.354 Q485.196 210.622 486.677 211.965 Q488.182 213.284 490.751 213.284 Q494.293 213.284 496.422 210.784 Q498.575 208.261 498.575 204.094 L498.575 203.145 L494.339 203.145 M502.834 201.386 L502.834 216.178 L498.575 216.178 L498.575 212.242 Q497.117 214.603 494.941 215.738 Q492.765 216.849 489.617 216.849 Q485.635 216.849 483.274 214.627 Q480.936 212.381 480.936 208.631 Q480.936 204.256 483.853 202.034 Q486.793 199.812 492.603 199.812 L498.575 199.812 L498.575 199.395 Q498.575 196.455 496.631 194.858 Q494.71 193.238 491.214 193.238 Q488.992 193.238 486.885 193.77 Q484.779 194.303 482.835 195.367 L482.835 191.432 Q485.173 190.53 487.372 190.09 Q489.571 189.627 491.654 189.627 Q497.279 189.627 500.057 192.543 Q502.834 195.46 502.834 201.386 Z" fill="#000000" fill-rule="nonzero" fill-opacity="1" /><path clip-path="url(#clip620)" d="M530.265 191.247 L530.265 195.229 Q528.459 194.233 526.631 193.747 Q524.825 193.238 522.973 193.238 Q518.83 193.238 516.538 195.877 Q514.246 198.492 514.246 203.238 Q514.246 207.983 516.538 210.622 Q518.83 213.238 522.973 213.238 Q524.825 213.238 526.631 212.752 Q528.459 212.242 530.265 211.247 L530.265 215.182 Q528.482 216.016 526.561 216.432 Q524.663 216.849 522.51 216.849 Q516.654 216.849 513.205 213.168 Q509.756 209.488 509.756 203.238 Q509.756 196.895 513.228 193.261 Q516.723 189.627 522.788 189.627 Q524.756 189.627 526.631 190.043 Q528.506 190.437 530.265 191.247 Z" fill="#000000" fill-rule="nonzero" fill-opacity="1" /><path clip-path="url(#clip620)" d="M541.885 182.891 L541.885 190.252 L550.658 190.252 L550.658 193.562 L541.885 193.562 L541.885 207.636 Q541.885 210.807 542.742 211.71 Q543.621 212.613 546.283 212.613 L550.658 212.613 L550.658 216.178 L546.283 216.178 Q541.353 216.178 539.478 214.349 Q537.603 212.497 537.603 207.636 L537.603 193.562 L534.478 193.562 L534.478 190.252 L537.603 190.252 L537.603 182.891 L541.885 182.891 Z" fill="#000000" fill-rule="nonzero" fill-opacity="1" /></svg>
