<?xml version="1.0" encoding="utf-8"?>
<svg xmlns="http://www.w3.org/2000/svg" xmlns:xlink="http://www.w3.org/1999/xlink" width="600" height="400" viewBox="0 0 2400 1600">
<defs>
  <clipPath id="clip510">
    <rect x="0" y="0" width="2400" height="1600"/>
  </clipPath>
</defs>
<path clip-path="url(#clip510)" d="M0 1600 L2400 1600 L2400 0 L0 0  Z" fill="#ffffff" fill-rule="evenodd" fill-opacity="1"/>
<defs>
  <clipPath id="clip511">
    <rect x="480" y="0" width="1681" height="1600"/>
  </clipPath>
</defs>
<path clip-path="url(#clip510)" d="M156.274 1486.45 L2352.76 1486.45 L2352.76 47.2441 L156.274 47.2441  Z" fill="#ffffff" fill-rule="evenodd" fill-opacity="1"/>
<defs>
  <clipPath id="clip512">
    <rect x="156" y="47" width="2197" height="1440"/>
  </clipPath>
</defs>
<polyline clip-path="url(#clip512)" style="stroke:#000000; stroke-linecap:round; stroke-linejoin:round; stroke-width:2; stroke-opacity:0.1; fill:none" points="218.439,1486.45 218.439,47.2441 "/>
<polyline clip-path="url(#clip512)" style="stroke:#000000; stroke-linecap:round; stroke-linejoin:round; stroke-width:2; stroke-opacity:0.1; fill:none" points="736.477,1486.45 736.477,47.2441 "/>
<polyline clip-path="url(#clip512)" style="stroke:#000000; stroke-linecap:round; stroke-linejoin:round; stroke-width:2; stroke-opacity:0.1; fill:none" points="1254.52,1486.45 1254.52,47.2441 "/>
<polyline clip-path="url(#clip512)" style="stroke:#000000; stroke-linecap:round; stroke-linejoin:round; stroke-width:2; stroke-opacity:0.1; fill:none" points="1772.55,1486.45 1772.55,47.2441 "/>
<polyline clip-path="url(#clip512)" style="stroke:#000000; stroke-linecap:round; stroke-linejoin:round; stroke-width:2; stroke-opacity:0.1; fill:none" points="2290.59,1486.45 2290.59,47.2441 "/>
<polyline clip-path="url(#clip510)" style="stroke:#000000; stroke-linecap:round; stroke-linejoin:round; stroke-width:4; stroke-opacity:1; fill:none" points="156.274,1486.45 2352.76,1486.45 "/>
<polyline clip-path="url(#clip510)" style="stroke:#000000; stroke-linecap:round; stroke-linejoin:round; stroke-width:4; stroke-opacity:1; fill:none" points="218.439,1486.45 218.439,1467.55 "/>
<polyline clip-path="url(#clip510)" style="stroke:#000000; stroke-linecap:round; stroke-linejoin:round; stroke-width:4; stroke-opacity:1; fill:none" points="736.477,1486.45 736.477,1467.55 "/>
<polyline clip-path="url(#clip510)" style="stroke:#000000; stroke-linecap:round; stroke-linejoin:round; stroke-width:4; stroke-opacity:1; fill:none" points="1254.52,1486.45 1254.52,1467.55 "/>
<polyline clip-path="url(#clip510)" style="stroke:#000000; stroke-linecap:round; stroke-linejoin:round; stroke-width:4; stroke-opacity:1; fill:none" points="1772.55,1486.45 1772.55,1467.55 "/>
<polyline clip-path="url(#clip510)" style="stroke:#000000; stroke-linecap:round; stroke-linejoin:round; stroke-width:4; stroke-opacity:1; fill:none" points="2290.59,1486.45 2290.59,1467.55 "/>
<path clip-path="url(#clip510)" d="M164.967 1532.02 L194.643 1532.02 L194.643 1535.95 L164.967 1535.95 L164.967 1532.02 Z" fill="#000000" fill-rule="nonzero" fill-opacity="1" /><path clip-path="url(#clip510)" d="M205.545 1544.91 L213.184 1544.91 L213.184 1518.55 L204.874 1520.21 L204.874 1515.95 L213.138 1514.29 L217.814 1514.29 L217.814 1544.91 L225.453 1544.91 L225.453 1548.85 L205.545 1548.85 L205.545 1544.91 Z" fill="#000000" fill-rule="nonzero" fill-opacity="1" /><path clip-path="url(#clip510)" d="M234.897 1542.97 L239.781 1542.97 L239.781 1548.85 L234.897 1548.85 L234.897 1542.97 Z" fill="#000000" fill-rule="nonzero" fill-opacity="1" /><path clip-path="url(#clip510)" d="M259.966 1517.37 Q256.355 1517.37 254.527 1520.93 Q252.721 1524.47 252.721 1531.6 Q252.721 1538.71 254.527 1542.27 Q256.355 1545.82 259.966 1545.82 Q263.601 1545.82 265.406 1542.27 Q267.235 1538.71 267.235 1531.6 Q267.235 1524.47 265.406 1520.93 Q263.601 1517.37 259.966 1517.37 M259.966 1513.66 Q265.776 1513.66 268.832 1518.27 Q271.911 1522.85 271.911 1531.6 Q271.911 1540.33 268.832 1544.94 Q265.776 1549.52 259.966 1549.52 Q254.156 1549.52 251.077 1544.94 Q248.022 1540.33 248.022 1531.6 Q248.022 1522.85 251.077 1518.27 Q254.156 1513.66 259.966 1513.66 Z" fill="#000000" fill-rule="nonzero" fill-opacity="1" /><path clip-path="url(#clip510)" d="M683.503 1532.02 L713.178 1532.02 L713.178 1535.95 L683.503 1535.95 L683.503 1532.02 Z" fill="#000000" fill-rule="nonzero" fill-opacity="1" /><path clip-path="url(#clip510)" d="M733.271 1517.37 Q729.66 1517.37 727.831 1520.93 Q726.026 1524.47 726.026 1531.6 Q726.026 1538.71 727.831 1542.27 Q729.66 1545.82 733.271 1545.82 Q736.905 1545.82 738.711 1542.27 Q740.539 1538.71 740.539 1531.6 Q740.539 1524.47 738.711 1520.93 Q736.905 1517.37 733.271 1517.37 M733.271 1513.66 Q739.081 1513.66 742.137 1518.27 Q745.215 1522.85 745.215 1531.6 Q745.215 1540.33 742.137 1544.94 Q739.081 1549.52 733.271 1549.52 Q727.461 1549.52 724.382 1544.94 Q721.327 1540.33 721.327 1531.6 Q721.327 1522.85 724.382 1518.27 Q727.461 1513.66 733.271 1513.66 Z" fill="#000000" fill-rule="nonzero" fill-opacity="1" /><path clip-path="url(#clip510)" d="M753.433 1542.97 L758.317 1542.97 L758.317 1548.85 L753.433 1548.85 L753.433 1542.97 Z" fill="#000000" fill-rule="nonzero" fill-opacity="1" /><path clip-path="url(#clip510)" d="M768.548 1514.29 L786.905 1514.29 L786.905 1518.22 L772.831 1518.22 L772.831 1526.7 Q773.849 1526.35 774.868 1526.19 Q775.886 1526 776.905 1526 Q782.692 1526 786.072 1529.17 Q789.451 1532.34 789.451 1537.76 Q789.451 1543.34 785.979 1546.44 Q782.507 1549.52 776.187 1549.52 Q774.011 1549.52 771.743 1549.15 Q769.498 1548.78 767.09 1548.04 L767.09 1543.34 Q769.173 1544.47 771.396 1545.03 Q773.618 1545.58 776.095 1545.58 Q780.099 1545.58 782.437 1543.48 Q784.775 1541.37 784.775 1537.76 Q784.775 1534.15 782.437 1532.04 Q780.099 1529.94 776.095 1529.94 Q774.22 1529.94 772.345 1530.35 Q770.493 1530.77 768.548 1531.65 L768.548 1514.29 Z" fill="#000000" fill-rule="nonzero" fill-opacity="1" /><path clip-path="url(#clip510)" d="M1231.9 1517.37 Q1228.29 1517.37 1226.46 1520.93 Q1224.65 1524.47 1224.65 1531.6 Q1224.65 1538.71 1226.46 1542.27 Q1228.29 1545.82 1231.9 1545.82 Q1235.53 1545.82 1237.34 1542.27 Q1239.17 1538.71 1239.17 1531.6 Q1239.17 1524.47 1237.34 1520.93 Q1235.53 1517.37 1231.9 1517.37 M1231.9 1513.66 Q1237.71 1513.66 1240.77 1518.27 Q1243.84 1522.85 1243.84 1531.6 Q1243.84 1540.33 1240.77 1544.94 Q1237.71 1549.52 1231.9 1549.52 Q1226.09 1549.52 1223.01 1544.94 Q1219.96 1540.33 1219.96 1531.6 Q1219.96 1522.85 1223.01 1518.27 Q1226.09 1513.66 1231.9 1513.66 Z" fill="#000000" fill-rule="nonzero" fill-opacity="1" /><path clip-path="url(#clip510)" d="M1252.06 1542.97 L1256.95 1542.97 L1256.95 1548.85 L1252.06 1548.85 L1252.06 1542.97 Z" fill="#000000" fill-rule="nonzero" fill-opacity="1" /><path clip-path="url(#clip510)" d="M1277.13 1517.37 Q1273.52 1517.37 1271.69 1520.93 Q1269.89 1524.47 1269.89 1531.6 Q1269.89 1538.71 1271.69 1542.27 Q1273.52 1545.82 1277.13 1545.82 Q1280.76 1545.82 1282.57 1542.27 Q1284.4 1538.71 1284.4 1531.6 Q1284.4 1524.47 1282.57 1520.93 Q1280.76 1517.37 1277.13 1517.37 M1277.13 1513.66 Q1282.94 1513.66 1286 1518.27 Q1289.08 1522.85 1289.08 1531.6 Q1289.08 1540.33 1286 1544.94 Q1282.94 1549.52 1277.13 1549.52 Q1271.32 1549.52 1268.24 1544.94 Q1265.19 1540.33 1265.19 1531.6 Q1265.19 1522.85 1268.24 1518.27 Q1271.32 1513.66 1277.13 1513.66 Z" fill="#000000" fill-rule="nonzero" fill-opacity="1" /><path clip-path="url(#clip510)" d="M1750.44 1517.37 Q1746.82 1517.37 1745 1520.93 Q1743.19 1524.47 1743.19 1531.6 Q1743.19 1538.71 1745 1542.27 Q1746.82 1545.82 1750.44 1545.82 Q1754.07 1545.82 1755.88 1542.27 Q1757.7 1538.71 1757.7 1531.6 Q1757.7 1524.47 1755.88 1520.93 Q1754.07 1517.37 1750.44 1517.37 M1750.44 1513.66 Q1756.25 1513.66 1759.3 1518.27 Q1762.38 1522.85 1762.38 1531.6 Q1762.38 1540.33 1759.3 1544.94 Q1756.25 1549.52 1750.44 1549.52 Q1744.63 1549.52 1741.55 1544.94 Q1738.49 1540.33 1738.49 1531.6 Q1738.49 1522.85 1741.55 1518.27 Q1744.63 1513.66 1750.44 1513.66 Z" fill="#000000" fill-rule="nonzero" fill-opacity="1" /><path clip-path="url(#clip510)" d="M1770.6 1542.97 L1775.48 1542.97 L1775.48 1548.85 L1770.6 1548.85 L1770.6 1542.97 Z" fill="#000000" fill-rule="nonzero" fill-opacity="1" /><path clip-path="url(#clip510)" d="M1785.71 1514.29 L1804.07 1514.29 L1804.07 1518.22 L1790 1518.22 L1790 1526.7 Q1791.01 1526.35 1792.03 1526.19 Q1793.05 1526 1794.07 1526 Q1799.86 1526 1803.24 1529.17 Q1806.62 1532.34 1806.62 1537.76 Q1806.62 1543.34 1803.14 1546.44 Q1799.67 1549.52 1793.35 1549.52 Q1791.18 1549.52 1788.91 1549.15 Q1786.66 1548.78 1784.25 1548.04 L1784.25 1543.34 Q1786.34 1544.47 1788.56 1545.03 Q1790.78 1545.58 1793.26 1545.58 Q1797.26 1545.58 1799.6 1543.48 Q1801.94 1541.37 1801.94 1537.76 Q1801.94 1534.15 1799.6 1532.04 Q1797.26 1529.94 1793.26 1529.94 Q1791.38 1529.94 1789.51 1530.35 Q1787.66 1530.77 1785.71 1531.65 L1785.71 1514.29 Z" fill="#000000" fill-rule="nonzero" fill-opacity="1" /><path clip-path="url(#clip510)" d="M2257.74 1544.91 L2265.38 1544.91 L2265.38 1518.55 L2257.07 1520.21 L2257.07 1515.95 L2265.34 1514.29 L2270.01 1514.29 L2270.01 1544.91 L2277.65 1544.91 L2277.65 1548.85 L2257.74 1548.85 L2257.74 1544.91 Z" fill="#000000" fill-rule="nonzero" fill-opacity="1" /><path clip-path="url(#clip510)" d="M2287.1 1542.97 L2291.98 1542.97 L2291.98 1548.85 L2287.1 1548.85 L2287.1 1542.97 Z" fill="#000000" fill-rule="nonzero" fill-opacity="1" /><path clip-path="url(#clip510)" d="M2312.17 1517.37 Q2308.55 1517.37 2306.73 1520.93 Q2304.92 1524.47 2304.92 1531.6 Q2304.92 1538.71 2306.73 1542.27 Q2308.55 1545.82 2312.17 1545.82 Q2315.8 1545.82 2317.61 1542.27 Q2319.43 1538.71 2319.43 1531.6 Q2319.43 1524.47 2317.61 1520.93 Q2315.8 1517.37 2312.17 1517.37 M2312.17 1513.66 Q2317.98 1513.66 2321.03 1518.27 Q2324.11 1522.85 2324.11 1531.6 Q2324.11 1540.33 2321.03 1544.94 Q2317.98 1549.52 2312.17 1549.52 Q2306.36 1549.52 2303.28 1544.94 Q2300.22 1540.33 2300.22 1531.6 Q2300.22 1522.85 2303.28 1518.27 Q2306.36 1513.66 2312.17 1513.66 Z" fill="#000000" fill-rule="nonzero" fill-opacity="1" /><polyline clip-path="url(#clip512)" style="stroke:#000000; stroke-linecap:round; stroke-linejoin:round; stroke-width:2; stroke-opacity:0.1; fill:none" points="156.274,1223.6 2352.76,1223.6 "/>
<polyline clip-path="url(#clip512)" style="stroke:#000000; stroke-linecap:round; stroke-linejoin:round; stroke-width:2; stroke-opacity:0.1; fill:none" points="156.274,957.09 2352.76,957.09 "/>
<polyline clip-path="url(#clip512)" style="stroke:#000000; stroke-linecap:round; stroke-linejoin:round; stroke-width:2; stroke-opacity:0.1; fill:none" points="156.274,690.576 2352.76,690.576 "/>
<polyline clip-path="url(#clip512)" style="stroke:#000000; stroke-linecap:round; stroke-linejoin:round; stroke-width:2; stroke-opacity:0.1; fill:none" points="156.274,424.063 2352.76,424.063 "/>
<polyline clip-path="url(#clip512)" style="stroke:#000000; stroke-linecap:round; stroke-linejoin:round; stroke-width:2; stroke-opacity:0.1; fill:none" points="156.274,157.55 2352.76,157.55 "/>
<polyline clip-path="url(#clip510)" style="stroke:#000000; stroke-linecap:round; stroke-linejoin:round; stroke-width:4; stroke-opacity:1; fill:none" points="156.274,1486.45 156.274,47.2441 "/>
<polyline clip-path="url(#clip510)" style="stroke:#000000; stroke-linecap:round; stroke-linejoin:round; stroke-width:4; stroke-opacity:1; fill:none" points="156.274,1223.6 175.172,1223.6 "/>
<polyline clip-path="url(#clip510)" style="stroke:#000000; stroke-linecap:round; stroke-linejoin:round; stroke-width:4; stroke-opacity:1; fill:none" points="156.274,957.09 175.172,957.09 "/>
<polyline clip-path="url(#clip510)" style="stroke:#000000; stroke-linecap:round; stroke-linejoin:round; stroke-width:4; stroke-opacity:1; fill:none" points="156.274,690.576 175.172,690.576 "/>
<polyline clip-path="url(#clip510)" style="stroke:#000000; stroke-linecap:round; stroke-linejoin:round; stroke-width:4; stroke-opacity:1; fill:none" points="156.274,424.063 175.172,424.063 "/>
<polyline clip-path="url(#clip510)" style="stroke:#000000; stroke-linecap:round; stroke-linejoin:round; stroke-width:4; stroke-opacity:1; fill:none" points="156.274,157.55 175.172,157.55 "/>
<path clip-path="url(#clip510)" d="M63.0985 1209.4 Q59.4875 1209.4 57.6588 1212.97 Q55.8532 1216.51 55.8532 1223.64 Q55.8532 1230.74 57.6588 1234.31 Q59.4875 1237.85 63.0985 1237.85 Q66.7328 1237.85 68.5383 1234.31 Q70.367 1230.74 70.367 1223.64 Q70.367 1216.51 68.5383 1212.97 Q66.7328 1209.4 63.0985 1209.4 M63.0985 1205.7 Q68.9087 1205.7 71.9642 1210.3 Q75.0429 1214.89 75.0429 1223.64 Q75.0429 1232.36 71.9642 1236.97 Q68.9087 1241.55 63.0985 1241.55 Q57.2884 1241.55 54.2097 1236.97 Q51.1542 1232.36 51.1542 1223.64 Q51.1542 1214.89 54.2097 1210.3 Q57.2884 1205.7 63.0985 1205.7 Z" fill="#000000" fill-rule="nonzero" fill-opacity="1" /><path clip-path="url(#clip510)" d="M83.2605 1235 L88.1447 1235 L88.1447 1240.88 L83.2605 1240.88 L83.2605 1235 Z" fill="#000000" fill-rule="nonzero" fill-opacity="1" /><path clip-path="url(#clip510)" d="M108.33 1209.4 Q104.719 1209.4 102.89 1212.97 Q101.084 1216.51 101.084 1223.64 Q101.084 1230.74 102.89 1234.31 Q104.719 1237.85 108.33 1237.85 Q111.964 1237.85 113.77 1234.31 Q115.598 1230.74 115.598 1223.64 Q115.598 1216.51 113.77 1212.97 Q111.964 1209.4 108.33 1209.4 M108.33 1205.7 Q114.14 1205.7 117.195 1210.3 Q120.274 1214.89 120.274 1223.64 Q120.274 1232.36 117.195 1236.97 Q114.14 1241.55 108.33 1241.55 Q102.52 1241.55 99.4409 1236.97 Q96.3854 1232.36 96.3854 1223.64 Q96.3854 1214.89 99.4409 1210.3 Q102.52 1205.7 108.33 1205.7 Z" fill="#000000" fill-rule="nonzero" fill-opacity="1" /><path clip-path="url(#clip510)" d="M63.7467 942.888 Q60.1356 942.888 58.3069 946.453 Q56.5014 949.995 56.5014 957.124 Q56.5014 964.231 58.3069 967.796 Q60.1356 971.337 63.7467 971.337 Q67.3809 971.337 69.1865 967.796 Q71.0152 964.231 71.0152 957.124 Q71.0152 949.995 69.1865 946.453 Q67.3809 942.888 63.7467 942.888 M63.7467 939.185 Q69.5568 939.185 72.6124 943.791 Q75.6911 948.374 75.6911 957.124 Q75.6911 965.851 72.6124 970.458 Q69.5568 975.041 63.7467 975.041 Q57.9365 975.041 54.8578 970.458 Q51.8023 965.851 51.8023 957.124 Q51.8023 948.374 54.8578 943.791 Q57.9365 939.185 63.7467 939.185 Z" fill="#000000" fill-rule="nonzero" fill-opacity="1" /><path clip-path="url(#clip510)" d="M83.9086 968.49 L88.7928 968.49 L88.7928 974.37 L83.9086 974.37 L83.9086 968.49 Z" fill="#000000" fill-rule="nonzero" fill-opacity="1" /><path clip-path="url(#clip510)" d="M113.145 955.735 Q116.501 956.453 118.376 958.722 Q120.274 960.99 120.274 964.323 Q120.274 969.439 116.756 972.24 Q113.237 975.041 106.756 975.041 Q104.58 975.041 102.265 974.601 Q99.9733 974.184 97.5197 973.328 L97.5197 968.814 Q99.4641 969.948 101.779 970.527 Q104.094 971.106 106.617 971.106 Q111.015 971.106 113.307 969.37 Q115.621 967.634 115.621 964.323 Q115.621 961.268 113.469 959.555 Q111.339 957.819 107.52 957.819 L103.492 957.819 L103.492 953.976 L107.705 953.976 Q111.154 953.976 112.983 952.61 Q114.811 951.222 114.811 948.629 Q114.811 945.967 112.913 944.555 Q111.038 943.12 107.52 943.12 Q105.598 943.12 103.399 943.536 Q101.2 943.953 98.5613 944.833 L98.5613 940.666 Q101.223 939.925 103.538 939.555 Q105.876 939.185 107.936 939.185 Q113.26 939.185 116.362 941.615 Q119.464 944.023 119.464 948.143 Q119.464 951.013 117.82 953.004 Q116.177 954.972 113.145 955.735 Z" fill="#000000" fill-rule="nonzero" fill-opacity="1" /><path clip-path="url(#clip510)" d="M62.9365 676.375 Q59.3254 676.375 57.4967 679.94 Q55.6912 683.481 55.6912 690.611 Q55.6912 697.717 57.4967 701.282 Q59.3254 704.824 62.9365 704.824 Q66.5707 704.824 68.3763 701.282 Q70.205 697.717 70.205 690.611 Q70.205 683.481 68.3763 679.94 Q66.5707 676.375 62.9365 676.375 M62.9365 672.671 Q68.7467 672.671 71.8022 677.278 Q74.8809 681.861 74.8809 690.611 Q74.8809 699.338 71.8022 703.944 Q68.7467 708.528 62.9365 708.528 Q57.1264 708.528 54.0477 703.944 Q50.9921 699.338 50.9921 690.611 Q50.9921 681.861 54.0477 677.278 Q57.1264 672.671 62.9365 672.671 Z" fill="#000000" fill-rule="nonzero" fill-opacity="1" /><path clip-path="url(#clip510)" d="M83.0984 701.977 L87.9827 701.977 L87.9827 707.856 L83.0984 707.856 L83.0984 701.977 Z" fill="#000000" fill-rule="nonzero" fill-opacity="1" /><path clip-path="url(#clip510)" d="M108.746 688.713 Q105.598 688.713 103.746 690.866 Q101.918 693.018 101.918 696.768 Q101.918 700.495 103.746 702.671 Q105.598 704.824 108.746 704.824 Q111.895 704.824 113.723 702.671 Q115.575 700.495 115.575 696.768 Q115.575 693.018 113.723 690.866 Q111.895 688.713 108.746 688.713 M118.029 674.06 L118.029 678.319 Q116.27 677.486 114.464 677.046 Q112.682 676.606 110.922 676.606 Q106.293 676.606 103.839 679.731 Q101.409 682.856 101.061 689.176 Q102.427 687.162 104.487 686.097 Q106.547 685.009 109.024 685.009 Q114.233 685.009 117.242 688.18 Q120.274 691.329 120.274 696.768 Q120.274 702.092 117.126 705.31 Q113.978 708.528 108.746 708.528 Q102.751 708.528 99.5798 703.944 Q96.4085 699.338 96.4085 690.611 Q96.4085 682.417 100.297 677.555 Q104.186 672.671 110.737 672.671 Q112.496 672.671 114.279 673.018 Q116.084 673.366 118.029 674.06 Z" fill="#000000" fill-rule="nonzero" fill-opacity="1" /><path clip-path="url(#clip510)" d="M63.2837 409.862 Q59.6726 409.862 57.8439 413.426 Q56.0384 416.968 56.0384 424.098 Q56.0384 431.204 57.8439 434.769 Q59.6726 438.311 63.2837 438.311 Q66.918 438.311 68.7235 434.769 Q70.5522 431.204 70.5522 424.098 Q70.5522 416.968 68.7235 413.426 Q66.918 409.862 63.2837 409.862 M63.2837 406.158 Q69.0939 406.158 72.1494 410.764 Q75.2281 415.348 75.2281 424.098 Q75.2281 432.824 72.1494 437.431 Q69.0939 442.014 63.2837 442.014 Q57.4736 442.014 54.3949 437.431 Q51.3393 432.824 51.3393 424.098 Q51.3393 415.348 54.3949 410.764 Q57.4736 406.158 63.2837 406.158 Z" fill="#000000" fill-rule="nonzero" fill-opacity="1" /><path clip-path="url(#clip510)" d="M83.4457 435.463 L88.3299 435.463 L88.3299 441.343 L83.4457 441.343 L83.4457 435.463 Z" fill="#000000" fill-rule="nonzero" fill-opacity="1" /><path clip-path="url(#clip510)" d="M98.6539 440.625 L98.6539 436.366 Q100.413 437.199 102.219 437.639 Q104.024 438.079 105.76 438.079 Q110.39 438.079 112.82 434.977 Q115.274 431.852 115.621 425.51 Q114.279 427.5 112.219 428.565 Q110.158 429.63 107.658 429.63 Q102.473 429.63 99.4409 426.505 Q96.4317 423.357 96.4317 417.917 Q96.4317 412.593 99.5798 409.375 Q102.728 406.158 107.959 406.158 Q113.955 406.158 117.103 410.764 Q120.274 415.348 120.274 424.098 Q120.274 432.269 116.385 437.153 Q112.52 442.014 105.969 442.014 Q104.209 442.014 102.404 441.667 Q100.598 441.32 98.6539 440.625 M107.959 425.973 Q111.108 425.973 112.936 423.82 Q114.788 421.667 114.788 417.917 Q114.788 414.19 112.936 412.037 Q111.108 409.862 107.959 409.862 Q104.811 409.862 102.959 412.037 Q101.131 414.19 101.131 417.917 Q101.131 421.667 102.959 423.82 Q104.811 425.973 107.959 425.973 Z" fill="#000000" fill-rule="nonzero" fill-opacity="1" /><path clip-path="url(#clip510)" d="M55.506 170.894 L63.1448 170.894 L63.1448 144.529 L54.8347 146.195 L54.8347 141.936 L63.0985 140.27 L67.7744 140.27 L67.7744 170.894 L75.4133 170.894 L75.4133 174.83 L55.506 174.83 L55.506 170.894 Z" fill="#000000" fill-rule="nonzero" fill-opacity="1" /><path clip-path="url(#clip510)" d="M84.8577 168.95 L89.7419 168.95 L89.7419 174.83 L84.8577 174.83 L84.8577 168.95 Z" fill="#000000" fill-rule="nonzero" fill-opacity="1" /><path clip-path="url(#clip510)" d="M103.955 170.894 L120.274 170.894 L120.274 174.83 L98.3298 174.83 L98.3298 170.894 Q100.992 168.14 105.575 163.51 Q110.182 158.857 111.362 157.515 Q113.608 154.992 114.487 153.256 Q115.39 151.496 115.39 149.807 Q115.39 147.052 113.445 145.316 Q111.524 143.58 108.422 143.58 Q106.223 143.58 103.77 144.344 Q101.339 145.107 98.5613 146.658 L98.5613 141.936 Q101.385 140.802 103.839 140.223 Q106.293 139.645 108.33 139.645 Q113.7 139.645 116.895 142.33 Q120.089 145.015 120.089 149.506 Q120.089 151.635 119.279 153.556 Q118.492 155.455 116.385 158.047 Q115.807 158.719 112.705 161.936 Q109.603 165.131 103.955 170.894 Z" fill="#000000" fill-rule="nonzero" fill-opacity="1" /><polyline clip-path="url(#clip512)" style="stroke:#009af9; stroke-linecap:round; stroke-linejoin:round; stroke-width:16; stroke-opacity:1; fill:none" stroke-dasharray="8, 16" points="218.439,1089.83 228.852,1049 239.264,1030.13 249.677,1031.18 260.09,1044.54 270.503,1061.08 280.916,1074.46 291.329,1083.53 301.741,1091.88 312.154,1105.17 322.567,1127.76 332.98,1160.43 343.393,1200.01 353.805,1240.82 364.218,1277.17 374.631,1305.66 385.044,1326.43 395.457,1342.74 405.87,1358.66 416.282,1376.18 426.695,1393.55 437.108,1406.32 447.521,1409.95 457.934,1402.24 468.347,1384.1 478.759,1359.09 489.172,1331.94 499.585,1306.56 509.998,1284.05 520.411,1261.97 530.824,1235.94 541.236,1203.32 551.649,1165.96 562.062,1129.47 572.475,1099.47 582.888,1078.37 593.301,1065.04 603.713,1056.83 614.126,1051.81 624.539,1049.82 634.952,1052.1 645.365,1060.22 655.777,1074.96 666.19,1095.89 676.603,1121.59 687.016,1150.3 697.429,1180.52 707.842,1211.4 718.254,1242.55 728.667,1273.67 739.08,1304.01 749.493,1332.16 759.906,1356.34 770.319,1375.13 780.731,1388.18 791.144,1396.12 801.557,1399.61 811.97,1398.58 822.383,1392.22 832.796,1379.67 843.208,1360.73 853.621,1335.92 864.034,1306.54 874.447,1274.86 884.86,1243.7 895.273,1214.91 905.685,1188.04 916.098,1160.89 926.511,1131.79 936.924,1101.82 947.337,1074.72 957.749,1054.63 968.162,1043.79 978.575,1042 988.988,1047.47 999.401,1058.02 1009.81,1071.91 1020.23,1088.15 1030.64,1106.43 1041.05,1126.96 1051.46,1150.24 1061.88,1176.89 1072.29,1207.31 1082.7,1241.46 1093.12,1278.41 1103.53,1316 1113.94,1350.66 1124.35,1377.82 1134.77,1393.05 1145.18,1394.02 1155.59,1382.78 1166.01,1367.05 1176.42,1359.1 1186.83,1370.72 1197.24,1404.25 1207.66,1442.57 1218.07,1445.72 1228.48,1364.15 1238.9,1170.91 1249.31,893.965 1259.72,611.803 1270.13,402.154 1280.55,295.428 1290.96,274.823 1301.37,301.655 1311.79,337.647 1322.2,358.455 1332.61,357.591 1343.02,341.675 1353.44,322.167 1363.85,308.693 1374.26,305.993 1384.68,313.889 1395.09,328.884 1405.5,346.121 1415.91,360.96 1426.33,369.894 1436.74,370.899 1447.15,363.445 1457.57,348.426 1467.98,328.153 1478.39,306.412 1488.8,288.42 1499.22,280.278 1509.63,287.446 1520.04,312.01 1530.45,349.666 1540.87,388.886 1551.28,414.678 1561.69,415.991 1572.11,391.651 1582.52,350.212 1592.93,304.502 1603.34,265.977 1613.76,242.846 1624.17,241.389 1634.58,266.364 1645,317.154 1655.41,382.014 1665.82,438.429 1676.23,463.352 1686.65,445.676 1697.06,390.994 1707.47,317.798 1717.89,250.102 1728.3,209.596 1738.71,208.483 1749.12,245.329 1759.54,306.546 1769.95,372.75 1780.36,425.931 1790.78,453.932 1801.19,451.739 1811.6,420.93 1822.01,368.55 1832.43,305.824 1842.84,246.578 1853.25,205.141 1863.67,193.723 1874.08,219.415 1884.49,281.192 1894.9,367.699 1905.32,457.141 1915.73,520.824 1926.14,531.331 1936.56,474.484 1946.97,360.801 1957.38,228.344 1967.79,129.272 1978.21,103.331 1988.62,156.462 1999.03,261.661 2009.45,378.578 2019.86,473.392 2030.27,526.829 2040.68,532.102 2051.1,490.229 2061.51,407.915 2071.92,299.314 2082.33,189.334 2092.75,112.467 2103.16,101.019 2113.57,166.177 2123.99,287.602 2134.4,422.78 2144.81,527.969 2155.22,574.215 2165.64,552.217 2176.05,470.483 2186.46,351.79 2196.88,228.552 2207.29,135.511 2217.7,99.6906 2228.11,130.867 2238.53,217.673 2248.94,332.378 2259.35,442.242 2269.77,521.483 2280.18,558.463 2290.59,556.504 "/>
<polyline clip-path="url(#clip512)" style="stroke:#e26f46; stroke-linecap:round; stroke-linejoin:round; stroke-width:4; stroke-opacity:1; fill:none" points="218.439,1090.17 228.852,1071.24 239.264,1057.28 249.677,1048.75 260.09,1045.93 270.503,1048.9 280.916,1057.58 291.329,1071.68 301.741,1090.73 312.154,1114.12 322.567,1141.08 332.98,1170.74 343.393,1202.12 353.805,1234.21 364.218,1265.95 374.631,1296.3 385.044,1324.28 395.457,1348.98 405.87,1369.58 416.282,1385.42 426.695,1395.98 437.108,1400.92 447.521,1400.06 457.934,1393.45 468.347,1381.29 478.759,1363.99 489.172,1342.1 499.585,1316.35 509.998,1287.57 520.411,1256.7 530.824,1224.76 541.236,1192.77 551.649,1161.79 562.062,1132.83 572.475,1106.83 582.888,1084.64 593.301,1066.99 603.713,1054.45 614.126,1047.43 624.539,1046.16 634.952,1050.68 645.365,1060.84 655.777,1076.32 666.19,1096.6 676.603,1121.03 687.016,1148.81 697.429,1179.02 707.842,1210.7 718.254,1242.79 728.667,1274.26 739.08,1304.07 749.493,1331.26 759.906,1354.93 770.319,1374.32 780.731,1388.79 791.144,1397.87 801.557,1401.26 811.97,1398.85 822.383,1390.72 832.796,1377.14 843.208,1358.55 853.621,1335.55 864.034,1308.9 874.447,1279.47 884.86,1248.21 895.273,1216.15 905.685,1184.33 916.098,1153.79 926.511,1125.54 936.924,1100.48 947.337,1079.44 957.749,1063.11 968.162,1052.01 978.575,1046.52 988.988,1046.8 999.401,1052.86 1009.81,1064.49 1020.23,1081.31 1030.64,1102.77 1041.05,1128.18 1051.46,1156.7 1061.88,1187.41 1072.29,1219.3 1082.7,1251.33 1093.12,1282.45 1103.53,1311.65 1113.94,1337.98 1124.35,1360.58 1134.77,1378.7 1145.18,1391.77 1155.59,1399.34 1166.01,1401.18 1176.42,1397.23 1186.83,1387.6 1197.24,1372.63 1207.66,1352.79 1218.07,1328.73 1228.48,1301.25 1238.9,1271.23 1249.31,1239.65 1259.72,333.935 1270.13,332.467 1280.55,333.803 1290.96,338.251 1301.37,344.449 1311.79,349.777 1322.2,351.354 1332.61,347.255 1343.02,337.483 1353.44,324.309 1363.85,311.773 1374.26,304.449 1384.68,305.854 1395.09,317.028 1405.5,335.822 1415.91,357.211 1426.33,374.628 1436.74,381.975 1447.15,375.686 1457.57,356.172 1467.98,328.104 1478.39,299.339 1488.8,278.723 1499.22,273.382 1509.63,286.329 1520.04,315.173 1530.45,352.424 1540.87,387.417 1551.28,409.364 1561.69,410.664 1572.11,389.461 1582.52,350.603 1592.93,304.605 1603.34,264.817 1613.76,243.548 1624.17,248.277 1634.58,279.113 1645,328.341 1655.41,382.307 1665.82,425.204 1676.23,443.699 1686.65,431.051 1697.06,389.463 1707.47,329.856 1717.89,269.028 1728.3,224.923 1738.71,211.339 1749.12,233.644 1759.54,286.807 1769.95,356.451 1780.36,422.727 1790.78,465.966 1801.19,472.516 1811.6,439.012 1822.01,373.774 1832.43,294.79 1842.84,224.763 1853.25,184.59 1863.67,187.13 1874.08,233.133 1884.49,310.6 1894.9,397.878 1905.32,469.71 1915.73,504.541 1926.14,490.978 1936.56,431.457 1946.97,341.968 1957.38,247.777 1967.79,176.294 1978.21,149.103 1988.62,175.453 1999.03,249.194 2009.45,350.129 2019.86,449.54 2030.27,518.352 2040.68,535.636 2051.1,494.956 2061.51,406.639 2071.92,295.202 2082.33,192.55 2092.75,128.846 2103.16,123.65 2113.57,179.937 2123.99,282.819 2134.4,403.451 2144.81,507.115 2155.22,563.209 2165.64,554.278 2176.05,481.412 2186.46,364.357 2196.88,236.184 2207.29,133.948 2217.7,87.9763 2228.11,112.881 2238.53,202.956 2248.94,333.401 2259.35,467.136 2269.77,565.344 2280.18,598.727 2290.59,556.247 "/>
<path clip-path="url(#clip510)" d="M229.49 250.738 L675.966 250.738 L675.966 95.2176 L229.49 95.2176  Z" fill="#ffffff" fill-rule="evenodd" fill-opacity="1"/>
<polyline clip-path="url(#clip510)" style="stroke:#000000; stroke-linecap:round; stroke-linejoin:round; stroke-width:4; stroke-opacity:1; fill:none" points="229.49,250.738 675.966,250.738 675.966,95.2176 229.49,95.2176 229.49,250.738 "/>
<polyline clip-path="url(#clip510)" style="stroke:#009af9; stroke-linecap:round; stroke-linejoin:round; stroke-width:16; stroke-opacity:1; fill:none" stroke-dasharray="8, 16" points="253.896,147.058 400.328,147.058 "/>
<path clip-path="url(#clip510)" d="M429.409 133.62 L429.409 146.606 L435.289 146.606 Q438.552 146.606 440.335 144.916 Q442.117 143.227 442.117 140.102 Q442.117 137 440.335 135.31 Q438.552 133.62 435.289 133.62 L429.409 133.62 M424.733 129.778 L435.289 129.778 Q441.099 129.778 444.062 132.416 Q447.048 135.032 447.048 140.102 Q447.048 145.217 444.062 147.833 Q441.099 150.449 435.289 150.449 L429.409 150.449 L429.409 164.338 L424.733 164.338 L424.733 129.778 Z" fill="#000000" fill-rule="nonzero" fill-opacity="1" /><path clip-path="url(#clip510)" d="M467.325 142.393 Q466.608 141.977 465.751 141.791 Q464.918 141.583 463.899 141.583 Q460.288 141.583 458.344 143.944 Q456.423 146.282 456.423 150.68 L456.423 164.338 L452.14 164.338 L452.14 138.412 L456.423 138.412 L456.423 142.44 Q457.765 140.078 459.918 138.944 Q462.071 137.787 465.149 137.787 Q465.589 137.787 466.122 137.856 Q466.654 137.903 467.302 138.018 L467.325 142.393 Z" fill="#000000" fill-rule="nonzero" fill-opacity="1" /><path clip-path="url(#clip510)" d="M492.927 150.31 L492.927 152.393 L473.344 152.393 Q473.622 156.791 475.983 159.106 Q478.367 161.398 482.603 161.398 Q485.057 161.398 487.348 160.796 Q489.663 160.194 491.932 158.99 L491.932 163.018 Q489.64 163.99 487.233 164.5 Q484.825 165.009 482.348 165.009 Q476.145 165.009 472.511 161.398 Q468.899 157.787 468.899 151.629 Q468.899 145.264 472.325 141.537 Q475.774 137.787 481.608 137.787 Q486.839 137.787 489.872 141.166 Q492.927 144.523 492.927 150.31 M488.668 149.06 Q488.622 145.565 486.7 143.481 Q484.802 141.398 481.654 141.398 Q478.089 141.398 475.936 143.412 Q473.807 145.426 473.483 149.083 L488.668 149.06 Z" fill="#000000" fill-rule="nonzero" fill-opacity="1" /><path clip-path="url(#clip510)" d="M516.978 142.347 L516.978 128.319 L521.237 128.319 L521.237 164.338 L516.978 164.338 L516.978 160.449 Q515.635 162.763 513.575 163.898 Q511.538 165.009 508.668 165.009 Q503.969 165.009 501.006 161.259 Q498.066 157.509 498.066 151.398 Q498.066 145.287 501.006 141.537 Q503.969 137.787 508.668 137.787 Q511.538 137.787 513.575 138.921 Q515.635 140.032 516.978 142.347 M502.464 151.398 Q502.464 156.097 504.385 158.782 Q506.33 161.444 509.709 161.444 Q513.089 161.444 515.033 158.782 Q516.978 156.097 516.978 151.398 Q516.978 146.699 515.033 144.037 Q513.089 141.352 509.709 141.352 Q506.33 141.352 504.385 144.037 Q502.464 146.699 502.464 151.398 Z" fill="#000000" fill-rule="nonzero" fill-opacity="1" /><path clip-path="url(#clip510)" d="M530.01 138.412 L534.269 138.412 L534.269 164.338 L530.01 164.338 L530.01 138.412 M530.01 128.319 L534.269 128.319 L534.269 133.713 L530.01 133.713 L530.01 128.319 Z" fill="#000000" fill-rule="nonzero" fill-opacity="1" /><path clip-path="url(#clip510)" d="M561.839 139.407 L561.839 143.389 Q560.033 142.393 558.205 141.907 Q556.399 141.398 554.547 141.398 Q550.404 141.398 548.112 144.037 Q545.82 146.652 545.82 151.398 Q545.82 156.143 548.112 158.782 Q550.404 161.398 554.547 161.398 Q556.399 161.398 558.205 160.912 Q560.033 160.402 561.839 159.407 L561.839 163.342 Q560.056 164.176 558.135 164.592 Q556.237 165.009 554.084 165.009 Q548.228 165.009 544.779 161.328 Q541.33 157.648 541.33 151.398 Q541.33 145.055 544.802 141.421 Q548.297 137.787 554.362 137.787 Q556.33 137.787 558.205 138.203 Q560.08 138.597 561.839 139.407 Z" fill="#000000" fill-rule="nonzero" fill-opacity="1" /><path clip-path="url(#clip510)" d="M573.459 131.051 L573.459 138.412 L582.232 138.412 L582.232 141.722 L573.459 141.722 L573.459 155.796 Q573.459 158.967 574.316 159.87 Q575.195 160.773 577.857 160.773 L582.232 160.773 L582.232 164.338 L577.857 164.338 Q572.927 164.338 571.052 162.509 Q569.177 160.657 569.177 155.796 L569.177 141.722 L566.052 141.722 L566.052 138.412 L569.177 138.412 L569.177 131.051 L573.459 131.051 Z" fill="#000000" fill-rule="nonzero" fill-opacity="1" /><path clip-path="url(#clip510)" d="M587.834 138.412 L592.093 138.412 L592.093 164.338 L587.834 164.338 L587.834 138.412 M587.834 128.319 L592.093 128.319 L592.093 133.713 L587.834 133.713 L587.834 128.319 Z" fill="#000000" fill-rule="nonzero" fill-opacity="1" /><path clip-path="url(#clip510)" d="M611.051 141.398 Q607.626 141.398 605.635 144.083 Q603.644 146.745 603.644 151.398 Q603.644 156.051 605.612 158.736 Q607.602 161.398 611.051 161.398 Q614.454 161.398 616.445 158.713 Q618.436 156.027 618.436 151.398 Q618.436 146.791 616.445 144.106 Q614.454 141.398 611.051 141.398 M611.051 137.787 Q616.607 137.787 619.778 141.398 Q622.95 145.009 622.95 151.398 Q622.95 157.764 619.778 161.398 Q616.607 165.009 611.051 165.009 Q605.473 165.009 602.302 161.398 Q599.153 157.764 599.153 151.398 Q599.153 145.009 602.302 141.398 Q605.473 137.787 611.051 137.787 Z" fill="#000000" fill-rule="nonzero" fill-opacity="1" /><path clip-path="url(#clip510)" d="M651.561 148.689 L651.561 164.338 L647.301 164.338 L647.301 148.828 Q647.301 145.148 645.866 143.319 Q644.431 141.49 641.561 141.49 Q638.112 141.49 636.121 143.69 Q634.13 145.889 634.13 149.685 L634.13 164.338 L629.848 164.338 L629.848 138.412 L634.13 138.412 L634.13 142.44 Q635.658 140.102 637.718 138.944 Q639.801 137.787 642.51 137.787 Q646.977 137.787 649.269 140.565 Q651.561 143.319 651.561 148.689 Z" fill="#000000" fill-rule="nonzero" fill-opacity="1" /><polyline clip-path="url(#clip510)" style="stroke:#e26f46; stroke-linecap:round; stroke-linejoin:round; stroke-width:4; stroke-opacity:1; fill:none" points="253.896,198.898 400.328,198.898 "/>
<path clip-path="url(#clip510)" d="M424.733 181.618 L446.585 181.618 L446.585 185.553 L429.409 185.553 L429.409 195.784 L445.867 195.784 L445.867 199.719 L429.409 199.719 L429.409 212.242 L447.001 212.242 L447.001 216.178 L424.733 216.178 L424.733 181.618 Z" fill="#000000" fill-rule="nonzero" fill-opacity="1" /><path clip-path="url(#clip510)" d="M476.052 190.252 L466.677 202.867 L476.538 216.178 L471.515 216.178 L463.969 205.992 L456.423 216.178 L451.4 216.178 L461.469 202.613 L452.256 190.252 L457.279 190.252 L464.154 199.488 L471.029 190.252 L476.052 190.252 Z" fill="#000000" fill-rule="nonzero" fill-opacity="1" /><path clip-path="url(#clip510)" d="M494.339 203.145 Q489.177 203.145 487.186 204.326 Q485.196 205.506 485.196 208.354 Q485.196 210.622 486.677 211.965 Q488.182 213.284 490.751 213.284 Q494.293 213.284 496.422 210.784 Q498.575 208.261 498.575 204.094 L498.575 203.145 L494.339 203.145 M502.834 201.386 L502.834 216.178 L498.575 216.178 L498.575 212.242 Q497.117 214.603 494.941 215.738 Q492.765 216.849 489.617 216.849 Q485.635 216.849 483.274 214.627 Q480.936 212.381 480.936 208.631 Q480.936 204.256 483.853 202.034 Q486.793 199.812 492.603 199.812 L498.575 199.812 L498.575 199.395 Q498.575 196.455 496.631 194.858 Q494.71 193.238 491.214 193.238 Q488.992 193.238 486.885 193.77 Q484.779 194.303 482.835 195.367 L482.835 191.432 Q485.173 190.53 487.372 190.09 Q489.571 189.627 491.654 189.627 Q497.279 189.627 500.057 192.543 Q502.834 195.46 502.834 201.386 Z" fill="#000000" fill-rule="nonzero" fill-opacity="1" /><path clip-path="url(#clip510)" d="M530.265 191.247 L530.265 195.229 Q528.459 194.233 526.631 193.747 Q524.825 193.238 522.973 193.238 Q518.83 193.238 516.538 195.877 Q514.246 198.492 514.246 203.238 Q514.246 207.983 516.538 210.622 Q518.83 213.238 522.973 213.238 Q524.825 213.238 526.631 212.752 Q528.459 212.242 530.265 211.247 L530.265 215.182 Q528.482 216.016 526.561 216.432 Q524.663 216.849 522.51 216.849 Q516.654 216.849 513.205 213.168 Q509.756 209.488 509.756 203.238 Q509.756 196.895 513.228 193.261 Q516.723 189.627 522.788 189.627 Q524.756 189.627 526.631 190.043 Q528.506 190.437 530.265 191.247 Z" fill="#000000" fill-rule="nonzero" fill-opacity="1" /><path clip-path="url(#clip510)" d="M541.885 182.891 L541.885 190.252 L550.658 190.252 L550.658 193.562 L541.885 193.562 L541.885 207.636 Q541.885 210.807 542.742 211.71 Q543.621 212.613 546.283 212.613 L550.658 212.613 L550.658 216.178 L546.283 216.178 Q541.353 216.178 539.478 214.349 Q537.603 212.497 537.603 207.636 L537.603 193.562 L534.478 193.562 L534.478 190.252 L537.603 190.252 L537.603 182.891 L541.885 182.891 Z" fill="#000000" fill-rule="nonzero" fill-opacity="1" /></svg>
