<?xml version="1.0" encoding="utf-8"?>
<svg xmlns="http://www.w3.org/2000/svg" xmlns:xlink="http://www.w3.org/1999/xlink" width="600" height="400" viewBox="0 0 2400 1600">
<defs>
  <clipPath id="clip570">
    <rect x="0" y="0" width="2400" height="1600"/>
  </clipPath>
</defs>
<path clip-path="url(#clip570)" d="M0 1600 L2400 1600 L2400 0 L0 0  Z" fill="#ffffff" fill-rule="evenodd" fill-opacity="1"/>
<defs>
  <clipPath id="clip571">
    <rect x="480" y="0" width="1681" height="1600"/>
  </clipPath>
</defs>
<path clip-path="url(#clip570)" d="M192.339 1486.45 L2352.76 1486.45 L2352.76 47.2441 L192.339 47.2441  Z" fill="#ffffff" fill-rule="evenodd" fill-opacity="1"/>
<defs>
  <clipPath id="clip572">
    <rect x="192" y="47" width="2161" height="1440"/>
  </clipPath>
</defs>
<polyline clip-path="url(#clip572)" style="stroke:#000000; stroke-linecap:round; stroke-linejoin:round; stroke-width:2; stroke-opacity:0.1; fill:none" points="253.483,1486.45 253.483,47.2441 "/>
<polyline clip-path="url(#clip572)" style="stroke:#000000; stroke-linecap:round; stroke-linejoin:round; stroke-width:2; stroke-opacity:0.1; fill:none" points="763.015,1486.45 763.015,47.2441 "/>
<polyline clip-path="url(#clip572)" style="stroke:#000000; stroke-linecap:round; stroke-linejoin:round; stroke-width:2; stroke-opacity:0.1; fill:none" points="1272.55,1486.45 1272.55,47.2441 "/>
<polyline clip-path="url(#clip572)" style="stroke:#000000; stroke-linecap:round; stroke-linejoin:round; stroke-width:2; stroke-opacity:0.1; fill:none" points="1782.08,1486.45 1782.08,47.2441 "/>
<polyline clip-path="url(#clip572)" style="stroke:#000000; stroke-linecap:round; stroke-linejoin:round; stroke-width:2; stroke-opacity:0.1; fill:none" points="2291.61,1486.45 2291.61,47.2441 "/>
<polyline clip-path="url(#clip570)" style="stroke:#000000; stroke-linecap:round; stroke-linejoin:round; stroke-width:4; stroke-opacity:1; fill:none" points="192.339,1486.45 2352.76,1486.45 "/>
<polyline clip-path="url(#clip570)" style="stroke:#000000; stroke-linecap:round; stroke-linejoin:round; stroke-width:4; stroke-opacity:1; fill:none" points="253.483,1486.45 253.483,1467.55 "/>
<polyline clip-path="url(#clip570)" style="stroke:#000000; stroke-linecap:round; stroke-linejoin:round; stroke-width:4; stroke-opacity:1; fill:none" points="763.015,1486.45 763.015,1467.55 "/>
<polyline clip-path="url(#clip570)" style="stroke:#000000; stroke-linecap:round; stroke-linejoin:round; stroke-width:4; stroke-opacity:1; fill:none" points="1272.55,1486.45 1272.55,1467.55 "/>
<polyline clip-path="url(#clip570)" style="stroke:#000000; stroke-linecap:round; stroke-linejoin:round; stroke-width:4; stroke-opacity:1; fill:none" points="1782.08,1486.45 1782.08,1467.55 "/>
<polyline clip-path="url(#clip570)" style="stroke:#000000; stroke-linecap:round; stroke-linejoin:round; stroke-width:4; stroke-opacity:1; fill:none" points="2291.61,1486.45 2291.61,1467.55 "/>
<path clip-path="url(#clip570)" d="M200.011 1532.02 L229.686 1532.02 L229.686 1535.95 L200.011 1535.95 L200.011 1532.02 Z" fill="#000000" fill-rule="nonzero" fill-opacity="1" /><path clip-path="url(#clip570)" d="M240.589 1544.91 L248.228 1544.91 L248.228 1518.55 L239.918 1520.21 L239.918 1515.95 L248.182 1514.29 L252.858 1514.29 L252.858 1544.91 L260.497 1544.91 L260.497 1548.85 L240.589 1548.85 L240.589 1544.91 Z" fill="#000000" fill-rule="nonzero" fill-opacity="1" /><path clip-path="url(#clip570)" d="M269.941 1542.97 L274.825 1542.97 L274.825 1548.85 L269.941 1548.85 L269.941 1542.97 Z" fill="#000000" fill-rule="nonzero" fill-opacity="1" /><path clip-path="url(#clip570)" d="M295.01 1517.37 Q291.399 1517.37 289.57 1520.93 Q287.765 1524.47 287.765 1531.6 Q287.765 1538.71 289.57 1542.27 Q291.399 1545.82 295.01 1545.82 Q298.644 1545.82 300.45 1542.27 Q302.279 1538.71 302.279 1531.6 Q302.279 1524.47 300.45 1520.93 Q298.644 1517.37 295.01 1517.37 M295.01 1513.66 Q300.82 1513.66 303.876 1518.27 Q306.955 1522.85 306.955 1531.6 Q306.955 1540.33 303.876 1544.94 Q300.82 1549.52 295.01 1549.52 Q289.2 1549.52 286.121 1544.94 Q283.066 1540.33 283.066 1531.6 Q283.066 1522.85 286.121 1518.27 Q289.2 1513.66 295.01 1513.66 Z" fill="#000000" fill-rule="nonzero" fill-opacity="1" /><path clip-path="url(#clip570)" d="M710.041 1532.02 L739.717 1532.02 L739.717 1535.95 L710.041 1535.95 L710.041 1532.02 Z" fill="#000000" fill-rule="nonzero" fill-opacity="1" /><path clip-path="url(#clip570)" d="M759.809 1517.37 Q756.198 1517.37 754.369 1520.93 Q752.564 1524.47 752.564 1531.6 Q752.564 1538.71 754.369 1542.27 Q756.198 1545.82 759.809 1545.82 Q763.443 1545.82 765.249 1542.27 Q767.077 1538.71 767.077 1531.6 Q767.077 1524.47 765.249 1520.93 Q763.443 1517.37 759.809 1517.37 M759.809 1513.66 Q765.619 1513.66 768.675 1518.27 Q771.753 1522.85 771.753 1531.6 Q771.753 1540.33 768.675 1544.94 Q765.619 1549.52 759.809 1549.52 Q753.999 1549.52 750.92 1544.94 Q747.865 1540.33 747.865 1531.6 Q747.865 1522.85 750.92 1518.27 Q753.999 1513.66 759.809 1513.66 Z" fill="#000000" fill-rule="nonzero" fill-opacity="1" /><path clip-path="url(#clip570)" d="M779.971 1542.97 L784.855 1542.97 L784.855 1548.85 L779.971 1548.85 L779.971 1542.97 Z" fill="#000000" fill-rule="nonzero" fill-opacity="1" /><path clip-path="url(#clip570)" d="M795.087 1514.29 L813.443 1514.29 L813.443 1518.22 L799.369 1518.22 L799.369 1526.7 Q800.387 1526.35 801.406 1526.19 Q802.425 1526 803.443 1526 Q809.23 1526 812.61 1529.17 Q815.989 1532.34 815.989 1537.76 Q815.989 1543.34 812.517 1546.44 Q809.045 1549.52 802.725 1549.52 Q800.55 1549.52 798.281 1549.15 Q796.036 1548.78 793.628 1548.04 L793.628 1543.34 Q795.712 1544.47 797.934 1545.03 Q800.156 1545.58 802.633 1545.58 Q806.637 1545.58 808.975 1543.48 Q811.313 1541.37 811.313 1537.76 Q811.313 1534.15 808.975 1532.04 Q806.637 1529.94 802.633 1529.94 Q800.758 1529.94 798.883 1530.35 Q797.031 1530.77 795.087 1531.65 L795.087 1514.29 Z" fill="#000000" fill-rule="nonzero" fill-opacity="1" /><path clip-path="url(#clip570)" d="M1249.93 1517.37 Q1246.32 1517.37 1244.49 1520.93 Q1242.69 1524.47 1242.69 1531.6 Q1242.69 1538.71 1244.49 1542.27 Q1246.32 1545.82 1249.93 1545.82 Q1253.57 1545.82 1255.37 1542.27 Q1257.2 1538.71 1257.2 1531.6 Q1257.2 1524.47 1255.37 1520.93 Q1253.57 1517.37 1249.93 1517.37 M1249.93 1513.66 Q1255.74 1513.66 1258.8 1518.27 Q1261.88 1522.85 1261.88 1531.6 Q1261.88 1540.33 1258.8 1544.94 Q1255.74 1549.52 1249.93 1549.52 Q1244.12 1549.52 1241.04 1544.94 Q1237.99 1540.33 1237.99 1531.6 Q1237.99 1522.85 1241.04 1518.27 Q1244.12 1513.66 1249.93 1513.66 Z" fill="#000000" fill-rule="nonzero" fill-opacity="1" /><path clip-path="url(#clip570)" d="M1270.09 1542.97 L1274.98 1542.97 L1274.98 1548.85 L1270.09 1548.85 L1270.09 1542.97 Z" fill="#000000" fill-rule="nonzero" fill-opacity="1" /><path clip-path="url(#clip570)" d="M1295.16 1517.37 Q1291.55 1517.37 1289.72 1520.93 Q1287.92 1524.47 1287.92 1531.6 Q1287.92 1538.71 1289.72 1542.27 Q1291.55 1545.82 1295.16 1545.82 Q1298.8 1545.82 1300.6 1542.27 Q1302.43 1538.71 1302.43 1531.6 Q1302.43 1524.47 1300.6 1520.93 Q1298.8 1517.37 1295.16 1517.37 M1295.16 1513.66 Q1300.97 1513.66 1304.03 1518.27 Q1307.11 1522.85 1307.11 1531.6 Q1307.11 1540.33 1304.03 1544.94 Q1300.97 1549.52 1295.16 1549.52 Q1289.35 1549.52 1286.27 1544.94 Q1283.22 1540.33 1283.22 1531.6 Q1283.22 1522.85 1286.27 1518.27 Q1289.35 1513.66 1295.16 1513.66 Z" fill="#000000" fill-rule="nonzero" fill-opacity="1" /><path clip-path="url(#clip570)" d="M1759.96 1517.37 Q1756.35 1517.37 1754.52 1520.93 Q1752.72 1524.47 1752.72 1531.6 Q1752.72 1538.71 1754.52 1542.27 Q1756.35 1545.82 1759.96 1545.82 Q1763.6 1545.82 1765.4 1542.27 Q1767.23 1538.71 1767.23 1531.6 Q1767.23 1524.47 1765.4 1520.93 Q1763.6 1517.37 1759.96 1517.37 M1759.96 1513.66 Q1765.77 1513.66 1768.83 1518.27 Q1771.91 1522.85 1771.91 1531.6 Q1771.91 1540.33 1768.83 1544.94 Q1765.77 1549.52 1759.96 1549.52 Q1754.15 1549.52 1751.07 1544.94 Q1748.02 1540.33 1748.02 1531.6 Q1748.02 1522.85 1751.07 1518.27 Q1754.15 1513.66 1759.96 1513.66 Z" fill="#000000" fill-rule="nonzero" fill-opacity="1" /><path clip-path="url(#clip570)" d="M1780.12 1542.97 L1785.01 1542.97 L1785.01 1548.85 L1780.12 1548.85 L1780.12 1542.97 Z" fill="#000000" fill-rule="nonzero" fill-opacity="1" /><path clip-path="url(#clip570)" d="M1795.24 1514.29 L1813.6 1514.29 L1813.6 1518.22 L1799.52 1518.22 L1799.52 1526.7 Q1800.54 1526.35 1801.56 1526.19 Q1802.58 1526 1803.6 1526 Q1809.38 1526 1812.76 1529.17 Q1816.14 1532.34 1816.14 1537.76 Q1816.14 1543.34 1812.67 1546.44 Q1809.2 1549.52 1802.88 1549.52 Q1800.7 1549.52 1798.43 1549.15 Q1796.19 1548.78 1793.78 1548.04 L1793.78 1543.34 Q1795.86 1544.47 1798.09 1545.03 Q1800.31 1545.58 1802.79 1545.58 Q1806.79 1545.58 1809.13 1543.48 Q1811.47 1541.37 1811.47 1537.76 Q1811.47 1534.15 1809.13 1532.04 Q1806.79 1529.94 1802.79 1529.94 Q1800.91 1529.94 1799.04 1530.35 Q1797.18 1530.77 1795.24 1531.65 L1795.24 1514.29 Z" fill="#000000" fill-rule="nonzero" fill-opacity="1" /><path clip-path="url(#clip570)" d="M2258.76 1544.91 L2266.4 1544.91 L2266.4 1518.55 L2258.09 1520.21 L2258.09 1515.95 L2266.36 1514.29 L2271.03 1514.29 L2271.03 1544.91 L2278.67 1544.91 L2278.67 1548.85 L2258.76 1548.85 L2258.76 1544.91 Z" fill="#000000" fill-rule="nonzero" fill-opacity="1" /><path clip-path="url(#clip570)" d="M2288.12 1542.97 L2293 1542.97 L2293 1548.85 L2288.12 1548.85 L2288.12 1542.97 Z" fill="#000000" fill-rule="nonzero" fill-opacity="1" /><path clip-path="url(#clip570)" d="M2313.19 1517.37 Q2309.57 1517.37 2307.75 1520.93 Q2305.94 1524.47 2305.94 1531.6 Q2305.94 1538.71 2307.75 1542.27 Q2309.57 1545.82 2313.19 1545.82 Q2316.82 1545.82 2318.63 1542.27 Q2320.45 1538.71 2320.45 1531.6 Q2320.45 1524.47 2318.63 1520.93 Q2316.82 1517.37 2313.19 1517.37 M2313.19 1513.66 Q2319 1513.66 2322.05 1518.27 Q2325.13 1522.85 2325.13 1531.6 Q2325.13 1540.33 2322.05 1544.94 Q2319 1549.52 2313.19 1549.52 Q2307.38 1549.52 2304.3 1544.94 Q2301.24 1540.33 2301.24 1531.6 Q2301.24 1522.85 2304.3 1518.27 Q2307.38 1513.66 2313.19 1513.66 Z" fill="#000000" fill-rule="nonzero" fill-opacity="1" /><polyline clip-path="url(#clip572)" style="stroke:#000000; stroke-linecap:round; stroke-linejoin:round; stroke-width:2; stroke-opacity:0.1; fill:none" points="192.339,1378.59 2352.76,1378.59 "/>
<polyline clip-path="url(#clip572)" style="stroke:#000000; stroke-linecap:round; stroke-linejoin:round; stroke-width:2; stroke-opacity:0.1; fill:none" points="192.339,1203.98 2352.76,1203.98 "/>
<polyline clip-path="url(#clip572)" style="stroke:#000000; stroke-linecap:round; stroke-linejoin:round; stroke-width:2; stroke-opacity:0.1; fill:none" points="192.339,1029.38 2352.76,1029.38 "/>
<polyline clip-path="url(#clip572)" style="stroke:#000000; stroke-linecap:round; stroke-linejoin:round; stroke-width:2; stroke-opacity:0.1; fill:none" points="192.339,854.772 2352.76,854.772 "/>
<polyline clip-path="url(#clip572)" style="stroke:#000000; stroke-linecap:round; stroke-linejoin:round; stroke-width:2; stroke-opacity:0.1; fill:none" points="192.339,680.166 2352.76,680.166 "/>
<polyline clip-path="url(#clip572)" style="stroke:#000000; stroke-linecap:round; stroke-linejoin:round; stroke-width:2; stroke-opacity:0.1; fill:none" points="192.339,505.56 2352.76,505.56 "/>
<polyline clip-path="url(#clip572)" style="stroke:#000000; stroke-linecap:round; stroke-linejoin:round; stroke-width:2; stroke-opacity:0.1; fill:none" points="192.339,330.954 2352.76,330.954 "/>
<polyline clip-path="url(#clip572)" style="stroke:#000000; stroke-linecap:round; stroke-linejoin:round; stroke-width:2; stroke-opacity:0.1; fill:none" points="192.339,156.348 2352.76,156.348 "/>
<polyline clip-path="url(#clip570)" style="stroke:#000000; stroke-linecap:round; stroke-linejoin:round; stroke-width:4; stroke-opacity:1; fill:none" points="192.339,1486.45 192.339,47.2441 "/>
<polyline clip-path="url(#clip570)" style="stroke:#000000; stroke-linecap:round; stroke-linejoin:round; stroke-width:4; stroke-opacity:1; fill:none" points="192.339,1378.59 211.236,1378.59 "/>
<polyline clip-path="url(#clip570)" style="stroke:#000000; stroke-linecap:round; stroke-linejoin:round; stroke-width:4; stroke-opacity:1; fill:none" points="192.339,1203.98 211.236,1203.98 "/>
<polyline clip-path="url(#clip570)" style="stroke:#000000; stroke-linecap:round; stroke-linejoin:round; stroke-width:4; stroke-opacity:1; fill:none" points="192.339,1029.38 211.236,1029.38 "/>
<polyline clip-path="url(#clip570)" style="stroke:#000000; stroke-linecap:round; stroke-linejoin:round; stroke-width:4; stroke-opacity:1; fill:none" points="192.339,854.772 211.236,854.772 "/>
<polyline clip-path="url(#clip570)" style="stroke:#000000; stroke-linecap:round; stroke-linejoin:round; stroke-width:4; stroke-opacity:1; fill:none" points="192.339,680.166 211.236,680.166 "/>
<polyline clip-path="url(#clip570)" style="stroke:#000000; stroke-linecap:round; stroke-linejoin:round; stroke-width:4; stroke-opacity:1; fill:none" points="192.339,505.56 211.236,505.56 "/>
<polyline clip-path="url(#clip570)" style="stroke:#000000; stroke-linecap:round; stroke-linejoin:round; stroke-width:4; stroke-opacity:1; fill:none" points="192.339,330.954 211.236,330.954 "/>
<polyline clip-path="url(#clip570)" style="stroke:#000000; stroke-linecap:round; stroke-linejoin:round; stroke-width:4; stroke-opacity:1; fill:none" points="192.339,156.348 211.236,156.348 "/>
<path clip-path="url(#clip570)" d="M50.9921 1379.04 L80.6679 1379.04 L80.6679 1382.98 L50.9921 1382.98 L50.9921 1379.04 Z" fill="#000000" fill-rule="nonzero" fill-opacity="1" /><path clip-path="url(#clip570)" d="M100.76 1364.39 Q97.1493 1364.39 95.3206 1367.95 Q93.515 1371.5 93.515 1378.63 Q93.515 1385.73 95.3206 1389.3 Q97.1493 1392.84 100.76 1392.84 Q104.395 1392.84 106.2 1389.3 Q108.029 1385.73 108.029 1378.63 Q108.029 1371.5 106.2 1367.95 Q104.395 1364.39 100.76 1364.39 M100.76 1360.69 Q106.571 1360.69 109.626 1365.29 Q112.705 1369.88 112.705 1378.63 Q112.705 1387.35 109.626 1391.96 Q106.571 1396.54 100.76 1396.54 Q94.9502 1396.54 91.8715 1391.96 Q88.816 1387.35 88.816 1378.63 Q88.816 1369.88 91.8715 1365.29 Q94.9502 1360.69 100.76 1360.69 Z" fill="#000000" fill-rule="nonzero" fill-opacity="1" /><path clip-path="url(#clip570)" d="M120.922 1389.99 L125.807 1389.99 L125.807 1395.87 L120.922 1395.87 L120.922 1389.99 Z" fill="#000000" fill-rule="nonzero" fill-opacity="1" /><path clip-path="url(#clip570)" d="M140.019 1391.94 L156.339 1391.94 L156.339 1395.87 L134.394 1395.87 L134.394 1391.94 Q137.056 1389.18 141.64 1384.55 Q146.246 1379.9 147.427 1378.56 Q149.672 1376.03 150.552 1374.3 Q151.455 1372.54 151.455 1370.85 Q151.455 1368.09 149.51 1366.36 Q147.589 1364.62 144.487 1364.62 Q142.288 1364.62 139.834 1365.38 Q137.404 1366.15 134.626 1367.7 L134.626 1362.98 Q137.45 1361.84 139.904 1361.26 Q142.357 1360.69 144.394 1360.69 Q149.765 1360.69 152.959 1363.37 Q156.154 1366.06 156.154 1370.55 Q156.154 1372.68 155.343 1374.6 Q154.556 1376.5 152.45 1379.09 Q151.871 1379.76 148.769 1382.98 Q145.668 1386.17 140.019 1391.94 Z" fill="#000000" fill-rule="nonzero" fill-opacity="1" /><path clip-path="url(#clip570)" d="M99.1632 1189.78 Q95.5521 1189.78 93.7234 1193.35 Q91.9178 1196.89 91.9178 1204.02 Q91.9178 1211.13 93.7234 1214.69 Q95.5521 1218.23 99.1632 1218.23 Q102.797 1218.23 104.603 1214.69 Q106.432 1211.13 106.432 1204.02 Q106.432 1196.89 104.603 1193.35 Q102.797 1189.78 99.1632 1189.78 M99.1632 1186.08 Q104.973 1186.08 108.029 1190.69 Q111.108 1195.27 111.108 1204.02 Q111.108 1212.75 108.029 1217.35 Q104.973 1221.94 99.1632 1221.94 Q93.353 1221.94 90.2743 1217.35 Q87.2188 1212.75 87.2188 1204.02 Q87.2188 1195.27 90.2743 1190.69 Q93.353 1186.08 99.1632 1186.08 Z" fill="#000000" fill-rule="nonzero" fill-opacity="1" /><path clip-path="url(#clip570)" d="M119.325 1215.38 L124.209 1215.38 L124.209 1221.26 L119.325 1221.26 L119.325 1215.38 Z" fill="#000000" fill-rule="nonzero" fill-opacity="1" /><path clip-path="url(#clip570)" d="M144.394 1189.78 Q140.783 1189.78 138.955 1193.35 Q137.149 1196.89 137.149 1204.02 Q137.149 1211.13 138.955 1214.69 Q140.783 1218.23 144.394 1218.23 Q148.029 1218.23 149.834 1214.69 Q151.663 1211.13 151.663 1204.02 Q151.663 1196.89 149.834 1193.35 Q148.029 1189.78 144.394 1189.78 M144.394 1186.08 Q150.205 1186.08 153.26 1190.69 Q156.339 1195.27 156.339 1204.02 Q156.339 1212.75 153.26 1217.35 Q150.205 1221.94 144.394 1221.94 Q138.584 1221.94 135.506 1217.35 Q132.45 1212.75 132.45 1204.02 Q132.45 1195.27 135.506 1190.69 Q138.584 1186.08 144.394 1186.08 Z" fill="#000000" fill-rule="nonzero" fill-opacity="1" /><path clip-path="url(#clip570)" d="M100.76 1015.18 Q97.1493 1015.18 95.3206 1018.74 Q93.515 1022.28 93.515 1029.41 Q93.515 1036.52 95.3206 1040.08 Q97.1493 1043.63 100.76 1043.63 Q104.395 1043.63 106.2 1040.08 Q108.029 1036.52 108.029 1029.41 Q108.029 1022.28 106.2 1018.74 Q104.395 1015.18 100.76 1015.18 M100.76 1011.47 Q106.571 1011.47 109.626 1016.08 Q112.705 1020.66 112.705 1029.41 Q112.705 1038.14 109.626 1042.75 Q106.571 1047.33 100.76 1047.33 Q94.9502 1047.33 91.8715 1042.75 Q88.816 1038.14 88.816 1029.41 Q88.816 1020.66 91.8715 1016.08 Q94.9502 1011.47 100.76 1011.47 Z" fill="#000000" fill-rule="nonzero" fill-opacity="1" /><path clip-path="url(#clip570)" d="M120.922 1040.78 L125.807 1040.78 L125.807 1046.66 L120.922 1046.66 L120.922 1040.78 Z" fill="#000000" fill-rule="nonzero" fill-opacity="1" /><path clip-path="url(#clip570)" d="M140.019 1042.72 L156.339 1042.72 L156.339 1046.66 L134.394 1046.66 L134.394 1042.72 Q137.056 1039.97 141.64 1035.34 Q146.246 1030.69 147.427 1029.34 Q149.672 1026.82 150.552 1025.08 Q151.455 1023.32 151.455 1021.64 Q151.455 1018.88 149.51 1017.14 Q147.589 1015.41 144.487 1015.41 Q142.288 1015.41 139.834 1016.17 Q137.404 1016.94 134.626 1018.49 L134.626 1013.76 Q137.45 1012.63 139.904 1012.05 Q142.357 1011.47 144.394 1011.47 Q149.765 1011.47 152.959 1014.16 Q156.154 1016.84 156.154 1021.33 Q156.154 1023.46 155.343 1025.39 Q154.556 1027.28 152.45 1029.88 Q151.871 1030.55 148.769 1033.76 Q145.668 1036.96 140.019 1042.72 Z" fill="#000000" fill-rule="nonzero" fill-opacity="1" /><path clip-path="url(#clip570)" d="M98.6771 840.571 Q95.066 840.571 93.2373 844.136 Q91.4317 847.677 91.4317 854.807 Q91.4317 861.913 93.2373 865.478 Q95.066 869.02 98.6771 869.02 Q102.311 869.02 104.117 865.478 Q105.946 861.913 105.946 854.807 Q105.946 847.677 104.117 844.136 Q102.311 840.571 98.6771 840.571 M98.6771 836.867 Q104.487 836.867 107.543 841.474 Q110.621 846.057 110.621 854.807 Q110.621 863.534 107.543 868.14 Q104.487 872.723 98.6771 872.723 Q92.8669 872.723 89.7882 868.14 Q86.7327 863.534 86.7327 854.807 Q86.7327 846.057 89.7882 841.474 Q92.8669 836.867 98.6771 836.867 Z" fill="#000000" fill-rule="nonzero" fill-opacity="1" /><path clip-path="url(#clip570)" d="M118.839 866.172 L123.723 866.172 L123.723 872.052 L118.839 872.052 L118.839 866.172 Z" fill="#000000" fill-rule="nonzero" fill-opacity="1" /><path clip-path="url(#clip570)" d="M146.756 841.566 L134.95 860.015 L146.756 860.015 L146.756 841.566 M145.529 837.492 L151.408 837.492 L151.408 860.015 L156.339 860.015 L156.339 863.904 L151.408 863.904 L151.408 872.052 L146.756 872.052 L146.756 863.904 L131.154 863.904 L131.154 859.39 L145.529 837.492 Z" fill="#000000" fill-rule="nonzero" fill-opacity="1" /><path clip-path="url(#clip570)" d="M99.0011 665.965 Q95.39 665.965 93.5613 669.529 Q91.7558 673.071 91.7558 680.201 Q91.7558 687.307 93.5613 690.872 Q95.39 694.414 99.0011 694.414 Q102.635 694.414 104.441 690.872 Q106.27 687.307 106.27 680.201 Q106.27 673.071 104.441 669.529 Q102.635 665.965 99.0011 665.965 M99.0011 662.261 Q104.811 662.261 107.867 666.867 Q110.946 671.451 110.946 680.201 Q110.946 688.927 107.867 693.534 Q104.811 698.117 99.0011 698.117 Q93.191 698.117 90.1123 693.534 Q87.0567 688.927 87.0567 680.201 Q87.0567 671.451 90.1123 666.867 Q93.191 662.261 99.0011 662.261 Z" fill="#000000" fill-rule="nonzero" fill-opacity="1" /><path clip-path="url(#clip570)" d="M119.163 691.566 L124.047 691.566 L124.047 697.446 L119.163 697.446 L119.163 691.566 Z" fill="#000000" fill-rule="nonzero" fill-opacity="1" /><path clip-path="url(#clip570)" d="M144.811 678.303 Q141.663 678.303 139.811 680.455 Q137.982 682.608 137.982 686.358 Q137.982 690.085 139.811 692.261 Q141.663 694.414 144.811 694.414 Q147.959 694.414 149.788 692.261 Q151.64 690.085 151.64 686.358 Q151.64 682.608 149.788 680.455 Q147.959 678.303 144.811 678.303 M154.093 663.65 L154.093 667.909 Q152.334 667.076 150.529 666.636 Q148.746 666.196 146.987 666.196 Q142.357 666.196 139.904 669.321 Q137.473 672.446 137.126 678.765 Q138.492 676.752 140.552 675.687 Q142.612 674.599 145.089 674.599 Q150.297 674.599 153.306 677.77 Q156.339 680.918 156.339 686.358 Q156.339 691.682 153.191 694.9 Q150.043 698.117 144.811 698.117 Q138.816 698.117 135.644 693.534 Q132.473 688.927 132.473 680.201 Q132.473 672.006 136.362 667.145 Q140.251 662.261 146.802 662.261 Q148.561 662.261 150.343 662.608 Q152.149 662.955 154.093 663.65 Z" fill="#000000" fill-rule="nonzero" fill-opacity="1" /><path clip-path="url(#clip570)" d="M99.2558 491.359 Q95.6447 491.359 93.816 494.923 Q92.0104 498.465 92.0104 505.595 Q92.0104 512.701 93.816 516.266 Q95.6447 519.807 99.2558 519.807 Q102.89 519.807 104.696 516.266 Q106.524 512.701 106.524 505.595 Q106.524 498.465 104.696 494.923 Q102.89 491.359 99.2558 491.359 M99.2558 487.655 Q105.066 487.655 108.121 492.261 Q111.2 496.845 111.2 505.595 Q111.2 514.321 108.121 518.928 Q105.066 523.511 99.2558 523.511 Q93.4456 523.511 90.3669 518.928 Q87.3114 514.321 87.3114 505.595 Q87.3114 496.845 90.3669 492.261 Q93.4456 487.655 99.2558 487.655 Z" fill="#000000" fill-rule="nonzero" fill-opacity="1" /><path clip-path="url(#clip570)" d="M119.418 516.96 L124.302 516.96 L124.302 522.84 L119.418 522.84 L119.418 516.96 Z" fill="#000000" fill-rule="nonzero" fill-opacity="1" /><path clip-path="url(#clip570)" d="M144.487 506.428 Q141.154 506.428 139.232 508.21 Q137.334 509.993 137.334 513.118 Q137.334 516.243 139.232 518.025 Q141.154 519.807 144.487 519.807 Q147.82 519.807 149.742 518.025 Q151.663 516.219 151.663 513.118 Q151.663 509.993 149.742 508.21 Q147.843 506.428 144.487 506.428 M139.811 504.437 Q136.802 503.696 135.112 501.636 Q133.445 499.576 133.445 496.613 Q133.445 492.47 136.385 490.062 Q139.348 487.655 144.487 487.655 Q149.649 487.655 152.589 490.062 Q155.529 492.47 155.529 496.613 Q155.529 499.576 153.839 501.636 Q152.172 503.696 149.186 504.437 Q152.566 505.224 154.441 507.516 Q156.339 509.807 156.339 513.118 Q156.339 518.141 153.26 520.826 Q150.205 523.511 144.487 523.511 Q138.769 523.511 135.691 520.826 Q132.635 518.141 132.635 513.118 Q132.635 509.807 134.533 507.516 Q136.431 505.224 139.811 504.437 M138.098 497.053 Q138.098 499.738 139.765 501.243 Q141.455 502.747 144.487 502.747 Q147.496 502.747 149.186 501.243 Q150.899 499.738 150.899 497.053 Q150.899 494.368 149.186 492.863 Q147.496 491.359 144.487 491.359 Q141.455 491.359 139.765 492.863 Q138.098 494.368 138.098 497.053 Z" fill="#000000" fill-rule="nonzero" fill-opacity="1" /><path clip-path="url(#clip570)" d="M89.9734 344.299 L97.6122 344.299 L97.6122 317.933 L89.3021 319.6 L89.3021 315.34 L97.566 313.674 L102.242 313.674 L102.242 344.299 L109.881 344.299 L109.881 348.234 L89.9734 348.234 L89.9734 344.299 Z" fill="#000000" fill-rule="nonzero" fill-opacity="1" /><path clip-path="url(#clip570)" d="M119.325 342.354 L124.209 342.354 L124.209 348.234 L119.325 348.234 L119.325 342.354 Z" fill="#000000" fill-rule="nonzero" fill-opacity="1" /><path clip-path="url(#clip570)" d="M144.394 316.752 Q140.783 316.752 138.955 320.317 Q137.149 323.859 137.149 330.988 Q137.149 338.095 138.955 341.66 Q140.783 345.201 144.394 345.201 Q148.029 345.201 149.834 341.66 Q151.663 338.095 151.663 330.988 Q151.663 323.859 149.834 320.317 Q148.029 316.752 144.394 316.752 M144.394 313.049 Q150.205 313.049 153.26 317.655 Q156.339 322.238 156.339 330.988 Q156.339 339.715 153.26 344.322 Q150.205 348.905 144.394 348.905 Q138.584 348.905 135.506 344.322 Q132.45 339.715 132.45 330.988 Q132.45 322.238 135.506 317.655 Q138.584 313.049 144.394 313.049 Z" fill="#000000" fill-rule="nonzero" fill-opacity="1" /><path clip-path="url(#clip570)" d="M91.5706 169.692 L99.2095 169.692 L99.2095 143.327 L90.8993 144.993 L90.8993 140.734 L99.1632 139.068 L103.839 139.068 L103.839 169.692 L111.478 169.692 L111.478 173.628 L91.5706 173.628 L91.5706 169.692 Z" fill="#000000" fill-rule="nonzero" fill-opacity="1" /><path clip-path="url(#clip570)" d="M120.922 167.748 L125.807 167.748 L125.807 173.628 L120.922 173.628 L120.922 167.748 Z" fill="#000000" fill-rule="nonzero" fill-opacity="1" /><path clip-path="url(#clip570)" d="M140.019 169.692 L156.339 169.692 L156.339 173.628 L134.394 173.628 L134.394 169.692 Q137.056 166.938 141.64 162.308 Q146.246 157.655 147.427 156.313 Q149.672 153.79 150.552 152.054 Q151.455 150.294 151.455 148.605 Q151.455 145.85 149.51 144.114 Q147.589 142.378 144.487 142.378 Q142.288 142.378 139.834 143.142 Q137.404 143.906 134.626 145.456 L134.626 140.734 Q137.45 139.6 139.904 139.021 Q142.357 138.443 144.394 138.443 Q149.765 138.443 152.959 141.128 Q156.154 143.813 156.154 148.304 Q156.154 150.433 155.343 152.355 Q154.556 154.253 152.45 156.845 Q151.871 157.517 148.769 160.734 Q145.668 163.929 140.019 169.692 Z" fill="#000000" fill-rule="nonzero" fill-opacity="1" /><polyline clip-path="url(#clip572)" style="stroke:#009af9; stroke-linecap:round; stroke-linejoin:round; stroke-width:16; stroke-opacity:1; fill:none" stroke-dasharray="8, 16" points="253.483,1078.75 263.725,1079.11 273.966,1072.52 284.208,1057.78 294.45,1039.35 304.692,1026.89 314.934,1029.33 325.176,1048.45 335.418,1078.38 345.659,1111.23 355.901,1141.6 366.143,1167.64 376.385,1190.83 386.627,1214.89 396.869,1242.67 407.111,1273.45 417.352,1303.78 427.594,1330.49 437.836,1351.93 448.078,1367.53 458.32,1377.42 468.562,1381.93 478.803,1381.35 489.045,1375.84 499.287,1365.44 509.529,1350.08 519.771,1329.86 530.013,1305.27 540.255,1277.3 550.497,1247.15 560.738,1215.76 570.98,1183.77 581.222,1151.99 591.464,1121.73 601.706,1094.55 611.948,1071.58 622.19,1053.12 632.431,1039.15 642.673,1030.23 652.915,1027.73 663.157,1032.52 673.399,1043.9 683.641,1060.26 693.882,1080.3 704.124,1103.37 714.366,1129.27 724.608,1157.81 734.85,1188.59 745.092,1220.77 755.334,1253.01 765.575,1283.57 775.817,1310.71 786.059,1333.1 796.301,1350.29 806.543,1362.59 816.785,1370.64 827.027,1375.02 837.268,1376.47 847.51,1374.98 857.752,1367.24 867.994,1348.08 878.236,1317.22 888.478,1280.99 898.72,1247.36 908.961,1221.19 919.203,1202.14 929.445,1184.34 939.687,1160.28 949.929,1127.41 960.171,1090.22 970.413,1055.34 980.654,1028.01 990.896,1019.42 1001.14,1035.19 1011.38,1055.55 1021.62,1056.89 1031.86,1050.27 1042.11,1066.03 1052.35,1150.09 1062.59,1300.78 1072.83,1335.86 1083.07,1218.66 1093.31,1095.57 1103.56,1153.27 1113.8,1234.55 1124.04,1289.37 1134.28,1338.27 1144.52,1403.17 1154.77,1445.72 1165.01,1408.44 1175.25,1317.71 1185.49,1311.56 1195.73,1357.62 1205.98,1370.64 1216.22,1373.79 1226.46,1377.61 1236.7,1364.97 1246.94,1313.11 1257.18,1197.59 1267.43,941.014 1277.67,577.153 1287.91,371.806 1298.15,313.177 1308.39,279.917 1318.64,276.777 1328.88,326.773 1339.12,364.481 1349.36,377.398 1359.6,361.157 1369.84,332.264 1380.09,308.811 1390.33,275.686 1400.57,238.676 1410.81,277.733 1421.05,344.147 1431.3,386.578 1441.54,391.757 1451.78,373.635 1462.02,376.44 1472.26,416.714 1482.51,430.087 1492.75,370.214 1502.99,262.707 1513.23,174.19 1523.47,180.427 1533.71,255.073 1543.96,347.575 1554.2,427.054 1564.44,441.416 1574.68,406.122 1584.92,380.302 1595.17,366.263 1605.41,341.309 1615.65,296.964 1625.89,240.493 1636.13,199.011 1646.38,220.711 1656.62,297.766 1666.86,379.752 1677.1,433.938 1687.34,450.052 1697.58,431.012 1707.83,386.407 1718.07,329.009 1728.31,272.859 1738.55,231.57 1748.79,216.017 1759.04,231.966 1769.28,278.803 1779.52,348.225 1789.76,422.051 1800,475.251 1810.24,486.881 1820.49,450.188 1830.73,375.471 1840.97,286.415 1851.21,211.877 1861.45,175.747 1871.7,188.504 1881.94,244.643 1892.18,327.266 1902.42,413.123 1912.66,474.648 1922.91,490.388 1933.15,461.637 1943.39,403.82 1953.63,327.136 1963.87,235.002 1974.11,141.408 1984.36,103.292 1994.6,168.332 2004.84,282.377 2015.08,392.764 2025.32,479.759 2035.57,528.18 2045.81,526.397 2056.05,472.404 2066.29,378.834 2076.53,274.642 2086.77,194.74 2097.02,158.925 2107.26,165.854 2117.5,210.883 2127.74,294.823 2137.98,402.124 2148.23,498.416 2158.47,554.679 2168.71,552.499 2178.95,483.873 2189.19,359.179 2199.44,220.786 2209.68,139.425 2219.92,146.459 2230.16,205.802 2240.4,277.208 2250.64,344.889 2260.89,406.846 2271.13,464.037 2281.37,516.274 2291.61,562.201 "/>
<polyline clip-path="url(#clip572)" style="stroke:#e26f46; stroke-linecap:round; stroke-linejoin:round; stroke-width:4; stroke-opacity:1; fill:none" points="253.483,1072.86 263.725,1054.25 273.966,1040.54 284.208,1032.15 294.45,1029.38 304.692,1032.3 314.934,1040.83 325.176,1054.68 335.418,1073.41 345.659,1096.39 355.901,1122.89 366.143,1152.04 376.385,1182.88 386.627,1214.41 396.869,1245.59 407.111,1275.43 417.352,1302.92 427.594,1327.2 437.836,1347.44 448.078,1363.01 458.32,1373.39 468.562,1378.23 478.803,1377.4 489.045,1370.9 499.287,1358.95 509.529,1341.95 519.771,1320.44 530.013,1295.13 540.255,1266.85 550.497,1236.51 560.738,1205.12 570.98,1173.69 581.222,1143.24 591.464,1114.78 601.706,1089.23 611.948,1067.42 622.19,1050.08 632.431,1037.75 642.673,1030.85 652.915,1029.6 663.157,1034.05 673.399,1044.04 683.641,1059.24 693.882,1079.18 704.124,1103.18 714.366,1130.48 724.608,1160.17 734.85,1191.3 745.092,1222.84 755.334,1253.76 765.575,1283.06 775.817,1309.78 786.059,1333.05 796.301,1352.1 806.543,1366.32 816.785,1375.24 827.027,1378.57 837.268,1376.2 847.51,1368.22 857.752,1354.87 867.994,1336.6 878.236,1314 888.478,1287.81 898.72,1258.88 908.961,1228.16 919.203,1196.66 929.445,1165.39 939.687,1135.38 949.929,1107.61 960.171,1082.99 970.413,1062.31 980.654,1046.26 990.896,1035.36 1001.14,1029.96 1011.38,1030.24 1021.62,1036.19 1031.86,1047.62 1042.11,1064.15 1052.35,1085.24 1062.59,1110.21 1072.83,1138.24 1083.07,1168.42 1093.31,1199.75 1103.56,1231.23 1113.8,1261.81 1124.04,1290.51 1134.28,1316.39 1144.52,1338.59 1154.77,1356.4 1165.01,1369.24 1175.25,1376.69 1185.49,1378.49 1195.73,1374.61 1205.98,1365.15 1216.22,1350.43 1226.46,1330.94 1236.7,1307.3 1246.94,1280.29 1257.18,1250.79 1267.43,1219.76 1277.67,329.686 1287.91,328.243 1298.15,329.556 1308.39,333.928 1318.64,340.018 1328.88,345.254 1339.12,346.804 1349.36,342.776 1359.6,333.172 1369.84,320.226 1380.09,307.906 1390.33,300.709 1400.57,302.09 1410.81,313.071 1421.05,331.54 1431.3,352.56 1441.54,369.676 1451.78,376.896 1462.02,370.716 1472.26,351.539 1482.51,323.956 1492.75,295.687 1502.99,275.427 1513.23,270.179 1523.47,282.902 1533.71,311.248 1543.96,347.856 1554.2,382.244 1564.44,403.812 1574.68,405.089 1584.92,384.253 1595.17,346.066 1605.41,300.863 1615.65,261.762 1625.89,240.86 1636.13,245.508 1646.38,275.811 1656.62,324.188 1666.86,377.222 1677.1,419.378 1687.34,437.553 1697.58,425.124 1707.83,384.255 1718.07,325.677 1728.31,265.9 1738.55,222.557 1748.79,209.208 1759.04,231.127 1769.28,283.372 1779.52,351.813 1789.76,416.944 1800,459.436 1810.24,465.872 1820.49,432.947 1830.73,368.837 1840.97,291.217 1851.21,222.4 1861.45,182.921 1871.7,185.417 1881.94,230.625 1892.18,306.754 1902.42,392.524 1912.66,463.115 1922.91,497.345 1933.15,484.015 1943.39,425.523 1953.63,337.58 1963.87,245.016 1974.11,174.768 1984.36,148.047 1994.6,173.942 2004.84,246.408 2015.08,345.6 2025.32,443.294 2035.57,510.917 2045.81,527.903 2056.05,487.925 2066.29,401.134 2076.53,291.622 2086.77,190.744 2097.02,128.14 2107.26,123.034 2117.5,178.349 2127.74,279.453 2137.98,398.001 2148.23,499.874 2158.47,554.999 2168.71,546.222 2178.95,474.615 2189.19,359.582 2199.44,233.624 2209.68,133.154 2219.92,87.9763 2230.16,112.451 2240.4,200.969 2250.64,329.161 2260.89,460.586 2271.13,557.097 2281.37,589.904 2291.61,548.158 "/>
<path clip-path="url(#clip570)" d="M264.353 250.738 L707.222 250.738 L707.222 95.2176 L264.353 95.2176  Z" fill="#ffffff" fill-rule="evenodd" fill-opacity="1"/>
<polyline clip-path="url(#clip570)" style="stroke:#000000; stroke-linecap:round; stroke-linejoin:round; stroke-width:4; stroke-opacity:1; fill:none" points="264.353,250.738 707.222,250.738 707.222,95.2176 264.353,95.2176 264.353,250.738 "/>
<polyline clip-path="url(#clip570)" style="stroke:#009af9; stroke-linecap:round; stroke-linejoin:round; stroke-width:16; stroke-opacity:1; fill:none" stroke-dasharray="8, 16" points="288.357,147.058 432.385,147.058 "/>
<path clip-path="url(#clip570)" d="M461.066 133.62 L461.066 146.606 L466.945 146.606 Q470.209 146.606 471.992 144.916 Q473.774 143.227 473.774 140.102 Q473.774 137 471.992 135.31 Q470.209 133.62 466.945 133.62 L461.066 133.62 M456.39 129.778 L466.945 129.778 Q472.755 129.778 475.718 132.416 Q478.704 135.032 478.704 140.102 Q478.704 145.217 475.718 147.833 Q472.755 150.449 466.945 150.449 L461.066 150.449 L461.066 164.338 L456.39 164.338 L456.39 129.778 Z" fill="#000000" fill-rule="nonzero" fill-opacity="1" /><path clip-path="url(#clip570)" d="M498.982 142.393 Q498.265 141.977 497.408 141.791 Q496.575 141.583 495.556 141.583 Q491.945 141.583 490.001 143.944 Q488.079 146.282 488.079 150.68 L488.079 164.338 L483.797 164.338 L483.797 138.412 L488.079 138.412 L488.079 142.44 Q489.422 140.078 491.575 138.944 Q493.728 137.787 496.806 137.787 Q497.246 137.787 497.778 137.856 Q498.311 137.903 498.959 138.018 L498.982 142.393 Z" fill="#000000" fill-rule="nonzero" fill-opacity="1" /><path clip-path="url(#clip570)" d="M524.584 150.31 L524.584 152.393 L505.001 152.393 Q505.278 156.791 507.639 159.106 Q510.024 161.398 514.26 161.398 Q516.714 161.398 519.005 160.796 Q521.32 160.194 523.588 158.99 L523.588 163.018 Q521.297 163.99 518.889 164.5 Q516.482 165.009 514.005 165.009 Q507.802 165.009 504.167 161.398 Q500.556 157.787 500.556 151.629 Q500.556 145.264 503.982 141.537 Q507.431 137.787 513.264 137.787 Q518.496 137.787 521.528 141.166 Q524.584 144.523 524.584 150.31 M520.325 149.06 Q520.278 145.565 518.357 143.481 Q516.459 141.398 513.311 141.398 Q509.746 141.398 507.593 143.412 Q505.464 145.426 505.14 149.083 L520.325 149.06 Z" fill="#000000" fill-rule="nonzero" fill-opacity="1" /><path clip-path="url(#clip570)" d="M548.635 142.347 L548.635 128.319 L552.894 128.319 L552.894 164.338 L548.635 164.338 L548.635 160.449 Q547.292 162.763 545.232 163.898 Q543.195 165.009 540.325 165.009 Q535.625 165.009 532.663 161.259 Q529.723 157.509 529.723 151.398 Q529.723 145.287 532.663 141.537 Q535.625 137.787 540.325 137.787 Q543.195 137.787 545.232 138.921 Q547.292 140.032 548.635 142.347 M534.121 151.398 Q534.121 156.097 536.042 158.782 Q537.987 161.444 541.366 161.444 Q544.746 161.444 546.69 158.782 Q548.635 156.097 548.635 151.398 Q548.635 146.699 546.69 144.037 Q544.746 141.352 541.366 141.352 Q537.987 141.352 536.042 144.037 Q534.121 146.699 534.121 151.398 Z" fill="#000000" fill-rule="nonzero" fill-opacity="1" /><path clip-path="url(#clip570)" d="M561.667 138.412 L565.926 138.412 L565.926 164.338 L561.667 164.338 L561.667 138.412 M561.667 128.319 L565.926 128.319 L565.926 133.713 L561.667 133.713 L561.667 128.319 Z" fill="#000000" fill-rule="nonzero" fill-opacity="1" /><path clip-path="url(#clip570)" d="M593.496 139.407 L593.496 143.389 Q591.69 142.393 589.861 141.907 Q588.056 141.398 586.204 141.398 Q582.06 141.398 579.769 144.037 Q577.477 146.652 577.477 151.398 Q577.477 156.143 579.769 158.782 Q582.06 161.398 586.204 161.398 Q588.056 161.398 589.861 160.912 Q591.69 160.402 593.496 159.407 L593.496 163.342 Q591.713 164.176 589.792 164.592 Q587.894 165.009 585.741 165.009 Q579.884 165.009 576.435 161.328 Q572.986 157.648 572.986 151.398 Q572.986 145.055 576.459 141.421 Q579.954 137.787 586.019 137.787 Q587.986 137.787 589.861 138.203 Q591.736 138.597 593.496 139.407 Z" fill="#000000" fill-rule="nonzero" fill-opacity="1" /><path clip-path="url(#clip570)" d="M605.116 131.051 L605.116 138.412 L613.889 138.412 L613.889 141.722 L605.116 141.722 L605.116 155.796 Q605.116 158.967 605.972 159.87 Q606.852 160.773 609.514 160.773 L613.889 160.773 L613.889 164.338 L609.514 164.338 Q604.583 164.338 602.708 162.509 Q600.833 160.657 600.833 155.796 L600.833 141.722 L597.708 141.722 L597.708 138.412 L600.833 138.412 L600.833 131.051 L605.116 131.051 Z" fill="#000000" fill-rule="nonzero" fill-opacity="1" /><path clip-path="url(#clip570)" d="M619.491 138.412 L623.75 138.412 L623.75 164.338 L619.491 164.338 L619.491 138.412 M619.491 128.319 L623.75 128.319 L623.75 133.713 L619.491 133.713 L619.491 128.319 Z" fill="#000000" fill-rule="nonzero" fill-opacity="1" /><path clip-path="url(#clip570)" d="M642.708 141.398 Q639.282 141.398 637.292 144.083 Q635.301 146.745 635.301 151.398 Q635.301 156.051 637.268 158.736 Q639.259 161.398 642.708 161.398 Q646.111 161.398 648.102 158.713 Q650.092 156.027 650.092 151.398 Q650.092 146.791 648.102 144.106 Q646.111 141.398 642.708 141.398 M642.708 137.787 Q648.264 137.787 651.435 141.398 Q654.606 145.009 654.606 151.398 Q654.606 157.764 651.435 161.398 Q648.264 165.009 642.708 165.009 Q637.13 165.009 633.958 161.398 Q630.81 157.764 630.81 151.398 Q630.81 145.009 633.958 141.398 Q637.13 137.787 642.708 137.787 Z" fill="#000000" fill-rule="nonzero" fill-opacity="1" /><path clip-path="url(#clip570)" d="M683.217 148.689 L683.217 164.338 L678.958 164.338 L678.958 148.828 Q678.958 145.148 677.523 143.319 Q676.088 141.49 673.217 141.49 Q669.768 141.49 667.778 143.69 Q665.787 145.889 665.787 149.685 L665.787 164.338 L661.504 164.338 L661.504 138.412 L665.787 138.412 L665.787 142.44 Q667.315 140.102 669.375 138.944 Q671.458 137.787 674.166 137.787 Q678.634 137.787 680.926 140.565 Q683.217 143.319 683.217 148.689 Z" fill="#000000" fill-rule="nonzero" fill-opacity="1" /><polyline clip-path="url(#clip570)" style="stroke:#e26f46; stroke-linecap:round; stroke-linejoin:round; stroke-width:4; stroke-opacity:1; fill:none" points="288.357,198.898 432.385,198.898 "/>
<path clip-path="url(#clip570)" d="M456.39 181.618 L478.242 181.618 L478.242 185.553 L461.066 185.553 L461.066 195.784 L477.524 195.784 L477.524 199.719 L461.066 199.719 L461.066 212.242 L478.658 212.242 L478.658 216.178 L456.39 216.178 L456.39 181.618 Z" fill="#000000" fill-rule="nonzero" fill-opacity="1" /><path clip-path="url(#clip570)" d="M507.709 190.252 L498.334 202.867 L508.195 216.178 L503.172 216.178 L495.626 205.992 L488.079 216.178 L483.056 216.178 L493.126 202.613 L483.913 190.252 L488.936 190.252 L495.811 199.488 L502.686 190.252 L507.709 190.252 Z" fill="#000000" fill-rule="nonzero" fill-opacity="1" /><path clip-path="url(#clip570)" d="M525.996 203.145 Q520.834 203.145 518.843 204.326 Q516.852 205.506 516.852 208.354 Q516.852 210.622 518.334 211.965 Q519.838 213.284 522.408 213.284 Q525.95 213.284 528.079 210.784 Q530.232 208.261 530.232 204.094 L530.232 203.145 L525.996 203.145 M534.491 201.386 L534.491 216.178 L530.232 216.178 L530.232 212.242 Q528.774 214.603 526.598 215.738 Q524.422 216.849 521.274 216.849 Q517.292 216.849 514.931 214.627 Q512.593 212.381 512.593 208.631 Q512.593 204.256 515.51 202.034 Q518.45 199.812 524.26 199.812 L530.232 199.812 L530.232 199.395 Q530.232 196.455 528.288 194.858 Q526.366 193.238 522.871 193.238 Q520.649 193.238 518.542 193.77 Q516.436 194.303 514.491 195.367 L514.491 191.432 Q516.829 190.53 519.028 190.09 Q521.227 189.627 523.311 189.627 Q528.936 189.627 531.713 192.543 Q534.491 195.46 534.491 201.386 Z" fill="#000000" fill-rule="nonzero" fill-opacity="1" /><path clip-path="url(#clip570)" d="M561.922 191.247 L561.922 195.229 Q560.116 194.233 558.287 193.747 Q556.482 193.238 554.63 193.238 Q550.486 193.238 548.195 195.877 Q545.903 198.492 545.903 203.238 Q545.903 207.983 548.195 210.622 Q550.486 213.238 554.63 213.238 Q556.482 213.238 558.287 212.752 Q560.116 212.242 561.922 211.247 L561.922 215.182 Q560.139 216.016 558.218 216.432 Q556.32 216.849 554.167 216.849 Q548.311 216.849 544.862 213.168 Q541.412 209.488 541.412 203.238 Q541.412 196.895 544.885 193.261 Q548.38 189.627 554.445 189.627 Q556.412 189.627 558.287 190.043 Q560.162 190.437 561.922 191.247 Z" fill="#000000" fill-rule="nonzero" fill-opacity="1" /><path clip-path="url(#clip570)" d="M573.542 182.891 L573.542 190.252 L582.315 190.252 L582.315 193.562 L573.542 193.562 L573.542 207.636 Q573.542 210.807 574.398 211.71 Q575.278 212.613 577.94 212.613 L582.315 212.613 L582.315 216.178 L577.94 216.178 Q573.01 216.178 571.135 214.349 Q569.26 212.497 569.26 207.636 L569.26 193.562 L566.135 193.562 L566.135 190.252 L569.26 190.252 L569.26 182.891 L573.542 182.891 Z" fill="#000000" fill-rule="nonzero" fill-opacity="1" /></svg>
