<?xml version="1.0" encoding="utf-8"?>
<svg xmlns="http://www.w3.org/2000/svg" xmlns:xlink="http://www.w3.org/1999/xlink" width="600" height="400" viewBox="0 0 2400 1600">
<defs>
  <clipPath id="clip540">
    <rect x="0" y="0" width="2400" height="1600"/>
  </clipPath>
</defs>
<path clip-path="url(#clip540)" d="M0 1600 L2400 1600 L2400 0 L0 0  Z" fill="#ffffff" fill-rule="evenodd" fill-opacity="1"/>
<defs>
  <clipPath id="clip541">
    <rect x="480" y="0" width="1681" height="1600"/>
  </clipPath>
</defs>
<path clip-path="url(#clip540)" d="M156.274 1486.45 L2352.76 1486.45 L2352.76 47.2441 L156.274 47.2441  Z" fill="#ffffff" fill-rule="evenodd" fill-opacity="1"/>
<defs>
  <clipPath id="clip542">
    <rect x="156" y="47" width="2197" height="1440"/>
  </clipPath>
</defs>
<polyline clip-path="url(#clip542)" style="stroke:#000000; stroke-linecap:round; stroke-linejoin:round; stroke-width:2; stroke-opacity:0.1; fill:none" points="218.439,1486.45 218.439,47.2441 "/>
<polyline clip-path="url(#clip542)" style="stroke:#000000; stroke-linecap:round; stroke-linejoin:round; stroke-width:2; stroke-opacity:0.1; fill:none" points="736.477,1486.45 736.477,47.2441 "/>
<polyline clip-path="url(#clip542)" style="stroke:#000000; stroke-linecap:round; stroke-linejoin:round; stroke-width:2; stroke-opacity:0.1; fill:none" points="1254.52,1486.45 1254.52,47.2441 "/>
<polyline clip-path="url(#clip542)" style="stroke:#000000; stroke-linecap:round; stroke-linejoin:round; stroke-width:2; stroke-opacity:0.1; fill:none" points="1772.55,1486.45 1772.55,47.2441 "/>
<polyline clip-path="url(#clip542)" style="stroke:#000000; stroke-linecap:round; stroke-linejoin:round; stroke-width:2; stroke-opacity:0.1; fill:none" points="2290.59,1486.45 2290.59,47.2441 "/>
<polyline clip-path="url(#clip540)" style="stroke:#000000; stroke-linecap:round; stroke-linejoin:round; stroke-width:4; stroke-opacity:1; fill:none" points="156.274,1486.45 2352.76,1486.45 "/>
<polyline clip-path="url(#clip540)" style="stroke:#000000; stroke-linecap:round; stroke-linejoin:round; stroke-width:4; stroke-opacity:1; fill:none" points="218.439,1486.45 218.439,1467.55 "/>
<polyline clip-path="url(#clip540)" style="stroke:#000000; stroke-linecap:round; stroke-linejoin:round; stroke-width:4; stroke-opacity:1; fill:none" points="736.477,1486.45 736.477,1467.55 "/>
<polyline clip-path="url(#clip540)" style="stroke:#000000; stroke-linecap:round; stroke-linejoin:round; stroke-width:4; stroke-opacity:1; fill:none" points="1254.52,1486.45 1254.52,1467.55 "/>
<polyline clip-path="url(#clip540)" style="stroke:#000000; stroke-linecap:round; stroke-linejoin:round; stroke-width:4; stroke-opacity:1; fill:none" points="1772.55,1486.45 1772.55,1467.55 "/>
<polyline clip-path="url(#clip540)" style="stroke:#000000; stroke-linecap:round; stroke-linejoin:round; stroke-width:4; stroke-opacity:1; fill:none" points="2290.59,1486.45 2290.59,1467.55 "/>
<path clip-path="url(#clip540)" d="M164.967 1532.02 L194.643 1532.02 L194.643 1535.95 L164.967 1535.95 L164.967 1532.02 Z" fill="#000000" fill-rule="nonzero" fill-opacity="1" /><path clip-path="url(#clip540)" d="M205.545 1544.91 L213.184 1544.91 L213.184 1518.55 L204.874 1520.21 L204.874 1515.95 L213.138 1514.29 L217.814 1514.29 L217.814 1544.91 L225.453 1544.91 L225.453 1548.85 L205.545 1548.85 L205.545 1544.91 Z" fill="#000000" fill-rule="nonzero" fill-opacity="1" /><path clip-path="url(#clip540)" d="M234.897 1542.97 L239.781 1542.97 L239.781 1548.85 L234.897 1548.85 L234.897 1542.97 Z" fill="#000000" fill-rule="nonzero" fill-opacity="1" /><path clip-path="url(#clip540)" d="M259.966 1517.37 Q256.355 1517.37 254.527 1520.93 Q252.721 1524.47 252.721 1531.6 Q252.721 1538.71 254.527 1542.27 Q256.355 1545.82 259.966 1545.82 Q263.601 1545.82 265.406 1542.27 Q267.235 1538.71 267.235 1531.6 Q267.235 1524.47 265.406 1520.93 Q263.601 1517.37 259.966 1517.37 M259.966 1513.66 Q265.776 1513.66 268.832 1518.27 Q271.911 1522.85 271.911 1531.6 Q271.911 1540.33 268.832 1544.94 Q265.776 1549.52 259.966 1549.52 Q254.156 1549.52 251.077 1544.94 Q248.022 1540.33 248.022 1531.6 Q248.022 1522.85 251.077 1518.27 Q254.156 1513.66 259.966 1513.66 Z" fill="#000000" fill-rule="nonzero" fill-opacity="1" /><path clip-path="url(#clip540)" d="M683.503 1532.02 L713.178 1532.02 L713.178 1535.95 L683.503 1535.95 L683.503 1532.02 Z" fill="#000000" fill-rule="nonzero" fill-opacity="1" /><path clip-path="url(#clip540)" d="M733.271 1517.37 Q729.66 1517.37 727.831 1520.93 Q726.026 1524.47 726.026 1531.6 Q726.026 1538.71 727.831 1542.27 Q729.66 1545.82 733.271 1545.82 Q736.905 1545.82 738.711 1542.27 Q740.539 1538.71 740.539 1531.6 Q740.539 1524.47 738.711 1520.93 Q736.905 1517.37 733.271 1517.37 M733.271 1513.66 Q739.081 1513.66 742.137 1518.27 Q745.215 1522.85 745.215 1531.6 Q745.215 1540.33 742.137 1544.94 Q739.081 1549.52 733.271 1549.52 Q727.461 1549.52 724.382 1544.94 Q721.327 1540.33 721.327 1531.6 Q721.327 1522.85 724.382 1518.27 Q727.461 1513.66 733.271 1513.66 Z" fill="#000000" fill-rule="nonzero" fill-opacity="1" /><path clip-path="url(#clip540)" d="M753.433 1542.97 L758.317 1542.97 L758.317 1548.85 L753.433 1548.85 L753.433 1542.97 Z" fill="#000000" fill-rule="nonzero" fill-opacity="1" /><path clip-path="url(#clip540)" d="M768.548 1514.29 L786.905 1514.29 L786.905 1518.22 L772.831 1518.22 L772.831 1526.7 Q773.849 1526.35 774.868 1526.19 Q775.886 1526 776.905 1526 Q782.692 1526 786.072 1529.17 Q789.451 1532.34 789.451 1537.76 Q789.451 1543.34 785.979 1546.44 Q782.507 1549.52 776.187 1549.52 Q774.011 1549.52 771.743 1549.15 Q769.498 1548.78 767.09 1548.04 L767.09 1543.34 Q769.173 1544.47 771.396 1545.03 Q773.618 1545.58 776.095 1545.58 Q780.099 1545.58 782.437 1543.48 Q784.775 1541.37 784.775 1537.76 Q784.775 1534.15 782.437 1532.04 Q780.099 1529.94 776.095 1529.94 Q774.22 1529.94 772.345 1530.35 Q770.493 1530.77 768.548 1531.65 L768.548 1514.29 Z" fill="#000000" fill-rule="nonzero" fill-opacity="1" /><path clip-path="url(#clip540)" d="M1231.9 1517.37 Q1228.29 1517.37 1226.46 1520.93 Q1224.65 1524.47 1224.65 1531.6 Q1224.65 1538.71 1226.46 1542.27 Q1228.29 1545.82 1231.9 1545.82 Q1235.53 1545.82 1237.34 1542.27 Q1239.17 1538.71 1239.17 1531.6 Q1239.17 1524.47 1237.34 1520.93 Q1235.53 1517.37 1231.9 1517.37 M1231.9 1513.66 Q1237.71 1513.66 1240.77 1518.27 Q1243.84 1522.85 1243.84 1531.6 Q1243.84 1540.33 1240.77 1544.94 Q1237.71 1549.52 1231.9 1549.52 Q1226.09 1549.52 1223.01 1544.94 Q1219.96 1540.33 1219.96 1531.6 Q1219.96 1522.85 1223.01 1518.27 Q1226.09 1513.66 1231.9 1513.66 Z" fill="#000000" fill-rule="nonzero" fill-opacity="1" /><path clip-path="url(#clip540)" d="M1252.06 1542.97 L1256.95 1542.97 L1256.95 1548.85 L1252.06 1548.85 L1252.06 1542.97 Z" fill="#000000" fill-rule="nonzero" fill-opacity="1" /><path clip-path="url(#clip540)" d="M1277.13 1517.37 Q1273.52 1517.37 1271.69 1520.93 Q1269.89 1524.47 1269.89 1531.6 Q1269.89 1538.71 1271.69 1542.27 Q1273.52 1545.82 1277.13 1545.82 Q1280.76 1545.82 1282.57 1542.27 Q1284.4 1538.71 1284.4 1531.6 Q1284.4 1524.47 1282.57 1520.93 Q1280.76 1517.37 1277.13 1517.37 M1277.13 1513.66 Q1282.94 1513.66 1286 1518.27 Q1289.08 1522.85 1289.08 1531.6 Q1289.08 1540.33 1286 1544.94 Q1282.94 1549.52 1277.13 1549.52 Q1271.32 1549.52 1268.24 1544.94 Q1265.19 1540.33 1265.19 1531.6 Q1265.19 1522.85 1268.24 1518.27 Q1271.32 1513.66 1277.13 1513.66 Z" fill="#000000" fill-rule="nonzero" fill-opacity="1" /><path clip-path="url(#clip540)" d="M1750.44 1517.37 Q1746.82 1517.37 1745 1520.93 Q1743.19 1524.47 1743.19 1531.6 Q1743.19 1538.71 1745 1542.27 Q1746.82 1545.82 1750.44 1545.82 Q1754.07 1545.82 1755.88 1542.27 Q1757.7 1538.71 1757.7 1531.6 Q1757.7 1524.47 1755.88 1520.93 Q1754.07 1517.37 1750.44 1517.37 M1750.44 1513.66 Q1756.25 1513.66 1759.3 1518.27 Q1762.38 1522.85 1762.38 1531.6 Q1762.38 1540.33 1759.3 1544.94 Q1756.25 1549.52 1750.44 1549.52 Q1744.63 1549.52 1741.55 1544.94 Q1738.49 1540.33 1738.49 1531.6 Q1738.49 1522.85 1741.55 1518.27 Q1744.63 1513.66 1750.44 1513.66 Z" fill="#000000" fill-rule="nonzero" fill-opacity="1" /><path clip-path="url(#clip540)" d="M1770.6 1542.97 L1775.48 1542.97 L1775.48 1548.85 L1770.6 1548.85 L1770.6 1542.97 Z" fill="#000000" fill-rule="nonzero" fill-opacity="1" /><path clip-path="url(#clip540)" d="M1785.71 1514.29 L1804.07 1514.29 L1804.07 1518.22 L1790 1518.22 L1790 1526.7 Q1791.01 1526.35 1792.03 1526.19 Q1793.05 1526 1794.07 1526 Q1799.86 1526 1803.24 1529.17 Q1806.62 1532.34 1806.62 1537.76 Q1806.62 1543.34 1803.14 1546.44 Q1799.67 1549.52 1793.35 1549.52 Q1791.18 1549.52 1788.91 1549.15 Q1786.66 1548.78 1784.25 1548.04 L1784.25 1543.34 Q1786.34 1544.47 1788.56 1545.03 Q1790.78 1545.58 1793.26 1545.58 Q1797.26 1545.58 1799.6 1543.48 Q1801.94 1541.37 1801.94 1537.76 Q1801.94 1534.15 1799.6 1532.04 Q1797.26 1529.94 1793.26 1529.94 Q1791.38 1529.94 1789.51 1530.35 Q1787.66 1530.77 1785.71 1531.65 L1785.71 1514.29 Z" fill="#000000" fill-rule="nonzero" fill-opacity="1" /><path clip-path="url(#clip540)" d="M2257.74 1544.91 L2265.38 1544.91 L2265.38 1518.55 L2257.07 1520.21 L2257.07 1515.95 L2265.34 1514.29 L2270.01 1514.29 L2270.01 1544.91 L2277.65 1544.91 L2277.65 1548.85 L2257.74 1548.85 L2257.74 1544.91 Z" fill="#000000" fill-rule="nonzero" fill-opacity="1" /><path clip-path="url(#clip540)" d="M2287.1 1542.97 L2291.98 1542.97 L2291.98 1548.85 L2287.1 1548.85 L2287.1 1542.97 Z" fill="#000000" fill-rule="nonzero" fill-opacity="1" /><path clip-path="url(#clip540)" d="M2312.17 1517.37 Q2308.55 1517.37 2306.73 1520.93 Q2304.92 1524.47 2304.92 1531.6 Q2304.92 1538.71 2306.73 1542.27 Q2308.55 1545.82 2312.17 1545.82 Q2315.8 1545.82 2317.61 1542.27 Q2319.43 1538.71 2319.43 1531.6 Q2319.43 1524.47 2317.61 1520.93 Q2315.8 1517.37 2312.17 1517.37 M2312.17 1513.66 Q2317.98 1513.66 2321.03 1518.27 Q2324.11 1522.85 2324.11 1531.6 Q2324.11 1540.33 2321.03 1544.94 Q2317.98 1549.52 2312.17 1549.52 Q2306.36 1549.52 2303.28 1544.94 Q2300.22 1540.33 2300.22 1531.6 Q2300.22 1522.85 2303.28 1518.27 Q2306.36 1513.66 2312.17 1513.66 Z" fill="#000000" fill-rule="nonzero" fill-opacity="1" /><polyline clip-path="url(#clip542)" style="stroke:#000000; stroke-linecap:round; stroke-linejoin:round; stroke-width:2; stroke-opacity:0.1; fill:none" points="156.274,1253.61 2352.76,1253.61 "/>
<polyline clip-path="url(#clip542)" style="stroke:#000000; stroke-linecap:round; stroke-linejoin:round; stroke-width:2; stroke-opacity:0.1; fill:none" points="156.274,980.056 2352.76,980.056 "/>
<polyline clip-path="url(#clip542)" style="stroke:#000000; stroke-linecap:round; stroke-linejoin:round; stroke-width:2; stroke-opacity:0.1; fill:none" points="156.274,706.5 2352.76,706.5 "/>
<polyline clip-path="url(#clip542)" style="stroke:#000000; stroke-linecap:round; stroke-linejoin:round; stroke-width:2; stroke-opacity:0.1; fill:none" points="156.274,432.944 2352.76,432.944 "/>
<polyline clip-path="url(#clip542)" style="stroke:#000000; stroke-linecap:round; stroke-linejoin:round; stroke-width:2; stroke-opacity:0.1; fill:none" points="156.274,159.388 2352.76,159.388 "/>
<polyline clip-path="url(#clip540)" style="stroke:#000000; stroke-linecap:round; stroke-linejoin:round; stroke-width:4; stroke-opacity:1; fill:none" points="156.274,1486.45 156.274,47.2441 "/>
<polyline clip-path="url(#clip540)" style="stroke:#000000; stroke-linecap:round; stroke-linejoin:round; stroke-width:4; stroke-opacity:1; fill:none" points="156.274,1253.61 175.172,1253.61 "/>
<polyline clip-path="url(#clip540)" style="stroke:#000000; stroke-linecap:round; stroke-linejoin:round; stroke-width:4; stroke-opacity:1; fill:none" points="156.274,980.056 175.172,980.056 "/>
<polyline clip-path="url(#clip540)" style="stroke:#000000; stroke-linecap:round; stroke-linejoin:round; stroke-width:4; stroke-opacity:1; fill:none" points="156.274,706.5 175.172,706.5 "/>
<polyline clip-path="url(#clip540)" style="stroke:#000000; stroke-linecap:round; stroke-linejoin:round; stroke-width:4; stroke-opacity:1; fill:none" points="156.274,432.944 175.172,432.944 "/>
<polyline clip-path="url(#clip540)" style="stroke:#000000; stroke-linecap:round; stroke-linejoin:round; stroke-width:4; stroke-opacity:1; fill:none" points="156.274,159.388 175.172,159.388 "/>
<path clip-path="url(#clip540)" d="M63.0985 1239.41 Q59.4875 1239.41 57.6588 1242.98 Q55.8532 1246.52 55.8532 1253.65 Q55.8532 1260.75 57.6588 1264.32 Q59.4875 1267.86 63.0985 1267.86 Q66.7328 1267.86 68.5383 1264.32 Q70.367 1260.75 70.367 1253.65 Q70.367 1246.52 68.5383 1242.98 Q66.7328 1239.41 63.0985 1239.41 M63.0985 1235.71 Q68.9087 1235.71 71.9642 1240.31 Q75.0429 1244.9 75.0429 1253.65 Q75.0429 1262.37 71.9642 1266.98 Q68.9087 1271.56 63.0985 1271.56 Q57.2884 1271.56 54.2097 1266.98 Q51.1542 1262.37 51.1542 1253.65 Q51.1542 1244.9 54.2097 1240.31 Q57.2884 1235.71 63.0985 1235.71 Z" fill="#000000" fill-rule="nonzero" fill-opacity="1" /><path clip-path="url(#clip540)" d="M83.2605 1265.01 L88.1447 1265.01 L88.1447 1270.89 L83.2605 1270.89 L83.2605 1265.01 Z" fill="#000000" fill-rule="nonzero" fill-opacity="1" /><path clip-path="url(#clip540)" d="M108.33 1239.41 Q104.719 1239.41 102.89 1242.98 Q101.084 1246.52 101.084 1253.65 Q101.084 1260.75 102.89 1264.32 Q104.719 1267.86 108.33 1267.86 Q111.964 1267.86 113.77 1264.32 Q115.598 1260.75 115.598 1253.65 Q115.598 1246.52 113.77 1242.98 Q111.964 1239.41 108.33 1239.41 M108.33 1235.71 Q114.14 1235.71 117.195 1240.31 Q120.274 1244.9 120.274 1253.65 Q120.274 1262.37 117.195 1266.98 Q114.14 1271.56 108.33 1271.56 Q102.52 1271.56 99.4409 1266.98 Q96.3854 1262.37 96.3854 1253.65 Q96.3854 1244.9 99.4409 1240.31 Q102.52 1235.71 108.33 1235.71 Z" fill="#000000" fill-rule="nonzero" fill-opacity="1" /><path clip-path="url(#clip540)" d="M63.7467 965.855 Q60.1356 965.855 58.3069 969.419 Q56.5014 972.961 56.5014 980.091 Q56.5014 987.197 58.3069 990.762 Q60.1356 994.304 63.7467 994.304 Q67.3809 994.304 69.1865 990.762 Q71.0152 987.197 71.0152 980.091 Q71.0152 972.961 69.1865 969.419 Q67.3809 965.855 63.7467 965.855 M63.7467 962.151 Q69.5568 962.151 72.6124 966.757 Q75.6911 971.341 75.6911 980.091 Q75.6911 988.817 72.6124 993.424 Q69.5568 998.007 63.7467 998.007 Q57.9365 998.007 54.8578 993.424 Q51.8023 988.817 51.8023 980.091 Q51.8023 971.341 54.8578 966.757 Q57.9365 962.151 63.7467 962.151 Z" fill="#000000" fill-rule="nonzero" fill-opacity="1" /><path clip-path="url(#clip540)" d="M83.9086 991.456 L88.7928 991.456 L88.7928 997.336 L83.9086 997.336 L83.9086 991.456 Z" fill="#000000" fill-rule="nonzero" fill-opacity="1" /><path clip-path="url(#clip540)" d="M113.145 978.702 Q116.501 979.419 118.376 981.688 Q120.274 983.956 120.274 987.29 Q120.274 992.405 116.756 995.206 Q113.237 998.007 106.756 998.007 Q104.58 998.007 102.265 997.567 Q99.9733 997.151 97.5197 996.294 L97.5197 991.78 Q99.4641 992.915 101.779 993.493 Q104.094 994.072 106.617 994.072 Q111.015 994.072 113.307 992.336 Q115.621 990.6 115.621 987.29 Q115.621 984.234 113.469 982.521 Q111.339 980.785 107.52 980.785 L103.492 980.785 L103.492 976.943 L107.705 976.943 Q111.154 976.943 112.983 975.577 Q114.811 974.188 114.811 971.595 Q114.811 968.933 112.913 967.521 Q111.038 966.086 107.52 966.086 Q105.598 966.086 103.399 966.503 Q101.2 966.919 98.5613 967.799 L98.5613 963.632 Q101.223 962.892 103.538 962.521 Q105.876 962.151 107.936 962.151 Q113.26 962.151 116.362 964.581 Q119.464 966.989 119.464 971.109 Q119.464 973.98 117.82 975.97 Q116.177 977.938 113.145 978.702 Z" fill="#000000" fill-rule="nonzero" fill-opacity="1" /><path clip-path="url(#clip540)" d="M62.9365 692.299 Q59.3254 692.299 57.4967 695.863 Q55.6912 699.405 55.6912 706.535 Q55.6912 713.641 57.4967 717.206 Q59.3254 720.748 62.9365 720.748 Q66.5707 720.748 68.3763 717.206 Q70.205 713.641 70.205 706.535 Q70.205 699.405 68.3763 695.863 Q66.5707 692.299 62.9365 692.299 M62.9365 688.595 Q68.7467 688.595 71.8022 693.201 Q74.8809 697.785 74.8809 706.535 Q74.8809 715.261 71.8022 719.868 Q68.7467 724.451 62.9365 724.451 Q57.1264 724.451 54.0477 719.868 Q50.9921 715.261 50.9921 706.535 Q50.9921 697.785 54.0477 693.201 Q57.1264 688.595 62.9365 688.595 Z" fill="#000000" fill-rule="nonzero" fill-opacity="1" /><path clip-path="url(#clip540)" d="M83.0984 717.9 L87.9827 717.9 L87.9827 723.78 L83.0984 723.78 L83.0984 717.9 Z" fill="#000000" fill-rule="nonzero" fill-opacity="1" /><path clip-path="url(#clip540)" d="M108.746 704.637 Q105.598 704.637 103.746 706.789 Q101.918 708.942 101.918 712.692 Q101.918 716.419 103.746 718.595 Q105.598 720.748 108.746 720.748 Q111.895 720.748 113.723 718.595 Q115.575 716.419 115.575 712.692 Q115.575 708.942 113.723 706.789 Q111.895 704.637 108.746 704.637 M118.029 689.984 L118.029 694.243 Q116.27 693.41 114.464 692.97 Q112.682 692.53 110.922 692.53 Q106.293 692.53 103.839 695.655 Q101.409 698.78 101.061 705.099 Q102.427 703.086 104.487 702.021 Q106.547 700.933 109.024 700.933 Q114.233 700.933 117.242 704.104 Q120.274 707.252 120.274 712.692 Q120.274 718.016 117.126 721.234 Q113.978 724.451 108.746 724.451 Q102.751 724.451 99.5798 719.868 Q96.4085 715.261 96.4085 706.535 Q96.4085 698.34 100.297 693.479 Q104.186 688.595 110.737 688.595 Q112.496 688.595 114.279 688.942 Q116.084 689.289 118.029 689.984 Z" fill="#000000" fill-rule="nonzero" fill-opacity="1" /><path clip-path="url(#clip540)" d="M63.2837 418.743 Q59.6726 418.743 57.8439 422.307 Q56.0384 425.849 56.0384 432.979 Q56.0384 440.085 57.8439 443.65 Q59.6726 447.192 63.2837 447.192 Q66.918 447.192 68.7235 443.65 Q70.5522 440.085 70.5522 432.979 Q70.5522 425.849 68.7235 422.307 Q66.918 418.743 63.2837 418.743 M63.2837 415.039 Q69.0939 415.039 72.1494 419.645 Q75.2281 424.229 75.2281 432.979 Q75.2281 441.705 72.1494 446.312 Q69.0939 450.895 63.2837 450.895 Q57.4736 450.895 54.3949 446.312 Q51.3393 441.705 51.3393 432.979 Q51.3393 424.229 54.3949 419.645 Q57.4736 415.039 63.2837 415.039 Z" fill="#000000" fill-rule="nonzero" fill-opacity="1" /><path clip-path="url(#clip540)" d="M83.4457 444.344 L88.3299 444.344 L88.3299 450.224 L83.4457 450.224 L83.4457 444.344 Z" fill="#000000" fill-rule="nonzero" fill-opacity="1" /><path clip-path="url(#clip540)" d="M98.6539 449.506 L98.6539 445.247 Q100.413 446.08 102.219 446.52 Q104.024 446.96 105.76 446.96 Q110.39 446.96 112.82 443.858 Q115.274 440.733 115.621 434.391 Q114.279 436.381 112.219 437.446 Q110.158 438.511 107.658 438.511 Q102.473 438.511 99.4409 435.386 Q96.4317 432.238 96.4317 426.798 Q96.4317 421.474 99.5798 418.257 Q102.728 415.039 107.959 415.039 Q113.955 415.039 117.103 419.645 Q120.274 424.229 120.274 432.979 Q120.274 441.15 116.385 446.034 Q112.52 450.895 105.969 450.895 Q104.209 450.895 102.404 450.548 Q100.598 450.201 98.6539 449.506 M107.959 434.854 Q111.108 434.854 112.936 432.701 Q114.788 430.548 114.788 426.798 Q114.788 423.071 112.936 420.919 Q111.108 418.743 107.959 418.743 Q104.811 418.743 102.959 420.919 Q101.131 423.071 101.131 426.798 Q101.131 430.548 102.959 432.701 Q104.811 434.854 107.959 434.854 Z" fill="#000000" fill-rule="nonzero" fill-opacity="1" /><path clip-path="url(#clip540)" d="M55.506 172.733 L63.1448 172.733 L63.1448 146.367 L54.8347 148.034 L54.8347 143.775 L63.0985 142.108 L67.7744 142.108 L67.7744 172.733 L75.4133 172.733 L75.4133 176.668 L55.506 176.668 L55.506 172.733 Z" fill="#000000" fill-rule="nonzero" fill-opacity="1" /><path clip-path="url(#clip540)" d="M84.8577 170.788 L89.7419 170.788 L89.7419 176.668 L84.8577 176.668 L84.8577 170.788 Z" fill="#000000" fill-rule="nonzero" fill-opacity="1" /><path clip-path="url(#clip540)" d="M103.955 172.733 L120.274 172.733 L120.274 176.668 L98.3298 176.668 L98.3298 172.733 Q100.992 169.978 105.575 165.349 Q110.182 160.696 111.362 159.353 Q113.608 156.83 114.487 155.094 Q115.39 153.335 115.39 151.645 Q115.39 148.89 113.445 147.154 Q111.524 145.418 108.422 145.418 Q106.223 145.418 103.77 146.182 Q101.339 146.946 98.5613 148.497 L98.5613 143.775 Q101.385 142.64 103.839 142.062 Q106.293 141.483 108.33 141.483 Q113.7 141.483 116.895 144.168 Q120.089 146.853 120.089 151.344 Q120.089 153.474 119.279 155.395 Q118.492 157.293 116.385 159.886 Q115.807 160.557 112.705 163.775 Q109.603 166.969 103.955 172.733 Z" fill="#000000" fill-rule="nonzero" fill-opacity="1" /><polyline clip-path="url(#clip542)" style="stroke:#009af9; stroke-linecap:round; stroke-linejoin:round; stroke-width:16; stroke-opacity:1; fill:none" stroke-dasharray="8, 16" points="218.439,1116.65 228.852,1100.53 239.264,1086.85 249.677,1076.72 260.09,1071.4 270.503,1072.11 280.916,1079.87 291.329,1095.03 301.741,1116.89 312.154,1143.47 322.567,1172.2 332.98,1201.5 343.393,1231.8 353.805,1264.36 364.218,1298.41 374.631,1330.57 385.044,1357.71 395.457,1379.66 405.87,1398.4 416.282,1415.31 426.695,1429.38 437.108,1437.99 447.521,1438.86 457.934,1431.37 468.347,1416.5 478.759,1396.04 489.172,1371.89 499.585,1345.57 509.998,1318.01 520.411,1289.4 530.824,1259.3 541.236,1227.06 551.649,1192.61 562.062,1157.4 572.475,1124.98 582.888,1100.29 593.301,1087.21 603.713,1085.46 614.126,1089.51 624.539,1091.45 634.952,1086.75 645.365,1079.16 655.777,1079.69 666.19,1098.56 676.603,1136.16 687.016,1182.48 697.429,1225.35 707.842,1258.41 718.254,1282.45 728.667,1302.38 739.08,1323.72 749.493,1349.84 759.906,1380.24 770.319,1410.5 780.731,1434.16 791.144,1445.72 801.557,1443.71 811.97,1432.27 822.383,1418.44 832.796,1405.94 843.208,1391.37 853.621,1368.31 864.034,1335.99 874.447,1302.45 884.86,1274.84 895.273,1245.93 905.685,1206.63 916.098,1172.73 926.511,1155.39 936.924,1127.97 947.337,1076.37 957.749,1030.89 968.162,1029.61 978.575,1067.03 988.988,1113.63 999.401,1162.06 1009.81,1171.3 1020.23,1120.47 1030.64,1088.65 1041.05,1150.36 1051.46,1239.17 1061.88,1231.24 1072.29,1225.37 1082.7,1304.49 1093.12,1386.16 1103.53,1370.75 1113.94,1290.82 1124.35,1223.37 1134.77,1310.3 1145.18,1417.83 1155.59,1423.17 1166.01,1393.66 1176.42,1396.52 1186.83,1414.13 1197.24,1415.73 1207.66,1415.92 1218.07,1414.41 1228.48,1372.88 1238.9,1220.68 1249.31,940.303 1259.72,630.139 1270.13,401.71 1280.55,317.352 1290.96,331.855 1301.37,358.529 1311.79,363.534 1322.2,352.894 1332.61,338.185 1343.02,325.582 1353.44,319.371 1363.85,325.466 1374.26,338.509 1384.68,334.395 1395.09,324.854 1405.5,344.106 1415.91,364.187 1426.33,333.683 1436.74,303.263 1447.15,408.568 1457.57,430.371 1467.98,382.529 1478.39,319.842 1488.8,282.235 1499.22,273.204 1509.63,287.958 1520.04,318.401 1530.45,360.137 1540.87,400.019 1551.28,387.415 1561.69,353.673 1572.11,401.841 1582.52,453.237 1592.93,412.833 1603.34,317.356 1613.76,248.2 1624.17,246.666 1634.58,291.73 1645,345.987 1655.41,391.161 1665.82,423.989 1676.23,440.869 1686.65,433.856 1697.06,397.091 1707.47,334.341 1717.89,263.418 1728.3,213.824 1738.71,210.652 1749.12,254.501 1759.54,322.669 1769.95,389.093 1780.36,437.545 1790.78,461.277 1801.19,458.394 1811.6,429.199 1822.01,376.494 1832.43,308.176 1842.84,240.035 1853.25,194.355 1863.67,191.113 1874.08,236.142 1884.49,316.328 1894.9,406.172 1905.32,479.434 1915.73,517.109 1926.14,509.183 1936.56,453.57 1946.97,357.102 1957.38,240.613 1967.79,142.489 1978.21,107.339 1988.62,156.767 1999.03,268.837 2009.45,394.17 2019.86,491.053 2030.27,541.366 2040.68,542.952 2051.1,498.827 2061.51,414.76 2071.92,303.957 2082.33,192.555 2092.75,117.117 2103.16,108.684 2113.57,173.552 2123.99,290.965 2134.4,426.378 2144.81,540.321 2155.22,593.332 2165.64,561.083 2176.05,452.867 2186.46,312.947 2196.88,197.457 2207.29,142.238 2217.7,148.954 2228.11,197.324 2238.53,264.563 2248.94,335.452 2259.35,402.733 2269.77,464.023 2280.18,519.132 2290.59,568.621 "/>
<polyline clip-path="url(#clip542)" style="stroke:#e26f46; stroke-linecap:round; stroke-linejoin:round; stroke-width:4; stroke-opacity:1; fill:none" points="218.439,1116.65 228.852,1097.22 239.264,1082.9 249.677,1074.14 260.09,1071.24 270.503,1074.3 280.916,1083.2 291.329,1097.67 301.741,1117.23 312.154,1141.24 322.567,1168.91 332.98,1199.35 343.393,1231.57 353.805,1264.5 364.218,1297.07 374.631,1328.23 385.044,1356.95 395.457,1382.3 405.87,1403.45 416.282,1419.71 426.695,1430.55 437.108,1435.61 447.521,1434.73 457.934,1427.95 468.347,1415.47 478.759,1397.71 489.172,1375.24 499.585,1348.81 509.998,1319.27 520.411,1287.59 530.824,1254.8 541.236,1221.97 551.649,1190.17 562.062,1160.44 572.475,1133.75 582.888,1110.98 593.301,1092.86 603.713,1079.99 614.126,1072.78 624.539,1071.48 634.952,1076.12 645.365,1086.55 655.777,1102.44 666.19,1123.25 676.603,1148.33 687.016,1176.84 697.429,1207.85 707.842,1240.36 718.254,1273.3 728.667,1305.6 739.08,1336.21 749.493,1364.11 759.906,1388.41 770.319,1408.31 780.731,1423.16 791.144,1432.48 801.557,1435.96 811.97,1433.49 822.383,1425.15 832.796,1411.21 843.208,1392.12 853.621,1368.52 864.034,1341.16 874.447,1310.95 884.86,1278.87 895.273,1245.96 905.685,1213.3 916.098,1181.96 926.511,1152.95 936.924,1127.23 947.337,1105.64 957.749,1088.88 968.162,1077.49 978.575,1071.85 988.988,1072.14 999.401,1078.36 1009.81,1090.29 1020.23,1107.56 1030.64,1129.59 1041.05,1155.67 1051.46,1184.94 1061.88,1216.46 1072.29,1249.19 1082.7,1282.07 1093.12,1314.01 1103.53,1343.99 1113.94,1371.01 1124.35,1394.21 1134.77,1412.81 1145.18,1426.22 1155.59,1433.99 1166.01,1435.88 1176.42,1431.82 1186.83,1421.95 1197.24,1406.57 1207.66,1386.21 1218.07,1361.52 1228.48,1333.31 1238.9,1302.49 1249.31,1270.09 1259.72,340.434 1270.13,338.927 1280.55,340.299 1290.96,344.865 1301.37,351.226 1311.79,356.695 1322.2,358.314 1332.61,354.106 1343.02,344.076 1353.44,330.554 1363.85,317.686 1374.26,310.169 1384.68,311.611 1395.09,323.08 1405.5,342.371 1415.91,364.325 1426.33,382.203 1436.74,389.744 1447.15,383.289 1457.57,363.259 1467.98,334.449 1478.39,304.924 1488.8,283.763 1499.22,278.281 1509.63,291.57 1520.04,321.176 1530.45,359.412 1540.87,395.33 1551.28,417.856 1561.69,419.191 1572.11,397.428 1582.52,357.543 1592.93,310.33 1603.34,269.49 1613.76,247.659 1624.17,252.513 1634.58,284.164 1645,334.692 1655.41,390.084 1665.82,434.115 1676.23,453.098 1686.65,440.117 1697.06,397.43 1707.47,336.248 1717.89,273.812 1728.3,228.542 1738.71,214.599 1749.12,237.493 1759.54,292.061 1769.95,363.546 1780.36,431.573 1790.78,475.955 1801.19,482.677 1811.6,448.288 1822.01,381.326 1832.43,300.255 1842.84,228.378 1853.25,187.143 1863.67,189.75 1874.08,236.969 1884.49,316.483 1894.9,406.067 1905.32,479.797 1915.73,515.549 1926.14,501.627 1936.56,440.534 1946.97,348.68 1957.38,251.999 1967.79,178.628 1978.21,150.718 1988.62,177.765 1999.03,253.454 2009.45,357.057 2019.86,459.095 2030.27,529.725 2040.68,547.466 2051.1,505.71 2061.51,415.06 2071.92,300.678 2082.33,195.314 2092.75,129.926 2103.16,124.593 2113.57,182.367 2123.99,287.968 2134.4,411.788 2144.81,518.191 2155.22,575.767 2165.64,566.6 2176.05,491.808 2186.46,371.66 2196.88,240.1 2207.29,135.163 2217.7,87.9763 2228.11,113.539 2238.53,205.994 2248.94,339.886 2259.35,477.155 2269.77,577.958 2280.18,612.224 2290.59,568.621 "/>
<path clip-path="url(#clip540)" d="M229.49 250.738 L675.966 250.738 L675.966 95.2176 L229.49 95.2176  Z" fill="#ffffff" fill-rule="evenodd" fill-opacity="1"/>
<polyline clip-path="url(#clip540)" style="stroke:#000000; stroke-linecap:round; stroke-linejoin:round; stroke-width:4; stroke-opacity:1; fill:none" points="229.49,250.738 675.966,250.738 675.966,95.2176 229.49,95.2176 229.49,250.738 "/>
<polyline clip-path="url(#clip540)" style="stroke:#009af9; stroke-linecap:round; stroke-linejoin:round; stroke-width:16; stroke-opacity:1; fill:none" stroke-dasharray="8, 16" points="253.896,147.058 400.328,147.058 "/>
<path clip-path="url(#clip540)" d="M429.409 133.62 L429.409 146.606 L435.289 146.606 Q438.552 146.606 440.335 144.916 Q442.117 143.227 442.117 140.102 Q442.117 137 440.335 135.31 Q438.552 133.62 435.289 133.62 L429.409 133.62 M424.733 129.778 L435.289 129.778 Q441.099 129.778 444.062 132.416 Q447.048 135.032 447.048 140.102 Q447.048 145.217 444.062 147.833 Q441.099 150.449 435.289 150.449 L429.409 150.449 L429.409 164.338 L424.733 164.338 L424.733 129.778 Z" fill="#000000" fill-rule="nonzero" fill-opacity="1" /><path clip-path="url(#clip540)" d="M467.325 142.393 Q466.608 141.977 465.751 141.791 Q464.918 141.583 463.899 141.583 Q460.288 141.583 458.344 143.944 Q456.423 146.282 456.423 150.68 L456.423 164.338 L452.14 164.338 L452.14 138.412 L456.423 138.412 L456.423 142.44 Q457.765 140.078 459.918 138.944 Q462.071 137.787 465.149 137.787 Q465.589 137.787 466.122 137.856 Q466.654 137.903 467.302 138.018 L467.325 142.393 Z" fill="#000000" fill-rule="nonzero" fill-opacity="1" /><path clip-path="url(#clip540)" d="M492.927 150.31 L492.927 152.393 L473.344 152.393 Q473.622 156.791 475.983 159.106 Q478.367 161.398 482.603 161.398 Q485.057 161.398 487.348 160.796 Q489.663 160.194 491.932 158.99 L491.932 163.018 Q489.64 163.99 487.233 164.5 Q484.825 165.009 482.348 165.009 Q476.145 165.009 472.511 161.398 Q468.899 157.787 468.899 151.629 Q468.899 145.264 472.325 141.537 Q475.774 137.787 481.608 137.787 Q486.839 137.787 489.872 141.166 Q492.927 144.523 492.927 150.31 M488.668 149.06 Q488.622 145.565 486.7 143.481 Q484.802 141.398 481.654 141.398 Q478.089 141.398 475.936 143.412 Q473.807 145.426 473.483 149.083 L488.668 149.06 Z" fill="#000000" fill-rule="nonzero" fill-opacity="1" /><path clip-path="url(#clip540)" d="M516.978 142.347 L516.978 128.319 L521.237 128.319 L521.237 164.338 L516.978 164.338 L516.978 160.449 Q515.635 162.763 513.575 163.898 Q511.538 165.009 508.668 165.009 Q503.969 165.009 501.006 161.259 Q498.066 157.509 498.066 151.398 Q498.066 145.287 501.006 141.537 Q503.969 137.787 508.668 137.787 Q511.538 137.787 513.575 138.921 Q515.635 140.032 516.978 142.347 M502.464 151.398 Q502.464 156.097 504.385 158.782 Q506.33 161.444 509.709 161.444 Q513.089 161.444 515.033 158.782 Q516.978 156.097 516.978 151.398 Q516.978 146.699 515.033 144.037 Q513.089 141.352 509.709 141.352 Q506.33 141.352 504.385 144.037 Q502.464 146.699 502.464 151.398 Z" fill="#000000" fill-rule="nonzero" fill-opacity="1" /><path clip-path="url(#clip540)" d="M530.01 138.412 L534.269 138.412 L534.269 164.338 L530.01 164.338 L530.01 138.412 M530.01 128.319 L534.269 128.319 L534.269 133.713 L530.01 133.713 L530.01 128.319 Z" fill="#000000" fill-rule="nonzero" fill-opacity="1" /><path clip-path="url(#clip540)" d="M561.839 139.407 L561.839 143.389 Q560.033 142.393 558.205 141.907 Q556.399 141.398 554.547 141.398 Q550.404 141.398 548.112 144.037 Q545.82 146.652 545.82 151.398 Q545.82 156.143 548.112 158.782 Q550.404 161.398 554.547 161.398 Q556.399 161.398 558.205 160.912 Q560.033 160.402 561.839 159.407 L561.839 163.342 Q560.056 164.176 558.135 164.592 Q556.237 165.009 554.084 165.009 Q548.228 165.009 544.779 161.328 Q541.33 157.648 541.33 151.398 Q541.33 145.055 544.802 141.421 Q548.297 137.787 554.362 137.787 Q556.33 137.787 558.205 138.203 Q560.08 138.597 561.839 139.407 Z" fill="#000000" fill-rule="nonzero" fill-opacity="1" /><path clip-path="url(#clip540)" d="M573.459 131.051 L573.459 138.412 L582.232 138.412 L582.232 141.722 L573.459 141.722 L573.459 155.796 Q573.459 158.967 574.316 159.87 Q575.195 160.773 577.857 160.773 L582.232 160.773 L582.232 164.338 L577.857 164.338 Q572.927 164.338 571.052 162.509 Q569.177 160.657 569.177 155.796 L569.177 141.722 L566.052 141.722 L566.052 138.412 L569.177 138.412 L569.177 131.051 L573.459 131.051 Z" fill="#000000" fill-rule="nonzero" fill-opacity="1" /><path clip-path="url(#clip540)" d="M587.834 138.412 L592.093 138.412 L592.093 164.338 L587.834 164.338 L587.834 138.412 M587.834 128.319 L592.093 128.319 L592.093 133.713 L587.834 133.713 L587.834 128.319 Z" fill="#000000" fill-rule="nonzero" fill-opacity="1" /><path clip-path="url(#clip540)" d="M611.051 141.398 Q607.626 141.398 605.635 144.083 Q603.644 146.745 603.644 151.398 Q603.644 156.051 605.612 158.736 Q607.602 161.398 611.051 161.398 Q614.454 161.398 616.445 158.713 Q618.436 156.027 618.436 151.398 Q618.436 146.791 616.445 144.106 Q614.454 141.398 611.051 141.398 M611.051 137.787 Q616.607 137.787 619.778 141.398 Q622.95 145.009 622.95 151.398 Q622.95 157.764 619.778 161.398 Q616.607 165.009 611.051 165.009 Q605.473 165.009 602.302 161.398 Q599.153 157.764 599.153 151.398 Q599.153 145.009 602.302 141.398 Q605.473 137.787 611.051 137.787 Z" fill="#000000" fill-rule="nonzero" fill-opacity="1" /><path clip-path="url(#clip540)" d="M651.561 148.689 L651.561 164.338 L647.301 164.338 L647.301 148.828 Q647.301 145.148 645.866 143.319 Q644.431 141.49 641.561 141.49 Q638.112 141.49 636.121 143.69 Q634.13 145.889 634.13 149.685 L634.13 164.338 L629.848 164.338 L629.848 138.412 L634.13 138.412 L634.13 142.44 Q635.658 140.102 637.718 138.944 Q639.801 137.787 642.51 137.787 Q646.977 137.787 649.269 140.565 Q651.561 143.319 651.561 148.689 Z" fill="#000000" fill-rule="nonzero" fill-opacity="1" /><polyline clip-path="url(#clip540)" style="stroke:#e26f46; stroke-linecap:round; stroke-linejoin:round; stroke-width:4; stroke-opacity:1; fill:none" points="253.896,198.898 400.328,198.898 "/>
<path clip-path="url(#clip540)" d="M424.733 181.618 L446.585 181.618 L446.585 185.553 L429.409 185.553 L429.409 195.784 L445.867 195.784 L445.867 199.719 L429.409 199.719 L429.409 212.242 L447.001 212.242 L447.001 216.178 L424.733 216.178 L424.733 181.618 Z" fill="#000000" fill-rule="nonzero" fill-opacity="1" /><path clip-path="url(#clip540)" d="M476.052 190.252 L466.677 202.867 L476.538 216.178 L471.515 216.178 L463.969 205.992 L456.423 216.178 L451.4 216.178 L461.469 202.613 L452.256 190.252 L457.279 190.252 L464.154 199.488 L471.029 190.252 L476.052 190.252 Z" fill="#000000" fill-rule="nonzero" fill-opacity="1" /><path clip-path="url(#clip540)" d="M494.339 203.145 Q489.177 203.145 487.186 204.326 Q485.196 205.506 485.196 208.354 Q485.196 210.622 486.677 211.965 Q488.182 213.284 490.751 213.284 Q494.293 213.284 496.422 210.784 Q498.575 208.261 498.575 204.094 L498.575 203.145 L494.339 203.145 M502.834 201.386 L502.834 216.178 L498.575 216.178 L498.575 212.242 Q497.117 214.603 494.941 215.738 Q492.765 216.849 489.617 216.849 Q485.635 216.849 483.274 214.627 Q480.936 212.381 480.936 208.631 Q480.936 204.256 483.853 202.034 Q486.793 199.812 492.603 199.812 L498.575 199.812 L498.575 199.395 Q498.575 196.455 496.631 194.858 Q494.71 193.238 491.214 193.238 Q488.992 193.238 486.885 193.77 Q484.779 194.303 482.835 195.367 L482.835 191.432 Q485.173 190.53 487.372 190.09 Q489.571 189.627 491.654 189.627 Q497.279 189.627 500.057 192.543 Q502.834 195.46 502.834 201.386 Z" fill="#000000" fill-rule="nonzero" fill-opacity="1" /><path clip-path="url(#clip540)" d="M530.265 191.247 L530.265 195.229 Q528.459 194.233 526.631 193.747 Q524.825 193.238 522.973 193.238 Q518.83 193.238 516.538 195.877 Q514.246 198.492 514.246 203.238 Q514.246 207.983 516.538 210.622 Q518.83 213.238 522.973 213.238 Q524.825 213.238 526.631 212.752 Q528.459 212.242 530.265 211.247 L530.265 215.182 Q528.482 216.016 526.561 216.432 Q524.663 216.849 522.51 216.849 Q516.654 216.849 513.205 213.168 Q509.756 209.488 509.756 203.238 Q509.756 196.895 513.228 193.261 Q516.723 189.627 522.788 189.627 Q524.756 189.627 526.631 190.043 Q528.506 190.437 530.265 191.247 Z" fill="#000000" fill-rule="nonzero" fill-opacity="1" /><path clip-path="url(#clip540)" d="M541.885 182.891 L541.885 190.252 L550.658 190.252 L550.658 193.562 L541.885 193.562 L541.885 207.636 Q541.885 210.807 542.742 211.71 Q543.621 212.613 546.283 212.613 L550.658 212.613 L550.658 216.178 L546.283 216.178 Q541.353 216.178 539.478 214.349 Q537.603 212.497 537.603 207.636 L537.603 193.562 L534.478 193.562 L534.478 190.252 L537.603 190.252 L537.603 182.891 L541.885 182.891 Z" fill="#000000" fill-rule="nonzero" fill-opacity="1" /></svg>
