<?xml version="1.0" encoding="utf-8"?>
<svg xmlns="http://www.w3.org/2000/svg" xmlns:xlink="http://www.w3.org/1999/xlink" width="600" height="400" viewBox="0 0 2400 1600">
<defs>
  <clipPath id="clip480">
    <rect x="0" y="0" width="2400" height="1600"/>
  </clipPath>
</defs>
<path clip-path="url(#clip480)" d="M0 1600 L2400 1600 L2400 0 L0 0  Z" fill="#ffffff" fill-rule="evenodd" fill-opacity="1"/>
<defs>
  <clipPath id="clip481">
    <rect x="480" y="0" width="1681" height="1600"/>
  </clipPath>
</defs>
<path clip-path="url(#clip480)" d="M192.339 1486.45 L2352.76 1486.45 L2352.76 47.2441 L192.339 47.2441  Z" fill="#ffffff" fill-rule="evenodd" fill-opacity="1"/>
<defs>
  <clipPath id="clip482">
    <rect x="192" y="47" width="2161" height="1440"/>
  </clipPath>
</defs>
<polyline clip-path="url(#clip482)" style="stroke:#000000; stroke-linecap:round; stroke-linejoin:round; stroke-width:2; stroke-opacity:0.1; fill:none" points="253.483,1486.45 253.483,47.2441 "/>
<polyline clip-path="url(#clip482)" style="stroke:#000000; stroke-linecap:round; stroke-linejoin:round; stroke-width:2; stroke-opacity:0.1; fill:none" points="763.015,1486.45 763.015,47.2441 "/>
<polyline clip-path="url(#clip482)" style="stroke:#000000; stroke-linecap:round; stroke-linejoin:round; stroke-width:2; stroke-opacity:0.1; fill:none" points="1272.55,1486.45 1272.55,47.2441 "/>
<polyline clip-path="url(#clip482)" style="stroke:#000000; stroke-linecap:round; stroke-linejoin:round; stroke-width:2; stroke-opacity:0.1; fill:none" points="1782.08,1486.45 1782.08,47.2441 "/>
<polyline clip-path="url(#clip482)" style="stroke:#000000; stroke-linecap:round; stroke-linejoin:round; stroke-width:2; stroke-opacity:0.1; fill:none" points="2291.61,1486.45 2291.61,47.2441 "/>
<polyline clip-path="url(#clip480)" style="stroke:#000000; stroke-linecap:round; stroke-linejoin:round; stroke-width:4; stroke-opacity:1; fill:none" points="192.339,1486.45 2352.76,1486.45 "/>
<polyline clip-path="url(#clip480)" style="stroke:#000000; stroke-linecap:round; stroke-linejoin:round; stroke-width:4; stroke-opacity:1; fill:none" points="253.483,1486.45 253.483,1467.55 "/>
<polyline clip-path="url(#clip480)" style="stroke:#000000; stroke-linecap:round; stroke-linejoin:round; stroke-width:4; stroke-opacity:1; fill:none" points="763.015,1486.45 763.015,1467.55 "/>
<polyline clip-path="url(#clip480)" style="stroke:#000000; stroke-linecap:round; stroke-linejoin:round; stroke-width:4; stroke-opacity:1; fill:none" points="1272.55,1486.45 1272.55,1467.55 "/>
<polyline clip-path="url(#clip480)" style="stroke:#000000; stroke-linecap:round; stroke-linejoin:round; stroke-width:4; stroke-opacity:1; fill:none" points="1782.08,1486.45 1782.08,1467.55 "/>
<polyline clip-path="url(#clip480)" style="stroke:#000000; stroke-linecap:round; stroke-linejoin:round; stroke-width:4; stroke-opacity:1; fill:none" points="2291.61,1486.45 2291.61,1467.55 "/>
<path clip-path="url(#clip480)" d="M200.011 1532.02 L229.686 1532.02 L229.686 1535.95 L200.011 1535.95 L200.011 1532.02 Z" fill="#000000" fill-rule="nonzero" fill-opacity="1" /><path clip-path="url(#clip480)" d="M240.589 1544.91 L248.228 1544.91 L248.228 1518.55 L239.918 1520.21 L239.918 1515.95 L248.182 1514.29 L252.858 1514.29 L252.858 1544.91 L260.497 1544.91 L260.497 1548.85 L240.589 1548.85 L240.589 1544.91 Z" fill="#000000" fill-rule="nonzero" fill-opacity="1" /><path clip-path="url(#clip480)" d="M269.941 1542.97 L274.825 1542.97 L274.825 1548.85 L269.941 1548.85 L269.941 1542.97 Z" fill="#000000" fill-rule="nonzero" fill-opacity="1" /><path clip-path="url(#clip480)" d="M295.01 1517.37 Q291.399 1517.37 289.57 1520.93 Q287.765 1524.47 287.765 1531.6 Q287.765 1538.71 289.57 1542.27 Q291.399 1545.82 295.01 1545.82 Q298.644 1545.82 300.45 1542.27 Q302.279 1538.71 302.279 1531.6 Q302.279 1524.47 300.45 1520.93 Q298.644 1517.37 295.01 1517.37 M295.01 1513.66 Q300.82 1513.66 303.876 1518.27 Q306.955 1522.85 306.955 1531.6 Q306.955 1540.33 303.876 1544.94 Q300.82 1549.52 295.01 1549.52 Q289.2 1549.52 286.121 1544.94 Q283.066 1540.33 283.066 1531.6 Q283.066 1522.85 286.121 1518.27 Q289.2 1513.66 295.01 1513.66 Z" fill="#000000" fill-rule="nonzero" fill-opacity="1" /><path clip-path="url(#clip480)" d="M710.041 1532.02 L739.717 1532.02 L739.717 1535.95 L710.041 1535.95 L710.041 1532.02 Z" fill="#000000" fill-rule="nonzero" fill-opacity="1" /><path clip-path="url(#clip480)" d="M759.809 1517.37 Q756.198 1517.37 754.369 1520.93 Q752.564 1524.47 752.564 1531.6 Q752.564 1538.71 754.369 1542.27 Q756.198 1545.82 759.809 1545.82 Q763.443 1545.82 765.249 1542.27 Q767.077 1538.71 767.077 1531.6 Q767.077 1524.47 765.249 1520.93 Q763.443 1517.37 759.809 1517.37 M759.809 1513.66 Q765.619 1513.66 768.675 1518.27 Q771.753 1522.85 771.753 1531.6 Q771.753 1540.33 768.675 1544.94 Q765.619 1549.52 759.809 1549.52 Q753.999 1549.52 750.92 1544.94 Q747.865 1540.33 747.865 1531.6 Q747.865 1522.85 750.92 1518.27 Q753.999 1513.66 759.809 1513.66 Z" fill="#000000" fill-rule="nonzero" fill-opacity="1" /><path clip-path="url(#clip480)" d="M779.971 1542.97 L784.855 1542.97 L784.855 1548.85 L779.971 1548.85 L779.971 1542.97 Z" fill="#000000" fill-rule="nonzero" fill-opacity="1" /><path clip-path="url(#clip480)" d="M795.087 1514.29 L813.443 1514.29 L813.443 1518.22 L799.369 1518.22 L799.369 1526.7 Q800.387 1526.35 801.406 1526.19 Q802.425 1526 803.443 1526 Q809.23 1526 812.61 1529.17 Q815.989 1532.34 815.989 1537.76 Q815.989 1543.34 812.517 1546.44 Q809.045 1549.52 802.725 1549.52 Q800.55 1549.52 798.281 1549.15 Q796.036 1548.78 793.628 1548.04 L793.628 1543.34 Q795.712 1544.47 797.934 1545.03 Q800.156 1545.58 802.633 1545.58 Q806.637 1545.58 808.975 1543.48 Q811.313 1541.37 811.313 1537.76 Q811.313 1534.15 808.975 1532.04 Q806.637 1529.94 802.633 1529.94 Q800.758 1529.94 798.883 1530.35 Q797.031 1530.77 795.087 1531.65 L795.087 1514.29 Z" fill="#000000" fill-rule="nonzero" fill-opacity="1" /><path clip-path="url(#clip480)" d="M1249.93 1517.37 Q1246.32 1517.37 1244.49 1520.93 Q1242.69 1524.47 1242.69 1531.6 Q1242.69 1538.71 1244.49 1542.27 Q1246.32 1545.82 1249.93 1545.82 Q1253.57 1545.82 1255.37 1542.27 Q1257.2 1538.71 1257.2 1531.6 Q1257.2 1524.47 1255.37 1520.93 Q1253.57 1517.37 1249.93 1517.37 M1249.93 1513.66 Q1255.74 1513.66 1258.8 1518.27 Q1261.88 1522.85 1261.88 1531.6 Q1261.88 1540.33 1258.8 1544.94 Q1255.74 1549.52 1249.93 1549.52 Q1244.12 1549.52 1241.04 1544.94 Q1237.99 1540.33 1237.99 1531.6 Q1237.99 1522.85 1241.04 1518.27 Q1244.12 1513.66 1249.93 1513.66 Z" fill="#000000" fill-rule="nonzero" fill-opacity="1" /><path clip-path="url(#clip480)" d="M1270.09 1542.97 L1274.98 1542.97 L1274.98 1548.85 L1270.09 1548.85 L1270.09 1542.97 Z" fill="#000000" fill-rule="nonzero" fill-opacity="1" /><path clip-path="url(#clip480)" d="M1295.16 1517.37 Q1291.55 1517.37 1289.72 1520.93 Q1287.92 1524.47 1287.92 1531.6 Q1287.92 1538.71 1289.72 1542.27 Q1291.55 1545.82 1295.16 1545.82 Q1298.8 1545.82 1300.6 1542.27 Q1302.43 1538.71 1302.43 1531.6 Q1302.43 1524.47 1300.6 1520.93 Q1298.8 1517.37 1295.16 1517.37 M1295.16 1513.66 Q1300.97 1513.66 1304.03 1518.27 Q1307.11 1522.85 1307.11 1531.6 Q1307.11 1540.33 1304.03 1544.94 Q1300.97 1549.52 1295.16 1549.52 Q1289.35 1549.52 1286.27 1544.94 Q1283.22 1540.33 1283.22 1531.6 Q1283.22 1522.85 1286.27 1518.27 Q1289.35 1513.66 1295.16 1513.66 Z" fill="#000000" fill-rule="nonzero" fill-opacity="1" /><path clip-path="url(#clip480)" d="M1759.96 1517.37 Q1756.35 1517.37 1754.52 1520.93 Q1752.72 1524.47 1752.72 1531.6 Q1752.72 1538.71 1754.52 1542.27 Q1756.35 1545.82 1759.96 1545.82 Q1763.6 1545.82 1765.4 1542.27 Q1767.23 1538.71 1767.23 1531.6 Q1767.23 1524.47 1765.4 1520.93 Q1763.6 1517.37 1759.96 1517.37 M1759.96 1513.66 Q1765.77 1513.66 1768.83 1518.27 Q1771.91 1522.85 1771.91 1531.6 Q1771.91 1540.33 1768.83 1544.94 Q1765.77 1549.52 1759.96 1549.52 Q1754.15 1549.52 1751.07 1544.94 Q1748.02 1540.33 1748.02 1531.6 Q1748.02 1522.85 1751.07 1518.27 Q1754.15 1513.66 1759.96 1513.66 Z" fill="#000000" fill-rule="nonzero" fill-opacity="1" /><path clip-path="url(#clip480)" d="M1780.12 1542.97 L1785.01 1542.97 L1785.01 1548.85 L1780.12 1548.85 L1780.12 1542.97 Z" fill="#000000" fill-rule="nonzero" fill-opacity="1" /><path clip-path="url(#clip480)" d="M1795.24 1514.29 L1813.6 1514.29 L1813.6 1518.22 L1799.52 1518.22 L1799.52 1526.7 Q1800.54 1526.35 1801.56 1526.19 Q1802.58 1526 1803.6 1526 Q1809.38 1526 1812.76 1529.17 Q1816.14 1532.34 1816.14 1537.76 Q1816.14 1543.34 1812.67 1546.44 Q1809.2 1549.52 1802.88 1549.52 Q1800.7 1549.52 1798.43 1549.15 Q1796.19 1548.78 1793.78 1548.04 L1793.78 1543.34 Q1795.86 1544.47 1798.09 1545.03 Q1800.31 1545.58 1802.79 1545.58 Q1806.79 1545.58 1809.13 1543.48 Q1811.47 1541.37 1811.47 1537.76 Q1811.47 1534.15 1809.13 1532.04 Q1806.79 1529.94 1802.79 1529.94 Q1800.91 1529.94 1799.04 1530.35 Q1797.18 1530.77 1795.24 1531.65 L1795.24 1514.29 Z" fill="#000000" fill-rule="nonzero" fill-opacity="1" /><path clip-path="url(#clip480)" d="M2258.76 1544.91 L2266.4 1544.91 L2266.4 1518.55 L2258.09 1520.21 L2258.09 1515.95 L2266.36 1514.29 L2271.03 1514.29 L2271.03 1544.91 L2278.67 1544.91 L2278.67 1548.85 L2258.76 1548.85 L2258.76 1544.91 Z" fill="#000000" fill-rule="nonzero" fill-opacity="1" /><path clip-path="url(#clip480)" d="M2288.12 1542.97 L2293 1542.97 L2293 1548.85 L2288.12 1548.85 L2288.12 1542.97 Z" fill="#000000" fill-rule="nonzero" fill-opacity="1" /><path clip-path="url(#clip480)" d="M2313.19 1517.37 Q2309.57 1517.37 2307.75 1520.93 Q2305.94 1524.47 2305.94 1531.6 Q2305.94 1538.71 2307.75 1542.27 Q2309.57 1545.82 2313.19 1545.82 Q2316.82 1545.82 2318.63 1542.27 Q2320.45 1538.71 2320.45 1531.6 Q2320.45 1524.47 2318.63 1520.93 Q2316.82 1517.37 2313.19 1517.37 M2313.19 1513.66 Q2319 1513.66 2322.05 1518.27 Q2325.13 1522.85 2325.13 1531.6 Q2325.13 1540.33 2322.05 1544.94 Q2319 1549.52 2313.19 1549.52 Q2307.38 1549.52 2304.3 1544.94 Q2301.24 1540.33 2301.24 1531.6 Q2301.24 1522.85 2304.3 1518.27 Q2307.38 1513.66 2313.19 1513.66 Z" fill="#000000" fill-rule="nonzero" fill-opacity="1" /><polyline clip-path="url(#clip482)" style="stroke:#000000; stroke-linecap:round; stroke-linejoin:round; stroke-width:2; stroke-opacity:0.1; fill:none" points="192.339,1358.16 2352.76,1358.16 "/>
<polyline clip-path="url(#clip482)" style="stroke:#000000; stroke-linecap:round; stroke-linejoin:round; stroke-width:2; stroke-opacity:0.1; fill:none" points="192.339,1186.32 2352.76,1186.32 "/>
<polyline clip-path="url(#clip482)" style="stroke:#000000; stroke-linecap:round; stroke-linejoin:round; stroke-width:2; stroke-opacity:0.1; fill:none" points="192.339,1014.48 2352.76,1014.48 "/>
<polyline clip-path="url(#clip482)" style="stroke:#000000; stroke-linecap:round; stroke-linejoin:round; stroke-width:2; stroke-opacity:0.1; fill:none" points="192.339,842.635 2352.76,842.635 "/>
<polyline clip-path="url(#clip482)" style="stroke:#000000; stroke-linecap:round; stroke-linejoin:round; stroke-width:2; stroke-opacity:0.1; fill:none" points="192.339,670.793 2352.76,670.793 "/>
<polyline clip-path="url(#clip482)" style="stroke:#000000; stroke-linecap:round; stroke-linejoin:round; stroke-width:2; stroke-opacity:0.1; fill:none" points="192.339,498.95 2352.76,498.95 "/>
<polyline clip-path="url(#clip482)" style="stroke:#000000; stroke-linecap:round; stroke-linejoin:round; stroke-width:2; stroke-opacity:0.1; fill:none" points="192.339,327.108 2352.76,327.108 "/>
<polyline clip-path="url(#clip482)" style="stroke:#000000; stroke-linecap:round; stroke-linejoin:round; stroke-width:2; stroke-opacity:0.1; fill:none" points="192.339,155.265 2352.76,155.265 "/>
<polyline clip-path="url(#clip480)" style="stroke:#000000; stroke-linecap:round; stroke-linejoin:round; stroke-width:4; stroke-opacity:1; fill:none" points="192.339,1486.45 192.339,47.2441 "/>
<polyline clip-path="url(#clip480)" style="stroke:#000000; stroke-linecap:round; stroke-linejoin:round; stroke-width:4; stroke-opacity:1; fill:none" points="192.339,1358.16 211.236,1358.16 "/>
<polyline clip-path="url(#clip480)" style="stroke:#000000; stroke-linecap:round; stroke-linejoin:round; stroke-width:4; stroke-opacity:1; fill:none" points="192.339,1186.32 211.236,1186.32 "/>
<polyline clip-path="url(#clip480)" style="stroke:#000000; stroke-linecap:round; stroke-linejoin:round; stroke-width:4; stroke-opacity:1; fill:none" points="192.339,1014.48 211.236,1014.48 "/>
<polyline clip-path="url(#clip480)" style="stroke:#000000; stroke-linecap:round; stroke-linejoin:round; stroke-width:4; stroke-opacity:1; fill:none" points="192.339,842.635 211.236,842.635 "/>
<polyline clip-path="url(#clip480)" style="stroke:#000000; stroke-linecap:round; stroke-linejoin:round; stroke-width:4; stroke-opacity:1; fill:none" points="192.339,670.793 211.236,670.793 "/>
<polyline clip-path="url(#clip480)" style="stroke:#000000; stroke-linecap:round; stroke-linejoin:round; stroke-width:4; stroke-opacity:1; fill:none" points="192.339,498.95 211.236,498.95 "/>
<polyline clip-path="url(#clip480)" style="stroke:#000000; stroke-linecap:round; stroke-linejoin:round; stroke-width:4; stroke-opacity:1; fill:none" points="192.339,327.108 211.236,327.108 "/>
<polyline clip-path="url(#clip480)" style="stroke:#000000; stroke-linecap:round; stroke-linejoin:round; stroke-width:4; stroke-opacity:1; fill:none" points="192.339,155.265 211.236,155.265 "/>
<path clip-path="url(#clip480)" d="M50.9921 1358.61 L80.6679 1358.61 L80.6679 1362.55 L50.9921 1362.55 L50.9921 1358.61 Z" fill="#000000" fill-rule="nonzero" fill-opacity="1" /><path clip-path="url(#clip480)" d="M100.76 1343.96 Q97.1493 1343.96 95.3206 1347.53 Q93.515 1351.07 93.515 1358.2 Q93.515 1365.3 95.3206 1368.87 Q97.1493 1372.41 100.76 1372.41 Q104.395 1372.41 106.2 1368.87 Q108.029 1365.3 108.029 1358.2 Q108.029 1351.07 106.2 1347.53 Q104.395 1343.96 100.76 1343.96 M100.76 1340.26 Q106.571 1340.26 109.626 1344.86 Q112.705 1349.45 112.705 1358.2 Q112.705 1366.92 109.626 1371.53 Q106.571 1376.11 100.76 1376.11 Q94.9502 1376.11 91.8715 1371.53 Q88.816 1366.92 88.816 1358.2 Q88.816 1349.45 91.8715 1344.86 Q94.9502 1340.26 100.76 1340.26 Z" fill="#000000" fill-rule="nonzero" fill-opacity="1" /><path clip-path="url(#clip480)" d="M120.922 1369.56 L125.807 1369.56 L125.807 1375.44 L120.922 1375.44 L120.922 1369.56 Z" fill="#000000" fill-rule="nonzero" fill-opacity="1" /><path clip-path="url(#clip480)" d="M140.019 1371.51 L156.339 1371.51 L156.339 1375.44 L134.394 1375.44 L134.394 1371.51 Q137.056 1368.75 141.64 1364.12 Q146.246 1359.47 147.427 1358.13 Q149.672 1355.6 150.552 1353.87 Q151.455 1352.11 151.455 1350.42 Q151.455 1347.66 149.51 1345.93 Q147.589 1344.19 144.487 1344.19 Q142.288 1344.19 139.834 1344.96 Q137.404 1345.72 134.626 1347.27 L134.626 1342.55 Q137.45 1341.41 139.904 1340.84 Q142.357 1340.26 144.394 1340.26 Q149.765 1340.26 152.959 1342.94 Q156.154 1345.63 156.154 1350.12 Q156.154 1352.25 155.343 1354.17 Q154.556 1356.07 152.45 1358.66 Q151.871 1359.33 148.769 1362.55 Q145.668 1365.74 140.019 1371.51 Z" fill="#000000" fill-rule="nonzero" fill-opacity="1" /><path clip-path="url(#clip480)" d="M99.1632 1172.12 Q95.5521 1172.12 93.7234 1175.68 Q91.9178 1179.23 91.9178 1186.35 Q91.9178 1193.46 93.7234 1197.03 Q95.5521 1200.57 99.1632 1200.57 Q102.797 1200.57 104.603 1197.03 Q106.432 1193.46 106.432 1186.35 Q106.432 1179.23 104.603 1175.68 Q102.797 1172.12 99.1632 1172.12 M99.1632 1168.42 Q104.973 1168.42 108.029 1173.02 Q111.108 1177.6 111.108 1186.35 Q111.108 1195.08 108.029 1199.69 Q104.973 1204.27 99.1632 1204.27 Q93.353 1204.27 90.2743 1199.69 Q87.2188 1195.08 87.2188 1186.35 Q87.2188 1177.6 90.2743 1173.02 Q93.353 1168.42 99.1632 1168.42 Z" fill="#000000" fill-rule="nonzero" fill-opacity="1" /><path clip-path="url(#clip480)" d="M119.325 1197.72 L124.209 1197.72 L124.209 1203.6 L119.325 1203.6 L119.325 1197.72 Z" fill="#000000" fill-rule="nonzero" fill-opacity="1" /><path clip-path="url(#clip480)" d="M144.394 1172.12 Q140.783 1172.12 138.955 1175.68 Q137.149 1179.23 137.149 1186.35 Q137.149 1193.46 138.955 1197.03 Q140.783 1200.57 144.394 1200.57 Q148.029 1200.57 149.834 1197.03 Q151.663 1193.46 151.663 1186.35 Q151.663 1179.23 149.834 1175.68 Q148.029 1172.12 144.394 1172.12 M144.394 1168.42 Q150.205 1168.42 153.26 1173.02 Q156.339 1177.6 156.339 1186.35 Q156.339 1195.08 153.26 1199.69 Q150.205 1204.27 144.394 1204.27 Q138.584 1204.27 135.506 1199.69 Q132.45 1195.08 132.45 1186.35 Q132.45 1177.6 135.506 1173.02 Q138.584 1168.42 144.394 1168.42 Z" fill="#000000" fill-rule="nonzero" fill-opacity="1" /><path clip-path="url(#clip480)" d="M100.76 1000.28 Q97.1493 1000.28 95.3206 1003.84 Q93.515 1007.38 93.515 1014.51 Q93.515 1021.62 95.3206 1025.18 Q97.1493 1028.73 100.76 1028.73 Q104.395 1028.73 106.2 1025.18 Q108.029 1021.62 108.029 1014.51 Q108.029 1007.38 106.2 1003.84 Q104.395 1000.28 100.76 1000.28 M100.76 996.573 Q106.571 996.573 109.626 1001.18 Q112.705 1005.76 112.705 1014.51 Q112.705 1023.24 109.626 1027.85 Q106.571 1032.43 100.76 1032.43 Q94.9502 1032.43 91.8715 1027.85 Q88.816 1023.24 88.816 1014.51 Q88.816 1005.76 91.8715 1001.18 Q94.9502 996.573 100.76 996.573 Z" fill="#000000" fill-rule="nonzero" fill-opacity="1" /><path clip-path="url(#clip480)" d="M120.922 1025.88 L125.807 1025.88 L125.807 1031.76 L120.922 1031.76 L120.922 1025.88 Z" fill="#000000" fill-rule="nonzero" fill-opacity="1" /><path clip-path="url(#clip480)" d="M140.019 1027.82 L156.339 1027.82 L156.339 1031.76 L134.394 1031.76 L134.394 1027.82 Q137.056 1025.07 141.64 1020.44 Q146.246 1015.79 147.427 1014.44 Q149.672 1011.92 150.552 1010.18 Q151.455 1008.42 151.455 1006.73 Q151.455 1003.98 149.51 1002.24 Q147.589 1000.51 144.487 1000.51 Q142.288 1000.51 139.834 1001.27 Q137.404 1002.04 134.626 1003.59 L134.626 998.864 Q137.45 997.73 139.904 997.151 Q142.357 996.573 144.394 996.573 Q149.765 996.573 152.959 999.258 Q156.154 1001.94 156.154 1006.43 Q156.154 1008.56 155.343 1010.48 Q154.556 1012.38 152.45 1014.98 Q151.871 1015.65 148.769 1018.86 Q145.668 1022.06 140.019 1027.82 Z" fill="#000000" fill-rule="nonzero" fill-opacity="1" /><path clip-path="url(#clip480)" d="M98.6771 828.434 Q95.066 828.434 93.2373 831.999 Q91.4317 835.54 91.4317 842.67 Q91.4317 849.776 93.2373 853.341 Q95.066 856.883 98.6771 856.883 Q102.311 856.883 104.117 853.341 Q105.946 849.776 105.946 842.67 Q105.946 835.54 104.117 831.999 Q102.311 828.434 98.6771 828.434 M98.6771 824.73 Q104.487 824.73 107.543 829.337 Q110.621 833.92 110.621 842.67 Q110.621 851.397 107.543 856.003 Q104.487 860.586 98.6771 860.586 Q92.8669 860.586 89.7882 856.003 Q86.7327 851.397 86.7327 842.67 Q86.7327 833.92 89.7882 829.337 Q92.8669 824.73 98.6771 824.73 Z" fill="#000000" fill-rule="nonzero" fill-opacity="1" /><path clip-path="url(#clip480)" d="M118.839 854.036 L123.723 854.036 L123.723 859.915 L118.839 859.915 L118.839 854.036 Z" fill="#000000" fill-rule="nonzero" fill-opacity="1" /><path clip-path="url(#clip480)" d="M146.756 829.429 L134.95 847.878 L146.756 847.878 L146.756 829.429 M145.529 825.355 L151.408 825.355 L151.408 847.878 L156.339 847.878 L156.339 851.767 L151.408 851.767 L151.408 859.915 L146.756 859.915 L146.756 851.767 L131.154 851.767 L131.154 847.253 L145.529 825.355 Z" fill="#000000" fill-rule="nonzero" fill-opacity="1" /><path clip-path="url(#clip480)" d="M99.0011 656.591 Q95.39 656.591 93.5613 660.156 Q91.7558 663.698 91.7558 670.827 Q91.7558 677.934 93.5613 681.499 Q95.39 685.04 99.0011 685.04 Q102.635 685.04 104.441 681.499 Q106.27 677.934 106.27 670.827 Q106.27 663.698 104.441 660.156 Q102.635 656.591 99.0011 656.591 M99.0011 652.888 Q104.811 652.888 107.867 657.494 Q110.946 662.078 110.946 670.827 Q110.946 679.554 107.867 684.161 Q104.811 688.744 99.0011 688.744 Q93.191 688.744 90.1123 684.161 Q87.0567 679.554 87.0567 670.827 Q87.0567 662.078 90.1123 657.494 Q93.191 652.888 99.0011 652.888 Z" fill="#000000" fill-rule="nonzero" fill-opacity="1" /><path clip-path="url(#clip480)" d="M119.163 682.193 L124.047 682.193 L124.047 688.073 L119.163 688.073 L119.163 682.193 Z" fill="#000000" fill-rule="nonzero" fill-opacity="1" /><path clip-path="url(#clip480)" d="M144.811 668.929 Q141.663 668.929 139.811 671.082 Q137.982 673.235 137.982 676.985 Q137.982 680.712 139.811 682.888 Q141.663 685.04 144.811 685.04 Q147.959 685.04 149.788 682.888 Q151.64 680.712 151.64 676.985 Q151.64 673.235 149.788 671.082 Q147.959 668.929 144.811 668.929 M154.093 654.277 L154.093 658.536 Q152.334 657.703 150.529 657.263 Q148.746 656.823 146.987 656.823 Q142.357 656.823 139.904 659.948 Q137.473 663.073 137.126 669.392 Q138.492 667.378 140.552 666.314 Q142.612 665.226 145.089 665.226 Q150.297 665.226 153.306 668.397 Q156.339 671.545 156.339 676.985 Q156.339 682.309 153.191 685.526 Q150.043 688.744 144.811 688.744 Q138.816 688.744 135.644 684.161 Q132.473 679.554 132.473 670.827 Q132.473 662.633 136.362 657.772 Q140.251 652.888 146.802 652.888 Q148.561 652.888 150.343 653.235 Q152.149 653.582 154.093 654.277 Z" fill="#000000" fill-rule="nonzero" fill-opacity="1" /><path clip-path="url(#clip480)" d="M99.2558 484.749 Q95.6447 484.749 93.816 488.314 Q92.0104 491.855 92.0104 498.985 Q92.0104 506.091 93.816 509.656 Q95.6447 513.198 99.2558 513.198 Q102.89 513.198 104.696 509.656 Q106.524 506.091 106.524 498.985 Q106.524 491.855 104.696 488.314 Q102.89 484.749 99.2558 484.749 M99.2558 481.045 Q105.066 481.045 108.121 485.652 Q111.2 490.235 111.2 498.985 Q111.2 507.712 108.121 512.318 Q105.066 516.902 99.2558 516.902 Q93.4456 516.902 90.3669 512.318 Q87.3114 507.712 87.3114 498.985 Q87.3114 490.235 90.3669 485.652 Q93.4456 481.045 99.2558 481.045 Z" fill="#000000" fill-rule="nonzero" fill-opacity="1" /><path clip-path="url(#clip480)" d="M119.418 510.351 L124.302 510.351 L124.302 516.23 L119.418 516.23 L119.418 510.351 Z" fill="#000000" fill-rule="nonzero" fill-opacity="1" /><path clip-path="url(#clip480)" d="M144.487 499.818 Q141.154 499.818 139.232 501.601 Q137.334 503.383 137.334 506.508 Q137.334 509.633 139.232 511.416 Q141.154 513.198 144.487 513.198 Q147.82 513.198 149.742 511.416 Q151.663 509.61 151.663 506.508 Q151.663 503.383 149.742 501.601 Q147.843 499.818 144.487 499.818 M139.811 497.828 Q136.802 497.087 135.112 495.027 Q133.445 492.967 133.445 490.004 Q133.445 485.86 136.385 483.453 Q139.348 481.045 144.487 481.045 Q149.649 481.045 152.589 483.453 Q155.529 485.86 155.529 490.004 Q155.529 492.967 153.839 495.027 Q152.172 497.087 149.186 497.828 Q152.566 498.615 154.441 500.906 Q156.339 503.198 156.339 506.508 Q156.339 511.531 153.26 514.216 Q150.205 516.902 144.487 516.902 Q138.769 516.902 135.691 514.216 Q132.635 511.531 132.635 506.508 Q132.635 503.198 134.533 500.906 Q136.431 498.615 139.811 497.828 M138.098 490.443 Q138.098 493.129 139.765 494.633 Q141.455 496.138 144.487 496.138 Q147.496 496.138 149.186 494.633 Q150.899 493.129 150.899 490.443 Q150.899 487.758 149.186 486.254 Q147.496 484.749 144.487 484.749 Q141.455 484.749 139.765 486.254 Q138.098 487.758 138.098 490.443 Z" fill="#000000" fill-rule="nonzero" fill-opacity="1" /><path clip-path="url(#clip480)" d="M89.9734 340.453 L97.6122 340.453 L97.6122 314.087 L89.3021 315.754 L89.3021 311.495 L97.566 309.828 L102.242 309.828 L102.242 340.453 L109.881 340.453 L109.881 344.388 L89.9734 344.388 L89.9734 340.453 Z" fill="#000000" fill-rule="nonzero" fill-opacity="1" /><path clip-path="url(#clip480)" d="M119.325 338.508 L124.209 338.508 L124.209 344.388 L119.325 344.388 L119.325 338.508 Z" fill="#000000" fill-rule="nonzero" fill-opacity="1" /><path clip-path="url(#clip480)" d="M144.394 312.907 Q140.783 312.907 138.955 316.471 Q137.149 320.013 137.149 327.143 Q137.149 334.249 138.955 337.814 Q140.783 341.355 144.394 341.355 Q148.029 341.355 149.834 337.814 Q151.663 334.249 151.663 327.143 Q151.663 320.013 149.834 316.471 Q148.029 312.907 144.394 312.907 M144.394 309.203 Q150.205 309.203 153.26 313.809 Q156.339 318.393 156.339 327.143 Q156.339 335.869 153.26 340.476 Q150.205 345.059 144.394 345.059 Q138.584 345.059 135.506 340.476 Q132.45 335.869 132.45 327.143 Q132.45 318.393 135.506 313.809 Q138.584 309.203 144.394 309.203 Z" fill="#000000" fill-rule="nonzero" fill-opacity="1" /><path clip-path="url(#clip480)" d="M91.5706 168.61 L99.2095 168.61 L99.2095 142.245 L90.8993 143.911 L90.8993 139.652 L99.1632 137.985 L103.839 137.985 L103.839 168.61 L111.478 168.61 L111.478 172.545 L91.5706 172.545 L91.5706 168.61 Z" fill="#000000" fill-rule="nonzero" fill-opacity="1" /><path clip-path="url(#clip480)" d="M120.922 166.666 L125.807 166.666 L125.807 172.545 L120.922 172.545 L120.922 166.666 Z" fill="#000000" fill-rule="nonzero" fill-opacity="1" /><path clip-path="url(#clip480)" d="M140.019 168.61 L156.339 168.61 L156.339 172.545 L134.394 172.545 L134.394 168.61 Q137.056 165.856 141.64 161.226 Q146.246 156.573 147.427 155.231 Q149.672 152.708 150.552 150.971 Q151.455 149.212 151.455 147.522 Q151.455 144.768 149.51 143.032 Q147.589 141.296 144.487 141.296 Q142.288 141.296 139.834 142.059 Q137.404 142.823 134.626 144.374 L134.626 139.652 Q137.45 138.518 139.904 137.939 Q142.357 137.36 144.394 137.36 Q149.765 137.36 152.959 140.046 Q156.154 142.731 156.154 147.221 Q156.154 149.351 155.343 151.272 Q154.556 153.171 152.45 155.763 Q151.871 156.434 148.769 159.652 Q145.668 162.846 140.019 168.61 Z" fill="#000000" fill-rule="nonzero" fill-opacity="1" /><polyline clip-path="url(#clip482)" style="stroke:#009af9; stroke-linecap:round; stroke-linejoin:round; stroke-width:16; stroke-opacity:1; fill:none" stroke-dasharray="8, 16" points="253.483,1057.27 263.725,1048.98 273.966,1019.63 284.208,1003.98 294.45,1013.31 304.692,1036.3 314.934,1055.83 325.176,1060.03 335.418,1059.07 345.659,1091.39 355.901,1170.34 366.143,1225.76 376.385,1186.73 386.627,1101.68 396.869,1077.41 407.111,1148.39 417.352,1264.55 427.594,1341.95 437.836,1352.63 448.078,1345.48 458.32,1351.78 468.562,1361.41 478.803,1366.2 489.045,1366.67 499.287,1348.72 509.529,1296.18 519.771,1233.14 530.013,1205.45 540.255,1222.93 550.497,1248.22 560.738,1242.67 570.98,1199.45 581.222,1140.04 591.464,1087.46 601.706,1052.11 611.948,1034.63 622.19,1028.05 632.431,1029.63 642.673,1043.79 652.915,1052.09 663.157,1034.92 673.399,1022.51 683.641,1033.46 693.882,1058.15 704.124,1088.73 714.366,1110.38 724.608,1121.63 734.85,1139.23 745.092,1180.35 755.334,1246.21 765.575,1310.72 775.817,1342.85 786.059,1342.12 796.301,1323.87 806.543,1296.28 816.785,1281.83 827.027,1307.56 837.268,1365.58 847.51,1421.79 857.752,1436.85 867.994,1386.26 878.236,1288.03 888.478,1198.9 898.72,1161 908.961,1165.86 919.203,1179.96 929.445,1183.77 939.687,1168.24 949.929,1126.49 960.171,1068.66 970.413,1020.66 980.654,1001.52 990.896,1006.91 1001.14,1014.59 1011.38,1013.57 1021.62,1015.47 1031.86,1028.47 1042.11,1048.12 1052.35,1073.56 1062.59,1104.29 1072.83,1131.97 1083.07,1154.08 1093.31,1166.43 1103.56,1159.23 1113.8,1161.29 1124.04,1241.16 1134.28,1374.91 1144.52,1445.72 1154.77,1429.69 1165.01,1373.09 1175.25,1317.67 1185.49,1287.04 1195.73,1287.75 1205.98,1319.03 1216.22,1374.25 1226.46,1424.9 1236.7,1428.04 1246.94,1345.41 1257.18,1063.36 1267.43,575.503 1277.67,358.34 1287.91,345.946 1298.15,308.838 1308.39,284.138 1318.64,281.004 1328.88,315.301 1339.12,359.475 1349.36,383.149 1359.6,375.867 1369.84,340.097 1380.09,291.474 1390.33,255.11 1400.57,252.232 1410.81,289.038 1421.05,330.559 1431.3,331.257 1441.54,325.683 1451.78,349.346 1462.02,370.829 1472.26,352.553 1482.51,310.669 1492.75,281.589 1502.99,275.274 1513.23,288.444 1523.47,310.711 1533.71,326.192 1543.96,342.465 1554.2,380.431 1564.44,423.169 1574.68,428.648 1584.92,377.743 1595.17,290.494 1605.41,214.004 1615.65,193.27 1625.89,236.896 1636.13,312.16 1646.38,375.504 1656.62,396.769 1666.86,378.864 1677.1,354.77 1687.34,348.126 1697.58,357.274 1707.83,370.77 1718.07,370.192 1728.31,336.959 1738.55,274.698 1748.79,217.054 1759.04,192.109 1769.28,209.628 1779.52,281.023 1789.76,394.968 1800,494.707 1810.24,524.546 1820.49,474.69 1830.73,375.056 1840.97,274.083 1851.21,206.999 1861.45,178.154 1871.7,185.655 1881.94,219.603 1892.18,276.983 1902.42,367.058 1912.66,453.237 1922.91,492.803 1933.15,481.251 1943.39,424.457 1953.63,335.4 1963.87,240.944 1974.11,168.077 1984.36,136.14 1994.6,161.772 2004.84,260.017 2015.08,413.538 2025.32,535.662 2035.57,552.479 2045.81,497.243 2056.05,425.471 2066.29,343.973 2076.53,260.902 2086.77,202.544 2097.02,174.323 2107.26,161.115 2117.5,181.877 2127.74,281.416 2137.98,440.839 2148.23,581.939 2158.47,622.167 2168.71,516.46 2178.95,332.502 2189.19,196.46 2199.44,143.635 2209.68,144.333 2219.92,179.108 2230.16,228.78 2240.4,277.351 2250.64,319.59 2260.89,360.849 2271.13,411.906 2281.37,475.685 2291.61,540.874 "/>
<polyline clip-path="url(#clip482)" style="stroke:#e26f46; stroke-linecap:round; stroke-linejoin:round; stroke-width:4; stroke-opacity:1; fill:none" points="253.483,1057.27 263.725,1038.96 273.966,1025.46 284.208,1017.21 294.45,1014.48 304.692,1017.36 314.934,1025.75 325.176,1039.38 335.418,1057.81 345.659,1080.43 355.901,1106.51 366.143,1135.19 376.385,1165.55 386.627,1196.58 396.869,1227.27 407.111,1256.63 417.352,1283.69 427.594,1307.58 437.836,1327.51 448.078,1342.83 458.32,1353.04 468.562,1357.81 478.803,1356.99 489.045,1350.59 499.287,1338.83 509.529,1322.1 519.771,1300.93 530.013,1276.02 540.255,1248.19 550.497,1218.33 560.738,1187.44 570.98,1156.5 581.222,1126.54 591.464,1098.53 601.706,1073.38 611.948,1051.92 622.19,1034.85 632.431,1022.72 642.673,1015.93 652.915,1014.7 663.157,1019.07 673.399,1028.9 683.641,1043.87 693.882,1063.49 704.124,1087.11 714.366,1113.98 724.608,1143.2 734.85,1173.84 745.092,1204.88 755.334,1235.31 765.575,1264.15 775.817,1290.44 786.059,1313.34 796.301,1332.09 806.543,1346.08 816.785,1354.86 827.027,1358.14 837.268,1355.81 847.51,1347.95 857.752,1334.82 867.994,1316.83 878.236,1294.59 888.478,1268.82 898.72,1240.35 908.961,1210.12 919.203,1179.11 929.445,1148.34 939.687,1118.8 949.929,1091.47 960.171,1067.24 970.413,1046.89 980.654,1031.09 990.896,1020.36 1001.14,1015.05 1011.38,1015.32 1021.62,1021.18 1031.86,1032.43 1042.11,1048.7 1052.35,1069.46 1062.59,1094.03 1072.83,1121.62 1083.07,1151.31 1093.31,1182.16 1103.56,1213.13 1113.8,1243.23 1124.04,1271.48 1134.28,1296.94 1144.52,1318.8 1154.77,1336.33 1165.01,1348.96 1175.25,1356.29 1185.49,1358.07 1195.73,1354.24 1205.98,1344.94 1216.22,1330.45 1226.46,1311.26 1236.7,1288 1246.94,1261.42 1257.18,1232.38 1267.43,1201.84 1277.67,325.86 1287.91,324.44 1298.15,325.732 1308.39,330.035 1318.64,336.029 1328.88,341.182 1339.12,342.707 1349.36,338.743 1359.6,329.291 1369.84,316.55 1380.09,304.425 1390.33,297.342 1400.57,298.701 1410.81,309.508 1421.05,327.685 1431.3,348.372 1441.54,365.218 1451.78,372.323 1462.02,366.241 1472.26,347.367 1482.51,320.221 1492.75,292.4 1502.99,272.46 1513.23,267.295 1523.47,279.817 1533.71,307.714 1543.96,343.742 1554.2,377.587 1564.44,398.812 1574.68,400.07 1584.92,379.563 1595.17,341.981 1605.41,297.493 1615.65,259.011 1625.89,238.44 1636.13,243.014 1646.38,272.838 1656.62,320.449 1666.86,372.644 1677.1,414.133 1687.34,432.02 1697.58,419.788 1707.83,379.566 1718.07,321.915 1728.31,263.084 1738.55,220.427 1748.79,207.289 1759.04,228.862 1769.28,280.279 1779.52,347.637 1789.76,411.737 1800,453.557 1810.24,459.891 1820.49,427.487 1830.73,364.391 1840.97,288 1851.21,220.273 1861.45,181.418 1871.7,183.875 1881.94,228.367 1892.18,303.291 1902.42,387.704 1912.66,457.177 1922.91,490.865 1933.15,477.747 1943.39,420.181 1953.63,333.63 1963.87,242.53 1974.11,173.394 1984.36,147.096 1994.6,172.581 2004.84,243.901 2015.08,341.523 2025.32,437.67 2035.57,504.223 2045.81,520.94 2056.05,481.595 2066.29,396.178 2076.53,288.399 2086.77,189.117 2097.02,127.505 2107.26,122.479 2117.5,176.918 2127.74,276.423 2137.98,393.094 2148.23,493.355 2158.47,547.607 2168.71,538.969 2178.95,468.495 2189.19,355.283 2199.44,231.318 2209.68,132.439 2219.92,87.9763 2230.16,112.063 2240.4,199.181 2250.64,325.344 2260.89,454.688 2271.13,549.672 2281.37,581.959 2291.61,540.874 "/>
<path clip-path="url(#clip480)" d="M264.353 250.738 L707.222 250.738 L707.222 95.2176 L264.353 95.2176  Z" fill="#ffffff" fill-rule="evenodd" fill-opacity="1"/>
<polyline clip-path="url(#clip480)" style="stroke:#000000; stroke-linecap:round; stroke-linejoin:round; stroke-width:4; stroke-opacity:1; fill:none" points="264.353,250.738 707.222,250.738 707.222,95.2176 264.353,95.2176 264.353,250.738 "/>
<polyline clip-path="url(#clip480)" style="stroke:#009af9; stroke-linecap:round; stroke-linejoin:round; stroke-width:16; stroke-opacity:1; fill:none" stroke-dasharray="8, 16" points="288.357,147.058 432.385,147.058 "/>
<path clip-path="url(#clip480)" d="M461.066 133.62 L461.066 146.606 L466.945 146.606 Q470.209 146.606 471.992 144.916 Q473.774 143.227 473.774 140.102 Q473.774 137 471.992 135.31 Q470.209 133.62 466.945 133.62 L461.066 133.62 M456.39 129.778 L466.945 129.778 Q472.755 129.778 475.718 132.416 Q478.704 135.032 478.704 140.102 Q478.704 145.217 475.718 147.833 Q472.755 150.449 466.945 150.449 L461.066 150.449 L461.066 164.338 L456.39 164.338 L456.39 129.778 Z" fill="#000000" fill-rule="nonzero" fill-opacity="1" /><path clip-path="url(#clip480)" d="M498.982 142.393 Q498.265 141.977 497.408 141.791 Q496.575 141.583 495.556 141.583 Q491.945 141.583 490.001 143.944 Q488.079 146.282 488.079 150.68 L488.079 164.338 L483.797 164.338 L483.797 138.412 L488.079 138.412 L488.079 142.44 Q489.422 140.078 491.575 138.944 Q493.728 137.787 496.806 137.787 Q497.246 137.787 497.778 137.856 Q498.311 137.903 498.959 138.018 L498.982 142.393 Z" fill="#000000" fill-rule="nonzero" fill-opacity="1" /><path clip-path="url(#clip480)" d="M524.584 150.31 L524.584 152.393 L505.001 152.393 Q505.278 156.791 507.639 159.106 Q510.024 161.398 514.26 161.398 Q516.714 161.398 519.005 160.796 Q521.32 160.194 523.588 158.99 L523.588 163.018 Q521.297 163.99 518.889 164.5 Q516.482 165.009 514.005 165.009 Q507.802 165.009 504.167 161.398 Q500.556 157.787 500.556 151.629 Q500.556 145.264 503.982 141.537 Q507.431 137.787 513.264 137.787 Q518.496 137.787 521.528 141.166 Q524.584 144.523 524.584 150.31 M520.325 149.06 Q520.278 145.565 518.357 143.481 Q516.459 141.398 513.311 141.398 Q509.746 141.398 507.593 143.412 Q505.464 145.426 505.14 149.083 L520.325 149.06 Z" fill="#000000" fill-rule="nonzero" fill-opacity="1" /><path clip-path="url(#clip480)" d="M548.635 142.347 L548.635 128.319 L552.894 128.319 L552.894 164.338 L548.635 164.338 L548.635 160.449 Q547.292 162.763 545.232 163.898 Q543.195 165.009 540.325 165.009 Q535.625 165.009 532.663 161.259 Q529.723 157.509 529.723 151.398 Q529.723 145.287 532.663 141.537 Q535.625 137.787 540.325 137.787 Q543.195 137.787 545.232 138.921 Q547.292 140.032 548.635 142.347 M534.121 151.398 Q534.121 156.097 536.042 158.782 Q537.987 161.444 541.366 161.444 Q544.746 161.444 546.69 158.782 Q548.635 156.097 548.635 151.398 Q548.635 146.699 546.69 144.037 Q544.746 141.352 541.366 141.352 Q537.987 141.352 536.042 144.037 Q534.121 146.699 534.121 151.398 Z" fill="#000000" fill-rule="nonzero" fill-opacity="1" /><path clip-path="url(#clip480)" d="M561.667 138.412 L565.926 138.412 L565.926 164.338 L561.667 164.338 L561.667 138.412 M561.667 128.319 L565.926 128.319 L565.926 133.713 L561.667 133.713 L561.667 128.319 Z" fill="#000000" fill-rule="nonzero" fill-opacity="1" /><path clip-path="url(#clip480)" d="M593.496 139.407 L593.496 143.389 Q591.69 142.393 589.861 141.907 Q588.056 141.398 586.204 141.398 Q582.06 141.398 579.769 144.037 Q577.477 146.652 577.477 151.398 Q577.477 156.143 579.769 158.782 Q582.06 161.398 586.204 161.398 Q588.056 161.398 589.861 160.912 Q591.69 160.402 593.496 159.407 L593.496 163.342 Q591.713 164.176 589.792 164.592 Q587.894 165.009 585.741 165.009 Q579.884 165.009 576.435 161.328 Q572.986 157.648 572.986 151.398 Q572.986 145.055 576.459 141.421 Q579.954 137.787 586.019 137.787 Q587.986 137.787 589.861 138.203 Q591.736 138.597 593.496 139.407 Z" fill="#000000" fill-rule="nonzero" fill-opacity="1" /><path clip-path="url(#clip480)" d="M605.116 131.051 L605.116 138.412 L613.889 138.412 L613.889 141.722 L605.116 141.722 L605.116 155.796 Q605.116 158.967 605.972 159.87 Q606.852 160.773 609.514 160.773 L613.889 160.773 L613.889 164.338 L609.514 164.338 Q604.583 164.338 602.708 162.509 Q600.833 160.657 600.833 155.796 L600.833 141.722 L597.708 141.722 L597.708 138.412 L600.833 138.412 L600.833 131.051 L605.116 131.051 Z" fill="#000000" fill-rule="nonzero" fill-opacity="1" /><path clip-path="url(#clip480)" d="M619.491 138.412 L623.75 138.412 L623.75 164.338 L619.491 164.338 L619.491 138.412 M619.491 128.319 L623.75 128.319 L623.75 133.713 L619.491 133.713 L619.491 128.319 Z" fill="#000000" fill-rule="nonzero" fill-opacity="1" /><path clip-path="url(#clip480)" d="M642.708 141.398 Q639.282 141.398 637.292 144.083 Q635.301 146.745 635.301 151.398 Q635.301 156.051 637.268 158.736 Q639.259 161.398 642.708 161.398 Q646.111 161.398 648.102 158.713 Q650.092 156.027 650.092 151.398 Q650.092 146.791 648.102 144.106 Q646.111 141.398 642.708 141.398 M642.708 137.787 Q648.264 137.787 651.435 141.398 Q654.606 145.009 654.606 151.398 Q654.606 157.764 651.435 161.398 Q648.264 165.009 642.708 165.009 Q637.13 165.009 633.958 161.398 Q630.81 157.764 630.81 151.398 Q630.81 145.009 633.958 141.398 Q637.13 137.787 642.708 137.787 Z" fill="#000000" fill-rule="nonzero" fill-opacity="1" /><path clip-path="url(#clip480)" d="M683.217 148.689 L683.217 164.338 L678.958 164.338 L678.958 148.828 Q678.958 145.148 677.523 143.319 Q676.088 141.49 673.217 141.49 Q669.768 141.49 667.778 143.69 Q665.787 145.889 665.787 149.685 L665.787 164.338 L661.504 164.338 L661.504 138.412 L665.787 138.412 L665.787 142.44 Q667.315 140.102 669.375 138.944 Q671.458 137.787 674.166 137.787 Q678.634 137.787 680.926 140.565 Q683.217 143.319 683.217 148.689 Z" fill="#000000" fill-rule="nonzero" fill-opacity="1" /><polyline clip-path="url(#clip480)" style="stroke:#e26f46; stroke-linecap:round; stroke-linejoin:round; stroke-width:4; stroke-opacity:1; fill:none" points="288.357,198.898 432.385,198.898 "/>
<path clip-path="url(#clip480)" d="M456.39 181.618 L478.242 181.618 L478.242 185.553 L461.066 185.553 L461.066 195.784 L477.524 195.784 L477.524 199.719 L461.066 199.719 L461.066 212.242 L478.658 212.242 L478.658 216.178 L456.39 216.178 L456.39 181.618 Z" fill="#000000" fill-rule="nonzero" fill-opacity="1" /><path clip-path="url(#clip480)" d="M507.709 190.252 L498.334 202.867 L508.195 216.178 L503.172 216.178 L495.626 205.992 L488.079 216.178 L483.056 216.178 L493.126 202.613 L483.913 190.252 L488.936 190.252 L495.811 199.488 L502.686 190.252 L507.709 190.252 Z" fill="#000000" fill-rule="nonzero" fill-opacity="1" /><path clip-path="url(#clip480)" d="M525.996 203.145 Q520.834 203.145 518.843 204.326 Q516.852 205.506 516.852 208.354 Q516.852 210.622 518.334 211.965 Q519.838 213.284 522.408 213.284 Q525.95 213.284 528.079 210.784 Q530.232 208.261 530.232 204.094 L530.232 203.145 L525.996 203.145 M534.491 201.386 L534.491 216.178 L530.232 216.178 L530.232 212.242 Q528.774 214.603 526.598 215.738 Q524.422 216.849 521.274 216.849 Q517.292 216.849 514.931 214.627 Q512.593 212.381 512.593 208.631 Q512.593 204.256 515.51 202.034 Q518.45 199.812 524.26 199.812 L530.232 199.812 L530.232 199.395 Q530.232 196.455 528.288 194.858 Q526.366 193.238 522.871 193.238 Q520.649 193.238 518.542 193.77 Q516.436 194.303 514.491 195.367 L514.491 191.432 Q516.829 190.53 519.028 190.09 Q521.227 189.627 523.311 189.627 Q528.936 189.627 531.713 192.543 Q534.491 195.46 534.491 201.386 Z" fill="#000000" fill-rule="nonzero" fill-opacity="1" /><path clip-path="url(#clip480)" d="M561.922 191.247 L561.922 195.229 Q560.116 194.233 558.287 193.747 Q556.482 193.238 554.63 193.238 Q550.486 193.238 548.195 195.877 Q545.903 198.492 545.903 203.238 Q545.903 207.983 548.195 210.622 Q550.486 213.238 554.63 213.238 Q556.482 213.238 558.287 212.752 Q560.116 212.242 561.922 211.247 L561.922 215.182 Q560.139 216.016 558.218 216.432 Q556.32 216.849 554.167 216.849 Q548.311 216.849 544.862 213.168 Q541.412 209.488 541.412 203.238 Q541.412 196.895 544.885 193.261 Q548.38 189.627 554.445 189.627 Q556.412 189.627 558.287 190.043 Q560.162 190.437 561.922 191.247 Z" fill="#000000" fill-rule="nonzero" fill-opacity="1" /><path clip-path="url(#clip480)" d="M573.542 182.891 L573.542 190.252 L582.315 190.252 L582.315 193.562 L573.542 193.562 L573.542 207.636 Q573.542 210.807 574.398 211.71 Q575.278 212.613 577.94 212.613 L582.315 212.613 L582.315 216.178 L577.94 216.178 Q573.01 216.178 571.135 214.349 Q569.26 212.497 569.26 207.636 L569.26 193.562 L566.135 193.562 L566.135 190.252 L569.26 190.252 L569.26 182.891 L573.542 182.891 Z" fill="#000000" fill-rule="nonzero" fill-opacity="1" /></svg>
