<?xml version="1.0" encoding="utf-8"?>
<svg xmlns="http://www.w3.org/2000/svg" xmlns:xlink="http://www.w3.org/1999/xlink" width="600" height="400" viewBox="0 0 2400 1600">
<defs>
  <clipPath id="clip810">
    <rect x="0" y="0" width="2400" height="1600"/>
  </clipPath>
</defs>
<path clip-path="url(#clip810)" d="M0 1600 L2400 1600 L2400 0 L0 0  Z" fill="#ffffff" fill-rule="evenodd" fill-opacity="1"/>
<defs>
  <clipPath id="clip811">
    <rect x="480" y="0" width="1681" height="1600"/>
  </clipPath>
</defs>
<path clip-path="url(#clip810)" d="M156.274 1486.45 L2352.76 1486.45 L2352.76 47.2441 L156.274 47.2441  Z" fill="#ffffff" fill-rule="evenodd" fill-opacity="1"/>
<defs>
  <clipPath id="clip812">
    <rect x="156" y="47" width="2197" height="1440"/>
  </clipPath>
</defs>
<polyline clip-path="url(#clip812)" style="stroke:#000000; stroke-linecap:round; stroke-linejoin:round; stroke-width:2; stroke-opacity:0.1; fill:none" points="218.439,1486.45 218.439,47.2441 "/>
<polyline clip-path="url(#clip812)" style="stroke:#000000; stroke-linecap:round; stroke-linejoin:round; stroke-width:2; stroke-opacity:0.1; fill:none" points="736.477,1486.45 736.477,47.2441 "/>
<polyline clip-path="url(#clip812)" style="stroke:#000000; stroke-linecap:round; stroke-linejoin:round; stroke-width:2; stroke-opacity:0.1; fill:none" points="1254.52,1486.45 1254.52,47.2441 "/>
<polyline clip-path="url(#clip812)" style="stroke:#000000; stroke-linecap:round; stroke-linejoin:round; stroke-width:2; stroke-opacity:0.1; fill:none" points="1772.55,1486.45 1772.55,47.2441 "/>
<polyline clip-path="url(#clip812)" style="stroke:#000000; stroke-linecap:round; stroke-linejoin:round; stroke-width:2; stroke-opacity:0.1; fill:none" points="2290.59,1486.45 2290.59,47.2441 "/>
<polyline clip-path="url(#clip810)" style="stroke:#000000; stroke-linecap:round; stroke-linejoin:round; stroke-width:4; stroke-opacity:1; fill:none" points="156.274,1486.45 2352.76,1486.45 "/>
<polyline clip-path="url(#clip810)" style="stroke:#000000; stroke-linecap:round; stroke-linejoin:round; stroke-width:4; stroke-opacity:1; fill:none" points="218.439,1486.45 218.439,1467.55 "/>
<polyline clip-path="url(#clip810)" style="stroke:#000000; stroke-linecap:round; stroke-linejoin:round; stroke-width:4; stroke-opacity:1; fill:none" points="736.477,1486.45 736.477,1467.55 "/>
<polyline clip-path="url(#clip810)" style="stroke:#000000; stroke-linecap:round; stroke-linejoin:round; stroke-width:4; stroke-opacity:1; fill:none" points="1254.52,1486.45 1254.52,1467.55 "/>
<polyline clip-path="url(#clip810)" style="stroke:#000000; stroke-linecap:round; stroke-linejoin:round; stroke-width:4; stroke-opacity:1; fill:none" points="1772.55,1486.45 1772.55,1467.55 "/>
<polyline clip-path="url(#clip810)" style="stroke:#000000; stroke-linecap:round; stroke-linejoin:round; stroke-width:4; stroke-opacity:1; fill:none" points="2290.59,1486.45 2290.59,1467.55 "/>
<path clip-path="url(#clip810)" d="M164.967 1532.02 L194.643 1532.02 L194.643 1535.95 L164.967 1535.95 L164.967 1532.02 Z" fill="#000000" fill-rule="nonzero" fill-opacity="1" /><path clip-path="url(#clip810)" d="M205.545 1544.91 L213.184 1544.91 L213.184 1518.55 L204.874 1520.21 L204.874 1515.95 L213.138 1514.29 L217.814 1514.29 L217.814 1544.91 L225.453 1544.91 L225.453 1548.85 L205.545 1548.85 L205.545 1544.91 Z" fill="#000000" fill-rule="nonzero" fill-opacity="1" /><path clip-path="url(#clip810)" d="M234.897 1542.97 L239.781 1542.97 L239.781 1548.85 L234.897 1548.85 L234.897 1542.97 Z" fill="#000000" fill-rule="nonzero" fill-opacity="1" /><path clip-path="url(#clip810)" d="M259.966 1517.37 Q256.355 1517.37 254.527 1520.93 Q252.721 1524.47 252.721 1531.6 Q252.721 1538.71 254.527 1542.27 Q256.355 1545.82 259.966 1545.82 Q263.601 1545.82 265.406 1542.27 Q267.235 1538.71 267.235 1531.6 Q267.235 1524.47 265.406 1520.93 Q263.601 1517.37 259.966 1517.37 M259.966 1513.66 Q265.776 1513.66 268.832 1518.27 Q271.911 1522.85 271.911 1531.6 Q271.911 1540.33 268.832 1544.94 Q265.776 1549.52 259.966 1549.52 Q254.156 1549.52 251.077 1544.94 Q248.022 1540.33 248.022 1531.6 Q248.022 1522.85 251.077 1518.27 Q254.156 1513.66 259.966 1513.66 Z" fill="#000000" fill-rule="nonzero" fill-opacity="1" /><path clip-path="url(#clip810)" d="M683.503 1532.02 L713.178 1532.02 L713.178 1535.95 L683.503 1535.95 L683.503 1532.02 Z" fill="#000000" fill-rule="nonzero" fill-opacity="1" /><path clip-path="url(#clip810)" d="M733.271 1517.37 Q729.66 1517.37 727.831 1520.93 Q726.026 1524.47 726.026 1531.6 Q726.026 1538.71 727.831 1542.27 Q729.66 1545.82 733.271 1545.82 Q736.905 1545.82 738.711 1542.27 Q740.539 1538.71 740.539 1531.6 Q740.539 1524.47 738.711 1520.93 Q736.905 1517.37 733.271 1517.37 M733.271 1513.66 Q739.081 1513.66 742.137 1518.27 Q745.215 1522.85 745.215 1531.6 Q745.215 1540.33 742.137 1544.94 Q739.081 1549.52 733.271 1549.52 Q727.461 1549.52 724.382 1544.94 Q721.327 1540.33 721.327 1531.6 Q721.327 1522.85 724.382 1518.27 Q727.461 1513.66 733.271 1513.66 Z" fill="#000000" fill-rule="nonzero" fill-opacity="1" /><path clip-path="url(#clip810)" d="M753.433 1542.97 L758.317 1542.97 L758.317 1548.85 L753.433 1548.85 L753.433 1542.97 Z" fill="#000000" fill-rule="nonzero" fill-opacity="1" /><path clip-path="url(#clip810)" d="M768.548 1514.29 L786.905 1514.29 L786.905 1518.22 L772.831 1518.22 L772.831 1526.7 Q773.849 1526.35 774.868 1526.19 Q775.886 1526 776.905 1526 Q782.692 1526 786.072 1529.17 Q789.451 1532.34 789.451 1537.76 Q789.451 1543.34 785.979 1546.44 Q782.507 1549.52 776.187 1549.52 Q774.011 1549.52 771.743 1549.15 Q769.498 1548.78 767.09 1548.04 L767.09 1543.34 Q769.173 1544.47 771.396 1545.03 Q773.618 1545.58 776.095 1545.58 Q780.099 1545.58 782.437 1543.48 Q784.775 1541.37 784.775 1537.76 Q784.775 1534.15 782.437 1532.04 Q780.099 1529.94 776.095 1529.94 Q774.22 1529.94 772.345 1530.35 Q770.493 1530.77 768.548 1531.65 L768.548 1514.29 Z" fill="#000000" fill-rule="nonzero" fill-opacity="1" /><path clip-path="url(#clip810)" d="M1231.9 1517.37 Q1228.29 1517.37 1226.46 1520.93 Q1224.65 1524.47 1224.65 1531.6 Q1224.65 1538.71 1226.46 1542.27 Q1228.29 1545.82 1231.9 1545.82 Q1235.53 1545.82 1237.34 1542.27 Q1239.17 1538.71 1239.17 1531.6 Q1239.17 1524.47 1237.34 1520.93 Q1235.53 1517.37 1231.9 1517.37 M1231.9 1513.66 Q1237.71 1513.66 1240.77 1518.27 Q1243.84 1522.85 1243.84 1531.6 Q1243.84 1540.33 1240.77 1544.94 Q1237.71 1549.52 1231.9 1549.52 Q1226.09 1549.52 1223.01 1544.94 Q1219.96 1540.33 1219.96 1531.6 Q1219.96 1522.85 1223.01 1518.27 Q1226.09 1513.66 1231.9 1513.66 Z" fill="#000000" fill-rule="nonzero" fill-opacity="1" /><path clip-path="url(#clip810)" d="M1252.06 1542.97 L1256.95 1542.97 L1256.95 1548.85 L1252.06 1548.85 L1252.06 1542.97 Z" fill="#000000" fill-rule="nonzero" fill-opacity="1" /><path clip-path="url(#clip810)" d="M1277.13 1517.37 Q1273.52 1517.37 1271.69 1520.93 Q1269.89 1524.47 1269.89 1531.6 Q1269.89 1538.71 1271.69 1542.27 Q1273.52 1545.82 1277.13 1545.82 Q1280.76 1545.82 1282.57 1542.27 Q1284.4 1538.71 1284.4 1531.6 Q1284.4 1524.47 1282.57 1520.93 Q1280.76 1517.37 1277.13 1517.37 M1277.13 1513.66 Q1282.94 1513.66 1286 1518.27 Q1289.08 1522.85 1289.08 1531.6 Q1289.08 1540.33 1286 1544.94 Q1282.94 1549.52 1277.13 1549.52 Q1271.32 1549.52 1268.24 1544.94 Q1265.19 1540.33 1265.19 1531.6 Q1265.19 1522.85 1268.24 1518.27 Q1271.32 1513.66 1277.13 1513.66 Z" fill="#000000" fill-rule="nonzero" fill-opacity="1" /><path clip-path="url(#clip810)" d="M1750.44 1517.37 Q1746.82 1517.37 1745 1520.93 Q1743.19 1524.47 1743.19 1531.6 Q1743.19 1538.71 1745 1542.27 Q1746.82 1545.82 1750.44 1545.82 Q1754.07 1545.82 1755.88 1542.27 Q1757.7 1538.71 1757.7 1531.6 Q1757.7 1524.47 1755.88 1520.93 Q1754.07 1517.37 1750.44 1517.37 M1750.44 1513.66 Q1756.25 1513.66 1759.3 1518.27 Q1762.38 1522.85 1762.38 1531.6 Q1762.38 1540.33 1759.3 1544.94 Q1756.25 1549.52 1750.44 1549.52 Q1744.63 1549.52 1741.55 1544.94 Q1738.49 1540.33 1738.49 1531.6 Q1738.49 1522.85 1741.55 1518.27 Q1744.63 1513.66 1750.44 1513.66 Z" fill="#000000" fill-rule="nonzero" fill-opacity="1" /><path clip-path="url(#clip810)" d="M1770.6 1542.97 L1775.48 1542.97 L1775.48 1548.85 L1770.6 1548.85 L1770.6 1542.97 Z" fill="#000000" fill-rule="nonzero" fill-opacity="1" /><path clip-path="url(#clip810)" d="M1785.71 1514.29 L1804.07 1514.29 L1804.07 1518.22 L1790 1518.22 L1790 1526.7 Q1791.01 1526.35 1792.03 1526.19 Q1793.05 1526 1794.07 1526 Q1799.86 1526 1803.24 1529.17 Q1806.62 1532.34 1806.62 1537.76 Q1806.62 1543.34 1803.14 1546.44 Q1799.67 1549.52 1793.35 1549.52 Q1791.18 1549.52 1788.91 1549.15 Q1786.66 1548.78 1784.25 1548.04 L1784.25 1543.34 Q1786.34 1544.47 1788.56 1545.03 Q1790.78 1545.58 1793.26 1545.58 Q1797.26 1545.58 1799.6 1543.48 Q1801.94 1541.37 1801.94 1537.76 Q1801.94 1534.15 1799.6 1532.04 Q1797.26 1529.94 1793.26 1529.94 Q1791.38 1529.94 1789.51 1530.35 Q1787.66 1530.77 1785.71 1531.65 L1785.71 1514.29 Z" fill="#000000" fill-rule="nonzero" fill-opacity="1" /><path clip-path="url(#clip810)" d="M2257.74 1544.91 L2265.38 1544.91 L2265.38 1518.55 L2257.07 1520.21 L2257.07 1515.95 L2265.34 1514.29 L2270.01 1514.29 L2270.01 1544.91 L2277.65 1544.91 L2277.65 1548.85 L2257.74 1548.85 L2257.74 1544.91 Z" fill="#000000" fill-rule="nonzero" fill-opacity="1" /><path clip-path="url(#clip810)" d="M2287.1 1542.97 L2291.98 1542.97 L2291.98 1548.85 L2287.1 1548.85 L2287.1 1542.97 Z" fill="#000000" fill-rule="nonzero" fill-opacity="1" /><path clip-path="url(#clip810)" d="M2312.17 1517.37 Q2308.55 1517.37 2306.73 1520.93 Q2304.92 1524.47 2304.92 1531.6 Q2304.92 1538.71 2306.73 1542.27 Q2308.55 1545.82 2312.17 1545.82 Q2315.8 1545.82 2317.61 1542.27 Q2319.43 1538.71 2319.43 1531.6 Q2319.43 1524.47 2317.61 1520.93 Q2315.8 1517.37 2312.17 1517.37 M2312.17 1513.66 Q2317.98 1513.66 2321.03 1518.27 Q2324.11 1522.85 2324.11 1531.6 Q2324.11 1540.33 2321.03 1544.94 Q2317.98 1549.52 2312.17 1549.52 Q2306.36 1549.52 2303.28 1544.94 Q2300.22 1540.33 2300.22 1531.6 Q2300.22 1522.85 2303.28 1518.27 Q2306.36 1513.66 2312.17 1513.66 Z" fill="#000000" fill-rule="nonzero" fill-opacity="1" /><polyline clip-path="url(#clip812)" style="stroke:#000000; stroke-linecap:round; stroke-linejoin:round; stroke-width:2; stroke-opacity:0.1; fill:none" points="156.274,1245.21 2352.76,1245.21 "/>
<polyline clip-path="url(#clip812)" style="stroke:#000000; stroke-linecap:round; stroke-linejoin:round; stroke-width:2; stroke-opacity:0.1; fill:none" points="156.274,973.627 2352.76,973.627 "/>
<polyline clip-path="url(#clip812)" style="stroke:#000000; stroke-linecap:round; stroke-linejoin:round; stroke-width:2; stroke-opacity:0.1; fill:none" points="156.274,702.042 2352.76,702.042 "/>
<polyline clip-path="url(#clip812)" style="stroke:#000000; stroke-linecap:round; stroke-linejoin:round; stroke-width:2; stroke-opacity:0.1; fill:none" points="156.274,430.458 2352.76,430.458 "/>
<polyline clip-path="url(#clip812)" style="stroke:#000000; stroke-linecap:round; stroke-linejoin:round; stroke-width:2; stroke-opacity:0.1; fill:none" points="156.274,158.873 2352.76,158.873 "/>
<polyline clip-path="url(#clip810)" style="stroke:#000000; stroke-linecap:round; stroke-linejoin:round; stroke-width:4; stroke-opacity:1; fill:none" points="156.274,1486.45 156.274,47.2441 "/>
<polyline clip-path="url(#clip810)" style="stroke:#000000; stroke-linecap:round; stroke-linejoin:round; stroke-width:4; stroke-opacity:1; fill:none" points="156.274,1245.21 175.172,1245.21 "/>
<polyline clip-path="url(#clip810)" style="stroke:#000000; stroke-linecap:round; stroke-linejoin:round; stroke-width:4; stroke-opacity:1; fill:none" points="156.274,973.627 175.172,973.627 "/>
<polyline clip-path="url(#clip810)" style="stroke:#000000; stroke-linecap:round; stroke-linejoin:round; stroke-width:4; stroke-opacity:1; fill:none" points="156.274,702.042 175.172,702.042 "/>
<polyline clip-path="url(#clip810)" style="stroke:#000000; stroke-linecap:round; stroke-linejoin:round; stroke-width:4; stroke-opacity:1; fill:none" points="156.274,430.458 175.172,430.458 "/>
<polyline clip-path="url(#clip810)" style="stroke:#000000; stroke-linecap:round; stroke-linejoin:round; stroke-width:4; stroke-opacity:1; fill:none" points="156.274,158.873 175.172,158.873 "/>
<path clip-path="url(#clip810)" d="M63.0985 1231.01 Q59.4875 1231.01 57.6588 1234.57 Q55.8532 1238.12 55.8532 1245.25 Q55.8532 1252.35 57.6588 1255.92 Q59.4875 1259.46 63.0985 1259.46 Q66.7328 1259.46 68.5383 1255.92 Q70.367 1252.35 70.367 1245.25 Q70.367 1238.12 68.5383 1234.57 Q66.7328 1231.01 63.0985 1231.01 M63.0985 1227.31 Q68.9087 1227.31 71.9642 1231.91 Q75.0429 1236.5 75.0429 1245.25 Q75.0429 1253.97 71.9642 1258.58 Q68.9087 1263.16 63.0985 1263.16 Q57.2884 1263.16 54.2097 1258.58 Q51.1542 1253.97 51.1542 1245.25 Q51.1542 1236.5 54.2097 1231.91 Q57.2884 1227.31 63.0985 1227.31 Z" fill="#000000" fill-rule="nonzero" fill-opacity="1" /><path clip-path="url(#clip810)" d="M83.2605 1256.61 L88.1447 1256.61 L88.1447 1262.49 L83.2605 1262.49 L83.2605 1256.61 Z" fill="#000000" fill-rule="nonzero" fill-opacity="1" /><path clip-path="url(#clip810)" d="M108.33 1231.01 Q104.719 1231.01 102.89 1234.57 Q101.084 1238.12 101.084 1245.25 Q101.084 1252.35 102.89 1255.92 Q104.719 1259.46 108.33 1259.46 Q111.964 1259.46 113.77 1255.92 Q115.598 1252.35 115.598 1245.25 Q115.598 1238.12 113.77 1234.57 Q111.964 1231.01 108.33 1231.01 M108.33 1227.31 Q114.14 1227.31 117.195 1231.91 Q120.274 1236.5 120.274 1245.25 Q120.274 1253.97 117.195 1258.58 Q114.14 1263.16 108.33 1263.16 Q102.52 1263.16 99.4409 1258.58 Q96.3854 1253.97 96.3854 1245.25 Q96.3854 1236.5 99.4409 1231.91 Q102.52 1227.31 108.33 1227.31 Z" fill="#000000" fill-rule="nonzero" fill-opacity="1" /><path clip-path="url(#clip810)" d="M63.7467 959.426 Q60.1356 959.426 58.3069 962.99 Q56.5014 966.532 56.5014 973.662 Q56.5014 980.768 58.3069 984.333 Q60.1356 987.875 63.7467 987.875 Q67.3809 987.875 69.1865 984.333 Q71.0152 980.768 71.0152 973.662 Q71.0152 966.532 69.1865 962.99 Q67.3809 959.426 63.7467 959.426 M63.7467 955.722 Q69.5568 955.722 72.6124 960.328 Q75.6911 964.912 75.6911 973.662 Q75.6911 982.388 72.6124 986.995 Q69.5568 991.578 63.7467 991.578 Q57.9365 991.578 54.8578 986.995 Q51.8023 982.388 51.8023 973.662 Q51.8023 964.912 54.8578 960.328 Q57.9365 955.722 63.7467 955.722 Z" fill="#000000" fill-rule="nonzero" fill-opacity="1" /><path clip-path="url(#clip810)" d="M83.9086 985.027 L88.7928 985.027 L88.7928 990.907 L83.9086 990.907 L83.9086 985.027 Z" fill="#000000" fill-rule="nonzero" fill-opacity="1" /><path clip-path="url(#clip810)" d="M113.145 972.273 Q116.501 972.99 118.376 975.259 Q120.274 977.527 120.274 980.861 Q120.274 985.976 116.756 988.777 Q113.237 991.578 106.756 991.578 Q104.58 991.578 102.265 991.138 Q99.9733 990.722 97.5197 989.865 L97.5197 985.351 Q99.4641 986.486 101.779 987.064 Q104.094 987.643 106.617 987.643 Q111.015 987.643 113.307 985.907 Q115.621 984.171 115.621 980.861 Q115.621 977.805 113.469 976.092 Q111.339 974.356 107.52 974.356 L103.492 974.356 L103.492 970.514 L107.705 970.514 Q111.154 970.514 112.983 969.148 Q114.811 967.759 114.811 965.166 Q114.811 962.504 112.913 961.092 Q111.038 959.657 107.52 959.657 Q105.598 959.657 103.399 960.074 Q101.2 960.49 98.5613 961.37 L98.5613 957.203 Q101.223 956.463 103.538 956.092 Q105.876 955.722 107.936 955.722 Q113.26 955.722 116.362 958.153 Q119.464 960.56 119.464 964.68 Q119.464 967.551 117.82 969.541 Q116.177 971.509 113.145 972.273 Z" fill="#000000" fill-rule="nonzero" fill-opacity="1" /><path clip-path="url(#clip810)" d="M62.9365 687.841 Q59.3254 687.841 57.4967 691.406 Q55.6912 694.948 55.6912 702.077 Q55.6912 709.184 57.4967 712.748 Q59.3254 716.29 62.9365 716.29 Q66.5707 716.29 68.3763 712.748 Q70.205 709.184 70.205 702.077 Q70.205 694.948 68.3763 691.406 Q66.5707 687.841 62.9365 687.841 M62.9365 684.137 Q68.7467 684.137 71.8022 688.744 Q74.8809 693.327 74.8809 702.077 Q74.8809 710.804 71.8022 715.41 Q68.7467 719.994 62.9365 719.994 Q57.1264 719.994 54.0477 715.41 Q50.9921 710.804 50.9921 702.077 Q50.9921 693.327 54.0477 688.744 Q57.1264 684.137 62.9365 684.137 Z" fill="#000000" fill-rule="nonzero" fill-opacity="1" /><path clip-path="url(#clip810)" d="M83.0984 713.443 L87.9827 713.443 L87.9827 719.322 L83.0984 719.322 L83.0984 713.443 Z" fill="#000000" fill-rule="nonzero" fill-opacity="1" /><path clip-path="url(#clip810)" d="M108.746 700.179 Q105.598 700.179 103.746 702.332 Q101.918 704.485 101.918 708.235 Q101.918 711.961 103.746 714.137 Q105.598 716.29 108.746 716.29 Q111.895 716.29 113.723 714.137 Q115.575 711.961 115.575 708.235 Q115.575 704.485 113.723 702.332 Q111.895 700.179 108.746 700.179 M118.029 685.526 L118.029 689.786 Q116.27 688.952 114.464 688.512 Q112.682 688.073 110.922 688.073 Q106.293 688.073 103.839 691.198 Q101.409 694.323 101.061 700.642 Q102.427 698.628 104.487 697.563 Q106.547 696.475 109.024 696.475 Q114.233 696.475 117.242 699.647 Q120.274 702.795 120.274 708.235 Q120.274 713.559 117.126 716.776 Q113.978 719.994 108.746 719.994 Q102.751 719.994 99.5798 715.41 Q96.4085 710.804 96.4085 702.077 Q96.4085 693.883 100.297 689.022 Q104.186 684.137 110.737 684.137 Q112.496 684.137 114.279 684.485 Q116.084 684.832 118.029 685.526 Z" fill="#000000" fill-rule="nonzero" fill-opacity="1" /><path clip-path="url(#clip810)" d="M63.2837 416.257 Q59.6726 416.257 57.8439 419.821 Q56.0384 423.363 56.0384 430.493 Q56.0384 437.599 57.8439 441.164 Q59.6726 444.705 63.2837 444.705 Q66.918 444.705 68.7235 441.164 Q70.5522 437.599 70.5522 430.493 Q70.5522 423.363 68.7235 419.821 Q66.918 416.257 63.2837 416.257 M63.2837 412.553 Q69.0939 412.553 72.1494 417.159 Q75.2281 421.743 75.2281 430.493 Q75.2281 439.219 72.1494 443.826 Q69.0939 448.409 63.2837 448.409 Q57.4736 448.409 54.3949 443.826 Q51.3393 439.219 51.3393 430.493 Q51.3393 421.743 54.3949 417.159 Q57.4736 412.553 63.2837 412.553 Z" fill="#000000" fill-rule="nonzero" fill-opacity="1" /><path clip-path="url(#clip810)" d="M83.4457 441.858 L88.3299 441.858 L88.3299 447.738 L83.4457 447.738 L83.4457 441.858 Z" fill="#000000" fill-rule="nonzero" fill-opacity="1" /><path clip-path="url(#clip810)" d="M98.6539 447.02 L98.6539 442.761 Q100.413 443.594 102.219 444.034 Q104.024 444.474 105.76 444.474 Q110.39 444.474 112.82 441.372 Q115.274 438.247 115.621 431.905 Q114.279 433.895 112.219 434.96 Q110.158 436.025 107.658 436.025 Q102.473 436.025 99.4409 432.9 Q96.4317 429.752 96.4317 424.312 Q96.4317 418.988 99.5798 415.77 Q102.728 412.553 107.959 412.553 Q113.955 412.553 117.103 417.159 Q120.274 421.743 120.274 430.493 Q120.274 438.664 116.385 443.548 Q112.52 448.409 105.969 448.409 Q104.209 448.409 102.404 448.062 Q100.598 447.715 98.6539 447.02 M107.959 432.368 Q111.108 432.368 112.936 430.215 Q114.788 428.062 114.788 424.312 Q114.788 420.585 112.936 418.432 Q111.108 416.257 107.959 416.257 Q104.811 416.257 102.959 418.432 Q101.131 420.585 101.131 424.312 Q101.131 428.062 102.959 430.215 Q104.811 432.368 107.959 432.368 Z" fill="#000000" fill-rule="nonzero" fill-opacity="1" /><path clip-path="url(#clip810)" d="M55.506 172.218 L63.1448 172.218 L63.1448 145.853 L54.8347 147.519 L54.8347 143.26 L63.0985 141.593 L67.7744 141.593 L67.7744 172.218 L75.4133 172.218 L75.4133 176.153 L55.506 176.153 L55.506 172.218 Z" fill="#000000" fill-rule="nonzero" fill-opacity="1" /><path clip-path="url(#clip810)" d="M84.8577 170.274 L89.7419 170.274 L89.7419 176.153 L84.8577 176.153 L84.8577 170.274 Z" fill="#000000" fill-rule="nonzero" fill-opacity="1" /><path clip-path="url(#clip810)" d="M103.955 172.218 L120.274 172.218 L120.274 176.153 L98.3298 176.153 L98.3298 172.218 Q100.992 169.464 105.575 164.834 Q110.182 160.181 111.362 158.839 Q113.608 156.315 114.487 154.579 Q115.39 152.82 115.39 151.13 Q115.39 148.376 113.445 146.64 Q111.524 144.904 108.422 144.904 Q106.223 144.904 103.77 145.667 Q101.339 146.431 98.5613 147.982 L98.5613 143.26 Q101.385 142.126 103.839 141.547 Q106.293 140.968 108.33 140.968 Q113.7 140.968 116.895 143.654 Q120.089 146.339 120.089 150.829 Q120.089 152.959 119.279 154.88 Q118.492 156.778 116.385 159.371 Q115.807 160.042 112.705 163.26 Q109.603 166.454 103.955 172.218 Z" fill="#000000" fill-rule="nonzero" fill-opacity="1" /><polyline clip-path="url(#clip812)" style="stroke:#009af9; stroke-linecap:round; stroke-linejoin:round; stroke-width:16; stroke-opacity:1; fill:none" stroke-dasharray="8, 16" points="218.439,1109 228.852,1098.25 239.264,1088.76 249.677,1077.68 260.09,1064.81 270.503,1055.24 280.916,1057.34 291.329,1076.12 301.741,1108.13 312.154,1143.87 322.567,1175.31 332.98,1200.9 343.393,1224.53 353.805,1250.97 364.218,1282.03 374.631,1315.62 385.044,1347.33 395.457,1373.39 405.87,1392.87 416.282,1407.44 426.695,1418.94 437.108,1426.92 447.521,1428.63 457.934,1421.67 468.347,1406.41 478.759,1385.74 489.172,1362.42 499.585,1337.05 509.998,1308.63 520.411,1276.58 530.824,1242.3 541.236,1208.79 551.649,1178.8 562.062,1153.1 572.475,1130.3 582.888,1108.4 593.301,1087.01 603.713,1068.39 614.126,1056.49 624.539,1054.59 634.952,1063.2 645.365,1079.81 655.777,1100.5 666.19,1122.13 676.603,1143.78 687.016,1166.62 697.429,1192.77 707.842,1223.73 718.254,1259.17 728.667,1296.54 739.08,1331.78 749.493,1361.05 759.906,1382.62 770.319,1397.44 780.731,1407.96 791.144,1416.01 801.557,1421.46 811.97,1422.61 822.383,1417.5 832.796,1405.06 843.208,1385.43 853.621,1359.71 864.034,1329.65 874.447,1297.56 884.86,1265.84 895.273,1236.15 905.685,1208.33 916.098,1180.7 926.511,1151.8 936.924,1122.32 947.337,1095.24 957.749,1074.3 968.162,1062.15 978.575,1059.42 988.988,1065 999.401,1076.78 1009.81,1092.56 1020.23,1110.65 1030.64,1130.2 1041.05,1151.19 1051.46,1174.21 1061.88,1200.16 1072.29,1229.85 1082.7,1263.49 1093.12,1300.29 1103.53,1338.06 1113.94,1373.15 1124.35,1400.9 1134.77,1417.05 1145.18,1419.79 1155.59,1411.66 1166.01,1399.8 1176.42,1393.71 1186.83,1400.92 1197.24,1422.04 1207.66,1445.72 1218.07,1444.55 1228.48,1376.91 1238.9,1206.21 1249.31,938.85 1259.72,644.16 1270.13,413.998 1280.55,295.48 1290.96,272.687 1301.37,300.503 1311.79,338.985 1322.2,364.881 1332.61,369.76 1343.02,355.897 1353.44,332.478 1363.85,311.145 1374.26,301.118 1384.68,305.844 1395.09,322.677 1405.5,345.138 1415.91,365.937 1426.33,379.26 1436.74,381.824 1447.15,373.035 1457.57,354.719 1467.98,330.74 1478.39,306.511 1488.8,288.28 1499.22,281.962 1509.63,291.491 1520.04,316.977 1530.45,353.42 1540.87,390.872 1551.28,416.763 1561.69,420.191 1572.11,396.845 1582.52,352.213 1592.93,300.737 1603.34,260.364 1613.76,244.901 1624.17,258.572 1634.58,295.619 1645,344.128 1655.41,390.858 1665.82,424.622 1676.23,437.845 1686.65,427.111 1697.06,393.44 1707.47,342.643 1717.89,285.667 1728.3,238.006 1738.71,216.482 1749.12,232.642 1759.54,285.558 1769.95,359.679 1780.36,430.607 1790.78,475.306 1801.19,480.378 1811.6,445.049 1822.01,379.725 1832.43,302.309 1842.84,233.696 1853.25,192.939 1863.67,192.614 1874.08,235.183 1884.49,311.277 1894.9,400.731 1905.32,477.066 1915.73,515.409 1926.14,501.825 1936.56,439.495 1946.97,347.664 1957.38,253.91 1967.79,184.623 1978.21,158.195 1988.62,181.8 1999.03,250.48 2009.45,347.741 2019.86,448.228 2030.27,523.144 2040.68,548.031 2051.1,511.35 2061.51,420.815 2071.92,303.025 2082.33,194.446 2092.75,128.216 2103.16,123.725 2113.57,182.025 2123.99,286.608 2134.4,408.387 2144.81,513.463 2155.22,571.705 2165.64,564.428 2176.05,490.289 2186.46,368.294 2196.88,235.392 2207.29,135.688 2217.7,102.4 2228.11,141.66 2238.53,231.051 2248.94,335.72 2259.35,428.262 2269.77,496.758 2280.18,540.715 2290.59,565.056 "/>
<polyline clip-path="url(#clip812)" style="stroke:#e26f46; stroke-linecap:round; stroke-linejoin:round; stroke-width:4; stroke-opacity:1; fill:none" points="218.439,1109.24 228.852,1089.95 239.264,1075.73 249.677,1067.03 260.09,1064.16 270.503,1067.19 280.916,1076.03 291.329,1090.39 301.741,1109.81 312.154,1133.65 322.567,1161.12 332.98,1191.34 343.393,1223.32 353.805,1256.02 364.218,1288.36 374.631,1319.29 385.044,1347.81 395.457,1372.97 405.87,1393.97 416.282,1410.11 426.695,1420.87 437.108,1425.9 447.521,1425.03 457.934,1418.29 468.347,1405.9 478.759,1388.27 489.172,1365.97 499.585,1339.73 509.998,1310.4 520.411,1278.94 530.824,1246.39 541.236,1213.79 551.649,1182.22 562.062,1152.71 572.475,1126.22 582.888,1103.61 593.301,1085.62 603.713,1072.84 614.126,1065.68 624.539,1064.39 634.952,1069 645.365,1079.35 655.777,1095.12 666.19,1115.79 676.603,1140.69 687.016,1168.99 697.429,1199.78 707.842,1232.06 718.254,1264.76 728.667,1296.83 739.08,1327.21 749.493,1354.92 759.906,1379.04 770.319,1398.8 780.731,1413.54 791.144,1422.79 801.557,1426.25 811.97,1423.79 822.383,1415.51 832.796,1401.67 843.208,1382.72 853.621,1359.29 864.034,1332.13 874.447,1302.14 884.86,1270.28 895.273,1237.61 905.685,1205.19 916.098,1174.07 926.511,1145.28 936.924,1119.75 947.337,1098.31 957.749,1081.66 968.162,1070.36 978.575,1064.76 988.988,1065.05 999.401,1071.22 1009.81,1083.07 1020.23,1100.21 1030.64,1122.08 1041.05,1147.97 1051.46,1177.04 1061.88,1208.33 1072.29,1240.82 1082.7,1273.46 1093.12,1305.18 1103.53,1334.94 1113.94,1361.77 1124.35,1384.79 1134.77,1403.26 1145.18,1416.57 1155.59,1424.29 1166.01,1426.17 1176.42,1422.14 1186.83,1412.33 1197.24,1397.07 1207.66,1376.86 1218.07,1352.34 1228.48,1324.33 1238.9,1293.74 1249.31,1261.57 1259.72,338.615 1270.13,337.119 1280.55,338.48 1290.96,343.014 1301.37,349.329 1311.79,354.758 1322.2,356.366 1332.61,352.188 1343.02,342.23 1353.44,328.806 1363.85,316.031 1374.26,308.568 1384.68,310 1395.09,321.386 1405.5,340.538 1415.91,362.334 1426.33,380.083 1436.74,387.57 1447.15,381.161 1457.57,361.276 1467.98,332.673 1478.39,303.361 1488.8,282.352 1499.22,276.91 1509.63,290.103 1520.04,319.496 1530.45,357.456 1540.87,393.115 1551.28,415.479 1561.69,416.804 1572.11,395.197 1582.52,355.6 1592.93,308.727 1603.34,268.182 1613.76,246.508 1624.17,251.327 1634.58,282.75 1645,332.914 1655.41,387.907 1665.82,431.621 1676.23,450.467 1686.65,437.579 1697.06,395.2 1707.47,334.458 1717.89,272.473 1728.3,227.529 1738.71,213.687 1749.12,236.416 1759.54,290.59 1769.95,361.56 1780.36,429.096 1790.78,473.159 1801.19,479.833 1811.6,445.691 1822.01,379.212 1832.43,298.725 1842.84,227.366 1853.25,186.428 1863.67,189.016 1874.08,235.895 1884.49,314.836 1894.9,403.775 1905.32,476.973 1915.73,512.468 1926.14,498.646 1936.56,437.993 1946.97,346.801 1957.38,250.817 1967.79,177.974 1978.21,150.266 1988.62,177.118 1999.03,252.261 2009.45,355.118 2019.86,456.42 2030.27,526.541 2040.68,544.154 2051.1,502.7 2061.51,412.703 2071.92,299.145 2082.33,194.54 2092.75,129.624 2103.16,124.329 2113.57,181.687 2123.99,286.527 2134.4,409.454 2144.81,515.091 2155.22,572.252 2165.64,563.151 2176.05,488.898 2186.46,369.616 2196.88,239.004 2207.29,134.823 2217.7,87.9763 2228.11,113.355 2238.53,205.143 2248.94,338.071 2259.35,474.351 2269.77,574.427 2280.18,608.446 2290.59,565.157 "/>
<path clip-path="url(#clip810)" d="M229.49 250.738 L675.966 250.738 L675.966 95.2176 L229.49 95.2176  Z" fill="#ffffff" fill-rule="evenodd" fill-opacity="1"/>
<polyline clip-path="url(#clip810)" style="stroke:#000000; stroke-linecap:round; stroke-linejoin:round; stroke-width:4; stroke-opacity:1; fill:none" points="229.49,250.738 675.966,250.738 675.966,95.2176 229.49,95.2176 229.49,250.738 "/>
<polyline clip-path="url(#clip810)" style="stroke:#009af9; stroke-linecap:round; stroke-linejoin:round; stroke-width:16; stroke-opacity:1; fill:none" stroke-dasharray="8, 16" points="253.896,147.058 400.328,147.058 "/>
<path clip-path="url(#clip810)" d="M429.409 133.62 L429.409 146.606 L435.289 146.606 Q438.552 146.606 440.335 144.916 Q442.117 143.227 442.117 140.102 Q442.117 137 440.335 135.31 Q438.552 133.62 435.289 133.62 L429.409 133.62 M424.733 129.778 L435.289 129.778 Q441.099 129.778 444.062 132.416 Q447.048 135.032 447.048 140.102 Q447.048 145.217 444.062 147.833 Q441.099 150.449 435.289 150.449 L429.409 150.449 L429.409 164.338 L424.733 164.338 L424.733 129.778 Z" fill="#000000" fill-rule="nonzero" fill-opacity="1" /><path clip-path="url(#clip810)" d="M467.325 142.393 Q466.608 141.977 465.751 141.791 Q464.918 141.583 463.899 141.583 Q460.288 141.583 458.344 143.944 Q456.423 146.282 456.423 150.68 L456.423 164.338 L452.14 164.338 L452.14 138.412 L456.423 138.412 L456.423 142.44 Q457.765 140.078 459.918 138.944 Q462.071 137.787 465.149 137.787 Q465.589 137.787 466.122 137.856 Q466.654 137.903 467.302 138.018 L467.325 142.393 Z" fill="#000000" fill-rule="nonzero" fill-opacity="1" /><path clip-path="url(#clip810)" d="M492.927 150.31 L492.927 152.393 L473.344 152.393 Q473.622 156.791 475.983 159.106 Q478.367 161.398 482.603 161.398 Q485.057 161.398 487.348 160.796 Q489.663 160.194 491.932 158.99 L491.932 163.018 Q489.64 163.99 487.233 164.5 Q484.825 165.009 482.348 165.009 Q476.145 165.009 472.511 161.398 Q468.899 157.787 468.899 151.629 Q468.899 145.264 472.325 141.537 Q475.774 137.787 481.608 137.787 Q486.839 137.787 489.872 141.166 Q492.927 144.523 492.927 150.31 M488.668 149.06 Q488.622 145.565 486.7 143.481 Q484.802 141.398 481.654 141.398 Q478.089 141.398 475.936 143.412 Q473.807 145.426 473.483 149.083 L488.668 149.06 Z" fill="#000000" fill-rule="nonzero" fill-opacity="1" /><path clip-path="url(#clip810)" d="M516.978 142.347 L516.978 128.319 L521.237 128.319 L521.237 164.338 L516.978 164.338 L516.978 160.449 Q515.635 162.763 513.575 163.898 Q511.538 165.009 508.668 165.009 Q503.969 165.009 501.006 161.259 Q498.066 157.509 498.066 151.398 Q498.066 145.287 501.006 141.537 Q503.969 137.787 508.668 137.787 Q511.538 137.787 513.575 138.921 Q515.635 140.032 516.978 142.347 M502.464 151.398 Q502.464 156.097 504.385 158.782 Q506.33 161.444 509.709 161.444 Q513.089 161.444 515.033 158.782 Q516.978 156.097 516.978 151.398 Q516.978 146.699 515.033 144.037 Q513.089 141.352 509.709 141.352 Q506.33 141.352 504.385 144.037 Q502.464 146.699 502.464 151.398 Z" fill="#000000" fill-rule="nonzero" fill-opacity="1" /><path clip-path="url(#clip810)" d="M530.01 138.412 L534.269 138.412 L534.269 164.338 L530.01 164.338 L530.01 138.412 M530.01 128.319 L534.269 128.319 L534.269 133.713 L530.01 133.713 L530.01 128.319 Z" fill="#000000" fill-rule="nonzero" fill-opacity="1" /><path clip-path="url(#clip810)" d="M561.839 139.407 L561.839 143.389 Q560.033 142.393 558.205 141.907 Q556.399 141.398 554.547 141.398 Q550.404 141.398 548.112 144.037 Q545.82 146.652 545.82 151.398 Q545.82 156.143 548.112 158.782 Q550.404 161.398 554.547 161.398 Q556.399 161.398 558.205 160.912 Q560.033 160.402 561.839 159.407 L561.839 163.342 Q560.056 164.176 558.135 164.592 Q556.237 165.009 554.084 165.009 Q548.228 165.009 544.779 161.328 Q541.33 157.648 541.33 151.398 Q541.33 145.055 544.802 141.421 Q548.297 137.787 554.362 137.787 Q556.33 137.787 558.205 138.203 Q560.08 138.597 561.839 139.407 Z" fill="#000000" fill-rule="nonzero" fill-opacity="1" /><path clip-path="url(#clip810)" d="M573.459 131.051 L573.459 138.412 L582.232 138.412 L582.232 141.722 L573.459 141.722 L573.459 155.796 Q573.459 158.967 574.316 159.87 Q575.195 160.773 577.857 160.773 L582.232 160.773 L582.232 164.338 L577.857 164.338 Q572.927 164.338 571.052 162.509 Q569.177 160.657 569.177 155.796 L569.177 141.722 L566.052 141.722 L566.052 138.412 L569.177 138.412 L569.177 131.051 L573.459 131.051 Z" fill="#000000" fill-rule="nonzero" fill-opacity="1" /><path clip-path="url(#clip810)" d="M587.834 138.412 L592.093 138.412 L592.093 164.338 L587.834 164.338 L587.834 138.412 M587.834 128.319 L592.093 128.319 L592.093 133.713 L587.834 133.713 L587.834 128.319 Z" fill="#000000" fill-rule="nonzero" fill-opacity="1" /><path clip-path="url(#clip810)" d="M611.051 141.398 Q607.626 141.398 605.635 144.083 Q603.644 146.745 603.644 151.398 Q603.644 156.051 605.612 158.736 Q607.602 161.398 611.051 161.398 Q614.454 161.398 616.445 158.713 Q618.436 156.027 618.436 151.398 Q618.436 146.791 616.445 144.106 Q614.454 141.398 611.051 141.398 M611.051 137.787 Q616.607 137.787 619.778 141.398 Q622.95 145.009 622.95 151.398 Q622.95 157.764 619.778 161.398 Q616.607 165.009 611.051 165.009 Q605.473 165.009 602.302 161.398 Q599.153 157.764 599.153 151.398 Q599.153 145.009 602.302 141.398 Q605.473 137.787 611.051 137.787 Z" fill="#000000" fill-rule="nonzero" fill-opacity="1" /><path clip-path="url(#clip810)" d="M651.561 148.689 L651.561 164.338 L647.301 164.338 L647.301 148.828 Q647.301 145.148 645.866 143.319 Q644.431 141.49 641.561 141.49 Q638.112 141.49 636.121 143.69 Q634.13 145.889 634.13 149.685 L634.13 164.338 L629.848 164.338 L629.848 138.412 L634.13 138.412 L634.13 142.44 Q635.658 140.102 637.718 138.944 Q639.801 137.787 642.51 137.787 Q646.977 137.787 649.269 140.565 Q651.561 143.319 651.561 148.689 Z" fill="#000000" fill-rule="nonzero" fill-opacity="1" /><polyline clip-path="url(#clip810)" style="stroke:#e26f46; stroke-linecap:round; stroke-linejoin:round; stroke-width:4; stroke-opacity:1; fill:none" points="253.896,198.898 400.328,198.898 "/>
<path clip-path="url(#clip810)" d="M424.733 181.618 L446.585 181.618 L446.585 185.553 L429.409 185.553 L429.409 195.784 L445.867 195.784 L445.867 199.719 L429.409 199.719 L429.409 212.242 L447.001 212.242 L447.001 216.178 L424.733 216.178 L424.733 181.618 Z" fill="#000000" fill-rule="nonzero" fill-opacity="1" /><path clip-path="url(#clip810)" d="M476.052 190.252 L466.677 202.867 L476.538 216.178 L471.515 216.178 L463.969 205.992 L456.423 216.178 L451.4 216.178 L461.469 202.613 L452.256 190.252 L457.279 190.252 L464.154 199.488 L471.029 190.252 L476.052 190.252 Z" fill="#000000" fill-rule="nonzero" fill-opacity="1" /><path clip-path="url(#clip810)" d="M494.339 203.145 Q489.177 203.145 487.186 204.326 Q485.196 205.506 485.196 208.354 Q485.196 210.622 486.677 211.965 Q488.182 213.284 490.751 213.284 Q494.293 213.284 496.422 210.784 Q498.575 208.261 498.575 204.094 L498.575 203.145 L494.339 203.145 M502.834 201.386 L502.834 216.178 L498.575 216.178 L498.575 212.242 Q497.117 214.603 494.941 215.738 Q492.765 216.849 489.617 216.849 Q485.635 216.849 483.274 214.627 Q480.936 212.381 480.936 208.631 Q480.936 204.256 483.853 202.034 Q486.793 199.812 492.603 199.812 L498.575 199.812 L498.575 199.395 Q498.575 196.455 496.631 194.858 Q494.71 193.238 491.214 193.238 Q488.992 193.238 486.885 193.77 Q484.779 194.303 482.835 195.367 L482.835 191.432 Q485.173 190.53 487.372 190.09 Q489.571 189.627 491.654 189.627 Q497.279 189.627 500.057 192.543 Q502.834 195.46 502.834 201.386 Z" fill="#000000" fill-rule="nonzero" fill-opacity="1" /><path clip-path="url(#clip810)" d="M530.265 191.247 L530.265 195.229 Q528.459 194.233 526.631 193.747 Q524.825 193.238 522.973 193.238 Q518.83 193.238 516.538 195.877 Q514.246 198.492 514.246 203.238 Q514.246 207.983 516.538 210.622 Q518.83 213.238 522.973 213.238 Q524.825 213.238 526.631 212.752 Q528.459 212.242 530.265 211.247 L530.265 215.182 Q528.482 216.016 526.561 216.432 Q524.663 216.849 522.51 216.849 Q516.654 216.849 513.205 213.168 Q509.756 209.488 509.756 203.238 Q509.756 196.895 513.228 193.261 Q516.723 189.627 522.788 189.627 Q524.756 189.627 526.631 190.043 Q528.506 190.437 530.265 191.247 Z" fill="#000000" fill-rule="nonzero" fill-opacity="1" /><path clip-path="url(#clip810)" d="M541.885 182.891 L541.885 190.252 L550.658 190.252 L550.658 193.562 L541.885 193.562 L541.885 207.636 Q541.885 210.807 542.742 211.71 Q543.621 212.613 546.283 212.613 L550.658 212.613 L550.658 216.178 L546.283 216.178 Q541.353 216.178 539.478 214.349 Q537.603 212.497 537.603 207.636 L537.603 193.562 L534.478 193.562 L534.478 190.252 L537.603 190.252 L537.603 182.891 L541.885 182.891 Z" fill="#000000" fill-rule="nonzero" fill-opacity="1" /></svg>
