<?xml version="1.0" encoding="utf-8"?>
<svg xmlns="http://www.w3.org/2000/svg" xmlns:xlink="http://www.w3.org/1999/xlink" width="600" height="400" viewBox="0 0 2400 1600">
<defs>
  <clipPath id="clip840">
    <rect x="0" y="0" width="2400" height="1600"/>
  </clipPath>
</defs>
<path clip-path="url(#clip840)" d="M0 1600 L2400 1600 L2400 0 L0 0  Z" fill="#ffffff" fill-rule="evenodd" fill-opacity="1"/>
<defs>
  <clipPath id="clip841">
    <rect x="480" y="0" width="1681" height="1600"/>
  </clipPath>
</defs>
<path clip-path="url(#clip840)" d="M156.274 1486.45 L2352.76 1486.45 L2352.76 47.2441 L156.274 47.2441  Z" fill="#ffffff" fill-rule="evenodd" fill-opacity="1"/>
<defs>
  <clipPath id="clip842">
    <rect x="156" y="47" width="2197" height="1440"/>
  </clipPath>
</defs>
<polyline clip-path="url(#clip842)" style="stroke:#000000; stroke-linecap:round; stroke-linejoin:round; stroke-width:2; stroke-opacity:0.1; fill:none" points="218.439,1486.45 218.439,47.2441 "/>
<polyline clip-path="url(#clip842)" style="stroke:#000000; stroke-linecap:round; stroke-linejoin:round; stroke-width:2; stroke-opacity:0.1; fill:none" points="736.477,1486.45 736.477,47.2441 "/>
<polyline clip-path="url(#clip842)" style="stroke:#000000; stroke-linecap:round; stroke-linejoin:round; stroke-width:2; stroke-opacity:0.1; fill:none" points="1254.52,1486.45 1254.52,47.2441 "/>
<polyline clip-path="url(#clip842)" style="stroke:#000000; stroke-linecap:round; stroke-linejoin:round; stroke-width:2; stroke-opacity:0.1; fill:none" points="1772.55,1486.45 1772.55,47.2441 "/>
<polyline clip-path="url(#clip842)" style="stroke:#000000; stroke-linecap:round; stroke-linejoin:round; stroke-width:2; stroke-opacity:0.1; fill:none" points="2290.59,1486.45 2290.59,47.2441 "/>
<polyline clip-path="url(#clip840)" style="stroke:#000000; stroke-linecap:round; stroke-linejoin:round; stroke-width:4; stroke-opacity:1; fill:none" points="156.274,1486.45 2352.76,1486.45 "/>
<polyline clip-path="url(#clip840)" style="stroke:#000000; stroke-linecap:round; stroke-linejoin:round; stroke-width:4; stroke-opacity:1; fill:none" points="218.439,1486.45 218.439,1467.55 "/>
<polyline clip-path="url(#clip840)" style="stroke:#000000; stroke-linecap:round; stroke-linejoin:round; stroke-width:4; stroke-opacity:1; fill:none" points="736.477,1486.45 736.477,1467.55 "/>
<polyline clip-path="url(#clip840)" style="stroke:#000000; stroke-linecap:round; stroke-linejoin:round; stroke-width:4; stroke-opacity:1; fill:none" points="1254.52,1486.45 1254.52,1467.55 "/>
<polyline clip-path="url(#clip840)" style="stroke:#000000; stroke-linecap:round; stroke-linejoin:round; stroke-width:4; stroke-opacity:1; fill:none" points="1772.55,1486.45 1772.55,1467.55 "/>
<polyline clip-path="url(#clip840)" style="stroke:#000000; stroke-linecap:round; stroke-linejoin:round; stroke-width:4; stroke-opacity:1; fill:none" points="2290.59,1486.45 2290.59,1467.55 "/>
<path clip-path="url(#clip840)" d="M164.967 1532.02 L194.643 1532.02 L194.643 1535.95 L164.967 1535.95 L164.967 1532.02 Z" fill="#000000" fill-rule="nonzero" fill-opacity="1" /><path clip-path="url(#clip840)" d="M205.545 1544.91 L213.184 1544.91 L213.184 1518.55 L204.874 1520.21 L204.874 1515.95 L213.138 1514.29 L217.814 1514.29 L217.814 1544.91 L225.453 1544.91 L225.453 1548.85 L205.545 1548.85 L205.545 1544.91 Z" fill="#000000" fill-rule="nonzero" fill-opacity="1" /><path clip-path="url(#clip840)" d="M234.897 1542.97 L239.781 1542.97 L239.781 1548.85 L234.897 1548.85 L234.897 1542.97 Z" fill="#000000" fill-rule="nonzero" fill-opacity="1" /><path clip-path="url(#clip840)" d="M259.966 1517.37 Q256.355 1517.37 254.527 1520.93 Q252.721 1524.47 252.721 1531.6 Q252.721 1538.71 254.527 1542.27 Q256.355 1545.82 259.966 1545.82 Q263.601 1545.82 265.406 1542.27 Q267.235 1538.71 267.235 1531.6 Q267.235 1524.47 265.406 1520.93 Q263.601 1517.37 259.966 1517.37 M259.966 1513.66 Q265.776 1513.66 268.832 1518.27 Q271.911 1522.85 271.911 1531.6 Q271.911 1540.33 268.832 1544.94 Q265.776 1549.52 259.966 1549.52 Q254.156 1549.52 251.077 1544.94 Q248.022 1540.33 248.022 1531.6 Q248.022 1522.85 251.077 1518.27 Q254.156 1513.66 259.966 1513.66 Z" fill="#000000" fill-rule="nonzero" fill-opacity="1" /><path clip-path="url(#clip840)" d="M683.503 1532.02 L713.178 1532.02 L713.178 1535.95 L683.503 1535.95 L683.503 1532.02 Z" fill="#000000" fill-rule="nonzero" fill-opacity="1" /><path clip-path="url(#clip840)" d="M733.271 1517.37 Q729.66 1517.37 727.831 1520.93 Q726.026 1524.47 726.026 1531.6 Q726.026 1538.71 727.831 1542.27 Q729.66 1545.82 733.271 1545.82 Q736.905 1545.82 738.711 1542.27 Q740.539 1538.71 740.539 1531.6 Q740.539 1524.47 738.711 1520.93 Q736.905 1517.37 733.271 1517.37 M733.271 1513.66 Q739.081 1513.66 742.137 1518.27 Q745.215 1522.85 745.215 1531.6 Q745.215 1540.33 742.137 1544.94 Q739.081 1549.52 733.271 1549.52 Q727.461 1549.52 724.382 1544.94 Q721.327 1540.33 721.327 1531.6 Q721.327 1522.85 724.382 1518.27 Q727.461 1513.66 733.271 1513.66 Z" fill="#000000" fill-rule="nonzero" fill-opacity="1" /><path clip-path="url(#clip840)" d="M753.433 1542.97 L758.317 1542.97 L758.317 1548.85 L753.433 1548.85 L753.433 1542.97 Z" fill="#000000" fill-rule="nonzero" fill-opacity="1" /><path clip-path="url(#clip840)" d="M768.548 1514.29 L786.905 1514.29 L786.905 1518.22 L772.831 1518.22 L772.831 1526.7 Q773.849 1526.35 774.868 1526.19 Q775.886 1526 776.905 1526 Q782.692 1526 786.072 1529.17 Q789.451 1532.34 789.451 1537.76 Q789.451 1543.34 785.979 1546.44 Q782.507 1549.52 776.187 1549.52 Q774.011 1549.52 771.743 1549.15 Q769.498 1548.78 767.09 1548.04 L767.09 1543.34 Q769.173 1544.47 771.396 1545.03 Q773.618 1545.58 776.095 1545.58 Q780.099 1545.58 782.437 1543.48 Q784.775 1541.37 784.775 1537.76 Q784.775 1534.15 782.437 1532.04 Q780.099 1529.94 776.095 1529.94 Q774.22 1529.94 772.345 1530.35 Q770.493 1530.77 768.548 1531.65 L768.548 1514.29 Z" fill="#000000" fill-rule="nonzero" fill-opacity="1" /><path clip-path="url(#clip840)" d="M1231.9 1517.37 Q1228.29 1517.37 1226.46 1520.93 Q1224.65 1524.47 1224.65 1531.6 Q1224.65 1538.71 1226.46 1542.27 Q1228.29 1545.82 1231.9 1545.82 Q1235.53 1545.82 1237.34 1542.27 Q1239.17 1538.71 1239.17 1531.6 Q1239.17 1524.47 1237.34 1520.93 Q1235.53 1517.37 1231.9 1517.37 M1231.9 1513.66 Q1237.71 1513.66 1240.77 1518.27 Q1243.84 1522.85 1243.84 1531.6 Q1243.84 1540.33 1240.77 1544.94 Q1237.71 1549.52 1231.9 1549.52 Q1226.09 1549.52 1223.01 1544.94 Q1219.96 1540.33 1219.96 1531.6 Q1219.96 1522.85 1223.01 1518.27 Q1226.09 1513.66 1231.9 1513.66 Z" fill="#000000" fill-rule="nonzero" fill-opacity="1" /><path clip-path="url(#clip840)" d="M1252.06 1542.97 L1256.95 1542.97 L1256.95 1548.85 L1252.06 1548.85 L1252.06 1542.97 Z" fill="#000000" fill-rule="nonzero" fill-opacity="1" /><path clip-path="url(#clip840)" d="M1277.13 1517.37 Q1273.52 1517.37 1271.69 1520.93 Q1269.89 1524.47 1269.89 1531.6 Q1269.89 1538.71 1271.69 1542.27 Q1273.52 1545.82 1277.13 1545.82 Q1280.76 1545.82 1282.57 1542.27 Q1284.4 1538.71 1284.4 1531.6 Q1284.4 1524.47 1282.57 1520.93 Q1280.76 1517.37 1277.13 1517.37 M1277.13 1513.66 Q1282.94 1513.66 1286 1518.27 Q1289.08 1522.85 1289.08 1531.6 Q1289.08 1540.33 1286 1544.94 Q1282.94 1549.52 1277.13 1549.52 Q1271.32 1549.52 1268.24 1544.94 Q1265.19 1540.33 1265.19 1531.6 Q1265.19 1522.85 1268.24 1518.27 Q1271.32 1513.66 1277.13 1513.66 Z" fill="#000000" fill-rule="nonzero" fill-opacity="1" /><path clip-path="url(#clip840)" d="M1750.44 1517.37 Q1746.82 1517.37 1745 1520.93 Q1743.19 1524.47 1743.19 1531.6 Q1743.19 1538.71 1745 1542.27 Q1746.82 1545.82 1750.44 1545.82 Q1754.07 1545.82 1755.88 1542.27 Q1757.7 1538.71 1757.7 1531.6 Q1757.7 1524.47 1755.88 1520.93 Q1754.07 1517.37 1750.44 1517.37 M1750.44 1513.66 Q1756.25 1513.66 1759.3 1518.27 Q1762.38 1522.85 1762.38 1531.6 Q1762.38 1540.33 1759.3 1544.94 Q1756.25 1549.52 1750.44 1549.52 Q1744.63 1549.52 1741.55 1544.94 Q1738.49 1540.33 1738.49 1531.6 Q1738.49 1522.85 1741.55 1518.27 Q1744.63 1513.66 1750.44 1513.66 Z" fill="#000000" fill-rule="nonzero" fill-opacity="1" /><path clip-path="url(#clip840)" d="M1770.6 1542.97 L1775.48 1542.97 L1775.48 1548.85 L1770.6 1548.85 L1770.6 1542.97 Z" fill="#000000" fill-rule="nonzero" fill-opacity="1" /><path clip-path="url(#clip840)" d="M1785.71 1514.29 L1804.07 1514.29 L1804.07 1518.22 L1790 1518.22 L1790 1526.7 Q1791.01 1526.35 1792.03 1526.19 Q1793.05 1526 1794.07 1526 Q1799.86 1526 1803.24 1529.17 Q1806.62 1532.34 1806.62 1537.76 Q1806.62 1543.34 1803.14 1546.44 Q1799.67 1549.52 1793.35 1549.52 Q1791.18 1549.52 1788.91 1549.15 Q1786.66 1548.78 1784.25 1548.04 L1784.25 1543.34 Q1786.34 1544.47 1788.56 1545.03 Q1790.78 1545.58 1793.26 1545.58 Q1797.26 1545.58 1799.6 1543.48 Q1801.94 1541.37 1801.94 1537.76 Q1801.94 1534.15 1799.6 1532.04 Q1797.26 1529.94 1793.26 1529.94 Q1791.38 1529.94 1789.51 1530.35 Q1787.66 1530.77 1785.71 1531.65 L1785.71 1514.29 Z" fill="#000000" fill-rule="nonzero" fill-opacity="1" /><path clip-path="url(#clip840)" d="M2257.74 1544.91 L2265.38 1544.91 L2265.38 1518.55 L2257.07 1520.21 L2257.07 1515.95 L2265.34 1514.29 L2270.01 1514.29 L2270.01 1544.91 L2277.65 1544.91 L2277.65 1548.85 L2257.74 1548.85 L2257.74 1544.91 Z" fill="#000000" fill-rule="nonzero" fill-opacity="1" /><path clip-path="url(#clip840)" d="M2287.1 1542.97 L2291.98 1542.97 L2291.98 1548.85 L2287.1 1548.85 L2287.1 1542.97 Z" fill="#000000" fill-rule="nonzero" fill-opacity="1" /><path clip-path="url(#clip840)" d="M2312.17 1517.37 Q2308.55 1517.37 2306.73 1520.93 Q2304.92 1524.47 2304.92 1531.6 Q2304.92 1538.71 2306.73 1542.27 Q2308.55 1545.82 2312.17 1545.82 Q2315.8 1545.82 2317.61 1542.27 Q2319.43 1538.71 2319.43 1531.6 Q2319.43 1524.47 2317.61 1520.93 Q2315.8 1517.37 2312.17 1517.37 M2312.17 1513.66 Q2317.98 1513.66 2321.03 1518.27 Q2324.11 1522.85 2324.11 1531.6 Q2324.11 1540.33 2321.03 1544.94 Q2317.98 1549.52 2312.17 1549.52 Q2306.36 1549.52 2303.28 1544.94 Q2300.22 1540.33 2300.22 1531.6 Q2300.22 1522.85 2303.28 1518.27 Q2306.36 1513.66 2312.17 1513.66 Z" fill="#000000" fill-rule="nonzero" fill-opacity="1" /><polyline clip-path="url(#clip842)" style="stroke:#000000; stroke-linecap:round; stroke-linejoin:round; stroke-width:2; stroke-opacity:0.1; fill:none" points="156.274,1252.73 2352.76,1252.73 "/>
<polyline clip-path="url(#clip842)" style="stroke:#000000; stroke-linecap:round; stroke-linejoin:round; stroke-width:2; stroke-opacity:0.1; fill:none" points="156.274,979.379 2352.76,979.379 "/>
<polyline clip-path="url(#clip842)" style="stroke:#000000; stroke-linecap:round; stroke-linejoin:round; stroke-width:2; stroke-opacity:0.1; fill:none" points="156.274,706.031 2352.76,706.031 "/>
<polyline clip-path="url(#clip842)" style="stroke:#000000; stroke-linecap:round; stroke-linejoin:round; stroke-width:2; stroke-opacity:0.1; fill:none" points="156.274,432.682 2352.76,432.682 "/>
<polyline clip-path="url(#clip842)" style="stroke:#000000; stroke-linecap:round; stroke-linejoin:round; stroke-width:2; stroke-opacity:0.1; fill:none" points="156.274,159.334 2352.76,159.334 "/>
<polyline clip-path="url(#clip840)" style="stroke:#000000; stroke-linecap:round; stroke-linejoin:round; stroke-width:4; stroke-opacity:1; fill:none" points="156.274,1486.45 156.274,47.2441 "/>
<polyline clip-path="url(#clip840)" style="stroke:#000000; stroke-linecap:round; stroke-linejoin:round; stroke-width:4; stroke-opacity:1; fill:none" points="156.274,1252.73 175.172,1252.73 "/>
<polyline clip-path="url(#clip840)" style="stroke:#000000; stroke-linecap:round; stroke-linejoin:round; stroke-width:4; stroke-opacity:1; fill:none" points="156.274,979.379 175.172,979.379 "/>
<polyline clip-path="url(#clip840)" style="stroke:#000000; stroke-linecap:round; stroke-linejoin:round; stroke-width:4; stroke-opacity:1; fill:none" points="156.274,706.031 175.172,706.031 "/>
<polyline clip-path="url(#clip840)" style="stroke:#000000; stroke-linecap:round; stroke-linejoin:round; stroke-width:4; stroke-opacity:1; fill:none" points="156.274,432.682 175.172,432.682 "/>
<polyline clip-path="url(#clip840)" style="stroke:#000000; stroke-linecap:round; stroke-linejoin:round; stroke-width:4; stroke-opacity:1; fill:none" points="156.274,159.334 175.172,159.334 "/>
<path clip-path="url(#clip840)" d="M63.0985 1238.53 Q59.4875 1238.53 57.6588 1242.09 Q55.8532 1245.63 55.8532 1252.76 Q55.8532 1259.87 57.6588 1263.43 Q59.4875 1266.98 63.0985 1266.98 Q66.7328 1266.98 68.5383 1263.43 Q70.367 1259.87 70.367 1252.76 Q70.367 1245.63 68.5383 1242.09 Q66.7328 1238.53 63.0985 1238.53 M63.0985 1234.82 Q68.9087 1234.82 71.9642 1239.43 Q75.0429 1244.01 75.0429 1252.76 Q75.0429 1261.49 71.9642 1266.1 Q68.9087 1270.68 63.0985 1270.68 Q57.2884 1270.68 54.2097 1266.1 Q51.1542 1261.49 51.1542 1252.76 Q51.1542 1244.01 54.2097 1239.43 Q57.2884 1234.82 63.0985 1234.82 Z" fill="#000000" fill-rule="nonzero" fill-opacity="1" /><path clip-path="url(#clip840)" d="M83.2605 1264.13 L88.1447 1264.13 L88.1447 1270.01 L83.2605 1270.01 L83.2605 1264.13 Z" fill="#000000" fill-rule="nonzero" fill-opacity="1" /><path clip-path="url(#clip840)" d="M108.33 1238.53 Q104.719 1238.53 102.89 1242.09 Q101.084 1245.63 101.084 1252.76 Q101.084 1259.87 102.89 1263.43 Q104.719 1266.98 108.33 1266.98 Q111.964 1266.98 113.77 1263.43 Q115.598 1259.87 115.598 1252.76 Q115.598 1245.63 113.77 1242.09 Q111.964 1238.53 108.33 1238.53 M108.33 1234.82 Q114.14 1234.82 117.195 1239.43 Q120.274 1244.01 120.274 1252.76 Q120.274 1261.49 117.195 1266.1 Q114.14 1270.68 108.33 1270.68 Q102.52 1270.68 99.4409 1266.1 Q96.3854 1261.49 96.3854 1252.76 Q96.3854 1244.01 99.4409 1239.43 Q102.52 1234.82 108.33 1234.82 Z" fill="#000000" fill-rule="nonzero" fill-opacity="1" /><path clip-path="url(#clip840)" d="M63.7467 965.178 Q60.1356 965.178 58.3069 968.743 Q56.5014 972.285 56.5014 979.414 Q56.5014 986.521 58.3069 990.085 Q60.1356 993.627 63.7467 993.627 Q67.3809 993.627 69.1865 990.085 Q71.0152 986.521 71.0152 979.414 Q71.0152 972.285 69.1865 968.743 Q67.3809 965.178 63.7467 965.178 M63.7467 961.474 Q69.5568 961.474 72.6124 966.081 Q75.6911 970.664 75.6911 979.414 Q75.6911 988.141 72.6124 992.747 Q69.5568 997.331 63.7467 997.331 Q57.9365 997.331 54.8578 992.747 Q51.8023 988.141 51.8023 979.414 Q51.8023 970.664 54.8578 966.081 Q57.9365 961.474 63.7467 961.474 Z" fill="#000000" fill-rule="nonzero" fill-opacity="1" /><path clip-path="url(#clip840)" d="M83.9086 990.78 L88.7928 990.78 L88.7928 996.659 L83.9086 996.659 L83.9086 990.78 Z" fill="#000000" fill-rule="nonzero" fill-opacity="1" /><path clip-path="url(#clip840)" d="M113.145 978.025 Q116.501 978.743 118.376 981.011 Q120.274 983.28 120.274 986.613 Q120.274 991.729 116.756 994.53 Q113.237 997.331 106.756 997.331 Q104.58 997.331 102.265 996.891 Q99.9733 996.474 97.5197 995.618 L97.5197 991.104 Q99.4641 992.238 101.779 992.817 Q104.094 993.396 106.617 993.396 Q111.015 993.396 113.307 991.659 Q115.621 989.923 115.621 986.613 Q115.621 983.558 113.469 981.845 Q111.339 980.109 107.52 980.109 L103.492 980.109 L103.492 976.266 L107.705 976.266 Q111.154 976.266 112.983 974.9 Q114.811 973.511 114.811 970.919 Q114.811 968.257 112.913 966.845 Q111.038 965.41 107.52 965.41 Q105.598 965.41 103.399 965.826 Q101.2 966.243 98.5613 967.122 L98.5613 962.956 Q101.223 962.215 103.538 961.845 Q105.876 961.474 107.936 961.474 Q113.26 961.474 116.362 963.905 Q119.464 966.312 119.464 970.433 Q119.464 973.303 117.82 975.294 Q116.177 977.261 113.145 978.025 Z" fill="#000000" fill-rule="nonzero" fill-opacity="1" /><path clip-path="url(#clip840)" d="M62.9365 691.83 Q59.3254 691.83 57.4967 695.394 Q55.6912 698.936 55.6912 706.066 Q55.6912 713.172 57.4967 716.737 Q59.3254 720.278 62.9365 720.278 Q66.5707 720.278 68.3763 716.737 Q70.205 713.172 70.205 706.066 Q70.205 698.936 68.3763 695.394 Q66.5707 691.83 62.9365 691.83 M62.9365 688.126 Q68.7467 688.126 71.8022 692.732 Q74.8809 697.316 74.8809 706.066 Q74.8809 714.792 71.8022 719.399 Q68.7467 723.982 62.9365 723.982 Q57.1264 723.982 54.0477 719.399 Q50.9921 714.792 50.9921 706.066 Q50.9921 697.316 54.0477 692.732 Q57.1264 688.126 62.9365 688.126 Z" fill="#000000" fill-rule="nonzero" fill-opacity="1" /><path clip-path="url(#clip840)" d="M83.0984 717.431 L87.9827 717.431 L87.9827 723.311 L83.0984 723.311 L83.0984 717.431 Z" fill="#000000" fill-rule="nonzero" fill-opacity="1" /><path clip-path="url(#clip840)" d="M108.746 704.167 Q105.598 704.167 103.746 706.32 Q101.918 708.473 101.918 712.223 Q101.918 715.95 103.746 718.126 Q105.598 720.278 108.746 720.278 Q111.895 720.278 113.723 718.126 Q115.575 715.95 115.575 712.223 Q115.575 708.473 113.723 706.32 Q111.895 704.167 108.746 704.167 M118.029 689.515 L118.029 693.774 Q116.27 692.941 114.464 692.501 Q112.682 692.061 110.922 692.061 Q106.293 692.061 103.839 695.186 Q101.409 698.311 101.061 704.63 Q102.427 702.617 104.487 701.552 Q106.547 700.464 109.024 700.464 Q114.233 700.464 117.242 703.635 Q120.274 706.783 120.274 712.223 Q120.274 717.547 117.126 720.765 Q113.978 723.982 108.746 723.982 Q102.751 723.982 99.5798 719.399 Q96.4085 714.792 96.4085 706.066 Q96.4085 697.871 100.297 693.01 Q104.186 688.126 110.737 688.126 Q112.496 688.126 114.279 688.473 Q116.084 688.82 118.029 689.515 Z" fill="#000000" fill-rule="nonzero" fill-opacity="1" /><path clip-path="url(#clip840)" d="M63.2837 418.481 Q59.6726 418.481 57.8439 422.046 Q56.0384 425.587 56.0384 432.717 Q56.0384 439.824 57.8439 443.388 Q59.6726 446.93 63.2837 446.93 Q66.918 446.93 68.7235 443.388 Q70.5522 439.824 70.5522 432.717 Q70.5522 425.587 68.7235 422.046 Q66.918 418.481 63.2837 418.481 M63.2837 414.777 Q69.0939 414.777 72.1494 419.384 Q75.2281 423.967 75.2281 432.717 Q75.2281 441.444 72.1494 446.05 Q69.0939 450.634 63.2837 450.634 Q57.4736 450.634 54.3949 446.05 Q51.3393 441.444 51.3393 432.717 Q51.3393 423.967 54.3949 419.384 Q57.4736 414.777 63.2837 414.777 Z" fill="#000000" fill-rule="nonzero" fill-opacity="1" /><path clip-path="url(#clip840)" d="M83.4457 444.083 L88.3299 444.083 L88.3299 449.962 L83.4457 449.962 L83.4457 444.083 Z" fill="#000000" fill-rule="nonzero" fill-opacity="1" /><path clip-path="url(#clip840)" d="M98.6539 449.245 L98.6539 444.986 Q100.413 445.819 102.219 446.259 Q104.024 446.698 105.76 446.698 Q110.39 446.698 112.82 443.597 Q115.274 440.472 115.621 434.129 Q114.279 436.12 112.219 437.185 Q110.158 438.249 107.658 438.249 Q102.473 438.249 99.4409 435.124 Q96.4317 431.976 96.4317 426.537 Q96.4317 421.213 99.5798 417.995 Q102.728 414.777 107.959 414.777 Q113.955 414.777 117.103 419.384 Q120.274 423.967 120.274 432.717 Q120.274 440.888 116.385 445.773 Q112.52 450.634 105.969 450.634 Q104.209 450.634 102.404 450.286 Q100.598 449.939 98.6539 449.245 M107.959 434.592 Q111.108 434.592 112.936 432.439 Q114.788 430.287 114.788 426.537 Q114.788 422.81 112.936 420.657 Q111.108 418.481 107.959 418.481 Q104.811 418.481 102.959 420.657 Q101.131 422.81 101.131 426.537 Q101.131 430.287 102.959 432.439 Q104.811 434.592 107.959 434.592 Z" fill="#000000" fill-rule="nonzero" fill-opacity="1" /><path clip-path="url(#clip840)" d="M55.506 172.679 L63.1448 172.679 L63.1448 146.313 L54.8347 147.98 L54.8347 143.72 L63.0985 142.054 L67.7744 142.054 L67.7744 172.679 L75.4133 172.679 L75.4133 176.614 L55.506 176.614 L55.506 172.679 Z" fill="#000000" fill-rule="nonzero" fill-opacity="1" /><path clip-path="url(#clip840)" d="M84.8577 170.734 L89.7419 170.734 L89.7419 176.614 L84.8577 176.614 L84.8577 170.734 Z" fill="#000000" fill-rule="nonzero" fill-opacity="1" /><path clip-path="url(#clip840)" d="M103.955 172.679 L120.274 172.679 L120.274 176.614 L98.3298 176.614 L98.3298 172.679 Q100.992 169.924 105.575 165.294 Q110.182 160.642 111.362 159.299 Q113.608 156.776 114.487 155.04 Q115.39 153.281 115.39 151.591 Q115.39 148.836 113.445 147.1 Q111.524 145.364 108.422 145.364 Q106.223 145.364 103.77 146.128 Q101.339 146.892 98.5613 148.443 L98.5613 143.72 Q101.385 142.586 103.839 142.008 Q106.293 141.429 108.33 141.429 Q113.7 141.429 116.895 144.114 Q120.089 146.799 120.089 151.29 Q120.089 153.42 119.279 155.341 Q118.492 157.239 116.385 159.832 Q115.807 160.503 112.705 163.72 Q109.603 166.915 103.955 172.679 Z" fill="#000000" fill-rule="nonzero" fill-opacity="1" /><polyline clip-path="url(#clip842)" style="stroke:#009af9; stroke-linecap:round; stroke-linejoin:round; stroke-width:16; stroke-opacity:1; fill:none" stroke-dasharray="8, 16" points="218.439,1115.65 228.852,1104.55 239.264,1091.55 249.677,1079.28 260.09,1070.64 270.503,1068.43 280.916,1074.86 291.329,1090.91 301.741,1115.45 312.154,1145.04 322.567,1175.32 332.98,1203.85 343.393,1231.59 353.805,1260.96 364.218,1292.75 374.631,1325.24 385.044,1355.77 395.457,1382.3 405.87,1403.7 416.282,1419.49 426.695,1429.78 437.108,1434.83 447.521,1434.39 457.934,1427.86 468.347,1415.11 478.759,1396.79 489.172,1373.96 499.585,1347.55 509.998,1318.31 520.411,1286.96 530.824,1254.42 541.236,1221.69 551.649,1189.84 562.062,1159.9 572.475,1132.92 582.888,1109.98 593.301,1091.96 603.713,1079.42 614.126,1072.55 624.539,1071.32 634.952,1075.71 645.365,1085.72 655.777,1101.29 666.19,1122.02 676.603,1147.15 687.016,1175.73 697.429,1206.8 707.842,1239.39 718.254,1272.25 728.667,1303.84 739.08,1332.8 749.493,1358.97 759.906,1383.63 770.319,1407.85 780.731,1429.69 791.144,1443.57 801.557,1443.78 811.97,1429.8 822.383,1407.69 832.796,1385.72 843.208,1371.62 853.621,1368.94 864.034,1360.31 874.447,1324.59 884.86,1276.08 895.273,1245.01 905.685,1237.37 916.098,1218.84 926.511,1170.6 936.924,1126.71 947.337,1072.79 957.749,1013.39 968.162,1016.79 978.575,1065.91 988.988,1103.36 999.401,1120.55 1009.81,1124.73 1020.23,1113.42 1030.64,1091.76 1041.05,1094.36 1051.46,1145.58 1061.88,1211.46 1072.29,1248.3 1082.7,1283.32 1093.12,1338.53 1103.53,1354.99 1113.94,1335.51 1124.35,1327.91 1134.77,1358.32 1145.18,1412.54 1155.59,1445.72 1166.01,1442.49 1176.42,1426.73 1186.83,1416.88 1197.24,1414.77 1207.66,1415.47 1218.07,1407.76 1228.48,1364.37 1238.9,1238.06 1249.31,996.173 1259.72,687.22 1270.13,428.039 1280.55,290.916 1290.96,261.197 1301.37,290.088 1311.79,335.282 1322.2,370.578 1332.61,383.743 1343.02,371.811 1353.44,341.53 1363.85,314.956 1374.26,316.257 1384.68,328.963 1395.09,323.295 1405.5,350.381 1415.91,410.845 1426.33,431.381 1436.74,410.917 1447.15,378.262 1457.57,349.688 1467.98,327.64 1478.39,306.118 1488.8,281.717 1499.22,260.112 1509.63,256.054 1520.04,288.973 1530.45,363.847 1540.87,443.709 1551.28,477.038 1561.69,453.261 1572.11,395.876 1582.52,328.259 1592.93,268.666 1603.34,240.75 1613.76,246.919 1624.17,269.618 1634.58,299.287 1645,336.548 1655.41,388.754 1665.82,461.038 1676.23,525.372 1686.65,513.145 1697.06,407.739 1707.47,286.32 1717.89,210.976 1728.3,188.226 1738.71,207.846 1749.12,258.244 1759.54,324.375 1769.95,388.919 1780.36,437.248 1790.78,460.647 1801.19,456.277 1811.6,425.856 1822.01,374.875 1832.43,312.463 1842.84,251.128 1853.25,206.172 1863.67,194.913 1874.08,232.445 1884.49,317.494 1894.9,418.022 1905.32,487.545 1915.73,503.705 1926.14,474.969 1936.56,416.889 1946.97,340.528 1957.38,257.879 1967.79,188.039 1978.21,155.315 1988.62,177.897 1999.03,254.739 2009.45,362.846 2019.86,467.215 2030.27,534.452 2040.68,543.065 2051.1,490.11 2061.51,393.629 2071.92,286.571 2082.33,202.112 2092.75,160.007 2103.16,163.464 2113.57,205.8 2123.99,279.874 2134.4,381.237 2144.81,495.376 2155.22,576.012 2165.64,561.259 2176.05,443.961 2186.46,293.475 2196.88,184.629 2207.29,143.419 2217.7,157.766 2228.11,205.453 2238.53,268.405 2248.94,335.358 2259.35,400.426 2269.77,461.175 2280.18,517.087 2290.59,568.515 "/>
<polyline clip-path="url(#clip842)" style="stroke:#e26f46; stroke-linecap:round; stroke-linejoin:round; stroke-width:4; stroke-opacity:1; fill:none" points="218.439,1115.87 228.852,1096.46 239.264,1082.14 249.677,1073.39 260.09,1070.5 270.503,1073.55 280.916,1082.45 291.329,1096.9 301.741,1116.45 312.154,1140.44 322.567,1168.09 332.98,1198.51 343.393,1230.7 353.805,1263.6 364.218,1296.16 374.631,1327.29 385.044,1355.99 395.457,1381.32 405.87,1402.45 416.282,1418.7 426.695,1429.53 437.108,1434.59 447.521,1433.71 457.934,1426.93 468.347,1414.46 478.759,1396.71 489.172,1374.27 499.585,1347.86 509.998,1318.34 520.411,1286.68 530.824,1253.91 541.236,1221.11 551.649,1189.33 562.062,1159.63 572.475,1132.96 582.888,1110.2 593.301,1092.1 603.713,1079.24 614.126,1072.03 624.539,1070.73 634.952,1075.37 645.365,1085.79 655.777,1101.67 666.19,1122.47 676.603,1147.52 687.016,1176.01 697.429,1207.01 707.842,1239.49 718.254,1272.41 728.667,1304.68 739.08,1335.26 749.493,1363.14 759.906,1387.43 770.319,1407.31 780.731,1422.15 791.144,1431.46 801.557,1434.94 811.97,1432.47 822.383,1424.13 832.796,1410.2 843.208,1391.13 853.621,1367.55 864.034,1340.21 874.447,1310.02 884.86,1277.96 895.273,1245.08 905.685,1212.45 916.098,1181.13 926.511,1152.15 936.924,1126.45 947.337,1104.87 957.749,1088.12 968.162,1076.74 978.575,1071.1 988.988,1071.39 999.401,1077.6 1009.81,1089.53 1020.23,1106.78 1030.64,1128.8 1041.05,1154.86 1051.46,1184.11 1061.88,1215.61 1072.29,1248.31 1082.7,1281.16 1093.12,1313.08 1103.53,1343.03 1113.94,1370.04 1124.35,1393.21 1134.77,1411.81 1145.18,1425.2 1155.59,1432.97 1166.01,1434.86 1176.42,1430.8 1186.83,1420.93 1197.24,1405.57 1207.66,1385.23 1218.07,1360.55 1228.48,1332.36 1238.9,1301.57 1249.31,1269.19 1259.72,340.243 1270.13,338.737 1280.55,340.108 1290.96,344.67 1301.37,351.026 1311.79,356.491 1322.2,358.109 1332.61,353.905 1343.02,343.882 1353.44,330.37 1363.85,317.512 1374.26,310.001 1384.68,311.442 1395.09,322.902 1405.5,342.178 1415.91,364.116 1426.33,381.98 1436.74,389.516 1447.15,383.065 1457.57,363.051 1467.98,334.262 1478.39,304.76 1488.8,283.615 1499.22,278.137 1509.63,291.416 1520.04,321 1530.45,359.206 1540.87,395.097 1551.28,417.606 1561.69,418.939 1572.11,397.193 1582.52,357.338 1592.93,310.161 1603.34,269.353 1613.76,247.538 1624.17,252.388 1634.58,284.015 1645,334.505 1655.41,389.855 1665.82,433.853 1676.23,452.822 1686.65,439.85 1697.06,397.196 1707.47,336.059 1717.89,273.671 1728.3,228.435 1738.71,214.503 1749.12,237.38 1759.54,291.906 1769.95,363.337 1780.36,431.312 1790.78,475.66 1801.19,482.378 1811.6,448.015 1822.01,381.104 1832.43,300.094 1842.84,228.271 1853.25,187.068 1863.67,189.673 1874.08,236.856 1884.49,316.309 1894.9,405.826 1905.32,479.5 1915.73,515.225 1926.14,501.313 1936.56,440.266 1946.97,348.482 1957.38,251.875 1967.79,178.559 1978.21,150.671 1988.62,177.697 1999.03,253.328 2009.45,356.853 2019.86,458.813 2030.27,529.39 2040.68,547.117 2051.1,505.394 2061.51,414.812 2071.92,300.517 2082.33,195.232 2092.75,129.895 2103.16,124.565 2113.57,182.296 2123.99,287.816 2134.4,411.542 2144.81,517.865 2155.22,575.397 2165.64,566.237 2176.05,491.502 2186.46,371.445 2196.88,239.985 2207.29,135.127 2217.7,87.9763 2228.11,113.519 2238.53,205.904 2248.94,339.695 2259.35,476.86 2269.77,577.587 2280.18,611.826 2290.59,568.257 "/>
<path clip-path="url(#clip840)" d="M229.49 250.738 L675.966 250.738 L675.966 95.2176 L229.49 95.2176  Z" fill="#ffffff" fill-rule="evenodd" fill-opacity="1"/>
<polyline clip-path="url(#clip840)" style="stroke:#000000; stroke-linecap:round; stroke-linejoin:round; stroke-width:4; stroke-opacity:1; fill:none" points="229.49,250.738 675.966,250.738 675.966,95.2176 229.49,95.2176 229.49,250.738 "/>
<polyline clip-path="url(#clip840)" style="stroke:#009af9; stroke-linecap:round; stroke-linejoin:round; stroke-width:16; stroke-opacity:1; fill:none" stroke-dasharray="8, 16" points="253.896,147.058 400.328,147.058 "/>
<path clip-path="url(#clip840)" d="M429.409 133.62 L429.409 146.606 L435.289 146.606 Q438.552 146.606 440.335 144.916 Q442.117 143.227 442.117 140.102 Q442.117 137 440.335 135.31 Q438.552 133.62 435.289 133.62 L429.409 133.62 M424.733 129.778 L435.289 129.778 Q441.099 129.778 444.062 132.416 Q447.048 135.032 447.048 140.102 Q447.048 145.217 444.062 147.833 Q441.099 150.449 435.289 150.449 L429.409 150.449 L429.409 164.338 L424.733 164.338 L424.733 129.778 Z" fill="#000000" fill-rule="nonzero" fill-opacity="1" /><path clip-path="url(#clip840)" d="M467.325 142.393 Q466.608 141.977 465.751 141.791 Q464.918 141.583 463.899 141.583 Q460.288 141.583 458.344 143.944 Q456.423 146.282 456.423 150.68 L456.423 164.338 L452.14 164.338 L452.14 138.412 L456.423 138.412 L456.423 142.44 Q457.765 140.078 459.918 138.944 Q462.071 137.787 465.149 137.787 Q465.589 137.787 466.122 137.856 Q466.654 137.903 467.302 138.018 L467.325 142.393 Z" fill="#000000" fill-rule="nonzero" fill-opacity="1" /><path clip-path="url(#clip840)" d="M492.927 150.31 L492.927 152.393 L473.344 152.393 Q473.622 156.791 475.983 159.106 Q478.367 161.398 482.603 161.398 Q485.057 161.398 487.348 160.796 Q489.663 160.194 491.932 158.99 L491.932 163.018 Q489.64 163.99 487.233 164.5 Q484.825 165.009 482.348 165.009 Q476.145 165.009 472.511 161.398 Q468.899 157.787 468.899 151.629 Q468.899 145.264 472.325 141.537 Q475.774 137.787 481.608 137.787 Q486.839 137.787 489.872 141.166 Q492.927 144.523 492.927 150.31 M488.668 149.06 Q488.622 145.565 486.7 143.481 Q484.802 141.398 481.654 141.398 Q478.089 141.398 475.936 143.412 Q473.807 145.426 473.483 149.083 L488.668 149.06 Z" fill="#000000" fill-rule="nonzero" fill-opacity="1" /><path clip-path="url(#clip840)" d="M516.978 142.347 L516.978 128.319 L521.237 128.319 L521.237 164.338 L516.978 164.338 L516.978 160.449 Q515.635 162.763 513.575 163.898 Q511.538 165.009 508.668 165.009 Q503.969 165.009 501.006 161.259 Q498.066 157.509 498.066 151.398 Q498.066 145.287 501.006 141.537 Q503.969 137.787 508.668 137.787 Q511.538 137.787 513.575 138.921 Q515.635 140.032 516.978 142.347 M502.464 151.398 Q502.464 156.097 504.385 158.782 Q506.33 161.444 509.709 161.444 Q513.089 161.444 515.033 158.782 Q516.978 156.097 516.978 151.398 Q516.978 146.699 515.033 144.037 Q513.089 141.352 509.709 141.352 Q506.33 141.352 504.385 144.037 Q502.464 146.699 502.464 151.398 Z" fill="#000000" fill-rule="nonzero" fill-opacity="1" /><path clip-path="url(#clip840)" d="M530.01 138.412 L534.269 138.412 L534.269 164.338 L530.01 164.338 L530.01 138.412 M530.01 128.319 L534.269 128.319 L534.269 133.713 L530.01 133.713 L530.01 128.319 Z" fill="#000000" fill-rule="nonzero" fill-opacity="1" /><path clip-path="url(#clip840)" d="M561.839 139.407 L561.839 143.389 Q560.033 142.393 558.205 141.907 Q556.399 141.398 554.547 141.398 Q550.404 141.398 548.112 144.037 Q545.82 146.652 545.82 151.398 Q545.82 156.143 548.112 158.782 Q550.404 161.398 554.547 161.398 Q556.399 161.398 558.205 160.912 Q560.033 160.402 561.839 159.407 L561.839 163.342 Q560.056 164.176 558.135 164.592 Q556.237 165.009 554.084 165.009 Q548.228 165.009 544.779 161.328 Q541.33 157.648 541.33 151.398 Q541.33 145.055 544.802 141.421 Q548.297 137.787 554.362 137.787 Q556.33 137.787 558.205 138.203 Q560.08 138.597 561.839 139.407 Z" fill="#000000" fill-rule="nonzero" fill-opacity="1" /><path clip-path="url(#clip840)" d="M573.459 131.051 L573.459 138.412 L582.232 138.412 L582.232 141.722 L573.459 141.722 L573.459 155.796 Q573.459 158.967 574.316 159.87 Q575.195 160.773 577.857 160.773 L582.232 160.773 L582.232 164.338 L577.857 164.338 Q572.927 164.338 571.052 162.509 Q569.177 160.657 569.177 155.796 L569.177 141.722 L566.052 141.722 L566.052 138.412 L569.177 138.412 L569.177 131.051 L573.459 131.051 Z" fill="#000000" fill-rule="nonzero" fill-opacity="1" /><path clip-path="url(#clip840)" d="M587.834 138.412 L592.093 138.412 L592.093 164.338 L587.834 164.338 L587.834 138.412 M587.834 128.319 L592.093 128.319 L592.093 133.713 L587.834 133.713 L587.834 128.319 Z" fill="#000000" fill-rule="nonzero" fill-opacity="1" /><path clip-path="url(#clip840)" d="M611.051 141.398 Q607.626 141.398 605.635 144.083 Q603.644 146.745 603.644 151.398 Q603.644 156.051 605.612 158.736 Q607.602 161.398 611.051 161.398 Q614.454 161.398 616.445 158.713 Q618.436 156.027 618.436 151.398 Q618.436 146.791 616.445 144.106 Q614.454 141.398 611.051 141.398 M611.051 137.787 Q616.607 137.787 619.778 141.398 Q622.95 145.009 622.95 151.398 Q622.95 157.764 619.778 161.398 Q616.607 165.009 611.051 165.009 Q605.473 165.009 602.302 161.398 Q599.153 157.764 599.153 151.398 Q599.153 145.009 602.302 141.398 Q605.473 137.787 611.051 137.787 Z" fill="#000000" fill-rule="nonzero" fill-opacity="1" /><path clip-path="url(#clip840)" d="M651.561 148.689 L651.561 164.338 L647.301 164.338 L647.301 148.828 Q647.301 145.148 645.866 143.319 Q644.431 141.49 641.561 141.49 Q638.112 141.49 636.121 143.69 Q634.13 145.889 634.13 149.685 L634.13 164.338 L629.848 164.338 L629.848 138.412 L634.13 138.412 L634.13 142.44 Q635.658 140.102 637.718 138.944 Q639.801 137.787 642.51 137.787 Q646.977 137.787 649.269 140.565 Q651.561 143.319 651.561 148.689 Z" fill="#000000" fill-rule="nonzero" fill-opacity="1" /><polyline clip-path="url(#clip840)" style="stroke:#e26f46; stroke-linecap:round; stroke-linejoin:round; stroke-width:4; stroke-opacity:1; fill:none" points="253.896,198.898 400.328,198.898 "/>
<path clip-path="url(#clip840)" d="M424.733 181.618 L446.585 181.618 L446.585 185.553 L429.409 185.553 L429.409 195.784 L445.867 195.784 L445.867 199.719 L429.409 199.719 L429.409 212.242 L447.001 212.242 L447.001 216.178 L424.733 216.178 L424.733 181.618 Z" fill="#000000" fill-rule="nonzero" fill-opacity="1" /><path clip-path="url(#clip840)" d="M476.052 190.252 L466.677 202.867 L476.538 216.178 L471.515 216.178 L463.969 205.992 L456.423 216.178 L451.4 216.178 L461.469 202.613 L452.256 190.252 L457.279 190.252 L464.154 199.488 L471.029 190.252 L476.052 190.252 Z" fill="#000000" fill-rule="nonzero" fill-opacity="1" /><path clip-path="url(#clip840)" d="M494.339 203.145 Q489.177 203.145 487.186 204.326 Q485.196 205.506 485.196 208.354 Q485.196 210.622 486.677 211.965 Q488.182 213.284 490.751 213.284 Q494.293 213.284 496.422 210.784 Q498.575 208.261 498.575 204.094 L498.575 203.145 L494.339 203.145 M502.834 201.386 L502.834 216.178 L498.575 216.178 L498.575 212.242 Q497.117 214.603 494.941 215.738 Q492.765 216.849 489.617 216.849 Q485.635 216.849 483.274 214.627 Q480.936 212.381 480.936 208.631 Q480.936 204.256 483.853 202.034 Q486.793 199.812 492.603 199.812 L498.575 199.812 L498.575 199.395 Q498.575 196.455 496.631 194.858 Q494.71 193.238 491.214 193.238 Q488.992 193.238 486.885 193.77 Q484.779 194.303 482.835 195.367 L482.835 191.432 Q485.173 190.53 487.372 190.09 Q489.571 189.627 491.654 189.627 Q497.279 189.627 500.057 192.543 Q502.834 195.46 502.834 201.386 Z" fill="#000000" fill-rule="nonzero" fill-opacity="1" /><path clip-path="url(#clip840)" d="M530.265 191.247 L530.265 195.229 Q528.459 194.233 526.631 193.747 Q524.825 193.238 522.973 193.238 Q518.83 193.238 516.538 195.877 Q514.246 198.492 514.246 203.238 Q514.246 207.983 516.538 210.622 Q518.83 213.238 522.973 213.238 Q524.825 213.238 526.631 212.752 Q528.459 212.242 530.265 211.247 L530.265 215.182 Q528.482 216.016 526.561 216.432 Q524.663 216.849 522.51 216.849 Q516.654 216.849 513.205 213.168 Q509.756 209.488 509.756 203.238 Q509.756 196.895 513.228 193.261 Q516.723 189.627 522.788 189.627 Q524.756 189.627 526.631 190.043 Q528.506 190.437 530.265 191.247 Z" fill="#000000" fill-rule="nonzero" fill-opacity="1" /><path clip-path="url(#clip840)" d="M541.885 182.891 L541.885 190.252 L550.658 190.252 L550.658 193.562 L541.885 193.562 L541.885 207.636 Q541.885 210.807 542.742 211.71 Q543.621 212.613 546.283 212.613 L550.658 212.613 L550.658 216.178 L546.283 216.178 Q541.353 216.178 539.478 214.349 Q537.603 212.497 537.603 207.636 L537.603 193.562 L534.478 193.562 L534.478 190.252 L537.603 190.252 L537.603 182.891 L541.885 182.891 Z" fill="#000000" fill-rule="nonzero" fill-opacity="1" /></svg>
