<?xml version="1.0" encoding="utf-8"?>
<svg xmlns="http://www.w3.org/2000/svg" xmlns:xlink="http://www.w3.org/1999/xlink" width="600" height="400" viewBox="0 0 2400 1600">
<defs>
  <clipPath id="clip110">
    <rect x="0" y="0" width="2400" height="1600"/>
  </clipPath>
</defs>
<path clip-path="url(#clip110)" d="M0 1600 L2400 1600 L2400 0 L0 0  Z" fill="#ffffff" fill-rule="evenodd" fill-opacity="1"/>
<defs>
  <clipPath id="clip111">
    <rect x="480" y="0" width="1681" height="1600"/>
  </clipPath>
</defs>
<path clip-path="url(#clip110)" d="M192.339 1486.45 L2352.76 1486.45 L2352.76 47.2441 L192.339 47.2441  Z" fill="#ffffff" fill-rule="evenodd" fill-opacity="1"/>
<defs>
  <clipPath id="clip112">
    <rect x="192" y="47" width="2161" height="1440"/>
  </clipPath>
</defs>
<polyline clip-path="url(#clip112)" style="stroke:#000000; stroke-linecap:round; stroke-linejoin:round; stroke-width:2; stroke-opacity:0.1; fill:none" points="253.483,1486.45 253.483,47.2441 "/>
<polyline clip-path="url(#clip112)" style="stroke:#000000; stroke-linecap:round; stroke-linejoin:round; stroke-width:2; stroke-opacity:0.1; fill:none" points="763.015,1486.45 763.015,47.2441 "/>
<polyline clip-path="url(#clip112)" style="stroke:#000000; stroke-linecap:round; stroke-linejoin:round; stroke-width:2; stroke-opacity:0.1; fill:none" points="1272.55,1486.45 1272.55,47.2441 "/>
<polyline clip-path="url(#clip112)" style="stroke:#000000; stroke-linecap:round; stroke-linejoin:round; stroke-width:2; stroke-opacity:0.1; fill:none" points="1782.08,1486.45 1782.08,47.2441 "/>
<polyline clip-path="url(#clip112)" style="stroke:#000000; stroke-linecap:round; stroke-linejoin:round; stroke-width:2; stroke-opacity:0.1; fill:none" points="2291.61,1486.45 2291.61,47.2441 "/>
<polyline clip-path="url(#clip110)" style="stroke:#000000; stroke-linecap:round; stroke-linejoin:round; stroke-width:4; stroke-opacity:1; fill:none" points="192.339,1486.45 2352.76,1486.45 "/>
<polyline clip-path="url(#clip110)" style="stroke:#000000; stroke-linecap:round; stroke-linejoin:round; stroke-width:4; stroke-opacity:1; fill:none" points="253.483,1486.45 253.483,1467.55 "/>
<polyline clip-path="url(#clip110)" style="stroke:#000000; stroke-linecap:round; stroke-linejoin:round; stroke-width:4; stroke-opacity:1; fill:none" points="763.015,1486.45 763.015,1467.55 "/>
<polyline clip-path="url(#clip110)" style="stroke:#000000; stroke-linecap:round; stroke-linejoin:round; stroke-width:4; stroke-opacity:1; fill:none" points="1272.55,1486.45 1272.55,1467.55 "/>
<polyline clip-path="url(#clip110)" style="stroke:#000000; stroke-linecap:round; stroke-linejoin:round; stroke-width:4; stroke-opacity:1; fill:none" points="1782.08,1486.45 1782.08,1467.55 "/>
<polyline clip-path="url(#clip110)" style="stroke:#000000; stroke-linecap:round; stroke-linejoin:round; stroke-width:4; stroke-opacity:1; fill:none" points="2291.61,1486.45 2291.61,1467.55 "/>
<path clip-path="url(#clip110)" d="M200.011 1532.02 L229.686 1532.02 L229.686 1535.95 L200.011 1535.95 L200.011 1532.02 Z" fill="#000000" fill-rule="nonzero" fill-opacity="1" /><path clip-path="url(#clip110)" d="M240.589 1544.91 L248.228 1544.91 L248.228 1518.55 L239.918 1520.21 L239.918 1515.95 L248.182 1514.29 L252.858 1514.29 L252.858 1544.91 L260.497 1544.91 L260.497 1548.85 L240.589 1548.85 L240.589 1544.91 Z" fill="#000000" fill-rule="nonzero" fill-opacity="1" /><path clip-path="url(#clip110)" d="M269.941 1542.97 L274.825 1542.97 L274.825 1548.85 L269.941 1548.85 L269.941 1542.97 Z" fill="#000000" fill-rule="nonzero" fill-opacity="1" /><path clip-path="url(#clip110)" d="M295.01 1517.37 Q291.399 1517.37 289.57 1520.93 Q287.765 1524.47 287.765 1531.6 Q287.765 1538.71 289.57 1542.27 Q291.399 1545.82 295.01 1545.82 Q298.644 1545.82 300.45 1542.27 Q302.279 1538.71 302.279 1531.6 Q302.279 1524.47 300.45 1520.93 Q298.644 1517.37 295.01 1517.37 M295.01 1513.66 Q300.82 1513.66 303.876 1518.27 Q306.955 1522.85 306.955 1531.6 Q306.955 1540.33 303.876 1544.94 Q300.82 1549.52 295.01 1549.52 Q289.2 1549.52 286.121 1544.94 Q283.066 1540.33 283.066 1531.6 Q283.066 1522.85 286.121 1518.27 Q289.2 1513.66 295.01 1513.66 Z" fill="#000000" fill-rule="nonzero" fill-opacity="1" /><path clip-path="url(#clip110)" d="M710.041 1532.02 L739.717 1532.02 L739.717 1535.95 L710.041 1535.95 L710.041 1532.02 Z" fill="#000000" fill-rule="nonzero" fill-opacity="1" /><path clip-path="url(#clip110)" d="M759.809 1517.37 Q756.198 1517.37 754.369 1520.93 Q752.564 1524.47 752.564 1531.6 Q752.564 1538.71 754.369 1542.27 Q756.198 1545.82 759.809 1545.82 Q763.443 1545.82 765.249 1542.27 Q767.077 1538.71 767.077 1531.6 Q767.077 1524.47 765.249 1520.93 Q763.443 1517.37 759.809 1517.37 M759.809 1513.66 Q765.619 1513.66 768.675 1518.27 Q771.753 1522.85 771.753 1531.6 Q771.753 1540.33 768.675 1544.94 Q765.619 1549.52 759.809 1549.52 Q753.999 1549.52 750.92 1544.94 Q747.865 1540.33 747.865 1531.6 Q747.865 1522.85 750.92 1518.27 Q753.999 1513.66 759.809 1513.66 Z" fill="#000000" fill-rule="nonzero" fill-opacity="1" /><path clip-path="url(#clip110)" d="M779.971 1542.97 L784.855 1542.97 L784.855 1548.85 L779.971 1548.85 L779.971 1542.97 Z" fill="#000000" fill-rule="nonzero" fill-opacity="1" /><path clip-path="url(#clip110)" d="M795.087 1514.29 L813.443 1514.29 L813.443 1518.22 L799.369 1518.22 L799.369 1526.7 Q800.387 1526.35 801.406 1526.19 Q802.425 1526 803.443 1526 Q809.23 1526 812.61 1529.17 Q815.989 1532.34 815.989 1537.76 Q815.989 1543.34 812.517 1546.44 Q809.045 1549.52 802.725 1549.52 Q800.55 1549.52 798.281 1549.15 Q796.036 1548.78 793.628 1548.04 L793.628 1543.34 Q795.712 1544.47 797.934 1545.03 Q800.156 1545.58 802.633 1545.58 Q806.637 1545.58 808.975 1543.48 Q811.313 1541.37 811.313 1537.76 Q811.313 1534.15 808.975 1532.04 Q806.637 1529.94 802.633 1529.94 Q800.758 1529.94 798.883 1530.35 Q797.031 1530.77 795.087 1531.65 L795.087 1514.29 Z" fill="#000000" fill-rule="nonzero" fill-opacity="1" /><path clip-path="url(#clip110)" d="M1249.93 1517.37 Q1246.32 1517.37 1244.49 1520.93 Q1242.69 1524.47 1242.69 1531.6 Q1242.69 1538.71 1244.49 1542.27 Q1246.32 1545.82 1249.93 1545.82 Q1253.57 1545.82 1255.37 1542.27 Q1257.2 1538.71 1257.2 1531.6 Q1257.2 1524.47 1255.37 1520.93 Q1253.57 1517.37 1249.93 1517.37 M1249.93 1513.66 Q1255.74 1513.66 1258.8 1518.27 Q1261.88 1522.85 1261.88 1531.6 Q1261.88 1540.33 1258.8 1544.94 Q1255.74 1549.52 1249.93 1549.52 Q1244.12 1549.52 1241.04 1544.94 Q1237.99 1540.33 1237.99 1531.6 Q1237.99 1522.85 1241.04 1518.27 Q1244.12 1513.66 1249.93 1513.66 Z" fill="#000000" fill-rule="nonzero" fill-opacity="1" /><path clip-path="url(#clip110)" d="M1270.09 1542.97 L1274.98 1542.97 L1274.98 1548.85 L1270.09 1548.85 L1270.09 1542.97 Z" fill="#000000" fill-rule="nonzero" fill-opacity="1" /><path clip-path="url(#clip110)" d="M1295.16 1517.37 Q1291.55 1517.37 1289.72 1520.93 Q1287.92 1524.47 1287.92 1531.6 Q1287.92 1538.71 1289.72 1542.27 Q1291.55 1545.82 1295.16 1545.82 Q1298.8 1545.82 1300.6 1542.27 Q1302.43 1538.71 1302.43 1531.6 Q1302.43 1524.47 1300.6 1520.93 Q1298.8 1517.37 1295.16 1517.37 M1295.16 1513.66 Q1300.97 1513.66 1304.03 1518.27 Q1307.11 1522.85 1307.11 1531.6 Q1307.11 1540.33 1304.03 1544.94 Q1300.97 1549.52 1295.16 1549.52 Q1289.35 1549.52 1286.27 1544.94 Q1283.22 1540.33 1283.22 1531.6 Q1283.22 1522.85 1286.27 1518.27 Q1289.35 1513.66 1295.16 1513.66 Z" fill="#000000" fill-rule="nonzero" fill-opacity="1" /><path clip-path="url(#clip110)" d="M1759.96 1517.37 Q1756.35 1517.37 1754.52 1520.93 Q1752.72 1524.47 1752.72 1531.6 Q1752.72 1538.71 1754.52 1542.27 Q1756.35 1545.82 1759.96 1545.82 Q1763.6 1545.82 1765.4 1542.27 Q1767.23 1538.71 1767.23 1531.6 Q1767.23 1524.47 1765.4 1520.93 Q1763.6 1517.37 1759.96 1517.37 M1759.96 1513.66 Q1765.77 1513.66 1768.83 1518.27 Q1771.91 1522.85 1771.91 1531.6 Q1771.91 1540.33 1768.83 1544.94 Q1765.77 1549.52 1759.96 1549.52 Q1754.15 1549.52 1751.07 1544.94 Q1748.02 1540.33 1748.02 1531.6 Q1748.02 1522.85 1751.07 1518.27 Q1754.15 1513.66 1759.96 1513.66 Z" fill="#000000" fill-rule="nonzero" fill-opacity="1" /><path clip-path="url(#clip110)" d="M1780.12 1542.97 L1785.01 1542.97 L1785.01 1548.85 L1780.12 1548.85 L1780.12 1542.97 Z" fill="#000000" fill-rule="nonzero" fill-opacity="1" /><path clip-path="url(#clip110)" d="M1795.24 1514.29 L1813.6 1514.29 L1813.6 1518.22 L1799.52 1518.22 L1799.52 1526.7 Q1800.54 1526.35 1801.56 1526.19 Q1802.58 1526 1803.6 1526 Q1809.38 1526 1812.76 1529.17 Q1816.14 1532.34 1816.14 1537.76 Q1816.14 1543.34 1812.67 1546.44 Q1809.2 1549.52 1802.88 1549.52 Q1800.7 1549.52 1798.43 1549.15 Q1796.19 1548.78 1793.78 1548.04 L1793.78 1543.34 Q1795.86 1544.47 1798.09 1545.03 Q1800.31 1545.58 1802.79 1545.58 Q1806.79 1545.58 1809.13 1543.48 Q1811.47 1541.37 1811.47 1537.76 Q1811.47 1534.15 1809.13 1532.04 Q1806.79 1529.94 1802.79 1529.94 Q1800.91 1529.94 1799.04 1530.35 Q1797.18 1530.77 1795.24 1531.65 L1795.24 1514.29 Z" fill="#000000" fill-rule="nonzero" fill-opacity="1" /><path clip-path="url(#clip110)" d="M2258.76 1544.91 L2266.4 1544.91 L2266.4 1518.55 L2258.09 1520.21 L2258.09 1515.95 L2266.36 1514.29 L2271.03 1514.29 L2271.03 1544.91 L2278.67 1544.91 L2278.67 1548.85 L2258.76 1548.85 L2258.76 1544.91 Z" fill="#000000" fill-rule="nonzero" fill-opacity="1" /><path clip-path="url(#clip110)" d="M2288.12 1542.97 L2293 1542.97 L2293 1548.85 L2288.12 1548.85 L2288.12 1542.97 Z" fill="#000000" fill-rule="nonzero" fill-opacity="1" /><path clip-path="url(#clip110)" d="M2313.19 1517.37 Q2309.57 1517.37 2307.75 1520.93 Q2305.94 1524.47 2305.94 1531.6 Q2305.94 1538.71 2307.75 1542.27 Q2309.57 1545.82 2313.19 1545.82 Q2316.82 1545.82 2318.63 1542.27 Q2320.45 1538.71 2320.45 1531.6 Q2320.45 1524.47 2318.63 1520.93 Q2316.82 1517.37 2313.19 1517.37 M2313.19 1513.66 Q2319 1513.66 2322.05 1518.27 Q2325.13 1522.85 2325.13 1531.6 Q2325.13 1540.33 2322.05 1544.94 Q2319 1549.52 2313.19 1549.52 Q2307.38 1549.52 2304.3 1544.94 Q2301.24 1540.33 2301.24 1531.6 Q2301.24 1522.85 2304.3 1518.27 Q2307.38 1513.66 2313.19 1513.66 Z" fill="#000000" fill-rule="nonzero" fill-opacity="1" /><polyline clip-path="url(#clip112)" style="stroke:#000000; stroke-linecap:round; stroke-linejoin:round; stroke-width:2; stroke-opacity:0.1; fill:none" points="192.339,1327.05 2352.76,1327.05 "/>
<polyline clip-path="url(#clip112)" style="stroke:#000000; stroke-linecap:round; stroke-linejoin:round; stroke-width:2; stroke-opacity:0.1; fill:none" points="192.339,1159.42 2352.76,1159.42 "/>
<polyline clip-path="url(#clip112)" style="stroke:#000000; stroke-linecap:round; stroke-linejoin:round; stroke-width:2; stroke-opacity:0.1; fill:none" points="192.339,991.784 2352.76,991.784 "/>
<polyline clip-path="url(#clip112)" style="stroke:#000000; stroke-linecap:round; stroke-linejoin:round; stroke-width:2; stroke-opacity:0.1; fill:none" points="192.339,824.151 2352.76,824.151 "/>
<polyline clip-path="url(#clip112)" style="stroke:#000000; stroke-linecap:round; stroke-linejoin:round; stroke-width:2; stroke-opacity:0.1; fill:none" points="192.339,656.518 2352.76,656.518 "/>
<polyline clip-path="url(#clip112)" style="stroke:#000000; stroke-linecap:round; stroke-linejoin:round; stroke-width:2; stroke-opacity:0.1; fill:none" points="192.339,488.884 2352.76,488.884 "/>
<polyline clip-path="url(#clip112)" style="stroke:#000000; stroke-linecap:round; stroke-linejoin:round; stroke-width:2; stroke-opacity:0.1; fill:none" points="192.339,321.251 2352.76,321.251 "/>
<polyline clip-path="url(#clip112)" style="stroke:#000000; stroke-linecap:round; stroke-linejoin:round; stroke-width:2; stroke-opacity:0.1; fill:none" points="192.339,153.617 2352.76,153.617 "/>
<polyline clip-path="url(#clip110)" style="stroke:#000000; stroke-linecap:round; stroke-linejoin:round; stroke-width:4; stroke-opacity:1; fill:none" points="192.339,1486.45 192.339,47.2441 "/>
<polyline clip-path="url(#clip110)" style="stroke:#000000; stroke-linecap:round; stroke-linejoin:round; stroke-width:4; stroke-opacity:1; fill:none" points="192.339,1327.05 211.236,1327.05 "/>
<polyline clip-path="url(#clip110)" style="stroke:#000000; stroke-linecap:round; stroke-linejoin:round; stroke-width:4; stroke-opacity:1; fill:none" points="192.339,1159.42 211.236,1159.42 "/>
<polyline clip-path="url(#clip110)" style="stroke:#000000; stroke-linecap:round; stroke-linejoin:round; stroke-width:4; stroke-opacity:1; fill:none" points="192.339,991.784 211.236,991.784 "/>
<polyline clip-path="url(#clip110)" style="stroke:#000000; stroke-linecap:round; stroke-linejoin:round; stroke-width:4; stroke-opacity:1; fill:none" points="192.339,824.151 211.236,824.151 "/>
<polyline clip-path="url(#clip110)" style="stroke:#000000; stroke-linecap:round; stroke-linejoin:round; stroke-width:4; stroke-opacity:1; fill:none" points="192.339,656.518 211.236,656.518 "/>
<polyline clip-path="url(#clip110)" style="stroke:#000000; stroke-linecap:round; stroke-linejoin:round; stroke-width:4; stroke-opacity:1; fill:none" points="192.339,488.884 211.236,488.884 "/>
<polyline clip-path="url(#clip110)" style="stroke:#000000; stroke-linecap:round; stroke-linejoin:round; stroke-width:4; stroke-opacity:1; fill:none" points="192.339,321.251 211.236,321.251 "/>
<polyline clip-path="url(#clip110)" style="stroke:#000000; stroke-linecap:round; stroke-linejoin:round; stroke-width:4; stroke-opacity:1; fill:none" points="192.339,153.617 211.236,153.617 "/>
<path clip-path="url(#clip110)" d="M50.9921 1327.5 L80.6679 1327.5 L80.6679 1331.44 L50.9921 1331.44 L50.9921 1327.5 Z" fill="#000000" fill-rule="nonzero" fill-opacity="1" /><path clip-path="url(#clip110)" d="M100.76 1312.85 Q97.1493 1312.85 95.3206 1316.41 Q93.515 1319.96 93.515 1327.09 Q93.515 1334.19 95.3206 1337.76 Q97.1493 1341.3 100.76 1341.3 Q104.395 1341.3 106.2 1337.76 Q108.029 1334.19 108.029 1327.09 Q108.029 1319.96 106.2 1316.41 Q104.395 1312.85 100.76 1312.85 M100.76 1309.15 Q106.571 1309.15 109.626 1313.75 Q112.705 1318.34 112.705 1327.09 Q112.705 1335.81 109.626 1340.42 Q106.571 1345 100.76 1345 Q94.9502 1345 91.8715 1340.42 Q88.816 1335.81 88.816 1327.09 Q88.816 1318.34 91.8715 1313.75 Q94.9502 1309.15 100.76 1309.15 Z" fill="#000000" fill-rule="nonzero" fill-opacity="1" /><path clip-path="url(#clip110)" d="M120.922 1338.45 L125.807 1338.45 L125.807 1344.33 L120.922 1344.33 L120.922 1338.45 Z" fill="#000000" fill-rule="nonzero" fill-opacity="1" /><path clip-path="url(#clip110)" d="M140.019 1340.4 L156.339 1340.4 L156.339 1344.33 L134.394 1344.33 L134.394 1340.4 Q137.056 1337.64 141.64 1333.01 Q146.246 1328.36 147.427 1327.02 Q149.672 1324.49 150.552 1322.76 Q151.455 1321 151.455 1319.31 Q151.455 1316.55 149.51 1314.82 Q147.589 1313.08 144.487 1313.08 Q142.288 1313.08 139.834 1313.85 Q137.404 1314.61 134.626 1316.16 L134.626 1311.44 Q137.45 1310.3 139.904 1309.72 Q142.357 1309.15 144.394 1309.15 Q149.765 1309.15 152.959 1311.83 Q156.154 1314.52 156.154 1319.01 Q156.154 1321.14 155.343 1323.06 Q154.556 1324.96 152.45 1327.55 Q151.871 1328.22 148.769 1331.44 Q145.668 1334.63 140.019 1340.4 Z" fill="#000000" fill-rule="nonzero" fill-opacity="1" /><path clip-path="url(#clip110)" d="M99.1632 1145.22 Q95.5521 1145.22 93.7234 1148.78 Q91.9178 1152.32 91.9178 1159.45 Q91.9178 1166.56 93.7234 1170.12 Q95.5521 1173.67 99.1632 1173.67 Q102.797 1173.67 104.603 1170.12 Q106.432 1166.56 106.432 1159.45 Q106.432 1152.32 104.603 1148.78 Q102.797 1145.22 99.1632 1145.22 M99.1632 1141.51 Q104.973 1141.51 108.029 1146.12 Q111.108 1150.7 111.108 1159.45 Q111.108 1168.18 108.029 1172.79 Q104.973 1177.37 99.1632 1177.37 Q93.353 1177.37 90.2743 1172.79 Q87.2188 1168.18 87.2188 1159.45 Q87.2188 1150.7 90.2743 1146.12 Q93.353 1141.51 99.1632 1141.51 Z" fill="#000000" fill-rule="nonzero" fill-opacity="1" /><path clip-path="url(#clip110)" d="M119.325 1170.82 L124.209 1170.82 L124.209 1176.7 L119.325 1176.7 L119.325 1170.82 Z" fill="#000000" fill-rule="nonzero" fill-opacity="1" /><path clip-path="url(#clip110)" d="M144.394 1145.22 Q140.783 1145.22 138.955 1148.78 Q137.149 1152.32 137.149 1159.45 Q137.149 1166.56 138.955 1170.12 Q140.783 1173.67 144.394 1173.67 Q148.029 1173.67 149.834 1170.12 Q151.663 1166.56 151.663 1159.45 Q151.663 1152.32 149.834 1148.78 Q148.029 1145.22 144.394 1145.22 M144.394 1141.51 Q150.205 1141.51 153.26 1146.12 Q156.339 1150.7 156.339 1159.45 Q156.339 1168.18 153.26 1172.79 Q150.205 1177.37 144.394 1177.37 Q138.584 1177.37 135.506 1172.79 Q132.45 1168.18 132.45 1159.45 Q132.45 1150.7 135.506 1146.12 Q138.584 1141.51 144.394 1141.51 Z" fill="#000000" fill-rule="nonzero" fill-opacity="1" /><path clip-path="url(#clip110)" d="M100.76 977.583 Q97.1493 977.583 95.3206 981.148 Q93.515 984.69 93.515 991.819 Q93.515 998.926 95.3206 1002.49 Q97.1493 1006.03 100.76 1006.03 Q104.395 1006.03 106.2 1002.49 Q108.029 998.926 108.029 991.819 Q108.029 984.69 106.2 981.148 Q104.395 977.583 100.76 977.583 M100.76 973.879 Q106.571 973.879 109.626 978.486 Q112.705 983.069 112.705 991.819 Q112.705 1000.55 109.626 1005.15 Q106.571 1009.74 100.76 1009.74 Q94.9502 1009.74 91.8715 1005.15 Q88.816 1000.55 88.816 991.819 Q88.816 983.069 91.8715 978.486 Q94.9502 973.879 100.76 973.879 Z" fill="#000000" fill-rule="nonzero" fill-opacity="1" /><path clip-path="url(#clip110)" d="M120.922 1003.18 L125.807 1003.18 L125.807 1009.06 L120.922 1009.06 L120.922 1003.18 Z" fill="#000000" fill-rule="nonzero" fill-opacity="1" /><path clip-path="url(#clip110)" d="M140.019 1005.13 L156.339 1005.13 L156.339 1009.06 L134.394 1009.06 L134.394 1005.13 Q137.056 1002.37 141.64 997.745 Q146.246 993.092 147.427 991.75 Q149.672 989.227 150.552 987.49 Q151.455 985.731 151.455 984.041 Q151.455 981.287 149.51 979.551 Q147.589 977.815 144.487 977.815 Q142.288 977.815 139.834 978.578 Q137.404 979.342 134.626 980.893 L134.626 976.171 Q137.45 975.037 139.904 974.458 Q142.357 973.879 144.394 973.879 Q149.765 973.879 152.959 976.565 Q156.154 979.25 156.154 983.74 Q156.154 985.87 155.343 987.791 Q154.556 989.69 152.45 992.282 Q151.871 992.953 148.769 996.171 Q145.668 999.365 140.019 1005.13 Z" fill="#000000" fill-rule="nonzero" fill-opacity="1" /><path clip-path="url(#clip110)" d="M98.6771 809.95 Q95.066 809.95 93.2373 813.514 Q91.4317 817.056 91.4317 824.186 Q91.4317 831.292 93.2373 834.857 Q95.066 838.399 98.6771 838.399 Q102.311 838.399 104.117 834.857 Q105.946 831.292 105.946 824.186 Q105.946 817.056 104.117 813.514 Q102.311 809.95 98.6771 809.95 M98.6771 806.246 Q104.487 806.246 107.543 810.852 Q110.621 815.436 110.621 824.186 Q110.621 832.913 107.543 837.519 Q104.487 842.102 98.6771 842.102 Q92.8669 842.102 89.7882 837.519 Q86.7327 832.913 86.7327 824.186 Q86.7327 815.436 89.7882 810.852 Q92.8669 806.246 98.6771 806.246 Z" fill="#000000" fill-rule="nonzero" fill-opacity="1" /><path clip-path="url(#clip110)" d="M118.839 835.551 L123.723 835.551 L123.723 841.431 L118.839 841.431 L118.839 835.551 Z" fill="#000000" fill-rule="nonzero" fill-opacity="1" /><path clip-path="url(#clip110)" d="M146.756 810.945 L134.95 829.394 L146.756 829.394 L146.756 810.945 M145.529 806.871 L151.408 806.871 L151.408 829.394 L156.339 829.394 L156.339 833.283 L151.408 833.283 L151.408 841.431 L146.756 841.431 L146.756 833.283 L131.154 833.283 L131.154 828.769 L145.529 806.871 Z" fill="#000000" fill-rule="nonzero" fill-opacity="1" /><path clip-path="url(#clip110)" d="M99.0011 642.316 Q95.39 642.316 93.5613 645.881 Q91.7558 649.423 91.7558 656.552 Q91.7558 663.659 93.5613 667.224 Q95.39 670.765 99.0011 670.765 Q102.635 670.765 104.441 667.224 Q106.27 663.659 106.27 656.552 Q106.27 649.423 104.441 645.881 Q102.635 642.316 99.0011 642.316 M99.0011 638.613 Q104.811 638.613 107.867 643.219 Q110.946 647.802 110.946 656.552 Q110.946 665.279 107.867 669.886 Q104.811 674.469 99.0011 674.469 Q93.191 674.469 90.1123 669.886 Q87.0567 665.279 87.0567 656.552 Q87.0567 647.802 90.1123 643.219 Q93.191 638.613 99.0011 638.613 Z" fill="#000000" fill-rule="nonzero" fill-opacity="1" /><path clip-path="url(#clip110)" d="M119.163 667.918 L124.047 667.918 L124.047 673.798 L119.163 673.798 L119.163 667.918 Z" fill="#000000" fill-rule="nonzero" fill-opacity="1" /><path clip-path="url(#clip110)" d="M144.811 654.654 Q141.663 654.654 139.811 656.807 Q137.982 658.96 137.982 662.71 Q137.982 666.436 139.811 668.612 Q141.663 670.765 144.811 670.765 Q147.959 670.765 149.788 668.612 Q151.64 666.436 151.64 662.71 Q151.64 658.96 149.788 656.807 Q147.959 654.654 144.811 654.654 M154.093 640.001 L154.093 644.261 Q152.334 643.427 150.529 642.988 Q148.746 642.548 146.987 642.548 Q142.357 642.548 139.904 645.673 Q137.473 648.798 137.126 655.117 Q138.492 653.103 140.552 652.038 Q142.612 650.95 145.089 650.95 Q150.297 650.95 153.306 654.122 Q156.339 657.27 156.339 662.71 Q156.339 668.034 153.191 671.251 Q150.043 674.469 144.811 674.469 Q138.816 674.469 135.644 669.886 Q132.473 665.279 132.473 656.552 Q132.473 648.358 136.362 643.497 Q140.251 638.613 146.802 638.613 Q148.561 638.613 150.343 638.96 Q152.149 639.307 154.093 640.001 Z" fill="#000000" fill-rule="nonzero" fill-opacity="1" /><path clip-path="url(#clip110)" d="M99.2558 474.683 Q95.6447 474.683 93.816 478.248 Q92.0104 481.789 92.0104 488.919 Q92.0104 496.025 93.816 499.59 Q95.6447 503.132 99.2558 503.132 Q102.89 503.132 104.696 499.59 Q106.524 496.025 106.524 488.919 Q106.524 481.789 104.696 478.248 Q102.89 474.683 99.2558 474.683 M99.2558 470.979 Q105.066 470.979 108.121 475.586 Q111.2 480.169 111.2 488.919 Q111.2 497.646 108.121 502.252 Q105.066 506.835 99.2558 506.835 Q93.4456 506.835 90.3669 502.252 Q87.3114 497.646 87.3114 488.919 Q87.3114 480.169 90.3669 475.586 Q93.4456 470.979 99.2558 470.979 Z" fill="#000000" fill-rule="nonzero" fill-opacity="1" /><path clip-path="url(#clip110)" d="M119.418 500.285 L124.302 500.285 L124.302 506.164 L119.418 506.164 L119.418 500.285 Z" fill="#000000" fill-rule="nonzero" fill-opacity="1" /><path clip-path="url(#clip110)" d="M144.487 489.752 Q141.154 489.752 139.232 491.535 Q137.334 493.317 137.334 496.442 Q137.334 499.567 139.232 501.349 Q141.154 503.132 144.487 503.132 Q147.82 503.132 149.742 501.349 Q151.663 499.544 151.663 496.442 Q151.663 493.317 149.742 491.535 Q147.843 489.752 144.487 489.752 M139.811 487.761 Q136.802 487.021 135.112 484.961 Q133.445 482.9 133.445 479.937 Q133.445 475.794 136.385 473.387 Q139.348 470.979 144.487 470.979 Q149.649 470.979 152.589 473.387 Q155.529 475.794 155.529 479.937 Q155.529 482.9 153.839 484.961 Q152.172 487.021 149.186 487.761 Q152.566 488.548 154.441 490.84 Q156.339 493.132 156.339 496.442 Q156.339 501.465 153.26 504.15 Q150.205 506.835 144.487 506.835 Q138.769 506.835 135.691 504.15 Q132.635 501.465 132.635 496.442 Q132.635 493.132 134.533 490.84 Q136.431 488.548 139.811 487.761 M138.098 480.377 Q138.098 483.062 139.765 484.567 Q141.455 486.072 144.487 486.072 Q147.496 486.072 149.186 484.567 Q150.899 483.062 150.899 480.377 Q150.899 477.692 149.186 476.187 Q147.496 474.683 144.487 474.683 Q141.455 474.683 139.765 476.187 Q138.098 477.692 138.098 480.377 Z" fill="#000000" fill-rule="nonzero" fill-opacity="1" /><path clip-path="url(#clip110)" d="M89.9734 334.596 L97.6122 334.596 L97.6122 308.23 L89.3021 309.897 L89.3021 305.637 L97.566 303.971 L102.242 303.971 L102.242 334.596 L109.881 334.596 L109.881 338.531 L89.9734 338.531 L89.9734 334.596 Z" fill="#000000" fill-rule="nonzero" fill-opacity="1" /><path clip-path="url(#clip110)" d="M119.325 332.651 L124.209 332.651 L124.209 338.531 L119.325 338.531 L119.325 332.651 Z" fill="#000000" fill-rule="nonzero" fill-opacity="1" /><path clip-path="url(#clip110)" d="M144.394 307.049 Q140.783 307.049 138.955 310.614 Q137.149 314.156 137.149 321.285 Q137.149 328.392 138.955 331.957 Q140.783 335.498 144.394 335.498 Q148.029 335.498 149.834 331.957 Q151.663 328.392 151.663 321.285 Q151.663 314.156 149.834 310.614 Q148.029 307.049 144.394 307.049 M144.394 303.346 Q150.205 303.346 153.26 307.952 Q156.339 312.535 156.339 321.285 Q156.339 330.012 153.26 334.619 Q150.205 339.202 144.394 339.202 Q138.584 339.202 135.506 334.619 Q132.45 330.012 132.45 321.285 Q132.45 312.535 135.506 307.952 Q138.584 303.346 144.394 303.346 Z" fill="#000000" fill-rule="nonzero" fill-opacity="1" /><path clip-path="url(#clip110)" d="M91.5706 166.962 L99.2095 166.962 L99.2095 140.597 L90.8993 142.263 L90.8993 138.004 L99.1632 136.337 L103.839 136.337 L103.839 166.962 L111.478 166.962 L111.478 170.897 L91.5706 170.897 L91.5706 166.962 Z" fill="#000000" fill-rule="nonzero" fill-opacity="1" /><path clip-path="url(#clip110)" d="M120.922 165.018 L125.807 165.018 L125.807 170.897 L120.922 170.897 L120.922 165.018 Z" fill="#000000" fill-rule="nonzero" fill-opacity="1" /><path clip-path="url(#clip110)" d="M140.019 166.962 L156.339 166.962 L156.339 170.897 L134.394 170.897 L134.394 166.962 Q137.056 164.207 141.64 159.578 Q146.246 154.925 147.427 153.583 Q149.672 151.059 150.552 149.323 Q151.455 147.564 151.455 145.874 Q151.455 143.12 149.51 141.384 Q147.589 139.647 144.487 139.647 Q142.288 139.647 139.834 140.411 Q137.404 141.175 134.626 142.726 L134.626 138.004 Q137.45 136.87 139.904 136.291 Q142.357 135.712 144.394 135.712 Q149.765 135.712 152.959 138.397 Q156.154 141.083 156.154 145.573 Q156.154 147.703 155.343 149.624 Q154.556 151.522 152.45 154.115 Q151.871 154.786 148.769 158.004 Q145.668 161.198 140.019 166.962 Z" fill="#000000" fill-rule="nonzero" fill-opacity="1" /><polyline clip-path="url(#clip112)" style="stroke:#009af9; stroke-linecap:round; stroke-linejoin:round; stroke-width:16; stroke-opacity:1; fill:none" stroke-dasharray="8, 16" points="253.483,1038.14 263.725,1024.62 273.966,1012.21 284.208,1003.16 294.45,999.378 304.692,1001.87 314.934,1010.57 325.176,1024.73 335.418,1043.37 345.659,1065.63 355.901,1090.92 366.143,1118.74 376.385,1148.53 386.627,1179.28 396.869,1209.6 407.111,1238.03 417.352,1263.64 427.594,1286.01 437.836,1304.79 448.078,1319.48 458.32,1329.45 468.562,1334.04 478.803,1332.76 489.045,1325.44 499.287,1312.43 509.529,1294.52 519.771,1272.65 530.013,1247.62 540.255,1220.04 550.497,1190.48 560.738,1159.72 570.98,1128.88 581.222,1099.45 591.464,1073.02 601.706,1050.71 611.948,1032.67 622.19,1018.05 632.431,1006.3 642.673,998.536 652.915,996.816 663.157,1002.09 673.399,1013.46 683.641,1029.07 693.882,1047.41 704.124,1068.08 714.366,1091.44 724.608,1117.96 734.85,1147.47 745.092,1178.7 755.334,1209.4 765.575,1237.41 775.817,1261.93 786.059,1283.56 796.301,1302.63 806.543,1317.82 816.785,1326.69 827.027,1327.68 837.268,1321.75 847.51,1311.82 857.752,1300.13 867.994,1286.33 878.236,1268.8 888.478,1247.89 898.72,1225.42 908.961,1199.22 919.203,1159.89 929.445,1100.32 939.687,1046.11 949.929,1037.23 960.171,1050.22 970.413,1040.24 980.654,1014.36 990.896,1002.45 1001.14,1005.58 1011.38,1007.85 1021.62,1008.22 1031.86,1017.96 1042.11,1037.15 1052.35,1059.08 1062.59,1079.36 1072.83,1100.38 1083.07,1129.67 1093.31,1153.43 1103.56,1152.97 1113.8,1173.7 1124.04,1239.07 1134.28,1262.57 1144.52,1215.02 1154.77,1201.63 1165.01,1285.44 1175.25,1400.44 1185.49,1445.72 1195.73,1395.93 1205.98,1331.63 1216.22,1308.18 1226.46,1312.82 1236.7,1305.75 1246.94,1272.99 1257.18,1141.59 1267.43,891.171 1277.67,598.319 1287.91,385.316 1298.15,297.931 1308.39,247.075 1318.64,205.513 1328.88,266.943 1339.12,386.78 1349.36,424.42 1359.6,388.046 1369.84,330.147 1380.09,313.168 1390.33,367.016 1400.57,394.726 1410.81,360.727 1421.05,301.494 1431.3,333.944 1441.54,430.226 1451.78,429.398 1462.02,333.538 1472.26,217.977 1482.51,217.282 1492.75,262.729 1502.99,266.113 1513.23,244.109 1523.47,240.359 1533.71,278.777 1543.96,344.284 1554.2,398.769 1564.44,420.51 1574.68,407.831 1584.92,370.788 1595.17,324.984 1605.41,283.809 1615.65,254.054 1625.89,241.438 1636.13,253.552 1646.38,290.63 1656.62,339.614 1666.86,385.159 1677.1,418.022 1687.34,433.438 1697.58,427.546 1707.83,396.563 1718.07,342.234 1728.31,279.176 1738.55,231.166 1748.79,218.564 1759.04,247.013 1769.28,303.954 1779.52,366.905 1789.76,415.819 1800,439.765 1810.24,436.271 1820.49,407.292 1830.73,356.447 1840.97,289.847 1851.21,220.603 1861.45,172.812 1871.7,173.121 1881.94,227.133 1892.18,310.684 1902.42,390.92 1912.66,445.688 1922.91,464.854 1933.15,445.579 1943.39,391.409 1953.63,314.113 1963.87,233.533 1974.11,172.904 1984.36,149.917 1994.6,170.261 2004.84,228.403 2015.08,311.531 2025.32,402.565 2035.57,478.145 2045.81,504.743 2056.05,462.399 2066.29,373.498 2076.53,271.247 2086.77,179.776 2097.02,123.74 2107.26,125.64 2117.5,185.503 2127.74,278.828 2137.98,379.029 2148.23,468.345 2158.47,529.629 2168.71,533.491 2178.95,460.757 2189.19,339.358 2199.44,217.105 2209.68,138.65 2219.92,128.8 2230.16,175.065 2240.4,247.289 2250.64,323.066 2260.89,391.93 2271.13,450.429 2281.37,498.184 2291.61,536.042 "/>
<polyline clip-path="url(#clip112)" style="stroke:#e26f46; stroke-linecap:round; stroke-linejoin:round; stroke-width:4; stroke-opacity:1; fill:none" points="253.483,1033.53 263.725,1015.67 273.966,1002.5 284.208,994.449 294.45,991.785 304.692,994.592 314.934,1002.78 325.176,1016.08 335.418,1034.06 345.659,1056.12 355.901,1081.56 366.143,1109.54 376.385,1139.15 386.627,1169.42 396.869,1199.37 407.111,1228.01 417.352,1254.41 427.594,1277.71 437.836,1297.15 448.078,1312.09 458.32,1322.06 468.562,1326.71 478.803,1325.9 489.045,1319.66 499.287,1308.19 509.529,1291.87 519.771,1271.22 530.013,1246.92 540.255,1219.77 550.497,1190.65 560.738,1160.51 570.98,1130.33 581.222,1101.1 591.464,1073.78 601.706,1049.25 611.948,1028.31 622.19,1011.66 632.431,999.824 642.673,993.2 652.915,992.001 663.157,996.266 673.399,1005.86 683.641,1020.46 693.882,1039.59 704.124,1062.64 714.366,1088.85 724.608,1117.36 734.85,1147.24 745.092,1177.52 755.334,1207.21 765.575,1235.34 775.817,1260.99 786.059,1283.32 796.301,1301.62 806.543,1315.27 816.785,1323.83 827.027,1327.03 837.268,1324.76 847.51,1317.09 857.752,1304.28 867.994,1286.74 878.236,1265.04 888.478,1239.89 898.72,1212.12 908.961,1182.63 919.203,1152.38 929.445,1122.36 939.687,1093.55 949.929,1066.89 960.171,1043.25 970.413,1023.4 980.654,1007.99 990.896,997.526 1001.14,992.342 1011.38,992.611 1021.62,998.323 1031.86,1009.29 1042.11,1025.16 1052.35,1045.42 1062.59,1069.39 1072.83,1096.3 1083.07,1125.27 1093.31,1155.36 1103.56,1185.57 1113.8,1214.94 1124.04,1242.49 1134.28,1267.33 1144.52,1288.65 1154.77,1305.75 1165.01,1318.08 1175.25,1325.22 1185.49,1326.96 1195.73,1323.23 1205.98,1314.15 1216.22,1300.02 1226.46,1281.3 1236.7,1258.61 1246.94,1232.67 1257.18,1204.35 1267.43,1174.56 1277.67,320.033 1287.91,318.648 1298.15,319.909 1308.39,324.106 1318.64,329.953 1328.88,334.98 1339.12,336.468 1349.36,332.601 1359.6,323.381 1369.84,310.951 1380.09,299.124 1390.33,292.214 1400.57,293.54 1410.81,304.082 1421.05,321.814 1431.3,341.994 1441.54,358.427 1451.78,365.359 1462.02,359.425 1472.26,341.014 1482.51,314.532 1492.75,287.393 1502.99,267.942 1513.23,262.903 1523.47,275.118 1533.71,302.332 1543.96,337.478 1554.2,370.493 1564.44,391.199 1574.68,392.425 1584.92,372.421 1595.17,335.759 1605.41,292.361 1615.65,254.822 1625.89,234.755 1636.13,239.217 1646.38,268.31 1656.62,314.755 1666.86,365.671 1677.1,406.144 1687.34,423.593 1697.58,411.661 1707.83,372.424 1718.07,316.185 1728.31,258.795 1738.55,217.183 1748.79,204.367 1759.04,225.411 1769.28,275.569 1779.52,341.277 1789.76,403.807 1800,444.602 1810.24,450.782 1820.49,419.171 1830.73,357.621 1840.97,283.101 1851.21,217.032 1861.45,179.13 1871.7,181.526 1881.94,224.929 1892.18,298.017 1902.42,380.362 1912.66,448.134 1922.91,480.997 1933.15,468.2 1943.39,412.044 1953.63,327.613 1963.87,238.745 1974.11,171.302 1984.36,145.648 1994.6,170.509 2004.84,240.082 2015.08,335.313 2025.32,429.105 2035.57,494.028 2045.81,510.335 2056.05,471.954 2066.29,388.629 2076.53,283.49 2086.77,186.64 2097.02,126.536 2107.26,121.634 2117.5,174.74 2127.74,271.807 2137.98,385.621 2148.23,483.426 2158.47,536.349 2168.71,527.923 2178.95,459.175 2189.19,348.736 2199.44,227.807 2209.68,131.35 2219.92,87.9763 2230.16,111.473 2240.4,196.457 2250.64,319.53 2260.89,445.706 2271.13,538.363 2281.37,569.86 2291.61,529.781 "/>
<path clip-path="url(#clip110)" d="M264.353 250.738 L707.222 250.738 L707.222 95.2176 L264.353 95.2176  Z" fill="#ffffff" fill-rule="evenodd" fill-opacity="1"/>
<polyline clip-path="url(#clip110)" style="stroke:#000000; stroke-linecap:round; stroke-linejoin:round; stroke-width:4; stroke-opacity:1; fill:none" points="264.353,250.738 707.222,250.738 707.222,95.2176 264.353,95.2176 264.353,250.738 "/>
<polyline clip-path="url(#clip110)" style="stroke:#009af9; stroke-linecap:round; stroke-linejoin:round; stroke-width:16; stroke-opacity:1; fill:none" stroke-dasharray="8, 16" points="288.357,147.058 432.385,147.058 "/>
<path clip-path="url(#clip110)" d="M461.066 133.62 L461.066 146.606 L466.945 146.606 Q470.209 146.606 471.992 144.916 Q473.774 143.227 473.774 140.102 Q473.774 137 471.992 135.31 Q470.209 133.62 466.945 133.62 L461.066 133.62 M456.39 129.778 L466.945 129.778 Q472.755 129.778 475.718 132.416 Q478.704 135.032 478.704 140.102 Q478.704 145.217 475.718 147.833 Q472.755 150.449 466.945 150.449 L461.066 150.449 L461.066 164.338 L456.39 164.338 L456.39 129.778 Z" fill="#000000" fill-rule="nonzero" fill-opacity="1" /><path clip-path="url(#clip110)" d="M498.982 142.393 Q498.265 141.977 497.408 141.791 Q496.575 141.583 495.556 141.583 Q491.945 141.583 490.001 143.944 Q488.079 146.282 488.079 150.68 L488.079 164.338 L483.797 164.338 L483.797 138.412 L488.079 138.412 L488.079 142.44 Q489.422 140.078 491.575 138.944 Q493.728 137.787 496.806 137.787 Q497.246 137.787 497.778 137.856 Q498.311 137.903 498.959 138.018 L498.982 142.393 Z" fill="#000000" fill-rule="nonzero" fill-opacity="1" /><path clip-path="url(#clip110)" d="M524.584 150.31 L524.584 152.393 L505.001 152.393 Q505.278 156.791 507.639 159.106 Q510.024 161.398 514.26 161.398 Q516.714 161.398 519.005 160.796 Q521.32 160.194 523.588 158.99 L523.588 163.018 Q521.297 163.99 518.889 164.5 Q516.482 165.009 514.005 165.009 Q507.802 165.009 504.167 161.398 Q500.556 157.787 500.556 151.629 Q500.556 145.264 503.982 141.537 Q507.431 137.787 513.264 137.787 Q518.496 137.787 521.528 141.166 Q524.584 144.523 524.584 150.31 M520.325 149.06 Q520.278 145.565 518.357 143.481 Q516.459 141.398 513.311 141.398 Q509.746 141.398 507.593 143.412 Q505.464 145.426 505.14 149.083 L520.325 149.06 Z" fill="#000000" fill-rule="nonzero" fill-opacity="1" /><path clip-path="url(#clip110)" d="M548.635 142.347 L548.635 128.319 L552.894 128.319 L552.894 164.338 L548.635 164.338 L548.635 160.449 Q547.292 162.763 545.232 163.898 Q543.195 165.009 540.325 165.009 Q535.625 165.009 532.663 161.259 Q529.723 157.509 529.723 151.398 Q529.723 145.287 532.663 141.537 Q535.625 137.787 540.325 137.787 Q543.195 137.787 545.232 138.921 Q547.292 140.032 548.635 142.347 M534.121 151.398 Q534.121 156.097 536.042 158.782 Q537.987 161.444 541.366 161.444 Q544.746 161.444 546.69 158.782 Q548.635 156.097 548.635 151.398 Q548.635 146.699 546.69 144.037 Q544.746 141.352 541.366 141.352 Q537.987 141.352 536.042 144.037 Q534.121 146.699 534.121 151.398 Z" fill="#000000" fill-rule="nonzero" fill-opacity="1" /><path clip-path="url(#clip110)" d="M561.667 138.412 L565.926 138.412 L565.926 164.338 L561.667 164.338 L561.667 138.412 M561.667 128.319 L565.926 128.319 L565.926 133.713 L561.667 133.713 L561.667 128.319 Z" fill="#000000" fill-rule="nonzero" fill-opacity="1" /><path clip-path="url(#clip110)" d="M593.496 139.407 L593.496 143.389 Q591.69 142.393 589.861 141.907 Q588.056 141.398 586.204 141.398 Q582.06 141.398 579.769 144.037 Q577.477 146.652 577.477 151.398 Q577.477 156.143 579.769 158.782 Q582.06 161.398 586.204 161.398 Q588.056 161.398 589.861 160.912 Q591.69 160.402 593.496 159.407 L593.496 163.342 Q591.713 164.176 589.792 164.592 Q587.894 165.009 585.741 165.009 Q579.884 165.009 576.435 161.328 Q572.986 157.648 572.986 151.398 Q572.986 145.055 576.459 141.421 Q579.954 137.787 586.019 137.787 Q587.986 137.787 589.861 138.203 Q591.736 138.597 593.496 139.407 Z" fill="#000000" fill-rule="nonzero" fill-opacity="1" /><path clip-path="url(#clip110)" d="M605.116 131.051 L605.116 138.412 L613.889 138.412 L613.889 141.722 L605.116 141.722 L605.116 155.796 Q605.116 158.967 605.972 159.87 Q606.852 160.773 609.514 160.773 L613.889 160.773 L613.889 164.338 L609.514 164.338 Q604.583 164.338 602.708 162.509 Q600.833 160.657 600.833 155.796 L600.833 141.722 L597.708 141.722 L597.708 138.412 L600.833 138.412 L600.833 131.051 L605.116 131.051 Z" fill="#000000" fill-rule="nonzero" fill-opacity="1" /><path clip-path="url(#clip110)" d="M619.491 138.412 L623.75 138.412 L623.75 164.338 L619.491 164.338 L619.491 138.412 M619.491 128.319 L623.75 128.319 L623.75 133.713 L619.491 133.713 L619.491 128.319 Z" fill="#000000" fill-rule="nonzero" fill-opacity="1" /><path clip-path="url(#clip110)" d="M642.708 141.398 Q639.282 141.398 637.292 144.083 Q635.301 146.745 635.301 151.398 Q635.301 156.051 637.268 158.736 Q639.259 161.398 642.708 161.398 Q646.111 161.398 648.102 158.713 Q650.092 156.027 650.092 151.398 Q650.092 146.791 648.102 144.106 Q646.111 141.398 642.708 141.398 M642.708 137.787 Q648.264 137.787 651.435 141.398 Q654.606 145.009 654.606 151.398 Q654.606 157.764 651.435 161.398 Q648.264 165.009 642.708 165.009 Q637.13 165.009 633.958 161.398 Q630.81 157.764 630.81 151.398 Q630.81 145.009 633.958 141.398 Q637.13 137.787 642.708 137.787 Z" fill="#000000" fill-rule="nonzero" fill-opacity="1" /><path clip-path="url(#clip110)" d="M683.217 148.689 L683.217 164.338 L678.958 164.338 L678.958 148.828 Q678.958 145.148 677.523 143.319 Q676.088 141.49 673.217 141.49 Q669.768 141.49 667.778 143.69 Q665.787 145.889 665.787 149.685 L665.787 164.338 L661.504 164.338 L661.504 138.412 L665.787 138.412 L665.787 142.44 Q667.315 140.102 669.375 138.944 Q671.458 137.787 674.166 137.787 Q678.634 137.787 680.926 140.565 Q683.217 143.319 683.217 148.689 Z" fill="#000000" fill-rule="nonzero" fill-opacity="1" /><polyline clip-path="url(#clip110)" style="stroke:#e26f46; stroke-linecap:round; stroke-linejoin:round; stroke-width:4; stroke-opacity:1; fill:none" points="288.357,198.898 432.385,198.898 "/>
<path clip-path="url(#clip110)" d="M456.39 181.618 L478.242 181.618 L478.242 185.553 L461.066 185.553 L461.066 195.784 L477.524 195.784 L477.524 199.719 L461.066 199.719 L461.066 212.242 L478.658 212.242 L478.658 216.178 L456.39 216.178 L456.39 181.618 Z" fill="#000000" fill-rule="nonzero" fill-opacity="1" /><path clip-path="url(#clip110)" d="M507.709 190.252 L498.334 202.867 L508.195 216.178 L503.172 216.178 L495.626 205.992 L488.079 216.178 L483.056 216.178 L493.126 202.613 L483.913 190.252 L488.936 190.252 L495.811 199.488 L502.686 190.252 L507.709 190.252 Z" fill="#000000" fill-rule="nonzero" fill-opacity="1" /><path clip-path="url(#clip110)" d="M525.996 203.145 Q520.834 203.145 518.843 204.326 Q516.852 205.506 516.852 208.354 Q516.852 210.622 518.334 211.965 Q519.838 213.284 522.408 213.284 Q525.95 213.284 528.079 210.784 Q530.232 208.261 530.232 204.094 L530.232 203.145 L525.996 203.145 M534.491 201.386 L534.491 216.178 L530.232 216.178 L530.232 212.242 Q528.774 214.603 526.598 215.738 Q524.422 216.849 521.274 216.849 Q517.292 216.849 514.931 214.627 Q512.593 212.381 512.593 208.631 Q512.593 204.256 515.51 202.034 Q518.45 199.812 524.26 199.812 L530.232 199.812 L530.232 199.395 Q530.232 196.455 528.288 194.858 Q526.366 193.238 522.871 193.238 Q520.649 193.238 518.542 193.77 Q516.436 194.303 514.491 195.367 L514.491 191.432 Q516.829 190.53 519.028 190.09 Q521.227 189.627 523.311 189.627 Q528.936 189.627 531.713 192.543 Q534.491 195.46 534.491 201.386 Z" fill="#000000" fill-rule="nonzero" fill-opacity="1" /><path clip-path="url(#clip110)" d="M561.922 191.247 L561.922 195.229 Q560.116 194.233 558.287 193.747 Q556.482 193.238 554.63 193.238 Q550.486 193.238 548.195 195.877 Q545.903 198.492 545.903 203.238 Q545.903 207.983 548.195 210.622 Q550.486 213.238 554.63 213.238 Q556.482 213.238 558.287 212.752 Q560.116 212.242 561.922 211.247 L561.922 215.182 Q560.139 216.016 558.218 216.432 Q556.32 216.849 554.167 216.849 Q548.311 216.849 544.862 213.168 Q541.412 209.488 541.412 203.238 Q541.412 196.895 544.885 193.261 Q548.38 189.627 554.445 189.627 Q556.412 189.627 558.287 190.043 Q560.162 190.437 561.922 191.247 Z" fill="#000000" fill-rule="nonzero" fill-opacity="1" /><path clip-path="url(#clip110)" d="M573.542 182.891 L573.542 190.252 L582.315 190.252 L582.315 193.562 L573.542 193.562 L573.542 207.636 Q573.542 210.807 574.398 211.71 Q575.278 212.613 577.94 212.613 L582.315 212.613 L582.315 216.178 L577.94 216.178 Q573.01 216.178 571.135 214.349 Q569.26 212.497 569.26 207.636 L569.26 193.562 L566.135 193.562 L566.135 190.252 L569.26 190.252 L569.26 182.891 L573.542 182.891 Z" fill="#000000" fill-rule="nonzero" fill-opacity="1" /></svg>
