<?xml version="1.0" encoding="utf-8"?>
<svg xmlns="http://www.w3.org/2000/svg" xmlns:xlink="http://www.w3.org/1999/xlink" width="600" height="400" viewBox="0 0 2400 1600">
<defs>
  <clipPath id="clip990">
    <rect x="0" y="0" width="2400" height="1600"/>
  </clipPath>
</defs>
<path clip-path="url(#clip990)" d="M0 1600 L2400 1600 L2400 0 L0 0  Z" fill="#ffffff" fill-rule="evenodd" fill-opacity="1"/>
<defs>
  <clipPath id="clip991">
    <rect x="480" y="0" width="1681" height="1600"/>
  </clipPath>
</defs>
<path clip-path="url(#clip990)" d="M156.274 1486.45 L2352.76 1486.45 L2352.76 47.2441 L156.274 47.2441  Z" fill="#ffffff" fill-rule="evenodd" fill-opacity="1"/>
<defs>
  <clipPath id="clip992">
    <rect x="156" y="47" width="2197" height="1440"/>
  </clipPath>
</defs>
<polyline clip-path="url(#clip992)" style="stroke:#000000; stroke-linecap:round; stroke-linejoin:round; stroke-width:2; stroke-opacity:0.1; fill:none" points="218.439,1486.45 218.439,47.2441 "/>
<polyline clip-path="url(#clip992)" style="stroke:#000000; stroke-linecap:round; stroke-linejoin:round; stroke-width:2; stroke-opacity:0.1; fill:none" points="736.477,1486.45 736.477,47.2441 "/>
<polyline clip-path="url(#clip992)" style="stroke:#000000; stroke-linecap:round; stroke-linejoin:round; stroke-width:2; stroke-opacity:0.1; fill:none" points="1254.52,1486.45 1254.52,47.2441 "/>
<polyline clip-path="url(#clip992)" style="stroke:#000000; stroke-linecap:round; stroke-linejoin:round; stroke-width:2; stroke-opacity:0.1; fill:none" points="1772.55,1486.45 1772.55,47.2441 "/>
<polyline clip-path="url(#clip992)" style="stroke:#000000; stroke-linecap:round; stroke-linejoin:round; stroke-width:2; stroke-opacity:0.1; fill:none" points="2290.59,1486.45 2290.59,47.2441 "/>
<polyline clip-path="url(#clip990)" style="stroke:#000000; stroke-linecap:round; stroke-linejoin:round; stroke-width:4; stroke-opacity:1; fill:none" points="156.274,1486.45 2352.76,1486.45 "/>
<polyline clip-path="url(#clip990)" style="stroke:#000000; stroke-linecap:round; stroke-linejoin:round; stroke-width:4; stroke-opacity:1; fill:none" points="218.439,1486.45 218.439,1467.55 "/>
<polyline clip-path="url(#clip990)" style="stroke:#000000; stroke-linecap:round; stroke-linejoin:round; stroke-width:4; stroke-opacity:1; fill:none" points="736.477,1486.45 736.477,1467.55 "/>
<polyline clip-path="url(#clip990)" style="stroke:#000000; stroke-linecap:round; stroke-linejoin:round; stroke-width:4; stroke-opacity:1; fill:none" points="1254.52,1486.45 1254.52,1467.55 "/>
<polyline clip-path="url(#clip990)" style="stroke:#000000; stroke-linecap:round; stroke-linejoin:round; stroke-width:4; stroke-opacity:1; fill:none" points="1772.55,1486.45 1772.55,1467.55 "/>
<polyline clip-path="url(#clip990)" style="stroke:#000000; stroke-linecap:round; stroke-linejoin:round; stroke-width:4; stroke-opacity:1; fill:none" points="2290.59,1486.45 2290.59,1467.55 "/>
<path clip-path="url(#clip990)" d="M164.967 1532.02 L194.643 1532.02 L194.643 1535.95 L164.967 1535.95 L164.967 1532.02 Z" fill="#000000" fill-rule="nonzero" fill-opacity="1" /><path clip-path="url(#clip990)" d="M205.545 1544.91 L213.184 1544.91 L213.184 1518.55 L204.874 1520.21 L204.874 1515.95 L213.138 1514.29 L217.814 1514.29 L217.814 1544.91 L225.453 1544.91 L225.453 1548.85 L205.545 1548.85 L205.545 1544.91 Z" fill="#000000" fill-rule="nonzero" fill-opacity="1" /><path clip-path="url(#clip990)" d="M234.897 1542.97 L239.781 1542.97 L239.781 1548.85 L234.897 1548.85 L234.897 1542.97 Z" fill="#000000" fill-rule="nonzero" fill-opacity="1" /><path clip-path="url(#clip990)" d="M259.966 1517.37 Q256.355 1517.37 254.527 1520.93 Q252.721 1524.47 252.721 1531.6 Q252.721 1538.71 254.527 1542.27 Q256.355 1545.82 259.966 1545.82 Q263.601 1545.82 265.406 1542.27 Q267.235 1538.71 267.235 1531.6 Q267.235 1524.47 265.406 1520.93 Q263.601 1517.37 259.966 1517.37 M259.966 1513.66 Q265.776 1513.66 268.832 1518.27 Q271.911 1522.85 271.911 1531.6 Q271.911 1540.33 268.832 1544.94 Q265.776 1549.52 259.966 1549.52 Q254.156 1549.52 251.077 1544.94 Q248.022 1540.33 248.022 1531.6 Q248.022 1522.85 251.077 1518.27 Q254.156 1513.66 259.966 1513.66 Z" fill="#000000" fill-rule="nonzero" fill-opacity="1" /><path clip-path="url(#clip990)" d="M683.503 1532.02 L713.178 1532.02 L713.178 1535.95 L683.503 1535.95 L683.503 1532.02 Z" fill="#000000" fill-rule="nonzero" fill-opacity="1" /><path clip-path="url(#clip990)" d="M733.271 1517.37 Q729.66 1517.37 727.831 1520.93 Q726.026 1524.47 726.026 1531.6 Q726.026 1538.71 727.831 1542.27 Q729.66 1545.82 733.271 1545.82 Q736.905 1545.82 738.711 1542.27 Q740.539 1538.71 740.539 1531.6 Q740.539 1524.47 738.711 1520.93 Q736.905 1517.37 733.271 1517.37 M733.271 1513.66 Q739.081 1513.66 742.137 1518.27 Q745.215 1522.85 745.215 1531.6 Q745.215 1540.33 742.137 1544.94 Q739.081 1549.52 733.271 1549.52 Q727.461 1549.52 724.382 1544.94 Q721.327 1540.33 721.327 1531.6 Q721.327 1522.85 724.382 1518.27 Q727.461 1513.66 733.271 1513.66 Z" fill="#000000" fill-rule="nonzero" fill-opacity="1" /><path clip-path="url(#clip990)" d="M753.433 1542.97 L758.317 1542.97 L758.317 1548.85 L753.433 1548.85 L753.433 1542.97 Z" fill="#000000" fill-rule="nonzero" fill-opacity="1" /><path clip-path="url(#clip990)" d="M768.548 1514.29 L786.905 1514.29 L786.905 1518.22 L772.831 1518.22 L772.831 1526.7 Q773.849 1526.35 774.868 1526.19 Q775.886 1526 776.905 1526 Q782.692 1526 786.072 1529.17 Q789.451 1532.34 789.451 1537.76 Q789.451 1543.34 785.979 1546.44 Q782.507 1549.52 776.187 1549.52 Q774.011 1549.52 771.743 1549.15 Q769.498 1548.78 767.09 1548.04 L767.09 1543.34 Q769.173 1544.47 771.396 1545.03 Q773.618 1545.58 776.095 1545.58 Q780.099 1545.58 782.437 1543.48 Q784.775 1541.37 784.775 1537.76 Q784.775 1534.15 782.437 1532.04 Q780.099 1529.94 776.095 1529.94 Q774.22 1529.94 772.345 1530.35 Q770.493 1530.77 768.548 1531.65 L768.548 1514.29 Z" fill="#000000" fill-rule="nonzero" fill-opacity="1" /><path clip-path="url(#clip990)" d="M1231.9 1517.37 Q1228.29 1517.37 1226.46 1520.93 Q1224.65 1524.47 1224.65 1531.6 Q1224.65 1538.71 1226.46 1542.27 Q1228.29 1545.82 1231.9 1545.82 Q1235.53 1545.82 1237.34 1542.27 Q1239.17 1538.71 1239.17 1531.6 Q1239.17 1524.47 1237.34 1520.93 Q1235.53 1517.37 1231.9 1517.37 M1231.9 1513.66 Q1237.71 1513.66 1240.77 1518.27 Q1243.84 1522.85 1243.84 1531.6 Q1243.84 1540.33 1240.77 1544.94 Q1237.71 1549.52 1231.9 1549.52 Q1226.09 1549.52 1223.01 1544.94 Q1219.96 1540.33 1219.96 1531.6 Q1219.96 1522.85 1223.01 1518.27 Q1226.09 1513.66 1231.9 1513.66 Z" fill="#000000" fill-rule="nonzero" fill-opacity="1" /><path clip-path="url(#clip990)" d="M1252.06 1542.97 L1256.95 1542.97 L1256.95 1548.85 L1252.06 1548.85 L1252.06 1542.97 Z" fill="#000000" fill-rule="nonzero" fill-opacity="1" /><path clip-path="url(#clip990)" d="M1277.13 1517.37 Q1273.52 1517.37 1271.69 1520.93 Q1269.89 1524.47 1269.89 1531.6 Q1269.89 1538.71 1271.69 1542.27 Q1273.52 1545.82 1277.13 1545.82 Q1280.76 1545.82 1282.57 1542.27 Q1284.4 1538.71 1284.4 1531.6 Q1284.4 1524.47 1282.57 1520.93 Q1280.76 1517.37 1277.13 1517.37 M1277.13 1513.66 Q1282.94 1513.66 1286 1518.27 Q1289.08 1522.85 1289.08 1531.6 Q1289.08 1540.33 1286 1544.94 Q1282.94 1549.52 1277.13 1549.52 Q1271.32 1549.52 1268.24 1544.94 Q1265.19 1540.33 1265.19 1531.6 Q1265.19 1522.85 1268.24 1518.27 Q1271.32 1513.66 1277.13 1513.66 Z" fill="#000000" fill-rule="nonzero" fill-opacity="1" /><path clip-path="url(#clip990)" d="M1750.44 1517.37 Q1746.82 1517.37 1745 1520.93 Q1743.19 1524.47 1743.19 1531.6 Q1743.19 1538.71 1745 1542.27 Q1746.82 1545.82 1750.44 1545.82 Q1754.07 1545.82 1755.88 1542.27 Q1757.7 1538.71 1757.7 1531.6 Q1757.7 1524.47 1755.88 1520.93 Q1754.07 1517.37 1750.44 1517.37 M1750.44 1513.66 Q1756.25 1513.66 1759.3 1518.27 Q1762.38 1522.85 1762.38 1531.6 Q1762.38 1540.33 1759.3 1544.94 Q1756.25 1549.52 1750.44 1549.52 Q1744.63 1549.52 1741.55 1544.94 Q1738.49 1540.33 1738.49 1531.6 Q1738.49 1522.85 1741.55 1518.27 Q1744.63 1513.66 1750.44 1513.66 Z" fill="#000000" fill-rule="nonzero" fill-opacity="1" /><path clip-path="url(#clip990)" d="M1770.6 1542.97 L1775.48 1542.97 L1775.48 1548.85 L1770.6 1548.85 L1770.6 1542.97 Z" fill="#000000" fill-rule="nonzero" fill-opacity="1" /><path clip-path="url(#clip990)" d="M1785.71 1514.29 L1804.07 1514.29 L1804.07 1518.22 L1790 1518.22 L1790 1526.7 Q1791.01 1526.35 1792.03 1526.19 Q1793.05 1526 1794.07 1526 Q1799.86 1526 1803.24 1529.17 Q1806.62 1532.34 1806.62 1537.76 Q1806.62 1543.34 1803.14 1546.44 Q1799.67 1549.52 1793.35 1549.52 Q1791.18 1549.52 1788.91 1549.15 Q1786.66 1548.78 1784.25 1548.04 L1784.25 1543.34 Q1786.34 1544.47 1788.56 1545.03 Q1790.78 1545.58 1793.26 1545.58 Q1797.26 1545.58 1799.6 1543.48 Q1801.94 1541.37 1801.94 1537.76 Q1801.94 1534.15 1799.6 1532.04 Q1797.26 1529.94 1793.26 1529.94 Q1791.38 1529.94 1789.51 1530.35 Q1787.66 1530.77 1785.71 1531.65 L1785.71 1514.29 Z" fill="#000000" fill-rule="nonzero" fill-opacity="1" /><path clip-path="url(#clip990)" d="M2257.74 1544.91 L2265.38 1544.91 L2265.38 1518.55 L2257.07 1520.21 L2257.07 1515.95 L2265.34 1514.29 L2270.01 1514.29 L2270.01 1544.91 L2277.65 1544.91 L2277.65 1548.85 L2257.74 1548.85 L2257.74 1544.91 Z" fill="#000000" fill-rule="nonzero" fill-opacity="1" /><path clip-path="url(#clip990)" d="M2287.1 1542.97 L2291.98 1542.97 L2291.98 1548.85 L2287.1 1548.85 L2287.1 1542.97 Z" fill="#000000" fill-rule="nonzero" fill-opacity="1" /><path clip-path="url(#clip990)" d="M2312.17 1517.37 Q2308.55 1517.37 2306.73 1520.93 Q2304.92 1524.47 2304.92 1531.6 Q2304.92 1538.71 2306.73 1542.27 Q2308.55 1545.82 2312.17 1545.82 Q2315.8 1545.82 2317.61 1542.27 Q2319.43 1538.71 2319.43 1531.6 Q2319.43 1524.47 2317.61 1520.93 Q2315.8 1517.37 2312.17 1517.37 M2312.17 1513.66 Q2317.98 1513.66 2321.03 1518.27 Q2324.11 1522.85 2324.11 1531.6 Q2324.11 1540.33 2321.03 1544.94 Q2317.98 1549.52 2312.17 1549.52 Q2306.36 1549.52 2303.28 1544.94 Q2300.22 1540.33 2300.22 1531.6 Q2300.22 1522.85 2303.28 1518.27 Q2306.36 1513.66 2312.17 1513.66 Z" fill="#000000" fill-rule="nonzero" fill-opacity="1" /><polyline clip-path="url(#clip992)" style="stroke:#000000; stroke-linecap:round; stroke-linejoin:round; stroke-width:2; stroke-opacity:0.1; fill:none" points="156.274,1250.71 2352.76,1250.71 "/>
<polyline clip-path="url(#clip992)" style="stroke:#000000; stroke-linecap:round; stroke-linejoin:round; stroke-width:2; stroke-opacity:0.1; fill:none" points="156.274,977.836 2352.76,977.836 "/>
<polyline clip-path="url(#clip992)" style="stroke:#000000; stroke-linecap:round; stroke-linejoin:round; stroke-width:2; stroke-opacity:0.1; fill:none" points="156.274,704.961 2352.76,704.961 "/>
<polyline clip-path="url(#clip992)" style="stroke:#000000; stroke-linecap:round; stroke-linejoin:round; stroke-width:2; stroke-opacity:0.1; fill:none" points="156.274,432.085 2352.76,432.085 "/>
<polyline clip-path="url(#clip992)" style="stroke:#000000; stroke-linecap:round; stroke-linejoin:round; stroke-width:2; stroke-opacity:0.1; fill:none" points="156.274,159.21 2352.76,159.21 "/>
<polyline clip-path="url(#clip990)" style="stroke:#000000; stroke-linecap:round; stroke-linejoin:round; stroke-width:4; stroke-opacity:1; fill:none" points="156.274,1486.45 156.274,47.2441 "/>
<polyline clip-path="url(#clip990)" style="stroke:#000000; stroke-linecap:round; stroke-linejoin:round; stroke-width:4; stroke-opacity:1; fill:none" points="156.274,1250.71 175.172,1250.71 "/>
<polyline clip-path="url(#clip990)" style="stroke:#000000; stroke-linecap:round; stroke-linejoin:round; stroke-width:4; stroke-opacity:1; fill:none" points="156.274,977.836 175.172,977.836 "/>
<polyline clip-path="url(#clip990)" style="stroke:#000000; stroke-linecap:round; stroke-linejoin:round; stroke-width:4; stroke-opacity:1; fill:none" points="156.274,704.961 175.172,704.961 "/>
<polyline clip-path="url(#clip990)" style="stroke:#000000; stroke-linecap:round; stroke-linejoin:round; stroke-width:4; stroke-opacity:1; fill:none" points="156.274,432.085 175.172,432.085 "/>
<polyline clip-path="url(#clip990)" style="stroke:#000000; stroke-linecap:round; stroke-linejoin:round; stroke-width:4; stroke-opacity:1; fill:none" points="156.274,159.21 175.172,159.21 "/>
<path clip-path="url(#clip990)" d="M63.0985 1236.51 Q59.4875 1236.51 57.6588 1240.07 Q55.8532 1243.62 55.8532 1250.75 Q55.8532 1257.85 57.6588 1261.42 Q59.4875 1264.96 63.0985 1264.96 Q66.7328 1264.96 68.5383 1261.42 Q70.367 1257.85 70.367 1250.75 Q70.367 1243.62 68.5383 1240.07 Q66.7328 1236.51 63.0985 1236.51 M63.0985 1232.81 Q68.9087 1232.81 71.9642 1237.41 Q75.0429 1242 75.0429 1250.75 Q75.0429 1259.47 71.9642 1264.08 Q68.9087 1268.66 63.0985 1268.66 Q57.2884 1268.66 54.2097 1264.08 Q51.1542 1259.47 51.1542 1250.75 Q51.1542 1242 54.2097 1237.41 Q57.2884 1232.81 63.0985 1232.81 Z" fill="#000000" fill-rule="nonzero" fill-opacity="1" /><path clip-path="url(#clip990)" d="M83.2605 1262.11 L88.1447 1262.11 L88.1447 1267.99 L83.2605 1267.99 L83.2605 1262.11 Z" fill="#000000" fill-rule="nonzero" fill-opacity="1" /><path clip-path="url(#clip990)" d="M108.33 1236.51 Q104.719 1236.51 102.89 1240.07 Q101.084 1243.62 101.084 1250.75 Q101.084 1257.85 102.89 1261.42 Q104.719 1264.96 108.33 1264.96 Q111.964 1264.96 113.77 1261.42 Q115.598 1257.85 115.598 1250.75 Q115.598 1243.62 113.77 1240.07 Q111.964 1236.51 108.33 1236.51 M108.33 1232.81 Q114.14 1232.81 117.195 1237.41 Q120.274 1242 120.274 1250.75 Q120.274 1259.47 117.195 1264.08 Q114.14 1268.66 108.33 1268.66 Q102.52 1268.66 99.4409 1264.08 Q96.3854 1259.47 96.3854 1250.75 Q96.3854 1242 99.4409 1237.41 Q102.52 1232.81 108.33 1232.81 Z" fill="#000000" fill-rule="nonzero" fill-opacity="1" /><path clip-path="url(#clip990)" d="M63.7467 963.635 Q60.1356 963.635 58.3069 967.199 Q56.5014 970.741 56.5014 977.871 Q56.5014 984.977 58.3069 988.542 Q60.1356 992.083 63.7467 992.083 Q67.3809 992.083 69.1865 988.542 Q71.0152 984.977 71.0152 977.871 Q71.0152 970.741 69.1865 967.199 Q67.3809 963.635 63.7467 963.635 M63.7467 959.931 Q69.5568 959.931 72.6124 964.537 Q75.6911 969.121 75.6911 977.871 Q75.6911 986.597 72.6124 991.204 Q69.5568 995.787 63.7467 995.787 Q57.9365 995.787 54.8578 991.204 Q51.8023 986.597 51.8023 977.871 Q51.8023 969.121 54.8578 964.537 Q57.9365 959.931 63.7467 959.931 Z" fill="#000000" fill-rule="nonzero" fill-opacity="1" /><path clip-path="url(#clip990)" d="M83.9086 989.236 L88.7928 989.236 L88.7928 995.116 L83.9086 995.116 L83.9086 989.236 Z" fill="#000000" fill-rule="nonzero" fill-opacity="1" /><path clip-path="url(#clip990)" d="M113.145 976.482 Q116.501 977.199 118.376 979.468 Q120.274 981.736 120.274 985.07 Q120.274 990.185 116.756 992.986 Q113.237 995.787 106.756 995.787 Q104.58 995.787 102.265 995.347 Q99.9733 994.931 97.5197 994.074 L97.5197 989.56 Q99.4641 990.695 101.779 991.273 Q104.094 991.852 106.617 991.852 Q111.015 991.852 113.307 990.116 Q115.621 988.38 115.621 985.07 Q115.621 982.014 113.469 980.301 Q111.339 978.565 107.52 978.565 L103.492 978.565 L103.492 974.722 L107.705 974.722 Q111.154 974.722 112.983 973.357 Q114.811 971.968 114.811 969.375 Q114.811 966.713 112.913 965.301 Q111.038 963.866 107.52 963.866 Q105.598 963.866 103.399 964.283 Q101.2 964.699 98.5613 965.579 L98.5613 961.412 Q101.223 960.672 103.538 960.301 Q105.876 959.931 107.936 959.931 Q113.26 959.931 116.362 962.361 Q119.464 964.769 119.464 968.889 Q119.464 971.759 117.82 973.75 Q116.177 975.718 113.145 976.482 Z" fill="#000000" fill-rule="nonzero" fill-opacity="1" /><path clip-path="url(#clip990)" d="M62.9365 690.759 Q59.3254 690.759 57.4967 694.324 Q55.6912 697.866 55.6912 704.995 Q55.6912 712.102 57.4967 715.667 Q59.3254 719.208 62.9365 719.208 Q66.5707 719.208 68.3763 715.667 Q70.205 712.102 70.205 704.995 Q70.205 697.866 68.3763 694.324 Q66.5707 690.759 62.9365 690.759 M62.9365 687.056 Q68.7467 687.056 71.8022 691.662 Q74.8809 696.245 74.8809 704.995 Q74.8809 713.722 71.8022 718.329 Q68.7467 722.912 62.9365 722.912 Q57.1264 722.912 54.0477 718.329 Q50.9921 713.722 50.9921 704.995 Q50.9921 696.245 54.0477 691.662 Q57.1264 687.056 62.9365 687.056 Z" fill="#000000" fill-rule="nonzero" fill-opacity="1" /><path clip-path="url(#clip990)" d="M83.0984 716.361 L87.9827 716.361 L87.9827 722.241 L83.0984 722.241 L83.0984 716.361 Z" fill="#000000" fill-rule="nonzero" fill-opacity="1" /><path clip-path="url(#clip990)" d="M108.746 703.097 Q105.598 703.097 103.746 705.25 Q101.918 707.403 101.918 711.153 Q101.918 714.88 103.746 717.055 Q105.598 719.208 108.746 719.208 Q111.895 719.208 113.723 717.055 Q115.575 714.88 115.575 711.153 Q115.575 707.403 113.723 705.25 Q111.895 703.097 108.746 703.097 M118.029 688.445 L118.029 692.704 Q116.27 691.87 114.464 691.431 Q112.682 690.991 110.922 690.991 Q106.293 690.991 103.839 694.116 Q101.409 697.241 101.061 703.56 Q102.427 701.546 104.487 700.482 Q106.547 699.394 109.024 699.394 Q114.233 699.394 117.242 702.565 Q120.274 705.713 120.274 711.153 Q120.274 716.477 117.126 719.694 Q113.978 722.912 108.746 722.912 Q102.751 722.912 99.5798 718.329 Q96.4085 713.722 96.4085 704.995 Q96.4085 696.801 100.297 691.94 Q104.186 687.056 110.737 687.056 Q112.496 687.056 114.279 687.403 Q116.084 687.75 118.029 688.445 Z" fill="#000000" fill-rule="nonzero" fill-opacity="1" /><path clip-path="url(#clip990)" d="M63.2837 417.884 Q59.6726 417.884 57.8439 421.449 Q56.0384 424.991 56.0384 432.12 Q56.0384 439.227 57.8439 442.791 Q59.6726 446.333 63.2837 446.333 Q66.918 446.333 68.7235 442.791 Q70.5522 439.227 70.5522 432.12 Q70.5522 424.991 68.7235 421.449 Q66.918 417.884 63.2837 417.884 M63.2837 414.18 Q69.0939 414.18 72.1494 418.787 Q75.2281 423.37 75.2281 432.12 Q75.2281 440.847 72.1494 445.453 Q69.0939 450.037 63.2837 450.037 Q57.4736 450.037 54.3949 445.453 Q51.3393 440.847 51.3393 432.12 Q51.3393 423.37 54.3949 418.787 Q57.4736 414.18 63.2837 414.18 Z" fill="#000000" fill-rule="nonzero" fill-opacity="1" /><path clip-path="url(#clip990)" d="M83.4457 443.486 L88.3299 443.486 L88.3299 449.365 L83.4457 449.365 L83.4457 443.486 Z" fill="#000000" fill-rule="nonzero" fill-opacity="1" /><path clip-path="url(#clip990)" d="M98.6539 448.648 L98.6539 444.389 Q100.413 445.222 102.219 445.662 Q104.024 446.102 105.76 446.102 Q110.39 446.102 112.82 443 Q115.274 439.875 115.621 433.532 Q114.279 435.523 112.219 436.588 Q110.158 437.653 107.658 437.653 Q102.473 437.653 99.4409 434.528 Q96.4317 431.379 96.4317 425.94 Q96.4317 420.616 99.5798 417.398 Q102.728 414.18 107.959 414.18 Q113.955 414.18 117.103 418.787 Q120.274 423.37 120.274 432.12 Q120.274 440.291 116.385 445.176 Q112.52 450.037 105.969 450.037 Q104.209 450.037 102.404 449.69 Q100.598 449.342 98.6539 448.648 M107.959 433.995 Q111.108 433.995 112.936 431.842 Q114.788 429.69 114.788 425.94 Q114.788 422.213 112.936 420.06 Q111.108 417.884 107.959 417.884 Q104.811 417.884 102.959 420.06 Q101.131 422.213 101.131 425.94 Q101.131 429.69 102.959 431.842 Q104.811 433.995 107.959 433.995 Z" fill="#000000" fill-rule="nonzero" fill-opacity="1" /><path clip-path="url(#clip990)" d="M55.506 172.555 L63.1448 172.555 L63.1448 146.19 L54.8347 147.856 L54.8347 143.597 L63.0985 141.93 L67.7744 141.93 L67.7744 172.555 L75.4133 172.555 L75.4133 176.49 L55.506 176.49 L55.506 172.555 Z" fill="#000000" fill-rule="nonzero" fill-opacity="1" /><path clip-path="url(#clip990)" d="M84.8577 170.611 L89.7419 170.611 L89.7419 176.49 L84.8577 176.49 L84.8577 170.611 Z" fill="#000000" fill-rule="nonzero" fill-opacity="1" /><path clip-path="url(#clip990)" d="M103.955 172.555 L120.274 172.555 L120.274 176.49 L98.3298 176.49 L98.3298 172.555 Q100.992 169.8 105.575 165.171 Q110.182 160.518 111.362 159.176 Q113.608 156.652 114.487 154.916 Q115.39 153.157 115.39 151.467 Q115.39 148.713 113.445 146.977 Q111.524 145.24 108.422 145.24 Q106.223 145.24 103.77 146.004 Q101.339 146.768 98.5613 148.319 L98.5613 143.597 Q101.385 142.463 103.839 141.884 Q106.293 141.305 108.33 141.305 Q113.7 141.305 116.895 143.99 Q120.089 146.676 120.089 151.166 Q120.089 153.296 119.279 155.217 Q118.492 157.115 116.385 159.708 Q115.807 160.379 112.705 163.597 Q109.603 166.791 103.955 172.555 Z" fill="#000000" fill-rule="nonzero" fill-opacity="1" /><polyline clip-path="url(#clip992)" style="stroke:#009af9; stroke-linecap:round; stroke-linejoin:round; stroke-width:16; stroke-opacity:1; fill:none" stroke-dasharray="8, 16" points="218.439,1088.37 228.852,1095.49 239.264,1102.61 249.677,1109.73 260.09,1116.85 270.503,1123.97 280.916,1131.09 291.329,1138.21 301.741,1149.18 312.154,1170.19 322.567,1191.2 332.98,1212.21 343.393,1233.22 353.805,1254.23 364.218,1275.24 374.631,1295.4 385.044,1298.78 395.457,1298.74 405.87,1298.71 416.282,1298.67 426.695,1298.64 437.108,1298.61 447.521,1298.57 457.934,1298.54 468.347,1298.51 478.759,1298.47 489.172,1298.44 499.585,1298.4 509.998,1298.37 520.411,1298.34 530.824,1298.3 541.236,1298.27 551.649,1298.23 562.062,1298.2 572.475,1298.17 582.888,1298.13 593.301,1298.1 603.713,1298.06 614.126,1298.03 624.539,1298 634.952,1297.96 645.365,1297.93 655.777,1297.9 666.19,1297.86 676.603,1297.83 687.016,1297.79 697.429,1297.76 707.842,1297.73 718.254,1297.69 728.667,1297.66 739.08,1297.62 749.493,1297.59 759.906,1297.56 770.319,1297.52 780.731,1297.49 791.144,1297.46 801.557,1297.42 811.97,1297.39 822.383,1297.35 832.796,1297.32 843.208,1297.29 853.621,1297.2 864.034,1291.76 874.447,1285.75 884.86,1275.74 895.273,1246.56 905.685,1217.38 916.098,1188.2 926.511,1159.02 936.924,1129.84 947.337,1100.66 957.749,1084.62 968.162,1078.56 978.575,1072.48 988.988,1066.4 999.401,1065.53 1009.81,1086.89 1020.23,1108.26 1030.64,1129.4 1041.05,1155.82 1051.46,1186.09 1061.88,1217.64 1072.29,1249.5 1082.7,1281.41 1093.12,1308.63 1103.53,1342.42 1113.94,1370.98 1124.35,1379.39 1134.77,1399 1145.18,1423.41 1155.59,1441.58 1166.01,1445.72 1176.42,1434.97 1186.83,1419.62 1197.24,1412.59 1207.66,1405.59 1218.07,1387.65 1228.48,1365.88 1238.9,1184.03 1249.31,886.202 1259.72,630.273 1270.13,431.996 1280.55,293.801 1290.96,288.473 1301.37,311.096 1311.79,347.44 1322.2,355.393 1332.61,347.298 1343.02,339.202 1353.44,331.107 1363.85,324.897 1374.26,324.578 1384.68,325.619 1395.09,333.708 1405.5,343.426 1415.91,353.144 1426.33,363.717 1436.74,374.748 1447.15,377.278 1457.57,365.118 1467.98,352.957 1478.39,340.796 1488.8,331.802 1499.22,331.992 1509.63,332.181 1520.04,332.37 1530.45,332.559 1540.87,332.748 1551.28,332.938 1561.69,333.127 1572.11,333.316 1582.52,333.505 1592.93,333.694 1603.34,333.884 1613.76,334.073 1624.17,334.915 1634.58,335.782 1645,336.65 1655.41,337.517 1665.82,338.384 1676.23,339.252 1686.65,340.119 1697.06,340.986 1707.47,341.854 1717.89,342.721 1728.3,343.589 1738.71,344.456 1749.12,345.323 1759.54,346.191 1769.95,347.058 1780.36,347.925 1790.78,348.792 1801.19,349.66 1811.6,350.528 1822.01,351.395 1832.43,352.262 1842.84,353.13 1853.25,353.997 1863.67,354.864 1874.08,355.731 1884.49,356.599 1894.9,357.466 1905.32,358.333 1915.73,359.201 1926.14,360.069 1936.56,360.936 1946.97,361.803 1957.38,362.67 1967.79,363.538 1978.21,364.405 1988.62,365.272 1999.03,366.14 2009.45,367.008 2019.86,367.875 2030.27,368.742 2040.68,369.609 2051.1,370.477 2061.51,371.344 2071.92,372.212 2082.33,373.079 2092.75,373.946 2103.16,374.813 2113.57,375.681 2123.99,376.548 2134.4,377.416 2144.81,378.283 2155.22,379.15 2165.64,380.018 2176.05,380.886 2186.46,381.752 2196.88,382.62 2207.29,383.487 2217.7,384.354 2228.11,385.222 2238.53,386.089 2248.94,386.957 2259.35,387.824 2269.77,388.691 2280.18,389.558 2290.59,390.425 "/>
<polyline clip-path="url(#clip992)" style="stroke:#e26f46; stroke-linecap:round; stroke-linejoin:round; stroke-width:4; stroke-opacity:1; fill:none" points="218.439,1114.09 228.852,1094.71 239.264,1080.42 249.677,1071.69 260.09,1068.79 270.503,1071.84 280.916,1080.73 291.329,1095.16 301.741,1114.67 312.154,1138.62 322.567,1166.22 332.98,1196.59 343.393,1228.72 353.805,1261.57 364.218,1294.06 374.631,1325.14 385.044,1353.79 395.457,1379.08 405.87,1400.18 416.282,1416.4 426.695,1427.21 437.108,1432.26 447.521,1431.38 457.934,1424.61 468.347,1412.16 478.759,1394.45 489.172,1372.04 499.585,1345.67 509.998,1316.21 520.411,1284.6 530.824,1251.89 541.236,1219.14 551.649,1187.42 562.062,1157.77 572.475,1131.15 582.888,1108.43 593.301,1090.36 603.713,1077.52 614.126,1070.33 624.539,1069.03 634.952,1073.66 645.365,1084.06 655.777,1099.91 666.19,1120.68 676.603,1145.69 687.016,1174.13 697.429,1205.07 707.842,1237.5 718.254,1270.35 728.667,1302.57 739.08,1333.1 749.493,1360.94 759.906,1385.18 770.319,1405.03 780.731,1419.84 791.144,1429.14 801.557,1432.61 811.97,1430.14 822.383,1421.82 832.796,1407.91 843.208,1388.88 853.621,1365.33 864.034,1338.04 874.447,1307.91 884.86,1275.9 895.273,1243.08 905.685,1210.5 916.098,1179.24 926.511,1150.3 936.924,1124.65 947.337,1103.11 957.749,1086.39 968.162,1075.03 978.575,1069.4 988.988,1069.69 999.401,1075.89 1009.81,1087.8 1020.23,1105.02 1030.64,1127 1041.05,1153.01 1051.46,1182.21 1061.88,1213.65 1072.29,1246.3 1082.7,1279.1 1093.12,1310.96 1103.53,1340.86 1113.94,1367.82 1124.35,1390.95 1134.77,1409.51 1145.18,1422.89 1155.59,1430.64 1166.01,1432.53 1176.42,1428.48 1186.83,1418.63 1197.24,1403.29 1207.66,1382.98 1218.07,1358.35 1228.48,1330.21 1238.9,1299.47 1249.31,1267.14 1259.72,339.806 1270.13,338.303 1280.55,339.671 1290.96,344.226 1301.37,350.571 1311.79,356.026 1322.2,357.641 1332.61,353.444 1343.02,343.439 1353.44,329.95 1363.85,317.115 1374.26,309.617 1384.68,311.055 1395.09,322.495 1405.5,341.738 1415.91,363.638 1426.33,381.471 1436.74,388.993 1447.15,382.554 1457.57,362.574 1467.98,333.836 1478.39,304.384 1488.8,283.276 1499.22,277.807 1509.63,291.064 1520.04,320.596 1530.45,358.737 1540.87,394.565 1551.28,417.035 1561.69,418.366 1572.11,396.657 1582.52,356.872 1592.93,309.776 1603.34,269.039 1613.76,247.261 1624.17,252.104 1634.58,283.676 1645,334.078 1655.41,389.332 1665.82,433.254 1676.23,452.19 1686.65,439.241 1697.06,396.66 1707.47,335.63 1717.89,273.35 1728.3,228.192 1738.71,214.284 1749.12,237.121 1759.54,291.553 1769.95,362.86 1780.36,430.717 1790.78,474.989 1801.19,481.695 1811.6,447.391 1822.01,380.596 1832.43,299.726 1842.84,228.028 1853.25,186.896 1863.67,189.497 1874.08,236.598 1884.49,315.914 1894.9,405.275 1905.32,478.822 1915.73,514.485 1926.14,500.597 1936.56,439.656 1946.97,348.031 1957.38,251.591 1967.79,178.402 1978.21,150.562 1988.62,177.541 1999.03,253.042 2009.45,356.387 2019.86,458.171 2030.27,528.626 2040.68,546.322 2051.1,504.671 2061.51,414.246 2071.92,300.149 2082.33,195.047 2092.75,129.822 2103.16,124.502 2113.57,182.132 2123.99,287.47 2134.4,410.982 2144.81,517.12 2155.22,574.553 2165.64,565.409 2176.05,490.803 2186.46,370.954 2196.88,239.722 2207.29,135.045 2217.7,87.9763 2228.11,113.475 2238.53,205.7 2248.94,339.259 2259.35,476.187 2269.77,576.739 2280.18,610.919 2290.59,567.425 "/>
<path clip-path="url(#clip990)" d="M229.49 250.738 L675.966 250.738 L675.966 95.2176 L229.49 95.2176  Z" fill="#ffffff" fill-rule="evenodd" fill-opacity="1"/>
<polyline clip-path="url(#clip990)" style="stroke:#000000; stroke-linecap:round; stroke-linejoin:round; stroke-width:4; stroke-opacity:1; fill:none" points="229.49,250.738 675.966,250.738 675.966,95.2176 229.49,95.2176 229.49,250.738 "/>
<polyline clip-path="url(#clip990)" style="stroke:#009af9; stroke-linecap:round; stroke-linejoin:round; stroke-width:16; stroke-opacity:1; fill:none" stroke-dasharray="8, 16" points="253.896,147.058 400.328,147.058 "/>
<path clip-path="url(#clip990)" d="M429.409 133.62 L429.409 146.606 L435.289 146.606 Q438.552 146.606 440.335 144.916 Q442.117 143.227 442.117 140.102 Q442.117 137 440.335 135.31 Q438.552 133.62 435.289 133.62 L429.409 133.62 M424.733 129.778 L435.289 129.778 Q441.099 129.778 444.062 132.416 Q447.048 135.032 447.048 140.102 Q447.048 145.217 444.062 147.833 Q441.099 150.449 435.289 150.449 L429.409 150.449 L429.409 164.338 L424.733 164.338 L424.733 129.778 Z" fill="#000000" fill-rule="nonzero" fill-opacity="1" /><path clip-path="url(#clip990)" d="M467.325 142.393 Q466.608 141.977 465.751 141.791 Q464.918 141.583 463.899 141.583 Q460.288 141.583 458.344 143.944 Q456.423 146.282 456.423 150.68 L456.423 164.338 L452.14 164.338 L452.14 138.412 L456.423 138.412 L456.423 142.44 Q457.765 140.078 459.918 138.944 Q462.071 137.787 465.149 137.787 Q465.589 137.787 466.122 137.856 Q466.654 137.903 467.302 138.018 L467.325 142.393 Z" fill="#000000" fill-rule="nonzero" fill-opacity="1" /><path clip-path="url(#clip990)" d="M492.927 150.31 L492.927 152.393 L473.344 152.393 Q473.622 156.791 475.983 159.106 Q478.367 161.398 482.603 161.398 Q485.057 161.398 487.348 160.796 Q489.663 160.194 491.932 158.99 L491.932 163.018 Q489.64 163.99 487.233 164.5 Q484.825 165.009 482.348 165.009 Q476.145 165.009 472.511 161.398 Q468.899 157.787 468.899 151.629 Q468.899 145.264 472.325 141.537 Q475.774 137.787 481.608 137.787 Q486.839 137.787 489.872 141.166 Q492.927 144.523 492.927 150.31 M488.668 149.06 Q488.622 145.565 486.7 143.481 Q484.802 141.398 481.654 141.398 Q478.089 141.398 475.936 143.412 Q473.807 145.426 473.483 149.083 L488.668 149.06 Z" fill="#000000" fill-rule="nonzero" fill-opacity="1" /><path clip-path="url(#clip990)" d="M516.978 142.347 L516.978 128.319 L521.237 128.319 L521.237 164.338 L516.978 164.338 L516.978 160.449 Q515.635 162.763 513.575 163.898 Q511.538 165.009 508.668 165.009 Q503.969 165.009 501.006 161.259 Q498.066 157.509 498.066 151.398 Q498.066 145.287 501.006 141.537 Q503.969 137.787 508.668 137.787 Q511.538 137.787 513.575 138.921 Q515.635 140.032 516.978 142.347 M502.464 151.398 Q502.464 156.097 504.385 158.782 Q506.33 161.444 509.709 161.444 Q513.089 161.444 515.033 158.782 Q516.978 156.097 516.978 151.398 Q516.978 146.699 515.033 144.037 Q513.089 141.352 509.709 141.352 Q506.33 141.352 504.385 144.037 Q502.464 146.699 502.464 151.398 Z" fill="#000000" fill-rule="nonzero" fill-opacity="1" /><path clip-path="url(#clip990)" d="M530.01 138.412 L534.269 138.412 L534.269 164.338 L530.01 164.338 L530.01 138.412 M530.01 128.319 L534.269 128.319 L534.269 133.713 L530.01 133.713 L530.01 128.319 Z" fill="#000000" fill-rule="nonzero" fill-opacity="1" /><path clip-path="url(#clip990)" d="M561.839 139.407 L561.839 143.389 Q560.033 142.393 558.205 141.907 Q556.399 141.398 554.547 141.398 Q550.404 141.398 548.112 144.037 Q545.82 146.652 545.82 151.398 Q545.82 156.143 548.112 158.782 Q550.404 161.398 554.547 161.398 Q556.399 161.398 558.205 160.912 Q560.033 160.402 561.839 159.407 L561.839 163.342 Q560.056 164.176 558.135 164.592 Q556.237 165.009 554.084 165.009 Q548.228 165.009 544.779 161.328 Q541.33 157.648 541.33 151.398 Q541.33 145.055 544.802 141.421 Q548.297 137.787 554.362 137.787 Q556.33 137.787 558.205 138.203 Q560.08 138.597 561.839 139.407 Z" fill="#000000" fill-rule="nonzero" fill-opacity="1" /><path clip-path="url(#clip990)" d="M573.459 131.051 L573.459 138.412 L582.232 138.412 L582.232 141.722 L573.459 141.722 L573.459 155.796 Q573.459 158.967 574.316 159.87 Q575.195 160.773 577.857 160.773 L582.232 160.773 L582.232 164.338 L577.857 164.338 Q572.927 164.338 571.052 162.509 Q569.177 160.657 569.177 155.796 L569.177 141.722 L566.052 141.722 L566.052 138.412 L569.177 138.412 L569.177 131.051 L573.459 131.051 Z" fill="#000000" fill-rule="nonzero" fill-opacity="1" /><path clip-path="url(#clip990)" d="M587.834 138.412 L592.093 138.412 L592.093 164.338 L587.834 164.338 L587.834 138.412 M587.834 128.319 L592.093 128.319 L592.093 133.713 L587.834 133.713 L587.834 128.319 Z" fill="#000000" fill-rule="nonzero" fill-opacity="1" /><path clip-path="url(#clip990)" d="M611.051 141.398 Q607.626 141.398 605.635 144.083 Q603.644 146.745 603.644 151.398 Q603.644 156.051 605.612 158.736 Q607.602 161.398 611.051 161.398 Q614.454 161.398 616.445 158.713 Q618.436 156.027 618.436 151.398 Q618.436 146.791 616.445 144.106 Q614.454 141.398 611.051 141.398 M611.051 137.787 Q616.607 137.787 619.778 141.398 Q622.95 145.009 622.95 151.398 Q622.95 157.764 619.778 161.398 Q616.607 165.009 611.051 165.009 Q605.473 165.009 602.302 161.398 Q599.153 157.764 599.153 151.398 Q599.153 145.009 602.302 141.398 Q605.473 137.787 611.051 137.787 Z" fill="#000000" fill-rule="nonzero" fill-opacity="1" /><path clip-path="url(#clip990)" d="M651.561 148.689 L651.561 164.338 L647.301 164.338 L647.301 148.828 Q647.301 145.148 645.866 143.319 Q644.431 141.49 641.561 141.49 Q638.112 141.49 636.121 143.69 Q634.13 145.889 634.13 149.685 L634.13 164.338 L629.848 164.338 L629.848 138.412 L634.13 138.412 L634.13 142.44 Q635.658 140.102 637.718 138.944 Q639.801 137.787 642.51 137.787 Q646.977 137.787 649.269 140.565 Q651.561 143.319 651.561 148.689 Z" fill="#000000" fill-rule="nonzero" fill-opacity="1" /><polyline clip-path="url(#clip990)" style="stroke:#e26f46; stroke-linecap:round; stroke-linejoin:round; stroke-width:4; stroke-opacity:1; fill:none" points="253.896,198.898 400.328,198.898 "/>
<path clip-path="url(#clip990)" d="M424.733 181.618 L446.585 181.618 L446.585 185.553 L429.409 185.553 L429.409 195.784 L445.867 195.784 L445.867 199.719 L429.409 199.719 L429.409 212.242 L447.001 212.242 L447.001 216.178 L424.733 216.178 L424.733 181.618 Z" fill="#000000" fill-rule="nonzero" fill-opacity="1" /><path clip-path="url(#clip990)" d="M476.052 190.252 L466.677 202.867 L476.538 216.178 L471.515 216.178 L463.969 205.992 L456.423 216.178 L451.4 216.178 L461.469 202.613 L452.256 190.252 L457.279 190.252 L464.154 199.488 L471.029 190.252 L476.052 190.252 Z" fill="#000000" fill-rule="nonzero" fill-opacity="1" /><path clip-path="url(#clip990)" d="M494.339 203.145 Q489.177 203.145 487.186 204.326 Q485.196 205.506 485.196 208.354 Q485.196 210.622 486.677 211.965 Q488.182 213.284 490.751 213.284 Q494.293 213.284 496.422 210.784 Q498.575 208.261 498.575 204.094 L498.575 203.145 L494.339 203.145 M502.834 201.386 L502.834 216.178 L498.575 216.178 L498.575 212.242 Q497.117 214.603 494.941 215.738 Q492.765 216.849 489.617 216.849 Q485.635 216.849 483.274 214.627 Q480.936 212.381 480.936 208.631 Q480.936 204.256 483.853 202.034 Q486.793 199.812 492.603 199.812 L498.575 199.812 L498.575 199.395 Q498.575 196.455 496.631 194.858 Q494.71 193.238 491.214 193.238 Q488.992 193.238 486.885 193.77 Q484.779 194.303 482.835 195.367 L482.835 191.432 Q485.173 190.53 487.372 190.09 Q489.571 189.627 491.654 189.627 Q497.279 189.627 500.057 192.543 Q502.834 195.46 502.834 201.386 Z" fill="#000000" fill-rule="nonzero" fill-opacity="1" /><path clip-path="url(#clip990)" d="M530.265 191.247 L530.265 195.229 Q528.459 194.233 526.631 193.747 Q524.825 193.238 522.973 193.238 Q518.83 193.238 516.538 195.877 Q514.246 198.492 514.246 203.238 Q514.246 207.983 516.538 210.622 Q518.83 213.238 522.973 213.238 Q524.825 213.238 526.631 212.752 Q528.459 212.242 530.265 211.247 L530.265 215.182 Q528.482 216.016 526.561 216.432 Q524.663 216.849 522.51 216.849 Q516.654 216.849 513.205 213.168 Q509.756 209.488 509.756 203.238 Q509.756 196.895 513.228 193.261 Q516.723 189.627 522.788 189.627 Q524.756 189.627 526.631 190.043 Q528.506 190.437 530.265 191.247 Z" fill="#000000" fill-rule="nonzero" fill-opacity="1" /><path clip-path="url(#clip990)" d="M541.885 182.891 L541.885 190.252 L550.658 190.252 L550.658 193.562 L541.885 193.562 L541.885 207.636 Q541.885 210.807 542.742 211.71 Q543.621 212.613 546.283 212.613 L550.658 212.613 L550.658 216.178 L546.283 216.178 Q541.353 216.178 539.478 214.349 Q537.603 212.497 537.603 207.636 L537.603 193.562 L534.478 193.562 L534.478 190.252 L537.603 190.252 L537.603 182.891 L541.885 182.891 Z" fill="#000000" fill-rule="nonzero" fill-opacity="1" /></svg>
