<?xml version="1.0" encoding="utf-8"?>
<svg xmlns="http://www.w3.org/2000/svg" xmlns:xlink="http://www.w3.org/1999/xlink" width="600" height="400" viewBox="0 0 2400 1600">
<defs>
  <clipPath id="clip050">
    <rect x="0" y="0" width="2400" height="1600"/>
  </clipPath>
</defs>
<path clip-path="url(#clip050)" d="M0 1600 L2400 1600 L2400 0 L0 0  Z" fill="#ffffff" fill-rule="evenodd" fill-opacity="1"/>
<defs>
  <clipPath id="clip051">
    <rect x="480" y="0" width="1681" height="1600"/>
  </clipPath>
</defs>
<path clip-path="url(#clip050)" d="M156.274 1486.45 L2352.76 1486.45 L2352.76 47.2441 L156.274 47.2441  Z" fill="#ffffff" fill-rule="evenodd" fill-opacity="1"/>
<defs>
  <clipPath id="clip052">
    <rect x="156" y="47" width="2197" height="1440"/>
  </clipPath>
</defs>
<polyline clip-path="url(#clip052)" style="stroke:#000000; stroke-linecap:round; stroke-linejoin:round; stroke-width:2; stroke-opacity:0.1; fill:none" points="218.439,1486.45 218.439,47.2441 "/>
<polyline clip-path="url(#clip052)" style="stroke:#000000; stroke-linecap:round; stroke-linejoin:round; stroke-width:2; stroke-opacity:0.1; fill:none" points="736.477,1486.45 736.477,47.2441 "/>
<polyline clip-path="url(#clip052)" style="stroke:#000000; stroke-linecap:round; stroke-linejoin:round; stroke-width:2; stroke-opacity:0.1; fill:none" points="1254.52,1486.45 1254.52,47.2441 "/>
<polyline clip-path="url(#clip052)" style="stroke:#000000; stroke-linecap:round; stroke-linejoin:round; stroke-width:2; stroke-opacity:0.1; fill:none" points="1772.55,1486.45 1772.55,47.2441 "/>
<polyline clip-path="url(#clip052)" style="stroke:#000000; stroke-linecap:round; stroke-linejoin:round; stroke-width:2; stroke-opacity:0.1; fill:none" points="2290.59,1486.45 2290.59,47.2441 "/>
<polyline clip-path="url(#clip050)" style="stroke:#000000; stroke-linecap:round; stroke-linejoin:round; stroke-width:4; stroke-opacity:1; fill:none" points="156.274,1486.45 2352.76,1486.45 "/>
<polyline clip-path="url(#clip050)" style="stroke:#000000; stroke-linecap:round; stroke-linejoin:round; stroke-width:4; stroke-opacity:1; fill:none" points="218.439,1486.45 218.439,1467.55 "/>
<polyline clip-path="url(#clip050)" style="stroke:#000000; stroke-linecap:round; stroke-linejoin:round; stroke-width:4; stroke-opacity:1; fill:none" points="736.477,1486.45 736.477,1467.55 "/>
<polyline clip-path="url(#clip050)" style="stroke:#000000; stroke-linecap:round; stroke-linejoin:round; stroke-width:4; stroke-opacity:1; fill:none" points="1254.52,1486.45 1254.52,1467.55 "/>
<polyline clip-path="url(#clip050)" style="stroke:#000000; stroke-linecap:round; stroke-linejoin:round; stroke-width:4; stroke-opacity:1; fill:none" points="1772.55,1486.45 1772.55,1467.55 "/>
<polyline clip-path="url(#clip050)" style="stroke:#000000; stroke-linecap:round; stroke-linejoin:round; stroke-width:4; stroke-opacity:1; fill:none" points="2290.59,1486.45 2290.59,1467.55 "/>
<path clip-path="url(#clip050)" d="M164.967 1532.02 L194.643 1532.02 L194.643 1535.95 L164.967 1535.95 L164.967 1532.02 Z" fill="#000000" fill-rule="nonzero" fill-opacity="1" /><path clip-path="url(#clip050)" d="M205.545 1544.91 L213.184 1544.91 L213.184 1518.55 L204.874 1520.21 L204.874 1515.95 L213.138 1514.29 L217.814 1514.29 L217.814 1544.91 L225.453 1544.91 L225.453 1548.85 L205.545 1548.85 L205.545 1544.91 Z" fill="#000000" fill-rule="nonzero" fill-opacity="1" /><path clip-path="url(#clip050)" d="M234.897 1542.97 L239.781 1542.97 L239.781 1548.85 L234.897 1548.85 L234.897 1542.97 Z" fill="#000000" fill-rule="nonzero" fill-opacity="1" /><path clip-path="url(#clip050)" d="M259.966 1517.37 Q256.355 1517.37 254.527 1520.93 Q252.721 1524.47 252.721 1531.6 Q252.721 1538.71 254.527 1542.27 Q256.355 1545.82 259.966 1545.82 Q263.601 1545.82 265.406 1542.27 Q267.235 1538.71 267.235 1531.6 Q267.235 1524.47 265.406 1520.93 Q263.601 1517.37 259.966 1517.37 M259.966 1513.66 Q265.776 1513.66 268.832 1518.27 Q271.911 1522.85 271.911 1531.6 Q271.911 1540.33 268.832 1544.94 Q265.776 1549.52 259.966 1549.52 Q254.156 1549.52 251.077 1544.94 Q248.022 1540.33 248.022 1531.6 Q248.022 1522.85 251.077 1518.27 Q254.156 1513.66 259.966 1513.66 Z" fill="#000000" fill-rule="nonzero" fill-opacity="1" /><path clip-path="url(#clip050)" d="M683.503 1532.02 L713.178 1532.02 L713.178 1535.95 L683.503 1535.95 L683.503 1532.02 Z" fill="#000000" fill-rule="nonzero" fill-opacity="1" /><path clip-path="url(#clip050)" d="M733.271 1517.37 Q729.66 1517.37 727.831 1520.93 Q726.026 1524.47 726.026 1531.6 Q726.026 1538.71 727.831 1542.27 Q729.66 1545.82 733.271 1545.82 Q736.905 1545.82 738.711 1542.27 Q740.539 1538.71 740.539 1531.6 Q740.539 1524.47 738.711 1520.93 Q736.905 1517.37 733.271 1517.37 M733.271 1513.66 Q739.081 1513.66 742.137 1518.27 Q745.215 1522.85 745.215 1531.6 Q745.215 1540.33 742.137 1544.94 Q739.081 1549.52 733.271 1549.52 Q727.461 1549.52 724.382 1544.94 Q721.327 1540.33 721.327 1531.6 Q721.327 1522.85 724.382 1518.27 Q727.461 1513.66 733.271 1513.66 Z" fill="#000000" fill-rule="nonzero" fill-opacity="1" /><path clip-path="url(#clip050)" d="M753.433 1542.97 L758.317 1542.97 L758.317 1548.85 L753.433 1548.85 L753.433 1542.97 Z" fill="#000000" fill-rule="nonzero" fill-opacity="1" /><path clip-path="url(#clip050)" d="M768.548 1514.29 L786.905 1514.29 L786.905 1518.22 L772.831 1518.22 L772.831 1526.7 Q773.849 1526.35 774.868 1526.19 Q775.886 1526 776.905 1526 Q782.692 1526 786.072 1529.17 Q789.451 1532.34 789.451 1537.76 Q789.451 1543.34 785.979 1546.44 Q782.507 1549.52 776.187 1549.52 Q774.011 1549.52 771.743 1549.15 Q769.498 1548.78 767.09 1548.04 L767.09 1543.34 Q769.173 1544.47 771.396 1545.03 Q773.618 1545.58 776.095 1545.58 Q780.099 1545.58 782.437 1543.48 Q784.775 1541.37 784.775 1537.76 Q784.775 1534.15 782.437 1532.04 Q780.099 1529.94 776.095 1529.94 Q774.22 1529.94 772.345 1530.35 Q770.493 1530.77 768.548 1531.65 L768.548 1514.29 Z" fill="#000000" fill-rule="nonzero" fill-opacity="1" /><path clip-path="url(#clip050)" d="M1231.9 1517.37 Q1228.29 1517.37 1226.46 1520.93 Q1224.65 1524.47 1224.65 1531.6 Q1224.65 1538.71 1226.46 1542.27 Q1228.29 1545.82 1231.9 1545.82 Q1235.53 1545.82 1237.34 1542.27 Q1239.17 1538.71 1239.17 1531.6 Q1239.17 1524.47 1237.34 1520.93 Q1235.53 1517.37 1231.9 1517.37 M1231.9 1513.66 Q1237.71 1513.66 1240.77 1518.27 Q1243.84 1522.85 1243.84 1531.6 Q1243.84 1540.33 1240.77 1544.94 Q1237.71 1549.52 1231.9 1549.52 Q1226.09 1549.52 1223.01 1544.94 Q1219.96 1540.33 1219.96 1531.6 Q1219.96 1522.85 1223.01 1518.27 Q1226.09 1513.66 1231.9 1513.66 Z" fill="#000000" fill-rule="nonzero" fill-opacity="1" /><path clip-path="url(#clip050)" d="M1252.06 1542.97 L1256.95 1542.97 L1256.95 1548.85 L1252.06 1548.85 L1252.06 1542.97 Z" fill="#000000" fill-rule="nonzero" fill-opacity="1" /><path clip-path="url(#clip050)" d="M1277.13 1517.37 Q1273.52 1517.37 1271.69 1520.93 Q1269.89 1524.47 1269.89 1531.6 Q1269.89 1538.71 1271.69 1542.27 Q1273.52 1545.82 1277.13 1545.82 Q1280.76 1545.82 1282.57 1542.27 Q1284.4 1538.71 1284.4 1531.6 Q1284.4 1524.47 1282.57 1520.93 Q1280.76 1517.37 1277.13 1517.37 M1277.13 1513.66 Q1282.94 1513.66 1286 1518.27 Q1289.08 1522.85 1289.08 1531.6 Q1289.08 1540.33 1286 1544.94 Q1282.94 1549.52 1277.13 1549.52 Q1271.32 1549.52 1268.24 1544.94 Q1265.19 1540.33 1265.19 1531.6 Q1265.19 1522.85 1268.24 1518.27 Q1271.32 1513.66 1277.13 1513.66 Z" fill="#000000" fill-rule="nonzero" fill-opacity="1" /><path clip-path="url(#clip050)" d="M1750.44 1517.37 Q1746.82 1517.37 1745 1520.93 Q1743.19 1524.47 1743.19 1531.6 Q1743.19 1538.71 1745 1542.27 Q1746.82 1545.82 1750.44 1545.82 Q1754.07 1545.82 1755.88 1542.27 Q1757.7 1538.71 1757.7 1531.6 Q1757.7 1524.47 1755.88 1520.93 Q1754.07 1517.37 1750.44 1517.37 M1750.44 1513.66 Q1756.25 1513.66 1759.3 1518.27 Q1762.38 1522.85 1762.38 1531.6 Q1762.38 1540.33 1759.3 1544.94 Q1756.25 1549.52 1750.44 1549.52 Q1744.63 1549.52 1741.55 1544.94 Q1738.49 1540.33 1738.49 1531.6 Q1738.49 1522.85 1741.55 1518.27 Q1744.63 1513.66 1750.44 1513.66 Z" fill="#000000" fill-rule="nonzero" fill-opacity="1" /><path clip-path="url(#clip050)" d="M1770.6 1542.97 L1775.48 1542.97 L1775.48 1548.85 L1770.6 1548.85 L1770.6 1542.97 Z" fill="#000000" fill-rule="nonzero" fill-opacity="1" /><path clip-path="url(#clip050)" d="M1785.71 1514.29 L1804.07 1514.29 L1804.07 1518.22 L1790 1518.22 L1790 1526.7 Q1791.01 1526.35 1792.03 1526.19 Q1793.05 1526 1794.07 1526 Q1799.86 1526 1803.24 1529.17 Q1806.62 1532.34 1806.62 1537.76 Q1806.62 1543.34 1803.14 1546.44 Q1799.67 1549.52 1793.35 1549.52 Q1791.18 1549.52 1788.91 1549.15 Q1786.66 1548.78 1784.25 1548.04 L1784.25 1543.34 Q1786.34 1544.47 1788.56 1545.03 Q1790.78 1545.58 1793.26 1545.58 Q1797.26 1545.58 1799.6 1543.48 Q1801.94 1541.37 1801.94 1537.76 Q1801.94 1534.15 1799.6 1532.04 Q1797.26 1529.94 1793.26 1529.94 Q1791.38 1529.94 1789.51 1530.35 Q1787.66 1530.77 1785.71 1531.65 L1785.71 1514.29 Z" fill="#000000" fill-rule="nonzero" fill-opacity="1" /><path clip-path="url(#clip050)" d="M2257.74 1544.91 L2265.38 1544.91 L2265.38 1518.55 L2257.07 1520.21 L2257.07 1515.95 L2265.34 1514.29 L2270.01 1514.29 L2270.01 1544.91 L2277.65 1544.91 L2277.65 1548.85 L2257.74 1548.85 L2257.74 1544.91 Z" fill="#000000" fill-rule="nonzero" fill-opacity="1" /><path clip-path="url(#clip050)" d="M2287.1 1542.97 L2291.98 1542.97 L2291.98 1548.85 L2287.1 1548.85 L2287.1 1542.97 Z" fill="#000000" fill-rule="nonzero" fill-opacity="1" /><path clip-path="url(#clip050)" d="M2312.17 1517.37 Q2308.55 1517.37 2306.73 1520.93 Q2304.92 1524.47 2304.92 1531.6 Q2304.92 1538.71 2306.73 1542.27 Q2308.55 1545.82 2312.17 1545.82 Q2315.8 1545.82 2317.61 1542.27 Q2319.43 1538.71 2319.43 1531.6 Q2319.43 1524.47 2317.61 1520.93 Q2315.8 1517.37 2312.17 1517.37 M2312.17 1513.66 Q2317.98 1513.66 2321.03 1518.27 Q2324.11 1522.85 2324.11 1531.6 Q2324.11 1540.33 2321.03 1544.94 Q2317.98 1549.52 2312.17 1549.52 Q2306.36 1549.52 2303.28 1544.94 Q2300.22 1540.33 2300.22 1531.6 Q2300.22 1522.85 2303.28 1518.27 Q2306.36 1513.66 2312.17 1513.66 Z" fill="#000000" fill-rule="nonzero" fill-opacity="1" /><polyline clip-path="url(#clip052)" style="stroke:#000000; stroke-linecap:round; stroke-linejoin:round; stroke-width:2; stroke-opacity:0.1; fill:none" points="156.274,1235.55 2352.76,1235.55 "/>
<polyline clip-path="url(#clip052)" style="stroke:#000000; stroke-linecap:round; stroke-linejoin:round; stroke-width:2; stroke-opacity:0.1; fill:none" points="156.274,966.236 2352.76,966.236 "/>
<polyline clip-path="url(#clip052)" style="stroke:#000000; stroke-linecap:round; stroke-linejoin:round; stroke-width:2; stroke-opacity:0.1; fill:none" points="156.274,696.918 2352.76,696.918 "/>
<polyline clip-path="url(#clip052)" style="stroke:#000000; stroke-linecap:round; stroke-linejoin:round; stroke-width:2; stroke-opacity:0.1; fill:none" points="156.274,427.6 2352.76,427.6 "/>
<polyline clip-path="url(#clip052)" style="stroke:#000000; stroke-linecap:round; stroke-linejoin:round; stroke-width:2; stroke-opacity:0.1; fill:none" points="156.274,158.282 2352.76,158.282 "/>
<polyline clip-path="url(#clip050)" style="stroke:#000000; stroke-linecap:round; stroke-linejoin:round; stroke-width:4; stroke-opacity:1; fill:none" points="156.274,1486.45 156.274,47.2441 "/>
<polyline clip-path="url(#clip050)" style="stroke:#000000; stroke-linecap:round; stroke-linejoin:round; stroke-width:4; stroke-opacity:1; fill:none" points="156.274,1235.55 175.172,1235.55 "/>
<polyline clip-path="url(#clip050)" style="stroke:#000000; stroke-linecap:round; stroke-linejoin:round; stroke-width:4; stroke-opacity:1; fill:none" points="156.274,966.236 175.172,966.236 "/>
<polyline clip-path="url(#clip050)" style="stroke:#000000; stroke-linecap:round; stroke-linejoin:round; stroke-width:4; stroke-opacity:1; fill:none" points="156.274,696.918 175.172,696.918 "/>
<polyline clip-path="url(#clip050)" style="stroke:#000000; stroke-linecap:round; stroke-linejoin:round; stroke-width:4; stroke-opacity:1; fill:none" points="156.274,427.6 175.172,427.6 "/>
<polyline clip-path="url(#clip050)" style="stroke:#000000; stroke-linecap:round; stroke-linejoin:round; stroke-width:4; stroke-opacity:1; fill:none" points="156.274,158.282 175.172,158.282 "/>
<path clip-path="url(#clip050)" d="M63.0985 1221.35 Q59.4875 1221.35 57.6588 1224.92 Q55.8532 1228.46 55.8532 1235.59 Q55.8532 1242.7 57.6588 1246.26 Q59.4875 1249.8 63.0985 1249.8 Q66.7328 1249.8 68.5383 1246.26 Q70.367 1242.7 70.367 1235.59 Q70.367 1228.46 68.5383 1224.92 Q66.7328 1221.35 63.0985 1221.35 M63.0985 1217.65 Q68.9087 1217.65 71.9642 1222.26 Q75.0429 1226.84 75.0429 1235.59 Q75.0429 1244.32 71.9642 1248.92 Q68.9087 1253.51 63.0985 1253.51 Q57.2884 1253.51 54.2097 1248.92 Q51.1542 1244.32 51.1542 1235.59 Q51.1542 1226.84 54.2097 1222.26 Q57.2884 1217.65 63.0985 1217.65 Z" fill="#000000" fill-rule="nonzero" fill-opacity="1" /><path clip-path="url(#clip050)" d="M83.2605 1246.95 L88.1447 1246.95 L88.1447 1252.83 L83.2605 1252.83 L83.2605 1246.95 Z" fill="#000000" fill-rule="nonzero" fill-opacity="1" /><path clip-path="url(#clip050)" d="M108.33 1221.35 Q104.719 1221.35 102.89 1224.92 Q101.084 1228.46 101.084 1235.59 Q101.084 1242.7 102.89 1246.26 Q104.719 1249.8 108.33 1249.8 Q111.964 1249.8 113.77 1246.26 Q115.598 1242.7 115.598 1235.59 Q115.598 1228.46 113.77 1224.92 Q111.964 1221.35 108.33 1221.35 M108.33 1217.65 Q114.14 1217.65 117.195 1222.26 Q120.274 1226.84 120.274 1235.59 Q120.274 1244.32 117.195 1248.92 Q114.14 1253.51 108.33 1253.51 Q102.52 1253.51 99.4409 1248.92 Q96.3854 1244.32 96.3854 1235.59 Q96.3854 1226.84 99.4409 1222.26 Q102.52 1217.65 108.33 1217.65 Z" fill="#000000" fill-rule="nonzero" fill-opacity="1" /><path clip-path="url(#clip050)" d="M63.7467 952.035 Q60.1356 952.035 58.3069 955.599 Q56.5014 959.141 56.5014 966.271 Q56.5014 973.377 58.3069 976.942 Q60.1356 980.483 63.7467 980.483 Q67.3809 980.483 69.1865 976.942 Q71.0152 973.377 71.0152 966.271 Q71.0152 959.141 69.1865 955.599 Q67.3809 952.035 63.7467 952.035 M63.7467 948.331 Q69.5568 948.331 72.6124 952.937 Q75.6911 957.521 75.6911 966.271 Q75.6911 974.997 72.6124 979.604 Q69.5568 984.187 63.7467 984.187 Q57.9365 984.187 54.8578 979.604 Q51.8023 974.997 51.8023 966.271 Q51.8023 957.521 54.8578 952.937 Q57.9365 948.331 63.7467 948.331 Z" fill="#000000" fill-rule="nonzero" fill-opacity="1" /><path clip-path="url(#clip050)" d="M83.9086 977.636 L88.7928 977.636 L88.7928 983.516 L83.9086 983.516 L83.9086 977.636 Z" fill="#000000" fill-rule="nonzero" fill-opacity="1" /><path clip-path="url(#clip050)" d="M113.145 964.882 Q116.501 965.599 118.376 967.868 Q120.274 970.136 120.274 973.47 Q120.274 978.585 116.756 981.386 Q113.237 984.187 106.756 984.187 Q104.58 984.187 102.265 983.747 Q99.9733 983.331 97.5197 982.474 L97.5197 977.96 Q99.4641 979.095 101.779 979.673 Q104.094 980.252 106.617 980.252 Q111.015 980.252 113.307 978.516 Q115.621 976.78 115.621 973.47 Q115.621 970.414 113.469 968.701 Q111.339 966.965 107.52 966.965 L103.492 966.965 L103.492 963.122 L107.705 963.122 Q111.154 963.122 112.983 961.757 Q114.811 960.368 114.811 957.775 Q114.811 955.113 112.913 953.701 Q111.038 952.266 107.52 952.266 Q105.598 952.266 103.399 952.683 Q101.2 953.099 98.5613 953.979 L98.5613 949.812 Q101.223 949.072 103.538 948.701 Q105.876 948.331 107.936 948.331 Q113.26 948.331 116.362 950.761 Q119.464 953.169 119.464 957.289 Q119.464 960.16 117.82 962.15 Q116.177 964.118 113.145 964.882 Z" fill="#000000" fill-rule="nonzero" fill-opacity="1" /><path clip-path="url(#clip050)" d="M62.9365 682.716 Q59.3254 682.716 57.4967 686.281 Q55.6912 689.823 55.6912 696.953 Q55.6912 704.059 57.4967 707.624 Q59.3254 711.165 62.9365 711.165 Q66.5707 711.165 68.3763 707.624 Q70.205 704.059 70.205 696.953 Q70.205 689.823 68.3763 686.281 Q66.5707 682.716 62.9365 682.716 M62.9365 679.013 Q68.7467 679.013 71.8022 683.619 Q74.8809 688.203 74.8809 696.953 Q74.8809 705.679 71.8022 710.286 Q68.7467 714.869 62.9365 714.869 Q57.1264 714.869 54.0477 710.286 Q50.9921 705.679 50.9921 696.953 Q50.9921 688.203 54.0477 683.619 Q57.1264 679.013 62.9365 679.013 Z" fill="#000000" fill-rule="nonzero" fill-opacity="1" /><path clip-path="url(#clip050)" d="M83.0984 708.318 L87.9827 708.318 L87.9827 714.198 L83.0984 714.198 L83.0984 708.318 Z" fill="#000000" fill-rule="nonzero" fill-opacity="1" /><path clip-path="url(#clip050)" d="M108.746 695.054 Q105.598 695.054 103.746 697.207 Q101.918 699.36 101.918 703.11 Q101.918 706.837 103.746 709.013 Q105.598 711.165 108.746 711.165 Q111.895 711.165 113.723 709.013 Q115.575 706.837 115.575 703.11 Q115.575 699.36 113.723 697.207 Q111.895 695.054 108.746 695.054 M118.029 680.402 L118.029 684.661 Q116.27 683.828 114.464 683.388 Q112.682 682.948 110.922 682.948 Q106.293 682.948 103.839 686.073 Q101.409 689.198 101.061 695.517 Q102.427 693.503 104.487 692.439 Q106.547 691.351 109.024 691.351 Q114.233 691.351 117.242 694.522 Q120.274 697.67 120.274 703.11 Q120.274 708.434 117.126 711.652 Q113.978 714.869 108.746 714.869 Q102.751 714.869 99.5798 710.286 Q96.4085 705.679 96.4085 696.953 Q96.4085 688.758 100.297 683.897 Q104.186 679.013 110.737 679.013 Q112.496 679.013 114.279 679.36 Q116.084 679.707 118.029 680.402 Z" fill="#000000" fill-rule="nonzero" fill-opacity="1" /><path clip-path="url(#clip050)" d="M63.2837 413.398 Q59.6726 413.398 57.8439 416.963 Q56.0384 420.505 56.0384 427.634 Q56.0384 434.741 57.8439 438.306 Q59.6726 441.847 63.2837 441.847 Q66.918 441.847 68.7235 438.306 Q70.5522 434.741 70.5522 427.634 Q70.5522 420.505 68.7235 416.963 Q66.918 413.398 63.2837 413.398 M63.2837 409.695 Q69.0939 409.695 72.1494 414.301 Q75.2281 418.885 75.2281 427.634 Q75.2281 436.361 72.1494 440.968 Q69.0939 445.551 63.2837 445.551 Q57.4736 445.551 54.3949 440.968 Q51.3393 436.361 51.3393 427.634 Q51.3393 418.885 54.3949 414.301 Q57.4736 409.695 63.2837 409.695 Z" fill="#000000" fill-rule="nonzero" fill-opacity="1" /><path clip-path="url(#clip050)" d="M83.4457 439 L88.3299 439 L88.3299 444.88 L83.4457 444.88 L83.4457 439 Z" fill="#000000" fill-rule="nonzero" fill-opacity="1" /><path clip-path="url(#clip050)" d="M98.6539 444.162 L98.6539 439.903 Q100.413 440.736 102.219 441.176 Q104.024 441.616 105.76 441.616 Q110.39 441.616 112.82 438.514 Q115.274 435.389 115.621 429.046 Q114.279 431.037 112.219 432.102 Q110.158 433.167 107.658 433.167 Q102.473 433.167 99.4409 430.042 Q96.4317 426.894 96.4317 421.454 Q96.4317 416.13 99.5798 412.912 Q102.728 409.695 107.959 409.695 Q113.955 409.695 117.103 414.301 Q120.274 418.885 120.274 427.634 Q120.274 435.806 116.385 440.69 Q112.52 445.551 105.969 445.551 Q104.209 445.551 102.404 445.204 Q100.598 444.857 98.6539 444.162 M107.959 429.509 Q111.108 429.509 112.936 427.357 Q114.788 425.204 114.788 421.454 Q114.788 417.727 112.936 415.574 Q111.108 413.398 107.959 413.398 Q104.811 413.398 102.959 415.574 Q101.131 417.727 101.131 421.454 Q101.131 425.204 102.959 427.357 Q104.811 429.509 107.959 429.509 Z" fill="#000000" fill-rule="nonzero" fill-opacity="1" /><path clip-path="url(#clip050)" d="M55.506 171.627 L63.1448 171.627 L63.1448 145.261 L54.8347 146.928 L54.8347 142.668 L63.0985 141.002 L67.7744 141.002 L67.7744 171.627 L75.4133 171.627 L75.4133 175.562 L55.506 175.562 L55.506 171.627 Z" fill="#000000" fill-rule="nonzero" fill-opacity="1" /><path clip-path="url(#clip050)" d="M84.8577 169.682 L89.7419 169.682 L89.7419 175.562 L84.8577 175.562 L84.8577 169.682 Z" fill="#000000" fill-rule="nonzero" fill-opacity="1" /><path clip-path="url(#clip050)" d="M103.955 171.627 L120.274 171.627 L120.274 175.562 L98.3298 175.562 L98.3298 171.627 Q100.992 168.872 105.575 164.242 Q110.182 159.59 111.362 158.247 Q113.608 155.724 114.487 153.988 Q115.39 152.228 115.39 150.539 Q115.39 147.784 113.445 146.048 Q111.524 144.312 108.422 144.312 Q106.223 144.312 103.77 145.076 Q101.339 145.84 98.5613 147.391 L98.5613 142.668 Q101.385 141.534 103.839 140.955 Q106.293 140.377 108.33 140.377 Q113.7 140.377 116.895 143.062 Q120.089 145.747 120.089 150.238 Q120.089 152.367 119.279 154.289 Q118.492 156.187 116.385 158.779 Q115.807 159.451 112.705 162.668 Q109.603 165.863 103.955 171.627 Z" fill="#000000" fill-rule="nonzero" fill-opacity="1" /><polyline clip-path="url(#clip052)" style="stroke:#009af9; stroke-linecap:round; stroke-linejoin:round; stroke-width:16; stroke-opacity:1; fill:none" stroke-dasharray="8, 16" points="218.439,1100.83 228.852,1085.87 239.264,1073.14 249.677,1062.76 260.09,1056.11 270.503,1055.66 280.916,1063.49 291.329,1079.55 301.741,1101.27 312.154,1125.64 322.567,1151.61 332.98,1180.38 343.393,1213.13 353.805,1248.72 364.218,1283.73 374.631,1314.42 385.044,1338.98 395.457,1358.38 405.87,1375.28 416.282,1391.69 426.695,1407.09 437.108,1418.36 447.521,1421.66 457.934,1414.75 468.347,1398.19 478.759,1374.96 489.172,1348.79 499.585,1322.47 509.998,1296.76 520.411,1270.57 530.824,1242.14 541.236,1210.53 551.649,1176.61 562.062,1142.96 572.475,1112.96 582.888,1089.47 593.301,1073.84 603.713,1065.46 614.126,1062.25 624.539,1062.02 634.952,1064.09 645.365,1069.88 655.777,1081.9 666.19,1101.81 676.603,1129.07 687.016,1161.07 697.429,1194.59 707.842,1227.08 718.254,1257.43 728.667,1285.82 739.08,1313.12 749.493,1339.89 759.906,1365.59 770.319,1388.37 780.731,1405.75 791.144,1415.78 801.557,1417.81 811.97,1412.62 822.383,1401.86 832.796,1387.14 843.208,1369.32 853.621,1348.3 864.034,1323.52 874.447,1294.72 884.86,1262.63 895.273,1228.86 905.685,1195.35 916.098,1163.66 926.511,1134.81 936.924,1109.52 947.337,1088.44 957.749,1072.34 968.162,1061.93 978.575,1057.62 988.988,1059.35 999.401,1066.59 1009.81,1078.58 1020.23,1094.55 1030.64,1113.99 1041.05,1136.69 1051.46,1162.71 1061.88,1192.12 1072.29,1224.73 1082.7,1259.8 1093.12,1295.84 1103.53,1330.6 1113.94,1361.33 1124.35,1385.2 1134.77,1400.02 1145.18,1404.95 1155.59,1401.21 1166.01,1392.73 1176.42,1386.3 1186.83,1390.4 1197.24,1410.53 1207.66,1439.46 1218.07,1445.72 1228.48,1374.68 1238.9,1181.99 1249.31,888.808 1259.72,592.118 1270.13,390.963 1280.55,310.937 1290.96,310.881 1301.37,336.298 1311.79,353.885 1322.2,354.605 1332.61,343.042 1343.02,327.476 1353.44,314.844 1363.85,309.258 1374.26,312.031 1384.68,322.134 1395.09,336.801 1405.5,352.287 1415.91,364.742 1426.33,371.041 1436.74,369.433 1447.15,359.889 1457.57,344.139 1467.98,325.404 1478.39,307.868 1488.8,295.927 1499.22,293.246 1509.63,301.783 1520.04,320.979 1530.45,347.42 1540.87,375.173 1551.28,396.852 1561.69,405.258 1572.11,395.35 1582.52,366.296 1592.93,323.182 1603.34,277.447 1613.76,244.751 1624.17,239.493 1634.58,267.659 1645,322.231 1655.41,385.03 1665.82,434.43 1676.23,454.166 1686.65,438.544 1697.06,392.905 1707.47,330.792 1717.89,269.673 1728.3,226.372 1738.71,213.026 1749.12,234.254 1759.54,285.925 1769.95,355.618 1780.36,424.844 1790.78,473.167 1801.19,483.937 1811.6,450.342 1822.01,379.415 1832.43,291.608 1842.84,214.873 1853.25,174.739 1863.67,184.5 1874.08,240.422 1884.49,324.254 1894.9,410.897 1905.32,476.7 1915.73,505.066 1926.14,488.86 1936.56,430.954 1946.97,344.119 1957.38,250.022 1967.79,175.679 1978.21,145.969 1988.62,173.688 1999.03,252.558 2009.45,358.583 2019.86,459.434 2030.27,525.835 2040.68,539.386 2051.1,496.034 2061.51,406.756 2071.92,295.645 2082.33,194.204 2092.75,132.136 2103.16,127.938 2113.57,183.443 2123.99,284.056 2134.4,403.146 2144.81,508.145 2155.22,567.416 2165.64,558.732 2176.05,479.23 2186.46,352.314 2196.88,222.962 2207.29,137.743 2217.7,120.873 2228.11,165.438 2238.53,245.061 2248.94,332.446 2259.35,410.388 2269.77,472.902 2280.18,521.554 2290.59,561.303 "/>
<polyline clip-path="url(#clip052)" style="stroke:#e26f46; stroke-linecap:round; stroke-linejoin:round; stroke-width:4; stroke-opacity:1; fill:none" points="218.439,1100.72 228.852,1081.59 239.264,1067.48 249.677,1058.86 260.09,1056.01 270.503,1059.02 280.916,1067.78 291.329,1082.03 301.741,1101.28 312.154,1124.92 322.567,1152.17 332.98,1182.14 343.393,1213.85 353.805,1246.27 364.218,1278.34 374.631,1309.02 385.044,1337.29 395.457,1362.25 405.87,1383.07 416.282,1399.08 426.695,1409.75 437.108,1414.73 447.521,1413.87 457.934,1407.19 468.347,1394.9 478.759,1377.42 489.172,1355.3 499.585,1329.28 509.998,1300.2 520.411,1269 530.824,1236.72 541.236,1204.4 551.649,1173.09 562.062,1143.83 572.475,1117.55 582.888,1095.13 593.301,1077.29 603.713,1064.62 614.126,1057.52 624.539,1056.24 634.952,1060.81 645.365,1071.08 655.777,1086.72 666.19,1107.22 676.603,1131.9 687.016,1159.97 697.429,1190.51 707.842,1222.51 718.254,1254.94 728.667,1286.74 739.08,1316.87 749.493,1344.34 759.906,1368.27 770.319,1387.86 780.731,1402.48 791.144,1411.65 801.557,1415.08 811.97,1412.64 822.383,1404.43 832.796,1390.71 843.208,1371.92 853.621,1348.68 864.034,1321.75 874.447,1292 884.86,1260.42 895.273,1228.02 905.685,1195.87 916.098,1165.01 926.511,1136.46 936.924,1111.13 947.337,1089.88 957.749,1073.37 968.162,1062.16 978.575,1056.61 988.988,1056.89 999.401,1063.01 1009.81,1074.76 1020.23,1091.76 1030.64,1113.45 1041.05,1139.13 1051.46,1167.95 1061.88,1198.98 1072.29,1231.2 1082.7,1263.57 1093.12,1295.02 1103.53,1324.53 1113.94,1351.14 1124.35,1373.97 1134.77,1392.29 1145.18,1405.49 1155.59,1413.14 1166.01,1415 1176.42,1411 1186.83,1401.28 1197.24,1386.15 1207.66,1366.1 1218.07,1341.79 1228.48,1314.02 1238.9,1283.68 1249.31,1251.77 1259.72,336.523 1270.13,335.04 1280.55,336.39 1290.96,340.885 1301.37,347.148 1311.79,352.532 1322.2,354.126 1332.61,349.983 1343.02,340.108 1353.44,326.796 1363.85,314.128 1374.26,306.727 1384.68,308.147 1395.09,319.438 1405.5,338.43 1415.91,360.044 1426.33,377.645 1436.74,385.069 1447.15,378.714 1457.57,358.995 1467.98,330.631 1478.39,301.563 1488.8,280.73 1499.22,275.333 1509.63,288.416 1520.04,317.564 1530.45,355.207 1540.87,390.569 1551.28,412.746 1561.69,414.059 1572.11,392.634 1582.52,353.367 1592.93,306.885 1603.34,266.678 1613.76,245.185 1624.17,249.964 1634.58,281.125 1645,330.87 1655.41,385.404 1665.82,428.753 1676.23,447.442 1686.65,434.662 1697.06,392.636 1707.47,332.401 1717.89,270.933 1728.3,226.364 1738.71,212.638 1749.12,235.177 1759.54,288.899 1769.95,359.276 1780.36,426.25 1790.78,469.944 1801.19,476.562 1811.6,442.706 1822.01,376.782 1832.43,296.966 1842.84,226.203 1853.25,185.607 1863.67,188.173 1874.08,234.661 1884.49,312.943 1894.9,401.139 1905.32,473.727 1915.73,508.925 1926.14,495.219 1936.56,435.072 1946.97,344.641 1957.38,249.458 1967.79,177.223 1978.21,149.746 1988.62,176.374 1999.03,250.89 2009.45,352.888 2019.86,453.345 2030.27,522.881 2040.68,540.347 2051.1,499.239 2061.51,409.993 2071.92,297.383 2082.33,193.651 2092.75,129.277 2103.16,124.026 2113.57,180.905 2123.99,284.87 2134.4,406.771 2144.81,511.526 2155.22,568.21 2165.64,559.185 2176.05,485.552 2186.46,367.266 2196.88,237.744 2207.29,134.432 2217.7,87.9763 2228.11,113.143 2238.53,204.166 2248.94,335.984 2259.35,471.126 2269.77,570.367 2280.18,604.102 2290.59,561.175 "/>
<path clip-path="url(#clip050)" d="M229.49 250.738 L675.966 250.738 L675.966 95.2176 L229.49 95.2176  Z" fill="#ffffff" fill-rule="evenodd" fill-opacity="1"/>
<polyline clip-path="url(#clip050)" style="stroke:#000000; stroke-linecap:round; stroke-linejoin:round; stroke-width:4; stroke-opacity:1; fill:none" points="229.49,250.738 675.966,250.738 675.966,95.2176 229.49,95.2176 229.49,250.738 "/>
<polyline clip-path="url(#clip050)" style="stroke:#009af9; stroke-linecap:round; stroke-linejoin:round; stroke-width:16; stroke-opacity:1; fill:none" stroke-dasharray="8, 16" points="253.896,147.058 400.328,147.058 "/>
<path clip-path="url(#clip050)" d="M429.409 133.62 L429.409 146.606 L435.289 146.606 Q438.552 146.606 440.335 144.916 Q442.117 143.227 442.117 140.102 Q442.117 137 440.335 135.31 Q438.552 133.62 435.289 133.62 L429.409 133.62 M424.733 129.778 L435.289 129.778 Q441.099 129.778 444.062 132.416 Q447.048 135.032 447.048 140.102 Q447.048 145.217 444.062 147.833 Q441.099 150.449 435.289 150.449 L429.409 150.449 L429.409 164.338 L424.733 164.338 L424.733 129.778 Z" fill="#000000" fill-rule="nonzero" fill-opacity="1" /><path clip-path="url(#clip050)" d="M467.325 142.393 Q466.608 141.977 465.751 141.791 Q464.918 141.583 463.899 141.583 Q460.288 141.583 458.344 143.944 Q456.423 146.282 456.423 150.68 L456.423 164.338 L452.14 164.338 L452.14 138.412 L456.423 138.412 L456.423 142.44 Q457.765 140.078 459.918 138.944 Q462.071 137.787 465.149 137.787 Q465.589 137.787 466.122 137.856 Q466.654 137.903 467.302 138.018 L467.325 142.393 Z" fill="#000000" fill-rule="nonzero" fill-opacity="1" /><path clip-path="url(#clip050)" d="M492.927 150.31 L492.927 152.393 L473.344 152.393 Q473.622 156.791 475.983 159.106 Q478.367 161.398 482.603 161.398 Q485.057 161.398 487.348 160.796 Q489.663 160.194 491.932 158.99 L491.932 163.018 Q489.64 163.99 487.233 164.5 Q484.825 165.009 482.348 165.009 Q476.145 165.009 472.511 161.398 Q468.899 157.787 468.899 151.629 Q468.899 145.264 472.325 141.537 Q475.774 137.787 481.608 137.787 Q486.839 137.787 489.872 141.166 Q492.927 144.523 492.927 150.31 M488.668 149.06 Q488.622 145.565 486.7 143.481 Q484.802 141.398 481.654 141.398 Q478.089 141.398 475.936 143.412 Q473.807 145.426 473.483 149.083 L488.668 149.06 Z" fill="#000000" fill-rule="nonzero" fill-opacity="1" /><path clip-path="url(#clip050)" d="M516.978 142.347 L516.978 128.319 L521.237 128.319 L521.237 164.338 L516.978 164.338 L516.978 160.449 Q515.635 162.763 513.575 163.898 Q511.538 165.009 508.668 165.009 Q503.969 165.009 501.006 161.259 Q498.066 157.509 498.066 151.398 Q498.066 145.287 501.006 141.537 Q503.969 137.787 508.668 137.787 Q511.538 137.787 513.575 138.921 Q515.635 140.032 516.978 142.347 M502.464 151.398 Q502.464 156.097 504.385 158.782 Q506.33 161.444 509.709 161.444 Q513.089 161.444 515.033 158.782 Q516.978 156.097 516.978 151.398 Q516.978 146.699 515.033 144.037 Q513.089 141.352 509.709 141.352 Q506.33 141.352 504.385 144.037 Q502.464 146.699 502.464 151.398 Z" fill="#000000" fill-rule="nonzero" fill-opacity="1" /><path clip-path="url(#clip050)" d="M530.01 138.412 L534.269 138.412 L534.269 164.338 L530.01 164.338 L530.01 138.412 M530.01 128.319 L534.269 128.319 L534.269 133.713 L530.01 133.713 L530.01 128.319 Z" fill="#000000" fill-rule="nonzero" fill-opacity="1" /><path clip-path="url(#clip050)" d="M561.839 139.407 L561.839 143.389 Q560.033 142.393 558.205 141.907 Q556.399 141.398 554.547 141.398 Q550.404 141.398 548.112 144.037 Q545.82 146.652 545.82 151.398 Q545.82 156.143 548.112 158.782 Q550.404 161.398 554.547 161.398 Q556.399 161.398 558.205 160.912 Q560.033 160.402 561.839 159.407 L561.839 163.342 Q560.056 164.176 558.135 164.592 Q556.237 165.009 554.084 165.009 Q548.228 165.009 544.779 161.328 Q541.33 157.648 541.33 151.398 Q541.33 145.055 544.802 141.421 Q548.297 137.787 554.362 137.787 Q556.33 137.787 558.205 138.203 Q560.08 138.597 561.839 139.407 Z" fill="#000000" fill-rule="nonzero" fill-opacity="1" /><path clip-path="url(#clip050)" d="M573.459 131.051 L573.459 138.412 L582.232 138.412 L582.232 141.722 L573.459 141.722 L573.459 155.796 Q573.459 158.967 574.316 159.87 Q575.195 160.773 577.857 160.773 L582.232 160.773 L582.232 164.338 L577.857 164.338 Q572.927 164.338 571.052 162.509 Q569.177 160.657 569.177 155.796 L569.177 141.722 L566.052 141.722 L566.052 138.412 L569.177 138.412 L569.177 131.051 L573.459 131.051 Z" fill="#000000" fill-rule="nonzero" fill-opacity="1" /><path clip-path="url(#clip050)" d="M587.834 138.412 L592.093 138.412 L592.093 164.338 L587.834 164.338 L587.834 138.412 M587.834 128.319 L592.093 128.319 L592.093 133.713 L587.834 133.713 L587.834 128.319 Z" fill="#000000" fill-rule="nonzero" fill-opacity="1" /><path clip-path="url(#clip050)" d="M611.051 141.398 Q607.626 141.398 605.635 144.083 Q603.644 146.745 603.644 151.398 Q603.644 156.051 605.612 158.736 Q607.602 161.398 611.051 161.398 Q614.454 161.398 616.445 158.713 Q618.436 156.027 618.436 151.398 Q618.436 146.791 616.445 144.106 Q614.454 141.398 611.051 141.398 M611.051 137.787 Q616.607 137.787 619.778 141.398 Q622.95 145.009 622.95 151.398 Q622.95 157.764 619.778 161.398 Q616.607 165.009 611.051 165.009 Q605.473 165.009 602.302 161.398 Q599.153 157.764 599.153 151.398 Q599.153 145.009 602.302 141.398 Q605.473 137.787 611.051 137.787 Z" fill="#000000" fill-rule="nonzero" fill-opacity="1" /><path clip-path="url(#clip050)" d="M651.561 148.689 L651.561 164.338 L647.301 164.338 L647.301 148.828 Q647.301 145.148 645.866 143.319 Q644.431 141.49 641.561 141.49 Q638.112 141.49 636.121 143.69 Q634.13 145.889 634.13 149.685 L634.13 164.338 L629.848 164.338 L629.848 138.412 L634.13 138.412 L634.13 142.44 Q635.658 140.102 637.718 138.944 Q639.801 137.787 642.51 137.787 Q646.977 137.787 649.269 140.565 Q651.561 143.319 651.561 148.689 Z" fill="#000000" fill-rule="nonzero" fill-opacity="1" /><polyline clip-path="url(#clip050)" style="stroke:#e26f46; stroke-linecap:round; stroke-linejoin:round; stroke-width:4; stroke-opacity:1; fill:none" points="253.896,198.898 400.328,198.898 "/>
<path clip-path="url(#clip050)" d="M424.733 181.618 L446.585 181.618 L446.585 185.553 L429.409 185.553 L429.409 195.784 L445.867 195.784 L445.867 199.719 L429.409 199.719 L429.409 212.242 L447.001 212.242 L447.001 216.178 L424.733 216.178 L424.733 181.618 Z" fill="#000000" fill-rule="nonzero" fill-opacity="1" /><path clip-path="url(#clip050)" d="M476.052 190.252 L466.677 202.867 L476.538 216.178 L471.515 216.178 L463.969 205.992 L456.423 216.178 L451.4 216.178 L461.469 202.613 L452.256 190.252 L457.279 190.252 L464.154 199.488 L471.029 190.252 L476.052 190.252 Z" fill="#000000" fill-rule="nonzero" fill-opacity="1" /><path clip-path="url(#clip050)" d="M494.339 203.145 Q489.177 203.145 487.186 204.326 Q485.196 205.506 485.196 208.354 Q485.196 210.622 486.677 211.965 Q488.182 213.284 490.751 213.284 Q494.293 213.284 496.422 210.784 Q498.575 208.261 498.575 204.094 L498.575 203.145 L494.339 203.145 M502.834 201.386 L502.834 216.178 L498.575 216.178 L498.575 212.242 Q497.117 214.603 494.941 215.738 Q492.765 216.849 489.617 216.849 Q485.635 216.849 483.274 214.627 Q480.936 212.381 480.936 208.631 Q480.936 204.256 483.853 202.034 Q486.793 199.812 492.603 199.812 L498.575 199.812 L498.575 199.395 Q498.575 196.455 496.631 194.858 Q494.71 193.238 491.214 193.238 Q488.992 193.238 486.885 193.77 Q484.779 194.303 482.835 195.367 L482.835 191.432 Q485.173 190.53 487.372 190.09 Q489.571 189.627 491.654 189.627 Q497.279 189.627 500.057 192.543 Q502.834 195.46 502.834 201.386 Z" fill="#000000" fill-rule="nonzero" fill-opacity="1" /><path clip-path="url(#clip050)" d="M530.265 191.247 L530.265 195.229 Q528.459 194.233 526.631 193.747 Q524.825 193.238 522.973 193.238 Q518.83 193.238 516.538 195.877 Q514.246 198.492 514.246 203.238 Q514.246 207.983 516.538 210.622 Q518.83 213.238 522.973 213.238 Q524.825 213.238 526.631 212.752 Q528.459 212.242 530.265 211.247 L530.265 215.182 Q528.482 216.016 526.561 216.432 Q524.663 216.849 522.51 216.849 Q516.654 216.849 513.205 213.168 Q509.756 209.488 509.756 203.238 Q509.756 196.895 513.228 193.261 Q516.723 189.627 522.788 189.627 Q524.756 189.627 526.631 190.043 Q528.506 190.437 530.265 191.247 Z" fill="#000000" fill-rule="nonzero" fill-opacity="1" /><path clip-path="url(#clip050)" d="M541.885 182.891 L541.885 190.252 L550.658 190.252 L550.658 193.562 L541.885 193.562 L541.885 207.636 Q541.885 210.807 542.742 211.71 Q543.621 212.613 546.283 212.613 L550.658 212.613 L550.658 216.178 L546.283 216.178 Q541.353 216.178 539.478 214.349 Q537.603 212.497 537.603 207.636 L537.603 193.562 L534.478 193.562 L534.478 190.252 L537.603 190.252 L537.603 182.891 L541.885 182.891 Z" fill="#000000" fill-rule="nonzero" fill-opacity="1" /></svg>
