<?xml version="1.0" encoding="utf-8"?>
<svg xmlns="http://www.w3.org/2000/svg" xmlns:xlink="http://www.w3.org/1999/xlink" width="600" height="400" viewBox="0 0 2400 1600">
<defs>
  <clipPath id="clip390">
    <rect x="0" y="0" width="2400" height="1600"/>
  </clipPath>
</defs>
<path clip-path="url(#clip390)" d="M0 1600 L2400 1600 L2400 0 L0 0  Z" fill="#ffffff" fill-rule="evenodd" fill-opacity="1"/>
<defs>
  <clipPath id="clip391">
    <rect x="480" y="0" width="1681" height="1600"/>
  </clipPath>
</defs>
<path clip-path="url(#clip390)" d="M156.274 1486.45 L2352.76 1486.45 L2352.76 47.2441 L156.274 47.2441  Z" fill="#ffffff" fill-rule="evenodd" fill-opacity="1"/>
<defs>
  <clipPath id="clip392">
    <rect x="156" y="47" width="2197" height="1440"/>
  </clipPath>
</defs>
<polyline clip-path="url(#clip392)" style="stroke:#000000; stroke-linecap:round; stroke-linejoin:round; stroke-width:2; stroke-opacity:0.1; fill:none" points="218.439,1486.45 218.439,47.2441 "/>
<polyline clip-path="url(#clip392)" style="stroke:#000000; stroke-linecap:round; stroke-linejoin:round; stroke-width:2; stroke-opacity:0.1; fill:none" points="736.477,1486.45 736.477,47.2441 "/>
<polyline clip-path="url(#clip392)" style="stroke:#000000; stroke-linecap:round; stroke-linejoin:round; stroke-width:2; stroke-opacity:0.1; fill:none" points="1254.52,1486.45 1254.52,47.2441 "/>
<polyline clip-path="url(#clip392)" style="stroke:#000000; stroke-linecap:round; stroke-linejoin:round; stroke-width:2; stroke-opacity:0.1; fill:none" points="1772.55,1486.45 1772.55,47.2441 "/>
<polyline clip-path="url(#clip392)" style="stroke:#000000; stroke-linecap:round; stroke-linejoin:round; stroke-width:2; stroke-opacity:0.1; fill:none" points="2290.59,1486.45 2290.59,47.2441 "/>
<polyline clip-path="url(#clip390)" style="stroke:#000000; stroke-linecap:round; stroke-linejoin:round; stroke-width:4; stroke-opacity:1; fill:none" points="156.274,1486.45 2352.76,1486.45 "/>
<polyline clip-path="url(#clip390)" style="stroke:#000000; stroke-linecap:round; stroke-linejoin:round; stroke-width:4; stroke-opacity:1; fill:none" points="218.439,1486.45 218.439,1467.55 "/>
<polyline clip-path="url(#clip390)" style="stroke:#000000; stroke-linecap:round; stroke-linejoin:round; stroke-width:4; stroke-opacity:1; fill:none" points="736.477,1486.45 736.477,1467.55 "/>
<polyline clip-path="url(#clip390)" style="stroke:#000000; stroke-linecap:round; stroke-linejoin:round; stroke-width:4; stroke-opacity:1; fill:none" points="1254.52,1486.45 1254.52,1467.55 "/>
<polyline clip-path="url(#clip390)" style="stroke:#000000; stroke-linecap:round; stroke-linejoin:round; stroke-width:4; stroke-opacity:1; fill:none" points="1772.55,1486.45 1772.55,1467.55 "/>
<polyline clip-path="url(#clip390)" style="stroke:#000000; stroke-linecap:round; stroke-linejoin:round; stroke-width:4; stroke-opacity:1; fill:none" points="2290.59,1486.45 2290.59,1467.55 "/>
<path clip-path="url(#clip390)" d="M164.967 1532.02 L194.643 1532.02 L194.643 1535.95 L164.967 1535.95 L164.967 1532.02 Z" fill="#000000" fill-rule="nonzero" fill-opacity="1" /><path clip-path="url(#clip390)" d="M205.545 1544.91 L213.184 1544.91 L213.184 1518.55 L204.874 1520.21 L204.874 1515.95 L213.138 1514.29 L217.814 1514.29 L217.814 1544.91 L225.453 1544.91 L225.453 1548.85 L205.545 1548.85 L205.545 1544.91 Z" fill="#000000" fill-rule="nonzero" fill-opacity="1" /><path clip-path="url(#clip390)" d="M234.897 1542.97 L239.781 1542.97 L239.781 1548.85 L234.897 1548.85 L234.897 1542.97 Z" fill="#000000" fill-rule="nonzero" fill-opacity="1" /><path clip-path="url(#clip390)" d="M259.966 1517.37 Q256.355 1517.37 254.527 1520.93 Q252.721 1524.47 252.721 1531.6 Q252.721 1538.71 254.527 1542.27 Q256.355 1545.82 259.966 1545.82 Q263.601 1545.82 265.406 1542.27 Q267.235 1538.71 267.235 1531.6 Q267.235 1524.47 265.406 1520.93 Q263.601 1517.37 259.966 1517.37 M259.966 1513.66 Q265.776 1513.66 268.832 1518.27 Q271.911 1522.85 271.911 1531.6 Q271.911 1540.33 268.832 1544.94 Q265.776 1549.52 259.966 1549.52 Q254.156 1549.52 251.077 1544.94 Q248.022 1540.33 248.022 1531.6 Q248.022 1522.85 251.077 1518.27 Q254.156 1513.66 259.966 1513.66 Z" fill="#000000" fill-rule="nonzero" fill-opacity="1" /><path clip-path="url(#clip390)" d="M683.503 1532.02 L713.178 1532.02 L713.178 1535.95 L683.503 1535.95 L683.503 1532.02 Z" fill="#000000" fill-rule="nonzero" fill-opacity="1" /><path clip-path="url(#clip390)" d="M733.271 1517.37 Q729.66 1517.37 727.831 1520.93 Q726.026 1524.47 726.026 1531.6 Q726.026 1538.71 727.831 1542.27 Q729.66 1545.82 733.271 1545.82 Q736.905 1545.82 738.711 1542.27 Q740.539 1538.71 740.539 1531.6 Q740.539 1524.47 738.711 1520.93 Q736.905 1517.37 733.271 1517.37 M733.271 1513.66 Q739.081 1513.66 742.137 1518.27 Q745.215 1522.85 745.215 1531.6 Q745.215 1540.33 742.137 1544.94 Q739.081 1549.52 733.271 1549.52 Q727.461 1549.52 724.382 1544.94 Q721.327 1540.33 721.327 1531.6 Q721.327 1522.85 724.382 1518.27 Q727.461 1513.66 733.271 1513.66 Z" fill="#000000" fill-rule="nonzero" fill-opacity="1" /><path clip-path="url(#clip390)" d="M753.433 1542.97 L758.317 1542.97 L758.317 1548.85 L753.433 1548.85 L753.433 1542.97 Z" fill="#000000" fill-rule="nonzero" fill-opacity="1" /><path clip-path="url(#clip390)" d="M768.548 1514.29 L786.905 1514.29 L786.905 1518.22 L772.831 1518.22 L772.831 1526.7 Q773.849 1526.35 774.868 1526.19 Q775.886 1526 776.905 1526 Q782.692 1526 786.072 1529.17 Q789.451 1532.34 789.451 1537.76 Q789.451 1543.34 785.979 1546.44 Q782.507 1549.52 776.187 1549.52 Q774.011 1549.52 771.743 1549.15 Q769.498 1548.78 767.09 1548.04 L767.09 1543.34 Q769.173 1544.47 771.396 1545.03 Q773.618 1545.58 776.095 1545.58 Q780.099 1545.58 782.437 1543.48 Q784.775 1541.37 784.775 1537.76 Q784.775 1534.15 782.437 1532.04 Q780.099 1529.94 776.095 1529.94 Q774.22 1529.94 772.345 1530.35 Q770.493 1530.77 768.548 1531.65 L768.548 1514.29 Z" fill="#000000" fill-rule="nonzero" fill-opacity="1" /><path clip-path="url(#clip390)" d="M1231.9 1517.37 Q1228.29 1517.37 1226.46 1520.93 Q1224.65 1524.47 1224.65 1531.6 Q1224.65 1538.71 1226.46 1542.27 Q1228.29 1545.82 1231.9 1545.82 Q1235.53 1545.82 1237.34 1542.27 Q1239.17 1538.71 1239.17 1531.6 Q1239.17 1524.47 1237.34 1520.93 Q1235.53 1517.37 1231.9 1517.37 M1231.9 1513.66 Q1237.71 1513.66 1240.77 1518.27 Q1243.84 1522.85 1243.84 1531.6 Q1243.84 1540.33 1240.77 1544.94 Q1237.71 1549.52 1231.9 1549.52 Q1226.09 1549.52 1223.01 1544.94 Q1219.96 1540.33 1219.96 1531.6 Q1219.96 1522.85 1223.01 1518.27 Q1226.09 1513.66 1231.9 1513.66 Z" fill="#000000" fill-rule="nonzero" fill-opacity="1" /><path clip-path="url(#clip390)" d="M1252.06 1542.97 L1256.95 1542.97 L1256.95 1548.85 L1252.06 1548.85 L1252.06 1542.97 Z" fill="#000000" fill-rule="nonzero" fill-opacity="1" /><path clip-path="url(#clip390)" d="M1277.13 1517.37 Q1273.52 1517.37 1271.69 1520.93 Q1269.89 1524.47 1269.89 1531.6 Q1269.89 1538.71 1271.69 1542.27 Q1273.52 1545.82 1277.13 1545.82 Q1280.76 1545.82 1282.57 1542.27 Q1284.4 1538.71 1284.4 1531.6 Q1284.4 1524.47 1282.57 1520.93 Q1280.76 1517.37 1277.13 1517.37 M1277.13 1513.66 Q1282.94 1513.66 1286 1518.27 Q1289.08 1522.85 1289.08 1531.6 Q1289.08 1540.33 1286 1544.94 Q1282.94 1549.52 1277.13 1549.52 Q1271.32 1549.52 1268.24 1544.94 Q1265.19 1540.33 1265.19 1531.6 Q1265.19 1522.85 1268.24 1518.27 Q1271.32 1513.66 1277.13 1513.66 Z" fill="#000000" fill-rule="nonzero" fill-opacity="1" /><path clip-path="url(#clip390)" d="M1750.44 1517.37 Q1746.82 1517.37 1745 1520.93 Q1743.19 1524.47 1743.19 1531.6 Q1743.19 1538.71 1745 1542.27 Q1746.82 1545.82 1750.44 1545.82 Q1754.07 1545.82 1755.88 1542.27 Q1757.7 1538.71 1757.7 1531.6 Q1757.7 1524.47 1755.88 1520.93 Q1754.07 1517.37 1750.44 1517.37 M1750.44 1513.66 Q1756.25 1513.66 1759.3 1518.27 Q1762.38 1522.85 1762.38 1531.6 Q1762.38 1540.33 1759.3 1544.94 Q1756.25 1549.52 1750.44 1549.52 Q1744.63 1549.52 1741.55 1544.94 Q1738.49 1540.33 1738.49 1531.6 Q1738.49 1522.85 1741.55 1518.27 Q1744.63 1513.66 1750.44 1513.66 Z" fill="#000000" fill-rule="nonzero" fill-opacity="1" /><path clip-path="url(#clip390)" d="M1770.6 1542.97 L1775.48 1542.97 L1775.48 1548.85 L1770.6 1548.85 L1770.6 1542.97 Z" fill="#000000" fill-rule="nonzero" fill-opacity="1" /><path clip-path="url(#clip390)" d="M1785.71 1514.29 L1804.07 1514.29 L1804.07 1518.22 L1790 1518.22 L1790 1526.7 Q1791.01 1526.35 1792.03 1526.19 Q1793.05 1526 1794.07 1526 Q1799.86 1526 1803.24 1529.17 Q1806.62 1532.34 1806.62 1537.76 Q1806.62 1543.34 1803.14 1546.44 Q1799.67 1549.52 1793.35 1549.52 Q1791.18 1549.52 1788.91 1549.15 Q1786.66 1548.78 1784.25 1548.04 L1784.25 1543.34 Q1786.34 1544.47 1788.56 1545.03 Q1790.78 1545.58 1793.26 1545.58 Q1797.26 1545.58 1799.6 1543.48 Q1801.94 1541.37 1801.94 1537.76 Q1801.94 1534.15 1799.6 1532.04 Q1797.26 1529.94 1793.26 1529.94 Q1791.38 1529.94 1789.51 1530.35 Q1787.66 1530.77 1785.71 1531.65 L1785.71 1514.29 Z" fill="#000000" fill-rule="nonzero" fill-opacity="1" /><path clip-path="url(#clip390)" d="M2257.74 1544.91 L2265.38 1544.91 L2265.38 1518.55 L2257.07 1520.21 L2257.07 1515.95 L2265.34 1514.29 L2270.01 1514.29 L2270.01 1544.91 L2277.65 1544.91 L2277.65 1548.85 L2257.74 1548.85 L2257.74 1544.91 Z" fill="#000000" fill-rule="nonzero" fill-opacity="1" /><path clip-path="url(#clip390)" d="M2287.1 1542.97 L2291.98 1542.97 L2291.98 1548.85 L2287.1 1548.85 L2287.1 1542.97 Z" fill="#000000" fill-rule="nonzero" fill-opacity="1" /><path clip-path="url(#clip390)" d="M2312.17 1517.37 Q2308.55 1517.37 2306.73 1520.93 Q2304.92 1524.47 2304.92 1531.6 Q2304.92 1538.71 2306.73 1542.27 Q2308.55 1545.82 2312.17 1545.82 Q2315.8 1545.82 2317.61 1542.27 Q2319.43 1538.71 2319.43 1531.6 Q2319.43 1524.47 2317.61 1520.93 Q2315.8 1517.37 2312.17 1517.37 M2312.17 1513.66 Q2317.98 1513.66 2321.03 1518.27 Q2324.11 1522.85 2324.11 1531.6 Q2324.11 1540.33 2321.03 1544.94 Q2317.98 1549.52 2312.17 1549.52 Q2306.36 1549.52 2303.28 1544.94 Q2300.22 1540.33 2300.22 1531.6 Q2300.22 1522.85 2303.28 1518.27 Q2306.36 1513.66 2312.17 1513.66 Z" fill="#000000" fill-rule="nonzero" fill-opacity="1" /><polyline clip-path="url(#clip392)" style="stroke:#000000; stroke-linecap:round; stroke-linejoin:round; stroke-width:2; stroke-opacity:0.1; fill:none" points="156.274,1254.38 2352.76,1254.38 "/>
<polyline clip-path="url(#clip392)" style="stroke:#000000; stroke-linecap:round; stroke-linejoin:round; stroke-width:2; stroke-opacity:0.1; fill:none" points="156.274,980.647 2352.76,980.647 "/>
<polyline clip-path="url(#clip392)" style="stroke:#000000; stroke-linecap:round; stroke-linejoin:round; stroke-width:2; stroke-opacity:0.1; fill:none" points="156.274,706.91 2352.76,706.91 "/>
<polyline clip-path="url(#clip392)" style="stroke:#000000; stroke-linecap:round; stroke-linejoin:round; stroke-width:2; stroke-opacity:0.1; fill:none" points="156.274,433.172 2352.76,433.172 "/>
<polyline clip-path="url(#clip392)" style="stroke:#000000; stroke-linecap:round; stroke-linejoin:round; stroke-width:2; stroke-opacity:0.1; fill:none" points="156.274,159.435 2352.76,159.435 "/>
<polyline clip-path="url(#clip390)" style="stroke:#000000; stroke-linecap:round; stroke-linejoin:round; stroke-width:4; stroke-opacity:1; fill:none" points="156.274,1486.45 156.274,47.2441 "/>
<polyline clip-path="url(#clip390)" style="stroke:#000000; stroke-linecap:round; stroke-linejoin:round; stroke-width:4; stroke-opacity:1; fill:none" points="156.274,1254.38 175.172,1254.38 "/>
<polyline clip-path="url(#clip390)" style="stroke:#000000; stroke-linecap:round; stroke-linejoin:round; stroke-width:4; stroke-opacity:1; fill:none" points="156.274,980.647 175.172,980.647 "/>
<polyline clip-path="url(#clip390)" style="stroke:#000000; stroke-linecap:round; stroke-linejoin:round; stroke-width:4; stroke-opacity:1; fill:none" points="156.274,706.91 175.172,706.91 "/>
<polyline clip-path="url(#clip390)" style="stroke:#000000; stroke-linecap:round; stroke-linejoin:round; stroke-width:4; stroke-opacity:1; fill:none" points="156.274,433.172 175.172,433.172 "/>
<polyline clip-path="url(#clip390)" style="stroke:#000000; stroke-linecap:round; stroke-linejoin:round; stroke-width:4; stroke-opacity:1; fill:none" points="156.274,159.435 175.172,159.435 "/>
<path clip-path="url(#clip390)" d="M63.0985 1240.18 Q59.4875 1240.18 57.6588 1243.75 Q55.8532 1247.29 55.8532 1254.42 Q55.8532 1261.53 57.6588 1265.09 Q59.4875 1268.63 63.0985 1268.63 Q66.7328 1268.63 68.5383 1265.09 Q70.367 1261.53 70.367 1254.42 Q70.367 1247.29 68.5383 1243.75 Q66.7328 1240.18 63.0985 1240.18 M63.0985 1236.48 Q68.9087 1236.48 71.9642 1241.09 Q75.0429 1245.67 75.0429 1254.42 Q75.0429 1263.15 71.9642 1267.75 Q68.9087 1272.34 63.0985 1272.34 Q57.2884 1272.34 54.2097 1267.75 Q51.1542 1263.15 51.1542 1254.42 Q51.1542 1245.67 54.2097 1241.09 Q57.2884 1236.48 63.0985 1236.48 Z" fill="#000000" fill-rule="nonzero" fill-opacity="1" /><path clip-path="url(#clip390)" d="M83.2605 1265.78 L88.1447 1265.78 L88.1447 1271.66 L83.2605 1271.66 L83.2605 1265.78 Z" fill="#000000" fill-rule="nonzero" fill-opacity="1" /><path clip-path="url(#clip390)" d="M108.33 1240.18 Q104.719 1240.18 102.89 1243.75 Q101.084 1247.29 101.084 1254.42 Q101.084 1261.53 102.89 1265.09 Q104.719 1268.63 108.33 1268.63 Q111.964 1268.63 113.77 1265.09 Q115.598 1261.53 115.598 1254.42 Q115.598 1247.29 113.77 1243.75 Q111.964 1240.18 108.33 1240.18 M108.33 1236.48 Q114.14 1236.48 117.195 1241.09 Q120.274 1245.67 120.274 1254.42 Q120.274 1263.15 117.195 1267.75 Q114.14 1272.34 108.33 1272.34 Q102.52 1272.34 99.4409 1267.75 Q96.3854 1263.15 96.3854 1254.42 Q96.3854 1245.67 99.4409 1241.09 Q102.52 1236.48 108.33 1236.48 Z" fill="#000000" fill-rule="nonzero" fill-opacity="1" /><path clip-path="url(#clip390)" d="M63.7467 966.445 Q60.1356 966.445 58.3069 970.01 Q56.5014 973.552 56.5014 980.681 Q56.5014 987.788 58.3069 991.353 Q60.1356 994.894 63.7467 994.894 Q67.3809 994.894 69.1865 991.353 Q71.0152 987.788 71.0152 980.681 Q71.0152 973.552 69.1865 970.01 Q67.3809 966.445 63.7467 966.445 M63.7467 962.742 Q69.5568 962.742 72.6124 967.348 Q75.6911 971.932 75.6911 980.681 Q75.6911 989.408 72.6124 994.015 Q69.5568 998.598 63.7467 998.598 Q57.9365 998.598 54.8578 994.015 Q51.8023 989.408 51.8023 980.681 Q51.8023 971.932 54.8578 967.348 Q57.9365 962.742 63.7467 962.742 Z" fill="#000000" fill-rule="nonzero" fill-opacity="1" /><path clip-path="url(#clip390)" d="M83.9086 992.047 L88.7928 992.047 L88.7928 997.927 L83.9086 997.927 L83.9086 992.047 Z" fill="#000000" fill-rule="nonzero" fill-opacity="1" /><path clip-path="url(#clip390)" d="M113.145 979.293 Q116.501 980.01 118.376 982.279 Q120.274 984.547 120.274 987.881 Q120.274 992.996 116.756 995.797 Q113.237 998.598 106.756 998.598 Q104.58 998.598 102.265 998.158 Q99.9733 997.742 97.5197 996.885 L97.5197 992.371 Q99.4641 993.505 101.779 994.084 Q104.094 994.663 106.617 994.663 Q111.015 994.663 113.307 992.927 Q115.621 991.191 115.621 987.881 Q115.621 984.825 113.469 983.112 Q111.339 981.376 107.52 981.376 L103.492 981.376 L103.492 977.533 L107.705 977.533 Q111.154 977.533 112.983 976.168 Q114.811 974.779 114.811 972.186 Q114.811 969.524 112.913 968.112 Q111.038 966.677 107.52 966.677 Q105.598 966.677 103.399 967.094 Q101.2 967.51 98.5613 968.39 L98.5613 964.223 Q101.223 963.482 103.538 963.112 Q105.876 962.742 107.936 962.742 Q113.26 962.742 116.362 965.172 Q119.464 967.58 119.464 971.7 Q119.464 974.57 117.82 976.561 Q116.177 978.529 113.145 979.293 Z" fill="#000000" fill-rule="nonzero" fill-opacity="1" /><path clip-path="url(#clip390)" d="M62.9365 692.708 Q59.3254 692.708 57.4967 696.273 Q55.6912 699.815 55.6912 706.944 Q55.6912 714.051 57.4967 717.616 Q59.3254 721.157 62.9365 721.157 Q66.5707 721.157 68.3763 717.616 Q70.205 714.051 70.205 706.944 Q70.205 699.815 68.3763 696.273 Q66.5707 692.708 62.9365 692.708 M62.9365 689.005 Q68.7467 689.005 71.8022 693.611 Q74.8809 698.194 74.8809 706.944 Q74.8809 715.671 71.8022 720.278 Q68.7467 724.861 62.9365 724.861 Q57.1264 724.861 54.0477 720.278 Q50.9921 715.671 50.9921 706.944 Q50.9921 698.194 54.0477 693.611 Q57.1264 689.005 62.9365 689.005 Z" fill="#000000" fill-rule="nonzero" fill-opacity="1" /><path clip-path="url(#clip390)" d="M83.0984 718.31 L87.9827 718.31 L87.9827 724.19 L83.0984 724.19 L83.0984 718.31 Z" fill="#000000" fill-rule="nonzero" fill-opacity="1" /><path clip-path="url(#clip390)" d="M108.746 705.046 Q105.598 705.046 103.746 707.199 Q101.918 709.352 101.918 713.102 Q101.918 716.829 103.746 719.004 Q105.598 721.157 108.746 721.157 Q111.895 721.157 113.723 719.004 Q115.575 716.829 115.575 713.102 Q115.575 709.352 113.723 707.199 Q111.895 705.046 108.746 705.046 M118.029 690.393 L118.029 694.653 Q116.27 693.819 114.464 693.38 Q112.682 692.94 110.922 692.94 Q106.293 692.94 103.839 696.065 Q101.409 699.19 101.061 705.509 Q102.427 703.495 104.487 702.43 Q106.547 701.343 109.024 701.343 Q114.233 701.343 117.242 704.514 Q120.274 707.662 120.274 713.102 Q120.274 718.426 117.126 721.643 Q113.978 724.861 108.746 724.861 Q102.751 724.861 99.5798 720.278 Q96.4085 715.671 96.4085 706.944 Q96.4085 698.75 100.297 693.889 Q104.186 689.005 110.737 689.005 Q112.496 689.005 114.279 689.352 Q116.084 689.699 118.029 690.393 Z" fill="#000000" fill-rule="nonzero" fill-opacity="1" /><path clip-path="url(#clip390)" d="M63.2837 418.971 Q59.6726 418.971 57.8439 422.536 Q56.0384 426.078 56.0384 433.207 Q56.0384 440.314 57.8439 443.878 Q59.6726 447.42 63.2837 447.42 Q66.918 447.42 68.7235 443.878 Q70.5522 440.314 70.5522 433.207 Q70.5522 426.078 68.7235 422.536 Q66.918 418.971 63.2837 418.971 M63.2837 415.267 Q69.0939 415.267 72.1494 419.874 Q75.2281 424.457 75.2281 433.207 Q75.2281 441.934 72.1494 446.54 Q69.0939 451.124 63.2837 451.124 Q57.4736 451.124 54.3949 446.54 Q51.3393 441.934 51.3393 433.207 Q51.3393 424.457 54.3949 419.874 Q57.4736 415.267 63.2837 415.267 Z" fill="#000000" fill-rule="nonzero" fill-opacity="1" /><path clip-path="url(#clip390)" d="M83.4457 444.573 L88.3299 444.573 L88.3299 450.452 L83.4457 450.452 L83.4457 444.573 Z" fill="#000000" fill-rule="nonzero" fill-opacity="1" /><path clip-path="url(#clip390)" d="M98.6539 449.735 L98.6539 445.476 Q100.413 446.309 102.219 446.749 Q104.024 447.189 105.76 447.189 Q110.39 447.189 112.82 444.087 Q115.274 440.962 115.621 434.619 Q114.279 436.61 112.219 437.675 Q110.158 438.74 107.658 438.74 Q102.473 438.74 99.4409 435.615 Q96.4317 432.466 96.4317 427.027 Q96.4317 421.703 99.5798 418.485 Q102.728 415.267 107.959 415.267 Q113.955 415.267 117.103 419.874 Q120.274 424.457 120.274 433.207 Q120.274 441.378 116.385 446.263 Q112.52 451.124 105.969 451.124 Q104.209 451.124 102.404 450.777 Q100.598 450.429 98.6539 449.735 M107.959 435.082 Q111.108 435.082 112.936 432.929 Q114.788 430.777 114.788 427.027 Q114.788 423.3 112.936 421.147 Q111.108 418.971 107.959 418.971 Q104.811 418.971 102.959 421.147 Q101.131 423.3 101.131 427.027 Q101.131 430.777 102.959 432.929 Q104.811 435.082 107.959 435.082 Z" fill="#000000" fill-rule="nonzero" fill-opacity="1" /><path clip-path="url(#clip390)" d="M55.506 172.78 L63.1448 172.78 L63.1448 146.415 L54.8347 148.081 L54.8347 143.822 L63.0985 142.155 L67.7744 142.155 L67.7744 172.78 L75.4133 172.78 L75.4133 176.715 L55.506 176.715 L55.506 172.78 Z" fill="#000000" fill-rule="nonzero" fill-opacity="1" /><path clip-path="url(#clip390)" d="M84.8577 170.836 L89.7419 170.836 L89.7419 176.715 L84.8577 176.715 L84.8577 170.836 Z" fill="#000000" fill-rule="nonzero" fill-opacity="1" /><path clip-path="url(#clip390)" d="M103.955 172.78 L120.274 172.78 L120.274 176.715 L98.3298 176.715 L98.3298 172.78 Q100.992 170.026 105.575 165.396 Q110.182 160.743 111.362 159.401 Q113.608 156.877 114.487 155.141 Q115.39 153.382 115.39 151.692 Q115.39 148.938 113.445 147.202 Q111.524 145.465 108.422 145.465 Q106.223 145.465 103.77 146.229 Q101.339 146.993 98.5613 148.544 L98.5613 143.822 Q101.385 142.688 103.839 142.109 Q106.293 141.53 108.33 141.53 Q113.7 141.53 116.895 144.215 Q120.089 146.901 120.089 151.391 Q120.089 153.521 119.279 155.442 Q118.492 157.34 116.385 159.933 Q115.807 160.604 112.705 163.822 Q109.603 167.016 103.955 172.78 Z" fill="#000000" fill-rule="nonzero" fill-opacity="1" /><polyline clip-path="url(#clip392)" style="stroke:#009af9; stroke-linecap:round; stroke-linejoin:round; stroke-width:16; stroke-opacity:1; fill:none" stroke-dasharray="8, 16" points="218.439,1117.63 228.852,1095.3 239.264,1080.06 249.677,1072.14 260.09,1070.99 270.503,1075.57 280.916,1084.69 291.329,1097.44 301.741,1113.87 312.154,1134.96 322.567,1161.48 332.98,1192.52 343.393,1225.75 353.805,1258.83 364.218,1290.35 374.631,1319.58 385.044,1346.15 395.457,1369.87 405.87,1390.56 416.282,1407.68 426.695,1420.11 437.108,1426.39 447.521,1425.18 457.934,1415.97 468.347,1399.52 478.759,1377.78 489.172,1353.3 499.585,1328.07 509.998,1302.58 520.411,1275.68 530.824,1245.64 541.236,1211.77 551.649,1175.58 562.062,1140.57 572.475,1110.81 582.888,1089.1 593.301,1075.88 603.713,1069.4 614.126,1066.99 624.539,1066.71 634.952,1068.51 645.365,1074.34 655.777,1087.09 666.19,1108.63 676.603,1138.42 687.016,1173.43 697.429,1209.61 707.842,1243.71 718.254,1274.43 728.667,1302.31 739.08,1328.91 749.493,1355.71 759.906,1383.16 770.319,1409.87 780.731,1432.23 791.144,1445.35 801.557,1445.72 811.97,1434.34 822.383,1417.24 832.796,1401.16 843.208,1388.01 853.621,1373.88 864.034,1353.44 874.447,1324.63 884.86,1289.81 895.273,1253.53 905.685,1219.54 916.098,1189.27 926.511,1162.3 936.924,1138 947.337,1116.52 957.749,1098.91 968.162,1086.48 978.575,1080.3 988.988,1080.95 999.401,1088.38 1009.81,1102.02 1020.23,1120.86 1030.64,1143.76 1041.05,1169.61 1051.46,1197.61 1061.88,1227.2 1072.29,1258.05 1082.7,1289.77 1093.12,1321.77 1103.53,1353.04 1113.94,1382.09 1124.35,1407.08 1134.77,1426.1 1145.18,1437.65 1155.59,1441.2 1166.01,1437.75 1176.42,1430.26 1186.83,1423.67 1197.24,1423.47 1207.66,1430.59 1218.07,1430.23 1228.48,1380.14 1238.9,1223.04 1249.31,945.951 1259.72,631.421 1270.13,401.535 1280.55,306.341 1290.96,305.17 1301.37,333.396 1311.79,352.077 1322.2,351.901 1332.61,338.909 1343.02,322.6 1353.44,310.368 1363.85,306.017 1374.26,310.038 1384.68,320.483 1395.09,334.019 1405.5,346.977 1415.91,356.22 1426.33,359.714 1436.74,356.749 1447.15,347.899 1457.57,334.811 1467.98,319.928 1478.39,306.175 1488.8,296.589 1499.22,293.865 1509.63,299.766 1520.04,314.491 1530.45,336.159 1540.87,360.703 1551.28,382.35 1561.69,394.7 1572.11,392.183 1582.52,371.611 1592.93,333.776 1603.34,285.236 1613.76,239.763 1624.17,216.916 1634.58,234.452 1645,296.187 1655.41,384.686 1665.82,466.333 1676.23,505.431 1686.65,481.17 1697.06,401.879 1707.47,303.352 1717.89,226.632 1728.3,195.184 1738.71,209.922 1749.12,257.921 1759.54,322.188 1769.95,386.794 1780.36,438.429 1790.78,466.951 1801.19,466.348 1811.6,436.065 1822.01,381.921 1832.43,315.743 1842.84,253.442 1853.25,211.801 1863.67,204.499 1874.08,237.988 1884.49,308.106 1894.9,398.877 1905.32,485.07 1915.73,538.93 1926.14,539.436 1936.56,480.703 1946.97,376.256 1957.38,257.317 1967.79,164.515 1978.21,133.521 1988.62,178.605 1999.03,283.624 2009.45,409.039 2019.86,511.441 2030.27,561.67 2040.68,551.553 2051.1,490.526 2061.51,398.375 2071.92,298.577 2082.33,213.725 2092.75,162.63 2103.16,157.94 2113.57,203.588 2123.99,292.441 2134.4,405.24 2144.81,512.003 2155.22,577.358 2165.64,571.832 2176.05,488.441 2186.46,354.5 2196.88,222.711 2207.29,141.525 2217.7,129.646 2228.11,175.078 2238.53,251.926 2248.94,336.586 2259.35,414.494 2269.77,479.395 2280.18,530.169 2290.59,568.23 "/>
<polyline clip-path="url(#clip392)" style="stroke:#e26f46; stroke-linecap:round; stroke-linejoin:round; stroke-width:4; stroke-opacity:1; fill:none" points="218.439,1117.34 228.852,1097.89 239.264,1083.55 249.677,1074.79 260.09,1071.89 270.503,1074.95 280.916,1083.86 291.329,1098.34 301.741,1117.91 312.154,1141.93 322.567,1169.63 332.98,1200.09 343.393,1232.32 353.805,1265.28 364.218,1297.87 374.631,1329.05 385.044,1357.79 395.457,1383.16 405.87,1404.32 416.282,1420.59 426.695,1431.44 437.108,1436.5 447.521,1435.63 457.934,1428.83 468.347,1416.35 478.759,1398.58 489.172,1376.1 499.585,1349.65 509.998,1320.09 520.411,1288.38 530.824,1255.57 541.236,1222.72 551.649,1190.9 562.062,1161.15 572.475,1134.45 582.888,1111.66 593.301,1093.53 603.713,1080.64 614.126,1073.43 624.539,1072.13 634.952,1076.77 645.365,1087.21 655.777,1103.11 666.19,1123.94 676.603,1149.03 687.016,1177.56 697.429,1208.6 707.842,1241.13 718.254,1274.09 728.667,1306.41 739.08,1337.03 749.493,1364.96 759.906,1389.27 770.319,1409.19 780.731,1424.05 791.144,1433.37 801.557,1436.85 811.97,1434.38 822.383,1426.03 832.796,1412.08 843.208,1392.99 853.621,1369.37 864.034,1341.99 874.447,1311.76 884.86,1279.66 895.273,1246.73 905.685,1214.05 916.098,1182.68 926.511,1153.66 936.924,1127.92 947.337,1106.31 957.749,1089.54 968.162,1078.14 978.575,1072.5 988.988,1072.79 999.401,1079.01 1009.81,1090.95 1020.23,1108.23 1030.64,1130.28 1041.05,1156.37 1051.46,1185.67 1061.88,1217.21 1072.29,1249.96 1082.7,1282.86 1093.12,1314.82 1103.53,1344.82 1113.94,1371.86 1124.35,1395.07 1134.77,1413.69 1145.18,1427.11 1155.59,1434.89 1166.01,1436.78 1176.42,1432.71 1186.83,1422.83 1197.24,1407.45 1207.66,1387.07 1218.07,1362.36 1228.48,1334.13 1238.9,1303.3 1249.31,1270.87 1259.72,340.602 1270.13,339.094 1280.55,340.466 1290.96,345.035 1301.37,351.4 1311.79,356.873 1322.2,358.493 1332.61,354.283 1343.02,344.246 1353.44,330.714 1363.85,317.839 1374.26,310.317 1384.68,311.76 1395.09,323.236 1405.5,342.54 1415.91,364.508 1426.33,382.398 1436.74,389.944 1447.15,383.485 1457.57,363.442 1467.98,334.613 1478.39,305.068 1488.8,283.893 1499.22,278.407 1509.63,291.705 1520.04,321.331 1530.45,359.592 1540.87,395.534 1551.28,418.075 1561.69,419.41 1572.11,397.633 1582.52,357.721 1592.93,310.477 1603.34,269.61 1613.76,247.765 1624.17,252.622 1634.58,284.294 1645,334.856 1655.41,390.284 1665.82,434.344 1676.23,453.34 1686.65,440.35 1697.06,397.635 1707.47,336.412 1717.89,273.935 1728.3,228.635 1738.71,214.683 1749.12,237.592 1759.54,292.196 1769.95,363.728 1780.36,431.8 1790.78,476.212 1801.19,482.938 1811.6,448.527 1822.01,381.521 1832.43,300.395 1842.84,228.471 1853.25,187.209 1863.67,189.817 1874.08,237.067 1884.49,316.634 1894.9,406.278 1905.32,480.057 1915.73,515.832 1926.14,501.901 1936.56,440.767 1946.97,348.853 1957.38,252.108 1967.79,178.688 1978.21,150.76 1988.62,177.824 1999.03,253.563 2009.45,357.235 2019.86,459.341 2030.27,530.018 2040.68,547.77 2051.1,505.987 2061.51,415.277 2071.92,300.819 2082.33,195.385 2092.75,129.954 2103.16,124.617 2113.57,182.43 2123.99,288.101 2134.4,412.002 2144.81,518.476 2155.22,576.09 2165.64,566.917 2176.05,492.076 2186.46,371.848 2196.88,240.201 2207.29,135.194 2217.7,87.9763 2228.11,113.556 2238.53,206.072 2248.94,340.053 2259.35,477.413 2269.77,578.283 2280.18,612.571 2290.59,568.94 "/>
<path clip-path="url(#clip390)" d="M229.49 250.738 L675.966 250.738 L675.966 95.2176 L229.49 95.2176  Z" fill="#ffffff" fill-rule="evenodd" fill-opacity="1"/>
<polyline clip-path="url(#clip390)" style="stroke:#000000; stroke-linecap:round; stroke-linejoin:round; stroke-width:4; stroke-opacity:1; fill:none" points="229.49,250.738 675.966,250.738 675.966,95.2176 229.49,95.2176 229.49,250.738 "/>
<polyline clip-path="url(#clip390)" style="stroke:#009af9; stroke-linecap:round; stroke-linejoin:round; stroke-width:16; stroke-opacity:1; fill:none" stroke-dasharray="8, 16" points="253.896,147.058 400.328,147.058 "/>
<path clip-path="url(#clip390)" d="M429.409 133.62 L429.409 146.606 L435.289 146.606 Q438.552 146.606 440.335 144.916 Q442.117 143.227 442.117 140.102 Q442.117 137 440.335 135.31 Q438.552 133.62 435.289 133.62 L429.409 133.62 M424.733 129.778 L435.289 129.778 Q441.099 129.778 444.062 132.416 Q447.048 135.032 447.048 140.102 Q447.048 145.217 444.062 147.833 Q441.099 150.449 435.289 150.449 L429.409 150.449 L429.409 164.338 L424.733 164.338 L424.733 129.778 Z" fill="#000000" fill-rule="nonzero" fill-opacity="1" /><path clip-path="url(#clip390)" d="M467.325 142.393 Q466.608 141.977 465.751 141.791 Q464.918 141.583 463.899 141.583 Q460.288 141.583 458.344 143.944 Q456.423 146.282 456.423 150.68 L456.423 164.338 L452.14 164.338 L452.14 138.412 L456.423 138.412 L456.423 142.44 Q457.765 140.078 459.918 138.944 Q462.071 137.787 465.149 137.787 Q465.589 137.787 466.122 137.856 Q466.654 137.903 467.302 138.018 L467.325 142.393 Z" fill="#000000" fill-rule="nonzero" fill-opacity="1" /><path clip-path="url(#clip390)" d="M492.927 150.31 L492.927 152.393 L473.344 152.393 Q473.622 156.791 475.983 159.106 Q478.367 161.398 482.603 161.398 Q485.057 161.398 487.348 160.796 Q489.663 160.194 491.932 158.99 L491.932 163.018 Q489.64 163.99 487.233 164.5 Q484.825 165.009 482.348 165.009 Q476.145 165.009 472.511 161.398 Q468.899 157.787 468.899 151.629 Q468.899 145.264 472.325 141.537 Q475.774 137.787 481.608 137.787 Q486.839 137.787 489.872 141.166 Q492.927 144.523 492.927 150.31 M488.668 149.06 Q488.622 145.565 486.7 143.481 Q484.802 141.398 481.654 141.398 Q478.089 141.398 475.936 143.412 Q473.807 145.426 473.483 149.083 L488.668 149.06 Z" fill="#000000" fill-rule="nonzero" fill-opacity="1" /><path clip-path="url(#clip390)" d="M516.978 142.347 L516.978 128.319 L521.237 128.319 L521.237 164.338 L516.978 164.338 L516.978 160.449 Q515.635 162.763 513.575 163.898 Q511.538 165.009 508.668 165.009 Q503.969 165.009 501.006 161.259 Q498.066 157.509 498.066 151.398 Q498.066 145.287 501.006 141.537 Q503.969 137.787 508.668 137.787 Q511.538 137.787 513.575 138.921 Q515.635 140.032 516.978 142.347 M502.464 151.398 Q502.464 156.097 504.385 158.782 Q506.33 161.444 509.709 161.444 Q513.089 161.444 515.033 158.782 Q516.978 156.097 516.978 151.398 Q516.978 146.699 515.033 144.037 Q513.089 141.352 509.709 141.352 Q506.33 141.352 504.385 144.037 Q502.464 146.699 502.464 151.398 Z" fill="#000000" fill-rule="nonzero" fill-opacity="1" /><path clip-path="url(#clip390)" d="M530.01 138.412 L534.269 138.412 L534.269 164.338 L530.01 164.338 L530.01 138.412 M530.01 128.319 L534.269 128.319 L534.269 133.713 L530.01 133.713 L530.01 128.319 Z" fill="#000000" fill-rule="nonzero" fill-opacity="1" /><path clip-path="url(#clip390)" d="M561.839 139.407 L561.839 143.389 Q560.033 142.393 558.205 141.907 Q556.399 141.398 554.547 141.398 Q550.404 141.398 548.112 144.037 Q545.82 146.652 545.82 151.398 Q545.82 156.143 548.112 158.782 Q550.404 161.398 554.547 161.398 Q556.399 161.398 558.205 160.912 Q560.033 160.402 561.839 159.407 L561.839 163.342 Q560.056 164.176 558.135 164.592 Q556.237 165.009 554.084 165.009 Q548.228 165.009 544.779 161.328 Q541.33 157.648 541.33 151.398 Q541.33 145.055 544.802 141.421 Q548.297 137.787 554.362 137.787 Q556.33 137.787 558.205 138.203 Q560.08 138.597 561.839 139.407 Z" fill="#000000" fill-rule="nonzero" fill-opacity="1" /><path clip-path="url(#clip390)" d="M573.459 131.051 L573.459 138.412 L582.232 138.412 L582.232 141.722 L573.459 141.722 L573.459 155.796 Q573.459 158.967 574.316 159.87 Q575.195 160.773 577.857 160.773 L582.232 160.773 L582.232 164.338 L577.857 164.338 Q572.927 164.338 571.052 162.509 Q569.177 160.657 569.177 155.796 L569.177 141.722 L566.052 141.722 L566.052 138.412 L569.177 138.412 L569.177 131.051 L573.459 131.051 Z" fill="#000000" fill-rule="nonzero" fill-opacity="1" /><path clip-path="url(#clip390)" d="M587.834 138.412 L592.093 138.412 L592.093 164.338 L587.834 164.338 L587.834 138.412 M587.834 128.319 L592.093 128.319 L592.093 133.713 L587.834 133.713 L587.834 128.319 Z" fill="#000000" fill-rule="nonzero" fill-opacity="1" /><path clip-path="url(#clip390)" d="M611.051 141.398 Q607.626 141.398 605.635 144.083 Q603.644 146.745 603.644 151.398 Q603.644 156.051 605.612 158.736 Q607.602 161.398 611.051 161.398 Q614.454 161.398 616.445 158.713 Q618.436 156.027 618.436 151.398 Q618.436 146.791 616.445 144.106 Q614.454 141.398 611.051 141.398 M611.051 137.787 Q616.607 137.787 619.778 141.398 Q622.95 145.009 622.95 151.398 Q622.95 157.764 619.778 161.398 Q616.607 165.009 611.051 165.009 Q605.473 165.009 602.302 161.398 Q599.153 157.764 599.153 151.398 Q599.153 145.009 602.302 141.398 Q605.473 137.787 611.051 137.787 Z" fill="#000000" fill-rule="nonzero" fill-opacity="1" /><path clip-path="url(#clip390)" d="M651.561 148.689 L651.561 164.338 L647.301 164.338 L647.301 148.828 Q647.301 145.148 645.866 143.319 Q644.431 141.49 641.561 141.49 Q638.112 141.49 636.121 143.69 Q634.13 145.889 634.13 149.685 L634.13 164.338 L629.848 164.338 L629.848 138.412 L634.13 138.412 L634.13 142.44 Q635.658 140.102 637.718 138.944 Q639.801 137.787 642.51 137.787 Q646.977 137.787 649.269 140.565 Q651.561 143.319 651.561 148.689 Z" fill="#000000" fill-rule="nonzero" fill-opacity="1" /><polyline clip-path="url(#clip390)" style="stroke:#e26f46; stroke-linecap:round; stroke-linejoin:round; stroke-width:4; stroke-opacity:1; fill:none" points="253.896,198.898 400.328,198.898 "/>
<path clip-path="url(#clip390)" d="M424.733 181.618 L446.585 181.618 L446.585 185.553 L429.409 185.553 L429.409 195.784 L445.867 195.784 L445.867 199.719 L429.409 199.719 L429.409 212.242 L447.001 212.242 L447.001 216.178 L424.733 216.178 L424.733 181.618 Z" fill="#000000" fill-rule="nonzero" fill-opacity="1" /><path clip-path="url(#clip390)" d="M476.052 190.252 L466.677 202.867 L476.538 216.178 L471.515 216.178 L463.969 205.992 L456.423 216.178 L451.4 216.178 L461.469 202.613 L452.256 190.252 L457.279 190.252 L464.154 199.488 L471.029 190.252 L476.052 190.252 Z" fill="#000000" fill-rule="nonzero" fill-opacity="1" /><path clip-path="url(#clip390)" d="M494.339 203.145 Q489.177 203.145 487.186 204.326 Q485.196 205.506 485.196 208.354 Q485.196 210.622 486.677 211.965 Q488.182 213.284 490.751 213.284 Q494.293 213.284 496.422 210.784 Q498.575 208.261 498.575 204.094 L498.575 203.145 L494.339 203.145 M502.834 201.386 L502.834 216.178 L498.575 216.178 L498.575 212.242 Q497.117 214.603 494.941 215.738 Q492.765 216.849 489.617 216.849 Q485.635 216.849 483.274 214.627 Q480.936 212.381 480.936 208.631 Q480.936 204.256 483.853 202.034 Q486.793 199.812 492.603 199.812 L498.575 199.812 L498.575 199.395 Q498.575 196.455 496.631 194.858 Q494.71 193.238 491.214 193.238 Q488.992 193.238 486.885 193.77 Q484.779 194.303 482.835 195.367 L482.835 191.432 Q485.173 190.53 487.372 190.09 Q489.571 189.627 491.654 189.627 Q497.279 189.627 500.057 192.543 Q502.834 195.46 502.834 201.386 Z" fill="#000000" fill-rule="nonzero" fill-opacity="1" /><path clip-path="url(#clip390)" d="M530.265 191.247 L530.265 195.229 Q528.459 194.233 526.631 193.747 Q524.825 193.238 522.973 193.238 Q518.83 193.238 516.538 195.877 Q514.246 198.492 514.246 203.238 Q514.246 207.983 516.538 210.622 Q518.83 213.238 522.973 213.238 Q524.825 213.238 526.631 212.752 Q528.459 212.242 530.265 211.247 L530.265 215.182 Q528.482 216.016 526.561 216.432 Q524.663 216.849 522.51 216.849 Q516.654 216.849 513.205 213.168 Q509.756 209.488 509.756 203.238 Q509.756 196.895 513.228 193.261 Q516.723 189.627 522.788 189.627 Q524.756 189.627 526.631 190.043 Q528.506 190.437 530.265 191.247 Z" fill="#000000" fill-rule="nonzero" fill-opacity="1" /><path clip-path="url(#clip390)" d="M541.885 182.891 L541.885 190.252 L550.658 190.252 L550.658 193.562 L541.885 193.562 L541.885 207.636 Q541.885 210.807 542.742 211.71 Q543.621 212.613 546.283 212.613 L550.658 212.613 L550.658 216.178 L546.283 216.178 Q541.353 216.178 539.478 214.349 Q537.603 212.497 537.603 207.636 L537.603 193.562 L534.478 193.562 L534.478 190.252 L537.603 190.252 L537.603 182.891 L541.885 182.891 Z" fill="#000000" fill-rule="nonzero" fill-opacity="1" /></svg>
