<?xml version="1.0" encoding="utf-8"?>
<svg xmlns="http://www.w3.org/2000/svg" xmlns:xlink="http://www.w3.org/1999/xlink" width="600" height="400" viewBox="0 0 2400 1600">
<defs>
  <clipPath id="clip330">
    <rect x="0" y="0" width="2400" height="1600"/>
  </clipPath>
</defs>
<path clip-path="url(#clip330)" d="M0 1600 L2400 1600 L2400 0 L0 0  Z" fill="#ffffff" fill-rule="evenodd" fill-opacity="1"/>
<defs>
  <clipPath id="clip331">
    <rect x="480" y="0" width="1681" height="1600"/>
  </clipPath>
</defs>
<path clip-path="url(#clip330)" d="M156.274 1486.45 L2352.76 1486.45 L2352.76 47.2441 L156.274 47.2441  Z" fill="#ffffff" fill-rule="evenodd" fill-opacity="1"/>
<defs>
  <clipPath id="clip332">
    <rect x="156" y="47" width="2197" height="1440"/>
  </clipPath>
</defs>
<polyline clip-path="url(#clip332)" style="stroke:#000000; stroke-linecap:round; stroke-linejoin:round; stroke-width:2; stroke-opacity:0.1; fill:none" points="218.439,1486.45 218.439,47.2441 "/>
<polyline clip-path="url(#clip332)" style="stroke:#000000; stroke-linecap:round; stroke-linejoin:round; stroke-width:2; stroke-opacity:0.1; fill:none" points="736.477,1486.45 736.477,47.2441 "/>
<polyline clip-path="url(#clip332)" style="stroke:#000000; stroke-linecap:round; stroke-linejoin:round; stroke-width:2; stroke-opacity:0.1; fill:none" points="1254.52,1486.45 1254.52,47.2441 "/>
<polyline clip-path="url(#clip332)" style="stroke:#000000; stroke-linecap:round; stroke-linejoin:round; stroke-width:2; stroke-opacity:0.1; fill:none" points="1772.55,1486.45 1772.55,47.2441 "/>
<polyline clip-path="url(#clip332)" style="stroke:#000000; stroke-linecap:round; stroke-linejoin:round; stroke-width:2; stroke-opacity:0.1; fill:none" points="2290.59,1486.45 2290.59,47.2441 "/>
<polyline clip-path="url(#clip330)" style="stroke:#000000; stroke-linecap:round; stroke-linejoin:round; stroke-width:4; stroke-opacity:1; fill:none" points="156.274,1486.45 2352.76,1486.45 "/>
<polyline clip-path="url(#clip330)" style="stroke:#000000; stroke-linecap:round; stroke-linejoin:round; stroke-width:4; stroke-opacity:1; fill:none" points="218.439,1486.45 218.439,1467.55 "/>
<polyline clip-path="url(#clip330)" style="stroke:#000000; stroke-linecap:round; stroke-linejoin:round; stroke-width:4; stroke-opacity:1; fill:none" points="736.477,1486.45 736.477,1467.55 "/>
<polyline clip-path="url(#clip330)" style="stroke:#000000; stroke-linecap:round; stroke-linejoin:round; stroke-width:4; stroke-opacity:1; fill:none" points="1254.52,1486.45 1254.52,1467.55 "/>
<polyline clip-path="url(#clip330)" style="stroke:#000000; stroke-linecap:round; stroke-linejoin:round; stroke-width:4; stroke-opacity:1; fill:none" points="1772.55,1486.45 1772.55,1467.55 "/>
<polyline clip-path="url(#clip330)" style="stroke:#000000; stroke-linecap:round; stroke-linejoin:round; stroke-width:4; stroke-opacity:1; fill:none" points="2290.59,1486.45 2290.59,1467.55 "/>
<path clip-path="url(#clip330)" d="M164.967 1532.02 L194.643 1532.02 L194.643 1535.95 L164.967 1535.95 L164.967 1532.02 Z" fill="#000000" fill-rule="nonzero" fill-opacity="1" /><path clip-path="url(#clip330)" d="M205.545 1544.91 L213.184 1544.91 L213.184 1518.55 L204.874 1520.21 L204.874 1515.95 L213.138 1514.29 L217.814 1514.29 L217.814 1544.91 L225.453 1544.91 L225.453 1548.85 L205.545 1548.85 L205.545 1544.91 Z" fill="#000000" fill-rule="nonzero" fill-opacity="1" /><path clip-path="url(#clip330)" d="M234.897 1542.97 L239.781 1542.97 L239.781 1548.85 L234.897 1548.85 L234.897 1542.97 Z" fill="#000000" fill-rule="nonzero" fill-opacity="1" /><path clip-path="url(#clip330)" d="M259.966 1517.37 Q256.355 1517.37 254.527 1520.93 Q252.721 1524.47 252.721 1531.6 Q252.721 1538.71 254.527 1542.27 Q256.355 1545.82 259.966 1545.82 Q263.601 1545.82 265.406 1542.27 Q267.235 1538.71 267.235 1531.6 Q267.235 1524.47 265.406 1520.93 Q263.601 1517.37 259.966 1517.37 M259.966 1513.66 Q265.776 1513.66 268.832 1518.27 Q271.911 1522.85 271.911 1531.6 Q271.911 1540.33 268.832 1544.94 Q265.776 1549.52 259.966 1549.52 Q254.156 1549.52 251.077 1544.94 Q248.022 1540.33 248.022 1531.6 Q248.022 1522.85 251.077 1518.27 Q254.156 1513.66 259.966 1513.66 Z" fill="#000000" fill-rule="nonzero" fill-opacity="1" /><path clip-path="url(#clip330)" d="M683.503 1532.02 L713.178 1532.02 L713.178 1535.95 L683.503 1535.95 L683.503 1532.02 Z" fill="#000000" fill-rule="nonzero" fill-opacity="1" /><path clip-path="url(#clip330)" d="M733.271 1517.37 Q729.66 1517.37 727.831 1520.93 Q726.026 1524.47 726.026 1531.6 Q726.026 1538.71 727.831 1542.27 Q729.66 1545.82 733.271 1545.82 Q736.905 1545.82 738.711 1542.27 Q740.539 1538.71 740.539 1531.6 Q740.539 1524.47 738.711 1520.93 Q736.905 1517.37 733.271 1517.37 M733.271 1513.66 Q739.081 1513.66 742.137 1518.27 Q745.215 1522.85 745.215 1531.6 Q745.215 1540.33 742.137 1544.94 Q739.081 1549.52 733.271 1549.52 Q727.461 1549.52 724.382 1544.94 Q721.327 1540.33 721.327 1531.6 Q721.327 1522.85 724.382 1518.27 Q727.461 1513.66 733.271 1513.66 Z" fill="#000000" fill-rule="nonzero" fill-opacity="1" /><path clip-path="url(#clip330)" d="M753.433 1542.97 L758.317 1542.97 L758.317 1548.85 L753.433 1548.85 L753.433 1542.97 Z" fill="#000000" fill-rule="nonzero" fill-opacity="1" /><path clip-path="url(#clip330)" d="M768.548 1514.29 L786.905 1514.29 L786.905 1518.22 L772.831 1518.22 L772.831 1526.7 Q773.849 1526.35 774.868 1526.19 Q775.886 1526 776.905 1526 Q782.692 1526 786.072 1529.17 Q789.451 1532.34 789.451 1537.76 Q789.451 1543.34 785.979 1546.44 Q782.507 1549.52 776.187 1549.52 Q774.011 1549.52 771.743 1549.15 Q769.498 1548.78 767.09 1548.04 L767.09 1543.34 Q769.173 1544.47 771.396 1545.03 Q773.618 1545.58 776.095 1545.58 Q780.099 1545.58 782.437 1543.48 Q784.775 1541.37 784.775 1537.76 Q784.775 1534.15 782.437 1532.04 Q780.099 1529.94 776.095 1529.94 Q774.22 1529.94 772.345 1530.35 Q770.493 1530.77 768.548 1531.65 L768.548 1514.29 Z" fill="#000000" fill-rule="nonzero" fill-opacity="1" /><path clip-path="url(#clip330)" d="M1231.9 1517.37 Q1228.29 1517.37 1226.46 1520.93 Q1224.65 1524.47 1224.65 1531.6 Q1224.65 1538.71 1226.46 1542.27 Q1228.29 1545.82 1231.9 1545.82 Q1235.53 1545.82 1237.34 1542.27 Q1239.17 1538.71 1239.17 1531.6 Q1239.17 1524.47 1237.34 1520.93 Q1235.53 1517.37 1231.9 1517.37 M1231.9 1513.66 Q1237.71 1513.66 1240.77 1518.27 Q1243.84 1522.85 1243.84 1531.6 Q1243.84 1540.33 1240.77 1544.94 Q1237.71 1549.52 1231.9 1549.52 Q1226.09 1549.52 1223.01 1544.94 Q1219.96 1540.33 1219.96 1531.6 Q1219.96 1522.85 1223.01 1518.27 Q1226.09 1513.66 1231.9 1513.66 Z" fill="#000000" fill-rule="nonzero" fill-opacity="1" /><path clip-path="url(#clip330)" d="M1252.06 1542.97 L1256.95 1542.97 L1256.95 1548.85 L1252.06 1548.85 L1252.06 1542.97 Z" fill="#000000" fill-rule="nonzero" fill-opacity="1" /><path clip-path="url(#clip330)" d="M1277.13 1517.37 Q1273.52 1517.37 1271.69 1520.93 Q1269.89 1524.47 1269.89 1531.6 Q1269.89 1538.71 1271.69 1542.27 Q1273.52 1545.82 1277.13 1545.82 Q1280.76 1545.82 1282.57 1542.27 Q1284.4 1538.71 1284.4 1531.6 Q1284.4 1524.47 1282.57 1520.93 Q1280.76 1517.37 1277.13 1517.37 M1277.13 1513.66 Q1282.94 1513.66 1286 1518.27 Q1289.08 1522.85 1289.08 1531.6 Q1289.08 1540.33 1286 1544.94 Q1282.94 1549.52 1277.13 1549.52 Q1271.32 1549.52 1268.24 1544.94 Q1265.19 1540.33 1265.19 1531.6 Q1265.19 1522.85 1268.24 1518.27 Q1271.32 1513.66 1277.13 1513.66 Z" fill="#000000" fill-rule="nonzero" fill-opacity="1" /><path clip-path="url(#clip330)" d="M1750.44 1517.37 Q1746.82 1517.37 1745 1520.93 Q1743.19 1524.47 1743.19 1531.6 Q1743.19 1538.71 1745 1542.27 Q1746.82 1545.82 1750.44 1545.82 Q1754.07 1545.82 1755.88 1542.27 Q1757.7 1538.71 1757.7 1531.6 Q1757.7 1524.47 1755.88 1520.93 Q1754.07 1517.37 1750.44 1517.37 M1750.44 1513.66 Q1756.25 1513.66 1759.3 1518.27 Q1762.38 1522.85 1762.38 1531.6 Q1762.38 1540.33 1759.3 1544.94 Q1756.25 1549.52 1750.44 1549.52 Q1744.63 1549.52 1741.55 1544.94 Q1738.49 1540.33 1738.49 1531.6 Q1738.49 1522.85 1741.55 1518.27 Q1744.63 1513.66 1750.44 1513.66 Z" fill="#000000" fill-rule="nonzero" fill-opacity="1" /><path clip-path="url(#clip330)" d="M1770.6 1542.97 L1775.48 1542.97 L1775.48 1548.85 L1770.6 1548.85 L1770.6 1542.97 Z" fill="#000000" fill-rule="nonzero" fill-opacity="1" /><path clip-path="url(#clip330)" d="M1785.71 1514.29 L1804.07 1514.29 L1804.07 1518.22 L1790 1518.22 L1790 1526.7 Q1791.01 1526.35 1792.03 1526.19 Q1793.05 1526 1794.07 1526 Q1799.86 1526 1803.24 1529.17 Q1806.62 1532.34 1806.62 1537.76 Q1806.62 1543.34 1803.14 1546.44 Q1799.67 1549.52 1793.35 1549.52 Q1791.18 1549.52 1788.91 1549.15 Q1786.66 1548.78 1784.25 1548.04 L1784.25 1543.34 Q1786.34 1544.47 1788.56 1545.03 Q1790.78 1545.58 1793.26 1545.58 Q1797.26 1545.58 1799.6 1543.48 Q1801.94 1541.37 1801.94 1537.76 Q1801.94 1534.15 1799.6 1532.04 Q1797.26 1529.94 1793.26 1529.94 Q1791.38 1529.94 1789.51 1530.35 Q1787.66 1530.77 1785.71 1531.65 L1785.71 1514.29 Z" fill="#000000" fill-rule="nonzero" fill-opacity="1" /><path clip-path="url(#clip330)" d="M2257.74 1544.91 L2265.38 1544.91 L2265.38 1518.55 L2257.07 1520.21 L2257.07 1515.95 L2265.34 1514.29 L2270.01 1514.29 L2270.01 1544.91 L2277.65 1544.91 L2277.65 1548.85 L2257.74 1548.85 L2257.74 1544.91 Z" fill="#000000" fill-rule="nonzero" fill-opacity="1" /><path clip-path="url(#clip330)" d="M2287.1 1542.97 L2291.98 1542.97 L2291.98 1548.85 L2287.1 1548.85 L2287.1 1542.97 Z" fill="#000000" fill-rule="nonzero" fill-opacity="1" /><path clip-path="url(#clip330)" d="M2312.17 1517.37 Q2308.55 1517.37 2306.73 1520.93 Q2304.92 1524.47 2304.92 1531.6 Q2304.92 1538.71 2306.73 1542.27 Q2308.55 1545.82 2312.17 1545.82 Q2315.8 1545.82 2317.61 1542.27 Q2319.43 1538.71 2319.43 1531.6 Q2319.43 1524.47 2317.61 1520.93 Q2315.8 1517.37 2312.17 1517.37 M2312.17 1513.66 Q2317.98 1513.66 2321.03 1518.27 Q2324.11 1522.85 2324.11 1531.6 Q2324.11 1540.33 2321.03 1544.94 Q2317.98 1549.52 2312.17 1549.52 Q2306.36 1549.52 2303.28 1544.94 Q2300.22 1540.33 2300.22 1531.6 Q2300.22 1522.85 2303.28 1518.27 Q2306.36 1513.66 2312.17 1513.66 Z" fill="#000000" fill-rule="nonzero" fill-opacity="1" /><polyline clip-path="url(#clip332)" style="stroke:#000000; stroke-linecap:round; stroke-linejoin:round; stroke-width:2; stroke-opacity:0.1; fill:none" points="156.274,1252.29 2352.76,1252.29 "/>
<polyline clip-path="url(#clip332)" style="stroke:#000000; stroke-linecap:round; stroke-linejoin:round; stroke-width:2; stroke-opacity:0.1; fill:none" points="156.274,979.041 2352.76,979.041 "/>
<polyline clip-path="url(#clip332)" style="stroke:#000000; stroke-linecap:round; stroke-linejoin:round; stroke-width:2; stroke-opacity:0.1; fill:none" points="156.274,705.796 2352.76,705.796 "/>
<polyline clip-path="url(#clip332)" style="stroke:#000000; stroke-linecap:round; stroke-linejoin:round; stroke-width:2; stroke-opacity:0.1; fill:none" points="156.274,432.551 2352.76,432.551 "/>
<polyline clip-path="url(#clip332)" style="stroke:#000000; stroke-linecap:round; stroke-linejoin:round; stroke-width:2; stroke-opacity:0.1; fill:none" points="156.274,159.307 2352.76,159.307 "/>
<polyline clip-path="url(#clip330)" style="stroke:#000000; stroke-linecap:round; stroke-linejoin:round; stroke-width:4; stroke-opacity:1; fill:none" points="156.274,1486.45 156.274,47.2441 "/>
<polyline clip-path="url(#clip330)" style="stroke:#000000; stroke-linecap:round; stroke-linejoin:round; stroke-width:4; stroke-opacity:1; fill:none" points="156.274,1252.29 175.172,1252.29 "/>
<polyline clip-path="url(#clip330)" style="stroke:#000000; stroke-linecap:round; stroke-linejoin:round; stroke-width:4; stroke-opacity:1; fill:none" points="156.274,979.041 175.172,979.041 "/>
<polyline clip-path="url(#clip330)" style="stroke:#000000; stroke-linecap:round; stroke-linejoin:round; stroke-width:4; stroke-opacity:1; fill:none" points="156.274,705.796 175.172,705.796 "/>
<polyline clip-path="url(#clip330)" style="stroke:#000000; stroke-linecap:round; stroke-linejoin:round; stroke-width:4; stroke-opacity:1; fill:none" points="156.274,432.551 175.172,432.551 "/>
<polyline clip-path="url(#clip330)" style="stroke:#000000; stroke-linecap:round; stroke-linejoin:round; stroke-width:4; stroke-opacity:1; fill:none" points="156.274,159.307 175.172,159.307 "/>
<path clip-path="url(#clip330)" d="M63.0985 1238.08 Q59.4875 1238.08 57.6588 1241.65 Q55.8532 1245.19 55.8532 1252.32 Q55.8532 1259.43 57.6588 1262.99 Q59.4875 1266.53 63.0985 1266.53 Q66.7328 1266.53 68.5383 1262.99 Q70.367 1259.43 70.367 1252.32 Q70.367 1245.19 68.5383 1241.65 Q66.7328 1238.08 63.0985 1238.08 M63.0985 1234.38 Q68.9087 1234.38 71.9642 1238.99 Q75.0429 1243.57 75.0429 1252.32 Q75.0429 1261.05 71.9642 1265.65 Q68.9087 1270.24 63.0985 1270.24 Q57.2884 1270.24 54.2097 1265.65 Q51.1542 1261.05 51.1542 1252.32 Q51.1542 1243.57 54.2097 1238.99 Q57.2884 1234.38 63.0985 1234.38 Z" fill="#000000" fill-rule="nonzero" fill-opacity="1" /><path clip-path="url(#clip330)" d="M83.2605 1263.69 L88.1447 1263.69 L88.1447 1269.57 L83.2605 1269.57 L83.2605 1263.69 Z" fill="#000000" fill-rule="nonzero" fill-opacity="1" /><path clip-path="url(#clip330)" d="M108.33 1238.08 Q104.719 1238.08 102.89 1241.65 Q101.084 1245.19 101.084 1252.32 Q101.084 1259.43 102.89 1262.99 Q104.719 1266.53 108.33 1266.53 Q111.964 1266.53 113.77 1262.99 Q115.598 1259.43 115.598 1252.32 Q115.598 1245.19 113.77 1241.65 Q111.964 1238.08 108.33 1238.08 M108.33 1234.38 Q114.14 1234.38 117.195 1238.99 Q120.274 1243.57 120.274 1252.32 Q120.274 1261.05 117.195 1265.65 Q114.14 1270.24 108.33 1270.24 Q102.52 1270.24 99.4409 1265.65 Q96.3854 1261.05 96.3854 1252.32 Q96.3854 1243.57 99.4409 1238.99 Q102.52 1234.38 108.33 1234.38 Z" fill="#000000" fill-rule="nonzero" fill-opacity="1" /><path clip-path="url(#clip330)" d="M63.7467 964.839 Q60.1356 964.839 58.3069 968.404 Q56.5014 971.946 56.5014 979.076 Q56.5014 986.182 58.3069 989.747 Q60.1356 993.288 63.7467 993.288 Q67.3809 993.288 69.1865 989.747 Q71.0152 986.182 71.0152 979.076 Q71.0152 971.946 69.1865 968.404 Q67.3809 964.839 63.7467 964.839 M63.7467 961.136 Q69.5568 961.136 72.6124 965.742 Q75.6911 970.326 75.6911 979.076 Q75.6911 987.802 72.6124 992.409 Q69.5568 996.992 63.7467 996.992 Q57.9365 996.992 54.8578 992.409 Q51.8023 987.802 51.8023 979.076 Q51.8023 970.326 54.8578 965.742 Q57.9365 961.136 63.7467 961.136 Z" fill="#000000" fill-rule="nonzero" fill-opacity="1" /><path clip-path="url(#clip330)" d="M83.9086 990.441 L88.7928 990.441 L88.7928 996.321 L83.9086 996.321 L83.9086 990.441 Z" fill="#000000" fill-rule="nonzero" fill-opacity="1" /><path clip-path="url(#clip330)" d="M113.145 977.687 Q116.501 978.404 118.376 980.673 Q120.274 982.941 120.274 986.275 Q120.274 991.39 116.756 994.191 Q113.237 996.992 106.756 996.992 Q104.58 996.992 102.265 996.552 Q99.9733 996.136 97.5197 995.279 L97.5197 990.765 Q99.4641 991.9 101.779 992.478 Q104.094 993.057 106.617 993.057 Q111.015 993.057 113.307 991.321 Q115.621 989.585 115.621 986.275 Q115.621 983.219 113.469 981.506 Q111.339 979.77 107.52 979.77 L103.492 979.77 L103.492 975.927 L107.705 975.927 Q111.154 975.927 112.983 974.562 Q114.811 973.173 114.811 970.58 Q114.811 967.918 112.913 966.506 Q111.038 965.071 107.52 965.071 Q105.598 965.071 103.399 965.488 Q101.2 965.904 98.5613 966.784 L98.5613 962.617 Q101.223 961.877 103.538 961.506 Q105.876 961.136 107.936 961.136 Q113.26 961.136 116.362 963.566 Q119.464 965.974 119.464 970.094 Q119.464 972.964 117.82 974.955 Q116.177 976.923 113.145 977.687 Z" fill="#000000" fill-rule="nonzero" fill-opacity="1" /><path clip-path="url(#clip330)" d="M62.9365 691.595 Q59.3254 691.595 57.4967 695.16 Q55.6912 698.701 55.6912 705.831 Q55.6912 712.937 57.4967 716.502 Q59.3254 720.044 62.9365 720.044 Q66.5707 720.044 68.3763 716.502 Q70.205 712.937 70.205 705.831 Q70.205 698.701 68.3763 695.16 Q66.5707 691.595 62.9365 691.595 M62.9365 687.891 Q68.7467 687.891 71.8022 692.498 Q74.8809 697.081 74.8809 705.831 Q74.8809 714.558 71.8022 719.164 Q68.7467 723.747 62.9365 723.747 Q57.1264 723.747 54.0477 719.164 Q50.9921 714.558 50.9921 705.831 Q50.9921 697.081 54.0477 692.498 Q57.1264 687.891 62.9365 687.891 Z" fill="#000000" fill-rule="nonzero" fill-opacity="1" /><path clip-path="url(#clip330)" d="M83.0984 717.197 L87.9827 717.197 L87.9827 723.076 L83.0984 723.076 L83.0984 717.197 Z" fill="#000000" fill-rule="nonzero" fill-opacity="1" /><path clip-path="url(#clip330)" d="M108.746 703.933 Q105.598 703.933 103.746 706.085 Q101.918 708.238 101.918 711.988 Q101.918 715.715 103.746 717.891 Q105.598 720.044 108.746 720.044 Q111.895 720.044 113.723 717.891 Q115.575 715.715 115.575 711.988 Q115.575 708.238 113.723 706.085 Q111.895 703.933 108.746 703.933 M118.029 689.28 L118.029 693.539 Q116.27 692.706 114.464 692.266 Q112.682 691.826 110.922 691.826 Q106.293 691.826 103.839 694.951 Q101.409 698.076 101.061 704.396 Q102.427 702.382 104.487 701.317 Q106.547 700.229 109.024 700.229 Q114.233 700.229 117.242 703.4 Q120.274 706.548 120.274 711.988 Q120.274 717.312 117.126 720.53 Q113.978 723.747 108.746 723.747 Q102.751 723.747 99.5798 719.164 Q96.4085 714.558 96.4085 705.831 Q96.4085 697.636 100.297 692.775 Q104.186 687.891 110.737 687.891 Q112.496 687.891 114.279 688.238 Q116.084 688.586 118.029 689.28 Z" fill="#000000" fill-rule="nonzero" fill-opacity="1" /><path clip-path="url(#clip330)" d="M63.2837 418.35 Q59.6726 418.35 57.8439 421.915 Q56.0384 425.457 56.0384 432.586 Q56.0384 439.693 57.8439 443.257 Q59.6726 446.799 63.2837 446.799 Q66.918 446.799 68.7235 443.257 Q70.5522 439.693 70.5522 432.586 Q70.5522 425.457 68.7235 421.915 Q66.918 418.35 63.2837 418.35 M63.2837 414.646 Q69.0939 414.646 72.1494 419.253 Q75.2281 423.836 75.2281 432.586 Q75.2281 441.313 72.1494 445.919 Q69.0939 450.503 63.2837 450.503 Q57.4736 450.503 54.3949 445.919 Q51.3393 441.313 51.3393 432.586 Q51.3393 423.836 54.3949 419.253 Q57.4736 414.646 63.2837 414.646 Z" fill="#000000" fill-rule="nonzero" fill-opacity="1" /><path clip-path="url(#clip330)" d="M83.4457 443.952 L88.3299 443.952 L88.3299 449.831 L83.4457 449.831 L83.4457 443.952 Z" fill="#000000" fill-rule="nonzero" fill-opacity="1" /><path clip-path="url(#clip330)" d="M98.6539 449.114 L98.6539 444.855 Q100.413 445.688 102.219 446.128 Q104.024 446.568 105.76 446.568 Q110.39 446.568 112.82 443.466 Q115.274 440.341 115.621 433.998 Q114.279 435.989 112.219 437.054 Q110.158 438.119 107.658 438.119 Q102.473 438.119 99.4409 434.994 Q96.4317 431.845 96.4317 426.406 Q96.4317 421.082 99.5798 417.864 Q102.728 414.646 107.959 414.646 Q113.955 414.646 117.103 419.253 Q120.274 423.836 120.274 432.586 Q120.274 440.757 116.385 445.642 Q112.52 450.503 105.969 450.503 Q104.209 450.503 102.404 450.155 Q100.598 449.808 98.6539 449.114 M107.959 434.461 Q111.108 434.461 112.936 432.308 Q114.788 430.156 114.788 426.406 Q114.788 422.679 112.936 420.526 Q111.108 418.35 107.959 418.35 Q104.811 418.35 102.959 420.526 Q101.131 422.679 101.131 426.406 Q101.131 430.156 102.959 432.308 Q104.811 434.461 107.959 434.461 Z" fill="#000000" fill-rule="nonzero" fill-opacity="1" /><path clip-path="url(#clip330)" d="M55.506 172.652 L63.1448 172.652 L63.1448 146.286 L54.8347 147.953 L54.8347 143.693 L63.0985 142.027 L67.7744 142.027 L67.7744 172.652 L75.4133 172.652 L75.4133 176.587 L55.506 176.587 L55.506 172.652 Z" fill="#000000" fill-rule="nonzero" fill-opacity="1" /><path clip-path="url(#clip330)" d="M84.8577 170.707 L89.7419 170.707 L89.7419 176.587 L84.8577 176.587 L84.8577 170.707 Z" fill="#000000" fill-rule="nonzero" fill-opacity="1" /><path clip-path="url(#clip330)" d="M103.955 172.652 L120.274 172.652 L120.274 176.587 L98.3298 176.587 L98.3298 172.652 Q100.992 169.897 105.575 165.267 Q110.182 160.615 111.362 159.272 Q113.608 156.749 114.487 155.013 Q115.39 153.254 115.39 151.564 Q115.39 148.809 113.445 147.073 Q111.524 145.337 108.422 145.337 Q106.223 145.337 103.77 146.101 Q101.339 146.865 98.5613 148.416 L98.5613 143.693 Q101.385 142.559 103.839 141.98 Q106.293 141.402 108.33 141.402 Q113.7 141.402 116.895 144.087 Q120.089 146.772 120.089 151.263 Q120.089 153.392 119.279 155.314 Q118.492 157.212 116.385 159.804 Q115.807 160.476 112.705 163.693 Q109.603 166.888 103.955 172.652 Z" fill="#000000" fill-rule="nonzero" fill-opacity="1" /><polyline clip-path="url(#clip332)" style="stroke:#009af9; stroke-linecap:round; stroke-linejoin:round; stroke-width:16; stroke-opacity:1; fill:none" stroke-dasharray="8, 16" points="218.439,1080.56 228.852,1085.17 239.264,1089.78 249.677,1094.39 260.09,1099 270.503,1103.61 280.916,1111.18 291.329,1129.16 301.741,1150.4 312.154,1171.64 322.567,1192.88 332.98,1214.12 343.393,1235.36 353.805,1256.6 364.218,1277.84 374.631,1299.08 385.044,1320.32 395.457,1341.56 405.87,1362.8 416.282,1384.05 426.695,1405.29 437.108,1426.47 447.521,1445.72 457.934,1427.88 468.347,1402.74 478.759,1377.6 489.172,1352.46 499.585,1327.32 509.998,1302.18 520.411,1277.04 530.824,1251.9 541.236,1226.76 551.649,1201.63 562.062,1176.49 572.475,1151.35 582.888,1126.21 593.301,1101.07 603.713,1080.7 614.126,1069.51 624.539,1058.33 634.952,1060.81 645.365,1085.2 655.777,1109.58 666.19,1133.96 676.603,1158.34 687.016,1184.14 697.429,1212.41 707.842,1240.67 718.254,1268.94 728.667,1297.2 739.08,1325.47 749.493,1353.73 759.906,1381.99 770.319,1406.04 780.731,1428.49 791.144,1442.52 801.557,1435.19 811.97,1427.32 822.383,1418.69 832.796,1409.87 843.208,1401.05 853.621,1368.81 864.034,1337.08 874.447,1305.36 884.86,1273.63 895.273,1238.95 905.685,1204.01 916.098,1177 926.511,1150.22 936.924,1126.03 947.337,1109.53 957.749,1096.17 968.162,1083.45 978.575,1070.73 988.988,1060.73 999.401,1053.8 1009.81,1077.69 1020.23,1103.92 1030.64,1131.48 1041.05,1160.28 1051.46,1189.35 1061.88,1215.58 1072.29,1253.18 1082.7,1284.76 1093.12,1312.89 1103.53,1340.92 1113.94,1369.56 1124.35,1395.68 1134.77,1413.89 1145.18,1423.73 1155.59,1428.99 1166.01,1422.72 1176.42,1415.78 1186.83,1415.26 1197.24,1408.94 1207.66,1396.8 1218.07,1379.51 1228.48,1339.35 1238.9,1249.25 1249.31,1029.38 1259.72,768.46 1270.13,480.003 1280.55,264.055 1290.96,138.061 1301.37,146.004 1311.79,263.022 1322.2,390.714 1332.61,354.153 1343.02,332.473 1353.44,325.067 1363.85,319.126 1374.26,311.402 1384.68,313.843 1395.09,325.078 1405.5,338.26 1415.91,349.431 1426.33,362.543 1436.74,374.284 1447.15,367.924 1457.57,355.564 1467.98,343.205 1478.39,330.845 1488.8,323.109 1499.22,326.596 1509.63,330.083 1520.04,333.571 1530.45,337.058 1540.87,340.545 1551.28,344.033 1561.69,347.52 1572.11,350.41 1582.52,348.482 1592.93,346.553 1603.34,344.625 1613.76,342.697 1624.17,340.908 1634.58,339.184 1645,337.461 1655.41,335.737 1665.82,334.013 1676.23,332.289 1686.65,330.566 1697.06,328.842 1707.47,327.118 1717.89,325.394 1728.3,323.67 1738.71,322.071 1749.12,323.218 1759.54,324.366 1769.95,325.514 1780.36,326.662 1790.78,327.81 1801.19,328.958 1811.6,330.106 1822.01,331.253 1832.43,332.401 1842.84,333.549 1853.25,334.697 1863.67,335.845 1874.08,336.993 1884.49,338.141 1894.9,339.288 1905.32,340.436 1915.73,341.584 1926.14,342.732 1936.56,343.88 1946.97,345.028 1957.38,346.176 1967.79,347.324 1978.21,348.472 1988.62,349.62 1999.03,350.767 2009.45,351.915 2019.86,353.063 2030.27,354.211 2040.68,355.359 2051.1,356.507 2061.51,357.655 2071.92,358.802 2082.33,359.95 2092.75,361.098 2103.16,362.246 2113.57,363.394 2123.99,364.542 2134.4,365.69 2144.81,366.837 2155.22,367.986 2165.64,369.133 2176.05,370.281 2186.46,371.429 2196.88,372.577 2207.29,373.725 2217.7,374.873 2228.11,376.021 2238.53,377.169 2248.94,378.316 2259.35,379.464 2269.77,380.612 2280.18,381.76 2290.59,382.908 "/>
<polyline clip-path="url(#clip332)" style="stroke:#e26f46; stroke-linecap:round; stroke-linejoin:round; stroke-width:4; stroke-opacity:1; fill:none" points="218.439,1115.48 228.852,1096.07 239.264,1081.76 249.677,1073.02 260.09,1070.12 270.503,1073.17 280.916,1082.07 291.329,1096.52 301.741,1116.06 312.154,1140.04 322.567,1167.68 332.98,1198.09 343.393,1230.26 353.805,1263.16 364.218,1295.7 374.631,1326.82 385.044,1355.51 395.457,1380.83 405.87,1401.95 416.282,1418.19 426.695,1429.02 437.108,1434.08 447.521,1433.2 457.934,1426.42 468.347,1413.96 478.759,1396.22 489.172,1373.78 499.585,1347.38 509.998,1317.87 520.411,1286.22 530.824,1253.47 541.236,1220.68 551.649,1188.91 562.062,1159.22 572.475,1132.56 582.888,1109.82 593.301,1091.72 603.713,1078.86 614.126,1071.66 624.539,1070.36 634.952,1074.99 645.365,1085.41 655.777,1101.28 666.19,1122.08 676.603,1147.12 687.016,1175.6 697.429,1206.58 707.842,1239.05 718.254,1271.96 728.667,1304.22 739.08,1334.79 749.493,1362.66 759.906,1386.93 770.319,1406.81 780.731,1421.64 791.144,1430.95 801.557,1434.43 811.97,1431.96 822.383,1423.63 832.796,1409.7 843.208,1390.64 853.621,1367.06 864.034,1339.74 874.447,1309.56 884.86,1277.51 895.273,1244.64 905.685,1212.02 916.098,1180.71 926.511,1151.74 936.924,1126.05 947.337,1104.48 957.749,1087.74 968.162,1076.36 978.575,1070.73 988.988,1071.02 999.401,1077.23 1009.81,1089.15 1020.23,1106.4 1030.64,1128.4 1041.05,1154.45 1051.46,1183.7 1061.88,1215.18 1072.29,1247.87 1082.7,1280.71 1093.12,1312.62 1103.53,1342.56 1113.94,1369.55 1124.35,1392.72 1134.77,1411.3 1145.18,1424.7 1155.59,1432.46 1166.01,1434.35 1176.42,1430.29 1186.83,1420.43 1197.24,1405.07 1207.66,1384.73 1218.07,1360.07 1228.48,1331.89 1238.9,1301.11 1249.31,1268.74 1259.72,340.147 1270.13,338.642 1280.55,340.012 1290.96,344.573 1301.37,350.927 1311.79,356.389 1322.2,358.006 1332.61,353.804 1343.02,343.785 1353.44,330.278 1363.85,317.425 1374.26,309.917 1384.68,311.357 1395.09,322.813 1405.5,342.082 1415.91,364.011 1426.33,381.868 1436.74,389.401 1447.15,382.953 1457.57,362.946 1467.98,334.169 1478.39,304.677 1488.8,283.54 1499.22,278.065 1509.63,291.339 1520.04,320.911 1530.45,359.103 1540.87,394.98 1551.28,417.481 1561.69,418.814 1572.11,397.075 1582.52,357.236 1592.93,310.077 1603.34,269.284 1613.76,247.477 1624.17,252.326 1634.58,283.941 1645,334.412 1655.41,389.74 1665.82,433.721 1676.23,452.683 1686.65,439.716 1697.06,397.078 1707.47,335.965 1717.89,273.601 1728.3,228.382 1738.71,214.455 1749.12,237.323 1759.54,291.828 1769.95,363.232 1780.36,431.182 1790.78,475.513 1801.19,482.228 1811.6,447.878 1822.01,380.993 1832.43,300.013 1842.84,228.218 1853.25,187.03 1863.67,189.634 1874.08,236.799 1884.49,316.223 1894.9,405.705 1905.32,479.351 1915.73,515.062 1926.14,501.156 1936.56,440.132 1946.97,348.383 1957.38,251.813 1967.79,178.525 1978.21,150.647 1988.62,177.663 1999.03,253.265 2009.45,356.751 2019.86,458.672 2030.27,529.222 2040.68,546.943 2051.1,505.235 2061.51,414.688 2071.92,300.436 2082.33,195.192 2092.75,129.879 2103.16,124.551 2113.57,182.26 2123.99,287.741 2134.4,411.419 2144.81,517.701 2155.22,575.212 2165.64,566.055 2176.05,491.349 2186.46,371.338 2196.88,239.927 2207.29,135.109 2217.7,87.9763 2228.11,113.51 2238.53,205.86 2248.94,339.6 2259.35,476.713 2269.77,577.401 2280.18,611.627 2290.59,568.074 "/>
<path clip-path="url(#clip330)" d="M229.49 250.738 L675.966 250.738 L675.966 95.2176 L229.49 95.2176  Z" fill="#ffffff" fill-rule="evenodd" fill-opacity="1"/>
<polyline clip-path="url(#clip330)" style="stroke:#000000; stroke-linecap:round; stroke-linejoin:round; stroke-width:4; stroke-opacity:1; fill:none" points="229.49,250.738 675.966,250.738 675.966,95.2176 229.49,95.2176 229.49,250.738 "/>
<polyline clip-path="url(#clip330)" style="stroke:#009af9; stroke-linecap:round; stroke-linejoin:round; stroke-width:16; stroke-opacity:1; fill:none" stroke-dasharray="8, 16" points="253.896,147.058 400.328,147.058 "/>
<path clip-path="url(#clip330)" d="M429.409 133.62 L429.409 146.606 L435.289 146.606 Q438.552 146.606 440.335 144.916 Q442.117 143.227 442.117 140.102 Q442.117 137 440.335 135.31 Q438.552 133.62 435.289 133.62 L429.409 133.62 M424.733 129.778 L435.289 129.778 Q441.099 129.778 444.062 132.416 Q447.048 135.032 447.048 140.102 Q447.048 145.217 444.062 147.833 Q441.099 150.449 435.289 150.449 L429.409 150.449 L429.409 164.338 L424.733 164.338 L424.733 129.778 Z" fill="#000000" fill-rule="nonzero" fill-opacity="1" /><path clip-path="url(#clip330)" d="M467.325 142.393 Q466.608 141.977 465.751 141.791 Q464.918 141.583 463.899 141.583 Q460.288 141.583 458.344 143.944 Q456.423 146.282 456.423 150.68 L456.423 164.338 L452.14 164.338 L452.14 138.412 L456.423 138.412 L456.423 142.44 Q457.765 140.078 459.918 138.944 Q462.071 137.787 465.149 137.787 Q465.589 137.787 466.122 137.856 Q466.654 137.903 467.302 138.018 L467.325 142.393 Z" fill="#000000" fill-rule="nonzero" fill-opacity="1" /><path clip-path="url(#clip330)" d="M492.927 150.31 L492.927 152.393 L473.344 152.393 Q473.622 156.791 475.983 159.106 Q478.367 161.398 482.603 161.398 Q485.057 161.398 487.348 160.796 Q489.663 160.194 491.932 158.99 L491.932 163.018 Q489.64 163.99 487.233 164.5 Q484.825 165.009 482.348 165.009 Q476.145 165.009 472.511 161.398 Q468.899 157.787 468.899 151.629 Q468.899 145.264 472.325 141.537 Q475.774 137.787 481.608 137.787 Q486.839 137.787 489.872 141.166 Q492.927 144.523 492.927 150.31 M488.668 149.06 Q488.622 145.565 486.7 143.481 Q484.802 141.398 481.654 141.398 Q478.089 141.398 475.936 143.412 Q473.807 145.426 473.483 149.083 L488.668 149.06 Z" fill="#000000" fill-rule="nonzero" fill-opacity="1" /><path clip-path="url(#clip330)" d="M516.978 142.347 L516.978 128.319 L521.237 128.319 L521.237 164.338 L516.978 164.338 L516.978 160.449 Q515.635 162.763 513.575 163.898 Q511.538 165.009 508.668 165.009 Q503.969 165.009 501.006 161.259 Q498.066 157.509 498.066 151.398 Q498.066 145.287 501.006 141.537 Q503.969 137.787 508.668 137.787 Q511.538 137.787 513.575 138.921 Q515.635 140.032 516.978 142.347 M502.464 151.398 Q502.464 156.097 504.385 158.782 Q506.33 161.444 509.709 161.444 Q513.089 161.444 515.033 158.782 Q516.978 156.097 516.978 151.398 Q516.978 146.699 515.033 144.037 Q513.089 141.352 509.709 141.352 Q506.33 141.352 504.385 144.037 Q502.464 146.699 502.464 151.398 Z" fill="#000000" fill-rule="nonzero" fill-opacity="1" /><path clip-path="url(#clip330)" d="M530.01 138.412 L534.269 138.412 L534.269 164.338 L530.01 164.338 L530.01 138.412 M530.01 128.319 L534.269 128.319 L534.269 133.713 L530.01 133.713 L530.01 128.319 Z" fill="#000000" fill-rule="nonzero" fill-opacity="1" /><path clip-path="url(#clip330)" d="M561.839 139.407 L561.839 143.389 Q560.033 142.393 558.205 141.907 Q556.399 141.398 554.547 141.398 Q550.404 141.398 548.112 144.037 Q545.82 146.652 545.82 151.398 Q545.82 156.143 548.112 158.782 Q550.404 161.398 554.547 161.398 Q556.399 161.398 558.205 160.912 Q560.033 160.402 561.839 159.407 L561.839 163.342 Q560.056 164.176 558.135 164.592 Q556.237 165.009 554.084 165.009 Q548.228 165.009 544.779 161.328 Q541.33 157.648 541.33 151.398 Q541.33 145.055 544.802 141.421 Q548.297 137.787 554.362 137.787 Q556.33 137.787 558.205 138.203 Q560.08 138.597 561.839 139.407 Z" fill="#000000" fill-rule="nonzero" fill-opacity="1" /><path clip-path="url(#clip330)" d="M573.459 131.051 L573.459 138.412 L582.232 138.412 L582.232 141.722 L573.459 141.722 L573.459 155.796 Q573.459 158.967 574.316 159.87 Q575.195 160.773 577.857 160.773 L582.232 160.773 L582.232 164.338 L577.857 164.338 Q572.927 164.338 571.052 162.509 Q569.177 160.657 569.177 155.796 L569.177 141.722 L566.052 141.722 L566.052 138.412 L569.177 138.412 L569.177 131.051 L573.459 131.051 Z" fill="#000000" fill-rule="nonzero" fill-opacity="1" /><path clip-path="url(#clip330)" d="M587.834 138.412 L592.093 138.412 L592.093 164.338 L587.834 164.338 L587.834 138.412 M587.834 128.319 L592.093 128.319 L592.093 133.713 L587.834 133.713 L587.834 128.319 Z" fill="#000000" fill-rule="nonzero" fill-opacity="1" /><path clip-path="url(#clip330)" d="M611.051 141.398 Q607.626 141.398 605.635 144.083 Q603.644 146.745 603.644 151.398 Q603.644 156.051 605.612 158.736 Q607.602 161.398 611.051 161.398 Q614.454 161.398 616.445 158.713 Q618.436 156.027 618.436 151.398 Q618.436 146.791 616.445 144.106 Q614.454 141.398 611.051 141.398 M611.051 137.787 Q616.607 137.787 619.778 141.398 Q622.95 145.009 622.95 151.398 Q622.95 157.764 619.778 161.398 Q616.607 165.009 611.051 165.009 Q605.473 165.009 602.302 161.398 Q599.153 157.764 599.153 151.398 Q599.153 145.009 602.302 141.398 Q605.473 137.787 611.051 137.787 Z" fill="#000000" fill-rule="nonzero" fill-opacity="1" /><path clip-path="url(#clip330)" d="M651.561 148.689 L651.561 164.338 L647.301 164.338 L647.301 148.828 Q647.301 145.148 645.866 143.319 Q644.431 141.49 641.561 141.49 Q638.112 141.49 636.121 143.69 Q634.13 145.889 634.13 149.685 L634.13 164.338 L629.848 164.338 L629.848 138.412 L634.13 138.412 L634.13 142.44 Q635.658 140.102 637.718 138.944 Q639.801 137.787 642.51 137.787 Q646.977 137.787 649.269 140.565 Q651.561 143.319 651.561 148.689 Z" fill="#000000" fill-rule="nonzero" fill-opacity="1" /><polyline clip-path="url(#clip330)" style="stroke:#e26f46; stroke-linecap:round; stroke-linejoin:round; stroke-width:4; stroke-opacity:1; fill:none" points="253.896,198.898 400.328,198.898 "/>
<path clip-path="url(#clip330)" d="M424.733 181.618 L446.585 181.618 L446.585 185.553 L429.409 185.553 L429.409 195.784 L445.867 195.784 L445.867 199.719 L429.409 199.719 L429.409 212.242 L447.001 212.242 L447.001 216.178 L424.733 216.178 L424.733 181.618 Z" fill="#000000" fill-rule="nonzero" fill-opacity="1" /><path clip-path="url(#clip330)" d="M476.052 190.252 L466.677 202.867 L476.538 216.178 L471.515 216.178 L463.969 205.992 L456.423 216.178 L451.4 216.178 L461.469 202.613 L452.256 190.252 L457.279 190.252 L464.154 199.488 L471.029 190.252 L476.052 190.252 Z" fill="#000000" fill-rule="nonzero" fill-opacity="1" /><path clip-path="url(#clip330)" d="M494.339 203.145 Q489.177 203.145 487.186 204.326 Q485.196 205.506 485.196 208.354 Q485.196 210.622 486.677 211.965 Q488.182 213.284 490.751 213.284 Q494.293 213.284 496.422 210.784 Q498.575 208.261 498.575 204.094 L498.575 203.145 L494.339 203.145 M502.834 201.386 L502.834 216.178 L498.575 216.178 L498.575 212.242 Q497.117 214.603 494.941 215.738 Q492.765 216.849 489.617 216.849 Q485.635 216.849 483.274 214.627 Q480.936 212.381 480.936 208.631 Q480.936 204.256 483.853 202.034 Q486.793 199.812 492.603 199.812 L498.575 199.812 L498.575 199.395 Q498.575 196.455 496.631 194.858 Q494.71 193.238 491.214 193.238 Q488.992 193.238 486.885 193.77 Q484.779 194.303 482.835 195.367 L482.835 191.432 Q485.173 190.53 487.372 190.09 Q489.571 189.627 491.654 189.627 Q497.279 189.627 500.057 192.543 Q502.834 195.46 502.834 201.386 Z" fill="#000000" fill-rule="nonzero" fill-opacity="1" /><path clip-path="url(#clip330)" d="M530.265 191.247 L530.265 195.229 Q528.459 194.233 526.631 193.747 Q524.825 193.238 522.973 193.238 Q518.83 193.238 516.538 195.877 Q514.246 198.492 514.246 203.238 Q514.246 207.983 516.538 210.622 Q518.83 213.238 522.973 213.238 Q524.825 213.238 526.631 212.752 Q528.459 212.242 530.265 211.247 L530.265 215.182 Q528.482 216.016 526.561 216.432 Q524.663 216.849 522.51 216.849 Q516.654 216.849 513.205 213.168 Q509.756 209.488 509.756 203.238 Q509.756 196.895 513.228 193.261 Q516.723 189.627 522.788 189.627 Q524.756 189.627 526.631 190.043 Q528.506 190.437 530.265 191.247 Z" fill="#000000" fill-rule="nonzero" fill-opacity="1" /><path clip-path="url(#clip330)" d="M541.885 182.891 L541.885 190.252 L550.658 190.252 L550.658 193.562 L541.885 193.562 L541.885 207.636 Q541.885 210.807 542.742 211.71 Q543.621 212.613 546.283 212.613 L550.658 212.613 L550.658 216.178 L546.283 216.178 Q541.353 216.178 539.478 214.349 Q537.603 212.497 537.603 207.636 L537.603 193.562 L534.478 193.562 L534.478 190.252 L537.603 190.252 L537.603 182.891 L541.885 182.891 Z" fill="#000000" fill-rule="nonzero" fill-opacity="1" /></svg>
