<?xml version="1.0" encoding="utf-8"?>
<svg xmlns="http://www.w3.org/2000/svg" xmlns:xlink="http://www.w3.org/1999/xlink" width="600" height="400" viewBox="0 0 2400 1600">
<defs>
  <clipPath id="clip770">
    <rect x="0" y="0" width="2400" height="1600"/>
  </clipPath>
</defs>
<path clip-path="url(#clip770)" d="M0 1600 L2400 1600 L2400 0 L0 0  Z" fill="#ffffff" fill-rule="evenodd" fill-opacity="1"/>
<defs>
  <clipPath id="clip771">
    <rect x="480" y="0" width="1681" height="1600"/>
  </clipPath>
</defs>
<path clip-path="url(#clip770)" d="M156.274 1486.45 L2352.76 1486.45 L2352.76 47.2441 L156.274 47.2441  Z" fill="#ffffff" fill-rule="evenodd" fill-opacity="1"/>
<defs>
  <clipPath id="clip772">
    <rect x="156" y="47" width="2197" height="1440"/>
  </clipPath>
</defs>
<polyline clip-path="url(#clip772)" style="stroke:#000000; stroke-linecap:round; stroke-linejoin:round; stroke-width:2; stroke-opacity:0.1; fill:none" points="218.439,1486.45 218.439,47.2441 "/>
<polyline clip-path="url(#clip772)" style="stroke:#000000; stroke-linecap:round; stroke-linejoin:round; stroke-width:2; stroke-opacity:0.1; fill:none" points="736.477,1486.45 736.477,47.2441 "/>
<polyline clip-path="url(#clip772)" style="stroke:#000000; stroke-linecap:round; stroke-linejoin:round; stroke-width:2; stroke-opacity:0.1; fill:none" points="1254.52,1486.45 1254.52,47.2441 "/>
<polyline clip-path="url(#clip772)" style="stroke:#000000; stroke-linecap:round; stroke-linejoin:round; stroke-width:2; stroke-opacity:0.1; fill:none" points="1772.55,1486.45 1772.55,47.2441 "/>
<polyline clip-path="url(#clip772)" style="stroke:#000000; stroke-linecap:round; stroke-linejoin:round; stroke-width:2; stroke-opacity:0.1; fill:none" points="2290.59,1486.45 2290.59,47.2441 "/>
<polyline clip-path="url(#clip770)" style="stroke:#000000; stroke-linecap:round; stroke-linejoin:round; stroke-width:4; stroke-opacity:1; fill:none" points="156.274,1486.45 2352.76,1486.45 "/>
<polyline clip-path="url(#clip770)" style="stroke:#000000; stroke-linecap:round; stroke-linejoin:round; stroke-width:4; stroke-opacity:1; fill:none" points="218.439,1486.45 218.439,1467.55 "/>
<polyline clip-path="url(#clip770)" style="stroke:#000000; stroke-linecap:round; stroke-linejoin:round; stroke-width:4; stroke-opacity:1; fill:none" points="736.477,1486.45 736.477,1467.55 "/>
<polyline clip-path="url(#clip770)" style="stroke:#000000; stroke-linecap:round; stroke-linejoin:round; stroke-width:4; stroke-opacity:1; fill:none" points="1254.52,1486.45 1254.52,1467.55 "/>
<polyline clip-path="url(#clip770)" style="stroke:#000000; stroke-linecap:round; stroke-linejoin:round; stroke-width:4; stroke-opacity:1; fill:none" points="1772.55,1486.45 1772.55,1467.55 "/>
<polyline clip-path="url(#clip770)" style="stroke:#000000; stroke-linecap:round; stroke-linejoin:round; stroke-width:4; stroke-opacity:1; fill:none" points="2290.59,1486.45 2290.59,1467.55 "/>
<path clip-path="url(#clip770)" d="M164.967 1532.02 L194.643 1532.02 L194.643 1535.95 L164.967 1535.95 L164.967 1532.02 Z" fill="#000000" fill-rule="nonzero" fill-opacity="1" /><path clip-path="url(#clip770)" d="M205.545 1544.91 L213.184 1544.91 L213.184 1518.55 L204.874 1520.21 L204.874 1515.95 L213.138 1514.29 L217.814 1514.29 L217.814 1544.91 L225.453 1544.91 L225.453 1548.85 L205.545 1548.85 L205.545 1544.91 Z" fill="#000000" fill-rule="nonzero" fill-opacity="1" /><path clip-path="url(#clip770)" d="M234.897 1542.97 L239.781 1542.97 L239.781 1548.85 L234.897 1548.85 L234.897 1542.97 Z" fill="#000000" fill-rule="nonzero" fill-opacity="1" /><path clip-path="url(#clip770)" d="M259.966 1517.37 Q256.355 1517.37 254.527 1520.93 Q252.721 1524.47 252.721 1531.6 Q252.721 1538.71 254.527 1542.27 Q256.355 1545.82 259.966 1545.82 Q263.601 1545.82 265.406 1542.27 Q267.235 1538.71 267.235 1531.6 Q267.235 1524.47 265.406 1520.93 Q263.601 1517.37 259.966 1517.37 M259.966 1513.66 Q265.776 1513.66 268.832 1518.27 Q271.911 1522.85 271.911 1531.6 Q271.911 1540.33 268.832 1544.94 Q265.776 1549.52 259.966 1549.52 Q254.156 1549.52 251.077 1544.94 Q248.022 1540.33 248.022 1531.6 Q248.022 1522.85 251.077 1518.27 Q254.156 1513.66 259.966 1513.66 Z" fill="#000000" fill-rule="nonzero" fill-opacity="1" /><path clip-path="url(#clip770)" d="M683.503 1532.02 L713.178 1532.02 L713.178 1535.95 L683.503 1535.95 L683.503 1532.02 Z" fill="#000000" fill-rule="nonzero" fill-opacity="1" /><path clip-path="url(#clip770)" d="M733.271 1517.37 Q729.66 1517.37 727.831 1520.93 Q726.026 1524.47 726.026 1531.6 Q726.026 1538.71 727.831 1542.27 Q729.66 1545.82 733.271 1545.82 Q736.905 1545.82 738.711 1542.27 Q740.539 1538.71 740.539 1531.6 Q740.539 1524.47 738.711 1520.93 Q736.905 1517.37 733.271 1517.37 M733.271 1513.66 Q739.081 1513.66 742.137 1518.27 Q745.215 1522.85 745.215 1531.6 Q745.215 1540.33 742.137 1544.94 Q739.081 1549.52 733.271 1549.52 Q727.461 1549.52 724.382 1544.94 Q721.327 1540.33 721.327 1531.6 Q721.327 1522.85 724.382 1518.27 Q727.461 1513.66 733.271 1513.66 Z" fill="#000000" fill-rule="nonzero" fill-opacity="1" /><path clip-path="url(#clip770)" d="M753.433 1542.97 L758.317 1542.97 L758.317 1548.85 L753.433 1548.85 L753.433 1542.97 Z" fill="#000000" fill-rule="nonzero" fill-opacity="1" /><path clip-path="url(#clip770)" d="M768.548 1514.29 L786.905 1514.29 L786.905 1518.22 L772.831 1518.22 L772.831 1526.7 Q773.849 1526.35 774.868 1526.19 Q775.886 1526 776.905 1526 Q782.692 1526 786.072 1529.17 Q789.451 1532.34 789.451 1537.76 Q789.451 1543.34 785.979 1546.44 Q782.507 1549.52 776.187 1549.52 Q774.011 1549.52 771.743 1549.15 Q769.498 1548.78 767.09 1548.04 L767.09 1543.34 Q769.173 1544.47 771.396 1545.03 Q773.618 1545.58 776.095 1545.58 Q780.099 1545.58 782.437 1543.48 Q784.775 1541.37 784.775 1537.76 Q784.775 1534.15 782.437 1532.04 Q780.099 1529.94 776.095 1529.94 Q774.22 1529.94 772.345 1530.35 Q770.493 1530.77 768.548 1531.65 L768.548 1514.29 Z" fill="#000000" fill-rule="nonzero" fill-opacity="1" /><path clip-path="url(#clip770)" d="M1231.9 1517.37 Q1228.29 1517.37 1226.46 1520.93 Q1224.65 1524.47 1224.65 1531.6 Q1224.65 1538.71 1226.46 1542.27 Q1228.29 1545.82 1231.9 1545.82 Q1235.53 1545.82 1237.34 1542.27 Q1239.17 1538.71 1239.17 1531.6 Q1239.17 1524.47 1237.34 1520.93 Q1235.53 1517.37 1231.9 1517.37 M1231.9 1513.66 Q1237.71 1513.66 1240.77 1518.27 Q1243.84 1522.85 1243.84 1531.6 Q1243.84 1540.33 1240.77 1544.94 Q1237.71 1549.52 1231.9 1549.52 Q1226.09 1549.52 1223.01 1544.94 Q1219.96 1540.33 1219.96 1531.6 Q1219.96 1522.85 1223.01 1518.27 Q1226.09 1513.66 1231.9 1513.66 Z" fill="#000000" fill-rule="nonzero" fill-opacity="1" /><path clip-path="url(#clip770)" d="M1252.06 1542.97 L1256.95 1542.97 L1256.95 1548.85 L1252.06 1548.85 L1252.06 1542.97 Z" fill="#000000" fill-rule="nonzero" fill-opacity="1" /><path clip-path="url(#clip770)" d="M1277.13 1517.37 Q1273.52 1517.37 1271.69 1520.93 Q1269.89 1524.47 1269.89 1531.6 Q1269.89 1538.71 1271.69 1542.27 Q1273.52 1545.82 1277.13 1545.82 Q1280.76 1545.82 1282.57 1542.27 Q1284.4 1538.71 1284.4 1531.6 Q1284.4 1524.47 1282.57 1520.93 Q1280.76 1517.37 1277.13 1517.37 M1277.13 1513.66 Q1282.94 1513.66 1286 1518.27 Q1289.08 1522.85 1289.08 1531.6 Q1289.08 1540.33 1286 1544.94 Q1282.94 1549.52 1277.13 1549.52 Q1271.32 1549.52 1268.24 1544.94 Q1265.19 1540.33 1265.19 1531.6 Q1265.19 1522.85 1268.24 1518.27 Q1271.32 1513.66 1277.13 1513.66 Z" fill="#000000" fill-rule="nonzero" fill-opacity="1" /><path clip-path="url(#clip770)" d="M1750.44 1517.37 Q1746.82 1517.37 1745 1520.93 Q1743.19 1524.47 1743.19 1531.6 Q1743.19 1538.71 1745 1542.27 Q1746.82 1545.82 1750.44 1545.82 Q1754.07 1545.82 1755.88 1542.27 Q1757.7 1538.71 1757.7 1531.6 Q1757.7 1524.47 1755.88 1520.93 Q1754.07 1517.37 1750.44 1517.37 M1750.44 1513.66 Q1756.25 1513.66 1759.3 1518.27 Q1762.38 1522.85 1762.38 1531.6 Q1762.38 1540.33 1759.3 1544.94 Q1756.25 1549.52 1750.44 1549.52 Q1744.63 1549.52 1741.55 1544.94 Q1738.49 1540.33 1738.49 1531.6 Q1738.49 1522.85 1741.55 1518.27 Q1744.63 1513.66 1750.44 1513.66 Z" fill="#000000" fill-rule="nonzero" fill-opacity="1" /><path clip-path="url(#clip770)" d="M1770.6 1542.97 L1775.48 1542.97 L1775.48 1548.85 L1770.6 1548.85 L1770.6 1542.97 Z" fill="#000000" fill-rule="nonzero" fill-opacity="1" /><path clip-path="url(#clip770)" d="M1785.71 1514.29 L1804.07 1514.29 L1804.07 1518.22 L1790 1518.22 L1790 1526.7 Q1791.01 1526.35 1792.03 1526.19 Q1793.05 1526 1794.07 1526 Q1799.86 1526 1803.24 1529.17 Q1806.62 1532.34 1806.62 1537.76 Q1806.62 1543.34 1803.14 1546.44 Q1799.67 1549.52 1793.35 1549.52 Q1791.18 1549.52 1788.91 1549.15 Q1786.66 1548.78 1784.25 1548.04 L1784.25 1543.34 Q1786.34 1544.47 1788.56 1545.03 Q1790.78 1545.58 1793.26 1545.58 Q1797.26 1545.58 1799.6 1543.48 Q1801.94 1541.37 1801.94 1537.76 Q1801.94 1534.15 1799.6 1532.04 Q1797.26 1529.94 1793.26 1529.94 Q1791.38 1529.94 1789.51 1530.35 Q1787.66 1530.77 1785.71 1531.65 L1785.71 1514.29 Z" fill="#000000" fill-rule="nonzero" fill-opacity="1" /><path clip-path="url(#clip770)" d="M2257.74 1544.91 L2265.38 1544.91 L2265.38 1518.55 L2257.07 1520.21 L2257.07 1515.95 L2265.34 1514.29 L2270.01 1514.29 L2270.01 1544.91 L2277.65 1544.91 L2277.65 1548.85 L2257.74 1548.85 L2257.74 1544.91 Z" fill="#000000" fill-rule="nonzero" fill-opacity="1" /><path clip-path="url(#clip770)" d="M2287.1 1542.97 L2291.98 1542.97 L2291.98 1548.85 L2287.1 1548.85 L2287.1 1542.97 Z" fill="#000000" fill-rule="nonzero" fill-opacity="1" /><path clip-path="url(#clip770)" d="M2312.17 1517.37 Q2308.55 1517.37 2306.73 1520.93 Q2304.92 1524.47 2304.92 1531.6 Q2304.92 1538.71 2306.73 1542.27 Q2308.55 1545.82 2312.17 1545.82 Q2315.8 1545.82 2317.61 1542.27 Q2319.43 1538.71 2319.43 1531.6 Q2319.43 1524.47 2317.61 1520.93 Q2315.8 1517.37 2312.17 1517.37 M2312.17 1513.66 Q2317.98 1513.66 2321.03 1518.27 Q2324.11 1522.85 2324.11 1531.6 Q2324.11 1540.33 2321.03 1544.94 Q2317.98 1549.52 2312.17 1549.52 Q2306.36 1549.52 2303.28 1544.94 Q2300.22 1540.33 2300.22 1531.6 Q2300.22 1522.85 2303.28 1518.27 Q2306.36 1513.66 2312.17 1513.66 Z" fill="#000000" fill-rule="nonzero" fill-opacity="1" /><polyline clip-path="url(#clip772)" style="stroke:#000000; stroke-linecap:round; stroke-linejoin:round; stroke-width:2; stroke-opacity:0.1; fill:none" points="156.274,1251.59 2352.76,1251.59 "/>
<polyline clip-path="url(#clip772)" style="stroke:#000000; stroke-linecap:round; stroke-linejoin:round; stroke-width:2; stroke-opacity:0.1; fill:none" points="156.274,983.707 2352.76,983.707 "/>
<polyline clip-path="url(#clip772)" style="stroke:#000000; stroke-linecap:round; stroke-linejoin:round; stroke-width:2; stroke-opacity:0.1; fill:none" points="156.274,715.827 2352.76,715.827 "/>
<polyline clip-path="url(#clip772)" style="stroke:#000000; stroke-linecap:round; stroke-linejoin:round; stroke-width:2; stroke-opacity:0.1; fill:none" points="156.274,447.948 2352.76,447.948 "/>
<polyline clip-path="url(#clip772)" style="stroke:#000000; stroke-linecap:round; stroke-linejoin:round; stroke-width:2; stroke-opacity:0.1; fill:none" points="156.274,180.069 2352.76,180.069 "/>
<polyline clip-path="url(#clip770)" style="stroke:#000000; stroke-linecap:round; stroke-linejoin:round; stroke-width:4; stroke-opacity:1; fill:none" points="156.274,1486.45 156.274,47.2441 "/>
<polyline clip-path="url(#clip770)" style="stroke:#000000; stroke-linecap:round; stroke-linejoin:round; stroke-width:4; stroke-opacity:1; fill:none" points="156.274,1251.59 175.172,1251.59 "/>
<polyline clip-path="url(#clip770)" style="stroke:#000000; stroke-linecap:round; stroke-linejoin:round; stroke-width:4; stroke-opacity:1; fill:none" points="156.274,983.707 175.172,983.707 "/>
<polyline clip-path="url(#clip770)" style="stroke:#000000; stroke-linecap:round; stroke-linejoin:round; stroke-width:4; stroke-opacity:1; fill:none" points="156.274,715.827 175.172,715.827 "/>
<polyline clip-path="url(#clip770)" style="stroke:#000000; stroke-linecap:round; stroke-linejoin:round; stroke-width:4; stroke-opacity:1; fill:none" points="156.274,447.948 175.172,447.948 "/>
<polyline clip-path="url(#clip770)" style="stroke:#000000; stroke-linecap:round; stroke-linejoin:round; stroke-width:4; stroke-opacity:1; fill:none" points="156.274,180.069 175.172,180.069 "/>
<path clip-path="url(#clip770)" d="M63.0985 1237.38 Q59.4875 1237.38 57.6588 1240.95 Q55.8532 1244.49 55.8532 1251.62 Q55.8532 1258.73 57.6588 1262.29 Q59.4875 1265.83 63.0985 1265.83 Q66.7328 1265.83 68.5383 1262.29 Q70.367 1258.73 70.367 1251.62 Q70.367 1244.49 68.5383 1240.95 Q66.7328 1237.38 63.0985 1237.38 M63.0985 1233.68 Q68.9087 1233.68 71.9642 1238.29 Q75.0429 1242.87 75.0429 1251.62 Q75.0429 1260.35 71.9642 1264.95 Q68.9087 1269.54 63.0985 1269.54 Q57.2884 1269.54 54.2097 1264.95 Q51.1542 1260.35 51.1542 1251.62 Q51.1542 1242.87 54.2097 1238.29 Q57.2884 1233.68 63.0985 1233.68 Z" fill="#000000" fill-rule="nonzero" fill-opacity="1" /><path clip-path="url(#clip770)" d="M83.2605 1262.99 L88.1447 1262.99 L88.1447 1268.87 L83.2605 1268.87 L83.2605 1262.99 Z" fill="#000000" fill-rule="nonzero" fill-opacity="1" /><path clip-path="url(#clip770)" d="M108.33 1237.38 Q104.719 1237.38 102.89 1240.95 Q101.084 1244.49 101.084 1251.62 Q101.084 1258.73 102.89 1262.29 Q104.719 1265.83 108.33 1265.83 Q111.964 1265.83 113.77 1262.29 Q115.598 1258.73 115.598 1251.62 Q115.598 1244.49 113.77 1240.95 Q111.964 1237.38 108.33 1237.38 M108.33 1233.68 Q114.14 1233.68 117.195 1238.29 Q120.274 1242.87 120.274 1251.62 Q120.274 1260.35 117.195 1264.95 Q114.14 1269.54 108.33 1269.54 Q102.52 1269.54 99.4409 1264.95 Q96.3854 1260.35 96.3854 1251.62 Q96.3854 1242.87 99.4409 1238.29 Q102.52 1233.68 108.33 1233.68 Z" fill="#000000" fill-rule="nonzero" fill-opacity="1" /><path clip-path="url(#clip770)" d="M63.7467 969.505 Q60.1356 969.505 58.3069 973.07 Q56.5014 976.612 56.5014 983.741 Q56.5014 990.848 58.3069 994.413 Q60.1356 997.954 63.7467 997.954 Q67.3809 997.954 69.1865 994.413 Q71.0152 990.848 71.0152 983.741 Q71.0152 976.612 69.1865 973.07 Q67.3809 969.505 63.7467 969.505 M63.7467 965.802 Q69.5568 965.802 72.6124 970.408 Q75.6911 974.991 75.6911 983.741 Q75.6911 992.468 72.6124 997.075 Q69.5568 1001.66 63.7467 1001.66 Q57.9365 1001.66 54.8578 997.075 Q51.8023 992.468 51.8023 983.741 Q51.8023 974.991 54.8578 970.408 Q57.9365 965.802 63.7467 965.802 Z" fill="#000000" fill-rule="nonzero" fill-opacity="1" /><path clip-path="url(#clip770)" d="M83.9086 995.107 L88.7928 995.107 L88.7928 1000.99 L83.9086 1000.99 L83.9086 995.107 Z" fill="#000000" fill-rule="nonzero" fill-opacity="1" /><path clip-path="url(#clip770)" d="M113.145 982.352 Q116.501 983.07 118.376 985.339 Q120.274 987.607 120.274 990.94 Q120.274 996.056 116.756 998.857 Q113.237 1001.66 106.756 1001.66 Q104.58 1001.66 102.265 1001.22 Q99.9733 1000.8 97.5197 999.945 L97.5197 995.431 Q99.4641 996.565 101.779 997.144 Q104.094 997.723 106.617 997.723 Q111.015 997.723 113.307 995.987 Q115.621 994.251 115.621 990.94 Q115.621 987.885 113.469 986.172 Q111.339 984.436 107.52 984.436 L103.492 984.436 L103.492 980.593 L107.705 980.593 Q111.154 980.593 112.983 979.227 Q114.811 977.839 114.811 975.246 Q114.811 972.584 112.913 971.172 Q111.038 969.737 107.52 969.737 Q105.598 969.737 103.399 970.153 Q101.2 970.57 98.5613 971.45 L98.5613 967.283 Q101.223 966.542 103.538 966.172 Q105.876 965.802 107.936 965.802 Q113.26 965.802 116.362 968.232 Q119.464 970.64 119.464 974.76 Q119.464 977.63 117.82 979.621 Q116.177 981.589 113.145 982.352 Z" fill="#000000" fill-rule="nonzero" fill-opacity="1" /><path clip-path="url(#clip770)" d="M62.9365 701.626 Q59.3254 701.626 57.4967 705.191 Q55.6912 708.733 55.6912 715.862 Q55.6912 722.969 57.4967 726.533 Q59.3254 730.075 62.9365 730.075 Q66.5707 730.075 68.3763 726.533 Q70.205 722.969 70.205 715.862 Q70.205 708.733 68.3763 705.191 Q66.5707 701.626 62.9365 701.626 M62.9365 697.922 Q68.7467 697.922 71.8022 702.529 Q74.8809 707.112 74.8809 715.862 Q74.8809 724.589 71.8022 729.195 Q68.7467 733.779 62.9365 733.779 Q57.1264 733.779 54.0477 729.195 Q50.9921 724.589 50.9921 715.862 Q50.9921 707.112 54.0477 702.529 Q57.1264 697.922 62.9365 697.922 Z" fill="#000000" fill-rule="nonzero" fill-opacity="1" /><path clip-path="url(#clip770)" d="M83.0984 727.228 L87.9827 727.228 L87.9827 733.107 L83.0984 733.107 L83.0984 727.228 Z" fill="#000000" fill-rule="nonzero" fill-opacity="1" /><path clip-path="url(#clip770)" d="M108.746 713.964 Q105.598 713.964 103.746 716.117 Q101.918 718.27 101.918 722.02 Q101.918 725.746 103.746 727.922 Q105.598 730.075 108.746 730.075 Q111.895 730.075 113.723 727.922 Q115.575 725.746 115.575 722.02 Q115.575 718.27 113.723 716.117 Q111.895 713.964 108.746 713.964 M118.029 699.311 L118.029 703.571 Q116.27 702.737 114.464 702.297 Q112.682 701.858 110.922 701.858 Q106.293 701.858 103.839 704.983 Q101.409 708.108 101.061 714.427 Q102.427 712.413 104.487 711.348 Q106.547 710.26 109.024 710.26 Q114.233 710.26 117.242 713.432 Q120.274 716.58 120.274 722.02 Q120.274 727.344 117.126 730.561 Q113.978 733.779 108.746 733.779 Q102.751 733.779 99.5798 729.195 Q96.4085 724.589 96.4085 715.862 Q96.4085 707.668 100.297 702.807 Q104.186 697.922 110.737 697.922 Q112.496 697.922 114.279 698.27 Q116.084 698.617 118.029 699.311 Z" fill="#000000" fill-rule="nonzero" fill-opacity="1" /><path clip-path="url(#clip770)" d="M63.2837 433.747 Q59.6726 433.747 57.8439 437.312 Q56.0384 440.853 56.0384 447.983 Q56.0384 455.089 57.8439 458.654 Q59.6726 462.196 63.2837 462.196 Q66.918 462.196 68.7235 458.654 Q70.5522 455.089 70.5522 447.983 Q70.5522 440.853 68.7235 437.312 Q66.918 433.747 63.2837 433.747 M63.2837 430.043 Q69.0939 430.043 72.1494 434.65 Q75.2281 439.233 75.2281 447.983 Q75.2281 456.71 72.1494 461.316 Q69.0939 465.9 63.2837 465.9 Q57.4736 465.9 54.3949 461.316 Q51.3393 456.71 51.3393 447.983 Q51.3393 439.233 54.3949 434.65 Q57.4736 430.043 63.2837 430.043 Z" fill="#000000" fill-rule="nonzero" fill-opacity="1" /><path clip-path="url(#clip770)" d="M83.4457 459.349 L88.3299 459.349 L88.3299 465.228 L83.4457 465.228 L83.4457 459.349 Z" fill="#000000" fill-rule="nonzero" fill-opacity="1" /><path clip-path="url(#clip770)" d="M98.6539 464.511 L98.6539 460.251 Q100.413 461.085 102.219 461.525 Q104.024 461.964 105.76 461.964 Q110.39 461.964 112.82 458.863 Q115.274 455.738 115.621 449.395 Q114.279 451.386 112.219 452.451 Q110.158 453.515 107.658 453.515 Q102.473 453.515 99.4409 450.39 Q96.4317 447.242 96.4317 441.802 Q96.4317 436.478 99.5798 433.261 Q102.728 430.043 107.959 430.043 Q113.955 430.043 117.103 434.65 Q120.274 439.233 120.274 447.983 Q120.274 456.154 116.385 461.038 Q112.52 465.9 105.969 465.9 Q104.209 465.9 102.404 465.552 Q100.598 465.205 98.6539 464.511 M107.959 449.858 Q111.108 449.858 112.936 447.705 Q114.788 445.552 114.788 441.802 Q114.788 438.076 112.936 435.923 Q111.108 433.747 107.959 433.747 Q104.811 433.747 102.959 435.923 Q101.131 438.076 101.131 441.802 Q101.131 445.552 102.959 447.705 Q104.811 449.858 107.959 449.858 Z" fill="#000000" fill-rule="nonzero" fill-opacity="1" /><path clip-path="url(#clip770)" d="M55.506 193.414 L63.1448 193.414 L63.1448 167.048 L54.8347 168.715 L54.8347 164.456 L63.0985 162.789 L67.7744 162.789 L67.7744 193.414 L75.4133 193.414 L75.4133 197.349 L55.506 197.349 L55.506 193.414 Z" fill="#000000" fill-rule="nonzero" fill-opacity="1" /><path clip-path="url(#clip770)" d="M84.8577 191.469 L89.7419 191.469 L89.7419 197.349 L84.8577 197.349 L84.8577 191.469 Z" fill="#000000" fill-rule="nonzero" fill-opacity="1" /><path clip-path="url(#clip770)" d="M103.955 193.414 L120.274 193.414 L120.274 197.349 L98.3298 197.349 L98.3298 193.414 Q100.992 190.659 105.575 186.03 Q110.182 181.377 111.362 180.034 Q113.608 177.511 114.487 175.775 Q115.39 174.016 115.39 172.326 Q115.39 169.571 113.445 167.835 Q111.524 166.099 108.422 166.099 Q106.223 166.099 103.77 166.863 Q101.339 167.627 98.5613 169.178 L98.5613 164.456 Q101.385 163.321 103.839 162.743 Q106.293 162.164 108.33 162.164 Q113.7 162.164 116.895 164.849 Q120.089 167.534 120.089 172.025 Q120.089 174.155 119.279 176.076 Q118.492 177.974 116.385 180.567 Q115.807 181.238 112.705 184.456 Q109.603 187.65 103.955 193.414 Z" fill="#000000" fill-rule="nonzero" fill-opacity="1" /><polyline clip-path="url(#clip772)" style="stroke:#009af9; stroke-linecap:round; stroke-linejoin:round; stroke-width:16; stroke-opacity:1; fill:none" stroke-dasharray="8, 16" points="218.439,1116.49 228.852,1100.5 239.264,1087.9 249.677,1079.44 260.09,1075.69 270.503,1077.1 280.916,1084 291.329,1096.57 301.741,1114.78 312.154,1138.36 322.567,1166.62 332.98,1198.41 343.393,1232.08 353.805,1265.75 364.218,1297.68 374.631,1326.66 385.044,1352.31 395.457,1374.83 405.87,1394.52 416.282,1411.25 426.695,1424.26 437.108,1432.35 447.521,1434.23 457.934,1428.41 468.347,1412.79 478.759,1386.31 489.172,1353.84 499.585,1326.25 509.998,1308.73 520.411,1293.79 530.824,1270.78 541.236,1236.34 551.649,1195.16 562.062,1155.22 572.475,1123.02 582.888,1101.43 593.301,1089.74 603.713,1084.94 614.126,1083.31 624.539,1082.31 634.952,1082.03 645.365,1085.45 655.777,1096.64 666.19,1117.52 676.603,1145.93 687.016,1177.25 697.429,1208.24 707.842,1238.83 718.254,1270.38 728.667,1302.85 739.08,1334.14 749.493,1361.78 759.906,1384.62 770.319,1402.84 780.731,1416.86 791.144,1426.48 801.557,1430.6 811.97,1427.48 822.383,1415.76 832.796,1396.83 843.208,1377.23 853.621,1365.58 864.034,1361.26 874.447,1347.99 884.86,1307.94 895.273,1243.33 905.685,1180.41 916.098,1146.57 926.511,1137.99 936.924,1127.65 947.337,1101.58 957.749,1072.32 968.162,1061.05 978.575,1071.52 988.988,1090.46 999.401,1103.52 1009.81,1108.78 1020.23,1112.03 1030.64,1097.83 1041.05,1062.93 1051.46,1102.47 1061.88,1202.14 1072.29,1277.8 1082.7,1319.25 1093.12,1336.82 1103.53,1345.4 1113.94,1356.25 1124.35,1372.86 1134.77,1393.99 1145.18,1416.55 1155.59,1435.81 1166.01,1445.72 1176.42,1441.07 1186.83,1421.44 1197.24,1396.23 1207.66,1382.13 1218.07,1380.23 1228.48,1353.52 1238.9,1244.31 1249.31,1015.35 1259.72,695.646 1270.13,426.824 1280.55,333.36 1290.96,340.21 1301.37,353.733 1311.79,366.677 1322.2,379.521 1332.61,383.181 1343.02,372.51 1353.44,352.208 1363.85,333.467 1374.26,325.345 1384.68,329.49 1395.09,342.024 1405.5,358.006 1415.91,373.892 1426.33,387.621 1436.74,397.737 1447.15,402.434 1457.57,398.703 1467.98,381.937 1478.39,347.288 1488.8,295.038 1499.22,243.833 1509.63,239.893 1520.04,301.85 1530.45,379.286 1540.87,439.571 1551.28,474.664 1561.69,466.824 1572.11,411.453 1582.52,330.903 1592.93,266.273 1603.34,246.735 1613.76,265.688 1624.17,302.805 1634.58,342.859 1645,378.542 1655.41,408.024 1665.82,429.622 1676.23,439.652 1686.65,433.898 1697.06,410.166 1707.47,370.853 1717.89,322.598 1728.3,274.077 1738.71,239.209 1749.12,241.132 1759.54,295.567 1769.95,380.671 1780.36,449.504 1790.78,478.28 1801.19,473.345 1811.6,444.33 1822.01,393.222 1832.43,322.674 1842.84,248.369 1853.25,200.48 1863.67,205.49 1874.08,264.81 1884.49,354.383 1894.9,441.617 1905.32,501.129 1915.73,520.61 1926.14,498.875 1936.56,441.874 1946.97,360.995 1957.38,273.964 1967.79,204.469 1978.21,175.788 1988.62,199.84 1999.03,270.446 2009.45,366.804 2019.86,462.922 2030.27,535.305 2040.68,566.219 2051.1,544.374 2061.51,466.237 2071.92,341.683 2082.33,202.875 2092.75,102.524 2103.16,87.9763 2113.57,169.789 2123.99,317.24 2134.4,476.729 2144.81,592.301 2155.22,625.135 2165.64,569.53 2176.05,453.25 2186.46,321.885 2196.88,217.535 2207.29,162.714 2217.7,159.744 2228.11,199.972 2238.53,269.973 2248.94,353.381 2259.35,433.86 2269.77,500.061 2280.18,548.297 2290.59,580.847 "/>
<polyline clip-path="url(#clip772)" style="stroke:#e26f46; stroke-linecap:round; stroke-linejoin:round; stroke-width:4; stroke-opacity:1; fill:none" points="218.439,1117.47 228.852,1098.44 239.264,1084.41 249.677,1075.84 260.09,1073 270.503,1075.99 280.916,1084.71 291.329,1098.88 301.741,1118.03 312.154,1141.54 322.567,1168.64 332.98,1198.45 343.393,1230 353.805,1262.25 364.218,1294.14 374.631,1324.66 385.044,1352.78 395.457,1377.61 405.87,1398.32 416.282,1414.24 426.695,1424.85 437.108,1429.81 447.521,1428.95 457.934,1422.3 468.347,1410.08 478.759,1392.69 489.172,1370.69 499.585,1344.81 509.998,1315.88 520.411,1284.86 530.824,1252.75 541.236,1220.6 551.649,1189.46 562.062,1160.35 572.475,1134.22 582.888,1111.91 593.301,1094.17 603.713,1081.56 614.126,1074.51 624.539,1073.23 634.952,1077.77 645.365,1087.99 655.777,1103.55 666.19,1123.93 676.603,1148.49 687.016,1176.41 697.429,1206.78 707.842,1238.61 718.254,1270.87 728.667,1302.5 739.08,1332.47 749.493,1359.79 759.906,1383.59 770.319,1403.08 780.731,1417.62 791.144,1426.74 801.557,1430.15 811.97,1427.73 822.383,1419.56 832.796,1405.91 843.208,1387.22 853.621,1364.11 864.034,1337.32 874.447,1307.73 884.86,1276.32 895.273,1244.09 905.685,1212.11 916.098,1181.42 926.511,1153.02 936.924,1127.83 947.337,1106.69 957.749,1090.27 968.162,1079.12 978.575,1073.59 988.988,1073.88 999.401,1079.97 1009.81,1091.65 1020.23,1108.56 1030.64,1130.14 1041.05,1155.67 1051.46,1184.34 1061.88,1215.21 1072.29,1247.26 1082.7,1279.45 1093.12,1310.73 1103.53,1340.09 1113.94,1366.55 1124.35,1389.26 1134.77,1407.48 1145.18,1420.61 1155.59,1428.22 1166.01,1430.07 1176.42,1426.1 1186.83,1416.43 1197.24,1401.37 1207.66,1381.43 1218.07,1357.26 1228.48,1329.63 1238.9,1299.45 1249.31,1267.72 1259.72,357.358 1270.13,355.883 1280.55,357.226 1290.96,361.697 1301.37,367.926 1311.79,373.281 1322.2,374.867 1332.61,370.747 1343.02,360.924 1353.44,347.683 1363.85,335.082 1374.26,327.722 1384.68,329.134 1395.09,340.365 1405.5,359.255 1415.91,380.754 1426.33,398.26 1436.74,405.645 1447.15,399.324 1457.57,379.71 1467.98,351.498 1478.39,322.585 1488.8,301.863 1499.22,296.495 1509.63,309.508 1520.04,338.5 1530.45,375.943 1540.87,411.115 1551.28,433.174 1561.69,434.48 1572.11,413.169 1582.52,374.112 1592.93,327.878 1603.34,287.886 1613.76,266.508 1624.17,271.262 1634.58,302.256 1645,351.735 1655.41,405.978 1665.82,449.095 1676.23,467.685 1686.65,454.972 1697.06,413.172 1707.47,353.259 1717.89,292.119 1728.3,247.788 1738.71,234.135 1749.12,256.553 1759.54,309.989 1769.95,379.99 1780.36,446.605 1790.78,490.066 1801.19,496.649 1811.6,462.974 1822.01,397.402 1832.43,318.013 1842.84,247.627 1853.25,207.248 1863.67,209.801 1874.08,256.04 1884.49,333.904 1894.9,421.629 1905.32,493.829 1915.73,528.839 1926.14,515.206 1936.56,455.38 1946.97,365.433 1957.38,270.758 1967.79,198.909 1978.21,171.579 1988.62,198.065 1999.03,272.183 2009.45,373.636 2019.86,473.556 2030.27,542.721 2040.68,560.094 2051.1,519.205 2061.51,430.435 2071.92,318.427 2082.33,215.249 2092.75,151.219 2103.16,145.996 2113.57,202.572 2123.99,305.981 2134.4,427.231 2144.81,531.426 2155.22,587.807 2165.64,578.831 2176.05,505.591 2186.46,387.936 2196.88,259.106 2207.29,156.347 2217.7,110.139 2228.11,135.171 2238.53,225.708 2248.94,356.822 2259.35,491.242 2269.77,589.953 2280.18,623.508 2290.59,580.81 "/>
<path clip-path="url(#clip770)" d="M229.49 250.738 L675.966 250.738 L675.966 95.2176 L229.49 95.2176  Z" fill="#ffffff" fill-rule="evenodd" fill-opacity="1"/>
<polyline clip-path="url(#clip770)" style="stroke:#000000; stroke-linecap:round; stroke-linejoin:round; stroke-width:4; stroke-opacity:1; fill:none" points="229.49,250.738 675.966,250.738 675.966,95.2176 229.49,95.2176 229.49,250.738 "/>
<polyline clip-path="url(#clip770)" style="stroke:#009af9; stroke-linecap:round; stroke-linejoin:round; stroke-width:16; stroke-opacity:1; fill:none" stroke-dasharray="8, 16" points="253.896,147.058 400.328,147.058 "/>
<path clip-path="url(#clip770)" d="M429.409 133.62 L429.409 146.606 L435.289 146.606 Q438.552 146.606 440.335 144.916 Q442.117 143.227 442.117 140.102 Q442.117 137 440.335 135.31 Q438.552 133.62 435.289 133.62 L429.409 133.62 M424.733 129.778 L435.289 129.778 Q441.099 129.778 444.062 132.416 Q447.048 135.032 447.048 140.102 Q447.048 145.217 444.062 147.833 Q441.099 150.449 435.289 150.449 L429.409 150.449 L429.409 164.338 L424.733 164.338 L424.733 129.778 Z" fill="#000000" fill-rule="nonzero" fill-opacity="1" /><path clip-path="url(#clip770)" d="M467.325 142.393 Q466.608 141.977 465.751 141.791 Q464.918 141.583 463.899 141.583 Q460.288 141.583 458.344 143.944 Q456.423 146.282 456.423 150.68 L456.423 164.338 L452.14 164.338 L452.14 138.412 L456.423 138.412 L456.423 142.44 Q457.765 140.078 459.918 138.944 Q462.071 137.787 465.149 137.787 Q465.589 137.787 466.122 137.856 Q466.654 137.903 467.302 138.018 L467.325 142.393 Z" fill="#000000" fill-rule="nonzero" fill-opacity="1" /><path clip-path="url(#clip770)" d="M492.927 150.31 L492.927 152.393 L473.344 152.393 Q473.622 156.791 475.983 159.106 Q478.367 161.398 482.603 161.398 Q485.057 161.398 487.348 160.796 Q489.663 160.194 491.932 158.99 L491.932 163.018 Q489.64 163.99 487.233 164.5 Q484.825 165.009 482.348 165.009 Q476.145 165.009 472.511 161.398 Q468.899 157.787 468.899 151.629 Q468.899 145.264 472.325 141.537 Q475.774 137.787 481.608 137.787 Q486.839 137.787 489.872 141.166 Q492.927 144.523 492.927 150.31 M488.668 149.06 Q488.622 145.565 486.7 143.481 Q484.802 141.398 481.654 141.398 Q478.089 141.398 475.936 143.412 Q473.807 145.426 473.483 149.083 L488.668 149.06 Z" fill="#000000" fill-rule="nonzero" fill-opacity="1" /><path clip-path="url(#clip770)" d="M516.978 142.347 L516.978 128.319 L521.237 128.319 L521.237 164.338 L516.978 164.338 L516.978 160.449 Q515.635 162.763 513.575 163.898 Q511.538 165.009 508.668 165.009 Q503.969 165.009 501.006 161.259 Q498.066 157.509 498.066 151.398 Q498.066 145.287 501.006 141.537 Q503.969 137.787 508.668 137.787 Q511.538 137.787 513.575 138.921 Q515.635 140.032 516.978 142.347 M502.464 151.398 Q502.464 156.097 504.385 158.782 Q506.33 161.444 509.709 161.444 Q513.089 161.444 515.033 158.782 Q516.978 156.097 516.978 151.398 Q516.978 146.699 515.033 144.037 Q513.089 141.352 509.709 141.352 Q506.33 141.352 504.385 144.037 Q502.464 146.699 502.464 151.398 Z" fill="#000000" fill-rule="nonzero" fill-opacity="1" /><path clip-path="url(#clip770)" d="M530.01 138.412 L534.269 138.412 L534.269 164.338 L530.01 164.338 L530.01 138.412 M530.01 128.319 L534.269 128.319 L534.269 133.713 L530.01 133.713 L530.01 128.319 Z" fill="#000000" fill-rule="nonzero" fill-opacity="1" /><path clip-path="url(#clip770)" d="M561.839 139.407 L561.839 143.389 Q560.033 142.393 558.205 141.907 Q556.399 141.398 554.547 141.398 Q550.404 141.398 548.112 144.037 Q545.82 146.652 545.82 151.398 Q545.82 156.143 548.112 158.782 Q550.404 161.398 554.547 161.398 Q556.399 161.398 558.205 160.912 Q560.033 160.402 561.839 159.407 L561.839 163.342 Q560.056 164.176 558.135 164.592 Q556.237 165.009 554.084 165.009 Q548.228 165.009 544.779 161.328 Q541.33 157.648 541.33 151.398 Q541.33 145.055 544.802 141.421 Q548.297 137.787 554.362 137.787 Q556.33 137.787 558.205 138.203 Q560.08 138.597 561.839 139.407 Z" fill="#000000" fill-rule="nonzero" fill-opacity="1" /><path clip-path="url(#clip770)" d="M573.459 131.051 L573.459 138.412 L582.232 138.412 L582.232 141.722 L573.459 141.722 L573.459 155.796 Q573.459 158.967 574.316 159.87 Q575.195 160.773 577.857 160.773 L582.232 160.773 L582.232 164.338 L577.857 164.338 Q572.927 164.338 571.052 162.509 Q569.177 160.657 569.177 155.796 L569.177 141.722 L566.052 141.722 L566.052 138.412 L569.177 138.412 L569.177 131.051 L573.459 131.051 Z" fill="#000000" fill-rule="nonzero" fill-opacity="1" /><path clip-path="url(#clip770)" d="M587.834 138.412 L592.093 138.412 L592.093 164.338 L587.834 164.338 L587.834 138.412 M587.834 128.319 L592.093 128.319 L592.093 133.713 L587.834 133.713 L587.834 128.319 Z" fill="#000000" fill-rule="nonzero" fill-opacity="1" /><path clip-path="url(#clip770)" d="M611.051 141.398 Q607.626 141.398 605.635 144.083 Q603.644 146.745 603.644 151.398 Q603.644 156.051 605.612 158.736 Q607.602 161.398 611.051 161.398 Q614.454 161.398 616.445 158.713 Q618.436 156.027 618.436 151.398 Q618.436 146.791 616.445 144.106 Q614.454 141.398 611.051 141.398 M611.051 137.787 Q616.607 137.787 619.778 141.398 Q622.95 145.009 622.95 151.398 Q622.95 157.764 619.778 161.398 Q616.607 165.009 611.051 165.009 Q605.473 165.009 602.302 161.398 Q599.153 157.764 599.153 151.398 Q599.153 145.009 602.302 141.398 Q605.473 137.787 611.051 137.787 Z" fill="#000000" fill-rule="nonzero" fill-opacity="1" /><path clip-path="url(#clip770)" d="M651.561 148.689 L651.561 164.338 L647.301 164.338 L647.301 148.828 Q647.301 145.148 645.866 143.319 Q644.431 141.49 641.561 141.49 Q638.112 141.49 636.121 143.69 Q634.13 145.889 634.13 149.685 L634.13 164.338 L629.848 164.338 L629.848 138.412 L634.13 138.412 L634.13 142.44 Q635.658 140.102 637.718 138.944 Q639.801 137.787 642.51 137.787 Q646.977 137.787 649.269 140.565 Q651.561 143.319 651.561 148.689 Z" fill="#000000" fill-rule="nonzero" fill-opacity="1" /><polyline clip-path="url(#clip770)" style="stroke:#e26f46; stroke-linecap:round; stroke-linejoin:round; stroke-width:4; stroke-opacity:1; fill:none" points="253.896,198.898 400.328,198.898 "/>
<path clip-path="url(#clip770)" d="M424.733 181.618 L446.585 181.618 L446.585 185.553 L429.409 185.553 L429.409 195.784 L445.867 195.784 L445.867 199.719 L429.409 199.719 L429.409 212.242 L447.001 212.242 L447.001 216.178 L424.733 216.178 L424.733 181.618 Z" fill="#000000" fill-rule="nonzero" fill-opacity="1" /><path clip-path="url(#clip770)" d="M476.052 190.252 L466.677 202.867 L476.538 216.178 L471.515 216.178 L463.969 205.992 L456.423 216.178 L451.4 216.178 L461.469 202.613 L452.256 190.252 L457.279 190.252 L464.154 199.488 L471.029 190.252 L476.052 190.252 Z" fill="#000000" fill-rule="nonzero" fill-opacity="1" /><path clip-path="url(#clip770)" d="M494.339 203.145 Q489.177 203.145 487.186 204.326 Q485.196 205.506 485.196 208.354 Q485.196 210.622 486.677 211.965 Q488.182 213.284 490.751 213.284 Q494.293 213.284 496.422 210.784 Q498.575 208.261 498.575 204.094 L498.575 203.145 L494.339 203.145 M502.834 201.386 L502.834 216.178 L498.575 216.178 L498.575 212.242 Q497.117 214.603 494.941 215.738 Q492.765 216.849 489.617 216.849 Q485.635 216.849 483.274 214.627 Q480.936 212.381 480.936 208.631 Q480.936 204.256 483.853 202.034 Q486.793 199.812 492.603 199.812 L498.575 199.812 L498.575 199.395 Q498.575 196.455 496.631 194.858 Q494.71 193.238 491.214 193.238 Q488.992 193.238 486.885 193.77 Q484.779 194.303 482.835 195.367 L482.835 191.432 Q485.173 190.53 487.372 190.09 Q489.571 189.627 491.654 189.627 Q497.279 189.627 500.057 192.543 Q502.834 195.46 502.834 201.386 Z" fill="#000000" fill-rule="nonzero" fill-opacity="1" /><path clip-path="url(#clip770)" d="M530.265 191.247 L530.265 195.229 Q528.459 194.233 526.631 193.747 Q524.825 193.238 522.973 193.238 Q518.83 193.238 516.538 195.877 Q514.246 198.492 514.246 203.238 Q514.246 207.983 516.538 210.622 Q518.83 213.238 522.973 213.238 Q524.825 213.238 526.631 212.752 Q528.459 212.242 530.265 211.247 L530.265 215.182 Q528.482 216.016 526.561 216.432 Q524.663 216.849 522.51 216.849 Q516.654 216.849 513.205 213.168 Q509.756 209.488 509.756 203.238 Q509.756 196.895 513.228 193.261 Q516.723 189.627 522.788 189.627 Q524.756 189.627 526.631 190.043 Q528.506 190.437 530.265 191.247 Z" fill="#000000" fill-rule="nonzero" fill-opacity="1" /><path clip-path="url(#clip770)" d="M541.885 182.891 L541.885 190.252 L550.658 190.252 L550.658 193.562 L541.885 193.562 L541.885 207.636 Q541.885 210.807 542.742 211.71 Q543.621 212.613 546.283 212.613 L550.658 212.613 L550.658 216.178 L546.283 216.178 Q541.353 216.178 539.478 214.349 Q537.603 212.497 537.603 207.636 L537.603 193.562 L534.478 193.562 L534.478 190.252 L537.603 190.252 L537.603 182.891 L541.885 182.891 Z" fill="#000000" fill-rule="nonzero" fill-opacity="1" /></svg>
