<?xml version="1.0" encoding="utf-8"?>
<svg xmlns="http://www.w3.org/2000/svg" xmlns:xlink="http://www.w3.org/1999/xlink" width="600" height="400" viewBox="0 0 2400 1600">
<defs>
  <clipPath id="clip450">
    <rect x="0" y="0" width="2400" height="1600"/>
  </clipPath>
</defs>
<path clip-path="url(#clip450)" d="M0 1600 L2400 1600 L2400 0 L0 0  Z" fill="#ffffff" fill-rule="evenodd" fill-opacity="1"/>
<defs>
  <clipPath id="clip451">
    <rect x="480" y="0" width="1681" height="1600"/>
  </clipPath>
</defs>
<path clip-path="url(#clip450)" d="M192.339 1486.45 L2352.76 1486.45 L2352.76 47.2441 L192.339 47.2441  Z" fill="#ffffff" fill-rule="evenodd" fill-opacity="1"/>
<defs>
  <clipPath id="clip452">
    <rect x="192" y="47" width="2161" height="1440"/>
  </clipPath>
</defs>
<polyline clip-path="url(#clip452)" style="stroke:#000000; stroke-linecap:round; stroke-linejoin:round; stroke-width:2; stroke-opacity:0.1; fill:none" points="253.483,1486.45 253.483,47.2441 "/>
<polyline clip-path="url(#clip452)" style="stroke:#000000; stroke-linecap:round; stroke-linejoin:round; stroke-width:2; stroke-opacity:0.1; fill:none" points="763.015,1486.45 763.015,47.2441 "/>
<polyline clip-path="url(#clip452)" style="stroke:#000000; stroke-linecap:round; stroke-linejoin:round; stroke-width:2; stroke-opacity:0.1; fill:none" points="1272.55,1486.45 1272.55,47.2441 "/>
<polyline clip-path="url(#clip452)" style="stroke:#000000; stroke-linecap:round; stroke-linejoin:round; stroke-width:2; stroke-opacity:0.1; fill:none" points="1782.08,1486.45 1782.08,47.2441 "/>
<polyline clip-path="url(#clip452)" style="stroke:#000000; stroke-linecap:round; stroke-linejoin:round; stroke-width:2; stroke-opacity:0.1; fill:none" points="2291.61,1486.45 2291.61,47.2441 "/>
<polyline clip-path="url(#clip450)" style="stroke:#000000; stroke-linecap:round; stroke-linejoin:round; stroke-width:4; stroke-opacity:1; fill:none" points="192.339,1486.45 2352.76,1486.45 "/>
<polyline clip-path="url(#clip450)" style="stroke:#000000; stroke-linecap:round; stroke-linejoin:round; stroke-width:4; stroke-opacity:1; fill:none" points="253.483,1486.45 253.483,1467.55 "/>
<polyline clip-path="url(#clip450)" style="stroke:#000000; stroke-linecap:round; stroke-linejoin:round; stroke-width:4; stroke-opacity:1; fill:none" points="763.015,1486.45 763.015,1467.55 "/>
<polyline clip-path="url(#clip450)" style="stroke:#000000; stroke-linecap:round; stroke-linejoin:round; stroke-width:4; stroke-opacity:1; fill:none" points="1272.55,1486.45 1272.55,1467.55 "/>
<polyline clip-path="url(#clip450)" style="stroke:#000000; stroke-linecap:round; stroke-linejoin:round; stroke-width:4; stroke-opacity:1; fill:none" points="1782.08,1486.45 1782.08,1467.55 "/>
<polyline clip-path="url(#clip450)" style="stroke:#000000; stroke-linecap:round; stroke-linejoin:round; stroke-width:4; stroke-opacity:1; fill:none" points="2291.61,1486.45 2291.61,1467.55 "/>
<path clip-path="url(#clip450)" d="M200.011 1532.02 L229.686 1532.02 L229.686 1535.95 L200.011 1535.95 L200.011 1532.02 Z" fill="#000000" fill-rule="nonzero" fill-opacity="1" /><path clip-path="url(#clip450)" d="M240.589 1544.91 L248.228 1544.91 L248.228 1518.55 L239.918 1520.21 L239.918 1515.95 L248.182 1514.29 L252.858 1514.29 L252.858 1544.91 L260.497 1544.91 L260.497 1548.85 L240.589 1548.85 L240.589 1544.91 Z" fill="#000000" fill-rule="nonzero" fill-opacity="1" /><path clip-path="url(#clip450)" d="M269.941 1542.97 L274.825 1542.97 L274.825 1548.85 L269.941 1548.85 L269.941 1542.97 Z" fill="#000000" fill-rule="nonzero" fill-opacity="1" /><path clip-path="url(#clip450)" d="M295.01 1517.37 Q291.399 1517.37 289.57 1520.93 Q287.765 1524.47 287.765 1531.6 Q287.765 1538.71 289.57 1542.27 Q291.399 1545.82 295.01 1545.82 Q298.644 1545.82 300.45 1542.27 Q302.279 1538.71 302.279 1531.6 Q302.279 1524.47 300.45 1520.93 Q298.644 1517.37 295.01 1517.37 M295.01 1513.66 Q300.82 1513.66 303.876 1518.27 Q306.955 1522.85 306.955 1531.6 Q306.955 1540.33 303.876 1544.94 Q300.82 1549.52 295.01 1549.52 Q289.2 1549.52 286.121 1544.94 Q283.066 1540.33 283.066 1531.6 Q283.066 1522.85 286.121 1518.27 Q289.2 1513.66 295.01 1513.66 Z" fill="#000000" fill-rule="nonzero" fill-opacity="1" /><path clip-path="url(#clip450)" d="M710.041 1532.02 L739.717 1532.02 L739.717 1535.95 L710.041 1535.95 L710.041 1532.02 Z" fill="#000000" fill-rule="nonzero" fill-opacity="1" /><path clip-path="url(#clip450)" d="M759.809 1517.37 Q756.198 1517.37 754.369 1520.93 Q752.564 1524.47 752.564 1531.6 Q752.564 1538.71 754.369 1542.27 Q756.198 1545.82 759.809 1545.82 Q763.443 1545.82 765.249 1542.27 Q767.077 1538.71 767.077 1531.6 Q767.077 1524.47 765.249 1520.93 Q763.443 1517.37 759.809 1517.37 M759.809 1513.66 Q765.619 1513.66 768.675 1518.27 Q771.753 1522.85 771.753 1531.6 Q771.753 1540.33 768.675 1544.94 Q765.619 1549.52 759.809 1549.52 Q753.999 1549.52 750.92 1544.94 Q747.865 1540.33 747.865 1531.6 Q747.865 1522.85 750.92 1518.27 Q753.999 1513.66 759.809 1513.66 Z" fill="#000000" fill-rule="nonzero" fill-opacity="1" /><path clip-path="url(#clip450)" d="M779.971 1542.97 L784.855 1542.97 L784.855 1548.85 L779.971 1548.85 L779.971 1542.97 Z" fill="#000000" fill-rule="nonzero" fill-opacity="1" /><path clip-path="url(#clip450)" d="M795.087 1514.29 L813.443 1514.29 L813.443 1518.22 L799.369 1518.22 L799.369 1526.7 Q800.387 1526.35 801.406 1526.19 Q802.425 1526 803.443 1526 Q809.23 1526 812.61 1529.17 Q815.989 1532.34 815.989 1537.76 Q815.989 1543.34 812.517 1546.44 Q809.045 1549.52 802.725 1549.52 Q800.55 1549.52 798.281 1549.15 Q796.036 1548.78 793.628 1548.04 L793.628 1543.34 Q795.712 1544.47 797.934 1545.03 Q800.156 1545.58 802.633 1545.58 Q806.637 1545.58 808.975 1543.48 Q811.313 1541.37 811.313 1537.76 Q811.313 1534.15 808.975 1532.04 Q806.637 1529.94 802.633 1529.94 Q800.758 1529.94 798.883 1530.35 Q797.031 1530.77 795.087 1531.65 L795.087 1514.29 Z" fill="#000000" fill-rule="nonzero" fill-opacity="1" /><path clip-path="url(#clip450)" d="M1249.93 1517.37 Q1246.32 1517.37 1244.49 1520.93 Q1242.69 1524.47 1242.69 1531.6 Q1242.69 1538.71 1244.49 1542.27 Q1246.32 1545.82 1249.93 1545.82 Q1253.57 1545.82 1255.37 1542.27 Q1257.2 1538.71 1257.2 1531.6 Q1257.2 1524.47 1255.37 1520.93 Q1253.57 1517.37 1249.93 1517.37 M1249.93 1513.66 Q1255.74 1513.66 1258.8 1518.27 Q1261.88 1522.85 1261.88 1531.6 Q1261.88 1540.33 1258.8 1544.94 Q1255.74 1549.52 1249.93 1549.52 Q1244.12 1549.52 1241.04 1544.94 Q1237.99 1540.33 1237.99 1531.6 Q1237.99 1522.85 1241.04 1518.27 Q1244.12 1513.66 1249.93 1513.66 Z" fill="#000000" fill-rule="nonzero" fill-opacity="1" /><path clip-path="url(#clip450)" d="M1270.09 1542.97 L1274.98 1542.97 L1274.98 1548.85 L1270.09 1548.85 L1270.09 1542.97 Z" fill="#000000" fill-rule="nonzero" fill-opacity="1" /><path clip-path="url(#clip450)" d="M1295.16 1517.37 Q1291.55 1517.37 1289.72 1520.93 Q1287.92 1524.47 1287.92 1531.6 Q1287.92 1538.71 1289.72 1542.27 Q1291.55 1545.82 1295.16 1545.82 Q1298.8 1545.82 1300.6 1542.27 Q1302.43 1538.71 1302.43 1531.6 Q1302.43 1524.47 1300.6 1520.93 Q1298.8 1517.37 1295.16 1517.37 M1295.16 1513.66 Q1300.97 1513.66 1304.03 1518.27 Q1307.11 1522.85 1307.11 1531.6 Q1307.11 1540.33 1304.03 1544.94 Q1300.97 1549.52 1295.16 1549.52 Q1289.35 1549.52 1286.27 1544.94 Q1283.22 1540.33 1283.22 1531.6 Q1283.22 1522.85 1286.27 1518.27 Q1289.35 1513.66 1295.16 1513.66 Z" fill="#000000" fill-rule="nonzero" fill-opacity="1" /><path clip-path="url(#clip450)" d="M1759.96 1517.37 Q1756.35 1517.37 1754.52 1520.93 Q1752.72 1524.47 1752.72 1531.6 Q1752.72 1538.71 1754.52 1542.27 Q1756.35 1545.82 1759.96 1545.82 Q1763.6 1545.82 1765.4 1542.27 Q1767.23 1538.71 1767.23 1531.6 Q1767.23 1524.47 1765.4 1520.93 Q1763.6 1517.37 1759.96 1517.37 M1759.96 1513.66 Q1765.77 1513.66 1768.83 1518.27 Q1771.91 1522.85 1771.91 1531.6 Q1771.91 1540.33 1768.83 1544.94 Q1765.77 1549.52 1759.96 1549.52 Q1754.15 1549.52 1751.07 1544.94 Q1748.02 1540.33 1748.02 1531.6 Q1748.02 1522.85 1751.07 1518.27 Q1754.15 1513.66 1759.96 1513.66 Z" fill="#000000" fill-rule="nonzero" fill-opacity="1" /><path clip-path="url(#clip450)" d="M1780.12 1542.97 L1785.01 1542.97 L1785.01 1548.85 L1780.12 1548.85 L1780.12 1542.97 Z" fill="#000000" fill-rule="nonzero" fill-opacity="1" /><path clip-path="url(#clip450)" d="M1795.24 1514.29 L1813.6 1514.29 L1813.6 1518.22 L1799.52 1518.22 L1799.52 1526.7 Q1800.54 1526.35 1801.56 1526.19 Q1802.58 1526 1803.6 1526 Q1809.38 1526 1812.76 1529.17 Q1816.14 1532.34 1816.14 1537.76 Q1816.14 1543.34 1812.67 1546.44 Q1809.2 1549.52 1802.88 1549.52 Q1800.7 1549.52 1798.43 1549.15 Q1796.19 1548.78 1793.78 1548.04 L1793.78 1543.34 Q1795.86 1544.47 1798.09 1545.03 Q1800.31 1545.58 1802.79 1545.58 Q1806.79 1545.58 1809.13 1543.48 Q1811.47 1541.37 1811.47 1537.76 Q1811.47 1534.15 1809.13 1532.04 Q1806.79 1529.94 1802.79 1529.94 Q1800.91 1529.94 1799.04 1530.35 Q1797.18 1530.77 1795.24 1531.65 L1795.24 1514.29 Z" fill="#000000" fill-rule="nonzero" fill-opacity="1" /><path clip-path="url(#clip450)" d="M2258.76 1544.91 L2266.4 1544.91 L2266.4 1518.55 L2258.09 1520.21 L2258.09 1515.95 L2266.36 1514.29 L2271.03 1514.29 L2271.03 1544.91 L2278.67 1544.91 L2278.67 1548.85 L2258.76 1548.85 L2258.76 1544.91 Z" fill="#000000" fill-rule="nonzero" fill-opacity="1" /><path clip-path="url(#clip450)" d="M2288.12 1542.97 L2293 1542.97 L2293 1548.85 L2288.12 1548.85 L2288.12 1542.97 Z" fill="#000000" fill-rule="nonzero" fill-opacity="1" /><path clip-path="url(#clip450)" d="M2313.19 1517.37 Q2309.57 1517.37 2307.75 1520.93 Q2305.94 1524.47 2305.94 1531.6 Q2305.94 1538.71 2307.75 1542.27 Q2309.57 1545.82 2313.19 1545.82 Q2316.82 1545.82 2318.63 1542.27 Q2320.45 1538.71 2320.45 1531.6 Q2320.45 1524.47 2318.63 1520.93 Q2316.82 1517.37 2313.19 1517.37 M2313.19 1513.66 Q2319 1513.66 2322.05 1518.27 Q2325.13 1522.85 2325.13 1531.6 Q2325.13 1540.33 2322.05 1544.94 Q2319 1549.52 2313.19 1549.52 Q2307.38 1549.52 2304.3 1544.94 Q2301.24 1540.33 2301.24 1531.6 Q2301.24 1522.85 2304.3 1518.27 Q2307.38 1513.66 2313.19 1513.66 Z" fill="#000000" fill-rule="nonzero" fill-opacity="1" /><polyline clip-path="url(#clip452)" style="stroke:#000000; stroke-linecap:round; stroke-linejoin:round; stroke-width:2; stroke-opacity:0.1; fill:none" points="192.339,1383.65 2352.76,1383.65 "/>
<polyline clip-path="url(#clip452)" style="stroke:#000000; stroke-linecap:round; stroke-linejoin:round; stroke-width:2; stroke-opacity:0.1; fill:none" points="192.339,1208.36 2352.76,1208.36 "/>
<polyline clip-path="url(#clip452)" style="stroke:#000000; stroke-linecap:round; stroke-linejoin:round; stroke-width:2; stroke-opacity:0.1; fill:none" points="192.339,1033.07 2352.76,1033.07 "/>
<polyline clip-path="url(#clip452)" style="stroke:#000000; stroke-linecap:round; stroke-linejoin:round; stroke-width:2; stroke-opacity:0.1; fill:none" points="192.339,857.776 2352.76,857.776 "/>
<polyline clip-path="url(#clip452)" style="stroke:#000000; stroke-linecap:round; stroke-linejoin:round; stroke-width:2; stroke-opacity:0.1; fill:none" points="192.339,682.486 2352.76,682.486 "/>
<polyline clip-path="url(#clip452)" style="stroke:#000000; stroke-linecap:round; stroke-linejoin:round; stroke-width:2; stroke-opacity:0.1; fill:none" points="192.339,507.196 2352.76,507.196 "/>
<polyline clip-path="url(#clip452)" style="stroke:#000000; stroke-linecap:round; stroke-linejoin:round; stroke-width:2; stroke-opacity:0.1; fill:none" points="192.339,331.906 2352.76,331.906 "/>
<polyline clip-path="url(#clip452)" style="stroke:#000000; stroke-linecap:round; stroke-linejoin:round; stroke-width:2; stroke-opacity:0.1; fill:none" points="192.339,156.615 2352.76,156.615 "/>
<polyline clip-path="url(#clip450)" style="stroke:#000000; stroke-linecap:round; stroke-linejoin:round; stroke-width:4; stroke-opacity:1; fill:none" points="192.339,1486.45 192.339,47.2441 "/>
<polyline clip-path="url(#clip450)" style="stroke:#000000; stroke-linecap:round; stroke-linejoin:round; stroke-width:4; stroke-opacity:1; fill:none" points="192.339,1383.65 211.236,1383.65 "/>
<polyline clip-path="url(#clip450)" style="stroke:#000000; stroke-linecap:round; stroke-linejoin:round; stroke-width:4; stroke-opacity:1; fill:none" points="192.339,1208.36 211.236,1208.36 "/>
<polyline clip-path="url(#clip450)" style="stroke:#000000; stroke-linecap:round; stroke-linejoin:round; stroke-width:4; stroke-opacity:1; fill:none" points="192.339,1033.07 211.236,1033.07 "/>
<polyline clip-path="url(#clip450)" style="stroke:#000000; stroke-linecap:round; stroke-linejoin:round; stroke-width:4; stroke-opacity:1; fill:none" points="192.339,857.776 211.236,857.776 "/>
<polyline clip-path="url(#clip450)" style="stroke:#000000; stroke-linecap:round; stroke-linejoin:round; stroke-width:4; stroke-opacity:1; fill:none" points="192.339,682.486 211.236,682.486 "/>
<polyline clip-path="url(#clip450)" style="stroke:#000000; stroke-linecap:round; stroke-linejoin:round; stroke-width:4; stroke-opacity:1; fill:none" points="192.339,507.196 211.236,507.196 "/>
<polyline clip-path="url(#clip450)" style="stroke:#000000; stroke-linecap:round; stroke-linejoin:round; stroke-width:4; stroke-opacity:1; fill:none" points="192.339,331.906 211.236,331.906 "/>
<polyline clip-path="url(#clip450)" style="stroke:#000000; stroke-linecap:round; stroke-linejoin:round; stroke-width:4; stroke-opacity:1; fill:none" points="192.339,156.615 211.236,156.615 "/>
<path clip-path="url(#clip450)" d="M50.9921 1384.1 L80.6679 1384.1 L80.6679 1388.03 L50.9921 1388.03 L50.9921 1384.1 Z" fill="#000000" fill-rule="nonzero" fill-opacity="1" /><path clip-path="url(#clip450)" d="M100.76 1369.45 Q97.1493 1369.45 95.3206 1373.01 Q93.515 1376.55 93.515 1383.68 Q93.515 1390.79 95.3206 1394.35 Q97.1493 1397.89 100.76 1397.89 Q104.395 1397.89 106.2 1394.35 Q108.029 1390.79 108.029 1383.68 Q108.029 1376.55 106.2 1373.01 Q104.395 1369.45 100.76 1369.45 M100.76 1365.74 Q106.571 1365.74 109.626 1370.35 Q112.705 1374.93 112.705 1383.68 Q112.705 1392.41 109.626 1397.01 Q106.571 1401.6 100.76 1401.6 Q94.9502 1401.6 91.8715 1397.01 Q88.816 1392.41 88.816 1383.68 Q88.816 1374.93 91.8715 1370.35 Q94.9502 1365.74 100.76 1365.74 Z" fill="#000000" fill-rule="nonzero" fill-opacity="1" /><path clip-path="url(#clip450)" d="M120.922 1395.05 L125.807 1395.05 L125.807 1400.93 L120.922 1400.93 L120.922 1395.05 Z" fill="#000000" fill-rule="nonzero" fill-opacity="1" /><path clip-path="url(#clip450)" d="M140.019 1396.99 L156.339 1396.99 L156.339 1400.93 L134.394 1400.93 L134.394 1396.99 Q137.056 1394.24 141.64 1389.61 Q146.246 1384.95 147.427 1383.61 Q149.672 1381.09 150.552 1379.35 Q151.455 1377.59 151.455 1375.9 Q151.455 1373.15 149.51 1371.41 Q147.589 1369.68 144.487 1369.68 Q142.288 1369.68 139.834 1370.44 Q137.404 1371.2 134.626 1372.76 L134.626 1368.03 Q137.45 1366.9 139.904 1366.32 Q142.357 1365.74 144.394 1365.74 Q149.765 1365.74 152.959 1368.43 Q156.154 1371.11 156.154 1375.6 Q156.154 1377.73 155.343 1379.65 Q154.556 1381.55 152.45 1384.14 Q151.871 1384.82 148.769 1388.03 Q145.668 1391.23 140.019 1396.99 Z" fill="#000000" fill-rule="nonzero" fill-opacity="1" /><path clip-path="url(#clip450)" d="M99.1632 1194.16 Q95.5521 1194.16 93.7234 1197.72 Q91.9178 1201.26 91.9178 1208.39 Q91.9178 1215.5 93.7234 1219.06 Q95.5521 1222.6 99.1632 1222.6 Q102.797 1222.6 104.603 1219.06 Q106.432 1215.5 106.432 1208.39 Q106.432 1201.26 104.603 1197.72 Q102.797 1194.16 99.1632 1194.16 M99.1632 1190.45 Q104.973 1190.45 108.029 1195.06 Q111.108 1199.64 111.108 1208.39 Q111.108 1217.12 108.029 1221.72 Q104.973 1226.31 99.1632 1226.31 Q93.353 1226.31 90.2743 1221.72 Q87.2188 1217.12 87.2188 1208.39 Q87.2188 1199.64 90.2743 1195.06 Q93.353 1190.45 99.1632 1190.45 Z" fill="#000000" fill-rule="nonzero" fill-opacity="1" /><path clip-path="url(#clip450)" d="M119.325 1219.76 L124.209 1219.76 L124.209 1225.64 L119.325 1225.64 L119.325 1219.76 Z" fill="#000000" fill-rule="nonzero" fill-opacity="1" /><path clip-path="url(#clip450)" d="M144.394 1194.16 Q140.783 1194.16 138.955 1197.72 Q137.149 1201.26 137.149 1208.39 Q137.149 1215.5 138.955 1219.06 Q140.783 1222.6 144.394 1222.6 Q148.029 1222.6 149.834 1219.06 Q151.663 1215.5 151.663 1208.39 Q151.663 1201.26 149.834 1197.72 Q148.029 1194.16 144.394 1194.16 M144.394 1190.45 Q150.205 1190.45 153.26 1195.06 Q156.339 1199.64 156.339 1208.39 Q156.339 1217.12 153.26 1221.72 Q150.205 1226.31 144.394 1226.31 Q138.584 1226.31 135.506 1221.72 Q132.45 1217.12 132.45 1208.39 Q132.45 1199.64 135.506 1195.06 Q138.584 1190.45 144.394 1190.45 Z" fill="#000000" fill-rule="nonzero" fill-opacity="1" /><path clip-path="url(#clip450)" d="M100.76 1018.87 Q97.1493 1018.87 95.3206 1022.43 Q93.515 1025.97 93.515 1033.1 Q93.515 1040.21 95.3206 1043.77 Q97.1493 1047.31 100.76 1047.31 Q104.395 1047.31 106.2 1043.77 Q108.029 1040.21 108.029 1033.1 Q108.029 1025.97 106.2 1022.43 Q104.395 1018.87 100.76 1018.87 M100.76 1015.16 Q106.571 1015.16 109.626 1019.77 Q112.705 1024.35 112.705 1033.1 Q112.705 1041.83 109.626 1046.43 Q106.571 1051.02 100.76 1051.02 Q94.9502 1051.02 91.8715 1046.43 Q88.816 1041.83 88.816 1033.1 Q88.816 1024.35 91.8715 1019.77 Q94.9502 1015.16 100.76 1015.16 Z" fill="#000000" fill-rule="nonzero" fill-opacity="1" /><path clip-path="url(#clip450)" d="M120.922 1044.47 L125.807 1044.47 L125.807 1050.35 L120.922 1050.35 L120.922 1044.47 Z" fill="#000000" fill-rule="nonzero" fill-opacity="1" /><path clip-path="url(#clip450)" d="M140.019 1046.41 L156.339 1046.41 L156.339 1050.35 L134.394 1050.35 L134.394 1046.41 Q137.056 1043.66 141.64 1039.03 Q146.246 1034.37 147.427 1033.03 Q149.672 1030.51 150.552 1028.77 Q151.455 1027.01 151.455 1025.32 Q151.455 1022.57 149.51 1020.83 Q147.589 1019.1 144.487 1019.1 Q142.288 1019.1 139.834 1019.86 Q137.404 1020.62 134.626 1022.18 L134.626 1017.45 Q137.45 1016.32 139.904 1015.74 Q142.357 1015.16 144.394 1015.16 Q149.765 1015.16 152.959 1017.85 Q156.154 1020.53 156.154 1025.02 Q156.154 1027.15 155.343 1029.07 Q154.556 1030.97 152.45 1033.56 Q151.871 1034.24 148.769 1037.45 Q145.668 1040.65 140.019 1046.41 Z" fill="#000000" fill-rule="nonzero" fill-opacity="1" /><path clip-path="url(#clip450)" d="M98.6771 843.575 Q95.066 843.575 93.2373 847.14 Q91.4317 850.681 91.4317 857.811 Q91.4317 864.917 93.2373 868.482 Q95.066 872.024 98.6771 872.024 Q102.311 872.024 104.117 868.482 Q105.946 864.917 105.946 857.811 Q105.946 850.681 104.117 847.14 Q102.311 843.575 98.6771 843.575 M98.6771 839.871 Q104.487 839.871 107.543 844.478 Q110.621 849.061 110.621 857.811 Q110.621 866.538 107.543 871.144 Q104.487 875.728 98.6771 875.728 Q92.8669 875.728 89.7882 871.144 Q86.7327 866.538 86.7327 857.811 Q86.7327 849.061 89.7882 844.478 Q92.8669 839.871 98.6771 839.871 Z" fill="#000000" fill-rule="nonzero" fill-opacity="1" /><path clip-path="url(#clip450)" d="M118.839 869.177 L123.723 869.177 L123.723 875.056 L118.839 875.056 L118.839 869.177 Z" fill="#000000" fill-rule="nonzero" fill-opacity="1" /><path clip-path="url(#clip450)" d="M146.756 844.57 L134.95 863.019 L146.756 863.019 L146.756 844.57 M145.529 840.496 L151.408 840.496 L151.408 863.019 L156.339 863.019 L156.339 866.908 L151.408 866.908 L151.408 875.056 L146.756 875.056 L146.756 866.908 L131.154 866.908 L131.154 862.394 L145.529 840.496 Z" fill="#000000" fill-rule="nonzero" fill-opacity="1" /><path clip-path="url(#clip450)" d="M99.0011 668.285 Q95.39 668.285 93.5613 671.85 Q91.7558 675.391 91.7558 682.521 Q91.7558 689.627 93.5613 693.192 Q95.39 696.734 99.0011 696.734 Q102.635 696.734 104.441 693.192 Q106.27 689.627 106.27 682.521 Q106.27 675.391 104.441 671.85 Q102.635 668.285 99.0011 668.285 M99.0011 664.581 Q104.811 664.581 107.867 669.188 Q110.946 673.771 110.946 682.521 Q110.946 691.248 107.867 695.854 Q104.811 700.437 99.0011 700.437 Q93.191 700.437 90.1123 695.854 Q87.0567 691.248 87.0567 682.521 Q87.0567 673.771 90.1123 669.188 Q93.191 664.581 99.0011 664.581 Z" fill="#000000" fill-rule="nonzero" fill-opacity="1" /><path clip-path="url(#clip450)" d="M119.163 693.887 L124.047 693.887 L124.047 699.766 L119.163 699.766 L119.163 693.887 Z" fill="#000000" fill-rule="nonzero" fill-opacity="1" /><path clip-path="url(#clip450)" d="M144.811 680.623 Q141.663 680.623 139.811 682.775 Q137.982 684.928 137.982 688.678 Q137.982 692.405 139.811 694.581 Q141.663 696.734 144.811 696.734 Q147.959 696.734 149.788 694.581 Q151.64 692.405 151.64 688.678 Q151.64 684.928 149.788 682.775 Q147.959 680.623 144.811 680.623 M154.093 665.97 L154.093 670.229 Q152.334 669.396 150.529 668.956 Q148.746 668.516 146.987 668.516 Q142.357 668.516 139.904 671.641 Q137.473 674.766 137.126 681.086 Q138.492 679.072 140.552 678.007 Q142.612 676.919 145.089 676.919 Q150.297 676.919 153.306 680.09 Q156.339 683.238 156.339 688.678 Q156.339 694.002 153.191 697.22 Q150.043 700.437 144.811 700.437 Q138.816 700.437 135.644 695.854 Q132.473 691.248 132.473 682.521 Q132.473 674.326 136.362 669.465 Q140.251 664.581 146.802 664.581 Q148.561 664.581 150.343 664.928 Q152.149 665.276 154.093 665.97 Z" fill="#000000" fill-rule="nonzero" fill-opacity="1" /><path clip-path="url(#clip450)" d="M99.2558 492.995 Q95.6447 492.995 93.816 496.559 Q92.0104 500.101 92.0104 507.231 Q92.0104 514.337 93.816 517.902 Q95.6447 521.444 99.2558 521.444 Q102.89 521.444 104.696 517.902 Q106.524 514.337 106.524 507.231 Q106.524 500.101 104.696 496.559 Q102.89 492.995 99.2558 492.995 M99.2558 489.291 Q105.066 489.291 108.121 493.897 Q111.2 498.481 111.2 507.231 Q111.2 515.957 108.121 520.564 Q105.066 525.147 99.2558 525.147 Q93.4456 525.147 90.3669 520.564 Q87.3114 515.957 87.3114 507.231 Q87.3114 498.481 90.3669 493.897 Q93.4456 489.291 99.2558 489.291 Z" fill="#000000" fill-rule="nonzero" fill-opacity="1" /><path clip-path="url(#clip450)" d="M119.418 518.596 L124.302 518.596 L124.302 524.476 L119.418 524.476 L119.418 518.596 Z" fill="#000000" fill-rule="nonzero" fill-opacity="1" /><path clip-path="url(#clip450)" d="M144.487 508.064 Q141.154 508.064 139.232 509.846 Q137.334 511.629 137.334 514.754 Q137.334 517.879 139.232 519.661 Q141.154 521.444 144.487 521.444 Q147.82 521.444 149.742 519.661 Q151.663 517.856 151.663 514.754 Q151.663 511.629 149.742 509.846 Q147.843 508.064 144.487 508.064 M139.811 506.073 Q136.802 505.332 135.112 503.272 Q133.445 501.212 133.445 498.249 Q133.445 494.106 136.385 491.698 Q139.348 489.291 144.487 489.291 Q149.649 489.291 152.589 491.698 Q155.529 494.106 155.529 498.249 Q155.529 501.212 153.839 503.272 Q152.172 505.332 149.186 506.073 Q152.566 506.86 154.441 509.152 Q156.339 511.444 156.339 514.754 Q156.339 519.777 153.26 522.462 Q150.205 525.147 144.487 525.147 Q138.769 525.147 135.691 522.462 Q132.635 519.777 132.635 514.754 Q132.635 511.444 134.533 509.152 Q136.431 506.86 139.811 506.073 M138.098 498.689 Q138.098 501.374 139.765 502.879 Q141.455 504.383 144.487 504.383 Q147.496 504.383 149.186 502.879 Q150.899 501.374 150.899 498.689 Q150.899 496.004 149.186 494.499 Q147.496 492.995 144.487 492.995 Q141.455 492.995 139.765 494.499 Q138.098 496.004 138.098 498.689 Z" fill="#000000" fill-rule="nonzero" fill-opacity="1" /><path clip-path="url(#clip450)" d="M89.9734 345.251 L97.6122 345.251 L97.6122 318.885 L89.3021 320.552 L89.3021 316.292 L97.566 314.626 L102.242 314.626 L102.242 345.251 L109.881 345.251 L109.881 349.186 L89.9734 349.186 L89.9734 345.251 Z" fill="#000000" fill-rule="nonzero" fill-opacity="1" /><path clip-path="url(#clip450)" d="M119.325 343.306 L124.209 343.306 L124.209 349.186 L119.325 349.186 L119.325 343.306 Z" fill="#000000" fill-rule="nonzero" fill-opacity="1" /><path clip-path="url(#clip450)" d="M144.394 317.704 Q140.783 317.704 138.955 321.269 Q137.149 324.811 137.149 331.94 Q137.149 339.047 138.955 342.612 Q140.783 346.153 144.394 346.153 Q148.029 346.153 149.834 342.612 Q151.663 339.047 151.663 331.94 Q151.663 324.811 149.834 321.269 Q148.029 317.704 144.394 317.704 M144.394 314.001 Q150.205 314.001 153.26 318.607 Q156.339 323.19 156.339 331.94 Q156.339 340.667 153.26 345.274 Q150.205 349.857 144.394 349.857 Q138.584 349.857 135.506 345.274 Q132.45 340.667 132.45 331.94 Q132.45 323.19 135.506 318.607 Q138.584 314.001 144.394 314.001 Z" fill="#000000" fill-rule="nonzero" fill-opacity="1" /><path clip-path="url(#clip450)" d="M91.5706 169.96 L99.2095 169.96 L99.2095 143.595 L90.8993 145.261 L90.8993 141.002 L99.1632 139.335 L103.839 139.335 L103.839 169.96 L111.478 169.96 L111.478 173.895 L91.5706 173.895 L91.5706 169.96 Z" fill="#000000" fill-rule="nonzero" fill-opacity="1" /><path clip-path="url(#clip450)" d="M120.922 168.016 L125.807 168.016 L125.807 173.895 L120.922 173.895 L120.922 168.016 Z" fill="#000000" fill-rule="nonzero" fill-opacity="1" /><path clip-path="url(#clip450)" d="M140.019 169.96 L156.339 169.96 L156.339 173.895 L134.394 173.895 L134.394 169.96 Q137.056 167.206 141.64 162.576 Q146.246 157.923 147.427 156.581 Q149.672 154.058 150.552 152.322 Q151.455 150.562 151.455 148.872 Q151.455 146.118 149.51 144.382 Q147.589 142.646 144.487 142.646 Q142.288 142.646 139.834 143.41 Q137.404 144.173 134.626 145.724 L134.626 141.002 Q137.45 139.868 139.904 139.289 Q142.357 138.71 144.394 138.71 Q149.765 138.71 152.959 141.396 Q156.154 144.081 156.154 148.572 Q156.154 150.701 155.343 152.622 Q154.556 154.521 152.45 157.113 Q151.871 157.784 148.769 161.002 Q145.668 164.196 140.019 169.96 Z" fill="#000000" fill-rule="nonzero" fill-opacity="1" /><polyline clip-path="url(#clip452)" style="stroke:#009af9; stroke-linecap:round; stroke-linejoin:round; stroke-width:16; stroke-opacity:1; fill:none" stroke-dasharray="8, 16" points="253.483,1077.72 263.725,1073.3 273.966,1064.48 284.208,1050.3 294.45,1032.29 304.692,1016.46 314.934,1012.73 325.176,1028.16 335.418,1059.77 345.659,1097.53 355.901,1133.29 366.143,1164.51 376.385,1192.31 386.627,1218.7 396.869,1245.06 407.111,1271.61 417.352,1297.31 427.594,1320.12 437.836,1337.87 448.078,1349.62 458.32,1356.49 468.562,1360.82 478.803,1363.84 489.045,1364.42 499.287,1360.09 509.529,1349.12 519.771,1331.18 530.013,1307.07 540.255,1278.01 550.497,1245.31 560.738,1210.3 570.98,1174.63 581.222,1140.27 591.464,1109.25 601.706,1083.25 611.948,1063.27 622.19,1049.52 632.431,1041.61 642.673,1038.84 652.915,1040.54 663.157,1046.24 673.399,1055.79 683.641,1069.31 693.882,1087.01 704.124,1108.97 714.366,1134.83 724.608,1163.65 734.85,1193.91 745.092,1223.83 755.334,1251.84 765.575,1277.05 775.817,1299.35 786.059,1319.13 796.301,1336.81 806.543,1352.29 816.785,1364.78 827.027,1372.91 837.268,1375.34 847.51,1371.5 857.752,1362.15 867.994,1348.66 878.236,1330.98 888.478,1307.09 898.72,1276.41 908.961,1242.71 919.203,1211.55 929.445,1182.9 939.687,1150.12 949.929,1111.66 960.171,1078.02 970.413,1059.92 980.654,1055.11 990.896,1054.72 1001.14,1052.86 1011.38,1052.02 1021.62,1059.2 1031.86,1072.61 1042.11,1084.82 1052.35,1092.22 1062.59,1101.56 1072.83,1127.63 1083.07,1172.2 1093.31,1214.37 1103.56,1241.22 1113.8,1261.74 1124.04,1281.81 1134.28,1305.61 1144.52,1313.64 1154.77,1333.28 1165.01,1373.94 1175.25,1390.76 1185.49,1274.57 1195.73,1319.5 1205.98,1328.04 1216.22,1434.71 1226.46,1445.72 1236.7,1366.34 1246.94,1301 1257.18,1272.44 1267.43,1131.97 1277.67,828.103 1287.91,461.208 1298.15,240.817 1308.39,209.27 1318.64,212.503 1328.88,287.918 1339.12,373.411 1349.36,346.985 1359.6,296.283 1369.84,310.432 1380.09,310.685 1390.33,273.234 1400.57,300.156 1410.81,343.477 1421.05,316.799 1431.3,280.618 1441.54,335.19 1451.78,361.392 1462.02,402.148 1472.26,452.44 1482.51,420.678 1492.75,335.293 1502.99,270.899 1513.23,253.336 1523.47,280.113 1533.71,315.858 1543.96,343.996 1554.2,368.502 1564.44,390.187 1574.68,399.4 1584.92,386.133 1595.17,350.424 1605.41,302.751 1615.65,259.162 1625.89,236.02 1636.13,243.413 1646.38,279.462 1656.62,331.753 1666.86,383.605 1677.1,420.755 1687.34,435.127 1697.58,424.391 1707.83,390.562 1718.07,338.949 1728.31,279.133 1738.55,228.01 1748.79,206.484 1759.04,225.325 1769.28,276.667 1779.52,344.125 1789.76,413.364 1800,466.921 1810.24,479.374 1820.49,439.185 1830.73,364.519 1840.97,281.916 1851.21,213.798 1861.45,182.874 1871.7,205.275 1881.94,272.624 1892.18,355.184 1902.42,424.927 1912.66,466.946 1922.91,476.375 1933.15,453.779 1943.39,404.808 1953.63,342.712 1963.87,285.704 1974.11,246.13 1984.36,226.497 1994.6,226.515 2004.84,249.505 2015.08,302.222 2025.32,384.878 2035.57,480.878 2045.81,544.432 2056.05,515.096 2066.29,415.185 2076.53,300.582 2086.77,191.317 2097.02,112.35 2107.26,106.122 2117.5,184.515 2127.74,307.675 2137.98,426.526 2148.23,512.856 2158.47,556.514 2168.71,554.08 2178.95,501.827 2189.19,395.542 2199.44,248.334 2209.68,139.177 2219.92,147.357 2230.16,213.448 2240.4,277.639 2250.64,333.099 2260.89,384.599 2271.13,436.189 2281.37,490.344 2291.61,547.466 "/>
<polyline clip-path="url(#clip452)" style="stroke:#e26f46; stroke-linecap:round; stroke-linejoin:round; stroke-width:4; stroke-opacity:1; fill:none" points="253.483,1076.72 263.725,1058.04 273.966,1044.27 284.208,1035.85 294.45,1033.07 304.692,1036 314.934,1044.56 325.176,1058.47 335.418,1077.27 345.659,1100.34 355.901,1126.95 366.143,1156.21 376.385,1187.17 386.627,1218.82 396.869,1250.13 407.111,1280.08 417.352,1307.69 427.594,1332.05 437.836,1352.38 448.078,1368.01 458.32,1378.42 468.562,1383.29 478.803,1382.45 489.045,1375.92 499.287,1363.93 509.529,1346.86 519.771,1325.27 530.013,1299.86 540.255,1271.47 550.497,1241.01 560.738,1209.5 570.98,1177.94 581.222,1147.38 591.464,1118.8 601.706,1093.15 611.948,1071.26 622.19,1053.85 632.431,1041.47 642.673,1034.55 652.915,1033.29 663.157,1037.75 673.399,1047.78 683.641,1063.05 693.882,1083.06 704.124,1107.16 714.366,1134.56 724.608,1164.38 734.85,1195.62 745.092,1227.29 755.334,1258.33 765.575,1287.74 775.817,1314.57 786.059,1337.92 796.301,1357.05 806.543,1371.33 816.785,1380.28 827.027,1383.63 837.268,1381.25 847.51,1373.23 857.752,1359.83 867.994,1341.49 878.236,1318.8 888.478,1292.51 898.72,1263.47 908.961,1232.63 919.203,1201 929.445,1169.61 939.687,1139.48 949.929,1111.61 960.171,1086.89 970.413,1066.13 980.654,1050.02 990.896,1039.07 1001.14,1033.65 1011.38,1033.93 1021.62,1039.9 1031.86,1051.38 1042.11,1067.97 1052.35,1089.15 1062.59,1114.22 1072.83,1142.36 1083.07,1172.65 1093.31,1204.11 1103.56,1235.71 1113.8,1266.41 1124.04,1295.22 1134.28,1321.2 1144.52,1343.49 1154.77,1361.37 1165.01,1374.26 1175.25,1381.74 1185.49,1383.55 1195.73,1379.65 1205.98,1370.15 1216.22,1355.38 1226.46,1335.81 1236.7,1312.08 1246.94,1284.96 1257.18,1255.34 1267.43,1224.19 1277.67,330.633 1287.91,329.184 1298.15,330.503 1308.39,334.891 1318.64,341.006 1328.88,346.262 1339.12,347.818 1349.36,343.774 1359.6,334.133 1369.84,321.136 1380.09,308.768 1390.33,301.543 1400.57,302.929 1410.81,313.953 1421.05,332.494 1431.3,353.596 1441.54,370.78 1451.78,378.028 1462.02,371.824 1472.26,352.572 1482.51,324.88 1492.75,296.501 1502.99,276.162 1513.23,270.893 1523.47,283.666 1533.71,312.123 1543.96,348.874 1554.2,383.397 1564.44,405.049 1574.68,406.331 1584.92,385.413 1595.17,347.077 1605.41,301.697 1615.65,262.443 1625.89,241.459 1636.13,246.125 1646.38,276.547 1656.62,325.114 1666.86,378.355 1677.1,420.677 1687.34,438.923 1697.58,426.445 1707.83,385.416 1718.07,326.609 1728.31,266.597 1738.55,223.084 1748.79,209.683 1759.04,231.688 1769.28,284.137 1779.52,352.847 1789.76,418.233 1800,460.892 1810.24,467.353 1820.49,434.299 1830.73,369.937 1840.97,292.013 1851.21,222.927 1861.45,183.293 1871.7,185.799 1881.94,231.184 1892.18,307.611 1902.42,393.717 1912.66,464.585 1922.91,498.949 1933.15,485.567 1943.39,426.846 1953.63,338.558 1963.87,245.631 1974.11,175.108 1984.36,148.282 1994.6,174.279 2004.84,247.029 2015.08,346.61 2025.32,444.686 2035.57,512.574 2045.81,529.626 2056.05,489.492 2066.29,402.361 2076.53,292.42 2086.77,191.146 2097.02,128.298 2107.26,123.171 2117.5,178.703 2127.74,280.204 2137.98,399.216 2148.23,501.488 2158.47,556.829 2168.71,548.018 2178.95,476.13 2189.19,360.646 2199.44,234.194 2209.68,133.331 2219.92,87.9763 2230.16,112.546 2240.4,201.412 2250.64,330.106 2260.89,462.046 2271.13,558.935 2281.37,591.87 2291.61,549.961 "/>
<path clip-path="url(#clip450)" d="M264.353 250.738 L707.222 250.738 L707.222 95.2176 L264.353 95.2176  Z" fill="#ffffff" fill-rule="evenodd" fill-opacity="1"/>
<polyline clip-path="url(#clip450)" style="stroke:#000000; stroke-linecap:round; stroke-linejoin:round; stroke-width:4; stroke-opacity:1; fill:none" points="264.353,250.738 707.222,250.738 707.222,95.2176 264.353,95.2176 264.353,250.738 "/>
<polyline clip-path="url(#clip450)" style="stroke:#009af9; stroke-linecap:round; stroke-linejoin:round; stroke-width:16; stroke-opacity:1; fill:none" stroke-dasharray="8, 16" points="288.357,147.058 432.385,147.058 "/>
<path clip-path="url(#clip450)" d="M461.066 133.62 L461.066 146.606 L466.945 146.606 Q470.209 146.606 471.992 144.916 Q473.774 143.227 473.774 140.102 Q473.774 137 471.992 135.31 Q470.209 133.62 466.945 133.62 L461.066 133.62 M456.39 129.778 L466.945 129.778 Q472.755 129.778 475.718 132.416 Q478.704 135.032 478.704 140.102 Q478.704 145.217 475.718 147.833 Q472.755 150.449 466.945 150.449 L461.066 150.449 L461.066 164.338 L456.39 164.338 L456.39 129.778 Z" fill="#000000" fill-rule="nonzero" fill-opacity="1" /><path clip-path="url(#clip450)" d="M498.982 142.393 Q498.265 141.977 497.408 141.791 Q496.575 141.583 495.556 141.583 Q491.945 141.583 490.001 143.944 Q488.079 146.282 488.079 150.68 L488.079 164.338 L483.797 164.338 L483.797 138.412 L488.079 138.412 L488.079 142.44 Q489.422 140.078 491.575 138.944 Q493.728 137.787 496.806 137.787 Q497.246 137.787 497.778 137.856 Q498.311 137.903 498.959 138.018 L498.982 142.393 Z" fill="#000000" fill-rule="nonzero" fill-opacity="1" /><path clip-path="url(#clip450)" d="M524.584 150.31 L524.584 152.393 L505.001 152.393 Q505.278 156.791 507.639 159.106 Q510.024 161.398 514.26 161.398 Q516.714 161.398 519.005 160.796 Q521.32 160.194 523.588 158.99 L523.588 163.018 Q521.297 163.99 518.889 164.5 Q516.482 165.009 514.005 165.009 Q507.802 165.009 504.167 161.398 Q500.556 157.787 500.556 151.629 Q500.556 145.264 503.982 141.537 Q507.431 137.787 513.264 137.787 Q518.496 137.787 521.528 141.166 Q524.584 144.523 524.584 150.31 M520.325 149.06 Q520.278 145.565 518.357 143.481 Q516.459 141.398 513.311 141.398 Q509.746 141.398 507.593 143.412 Q505.464 145.426 505.14 149.083 L520.325 149.06 Z" fill="#000000" fill-rule="nonzero" fill-opacity="1" /><path clip-path="url(#clip450)" d="M548.635 142.347 L548.635 128.319 L552.894 128.319 L552.894 164.338 L548.635 164.338 L548.635 160.449 Q547.292 162.763 545.232 163.898 Q543.195 165.009 540.325 165.009 Q535.625 165.009 532.663 161.259 Q529.723 157.509 529.723 151.398 Q529.723 145.287 532.663 141.537 Q535.625 137.787 540.325 137.787 Q543.195 137.787 545.232 138.921 Q547.292 140.032 548.635 142.347 M534.121 151.398 Q534.121 156.097 536.042 158.782 Q537.987 161.444 541.366 161.444 Q544.746 161.444 546.69 158.782 Q548.635 156.097 548.635 151.398 Q548.635 146.699 546.69 144.037 Q544.746 141.352 541.366 141.352 Q537.987 141.352 536.042 144.037 Q534.121 146.699 534.121 151.398 Z" fill="#000000" fill-rule="nonzero" fill-opacity="1" /><path clip-path="url(#clip450)" d="M561.667 138.412 L565.926 138.412 L565.926 164.338 L561.667 164.338 L561.667 138.412 M561.667 128.319 L565.926 128.319 L565.926 133.713 L561.667 133.713 L561.667 128.319 Z" fill="#000000" fill-rule="nonzero" fill-opacity="1" /><path clip-path="url(#clip450)" d="M593.496 139.407 L593.496 143.389 Q591.69 142.393 589.861 141.907 Q588.056 141.398 586.204 141.398 Q582.06 141.398 579.769 144.037 Q577.477 146.652 577.477 151.398 Q577.477 156.143 579.769 158.782 Q582.06 161.398 586.204 161.398 Q588.056 161.398 589.861 160.912 Q591.69 160.402 593.496 159.407 L593.496 163.342 Q591.713 164.176 589.792 164.592 Q587.894 165.009 585.741 165.009 Q579.884 165.009 576.435 161.328 Q572.986 157.648 572.986 151.398 Q572.986 145.055 576.459 141.421 Q579.954 137.787 586.019 137.787 Q587.986 137.787 589.861 138.203 Q591.736 138.597 593.496 139.407 Z" fill="#000000" fill-rule="nonzero" fill-opacity="1" /><path clip-path="url(#clip450)" d="M605.116 131.051 L605.116 138.412 L613.889 138.412 L613.889 141.722 L605.116 141.722 L605.116 155.796 Q605.116 158.967 605.972 159.87 Q606.852 160.773 609.514 160.773 L613.889 160.773 L613.889 164.338 L609.514 164.338 Q604.583 164.338 602.708 162.509 Q600.833 160.657 600.833 155.796 L600.833 141.722 L597.708 141.722 L597.708 138.412 L600.833 138.412 L600.833 131.051 L605.116 131.051 Z" fill="#000000" fill-rule="nonzero" fill-opacity="1" /><path clip-path="url(#clip450)" d="M619.491 138.412 L623.75 138.412 L623.75 164.338 L619.491 164.338 L619.491 138.412 M619.491 128.319 L623.75 128.319 L623.75 133.713 L619.491 133.713 L619.491 128.319 Z" fill="#000000" fill-rule="nonzero" fill-opacity="1" /><path clip-path="url(#clip450)" d="M642.708 141.398 Q639.282 141.398 637.292 144.083 Q635.301 146.745 635.301 151.398 Q635.301 156.051 637.268 158.736 Q639.259 161.398 642.708 161.398 Q646.111 161.398 648.102 158.713 Q650.092 156.027 650.092 151.398 Q650.092 146.791 648.102 144.106 Q646.111 141.398 642.708 141.398 M642.708 137.787 Q648.264 137.787 651.435 141.398 Q654.606 145.009 654.606 151.398 Q654.606 157.764 651.435 161.398 Q648.264 165.009 642.708 165.009 Q637.13 165.009 633.958 161.398 Q630.81 157.764 630.81 151.398 Q630.81 145.009 633.958 141.398 Q637.13 137.787 642.708 137.787 Z" fill="#000000" fill-rule="nonzero" fill-opacity="1" /><path clip-path="url(#clip450)" d="M683.217 148.689 L683.217 164.338 L678.958 164.338 L678.958 148.828 Q678.958 145.148 677.523 143.319 Q676.088 141.49 673.217 141.49 Q669.768 141.49 667.778 143.69 Q665.787 145.889 665.787 149.685 L665.787 164.338 L661.504 164.338 L661.504 138.412 L665.787 138.412 L665.787 142.44 Q667.315 140.102 669.375 138.944 Q671.458 137.787 674.166 137.787 Q678.634 137.787 680.926 140.565 Q683.217 143.319 683.217 148.689 Z" fill="#000000" fill-rule="nonzero" fill-opacity="1" /><polyline clip-path="url(#clip450)" style="stroke:#e26f46; stroke-linecap:round; stroke-linejoin:round; stroke-width:4; stroke-opacity:1; fill:none" points="288.357,198.898 432.385,198.898 "/>
<path clip-path="url(#clip450)" d="M456.39 181.618 L478.242 181.618 L478.242 185.553 L461.066 185.553 L461.066 195.784 L477.524 195.784 L477.524 199.719 L461.066 199.719 L461.066 212.242 L478.658 212.242 L478.658 216.178 L456.39 216.178 L456.39 181.618 Z" fill="#000000" fill-rule="nonzero" fill-opacity="1" /><path clip-path="url(#clip450)" d="M507.709 190.252 L498.334 202.867 L508.195 216.178 L503.172 216.178 L495.626 205.992 L488.079 216.178 L483.056 216.178 L493.126 202.613 L483.913 190.252 L488.936 190.252 L495.811 199.488 L502.686 190.252 L507.709 190.252 Z" fill="#000000" fill-rule="nonzero" fill-opacity="1" /><path clip-path="url(#clip450)" d="M525.996 203.145 Q520.834 203.145 518.843 204.326 Q516.852 205.506 516.852 208.354 Q516.852 210.622 518.334 211.965 Q519.838 213.284 522.408 213.284 Q525.95 213.284 528.079 210.784 Q530.232 208.261 530.232 204.094 L530.232 203.145 L525.996 203.145 M534.491 201.386 L534.491 216.178 L530.232 216.178 L530.232 212.242 Q528.774 214.603 526.598 215.738 Q524.422 216.849 521.274 216.849 Q517.292 216.849 514.931 214.627 Q512.593 212.381 512.593 208.631 Q512.593 204.256 515.51 202.034 Q518.45 199.812 524.26 199.812 L530.232 199.812 L530.232 199.395 Q530.232 196.455 528.288 194.858 Q526.366 193.238 522.871 193.238 Q520.649 193.238 518.542 193.77 Q516.436 194.303 514.491 195.367 L514.491 191.432 Q516.829 190.53 519.028 190.09 Q521.227 189.627 523.311 189.627 Q528.936 189.627 531.713 192.543 Q534.491 195.46 534.491 201.386 Z" fill="#000000" fill-rule="nonzero" fill-opacity="1" /><path clip-path="url(#clip450)" d="M561.922 191.247 L561.922 195.229 Q560.116 194.233 558.287 193.747 Q556.482 193.238 554.63 193.238 Q550.486 193.238 548.195 195.877 Q545.903 198.492 545.903 203.238 Q545.903 207.983 548.195 210.622 Q550.486 213.238 554.63 213.238 Q556.482 213.238 558.287 212.752 Q560.116 212.242 561.922 211.247 L561.922 215.182 Q560.139 216.016 558.218 216.432 Q556.32 216.849 554.167 216.849 Q548.311 216.849 544.862 213.168 Q541.412 209.488 541.412 203.238 Q541.412 196.895 544.885 193.261 Q548.38 189.627 554.445 189.627 Q556.412 189.627 558.287 190.043 Q560.162 190.437 561.922 191.247 Z" fill="#000000" fill-rule="nonzero" fill-opacity="1" /><path clip-path="url(#clip450)" d="M573.542 182.891 L573.542 190.252 L582.315 190.252 L582.315 193.562 L573.542 193.562 L573.542 207.636 Q573.542 210.807 574.398 211.71 Q575.278 212.613 577.94 212.613 L582.315 212.613 L582.315 216.178 L577.94 216.178 Q573.01 216.178 571.135 214.349 Q569.26 212.497 569.26 207.636 L569.26 193.562 L566.135 193.562 L566.135 190.252 L569.26 190.252 L569.26 182.891 L573.542 182.891 Z" fill="#000000" fill-rule="nonzero" fill-opacity="1" /></svg>
