<?xml version="1.0" encoding="utf-8"?>
<svg xmlns="http://www.w3.org/2000/svg" xmlns:xlink="http://www.w3.org/1999/xlink" width="600" height="400" viewBox="0 0 2400 1600">
<defs>
  <clipPath id="clip360">
    <rect x="0" y="0" width="2400" height="1600"/>
  </clipPath>
</defs>
<path clip-path="url(#clip360)" d="M0 1600 L2400 1600 L2400 0 L0 0  Z" fill="#ffffff" fill-rule="evenodd" fill-opacity="1"/>
<defs>
  <clipPath id="clip361">
    <rect x="480" y="0" width="1681" height="1600"/>
  </clipPath>
</defs>
<path clip-path="url(#clip360)" d="M192.339 1486.45 L2352.76 1486.45 L2352.76 47.2441 L192.339 47.2441  Z" fill="#ffffff" fill-rule="evenodd" fill-opacity="1"/>
<defs>
  <clipPath id="clip362">
    <rect x="192" y="47" width="2161" height="1440"/>
  </clipPath>
</defs>
<polyline clip-path="url(#clip362)" style="stroke:#000000; stroke-linecap:round; stroke-linejoin:round; stroke-width:2; stroke-opacity:0.1; fill:none" points="253.483,1486.45 253.483,47.2441 "/>
<polyline clip-path="url(#clip362)" style="stroke:#000000; stroke-linecap:round; stroke-linejoin:round; stroke-width:2; stroke-opacity:0.1; fill:none" points="763.015,1486.45 763.015,47.2441 "/>
<polyline clip-path="url(#clip362)" style="stroke:#000000; stroke-linecap:round; stroke-linejoin:round; stroke-width:2; stroke-opacity:0.1; fill:none" points="1272.55,1486.45 1272.55,47.2441 "/>
<polyline clip-path="url(#clip362)" style="stroke:#000000; stroke-linecap:round; stroke-linejoin:round; stroke-width:2; stroke-opacity:0.1; fill:none" points="1782.08,1486.45 1782.08,47.2441 "/>
<polyline clip-path="url(#clip362)" style="stroke:#000000; stroke-linecap:round; stroke-linejoin:round; stroke-width:2; stroke-opacity:0.1; fill:none" points="2291.61,1486.45 2291.61,47.2441 "/>
<polyline clip-path="url(#clip360)" style="stroke:#000000; stroke-linecap:round; stroke-linejoin:round; stroke-width:4; stroke-opacity:1; fill:none" points="192.339,1486.45 2352.76,1486.45 "/>
<polyline clip-path="url(#clip360)" style="stroke:#000000; stroke-linecap:round; stroke-linejoin:round; stroke-width:4; stroke-opacity:1; fill:none" points="253.483,1486.45 253.483,1467.55 "/>
<polyline clip-path="url(#clip360)" style="stroke:#000000; stroke-linecap:round; stroke-linejoin:round; stroke-width:4; stroke-opacity:1; fill:none" points="763.015,1486.45 763.015,1467.55 "/>
<polyline clip-path="url(#clip360)" style="stroke:#000000; stroke-linecap:round; stroke-linejoin:round; stroke-width:4; stroke-opacity:1; fill:none" points="1272.55,1486.45 1272.55,1467.55 "/>
<polyline clip-path="url(#clip360)" style="stroke:#000000; stroke-linecap:round; stroke-linejoin:round; stroke-width:4; stroke-opacity:1; fill:none" points="1782.08,1486.45 1782.08,1467.55 "/>
<polyline clip-path="url(#clip360)" style="stroke:#000000; stroke-linecap:round; stroke-linejoin:round; stroke-width:4; stroke-opacity:1; fill:none" points="2291.61,1486.45 2291.61,1467.55 "/>
<path clip-path="url(#clip360)" d="M200.011 1532.02 L229.686 1532.02 L229.686 1535.95 L200.011 1535.95 L200.011 1532.02 Z" fill="#000000" fill-rule="nonzero" fill-opacity="1" /><path clip-path="url(#clip360)" d="M240.589 1544.91 L248.228 1544.91 L248.228 1518.55 L239.918 1520.21 L239.918 1515.95 L248.182 1514.29 L252.858 1514.29 L252.858 1544.91 L260.497 1544.91 L260.497 1548.85 L240.589 1548.85 L240.589 1544.91 Z" fill="#000000" fill-rule="nonzero" fill-opacity="1" /><path clip-path="url(#clip360)" d="M269.941 1542.97 L274.825 1542.97 L274.825 1548.85 L269.941 1548.85 L269.941 1542.97 Z" fill="#000000" fill-rule="nonzero" fill-opacity="1" /><path clip-path="url(#clip360)" d="M295.01 1517.37 Q291.399 1517.37 289.57 1520.93 Q287.765 1524.47 287.765 1531.6 Q287.765 1538.71 289.57 1542.27 Q291.399 1545.82 295.01 1545.82 Q298.644 1545.82 300.45 1542.27 Q302.279 1538.71 302.279 1531.6 Q302.279 1524.47 300.45 1520.93 Q298.644 1517.37 295.01 1517.37 M295.01 1513.66 Q300.82 1513.66 303.876 1518.27 Q306.955 1522.85 306.955 1531.6 Q306.955 1540.33 303.876 1544.94 Q300.82 1549.52 295.01 1549.52 Q289.2 1549.52 286.121 1544.94 Q283.066 1540.33 283.066 1531.6 Q283.066 1522.85 286.121 1518.27 Q289.2 1513.66 295.01 1513.66 Z" fill="#000000" fill-rule="nonzero" fill-opacity="1" /><path clip-path="url(#clip360)" d="M710.041 1532.02 L739.717 1532.02 L739.717 1535.95 L710.041 1535.95 L710.041 1532.02 Z" fill="#000000" fill-rule="nonzero" fill-opacity="1" /><path clip-path="url(#clip360)" d="M759.809 1517.37 Q756.198 1517.37 754.369 1520.93 Q752.564 1524.47 752.564 1531.6 Q752.564 1538.71 754.369 1542.27 Q756.198 1545.82 759.809 1545.82 Q763.443 1545.82 765.249 1542.27 Q767.077 1538.71 767.077 1531.6 Q767.077 1524.47 765.249 1520.93 Q763.443 1517.37 759.809 1517.37 M759.809 1513.66 Q765.619 1513.66 768.675 1518.27 Q771.753 1522.85 771.753 1531.6 Q771.753 1540.33 768.675 1544.94 Q765.619 1549.52 759.809 1549.52 Q753.999 1549.52 750.92 1544.94 Q747.865 1540.33 747.865 1531.6 Q747.865 1522.85 750.92 1518.27 Q753.999 1513.66 759.809 1513.66 Z" fill="#000000" fill-rule="nonzero" fill-opacity="1" /><path clip-path="url(#clip360)" d="M779.971 1542.97 L784.855 1542.97 L784.855 1548.85 L779.971 1548.85 L779.971 1542.97 Z" fill="#000000" fill-rule="nonzero" fill-opacity="1" /><path clip-path="url(#clip360)" d="M795.087 1514.29 L813.443 1514.29 L813.443 1518.22 L799.369 1518.22 L799.369 1526.7 Q800.387 1526.35 801.406 1526.19 Q802.425 1526 803.443 1526 Q809.23 1526 812.61 1529.17 Q815.989 1532.34 815.989 1537.76 Q815.989 1543.34 812.517 1546.44 Q809.045 1549.52 802.725 1549.52 Q800.55 1549.52 798.281 1549.15 Q796.036 1548.78 793.628 1548.04 L793.628 1543.34 Q795.712 1544.47 797.934 1545.03 Q800.156 1545.58 802.633 1545.58 Q806.637 1545.58 808.975 1543.48 Q811.313 1541.37 811.313 1537.76 Q811.313 1534.15 808.975 1532.04 Q806.637 1529.94 802.633 1529.94 Q800.758 1529.94 798.883 1530.35 Q797.031 1530.77 795.087 1531.65 L795.087 1514.29 Z" fill="#000000" fill-rule="nonzero" fill-opacity="1" /><path clip-path="url(#clip360)" d="M1249.93 1517.37 Q1246.32 1517.37 1244.49 1520.93 Q1242.69 1524.47 1242.69 1531.6 Q1242.69 1538.71 1244.49 1542.27 Q1246.32 1545.82 1249.93 1545.82 Q1253.57 1545.82 1255.37 1542.27 Q1257.2 1538.71 1257.2 1531.6 Q1257.2 1524.47 1255.37 1520.93 Q1253.57 1517.37 1249.93 1517.37 M1249.93 1513.66 Q1255.74 1513.66 1258.8 1518.27 Q1261.88 1522.85 1261.88 1531.6 Q1261.88 1540.33 1258.8 1544.94 Q1255.74 1549.52 1249.93 1549.52 Q1244.12 1549.52 1241.04 1544.94 Q1237.99 1540.33 1237.99 1531.6 Q1237.99 1522.85 1241.04 1518.27 Q1244.12 1513.66 1249.93 1513.66 Z" fill="#000000" fill-rule="nonzero" fill-opacity="1" /><path clip-path="url(#clip360)" d="M1270.09 1542.97 L1274.98 1542.97 L1274.98 1548.85 L1270.09 1548.85 L1270.09 1542.97 Z" fill="#000000" fill-rule="nonzero" fill-opacity="1" /><path clip-path="url(#clip360)" d="M1295.16 1517.37 Q1291.55 1517.37 1289.72 1520.93 Q1287.92 1524.47 1287.92 1531.6 Q1287.92 1538.71 1289.72 1542.27 Q1291.55 1545.82 1295.16 1545.82 Q1298.8 1545.82 1300.6 1542.27 Q1302.43 1538.71 1302.43 1531.6 Q1302.43 1524.47 1300.6 1520.93 Q1298.8 1517.37 1295.16 1517.37 M1295.16 1513.66 Q1300.97 1513.66 1304.03 1518.27 Q1307.11 1522.85 1307.11 1531.6 Q1307.11 1540.33 1304.03 1544.94 Q1300.97 1549.52 1295.16 1549.52 Q1289.35 1549.52 1286.27 1544.94 Q1283.22 1540.33 1283.22 1531.6 Q1283.22 1522.85 1286.27 1518.27 Q1289.35 1513.66 1295.16 1513.66 Z" fill="#000000" fill-rule="nonzero" fill-opacity="1" /><path clip-path="url(#clip360)" d="M1759.96 1517.37 Q1756.35 1517.37 1754.52 1520.93 Q1752.72 1524.47 1752.72 1531.6 Q1752.72 1538.71 1754.52 1542.27 Q1756.35 1545.82 1759.96 1545.82 Q1763.6 1545.82 1765.4 1542.27 Q1767.23 1538.71 1767.23 1531.6 Q1767.23 1524.47 1765.4 1520.93 Q1763.6 1517.37 1759.96 1517.37 M1759.96 1513.66 Q1765.77 1513.66 1768.83 1518.27 Q1771.91 1522.85 1771.91 1531.6 Q1771.91 1540.33 1768.83 1544.94 Q1765.77 1549.52 1759.96 1549.52 Q1754.15 1549.52 1751.07 1544.94 Q1748.02 1540.33 1748.02 1531.6 Q1748.02 1522.85 1751.07 1518.27 Q1754.15 1513.66 1759.96 1513.66 Z" fill="#000000" fill-rule="nonzero" fill-opacity="1" /><path clip-path="url(#clip360)" d="M1780.12 1542.97 L1785.01 1542.97 L1785.01 1548.85 L1780.12 1548.85 L1780.12 1542.97 Z" fill="#000000" fill-rule="nonzero" fill-opacity="1" /><path clip-path="url(#clip360)" d="M1795.24 1514.29 L1813.6 1514.29 L1813.6 1518.22 L1799.52 1518.22 L1799.52 1526.7 Q1800.54 1526.35 1801.56 1526.19 Q1802.58 1526 1803.6 1526 Q1809.38 1526 1812.76 1529.17 Q1816.14 1532.34 1816.14 1537.76 Q1816.14 1543.34 1812.67 1546.44 Q1809.2 1549.52 1802.88 1549.52 Q1800.7 1549.52 1798.43 1549.15 Q1796.19 1548.78 1793.78 1548.04 L1793.78 1543.34 Q1795.86 1544.47 1798.09 1545.03 Q1800.31 1545.58 1802.79 1545.58 Q1806.79 1545.58 1809.13 1543.48 Q1811.47 1541.37 1811.47 1537.76 Q1811.47 1534.15 1809.13 1532.04 Q1806.79 1529.94 1802.79 1529.94 Q1800.91 1529.94 1799.04 1530.35 Q1797.18 1530.77 1795.24 1531.65 L1795.24 1514.29 Z" fill="#000000" fill-rule="nonzero" fill-opacity="1" /><path clip-path="url(#clip360)" d="M2258.76 1544.91 L2266.4 1544.91 L2266.4 1518.55 L2258.09 1520.21 L2258.09 1515.95 L2266.36 1514.29 L2271.03 1514.29 L2271.03 1544.91 L2278.67 1544.91 L2278.67 1548.85 L2258.76 1548.85 L2258.76 1544.91 Z" fill="#000000" fill-rule="nonzero" fill-opacity="1" /><path clip-path="url(#clip360)" d="M2288.12 1542.97 L2293 1542.97 L2293 1548.85 L2288.12 1548.85 L2288.12 1542.97 Z" fill="#000000" fill-rule="nonzero" fill-opacity="1" /><path clip-path="url(#clip360)" d="M2313.19 1517.37 Q2309.57 1517.37 2307.75 1520.93 Q2305.94 1524.47 2305.94 1531.6 Q2305.94 1538.71 2307.75 1542.27 Q2309.57 1545.82 2313.19 1545.82 Q2316.82 1545.82 2318.63 1542.27 Q2320.45 1538.71 2320.45 1531.6 Q2320.45 1524.47 2318.63 1520.93 Q2316.82 1517.37 2313.19 1517.37 M2313.19 1513.66 Q2319 1513.66 2322.05 1518.27 Q2325.13 1522.85 2325.13 1531.6 Q2325.13 1540.33 2322.05 1544.94 Q2319 1549.52 2313.19 1549.52 Q2307.38 1549.52 2304.3 1544.94 Q2301.24 1540.33 2301.24 1531.6 Q2301.24 1522.85 2304.3 1518.27 Q2307.38 1513.66 2313.19 1513.66 Z" fill="#000000" fill-rule="nonzero" fill-opacity="1" /><polyline clip-path="url(#clip362)" style="stroke:#000000; stroke-linecap:round; stroke-linejoin:round; stroke-width:2; stroke-opacity:0.1; fill:none" points="192.339,1378.06 2352.76,1378.06 "/>
<polyline clip-path="url(#clip362)" style="stroke:#000000; stroke-linecap:round; stroke-linejoin:round; stroke-width:2; stroke-opacity:0.1; fill:none" points="192.339,1203.53 2352.76,1203.53 "/>
<polyline clip-path="url(#clip362)" style="stroke:#000000; stroke-linecap:round; stroke-linejoin:round; stroke-width:2; stroke-opacity:0.1; fill:none" points="192.339,1028.99 2352.76,1028.99 "/>
<polyline clip-path="url(#clip362)" style="stroke:#000000; stroke-linecap:round; stroke-linejoin:round; stroke-width:2; stroke-opacity:0.1; fill:none" points="192.339,854.457 2352.76,854.457 "/>
<polyline clip-path="url(#clip362)" style="stroke:#000000; stroke-linecap:round; stroke-linejoin:round; stroke-width:2; stroke-opacity:0.1; fill:none" points="192.339,679.923 2352.76,679.923 "/>
<polyline clip-path="url(#clip362)" style="stroke:#000000; stroke-linecap:round; stroke-linejoin:round; stroke-width:2; stroke-opacity:0.1; fill:none" points="192.339,505.388 2352.76,505.388 "/>
<polyline clip-path="url(#clip362)" style="stroke:#000000; stroke-linecap:round; stroke-linejoin:round; stroke-width:2; stroke-opacity:0.1; fill:none" points="192.339,330.854 2352.76,330.854 "/>
<polyline clip-path="url(#clip362)" style="stroke:#000000; stroke-linecap:round; stroke-linejoin:round; stroke-width:2; stroke-opacity:0.1; fill:none" points="192.339,156.32 2352.76,156.32 "/>
<polyline clip-path="url(#clip360)" style="stroke:#000000; stroke-linecap:round; stroke-linejoin:round; stroke-width:4; stroke-opacity:1; fill:none" points="192.339,1486.45 192.339,47.2441 "/>
<polyline clip-path="url(#clip360)" style="stroke:#000000; stroke-linecap:round; stroke-linejoin:round; stroke-width:4; stroke-opacity:1; fill:none" points="192.339,1378.06 211.236,1378.06 "/>
<polyline clip-path="url(#clip360)" style="stroke:#000000; stroke-linecap:round; stroke-linejoin:round; stroke-width:4; stroke-opacity:1; fill:none" points="192.339,1203.53 211.236,1203.53 "/>
<polyline clip-path="url(#clip360)" style="stroke:#000000; stroke-linecap:round; stroke-linejoin:round; stroke-width:4; stroke-opacity:1; fill:none" points="192.339,1028.99 211.236,1028.99 "/>
<polyline clip-path="url(#clip360)" style="stroke:#000000; stroke-linecap:round; stroke-linejoin:round; stroke-width:4; stroke-opacity:1; fill:none" points="192.339,854.457 211.236,854.457 "/>
<polyline clip-path="url(#clip360)" style="stroke:#000000; stroke-linecap:round; stroke-linejoin:round; stroke-width:4; stroke-opacity:1; fill:none" points="192.339,679.923 211.236,679.923 "/>
<polyline clip-path="url(#clip360)" style="stroke:#000000; stroke-linecap:round; stroke-linejoin:round; stroke-width:4; stroke-opacity:1; fill:none" points="192.339,505.388 211.236,505.388 "/>
<polyline clip-path="url(#clip360)" style="stroke:#000000; stroke-linecap:round; stroke-linejoin:round; stroke-width:4; stroke-opacity:1; fill:none" points="192.339,330.854 211.236,330.854 "/>
<polyline clip-path="url(#clip360)" style="stroke:#000000; stroke-linecap:round; stroke-linejoin:round; stroke-width:4; stroke-opacity:1; fill:none" points="192.339,156.32 211.236,156.32 "/>
<path clip-path="url(#clip360)" d="M50.9921 1378.51 L80.6679 1378.51 L80.6679 1382.45 L50.9921 1382.45 L50.9921 1378.51 Z" fill="#000000" fill-rule="nonzero" fill-opacity="1" /><path clip-path="url(#clip360)" d="M100.76 1363.86 Q97.1493 1363.86 95.3206 1367.42 Q93.515 1370.97 93.515 1378.1 Q93.515 1385.2 95.3206 1388.77 Q97.1493 1392.31 100.76 1392.31 Q104.395 1392.31 106.2 1388.77 Q108.029 1385.2 108.029 1378.1 Q108.029 1370.97 106.2 1367.42 Q104.395 1363.86 100.76 1363.86 M100.76 1360.16 Q106.571 1360.16 109.626 1364.76 Q112.705 1369.35 112.705 1378.1 Q112.705 1386.82 109.626 1391.43 Q106.571 1396.01 100.76 1396.01 Q94.9502 1396.01 91.8715 1391.43 Q88.816 1386.82 88.816 1378.1 Q88.816 1369.35 91.8715 1364.76 Q94.9502 1360.16 100.76 1360.16 Z" fill="#000000" fill-rule="nonzero" fill-opacity="1" /><path clip-path="url(#clip360)" d="M120.922 1389.46 L125.807 1389.46 L125.807 1395.34 L120.922 1395.34 L120.922 1389.46 Z" fill="#000000" fill-rule="nonzero" fill-opacity="1" /><path clip-path="url(#clip360)" d="M140.019 1391.41 L156.339 1391.41 L156.339 1395.34 L134.394 1395.34 L134.394 1391.41 Q137.056 1388.65 141.64 1384.02 Q146.246 1379.37 147.427 1378.03 Q149.672 1375.5 150.552 1373.77 Q151.455 1372.01 151.455 1370.32 Q151.455 1367.56 149.51 1365.83 Q147.589 1364.09 144.487 1364.09 Q142.288 1364.09 139.834 1364.85 Q137.404 1365.62 134.626 1367.17 L134.626 1362.45 Q137.45 1361.31 139.904 1360.73 Q142.357 1360.16 144.394 1360.16 Q149.765 1360.16 152.959 1362.84 Q156.154 1365.53 156.154 1370.02 Q156.154 1372.15 155.343 1374.07 Q154.556 1375.97 152.45 1378.56 Q151.871 1379.23 148.769 1382.45 Q145.668 1385.64 140.019 1391.41 Z" fill="#000000" fill-rule="nonzero" fill-opacity="1" /><path clip-path="url(#clip360)" d="M99.1632 1189.32 Q95.5521 1189.32 93.7234 1192.89 Q91.9178 1196.43 91.9178 1203.56 Q91.9178 1210.67 93.7234 1214.23 Q95.5521 1217.77 99.1632 1217.77 Q102.797 1217.77 104.603 1214.23 Q106.432 1210.67 106.432 1203.56 Q106.432 1196.43 104.603 1192.89 Q102.797 1189.32 99.1632 1189.32 M99.1632 1185.62 Q104.973 1185.62 108.029 1190.23 Q111.108 1194.81 111.108 1203.56 Q111.108 1212.29 108.029 1216.89 Q104.973 1221.48 99.1632 1221.48 Q93.353 1221.48 90.2743 1216.89 Q87.2188 1212.29 87.2188 1203.56 Q87.2188 1194.81 90.2743 1190.23 Q93.353 1185.62 99.1632 1185.62 Z" fill="#000000" fill-rule="nonzero" fill-opacity="1" /><path clip-path="url(#clip360)" d="M119.325 1214.93 L124.209 1214.93 L124.209 1220.81 L119.325 1220.81 L119.325 1214.93 Z" fill="#000000" fill-rule="nonzero" fill-opacity="1" /><path clip-path="url(#clip360)" d="M144.394 1189.32 Q140.783 1189.32 138.955 1192.89 Q137.149 1196.43 137.149 1203.56 Q137.149 1210.67 138.955 1214.23 Q140.783 1217.77 144.394 1217.77 Q148.029 1217.77 149.834 1214.23 Q151.663 1210.67 151.663 1203.56 Q151.663 1196.43 149.834 1192.89 Q148.029 1189.32 144.394 1189.32 M144.394 1185.62 Q150.205 1185.62 153.26 1190.23 Q156.339 1194.81 156.339 1203.56 Q156.339 1212.29 153.26 1216.89 Q150.205 1221.48 144.394 1221.48 Q138.584 1221.48 135.506 1216.89 Q132.45 1212.29 132.45 1203.56 Q132.45 1194.81 135.506 1190.23 Q138.584 1185.62 144.394 1185.62 Z" fill="#000000" fill-rule="nonzero" fill-opacity="1" /><path clip-path="url(#clip360)" d="M100.76 1014.79 Q97.1493 1014.79 95.3206 1018.36 Q93.515 1021.9 93.515 1029.03 Q93.515 1036.13 95.3206 1039.7 Q97.1493 1043.24 100.76 1043.24 Q104.395 1043.24 106.2 1039.7 Q108.029 1036.13 108.029 1029.03 Q108.029 1021.9 106.2 1018.36 Q104.395 1014.79 100.76 1014.79 M100.76 1011.09 Q106.571 1011.09 109.626 1015.69 Q112.705 1020.28 112.705 1029.03 Q112.705 1037.75 109.626 1042.36 Q106.571 1046.94 100.76 1046.94 Q94.9502 1046.94 91.8715 1042.36 Q88.816 1037.75 88.816 1029.03 Q88.816 1020.28 91.8715 1015.69 Q94.9502 1011.09 100.76 1011.09 Z" fill="#000000" fill-rule="nonzero" fill-opacity="1" /><path clip-path="url(#clip360)" d="M120.922 1040.39 L125.807 1040.39 L125.807 1046.27 L120.922 1046.27 L120.922 1040.39 Z" fill="#000000" fill-rule="nonzero" fill-opacity="1" /><path clip-path="url(#clip360)" d="M140.019 1042.34 L156.339 1042.34 L156.339 1046.27 L134.394 1046.27 L134.394 1042.34 Q137.056 1039.58 141.64 1034.95 Q146.246 1030.3 147.427 1028.96 Q149.672 1026.43 150.552 1024.7 Q151.455 1022.94 151.455 1021.25 Q151.455 1018.49 149.51 1016.76 Q147.589 1015.02 144.487 1015.02 Q142.288 1015.02 139.834 1015.79 Q137.404 1016.55 134.626 1018.1 L134.626 1013.38 Q137.45 1012.24 139.904 1011.67 Q142.357 1011.09 144.394 1011.09 Q149.765 1011.09 152.959 1013.77 Q156.154 1016.46 156.154 1020.95 Q156.154 1023.08 155.343 1025 Q154.556 1026.9 152.45 1029.49 Q151.871 1030.16 148.769 1033.38 Q145.668 1036.57 140.019 1042.34 Z" fill="#000000" fill-rule="nonzero" fill-opacity="1" /><path clip-path="url(#clip360)" d="M98.6771 840.256 Q95.066 840.256 93.2373 843.821 Q91.4317 847.362 91.4317 854.492 Q91.4317 861.598 93.2373 865.163 Q95.066 868.705 98.6771 868.705 Q102.311 868.705 104.117 865.163 Q105.946 861.598 105.946 854.492 Q105.946 847.362 104.117 843.821 Q102.311 840.256 98.6771 840.256 M98.6771 836.552 Q104.487 836.552 107.543 841.159 Q110.621 845.742 110.621 854.492 Q110.621 863.219 107.543 867.825 Q104.487 872.408 98.6771 872.408 Q92.8669 872.408 89.7882 867.825 Q86.7327 863.219 86.7327 854.492 Q86.7327 845.742 89.7882 841.159 Q92.8669 836.552 98.6771 836.552 Z" fill="#000000" fill-rule="nonzero" fill-opacity="1" /><path clip-path="url(#clip360)" d="M118.839 865.858 L123.723 865.858 L123.723 871.737 L118.839 871.737 L118.839 865.858 Z" fill="#000000" fill-rule="nonzero" fill-opacity="1" /><path clip-path="url(#clip360)" d="M146.756 841.251 L134.95 859.7 L146.756 859.7 L146.756 841.251 M145.529 837.177 L151.408 837.177 L151.408 859.7 L156.339 859.7 L156.339 863.589 L151.408 863.589 L151.408 871.737 L146.756 871.737 L146.756 863.589 L131.154 863.589 L131.154 859.075 L145.529 837.177 Z" fill="#000000" fill-rule="nonzero" fill-opacity="1" /><path clip-path="url(#clip360)" d="M99.0011 665.721 Q95.39 665.721 93.5613 669.286 Q91.7558 672.828 91.7558 679.957 Q91.7558 687.064 93.5613 690.629 Q95.39 694.17 99.0011 694.17 Q102.635 694.17 104.441 690.629 Q106.27 687.064 106.27 679.957 Q106.27 672.828 104.441 669.286 Q102.635 665.721 99.0011 665.721 M99.0011 662.018 Q104.811 662.018 107.867 666.624 Q110.946 671.208 110.946 679.957 Q110.946 688.684 107.867 693.291 Q104.811 697.874 99.0011 697.874 Q93.191 697.874 90.1123 693.291 Q87.0567 688.684 87.0567 679.957 Q87.0567 671.208 90.1123 666.624 Q93.191 662.018 99.0011 662.018 Z" fill="#000000" fill-rule="nonzero" fill-opacity="1" /><path clip-path="url(#clip360)" d="M119.163 691.323 L124.047 691.323 L124.047 697.203 L119.163 697.203 L119.163 691.323 Z" fill="#000000" fill-rule="nonzero" fill-opacity="1" /><path clip-path="url(#clip360)" d="M144.811 678.059 Q141.663 678.059 139.811 680.212 Q137.982 682.365 137.982 686.115 Q137.982 689.842 139.811 692.018 Q141.663 694.17 144.811 694.17 Q147.959 694.17 149.788 692.018 Q151.64 689.842 151.64 686.115 Q151.64 682.365 149.788 680.212 Q147.959 678.059 144.811 678.059 M154.093 663.407 L154.093 667.666 Q152.334 666.833 150.529 666.393 Q148.746 665.953 146.987 665.953 Q142.357 665.953 139.904 669.078 Q137.473 672.203 137.126 678.522 Q138.492 676.508 140.552 675.444 Q142.612 674.356 145.089 674.356 Q150.297 674.356 153.306 677.527 Q156.339 680.675 156.339 686.115 Q156.339 691.439 153.191 694.656 Q150.043 697.874 144.811 697.874 Q138.816 697.874 135.644 693.291 Q132.473 688.684 132.473 679.957 Q132.473 671.763 136.362 666.902 Q140.251 662.018 146.802 662.018 Q148.561 662.018 150.343 662.365 Q152.149 662.712 154.093 663.407 Z" fill="#000000" fill-rule="nonzero" fill-opacity="1" /><path clip-path="url(#clip360)" d="M99.2558 491.187 Q95.6447 491.187 93.816 494.752 Q92.0104 498.293 92.0104 505.423 Q92.0104 512.53 93.816 516.094 Q95.6447 519.636 99.2558 519.636 Q102.89 519.636 104.696 516.094 Q106.524 512.53 106.524 505.423 Q106.524 498.293 104.696 494.752 Q102.89 491.187 99.2558 491.187 M99.2558 487.483 Q105.066 487.483 108.121 492.09 Q111.2 496.673 111.2 505.423 Q111.2 514.15 108.121 518.756 Q105.066 523.34 99.2558 523.34 Q93.4456 523.34 90.3669 518.756 Q87.3114 514.15 87.3114 505.423 Q87.3114 496.673 90.3669 492.09 Q93.4456 487.483 99.2558 487.483 Z" fill="#000000" fill-rule="nonzero" fill-opacity="1" /><path clip-path="url(#clip360)" d="M119.418 516.789 L124.302 516.789 L124.302 522.668 L119.418 522.668 L119.418 516.789 Z" fill="#000000" fill-rule="nonzero" fill-opacity="1" /><path clip-path="url(#clip360)" d="M144.487 506.256 Q141.154 506.256 139.232 508.039 Q137.334 509.821 137.334 512.946 Q137.334 516.071 139.232 517.854 Q141.154 519.636 144.487 519.636 Q147.82 519.636 149.742 517.854 Q151.663 516.048 151.663 512.946 Q151.663 509.821 149.742 508.039 Q147.843 506.256 144.487 506.256 M139.811 504.266 Q136.802 503.525 135.112 501.465 Q133.445 499.405 133.445 496.442 Q133.445 492.298 136.385 489.891 Q139.348 487.483 144.487 487.483 Q149.649 487.483 152.589 489.891 Q155.529 492.298 155.529 496.442 Q155.529 499.405 153.839 501.465 Q152.172 503.525 149.186 504.266 Q152.566 505.053 154.441 507.344 Q156.339 509.636 156.339 512.946 Q156.339 517.969 153.26 520.654 Q150.205 523.34 144.487 523.34 Q138.769 523.34 135.691 520.654 Q132.635 517.969 132.635 512.946 Q132.635 509.636 134.533 507.344 Q136.431 505.053 139.811 504.266 M138.098 496.881 Q138.098 499.567 139.765 501.071 Q141.455 502.576 144.487 502.576 Q147.496 502.576 149.186 501.071 Q150.899 499.567 150.899 496.881 Q150.899 494.196 149.186 492.692 Q147.496 491.187 144.487 491.187 Q141.455 491.187 139.765 492.692 Q138.098 494.196 138.098 496.881 Z" fill="#000000" fill-rule="nonzero" fill-opacity="1" /><path clip-path="url(#clip360)" d="M89.9734 344.199 L97.6122 344.199 L97.6122 317.833 L89.3021 319.5 L89.3021 315.241 L97.566 313.574 L102.242 313.574 L102.242 344.199 L109.881 344.199 L109.881 348.134 L89.9734 348.134 L89.9734 344.199 Z" fill="#000000" fill-rule="nonzero" fill-opacity="1" /><path clip-path="url(#clip360)" d="M119.325 342.254 L124.209 342.254 L124.209 348.134 L119.325 348.134 L119.325 342.254 Z" fill="#000000" fill-rule="nonzero" fill-opacity="1" /><path clip-path="url(#clip360)" d="M144.394 316.653 Q140.783 316.653 138.955 320.217 Q137.149 323.759 137.149 330.889 Q137.149 337.995 138.955 341.56 Q140.783 345.102 144.394 345.102 Q148.029 345.102 149.834 341.56 Q151.663 337.995 151.663 330.889 Q151.663 323.759 149.834 320.217 Q148.029 316.653 144.394 316.653 M144.394 312.949 Q150.205 312.949 153.26 317.555 Q156.339 322.139 156.339 330.889 Q156.339 339.615 153.26 344.222 Q150.205 348.805 144.394 348.805 Q138.584 348.805 135.506 344.222 Q132.45 339.615 132.45 330.889 Q132.45 322.139 135.506 317.555 Q138.584 312.949 144.394 312.949 Z" fill="#000000" fill-rule="nonzero" fill-opacity="1" /><path clip-path="url(#clip360)" d="M91.5706 169.664 L99.2095 169.664 L99.2095 143.299 L90.8993 144.965 L90.8993 140.706 L99.1632 139.04 L103.839 139.04 L103.839 169.664 L111.478 169.664 L111.478 173.6 L91.5706 173.6 L91.5706 169.664 Z" fill="#000000" fill-rule="nonzero" fill-opacity="1" /><path clip-path="url(#clip360)" d="M120.922 167.72 L125.807 167.72 L125.807 173.6 L120.922 173.6 L120.922 167.72 Z" fill="#000000" fill-rule="nonzero" fill-opacity="1" /><path clip-path="url(#clip360)" d="M140.019 169.664 L156.339 169.664 L156.339 173.6 L134.394 173.6 L134.394 169.664 Q137.056 166.91 141.64 162.28 Q146.246 157.627 147.427 156.285 Q149.672 153.762 150.552 152.026 Q151.455 150.266 151.455 148.577 Q151.455 145.822 149.51 144.086 Q147.589 142.35 144.487 142.35 Q142.288 142.35 139.834 143.114 Q137.404 143.877 134.626 145.428 L134.626 140.706 Q137.45 139.572 139.904 138.993 Q142.357 138.415 144.394 138.415 Q149.765 138.415 152.959 141.1 Q156.154 143.785 156.154 148.276 Q156.154 150.405 155.343 152.326 Q154.556 154.225 152.45 156.817 Q151.871 157.488 148.769 160.706 Q145.668 163.901 140.019 169.664 Z" fill="#000000" fill-rule="nonzero" fill-opacity="1" /><polyline clip-path="url(#clip362)" style="stroke:#009af9; stroke-linecap:round; stroke-linejoin:round; stroke-width:16; stroke-opacity:1; fill:none" stroke-dasharray="8, 16" points="253.483,1072.45 263.725,1156.87 273.966,1172.34 284.208,1123.11 294.45,1034.89 304.692,944.994 314.934,901.939 325.176,952.59 335.418,1063.37 345.659,1131.49 355.901,1137.02 366.143,1136.04 376.385,1175.39 386.627,1259.73 396.869,1340.62 407.111,1350.71 417.352,1314.01 427.594,1313.82 437.836,1356.12 448.078,1393.08 458.32,1386.55 468.562,1339.6 478.803,1295.45 489.045,1291.69 499.287,1331.94 509.529,1386.67 519.771,1410.68 530.013,1376.91 540.255,1294.58 550.497,1202.29 560.738,1139.14 570.98,1119.95 581.222,1128.43 591.464,1118.88 601.706,1078.41 611.948,1049.34 622.19,1045.9 632.431,1034.19 642.673,1005.64 652.915,985.751 663.157,1002.32 673.399,1071.95 683.641,1162.53 693.882,1198.91 704.124,1159.35 714.366,1106.58 724.608,1083.46 734.85,1078.38 745.092,1142.93 755.334,1283.96 765.575,1387.01 775.817,1397.63 786.059,1364.56 796.301,1346.95 806.543,1355.57 816.785,1370.53 827.027,1375.84 837.268,1376.73 847.51,1381.79 857.752,1379.02 867.994,1354.35 878.236,1311.58 888.478,1261.77 898.72,1218.4 908.961,1198.06 919.203,1196.8 929.445,1179.24 939.687,1128.37 949.929,1083.09 960.171,1080.97 970.413,1099.42 980.654,1093.26 990.896,1057.94 1001.14,1030.33 1011.38,1035.88 1021.62,1058.64 1031.86,1074.24 1042.11,1070.22 1052.35,1041.48 1062.59,1029.6 1072.83,1081.72 1083.07,1160.75 1093.31,1204.41 1103.56,1208.76 1113.8,1224.12 1124.04,1279.93 1134.28,1330.88 1144.52,1341.72 1154.77,1334.56 1165.01,1355.16 1175.25,1408.37 1185.49,1445.72 1195.73,1435.18 1205.98,1384.91 1216.22,1323.47 1226.46,1288.89 1236.7,1307.23 1246.94,1314.06 1257.18,1140.36 1267.43,703.292 1277.67,364.386 1287.91,309.497 1298.15,358.01 1308.39,424.554 1318.64,434.055 1328.88,384.321 1339.12,322.359 1349.36,278.717 1359.6,269.289 1369.84,293.09 1380.09,317.034 1390.33,305.914 1400.57,283.185 1410.81,290.838 1421.05,345.137 1431.3,406.395 1441.54,414.136 1451.78,386.654 1462.02,372.583 1472.26,380.386 1482.51,368.739 1492.75,315.226 1502.99,274.929 1513.23,291.387 1523.47,333.455 1533.71,355.021 1543.96,341.282 1554.2,313.604 1564.44,310.06 1574.68,346.017 1584.92,386.28 1595.17,372.391 1605.41,299.785 1615.65,235.981 1625.89,239.814 1636.13,298.162 1646.38,355.996 1656.62,380.703 1666.86,381.424 1677.1,380.268 1687.34,386.95 1697.58,393.058 1707.83,380.377 1718.07,345.945 1728.31,306.162 1738.55,267.46 1748.79,221.188 1759.04,174.303 1769.28,169.099 1779.52,246.086 1789.76,390.33 1800,519.535 1810.24,530.076 1820.49,454.063 1830.73,373.259 1840.97,274.021 1851.21,169.203 1861.45,119.675 1871.7,162.527 1881.94,261.461 1892.18,351.979 1902.42,413.381 1912.66,461.745 1922.91,509.225 1933.15,526.077 1943.39,467.923 1953.63,348.301 1963.87,249.087 1974.11,226.102 1984.36,227.598 1994.6,214.082 2004.84,216.367 2015.08,266.66 2025.32,361.156 2035.57,471.265 2045.81,550.059 2056.05,550.677 2066.29,459.023 2076.53,312.342 2086.77,186.828 2097.02,130.738 2107.26,136.254 2117.5,192.815 2127.74,268.754 2137.98,324.398 2148.23,404.681 2158.47,507.381 2168.71,554.331 2178.95,503.807 2189.19,371.824 2199.44,219.559 2209.68,140.025 2219.92,188.053 2230.16,286.911 2240.4,332.772 2250.64,318.861 2260.89,290.517 2271.13,308.132 2281.37,400.581 2291.61,547.969 "/>
<polyline clip-path="url(#clip362)" style="stroke:#e26f46; stroke-linecap:round; stroke-linejoin:round; stroke-width:4; stroke-opacity:1; fill:none" points="253.483,1072.45 263.725,1053.86 273.966,1040.14 284.208,1031.77 294.45,1028.99 304.692,1031.91 314.934,1040.44 325.176,1054.29 335.418,1073 345.659,1095.98 355.901,1122.47 366.143,1151.6 376.385,1182.43 386.627,1213.94 396.869,1245.12 407.111,1274.94 417.352,1302.43 427.594,1326.69 437.836,1346.93 448.078,1362.49 458.32,1372.86 468.562,1377.7 478.803,1376.87 489.045,1370.37 499.287,1358.43 509.529,1341.43 519.771,1319.93 530.013,1294.64 540.255,1266.36 550.497,1236.04 560.738,1204.66 570.98,1173.24 581.222,1142.81 591.464,1114.36 601.706,1088.82 611.948,1067.02 622.19,1049.68 632.431,1037.36 642.673,1030.47 652.915,1029.22 663.157,1033.66 673.399,1043.64 683.641,1058.85 693.882,1078.77 704.124,1102.77 714.366,1130.05 724.608,1159.73 734.85,1190.85 745.092,1222.37 755.334,1253.28 765.575,1282.57 775.817,1309.28 786.059,1332.53 796.301,1351.58 806.543,1365.79 816.785,1374.71 827.027,1378.04 837.268,1375.67 847.51,1367.69 857.752,1354.35 867.994,1336.08 878.236,1313.49 888.478,1287.31 898.72,1258.4 908.961,1227.7 919.203,1196.2 929.445,1164.95 939.687,1134.95 949.929,1107.19 960.171,1082.58 970.413,1061.91 980.654,1045.87 990.896,1034.97 1001.14,1029.57 1011.38,1029.85 1021.62,1035.8 1031.86,1047.22 1042.11,1063.75 1052.35,1084.83 1062.59,1109.79 1072.83,1137.81 1083.07,1167.97 1093.31,1199.3 1103.56,1230.76 1113.8,1261.33 1124.04,1290.02 1134.28,1315.88 1144.52,1338.08 1154.77,1355.88 1165.01,1368.72 1175.25,1376.16 1185.49,1377.96 1195.73,1374.08 1205.98,1364.63 1216.22,1349.92 1226.46,1330.43 1236.7,1306.8 1246.94,1279.8 1257.18,1250.31 1267.43,1219.29 1277.67,329.586 1287.91,328.144 1298.15,329.457 1308.39,333.827 1318.64,339.915 1328.88,345.148 1339.12,346.698 1349.36,342.671 1359.6,333.072 1369.84,320.13 1380.09,307.816 1390.33,300.622 1400.57,302.002 1410.81,312.978 1421.05,331.44 1431.3,352.451 1441.54,369.561 1451.78,376.778 1462.02,370.6 1472.26,351.431 1482.51,323.859 1492.75,295.602 1502.99,275.35 1513.23,270.104 1523.47,282.822 1533.71,311.156 1543.96,347.749 1554.2,382.123 1564.44,403.682 1574.68,404.959 1584.92,384.131 1595.17,345.96 1605.41,300.775 1615.65,261.691 1625.89,240.797 1636.13,245.443 1646.38,275.734 1656.62,324.091 1666.86,377.103 1677.1,419.242 1687.34,437.41 1697.58,424.986 1707.83,384.133 1718.07,325.58 1728.31,265.827 1738.55,222.502 1748.79,209.158 1759.04,231.069 1769.28,283.291 1779.52,351.705 1789.76,416.809 1800,459.284 1810.24,465.717 1820.49,432.806 1830.73,368.722 1840.97,291.133 1851.21,222.345 1861.45,182.882 1871.7,185.377 1881.94,230.567 1892.18,306.664 1902.42,392.399 1912.66,462.961 1922.91,497.177 1933.15,483.853 1943.39,425.385 1953.63,337.478 1963.87,244.951 1974.11,174.733 1984.36,148.022 1994.6,173.907 2004.84,246.343 2015.08,345.495 2025.32,443.148 2035.57,510.744 2045.81,527.722 2056.05,487.761 2066.29,401.006 2076.53,291.538 2086.77,190.702 2097.02,128.124 2107.26,123.019 2117.5,178.312 2127.74,279.375 2137.98,397.874 2148.23,499.705 2158.47,554.807 2168.71,546.034 2178.95,474.456 2189.19,359.471 2199.44,233.564 2209.68,133.135 2219.92,87.9763 2230.16,112.44 2240.4,200.923 2250.64,329.062 2260.89,460.433 2271.13,556.904 2281.37,589.698 2291.61,547.969 "/>
<path clip-path="url(#clip360)" d="M264.353 250.738 L707.222 250.738 L707.222 95.2176 L264.353 95.2176  Z" fill="#ffffff" fill-rule="evenodd" fill-opacity="1"/>
<polyline clip-path="url(#clip360)" style="stroke:#000000; stroke-linecap:round; stroke-linejoin:round; stroke-width:4; stroke-opacity:1; fill:none" points="264.353,250.738 707.222,250.738 707.222,95.2176 264.353,95.2176 264.353,250.738 "/>
<polyline clip-path="url(#clip360)" style="stroke:#009af9; stroke-linecap:round; stroke-linejoin:round; stroke-width:16; stroke-opacity:1; fill:none" stroke-dasharray="8, 16" points="288.357,147.058 432.385,147.058 "/>
<path clip-path="url(#clip360)" d="M461.066 133.62 L461.066 146.606 L466.945 146.606 Q470.209 146.606 471.992 144.916 Q473.774 143.227 473.774 140.102 Q473.774 137 471.992 135.31 Q470.209 133.62 466.945 133.62 L461.066 133.62 M456.39 129.778 L466.945 129.778 Q472.755 129.778 475.718 132.416 Q478.704 135.032 478.704 140.102 Q478.704 145.217 475.718 147.833 Q472.755 150.449 466.945 150.449 L461.066 150.449 L461.066 164.338 L456.39 164.338 L456.39 129.778 Z" fill="#000000" fill-rule="nonzero" fill-opacity="1" /><path clip-path="url(#clip360)" d="M498.982 142.393 Q498.265 141.977 497.408 141.791 Q496.575 141.583 495.556 141.583 Q491.945 141.583 490.001 143.944 Q488.079 146.282 488.079 150.68 L488.079 164.338 L483.797 164.338 L483.797 138.412 L488.079 138.412 L488.079 142.44 Q489.422 140.078 491.575 138.944 Q493.728 137.787 496.806 137.787 Q497.246 137.787 497.778 137.856 Q498.311 137.903 498.959 138.018 L498.982 142.393 Z" fill="#000000" fill-rule="nonzero" fill-opacity="1" /><path clip-path="url(#clip360)" d="M524.584 150.31 L524.584 152.393 L505.001 152.393 Q505.278 156.791 507.639 159.106 Q510.024 161.398 514.26 161.398 Q516.714 161.398 519.005 160.796 Q521.32 160.194 523.588 158.99 L523.588 163.018 Q521.297 163.99 518.889 164.5 Q516.482 165.009 514.005 165.009 Q507.802 165.009 504.167 161.398 Q500.556 157.787 500.556 151.629 Q500.556 145.264 503.982 141.537 Q507.431 137.787 513.264 137.787 Q518.496 137.787 521.528 141.166 Q524.584 144.523 524.584 150.31 M520.325 149.06 Q520.278 145.565 518.357 143.481 Q516.459 141.398 513.311 141.398 Q509.746 141.398 507.593 143.412 Q505.464 145.426 505.14 149.083 L520.325 149.06 Z" fill="#000000" fill-rule="nonzero" fill-opacity="1" /><path clip-path="url(#clip360)" d="M548.635 142.347 L548.635 128.319 L552.894 128.319 L552.894 164.338 L548.635 164.338 L548.635 160.449 Q547.292 162.763 545.232 163.898 Q543.195 165.009 540.325 165.009 Q535.625 165.009 532.663 161.259 Q529.723 157.509 529.723 151.398 Q529.723 145.287 532.663 141.537 Q535.625 137.787 540.325 137.787 Q543.195 137.787 545.232 138.921 Q547.292 140.032 548.635 142.347 M534.121 151.398 Q534.121 156.097 536.042 158.782 Q537.987 161.444 541.366 161.444 Q544.746 161.444 546.69 158.782 Q548.635 156.097 548.635 151.398 Q548.635 146.699 546.69 144.037 Q544.746 141.352 541.366 141.352 Q537.987 141.352 536.042 144.037 Q534.121 146.699 534.121 151.398 Z" fill="#000000" fill-rule="nonzero" fill-opacity="1" /><path clip-path="url(#clip360)" d="M561.667 138.412 L565.926 138.412 L565.926 164.338 L561.667 164.338 L561.667 138.412 M561.667 128.319 L565.926 128.319 L565.926 133.713 L561.667 133.713 L561.667 128.319 Z" fill="#000000" fill-rule="nonzero" fill-opacity="1" /><path clip-path="url(#clip360)" d="M593.496 139.407 L593.496 143.389 Q591.69 142.393 589.861 141.907 Q588.056 141.398 586.204 141.398 Q582.06 141.398 579.769 144.037 Q577.477 146.652 577.477 151.398 Q577.477 156.143 579.769 158.782 Q582.06 161.398 586.204 161.398 Q588.056 161.398 589.861 160.912 Q591.69 160.402 593.496 159.407 L593.496 163.342 Q591.713 164.176 589.792 164.592 Q587.894 165.009 585.741 165.009 Q579.884 165.009 576.435 161.328 Q572.986 157.648 572.986 151.398 Q572.986 145.055 576.459 141.421 Q579.954 137.787 586.019 137.787 Q587.986 137.787 589.861 138.203 Q591.736 138.597 593.496 139.407 Z" fill="#000000" fill-rule="nonzero" fill-opacity="1" /><path clip-path="url(#clip360)" d="M605.116 131.051 L605.116 138.412 L613.889 138.412 L613.889 141.722 L605.116 141.722 L605.116 155.796 Q605.116 158.967 605.972 159.87 Q606.852 160.773 609.514 160.773 L613.889 160.773 L613.889 164.338 L609.514 164.338 Q604.583 164.338 602.708 162.509 Q600.833 160.657 600.833 155.796 L600.833 141.722 L597.708 141.722 L597.708 138.412 L600.833 138.412 L600.833 131.051 L605.116 131.051 Z" fill="#000000" fill-rule="nonzero" fill-opacity="1" /><path clip-path="url(#clip360)" d="M619.491 138.412 L623.75 138.412 L623.75 164.338 L619.491 164.338 L619.491 138.412 M619.491 128.319 L623.75 128.319 L623.75 133.713 L619.491 133.713 L619.491 128.319 Z" fill="#000000" fill-rule="nonzero" fill-opacity="1" /><path clip-path="url(#clip360)" d="M642.708 141.398 Q639.282 141.398 637.292 144.083 Q635.301 146.745 635.301 151.398 Q635.301 156.051 637.268 158.736 Q639.259 161.398 642.708 161.398 Q646.111 161.398 648.102 158.713 Q650.092 156.027 650.092 151.398 Q650.092 146.791 648.102 144.106 Q646.111 141.398 642.708 141.398 M642.708 137.787 Q648.264 137.787 651.435 141.398 Q654.606 145.009 654.606 151.398 Q654.606 157.764 651.435 161.398 Q648.264 165.009 642.708 165.009 Q637.13 165.009 633.958 161.398 Q630.81 157.764 630.81 151.398 Q630.81 145.009 633.958 141.398 Q637.13 137.787 642.708 137.787 Z" fill="#000000" fill-rule="nonzero" fill-opacity="1" /><path clip-path="url(#clip360)" d="M683.217 148.689 L683.217 164.338 L678.958 164.338 L678.958 148.828 Q678.958 145.148 677.523 143.319 Q676.088 141.49 673.217 141.49 Q669.768 141.49 667.778 143.69 Q665.787 145.889 665.787 149.685 L665.787 164.338 L661.504 164.338 L661.504 138.412 L665.787 138.412 L665.787 142.44 Q667.315 140.102 669.375 138.944 Q671.458 137.787 674.166 137.787 Q678.634 137.787 680.926 140.565 Q683.217 143.319 683.217 148.689 Z" fill="#000000" fill-rule="nonzero" fill-opacity="1" /><polyline clip-path="url(#clip360)" style="stroke:#e26f46; stroke-linecap:round; stroke-linejoin:round; stroke-width:4; stroke-opacity:1; fill:none" points="288.357,198.898 432.385,198.898 "/>
<path clip-path="url(#clip360)" d="M456.39 181.618 L478.242 181.618 L478.242 185.553 L461.066 185.553 L461.066 195.784 L477.524 195.784 L477.524 199.719 L461.066 199.719 L461.066 212.242 L478.658 212.242 L478.658 216.178 L456.39 216.178 L456.39 181.618 Z" fill="#000000" fill-rule="nonzero" fill-opacity="1" /><path clip-path="url(#clip360)" d="M507.709 190.252 L498.334 202.867 L508.195 216.178 L503.172 216.178 L495.626 205.992 L488.079 216.178 L483.056 216.178 L493.126 202.613 L483.913 190.252 L488.936 190.252 L495.811 199.488 L502.686 190.252 L507.709 190.252 Z" fill="#000000" fill-rule="nonzero" fill-opacity="1" /><path clip-path="url(#clip360)" d="M525.996 203.145 Q520.834 203.145 518.843 204.326 Q516.852 205.506 516.852 208.354 Q516.852 210.622 518.334 211.965 Q519.838 213.284 522.408 213.284 Q525.95 213.284 528.079 210.784 Q530.232 208.261 530.232 204.094 L530.232 203.145 L525.996 203.145 M534.491 201.386 L534.491 216.178 L530.232 216.178 L530.232 212.242 Q528.774 214.603 526.598 215.738 Q524.422 216.849 521.274 216.849 Q517.292 216.849 514.931 214.627 Q512.593 212.381 512.593 208.631 Q512.593 204.256 515.51 202.034 Q518.45 199.812 524.26 199.812 L530.232 199.812 L530.232 199.395 Q530.232 196.455 528.288 194.858 Q526.366 193.238 522.871 193.238 Q520.649 193.238 518.542 193.77 Q516.436 194.303 514.491 195.367 L514.491 191.432 Q516.829 190.53 519.028 190.09 Q521.227 189.627 523.311 189.627 Q528.936 189.627 531.713 192.543 Q534.491 195.46 534.491 201.386 Z" fill="#000000" fill-rule="nonzero" fill-opacity="1" /><path clip-path="url(#clip360)" d="M561.922 191.247 L561.922 195.229 Q560.116 194.233 558.287 193.747 Q556.482 193.238 554.63 193.238 Q550.486 193.238 548.195 195.877 Q545.903 198.492 545.903 203.238 Q545.903 207.983 548.195 210.622 Q550.486 213.238 554.63 213.238 Q556.482 213.238 558.287 212.752 Q560.116 212.242 561.922 211.247 L561.922 215.182 Q560.139 216.016 558.218 216.432 Q556.32 216.849 554.167 216.849 Q548.311 216.849 544.862 213.168 Q541.412 209.488 541.412 203.238 Q541.412 196.895 544.885 193.261 Q548.38 189.627 554.445 189.627 Q556.412 189.627 558.287 190.043 Q560.162 190.437 561.922 191.247 Z" fill="#000000" fill-rule="nonzero" fill-opacity="1" /><path clip-path="url(#clip360)" d="M573.542 182.891 L573.542 190.252 L582.315 190.252 L582.315 193.562 L573.542 193.562 L573.542 207.636 Q573.542 210.807 574.398 211.71 Q575.278 212.613 577.94 212.613 L582.315 212.613 L582.315 216.178 L577.94 216.178 Q573.01 216.178 571.135 214.349 Q569.26 212.497 569.26 207.636 L569.26 193.562 L566.135 193.562 L566.135 190.252 L569.26 190.252 L569.26 182.891 L573.542 182.891 Z" fill="#000000" fill-rule="nonzero" fill-opacity="1" /></svg>
