<?xml version="1.0" encoding="utf-8"?>
<svg xmlns="http://www.w3.org/2000/svg" xmlns:xlink="http://www.w3.org/1999/xlink" width="600" height="400" viewBox="0 0 2400 1600">
<defs>
  <clipPath id="clip420">
    <rect x="0" y="0" width="2400" height="1600"/>
  </clipPath>
</defs>
<path clip-path="url(#clip420)" d="M0 1600 L2400 1600 L2400 0 L0 0  Z" fill="#ffffff" fill-rule="evenodd" fill-opacity="1"/>
<defs>
  <clipPath id="clip421">
    <rect x="480" y="0" width="1681" height="1600"/>
  </clipPath>
</defs>
<path clip-path="url(#clip420)" d="M156.274 1486.45 L2352.76 1486.45 L2352.76 47.2441 L156.274 47.2441  Z" fill="#ffffff" fill-rule="evenodd" fill-opacity="1"/>
<defs>
  <clipPath id="clip422">
    <rect x="156" y="47" width="2197" height="1440"/>
  </clipPath>
</defs>
<polyline clip-path="url(#clip422)" style="stroke:#000000; stroke-linecap:round; stroke-linejoin:round; stroke-width:2; stroke-opacity:0.1; fill:none" points="218.439,1486.45 218.439,47.2441 "/>
<polyline clip-path="url(#clip422)" style="stroke:#000000; stroke-linecap:round; stroke-linejoin:round; stroke-width:2; stroke-opacity:0.1; fill:none" points="736.477,1486.45 736.477,47.2441 "/>
<polyline clip-path="url(#clip422)" style="stroke:#000000; stroke-linecap:round; stroke-linejoin:round; stroke-width:2; stroke-opacity:0.1; fill:none" points="1254.52,1486.45 1254.52,47.2441 "/>
<polyline clip-path="url(#clip422)" style="stroke:#000000; stroke-linecap:round; stroke-linejoin:round; stroke-width:2; stroke-opacity:0.1; fill:none" points="1772.55,1486.45 1772.55,47.2441 "/>
<polyline clip-path="url(#clip422)" style="stroke:#000000; stroke-linecap:round; stroke-linejoin:round; stroke-width:2; stroke-opacity:0.1; fill:none" points="2290.59,1486.45 2290.59,47.2441 "/>
<polyline clip-path="url(#clip420)" style="stroke:#000000; stroke-linecap:round; stroke-linejoin:round; stroke-width:4; stroke-opacity:1; fill:none" points="156.274,1486.45 2352.76,1486.45 "/>
<polyline clip-path="url(#clip420)" style="stroke:#000000; stroke-linecap:round; stroke-linejoin:round; stroke-width:4; stroke-opacity:1; fill:none" points="218.439,1486.45 218.439,1467.55 "/>
<polyline clip-path="url(#clip420)" style="stroke:#000000; stroke-linecap:round; stroke-linejoin:round; stroke-width:4; stroke-opacity:1; fill:none" points="736.477,1486.45 736.477,1467.55 "/>
<polyline clip-path="url(#clip420)" style="stroke:#000000; stroke-linecap:round; stroke-linejoin:round; stroke-width:4; stroke-opacity:1; fill:none" points="1254.52,1486.45 1254.52,1467.55 "/>
<polyline clip-path="url(#clip420)" style="stroke:#000000; stroke-linecap:round; stroke-linejoin:round; stroke-width:4; stroke-opacity:1; fill:none" points="1772.55,1486.45 1772.55,1467.55 "/>
<polyline clip-path="url(#clip420)" style="stroke:#000000; stroke-linecap:round; stroke-linejoin:round; stroke-width:4; stroke-opacity:1; fill:none" points="2290.59,1486.45 2290.59,1467.55 "/>
<path clip-path="url(#clip420)" d="M164.967 1532.02 L194.643 1532.02 L194.643 1535.95 L164.967 1535.95 L164.967 1532.02 Z" fill="#000000" fill-rule="nonzero" fill-opacity="1" /><path clip-path="url(#clip420)" d="M205.545 1544.91 L213.184 1544.91 L213.184 1518.55 L204.874 1520.21 L204.874 1515.95 L213.138 1514.29 L217.814 1514.29 L217.814 1544.91 L225.453 1544.91 L225.453 1548.85 L205.545 1548.85 L205.545 1544.91 Z" fill="#000000" fill-rule="nonzero" fill-opacity="1" /><path clip-path="url(#clip420)" d="M234.897 1542.97 L239.781 1542.97 L239.781 1548.85 L234.897 1548.85 L234.897 1542.97 Z" fill="#000000" fill-rule="nonzero" fill-opacity="1" /><path clip-path="url(#clip420)" d="M259.966 1517.37 Q256.355 1517.37 254.527 1520.93 Q252.721 1524.47 252.721 1531.6 Q252.721 1538.71 254.527 1542.27 Q256.355 1545.82 259.966 1545.82 Q263.601 1545.82 265.406 1542.27 Q267.235 1538.71 267.235 1531.6 Q267.235 1524.47 265.406 1520.93 Q263.601 1517.37 259.966 1517.37 M259.966 1513.66 Q265.776 1513.66 268.832 1518.27 Q271.911 1522.85 271.911 1531.6 Q271.911 1540.33 268.832 1544.94 Q265.776 1549.52 259.966 1549.52 Q254.156 1549.52 251.077 1544.94 Q248.022 1540.33 248.022 1531.6 Q248.022 1522.85 251.077 1518.27 Q254.156 1513.66 259.966 1513.66 Z" fill="#000000" fill-rule="nonzero" fill-opacity="1" /><path clip-path="url(#clip420)" d="M683.503 1532.02 L713.178 1532.02 L713.178 1535.95 L683.503 1535.95 L683.503 1532.02 Z" fill="#000000" fill-rule="nonzero" fill-opacity="1" /><path clip-path="url(#clip420)" d="M733.271 1517.37 Q729.66 1517.37 727.831 1520.93 Q726.026 1524.47 726.026 1531.6 Q726.026 1538.71 727.831 1542.27 Q729.66 1545.82 733.271 1545.82 Q736.905 1545.82 738.711 1542.27 Q740.539 1538.71 740.539 1531.6 Q740.539 1524.47 738.711 1520.93 Q736.905 1517.37 733.271 1517.37 M733.271 1513.66 Q739.081 1513.66 742.137 1518.27 Q745.215 1522.85 745.215 1531.6 Q745.215 1540.33 742.137 1544.94 Q739.081 1549.52 733.271 1549.52 Q727.461 1549.52 724.382 1544.94 Q721.327 1540.33 721.327 1531.6 Q721.327 1522.85 724.382 1518.27 Q727.461 1513.66 733.271 1513.66 Z" fill="#000000" fill-rule="nonzero" fill-opacity="1" /><path clip-path="url(#clip420)" d="M753.433 1542.97 L758.317 1542.97 L758.317 1548.85 L753.433 1548.85 L753.433 1542.97 Z" fill="#000000" fill-rule="nonzero" fill-opacity="1" /><path clip-path="url(#clip420)" d="M768.548 1514.29 L786.905 1514.29 L786.905 1518.22 L772.831 1518.22 L772.831 1526.7 Q773.849 1526.35 774.868 1526.19 Q775.886 1526 776.905 1526 Q782.692 1526 786.072 1529.17 Q789.451 1532.34 789.451 1537.76 Q789.451 1543.34 785.979 1546.44 Q782.507 1549.52 776.187 1549.52 Q774.011 1549.52 771.743 1549.15 Q769.498 1548.78 767.09 1548.04 L767.09 1543.34 Q769.173 1544.47 771.396 1545.03 Q773.618 1545.58 776.095 1545.58 Q780.099 1545.58 782.437 1543.48 Q784.775 1541.37 784.775 1537.76 Q784.775 1534.15 782.437 1532.04 Q780.099 1529.94 776.095 1529.94 Q774.22 1529.94 772.345 1530.35 Q770.493 1530.77 768.548 1531.65 L768.548 1514.29 Z" fill="#000000" fill-rule="nonzero" fill-opacity="1" /><path clip-path="url(#clip420)" d="M1231.9 1517.37 Q1228.29 1517.37 1226.46 1520.93 Q1224.65 1524.47 1224.65 1531.6 Q1224.65 1538.71 1226.46 1542.27 Q1228.29 1545.82 1231.9 1545.82 Q1235.53 1545.82 1237.34 1542.27 Q1239.17 1538.71 1239.17 1531.6 Q1239.17 1524.47 1237.34 1520.93 Q1235.53 1517.37 1231.9 1517.37 M1231.9 1513.66 Q1237.71 1513.66 1240.77 1518.27 Q1243.84 1522.85 1243.84 1531.6 Q1243.84 1540.33 1240.77 1544.94 Q1237.71 1549.52 1231.9 1549.52 Q1226.09 1549.52 1223.01 1544.94 Q1219.96 1540.33 1219.96 1531.6 Q1219.96 1522.85 1223.01 1518.27 Q1226.09 1513.66 1231.9 1513.66 Z" fill="#000000" fill-rule="nonzero" fill-opacity="1" /><path clip-path="url(#clip420)" d="M1252.06 1542.97 L1256.95 1542.97 L1256.95 1548.85 L1252.06 1548.85 L1252.06 1542.97 Z" fill="#000000" fill-rule="nonzero" fill-opacity="1" /><path clip-path="url(#clip420)" d="M1277.13 1517.37 Q1273.52 1517.37 1271.69 1520.93 Q1269.89 1524.47 1269.89 1531.6 Q1269.89 1538.71 1271.69 1542.27 Q1273.52 1545.82 1277.13 1545.82 Q1280.76 1545.82 1282.57 1542.27 Q1284.4 1538.71 1284.4 1531.6 Q1284.4 1524.47 1282.57 1520.93 Q1280.76 1517.37 1277.13 1517.37 M1277.13 1513.66 Q1282.94 1513.66 1286 1518.27 Q1289.08 1522.85 1289.08 1531.6 Q1289.08 1540.33 1286 1544.94 Q1282.94 1549.52 1277.13 1549.52 Q1271.32 1549.52 1268.24 1544.94 Q1265.19 1540.33 1265.19 1531.6 Q1265.19 1522.85 1268.24 1518.27 Q1271.32 1513.66 1277.13 1513.66 Z" fill="#000000" fill-rule="nonzero" fill-opacity="1" /><path clip-path="url(#clip420)" d="M1750.44 1517.37 Q1746.82 1517.37 1745 1520.93 Q1743.19 1524.47 1743.19 1531.6 Q1743.19 1538.71 1745 1542.27 Q1746.82 1545.82 1750.44 1545.82 Q1754.07 1545.82 1755.88 1542.27 Q1757.7 1538.71 1757.7 1531.6 Q1757.7 1524.47 1755.88 1520.93 Q1754.07 1517.37 1750.44 1517.37 M1750.44 1513.66 Q1756.25 1513.66 1759.3 1518.27 Q1762.38 1522.85 1762.38 1531.6 Q1762.38 1540.33 1759.3 1544.94 Q1756.25 1549.52 1750.44 1549.52 Q1744.63 1549.52 1741.55 1544.94 Q1738.49 1540.33 1738.49 1531.6 Q1738.49 1522.85 1741.55 1518.27 Q1744.63 1513.66 1750.44 1513.66 Z" fill="#000000" fill-rule="nonzero" fill-opacity="1" /><path clip-path="url(#clip420)" d="M1770.6 1542.97 L1775.48 1542.97 L1775.48 1548.85 L1770.6 1548.85 L1770.6 1542.97 Z" fill="#000000" fill-rule="nonzero" fill-opacity="1" /><path clip-path="url(#clip420)" d="M1785.71 1514.29 L1804.07 1514.29 L1804.07 1518.22 L1790 1518.22 L1790 1526.7 Q1791.01 1526.35 1792.03 1526.19 Q1793.05 1526 1794.07 1526 Q1799.86 1526 1803.24 1529.17 Q1806.62 1532.34 1806.62 1537.76 Q1806.62 1543.34 1803.14 1546.44 Q1799.67 1549.52 1793.35 1549.52 Q1791.18 1549.52 1788.91 1549.15 Q1786.66 1548.78 1784.25 1548.04 L1784.25 1543.34 Q1786.34 1544.47 1788.56 1545.03 Q1790.78 1545.58 1793.26 1545.58 Q1797.26 1545.58 1799.6 1543.48 Q1801.94 1541.37 1801.94 1537.76 Q1801.94 1534.15 1799.6 1532.04 Q1797.26 1529.94 1793.26 1529.94 Q1791.38 1529.94 1789.51 1530.35 Q1787.66 1530.77 1785.71 1531.65 L1785.71 1514.29 Z" fill="#000000" fill-rule="nonzero" fill-opacity="1" /><path clip-path="url(#clip420)" d="M2257.74 1544.91 L2265.38 1544.91 L2265.38 1518.55 L2257.07 1520.21 L2257.07 1515.95 L2265.34 1514.29 L2270.01 1514.29 L2270.01 1544.91 L2277.65 1544.91 L2277.65 1548.85 L2257.74 1548.85 L2257.74 1544.91 Z" fill="#000000" fill-rule="nonzero" fill-opacity="1" /><path clip-path="url(#clip420)" d="M2287.1 1542.97 L2291.98 1542.97 L2291.98 1548.85 L2287.1 1548.85 L2287.1 1542.97 Z" fill="#000000" fill-rule="nonzero" fill-opacity="1" /><path clip-path="url(#clip420)" d="M2312.17 1517.37 Q2308.55 1517.37 2306.73 1520.93 Q2304.92 1524.47 2304.92 1531.6 Q2304.92 1538.71 2306.73 1542.27 Q2308.55 1545.82 2312.17 1545.82 Q2315.8 1545.82 2317.61 1542.27 Q2319.43 1538.71 2319.43 1531.6 Q2319.43 1524.47 2317.61 1520.93 Q2315.8 1517.37 2312.17 1517.37 M2312.17 1513.66 Q2317.98 1513.66 2321.03 1518.27 Q2324.11 1522.85 2324.11 1531.6 Q2324.11 1540.33 2321.03 1544.94 Q2317.98 1549.52 2312.17 1549.52 Q2306.36 1549.52 2303.28 1544.94 Q2300.22 1540.33 2300.22 1531.6 Q2300.22 1522.85 2303.28 1518.27 Q2306.36 1513.66 2312.17 1513.66 Z" fill="#000000" fill-rule="nonzero" fill-opacity="1" /><polyline clip-path="url(#clip422)" style="stroke:#000000; stroke-linecap:round; stroke-linejoin:round; stroke-width:2; stroke-opacity:0.1; fill:none" points="156.274,1249.99 2352.76,1249.99 "/>
<polyline clip-path="url(#clip422)" style="stroke:#000000; stroke-linecap:round; stroke-linejoin:round; stroke-width:2; stroke-opacity:0.1; fill:none" points="156.274,977.281 2352.76,977.281 "/>
<polyline clip-path="url(#clip422)" style="stroke:#000000; stroke-linecap:round; stroke-linejoin:round; stroke-width:2; stroke-opacity:0.1; fill:none" points="156.274,704.576 2352.76,704.576 "/>
<polyline clip-path="url(#clip422)" style="stroke:#000000; stroke-linecap:round; stroke-linejoin:round; stroke-width:2; stroke-opacity:0.1; fill:none" points="156.274,431.871 2352.76,431.871 "/>
<polyline clip-path="url(#clip422)" style="stroke:#000000; stroke-linecap:round; stroke-linejoin:round; stroke-width:2; stroke-opacity:0.1; fill:none" points="156.274,159.166 2352.76,159.166 "/>
<polyline clip-path="url(#clip420)" style="stroke:#000000; stroke-linecap:round; stroke-linejoin:round; stroke-width:4; stroke-opacity:1; fill:none" points="156.274,1486.45 156.274,47.2441 "/>
<polyline clip-path="url(#clip420)" style="stroke:#000000; stroke-linecap:round; stroke-linejoin:round; stroke-width:4; stroke-opacity:1; fill:none" points="156.274,1249.99 175.172,1249.99 "/>
<polyline clip-path="url(#clip420)" style="stroke:#000000; stroke-linecap:round; stroke-linejoin:round; stroke-width:4; stroke-opacity:1; fill:none" points="156.274,977.281 175.172,977.281 "/>
<polyline clip-path="url(#clip420)" style="stroke:#000000; stroke-linecap:round; stroke-linejoin:round; stroke-width:4; stroke-opacity:1; fill:none" points="156.274,704.576 175.172,704.576 "/>
<polyline clip-path="url(#clip420)" style="stroke:#000000; stroke-linecap:round; stroke-linejoin:round; stroke-width:4; stroke-opacity:1; fill:none" points="156.274,431.871 175.172,431.871 "/>
<polyline clip-path="url(#clip420)" style="stroke:#000000; stroke-linecap:round; stroke-linejoin:round; stroke-width:4; stroke-opacity:1; fill:none" points="156.274,159.166 175.172,159.166 "/>
<path clip-path="url(#clip420)" d="M63.0985 1235.79 Q59.4875 1235.79 57.6588 1239.35 Q55.8532 1242.89 55.8532 1250.02 Q55.8532 1257.13 57.6588 1260.69 Q59.4875 1264.23 63.0985 1264.23 Q66.7328 1264.23 68.5383 1260.69 Q70.367 1257.13 70.367 1250.02 Q70.367 1242.89 68.5383 1239.35 Q66.7328 1235.79 63.0985 1235.79 M63.0985 1232.08 Q68.9087 1232.08 71.9642 1236.69 Q75.0429 1241.27 75.0429 1250.02 Q75.0429 1258.75 71.9642 1263.35 Q68.9087 1267.94 63.0985 1267.94 Q57.2884 1267.94 54.2097 1263.35 Q51.1542 1258.75 51.1542 1250.02 Q51.1542 1241.27 54.2097 1236.69 Q57.2884 1232.08 63.0985 1232.08 Z" fill="#000000" fill-rule="nonzero" fill-opacity="1" /><path clip-path="url(#clip420)" d="M83.2605 1261.39 L88.1447 1261.39 L88.1447 1267.27 L83.2605 1267.27 L83.2605 1261.39 Z" fill="#000000" fill-rule="nonzero" fill-opacity="1" /><path clip-path="url(#clip420)" d="M108.33 1235.79 Q104.719 1235.79 102.89 1239.35 Q101.084 1242.89 101.084 1250.02 Q101.084 1257.13 102.89 1260.69 Q104.719 1264.23 108.33 1264.23 Q111.964 1264.23 113.77 1260.69 Q115.598 1257.13 115.598 1250.02 Q115.598 1242.89 113.77 1239.35 Q111.964 1235.79 108.33 1235.79 M108.33 1232.08 Q114.14 1232.08 117.195 1236.69 Q120.274 1241.27 120.274 1250.02 Q120.274 1258.75 117.195 1263.35 Q114.14 1267.94 108.33 1267.94 Q102.52 1267.94 99.4409 1263.35 Q96.3854 1258.75 96.3854 1250.02 Q96.3854 1241.27 99.4409 1236.69 Q102.52 1232.08 108.33 1232.08 Z" fill="#000000" fill-rule="nonzero" fill-opacity="1" /><path clip-path="url(#clip420)" d="M63.7467 963.08 Q60.1356 963.08 58.3069 966.645 Q56.5014 970.186 56.5014 977.316 Q56.5014 984.422 58.3069 987.987 Q60.1356 991.529 63.7467 991.529 Q67.3809 991.529 69.1865 987.987 Q71.0152 984.422 71.0152 977.316 Q71.0152 970.186 69.1865 966.645 Q67.3809 963.08 63.7467 963.08 M63.7467 959.376 Q69.5568 959.376 72.6124 963.983 Q75.6911 968.566 75.6911 977.316 Q75.6911 986.043 72.6124 990.649 Q69.5568 995.233 63.7467 995.233 Q57.9365 995.233 54.8578 990.649 Q51.8023 986.043 51.8023 977.316 Q51.8023 968.566 54.8578 963.983 Q57.9365 959.376 63.7467 959.376 Z" fill="#000000" fill-rule="nonzero" fill-opacity="1" /><path clip-path="url(#clip420)" d="M83.9086 988.682 L88.7928 988.682 L88.7928 994.561 L83.9086 994.561 L83.9086 988.682 Z" fill="#000000" fill-rule="nonzero" fill-opacity="1" /><path clip-path="url(#clip420)" d="M113.145 975.927 Q116.501 976.645 118.376 978.913 Q120.274 981.182 120.274 984.515 Q120.274 989.631 116.756 992.432 Q113.237 995.233 106.756 995.233 Q104.58 995.233 102.265 994.793 Q99.9733 994.376 97.5197 993.52 L97.5197 989.006 Q99.4641 990.14 101.779 990.719 Q104.094 991.297 106.617 991.297 Q111.015 991.297 113.307 989.561 Q115.621 987.825 115.621 984.515 Q115.621 981.459 113.469 979.747 Q111.339 978.01 107.52 978.01 L103.492 978.01 L103.492 974.168 L107.705 974.168 Q111.154 974.168 112.983 972.802 Q114.811 971.413 114.811 968.821 Q114.811 966.159 112.913 964.747 Q111.038 963.311 107.52 963.311 Q105.598 963.311 103.399 963.728 Q101.2 964.145 98.5613 965.024 L98.5613 960.858 Q101.223 960.117 103.538 959.747 Q105.876 959.376 107.936 959.376 Q113.26 959.376 116.362 961.807 Q119.464 964.214 119.464 968.335 Q119.464 971.205 117.82 973.196 Q116.177 975.163 113.145 975.927 Z" fill="#000000" fill-rule="nonzero" fill-opacity="1" /><path clip-path="url(#clip420)" d="M62.9365 690.375 Q59.3254 690.375 57.4967 693.94 Q55.6912 697.481 55.6912 704.611 Q55.6912 711.717 57.4967 715.282 Q59.3254 718.824 62.9365 718.824 Q66.5707 718.824 68.3763 715.282 Q70.205 711.717 70.205 704.611 Q70.205 697.481 68.3763 693.94 Q66.5707 690.375 62.9365 690.375 M62.9365 686.671 Q68.7467 686.671 71.8022 691.278 Q74.8809 695.861 74.8809 704.611 Q74.8809 713.338 71.8022 717.944 Q68.7467 722.527 62.9365 722.527 Q57.1264 722.527 54.0477 717.944 Q50.9921 713.338 50.9921 704.611 Q50.9921 695.861 54.0477 691.278 Q57.1264 686.671 62.9365 686.671 Z" fill="#000000" fill-rule="nonzero" fill-opacity="1" /><path clip-path="url(#clip420)" d="M83.0984 715.977 L87.9827 715.977 L87.9827 721.856 L83.0984 721.856 L83.0984 715.977 Z" fill="#000000" fill-rule="nonzero" fill-opacity="1" /><path clip-path="url(#clip420)" d="M108.746 702.713 Q105.598 702.713 103.746 704.865 Q101.918 707.018 101.918 710.768 Q101.918 714.495 103.746 716.671 Q105.598 718.824 108.746 718.824 Q111.895 718.824 113.723 716.671 Q115.575 714.495 115.575 710.768 Q115.575 707.018 113.723 704.865 Q111.895 702.713 108.746 702.713 M118.029 688.06 L118.029 692.319 Q116.27 691.486 114.464 691.046 Q112.682 690.606 110.922 690.606 Q106.293 690.606 103.839 693.731 Q101.409 696.856 101.061 703.176 Q102.427 701.162 104.487 700.097 Q106.547 699.009 109.024 699.009 Q114.233 699.009 117.242 702.18 Q120.274 705.328 120.274 710.768 Q120.274 716.092 117.126 719.31 Q113.978 722.527 108.746 722.527 Q102.751 722.527 99.5798 717.944 Q96.4085 713.338 96.4085 704.611 Q96.4085 696.416 100.297 691.555 Q104.186 686.671 110.737 686.671 Q112.496 686.671 114.279 687.018 Q116.084 687.366 118.029 688.06 Z" fill="#000000" fill-rule="nonzero" fill-opacity="1" /><path clip-path="url(#clip420)" d="M63.2837 417.67 Q59.6726 417.67 57.8439 421.234 Q56.0384 424.776 56.0384 431.906 Q56.0384 439.012 57.8439 442.577 Q59.6726 446.119 63.2837 446.119 Q66.918 446.119 68.7235 442.577 Q70.5522 439.012 70.5522 431.906 Q70.5522 424.776 68.7235 421.234 Q66.918 417.67 63.2837 417.67 M63.2837 413.966 Q69.0939 413.966 72.1494 418.572 Q75.2281 423.156 75.2281 431.906 Q75.2281 440.633 72.1494 445.239 Q69.0939 449.822 63.2837 449.822 Q57.4736 449.822 54.3949 445.239 Q51.3393 440.633 51.3393 431.906 Q51.3393 423.156 54.3949 418.572 Q57.4736 413.966 63.2837 413.966 Z" fill="#000000" fill-rule="nonzero" fill-opacity="1" /><path clip-path="url(#clip420)" d="M83.4457 443.271 L88.3299 443.271 L88.3299 449.151 L83.4457 449.151 L83.4457 443.271 Z" fill="#000000" fill-rule="nonzero" fill-opacity="1" /><path clip-path="url(#clip420)" d="M98.6539 448.433 L98.6539 444.174 Q100.413 445.008 102.219 445.447 Q104.024 445.887 105.76 445.887 Q110.39 445.887 112.82 442.785 Q115.274 439.66 115.621 433.318 Q114.279 435.308 112.219 436.373 Q110.158 437.438 107.658 437.438 Q102.473 437.438 99.4409 434.313 Q96.4317 431.165 96.4317 425.725 Q96.4317 420.401 99.5798 417.184 Q102.728 413.966 107.959 413.966 Q113.955 413.966 117.103 418.572 Q120.274 423.156 120.274 431.906 Q120.274 440.077 116.385 444.961 Q112.52 449.822 105.969 449.822 Q104.209 449.822 102.404 449.475 Q100.598 449.128 98.6539 448.433 M107.959 433.781 Q111.108 433.781 112.936 431.628 Q114.788 429.475 114.788 425.725 Q114.788 421.998 112.936 419.846 Q111.108 417.67 107.959 417.67 Q104.811 417.67 102.959 419.846 Q101.131 421.998 101.131 425.725 Q101.131 429.475 102.959 431.628 Q104.811 433.781 107.959 433.781 Z" fill="#000000" fill-rule="nonzero" fill-opacity="1" /><path clip-path="url(#clip420)" d="M55.506 172.511 L63.1448 172.511 L63.1448 146.145 L54.8347 147.812 L54.8347 143.553 L63.0985 141.886 L67.7744 141.886 L67.7744 172.511 L75.4133 172.511 L75.4133 176.446 L55.506 176.446 L55.506 172.511 Z" fill="#000000" fill-rule="nonzero" fill-opacity="1" /><path clip-path="url(#clip420)" d="M84.8577 170.566 L89.7419 170.566 L89.7419 176.446 L84.8577 176.446 L84.8577 170.566 Z" fill="#000000" fill-rule="nonzero" fill-opacity="1" /><path clip-path="url(#clip420)" d="M103.955 172.511 L120.274 172.511 L120.274 176.446 L98.3298 176.446 L98.3298 172.511 Q100.992 169.756 105.575 165.126 Q110.182 160.474 111.362 159.131 Q113.608 156.608 114.487 154.872 Q115.39 153.113 115.39 151.423 Q115.39 148.668 113.445 146.932 Q111.524 145.196 108.422 145.196 Q106.223 145.196 103.77 145.96 Q101.339 146.724 98.5613 148.275 L98.5613 143.553 Q101.385 142.418 103.839 141.84 Q106.293 141.261 108.33 141.261 Q113.7 141.261 116.895 143.946 Q120.089 146.631 120.089 151.122 Q120.089 153.252 119.279 155.173 Q118.492 157.071 116.385 159.664 Q115.807 160.335 112.705 163.552 Q109.603 166.747 103.955 172.511 Z" fill="#000000" fill-rule="nonzero" fill-opacity="1" /><polyline clip-path="url(#clip422)" style="stroke:#009af9; stroke-linecap:round; stroke-linejoin:round; stroke-width:16; stroke-opacity:1; fill:none" stroke-dasharray="8, 16" points="218.439,1113.34 228.852,1102.37 239.264,1089.35 249.677,1076.95 260.09,1068.47 270.503,1067.02 280.916,1074.5 291.329,1090.79 301.741,1113.8 312.154,1140.65 322.567,1169.02 332.98,1198.03 343.393,1227.95 353.805,1259.18 364.218,1291.44 374.631,1323.49 385.044,1353.43 395.457,1379.43 405.87,1400.28 416.282,1415.66 426.695,1425.77 437.108,1430.79 447.521,1430.52 457.934,1424.47 468.347,1412.31 478.759,1394.24 489.172,1371.12 499.585,1344.18 509.998,1314.68 520.411,1283.59 530.824,1251.62 541.236,1219.34 551.649,1187.52 562.062,1157.25 572.475,1129.93 582.888,1106.93 593.301,1089.21 603.713,1077.23 614.126,1070.99 624.539,1070.21 634.952,1074.3 645.365,1082.47 655.777,1094.38 666.19,1111.58 676.603,1138.32 687.016,1178.57 697.429,1228.38 707.842,1271.86 718.254,1292.49 728.667,1292.72 739.08,1295.6 749.493,1320.8 759.906,1364.84 770.319,1408.71 780.731,1436.86 791.144,1445.72 801.557,1440.4 811.97,1428.33 822.383,1414.75 832.796,1401.1 843.208,1385.52 853.621,1364.79 864.034,1337.06 874.447,1304.1 884.86,1271.01 895.273,1242.66 905.685,1219.09 916.098,1194.69 926.511,1163.17 936.924,1124.77 947.337,1088.74 957.749,1066.52 968.162,1061.59 978.575,1067.7 988.988,1076.52 999.401,1085.11 1009.81,1095.64 1020.23,1106.2 1030.64,1116.99 1041.05,1146.89 1051.46,1190.09 1061.88,1216.77 1072.29,1234.15 1082.7,1268.69 1093.12,1312.16 1103.53,1341.26 1113.94,1371.15 1124.35,1415.97 1134.77,1440.03 1145.18,1430.46 1155.59,1419.51 1166.01,1420.59 1176.42,1421.13 1186.83,1415.08 1197.24,1408.67 1207.66,1408.53 1218.07,1406.15 1228.48,1364.46 1238.9,1228.37 1249.31,977.501 1259.72,673.468 1270.13,423.552 1280.55,292.972 1290.96,268.559 1301.37,298.634 1311.79,339.351 1322.2,365.623 1332.61,371.337 1343.02,357.882 1353.44,331.703 1363.85,319.05 1374.26,319.116 1384.68,316.803 1395.09,320.702 1405.5,344.499 1415.91,379.936 1426.33,402.096 1436.74,397.187 1447.15,383.006 1457.57,392.937 1467.98,393.964 1478.39,325.537 1488.8,284.221 1499.22,303.163 1509.63,326.449 1520.04,336.077 1530.45,358.274 1540.87,407.138 1551.28,449.888 1561.69,445.93 1572.11,395.393 1582.52,327.831 1592.93,272.393 1603.34,244.83 1613.76,247.07 1624.17,272.152 1634.58,310.258 1645,352.407 1655.41,391.081 1665.82,419.62 1676.23,432.122 1686.65,424.297 1697.06,394.879 1707.47,347.364 1717.89,291.458 1728.3,242.597 1738.71,217.433 1749.12,226.427 1759.54,270.148 1769.95,341.414 1780.36,424.514 1790.78,492.51 1801.19,515.603 1811.6,478.488 1822.01,390.263 1832.43,280.18 1842.84,187.179 1853.25,147.178 1863.67,175.869 1874.08,257.731 1884.49,357.113 1894.9,440.995 1905.32,490.899 1915.73,501.203 1926.14,473.985 1936.56,416.261 1946.97,339.327 1957.38,258.761 1967.79,193.921 1978.21,164.736 1988.62,183.894 1999.03,248.755 2009.45,341.741 2019.86,439.305 2030.27,518.068 2040.68,553.195 2051.1,522.186 2061.51,425.552 2071.92,300.734 2082.33,197.208 2092.75,142.531 2103.16,142.44 2113.57,193.429 2123.99,283.84 2134.4,392.849 2144.81,493.919 2155.22,560.246 2165.64,568.951 2176.05,505.844 2186.46,379.3 2196.88,235.064 2207.29,138.187 2217.7,123.478 2228.11,174.822 2238.53,254.336 2248.94,334.685 2259.35,405.618 2269.77,466.491 2280.18,519.499 2290.59,566.785 "/>
<polyline clip-path="url(#clip422)" style="stroke:#e26f46; stroke-linecap:round; stroke-linejoin:round; stroke-width:4; stroke-opacity:1; fill:none" points="218.439,1113.45 228.852,1094.08 239.264,1079.8 249.677,1071.07 260.09,1068.18 270.503,1071.23 280.916,1080.11 291.329,1094.53 301.741,1114.03 312.154,1137.96 322.567,1165.55 332.98,1195.9 343.393,1228.01 353.805,1260.84 364.218,1293.31 374.631,1324.37 385.044,1353.01 395.457,1378.28 405.87,1399.36 416.282,1415.57 426.695,1426.37 437.108,1431.42 447.521,1430.55 457.934,1423.78 468.347,1411.34 478.759,1393.63 489.172,1371.24 499.585,1344.89 509.998,1315.44 520.411,1283.86 530.824,1251.17 541.236,1218.44 551.649,1186.74 562.062,1157.1 572.475,1130.5 582.888,1107.8 593.301,1089.73 603.713,1076.9 614.126,1069.72 624.539,1068.42 634.952,1073.04 645.365,1083.44 655.777,1099.28 666.19,1120.03 676.603,1145.03 687.016,1173.45 697.429,1204.37 707.842,1236.78 718.254,1269.62 728.667,1301.82 739.08,1332.32 749.493,1360.14 759.906,1384.37 770.319,1404.21 780.731,1419.01 791.144,1428.3 801.557,1431.77 811.97,1429.3 822.383,1420.99 832.796,1407.09 843.208,1388.07 853.621,1364.53 864.034,1337.26 874.447,1307.15 884.86,1275.16 895.273,1242.36 905.685,1209.8 916.098,1178.55 926.511,1149.64 936.924,1124 947.337,1102.48 957.749,1085.76 968.162,1074.41 978.575,1068.79 988.988,1069.08 999.401,1075.27 1009.81,1087.17 1020.23,1104.38 1030.64,1126.35 1041.05,1152.35 1051.46,1181.53 1061.88,1212.95 1072.29,1245.58 1082.7,1278.35 1093.12,1310.2 1103.53,1340.08 1113.94,1367.02 1124.35,1390.14 1134.77,1408.69 1145.18,1422.06 1155.59,1429.81 1166.01,1431.69 1176.42,1427.64 1186.83,1417.8 1197.24,1402.47 1207.66,1382.17 1218.07,1357.56 1228.48,1329.43 1238.9,1298.72 1249.31,1266.41 1259.72,339.649 1270.13,338.147 1280.55,339.514 1290.96,344.066 1301.37,350.407 1311.79,355.859 1322.2,357.473 1332.61,353.279 1343.02,343.279 1353.44,329.799 1363.85,316.972 1374.26,309.478 1384.68,310.916 1395.09,322.349 1405.5,341.58 1415.91,363.466 1426.33,381.288 1436.74,388.806 1447.15,382.371 1457.57,362.403 1467.98,333.683 1478.39,304.249 1488.8,283.154 1499.22,277.689 1509.63,290.937 1520.04,320.451 1530.45,358.568 1540.87,394.374 1551.28,416.83 1561.69,418.16 1572.11,396.465 1582.52,356.704 1592.93,309.638 1603.34,268.926 1613.76,247.162 1624.17,252.001 1634.58,283.554 1645,333.925 1655.41,389.145 1665.82,433.039 1676.23,451.963 1686.65,439.022 1697.06,396.468 1707.47,335.475 1717.89,273.234 1728.3,228.104 1738.71,214.205 1749.12,237.028 1759.54,291.426 1769.95,362.688 1780.36,430.504 1790.78,474.748 1801.19,481.449 1811.6,447.167 1822.01,380.414 1832.43,299.594 1842.84,227.941 1853.25,186.835 1863.67,189.433 1874.08,236.505 1884.49,315.772 1894.9,405.078 1905.32,478.578 1915.73,514.219 1926.14,500.34 1936.56,439.437 1946.97,347.869 1957.38,251.489 1967.79,178.346 1978.21,150.523 1988.62,177.486 1999.03,252.939 2009.45,356.22 2019.86,457.94 2030.27,528.351 2040.68,546.037 2051.1,504.411 2061.51,414.043 2071.92,300.016 2082.33,194.98 2092.75,129.796 2103.16,124.479 2113.57,182.074 2123.99,287.346 2134.4,410.781 2144.81,516.853 2155.22,574.25 2165.64,565.111 2176.05,490.552 2186.46,370.778 2196.88,239.627 2207.29,135.016 2217.7,87.9763 2228.11,113.459 2238.53,205.627 2248.94,339.103 2259.35,475.945 2269.77,576.434 2280.18,610.593 2290.59,567.126 "/>
<path clip-path="url(#clip420)" d="M229.49 250.738 L675.966 250.738 L675.966 95.2176 L229.49 95.2176  Z" fill="#ffffff" fill-rule="evenodd" fill-opacity="1"/>
<polyline clip-path="url(#clip420)" style="stroke:#000000; stroke-linecap:round; stroke-linejoin:round; stroke-width:4; stroke-opacity:1; fill:none" points="229.49,250.738 675.966,250.738 675.966,95.2176 229.49,95.2176 229.49,250.738 "/>
<polyline clip-path="url(#clip420)" style="stroke:#009af9; stroke-linecap:round; stroke-linejoin:round; stroke-width:16; stroke-opacity:1; fill:none" stroke-dasharray="8, 16" points="253.896,147.058 400.328,147.058 "/>
<path clip-path="url(#clip420)" d="M429.409 133.62 L429.409 146.606 L435.289 146.606 Q438.552 146.606 440.335 144.916 Q442.117 143.227 442.117 140.102 Q442.117 137 440.335 135.31 Q438.552 133.62 435.289 133.62 L429.409 133.62 M424.733 129.778 L435.289 129.778 Q441.099 129.778 444.062 132.416 Q447.048 135.032 447.048 140.102 Q447.048 145.217 444.062 147.833 Q441.099 150.449 435.289 150.449 L429.409 150.449 L429.409 164.338 L424.733 164.338 L424.733 129.778 Z" fill="#000000" fill-rule="nonzero" fill-opacity="1" /><path clip-path="url(#clip420)" d="M467.325 142.393 Q466.608 141.977 465.751 141.791 Q464.918 141.583 463.899 141.583 Q460.288 141.583 458.344 143.944 Q456.423 146.282 456.423 150.68 L456.423 164.338 L452.14 164.338 L452.14 138.412 L456.423 138.412 L456.423 142.44 Q457.765 140.078 459.918 138.944 Q462.071 137.787 465.149 137.787 Q465.589 137.787 466.122 137.856 Q466.654 137.903 467.302 138.018 L467.325 142.393 Z" fill="#000000" fill-rule="nonzero" fill-opacity="1" /><path clip-path="url(#clip420)" d="M492.927 150.31 L492.927 152.393 L473.344 152.393 Q473.622 156.791 475.983 159.106 Q478.367 161.398 482.603 161.398 Q485.057 161.398 487.348 160.796 Q489.663 160.194 491.932 158.99 L491.932 163.018 Q489.64 163.99 487.233 164.5 Q484.825 165.009 482.348 165.009 Q476.145 165.009 472.511 161.398 Q468.899 157.787 468.899 151.629 Q468.899 145.264 472.325 141.537 Q475.774 137.787 481.608 137.787 Q486.839 137.787 489.872 141.166 Q492.927 144.523 492.927 150.31 M488.668 149.06 Q488.622 145.565 486.7 143.481 Q484.802 141.398 481.654 141.398 Q478.089 141.398 475.936 143.412 Q473.807 145.426 473.483 149.083 L488.668 149.06 Z" fill="#000000" fill-rule="nonzero" fill-opacity="1" /><path clip-path="url(#clip420)" d="M516.978 142.347 L516.978 128.319 L521.237 128.319 L521.237 164.338 L516.978 164.338 L516.978 160.449 Q515.635 162.763 513.575 163.898 Q511.538 165.009 508.668 165.009 Q503.969 165.009 501.006 161.259 Q498.066 157.509 498.066 151.398 Q498.066 145.287 501.006 141.537 Q503.969 137.787 508.668 137.787 Q511.538 137.787 513.575 138.921 Q515.635 140.032 516.978 142.347 M502.464 151.398 Q502.464 156.097 504.385 158.782 Q506.33 161.444 509.709 161.444 Q513.089 161.444 515.033 158.782 Q516.978 156.097 516.978 151.398 Q516.978 146.699 515.033 144.037 Q513.089 141.352 509.709 141.352 Q506.33 141.352 504.385 144.037 Q502.464 146.699 502.464 151.398 Z" fill="#000000" fill-rule="nonzero" fill-opacity="1" /><path clip-path="url(#clip420)" d="M530.01 138.412 L534.269 138.412 L534.269 164.338 L530.01 164.338 L530.01 138.412 M530.01 128.319 L534.269 128.319 L534.269 133.713 L530.01 133.713 L530.01 128.319 Z" fill="#000000" fill-rule="nonzero" fill-opacity="1" /><path clip-path="url(#clip420)" d="M561.839 139.407 L561.839 143.389 Q560.033 142.393 558.205 141.907 Q556.399 141.398 554.547 141.398 Q550.404 141.398 548.112 144.037 Q545.82 146.652 545.82 151.398 Q545.82 156.143 548.112 158.782 Q550.404 161.398 554.547 161.398 Q556.399 161.398 558.205 160.912 Q560.033 160.402 561.839 159.407 L561.839 163.342 Q560.056 164.176 558.135 164.592 Q556.237 165.009 554.084 165.009 Q548.228 165.009 544.779 161.328 Q541.33 157.648 541.33 151.398 Q541.33 145.055 544.802 141.421 Q548.297 137.787 554.362 137.787 Q556.33 137.787 558.205 138.203 Q560.08 138.597 561.839 139.407 Z" fill="#000000" fill-rule="nonzero" fill-opacity="1" /><path clip-path="url(#clip420)" d="M573.459 131.051 L573.459 138.412 L582.232 138.412 L582.232 141.722 L573.459 141.722 L573.459 155.796 Q573.459 158.967 574.316 159.87 Q575.195 160.773 577.857 160.773 L582.232 160.773 L582.232 164.338 L577.857 164.338 Q572.927 164.338 571.052 162.509 Q569.177 160.657 569.177 155.796 L569.177 141.722 L566.052 141.722 L566.052 138.412 L569.177 138.412 L569.177 131.051 L573.459 131.051 Z" fill="#000000" fill-rule="nonzero" fill-opacity="1" /><path clip-path="url(#clip420)" d="M587.834 138.412 L592.093 138.412 L592.093 164.338 L587.834 164.338 L587.834 138.412 M587.834 128.319 L592.093 128.319 L592.093 133.713 L587.834 133.713 L587.834 128.319 Z" fill="#000000" fill-rule="nonzero" fill-opacity="1" /><path clip-path="url(#clip420)" d="M611.051 141.398 Q607.626 141.398 605.635 144.083 Q603.644 146.745 603.644 151.398 Q603.644 156.051 605.612 158.736 Q607.602 161.398 611.051 161.398 Q614.454 161.398 616.445 158.713 Q618.436 156.027 618.436 151.398 Q618.436 146.791 616.445 144.106 Q614.454 141.398 611.051 141.398 M611.051 137.787 Q616.607 137.787 619.778 141.398 Q622.95 145.009 622.95 151.398 Q622.95 157.764 619.778 161.398 Q616.607 165.009 611.051 165.009 Q605.473 165.009 602.302 161.398 Q599.153 157.764 599.153 151.398 Q599.153 145.009 602.302 141.398 Q605.473 137.787 611.051 137.787 Z" fill="#000000" fill-rule="nonzero" fill-opacity="1" /><path clip-path="url(#clip420)" d="M651.561 148.689 L651.561 164.338 L647.301 164.338 L647.301 148.828 Q647.301 145.148 645.866 143.319 Q644.431 141.49 641.561 141.49 Q638.112 141.49 636.121 143.69 Q634.13 145.889 634.13 149.685 L634.13 164.338 L629.848 164.338 L629.848 138.412 L634.13 138.412 L634.13 142.44 Q635.658 140.102 637.718 138.944 Q639.801 137.787 642.51 137.787 Q646.977 137.787 649.269 140.565 Q651.561 143.319 651.561 148.689 Z" fill="#000000" fill-rule="nonzero" fill-opacity="1" /><polyline clip-path="url(#clip420)" style="stroke:#e26f46; stroke-linecap:round; stroke-linejoin:round; stroke-width:4; stroke-opacity:1; fill:none" points="253.896,198.898 400.328,198.898 "/>
<path clip-path="url(#clip420)" d="M424.733 181.618 L446.585 181.618 L446.585 185.553 L429.409 185.553 L429.409 195.784 L445.867 195.784 L445.867 199.719 L429.409 199.719 L429.409 212.242 L447.001 212.242 L447.001 216.178 L424.733 216.178 L424.733 181.618 Z" fill="#000000" fill-rule="nonzero" fill-opacity="1" /><path clip-path="url(#clip420)" d="M476.052 190.252 L466.677 202.867 L476.538 216.178 L471.515 216.178 L463.969 205.992 L456.423 216.178 L451.4 216.178 L461.469 202.613 L452.256 190.252 L457.279 190.252 L464.154 199.488 L471.029 190.252 L476.052 190.252 Z" fill="#000000" fill-rule="nonzero" fill-opacity="1" /><path clip-path="url(#clip420)" d="M494.339 203.145 Q489.177 203.145 487.186 204.326 Q485.196 205.506 485.196 208.354 Q485.196 210.622 486.677 211.965 Q488.182 213.284 490.751 213.284 Q494.293 213.284 496.422 210.784 Q498.575 208.261 498.575 204.094 L498.575 203.145 L494.339 203.145 M502.834 201.386 L502.834 216.178 L498.575 216.178 L498.575 212.242 Q497.117 214.603 494.941 215.738 Q492.765 216.849 489.617 216.849 Q485.635 216.849 483.274 214.627 Q480.936 212.381 480.936 208.631 Q480.936 204.256 483.853 202.034 Q486.793 199.812 492.603 199.812 L498.575 199.812 L498.575 199.395 Q498.575 196.455 496.631 194.858 Q494.71 193.238 491.214 193.238 Q488.992 193.238 486.885 193.77 Q484.779 194.303 482.835 195.367 L482.835 191.432 Q485.173 190.53 487.372 190.09 Q489.571 189.627 491.654 189.627 Q497.279 189.627 500.057 192.543 Q502.834 195.46 502.834 201.386 Z" fill="#000000" fill-rule="nonzero" fill-opacity="1" /><path clip-path="url(#clip420)" d="M530.265 191.247 L530.265 195.229 Q528.459 194.233 526.631 193.747 Q524.825 193.238 522.973 193.238 Q518.83 193.238 516.538 195.877 Q514.246 198.492 514.246 203.238 Q514.246 207.983 516.538 210.622 Q518.83 213.238 522.973 213.238 Q524.825 213.238 526.631 212.752 Q528.459 212.242 530.265 211.247 L530.265 215.182 Q528.482 216.016 526.561 216.432 Q524.663 216.849 522.51 216.849 Q516.654 216.849 513.205 213.168 Q509.756 209.488 509.756 203.238 Q509.756 196.895 513.228 193.261 Q516.723 189.627 522.788 189.627 Q524.756 189.627 526.631 190.043 Q528.506 190.437 530.265 191.247 Z" fill="#000000" fill-rule="nonzero" fill-opacity="1" /><path clip-path="url(#clip420)" d="M541.885 182.891 L541.885 190.252 L550.658 190.252 L550.658 193.562 L541.885 193.562 L541.885 207.636 Q541.885 210.807 542.742 211.71 Q543.621 212.613 546.283 212.613 L550.658 212.613 L550.658 216.178 L546.283 216.178 Q541.353 216.178 539.478 214.349 Q537.603 212.497 537.603 207.636 L537.603 193.562 L534.478 193.562 L534.478 190.252 L537.603 190.252 L537.603 182.891 L541.885 182.891 Z" fill="#000000" fill-rule="nonzero" fill-opacity="1" /></svg>
