<?xml version="1.0" encoding="utf-8"?>
<svg xmlns="http://www.w3.org/2000/svg" xmlns:xlink="http://www.w3.org/1999/xlink" width="600" height="400" viewBox="0 0 2400 1600">
<defs>
  <clipPath id="clip420">
    <rect x="0" y="0" width="2400" height="1600"/>
  </clipPath>
</defs>
<path clip-path="url(#clip420)" d="M0 1600 L2400 1600 L2400 0 L0 0  Z" fill="#ffffff" fill-rule="evenodd" fill-opacity="1"/>
<defs>
  <clipPath id="clip421">
    <rect x="480" y="0" width="1681" height="1600"/>
  </clipPath>
</defs>
<path clip-path="url(#clip420)" d="M156.274 1486.45 L2352.76 1486.45 L2352.76 47.2441 L156.274 47.2441  Z" fill="#ffffff" fill-rule="evenodd" fill-opacity="1"/>
<defs>
  <clipPath id="clip422">
    <rect x="156" y="47" width="2197" height="1440"/>
  </clipPath>
</defs>
<polyline clip-path="url(#clip422)" style="stroke:#000000; stroke-linecap:round; stroke-linejoin:round; stroke-width:2; stroke-opacity:0.1; fill:none" points="218.439,1486.45 218.439,47.2441 "/>
<polyline clip-path="url(#clip422)" style="stroke:#000000; stroke-linecap:round; stroke-linejoin:round; stroke-width:2; stroke-opacity:0.1; fill:none" points="736.477,1486.45 736.477,47.2441 "/>
<polyline clip-path="url(#clip422)" style="stroke:#000000; stroke-linecap:round; stroke-linejoin:round; stroke-width:2; stroke-opacity:0.1; fill:none" points="1254.52,1486.45 1254.52,47.2441 "/>
<polyline clip-path="url(#clip422)" style="stroke:#000000; stroke-linecap:round; stroke-linejoin:round; stroke-width:2; stroke-opacity:0.1; fill:none" points="1772.55,1486.45 1772.55,47.2441 "/>
<polyline clip-path="url(#clip422)" style="stroke:#000000; stroke-linecap:round; stroke-linejoin:round; stroke-width:2; stroke-opacity:0.1; fill:none" points="2290.59,1486.45 2290.59,47.2441 "/>
<polyline clip-path="url(#clip420)" style="stroke:#000000; stroke-linecap:round; stroke-linejoin:round; stroke-width:4; stroke-opacity:1; fill:none" points="156.274,1486.45 2352.76,1486.45 "/>
<polyline clip-path="url(#clip420)" style="stroke:#000000; stroke-linecap:round; stroke-linejoin:round; stroke-width:4; stroke-opacity:1; fill:none" points="218.439,1486.45 218.439,1467.55 "/>
<polyline clip-path="url(#clip420)" style="stroke:#000000; stroke-linecap:round; stroke-linejoin:round; stroke-width:4; stroke-opacity:1; fill:none" points="736.477,1486.45 736.477,1467.55 "/>
<polyline clip-path="url(#clip420)" style="stroke:#000000; stroke-linecap:round; stroke-linejoin:round; stroke-width:4; stroke-opacity:1; fill:none" points="1254.52,1486.45 1254.52,1467.55 "/>
<polyline clip-path="url(#clip420)" style="stroke:#000000; stroke-linecap:round; stroke-linejoin:round; stroke-width:4; stroke-opacity:1; fill:none" points="1772.55,1486.45 1772.55,1467.55 "/>
<polyline clip-path="url(#clip420)" style="stroke:#000000; stroke-linecap:round; stroke-linejoin:round; stroke-width:4; stroke-opacity:1; fill:none" points="2290.59,1486.45 2290.59,1467.55 "/>
<path clip-path="url(#clip420)" d="M164.967 1532.02 L194.643 1532.02 L194.643 1535.95 L164.967 1535.95 L164.967 1532.02 Z" fill="#000000" fill-rule="nonzero" fill-opacity="1" /><path clip-path="url(#clip420)" d="M205.545 1544.91 L213.184 1544.91 L213.184 1518.55 L204.874 1520.21 L204.874 1515.95 L213.138 1514.29 L217.814 1514.29 L217.814 1544.91 L225.453 1544.91 L225.453 1548.85 L205.545 1548.85 L205.545 1544.91 Z" fill="#000000" fill-rule="nonzero" fill-opacity="1" /><path clip-path="url(#clip420)" d="M234.897 1542.97 L239.781 1542.97 L239.781 1548.85 L234.897 1548.85 L234.897 1542.97 Z" fill="#000000" fill-rule="nonzero" fill-opacity="1" /><path clip-path="url(#clip420)" d="M259.966 1517.37 Q256.355 1517.37 254.527 1520.93 Q252.721 1524.47 252.721 1531.6 Q252.721 1538.71 254.527 1542.27 Q256.355 1545.82 259.966 1545.82 Q263.601 1545.82 265.406 1542.27 Q267.235 1538.71 267.235 1531.6 Q267.235 1524.47 265.406 1520.93 Q263.601 1517.37 259.966 1517.37 M259.966 1513.66 Q265.776 1513.66 268.832 1518.27 Q271.911 1522.85 271.911 1531.6 Q271.911 1540.33 268.832 1544.94 Q265.776 1549.52 259.966 1549.52 Q254.156 1549.52 251.077 1544.94 Q248.022 1540.33 248.022 1531.6 Q248.022 1522.85 251.077 1518.27 Q254.156 1513.66 259.966 1513.66 Z" fill="#000000" fill-rule="nonzero" fill-opacity="1" /><path clip-path="url(#clip420)" d="M683.503 1532.02 L713.178 1532.02 L713.178 1535.95 L683.503 1535.95 L683.503 1532.02 Z" fill="#000000" fill-rule="nonzero" fill-opacity="1" /><path clip-path="url(#clip420)" d="M733.271 1517.37 Q729.66 1517.37 727.831 1520.93 Q726.026 1524.47 726.026 1531.6 Q726.026 1538.71 727.831 1542.27 Q729.66 1545.82 733.271 1545.82 Q736.905 1545.82 738.711 1542.27 Q740.539 1538.71 740.539 1531.6 Q740.539 1524.47 738.711 1520.93 Q736.905 1517.37 733.271 1517.37 M733.271 1513.66 Q739.081 1513.66 742.137 1518.27 Q745.215 1522.85 745.215 1531.6 Q745.215 1540.33 742.137 1544.94 Q739.081 1549.52 733.271 1549.52 Q727.461 1549.52 724.382 1544.94 Q721.327 1540.33 721.327 1531.6 Q721.327 1522.85 724.382 1518.27 Q727.461 1513.66 733.271 1513.66 Z" fill="#000000" fill-rule="nonzero" fill-opacity="1" /><path clip-path="url(#clip420)" d="M753.433 1542.97 L758.317 1542.97 L758.317 1548.85 L753.433 1548.85 L753.433 1542.97 Z" fill="#000000" fill-rule="nonzero" fill-opacity="1" /><path clip-path="url(#clip420)" d="M768.548 1514.29 L786.905 1514.29 L786.905 1518.22 L772.831 1518.22 L772.831 1526.7 Q773.849 1526.35 774.868 1526.19 Q775.886 1526 776.905 1526 Q782.692 1526 786.072 1529.17 Q789.451 1532.34 789.451 1537.76 Q789.451 1543.34 785.979 1546.44 Q782.507 1549.52 776.187 1549.52 Q774.011 1549.52 771.743 1549.15 Q769.498 1548.78 767.09 1548.04 L767.09 1543.34 Q769.173 1544.47 771.396 1545.03 Q773.618 1545.58 776.095 1545.58 Q780.099 1545.58 782.437 1543.48 Q784.775 1541.37 784.775 1537.76 Q784.775 1534.15 782.437 1532.04 Q780.099 1529.94 776.095 1529.94 Q774.22 1529.94 772.345 1530.35 Q770.493 1530.77 768.548 1531.65 L768.548 1514.29 Z" fill="#000000" fill-rule="nonzero" fill-opacity="1" /><path clip-path="url(#clip420)" d="M1231.9 1517.37 Q1228.29 1517.37 1226.46 1520.93 Q1224.65 1524.47 1224.65 1531.6 Q1224.65 1538.71 1226.46 1542.27 Q1228.29 1545.82 1231.9 1545.82 Q1235.53 1545.82 1237.34 1542.27 Q1239.17 1538.71 1239.17 1531.6 Q1239.17 1524.47 1237.34 1520.93 Q1235.53 1517.37 1231.9 1517.37 M1231.9 1513.66 Q1237.71 1513.66 1240.77 1518.27 Q1243.84 1522.85 1243.84 1531.6 Q1243.84 1540.33 1240.77 1544.94 Q1237.71 1549.52 1231.9 1549.52 Q1226.09 1549.52 1223.01 1544.94 Q1219.96 1540.33 1219.96 1531.6 Q1219.96 1522.85 1223.01 1518.27 Q1226.09 1513.66 1231.9 1513.66 Z" fill="#000000" fill-rule="nonzero" fill-opacity="1" /><path clip-path="url(#clip420)" d="M1252.06 1542.97 L1256.95 1542.97 L1256.95 1548.85 L1252.06 1548.85 L1252.06 1542.97 Z" fill="#000000" fill-rule="nonzero" fill-opacity="1" /><path clip-path="url(#clip420)" d="M1277.13 1517.37 Q1273.52 1517.37 1271.69 1520.93 Q1269.89 1524.47 1269.89 1531.6 Q1269.89 1538.71 1271.69 1542.27 Q1273.52 1545.82 1277.13 1545.82 Q1280.76 1545.82 1282.57 1542.27 Q1284.4 1538.71 1284.4 1531.6 Q1284.4 1524.47 1282.57 1520.93 Q1280.76 1517.37 1277.13 1517.37 M1277.13 1513.66 Q1282.94 1513.66 1286 1518.27 Q1289.08 1522.85 1289.08 1531.6 Q1289.08 1540.33 1286 1544.94 Q1282.94 1549.52 1277.13 1549.52 Q1271.32 1549.52 1268.24 1544.94 Q1265.19 1540.33 1265.19 1531.6 Q1265.19 1522.85 1268.24 1518.27 Q1271.32 1513.66 1277.13 1513.66 Z" fill="#000000" fill-rule="nonzero" fill-opacity="1" /><path clip-path="url(#clip420)" d="M1750.44 1517.37 Q1746.82 1517.37 1745 1520.93 Q1743.19 1524.47 1743.19 1531.6 Q1743.19 1538.71 1745 1542.27 Q1746.82 1545.82 1750.44 1545.82 Q1754.07 1545.82 1755.88 1542.27 Q1757.7 1538.71 1757.7 1531.6 Q1757.7 1524.47 1755.88 1520.93 Q1754.07 1517.37 1750.44 1517.37 M1750.44 1513.66 Q1756.25 1513.66 1759.3 1518.27 Q1762.38 1522.85 1762.38 1531.6 Q1762.38 1540.33 1759.3 1544.94 Q1756.25 1549.52 1750.44 1549.52 Q1744.63 1549.52 1741.55 1544.94 Q1738.49 1540.33 1738.49 1531.6 Q1738.49 1522.85 1741.55 1518.27 Q1744.63 1513.66 1750.44 1513.66 Z" fill="#000000" fill-rule="nonzero" fill-opacity="1" /><path clip-path="url(#clip420)" d="M1770.6 1542.97 L1775.48 1542.97 L1775.48 1548.85 L1770.6 1548.85 L1770.6 1542.97 Z" fill="#000000" fill-rule="nonzero" fill-opacity="1" /><path clip-path="url(#clip420)" d="M1785.71 1514.29 L1804.07 1514.29 L1804.07 1518.22 L1790 1518.22 L1790 1526.7 Q1791.01 1526.35 1792.03 1526.19 Q1793.05 1526 1794.07 1526 Q1799.86 1526 1803.24 1529.17 Q1806.62 1532.34 1806.62 1537.76 Q1806.62 1543.34 1803.14 1546.44 Q1799.67 1549.52 1793.35 1549.52 Q1791.18 1549.52 1788.91 1549.15 Q1786.66 1548.78 1784.25 1548.04 L1784.25 1543.34 Q1786.34 1544.47 1788.56 1545.03 Q1790.78 1545.58 1793.26 1545.58 Q1797.26 1545.58 1799.6 1543.48 Q1801.94 1541.37 1801.94 1537.76 Q1801.94 1534.15 1799.6 1532.04 Q1797.26 1529.94 1793.26 1529.94 Q1791.38 1529.94 1789.51 1530.35 Q1787.66 1530.77 1785.71 1531.65 L1785.71 1514.29 Z" fill="#000000" fill-rule="nonzero" fill-opacity="1" /><path clip-path="url(#clip420)" d="M2257.74 1544.91 L2265.38 1544.91 L2265.38 1518.55 L2257.07 1520.21 L2257.07 1515.95 L2265.34 1514.29 L2270.01 1514.29 L2270.01 1544.91 L2277.65 1544.91 L2277.65 1548.85 L2257.74 1548.85 L2257.74 1544.91 Z" fill="#000000" fill-rule="nonzero" fill-opacity="1" /><path clip-path="url(#clip420)" d="M2287.1 1542.97 L2291.98 1542.97 L2291.98 1548.85 L2287.1 1548.85 L2287.1 1542.97 Z" fill="#000000" fill-rule="nonzero" fill-opacity="1" /><path clip-path="url(#clip420)" d="M2312.17 1517.37 Q2308.55 1517.37 2306.73 1520.93 Q2304.92 1524.47 2304.92 1531.6 Q2304.92 1538.71 2306.73 1542.27 Q2308.55 1545.82 2312.17 1545.82 Q2315.8 1545.82 2317.61 1542.27 Q2319.43 1538.71 2319.43 1531.6 Q2319.43 1524.47 2317.61 1520.93 Q2315.8 1517.37 2312.17 1517.37 M2312.17 1513.66 Q2317.98 1513.66 2321.03 1518.27 Q2324.11 1522.85 2324.11 1531.6 Q2324.11 1540.33 2321.03 1544.94 Q2317.98 1549.52 2312.17 1549.52 Q2306.36 1549.52 2303.28 1544.94 Q2300.22 1540.33 2300.22 1531.6 Q2300.22 1522.85 2303.28 1518.27 Q2306.36 1513.66 2312.17 1513.66 Z" fill="#000000" fill-rule="nonzero" fill-opacity="1" /><polyline clip-path="url(#clip422)" style="stroke:#000000; stroke-linecap:round; stroke-linejoin:round; stroke-width:2; stroke-opacity:0.1; fill:none" points="156.274,1266.44 2352.76,1266.44 "/>
<polyline clip-path="url(#clip422)" style="stroke:#000000; stroke-linecap:round; stroke-linejoin:round; stroke-width:2; stroke-opacity:0.1; fill:none" points="156.274,997.702 2352.76,997.702 "/>
<polyline clip-path="url(#clip422)" style="stroke:#000000; stroke-linecap:round; stroke-linejoin:round; stroke-width:2; stroke-opacity:0.1; fill:none" points="156.274,728.966 2352.76,728.966 "/>
<polyline clip-path="url(#clip422)" style="stroke:#000000; stroke-linecap:round; stroke-linejoin:round; stroke-width:2; stroke-opacity:0.1; fill:none" points="156.274,460.23 2352.76,460.23 "/>
<polyline clip-path="url(#clip422)" style="stroke:#000000; stroke-linecap:round; stroke-linejoin:round; stroke-width:2; stroke-opacity:0.1; fill:none" points="156.274,191.494 2352.76,191.494 "/>
<polyline clip-path="url(#clip420)" style="stroke:#000000; stroke-linecap:round; stroke-linejoin:round; stroke-width:4; stroke-opacity:1; fill:none" points="156.274,1486.45 156.274,47.2441 "/>
<polyline clip-path="url(#clip420)" style="stroke:#000000; stroke-linecap:round; stroke-linejoin:round; stroke-width:4; stroke-opacity:1; fill:none" points="156.274,1266.44 175.172,1266.44 "/>
<polyline clip-path="url(#clip420)" style="stroke:#000000; stroke-linecap:round; stroke-linejoin:round; stroke-width:4; stroke-opacity:1; fill:none" points="156.274,997.702 175.172,997.702 "/>
<polyline clip-path="url(#clip420)" style="stroke:#000000; stroke-linecap:round; stroke-linejoin:round; stroke-width:4; stroke-opacity:1; fill:none" points="156.274,728.966 175.172,728.966 "/>
<polyline clip-path="url(#clip420)" style="stroke:#000000; stroke-linecap:round; stroke-linejoin:round; stroke-width:4; stroke-opacity:1; fill:none" points="156.274,460.23 175.172,460.23 "/>
<polyline clip-path="url(#clip420)" style="stroke:#000000; stroke-linecap:round; stroke-linejoin:round; stroke-width:4; stroke-opacity:1; fill:none" points="156.274,191.494 175.172,191.494 "/>
<path clip-path="url(#clip420)" d="M63.0985 1252.24 Q59.4875 1252.24 57.6588 1255.8 Q55.8532 1259.34 55.8532 1266.47 Q55.8532 1273.58 57.6588 1277.14 Q59.4875 1280.69 63.0985 1280.69 Q66.7328 1280.69 68.5383 1277.14 Q70.367 1273.58 70.367 1266.47 Q70.367 1259.34 68.5383 1255.8 Q66.7328 1252.24 63.0985 1252.24 M63.0985 1248.53 Q68.9087 1248.53 71.9642 1253.14 Q75.0429 1257.72 75.0429 1266.47 Q75.0429 1275.2 71.9642 1279.81 Q68.9087 1284.39 63.0985 1284.39 Q57.2884 1284.39 54.2097 1279.81 Q51.1542 1275.2 51.1542 1266.47 Q51.1542 1257.72 54.2097 1253.14 Q57.2884 1248.53 63.0985 1248.53 Z" fill="#000000" fill-rule="nonzero" fill-opacity="1" /><path clip-path="url(#clip420)" d="M83.2605 1277.84 L88.1447 1277.84 L88.1447 1283.72 L83.2605 1283.72 L83.2605 1277.84 Z" fill="#000000" fill-rule="nonzero" fill-opacity="1" /><path clip-path="url(#clip420)" d="M108.33 1252.24 Q104.719 1252.24 102.89 1255.8 Q101.084 1259.34 101.084 1266.47 Q101.084 1273.58 102.89 1277.14 Q104.719 1280.69 108.33 1280.69 Q111.964 1280.69 113.77 1277.14 Q115.598 1273.58 115.598 1266.47 Q115.598 1259.34 113.77 1255.8 Q111.964 1252.24 108.33 1252.24 M108.33 1248.53 Q114.14 1248.53 117.195 1253.14 Q120.274 1257.72 120.274 1266.47 Q120.274 1275.2 117.195 1279.81 Q114.14 1284.39 108.33 1284.39 Q102.52 1284.39 99.4409 1279.81 Q96.3854 1275.2 96.3854 1266.47 Q96.3854 1257.72 99.4409 1253.14 Q102.52 1248.53 108.33 1248.53 Z" fill="#000000" fill-rule="nonzero" fill-opacity="1" /><path clip-path="url(#clip420)" d="M63.7467 983.501 Q60.1356 983.501 58.3069 987.066 Q56.5014 990.608 56.5014 997.737 Q56.5014 1004.84 58.3069 1008.41 Q60.1356 1011.95 63.7467 1011.95 Q67.3809 1011.95 69.1865 1008.41 Q71.0152 1004.84 71.0152 997.737 Q71.0152 990.608 69.1865 987.066 Q67.3809 983.501 63.7467 983.501 M63.7467 979.797 Q69.5568 979.797 72.6124 984.404 Q75.6911 988.987 75.6911 997.737 Q75.6911 1006.46 72.6124 1011.07 Q69.5568 1015.65 63.7467 1015.65 Q57.9365 1015.65 54.8578 1011.07 Q51.8023 1006.46 51.8023 997.737 Q51.8023 988.987 54.8578 984.404 Q57.9365 979.797 63.7467 979.797 Z" fill="#000000" fill-rule="nonzero" fill-opacity="1" /><path clip-path="url(#clip420)" d="M83.9086 1009.1 L88.7928 1009.1 L88.7928 1014.98 L83.9086 1014.98 L83.9086 1009.1 Z" fill="#000000" fill-rule="nonzero" fill-opacity="1" /><path clip-path="url(#clip420)" d="M113.145 996.348 Q116.501 997.066 118.376 999.334 Q120.274 1001.6 120.274 1004.94 Q120.274 1010.05 116.756 1012.85 Q113.237 1015.65 106.756 1015.65 Q104.58 1015.65 102.265 1015.21 Q99.9733 1014.8 97.5197 1013.94 L97.5197 1009.43 Q99.4641 1010.56 101.779 1011.14 Q104.094 1011.72 106.617 1011.72 Q111.015 1011.72 113.307 1009.98 Q115.621 1008.25 115.621 1004.94 Q115.621 1001.88 113.469 1000.17 Q111.339 998.432 107.52 998.432 L103.492 998.432 L103.492 994.589 L107.705 994.589 Q111.154 994.589 112.983 993.223 Q114.811 991.834 114.811 989.242 Q114.811 986.58 112.913 985.168 Q111.038 983.733 107.52 983.733 Q105.598 983.733 103.399 984.149 Q101.2 984.566 98.5613 985.446 L98.5613 981.279 Q101.223 980.538 103.538 980.168 Q105.876 979.797 107.936 979.797 Q113.26 979.797 116.362 982.228 Q119.464 984.635 119.464 988.756 Q119.464 991.626 117.82 993.617 Q116.177 995.584 113.145 996.348 Z" fill="#000000" fill-rule="nonzero" fill-opacity="1" /><path clip-path="url(#clip420)" d="M62.9365 714.765 Q59.3254 714.765 57.4967 718.33 Q55.6912 721.871 55.6912 729.001 Q55.6912 736.107 57.4967 739.672 Q59.3254 743.214 62.9365 743.214 Q66.5707 743.214 68.3763 739.672 Q70.205 736.107 70.205 729.001 Q70.205 721.871 68.3763 718.33 Q66.5707 714.765 62.9365 714.765 M62.9365 711.061 Q68.7467 711.061 71.8022 715.668 Q74.8809 720.251 74.8809 729.001 Q74.8809 737.728 71.8022 742.334 Q68.7467 746.918 62.9365 746.918 Q57.1264 746.918 54.0477 742.334 Q50.9921 737.728 50.9921 729.001 Q50.9921 720.251 54.0477 715.668 Q57.1264 711.061 62.9365 711.061 Z" fill="#000000" fill-rule="nonzero" fill-opacity="1" /><path clip-path="url(#clip420)" d="M83.0984 740.367 L87.9827 740.367 L87.9827 746.246 L83.0984 746.246 L83.0984 740.367 Z" fill="#000000" fill-rule="nonzero" fill-opacity="1" /><path clip-path="url(#clip420)" d="M108.746 727.103 Q105.598 727.103 103.746 729.256 Q101.918 731.408 101.918 735.158 Q101.918 738.885 103.746 741.061 Q105.598 743.214 108.746 743.214 Q111.895 743.214 113.723 741.061 Q115.575 738.885 115.575 735.158 Q115.575 731.408 113.723 729.256 Q111.895 727.103 108.746 727.103 M118.029 712.45 L118.029 716.709 Q116.27 715.876 114.464 715.436 Q112.682 714.996 110.922 714.996 Q106.293 714.996 103.839 718.121 Q101.409 721.246 101.061 727.566 Q102.427 725.552 104.487 724.487 Q106.547 723.399 109.024 723.399 Q114.233 723.399 117.242 726.57 Q120.274 729.719 120.274 735.158 Q120.274 740.482 117.126 743.7 Q113.978 746.918 108.746 746.918 Q102.751 746.918 99.5798 742.334 Q96.4085 737.728 96.4085 729.001 Q96.4085 720.807 100.297 715.945 Q104.186 711.061 110.737 711.061 Q112.496 711.061 114.279 711.408 Q116.084 711.756 118.029 712.45 Z" fill="#000000" fill-rule="nonzero" fill-opacity="1" /><path clip-path="url(#clip420)" d="M63.2837 446.029 Q59.6726 446.029 57.8439 449.593 Q56.0384 453.135 56.0384 460.265 Q56.0384 467.371 57.8439 470.936 Q59.6726 474.478 63.2837 474.478 Q66.918 474.478 68.7235 470.936 Q70.5522 467.371 70.5522 460.265 Q70.5522 453.135 68.7235 449.593 Q66.918 446.029 63.2837 446.029 M63.2837 442.325 Q69.0939 442.325 72.1494 446.931 Q75.2281 451.515 75.2281 460.265 Q75.2281 468.992 72.1494 473.598 Q69.0939 478.181 63.2837 478.181 Q57.4736 478.181 54.3949 473.598 Q51.3393 468.992 51.3393 460.265 Q51.3393 451.515 54.3949 446.931 Q57.4736 442.325 63.2837 442.325 Z" fill="#000000" fill-rule="nonzero" fill-opacity="1" /><path clip-path="url(#clip420)" d="M83.4457 471.63 L88.3299 471.63 L88.3299 477.51 L83.4457 477.51 L83.4457 471.63 Z" fill="#000000" fill-rule="nonzero" fill-opacity="1" /><path clip-path="url(#clip420)" d="M98.6539 476.792 L98.6539 472.533 Q100.413 473.367 102.219 473.806 Q104.024 474.246 105.76 474.246 Q110.39 474.246 112.82 471.144 Q115.274 468.019 115.621 461.677 Q114.279 463.667 112.219 464.732 Q110.158 465.797 107.658 465.797 Q102.473 465.797 99.4409 462.672 Q96.4317 459.524 96.4317 454.084 Q96.4317 448.76 99.5798 445.543 Q102.728 442.325 107.959 442.325 Q113.955 442.325 117.103 446.931 Q120.274 451.515 120.274 460.265 Q120.274 468.436 116.385 473.32 Q112.52 478.181 105.969 478.181 Q104.209 478.181 102.404 477.834 Q100.598 477.487 98.6539 476.792 M107.959 462.14 Q111.108 462.14 112.936 459.987 Q114.788 457.834 114.788 454.084 Q114.788 450.357 112.936 448.205 Q111.108 446.029 107.959 446.029 Q104.811 446.029 102.959 448.205 Q101.131 450.357 101.131 454.084 Q101.131 457.834 102.959 459.987 Q104.811 462.14 107.959 462.14 Z" fill="#000000" fill-rule="nonzero" fill-opacity="1" /><path clip-path="url(#clip420)" d="M55.506 204.839 L63.1448 204.839 L63.1448 178.473 L54.8347 180.14 L54.8347 175.88 L63.0985 174.214 L67.7744 174.214 L67.7744 204.839 L75.4133 204.839 L75.4133 208.774 L55.506 208.774 L55.506 204.839 Z" fill="#000000" fill-rule="nonzero" fill-opacity="1" /><path clip-path="url(#clip420)" d="M84.8577 202.894 L89.7419 202.894 L89.7419 208.774 L84.8577 208.774 L84.8577 202.894 Z" fill="#000000" fill-rule="nonzero" fill-opacity="1" /><path clip-path="url(#clip420)" d="M103.955 204.839 L120.274 204.839 L120.274 208.774 L98.3298 208.774 L98.3298 204.839 Q100.992 202.084 105.575 197.454 Q110.182 192.802 111.362 191.459 Q113.608 188.936 114.487 187.2 Q115.39 185.441 115.39 183.751 Q115.39 180.996 113.445 179.26 Q111.524 177.524 108.422 177.524 Q106.223 177.524 103.77 178.288 Q101.339 179.052 98.5613 180.603 L98.5613 175.88 Q101.385 174.746 103.839 174.167 Q106.293 173.589 108.33 173.589 Q113.7 173.589 116.895 176.274 Q120.089 178.959 120.089 183.45 Q120.089 185.579 119.279 187.501 Q118.492 189.399 116.385 191.991 Q115.807 192.663 112.705 195.88 Q109.603 199.075 103.955 204.839 Z" fill="#000000" fill-rule="nonzero" fill-opacity="1" /><polyline clip-path="url(#clip422)" style="stroke:#009af9; stroke-linecap:round; stroke-linejoin:round; stroke-width:16; stroke-opacity:1; fill:none" stroke-dasharray="8, 16" points="218.439,1132.83 228.852,1094.93 239.264,1076.02 249.677,1073.99 260.09,1083.54 270.503,1098.29 280.916,1113.17 291.329,1126 301.741,1137.91 312.154,1152.32 322.567,1173.07 332.98,1202.28 343.393,1238.98 353.805,1279.11 364.218,1317.21 374.631,1349.02 385.044,1373.43 395.457,1392.23 405.87,1408.13 416.282,1422.5 426.695,1434.73 437.108,1443.04 447.521,1445.72 457.934,1441.7 468.347,1430.61 478.759,1412.58 489.172,1388.36 499.585,1359.37 509.998,1327.48 520.411,1294.65 530.824,1262.49 541.236,1232.24 551.649,1204.72 562.062,1179.96 572.475,1156.92 582.888,1134.09 593.301,1111.38 603.713,1091.53 614.126,1079.17 624.539,1077.77 634.952,1087.23 645.365,1104.25 655.777,1124.72 666.19,1146.07 676.603,1167.96 687.016,1191.54 697.429,1218.26 707.842,1248.8 718.254,1282.54 728.667,1317.48 739.08,1350.69 749.493,1379.17 759.906,1401.05 770.319,1416.61 780.731,1428.1 791.144,1437.57 801.557,1444.31 811.97,1444.67 822.383,1435.78 832.796,1419.08 843.208,1398.95 853.621,1378.11 864.034,1355.56 874.447,1328.83 884.86,1297.07 895.273,1261.85 905.685,1226 916.098,1192.22 926.511,1162.37 936.924,1137.56 947.337,1118.24 957.749,1104.47 968.162,1095.96 978.575,1092.31 988.988,1093.16 999.401,1098.33 1009.81,1107.91 1020.23,1122.14 1030.64,1141.27 1041.05,1165.3 1051.46,1193.85 1061.88,1226.03 1072.29,1260.5 1082.7,1295.55 1093.12,1329.34 1103.53,1360.14 1113.94,1386.61 1124.35,1407.89 1134.77,1423.62 1145.18,1433.73 1155.59,1438.34 1166.01,1437.83 1176.42,1433.51 1186.83,1428.64 1197.24,1428.22 1207.66,1434.69 1218.07,1435.7 1228.48,1388.3 1238.9,1228.35 1249.31,940.467 1259.72,624.211 1270.13,416.691 1280.55,352.256 1290.96,365.961 1301.37,389.307 1311.79,394.606 1322.2,383.387 1332.61,366.1 1343.02,351.503 1353.44,344.013 1363.85,344.416 1374.26,351.301 1384.68,362.244 1395.09,374.576 1405.5,385.802 1415.91,393.836 1426.33,397.153 1436.74,394.925 1447.15,387.172 1457.57,374.889 1467.98,360.101 1478.39,345.721 1488.8,335.179 1499.22,331.763 1509.63,337.758 1520.04,353.544 1530.45,376.926 1540.87,403.011 1551.28,424.898 1561.69,435.238 1572.11,428.409 1582.52,402.73 1592.93,362.017 1603.34,315.923 1613.76,278.602 1624.17,265.225 1634.58,286.395 1645,341.773 1655.41,416.065 1665.82,481.864 1676.23,511.532 1686.65,491.761 1697.06,429.564 1707.47,347.475 1717.89,274.217 1728.3,234.336 1738.71,238.991 1749.12,282.785 1759.54,348.488 1769.95,415.541 1780.36,466.891 1790.78,492.053 1801.19,487.298 1811.6,454.72 1822.01,401.224 1832.43,337.72 1842.84,278.122 1853.25,237.616 1863.67,229.649 1874.08,261.622 1884.49,330.218 1894.9,418.754 1905.32,499.711 1915.73,543.982 1926.14,533.708 1936.56,471.316 1946.97,378.489 1957.38,285.754 1967.79,219.798 1978.21,195.755 1988.62,216.435 1999.03,275.568 2009.45,361 2019.86,455.883 2030.27,538.787 2040.68,585.351 2051.1,573.771 2061.51,494.408 2071.92,360.241 2082.33,211.178 2092.75,104.188 2103.16,87.9763 2113.57,174.933 2123.99,331.328 2134.4,494.968 2144.81,606.947 2155.22,635.596 2165.64,582.385 2176.05,473.758 2186.46,347.426 2196.88,239.283 2207.29,174.238 2217.7,162.378 2228.11,199.968 2238.53,273.469 2248.94,364.524 2259.35,454.508 2269.77,528.077 2280.18,575.548 2290.59,594.015 "/>
<polyline clip-path="url(#clip422)" style="stroke:#e26f46; stroke-linecap:round; stroke-linejoin:round; stroke-width:4; stroke-opacity:1; fill:none" points="218.439,1131.89 228.852,1112.8 239.264,1098.73 249.677,1090.13 260.09,1087.28 270.503,1090.28 280.916,1099.03 291.329,1113.24 301.741,1132.46 312.154,1156.04 322.567,1183.23 332.98,1213.14 343.393,1244.78 353.805,1277.13 364.218,1309.13 374.631,1339.74 385.044,1367.96 395.457,1392.86 405.87,1413.64 416.282,1429.61 426.695,1440.26 437.108,1445.23 447.521,1444.37 457.934,1437.7 468.347,1425.44 478.759,1408 489.172,1385.93 499.585,1359.96 509.998,1330.94 520.411,1299.82 530.824,1267.6 541.236,1235.35 551.649,1204.11 562.062,1174.91 572.475,1148.69 582.888,1126.32 593.301,1108.52 603.713,1095.87 614.126,1088.79 624.539,1087.51 634.952,1092.07 645.365,1102.32 655.777,1117.93 666.19,1138.38 676.603,1163.01 687.016,1191.02 697.429,1221.49 707.842,1253.42 718.254,1285.78 728.667,1317.51 739.08,1347.58 749.493,1374.99 759.906,1398.86 770.319,1418.41 780.731,1433 791.144,1442.16 801.557,1445.58 811.97,1443.15 822.383,1434.95 832.796,1421.26 843.208,1402.51 853.621,1379.32 864.034,1352.45 874.447,1322.77 884.86,1291.25 895.273,1258.92 905.685,1226.84 916.098,1196.05 926.511,1167.55 936.924,1142.29 947.337,1121.07 957.749,1104.61 968.162,1093.42 978.575,1087.88 988.988,1088.16 999.401,1094.27 1009.81,1105.99 1020.23,1122.96 1030.64,1144.6 1041.05,1170.22 1051.46,1198.98 1061.88,1229.94 1072.29,1262.1 1082.7,1294.39 1093.12,1325.78 1103.53,1355.22 1113.94,1381.77 1124.35,1404.55 1134.77,1422.83 1145.18,1436 1155.59,1443.64 1166.01,1445.5 1176.42,1441.51 1186.83,1431.81 1197.24,1416.71 1207.66,1396.7 1218.07,1372.45 1228.48,1344.73 1238.9,1314.46 1249.31,1282.62 1259.72,369.35 1270.13,367.87 1280.55,369.217 1290.96,373.703 1301.37,379.952 1311.79,385.324 1322.2,386.915 1332.61,382.781 1343.02,372.928 1353.44,359.644 1363.85,347.003 1374.26,339.619 1384.68,341.035 1395.09,352.302 1405.5,371.253 1415.91,392.82 1426.33,410.383 1436.74,417.792 1447.15,411.45 1457.57,391.773 1467.98,363.471 1478.39,334.466 1488.8,313.678 1499.22,308.292 1509.63,321.347 1520.04,350.432 1530.45,387.994 1540.87,423.279 1551.28,445.408 1561.69,446.719 1572.11,425.339 1582.52,386.157 1592.93,339.776 1603.34,299.656 1613.76,278.209 1624.17,282.978 1634.58,314.071 1645,363.709 1655.41,418.125 1665.82,461.381 1676.23,480.029 1686.65,467.277 1697.06,425.342 1707.47,365.237 1717.89,303.902 1728.3,259.429 1738.71,245.732 1749.12,268.223 1759.54,321.829 1769.95,392.054 1780.36,458.883 1790.78,502.483 1801.19,509.087 1811.6,475.304 1822.01,409.522 1832.43,329.879 1842.84,259.268 1853.25,218.76 1863.67,221.321 1874.08,267.708 1884.49,345.821 1894.9,433.827 1905.32,506.258 1915.73,541.38 1926.14,527.703 1936.56,467.686 1946.97,377.451 1957.38,282.473 1967.79,210.394 1978.21,182.977 1988.62,209.547 1999.03,283.902 2009.45,385.68 2019.86,485.92 2030.27,555.306 2040.68,572.734 2051.1,531.714 2061.51,442.661 2071.92,330.294 2082.33,226.787 2092.75,162.551 2103.16,157.312 2113.57,214.068 2123.99,317.808 2134.4,439.447 2144.81,543.975 2155.22,600.537 2165.64,591.531 2176.05,518.057 2186.46,400.026 2196.88,270.784 2207.29,167.695 2217.7,121.34 2228.11,146.452 2238.53,237.279 2248.94,368.812 2259.35,503.663 2269.77,602.689 2280.18,636.351 2290.59,593.517 "/>
<path clip-path="url(#clip420)" d="M229.49 250.738 L675.966 250.738 L675.966 95.2176 L229.49 95.2176  Z" fill="#ffffff" fill-rule="evenodd" fill-opacity="1"/>
<polyline clip-path="url(#clip420)" style="stroke:#000000; stroke-linecap:round; stroke-linejoin:round; stroke-width:4; stroke-opacity:1; fill:none" points="229.49,250.738 675.966,250.738 675.966,95.2176 229.49,95.2176 229.49,250.738 "/>
<polyline clip-path="url(#clip420)" style="stroke:#009af9; stroke-linecap:round; stroke-linejoin:round; stroke-width:16; stroke-opacity:1; fill:none" stroke-dasharray="8, 16" points="253.896,147.058 400.328,147.058 "/>
<path clip-path="url(#clip420)" d="M429.409 133.62 L429.409 146.606 L435.289 146.606 Q438.552 146.606 440.335 144.916 Q442.117 143.227 442.117 140.102 Q442.117 137 440.335 135.31 Q438.552 133.62 435.289 133.62 L429.409 133.62 M424.733 129.778 L435.289 129.778 Q441.099 129.778 444.062 132.416 Q447.048 135.032 447.048 140.102 Q447.048 145.217 444.062 147.833 Q441.099 150.449 435.289 150.449 L429.409 150.449 L429.409 164.338 L424.733 164.338 L424.733 129.778 Z" fill="#000000" fill-rule="nonzero" fill-opacity="1" /><path clip-path="url(#clip420)" d="M467.325 142.393 Q466.608 141.977 465.751 141.791 Q464.918 141.583 463.899 141.583 Q460.288 141.583 458.344 143.944 Q456.423 146.282 456.423 150.68 L456.423 164.338 L452.14 164.338 L452.14 138.412 L456.423 138.412 L456.423 142.44 Q457.765 140.078 459.918 138.944 Q462.071 137.787 465.149 137.787 Q465.589 137.787 466.122 137.856 Q466.654 137.903 467.302 138.018 L467.325 142.393 Z" fill="#000000" fill-rule="nonzero" fill-opacity="1" /><path clip-path="url(#clip420)" d="M492.927 150.31 L492.927 152.393 L473.344 152.393 Q473.622 156.791 475.983 159.106 Q478.367 161.398 482.603 161.398 Q485.057 161.398 487.348 160.796 Q489.663 160.194 491.932 158.99 L491.932 163.018 Q489.64 163.99 487.233 164.5 Q484.825 165.009 482.348 165.009 Q476.145 165.009 472.511 161.398 Q468.899 157.787 468.899 151.629 Q468.899 145.264 472.325 141.537 Q475.774 137.787 481.608 137.787 Q486.839 137.787 489.872 141.166 Q492.927 144.523 492.927 150.31 M488.668 149.06 Q488.622 145.565 486.7 143.481 Q484.802 141.398 481.654 141.398 Q478.089 141.398 475.936 143.412 Q473.807 145.426 473.483 149.083 L488.668 149.06 Z" fill="#000000" fill-rule="nonzero" fill-opacity="1" /><path clip-path="url(#clip420)" d="M516.978 142.347 L516.978 128.319 L521.237 128.319 L521.237 164.338 L516.978 164.338 L516.978 160.449 Q515.635 162.763 513.575 163.898 Q511.538 165.009 508.668 165.009 Q503.969 165.009 501.006 161.259 Q498.066 157.509 498.066 151.398 Q498.066 145.287 501.006 141.537 Q503.969 137.787 508.668 137.787 Q511.538 137.787 513.575 138.921 Q515.635 140.032 516.978 142.347 M502.464 151.398 Q502.464 156.097 504.385 158.782 Q506.33 161.444 509.709 161.444 Q513.089 161.444 515.033 158.782 Q516.978 156.097 516.978 151.398 Q516.978 146.699 515.033 144.037 Q513.089 141.352 509.709 141.352 Q506.33 141.352 504.385 144.037 Q502.464 146.699 502.464 151.398 Z" fill="#000000" fill-rule="nonzero" fill-opacity="1" /><path clip-path="url(#clip420)" d="M530.01 138.412 L534.269 138.412 L534.269 164.338 L530.01 164.338 L530.01 138.412 M530.01 128.319 L534.269 128.319 L534.269 133.713 L530.01 133.713 L530.01 128.319 Z" fill="#000000" fill-rule="nonzero" fill-opacity="1" /><path clip-path="url(#clip420)" d="M561.839 139.407 L561.839 143.389 Q560.033 142.393 558.205 141.907 Q556.399 141.398 554.547 141.398 Q550.404 141.398 548.112 144.037 Q545.82 146.652 545.82 151.398 Q545.82 156.143 548.112 158.782 Q550.404 161.398 554.547 161.398 Q556.399 161.398 558.205 160.912 Q560.033 160.402 561.839 159.407 L561.839 163.342 Q560.056 164.176 558.135 164.592 Q556.237 165.009 554.084 165.009 Q548.228 165.009 544.779 161.328 Q541.33 157.648 541.33 151.398 Q541.33 145.055 544.802 141.421 Q548.297 137.787 554.362 137.787 Q556.33 137.787 558.205 138.203 Q560.08 138.597 561.839 139.407 Z" fill="#000000" fill-rule="nonzero" fill-opacity="1" /><path clip-path="url(#clip420)" d="M573.459 131.051 L573.459 138.412 L582.232 138.412 L582.232 141.722 L573.459 141.722 L573.459 155.796 Q573.459 158.967 574.316 159.87 Q575.195 160.773 577.857 160.773 L582.232 160.773 L582.232 164.338 L577.857 164.338 Q572.927 164.338 571.052 162.509 Q569.177 160.657 569.177 155.796 L569.177 141.722 L566.052 141.722 L566.052 138.412 L569.177 138.412 L569.177 131.051 L573.459 131.051 Z" fill="#000000" fill-rule="nonzero" fill-opacity="1" /><path clip-path="url(#clip420)" d="M587.834 138.412 L592.093 138.412 L592.093 164.338 L587.834 164.338 L587.834 138.412 M587.834 128.319 L592.093 128.319 L592.093 133.713 L587.834 133.713 L587.834 128.319 Z" fill="#000000" fill-rule="nonzero" fill-opacity="1" /><path clip-path="url(#clip420)" d="M611.051 141.398 Q607.626 141.398 605.635 144.083 Q603.644 146.745 603.644 151.398 Q603.644 156.051 605.612 158.736 Q607.602 161.398 611.051 161.398 Q614.454 161.398 616.445 158.713 Q618.436 156.027 618.436 151.398 Q618.436 146.791 616.445 144.106 Q614.454 141.398 611.051 141.398 M611.051 137.787 Q616.607 137.787 619.778 141.398 Q622.95 145.009 622.95 151.398 Q622.95 157.764 619.778 161.398 Q616.607 165.009 611.051 165.009 Q605.473 165.009 602.302 161.398 Q599.153 157.764 599.153 151.398 Q599.153 145.009 602.302 141.398 Q605.473 137.787 611.051 137.787 Z" fill="#000000" fill-rule="nonzero" fill-opacity="1" /><path clip-path="url(#clip420)" d="M651.561 148.689 L651.561 164.338 L647.301 164.338 L647.301 148.828 Q647.301 145.148 645.866 143.319 Q644.431 141.49 641.561 141.49 Q638.112 141.49 636.121 143.69 Q634.13 145.889 634.13 149.685 L634.13 164.338 L629.848 164.338 L629.848 138.412 L634.13 138.412 L634.13 142.44 Q635.658 140.102 637.718 138.944 Q639.801 137.787 642.51 137.787 Q646.977 137.787 649.269 140.565 Q651.561 143.319 651.561 148.689 Z" fill="#000000" fill-rule="nonzero" fill-opacity="1" /><polyline clip-path="url(#clip420)" style="stroke:#e26f46; stroke-linecap:round; stroke-linejoin:round; stroke-width:4; stroke-opacity:1; fill:none" points="253.896,198.898 400.328,198.898 "/>
<path clip-path="url(#clip420)" d="M424.733 181.618 L446.585 181.618 L446.585 185.553 L429.409 185.553 L429.409 195.784 L445.867 195.784 L445.867 199.719 L429.409 199.719 L429.409 212.242 L447.001 212.242 L447.001 216.178 L424.733 216.178 L424.733 181.618 Z" fill="#000000" fill-rule="nonzero" fill-opacity="1" /><path clip-path="url(#clip420)" d="M476.052 190.252 L466.677 202.867 L476.538 216.178 L471.515 216.178 L463.969 205.992 L456.423 216.178 L451.4 216.178 L461.469 202.613 L452.256 190.252 L457.279 190.252 L464.154 199.488 L471.029 190.252 L476.052 190.252 Z" fill="#000000" fill-rule="nonzero" fill-opacity="1" /><path clip-path="url(#clip420)" d="M494.339 203.145 Q489.177 203.145 487.186 204.326 Q485.196 205.506 485.196 208.354 Q485.196 210.622 486.677 211.965 Q488.182 213.284 490.751 213.284 Q494.293 213.284 496.422 210.784 Q498.575 208.261 498.575 204.094 L498.575 203.145 L494.339 203.145 M502.834 201.386 L502.834 216.178 L498.575 216.178 L498.575 212.242 Q497.117 214.603 494.941 215.738 Q492.765 216.849 489.617 216.849 Q485.635 216.849 483.274 214.627 Q480.936 212.381 480.936 208.631 Q480.936 204.256 483.853 202.034 Q486.793 199.812 492.603 199.812 L498.575 199.812 L498.575 199.395 Q498.575 196.455 496.631 194.858 Q494.71 193.238 491.214 193.238 Q488.992 193.238 486.885 193.77 Q484.779 194.303 482.835 195.367 L482.835 191.432 Q485.173 190.53 487.372 190.09 Q489.571 189.627 491.654 189.627 Q497.279 189.627 500.057 192.543 Q502.834 195.46 502.834 201.386 Z" fill="#000000" fill-rule="nonzero" fill-opacity="1" /><path clip-path="url(#clip420)" d="M530.265 191.247 L530.265 195.229 Q528.459 194.233 526.631 193.747 Q524.825 193.238 522.973 193.238 Q518.83 193.238 516.538 195.877 Q514.246 198.492 514.246 203.238 Q514.246 207.983 516.538 210.622 Q518.83 213.238 522.973 213.238 Q524.825 213.238 526.631 212.752 Q528.459 212.242 530.265 211.247 L530.265 215.182 Q528.482 216.016 526.561 216.432 Q524.663 216.849 522.51 216.849 Q516.654 216.849 513.205 213.168 Q509.756 209.488 509.756 203.238 Q509.756 196.895 513.228 193.261 Q516.723 189.627 522.788 189.627 Q524.756 189.627 526.631 190.043 Q528.506 190.437 530.265 191.247 Z" fill="#000000" fill-rule="nonzero" fill-opacity="1" /><path clip-path="url(#clip420)" d="M541.885 182.891 L541.885 190.252 L550.658 190.252 L550.658 193.562 L541.885 193.562 L541.885 207.636 Q541.885 210.807 542.742 211.71 Q543.621 212.613 546.283 212.613 L550.658 212.613 L550.658 216.178 L546.283 216.178 Q541.353 216.178 539.478 214.349 Q537.603 212.497 537.603 207.636 L537.603 193.562 L534.478 193.562 L534.478 190.252 L537.603 190.252 L537.603 182.891 L541.885 182.891 Z" fill="#000000" fill-rule="nonzero" fill-opacity="1" /></svg>
