<?xml version="1.0" encoding="utf-8"?>
<svg xmlns="http://www.w3.org/2000/svg" xmlns:xlink="http://www.w3.org/1999/xlink" width="600" height="400" viewBox="0 0 2400 1600">
<defs>
  <clipPath id="clip450">
    <rect x="0" y="0" width="2400" height="1600"/>
  </clipPath>
</defs>
<path clip-path="url(#clip450)" d="M0 1600 L2400 1600 L2400 0 L0 0  Z" fill="#ffffff" fill-rule="evenodd" fill-opacity="1"/>
<defs>
  <clipPath id="clip451">
    <rect x="480" y="0" width="1681" height="1600"/>
  </clipPath>
</defs>
<path clip-path="url(#clip450)" d="M156.274 1486.45 L2352.76 1486.45 L2352.76 47.2441 L156.274 47.2441  Z" fill="#ffffff" fill-rule="evenodd" fill-opacity="1"/>
<defs>
  <clipPath id="clip452">
    <rect x="156" y="47" width="2197" height="1440"/>
  </clipPath>
</defs>
<polyline clip-path="url(#clip452)" style="stroke:#000000; stroke-linecap:round; stroke-linejoin:round; stroke-width:2; stroke-opacity:0.1; fill:none" points="218.439,1486.45 218.439,47.2441 "/>
<polyline clip-path="url(#clip452)" style="stroke:#000000; stroke-linecap:round; stroke-linejoin:round; stroke-width:2; stroke-opacity:0.1; fill:none" points="736.477,1486.45 736.477,47.2441 "/>
<polyline clip-path="url(#clip452)" style="stroke:#000000; stroke-linecap:round; stroke-linejoin:round; stroke-width:2; stroke-opacity:0.1; fill:none" points="1254.52,1486.45 1254.52,47.2441 "/>
<polyline clip-path="url(#clip452)" style="stroke:#000000; stroke-linecap:round; stroke-linejoin:round; stroke-width:2; stroke-opacity:0.1; fill:none" points="1772.55,1486.45 1772.55,47.2441 "/>
<polyline clip-path="url(#clip452)" style="stroke:#000000; stroke-linecap:round; stroke-linejoin:round; stroke-width:2; stroke-opacity:0.1; fill:none" points="2290.59,1486.45 2290.59,47.2441 "/>
<polyline clip-path="url(#clip450)" style="stroke:#000000; stroke-linecap:round; stroke-linejoin:round; stroke-width:4; stroke-opacity:1; fill:none" points="156.274,1486.45 2352.76,1486.45 "/>
<polyline clip-path="url(#clip450)" style="stroke:#000000; stroke-linecap:round; stroke-linejoin:round; stroke-width:4; stroke-opacity:1; fill:none" points="218.439,1486.45 218.439,1467.55 "/>
<polyline clip-path="url(#clip450)" style="stroke:#000000; stroke-linecap:round; stroke-linejoin:round; stroke-width:4; stroke-opacity:1; fill:none" points="736.477,1486.45 736.477,1467.55 "/>
<polyline clip-path="url(#clip450)" style="stroke:#000000; stroke-linecap:round; stroke-linejoin:round; stroke-width:4; stroke-opacity:1; fill:none" points="1254.52,1486.45 1254.52,1467.55 "/>
<polyline clip-path="url(#clip450)" style="stroke:#000000; stroke-linecap:round; stroke-linejoin:round; stroke-width:4; stroke-opacity:1; fill:none" points="1772.55,1486.45 1772.55,1467.55 "/>
<polyline clip-path="url(#clip450)" style="stroke:#000000; stroke-linecap:round; stroke-linejoin:round; stroke-width:4; stroke-opacity:1; fill:none" points="2290.59,1486.45 2290.59,1467.55 "/>
<path clip-path="url(#clip450)" d="M164.967 1532.02 L194.643 1532.02 L194.643 1535.95 L164.967 1535.95 L164.967 1532.02 Z" fill="#000000" fill-rule="nonzero" fill-opacity="1" /><path clip-path="url(#clip450)" d="M205.545 1544.91 L213.184 1544.91 L213.184 1518.55 L204.874 1520.21 L204.874 1515.95 L213.138 1514.29 L217.814 1514.29 L217.814 1544.91 L225.453 1544.91 L225.453 1548.85 L205.545 1548.85 L205.545 1544.91 Z" fill="#000000" fill-rule="nonzero" fill-opacity="1" /><path clip-path="url(#clip450)" d="M234.897 1542.97 L239.781 1542.97 L239.781 1548.85 L234.897 1548.85 L234.897 1542.97 Z" fill="#000000" fill-rule="nonzero" fill-opacity="1" /><path clip-path="url(#clip450)" d="M259.966 1517.37 Q256.355 1517.37 254.527 1520.93 Q252.721 1524.47 252.721 1531.6 Q252.721 1538.71 254.527 1542.27 Q256.355 1545.82 259.966 1545.82 Q263.601 1545.82 265.406 1542.27 Q267.235 1538.71 267.235 1531.6 Q267.235 1524.47 265.406 1520.93 Q263.601 1517.37 259.966 1517.37 M259.966 1513.66 Q265.776 1513.66 268.832 1518.27 Q271.911 1522.85 271.911 1531.6 Q271.911 1540.33 268.832 1544.94 Q265.776 1549.52 259.966 1549.52 Q254.156 1549.52 251.077 1544.94 Q248.022 1540.33 248.022 1531.6 Q248.022 1522.85 251.077 1518.27 Q254.156 1513.66 259.966 1513.66 Z" fill="#000000" fill-rule="nonzero" fill-opacity="1" /><path clip-path="url(#clip450)" d="M683.503 1532.02 L713.178 1532.02 L713.178 1535.95 L683.503 1535.95 L683.503 1532.02 Z" fill="#000000" fill-rule="nonzero" fill-opacity="1" /><path clip-path="url(#clip450)" d="M733.271 1517.37 Q729.66 1517.37 727.831 1520.93 Q726.026 1524.47 726.026 1531.6 Q726.026 1538.71 727.831 1542.27 Q729.66 1545.82 733.271 1545.82 Q736.905 1545.82 738.711 1542.27 Q740.539 1538.71 740.539 1531.6 Q740.539 1524.47 738.711 1520.93 Q736.905 1517.37 733.271 1517.37 M733.271 1513.66 Q739.081 1513.66 742.137 1518.27 Q745.215 1522.85 745.215 1531.6 Q745.215 1540.33 742.137 1544.94 Q739.081 1549.52 733.271 1549.52 Q727.461 1549.52 724.382 1544.94 Q721.327 1540.33 721.327 1531.6 Q721.327 1522.85 724.382 1518.27 Q727.461 1513.66 733.271 1513.66 Z" fill="#000000" fill-rule="nonzero" fill-opacity="1" /><path clip-path="url(#clip450)" d="M753.433 1542.97 L758.317 1542.97 L758.317 1548.85 L753.433 1548.85 L753.433 1542.97 Z" fill="#000000" fill-rule="nonzero" fill-opacity="1" /><path clip-path="url(#clip450)" d="M768.548 1514.29 L786.905 1514.29 L786.905 1518.22 L772.831 1518.22 L772.831 1526.7 Q773.849 1526.35 774.868 1526.19 Q775.886 1526 776.905 1526 Q782.692 1526 786.072 1529.17 Q789.451 1532.34 789.451 1537.76 Q789.451 1543.34 785.979 1546.44 Q782.507 1549.52 776.187 1549.52 Q774.011 1549.52 771.743 1549.15 Q769.498 1548.78 767.09 1548.04 L767.09 1543.34 Q769.173 1544.47 771.396 1545.03 Q773.618 1545.58 776.095 1545.58 Q780.099 1545.58 782.437 1543.48 Q784.775 1541.37 784.775 1537.76 Q784.775 1534.15 782.437 1532.04 Q780.099 1529.94 776.095 1529.94 Q774.22 1529.94 772.345 1530.35 Q770.493 1530.77 768.548 1531.65 L768.548 1514.29 Z" fill="#000000" fill-rule="nonzero" fill-opacity="1" /><path clip-path="url(#clip450)" d="M1231.9 1517.37 Q1228.29 1517.37 1226.46 1520.93 Q1224.65 1524.47 1224.65 1531.6 Q1224.65 1538.71 1226.46 1542.27 Q1228.29 1545.82 1231.9 1545.82 Q1235.53 1545.82 1237.34 1542.27 Q1239.17 1538.71 1239.17 1531.6 Q1239.17 1524.47 1237.34 1520.93 Q1235.53 1517.37 1231.9 1517.37 M1231.9 1513.66 Q1237.71 1513.66 1240.77 1518.27 Q1243.84 1522.85 1243.84 1531.6 Q1243.84 1540.33 1240.77 1544.94 Q1237.71 1549.52 1231.9 1549.52 Q1226.09 1549.52 1223.01 1544.94 Q1219.96 1540.33 1219.96 1531.6 Q1219.96 1522.85 1223.01 1518.27 Q1226.09 1513.66 1231.9 1513.66 Z" fill="#000000" fill-rule="nonzero" fill-opacity="1" /><path clip-path="url(#clip450)" d="M1252.06 1542.97 L1256.95 1542.97 L1256.95 1548.85 L1252.06 1548.85 L1252.06 1542.97 Z" fill="#000000" fill-rule="nonzero" fill-opacity="1" /><path clip-path="url(#clip450)" d="M1277.13 1517.37 Q1273.52 1517.37 1271.69 1520.93 Q1269.89 1524.47 1269.89 1531.6 Q1269.89 1538.71 1271.69 1542.27 Q1273.52 1545.82 1277.13 1545.82 Q1280.76 1545.82 1282.57 1542.27 Q1284.4 1538.71 1284.4 1531.6 Q1284.4 1524.47 1282.57 1520.93 Q1280.76 1517.37 1277.13 1517.37 M1277.13 1513.66 Q1282.94 1513.66 1286 1518.27 Q1289.08 1522.85 1289.08 1531.6 Q1289.08 1540.33 1286 1544.94 Q1282.94 1549.52 1277.13 1549.52 Q1271.32 1549.52 1268.24 1544.94 Q1265.19 1540.33 1265.19 1531.6 Q1265.19 1522.85 1268.24 1518.27 Q1271.32 1513.66 1277.13 1513.66 Z" fill="#000000" fill-rule="nonzero" fill-opacity="1" /><path clip-path="url(#clip450)" d="M1750.44 1517.37 Q1746.82 1517.37 1745 1520.93 Q1743.19 1524.47 1743.19 1531.6 Q1743.19 1538.71 1745 1542.27 Q1746.82 1545.82 1750.44 1545.82 Q1754.07 1545.82 1755.88 1542.27 Q1757.7 1538.71 1757.7 1531.6 Q1757.7 1524.47 1755.88 1520.93 Q1754.07 1517.37 1750.44 1517.37 M1750.44 1513.66 Q1756.25 1513.66 1759.3 1518.27 Q1762.38 1522.85 1762.38 1531.6 Q1762.38 1540.33 1759.3 1544.94 Q1756.25 1549.52 1750.44 1549.52 Q1744.63 1549.52 1741.55 1544.94 Q1738.49 1540.33 1738.49 1531.6 Q1738.49 1522.85 1741.55 1518.27 Q1744.63 1513.66 1750.44 1513.66 Z" fill="#000000" fill-rule="nonzero" fill-opacity="1" /><path clip-path="url(#clip450)" d="M1770.6 1542.97 L1775.48 1542.97 L1775.48 1548.85 L1770.6 1548.85 L1770.6 1542.97 Z" fill="#000000" fill-rule="nonzero" fill-opacity="1" /><path clip-path="url(#clip450)" d="M1785.71 1514.29 L1804.07 1514.29 L1804.07 1518.22 L1790 1518.22 L1790 1526.7 Q1791.01 1526.35 1792.03 1526.19 Q1793.05 1526 1794.07 1526 Q1799.86 1526 1803.24 1529.17 Q1806.62 1532.34 1806.62 1537.76 Q1806.62 1543.34 1803.14 1546.44 Q1799.67 1549.52 1793.35 1549.52 Q1791.18 1549.52 1788.91 1549.15 Q1786.66 1548.78 1784.25 1548.04 L1784.25 1543.34 Q1786.34 1544.47 1788.56 1545.03 Q1790.78 1545.58 1793.26 1545.58 Q1797.26 1545.58 1799.6 1543.48 Q1801.94 1541.37 1801.94 1537.76 Q1801.94 1534.15 1799.6 1532.04 Q1797.26 1529.94 1793.26 1529.94 Q1791.38 1529.94 1789.51 1530.35 Q1787.66 1530.77 1785.71 1531.65 L1785.71 1514.29 Z" fill="#000000" fill-rule="nonzero" fill-opacity="1" /><path clip-path="url(#clip450)" d="M2257.74 1544.91 L2265.38 1544.91 L2265.38 1518.55 L2257.07 1520.21 L2257.07 1515.95 L2265.34 1514.29 L2270.01 1514.29 L2270.01 1544.91 L2277.65 1544.91 L2277.65 1548.85 L2257.74 1548.85 L2257.74 1544.91 Z" fill="#000000" fill-rule="nonzero" fill-opacity="1" /><path clip-path="url(#clip450)" d="M2287.1 1542.97 L2291.98 1542.97 L2291.98 1548.85 L2287.1 1548.85 L2287.1 1542.97 Z" fill="#000000" fill-rule="nonzero" fill-opacity="1" /><path clip-path="url(#clip450)" d="M2312.17 1517.37 Q2308.55 1517.37 2306.73 1520.93 Q2304.92 1524.47 2304.92 1531.6 Q2304.92 1538.71 2306.73 1542.27 Q2308.55 1545.82 2312.17 1545.82 Q2315.8 1545.82 2317.61 1542.27 Q2319.43 1538.71 2319.43 1531.6 Q2319.43 1524.47 2317.61 1520.93 Q2315.8 1517.37 2312.17 1517.37 M2312.17 1513.66 Q2317.98 1513.66 2321.03 1518.27 Q2324.11 1522.85 2324.11 1531.6 Q2324.11 1540.33 2321.03 1544.94 Q2317.98 1549.52 2312.17 1549.52 Q2306.36 1549.52 2303.28 1544.94 Q2300.22 1540.33 2300.22 1531.6 Q2300.22 1522.85 2303.28 1518.27 Q2306.36 1513.66 2312.17 1513.66 Z" fill="#000000" fill-rule="nonzero" fill-opacity="1" /><polyline clip-path="url(#clip452)" style="stroke:#000000; stroke-linecap:round; stroke-linejoin:round; stroke-width:2; stroke-opacity:0.1; fill:none" points="156.274,1256.48 2352.76,1256.48 "/>
<polyline clip-path="url(#clip452)" style="stroke:#000000; stroke-linecap:round; stroke-linejoin:round; stroke-width:2; stroke-opacity:0.1; fill:none" points="156.274,988.816 2352.76,988.816 "/>
<polyline clip-path="url(#clip452)" style="stroke:#000000; stroke-linecap:round; stroke-linejoin:round; stroke-width:2; stroke-opacity:0.1; fill:none" points="156.274,721.151 2352.76,721.151 "/>
<polyline clip-path="url(#clip452)" style="stroke:#000000; stroke-linecap:round; stroke-linejoin:round; stroke-width:2; stroke-opacity:0.1; fill:none" points="156.274,453.487 2352.76,453.487 "/>
<polyline clip-path="url(#clip452)" style="stroke:#000000; stroke-linecap:round; stroke-linejoin:round; stroke-width:2; stroke-opacity:0.1; fill:none" points="156.274,185.822 2352.76,185.822 "/>
<polyline clip-path="url(#clip450)" style="stroke:#000000; stroke-linecap:round; stroke-linejoin:round; stroke-width:4; stroke-opacity:1; fill:none" points="156.274,1486.45 156.274,47.2441 "/>
<polyline clip-path="url(#clip450)" style="stroke:#000000; stroke-linecap:round; stroke-linejoin:round; stroke-width:4; stroke-opacity:1; fill:none" points="156.274,1256.48 175.172,1256.48 "/>
<polyline clip-path="url(#clip450)" style="stroke:#000000; stroke-linecap:round; stroke-linejoin:round; stroke-width:4; stroke-opacity:1; fill:none" points="156.274,988.816 175.172,988.816 "/>
<polyline clip-path="url(#clip450)" style="stroke:#000000; stroke-linecap:round; stroke-linejoin:round; stroke-width:4; stroke-opacity:1; fill:none" points="156.274,721.151 175.172,721.151 "/>
<polyline clip-path="url(#clip450)" style="stroke:#000000; stroke-linecap:round; stroke-linejoin:round; stroke-width:4; stroke-opacity:1; fill:none" points="156.274,453.487 175.172,453.487 "/>
<polyline clip-path="url(#clip450)" style="stroke:#000000; stroke-linecap:round; stroke-linejoin:round; stroke-width:4; stroke-opacity:1; fill:none" points="156.274,185.822 175.172,185.822 "/>
<path clip-path="url(#clip450)" d="M63.0985 1242.28 Q59.4875 1242.28 57.6588 1245.84 Q55.8532 1249.39 55.8532 1256.51 Q55.8532 1263.62 57.6588 1267.19 Q59.4875 1270.73 63.0985 1270.73 Q66.7328 1270.73 68.5383 1267.19 Q70.367 1263.62 70.367 1256.51 Q70.367 1249.39 68.5383 1245.84 Q66.7328 1242.28 63.0985 1242.28 M63.0985 1238.58 Q68.9087 1238.58 71.9642 1243.18 Q75.0429 1247.76 75.0429 1256.51 Q75.0429 1265.24 71.9642 1269.85 Q68.9087 1274.43 63.0985 1274.43 Q57.2884 1274.43 54.2097 1269.85 Q51.1542 1265.24 51.1542 1256.51 Q51.1542 1247.76 54.2097 1243.18 Q57.2884 1238.58 63.0985 1238.58 Z" fill="#000000" fill-rule="nonzero" fill-opacity="1" /><path clip-path="url(#clip450)" d="M83.2605 1267.88 L88.1447 1267.88 L88.1447 1273.76 L83.2605 1273.76 L83.2605 1267.88 Z" fill="#000000" fill-rule="nonzero" fill-opacity="1" /><path clip-path="url(#clip450)" d="M108.33 1242.28 Q104.719 1242.28 102.89 1245.84 Q101.084 1249.39 101.084 1256.51 Q101.084 1263.62 102.89 1267.19 Q104.719 1270.73 108.33 1270.73 Q111.964 1270.73 113.77 1267.19 Q115.598 1263.62 115.598 1256.51 Q115.598 1249.39 113.77 1245.84 Q111.964 1242.28 108.33 1242.28 M108.33 1238.58 Q114.14 1238.58 117.195 1243.18 Q120.274 1247.76 120.274 1256.51 Q120.274 1265.24 117.195 1269.85 Q114.14 1274.43 108.33 1274.43 Q102.52 1274.43 99.4409 1269.85 Q96.3854 1265.24 96.3854 1256.51 Q96.3854 1247.76 99.4409 1243.18 Q102.52 1238.58 108.33 1238.58 Z" fill="#000000" fill-rule="nonzero" fill-opacity="1" /><path clip-path="url(#clip450)" d="M63.7467 974.614 Q60.1356 974.614 58.3069 978.179 Q56.5014 981.721 56.5014 988.85 Q56.5014 995.957 58.3069 999.521 Q60.1356 1003.06 63.7467 1003.06 Q67.3809 1003.06 69.1865 999.521 Q71.0152 995.957 71.0152 988.85 Q71.0152 981.721 69.1865 978.179 Q67.3809 974.614 63.7467 974.614 M63.7467 970.911 Q69.5568 970.911 72.6124 975.517 Q75.6911 980.1 75.6911 988.85 Q75.6911 997.577 72.6124 1002.18 Q69.5568 1006.77 63.7467 1006.77 Q57.9365 1006.77 54.8578 1002.18 Q51.8023 997.577 51.8023 988.85 Q51.8023 980.1 54.8578 975.517 Q57.9365 970.911 63.7467 970.911 Z" fill="#000000" fill-rule="nonzero" fill-opacity="1" /><path clip-path="url(#clip450)" d="M83.9086 1000.22 L88.7928 1000.22 L88.7928 1006.1 L83.9086 1006.1 L83.9086 1000.22 Z" fill="#000000" fill-rule="nonzero" fill-opacity="1" /><path clip-path="url(#clip450)" d="M113.145 987.461 Q116.501 988.179 118.376 990.447 Q120.274 992.716 120.274 996.049 Q120.274 1001.16 116.756 1003.97 Q113.237 1006.77 106.756 1006.77 Q104.58 1006.77 102.265 1006.33 Q99.9733 1005.91 97.5197 1005.05 L97.5197 1000.54 Q99.4641 1001.67 101.779 1002.25 Q104.094 1002.83 106.617 1002.83 Q111.015 1002.83 113.307 1001.1 Q115.621 999.359 115.621 996.049 Q115.621 992.994 113.469 991.281 Q111.339 989.545 107.52 989.545 L103.492 989.545 L103.492 985.702 L107.705 985.702 Q111.154 985.702 112.983 984.336 Q114.811 982.947 114.811 980.355 Q114.811 977.693 112.913 976.281 Q111.038 974.846 107.52 974.846 Q105.598 974.846 103.399 975.262 Q101.2 975.679 98.5613 976.559 L98.5613 972.392 Q101.223 971.651 103.538 971.281 Q105.876 970.911 107.936 970.911 Q113.26 970.911 116.362 973.341 Q119.464 975.748 119.464 979.869 Q119.464 982.739 117.82 984.73 Q116.177 986.697 113.145 987.461 Z" fill="#000000" fill-rule="nonzero" fill-opacity="1" /><path clip-path="url(#clip450)" d="M62.9365 706.95 Q59.3254 706.95 57.4967 710.515 Q55.6912 714.056 55.6912 721.186 Q55.6912 728.292 57.4967 731.857 Q59.3254 735.399 62.9365 735.399 Q66.5707 735.399 68.3763 731.857 Q70.205 728.292 70.205 721.186 Q70.205 714.056 68.3763 710.515 Q66.5707 706.95 62.9365 706.95 M62.9365 703.246 Q68.7467 703.246 71.8022 707.852 Q74.8809 712.436 74.8809 721.186 Q74.8809 729.913 71.8022 734.519 Q68.7467 739.102 62.9365 739.102 Q57.1264 739.102 54.0477 734.519 Q50.9921 729.913 50.9921 721.186 Q50.9921 712.436 54.0477 707.852 Q57.1264 703.246 62.9365 703.246 Z" fill="#000000" fill-rule="nonzero" fill-opacity="1" /><path clip-path="url(#clip450)" d="M83.0984 732.551 L87.9827 732.551 L87.9827 738.431 L83.0984 738.431 L83.0984 732.551 Z" fill="#000000" fill-rule="nonzero" fill-opacity="1" /><path clip-path="url(#clip450)" d="M108.746 719.288 Q105.598 719.288 103.746 721.44 Q101.918 723.593 101.918 727.343 Q101.918 731.07 103.746 733.246 Q105.598 735.399 108.746 735.399 Q111.895 735.399 113.723 733.246 Q115.575 731.07 115.575 727.343 Q115.575 723.593 113.723 721.44 Q111.895 719.288 108.746 719.288 M118.029 704.635 L118.029 708.894 Q116.27 708.061 114.464 707.621 Q112.682 707.181 110.922 707.181 Q106.293 707.181 103.839 710.306 Q101.409 713.431 101.061 719.751 Q102.427 717.737 104.487 716.672 Q106.547 715.584 109.024 715.584 Q114.233 715.584 117.242 718.755 Q120.274 721.903 120.274 727.343 Q120.274 732.667 117.126 735.885 Q113.978 739.102 108.746 739.102 Q102.751 739.102 99.5798 734.519 Q96.4085 729.913 96.4085 721.186 Q96.4085 712.991 100.297 708.13 Q104.186 703.246 110.737 703.246 Q112.496 703.246 114.279 703.593 Q116.084 703.94 118.029 704.635 Z" fill="#000000" fill-rule="nonzero" fill-opacity="1" /><path clip-path="url(#clip450)" d="M63.2837 439.285 Q59.6726 439.285 57.8439 442.85 Q56.0384 446.392 56.0384 453.521 Q56.0384 460.628 57.8439 464.193 Q59.6726 467.734 63.2837 467.734 Q66.918 467.734 68.7235 464.193 Q70.5522 460.628 70.5522 453.521 Q70.5522 446.392 68.7235 442.85 Q66.918 439.285 63.2837 439.285 M63.2837 435.582 Q69.0939 435.582 72.1494 440.188 Q75.2281 444.771 75.2281 453.521 Q75.2281 462.248 72.1494 466.855 Q69.0939 471.438 63.2837 471.438 Q57.4736 471.438 54.3949 466.855 Q51.3393 462.248 51.3393 453.521 Q51.3393 444.771 54.3949 440.188 Q57.4736 435.582 63.2837 435.582 Z" fill="#000000" fill-rule="nonzero" fill-opacity="1" /><path clip-path="url(#clip450)" d="M83.4457 464.887 L88.3299 464.887 L88.3299 470.767 L83.4457 470.767 L83.4457 464.887 Z" fill="#000000" fill-rule="nonzero" fill-opacity="1" /><path clip-path="url(#clip450)" d="M98.6539 470.049 L98.6539 465.79 Q100.413 466.623 102.219 467.063 Q104.024 467.503 105.76 467.503 Q110.39 467.503 112.82 464.401 Q115.274 461.276 115.621 454.933 Q114.279 456.924 112.219 457.989 Q110.158 459.054 107.658 459.054 Q102.473 459.054 99.4409 455.929 Q96.4317 452.781 96.4317 447.341 Q96.4317 442.017 99.5798 438.799 Q102.728 435.582 107.959 435.582 Q113.955 435.582 117.103 440.188 Q120.274 444.771 120.274 453.521 Q120.274 461.693 116.385 466.577 Q112.52 471.438 105.969 471.438 Q104.209 471.438 102.404 471.091 Q100.598 470.743 98.6539 470.049 M107.959 455.396 Q111.108 455.396 112.936 453.243 Q114.788 451.091 114.788 447.341 Q114.788 443.614 112.936 441.461 Q111.108 439.285 107.959 439.285 Q104.811 439.285 102.959 441.461 Q101.131 443.614 101.131 447.341 Q101.131 451.091 102.959 453.243 Q104.811 455.396 107.959 455.396 Z" fill="#000000" fill-rule="nonzero" fill-opacity="1" /><path clip-path="url(#clip450)" d="M55.506 199.167 L63.1448 199.167 L63.1448 172.801 L54.8347 174.468 L54.8347 170.209 L63.0985 168.542 L67.7744 168.542 L67.7744 199.167 L75.4133 199.167 L75.4133 203.102 L55.506 203.102 L55.506 199.167 Z" fill="#000000" fill-rule="nonzero" fill-opacity="1" /><path clip-path="url(#clip450)" d="M84.8577 197.222 L89.7419 197.222 L89.7419 203.102 L84.8577 203.102 L84.8577 197.222 Z" fill="#000000" fill-rule="nonzero" fill-opacity="1" /><path clip-path="url(#clip450)" d="M103.955 199.167 L120.274 199.167 L120.274 203.102 L98.3298 203.102 L98.3298 199.167 Q100.992 196.412 105.575 191.783 Q110.182 187.13 111.362 185.787 Q113.608 183.264 114.487 181.528 Q115.39 179.769 115.39 178.079 Q115.39 175.324 113.445 173.588 Q111.524 171.852 108.422 171.852 Q106.223 171.852 103.77 172.616 Q101.339 173.38 98.5613 174.931 L98.5613 170.209 Q101.385 169.074 103.839 168.496 Q106.293 167.917 108.33 167.917 Q113.7 167.917 116.895 170.602 Q120.089 173.287 120.089 177.778 Q120.089 179.908 119.279 181.829 Q118.492 183.727 116.385 186.32 Q115.807 186.991 112.705 190.209 Q109.603 193.403 103.955 199.167 Z" fill="#000000" fill-rule="nonzero" fill-opacity="1" /><polyline clip-path="url(#clip452)" style="stroke:#009af9; stroke-linecap:round; stroke-linejoin:round; stroke-width:16; stroke-opacity:1; fill:none" stroke-dasharray="8, 16" points="218.439,1122.47 228.852,1114.71 239.264,1102.92 249.677,1089.59 260.09,1078.56 270.503,1074.3 280.916,1080.35 291.329,1097.36 301.741,1122.31 312.154,1150.39 322.567,1178.38 332.98,1206.19 343.393,1235.28 353.805,1266.23 364.218,1298.05 374.631,1328.99 385.044,1357.47 395.457,1382.42 405.87,1403.12 416.282,1419.04 426.695,1429.68 437.108,1434.66 447.521,1433.78 457.934,1427.08 468.347,1414.79 478.759,1397.36 489.172,1375.37 499.585,1349.56 509.998,1320.74 520.411,1289.82 530.824,1257.77 541.236,1225.61 551.649,1194.42 562.062,1165.28 572.475,1139.2 582.888,1117 593.301,1099.28 603.713,1086.45 614.126,1078.97 624.539,1077.39 634.952,1082.24 645.365,1093.5 655.777,1110.33 666.19,1131.21 676.603,1154.82 687.016,1180.59 697.429,1208.76 707.842,1239.74 718.254,1273.34 728.667,1308.44 739.08,1342.68 749.493,1372.47 759.906,1394.04 770.319,1406.02 780.731,1412.16 791.144,1419.44 801.557,1429.27 811.97,1432.96 822.383,1423.92 832.796,1407.12 843.208,1388.95 853.621,1369.19 864.034,1344.51 874.447,1314.25 884.86,1281.71 895.273,1248.96 905.685,1212 916.098,1171.18 926.511,1147.83 936.924,1133.2 947.337,1077.14 957.749,1014.61 968.162,1016.95 978.575,1073.68 988.988,1094.16 999.401,1093.38 1009.81,1093.01 1020.23,1108.53 1030.64,1179.11 1041.05,1199.11 1051.46,1158.6 1061.88,1216.4 1072.29,1229.94 1082.7,1223.48 1093.12,1262.87 1103.53,1331.15 1113.94,1397.62 1124.35,1412.65 1134.77,1404.17 1145.18,1419.79 1155.59,1442.25 1166.01,1443.68 1176.42,1426.59 1186.83,1414.83 1197.24,1423.04 1207.66,1443.57 1218.07,1445.72 1228.48,1383.42 1238.9,1221.15 1249.31,965.548 1259.72,676.752 1270.13,442.058 1280.55,318.751 1290.96,297.724 1301.37,327.901 1311.79,364.293 1322.2,388.694 1332.61,399.578 1343.02,395.342 1353.44,370.4 1363.85,331.178 1374.26,310.049 1384.68,313.354 1395.09,318.501 1405.5,391.764 1415.91,539.677 1426.33,600.037 1436.74,527.986 1447.15,370.66 1457.57,269.86 1467.98,308.141 1478.39,344.323 1488.8,298.105 1499.22,224.312 1509.63,224.676 1520.04,319.551 1530.45,378.216 1540.87,341.137 1551.28,418.663 1561.69,524.716 1572.11,411.965 1582.52,215.205 1592.93,139.647 1603.34,185.637 1613.76,270.323 1624.17,341.857 1634.58,386.128 1645,407.962 1655.41,415.506 1665.82,414.958 1676.23,411.239 1686.65,408.831 1697.06,410.542 1707.47,410.224 1717.89,389.807 1728.3,334.24 1738.71,255.816 1749.12,210.833 1759.54,252.374 1769.95,354.017 1780.36,448.488 1790.78,498.285 1801.19,499.69 1811.6,462.749 1822.01,400.761 1832.43,328.496 1842.84,262.661 1853.25,220.96 1863.67,217.939 1874.08,258.398 1884.49,332.879 1894.9,420.192 1905.32,495.925 1915.73,540.146 1926.14,539.971 1936.56,488.951 1946.97,388.059 1957.38,253.499 1967.79,130.605 1978.21,87.9763 1988.62,161.41 1999.03,307.836 2009.45,449.828 2019.86,540.846 2030.27,572.671 2040.68,553.917 2051.1,496.215 2061.51,411.472 2071.92,314.211 2082.33,224.34 2092.75,166.088 2103.16,160.27 2113.57,212.914 2123.99,309.838 2134.4,423.08 2144.81,523.022 2155.22,584.653 2165.64,585.804 2176.05,512.402 2186.46,380.601 2196.88,245.603 2207.29,166.63 2217.7,162.902 2228.11,212.706 2238.53,284.584 2248.94,358.272 2259.35,425.716 2269.77,485.442 2280.18,538.436 2290.59,586.247 "/>
<polyline clip-path="url(#clip452)" style="stroke:#e26f46; stroke-linecap:round; stroke-linejoin:round; stroke-width:4; stroke-opacity:1; fill:none" points="218.439,1122.47 228.852,1103.46 239.264,1089.44 249.677,1080.87 260.09,1078.04 270.503,1081.03 280.916,1089.74 291.329,1103.9 301.741,1123.03 312.154,1146.53 322.567,1173.61 332.98,1203.39 343.393,1234.91 353.805,1267.13 364.218,1299 374.631,1329.49 385.044,1357.59 395.457,1382.4 405.87,1403.09 416.282,1419 426.695,1429.61 437.108,1434.56 447.521,1433.7 457.934,1427.06 468.347,1414.85 478.759,1397.47 489.172,1375.49 499.585,1349.63 509.998,1320.73 520.411,1289.72 530.824,1257.64 541.236,1225.52 551.649,1194.4 562.062,1165.32 572.475,1139.2 582.888,1116.92 593.301,1099.19 603.713,1086.59 614.126,1079.54 624.539,1078.27 634.952,1082.81 645.365,1093.02 655.777,1108.56 666.19,1128.93 676.603,1153.46 687.016,1181.36 697.429,1211.71 707.842,1243.52 718.254,1275.75 728.667,1307.35 739.08,1337.3 749.493,1364.6 759.906,1388.38 770.319,1407.85 780.731,1422.38 791.144,1431.5 801.557,1434.9 811.97,1432.48 822.383,1424.32 832.796,1410.68 843.208,1392.01 853.621,1368.91 864.034,1342.15 874.447,1312.58 884.86,1281.19 895.273,1248.99 905.685,1217.04 916.098,1186.37 926.511,1157.99 936.924,1132.82 947.337,1111.7 957.749,1095.29 968.162,1084.15 978.575,1078.63 988.988,1078.92 999.401,1085 1009.81,1096.68 1020.23,1113.57 1030.64,1135.13 1041.05,1160.65 1051.46,1189.29 1061.88,1220.13 1072.29,1252.16 1082.7,1284.32 1093.12,1315.58 1103.53,1344.91 1113.94,1371.35 1124.35,1394.05 1134.77,1412.25 1145.18,1425.37 1155.59,1432.98 1166.01,1434.83 1176.42,1430.85 1186.83,1421.19 1197.24,1406.15 1207.66,1386.22 1218.07,1362.06 1228.48,1334.46 1238.9,1304.31 1249.31,1272.6 1259.72,362.969 1270.13,361.495 1280.55,362.837 1290.96,367.304 1301.37,373.529 1311.79,378.879 1322.2,380.464 1332.61,376.347 1343.02,366.532 1353.44,353.301 1363.85,340.711 1374.26,333.356 1384.68,334.767 1395.09,345.989 1405.5,364.864 1415.91,386.346 1426.33,403.839 1436.74,411.217 1447.15,404.901 1457.57,385.303 1467.98,357.113 1478.39,328.224 1488.8,307.519 1499.22,302.155 1509.63,315.157 1520.04,344.126 1530.45,381.539 1540.87,416.683 1551.28,438.724 1561.69,440.029 1572.11,418.735 1582.52,379.709 1592.93,333.513 1603.34,293.553 1613.76,272.192 1624.17,276.941 1634.58,307.911 1645,357.351 1655.41,411.55 1665.82,454.633 1676.23,473.207 1686.65,460.505 1697.06,418.738 1707.47,358.873 1717.89,297.782 1728.3,253.486 1738.71,239.844 1749.12,262.245 1759.54,315.637 1769.95,385.583 1780.36,452.145 1790.78,495.571 1801.19,502.149 1811.6,468.5 1822.01,402.981 1832.43,323.655 1842.84,253.326 1853.25,212.979 1863.67,215.53 1874.08,261.732 1884.49,339.533 1894.9,427.188 1905.32,499.331 1915.73,534.312 1926.14,520.69 1936.56,460.913 1946.97,371.037 1957.38,276.439 1967.79,204.647 1978.21,177.339 1988.62,203.803 1999.03,277.862 2009.45,379.234 2019.86,479.074 2030.27,548.183 2040.68,565.542 2051.1,524.686 2061.51,435.988 2071.92,324.069 2082.33,220.974 2092.75,156.995 2103.16,151.776 2113.57,208.307 2123.99,311.633 2134.4,432.786 2144.81,536.898 2155.22,593.234 2165.64,584.264 2176.05,511.083 2186.46,393.523 2196.88,264.796 2207.29,162.119 2217.7,115.948 2228.11,140.96 2238.53,231.424 2248.94,362.433 2259.35,496.746 2269.77,595.378 2280.18,628.905 2290.59,586.242 "/>
<path clip-path="url(#clip450)" d="M229.49 250.738 L675.966 250.738 L675.966 95.2176 L229.49 95.2176  Z" fill="#ffffff" fill-rule="evenodd" fill-opacity="1"/>
<polyline clip-path="url(#clip450)" style="stroke:#000000; stroke-linecap:round; stroke-linejoin:round; stroke-width:4; stroke-opacity:1; fill:none" points="229.49,250.738 675.966,250.738 675.966,95.2176 229.49,95.2176 229.49,250.738 "/>
<polyline clip-path="url(#clip450)" style="stroke:#009af9; stroke-linecap:round; stroke-linejoin:round; stroke-width:16; stroke-opacity:1; fill:none" stroke-dasharray="8, 16" points="253.896,147.058 400.328,147.058 "/>
<path clip-path="url(#clip450)" d="M429.409 133.62 L429.409 146.606 L435.289 146.606 Q438.552 146.606 440.335 144.916 Q442.117 143.227 442.117 140.102 Q442.117 137 440.335 135.31 Q438.552 133.62 435.289 133.62 L429.409 133.62 M424.733 129.778 L435.289 129.778 Q441.099 129.778 444.062 132.416 Q447.048 135.032 447.048 140.102 Q447.048 145.217 444.062 147.833 Q441.099 150.449 435.289 150.449 L429.409 150.449 L429.409 164.338 L424.733 164.338 L424.733 129.778 Z" fill="#000000" fill-rule="nonzero" fill-opacity="1" /><path clip-path="url(#clip450)" d="M467.325 142.393 Q466.608 141.977 465.751 141.791 Q464.918 141.583 463.899 141.583 Q460.288 141.583 458.344 143.944 Q456.423 146.282 456.423 150.68 L456.423 164.338 L452.14 164.338 L452.14 138.412 L456.423 138.412 L456.423 142.44 Q457.765 140.078 459.918 138.944 Q462.071 137.787 465.149 137.787 Q465.589 137.787 466.122 137.856 Q466.654 137.903 467.302 138.018 L467.325 142.393 Z" fill="#000000" fill-rule="nonzero" fill-opacity="1" /><path clip-path="url(#clip450)" d="M492.927 150.31 L492.927 152.393 L473.344 152.393 Q473.622 156.791 475.983 159.106 Q478.367 161.398 482.603 161.398 Q485.057 161.398 487.348 160.796 Q489.663 160.194 491.932 158.99 L491.932 163.018 Q489.64 163.99 487.233 164.5 Q484.825 165.009 482.348 165.009 Q476.145 165.009 472.511 161.398 Q468.899 157.787 468.899 151.629 Q468.899 145.264 472.325 141.537 Q475.774 137.787 481.608 137.787 Q486.839 137.787 489.872 141.166 Q492.927 144.523 492.927 150.31 M488.668 149.06 Q488.622 145.565 486.7 143.481 Q484.802 141.398 481.654 141.398 Q478.089 141.398 475.936 143.412 Q473.807 145.426 473.483 149.083 L488.668 149.06 Z" fill="#000000" fill-rule="nonzero" fill-opacity="1" /><path clip-path="url(#clip450)" d="M516.978 142.347 L516.978 128.319 L521.237 128.319 L521.237 164.338 L516.978 164.338 L516.978 160.449 Q515.635 162.763 513.575 163.898 Q511.538 165.009 508.668 165.009 Q503.969 165.009 501.006 161.259 Q498.066 157.509 498.066 151.398 Q498.066 145.287 501.006 141.537 Q503.969 137.787 508.668 137.787 Q511.538 137.787 513.575 138.921 Q515.635 140.032 516.978 142.347 M502.464 151.398 Q502.464 156.097 504.385 158.782 Q506.33 161.444 509.709 161.444 Q513.089 161.444 515.033 158.782 Q516.978 156.097 516.978 151.398 Q516.978 146.699 515.033 144.037 Q513.089 141.352 509.709 141.352 Q506.33 141.352 504.385 144.037 Q502.464 146.699 502.464 151.398 Z" fill="#000000" fill-rule="nonzero" fill-opacity="1" /><path clip-path="url(#clip450)" d="M530.01 138.412 L534.269 138.412 L534.269 164.338 L530.01 164.338 L530.01 138.412 M530.01 128.319 L534.269 128.319 L534.269 133.713 L530.01 133.713 L530.01 128.319 Z" fill="#000000" fill-rule="nonzero" fill-opacity="1" /><path clip-path="url(#clip450)" d="M561.839 139.407 L561.839 143.389 Q560.033 142.393 558.205 141.907 Q556.399 141.398 554.547 141.398 Q550.404 141.398 548.112 144.037 Q545.82 146.652 545.82 151.398 Q545.82 156.143 548.112 158.782 Q550.404 161.398 554.547 161.398 Q556.399 161.398 558.205 160.912 Q560.033 160.402 561.839 159.407 L561.839 163.342 Q560.056 164.176 558.135 164.592 Q556.237 165.009 554.084 165.009 Q548.228 165.009 544.779 161.328 Q541.33 157.648 541.33 151.398 Q541.33 145.055 544.802 141.421 Q548.297 137.787 554.362 137.787 Q556.33 137.787 558.205 138.203 Q560.08 138.597 561.839 139.407 Z" fill="#000000" fill-rule="nonzero" fill-opacity="1" /><path clip-path="url(#clip450)" d="M573.459 131.051 L573.459 138.412 L582.232 138.412 L582.232 141.722 L573.459 141.722 L573.459 155.796 Q573.459 158.967 574.316 159.87 Q575.195 160.773 577.857 160.773 L582.232 160.773 L582.232 164.338 L577.857 164.338 Q572.927 164.338 571.052 162.509 Q569.177 160.657 569.177 155.796 L569.177 141.722 L566.052 141.722 L566.052 138.412 L569.177 138.412 L569.177 131.051 L573.459 131.051 Z" fill="#000000" fill-rule="nonzero" fill-opacity="1" /><path clip-path="url(#clip450)" d="M587.834 138.412 L592.093 138.412 L592.093 164.338 L587.834 164.338 L587.834 138.412 M587.834 128.319 L592.093 128.319 L592.093 133.713 L587.834 133.713 L587.834 128.319 Z" fill="#000000" fill-rule="nonzero" fill-opacity="1" /><path clip-path="url(#clip450)" d="M611.051 141.398 Q607.626 141.398 605.635 144.083 Q603.644 146.745 603.644 151.398 Q603.644 156.051 605.612 158.736 Q607.602 161.398 611.051 161.398 Q614.454 161.398 616.445 158.713 Q618.436 156.027 618.436 151.398 Q618.436 146.791 616.445 144.106 Q614.454 141.398 611.051 141.398 M611.051 137.787 Q616.607 137.787 619.778 141.398 Q622.95 145.009 622.95 151.398 Q622.95 157.764 619.778 161.398 Q616.607 165.009 611.051 165.009 Q605.473 165.009 602.302 161.398 Q599.153 157.764 599.153 151.398 Q599.153 145.009 602.302 141.398 Q605.473 137.787 611.051 137.787 Z" fill="#000000" fill-rule="nonzero" fill-opacity="1" /><path clip-path="url(#clip450)" d="M651.561 148.689 L651.561 164.338 L647.301 164.338 L647.301 148.828 Q647.301 145.148 645.866 143.319 Q644.431 141.49 641.561 141.49 Q638.112 141.49 636.121 143.69 Q634.13 145.889 634.13 149.685 L634.13 164.338 L629.848 164.338 L629.848 138.412 L634.13 138.412 L634.13 142.44 Q635.658 140.102 637.718 138.944 Q639.801 137.787 642.51 137.787 Q646.977 137.787 649.269 140.565 Q651.561 143.319 651.561 148.689 Z" fill="#000000" fill-rule="nonzero" fill-opacity="1" /><polyline clip-path="url(#clip450)" style="stroke:#e26f46; stroke-linecap:round; stroke-linejoin:round; stroke-width:4; stroke-opacity:1; fill:none" points="253.896,198.898 400.328,198.898 "/>
<path clip-path="url(#clip450)" d="M424.733 181.618 L446.585 181.618 L446.585 185.553 L429.409 185.553 L429.409 195.784 L445.867 195.784 L445.867 199.719 L429.409 199.719 L429.409 212.242 L447.001 212.242 L447.001 216.178 L424.733 216.178 L424.733 181.618 Z" fill="#000000" fill-rule="nonzero" fill-opacity="1" /><path clip-path="url(#clip450)" d="M476.052 190.252 L466.677 202.867 L476.538 216.178 L471.515 216.178 L463.969 205.992 L456.423 216.178 L451.4 216.178 L461.469 202.613 L452.256 190.252 L457.279 190.252 L464.154 199.488 L471.029 190.252 L476.052 190.252 Z" fill="#000000" fill-rule="nonzero" fill-opacity="1" /><path clip-path="url(#clip450)" d="M494.339 203.145 Q489.177 203.145 487.186 204.326 Q485.196 205.506 485.196 208.354 Q485.196 210.622 486.677 211.965 Q488.182 213.284 490.751 213.284 Q494.293 213.284 496.422 210.784 Q498.575 208.261 498.575 204.094 L498.575 203.145 L494.339 203.145 M502.834 201.386 L502.834 216.178 L498.575 216.178 L498.575 212.242 Q497.117 214.603 494.941 215.738 Q492.765 216.849 489.617 216.849 Q485.635 216.849 483.274 214.627 Q480.936 212.381 480.936 208.631 Q480.936 204.256 483.853 202.034 Q486.793 199.812 492.603 199.812 L498.575 199.812 L498.575 199.395 Q498.575 196.455 496.631 194.858 Q494.71 193.238 491.214 193.238 Q488.992 193.238 486.885 193.77 Q484.779 194.303 482.835 195.367 L482.835 191.432 Q485.173 190.53 487.372 190.09 Q489.571 189.627 491.654 189.627 Q497.279 189.627 500.057 192.543 Q502.834 195.46 502.834 201.386 Z" fill="#000000" fill-rule="nonzero" fill-opacity="1" /><path clip-path="url(#clip450)" d="M530.265 191.247 L530.265 195.229 Q528.459 194.233 526.631 193.747 Q524.825 193.238 522.973 193.238 Q518.83 193.238 516.538 195.877 Q514.246 198.492 514.246 203.238 Q514.246 207.983 516.538 210.622 Q518.83 213.238 522.973 213.238 Q524.825 213.238 526.631 212.752 Q528.459 212.242 530.265 211.247 L530.265 215.182 Q528.482 216.016 526.561 216.432 Q524.663 216.849 522.51 216.849 Q516.654 216.849 513.205 213.168 Q509.756 209.488 509.756 203.238 Q509.756 196.895 513.228 193.261 Q516.723 189.627 522.788 189.627 Q524.756 189.627 526.631 190.043 Q528.506 190.437 530.265 191.247 Z" fill="#000000" fill-rule="nonzero" fill-opacity="1" /><path clip-path="url(#clip450)" d="M541.885 182.891 L541.885 190.252 L550.658 190.252 L550.658 193.562 L541.885 193.562 L541.885 207.636 Q541.885 210.807 542.742 211.71 Q543.621 212.613 546.283 212.613 L550.658 212.613 L550.658 216.178 L546.283 216.178 Q541.353 216.178 539.478 214.349 Q537.603 212.497 537.603 207.636 L537.603 193.562 L534.478 193.562 L534.478 190.252 L537.603 190.252 L537.603 182.891 L541.885 182.891 Z" fill="#000000" fill-rule="nonzero" fill-opacity="1" /></svg>
