<?xml version="1.0" encoding="utf-8"?>
<svg xmlns="http://www.w3.org/2000/svg" xmlns:xlink="http://www.w3.org/1999/xlink" width="600" height="400" viewBox="0 0 2400 1600">
<defs>
  <clipPath id="clip840">
    <rect x="0" y="0" width="2400" height="1600"/>
  </clipPath>
</defs>
<path clip-path="url(#clip840)" d="M0 1600 L2400 1600 L2400 0 L0 0  Z" fill="#ffffff" fill-rule="evenodd" fill-opacity="1"/>
<defs>
  <clipPath id="clip841">
    <rect x="480" y="0" width="1681" height="1600"/>
  </clipPath>
</defs>
<path clip-path="url(#clip840)" d="M223.103 1486.45 L2352.76 1486.45 L2352.76 47.2441 L223.103 47.2441  Z" fill="#ffffff" fill-rule="evenodd" fill-opacity="1"/>
<defs>
  <clipPath id="clip842">
    <rect x="223" y="47" width="2131" height="1440"/>
  </clipPath>
</defs>
<polyline clip-path="url(#clip842)" style="stroke:#000000; stroke-linecap:round; stroke-linejoin:round; stroke-width:2; stroke-opacity:0.1; fill:none" points="283.376,1486.45 283.376,47.2441 "/>
<polyline clip-path="url(#clip842)" style="stroke:#000000; stroke-linecap:round; stroke-linejoin:round; stroke-width:2; stroke-opacity:0.1; fill:none" points="785.652,1486.45 785.652,47.2441 "/>
<polyline clip-path="url(#clip842)" style="stroke:#000000; stroke-linecap:round; stroke-linejoin:round; stroke-width:2; stroke-opacity:0.1; fill:none" points="1287.93,1486.45 1287.93,47.2441 "/>
<polyline clip-path="url(#clip842)" style="stroke:#000000; stroke-linecap:round; stroke-linejoin:round; stroke-width:2; stroke-opacity:0.1; fill:none" points="1790.21,1486.45 1790.21,47.2441 "/>
<polyline clip-path="url(#clip842)" style="stroke:#000000; stroke-linecap:round; stroke-linejoin:round; stroke-width:2; stroke-opacity:0.1; fill:none" points="2292.48,1486.45 2292.48,47.2441 "/>
<polyline clip-path="url(#clip840)" style="stroke:#000000; stroke-linecap:round; stroke-linejoin:round; stroke-width:4; stroke-opacity:1; fill:none" points="223.103,1486.45 2352.76,1486.45 "/>
<polyline clip-path="url(#clip840)" style="stroke:#000000; stroke-linecap:round; stroke-linejoin:round; stroke-width:4; stroke-opacity:1; fill:none" points="283.376,1486.45 283.376,1467.55 "/>
<polyline clip-path="url(#clip840)" style="stroke:#000000; stroke-linecap:round; stroke-linejoin:round; stroke-width:4; stroke-opacity:1; fill:none" points="785.652,1486.45 785.652,1467.55 "/>
<polyline clip-path="url(#clip840)" style="stroke:#000000; stroke-linecap:round; stroke-linejoin:round; stroke-width:4; stroke-opacity:1; fill:none" points="1287.93,1486.45 1287.93,1467.55 "/>
<polyline clip-path="url(#clip840)" style="stroke:#000000; stroke-linecap:round; stroke-linejoin:round; stroke-width:4; stroke-opacity:1; fill:none" points="1790.21,1486.45 1790.21,1467.55 "/>
<polyline clip-path="url(#clip840)" style="stroke:#000000; stroke-linecap:round; stroke-linejoin:round; stroke-width:4; stroke-opacity:1; fill:none" points="2292.48,1486.45 2292.48,1467.55 "/>
<path clip-path="url(#clip840)" d="M229.904 1532.02 L259.58 1532.02 L259.58 1535.95 L229.904 1535.95 L229.904 1532.02 Z" fill="#000000" fill-rule="nonzero" fill-opacity="1" /><path clip-path="url(#clip840)" d="M270.482 1544.91 L278.121 1544.91 L278.121 1518.55 L269.811 1520.21 L269.811 1515.95 L278.075 1514.29 L282.751 1514.29 L282.751 1544.91 L290.39 1544.91 L290.39 1548.85 L270.482 1548.85 L270.482 1544.91 Z" fill="#000000" fill-rule="nonzero" fill-opacity="1" /><path clip-path="url(#clip840)" d="M299.834 1542.97 L304.718 1542.97 L304.718 1548.85 L299.834 1548.85 L299.834 1542.97 Z" fill="#000000" fill-rule="nonzero" fill-opacity="1" /><path clip-path="url(#clip840)" d="M324.903 1517.37 Q321.292 1517.37 319.463 1520.93 Q317.658 1524.47 317.658 1531.6 Q317.658 1538.71 319.463 1542.27 Q321.292 1545.82 324.903 1545.82 Q328.538 1545.82 330.343 1542.27 Q332.172 1538.71 332.172 1531.6 Q332.172 1524.47 330.343 1520.93 Q328.538 1517.37 324.903 1517.37 M324.903 1513.66 Q330.713 1513.66 333.769 1518.27 Q336.848 1522.85 336.848 1531.6 Q336.848 1540.33 333.769 1544.94 Q330.713 1549.52 324.903 1549.52 Q319.093 1549.52 316.014 1544.94 Q312.959 1540.33 312.959 1531.6 Q312.959 1522.85 316.014 1518.27 Q319.093 1513.66 324.903 1513.66 Z" fill="#000000" fill-rule="nonzero" fill-opacity="1" /><path clip-path="url(#clip840)" d="M732.678 1532.02 L762.354 1532.02 L762.354 1535.95 L732.678 1535.95 L732.678 1532.02 Z" fill="#000000" fill-rule="nonzero" fill-opacity="1" /><path clip-path="url(#clip840)" d="M782.446 1517.37 Q778.835 1517.37 777.007 1520.93 Q775.201 1524.47 775.201 1531.6 Q775.201 1538.71 777.007 1542.27 Q778.835 1545.82 782.446 1545.82 Q786.081 1545.82 787.886 1542.27 Q789.715 1538.71 789.715 1531.6 Q789.715 1524.47 787.886 1520.93 Q786.081 1517.37 782.446 1517.37 M782.446 1513.66 Q788.257 1513.66 791.312 1518.27 Q794.391 1522.85 794.391 1531.6 Q794.391 1540.33 791.312 1544.94 Q788.257 1549.52 782.446 1549.52 Q776.636 1549.52 773.558 1544.94 Q770.502 1540.33 770.502 1531.6 Q770.502 1522.85 773.558 1518.27 Q776.636 1513.66 782.446 1513.66 Z" fill="#000000" fill-rule="nonzero" fill-opacity="1" /><path clip-path="url(#clip840)" d="M802.608 1542.97 L807.493 1542.97 L807.493 1548.85 L802.608 1548.85 L802.608 1542.97 Z" fill="#000000" fill-rule="nonzero" fill-opacity="1" /><path clip-path="url(#clip840)" d="M817.724 1514.29 L836.08 1514.29 L836.08 1518.22 L822.006 1518.22 L822.006 1526.7 Q823.025 1526.35 824.043 1526.19 Q825.062 1526 826.08 1526 Q831.867 1526 835.247 1529.17 Q838.627 1532.34 838.627 1537.76 Q838.627 1543.34 835.155 1546.44 Q831.682 1549.52 825.363 1549.52 Q823.187 1549.52 820.918 1549.15 Q818.673 1548.78 816.266 1548.04 L816.266 1543.34 Q818.349 1544.47 820.571 1545.03 Q822.793 1545.58 825.27 1545.58 Q829.275 1545.58 831.613 1543.48 Q833.951 1541.37 833.951 1537.76 Q833.951 1534.15 831.613 1532.04 Q829.275 1529.94 825.27 1529.94 Q823.395 1529.94 821.52 1530.35 Q819.668 1530.77 817.724 1531.65 L817.724 1514.29 Z" fill="#000000" fill-rule="nonzero" fill-opacity="1" /><path clip-path="url(#clip840)" d="M1265.31 1517.37 Q1261.7 1517.37 1259.87 1520.93 Q1258.07 1524.47 1258.07 1531.6 Q1258.07 1538.71 1259.87 1542.27 Q1261.7 1545.82 1265.31 1545.82 Q1268.95 1545.82 1270.75 1542.27 Q1272.58 1538.71 1272.58 1531.6 Q1272.58 1524.47 1270.75 1520.93 Q1268.95 1517.37 1265.31 1517.37 M1265.31 1513.66 Q1271.12 1513.66 1274.18 1518.27 Q1277.26 1522.85 1277.26 1531.6 Q1277.26 1540.33 1274.18 1544.94 Q1271.12 1549.52 1265.31 1549.52 Q1259.5 1549.52 1256.42 1544.94 Q1253.37 1540.33 1253.37 1531.6 Q1253.37 1522.85 1256.42 1518.27 Q1259.5 1513.66 1265.31 1513.66 Z" fill="#000000" fill-rule="nonzero" fill-opacity="1" /><path clip-path="url(#clip840)" d="M1285.48 1542.97 L1290.36 1542.97 L1290.36 1548.85 L1285.48 1548.85 L1285.48 1542.97 Z" fill="#000000" fill-rule="nonzero" fill-opacity="1" /><path clip-path="url(#clip840)" d="M1310.54 1517.37 Q1306.93 1517.37 1305.11 1520.93 Q1303.3 1524.47 1303.3 1531.6 Q1303.3 1538.71 1305.11 1542.27 Q1306.93 1545.82 1310.54 1545.82 Q1314.18 1545.82 1315.98 1542.27 Q1317.81 1538.71 1317.81 1531.6 Q1317.81 1524.47 1315.98 1520.93 Q1314.18 1517.37 1310.54 1517.37 M1310.54 1513.66 Q1316.35 1513.66 1319.41 1518.27 Q1322.49 1522.85 1322.49 1531.6 Q1322.49 1540.33 1319.41 1544.94 Q1316.35 1549.52 1310.54 1549.52 Q1304.73 1549.52 1301.66 1544.94 Q1298.6 1540.33 1298.6 1531.6 Q1298.6 1522.85 1301.66 1518.27 Q1304.73 1513.66 1310.54 1513.66 Z" fill="#000000" fill-rule="nonzero" fill-opacity="1" /><path clip-path="url(#clip840)" d="M1768.09 1517.37 Q1764.48 1517.37 1762.65 1520.93 Q1760.84 1524.47 1760.84 1531.6 Q1760.84 1538.71 1762.65 1542.27 Q1764.48 1545.82 1768.09 1545.82 Q1771.72 1545.82 1773.53 1542.27 Q1775.36 1538.71 1775.36 1531.6 Q1775.36 1524.47 1773.53 1520.93 Q1771.72 1517.37 1768.09 1517.37 M1768.09 1513.66 Q1773.9 1513.66 1776.95 1518.27 Q1780.03 1522.85 1780.03 1531.6 Q1780.03 1540.33 1776.95 1544.94 Q1773.9 1549.52 1768.09 1549.52 Q1762.28 1549.52 1759.2 1544.94 Q1756.14 1540.33 1756.14 1531.6 Q1756.14 1522.85 1759.2 1518.27 Q1762.28 1513.66 1768.09 1513.66 Z" fill="#000000" fill-rule="nonzero" fill-opacity="1" /><path clip-path="url(#clip840)" d="M1788.25 1542.97 L1793.13 1542.97 L1793.13 1548.85 L1788.25 1548.85 L1788.25 1542.97 Z" fill="#000000" fill-rule="nonzero" fill-opacity="1" /><path clip-path="url(#clip840)" d="M1803.37 1514.29 L1821.72 1514.29 L1821.72 1518.22 L1807.65 1518.22 L1807.65 1526.7 Q1808.67 1526.35 1809.69 1526.19 Q1810.7 1526 1811.72 1526 Q1817.51 1526 1820.89 1529.17 Q1824.27 1532.34 1824.27 1537.76 Q1824.27 1543.34 1820.8 1546.44 Q1817.32 1549.52 1811 1549.52 Q1808.83 1549.52 1806.56 1549.15 Q1804.31 1548.78 1801.91 1548.04 L1801.91 1543.34 Q1803.99 1544.47 1806.21 1545.03 Q1808.44 1545.58 1810.91 1545.58 Q1814.92 1545.58 1817.25 1543.48 Q1819.59 1541.37 1819.59 1537.76 Q1819.59 1534.15 1817.25 1532.04 Q1814.92 1529.94 1810.91 1529.94 Q1809.04 1529.94 1807.16 1530.35 Q1805.31 1530.77 1803.37 1531.65 L1803.37 1514.29 Z" fill="#000000" fill-rule="nonzero" fill-opacity="1" /><path clip-path="url(#clip840)" d="M2259.64 1544.91 L2267.27 1544.91 L2267.27 1518.55 L2258.96 1520.21 L2258.96 1515.95 L2267.23 1514.29 L2271.9 1514.29 L2271.9 1544.91 L2279.54 1544.91 L2279.54 1548.85 L2259.64 1548.85 L2259.64 1544.91 Z" fill="#000000" fill-rule="nonzero" fill-opacity="1" /><path clip-path="url(#clip840)" d="M2288.99 1542.97 L2293.87 1542.97 L2293.87 1548.85 L2288.99 1548.85 L2288.99 1542.97 Z" fill="#000000" fill-rule="nonzero" fill-opacity="1" /><path clip-path="url(#clip840)" d="M2314.06 1517.37 Q2310.45 1517.37 2308.62 1520.93 Q2306.81 1524.47 2306.81 1531.6 Q2306.81 1538.71 2308.62 1542.27 Q2310.45 1545.82 2314.06 1545.82 Q2317.69 1545.82 2319.5 1542.27 Q2321.33 1538.71 2321.33 1531.6 Q2321.33 1524.47 2319.5 1520.93 Q2317.69 1517.37 2314.06 1517.37 M2314.06 1513.66 Q2319.87 1513.66 2322.92 1518.27 Q2326 1522.85 2326 1531.6 Q2326 1540.33 2322.92 1544.94 Q2319.87 1549.52 2314.06 1549.52 Q2308.25 1549.52 2305.17 1544.94 Q2302.11 1540.33 2302.11 1531.6 Q2302.11 1522.85 2305.17 1518.27 Q2308.25 1513.66 2314.06 1513.66 Z" fill="#000000" fill-rule="nonzero" fill-opacity="1" /><polyline clip-path="url(#clip842)" style="stroke:#000000; stroke-linecap:round; stroke-linejoin:round; stroke-width:2; stroke-opacity:0.1; fill:none" points="223.103,1408.58 2352.76,1408.58 "/>
<polyline clip-path="url(#clip842)" style="stroke:#000000; stroke-linecap:round; stroke-linejoin:round; stroke-width:2; stroke-opacity:0.1; fill:none" points="223.103,1209.56 2352.76,1209.56 "/>
<polyline clip-path="url(#clip842)" style="stroke:#000000; stroke-linecap:round; stroke-linejoin:round; stroke-width:2; stroke-opacity:0.1; fill:none" points="223.103,1010.54 2352.76,1010.54 "/>
<polyline clip-path="url(#clip842)" style="stroke:#000000; stroke-linecap:round; stroke-linejoin:round; stroke-width:2; stroke-opacity:0.1; fill:none" points="223.103,811.521 2352.76,811.521 "/>
<polyline clip-path="url(#clip842)" style="stroke:#000000; stroke-linecap:round; stroke-linejoin:round; stroke-width:2; stroke-opacity:0.1; fill:none" points="223.103,612.5 2352.76,612.5 "/>
<polyline clip-path="url(#clip842)" style="stroke:#000000; stroke-linecap:round; stroke-linejoin:round; stroke-width:2; stroke-opacity:0.1; fill:none" points="223.103,413.48 2352.76,413.48 "/>
<polyline clip-path="url(#clip842)" style="stroke:#000000; stroke-linecap:round; stroke-linejoin:round; stroke-width:2; stroke-opacity:0.1; fill:none" points="223.103,214.46 2352.76,214.46 "/>
<polyline clip-path="url(#clip840)" style="stroke:#000000; stroke-linecap:round; stroke-linejoin:round; stroke-width:4; stroke-opacity:1; fill:none" points="223.103,1486.45 223.103,47.2441 "/>
<polyline clip-path="url(#clip840)" style="stroke:#000000; stroke-linecap:round; stroke-linejoin:round; stroke-width:4; stroke-opacity:1; fill:none" points="223.103,1408.58 242,1408.58 "/>
<polyline clip-path="url(#clip840)" style="stroke:#000000; stroke-linecap:round; stroke-linejoin:round; stroke-width:4; stroke-opacity:1; fill:none" points="223.103,1209.56 242,1209.56 "/>
<polyline clip-path="url(#clip840)" style="stroke:#000000; stroke-linecap:round; stroke-linejoin:round; stroke-width:4; stroke-opacity:1; fill:none" points="223.103,1010.54 242,1010.54 "/>
<polyline clip-path="url(#clip840)" style="stroke:#000000; stroke-linecap:round; stroke-linejoin:round; stroke-width:4; stroke-opacity:1; fill:none" points="223.103,811.521 242,811.521 "/>
<polyline clip-path="url(#clip840)" style="stroke:#000000; stroke-linecap:round; stroke-linejoin:round; stroke-width:4; stroke-opacity:1; fill:none" points="223.103,612.5 242,612.5 "/>
<polyline clip-path="url(#clip840)" style="stroke:#000000; stroke-linecap:round; stroke-linejoin:round; stroke-width:4; stroke-opacity:1; fill:none" points="223.103,413.48 242,413.48 "/>
<polyline clip-path="url(#clip840)" style="stroke:#000000; stroke-linecap:round; stroke-linejoin:round; stroke-width:4; stroke-opacity:1; fill:none" points="223.103,214.46 242,214.46 "/>
<path clip-path="url(#clip840)" d="M50.9921 1409.03 L80.6679 1409.03 L80.6679 1412.97 L50.9921 1412.97 L50.9921 1409.03 Z" fill="#000000" fill-rule="nonzero" fill-opacity="1" /><path clip-path="url(#clip840)" d="M100.76 1394.38 Q97.1493 1394.38 95.3206 1397.94 Q93.515 1401.49 93.515 1408.62 Q93.515 1415.72 95.3206 1419.29 Q97.1493 1422.83 100.76 1422.83 Q104.395 1422.83 106.2 1419.29 Q108.029 1415.72 108.029 1408.62 Q108.029 1401.49 106.2 1397.94 Q104.395 1394.38 100.76 1394.38 M100.76 1390.68 Q106.571 1390.68 109.626 1395.28 Q112.705 1399.87 112.705 1408.62 Q112.705 1417.34 109.626 1421.95 Q106.571 1426.53 100.76 1426.53 Q94.9502 1426.53 91.8715 1421.95 Q88.816 1417.34 88.816 1408.62 Q88.816 1399.87 91.8715 1395.28 Q94.9502 1390.68 100.76 1390.68 Z" fill="#000000" fill-rule="nonzero" fill-opacity="1" /><path clip-path="url(#clip840)" d="M120.922 1419.98 L125.807 1419.98 L125.807 1425.86 L120.922 1425.86 L120.922 1419.98 Z" fill="#000000" fill-rule="nonzero" fill-opacity="1" /><path clip-path="url(#clip840)" d="M140.019 1421.93 L156.339 1421.93 L156.339 1425.86 L134.394 1425.86 L134.394 1421.93 Q137.056 1419.17 141.64 1414.54 Q146.246 1409.89 147.427 1408.55 Q149.672 1406.02 150.552 1404.29 Q151.455 1402.53 151.455 1400.84 Q151.455 1398.08 149.51 1396.35 Q147.589 1394.61 144.487 1394.61 Q142.288 1394.61 139.834 1395.38 Q137.404 1396.14 134.626 1397.69 L134.626 1392.97 Q137.45 1391.83 139.904 1391.25 Q142.357 1390.68 144.394 1390.68 Q149.765 1390.68 152.959 1393.36 Q156.154 1396.05 156.154 1400.54 Q156.154 1402.67 155.343 1404.59 Q154.556 1406.49 152.45 1409.08 Q151.871 1409.75 148.769 1412.97 Q145.668 1416.16 140.019 1421.93 Z" fill="#000000" fill-rule="nonzero" fill-opacity="1" /><path clip-path="url(#clip840)" d="M166.2 1391.3 L184.556 1391.3 L184.556 1395.24 L170.482 1395.24 L170.482 1403.71 Q171.501 1403.36 172.519 1403.2 Q173.538 1403.01 174.556 1403.01 Q180.343 1403.01 183.723 1406.19 Q187.103 1409.36 187.103 1414.77 Q187.103 1420.35 183.63 1423.45 Q180.158 1426.53 173.839 1426.53 Q171.663 1426.53 169.394 1426.16 Q167.149 1425.79 164.742 1425.05 L164.742 1420.35 Q166.825 1421.49 169.047 1422.04 Q171.269 1422.6 173.746 1422.6 Q177.751 1422.6 180.089 1420.49 Q182.427 1418.38 182.427 1414.77 Q182.427 1411.16 180.089 1409.06 Q177.751 1406.95 173.746 1406.95 Q171.871 1406.95 169.996 1407.37 Q168.144 1407.78 166.2 1408.66 L166.2 1391.3 Z" fill="#000000" fill-rule="nonzero" fill-opacity="1" /><path clip-path="url(#clip840)" d="M99.765 1195.36 Q96.1539 1195.36 94.3252 1198.92 Q92.5197 1202.47 92.5197 1209.6 Q92.5197 1216.7 94.3252 1220.27 Q96.1539 1223.81 99.765 1223.81 Q103.399 1223.81 105.205 1220.27 Q107.033 1216.7 107.033 1209.6 Q107.033 1202.47 105.205 1198.92 Q103.399 1195.36 99.765 1195.36 M99.765 1191.66 Q105.575 1191.66 108.631 1196.26 Q111.709 1200.85 111.709 1209.6 Q111.709 1218.32 108.631 1222.93 Q105.575 1227.51 99.765 1227.51 Q93.9549 1227.51 90.8762 1222.93 Q87.8206 1218.32 87.8206 1209.6 Q87.8206 1200.85 90.8762 1196.26 Q93.9549 1191.66 99.765 1191.66 Z" fill="#000000" fill-rule="nonzero" fill-opacity="1" /><path clip-path="url(#clip840)" d="M119.927 1220.96 L124.811 1220.96 L124.811 1226.84 L119.927 1226.84 L119.927 1220.96 Z" fill="#000000" fill-rule="nonzero" fill-opacity="1" /><path clip-path="url(#clip840)" d="M144.996 1195.36 Q141.385 1195.36 139.556 1198.92 Q137.751 1202.47 137.751 1209.6 Q137.751 1216.7 139.556 1220.27 Q141.385 1223.81 144.996 1223.81 Q148.63 1223.81 150.436 1220.27 Q152.265 1216.7 152.265 1209.6 Q152.265 1202.47 150.436 1198.92 Q148.63 1195.36 144.996 1195.36 M144.996 1191.66 Q150.806 1191.66 153.862 1196.26 Q156.941 1200.85 156.941 1209.6 Q156.941 1218.32 153.862 1222.93 Q150.806 1227.51 144.996 1227.51 Q139.186 1227.51 136.107 1222.93 Q133.052 1218.32 133.052 1209.6 Q133.052 1200.85 136.107 1196.26 Q139.186 1191.66 144.996 1191.66 Z" fill="#000000" fill-rule="nonzero" fill-opacity="1" /><path clip-path="url(#clip840)" d="M175.158 1195.36 Q171.547 1195.36 169.718 1198.92 Q167.913 1202.47 167.913 1209.6 Q167.913 1216.7 169.718 1220.27 Q171.547 1223.81 175.158 1223.81 Q178.792 1223.81 180.598 1220.27 Q182.427 1216.7 182.427 1209.6 Q182.427 1202.47 180.598 1198.92 Q178.792 1195.36 175.158 1195.36 M175.158 1191.66 Q180.968 1191.66 184.024 1196.26 Q187.103 1200.85 187.103 1209.6 Q187.103 1218.32 184.024 1222.93 Q180.968 1227.51 175.158 1227.51 Q169.348 1227.51 166.269 1222.93 Q163.214 1218.32 163.214 1209.6 Q163.214 1200.85 166.269 1196.26 Q169.348 1191.66 175.158 1191.66 Z" fill="#000000" fill-rule="nonzero" fill-opacity="1" /><path clip-path="url(#clip840)" d="M100.76 996.339 Q97.1493 996.339 95.3206 999.904 Q93.515 1003.45 93.515 1010.58 Q93.515 1017.68 95.3206 1021.25 Q97.1493 1024.79 100.76 1024.79 Q104.395 1024.79 106.2 1021.25 Q108.029 1017.68 108.029 1010.58 Q108.029 1003.45 106.2 999.904 Q104.395 996.339 100.76 996.339 M100.76 992.636 Q106.571 992.636 109.626 997.242 Q112.705 1001.83 112.705 1010.58 Q112.705 1019.3 109.626 1023.91 Q106.571 1028.49 100.76 1028.49 Q94.9502 1028.49 91.8715 1023.91 Q88.816 1019.3 88.816 1010.58 Q88.816 1001.83 91.8715 997.242 Q94.9502 992.636 100.76 992.636 Z" fill="#000000" fill-rule="nonzero" fill-opacity="1" /><path clip-path="url(#clip840)" d="M120.922 1021.94 L125.807 1021.94 L125.807 1027.82 L120.922 1027.82 L120.922 1021.94 Z" fill="#000000" fill-rule="nonzero" fill-opacity="1" /><path clip-path="url(#clip840)" d="M140.019 1023.89 L156.339 1023.89 L156.339 1027.82 L134.394 1027.82 L134.394 1023.89 Q137.056 1021.13 141.64 1016.5 Q146.246 1011.85 147.427 1010.51 Q149.672 1007.98 150.552 1006.25 Q151.455 1004.49 151.455 1002.8 Q151.455 1000.04 149.51 998.307 Q147.589 996.571 144.487 996.571 Q142.288 996.571 139.834 997.335 Q137.404 998.099 134.626 999.65 L134.626 994.927 Q137.45 993.793 139.904 993.214 Q142.357 992.636 144.394 992.636 Q149.765 992.636 152.959 995.321 Q156.154 998.006 156.154 1002.5 Q156.154 1004.63 155.343 1006.55 Q154.556 1008.45 152.45 1011.04 Q151.871 1011.71 148.769 1014.93 Q145.668 1018.12 140.019 1023.89 Z" fill="#000000" fill-rule="nonzero" fill-opacity="1" /><path clip-path="url(#clip840)" d="M166.2 993.261 L184.556 993.261 L184.556 997.196 L170.482 997.196 L170.482 1005.67 Q171.501 1005.32 172.519 1005.16 Q173.538 1004.97 174.556 1004.97 Q180.343 1004.97 183.723 1008.14 Q187.103 1011.32 187.103 1016.73 Q187.103 1022.31 183.63 1025.41 Q180.158 1028.49 173.839 1028.49 Q171.663 1028.49 169.394 1028.12 Q167.149 1027.75 164.742 1027.01 L164.742 1022.31 Q166.825 1023.45 169.047 1024 Q171.269 1024.56 173.746 1024.56 Q177.751 1024.56 180.089 1022.45 Q182.427 1020.34 182.427 1016.73 Q182.427 1013.12 180.089 1011.02 Q177.751 1008.91 173.746 1008.91 Q171.871 1008.91 169.996 1009.33 Q168.144 1009.74 166.2 1010.62 L166.2 993.261 Z" fill="#000000" fill-rule="nonzero" fill-opacity="1" /><path clip-path="url(#clip840)" d="M99.765 797.319 Q96.1539 797.319 94.3252 800.884 Q92.5197 804.426 92.5197 811.555 Q92.5197 818.662 94.3252 822.227 Q96.1539 825.768 99.765 825.768 Q103.399 825.768 105.205 822.227 Q107.033 818.662 107.033 811.555 Q107.033 804.426 105.205 800.884 Q103.399 797.319 99.765 797.319 M99.765 793.616 Q105.575 793.616 108.631 798.222 Q111.709 802.805 111.709 811.555 Q111.709 820.282 108.631 824.889 Q105.575 829.472 99.765 829.472 Q93.9549 829.472 90.8762 824.889 Q87.8206 820.282 87.8206 811.555 Q87.8206 802.805 90.8762 798.222 Q93.9549 793.616 99.765 793.616 Z" fill="#000000" fill-rule="nonzero" fill-opacity="1" /><path clip-path="url(#clip840)" d="M119.927 822.921 L124.811 822.921 L124.811 828.801 L119.927 828.801 L119.927 822.921 Z" fill="#000000" fill-rule="nonzero" fill-opacity="1" /><path clip-path="url(#clip840)" d="M135.043 794.241 L153.399 794.241 L153.399 798.176 L139.325 798.176 L139.325 806.648 Q140.343 806.301 141.362 806.139 Q142.381 805.953 143.399 805.953 Q149.186 805.953 152.566 809.125 Q155.945 812.296 155.945 817.713 Q155.945 823.291 152.473 826.393 Q149.001 829.472 142.681 829.472 Q140.506 829.472 138.237 829.101 Q135.992 828.731 133.584 827.99 L133.584 823.291 Q135.668 824.426 137.89 824.981 Q140.112 825.537 142.589 825.537 Q146.593 825.537 148.931 823.43 Q151.269 821.324 151.269 817.713 Q151.269 814.102 148.931 811.995 Q146.593 809.889 142.589 809.889 Q140.714 809.889 138.839 810.305 Q136.987 810.722 135.043 811.602 L135.043 794.241 Z" fill="#000000" fill-rule="nonzero" fill-opacity="1" /><path clip-path="url(#clip840)" d="M175.158 797.319 Q171.547 797.319 169.718 800.884 Q167.913 804.426 167.913 811.555 Q167.913 818.662 169.718 822.227 Q171.547 825.768 175.158 825.768 Q178.792 825.768 180.598 822.227 Q182.427 818.662 182.427 811.555 Q182.427 804.426 180.598 800.884 Q178.792 797.319 175.158 797.319 M175.158 793.616 Q180.968 793.616 184.024 798.222 Q187.103 802.805 187.103 811.555 Q187.103 820.282 184.024 824.889 Q180.968 829.472 175.158 829.472 Q169.348 829.472 166.269 824.889 Q163.214 820.282 163.214 811.555 Q163.214 802.805 166.269 798.222 Q169.348 793.616 175.158 793.616 Z" fill="#000000" fill-rule="nonzero" fill-opacity="1" /><path clip-path="url(#clip840)" d="M100.76 598.299 Q97.1493 598.299 95.3206 601.864 Q93.515 605.406 93.515 612.535 Q93.515 619.642 95.3206 623.206 Q97.1493 626.748 100.76 626.748 Q104.395 626.748 106.2 623.206 Q108.029 619.642 108.029 612.535 Q108.029 605.406 106.2 601.864 Q104.395 598.299 100.76 598.299 M100.76 594.595 Q106.571 594.595 109.626 599.202 Q112.705 603.785 112.705 612.535 Q112.705 621.262 109.626 625.868 Q106.571 630.452 100.76 630.452 Q94.9502 630.452 91.8715 625.868 Q88.816 621.262 88.816 612.535 Q88.816 603.785 91.8715 599.202 Q94.9502 594.595 100.76 594.595 Z" fill="#000000" fill-rule="nonzero" fill-opacity="1" /><path clip-path="url(#clip840)" d="M120.922 623.901 L125.807 623.901 L125.807 629.78 L120.922 629.78 L120.922 623.901 Z" fill="#000000" fill-rule="nonzero" fill-opacity="1" /><path clip-path="url(#clip840)" d="M134.811 595.22 L157.033 595.22 L157.033 597.211 L144.487 629.78 L139.603 629.78 L151.408 599.156 L134.811 599.156 L134.811 595.22 Z" fill="#000000" fill-rule="nonzero" fill-opacity="1" /><path clip-path="url(#clip840)" d="M166.2 595.22 L184.556 595.22 L184.556 599.156 L170.482 599.156 L170.482 607.628 Q171.501 607.281 172.519 607.118 Q173.538 606.933 174.556 606.933 Q180.343 606.933 183.723 610.105 Q187.103 613.276 187.103 618.693 Q187.103 624.271 183.63 627.373 Q180.158 630.452 173.839 630.452 Q171.663 630.452 169.394 630.081 Q167.149 629.711 164.742 628.97 L164.742 624.271 Q166.825 625.405 169.047 625.961 Q171.269 626.517 173.746 626.517 Q177.751 626.517 180.089 624.41 Q182.427 622.304 182.427 618.693 Q182.427 615.081 180.089 612.975 Q177.751 610.868 173.746 610.868 Q171.871 610.868 169.996 611.285 Q168.144 611.702 166.2 612.581 L166.2 595.22 Z" fill="#000000" fill-rule="nonzero" fill-opacity="1" /><path clip-path="url(#clip840)" d="M90.5752 426.825 L98.2141 426.825 L98.2141 400.46 L89.904 402.126 L89.904 397.867 L98.1678 396.2 L102.844 396.2 L102.844 426.825 L110.483 426.825 L110.483 430.76 L90.5752 430.76 L90.5752 426.825 Z" fill="#000000" fill-rule="nonzero" fill-opacity="1" /><path clip-path="url(#clip840)" d="M119.927 424.881 L124.811 424.881 L124.811 430.76 L119.927 430.76 L119.927 424.881 Z" fill="#000000" fill-rule="nonzero" fill-opacity="1" /><path clip-path="url(#clip840)" d="M144.996 399.279 Q141.385 399.279 139.556 402.844 Q137.751 406.385 137.751 413.515 Q137.751 420.621 139.556 424.186 Q141.385 427.728 144.996 427.728 Q148.63 427.728 150.436 424.186 Q152.265 420.621 152.265 413.515 Q152.265 406.385 150.436 402.844 Q148.63 399.279 144.996 399.279 M144.996 395.575 Q150.806 395.575 153.862 400.182 Q156.941 404.765 156.941 413.515 Q156.941 422.242 153.862 426.848 Q150.806 431.432 144.996 431.432 Q139.186 431.432 136.107 426.848 Q133.052 422.242 133.052 413.515 Q133.052 404.765 136.107 400.182 Q139.186 395.575 144.996 395.575 Z" fill="#000000" fill-rule="nonzero" fill-opacity="1" /><path clip-path="url(#clip840)" d="M175.158 399.279 Q171.547 399.279 169.718 402.844 Q167.913 406.385 167.913 413.515 Q167.913 420.621 169.718 424.186 Q171.547 427.728 175.158 427.728 Q178.792 427.728 180.598 424.186 Q182.427 420.621 182.427 413.515 Q182.427 406.385 180.598 402.844 Q178.792 399.279 175.158 399.279 M175.158 395.575 Q180.968 395.575 184.024 400.182 Q187.103 404.765 187.103 413.515 Q187.103 422.242 184.024 426.848 Q180.968 431.432 175.158 431.432 Q169.348 431.432 166.269 426.848 Q163.214 422.242 163.214 413.515 Q163.214 404.765 166.269 400.182 Q169.348 395.575 175.158 395.575 Z" fill="#000000" fill-rule="nonzero" fill-opacity="1" /><path clip-path="url(#clip840)" d="M91.5706 227.805 L99.2095 227.805 L99.2095 201.439 L90.8993 203.106 L90.8993 198.847 L99.1632 197.18 L103.839 197.18 L103.839 227.805 L111.478 227.805 L111.478 231.74 L91.5706 231.74 L91.5706 227.805 Z" fill="#000000" fill-rule="nonzero" fill-opacity="1" /><path clip-path="url(#clip840)" d="M120.922 225.861 L125.807 225.861 L125.807 231.74 L120.922 231.74 L120.922 225.861 Z" fill="#000000" fill-rule="nonzero" fill-opacity="1" /><path clip-path="url(#clip840)" d="M140.019 227.805 L156.339 227.805 L156.339 231.74 L134.394 231.74 L134.394 227.805 Q137.056 225.05 141.64 220.421 Q146.246 215.768 147.427 214.425 Q149.672 211.902 150.552 210.166 Q151.455 208.407 151.455 206.717 Q151.455 203.962 149.51 202.226 Q147.589 200.49 144.487 200.49 Q142.288 200.49 139.834 201.254 Q137.404 202.018 134.626 203.569 L134.626 198.847 Q137.45 197.713 139.904 197.134 Q142.357 196.555 144.394 196.555 Q149.765 196.555 152.959 199.24 Q156.154 201.925 156.154 206.416 Q156.154 208.546 155.343 210.467 Q154.556 212.365 152.45 214.958 Q151.871 215.629 148.769 218.847 Q145.668 222.041 140.019 227.805 Z" fill="#000000" fill-rule="nonzero" fill-opacity="1" /><path clip-path="url(#clip840)" d="M166.2 197.18 L184.556 197.18 L184.556 201.115 L170.482 201.115 L170.482 209.587 Q171.501 209.24 172.519 209.078 Q173.538 208.893 174.556 208.893 Q180.343 208.893 183.723 212.064 Q187.103 215.236 187.103 220.652 Q187.103 226.231 183.63 229.333 Q180.158 232.411 173.839 232.411 Q171.663 232.411 169.394 232.041 Q167.149 231.671 164.742 230.93 L164.742 226.231 Q166.825 227.365 169.047 227.921 Q171.269 228.476 173.746 228.476 Q177.751 228.476 180.089 226.37 Q182.427 224.263 182.427 220.652 Q182.427 217.041 180.089 214.935 Q177.751 212.828 173.746 212.828 Q171.871 212.828 169.996 213.245 Q168.144 213.662 166.2 214.541 L166.2 197.18 Z" fill="#000000" fill-rule="nonzero" fill-opacity="1" /><polyline clip-path="url(#clip842)" style="stroke:#009af9; stroke-linecap:round; stroke-linejoin:round; stroke-width:16; stroke-opacity:1; fill:none" stroke-dasharray="8, 16" points="283.376,1089.99 293.472,893.936 303.568,864.157 313.664,954.026 323.76,1046.09 333.856,1094.03 343.952,1108.37 354.048,1105.67 364.144,1094.19 374.24,1090.53 384.336,1111.1 394.432,1147.65 404.528,1188 414.624,1226.06 424.72,1248.95 434.816,1268.72 444.912,1297.67 455.008,1331.5 465.104,1367.97 475.2,1386.3 485.296,1373.26 495.392,1351.96 505.488,1352.43 515.584,1371.69 525.68,1365.39 535.776,1285.16 545.872,1153.7 555.968,1094.06 566.064,1187.5 576.16,1341.18 586.256,1422.37 596.352,1376.24 606.448,1221.89 616.544,1079.05 626.64,1048.51 636.736,1082.76 646.832,1085.55 656.928,1036.01 667.024,982.845 677.12,975.328 687.216,1019.64 697.312,1084.42 707.408,1129.7 717.504,1137.48 727.6,1129.23 737.696,1141.91 747.792,1182.68 757.888,1225.61 767.984,1246.32 778.08,1246.97 788.176,1251.7 798.272,1277.58 808.369,1311.2 818.465,1351.35 828.561,1410.28 838.657,1445.72 848.753,1419.72 858.849,1358.34 868.945,1311.34 879.041,1298.62 889.137,1306.55 899.233,1311.45 909.329,1294.09 919.425,1251.94 929.521,1209.73 939.617,1203.76 949.713,1221.23 959.809,1202.85 969.905,1148.39 980.001,1099.93 990.097,1069.58 1000.19,1048.74 1010.29,1038.4 1020.38,1048.43 1030.48,1074.88 1040.58,1095.44 1050.67,1096.29 1060.77,1085.85 1070.86,1095.85 1080.96,1158.19 1091.06,1225.03 1101.15,1201.28 1111.25,1116.03 1121.34,1078.1 1131.44,1132.79 1141.54,1256.43 1151.63,1381.43 1161.73,1442.23 1171.83,1428.86 1181.92,1379.94 1192.02,1338.72 1202.11,1323.63 1212.21,1329.15 1222.31,1344.16 1232.4,1363.33 1242.5,1382.62 1252.59,1384.57 1262.69,1328.29 1272.79,1160.96 1282.88,849.871 1292.98,527.012 1303.07,415.389 1313.17,412.647 1323.27,410.85 1333.36,410.238 1343.46,418.809 1353.55,435.354 1363.65,453.924 1373.75,460.899 1383.84,435.685 1393.94,369.011 1404.03,289.978 1414.13,260.8 1424.23,320.792 1434.32,449.025 1444.42,579.773 1454.51,635.667 1464.61,568.995 1474.71,416.772 1484.8,314.245 1494.9,329.941 1504.99,370.746 1515.09,359.762 1525.19,316.176 1535.28,298.741 1545.38,348.478 1555.47,433.744 1565.57,493.194 1575.67,507.289 1585.76,492.534 1595.86,461.591 1605.95,409.121 1616.05,342.492 1626.15,307.502 1636.24,330.346 1646.34,368.597 1656.43,393.734 1666.53,420.729 1676.63,456.313 1686.72,491.888 1696.82,516.171 1706.91,513.272 1717.01,465.658 1727.11,381.403 1737.2,305.556 1747.3,278.668 1757.39,296.876 1767.49,341.254 1777.59,413.161 1787.68,483.681 1797.78,507.128 1807.87,487.899 1817.97,462.448 1828.07,450.61 1838.16,436.13 1848.26,389.38 1858.35,314.116 1868.45,258.837 1878.55,268.986 1888.64,346.601 1898.74,453.177 1908.83,533.757 1918.93,556.936 1929.03,545.113 1939.12,541.914 1949.22,535.395 1959.31,454.151 1969.41,287.938 1979.51,133.861 1989.6,87.9763 1999.7,186.526 2009.79,409.441 2019.89,636.033 2029.99,716.82 2040.08,654.567 2050.18,561.521 2060.27,496.412 2070.37,442.252 2080.47,370.883 2090.56,284.822 2100.66,215.639 2110.75,201.498 2120.85,259.107 2130.95,372.409 2141.04,502.472 2151.14,602.969 2161.23,642.268 2171.33,602.588 2181.43,499.811 2191.52,385.424 2201.62,292.867 2211.71,237.735 2221.81,227.997 2231.91,257.006 2242,316.538 2252.1,411.238 2262.19,545.634 2272.29,683.858 2282.39,728.899 2292.48,611.54 "/>
<polyline clip-path="url(#clip842)" style="stroke:#e26f46; stroke-linecap:round; stroke-linejoin:round; stroke-width:4; stroke-opacity:1; fill:none" points="283.376,1089.99 293.472,1073.03 303.568,1060.52 313.664,1052.88 323.76,1050.35 333.856,1053.01 343.952,1060.79 354.048,1073.42 364.144,1090.49 374.24,1111.45 384.336,1135.62 394.432,1162.19 404.528,1190.31 414.624,1219.06 424.72,1247.5 434.816,1274.71 444.912,1299.78 455.008,1321.91 465.104,1340.38 475.2,1354.57 485.296,1364.03 495.392,1368.45 505.488,1367.69 515.584,1361.76 525.68,1350.87 535.776,1335.36 545.872,1315.75 555.968,1292.67 566.064,1266.88 576.16,1239.22 586.256,1210.59 596.352,1181.93 606.448,1154.17 616.544,1128.22 626.64,1104.92 636.736,1085.04 646.832,1069.22 656.928,1057.98 667.024,1051.69 677.12,1050.55 687.216,1054.6 697.312,1063.71 707.408,1077.58 717.504,1095.75 727.6,1117.64 737.696,1142.54 747.792,1169.61 757.888,1197.99 767.984,1226.75 778.08,1254.95 788.176,1281.67 798.272,1306.03 808.369,1327.25 818.465,1344.62 828.561,1357.59 838.657,1365.72 848.753,1368.76 858.849,1366.6 868.945,1359.32 879.041,1347.15 889.137,1330.49 899.233,1309.88 909.329,1286 919.425,1259.62 929.521,1231.61 939.617,1202.88 949.713,1174.37 959.809,1147 969.905,1121.68 980.001,1099.23 990.097,1080.38 1000.19,1065.74 1010.29,1055.8 1020.38,1050.87 1030.48,1051.13 1040.58,1056.56 1050.67,1066.98 1060.77,1082.05 1070.86,1101.28 1080.96,1124.05 1091.06,1149.61 1101.15,1177.13 1111.25,1205.7 1121.34,1234.4 1131.44,1262.29 1141.54,1288.46 1151.63,1312.06 1161.73,1332.3 1171.83,1348.55 1181.92,1360.25 1192.02,1367.04 1202.11,1368.69 1212.21,1365.14 1222.31,1356.52 1232.4,1343.1 1242.5,1325.32 1252.59,1303.77 1262.69,1279.14 1272.79,1252.24 1282.88,1223.94 1292.98,412.324 1303.07,411.008 1313.17,412.206 1323.27,416.192 1333.36,421.746 1343.46,426.52 1353.55,427.934 1363.65,424.26 1373.75,415.503 1383.84,403.698 1393.94,392.464 1404.03,385.902 1414.13,387.161 1424.23,397.174 1434.32,414.015 1444.42,433.182 1454.51,448.79 1464.61,455.374 1474.71,449.738 1484.8,432.251 1494.9,407.099 1504.99,381.322 1515.09,362.848 1525.19,358.062 1535.28,369.664 1545.38,395.511 1555.47,428.893 1565.57,460.25 1575.67,479.916 1585.76,481.081 1595.86,462.081 1605.95,427.26 1616.05,386.042 1626.15,350.387 1636.24,331.328 1646.34,335.566 1656.43,363.198 1666.53,407.311 1676.63,455.67 1686.72,494.111 1696.82,510.684 1706.91,499.351 1717.01,462.084 1727.11,408.669 1737.2,354.161 1747.3,314.638 1757.39,302.466 1767.49,322.453 1777.59,370.092 1787.68,432.501 1797.78,491.891 1807.87,530.638 1817.97,536.507 1828.07,506.484 1838.16,448.024 1848.26,377.246 1858.35,314.495 1868.45,278.495 1878.55,280.771 1888.64,321.995 1898.74,391.413 1908.83,469.624 1918.93,533.993 1929.03,565.205 1939.12,553.051 1949.22,499.714 1959.31,419.523 1969.41,335.117 1979.51,271.061 1989.6,246.695 1999.7,270.308 2009.79,336.387 2019.89,426.836 2029.99,515.919 2040.08,577.582 2050.18,593.07 2060.27,556.616 2070.37,477.475 2080.47,377.615 2090.56,285.629 2100.66,228.543 2110.75,223.887 2120.85,274.326 2130.95,366.519 2141.04,474.618 2151.14,567.512 2161.23,617.778 2171.33,609.775 2181.43,544.479 2191.52,439.586 2201.62,324.729 2211.71,233.115 2221.81,191.919 2231.91,214.236 2242,294.953 2252.1,411.846 2262.19,531.687 2272.29,619.691 2282.39,649.606 2292.48,611.54 "/>
<path clip-path="url(#clip840)" d="M294.091 250.738 L733.884 250.738 L733.884 95.2176 L294.091 95.2176  Z" fill="#ffffff" fill-rule="evenodd" fill-opacity="1"/>
<polyline clip-path="url(#clip840)" style="stroke:#000000; stroke-linecap:round; stroke-linejoin:round; stroke-width:4; stroke-opacity:1; fill:none" points="294.091,250.738 733.884,250.738 733.884,95.2176 294.091,95.2176 294.091,250.738 "/>
<polyline clip-path="url(#clip840)" style="stroke:#009af9; stroke-linecap:round; stroke-linejoin:round; stroke-width:16; stroke-opacity:1; fill:none" stroke-dasharray="8, 16" points="317.754,147.058 459.731,147.058 "/>
<path clip-path="url(#clip840)" d="M488.069 133.62 L488.069 146.606 L493.949 146.606 Q497.213 146.606 498.995 144.916 Q500.778 143.227 500.778 140.102 Q500.778 137 498.995 135.31 Q497.213 133.62 493.949 133.62 L488.069 133.62 M483.393 129.778 L493.949 129.778 Q499.759 129.778 502.722 132.416 Q505.708 135.032 505.708 140.102 Q505.708 145.217 502.722 147.833 Q499.759 150.449 493.949 150.449 L488.069 150.449 L488.069 164.338 L483.393 164.338 L483.393 129.778 Z" fill="#000000" fill-rule="nonzero" fill-opacity="1" /><path clip-path="url(#clip840)" d="M525.986 142.393 Q525.268 141.977 524.412 141.791 Q523.578 141.583 522.56 141.583 Q518.949 141.583 517.004 143.944 Q515.083 146.282 515.083 150.68 L515.083 164.338 L510.801 164.338 L510.801 138.412 L515.083 138.412 L515.083 142.44 Q516.426 140.078 518.578 138.944 Q520.731 137.787 523.81 137.787 Q524.25 137.787 524.782 137.856 Q525.315 137.903 525.963 138.018 L525.986 142.393 Z" fill="#000000" fill-rule="nonzero" fill-opacity="1" /><path clip-path="url(#clip840)" d="M551.588 150.31 L551.588 152.393 L532.004 152.393 Q532.282 156.791 534.643 159.106 Q537.027 161.398 541.264 161.398 Q543.717 161.398 546.009 160.796 Q548.324 160.194 550.592 158.99 L550.592 163.018 Q548.301 163.99 545.893 164.5 Q543.486 165.009 541.009 165.009 Q534.805 165.009 531.171 161.398 Q527.56 157.787 527.56 151.629 Q527.56 145.264 530.986 141.537 Q534.435 137.787 540.268 137.787 Q545.5 137.787 548.532 141.166 Q551.588 144.523 551.588 150.31 M547.328 149.06 Q547.282 145.565 545.361 143.481 Q543.463 141.398 540.314 141.398 Q536.75 141.398 534.597 143.412 Q532.467 145.426 532.143 149.083 L547.328 149.06 Z" fill="#000000" fill-rule="nonzero" fill-opacity="1" /><path clip-path="url(#clip840)" d="M575.638 142.347 L575.638 128.319 L579.898 128.319 L579.898 164.338 L575.638 164.338 L575.638 160.449 Q574.296 162.763 572.236 163.898 Q570.199 165.009 567.328 165.009 Q562.629 165.009 559.666 161.259 Q556.726 157.509 556.726 151.398 Q556.726 145.287 559.666 141.537 Q562.629 137.787 567.328 137.787 Q570.199 137.787 572.236 138.921 Q574.296 140.032 575.638 142.347 M561.125 151.398 Q561.125 156.097 563.046 158.782 Q564.99 161.444 568.37 161.444 Q571.749 161.444 573.694 158.782 Q575.638 156.097 575.638 151.398 Q575.638 146.699 573.694 144.037 Q571.749 141.352 568.37 141.352 Q564.99 141.352 563.046 144.037 Q561.125 146.699 561.125 151.398 Z" fill="#000000" fill-rule="nonzero" fill-opacity="1" /><path clip-path="url(#clip840)" d="M588.671 138.412 L592.93 138.412 L592.93 164.338 L588.671 164.338 L588.671 138.412 M588.671 128.319 L592.93 128.319 L592.93 133.713 L588.671 133.713 L588.671 128.319 Z" fill="#000000" fill-rule="nonzero" fill-opacity="1" /><path clip-path="url(#clip840)" d="M620.499 139.407 L620.499 143.389 Q618.694 142.393 616.865 141.907 Q615.059 141.398 613.208 141.398 Q609.064 141.398 606.772 144.037 Q604.481 146.652 604.481 151.398 Q604.481 156.143 606.772 158.782 Q609.064 161.398 613.208 161.398 Q615.059 161.398 616.865 160.912 Q618.694 160.402 620.499 159.407 L620.499 163.342 Q618.717 164.176 616.796 164.592 Q614.897 165.009 612.745 165.009 Q606.888 165.009 603.439 161.328 Q599.99 157.648 599.99 151.398 Q599.99 145.055 603.462 141.421 Q606.958 137.787 613.022 137.787 Q614.99 137.787 616.865 138.203 Q618.74 138.597 620.499 139.407 Z" fill="#000000" fill-rule="nonzero" fill-opacity="1" /><path clip-path="url(#clip840)" d="M632.12 131.051 L632.12 138.412 L640.893 138.412 L640.893 141.722 L632.12 141.722 L632.12 155.796 Q632.12 158.967 632.976 159.87 Q633.856 160.773 636.518 160.773 L640.893 160.773 L640.893 164.338 L636.518 164.338 Q631.587 164.338 629.712 162.509 Q627.837 160.657 627.837 155.796 L627.837 141.722 L624.712 141.722 L624.712 138.412 L627.837 138.412 L627.837 131.051 L632.12 131.051 Z" fill="#000000" fill-rule="nonzero" fill-opacity="1" /><path clip-path="url(#clip840)" d="M646.494 138.412 L650.754 138.412 L650.754 164.338 L646.494 164.338 L646.494 138.412 M646.494 128.319 L650.754 128.319 L650.754 133.713 L646.494 133.713 L646.494 128.319 Z" fill="#000000" fill-rule="nonzero" fill-opacity="1" /><path clip-path="url(#clip840)" d="M669.712 141.398 Q666.286 141.398 664.295 144.083 Q662.305 146.745 662.305 151.398 Q662.305 156.051 664.272 158.736 Q666.263 161.398 669.712 161.398 Q673.115 161.398 675.105 158.713 Q677.096 156.027 677.096 151.398 Q677.096 146.791 675.105 144.106 Q673.115 141.398 669.712 141.398 M669.712 137.787 Q675.267 137.787 678.439 141.398 Q681.61 145.009 681.61 151.398 Q681.61 157.764 678.439 161.398 Q675.267 165.009 669.712 165.009 Q664.133 165.009 660.962 161.398 Q657.814 157.764 657.814 151.398 Q657.814 145.009 660.962 141.398 Q664.133 137.787 669.712 137.787 Z" fill="#000000" fill-rule="nonzero" fill-opacity="1" /><path clip-path="url(#clip840)" d="M710.221 148.689 L710.221 164.338 L705.962 164.338 L705.962 148.828 Q705.962 145.148 704.527 143.319 Q703.091 141.49 700.221 141.49 Q696.772 141.49 694.781 143.69 Q692.791 145.889 692.791 149.685 L692.791 164.338 L688.508 164.338 L688.508 138.412 L692.791 138.412 L692.791 142.44 Q694.318 140.102 696.378 138.944 Q698.462 137.787 701.17 137.787 Q705.638 137.787 707.929 140.565 Q710.221 143.319 710.221 148.689 Z" fill="#000000" fill-rule="nonzero" fill-opacity="1" /><polyline clip-path="url(#clip840)" style="stroke:#e26f46; stroke-linecap:round; stroke-linejoin:round; stroke-width:4; stroke-opacity:1; fill:none" points="317.754,198.898 459.731,198.898 "/>
<path clip-path="url(#clip840)" d="M483.393 181.618 L505.245 181.618 L505.245 185.553 L488.069 185.553 L488.069 195.784 L504.528 195.784 L504.528 199.719 L488.069 199.719 L488.069 212.242 L505.662 212.242 L505.662 216.178 L483.393 216.178 L483.393 181.618 Z" fill="#000000" fill-rule="nonzero" fill-opacity="1" /><path clip-path="url(#clip840)" d="M534.713 190.252 L525.338 202.867 L535.199 216.178 L530.176 216.178 L522.629 205.992 L515.083 216.178 L510.06 216.178 L520.129 202.613 L510.916 190.252 L515.94 190.252 L522.815 199.488 L529.69 190.252 L534.713 190.252 Z" fill="#000000" fill-rule="nonzero" fill-opacity="1" /><path clip-path="url(#clip840)" d="M553 203.145 Q547.838 203.145 545.847 204.326 Q543.856 205.506 543.856 208.354 Q543.856 210.622 545.338 211.965 Q546.842 213.284 549.412 213.284 Q552.953 213.284 555.083 210.784 Q557.236 208.261 557.236 204.094 L557.236 203.145 L553 203.145 M561.495 201.386 L561.495 216.178 L557.236 216.178 L557.236 212.242 Q555.777 214.603 553.601 215.738 Q551.426 216.849 548.277 216.849 Q544.296 216.849 541.935 214.627 Q539.597 212.381 539.597 208.631 Q539.597 204.256 542.514 202.034 Q545.453 199.812 551.263 199.812 L557.236 199.812 L557.236 199.395 Q557.236 196.455 555.291 194.858 Q553.37 193.238 549.875 193.238 Q547.652 193.238 545.546 193.77 Q543.439 194.303 541.495 195.367 L541.495 191.432 Q543.833 190.53 546.032 190.09 Q548.231 189.627 550.314 189.627 Q555.939 189.627 558.717 192.543 Q561.495 195.46 561.495 201.386 Z" fill="#000000" fill-rule="nonzero" fill-opacity="1" /><path clip-path="url(#clip840)" d="M588.925 191.247 L588.925 195.229 Q587.12 194.233 585.291 193.747 Q583.486 193.238 581.634 193.238 Q577.49 193.238 575.199 195.877 Q572.907 198.492 572.907 203.238 Q572.907 207.983 575.199 210.622 Q577.49 213.238 581.634 213.238 Q583.486 213.238 585.291 212.752 Q587.12 212.242 588.925 211.247 L588.925 215.182 Q587.143 216.016 585.222 216.432 Q583.323 216.849 581.171 216.849 Q575.314 216.849 571.865 213.168 Q568.416 209.488 568.416 203.238 Q568.416 196.895 571.888 193.261 Q575.384 189.627 581.449 189.627 Q583.416 189.627 585.291 190.043 Q587.166 190.437 588.925 191.247 Z" fill="#000000" fill-rule="nonzero" fill-opacity="1" /><path clip-path="url(#clip840)" d="M600.546 182.891 L600.546 190.252 L609.319 190.252 L609.319 193.562 L600.546 193.562 L600.546 207.636 Q600.546 210.807 601.402 211.71 Q602.282 212.613 604.944 212.613 L609.319 212.613 L609.319 216.178 L604.944 216.178 Q600.013 216.178 598.138 214.349 Q596.263 212.497 596.263 207.636 L596.263 193.562 L593.138 193.562 L593.138 190.252 L596.263 190.252 L596.263 182.891 L600.546 182.891 Z" fill="#000000" fill-rule="nonzero" fill-opacity="1" /></svg>
