<?xml version="1.0" encoding="utf-8"?>
<svg xmlns="http://www.w3.org/2000/svg" xmlns:xlink="http://www.w3.org/1999/xlink" width="600" height="400" viewBox="0 0 2400 1600">
<defs>
  <clipPath id="clip810">
    <rect x="0" y="0" width="2400" height="1600"/>
  </clipPath>
</defs>
<path clip-path="url(#clip810)" d="M0 1600 L2400 1600 L2400 0 L0 0  Z" fill="#ffffff" fill-rule="evenodd" fill-opacity="1"/>
<defs>
  <clipPath id="clip811">
    <rect x="480" y="0" width="1681" height="1600"/>
  </clipPath>
</defs>
<path clip-path="url(#clip810)" d="M156.274 1486.45 L2352.76 1486.45 L2352.76 47.2441 L156.274 47.2441  Z" fill="#ffffff" fill-rule="evenodd" fill-opacity="1"/>
<defs>
  <clipPath id="clip812">
    <rect x="156" y="47" width="2197" height="1440"/>
  </clipPath>
</defs>
<polyline clip-path="url(#clip812)" style="stroke:#000000; stroke-linecap:round; stroke-linejoin:round; stroke-width:2; stroke-opacity:0.1; fill:none" points="218.439,1486.45 218.439,47.2441 "/>
<polyline clip-path="url(#clip812)" style="stroke:#000000; stroke-linecap:round; stroke-linejoin:round; stroke-width:2; stroke-opacity:0.1; fill:none" points="736.477,1486.45 736.477,47.2441 "/>
<polyline clip-path="url(#clip812)" style="stroke:#000000; stroke-linecap:round; stroke-linejoin:round; stroke-width:2; stroke-opacity:0.1; fill:none" points="1254.52,1486.45 1254.52,47.2441 "/>
<polyline clip-path="url(#clip812)" style="stroke:#000000; stroke-linecap:round; stroke-linejoin:round; stroke-width:2; stroke-opacity:0.1; fill:none" points="1772.55,1486.45 1772.55,47.2441 "/>
<polyline clip-path="url(#clip812)" style="stroke:#000000; stroke-linecap:round; stroke-linejoin:round; stroke-width:2; stroke-opacity:0.1; fill:none" points="2290.59,1486.45 2290.59,47.2441 "/>
<polyline clip-path="url(#clip810)" style="stroke:#000000; stroke-linecap:round; stroke-linejoin:round; stroke-width:4; stroke-opacity:1; fill:none" points="156.274,1486.45 2352.76,1486.45 "/>
<polyline clip-path="url(#clip810)" style="stroke:#000000; stroke-linecap:round; stroke-linejoin:round; stroke-width:4; stroke-opacity:1; fill:none" points="218.439,1486.45 218.439,1467.55 "/>
<polyline clip-path="url(#clip810)" style="stroke:#000000; stroke-linecap:round; stroke-linejoin:round; stroke-width:4; stroke-opacity:1; fill:none" points="736.477,1486.45 736.477,1467.55 "/>
<polyline clip-path="url(#clip810)" style="stroke:#000000; stroke-linecap:round; stroke-linejoin:round; stroke-width:4; stroke-opacity:1; fill:none" points="1254.52,1486.45 1254.52,1467.55 "/>
<polyline clip-path="url(#clip810)" style="stroke:#000000; stroke-linecap:round; stroke-linejoin:round; stroke-width:4; stroke-opacity:1; fill:none" points="1772.55,1486.45 1772.55,1467.55 "/>
<polyline clip-path="url(#clip810)" style="stroke:#000000; stroke-linecap:round; stroke-linejoin:round; stroke-width:4; stroke-opacity:1; fill:none" points="2290.59,1486.45 2290.59,1467.55 "/>
<path clip-path="url(#clip810)" d="M164.967 1532.02 L194.643 1532.02 L194.643 1535.95 L164.967 1535.95 L164.967 1532.02 Z" fill="#000000" fill-rule="nonzero" fill-opacity="1" /><path clip-path="url(#clip810)" d="M205.545 1544.91 L213.184 1544.91 L213.184 1518.55 L204.874 1520.21 L204.874 1515.95 L213.138 1514.29 L217.814 1514.29 L217.814 1544.91 L225.453 1544.91 L225.453 1548.85 L205.545 1548.85 L205.545 1544.91 Z" fill="#000000" fill-rule="nonzero" fill-opacity="1" /><path clip-path="url(#clip810)" d="M234.897 1542.97 L239.781 1542.97 L239.781 1548.85 L234.897 1548.85 L234.897 1542.97 Z" fill="#000000" fill-rule="nonzero" fill-opacity="1" /><path clip-path="url(#clip810)" d="M259.966 1517.37 Q256.355 1517.37 254.527 1520.93 Q252.721 1524.47 252.721 1531.6 Q252.721 1538.71 254.527 1542.27 Q256.355 1545.82 259.966 1545.82 Q263.601 1545.82 265.406 1542.27 Q267.235 1538.71 267.235 1531.6 Q267.235 1524.47 265.406 1520.93 Q263.601 1517.37 259.966 1517.37 M259.966 1513.66 Q265.776 1513.66 268.832 1518.27 Q271.911 1522.85 271.911 1531.6 Q271.911 1540.33 268.832 1544.94 Q265.776 1549.52 259.966 1549.52 Q254.156 1549.52 251.077 1544.94 Q248.022 1540.33 248.022 1531.6 Q248.022 1522.85 251.077 1518.27 Q254.156 1513.66 259.966 1513.66 Z" fill="#000000" fill-rule="nonzero" fill-opacity="1" /><path clip-path="url(#clip810)" d="M683.503 1532.02 L713.178 1532.02 L713.178 1535.95 L683.503 1535.95 L683.503 1532.02 Z" fill="#000000" fill-rule="nonzero" fill-opacity="1" /><path clip-path="url(#clip810)" d="M733.271 1517.37 Q729.66 1517.37 727.831 1520.93 Q726.026 1524.47 726.026 1531.6 Q726.026 1538.71 727.831 1542.27 Q729.66 1545.82 733.271 1545.82 Q736.905 1545.82 738.711 1542.27 Q740.539 1538.71 740.539 1531.6 Q740.539 1524.47 738.711 1520.93 Q736.905 1517.37 733.271 1517.37 M733.271 1513.66 Q739.081 1513.66 742.137 1518.27 Q745.215 1522.85 745.215 1531.6 Q745.215 1540.33 742.137 1544.94 Q739.081 1549.52 733.271 1549.52 Q727.461 1549.52 724.382 1544.94 Q721.327 1540.33 721.327 1531.6 Q721.327 1522.85 724.382 1518.27 Q727.461 1513.66 733.271 1513.66 Z" fill="#000000" fill-rule="nonzero" fill-opacity="1" /><path clip-path="url(#clip810)" d="M753.433 1542.97 L758.317 1542.97 L758.317 1548.85 L753.433 1548.85 L753.433 1542.97 Z" fill="#000000" fill-rule="nonzero" fill-opacity="1" /><path clip-path="url(#clip810)" d="M768.548 1514.29 L786.905 1514.29 L786.905 1518.22 L772.831 1518.22 L772.831 1526.7 Q773.849 1526.35 774.868 1526.19 Q775.886 1526 776.905 1526 Q782.692 1526 786.072 1529.17 Q789.451 1532.34 789.451 1537.76 Q789.451 1543.34 785.979 1546.44 Q782.507 1549.52 776.187 1549.52 Q774.011 1549.52 771.743 1549.15 Q769.498 1548.78 767.09 1548.04 L767.09 1543.34 Q769.173 1544.47 771.396 1545.03 Q773.618 1545.58 776.095 1545.58 Q780.099 1545.58 782.437 1543.48 Q784.775 1541.37 784.775 1537.76 Q784.775 1534.15 782.437 1532.04 Q780.099 1529.94 776.095 1529.94 Q774.22 1529.94 772.345 1530.35 Q770.493 1530.77 768.548 1531.65 L768.548 1514.29 Z" fill="#000000" fill-rule="nonzero" fill-opacity="1" /><path clip-path="url(#clip810)" d="M1231.9 1517.37 Q1228.29 1517.37 1226.46 1520.93 Q1224.65 1524.47 1224.65 1531.6 Q1224.65 1538.71 1226.46 1542.27 Q1228.29 1545.82 1231.9 1545.82 Q1235.53 1545.82 1237.34 1542.27 Q1239.17 1538.71 1239.17 1531.6 Q1239.17 1524.47 1237.34 1520.93 Q1235.53 1517.37 1231.9 1517.37 M1231.9 1513.66 Q1237.71 1513.66 1240.77 1518.27 Q1243.84 1522.85 1243.84 1531.6 Q1243.84 1540.33 1240.77 1544.94 Q1237.71 1549.52 1231.9 1549.52 Q1226.09 1549.52 1223.01 1544.94 Q1219.96 1540.33 1219.96 1531.6 Q1219.96 1522.85 1223.01 1518.27 Q1226.09 1513.66 1231.9 1513.66 Z" fill="#000000" fill-rule="nonzero" fill-opacity="1" /><path clip-path="url(#clip810)" d="M1252.06 1542.97 L1256.95 1542.97 L1256.95 1548.85 L1252.06 1548.85 L1252.06 1542.97 Z" fill="#000000" fill-rule="nonzero" fill-opacity="1" /><path clip-path="url(#clip810)" d="M1277.13 1517.37 Q1273.52 1517.37 1271.69 1520.93 Q1269.89 1524.47 1269.89 1531.6 Q1269.89 1538.71 1271.69 1542.27 Q1273.52 1545.82 1277.13 1545.82 Q1280.76 1545.82 1282.57 1542.27 Q1284.4 1538.71 1284.4 1531.6 Q1284.4 1524.47 1282.57 1520.93 Q1280.76 1517.37 1277.13 1517.37 M1277.13 1513.66 Q1282.94 1513.66 1286 1518.27 Q1289.08 1522.85 1289.08 1531.6 Q1289.08 1540.33 1286 1544.94 Q1282.94 1549.52 1277.13 1549.52 Q1271.32 1549.52 1268.24 1544.94 Q1265.19 1540.33 1265.19 1531.6 Q1265.19 1522.85 1268.24 1518.27 Q1271.32 1513.66 1277.13 1513.66 Z" fill="#000000" fill-rule="nonzero" fill-opacity="1" /><path clip-path="url(#clip810)" d="M1750.44 1517.37 Q1746.82 1517.37 1745 1520.93 Q1743.19 1524.47 1743.19 1531.6 Q1743.19 1538.71 1745 1542.27 Q1746.82 1545.82 1750.44 1545.82 Q1754.07 1545.82 1755.88 1542.27 Q1757.7 1538.71 1757.7 1531.6 Q1757.7 1524.47 1755.88 1520.93 Q1754.07 1517.37 1750.44 1517.37 M1750.44 1513.66 Q1756.25 1513.66 1759.3 1518.27 Q1762.38 1522.85 1762.38 1531.6 Q1762.38 1540.33 1759.3 1544.94 Q1756.25 1549.52 1750.44 1549.52 Q1744.63 1549.52 1741.55 1544.94 Q1738.49 1540.33 1738.49 1531.6 Q1738.49 1522.85 1741.55 1518.27 Q1744.63 1513.66 1750.44 1513.66 Z" fill="#000000" fill-rule="nonzero" fill-opacity="1" /><path clip-path="url(#clip810)" d="M1770.6 1542.97 L1775.48 1542.97 L1775.48 1548.85 L1770.6 1548.85 L1770.6 1542.97 Z" fill="#000000" fill-rule="nonzero" fill-opacity="1" /><path clip-path="url(#clip810)" d="M1785.71 1514.29 L1804.07 1514.29 L1804.07 1518.22 L1790 1518.22 L1790 1526.7 Q1791.01 1526.35 1792.03 1526.19 Q1793.05 1526 1794.07 1526 Q1799.86 1526 1803.24 1529.17 Q1806.62 1532.34 1806.62 1537.76 Q1806.62 1543.34 1803.14 1546.44 Q1799.67 1549.52 1793.35 1549.52 Q1791.18 1549.52 1788.91 1549.15 Q1786.66 1548.78 1784.25 1548.04 L1784.25 1543.34 Q1786.34 1544.47 1788.56 1545.03 Q1790.78 1545.58 1793.26 1545.58 Q1797.26 1545.58 1799.6 1543.48 Q1801.94 1541.37 1801.94 1537.76 Q1801.94 1534.15 1799.6 1532.04 Q1797.26 1529.94 1793.26 1529.94 Q1791.38 1529.94 1789.51 1530.35 Q1787.66 1530.77 1785.71 1531.65 L1785.71 1514.29 Z" fill="#000000" fill-rule="nonzero" fill-opacity="1" /><path clip-path="url(#clip810)" d="M2257.74 1544.91 L2265.38 1544.91 L2265.38 1518.55 L2257.07 1520.21 L2257.07 1515.95 L2265.34 1514.29 L2270.01 1514.29 L2270.01 1544.91 L2277.65 1544.91 L2277.65 1548.85 L2257.74 1548.85 L2257.74 1544.91 Z" fill="#000000" fill-rule="nonzero" fill-opacity="1" /><path clip-path="url(#clip810)" d="M2287.1 1542.97 L2291.98 1542.97 L2291.98 1548.85 L2287.1 1548.85 L2287.1 1542.97 Z" fill="#000000" fill-rule="nonzero" fill-opacity="1" /><path clip-path="url(#clip810)" d="M2312.17 1517.37 Q2308.55 1517.37 2306.73 1520.93 Q2304.92 1524.47 2304.92 1531.6 Q2304.92 1538.71 2306.73 1542.27 Q2308.55 1545.82 2312.17 1545.82 Q2315.8 1545.82 2317.61 1542.27 Q2319.43 1538.71 2319.43 1531.6 Q2319.43 1524.47 2317.61 1520.93 Q2315.8 1517.37 2312.17 1517.37 M2312.17 1513.66 Q2317.98 1513.66 2321.03 1518.27 Q2324.11 1522.85 2324.11 1531.6 Q2324.11 1540.33 2321.03 1544.94 Q2317.98 1549.52 2312.17 1549.52 Q2306.36 1549.52 2303.28 1544.94 Q2300.22 1540.33 2300.22 1531.6 Q2300.22 1522.85 2303.28 1518.27 Q2306.36 1513.66 2312.17 1513.66 Z" fill="#000000" fill-rule="nonzero" fill-opacity="1" /><polyline clip-path="url(#clip812)" style="stroke:#000000; stroke-linecap:round; stroke-linejoin:round; stroke-width:2; stroke-opacity:0.1; fill:none" points="156.274,1232.15 2352.76,1232.15 "/>
<polyline clip-path="url(#clip812)" style="stroke:#000000; stroke-linecap:round; stroke-linejoin:round; stroke-width:2; stroke-opacity:0.1; fill:none" points="156.274,963.631 2352.76,963.631 "/>
<polyline clip-path="url(#clip812)" style="stroke:#000000; stroke-linecap:round; stroke-linejoin:round; stroke-width:2; stroke-opacity:0.1; fill:none" points="156.274,695.112 2352.76,695.112 "/>
<polyline clip-path="url(#clip812)" style="stroke:#000000; stroke-linecap:round; stroke-linejoin:round; stroke-width:2; stroke-opacity:0.1; fill:none" points="156.274,426.592 2352.76,426.592 "/>
<polyline clip-path="url(#clip812)" style="stroke:#000000; stroke-linecap:round; stroke-linejoin:round; stroke-width:2; stroke-opacity:0.1; fill:none" points="156.274,158.073 2352.76,158.073 "/>
<polyline clip-path="url(#clip810)" style="stroke:#000000; stroke-linecap:round; stroke-linejoin:round; stroke-width:4; stroke-opacity:1; fill:none" points="156.274,1486.45 156.274,47.2441 "/>
<polyline clip-path="url(#clip810)" style="stroke:#000000; stroke-linecap:round; stroke-linejoin:round; stroke-width:4; stroke-opacity:1; fill:none" points="156.274,1232.15 175.172,1232.15 "/>
<polyline clip-path="url(#clip810)" style="stroke:#000000; stroke-linecap:round; stroke-linejoin:round; stroke-width:4; stroke-opacity:1; fill:none" points="156.274,963.631 175.172,963.631 "/>
<polyline clip-path="url(#clip810)" style="stroke:#000000; stroke-linecap:round; stroke-linejoin:round; stroke-width:4; stroke-opacity:1; fill:none" points="156.274,695.112 175.172,695.112 "/>
<polyline clip-path="url(#clip810)" style="stroke:#000000; stroke-linecap:round; stroke-linejoin:round; stroke-width:4; stroke-opacity:1; fill:none" points="156.274,426.592 175.172,426.592 "/>
<polyline clip-path="url(#clip810)" style="stroke:#000000; stroke-linecap:round; stroke-linejoin:round; stroke-width:4; stroke-opacity:1; fill:none" points="156.274,158.073 175.172,158.073 "/>
<path clip-path="url(#clip810)" d="M63.0985 1217.95 Q59.4875 1217.95 57.6588 1221.51 Q55.8532 1225.06 55.8532 1232.19 Q55.8532 1239.29 57.6588 1242.86 Q59.4875 1246.4 63.0985 1246.4 Q66.7328 1246.4 68.5383 1242.86 Q70.367 1239.29 70.367 1232.19 Q70.367 1225.06 68.5383 1221.51 Q66.7328 1217.95 63.0985 1217.95 M63.0985 1214.25 Q68.9087 1214.25 71.9642 1218.85 Q75.0429 1223.44 75.0429 1232.19 Q75.0429 1240.91 71.9642 1245.52 Q68.9087 1250.1 63.0985 1250.1 Q57.2884 1250.1 54.2097 1245.52 Q51.1542 1240.91 51.1542 1232.19 Q51.1542 1223.44 54.2097 1218.85 Q57.2884 1214.25 63.0985 1214.25 Z" fill="#000000" fill-rule="nonzero" fill-opacity="1" /><path clip-path="url(#clip810)" d="M83.2605 1243.55 L88.1447 1243.55 L88.1447 1249.43 L83.2605 1249.43 L83.2605 1243.55 Z" fill="#000000" fill-rule="nonzero" fill-opacity="1" /><path clip-path="url(#clip810)" d="M108.33 1217.95 Q104.719 1217.95 102.89 1221.51 Q101.084 1225.06 101.084 1232.19 Q101.084 1239.29 102.89 1242.86 Q104.719 1246.4 108.33 1246.4 Q111.964 1246.4 113.77 1242.86 Q115.598 1239.29 115.598 1232.19 Q115.598 1225.06 113.77 1221.51 Q111.964 1217.95 108.33 1217.95 M108.33 1214.25 Q114.14 1214.25 117.195 1218.85 Q120.274 1223.44 120.274 1232.19 Q120.274 1240.91 117.195 1245.52 Q114.14 1250.1 108.33 1250.1 Q102.52 1250.1 99.4409 1245.52 Q96.3854 1240.91 96.3854 1232.19 Q96.3854 1223.44 99.4409 1218.85 Q102.52 1214.25 108.33 1214.25 Z" fill="#000000" fill-rule="nonzero" fill-opacity="1" /><path clip-path="url(#clip810)" d="M63.7467 949.43 Q60.1356 949.43 58.3069 952.995 Q56.5014 956.536 56.5014 963.666 Q56.5014 970.772 58.3069 974.337 Q60.1356 977.879 63.7467 977.879 Q67.3809 977.879 69.1865 974.337 Q71.0152 970.772 71.0152 963.666 Q71.0152 956.536 69.1865 952.995 Q67.3809 949.43 63.7467 949.43 M63.7467 945.726 Q69.5568 945.726 72.6124 950.333 Q75.6911 954.916 75.6911 963.666 Q75.6911 972.393 72.6124 976.999 Q69.5568 981.582 63.7467 981.582 Q57.9365 981.582 54.8578 976.999 Q51.8023 972.393 51.8023 963.666 Q51.8023 954.916 54.8578 950.333 Q57.9365 945.726 63.7467 945.726 Z" fill="#000000" fill-rule="nonzero" fill-opacity="1" /><path clip-path="url(#clip810)" d="M83.9086 975.031 L88.7928 975.031 L88.7928 980.911 L83.9086 980.911 L83.9086 975.031 Z" fill="#000000" fill-rule="nonzero" fill-opacity="1" /><path clip-path="url(#clip810)" d="M113.145 962.277 Q116.501 962.994 118.376 965.263 Q120.274 967.532 120.274 970.865 Q120.274 975.981 116.756 978.781 Q113.237 981.582 106.756 981.582 Q104.58 981.582 102.265 981.143 Q99.9733 980.726 97.5197 979.869 L97.5197 975.356 Q99.4641 976.49 101.779 977.068 Q104.094 977.647 106.617 977.647 Q111.015 977.647 113.307 975.911 Q115.621 974.175 115.621 970.865 Q115.621 967.809 113.469 966.096 Q111.339 964.36 107.52 964.36 L103.492 964.36 L103.492 960.518 L107.705 960.518 Q111.154 960.518 112.983 959.152 Q114.811 957.763 114.811 955.17 Q114.811 952.508 112.913 951.096 Q111.038 949.661 107.52 949.661 Q105.598 949.661 103.399 950.078 Q101.2 950.495 98.5613 951.374 L98.5613 947.208 Q101.223 946.467 103.538 946.096 Q105.876 945.726 107.936 945.726 Q113.26 945.726 116.362 948.157 Q119.464 950.564 119.464 954.684 Q119.464 957.555 117.82 959.545 Q116.177 961.513 113.145 962.277 Z" fill="#000000" fill-rule="nonzero" fill-opacity="1" /><path clip-path="url(#clip810)" d="M62.9365 680.91 Q59.3254 680.91 57.4967 684.475 Q55.6912 688.017 55.6912 695.146 Q55.6912 702.253 57.4967 705.818 Q59.3254 709.359 62.9365 709.359 Q66.5707 709.359 68.3763 705.818 Q70.205 702.253 70.205 695.146 Q70.205 688.017 68.3763 684.475 Q66.5707 680.91 62.9365 680.91 M62.9365 677.207 Q68.7467 677.207 71.8022 681.813 Q74.8809 686.397 74.8809 695.146 Q74.8809 703.873 71.8022 708.48 Q68.7467 713.063 62.9365 713.063 Q57.1264 713.063 54.0477 708.48 Q50.9921 703.873 50.9921 695.146 Q50.9921 686.397 54.0477 681.813 Q57.1264 677.207 62.9365 677.207 Z" fill="#000000" fill-rule="nonzero" fill-opacity="1" /><path clip-path="url(#clip810)" d="M83.0984 706.512 L87.9827 706.512 L87.9827 712.392 L83.0984 712.392 L83.0984 706.512 Z" fill="#000000" fill-rule="nonzero" fill-opacity="1" /><path clip-path="url(#clip810)" d="M108.746 693.248 Q105.598 693.248 103.746 695.401 Q101.918 697.554 101.918 701.304 Q101.918 705.031 103.746 707.207 Q105.598 709.359 108.746 709.359 Q111.895 709.359 113.723 707.207 Q115.575 705.031 115.575 701.304 Q115.575 697.554 113.723 695.401 Q111.895 693.248 108.746 693.248 M118.029 678.596 L118.029 682.855 Q116.27 682.022 114.464 681.582 Q112.682 681.142 110.922 681.142 Q106.293 681.142 103.839 684.267 Q101.409 687.392 101.061 693.711 Q102.427 691.697 104.487 690.633 Q106.547 689.545 109.024 689.545 Q114.233 689.545 117.242 692.716 Q120.274 695.864 120.274 701.304 Q120.274 706.628 117.126 709.845 Q113.978 713.063 108.746 713.063 Q102.751 713.063 99.5798 708.48 Q96.4085 703.873 96.4085 695.146 Q96.4085 686.952 100.297 682.091 Q104.186 677.207 110.737 677.207 Q112.496 677.207 114.279 677.554 Q116.084 677.901 118.029 678.596 Z" fill="#000000" fill-rule="nonzero" fill-opacity="1" /><path clip-path="url(#clip810)" d="M63.2837 412.391 Q59.6726 412.391 57.8439 415.956 Q56.0384 419.498 56.0384 426.627 Q56.0384 433.734 57.8439 437.298 Q59.6726 440.84 63.2837 440.84 Q66.918 440.84 68.7235 437.298 Q70.5522 433.734 70.5522 426.627 Q70.5522 419.498 68.7235 415.956 Q66.918 412.391 63.2837 412.391 M63.2837 408.687 Q69.0939 408.687 72.1494 413.294 Q75.2281 417.877 75.2281 426.627 Q75.2281 435.354 72.1494 439.96 Q69.0939 444.544 63.2837 444.544 Q57.4736 444.544 54.3949 439.96 Q51.3393 435.354 51.3393 426.627 Q51.3393 417.877 54.3949 413.294 Q57.4736 408.687 63.2837 408.687 Z" fill="#000000" fill-rule="nonzero" fill-opacity="1" /><path clip-path="url(#clip810)" d="M83.4457 437.993 L88.3299 437.993 L88.3299 443.872 L83.4457 443.872 L83.4457 437.993 Z" fill="#000000" fill-rule="nonzero" fill-opacity="1" /><path clip-path="url(#clip810)" d="M98.6539 443.155 L98.6539 438.896 Q100.413 439.729 102.219 440.169 Q104.024 440.609 105.76 440.609 Q110.39 440.609 112.82 437.507 Q115.274 434.382 115.621 428.039 Q114.279 430.03 112.219 431.095 Q110.158 432.16 107.658 432.16 Q102.473 432.16 99.4409 429.035 Q96.4317 425.886 96.4317 420.447 Q96.4317 415.123 99.5798 411.905 Q102.728 408.687 107.959 408.687 Q113.955 408.687 117.103 413.294 Q120.274 417.877 120.274 426.627 Q120.274 434.798 116.385 439.683 Q112.52 444.544 105.969 444.544 Q104.209 444.544 102.404 444.197 Q100.598 443.849 98.6539 443.155 M107.959 428.502 Q111.108 428.502 112.936 426.349 Q114.788 424.197 114.788 420.447 Q114.788 416.72 112.936 414.567 Q111.108 412.391 107.959 412.391 Q104.811 412.391 102.959 414.567 Q101.131 416.72 101.131 420.447 Q101.131 424.197 102.959 426.349 Q104.811 428.502 107.959 428.502 Z" fill="#000000" fill-rule="nonzero" fill-opacity="1" /><path clip-path="url(#clip810)" d="M55.506 171.418 L63.1448 171.418 L63.1448 145.052 L54.8347 146.719 L54.8347 142.46 L63.0985 140.793 L67.7744 140.793 L67.7744 171.418 L75.4133 171.418 L75.4133 175.353 L55.506 175.353 L55.506 171.418 Z" fill="#000000" fill-rule="nonzero" fill-opacity="1" /><path clip-path="url(#clip810)" d="M84.8577 169.474 L89.7419 169.474 L89.7419 175.353 L84.8577 175.353 L84.8577 169.474 Z" fill="#000000" fill-rule="nonzero" fill-opacity="1" /><path clip-path="url(#clip810)" d="M103.955 171.418 L120.274 171.418 L120.274 175.353 L98.3298 175.353 L98.3298 171.418 Q100.992 168.663 105.575 164.034 Q110.182 159.381 111.362 158.038 Q113.608 155.515 114.487 153.779 Q115.39 152.02 115.39 150.33 Q115.39 147.576 113.445 145.839 Q111.524 144.103 108.422 144.103 Q106.223 144.103 103.77 144.867 Q101.339 145.631 98.5613 147.182 L98.5613 142.46 Q101.385 141.326 103.839 140.747 Q106.293 140.168 108.33 140.168 Q113.7 140.168 116.895 142.853 Q120.089 145.539 120.089 150.029 Q120.089 152.159 119.279 154.08 Q118.492 155.978 116.385 158.571 Q115.807 159.242 112.705 162.46 Q109.603 165.654 103.955 171.418 Z" fill="#000000" fill-rule="nonzero" fill-opacity="1" /><polyline clip-path="url(#clip812)" style="stroke:#009af9; stroke-linecap:round; stroke-linejoin:round; stroke-width:16; stroke-opacity:1; fill:none" stroke-dasharray="8, 16" points="218.439,1038.27 228.852,1054.93 239.264,1071.59 249.677,1088.25 260.09,1104.92 270.503,1121.58 280.916,1138.24 291.329,1154.9 301.741,1171.56 312.154,1188.23 322.567,1204.89 332.98,1221.55 343.393,1238.21 353.805,1254.87 364.218,1271.54 374.631,1288.2 385.044,1304.86 395.457,1321.52 405.87,1338.18 416.282,1354.85 426.695,1371.51 437.108,1387.64 447.521,1403.23 457.934,1393.22 468.347,1374.27 478.759,1352.76 489.172,1330.68 499.585,1308.59 509.998,1286.5 520.411,1264.41 530.824,1242.33 541.236,1220.24 551.649,1198.15 562.062,1176.07 572.475,1153.98 582.888,1131.89 593.301,1109.81 603.713,1088.83 614.126,1070.29 624.539,1053.79 634.952,1068.69 645.365,1091.15 655.777,1113.62 666.19,1136.09 676.603,1158.55 687.016,1181.02 697.429,1203.49 707.842,1225.95 718.254,1248.42 728.667,1270.88 739.08,1293.35 749.493,1315.82 759.906,1338.28 770.319,1359.89 780.731,1378.88 791.144,1397.83 801.557,1416.78 811.97,1435.73 822.383,1445.72 832.796,1413.71 843.208,1382.28 853.621,1350.15 864.034,1317.7 874.447,1285.24 884.86,1252.79 895.273,1223.11 905.685,1192.46 916.098,1164.66 926.511,1138.18 936.924,1111.69 947.337,1084.18 957.749,1071.53 968.162,1059.44 978.575,1056.63 988.988,1055.52 999.401,1054.42 1009.81,1056.08 1020.23,1090.71 1030.64,1116.13 1041.05,1142.84 1051.46,1171.53 1061.88,1197.4 1072.29,1231.77 1082.7,1263.38 1093.12,1294.93 1103.53,1323.03 1113.94,1345.78 1124.35,1369.66 1134.77,1391.28 1145.18,1404.43 1155.59,1407.91 1166.01,1410.51 1176.42,1415.91 1186.83,1399.52 1197.24,1384.79 1207.66,1372.38 1218.07,1356.89 1228.48,1337.1 1238.9,1181.66 1249.31,964.81 1259.72,730.645 1270.13,477.142 1280.55,287.963 1290.96,277.117 1301.37,284.082 1311.79,313.354 1322.2,385.778 1332.61,395.815 1343.02,360.647 1353.44,331.114 1363.85,317.961 1374.26,316.435 1384.68,320.427 1395.09,327.009 1405.5,333.664 1415.91,340.409 1426.33,347.771 1436.74,360.358 1447.15,362.628 1457.57,352.725 1467.98,342.821 1478.39,332.917 1488.8,325.322 1499.22,326.949 1509.63,328.576 1520.04,330.203 1530.45,331.831 1540.87,333.458 1551.28,335.085 1561.69,336.712 1572.11,337.235 1582.52,336.037 1592.93,334.839 1603.34,333.642 1613.76,332.444 1624.17,336.766 1634.58,341.363 1645,345.96 1655.41,350.557 1665.82,355.153 1676.23,359.75 1686.65,358.005 1697.06,354.367 1707.47,350.729 1717.89,347.09 1728.3,343.453 1738.71,339.814 1749.12,338.519 1759.54,337.527 1769.95,336.536 1780.36,335.544 1790.78,334.553 1801.19,333.561 1811.6,332.57 1822.01,331.578 1832.43,330.587 1842.84,329.595 1853.25,328.604 1863.67,327.612 1874.08,326.621 1884.49,325.629 1894.9,324.638 1905.32,323.647 1915.73,322.656 1926.14,321.663 1936.56,320.672 1946.97,319.681 1957.38,318.689 1967.79,317.698 1978.21,319.236 1988.62,322.487 1999.03,325.738 2009.45,328.99 2019.86,332.241 2030.27,335.493 2040.68,338.744 2051.1,341.996 2061.51,345.247 2071.92,348.499 2082.33,351.751 2092.75,355.001 2103.16,358.253 2113.57,361.504 2123.99,364.756 2134.4,368.008 2144.81,371.259 2155.22,374.51 2165.64,377.762 2176.05,381.013 2186.46,384.265 2196.88,387.517 2207.29,390.768 2217.7,394.02 2228.11,397.27 2238.53,400.522 2248.94,403.774 2259.35,407.025 2269.77,410.277 2280.18,413.529 2290.59,416.78 "/>
<polyline clip-path="url(#clip812)" style="stroke:#e26f46; stroke-linecap:round; stroke-linejoin:round; stroke-width:4; stroke-opacity:1; fill:none" points="218.439,1097.71 228.852,1078.64 239.264,1064.58 249.677,1055.98 260.09,1053.14 270.503,1056.14 280.916,1064.88 291.329,1079.08 301.741,1098.28 312.154,1121.84 322.567,1149.01 332.98,1178.89 343.393,1210.51 353.805,1242.84 364.218,1274.81 374.631,1305.4 385.044,1333.59 395.457,1358.47 405.87,1379.23 416.282,1395.19 426.695,1405.83 437.108,1410.8 447.521,1409.94 457.934,1403.27 468.347,1391.03 478.759,1373.59 489.172,1351.54 499.585,1325.6 509.998,1296.6 520.411,1265.5 530.824,1233.31 541.236,1201.09 551.649,1169.87 562.062,1140.69 572.475,1114.5 582.888,1092.14 593.301,1074.36 603.713,1061.72 614.126,1054.65 624.539,1053.37 634.952,1057.92 645.365,1068.16 655.777,1083.76 666.19,1104.19 676.603,1128.81 687.016,1156.79 697.429,1187.24 707.842,1219.15 718.254,1251.48 728.667,1283.19 739.08,1313.22 749.493,1340.62 759.906,1364.47 770.319,1384 780.731,1398.58 791.144,1407.73 801.557,1411.14 811.97,1408.72 822.383,1400.53 832.796,1386.84 843.208,1368.11 853.621,1344.94 864.034,1318.09 874.447,1288.43 884.86,1256.94 895.273,1224.64 905.685,1192.58 916.098,1161.82 926.511,1133.35 936.924,1108.1 947.337,1086.9 957.749,1070.45 968.162,1059.27 978.575,1053.73 988.988,1054.02 999.401,1060.12 1009.81,1071.84 1020.23,1088.78 1030.64,1110.41 1041.05,1136.01 1051.46,1164.75 1061.88,1195.68 1072.29,1227.81 1082.7,1260.08 1093.12,1291.44 1103.53,1320.86 1113.94,1347.39 1124.35,1370.16 1134.77,1388.42 1145.18,1401.58 1155.59,1409.21 1166.01,1411.07 1176.42,1407.08 1186.83,1397.38 1197.24,1382.3 1207.66,1362.31 1218.07,1338.07 1228.48,1310.38 1238.9,1280.13 1249.31,1248.32 1259.72,335.786 1270.13,334.307 1280.55,335.653 1290.96,340.135 1301.37,346.379 1311.79,351.747 1322.2,353.337 1332.61,349.206 1343.02,339.361 1353.44,326.087 1363.85,313.457 1374.26,306.078 1384.68,307.494 1395.09,318.752 1405.5,337.687 1415.91,359.237 1426.33,376.786 1436.74,384.188 1447.15,377.852 1457.57,358.191 1467.98,329.911 1478.39,300.93 1488.8,280.158 1499.22,274.777 1509.63,287.822 1520.04,316.883 1530.45,354.415 1540.87,389.671 1551.28,411.783 1561.69,413.092 1572.11,391.73 1582.52,352.579 1592.93,306.236 1603.34,266.148 1613.76,244.719 1624.17,249.484 1634.58,280.552 1645,330.15 1655.41,384.522 1665.82,427.742 1676.23,446.376 1686.65,433.633 1697.06,391.733 1707.47,331.677 1717.89,270.391 1728.3,225.953 1738.71,212.268 1749.12,234.74 1759.54,288.303 1769.95,358.472 1780.36,425.246 1790.78,468.811 1801.19,475.41 1811.6,441.654 1822.01,375.925 1832.43,296.346 1842.84,225.793 1853.25,185.317 1863.67,187.876 1874.08,234.226 1884.49,312.275 1894.9,400.21 1905.32,472.583 1915.73,507.677 1926.14,494.011 1936.56,434.042 1946.97,343.88 1957.38,248.979 1967.79,176.959 1978.21,149.563 1988.62,176.112 1999.03,250.407 2009.45,352.102 2019.86,452.262 2030.27,521.592 2040.68,539.006 2051.1,498.019 2061.51,409.038 2071.92,296.762 2082.33,193.337 2092.75,129.154 2103.16,123.919 2113.57,180.629 2123.99,284.286 2134.4,405.826 2144.81,510.27 2155.22,566.786 2165.64,557.788 2176.05,484.373 2186.46,366.437 2196.88,237.299 2207.29,134.294 2217.7,87.9763 2228.11,113.068 2238.53,203.821 2248.94,335.248 2259.35,469.99 2269.77,568.937 2280.18,602.572 2290.59,559.772 "/>
<path clip-path="url(#clip810)" d="M229.49 250.738 L675.966 250.738 L675.966 95.2176 L229.49 95.2176  Z" fill="#ffffff" fill-rule="evenodd" fill-opacity="1"/>
<polyline clip-path="url(#clip810)" style="stroke:#000000; stroke-linecap:round; stroke-linejoin:round; stroke-width:4; stroke-opacity:1; fill:none" points="229.49,250.738 675.966,250.738 675.966,95.2176 229.49,95.2176 229.49,250.738 "/>
<polyline clip-path="url(#clip810)" style="stroke:#009af9; stroke-linecap:round; stroke-linejoin:round; stroke-width:16; stroke-opacity:1; fill:none" stroke-dasharray="8, 16" points="253.896,147.058 400.328,147.058 "/>
<path clip-path="url(#clip810)" d="M429.409 133.62 L429.409 146.606 L435.289 146.606 Q438.552 146.606 440.335 144.916 Q442.117 143.227 442.117 140.102 Q442.117 137 440.335 135.31 Q438.552 133.62 435.289 133.62 L429.409 133.62 M424.733 129.778 L435.289 129.778 Q441.099 129.778 444.062 132.416 Q447.048 135.032 447.048 140.102 Q447.048 145.217 444.062 147.833 Q441.099 150.449 435.289 150.449 L429.409 150.449 L429.409 164.338 L424.733 164.338 L424.733 129.778 Z" fill="#000000" fill-rule="nonzero" fill-opacity="1" /><path clip-path="url(#clip810)" d="M467.325 142.393 Q466.608 141.977 465.751 141.791 Q464.918 141.583 463.899 141.583 Q460.288 141.583 458.344 143.944 Q456.423 146.282 456.423 150.68 L456.423 164.338 L452.14 164.338 L452.14 138.412 L456.423 138.412 L456.423 142.44 Q457.765 140.078 459.918 138.944 Q462.071 137.787 465.149 137.787 Q465.589 137.787 466.122 137.856 Q466.654 137.903 467.302 138.018 L467.325 142.393 Z" fill="#000000" fill-rule="nonzero" fill-opacity="1" /><path clip-path="url(#clip810)" d="M492.927 150.31 L492.927 152.393 L473.344 152.393 Q473.622 156.791 475.983 159.106 Q478.367 161.398 482.603 161.398 Q485.057 161.398 487.348 160.796 Q489.663 160.194 491.932 158.99 L491.932 163.018 Q489.64 163.99 487.233 164.5 Q484.825 165.009 482.348 165.009 Q476.145 165.009 472.511 161.398 Q468.899 157.787 468.899 151.629 Q468.899 145.264 472.325 141.537 Q475.774 137.787 481.608 137.787 Q486.839 137.787 489.872 141.166 Q492.927 144.523 492.927 150.31 M488.668 149.06 Q488.622 145.565 486.7 143.481 Q484.802 141.398 481.654 141.398 Q478.089 141.398 475.936 143.412 Q473.807 145.426 473.483 149.083 L488.668 149.06 Z" fill="#000000" fill-rule="nonzero" fill-opacity="1" /><path clip-path="url(#clip810)" d="M516.978 142.347 L516.978 128.319 L521.237 128.319 L521.237 164.338 L516.978 164.338 L516.978 160.449 Q515.635 162.763 513.575 163.898 Q511.538 165.009 508.668 165.009 Q503.969 165.009 501.006 161.259 Q498.066 157.509 498.066 151.398 Q498.066 145.287 501.006 141.537 Q503.969 137.787 508.668 137.787 Q511.538 137.787 513.575 138.921 Q515.635 140.032 516.978 142.347 M502.464 151.398 Q502.464 156.097 504.385 158.782 Q506.33 161.444 509.709 161.444 Q513.089 161.444 515.033 158.782 Q516.978 156.097 516.978 151.398 Q516.978 146.699 515.033 144.037 Q513.089 141.352 509.709 141.352 Q506.33 141.352 504.385 144.037 Q502.464 146.699 502.464 151.398 Z" fill="#000000" fill-rule="nonzero" fill-opacity="1" /><path clip-path="url(#clip810)" d="M530.01 138.412 L534.269 138.412 L534.269 164.338 L530.01 164.338 L530.01 138.412 M530.01 128.319 L534.269 128.319 L534.269 133.713 L530.01 133.713 L530.01 128.319 Z" fill="#000000" fill-rule="nonzero" fill-opacity="1" /><path clip-path="url(#clip810)" d="M561.839 139.407 L561.839 143.389 Q560.033 142.393 558.205 141.907 Q556.399 141.398 554.547 141.398 Q550.404 141.398 548.112 144.037 Q545.82 146.652 545.82 151.398 Q545.82 156.143 548.112 158.782 Q550.404 161.398 554.547 161.398 Q556.399 161.398 558.205 160.912 Q560.033 160.402 561.839 159.407 L561.839 163.342 Q560.056 164.176 558.135 164.592 Q556.237 165.009 554.084 165.009 Q548.228 165.009 544.779 161.328 Q541.33 157.648 541.33 151.398 Q541.33 145.055 544.802 141.421 Q548.297 137.787 554.362 137.787 Q556.33 137.787 558.205 138.203 Q560.08 138.597 561.839 139.407 Z" fill="#000000" fill-rule="nonzero" fill-opacity="1" /><path clip-path="url(#clip810)" d="M573.459 131.051 L573.459 138.412 L582.232 138.412 L582.232 141.722 L573.459 141.722 L573.459 155.796 Q573.459 158.967 574.316 159.87 Q575.195 160.773 577.857 160.773 L582.232 160.773 L582.232 164.338 L577.857 164.338 Q572.927 164.338 571.052 162.509 Q569.177 160.657 569.177 155.796 L569.177 141.722 L566.052 141.722 L566.052 138.412 L569.177 138.412 L569.177 131.051 L573.459 131.051 Z" fill="#000000" fill-rule="nonzero" fill-opacity="1" /><path clip-path="url(#clip810)" d="M587.834 138.412 L592.093 138.412 L592.093 164.338 L587.834 164.338 L587.834 138.412 M587.834 128.319 L592.093 128.319 L592.093 133.713 L587.834 133.713 L587.834 128.319 Z" fill="#000000" fill-rule="nonzero" fill-opacity="1" /><path clip-path="url(#clip810)" d="M611.051 141.398 Q607.626 141.398 605.635 144.083 Q603.644 146.745 603.644 151.398 Q603.644 156.051 605.612 158.736 Q607.602 161.398 611.051 161.398 Q614.454 161.398 616.445 158.713 Q618.436 156.027 618.436 151.398 Q618.436 146.791 616.445 144.106 Q614.454 141.398 611.051 141.398 M611.051 137.787 Q616.607 137.787 619.778 141.398 Q622.95 145.009 622.95 151.398 Q622.95 157.764 619.778 161.398 Q616.607 165.009 611.051 165.009 Q605.473 165.009 602.302 161.398 Q599.153 157.764 599.153 151.398 Q599.153 145.009 602.302 141.398 Q605.473 137.787 611.051 137.787 Z" fill="#000000" fill-rule="nonzero" fill-opacity="1" /><path clip-path="url(#clip810)" d="M651.561 148.689 L651.561 164.338 L647.301 164.338 L647.301 148.828 Q647.301 145.148 645.866 143.319 Q644.431 141.49 641.561 141.49 Q638.112 141.49 636.121 143.69 Q634.13 145.889 634.13 149.685 L634.13 164.338 L629.848 164.338 L629.848 138.412 L634.13 138.412 L634.13 142.44 Q635.658 140.102 637.718 138.944 Q639.801 137.787 642.51 137.787 Q646.977 137.787 649.269 140.565 Q651.561 143.319 651.561 148.689 Z" fill="#000000" fill-rule="nonzero" fill-opacity="1" /><polyline clip-path="url(#clip810)" style="stroke:#e26f46; stroke-linecap:round; stroke-linejoin:round; stroke-width:4; stroke-opacity:1; fill:none" points="253.896,198.898 400.328,198.898 "/>
<path clip-path="url(#clip810)" d="M424.733 181.618 L446.585 181.618 L446.585 185.553 L429.409 185.553 L429.409 195.784 L445.867 195.784 L445.867 199.719 L429.409 199.719 L429.409 212.242 L447.001 212.242 L447.001 216.178 L424.733 216.178 L424.733 181.618 Z" fill="#000000" fill-rule="nonzero" fill-opacity="1" /><path clip-path="url(#clip810)" d="M476.052 190.252 L466.677 202.867 L476.538 216.178 L471.515 216.178 L463.969 205.992 L456.423 216.178 L451.4 216.178 L461.469 202.613 L452.256 190.252 L457.279 190.252 L464.154 199.488 L471.029 190.252 L476.052 190.252 Z" fill="#000000" fill-rule="nonzero" fill-opacity="1" /><path clip-path="url(#clip810)" d="M494.339 203.145 Q489.177 203.145 487.186 204.326 Q485.196 205.506 485.196 208.354 Q485.196 210.622 486.677 211.965 Q488.182 213.284 490.751 213.284 Q494.293 213.284 496.422 210.784 Q498.575 208.261 498.575 204.094 L498.575 203.145 L494.339 203.145 M502.834 201.386 L502.834 216.178 L498.575 216.178 L498.575 212.242 Q497.117 214.603 494.941 215.738 Q492.765 216.849 489.617 216.849 Q485.635 216.849 483.274 214.627 Q480.936 212.381 480.936 208.631 Q480.936 204.256 483.853 202.034 Q486.793 199.812 492.603 199.812 L498.575 199.812 L498.575 199.395 Q498.575 196.455 496.631 194.858 Q494.71 193.238 491.214 193.238 Q488.992 193.238 486.885 193.77 Q484.779 194.303 482.835 195.367 L482.835 191.432 Q485.173 190.53 487.372 190.09 Q489.571 189.627 491.654 189.627 Q497.279 189.627 500.057 192.543 Q502.834 195.46 502.834 201.386 Z" fill="#000000" fill-rule="nonzero" fill-opacity="1" /><path clip-path="url(#clip810)" d="M530.265 191.247 L530.265 195.229 Q528.459 194.233 526.631 193.747 Q524.825 193.238 522.973 193.238 Q518.83 193.238 516.538 195.877 Q514.246 198.492 514.246 203.238 Q514.246 207.983 516.538 210.622 Q518.83 213.238 522.973 213.238 Q524.825 213.238 526.631 212.752 Q528.459 212.242 530.265 211.247 L530.265 215.182 Q528.482 216.016 526.561 216.432 Q524.663 216.849 522.51 216.849 Q516.654 216.849 513.205 213.168 Q509.756 209.488 509.756 203.238 Q509.756 196.895 513.228 193.261 Q516.723 189.627 522.788 189.627 Q524.756 189.627 526.631 190.043 Q528.506 190.437 530.265 191.247 Z" fill="#000000" fill-rule="nonzero" fill-opacity="1" /><path clip-path="url(#clip810)" d="M541.885 182.891 L541.885 190.252 L550.658 190.252 L550.658 193.562 L541.885 193.562 L541.885 207.636 Q541.885 210.807 542.742 211.71 Q543.621 212.613 546.283 212.613 L550.658 212.613 L550.658 216.178 L546.283 216.178 Q541.353 216.178 539.478 214.349 Q537.603 212.497 537.603 207.636 L537.603 193.562 L534.478 193.562 L534.478 190.252 L537.603 190.252 L537.603 182.891 L541.885 182.891 Z" fill="#000000" fill-rule="nonzero" fill-opacity="1" /></svg>
