<?xml version="1.0" encoding="utf-8"?>
<svg xmlns="http://www.w3.org/2000/svg" xmlns:xlink="http://www.w3.org/1999/xlink" width="600" height="400" viewBox="0 0 2400 1600">
<defs>
  <clipPath id="clip930">
    <rect x="0" y="0" width="2400" height="1600"/>
  </clipPath>
</defs>
<path clip-path="url(#clip930)" d="M0 1600 L2400 1600 L2400 0 L0 0  Z" fill="#ffffff" fill-rule="evenodd" fill-opacity="1"/>
<defs>
  <clipPath id="clip931">
    <rect x="480" y="0" width="1681" height="1600"/>
  </clipPath>
</defs>
<path clip-path="url(#clip930)" d="M156.274 1486.45 L2352.76 1486.45 L2352.76 47.2441 L156.274 47.2441  Z" fill="#ffffff" fill-rule="evenodd" fill-opacity="1"/>
<defs>
  <clipPath id="clip932">
    <rect x="156" y="47" width="2197" height="1440"/>
  </clipPath>
</defs>
<polyline clip-path="url(#clip932)" style="stroke:#000000; stroke-linecap:round; stroke-linejoin:round; stroke-width:2; stroke-opacity:0.1; fill:none" points="218.439,1486.45 218.439,47.2441 "/>
<polyline clip-path="url(#clip932)" style="stroke:#000000; stroke-linecap:round; stroke-linejoin:round; stroke-width:2; stroke-opacity:0.1; fill:none" points="736.477,1486.45 736.477,47.2441 "/>
<polyline clip-path="url(#clip932)" style="stroke:#000000; stroke-linecap:round; stroke-linejoin:round; stroke-width:2; stroke-opacity:0.1; fill:none" points="1254.52,1486.45 1254.52,47.2441 "/>
<polyline clip-path="url(#clip932)" style="stroke:#000000; stroke-linecap:round; stroke-linejoin:round; stroke-width:2; stroke-opacity:0.1; fill:none" points="1772.55,1486.45 1772.55,47.2441 "/>
<polyline clip-path="url(#clip932)" style="stroke:#000000; stroke-linecap:round; stroke-linejoin:round; stroke-width:2; stroke-opacity:0.1; fill:none" points="2290.59,1486.45 2290.59,47.2441 "/>
<polyline clip-path="url(#clip930)" style="stroke:#000000; stroke-linecap:round; stroke-linejoin:round; stroke-width:4; stroke-opacity:1; fill:none" points="156.274,1486.45 2352.76,1486.45 "/>
<polyline clip-path="url(#clip930)" style="stroke:#000000; stroke-linecap:round; stroke-linejoin:round; stroke-width:4; stroke-opacity:1; fill:none" points="218.439,1486.45 218.439,1467.55 "/>
<polyline clip-path="url(#clip930)" style="stroke:#000000; stroke-linecap:round; stroke-linejoin:round; stroke-width:4; stroke-opacity:1; fill:none" points="736.477,1486.45 736.477,1467.55 "/>
<polyline clip-path="url(#clip930)" style="stroke:#000000; stroke-linecap:round; stroke-linejoin:round; stroke-width:4; stroke-opacity:1; fill:none" points="1254.52,1486.45 1254.52,1467.55 "/>
<polyline clip-path="url(#clip930)" style="stroke:#000000; stroke-linecap:round; stroke-linejoin:round; stroke-width:4; stroke-opacity:1; fill:none" points="1772.55,1486.45 1772.55,1467.55 "/>
<polyline clip-path="url(#clip930)" style="stroke:#000000; stroke-linecap:round; stroke-linejoin:round; stroke-width:4; stroke-opacity:1; fill:none" points="2290.59,1486.45 2290.59,1467.55 "/>
<path clip-path="url(#clip930)" d="M164.967 1532.02 L194.643 1532.02 L194.643 1535.95 L164.967 1535.95 L164.967 1532.02 Z" fill="#000000" fill-rule="nonzero" fill-opacity="1" /><path clip-path="url(#clip930)" d="M205.545 1544.91 L213.184 1544.91 L213.184 1518.55 L204.874 1520.21 L204.874 1515.95 L213.138 1514.29 L217.814 1514.29 L217.814 1544.91 L225.453 1544.91 L225.453 1548.85 L205.545 1548.85 L205.545 1544.91 Z" fill="#000000" fill-rule="nonzero" fill-opacity="1" /><path clip-path="url(#clip930)" d="M234.897 1542.97 L239.781 1542.97 L239.781 1548.85 L234.897 1548.85 L234.897 1542.97 Z" fill="#000000" fill-rule="nonzero" fill-opacity="1" /><path clip-path="url(#clip930)" d="M259.966 1517.37 Q256.355 1517.37 254.527 1520.93 Q252.721 1524.47 252.721 1531.6 Q252.721 1538.71 254.527 1542.27 Q256.355 1545.82 259.966 1545.82 Q263.601 1545.82 265.406 1542.27 Q267.235 1538.71 267.235 1531.6 Q267.235 1524.47 265.406 1520.93 Q263.601 1517.37 259.966 1517.37 M259.966 1513.66 Q265.776 1513.66 268.832 1518.27 Q271.911 1522.85 271.911 1531.6 Q271.911 1540.33 268.832 1544.94 Q265.776 1549.52 259.966 1549.52 Q254.156 1549.52 251.077 1544.94 Q248.022 1540.33 248.022 1531.6 Q248.022 1522.85 251.077 1518.27 Q254.156 1513.66 259.966 1513.66 Z" fill="#000000" fill-rule="nonzero" fill-opacity="1" /><path clip-path="url(#clip930)" d="M683.503 1532.02 L713.178 1532.02 L713.178 1535.95 L683.503 1535.95 L683.503 1532.02 Z" fill="#000000" fill-rule="nonzero" fill-opacity="1" /><path clip-path="url(#clip930)" d="M733.271 1517.37 Q729.66 1517.37 727.831 1520.93 Q726.026 1524.47 726.026 1531.6 Q726.026 1538.71 727.831 1542.27 Q729.66 1545.82 733.271 1545.82 Q736.905 1545.82 738.711 1542.27 Q740.539 1538.71 740.539 1531.6 Q740.539 1524.47 738.711 1520.93 Q736.905 1517.37 733.271 1517.37 M733.271 1513.66 Q739.081 1513.66 742.137 1518.27 Q745.215 1522.85 745.215 1531.6 Q745.215 1540.33 742.137 1544.94 Q739.081 1549.52 733.271 1549.52 Q727.461 1549.52 724.382 1544.94 Q721.327 1540.33 721.327 1531.6 Q721.327 1522.85 724.382 1518.27 Q727.461 1513.66 733.271 1513.66 Z" fill="#000000" fill-rule="nonzero" fill-opacity="1" /><path clip-path="url(#clip930)" d="M753.433 1542.97 L758.317 1542.97 L758.317 1548.85 L753.433 1548.85 L753.433 1542.97 Z" fill="#000000" fill-rule="nonzero" fill-opacity="1" /><path clip-path="url(#clip930)" d="M768.548 1514.29 L786.905 1514.29 L786.905 1518.22 L772.831 1518.22 L772.831 1526.7 Q773.849 1526.35 774.868 1526.19 Q775.886 1526 776.905 1526 Q782.692 1526 786.072 1529.17 Q789.451 1532.34 789.451 1537.76 Q789.451 1543.34 785.979 1546.44 Q782.507 1549.52 776.187 1549.52 Q774.011 1549.52 771.743 1549.15 Q769.498 1548.78 767.09 1548.04 L767.09 1543.34 Q769.173 1544.47 771.396 1545.03 Q773.618 1545.58 776.095 1545.58 Q780.099 1545.58 782.437 1543.48 Q784.775 1541.37 784.775 1537.76 Q784.775 1534.15 782.437 1532.04 Q780.099 1529.94 776.095 1529.94 Q774.22 1529.94 772.345 1530.35 Q770.493 1530.77 768.548 1531.65 L768.548 1514.29 Z" fill="#000000" fill-rule="nonzero" fill-opacity="1" /><path clip-path="url(#clip930)" d="M1231.9 1517.37 Q1228.29 1517.37 1226.46 1520.93 Q1224.65 1524.47 1224.65 1531.6 Q1224.65 1538.71 1226.46 1542.27 Q1228.29 1545.82 1231.9 1545.82 Q1235.53 1545.82 1237.34 1542.27 Q1239.17 1538.71 1239.17 1531.6 Q1239.17 1524.47 1237.34 1520.93 Q1235.53 1517.37 1231.9 1517.37 M1231.9 1513.66 Q1237.71 1513.66 1240.77 1518.27 Q1243.84 1522.85 1243.84 1531.6 Q1243.84 1540.33 1240.77 1544.94 Q1237.71 1549.52 1231.9 1549.52 Q1226.09 1549.52 1223.01 1544.94 Q1219.96 1540.33 1219.96 1531.6 Q1219.96 1522.85 1223.01 1518.27 Q1226.09 1513.66 1231.9 1513.66 Z" fill="#000000" fill-rule="nonzero" fill-opacity="1" /><path clip-path="url(#clip930)" d="M1252.06 1542.97 L1256.95 1542.97 L1256.95 1548.85 L1252.06 1548.85 L1252.06 1542.97 Z" fill="#000000" fill-rule="nonzero" fill-opacity="1" /><path clip-path="url(#clip930)" d="M1277.13 1517.37 Q1273.52 1517.37 1271.69 1520.93 Q1269.89 1524.47 1269.89 1531.6 Q1269.89 1538.71 1271.69 1542.27 Q1273.52 1545.82 1277.13 1545.82 Q1280.76 1545.82 1282.57 1542.27 Q1284.4 1538.71 1284.4 1531.6 Q1284.4 1524.47 1282.57 1520.93 Q1280.76 1517.37 1277.13 1517.37 M1277.13 1513.66 Q1282.94 1513.66 1286 1518.27 Q1289.08 1522.85 1289.08 1531.6 Q1289.08 1540.33 1286 1544.94 Q1282.94 1549.52 1277.13 1549.52 Q1271.32 1549.52 1268.24 1544.94 Q1265.19 1540.33 1265.19 1531.6 Q1265.19 1522.85 1268.24 1518.27 Q1271.32 1513.66 1277.13 1513.66 Z" fill="#000000" fill-rule="nonzero" fill-opacity="1" /><path clip-path="url(#clip930)" d="M1750.44 1517.37 Q1746.82 1517.37 1745 1520.93 Q1743.19 1524.47 1743.19 1531.6 Q1743.19 1538.71 1745 1542.27 Q1746.82 1545.82 1750.44 1545.82 Q1754.07 1545.82 1755.88 1542.27 Q1757.7 1538.71 1757.7 1531.6 Q1757.7 1524.47 1755.88 1520.93 Q1754.07 1517.37 1750.44 1517.37 M1750.44 1513.66 Q1756.25 1513.66 1759.3 1518.27 Q1762.38 1522.85 1762.38 1531.6 Q1762.38 1540.33 1759.3 1544.94 Q1756.25 1549.52 1750.44 1549.52 Q1744.63 1549.52 1741.55 1544.94 Q1738.49 1540.33 1738.49 1531.6 Q1738.49 1522.85 1741.55 1518.27 Q1744.63 1513.66 1750.44 1513.66 Z" fill="#000000" fill-rule="nonzero" fill-opacity="1" /><path clip-path="url(#clip930)" d="M1770.6 1542.97 L1775.48 1542.97 L1775.48 1548.85 L1770.6 1548.85 L1770.6 1542.97 Z" fill="#000000" fill-rule="nonzero" fill-opacity="1" /><path clip-path="url(#clip930)" d="M1785.71 1514.29 L1804.07 1514.29 L1804.07 1518.22 L1790 1518.22 L1790 1526.7 Q1791.01 1526.35 1792.03 1526.19 Q1793.05 1526 1794.07 1526 Q1799.86 1526 1803.24 1529.17 Q1806.62 1532.34 1806.62 1537.76 Q1806.62 1543.34 1803.14 1546.44 Q1799.67 1549.52 1793.35 1549.52 Q1791.18 1549.52 1788.91 1549.15 Q1786.66 1548.78 1784.25 1548.04 L1784.25 1543.34 Q1786.34 1544.47 1788.56 1545.03 Q1790.78 1545.58 1793.26 1545.58 Q1797.26 1545.58 1799.6 1543.48 Q1801.94 1541.37 1801.94 1537.76 Q1801.94 1534.15 1799.6 1532.04 Q1797.26 1529.94 1793.26 1529.94 Q1791.38 1529.94 1789.51 1530.35 Q1787.66 1530.77 1785.71 1531.65 L1785.71 1514.29 Z" fill="#000000" fill-rule="nonzero" fill-opacity="1" /><path clip-path="url(#clip930)" d="M2257.74 1544.91 L2265.38 1544.91 L2265.38 1518.55 L2257.07 1520.21 L2257.07 1515.95 L2265.34 1514.29 L2270.01 1514.29 L2270.01 1544.91 L2277.65 1544.91 L2277.65 1548.85 L2257.74 1548.85 L2257.74 1544.91 Z" fill="#000000" fill-rule="nonzero" fill-opacity="1" /><path clip-path="url(#clip930)" d="M2287.1 1542.97 L2291.98 1542.97 L2291.98 1548.85 L2287.1 1548.85 L2287.1 1542.97 Z" fill="#000000" fill-rule="nonzero" fill-opacity="1" /><path clip-path="url(#clip930)" d="M2312.17 1517.37 Q2308.55 1517.37 2306.73 1520.93 Q2304.92 1524.47 2304.92 1531.6 Q2304.92 1538.71 2306.73 1542.27 Q2308.55 1545.82 2312.17 1545.82 Q2315.8 1545.82 2317.61 1542.27 Q2319.43 1538.71 2319.43 1531.6 Q2319.43 1524.47 2317.61 1520.93 Q2315.8 1517.37 2312.17 1517.37 M2312.17 1513.66 Q2317.98 1513.66 2321.03 1518.27 Q2324.11 1522.85 2324.11 1531.6 Q2324.11 1540.33 2321.03 1544.94 Q2317.98 1549.52 2312.17 1549.52 Q2306.36 1549.52 2303.28 1544.94 Q2300.22 1540.33 2300.22 1531.6 Q2300.22 1522.85 2303.28 1518.27 Q2306.36 1513.66 2312.17 1513.66 Z" fill="#000000" fill-rule="nonzero" fill-opacity="1" /><polyline clip-path="url(#clip932)" style="stroke:#000000; stroke-linecap:round; stroke-linejoin:round; stroke-width:2; stroke-opacity:0.1; fill:none" points="156.274,1229.5 2352.76,1229.5 "/>
<polyline clip-path="url(#clip932)" style="stroke:#000000; stroke-linecap:round; stroke-linejoin:round; stroke-width:2; stroke-opacity:0.1; fill:none" points="156.274,961.599 2352.76,961.599 "/>
<polyline clip-path="url(#clip932)" style="stroke:#000000; stroke-linecap:round; stroke-linejoin:round; stroke-width:2; stroke-opacity:0.1; fill:none" points="156.274,693.703 2352.76,693.703 "/>
<polyline clip-path="url(#clip932)" style="stroke:#000000; stroke-linecap:round; stroke-linejoin:round; stroke-width:2; stroke-opacity:0.1; fill:none" points="156.274,425.807 2352.76,425.807 "/>
<polyline clip-path="url(#clip932)" style="stroke:#000000; stroke-linecap:round; stroke-linejoin:round; stroke-width:2; stroke-opacity:0.1; fill:none" points="156.274,157.911 2352.76,157.911 "/>
<polyline clip-path="url(#clip930)" style="stroke:#000000; stroke-linecap:round; stroke-linejoin:round; stroke-width:4; stroke-opacity:1; fill:none" points="156.274,1486.45 156.274,47.2441 "/>
<polyline clip-path="url(#clip930)" style="stroke:#000000; stroke-linecap:round; stroke-linejoin:round; stroke-width:4; stroke-opacity:1; fill:none" points="156.274,1229.5 175.172,1229.5 "/>
<polyline clip-path="url(#clip930)" style="stroke:#000000; stroke-linecap:round; stroke-linejoin:round; stroke-width:4; stroke-opacity:1; fill:none" points="156.274,961.599 175.172,961.599 "/>
<polyline clip-path="url(#clip930)" style="stroke:#000000; stroke-linecap:round; stroke-linejoin:round; stroke-width:4; stroke-opacity:1; fill:none" points="156.274,693.703 175.172,693.703 "/>
<polyline clip-path="url(#clip930)" style="stroke:#000000; stroke-linecap:round; stroke-linejoin:round; stroke-width:4; stroke-opacity:1; fill:none" points="156.274,425.807 175.172,425.807 "/>
<polyline clip-path="url(#clip930)" style="stroke:#000000; stroke-linecap:round; stroke-linejoin:round; stroke-width:4; stroke-opacity:1; fill:none" points="156.274,157.911 175.172,157.911 "/>
<path clip-path="url(#clip930)" d="M63.0985 1215.29 Q59.4875 1215.29 57.6588 1218.86 Q55.8532 1222.4 55.8532 1229.53 Q55.8532 1236.64 57.6588 1240.2 Q59.4875 1243.74 63.0985 1243.74 Q66.7328 1243.74 68.5383 1240.2 Q70.367 1236.64 70.367 1229.53 Q70.367 1222.4 68.5383 1218.86 Q66.7328 1215.29 63.0985 1215.29 M63.0985 1211.59 Q68.9087 1211.59 71.9642 1216.2 Q75.0429 1220.78 75.0429 1229.53 Q75.0429 1238.26 71.9642 1242.86 Q68.9087 1247.45 63.0985 1247.45 Q57.2884 1247.45 54.2097 1242.86 Q51.1542 1238.26 51.1542 1229.53 Q51.1542 1220.78 54.2097 1216.2 Q57.2884 1211.59 63.0985 1211.59 Z" fill="#000000" fill-rule="nonzero" fill-opacity="1" /><path clip-path="url(#clip930)" d="M83.2605 1240.9 L88.1447 1240.9 L88.1447 1246.78 L83.2605 1246.78 L83.2605 1240.9 Z" fill="#000000" fill-rule="nonzero" fill-opacity="1" /><path clip-path="url(#clip930)" d="M108.33 1215.29 Q104.719 1215.29 102.89 1218.86 Q101.084 1222.4 101.084 1229.53 Q101.084 1236.64 102.89 1240.2 Q104.719 1243.74 108.33 1243.74 Q111.964 1243.74 113.77 1240.2 Q115.598 1236.64 115.598 1229.53 Q115.598 1222.4 113.77 1218.86 Q111.964 1215.29 108.33 1215.29 M108.33 1211.59 Q114.14 1211.59 117.195 1216.2 Q120.274 1220.78 120.274 1229.53 Q120.274 1238.26 117.195 1242.86 Q114.14 1247.45 108.33 1247.45 Q102.52 1247.45 99.4409 1242.86 Q96.3854 1238.26 96.3854 1229.53 Q96.3854 1220.78 99.4409 1216.2 Q102.52 1211.59 108.33 1211.59 Z" fill="#000000" fill-rule="nonzero" fill-opacity="1" /><path clip-path="url(#clip930)" d="M63.7467 947.398 Q60.1356 947.398 58.3069 950.963 Q56.5014 954.504 56.5014 961.634 Q56.5014 968.74 58.3069 972.305 Q60.1356 975.847 63.7467 975.847 Q67.3809 975.847 69.1865 972.305 Q71.0152 968.74 71.0152 961.634 Q71.0152 954.504 69.1865 950.963 Q67.3809 947.398 63.7467 947.398 M63.7467 943.694 Q69.5568 943.694 72.6124 948.301 Q75.6911 952.884 75.6911 961.634 Q75.6911 970.361 72.6124 974.967 Q69.5568 979.551 63.7467 979.551 Q57.9365 979.551 54.8578 974.967 Q51.8023 970.361 51.8023 961.634 Q51.8023 952.884 54.8578 948.301 Q57.9365 943.694 63.7467 943.694 Z" fill="#000000" fill-rule="nonzero" fill-opacity="1" /><path clip-path="url(#clip930)" d="M83.9086 973 L88.7928 973 L88.7928 978.879 L83.9086 978.879 L83.9086 973 Z" fill="#000000" fill-rule="nonzero" fill-opacity="1" /><path clip-path="url(#clip930)" d="M113.145 960.245 Q116.501 960.963 118.376 963.231 Q120.274 965.5 120.274 968.833 Q120.274 973.949 116.756 976.75 Q113.237 979.551 106.756 979.551 Q104.58 979.551 102.265 979.111 Q99.9733 978.694 97.5197 977.838 L97.5197 973.324 Q99.4641 974.458 101.779 975.037 Q104.094 975.615 106.617 975.615 Q111.015 975.615 113.307 973.879 Q115.621 972.143 115.621 968.833 Q115.621 965.777 113.469 964.064 Q111.339 962.328 107.52 962.328 L103.492 962.328 L103.492 958.486 L107.705 958.486 Q111.154 958.486 112.983 957.12 Q114.811 955.731 114.811 953.139 Q114.811 950.477 112.913 949.065 Q111.038 947.629 107.52 947.629 Q105.598 947.629 103.399 948.046 Q101.2 948.463 98.5613 949.342 L98.5613 945.176 Q101.223 944.435 103.538 944.065 Q105.876 943.694 107.936 943.694 Q113.26 943.694 116.362 946.125 Q119.464 948.532 119.464 952.653 Q119.464 955.523 117.82 957.514 Q116.177 959.481 113.145 960.245 Z" fill="#000000" fill-rule="nonzero" fill-opacity="1" /><path clip-path="url(#clip930)" d="M62.9365 679.502 Q59.3254 679.502 57.4967 683.066 Q55.6912 686.608 55.6912 693.738 Q55.6912 700.844 57.4967 704.409 Q59.3254 707.951 62.9365 707.951 Q66.5707 707.951 68.3763 704.409 Q70.205 700.844 70.205 693.738 Q70.205 686.608 68.3763 683.066 Q66.5707 679.502 62.9365 679.502 M62.9365 675.798 Q68.7467 675.798 71.8022 680.404 Q74.8809 684.988 74.8809 693.738 Q74.8809 702.465 71.8022 707.071 Q68.7467 711.654 62.9365 711.654 Q57.1264 711.654 54.0477 707.071 Q50.9921 702.465 50.9921 693.738 Q50.9921 684.988 54.0477 680.404 Q57.1264 675.798 62.9365 675.798 Z" fill="#000000" fill-rule="nonzero" fill-opacity="1" /><path clip-path="url(#clip930)" d="M83.0984 705.103 L87.9827 705.103 L87.9827 710.983 L83.0984 710.983 L83.0984 705.103 Z" fill="#000000" fill-rule="nonzero" fill-opacity="1" /><path clip-path="url(#clip930)" d="M108.746 691.84 Q105.598 691.84 103.746 693.992 Q101.918 696.145 101.918 699.895 Q101.918 703.622 103.746 705.798 Q105.598 707.951 108.746 707.951 Q111.895 707.951 113.723 705.798 Q115.575 703.622 115.575 699.895 Q115.575 696.145 113.723 693.992 Q111.895 691.84 108.746 691.84 M118.029 677.187 L118.029 681.446 Q116.27 680.613 114.464 680.173 Q112.682 679.733 110.922 679.733 Q106.293 679.733 103.839 682.858 Q101.409 685.983 101.061 692.303 Q102.427 690.289 104.487 689.224 Q106.547 688.136 109.024 688.136 Q114.233 688.136 117.242 691.307 Q120.274 694.455 120.274 699.895 Q120.274 705.219 117.126 708.437 Q113.978 711.654 108.746 711.654 Q102.751 711.654 99.5798 707.071 Q96.4085 702.465 96.4085 693.738 Q96.4085 685.543 100.297 680.682 Q104.186 675.798 110.737 675.798 Q112.496 675.798 114.279 676.145 Q116.084 676.492 118.029 677.187 Z" fill="#000000" fill-rule="nonzero" fill-opacity="1" /><path clip-path="url(#clip930)" d="M63.2837 411.605 Q59.6726 411.605 57.8439 415.17 Q56.0384 418.712 56.0384 425.841 Q56.0384 432.948 57.8439 436.513 Q59.6726 440.054 63.2837 440.054 Q66.918 440.054 68.7235 436.513 Q70.5522 432.948 70.5522 425.841 Q70.5522 418.712 68.7235 415.17 Q66.918 411.605 63.2837 411.605 M63.2837 407.902 Q69.0939 407.902 72.1494 412.508 Q75.2281 417.092 75.2281 425.841 Q75.2281 434.568 72.1494 439.175 Q69.0939 443.758 63.2837 443.758 Q57.4736 443.758 54.3949 439.175 Q51.3393 434.568 51.3393 425.841 Q51.3393 417.092 54.3949 412.508 Q57.4736 407.902 63.2837 407.902 Z" fill="#000000" fill-rule="nonzero" fill-opacity="1" /><path clip-path="url(#clip930)" d="M83.4457 437.207 L88.3299 437.207 L88.3299 443.087 L83.4457 443.087 L83.4457 437.207 Z" fill="#000000" fill-rule="nonzero" fill-opacity="1" /><path clip-path="url(#clip930)" d="M98.6539 442.369 L98.6539 438.11 Q100.413 438.943 102.219 439.383 Q104.024 439.823 105.76 439.823 Q110.39 439.823 112.82 436.721 Q115.274 433.596 115.621 427.254 Q114.279 429.244 112.219 430.309 Q110.158 431.374 107.658 431.374 Q102.473 431.374 99.4409 428.249 Q96.4317 425.101 96.4317 419.661 Q96.4317 414.337 99.5798 411.119 Q102.728 407.902 107.959 407.902 Q113.955 407.902 117.103 412.508 Q120.274 417.092 120.274 425.841 Q120.274 434.013 116.385 438.897 Q112.52 443.758 105.969 443.758 Q104.209 443.758 102.404 443.411 Q100.598 443.064 98.6539 442.369 M107.959 427.716 Q111.108 427.716 112.936 425.564 Q114.788 423.411 114.788 419.661 Q114.788 415.934 112.936 413.781 Q111.108 411.605 107.959 411.605 Q104.811 411.605 102.959 413.781 Q101.131 415.934 101.131 419.661 Q101.131 423.411 102.959 425.564 Q104.811 427.716 107.959 427.716 Z" fill="#000000" fill-rule="nonzero" fill-opacity="1" /><path clip-path="url(#clip930)" d="M55.506 171.255 L63.1448 171.255 L63.1448 144.89 L54.8347 146.556 L54.8347 142.297 L63.0985 140.631 L67.7744 140.631 L67.7744 171.255 L75.4133 171.255 L75.4133 175.191 L55.506 175.191 L55.506 171.255 Z" fill="#000000" fill-rule="nonzero" fill-opacity="1" /><path clip-path="url(#clip930)" d="M84.8577 169.311 L89.7419 169.311 L89.7419 175.191 L84.8577 175.191 L84.8577 169.311 Z" fill="#000000" fill-rule="nonzero" fill-opacity="1" /><path clip-path="url(#clip930)" d="M103.955 171.255 L120.274 171.255 L120.274 175.191 L98.3298 175.191 L98.3298 171.255 Q100.992 168.501 105.575 163.871 Q110.182 159.218 111.362 157.876 Q113.608 155.353 114.487 153.617 Q115.39 151.857 115.39 150.168 Q115.39 147.413 113.445 145.677 Q111.524 143.941 108.422 143.941 Q106.223 143.941 103.77 144.705 Q101.339 145.468 98.5613 147.019 L98.5613 142.297 Q101.385 141.163 103.839 140.584 Q106.293 140.006 108.33 140.006 Q113.7 140.006 116.895 142.691 Q120.089 145.376 120.089 149.867 Q120.089 151.996 119.279 153.917 Q118.492 155.816 116.385 158.408 Q115.807 159.079 112.705 162.297 Q109.603 165.491 103.955 171.255 Z" fill="#000000" fill-rule="nonzero" fill-opacity="1" /><polyline clip-path="url(#clip932)" style="stroke:#009af9; stroke-linecap:round; stroke-linejoin:round; stroke-width:16; stroke-opacity:1; fill:none" stroke-dasharray="8, 16" points="218.439,1097.9 228.852,1092.64 239.264,1080.68 249.677,1066.36 260.09,1055.1 270.503,1051.66 280.916,1058.3 291.329,1074.03 301.741,1095.95 312.154,1121.29 322.567,1148.5 332.98,1177.2 343.393,1207.4 353.805,1238.9 364.218,1270.92 374.631,1302.27 385.044,1331.6 395.457,1357.73 405.87,1379.8 416.282,1397.13 426.695,1409.17 437.108,1415.48 447.521,1415.77 457.934,1410.05 468.347,1398.6 478.759,1381.94 489.172,1360.72 499.585,1335.63 509.998,1307.4 520.411,1276.84 530.824,1244.79 541.236,1212.16 551.649,1179.98 562.062,1149.34 572.475,1121.39 582.888,1097.25 593.301,1077.86 603.713,1063.89 614.126,1055.68 624.539,1053.29 634.952,1056.74 645.365,1066.02 655.777,1080.98 666.19,1101.01 676.603,1124.97 687.016,1151.52 697.429,1179.83 707.842,1209.73 718.254,1241.2 728.667,1273.41 739.08,1304.38 749.493,1331.92 759.906,1354.72 770.319,1372.67 780.731,1386.26 791.144,1395.74 801.557,1400.75 811.97,1400.5 822.383,1394.3 832.796,1381.96 843.208,1363.83 853.621,1340.71 864.034,1313.77 874.447,1284.43 884.86,1253.91 895.273,1222.6 905.685,1190.28 916.098,1158.31 926.511,1130.43 936.924,1108.02 947.337,1087.27 957.749,1066.44 968.162,1052.72 978.575,1055.31 988.988,1074.73 999.401,1104.7 1009.81,1129.53 1020.23,1112.08 1030.64,1034.48 1041.05,1047 1051.46,1190.71 1061.88,1215.78 1072.29,1186.2 1082.7,1194.13 1093.12,1243.09 1103.53,1311.24 1113.94,1382.68 1124.35,1439.48 1134.77,1445.72 1145.18,1421.9 1155.59,1374.76 1166.01,1368.23 1176.42,1373.36 1186.83,1391.82 1197.24,1385.05 1207.66,1344.48 1218.07,1290.1 1228.48,1290.36 1238.9,1284.06 1249.31,1080.36 1259.72,707.883 1270.13,408.709 1280.55,313.286 1290.96,292.884 1301.37,281.418 1311.79,315.482 1322.2,378.215 1332.61,424.471 1343.02,422.092 1353.44,386.484 1363.85,290.977 1374.26,212.301 1384.68,211.292 1395.09,255.839 1405.5,345.457 1415.91,426.847 1426.33,459.076 1436.74,416.558 1447.15,367.388 1457.57,332.7 1467.98,305.468 1478.39,286.189 1488.8,282.047 1499.22,303.511 1509.63,329.348 1520.04,339.502 1530.45,350.992 1540.87,375.983 1551.28,399.999 1561.69,407.122 1572.11,388.817 1582.52,348.023 1592.93,299.57 1603.34,260.028 1613.76,242.576 1624.17,254.882 1634.58,291.789 1645,338.133 1655.41,380.085 1665.82,409.511 1676.23,421.885 1686.65,414.158 1697.06,384.868 1707.47,336.413 1717.89,278.557 1728.3,229.52 1738.71,210.858 1749.12,234.591 1759.54,292.573 1769.95,363.609 1780.36,426.556 1790.78,465.137 1801.19,469.141 1811.6,436.332 1822.01,372.601 1832.43,290.778 1842.84,212.544 1853.25,168.722 1863.67,182.137 1874.08,248.526 1884.49,345.221 1894.9,437.68 1905.32,485.091 1915.73,475.685 1926.14,431.867 1936.56,375.716 1946.97,316.882 1957.38,257.096 1967.79,198.931 1978.21,159.43 1988.62,176.456 1999.03,269.707 2009.45,397.335 2019.86,499.048 2030.27,540.289 2040.68,517.691 2051.1,450.125 2061.51,360.775 2071.92,267.495 2082.33,186.3 2092.75,136.478 2103.16,137.445 2113.57,196.636 2123.99,298.747 2134.4,411.257 2144.81,503.182 2155.22,554.567 2165.64,553.755 2176.05,493.773 2186.46,375.87 2196.88,228.548 2207.29,125.748 2217.7,122.597 2228.11,182.818 2238.53,259.802 2248.94,341.175 2259.35,418.947 2269.77,482.739 2280.18,528.374 2290.59,558.47 "/>
<polyline clip-path="url(#clip932)" style="stroke:#e26f46; stroke-linecap:round; stroke-linejoin:round; stroke-width:4; stroke-opacity:1; fill:none" points="218.439,1095.37 228.852,1076.34 239.264,1062.31 249.677,1053.74 260.09,1050.9 270.503,1053.89 280.916,1062.61 291.329,1076.78 301.741,1095.93 312.154,1119.45 322.567,1146.55 332.98,1176.36 343.393,1207.91 353.805,1240.16 364.218,1272.06 374.631,1302.57 385.044,1330.7 395.457,1355.52 405.87,1376.23 416.282,1392.16 426.695,1402.77 437.108,1407.73 447.521,1406.87 457.934,1400.22 468.347,1388 478.759,1370.61 489.172,1348.61 499.585,1322.73 509.998,1293.8 520.411,1262.77 530.824,1230.66 541.236,1198.5 551.649,1167.36 562.062,1138.25 572.475,1112.12 582.888,1089.81 593.301,1072.07 603.713,1059.46 614.126,1052.41 624.539,1051.13 634.952,1055.67 645.365,1065.89 655.777,1081.45 666.19,1101.84 676.603,1126.39 687.016,1154.31 697.429,1184.68 707.842,1216.52 718.254,1248.78 728.667,1280.41 739.08,1310.38 749.493,1337.71 759.906,1361.51 770.319,1381 780.731,1395.54 791.144,1404.66 801.557,1408.07 811.97,1405.65 822.383,1397.48 832.796,1383.83 843.208,1365.14 853.621,1342.02 864.034,1315.23 874.447,1285.65 884.86,1254.23 895.273,1222 905.685,1190.02 916.098,1159.32 926.511,1130.92 936.924,1105.73 947.337,1084.59 957.749,1068.17 968.162,1057.02 978.575,1051.49 988.988,1051.78 999.401,1057.86 1009.81,1069.55 1020.23,1086.46 1030.64,1108.04 1041.05,1133.58 1051.46,1162.25 1061.88,1193.11 1072.29,1225.17 1082.7,1257.36 1093.12,1288.65 1103.53,1318 1113.94,1344.47 1124.35,1367.18 1134.77,1385.4 1145.18,1398.53 1155.59,1406.15 1166.01,1408 1176.42,1404.02 1186.83,1394.35 1197.24,1379.29 1207.66,1359.35 1218.07,1335.17 1228.48,1307.54 1238.9,1277.37 1249.31,1245.63 1259.72,335.211 1270.13,333.735 1280.55,335.078 1290.96,339.55 1301.37,345.78 1311.79,351.135 1322.2,352.721 1332.61,348.6 1343.02,338.777 1353.44,325.535 1363.85,312.934 1374.26,305.572 1384.68,306.985 1395.09,318.216 1405.5,337.108 1415.91,358.608 1426.33,376.116 1436.74,383.501 1447.15,377.179 1457.57,357.564 1467.98,329.35 1478.39,300.435 1488.8,279.712 1499.22,274.344 1509.63,287.358 1520.04,316.352 1530.45,353.796 1540.87,388.971 1551.28,411.031 1561.69,412.338 1572.11,391.025 1582.52,351.965 1592.93,305.729 1603.34,265.735 1613.76,244.355 1624.17,249.109 1634.58,280.105 1645,329.588 1655.41,383.834 1665.82,426.954 1676.23,445.544 1686.65,432.831 1697.06,391.028 1707.47,331.111 1717.89,269.967 1728.3,225.633 1738.71,211.979 1749.12,234.4 1759.54,287.838 1769.95,357.844 1780.36,424.464 1790.78,467.927 1801.19,474.511 1811.6,440.833 1822.01,375.257 1832.43,295.863 1842.84,225.473 1853.25,185.091 1863.67,187.644 1874.08,233.886 1884.49,311.755 1894.9,399.486 1905.32,471.69 1915.73,506.703 1926.14,493.069 1936.56,433.239 1946.97,343.286 1957.38,248.606 1967.79,176.752 1978.21,149.42 1988.62,175.907 1999.03,250.03 2009.45,351.49 2019.86,451.417 2030.27,520.585 2040.68,537.959 2051.1,497.068 2061.51,408.293 2071.92,296.277 2082.33,193.093 2092.75,129.059 2103.16,123.835 2113.57,180.414 2123.99,283.83 2134.4,405.088 2144.81,509.29 2155.22,565.675 2165.64,556.697 2176.05,483.453 2186.46,365.791 2196.88,236.953 2207.29,134.187 2217.7,87.9763 2228.11,113.01 2238.53,203.552 2248.94,334.674 2259.35,469.104 2269.77,567.821 2280.18,601.378 2290.59,558.677 "/>
<path clip-path="url(#clip930)" d="M229.49 250.738 L675.966 250.738 L675.966 95.2176 L229.49 95.2176  Z" fill="#ffffff" fill-rule="evenodd" fill-opacity="1"/>
<polyline clip-path="url(#clip930)" style="stroke:#000000; stroke-linecap:round; stroke-linejoin:round; stroke-width:4; stroke-opacity:1; fill:none" points="229.49,250.738 675.966,250.738 675.966,95.2176 229.49,95.2176 229.49,250.738 "/>
<polyline clip-path="url(#clip930)" style="stroke:#009af9; stroke-linecap:round; stroke-linejoin:round; stroke-width:16; stroke-opacity:1; fill:none" stroke-dasharray="8, 16" points="253.896,147.058 400.328,147.058 "/>
<path clip-path="url(#clip930)" d="M429.409 133.62 L429.409 146.606 L435.289 146.606 Q438.552 146.606 440.335 144.916 Q442.117 143.227 442.117 140.102 Q442.117 137 440.335 135.31 Q438.552 133.62 435.289 133.62 L429.409 133.62 M424.733 129.778 L435.289 129.778 Q441.099 129.778 444.062 132.416 Q447.048 135.032 447.048 140.102 Q447.048 145.217 444.062 147.833 Q441.099 150.449 435.289 150.449 L429.409 150.449 L429.409 164.338 L424.733 164.338 L424.733 129.778 Z" fill="#000000" fill-rule="nonzero" fill-opacity="1" /><path clip-path="url(#clip930)" d="M467.325 142.393 Q466.608 141.977 465.751 141.791 Q464.918 141.583 463.899 141.583 Q460.288 141.583 458.344 143.944 Q456.423 146.282 456.423 150.68 L456.423 164.338 L452.14 164.338 L452.14 138.412 L456.423 138.412 L456.423 142.44 Q457.765 140.078 459.918 138.944 Q462.071 137.787 465.149 137.787 Q465.589 137.787 466.122 137.856 Q466.654 137.903 467.302 138.018 L467.325 142.393 Z" fill="#000000" fill-rule="nonzero" fill-opacity="1" /><path clip-path="url(#clip930)" d="M492.927 150.31 L492.927 152.393 L473.344 152.393 Q473.622 156.791 475.983 159.106 Q478.367 161.398 482.603 161.398 Q485.057 161.398 487.348 160.796 Q489.663 160.194 491.932 158.99 L491.932 163.018 Q489.64 163.99 487.233 164.5 Q484.825 165.009 482.348 165.009 Q476.145 165.009 472.511 161.398 Q468.899 157.787 468.899 151.629 Q468.899 145.264 472.325 141.537 Q475.774 137.787 481.608 137.787 Q486.839 137.787 489.872 141.166 Q492.927 144.523 492.927 150.31 M488.668 149.06 Q488.622 145.565 486.7 143.481 Q484.802 141.398 481.654 141.398 Q478.089 141.398 475.936 143.412 Q473.807 145.426 473.483 149.083 L488.668 149.06 Z" fill="#000000" fill-rule="nonzero" fill-opacity="1" /><path clip-path="url(#clip930)" d="M516.978 142.347 L516.978 128.319 L521.237 128.319 L521.237 164.338 L516.978 164.338 L516.978 160.449 Q515.635 162.763 513.575 163.898 Q511.538 165.009 508.668 165.009 Q503.969 165.009 501.006 161.259 Q498.066 157.509 498.066 151.398 Q498.066 145.287 501.006 141.537 Q503.969 137.787 508.668 137.787 Q511.538 137.787 513.575 138.921 Q515.635 140.032 516.978 142.347 M502.464 151.398 Q502.464 156.097 504.385 158.782 Q506.33 161.444 509.709 161.444 Q513.089 161.444 515.033 158.782 Q516.978 156.097 516.978 151.398 Q516.978 146.699 515.033 144.037 Q513.089 141.352 509.709 141.352 Q506.33 141.352 504.385 144.037 Q502.464 146.699 502.464 151.398 Z" fill="#000000" fill-rule="nonzero" fill-opacity="1" /><path clip-path="url(#clip930)" d="M530.01 138.412 L534.269 138.412 L534.269 164.338 L530.01 164.338 L530.01 138.412 M530.01 128.319 L534.269 128.319 L534.269 133.713 L530.01 133.713 L530.01 128.319 Z" fill="#000000" fill-rule="nonzero" fill-opacity="1" /><path clip-path="url(#clip930)" d="M561.839 139.407 L561.839 143.389 Q560.033 142.393 558.205 141.907 Q556.399 141.398 554.547 141.398 Q550.404 141.398 548.112 144.037 Q545.82 146.652 545.82 151.398 Q545.82 156.143 548.112 158.782 Q550.404 161.398 554.547 161.398 Q556.399 161.398 558.205 160.912 Q560.033 160.402 561.839 159.407 L561.839 163.342 Q560.056 164.176 558.135 164.592 Q556.237 165.009 554.084 165.009 Q548.228 165.009 544.779 161.328 Q541.33 157.648 541.33 151.398 Q541.33 145.055 544.802 141.421 Q548.297 137.787 554.362 137.787 Q556.33 137.787 558.205 138.203 Q560.08 138.597 561.839 139.407 Z" fill="#000000" fill-rule="nonzero" fill-opacity="1" /><path clip-path="url(#clip930)" d="M573.459 131.051 L573.459 138.412 L582.232 138.412 L582.232 141.722 L573.459 141.722 L573.459 155.796 Q573.459 158.967 574.316 159.87 Q575.195 160.773 577.857 160.773 L582.232 160.773 L582.232 164.338 L577.857 164.338 Q572.927 164.338 571.052 162.509 Q569.177 160.657 569.177 155.796 L569.177 141.722 L566.052 141.722 L566.052 138.412 L569.177 138.412 L569.177 131.051 L573.459 131.051 Z" fill="#000000" fill-rule="nonzero" fill-opacity="1" /><path clip-path="url(#clip930)" d="M587.834 138.412 L592.093 138.412 L592.093 164.338 L587.834 164.338 L587.834 138.412 M587.834 128.319 L592.093 128.319 L592.093 133.713 L587.834 133.713 L587.834 128.319 Z" fill="#000000" fill-rule="nonzero" fill-opacity="1" /><path clip-path="url(#clip930)" d="M611.051 141.398 Q607.626 141.398 605.635 144.083 Q603.644 146.745 603.644 151.398 Q603.644 156.051 605.612 158.736 Q607.602 161.398 611.051 161.398 Q614.454 161.398 616.445 158.713 Q618.436 156.027 618.436 151.398 Q618.436 146.791 616.445 144.106 Q614.454 141.398 611.051 141.398 M611.051 137.787 Q616.607 137.787 619.778 141.398 Q622.95 145.009 622.95 151.398 Q622.95 157.764 619.778 161.398 Q616.607 165.009 611.051 165.009 Q605.473 165.009 602.302 161.398 Q599.153 157.764 599.153 151.398 Q599.153 145.009 602.302 141.398 Q605.473 137.787 611.051 137.787 Z" fill="#000000" fill-rule="nonzero" fill-opacity="1" /><path clip-path="url(#clip930)" d="M651.561 148.689 L651.561 164.338 L647.301 164.338 L647.301 148.828 Q647.301 145.148 645.866 143.319 Q644.431 141.49 641.561 141.49 Q638.112 141.49 636.121 143.69 Q634.13 145.889 634.13 149.685 L634.13 164.338 L629.848 164.338 L629.848 138.412 L634.13 138.412 L634.13 142.44 Q635.658 140.102 637.718 138.944 Q639.801 137.787 642.51 137.787 Q646.977 137.787 649.269 140.565 Q651.561 143.319 651.561 148.689 Z" fill="#000000" fill-rule="nonzero" fill-opacity="1" /><polyline clip-path="url(#clip930)" style="stroke:#e26f46; stroke-linecap:round; stroke-linejoin:round; stroke-width:4; stroke-opacity:1; fill:none" points="253.896,198.898 400.328,198.898 "/>
<path clip-path="url(#clip930)" d="M424.733 181.618 L446.585 181.618 L446.585 185.553 L429.409 185.553 L429.409 195.784 L445.867 195.784 L445.867 199.719 L429.409 199.719 L429.409 212.242 L447.001 212.242 L447.001 216.178 L424.733 216.178 L424.733 181.618 Z" fill="#000000" fill-rule="nonzero" fill-opacity="1" /><path clip-path="url(#clip930)" d="M476.052 190.252 L466.677 202.867 L476.538 216.178 L471.515 216.178 L463.969 205.992 L456.423 216.178 L451.4 216.178 L461.469 202.613 L452.256 190.252 L457.279 190.252 L464.154 199.488 L471.029 190.252 L476.052 190.252 Z" fill="#000000" fill-rule="nonzero" fill-opacity="1" /><path clip-path="url(#clip930)" d="M494.339 203.145 Q489.177 203.145 487.186 204.326 Q485.196 205.506 485.196 208.354 Q485.196 210.622 486.677 211.965 Q488.182 213.284 490.751 213.284 Q494.293 213.284 496.422 210.784 Q498.575 208.261 498.575 204.094 L498.575 203.145 L494.339 203.145 M502.834 201.386 L502.834 216.178 L498.575 216.178 L498.575 212.242 Q497.117 214.603 494.941 215.738 Q492.765 216.849 489.617 216.849 Q485.635 216.849 483.274 214.627 Q480.936 212.381 480.936 208.631 Q480.936 204.256 483.853 202.034 Q486.793 199.812 492.603 199.812 L498.575 199.812 L498.575 199.395 Q498.575 196.455 496.631 194.858 Q494.71 193.238 491.214 193.238 Q488.992 193.238 486.885 193.77 Q484.779 194.303 482.835 195.367 L482.835 191.432 Q485.173 190.53 487.372 190.09 Q489.571 189.627 491.654 189.627 Q497.279 189.627 500.057 192.543 Q502.834 195.46 502.834 201.386 Z" fill="#000000" fill-rule="nonzero" fill-opacity="1" /><path clip-path="url(#clip930)" d="M530.265 191.247 L530.265 195.229 Q528.459 194.233 526.631 193.747 Q524.825 193.238 522.973 193.238 Q518.83 193.238 516.538 195.877 Q514.246 198.492 514.246 203.238 Q514.246 207.983 516.538 210.622 Q518.83 213.238 522.973 213.238 Q524.825 213.238 526.631 212.752 Q528.459 212.242 530.265 211.247 L530.265 215.182 Q528.482 216.016 526.561 216.432 Q524.663 216.849 522.51 216.849 Q516.654 216.849 513.205 213.168 Q509.756 209.488 509.756 203.238 Q509.756 196.895 513.228 193.261 Q516.723 189.627 522.788 189.627 Q524.756 189.627 526.631 190.043 Q528.506 190.437 530.265 191.247 Z" fill="#000000" fill-rule="nonzero" fill-opacity="1" /><path clip-path="url(#clip930)" d="M541.885 182.891 L541.885 190.252 L550.658 190.252 L550.658 193.562 L541.885 193.562 L541.885 207.636 Q541.885 210.807 542.742 211.71 Q543.621 212.613 546.283 212.613 L550.658 212.613 L550.658 216.178 L546.283 216.178 Q541.353 216.178 539.478 214.349 Q537.603 212.497 537.603 207.636 L537.603 193.562 L534.478 193.562 L534.478 190.252 L537.603 190.252 L537.603 182.891 L541.885 182.891 Z" fill="#000000" fill-rule="nonzero" fill-opacity="1" /></svg>
