<?xml version="1.0" encoding="utf-8"?>
<svg xmlns="http://www.w3.org/2000/svg" xmlns:xlink="http://www.w3.org/1999/xlink" width="600" height="400" viewBox="0 0 2400 1600">
<defs>
  <clipPath id="clip490">
    <rect x="0" y="0" width="2400" height="1600"/>
  </clipPath>
</defs>
<path clip-path="url(#clip490)" d="M0 1600 L2400 1600 L2400 0 L0 0  Z" fill="#ffffff" fill-rule="evenodd" fill-opacity="1"/>
<defs>
  <clipPath id="clip491">
    <rect x="480" y="0" width="1681" height="1600"/>
  </clipPath>
</defs>
<path clip-path="url(#clip490)" d="M156.274 1486.45 L2352.76 1486.45 L2352.76 47.2441 L156.274 47.2441  Z" fill="#ffffff" fill-rule="evenodd" fill-opacity="1"/>
<defs>
  <clipPath id="clip492">
    <rect x="156" y="47" width="2197" height="1440"/>
  </clipPath>
</defs>
<polyline clip-path="url(#clip492)" style="stroke:#000000; stroke-linecap:round; stroke-linejoin:round; stroke-width:2; stroke-opacity:0.1; fill:none" points="218.439,1486.45 218.439,47.2441 "/>
<polyline clip-path="url(#clip492)" style="stroke:#000000; stroke-linecap:round; stroke-linejoin:round; stroke-width:2; stroke-opacity:0.1; fill:none" points="736.477,1486.45 736.477,47.2441 "/>
<polyline clip-path="url(#clip492)" style="stroke:#000000; stroke-linecap:round; stroke-linejoin:round; stroke-width:2; stroke-opacity:0.1; fill:none" points="1254.52,1486.45 1254.52,47.2441 "/>
<polyline clip-path="url(#clip492)" style="stroke:#000000; stroke-linecap:round; stroke-linejoin:round; stroke-width:2; stroke-opacity:0.1; fill:none" points="1772.55,1486.45 1772.55,47.2441 "/>
<polyline clip-path="url(#clip492)" style="stroke:#000000; stroke-linecap:round; stroke-linejoin:round; stroke-width:2; stroke-opacity:0.1; fill:none" points="2290.59,1486.45 2290.59,47.2441 "/>
<polyline clip-path="url(#clip490)" style="stroke:#000000; stroke-linecap:round; stroke-linejoin:round; stroke-width:4; stroke-opacity:1; fill:none" points="156.274,1486.45 2352.76,1486.45 "/>
<polyline clip-path="url(#clip490)" style="stroke:#000000; stroke-linecap:round; stroke-linejoin:round; stroke-width:4; stroke-opacity:1; fill:none" points="218.439,1486.45 218.439,1467.55 "/>
<polyline clip-path="url(#clip490)" style="stroke:#000000; stroke-linecap:round; stroke-linejoin:round; stroke-width:4; stroke-opacity:1; fill:none" points="736.477,1486.45 736.477,1467.55 "/>
<polyline clip-path="url(#clip490)" style="stroke:#000000; stroke-linecap:round; stroke-linejoin:round; stroke-width:4; stroke-opacity:1; fill:none" points="1254.52,1486.45 1254.52,1467.55 "/>
<polyline clip-path="url(#clip490)" style="stroke:#000000; stroke-linecap:round; stroke-linejoin:round; stroke-width:4; stroke-opacity:1; fill:none" points="1772.55,1486.45 1772.55,1467.55 "/>
<polyline clip-path="url(#clip490)" style="stroke:#000000; stroke-linecap:round; stroke-linejoin:round; stroke-width:4; stroke-opacity:1; fill:none" points="2290.59,1486.45 2290.59,1467.55 "/>
<path clip-path="url(#clip490)" d="M164.967 1532.02 L194.643 1532.02 L194.643 1535.95 L164.967 1535.95 L164.967 1532.02 Z" fill="#000000" fill-rule="nonzero" fill-opacity="1" /><path clip-path="url(#clip490)" d="M205.545 1544.91 L213.184 1544.91 L213.184 1518.55 L204.874 1520.21 L204.874 1515.95 L213.138 1514.29 L217.814 1514.29 L217.814 1544.91 L225.453 1544.91 L225.453 1548.85 L205.545 1548.85 L205.545 1544.91 Z" fill="#000000" fill-rule="nonzero" fill-opacity="1" /><path clip-path="url(#clip490)" d="M234.897 1542.97 L239.781 1542.97 L239.781 1548.85 L234.897 1548.85 L234.897 1542.97 Z" fill="#000000" fill-rule="nonzero" fill-opacity="1" /><path clip-path="url(#clip490)" d="M259.966 1517.37 Q256.355 1517.37 254.527 1520.93 Q252.721 1524.47 252.721 1531.6 Q252.721 1538.71 254.527 1542.27 Q256.355 1545.82 259.966 1545.82 Q263.601 1545.82 265.406 1542.27 Q267.235 1538.71 267.235 1531.6 Q267.235 1524.47 265.406 1520.93 Q263.601 1517.37 259.966 1517.37 M259.966 1513.66 Q265.776 1513.66 268.832 1518.27 Q271.911 1522.85 271.911 1531.6 Q271.911 1540.33 268.832 1544.94 Q265.776 1549.52 259.966 1549.52 Q254.156 1549.52 251.077 1544.94 Q248.022 1540.33 248.022 1531.6 Q248.022 1522.85 251.077 1518.27 Q254.156 1513.66 259.966 1513.66 Z" fill="#000000" fill-rule="nonzero" fill-opacity="1" /><path clip-path="url(#clip490)" d="M683.503 1532.02 L713.178 1532.02 L713.178 1535.95 L683.503 1535.95 L683.503 1532.02 Z" fill="#000000" fill-rule="nonzero" fill-opacity="1" /><path clip-path="url(#clip490)" d="M733.271 1517.37 Q729.66 1517.37 727.831 1520.93 Q726.026 1524.47 726.026 1531.6 Q726.026 1538.71 727.831 1542.27 Q729.66 1545.82 733.271 1545.82 Q736.905 1545.82 738.711 1542.27 Q740.539 1538.71 740.539 1531.6 Q740.539 1524.47 738.711 1520.93 Q736.905 1517.37 733.271 1517.37 M733.271 1513.66 Q739.081 1513.66 742.137 1518.27 Q745.215 1522.85 745.215 1531.6 Q745.215 1540.33 742.137 1544.94 Q739.081 1549.52 733.271 1549.52 Q727.461 1549.52 724.382 1544.94 Q721.327 1540.33 721.327 1531.6 Q721.327 1522.85 724.382 1518.27 Q727.461 1513.66 733.271 1513.66 Z" fill="#000000" fill-rule="nonzero" fill-opacity="1" /><path clip-path="url(#clip490)" d="M753.433 1542.97 L758.317 1542.97 L758.317 1548.85 L753.433 1548.85 L753.433 1542.97 Z" fill="#000000" fill-rule="nonzero" fill-opacity="1" /><path clip-path="url(#clip490)" d="M768.548 1514.29 L786.905 1514.29 L786.905 1518.22 L772.831 1518.22 L772.831 1526.7 Q773.849 1526.35 774.868 1526.19 Q775.886 1526 776.905 1526 Q782.692 1526 786.072 1529.17 Q789.451 1532.34 789.451 1537.76 Q789.451 1543.34 785.979 1546.44 Q782.507 1549.52 776.187 1549.52 Q774.011 1549.52 771.743 1549.15 Q769.498 1548.78 767.09 1548.04 L767.09 1543.34 Q769.173 1544.47 771.396 1545.03 Q773.618 1545.58 776.095 1545.58 Q780.099 1545.58 782.437 1543.48 Q784.775 1541.37 784.775 1537.76 Q784.775 1534.15 782.437 1532.04 Q780.099 1529.94 776.095 1529.94 Q774.22 1529.94 772.345 1530.35 Q770.493 1530.77 768.548 1531.65 L768.548 1514.29 Z" fill="#000000" fill-rule="nonzero" fill-opacity="1" /><path clip-path="url(#clip490)" d="M1231.9 1517.37 Q1228.29 1517.37 1226.46 1520.93 Q1224.65 1524.47 1224.65 1531.6 Q1224.65 1538.71 1226.46 1542.27 Q1228.29 1545.82 1231.9 1545.82 Q1235.53 1545.82 1237.34 1542.27 Q1239.17 1538.71 1239.17 1531.6 Q1239.17 1524.47 1237.34 1520.93 Q1235.53 1517.37 1231.9 1517.37 M1231.9 1513.66 Q1237.71 1513.66 1240.77 1518.27 Q1243.84 1522.85 1243.84 1531.6 Q1243.84 1540.33 1240.77 1544.94 Q1237.71 1549.52 1231.9 1549.52 Q1226.09 1549.52 1223.01 1544.94 Q1219.96 1540.33 1219.96 1531.6 Q1219.96 1522.85 1223.01 1518.27 Q1226.09 1513.66 1231.9 1513.66 Z" fill="#000000" fill-rule="nonzero" fill-opacity="1" /><path clip-path="url(#clip490)" d="M1252.06 1542.97 L1256.95 1542.97 L1256.95 1548.85 L1252.06 1548.85 L1252.06 1542.97 Z" fill="#000000" fill-rule="nonzero" fill-opacity="1" /><path clip-path="url(#clip490)" d="M1277.13 1517.37 Q1273.52 1517.37 1271.69 1520.93 Q1269.89 1524.47 1269.89 1531.6 Q1269.89 1538.71 1271.69 1542.27 Q1273.52 1545.82 1277.13 1545.82 Q1280.76 1545.82 1282.57 1542.27 Q1284.4 1538.71 1284.4 1531.6 Q1284.4 1524.47 1282.57 1520.93 Q1280.76 1517.37 1277.13 1517.37 M1277.13 1513.66 Q1282.94 1513.66 1286 1518.27 Q1289.08 1522.85 1289.08 1531.6 Q1289.08 1540.33 1286 1544.94 Q1282.94 1549.52 1277.13 1549.52 Q1271.32 1549.52 1268.24 1544.94 Q1265.19 1540.33 1265.19 1531.6 Q1265.19 1522.85 1268.24 1518.27 Q1271.32 1513.66 1277.13 1513.66 Z" fill="#000000" fill-rule="nonzero" fill-opacity="1" /><path clip-path="url(#clip490)" d="M1750.44 1517.37 Q1746.82 1517.37 1745 1520.93 Q1743.19 1524.47 1743.19 1531.6 Q1743.19 1538.71 1745 1542.27 Q1746.82 1545.82 1750.44 1545.82 Q1754.07 1545.82 1755.88 1542.27 Q1757.7 1538.71 1757.7 1531.6 Q1757.7 1524.47 1755.88 1520.93 Q1754.07 1517.37 1750.44 1517.37 M1750.44 1513.66 Q1756.25 1513.66 1759.3 1518.27 Q1762.38 1522.85 1762.38 1531.6 Q1762.38 1540.33 1759.3 1544.94 Q1756.25 1549.52 1750.44 1549.52 Q1744.63 1549.52 1741.55 1544.94 Q1738.49 1540.33 1738.49 1531.6 Q1738.49 1522.85 1741.55 1518.27 Q1744.63 1513.66 1750.44 1513.66 Z" fill="#000000" fill-rule="nonzero" fill-opacity="1" /><path clip-path="url(#clip490)" d="M1770.6 1542.97 L1775.48 1542.97 L1775.48 1548.85 L1770.6 1548.85 L1770.6 1542.97 Z" fill="#000000" fill-rule="nonzero" fill-opacity="1" /><path clip-path="url(#clip490)" d="M1785.71 1514.29 L1804.07 1514.29 L1804.07 1518.22 L1790 1518.22 L1790 1526.7 Q1791.01 1526.35 1792.03 1526.19 Q1793.05 1526 1794.07 1526 Q1799.86 1526 1803.24 1529.17 Q1806.62 1532.34 1806.62 1537.76 Q1806.62 1543.34 1803.14 1546.44 Q1799.67 1549.52 1793.35 1549.52 Q1791.18 1549.52 1788.91 1549.15 Q1786.66 1548.78 1784.25 1548.04 L1784.25 1543.34 Q1786.34 1544.47 1788.56 1545.03 Q1790.78 1545.58 1793.26 1545.58 Q1797.26 1545.58 1799.6 1543.48 Q1801.94 1541.37 1801.94 1537.76 Q1801.94 1534.15 1799.6 1532.04 Q1797.26 1529.94 1793.26 1529.94 Q1791.38 1529.94 1789.51 1530.35 Q1787.66 1530.77 1785.71 1531.65 L1785.71 1514.29 Z" fill="#000000" fill-rule="nonzero" fill-opacity="1" /><path clip-path="url(#clip490)" d="M2257.74 1544.91 L2265.38 1544.91 L2265.38 1518.55 L2257.07 1520.21 L2257.07 1515.95 L2265.34 1514.29 L2270.01 1514.29 L2270.01 1544.91 L2277.65 1544.91 L2277.65 1548.85 L2257.74 1548.85 L2257.74 1544.91 Z" fill="#000000" fill-rule="nonzero" fill-opacity="1" /><path clip-path="url(#clip490)" d="M2287.1 1542.97 L2291.98 1542.97 L2291.98 1548.85 L2287.1 1548.85 L2287.1 1542.97 Z" fill="#000000" fill-rule="nonzero" fill-opacity="1" /><path clip-path="url(#clip490)" d="M2312.17 1517.37 Q2308.55 1517.37 2306.73 1520.93 Q2304.92 1524.47 2304.92 1531.6 Q2304.92 1538.71 2306.73 1542.27 Q2308.55 1545.82 2312.17 1545.82 Q2315.8 1545.82 2317.61 1542.27 Q2319.43 1538.71 2319.43 1531.6 Q2319.43 1524.47 2317.61 1520.93 Q2315.8 1517.37 2312.17 1517.37 M2312.17 1513.66 Q2317.98 1513.66 2321.03 1518.27 Q2324.11 1522.85 2324.11 1531.6 Q2324.11 1540.33 2321.03 1544.94 Q2317.98 1549.52 2312.17 1549.52 Q2306.36 1549.52 2303.28 1544.94 Q2300.22 1540.33 2300.22 1531.6 Q2300.22 1522.85 2303.28 1518.27 Q2306.36 1513.66 2312.17 1513.66 Z" fill="#000000" fill-rule="nonzero" fill-opacity="1" /><polyline clip-path="url(#clip492)" style="stroke:#000000; stroke-linecap:round; stroke-linejoin:round; stroke-width:2; stroke-opacity:0.1; fill:none" points="156.274,1257.44 2352.76,1257.44 "/>
<polyline clip-path="url(#clip492)" style="stroke:#000000; stroke-linecap:round; stroke-linejoin:round; stroke-width:2; stroke-opacity:0.1; fill:none" points="156.274,982.982 2352.76,982.982 "/>
<polyline clip-path="url(#clip492)" style="stroke:#000000; stroke-linecap:round; stroke-linejoin:round; stroke-width:2; stroke-opacity:0.1; fill:none" points="156.274,708.529 2352.76,708.529 "/>
<polyline clip-path="url(#clip492)" style="stroke:#000000; stroke-linecap:round; stroke-linejoin:round; stroke-width:2; stroke-opacity:0.1; fill:none" points="156.274,434.076 2352.76,434.076 "/>
<polyline clip-path="url(#clip492)" style="stroke:#000000; stroke-linecap:round; stroke-linejoin:round; stroke-width:2; stroke-opacity:0.1; fill:none" points="156.274,159.622 2352.76,159.622 "/>
<polyline clip-path="url(#clip490)" style="stroke:#000000; stroke-linecap:round; stroke-linejoin:round; stroke-width:4; stroke-opacity:1; fill:none" points="156.274,1486.45 156.274,47.2441 "/>
<polyline clip-path="url(#clip490)" style="stroke:#000000; stroke-linecap:round; stroke-linejoin:round; stroke-width:4; stroke-opacity:1; fill:none" points="156.274,1257.44 175.172,1257.44 "/>
<polyline clip-path="url(#clip490)" style="stroke:#000000; stroke-linecap:round; stroke-linejoin:round; stroke-width:4; stroke-opacity:1; fill:none" points="156.274,982.982 175.172,982.982 "/>
<polyline clip-path="url(#clip490)" style="stroke:#000000; stroke-linecap:round; stroke-linejoin:round; stroke-width:4; stroke-opacity:1; fill:none" points="156.274,708.529 175.172,708.529 "/>
<polyline clip-path="url(#clip490)" style="stroke:#000000; stroke-linecap:round; stroke-linejoin:round; stroke-width:4; stroke-opacity:1; fill:none" points="156.274,434.076 175.172,434.076 "/>
<polyline clip-path="url(#clip490)" style="stroke:#000000; stroke-linecap:round; stroke-linejoin:round; stroke-width:4; stroke-opacity:1; fill:none" points="156.274,159.622 175.172,159.622 "/>
<path clip-path="url(#clip490)" d="M63.0985 1243.23 Q59.4875 1243.23 57.6588 1246.8 Q55.8532 1250.34 55.8532 1257.47 Q55.8532 1264.58 57.6588 1268.14 Q59.4875 1271.68 63.0985 1271.68 Q66.7328 1271.68 68.5383 1268.14 Q70.367 1264.58 70.367 1257.47 Q70.367 1250.34 68.5383 1246.8 Q66.7328 1243.23 63.0985 1243.23 M63.0985 1239.53 Q68.9087 1239.53 71.9642 1244.14 Q75.0429 1248.72 75.0429 1257.47 Q75.0429 1266.2 71.9642 1270.8 Q68.9087 1275.39 63.0985 1275.39 Q57.2884 1275.39 54.2097 1270.8 Q51.1542 1266.2 51.1542 1257.47 Q51.1542 1248.72 54.2097 1244.14 Q57.2884 1239.53 63.0985 1239.53 Z" fill="#000000" fill-rule="nonzero" fill-opacity="1" /><path clip-path="url(#clip490)" d="M83.2605 1268.84 L88.1447 1268.84 L88.1447 1274.72 L83.2605 1274.72 L83.2605 1268.84 Z" fill="#000000" fill-rule="nonzero" fill-opacity="1" /><path clip-path="url(#clip490)" d="M108.33 1243.23 Q104.719 1243.23 102.89 1246.8 Q101.084 1250.34 101.084 1257.47 Q101.084 1264.58 102.89 1268.14 Q104.719 1271.68 108.33 1271.68 Q111.964 1271.68 113.77 1268.14 Q115.598 1264.58 115.598 1257.47 Q115.598 1250.34 113.77 1246.8 Q111.964 1243.23 108.33 1243.23 M108.33 1239.53 Q114.14 1239.53 117.195 1244.14 Q120.274 1248.72 120.274 1257.47 Q120.274 1266.2 117.195 1270.8 Q114.14 1275.39 108.33 1275.39 Q102.52 1275.39 99.4409 1270.8 Q96.3854 1266.2 96.3854 1257.47 Q96.3854 1248.72 99.4409 1244.14 Q102.52 1239.53 108.33 1239.53 Z" fill="#000000" fill-rule="nonzero" fill-opacity="1" /><path clip-path="url(#clip490)" d="M63.7467 968.781 Q60.1356 968.781 58.3069 972.346 Q56.5014 975.888 56.5014 983.017 Q56.5014 990.124 58.3069 993.688 Q60.1356 997.23 63.7467 997.23 Q67.3809 997.23 69.1865 993.688 Q71.0152 990.124 71.0152 983.017 Q71.0152 975.888 69.1865 972.346 Q67.3809 968.781 63.7467 968.781 M63.7467 965.077 Q69.5568 965.077 72.6124 969.684 Q75.6911 974.267 75.6911 983.017 Q75.6911 991.744 72.6124 996.35 Q69.5568 1000.93 63.7467 1000.93 Q57.9365 1000.93 54.8578 996.35 Q51.8023 991.744 51.8023 983.017 Q51.8023 974.267 54.8578 969.684 Q57.9365 965.077 63.7467 965.077 Z" fill="#000000" fill-rule="nonzero" fill-opacity="1" /><path clip-path="url(#clip490)" d="M83.9086 994.383 L88.7928 994.383 L88.7928 1000.26 L83.9086 1000.26 L83.9086 994.383 Z" fill="#000000" fill-rule="nonzero" fill-opacity="1" /><path clip-path="url(#clip490)" d="M113.145 981.628 Q116.501 982.346 118.376 984.614 Q120.274 986.883 120.274 990.216 Q120.274 995.332 116.756 998.133 Q113.237 1000.93 106.756 1000.93 Q104.58 1000.93 102.265 1000.49 Q99.9733 1000.08 97.5197 999.221 L97.5197 994.707 Q99.4641 995.841 101.779 996.42 Q104.094 996.999 106.617 996.999 Q111.015 996.999 113.307 995.262 Q115.621 993.526 115.621 990.216 Q115.621 987.161 113.469 985.448 Q111.339 983.712 107.52 983.712 L103.492 983.712 L103.492 979.869 L107.705 979.869 Q111.154 979.869 112.983 978.503 Q114.811 977.114 114.811 974.522 Q114.811 971.86 112.913 970.448 Q111.038 969.013 107.52 969.013 Q105.598 969.013 103.399 969.429 Q101.2 969.846 98.5613 970.726 L98.5613 966.559 Q101.223 965.818 103.538 965.448 Q105.876 965.077 107.936 965.077 Q113.26 965.077 116.362 967.508 Q119.464 969.915 119.464 974.036 Q119.464 976.906 117.82 978.897 Q116.177 980.864 113.145 981.628 Z" fill="#000000" fill-rule="nonzero" fill-opacity="1" /><path clip-path="url(#clip490)" d="M62.9365 694.328 Q59.3254 694.328 57.4967 697.893 Q55.6912 701.434 55.6912 708.564 Q55.6912 715.67 57.4967 719.235 Q59.3254 722.777 62.9365 722.777 Q66.5707 722.777 68.3763 719.235 Q70.205 715.67 70.205 708.564 Q70.205 701.434 68.3763 697.893 Q66.5707 694.328 62.9365 694.328 M62.9365 690.624 Q68.7467 690.624 71.8022 695.231 Q74.8809 699.814 74.8809 708.564 Q74.8809 717.291 71.8022 721.897 Q68.7467 726.48 62.9365 726.48 Q57.1264 726.48 54.0477 721.897 Q50.9921 717.291 50.9921 708.564 Q50.9921 699.814 54.0477 695.231 Q57.1264 690.624 62.9365 690.624 Z" fill="#000000" fill-rule="nonzero" fill-opacity="1" /><path clip-path="url(#clip490)" d="M83.0984 719.929 L87.9827 719.929 L87.9827 725.809 L83.0984 725.809 L83.0984 719.929 Z" fill="#000000" fill-rule="nonzero" fill-opacity="1" /><path clip-path="url(#clip490)" d="M108.746 706.666 Q105.598 706.666 103.746 708.818 Q101.918 710.971 101.918 714.721 Q101.918 718.448 103.746 720.624 Q105.598 722.777 108.746 722.777 Q111.895 722.777 113.723 720.624 Q115.575 718.448 115.575 714.721 Q115.575 710.971 113.723 708.818 Q111.895 706.666 108.746 706.666 M118.029 692.013 L118.029 696.272 Q116.27 695.439 114.464 694.999 Q112.682 694.559 110.922 694.559 Q106.293 694.559 103.839 697.684 Q101.409 700.809 101.061 707.129 Q102.427 705.115 104.487 704.05 Q106.547 702.962 109.024 702.962 Q114.233 702.962 117.242 706.133 Q120.274 709.281 120.274 714.721 Q120.274 720.045 117.126 723.263 Q113.978 726.48 108.746 726.48 Q102.751 726.48 99.5798 721.897 Q96.4085 717.291 96.4085 708.564 Q96.4085 700.369 100.297 695.508 Q104.186 690.624 110.737 690.624 Q112.496 690.624 114.279 690.971 Q116.084 691.319 118.029 692.013 Z" fill="#000000" fill-rule="nonzero" fill-opacity="1" /><path clip-path="url(#clip490)" d="M63.2837 419.874 Q59.6726 419.874 57.8439 423.439 Q56.0384 426.981 56.0384 434.11 Q56.0384 441.217 57.8439 444.782 Q59.6726 448.323 63.2837 448.323 Q66.918 448.323 68.7235 444.782 Q70.5522 441.217 70.5522 434.11 Q70.5522 426.981 68.7235 423.439 Q66.918 419.874 63.2837 419.874 M63.2837 416.171 Q69.0939 416.171 72.1494 420.777 Q75.2281 425.36 75.2281 434.11 Q75.2281 442.837 72.1494 447.444 Q69.0939 452.027 63.2837 452.027 Q57.4736 452.027 54.3949 447.444 Q51.3393 442.837 51.3393 434.11 Q51.3393 425.36 54.3949 420.777 Q57.4736 416.171 63.2837 416.171 Z" fill="#000000" fill-rule="nonzero" fill-opacity="1" /><path clip-path="url(#clip490)" d="M83.4457 445.476 L88.3299 445.476 L88.3299 451.356 L83.4457 451.356 L83.4457 445.476 Z" fill="#000000" fill-rule="nonzero" fill-opacity="1" /><path clip-path="url(#clip490)" d="M98.6539 450.638 L98.6539 446.379 Q100.413 447.212 102.219 447.652 Q104.024 448.092 105.76 448.092 Q110.39 448.092 112.82 444.99 Q115.274 441.865 115.621 435.522 Q114.279 437.513 112.219 438.578 Q110.158 439.643 107.658 439.643 Q102.473 439.643 99.4409 436.518 Q96.4317 433.37 96.4317 427.93 Q96.4317 422.606 99.5798 419.388 Q102.728 416.171 107.959 416.171 Q113.955 416.171 117.103 420.777 Q120.274 425.36 120.274 434.11 Q120.274 442.282 116.385 447.166 Q112.52 452.027 105.969 452.027 Q104.209 452.027 102.404 451.68 Q100.598 451.333 98.6539 450.638 M107.959 435.985 Q111.108 435.985 112.936 433.833 Q114.788 431.68 114.788 427.93 Q114.788 424.203 112.936 422.05 Q111.108 419.874 107.959 419.874 Q104.811 419.874 102.959 422.05 Q101.131 424.203 101.131 427.93 Q101.131 431.68 102.959 433.833 Q104.811 435.985 107.959 435.985 Z" fill="#000000" fill-rule="nonzero" fill-opacity="1" /><path clip-path="url(#clip490)" d="M55.506 172.967 L63.1448 172.967 L63.1448 146.602 L54.8347 148.268 L54.8347 144.009 L63.0985 142.342 L67.7744 142.342 L67.7744 172.967 L75.4133 172.967 L75.4133 176.902 L55.506 176.902 L55.506 172.967 Z" fill="#000000" fill-rule="nonzero" fill-opacity="1" /><path clip-path="url(#clip490)" d="M84.8577 171.023 L89.7419 171.023 L89.7419 176.902 L84.8577 176.902 L84.8577 171.023 Z" fill="#000000" fill-rule="nonzero" fill-opacity="1" /><path clip-path="url(#clip490)" d="M103.955 172.967 L120.274 172.967 L120.274 176.902 L98.3298 176.902 L98.3298 172.967 Q100.992 170.212 105.575 165.583 Q110.182 160.93 111.362 159.588 Q113.608 157.064 114.487 155.328 Q115.39 153.569 115.39 151.879 Q115.39 149.125 113.445 147.389 Q111.524 145.652 108.422 145.652 Q106.223 145.652 103.77 146.416 Q101.339 147.18 98.5613 148.731 L98.5613 144.009 Q101.385 142.875 103.839 142.296 Q106.293 141.717 108.33 141.717 Q113.7 141.717 116.895 144.402 Q120.089 147.088 120.089 151.578 Q120.089 153.708 119.279 155.629 Q118.492 157.527 116.385 160.12 Q115.807 160.791 112.705 164.009 Q109.603 167.203 103.955 172.967 Z" fill="#000000" fill-rule="nonzero" fill-opacity="1" /><polyline clip-path="url(#clip492)" style="stroke:#009af9; stroke-linecap:round; stroke-linejoin:round; stroke-width:16; stroke-opacity:1; fill:none" stroke-dasharray="8, 16" points="218.439,1121.59 228.852,1100.6 239.264,1084.42 249.677,1073.98 260.09,1070.5 270.503,1074.91 280.916,1086.97 291.329,1105.02 301.741,1126.65 312.154,1149.86 322.567,1173.97 332.98,1199.69 343.393,1228.34 353.805,1260.78 364.218,1296.4 374.631,1332.86 385.044,1366.56 395.457,1394.04 405.87,1413.42 416.282,1425.18 426.695,1431.45 437.108,1434.53 447.521,1435.19 457.934,1432 468.347,1422.18 478.759,1403.76 489.172,1377.78 499.585,1348.39 509.998,1320.12 520.411,1294.02 530.824,1266.83 541.236,1234.6 551.649,1197.55 562.062,1160.98 572.475,1131 582.888,1109.76 593.301,1094.97 603.713,1083.7 614.126,1075.77 624.539,1073.34 634.952,1078.32 645.365,1090.52 655.777,1108.14 666.19,1129.28 676.603,1153.02 687.016,1179.48 697.429,1209.1 707.842,1241.8 718.254,1276.48 728.667,1311.11 739.08,1343.19 749.493,1370.76 759.906,1393.1 770.319,1410.93 780.731,1425.37 791.144,1436.33 801.557,1441.87 811.97,1439.45 822.383,1428.42 832.796,1411.04 843.208,1390.8 853.621,1369.81 864.034,1347.6 874.447,1322.06 884.86,1291.5 895.273,1256.11 905.685,1218.15 916.098,1181.05 926.511,1148.1 936.924,1121.54 947.337,1102.19 957.749,1089.74 968.162,1083.22 978.575,1081.59 988.988,1084.04 999.401,1090.14 1009.81,1099.83 1020.23,1113.31 1030.64,1130.89 1041.05,1152.92 1051.46,1179.56 1061.88,1210.66 1072.29,1245.52 1082.7,1282.8 1093.12,1320.42 1103.53,1355.78 1113.94,1386.12 1124.35,1409.14 1134.77,1423.5 1145.18,1429.3 1155.59,1428.1 1166.01,1422.97 1176.42,1418.29 1186.83,1419.11 1197.24,1429.01 1207.66,1444.59 1218.07,1445.72 1228.48,1387.31 1238.9,1214.7 1249.31,923.703 1259.72,609.384 1270.13,395.973 1280.55,317.879 1290.96,321.892 1301.37,346.524 1311.79,360.572 1322.2,358.081 1332.61,344.866 1343.02,329.435 1353.44,318.49 1363.85,315.421 1374.26,320.443 1384.68,331.46 1395.09,345.15 1405.5,357.992 1415.91,367.044 1426.33,370.414 1436.74,367.437 1447.15,358.637 1457.57,345.571 1467.98,330.62 1478.39,316.73 1488.8,307.059 1499.22,304.496 1509.63,311.005 1520.04,326.863 1530.45,349.987 1540.87,375.69 1551.28,397.22 1561.69,407.243 1572.11,400.067 1582.52,373.992 1592.93,332.967 1603.34,286.807 1613.76,249.524 1624.17,235.803 1634.58,256.096 1645,311.248 1655.41,388.268 1665.82,460.502 1676.23,496.235 1686.65,475.343 1697.06,403.621 1707.47,311.103 1717.89,234.42 1728.3,198.392 1738.71,208.879 1749.12,256.122 1759.54,322.268 1769.95,388.403 1780.36,439.098 1790.78,464.436 1801.19,460.407 1811.6,428.597 1822.01,375.597 1832.43,312.155 1842.84,251.914 1853.25,209.534 1863.67,198.066 1874.08,225.522 1884.49,290.959 1894.9,381.241 1905.32,471.017 1915.73,528.823 1926.14,529.45 1936.56,466.978 1946.97,359.821 1957.38,243.844 1967.79,158.049 1978.21,130.474 1988.62,168.958 1999.03,259.156 2009.45,371.129 2019.86,471.736 2030.27,535.526 2040.68,548.853 2051.1,508.861 2061.51,422.311 2071.92,306.65 2082.33,190.944 2092.75,111.717 2103.16,100.681 2113.57,168.386 2123.99,295.106 2134.4,437.716 2144.81,548.566 2155.22,593.709 2165.64,562.34 2176.05,467.418 2186.46,340.091 2196.88,219.562 2207.29,140.444 2217.7,121.563 2228.11,161.167 2238.53,241.029 2248.94,336.558 2259.35,426.533 2269.77,497.925 2280.18,545.799 2290.59,570.934 "/>
<polyline clip-path="url(#clip492)" style="stroke:#e26f46; stroke-linecap:round; stroke-linejoin:round; stroke-width:4; stroke-opacity:1; fill:none" points="218.439,1120.03 228.852,1100.53 239.264,1086.16 249.677,1077.37 260.09,1074.47 270.503,1077.53 280.916,1086.47 291.329,1100.98 301.741,1120.6 312.154,1144.69 322.567,1172.46 332.98,1203 343.393,1235.32 353.805,1268.36 364.218,1301.04 374.631,1332.3 385.044,1361.12 395.457,1386.55 405.87,1407.77 416.282,1424.08 426.695,1434.95 437.108,1440.03 447.521,1439.15 457.934,1432.34 468.347,1419.82 478.759,1402 489.172,1379.47 499.585,1352.95 509.998,1323.31 520.411,1291.52 530.824,1258.62 541.236,1225.69 551.649,1193.78 562.062,1163.96 572.475,1137.18 582.888,1114.34 593.301,1096.16 603.713,1083.24 614.126,1076.01 624.539,1074.7 634.952,1079.36 645.365,1089.83 655.777,1105.76 666.19,1126.65 676.603,1151.81 687.016,1180.41 697.429,1211.53 707.842,1244.14 718.254,1277.19 728.667,1309.6 739.08,1340.3 749.493,1368.3 759.906,1392.68 770.319,1412.64 780.731,1427.54 791.144,1436.89 801.557,1440.38 811.97,1437.9 822.383,1429.53 832.796,1415.55 843.208,1396.4 853.621,1372.72 864.034,1345.27 874.447,1314.96 884.86,1282.77 895.273,1249.76 905.685,1216.99 916.098,1185.55 926.511,1156.45 936.924,1130.64 947.337,1108.98 957.749,1092.16 968.162,1080.73 978.575,1075.08 988.988,1075.37 999.401,1081.6 1009.81,1093.58 1020.23,1110.9 1030.64,1133 1041.05,1159.17 1051.46,1188.54 1061.88,1220.16 1072.29,1253 1082.7,1285.98 1093.12,1318.03 1103.53,1348.11 1113.94,1375.22 1124.35,1398.49 1134.77,1417.16 1145.18,1430.61 1155.59,1438.41 1166.01,1440.3 1176.42,1436.23 1186.83,1426.32 1197.24,1410.9 1207.66,1390.47 1218.07,1365.7 1228.48,1337.39 1238.9,1306.48 1249.31,1273.96 1259.72,341.263 1270.13,339.751 1280.55,341.127 1290.96,345.708 1301.37,352.09 1311.79,357.576 1322.2,359.201 1332.61,354.979 1343.02,344.916 1353.44,331.35 1363.85,318.44 1374.26,310.898 1384.68,312.345 1395.09,323.852 1405.5,343.206 1415.91,365.232 1426.33,383.169 1436.74,390.734 1447.15,384.258 1457.57,364.162 1467.98,335.258 1478.39,305.636 1488.8,284.405 1499.22,278.905 1509.63,292.238 1520.04,321.942 1530.45,360.303 1540.87,396.338 1551.28,418.939 1561.69,420.277 1572.11,398.443 1582.52,358.427 1592.93,311.059 1603.34,270.086 1613.76,248.183 1624.17,253.053 1634.58,284.808 1645,335.502 1655.41,391.075 1665.82,435.251 1676.23,454.296 1686.65,441.272 1697.06,398.445 1707.47,337.062 1717.89,274.422 1728.3,229.003 1738.71,215.015 1749.12,237.984 1759.54,292.73 1769.95,364.45 1780.36,432.7 1790.78,477.227 1801.19,483.972 1811.6,449.47 1822.01,382.289 1832.43,300.951 1842.84,228.838 1853.25,187.468 1863.67,190.084 1874.08,237.458 1884.49,317.232 1894.9,407.111 1905.32,481.082 1915.73,516.952 1926.14,502.984 1936.56,441.69 1946.97,349.535 1957.38,252.537 1967.79,178.925 1978.21,150.924 1988.62,178.059 1999.03,253.997 2009.45,357.939 2019.86,460.312 2030.27,531.174 2040.68,548.973 2051.1,507.081 2061.51,416.133 2071.92,301.376 2082.33,195.666 2092.75,130.064 2103.16,124.713 2113.57,182.677 2123.99,288.624 2134.4,412.85 2144.81,519.602 2155.22,577.367 2165.64,568.17 2176.05,493.133 2186.46,372.591 2196.88,240.599 2207.29,135.318 2217.7,87.9763 2228.11,113.623 2238.53,206.381 2248.94,340.713 2259.35,478.432 2269.77,579.566 2280.18,613.944 2290.59,570.198 "/>
<path clip-path="url(#clip490)" d="M229.49 250.738 L675.966 250.738 L675.966 95.2176 L229.49 95.2176  Z" fill="#ffffff" fill-rule="evenodd" fill-opacity="1"/>
<polyline clip-path="url(#clip490)" style="stroke:#000000; stroke-linecap:round; stroke-linejoin:round; stroke-width:4; stroke-opacity:1; fill:none" points="229.49,250.738 675.966,250.738 675.966,95.2176 229.49,95.2176 229.49,250.738 "/>
<polyline clip-path="url(#clip490)" style="stroke:#009af9; stroke-linecap:round; stroke-linejoin:round; stroke-width:16; stroke-opacity:1; fill:none" stroke-dasharray="8, 16" points="253.896,147.058 400.328,147.058 "/>
<path clip-path="url(#clip490)" d="M429.409 133.62 L429.409 146.606 L435.289 146.606 Q438.552 146.606 440.335 144.916 Q442.117 143.227 442.117 140.102 Q442.117 137 440.335 135.31 Q438.552 133.62 435.289 133.62 L429.409 133.62 M424.733 129.778 L435.289 129.778 Q441.099 129.778 444.062 132.416 Q447.048 135.032 447.048 140.102 Q447.048 145.217 444.062 147.833 Q441.099 150.449 435.289 150.449 L429.409 150.449 L429.409 164.338 L424.733 164.338 L424.733 129.778 Z" fill="#000000" fill-rule="nonzero" fill-opacity="1" /><path clip-path="url(#clip490)" d="M467.325 142.393 Q466.608 141.977 465.751 141.791 Q464.918 141.583 463.899 141.583 Q460.288 141.583 458.344 143.944 Q456.423 146.282 456.423 150.68 L456.423 164.338 L452.14 164.338 L452.14 138.412 L456.423 138.412 L456.423 142.44 Q457.765 140.078 459.918 138.944 Q462.071 137.787 465.149 137.787 Q465.589 137.787 466.122 137.856 Q466.654 137.903 467.302 138.018 L467.325 142.393 Z" fill="#000000" fill-rule="nonzero" fill-opacity="1" /><path clip-path="url(#clip490)" d="M492.927 150.31 L492.927 152.393 L473.344 152.393 Q473.622 156.791 475.983 159.106 Q478.367 161.398 482.603 161.398 Q485.057 161.398 487.348 160.796 Q489.663 160.194 491.932 158.99 L491.932 163.018 Q489.64 163.99 487.233 164.5 Q484.825 165.009 482.348 165.009 Q476.145 165.009 472.511 161.398 Q468.899 157.787 468.899 151.629 Q468.899 145.264 472.325 141.537 Q475.774 137.787 481.608 137.787 Q486.839 137.787 489.872 141.166 Q492.927 144.523 492.927 150.31 M488.668 149.06 Q488.622 145.565 486.7 143.481 Q484.802 141.398 481.654 141.398 Q478.089 141.398 475.936 143.412 Q473.807 145.426 473.483 149.083 L488.668 149.06 Z" fill="#000000" fill-rule="nonzero" fill-opacity="1" /><path clip-path="url(#clip490)" d="M516.978 142.347 L516.978 128.319 L521.237 128.319 L521.237 164.338 L516.978 164.338 L516.978 160.449 Q515.635 162.763 513.575 163.898 Q511.538 165.009 508.668 165.009 Q503.969 165.009 501.006 161.259 Q498.066 157.509 498.066 151.398 Q498.066 145.287 501.006 141.537 Q503.969 137.787 508.668 137.787 Q511.538 137.787 513.575 138.921 Q515.635 140.032 516.978 142.347 M502.464 151.398 Q502.464 156.097 504.385 158.782 Q506.33 161.444 509.709 161.444 Q513.089 161.444 515.033 158.782 Q516.978 156.097 516.978 151.398 Q516.978 146.699 515.033 144.037 Q513.089 141.352 509.709 141.352 Q506.33 141.352 504.385 144.037 Q502.464 146.699 502.464 151.398 Z" fill="#000000" fill-rule="nonzero" fill-opacity="1" /><path clip-path="url(#clip490)" d="M530.01 138.412 L534.269 138.412 L534.269 164.338 L530.01 164.338 L530.01 138.412 M530.01 128.319 L534.269 128.319 L534.269 133.713 L530.01 133.713 L530.01 128.319 Z" fill="#000000" fill-rule="nonzero" fill-opacity="1" /><path clip-path="url(#clip490)" d="M561.839 139.407 L561.839 143.389 Q560.033 142.393 558.205 141.907 Q556.399 141.398 554.547 141.398 Q550.404 141.398 548.112 144.037 Q545.82 146.652 545.82 151.398 Q545.82 156.143 548.112 158.782 Q550.404 161.398 554.547 161.398 Q556.399 161.398 558.205 160.912 Q560.033 160.402 561.839 159.407 L561.839 163.342 Q560.056 164.176 558.135 164.592 Q556.237 165.009 554.084 165.009 Q548.228 165.009 544.779 161.328 Q541.33 157.648 541.33 151.398 Q541.33 145.055 544.802 141.421 Q548.297 137.787 554.362 137.787 Q556.33 137.787 558.205 138.203 Q560.08 138.597 561.839 139.407 Z" fill="#000000" fill-rule="nonzero" fill-opacity="1" /><path clip-path="url(#clip490)" d="M573.459 131.051 L573.459 138.412 L582.232 138.412 L582.232 141.722 L573.459 141.722 L573.459 155.796 Q573.459 158.967 574.316 159.87 Q575.195 160.773 577.857 160.773 L582.232 160.773 L582.232 164.338 L577.857 164.338 Q572.927 164.338 571.052 162.509 Q569.177 160.657 569.177 155.796 L569.177 141.722 L566.052 141.722 L566.052 138.412 L569.177 138.412 L569.177 131.051 L573.459 131.051 Z" fill="#000000" fill-rule="nonzero" fill-opacity="1" /><path clip-path="url(#clip490)" d="M587.834 138.412 L592.093 138.412 L592.093 164.338 L587.834 164.338 L587.834 138.412 M587.834 128.319 L592.093 128.319 L592.093 133.713 L587.834 133.713 L587.834 128.319 Z" fill="#000000" fill-rule="nonzero" fill-opacity="1" /><path clip-path="url(#clip490)" d="M611.051 141.398 Q607.626 141.398 605.635 144.083 Q603.644 146.745 603.644 151.398 Q603.644 156.051 605.612 158.736 Q607.602 161.398 611.051 161.398 Q614.454 161.398 616.445 158.713 Q618.436 156.027 618.436 151.398 Q618.436 146.791 616.445 144.106 Q614.454 141.398 611.051 141.398 M611.051 137.787 Q616.607 137.787 619.778 141.398 Q622.95 145.009 622.95 151.398 Q622.95 157.764 619.778 161.398 Q616.607 165.009 611.051 165.009 Q605.473 165.009 602.302 161.398 Q599.153 157.764 599.153 151.398 Q599.153 145.009 602.302 141.398 Q605.473 137.787 611.051 137.787 Z" fill="#000000" fill-rule="nonzero" fill-opacity="1" /><path clip-path="url(#clip490)" d="M651.561 148.689 L651.561 164.338 L647.301 164.338 L647.301 148.828 Q647.301 145.148 645.866 143.319 Q644.431 141.49 641.561 141.49 Q638.112 141.49 636.121 143.69 Q634.13 145.889 634.13 149.685 L634.13 164.338 L629.848 164.338 L629.848 138.412 L634.13 138.412 L634.13 142.44 Q635.658 140.102 637.718 138.944 Q639.801 137.787 642.51 137.787 Q646.977 137.787 649.269 140.565 Q651.561 143.319 651.561 148.689 Z" fill="#000000" fill-rule="nonzero" fill-opacity="1" /><polyline clip-path="url(#clip490)" style="stroke:#e26f46; stroke-linecap:round; stroke-linejoin:round; stroke-width:4; stroke-opacity:1; fill:none" points="253.896,198.898 400.328,198.898 "/>
<path clip-path="url(#clip490)" d="M424.733 181.618 L446.585 181.618 L446.585 185.553 L429.409 185.553 L429.409 195.784 L445.867 195.784 L445.867 199.719 L429.409 199.719 L429.409 212.242 L447.001 212.242 L447.001 216.178 L424.733 216.178 L424.733 181.618 Z" fill="#000000" fill-rule="nonzero" fill-opacity="1" /><path clip-path="url(#clip490)" d="M476.052 190.252 L466.677 202.867 L476.538 216.178 L471.515 216.178 L463.969 205.992 L456.423 216.178 L451.4 216.178 L461.469 202.613 L452.256 190.252 L457.279 190.252 L464.154 199.488 L471.029 190.252 L476.052 190.252 Z" fill="#000000" fill-rule="nonzero" fill-opacity="1" /><path clip-path="url(#clip490)" d="M494.339 203.145 Q489.177 203.145 487.186 204.326 Q485.196 205.506 485.196 208.354 Q485.196 210.622 486.677 211.965 Q488.182 213.284 490.751 213.284 Q494.293 213.284 496.422 210.784 Q498.575 208.261 498.575 204.094 L498.575 203.145 L494.339 203.145 M502.834 201.386 L502.834 216.178 L498.575 216.178 L498.575 212.242 Q497.117 214.603 494.941 215.738 Q492.765 216.849 489.617 216.849 Q485.635 216.849 483.274 214.627 Q480.936 212.381 480.936 208.631 Q480.936 204.256 483.853 202.034 Q486.793 199.812 492.603 199.812 L498.575 199.812 L498.575 199.395 Q498.575 196.455 496.631 194.858 Q494.71 193.238 491.214 193.238 Q488.992 193.238 486.885 193.77 Q484.779 194.303 482.835 195.367 L482.835 191.432 Q485.173 190.53 487.372 190.09 Q489.571 189.627 491.654 189.627 Q497.279 189.627 500.057 192.543 Q502.834 195.46 502.834 201.386 Z" fill="#000000" fill-rule="nonzero" fill-opacity="1" /><path clip-path="url(#clip490)" d="M530.265 191.247 L530.265 195.229 Q528.459 194.233 526.631 193.747 Q524.825 193.238 522.973 193.238 Q518.83 193.238 516.538 195.877 Q514.246 198.492 514.246 203.238 Q514.246 207.983 516.538 210.622 Q518.83 213.238 522.973 213.238 Q524.825 213.238 526.631 212.752 Q528.459 212.242 530.265 211.247 L530.265 215.182 Q528.482 216.016 526.561 216.432 Q524.663 216.849 522.51 216.849 Q516.654 216.849 513.205 213.168 Q509.756 209.488 509.756 203.238 Q509.756 196.895 513.228 193.261 Q516.723 189.627 522.788 189.627 Q524.756 189.627 526.631 190.043 Q528.506 190.437 530.265 191.247 Z" fill="#000000" fill-rule="nonzero" fill-opacity="1" /><path clip-path="url(#clip490)" d="M541.885 182.891 L541.885 190.252 L550.658 190.252 L550.658 193.562 L541.885 193.562 L541.885 207.636 Q541.885 210.807 542.742 211.71 Q543.621 212.613 546.283 212.613 L550.658 212.613 L550.658 216.178 L546.283 216.178 Q541.353 216.178 539.478 214.349 Q537.603 212.497 537.603 207.636 L537.603 193.562 L534.478 193.562 L534.478 190.252 L537.603 190.252 L537.603 182.891 L541.885 182.891 Z" fill="#000000" fill-rule="nonzero" fill-opacity="1" /></svg>
