<?xml version="1.0" encoding="utf-8"?>
<svg xmlns="http://www.w3.org/2000/svg" xmlns:xlink="http://www.w3.org/1999/xlink" width="600" height="400" viewBox="0 0 2400 1600">
<defs>
  <clipPath id="clip590">
    <rect x="0" y="0" width="2400" height="1600"/>
  </clipPath>
</defs>
<path clip-path="url(#clip590)" d="M0 1600 L2400 1600 L2400 0 L0 0  Z" fill="#ffffff" fill-rule="evenodd" fill-opacity="1"/>
<defs>
  <clipPath id="clip591">
    <rect x="480" y="0" width="1681" height="1600"/>
  </clipPath>
</defs>
<path clip-path="url(#clip590)" d="M192.339 1486.45 L2352.76 1486.45 L2352.76 47.2441 L192.339 47.2441  Z" fill="#ffffff" fill-rule="evenodd" fill-opacity="1"/>
<defs>
  <clipPath id="clip592">
    <rect x="192" y="47" width="2161" height="1440"/>
  </clipPath>
</defs>
<polyline clip-path="url(#clip592)" style="stroke:#000000; stroke-linecap:round; stroke-linejoin:round; stroke-width:2; stroke-opacity:0.1; fill:none" points="253.483,1486.45 253.483,47.2441 "/>
<polyline clip-path="url(#clip592)" style="stroke:#000000; stroke-linecap:round; stroke-linejoin:round; stroke-width:2; stroke-opacity:0.1; fill:none" points="763.015,1486.45 763.015,47.2441 "/>
<polyline clip-path="url(#clip592)" style="stroke:#000000; stroke-linecap:round; stroke-linejoin:round; stroke-width:2; stroke-opacity:0.1; fill:none" points="1272.55,1486.45 1272.55,47.2441 "/>
<polyline clip-path="url(#clip592)" style="stroke:#000000; stroke-linecap:round; stroke-linejoin:round; stroke-width:2; stroke-opacity:0.1; fill:none" points="1782.08,1486.45 1782.08,47.2441 "/>
<polyline clip-path="url(#clip592)" style="stroke:#000000; stroke-linecap:round; stroke-linejoin:round; stroke-width:2; stroke-opacity:0.1; fill:none" points="2291.61,1486.45 2291.61,47.2441 "/>
<polyline clip-path="url(#clip590)" style="stroke:#000000; stroke-linecap:round; stroke-linejoin:round; stroke-width:4; stroke-opacity:1; fill:none" points="192.339,1486.45 2352.76,1486.45 "/>
<polyline clip-path="url(#clip590)" style="stroke:#000000; stroke-linecap:round; stroke-linejoin:round; stroke-width:4; stroke-opacity:1; fill:none" points="253.483,1486.45 253.483,1467.55 "/>
<polyline clip-path="url(#clip590)" style="stroke:#000000; stroke-linecap:round; stroke-linejoin:round; stroke-width:4; stroke-opacity:1; fill:none" points="763.015,1486.45 763.015,1467.55 "/>
<polyline clip-path="url(#clip590)" style="stroke:#000000; stroke-linecap:round; stroke-linejoin:round; stroke-width:4; stroke-opacity:1; fill:none" points="1272.55,1486.45 1272.55,1467.55 "/>
<polyline clip-path="url(#clip590)" style="stroke:#000000; stroke-linecap:round; stroke-linejoin:round; stroke-width:4; stroke-opacity:1; fill:none" points="1782.08,1486.45 1782.08,1467.55 "/>
<polyline clip-path="url(#clip590)" style="stroke:#000000; stroke-linecap:round; stroke-linejoin:round; stroke-width:4; stroke-opacity:1; fill:none" points="2291.61,1486.45 2291.61,1467.55 "/>
<path clip-path="url(#clip590)" d="M200.011 1532.02 L229.686 1532.02 L229.686 1535.95 L200.011 1535.95 L200.011 1532.02 Z" fill="#000000" fill-rule="nonzero" fill-opacity="1" /><path clip-path="url(#clip590)" d="M240.589 1544.91 L248.228 1544.91 L248.228 1518.55 L239.918 1520.21 L239.918 1515.95 L248.182 1514.29 L252.858 1514.29 L252.858 1544.91 L260.497 1544.91 L260.497 1548.85 L240.589 1548.85 L240.589 1544.91 Z" fill="#000000" fill-rule="nonzero" fill-opacity="1" /><path clip-path="url(#clip590)" d="M269.941 1542.97 L274.825 1542.97 L274.825 1548.85 L269.941 1548.85 L269.941 1542.97 Z" fill="#000000" fill-rule="nonzero" fill-opacity="1" /><path clip-path="url(#clip590)" d="M295.01 1517.37 Q291.399 1517.37 289.57 1520.93 Q287.765 1524.47 287.765 1531.6 Q287.765 1538.71 289.57 1542.27 Q291.399 1545.82 295.01 1545.82 Q298.644 1545.82 300.45 1542.27 Q302.279 1538.71 302.279 1531.6 Q302.279 1524.47 300.45 1520.93 Q298.644 1517.37 295.01 1517.37 M295.01 1513.66 Q300.82 1513.66 303.876 1518.27 Q306.955 1522.85 306.955 1531.6 Q306.955 1540.33 303.876 1544.94 Q300.82 1549.52 295.01 1549.52 Q289.2 1549.52 286.121 1544.94 Q283.066 1540.33 283.066 1531.6 Q283.066 1522.85 286.121 1518.27 Q289.2 1513.66 295.01 1513.66 Z" fill="#000000" fill-rule="nonzero" fill-opacity="1" /><path clip-path="url(#clip590)" d="M710.041 1532.02 L739.717 1532.02 L739.717 1535.95 L710.041 1535.95 L710.041 1532.02 Z" fill="#000000" fill-rule="nonzero" fill-opacity="1" /><path clip-path="url(#clip590)" d="M759.809 1517.37 Q756.198 1517.37 754.369 1520.93 Q752.564 1524.47 752.564 1531.6 Q752.564 1538.71 754.369 1542.27 Q756.198 1545.82 759.809 1545.82 Q763.443 1545.82 765.249 1542.27 Q767.077 1538.71 767.077 1531.6 Q767.077 1524.47 765.249 1520.93 Q763.443 1517.37 759.809 1517.37 M759.809 1513.66 Q765.619 1513.66 768.675 1518.27 Q771.753 1522.85 771.753 1531.6 Q771.753 1540.33 768.675 1544.94 Q765.619 1549.52 759.809 1549.52 Q753.999 1549.52 750.92 1544.94 Q747.865 1540.33 747.865 1531.6 Q747.865 1522.85 750.92 1518.27 Q753.999 1513.66 759.809 1513.66 Z" fill="#000000" fill-rule="nonzero" fill-opacity="1" /><path clip-path="url(#clip590)" d="M779.971 1542.97 L784.855 1542.97 L784.855 1548.85 L779.971 1548.85 L779.971 1542.97 Z" fill="#000000" fill-rule="nonzero" fill-opacity="1" /><path clip-path="url(#clip590)" d="M795.087 1514.29 L813.443 1514.29 L813.443 1518.22 L799.369 1518.22 L799.369 1526.7 Q800.387 1526.35 801.406 1526.19 Q802.425 1526 803.443 1526 Q809.23 1526 812.61 1529.17 Q815.989 1532.34 815.989 1537.76 Q815.989 1543.34 812.517 1546.44 Q809.045 1549.52 802.725 1549.52 Q800.55 1549.52 798.281 1549.15 Q796.036 1548.78 793.628 1548.04 L793.628 1543.34 Q795.712 1544.47 797.934 1545.03 Q800.156 1545.58 802.633 1545.58 Q806.637 1545.58 808.975 1543.48 Q811.313 1541.37 811.313 1537.76 Q811.313 1534.15 808.975 1532.04 Q806.637 1529.94 802.633 1529.94 Q800.758 1529.94 798.883 1530.35 Q797.031 1530.77 795.087 1531.65 L795.087 1514.29 Z" fill="#000000" fill-rule="nonzero" fill-opacity="1" /><path clip-path="url(#clip590)" d="M1249.93 1517.37 Q1246.32 1517.37 1244.49 1520.93 Q1242.69 1524.47 1242.69 1531.6 Q1242.69 1538.71 1244.49 1542.27 Q1246.32 1545.82 1249.93 1545.82 Q1253.57 1545.82 1255.37 1542.27 Q1257.2 1538.71 1257.2 1531.6 Q1257.2 1524.47 1255.37 1520.93 Q1253.57 1517.37 1249.93 1517.37 M1249.93 1513.66 Q1255.74 1513.66 1258.8 1518.27 Q1261.88 1522.85 1261.88 1531.6 Q1261.88 1540.33 1258.8 1544.94 Q1255.74 1549.52 1249.93 1549.52 Q1244.12 1549.52 1241.04 1544.94 Q1237.99 1540.33 1237.99 1531.6 Q1237.99 1522.85 1241.04 1518.27 Q1244.12 1513.66 1249.93 1513.66 Z" fill="#000000" fill-rule="nonzero" fill-opacity="1" /><path clip-path="url(#clip590)" d="M1270.09 1542.97 L1274.98 1542.97 L1274.98 1548.85 L1270.09 1548.85 L1270.09 1542.97 Z" fill="#000000" fill-rule="nonzero" fill-opacity="1" /><path clip-path="url(#clip590)" d="M1295.16 1517.37 Q1291.55 1517.37 1289.72 1520.93 Q1287.92 1524.47 1287.92 1531.6 Q1287.92 1538.71 1289.72 1542.27 Q1291.55 1545.82 1295.16 1545.82 Q1298.8 1545.82 1300.6 1542.27 Q1302.43 1538.71 1302.43 1531.6 Q1302.43 1524.47 1300.6 1520.93 Q1298.8 1517.37 1295.16 1517.37 M1295.16 1513.66 Q1300.97 1513.66 1304.03 1518.27 Q1307.11 1522.85 1307.11 1531.6 Q1307.11 1540.33 1304.03 1544.94 Q1300.97 1549.52 1295.16 1549.52 Q1289.35 1549.52 1286.27 1544.94 Q1283.22 1540.33 1283.22 1531.6 Q1283.22 1522.85 1286.27 1518.27 Q1289.35 1513.66 1295.16 1513.66 Z" fill="#000000" fill-rule="nonzero" fill-opacity="1" /><path clip-path="url(#clip590)" d="M1759.96 1517.37 Q1756.35 1517.37 1754.52 1520.93 Q1752.72 1524.47 1752.72 1531.6 Q1752.72 1538.71 1754.52 1542.27 Q1756.35 1545.82 1759.96 1545.82 Q1763.6 1545.82 1765.4 1542.27 Q1767.23 1538.71 1767.23 1531.6 Q1767.23 1524.47 1765.4 1520.93 Q1763.6 1517.37 1759.96 1517.37 M1759.96 1513.66 Q1765.77 1513.66 1768.83 1518.27 Q1771.91 1522.85 1771.91 1531.6 Q1771.91 1540.33 1768.83 1544.94 Q1765.77 1549.52 1759.96 1549.52 Q1754.15 1549.52 1751.07 1544.94 Q1748.02 1540.33 1748.02 1531.6 Q1748.02 1522.85 1751.07 1518.27 Q1754.15 1513.66 1759.96 1513.66 Z" fill="#000000" fill-rule="nonzero" fill-opacity="1" /><path clip-path="url(#clip590)" d="M1780.12 1542.97 L1785.01 1542.97 L1785.01 1548.85 L1780.12 1548.85 L1780.12 1542.97 Z" fill="#000000" fill-rule="nonzero" fill-opacity="1" /><path clip-path="url(#clip590)" d="M1795.24 1514.29 L1813.6 1514.29 L1813.6 1518.22 L1799.52 1518.22 L1799.52 1526.7 Q1800.54 1526.35 1801.56 1526.19 Q1802.58 1526 1803.6 1526 Q1809.38 1526 1812.76 1529.17 Q1816.14 1532.34 1816.14 1537.76 Q1816.14 1543.34 1812.67 1546.44 Q1809.2 1549.52 1802.88 1549.52 Q1800.7 1549.52 1798.43 1549.15 Q1796.19 1548.78 1793.78 1548.04 L1793.78 1543.34 Q1795.86 1544.47 1798.09 1545.03 Q1800.31 1545.58 1802.79 1545.58 Q1806.79 1545.58 1809.13 1543.48 Q1811.47 1541.37 1811.47 1537.76 Q1811.47 1534.15 1809.13 1532.04 Q1806.79 1529.94 1802.79 1529.94 Q1800.91 1529.94 1799.04 1530.35 Q1797.18 1530.77 1795.24 1531.65 L1795.24 1514.29 Z" fill="#000000" fill-rule="nonzero" fill-opacity="1" /><path clip-path="url(#clip590)" d="M2258.76 1544.91 L2266.4 1544.91 L2266.4 1518.55 L2258.09 1520.21 L2258.09 1515.95 L2266.36 1514.29 L2271.03 1514.29 L2271.03 1544.91 L2278.67 1544.91 L2278.67 1548.85 L2258.76 1548.85 L2258.76 1544.91 Z" fill="#000000" fill-rule="nonzero" fill-opacity="1" /><path clip-path="url(#clip590)" d="M2288.12 1542.97 L2293 1542.97 L2293 1548.85 L2288.12 1548.85 L2288.12 1542.97 Z" fill="#000000" fill-rule="nonzero" fill-opacity="1" /><path clip-path="url(#clip590)" d="M2313.19 1517.37 Q2309.57 1517.37 2307.75 1520.93 Q2305.94 1524.47 2305.94 1531.6 Q2305.94 1538.71 2307.75 1542.27 Q2309.57 1545.82 2313.19 1545.82 Q2316.82 1545.82 2318.63 1542.27 Q2320.45 1538.71 2320.45 1531.6 Q2320.45 1524.47 2318.63 1520.93 Q2316.82 1517.37 2313.19 1517.37 M2313.19 1513.66 Q2319 1513.66 2322.05 1518.27 Q2325.13 1522.85 2325.13 1531.6 Q2325.13 1540.33 2322.05 1544.94 Q2319 1549.52 2313.19 1549.52 Q2307.38 1549.52 2304.3 1544.94 Q2301.24 1540.33 2301.24 1531.6 Q2301.24 1522.85 2304.3 1518.27 Q2307.38 1513.66 2313.19 1513.66 Z" fill="#000000" fill-rule="nonzero" fill-opacity="1" /><polyline clip-path="url(#clip592)" style="stroke:#000000; stroke-linecap:round; stroke-linejoin:round; stroke-width:2; stroke-opacity:0.1; fill:none" points="192.339,1326.39 2352.76,1326.39 "/>
<polyline clip-path="url(#clip592)" style="stroke:#000000; stroke-linecap:round; stroke-linejoin:round; stroke-width:2; stroke-opacity:0.1; fill:none" points="192.339,1158.85 2352.76,1158.85 "/>
<polyline clip-path="url(#clip592)" style="stroke:#000000; stroke-linecap:round; stroke-linejoin:round; stroke-width:2; stroke-opacity:0.1; fill:none" points="192.339,991.304 2352.76,991.304 "/>
<polyline clip-path="url(#clip592)" style="stroke:#000000; stroke-linecap:round; stroke-linejoin:round; stroke-width:2; stroke-opacity:0.1; fill:none" points="192.339,823.76 2352.76,823.76 "/>
<polyline clip-path="url(#clip592)" style="stroke:#000000; stroke-linecap:round; stroke-linejoin:round; stroke-width:2; stroke-opacity:0.1; fill:none" points="192.339,656.215 2352.76,656.215 "/>
<polyline clip-path="url(#clip592)" style="stroke:#000000; stroke-linecap:round; stroke-linejoin:round; stroke-width:2; stroke-opacity:0.1; fill:none" points="192.339,488.671 2352.76,488.671 "/>
<polyline clip-path="url(#clip592)" style="stroke:#000000; stroke-linecap:round; stroke-linejoin:round; stroke-width:2; stroke-opacity:0.1; fill:none" points="192.339,321.127 2352.76,321.127 "/>
<polyline clip-path="url(#clip592)" style="stroke:#000000; stroke-linecap:round; stroke-linejoin:round; stroke-width:2; stroke-opacity:0.1; fill:none" points="192.339,153.582 2352.76,153.582 "/>
<polyline clip-path="url(#clip590)" style="stroke:#000000; stroke-linecap:round; stroke-linejoin:round; stroke-width:4; stroke-opacity:1; fill:none" points="192.339,1486.45 192.339,47.2441 "/>
<polyline clip-path="url(#clip590)" style="stroke:#000000; stroke-linecap:round; stroke-linejoin:round; stroke-width:4; stroke-opacity:1; fill:none" points="192.339,1326.39 211.236,1326.39 "/>
<polyline clip-path="url(#clip590)" style="stroke:#000000; stroke-linecap:round; stroke-linejoin:round; stroke-width:4; stroke-opacity:1; fill:none" points="192.339,1158.85 211.236,1158.85 "/>
<polyline clip-path="url(#clip590)" style="stroke:#000000; stroke-linecap:round; stroke-linejoin:round; stroke-width:4; stroke-opacity:1; fill:none" points="192.339,991.304 211.236,991.304 "/>
<polyline clip-path="url(#clip590)" style="stroke:#000000; stroke-linecap:round; stroke-linejoin:round; stroke-width:4; stroke-opacity:1; fill:none" points="192.339,823.76 211.236,823.76 "/>
<polyline clip-path="url(#clip590)" style="stroke:#000000; stroke-linecap:round; stroke-linejoin:round; stroke-width:4; stroke-opacity:1; fill:none" points="192.339,656.215 211.236,656.215 "/>
<polyline clip-path="url(#clip590)" style="stroke:#000000; stroke-linecap:round; stroke-linejoin:round; stroke-width:4; stroke-opacity:1; fill:none" points="192.339,488.671 211.236,488.671 "/>
<polyline clip-path="url(#clip590)" style="stroke:#000000; stroke-linecap:round; stroke-linejoin:round; stroke-width:4; stroke-opacity:1; fill:none" points="192.339,321.127 211.236,321.127 "/>
<polyline clip-path="url(#clip590)" style="stroke:#000000; stroke-linecap:round; stroke-linejoin:round; stroke-width:4; stroke-opacity:1; fill:none" points="192.339,153.582 211.236,153.582 "/>
<path clip-path="url(#clip590)" d="M50.9921 1326.84 L80.6679 1326.84 L80.6679 1330.78 L50.9921 1330.78 L50.9921 1326.84 Z" fill="#000000" fill-rule="nonzero" fill-opacity="1" /><path clip-path="url(#clip590)" d="M100.76 1312.19 Q97.1493 1312.19 95.3206 1315.76 Q93.515 1319.3 93.515 1326.43 Q93.515 1333.53 95.3206 1337.1 Q97.1493 1340.64 100.76 1340.64 Q104.395 1340.64 106.2 1337.1 Q108.029 1333.53 108.029 1326.43 Q108.029 1319.3 106.2 1315.76 Q104.395 1312.19 100.76 1312.19 M100.76 1308.49 Q106.571 1308.49 109.626 1313.09 Q112.705 1317.68 112.705 1326.43 Q112.705 1335.15 109.626 1339.76 Q106.571 1344.34 100.76 1344.34 Q94.9502 1344.34 91.8715 1339.76 Q88.816 1335.15 88.816 1326.43 Q88.816 1317.68 91.8715 1313.09 Q94.9502 1308.49 100.76 1308.49 Z" fill="#000000" fill-rule="nonzero" fill-opacity="1" /><path clip-path="url(#clip590)" d="M120.922 1337.79 L125.807 1337.79 L125.807 1343.67 L120.922 1343.67 L120.922 1337.79 Z" fill="#000000" fill-rule="nonzero" fill-opacity="1" /><path clip-path="url(#clip590)" d="M140.019 1339.74 L156.339 1339.74 L156.339 1343.67 L134.394 1343.67 L134.394 1339.74 Q137.056 1336.98 141.64 1332.35 Q146.246 1327.7 147.427 1326.36 Q149.672 1323.83 150.552 1322.1 Q151.455 1320.34 151.455 1318.65 Q151.455 1315.9 149.51 1314.16 Q147.589 1312.42 144.487 1312.42 Q142.288 1312.42 139.834 1313.19 Q137.404 1313.95 134.626 1315.5 L134.626 1310.78 Q137.45 1309.65 139.904 1309.07 Q142.357 1308.49 144.394 1308.49 Q149.765 1308.49 152.959 1311.17 Q156.154 1313.86 156.154 1318.35 Q156.154 1320.48 155.343 1322.4 Q154.556 1324.3 152.45 1326.89 Q151.871 1327.56 148.769 1330.78 Q145.668 1333.97 140.019 1339.74 Z" fill="#000000" fill-rule="nonzero" fill-opacity="1" /><path clip-path="url(#clip590)" d="M99.1632 1144.65 Q95.5521 1144.65 93.7234 1148.21 Q91.9178 1151.75 91.9178 1158.88 Q91.9178 1165.99 93.7234 1169.55 Q95.5521 1173.1 99.1632 1173.1 Q102.797 1173.1 104.603 1169.55 Q106.432 1165.99 106.432 1158.88 Q106.432 1151.75 104.603 1148.21 Q102.797 1144.65 99.1632 1144.65 M99.1632 1140.94 Q104.973 1140.94 108.029 1145.55 Q111.108 1150.13 111.108 1158.88 Q111.108 1167.61 108.029 1172.22 Q104.973 1176.8 99.1632 1176.8 Q93.353 1176.8 90.2743 1172.22 Q87.2188 1167.61 87.2188 1158.88 Q87.2188 1150.13 90.2743 1145.55 Q93.353 1140.94 99.1632 1140.94 Z" fill="#000000" fill-rule="nonzero" fill-opacity="1" /><path clip-path="url(#clip590)" d="M119.325 1170.25 L124.209 1170.25 L124.209 1176.13 L119.325 1176.13 L119.325 1170.25 Z" fill="#000000" fill-rule="nonzero" fill-opacity="1" /><path clip-path="url(#clip590)" d="M144.394 1144.65 Q140.783 1144.65 138.955 1148.21 Q137.149 1151.75 137.149 1158.88 Q137.149 1165.99 138.955 1169.55 Q140.783 1173.1 144.394 1173.1 Q148.029 1173.1 149.834 1169.55 Q151.663 1165.99 151.663 1158.88 Q151.663 1151.75 149.834 1148.21 Q148.029 1144.65 144.394 1144.65 M144.394 1140.94 Q150.205 1140.94 153.26 1145.55 Q156.339 1150.13 156.339 1158.88 Q156.339 1167.61 153.26 1172.22 Q150.205 1176.8 144.394 1176.8 Q138.584 1176.8 135.506 1172.22 Q132.45 1167.61 132.45 1158.88 Q132.45 1150.13 135.506 1145.55 Q138.584 1140.94 144.394 1140.94 Z" fill="#000000" fill-rule="nonzero" fill-opacity="1" /><path clip-path="url(#clip590)" d="M100.76 977.103 Q97.1493 977.103 95.3206 980.668 Q93.515 984.209 93.515 991.339 Q93.515 998.445 95.3206 1002.01 Q97.1493 1005.55 100.76 1005.55 Q104.395 1005.55 106.2 1002.01 Q108.029 998.445 108.029 991.339 Q108.029 984.209 106.2 980.668 Q104.395 977.103 100.76 977.103 M100.76 973.399 Q106.571 973.399 109.626 978.006 Q112.705 982.589 112.705 991.339 Q112.705 1000.07 109.626 1004.67 Q106.571 1009.26 100.76 1009.26 Q94.9502 1009.26 91.8715 1004.67 Q88.816 1000.07 88.816 991.339 Q88.816 982.589 91.8715 978.006 Q94.9502 973.399 100.76 973.399 Z" fill="#000000" fill-rule="nonzero" fill-opacity="1" /><path clip-path="url(#clip590)" d="M120.922 1002.7 L125.807 1002.7 L125.807 1008.58 L120.922 1008.58 L120.922 1002.7 Z" fill="#000000" fill-rule="nonzero" fill-opacity="1" /><path clip-path="url(#clip590)" d="M140.019 1004.65 L156.339 1004.65 L156.339 1008.58 L134.394 1008.58 L134.394 1004.65 Q137.056 1001.89 141.64 997.265 Q146.246 992.612 147.427 991.269 Q149.672 988.746 150.552 987.01 Q151.455 985.251 151.455 983.561 Q151.455 980.807 149.51 979.07 Q147.589 977.334 144.487 977.334 Q142.288 977.334 139.834 978.098 Q137.404 978.862 134.626 980.413 L134.626 975.691 Q137.45 974.557 139.904 973.978 Q142.357 973.399 144.394 973.399 Q149.765 973.399 152.959 976.084 Q156.154 978.769 156.154 983.26 Q156.154 985.39 155.343 987.311 Q154.556 989.209 152.45 991.802 Q151.871 992.473 148.769 995.691 Q145.668 998.885 140.019 1004.65 Z" fill="#000000" fill-rule="nonzero" fill-opacity="1" /><path clip-path="url(#clip590)" d="M98.6771 809.558 Q95.066 809.558 93.2373 813.123 Q91.4317 816.665 91.4317 823.795 Q91.4317 830.901 93.2373 834.466 Q95.066 838.007 98.6771 838.007 Q102.311 838.007 104.117 834.466 Q105.946 830.901 105.946 823.795 Q105.946 816.665 104.117 813.123 Q102.311 809.558 98.6771 809.558 M98.6771 805.855 Q104.487 805.855 107.543 810.461 Q110.621 815.045 110.621 823.795 Q110.621 832.521 107.543 837.128 Q104.487 841.711 98.6771 841.711 Q92.8669 841.711 89.7882 837.128 Q86.7327 832.521 86.7327 823.795 Q86.7327 815.045 89.7882 810.461 Q92.8669 805.855 98.6771 805.855 Z" fill="#000000" fill-rule="nonzero" fill-opacity="1" /><path clip-path="url(#clip590)" d="M118.839 835.16 L123.723 835.16 L123.723 841.04 L118.839 841.04 L118.839 835.16 Z" fill="#000000" fill-rule="nonzero" fill-opacity="1" /><path clip-path="url(#clip590)" d="M146.756 810.554 L134.95 829.003 L146.756 829.003 L146.756 810.554 M145.529 806.48 L151.408 806.48 L151.408 829.003 L156.339 829.003 L156.339 832.892 L151.408 832.892 L151.408 841.04 L146.756 841.04 L146.756 832.892 L131.154 832.892 L131.154 828.378 L145.529 806.48 Z" fill="#000000" fill-rule="nonzero" fill-opacity="1" /><path clip-path="url(#clip590)" d="M99.0011 642.014 Q95.39 642.014 93.5613 645.579 Q91.7558 649.121 91.7558 656.25 Q91.7558 663.357 93.5613 666.921 Q95.39 670.463 99.0011 670.463 Q102.635 670.463 104.441 666.921 Q106.27 663.357 106.27 656.25 Q106.27 649.121 104.441 645.579 Q102.635 642.014 99.0011 642.014 M99.0011 638.31 Q104.811 638.31 107.867 642.917 Q110.946 647.5 110.946 656.25 Q110.946 664.977 107.867 669.583 Q104.811 674.167 99.0011 674.167 Q93.191 674.167 90.1123 669.583 Q87.0567 664.977 87.0567 656.25 Q87.0567 647.5 90.1123 642.917 Q93.191 638.31 99.0011 638.31 Z" fill="#000000" fill-rule="nonzero" fill-opacity="1" /><path clip-path="url(#clip590)" d="M119.163 667.616 L124.047 667.616 L124.047 673.495 L119.163 673.495 L119.163 667.616 Z" fill="#000000" fill-rule="nonzero" fill-opacity="1" /><path clip-path="url(#clip590)" d="M144.811 654.352 Q141.663 654.352 139.811 656.505 Q137.982 658.658 137.982 662.408 Q137.982 666.134 139.811 668.31 Q141.663 670.463 144.811 670.463 Q147.959 670.463 149.788 668.31 Q151.64 666.134 151.64 662.408 Q151.64 658.658 149.788 656.505 Q147.959 654.352 144.811 654.352 M154.093 639.699 L154.093 643.959 Q152.334 643.125 150.529 642.685 Q148.746 642.246 146.987 642.246 Q142.357 642.246 139.904 645.371 Q137.473 648.496 137.126 654.815 Q138.492 652.801 140.552 651.736 Q142.612 650.648 145.089 650.648 Q150.297 650.648 153.306 653.82 Q156.339 656.968 156.339 662.408 Q156.339 667.732 153.191 670.949 Q150.043 674.167 144.811 674.167 Q138.816 674.167 135.644 669.583 Q132.473 664.977 132.473 656.25 Q132.473 648.056 136.362 643.195 Q140.251 638.31 146.802 638.31 Q148.561 638.31 150.343 638.658 Q152.149 639.005 154.093 639.699 Z" fill="#000000" fill-rule="nonzero" fill-opacity="1" /><path clip-path="url(#clip590)" d="M99.2558 474.47 Q95.6447 474.47 93.816 478.035 Q92.0104 481.576 92.0104 488.706 Q92.0104 495.812 93.816 499.377 Q95.6447 502.919 99.2558 502.919 Q102.89 502.919 104.696 499.377 Q106.524 495.812 106.524 488.706 Q106.524 481.576 104.696 478.035 Q102.89 474.47 99.2558 474.47 M99.2558 470.766 Q105.066 470.766 108.121 475.373 Q111.2 479.956 111.2 488.706 Q111.2 497.433 108.121 502.039 Q105.066 506.622 99.2558 506.622 Q93.4456 506.622 90.3669 502.039 Q87.3114 497.433 87.3114 488.706 Q87.3114 479.956 90.3669 475.373 Q93.4456 470.766 99.2558 470.766 Z" fill="#000000" fill-rule="nonzero" fill-opacity="1" /><path clip-path="url(#clip590)" d="M119.418 500.071 L124.302 500.071 L124.302 505.951 L119.418 505.951 L119.418 500.071 Z" fill="#000000" fill-rule="nonzero" fill-opacity="1" /><path clip-path="url(#clip590)" d="M144.487 489.539 Q141.154 489.539 139.232 491.322 Q137.334 493.104 137.334 496.229 Q137.334 499.354 139.232 501.136 Q141.154 502.919 144.487 502.919 Q147.82 502.919 149.742 501.136 Q151.663 499.331 151.663 496.229 Q151.663 493.104 149.742 491.322 Q147.843 489.539 144.487 489.539 M139.811 487.548 Q136.802 486.808 135.112 484.748 Q133.445 482.687 133.445 479.724 Q133.445 475.581 136.385 473.173 Q139.348 470.766 144.487 470.766 Q149.649 470.766 152.589 473.173 Q155.529 475.581 155.529 479.724 Q155.529 482.687 153.839 484.748 Q152.172 486.808 149.186 487.548 Q152.566 488.335 154.441 490.627 Q156.339 492.919 156.339 496.229 Q156.339 501.252 153.26 503.937 Q150.205 506.622 144.487 506.622 Q138.769 506.622 135.691 503.937 Q132.635 501.252 132.635 496.229 Q132.635 492.919 134.533 490.627 Q136.431 488.335 139.811 487.548 M138.098 480.164 Q138.098 482.849 139.765 484.354 Q141.455 485.859 144.487 485.859 Q147.496 485.859 149.186 484.354 Q150.899 482.849 150.899 480.164 Q150.899 477.479 149.186 475.974 Q147.496 474.47 144.487 474.47 Q141.455 474.47 139.765 475.974 Q138.098 477.479 138.098 480.164 Z" fill="#000000" fill-rule="nonzero" fill-opacity="1" /><path clip-path="url(#clip590)" d="M89.9734 334.472 L97.6122 334.472 L97.6122 308.106 L89.3021 309.773 L89.3021 305.513 L97.566 303.847 L102.242 303.847 L102.242 334.472 L109.881 334.472 L109.881 338.407 L89.9734 338.407 L89.9734 334.472 Z" fill="#000000" fill-rule="nonzero" fill-opacity="1" /><path clip-path="url(#clip590)" d="M119.325 332.527 L124.209 332.527 L124.209 338.407 L119.325 338.407 L119.325 332.527 Z" fill="#000000" fill-rule="nonzero" fill-opacity="1" /><path clip-path="url(#clip590)" d="M144.394 306.925 Q140.783 306.925 138.955 310.49 Q137.149 314.032 137.149 321.161 Q137.149 328.268 138.955 331.833 Q140.783 335.374 144.394 335.374 Q148.029 335.374 149.834 331.833 Q151.663 328.268 151.663 321.161 Q151.663 314.032 149.834 310.49 Q148.029 306.925 144.394 306.925 M144.394 303.222 Q150.205 303.222 153.26 307.828 Q156.339 312.412 156.339 321.161 Q156.339 329.888 153.26 334.495 Q150.205 339.078 144.394 339.078 Q138.584 339.078 135.506 334.495 Q132.45 329.888 132.45 321.161 Q132.45 312.412 135.506 307.828 Q138.584 303.222 144.394 303.222 Z" fill="#000000" fill-rule="nonzero" fill-opacity="1" /><path clip-path="url(#clip590)" d="M91.5706 166.927 L99.2095 166.927 L99.2095 140.562 L90.8993 142.228 L90.8993 137.969 L99.1632 136.302 L103.839 136.302 L103.839 166.927 L111.478 166.927 L111.478 170.862 L91.5706 170.862 L91.5706 166.927 Z" fill="#000000" fill-rule="nonzero" fill-opacity="1" /><path clip-path="url(#clip590)" d="M120.922 164.983 L125.807 164.983 L125.807 170.862 L120.922 170.862 L120.922 164.983 Z" fill="#000000" fill-rule="nonzero" fill-opacity="1" /><path clip-path="url(#clip590)" d="M140.019 166.927 L156.339 166.927 L156.339 170.862 L134.394 170.862 L134.394 166.927 Q137.056 164.173 141.64 159.543 Q146.246 154.89 147.427 153.548 Q149.672 151.025 150.552 149.288 Q151.455 147.529 151.455 145.839 Q151.455 143.085 149.51 141.349 Q147.589 139.613 144.487 139.613 Q142.288 139.613 139.834 140.376 Q137.404 141.14 134.626 142.691 L134.626 137.969 Q137.45 136.835 139.904 136.256 Q142.357 135.677 144.394 135.677 Q149.765 135.677 152.959 138.363 Q156.154 141.048 156.154 145.538 Q156.154 147.668 155.343 149.589 Q154.556 151.487 152.45 154.08 Q151.871 154.751 148.769 157.969 Q145.668 161.163 140.019 166.927 Z" fill="#000000" fill-rule="nonzero" fill-opacity="1" /><polyline clip-path="url(#clip592)" style="stroke:#009af9; stroke-linecap:round; stroke-linejoin:round; stroke-width:16; stroke-opacity:1; fill:none" stroke-dasharray="8, 16" points="253.483,1033.02 263.725,1069.75 273.966,1166.36 284.208,1170.33 294.45,1005.69 304.692,762.863 314.934,633.481 325.176,747.644 335.418,1006.45 345.659,1181.92 355.901,1202.92 366.143,1158.45 376.385,1140.9 386.627,1187.52 396.869,1292.45 407.111,1350.4 417.352,1283.01 427.594,1209.53 437.836,1221.41 448.078,1285.9 458.32,1322.2 468.562,1318.91 478.803,1313.2 489.045,1302.02 499.287,1296.06 509.529,1324.25 519.771,1367.75 530.013,1368.08 540.255,1274.52 550.497,1109.62 560.738,989.598 570.98,979.393 581.222,1044.72 591.464,1127.56 601.706,1173.6 611.948,1158.2 622.19,1072.85 632.431,946.861 642.673,853.431 652.915,845.196 663.157,924.423 673.399,1052.54 683.641,1151.99 693.882,1152.77 704.124,1104.64 714.366,1069.91 724.608,1047.53 734.85,1052.28 745.092,1116.63 755.334,1231.11 765.575,1333.45 775.817,1372.26 786.059,1349.05 796.301,1280.81 806.543,1189.48 816.785,1137.56 827.027,1221.61 837.268,1336.45 847.51,1374.63 857.752,1368.75 867.994,1330.62 878.236,1259.52 888.478,1172.53 898.72,1110.9 908.961,1108.55 919.203,1153.57 929.445,1204.8 939.687,1206.75 949.929,1121.73 960.171,1042.91 970.413,1064.97 980.654,1099.09 990.896,1062.76 1001.14,997.531 1011.38,955.105 1021.62,952.623 1031.86,985.142 1042.11,1023.9 1052.35,1035.41 1062.59,1065.83 1072.83,1125.52 1083.07,1136.35 1093.31,1107.38 1103.56,1091.19 1113.8,1128.98 1124.04,1223.16 1134.28,1280.68 1144.52,1224.8 1154.77,1179.53 1165.01,1271.92 1175.25,1398.72 1185.49,1445.72 1195.73,1411.12 1205.98,1337.6 1216.22,1275.33 1226.46,1253.21 1236.7,1254.1 1246.94,1241.16 1257.18,1155.81 1267.43,785.11 1277.67,307.131 1287.91,266.929 1298.15,352.983 1308.39,383.665 1318.64,389.036 1328.88,366.329 1339.12,310.839 1349.36,249.162 1359.6,217.936 1369.84,245.777 1380.09,341.544 1390.33,424.817 1400.57,380.385 1410.81,305.377 1421.05,334.089 1431.3,403.979 1441.54,425.156 1451.78,397.334 1462.02,351.982 1472.26,328.675 1482.51,335.851 1492.75,308.469 1502.99,265.973 1513.23,271.811 1523.47,300.211 1533.71,318.778 1543.96,335.625 1554.2,350.041 1564.44,351.482 1574.68,371.072 1584.92,371.869 1595.17,288.905 1605.41,204.837 1615.65,197.996 1625.89,233.642 1636.13,278.023 1646.38,317.959 1656.62,342.764 1666.86,366.908 1677.1,399.881 1687.34,417.285 1697.58,395.01 1707.83,364.666 1718.07,394.891 1728.31,381.735 1738.55,283.508 1748.79,214.365 1759.04,188.92 1769.28,205.941 1779.52,272.609 1789.76,385.005 1800,494.334 1810.24,535.209 1820.49,485.463 1830.73,375.848 1840.97,244.271 1851.21,134.965 1861.45,99.3347 1871.7,154.19 1881.94,270.284 1892.18,410.26 1902.42,511.361 1912.66,507.486 1922.91,398.495 1933.15,271.018 1943.39,215.128 1953.63,246.711 1963.87,312.61 1974.11,342.713 1984.36,307.417 1994.6,231.849 2004.84,205.441 2015.08,264.167 2025.32,366.676 2035.57,468.915 2045.81,520.335 2056.05,489.043 2066.29,397.304 2076.53,281.372 2086.77,196.583 2097.02,220.078 2107.26,299.039 2117.5,304.896 2127.74,222.151 2137.98,187.803 2148.23,315.749 2158.47,479.087 2168.71,533.983 2178.95,456.817 2189.19,281.617 2199.44,127.195 2209.68,156.993 2219.92,367.794 2230.16,521.982 2240.4,468.066 2250.64,301.527 2260.89,207.104 2271.13,279.184 2281.37,444.542 2291.61,529.546 "/>
<polyline clip-path="url(#clip592)" style="stroke:#e26f46; stroke-linecap:round; stroke-linejoin:round; stroke-width:4; stroke-opacity:1; fill:none" points="253.483,1033.02 263.725,1015.17 273.966,1002.01 284.208,993.967 294.45,991.305 304.692,994.11 314.934,1002.29 325.176,1015.58 335.418,1033.55 345.659,1055.61 355.901,1081.04 366.143,1109 376.385,1138.59 386.627,1168.85 396.869,1198.78 407.111,1227.4 417.352,1253.79 427.594,1277.08 437.836,1296.51 448.078,1311.44 458.32,1321.4 468.562,1326.05 478.803,1325.25 489.045,1319.01 499.287,1307.55 509.529,1291.23 519.771,1270.59 530.013,1246.31 540.255,1219.17 550.497,1190.06 560.738,1159.94 570.98,1129.77 581.222,1100.56 591.464,1073.25 601.706,1048.73 611.948,1027.81 622.19,1011.17 632.431,999.339 642.673,992.719 652.915,991.521 663.157,995.783 673.399,1005.37 683.641,1019.96 693.882,1039.09 704.124,1062.12 714.366,1088.32 724.608,1116.81 734.85,1146.68 745.092,1176.94 755.334,1206.61 765.575,1234.73 775.817,1260.37 786.059,1282.69 796.301,1300.97 806.543,1314.62 816.785,1323.18 827.027,1326.37 837.268,1324.1 847.51,1316.44 857.752,1303.63 867.994,1286.1 878.236,1264.41 888.478,1239.28 898.72,1211.53 908.961,1182.05 919.203,1151.82 929.445,1121.81 939.687,1093.02 949.929,1066.37 960.171,1042.75 970.413,1022.91 980.654,1007.51 990.896,997.043 1001.14,991.861 1011.38,992.13 1021.62,997.84 1031.86,1008.8 1042.11,1024.67 1052.35,1044.91 1062.59,1068.87 1072.83,1095.76 1083.07,1124.72 1093.31,1154.79 1103.56,1184.99 1113.8,1214.34 1124.04,1241.88 1134.28,1266.7 1144.52,1288.01 1154.77,1305.1 1165.01,1317.42 1175.25,1324.57 1185.49,1326.3 1195.73,1322.57 1205.98,1313.5 1216.22,1299.38 1226.46,1280.67 1236.7,1257.98 1246.94,1232.07 1257.18,1203.76 1267.43,1173.98 1277.67,319.91 1287.91,318.526 1298.15,319.786 1308.39,323.981 1318.64,329.825 1328.88,334.848 1339.12,336.336 1349.36,332.471 1359.6,323.256 1369.84,310.833 1380.09,299.012 1390.33,292.106 1400.57,293.43 1410.81,303.967 1421.05,321.689 1431.3,341.859 1441.54,358.283 1451.78,365.211 1462.02,359.281 1472.26,340.88 1482.51,314.412 1492.75,287.287 1502.99,267.846 1513.23,262.81 1523.47,275.018 1533.71,302.218 1543.96,337.345 1554.2,370.343 1564.44,391.038 1574.68,392.264 1584.92,372.27 1595.17,335.628 1605.41,292.253 1615.65,254.734 1625.89,234.677 1636.13,239.137 1646.38,268.214 1656.62,314.635 1666.86,365.524 1677.1,405.975 1687.34,423.415 1697.58,411.489 1707.83,372.272 1718.07,316.064 1728.31,258.704 1738.55,217.114 1748.79,204.305 1759.04,225.338 1769.28,275.469 1779.52,341.142 1789.76,403.639 1800,444.413 1810.24,450.589 1820.49,418.995 1830.73,357.478 1840.97,282.997 1851.21,216.964 1861.45,179.081 1871.7,181.476 1881.94,224.856 1892.18,297.906 1902.42,380.207 1912.66,447.943 1922.91,480.788 1933.15,467.998 1943.39,411.872 1953.63,327.485 1963.87,238.665 1974.11,171.258 1984.36,145.617 1994.6,170.465 2004.84,240.001 2015.08,335.181 2025.32,428.924 2035.57,493.812 2045.81,510.11 2056.05,471.75 2066.29,388.469 2076.53,283.386 2086.77,186.587 2097.02,126.516 2107.26,121.616 2117.5,174.694 2127.74,271.709 2137.98,385.463 2148.23,483.216 2158.47,536.111 2168.71,527.689 2178.95,458.978 2189.19,348.597 2199.44,227.733 2209.68,131.327 2219.92,87.9763 2230.16,111.461 2240.4,196.399 2250.64,319.407 2260.89,445.516 2271.13,538.124 2281.37,569.604 2291.61,529.546 "/>
<path clip-path="url(#clip590)" d="M264.353 250.738 L707.222 250.738 L707.222 95.2176 L264.353 95.2176  Z" fill="#ffffff" fill-rule="evenodd" fill-opacity="1"/>
<polyline clip-path="url(#clip590)" style="stroke:#000000; stroke-linecap:round; stroke-linejoin:round; stroke-width:4; stroke-opacity:1; fill:none" points="264.353,250.738 707.222,250.738 707.222,95.2176 264.353,95.2176 264.353,250.738 "/>
<polyline clip-path="url(#clip590)" style="stroke:#009af9; stroke-linecap:round; stroke-linejoin:round; stroke-width:16; stroke-opacity:1; fill:none" stroke-dasharray="8, 16" points="288.357,147.058 432.385,147.058 "/>
<path clip-path="url(#clip590)" d="M461.066 133.62 L461.066 146.606 L466.945 146.606 Q470.209 146.606 471.992 144.916 Q473.774 143.227 473.774 140.102 Q473.774 137 471.992 135.31 Q470.209 133.62 466.945 133.62 L461.066 133.62 M456.39 129.778 L466.945 129.778 Q472.755 129.778 475.718 132.416 Q478.704 135.032 478.704 140.102 Q478.704 145.217 475.718 147.833 Q472.755 150.449 466.945 150.449 L461.066 150.449 L461.066 164.338 L456.39 164.338 L456.39 129.778 Z" fill="#000000" fill-rule="nonzero" fill-opacity="1" /><path clip-path="url(#clip590)" d="M498.982 142.393 Q498.265 141.977 497.408 141.791 Q496.575 141.583 495.556 141.583 Q491.945 141.583 490.001 143.944 Q488.079 146.282 488.079 150.68 L488.079 164.338 L483.797 164.338 L483.797 138.412 L488.079 138.412 L488.079 142.44 Q489.422 140.078 491.575 138.944 Q493.728 137.787 496.806 137.787 Q497.246 137.787 497.778 137.856 Q498.311 137.903 498.959 138.018 L498.982 142.393 Z" fill="#000000" fill-rule="nonzero" fill-opacity="1" /><path clip-path="url(#clip590)" d="M524.584 150.31 L524.584 152.393 L505.001 152.393 Q505.278 156.791 507.639 159.106 Q510.024 161.398 514.26 161.398 Q516.714 161.398 519.005 160.796 Q521.32 160.194 523.588 158.99 L523.588 163.018 Q521.297 163.99 518.889 164.5 Q516.482 165.009 514.005 165.009 Q507.802 165.009 504.167 161.398 Q500.556 157.787 500.556 151.629 Q500.556 145.264 503.982 141.537 Q507.431 137.787 513.264 137.787 Q518.496 137.787 521.528 141.166 Q524.584 144.523 524.584 150.31 M520.325 149.06 Q520.278 145.565 518.357 143.481 Q516.459 141.398 513.311 141.398 Q509.746 141.398 507.593 143.412 Q505.464 145.426 505.14 149.083 L520.325 149.06 Z" fill="#000000" fill-rule="nonzero" fill-opacity="1" /><path clip-path="url(#clip590)" d="M548.635 142.347 L548.635 128.319 L552.894 128.319 L552.894 164.338 L548.635 164.338 L548.635 160.449 Q547.292 162.763 545.232 163.898 Q543.195 165.009 540.325 165.009 Q535.625 165.009 532.663 161.259 Q529.723 157.509 529.723 151.398 Q529.723 145.287 532.663 141.537 Q535.625 137.787 540.325 137.787 Q543.195 137.787 545.232 138.921 Q547.292 140.032 548.635 142.347 M534.121 151.398 Q534.121 156.097 536.042 158.782 Q537.987 161.444 541.366 161.444 Q544.746 161.444 546.69 158.782 Q548.635 156.097 548.635 151.398 Q548.635 146.699 546.69 144.037 Q544.746 141.352 541.366 141.352 Q537.987 141.352 536.042 144.037 Q534.121 146.699 534.121 151.398 Z" fill="#000000" fill-rule="nonzero" fill-opacity="1" /><path clip-path="url(#clip590)" d="M561.667 138.412 L565.926 138.412 L565.926 164.338 L561.667 164.338 L561.667 138.412 M561.667 128.319 L565.926 128.319 L565.926 133.713 L561.667 133.713 L561.667 128.319 Z" fill="#000000" fill-rule="nonzero" fill-opacity="1" /><path clip-path="url(#clip590)" d="M593.496 139.407 L593.496 143.389 Q591.69 142.393 589.861 141.907 Q588.056 141.398 586.204 141.398 Q582.06 141.398 579.769 144.037 Q577.477 146.652 577.477 151.398 Q577.477 156.143 579.769 158.782 Q582.06 161.398 586.204 161.398 Q588.056 161.398 589.861 160.912 Q591.69 160.402 593.496 159.407 L593.496 163.342 Q591.713 164.176 589.792 164.592 Q587.894 165.009 585.741 165.009 Q579.884 165.009 576.435 161.328 Q572.986 157.648 572.986 151.398 Q572.986 145.055 576.459 141.421 Q579.954 137.787 586.019 137.787 Q587.986 137.787 589.861 138.203 Q591.736 138.597 593.496 139.407 Z" fill="#000000" fill-rule="nonzero" fill-opacity="1" /><path clip-path="url(#clip590)" d="M605.116 131.051 L605.116 138.412 L613.889 138.412 L613.889 141.722 L605.116 141.722 L605.116 155.796 Q605.116 158.967 605.972 159.87 Q606.852 160.773 609.514 160.773 L613.889 160.773 L613.889 164.338 L609.514 164.338 Q604.583 164.338 602.708 162.509 Q600.833 160.657 600.833 155.796 L600.833 141.722 L597.708 141.722 L597.708 138.412 L600.833 138.412 L600.833 131.051 L605.116 131.051 Z" fill="#000000" fill-rule="nonzero" fill-opacity="1" /><path clip-path="url(#clip590)" d="M619.491 138.412 L623.75 138.412 L623.75 164.338 L619.491 164.338 L619.491 138.412 M619.491 128.319 L623.75 128.319 L623.75 133.713 L619.491 133.713 L619.491 128.319 Z" fill="#000000" fill-rule="nonzero" fill-opacity="1" /><path clip-path="url(#clip590)" d="M642.708 141.398 Q639.282 141.398 637.292 144.083 Q635.301 146.745 635.301 151.398 Q635.301 156.051 637.268 158.736 Q639.259 161.398 642.708 161.398 Q646.111 161.398 648.102 158.713 Q650.092 156.027 650.092 151.398 Q650.092 146.791 648.102 144.106 Q646.111 141.398 642.708 141.398 M642.708 137.787 Q648.264 137.787 651.435 141.398 Q654.606 145.009 654.606 151.398 Q654.606 157.764 651.435 161.398 Q648.264 165.009 642.708 165.009 Q637.13 165.009 633.958 161.398 Q630.81 157.764 630.81 151.398 Q630.81 145.009 633.958 141.398 Q637.13 137.787 642.708 137.787 Z" fill="#000000" fill-rule="nonzero" fill-opacity="1" /><path clip-path="url(#clip590)" d="M683.217 148.689 L683.217 164.338 L678.958 164.338 L678.958 148.828 Q678.958 145.148 677.523 143.319 Q676.088 141.49 673.217 141.49 Q669.768 141.49 667.778 143.69 Q665.787 145.889 665.787 149.685 L665.787 164.338 L661.504 164.338 L661.504 138.412 L665.787 138.412 L665.787 142.44 Q667.315 140.102 669.375 138.944 Q671.458 137.787 674.166 137.787 Q678.634 137.787 680.926 140.565 Q683.217 143.319 683.217 148.689 Z" fill="#000000" fill-rule="nonzero" fill-opacity="1" /><polyline clip-path="url(#clip590)" style="stroke:#e26f46; stroke-linecap:round; stroke-linejoin:round; stroke-width:4; stroke-opacity:1; fill:none" points="288.357,198.898 432.385,198.898 "/>
<path clip-path="url(#clip590)" d="M456.39 181.618 L478.242 181.618 L478.242 185.553 L461.066 185.553 L461.066 195.784 L477.524 195.784 L477.524 199.719 L461.066 199.719 L461.066 212.242 L478.658 212.242 L478.658 216.178 L456.39 216.178 L456.39 181.618 Z" fill="#000000" fill-rule="nonzero" fill-opacity="1" /><path clip-path="url(#clip590)" d="M507.709 190.252 L498.334 202.867 L508.195 216.178 L503.172 216.178 L495.626 205.992 L488.079 216.178 L483.056 216.178 L493.126 202.613 L483.913 190.252 L488.936 190.252 L495.811 199.488 L502.686 190.252 L507.709 190.252 Z" fill="#000000" fill-rule="nonzero" fill-opacity="1" /><path clip-path="url(#clip590)" d="M525.996 203.145 Q520.834 203.145 518.843 204.326 Q516.852 205.506 516.852 208.354 Q516.852 210.622 518.334 211.965 Q519.838 213.284 522.408 213.284 Q525.95 213.284 528.079 210.784 Q530.232 208.261 530.232 204.094 L530.232 203.145 L525.996 203.145 M534.491 201.386 L534.491 216.178 L530.232 216.178 L530.232 212.242 Q528.774 214.603 526.598 215.738 Q524.422 216.849 521.274 216.849 Q517.292 216.849 514.931 214.627 Q512.593 212.381 512.593 208.631 Q512.593 204.256 515.51 202.034 Q518.45 199.812 524.26 199.812 L530.232 199.812 L530.232 199.395 Q530.232 196.455 528.288 194.858 Q526.366 193.238 522.871 193.238 Q520.649 193.238 518.542 193.77 Q516.436 194.303 514.491 195.367 L514.491 191.432 Q516.829 190.53 519.028 190.09 Q521.227 189.627 523.311 189.627 Q528.936 189.627 531.713 192.543 Q534.491 195.46 534.491 201.386 Z" fill="#000000" fill-rule="nonzero" fill-opacity="1" /><path clip-path="url(#clip590)" d="M561.922 191.247 L561.922 195.229 Q560.116 194.233 558.287 193.747 Q556.482 193.238 554.63 193.238 Q550.486 193.238 548.195 195.877 Q545.903 198.492 545.903 203.238 Q545.903 207.983 548.195 210.622 Q550.486 213.238 554.63 213.238 Q556.482 213.238 558.287 212.752 Q560.116 212.242 561.922 211.247 L561.922 215.182 Q560.139 216.016 558.218 216.432 Q556.32 216.849 554.167 216.849 Q548.311 216.849 544.862 213.168 Q541.412 209.488 541.412 203.238 Q541.412 196.895 544.885 193.261 Q548.38 189.627 554.445 189.627 Q556.412 189.627 558.287 190.043 Q560.162 190.437 561.922 191.247 Z" fill="#000000" fill-rule="nonzero" fill-opacity="1" /><path clip-path="url(#clip590)" d="M573.542 182.891 L573.542 190.252 L582.315 190.252 L582.315 193.562 L573.542 193.562 L573.542 207.636 Q573.542 210.807 574.398 211.71 Q575.278 212.613 577.94 212.613 L582.315 212.613 L582.315 216.178 L577.94 216.178 Q573.01 216.178 571.135 214.349 Q569.26 212.497 569.26 207.636 L569.26 193.562 L566.135 193.562 L566.135 190.252 L569.26 190.252 L569.26 182.891 L573.542 182.891 Z" fill="#000000" fill-rule="nonzero" fill-opacity="1" /></svg>
