<?xml version="1.0" encoding="utf-8"?>
<svg xmlns="http://www.w3.org/2000/svg" xmlns:xlink="http://www.w3.org/1999/xlink" width="600" height="400" viewBox="0 0 2400 1600">
<defs>
  <clipPath id="clip700">
    <rect x="0" y="0" width="2400" height="1600"/>
  </clipPath>
</defs>
<path clip-path="url(#clip700)" d="M0 1600 L2400 1600 L2400 0 L0 0  Z" fill="#ffffff" fill-rule="evenodd" fill-opacity="1"/>
<defs>
  <clipPath id="clip701">
    <rect x="480" y="0" width="1681" height="1600"/>
  </clipPath>
</defs>
<path clip-path="url(#clip700)" d="M192.339 1486.45 L2352.76 1486.45 L2352.76 47.2441 L192.339 47.2441  Z" fill="#ffffff" fill-rule="evenodd" fill-opacity="1"/>
<defs>
  <clipPath id="clip702">
    <rect x="192" y="47" width="2161" height="1440"/>
  </clipPath>
</defs>
<polyline clip-path="url(#clip702)" style="stroke:#000000; stroke-linecap:round; stroke-linejoin:round; stroke-width:2; stroke-opacity:0.1; fill:none" points="253.483,1486.45 253.483,47.2441 "/>
<polyline clip-path="url(#clip702)" style="stroke:#000000; stroke-linecap:round; stroke-linejoin:round; stroke-width:2; stroke-opacity:0.1; fill:none" points="763.015,1486.45 763.015,47.2441 "/>
<polyline clip-path="url(#clip702)" style="stroke:#000000; stroke-linecap:round; stroke-linejoin:round; stroke-width:2; stroke-opacity:0.1; fill:none" points="1272.55,1486.45 1272.55,47.2441 "/>
<polyline clip-path="url(#clip702)" style="stroke:#000000; stroke-linecap:round; stroke-linejoin:round; stroke-width:2; stroke-opacity:0.1; fill:none" points="1782.08,1486.45 1782.08,47.2441 "/>
<polyline clip-path="url(#clip702)" style="stroke:#000000; stroke-linecap:round; stroke-linejoin:round; stroke-width:2; stroke-opacity:0.1; fill:none" points="2291.61,1486.45 2291.61,47.2441 "/>
<polyline clip-path="url(#clip700)" style="stroke:#000000; stroke-linecap:round; stroke-linejoin:round; stroke-width:4; stroke-opacity:1; fill:none" points="192.339,1486.45 2352.76,1486.45 "/>
<polyline clip-path="url(#clip700)" style="stroke:#000000; stroke-linecap:round; stroke-linejoin:round; stroke-width:4; stroke-opacity:1; fill:none" points="253.483,1486.45 253.483,1467.55 "/>
<polyline clip-path="url(#clip700)" style="stroke:#000000; stroke-linecap:round; stroke-linejoin:round; stroke-width:4; stroke-opacity:1; fill:none" points="763.015,1486.45 763.015,1467.55 "/>
<polyline clip-path="url(#clip700)" style="stroke:#000000; stroke-linecap:round; stroke-linejoin:round; stroke-width:4; stroke-opacity:1; fill:none" points="1272.55,1486.45 1272.55,1467.55 "/>
<polyline clip-path="url(#clip700)" style="stroke:#000000; stroke-linecap:round; stroke-linejoin:round; stroke-width:4; stroke-opacity:1; fill:none" points="1782.08,1486.45 1782.08,1467.55 "/>
<polyline clip-path="url(#clip700)" style="stroke:#000000; stroke-linecap:round; stroke-linejoin:round; stroke-width:4; stroke-opacity:1; fill:none" points="2291.61,1486.45 2291.61,1467.55 "/>
<path clip-path="url(#clip700)" d="M200.011 1532.02 L229.686 1532.02 L229.686 1535.95 L200.011 1535.95 L200.011 1532.02 Z" fill="#000000" fill-rule="nonzero" fill-opacity="1" /><path clip-path="url(#clip700)" d="M240.589 1544.91 L248.228 1544.91 L248.228 1518.55 L239.918 1520.21 L239.918 1515.95 L248.182 1514.29 L252.858 1514.29 L252.858 1544.91 L260.497 1544.91 L260.497 1548.85 L240.589 1548.85 L240.589 1544.91 Z" fill="#000000" fill-rule="nonzero" fill-opacity="1" /><path clip-path="url(#clip700)" d="M269.941 1542.97 L274.825 1542.97 L274.825 1548.85 L269.941 1548.85 L269.941 1542.97 Z" fill="#000000" fill-rule="nonzero" fill-opacity="1" /><path clip-path="url(#clip700)" d="M295.01 1517.37 Q291.399 1517.37 289.57 1520.93 Q287.765 1524.47 287.765 1531.6 Q287.765 1538.71 289.57 1542.27 Q291.399 1545.82 295.01 1545.82 Q298.644 1545.82 300.45 1542.27 Q302.279 1538.71 302.279 1531.6 Q302.279 1524.47 300.45 1520.93 Q298.644 1517.37 295.01 1517.37 M295.01 1513.66 Q300.82 1513.66 303.876 1518.27 Q306.955 1522.85 306.955 1531.6 Q306.955 1540.33 303.876 1544.94 Q300.82 1549.52 295.01 1549.52 Q289.2 1549.52 286.121 1544.94 Q283.066 1540.33 283.066 1531.6 Q283.066 1522.85 286.121 1518.27 Q289.2 1513.66 295.01 1513.66 Z" fill="#000000" fill-rule="nonzero" fill-opacity="1" /><path clip-path="url(#clip700)" d="M710.041 1532.02 L739.717 1532.02 L739.717 1535.95 L710.041 1535.95 L710.041 1532.02 Z" fill="#000000" fill-rule="nonzero" fill-opacity="1" /><path clip-path="url(#clip700)" d="M759.809 1517.37 Q756.198 1517.37 754.369 1520.93 Q752.564 1524.47 752.564 1531.6 Q752.564 1538.71 754.369 1542.27 Q756.198 1545.82 759.809 1545.82 Q763.443 1545.82 765.249 1542.27 Q767.077 1538.71 767.077 1531.6 Q767.077 1524.47 765.249 1520.93 Q763.443 1517.37 759.809 1517.37 M759.809 1513.66 Q765.619 1513.66 768.675 1518.27 Q771.753 1522.85 771.753 1531.6 Q771.753 1540.33 768.675 1544.94 Q765.619 1549.52 759.809 1549.52 Q753.999 1549.52 750.92 1544.94 Q747.865 1540.33 747.865 1531.6 Q747.865 1522.85 750.92 1518.27 Q753.999 1513.66 759.809 1513.66 Z" fill="#000000" fill-rule="nonzero" fill-opacity="1" /><path clip-path="url(#clip700)" d="M779.971 1542.97 L784.855 1542.97 L784.855 1548.85 L779.971 1548.85 L779.971 1542.97 Z" fill="#000000" fill-rule="nonzero" fill-opacity="1" /><path clip-path="url(#clip700)" d="M795.087 1514.29 L813.443 1514.29 L813.443 1518.22 L799.369 1518.22 L799.369 1526.7 Q800.387 1526.35 801.406 1526.19 Q802.425 1526 803.443 1526 Q809.23 1526 812.61 1529.17 Q815.989 1532.34 815.989 1537.76 Q815.989 1543.34 812.517 1546.44 Q809.045 1549.52 802.725 1549.52 Q800.55 1549.52 798.281 1549.15 Q796.036 1548.78 793.628 1548.04 L793.628 1543.34 Q795.712 1544.47 797.934 1545.03 Q800.156 1545.58 802.633 1545.58 Q806.637 1545.58 808.975 1543.48 Q811.313 1541.37 811.313 1537.76 Q811.313 1534.15 808.975 1532.04 Q806.637 1529.94 802.633 1529.94 Q800.758 1529.94 798.883 1530.35 Q797.031 1530.77 795.087 1531.65 L795.087 1514.29 Z" fill="#000000" fill-rule="nonzero" fill-opacity="1" /><path clip-path="url(#clip700)" d="M1249.93 1517.37 Q1246.32 1517.37 1244.49 1520.93 Q1242.69 1524.47 1242.69 1531.6 Q1242.69 1538.71 1244.49 1542.27 Q1246.32 1545.82 1249.93 1545.82 Q1253.57 1545.82 1255.37 1542.27 Q1257.2 1538.71 1257.2 1531.6 Q1257.2 1524.47 1255.37 1520.93 Q1253.57 1517.37 1249.93 1517.37 M1249.93 1513.66 Q1255.74 1513.66 1258.8 1518.27 Q1261.88 1522.85 1261.88 1531.6 Q1261.88 1540.33 1258.8 1544.94 Q1255.74 1549.52 1249.93 1549.52 Q1244.12 1549.52 1241.04 1544.94 Q1237.99 1540.33 1237.99 1531.6 Q1237.99 1522.85 1241.04 1518.27 Q1244.12 1513.66 1249.93 1513.66 Z" fill="#000000" fill-rule="nonzero" fill-opacity="1" /><path clip-path="url(#clip700)" d="M1270.09 1542.97 L1274.98 1542.97 L1274.98 1548.85 L1270.09 1548.85 L1270.09 1542.97 Z" fill="#000000" fill-rule="nonzero" fill-opacity="1" /><path clip-path="url(#clip700)" d="M1295.16 1517.37 Q1291.55 1517.37 1289.72 1520.93 Q1287.92 1524.47 1287.92 1531.6 Q1287.92 1538.71 1289.72 1542.27 Q1291.55 1545.82 1295.16 1545.82 Q1298.8 1545.82 1300.6 1542.27 Q1302.43 1538.71 1302.43 1531.6 Q1302.43 1524.47 1300.6 1520.93 Q1298.8 1517.37 1295.16 1517.37 M1295.16 1513.66 Q1300.97 1513.66 1304.03 1518.27 Q1307.11 1522.85 1307.11 1531.6 Q1307.11 1540.33 1304.03 1544.94 Q1300.97 1549.52 1295.16 1549.52 Q1289.35 1549.52 1286.27 1544.94 Q1283.22 1540.33 1283.22 1531.6 Q1283.22 1522.85 1286.27 1518.27 Q1289.35 1513.66 1295.16 1513.66 Z" fill="#000000" fill-rule="nonzero" fill-opacity="1" /><path clip-path="url(#clip700)" d="M1759.96 1517.37 Q1756.35 1517.37 1754.52 1520.93 Q1752.72 1524.47 1752.72 1531.6 Q1752.72 1538.71 1754.52 1542.27 Q1756.35 1545.82 1759.96 1545.82 Q1763.6 1545.82 1765.4 1542.27 Q1767.23 1538.71 1767.23 1531.6 Q1767.23 1524.47 1765.4 1520.93 Q1763.6 1517.37 1759.96 1517.37 M1759.96 1513.66 Q1765.77 1513.66 1768.83 1518.27 Q1771.91 1522.85 1771.91 1531.6 Q1771.91 1540.33 1768.83 1544.94 Q1765.77 1549.52 1759.96 1549.52 Q1754.15 1549.52 1751.07 1544.94 Q1748.02 1540.33 1748.02 1531.6 Q1748.02 1522.85 1751.07 1518.27 Q1754.15 1513.66 1759.96 1513.66 Z" fill="#000000" fill-rule="nonzero" fill-opacity="1" /><path clip-path="url(#clip700)" d="M1780.12 1542.97 L1785.01 1542.97 L1785.01 1548.85 L1780.12 1548.85 L1780.12 1542.97 Z" fill="#000000" fill-rule="nonzero" fill-opacity="1" /><path clip-path="url(#clip700)" d="M1795.24 1514.29 L1813.6 1514.29 L1813.6 1518.22 L1799.52 1518.22 L1799.52 1526.7 Q1800.54 1526.35 1801.56 1526.19 Q1802.58 1526 1803.6 1526 Q1809.38 1526 1812.76 1529.17 Q1816.14 1532.34 1816.14 1537.76 Q1816.14 1543.34 1812.67 1546.44 Q1809.2 1549.52 1802.88 1549.52 Q1800.7 1549.52 1798.43 1549.15 Q1796.19 1548.78 1793.78 1548.04 L1793.78 1543.34 Q1795.86 1544.47 1798.09 1545.03 Q1800.31 1545.58 1802.79 1545.58 Q1806.79 1545.58 1809.13 1543.48 Q1811.47 1541.37 1811.47 1537.76 Q1811.47 1534.15 1809.13 1532.04 Q1806.79 1529.94 1802.79 1529.94 Q1800.91 1529.94 1799.04 1530.35 Q1797.18 1530.77 1795.24 1531.65 L1795.24 1514.29 Z" fill="#000000" fill-rule="nonzero" fill-opacity="1" /><path clip-path="url(#clip700)" d="M2258.76 1544.91 L2266.4 1544.91 L2266.4 1518.55 L2258.09 1520.21 L2258.09 1515.95 L2266.36 1514.29 L2271.03 1514.29 L2271.03 1544.91 L2278.67 1544.91 L2278.67 1548.85 L2258.76 1548.85 L2258.76 1544.91 Z" fill="#000000" fill-rule="nonzero" fill-opacity="1" /><path clip-path="url(#clip700)" d="M2288.12 1542.97 L2293 1542.97 L2293 1548.85 L2288.12 1548.85 L2288.12 1542.97 Z" fill="#000000" fill-rule="nonzero" fill-opacity="1" /><path clip-path="url(#clip700)" d="M2313.19 1517.37 Q2309.57 1517.37 2307.75 1520.93 Q2305.94 1524.47 2305.94 1531.6 Q2305.94 1538.71 2307.75 1542.27 Q2309.57 1545.82 2313.19 1545.82 Q2316.82 1545.82 2318.63 1542.27 Q2320.45 1538.71 2320.45 1531.6 Q2320.45 1524.47 2318.63 1520.93 Q2316.82 1517.37 2313.19 1517.37 M2313.19 1513.66 Q2319 1513.66 2322.05 1518.27 Q2325.13 1522.85 2325.13 1531.6 Q2325.13 1540.33 2322.05 1544.94 Q2319 1549.52 2313.19 1549.52 Q2307.38 1549.52 2304.3 1544.94 Q2301.24 1540.33 2301.24 1531.6 Q2301.24 1522.85 2304.3 1518.27 Q2307.38 1513.66 2313.19 1513.66 Z" fill="#000000" fill-rule="nonzero" fill-opacity="1" /><polyline clip-path="url(#clip702)" style="stroke:#000000; stroke-linecap:round; stroke-linejoin:round; stroke-width:2; stroke-opacity:0.1; fill:none" points="192.339,1382.33 2352.76,1382.33 "/>
<polyline clip-path="url(#clip702)" style="stroke:#000000; stroke-linecap:round; stroke-linejoin:round; stroke-width:2; stroke-opacity:0.1; fill:none" points="192.339,1207.22 2352.76,1207.22 "/>
<polyline clip-path="url(#clip702)" style="stroke:#000000; stroke-linecap:round; stroke-linejoin:round; stroke-width:2; stroke-opacity:0.1; fill:none" points="192.339,1032.11 2352.76,1032.11 "/>
<polyline clip-path="url(#clip702)" style="stroke:#000000; stroke-linecap:round; stroke-linejoin:round; stroke-width:2; stroke-opacity:0.1; fill:none" points="192.339,856.996 2352.76,856.996 "/>
<polyline clip-path="url(#clip702)" style="stroke:#000000; stroke-linecap:round; stroke-linejoin:round; stroke-width:2; stroke-opacity:0.1; fill:none" points="192.339,681.884 2352.76,681.884 "/>
<polyline clip-path="url(#clip702)" style="stroke:#000000; stroke-linecap:round; stroke-linejoin:round; stroke-width:2; stroke-opacity:0.1; fill:none" points="192.339,506.771 2352.76,506.771 "/>
<polyline clip-path="url(#clip702)" style="stroke:#000000; stroke-linecap:round; stroke-linejoin:round; stroke-width:2; stroke-opacity:0.1; fill:none" points="192.339,331.658 2352.76,331.658 "/>
<polyline clip-path="url(#clip702)" style="stroke:#000000; stroke-linecap:round; stroke-linejoin:round; stroke-width:2; stroke-opacity:0.1; fill:none" points="192.339,156.546 2352.76,156.546 "/>
<polyline clip-path="url(#clip700)" style="stroke:#000000; stroke-linecap:round; stroke-linejoin:round; stroke-width:4; stroke-opacity:1; fill:none" points="192.339,1486.45 192.339,47.2441 "/>
<polyline clip-path="url(#clip700)" style="stroke:#000000; stroke-linecap:round; stroke-linejoin:round; stroke-width:4; stroke-opacity:1; fill:none" points="192.339,1382.33 211.236,1382.33 "/>
<polyline clip-path="url(#clip700)" style="stroke:#000000; stroke-linecap:round; stroke-linejoin:round; stroke-width:4; stroke-opacity:1; fill:none" points="192.339,1207.22 211.236,1207.22 "/>
<polyline clip-path="url(#clip700)" style="stroke:#000000; stroke-linecap:round; stroke-linejoin:round; stroke-width:4; stroke-opacity:1; fill:none" points="192.339,1032.11 211.236,1032.11 "/>
<polyline clip-path="url(#clip700)" style="stroke:#000000; stroke-linecap:round; stroke-linejoin:round; stroke-width:4; stroke-opacity:1; fill:none" points="192.339,856.996 211.236,856.996 "/>
<polyline clip-path="url(#clip700)" style="stroke:#000000; stroke-linecap:round; stroke-linejoin:round; stroke-width:4; stroke-opacity:1; fill:none" points="192.339,681.884 211.236,681.884 "/>
<polyline clip-path="url(#clip700)" style="stroke:#000000; stroke-linecap:round; stroke-linejoin:round; stroke-width:4; stroke-opacity:1; fill:none" points="192.339,506.771 211.236,506.771 "/>
<polyline clip-path="url(#clip700)" style="stroke:#000000; stroke-linecap:round; stroke-linejoin:round; stroke-width:4; stroke-opacity:1; fill:none" points="192.339,331.658 211.236,331.658 "/>
<polyline clip-path="url(#clip700)" style="stroke:#000000; stroke-linecap:round; stroke-linejoin:round; stroke-width:4; stroke-opacity:1; fill:none" points="192.339,156.546 211.236,156.546 "/>
<path clip-path="url(#clip700)" d="M50.9921 1382.79 L80.6679 1382.79 L80.6679 1386.72 L50.9921 1386.72 L50.9921 1382.79 Z" fill="#000000" fill-rule="nonzero" fill-opacity="1" /><path clip-path="url(#clip700)" d="M100.76 1368.13 Q97.1493 1368.13 95.3206 1371.7 Q93.515 1375.24 93.515 1382.37 Q93.515 1389.47 95.3206 1393.04 Q97.1493 1396.58 100.76 1396.58 Q104.395 1396.58 106.2 1393.04 Q108.029 1389.47 108.029 1382.37 Q108.029 1375.24 106.2 1371.7 Q104.395 1368.13 100.76 1368.13 M100.76 1364.43 Q106.571 1364.43 109.626 1369.04 Q112.705 1373.62 112.705 1382.37 Q112.705 1391.1 109.626 1395.7 Q106.571 1400.29 100.76 1400.29 Q94.9502 1400.29 91.8715 1395.7 Q88.816 1391.1 88.816 1382.37 Q88.816 1373.62 91.8715 1369.04 Q94.9502 1364.43 100.76 1364.43 Z" fill="#000000" fill-rule="nonzero" fill-opacity="1" /><path clip-path="url(#clip700)" d="M120.922 1393.73 L125.807 1393.73 L125.807 1399.61 L120.922 1399.61 L120.922 1393.73 Z" fill="#000000" fill-rule="nonzero" fill-opacity="1" /><path clip-path="url(#clip700)" d="M140.019 1395.68 L156.339 1395.68 L156.339 1399.61 L134.394 1399.61 L134.394 1395.68 Q137.056 1392.92 141.64 1388.29 Q146.246 1383.64 147.427 1382.3 Q149.672 1379.78 150.552 1378.04 Q151.455 1376.28 151.455 1374.59 Q151.455 1371.84 149.51 1370.1 Q147.589 1368.36 144.487 1368.36 Q142.288 1368.36 139.834 1369.13 Q137.404 1369.89 134.626 1371.44 L134.626 1366.72 Q137.45 1365.59 139.904 1365.01 Q142.357 1364.43 144.394 1364.43 Q149.765 1364.43 152.959 1367.11 Q156.154 1369.8 156.154 1374.29 Q156.154 1376.42 155.343 1378.34 Q154.556 1380.24 152.45 1382.83 Q151.871 1383.5 148.769 1386.72 Q145.668 1389.91 140.019 1395.68 Z" fill="#000000" fill-rule="nonzero" fill-opacity="1" /><path clip-path="url(#clip700)" d="M99.1632 1193.02 Q95.5521 1193.02 93.7234 1196.58 Q91.9178 1200.13 91.9178 1207.26 Q91.9178 1214.36 93.7234 1217.93 Q95.5521 1221.47 99.1632 1221.47 Q102.797 1221.47 104.603 1217.93 Q106.432 1214.36 106.432 1207.26 Q106.432 1200.13 104.603 1196.58 Q102.797 1193.02 99.1632 1193.02 M99.1632 1189.32 Q104.973 1189.32 108.029 1193.92 Q111.108 1198.51 111.108 1207.26 Q111.108 1215.98 108.029 1220.59 Q104.973 1225.17 99.1632 1225.17 Q93.353 1225.17 90.2743 1220.59 Q87.2188 1215.98 87.2188 1207.26 Q87.2188 1198.51 90.2743 1193.92 Q93.353 1189.32 99.1632 1189.32 Z" fill="#000000" fill-rule="nonzero" fill-opacity="1" /><path clip-path="url(#clip700)" d="M119.325 1218.62 L124.209 1218.62 L124.209 1224.5 L119.325 1224.5 L119.325 1218.62 Z" fill="#000000" fill-rule="nonzero" fill-opacity="1" /><path clip-path="url(#clip700)" d="M144.394 1193.02 Q140.783 1193.02 138.955 1196.58 Q137.149 1200.13 137.149 1207.26 Q137.149 1214.36 138.955 1217.93 Q140.783 1221.47 144.394 1221.47 Q148.029 1221.47 149.834 1217.93 Q151.663 1214.36 151.663 1207.26 Q151.663 1200.13 149.834 1196.58 Q148.029 1193.02 144.394 1193.02 M144.394 1189.32 Q150.205 1189.32 153.26 1193.92 Q156.339 1198.51 156.339 1207.26 Q156.339 1215.98 153.26 1220.59 Q150.205 1225.17 144.394 1225.17 Q138.584 1225.17 135.506 1220.59 Q132.45 1215.98 132.45 1207.26 Q132.45 1198.51 135.506 1193.92 Q138.584 1189.32 144.394 1189.32 Z" fill="#000000" fill-rule="nonzero" fill-opacity="1" /><path clip-path="url(#clip700)" d="M100.76 1017.91 Q97.1493 1017.91 95.3206 1021.47 Q93.515 1025.01 93.515 1032.14 Q93.515 1039.25 95.3206 1042.81 Q97.1493 1046.36 100.76 1046.36 Q104.395 1046.36 106.2 1042.81 Q108.029 1039.25 108.029 1032.14 Q108.029 1025.01 106.2 1021.47 Q104.395 1017.91 100.76 1017.91 M100.76 1014.2 Q106.571 1014.2 109.626 1018.81 Q112.705 1023.39 112.705 1032.14 Q112.705 1040.87 109.626 1045.48 Q106.571 1050.06 100.76 1050.06 Q94.9502 1050.06 91.8715 1045.48 Q88.816 1040.87 88.816 1032.14 Q88.816 1023.39 91.8715 1018.81 Q94.9502 1014.2 100.76 1014.2 Z" fill="#000000" fill-rule="nonzero" fill-opacity="1" /><path clip-path="url(#clip700)" d="M120.922 1043.51 L125.807 1043.51 L125.807 1049.39 L120.922 1049.39 L120.922 1043.51 Z" fill="#000000" fill-rule="nonzero" fill-opacity="1" /><path clip-path="url(#clip700)" d="M140.019 1045.45 L156.339 1045.45 L156.339 1049.39 L134.394 1049.39 L134.394 1045.45 Q137.056 1042.7 141.64 1038.07 Q146.246 1033.42 147.427 1032.07 Q149.672 1029.55 150.552 1027.81 Q151.455 1026.06 151.455 1024.37 Q151.455 1021.61 149.51 1019.87 Q147.589 1018.14 144.487 1018.14 Q142.288 1018.14 139.834 1018.9 Q137.404 1019.67 134.626 1021.22 L134.626 1016.5 Q137.45 1015.36 139.904 1014.78 Q142.357 1014.2 144.394 1014.2 Q149.765 1014.2 152.959 1016.89 Q156.154 1019.57 156.154 1024.06 Q156.154 1026.19 155.343 1028.12 Q154.556 1030.01 152.45 1032.61 Q151.871 1033.28 148.769 1036.5 Q145.668 1039.69 140.019 1045.45 Z" fill="#000000" fill-rule="nonzero" fill-opacity="1" /><path clip-path="url(#clip700)" d="M98.6771 842.795 Q95.066 842.795 93.2373 846.36 Q91.4317 849.901 91.4317 857.031 Q91.4317 864.137 93.2373 867.702 Q95.066 871.244 98.6771 871.244 Q102.311 871.244 104.117 867.702 Q105.946 864.137 105.946 857.031 Q105.946 849.901 104.117 846.36 Q102.311 842.795 98.6771 842.795 M98.6771 839.091 Q104.487 839.091 107.543 843.698 Q110.621 848.281 110.621 857.031 Q110.621 865.758 107.543 870.364 Q104.487 874.947 98.6771 874.947 Q92.8669 874.947 89.7882 870.364 Q86.7327 865.758 86.7327 857.031 Q86.7327 848.281 89.7882 843.698 Q92.8669 839.091 98.6771 839.091 Z" fill="#000000" fill-rule="nonzero" fill-opacity="1" /><path clip-path="url(#clip700)" d="M118.839 868.397 L123.723 868.397 L123.723 874.276 L118.839 874.276 L118.839 868.397 Z" fill="#000000" fill-rule="nonzero" fill-opacity="1" /><path clip-path="url(#clip700)" d="M146.756 843.79 L134.95 862.239 L146.756 862.239 L146.756 843.79 M145.529 839.716 L151.408 839.716 L151.408 862.239 L156.339 862.239 L156.339 866.128 L151.408 866.128 L151.408 874.276 L146.756 874.276 L146.756 866.128 L131.154 866.128 L131.154 861.614 L145.529 839.716 Z" fill="#000000" fill-rule="nonzero" fill-opacity="1" /><path clip-path="url(#clip700)" d="M99.0011 667.682 Q95.39 667.682 93.5613 671.247 Q91.7558 674.789 91.7558 681.918 Q91.7558 689.025 93.5613 692.59 Q95.39 696.131 99.0011 696.131 Q102.635 696.131 104.441 692.59 Q106.27 689.025 106.27 681.918 Q106.27 674.789 104.441 671.247 Q102.635 667.682 99.0011 667.682 M99.0011 663.979 Q104.811 663.979 107.867 668.585 Q110.946 673.168 110.946 681.918 Q110.946 690.645 107.867 695.252 Q104.811 699.835 99.0011 699.835 Q93.191 699.835 90.1123 695.252 Q87.0567 690.645 87.0567 681.918 Q87.0567 673.168 90.1123 668.585 Q93.191 663.979 99.0011 663.979 Z" fill="#000000" fill-rule="nonzero" fill-opacity="1" /><path clip-path="url(#clip700)" d="M119.163 693.284 L124.047 693.284 L124.047 699.164 L119.163 699.164 L119.163 693.284 Z" fill="#000000" fill-rule="nonzero" fill-opacity="1" /><path clip-path="url(#clip700)" d="M144.811 680.02 Q141.663 680.02 139.811 682.173 Q137.982 684.326 137.982 688.076 Q137.982 691.803 139.811 693.978 Q141.663 696.131 144.811 696.131 Q147.959 696.131 149.788 693.978 Q151.64 691.803 151.64 688.076 Q151.64 684.326 149.788 682.173 Q147.959 680.02 144.811 680.02 M154.093 665.367 L154.093 669.627 Q152.334 668.793 150.529 668.354 Q148.746 667.914 146.987 667.914 Q142.357 667.914 139.904 671.039 Q137.473 674.164 137.126 680.483 Q138.492 678.469 140.552 677.404 Q142.612 676.316 145.089 676.316 Q150.297 676.316 153.306 679.488 Q156.339 682.636 156.339 688.076 Q156.339 693.4 153.191 696.617 Q150.043 699.835 144.811 699.835 Q138.816 699.835 135.644 695.252 Q132.473 690.645 132.473 681.918 Q132.473 673.724 136.362 668.863 Q140.251 663.979 146.802 663.979 Q148.561 663.979 150.343 664.326 Q152.149 664.673 154.093 665.367 Z" fill="#000000" fill-rule="nonzero" fill-opacity="1" /><path clip-path="url(#clip700)" d="M99.2558 492.57 Q95.6447 492.57 93.816 496.135 Q92.0104 499.676 92.0104 506.806 Q92.0104 513.912 93.816 517.477 Q95.6447 521.019 99.2558 521.019 Q102.89 521.019 104.696 517.477 Q106.524 513.912 106.524 506.806 Q106.524 499.676 104.696 496.135 Q102.89 492.57 99.2558 492.57 M99.2558 488.866 Q105.066 488.866 108.121 493.472 Q111.2 498.056 111.2 506.806 Q111.2 515.533 108.121 520.139 Q105.066 524.722 99.2558 524.722 Q93.4456 524.722 90.3669 520.139 Q87.3114 515.533 87.3114 506.806 Q87.3114 498.056 90.3669 493.472 Q93.4456 488.866 99.2558 488.866 Z" fill="#000000" fill-rule="nonzero" fill-opacity="1" /><path clip-path="url(#clip700)" d="M119.418 518.171 L124.302 518.171 L124.302 524.051 L119.418 524.051 L119.418 518.171 Z" fill="#000000" fill-rule="nonzero" fill-opacity="1" /><path clip-path="url(#clip700)" d="M144.487 507.639 Q141.154 507.639 139.232 509.421 Q137.334 511.204 137.334 514.329 Q137.334 517.454 139.232 519.236 Q141.154 521.019 144.487 521.019 Q147.82 521.019 149.742 519.236 Q151.663 517.431 151.663 514.329 Q151.663 511.204 149.742 509.421 Q147.843 507.639 144.487 507.639 M139.811 505.648 Q136.802 504.908 135.112 502.847 Q133.445 500.787 133.445 497.824 Q133.445 493.681 136.385 491.273 Q139.348 488.866 144.487 488.866 Q149.649 488.866 152.589 491.273 Q155.529 493.681 155.529 497.824 Q155.529 500.787 153.839 502.847 Q152.172 504.908 149.186 505.648 Q152.566 506.435 154.441 508.727 Q156.339 511.019 156.339 514.329 Q156.339 519.352 153.26 522.037 Q150.205 524.722 144.487 524.722 Q138.769 524.722 135.691 522.037 Q132.635 519.352 132.635 514.329 Q132.635 511.019 134.533 508.727 Q136.431 506.435 139.811 505.648 M138.098 498.264 Q138.098 500.949 139.765 502.454 Q141.455 503.959 144.487 503.959 Q147.496 503.959 149.186 502.454 Q150.899 500.949 150.899 498.264 Q150.899 495.579 149.186 494.074 Q147.496 492.57 144.487 492.57 Q141.455 492.57 139.765 494.074 Q138.098 495.579 138.098 498.264 Z" fill="#000000" fill-rule="nonzero" fill-opacity="1" /><path clip-path="url(#clip700)" d="M89.9734 345.003 L97.6122 345.003 L97.6122 318.638 L89.3021 320.304 L89.3021 316.045 L97.566 314.378 L102.242 314.378 L102.242 345.003 L109.881 345.003 L109.881 348.938 L89.9734 348.938 L89.9734 345.003 Z" fill="#000000" fill-rule="nonzero" fill-opacity="1" /><path clip-path="url(#clip700)" d="M119.325 343.059 L124.209 343.059 L124.209 348.938 L119.325 348.938 L119.325 343.059 Z" fill="#000000" fill-rule="nonzero" fill-opacity="1" /><path clip-path="url(#clip700)" d="M144.394 317.457 Q140.783 317.457 138.955 321.022 Q137.149 324.564 137.149 331.693 Q137.149 338.8 138.955 342.364 Q140.783 345.906 144.394 345.906 Q148.029 345.906 149.834 342.364 Q151.663 338.8 151.663 331.693 Q151.663 324.564 149.834 321.022 Q148.029 317.457 144.394 317.457 M144.394 313.753 Q150.205 313.753 153.26 318.36 Q156.339 322.943 156.339 331.693 Q156.339 340.42 153.26 345.026 Q150.205 349.61 144.394 349.61 Q138.584 349.61 135.506 345.026 Q132.45 340.42 132.45 331.693 Q132.45 322.943 135.506 318.36 Q138.584 313.753 144.394 313.753 Z" fill="#000000" fill-rule="nonzero" fill-opacity="1" /><path clip-path="url(#clip700)" d="M91.5706 169.891 L99.2095 169.891 L99.2095 143.525 L90.8993 145.192 L90.8993 140.933 L99.1632 139.266 L103.839 139.266 L103.839 169.891 L111.478 169.891 L111.478 173.826 L91.5706 173.826 L91.5706 169.891 Z" fill="#000000" fill-rule="nonzero" fill-opacity="1" /><path clip-path="url(#clip700)" d="M120.922 167.946 L125.807 167.946 L125.807 173.826 L120.922 173.826 L120.922 167.946 Z" fill="#000000" fill-rule="nonzero" fill-opacity="1" /><path clip-path="url(#clip700)" d="M140.019 169.891 L156.339 169.891 L156.339 173.826 L134.394 173.826 L134.394 169.891 Q137.056 167.136 141.64 162.507 Q146.246 157.854 147.427 156.511 Q149.672 153.988 150.552 152.252 Q151.455 150.493 151.455 148.803 Q151.455 146.048 149.51 144.312 Q147.589 142.576 144.487 142.576 Q142.288 142.576 139.834 143.34 Q137.404 144.104 134.626 145.655 L134.626 140.933 Q137.45 139.798 139.904 139.22 Q142.357 138.641 144.394 138.641 Q149.765 138.641 152.959 141.326 Q156.154 144.011 156.154 148.502 Q156.154 150.632 155.343 152.553 Q154.556 154.451 152.45 157.044 Q151.871 157.715 148.769 160.932 Q145.668 164.127 140.019 169.891 Z" fill="#000000" fill-rule="nonzero" fill-opacity="1" /><polyline clip-path="url(#clip702)" style="stroke:#009af9; stroke-linecap:round; stroke-linejoin:round; stroke-width:16; stroke-opacity:1; fill:none" stroke-dasharray="8, 16" points="253.483,1172.4 263.725,1154.97 273.966,1142.22 284.208,1134.38 294.45,1131.58 304.692,1133.86 314.934,1141.16 325.176,1153.29 335.418,1169.94 345.659,1190.69 355.901,1214.97 366.143,1242.07 376.385,1271.13 386.627,1301.16 396.869,1331.06 407.111,1359.66 417.352,1385.75 427.594,1408.2 437.836,1426.03 448.078,1438.47 458.32,1445.07 468.562,1445.72 478.803,1440.56 489.045,1430.02 499.287,1414.65 509.529,1395.08 519.771,1371.96 530.013,1345.91 540.255,1317.54 550.497,1287.48 560.738,1256.4 570.98,1225.02 581.222,1194.2 591.464,1164.88 601.706,1138.03 611.948,1114.68 622.19,1095.77 632.431,1082.1 642.673,1074.24 652.915,1072.49 663.157,1076.86 673.399,1087.02 683.641,1102.42 693.882,1122.31 704.124,1145.83 714.366,1172.07 724.608,1200.14 734.85,1229.21 745.092,1258.48 755.334,1287.2 765.575,1314.61 775.817,1339.97 786.059,1362.51 796.301,1381.47 806.543,1396.09 816.785,1405.69 827.027,1409.72 837.268,1407.78 847.51,1399.73 857.752,1385.72 867.994,1366.19 878.236,1341.85 888.478,1313.67 898.72,1282.8 908.961,1250.45 919.203,1217.83 929.445,1186.1 939.687,1156.25 949.929,1129.14 960.171,1105.44 970.413,1085.7 980.654,1070.31 990.896,1059.59 1001.14,1053.81 1011.38,1053.19 1021.62,1057.92 1031.86,1068.13 1042.11,1083.8 1052.35,1104.64 1062.59,1130.02 1072.83,1158.89 1083.07,1189.86 1093.31,1221.39 1103.56,1252.05 1113.8,1280.72 1124.04,1306.73 1134.28,1329.72 1144.52,1349.49 1154.77,1365.77 1165.01,1378.05 1175.25,1385.57 1185.49,1387.53 1195.73,1383.64 1205.98,1375.14 1216.22,1365.71 1226.46,1359.95 1236.7,1353.51 1246.94,1315.52 1257.18,1188.47 1267.43,937.449 1277.67,625.58 1287.91,393.319 1298.15,303.144 1308.39,304.206 1318.64,331.045 1328.88,350.89 1339.12,357.283 1349.36,354.968 1359.6,350.134 1369.84,346.662 1380.09,345.928 1390.33,347.784 1400.57,351.479 1410.81,356.193 1421.05,361.246 1431.3,366.161 1441.54,370.638 1451.78,374.517 1462.02,377.752 1472.26,380.376 1482.51,382.478 1492.75,384.187 1502.99,385.646 1513.23,387.003 1523.47,388.39 1533.71,389.917 1543.96,391.662 1554.2,393.662 1564.44,395.916 1574.68,398.386 1584.92,401.005 1595.17,403.681 1605.41,406.307 1615.65,408.78 1625.89,410.996 1636.13,412.867 1646.38,414.328 1656.62,415.337 1666.86,415.881 1677.1,415.975 1687.34,415.664 1697.58,415.013 1707.83,414.111 1718.07,413.07 1728.31,412.006 1738.55,411.05 1748.79,410.327 1759.04,409.961 1769.28,410.05 1779.52,410.679 1789.76,411.883 1800,413.659 1810.24,415.938 1820.49,418.588 1830.73,421.401 1840.97,424.097 1851.21,426.329 1861.45,427.706 1871.7,427.82 1881.94,426.292 1892.18,422.827 1902.42,417.277 1912.66,409.709 1922.91,400.459 1933.15,390.171 1943.39,379.832 1953.63,370.742 1963.87,364.464 1974.11,362.712 1984.36,367.153 1994.6,379.101 2004.84,398.991 2015.08,425.587 2025.32,454.886 2035.57,479.286 2045.81,488.259 2056.05,471.712 2066.29,424.765 2076.53,350.749 2086.77,261.882 2097.02,180.44 2107.26,140.565 2117.5,181.768 2127.74,319.307 2137.98,505.545 2148.23,643.914 2158.47,662.45 2168.71,564.232 2178.95,411.971 2189.19,277.392 2199.44,199.544 2209.68,179.859 2219.92,202.217 2230.16,248.828 2240.4,305.703 2250.64,363.817 2260.89,419.271 2271.13,472.703 2281.37,527.746 2291.61,588.968 "/>
<polyline clip-path="url(#clip702)" style="stroke:#e26f46; stroke-linecap:round; stroke-linejoin:round; stroke-width:4; stroke-opacity:1; fill:none" points="253.483,1075.71 263.725,1057.06 273.966,1043.3 284.208,1034.89 294.45,1032.11 304.692,1035.04 314.934,1043.59 325.176,1057.49 335.418,1076.27 345.659,1099.32 355.901,1125.89 366.143,1155.12 376.385,1186.05 386.627,1217.67 396.869,1248.95 407.111,1278.87 417.352,1306.45 427.594,1330.79 437.836,1351.1 448.078,1366.71 458.32,1377.12 468.562,1381.98 478.803,1381.14 489.045,1374.62 499.287,1362.64 509.529,1345.58 519.771,1324.01 530.013,1298.63 540.255,1270.27 550.497,1239.85 560.738,1208.36 570.98,1176.83 581.222,1146.3 591.464,1117.76 601.706,1092.13 611.948,1070.27 622.19,1052.87 632.431,1040.51 642.673,1033.59 652.915,1032.34 663.157,1036.79 673.399,1046.81 683.641,1062.06 693.882,1082.05 704.124,1106.13 714.366,1133.5 724.608,1163.28 734.85,1194.5 745.092,1226.13 755.334,1257.14 765.575,1286.53 775.817,1313.32 786.059,1336.66 796.301,1355.76 806.543,1370.03 816.785,1378.97 827.027,1382.31 837.268,1379.94 847.51,1371.93 857.752,1358.54 867.994,1340.22 878.236,1317.55 888.478,1291.29 898.72,1262.28 908.961,1231.47 919.203,1199.87 929.445,1168.51 939.687,1138.42 949.929,1110.57 960.171,1085.87 970.413,1065.14 980.654,1049.04 990.896,1038.11 1001.14,1032.69 1011.38,1032.97 1021.62,1038.94 1031.86,1050.4 1042.11,1066.98 1052.35,1088.13 1062.59,1113.18 1072.83,1141.29 1083.07,1171.55 1093.31,1202.98 1103.56,1234.54 1113.8,1265.22 1124.04,1294 1134.28,1319.95 1144.52,1342.22 1154.77,1360.08 1165.01,1372.96 1175.25,1380.42 1185.49,1382.24 1195.73,1378.34 1205.98,1368.86 1216.22,1354.1 1226.46,1334.54 1236.7,1310.84 1246.94,1283.75 1257.18,1254.16 1267.43,1223.04 1277.67,330.387 1287.91,328.94 1298.15,330.257 1308.39,334.641 1318.64,340.749 1328.88,346 1339.12,347.555 1349.36,343.515 1359.6,333.884 1369.84,320.9 1380.09,308.544 1390.33,301.327 1400.57,302.711 1410.81,313.724 1421.05,332.247 1431.3,353.327 1441.54,370.493 1451.78,377.734 1462.02,371.536 1472.26,352.304 1482.51,324.64 1492.75,296.29 1502.99,275.971 1513.23,270.707 1523.47,283.467 1533.71,311.895 1543.96,348.61 1554.2,383.098 1564.44,404.728 1574.68,406.009 1584.92,385.112 1595.17,346.814 1605.41,301.48 1615.65,262.266 1625.89,241.304 1636.13,245.965 1646.38,276.356 1656.62,324.873 1666.86,378.061 1677.1,420.339 1687.34,438.567 1697.58,426.102 1707.83,385.114 1718.07,326.367 1728.31,266.416 1738.55,222.947 1748.79,209.56 1759.04,231.543 1769.28,283.938 1779.52,352.578 1789.76,417.898 1800,460.514 1810.24,466.968 1820.49,433.948 1830.73,369.652 1840.97,291.806 1851.21,222.79 1861.45,183.196 1871.7,185.699 1881.94,231.039 1892.18,307.388 1902.42,393.408 1912.66,464.203 1922.91,498.532 1933.15,485.164 1943.39,426.502 1953.63,338.304 1963.87,245.471 1974.11,175.02 1984.36,148.221 1994.6,174.191 2004.84,246.868 2015.08,346.348 2025.32,444.325 2035.57,512.144 2045.81,529.179 2056.05,489.085 2066.29,402.043 2076.53,292.213 2086.77,191.042 2097.02,128.257 2107.26,123.135 2117.5,178.611 2127.74,280.009 2137.98,398.901 2148.23,501.069 2158.47,556.354 2168.71,547.551 2178.95,475.736 2189.19,360.37 2199.44,234.046 2209.68,133.285 2219.92,87.9763 2230.16,112.522 2240.4,201.297 2250.64,329.861 2260.89,461.667 2271.13,558.458 2281.37,591.36 2291.61,549.492 "/>
<path clip-path="url(#clip700)" d="M264.353 250.738 L707.222 250.738 L707.222 95.2176 L264.353 95.2176  Z" fill="#ffffff" fill-rule="evenodd" fill-opacity="1"/>
<polyline clip-path="url(#clip700)" style="stroke:#000000; stroke-linecap:round; stroke-linejoin:round; stroke-width:4; stroke-opacity:1; fill:none" points="264.353,250.738 707.222,250.738 707.222,95.2176 264.353,95.2176 264.353,250.738 "/>
<polyline clip-path="url(#clip700)" style="stroke:#009af9; stroke-linecap:round; stroke-linejoin:round; stroke-width:16; stroke-opacity:1; fill:none" stroke-dasharray="8, 16" points="288.357,147.058 432.385,147.058 "/>
<path clip-path="url(#clip700)" d="M461.066 133.62 L461.066 146.606 L466.945 146.606 Q470.209 146.606 471.992 144.916 Q473.774 143.227 473.774 140.102 Q473.774 137 471.992 135.31 Q470.209 133.62 466.945 133.62 L461.066 133.62 M456.39 129.778 L466.945 129.778 Q472.755 129.778 475.718 132.416 Q478.704 135.032 478.704 140.102 Q478.704 145.217 475.718 147.833 Q472.755 150.449 466.945 150.449 L461.066 150.449 L461.066 164.338 L456.39 164.338 L456.39 129.778 Z" fill="#000000" fill-rule="nonzero" fill-opacity="1" /><path clip-path="url(#clip700)" d="M498.982 142.393 Q498.265 141.977 497.408 141.791 Q496.575 141.583 495.556 141.583 Q491.945 141.583 490.001 143.944 Q488.079 146.282 488.079 150.68 L488.079 164.338 L483.797 164.338 L483.797 138.412 L488.079 138.412 L488.079 142.44 Q489.422 140.078 491.575 138.944 Q493.728 137.787 496.806 137.787 Q497.246 137.787 497.778 137.856 Q498.311 137.903 498.959 138.018 L498.982 142.393 Z" fill="#000000" fill-rule="nonzero" fill-opacity="1" /><path clip-path="url(#clip700)" d="M524.584 150.31 L524.584 152.393 L505.001 152.393 Q505.278 156.791 507.639 159.106 Q510.024 161.398 514.26 161.398 Q516.714 161.398 519.005 160.796 Q521.32 160.194 523.588 158.99 L523.588 163.018 Q521.297 163.99 518.889 164.5 Q516.482 165.009 514.005 165.009 Q507.802 165.009 504.167 161.398 Q500.556 157.787 500.556 151.629 Q500.556 145.264 503.982 141.537 Q507.431 137.787 513.264 137.787 Q518.496 137.787 521.528 141.166 Q524.584 144.523 524.584 150.31 M520.325 149.06 Q520.278 145.565 518.357 143.481 Q516.459 141.398 513.311 141.398 Q509.746 141.398 507.593 143.412 Q505.464 145.426 505.14 149.083 L520.325 149.06 Z" fill="#000000" fill-rule="nonzero" fill-opacity="1" /><path clip-path="url(#clip700)" d="M548.635 142.347 L548.635 128.319 L552.894 128.319 L552.894 164.338 L548.635 164.338 L548.635 160.449 Q547.292 162.763 545.232 163.898 Q543.195 165.009 540.325 165.009 Q535.625 165.009 532.663 161.259 Q529.723 157.509 529.723 151.398 Q529.723 145.287 532.663 141.537 Q535.625 137.787 540.325 137.787 Q543.195 137.787 545.232 138.921 Q547.292 140.032 548.635 142.347 M534.121 151.398 Q534.121 156.097 536.042 158.782 Q537.987 161.444 541.366 161.444 Q544.746 161.444 546.69 158.782 Q548.635 156.097 548.635 151.398 Q548.635 146.699 546.69 144.037 Q544.746 141.352 541.366 141.352 Q537.987 141.352 536.042 144.037 Q534.121 146.699 534.121 151.398 Z" fill="#000000" fill-rule="nonzero" fill-opacity="1" /><path clip-path="url(#clip700)" d="M561.667 138.412 L565.926 138.412 L565.926 164.338 L561.667 164.338 L561.667 138.412 M561.667 128.319 L565.926 128.319 L565.926 133.713 L561.667 133.713 L561.667 128.319 Z" fill="#000000" fill-rule="nonzero" fill-opacity="1" /><path clip-path="url(#clip700)" d="M593.496 139.407 L593.496 143.389 Q591.69 142.393 589.861 141.907 Q588.056 141.398 586.204 141.398 Q582.06 141.398 579.769 144.037 Q577.477 146.652 577.477 151.398 Q577.477 156.143 579.769 158.782 Q582.06 161.398 586.204 161.398 Q588.056 161.398 589.861 160.912 Q591.69 160.402 593.496 159.407 L593.496 163.342 Q591.713 164.176 589.792 164.592 Q587.894 165.009 585.741 165.009 Q579.884 165.009 576.435 161.328 Q572.986 157.648 572.986 151.398 Q572.986 145.055 576.459 141.421 Q579.954 137.787 586.019 137.787 Q587.986 137.787 589.861 138.203 Q591.736 138.597 593.496 139.407 Z" fill="#000000" fill-rule="nonzero" fill-opacity="1" /><path clip-path="url(#clip700)" d="M605.116 131.051 L605.116 138.412 L613.889 138.412 L613.889 141.722 L605.116 141.722 L605.116 155.796 Q605.116 158.967 605.972 159.87 Q606.852 160.773 609.514 160.773 L613.889 160.773 L613.889 164.338 L609.514 164.338 Q604.583 164.338 602.708 162.509 Q600.833 160.657 600.833 155.796 L600.833 141.722 L597.708 141.722 L597.708 138.412 L600.833 138.412 L600.833 131.051 L605.116 131.051 Z" fill="#000000" fill-rule="nonzero" fill-opacity="1" /><path clip-path="url(#clip700)" d="M619.491 138.412 L623.75 138.412 L623.75 164.338 L619.491 164.338 L619.491 138.412 M619.491 128.319 L623.75 128.319 L623.75 133.713 L619.491 133.713 L619.491 128.319 Z" fill="#000000" fill-rule="nonzero" fill-opacity="1" /><path clip-path="url(#clip700)" d="M642.708 141.398 Q639.282 141.398 637.292 144.083 Q635.301 146.745 635.301 151.398 Q635.301 156.051 637.268 158.736 Q639.259 161.398 642.708 161.398 Q646.111 161.398 648.102 158.713 Q650.092 156.027 650.092 151.398 Q650.092 146.791 648.102 144.106 Q646.111 141.398 642.708 141.398 M642.708 137.787 Q648.264 137.787 651.435 141.398 Q654.606 145.009 654.606 151.398 Q654.606 157.764 651.435 161.398 Q648.264 165.009 642.708 165.009 Q637.13 165.009 633.958 161.398 Q630.81 157.764 630.81 151.398 Q630.81 145.009 633.958 141.398 Q637.13 137.787 642.708 137.787 Z" fill="#000000" fill-rule="nonzero" fill-opacity="1" /><path clip-path="url(#clip700)" d="M683.217 148.689 L683.217 164.338 L678.958 164.338 L678.958 148.828 Q678.958 145.148 677.523 143.319 Q676.088 141.49 673.217 141.49 Q669.768 141.49 667.778 143.69 Q665.787 145.889 665.787 149.685 L665.787 164.338 L661.504 164.338 L661.504 138.412 L665.787 138.412 L665.787 142.44 Q667.315 140.102 669.375 138.944 Q671.458 137.787 674.166 137.787 Q678.634 137.787 680.926 140.565 Q683.217 143.319 683.217 148.689 Z" fill="#000000" fill-rule="nonzero" fill-opacity="1" /><polyline clip-path="url(#clip700)" style="stroke:#e26f46; stroke-linecap:round; stroke-linejoin:round; stroke-width:4; stroke-opacity:1; fill:none" points="288.357,198.898 432.385,198.898 "/>
<path clip-path="url(#clip700)" d="M456.39 181.618 L478.242 181.618 L478.242 185.553 L461.066 185.553 L461.066 195.784 L477.524 195.784 L477.524 199.719 L461.066 199.719 L461.066 212.242 L478.658 212.242 L478.658 216.178 L456.39 216.178 L456.39 181.618 Z" fill="#000000" fill-rule="nonzero" fill-opacity="1" /><path clip-path="url(#clip700)" d="M507.709 190.252 L498.334 202.867 L508.195 216.178 L503.172 216.178 L495.626 205.992 L488.079 216.178 L483.056 216.178 L493.126 202.613 L483.913 190.252 L488.936 190.252 L495.811 199.488 L502.686 190.252 L507.709 190.252 Z" fill="#000000" fill-rule="nonzero" fill-opacity="1" /><path clip-path="url(#clip700)" d="M525.996 203.145 Q520.834 203.145 518.843 204.326 Q516.852 205.506 516.852 208.354 Q516.852 210.622 518.334 211.965 Q519.838 213.284 522.408 213.284 Q525.95 213.284 528.079 210.784 Q530.232 208.261 530.232 204.094 L530.232 203.145 L525.996 203.145 M534.491 201.386 L534.491 216.178 L530.232 216.178 L530.232 212.242 Q528.774 214.603 526.598 215.738 Q524.422 216.849 521.274 216.849 Q517.292 216.849 514.931 214.627 Q512.593 212.381 512.593 208.631 Q512.593 204.256 515.51 202.034 Q518.45 199.812 524.26 199.812 L530.232 199.812 L530.232 199.395 Q530.232 196.455 528.288 194.858 Q526.366 193.238 522.871 193.238 Q520.649 193.238 518.542 193.77 Q516.436 194.303 514.491 195.367 L514.491 191.432 Q516.829 190.53 519.028 190.09 Q521.227 189.627 523.311 189.627 Q528.936 189.627 531.713 192.543 Q534.491 195.46 534.491 201.386 Z" fill="#000000" fill-rule="nonzero" fill-opacity="1" /><path clip-path="url(#clip700)" d="M561.922 191.247 L561.922 195.229 Q560.116 194.233 558.287 193.747 Q556.482 193.238 554.63 193.238 Q550.486 193.238 548.195 195.877 Q545.903 198.492 545.903 203.238 Q545.903 207.983 548.195 210.622 Q550.486 213.238 554.63 213.238 Q556.482 213.238 558.287 212.752 Q560.116 212.242 561.922 211.247 L561.922 215.182 Q560.139 216.016 558.218 216.432 Q556.32 216.849 554.167 216.849 Q548.311 216.849 544.862 213.168 Q541.412 209.488 541.412 203.238 Q541.412 196.895 544.885 193.261 Q548.38 189.627 554.445 189.627 Q556.412 189.627 558.287 190.043 Q560.162 190.437 561.922 191.247 Z" fill="#000000" fill-rule="nonzero" fill-opacity="1" /><path clip-path="url(#clip700)" d="M573.542 182.891 L573.542 190.252 L582.315 190.252 L582.315 193.562 L573.542 193.562 L573.542 207.636 Q573.542 210.807 574.398 211.71 Q575.278 212.613 577.94 212.613 L582.315 212.613 L582.315 216.178 L577.94 216.178 Q573.01 216.178 571.135 214.349 Q569.26 212.497 569.26 207.636 L569.26 193.562 L566.135 193.562 L566.135 190.252 L569.26 190.252 L569.26 182.891 L573.542 182.891 Z" fill="#000000" fill-rule="nonzero" fill-opacity="1" /></svg>
