<?xml version="1.0" encoding="utf-8"?>
<svg xmlns="http://www.w3.org/2000/svg" xmlns:xlink="http://www.w3.org/1999/xlink" width="600" height="400" viewBox="0 0 2400 1600">
<defs>
  <clipPath id="clip710">
    <rect x="0" y="0" width="2400" height="1600"/>
  </clipPath>
</defs>
<path clip-path="url(#clip710)" d="M0 1600 L2400 1600 L2400 0 L0 0  Z" fill="#ffffff" fill-rule="evenodd" fill-opacity="1"/>
<defs>
  <clipPath id="clip711">
    <rect x="480" y="0" width="1681" height="1600"/>
  </clipPath>
</defs>
<path clip-path="url(#clip710)" d="M156.274 1486.45 L2352.76 1486.45 L2352.76 47.2441 L156.274 47.2441  Z" fill="#ffffff" fill-rule="evenodd" fill-opacity="1"/>
<defs>
  <clipPath id="clip712">
    <rect x="156" y="47" width="2197" height="1440"/>
  </clipPath>
</defs>
<polyline clip-path="url(#clip712)" style="stroke:#000000; stroke-linecap:round; stroke-linejoin:round; stroke-width:2; stroke-opacity:0.1; fill:none" points="218.439,1486.45 218.439,47.2441 "/>
<polyline clip-path="url(#clip712)" style="stroke:#000000; stroke-linecap:round; stroke-linejoin:round; stroke-width:2; stroke-opacity:0.1; fill:none" points="736.477,1486.45 736.477,47.2441 "/>
<polyline clip-path="url(#clip712)" style="stroke:#000000; stroke-linecap:round; stroke-linejoin:round; stroke-width:2; stroke-opacity:0.1; fill:none" points="1254.52,1486.45 1254.52,47.2441 "/>
<polyline clip-path="url(#clip712)" style="stroke:#000000; stroke-linecap:round; stroke-linejoin:round; stroke-width:2; stroke-opacity:0.1; fill:none" points="1772.55,1486.45 1772.55,47.2441 "/>
<polyline clip-path="url(#clip712)" style="stroke:#000000; stroke-linecap:round; stroke-linejoin:round; stroke-width:2; stroke-opacity:0.1; fill:none" points="2290.59,1486.45 2290.59,47.2441 "/>
<polyline clip-path="url(#clip710)" style="stroke:#000000; stroke-linecap:round; stroke-linejoin:round; stroke-width:4; stroke-opacity:1; fill:none" points="156.274,1486.45 2352.76,1486.45 "/>
<polyline clip-path="url(#clip710)" style="stroke:#000000; stroke-linecap:round; stroke-linejoin:round; stroke-width:4; stroke-opacity:1; fill:none" points="218.439,1486.45 218.439,1467.55 "/>
<polyline clip-path="url(#clip710)" style="stroke:#000000; stroke-linecap:round; stroke-linejoin:round; stroke-width:4; stroke-opacity:1; fill:none" points="736.477,1486.45 736.477,1467.55 "/>
<polyline clip-path="url(#clip710)" style="stroke:#000000; stroke-linecap:round; stroke-linejoin:round; stroke-width:4; stroke-opacity:1; fill:none" points="1254.52,1486.45 1254.52,1467.55 "/>
<polyline clip-path="url(#clip710)" style="stroke:#000000; stroke-linecap:round; stroke-linejoin:round; stroke-width:4; stroke-opacity:1; fill:none" points="1772.55,1486.45 1772.55,1467.55 "/>
<polyline clip-path="url(#clip710)" style="stroke:#000000; stroke-linecap:round; stroke-linejoin:round; stroke-width:4; stroke-opacity:1; fill:none" points="2290.59,1486.45 2290.59,1467.55 "/>
<path clip-path="url(#clip710)" d="M164.967 1532.02 L194.643 1532.02 L194.643 1535.95 L164.967 1535.95 L164.967 1532.02 Z" fill="#000000" fill-rule="nonzero" fill-opacity="1" /><path clip-path="url(#clip710)" d="M205.545 1544.91 L213.184 1544.91 L213.184 1518.55 L204.874 1520.21 L204.874 1515.95 L213.138 1514.29 L217.814 1514.29 L217.814 1544.91 L225.453 1544.91 L225.453 1548.85 L205.545 1548.85 L205.545 1544.91 Z" fill="#000000" fill-rule="nonzero" fill-opacity="1" /><path clip-path="url(#clip710)" d="M234.897 1542.97 L239.781 1542.97 L239.781 1548.85 L234.897 1548.85 L234.897 1542.97 Z" fill="#000000" fill-rule="nonzero" fill-opacity="1" /><path clip-path="url(#clip710)" d="M259.966 1517.37 Q256.355 1517.37 254.527 1520.93 Q252.721 1524.47 252.721 1531.6 Q252.721 1538.71 254.527 1542.27 Q256.355 1545.82 259.966 1545.82 Q263.601 1545.82 265.406 1542.27 Q267.235 1538.71 267.235 1531.6 Q267.235 1524.47 265.406 1520.93 Q263.601 1517.37 259.966 1517.37 M259.966 1513.66 Q265.776 1513.66 268.832 1518.27 Q271.911 1522.85 271.911 1531.6 Q271.911 1540.33 268.832 1544.94 Q265.776 1549.52 259.966 1549.52 Q254.156 1549.52 251.077 1544.94 Q248.022 1540.33 248.022 1531.6 Q248.022 1522.85 251.077 1518.27 Q254.156 1513.66 259.966 1513.66 Z" fill="#000000" fill-rule="nonzero" fill-opacity="1" /><path clip-path="url(#clip710)" d="M683.503 1532.02 L713.178 1532.02 L713.178 1535.95 L683.503 1535.95 L683.503 1532.02 Z" fill="#000000" fill-rule="nonzero" fill-opacity="1" /><path clip-path="url(#clip710)" d="M733.271 1517.37 Q729.66 1517.37 727.831 1520.93 Q726.026 1524.47 726.026 1531.6 Q726.026 1538.71 727.831 1542.27 Q729.66 1545.82 733.271 1545.82 Q736.905 1545.82 738.711 1542.27 Q740.539 1538.71 740.539 1531.6 Q740.539 1524.47 738.711 1520.93 Q736.905 1517.37 733.271 1517.37 M733.271 1513.66 Q739.081 1513.66 742.137 1518.27 Q745.215 1522.85 745.215 1531.6 Q745.215 1540.33 742.137 1544.94 Q739.081 1549.52 733.271 1549.52 Q727.461 1549.52 724.382 1544.94 Q721.327 1540.33 721.327 1531.6 Q721.327 1522.85 724.382 1518.27 Q727.461 1513.66 733.271 1513.66 Z" fill="#000000" fill-rule="nonzero" fill-opacity="1" /><path clip-path="url(#clip710)" d="M753.433 1542.97 L758.317 1542.97 L758.317 1548.85 L753.433 1548.85 L753.433 1542.97 Z" fill="#000000" fill-rule="nonzero" fill-opacity="1" /><path clip-path="url(#clip710)" d="M768.548 1514.29 L786.905 1514.29 L786.905 1518.22 L772.831 1518.22 L772.831 1526.7 Q773.849 1526.35 774.868 1526.19 Q775.886 1526 776.905 1526 Q782.692 1526 786.072 1529.17 Q789.451 1532.34 789.451 1537.76 Q789.451 1543.34 785.979 1546.44 Q782.507 1549.52 776.187 1549.52 Q774.011 1549.52 771.743 1549.15 Q769.498 1548.78 767.09 1548.04 L767.09 1543.34 Q769.173 1544.47 771.396 1545.03 Q773.618 1545.58 776.095 1545.58 Q780.099 1545.58 782.437 1543.48 Q784.775 1541.37 784.775 1537.76 Q784.775 1534.15 782.437 1532.04 Q780.099 1529.94 776.095 1529.94 Q774.22 1529.94 772.345 1530.35 Q770.493 1530.77 768.548 1531.65 L768.548 1514.29 Z" fill="#000000" fill-rule="nonzero" fill-opacity="1" /><path clip-path="url(#clip710)" d="M1231.9 1517.37 Q1228.29 1517.37 1226.46 1520.93 Q1224.65 1524.47 1224.65 1531.6 Q1224.65 1538.71 1226.46 1542.27 Q1228.29 1545.82 1231.9 1545.82 Q1235.53 1545.82 1237.34 1542.27 Q1239.17 1538.71 1239.17 1531.6 Q1239.17 1524.47 1237.34 1520.93 Q1235.53 1517.37 1231.9 1517.37 M1231.9 1513.66 Q1237.71 1513.66 1240.77 1518.27 Q1243.84 1522.85 1243.84 1531.6 Q1243.84 1540.33 1240.77 1544.94 Q1237.71 1549.52 1231.9 1549.52 Q1226.09 1549.52 1223.01 1544.94 Q1219.96 1540.33 1219.96 1531.6 Q1219.96 1522.85 1223.01 1518.27 Q1226.09 1513.66 1231.9 1513.66 Z" fill="#000000" fill-rule="nonzero" fill-opacity="1" /><path clip-path="url(#clip710)" d="M1252.06 1542.97 L1256.95 1542.97 L1256.95 1548.85 L1252.06 1548.85 L1252.06 1542.97 Z" fill="#000000" fill-rule="nonzero" fill-opacity="1" /><path clip-path="url(#clip710)" d="M1277.13 1517.37 Q1273.52 1517.37 1271.69 1520.93 Q1269.89 1524.47 1269.89 1531.6 Q1269.89 1538.71 1271.69 1542.27 Q1273.52 1545.82 1277.13 1545.82 Q1280.76 1545.82 1282.57 1542.27 Q1284.4 1538.71 1284.4 1531.6 Q1284.4 1524.47 1282.57 1520.93 Q1280.76 1517.37 1277.13 1517.37 M1277.13 1513.66 Q1282.94 1513.66 1286 1518.27 Q1289.08 1522.85 1289.08 1531.6 Q1289.08 1540.33 1286 1544.94 Q1282.94 1549.52 1277.13 1549.52 Q1271.32 1549.52 1268.24 1544.94 Q1265.19 1540.33 1265.19 1531.6 Q1265.19 1522.85 1268.24 1518.27 Q1271.32 1513.66 1277.13 1513.66 Z" fill="#000000" fill-rule="nonzero" fill-opacity="1" /><path clip-path="url(#clip710)" d="M1750.44 1517.37 Q1746.82 1517.37 1745 1520.93 Q1743.19 1524.47 1743.19 1531.6 Q1743.19 1538.71 1745 1542.27 Q1746.82 1545.82 1750.44 1545.82 Q1754.07 1545.82 1755.88 1542.27 Q1757.7 1538.71 1757.7 1531.6 Q1757.7 1524.47 1755.88 1520.93 Q1754.07 1517.37 1750.44 1517.37 M1750.44 1513.66 Q1756.25 1513.66 1759.3 1518.27 Q1762.38 1522.85 1762.38 1531.6 Q1762.38 1540.33 1759.3 1544.94 Q1756.25 1549.52 1750.44 1549.52 Q1744.63 1549.52 1741.55 1544.94 Q1738.49 1540.33 1738.49 1531.6 Q1738.49 1522.85 1741.55 1518.27 Q1744.63 1513.66 1750.44 1513.66 Z" fill="#000000" fill-rule="nonzero" fill-opacity="1" /><path clip-path="url(#clip710)" d="M1770.6 1542.97 L1775.48 1542.97 L1775.48 1548.85 L1770.6 1548.85 L1770.6 1542.97 Z" fill="#000000" fill-rule="nonzero" fill-opacity="1" /><path clip-path="url(#clip710)" d="M1785.71 1514.29 L1804.07 1514.29 L1804.07 1518.22 L1790 1518.22 L1790 1526.7 Q1791.01 1526.35 1792.03 1526.19 Q1793.05 1526 1794.07 1526 Q1799.86 1526 1803.24 1529.17 Q1806.62 1532.34 1806.62 1537.76 Q1806.62 1543.34 1803.14 1546.44 Q1799.67 1549.52 1793.35 1549.52 Q1791.18 1549.52 1788.91 1549.15 Q1786.66 1548.78 1784.25 1548.04 L1784.25 1543.34 Q1786.34 1544.47 1788.56 1545.03 Q1790.78 1545.58 1793.26 1545.58 Q1797.26 1545.58 1799.6 1543.48 Q1801.94 1541.37 1801.94 1537.76 Q1801.94 1534.15 1799.6 1532.04 Q1797.26 1529.94 1793.26 1529.94 Q1791.38 1529.94 1789.51 1530.35 Q1787.66 1530.77 1785.71 1531.65 L1785.71 1514.29 Z" fill="#000000" fill-rule="nonzero" fill-opacity="1" /><path clip-path="url(#clip710)" d="M2257.74 1544.91 L2265.38 1544.91 L2265.38 1518.55 L2257.07 1520.21 L2257.07 1515.95 L2265.34 1514.29 L2270.01 1514.29 L2270.01 1544.91 L2277.65 1544.91 L2277.65 1548.85 L2257.74 1548.85 L2257.74 1544.91 Z" fill="#000000" fill-rule="nonzero" fill-opacity="1" /><path clip-path="url(#clip710)" d="M2287.1 1542.97 L2291.98 1542.97 L2291.98 1548.85 L2287.1 1548.85 L2287.1 1542.97 Z" fill="#000000" fill-rule="nonzero" fill-opacity="1" /><path clip-path="url(#clip710)" d="M2312.17 1517.37 Q2308.55 1517.37 2306.73 1520.93 Q2304.92 1524.47 2304.92 1531.6 Q2304.92 1538.71 2306.73 1542.27 Q2308.55 1545.82 2312.17 1545.82 Q2315.8 1545.82 2317.61 1542.27 Q2319.43 1538.71 2319.43 1531.6 Q2319.43 1524.47 2317.61 1520.93 Q2315.8 1517.37 2312.17 1517.37 M2312.17 1513.66 Q2317.98 1513.66 2321.03 1518.27 Q2324.11 1522.85 2324.11 1531.6 Q2324.11 1540.33 2321.03 1544.94 Q2317.98 1549.52 2312.17 1549.52 Q2306.36 1549.52 2303.28 1544.94 Q2300.22 1540.33 2300.22 1531.6 Q2300.22 1522.85 2303.28 1518.27 Q2306.36 1513.66 2312.17 1513.66 Z" fill="#000000" fill-rule="nonzero" fill-opacity="1" /><polyline clip-path="url(#clip712)" style="stroke:#000000; stroke-linecap:round; stroke-linejoin:round; stroke-width:2; stroke-opacity:0.1; fill:none" points="156.274,1227.74 2352.76,1227.74 "/>
<polyline clip-path="url(#clip712)" style="stroke:#000000; stroke-linecap:round; stroke-linejoin:round; stroke-width:2; stroke-opacity:0.1; fill:none" points="156.274,960.259 2352.76,960.259 "/>
<polyline clip-path="url(#clip712)" style="stroke:#000000; stroke-linecap:round; stroke-linejoin:round; stroke-width:2; stroke-opacity:0.1; fill:none" points="156.274,692.774 2352.76,692.774 "/>
<polyline clip-path="url(#clip712)" style="stroke:#000000; stroke-linecap:round; stroke-linejoin:round; stroke-width:2; stroke-opacity:0.1; fill:none" points="156.274,425.288 2352.76,425.288 "/>
<polyline clip-path="url(#clip712)" style="stroke:#000000; stroke-linecap:round; stroke-linejoin:round; stroke-width:2; stroke-opacity:0.1; fill:none" points="156.274,157.803 2352.76,157.803 "/>
<polyline clip-path="url(#clip710)" style="stroke:#000000; stroke-linecap:round; stroke-linejoin:round; stroke-width:4; stroke-opacity:1; fill:none" points="156.274,1486.45 156.274,47.2441 "/>
<polyline clip-path="url(#clip710)" style="stroke:#000000; stroke-linecap:round; stroke-linejoin:round; stroke-width:4; stroke-opacity:1; fill:none" points="156.274,1227.74 175.172,1227.74 "/>
<polyline clip-path="url(#clip710)" style="stroke:#000000; stroke-linecap:round; stroke-linejoin:round; stroke-width:4; stroke-opacity:1; fill:none" points="156.274,960.259 175.172,960.259 "/>
<polyline clip-path="url(#clip710)" style="stroke:#000000; stroke-linecap:round; stroke-linejoin:round; stroke-width:4; stroke-opacity:1; fill:none" points="156.274,692.774 175.172,692.774 "/>
<polyline clip-path="url(#clip710)" style="stroke:#000000; stroke-linecap:round; stroke-linejoin:round; stroke-width:4; stroke-opacity:1; fill:none" points="156.274,425.288 175.172,425.288 "/>
<polyline clip-path="url(#clip710)" style="stroke:#000000; stroke-linecap:round; stroke-linejoin:round; stroke-width:4; stroke-opacity:1; fill:none" points="156.274,157.803 175.172,157.803 "/>
<path clip-path="url(#clip710)" d="M63.0985 1213.54 Q59.4875 1213.54 57.6588 1217.11 Q55.8532 1220.65 55.8532 1227.78 Q55.8532 1234.89 57.6588 1238.45 Q59.4875 1241.99 63.0985 1241.99 Q66.7328 1241.99 68.5383 1238.45 Q70.367 1234.89 70.367 1227.78 Q70.367 1220.65 68.5383 1217.11 Q66.7328 1213.54 63.0985 1213.54 M63.0985 1209.84 Q68.9087 1209.84 71.9642 1214.45 Q75.0429 1219.03 75.0429 1227.78 Q75.0429 1236.51 71.9642 1241.11 Q68.9087 1245.7 63.0985 1245.7 Q57.2884 1245.7 54.2097 1241.11 Q51.1542 1236.51 51.1542 1227.78 Q51.1542 1219.03 54.2097 1214.45 Q57.2884 1209.84 63.0985 1209.84 Z" fill="#000000" fill-rule="nonzero" fill-opacity="1" /><path clip-path="url(#clip710)" d="M83.2605 1239.14 L88.1447 1239.14 L88.1447 1245.02 L83.2605 1245.02 L83.2605 1239.14 Z" fill="#000000" fill-rule="nonzero" fill-opacity="1" /><path clip-path="url(#clip710)" d="M108.33 1213.54 Q104.719 1213.54 102.89 1217.11 Q101.084 1220.65 101.084 1227.78 Q101.084 1234.89 102.89 1238.45 Q104.719 1241.99 108.33 1241.99 Q111.964 1241.99 113.77 1238.45 Q115.598 1234.89 115.598 1227.78 Q115.598 1220.65 113.77 1217.11 Q111.964 1213.54 108.33 1213.54 M108.33 1209.84 Q114.14 1209.84 117.195 1214.45 Q120.274 1219.03 120.274 1227.78 Q120.274 1236.51 117.195 1241.11 Q114.14 1245.7 108.33 1245.7 Q102.52 1245.7 99.4409 1241.11 Q96.3854 1236.51 96.3854 1227.78 Q96.3854 1219.03 99.4409 1214.45 Q102.52 1209.84 108.33 1209.84 Z" fill="#000000" fill-rule="nonzero" fill-opacity="1" /><path clip-path="url(#clip710)" d="M63.7467 946.058 Q60.1356 946.058 58.3069 949.622 Q56.5014 953.164 56.5014 960.294 Q56.5014 967.4 58.3069 970.965 Q60.1356 974.506 63.7467 974.506 Q67.3809 974.506 69.1865 970.965 Q71.0152 967.4 71.0152 960.294 Q71.0152 953.164 69.1865 949.622 Q67.3809 946.058 63.7467 946.058 M63.7467 942.354 Q69.5568 942.354 72.6124 946.96 Q75.6911 951.544 75.6911 960.294 Q75.6911 969.02 72.6124 973.627 Q69.5568 978.21 63.7467 978.21 Q57.9365 978.21 54.8578 973.627 Q51.8023 969.02 51.8023 960.294 Q51.8023 951.544 54.8578 946.96 Q57.9365 942.354 63.7467 942.354 Z" fill="#000000" fill-rule="nonzero" fill-opacity="1" /><path clip-path="url(#clip710)" d="M83.9086 971.659 L88.7928 971.659 L88.7928 977.539 L83.9086 977.539 L83.9086 971.659 Z" fill="#000000" fill-rule="nonzero" fill-opacity="1" /><path clip-path="url(#clip710)" d="M113.145 958.905 Q116.501 959.622 118.376 961.891 Q120.274 964.159 120.274 967.493 Q120.274 972.608 116.756 975.409 Q113.237 978.21 106.756 978.21 Q104.58 978.21 102.265 977.77 Q99.9733 977.354 97.5197 976.497 L97.5197 971.983 Q99.4641 973.118 101.779 973.696 Q104.094 974.275 106.617 974.275 Q111.015 974.275 113.307 972.539 Q115.621 970.803 115.621 967.493 Q115.621 964.437 113.469 962.724 Q111.339 960.988 107.52 960.988 L103.492 960.988 L103.492 957.145 L107.705 957.145 Q111.154 957.145 112.983 955.78 Q114.811 954.391 114.811 951.798 Q114.811 949.136 112.913 947.724 Q111.038 946.289 107.52 946.289 Q105.598 946.289 103.399 946.706 Q101.2 947.122 98.5613 948.002 L98.5613 943.835 Q101.223 943.095 103.538 942.724 Q105.876 942.354 107.936 942.354 Q113.26 942.354 116.362 944.784 Q119.464 947.192 119.464 951.312 Q119.464 954.183 117.82 956.173 Q116.177 958.141 113.145 958.905 Z" fill="#000000" fill-rule="nonzero" fill-opacity="1" /><path clip-path="url(#clip710)" d="M62.9365 678.572 Q59.3254 678.572 57.4967 682.137 Q55.6912 685.679 55.6912 692.808 Q55.6912 699.915 57.4967 703.48 Q59.3254 707.021 62.9365 707.021 Q66.5707 707.021 68.3763 703.48 Q70.205 699.915 70.205 692.808 Q70.205 685.679 68.3763 682.137 Q66.5707 678.572 62.9365 678.572 M62.9365 674.869 Q68.7467 674.869 71.8022 679.475 Q74.8809 684.058 74.8809 692.808 Q74.8809 701.535 71.8022 706.142 Q68.7467 710.725 62.9365 710.725 Q57.1264 710.725 54.0477 706.142 Q50.9921 701.535 50.9921 692.808 Q50.9921 684.058 54.0477 679.475 Q57.1264 674.869 62.9365 674.869 Z" fill="#000000" fill-rule="nonzero" fill-opacity="1" /><path clip-path="url(#clip710)" d="M83.0984 704.174 L87.9827 704.174 L87.9827 710.054 L83.0984 710.054 L83.0984 704.174 Z" fill="#000000" fill-rule="nonzero" fill-opacity="1" /><path clip-path="url(#clip710)" d="M108.746 690.91 Q105.598 690.91 103.746 693.063 Q101.918 695.216 101.918 698.966 Q101.918 702.693 103.746 704.868 Q105.598 707.021 108.746 707.021 Q111.895 707.021 113.723 704.868 Q115.575 702.693 115.575 698.966 Q115.575 695.216 113.723 693.063 Q111.895 690.91 108.746 690.91 M118.029 676.258 L118.029 680.517 Q116.27 679.683 114.464 679.244 Q112.682 678.804 110.922 678.804 Q106.293 678.804 103.839 681.929 Q101.409 685.054 101.061 691.373 Q102.427 689.359 104.487 688.295 Q106.547 687.207 109.024 687.207 Q114.233 687.207 117.242 690.378 Q120.274 693.526 120.274 698.966 Q120.274 704.29 117.126 707.507 Q113.978 710.725 108.746 710.725 Q102.751 710.725 99.5798 706.142 Q96.4085 701.535 96.4085 692.808 Q96.4085 684.614 100.297 679.753 Q104.186 674.869 110.737 674.869 Q112.496 674.869 114.279 675.216 Q116.084 675.563 118.029 676.258 Z" fill="#000000" fill-rule="nonzero" fill-opacity="1" /><path clip-path="url(#clip710)" d="M63.2837 411.087 Q59.6726 411.087 57.8439 414.652 Q56.0384 418.194 56.0384 425.323 Q56.0384 432.43 57.8439 435.994 Q59.6726 439.536 63.2837 439.536 Q66.918 439.536 68.7235 435.994 Q70.5522 432.43 70.5522 425.323 Q70.5522 418.194 68.7235 414.652 Q66.918 411.087 63.2837 411.087 M63.2837 407.383 Q69.0939 407.383 72.1494 411.99 Q75.2281 416.573 75.2281 425.323 Q75.2281 434.05 72.1494 438.656 Q69.0939 443.24 63.2837 443.24 Q57.4736 443.24 54.3949 438.656 Q51.3393 434.05 51.3393 425.323 Q51.3393 416.573 54.3949 411.99 Q57.4736 407.383 63.2837 407.383 Z" fill="#000000" fill-rule="nonzero" fill-opacity="1" /><path clip-path="url(#clip710)" d="M83.4457 436.689 L88.3299 436.689 L88.3299 442.568 L83.4457 442.568 L83.4457 436.689 Z" fill="#000000" fill-rule="nonzero" fill-opacity="1" /><path clip-path="url(#clip710)" d="M98.6539 441.851 L98.6539 437.592 Q100.413 438.425 102.219 438.865 Q104.024 439.305 105.76 439.305 Q110.39 439.305 112.82 436.203 Q115.274 433.078 115.621 426.735 Q114.279 428.726 112.219 429.791 Q110.158 430.856 107.658 430.856 Q102.473 430.856 99.4409 427.731 Q96.4317 424.582 96.4317 419.143 Q96.4317 413.819 99.5798 410.601 Q102.728 407.383 107.959 407.383 Q113.955 407.383 117.103 411.99 Q120.274 416.573 120.274 425.323 Q120.274 433.494 116.385 438.379 Q112.52 443.24 105.969 443.24 Q104.209 443.24 102.404 442.893 Q100.598 442.545 98.6539 441.851 M107.959 427.198 Q111.108 427.198 112.936 425.045 Q114.788 422.893 114.788 419.143 Q114.788 415.416 112.936 413.263 Q111.108 411.087 107.959 411.087 Q104.811 411.087 102.959 413.263 Q101.131 415.416 101.131 419.143 Q101.131 422.893 102.959 425.045 Q104.811 427.198 107.959 427.198 Z" fill="#000000" fill-rule="nonzero" fill-opacity="1" /><path clip-path="url(#clip710)" d="M55.506 171.148 L63.1448 171.148 L63.1448 144.782 L54.8347 146.449 L54.8347 142.19 L63.0985 140.523 L67.7744 140.523 L67.7744 171.148 L75.4133 171.148 L75.4133 175.083 L55.506 175.083 L55.506 171.148 Z" fill="#000000" fill-rule="nonzero" fill-opacity="1" /><path clip-path="url(#clip710)" d="M84.8577 169.204 L89.7419 169.204 L89.7419 175.083 L84.8577 175.083 L84.8577 169.204 Z" fill="#000000" fill-rule="nonzero" fill-opacity="1" /><path clip-path="url(#clip710)" d="M103.955 171.148 L120.274 171.148 L120.274 175.083 L98.3298 175.083 L98.3298 171.148 Q100.992 168.393 105.575 163.764 Q110.182 159.111 111.362 157.769 Q113.608 155.245 114.487 153.509 Q115.39 151.75 115.39 150.06 Q115.39 147.306 113.445 145.569 Q111.524 143.833 108.422 143.833 Q106.223 143.833 103.77 144.597 Q101.339 145.361 98.5613 146.912 L98.5613 142.19 Q101.385 141.056 103.839 140.477 Q106.293 139.898 108.33 139.898 Q113.7 139.898 116.895 142.583 Q120.089 145.269 120.089 149.759 Q120.089 151.889 119.279 153.81 Q118.492 155.708 116.385 158.301 Q115.807 158.972 112.705 162.19 Q109.603 165.384 103.955 171.148 Z" fill="#000000" fill-rule="nonzero" fill-opacity="1" /><polyline clip-path="url(#clip712)" style="stroke:#009af9; stroke-linecap:round; stroke-linejoin:round; stroke-width:16; stroke-opacity:1; fill:none" stroke-dasharray="8, 16" points="218.439,1093.78 228.852,1083.71 239.264,1069.49 249.677,1055.94 260.09,1049.4 270.503,1053.45 280.916,1065.45 291.329,1079.99 301.741,1094.78 312.154,1112.83 322.567,1138.67 332.98,1171.02 343.393,1205.36 353.805,1239.3 364.218,1271.87 374.631,1302.11 385.044,1328.89 395.457,1351.47 405.87,1370.06 416.282,1385.7 426.695,1399.05 437.108,1408.67 447.521,1411.05 457.934,1403.68 468.347,1387.63 478.759,1366.37 489.172,1342.88 499.585,1317.98 509.998,1291.16 520.411,1262.28 530.824,1231.7 541.236,1199.65 551.649,1166.98 562.062,1135.95 572.475,1109.09 582.888,1087.47 593.301,1070.7 603.713,1058.23 614.126,1050.44 624.539,1048.48 634.952,1053.47 645.365,1065.57 655.777,1083.44 666.19,1104.72 676.603,1127.47 687.016,1151.58 697.429,1178.7 707.842,1210.16 718.254,1244.77 728.667,1279.58 739.08,1312.53 749.493,1341.49 759.906,1363.28 770.319,1378.12 780.731,1390.56 791.144,1402.84 801.557,1409.14 811.97,1402.67 822.383,1387.7 832.796,1371.32 843.208,1355.78 853.621,1340.8 864.034,1324.73 874.447,1301.57 884.86,1261.58 895.273,1220.28 905.685,1220.67 916.098,1228.29 926.511,1188.02 936.924,1106.92 947.337,1028.79 957.749,994.134 968.162,1008.91 978.575,1046.29 988.988,1074.86 999.401,1081.02 1009.81,1075.48 1020.23,1084.5 1030.64,1111.84 1041.05,1137.18 1051.46,1160.25 1061.88,1190.38 1072.29,1229.12 1082.7,1269.61 1093.12,1302.01 1103.53,1320.51 1113.94,1331.97 1124.35,1352.18 1134.77,1374.77 1145.18,1394.09 1155.59,1408.4 1166.01,1414.67 1176.42,1406.56 1186.83,1389.93 1197.24,1393.48 1207.66,1437.95 1218.07,1445.72 1228.48,1349.46 1238.9,1214.65 1249.31,983.716 1259.72,654.636 1270.13,403.742 1280.55,298.022 1290.96,258.219 1301.37,247.372 1311.79,305.105 1322.2,373.437 1332.61,383.289 1343.02,361.013 1353.44,332.231 1363.85,309.772 1374.26,293.61 1384.68,292.099 1395.09,310.821 1405.5,339.244 1415.91,363.454 1426.33,376.872 1436.74,380.814 1447.15,378.625 1457.57,370.121 1467.98,350.889 1478.39,317.579 1488.8,275.241 1499.22,241.606 1509.63,242.784 1520.04,289.325 1530.45,356.377 1540.87,412.098 1551.28,439.602 1561.69,431.442 1572.11,389.743 1582.52,331.554 1592.93,279.757 1603.34,249.003 1613.76,243.713 1624.17,261.912 1634.58,297.585 1645,341.875 1655.41,384.51 1665.82,415.926 1676.23,429.267 1686.65,420.808 1697.06,389.196 1707.47,336.541 1717.89,273.45 1728.3,222.993 1738.71,210.333 1749.12,241.989 1759.54,303.011 1769.95,370.774 1780.36,427.109 1790.78,459.18 1801.19,460.173 1811.6,431.297 1822.01,373.855 1832.43,291.647 1842.84,205.781 1853.25,157.878 1863.67,176.818 1874.08,249.852 1884.49,343.473 1894.9,428.807 1905.32,482.934 1915.73,490.897 1926.14,456.094 1936.56,395.808 1946.97,327.563 1957.38,264.263 1967.79,215.482 1978.21,189.556 1988.62,194.638 1999.03,236.652 2009.45,313.616 2019.86,411.038 2030.27,501.254 2040.68,547.392 2051.1,521.739 2061.51,429.009 2071.92,302.177 2082.33,192.457 2092.75,147.136 2103.16,158.016 2113.57,200.598 2123.99,277.801 2134.4,388.755 2144.81,500.324 2155.22,563.581 2165.64,554.724 2176.05,477.754 2186.46,352.174 2196.88,220.61 2207.29,137.127 2217.7,127.566 2228.11,176.006 2238.53,251.576 2248.94,331.577 2259.35,404.802 2269.77,467.211 2280.18,518.172 2290.59,558.431 "/>
<polyline clip-path="url(#clip712)" style="stroke:#e26f46; stroke-linecap:round; stroke-linejoin:round; stroke-width:4; stroke-opacity:1; fill:none" points="218.439,1093.83 228.852,1074.83 239.264,1060.82 249.677,1052.25 260.09,1049.42 270.503,1052.41 280.916,1061.12 291.329,1075.26 301.741,1094.39 312.154,1117.86 322.567,1144.92 332.98,1174.69 343.393,1206.19 353.805,1238.39 364.218,1270.24 374.631,1300.71 385.044,1328.79 395.457,1353.58 405.87,1374.26 416.282,1390.16 426.695,1400.75 437.108,1405.7 447.521,1404.85 457.934,1398.21 468.347,1386.01 478.759,1368.64 489.172,1346.68 499.585,1320.83 509.998,1291.95 520.411,1260.97 530.824,1228.9 541.236,1196.8 551.649,1165.71 562.062,1136.64 572.475,1110.55 582.888,1088.28 593.301,1070.56 603.713,1057.97 614.126,1050.93 624.539,1049.65 634.952,1054.19 645.365,1064.39 655.777,1079.92 666.19,1100.28 676.603,1124.8 687.016,1152.67 697.429,1183 707.842,1214.79 718.254,1247 728.667,1278.58 739.08,1308.5 749.493,1335.79 759.906,1359.55 770.319,1379.01 780.731,1393.53 791.144,1402.64 801.557,1406.05 811.97,1403.63 822.383,1395.47 832.796,1381.84 843.208,1363.18 853.621,1340.1 864.034,1313.35 874.447,1283.81 884.86,1252.44 895.273,1220.26 905.685,1188.33 916.098,1157.68 926.511,1129.32 936.924,1104.17 947.337,1083.06 957.749,1066.66 968.162,1055.53 978.575,1050.01 988.988,1050.3 999.401,1056.38 1009.81,1068.05 1020.23,1084.93 1030.64,1106.47 1041.05,1131.97 1051.46,1160.6 1061.88,1191.42 1072.29,1223.42 1082.7,1255.57 1093.12,1286.8 1103.53,1316.11 1113.94,1342.54 1124.35,1365.22 1134.77,1383.41 1145.18,1396.52 1155.59,1404.12 1166.01,1405.97 1176.42,1402 1186.83,1392.34 1197.24,1377.31 1207.66,1357.4 1218.07,1333.26 1228.48,1305.67 1238.9,1275.54 1249.31,1243.85 1259.72,334.832 1270.13,333.358 1280.55,334.699 1290.96,339.164 1301.37,345.384 1311.79,350.731 1322.2,352.315 1332.61,348.2 1343.02,338.393 1353.44,325.17 1363.85,312.589 1374.26,305.239 1384.68,306.649 1395.09,317.863 1405.5,336.726 1415.91,358.193 1426.33,375.674 1436.74,383.048 1447.15,376.736 1457.57,357.15 1467.98,328.98 1478.39,300.11 1488.8,279.418 1499.22,274.058 1509.63,287.052 1520.04,316.001 1530.45,353.389 1540.87,388.509 1551.28,410.536 1561.69,411.84 1572.11,390.56 1582.52,351.56 1592.93,305.395 1603.34,265.462 1613.76,244.115 1624.17,248.862 1634.58,279.81 1645,329.217 1655.41,383.38 1665.82,426.434 1676.23,444.996 1686.65,432.302 1697.06,390.563 1707.47,330.738 1717.89,269.688 1728.3,225.422 1738.71,211.789 1749.12,234.175 1759.54,287.532 1769.95,357.43 1780.36,423.947 1790.78,467.345 1801.19,473.918 1811.6,440.292 1822.01,374.816 1832.43,295.544 1842.84,225.262 1853.25,184.942 1863.67,187.491 1874.08,233.662 1884.49,311.412 1894.9,399.008 1905.32,471.102 1915.73,506.06 1926.14,492.447 1936.56,432.71 1946.97,342.894 1957.38,248.359 1967.79,176.616 1978.21,149.326 1988.62,175.772 1999.03,249.781 2009.45,351.085 2019.86,450.859 2030.27,519.922 2040.68,537.269 2051.1,496.44 2061.51,407.801 2071.92,295.958 2082.33,192.932 2092.75,128.995 2103.16,123.78 2113.57,180.273 2123.99,283.53 2134.4,404.602 2144.81,508.644 2155.22,564.942 2165.64,555.978 2176.05,482.847 2186.46,365.365 2196.88,236.724 2207.29,134.116 2217.7,87.9763 2228.11,112.972 2238.53,203.375 2248.94,334.296 2259.35,468.519 2269.77,567.084 2280.18,600.59 2290.59,557.955 "/>
<path clip-path="url(#clip710)" d="M229.49 250.738 L675.966 250.738 L675.966 95.2176 L229.49 95.2176  Z" fill="#ffffff" fill-rule="evenodd" fill-opacity="1"/>
<polyline clip-path="url(#clip710)" style="stroke:#000000; stroke-linecap:round; stroke-linejoin:round; stroke-width:4; stroke-opacity:1; fill:none" points="229.49,250.738 675.966,250.738 675.966,95.2176 229.49,95.2176 229.49,250.738 "/>
<polyline clip-path="url(#clip710)" style="stroke:#009af9; stroke-linecap:round; stroke-linejoin:round; stroke-width:16; stroke-opacity:1; fill:none" stroke-dasharray="8, 16" points="253.896,147.058 400.328,147.058 "/>
<path clip-path="url(#clip710)" d="M429.409 133.62 L429.409 146.606 L435.289 146.606 Q438.552 146.606 440.335 144.916 Q442.117 143.227 442.117 140.102 Q442.117 137 440.335 135.31 Q438.552 133.62 435.289 133.62 L429.409 133.62 M424.733 129.778 L435.289 129.778 Q441.099 129.778 444.062 132.416 Q447.048 135.032 447.048 140.102 Q447.048 145.217 444.062 147.833 Q441.099 150.449 435.289 150.449 L429.409 150.449 L429.409 164.338 L424.733 164.338 L424.733 129.778 Z" fill="#000000" fill-rule="nonzero" fill-opacity="1" /><path clip-path="url(#clip710)" d="M467.325 142.393 Q466.608 141.977 465.751 141.791 Q464.918 141.583 463.899 141.583 Q460.288 141.583 458.344 143.944 Q456.423 146.282 456.423 150.68 L456.423 164.338 L452.14 164.338 L452.14 138.412 L456.423 138.412 L456.423 142.44 Q457.765 140.078 459.918 138.944 Q462.071 137.787 465.149 137.787 Q465.589 137.787 466.122 137.856 Q466.654 137.903 467.302 138.018 L467.325 142.393 Z" fill="#000000" fill-rule="nonzero" fill-opacity="1" /><path clip-path="url(#clip710)" d="M492.927 150.31 L492.927 152.393 L473.344 152.393 Q473.622 156.791 475.983 159.106 Q478.367 161.398 482.603 161.398 Q485.057 161.398 487.348 160.796 Q489.663 160.194 491.932 158.99 L491.932 163.018 Q489.64 163.99 487.233 164.5 Q484.825 165.009 482.348 165.009 Q476.145 165.009 472.511 161.398 Q468.899 157.787 468.899 151.629 Q468.899 145.264 472.325 141.537 Q475.774 137.787 481.608 137.787 Q486.839 137.787 489.872 141.166 Q492.927 144.523 492.927 150.31 M488.668 149.06 Q488.622 145.565 486.7 143.481 Q484.802 141.398 481.654 141.398 Q478.089 141.398 475.936 143.412 Q473.807 145.426 473.483 149.083 L488.668 149.06 Z" fill="#000000" fill-rule="nonzero" fill-opacity="1" /><path clip-path="url(#clip710)" d="M516.978 142.347 L516.978 128.319 L521.237 128.319 L521.237 164.338 L516.978 164.338 L516.978 160.449 Q515.635 162.763 513.575 163.898 Q511.538 165.009 508.668 165.009 Q503.969 165.009 501.006 161.259 Q498.066 157.509 498.066 151.398 Q498.066 145.287 501.006 141.537 Q503.969 137.787 508.668 137.787 Q511.538 137.787 513.575 138.921 Q515.635 140.032 516.978 142.347 M502.464 151.398 Q502.464 156.097 504.385 158.782 Q506.33 161.444 509.709 161.444 Q513.089 161.444 515.033 158.782 Q516.978 156.097 516.978 151.398 Q516.978 146.699 515.033 144.037 Q513.089 141.352 509.709 141.352 Q506.33 141.352 504.385 144.037 Q502.464 146.699 502.464 151.398 Z" fill="#000000" fill-rule="nonzero" fill-opacity="1" /><path clip-path="url(#clip710)" d="M530.01 138.412 L534.269 138.412 L534.269 164.338 L530.01 164.338 L530.01 138.412 M530.01 128.319 L534.269 128.319 L534.269 133.713 L530.01 133.713 L530.01 128.319 Z" fill="#000000" fill-rule="nonzero" fill-opacity="1" /><path clip-path="url(#clip710)" d="M561.839 139.407 L561.839 143.389 Q560.033 142.393 558.205 141.907 Q556.399 141.398 554.547 141.398 Q550.404 141.398 548.112 144.037 Q545.82 146.652 545.82 151.398 Q545.82 156.143 548.112 158.782 Q550.404 161.398 554.547 161.398 Q556.399 161.398 558.205 160.912 Q560.033 160.402 561.839 159.407 L561.839 163.342 Q560.056 164.176 558.135 164.592 Q556.237 165.009 554.084 165.009 Q548.228 165.009 544.779 161.328 Q541.33 157.648 541.33 151.398 Q541.33 145.055 544.802 141.421 Q548.297 137.787 554.362 137.787 Q556.33 137.787 558.205 138.203 Q560.08 138.597 561.839 139.407 Z" fill="#000000" fill-rule="nonzero" fill-opacity="1" /><path clip-path="url(#clip710)" d="M573.459 131.051 L573.459 138.412 L582.232 138.412 L582.232 141.722 L573.459 141.722 L573.459 155.796 Q573.459 158.967 574.316 159.87 Q575.195 160.773 577.857 160.773 L582.232 160.773 L582.232 164.338 L577.857 164.338 Q572.927 164.338 571.052 162.509 Q569.177 160.657 569.177 155.796 L569.177 141.722 L566.052 141.722 L566.052 138.412 L569.177 138.412 L569.177 131.051 L573.459 131.051 Z" fill="#000000" fill-rule="nonzero" fill-opacity="1" /><path clip-path="url(#clip710)" d="M587.834 138.412 L592.093 138.412 L592.093 164.338 L587.834 164.338 L587.834 138.412 M587.834 128.319 L592.093 128.319 L592.093 133.713 L587.834 133.713 L587.834 128.319 Z" fill="#000000" fill-rule="nonzero" fill-opacity="1" /><path clip-path="url(#clip710)" d="M611.051 141.398 Q607.626 141.398 605.635 144.083 Q603.644 146.745 603.644 151.398 Q603.644 156.051 605.612 158.736 Q607.602 161.398 611.051 161.398 Q614.454 161.398 616.445 158.713 Q618.436 156.027 618.436 151.398 Q618.436 146.791 616.445 144.106 Q614.454 141.398 611.051 141.398 M611.051 137.787 Q616.607 137.787 619.778 141.398 Q622.95 145.009 622.95 151.398 Q622.95 157.764 619.778 161.398 Q616.607 165.009 611.051 165.009 Q605.473 165.009 602.302 161.398 Q599.153 157.764 599.153 151.398 Q599.153 145.009 602.302 141.398 Q605.473 137.787 611.051 137.787 Z" fill="#000000" fill-rule="nonzero" fill-opacity="1" /><path clip-path="url(#clip710)" d="M651.561 148.689 L651.561 164.338 L647.301 164.338 L647.301 148.828 Q647.301 145.148 645.866 143.319 Q644.431 141.49 641.561 141.49 Q638.112 141.49 636.121 143.69 Q634.13 145.889 634.13 149.685 L634.13 164.338 L629.848 164.338 L629.848 138.412 L634.13 138.412 L634.13 142.44 Q635.658 140.102 637.718 138.944 Q639.801 137.787 642.51 137.787 Q646.977 137.787 649.269 140.565 Q651.561 143.319 651.561 148.689 Z" fill="#000000" fill-rule="nonzero" fill-opacity="1" /><polyline clip-path="url(#clip710)" style="stroke:#e26f46; stroke-linecap:round; stroke-linejoin:round; stroke-width:4; stroke-opacity:1; fill:none" points="253.896,198.898 400.328,198.898 "/>
<path clip-path="url(#clip710)" d="M424.733 181.618 L446.585 181.618 L446.585 185.553 L429.409 185.553 L429.409 195.784 L445.867 195.784 L445.867 199.719 L429.409 199.719 L429.409 212.242 L447.001 212.242 L447.001 216.178 L424.733 216.178 L424.733 181.618 Z" fill="#000000" fill-rule="nonzero" fill-opacity="1" /><path clip-path="url(#clip710)" d="M476.052 190.252 L466.677 202.867 L476.538 216.178 L471.515 216.178 L463.969 205.992 L456.423 216.178 L451.4 216.178 L461.469 202.613 L452.256 190.252 L457.279 190.252 L464.154 199.488 L471.029 190.252 L476.052 190.252 Z" fill="#000000" fill-rule="nonzero" fill-opacity="1" /><path clip-path="url(#clip710)" d="M494.339 203.145 Q489.177 203.145 487.186 204.326 Q485.196 205.506 485.196 208.354 Q485.196 210.622 486.677 211.965 Q488.182 213.284 490.751 213.284 Q494.293 213.284 496.422 210.784 Q498.575 208.261 498.575 204.094 L498.575 203.145 L494.339 203.145 M502.834 201.386 L502.834 216.178 L498.575 216.178 L498.575 212.242 Q497.117 214.603 494.941 215.738 Q492.765 216.849 489.617 216.849 Q485.635 216.849 483.274 214.627 Q480.936 212.381 480.936 208.631 Q480.936 204.256 483.853 202.034 Q486.793 199.812 492.603 199.812 L498.575 199.812 L498.575 199.395 Q498.575 196.455 496.631 194.858 Q494.71 193.238 491.214 193.238 Q488.992 193.238 486.885 193.77 Q484.779 194.303 482.835 195.367 L482.835 191.432 Q485.173 190.53 487.372 190.09 Q489.571 189.627 491.654 189.627 Q497.279 189.627 500.057 192.543 Q502.834 195.46 502.834 201.386 Z" fill="#000000" fill-rule="nonzero" fill-opacity="1" /><path clip-path="url(#clip710)" d="M530.265 191.247 L530.265 195.229 Q528.459 194.233 526.631 193.747 Q524.825 193.238 522.973 193.238 Q518.83 193.238 516.538 195.877 Q514.246 198.492 514.246 203.238 Q514.246 207.983 516.538 210.622 Q518.83 213.238 522.973 213.238 Q524.825 213.238 526.631 212.752 Q528.459 212.242 530.265 211.247 L530.265 215.182 Q528.482 216.016 526.561 216.432 Q524.663 216.849 522.51 216.849 Q516.654 216.849 513.205 213.168 Q509.756 209.488 509.756 203.238 Q509.756 196.895 513.228 193.261 Q516.723 189.627 522.788 189.627 Q524.756 189.627 526.631 190.043 Q528.506 190.437 530.265 191.247 Z" fill="#000000" fill-rule="nonzero" fill-opacity="1" /><path clip-path="url(#clip710)" d="M541.885 182.891 L541.885 190.252 L550.658 190.252 L550.658 193.562 L541.885 193.562 L541.885 207.636 Q541.885 210.807 542.742 211.71 Q543.621 212.613 546.283 212.613 L550.658 212.613 L550.658 216.178 L546.283 216.178 Q541.353 216.178 539.478 214.349 Q537.603 212.497 537.603 207.636 L537.603 193.562 L534.478 193.562 L534.478 190.252 L537.603 190.252 L537.603 182.891 L541.885 182.891 Z" fill="#000000" fill-rule="nonzero" fill-opacity="1" /></svg>
