<?xml version="1.0" encoding="utf-8"?>
<svg xmlns="http://www.w3.org/2000/svg" xmlns:xlink="http://www.w3.org/1999/xlink" width="600" height="400" viewBox="0 0 2400 1600">
<defs>
  <clipPath id="clip650">
    <rect x="0" y="0" width="2400" height="1600"/>
  </clipPath>
</defs>
<path clip-path="url(#clip650)" d="M0 1600 L2400 1600 L2400 0 L0 0  Z" fill="#ffffff" fill-rule="evenodd" fill-opacity="1"/>
<defs>
  <clipPath id="clip651">
    <rect x="480" y="0" width="1681" height="1600"/>
  </clipPath>
</defs>
<path clip-path="url(#clip650)" d="M156.274 1486.45 L2352.76 1486.45 L2352.76 47.2441 L156.274 47.2441  Z" fill="#ffffff" fill-rule="evenodd" fill-opacity="1"/>
<defs>
  <clipPath id="clip652">
    <rect x="156" y="47" width="2197" height="1440"/>
  </clipPath>
</defs>
<polyline clip-path="url(#clip652)" style="stroke:#000000; stroke-linecap:round; stroke-linejoin:round; stroke-width:2; stroke-opacity:0.1; fill:none" points="218.439,1486.45 218.439,47.2441 "/>
<polyline clip-path="url(#clip652)" style="stroke:#000000; stroke-linecap:round; stroke-linejoin:round; stroke-width:2; stroke-opacity:0.1; fill:none" points="736.477,1486.45 736.477,47.2441 "/>
<polyline clip-path="url(#clip652)" style="stroke:#000000; stroke-linecap:round; stroke-linejoin:round; stroke-width:2; stroke-opacity:0.1; fill:none" points="1254.52,1486.45 1254.52,47.2441 "/>
<polyline clip-path="url(#clip652)" style="stroke:#000000; stroke-linecap:round; stroke-linejoin:round; stroke-width:2; stroke-opacity:0.1; fill:none" points="1772.55,1486.45 1772.55,47.2441 "/>
<polyline clip-path="url(#clip652)" style="stroke:#000000; stroke-linecap:round; stroke-linejoin:round; stroke-width:2; stroke-opacity:0.1; fill:none" points="2290.59,1486.45 2290.59,47.2441 "/>
<polyline clip-path="url(#clip650)" style="stroke:#000000; stroke-linecap:round; stroke-linejoin:round; stroke-width:4; stroke-opacity:1; fill:none" points="156.274,1486.45 2352.76,1486.45 "/>
<polyline clip-path="url(#clip650)" style="stroke:#000000; stroke-linecap:round; stroke-linejoin:round; stroke-width:4; stroke-opacity:1; fill:none" points="218.439,1486.45 218.439,1467.55 "/>
<polyline clip-path="url(#clip650)" style="stroke:#000000; stroke-linecap:round; stroke-linejoin:round; stroke-width:4; stroke-opacity:1; fill:none" points="736.477,1486.45 736.477,1467.55 "/>
<polyline clip-path="url(#clip650)" style="stroke:#000000; stroke-linecap:round; stroke-linejoin:round; stroke-width:4; stroke-opacity:1; fill:none" points="1254.52,1486.45 1254.52,1467.55 "/>
<polyline clip-path="url(#clip650)" style="stroke:#000000; stroke-linecap:round; stroke-linejoin:round; stroke-width:4; stroke-opacity:1; fill:none" points="1772.55,1486.45 1772.55,1467.55 "/>
<polyline clip-path="url(#clip650)" style="stroke:#000000; stroke-linecap:round; stroke-linejoin:round; stroke-width:4; stroke-opacity:1; fill:none" points="2290.59,1486.45 2290.59,1467.55 "/>
<path clip-path="url(#clip650)" d="M164.967 1532.02 L194.643 1532.02 L194.643 1535.95 L164.967 1535.95 L164.967 1532.02 Z" fill="#000000" fill-rule="nonzero" fill-opacity="1" /><path clip-path="url(#clip650)" d="M205.545 1544.91 L213.184 1544.91 L213.184 1518.55 L204.874 1520.21 L204.874 1515.95 L213.138 1514.29 L217.814 1514.29 L217.814 1544.91 L225.453 1544.91 L225.453 1548.85 L205.545 1548.85 L205.545 1544.91 Z" fill="#000000" fill-rule="nonzero" fill-opacity="1" /><path clip-path="url(#clip650)" d="M234.897 1542.97 L239.781 1542.97 L239.781 1548.85 L234.897 1548.85 L234.897 1542.97 Z" fill="#000000" fill-rule="nonzero" fill-opacity="1" /><path clip-path="url(#clip650)" d="M259.966 1517.37 Q256.355 1517.37 254.527 1520.93 Q252.721 1524.47 252.721 1531.6 Q252.721 1538.71 254.527 1542.27 Q256.355 1545.82 259.966 1545.82 Q263.601 1545.82 265.406 1542.27 Q267.235 1538.71 267.235 1531.6 Q267.235 1524.47 265.406 1520.93 Q263.601 1517.37 259.966 1517.37 M259.966 1513.66 Q265.776 1513.66 268.832 1518.27 Q271.911 1522.85 271.911 1531.6 Q271.911 1540.33 268.832 1544.94 Q265.776 1549.52 259.966 1549.52 Q254.156 1549.52 251.077 1544.94 Q248.022 1540.33 248.022 1531.6 Q248.022 1522.85 251.077 1518.27 Q254.156 1513.66 259.966 1513.66 Z" fill="#000000" fill-rule="nonzero" fill-opacity="1" /><path clip-path="url(#clip650)" d="M683.503 1532.02 L713.178 1532.02 L713.178 1535.95 L683.503 1535.95 L683.503 1532.02 Z" fill="#000000" fill-rule="nonzero" fill-opacity="1" /><path clip-path="url(#clip650)" d="M733.271 1517.37 Q729.66 1517.37 727.831 1520.93 Q726.026 1524.47 726.026 1531.6 Q726.026 1538.71 727.831 1542.27 Q729.66 1545.82 733.271 1545.82 Q736.905 1545.82 738.711 1542.27 Q740.539 1538.71 740.539 1531.6 Q740.539 1524.47 738.711 1520.93 Q736.905 1517.37 733.271 1517.37 M733.271 1513.66 Q739.081 1513.66 742.137 1518.27 Q745.215 1522.85 745.215 1531.6 Q745.215 1540.33 742.137 1544.94 Q739.081 1549.52 733.271 1549.52 Q727.461 1549.52 724.382 1544.94 Q721.327 1540.33 721.327 1531.6 Q721.327 1522.85 724.382 1518.27 Q727.461 1513.66 733.271 1513.66 Z" fill="#000000" fill-rule="nonzero" fill-opacity="1" /><path clip-path="url(#clip650)" d="M753.433 1542.97 L758.317 1542.97 L758.317 1548.85 L753.433 1548.85 L753.433 1542.97 Z" fill="#000000" fill-rule="nonzero" fill-opacity="1" /><path clip-path="url(#clip650)" d="M768.548 1514.29 L786.905 1514.29 L786.905 1518.22 L772.831 1518.22 L772.831 1526.7 Q773.849 1526.35 774.868 1526.19 Q775.886 1526 776.905 1526 Q782.692 1526 786.072 1529.17 Q789.451 1532.34 789.451 1537.76 Q789.451 1543.34 785.979 1546.44 Q782.507 1549.52 776.187 1549.52 Q774.011 1549.52 771.743 1549.15 Q769.498 1548.78 767.09 1548.04 L767.09 1543.34 Q769.173 1544.47 771.396 1545.03 Q773.618 1545.58 776.095 1545.58 Q780.099 1545.58 782.437 1543.48 Q784.775 1541.37 784.775 1537.76 Q784.775 1534.15 782.437 1532.04 Q780.099 1529.94 776.095 1529.94 Q774.22 1529.94 772.345 1530.35 Q770.493 1530.77 768.548 1531.65 L768.548 1514.29 Z" fill="#000000" fill-rule="nonzero" fill-opacity="1" /><path clip-path="url(#clip650)" d="M1231.9 1517.37 Q1228.29 1517.37 1226.46 1520.93 Q1224.65 1524.47 1224.65 1531.6 Q1224.65 1538.71 1226.46 1542.27 Q1228.29 1545.82 1231.9 1545.82 Q1235.53 1545.82 1237.34 1542.27 Q1239.17 1538.71 1239.17 1531.6 Q1239.17 1524.47 1237.34 1520.93 Q1235.53 1517.37 1231.9 1517.37 M1231.9 1513.66 Q1237.71 1513.66 1240.77 1518.27 Q1243.84 1522.85 1243.84 1531.6 Q1243.84 1540.33 1240.77 1544.94 Q1237.71 1549.52 1231.9 1549.52 Q1226.09 1549.52 1223.01 1544.94 Q1219.96 1540.33 1219.96 1531.6 Q1219.96 1522.85 1223.01 1518.27 Q1226.09 1513.66 1231.9 1513.66 Z" fill="#000000" fill-rule="nonzero" fill-opacity="1" /><path clip-path="url(#clip650)" d="M1252.06 1542.97 L1256.95 1542.97 L1256.95 1548.85 L1252.06 1548.85 L1252.06 1542.97 Z" fill="#000000" fill-rule="nonzero" fill-opacity="1" /><path clip-path="url(#clip650)" d="M1277.13 1517.37 Q1273.52 1517.37 1271.69 1520.93 Q1269.89 1524.47 1269.89 1531.6 Q1269.89 1538.71 1271.69 1542.27 Q1273.52 1545.82 1277.13 1545.82 Q1280.76 1545.82 1282.57 1542.27 Q1284.4 1538.71 1284.4 1531.6 Q1284.4 1524.47 1282.57 1520.93 Q1280.76 1517.37 1277.13 1517.37 M1277.13 1513.66 Q1282.94 1513.66 1286 1518.27 Q1289.08 1522.85 1289.08 1531.6 Q1289.08 1540.33 1286 1544.94 Q1282.94 1549.52 1277.13 1549.52 Q1271.32 1549.52 1268.24 1544.94 Q1265.19 1540.33 1265.19 1531.6 Q1265.19 1522.85 1268.24 1518.27 Q1271.32 1513.66 1277.13 1513.66 Z" fill="#000000" fill-rule="nonzero" fill-opacity="1" /><path clip-path="url(#clip650)" d="M1750.44 1517.37 Q1746.82 1517.37 1745 1520.93 Q1743.19 1524.47 1743.19 1531.6 Q1743.19 1538.71 1745 1542.27 Q1746.82 1545.82 1750.44 1545.82 Q1754.07 1545.82 1755.88 1542.27 Q1757.7 1538.71 1757.7 1531.6 Q1757.7 1524.47 1755.88 1520.93 Q1754.07 1517.37 1750.44 1517.37 M1750.44 1513.66 Q1756.25 1513.66 1759.3 1518.27 Q1762.38 1522.85 1762.38 1531.6 Q1762.38 1540.33 1759.3 1544.94 Q1756.25 1549.52 1750.44 1549.52 Q1744.63 1549.52 1741.55 1544.94 Q1738.49 1540.33 1738.49 1531.6 Q1738.49 1522.85 1741.55 1518.27 Q1744.63 1513.66 1750.44 1513.66 Z" fill="#000000" fill-rule="nonzero" fill-opacity="1" /><path clip-path="url(#clip650)" d="M1770.6 1542.97 L1775.48 1542.97 L1775.48 1548.85 L1770.6 1548.85 L1770.6 1542.97 Z" fill="#000000" fill-rule="nonzero" fill-opacity="1" /><path clip-path="url(#clip650)" d="M1785.71 1514.29 L1804.07 1514.29 L1804.07 1518.22 L1790 1518.22 L1790 1526.7 Q1791.01 1526.35 1792.03 1526.19 Q1793.05 1526 1794.07 1526 Q1799.86 1526 1803.24 1529.17 Q1806.62 1532.34 1806.62 1537.76 Q1806.62 1543.34 1803.14 1546.44 Q1799.67 1549.52 1793.35 1549.52 Q1791.18 1549.52 1788.91 1549.15 Q1786.66 1548.78 1784.25 1548.04 L1784.25 1543.34 Q1786.34 1544.47 1788.56 1545.03 Q1790.78 1545.58 1793.26 1545.58 Q1797.26 1545.58 1799.6 1543.48 Q1801.94 1541.37 1801.94 1537.76 Q1801.94 1534.15 1799.6 1532.04 Q1797.26 1529.94 1793.26 1529.94 Q1791.38 1529.94 1789.51 1530.35 Q1787.66 1530.77 1785.71 1531.65 L1785.71 1514.29 Z" fill="#000000" fill-rule="nonzero" fill-opacity="1" /><path clip-path="url(#clip650)" d="M2257.74 1544.91 L2265.38 1544.91 L2265.38 1518.55 L2257.07 1520.21 L2257.07 1515.95 L2265.34 1514.29 L2270.01 1514.29 L2270.01 1544.91 L2277.65 1544.91 L2277.65 1548.85 L2257.74 1548.85 L2257.74 1544.91 Z" fill="#000000" fill-rule="nonzero" fill-opacity="1" /><path clip-path="url(#clip650)" d="M2287.1 1542.97 L2291.98 1542.97 L2291.98 1548.85 L2287.1 1548.85 L2287.1 1542.97 Z" fill="#000000" fill-rule="nonzero" fill-opacity="1" /><path clip-path="url(#clip650)" d="M2312.17 1517.37 Q2308.55 1517.37 2306.73 1520.93 Q2304.92 1524.47 2304.92 1531.6 Q2304.92 1538.71 2306.73 1542.27 Q2308.55 1545.82 2312.17 1545.82 Q2315.8 1545.82 2317.61 1542.27 Q2319.43 1538.71 2319.43 1531.6 Q2319.43 1524.47 2317.61 1520.93 Q2315.8 1517.37 2312.17 1517.37 M2312.17 1513.66 Q2317.98 1513.66 2321.03 1518.27 Q2324.11 1522.85 2324.11 1531.6 Q2324.11 1540.33 2321.03 1544.94 Q2317.98 1549.52 2312.17 1549.52 Q2306.36 1549.52 2303.28 1544.94 Q2300.22 1540.33 2300.22 1531.6 Q2300.22 1522.85 2303.28 1518.27 Q2306.36 1513.66 2312.17 1513.66 Z" fill="#000000" fill-rule="nonzero" fill-opacity="1" /><polyline clip-path="url(#clip652)" style="stroke:#000000; stroke-linecap:round; stroke-linejoin:round; stroke-width:2; stroke-opacity:0.1; fill:none" points="156.274,1249.46 2352.76,1249.46 "/>
<polyline clip-path="url(#clip652)" style="stroke:#000000; stroke-linecap:round; stroke-linejoin:round; stroke-width:2; stroke-opacity:0.1; fill:none" points="156.274,976.882 2352.76,976.882 "/>
<polyline clip-path="url(#clip652)" style="stroke:#000000; stroke-linecap:round; stroke-linejoin:round; stroke-width:2; stroke-opacity:0.1; fill:none" points="156.274,704.299 2352.76,704.299 "/>
<polyline clip-path="url(#clip652)" style="stroke:#000000; stroke-linecap:round; stroke-linejoin:round; stroke-width:2; stroke-opacity:0.1; fill:none" points="156.274,431.717 2352.76,431.717 "/>
<polyline clip-path="url(#clip652)" style="stroke:#000000; stroke-linecap:round; stroke-linejoin:round; stroke-width:2; stroke-opacity:0.1; fill:none" points="156.274,159.134 2352.76,159.134 "/>
<polyline clip-path="url(#clip650)" style="stroke:#000000; stroke-linecap:round; stroke-linejoin:round; stroke-width:4; stroke-opacity:1; fill:none" points="156.274,1486.45 156.274,47.2441 "/>
<polyline clip-path="url(#clip650)" style="stroke:#000000; stroke-linecap:round; stroke-linejoin:round; stroke-width:4; stroke-opacity:1; fill:none" points="156.274,1249.46 175.172,1249.46 "/>
<polyline clip-path="url(#clip650)" style="stroke:#000000; stroke-linecap:round; stroke-linejoin:round; stroke-width:4; stroke-opacity:1; fill:none" points="156.274,976.882 175.172,976.882 "/>
<polyline clip-path="url(#clip650)" style="stroke:#000000; stroke-linecap:round; stroke-linejoin:round; stroke-width:4; stroke-opacity:1; fill:none" points="156.274,704.299 175.172,704.299 "/>
<polyline clip-path="url(#clip650)" style="stroke:#000000; stroke-linecap:round; stroke-linejoin:round; stroke-width:4; stroke-opacity:1; fill:none" points="156.274,431.717 175.172,431.717 "/>
<polyline clip-path="url(#clip650)" style="stroke:#000000; stroke-linecap:round; stroke-linejoin:round; stroke-width:4; stroke-opacity:1; fill:none" points="156.274,159.134 175.172,159.134 "/>
<path clip-path="url(#clip650)" d="M63.0985 1235.26 Q59.4875 1235.26 57.6588 1238.83 Q55.8532 1242.37 55.8532 1249.5 Q55.8532 1256.61 57.6588 1260.17 Q59.4875 1263.71 63.0985 1263.71 Q66.7328 1263.71 68.5383 1260.17 Q70.367 1256.61 70.367 1249.5 Q70.367 1242.37 68.5383 1238.83 Q66.7328 1235.26 63.0985 1235.26 M63.0985 1231.56 Q68.9087 1231.56 71.9642 1236.17 Q75.0429 1240.75 75.0429 1249.5 Q75.0429 1258.23 71.9642 1262.83 Q68.9087 1267.42 63.0985 1267.42 Q57.2884 1267.42 54.2097 1262.83 Q51.1542 1258.23 51.1542 1249.5 Q51.1542 1240.75 54.2097 1236.17 Q57.2884 1231.56 63.0985 1231.56 Z" fill="#000000" fill-rule="nonzero" fill-opacity="1" /><path clip-path="url(#clip650)" d="M83.2605 1260.87 L88.1447 1260.87 L88.1447 1266.74 L83.2605 1266.74 L83.2605 1260.87 Z" fill="#000000" fill-rule="nonzero" fill-opacity="1" /><path clip-path="url(#clip650)" d="M108.33 1235.26 Q104.719 1235.26 102.89 1238.83 Q101.084 1242.37 101.084 1249.5 Q101.084 1256.61 102.89 1260.17 Q104.719 1263.71 108.33 1263.71 Q111.964 1263.71 113.77 1260.17 Q115.598 1256.61 115.598 1249.5 Q115.598 1242.37 113.77 1238.83 Q111.964 1235.26 108.33 1235.26 M108.33 1231.56 Q114.14 1231.56 117.195 1236.17 Q120.274 1240.75 120.274 1249.5 Q120.274 1258.23 117.195 1262.83 Q114.14 1267.42 108.33 1267.42 Q102.52 1267.42 99.4409 1262.83 Q96.3854 1258.23 96.3854 1249.5 Q96.3854 1240.75 99.4409 1236.17 Q102.52 1231.56 108.33 1231.56 Z" fill="#000000" fill-rule="nonzero" fill-opacity="1" /><path clip-path="url(#clip650)" d="M63.7467 962.681 Q60.1356 962.681 58.3069 966.245 Q56.5014 969.787 56.5014 976.917 Q56.5014 984.023 58.3069 987.588 Q60.1356 991.13 63.7467 991.13 Q67.3809 991.13 69.1865 987.588 Q71.0152 984.023 71.0152 976.917 Q71.0152 969.787 69.1865 966.245 Q67.3809 962.681 63.7467 962.681 M63.7467 958.977 Q69.5568 958.977 72.6124 963.583 Q75.6911 968.167 75.6911 976.917 Q75.6911 985.643 72.6124 990.25 Q69.5568 994.833 63.7467 994.833 Q57.9365 994.833 54.8578 990.25 Q51.8023 985.643 51.8023 976.917 Q51.8023 968.167 54.8578 963.583 Q57.9365 958.977 63.7467 958.977 Z" fill="#000000" fill-rule="nonzero" fill-opacity="1" /><path clip-path="url(#clip650)" d="M83.9086 988.282 L88.7928 988.282 L88.7928 994.162 L83.9086 994.162 L83.9086 988.282 Z" fill="#000000" fill-rule="nonzero" fill-opacity="1" /><path clip-path="url(#clip650)" d="M113.145 975.528 Q116.501 976.245 118.376 978.514 Q120.274 980.782 120.274 984.116 Q120.274 989.231 116.756 992.032 Q113.237 994.833 106.756 994.833 Q104.58 994.833 102.265 994.393 Q99.9733 993.977 97.5197 993.12 L97.5197 988.606 Q99.4641 989.741 101.779 990.319 Q104.094 990.898 106.617 990.898 Q111.015 990.898 113.307 989.162 Q115.621 987.426 115.621 984.116 Q115.621 981.06 113.469 979.347 Q111.339 977.611 107.52 977.611 L103.492 977.611 L103.492 973.769 L107.705 973.769 Q111.154 973.769 112.983 972.403 Q114.811 971.014 114.811 968.421 Q114.811 965.759 112.913 964.347 Q111.038 962.912 107.52 962.912 Q105.598 962.912 103.399 963.329 Q101.2 963.745 98.5613 964.625 L98.5613 960.458 Q101.223 959.718 103.538 959.347 Q105.876 958.977 107.936 958.977 Q113.26 958.977 116.362 961.407 Q119.464 963.815 119.464 967.935 Q119.464 970.806 117.82 972.796 Q116.177 974.764 113.145 975.528 Z" fill="#000000" fill-rule="nonzero" fill-opacity="1" /><path clip-path="url(#clip650)" d="M62.9365 690.098 Q59.3254 690.098 57.4967 693.663 Q55.6912 697.204 55.6912 704.334 Q55.6912 711.44 57.4967 715.005 Q59.3254 718.547 62.9365 718.547 Q66.5707 718.547 68.3763 715.005 Q70.205 711.44 70.205 704.334 Q70.205 697.204 68.3763 693.663 Q66.5707 690.098 62.9365 690.098 M62.9365 686.394 Q68.7467 686.394 71.8022 691.001 Q74.8809 695.584 74.8809 704.334 Q74.8809 713.061 71.8022 717.667 Q68.7467 722.251 62.9365 722.251 Q57.1264 722.251 54.0477 717.667 Q50.9921 713.061 50.9921 704.334 Q50.9921 695.584 54.0477 691.001 Q57.1264 686.394 62.9365 686.394 Z" fill="#000000" fill-rule="nonzero" fill-opacity="1" /><path clip-path="url(#clip650)" d="M83.0984 715.7 L87.9827 715.7 L87.9827 721.579 L83.0984 721.579 L83.0984 715.7 Z" fill="#000000" fill-rule="nonzero" fill-opacity="1" /><path clip-path="url(#clip650)" d="M108.746 702.436 Q105.598 702.436 103.746 704.589 Q101.918 706.741 101.918 710.491 Q101.918 714.218 103.746 716.394 Q105.598 718.547 108.746 718.547 Q111.895 718.547 113.723 716.394 Q115.575 714.218 115.575 710.491 Q115.575 706.741 113.723 704.589 Q111.895 702.436 108.746 702.436 M118.029 687.783 L118.029 692.042 Q116.27 691.209 114.464 690.769 Q112.682 690.329 110.922 690.329 Q106.293 690.329 103.839 693.454 Q101.409 696.579 101.061 702.899 Q102.427 700.885 104.487 699.82 Q106.547 698.732 109.024 698.732 Q114.233 698.732 117.242 701.903 Q120.274 705.052 120.274 710.491 Q120.274 715.815 117.126 719.033 Q113.978 722.251 108.746 722.251 Q102.751 722.251 99.5798 717.667 Q96.4085 713.061 96.4085 704.334 Q96.4085 696.14 100.297 691.279 Q104.186 686.394 110.737 686.394 Q112.496 686.394 114.279 686.741 Q116.084 687.089 118.029 687.783 Z" fill="#000000" fill-rule="nonzero" fill-opacity="1" /><path clip-path="url(#clip650)" d="M63.2837 417.515 Q59.6726 417.515 57.8439 421.08 Q56.0384 424.622 56.0384 431.751 Q56.0384 438.858 57.8439 442.423 Q59.6726 445.964 63.2837 445.964 Q66.918 445.964 68.7235 442.423 Q70.5522 438.858 70.5522 431.751 Q70.5522 424.622 68.7235 421.08 Q66.918 417.515 63.2837 417.515 M63.2837 413.812 Q69.0939 413.812 72.1494 418.418 Q75.2281 423.001 75.2281 431.751 Q75.2281 440.478 72.1494 445.085 Q69.0939 449.668 63.2837 449.668 Q57.4736 449.668 54.3949 445.085 Q51.3393 440.478 51.3393 431.751 Q51.3393 423.001 54.3949 418.418 Q57.4736 413.812 63.2837 413.812 Z" fill="#000000" fill-rule="nonzero" fill-opacity="1" /><path clip-path="url(#clip650)" d="M83.4457 443.117 L88.3299 443.117 L88.3299 448.997 L83.4457 448.997 L83.4457 443.117 Z" fill="#000000" fill-rule="nonzero" fill-opacity="1" /><path clip-path="url(#clip650)" d="M98.6539 448.279 L98.6539 444.02 Q100.413 444.853 102.219 445.293 Q104.024 445.733 105.76 445.733 Q110.39 445.733 112.82 442.631 Q115.274 439.506 115.621 433.163 Q114.279 435.154 112.219 436.219 Q110.158 437.284 107.658 437.284 Q102.473 437.284 99.4409 434.159 Q96.4317 431.011 96.4317 425.571 Q96.4317 420.247 99.5798 417.029 Q102.728 413.812 107.959 413.812 Q113.955 413.812 117.103 418.418 Q120.274 423.001 120.274 431.751 Q120.274 439.923 116.385 444.807 Q112.52 449.668 105.969 449.668 Q104.209 449.668 102.404 449.321 Q100.598 448.973 98.6539 448.279 M107.959 433.626 Q111.108 433.626 112.936 431.474 Q114.788 429.321 114.788 425.571 Q114.788 421.844 112.936 419.691 Q111.108 417.515 107.959 417.515 Q104.811 417.515 102.959 419.691 Q101.131 421.844 101.131 425.571 Q101.131 429.321 102.959 431.474 Q104.811 433.626 107.959 433.626 Z" fill="#000000" fill-rule="nonzero" fill-opacity="1" /><path clip-path="url(#clip650)" d="M55.506 172.479 L63.1448 172.479 L63.1448 146.113 L54.8347 147.78 L54.8347 143.521 L63.0985 141.854 L67.7744 141.854 L67.7744 172.479 L75.4133 172.479 L75.4133 176.414 L55.506 176.414 L55.506 172.479 Z" fill="#000000" fill-rule="nonzero" fill-opacity="1" /><path clip-path="url(#clip650)" d="M84.8577 170.534 L89.7419 170.534 L89.7419 176.414 L84.8577 176.414 L84.8577 170.534 Z" fill="#000000" fill-rule="nonzero" fill-opacity="1" /><path clip-path="url(#clip650)" d="M103.955 172.479 L120.274 172.479 L120.274 176.414 L98.3298 176.414 L98.3298 172.479 Q100.992 169.724 105.575 165.095 Q110.182 160.442 111.362 159.099 Q113.608 156.576 114.487 154.84 Q115.39 153.081 115.39 151.391 Q115.39 148.636 113.445 146.9 Q111.524 145.164 108.422 145.164 Q106.223 145.164 103.77 145.928 Q101.339 146.692 98.5613 148.243 L98.5613 143.521 Q101.385 142.386 103.839 141.808 Q106.293 141.229 108.33 141.229 Q113.7 141.229 116.895 143.914 Q120.089 146.599 120.089 151.09 Q120.089 153.22 119.279 155.141 Q118.492 157.039 116.385 159.632 Q115.807 160.303 112.705 163.52 Q109.603 166.715 103.955 172.479 Z" fill="#000000" fill-rule="nonzero" fill-opacity="1" /><polyline clip-path="url(#clip652)" style="stroke:#009af9; stroke-linecap:round; stroke-linejoin:round; stroke-width:16; stroke-opacity:1; fill:none" stroke-dasharray="8, 16" points="218.439,1108.78 228.852,1092.59 239.264,1080.83 249.677,1073.84 260.09,1071.92 270.503,1075.23 280.916,1083.81 291.329,1097.53 301.741,1116.09 312.154,1138.99 322.567,1165.55 332.98,1194.96 343.393,1226.26 353.805,1258.44 364.218,1290.42 374.631,1321.15 385.044,1349.6 395.457,1374.83 405.87,1395.99 416.282,1412.37 426.695,1423.42 437.108,1428.79 447.521,1428.29 457.934,1421.97 468.347,1410.07 478.759,1392.99 489.172,1371.31 499.585,1345.73 509.998,1317.07 520.411,1286.18 530.824,1254.01 541.236,1221.5 551.649,1189.64 562.062,1159.4 572.475,1131.75 582.888,1107.65 593.301,1087.98 603.713,1073.53 614.126,1064.92 624.539,1062.6 634.952,1066.75 645.365,1077.3 655.777,1093.87 666.19,1115.83 676.603,1142.34 687.016,1172.36 697.429,1204.78 707.842,1238.44 718.254,1272.17 728.667,1304.87 739.08,1335.5 749.493,1363.12 759.906,1386.88 770.319,1406.07 780.731,1420.1 791.144,1428.56 801.557,1431.2 811.97,1427.94 822.383,1418.93 832.796,1404.47 843.208,1385.05 853.621,1361.33 864.034,1334.09 874.447,1304.24 884.86,1272.74 895.273,1240.61 905.685,1208.88 916.098,1178.56 926.511,1150.58 936.924,1125.82 947.337,1105.02 957.749,1088.79 968.162,1077.6 978.575,1071.78 988.988,1071.47 999.401,1076.69 1009.81,1087.31 1020.23,1103.07 1030.64,1123.6 1041.05,1148.38 1051.46,1176.8 1061.88,1208.08 1072.29,1241.31 1082.7,1275.37 1093.12,1308.94 1103.53,1340.51 1113.94,1368.47 1124.35,1391.28 1134.77,1407.74 1145.18,1417.36 1155.59,1420.77 1166.01,1419.98 1176.42,1418.5 1186.83,1420.81 1197.24,1430.62 1207.66,1445.72 1218.07,1445.23 1228.48,1374.69 1238.9,1176.01 1249.31,883.054 1259.72,610.473 1270.13,427.498 1280.55,332.516 1290.96,297.186 1301.37,294.347 1311.79,305.474 1322.2,320.024 1332.61,332.929 1343.02,342.347 1353.44,348.112 1363.85,350.804 1374.26,351.231 1384.68,350.18 1395.09,348.305 1405.5,346.1 1415.91,343.913 1426.33,341.962 1436.74,340.373 1447.15,339.199 1457.57,338.447 1467.98,338.087 1478.39,338.071 1488.8,338.341 1499.22,338.834 1509.63,339.485 1520.04,340.234 1530.45,341.026 1540.87,341.81 1551.28,342.542 1561.69,343.184 1572.11,343.708 1582.52,344.092 1592.93,344.316 1603.34,344.376 1613.76,344.266 1624.17,343.989 1634.58,343.553 1645,342.971 1655.41,342.258 1665.82,341.44 1676.23,340.537 1686.65,339.576 1697.06,338.586 1707.47,337.596 1717.89,336.637 1728.3,335.739 1738.71,334.93 1749.12,334.239 1759.54,333.692 1769.95,333.31 1780.36,333.115 1790.78,333.122 1801.19,333.343 1811.6,333.783 1822.01,334.446 1832.43,335.327 1842.84,336.417 1853.25,337.7 1863.67,339.156 1874.08,340.76 1884.49,342.479 1894.9,344.278 1905.32,346.116 1915.73,347.946 1926.14,349.723 1936.56,351.396 1946.97,352.911 1957.38,354.219 1967.79,355.265 1978.21,355.999 1988.62,356.371 1999.03,356.339 2009.45,355.862 2019.86,354.906 2030.27,353.448 2040.68,351.47 2051.1,348.969 2061.51,345.953 2071.92,342.45 2082.33,338.501 2092.75,334.172 2103.16,329.552 2113.57,324.76 2123.99,319.946 2134.4,315.301 2144.81,311.047 2155.22,307.465 2165.64,304.872 2176.05,303.648 2186.46,304.214 2196.88,307.049 2207.29,312.67 2217.7,321.633 2228.11,334.504 2238.53,351.847 2248.94,374.198 2259.35,402.028 2269.77,435.715 2280.18,475.511 2290.59,521.528 "/>
<polyline clip-path="url(#clip652)" style="stroke:#e26f46; stroke-linecap:round; stroke-linejoin:round; stroke-width:4; stroke-opacity:1; fill:none" points="218.439,1112.99 228.852,1093.63 239.264,1079.36 249.677,1070.63 260.09,1067.74 270.503,1070.79 280.916,1079.66 291.329,1094.08 301.741,1113.57 312.154,1137.49 322.567,1165.07 332.98,1195.4 343.393,1227.5 353.805,1260.31 364.218,1292.77 374.631,1323.82 385.044,1352.44 395.457,1377.7 405.87,1398.77 416.282,1414.97 426.695,1425.77 437.108,1430.82 447.521,1429.94 457.934,1423.18 468.347,1410.75 478.759,1393.05 489.172,1370.66 499.585,1344.33 509.998,1314.89 520.411,1283.32 530.824,1250.64 541.236,1217.93 551.649,1186.25 562.062,1156.62 572.475,1130.03 582.888,1107.34 593.301,1089.29 603.713,1076.46 614.126,1069.28 624.539,1067.98 634.952,1072.6 645.365,1083 655.777,1098.83 666.19,1119.57 676.603,1144.56 687.016,1172.96 697.429,1203.87 707.842,1236.26 718.254,1269.09 728.667,1301.27 739.08,1331.76 749.493,1359.57 759.906,1383.79 770.319,1403.61 780.731,1418.41 791.144,1427.7 801.557,1431.16 811.97,1428.7 822.383,1420.39 832.796,1406.5 843.208,1387.48 853.621,1363.96 864.034,1336.7 874.447,1306.6 884.86,1274.63 895.273,1241.84 905.685,1209.3 916.098,1178.07 926.511,1149.16 936.924,1123.54 947.337,1102.02 957.749,1085.31 968.162,1073.97 978.575,1068.35 988.988,1068.64 999.401,1074.83 1009.81,1086.72 1020.23,1103.93 1030.64,1125.88 1041.05,1151.87 1051.46,1181.04 1061.88,1212.45 1072.29,1245.06 1082.7,1277.82 1093.12,1309.65 1103.53,1339.52 1113.94,1366.45 1124.35,1389.56 1134.77,1408.1 1145.18,1421.46 1155.59,1429.21 1166.01,1431.09 1176.42,1427.04 1186.83,1417.2 1197.24,1401.88 1207.66,1381.59 1218.07,1356.99 1228.48,1328.88 1238.9,1298.17 1249.31,1265.88 1259.72,339.536 1270.13,338.034 1280.55,339.401 1290.96,343.951 1301.37,350.289 1311.79,355.739 1322.2,357.352 1332.61,353.159 1343.02,343.165 1353.44,329.691 1363.85,316.869 1374.26,309.379 1384.68,310.816 1395.09,322.244 1405.5,341.466 1415.91,363.342 1426.33,381.156 1436.74,388.671 1447.15,382.238 1457.57,362.28 1467.98,333.572 1478.39,304.152 1488.8,283.067 1499.22,277.604 1509.63,290.846 1520.04,320.347 1530.45,358.447 1540.87,394.236 1551.28,416.683 1561.69,418.012 1572.11,396.327 1582.52,356.584 1592.93,309.538 1603.34,268.844 1613.76,247.091 1624.17,251.928 1634.58,283.466 1645,333.814 1655.41,389.009 1665.82,432.884 1676.23,451.799 1686.65,438.864 1697.06,396.329 1707.47,335.364 1717.89,273.151 1728.3,228.041 1738.71,214.149 1749.12,236.961 1759.54,291.335 1769.95,362.565 1780.36,430.35 1790.78,474.574 1801.19,481.273 1811.6,447.006 1822.01,380.283 1832.43,299.499 1842.84,227.878 1853.25,186.79 1863.67,189.388 1874.08,236.439 1884.49,315.67 1894.9,404.935 1905.32,478.403 1915.73,514.028 1926.14,500.155 1936.56,439.279 1946.97,347.752 1957.38,251.416 1967.79,178.305 1978.21,150.495 1988.62,177.445 1999.03,252.865 2009.45,356.099 2019.86,457.774 2030.27,528.153 2040.68,545.831 2051.1,504.224 2061.51,413.896 2071.92,299.921 2082.33,194.932 2092.75,129.777 2103.16,124.462 2113.57,182.032 2123.99,287.257 2134.4,410.636 2144.81,516.66 2155.22,574.031 2165.64,564.897 2176.05,490.372 2186.46,370.651 2196.88,239.559 2207.29,134.995 2217.7,87.9763 2228.11,113.448 2238.53,205.574 2248.94,338.99 2259.35,475.771 2269.77,576.215 2280.18,610.359 2290.59,566.911 "/>
<path clip-path="url(#clip650)" d="M229.49 250.738 L675.966 250.738 L675.966 95.2176 L229.49 95.2176  Z" fill="#ffffff" fill-rule="evenodd" fill-opacity="1"/>
<polyline clip-path="url(#clip650)" style="stroke:#000000; stroke-linecap:round; stroke-linejoin:round; stroke-width:4; stroke-opacity:1; fill:none" points="229.49,250.738 675.966,250.738 675.966,95.2176 229.49,95.2176 229.49,250.738 "/>
<polyline clip-path="url(#clip650)" style="stroke:#009af9; stroke-linecap:round; stroke-linejoin:round; stroke-width:16; stroke-opacity:1; fill:none" stroke-dasharray="8, 16" points="253.896,147.058 400.328,147.058 "/>
<path clip-path="url(#clip650)" d="M429.409 133.62 L429.409 146.606 L435.289 146.606 Q438.552 146.606 440.335 144.916 Q442.117 143.227 442.117 140.102 Q442.117 137 440.335 135.31 Q438.552 133.62 435.289 133.62 L429.409 133.62 M424.733 129.778 L435.289 129.778 Q441.099 129.778 444.062 132.416 Q447.048 135.032 447.048 140.102 Q447.048 145.217 444.062 147.833 Q441.099 150.449 435.289 150.449 L429.409 150.449 L429.409 164.338 L424.733 164.338 L424.733 129.778 Z" fill="#000000" fill-rule="nonzero" fill-opacity="1" /><path clip-path="url(#clip650)" d="M467.325 142.393 Q466.608 141.977 465.751 141.791 Q464.918 141.583 463.899 141.583 Q460.288 141.583 458.344 143.944 Q456.423 146.282 456.423 150.68 L456.423 164.338 L452.14 164.338 L452.14 138.412 L456.423 138.412 L456.423 142.44 Q457.765 140.078 459.918 138.944 Q462.071 137.787 465.149 137.787 Q465.589 137.787 466.122 137.856 Q466.654 137.903 467.302 138.018 L467.325 142.393 Z" fill="#000000" fill-rule="nonzero" fill-opacity="1" /><path clip-path="url(#clip650)" d="M492.927 150.31 L492.927 152.393 L473.344 152.393 Q473.622 156.791 475.983 159.106 Q478.367 161.398 482.603 161.398 Q485.057 161.398 487.348 160.796 Q489.663 160.194 491.932 158.99 L491.932 163.018 Q489.64 163.99 487.233 164.5 Q484.825 165.009 482.348 165.009 Q476.145 165.009 472.511 161.398 Q468.899 157.787 468.899 151.629 Q468.899 145.264 472.325 141.537 Q475.774 137.787 481.608 137.787 Q486.839 137.787 489.872 141.166 Q492.927 144.523 492.927 150.31 M488.668 149.06 Q488.622 145.565 486.7 143.481 Q484.802 141.398 481.654 141.398 Q478.089 141.398 475.936 143.412 Q473.807 145.426 473.483 149.083 L488.668 149.06 Z" fill="#000000" fill-rule="nonzero" fill-opacity="1" /><path clip-path="url(#clip650)" d="M516.978 142.347 L516.978 128.319 L521.237 128.319 L521.237 164.338 L516.978 164.338 L516.978 160.449 Q515.635 162.763 513.575 163.898 Q511.538 165.009 508.668 165.009 Q503.969 165.009 501.006 161.259 Q498.066 157.509 498.066 151.398 Q498.066 145.287 501.006 141.537 Q503.969 137.787 508.668 137.787 Q511.538 137.787 513.575 138.921 Q515.635 140.032 516.978 142.347 M502.464 151.398 Q502.464 156.097 504.385 158.782 Q506.33 161.444 509.709 161.444 Q513.089 161.444 515.033 158.782 Q516.978 156.097 516.978 151.398 Q516.978 146.699 515.033 144.037 Q513.089 141.352 509.709 141.352 Q506.33 141.352 504.385 144.037 Q502.464 146.699 502.464 151.398 Z" fill="#000000" fill-rule="nonzero" fill-opacity="1" /><path clip-path="url(#clip650)" d="M530.01 138.412 L534.269 138.412 L534.269 164.338 L530.01 164.338 L530.01 138.412 M530.01 128.319 L534.269 128.319 L534.269 133.713 L530.01 133.713 L530.01 128.319 Z" fill="#000000" fill-rule="nonzero" fill-opacity="1" /><path clip-path="url(#clip650)" d="M561.839 139.407 L561.839 143.389 Q560.033 142.393 558.205 141.907 Q556.399 141.398 554.547 141.398 Q550.404 141.398 548.112 144.037 Q545.82 146.652 545.82 151.398 Q545.82 156.143 548.112 158.782 Q550.404 161.398 554.547 161.398 Q556.399 161.398 558.205 160.912 Q560.033 160.402 561.839 159.407 L561.839 163.342 Q560.056 164.176 558.135 164.592 Q556.237 165.009 554.084 165.009 Q548.228 165.009 544.779 161.328 Q541.33 157.648 541.33 151.398 Q541.33 145.055 544.802 141.421 Q548.297 137.787 554.362 137.787 Q556.33 137.787 558.205 138.203 Q560.08 138.597 561.839 139.407 Z" fill="#000000" fill-rule="nonzero" fill-opacity="1" /><path clip-path="url(#clip650)" d="M573.459 131.051 L573.459 138.412 L582.232 138.412 L582.232 141.722 L573.459 141.722 L573.459 155.796 Q573.459 158.967 574.316 159.87 Q575.195 160.773 577.857 160.773 L582.232 160.773 L582.232 164.338 L577.857 164.338 Q572.927 164.338 571.052 162.509 Q569.177 160.657 569.177 155.796 L569.177 141.722 L566.052 141.722 L566.052 138.412 L569.177 138.412 L569.177 131.051 L573.459 131.051 Z" fill="#000000" fill-rule="nonzero" fill-opacity="1" /><path clip-path="url(#clip650)" d="M587.834 138.412 L592.093 138.412 L592.093 164.338 L587.834 164.338 L587.834 138.412 M587.834 128.319 L592.093 128.319 L592.093 133.713 L587.834 133.713 L587.834 128.319 Z" fill="#000000" fill-rule="nonzero" fill-opacity="1" /><path clip-path="url(#clip650)" d="M611.051 141.398 Q607.626 141.398 605.635 144.083 Q603.644 146.745 603.644 151.398 Q603.644 156.051 605.612 158.736 Q607.602 161.398 611.051 161.398 Q614.454 161.398 616.445 158.713 Q618.436 156.027 618.436 151.398 Q618.436 146.791 616.445 144.106 Q614.454 141.398 611.051 141.398 M611.051 137.787 Q616.607 137.787 619.778 141.398 Q622.95 145.009 622.95 151.398 Q622.95 157.764 619.778 161.398 Q616.607 165.009 611.051 165.009 Q605.473 165.009 602.302 161.398 Q599.153 157.764 599.153 151.398 Q599.153 145.009 602.302 141.398 Q605.473 137.787 611.051 137.787 Z" fill="#000000" fill-rule="nonzero" fill-opacity="1" /><path clip-path="url(#clip650)" d="M651.561 148.689 L651.561 164.338 L647.301 164.338 L647.301 148.828 Q647.301 145.148 645.866 143.319 Q644.431 141.49 641.561 141.49 Q638.112 141.49 636.121 143.69 Q634.13 145.889 634.13 149.685 L634.13 164.338 L629.848 164.338 L629.848 138.412 L634.13 138.412 L634.13 142.44 Q635.658 140.102 637.718 138.944 Q639.801 137.787 642.51 137.787 Q646.977 137.787 649.269 140.565 Q651.561 143.319 651.561 148.689 Z" fill="#000000" fill-rule="nonzero" fill-opacity="1" /><polyline clip-path="url(#clip650)" style="stroke:#e26f46; stroke-linecap:round; stroke-linejoin:round; stroke-width:4; stroke-opacity:1; fill:none" points="253.896,198.898 400.328,198.898 "/>
<path clip-path="url(#clip650)" d="M424.733 181.618 L446.585 181.618 L446.585 185.553 L429.409 185.553 L429.409 195.784 L445.867 195.784 L445.867 199.719 L429.409 199.719 L429.409 212.242 L447.001 212.242 L447.001 216.178 L424.733 216.178 L424.733 181.618 Z" fill="#000000" fill-rule="nonzero" fill-opacity="1" /><path clip-path="url(#clip650)" d="M476.052 190.252 L466.677 202.867 L476.538 216.178 L471.515 216.178 L463.969 205.992 L456.423 216.178 L451.4 216.178 L461.469 202.613 L452.256 190.252 L457.279 190.252 L464.154 199.488 L471.029 190.252 L476.052 190.252 Z" fill="#000000" fill-rule="nonzero" fill-opacity="1" /><path clip-path="url(#clip650)" d="M494.339 203.145 Q489.177 203.145 487.186 204.326 Q485.196 205.506 485.196 208.354 Q485.196 210.622 486.677 211.965 Q488.182 213.284 490.751 213.284 Q494.293 213.284 496.422 210.784 Q498.575 208.261 498.575 204.094 L498.575 203.145 L494.339 203.145 M502.834 201.386 L502.834 216.178 L498.575 216.178 L498.575 212.242 Q497.117 214.603 494.941 215.738 Q492.765 216.849 489.617 216.849 Q485.635 216.849 483.274 214.627 Q480.936 212.381 480.936 208.631 Q480.936 204.256 483.853 202.034 Q486.793 199.812 492.603 199.812 L498.575 199.812 L498.575 199.395 Q498.575 196.455 496.631 194.858 Q494.71 193.238 491.214 193.238 Q488.992 193.238 486.885 193.77 Q484.779 194.303 482.835 195.367 L482.835 191.432 Q485.173 190.53 487.372 190.09 Q489.571 189.627 491.654 189.627 Q497.279 189.627 500.057 192.543 Q502.834 195.46 502.834 201.386 Z" fill="#000000" fill-rule="nonzero" fill-opacity="1" /><path clip-path="url(#clip650)" d="M530.265 191.247 L530.265 195.229 Q528.459 194.233 526.631 193.747 Q524.825 193.238 522.973 193.238 Q518.83 193.238 516.538 195.877 Q514.246 198.492 514.246 203.238 Q514.246 207.983 516.538 210.622 Q518.83 213.238 522.973 213.238 Q524.825 213.238 526.631 212.752 Q528.459 212.242 530.265 211.247 L530.265 215.182 Q528.482 216.016 526.561 216.432 Q524.663 216.849 522.51 216.849 Q516.654 216.849 513.205 213.168 Q509.756 209.488 509.756 203.238 Q509.756 196.895 513.228 193.261 Q516.723 189.627 522.788 189.627 Q524.756 189.627 526.631 190.043 Q528.506 190.437 530.265 191.247 Z" fill="#000000" fill-rule="nonzero" fill-opacity="1" /><path clip-path="url(#clip650)" d="M541.885 182.891 L541.885 190.252 L550.658 190.252 L550.658 193.562 L541.885 193.562 L541.885 207.636 Q541.885 210.807 542.742 211.71 Q543.621 212.613 546.283 212.613 L550.658 212.613 L550.658 216.178 L546.283 216.178 Q541.353 216.178 539.478 214.349 Q537.603 212.497 537.603 207.636 L537.603 193.562 L534.478 193.562 L534.478 190.252 L537.603 190.252 L537.603 182.891 L541.885 182.891 Z" fill="#000000" fill-rule="nonzero" fill-opacity="1" /></svg>
