<?xml version="1.0" encoding="utf-8"?>
<svg xmlns="http://www.w3.org/2000/svg" xmlns:xlink="http://www.w3.org/1999/xlink" width="600" height="400" viewBox="0 0 2400 1600">
<defs>
  <clipPath id="clip760">
    <rect x="0" y="0" width="2400" height="1600"/>
  </clipPath>
</defs>
<path clip-path="url(#clip760)" d="M0 1600 L2400 1600 L2400 0 L0 0  Z" fill="#ffffff" fill-rule="evenodd" fill-opacity="1"/>
<defs>
  <clipPath id="clip761">
    <rect x="480" y="0" width="1681" height="1600"/>
  </clipPath>
</defs>
<path clip-path="url(#clip760)" d="M156.274 1486.45 L2352.76 1486.45 L2352.76 47.2441 L156.274 47.2441  Z" fill="#ffffff" fill-rule="evenodd" fill-opacity="1"/>
<defs>
  <clipPath id="clip762">
    <rect x="156" y="47" width="2197" height="1440"/>
  </clipPath>
</defs>
<polyline clip-path="url(#clip762)" style="stroke:#000000; stroke-linecap:round; stroke-linejoin:round; stroke-width:2; stroke-opacity:0.1; fill:none" points="218.439,1486.45 218.439,47.2441 "/>
<polyline clip-path="url(#clip762)" style="stroke:#000000; stroke-linecap:round; stroke-linejoin:round; stroke-width:2; stroke-opacity:0.1; fill:none" points="736.477,1486.45 736.477,47.2441 "/>
<polyline clip-path="url(#clip762)" style="stroke:#000000; stroke-linecap:round; stroke-linejoin:round; stroke-width:2; stroke-opacity:0.1; fill:none" points="1254.52,1486.45 1254.52,47.2441 "/>
<polyline clip-path="url(#clip762)" style="stroke:#000000; stroke-linecap:round; stroke-linejoin:round; stroke-width:2; stroke-opacity:0.1; fill:none" points="1772.55,1486.45 1772.55,47.2441 "/>
<polyline clip-path="url(#clip762)" style="stroke:#000000; stroke-linecap:round; stroke-linejoin:round; stroke-width:2; stroke-opacity:0.1; fill:none" points="2290.59,1486.45 2290.59,47.2441 "/>
<polyline clip-path="url(#clip760)" style="stroke:#000000; stroke-linecap:round; stroke-linejoin:round; stroke-width:4; stroke-opacity:1; fill:none" points="156.274,1486.45 2352.76,1486.45 "/>
<polyline clip-path="url(#clip760)" style="stroke:#000000; stroke-linecap:round; stroke-linejoin:round; stroke-width:4; stroke-opacity:1; fill:none" points="218.439,1486.45 218.439,1467.55 "/>
<polyline clip-path="url(#clip760)" style="stroke:#000000; stroke-linecap:round; stroke-linejoin:round; stroke-width:4; stroke-opacity:1; fill:none" points="736.477,1486.45 736.477,1467.55 "/>
<polyline clip-path="url(#clip760)" style="stroke:#000000; stroke-linecap:round; stroke-linejoin:round; stroke-width:4; stroke-opacity:1; fill:none" points="1254.52,1486.45 1254.52,1467.55 "/>
<polyline clip-path="url(#clip760)" style="stroke:#000000; stroke-linecap:round; stroke-linejoin:round; stroke-width:4; stroke-opacity:1; fill:none" points="1772.55,1486.45 1772.55,1467.55 "/>
<polyline clip-path="url(#clip760)" style="stroke:#000000; stroke-linecap:round; stroke-linejoin:round; stroke-width:4; stroke-opacity:1; fill:none" points="2290.59,1486.45 2290.59,1467.55 "/>
<path clip-path="url(#clip760)" d="M164.967 1532.02 L194.643 1532.02 L194.643 1535.95 L164.967 1535.95 L164.967 1532.02 Z" fill="#000000" fill-rule="nonzero" fill-opacity="1" /><path clip-path="url(#clip760)" d="M205.545 1544.91 L213.184 1544.91 L213.184 1518.55 L204.874 1520.21 L204.874 1515.95 L213.138 1514.29 L217.814 1514.29 L217.814 1544.91 L225.453 1544.91 L225.453 1548.85 L205.545 1548.85 L205.545 1544.91 Z" fill="#000000" fill-rule="nonzero" fill-opacity="1" /><path clip-path="url(#clip760)" d="M234.897 1542.97 L239.781 1542.97 L239.781 1548.85 L234.897 1548.85 L234.897 1542.97 Z" fill="#000000" fill-rule="nonzero" fill-opacity="1" /><path clip-path="url(#clip760)" d="M259.966 1517.37 Q256.355 1517.37 254.527 1520.93 Q252.721 1524.47 252.721 1531.6 Q252.721 1538.71 254.527 1542.27 Q256.355 1545.82 259.966 1545.82 Q263.601 1545.82 265.406 1542.27 Q267.235 1538.71 267.235 1531.6 Q267.235 1524.47 265.406 1520.93 Q263.601 1517.37 259.966 1517.37 M259.966 1513.66 Q265.776 1513.66 268.832 1518.27 Q271.911 1522.85 271.911 1531.6 Q271.911 1540.33 268.832 1544.94 Q265.776 1549.52 259.966 1549.52 Q254.156 1549.52 251.077 1544.94 Q248.022 1540.33 248.022 1531.6 Q248.022 1522.85 251.077 1518.27 Q254.156 1513.66 259.966 1513.66 Z" fill="#000000" fill-rule="nonzero" fill-opacity="1" /><path clip-path="url(#clip760)" d="M683.503 1532.02 L713.178 1532.02 L713.178 1535.95 L683.503 1535.95 L683.503 1532.02 Z" fill="#000000" fill-rule="nonzero" fill-opacity="1" /><path clip-path="url(#clip760)" d="M733.271 1517.37 Q729.66 1517.37 727.831 1520.93 Q726.026 1524.47 726.026 1531.6 Q726.026 1538.71 727.831 1542.27 Q729.66 1545.82 733.271 1545.82 Q736.905 1545.82 738.711 1542.27 Q740.539 1538.71 740.539 1531.6 Q740.539 1524.47 738.711 1520.93 Q736.905 1517.37 733.271 1517.37 M733.271 1513.66 Q739.081 1513.66 742.137 1518.27 Q745.215 1522.85 745.215 1531.6 Q745.215 1540.33 742.137 1544.94 Q739.081 1549.52 733.271 1549.52 Q727.461 1549.52 724.382 1544.94 Q721.327 1540.33 721.327 1531.6 Q721.327 1522.85 724.382 1518.27 Q727.461 1513.66 733.271 1513.66 Z" fill="#000000" fill-rule="nonzero" fill-opacity="1" /><path clip-path="url(#clip760)" d="M753.433 1542.97 L758.317 1542.97 L758.317 1548.85 L753.433 1548.85 L753.433 1542.97 Z" fill="#000000" fill-rule="nonzero" fill-opacity="1" /><path clip-path="url(#clip760)" d="M768.548 1514.29 L786.905 1514.29 L786.905 1518.22 L772.831 1518.22 L772.831 1526.7 Q773.849 1526.35 774.868 1526.19 Q775.886 1526 776.905 1526 Q782.692 1526 786.072 1529.17 Q789.451 1532.34 789.451 1537.76 Q789.451 1543.34 785.979 1546.44 Q782.507 1549.52 776.187 1549.52 Q774.011 1549.52 771.743 1549.15 Q769.498 1548.78 767.09 1548.04 L767.09 1543.34 Q769.173 1544.47 771.396 1545.03 Q773.618 1545.58 776.095 1545.58 Q780.099 1545.58 782.437 1543.48 Q784.775 1541.37 784.775 1537.76 Q784.775 1534.15 782.437 1532.04 Q780.099 1529.94 776.095 1529.94 Q774.22 1529.94 772.345 1530.35 Q770.493 1530.77 768.548 1531.65 L768.548 1514.29 Z" fill="#000000" fill-rule="nonzero" fill-opacity="1" /><path clip-path="url(#clip760)" d="M1231.9 1517.37 Q1228.29 1517.37 1226.46 1520.93 Q1224.65 1524.47 1224.65 1531.6 Q1224.65 1538.71 1226.46 1542.27 Q1228.29 1545.82 1231.9 1545.82 Q1235.53 1545.82 1237.34 1542.27 Q1239.17 1538.71 1239.17 1531.6 Q1239.17 1524.47 1237.34 1520.93 Q1235.53 1517.37 1231.9 1517.37 M1231.9 1513.66 Q1237.71 1513.66 1240.77 1518.27 Q1243.84 1522.85 1243.84 1531.6 Q1243.84 1540.33 1240.77 1544.94 Q1237.71 1549.52 1231.9 1549.52 Q1226.09 1549.52 1223.01 1544.94 Q1219.96 1540.33 1219.96 1531.6 Q1219.96 1522.85 1223.01 1518.27 Q1226.09 1513.66 1231.9 1513.66 Z" fill="#000000" fill-rule="nonzero" fill-opacity="1" /><path clip-path="url(#clip760)" d="M1252.06 1542.97 L1256.95 1542.97 L1256.95 1548.85 L1252.06 1548.85 L1252.06 1542.97 Z" fill="#000000" fill-rule="nonzero" fill-opacity="1" /><path clip-path="url(#clip760)" d="M1277.13 1517.37 Q1273.52 1517.37 1271.69 1520.93 Q1269.89 1524.47 1269.89 1531.6 Q1269.89 1538.71 1271.69 1542.27 Q1273.52 1545.82 1277.13 1545.82 Q1280.76 1545.82 1282.57 1542.27 Q1284.4 1538.71 1284.4 1531.6 Q1284.4 1524.47 1282.57 1520.93 Q1280.76 1517.37 1277.13 1517.37 M1277.13 1513.66 Q1282.94 1513.66 1286 1518.27 Q1289.08 1522.85 1289.08 1531.6 Q1289.08 1540.33 1286 1544.94 Q1282.94 1549.52 1277.13 1549.52 Q1271.32 1549.52 1268.24 1544.94 Q1265.19 1540.33 1265.19 1531.6 Q1265.19 1522.85 1268.24 1518.27 Q1271.32 1513.66 1277.13 1513.66 Z" fill="#000000" fill-rule="nonzero" fill-opacity="1" /><path clip-path="url(#clip760)" d="M1750.44 1517.37 Q1746.82 1517.37 1745 1520.93 Q1743.19 1524.47 1743.19 1531.6 Q1743.19 1538.71 1745 1542.27 Q1746.82 1545.82 1750.44 1545.82 Q1754.07 1545.82 1755.88 1542.27 Q1757.7 1538.71 1757.7 1531.6 Q1757.7 1524.47 1755.88 1520.93 Q1754.07 1517.37 1750.44 1517.37 M1750.44 1513.66 Q1756.25 1513.66 1759.3 1518.27 Q1762.38 1522.85 1762.38 1531.6 Q1762.38 1540.33 1759.3 1544.94 Q1756.25 1549.52 1750.44 1549.52 Q1744.63 1549.52 1741.55 1544.94 Q1738.49 1540.33 1738.49 1531.6 Q1738.49 1522.85 1741.55 1518.27 Q1744.63 1513.66 1750.44 1513.66 Z" fill="#000000" fill-rule="nonzero" fill-opacity="1" /><path clip-path="url(#clip760)" d="M1770.6 1542.97 L1775.48 1542.97 L1775.48 1548.85 L1770.6 1548.85 L1770.6 1542.97 Z" fill="#000000" fill-rule="nonzero" fill-opacity="1" /><path clip-path="url(#clip760)" d="M1785.71 1514.29 L1804.07 1514.29 L1804.07 1518.22 L1790 1518.22 L1790 1526.7 Q1791.01 1526.35 1792.03 1526.19 Q1793.05 1526 1794.07 1526 Q1799.86 1526 1803.24 1529.17 Q1806.62 1532.34 1806.62 1537.76 Q1806.62 1543.34 1803.14 1546.44 Q1799.67 1549.52 1793.35 1549.52 Q1791.18 1549.52 1788.91 1549.15 Q1786.66 1548.78 1784.25 1548.04 L1784.25 1543.34 Q1786.34 1544.47 1788.56 1545.03 Q1790.78 1545.58 1793.26 1545.58 Q1797.26 1545.58 1799.6 1543.48 Q1801.94 1541.37 1801.94 1537.76 Q1801.94 1534.15 1799.6 1532.04 Q1797.26 1529.94 1793.26 1529.94 Q1791.38 1529.94 1789.51 1530.35 Q1787.66 1530.77 1785.71 1531.65 L1785.71 1514.29 Z" fill="#000000" fill-rule="nonzero" fill-opacity="1" /><path clip-path="url(#clip760)" d="M2257.74 1544.91 L2265.38 1544.91 L2265.38 1518.55 L2257.07 1520.21 L2257.07 1515.95 L2265.34 1514.29 L2270.01 1514.29 L2270.01 1544.91 L2277.65 1544.91 L2277.65 1548.85 L2257.74 1548.85 L2257.74 1544.91 Z" fill="#000000" fill-rule="nonzero" fill-opacity="1" /><path clip-path="url(#clip760)" d="M2287.1 1542.97 L2291.98 1542.97 L2291.98 1548.85 L2287.1 1548.85 L2287.1 1542.97 Z" fill="#000000" fill-rule="nonzero" fill-opacity="1" /><path clip-path="url(#clip760)" d="M2312.17 1517.37 Q2308.55 1517.37 2306.73 1520.93 Q2304.92 1524.47 2304.92 1531.6 Q2304.92 1538.71 2306.73 1542.27 Q2308.55 1545.82 2312.17 1545.82 Q2315.8 1545.82 2317.61 1542.27 Q2319.43 1538.71 2319.43 1531.6 Q2319.43 1524.47 2317.61 1520.93 Q2315.8 1517.37 2312.17 1517.37 M2312.17 1513.66 Q2317.98 1513.66 2321.03 1518.27 Q2324.11 1522.85 2324.11 1531.6 Q2324.11 1540.33 2321.03 1544.94 Q2317.98 1549.52 2312.17 1549.52 Q2306.36 1549.52 2303.28 1544.94 Q2300.22 1540.33 2300.22 1531.6 Q2300.22 1522.85 2303.28 1518.27 Q2306.36 1513.66 2312.17 1513.66 Z" fill="#000000" fill-rule="nonzero" fill-opacity="1" /><polyline clip-path="url(#clip762)" style="stroke:#000000; stroke-linecap:round; stroke-linejoin:round; stroke-width:2; stroke-opacity:0.1; fill:none" points="156.274,1248.57 2352.76,1248.57 "/>
<polyline clip-path="url(#clip762)" style="stroke:#000000; stroke-linecap:round; stroke-linejoin:round; stroke-width:2; stroke-opacity:0.1; fill:none" points="156.274,976.197 2352.76,976.197 "/>
<polyline clip-path="url(#clip762)" style="stroke:#000000; stroke-linecap:round; stroke-linejoin:round; stroke-width:2; stroke-opacity:0.1; fill:none" points="156.274,703.825 2352.76,703.825 "/>
<polyline clip-path="url(#clip762)" style="stroke:#000000; stroke-linecap:round; stroke-linejoin:round; stroke-width:2; stroke-opacity:0.1; fill:none" points="156.274,431.452 2352.76,431.452 "/>
<polyline clip-path="url(#clip762)" style="stroke:#000000; stroke-linecap:round; stroke-linejoin:round; stroke-width:2; stroke-opacity:0.1; fill:none" points="156.274,159.079 2352.76,159.079 "/>
<polyline clip-path="url(#clip760)" style="stroke:#000000; stroke-linecap:round; stroke-linejoin:round; stroke-width:4; stroke-opacity:1; fill:none" points="156.274,1486.45 156.274,47.2441 "/>
<polyline clip-path="url(#clip760)" style="stroke:#000000; stroke-linecap:round; stroke-linejoin:round; stroke-width:4; stroke-opacity:1; fill:none" points="156.274,1248.57 175.172,1248.57 "/>
<polyline clip-path="url(#clip760)" style="stroke:#000000; stroke-linecap:round; stroke-linejoin:round; stroke-width:4; stroke-opacity:1; fill:none" points="156.274,976.197 175.172,976.197 "/>
<polyline clip-path="url(#clip760)" style="stroke:#000000; stroke-linecap:round; stroke-linejoin:round; stroke-width:4; stroke-opacity:1; fill:none" points="156.274,703.825 175.172,703.825 "/>
<polyline clip-path="url(#clip760)" style="stroke:#000000; stroke-linecap:round; stroke-linejoin:round; stroke-width:4; stroke-opacity:1; fill:none" points="156.274,431.452 175.172,431.452 "/>
<polyline clip-path="url(#clip760)" style="stroke:#000000; stroke-linecap:round; stroke-linejoin:round; stroke-width:4; stroke-opacity:1; fill:none" points="156.274,159.079 175.172,159.079 "/>
<path clip-path="url(#clip760)" d="M63.0985 1234.37 Q59.4875 1234.37 57.6588 1237.93 Q55.8532 1241.48 55.8532 1248.6 Q55.8532 1255.71 57.6588 1259.28 Q59.4875 1262.82 63.0985 1262.82 Q66.7328 1262.82 68.5383 1259.28 Q70.367 1255.71 70.367 1248.6 Q70.367 1241.48 68.5383 1237.93 Q66.7328 1234.37 63.0985 1234.37 M63.0985 1230.66 Q68.9087 1230.66 71.9642 1235.27 Q75.0429 1239.85 75.0429 1248.6 Q75.0429 1257.33 71.9642 1261.94 Q68.9087 1266.52 63.0985 1266.52 Q57.2884 1266.52 54.2097 1261.94 Q51.1542 1257.33 51.1542 1248.6 Q51.1542 1239.85 54.2097 1235.27 Q57.2884 1230.66 63.0985 1230.66 Z" fill="#000000" fill-rule="nonzero" fill-opacity="1" /><path clip-path="url(#clip760)" d="M83.2605 1259.97 L88.1447 1259.97 L88.1447 1265.85 L83.2605 1265.85 L83.2605 1259.97 Z" fill="#000000" fill-rule="nonzero" fill-opacity="1" /><path clip-path="url(#clip760)" d="M108.33 1234.37 Q104.719 1234.37 102.89 1237.93 Q101.084 1241.48 101.084 1248.6 Q101.084 1255.71 102.89 1259.28 Q104.719 1262.82 108.33 1262.82 Q111.964 1262.82 113.77 1259.28 Q115.598 1255.71 115.598 1248.6 Q115.598 1241.48 113.77 1237.93 Q111.964 1234.37 108.33 1234.37 M108.33 1230.66 Q114.14 1230.66 117.195 1235.27 Q120.274 1239.85 120.274 1248.6 Q120.274 1257.33 117.195 1261.94 Q114.14 1266.52 108.33 1266.52 Q102.52 1266.52 99.4409 1261.94 Q96.3854 1257.33 96.3854 1248.6 Q96.3854 1239.85 99.4409 1235.27 Q102.52 1230.66 108.33 1230.66 Z" fill="#000000" fill-rule="nonzero" fill-opacity="1" /><path clip-path="url(#clip760)" d="M63.7467 961.996 Q60.1356 961.996 58.3069 965.561 Q56.5014 969.102 56.5014 976.232 Q56.5014 983.338 58.3069 986.903 Q60.1356 990.445 63.7467 990.445 Q67.3809 990.445 69.1865 986.903 Q71.0152 983.338 71.0152 976.232 Q71.0152 969.102 69.1865 965.561 Q67.3809 961.996 63.7467 961.996 M63.7467 958.292 Q69.5568 958.292 72.6124 962.899 Q75.6911 967.482 75.6911 976.232 Q75.6911 984.959 72.6124 989.565 Q69.5568 994.149 63.7467 994.149 Q57.9365 994.149 54.8578 989.565 Q51.8023 984.959 51.8023 976.232 Q51.8023 967.482 54.8578 962.899 Q57.9365 958.292 63.7467 958.292 Z" fill="#000000" fill-rule="nonzero" fill-opacity="1" /><path clip-path="url(#clip760)" d="M83.9086 987.598 L88.7928 987.598 L88.7928 993.477 L83.9086 993.477 L83.9086 987.598 Z" fill="#000000" fill-rule="nonzero" fill-opacity="1" /><path clip-path="url(#clip760)" d="M113.145 974.843 Q116.501 975.561 118.376 977.829 Q120.274 980.098 120.274 983.431 Q120.274 988.547 116.756 991.348 Q113.237 994.149 106.756 994.149 Q104.58 994.149 102.265 993.709 Q99.9733 993.292 97.5197 992.436 L97.5197 987.922 Q99.4641 989.056 101.779 989.635 Q104.094 990.213 106.617 990.213 Q111.015 990.213 113.307 988.477 Q115.621 986.741 115.621 983.431 Q115.621 980.375 113.469 978.663 Q111.339 976.926 107.52 976.926 L103.492 976.926 L103.492 973.084 L107.705 973.084 Q111.154 973.084 112.983 971.718 Q114.811 970.329 114.811 967.737 Q114.811 965.075 112.913 963.663 Q111.038 962.227 107.52 962.227 Q105.598 962.227 103.399 962.644 Q101.2 963.061 98.5613 963.94 L98.5613 959.774 Q101.223 959.033 103.538 958.663 Q105.876 958.292 107.936 958.292 Q113.26 958.292 116.362 960.723 Q119.464 963.13 119.464 967.251 Q119.464 970.121 117.82 972.112 Q116.177 974.079 113.145 974.843 Z" fill="#000000" fill-rule="nonzero" fill-opacity="1" /><path clip-path="url(#clip760)" d="M62.9365 689.623 Q59.3254 689.623 57.4967 693.188 Q55.6912 696.73 55.6912 703.859 Q55.6912 710.966 57.4967 714.53 Q59.3254 718.072 62.9365 718.072 Q66.5707 718.072 68.3763 714.53 Q70.205 710.966 70.205 703.859 Q70.205 696.73 68.3763 693.188 Q66.5707 689.623 62.9365 689.623 M62.9365 685.92 Q68.7467 685.92 71.8022 690.526 Q74.8809 695.109 74.8809 703.859 Q74.8809 712.586 71.8022 717.193 Q68.7467 721.776 62.9365 721.776 Q57.1264 721.776 54.0477 717.193 Q50.9921 712.586 50.9921 703.859 Q50.9921 695.109 54.0477 690.526 Q57.1264 685.92 62.9365 685.92 Z" fill="#000000" fill-rule="nonzero" fill-opacity="1" /><path clip-path="url(#clip760)" d="M83.0984 715.225 L87.9827 715.225 L87.9827 721.105 L83.0984 721.105 L83.0984 715.225 Z" fill="#000000" fill-rule="nonzero" fill-opacity="1" /><path clip-path="url(#clip760)" d="M108.746 701.961 Q105.598 701.961 103.746 704.114 Q101.918 706.267 101.918 710.017 Q101.918 713.743 103.746 715.919 Q105.598 718.072 108.746 718.072 Q111.895 718.072 113.723 715.919 Q115.575 713.743 115.575 710.017 Q115.575 706.267 113.723 704.114 Q111.895 701.961 108.746 701.961 M118.029 687.308 L118.029 691.568 Q116.27 690.734 114.464 690.295 Q112.682 689.855 110.922 689.855 Q106.293 689.855 103.839 692.98 Q101.409 696.105 101.061 702.424 Q102.427 700.41 104.487 699.345 Q106.547 698.257 109.024 698.257 Q114.233 698.257 117.242 701.429 Q120.274 704.577 120.274 710.017 Q120.274 715.341 117.126 718.558 Q113.978 721.776 108.746 721.776 Q102.751 721.776 99.5798 717.193 Q96.4085 712.586 96.4085 703.859 Q96.4085 695.665 100.297 690.804 Q104.186 685.92 110.737 685.92 Q112.496 685.92 114.279 686.267 Q116.084 686.614 118.029 687.308 Z" fill="#000000" fill-rule="nonzero" fill-opacity="1" /><path clip-path="url(#clip760)" d="M63.2837 417.251 Q59.6726 417.251 57.8439 420.815 Q56.0384 424.357 56.0384 431.487 Q56.0384 438.593 57.8439 442.158 Q59.6726 445.699 63.2837 445.699 Q66.918 445.699 68.7235 442.158 Q70.5522 438.593 70.5522 431.487 Q70.5522 424.357 68.7235 420.815 Q66.918 417.251 63.2837 417.251 M63.2837 413.547 Q69.0939 413.547 72.1494 418.153 Q75.2281 422.737 75.2281 431.487 Q75.2281 440.213 72.1494 444.82 Q69.0939 449.403 63.2837 449.403 Q57.4736 449.403 54.3949 444.82 Q51.3393 440.213 51.3393 431.487 Q51.3393 422.737 54.3949 418.153 Q57.4736 413.547 63.2837 413.547 Z" fill="#000000" fill-rule="nonzero" fill-opacity="1" /><path clip-path="url(#clip760)" d="M83.4457 442.852 L88.3299 442.852 L88.3299 448.732 L83.4457 448.732 L83.4457 442.852 Z" fill="#000000" fill-rule="nonzero" fill-opacity="1" /><path clip-path="url(#clip760)" d="M98.6539 448.014 L98.6539 443.755 Q100.413 444.588 102.219 445.028 Q104.024 445.468 105.76 445.468 Q110.39 445.468 112.82 442.366 Q115.274 439.241 115.621 432.899 Q114.279 434.889 112.219 435.954 Q110.158 437.019 107.658 437.019 Q102.473 437.019 99.4409 433.894 Q96.4317 430.746 96.4317 425.306 Q96.4317 419.982 99.5798 416.764 Q102.728 413.547 107.959 413.547 Q113.955 413.547 117.103 418.153 Q120.274 422.737 120.274 431.487 Q120.274 439.658 116.385 444.542 Q112.52 449.403 105.969 449.403 Q104.209 449.403 102.404 449.056 Q100.598 448.709 98.6539 448.014 M107.959 433.362 Q111.108 433.362 112.936 431.209 Q114.788 429.056 114.788 425.306 Q114.788 421.579 112.936 419.426 Q111.108 417.251 107.959 417.251 Q104.811 417.251 102.959 419.426 Q101.131 421.579 101.131 425.306 Q101.131 429.056 102.959 431.209 Q104.811 433.362 107.959 433.362 Z" fill="#000000" fill-rule="nonzero" fill-opacity="1" /><path clip-path="url(#clip760)" d="M55.506 172.424 L63.1448 172.424 L63.1448 146.058 L54.8347 147.725 L54.8347 143.466 L63.0985 141.799 L67.7744 141.799 L67.7744 172.424 L75.4133 172.424 L75.4133 176.359 L55.506 176.359 L55.506 172.424 Z" fill="#000000" fill-rule="nonzero" fill-opacity="1" /><path clip-path="url(#clip760)" d="M84.8577 170.48 L89.7419 170.48 L89.7419 176.359 L84.8577 176.359 L84.8577 170.48 Z" fill="#000000" fill-rule="nonzero" fill-opacity="1" /><path clip-path="url(#clip760)" d="M103.955 172.424 L120.274 172.424 L120.274 176.359 L98.3298 176.359 L98.3298 172.424 Q100.992 169.669 105.575 165.04 Q110.182 160.387 111.362 159.044 Q113.608 156.521 114.487 154.785 Q115.39 153.026 115.39 151.336 Q115.39 148.581 113.445 146.845 Q111.524 145.109 108.422 145.109 Q106.223 145.109 103.77 145.873 Q101.339 146.637 98.5613 148.188 L98.5613 143.466 Q101.385 142.332 103.839 141.753 Q106.293 141.174 108.33 141.174 Q113.7 141.174 116.895 143.859 Q120.089 146.544 120.089 151.035 Q120.089 153.165 119.279 155.086 Q118.492 156.984 116.385 159.577 Q115.807 160.248 112.705 163.466 Q109.603 166.66 103.955 172.424 Z" fill="#000000" fill-rule="nonzero" fill-opacity="1" /><polyline clip-path="url(#clip762)" style="stroke:#009af9; stroke-linecap:round; stroke-linejoin:round; stroke-width:16; stroke-opacity:1; fill:none" stroke-dasharray="8, 16" points="218.439,1112.16 228.852,1080.96 239.264,1060.69 249.677,1058.25 260.09,1066.41 270.503,1075.84 280.916,1084.62 291.329,1095.79 301.741,1112.86 312.154,1136.84 322.567,1165.85 332.98,1196.8 343.393,1227.33 353.805,1256.98 364.218,1286.96 374.631,1318.3 385.044,1349.89 395.457,1378.65 405.87,1401.65 416.282,1417.61 426.695,1426.75 437.108,1429.83 447.521,1427.48 457.934,1420.07 468.347,1407.8 478.759,1390.85 489.172,1369.45 499.585,1344.02 509.998,1315.19 520.411,1283.79 530.824,1250.85 541.236,1217.51 551.649,1185 562.062,1154.55 572.475,1127.44 582.888,1104.89 593.301,1087.89 603.713,1076.89 614.126,1071.54 624.539,1070.84 634.952,1073.82 645.365,1080.51 655.777,1092.56 666.19,1112.24 676.603,1140.16 687.016,1174.07 697.429,1209.94 707.842,1243.82 718.254,1273.22 728.667,1298.24 739.08,1321.79 749.493,1347.64 759.906,1376.5 770.319,1404.16 780.731,1424.61 791.144,1434.52 801.557,1434.37 811.97,1427 822.383,1415.43 832.796,1401.19 843.208,1384.04 853.621,1363.2 864.034,1339.15 874.447,1312.77 884.86,1281.53 895.273,1240.66 905.685,1191.57 916.098,1148.64 926.511,1127.63 936.924,1121.96 947.337,1113.8 957.749,1097.36 968.162,1078.91 978.575,1067.83 988.988,1067.7 999.401,1073.39 1009.81,1080.41 1020.23,1100.11 1030.64,1157.39 1041.05,1228.59 1051.46,1246.32 1061.88,1220.53 1072.29,1246.32 1082.7,1313.74 1093.12,1342.84 1103.53,1344.17 1113.94,1359.79 1124.35,1382.35 1134.77,1394.9 1145.18,1414.4 1155.59,1438.32 1166.01,1445.72 1176.42,1424.59 1186.83,1408.23 1197.24,1415.05 1207.66,1412.9 1218.07,1391.48 1228.48,1340.53 1238.9,1283.24 1249.31,1123.12 1259.72,729.396 1270.13,398.932 1280.55,318.104 1290.96,324.774 1301.37,357.376 1311.79,362.499 1322.2,355.875 1332.61,367.11 1343.02,375.798 1353.44,351.047 1363.85,303.344 1374.26,250.557 1384.68,227.629 1395.09,300.7 1405.5,331.056 1415.91,297.18 1426.33,326.283 1436.74,367.878 1447.15,386.334 1457.57,376.032 1467.98,347.571 1478.39,316.069 1488.8,279.447 1499.22,257.35 1509.63,270.651 1520.04,310.595 1530.45,358.95 1540.87,395.785 1551.28,410.472 1561.69,408.636 1572.11,396.625 1582.52,372.142 1592.93,332.661 1603.34,284.652 1613.76,247.243 1624.17,244.793 1634.58,281.984 1645,337.893 1655.41,389.384 1665.82,424.668 1676.23,439.217 1686.65,429.906 1697.06,395.053 1707.47,339.699 1717.89,278.633 1728.3,231.304 1738.71,214.385 1749.12,237.153 1759.54,295.33 1769.95,368.816 1780.36,432.25 1790.78,467.481 1801.19,467.489 1811.6,434.389 1822.01,376.431 1832.43,306.247 1842.84,240.266 1853.25,197.131 1863.67,192.493 1874.08,232.172 1884.49,309.932 1894.9,406.745 1905.32,483.803 1915.73,500.367 1926.14,461.886 1936.56,400.032 1946.97,332.111 1957.38,264.688 1967.79,206.549 1978.21,173.667 1988.62,185.065 1999.03,248.977 2009.45,348.95 2019.86,451.207 2030.27,524.552 2040.68,547.205 2051.1,508.246 2061.51,416.573 2071.92,301.054 2082.33,193.914 2092.75,122.907 2103.16,112.769 2113.57,175.162 2123.99,288.634 2134.4,410.629 2144.81,508.885 2155.22,565.184 2165.64,567.195 2176.05,506.498 2186.46,386.443 2196.88,240.713 2207.29,136.884 2217.7,119.264 2228.11,169.226 2238.53,249.551 2248.94,335.233 2259.35,413.471 2269.77,478.713 2280.18,529.486 2290.59,566.549 "/>
<polyline clip-path="url(#clip762)" style="stroke:#e26f46; stroke-linecap:round; stroke-linejoin:round; stroke-width:4; stroke-opacity:1; fill:none" points="218.439,1112.2 228.852,1092.86 239.264,1078.59 249.677,1069.87 260.09,1066.99 270.503,1070.03 280.916,1078.9 291.329,1093.3 301.741,1112.78 312.154,1136.68 322.567,1164.24 332.98,1194.55 343.393,1226.62 353.805,1259.41 364.218,1291.84 374.631,1322.87 385.044,1351.46 395.457,1376.7 405.87,1397.76 416.282,1413.95 426.695,1424.74 437.108,1429.78 447.521,1428.91 457.934,1422.15 468.347,1409.73 478.759,1392.04 489.172,1369.68 499.585,1343.36 509.998,1313.95 520.411,1282.4 530.824,1249.75 541.236,1217.06 551.649,1185.4 562.062,1155.8 572.475,1129.23 582.888,1106.55 593.301,1088.51 603.713,1075.7 614.126,1068.52 624.539,1067.22 634.952,1071.84 645.365,1082.23 655.777,1098.05 666.19,1118.78 676.603,1143.74 687.016,1172.13 697.429,1203.01 707.842,1235.38 718.254,1268.18 728.667,1300.34 739.08,1330.81 749.493,1358.59 759.906,1382.79 770.319,1402.6 780.731,1417.39 791.144,1426.67 801.557,1430.13 811.97,1427.67 822.383,1419.36 832.796,1405.48 843.208,1386.48 853.621,1362.98 864.034,1335.74 874.447,1305.66 884.86,1273.72 895.273,1240.95 905.685,1208.43 916.098,1177.23 926.511,1148.35 936.924,1122.74 947.337,1101.24 957.749,1084.55 968.162,1073.21 978.575,1067.59 988.988,1067.88 999.401,1074.07 1009.81,1085.95 1020.23,1103.15 1030.64,1125.08 1041.05,1151.05 1051.46,1180.2 1061.88,1211.58 1072.29,1244.17 1082.7,1276.9 1093.12,1308.71 1103.53,1338.55 1113.94,1365.46 1124.35,1388.56 1134.77,1407.08 1145.18,1420.43 1155.59,1428.17 1166.01,1430.05 1176.42,1426.01 1186.83,1416.18 1197.24,1400.87 1207.66,1380.6 1218.07,1356.01 1228.48,1327.92 1238.9,1297.24 1249.31,1264.97 1259.72,339.342 1270.13,337.842 1280.55,339.207 1290.96,343.754 1301.37,350.087 1311.79,355.532 1322.2,357.145 1332.61,352.955 1343.02,342.968 1353.44,329.504 1363.85,316.693 1374.26,309.208 1384.68,310.644 1395.09,322.064 1405.5,341.271 1415.91,363.13 1426.33,380.931 1436.74,388.439 1447.15,382.012 1457.57,362.069 1467.98,333.383 1478.39,303.986 1488.8,282.916 1499.22,277.458 1509.63,290.69 1520.04,320.168 1530.45,358.238 1540.87,394.001 1551.28,416.429 1561.69,417.758 1572.11,396.089 1582.52,356.377 1592.93,309.368 1603.34,268.705 1613.76,246.968 1624.17,251.801 1634.58,283.315 1645,333.625 1655.41,388.778 1665.82,432.618 1676.23,451.519 1686.65,438.594 1697.06,396.092 1707.47,335.174 1717.89,273.009 1728.3,227.934 1738.71,214.052 1749.12,236.846 1759.54,291.178 1769.95,362.354 1780.36,430.086 1790.78,474.276 1801.19,480.97 1811.6,446.729 1822.01,380.058 1832.43,299.337 1842.84,227.771 1853.25,186.714 1863.67,189.31 1874.08,236.324 1884.49,315.494 1894.9,404.691 1905.32,478.102 1915.73,513.699 1926.14,499.838 1936.56,439.009 1946.97,347.552 1957.38,251.29 1967.79,178.236 1978.21,150.447 1988.62,177.377 1999.03,252.738 2009.45,355.893 2019.86,457.49 2030.27,527.814 2040.68,545.478 2051.1,503.904 2061.51,413.645 2071.92,299.758 2082.33,194.849 2092.75,129.745 2103.16,124.434 2113.57,181.959 2123.99,287.103 2134.4,410.387 2144.81,516.33 2155.22,573.657 2165.64,564.53 2176.05,490.062 2186.46,370.433 2196.88,239.442 2207.29,134.959 2217.7,87.9763 2228.11,113.428 2238.53,205.484 2248.94,338.797 2259.35,475.472 2269.77,575.839 2280.18,609.956 2290.59,566.542 "/>
<path clip-path="url(#clip760)" d="M229.49 250.738 L675.966 250.738 L675.966 95.2176 L229.49 95.2176  Z" fill="#ffffff" fill-rule="evenodd" fill-opacity="1"/>
<polyline clip-path="url(#clip760)" style="stroke:#000000; stroke-linecap:round; stroke-linejoin:round; stroke-width:4; stroke-opacity:1; fill:none" points="229.49,250.738 675.966,250.738 675.966,95.2176 229.49,95.2176 229.49,250.738 "/>
<polyline clip-path="url(#clip760)" style="stroke:#009af9; stroke-linecap:round; stroke-linejoin:round; stroke-width:16; stroke-opacity:1; fill:none" stroke-dasharray="8, 16" points="253.896,147.058 400.328,147.058 "/>
<path clip-path="url(#clip760)" d="M429.409 133.62 L429.409 146.606 L435.289 146.606 Q438.552 146.606 440.335 144.916 Q442.117 143.227 442.117 140.102 Q442.117 137 440.335 135.31 Q438.552 133.62 435.289 133.62 L429.409 133.62 M424.733 129.778 L435.289 129.778 Q441.099 129.778 444.062 132.416 Q447.048 135.032 447.048 140.102 Q447.048 145.217 444.062 147.833 Q441.099 150.449 435.289 150.449 L429.409 150.449 L429.409 164.338 L424.733 164.338 L424.733 129.778 Z" fill="#000000" fill-rule="nonzero" fill-opacity="1" /><path clip-path="url(#clip760)" d="M467.325 142.393 Q466.608 141.977 465.751 141.791 Q464.918 141.583 463.899 141.583 Q460.288 141.583 458.344 143.944 Q456.423 146.282 456.423 150.68 L456.423 164.338 L452.14 164.338 L452.14 138.412 L456.423 138.412 L456.423 142.44 Q457.765 140.078 459.918 138.944 Q462.071 137.787 465.149 137.787 Q465.589 137.787 466.122 137.856 Q466.654 137.903 467.302 138.018 L467.325 142.393 Z" fill="#000000" fill-rule="nonzero" fill-opacity="1" /><path clip-path="url(#clip760)" d="M492.927 150.31 L492.927 152.393 L473.344 152.393 Q473.622 156.791 475.983 159.106 Q478.367 161.398 482.603 161.398 Q485.057 161.398 487.348 160.796 Q489.663 160.194 491.932 158.99 L491.932 163.018 Q489.64 163.99 487.233 164.5 Q484.825 165.009 482.348 165.009 Q476.145 165.009 472.511 161.398 Q468.899 157.787 468.899 151.629 Q468.899 145.264 472.325 141.537 Q475.774 137.787 481.608 137.787 Q486.839 137.787 489.872 141.166 Q492.927 144.523 492.927 150.31 M488.668 149.06 Q488.622 145.565 486.7 143.481 Q484.802 141.398 481.654 141.398 Q478.089 141.398 475.936 143.412 Q473.807 145.426 473.483 149.083 L488.668 149.06 Z" fill="#000000" fill-rule="nonzero" fill-opacity="1" /><path clip-path="url(#clip760)" d="M516.978 142.347 L516.978 128.319 L521.237 128.319 L521.237 164.338 L516.978 164.338 L516.978 160.449 Q515.635 162.763 513.575 163.898 Q511.538 165.009 508.668 165.009 Q503.969 165.009 501.006 161.259 Q498.066 157.509 498.066 151.398 Q498.066 145.287 501.006 141.537 Q503.969 137.787 508.668 137.787 Q511.538 137.787 513.575 138.921 Q515.635 140.032 516.978 142.347 M502.464 151.398 Q502.464 156.097 504.385 158.782 Q506.33 161.444 509.709 161.444 Q513.089 161.444 515.033 158.782 Q516.978 156.097 516.978 151.398 Q516.978 146.699 515.033 144.037 Q513.089 141.352 509.709 141.352 Q506.33 141.352 504.385 144.037 Q502.464 146.699 502.464 151.398 Z" fill="#000000" fill-rule="nonzero" fill-opacity="1" /><path clip-path="url(#clip760)" d="M530.01 138.412 L534.269 138.412 L534.269 164.338 L530.01 164.338 L530.01 138.412 M530.01 128.319 L534.269 128.319 L534.269 133.713 L530.01 133.713 L530.01 128.319 Z" fill="#000000" fill-rule="nonzero" fill-opacity="1" /><path clip-path="url(#clip760)" d="M561.839 139.407 L561.839 143.389 Q560.033 142.393 558.205 141.907 Q556.399 141.398 554.547 141.398 Q550.404 141.398 548.112 144.037 Q545.82 146.652 545.82 151.398 Q545.82 156.143 548.112 158.782 Q550.404 161.398 554.547 161.398 Q556.399 161.398 558.205 160.912 Q560.033 160.402 561.839 159.407 L561.839 163.342 Q560.056 164.176 558.135 164.592 Q556.237 165.009 554.084 165.009 Q548.228 165.009 544.779 161.328 Q541.33 157.648 541.33 151.398 Q541.33 145.055 544.802 141.421 Q548.297 137.787 554.362 137.787 Q556.33 137.787 558.205 138.203 Q560.08 138.597 561.839 139.407 Z" fill="#000000" fill-rule="nonzero" fill-opacity="1" /><path clip-path="url(#clip760)" d="M573.459 131.051 L573.459 138.412 L582.232 138.412 L582.232 141.722 L573.459 141.722 L573.459 155.796 Q573.459 158.967 574.316 159.87 Q575.195 160.773 577.857 160.773 L582.232 160.773 L582.232 164.338 L577.857 164.338 Q572.927 164.338 571.052 162.509 Q569.177 160.657 569.177 155.796 L569.177 141.722 L566.052 141.722 L566.052 138.412 L569.177 138.412 L569.177 131.051 L573.459 131.051 Z" fill="#000000" fill-rule="nonzero" fill-opacity="1" /><path clip-path="url(#clip760)" d="M587.834 138.412 L592.093 138.412 L592.093 164.338 L587.834 164.338 L587.834 138.412 M587.834 128.319 L592.093 128.319 L592.093 133.713 L587.834 133.713 L587.834 128.319 Z" fill="#000000" fill-rule="nonzero" fill-opacity="1" /><path clip-path="url(#clip760)" d="M611.051 141.398 Q607.626 141.398 605.635 144.083 Q603.644 146.745 603.644 151.398 Q603.644 156.051 605.612 158.736 Q607.602 161.398 611.051 161.398 Q614.454 161.398 616.445 158.713 Q618.436 156.027 618.436 151.398 Q618.436 146.791 616.445 144.106 Q614.454 141.398 611.051 141.398 M611.051 137.787 Q616.607 137.787 619.778 141.398 Q622.95 145.009 622.95 151.398 Q622.95 157.764 619.778 161.398 Q616.607 165.009 611.051 165.009 Q605.473 165.009 602.302 161.398 Q599.153 157.764 599.153 151.398 Q599.153 145.009 602.302 141.398 Q605.473 137.787 611.051 137.787 Z" fill="#000000" fill-rule="nonzero" fill-opacity="1" /><path clip-path="url(#clip760)" d="M651.561 148.689 L651.561 164.338 L647.301 164.338 L647.301 148.828 Q647.301 145.148 645.866 143.319 Q644.431 141.49 641.561 141.49 Q638.112 141.49 636.121 143.69 Q634.13 145.889 634.13 149.685 L634.13 164.338 L629.848 164.338 L629.848 138.412 L634.13 138.412 L634.13 142.44 Q635.658 140.102 637.718 138.944 Q639.801 137.787 642.51 137.787 Q646.977 137.787 649.269 140.565 Q651.561 143.319 651.561 148.689 Z" fill="#000000" fill-rule="nonzero" fill-opacity="1" /><polyline clip-path="url(#clip760)" style="stroke:#e26f46; stroke-linecap:round; stroke-linejoin:round; stroke-width:4; stroke-opacity:1; fill:none" points="253.896,198.898 400.328,198.898 "/>
<path clip-path="url(#clip760)" d="M424.733 181.618 L446.585 181.618 L446.585 185.553 L429.409 185.553 L429.409 195.784 L445.867 195.784 L445.867 199.719 L429.409 199.719 L429.409 212.242 L447.001 212.242 L447.001 216.178 L424.733 216.178 L424.733 181.618 Z" fill="#000000" fill-rule="nonzero" fill-opacity="1" /><path clip-path="url(#clip760)" d="M476.052 190.252 L466.677 202.867 L476.538 216.178 L471.515 216.178 L463.969 205.992 L456.423 216.178 L451.4 216.178 L461.469 202.613 L452.256 190.252 L457.279 190.252 L464.154 199.488 L471.029 190.252 L476.052 190.252 Z" fill="#000000" fill-rule="nonzero" fill-opacity="1" /><path clip-path="url(#clip760)" d="M494.339 203.145 Q489.177 203.145 487.186 204.326 Q485.196 205.506 485.196 208.354 Q485.196 210.622 486.677 211.965 Q488.182 213.284 490.751 213.284 Q494.293 213.284 496.422 210.784 Q498.575 208.261 498.575 204.094 L498.575 203.145 L494.339 203.145 M502.834 201.386 L502.834 216.178 L498.575 216.178 L498.575 212.242 Q497.117 214.603 494.941 215.738 Q492.765 216.849 489.617 216.849 Q485.635 216.849 483.274 214.627 Q480.936 212.381 480.936 208.631 Q480.936 204.256 483.853 202.034 Q486.793 199.812 492.603 199.812 L498.575 199.812 L498.575 199.395 Q498.575 196.455 496.631 194.858 Q494.71 193.238 491.214 193.238 Q488.992 193.238 486.885 193.77 Q484.779 194.303 482.835 195.367 L482.835 191.432 Q485.173 190.53 487.372 190.09 Q489.571 189.627 491.654 189.627 Q497.279 189.627 500.057 192.543 Q502.834 195.46 502.834 201.386 Z" fill="#000000" fill-rule="nonzero" fill-opacity="1" /><path clip-path="url(#clip760)" d="M530.265 191.247 L530.265 195.229 Q528.459 194.233 526.631 193.747 Q524.825 193.238 522.973 193.238 Q518.83 193.238 516.538 195.877 Q514.246 198.492 514.246 203.238 Q514.246 207.983 516.538 210.622 Q518.83 213.238 522.973 213.238 Q524.825 213.238 526.631 212.752 Q528.459 212.242 530.265 211.247 L530.265 215.182 Q528.482 216.016 526.561 216.432 Q524.663 216.849 522.51 216.849 Q516.654 216.849 513.205 213.168 Q509.756 209.488 509.756 203.238 Q509.756 196.895 513.228 193.261 Q516.723 189.627 522.788 189.627 Q524.756 189.627 526.631 190.043 Q528.506 190.437 530.265 191.247 Z" fill="#000000" fill-rule="nonzero" fill-opacity="1" /><path clip-path="url(#clip760)" d="M541.885 182.891 L541.885 190.252 L550.658 190.252 L550.658 193.562 L541.885 193.562 L541.885 207.636 Q541.885 210.807 542.742 211.71 Q543.621 212.613 546.283 212.613 L550.658 212.613 L550.658 216.178 L546.283 216.178 Q541.353 216.178 539.478 214.349 Q537.603 212.497 537.603 207.636 L537.603 193.562 L534.478 193.562 L534.478 190.252 L537.603 190.252 L537.603 182.891 L541.885 182.891 Z" fill="#000000" fill-rule="nonzero" fill-opacity="1" /></svg>
