<?xml version="1.0" encoding="utf-8"?>
<svg xmlns="http://www.w3.org/2000/svg" xmlns:xlink="http://www.w3.org/1999/xlink" width="600" height="400" viewBox="0 0 2400 1600">
<defs>
  <clipPath id="clip730">
    <rect x="0" y="0" width="2400" height="1600"/>
  </clipPath>
</defs>
<path clip-path="url(#clip730)" d="M0 1600 L2400 1600 L2400 0 L0 0  Z" fill="#ffffff" fill-rule="evenodd" fill-opacity="1"/>
<defs>
  <clipPath id="clip731">
    <rect x="480" y="0" width="1681" height="1600"/>
  </clipPath>
</defs>
<path clip-path="url(#clip730)" d="M156.274 1486.45 L2352.76 1486.45 L2352.76 47.2441 L156.274 47.2441  Z" fill="#ffffff" fill-rule="evenodd" fill-opacity="1"/>
<defs>
  <clipPath id="clip732">
    <rect x="156" y="47" width="2197" height="1440"/>
  </clipPath>
</defs>
<polyline clip-path="url(#clip732)" style="stroke:#000000; stroke-linecap:round; stroke-linejoin:round; stroke-width:2; stroke-opacity:0.1; fill:none" points="218.439,1486.45 218.439,47.2441 "/>
<polyline clip-path="url(#clip732)" style="stroke:#000000; stroke-linecap:round; stroke-linejoin:round; stroke-width:2; stroke-opacity:0.1; fill:none" points="736.477,1486.45 736.477,47.2441 "/>
<polyline clip-path="url(#clip732)" style="stroke:#000000; stroke-linecap:round; stroke-linejoin:round; stroke-width:2; stroke-opacity:0.1; fill:none" points="1254.52,1486.45 1254.52,47.2441 "/>
<polyline clip-path="url(#clip732)" style="stroke:#000000; stroke-linecap:round; stroke-linejoin:round; stroke-width:2; stroke-opacity:0.1; fill:none" points="1772.55,1486.45 1772.55,47.2441 "/>
<polyline clip-path="url(#clip732)" style="stroke:#000000; stroke-linecap:round; stroke-linejoin:round; stroke-width:2; stroke-opacity:0.1; fill:none" points="2290.59,1486.45 2290.59,47.2441 "/>
<polyline clip-path="url(#clip730)" style="stroke:#000000; stroke-linecap:round; stroke-linejoin:round; stroke-width:4; stroke-opacity:1; fill:none" points="156.274,1486.45 2352.76,1486.45 "/>
<polyline clip-path="url(#clip730)" style="stroke:#000000; stroke-linecap:round; stroke-linejoin:round; stroke-width:4; stroke-opacity:1; fill:none" points="218.439,1486.45 218.439,1467.55 "/>
<polyline clip-path="url(#clip730)" style="stroke:#000000; stroke-linecap:round; stroke-linejoin:round; stroke-width:4; stroke-opacity:1; fill:none" points="736.477,1486.45 736.477,1467.55 "/>
<polyline clip-path="url(#clip730)" style="stroke:#000000; stroke-linecap:round; stroke-linejoin:round; stroke-width:4; stroke-opacity:1; fill:none" points="1254.52,1486.45 1254.52,1467.55 "/>
<polyline clip-path="url(#clip730)" style="stroke:#000000; stroke-linecap:round; stroke-linejoin:round; stroke-width:4; stroke-opacity:1; fill:none" points="1772.55,1486.45 1772.55,1467.55 "/>
<polyline clip-path="url(#clip730)" style="stroke:#000000; stroke-linecap:round; stroke-linejoin:round; stroke-width:4; stroke-opacity:1; fill:none" points="2290.59,1486.45 2290.59,1467.55 "/>
<path clip-path="url(#clip730)" d="M164.967 1532.02 L194.643 1532.02 L194.643 1535.95 L164.967 1535.95 L164.967 1532.02 Z" fill="#000000" fill-rule="nonzero" fill-opacity="1" /><path clip-path="url(#clip730)" d="M205.545 1544.91 L213.184 1544.91 L213.184 1518.55 L204.874 1520.21 L204.874 1515.95 L213.138 1514.29 L217.814 1514.29 L217.814 1544.91 L225.453 1544.91 L225.453 1548.85 L205.545 1548.85 L205.545 1544.91 Z" fill="#000000" fill-rule="nonzero" fill-opacity="1" /><path clip-path="url(#clip730)" d="M234.897 1542.97 L239.781 1542.97 L239.781 1548.85 L234.897 1548.85 L234.897 1542.97 Z" fill="#000000" fill-rule="nonzero" fill-opacity="1" /><path clip-path="url(#clip730)" d="M259.966 1517.37 Q256.355 1517.37 254.527 1520.93 Q252.721 1524.47 252.721 1531.6 Q252.721 1538.71 254.527 1542.27 Q256.355 1545.82 259.966 1545.82 Q263.601 1545.82 265.406 1542.27 Q267.235 1538.71 267.235 1531.6 Q267.235 1524.47 265.406 1520.93 Q263.601 1517.37 259.966 1517.37 M259.966 1513.66 Q265.776 1513.66 268.832 1518.27 Q271.911 1522.85 271.911 1531.6 Q271.911 1540.33 268.832 1544.94 Q265.776 1549.52 259.966 1549.52 Q254.156 1549.52 251.077 1544.94 Q248.022 1540.33 248.022 1531.6 Q248.022 1522.85 251.077 1518.27 Q254.156 1513.66 259.966 1513.66 Z" fill="#000000" fill-rule="nonzero" fill-opacity="1" /><path clip-path="url(#clip730)" d="M683.503 1532.02 L713.178 1532.02 L713.178 1535.95 L683.503 1535.95 L683.503 1532.02 Z" fill="#000000" fill-rule="nonzero" fill-opacity="1" /><path clip-path="url(#clip730)" d="M733.271 1517.37 Q729.66 1517.37 727.831 1520.93 Q726.026 1524.47 726.026 1531.6 Q726.026 1538.71 727.831 1542.27 Q729.66 1545.82 733.271 1545.82 Q736.905 1545.82 738.711 1542.27 Q740.539 1538.71 740.539 1531.6 Q740.539 1524.47 738.711 1520.93 Q736.905 1517.37 733.271 1517.37 M733.271 1513.66 Q739.081 1513.66 742.137 1518.27 Q745.215 1522.85 745.215 1531.6 Q745.215 1540.33 742.137 1544.94 Q739.081 1549.52 733.271 1549.52 Q727.461 1549.52 724.382 1544.94 Q721.327 1540.33 721.327 1531.6 Q721.327 1522.85 724.382 1518.27 Q727.461 1513.66 733.271 1513.66 Z" fill="#000000" fill-rule="nonzero" fill-opacity="1" /><path clip-path="url(#clip730)" d="M753.433 1542.97 L758.317 1542.97 L758.317 1548.85 L753.433 1548.85 L753.433 1542.97 Z" fill="#000000" fill-rule="nonzero" fill-opacity="1" /><path clip-path="url(#clip730)" d="M768.548 1514.29 L786.905 1514.29 L786.905 1518.22 L772.831 1518.22 L772.831 1526.7 Q773.849 1526.35 774.868 1526.19 Q775.886 1526 776.905 1526 Q782.692 1526 786.072 1529.17 Q789.451 1532.34 789.451 1537.76 Q789.451 1543.34 785.979 1546.44 Q782.507 1549.52 776.187 1549.52 Q774.011 1549.52 771.743 1549.15 Q769.498 1548.78 767.09 1548.04 L767.09 1543.34 Q769.173 1544.47 771.396 1545.03 Q773.618 1545.58 776.095 1545.58 Q780.099 1545.58 782.437 1543.48 Q784.775 1541.37 784.775 1537.76 Q784.775 1534.15 782.437 1532.04 Q780.099 1529.94 776.095 1529.94 Q774.22 1529.94 772.345 1530.35 Q770.493 1530.77 768.548 1531.65 L768.548 1514.29 Z" fill="#000000" fill-rule="nonzero" fill-opacity="1" /><path clip-path="url(#clip730)" d="M1231.9 1517.37 Q1228.29 1517.37 1226.46 1520.93 Q1224.65 1524.47 1224.65 1531.6 Q1224.65 1538.71 1226.46 1542.27 Q1228.29 1545.82 1231.9 1545.82 Q1235.53 1545.82 1237.34 1542.27 Q1239.17 1538.71 1239.17 1531.6 Q1239.17 1524.47 1237.34 1520.93 Q1235.53 1517.37 1231.9 1517.37 M1231.9 1513.66 Q1237.71 1513.66 1240.77 1518.27 Q1243.84 1522.85 1243.84 1531.6 Q1243.84 1540.33 1240.77 1544.94 Q1237.71 1549.52 1231.9 1549.52 Q1226.09 1549.52 1223.01 1544.94 Q1219.96 1540.33 1219.96 1531.6 Q1219.96 1522.85 1223.01 1518.27 Q1226.09 1513.66 1231.9 1513.66 Z" fill="#000000" fill-rule="nonzero" fill-opacity="1" /><path clip-path="url(#clip730)" d="M1252.06 1542.97 L1256.95 1542.97 L1256.95 1548.85 L1252.06 1548.85 L1252.06 1542.97 Z" fill="#000000" fill-rule="nonzero" fill-opacity="1" /><path clip-path="url(#clip730)" d="M1277.13 1517.37 Q1273.52 1517.37 1271.69 1520.93 Q1269.89 1524.47 1269.89 1531.6 Q1269.89 1538.71 1271.69 1542.27 Q1273.52 1545.82 1277.13 1545.82 Q1280.76 1545.82 1282.57 1542.27 Q1284.4 1538.71 1284.4 1531.6 Q1284.4 1524.47 1282.57 1520.93 Q1280.76 1517.37 1277.13 1517.37 M1277.13 1513.66 Q1282.94 1513.66 1286 1518.27 Q1289.08 1522.85 1289.08 1531.6 Q1289.08 1540.33 1286 1544.94 Q1282.94 1549.52 1277.13 1549.52 Q1271.32 1549.52 1268.24 1544.94 Q1265.19 1540.33 1265.19 1531.6 Q1265.19 1522.85 1268.24 1518.27 Q1271.32 1513.66 1277.13 1513.66 Z" fill="#000000" fill-rule="nonzero" fill-opacity="1" /><path clip-path="url(#clip730)" d="M1750.44 1517.37 Q1746.82 1517.37 1745 1520.93 Q1743.19 1524.47 1743.19 1531.6 Q1743.19 1538.71 1745 1542.27 Q1746.82 1545.82 1750.44 1545.82 Q1754.07 1545.82 1755.88 1542.27 Q1757.7 1538.71 1757.7 1531.6 Q1757.7 1524.47 1755.88 1520.93 Q1754.07 1517.37 1750.44 1517.37 M1750.44 1513.66 Q1756.25 1513.66 1759.3 1518.27 Q1762.38 1522.85 1762.38 1531.6 Q1762.38 1540.33 1759.3 1544.94 Q1756.25 1549.52 1750.44 1549.52 Q1744.63 1549.52 1741.55 1544.94 Q1738.49 1540.33 1738.49 1531.6 Q1738.49 1522.85 1741.55 1518.27 Q1744.63 1513.66 1750.44 1513.66 Z" fill="#000000" fill-rule="nonzero" fill-opacity="1" /><path clip-path="url(#clip730)" d="M1770.6 1542.97 L1775.48 1542.97 L1775.48 1548.85 L1770.6 1548.85 L1770.6 1542.97 Z" fill="#000000" fill-rule="nonzero" fill-opacity="1" /><path clip-path="url(#clip730)" d="M1785.71 1514.29 L1804.07 1514.29 L1804.07 1518.22 L1790 1518.22 L1790 1526.7 Q1791.01 1526.35 1792.03 1526.19 Q1793.05 1526 1794.07 1526 Q1799.86 1526 1803.24 1529.17 Q1806.62 1532.34 1806.62 1537.76 Q1806.62 1543.34 1803.14 1546.44 Q1799.67 1549.52 1793.35 1549.52 Q1791.18 1549.52 1788.91 1549.15 Q1786.66 1548.78 1784.25 1548.04 L1784.25 1543.34 Q1786.34 1544.47 1788.56 1545.03 Q1790.78 1545.58 1793.26 1545.58 Q1797.26 1545.58 1799.6 1543.48 Q1801.94 1541.37 1801.94 1537.76 Q1801.94 1534.15 1799.6 1532.04 Q1797.26 1529.94 1793.26 1529.94 Q1791.38 1529.94 1789.51 1530.35 Q1787.66 1530.77 1785.71 1531.65 L1785.71 1514.29 Z" fill="#000000" fill-rule="nonzero" fill-opacity="1" /><path clip-path="url(#clip730)" d="M2257.74 1544.91 L2265.38 1544.91 L2265.38 1518.55 L2257.07 1520.21 L2257.07 1515.95 L2265.34 1514.29 L2270.01 1514.29 L2270.01 1544.91 L2277.65 1544.91 L2277.65 1548.85 L2257.74 1548.85 L2257.74 1544.91 Z" fill="#000000" fill-rule="nonzero" fill-opacity="1" /><path clip-path="url(#clip730)" d="M2287.1 1542.97 L2291.98 1542.97 L2291.98 1548.85 L2287.1 1548.85 L2287.1 1542.97 Z" fill="#000000" fill-rule="nonzero" fill-opacity="1" /><path clip-path="url(#clip730)" d="M2312.17 1517.37 Q2308.55 1517.37 2306.73 1520.93 Q2304.92 1524.47 2304.92 1531.6 Q2304.92 1538.71 2306.73 1542.27 Q2308.55 1545.82 2312.17 1545.82 Q2315.8 1545.82 2317.61 1542.27 Q2319.43 1538.71 2319.43 1531.6 Q2319.43 1524.47 2317.61 1520.93 Q2315.8 1517.37 2312.17 1517.37 M2312.17 1513.66 Q2317.98 1513.66 2321.03 1518.27 Q2324.11 1522.85 2324.11 1531.6 Q2324.11 1540.33 2321.03 1544.94 Q2317.98 1549.52 2312.17 1549.52 Q2306.36 1549.52 2303.28 1544.94 Q2300.22 1540.33 2300.22 1531.6 Q2300.22 1522.85 2303.28 1518.27 Q2306.36 1513.66 2312.17 1513.66 Z" fill="#000000" fill-rule="nonzero" fill-opacity="1" /><polyline clip-path="url(#clip732)" style="stroke:#000000; stroke-linecap:round; stroke-linejoin:round; stroke-width:2; stroke-opacity:0.1; fill:none" points="156.274,1228.09 2352.76,1228.09 "/>
<polyline clip-path="url(#clip732)" style="stroke:#000000; stroke-linecap:round; stroke-linejoin:round; stroke-width:2; stroke-opacity:0.1; fill:none" points="156.274,960.523 2352.76,960.523 "/>
<polyline clip-path="url(#clip732)" style="stroke:#000000; stroke-linecap:round; stroke-linejoin:round; stroke-width:2; stroke-opacity:0.1; fill:none" points="156.274,692.957 2352.76,692.957 "/>
<polyline clip-path="url(#clip732)" style="stroke:#000000; stroke-linecap:round; stroke-linejoin:round; stroke-width:2; stroke-opacity:0.1; fill:none" points="156.274,425.391 2352.76,425.391 "/>
<polyline clip-path="url(#clip732)" style="stroke:#000000; stroke-linecap:round; stroke-linejoin:round; stroke-width:2; stroke-opacity:0.1; fill:none" points="156.274,157.824 2352.76,157.824 "/>
<polyline clip-path="url(#clip730)" style="stroke:#000000; stroke-linecap:round; stroke-linejoin:round; stroke-width:4; stroke-opacity:1; fill:none" points="156.274,1486.45 156.274,47.2441 "/>
<polyline clip-path="url(#clip730)" style="stroke:#000000; stroke-linecap:round; stroke-linejoin:round; stroke-width:4; stroke-opacity:1; fill:none" points="156.274,1228.09 175.172,1228.09 "/>
<polyline clip-path="url(#clip730)" style="stroke:#000000; stroke-linecap:round; stroke-linejoin:round; stroke-width:4; stroke-opacity:1; fill:none" points="156.274,960.523 175.172,960.523 "/>
<polyline clip-path="url(#clip730)" style="stroke:#000000; stroke-linecap:round; stroke-linejoin:round; stroke-width:4; stroke-opacity:1; fill:none" points="156.274,692.957 175.172,692.957 "/>
<polyline clip-path="url(#clip730)" style="stroke:#000000; stroke-linecap:round; stroke-linejoin:round; stroke-width:4; stroke-opacity:1; fill:none" points="156.274,425.391 175.172,425.391 "/>
<polyline clip-path="url(#clip730)" style="stroke:#000000; stroke-linecap:round; stroke-linejoin:round; stroke-width:4; stroke-opacity:1; fill:none" points="156.274,157.824 175.172,157.824 "/>
<path clip-path="url(#clip730)" d="M63.0985 1213.89 Q59.4875 1213.89 57.6588 1217.45 Q55.8532 1220.99 55.8532 1228.12 Q55.8532 1235.23 57.6588 1238.8 Q59.4875 1242.34 63.0985 1242.34 Q66.7328 1242.34 68.5383 1238.8 Q70.367 1235.23 70.367 1228.12 Q70.367 1220.99 68.5383 1217.45 Q66.7328 1213.89 63.0985 1213.89 M63.0985 1210.18 Q68.9087 1210.18 71.9642 1214.79 Q75.0429 1219.37 75.0429 1228.12 Q75.0429 1236.85 71.9642 1241.46 Q68.9087 1246.04 63.0985 1246.04 Q57.2884 1246.04 54.2097 1241.46 Q51.1542 1236.85 51.1542 1228.12 Q51.1542 1219.37 54.2097 1214.79 Q57.2884 1210.18 63.0985 1210.18 Z" fill="#000000" fill-rule="nonzero" fill-opacity="1" /><path clip-path="url(#clip730)" d="M83.2605 1239.49 L88.1447 1239.49 L88.1447 1245.37 L83.2605 1245.37 L83.2605 1239.49 Z" fill="#000000" fill-rule="nonzero" fill-opacity="1" /><path clip-path="url(#clip730)" d="M108.33 1213.89 Q104.719 1213.89 102.89 1217.45 Q101.084 1220.99 101.084 1228.12 Q101.084 1235.23 102.89 1238.8 Q104.719 1242.34 108.33 1242.34 Q111.964 1242.34 113.77 1238.8 Q115.598 1235.23 115.598 1228.12 Q115.598 1220.99 113.77 1217.45 Q111.964 1213.89 108.33 1213.89 M108.33 1210.18 Q114.14 1210.18 117.195 1214.79 Q120.274 1219.37 120.274 1228.12 Q120.274 1236.85 117.195 1241.46 Q114.14 1246.04 108.33 1246.04 Q102.52 1246.04 99.4409 1241.46 Q96.3854 1236.85 96.3854 1228.12 Q96.3854 1219.37 99.4409 1214.79 Q102.52 1210.18 108.33 1210.18 Z" fill="#000000" fill-rule="nonzero" fill-opacity="1" /><path clip-path="url(#clip730)" d="M63.7467 946.322 Q60.1356 946.322 58.3069 949.887 Q56.5014 953.428 56.5014 960.558 Q56.5014 967.664 58.3069 971.229 Q60.1356 974.771 63.7467 974.771 Q67.3809 974.771 69.1865 971.229 Q71.0152 967.664 71.0152 960.558 Q71.0152 953.428 69.1865 949.887 Q67.3809 946.322 63.7467 946.322 M63.7467 942.618 Q69.5568 942.618 72.6124 947.225 Q75.6911 951.808 75.6911 960.558 Q75.6911 969.285 72.6124 973.891 Q69.5568 978.474 63.7467 978.474 Q57.9365 978.474 54.8578 973.891 Q51.8023 969.285 51.8023 960.558 Q51.8023 951.808 54.8578 947.225 Q57.9365 942.618 63.7467 942.618 Z" fill="#000000" fill-rule="nonzero" fill-opacity="1" /><path clip-path="url(#clip730)" d="M83.9086 971.924 L88.7928 971.924 L88.7928 977.803 L83.9086 977.803 L83.9086 971.924 Z" fill="#000000" fill-rule="nonzero" fill-opacity="1" /><path clip-path="url(#clip730)" d="M113.145 959.169 Q116.501 959.887 118.376 962.155 Q120.274 964.424 120.274 967.757 Q120.274 972.873 116.756 975.674 Q113.237 978.474 106.756 978.474 Q104.58 978.474 102.265 978.035 Q99.9733 977.618 97.5197 976.761 L97.5197 972.248 Q99.4641 973.382 101.779 973.961 Q104.094 974.539 106.617 974.539 Q111.015 974.539 113.307 972.803 Q115.621 971.067 115.621 967.757 Q115.621 964.701 113.469 962.988 Q111.339 961.252 107.52 961.252 L103.492 961.252 L103.492 957.41 L107.705 957.41 Q111.154 957.41 112.983 956.044 Q114.811 954.655 114.811 952.063 Q114.811 949.401 112.913 947.988 Q111.038 946.553 107.52 946.553 Q105.598 946.553 103.399 946.97 Q101.2 947.387 98.5613 948.266 L98.5613 944.1 Q101.223 943.359 103.538 942.989 Q105.876 942.618 107.936 942.618 Q113.26 942.618 116.362 945.049 Q119.464 947.456 119.464 951.576 Q119.464 954.447 117.82 956.438 Q116.177 958.405 113.145 959.169 Z" fill="#000000" fill-rule="nonzero" fill-opacity="1" /><path clip-path="url(#clip730)" d="M62.9365 678.756 Q59.3254 678.756 57.4967 682.32 Q55.6912 685.862 55.6912 692.992 Q55.6912 700.098 57.4967 703.663 Q59.3254 707.205 62.9365 707.205 Q66.5707 707.205 68.3763 703.663 Q70.205 700.098 70.205 692.992 Q70.205 685.862 68.3763 682.32 Q66.5707 678.756 62.9365 678.756 M62.9365 675.052 Q68.7467 675.052 71.8022 679.658 Q74.8809 684.242 74.8809 692.992 Q74.8809 701.718 71.8022 706.325 Q68.7467 710.908 62.9365 710.908 Q57.1264 710.908 54.0477 706.325 Q50.9921 701.718 50.9921 692.992 Q50.9921 684.242 54.0477 679.658 Q57.1264 675.052 62.9365 675.052 Z" fill="#000000" fill-rule="nonzero" fill-opacity="1" /><path clip-path="url(#clip730)" d="M83.0984 704.357 L87.9827 704.357 L87.9827 710.237 L83.0984 710.237 L83.0984 704.357 Z" fill="#000000" fill-rule="nonzero" fill-opacity="1" /><path clip-path="url(#clip730)" d="M108.746 691.093 Q105.598 691.093 103.746 693.246 Q101.918 695.399 101.918 699.149 Q101.918 702.876 103.746 705.052 Q105.598 707.205 108.746 707.205 Q111.895 707.205 113.723 705.052 Q115.575 702.876 115.575 699.149 Q115.575 695.399 113.723 693.246 Q111.895 691.093 108.746 691.093 M118.029 676.441 L118.029 680.7 Q116.27 679.867 114.464 679.427 Q112.682 678.987 110.922 678.987 Q106.293 678.987 103.839 682.112 Q101.409 685.237 101.061 691.556 Q102.427 689.543 104.487 688.478 Q106.547 687.39 109.024 687.39 Q114.233 687.39 117.242 690.561 Q120.274 693.709 120.274 699.149 Q120.274 704.473 117.126 707.691 Q113.978 710.908 108.746 710.908 Q102.751 710.908 99.5798 706.325 Q96.4085 701.718 96.4085 692.992 Q96.4085 684.797 100.297 679.936 Q104.186 675.052 110.737 675.052 Q112.496 675.052 114.279 675.399 Q116.084 675.746 118.029 676.441 Z" fill="#000000" fill-rule="nonzero" fill-opacity="1" /><path clip-path="url(#clip730)" d="M63.2837 411.189 Q59.6726 411.189 57.8439 414.754 Q56.0384 418.296 56.0384 425.425 Q56.0384 432.532 57.8439 436.097 Q59.6726 439.638 63.2837 439.638 Q66.918 439.638 68.7235 436.097 Q70.5522 432.532 70.5522 425.425 Q70.5522 418.296 68.7235 414.754 Q66.918 411.189 63.2837 411.189 M63.2837 407.486 Q69.0939 407.486 72.1494 412.092 Q75.2281 416.675 75.2281 425.425 Q75.2281 434.152 72.1494 438.759 Q69.0939 443.342 63.2837 443.342 Q57.4736 443.342 54.3949 438.759 Q51.3393 434.152 51.3393 425.425 Q51.3393 416.675 54.3949 412.092 Q57.4736 407.486 63.2837 407.486 Z" fill="#000000" fill-rule="nonzero" fill-opacity="1" /><path clip-path="url(#clip730)" d="M83.4457 436.791 L88.3299 436.791 L88.3299 442.671 L83.4457 442.671 L83.4457 436.791 Z" fill="#000000" fill-rule="nonzero" fill-opacity="1" /><path clip-path="url(#clip730)" d="M98.6539 441.953 L98.6539 437.694 Q100.413 438.527 102.219 438.967 Q104.024 439.407 105.76 439.407 Q110.39 439.407 112.82 436.305 Q115.274 433.18 115.621 426.837 Q114.279 428.828 112.219 429.893 Q110.158 430.958 107.658 430.958 Q102.473 430.958 99.4409 427.833 Q96.4317 424.685 96.4317 419.245 Q96.4317 413.921 99.5798 410.703 Q102.728 407.486 107.959 407.486 Q113.955 407.486 117.103 412.092 Q120.274 416.675 120.274 425.425 Q120.274 433.597 116.385 438.481 Q112.52 443.342 105.969 443.342 Q104.209 443.342 102.404 442.995 Q100.598 442.647 98.6539 441.953 M107.959 427.3 Q111.108 427.3 112.936 425.148 Q114.788 422.995 114.788 419.245 Q114.788 415.518 112.936 413.365 Q111.108 411.189 107.959 411.189 Q104.811 411.189 102.959 413.365 Q101.131 415.518 101.131 419.245 Q101.131 422.995 102.959 425.148 Q104.811 427.3 107.959 427.3 Z" fill="#000000" fill-rule="nonzero" fill-opacity="1" /><path clip-path="url(#clip730)" d="M55.506 171.169 L63.1448 171.169 L63.1448 144.804 L54.8347 146.47 L54.8347 142.211 L63.0985 140.544 L67.7744 140.544 L67.7744 171.169 L75.4133 171.169 L75.4133 175.104 L55.506 175.104 L55.506 171.169 Z" fill="#000000" fill-rule="nonzero" fill-opacity="1" /><path clip-path="url(#clip730)" d="M84.8577 169.225 L89.7419 169.225 L89.7419 175.104 L84.8577 175.104 L84.8577 169.225 Z" fill="#000000" fill-rule="nonzero" fill-opacity="1" /><path clip-path="url(#clip730)" d="M103.955 171.169 L120.274 171.169 L120.274 175.104 L98.3298 175.104 L98.3298 171.169 Q100.992 168.415 105.575 163.785 Q110.182 159.132 111.362 157.79 Q113.608 155.267 114.487 153.53 Q115.39 151.771 115.39 150.081 Q115.39 147.327 113.445 145.591 Q111.524 143.855 108.422 143.855 Q106.223 143.855 103.77 144.618 Q101.339 145.382 98.5613 146.933 L98.5613 142.211 Q101.385 141.077 103.839 140.498 Q106.293 139.919 108.33 139.919 Q113.7 139.919 116.895 142.605 Q120.089 145.29 120.089 149.78 Q120.089 151.91 119.279 153.831 Q118.492 155.729 116.385 158.322 Q115.807 158.993 112.705 162.211 Q109.603 165.405 103.955 171.169 Z" fill="#000000" fill-rule="nonzero" fill-opacity="1" /><polyline clip-path="url(#clip732)" style="stroke:#009af9; stroke-linecap:round; stroke-linejoin:round; stroke-width:16; stroke-opacity:1; fill:none" stroke-dasharray="8, 16" points="218.439,1094.19 228.852,1077.99 239.264,1064.15 249.677,1054.29 260.09,1049.77 270.503,1051.5 280.916,1059.78 291.329,1074.36 301.741,1094.47 312.154,1118.96 322.567,1146.48 332.98,1175.93 343.393,1206.59 353.805,1238.01 364.218,1269.59 374.631,1300.31 385.044,1328.88 395.457,1354.09 405.87,1374.98 416.282,1390.89 426.695,1401.35 437.108,1406.09 447.521,1405.04 457.934,1398.29 468.347,1386.09 478.759,1368.86 489.172,1347.12 499.585,1321.54 509.998,1292.89 520.411,1262.03 530.824,1229.89 541.236,1197.51 551.649,1165.99 562.062,1136.5 572.475,1110.14 582.888,1087.98 593.301,1070.89 603.713,1059.38 614.126,1053.43 624.539,1052.53 634.952,1055.91 645.365,1063.21 655.777,1075.14 666.19,1093.63 676.603,1120.66 687.016,1155.87 697.429,1194.74 707.842,1229.97 718.254,1256.35 728.667,1275.35 739.08,1294.23 749.493,1319.56 759.906,1351.13 770.319,1381.55 780.731,1401.74 791.144,1408.82 801.557,1407.77 811.97,1404.29 822.383,1398.97 832.796,1388.42 843.208,1369 853.621,1340 864.034,1305.26 874.447,1271.33 884.86,1243.18 895.273,1220.94 905.685,1200.18 916.098,1175.27 926.511,1143.57 936.924,1105.32 947.337,1062.47 957.749,1026.14 968.162,1019.43 978.575,1046.78 988.988,1072.68 999.401,1072.5 1009.81,1065.59 1020.23,1082.45 1030.64,1134.07 1041.05,1199.17 1051.46,1228.35 1061.88,1205.93 1072.29,1185.68 1082.7,1205.42 1093.12,1263.01 1103.53,1315.95 1113.94,1343.21 1124.35,1401.53 1134.77,1445.72 1145.18,1417.29 1155.59,1373.67 1166.01,1361.58 1176.42,1371.24 1186.83,1382.99 1197.24,1392.79 1207.66,1400.6 1218.07,1394.49 1228.48,1343.84 1238.9,1205.17 1249.31,957.991 1259.72,656.837 1270.13,413.042 1280.55,293.219 1290.96,274.757 1301.37,302.646 1311.79,337.357 1322.2,358.849 1332.61,360.842 1343.02,347.823 1353.44,329.715 1363.85,308.118 1374.26,268.843 1384.68,224.766 1395.09,258.876 1405.5,356.996 1415.91,418.336 1426.33,447.947 1436.74,422.596 1447.15,367.398 1457.57,324.937 1467.98,299.207 1478.39,285.652 1488.8,281.778 1499.22,271.16 1509.63,255.427 1520.04,284.151 1530.45,357.237 1540.87,412.111 1551.28,429.971 1561.69,423.525 1572.11,390.055 1582.52,328.922 1592.93,267.398 1603.34,237.468 1613.76,243.806 1624.17,271.777 1634.58,308.429 1645,347.585 1655.41,385.054 1665.82,414.709 1676.23,428.639 1686.65,420.546 1697.06,389.274 1707.47,339.321 1717.89,280.385 1728.3,229.913 1738.71,211.681 1749.12,239.204 1759.54,300.339 1769.95,369.916 1780.36,427.274 1790.78,457.972 1801.19,455.907 1811.6,424.01 1822.01,369.982 1832.43,304.05 1842.84,240.114 1853.25,196.154 1863.67,190.047 1874.08,230.67 1884.49,309.872 1894.9,402.19 1905.32,474.143 1915.73,500.049 1926.14,475.196 1936.56,413.792 1946.97,335.001 1957.38,254.463 1967.79,187.126 1978.21,152.816 1988.62,173.266 1999.03,255.277 2009.45,373.593 2019.86,479.958 2030.27,535.164 2040.68,528.48 2051.1,471.188 2061.51,382.571 2071.92,283.775 2082.33,198.025 2092.75,148.239 2103.16,148.426 2113.57,196.473 2123.99,277.889 2134.4,376.658 2144.81,477.854 2155.22,553.671 2165.64,555.54 2176.05,456.98 2186.46,307.429 2196.88,189.962 2207.29,142.008 2217.7,153.003 2228.11,199.532 2238.53,262.687 2248.94,330.4 2259.35,395.981 2269.77,456.32 2280.18,510.438 2290.59,558.499 "/>
<polyline clip-path="url(#clip732)" style="stroke:#e26f46; stroke-linecap:round; stroke-linejoin:round; stroke-width:4; stroke-opacity:1; fill:none" points="218.439,1094.13 228.852,1075.12 239.264,1061.11 249.677,1052.55 260.09,1049.71 270.503,1052.7 280.916,1061.41 291.329,1075.56 301.741,1094.69 312.154,1118.18 322.567,1145.25 332.98,1175.02 343.393,1206.53 353.805,1238.74 364.218,1270.6 374.631,1301.07 385.044,1329.17 395.457,1353.96 405.87,1374.65 416.282,1390.55 426.695,1401.15 437.108,1406.1 447.521,1405.25 457.934,1398.61 468.347,1386.4 478.759,1369.03 489.172,1347.06 499.585,1321.2 509.998,1292.31 520.411,1261.32 530.824,1229.25 541.236,1197.14 551.649,1166.03 562.062,1136.96 572.475,1110.86 582.888,1088.58 593.301,1070.86 603.713,1058.27 614.126,1051.22 624.539,1049.94 634.952,1054.48 645.365,1064.69 655.777,1080.22 666.19,1100.59 676.603,1125.11 687.016,1153 697.429,1183.33 707.842,1215.13 718.254,1247.35 728.667,1278.94 739.08,1308.87 749.493,1336.17 759.906,1359.94 770.319,1379.4 780.731,1393.93 791.144,1403.04 801.557,1406.45 811.97,1404.03 822.383,1395.87 832.796,1382.23 843.208,1363.57 853.621,1340.48 864.034,1313.72 874.447,1284.17 884.86,1252.79 895.273,1220.6 905.685,1188.66 916.098,1158 926.511,1129.64 936.924,1104.48 947.337,1083.36 957.749,1066.96 968.162,1055.82 978.575,1050.31 988.988,1050.59 999.401,1056.67 1009.81,1068.34 1020.23,1085.23 1030.64,1106.78 1041.05,1132.29 1051.46,1160.93 1061.88,1191.75 1072.29,1223.77 1082.7,1255.92 1093.12,1287.17 1103.53,1316.49 1113.94,1342.92 1124.35,1365.6 1134.77,1383.8 1145.18,1396.92 1155.59,1404.52 1166.01,1406.37 1176.42,1402.4 1186.83,1392.74 1197.24,1377.7 1207.66,1357.79 1218.07,1333.64 1228.48,1306.04 1238.9,1275.9 1249.31,1244.2 1259.72,334.907 1270.13,333.433 1280.55,334.774 1290.96,339.24 1301.37,345.462 1311.79,350.811 1322.2,352.395 1332.61,348.279 1343.02,338.468 1353.44,325.242 1363.85,312.657 1374.26,305.304 1384.68,306.715 1395.09,317.933 1405.5,336.801 1415.91,358.274 1426.33,375.761 1436.74,383.137 1447.15,376.823 1457.57,357.232 1467.98,329.053 1478.39,300.174 1488.8,279.476 1499.22,274.114 1509.63,287.112 1520.04,316.07 1530.45,353.469 1540.87,388.6 1551.28,410.633 1561.69,411.938 1572.11,390.652 1582.52,351.64 1592.93,305.461 1603.34,265.516 1613.76,244.162 1624.17,248.91 1634.58,279.868 1645,329.29 1655.41,383.469 1665.82,426.536 1676.23,445.104 1686.65,432.407 1697.06,390.655 1707.47,330.812 1717.89,269.743 1728.3,225.464 1738.71,211.827 1749.12,234.219 1759.54,287.592 1769.95,357.512 1780.36,424.049 1790.78,467.459 1801.19,474.035 1811.6,440.399 1822.01,374.903 1832.43,295.607 1842.84,225.304 1853.25,184.972 1863.67,187.521 1874.08,233.706 1884.49,311.479 1894.9,399.102 1905.32,471.218 1915.73,506.187 1926.14,492.57 1936.56,432.814 1946.97,342.972 1957.38,248.408 1967.79,176.643 1978.21,149.344 1988.62,175.799 1999.03,249.83 2009.45,351.165 2019.86,450.969 2030.27,520.053 2040.68,537.405 2051.1,496.564 2061.51,407.898 2071.92,296.021 2082.33,192.963 2092.75,129.008 2103.16,123.791 2113.57,180.301 2123.99,283.589 2134.4,404.698 2144.81,508.771 2155.22,565.086 2165.64,556.12 2176.05,482.966 2186.46,365.449 2196.88,236.769 2207.29,134.13 2217.7,87.9763 2228.11,112.979 2238.53,203.41 2248.94,334.37 2259.35,468.634 2269.77,567.23 2280.18,600.745 2290.59,558.097 "/>
<path clip-path="url(#clip730)" d="M229.49 250.738 L675.966 250.738 L675.966 95.2176 L229.49 95.2176  Z" fill="#ffffff" fill-rule="evenodd" fill-opacity="1"/>
<polyline clip-path="url(#clip730)" style="stroke:#000000; stroke-linecap:round; stroke-linejoin:round; stroke-width:4; stroke-opacity:1; fill:none" points="229.49,250.738 675.966,250.738 675.966,95.2176 229.49,95.2176 229.49,250.738 "/>
<polyline clip-path="url(#clip730)" style="stroke:#009af9; stroke-linecap:round; stroke-linejoin:round; stroke-width:16; stroke-opacity:1; fill:none" stroke-dasharray="8, 16" points="253.896,147.058 400.328,147.058 "/>
<path clip-path="url(#clip730)" d="M429.409 133.62 L429.409 146.606 L435.289 146.606 Q438.552 146.606 440.335 144.916 Q442.117 143.227 442.117 140.102 Q442.117 137 440.335 135.31 Q438.552 133.62 435.289 133.62 L429.409 133.62 M424.733 129.778 L435.289 129.778 Q441.099 129.778 444.062 132.416 Q447.048 135.032 447.048 140.102 Q447.048 145.217 444.062 147.833 Q441.099 150.449 435.289 150.449 L429.409 150.449 L429.409 164.338 L424.733 164.338 L424.733 129.778 Z" fill="#000000" fill-rule="nonzero" fill-opacity="1" /><path clip-path="url(#clip730)" d="M467.325 142.393 Q466.608 141.977 465.751 141.791 Q464.918 141.583 463.899 141.583 Q460.288 141.583 458.344 143.944 Q456.423 146.282 456.423 150.68 L456.423 164.338 L452.14 164.338 L452.14 138.412 L456.423 138.412 L456.423 142.44 Q457.765 140.078 459.918 138.944 Q462.071 137.787 465.149 137.787 Q465.589 137.787 466.122 137.856 Q466.654 137.903 467.302 138.018 L467.325 142.393 Z" fill="#000000" fill-rule="nonzero" fill-opacity="1" /><path clip-path="url(#clip730)" d="M492.927 150.31 L492.927 152.393 L473.344 152.393 Q473.622 156.791 475.983 159.106 Q478.367 161.398 482.603 161.398 Q485.057 161.398 487.348 160.796 Q489.663 160.194 491.932 158.99 L491.932 163.018 Q489.64 163.99 487.233 164.5 Q484.825 165.009 482.348 165.009 Q476.145 165.009 472.511 161.398 Q468.899 157.787 468.899 151.629 Q468.899 145.264 472.325 141.537 Q475.774 137.787 481.608 137.787 Q486.839 137.787 489.872 141.166 Q492.927 144.523 492.927 150.31 M488.668 149.06 Q488.622 145.565 486.7 143.481 Q484.802 141.398 481.654 141.398 Q478.089 141.398 475.936 143.412 Q473.807 145.426 473.483 149.083 L488.668 149.06 Z" fill="#000000" fill-rule="nonzero" fill-opacity="1" /><path clip-path="url(#clip730)" d="M516.978 142.347 L516.978 128.319 L521.237 128.319 L521.237 164.338 L516.978 164.338 L516.978 160.449 Q515.635 162.763 513.575 163.898 Q511.538 165.009 508.668 165.009 Q503.969 165.009 501.006 161.259 Q498.066 157.509 498.066 151.398 Q498.066 145.287 501.006 141.537 Q503.969 137.787 508.668 137.787 Q511.538 137.787 513.575 138.921 Q515.635 140.032 516.978 142.347 M502.464 151.398 Q502.464 156.097 504.385 158.782 Q506.33 161.444 509.709 161.444 Q513.089 161.444 515.033 158.782 Q516.978 156.097 516.978 151.398 Q516.978 146.699 515.033 144.037 Q513.089 141.352 509.709 141.352 Q506.33 141.352 504.385 144.037 Q502.464 146.699 502.464 151.398 Z" fill="#000000" fill-rule="nonzero" fill-opacity="1" /><path clip-path="url(#clip730)" d="M530.01 138.412 L534.269 138.412 L534.269 164.338 L530.01 164.338 L530.01 138.412 M530.01 128.319 L534.269 128.319 L534.269 133.713 L530.01 133.713 L530.01 128.319 Z" fill="#000000" fill-rule="nonzero" fill-opacity="1" /><path clip-path="url(#clip730)" d="M561.839 139.407 L561.839 143.389 Q560.033 142.393 558.205 141.907 Q556.399 141.398 554.547 141.398 Q550.404 141.398 548.112 144.037 Q545.82 146.652 545.82 151.398 Q545.82 156.143 548.112 158.782 Q550.404 161.398 554.547 161.398 Q556.399 161.398 558.205 160.912 Q560.033 160.402 561.839 159.407 L561.839 163.342 Q560.056 164.176 558.135 164.592 Q556.237 165.009 554.084 165.009 Q548.228 165.009 544.779 161.328 Q541.33 157.648 541.33 151.398 Q541.33 145.055 544.802 141.421 Q548.297 137.787 554.362 137.787 Q556.33 137.787 558.205 138.203 Q560.08 138.597 561.839 139.407 Z" fill="#000000" fill-rule="nonzero" fill-opacity="1" /><path clip-path="url(#clip730)" d="M573.459 131.051 L573.459 138.412 L582.232 138.412 L582.232 141.722 L573.459 141.722 L573.459 155.796 Q573.459 158.967 574.316 159.87 Q575.195 160.773 577.857 160.773 L582.232 160.773 L582.232 164.338 L577.857 164.338 Q572.927 164.338 571.052 162.509 Q569.177 160.657 569.177 155.796 L569.177 141.722 L566.052 141.722 L566.052 138.412 L569.177 138.412 L569.177 131.051 L573.459 131.051 Z" fill="#000000" fill-rule="nonzero" fill-opacity="1" /><path clip-path="url(#clip730)" d="M587.834 138.412 L592.093 138.412 L592.093 164.338 L587.834 164.338 L587.834 138.412 M587.834 128.319 L592.093 128.319 L592.093 133.713 L587.834 133.713 L587.834 128.319 Z" fill="#000000" fill-rule="nonzero" fill-opacity="1" /><path clip-path="url(#clip730)" d="M611.051 141.398 Q607.626 141.398 605.635 144.083 Q603.644 146.745 603.644 151.398 Q603.644 156.051 605.612 158.736 Q607.602 161.398 611.051 161.398 Q614.454 161.398 616.445 158.713 Q618.436 156.027 618.436 151.398 Q618.436 146.791 616.445 144.106 Q614.454 141.398 611.051 141.398 M611.051 137.787 Q616.607 137.787 619.778 141.398 Q622.95 145.009 622.95 151.398 Q622.95 157.764 619.778 161.398 Q616.607 165.009 611.051 165.009 Q605.473 165.009 602.302 161.398 Q599.153 157.764 599.153 151.398 Q599.153 145.009 602.302 141.398 Q605.473 137.787 611.051 137.787 Z" fill="#000000" fill-rule="nonzero" fill-opacity="1" /><path clip-path="url(#clip730)" d="M651.561 148.689 L651.561 164.338 L647.301 164.338 L647.301 148.828 Q647.301 145.148 645.866 143.319 Q644.431 141.49 641.561 141.49 Q638.112 141.49 636.121 143.69 Q634.13 145.889 634.13 149.685 L634.13 164.338 L629.848 164.338 L629.848 138.412 L634.13 138.412 L634.13 142.44 Q635.658 140.102 637.718 138.944 Q639.801 137.787 642.51 137.787 Q646.977 137.787 649.269 140.565 Q651.561 143.319 651.561 148.689 Z" fill="#000000" fill-rule="nonzero" fill-opacity="1" /><polyline clip-path="url(#clip730)" style="stroke:#e26f46; stroke-linecap:round; stroke-linejoin:round; stroke-width:4; stroke-opacity:1; fill:none" points="253.896,198.898 400.328,198.898 "/>
<path clip-path="url(#clip730)" d="M424.733 181.618 L446.585 181.618 L446.585 185.553 L429.409 185.553 L429.409 195.784 L445.867 195.784 L445.867 199.719 L429.409 199.719 L429.409 212.242 L447.001 212.242 L447.001 216.178 L424.733 216.178 L424.733 181.618 Z" fill="#000000" fill-rule="nonzero" fill-opacity="1" /><path clip-path="url(#clip730)" d="M476.052 190.252 L466.677 202.867 L476.538 216.178 L471.515 216.178 L463.969 205.992 L456.423 216.178 L451.4 216.178 L461.469 202.613 L452.256 190.252 L457.279 190.252 L464.154 199.488 L471.029 190.252 L476.052 190.252 Z" fill="#000000" fill-rule="nonzero" fill-opacity="1" /><path clip-path="url(#clip730)" d="M494.339 203.145 Q489.177 203.145 487.186 204.326 Q485.196 205.506 485.196 208.354 Q485.196 210.622 486.677 211.965 Q488.182 213.284 490.751 213.284 Q494.293 213.284 496.422 210.784 Q498.575 208.261 498.575 204.094 L498.575 203.145 L494.339 203.145 M502.834 201.386 L502.834 216.178 L498.575 216.178 L498.575 212.242 Q497.117 214.603 494.941 215.738 Q492.765 216.849 489.617 216.849 Q485.635 216.849 483.274 214.627 Q480.936 212.381 480.936 208.631 Q480.936 204.256 483.853 202.034 Q486.793 199.812 492.603 199.812 L498.575 199.812 L498.575 199.395 Q498.575 196.455 496.631 194.858 Q494.71 193.238 491.214 193.238 Q488.992 193.238 486.885 193.77 Q484.779 194.303 482.835 195.367 L482.835 191.432 Q485.173 190.53 487.372 190.09 Q489.571 189.627 491.654 189.627 Q497.279 189.627 500.057 192.543 Q502.834 195.46 502.834 201.386 Z" fill="#000000" fill-rule="nonzero" fill-opacity="1" /><path clip-path="url(#clip730)" d="M530.265 191.247 L530.265 195.229 Q528.459 194.233 526.631 193.747 Q524.825 193.238 522.973 193.238 Q518.83 193.238 516.538 195.877 Q514.246 198.492 514.246 203.238 Q514.246 207.983 516.538 210.622 Q518.83 213.238 522.973 213.238 Q524.825 213.238 526.631 212.752 Q528.459 212.242 530.265 211.247 L530.265 215.182 Q528.482 216.016 526.561 216.432 Q524.663 216.849 522.51 216.849 Q516.654 216.849 513.205 213.168 Q509.756 209.488 509.756 203.238 Q509.756 196.895 513.228 193.261 Q516.723 189.627 522.788 189.627 Q524.756 189.627 526.631 190.043 Q528.506 190.437 530.265 191.247 Z" fill="#000000" fill-rule="nonzero" fill-opacity="1" /><path clip-path="url(#clip730)" d="M541.885 182.891 L541.885 190.252 L550.658 190.252 L550.658 193.562 L541.885 193.562 L541.885 207.636 Q541.885 210.807 542.742 211.71 Q543.621 212.613 546.283 212.613 L550.658 212.613 L550.658 216.178 L546.283 216.178 Q541.353 216.178 539.478 214.349 Q537.603 212.497 537.603 207.636 L537.603 193.562 L534.478 193.562 L534.478 190.252 L537.603 190.252 L537.603 182.891 L541.885 182.891 Z" fill="#000000" fill-rule="nonzero" fill-opacity="1" /></svg>
