<?xml version="1.0" encoding="utf-8"?>
<svg xmlns="http://www.w3.org/2000/svg" xmlns:xlink="http://www.w3.org/1999/xlink" width="600" height="400" viewBox="0 0 2400 1600">
<defs>
  <clipPath id="clip460">
    <rect x="0" y="0" width="2400" height="1600"/>
  </clipPath>
</defs>
<path clip-path="url(#clip460)" d="M0 1600 L2400 1600 L2400 0 L0 0  Z" fill="#ffffff" fill-rule="evenodd" fill-opacity="1"/>
<defs>
  <clipPath id="clip461">
    <rect x="480" y="0" width="1681" height="1600"/>
  </clipPath>
</defs>
<path clip-path="url(#clip460)" d="M156.112 1486.45 L2352.76 1486.45 L2352.76 47.2441 L156.112 47.2441  Z" fill="#ffffff" fill-rule="evenodd" fill-opacity="1"/>
<defs>
  <clipPath id="clip462">
    <rect x="156" y="47" width="2198" height="1440"/>
  </clipPath>
</defs>
<polyline clip-path="url(#clip462)" style="stroke:#000000; stroke-linecap:round; stroke-linejoin:round; stroke-width:2; stroke-opacity:0.1; fill:none" points="218.281,1486.45 218.281,47.2441 "/>
<polyline clip-path="url(#clip462)" style="stroke:#000000; stroke-linecap:round; stroke-linejoin:round; stroke-width:2; stroke-opacity:0.1; fill:none" points="736.358,1486.45 736.358,47.2441 "/>
<polyline clip-path="url(#clip462)" style="stroke:#000000; stroke-linecap:round; stroke-linejoin:round; stroke-width:2; stroke-opacity:0.1; fill:none" points="1254.43,1486.45 1254.43,47.2441 "/>
<polyline clip-path="url(#clip462)" style="stroke:#000000; stroke-linecap:round; stroke-linejoin:round; stroke-width:2; stroke-opacity:0.1; fill:none" points="1772.51,1486.45 1772.51,47.2441 "/>
<polyline clip-path="url(#clip462)" style="stroke:#000000; stroke-linecap:round; stroke-linejoin:round; stroke-width:2; stroke-opacity:0.1; fill:none" points="2290.59,1486.45 2290.59,47.2441 "/>
<polyline clip-path="url(#clip460)" style="stroke:#000000; stroke-linecap:round; stroke-linejoin:round; stroke-width:4; stroke-opacity:1; fill:none" points="156.112,1486.45 2352.76,1486.45 "/>
<polyline clip-path="url(#clip460)" style="stroke:#000000; stroke-linecap:round; stroke-linejoin:round; stroke-width:4; stroke-opacity:1; fill:none" points="218.281,1486.45 218.281,1467.55 "/>
<polyline clip-path="url(#clip460)" style="stroke:#000000; stroke-linecap:round; stroke-linejoin:round; stroke-width:4; stroke-opacity:1; fill:none" points="736.358,1486.45 736.358,1467.55 "/>
<polyline clip-path="url(#clip460)" style="stroke:#000000; stroke-linecap:round; stroke-linejoin:round; stroke-width:4; stroke-opacity:1; fill:none" points="1254.43,1486.45 1254.43,1467.55 "/>
<polyline clip-path="url(#clip460)" style="stroke:#000000; stroke-linecap:round; stroke-linejoin:round; stroke-width:4; stroke-opacity:1; fill:none" points="1772.51,1486.45 1772.51,1467.55 "/>
<polyline clip-path="url(#clip460)" style="stroke:#000000; stroke-linecap:round; stroke-linejoin:round; stroke-width:4; stroke-opacity:1; fill:none" points="2290.59,1486.45 2290.59,1467.55 "/>
<path clip-path="url(#clip460)" d="M164.809 1532.02 L194.485 1532.02 L194.485 1535.95 L164.809 1535.95 L164.809 1532.02 Z" fill="#000000" fill-rule="nonzero" fill-opacity="1" /><path clip-path="url(#clip460)" d="M205.388 1544.91 L213.027 1544.91 L213.027 1518.55 L204.717 1520.21 L204.717 1515.95 L212.98 1514.29 L217.656 1514.29 L217.656 1544.91 L225.295 1544.91 L225.295 1548.85 L205.388 1548.85 L205.388 1544.91 Z" fill="#000000" fill-rule="nonzero" fill-opacity="1" /><path clip-path="url(#clip460)" d="M234.74 1542.97 L239.624 1542.97 L239.624 1548.85 L234.74 1548.85 L234.74 1542.97 Z" fill="#000000" fill-rule="nonzero" fill-opacity="1" /><path clip-path="url(#clip460)" d="M259.809 1517.37 Q256.198 1517.37 254.369 1520.93 Q252.564 1524.47 252.564 1531.6 Q252.564 1538.71 254.369 1542.27 Q256.198 1545.82 259.809 1545.82 Q263.443 1545.82 265.249 1542.27 Q267.077 1538.71 267.077 1531.6 Q267.077 1524.47 265.249 1520.93 Q263.443 1517.37 259.809 1517.37 M259.809 1513.66 Q265.619 1513.66 268.675 1518.27 Q271.753 1522.85 271.753 1531.6 Q271.753 1540.33 268.675 1544.94 Q265.619 1549.52 259.809 1549.52 Q253.999 1549.52 250.92 1544.94 Q247.864 1540.33 247.864 1531.6 Q247.864 1522.85 250.92 1518.27 Q253.999 1513.66 259.809 1513.66 Z" fill="#000000" fill-rule="nonzero" fill-opacity="1" /><path clip-path="url(#clip460)" d="M683.383 1532.02 L713.059 1532.02 L713.059 1535.95 L683.383 1535.95 L683.383 1532.02 Z" fill="#000000" fill-rule="nonzero" fill-opacity="1" /><path clip-path="url(#clip460)" d="M733.152 1517.37 Q729.541 1517.37 727.712 1520.93 Q725.906 1524.47 725.906 1531.6 Q725.906 1538.71 727.712 1542.27 Q729.541 1545.82 733.152 1545.82 Q736.786 1545.82 738.591 1542.27 Q740.42 1538.71 740.42 1531.6 Q740.42 1524.47 738.591 1520.93 Q736.786 1517.37 733.152 1517.37 M733.152 1513.66 Q738.962 1513.66 742.017 1518.27 Q745.096 1522.85 745.096 1531.6 Q745.096 1540.33 742.017 1544.94 Q738.962 1549.52 733.152 1549.52 Q727.341 1549.52 724.263 1544.94 Q721.207 1540.33 721.207 1531.6 Q721.207 1522.85 724.263 1518.27 Q727.341 1513.66 733.152 1513.66 Z" fill="#000000" fill-rule="nonzero" fill-opacity="1" /><path clip-path="url(#clip460)" d="M753.314 1542.97 L758.198 1542.97 L758.198 1548.85 L753.314 1548.85 L753.314 1542.97 Z" fill="#000000" fill-rule="nonzero" fill-opacity="1" /><path clip-path="url(#clip460)" d="M768.429 1514.29 L786.786 1514.29 L786.786 1518.22 L772.712 1518.22 L772.712 1526.7 Q773.73 1526.35 774.749 1526.19 Q775.767 1526 776.786 1526 Q782.573 1526 785.952 1529.17 Q789.332 1532.34 789.332 1537.76 Q789.332 1543.34 785.86 1546.44 Q782.387 1549.52 776.068 1549.52 Q773.892 1549.52 771.624 1549.15 Q769.378 1548.78 766.971 1548.04 L766.971 1543.34 Q769.054 1544.47 771.276 1545.03 Q773.499 1545.58 775.975 1545.58 Q779.98 1545.58 782.318 1543.48 Q784.656 1541.37 784.656 1537.76 Q784.656 1534.15 782.318 1532.04 Q779.98 1529.94 775.975 1529.94 Q774.101 1529.94 772.226 1530.35 Q770.374 1530.77 768.429 1531.65 L768.429 1514.29 Z" fill="#000000" fill-rule="nonzero" fill-opacity="1" /><path clip-path="url(#clip460)" d="M1231.82 1517.37 Q1228.21 1517.37 1226.38 1520.93 Q1224.57 1524.47 1224.57 1531.6 Q1224.57 1538.71 1226.38 1542.27 Q1228.21 1545.82 1231.82 1545.82 Q1235.45 1545.82 1237.26 1542.27 Q1239.09 1538.71 1239.09 1531.6 Q1239.09 1524.47 1237.26 1520.93 Q1235.45 1517.37 1231.82 1517.37 M1231.82 1513.66 Q1237.63 1513.66 1240.68 1518.27 Q1243.76 1522.85 1243.76 1531.6 Q1243.76 1540.33 1240.68 1544.94 Q1237.63 1549.52 1231.82 1549.52 Q1226.01 1549.52 1222.93 1544.94 Q1219.87 1540.33 1219.87 1531.6 Q1219.87 1522.85 1222.93 1518.27 Q1226.01 1513.66 1231.82 1513.66 Z" fill="#000000" fill-rule="nonzero" fill-opacity="1" /><path clip-path="url(#clip460)" d="M1251.98 1542.97 L1256.86 1542.97 L1256.86 1548.85 L1251.98 1548.85 L1251.98 1542.97 Z" fill="#000000" fill-rule="nonzero" fill-opacity="1" /><path clip-path="url(#clip460)" d="M1277.05 1517.37 Q1273.44 1517.37 1271.61 1520.93 Q1269.8 1524.47 1269.8 1531.6 Q1269.8 1538.71 1271.61 1542.27 Q1273.44 1545.82 1277.05 1545.82 Q1280.68 1545.82 1282.49 1542.27 Q1284.32 1538.71 1284.32 1531.6 Q1284.32 1524.47 1282.49 1520.93 Q1280.68 1517.37 1277.05 1517.37 M1277.05 1513.66 Q1282.86 1513.66 1285.92 1518.27 Q1288.99 1522.85 1288.99 1531.6 Q1288.99 1540.33 1285.92 1544.94 Q1282.86 1549.52 1277.05 1549.52 Q1271.24 1549.52 1268.16 1544.94 Q1265.11 1540.33 1265.11 1531.6 Q1265.11 1522.85 1268.16 1518.27 Q1271.24 1513.66 1277.05 1513.66 Z" fill="#000000" fill-rule="nonzero" fill-opacity="1" /><path clip-path="url(#clip460)" d="M1750.39 1517.37 Q1746.78 1517.37 1744.95 1520.93 Q1743.15 1524.47 1743.15 1531.6 Q1743.15 1538.71 1744.95 1542.27 Q1746.78 1545.82 1750.39 1545.82 Q1754.03 1545.82 1755.83 1542.27 Q1757.66 1538.71 1757.66 1531.6 Q1757.66 1524.47 1755.83 1520.93 Q1754.03 1517.37 1750.39 1517.37 M1750.39 1513.66 Q1756.2 1513.66 1759.26 1518.27 Q1762.34 1522.85 1762.34 1531.6 Q1762.34 1540.33 1759.26 1544.94 Q1756.2 1549.52 1750.39 1549.52 Q1744.58 1549.52 1741.5 1544.94 Q1738.45 1540.33 1738.45 1531.6 Q1738.45 1522.85 1741.5 1518.27 Q1744.58 1513.66 1750.39 1513.66 Z" fill="#000000" fill-rule="nonzero" fill-opacity="1" /><path clip-path="url(#clip460)" d="M1770.55 1542.97 L1775.44 1542.97 L1775.44 1548.85 L1770.55 1548.85 L1770.55 1542.97 Z" fill="#000000" fill-rule="nonzero" fill-opacity="1" /><path clip-path="url(#clip460)" d="M1785.67 1514.29 L1804.03 1514.29 L1804.03 1518.22 L1789.95 1518.22 L1789.95 1526.7 Q1790.97 1526.35 1791.99 1526.19 Q1793.01 1526 1794.03 1526 Q1799.81 1526 1803.19 1529.17 Q1806.57 1532.34 1806.57 1537.76 Q1806.57 1543.34 1803.1 1546.44 Q1799.63 1549.52 1793.31 1549.52 Q1791.13 1549.52 1788.86 1549.15 Q1786.62 1548.78 1784.21 1548.04 L1784.21 1543.34 Q1786.3 1544.47 1788.52 1545.03 Q1790.74 1545.58 1793.22 1545.58 Q1797.22 1545.58 1799.56 1543.48 Q1801.9 1541.37 1801.9 1537.76 Q1801.9 1534.15 1799.56 1532.04 Q1797.22 1529.94 1793.22 1529.94 Q1791.34 1529.94 1789.47 1530.35 Q1787.61 1530.77 1785.67 1531.65 L1785.67 1514.29 Z" fill="#000000" fill-rule="nonzero" fill-opacity="1" /><path clip-path="url(#clip460)" d="M2257.74 1544.91 L2265.38 1544.91 L2265.38 1518.55 L2257.07 1520.21 L2257.07 1515.95 L2265.33 1514.29 L2270.01 1514.29 L2270.01 1544.91 L2277.65 1544.91 L2277.65 1548.85 L2257.74 1548.85 L2257.74 1544.91 Z" fill="#000000" fill-rule="nonzero" fill-opacity="1" /><path clip-path="url(#clip460)" d="M2287.09 1542.97 L2291.98 1542.97 L2291.98 1548.85 L2287.09 1548.85 L2287.09 1542.97 Z" fill="#000000" fill-rule="nonzero" fill-opacity="1" /><path clip-path="url(#clip460)" d="M2312.16 1517.37 Q2308.55 1517.37 2306.72 1520.93 Q2304.92 1524.47 2304.92 1531.6 Q2304.92 1538.71 2306.72 1542.27 Q2308.55 1545.82 2312.16 1545.82 Q2315.79 1545.82 2317.6 1542.27 Q2319.43 1538.71 2319.43 1531.6 Q2319.43 1524.47 2317.6 1520.93 Q2315.79 1517.37 2312.16 1517.37 M2312.16 1513.66 Q2317.97 1513.66 2321.03 1518.27 Q2324.11 1522.85 2324.11 1531.6 Q2324.11 1540.33 2321.03 1544.94 Q2317.97 1549.52 2312.16 1549.52 Q2306.35 1549.52 2303.27 1544.94 Q2300.22 1540.33 2300.22 1531.6 Q2300.22 1522.85 2303.27 1518.27 Q2306.35 1513.66 2312.16 1513.66 Z" fill="#000000" fill-rule="nonzero" fill-opacity="1" /><polyline clip-path="url(#clip462)" style="stroke:#000000; stroke-linecap:round; stroke-linejoin:round; stroke-width:2; stroke-opacity:0.1; fill:none" points="156.112,1217.3 2352.76,1217.3 "/>
<polyline clip-path="url(#clip462)" style="stroke:#000000; stroke-linecap:round; stroke-linejoin:round; stroke-width:2; stroke-opacity:0.1; fill:none" points="156.112,833.243 2352.76,833.243 "/>
<polyline clip-path="url(#clip462)" style="stroke:#000000; stroke-linecap:round; stroke-linejoin:round; stroke-width:2; stroke-opacity:0.1; fill:none" points="156.112,449.183 2352.76,449.183 "/>
<polyline clip-path="url(#clip462)" style="stroke:#000000; stroke-linecap:round; stroke-linejoin:round; stroke-width:2; stroke-opacity:0.1; fill:none" points="156.112,65.122 2352.76,65.122 "/>
<polyline clip-path="url(#clip460)" style="stroke:#000000; stroke-linecap:round; stroke-linejoin:round; stroke-width:4; stroke-opacity:1; fill:none" points="156.112,1486.45 156.112,47.2441 "/>
<polyline clip-path="url(#clip460)" style="stroke:#000000; stroke-linecap:round; stroke-linejoin:round; stroke-width:4; stroke-opacity:1; fill:none" points="156.112,1217.3 175.01,1217.3 "/>
<polyline clip-path="url(#clip460)" style="stroke:#000000; stroke-linecap:round; stroke-linejoin:round; stroke-width:4; stroke-opacity:1; fill:none" points="156.112,833.243 175.01,833.243 "/>
<polyline clip-path="url(#clip460)" style="stroke:#000000; stroke-linecap:round; stroke-linejoin:round; stroke-width:4; stroke-opacity:1; fill:none" points="156.112,449.183 175.01,449.183 "/>
<polyline clip-path="url(#clip460)" style="stroke:#000000; stroke-linecap:round; stroke-linejoin:round; stroke-width:4; stroke-opacity:1; fill:none" points="156.112,65.122 175.01,65.122 "/>
<path clip-path="url(#clip460)" d="M62.9365 1203.1 Q59.3254 1203.1 57.4967 1206.67 Q55.6912 1210.21 55.6912 1217.34 Q55.6912 1224.45 57.4967 1228.01 Q59.3254 1231.55 62.9365 1231.55 Q66.5707 1231.55 68.3763 1228.01 Q70.205 1224.45 70.205 1217.34 Q70.205 1210.21 68.3763 1206.67 Q66.5707 1203.1 62.9365 1203.1 M62.9365 1199.4 Q68.7467 1199.4 71.8022 1204.01 Q74.8809 1208.59 74.8809 1217.34 Q74.8809 1226.07 71.8022 1230.67 Q68.7467 1235.26 62.9365 1235.26 Q57.1264 1235.26 54.0477 1230.67 Q50.9921 1226.07 50.9921 1217.34 Q50.9921 1208.59 54.0477 1204.01 Q57.1264 1199.4 62.9365 1199.4 Z" fill="#000000" fill-rule="nonzero" fill-opacity="1" /><path clip-path="url(#clip460)" d="M83.0984 1228.7 L87.9827 1228.7 L87.9827 1234.58 L83.0984 1234.58 L83.0984 1228.7 Z" fill="#000000" fill-rule="nonzero" fill-opacity="1" /><path clip-path="url(#clip460)" d="M108.168 1203.1 Q104.557 1203.1 102.728 1206.67 Q100.922 1210.21 100.922 1217.34 Q100.922 1224.45 102.728 1228.01 Q104.557 1231.55 108.168 1231.55 Q111.802 1231.55 113.608 1228.01 Q115.436 1224.45 115.436 1217.34 Q115.436 1210.21 113.608 1206.67 Q111.802 1203.1 108.168 1203.1 M108.168 1199.4 Q113.978 1199.4 117.033 1204.01 Q120.112 1208.59 120.112 1217.34 Q120.112 1226.07 117.033 1230.67 Q113.978 1235.26 108.168 1235.26 Q102.358 1235.26 99.2789 1230.67 Q96.2234 1226.07 96.2234 1217.34 Q96.2234 1208.59 99.2789 1204.01 Q102.358 1199.4 108.168 1199.4 Z" fill="#000000" fill-rule="nonzero" fill-opacity="1" /><path clip-path="url(#clip460)" d="M63.9319 819.042 Q60.3208 819.042 58.4921 822.607 Q56.6865 826.149 56.6865 833.278 Q56.6865 840.385 58.4921 843.949 Q60.3208 847.491 63.9319 847.491 Q67.5661 847.491 69.3717 843.949 Q71.2004 840.385 71.2004 833.278 Q71.2004 826.149 69.3717 822.607 Q67.5661 819.042 63.9319 819.042 M63.9319 815.338 Q69.742 815.338 72.7976 819.945 Q75.8763 824.528 75.8763 833.278 Q75.8763 842.005 72.7976 846.611 Q69.742 851.195 63.9319 851.195 Q58.1217 851.195 55.043 846.611 Q51.9875 842.005 51.9875 833.278 Q51.9875 824.528 55.043 819.945 Q58.1217 815.338 63.9319 815.338 Z" fill="#000000" fill-rule="nonzero" fill-opacity="1" /><path clip-path="url(#clip460)" d="M84.0938 844.644 L88.978 844.644 L88.978 850.523 L84.0938 850.523 L84.0938 844.644 Z" fill="#000000" fill-rule="nonzero" fill-opacity="1" /><path clip-path="url(#clip460)" d="M99.2095 815.963 L117.566 815.963 L117.566 819.899 L103.492 819.899 L103.492 828.371 Q104.51 828.024 105.529 827.861 Q106.547 827.676 107.566 827.676 Q113.353 827.676 116.733 830.848 Q120.112 834.019 120.112 839.435 Q120.112 845.014 116.64 848.116 Q113.168 851.195 106.848 851.195 Q104.672 851.195 102.404 850.824 Q100.159 850.454 97.7511 849.713 L97.7511 845.014 Q99.8345 846.148 102.057 846.704 Q104.279 847.26 106.756 847.26 Q110.76 847.26 113.098 845.153 Q115.436 843.047 115.436 839.435 Q115.436 835.824 113.098 833.718 Q110.76 831.611 106.756 831.611 Q104.881 831.611 103.006 832.028 Q101.154 832.445 99.2095 833.324 L99.2095 815.963 Z" fill="#000000" fill-rule="nonzero" fill-opacity="1" /><path clip-path="url(#clip460)" d="M53.7467 462.528 L61.3856 462.528 L61.3856 436.162 L53.0754 437.829 L53.0754 433.569 L61.3393 431.903 L66.0152 431.903 L66.0152 462.528 L73.654 462.528 L73.654 466.463 L53.7467 466.463 L53.7467 462.528 Z" fill="#000000" fill-rule="nonzero" fill-opacity="1" /><path clip-path="url(#clip460)" d="M83.0984 460.583 L87.9827 460.583 L87.9827 466.463 L83.0984 466.463 L83.0984 460.583 Z" fill="#000000" fill-rule="nonzero" fill-opacity="1" /><path clip-path="url(#clip460)" d="M108.168 434.981 Q104.557 434.981 102.728 438.546 Q100.922 442.088 100.922 449.217 Q100.922 456.324 102.728 459.889 Q104.557 463.43 108.168 463.43 Q111.802 463.43 113.608 459.889 Q115.436 456.324 115.436 449.217 Q115.436 442.088 113.608 438.546 Q111.802 434.981 108.168 434.981 M108.168 431.278 Q113.978 431.278 117.033 435.884 Q120.112 440.467 120.112 449.217 Q120.112 457.944 117.033 462.551 Q113.978 467.134 108.168 467.134 Q102.358 467.134 99.2789 462.551 Q96.2234 457.944 96.2234 449.217 Q96.2234 440.467 99.2789 435.884 Q102.358 431.278 108.168 431.278 Z" fill="#000000" fill-rule="nonzero" fill-opacity="1" /><path clip-path="url(#clip460)" d="M54.7421 78.4669 L62.381 78.4669 L62.381 52.1013 L54.0708 53.7679 L54.0708 49.5087 L62.3347 47.842 L67.0106 47.842 L67.0106 78.4669 L74.6494 78.4669 L74.6494 82.402 L54.7421 82.402 L54.7421 78.4669 Z" fill="#000000" fill-rule="nonzero" fill-opacity="1" /><path clip-path="url(#clip460)" d="M84.0938 76.5224 L88.978 76.5224 L88.978 82.402 L84.0938 82.402 L84.0938 76.5224 Z" fill="#000000" fill-rule="nonzero" fill-opacity="1" /><path clip-path="url(#clip460)" d="M99.2095 47.842 L117.566 47.842 L117.566 51.7772 L103.492 51.7772 L103.492 60.2494 Q104.51 59.9021 105.529 59.7401 Q106.547 59.5549 107.566 59.5549 Q113.353 59.5549 116.733 62.7262 Q120.112 65.8975 120.112 71.3141 Q120.112 76.8928 116.64 79.9946 Q113.168 83.0733 106.848 83.0733 Q104.672 83.0733 102.404 82.7029 Q100.159 82.3326 97.7511 81.5918 L97.7511 76.8928 Q99.8345 78.027 102.057 78.5826 Q104.279 79.1381 106.756 79.1381 Q110.76 79.1381 113.098 77.0317 Q115.436 74.9252 115.436 71.3141 Q115.436 67.703 113.098 65.5966 Q110.76 63.4901 106.756 63.4901 Q104.881 63.4901 103.006 63.9067 Q101.154 64.3234 99.2095 65.203 L99.2095 47.842 Z" fill="#000000" fill-rule="nonzero" fill-opacity="1" /><polyline clip-path="url(#clip462)" style="stroke:#009af9; stroke-linecap:round; stroke-linejoin:round; stroke-width:16; stroke-opacity:1; fill:none" stroke-dasharray="8, 16" points="218.281,1101.93 228.695,1115.27 239.108,1130.39 249.522,1109.09 259.936,1065.87 270.349,1049.19 280.763,1073.99 291.176,1104.86 301.59,1106.27 312.004,1089.92 322.417,1077.31 332.831,1094.61 343.244,1179.91 353.658,1323.78 364.072,1434.74 374.485,1437.53 384.899,1341.31 395.312,1216.8 405.726,1154.21 416.14,1203.46 426.553,1331.66 436.967,1417.75 447.38,1411 457.794,1382.55 468.208,1361.83 478.621,1312.92 489.035,1239.51 499.448,1194.92 509.862,1223.73 520.276,1324.91 530.689,1410.3 541.103,1378.32 551.516,1234.48 561.93,1073.58 572.344,977.808 582.757,971.707 593.171,1032.31 603.584,1108.11 613.998,1158.46 624.411,1160.57 634.825,1111.97 645.239,1052.14 655.652,1039.71 666.066,1087.22 676.479,1137.85 686.893,1140.5 697.307,1126.03 707.72,1145.82 718.134,1204.46 728.547,1270.64 738.961,1327.97 749.375,1375.46 759.788,1383.78 770.202,1329.06 780.615,1256.46 791.029,1259.8 801.443,1327.43 811.856,1372.44 822.27,1361.67 832.683,1324.61 843.097,1305.71 853.511,1317.7 863.924,1341.82 874.338,1338.73 884.751,1282.9 895.165,1210.22 905.579,1175.98 915.992,1166.71 926.406,1144.09 936.819,1111.31 947.233,1083.75 957.647,1062.37 968.06,1049.74 978.474,1060.98 988.887,1102.94 999.301,1151.28 1009.71,1159.19 1020.13,1107.64 1030.54,1063.24 1040.96,1104.95 1051.37,1181.33 1061.78,1197.22 1072.2,1166.12 1082.61,1145.14 1093.02,1174.33 1103.44,1267.45 1113.85,1371.08 1124.26,1399.97 1134.68,1368.47 1145.09,1358.2 1155.5,1390.19 1165.92,1433.9 1176.33,1445.72 1186.75,1392.98 1197.16,1292.88 1207.57,1226.96 1217.99,1262.12 1228.4,1314.24 1238.81,1128.02 1249.23,710.801 1259.64,561.218 1270.05,451.541 1280.47,483.775 1290.88,590.694 1301.3,607.572 1311.71,523.593 1322.12,429.019 1332.54,389.721 1342.95,403.502 1353.36,429.31 1363.78,426.479 1374.19,381.728 1384.6,335.75 1395.02,369.42 1405.43,477.863 1415.84,568.91 1426.26,593.946 1436.67,552.456 1447.09,466.01 1457.5,405.734 1467.91,421.484 1478.33,437.173 1488.74,392.785 1499.15,347.982 1509.57,359.82 1519.98,411.476 1530.39,465.613 1540.81,503.28 1551.22,521.414 1561.64,519.699 1572.05,495.775 1582.46,454.748 1592.88,415.815 1603.29,392.091 1613.7,370.273 1624.12,349.977 1634.53,365.367 1644.94,424.481 1655.36,489.27 1665.77,521.709 1676.18,513.321 1686.6,488.127 1697.01,486.537 1707.43,516.875 1717.84,539.147 1728.25,482.662 1738.67,364.406 1749.08,295.547 1759.49,316.853 1769.91,402.669 1780.32,510.073 1790.73,600.947 1801.15,635.468 1811.56,590.084 1821.97,491.993 1832.39,413.891 1842.8,394.166 1853.22,385.872 1863.63,349.443 1874.04,313.895 1884.46,329.41 1894.87,408.452 1905.28,526.959 1915.7,648.527 1926.11,720.259 1936.52,683.363 1946.94,524.992 1957.35,299.582 1967.77,117.188 1978.18,87.9763 1988.59,229.002 1999.01,423.767 2009.42,559.242 2019.83,621.922 2030.25,631.899 2040.66,614.999 2051.07,579.035 2061.49,498.491 2071.9,393.769 2082.31,344.668 2092.73,365.659 2103.14,398.024 2113.56,399.961 2123.97,372.478 2134.38,367.073 2144.8,429.909 2155.21,553.226 2165.62,657.418 2176.04,658.329 2186.45,554.147 2196.86,402.027 2207.28,271.472 2217.69,232.884 2228.11,300.566 2238.52,393.477 2248.93,441.931 2259.35,464.296 2269.76,515.633 2280.17,592.413 2290.59,640.286 "/>
<polyline clip-path="url(#clip462)" style="stroke:#e26f46; stroke-linecap:round; stroke-linejoin:round; stroke-width:4; stroke-opacity:1; fill:none" points="218.281,1101.93 228.695,1085.57 239.108,1073.5 249.522,1066.12 259.936,1063.68 270.349,1066.25 280.763,1073.76 291.176,1085.94 301.59,1102.42 312.004,1122.64 322.417,1145.96 332.831,1171.6 343.244,1198.73 353.658,1226.47 364.072,1253.91 374.485,1280.16 384.899,1304.36 395.312,1325.71 405.726,1343.52 416.14,1357.22 426.553,1366.35 436.967,1370.62 447.38,1369.88 457.794,1364.16 468.208,1353.65 478.621,1338.69 489.035,1319.76 499.448,1297.5 509.862,1272.61 520.276,1245.92 530.689,1218.3 541.103,1190.65 551.516,1163.86 561.93,1138.82 572.344,1116.34 582.757,1097.15 593.171,1081.89 603.584,1071.05 613.998,1064.98 624.411,1063.88 634.825,1067.79 645.239,1076.58 655.652,1089.96 666.066,1107.49 676.479,1128.62 686.893,1152.63 697.307,1178.76 707.72,1206.14 718.134,1233.89 728.547,1261.1 738.961,1286.88 749.375,1310.39 759.788,1330.86 770.202,1347.62 780.615,1360.13 791.029,1367.98 801.443,1370.91 811.856,1368.83 822.27,1361.8 832.683,1350.06 843.097,1333.98 853.511,1314.1 863.924,1291.05 874.338,1265.6 884.751,1238.58 895.165,1210.86 905.579,1183.35 915.992,1156.94 926.406,1132.51 936.819,1110.85 947.233,1092.66 957.647,1078.53 968.06,1068.94 978.474,1064.19 988.887,1064.44 999.301,1069.67 1009.71,1079.73 1020.13,1094.27 1030.54,1112.83 1040.96,1134.8 1051.37,1159.46 1061.78,1186.01 1072.2,1213.58 1082.61,1241.27 1093.02,1268.18 1103.44,1293.43 1113.85,1316.2 1124.26,1335.74 1134.68,1351.41 1145.09,1362.7 1155.5,1369.25 1165.92,1370.84 1176.33,1367.42 1186.75,1359.1 1197.16,1346.16 1207.57,1329 1217.99,1308.2 1228.4,1284.44 1238.81,1258.48 1249.23,1231.18 1259.64,448.067 1270.05,446.798 1280.47,447.953 1290.88,451.799 1301.3,457.158 1311.71,461.764 1322.12,463.128 1332.54,459.584 1342.95,451.135 1353.36,439.744 1363.78,428.905 1374.19,422.573 1384.6,423.788 1395.02,433.449 1405.43,449.699 1415.84,468.192 1426.26,483.252 1436.67,489.605 1447.09,484.167 1457.5,467.294 1467.91,443.026 1478.33,418.154 1488.74,400.329 1499.15,395.711 1509.57,406.905 1519.98,431.845 1530.39,464.054 1540.81,494.31 1551.22,513.285 1561.64,514.409 1572.05,496.077 1582.46,462.479 1592.88,422.708 1603.29,388.306 1613.7,369.915 1624.12,374.005 1634.53,400.666 1644.94,443.23 1655.36,489.891 1665.77,526.981 1676.18,542.972 1686.6,532.037 1697.01,496.079 1707.43,444.54 1717.84,391.947 1728.25,353.812 1738.67,342.067 1749.08,361.352 1759.49,407.318 1769.91,467.535 1780.32,524.84 1790.73,562.226 1801.15,567.889 1811.56,538.92 1821.97,482.514 1832.39,414.221 1842.8,353.674 1853.22,318.939 1863.63,321.134 1874.04,360.91 1884.46,427.891 1894.87,503.354 1905.28,565.463 1915.7,595.579 1926.11,583.852 1936.52,532.388 1946.94,455.013 1957.35,373.572 1967.77,311.765 1978.18,288.255 1988.59,311.039 1999.01,374.797 2009.42,462.069 2019.83,548.024 2030.25,607.521 2040.66,622.465 2051.07,587.291 2061.49,510.93 2071.9,414.577 2082.31,325.821 2092.73,270.741 2103.14,266.248 2113.56,314.916 2123.97,403.871 2134.38,508.173 2144.8,597.805 2155.21,646.305 2165.62,638.583 2176.04,575.581 2186.45,474.371 2196.86,363.548 2207.28,275.152 2217.69,235.403 2228.11,256.936 2238.52,334.818 2248.93,447.605 2259.35,563.237 2269.76,648.151 2280.17,677.016 2290.59,640.286 "/>
<path clip-path="url(#clip460)" d="M229.334 250.738 L675.825 250.738 L675.825 95.2176 L229.334 95.2176  Z" fill="#ffffff" fill-rule="evenodd" fill-opacity="1"/>
<polyline clip-path="url(#clip460)" style="stroke:#000000; stroke-linecap:round; stroke-linejoin:round; stroke-width:4; stroke-opacity:1; fill:none" points="229.334,250.738 675.825,250.738 675.825,95.2176 229.334,95.2176 229.334,250.738 "/>
<polyline clip-path="url(#clip460)" style="stroke:#009af9; stroke-linecap:round; stroke-linejoin:round; stroke-width:16; stroke-opacity:1; fill:none" stroke-dasharray="8, 16" points="253.741,147.058 400.184,147.058 "/>
<path clip-path="url(#clip460)" d="M429.267 133.62 L429.267 146.606 L435.146 146.606 Q438.41 146.606 440.193 144.916 Q441.975 143.227 441.975 140.102 Q441.975 137 440.193 135.31 Q438.41 133.62 435.146 133.62 L429.267 133.62 M424.591 129.778 L435.146 129.778 Q440.956 129.778 443.919 132.416 Q446.906 135.032 446.906 140.102 Q446.906 145.217 443.919 147.833 Q440.956 150.449 435.146 150.449 L429.267 150.449 L429.267 164.338 L424.591 164.338 L424.591 129.778 Z" fill="#000000" fill-rule="nonzero" fill-opacity="1" /><path clip-path="url(#clip460)" d="M467.183 142.393 Q466.466 141.977 465.609 141.791 Q464.776 141.583 463.757 141.583 Q460.146 141.583 458.202 143.944 Q456.28 146.282 456.28 150.68 L456.28 164.338 L451.998 164.338 L451.998 138.412 L456.28 138.412 L456.28 142.44 Q457.623 140.078 459.776 138.944 Q461.929 137.787 465.007 137.787 Q465.447 137.787 465.979 137.856 Q466.512 137.903 467.16 138.018 L467.183 142.393 Z" fill="#000000" fill-rule="nonzero" fill-opacity="1" /><path clip-path="url(#clip460)" d="M492.785 150.31 L492.785 152.393 L473.202 152.393 Q473.479 156.791 475.841 159.106 Q478.225 161.398 482.461 161.398 Q484.915 161.398 487.206 160.796 Q489.521 160.194 491.79 158.99 L491.79 163.018 Q489.498 163.99 487.09 164.5 Q484.683 165.009 482.206 165.009 Q476.003 165.009 472.368 161.398 Q468.757 157.787 468.757 151.629 Q468.757 145.264 472.183 141.537 Q475.632 137.787 481.466 137.787 Q486.697 137.787 489.729 141.166 Q492.785 144.523 492.785 150.31 M488.526 149.06 Q488.479 145.565 486.558 143.481 Q484.66 141.398 481.512 141.398 Q477.947 141.398 475.794 143.412 Q473.665 145.426 473.341 149.083 L488.526 149.06 Z" fill="#000000" fill-rule="nonzero" fill-opacity="1" /><path clip-path="url(#clip460)" d="M516.836 142.347 L516.836 128.319 L521.095 128.319 L521.095 164.338 L516.836 164.338 L516.836 160.449 Q515.493 162.763 513.433 163.898 Q511.396 165.009 508.526 165.009 Q503.826 165.009 500.864 161.259 Q497.924 157.509 497.924 151.398 Q497.924 145.287 500.864 141.537 Q503.826 137.787 508.526 137.787 Q511.396 137.787 513.433 138.921 Q515.493 140.032 516.836 142.347 M502.322 151.398 Q502.322 156.097 504.243 158.782 Q506.188 161.444 509.567 161.444 Q512.947 161.444 514.891 158.782 Q516.836 156.097 516.836 151.398 Q516.836 146.699 514.891 144.037 Q512.947 141.352 509.567 141.352 Q506.188 141.352 504.243 144.037 Q502.322 146.699 502.322 151.398 Z" fill="#000000" fill-rule="nonzero" fill-opacity="1" /><path clip-path="url(#clip460)" d="M529.868 138.412 L534.127 138.412 L534.127 164.338 L529.868 164.338 L529.868 138.412 M529.868 128.319 L534.127 128.319 L534.127 133.713 L529.868 133.713 L529.868 128.319 Z" fill="#000000" fill-rule="nonzero" fill-opacity="1" /><path clip-path="url(#clip460)" d="M561.697 139.407 L561.697 143.389 Q559.891 142.393 558.062 141.907 Q556.257 141.398 554.405 141.398 Q550.261 141.398 547.97 144.037 Q545.678 146.652 545.678 151.398 Q545.678 156.143 547.97 158.782 Q550.261 161.398 554.405 161.398 Q556.257 161.398 558.062 160.912 Q559.891 160.402 561.697 159.407 L561.697 163.342 Q559.914 164.176 557.993 164.592 Q556.095 165.009 553.942 165.009 Q548.086 165.009 544.636 161.328 Q541.187 157.648 541.187 151.398 Q541.187 145.055 544.66 141.421 Q548.155 137.787 554.22 137.787 Q556.187 137.787 558.062 138.203 Q559.937 138.597 561.697 139.407 Z" fill="#000000" fill-rule="nonzero" fill-opacity="1" /><path clip-path="url(#clip460)" d="M573.317 131.051 L573.317 138.412 L582.09 138.412 L582.09 141.722 L573.317 141.722 L573.317 155.796 Q573.317 158.967 574.173 159.87 Q575.053 160.773 577.715 160.773 L582.09 160.773 L582.09 164.338 L577.715 164.338 Q572.784 164.338 570.909 162.509 Q569.034 160.657 569.034 155.796 L569.034 141.722 L565.909 141.722 L565.909 138.412 L569.034 138.412 L569.034 131.051 L573.317 131.051 Z" fill="#000000" fill-rule="nonzero" fill-opacity="1" /><path clip-path="url(#clip460)" d="M587.692 138.412 L591.951 138.412 L591.951 164.338 L587.692 164.338 L587.692 138.412 M587.692 128.319 L591.951 128.319 L591.951 133.713 L587.692 133.713 L587.692 128.319 Z" fill="#000000" fill-rule="nonzero" fill-opacity="1" /><path clip-path="url(#clip460)" d="M610.909 141.398 Q607.483 141.398 605.493 144.083 Q603.502 146.745 603.502 151.398 Q603.502 156.051 605.469 158.736 Q607.46 161.398 610.909 161.398 Q614.312 161.398 616.303 158.713 Q618.293 156.027 618.293 151.398 Q618.293 146.791 616.303 144.106 Q614.312 141.398 610.909 141.398 M610.909 137.787 Q616.465 137.787 619.636 141.398 Q622.807 145.009 622.807 151.398 Q622.807 157.764 619.636 161.398 Q616.465 165.009 610.909 165.009 Q605.331 165.009 602.159 161.398 Q599.011 157.764 599.011 151.398 Q599.011 145.009 602.159 141.398 Q605.331 137.787 610.909 137.787 Z" fill="#000000" fill-rule="nonzero" fill-opacity="1" /><path clip-path="url(#clip460)" d="M651.418 148.689 L651.418 164.338 L647.159 164.338 L647.159 148.828 Q647.159 145.148 645.724 143.319 Q644.289 141.49 641.418 141.49 Q637.969 141.49 635.979 143.69 Q633.988 145.889 633.988 149.685 L633.988 164.338 L629.705 164.338 L629.705 138.412 L633.988 138.412 L633.988 142.44 Q635.516 140.102 637.576 138.944 Q639.659 137.787 642.367 137.787 Q646.835 137.787 649.127 140.565 Q651.418 143.319 651.418 148.689 Z" fill="#000000" fill-rule="nonzero" fill-opacity="1" /><polyline clip-path="url(#clip460)" style="stroke:#e26f46; stroke-linecap:round; stroke-linejoin:round; stroke-width:4; stroke-opacity:1; fill:none" points="253.741,198.898 400.184,198.898 "/>
<path clip-path="url(#clip460)" d="M424.591 181.618 L446.443 181.618 L446.443 185.553 L429.267 185.553 L429.267 195.784 L445.725 195.784 L445.725 199.719 L429.267 199.719 L429.267 212.242 L446.859 212.242 L446.859 216.178 L424.591 216.178 L424.591 181.618 Z" fill="#000000" fill-rule="nonzero" fill-opacity="1" /><path clip-path="url(#clip460)" d="M475.91 190.252 L466.535 202.867 L476.396 216.178 L471.373 216.178 L463.827 205.992 L456.28 216.178 L451.257 216.178 L461.327 202.613 L452.114 190.252 L457.137 190.252 L464.012 199.488 L470.887 190.252 L475.91 190.252 Z" fill="#000000" fill-rule="nonzero" fill-opacity="1" /><path clip-path="url(#clip460)" d="M494.197 203.145 Q489.035 203.145 487.044 204.326 Q485.053 205.506 485.053 208.354 Q485.053 210.622 486.535 211.965 Q488.04 213.284 490.609 213.284 Q494.151 213.284 496.28 210.784 Q498.433 208.261 498.433 204.094 L498.433 203.145 L494.197 203.145 M502.692 201.386 L502.692 216.178 L498.433 216.178 L498.433 212.242 Q496.975 214.603 494.799 215.738 Q492.623 216.849 489.475 216.849 Q485.493 216.849 483.132 214.627 Q480.794 212.381 480.794 208.631 Q480.794 204.256 483.711 202.034 Q486.651 199.812 492.461 199.812 L498.433 199.812 L498.433 199.395 Q498.433 196.455 496.489 194.858 Q494.567 193.238 491.072 193.238 Q488.85 193.238 486.743 193.77 Q484.637 194.303 482.692 195.367 L482.692 191.432 Q485.03 190.53 487.229 190.09 Q489.428 189.627 491.512 189.627 Q497.137 189.627 499.914 192.543 Q502.692 195.46 502.692 201.386 Z" fill="#000000" fill-rule="nonzero" fill-opacity="1" /><path clip-path="url(#clip460)" d="M530.123 191.247 L530.123 195.229 Q528.317 194.233 526.488 193.747 Q524.683 193.238 522.831 193.238 Q518.688 193.238 516.396 195.877 Q514.104 198.492 514.104 203.238 Q514.104 207.983 516.396 210.622 Q518.688 213.238 522.831 213.238 Q524.683 213.238 526.488 212.752 Q528.317 212.242 530.123 211.247 L530.123 215.182 Q528.34 216.016 526.419 216.432 Q524.521 216.849 522.368 216.849 Q516.512 216.849 513.063 213.168 Q509.614 209.488 509.614 203.238 Q509.614 196.895 513.086 193.261 Q516.581 189.627 522.646 189.627 Q524.613 189.627 526.488 190.043 Q528.363 190.437 530.123 191.247 Z" fill="#000000" fill-rule="nonzero" fill-opacity="1" /><path clip-path="url(#clip460)" d="M541.743 182.891 L541.743 190.252 L550.516 190.252 L550.516 193.562 L541.743 193.562 L541.743 207.636 Q541.743 210.807 542.599 211.71 Q543.479 212.613 546.141 212.613 L550.516 212.613 L550.516 216.178 L546.141 216.178 Q541.211 216.178 539.336 214.349 Q537.461 212.497 537.461 207.636 L537.461 193.562 L534.336 193.562 L534.336 190.252 L537.461 190.252 L537.461 182.891 L541.743 182.891 Z" fill="#000000" fill-rule="nonzero" fill-opacity="1" /></svg>
