<?xml version="1.0" encoding="utf-8"?>
<svg xmlns="http://www.w3.org/2000/svg" xmlns:xlink="http://www.w3.org/1999/xlink" width="600" height="400" viewBox="0 0 2400 1600">
<defs>
  <clipPath id="clip590">
    <rect x="0" y="0" width="2400" height="1600"/>
  </clipPath>
</defs>
<path clip-path="url(#clip590)" d="
M0 1600 L2400 1600 L2400 0 L0 0  Z
  " fill="#ffffff" fill-rule="evenodd" fill-opacity="1"/>
<defs>
  <clipPath id="clip591">
    <rect x="480" y="0" width="1681" height="1600"/>
  </clipPath>
</defs>
<path clip-path="url(#clip590)" d="
M156.274 1486.45 L2352.76 1486.45 L2352.76 47.2441 L156.274 47.2441  Z
  " fill="#ffffff" fill-rule="evenodd" fill-opacity="1"/>
<defs>
  <clipPath id="clip592">
    <rect x="156" y="47" width="2197" height="1440"/>
  </clipPath>
</defs>
<polyline clip-path="url(#clip592)" style="stroke:#000000; stroke-linecap:round; stroke-linejoin:round; stroke-width:2; stroke-opacity:0.1; fill:none" points="
  218.439,1486.45 218.439,47.2441 
  "/>
<polyline clip-path="url(#clip592)" style="stroke:#000000; stroke-linecap:round; stroke-linejoin:round; stroke-width:2; stroke-opacity:0.1; fill:none" points="
  736.477,1486.45 736.477,47.2441 
  "/>
<polyline clip-path="url(#clip592)" style="stroke:#000000; stroke-linecap:round; stroke-linejoin:round; stroke-width:2; stroke-opacity:0.1; fill:none" points="
  1254.52,1486.45 1254.52,47.2441 
  "/>
<polyline clip-path="url(#clip592)" style="stroke:#000000; stroke-linecap:round; stroke-linejoin:round; stroke-width:2; stroke-opacity:0.1; fill:none" points="
  1772.55,1486.45 1772.55,47.2441 
  "/>
<polyline clip-path="url(#clip592)" style="stroke:#000000; stroke-linecap:round; stroke-linejoin:round; stroke-width:2; stroke-opacity:0.1; fill:none" points="
  2290.59,1486.45 2290.59,47.2441 
  "/>
<polyline clip-path="url(#clip590)" style="stroke:#000000; stroke-linecap:round; stroke-linejoin:round; stroke-width:4; stroke-opacity:1; fill:none" points="
  156.274,1486.45 2352.76,1486.45 
  "/>
<polyline clip-path="url(#clip590)" style="stroke:#000000; stroke-linecap:round; stroke-linejoin:round; stroke-width:4; stroke-opacity:1; fill:none" points="
  218.439,1486.45 218.439,1467.55 
  "/>
<polyline clip-path="url(#clip590)" style="stroke:#000000; stroke-linecap:round; stroke-linejoin:round; stroke-width:4; stroke-opacity:1; fill:none" points="
  736.477,1486.45 736.477,1467.55 
  "/>
<polyline clip-path="url(#clip590)" style="stroke:#000000; stroke-linecap:round; stroke-linejoin:round; stroke-width:4; stroke-opacity:1; fill:none" points="
  1254.52,1486.45 1254.52,1467.55 
  "/>
<polyline clip-path="url(#clip590)" style="stroke:#000000; stroke-linecap:round; stroke-linejoin:round; stroke-width:4; stroke-opacity:1; fill:none" points="
  1772.55,1486.45 1772.55,1467.55 
  "/>
<polyline clip-path="url(#clip590)" style="stroke:#000000; stroke-linecap:round; stroke-linejoin:round; stroke-width:4; stroke-opacity:1; fill:none" points="
  2290.59,1486.45 2290.59,1467.55 
  "/>
<path clip-path="url(#clip590)" d="M164.967 1532.02 L194.643 1532.02 L194.643 1535.95 L164.967 1535.95 L164.967 1532.02 Z" fill="#000000" fill-rule="evenodd" fill-opacity="1" /><path clip-path="url(#clip590)" d="M205.545 1544.91 L213.184 1544.91 L213.184 1518.55 L204.874 1520.21 L204.874 1515.95 L213.138 1514.29 L217.814 1514.29 L217.814 1544.91 L225.453 1544.91 L225.453 1548.85 L205.545 1548.85 L205.545 1544.91 Z" fill="#000000" fill-rule="evenodd" fill-opacity="1" /><path clip-path="url(#clip590)" d="M234.897 1542.97 L239.781 1542.97 L239.781 1548.85 L234.897 1548.85 L234.897 1542.97 Z" fill="#000000" fill-rule="evenodd" fill-opacity="1" /><path clip-path="url(#clip590)" d="M259.966 1517.37 Q256.355 1517.37 254.527 1520.93 Q252.721 1524.47 252.721 1531.6 Q252.721 1538.71 254.527 1542.27 Q256.355 1545.82 259.966 1545.82 Q263.601 1545.82 265.406 1542.27 Q267.235 1538.71 267.235 1531.6 Q267.235 1524.47 265.406 1520.93 Q263.601 1517.37 259.966 1517.37 M259.966 1513.66 Q265.776 1513.66 268.832 1518.27 Q271.911 1522.85 271.911 1531.6 Q271.911 1540.33 268.832 1544.94 Q265.776 1549.52 259.966 1549.52 Q254.156 1549.52 251.077 1544.94 Q248.022 1540.33 248.022 1531.6 Q248.022 1522.85 251.077 1518.27 Q254.156 1513.66 259.966 1513.66 Z" fill="#000000" fill-rule="evenodd" fill-opacity="1" /><path clip-path="url(#clip590)" d="M683.503 1532.02 L713.178 1532.02 L713.178 1535.95 L683.503 1535.95 L683.503 1532.02 Z" fill="#000000" fill-rule="evenodd" fill-opacity="1" /><path clip-path="url(#clip590)" d="M733.271 1517.37 Q729.66 1517.37 727.831 1520.93 Q726.026 1524.47 726.026 1531.6 Q726.026 1538.71 727.831 1542.27 Q729.66 1545.82 733.271 1545.82 Q736.905 1545.82 738.711 1542.27 Q740.539 1538.71 740.539 1531.6 Q740.539 1524.47 738.711 1520.93 Q736.905 1517.37 733.271 1517.37 M733.271 1513.66 Q739.081 1513.66 742.137 1518.27 Q745.215 1522.85 745.215 1531.6 Q745.215 1540.33 742.137 1544.94 Q739.081 1549.52 733.271 1549.52 Q727.461 1549.52 724.382 1544.94 Q721.327 1540.33 721.327 1531.6 Q721.327 1522.85 724.382 1518.27 Q727.461 1513.66 733.271 1513.66 Z" fill="#000000" fill-rule="evenodd" fill-opacity="1" /><path clip-path="url(#clip590)" d="M753.433 1542.97 L758.317 1542.97 L758.317 1548.85 L753.433 1548.85 L753.433 1542.97 Z" fill="#000000" fill-rule="evenodd" fill-opacity="1" /><path clip-path="url(#clip590)" d="M768.548 1514.29 L786.905 1514.29 L786.905 1518.22 L772.831 1518.22 L772.831 1526.7 Q773.849 1526.35 774.868 1526.19 Q775.886 1526 776.905 1526 Q782.692 1526 786.072 1529.17 Q789.451 1532.34 789.451 1537.76 Q789.451 1543.34 785.979 1546.44 Q782.507 1549.52 776.187 1549.52 Q774.011 1549.52 771.743 1549.15 Q769.498 1548.78 767.09 1548.04 L767.09 1543.34 Q769.173 1544.47 771.396 1545.03 Q773.618 1545.58 776.095 1545.58 Q780.099 1545.58 782.437 1543.48 Q784.775 1541.37 784.775 1537.76 Q784.775 1534.15 782.437 1532.04 Q780.099 1529.94 776.095 1529.94 Q774.22 1529.94 772.345 1530.35 Q770.493 1530.77 768.548 1531.65 L768.548 1514.29 Z" fill="#000000" fill-rule="evenodd" fill-opacity="1" /><path clip-path="url(#clip590)" d="M1231.9 1517.37 Q1228.29 1517.37 1226.46 1520.93 Q1224.65 1524.47 1224.65 1531.6 Q1224.65 1538.71 1226.46 1542.27 Q1228.29 1545.82 1231.9 1545.82 Q1235.53 1545.82 1237.34 1542.27 Q1239.17 1538.71 1239.17 1531.6 Q1239.17 1524.47 1237.34 1520.93 Q1235.53 1517.37 1231.9 1517.37 M1231.9 1513.66 Q1237.71 1513.66 1240.77 1518.27 Q1243.84 1522.85 1243.84 1531.6 Q1243.84 1540.33 1240.77 1544.94 Q1237.71 1549.52 1231.9 1549.52 Q1226.09 1549.52 1223.01 1544.94 Q1219.96 1540.33 1219.96 1531.6 Q1219.96 1522.85 1223.01 1518.27 Q1226.09 1513.66 1231.9 1513.66 Z" fill="#000000" fill-rule="evenodd" fill-opacity="1" /><path clip-path="url(#clip590)" d="M1252.06 1542.97 L1256.95 1542.97 L1256.95 1548.85 L1252.06 1548.85 L1252.06 1542.97 Z" fill="#000000" fill-rule="evenodd" fill-opacity="1" /><path clip-path="url(#clip590)" d="M1277.13 1517.37 Q1273.52 1517.37 1271.69 1520.93 Q1269.89 1524.47 1269.89 1531.6 Q1269.89 1538.71 1271.69 1542.27 Q1273.52 1545.82 1277.13 1545.82 Q1280.76 1545.82 1282.57 1542.27 Q1284.4 1538.71 1284.4 1531.6 Q1284.4 1524.47 1282.57 1520.93 Q1280.76 1517.37 1277.13 1517.37 M1277.13 1513.66 Q1282.94 1513.66 1286 1518.27 Q1289.08 1522.85 1289.08 1531.6 Q1289.08 1540.33 1286 1544.94 Q1282.94 1549.52 1277.13 1549.52 Q1271.32 1549.52 1268.24 1544.94 Q1265.19 1540.33 1265.19 1531.6 Q1265.19 1522.85 1268.24 1518.27 Q1271.32 1513.66 1277.13 1513.66 Z" fill="#000000" fill-rule="evenodd" fill-opacity="1" /><path clip-path="url(#clip590)" d="M1750.44 1517.37 Q1746.82 1517.37 1745 1520.93 Q1743.19 1524.47 1743.19 1531.6 Q1743.19 1538.71 1745 1542.27 Q1746.82 1545.82 1750.44 1545.82 Q1754.07 1545.82 1755.88 1542.27 Q1757.7 1538.71 1757.7 1531.6 Q1757.7 1524.47 1755.88 1520.93 Q1754.07 1517.37 1750.44 1517.37 M1750.44 1513.66 Q1756.25 1513.66 1759.3 1518.27 Q1762.38 1522.85 1762.38 1531.6 Q1762.38 1540.33 1759.3 1544.94 Q1756.25 1549.52 1750.44 1549.52 Q1744.63 1549.52 1741.55 1544.94 Q1738.49 1540.33 1738.49 1531.6 Q1738.49 1522.85 1741.55 1518.27 Q1744.63 1513.66 1750.44 1513.66 Z" fill="#000000" fill-rule="evenodd" fill-opacity="1" /><path clip-path="url(#clip590)" d="M1770.6 1542.97 L1775.48 1542.97 L1775.48 1548.85 L1770.6 1548.85 L1770.6 1542.97 Z" fill="#000000" fill-rule="evenodd" fill-opacity="1" /><path clip-path="url(#clip590)" d="M1785.71 1514.29 L1804.07 1514.29 L1804.07 1518.22 L1790 1518.22 L1790 1526.7 Q1791.01 1526.35 1792.03 1526.19 Q1793.05 1526 1794.07 1526 Q1799.86 1526 1803.24 1529.17 Q1806.62 1532.34 1806.62 1537.76 Q1806.62 1543.34 1803.14 1546.44 Q1799.67 1549.52 1793.35 1549.52 Q1791.18 1549.52 1788.91 1549.15 Q1786.66 1548.78 1784.25 1548.04 L1784.25 1543.34 Q1786.34 1544.47 1788.56 1545.03 Q1790.78 1545.58 1793.26 1545.58 Q1797.26 1545.58 1799.6 1543.48 Q1801.94 1541.37 1801.94 1537.76 Q1801.94 1534.15 1799.6 1532.04 Q1797.26 1529.94 1793.26 1529.94 Q1791.38 1529.94 1789.51 1530.35 Q1787.66 1530.77 1785.71 1531.65 L1785.71 1514.29 Z" fill="#000000" fill-rule="evenodd" fill-opacity="1" /><path clip-path="url(#clip590)" d="M2257.74 1544.91 L2265.38 1544.91 L2265.38 1518.55 L2257.07 1520.21 L2257.07 1515.95 L2265.34 1514.29 L2270.01 1514.29 L2270.01 1544.91 L2277.65 1544.91 L2277.65 1548.85 L2257.74 1548.85 L2257.74 1544.91 Z" fill="#000000" fill-rule="evenodd" fill-opacity="1" /><path clip-path="url(#clip590)" d="M2287.1 1542.97 L2291.98 1542.97 L2291.98 1548.85 L2287.1 1548.85 L2287.1 1542.97 Z" fill="#000000" fill-rule="evenodd" fill-opacity="1" /><path clip-path="url(#clip590)" d="M2312.17 1517.37 Q2308.55 1517.37 2306.73 1520.93 Q2304.92 1524.47 2304.92 1531.6 Q2304.92 1538.71 2306.73 1542.27 Q2308.55 1545.82 2312.17 1545.82 Q2315.8 1545.82 2317.61 1542.27 Q2319.43 1538.71 2319.43 1531.6 Q2319.43 1524.47 2317.61 1520.93 Q2315.8 1517.37 2312.17 1517.37 M2312.17 1513.66 Q2317.98 1513.66 2321.03 1518.27 Q2324.11 1522.85 2324.11 1531.6 Q2324.11 1540.33 2321.03 1544.94 Q2317.98 1549.52 2312.17 1549.52 Q2306.36 1549.52 2303.28 1544.94 Q2300.22 1540.33 2300.22 1531.6 Q2300.22 1522.85 2303.28 1518.27 Q2306.36 1513.66 2312.17 1513.66 Z" fill="#000000" fill-rule="evenodd" fill-opacity="1" /><polyline clip-path="url(#clip592)" style="stroke:#000000; stroke-linecap:round; stroke-linejoin:round; stroke-width:2; stroke-opacity:0.1; fill:none" points="
  156.274,1225.53 2352.76,1225.53 
  "/>
<polyline clip-path="url(#clip592)" style="stroke:#000000; stroke-linecap:round; stroke-linejoin:round; stroke-width:2; stroke-opacity:0.1; fill:none" points="
  156.274,959.921 2352.76,959.921 
  "/>
<polyline clip-path="url(#clip592)" style="stroke:#000000; stroke-linecap:round; stroke-linejoin:round; stroke-width:2; stroke-opacity:0.1; fill:none" points="
  156.274,694.311 2352.76,694.311 
  "/>
<polyline clip-path="url(#clip592)" style="stroke:#000000; stroke-linecap:round; stroke-linejoin:round; stroke-width:2; stroke-opacity:0.1; fill:none" points="
  156.274,428.701 2352.76,428.701 
  "/>
<polyline clip-path="url(#clip592)" style="stroke:#000000; stroke-linecap:round; stroke-linejoin:round; stroke-width:2; stroke-opacity:0.1; fill:none" points="
  156.274,163.091 2352.76,163.091 
  "/>
<polyline clip-path="url(#clip590)" style="stroke:#000000; stroke-linecap:round; stroke-linejoin:round; stroke-width:4; stroke-opacity:1; fill:none" points="
  156.274,1486.45 156.274,47.2441 
  "/>
<polyline clip-path="url(#clip590)" style="stroke:#000000; stroke-linecap:round; stroke-linejoin:round; stroke-width:4; stroke-opacity:1; fill:none" points="
  156.274,1225.53 175.172,1225.53 
  "/>
<polyline clip-path="url(#clip590)" style="stroke:#000000; stroke-linecap:round; stroke-linejoin:round; stroke-width:4; stroke-opacity:1; fill:none" points="
  156.274,959.921 175.172,959.921 
  "/>
<polyline clip-path="url(#clip590)" style="stroke:#000000; stroke-linecap:round; stroke-linejoin:round; stroke-width:4; stroke-opacity:1; fill:none" points="
  156.274,694.311 175.172,694.311 
  "/>
<polyline clip-path="url(#clip590)" style="stroke:#000000; stroke-linecap:round; stroke-linejoin:round; stroke-width:4; stroke-opacity:1; fill:none" points="
  156.274,428.701 175.172,428.701 
  "/>
<polyline clip-path="url(#clip590)" style="stroke:#000000; stroke-linecap:round; stroke-linejoin:round; stroke-width:4; stroke-opacity:1; fill:none" points="
  156.274,163.091 175.172,163.091 
  "/>
<path clip-path="url(#clip590)" d="M63.0985 1211.33 Q59.4875 1211.33 57.6588 1214.89 Q55.8532 1218.44 55.8532 1225.57 Q55.8532 1232.67 57.6588 1236.24 Q59.4875 1239.78 63.0985 1239.78 Q66.7328 1239.78 68.5383 1236.24 Q70.367 1232.67 70.367 1225.57 Q70.367 1218.44 68.5383 1214.89 Q66.7328 1211.33 63.0985 1211.33 M63.0985 1207.63 Q68.9087 1207.63 71.9642 1212.23 Q75.0429 1216.82 75.0429 1225.57 Q75.0429 1234.29 71.9642 1238.9 Q68.9087 1243.48 63.0985 1243.48 Q57.2884 1243.48 54.2097 1238.9 Q51.1542 1234.29 51.1542 1225.57 Q51.1542 1216.82 54.2097 1212.23 Q57.2884 1207.63 63.0985 1207.63 Z" fill="#000000" fill-rule="evenodd" fill-opacity="1" /><path clip-path="url(#clip590)" d="M83.2605 1236.93 L88.1447 1236.93 L88.1447 1242.81 L83.2605 1242.81 L83.2605 1236.93 Z" fill="#000000" fill-rule="evenodd" fill-opacity="1" /><path clip-path="url(#clip590)" d="M108.33 1211.33 Q104.719 1211.33 102.89 1214.89 Q101.084 1218.44 101.084 1225.57 Q101.084 1232.67 102.89 1236.24 Q104.719 1239.78 108.33 1239.78 Q111.964 1239.78 113.77 1236.24 Q115.598 1232.67 115.598 1225.57 Q115.598 1218.44 113.77 1214.89 Q111.964 1211.33 108.33 1211.33 M108.33 1207.63 Q114.14 1207.63 117.195 1212.23 Q120.274 1216.82 120.274 1225.57 Q120.274 1234.29 117.195 1238.9 Q114.14 1243.48 108.33 1243.48 Q102.52 1243.48 99.4409 1238.9 Q96.3854 1234.29 96.3854 1225.57 Q96.3854 1216.82 99.4409 1212.23 Q102.52 1207.63 108.33 1207.63 Z" fill="#000000" fill-rule="evenodd" fill-opacity="1" /><path clip-path="url(#clip590)" d="M63.7467 945.719 Q60.1356 945.719 58.3069 949.284 Q56.5014 952.826 56.5014 959.955 Q56.5014 967.062 58.3069 970.627 Q60.1356 974.168 63.7467 974.168 Q67.3809 974.168 69.1865 970.627 Q71.0152 967.062 71.0152 959.955 Q71.0152 952.826 69.1865 949.284 Q67.3809 945.719 63.7467 945.719 M63.7467 942.016 Q69.5568 942.016 72.6124 946.622 Q75.6911 951.205 75.6911 959.955 Q75.6911 968.682 72.6124 973.289 Q69.5568 977.872 63.7467 977.872 Q57.9365 977.872 54.8578 973.289 Q51.8023 968.682 51.8023 959.955 Q51.8023 951.205 54.8578 946.622 Q57.9365 942.016 63.7467 942.016 Z" fill="#000000" fill-rule="evenodd" fill-opacity="1" /><path clip-path="url(#clip590)" d="M83.9086 971.321 L88.7928 971.321 L88.7928 977.201 L83.9086 977.201 L83.9086 971.321 Z" fill="#000000" fill-rule="evenodd" fill-opacity="1" /><path clip-path="url(#clip590)" d="M113.145 958.566 Q116.501 959.284 118.376 961.553 Q120.274 963.821 120.274 967.154 Q120.274 972.27 116.756 975.071 Q113.237 977.872 106.756 977.872 Q104.58 977.872 102.265 977.432 Q99.9733 977.015 97.5197 976.159 L97.5197 971.645 Q99.4641 972.779 101.779 973.358 Q104.094 973.937 106.617 973.937 Q111.015 973.937 113.307 972.201 Q115.621 970.465 115.621 967.154 Q115.621 964.099 113.469 962.386 Q111.339 960.65 107.52 960.65 L103.492 960.65 L103.492 956.807 L107.705 956.807 Q111.154 956.807 112.983 955.441 Q114.811 954.053 114.811 951.46 Q114.811 948.798 112.913 947.386 Q111.038 945.951 107.52 945.951 Q105.598 945.951 103.399 946.367 Q101.2 946.784 98.5613 947.664 L98.5613 943.497 Q101.223 942.756 103.538 942.386 Q105.876 942.016 107.936 942.016 Q113.26 942.016 116.362 944.446 Q119.464 946.854 119.464 950.974 Q119.464 953.844 117.82 955.835 Q116.177 957.803 113.145 958.566 Z" fill="#000000" fill-rule="evenodd" fill-opacity="1" /><path clip-path="url(#clip590)" d="M62.9365 680.109 Q59.3254 680.109 57.4967 683.674 Q55.6912 687.216 55.6912 694.345 Q55.6912 701.452 57.4967 705.017 Q59.3254 708.558 62.9365 708.558 Q66.5707 708.558 68.3763 705.017 Q70.205 701.452 70.205 694.345 Q70.205 687.216 68.3763 683.674 Q66.5707 680.109 62.9365 680.109 M62.9365 676.406 Q68.7467 676.406 71.8022 681.012 Q74.8809 685.595 74.8809 694.345 Q74.8809 703.072 71.8022 707.679 Q68.7467 712.262 62.9365 712.262 Q57.1264 712.262 54.0477 707.679 Q50.9921 703.072 50.9921 694.345 Q50.9921 685.595 54.0477 681.012 Q57.1264 676.406 62.9365 676.406 Z" fill="#000000" fill-rule="evenodd" fill-opacity="1" /><path clip-path="url(#clip590)" d="M83.0984 705.711 L87.9827 705.711 L87.9827 711.591 L83.0984 711.591 L83.0984 705.711 Z" fill="#000000" fill-rule="evenodd" fill-opacity="1" /><path clip-path="url(#clip590)" d="M108.746 692.447 Q105.598 692.447 103.746 694.6 Q101.918 696.753 101.918 700.503 Q101.918 704.23 103.746 706.405 Q105.598 708.558 108.746 708.558 Q111.895 708.558 113.723 706.405 Q115.575 704.23 115.575 700.503 Q115.575 696.753 113.723 694.6 Q111.895 692.447 108.746 692.447 M118.029 677.794 L118.029 682.054 Q116.27 681.22 114.464 680.781 Q112.682 680.341 110.922 680.341 Q106.293 680.341 103.839 683.466 Q101.409 686.591 101.061 692.91 Q102.427 690.896 104.487 689.831 Q106.547 688.743 109.024 688.743 Q114.233 688.743 117.242 691.915 Q120.274 695.063 120.274 700.503 Q120.274 705.827 117.126 709.044 Q113.978 712.262 108.746 712.262 Q102.751 712.262 99.5798 707.679 Q96.4085 703.072 96.4085 694.345 Q96.4085 686.151 100.297 681.29 Q104.186 676.406 110.737 676.406 Q112.496 676.406 114.279 676.753 Q116.084 677.1 118.029 677.794 Z" fill="#000000" fill-rule="evenodd" fill-opacity="1" /><path clip-path="url(#clip590)" d="M63.2837 414.499 Q59.6726 414.499 57.8439 418.064 Q56.0384 421.606 56.0384 428.735 Q56.0384 435.842 57.8439 439.407 Q59.6726 442.948 63.2837 442.948 Q66.918 442.948 68.7235 439.407 Q70.5522 435.842 70.5522 428.735 Q70.5522 421.606 68.7235 418.064 Q66.918 414.499 63.2837 414.499 M63.2837 410.796 Q69.0939 410.796 72.1494 415.402 Q75.2281 419.985 75.2281 428.735 Q75.2281 437.462 72.1494 442.069 Q69.0939 446.652 63.2837 446.652 Q57.4736 446.652 54.3949 442.069 Q51.3393 437.462 51.3393 428.735 Q51.3393 419.985 54.3949 415.402 Q57.4736 410.796 63.2837 410.796 Z" fill="#000000" fill-rule="evenodd" fill-opacity="1" /><path clip-path="url(#clip590)" d="M83.4457 440.101 L88.3299 440.101 L88.3299 445.981 L83.4457 445.981 L83.4457 440.101 Z" fill="#000000" fill-rule="evenodd" fill-opacity="1" /><path clip-path="url(#clip590)" d="M98.6539 445.263 L98.6539 441.004 Q100.413 441.837 102.219 442.277 Q104.024 442.717 105.76 442.717 Q110.39 442.717 112.82 439.615 Q115.274 436.49 115.621 430.147 Q114.279 432.138 112.219 433.203 Q110.158 434.268 107.658 434.268 Q102.473 434.268 99.4409 431.143 Q96.4317 427.995 96.4317 422.555 Q96.4317 417.231 99.5798 414.013 Q102.728 410.796 107.959 410.796 Q113.955 410.796 117.103 415.402 Q120.274 419.985 120.274 428.735 Q120.274 436.907 116.385 441.791 Q112.52 446.652 105.969 446.652 Q104.209 446.652 102.404 446.305 Q100.598 445.957 98.6539 445.263 M107.959 430.61 Q111.108 430.61 112.936 428.458 Q114.788 426.305 114.788 422.555 Q114.788 418.828 112.936 416.675 Q111.108 414.499 107.959 414.499 Q104.811 414.499 102.959 416.675 Q101.131 418.828 101.131 422.555 Q101.131 426.305 102.959 428.458 Q104.811 430.61 107.959 430.61 Z" fill="#000000" fill-rule="evenodd" fill-opacity="1" /><path clip-path="url(#clip590)" d="M55.506 176.435 L63.1448 176.435 L63.1448 150.07 L54.8347 151.736 L54.8347 147.477 L63.0985 145.811 L67.7744 145.811 L67.7744 176.435 L75.4133 176.435 L75.4133 180.371 L55.506 180.371 L55.506 176.435 Z" fill="#000000" fill-rule="evenodd" fill-opacity="1" /><path clip-path="url(#clip590)" d="M84.8577 174.491 L89.7419 174.491 L89.7419 180.371 L84.8577 180.371 L84.8577 174.491 Z" fill="#000000" fill-rule="evenodd" fill-opacity="1" /><path clip-path="url(#clip590)" d="M103.955 176.435 L120.274 176.435 L120.274 180.371 L98.3298 180.371 L98.3298 176.435 Q100.992 173.681 105.575 169.051 Q110.182 164.398 111.362 163.056 Q113.608 160.533 114.487 158.797 Q115.39 157.037 115.39 155.348 Q115.39 152.593 113.445 150.857 Q111.524 149.121 108.422 149.121 Q106.223 149.121 103.77 149.885 Q101.339 150.649 98.5613 152.199 L98.5613 147.477 Q101.385 146.343 103.839 145.764 Q106.293 145.186 108.33 145.186 Q113.7 145.186 116.895 147.871 Q120.089 150.556 120.089 155.047 Q120.089 157.176 119.279 159.098 Q118.492 160.996 116.385 163.588 Q115.807 164.26 112.705 167.477 Q109.603 170.672 103.955 176.435 Z" fill="#000000" fill-rule="evenodd" fill-opacity="1" /><polyline clip-path="url(#clip592)" style="stroke:#009af9; stroke-linecap:round; stroke-linejoin:round; stroke-width:16; stroke-opacity:1; fill:none" stroke-dasharray="8, 16" points="
  218.439,1092.74 228.852,1075.85 239.264,1062.25 249.677,1053.09 260.09,1049.21 270.503,1051.13 280.916,1059.14 291.329,1073.21 301.741,1092.97 312.154,1117.52 
  322.567,1145.52 332.98,1175.25 343.393,1205.12 353.805,1234.28 364.218,1263.09 374.631,1292.92 385.044,1324.51 395.457,1355.86 405.87,1381.77 416.282,1396.84 
  426.695,1400.49 437.108,1397.72 447.521,1393.93 457.934,1389.78 468.347,1381.96 478.759,1367.16 489.172,1344.87 499.585,1317.57 509.998,1289.02 520.411,1261.46 
  530.824,1233.55 541.236,1202.12 551.649,1167.16 562.062,1133.21 572.475,1105.07 582.888,1084.1 593.301,1068.89 603.713,1057.79 614.126,1050.54 624.539,1048.52 
  634.952,1053.21 645.365,1064.19 655.777,1079.57 666.19,1098.81 676.603,1123.14 687.016,1152.29 697.429,1183.7 707.842,1215.21 718.254,1246.22 728.667,1276.31 
  739.08,1304.79 749.493,1331.21 759.906,1355.4 770.319,1376.82 780.731,1393.83 791.144,1404.02 801.557,1405.82 811.97,1400.1 822.383,1389.76 832.796,1376.9 
  843.208,1360.36 853.621,1337.3 864.034,1307.67 874.447,1275.63 884.86,1245.6 895.273,1218.62 905.685,1192.88 916.098,1165.19 926.511,1134.23 936.924,1103.61 
  947.337,1079.34 957.749,1065.87 968.162,1060.93 978.575,1050.84 988.988,1028.33 999.401,1016.87 1009.81,1041.84 1020.23,1081.63 1030.64,1102.48 1041.05,1105.57 
  1051.46,1107.73 1061.88,1165.22 1072.29,1306.61 1082.7,1318.73 1093.12,1311.49 1103.53,1318.44 1113.94,1340 1124.35,1424.63 1134.77,1445.72 1145.18,1410.31 
  1155.59,1385.78 1166.01,1388.23 1176.42,1390.5 1186.83,1388.66 1197.24,1372.37 1207.66,1349.26 1218.07,1331.01 1228.48,1310.37 1238.9,1244.56 1249.31,1060.12 
  1259.72,738.028 1270.13,432.096 1280.55,294.833 1290.96,278.05 1301.37,304.634 1311.79,340.768 1322.2,362.225 1332.61,358.328 1343.02,333.344 1353.44,307.394 
  1363.85,343.709 1374.26,427.224 1384.68,483.176 1395.09,466.048 1405.5,285.412 1415.91,228.429 1426.33,254.94 1436.74,311.206 1447.15,406.101 1457.57,481.547 
  1467.98,456.94 1478.39,351.199 1488.8,279.75 1499.22,274.676 1509.63,290.833 1520.04,306.652 1530.45,362.186 1540.87,452.694 1551.28,485.159 1561.69,449.103 
  1572.11,393.277 1582.52,337.115 1592.93,287.318 1603.34,255.138 1613.76,248.951 1624.17,269.123 1634.58,308.253 1645,352.677 1655.41,389.391 1665.82,411.817 
  1676.23,419.031 1686.65,412.436 1697.06,391.603 1707.47,350.559 1717.89,288.016 1728.3,229.884 1738.71,215.037 1749.12,252.068 1759.54,317.337 1769.95,383.334 
  1780.36,432.847 1790.78,457.627 1801.19,454.828 1811.6,425.458 1822.01,374.004 1832.43,309.064 1842.84,244.906 1853.25,201.003 1863.67,195.623 1874.08,235.908 
  1884.49,312.774 1894.9,403.39 1905.32,476.821 1915.73,502.602 1926.14,468.381 1936.56,397.366 1946.97,328.021 1957.38,271.901 1967.79,220.624 1978.21,180.988 
  1988.62,185.018 1999.03,258.626 2009.45,377.742 2019.86,483.546 2030.27,537.014 2040.68,533.617 2051.1,484.497 2061.51,402.588 2071.92,300.675 2082.33,195.049 
  2092.75,111.486 2103.16,87.9763 2113.57,156.121 2123.99,299.644 2134.4,452.492 2144.81,556.305 2155.22,589.464 2165.64,553.632 2176.05,463.221 2186.46,342.89 
  2196.88,224.912 2207.29,142.175 2217.7,117.575 2228.11,155.012 2238.53,237.685 2248.94,337.062 2259.35,427.433 2269.77,495.09 2280.18,538.092 2290.59,561.211 
  
  "/>
<polyline clip-path="url(#clip592)" style="stroke:#e26f46; stroke-linecap:round; stroke-linejoin:round; stroke-width:4; stroke-opacity:1; fill:none" points="
  218.439,1092.55 228.852,1073.68 239.264,1059.77 249.677,1051.27 260.09,1048.46 270.503,1051.42 280.916,1060.07 291.329,1074.12 301.741,1093.11 312.154,1116.42 
  322.567,1143.29 332.98,1172.85 343.393,1204.12 353.805,1236.1 364.218,1267.73 374.631,1297.98 385.044,1325.87 395.457,1350.48 405.87,1371.02 416.282,1386.8 
  426.695,1397.33 437.108,1402.24 447.521,1401.39 457.934,1394.8 468.347,1382.69 478.759,1365.44 489.172,1343.63 499.585,1317.96 509.998,1289.28 520.411,1258.52 
  530.824,1226.68 541.236,1194.8 551.649,1163.93 562.062,1135.07 572.475,1109.15 582.888,1087.04 593.301,1069.45 603.713,1056.95 614.126,1049.95 624.539,1048.69 
  634.952,1053.19 645.365,1063.32 655.777,1078.75 666.19,1098.96 676.603,1123.31 687.016,1150.99 697.429,1181.1 707.842,1212.67 718.254,1244.65 728.667,1276.01 
  739.08,1305.73 749.493,1332.82 759.906,1356.42 770.319,1375.74 780.731,1390.16 791.144,1399.2 801.557,1402.58 811.97,1400.18 822.383,1392.08 832.796,1378.55 
  843.208,1360.02 853.621,1337.1 864.034,1310.54 874.447,1281.2 884.86,1250.05 895.273,1218.1 905.685,1186.39 916.098,1155.96 926.511,1127.8 936.924,1102.82 
  947.337,1081.86 957.749,1065.58 968.162,1054.52 978.575,1049.05 988.988,1049.33 999.401,1055.36 1009.81,1066.95 1020.23,1083.72 1030.64,1105.11 1041.05,1130.43 
  1051.46,1158.86 1061.88,1189.46 1072.29,1221.24 1082.7,1253.16 1093.12,1284.18 1103.53,1313.28 1113.94,1339.52 1124.35,1362.04 1134.77,1380.1 1145.18,1393.12 
  1155.59,1400.67 1166.01,1402.51 1176.42,1398.56 1186.83,1388.97 1197.24,1374.05 1207.66,1354.28 1218.07,1330.3 1228.48,1302.91 1238.9,1272.99 1249.31,1241.53 
  1259.72,338.878 1270.13,337.415 1280.55,338.747 1290.96,343.18 1301.37,349.356 1311.79,354.666 1322.2,356.238 1332.61,352.153 1343.02,342.414 1353.44,329.284 
  1363.85,316.791 1374.26,309.492 1384.68,310.892 1395.09,322.028 1405.5,340.759 1415.91,362.075 1426.33,379.434 1436.74,386.756 1447.15,380.488 1457.57,361.04 
  1467.98,333.067 1478.39,304.399 1488.8,283.853 1499.22,278.53 1509.63,291.433 1520.04,320.18 1530.45,357.305 1540.87,392.179 1551.28,414.051 1561.69,415.347 
  1572.11,394.216 1582.52,355.489 1592.93,309.648 1603.34,269.995 1613.76,248.797 1624.17,253.511 1634.58,284.242 1645,333.303 1655.41,387.086 1665.82,429.838 
  1676.23,448.27 1686.65,435.665 1697.06,394.218 1707.47,334.813 1717.89,274.191 1728.3,230.235 1738.71,216.698 1749.12,238.927 1759.54,291.91 1769.95,361.318 
  1780.36,427.369 1790.78,470.462 1801.19,476.989 1811.6,443.599 1822.01,378.582 1832.43,299.866 1842.84,230.077 1853.25,190.039 1863.67,192.571 1874.08,238.418 
  1884.49,315.622 1894.9,402.604 1905.32,474.193 1915.73,508.906 1926.14,495.388 1936.56,436.07 1946.97,346.884 1957.38,253.012 1967.79,181.771 1978.21,154.673 
  1988.62,180.934 1999.03,254.424 2009.45,355.018 2019.86,454.092 2030.27,522.67 2040.68,539.896 2051.1,499.353 2061.51,411.336 2071.92,300.276 2082.33,197.973 
  2092.75,134.485 2103.16,129.306 2113.57,185.402 2123.99,287.936 2134.4,408.159 2144.81,511.471 2155.22,567.375 2165.64,558.474 2176.05,485.855 2186.46,369.197 
  2196.88,241.458 2207.29,139.569 2217.7,93.7531 2228.11,118.573 2238.53,208.343 2248.94,338.346 2259.35,471.628 2269.77,569.503 2280.18,602.773 2290.59,560.437 
  
  "/>
<path clip-path="url(#clip590)" d="
M229.49 250.738 L700.371 250.738 L700.371 95.2176 L229.49 95.2176  Z
  " fill="#ffffff" fill-rule="evenodd" fill-opacity="1"/>
<polyline clip-path="url(#clip590)" style="stroke:#000000; stroke-linecap:round; stroke-linejoin:round; stroke-width:4; stroke-opacity:1; fill:none" points="
  229.49,250.738 700.371,250.738 700.371,95.2176 229.49,95.2176 229.49,250.738 
  "/>
<polyline clip-path="url(#clip590)" style="stroke:#009af9; stroke-linecap:round; stroke-linejoin:round; stroke-width:4; stroke-opacity:1; fill:none" stroke-dasharray="2, 4" points="
  253.896,147.058 400.328,147.058 
  "/>
<path clip-path="url(#clip590)" d="M429.409 133.62 L429.409 146.606 L435.289 146.606 Q438.552 146.606 440.335 144.916 Q442.117 143.227 442.117 140.102 Q442.117 137 440.335 135.31 Q438.552 133.62 435.289 133.62 L429.409 133.62 M424.733 129.778 L435.289 129.778 Q441.099 129.778 444.062 132.416 Q447.048 135.032 447.048 140.102 Q447.048 145.217 444.062 147.833 Q441.099 150.449 435.289 150.449 L429.409 150.449 L429.409 164.338 L424.733 164.338 L424.733 129.778 Z" fill="#000000" fill-rule="evenodd" fill-opacity="1" /><path clip-path="url(#clip590)" d="M467.325 142.393 Q466.608 141.977 465.751 141.791 Q464.918 141.583 463.899 141.583 Q460.288 141.583 458.344 143.944 Q456.423 146.282 456.423 150.68 L456.423 164.338 L452.14 164.338 L452.14 138.412 L456.423 138.412 L456.423 142.44 Q457.765 140.078 459.918 138.944 Q462.071 137.787 465.149 137.787 Q465.589 137.787 466.122 137.856 Q466.654 137.903 467.302 138.018 L467.325 142.393 Z" fill="#000000" fill-rule="evenodd" fill-opacity="1" /><path clip-path="url(#clip590)" d="M492.927 150.31 L492.927 152.393 L473.344 152.393 Q473.622 156.791 475.983 159.106 Q478.367 161.398 482.603 161.398 Q485.057 161.398 487.348 160.796 Q489.663 160.194 491.932 158.99 L491.932 163.018 Q489.64 163.99 487.233 164.5 Q484.825 165.009 482.348 165.009 Q476.145 165.009 472.511 161.398 Q468.899 157.787 468.899 151.629 Q468.899 145.264 472.325 141.537 Q475.774 137.787 481.608 137.787 Q486.839 137.787 489.872 141.166 Q492.927 144.523 492.927 150.31 M488.668 149.06 Q488.622 145.565 486.7 143.481 Q484.802 141.398 481.654 141.398 Q478.089 141.398 475.936 143.412 Q473.807 145.426 473.483 149.083 L488.668 149.06 Z" fill="#000000" fill-rule="evenodd" fill-opacity="1" /><path clip-path="url(#clip590)" d="M516.978 142.347 L516.978 128.319 L521.237 128.319 L521.237 164.338 L516.978 164.338 L516.978 160.449 Q515.635 162.763 513.575 163.898 Q511.538 165.009 508.668 165.009 Q503.969 165.009 501.006 161.259 Q498.066 157.509 498.066 151.398 Q498.066 145.287 501.006 141.537 Q503.969 137.787 508.668 137.787 Q511.538 137.787 513.575 138.921 Q515.635 140.032 516.978 142.347 M502.464 151.398 Q502.464 156.097 504.385 158.782 Q506.33 161.444 509.709 161.444 Q513.089 161.444 515.033 158.782 Q516.978 156.097 516.978 151.398 Q516.978 146.699 515.033 144.037 Q513.089 141.352 509.709 141.352 Q506.33 141.352 504.385 144.037 Q502.464 146.699 502.464 151.398 Z" fill="#000000" fill-rule="evenodd" fill-opacity="1" /><path clip-path="url(#clip590)" d="M530.01 138.412 L534.269 138.412 L534.269 164.338 L530.01 164.338 L530.01 138.412 M530.01 128.319 L534.269 128.319 L534.269 133.713 L530.01 133.713 L530.01 128.319 Z" fill="#000000" fill-rule="evenodd" fill-opacity="1" /><path clip-path="url(#clip590)" d="M561.839 139.407 L561.839 143.389 Q560.033 142.393 558.205 141.907 Q556.399 141.398 554.547 141.398 Q550.404 141.398 548.112 144.037 Q545.82 146.652 545.82 151.398 Q545.82 156.143 548.112 158.782 Q550.404 161.398 554.547 161.398 Q556.399 161.398 558.205 160.912 Q560.033 160.402 561.839 159.407 L561.839 163.342 Q560.056 164.176 558.135 164.592 Q556.237 165.009 554.084 165.009 Q548.228 165.009 544.779 161.328 Q541.33 157.648 541.33 151.398 Q541.33 145.055 544.802 141.421 Q548.297 137.787 554.362 137.787 Q556.33 137.787 558.205 138.203 Q560.08 138.597 561.839 139.407 Z" fill="#000000" fill-rule="evenodd" fill-opacity="1" /><path clip-path="url(#clip590)" d="M573.459 131.051 L573.459 138.412 L582.232 138.412 L582.232 141.722 L573.459 141.722 L573.459 155.796 Q573.459 158.967 574.316 159.87 Q575.195 160.773 577.857 160.773 L582.232 160.773 L582.232 164.338 L577.857 164.338 Q572.927 164.338 571.052 162.509 Q569.177 160.657 569.177 155.796 L569.177 141.722 L566.052 141.722 L566.052 138.412 L569.177 138.412 L569.177 131.051 L573.459 131.051 Z" fill="#000000" fill-rule="evenodd" fill-opacity="1" /><path clip-path="url(#clip590)" d="M587.834 138.412 L592.093 138.412 L592.093 164.338 L587.834 164.338 L587.834 138.412 M587.834 128.319 L592.093 128.319 L592.093 133.713 L587.834 133.713 L587.834 128.319 Z" fill="#000000" fill-rule="evenodd" fill-opacity="1" /><path clip-path="url(#clip590)" d="M611.051 141.398 Q607.626 141.398 605.635 144.083 Q603.644 146.745 603.644 151.398 Q603.644 156.051 605.612 158.736 Q607.602 161.398 611.051 161.398 Q614.454 161.398 616.445 158.713 Q618.436 156.027 618.436 151.398 Q618.436 146.791 616.445 144.106 Q614.454 141.398 611.051 141.398 M611.051 137.787 Q616.607 137.787 619.778 141.398 Q622.95 145.009 622.95 151.398 Q622.95 157.764 619.778 161.398 Q616.607 165.009 611.051 165.009 Q605.473 165.009 602.302 161.398 Q599.153 157.764 599.153 151.398 Q599.153 145.009 602.302 141.398 Q605.473 137.787 611.051 137.787 Z" fill="#000000" fill-rule="evenodd" fill-opacity="1" /><path clip-path="url(#clip590)" d="M651.561 148.689 L651.561 164.338 L647.301 164.338 L647.301 148.828 Q647.301 145.148 645.866 143.319 Q644.431 141.49 641.561 141.49 Q638.112 141.49 636.121 143.69 Q634.13 145.889 634.13 149.685 L634.13 164.338 L629.848 164.338 L629.848 138.412 L634.13 138.412 L634.13 142.44 Q635.658 140.102 637.718 138.944 Q639.801 137.787 642.51 137.787 Q646.977 137.787 649.269 140.565 Q651.561 143.319 651.561 148.689 Z" fill="#000000" fill-rule="evenodd" fill-opacity="1" /><polyline clip-path="url(#clip590)" style="stroke:#e26f46; stroke-linecap:round; stroke-linejoin:round; stroke-width:4; stroke-opacity:1; fill:none" points="
  253.896,198.898 400.328,198.898 
  "/>
<path clip-path="url(#clip590)" d="M424.733 181.618 L446.585 181.618 L446.585 185.553 L429.409 185.553 L429.409 195.784 L445.867 195.784 L445.867 199.719 L429.409 199.719 L429.409 212.242 L447.001 212.242 L447.001 216.178 L424.733 216.178 L424.733 181.618 Z" fill="#000000" fill-rule="evenodd" fill-opacity="1" /><path clip-path="url(#clip590)" d="M476.052 190.252 L466.677 202.867 L476.538 216.178 L471.515 216.178 L463.969 205.992 L456.423 216.178 L451.4 216.178 L461.469 202.613 L452.256 190.252 L457.279 190.252 L464.154 199.488 L471.029 190.252 L476.052 190.252 Z" fill="#000000" fill-rule="evenodd" fill-opacity="1" /><path clip-path="url(#clip590)" d="M494.339 203.145 Q489.177 203.145 487.186 204.326 Q485.196 205.506 485.196 208.354 Q485.196 210.622 486.677 211.965 Q488.182 213.284 490.751 213.284 Q494.293 213.284 496.422 210.784 Q498.575 208.261 498.575 204.094 L498.575 203.145 L494.339 203.145 M502.834 201.386 L502.834 216.178 L498.575 216.178 L498.575 212.242 Q497.117 214.603 494.941 215.738 Q492.765 216.849 489.617 216.849 Q485.635 216.849 483.274 214.627 Q480.936 212.381 480.936 208.631 Q480.936 204.256 483.853 202.034 Q486.793 199.812 492.603 199.812 L498.575 199.812 L498.575 199.395 Q498.575 196.455 496.631 194.858 Q494.71 193.238 491.214 193.238 Q488.992 193.238 486.885 193.77 Q484.779 194.303 482.835 195.367 L482.835 191.432 Q485.173 190.53 487.372 190.09 Q489.571 189.627 491.654 189.627 Q497.279 189.627 500.057 192.543 Q502.834 195.46 502.834 201.386 Z" fill="#000000" fill-rule="evenodd" fill-opacity="1" /><path clip-path="url(#clip590)" d="M530.265 191.247 L530.265 195.229 Q528.459 194.233 526.631 193.747 Q524.825 193.238 522.973 193.238 Q518.83 193.238 516.538 195.877 Q514.246 198.492 514.246 203.238 Q514.246 207.983 516.538 210.622 Q518.83 213.238 522.973 213.238 Q524.825 213.238 526.631 212.752 Q528.459 212.242 530.265 211.247 L530.265 215.182 Q528.482 216.016 526.561 216.432 Q524.663 216.849 522.51 216.849 Q516.654 216.849 513.205 213.168 Q509.756 209.488 509.756 203.238 Q509.756 196.895 513.228 193.261 Q516.723 189.627 522.788 189.627 Q524.756 189.627 526.631 190.043 Q528.506 190.437 530.265 191.247 Z" fill="#000000" fill-rule="evenodd" fill-opacity="1" /><path clip-path="url(#clip590)" d="M541.885 182.891 L541.885 190.252 L550.658 190.252 L550.658 193.562 L541.885 193.562 L541.885 207.636 Q541.885 210.807 542.742 211.71 Q543.621 212.613 546.283 212.613 L550.658 212.613 L550.658 216.178 L546.283 216.178 Q541.353 216.178 539.478 214.349 Q537.603 212.497 537.603 207.636 L537.603 193.562 L534.478 193.562 L534.478 190.252 L537.603 190.252 L537.603 182.891 L541.885 182.891 Z" fill="#000000" fill-rule="evenodd" fill-opacity="1" /></svg>
