<?xml version="1.0" encoding="utf-8"?>
<svg xmlns="http://www.w3.org/2000/svg" xmlns:xlink="http://www.w3.org/1999/xlink" width="600" height="400" viewBox="0 0 2400 1600">
<defs>
  <clipPath id="clip560">
    <rect x="0" y="0" width="2400" height="1600"/>
  </clipPath>
</defs>
<path clip-path="url(#clip560)" d="
M0 1600 L2400 1600 L2400 0 L0 0  Z
  " fill="#ffffff" fill-rule="evenodd" fill-opacity="1"/>
<defs>
  <clipPath id="clip561">
    <rect x="480" y="0" width="1681" height="1600"/>
  </clipPath>
</defs>
<path clip-path="url(#clip560)" d="
M156.274 1486.45 L2352.76 1486.45 L2352.76 47.2441 L156.274 47.2441  Z
  " fill="#ffffff" fill-rule="evenodd" fill-opacity="1"/>
<defs>
  <clipPath id="clip562">
    <rect x="156" y="47" width="2197" height="1440"/>
  </clipPath>
</defs>
<polyline clip-path="url(#clip562)" style="stroke:#000000; stroke-linecap:round; stroke-linejoin:round; stroke-width:2; stroke-opacity:0.1; fill:none" points="
  218.439,1486.45 218.439,47.2441 
  "/>
<polyline clip-path="url(#clip562)" style="stroke:#000000; stroke-linecap:round; stroke-linejoin:round; stroke-width:2; stroke-opacity:0.1; fill:none" points="
  736.477,1486.45 736.477,47.2441 
  "/>
<polyline clip-path="url(#clip562)" style="stroke:#000000; stroke-linecap:round; stroke-linejoin:round; stroke-width:2; stroke-opacity:0.1; fill:none" points="
  1254.52,1486.45 1254.52,47.2441 
  "/>
<polyline clip-path="url(#clip562)" style="stroke:#000000; stroke-linecap:round; stroke-linejoin:round; stroke-width:2; stroke-opacity:0.1; fill:none" points="
  1772.55,1486.45 1772.55,47.2441 
  "/>
<polyline clip-path="url(#clip562)" style="stroke:#000000; stroke-linecap:round; stroke-linejoin:round; stroke-width:2; stroke-opacity:0.1; fill:none" points="
  2290.59,1486.45 2290.59,47.2441 
  "/>
<polyline clip-path="url(#clip560)" style="stroke:#000000; stroke-linecap:round; stroke-linejoin:round; stroke-width:4; stroke-opacity:1; fill:none" points="
  156.274,1486.45 2352.76,1486.45 
  "/>
<polyline clip-path="url(#clip560)" style="stroke:#000000; stroke-linecap:round; stroke-linejoin:round; stroke-width:4; stroke-opacity:1; fill:none" points="
  218.439,1486.45 218.439,1467.55 
  "/>
<polyline clip-path="url(#clip560)" style="stroke:#000000; stroke-linecap:round; stroke-linejoin:round; stroke-width:4; stroke-opacity:1; fill:none" points="
  736.477,1486.45 736.477,1467.55 
  "/>
<polyline clip-path="url(#clip560)" style="stroke:#000000; stroke-linecap:round; stroke-linejoin:round; stroke-width:4; stroke-opacity:1; fill:none" points="
  1254.52,1486.45 1254.52,1467.55 
  "/>
<polyline clip-path="url(#clip560)" style="stroke:#000000; stroke-linecap:round; stroke-linejoin:round; stroke-width:4; stroke-opacity:1; fill:none" points="
  1772.55,1486.45 1772.55,1467.55 
  "/>
<polyline clip-path="url(#clip560)" style="stroke:#000000; stroke-linecap:round; stroke-linejoin:round; stroke-width:4; stroke-opacity:1; fill:none" points="
  2290.59,1486.45 2290.59,1467.55 
  "/>
<path clip-path="url(#clip560)" d="M164.967 1532.02 L194.643 1532.02 L194.643 1535.95 L164.967 1535.95 L164.967 1532.02 Z" fill="#000000" fill-rule="evenodd" fill-opacity="1" /><path clip-path="url(#clip560)" d="M205.545 1544.91 L213.184 1544.91 L213.184 1518.55 L204.874 1520.21 L204.874 1515.95 L213.138 1514.29 L217.814 1514.29 L217.814 1544.91 L225.453 1544.91 L225.453 1548.85 L205.545 1548.85 L205.545 1544.91 Z" fill="#000000" fill-rule="evenodd" fill-opacity="1" /><path clip-path="url(#clip560)" d="M234.897 1542.97 L239.781 1542.97 L239.781 1548.85 L234.897 1548.85 L234.897 1542.97 Z" fill="#000000" fill-rule="evenodd" fill-opacity="1" /><path clip-path="url(#clip560)" d="M259.966 1517.37 Q256.355 1517.37 254.527 1520.93 Q252.721 1524.47 252.721 1531.6 Q252.721 1538.71 254.527 1542.27 Q256.355 1545.82 259.966 1545.82 Q263.601 1545.82 265.406 1542.27 Q267.235 1538.71 267.235 1531.6 Q267.235 1524.47 265.406 1520.93 Q263.601 1517.37 259.966 1517.37 M259.966 1513.66 Q265.776 1513.66 268.832 1518.27 Q271.911 1522.85 271.911 1531.6 Q271.911 1540.33 268.832 1544.94 Q265.776 1549.52 259.966 1549.52 Q254.156 1549.52 251.077 1544.94 Q248.022 1540.33 248.022 1531.6 Q248.022 1522.85 251.077 1518.27 Q254.156 1513.66 259.966 1513.66 Z" fill="#000000" fill-rule="evenodd" fill-opacity="1" /><path clip-path="url(#clip560)" d="M683.503 1532.02 L713.178 1532.02 L713.178 1535.95 L683.503 1535.95 L683.503 1532.02 Z" fill="#000000" fill-rule="evenodd" fill-opacity="1" /><path clip-path="url(#clip560)" d="M733.271 1517.37 Q729.66 1517.37 727.831 1520.93 Q726.026 1524.47 726.026 1531.6 Q726.026 1538.71 727.831 1542.27 Q729.66 1545.82 733.271 1545.82 Q736.905 1545.82 738.711 1542.27 Q740.539 1538.71 740.539 1531.6 Q740.539 1524.47 738.711 1520.93 Q736.905 1517.37 733.271 1517.37 M733.271 1513.66 Q739.081 1513.66 742.137 1518.27 Q745.215 1522.85 745.215 1531.6 Q745.215 1540.33 742.137 1544.94 Q739.081 1549.52 733.271 1549.52 Q727.461 1549.52 724.382 1544.94 Q721.327 1540.33 721.327 1531.6 Q721.327 1522.85 724.382 1518.27 Q727.461 1513.66 733.271 1513.66 Z" fill="#000000" fill-rule="evenodd" fill-opacity="1" /><path clip-path="url(#clip560)" d="M753.433 1542.97 L758.317 1542.97 L758.317 1548.85 L753.433 1548.85 L753.433 1542.97 Z" fill="#000000" fill-rule="evenodd" fill-opacity="1" /><path clip-path="url(#clip560)" d="M768.548 1514.29 L786.905 1514.29 L786.905 1518.22 L772.831 1518.22 L772.831 1526.7 Q773.849 1526.35 774.868 1526.19 Q775.886 1526 776.905 1526 Q782.692 1526 786.072 1529.17 Q789.451 1532.34 789.451 1537.76 Q789.451 1543.34 785.979 1546.44 Q782.507 1549.52 776.187 1549.52 Q774.011 1549.52 771.743 1549.15 Q769.498 1548.78 767.09 1548.04 L767.09 1543.34 Q769.173 1544.47 771.396 1545.03 Q773.618 1545.58 776.095 1545.58 Q780.099 1545.58 782.437 1543.48 Q784.775 1541.37 784.775 1537.76 Q784.775 1534.15 782.437 1532.04 Q780.099 1529.94 776.095 1529.94 Q774.22 1529.94 772.345 1530.35 Q770.493 1530.77 768.548 1531.65 L768.548 1514.29 Z" fill="#000000" fill-rule="evenodd" fill-opacity="1" /><path clip-path="url(#clip560)" d="M1231.9 1517.37 Q1228.29 1517.37 1226.46 1520.93 Q1224.65 1524.47 1224.65 1531.6 Q1224.65 1538.71 1226.46 1542.27 Q1228.29 1545.82 1231.9 1545.82 Q1235.53 1545.82 1237.34 1542.27 Q1239.17 1538.71 1239.17 1531.6 Q1239.17 1524.47 1237.34 1520.93 Q1235.53 1517.37 1231.9 1517.37 M1231.9 1513.66 Q1237.71 1513.66 1240.77 1518.27 Q1243.84 1522.85 1243.84 1531.6 Q1243.84 1540.33 1240.77 1544.94 Q1237.71 1549.52 1231.9 1549.52 Q1226.09 1549.52 1223.01 1544.94 Q1219.96 1540.33 1219.96 1531.6 Q1219.96 1522.85 1223.01 1518.27 Q1226.09 1513.66 1231.9 1513.66 Z" fill="#000000" fill-rule="evenodd" fill-opacity="1" /><path clip-path="url(#clip560)" d="M1252.06 1542.97 L1256.95 1542.97 L1256.95 1548.85 L1252.06 1548.85 L1252.06 1542.97 Z" fill="#000000" fill-rule="evenodd" fill-opacity="1" /><path clip-path="url(#clip560)" d="M1277.13 1517.37 Q1273.52 1517.37 1271.69 1520.93 Q1269.89 1524.47 1269.89 1531.6 Q1269.89 1538.71 1271.69 1542.27 Q1273.52 1545.82 1277.13 1545.82 Q1280.76 1545.82 1282.57 1542.27 Q1284.4 1538.71 1284.4 1531.6 Q1284.4 1524.47 1282.57 1520.93 Q1280.76 1517.37 1277.13 1517.37 M1277.13 1513.66 Q1282.94 1513.66 1286 1518.27 Q1289.08 1522.85 1289.08 1531.6 Q1289.08 1540.33 1286 1544.94 Q1282.94 1549.52 1277.13 1549.52 Q1271.32 1549.52 1268.24 1544.94 Q1265.19 1540.33 1265.19 1531.6 Q1265.19 1522.85 1268.24 1518.27 Q1271.32 1513.66 1277.13 1513.66 Z" fill="#000000" fill-rule="evenodd" fill-opacity="1" /><path clip-path="url(#clip560)" d="M1750.44 1517.37 Q1746.82 1517.37 1745 1520.93 Q1743.19 1524.47 1743.19 1531.6 Q1743.19 1538.71 1745 1542.27 Q1746.82 1545.82 1750.44 1545.82 Q1754.07 1545.82 1755.88 1542.27 Q1757.7 1538.71 1757.7 1531.6 Q1757.7 1524.47 1755.88 1520.93 Q1754.07 1517.37 1750.44 1517.37 M1750.44 1513.66 Q1756.25 1513.66 1759.3 1518.27 Q1762.38 1522.85 1762.38 1531.6 Q1762.38 1540.33 1759.3 1544.94 Q1756.25 1549.52 1750.44 1549.52 Q1744.63 1549.52 1741.55 1544.94 Q1738.49 1540.33 1738.49 1531.6 Q1738.49 1522.85 1741.55 1518.27 Q1744.63 1513.66 1750.44 1513.66 Z" fill="#000000" fill-rule="evenodd" fill-opacity="1" /><path clip-path="url(#clip560)" d="M1770.6 1542.97 L1775.48 1542.97 L1775.48 1548.85 L1770.6 1548.85 L1770.6 1542.97 Z" fill="#000000" fill-rule="evenodd" fill-opacity="1" /><path clip-path="url(#clip560)" d="M1785.71 1514.29 L1804.07 1514.29 L1804.07 1518.22 L1790 1518.22 L1790 1526.7 Q1791.01 1526.35 1792.03 1526.19 Q1793.05 1526 1794.07 1526 Q1799.86 1526 1803.24 1529.17 Q1806.62 1532.34 1806.62 1537.76 Q1806.62 1543.34 1803.14 1546.44 Q1799.67 1549.52 1793.35 1549.52 Q1791.18 1549.52 1788.91 1549.15 Q1786.66 1548.78 1784.25 1548.04 L1784.25 1543.34 Q1786.34 1544.47 1788.56 1545.03 Q1790.78 1545.58 1793.26 1545.58 Q1797.26 1545.58 1799.6 1543.48 Q1801.94 1541.37 1801.94 1537.76 Q1801.94 1534.15 1799.6 1532.04 Q1797.26 1529.94 1793.26 1529.94 Q1791.38 1529.94 1789.51 1530.35 Q1787.66 1530.77 1785.71 1531.65 L1785.71 1514.29 Z" fill="#000000" fill-rule="evenodd" fill-opacity="1" /><path clip-path="url(#clip560)" d="M2257.74 1544.91 L2265.38 1544.91 L2265.38 1518.55 L2257.07 1520.21 L2257.07 1515.95 L2265.34 1514.29 L2270.01 1514.29 L2270.01 1544.91 L2277.65 1544.91 L2277.65 1548.85 L2257.74 1548.85 L2257.74 1544.91 Z" fill="#000000" fill-rule="evenodd" fill-opacity="1" /><path clip-path="url(#clip560)" d="M2287.1 1542.97 L2291.98 1542.97 L2291.98 1548.85 L2287.1 1548.85 L2287.1 1542.97 Z" fill="#000000" fill-rule="evenodd" fill-opacity="1" /><path clip-path="url(#clip560)" d="M2312.17 1517.37 Q2308.55 1517.37 2306.73 1520.93 Q2304.92 1524.47 2304.92 1531.6 Q2304.92 1538.71 2306.73 1542.27 Q2308.55 1545.82 2312.17 1545.82 Q2315.8 1545.82 2317.61 1542.27 Q2319.43 1538.71 2319.43 1531.6 Q2319.43 1524.47 2317.61 1520.93 Q2315.8 1517.37 2312.17 1517.37 M2312.17 1513.66 Q2317.98 1513.66 2321.03 1518.27 Q2324.11 1522.85 2324.11 1531.6 Q2324.11 1540.33 2321.03 1544.94 Q2317.98 1549.52 2312.17 1549.52 Q2306.36 1549.52 2303.28 1544.94 Q2300.22 1540.33 2300.22 1531.6 Q2300.22 1522.85 2303.28 1518.27 Q2306.36 1513.66 2312.17 1513.66 Z" fill="#000000" fill-rule="evenodd" fill-opacity="1" /><polyline clip-path="url(#clip562)" style="stroke:#000000; stroke-linecap:round; stroke-linejoin:round; stroke-width:2; stroke-opacity:0.1; fill:none" points="
  156.274,1245.93 2352.76,1245.93 
  "/>
<polyline clip-path="url(#clip562)" style="stroke:#000000; stroke-linecap:round; stroke-linejoin:round; stroke-width:2; stroke-opacity:0.1; fill:none" points="
  156.274,974.178 2352.76,974.178 
  "/>
<polyline clip-path="url(#clip562)" style="stroke:#000000; stroke-linecap:round; stroke-linejoin:round; stroke-width:2; stroke-opacity:0.1; fill:none" points="
  156.274,702.425 2352.76,702.425 
  "/>
<polyline clip-path="url(#clip562)" style="stroke:#000000; stroke-linecap:round; stroke-linejoin:round; stroke-width:2; stroke-opacity:0.1; fill:none" points="
  156.274,430.671 2352.76,430.671 
  "/>
<polyline clip-path="url(#clip562)" style="stroke:#000000; stroke-linecap:round; stroke-linejoin:round; stroke-width:2; stroke-opacity:0.1; fill:none" points="
  156.274,158.917 2352.76,158.917 
  "/>
<polyline clip-path="url(#clip560)" style="stroke:#000000; stroke-linecap:round; stroke-linejoin:round; stroke-width:4; stroke-opacity:1; fill:none" points="
  156.274,1486.45 156.274,47.2441 
  "/>
<polyline clip-path="url(#clip560)" style="stroke:#000000; stroke-linecap:round; stroke-linejoin:round; stroke-width:4; stroke-opacity:1; fill:none" points="
  156.274,1245.93 175.172,1245.93 
  "/>
<polyline clip-path="url(#clip560)" style="stroke:#000000; stroke-linecap:round; stroke-linejoin:round; stroke-width:4; stroke-opacity:1; fill:none" points="
  156.274,974.178 175.172,974.178 
  "/>
<polyline clip-path="url(#clip560)" style="stroke:#000000; stroke-linecap:round; stroke-linejoin:round; stroke-width:4; stroke-opacity:1; fill:none" points="
  156.274,702.425 175.172,702.425 
  "/>
<polyline clip-path="url(#clip560)" style="stroke:#000000; stroke-linecap:round; stroke-linejoin:round; stroke-width:4; stroke-opacity:1; fill:none" points="
  156.274,430.671 175.172,430.671 
  "/>
<polyline clip-path="url(#clip560)" style="stroke:#000000; stroke-linecap:round; stroke-linejoin:round; stroke-width:4; stroke-opacity:1; fill:none" points="
  156.274,158.917 175.172,158.917 
  "/>
<path clip-path="url(#clip560)" d="M63.0985 1231.73 Q59.4875 1231.73 57.6588 1235.3 Q55.8532 1238.84 55.8532 1245.97 Q55.8532 1253.07 57.6588 1256.64 Q59.4875 1260.18 63.0985 1260.18 Q66.7328 1260.18 68.5383 1256.64 Q70.367 1253.07 70.367 1245.97 Q70.367 1238.84 68.5383 1235.3 Q66.7328 1231.73 63.0985 1231.73 M63.0985 1228.03 Q68.9087 1228.03 71.9642 1232.63 Q75.0429 1237.22 75.0429 1245.97 Q75.0429 1254.69 71.9642 1259.3 Q68.9087 1263.88 63.0985 1263.88 Q57.2884 1263.88 54.2097 1259.3 Q51.1542 1254.69 51.1542 1245.97 Q51.1542 1237.22 54.2097 1232.63 Q57.2884 1228.03 63.0985 1228.03 Z" fill="#000000" fill-rule="evenodd" fill-opacity="1" /><path clip-path="url(#clip560)" d="M83.2605 1257.33 L88.1447 1257.33 L88.1447 1263.21 L83.2605 1263.21 L83.2605 1257.33 Z" fill="#000000" fill-rule="evenodd" fill-opacity="1" /><path clip-path="url(#clip560)" d="M108.33 1231.73 Q104.719 1231.73 102.89 1235.3 Q101.084 1238.84 101.084 1245.97 Q101.084 1253.07 102.89 1256.64 Q104.719 1260.18 108.33 1260.18 Q111.964 1260.18 113.77 1256.64 Q115.598 1253.07 115.598 1245.97 Q115.598 1238.84 113.77 1235.3 Q111.964 1231.73 108.33 1231.73 M108.33 1228.03 Q114.14 1228.03 117.195 1232.63 Q120.274 1237.22 120.274 1245.97 Q120.274 1254.69 117.195 1259.3 Q114.14 1263.88 108.33 1263.88 Q102.52 1263.88 99.4409 1259.3 Q96.3854 1254.69 96.3854 1245.97 Q96.3854 1237.22 99.4409 1232.63 Q102.52 1228.03 108.33 1228.03 Z" fill="#000000" fill-rule="evenodd" fill-opacity="1" /><path clip-path="url(#clip560)" d="M63.7467 959.977 Q60.1356 959.977 58.3069 963.542 Q56.5014 967.083 56.5014 974.213 Q56.5014 981.319 58.3069 984.884 Q60.1356 988.426 63.7467 988.426 Q67.3809 988.426 69.1865 984.884 Q71.0152 981.319 71.0152 974.213 Q71.0152 967.083 69.1865 963.542 Q67.3809 959.977 63.7467 959.977 M63.7467 956.273 Q69.5568 956.273 72.6124 960.88 Q75.6911 965.463 75.6911 974.213 Q75.6911 982.94 72.6124 987.546 Q69.5568 992.13 63.7467 992.13 Q57.9365 992.13 54.8578 987.546 Q51.8023 982.94 51.8023 974.213 Q51.8023 965.463 54.8578 960.88 Q57.9365 956.273 63.7467 956.273 Z" fill="#000000" fill-rule="evenodd" fill-opacity="1" /><path clip-path="url(#clip560)" d="M83.9086 985.579 L88.7928 985.579 L88.7928 991.458 L83.9086 991.458 L83.9086 985.579 Z" fill="#000000" fill-rule="evenodd" fill-opacity="1" /><path clip-path="url(#clip560)" d="M113.145 972.824 Q116.501 973.542 118.376 975.81 Q120.274 978.079 120.274 981.412 Q120.274 986.528 116.756 989.329 Q113.237 992.13 106.756 992.13 Q104.58 992.13 102.265 991.69 Q99.9733 991.273 97.5197 990.417 L97.5197 985.903 Q99.4641 987.037 101.779 987.616 Q104.094 988.194 106.617 988.194 Q111.015 988.194 113.307 986.458 Q115.621 984.722 115.621 981.412 Q115.621 978.356 113.469 976.643 Q111.339 974.907 107.52 974.907 L103.492 974.907 L103.492 971.065 L107.705 971.065 Q111.154 971.065 112.983 969.699 Q114.811 968.31 114.811 965.718 Q114.811 963.056 112.913 961.644 Q111.038 960.208 107.52 960.208 Q105.598 960.208 103.399 960.625 Q101.2 961.042 98.5613 961.921 L98.5613 957.755 Q101.223 957.014 103.538 956.644 Q105.876 956.273 107.936 956.273 Q113.26 956.273 116.362 958.704 Q119.464 961.111 119.464 965.232 Q119.464 968.102 117.82 970.093 Q116.177 972.06 113.145 972.824 Z" fill="#000000" fill-rule="evenodd" fill-opacity="1" /><path clip-path="url(#clip560)" d="M62.9365 688.223 Q59.3254 688.223 57.4967 691.788 Q55.6912 695.33 55.6912 702.459 Q55.6912 709.566 57.4967 713.131 Q59.3254 716.672 62.9365 716.672 Q66.5707 716.672 68.3763 713.131 Q70.205 709.566 70.205 702.459 Q70.205 695.33 68.3763 691.788 Q66.5707 688.223 62.9365 688.223 M62.9365 684.52 Q68.7467 684.52 71.8022 689.126 Q74.8809 693.709 74.8809 702.459 Q74.8809 711.186 71.8022 715.793 Q68.7467 720.376 62.9365 720.376 Q57.1264 720.376 54.0477 715.793 Q50.9921 711.186 50.9921 702.459 Q50.9921 693.709 54.0477 689.126 Q57.1264 684.52 62.9365 684.52 Z" fill="#000000" fill-rule="evenodd" fill-opacity="1" /><path clip-path="url(#clip560)" d="M83.0984 713.825 L87.9827 713.825 L87.9827 719.705 L83.0984 719.705 L83.0984 713.825 Z" fill="#000000" fill-rule="evenodd" fill-opacity="1" /><path clip-path="url(#clip560)" d="M108.746 700.561 Q105.598 700.561 103.746 702.714 Q101.918 704.867 101.918 708.617 Q101.918 712.344 103.746 714.519 Q105.598 716.672 108.746 716.672 Q111.895 716.672 113.723 714.519 Q115.575 712.344 115.575 708.617 Q115.575 704.867 113.723 702.714 Q111.895 700.561 108.746 700.561 M118.029 685.909 L118.029 690.168 Q116.27 689.334 114.464 688.895 Q112.682 688.455 110.922 688.455 Q106.293 688.455 103.839 691.58 Q101.409 694.705 101.061 701.024 Q102.427 699.01 104.487 697.945 Q106.547 696.858 109.024 696.858 Q114.233 696.858 117.242 700.029 Q120.274 703.177 120.274 708.617 Q120.274 713.941 117.126 717.158 Q113.978 720.376 108.746 720.376 Q102.751 720.376 99.5798 715.793 Q96.4085 711.186 96.4085 702.459 Q96.4085 694.265 100.297 689.404 Q104.186 684.52 110.737 684.52 Q112.496 684.52 114.279 684.867 Q116.084 685.214 118.029 685.909 Z" fill="#000000" fill-rule="evenodd" fill-opacity="1" /><path clip-path="url(#clip560)" d="M63.2837 416.47 Q59.6726 416.47 57.8439 420.035 Q56.0384 423.576 56.0384 430.706 Q56.0384 437.812 57.8439 441.377 Q59.6726 444.919 63.2837 444.919 Q66.918 444.919 68.7235 441.377 Q70.5522 437.812 70.5522 430.706 Q70.5522 423.576 68.7235 420.035 Q66.918 416.47 63.2837 416.47 M63.2837 412.766 Q69.0939 412.766 72.1494 417.373 Q75.2281 421.956 75.2281 430.706 Q75.2281 439.433 72.1494 444.039 Q69.0939 448.622 63.2837 448.622 Q57.4736 448.622 54.3949 444.039 Q51.3393 439.433 51.3393 430.706 Q51.3393 421.956 54.3949 417.373 Q57.4736 412.766 63.2837 412.766 Z" fill="#000000" fill-rule="evenodd" fill-opacity="1" /><path clip-path="url(#clip560)" d="M83.4457 442.071 L88.3299 442.071 L88.3299 447.951 L83.4457 447.951 L83.4457 442.071 Z" fill="#000000" fill-rule="evenodd" fill-opacity="1" /><path clip-path="url(#clip560)" d="M98.6539 447.233 L98.6539 442.974 Q100.413 443.808 102.219 444.247 Q104.024 444.687 105.76 444.687 Q110.39 444.687 112.82 441.585 Q115.274 438.46 115.621 432.118 Q114.279 434.109 112.219 435.173 Q110.158 436.238 107.658 436.238 Q102.473 436.238 99.4409 433.113 Q96.4317 429.965 96.4317 424.525 Q96.4317 419.201 99.5798 415.984 Q102.728 412.766 107.959 412.766 Q113.955 412.766 117.103 417.373 Q120.274 421.956 120.274 430.706 Q120.274 438.877 116.385 443.761 Q112.52 448.622 105.969 448.622 Q104.209 448.622 102.404 448.275 Q100.598 447.928 98.6539 447.233 M107.959 432.581 Q111.108 432.581 112.936 430.428 Q114.788 428.275 114.788 424.525 Q114.788 420.798 112.936 418.646 Q111.108 416.47 107.959 416.47 Q104.811 416.47 102.959 418.646 Q101.131 420.798 101.131 424.525 Q101.131 428.275 102.959 430.428 Q104.811 432.581 107.959 432.581 Z" fill="#000000" fill-rule="evenodd" fill-opacity="1" /><path clip-path="url(#clip560)" d="M55.506 172.262 L63.1448 172.262 L63.1448 145.897 L54.8347 147.563 L54.8347 143.304 L63.0985 141.637 L67.7744 141.637 L67.7744 172.262 L75.4133 172.262 L75.4133 176.197 L55.506 176.197 L55.506 172.262 Z" fill="#000000" fill-rule="evenodd" fill-opacity="1" /><path clip-path="url(#clip560)" d="M84.8577 170.318 L89.7419 170.318 L89.7419 176.197 L84.8577 176.197 L84.8577 170.318 Z" fill="#000000" fill-rule="evenodd" fill-opacity="1" /><path clip-path="url(#clip560)" d="M103.955 172.262 L120.274 172.262 L120.274 176.197 L98.3298 176.197 L98.3298 172.262 Q100.992 169.508 105.575 164.878 Q110.182 160.225 111.362 158.883 Q113.608 156.36 114.487 154.624 Q115.39 152.864 115.39 151.174 Q115.39 148.42 113.445 146.684 Q111.524 144.948 108.422 144.948 Q106.223 144.948 103.77 145.712 Q101.339 146.475 98.5613 148.026 L98.5613 143.304 Q101.385 142.17 103.839 141.591 Q106.293 141.012 108.33 141.012 Q113.7 141.012 116.895 143.698 Q120.089 146.383 120.089 150.874 Q120.089 153.003 119.279 154.924 Q118.492 156.823 116.385 159.415 Q115.807 160.086 112.705 163.304 Q109.603 166.498 103.955 172.262 Z" fill="#000000" fill-rule="evenodd" fill-opacity="1" /><polyline clip-path="url(#clip562)" style="stroke:#009af9; stroke-linecap:round; stroke-linejoin:round; stroke-width:16; stroke-opacity:1; fill:none" stroke-dasharray="8, 16" points="
  218.439,1109.77 228.852,1077.7 239.264,1059.8 249.677,1056.44 260.09,1064.08 270.503,1076.93 280.916,1089.71 291.329,1100.39 301.741,1111.27 312.154,1127.19 
  322.567,1151.89 332.98,1185.18 343.393,1222.99 353.805,1260.07 364.218,1293.09 374.631,1321.95 385.044,1348.55 395.457,1374.11 405.87,1397.27 416.282,1414.61 
  426.695,1423.09 437.108,1422.65 447.521,1416.66 457.934,1409.6 468.347,1403.23 478.759,1394.74 489.172,1378.73 499.585,1351.74 509.998,1315.08 520.411,1274.18 
  530.824,1235.43 541.236,1203.25 551.649,1178.36 562.062,1158.07 572.475,1138.22 582.888,1115.91 593.301,1091.45 603.713,1068.85 614.126,1054.17 624.539,1052.22 
  634.952,1063.41 645.365,1083.49 655.777,1106.38 666.19,1127.82 676.603,1147.23 687.016,1167.19 697.429,1191.37 707.842,1222.26 718.254,1259.53 728.667,1299.74 
  739.08,1337.45 749.493,1367.46 759.906,1387.15 770.319,1397.77 780.731,1403.69 791.144,1409.85 801.557,1418.4 811.97,1426.74 822.383,1428.57 832.796,1417.87 
  843.208,1393.26 853.621,1359.18 864.034,1323.02 874.447,1290.55 884.86,1263.34 895.273,1239.12 905.685,1214.14 916.098,1185.73 926.511,1153.86 936.924,1121.49 
  947.337,1093.27 957.749,1073.43 968.162,1063.88 978.575,1063.71 988.988,1070.18 999.401,1080.45 1009.81,1092.88 1020.23,1107.23 1030.64,1124.29 1041.05,1145.13 
  1051.46,1170.53 1061.88,1200.63 1072.29,1234.74 1082.7,1271.4 1093.12,1308.48 1103.53,1343.45 1113.94,1373.7 1124.35,1396.95 1134.77,1411.6 1145.18,1417.19 
  1155.59,1414.88 1166.01,1407.94 1176.42,1402.01 1186.83,1404.23 1197.24,1419.54 1207.66,1442.37 1218.07,1445.72 1228.48,1379.97 1238.9,1200.7 1249.31,919.265 
  1259.72,620.058 1270.13,402.668 1280.55,306.336 1290.96,299.943 1301.37,328.221 1311.79,352.101 1322.2,357.904 1332.61,348.53 1343.02,332.769 1353.44,318.793 
  1363.85,311.643 1374.26,313.023 1384.68,322.009 1395.09,335.99 1405.5,351.528 1415.91,365.076 1426.33,373.534 1436.74,374.666 1447.15,367.42 1457.57,352.2 
  1467.98,331.135 1478.39,308.266 1488.8,289.424 1499.22,281.347 1509.63,289.63 1520.04,315.694 1530.45,354.242 1540.87,393.437 1551.28,419.024 1561.69,420.588 
  1572.11,396.222 1582.52,353.073 1592.93,304.229 1603.34,264.266 1613.76,245.152 1624.17,253.036 1634.58,286.364 1645,336.169 1655.41,388.738 1665.82,429.49 
  1676.23,446.676 1686.65,434.336 1697.06,394.28 1707.47,336.33 1717.89,276.136 1728.3,230.948 1738.71,214.741 1749.12,234.121 1759.54,285.932 1769.95,357.185 
  1780.36,427.806 1790.78,476.11 1801.19,485.698 1811.6,451.295 1822.01,381.211 1832.43,295.449 1842.84,220.024 1853.25,178.998 1863.67,186.378 1874.08,240.688 
  1884.49,325.067 1894.9,413.591 1905.32,480.7 1915.73,508.818 1926.14,491.447 1936.56,432.709 1946.97,345.788 1957.38,251.53 1967.79,176.124 1978.21,145.157 
  1988.62,173.479 1999.03,255.889 2009.45,366.5 2019.86,469.283 2030.27,533.048 2040.68,541.415 2051.1,494.589 2061.51,405.888 2071.92,297.096 2082.33,194.782 
  2092.75,126.877 2103.16,117.007 2113.57,175.316 2123.99,289.731 2134.4,425.512 2144.81,537.18 2155.22,587.109 2165.64,559.915 2176.05,466.468 2186.46,338.526 
  2196.88,217.207 2207.29,138.509 2217.7,121.04 2228.11,161.796 2238.53,241.562 2248.94,335.483 2259.35,422.547 2269.77,490.532 2280.18,536.621 2290.59,565.492 
  
  "/>
<polyline clip-path="url(#clip562)" style="stroke:#e26f46; stroke-linecap:round; stroke-linejoin:round; stroke-width:4; stroke-opacity:1; fill:none" points="
  218.439,1109.88 228.852,1090.57 239.264,1076.34 249.677,1067.64 260.09,1064.76 270.503,1067.8 280.916,1076.64 291.329,1091.02 301.741,1110.45 312.154,1134.3 
  322.567,1161.79 332.98,1192.03 343.393,1224.03 353.805,1256.75 364.218,1289.11 374.631,1320.06 385.044,1348.59 395.457,1373.77 405.87,1394.78 416.282,1410.94 
  426.695,1421.7 437.108,1426.73 447.521,1425.86 457.934,1419.12 468.347,1406.72 478.759,1389.08 489.172,1366.76 499.585,1340.5 509.998,1311.16 520.411,1279.68 
  530.824,1247.11 541.236,1214.49 551.649,1182.91 562.062,1153.37 572.475,1126.86 582.888,1104.24 593.301,1086.24 603.713,1073.45 614.126,1066.29 624.539,1065 
  634.952,1069.61 645.365,1079.97 655.777,1095.75 666.19,1116.43 676.603,1141.34 687.016,1169.66 697.429,1200.48 707.842,1232.77 718.254,1265.5 728.667,1297.58 
  739.08,1327.98 749.493,1355.7 759.906,1379.84 770.319,1399.61 780.731,1414.37 791.144,1423.62 801.557,1427.08 811.97,1424.62 822.383,1416.34 832.796,1402.49 
  843.208,1383.53 853.621,1360.08 864.034,1332.91 874.447,1302.89 884.86,1271.02 895.273,1238.33 905.685,1205.89 916.098,1174.75 926.511,1145.94 936.924,1120.39 
  947.337,1098.94 957.749,1082.28 968.162,1070.97 978.575,1065.37 988.988,1065.66 999.401,1071.83 1009.81,1083.69 1020.23,1100.84 1030.64,1122.72 1041.05,1148.63 
  1051.46,1177.72 1061.88,1209.03 1072.29,1241.54 1082.7,1274.2 1093.12,1305.93 1103.53,1335.71 1113.94,1362.56 1124.35,1385.6 1134.77,1404.08 1145.18,1417.4 
  1155.59,1425.13 1166.01,1427 1176.42,1422.97 1186.83,1413.16 1197.24,1397.89 1207.66,1377.66 1218.07,1353.13 1228.48,1325.1 1238.9,1294.49 1249.31,1262.3 
  1259.72,338.771 1270.13,337.274 1280.55,338.636 1290.96,343.172 1301.37,349.492 1311.79,354.924 1322.2,356.533 1332.61,352.353 1343.02,342.389 1353.44,328.955 
  1363.85,316.173 1374.26,308.705 1384.68,310.138 1395.09,321.531 1405.5,340.695 1415.91,362.505 1426.33,380.265 1436.74,387.756 1447.15,381.343 1457.57,361.446 
  1467.98,332.825 1478.39,303.495 1488.8,282.473 1499.22,277.027 1509.63,290.229 1520.04,319.64 1530.45,357.624 1540.87,393.305 1551.28,415.683 1561.69,417.008 
  1572.11,395.389 1582.52,355.767 1592.93,308.865 1603.34,268.294 1613.76,246.607 1624.17,251.429 1634.58,282.871 1645,333.067 1655.41,388.094 1665.82,431.835 
  1676.23,450.693 1686.65,437.797 1697.06,395.391 1707.47,334.612 1717.89,272.588 1728.3,227.615 1738.71,213.765 1749.12,236.508 1759.54,290.716 1769.95,361.73 
  1780.36,429.309 1790.78,473.398 1801.19,480.076 1811.6,445.914 1822.01,379.394 1832.43,298.856 1842.84,227.453 1853.25,186.49 1863.67,189.079 1874.08,235.987 
  1884.49,314.977 1894.9,403.971 1905.32,477.215 1915.73,512.732 1926.14,498.901 1936.56,438.211 1946.97,346.962 1957.38,250.919 1967.79,178.03 1978.21,150.305 
  1988.62,177.173 1999.03,252.363 2009.45,355.284 2019.86,456.65 2030.27,526.814 2040.68,544.438 2051.1,502.958 2061.51,412.905 2071.92,299.277 2082.33,194.606 
  2092.75,129.65 2103.16,124.352 2113.57,181.745 2123.99,286.65 2134.4,409.654 2144.81,515.356 2155.22,572.553 2165.64,563.446 2176.05,489.148 2186.46,369.791 
  2196.88,239.098 2207.29,134.852 2217.7,87.9763 2228.11,113.37 2238.53,205.216 2248.94,338.226 2259.35,474.591 2269.77,574.73 2280.18,608.77 2290.59,565.454 
  
  "/>
<path clip-path="url(#clip560)" d="
M229.49 250.738 L700.371 250.738 L700.371 95.2176 L229.49 95.2176  Z
  " fill="#ffffff" fill-rule="evenodd" fill-opacity="1"/>
<polyline clip-path="url(#clip560)" style="stroke:#000000; stroke-linecap:round; stroke-linejoin:round; stroke-width:4; stroke-opacity:1; fill:none" points="
  229.49,250.738 700.371,250.738 700.371,95.2176 229.49,95.2176 229.49,250.738 
  "/>
<polyline clip-path="url(#clip560)" style="stroke:#009af9; stroke-linecap:round; stroke-linejoin:round; stroke-width:4; stroke-opacity:1; fill:none" stroke-dasharray="2, 4" points="
  253.896,147.058 400.328,147.058 
  "/>
<path clip-path="url(#clip560)" d="M429.409 133.62 L429.409 146.606 L435.289 146.606 Q438.552 146.606 440.335 144.916 Q442.117 143.227 442.117 140.102 Q442.117 137 440.335 135.31 Q438.552 133.62 435.289 133.62 L429.409 133.62 M424.733 129.778 L435.289 129.778 Q441.099 129.778 444.062 132.416 Q447.048 135.032 447.048 140.102 Q447.048 145.217 444.062 147.833 Q441.099 150.449 435.289 150.449 L429.409 150.449 L429.409 164.338 L424.733 164.338 L424.733 129.778 Z" fill="#000000" fill-rule="evenodd" fill-opacity="1" /><path clip-path="url(#clip560)" d="M467.325 142.393 Q466.608 141.977 465.751 141.791 Q464.918 141.583 463.899 141.583 Q460.288 141.583 458.344 143.944 Q456.423 146.282 456.423 150.68 L456.423 164.338 L452.14 164.338 L452.14 138.412 L456.423 138.412 L456.423 142.44 Q457.765 140.078 459.918 138.944 Q462.071 137.787 465.149 137.787 Q465.589 137.787 466.122 137.856 Q466.654 137.903 467.302 138.018 L467.325 142.393 Z" fill="#000000" fill-rule="evenodd" fill-opacity="1" /><path clip-path="url(#clip560)" d="M492.927 150.31 L492.927 152.393 L473.344 152.393 Q473.622 156.791 475.983 159.106 Q478.367 161.398 482.603 161.398 Q485.057 161.398 487.348 160.796 Q489.663 160.194 491.932 158.99 L491.932 163.018 Q489.64 163.99 487.233 164.5 Q484.825 165.009 482.348 165.009 Q476.145 165.009 472.511 161.398 Q468.899 157.787 468.899 151.629 Q468.899 145.264 472.325 141.537 Q475.774 137.787 481.608 137.787 Q486.839 137.787 489.872 141.166 Q492.927 144.523 492.927 150.31 M488.668 149.06 Q488.622 145.565 486.7 143.481 Q484.802 141.398 481.654 141.398 Q478.089 141.398 475.936 143.412 Q473.807 145.426 473.483 149.083 L488.668 149.06 Z" fill="#000000" fill-rule="evenodd" fill-opacity="1" /><path clip-path="url(#clip560)" d="M516.978 142.347 L516.978 128.319 L521.237 128.319 L521.237 164.338 L516.978 164.338 L516.978 160.449 Q515.635 162.763 513.575 163.898 Q511.538 165.009 508.668 165.009 Q503.969 165.009 501.006 161.259 Q498.066 157.509 498.066 151.398 Q498.066 145.287 501.006 141.537 Q503.969 137.787 508.668 137.787 Q511.538 137.787 513.575 138.921 Q515.635 140.032 516.978 142.347 M502.464 151.398 Q502.464 156.097 504.385 158.782 Q506.33 161.444 509.709 161.444 Q513.089 161.444 515.033 158.782 Q516.978 156.097 516.978 151.398 Q516.978 146.699 515.033 144.037 Q513.089 141.352 509.709 141.352 Q506.33 141.352 504.385 144.037 Q502.464 146.699 502.464 151.398 Z" fill="#000000" fill-rule="evenodd" fill-opacity="1" /><path clip-path="url(#clip560)" d="M530.01 138.412 L534.269 138.412 L534.269 164.338 L530.01 164.338 L530.01 138.412 M530.01 128.319 L534.269 128.319 L534.269 133.713 L530.01 133.713 L530.01 128.319 Z" fill="#000000" fill-rule="evenodd" fill-opacity="1" /><path clip-path="url(#clip560)" d="M561.839 139.407 L561.839 143.389 Q560.033 142.393 558.205 141.907 Q556.399 141.398 554.547 141.398 Q550.404 141.398 548.112 144.037 Q545.82 146.652 545.82 151.398 Q545.82 156.143 548.112 158.782 Q550.404 161.398 554.547 161.398 Q556.399 161.398 558.205 160.912 Q560.033 160.402 561.839 159.407 L561.839 163.342 Q560.056 164.176 558.135 164.592 Q556.237 165.009 554.084 165.009 Q548.228 165.009 544.779 161.328 Q541.33 157.648 541.33 151.398 Q541.33 145.055 544.802 141.421 Q548.297 137.787 554.362 137.787 Q556.33 137.787 558.205 138.203 Q560.08 138.597 561.839 139.407 Z" fill="#000000" fill-rule="evenodd" fill-opacity="1" /><path clip-path="url(#clip560)" d="M573.459 131.051 L573.459 138.412 L582.232 138.412 L582.232 141.722 L573.459 141.722 L573.459 155.796 Q573.459 158.967 574.316 159.87 Q575.195 160.773 577.857 160.773 L582.232 160.773 L582.232 164.338 L577.857 164.338 Q572.927 164.338 571.052 162.509 Q569.177 160.657 569.177 155.796 L569.177 141.722 L566.052 141.722 L566.052 138.412 L569.177 138.412 L569.177 131.051 L573.459 131.051 Z" fill="#000000" fill-rule="evenodd" fill-opacity="1" /><path clip-path="url(#clip560)" d="M587.834 138.412 L592.093 138.412 L592.093 164.338 L587.834 164.338 L587.834 138.412 M587.834 128.319 L592.093 128.319 L592.093 133.713 L587.834 133.713 L587.834 128.319 Z" fill="#000000" fill-rule="evenodd" fill-opacity="1" /><path clip-path="url(#clip560)" d="M611.051 141.398 Q607.626 141.398 605.635 144.083 Q603.644 146.745 603.644 151.398 Q603.644 156.051 605.612 158.736 Q607.602 161.398 611.051 161.398 Q614.454 161.398 616.445 158.713 Q618.436 156.027 618.436 151.398 Q618.436 146.791 616.445 144.106 Q614.454 141.398 611.051 141.398 M611.051 137.787 Q616.607 137.787 619.778 141.398 Q622.95 145.009 622.95 151.398 Q622.95 157.764 619.778 161.398 Q616.607 165.009 611.051 165.009 Q605.473 165.009 602.302 161.398 Q599.153 157.764 599.153 151.398 Q599.153 145.009 602.302 141.398 Q605.473 137.787 611.051 137.787 Z" fill="#000000" fill-rule="evenodd" fill-opacity="1" /><path clip-path="url(#clip560)" d="M651.561 148.689 L651.561 164.338 L647.301 164.338 L647.301 148.828 Q647.301 145.148 645.866 143.319 Q644.431 141.49 641.561 141.49 Q638.112 141.49 636.121 143.69 Q634.13 145.889 634.13 149.685 L634.13 164.338 L629.848 164.338 L629.848 138.412 L634.13 138.412 L634.13 142.44 Q635.658 140.102 637.718 138.944 Q639.801 137.787 642.51 137.787 Q646.977 137.787 649.269 140.565 Q651.561 143.319 651.561 148.689 Z" fill="#000000" fill-rule="evenodd" fill-opacity="1" /><polyline clip-path="url(#clip560)" style="stroke:#e26f46; stroke-linecap:round; stroke-linejoin:round; stroke-width:4; stroke-opacity:1; fill:none" points="
  253.896,198.898 400.328,198.898 
  "/>
<path clip-path="url(#clip560)" d="M424.733 181.618 L446.585 181.618 L446.585 185.553 L429.409 185.553 L429.409 195.784 L445.867 195.784 L445.867 199.719 L429.409 199.719 L429.409 212.242 L447.001 212.242 L447.001 216.178 L424.733 216.178 L424.733 181.618 Z" fill="#000000" fill-rule="evenodd" fill-opacity="1" /><path clip-path="url(#clip560)" d="M476.052 190.252 L466.677 202.867 L476.538 216.178 L471.515 216.178 L463.969 205.992 L456.423 216.178 L451.4 216.178 L461.469 202.613 L452.256 190.252 L457.279 190.252 L464.154 199.488 L471.029 190.252 L476.052 190.252 Z" fill="#000000" fill-rule="evenodd" fill-opacity="1" /><path clip-path="url(#clip560)" d="M494.339 203.145 Q489.177 203.145 487.186 204.326 Q485.196 205.506 485.196 208.354 Q485.196 210.622 486.677 211.965 Q488.182 213.284 490.751 213.284 Q494.293 213.284 496.422 210.784 Q498.575 208.261 498.575 204.094 L498.575 203.145 L494.339 203.145 M502.834 201.386 L502.834 216.178 L498.575 216.178 L498.575 212.242 Q497.117 214.603 494.941 215.738 Q492.765 216.849 489.617 216.849 Q485.635 216.849 483.274 214.627 Q480.936 212.381 480.936 208.631 Q480.936 204.256 483.853 202.034 Q486.793 199.812 492.603 199.812 L498.575 199.812 L498.575 199.395 Q498.575 196.455 496.631 194.858 Q494.71 193.238 491.214 193.238 Q488.992 193.238 486.885 193.77 Q484.779 194.303 482.835 195.367 L482.835 191.432 Q485.173 190.53 487.372 190.09 Q489.571 189.627 491.654 189.627 Q497.279 189.627 500.057 192.543 Q502.834 195.46 502.834 201.386 Z" fill="#000000" fill-rule="evenodd" fill-opacity="1" /><path clip-path="url(#clip560)" d="M530.265 191.247 L530.265 195.229 Q528.459 194.233 526.631 193.747 Q524.825 193.238 522.973 193.238 Q518.83 193.238 516.538 195.877 Q514.246 198.492 514.246 203.238 Q514.246 207.983 516.538 210.622 Q518.83 213.238 522.973 213.238 Q524.825 213.238 526.631 212.752 Q528.459 212.242 530.265 211.247 L530.265 215.182 Q528.482 216.016 526.561 216.432 Q524.663 216.849 522.51 216.849 Q516.654 216.849 513.205 213.168 Q509.756 209.488 509.756 203.238 Q509.756 196.895 513.228 193.261 Q516.723 189.627 522.788 189.627 Q524.756 189.627 526.631 190.043 Q528.506 190.437 530.265 191.247 Z" fill="#000000" fill-rule="evenodd" fill-opacity="1" /><path clip-path="url(#clip560)" d="M541.885 182.891 L541.885 190.252 L550.658 190.252 L550.658 193.562 L541.885 193.562 L541.885 207.636 Q541.885 210.807 542.742 211.71 Q543.621 212.613 546.283 212.613 L550.658 212.613 L550.658 216.178 L546.283 216.178 Q541.353 216.178 539.478 214.349 Q537.603 212.497 537.603 207.636 L537.603 193.562 L534.478 193.562 L534.478 190.252 L537.603 190.252 L537.603 182.891 L541.885 182.891 Z" fill="#000000" fill-rule="evenodd" fill-opacity="1" /></svg>
