<?xml version="1.0" encoding="utf-8"?>
<svg xmlns="http://www.w3.org/2000/svg" xmlns:xlink="http://www.w3.org/1999/xlink" width="600" height="400" viewBox="0 0 2400 1600">
<defs>
  <clipPath id="clip620">
    <rect x="0" y="0" width="2400" height="1600"/>
  </clipPath>
</defs>
<path clip-path="url(#clip620)" d="
M0 1600 L2400 1600 L2400 0 L0 0  Z
  " fill="#ffffff" fill-rule="evenodd" fill-opacity="1"/>
<defs>
  <clipPath id="clip621">
    <rect x="480" y="0" width="1681" height="1600"/>
  </clipPath>
</defs>
<path clip-path="url(#clip620)" d="
M156.274 1486.45 L2352.76 1486.45 L2352.76 47.2441 L156.274 47.2441  Z
  " fill="#ffffff" fill-rule="evenodd" fill-opacity="1"/>
<defs>
  <clipPath id="clip622">
    <rect x="156" y="47" width="2197" height="1440"/>
  </clipPath>
</defs>
<polyline clip-path="url(#clip622)" style="stroke:#000000; stroke-linecap:round; stroke-linejoin:round; stroke-width:2; stroke-opacity:0.1; fill:none" points="
  218.439,1486.45 218.439,47.2441 
  "/>
<polyline clip-path="url(#clip622)" style="stroke:#000000; stroke-linecap:round; stroke-linejoin:round; stroke-width:2; stroke-opacity:0.1; fill:none" points="
  736.477,1486.45 736.477,47.2441 
  "/>
<polyline clip-path="url(#clip622)" style="stroke:#000000; stroke-linecap:round; stroke-linejoin:round; stroke-width:2; stroke-opacity:0.1; fill:none" points="
  1254.52,1486.45 1254.52,47.2441 
  "/>
<polyline clip-path="url(#clip622)" style="stroke:#000000; stroke-linecap:round; stroke-linejoin:round; stroke-width:2; stroke-opacity:0.1; fill:none" points="
  1772.55,1486.45 1772.55,47.2441 
  "/>
<polyline clip-path="url(#clip622)" style="stroke:#000000; stroke-linecap:round; stroke-linejoin:round; stroke-width:2; stroke-opacity:0.1; fill:none" points="
  2290.59,1486.45 2290.59,47.2441 
  "/>
<polyline clip-path="url(#clip620)" style="stroke:#000000; stroke-linecap:round; stroke-linejoin:round; stroke-width:4; stroke-opacity:1; fill:none" points="
  156.274,1486.45 2352.76,1486.45 
  "/>
<polyline clip-path="url(#clip620)" style="stroke:#000000; stroke-linecap:round; stroke-linejoin:round; stroke-width:4; stroke-opacity:1; fill:none" points="
  218.439,1486.45 218.439,1467.55 
  "/>
<polyline clip-path="url(#clip620)" style="stroke:#000000; stroke-linecap:round; stroke-linejoin:round; stroke-width:4; stroke-opacity:1; fill:none" points="
  736.477,1486.45 736.477,1467.55 
  "/>
<polyline clip-path="url(#clip620)" style="stroke:#000000; stroke-linecap:round; stroke-linejoin:round; stroke-width:4; stroke-opacity:1; fill:none" points="
  1254.52,1486.45 1254.52,1467.55 
  "/>
<polyline clip-path="url(#clip620)" style="stroke:#000000; stroke-linecap:round; stroke-linejoin:round; stroke-width:4; stroke-opacity:1; fill:none" points="
  1772.55,1486.45 1772.55,1467.55 
  "/>
<polyline clip-path="url(#clip620)" style="stroke:#000000; stroke-linecap:round; stroke-linejoin:round; stroke-width:4; stroke-opacity:1; fill:none" points="
  2290.59,1486.45 2290.59,1467.55 
  "/>
<path clip-path="url(#clip620)" d="M164.967 1532.02 L194.643 1532.02 L194.643 1535.95 L164.967 1535.95 L164.967 1532.02 Z" fill="#000000" fill-rule="evenodd" fill-opacity="1" /><path clip-path="url(#clip620)" d="M205.545 1544.91 L213.184 1544.91 L213.184 1518.55 L204.874 1520.21 L204.874 1515.95 L213.138 1514.29 L217.814 1514.29 L217.814 1544.91 L225.453 1544.91 L225.453 1548.85 L205.545 1548.85 L205.545 1544.91 Z" fill="#000000" fill-rule="evenodd" fill-opacity="1" /><path clip-path="url(#clip620)" d="M234.897 1542.97 L239.781 1542.97 L239.781 1548.85 L234.897 1548.85 L234.897 1542.97 Z" fill="#000000" fill-rule="evenodd" fill-opacity="1" /><path clip-path="url(#clip620)" d="M259.966 1517.37 Q256.355 1517.37 254.527 1520.93 Q252.721 1524.47 252.721 1531.6 Q252.721 1538.71 254.527 1542.27 Q256.355 1545.82 259.966 1545.82 Q263.601 1545.82 265.406 1542.27 Q267.235 1538.71 267.235 1531.6 Q267.235 1524.47 265.406 1520.93 Q263.601 1517.37 259.966 1517.37 M259.966 1513.66 Q265.776 1513.66 268.832 1518.27 Q271.911 1522.85 271.911 1531.6 Q271.911 1540.33 268.832 1544.94 Q265.776 1549.52 259.966 1549.52 Q254.156 1549.52 251.077 1544.94 Q248.022 1540.33 248.022 1531.6 Q248.022 1522.85 251.077 1518.27 Q254.156 1513.66 259.966 1513.66 Z" fill="#000000" fill-rule="evenodd" fill-opacity="1" /><path clip-path="url(#clip620)" d="M683.503 1532.02 L713.178 1532.02 L713.178 1535.95 L683.503 1535.95 L683.503 1532.02 Z" fill="#000000" fill-rule="evenodd" fill-opacity="1" /><path clip-path="url(#clip620)" d="M733.271 1517.37 Q729.66 1517.37 727.831 1520.93 Q726.026 1524.47 726.026 1531.6 Q726.026 1538.71 727.831 1542.27 Q729.66 1545.82 733.271 1545.82 Q736.905 1545.82 738.711 1542.27 Q740.539 1538.71 740.539 1531.6 Q740.539 1524.47 738.711 1520.93 Q736.905 1517.37 733.271 1517.37 M733.271 1513.66 Q739.081 1513.66 742.137 1518.27 Q745.215 1522.85 745.215 1531.6 Q745.215 1540.33 742.137 1544.94 Q739.081 1549.52 733.271 1549.52 Q727.461 1549.52 724.382 1544.94 Q721.327 1540.33 721.327 1531.6 Q721.327 1522.85 724.382 1518.27 Q727.461 1513.66 733.271 1513.66 Z" fill="#000000" fill-rule="evenodd" fill-opacity="1" /><path clip-path="url(#clip620)" d="M753.433 1542.97 L758.317 1542.97 L758.317 1548.85 L753.433 1548.85 L753.433 1542.97 Z" fill="#000000" fill-rule="evenodd" fill-opacity="1" /><path clip-path="url(#clip620)" d="M768.548 1514.29 L786.905 1514.29 L786.905 1518.22 L772.831 1518.22 L772.831 1526.7 Q773.849 1526.35 774.868 1526.19 Q775.886 1526 776.905 1526 Q782.692 1526 786.072 1529.17 Q789.451 1532.34 789.451 1537.76 Q789.451 1543.34 785.979 1546.44 Q782.507 1549.52 776.187 1549.52 Q774.011 1549.52 771.743 1549.15 Q769.498 1548.78 767.09 1548.04 L767.09 1543.34 Q769.173 1544.47 771.396 1545.03 Q773.618 1545.58 776.095 1545.58 Q780.099 1545.58 782.437 1543.48 Q784.775 1541.37 784.775 1537.76 Q784.775 1534.15 782.437 1532.04 Q780.099 1529.94 776.095 1529.94 Q774.22 1529.94 772.345 1530.35 Q770.493 1530.77 768.548 1531.65 L768.548 1514.29 Z" fill="#000000" fill-rule="evenodd" fill-opacity="1" /><path clip-path="url(#clip620)" d="M1231.9 1517.37 Q1228.29 1517.37 1226.46 1520.93 Q1224.65 1524.47 1224.65 1531.6 Q1224.65 1538.71 1226.46 1542.27 Q1228.29 1545.82 1231.9 1545.82 Q1235.53 1545.82 1237.34 1542.27 Q1239.17 1538.71 1239.17 1531.6 Q1239.17 1524.47 1237.34 1520.93 Q1235.53 1517.37 1231.9 1517.37 M1231.9 1513.66 Q1237.71 1513.66 1240.77 1518.27 Q1243.84 1522.85 1243.84 1531.6 Q1243.84 1540.33 1240.77 1544.94 Q1237.71 1549.52 1231.9 1549.52 Q1226.09 1549.52 1223.01 1544.94 Q1219.96 1540.33 1219.96 1531.6 Q1219.96 1522.85 1223.01 1518.27 Q1226.09 1513.66 1231.9 1513.66 Z" fill="#000000" fill-rule="evenodd" fill-opacity="1" /><path clip-path="url(#clip620)" d="M1252.06 1542.97 L1256.95 1542.97 L1256.95 1548.85 L1252.06 1548.85 L1252.06 1542.97 Z" fill="#000000" fill-rule="evenodd" fill-opacity="1" /><path clip-path="url(#clip620)" d="M1277.13 1517.37 Q1273.52 1517.37 1271.69 1520.93 Q1269.89 1524.47 1269.89 1531.6 Q1269.89 1538.71 1271.69 1542.27 Q1273.52 1545.82 1277.13 1545.82 Q1280.76 1545.82 1282.57 1542.27 Q1284.4 1538.71 1284.4 1531.6 Q1284.4 1524.47 1282.57 1520.93 Q1280.76 1517.37 1277.13 1517.37 M1277.13 1513.66 Q1282.94 1513.66 1286 1518.27 Q1289.08 1522.85 1289.08 1531.6 Q1289.08 1540.33 1286 1544.94 Q1282.94 1549.52 1277.13 1549.52 Q1271.32 1549.52 1268.24 1544.94 Q1265.19 1540.33 1265.19 1531.6 Q1265.19 1522.85 1268.24 1518.27 Q1271.32 1513.66 1277.13 1513.66 Z" fill="#000000" fill-rule="evenodd" fill-opacity="1" /><path clip-path="url(#clip620)" d="M1750.44 1517.37 Q1746.82 1517.37 1745 1520.93 Q1743.19 1524.47 1743.19 1531.6 Q1743.19 1538.71 1745 1542.27 Q1746.82 1545.82 1750.44 1545.82 Q1754.07 1545.82 1755.88 1542.27 Q1757.7 1538.71 1757.7 1531.6 Q1757.7 1524.47 1755.88 1520.93 Q1754.07 1517.37 1750.44 1517.37 M1750.44 1513.66 Q1756.25 1513.66 1759.3 1518.27 Q1762.38 1522.85 1762.38 1531.6 Q1762.38 1540.33 1759.3 1544.94 Q1756.25 1549.52 1750.44 1549.52 Q1744.63 1549.52 1741.55 1544.94 Q1738.49 1540.33 1738.49 1531.6 Q1738.49 1522.85 1741.55 1518.27 Q1744.63 1513.66 1750.44 1513.66 Z" fill="#000000" fill-rule="evenodd" fill-opacity="1" /><path clip-path="url(#clip620)" d="M1770.6 1542.97 L1775.48 1542.97 L1775.48 1548.85 L1770.6 1548.85 L1770.6 1542.97 Z" fill="#000000" fill-rule="evenodd" fill-opacity="1" /><path clip-path="url(#clip620)" d="M1785.71 1514.29 L1804.07 1514.29 L1804.07 1518.22 L1790 1518.22 L1790 1526.7 Q1791.01 1526.35 1792.03 1526.19 Q1793.05 1526 1794.07 1526 Q1799.86 1526 1803.24 1529.17 Q1806.62 1532.34 1806.62 1537.76 Q1806.62 1543.34 1803.14 1546.44 Q1799.67 1549.52 1793.35 1549.52 Q1791.18 1549.52 1788.91 1549.15 Q1786.66 1548.78 1784.25 1548.04 L1784.25 1543.34 Q1786.34 1544.47 1788.56 1545.03 Q1790.78 1545.58 1793.26 1545.58 Q1797.26 1545.58 1799.6 1543.48 Q1801.94 1541.37 1801.94 1537.76 Q1801.94 1534.15 1799.6 1532.04 Q1797.26 1529.94 1793.26 1529.94 Q1791.38 1529.94 1789.51 1530.35 Q1787.66 1530.77 1785.71 1531.65 L1785.71 1514.29 Z" fill="#000000" fill-rule="evenodd" fill-opacity="1" /><path clip-path="url(#clip620)" d="M2257.74 1544.91 L2265.38 1544.91 L2265.38 1518.55 L2257.07 1520.21 L2257.07 1515.95 L2265.34 1514.29 L2270.01 1514.29 L2270.01 1544.91 L2277.65 1544.91 L2277.65 1548.85 L2257.74 1548.85 L2257.74 1544.91 Z" fill="#000000" fill-rule="evenodd" fill-opacity="1" /><path clip-path="url(#clip620)" d="M2287.1 1542.97 L2291.98 1542.97 L2291.98 1548.85 L2287.1 1548.85 L2287.1 1542.97 Z" fill="#000000" fill-rule="evenodd" fill-opacity="1" /><path clip-path="url(#clip620)" d="M2312.17 1517.37 Q2308.55 1517.37 2306.73 1520.93 Q2304.92 1524.47 2304.92 1531.6 Q2304.92 1538.71 2306.73 1542.27 Q2308.55 1545.82 2312.17 1545.82 Q2315.8 1545.82 2317.61 1542.27 Q2319.43 1538.71 2319.43 1531.6 Q2319.43 1524.47 2317.61 1520.93 Q2315.8 1517.37 2312.17 1517.37 M2312.17 1513.66 Q2317.98 1513.66 2321.03 1518.27 Q2324.11 1522.85 2324.11 1531.6 Q2324.11 1540.33 2321.03 1544.94 Q2317.98 1549.52 2312.17 1549.52 Q2306.36 1549.52 2303.28 1544.94 Q2300.22 1540.33 2300.22 1531.6 Q2300.22 1522.85 2303.28 1518.27 Q2306.36 1513.66 2312.17 1513.66 Z" fill="#000000" fill-rule="evenodd" fill-opacity="1" /><polyline clip-path="url(#clip622)" style="stroke:#000000; stroke-linecap:round; stroke-linejoin:round; stroke-width:2; stroke-opacity:0.1; fill:none" points="
  156.274,1223.62 2352.76,1223.62 
  "/>
<polyline clip-path="url(#clip622)" style="stroke:#000000; stroke-linecap:round; stroke-linejoin:round; stroke-width:2; stroke-opacity:0.1; fill:none" points="
  156.274,957.103 2352.76,957.103 
  "/>
<polyline clip-path="url(#clip622)" style="stroke:#000000; stroke-linecap:round; stroke-linejoin:round; stroke-width:2; stroke-opacity:0.1; fill:none" points="
  156.274,690.586 2352.76,690.586 
  "/>
<polyline clip-path="url(#clip622)" style="stroke:#000000; stroke-linecap:round; stroke-linejoin:round; stroke-width:2; stroke-opacity:0.1; fill:none" points="
  156.274,424.068 2352.76,424.068 
  "/>
<polyline clip-path="url(#clip622)" style="stroke:#000000; stroke-linecap:round; stroke-linejoin:round; stroke-width:2; stroke-opacity:0.1; fill:none" points="
  156.274,157.551 2352.76,157.551 
  "/>
<polyline clip-path="url(#clip620)" style="stroke:#000000; stroke-linecap:round; stroke-linejoin:round; stroke-width:4; stroke-opacity:1; fill:none" points="
  156.274,1486.45 156.274,47.2441 
  "/>
<polyline clip-path="url(#clip620)" style="stroke:#000000; stroke-linecap:round; stroke-linejoin:round; stroke-width:4; stroke-opacity:1; fill:none" points="
  156.274,1223.62 175.172,1223.62 
  "/>
<polyline clip-path="url(#clip620)" style="stroke:#000000; stroke-linecap:round; stroke-linejoin:round; stroke-width:4; stroke-opacity:1; fill:none" points="
  156.274,957.103 175.172,957.103 
  "/>
<polyline clip-path="url(#clip620)" style="stroke:#000000; stroke-linecap:round; stroke-linejoin:round; stroke-width:4; stroke-opacity:1; fill:none" points="
  156.274,690.586 175.172,690.586 
  "/>
<polyline clip-path="url(#clip620)" style="stroke:#000000; stroke-linecap:round; stroke-linejoin:round; stroke-width:4; stroke-opacity:1; fill:none" points="
  156.274,424.068 175.172,424.068 
  "/>
<polyline clip-path="url(#clip620)" style="stroke:#000000; stroke-linecap:round; stroke-linejoin:round; stroke-width:4; stroke-opacity:1; fill:none" points="
  156.274,157.551 175.172,157.551 
  "/>
<path clip-path="url(#clip620)" d="M63.0985 1209.42 Q59.4875 1209.42 57.6588 1212.98 Q55.8532 1216.53 55.8532 1223.66 Q55.8532 1230.76 57.6588 1234.33 Q59.4875 1237.87 63.0985 1237.87 Q66.7328 1237.87 68.5383 1234.33 Q70.367 1230.76 70.367 1223.66 Q70.367 1216.53 68.5383 1212.98 Q66.7328 1209.42 63.0985 1209.42 M63.0985 1205.72 Q68.9087 1205.72 71.9642 1210.32 Q75.0429 1214.91 75.0429 1223.66 Q75.0429 1232.38 71.9642 1236.99 Q68.9087 1241.57 63.0985 1241.57 Q57.2884 1241.57 54.2097 1236.99 Q51.1542 1232.38 51.1542 1223.66 Q51.1542 1214.91 54.2097 1210.32 Q57.2884 1205.72 63.0985 1205.72 Z" fill="#000000" fill-rule="evenodd" fill-opacity="1" /><path clip-path="url(#clip620)" d="M83.2605 1235.02 L88.1447 1235.02 L88.1447 1240.9 L83.2605 1240.9 L83.2605 1235.02 Z" fill="#000000" fill-rule="evenodd" fill-opacity="1" /><path clip-path="url(#clip620)" d="M108.33 1209.42 Q104.719 1209.42 102.89 1212.98 Q101.084 1216.53 101.084 1223.66 Q101.084 1230.76 102.89 1234.33 Q104.719 1237.87 108.33 1237.87 Q111.964 1237.87 113.77 1234.33 Q115.598 1230.76 115.598 1223.66 Q115.598 1216.53 113.77 1212.98 Q111.964 1209.42 108.33 1209.42 M108.33 1205.72 Q114.14 1205.72 117.195 1210.32 Q120.274 1214.91 120.274 1223.66 Q120.274 1232.38 117.195 1236.99 Q114.14 1241.57 108.33 1241.57 Q102.52 1241.57 99.4409 1236.99 Q96.3854 1232.38 96.3854 1223.66 Q96.3854 1214.91 99.4409 1210.32 Q102.52 1205.72 108.33 1205.72 Z" fill="#000000" fill-rule="evenodd" fill-opacity="1" /><path clip-path="url(#clip620)" d="M63.7467 942.902 Q60.1356 942.902 58.3069 946.467 Q56.5014 950.008 56.5014 957.138 Q56.5014 964.244 58.3069 967.809 Q60.1356 971.351 63.7467 971.351 Q67.3809 971.351 69.1865 967.809 Q71.0152 964.244 71.0152 957.138 Q71.0152 950.008 69.1865 946.467 Q67.3809 942.902 63.7467 942.902 M63.7467 939.198 Q69.5568 939.198 72.6124 943.805 Q75.6911 948.388 75.6911 957.138 Q75.6911 965.865 72.6124 970.471 Q69.5568 975.054 63.7467 975.054 Q57.9365 975.054 54.8578 970.471 Q51.8023 965.865 51.8023 957.138 Q51.8023 948.388 54.8578 943.805 Q57.9365 939.198 63.7467 939.198 Z" fill="#000000" fill-rule="evenodd" fill-opacity="1" /><path clip-path="url(#clip620)" d="M83.9086 968.504 L88.7928 968.504 L88.7928 974.383 L83.9086 974.383 L83.9086 968.504 Z" fill="#000000" fill-rule="evenodd" fill-opacity="1" /><path clip-path="url(#clip620)" d="M113.145 955.749 Q116.501 956.467 118.376 958.735 Q120.274 961.004 120.274 964.337 Q120.274 969.453 116.756 972.254 Q113.237 975.054 106.756 975.054 Q104.58 975.054 102.265 974.615 Q99.9733 974.198 97.5197 973.342 L97.5197 968.828 Q99.4641 969.962 101.779 970.541 Q104.094 971.119 106.617 971.119 Q111.015 971.119 113.307 969.383 Q115.621 967.647 115.621 964.337 Q115.621 961.281 113.469 959.568 Q111.339 957.832 107.52 957.832 L103.492 957.832 L103.492 953.99 L107.705 953.99 Q111.154 953.99 112.983 952.624 Q114.811 951.235 114.811 948.643 Q114.811 945.981 112.913 944.569 Q111.038 943.133 107.52 943.133 Q105.598 943.133 103.399 943.55 Q101.2 943.967 98.5613 944.846 L98.5613 940.68 Q101.223 939.939 103.538 939.569 Q105.876 939.198 107.936 939.198 Q113.26 939.198 116.362 941.629 Q119.464 944.036 119.464 948.156 Q119.464 951.027 117.82 953.018 Q116.177 954.985 113.145 955.749 Z" fill="#000000" fill-rule="evenodd" fill-opacity="1" /><path clip-path="url(#clip620)" d="M62.9365 676.384 Q59.3254 676.384 57.4967 679.949 Q55.6912 683.491 55.6912 690.62 Q55.6912 697.727 57.4967 701.292 Q59.3254 704.833 62.9365 704.833 Q66.5707 704.833 68.3763 701.292 Q70.205 697.727 70.205 690.62 Q70.205 683.491 68.3763 679.949 Q66.5707 676.384 62.9365 676.384 M62.9365 672.681 Q68.7467 672.681 71.8022 677.287 Q74.8809 681.87 74.8809 690.62 Q74.8809 699.347 71.8022 703.954 Q68.7467 708.537 62.9365 708.537 Q57.1264 708.537 54.0477 703.954 Q50.9921 699.347 50.9921 690.62 Q50.9921 681.87 54.0477 677.287 Q57.1264 672.681 62.9365 672.681 Z" fill="#000000" fill-rule="evenodd" fill-opacity="1" /><path clip-path="url(#clip620)" d="M83.0984 701.986 L87.9827 701.986 L87.9827 707.866 L83.0984 707.866 L83.0984 701.986 Z" fill="#000000" fill-rule="evenodd" fill-opacity="1" /><path clip-path="url(#clip620)" d="M108.746 688.722 Q105.598 688.722 103.746 690.875 Q101.918 693.028 101.918 696.778 Q101.918 700.505 103.746 702.68 Q105.598 704.833 108.746 704.833 Q111.895 704.833 113.723 702.68 Q115.575 700.505 115.575 696.778 Q115.575 693.028 113.723 690.875 Q111.895 688.722 108.746 688.722 M118.029 674.07 L118.029 678.329 Q116.27 677.495 114.464 677.056 Q112.682 676.616 110.922 676.616 Q106.293 676.616 103.839 679.741 Q101.409 682.866 101.061 689.185 Q102.427 687.171 104.487 686.107 Q106.547 685.019 109.024 685.019 Q114.233 685.019 117.242 688.19 Q120.274 691.338 120.274 696.778 Q120.274 702.102 117.126 705.319 Q113.978 708.537 108.746 708.537 Q102.751 708.537 99.5798 703.954 Q96.4085 699.347 96.4085 690.62 Q96.4085 682.426 100.297 677.565 Q104.186 672.681 110.737 672.681 Q112.496 672.681 114.279 673.028 Q116.084 673.375 118.029 674.07 Z" fill="#000000" fill-rule="evenodd" fill-opacity="1" /><path clip-path="url(#clip620)" d="M63.2837 409.867 Q59.6726 409.867 57.8439 413.432 Q56.0384 416.973 56.0384 424.103 Q56.0384 431.209 57.8439 434.774 Q59.6726 438.316 63.2837 438.316 Q66.918 438.316 68.7235 434.774 Q70.5522 431.209 70.5522 424.103 Q70.5522 416.973 68.7235 413.432 Q66.918 409.867 63.2837 409.867 M63.2837 406.163 Q69.0939 406.163 72.1494 410.77 Q75.2281 415.353 75.2281 424.103 Q75.2281 432.83 72.1494 437.436 Q69.0939 442.019 63.2837 442.019 Q57.4736 442.019 54.3949 437.436 Q51.3393 432.83 51.3393 424.103 Q51.3393 415.353 54.3949 410.77 Q57.4736 406.163 63.2837 406.163 Z" fill="#000000" fill-rule="evenodd" fill-opacity="1" /><path clip-path="url(#clip620)" d="M83.4457 435.469 L88.3299 435.469 L88.3299 441.348 L83.4457 441.348 L83.4457 435.469 Z" fill="#000000" fill-rule="evenodd" fill-opacity="1" /><path clip-path="url(#clip620)" d="M98.6539 440.631 L98.6539 436.371 Q100.413 437.205 102.219 437.644 Q104.024 438.084 105.76 438.084 Q110.39 438.084 112.82 434.982 Q115.274 431.857 115.621 425.515 Q114.279 427.506 112.219 428.57 Q110.158 429.635 107.658 429.635 Q102.473 429.635 99.4409 426.51 Q96.4317 423.362 96.4317 417.922 Q96.4317 412.598 99.5798 409.381 Q102.728 406.163 107.959 406.163 Q113.955 406.163 117.103 410.77 Q120.274 415.353 120.274 424.103 Q120.274 432.274 116.385 437.158 Q112.52 442.019 105.969 442.019 Q104.209 442.019 102.404 441.672 Q100.598 441.325 98.6539 440.631 M107.959 425.978 Q111.108 425.978 112.936 423.825 Q114.788 421.672 114.788 417.922 Q114.788 414.195 112.936 412.043 Q111.108 409.867 107.959 409.867 Q104.811 409.867 102.959 412.043 Q101.131 414.195 101.131 417.922 Q101.131 421.672 102.959 423.825 Q104.811 425.978 107.959 425.978 Z" fill="#000000" fill-rule="evenodd" fill-opacity="1" /><path clip-path="url(#clip620)" d="M55.506 170.895 L63.1448 170.895 L63.1448 144.53 L54.8347 146.197 L54.8347 141.937 L63.0985 140.271 L67.7744 140.271 L67.7744 170.895 L75.4133 170.895 L75.4133 174.831 L55.506 174.831 L55.506 170.895 Z" fill="#000000" fill-rule="evenodd" fill-opacity="1" /><path clip-path="url(#clip620)" d="M84.8577 168.951 L89.7419 168.951 L89.7419 174.831 L84.8577 174.831 L84.8577 168.951 Z" fill="#000000" fill-rule="evenodd" fill-opacity="1" /><path clip-path="url(#clip620)" d="M103.955 170.895 L120.274 170.895 L120.274 174.831 L98.3298 174.831 L98.3298 170.895 Q100.992 168.141 105.575 163.511 Q110.182 158.858 111.362 157.516 Q113.608 154.993 114.487 153.257 Q115.39 151.497 115.39 149.808 Q115.39 147.053 113.445 145.317 Q111.524 143.581 108.422 143.581 Q106.223 143.581 103.77 144.345 Q101.339 145.109 98.5613 146.659 L98.5613 141.937 Q101.385 140.803 103.839 140.224 Q106.293 139.646 108.33 139.646 Q113.7 139.646 116.895 142.331 Q120.089 145.016 120.089 149.507 Q120.089 151.636 119.279 153.558 Q118.492 155.456 116.385 158.048 Q115.807 158.72 112.705 161.937 Q109.603 165.132 103.955 170.895 Z" fill="#000000" fill-rule="evenodd" fill-opacity="1" /><polyline clip-path="url(#clip622)" style="stroke:#009af9; stroke-linecap:round; stroke-linejoin:round; stroke-width:16; stroke-opacity:1; fill:none" stroke-dasharray="8, 16" points="
  218.439,1090.74 228.852,1078.16 239.264,1065.14 249.677,1054.49 260.09,1048.55 270.503,1049.02 280.916,1056.65 291.329,1071.23 301.741,1091.7 312.154,1116.64 
  322.567,1144.67 332.98,1174.68 343.393,1205.8 353.805,1237.25 364.218,1268.23 374.631,1297.86 385.044,1325.26 395.457,1349.59 405.87,1370.11 416.282,1386.16 
  426.695,1397.16 437.108,1402.61 447.521,1402.05 457.934,1395.21 468.347,1382.17 478.759,1363.5 489.172,1340.33 499.585,1314.18 509.998,1286.46 520.411,1257.91 
  530.824,1228.28 541.236,1196.75 551.649,1163.34 562.062,1130.23 572.475,1101.29 582.888,1079.42 593.301,1064.71 603.713,1055.31 614.126,1049.54 624.539,1047.42 
  634.952,1050.47 645.365,1060.12 655.777,1076.24 666.19,1097.32 676.603,1121.81 687.016,1148.84 697.429,1178.09 707.842,1209.31 718.254,1241.86 728.667,1274.49 
  739.08,1305.47 749.493,1333.11 759.906,1356.25 770.319,1374.3 780.731,1387.19 791.144,1395.26 801.557,1398.95 811.97,1398.25 822.383,1392.3 832.796,1379.89 
  843.208,1360.44 853.621,1334.75 864.034,1304.92 874.447,1273.67 884.86,1243.47 895.273,1215.59 905.685,1189.03 916.098,1160.57 926.511,1128.99 936.924,1100.45 
  947.337,1080.01 957.749,1064.93 968.162,1053.32 978.575,1046.51 988.988,1045.96 999.401,1052.18 1009.81,1064.63 1020.23,1081.85 1030.64,1101.94 1041.05,1124.05 
  1051.46,1150.43 1061.88,1185.5 1072.29,1228.83 1082.7,1271.21 1093.12,1302.06 1103.53,1317.5 1113.94,1322.12 1124.35,1327.49 1134.77,1345.33 1145.18,1380.31 
  1155.59,1423.62 1166.01,1445.72 1176.42,1424.74 1186.83,1390.56 1197.24,1375.47 1207.66,1348.1 1218.07,1273.91 1228.48,1286.58 1238.9,1240.58 1249.31,980.126 
  1259.72,637.675 1270.13,403.646 1280.55,294.457 1290.96,260.317 1301.37,262.759 1311.79,307.922 1322.2,380.19 1332.61,416.615 1343.02,392.783 1353.44,337.866 
  1363.85,318.452 1374.26,368.374 1384.68,392.125 1395.09,360.436 1405.5,320.106 1415.91,314.391 1426.33,339.288 1436.74,366.726 1447.15,378.501 1457.57,370.636 
  1467.98,345.509 1478.39,309.401 1488.8,276.258 1499.22,264.414 1509.63,280.13 1520.04,313.631 1530.45,352.418 1540.87,387.449 1551.28,413.406 1561.69,418.531 
  1572.11,388.932 1582.52,335.742 1592.93,285.594 1603.34,254.703 1613.76,243.437 1624.17,249.615 1634.58,276.698 1645,324.929 1655.41,381.537 1665.82,423.752 
  1676.23,436.312 1686.65,421.659 1697.06,387.828 1707.47,339.18 1717.89,280.857 1728.3,228.606 1738.71,210.603 1749.12,242.338 1759.54,306.178 1769.95,373.857 
  1780.36,426.822 1790.78,455.992 1801.19,456.929 1811.6,428.076 1822.01,372.021 1832.43,297.724 1842.84,224.458 1853.25,180.229 1863.67,184.936 1874.08,238.766 
  1884.49,326.723 1894.9,419.713 1905.32,480.709 1915.73,489.663 1926.14,455.984 1936.56,398.509 1946.97,329.638 1957.38,257.846 1967.79,194.997 1978.21,160.474 
  1988.62,176.793 1999.03,250.18 2009.45,354.238 2019.86,451.396 2030.27,517.509 2040.68,536.807 2051.1,496.914 2061.51,406.475 2071.92,294.645 2082.33,192.935 
  2092.75,133.517 2103.16,136.452 2113.57,192.904 2123.99,276.508 2134.4,366.596 2144.81,453.741 2155.22,527.981 2165.64,558.921 2176.05,507.119 2186.46,386.357 
  2196.88,246.323 2207.29,131.062 2217.7,89.8812 2228.11,136.823 2238.53,230.656 2248.94,331.993 2259.35,422.058 2269.77,491.107 2280.18,535.372 2290.59,556.429 
  
  "/>
<polyline clip-path="url(#clip622)" style="stroke:#e26f46; stroke-linecap:round; stroke-linejoin:round; stroke-width:4; stroke-opacity:1; fill:none" points="
  218.439,1090.19 228.852,1071.26 239.264,1057.3 249.677,1048.77 260.09,1045.94 270.503,1048.92 280.916,1057.6 291.329,1071.69 301.741,1090.75 312.154,1114.14 
  322.567,1141.1 332.98,1170.76 343.393,1202.14 353.805,1234.23 364.218,1265.96 374.631,1296.32 385.044,1324.3 395.457,1349 405.87,1369.6 416.282,1385.45 
  426.695,1396 437.108,1400.94 447.521,1400.08 457.934,1393.47 468.347,1381.31 478.759,1364.01 489.172,1342.12 499.585,1316.37 509.998,1287.59 520.411,1256.72 
  530.824,1224.77 541.236,1192.79 551.649,1161.81 562.062,1132.85 572.475,1106.85 582.888,1084.66 593.301,1067.01 603.713,1054.46 614.126,1047.44 624.539,1046.17 
  634.952,1050.69 645.365,1060.86 655.777,1076.33 666.19,1096.62 676.603,1121.05 687.016,1148.82 697.429,1179.04 707.842,1210.71 718.254,1242.81 728.667,1274.27 
  739.08,1304.09 749.493,1331.28 759.906,1354.95 770.319,1374.34 780.731,1388.81 791.144,1397.89 801.557,1401.28 811.97,1398.87 822.383,1390.74 832.796,1377.16 
  843.208,1358.57 853.621,1335.57 864.034,1308.92 874.447,1279.48 884.86,1248.23 895.273,1216.16 905.685,1184.35 916.098,1153.81 926.511,1125.55 936.924,1100.5 
  947.337,1079.46 957.749,1063.12 968.162,1052.03 978.575,1046.53 988.988,1046.82 999.401,1052.87 1009.81,1064.5 1020.23,1081.32 1030.64,1102.79 1041.05,1128.2 
  1051.46,1156.72 1061.88,1187.43 1072.29,1219.31 1082.7,1251.34 1093.12,1282.47 1103.53,1311.67 1113.94,1338 1124.35,1360.6 1134.77,1378.72 1145.18,1391.79 
  1155.59,1399.36 1166.01,1401.2 1176.42,1397.25 1186.83,1387.62 1197.24,1372.65 1207.66,1352.81 1218.07,1328.75 1228.48,1301.27 1238.9,1271.25 1249.31,1239.67 
  1259.72,333.939 1270.13,332.471 1280.55,333.807 1290.96,338.255 1301.37,344.453 1311.79,349.781 1322.2,351.358 1332.61,347.259 1343.02,337.487 1353.44,324.312 
  1363.85,311.776 1374.26,304.453 1384.68,305.857 1395.09,317.031 1405.5,335.826 1415.91,357.215 1426.33,374.633 1436.74,381.98 1447.15,375.691 1457.57,356.176 
  1467.98,328.108 1478.39,299.342 1488.8,278.726 1499.22,273.385 1509.63,286.332 1520.04,315.176 1530.45,352.428 1540.87,387.422 1551.28,409.369 1561.69,410.669 
  1572.11,389.466 1582.52,350.607 1592.93,304.609 1603.34,264.82 1613.76,243.55 1624.17,248.28 1634.58,279.116 1645,328.344 1655.41,382.311 1665.82,425.209 
  1676.23,443.704 1686.65,431.057 1697.06,389.468 1707.47,329.86 1717.89,269.031 1728.3,224.925 1738.71,211.341 1749.12,233.646 1759.54,286.81 1769.95,356.455 
  1780.36,422.732 1790.78,465.972 1801.19,472.522 1811.6,439.017 1822.01,373.779 1832.43,294.793 1842.84,224.765 1853.25,184.592 1863.67,187.131 1874.08,233.135 
  1884.49,310.603 1894.9,397.883 1905.32,469.716 1915.73,504.548 1926.14,490.984 1936.56,431.463 1946.97,341.972 1957.38,247.779 1967.79,176.295 1978.21,149.104 
  1988.62,175.455 1999.03,249.196 2009.45,350.133 2019.86,449.546 2030.27,518.359 2040.68,535.643 2051.1,494.962 2061.51,406.644 2071.92,295.205 2082.33,192.552 
  2092.75,128.847 2103.16,123.651 2113.57,179.939 2123.99,282.822 2134.4,403.456 2144.81,507.122 2155.22,563.216 2165.64,554.285 2176.05,481.418 2186.46,364.361 
  2196.88,236.186 2207.29,133.949 2217.7,87.9763 2228.11,112.881 2238.53,202.957 2248.94,333.405 2259.35,467.142 2269.77,565.351 2280.18,598.735 2290.59,556.255 
  
  "/>
<path clip-path="url(#clip620)" d="
M229.49 250.738 L700.371 250.738 L700.371 95.2176 L229.49 95.2176  Z
  " fill="#ffffff" fill-rule="evenodd" fill-opacity="1"/>
<polyline clip-path="url(#clip620)" style="stroke:#000000; stroke-linecap:round; stroke-linejoin:round; stroke-width:4; stroke-opacity:1; fill:none" points="
  229.49,250.738 700.371,250.738 700.371,95.2176 229.49,95.2176 229.49,250.738 
  "/>
<polyline clip-path="url(#clip620)" style="stroke:#009af9; stroke-linecap:round; stroke-linejoin:round; stroke-width:4; stroke-opacity:1; fill:none" stroke-dasharray="2, 4" points="
  253.896,147.058 400.328,147.058 
  "/>
<path clip-path="url(#clip620)" d="M429.409 133.62 L429.409 146.606 L435.289 146.606 Q438.552 146.606 440.335 144.916 Q442.117 143.227 442.117 140.102 Q442.117 137 440.335 135.31 Q438.552 133.62 435.289 133.62 L429.409 133.62 M424.733 129.778 L435.289 129.778 Q441.099 129.778 444.062 132.416 Q447.048 135.032 447.048 140.102 Q447.048 145.217 444.062 147.833 Q441.099 150.449 435.289 150.449 L429.409 150.449 L429.409 164.338 L424.733 164.338 L424.733 129.778 Z" fill="#000000" fill-rule="evenodd" fill-opacity="1" /><path clip-path="url(#clip620)" d="M467.325 142.393 Q466.608 141.977 465.751 141.791 Q464.918 141.583 463.899 141.583 Q460.288 141.583 458.344 143.944 Q456.423 146.282 456.423 150.68 L456.423 164.338 L452.14 164.338 L452.14 138.412 L456.423 138.412 L456.423 142.44 Q457.765 140.078 459.918 138.944 Q462.071 137.787 465.149 137.787 Q465.589 137.787 466.122 137.856 Q466.654 137.903 467.302 138.018 L467.325 142.393 Z" fill="#000000" fill-rule="evenodd" fill-opacity="1" /><path clip-path="url(#clip620)" d="M492.927 150.31 L492.927 152.393 L473.344 152.393 Q473.622 156.791 475.983 159.106 Q478.367 161.398 482.603 161.398 Q485.057 161.398 487.348 160.796 Q489.663 160.194 491.932 158.99 L491.932 163.018 Q489.64 163.99 487.233 164.5 Q484.825 165.009 482.348 165.009 Q476.145 165.009 472.511 161.398 Q468.899 157.787 468.899 151.629 Q468.899 145.264 472.325 141.537 Q475.774 137.787 481.608 137.787 Q486.839 137.787 489.872 141.166 Q492.927 144.523 492.927 150.31 M488.668 149.06 Q488.622 145.565 486.7 143.481 Q484.802 141.398 481.654 141.398 Q478.089 141.398 475.936 143.412 Q473.807 145.426 473.483 149.083 L488.668 149.06 Z" fill="#000000" fill-rule="evenodd" fill-opacity="1" /><path clip-path="url(#clip620)" d="M516.978 142.347 L516.978 128.319 L521.237 128.319 L521.237 164.338 L516.978 164.338 L516.978 160.449 Q515.635 162.763 513.575 163.898 Q511.538 165.009 508.668 165.009 Q503.969 165.009 501.006 161.259 Q498.066 157.509 498.066 151.398 Q498.066 145.287 501.006 141.537 Q503.969 137.787 508.668 137.787 Q511.538 137.787 513.575 138.921 Q515.635 140.032 516.978 142.347 M502.464 151.398 Q502.464 156.097 504.385 158.782 Q506.33 161.444 509.709 161.444 Q513.089 161.444 515.033 158.782 Q516.978 156.097 516.978 151.398 Q516.978 146.699 515.033 144.037 Q513.089 141.352 509.709 141.352 Q506.33 141.352 504.385 144.037 Q502.464 146.699 502.464 151.398 Z" fill="#000000" fill-rule="evenodd" fill-opacity="1" /><path clip-path="url(#clip620)" d="M530.01 138.412 L534.269 138.412 L534.269 164.338 L530.01 164.338 L530.01 138.412 M530.01 128.319 L534.269 128.319 L534.269 133.713 L530.01 133.713 L530.01 128.319 Z" fill="#000000" fill-rule="evenodd" fill-opacity="1" /><path clip-path="url(#clip620)" d="M561.839 139.407 L561.839 143.389 Q560.033 142.393 558.205 141.907 Q556.399 141.398 554.547 141.398 Q550.404 141.398 548.112 144.037 Q545.82 146.652 545.82 151.398 Q545.82 156.143 548.112 158.782 Q550.404 161.398 554.547 161.398 Q556.399 161.398 558.205 160.912 Q560.033 160.402 561.839 159.407 L561.839 163.342 Q560.056 164.176 558.135 164.592 Q556.237 165.009 554.084 165.009 Q548.228 165.009 544.779 161.328 Q541.33 157.648 541.33 151.398 Q541.33 145.055 544.802 141.421 Q548.297 137.787 554.362 137.787 Q556.33 137.787 558.205 138.203 Q560.08 138.597 561.839 139.407 Z" fill="#000000" fill-rule="evenodd" fill-opacity="1" /><path clip-path="url(#clip620)" d="M573.459 131.051 L573.459 138.412 L582.232 138.412 L582.232 141.722 L573.459 141.722 L573.459 155.796 Q573.459 158.967 574.316 159.87 Q575.195 160.773 577.857 160.773 L582.232 160.773 L582.232 164.338 L577.857 164.338 Q572.927 164.338 571.052 162.509 Q569.177 160.657 569.177 155.796 L569.177 141.722 L566.052 141.722 L566.052 138.412 L569.177 138.412 L569.177 131.051 L573.459 131.051 Z" fill="#000000" fill-rule="evenodd" fill-opacity="1" /><path clip-path="url(#clip620)" d="M587.834 138.412 L592.093 138.412 L592.093 164.338 L587.834 164.338 L587.834 138.412 M587.834 128.319 L592.093 128.319 L592.093 133.713 L587.834 133.713 L587.834 128.319 Z" fill="#000000" fill-rule="evenodd" fill-opacity="1" /><path clip-path="url(#clip620)" d="M611.051 141.398 Q607.626 141.398 605.635 144.083 Q603.644 146.745 603.644 151.398 Q603.644 156.051 605.612 158.736 Q607.602 161.398 611.051 161.398 Q614.454 161.398 616.445 158.713 Q618.436 156.027 618.436 151.398 Q618.436 146.791 616.445 144.106 Q614.454 141.398 611.051 141.398 M611.051 137.787 Q616.607 137.787 619.778 141.398 Q622.95 145.009 622.95 151.398 Q622.95 157.764 619.778 161.398 Q616.607 165.009 611.051 165.009 Q605.473 165.009 602.302 161.398 Q599.153 157.764 599.153 151.398 Q599.153 145.009 602.302 141.398 Q605.473 137.787 611.051 137.787 Z" fill="#000000" fill-rule="evenodd" fill-opacity="1" /><path clip-path="url(#clip620)" d="M651.561 148.689 L651.561 164.338 L647.301 164.338 L647.301 148.828 Q647.301 145.148 645.866 143.319 Q644.431 141.49 641.561 141.49 Q638.112 141.49 636.121 143.69 Q634.13 145.889 634.13 149.685 L634.13 164.338 L629.848 164.338 L629.848 138.412 L634.13 138.412 L634.13 142.44 Q635.658 140.102 637.718 138.944 Q639.801 137.787 642.51 137.787 Q646.977 137.787 649.269 140.565 Q651.561 143.319 651.561 148.689 Z" fill="#000000" fill-rule="evenodd" fill-opacity="1" /><polyline clip-path="url(#clip620)" style="stroke:#e26f46; stroke-linecap:round; stroke-linejoin:round; stroke-width:4; stroke-opacity:1; fill:none" points="
  253.896,198.898 400.328,198.898 
  "/>
<path clip-path="url(#clip620)" d="M424.733 181.618 L446.585 181.618 L446.585 185.553 L429.409 185.553 L429.409 195.784 L445.867 195.784 L445.867 199.719 L429.409 199.719 L429.409 212.242 L447.001 212.242 L447.001 216.178 L424.733 216.178 L424.733 181.618 Z" fill="#000000" fill-rule="evenodd" fill-opacity="1" /><path clip-path="url(#clip620)" d="M476.052 190.252 L466.677 202.867 L476.538 216.178 L471.515 216.178 L463.969 205.992 L456.423 216.178 L451.4 216.178 L461.469 202.613 L452.256 190.252 L457.279 190.252 L464.154 199.488 L471.029 190.252 L476.052 190.252 Z" fill="#000000" fill-rule="evenodd" fill-opacity="1" /><path clip-path="url(#clip620)" d="M494.339 203.145 Q489.177 203.145 487.186 204.326 Q485.196 205.506 485.196 208.354 Q485.196 210.622 486.677 211.965 Q488.182 213.284 490.751 213.284 Q494.293 213.284 496.422 210.784 Q498.575 208.261 498.575 204.094 L498.575 203.145 L494.339 203.145 M502.834 201.386 L502.834 216.178 L498.575 216.178 L498.575 212.242 Q497.117 214.603 494.941 215.738 Q492.765 216.849 489.617 216.849 Q485.635 216.849 483.274 214.627 Q480.936 212.381 480.936 208.631 Q480.936 204.256 483.853 202.034 Q486.793 199.812 492.603 199.812 L498.575 199.812 L498.575 199.395 Q498.575 196.455 496.631 194.858 Q494.71 193.238 491.214 193.238 Q488.992 193.238 486.885 193.77 Q484.779 194.303 482.835 195.367 L482.835 191.432 Q485.173 190.53 487.372 190.09 Q489.571 189.627 491.654 189.627 Q497.279 189.627 500.057 192.543 Q502.834 195.46 502.834 201.386 Z" fill="#000000" fill-rule="evenodd" fill-opacity="1" /><path clip-path="url(#clip620)" d="M530.265 191.247 L530.265 195.229 Q528.459 194.233 526.631 193.747 Q524.825 193.238 522.973 193.238 Q518.83 193.238 516.538 195.877 Q514.246 198.492 514.246 203.238 Q514.246 207.983 516.538 210.622 Q518.83 213.238 522.973 213.238 Q524.825 213.238 526.631 212.752 Q528.459 212.242 530.265 211.247 L530.265 215.182 Q528.482 216.016 526.561 216.432 Q524.663 216.849 522.51 216.849 Q516.654 216.849 513.205 213.168 Q509.756 209.488 509.756 203.238 Q509.756 196.895 513.228 193.261 Q516.723 189.627 522.788 189.627 Q524.756 189.627 526.631 190.043 Q528.506 190.437 530.265 191.247 Z" fill="#000000" fill-rule="evenodd" fill-opacity="1" /><path clip-path="url(#clip620)" d="M541.885 182.891 L541.885 190.252 L550.658 190.252 L550.658 193.562 L541.885 193.562 L541.885 207.636 Q541.885 210.807 542.742 211.71 Q543.621 212.613 546.283 212.613 L550.658 212.613 L550.658 216.178 L546.283 216.178 Q541.353 216.178 539.478 214.349 Q537.603 212.497 537.603 207.636 L537.603 193.562 L534.478 193.562 L534.478 190.252 L537.603 190.252 L537.603 182.891 L541.885 182.891 Z" fill="#000000" fill-rule="evenodd" fill-opacity="1" /></svg>
