<?xml version="1.0" encoding="utf-8"?>
<svg xmlns="http://www.w3.org/2000/svg" xmlns:xlink="http://www.w3.org/1999/xlink" width="600" height="400" viewBox="0 0 2400 1600">
<defs>
  <clipPath id="clip180">
    <rect x="0" y="0" width="2400" height="1600"/>
  </clipPath>
</defs>
<path clip-path="url(#clip180)" d="M0 1600 L2400 1600 L2400 0 L0 0  Z" fill="#ffffff" fill-rule="evenodd" fill-opacity="1"/>
<defs>
  <clipPath id="clip181">
    <rect x="480" y="0" width="1681" height="1600"/>
  </clipPath>
</defs>
<path clip-path="url(#clip180)" d="M112.177 1423.18 L2352.76 1423.18 L2352.76 47.2441 L112.177 47.2441  Z" fill="#ffffff" fill-rule="evenodd" fill-opacity="1"/>
<defs>
  <clipPath id="clip182">
    <rect x="112" y="47" width="2242" height="1377"/>
  </clipPath>
</defs>
<polyline clip-path="url(#clip182)" style="stroke:#000000; stroke-linecap:round; stroke-linejoin:round; stroke-width:2; stroke-opacity:0.1; fill:none" points="112.177,1423.18 112.177,47.2441 "/>
<polyline clip-path="url(#clip182)" style="stroke:#000000; stroke-linecap:round; stroke-linejoin:round; stroke-width:2; stroke-opacity:0.1; fill:none" points="859.037,1423.18 859.037,47.2441 "/>
<polyline clip-path="url(#clip182)" style="stroke:#000000; stroke-linecap:round; stroke-linejoin:round; stroke-width:2; stroke-opacity:0.1; fill:none" points="1605.9,1423.18 1605.9,47.2441 "/>
<polyline clip-path="url(#clip182)" style="stroke:#000000; stroke-linecap:round; stroke-linejoin:round; stroke-width:2; stroke-opacity:0.1; fill:none" points="2352.76,1423.18 2352.76,47.2441 "/>
<polyline clip-path="url(#clip180)" style="stroke:#000000; stroke-linecap:round; stroke-linejoin:round; stroke-width:4; stroke-opacity:1; fill:none" points="112.177,1423.18 2352.76,1423.18 "/>
<polyline clip-path="url(#clip180)" style="stroke:#000000; stroke-linecap:round; stroke-linejoin:round; stroke-width:4; stroke-opacity:1; fill:none" points="112.177,1423.18 112.177,1404.28 "/>
<polyline clip-path="url(#clip180)" style="stroke:#000000; stroke-linecap:round; stroke-linejoin:round; stroke-width:4; stroke-opacity:1; fill:none" points="859.037,1423.18 859.037,1404.28 "/>
<polyline clip-path="url(#clip180)" style="stroke:#000000; stroke-linecap:round; stroke-linejoin:round; stroke-width:4; stroke-opacity:1; fill:none" points="1605.9,1423.18 1605.9,1404.28 "/>
<polyline clip-path="url(#clip180)" style="stroke:#000000; stroke-linecap:round; stroke-linejoin:round; stroke-width:4; stroke-opacity:1; fill:none" points="2352.76,1423.18 2352.76,1404.28 "/>
<path clip-path="url(#clip180)" d="M112.177 1454.1 Q108.566 1454.1 106.737 1457.66 Q104.932 1461.2 104.932 1468.33 Q104.932 1475.44 106.737 1479.01 Q108.566 1482.55 112.177 1482.55 Q115.811 1482.55 117.617 1479.01 Q119.446 1475.44 119.446 1468.33 Q119.446 1461.2 117.617 1457.66 Q115.811 1454.1 112.177 1454.1 M112.177 1450.39 Q117.987 1450.39 121.043 1455 Q124.122 1459.58 124.122 1468.33 Q124.122 1477.06 121.043 1481.67 Q117.987 1486.25 112.177 1486.25 Q106.367 1486.25 103.288 1481.67 Q100.233 1477.06 100.233 1468.33 Q100.233 1459.58 103.288 1455 Q106.367 1450.39 112.177 1450.39 Z" fill="#000000" fill-rule="nonzero" fill-opacity="1" /><path clip-path="url(#clip180)" d="M849.419 1481.64 L857.058 1481.64 L857.058 1455.28 L848.747 1456.95 L848.747 1452.69 L857.011 1451.02 L861.687 1451.02 L861.687 1481.64 L869.326 1481.64 L869.326 1485.58 L849.419 1485.58 L849.419 1481.64 Z" fill="#000000" fill-rule="nonzero" fill-opacity="1" /><path clip-path="url(#clip180)" d="M1600.55 1481.64 L1616.87 1481.64 L1616.87 1485.58 L1594.92 1485.58 L1594.92 1481.64 Q1597.59 1478.89 1602.17 1474.26 Q1606.78 1469.61 1607.96 1468.27 Q1610.2 1465.74 1611.08 1464.01 Q1611.98 1462.25 1611.98 1460.56 Q1611.98 1457.8 1610.04 1456.07 Q1608.12 1454.33 1605.02 1454.33 Q1602.82 1454.33 1600.36 1455.09 Q1597.93 1455.86 1595.16 1457.41 L1595.16 1452.69 Q1597.98 1451.55 1600.43 1450.97 Q1602.89 1450.39 1604.92 1450.39 Q1610.29 1450.39 1613.49 1453.08 Q1616.68 1455.77 1616.68 1460.26 Q1616.68 1462.39 1615.87 1464.31 Q1615.09 1466.2 1612.98 1468.8 Q1612.4 1469.47 1609.3 1472.69 Q1606.2 1475.88 1600.55 1481.64 Z" fill="#000000" fill-rule="nonzero" fill-opacity="1" /><path clip-path="url(#clip180)" d="M2357 1466.95 Q2360.36 1467.66 2362.24 1469.93 Q2364.13 1472.2 2364.13 1475.53 Q2364.13 1480.65 2360.61 1483.45 Q2357.1 1486.25 2350.61 1486.25 Q2348.44 1486.25 2346.12 1485.81 Q2343.83 1485.39 2341.38 1484.54 L2341.38 1480.02 Q2343.32 1481.16 2345.64 1481.74 Q2347.95 1482.32 2350.48 1482.32 Q2354.87 1482.32 2357.17 1480.58 Q2359.48 1478.84 2359.48 1475.53 Q2359.48 1472.48 2357.33 1470.77 Q2355.2 1469.03 2351.38 1469.03 L2347.35 1469.03 L2347.35 1465.19 L2351.56 1465.19 Q2355.01 1465.19 2356.84 1463.82 Q2358.67 1462.43 2358.67 1459.84 Q2358.67 1457.18 2356.77 1455.77 Q2354.9 1454.33 2351.38 1454.33 Q2349.46 1454.33 2347.26 1454.75 Q2345.06 1455.16 2342.42 1456.04 L2342.42 1451.88 Q2345.08 1451.14 2347.4 1450.77 Q2349.74 1450.39 2351.8 1450.39 Q2357.12 1450.39 2360.22 1452.83 Q2363.32 1455.23 2363.32 1459.35 Q2363.32 1462.22 2361.68 1464.21 Q2360.04 1466.18 2357 1466.95 Z" fill="#000000" fill-rule="nonzero" fill-opacity="1" /><path clip-path="url(#clip180)" d="M1231.53 1522.27 L1231.53 1532.4 L1243.59 1532.4 L1243.59 1536.95 L1231.53 1536.95 L1231.53 1556.3 Q1231.53 1560.66 1232.71 1561.9 Q1233.91 1563.14 1237.58 1563.14 L1243.59 1563.14 L1243.59 1568.04 L1237.58 1568.04 Q1230.8 1568.04 1228.22 1565.53 Q1225.64 1562.98 1225.64 1556.3 L1225.64 1536.95 L1221.34 1536.95 L1221.34 1532.4 L1225.64 1532.4 L1225.64 1522.27 L1231.53 1522.27 Z" fill="#000000" fill-rule="nonzero" fill-opacity="1" /><polyline clip-path="url(#clip182)" style="stroke:#000000; stroke-linecap:round; stroke-linejoin:round; stroke-width:2; stroke-opacity:0.1; fill:none" points="112.177,1239.12 2352.76,1239.12 "/>
<polyline clip-path="url(#clip182)" style="stroke:#000000; stroke-linecap:round; stroke-linejoin:round; stroke-width:2; stroke-opacity:0.1; fill:none" points="112.177,1043.86 2352.76,1043.86 "/>
<polyline clip-path="url(#clip182)" style="stroke:#000000; stroke-linecap:round; stroke-linejoin:round; stroke-width:2; stroke-opacity:0.1; fill:none" points="112.177,848.591 2352.76,848.591 "/>
<polyline clip-path="url(#clip182)" style="stroke:#000000; stroke-linecap:round; stroke-linejoin:round; stroke-width:2; stroke-opacity:0.1; fill:none" points="112.177,653.326 2352.76,653.326 "/>
<polyline clip-path="url(#clip182)" style="stroke:#000000; stroke-linecap:round; stroke-linejoin:round; stroke-width:2; stroke-opacity:0.1; fill:none" points="112.177,458.061 2352.76,458.061 "/>
<polyline clip-path="url(#clip182)" style="stroke:#000000; stroke-linecap:round; stroke-linejoin:round; stroke-width:2; stroke-opacity:0.1; fill:none" points="112.177,262.797 2352.76,262.797 "/>
<polyline clip-path="url(#clip182)" style="stroke:#000000; stroke-linecap:round; stroke-linejoin:round; stroke-width:2; stroke-opacity:0.1; fill:none" points="112.177,67.5316 2352.76,67.5316 "/>
<polyline clip-path="url(#clip180)" style="stroke:#000000; stroke-linecap:round; stroke-linejoin:round; stroke-width:4; stroke-opacity:1; fill:none" points="112.177,1423.18 112.177,47.2441 "/>
<polyline clip-path="url(#clip180)" style="stroke:#000000; stroke-linecap:round; stroke-linejoin:round; stroke-width:4; stroke-opacity:1; fill:none" points="112.177,1239.12 131.075,1239.12 "/>
<polyline clip-path="url(#clip180)" style="stroke:#000000; stroke-linecap:round; stroke-linejoin:round; stroke-width:4; stroke-opacity:1; fill:none" points="112.177,1043.86 131.075,1043.86 "/>
<polyline clip-path="url(#clip180)" style="stroke:#000000; stroke-linecap:round; stroke-linejoin:round; stroke-width:4; stroke-opacity:1; fill:none" points="112.177,848.591 131.075,848.591 "/>
<polyline clip-path="url(#clip180)" style="stroke:#000000; stroke-linecap:round; stroke-linejoin:round; stroke-width:4; stroke-opacity:1; fill:none" points="112.177,653.326 131.075,653.326 "/>
<polyline clip-path="url(#clip180)" style="stroke:#000000; stroke-linecap:round; stroke-linejoin:round; stroke-width:4; stroke-opacity:1; fill:none" points="112.177,458.061 131.075,458.061 "/>
<polyline clip-path="url(#clip180)" style="stroke:#000000; stroke-linecap:round; stroke-linejoin:round; stroke-width:4; stroke-opacity:1; fill:none" points="112.177,262.797 131.075,262.797 "/>
<polyline clip-path="url(#clip180)" style="stroke:#000000; stroke-linecap:round; stroke-linejoin:round; stroke-width:4; stroke-opacity:1; fill:none" points="112.177,67.5316 131.075,67.5316 "/>
<path clip-path="url(#clip180)" d="M56.2699 1252.47 L63.9087 1252.47 L63.9087 1226.1 L55.5986 1227.77 L55.5986 1223.51 L63.8624 1221.84 L68.5383 1221.84 L68.5383 1252.47 L76.1772 1252.47 L76.1772 1256.4 L56.2699 1256.4 L56.2699 1252.47 Z" fill="#000000" fill-rule="nonzero" fill-opacity="1" /><path clip-path="url(#clip180)" d="M59.8578 1057.2 L76.1772 1057.2 L76.1772 1061.14 L54.2328 1061.14 L54.2328 1057.2 Q56.8949 1054.45 61.4782 1049.82 Q66.0846 1045.16 67.2652 1043.82 Q69.5105 1041.3 70.3902 1039.56 Q71.2929 1037.8 71.2929 1036.11 Q71.2929 1033.36 69.3485 1031.62 Q67.4272 1029.89 64.3254 1029.89 Q62.1263 1029.89 59.6726 1030.65 Q57.2421 1031.41 54.4643 1032.97 L54.4643 1028.24 Q57.2884 1027.11 59.7421 1026.53 Q62.1958 1025.95 64.2328 1025.95 Q69.6031 1025.95 72.7976 1028.64 Q75.992 1031.32 75.992 1035.81 Q75.992 1037.94 75.1818 1039.86 Q74.3948 1041.76 72.2883 1044.35 Q71.7096 1045.03 68.6078 1048.24 Q65.5059 1051.44 59.8578 1057.2 Z" fill="#000000" fill-rule="nonzero" fill-opacity="1" /><path clip-path="url(#clip180)" d="M69.0476 847.237 Q72.404 847.955 74.279 850.223 Q76.1772 852.492 76.1772 855.825 Q76.1772 860.941 72.6587 863.742 Q69.1402 866.543 62.6587 866.543 Q60.4828 866.543 58.168 866.103 Q55.8764 865.686 53.4227 864.83 L53.4227 860.316 Q55.3671 861.45 57.6819 862.029 Q59.9967 862.607 62.5198 862.607 Q66.918 862.607 69.2096 860.871 Q71.5244 859.135 71.5244 855.825 Q71.5244 852.77 69.3717 851.057 Q67.242 849.321 63.4226 849.321 L59.3949 849.321 L59.3949 845.478 L63.6078 845.478 Q67.0569 845.478 68.8855 844.112 Q70.7142 842.723 70.7142 840.131 Q70.7142 837.469 68.8161 836.057 Q66.9411 834.622 63.4226 834.622 Q61.5013 834.622 59.3023 835.038 Q57.1032 835.455 54.4643 836.334 L54.4643 832.168 Q57.1264 831.427 59.4412 831.057 Q61.7791 830.686 63.8393 830.686 Q69.1633 830.686 72.2652 833.117 Q75.367 835.524 75.367 839.645 Q75.367 842.515 73.7235 844.506 Q72.08 846.473 69.0476 847.237 Z" fill="#000000" fill-rule="nonzero" fill-opacity="1" /><path clip-path="url(#clip180)" d="M66.5939 640.12 L54.7884 658.569 L66.5939 658.569 L66.5939 640.12 M65.367 636.046 L71.2466 636.046 L71.2466 658.569 L76.1772 658.569 L76.1772 662.458 L71.2466 662.458 L71.2466 670.606 L66.5939 670.606 L66.5939 662.458 L50.9921 662.458 L50.9921 657.944 L65.367 636.046 Z" fill="#000000" fill-rule="nonzero" fill-opacity="1" /><path clip-path="url(#clip180)" d="M55.2745 440.781 L73.6309 440.781 L73.6309 444.717 L59.5569 444.717 L59.5569 453.189 Q60.5754 452.842 61.5939 452.68 Q62.6124 452.494 63.6309 452.494 Q69.418 452.494 72.7976 455.666 Q76.1772 458.837 76.1772 464.254 Q76.1772 469.832 72.705 472.934 Q69.2328 476.013 62.9134 476.013 Q60.7374 476.013 58.4689 475.642 Q56.2236 475.272 53.8162 474.531 L53.8162 469.832 Q55.8995 470.967 58.1217 471.522 Q60.3439 472.078 62.8208 472.078 Q66.8254 472.078 69.1633 469.971 Q71.5013 467.865 71.5013 464.254 Q71.5013 460.643 69.1633 458.536 Q66.8254 456.43 62.8208 456.43 Q60.9458 456.43 59.0708 456.846 Q57.2189 457.263 55.2745 458.143 L55.2745 440.781 Z" fill="#000000" fill-rule="nonzero" fill-opacity="1" /><path clip-path="url(#clip180)" d="M64.6495 260.933 Q61.5013 260.933 59.6495 263.086 Q57.8208 265.239 57.8208 268.989 Q57.8208 272.715 59.6495 274.891 Q61.5013 277.044 64.6495 277.044 Q67.7976 277.044 69.6263 274.891 Q71.4781 272.715 71.4781 268.989 Q71.4781 265.239 69.6263 263.086 Q67.7976 260.933 64.6495 260.933 M73.9318 246.28 L73.9318 250.54 Q72.1726 249.706 70.367 249.267 Q68.5846 248.827 66.8254 248.827 Q62.1958 248.827 59.7421 251.952 Q57.3115 255.077 56.9643 261.396 Q58.33 259.382 60.3902 258.317 Q62.4504 257.229 64.9272 257.229 Q70.1355 257.229 73.1448 260.401 Q76.1772 263.549 76.1772 268.989 Q76.1772 274.313 73.029 277.53 Q69.8809 280.748 64.6495 280.748 Q58.6541 280.748 55.4828 276.165 Q52.3116 271.558 52.3116 262.831 Q52.3116 254.637 56.2004 249.776 Q60.0893 244.892 66.6402 244.892 Q68.3994 244.892 70.1818 245.239 Q71.9874 245.586 73.9318 246.28 Z" fill="#000000" fill-rule="nonzero" fill-opacity="1" /><path clip-path="url(#clip180)" d="M53.9551 50.2516 L76.1772 50.2516 L76.1772 52.2424 L63.6309 84.8116 L58.7467 84.8116 L70.5522 54.1868 L53.9551 54.1868 L53.9551 50.2516 Z" fill="#000000" fill-rule="nonzero" fill-opacity="1" /><polyline clip-path="url(#clip182)" style="stroke:#009af9; stroke-linecap:round; stroke-linejoin:round; stroke-width:4; stroke-opacity:1; fill:none" points="112.177,1239.12 119.646,1238.12 127.114,1237.08 134.583,1236 142.052,1234.87 149.52,1233.7 156.989,1232.48 164.457,1231.22 171.926,1229.92 179.395,1228.58 186.863,1227.2 194.332,1225.77 201.8,1224.3 209.269,1222.78 216.738,1221.23 224.206,1219.63 231.675,1217.99 239.143,1216.3 246.612,1214.58 254.08,1212.81 261.549,1211 269.018,1209.14 276.486,1207.24 283.955,1205.3 291.423,1203.32 298.892,1201.29 306.361,1199.21 313.829,1197.09 321.298,1194.93 328.766,1192.72 336.235,1190.47 343.704,1188.17 351.172,1185.82 358.641,1183.43 366.109,1181 373.578,1178.51 381.047,1175.98 388.515,1173.4 395.984,1170.78 403.452,1168.1 410.921,1165.38 418.39,1162.61 425.858,1159.79 433.327,1156.92 440.795,1153.99 448.264,1151.02 455.733,1148 463.201,1144.93 470.67,1141.8 478.138,1138.62 485.607,1135.39 493.076,1132.1 500.544,1128.77 508.013,1125.37 515.481,1121.92 522.95,1118.42 530.419,1114.86 537.887,1111.24 545.356,1107.56 552.824,1103.83 560.293,1100.04 567.762,1096.19 575.23,1092.28 582.699,1088.31 590.167,1084.28 597.636,1080.18 605.104,1076.03 612.573,1071.81 620.042,1067.53 627.51,1063.19 634.979,1058.78 642.447,1054.3 649.916,1049.76 657.385,1045.15 664.853,1040.48 672.322,1035.73 679.79,1030.92 687.259,1026.04 694.728,1021.09 702.196,1016.07 709.665,1010.97 717.133,1005.81 724.602,1000.57 732.071,995.254 739.539,989.867 747.008,984.405 754.476,978.867 761.945,973.252 769.414,967.56 776.882,961.789 784.351,955.94 791.819,950.01 799.288,944.001 806.757,937.91 814.225,931.738 821.694,925.483 829.162,919.144 836.631,912.722 844.1,906.215 851.568,899.622 859.037,892.944 866.505,886.179 873.974,879.327 881.443,872.387 888.911,865.358 896.38,858.241 903.848,851.033 911.317,843.736 918.786,836.347 926.254,828.868 933.723,821.296 941.191,813.632 948.66,805.876 956.128,798.026 963.597,790.082 971.066,782.045 978.534,773.913 986.003,765.686 993.471,757.365 1000.94,748.948 1008.41,740.436 1015.88,731.829 1023.35,723.126 1030.81,714.328 1038.28,705.435 1045.75,696.446 1053.22,687.362 1060.69,678.184 1068.16,668.911 1075.63,659.545 1083.09,650.086 1090.56,640.534 1098.03,630.891 1105.5,621.158 1112.97,611.335 1120.44,601.424 1127.91,591.427 1135.37,581.344 1142.84,571.178 1150.31,560.93 1157.78,550.602 1165.25,540.198 1172.72,529.718 1180.19,519.167 1187.65,508.546 1195.12,497.859 1202.59,487.109 1210.06,476.3 1217.53,465.436 1225,454.521 1232.47,443.561 1239.94,432.558 1247.4,421.52 1254.87,410.452 1262.34,399.359 1269.81,388.249 1277.28,377.129 1284.75,366.006 1292.22,354.888 1299.68,343.784 1307.15,332.704 1314.62,321.656 1322.09,310.652 1329.56,299.702 1337.03,288.819 1344.5,278.014 1351.96,267.303 1359.43,256.697 1366.9,246.213 1374.37,235.867 1381.84,225.675 1389.31,215.654 1396.78,205.823 1404.24,196.202 1411.71,186.811 1419.18,177.671 1426.65,168.805 1434.12,160.237 1441.59,151.99 1449.06,144.091 1456.52,136.566 1463.99,129.441 1471.46,122.747 1478.93,116.511 1486.4,110.763 1493.87,105.536 1501.34,100.859 1508.8,96.7658 1516.27,93.288 1523.74,90.4584 1531.21,88.3098 1538.68,86.8748 1546.15,86.1857 1553.62,86.2741 1561.08,87.1708 1568.55,88.9054 1576.02,91.506 1583.49,94.9988 1590.96,99.4078 1598.43,104.754 1605.9,111.057 1613.36,118.332 1620.83,126.589 1628.3,135.836 1635.77,146.076 1643.24,157.309 1650.71,169.526 1658.18,182.717 1665.65,196.865 1673.11,211.946 1680.58,227.933 1688.05,244.794 1695.52,262.488 1702.99,280.973 1710.46,300.2 1717.93,320.115 1725.39,340.663 1732.86,361.782 1740.33,383.409 1747.8,405.477 1755.27,427.92 1762.74,450.667 1770.21,473.649 1777.67,496.798 1785.14,520.044 1792.61,543.321 1800.08,566.564 1807.55,589.71 1815.02,612.7 1822.49,635.478 1829.95,657.992 1837.42,680.194 1844.89,702.04 1852.36,723.49 1859.83,744.511 1867.3,765.07 1874.77,785.142 1882.23,804.705 1889.7,823.74 1897.17,842.235 1904.64,860.177 1912.11,877.561 1919.58,894.382 1927.05,910.638 1934.51,926.332 1941.98,941.468 1949.45,956.05 1956.92,970.087 1964.39,983.587 1971.86,996.561 1979.33,1009.02 1986.79,1020.98 1994.26,1032.44 2001.73,1043.43 2009.2,1053.96 2016.67,1064.05 2024.14,1073.69 2031.61,1082.93 2039.07,1091.75 2046.54,1100.19 2054.01,1108.25 2061.48,1115.95 2068.95,1123.31 2076.42,1130.33 2083.89,1137.03 2091.36,1143.43 2098.82,1149.53 2106.29,1155.35 2113.76,1160.89 2121.23,1166.18 2128.7,1171.22 2136.17,1176.02 2143.64,1180.59 2151.1,1184.95 2158.57,1189.09 2166.04,1193.04 2173.51,1196.79 2180.98,1200.36 2188.45,1203.75 2195.92,1206.97 2203.38,1210.02 2210.85,1212.92 2218.32,1215.67 2225.79,1218.27 2233.26,1220.74 2240.73,1223.07 2248.2,1225.27 2255.66,1227.34 2263.13,1229.3 2270.6,1231.14 2278.07,1232.87 2285.54,1234.5 2293.01,1236.02 2300.48,1237.45 2307.94,1238.77 2315.41,1240.01 2322.88,1241.16 2330.35,1242.22 2337.82,1243.21 2345.29,1244.11 2352.76,1244.94 "/>
<polyline clip-path="url(#clip182)" style="stroke:#e26f46; stroke-linecap:round; stroke-linejoin:round; stroke-width:4; stroke-opacity:1; fill:none" points="112.177,1239.12 119.646,1242.98 127.114,1246.76 134.583,1250.45 142.052,1254.06 149.52,1257.58 156.989,1261.03 164.457,1264.4 171.926,1267.69 179.395,1270.91 186.863,1274.06 194.332,1277.13 201.8,1280.13 209.269,1283.07 216.738,1285.93 224.206,1288.73 231.675,1291.47 239.143,1294.14 246.612,1296.75 254.08,1299.3 261.549,1301.79 269.018,1304.22 276.486,1306.6 283.955,1308.92 291.423,1311.18 298.892,1313.4 306.361,1315.55 313.829,1317.66 321.298,1319.72 328.766,1321.73 336.235,1323.69 343.704,1325.61 351.172,1327.48 358.641,1329.3 366.109,1331.08 373.578,1332.82 381.047,1334.51 388.515,1336.17 395.984,1337.78 403.452,1339.35 410.921,1340.89 418.39,1342.39 425.858,1343.85 433.327,1345.27 440.795,1346.66 448.264,1348.02 455.733,1349.34 463.201,1350.62 470.67,1351.88 478.138,1353.1 485.607,1354.29 493.076,1355.46 500.544,1356.59 508.013,1357.69 515.481,1358.76 522.95,1359.81 530.419,1360.82 537.887,1361.81 545.356,1362.78 552.824,1363.71 560.293,1364.63 567.762,1365.51 575.23,1366.37 582.699,1367.21 590.167,1368.02 597.636,1368.81 605.104,1369.58 612.573,1370.32 620.042,1371.04 627.51,1371.74 634.979,1372.42 642.447,1373.07 649.916,1373.71 657.385,1374.32 664.853,1374.92 672.322,1375.49 679.79,1376.05 687.259,1376.58 694.728,1377.1 702.196,1377.59 709.665,1378.07 717.133,1378.53 724.602,1378.97 732.071,1379.39 739.539,1379.8 747.008,1380.18 754.476,1380.55 761.945,1380.9 769.414,1381.24 776.882,1381.55 784.351,1381.85 791.819,1382.13 799.288,1382.39 806.757,1382.64 814.225,1382.87 821.694,1383.08 829.162,1383.27 836.631,1383.45 844.1,1383.61 851.568,1383.75 859.037,1383.87 866.505,1383.98 873.974,1384.07 881.443,1384.14 888.911,1384.19 896.38,1384.22 903.848,1384.24 911.317,1384.23 918.786,1384.21 926.254,1384.17 933.723,1384.11 941.191,1384.03 948.66,1383.93 956.128,1383.81 963.597,1383.66 971.066,1383.5 978.534,1383.32 986.003,1383.11 993.471,1382.88 1000.94,1382.63 1008.41,1382.35 1015.88,1382.05 1023.35,1381.73 1030.81,1381.38 1038.28,1381 1045.75,1380.59 1053.22,1380.16 1060.69,1379.7 1068.16,1379.21 1075.63,1378.68 1083.09,1378.13 1090.56,1377.54 1098.03,1376.92 1105.5,1376.26 1112.97,1375.56 1120.44,1374.83 1127.91,1374.05 1135.37,1373.24 1142.84,1372.38 1150.31,1371.47 1157.78,1370.52 1165.25,1369.52 1172.72,1368.47 1180.19,1367.37 1187.65,1366.21 1195.12,1364.99 1202.59,1363.71 1210.06,1362.37 1217.53,1360.97 1225,1359.49 1232.47,1357.94 1239.94,1356.32 1247.4,1354.61 1254.87,1352.82 1262.34,1350.95 1269.81,1348.98 1277.28,1346.92 1284.75,1344.76 1292.22,1342.49 1299.68,1340.11 1307.15,1337.62 1314.62,1335 1322.09,1332.25 1329.56,1329.37 1337.03,1326.35 1344.5,1323.17 1351.96,1319.84 1359.43,1316.35 1366.9,1312.69 1374.37,1308.84 1381.84,1304.8 1389.31,1300.57 1396.78,1296.12 1404.24,1291.46 1411.71,1286.57 1419.18,1281.44 1426.65,1276.05 1434.12,1270.41 1441.59,1264.49 1449.06,1258.28 1456.52,1251.77 1463.99,1244.96 1471.46,1237.82 1478.93,1230.34 1486.4,1222.51 1493.87,1214.33 1501.34,1205.76 1508.8,1196.82 1516.27,1187.47 1523.74,1177.71 1531.21,1167.54 1538.68,1156.93 1546.15,1145.89 1553.62,1134.4 1561.08,1122.47 1568.55,1110.08 1576.02,1097.23 1583.49,1083.94 1590.96,1070.19 1598.43,1055.99 1605.9,1041.36 1613.36,1026.3 1620.83,1010.84 1628.3,994.985 1635.77,978.766 1643.24,962.208 1650.71,945.343 1658.18,928.205 1665.65,910.834 1673.11,893.272 1680.58,875.567 1688.05,857.768 1695.52,839.929 1702.99,822.105 1710.46,804.357 1717.93,786.743 1725.39,769.326 1732.86,752.169 1740.33,735.335 1747.8,718.886 1755.27,702.884 1762.74,687.388 1770.21,672.457 1777.67,658.144 1785.14,644.501 1792.61,631.575 1800.08,619.409 1807.55,608.041 1815.02,597.505 1822.49,587.827 1829.95,579.03 1837.42,571.132 1844.89,564.143 1852.36,558.071 1859.83,552.916 1867.3,548.676 1874.77,545.34 1882.23,542.898 1889.7,541.332 1897.17,540.622 1904.64,540.746 1912.11,541.677 1919.58,543.388 1927.05,545.848 1934.51,549.024 1941.98,552.886 1949.45,557.397 1956.92,562.524 1964.39,568.232 1971.86,574.485 1979.33,581.249 1986.79,588.489 1994.26,596.171 2001.73,604.261 2009.2,612.726 2016.67,621.535 2024.14,630.656 2031.61,640.059 2039.07,649.716 2046.54,659.598 2054.01,669.68 2061.48,679.934 2068.95,690.338 2076.42,700.869 2083.89,711.504 2091.36,722.223 2098.82,733.007 2106.29,743.837 2113.76,754.698 2121.23,765.573 2128.7,776.447 2136.17,787.307 2143.64,798.14 2151.1,808.934 2158.57,819.679 2166.04,830.365 2173.51,840.982 2180.98,851.522 2188.45,861.978 2195.92,872.341 2203.38,882.606 2210.85,892.767 2218.32,902.818 2225.79,912.754 2233.26,922.571 2240.73,932.264 2248.2,941.831 2255.66,951.268 2263.13,960.573 2270.6,969.743 2278.07,978.777 2285.54,987.673 2293.01,996.431 2300.48,1005.05 2307.94,1013.53 2315.41,1021.87 2322.88,1030.07 2330.35,1038.13 2337.82,1046.06 2345.29,1053.85 2352.76,1061.51 "/>
<polyline clip-path="url(#clip182)" style="stroke:#3da44d; stroke-linecap:round; stroke-linejoin:round; stroke-width:4; stroke-opacity:1; fill:none" points="112.177,1239.12 119.646,1238.12 127.114,1237.08 134.583,1236 142.052,1234.87 149.52,1233.7 156.989,1232.48 164.457,1231.22 171.926,1229.92 179.395,1228.58 186.863,1227.19 194.332,1225.77 201.8,1224.3 209.269,1222.78 216.738,1221.23 224.206,1219.63 231.675,1217.99 239.143,1216.31 246.612,1214.58 254.08,1212.81 261.549,1211 269.018,1209.14 276.486,1207.24 283.955,1205.3 291.423,1203.31 298.892,1201.28 306.361,1199.21 313.829,1197.09 321.298,1194.93 328.766,1192.72 336.235,1190.47 343.704,1188.17 351.172,1185.82 358.641,1183.43 366.109,1181 373.578,1178.51 381.047,1175.98 388.515,1173.4 395.984,1170.78 403.452,1168.1 410.921,1165.38 418.39,1162.61 425.858,1159.79 433.327,1156.92 440.795,1154 448.264,1151.02 455.733,1148 463.201,1144.93 470.67,1141.8 478.138,1138.62 485.607,1135.39 493.076,1132.11 500.544,1128.77 508.013,1125.37 515.481,1121.92 522.95,1118.42 530.419,1114.86 537.887,1111.24 545.356,1107.56 552.824,1103.83 560.293,1100.04 567.762,1096.19 575.23,1092.28 582.699,1088.31 590.167,1084.28 597.636,1080.19 605.104,1076.03 612.573,1071.81 620.042,1067.53 627.51,1063.19 634.979,1058.78 642.447,1054.3 649.916,1049.76 657.385,1045.16 664.853,1040.48 672.322,1035.74 679.79,1030.93 687.259,1026.04 694.728,1021.09 702.196,1016.07 709.665,1010.98 717.133,1005.81 724.602,1000.57 732.071,995.256 739.539,989.868 747.008,984.406 754.476,978.867 761.945,973.251 769.414,967.559 776.882,961.788 784.351,955.938 791.819,950.009 799.288,943.999 806.757,937.909 814.225,931.736 821.694,925.482 829.162,919.144 836.631,912.723 844.1,906.218 851.568,899.628 859.037,892.951 866.505,886.188 873.974,879.337 881.443,872.399 888.911,865.371 896.38,858.254 903.848,851.047 911.317,843.749 918.786,836.36 926.254,828.879 933.723,821.306 941.191,813.641 948.66,805.883 956.128,798.031 963.597,790.086 971.066,782.047 978.534,773.914 986.003,765.686 993.471,757.363 1000.94,748.946 1008.41,740.434 1015.88,731.827 1023.35,723.124 1030.81,714.327 1038.28,705.434 1045.75,696.446 1053.22,687.363 1060.69,678.185 1068.16,668.917 1075.63,659.559 1083.09,650.11 1090.56,640.57 1098.03,630.939 1105.5,621.217 1112.97,611.404 1120.44,601.501 1127.91,591.509 1135.37,581.43 1142.84,571.264 1150.31,561.015 1157.78,550.683 1165.25,540.271 1172.72,529.783 1180.19,519.221 1187.65,508.588 1195.12,497.889 1202.59,487.126 1210.06,476.305 1217.53,465.429 1225,454.504 1232.47,443.534 1239.94,432.526 1247.4,421.483 1254.87,410.414 1262.34,399.323 1269.81,388.217 1277.28,377.104 1284.75,365.99 1292.22,354.882 1299.68,343.789 1307.15,332.718 1314.62,321.677 1322.09,310.676 1329.56,299.711 1337.03,288.79 1344.5,277.93 1351.96,267.15 1359.43,256.469 1366.9,245.906 1374.37,235.48 1381.84,225.214 1389.31,215.126 1396.78,205.239 1404.24,195.574 1411.71,186.155 1419.18,177.002 1426.65,168.141 1434.12,159.594 1441.59,151.386 1449.06,143.542 1456.52,136.086 1463.99,129.045 1471.46,122.445 1478.93,116.312 1486.4,110.673 1493.87,105.557 1501.34,100.991 1508.8,97.0039 1516.27,93.6248 1523.74,90.8832 1531.21,88.8093 1538.68,87.4335 1546.15,86.7869 1553.62,86.9011 1561.08,87.8079 1568.55,89.5399 1576.02,92.1301 1583.49,95.6119 1590.96,100.019 1598.43,105.388 1605.9,111.76 1613.36,119.146 1620.83,127.542 1628.3,136.944 1635.77,147.34 1643.24,158.72 1650.71,171.066 1658.18,184.36 1665.65,198.578 1673.11,213.696 1680.58,229.684 1688.05,246.509 1695.52,264.136 1702.99,282.526 1710.46,301.635 1717.93,321.419 1725.39,341.827 1732.86,362.808 1740.33,384.307 1747.8,406.263 1755.27,428.614 1762.74,451.296 1770.21,474.238 1777.67,497.369 1785.14,520.613 1792.61,543.89 1800.08,567.12 1807.55,590.228 1815.02,613.197 1822.49,635.974 1829.95,658.504 1837.42,680.738 1844.89,702.631 1852.36,724.139 1859.83,745.225 1867.3,765.854 1874.77,785.997 1882.23,805.626 1889.7,824.721 1897.17,843.261 1904.64,861.233 1912.11,878.625 1919.58,895.433 1927.05,911.652 1934.51,927.284 1941.98,942.334 1949.45,956.811 1956.92,970.729 1964.39,984.104 1971.86,996.958 1979.33,1009.31 1986.79,1021.2 1994.26,1032.64 2001.73,1043.59 2009.2,1054.09 2016.67,1064.14 2024.14,1073.75 2031.61,1082.96 2039.07,1091.76 2046.54,1100.18 2054.01,1108.23 2061.48,1115.92 2068.95,1123.27 2076.42,1130.3 2083.89,1137 2091.36,1143.4 2098.82,1149.51 2106.29,1155.33 2113.76,1160.89 2121.23,1166.18 2128.7,1171.23 2136.17,1176.03 2143.64,1180.61 2151.1,1184.96 2158.57,1189.1 2166.04,1193.04 2173.51,1196.78 2180.98,1200.34 2188.45,1203.73 2195.92,1206.94 2203.38,1209.99 2210.85,1212.88 2218.32,1215.62 2225.79,1218.22 2233.26,1220.68 2240.73,1223 2248.2,1225.2 2255.66,1227.27 2263.13,1229.22 2270.6,1231.06 2278.07,1232.79 2285.54,1234.41 2293.01,1235.94 2300.48,1237.36 2307.94,1238.69 2315.41,1239.92 2322.88,1241.07 2330.35,1242.13 2337.82,1243.1 2345.29,1244 2352.76,1244.81 "/>
<polyline clip-path="url(#clip182)" style="stroke:#c271d2; stroke-linecap:round; stroke-linejoin:round; stroke-width:4; stroke-opacity:1; fill:none" points="112.177,1239.12 119.646,1242.98 127.114,1246.76 134.583,1250.45 142.052,1254.06 149.52,1257.58 156.989,1261.03 164.457,1264.4 171.926,1267.69 179.395,1270.91 186.863,1274.06 194.332,1277.13 201.8,1280.13 209.269,1283.07 216.738,1285.93 224.206,1288.73 231.675,1291.47 239.143,1294.14 246.612,1296.75 254.08,1299.3 261.549,1301.79 269.018,1304.22 276.486,1306.6 283.955,1308.92 291.423,1311.18 298.892,1313.39 306.361,1315.55 313.829,1317.66 321.298,1319.72 328.766,1321.73 336.235,1323.69 343.704,1325.61 351.172,1327.48 358.641,1329.3 366.109,1331.08 373.578,1332.82 381.047,1334.51 388.515,1336.17 395.984,1337.78 403.452,1339.35 410.921,1340.89 418.39,1342.39 425.858,1343.85 433.327,1345.27 440.795,1346.66 448.264,1348.02 455.733,1349.34 463.201,1350.63 470.67,1351.88 478.138,1353.11 485.607,1354.3 493.076,1355.46 500.544,1356.59 508.013,1357.69 515.481,1358.76 522.95,1359.81 530.419,1360.82 537.887,1361.81 545.356,1362.78 552.824,1363.71 560.293,1364.62 567.762,1365.51 575.23,1366.37 582.699,1367.21 590.167,1368.02 597.636,1368.81 605.104,1369.58 612.573,1370.32 620.042,1371.04 627.51,1371.74 634.979,1372.42 642.447,1373.08 649.916,1373.71 657.385,1374.33 664.853,1374.92 672.322,1375.49 679.79,1376.05 687.259,1376.58 694.728,1377.1 702.196,1377.6 709.665,1378.07 717.133,1378.53 724.602,1378.97 732.071,1379.4 739.539,1379.8 747.008,1380.19 754.476,1380.55 761.945,1380.9 769.414,1381.24 776.882,1381.55 784.351,1381.85 791.819,1382.13 799.288,1382.39 806.757,1382.64 814.225,1382.87 821.694,1383.08 829.162,1383.27 836.631,1383.44 844.1,1383.6 851.568,1383.74 859.037,1383.87 866.505,1383.97 873.974,1384.06 881.443,1384.13 888.911,1384.18 896.38,1384.22 903.848,1384.23 911.317,1384.23 918.786,1384.21 926.254,1384.17 933.723,1384.11 941.191,1384.03 948.66,1383.93 956.128,1383.81 963.597,1383.67 971.066,1383.5 978.534,1383.32 986.003,1383.11 993.471,1382.89 1000.94,1382.63 1008.41,1382.36 1015.88,1382.06 1023.35,1381.73 1030.81,1381.38 1038.28,1381 1045.75,1380.6 1053.22,1380.16 1060.69,1379.7 1068.16,1379.21 1075.63,1378.68 1083.09,1378.12 1090.56,1377.52 1098.03,1376.89 1105.5,1376.23 1112.97,1375.52 1120.44,1374.79 1127.91,1374.01 1135.37,1373.19 1142.84,1372.33 1150.31,1371.43 1157.78,1370.48 1165.25,1369.48 1172.72,1368.43 1180.19,1367.33 1187.65,1366.18 1195.12,1364.97 1202.59,1363.7 1210.06,1362.37 1217.53,1360.97 1225,1359.5 1232.47,1357.95 1239.94,1356.33 1247.4,1354.63 1254.87,1352.85 1262.34,1350.97 1269.81,1349.01 1277.28,1346.95 1284.75,1344.78 1292.22,1342.51 1299.68,1340.13 1307.15,1337.63 1314.62,1335.01 1322.09,1332.26 1329.56,1329.39 1337.03,1326.39 1344.5,1323.26 1351.96,1319.97 1359.43,1316.53 1366.9,1312.91 1374.37,1309.1 1381.84,1305.1 1389.31,1300.88 1396.78,1296.45 1404.24,1291.78 1411.71,1286.88 1419.18,1281.72 1426.65,1276.29 1434.12,1270.59 1441.59,1264.6 1449.06,1258.32 1456.52,1251.73 1463.99,1244.82 1471.46,1237.59 1478.93,1230.02 1486.4,1222.1 1493.87,1213.83 1501.34,1205.19 1508.8,1196.18 1516.27,1186.78 1523.74,1176.99 1531.21,1166.8 1538.68,1156.2 1546.15,1145.18 1553.62,1133.72 1561.08,1121.84 1568.55,1109.5 1576.02,1096.72 1583.49,1083.47 1590.96,1069.76 1598.43,1055.56 1605.9,1040.86 1613.36,1025.66 1620.83,1010.01 1628.3,993.962 1635.77,977.546 1643.24,960.81 1650.71,943.799 1658.18,926.556 1665.65,909.128 1673.11,891.562 1680.58,873.904 1688.05,856.201 1695.52,838.504 1702.99,820.86 1710.46,803.32 1717.93,785.934 1725.39,768.753 1732.86,751.831 1740.33,735.218 1747.8,718.97 1755.27,703.139 1762.74,687.781 1770.21,672.951 1777.67,658.706 1785.14,645.102 1792.61,632.198 1800.08,620.051 1807.55,608.71 1815.02,598.181 1822.49,588.485 1829.95,579.645 1837.42,571.68 1844.89,564.605 1852.36,558.429 1859.83,553.161 1867.3,548.802 1874.77,545.352 1882.23,542.804 1889.7,541.15 1897.17,540.377 1904.64,540.467 1912.11,541.399 1919.58,543.148 1927.05,545.685 1934.51,548.976 1941.98,552.985 1949.45,557.67 1956.92,562.986 1964.39,568.884 1971.86,575.31 1979.33,582.209 1986.79,589.518 1994.26,597.204 2001.73,605.291 2009.2,613.75 2016.67,622.549 2024.14,631.658 2031.61,641.045 2039.07,650.684 2046.54,660.547 2054.01,670.608 2061.48,680.841 2068.95,691.223 2076.42,701.732 2083.89,712.345 2091.36,723.042 2098.82,733.805 2106.29,744.615 2113.76,755.455 2121.23,766.31 2128.7,777.164 2136.17,788.006 2143.64,798.821 2151.1,809.599 2158.57,820.331 2166.04,831.006 2173.51,841.611 2180.98,852.137 2188.45,862.576 2195.92,872.923 2203.38,883.171 2210.85,893.316 2218.32,903.353 2225.79,913.275 2233.26,923.08 2240.73,932.763 2248.2,942.32 2255.66,951.749 2263.13,961.046 2270.6,970.209 2278.07,979.236 2285.54,988.125 2293.01,996.874 2300.48,1005.48 2307.94,1013.95 2315.41,1022.28 2322.88,1030.46 2330.35,1038.51 2337.82,1046.41 2345.29,1054.18 2352.76,1061.8 "/>
<path clip-path="url(#clip180)" d="M1900.12 352.309 L2278.07 352.309 L2278.07 93.1086 L1900.12 93.1086  Z" fill="#ffffff" fill-rule="evenodd" fill-opacity="1"/>
<polyline clip-path="url(#clip180)" style="stroke:#000000; stroke-linecap:round; stroke-linejoin:round; stroke-width:4; stroke-opacity:1; fill:none" points="1900.12,352.309 2278.07,352.309 2278.07,93.1086 1900.12,93.1086 1900.12,352.309 "/>
<polyline clip-path="url(#clip180)" style="stroke:#009af9; stroke-linecap:round; stroke-linejoin:round; stroke-width:4; stroke-opacity:1; fill:none" points="1925.02,144.949 2074.39,144.949 "/>
<path clip-path="url(#clip180)" d="M2123.94 136.303 L2114.56 148.919 L2124.43 162.229 L2119.4 162.229 L2111.86 152.043 L2104.31 162.229 L2099.29 162.229 L2109.36 148.664 L2100.14 136.303 L2105.17 136.303 L2112.04 145.539 L2118.92 136.303 L2123.94 136.303 Z" fill="#000000" fill-rule="nonzero" fill-opacity="1" /><path clip-path="url(#clip180)" d="M2150.14 170.099 L2150.14 173.409 L2125.51 173.409 L2125.51 170.099 L2150.14 170.099 Z" fill="#000000" fill-rule="nonzero" fill-opacity="1" /><path clip-path="url(#clip180)" d="M2158.27 158.34 L2158.27 172.09 L2153.99 172.09 L2153.99 136.303 L2158.27 136.303 L2158.27 140.238 Q2159.61 137.923 2161.65 136.812 Q2163.71 135.678 2166.55 135.678 Q2171.28 135.678 2174.22 139.428 Q2177.18 143.178 2177.18 149.289 Q2177.18 155.4 2174.22 159.15 Q2171.28 162.9 2166.55 162.9 Q2163.71 162.9 2161.65 161.789 Q2159.61 160.655 2158.27 158.34 M2172.76 149.289 Q2172.76 144.59 2170.81 141.928 Q2168.89 139.243 2165.51 139.243 Q2162.13 139.243 2160.19 141.928 Q2158.27 144.59 2158.27 149.289 Q2158.27 153.988 2160.19 156.673 Q2162.13 159.335 2165.51 159.335 Q2168.89 159.335 2170.81 156.673 Q2172.76 153.988 2172.76 149.289 Z" fill="#000000" fill-rule="nonzero" fill-opacity="1" /><path clip-path="url(#clip180)" d="M2199.26 140.284 Q2198.55 139.868 2197.69 139.682 Q2196.86 139.474 2195.84 139.474 Q2192.23 139.474 2190.28 141.835 Q2188.36 144.173 2188.36 148.571 L2188.36 162.229 L2184.08 162.229 L2184.08 136.303 L2188.36 136.303 L2188.36 140.331 Q2189.7 137.969 2191.86 136.835 Q2194.01 135.678 2197.09 135.678 Q2197.53 135.678 2198.06 135.747 Q2198.59 135.794 2199.24 135.909 L2199.26 140.284 Z" fill="#000000" fill-rule="nonzero" fill-opacity="1" /><path clip-path="url(#clip180)" d="M2224.86 148.201 L2224.86 150.284 L2205.28 150.284 Q2205.56 154.682 2207.92 156.997 Q2210.3 159.289 2214.54 159.289 Q2216.99 159.289 2219.29 158.687 Q2221.6 158.085 2223.87 156.881 L2223.87 160.909 Q2221.58 161.881 2219.17 162.391 Q2216.76 162.9 2214.29 162.9 Q2208.08 162.9 2204.45 159.289 Q2200.84 155.678 2200.84 149.52 Q2200.84 143.155 2204.26 139.428 Q2207.71 135.678 2213.55 135.678 Q2218.78 135.678 2221.81 139.057 Q2224.86 142.414 2224.86 148.201 M2220.61 146.951 Q2220.56 143.456 2218.64 141.372 Q2216.74 139.289 2213.59 139.289 Q2210.03 139.289 2207.87 141.303 Q2205.74 143.317 2205.42 146.974 L2220.61 146.951 Z" fill="#000000" fill-rule="nonzero" fill-opacity="1" /><path clip-path="url(#clip180)" d="M2248.92 140.238 L2248.92 126.21 L2253.17 126.21 L2253.17 162.229 L2248.92 162.229 L2248.92 158.34 Q2247.57 160.655 2245.51 161.789 Q2243.48 162.9 2240.61 162.9 Q2235.91 162.9 2232.94 159.15 Q2230 155.4 2230 149.289 Q2230 143.178 2232.94 139.428 Q2235.91 135.678 2240.61 135.678 Q2243.48 135.678 2245.51 136.812 Q2247.57 137.923 2248.92 140.238 M2234.4 149.289 Q2234.4 153.988 2236.32 156.673 Q2238.27 159.335 2241.65 159.335 Q2245.03 159.335 2246.97 156.673 Q2248.92 153.988 2248.92 149.289 Q2248.92 144.59 2246.97 141.928 Q2245.03 139.243 2241.65 139.243 Q2238.27 139.243 2236.32 141.928 Q2234.4 144.59 2234.4 149.289 Z" fill="#000000" fill-rule="nonzero" fill-opacity="1" /><polyline clip-path="url(#clip180)" style="stroke:#e26f46; stroke-linecap:round; stroke-linejoin:round; stroke-width:4; stroke-opacity:1; fill:none" points="1925.02,196.789 2074.39,196.789 "/>
<path clip-path="url(#clip180)" d="M2113.13 216.476 Q2111.32 221.106 2109.61 222.518 Q2107.9 223.93 2105.03 223.93 L2101.62 223.93 L2101.62 220.365 L2104.12 220.365 Q2105.88 220.365 2106.86 219.532 Q2107.83 218.698 2109.01 215.596 L2109.77 213.652 L2099.29 188.143 L2103.8 188.143 L2111.9 208.421 L2120 188.143 L2124.52 188.143 L2113.13 216.476 Z" fill="#000000" fill-rule="nonzero" fill-opacity="1" /><path clip-path="url(#clip180)" d="M2150.1 221.939 L2150.1 225.249 L2125.47 225.249 L2125.47 221.939 L2150.1 221.939 Z" fill="#000000" fill-rule="nonzero" fill-opacity="1" /><path clip-path="url(#clip180)" d="M2158.22 210.18 L2158.22 223.93 L2153.94 223.93 L2153.94 188.143 L2158.22 188.143 L2158.22 192.078 Q2159.56 189.763 2161.6 188.652 Q2163.66 187.518 2166.51 187.518 Q2171.23 187.518 2174.17 191.268 Q2177.13 195.018 2177.13 201.129 Q2177.13 207.24 2174.17 210.99 Q2171.23 214.74 2166.51 214.74 Q2163.66 214.74 2161.6 213.629 Q2159.56 212.495 2158.22 210.18 M2172.71 201.129 Q2172.71 196.43 2170.77 193.768 Q2168.85 191.083 2165.47 191.083 Q2162.09 191.083 2160.14 193.768 Q2158.22 196.43 2158.22 201.129 Q2158.22 205.828 2160.14 208.513 Q2162.09 211.175 2165.47 211.175 Q2168.85 211.175 2170.77 208.513 Q2172.71 205.828 2172.71 201.129 Z" fill="#000000" fill-rule="nonzero" fill-opacity="1" /><path clip-path="url(#clip180)" d="M2199.22 192.124 Q2198.5 191.708 2197.64 191.522 Q2196.81 191.314 2195.79 191.314 Q2192.18 191.314 2190.24 193.675 Q2188.31 196.013 2188.31 200.411 L2188.31 214.069 L2184.03 214.069 L2184.03 188.143 L2188.31 188.143 L2188.31 192.171 Q2189.66 189.809 2191.81 188.675 Q2193.96 187.518 2197.04 187.518 Q2197.48 187.518 2198.01 187.587 Q2198.55 187.634 2199.19 187.749 L2199.22 192.124 Z" fill="#000000" fill-rule="nonzero" fill-opacity="1" /><path clip-path="url(#clip180)" d="M2224.82 200.041 L2224.82 202.124 L2205.24 202.124 Q2205.51 206.522 2207.87 208.837 Q2210.26 211.129 2214.49 211.129 Q2216.95 211.129 2219.24 210.527 Q2221.55 209.925 2223.82 208.721 L2223.82 212.749 Q2221.53 213.721 2219.12 214.231 Q2216.72 214.74 2214.24 214.74 Q2208.04 214.74 2204.4 211.129 Q2200.79 207.518 2200.79 201.36 Q2200.79 194.995 2204.22 191.268 Q2207.67 187.518 2213.5 187.518 Q2218.73 187.518 2221.76 190.897 Q2224.82 194.254 2224.82 200.041 M2220.56 198.791 Q2220.51 195.296 2218.59 193.212 Q2216.69 191.129 2213.55 191.129 Q2209.98 191.129 2207.83 193.143 Q2205.7 195.157 2205.37 198.814 L2220.56 198.791 Z" fill="#000000" fill-rule="nonzero" fill-opacity="1" /><path clip-path="url(#clip180)" d="M2248.87 192.078 L2248.87 178.05 L2253.13 178.05 L2253.13 214.069 L2248.87 214.069 L2248.87 210.18 Q2247.53 212.495 2245.47 213.629 Q2243.43 214.74 2240.56 214.74 Q2235.86 214.74 2232.9 210.99 Q2229.96 207.24 2229.96 201.129 Q2229.96 195.018 2232.9 191.268 Q2235.86 187.518 2240.56 187.518 Q2243.43 187.518 2245.47 188.652 Q2247.53 189.763 2248.87 192.078 M2234.36 201.129 Q2234.36 205.828 2236.28 208.513 Q2238.22 211.175 2241.6 211.175 Q2244.98 211.175 2246.92 208.513 Q2248.87 205.828 2248.87 201.129 Q2248.87 196.43 2246.92 193.768 Q2244.98 191.083 2241.6 191.083 Q2238.22 191.083 2236.28 193.768 Q2234.36 196.43 2234.36 201.129 Z" fill="#000000" fill-rule="nonzero" fill-opacity="1" /><polyline clip-path="url(#clip180)" style="stroke:#3da44d; stroke-linecap:round; stroke-linejoin:round; stroke-width:4; stroke-opacity:1; fill:none" points="1925.02,248.629 2074.39,248.629 "/>
<path clip-path="url(#clip180)" d="M2099.29 255.677 L2099.29 239.983 L2103.55 239.983 L2103.55 255.515 Q2103.55 259.196 2104.98 261.048 Q2106.42 262.876 2109.29 262.876 Q2112.74 262.876 2114.73 260.677 Q2116.74 258.478 2116.74 254.682 L2116.74 239.983 L2121 239.983 L2121 265.909 L2116.74 265.909 L2116.74 261.927 Q2115.19 264.288 2113.13 265.446 Q2111.09 266.58 2108.38 266.58 Q2103.92 266.58 2101.6 263.802 Q2099.29 261.024 2099.29 255.677 M2110 239.358 L2110 239.358 Z" fill="#000000" fill-rule="nonzero" fill-opacity="1" /><path clip-path="url(#clip180)" d="M2131.18 261.973 L2138.82 261.973 L2138.82 235.608 L2130.51 237.275 L2130.51 233.015 L2138.78 231.349 L2143.45 231.349 L2143.45 261.973 L2151.09 261.973 L2151.09 265.909 L2131.18 265.909 L2131.18 261.973 Z" fill="#000000" fill-rule="nonzero" fill-opacity="1" /><path clip-path="url(#clip180)" d="M2170.17 229.937 Q2167.06 235.261 2165.56 240.469 Q2164.05 245.677 2164.05 251.024 Q2164.05 256.372 2165.56 261.626 Q2167.09 266.858 2170.17 272.159 L2166.46 272.159 Q2162.99 266.719 2161.25 261.464 Q2159.54 256.21 2159.54 251.024 Q2159.54 245.862 2161.25 240.631 Q2162.97 235.4 2166.46 229.937 L2170.17 229.937 Z" fill="#000000" fill-rule="nonzero" fill-opacity="1" /><path clip-path="url(#clip180)" d="M2182.64 232.622 L2182.64 239.983 L2191.42 239.983 L2191.42 243.293 L2182.64 243.293 L2182.64 257.367 Q2182.64 260.538 2183.5 261.441 Q2184.38 262.344 2187.04 262.344 L2191.42 262.344 L2191.42 265.909 L2187.04 265.909 Q2182.11 265.909 2180.24 264.08 Q2178.36 262.228 2178.36 257.367 L2178.36 243.293 L2175.24 243.293 L2175.24 239.983 L2178.36 239.983 L2178.36 232.622 L2182.64 232.622 Z" fill="#000000" fill-rule="nonzero" fill-opacity="1" /><path clip-path="url(#clip180)" d="M2196.35 229.937 L2200.05 229.937 Q2203.52 235.4 2205.24 240.631 Q2206.97 245.862 2206.97 251.024 Q2206.97 256.21 2205.24 261.464 Q2203.52 266.719 2200.05 272.159 L2196.35 272.159 Q2199.42 266.858 2200.93 261.626 Q2202.46 256.372 2202.46 251.024 Q2202.46 245.677 2200.93 240.469 Q2199.42 235.261 2196.35 229.937 Z" fill="#000000" fill-rule="nonzero" fill-opacity="1" /><polyline clip-path="url(#clip180)" style="stroke:#c271d2; stroke-linecap:round; stroke-linejoin:round; stroke-width:4; stroke-opacity:1; fill:none" points="1925.02,300.469 2074.39,300.469 "/>
<path clip-path="url(#clip180)" d="M2099.29 307.517 L2099.29 291.823 L2103.55 291.823 L2103.55 307.355 Q2103.55 311.036 2104.98 312.888 Q2106.42 314.716 2109.29 314.716 Q2112.74 314.716 2114.73 312.517 Q2116.74 310.318 2116.74 306.522 L2116.74 291.823 L2121 291.823 L2121 317.749 L2116.74 317.749 L2116.74 313.767 Q2115.19 316.128 2113.13 317.286 Q2111.09 318.42 2108.38 318.42 Q2103.92 318.42 2101.6 315.642 Q2099.29 312.864 2099.29 307.517 M2110 291.198 L2110 291.198 Z" fill="#000000" fill-rule="nonzero" fill-opacity="1" /><path clip-path="url(#clip180)" d="M2134.4 313.813 L2150.72 313.813 L2150.72 317.749 L2128.78 317.749 L2128.78 313.813 Q2131.44 311.059 2136.02 306.429 Q2140.63 301.776 2141.81 300.434 Q2144.05 297.911 2144.93 296.175 Q2145.84 294.415 2145.84 292.726 Q2145.84 289.971 2143.89 288.235 Q2141.97 286.499 2138.87 286.499 Q2136.67 286.499 2134.22 287.263 Q2131.79 288.027 2129.01 289.577 L2129.01 284.855 Q2131.83 283.721 2134.29 283.142 Q2136.74 282.564 2138.78 282.564 Q2144.15 282.564 2147.34 285.249 Q2150.54 287.934 2150.54 292.425 Q2150.54 294.554 2149.73 296.476 Q2148.94 298.374 2146.83 300.966 Q2146.25 301.638 2143.15 304.855 Q2140.05 308.05 2134.4 313.813 Z" fill="#000000" fill-rule="nonzero" fill-opacity="1" /><path clip-path="url(#clip180)" d="M2170.17 281.777 Q2167.06 287.101 2165.56 292.309 Q2164.05 297.517 2164.05 302.864 Q2164.05 308.212 2165.56 313.466 Q2167.09 318.698 2170.17 323.999 L2166.46 323.999 Q2162.99 318.559 2161.25 313.304 Q2159.54 308.05 2159.54 302.864 Q2159.54 297.702 2161.25 292.471 Q2162.97 287.24 2166.46 281.777 L2170.17 281.777 Z" fill="#000000" fill-rule="nonzero" fill-opacity="1" /><path clip-path="url(#clip180)" d="M2182.64 284.462 L2182.64 291.823 L2191.42 291.823 L2191.42 295.133 L2182.64 295.133 L2182.64 309.207 Q2182.64 312.378 2183.5 313.281 Q2184.38 314.184 2187.04 314.184 L2191.42 314.184 L2191.42 317.749 L2187.04 317.749 Q2182.11 317.749 2180.24 315.92 Q2178.36 314.068 2178.36 309.207 L2178.36 295.133 L2175.24 295.133 L2175.24 291.823 L2178.36 291.823 L2178.36 284.462 L2182.64 284.462 Z" fill="#000000" fill-rule="nonzero" fill-opacity="1" /><path clip-path="url(#clip180)" d="M2196.35 281.777 L2200.05 281.777 Q2203.52 287.24 2205.24 292.471 Q2206.97 297.702 2206.97 302.864 Q2206.97 308.05 2205.24 313.304 Q2203.52 318.559 2200.05 323.999 L2196.35 323.999 Q2199.42 318.698 2200.93 313.466 Q2202.46 308.212 2202.46 302.864 Q2202.46 297.517 2200.93 292.309 Q2199.42 287.101 2196.35 281.777 Z" fill="#000000" fill-rule="nonzero" fill-opacity="1" /></svg>
