<?xml version="1.0" encoding="utf-8"?>
<svg xmlns="http://www.w3.org/2000/svg" xmlns:xlink="http://www.w3.org/1999/xlink" width="600" height="400" viewBox="0 0 2400 1600">
<defs>
  <clipPath id="clip440">
    <rect x="0" y="0" width="2400" height="1600"/>
  </clipPath>
</defs>
<path clip-path="url(#clip440)" d="M0 1600 L2400 1600 L2400 0 L0 0  Z" fill="#ffffff" fill-rule="evenodd" fill-opacity="1"/>
<defs>
  <clipPath id="clip441">
    <rect x="480" y="0" width="1681" height="1600"/>
  </clipPath>
</defs>
<path clip-path="url(#clip440)" d="M112.177 1423.18 L2352.76 1423.18 L2352.76 47.2441 L112.177 47.2441  Z" fill="#ffffff" fill-rule="evenodd" fill-opacity="1"/>
<defs>
  <clipPath id="clip442">
    <rect x="112" y="47" width="2242" height="1377"/>
  </clipPath>
</defs>
<polyline clip-path="url(#clip442)" style="stroke:#000000; stroke-linecap:round; stroke-linejoin:round; stroke-width:2; stroke-opacity:0.1; fill:none" points="112.177,1423.18 112.177,47.2441 "/>
<polyline clip-path="url(#clip442)" style="stroke:#000000; stroke-linecap:round; stroke-linejoin:round; stroke-width:2; stroke-opacity:0.1; fill:none" points="859.037,1423.18 859.037,47.2441 "/>
<polyline clip-path="url(#clip442)" style="stroke:#000000; stroke-linecap:round; stroke-linejoin:round; stroke-width:2; stroke-opacity:0.1; fill:none" points="1605.9,1423.18 1605.9,47.2441 "/>
<polyline clip-path="url(#clip442)" style="stroke:#000000; stroke-linecap:round; stroke-linejoin:round; stroke-width:2; stroke-opacity:0.1; fill:none" points="2352.76,1423.18 2352.76,47.2441 "/>
<polyline clip-path="url(#clip440)" style="stroke:#000000; stroke-linecap:round; stroke-linejoin:round; stroke-width:4; stroke-opacity:1; fill:none" points="112.177,1423.18 2352.76,1423.18 "/>
<polyline clip-path="url(#clip440)" style="stroke:#000000; stroke-linecap:round; stroke-linejoin:round; stroke-width:4; stroke-opacity:1; fill:none" points="112.177,1423.18 112.177,1404.28 "/>
<polyline clip-path="url(#clip440)" style="stroke:#000000; stroke-linecap:round; stroke-linejoin:round; stroke-width:4; stroke-opacity:1; fill:none" points="859.037,1423.18 859.037,1404.28 "/>
<polyline clip-path="url(#clip440)" style="stroke:#000000; stroke-linecap:round; stroke-linejoin:round; stroke-width:4; stroke-opacity:1; fill:none" points="1605.9,1423.18 1605.9,1404.28 "/>
<polyline clip-path="url(#clip440)" style="stroke:#000000; stroke-linecap:round; stroke-linejoin:round; stroke-width:4; stroke-opacity:1; fill:none" points="2352.76,1423.18 2352.76,1404.28 "/>
<path clip-path="url(#clip440)" d="M112.177 1454.1 Q108.566 1454.1 106.737 1457.66 Q104.932 1461.2 104.932 1468.33 Q104.932 1475.44 106.737 1479.01 Q108.566 1482.55 112.177 1482.55 Q115.811 1482.55 117.617 1479.01 Q119.446 1475.44 119.446 1468.33 Q119.446 1461.2 117.617 1457.66 Q115.811 1454.1 112.177 1454.1 M112.177 1450.39 Q117.987 1450.39 121.043 1455 Q124.122 1459.58 124.122 1468.33 Q124.122 1477.06 121.043 1481.67 Q117.987 1486.25 112.177 1486.25 Q106.367 1486.25 103.288 1481.67 Q100.233 1477.06 100.233 1468.33 Q100.233 1459.58 103.288 1455 Q106.367 1450.39 112.177 1450.39 Z" fill="#000000" fill-rule="nonzero" fill-opacity="1" /><path clip-path="url(#clip440)" d="M849.419 1481.64 L857.058 1481.64 L857.058 1455.28 L848.747 1456.95 L848.747 1452.69 L857.011 1451.02 L861.687 1451.02 L861.687 1481.64 L869.326 1481.64 L869.326 1485.58 L849.419 1485.58 L849.419 1481.64 Z" fill="#000000" fill-rule="nonzero" fill-opacity="1" /><path clip-path="url(#clip440)" d="M1600.55 1481.64 L1616.87 1481.64 L1616.87 1485.58 L1594.92 1485.58 L1594.92 1481.64 Q1597.59 1478.89 1602.17 1474.26 Q1606.78 1469.61 1607.96 1468.27 Q1610.2 1465.74 1611.08 1464.01 Q1611.98 1462.25 1611.98 1460.56 Q1611.98 1457.8 1610.04 1456.07 Q1608.12 1454.33 1605.02 1454.33 Q1602.82 1454.33 1600.36 1455.09 Q1597.93 1455.86 1595.16 1457.41 L1595.16 1452.69 Q1597.98 1451.55 1600.43 1450.97 Q1602.89 1450.39 1604.92 1450.39 Q1610.29 1450.39 1613.49 1453.08 Q1616.68 1455.77 1616.68 1460.26 Q1616.68 1462.39 1615.87 1464.31 Q1615.09 1466.2 1612.98 1468.8 Q1612.4 1469.47 1609.3 1472.69 Q1606.2 1475.88 1600.55 1481.64 Z" fill="#000000" fill-rule="nonzero" fill-opacity="1" /><path clip-path="url(#clip440)" d="M2357 1466.95 Q2360.36 1467.66 2362.24 1469.93 Q2364.13 1472.2 2364.13 1475.53 Q2364.13 1480.65 2360.61 1483.45 Q2357.1 1486.25 2350.61 1486.25 Q2348.44 1486.25 2346.12 1485.81 Q2343.83 1485.39 2341.38 1484.54 L2341.38 1480.02 Q2343.32 1481.16 2345.64 1481.74 Q2347.95 1482.32 2350.48 1482.32 Q2354.87 1482.32 2357.17 1480.58 Q2359.48 1478.84 2359.48 1475.53 Q2359.48 1472.48 2357.33 1470.77 Q2355.2 1469.03 2351.38 1469.03 L2347.35 1469.03 L2347.35 1465.19 L2351.56 1465.19 Q2355.01 1465.19 2356.84 1463.82 Q2358.67 1462.43 2358.67 1459.84 Q2358.67 1457.18 2356.77 1455.77 Q2354.9 1454.33 2351.38 1454.33 Q2349.46 1454.33 2347.26 1454.75 Q2345.06 1455.16 2342.42 1456.04 L2342.42 1451.88 Q2345.08 1451.14 2347.4 1450.77 Q2349.74 1450.39 2351.8 1450.39 Q2357.12 1450.39 2360.22 1452.83 Q2363.32 1455.23 2363.32 1459.35 Q2363.32 1462.22 2361.68 1464.21 Q2360.04 1466.18 2357 1466.95 Z" fill="#000000" fill-rule="nonzero" fill-opacity="1" /><path clip-path="url(#clip440)" d="M1231.53 1522.27 L1231.53 1532.4 L1243.59 1532.4 L1243.59 1536.95 L1231.53 1536.95 L1231.53 1556.3 Q1231.53 1560.66 1232.71 1561.9 Q1233.91 1563.14 1237.58 1563.14 L1243.59 1563.14 L1243.59 1568.04 L1237.58 1568.04 Q1230.8 1568.04 1228.22 1565.53 Q1225.64 1562.98 1225.64 1556.3 L1225.64 1536.95 L1221.34 1536.95 L1221.34 1532.4 L1225.64 1532.4 L1225.64 1522.27 L1231.53 1522.27 Z" fill="#000000" fill-rule="nonzero" fill-opacity="1" /><polyline clip-path="url(#clip442)" style="stroke:#000000; stroke-linecap:round; stroke-linejoin:round; stroke-width:2; stroke-opacity:0.1; fill:none" points="112.177,1239.14 2352.76,1239.14 "/>
<polyline clip-path="url(#clip442)" style="stroke:#000000; stroke-linecap:round; stroke-linejoin:round; stroke-width:2; stroke-opacity:0.1; fill:none" points="112.177,1043.88 2352.76,1043.88 "/>
<polyline clip-path="url(#clip442)" style="stroke:#000000; stroke-linecap:round; stroke-linejoin:round; stroke-width:2; stroke-opacity:0.1; fill:none" points="112.177,848.63 2352.76,848.63 "/>
<polyline clip-path="url(#clip442)" style="stroke:#000000; stroke-linecap:round; stroke-linejoin:round; stroke-width:2; stroke-opacity:0.1; fill:none" points="112.177,653.377 2352.76,653.377 "/>
<polyline clip-path="url(#clip442)" style="stroke:#000000; stroke-linecap:round; stroke-linejoin:round; stroke-width:2; stroke-opacity:0.1; fill:none" points="112.177,458.123 2352.76,458.123 "/>
<polyline clip-path="url(#clip442)" style="stroke:#000000; stroke-linecap:round; stroke-linejoin:round; stroke-width:2; stroke-opacity:0.1; fill:none" points="112.177,262.87 2352.76,262.87 "/>
<polyline clip-path="url(#clip442)" style="stroke:#000000; stroke-linecap:round; stroke-linejoin:round; stroke-width:2; stroke-opacity:0.1; fill:none" points="112.177,67.6162 2352.76,67.6162 "/>
<polyline clip-path="url(#clip440)" style="stroke:#000000; stroke-linecap:round; stroke-linejoin:round; stroke-width:4; stroke-opacity:1; fill:none" points="112.177,1423.18 112.177,47.2441 "/>
<polyline clip-path="url(#clip440)" style="stroke:#000000; stroke-linecap:round; stroke-linejoin:round; stroke-width:4; stroke-opacity:1; fill:none" points="112.177,1239.14 131.075,1239.14 "/>
<polyline clip-path="url(#clip440)" style="stroke:#000000; stroke-linecap:round; stroke-linejoin:round; stroke-width:4; stroke-opacity:1; fill:none" points="112.177,1043.88 131.075,1043.88 "/>
<polyline clip-path="url(#clip440)" style="stroke:#000000; stroke-linecap:round; stroke-linejoin:round; stroke-width:4; stroke-opacity:1; fill:none" points="112.177,848.63 131.075,848.63 "/>
<polyline clip-path="url(#clip440)" style="stroke:#000000; stroke-linecap:round; stroke-linejoin:round; stroke-width:4; stroke-opacity:1; fill:none" points="112.177,653.377 131.075,653.377 "/>
<polyline clip-path="url(#clip440)" style="stroke:#000000; stroke-linecap:round; stroke-linejoin:round; stroke-width:4; stroke-opacity:1; fill:none" points="112.177,458.123 131.075,458.123 "/>
<polyline clip-path="url(#clip440)" style="stroke:#000000; stroke-linecap:round; stroke-linejoin:round; stroke-width:4; stroke-opacity:1; fill:none" points="112.177,262.87 131.075,262.87 "/>
<polyline clip-path="url(#clip440)" style="stroke:#000000; stroke-linecap:round; stroke-linejoin:round; stroke-width:4; stroke-opacity:1; fill:none" points="112.177,67.6162 131.075,67.6162 "/>
<path clip-path="url(#clip440)" d="M56.2699 1252.48 L63.9087 1252.48 L63.9087 1226.12 L55.5986 1227.78 L55.5986 1223.52 L63.8624 1221.86 L68.5383 1221.86 L68.5383 1252.48 L76.1772 1252.48 L76.1772 1256.42 L56.2699 1256.42 L56.2699 1252.48 Z" fill="#000000" fill-rule="nonzero" fill-opacity="1" /><path clip-path="url(#clip440)" d="M59.8578 1057.23 L76.1772 1057.23 L76.1772 1061.16 L54.2328 1061.16 L54.2328 1057.23 Q56.8949 1054.47 61.4782 1049.84 Q66.0846 1045.19 67.2652 1043.85 Q69.5105 1041.33 70.3902 1039.59 Q71.2929 1037.83 71.2929 1036.14 Q71.2929 1033.39 69.3485 1031.65 Q67.4272 1029.91 64.3254 1029.91 Q62.1263 1029.91 59.6726 1030.68 Q57.2421 1031.44 54.4643 1032.99 L54.4643 1028.27 Q57.2884 1027.14 59.7421 1026.56 Q62.1958 1025.98 64.2328 1025.98 Q69.6031 1025.98 72.7976 1028.66 Q75.992 1031.35 75.992 1035.84 Q75.992 1037.97 75.1818 1039.89 Q74.3948 1041.79 72.2883 1044.38 Q71.7096 1045.05 68.6078 1048.27 Q65.5059 1051.46 59.8578 1057.23 Z" fill="#000000" fill-rule="nonzero" fill-opacity="1" /><path clip-path="url(#clip440)" d="M69.0476 847.276 Q72.404 847.994 74.279 850.262 Q76.1772 852.531 76.1772 855.864 Q76.1772 860.98 72.6587 863.781 Q69.1402 866.581 62.6587 866.581 Q60.4828 866.581 58.168 866.142 Q55.8764 865.725 53.4227 864.869 L53.4227 860.355 Q55.3671 861.489 57.6819 862.068 Q59.9967 862.646 62.5198 862.646 Q66.918 862.646 69.2096 860.91 Q71.5244 859.174 71.5244 855.864 Q71.5244 852.808 69.3717 851.095 Q67.242 849.359 63.4226 849.359 L59.3949 849.359 L59.3949 845.517 L63.6078 845.517 Q67.0569 845.517 68.8855 844.151 Q70.7142 842.762 70.7142 840.17 Q70.7142 837.508 68.8161 836.096 Q66.9411 834.66 63.4226 834.66 Q61.5013 834.66 59.3023 835.077 Q57.1032 835.494 54.4643 836.373 L54.4643 832.207 Q57.1264 831.466 59.4412 831.096 Q61.7791 830.725 63.8393 830.725 Q69.1633 830.725 72.2652 833.156 Q75.367 835.563 75.367 839.683 Q75.367 842.554 73.7235 844.545 Q72.08 846.512 69.0476 847.276 Z" fill="#000000" fill-rule="nonzero" fill-opacity="1" /><path clip-path="url(#clip440)" d="M66.5939 640.171 L54.7884 658.62 L66.5939 658.62 L66.5939 640.171 M65.367 636.097 L71.2466 636.097 L71.2466 658.62 L76.1772 658.62 L76.1772 662.509 L71.2466 662.509 L71.2466 670.657 L66.5939 670.657 L66.5939 662.509 L50.9921 662.509 L50.9921 657.995 L65.367 636.097 Z" fill="#000000" fill-rule="nonzero" fill-opacity="1" /><path clip-path="url(#clip440)" d="M55.2745 440.843 L73.6309 440.843 L73.6309 444.778 L59.5569 444.778 L59.5569 453.251 Q60.5754 452.903 61.5939 452.741 Q62.6124 452.556 63.6309 452.556 Q69.418 452.556 72.7976 455.727 Q76.1772 458.899 76.1772 464.315 Q76.1772 469.894 72.705 472.996 Q69.2328 476.074 62.9134 476.074 Q60.7374 476.074 58.4689 475.704 Q56.2236 475.334 53.8162 474.593 L53.8162 469.894 Q55.8995 471.028 58.1217 471.584 Q60.3439 472.139 62.8208 472.139 Q66.8254 472.139 69.1633 470.033 Q71.5013 467.926 71.5013 464.315 Q71.5013 460.704 69.1633 458.598 Q66.8254 456.491 62.8208 456.491 Q60.9458 456.491 59.0708 456.908 Q57.2189 457.325 55.2745 458.204 L55.2745 440.843 Z" fill="#000000" fill-rule="nonzero" fill-opacity="1" /><path clip-path="url(#clip440)" d="M64.6495 261.006 Q61.5013 261.006 59.6495 263.159 Q57.8208 265.312 57.8208 269.062 Q57.8208 272.789 59.6495 274.965 Q61.5013 277.117 64.6495 277.117 Q67.7976 277.117 69.6263 274.965 Q71.4781 272.789 71.4781 269.062 Q71.4781 265.312 69.6263 263.159 Q67.7976 261.006 64.6495 261.006 M73.9318 246.354 L73.9318 250.613 Q72.1726 249.78 70.367 249.34 Q68.5846 248.9 66.8254 248.9 Q62.1958 248.9 59.7421 252.025 Q57.3115 255.15 56.9643 261.469 Q58.33 259.455 60.3902 258.391 Q62.4504 257.303 64.9272 257.303 Q70.1355 257.303 73.1448 260.474 Q76.1772 263.622 76.1772 269.062 Q76.1772 274.386 73.029 277.603 Q69.8809 280.821 64.6495 280.821 Q58.6541 280.821 55.4828 276.238 Q52.3116 271.631 52.3116 262.904 Q52.3116 254.71 56.2004 249.849 Q60.0893 244.965 66.6402 244.965 Q68.3994 244.965 70.1818 245.312 Q71.9874 245.659 73.9318 246.354 Z" fill="#000000" fill-rule="nonzero" fill-opacity="1" /><path clip-path="url(#clip440)" d="M53.9551 50.3362 L76.1772 50.3362 L76.1772 52.327 L63.6309 84.8962 L58.7467 84.8962 L70.5522 54.2714 L53.9551 54.2714 L53.9551 50.3362 Z" fill="#000000" fill-rule="nonzero" fill-opacity="1" /><polyline clip-path="url(#clip442)" style="stroke:#009af9; stroke-linecap:round; stroke-linejoin:round; stroke-width:4; stroke-opacity:1; fill:none" points="112.177,1239.14 119.646,1238.14 127.114,1237.1 134.583,1236.01 142.052,1234.88 149.52,1233.71 156.989,1232.5 164.457,1231.24 171.926,1229.94 179.395,1228.6 186.863,1227.21 194.332,1225.79 201.8,1224.31 209.269,1222.8 216.738,1221.24 224.206,1219.65 231.675,1218 239.143,1216.32 246.612,1214.59 254.08,1212.82 261.549,1211.01 269.018,1209.16 276.486,1207.26 283.955,1205.32 291.423,1203.33 298.892,1201.3 306.361,1199.23 313.829,1197.11 321.298,1194.95 328.766,1192.74 336.235,1190.49 343.704,1188.19 351.172,1185.85 358.641,1183.46 366.109,1181.02 373.578,1178.54 381.047,1176.01 388.515,1173.43 395.984,1170.8 403.452,1168.13 410.921,1165.41 418.39,1162.63 425.858,1159.81 433.327,1156.94 440.795,1154.02 448.264,1151.05 455.733,1148.02 463.201,1144.95 470.67,1141.82 478.138,1138.64 485.607,1135.41 493.076,1132.13 500.544,1128.79 508.013,1125.39 515.481,1121.94 522.95,1118.44 530.419,1114.88 537.887,1111.26 545.356,1107.59 552.824,1103.85 560.293,1100.06 567.762,1096.21 575.23,1092.31 582.699,1088.34 590.167,1084.31 597.636,1080.21 605.104,1076.06 612.573,1071.85 620.042,1067.57 627.51,1063.22 634.979,1058.81 642.447,1054.34 649.916,1049.8 657.385,1045.19 664.853,1040.52 672.322,1035.78 679.79,1030.96 687.259,1026.08 694.728,1021.13 702.196,1016.11 709.665,1011.01 717.133,1005.85 724.602,1000.61 732.071,995.296 739.539,989.908 747.008,984.445 754.476,978.906 761.945,973.29 769.414,967.597 776.882,961.826 784.351,955.977 791.819,950.047 799.288,944.038 806.757,937.947 814.225,931.775 821.694,925.521 829.162,919.183 836.631,912.762 844.1,906.256 851.568,899.666 859.037,892.989 866.505,886.226 873.974,879.375 881.443,872.437 888.911,865.411 896.38,858.295 903.848,851.089 911.317,843.793 918.786,836.407 926.254,828.928 933.723,821.358 941.191,813.696 948.66,805.94 956.128,798.091 963.597,790.148 971.066,782.111 978.534,773.98 986.003,765.754 993.471,757.432 1000.94,749.016 1008.41,740.504 1015.88,731.897 1023.35,723.194 1030.81,714.396 1038.28,705.502 1045.75,696.513 1053.22,687.43 1060.69,678.252 1068.16,668.98 1075.63,659.614 1083.09,650.156 1090.56,640.605 1098.03,630.963 1105.5,621.231 1112.97,611.409 1120.44,601.5 1127.91,591.504 1135.37,581.423 1142.84,571.258 1150.31,561.012 1157.78,550.686 1165.25,540.283 1172.72,529.805 1180.19,519.255 1187.65,508.636 1195.12,497.95 1202.59,487.202 1210.06,476.394 1217.53,465.532 1225,454.618 1232.47,443.658 1239.94,432.656 1247.4,421.619 1254.87,410.551 1262.34,399.458 1269.81,388.349 1277.28,377.228 1284.75,366.105 1292.22,354.986 1299.68,343.881 1307.15,332.799 1314.62,321.75 1322.09,310.744 1329.56,299.793 1337.03,288.907 1344.5,278.101 1351.96,267.387 1359.43,256.779 1366.9,246.293 1374.37,235.944 1381.84,225.748 1389.31,215.725 1396.78,205.891 1404.24,196.267 1411.71,186.874 1419.18,177.732 1426.65,168.863 1434.12,160.293 1441.59,152.044 1449.06,144.142 1456.52,136.615 1463.99,129.488 1471.46,122.791 1478.93,116.552 1486.4,110.802 1493.87,105.571 1501.34,100.891 1508.8,96.7933 1516.27,93.311 1523.74,90.4764 1531.21,88.3223 1538.68,86.8813 1546.15,86.1857 1553.62,86.2671 1561.08,87.1565 1568.55,88.8834 1576.02,91.476 1583.49,94.9607 1590.96,99.3616 1598.43,104.7 1605.9,110.995 1613.36,118.262 1620.83,126.511 1628.3,135.752 1635.77,145.986 1643.24,157.212 1650.71,169.425 1658.18,182.611 1665.65,196.754 1673.11,211.831 1680.58,227.815 1688.05,244.672 1695.52,262.363 1702.99,280.845 1710.46,300.069 1717.93,319.982 1725.39,340.527 1732.86,361.644 1740.33,383.268 1747.8,405.333 1755.27,427.773 1762.74,450.517 1770.21,473.497 1777.67,496.643 1785.14,519.888 1792.61,543.163 1800.08,566.405 1807.55,589.551 1815.02,612.542 1822.49,635.321 1829.95,657.837 1837.42,680.042 1844.89,701.892 1852.36,723.348 1859.83,744.373 1867.3,764.938 1874.77,785.017 1882.23,804.587 1889.7,823.629 1897.17,842.13 1904.64,860.08 1912.11,877.47 1919.58,894.297 1927.05,910.56 1934.51,926.26 1941.98,941.4 1949.45,955.986 1956.92,970.027 1964.39,983.53 1971.86,996.506 1979.33,1008.97 1986.79,1020.93 1994.26,1032.39 2001.73,1043.39 2009.2,1053.92 2016.67,1064 2024.14,1073.65 2031.61,1082.88 2039.07,1091.71 2046.54,1100.15 2054.01,1108.22 2061.48,1115.92 2068.95,1123.28 2076.42,1130.31 2083.89,1137.02 2091.36,1143.42 2098.82,1149.52 2106.29,1155.35 2113.76,1160.9 2121.23,1166.19 2128.7,1171.23 2136.17,1176.04 2143.64,1180.61 2151.1,1184.96 2158.57,1189.11 2166.04,1193.05 2173.51,1196.8 2180.98,1200.37 2188.45,1203.76 2195.92,1206.97 2203.38,1210.03 2210.85,1212.93 2218.32,1215.69 2225.79,1218.3 2233.26,1220.78 2240.73,1223.13 2248.2,1225.35 2255.66,1227.46 2263.13,1229.46 2270.6,1231.35 2278.07,1233.13 2285.54,1234.83 2293.01,1236.43 2300.48,1237.94 2307.94,1239.37 2315.41,1240.71 2322.88,1241.98 2330.35,1243.18 2337.82,1244.31 2345.29,1245.37 2352.76,1246.36 "/>
<polyline clip-path="url(#clip442)" style="stroke:#e26f46; stroke-linecap:round; stroke-linejoin:round; stroke-width:4; stroke-opacity:1; fill:none" points="112.177,1239.14 119.646,1243 127.114,1246.77 134.583,1250.47 142.052,1254.07 149.52,1257.6 156.989,1261.05 164.457,1264.42 171.926,1267.71 179.395,1270.93 186.863,1274.07 194.332,1277.14 201.8,1280.15 209.269,1283.08 216.738,1285.94 224.206,1288.74 231.675,1291.48 239.143,1294.15 246.612,1296.76 254.08,1299.31 261.549,1301.8 269.018,1304.23 276.486,1306.61 283.955,1308.93 291.423,1311.19 298.892,1313.4 306.361,1315.56 313.829,1317.67 321.298,1319.73 328.766,1321.74 336.235,1323.7 343.704,1325.62 351.172,1327.49 358.641,1329.31 366.109,1331.1 373.578,1332.83 381.047,1334.53 388.515,1336.18 395.984,1337.8 403.452,1339.37 410.921,1340.91 418.39,1342.41 425.858,1343.87 433.327,1345.29 440.795,1346.68 448.264,1348.03 455.733,1349.35 463.201,1350.64 470.67,1351.89 478.138,1353.11 485.607,1354.31 493.076,1355.47 500.544,1356.59 508.013,1357.7 515.481,1358.77 522.95,1359.81 530.419,1360.83 537.887,1361.81 545.356,1362.78 552.824,1363.71 560.293,1364.62 567.762,1365.51 575.23,1366.37 582.699,1367.21 590.167,1368.02 597.636,1368.81 605.104,1369.58 612.573,1370.32 620.042,1371.04 627.51,1371.74 634.979,1372.42 642.447,1373.08 649.916,1373.72 657.385,1374.33 664.853,1374.93 672.322,1375.5 679.79,1376.06 687.259,1376.6 694.728,1377.11 702.196,1377.61 709.665,1378.09 717.133,1378.55 724.602,1378.99 732.071,1379.41 739.539,1379.81 747.008,1380.2 754.476,1380.56 761.945,1380.91 769.414,1381.24 776.882,1381.56 784.351,1381.85 791.819,1382.13 799.288,1382.39 806.757,1382.64 814.225,1382.87 821.694,1383.07 829.162,1383.27 836.631,1383.44 844.1,1383.6 851.568,1383.74 859.037,1383.86 866.505,1383.97 873.974,1384.06 881.443,1384.13 888.911,1384.18 896.38,1384.22 903.848,1384.23 911.317,1384.23 918.786,1384.21 926.254,1384.17 933.723,1384.11 941.191,1384.03 948.66,1383.93 956.128,1383.82 963.597,1383.68 971.066,1383.51 978.534,1383.33 986.003,1383.13 993.471,1382.9 1000.94,1382.65 1008.41,1382.37 1015.88,1382.07 1023.35,1381.75 1030.81,1381.39 1038.28,1381.02 1045.75,1380.61 1053.22,1380.18 1060.69,1379.71 1068.16,1379.22 1075.63,1378.69 1083.09,1378.14 1090.56,1377.55 1098.03,1376.92 1105.5,1376.26 1112.97,1375.56 1120.44,1374.83 1127.91,1374.05 1135.37,1373.23 1142.84,1372.37 1150.31,1371.47 1157.78,1370.52 1165.25,1369.52 1172.72,1368.47 1180.19,1367.37 1187.65,1366.21 1195.12,1365 1202.59,1363.72 1210.06,1362.38 1217.53,1360.98 1225,1359.51 1232.47,1357.96 1239.94,1356.34 1247.4,1354.64 1254.87,1352.86 1262.34,1350.99 1269.81,1349.02 1277.28,1346.97 1284.75,1344.81 1292.22,1342.54 1299.68,1340.16 1307.15,1337.67 1314.62,1335.05 1322.09,1332.31 1329.56,1329.43 1337.03,1326.4 1344.5,1323.23 1351.96,1319.9 1359.43,1316.41 1366.9,1312.74 1374.37,1308.9 1381.84,1304.86 1389.31,1300.62 1396.78,1296.18 1404.24,1291.52 1411.71,1286.62 1419.18,1281.49 1426.65,1276.11 1434.12,1270.47 1441.59,1264.55 1449.06,1258.34 1456.52,1251.84 1463.99,1245.03 1471.46,1237.89 1478.93,1230.42 1486.4,1222.6 1493.87,1214.42 1501.34,1205.86 1508.8,1196.92 1516.27,1187.58 1523.74,1177.83 1531.21,1167.66 1538.68,1157.06 1546.15,1146.02 1553.62,1134.54 1561.08,1122.6 1568.55,1110.22 1576.02,1097.37 1583.49,1084.08 1590.96,1070.33 1598.43,1056.13 1605.9,1041.5 1613.36,1026.44 1620.83,1010.98 1628.3,995.122 1635.77,978.902 1643.24,962.342 1650.71,945.476 1658.18,928.337 1665.65,910.965 1673.11,893.402 1680.58,875.697 1688.05,857.898 1695.52,840.06 1702.99,822.238 1710.46,804.491 1717.93,786.879 1725.39,769.463 1732.86,752.308 1740.33,735.475 1747.8,719.027 1755.27,703.024 1762.74,687.528 1770.21,672.595 1777.67,658.279 1785.14,644.632 1792.61,631.701 1800.08,619.528 1807.55,608.153 1815.02,597.607 1822.49,587.92 1829.95,579.113 1837.42,571.204 1844.89,564.205 1852.36,558.123 1859.83,552.958 1867.3,548.707 1874.77,545.363 1882.23,542.913 1889.7,541.34 1897.17,540.625 1904.64,540.744 1912.11,541.671 1919.58,543.379 1927.05,545.836 1934.51,549.011 1941.98,552.87 1949.45,557.379 1956.92,562.504 1964.39,568.209 1971.86,574.459 1979.33,581.219 1986.79,588.454 1994.26,596.13 2001.73,604.214 2009.2,612.672 2016.67,621.474 2024.14,630.588 2031.61,639.984 2039.07,649.635 2046.54,659.511 2054.01,669.588 2061.48,679.839 2068.95,690.241 2076.42,700.77 2083.89,711.405 2091.36,722.126 2098.82,732.912 2106.29,743.746 2113.76,754.61 2121.23,765.489 2128.7,776.367 2136.17,787.23 2143.64,798.065 2151.1,808.862 2158.57,819.607 2166.04,830.293 2173.51,840.91 2180.98,851.449 2188.45,861.904 2195.92,872.27 2203.38,882.539 2210.85,892.709 2218.32,902.774 2225.79,912.734 2233.26,922.584 2240.73,932.324 2248.2,941.954 2255.66,951.472 2263.13,960.88 2270.6,970.179 2278.07,979.37 2285.54,988.455 2293.01,997.437 2300.48,1006.32 2307.94,1015.1 2315.41,1023.8 2322.88,1032.4 2330.35,1040.92 2337.82,1049.36 2345.29,1057.72 2352.76,1066.01 "/>
<polyline clip-path="url(#clip442)" style="stroke:#3da44d; stroke-linecap:round; stroke-linejoin:round; stroke-width:4; stroke-opacity:1; fill:none" points="112.177,1239.14 119.646,1238.14 127.114,1237.1 134.583,1236.01 142.052,1234.88 149.52,1233.71 156.989,1232.5 164.457,1231.24 171.926,1229.94 179.395,1228.6 186.863,1227.21 194.332,1225.78 201.8,1224.31 209.269,1222.8 216.738,1221.24 224.206,1219.65 231.675,1218.01 239.143,1216.32 246.612,1214.6 254.08,1212.83 261.549,1211.02 269.018,1209.16 276.486,1207.26 283.955,1205.32 291.423,1203.33 298.892,1201.3 306.361,1199.23 313.829,1197.11 321.298,1194.95 328.766,1192.74 336.235,1190.49 343.704,1188.19 351.172,1185.84 358.641,1183.45 366.109,1181.02 373.578,1178.53 381.047,1176 388.515,1173.42 395.984,1170.8 403.452,1168.12 410.921,1165.4 418.39,1162.63 425.858,1159.81 433.327,1156.94 440.795,1154.02 448.264,1151.05 455.733,1148.02 463.201,1144.95 470.67,1141.82 478.138,1138.64 485.607,1135.41 493.076,1132.13 500.544,1128.79 508.013,1125.39 515.481,1121.95 522.95,1118.44 530.419,1114.88 537.887,1111.26 545.356,1107.59 552.824,1103.86 560.293,1100.06 567.762,1096.21 575.23,1092.3 582.699,1088.33 590.167,1084.3 597.636,1080.21 605.104,1076.06 612.573,1071.84 620.042,1067.56 627.51,1063.21 634.979,1058.81 642.447,1054.33 649.916,1049.79 657.385,1045.18 664.853,1040.51 672.322,1035.77 679.79,1030.95 687.259,1026.07 694.728,1021.12 702.196,1016.1 709.665,1011 717.133,1005.84 724.602,1000.6 732.071,995.286 739.539,989.899 747.008,984.436 754.476,978.898 761.945,973.283 769.414,967.59 776.882,961.82 784.351,955.971 791.819,950.042 799.288,944.033 806.757,937.942 814.225,931.77 821.694,925.516 829.162,919.179 836.631,912.758 844.1,906.254 851.568,899.663 859.037,892.987 866.505,886.225 873.974,879.374 881.443,872.436 888.911,865.409 896.38,858.292 903.848,851.085 911.317,843.788 918.786,836.399 926.254,828.919 933.723,821.347 941.191,813.682 948.66,805.924 956.128,798.073 963.597,790.128 971.066,782.09 978.534,773.957 986.003,765.73 993.471,757.408 1000.94,748.991 1008.41,740.479 1015.88,731.872 1023.35,723.17 1030.81,714.373 1038.28,705.481 1045.75,696.494 1053.22,687.411 1060.69,678.234 1068.16,668.966 1075.63,659.609 1083.09,650.16 1090.56,640.621 1098.03,630.99 1105.5,621.269 1112.97,611.457 1120.44,601.554 1127.91,591.563 1135.37,581.484 1142.84,571.32 1150.31,561.07 1157.78,550.739 1165.25,540.328 1172.72,529.841 1180.19,519.279 1187.65,508.647 1195.12,497.948 1202.59,487.186 1210.06,476.365 1217.53,465.49 1225,454.566 1232.47,443.597 1239.94,432.589 1247.4,421.547 1254.87,410.478 1262.34,399.388 1269.81,388.283 1277.28,377.17 1284.75,366.057 1292.22,354.95 1299.68,343.857 1307.15,332.787 1314.62,321.747 1322.09,310.746 1329.56,299.782 1337.03,288.862 1344.5,278.003 1351.96,267.223 1359.43,256.542 1366.9,245.98 1374.37,235.555 1381.84,225.289 1389.31,215.202 1396.78,205.315 1404.24,195.651 1411.71,186.232 1419.18,177.081 1426.65,168.22 1434.12,159.673 1441.59,151.466 1449.06,143.622 1456.52,136.167 1463.99,129.126 1471.46,122.526 1478.93,116.394 1486.4,110.755 1493.87,105.639 1501.34,101.074 1508.8,97.0868 1516.27,93.7078 1523.74,90.9664 1531.21,88.8926 1538.68,87.5169 1546.15,86.8704 1553.62,86.9845 1561.08,87.8913 1568.55,89.6232 1576.02,92.2133 1583.49,95.6948 1590.96,100.102 1598.43,105.47 1605.9,111.842 1613.36,119.228 1620.83,127.624 1628.3,137.024 1635.77,147.42 1643.24,158.799 1650.71,171.144 1658.18,184.437 1665.65,198.655 1673.11,213.772 1680.58,229.759 1688.05,246.584 1695.52,264.209 1702.99,282.598 1710.46,301.706 1717.93,321.488 1725.39,341.896 1732.86,362.876 1740.33,384.373 1747.8,406.328 1755.27,428.678 1762.74,451.358 1770.21,474.299 1777.67,497.429 1785.14,520.671 1792.61,543.947 1800.08,567.175 1807.55,590.282 1815.02,613.25 1822.49,636.025 1829.95,658.554 1837.42,680.787 1844.89,702.678 1852.36,724.185 1859.83,745.27 1867.3,765.898 1874.77,786.039 1882.23,805.668 1889.7,824.761 1897.17,843.3 1904.64,861.271 1912.11,878.663 1919.58,895.469 1927.05,911.687 1934.51,927.318 1941.98,942.367 1949.45,956.844 1956.92,970.761 1964.39,984.135 1971.86,996.988 1979.33,1009.34 1986.79,1021.23 1994.26,1032.67 2001.73,1043.62 2009.2,1054.12 2016.67,1064.16 2024.14,1073.78 2031.61,1082.98 2039.07,1091.79 2046.54,1100.21 2054.01,1108.25 2061.48,1115.95 2068.95,1123.3 2076.42,1130.32 2083.89,1137.02 2091.36,1143.42 2098.82,1149.53 2106.29,1155.35 2113.76,1160.91 2121.23,1166.2 2128.7,1171.25 2136.17,1176.05 2143.64,1180.63 2151.1,1184.98 2158.57,1189.12 2166.04,1193.06 2173.51,1196.8 2180.98,1200.36 2188.45,1203.74 2195.92,1206.96 2203.38,1210.01 2210.85,1212.9 2218.32,1215.64 2225.79,1218.24 2233.26,1220.69 2240.73,1223.02 2248.2,1225.21 2255.66,1227.29 2263.13,1229.24 2270.6,1231.08 2278.07,1232.81 2285.54,1234.43 2293.01,1235.95 2300.48,1237.37 2307.94,1238.7 2315.41,1239.94 2322.88,1241.08 2330.35,1242.14 2337.82,1243.12 2345.29,1244.01 2352.76,1244.83 "/>
<polyline clip-path="url(#clip442)" style="stroke:#c271d2; stroke-linecap:round; stroke-linejoin:round; stroke-width:4; stroke-opacity:1; fill:none" points="112.177,1239.14 119.646,1243 127.114,1246.77 134.583,1250.46 142.052,1254.07 149.52,1257.6 156.989,1261.05 164.457,1264.42 171.926,1267.71 179.395,1270.93 186.863,1274.07 194.332,1277.14 201.8,1280.15 209.269,1283.08 216.738,1285.95 224.206,1288.75 231.675,1291.48 239.143,1294.15 246.612,1296.76 254.08,1299.31 261.549,1301.8 269.018,1304.24 276.486,1306.61 283.955,1308.93 291.423,1311.19 298.892,1313.41 306.361,1315.57 313.829,1317.67 321.298,1319.73 328.766,1321.74 336.235,1323.7 343.704,1325.62 351.172,1327.49 358.641,1329.31 366.109,1331.09 373.578,1332.83 381.047,1334.52 388.515,1336.18 395.984,1337.79 403.452,1339.36 410.921,1340.9 418.39,1342.4 425.858,1343.86 433.327,1345.28 440.795,1346.67 448.264,1348.03 455.733,1349.35 463.201,1350.64 470.67,1351.89 478.138,1353.11 485.607,1354.31 493.076,1355.47 500.544,1356.6 508.013,1357.7 515.481,1358.77 522.95,1359.82 530.419,1360.83 537.887,1361.82 545.356,1362.79 552.824,1363.72 560.293,1364.63 567.762,1365.52 575.23,1366.38 582.699,1367.22 590.167,1368.03 597.636,1368.82 605.104,1369.59 612.573,1370.33 620.042,1371.05 627.51,1371.75 634.979,1372.43 642.447,1373.08 649.916,1373.72 657.385,1374.33 664.853,1374.93 672.322,1375.5 679.79,1376.06 687.259,1376.59 694.728,1377.11 702.196,1377.6 709.665,1378.08 717.133,1378.54 724.602,1378.98 732.071,1379.4 739.539,1379.81 747.008,1380.19 754.476,1380.56 761.945,1380.91 769.414,1381.24 776.882,1381.56 784.351,1381.86 791.819,1382.14 799.288,1382.4 806.757,1382.65 814.225,1382.87 821.694,1383.08 829.162,1383.28 836.631,1383.45 844.1,1383.61 851.568,1383.75 859.037,1383.87 866.505,1383.98 873.974,1384.07 881.443,1384.14 888.911,1384.19 896.38,1384.22 903.848,1384.24 911.317,1384.24 918.786,1384.21 926.254,1384.17 933.723,1384.11 941.191,1384.03 948.66,1383.93 956.128,1383.81 963.597,1383.67 971.066,1383.51 978.534,1383.33 986.003,1383.12 993.471,1382.89 1000.94,1382.64 1008.41,1382.37 1015.88,1382.06 1023.35,1381.74 1030.81,1381.39 1038.28,1381.01 1045.75,1380.6 1053.22,1380.17 1060.69,1379.71 1068.16,1379.21 1075.63,1378.69 1083.09,1378.12 1090.56,1377.53 1098.03,1376.9 1105.5,1376.23 1112.97,1375.53 1120.44,1374.79 1127.91,1374.02 1135.37,1373.2 1142.84,1372.34 1150.31,1371.43 1157.78,1370.48 1165.25,1369.49 1172.72,1368.44 1180.19,1367.34 1187.65,1366.19 1195.12,1364.98 1202.59,1363.71 1210.06,1362.37 1217.53,1360.97 1225,1359.5 1232.47,1357.96 1239.94,1356.34 1247.4,1354.64 1254.87,1352.86 1262.34,1350.98 1269.81,1349.02 1277.28,1346.95 1284.75,1344.79 1292.22,1342.52 1299.68,1340.14 1307.15,1337.64 1314.62,1335.02 1322.09,1332.27 1329.56,1329.4 1337.03,1326.4 1344.5,1323.27 1351.96,1319.98 1359.43,1316.54 1366.9,1312.92 1374.37,1309.11 1381.84,1305.11 1389.31,1300.9 1396.78,1296.46 1404.24,1291.8 1411.71,1286.89 1419.18,1281.73 1426.65,1276.3 1434.12,1270.6 1441.59,1264.62 1449.06,1258.33 1456.52,1251.74 1463.99,1244.84 1471.46,1237.61 1478.93,1230.04 1486.4,1222.12 1493.87,1213.85 1501.34,1205.21 1508.8,1196.2 1516.27,1186.8 1523.74,1177.01 1531.21,1166.82 1538.68,1156.22 1546.15,1145.2 1553.62,1133.75 1561.08,1121.86 1568.55,1109.53 1576.02,1096.74 1583.49,1083.5 1590.96,1069.78 1598.43,1055.59 1605.9,1040.89 1613.36,1025.69 1620.83,1010.04 1628.3,993.993 1635.77,977.578 1643.24,960.843 1650.71,943.832 1658.18,926.59 1665.65,909.164 1673.11,891.598 1680.58,873.941 1688.05,856.24 1695.52,838.543 1702.99,820.9 1710.46,803.361 1717.93,785.976 1725.39,768.797 1732.86,751.875 1740.33,735.264 1747.8,719.016 1755.27,703.186 1762.74,687.829 1770.21,673 1777.67,658.756 1785.14,645.153 1792.61,632.249 1800.08,620.103 1807.55,608.763 1815.02,598.234 1822.49,588.539 1829.95,579.7 1837.42,571.735 1844.89,564.66 1852.36,558.485 1859.83,553.217 1867.3,548.859 1874.77,545.408 1882.23,542.861 1889.7,541.207 1897.17,540.434 1904.64,540.524 1912.11,541.456 1919.58,543.205 1927.05,545.742 1934.51,549.033 1941.98,553.041 1949.45,557.726 1956.92,563.041 1964.39,568.939 1971.86,575.365 1979.33,582.264 1986.79,589.572 1994.26,597.257 2001.73,605.344 2009.2,613.803 2016.67,622.601 2024.14,631.709 2031.61,641.096 2039.07,650.735 2046.54,660.597 2054.01,670.657 2061.48,680.89 2068.95,691.271 2076.42,701.779 2083.89,712.392 2091.36,723.089 2098.82,733.851 2106.29,744.66 2113.76,755.5 2121.23,766.354 2128.7,777.207 2136.17,788.048 2143.64,798.863 2151.1,809.64 2158.57,820.371 2166.04,831.046 2173.51,841.65 2180.98,852.175 2188.45,862.614 2195.92,872.96 2203.38,883.208 2210.85,893.353 2218.32,903.388 2225.79,913.31 2233.26,923.114 2240.73,932.797 2248.2,942.354 2255.66,951.782 2263.13,961.078 2270.6,970.241 2278.07,979.267 2285.54,988.155 2293.01,996.904 2300.48,1005.51 2307.94,1013.98 2315.41,1022.31 2322.88,1030.49 2330.35,1038.53 2337.82,1046.44 2345.29,1054.2 2352.76,1061.83 "/>
<path clip-path="url(#clip440)" d="M1900.12 352.309 L2278.07 352.309 L2278.07 93.1086 L1900.12 93.1086  Z" fill="#ffffff" fill-rule="evenodd" fill-opacity="1"/>
<polyline clip-path="url(#clip440)" style="stroke:#000000; stroke-linecap:round; stroke-linejoin:round; stroke-width:4; stroke-opacity:1; fill:none" points="1900.12,352.309 2278.07,352.309 2278.07,93.1086 1900.12,93.1086 1900.12,352.309 "/>
<polyline clip-path="url(#clip440)" style="stroke:#009af9; stroke-linecap:round; stroke-linejoin:round; stroke-width:4; stroke-opacity:1; fill:none" points="1925.02,144.949 2074.39,144.949 "/>
<path clip-path="url(#clip440)" d="M2123.94 136.303 L2114.56 148.919 L2124.43 162.229 L2119.4 162.229 L2111.86 152.043 L2104.31 162.229 L2099.29 162.229 L2109.36 148.664 L2100.14 136.303 L2105.17 136.303 L2112.04 145.539 L2118.92 136.303 L2123.94 136.303 Z" fill="#000000" fill-rule="nonzero" fill-opacity="1" /><path clip-path="url(#clip440)" d="M2150.14 170.099 L2150.14 173.409 L2125.51 173.409 L2125.51 170.099 L2150.14 170.099 Z" fill="#000000" fill-rule="nonzero" fill-opacity="1" /><path clip-path="url(#clip440)" d="M2158.27 158.34 L2158.27 172.09 L2153.99 172.09 L2153.99 136.303 L2158.27 136.303 L2158.27 140.238 Q2159.61 137.923 2161.65 136.812 Q2163.71 135.678 2166.55 135.678 Q2171.28 135.678 2174.22 139.428 Q2177.18 143.178 2177.18 149.289 Q2177.18 155.4 2174.22 159.15 Q2171.28 162.9 2166.55 162.9 Q2163.71 162.9 2161.65 161.789 Q2159.61 160.655 2158.27 158.34 M2172.76 149.289 Q2172.76 144.59 2170.81 141.928 Q2168.89 139.243 2165.51 139.243 Q2162.13 139.243 2160.19 141.928 Q2158.27 144.59 2158.27 149.289 Q2158.27 153.988 2160.19 156.673 Q2162.13 159.335 2165.51 159.335 Q2168.89 159.335 2170.81 156.673 Q2172.76 153.988 2172.76 149.289 Z" fill="#000000" fill-rule="nonzero" fill-opacity="1" /><path clip-path="url(#clip440)" d="M2199.26 140.284 Q2198.55 139.868 2197.69 139.682 Q2196.86 139.474 2195.84 139.474 Q2192.23 139.474 2190.28 141.835 Q2188.36 144.173 2188.36 148.571 L2188.36 162.229 L2184.08 162.229 L2184.08 136.303 L2188.36 136.303 L2188.36 140.331 Q2189.7 137.969 2191.86 136.835 Q2194.01 135.678 2197.09 135.678 Q2197.53 135.678 2198.06 135.747 Q2198.59 135.794 2199.24 135.909 L2199.26 140.284 Z" fill="#000000" fill-rule="nonzero" fill-opacity="1" /><path clip-path="url(#clip440)" d="M2224.86 148.201 L2224.86 150.284 L2205.28 150.284 Q2205.56 154.682 2207.92 156.997 Q2210.3 159.289 2214.54 159.289 Q2216.99 159.289 2219.29 158.687 Q2221.6 158.085 2223.87 156.881 L2223.87 160.909 Q2221.58 161.881 2219.17 162.391 Q2216.76 162.9 2214.29 162.9 Q2208.08 162.9 2204.45 159.289 Q2200.84 155.678 2200.84 149.52 Q2200.84 143.155 2204.26 139.428 Q2207.71 135.678 2213.55 135.678 Q2218.78 135.678 2221.81 139.057 Q2224.86 142.414 2224.86 148.201 M2220.61 146.951 Q2220.56 143.456 2218.64 141.372 Q2216.74 139.289 2213.59 139.289 Q2210.03 139.289 2207.87 141.303 Q2205.74 143.317 2205.42 146.974 L2220.61 146.951 Z" fill="#000000" fill-rule="nonzero" fill-opacity="1" /><path clip-path="url(#clip440)" d="M2248.92 140.238 L2248.92 126.21 L2253.17 126.21 L2253.17 162.229 L2248.92 162.229 L2248.92 158.34 Q2247.57 160.655 2245.51 161.789 Q2243.48 162.9 2240.61 162.9 Q2235.91 162.9 2232.94 159.15 Q2230 155.4 2230 149.289 Q2230 143.178 2232.94 139.428 Q2235.91 135.678 2240.61 135.678 Q2243.48 135.678 2245.51 136.812 Q2247.57 137.923 2248.92 140.238 M2234.4 149.289 Q2234.4 153.988 2236.32 156.673 Q2238.27 159.335 2241.65 159.335 Q2245.03 159.335 2246.97 156.673 Q2248.92 153.988 2248.92 149.289 Q2248.92 144.59 2246.97 141.928 Q2245.03 139.243 2241.65 139.243 Q2238.27 139.243 2236.32 141.928 Q2234.4 144.59 2234.4 149.289 Z" fill="#000000" fill-rule="nonzero" fill-opacity="1" /><polyline clip-path="url(#clip440)" style="stroke:#e26f46; stroke-linecap:round; stroke-linejoin:round; stroke-width:4; stroke-opacity:1; fill:none" points="1925.02,196.789 2074.39,196.789 "/>
<path clip-path="url(#clip440)" d="M2113.13 216.476 Q2111.32 221.106 2109.61 222.518 Q2107.9 223.93 2105.03 223.93 L2101.62 223.93 L2101.62 220.365 L2104.12 220.365 Q2105.88 220.365 2106.86 219.532 Q2107.83 218.698 2109.01 215.596 L2109.77 213.652 L2099.29 188.143 L2103.8 188.143 L2111.9 208.421 L2120 188.143 L2124.52 188.143 L2113.13 216.476 Z" fill="#000000" fill-rule="nonzero" fill-opacity="1" /><path clip-path="url(#clip440)" d="M2150.1 221.939 L2150.1 225.249 L2125.47 225.249 L2125.47 221.939 L2150.1 221.939 Z" fill="#000000" fill-rule="nonzero" fill-opacity="1" /><path clip-path="url(#clip440)" d="M2158.22 210.18 L2158.22 223.93 L2153.94 223.93 L2153.94 188.143 L2158.22 188.143 L2158.22 192.078 Q2159.56 189.763 2161.6 188.652 Q2163.66 187.518 2166.51 187.518 Q2171.23 187.518 2174.17 191.268 Q2177.13 195.018 2177.13 201.129 Q2177.13 207.24 2174.17 210.99 Q2171.23 214.74 2166.51 214.74 Q2163.66 214.74 2161.6 213.629 Q2159.56 212.495 2158.22 210.18 M2172.71 201.129 Q2172.71 196.43 2170.77 193.768 Q2168.85 191.083 2165.47 191.083 Q2162.09 191.083 2160.14 193.768 Q2158.22 196.43 2158.22 201.129 Q2158.22 205.828 2160.14 208.513 Q2162.09 211.175 2165.47 211.175 Q2168.85 211.175 2170.77 208.513 Q2172.71 205.828 2172.71 201.129 Z" fill="#000000" fill-rule="nonzero" fill-opacity="1" /><path clip-path="url(#clip440)" d="M2199.22 192.124 Q2198.5 191.708 2197.64 191.522 Q2196.81 191.314 2195.79 191.314 Q2192.18 191.314 2190.24 193.675 Q2188.31 196.013 2188.31 200.411 L2188.31 214.069 L2184.03 214.069 L2184.03 188.143 L2188.31 188.143 L2188.31 192.171 Q2189.66 189.809 2191.81 188.675 Q2193.96 187.518 2197.04 187.518 Q2197.48 187.518 2198.01 187.587 Q2198.55 187.634 2199.19 187.749 L2199.22 192.124 Z" fill="#000000" fill-rule="nonzero" fill-opacity="1" /><path clip-path="url(#clip440)" d="M2224.82 200.041 L2224.82 202.124 L2205.24 202.124 Q2205.51 206.522 2207.87 208.837 Q2210.26 211.129 2214.49 211.129 Q2216.95 211.129 2219.24 210.527 Q2221.55 209.925 2223.82 208.721 L2223.82 212.749 Q2221.53 213.721 2219.12 214.231 Q2216.72 214.74 2214.24 214.74 Q2208.04 214.74 2204.4 211.129 Q2200.79 207.518 2200.79 201.36 Q2200.79 194.995 2204.22 191.268 Q2207.67 187.518 2213.5 187.518 Q2218.73 187.518 2221.76 190.897 Q2224.82 194.254 2224.82 200.041 M2220.56 198.791 Q2220.51 195.296 2218.59 193.212 Q2216.69 191.129 2213.55 191.129 Q2209.98 191.129 2207.83 193.143 Q2205.7 195.157 2205.37 198.814 L2220.56 198.791 Z" fill="#000000" fill-rule="nonzero" fill-opacity="1" /><path clip-path="url(#clip440)" d="M2248.87 192.078 L2248.87 178.05 L2253.13 178.05 L2253.13 214.069 L2248.87 214.069 L2248.87 210.18 Q2247.53 212.495 2245.47 213.629 Q2243.43 214.74 2240.56 214.74 Q2235.86 214.74 2232.9 210.99 Q2229.96 207.24 2229.96 201.129 Q2229.96 195.018 2232.9 191.268 Q2235.86 187.518 2240.56 187.518 Q2243.43 187.518 2245.47 188.652 Q2247.53 189.763 2248.87 192.078 M2234.36 201.129 Q2234.36 205.828 2236.28 208.513 Q2238.22 211.175 2241.6 211.175 Q2244.98 211.175 2246.92 208.513 Q2248.87 205.828 2248.87 201.129 Q2248.87 196.43 2246.92 193.768 Q2244.98 191.083 2241.6 191.083 Q2238.22 191.083 2236.28 193.768 Q2234.36 196.43 2234.36 201.129 Z" fill="#000000" fill-rule="nonzero" fill-opacity="1" /><polyline clip-path="url(#clip440)" style="stroke:#3da44d; stroke-linecap:round; stroke-linejoin:round; stroke-width:4; stroke-opacity:1; fill:none" points="1925.02,248.629 2074.39,248.629 "/>
<path clip-path="url(#clip440)" d="M2099.29 255.677 L2099.29 239.983 L2103.55 239.983 L2103.55 255.515 Q2103.55 259.196 2104.98 261.048 Q2106.42 262.876 2109.29 262.876 Q2112.74 262.876 2114.73 260.677 Q2116.74 258.478 2116.74 254.682 L2116.74 239.983 L2121 239.983 L2121 265.909 L2116.74 265.909 L2116.74 261.927 Q2115.19 264.288 2113.13 265.446 Q2111.09 266.58 2108.38 266.58 Q2103.92 266.58 2101.6 263.802 Q2099.29 261.024 2099.29 255.677 M2110 239.358 L2110 239.358 Z" fill="#000000" fill-rule="nonzero" fill-opacity="1" /><path clip-path="url(#clip440)" d="M2131.18 261.973 L2138.82 261.973 L2138.82 235.608 L2130.51 237.275 L2130.51 233.015 L2138.78 231.349 L2143.45 231.349 L2143.45 261.973 L2151.09 261.973 L2151.09 265.909 L2131.18 265.909 L2131.18 261.973 Z" fill="#000000" fill-rule="nonzero" fill-opacity="1" /><path clip-path="url(#clip440)" d="M2170.17 229.937 Q2167.06 235.261 2165.56 240.469 Q2164.05 245.677 2164.05 251.024 Q2164.05 256.372 2165.56 261.626 Q2167.09 266.858 2170.17 272.159 L2166.46 272.159 Q2162.99 266.719 2161.25 261.464 Q2159.54 256.21 2159.54 251.024 Q2159.54 245.862 2161.25 240.631 Q2162.97 235.4 2166.46 229.937 L2170.17 229.937 Z" fill="#000000" fill-rule="nonzero" fill-opacity="1" /><path clip-path="url(#clip440)" d="M2182.64 232.622 L2182.64 239.983 L2191.42 239.983 L2191.42 243.293 L2182.64 243.293 L2182.64 257.367 Q2182.64 260.538 2183.5 261.441 Q2184.38 262.344 2187.04 262.344 L2191.42 262.344 L2191.42 265.909 L2187.04 265.909 Q2182.11 265.909 2180.24 264.08 Q2178.36 262.228 2178.36 257.367 L2178.36 243.293 L2175.24 243.293 L2175.24 239.983 L2178.36 239.983 L2178.36 232.622 L2182.64 232.622 Z" fill="#000000" fill-rule="nonzero" fill-opacity="1" /><path clip-path="url(#clip440)" d="M2196.35 229.937 L2200.05 229.937 Q2203.52 235.4 2205.24 240.631 Q2206.97 245.862 2206.97 251.024 Q2206.97 256.21 2205.24 261.464 Q2203.52 266.719 2200.05 272.159 L2196.35 272.159 Q2199.42 266.858 2200.93 261.626 Q2202.46 256.372 2202.46 251.024 Q2202.46 245.677 2200.93 240.469 Q2199.42 235.261 2196.35 229.937 Z" fill="#000000" fill-rule="nonzero" fill-opacity="1" /><polyline clip-path="url(#clip440)" style="stroke:#c271d2; stroke-linecap:round; stroke-linejoin:round; stroke-width:4; stroke-opacity:1; fill:none" points="1925.02,300.469 2074.39,300.469 "/>
<path clip-path="url(#clip440)" d="M2099.29 307.517 L2099.29 291.823 L2103.55 291.823 L2103.55 307.355 Q2103.55 311.036 2104.98 312.888 Q2106.42 314.716 2109.29 314.716 Q2112.74 314.716 2114.73 312.517 Q2116.74 310.318 2116.74 306.522 L2116.74 291.823 L2121 291.823 L2121 317.749 L2116.74 317.749 L2116.74 313.767 Q2115.19 316.128 2113.13 317.286 Q2111.09 318.42 2108.38 318.42 Q2103.92 318.42 2101.6 315.642 Q2099.29 312.864 2099.29 307.517 M2110 291.198 L2110 291.198 Z" fill="#000000" fill-rule="nonzero" fill-opacity="1" /><path clip-path="url(#clip440)" d="M2134.4 313.813 L2150.72 313.813 L2150.72 317.749 L2128.78 317.749 L2128.78 313.813 Q2131.44 311.059 2136.02 306.429 Q2140.63 301.776 2141.81 300.434 Q2144.05 297.911 2144.93 296.175 Q2145.84 294.415 2145.84 292.726 Q2145.84 289.971 2143.89 288.235 Q2141.97 286.499 2138.87 286.499 Q2136.67 286.499 2134.22 287.263 Q2131.79 288.027 2129.01 289.577 L2129.01 284.855 Q2131.83 283.721 2134.29 283.142 Q2136.74 282.564 2138.78 282.564 Q2144.15 282.564 2147.34 285.249 Q2150.54 287.934 2150.54 292.425 Q2150.54 294.554 2149.73 296.476 Q2148.94 298.374 2146.83 300.966 Q2146.25 301.638 2143.15 304.855 Q2140.05 308.05 2134.4 313.813 Z" fill="#000000" fill-rule="nonzero" fill-opacity="1" /><path clip-path="url(#clip440)" d="M2170.17 281.777 Q2167.06 287.101 2165.56 292.309 Q2164.05 297.517 2164.05 302.864 Q2164.05 308.212 2165.56 313.466 Q2167.09 318.698 2170.17 323.999 L2166.46 323.999 Q2162.99 318.559 2161.25 313.304 Q2159.54 308.05 2159.54 302.864 Q2159.54 297.702 2161.25 292.471 Q2162.97 287.24 2166.46 281.777 L2170.17 281.777 Z" fill="#000000" fill-rule="nonzero" fill-opacity="1" /><path clip-path="url(#clip440)" d="M2182.64 284.462 L2182.64 291.823 L2191.42 291.823 L2191.42 295.133 L2182.64 295.133 L2182.64 309.207 Q2182.64 312.378 2183.5 313.281 Q2184.38 314.184 2187.04 314.184 L2191.42 314.184 L2191.42 317.749 L2187.04 317.749 Q2182.11 317.749 2180.24 315.92 Q2178.36 314.068 2178.36 309.207 L2178.36 295.133 L2175.24 295.133 L2175.24 291.823 L2178.36 291.823 L2178.36 284.462 L2182.64 284.462 Z" fill="#000000" fill-rule="nonzero" fill-opacity="1" /><path clip-path="url(#clip440)" d="M2196.35 281.777 L2200.05 281.777 Q2203.52 287.24 2205.24 292.471 Q2206.97 297.702 2206.97 302.864 Q2206.97 308.05 2205.24 313.304 Q2203.52 318.559 2200.05 323.999 L2196.35 323.999 Q2199.42 318.698 2200.93 313.466 Q2202.46 308.212 2202.46 302.864 Q2202.46 297.517 2200.93 292.309 Q2199.42 287.101 2196.35 281.777 Z" fill="#000000" fill-rule="nonzero" fill-opacity="1" /></svg>
