<?xml version="1.0" encoding="utf-8"?>
<svg xmlns="http://www.w3.org/2000/svg" xmlns:xlink="http://www.w3.org/1999/xlink" width="600" height="400" viewBox="0 0 2400 1600">
<defs>
  <clipPath id="clip260">
    <rect x="0" y="0" width="2400" height="1600"/>
  </clipPath>
</defs>
<path clip-path="url(#clip260)" d="M0 1600 L2400 1600 L2400 0 L0 0  Z" fill="#ffffff" fill-rule="evenodd" fill-opacity="1"/>
<defs>
  <clipPath id="clip261">
    <rect x="480" y="0" width="1681" height="1600"/>
  </clipPath>
</defs>
<path clip-path="url(#clip260)" d="M156.274 1486.45 L2352.76 1486.45 L2352.76 47.2441 L156.274 47.2441  Z" fill="#ffffff" fill-rule="evenodd" fill-opacity="1"/>
<defs>
  <clipPath id="clip262">
    <rect x="156" y="47" width="2197" height="1440"/>
  </clipPath>
</defs>
<polyline clip-path="url(#clip262)" style="stroke:#000000; stroke-linecap:round; stroke-linejoin:round; stroke-width:2; stroke-opacity:0.1; fill:none" points="218.439,1486.45 218.439,47.2441 "/>
<polyline clip-path="url(#clip262)" style="stroke:#000000; stroke-linecap:round; stroke-linejoin:round; stroke-width:2; stroke-opacity:0.1; fill:none" points="736.477,1486.45 736.477,47.2441 "/>
<polyline clip-path="url(#clip262)" style="stroke:#000000; stroke-linecap:round; stroke-linejoin:round; stroke-width:2; stroke-opacity:0.1; fill:none" points="1254.52,1486.45 1254.52,47.2441 "/>
<polyline clip-path="url(#clip262)" style="stroke:#000000; stroke-linecap:round; stroke-linejoin:round; stroke-width:2; stroke-opacity:0.1; fill:none" points="1772.55,1486.45 1772.55,47.2441 "/>
<polyline clip-path="url(#clip262)" style="stroke:#000000; stroke-linecap:round; stroke-linejoin:round; stroke-width:2; stroke-opacity:0.1; fill:none" points="2290.59,1486.45 2290.59,47.2441 "/>
<polyline clip-path="url(#clip260)" style="stroke:#000000; stroke-linecap:round; stroke-linejoin:round; stroke-width:4; stroke-opacity:1; fill:none" points="156.274,1486.45 2352.76,1486.45 "/>
<polyline clip-path="url(#clip260)" style="stroke:#000000; stroke-linecap:round; stroke-linejoin:round; stroke-width:4; stroke-opacity:1; fill:none" points="218.439,1486.45 218.439,1467.55 "/>
<polyline clip-path="url(#clip260)" style="stroke:#000000; stroke-linecap:round; stroke-linejoin:round; stroke-width:4; stroke-opacity:1; fill:none" points="736.477,1486.45 736.477,1467.55 "/>
<polyline clip-path="url(#clip260)" style="stroke:#000000; stroke-linecap:round; stroke-linejoin:round; stroke-width:4; stroke-opacity:1; fill:none" points="1254.52,1486.45 1254.52,1467.55 "/>
<polyline clip-path="url(#clip260)" style="stroke:#000000; stroke-linecap:round; stroke-linejoin:round; stroke-width:4; stroke-opacity:1; fill:none" points="1772.55,1486.45 1772.55,1467.55 "/>
<polyline clip-path="url(#clip260)" style="stroke:#000000; stroke-linecap:round; stroke-linejoin:round; stroke-width:4; stroke-opacity:1; fill:none" points="2290.59,1486.45 2290.59,1467.55 "/>
<path clip-path="url(#clip260)" d="M164.967 1532.02 L194.643 1532.02 L194.643 1535.95 L164.967 1535.95 L164.967 1532.02 Z" fill="#000000" fill-rule="nonzero" fill-opacity="1" /><path clip-path="url(#clip260)" d="M205.545 1544.91 L213.184 1544.91 L213.184 1518.55 L204.874 1520.21 L204.874 1515.95 L213.138 1514.29 L217.814 1514.29 L217.814 1544.91 L225.453 1544.91 L225.453 1548.85 L205.545 1548.85 L205.545 1544.91 Z" fill="#000000" fill-rule="nonzero" fill-opacity="1" /><path clip-path="url(#clip260)" d="M234.897 1542.97 L239.781 1542.97 L239.781 1548.85 L234.897 1548.85 L234.897 1542.97 Z" fill="#000000" fill-rule="nonzero" fill-opacity="1" /><path clip-path="url(#clip260)" d="M259.966 1517.37 Q256.355 1517.37 254.527 1520.93 Q252.721 1524.47 252.721 1531.6 Q252.721 1538.71 254.527 1542.27 Q256.355 1545.82 259.966 1545.82 Q263.601 1545.82 265.406 1542.27 Q267.235 1538.71 267.235 1531.6 Q267.235 1524.47 265.406 1520.93 Q263.601 1517.37 259.966 1517.37 M259.966 1513.66 Q265.776 1513.66 268.832 1518.27 Q271.911 1522.85 271.911 1531.6 Q271.911 1540.33 268.832 1544.94 Q265.776 1549.52 259.966 1549.52 Q254.156 1549.52 251.077 1544.94 Q248.022 1540.33 248.022 1531.6 Q248.022 1522.85 251.077 1518.27 Q254.156 1513.66 259.966 1513.66 Z" fill="#000000" fill-rule="nonzero" fill-opacity="1" /><path clip-path="url(#clip260)" d="M683.503 1532.02 L713.178 1532.02 L713.178 1535.95 L683.503 1535.95 L683.503 1532.02 Z" fill="#000000" fill-rule="nonzero" fill-opacity="1" /><path clip-path="url(#clip260)" d="M733.271 1517.37 Q729.66 1517.37 727.831 1520.93 Q726.026 1524.47 726.026 1531.6 Q726.026 1538.71 727.831 1542.27 Q729.66 1545.82 733.271 1545.82 Q736.905 1545.82 738.711 1542.27 Q740.539 1538.71 740.539 1531.6 Q740.539 1524.47 738.711 1520.93 Q736.905 1517.37 733.271 1517.37 M733.271 1513.66 Q739.081 1513.66 742.137 1518.27 Q745.215 1522.85 745.215 1531.6 Q745.215 1540.33 742.137 1544.94 Q739.081 1549.52 733.271 1549.52 Q727.461 1549.52 724.382 1544.94 Q721.327 1540.33 721.327 1531.6 Q721.327 1522.85 724.382 1518.27 Q727.461 1513.66 733.271 1513.66 Z" fill="#000000" fill-rule="nonzero" fill-opacity="1" /><path clip-path="url(#clip260)" d="M753.433 1542.97 L758.317 1542.97 L758.317 1548.85 L753.433 1548.85 L753.433 1542.97 Z" fill="#000000" fill-rule="nonzero" fill-opacity="1" /><path clip-path="url(#clip260)" d="M768.548 1514.29 L786.905 1514.29 L786.905 1518.22 L772.831 1518.22 L772.831 1526.7 Q773.849 1526.35 774.868 1526.19 Q775.886 1526 776.905 1526 Q782.692 1526 786.072 1529.17 Q789.451 1532.34 789.451 1537.76 Q789.451 1543.34 785.979 1546.44 Q782.507 1549.52 776.187 1549.52 Q774.011 1549.52 771.743 1549.15 Q769.498 1548.78 767.09 1548.04 L767.09 1543.34 Q769.173 1544.47 771.396 1545.03 Q773.618 1545.58 776.095 1545.58 Q780.099 1545.58 782.437 1543.48 Q784.775 1541.37 784.775 1537.76 Q784.775 1534.15 782.437 1532.04 Q780.099 1529.94 776.095 1529.94 Q774.22 1529.94 772.345 1530.35 Q770.493 1530.77 768.548 1531.65 L768.548 1514.29 Z" fill="#000000" fill-rule="nonzero" fill-opacity="1" /><path clip-path="url(#clip260)" d="M1231.9 1517.37 Q1228.29 1517.37 1226.46 1520.93 Q1224.65 1524.47 1224.65 1531.6 Q1224.65 1538.71 1226.46 1542.27 Q1228.29 1545.82 1231.9 1545.82 Q1235.53 1545.82 1237.34 1542.27 Q1239.17 1538.71 1239.17 1531.6 Q1239.17 1524.47 1237.34 1520.93 Q1235.53 1517.37 1231.9 1517.37 M1231.9 1513.66 Q1237.71 1513.66 1240.77 1518.27 Q1243.84 1522.85 1243.84 1531.6 Q1243.84 1540.33 1240.77 1544.94 Q1237.71 1549.52 1231.9 1549.52 Q1226.09 1549.52 1223.01 1544.94 Q1219.96 1540.33 1219.96 1531.6 Q1219.96 1522.85 1223.01 1518.27 Q1226.09 1513.66 1231.9 1513.66 Z" fill="#000000" fill-rule="nonzero" fill-opacity="1" /><path clip-path="url(#clip260)" d="M1252.06 1542.97 L1256.95 1542.97 L1256.95 1548.85 L1252.06 1548.85 L1252.06 1542.97 Z" fill="#000000" fill-rule="nonzero" fill-opacity="1" /><path clip-path="url(#clip260)" d="M1277.13 1517.37 Q1273.52 1517.37 1271.69 1520.93 Q1269.89 1524.47 1269.89 1531.6 Q1269.89 1538.71 1271.69 1542.27 Q1273.52 1545.82 1277.13 1545.82 Q1280.76 1545.82 1282.57 1542.27 Q1284.4 1538.71 1284.4 1531.6 Q1284.4 1524.47 1282.57 1520.93 Q1280.76 1517.37 1277.13 1517.37 M1277.13 1513.66 Q1282.94 1513.66 1286 1518.27 Q1289.08 1522.85 1289.08 1531.6 Q1289.08 1540.33 1286 1544.94 Q1282.94 1549.52 1277.13 1549.52 Q1271.32 1549.52 1268.24 1544.94 Q1265.19 1540.33 1265.19 1531.6 Q1265.19 1522.85 1268.24 1518.27 Q1271.32 1513.66 1277.13 1513.66 Z" fill="#000000" fill-rule="nonzero" fill-opacity="1" /><path clip-path="url(#clip260)" d="M1750.44 1517.37 Q1746.82 1517.37 1745 1520.93 Q1743.19 1524.47 1743.19 1531.6 Q1743.19 1538.71 1745 1542.27 Q1746.82 1545.82 1750.44 1545.82 Q1754.07 1545.82 1755.88 1542.27 Q1757.7 1538.71 1757.7 1531.6 Q1757.7 1524.47 1755.88 1520.93 Q1754.07 1517.37 1750.44 1517.37 M1750.44 1513.66 Q1756.25 1513.66 1759.3 1518.27 Q1762.38 1522.85 1762.38 1531.6 Q1762.38 1540.33 1759.3 1544.94 Q1756.25 1549.52 1750.44 1549.52 Q1744.63 1549.52 1741.55 1544.94 Q1738.49 1540.33 1738.49 1531.6 Q1738.49 1522.85 1741.55 1518.27 Q1744.63 1513.66 1750.44 1513.66 Z" fill="#000000" fill-rule="nonzero" fill-opacity="1" /><path clip-path="url(#clip260)" d="M1770.6 1542.97 L1775.48 1542.97 L1775.48 1548.85 L1770.6 1548.85 L1770.6 1542.97 Z" fill="#000000" fill-rule="nonzero" fill-opacity="1" /><path clip-path="url(#clip260)" d="M1785.71 1514.29 L1804.07 1514.29 L1804.07 1518.22 L1790 1518.22 L1790 1526.7 Q1791.01 1526.35 1792.03 1526.19 Q1793.05 1526 1794.07 1526 Q1799.86 1526 1803.24 1529.17 Q1806.62 1532.34 1806.62 1537.76 Q1806.62 1543.34 1803.14 1546.44 Q1799.67 1549.52 1793.35 1549.52 Q1791.18 1549.52 1788.91 1549.15 Q1786.66 1548.78 1784.25 1548.04 L1784.25 1543.34 Q1786.34 1544.47 1788.56 1545.03 Q1790.78 1545.58 1793.26 1545.58 Q1797.26 1545.58 1799.6 1543.48 Q1801.94 1541.37 1801.94 1537.76 Q1801.94 1534.15 1799.6 1532.04 Q1797.26 1529.94 1793.26 1529.94 Q1791.38 1529.94 1789.51 1530.35 Q1787.66 1530.77 1785.71 1531.65 L1785.71 1514.29 Z" fill="#000000" fill-rule="nonzero" fill-opacity="1" /><path clip-path="url(#clip260)" d="M2257.74 1544.91 L2265.38 1544.91 L2265.38 1518.55 L2257.07 1520.21 L2257.07 1515.95 L2265.34 1514.29 L2270.01 1514.29 L2270.01 1544.91 L2277.65 1544.91 L2277.65 1548.85 L2257.74 1548.85 L2257.74 1544.91 Z" fill="#000000" fill-rule="nonzero" fill-opacity="1" /><path clip-path="url(#clip260)" d="M2287.1 1542.97 L2291.98 1542.97 L2291.98 1548.85 L2287.1 1548.85 L2287.1 1542.97 Z" fill="#000000" fill-rule="nonzero" fill-opacity="1" /><path clip-path="url(#clip260)" d="M2312.17 1517.37 Q2308.55 1517.37 2306.73 1520.93 Q2304.92 1524.47 2304.92 1531.6 Q2304.92 1538.71 2306.73 1542.27 Q2308.55 1545.82 2312.17 1545.82 Q2315.8 1545.82 2317.61 1542.27 Q2319.43 1538.71 2319.43 1531.6 Q2319.43 1524.47 2317.61 1520.93 Q2315.8 1517.37 2312.17 1517.37 M2312.17 1513.66 Q2317.98 1513.66 2321.03 1518.27 Q2324.11 1522.85 2324.11 1531.6 Q2324.11 1540.33 2321.03 1544.94 Q2317.98 1549.52 2312.17 1549.52 Q2306.36 1549.52 2303.28 1544.94 Q2300.22 1540.33 2300.22 1531.6 Q2300.22 1522.85 2303.28 1518.27 Q2306.36 1513.66 2312.17 1513.66 Z" fill="#000000" fill-rule="nonzero" fill-opacity="1" /><polyline clip-path="url(#clip262)" style="stroke:#000000; stroke-linecap:round; stroke-linejoin:round; stroke-width:2; stroke-opacity:0.1; fill:none" points="156.274,1244.66 2352.76,1244.66 "/>
<polyline clip-path="url(#clip262)" style="stroke:#000000; stroke-linecap:round; stroke-linejoin:round; stroke-width:2; stroke-opacity:0.1; fill:none" points="156.274,973.207 2352.76,973.207 "/>
<polyline clip-path="url(#clip262)" style="stroke:#000000; stroke-linecap:round; stroke-linejoin:round; stroke-width:2; stroke-opacity:0.1; fill:none" points="156.274,701.751 2352.76,701.751 "/>
<polyline clip-path="url(#clip262)" style="stroke:#000000; stroke-linecap:round; stroke-linejoin:round; stroke-width:2; stroke-opacity:0.1; fill:none" points="156.274,430.296 2352.76,430.296 "/>
<polyline clip-path="url(#clip262)" style="stroke:#000000; stroke-linecap:round; stroke-linejoin:round; stroke-width:2; stroke-opacity:0.1; fill:none" points="156.274,158.84 2352.76,158.84 "/>
<polyline clip-path="url(#clip260)" style="stroke:#000000; stroke-linecap:round; stroke-linejoin:round; stroke-width:4; stroke-opacity:1; fill:none" points="156.274,1486.45 156.274,47.2441 "/>
<polyline clip-path="url(#clip260)" style="stroke:#000000; stroke-linecap:round; stroke-linejoin:round; stroke-width:4; stroke-opacity:1; fill:none" points="156.274,1244.66 175.172,1244.66 "/>
<polyline clip-path="url(#clip260)" style="stroke:#000000; stroke-linecap:round; stroke-linejoin:round; stroke-width:4; stroke-opacity:1; fill:none" points="156.274,973.207 175.172,973.207 "/>
<polyline clip-path="url(#clip260)" style="stroke:#000000; stroke-linecap:round; stroke-linejoin:round; stroke-width:4; stroke-opacity:1; fill:none" points="156.274,701.751 175.172,701.751 "/>
<polyline clip-path="url(#clip260)" style="stroke:#000000; stroke-linecap:round; stroke-linejoin:round; stroke-width:4; stroke-opacity:1; fill:none" points="156.274,430.296 175.172,430.296 "/>
<polyline clip-path="url(#clip260)" style="stroke:#000000; stroke-linecap:round; stroke-linejoin:round; stroke-width:4; stroke-opacity:1; fill:none" points="156.274,158.84 175.172,158.84 "/>
<path clip-path="url(#clip260)" d="M63.0985 1230.46 Q59.4875 1230.46 57.6588 1234.03 Q55.8532 1237.57 55.8532 1244.7 Q55.8532 1251.8 57.6588 1255.37 Q59.4875 1258.91 63.0985 1258.91 Q66.7328 1258.91 68.5383 1255.37 Q70.367 1251.8 70.367 1244.7 Q70.367 1237.57 68.5383 1234.03 Q66.7328 1230.46 63.0985 1230.46 M63.0985 1226.76 Q68.9087 1226.76 71.9642 1231.36 Q75.0429 1235.95 75.0429 1244.7 Q75.0429 1253.42 71.9642 1258.03 Q68.9087 1262.61 63.0985 1262.61 Q57.2884 1262.61 54.2097 1258.03 Q51.1542 1253.42 51.1542 1244.7 Q51.1542 1235.95 54.2097 1231.36 Q57.2884 1226.76 63.0985 1226.76 Z" fill="#000000" fill-rule="nonzero" fill-opacity="1" /><path clip-path="url(#clip260)" d="M83.2605 1256.06 L88.1447 1256.06 L88.1447 1261.94 L83.2605 1261.94 L83.2605 1256.06 Z" fill="#000000" fill-rule="nonzero" fill-opacity="1" /><path clip-path="url(#clip260)" d="M108.33 1230.46 Q104.719 1230.46 102.89 1234.03 Q101.084 1237.57 101.084 1244.7 Q101.084 1251.8 102.89 1255.37 Q104.719 1258.91 108.33 1258.91 Q111.964 1258.91 113.77 1255.37 Q115.598 1251.8 115.598 1244.7 Q115.598 1237.57 113.77 1234.03 Q111.964 1230.46 108.33 1230.46 M108.33 1226.76 Q114.14 1226.76 117.195 1231.36 Q120.274 1235.95 120.274 1244.7 Q120.274 1253.42 117.195 1258.03 Q114.14 1262.61 108.33 1262.61 Q102.52 1262.61 99.4409 1258.03 Q96.3854 1253.42 96.3854 1244.7 Q96.3854 1235.95 99.4409 1231.36 Q102.52 1226.76 108.33 1226.76 Z" fill="#000000" fill-rule="nonzero" fill-opacity="1" /><path clip-path="url(#clip260)" d="M63.7467 959.006 Q60.1356 959.006 58.3069 962.571 Q56.5014 966.112 56.5014 973.242 Q56.5014 980.348 58.3069 983.913 Q60.1356 987.455 63.7467 987.455 Q67.3809 987.455 69.1865 983.913 Q71.0152 980.348 71.0152 973.242 Q71.0152 966.112 69.1865 962.571 Q67.3809 959.006 63.7467 959.006 M63.7467 955.302 Q69.5568 955.302 72.6124 959.909 Q75.6911 964.492 75.6911 973.242 Q75.6911 981.969 72.6124 986.575 Q69.5568 991.158 63.7467 991.158 Q57.9365 991.158 54.8578 986.575 Q51.8023 981.969 51.8023 973.242 Q51.8023 964.492 54.8578 959.909 Q57.9365 955.302 63.7467 955.302 Z" fill="#000000" fill-rule="nonzero" fill-opacity="1" /><path clip-path="url(#clip260)" d="M83.9086 984.607 L88.7928 984.607 L88.7928 990.487 L83.9086 990.487 L83.9086 984.607 Z" fill="#000000" fill-rule="nonzero" fill-opacity="1" /><path clip-path="url(#clip260)" d="M113.145 971.853 Q116.501 972.57 118.376 974.839 Q120.274 977.108 120.274 980.441 Q120.274 985.557 116.756 988.357 Q113.237 991.158 106.756 991.158 Q104.58 991.158 102.265 990.719 Q99.9733 990.302 97.5197 989.445 L97.5197 984.932 Q99.4641 986.066 101.779 986.644 Q104.094 987.223 106.617 987.223 Q111.015 987.223 113.307 985.487 Q115.621 983.751 115.621 980.441 Q115.621 977.385 113.469 975.672 Q111.339 973.936 107.52 973.936 L103.492 973.936 L103.492 970.094 L107.705 970.094 Q111.154 970.094 112.983 968.728 Q114.811 967.339 114.811 964.746 Q114.811 962.084 112.913 960.672 Q111.038 959.237 107.52 959.237 Q105.598 959.237 103.399 959.654 Q101.2 960.071 98.5613 960.95 L98.5613 956.784 Q101.223 956.043 103.538 955.672 Q105.876 955.302 107.936 955.302 Q113.26 955.302 116.362 957.733 Q119.464 960.14 119.464 964.26 Q119.464 967.131 117.82 969.121 Q116.177 971.089 113.145 971.853 Z" fill="#000000" fill-rule="nonzero" fill-opacity="1" /><path clip-path="url(#clip260)" d="M62.9365 687.55 Q59.3254 687.55 57.4967 691.115 Q55.6912 694.656 55.6912 701.786 Q55.6912 708.892 57.4967 712.457 Q59.3254 715.999 62.9365 715.999 Q66.5707 715.999 68.3763 712.457 Q70.205 708.892 70.205 701.786 Q70.205 694.656 68.3763 691.115 Q66.5707 687.55 62.9365 687.55 M62.9365 683.846 Q68.7467 683.846 71.8022 688.453 Q74.8809 693.036 74.8809 701.786 Q74.8809 710.513 71.8022 715.119 Q68.7467 719.703 62.9365 719.703 Q57.1264 719.703 54.0477 715.119 Q50.9921 710.513 50.9921 701.786 Q50.9921 693.036 54.0477 688.453 Q57.1264 683.846 62.9365 683.846 Z" fill="#000000" fill-rule="nonzero" fill-opacity="1" /><path clip-path="url(#clip260)" d="M83.0984 713.152 L87.9827 713.152 L87.9827 719.031 L83.0984 719.031 L83.0984 713.152 Z" fill="#000000" fill-rule="nonzero" fill-opacity="1" /><path clip-path="url(#clip260)" d="M108.746 699.888 Q105.598 699.888 103.746 702.041 Q101.918 704.193 101.918 707.943 Q101.918 711.67 103.746 713.846 Q105.598 715.999 108.746 715.999 Q111.895 715.999 113.723 713.846 Q115.575 711.67 115.575 707.943 Q115.575 704.193 113.723 702.041 Q111.895 699.888 108.746 699.888 M118.029 685.235 L118.029 689.494 Q116.27 688.661 114.464 688.221 Q112.682 687.781 110.922 687.781 Q106.293 687.781 103.839 690.906 Q101.409 694.031 101.061 700.351 Q102.427 698.337 104.487 697.272 Q106.547 696.184 109.024 696.184 Q114.233 696.184 117.242 699.355 Q120.274 702.504 120.274 707.943 Q120.274 713.267 117.126 716.485 Q113.978 719.703 108.746 719.703 Q102.751 719.703 99.5798 715.119 Q96.4085 710.513 96.4085 701.786 Q96.4085 693.592 100.297 688.731 Q104.186 683.846 110.737 683.846 Q112.496 683.846 114.279 684.194 Q116.084 684.541 118.029 685.235 Z" fill="#000000" fill-rule="nonzero" fill-opacity="1" /><path clip-path="url(#clip260)" d="M63.2837 416.094 Q59.6726 416.094 57.8439 419.659 Q56.0384 423.201 56.0384 430.33 Q56.0384 437.437 57.8439 441.001 Q59.6726 444.543 63.2837 444.543 Q66.918 444.543 68.7235 441.001 Q70.5522 437.437 70.5522 430.33 Q70.5522 423.201 68.7235 419.659 Q66.918 416.094 63.2837 416.094 M63.2837 412.391 Q69.0939 412.391 72.1494 416.997 Q75.2281 421.58 75.2281 430.33 Q75.2281 439.057 72.1494 443.664 Q69.0939 448.247 63.2837 448.247 Q57.4736 448.247 54.3949 443.664 Q51.3393 439.057 51.3393 430.33 Q51.3393 421.58 54.3949 416.997 Q57.4736 412.391 63.2837 412.391 Z" fill="#000000" fill-rule="nonzero" fill-opacity="1" /><path clip-path="url(#clip260)" d="M83.4457 441.696 L88.3299 441.696 L88.3299 447.576 L83.4457 447.576 L83.4457 441.696 Z" fill="#000000" fill-rule="nonzero" fill-opacity="1" /><path clip-path="url(#clip260)" d="M98.6539 446.858 L98.6539 442.599 Q100.413 443.432 102.219 443.872 Q104.024 444.312 105.76 444.312 Q110.39 444.312 112.82 441.21 Q115.274 438.085 115.621 431.742 Q114.279 433.733 112.219 434.798 Q110.158 435.863 107.658 435.863 Q102.473 435.863 99.4409 432.738 Q96.4317 429.59 96.4317 424.15 Q96.4317 418.826 99.5798 415.608 Q102.728 412.391 107.959 412.391 Q113.955 412.391 117.103 416.997 Q120.274 421.58 120.274 430.33 Q120.274 438.501 116.385 443.386 Q112.52 448.247 105.969 448.247 Q104.209 448.247 102.404 447.9 Q100.598 447.552 98.6539 446.858 M107.959 432.205 Q111.108 432.205 112.936 430.052 Q114.788 427.9 114.788 424.15 Q114.788 420.423 112.936 418.27 Q111.108 416.094 107.959 416.094 Q104.811 416.094 102.959 418.27 Q101.131 420.423 101.131 424.15 Q101.131 427.9 102.959 430.052 Q104.811 432.205 107.959 432.205 Z" fill="#000000" fill-rule="nonzero" fill-opacity="1" /><path clip-path="url(#clip260)" d="M55.506 172.185 L63.1448 172.185 L63.1448 145.819 L54.8347 147.486 L54.8347 143.226 L63.0985 141.56 L67.7744 141.56 L67.7744 172.185 L75.4133 172.185 L75.4133 176.12 L55.506 176.12 L55.506 172.185 Z" fill="#000000" fill-rule="nonzero" fill-opacity="1" /><path clip-path="url(#clip260)" d="M84.8577 170.24 L89.7419 170.24 L89.7419 176.12 L84.8577 176.12 L84.8577 170.24 Z" fill="#000000" fill-rule="nonzero" fill-opacity="1" /><path clip-path="url(#clip260)" d="M103.955 172.185 L120.274 172.185 L120.274 176.12 L98.3298 176.12 L98.3298 172.185 Q100.992 169.43 105.575 164.8 Q110.182 160.148 111.362 158.805 Q113.608 156.282 114.487 154.546 Q115.39 152.787 115.39 151.097 Q115.39 148.342 113.445 146.606 Q111.524 144.87 108.422 144.87 Q106.223 144.87 103.77 145.634 Q101.339 146.398 98.5613 147.949 L98.5613 143.226 Q101.385 142.092 103.839 141.513 Q106.293 140.935 108.33 140.935 Q113.7 140.935 116.895 143.62 Q120.089 146.305 120.089 150.796 Q120.089 152.925 119.279 154.847 Q118.492 156.745 116.385 159.337 Q115.807 160.009 112.705 163.226 Q109.603 166.421 103.955 172.185 Z" fill="#000000" fill-rule="nonzero" fill-opacity="1" /><polyline clip-path="url(#clip262)" style="stroke:#009af9; stroke-linecap:round; stroke-linejoin:round; stroke-width:16; stroke-opacity:1; fill:none" stroke-dasharray="8, 16" points="218.439,1109.87 228.852,1093.35 239.264,1078.93 249.677,1068.73 260.09,1064.31 270.503,1066.44 280.916,1075.12 291.329,1089.8 301.741,1109.67 312.154,1133.86 322.567,1161.48 332.98,1191.63 343.393,1223.38 353.805,1255.75 364.218,1287.82 374.631,1318.75 385.044,1347.71 395.457,1373.71 405.87,1395.52 416.282,1411.91 426.695,1422.13 437.108,1426.22 447.521,1424.85 457.934,1418.51 468.347,1407.07 478.759,1390.07 489.172,1367.62 499.585,1340.77 509.998,1311.01 520.411,1279.55 530.824,1247.17 541.236,1214.55 551.649,1182.68 562.062,1153.22 572.475,1127.97 582.888,1107.09 593.301,1088.1 603.713,1068.97 614.126,1053.07 624.539,1048.43 634.952,1060.08 645.365,1084 655.777,1109.7 666.19,1129.81 676.603,1146.41 687.016,1166.57 697.429,1194.07 707.842,1227.27 718.254,1262.68 728.667,1297.4 739.08,1329.3 749.493,1357.05 759.906,1380.24 770.319,1398.93 780.731,1413.02 791.144,1422.15 801.557,1425.9 811.97,1424.02 822.383,1416.39 832.796,1402.96 843.208,1383.82 853.621,1359.4 864.034,1330.79 874.447,1299.75 884.86,1268.37 895.273,1238.31 905.685,1210.24 916.098,1183.58 926.511,1155.78 936.924,1120.94 947.337,1070.52 957.749,1009.24 968.162,988.426 978.575,1054.6 988.988,1145.36 999.401,1187.83 1009.81,1153.43 1020.23,1103.77 1030.64,1143.22 1041.05,1227.4 1051.46,1246.94 1061.88,1220.69 1072.29,1200.18 1082.7,1197.36 1093.12,1242.13 1103.53,1320.54 1113.94,1390.42 1124.35,1433.96 1134.77,1445.72 1145.18,1429.55 1155.59,1404.3 1166.01,1388.39 1176.42,1388.86 1186.83,1401.33 1197.24,1417.3 1207.66,1428.68 1218.07,1421.45 1228.48,1365.53 1238.9,1220.92 1249.31,971.57 1259.72,668.588 1270.13,418.77 1280.55,292.125 1290.96,268.781 1301.37,294.008 1311.79,332.545 1322.2,367.259 1332.61,385.287 1343.02,378.567 1353.44,349.273 1363.85,300.377 1374.26,239.486 1384.68,210.253 1395.09,256.933 1405.5,367.232 1415.91,435.218 1426.33,427.042 1436.74,406.924 1447.15,374.373 1457.57,325.779 1467.98,292.027 1478.39,284.844 1488.8,285.264 1499.22,334.179 1509.63,421.163 1520.04,403.001 1530.45,350.561 1540.87,351.238 1551.28,369.977 1561.69,386.409 1572.11,397.684 1582.52,376.99 1592.93,319.354 1603.34,263.244 1613.76,246.246 1624.17,266.039 1634.58,304.735 1645,348.899 1655.41,388.385 1665.82,415.485 1676.23,425.977 1686.65,418.201 1697.06,391.395 1707.47,346.35 1717.89,289.613 1728.3,237.981 1738.71,214.668 1749.12,233.899 1759.54,289.606 1769.95,362.125 1780.36,429.824 1790.78,473.137 1801.19,478.132 1811.6,442.693 1822.01,378.165 1832.43,303.951 1842.84,239.848 1853.25,200.76 1863.67,195.08 1874.08,225.601 1884.49,290.023 1894.9,378.088 1905.32,466.928 1915.73,523.633 1926.14,521.084 1936.56,456.287 1946.97,352.834 1957.38,246.12 1967.79,167.734 1978.21,139.498 1988.62,171.454 1999.03,257.176 2009.45,371.139 2019.86,475.782 2030.27,536.745 2040.68,536.785 2051.1,480.141 2061.51,387.225 2071.92,285.389 2082.33,200.519 2092.75,151.386 2103.16,148.023 2113.57,193.614 2123.99,285.322 2134.4,408.355 2144.81,526.576 2155.22,587.947 2165.64,556.804 2176.05,445.745 2186.46,307.561 2196.88,196.577 2207.29,141.215 2217.7,142.929 2228.11,187.798 2238.53,257.376 2248.94,335.168 2259.35,409.447 2269.77,473.695 2280.18,525.668 2290.59,565.973 "/>
<polyline clip-path="url(#clip262)" style="stroke:#e26f46; stroke-linecap:round; stroke-linejoin:round; stroke-width:4; stroke-opacity:1; fill:none" points="218.439,1108.76 228.852,1089.47 239.264,1075.26 249.677,1066.57 260.09,1063.69 270.503,1066.72 280.916,1075.56 291.329,1089.92 301.741,1109.33 312.154,1133.15 322.567,1160.61 332.98,1190.82 343.393,1222.79 353.805,1255.46 364.218,1287.79 374.631,1318.71 385.044,1347.21 395.457,1372.36 405.87,1393.35 416.282,1409.49 426.695,1420.24 437.108,1425.26 447.521,1424.39 457.934,1417.66 468.347,1405.28 478.759,1387.65 489.172,1365.36 499.585,1339.13 509.998,1309.82 520.411,1278.38 530.824,1245.84 541.236,1213.26 551.649,1181.71 562.062,1152.21 572.475,1125.73 582.888,1103.13 593.301,1085.15 603.713,1072.37 614.126,1065.22 624.539,1063.93 634.952,1068.53 645.365,1078.88 655.777,1094.65 666.19,1115.31 676.603,1140.19 687.016,1168.48 697.429,1199.26 707.842,1231.52 718.254,1264.2 728.667,1296.26 739.08,1326.62 749.493,1354.31 759.906,1378.43 770.319,1398.18 780.731,1412.91 791.144,1422.16 801.557,1425.61 811.97,1423.16 822.383,1414.88 832.796,1401.05 843.208,1382.11 853.621,1358.69 864.034,1331.54 874.447,1301.56 884.86,1269.72 895.273,1237.07 905.685,1204.66 916.098,1173.56 926.511,1144.78 936.924,1119.26 947.337,1097.83 957.749,1081.19 968.162,1069.89 978.575,1064.29 988.988,1064.58 999.401,1070.75 1009.81,1082.59 1020.23,1099.73 1030.64,1121.59 1041.05,1147.47 1051.46,1176.52 1061.88,1207.8 1072.29,1240.28 1082.7,1272.9 1093.12,1304.6 1103.53,1334.34 1113.94,1361.16 1124.35,1384.18 1134.77,1402.64 1145.18,1415.94 1155.59,1423.66 1166.01,1425.53 1176.42,1421.5 1186.83,1411.7 1197.24,1396.45 1207.66,1376.24 1218.07,1351.74 1228.48,1323.75 1238.9,1293.17 1249.31,1261.01 1259.72,338.496 1270.13,337.001 1280.55,338.362 1290.96,342.893 1301.37,349.205 1311.79,354.632 1322.2,356.238 1332.61,352.063 1343.02,342.11 1353.44,328.691 1363.85,315.923 1374.26,308.464 1384.68,309.895 1395.09,321.275 1405.5,340.418 1415.91,362.204 1426.33,379.944 1436.74,387.428 1447.15,381.022 1457.57,361.146 1467.98,332.557 1478.39,303.258 1488.8,282.26 1499.22,276.82 1509.63,290.007 1520.04,319.386 1530.45,357.328 1540.87,392.97 1551.28,415.324 1561.69,416.648 1572.11,395.052 1582.52,355.473 1592.93,308.623 1603.34,268.097 1613.76,246.433 1624.17,251.25 1634.58,282.658 1645,332.798 1655.41,387.765 1665.82,431.458 1676.23,450.295 1686.65,437.414 1697.06,395.054 1707.47,334.342 1717.89,272.386 1728.3,227.462 1738.71,213.627 1749.12,236.345 1759.54,290.494 1769.95,361.43 1780.36,428.935 1790.78,472.976 1801.19,479.647 1811.6,445.522 1822.01,379.074 1832.43,298.625 1842.84,227.3 1853.25,186.382 1863.67,188.969 1874.08,235.825 1884.49,314.728 1894.9,403.625 1905.32,476.789 1915.73,512.266 1926.14,498.451 1936.56,437.827 1946.97,346.678 1957.38,250.74 1967.79,177.932 1978.21,150.236 1988.62,177.076 1999.03,252.183 2009.45,354.991 2019.86,456.246 2030.27,526.333 2040.68,543.938 2051.1,502.503 2061.51,412.549 2071.92,299.045 2082.33,194.49 2092.75,129.604 2103.16,124.312 2113.57,181.643 2123.99,286.433 2134.4,409.302 2144.81,514.888 2155.22,572.022 2165.64,562.925 2176.05,488.708 2186.46,369.482 2196.88,238.932 2207.29,134.801 2217.7,87.9763 2228.11,113.343 2238.53,205.088 2248.94,337.952 2259.35,474.168 2269.77,574.196 2280.18,608.199 2290.59,564.931 "/>
<path clip-path="url(#clip260)" d="M229.49 250.738 L675.966 250.738 L675.966 95.2176 L229.49 95.2176  Z" fill="#ffffff" fill-rule="evenodd" fill-opacity="1"/>
<polyline clip-path="url(#clip260)" style="stroke:#000000; stroke-linecap:round; stroke-linejoin:round; stroke-width:4; stroke-opacity:1; fill:none" points="229.49,250.738 675.966,250.738 675.966,95.2176 229.49,95.2176 229.49,250.738 "/>
<polyline clip-path="url(#clip260)" style="stroke:#009af9; stroke-linecap:round; stroke-linejoin:round; stroke-width:16; stroke-opacity:1; fill:none" stroke-dasharray="8, 16" points="253.896,147.058 400.328,147.058 "/>
<path clip-path="url(#clip260)" d="M429.409 133.62 L429.409 146.606 L435.289 146.606 Q438.552 146.606 440.335 144.916 Q442.117 143.227 442.117 140.102 Q442.117 137 440.335 135.31 Q438.552 133.62 435.289 133.62 L429.409 133.62 M424.733 129.778 L435.289 129.778 Q441.099 129.778 444.062 132.416 Q447.048 135.032 447.048 140.102 Q447.048 145.217 444.062 147.833 Q441.099 150.449 435.289 150.449 L429.409 150.449 L429.409 164.338 L424.733 164.338 L424.733 129.778 Z" fill="#000000" fill-rule="nonzero" fill-opacity="1" /><path clip-path="url(#clip260)" d="M467.325 142.393 Q466.608 141.977 465.751 141.791 Q464.918 141.583 463.899 141.583 Q460.288 141.583 458.344 143.944 Q456.423 146.282 456.423 150.68 L456.423 164.338 L452.14 164.338 L452.14 138.412 L456.423 138.412 L456.423 142.44 Q457.765 140.078 459.918 138.944 Q462.071 137.787 465.149 137.787 Q465.589 137.787 466.122 137.856 Q466.654 137.903 467.302 138.018 L467.325 142.393 Z" fill="#000000" fill-rule="nonzero" fill-opacity="1" /><path clip-path="url(#clip260)" d="M492.927 150.31 L492.927 152.393 L473.344 152.393 Q473.622 156.791 475.983 159.106 Q478.367 161.398 482.603 161.398 Q485.057 161.398 487.348 160.796 Q489.663 160.194 491.932 158.99 L491.932 163.018 Q489.64 163.99 487.233 164.5 Q484.825 165.009 482.348 165.009 Q476.145 165.009 472.511 161.398 Q468.899 157.787 468.899 151.629 Q468.899 145.264 472.325 141.537 Q475.774 137.787 481.608 137.787 Q486.839 137.787 489.872 141.166 Q492.927 144.523 492.927 150.31 M488.668 149.06 Q488.622 145.565 486.7 143.481 Q484.802 141.398 481.654 141.398 Q478.089 141.398 475.936 143.412 Q473.807 145.426 473.483 149.083 L488.668 149.06 Z" fill="#000000" fill-rule="nonzero" fill-opacity="1" /><path clip-path="url(#clip260)" d="M516.978 142.347 L516.978 128.319 L521.237 128.319 L521.237 164.338 L516.978 164.338 L516.978 160.449 Q515.635 162.763 513.575 163.898 Q511.538 165.009 508.668 165.009 Q503.969 165.009 501.006 161.259 Q498.066 157.509 498.066 151.398 Q498.066 145.287 501.006 141.537 Q503.969 137.787 508.668 137.787 Q511.538 137.787 513.575 138.921 Q515.635 140.032 516.978 142.347 M502.464 151.398 Q502.464 156.097 504.385 158.782 Q506.33 161.444 509.709 161.444 Q513.089 161.444 515.033 158.782 Q516.978 156.097 516.978 151.398 Q516.978 146.699 515.033 144.037 Q513.089 141.352 509.709 141.352 Q506.33 141.352 504.385 144.037 Q502.464 146.699 502.464 151.398 Z" fill="#000000" fill-rule="nonzero" fill-opacity="1" /><path clip-path="url(#clip260)" d="M530.01 138.412 L534.269 138.412 L534.269 164.338 L530.01 164.338 L530.01 138.412 M530.01 128.319 L534.269 128.319 L534.269 133.713 L530.01 133.713 L530.01 128.319 Z" fill="#000000" fill-rule="nonzero" fill-opacity="1" /><path clip-path="url(#clip260)" d="M561.839 139.407 L561.839 143.389 Q560.033 142.393 558.205 141.907 Q556.399 141.398 554.547 141.398 Q550.404 141.398 548.112 144.037 Q545.82 146.652 545.82 151.398 Q545.82 156.143 548.112 158.782 Q550.404 161.398 554.547 161.398 Q556.399 161.398 558.205 160.912 Q560.033 160.402 561.839 159.407 L561.839 163.342 Q560.056 164.176 558.135 164.592 Q556.237 165.009 554.084 165.009 Q548.228 165.009 544.779 161.328 Q541.33 157.648 541.33 151.398 Q541.33 145.055 544.802 141.421 Q548.297 137.787 554.362 137.787 Q556.33 137.787 558.205 138.203 Q560.08 138.597 561.839 139.407 Z" fill="#000000" fill-rule="nonzero" fill-opacity="1" /><path clip-path="url(#clip260)" d="M573.459 131.051 L573.459 138.412 L582.232 138.412 L582.232 141.722 L573.459 141.722 L573.459 155.796 Q573.459 158.967 574.316 159.87 Q575.195 160.773 577.857 160.773 L582.232 160.773 L582.232 164.338 L577.857 164.338 Q572.927 164.338 571.052 162.509 Q569.177 160.657 569.177 155.796 L569.177 141.722 L566.052 141.722 L566.052 138.412 L569.177 138.412 L569.177 131.051 L573.459 131.051 Z" fill="#000000" fill-rule="nonzero" fill-opacity="1" /><path clip-path="url(#clip260)" d="M587.834 138.412 L592.093 138.412 L592.093 164.338 L587.834 164.338 L587.834 138.412 M587.834 128.319 L592.093 128.319 L592.093 133.713 L587.834 133.713 L587.834 128.319 Z" fill="#000000" fill-rule="nonzero" fill-opacity="1" /><path clip-path="url(#clip260)" d="M611.051 141.398 Q607.626 141.398 605.635 144.083 Q603.644 146.745 603.644 151.398 Q603.644 156.051 605.612 158.736 Q607.602 161.398 611.051 161.398 Q614.454 161.398 616.445 158.713 Q618.436 156.027 618.436 151.398 Q618.436 146.791 616.445 144.106 Q614.454 141.398 611.051 141.398 M611.051 137.787 Q616.607 137.787 619.778 141.398 Q622.95 145.009 622.95 151.398 Q622.95 157.764 619.778 161.398 Q616.607 165.009 611.051 165.009 Q605.473 165.009 602.302 161.398 Q599.153 157.764 599.153 151.398 Q599.153 145.009 602.302 141.398 Q605.473 137.787 611.051 137.787 Z" fill="#000000" fill-rule="nonzero" fill-opacity="1" /><path clip-path="url(#clip260)" d="M651.561 148.689 L651.561 164.338 L647.301 164.338 L647.301 148.828 Q647.301 145.148 645.866 143.319 Q644.431 141.49 641.561 141.49 Q638.112 141.49 636.121 143.69 Q634.13 145.889 634.13 149.685 L634.13 164.338 L629.848 164.338 L629.848 138.412 L634.13 138.412 L634.13 142.44 Q635.658 140.102 637.718 138.944 Q639.801 137.787 642.51 137.787 Q646.977 137.787 649.269 140.565 Q651.561 143.319 651.561 148.689 Z" fill="#000000" fill-rule="nonzero" fill-opacity="1" /><polyline clip-path="url(#clip260)" style="stroke:#e26f46; stroke-linecap:round; stroke-linejoin:round; stroke-width:4; stroke-opacity:1; fill:none" points="253.896,198.898 400.328,198.898 "/>
<path clip-path="url(#clip260)" d="M424.733 181.618 L446.585 181.618 L446.585 185.553 L429.409 185.553 L429.409 195.784 L445.867 195.784 L445.867 199.719 L429.409 199.719 L429.409 212.242 L447.001 212.242 L447.001 216.178 L424.733 216.178 L424.733 181.618 Z" fill="#000000" fill-rule="nonzero" fill-opacity="1" /><path clip-path="url(#clip260)" d="M476.052 190.252 L466.677 202.867 L476.538 216.178 L471.515 216.178 L463.969 205.992 L456.423 216.178 L451.4 216.178 L461.469 202.613 L452.256 190.252 L457.279 190.252 L464.154 199.488 L471.029 190.252 L476.052 190.252 Z" fill="#000000" fill-rule="nonzero" fill-opacity="1" /><path clip-path="url(#clip260)" d="M494.339 203.145 Q489.177 203.145 487.186 204.326 Q485.196 205.506 485.196 208.354 Q485.196 210.622 486.677 211.965 Q488.182 213.284 490.751 213.284 Q494.293 213.284 496.422 210.784 Q498.575 208.261 498.575 204.094 L498.575 203.145 L494.339 203.145 M502.834 201.386 L502.834 216.178 L498.575 216.178 L498.575 212.242 Q497.117 214.603 494.941 215.738 Q492.765 216.849 489.617 216.849 Q485.635 216.849 483.274 214.627 Q480.936 212.381 480.936 208.631 Q480.936 204.256 483.853 202.034 Q486.793 199.812 492.603 199.812 L498.575 199.812 L498.575 199.395 Q498.575 196.455 496.631 194.858 Q494.71 193.238 491.214 193.238 Q488.992 193.238 486.885 193.77 Q484.779 194.303 482.835 195.367 L482.835 191.432 Q485.173 190.53 487.372 190.09 Q489.571 189.627 491.654 189.627 Q497.279 189.627 500.057 192.543 Q502.834 195.46 502.834 201.386 Z" fill="#000000" fill-rule="nonzero" fill-opacity="1" /><path clip-path="url(#clip260)" d="M530.265 191.247 L530.265 195.229 Q528.459 194.233 526.631 193.747 Q524.825 193.238 522.973 193.238 Q518.83 193.238 516.538 195.877 Q514.246 198.492 514.246 203.238 Q514.246 207.983 516.538 210.622 Q518.83 213.238 522.973 213.238 Q524.825 213.238 526.631 212.752 Q528.459 212.242 530.265 211.247 L530.265 215.182 Q528.482 216.016 526.561 216.432 Q524.663 216.849 522.51 216.849 Q516.654 216.849 513.205 213.168 Q509.756 209.488 509.756 203.238 Q509.756 196.895 513.228 193.261 Q516.723 189.627 522.788 189.627 Q524.756 189.627 526.631 190.043 Q528.506 190.437 530.265 191.247 Z" fill="#000000" fill-rule="nonzero" fill-opacity="1" /><path clip-path="url(#clip260)" d="M541.885 182.891 L541.885 190.252 L550.658 190.252 L550.658 193.562 L541.885 193.562 L541.885 207.636 Q541.885 210.807 542.742 211.71 Q543.621 212.613 546.283 212.613 L550.658 212.613 L550.658 216.178 L546.283 216.178 Q541.353 216.178 539.478 214.349 Q537.603 212.497 537.603 207.636 L537.603 193.562 L534.478 193.562 L534.478 190.252 L537.603 190.252 L537.603 182.891 L541.885 182.891 Z" fill="#000000" fill-rule="nonzero" fill-opacity="1" /></svg>
