<?xml version="1.0" encoding="utf-8"?>
<svg xmlns="http://www.w3.org/2000/svg" xmlns:xlink="http://www.w3.org/1999/xlink" width="600" height="400" viewBox="0 0 2400 1600">
<defs>
  <clipPath id="clip150">
    <rect x="0" y="0" width="2400" height="1600"/>
  </clipPath>
</defs>
<path clip-path="url(#clip150)" d="M0 1600 L2400 1600 L2400 0 L0 0  Z" fill="#ffffff" fill-rule="evenodd" fill-opacity="1"/>
<defs>
  <clipPath id="clip151">
    <rect x="480" y="0" width="1681" height="1600"/>
  </clipPath>
</defs>
<path clip-path="url(#clip150)" d="M156.274 1486.45 L2352.76 1486.45 L2352.76 47.2441 L156.274 47.2441  Z" fill="#ffffff" fill-rule="evenodd" fill-opacity="1"/>
<defs>
  <clipPath id="clip152">
    <rect x="156" y="47" width="2197" height="1440"/>
  </clipPath>
</defs>
<polyline clip-path="url(#clip152)" style="stroke:#000000; stroke-linecap:round; stroke-linejoin:round; stroke-width:2; stroke-opacity:0.1; fill:none" points="218.439,1486.45 218.439,47.2441 "/>
<polyline clip-path="url(#clip152)" style="stroke:#000000; stroke-linecap:round; stroke-linejoin:round; stroke-width:2; stroke-opacity:0.1; fill:none" points="736.477,1486.45 736.477,47.2441 "/>
<polyline clip-path="url(#clip152)" style="stroke:#000000; stroke-linecap:round; stroke-linejoin:round; stroke-width:2; stroke-opacity:0.1; fill:none" points="1254.52,1486.45 1254.52,47.2441 "/>
<polyline clip-path="url(#clip152)" style="stroke:#000000; stroke-linecap:round; stroke-linejoin:round; stroke-width:2; stroke-opacity:0.1; fill:none" points="1772.55,1486.45 1772.55,47.2441 "/>
<polyline clip-path="url(#clip152)" style="stroke:#000000; stroke-linecap:round; stroke-linejoin:round; stroke-width:2; stroke-opacity:0.1; fill:none" points="2290.59,1486.45 2290.59,47.2441 "/>
<polyline clip-path="url(#clip150)" style="stroke:#000000; stroke-linecap:round; stroke-linejoin:round; stroke-width:4; stroke-opacity:1; fill:none" points="156.274,1486.45 2352.76,1486.45 "/>
<polyline clip-path="url(#clip150)" style="stroke:#000000; stroke-linecap:round; stroke-linejoin:round; stroke-width:4; stroke-opacity:1; fill:none" points="218.439,1486.45 218.439,1467.55 "/>
<polyline clip-path="url(#clip150)" style="stroke:#000000; stroke-linecap:round; stroke-linejoin:round; stroke-width:4; stroke-opacity:1; fill:none" points="736.477,1486.45 736.477,1467.55 "/>
<polyline clip-path="url(#clip150)" style="stroke:#000000; stroke-linecap:round; stroke-linejoin:round; stroke-width:4; stroke-opacity:1; fill:none" points="1254.52,1486.45 1254.52,1467.55 "/>
<polyline clip-path="url(#clip150)" style="stroke:#000000; stroke-linecap:round; stroke-linejoin:round; stroke-width:4; stroke-opacity:1; fill:none" points="1772.55,1486.45 1772.55,1467.55 "/>
<polyline clip-path="url(#clip150)" style="stroke:#000000; stroke-linecap:round; stroke-linejoin:round; stroke-width:4; stroke-opacity:1; fill:none" points="2290.59,1486.45 2290.59,1467.55 "/>
<path clip-path="url(#clip150)" d="M164.967 1532.02 L194.643 1532.02 L194.643 1535.95 L164.967 1535.95 L164.967 1532.02 Z" fill="#000000" fill-rule="nonzero" fill-opacity="1" /><path clip-path="url(#clip150)" d="M205.545 1544.91 L213.184 1544.91 L213.184 1518.55 L204.874 1520.21 L204.874 1515.95 L213.138 1514.29 L217.814 1514.29 L217.814 1544.91 L225.453 1544.91 L225.453 1548.85 L205.545 1548.85 L205.545 1544.91 Z" fill="#000000" fill-rule="nonzero" fill-opacity="1" /><path clip-path="url(#clip150)" d="M234.897 1542.97 L239.781 1542.97 L239.781 1548.85 L234.897 1548.85 L234.897 1542.97 Z" fill="#000000" fill-rule="nonzero" fill-opacity="1" /><path clip-path="url(#clip150)" d="M259.966 1517.37 Q256.355 1517.37 254.527 1520.93 Q252.721 1524.47 252.721 1531.6 Q252.721 1538.71 254.527 1542.27 Q256.355 1545.82 259.966 1545.82 Q263.601 1545.82 265.406 1542.27 Q267.235 1538.71 267.235 1531.6 Q267.235 1524.47 265.406 1520.93 Q263.601 1517.37 259.966 1517.37 M259.966 1513.66 Q265.776 1513.66 268.832 1518.27 Q271.911 1522.85 271.911 1531.6 Q271.911 1540.33 268.832 1544.94 Q265.776 1549.52 259.966 1549.52 Q254.156 1549.52 251.077 1544.94 Q248.022 1540.33 248.022 1531.6 Q248.022 1522.85 251.077 1518.27 Q254.156 1513.66 259.966 1513.66 Z" fill="#000000" fill-rule="nonzero" fill-opacity="1" /><path clip-path="url(#clip150)" d="M683.503 1532.02 L713.178 1532.02 L713.178 1535.95 L683.503 1535.95 L683.503 1532.02 Z" fill="#000000" fill-rule="nonzero" fill-opacity="1" /><path clip-path="url(#clip150)" d="M733.271 1517.37 Q729.66 1517.37 727.831 1520.93 Q726.026 1524.47 726.026 1531.6 Q726.026 1538.71 727.831 1542.27 Q729.66 1545.82 733.271 1545.82 Q736.905 1545.82 738.711 1542.27 Q740.539 1538.71 740.539 1531.6 Q740.539 1524.47 738.711 1520.93 Q736.905 1517.37 733.271 1517.37 M733.271 1513.66 Q739.081 1513.66 742.137 1518.27 Q745.215 1522.85 745.215 1531.6 Q745.215 1540.33 742.137 1544.94 Q739.081 1549.52 733.271 1549.52 Q727.461 1549.52 724.382 1544.94 Q721.327 1540.33 721.327 1531.6 Q721.327 1522.85 724.382 1518.27 Q727.461 1513.66 733.271 1513.66 Z" fill="#000000" fill-rule="nonzero" fill-opacity="1" /><path clip-path="url(#clip150)" d="M753.433 1542.97 L758.317 1542.97 L758.317 1548.85 L753.433 1548.85 L753.433 1542.97 Z" fill="#000000" fill-rule="nonzero" fill-opacity="1" /><path clip-path="url(#clip150)" d="M768.548 1514.29 L786.905 1514.29 L786.905 1518.22 L772.831 1518.22 L772.831 1526.7 Q773.849 1526.35 774.868 1526.19 Q775.886 1526 776.905 1526 Q782.692 1526 786.072 1529.17 Q789.451 1532.34 789.451 1537.76 Q789.451 1543.34 785.979 1546.44 Q782.507 1549.52 776.187 1549.52 Q774.011 1549.52 771.743 1549.15 Q769.498 1548.78 767.09 1548.04 L767.09 1543.34 Q769.173 1544.47 771.396 1545.03 Q773.618 1545.58 776.095 1545.58 Q780.099 1545.58 782.437 1543.48 Q784.775 1541.37 784.775 1537.76 Q784.775 1534.15 782.437 1532.04 Q780.099 1529.94 776.095 1529.94 Q774.22 1529.94 772.345 1530.35 Q770.493 1530.77 768.548 1531.65 L768.548 1514.29 Z" fill="#000000" fill-rule="nonzero" fill-opacity="1" /><path clip-path="url(#clip150)" d="M1231.9 1517.37 Q1228.29 1517.37 1226.46 1520.93 Q1224.65 1524.47 1224.65 1531.6 Q1224.65 1538.71 1226.46 1542.27 Q1228.29 1545.82 1231.9 1545.82 Q1235.53 1545.82 1237.34 1542.27 Q1239.17 1538.71 1239.17 1531.6 Q1239.17 1524.47 1237.34 1520.93 Q1235.53 1517.37 1231.9 1517.37 M1231.9 1513.66 Q1237.71 1513.66 1240.77 1518.27 Q1243.84 1522.85 1243.84 1531.6 Q1243.84 1540.33 1240.77 1544.94 Q1237.71 1549.52 1231.9 1549.52 Q1226.09 1549.52 1223.01 1544.94 Q1219.96 1540.33 1219.96 1531.6 Q1219.96 1522.85 1223.01 1518.27 Q1226.09 1513.66 1231.9 1513.66 Z" fill="#000000" fill-rule="nonzero" fill-opacity="1" /><path clip-path="url(#clip150)" d="M1252.06 1542.97 L1256.95 1542.97 L1256.95 1548.85 L1252.06 1548.85 L1252.06 1542.97 Z" fill="#000000" fill-rule="nonzero" fill-opacity="1" /><path clip-path="url(#clip150)" d="M1277.13 1517.37 Q1273.52 1517.37 1271.69 1520.93 Q1269.89 1524.47 1269.89 1531.6 Q1269.89 1538.71 1271.69 1542.27 Q1273.52 1545.82 1277.13 1545.82 Q1280.76 1545.82 1282.57 1542.27 Q1284.4 1538.71 1284.4 1531.6 Q1284.4 1524.47 1282.57 1520.93 Q1280.76 1517.37 1277.13 1517.37 M1277.13 1513.66 Q1282.94 1513.66 1286 1518.27 Q1289.08 1522.85 1289.08 1531.6 Q1289.08 1540.33 1286 1544.94 Q1282.94 1549.52 1277.13 1549.52 Q1271.32 1549.52 1268.24 1544.94 Q1265.19 1540.33 1265.19 1531.6 Q1265.19 1522.85 1268.24 1518.27 Q1271.32 1513.66 1277.13 1513.66 Z" fill="#000000" fill-rule="nonzero" fill-opacity="1" /><path clip-path="url(#clip150)" d="M1750.44 1517.37 Q1746.82 1517.37 1745 1520.93 Q1743.19 1524.47 1743.19 1531.6 Q1743.19 1538.71 1745 1542.27 Q1746.82 1545.82 1750.44 1545.82 Q1754.07 1545.82 1755.88 1542.27 Q1757.7 1538.71 1757.7 1531.6 Q1757.7 1524.47 1755.88 1520.93 Q1754.07 1517.37 1750.44 1517.37 M1750.44 1513.66 Q1756.25 1513.66 1759.3 1518.27 Q1762.38 1522.85 1762.38 1531.6 Q1762.38 1540.33 1759.3 1544.94 Q1756.25 1549.52 1750.44 1549.52 Q1744.63 1549.52 1741.55 1544.94 Q1738.49 1540.33 1738.49 1531.6 Q1738.49 1522.85 1741.55 1518.27 Q1744.63 1513.66 1750.44 1513.66 Z" fill="#000000" fill-rule="nonzero" fill-opacity="1" /><path clip-path="url(#clip150)" d="M1770.6 1542.97 L1775.48 1542.97 L1775.48 1548.85 L1770.6 1548.85 L1770.6 1542.97 Z" fill="#000000" fill-rule="nonzero" fill-opacity="1" /><path clip-path="url(#clip150)" d="M1785.71 1514.29 L1804.07 1514.29 L1804.07 1518.22 L1790 1518.22 L1790 1526.7 Q1791.01 1526.35 1792.03 1526.19 Q1793.05 1526 1794.07 1526 Q1799.86 1526 1803.24 1529.17 Q1806.62 1532.34 1806.62 1537.76 Q1806.62 1543.34 1803.14 1546.44 Q1799.67 1549.52 1793.35 1549.52 Q1791.18 1549.52 1788.91 1549.15 Q1786.66 1548.78 1784.25 1548.04 L1784.25 1543.34 Q1786.34 1544.47 1788.56 1545.03 Q1790.78 1545.58 1793.26 1545.58 Q1797.26 1545.58 1799.6 1543.48 Q1801.94 1541.37 1801.94 1537.76 Q1801.94 1534.15 1799.6 1532.04 Q1797.26 1529.94 1793.26 1529.94 Q1791.38 1529.94 1789.51 1530.35 Q1787.66 1530.77 1785.71 1531.65 L1785.71 1514.29 Z" fill="#000000" fill-rule="nonzero" fill-opacity="1" /><path clip-path="url(#clip150)" d="M2257.74 1544.91 L2265.38 1544.91 L2265.38 1518.55 L2257.07 1520.21 L2257.07 1515.95 L2265.34 1514.29 L2270.01 1514.29 L2270.01 1544.91 L2277.65 1544.91 L2277.65 1548.85 L2257.74 1548.85 L2257.74 1544.91 Z" fill="#000000" fill-rule="nonzero" fill-opacity="1" /><path clip-path="url(#clip150)" d="M2287.1 1542.97 L2291.98 1542.97 L2291.98 1548.85 L2287.1 1548.85 L2287.1 1542.97 Z" fill="#000000" fill-rule="nonzero" fill-opacity="1" /><path clip-path="url(#clip150)" d="M2312.17 1517.37 Q2308.55 1517.37 2306.73 1520.93 Q2304.92 1524.47 2304.92 1531.6 Q2304.92 1538.71 2306.73 1542.27 Q2308.55 1545.82 2312.17 1545.82 Q2315.8 1545.82 2317.61 1542.27 Q2319.43 1538.71 2319.43 1531.6 Q2319.43 1524.47 2317.61 1520.93 Q2315.8 1517.37 2312.17 1517.37 M2312.17 1513.66 Q2317.98 1513.66 2321.03 1518.27 Q2324.11 1522.85 2324.11 1531.6 Q2324.11 1540.33 2321.03 1544.94 Q2317.98 1549.52 2312.17 1549.52 Q2306.36 1549.52 2303.28 1544.94 Q2300.22 1540.33 2300.22 1531.6 Q2300.22 1522.85 2303.28 1518.27 Q2306.36 1513.66 2312.17 1513.66 Z" fill="#000000" fill-rule="nonzero" fill-opacity="1" /><polyline clip-path="url(#clip152)" style="stroke:#000000; stroke-linecap:round; stroke-linejoin:round; stroke-width:2; stroke-opacity:0.1; fill:none" points="156.274,1271.6 2352.76,1271.6 "/>
<polyline clip-path="url(#clip152)" style="stroke:#000000; stroke-linecap:round; stroke-linejoin:round; stroke-width:2; stroke-opacity:0.1; fill:none" points="156.274,1012.25 2352.76,1012.25 "/>
<polyline clip-path="url(#clip152)" style="stroke:#000000; stroke-linecap:round; stroke-linejoin:round; stroke-width:2; stroke-opacity:0.1; fill:none" points="156.274,752.908 2352.76,752.908 "/>
<polyline clip-path="url(#clip152)" style="stroke:#000000; stroke-linecap:round; stroke-linejoin:round; stroke-width:2; stroke-opacity:0.1; fill:none" points="156.274,493.562 2352.76,493.562 "/>
<polyline clip-path="url(#clip152)" style="stroke:#000000; stroke-linecap:round; stroke-linejoin:round; stroke-width:2; stroke-opacity:0.1; fill:none" points="156.274,234.215 2352.76,234.215 "/>
<polyline clip-path="url(#clip150)" style="stroke:#000000; stroke-linecap:round; stroke-linejoin:round; stroke-width:4; stroke-opacity:1; fill:none" points="156.274,1486.45 156.274,47.2441 "/>
<polyline clip-path="url(#clip150)" style="stroke:#000000; stroke-linecap:round; stroke-linejoin:round; stroke-width:4; stroke-opacity:1; fill:none" points="156.274,1271.6 175.172,1271.6 "/>
<polyline clip-path="url(#clip150)" style="stroke:#000000; stroke-linecap:round; stroke-linejoin:round; stroke-width:4; stroke-opacity:1; fill:none" points="156.274,1012.25 175.172,1012.25 "/>
<polyline clip-path="url(#clip150)" style="stroke:#000000; stroke-linecap:round; stroke-linejoin:round; stroke-width:4; stroke-opacity:1; fill:none" points="156.274,752.908 175.172,752.908 "/>
<polyline clip-path="url(#clip150)" style="stroke:#000000; stroke-linecap:round; stroke-linejoin:round; stroke-width:4; stroke-opacity:1; fill:none" points="156.274,493.562 175.172,493.562 "/>
<polyline clip-path="url(#clip150)" style="stroke:#000000; stroke-linecap:round; stroke-linejoin:round; stroke-width:4; stroke-opacity:1; fill:none" points="156.274,234.215 175.172,234.215 "/>
<path clip-path="url(#clip150)" d="M63.0985 1257.4 Q59.4875 1257.4 57.6588 1260.96 Q55.8532 1264.51 55.8532 1271.64 Q55.8532 1278.74 57.6588 1282.31 Q59.4875 1285.85 63.0985 1285.85 Q66.7328 1285.85 68.5383 1282.31 Q70.367 1278.74 70.367 1271.64 Q70.367 1264.51 68.5383 1260.96 Q66.7328 1257.4 63.0985 1257.4 M63.0985 1253.7 Q68.9087 1253.7 71.9642 1258.3 Q75.0429 1262.89 75.0429 1271.64 Q75.0429 1280.36 71.9642 1284.97 Q68.9087 1289.55 63.0985 1289.55 Q57.2884 1289.55 54.2097 1284.97 Q51.1542 1280.36 51.1542 1271.64 Q51.1542 1262.89 54.2097 1258.3 Q57.2884 1253.7 63.0985 1253.7 Z" fill="#000000" fill-rule="nonzero" fill-opacity="1" /><path clip-path="url(#clip150)" d="M83.2605 1283 L88.1447 1283 L88.1447 1288.88 L83.2605 1288.88 L83.2605 1283 Z" fill="#000000" fill-rule="nonzero" fill-opacity="1" /><path clip-path="url(#clip150)" d="M108.33 1257.4 Q104.719 1257.4 102.89 1260.96 Q101.084 1264.51 101.084 1271.64 Q101.084 1278.74 102.89 1282.31 Q104.719 1285.85 108.33 1285.85 Q111.964 1285.85 113.77 1282.31 Q115.598 1278.74 115.598 1271.64 Q115.598 1264.51 113.77 1260.96 Q111.964 1257.4 108.33 1257.4 M108.33 1253.7 Q114.14 1253.7 117.195 1258.3 Q120.274 1262.89 120.274 1271.64 Q120.274 1280.36 117.195 1284.97 Q114.14 1289.55 108.33 1289.55 Q102.52 1289.55 99.4409 1284.97 Q96.3854 1280.36 96.3854 1271.64 Q96.3854 1262.89 99.4409 1258.3 Q102.52 1253.7 108.33 1253.7 Z" fill="#000000" fill-rule="nonzero" fill-opacity="1" /><path clip-path="url(#clip150)" d="M63.7467 998.053 Q60.1356 998.053 58.3069 1001.62 Q56.5014 1005.16 56.5014 1012.29 Q56.5014 1019.4 58.3069 1022.96 Q60.1356 1026.5 63.7467 1026.5 Q67.3809 1026.5 69.1865 1022.96 Q71.0152 1019.4 71.0152 1012.29 Q71.0152 1005.16 69.1865 1001.62 Q67.3809 998.053 63.7467 998.053 M63.7467 994.349 Q69.5568 994.349 72.6124 998.956 Q75.6911 1003.54 75.6911 1012.29 Q75.6911 1021.02 72.6124 1025.62 Q69.5568 1030.21 63.7467 1030.21 Q57.9365 1030.21 54.8578 1025.62 Q51.8023 1021.02 51.8023 1012.29 Q51.8023 1003.54 54.8578 998.956 Q57.9365 994.349 63.7467 994.349 Z" fill="#000000" fill-rule="nonzero" fill-opacity="1" /><path clip-path="url(#clip150)" d="M83.9086 1023.65 L88.7928 1023.65 L88.7928 1029.53 L83.9086 1029.53 L83.9086 1023.65 Z" fill="#000000" fill-rule="nonzero" fill-opacity="1" /><path clip-path="url(#clip150)" d="M113.145 1010.9 Q116.501 1011.62 118.376 1013.89 Q120.274 1016.15 120.274 1019.49 Q120.274 1024.6 116.756 1027.4 Q113.237 1030.21 106.756 1030.21 Q104.58 1030.21 102.265 1029.77 Q99.9733 1029.35 97.5197 1028.49 L97.5197 1023.98 Q99.4641 1025.11 101.779 1025.69 Q104.094 1026.27 106.617 1026.27 Q111.015 1026.27 113.307 1024.53 Q115.621 1022.8 115.621 1019.49 Q115.621 1016.43 113.469 1014.72 Q111.339 1012.98 107.52 1012.98 L103.492 1012.98 L103.492 1009.14 L107.705 1009.14 Q111.154 1009.14 112.983 1007.78 Q114.811 1006.39 114.811 1003.79 Q114.811 1001.13 112.913 999.72 Q111.038 998.285 107.52 998.285 Q105.598 998.285 103.399 998.701 Q101.2 999.118 98.5613 999.998 L98.5613 995.831 Q101.223 995.09 103.538 994.72 Q105.876 994.349 107.936 994.349 Q113.26 994.349 116.362 996.78 Q119.464 999.187 119.464 1003.31 Q119.464 1006.18 117.82 1008.17 Q116.177 1010.14 113.145 1010.9 Z" fill="#000000" fill-rule="nonzero" fill-opacity="1" /><path clip-path="url(#clip150)" d="M62.9365 738.707 Q59.3254 738.707 57.4967 742.272 Q55.6912 745.813 55.6912 752.943 Q55.6912 760.049 57.4967 763.614 Q59.3254 767.156 62.9365 767.156 Q66.5707 767.156 68.3763 763.614 Q70.205 760.049 70.205 752.943 Q70.205 745.813 68.3763 742.272 Q66.5707 738.707 62.9365 738.707 M62.9365 735.003 Q68.7467 735.003 71.8022 739.61 Q74.8809 744.193 74.8809 752.943 Q74.8809 761.67 71.8022 766.276 Q68.7467 770.859 62.9365 770.859 Q57.1264 770.859 54.0477 766.276 Q50.9921 761.67 50.9921 752.943 Q50.9921 744.193 54.0477 739.61 Q57.1264 735.003 62.9365 735.003 Z" fill="#000000" fill-rule="nonzero" fill-opacity="1" /><path clip-path="url(#clip150)" d="M83.0984 764.308 L87.9827 764.308 L87.9827 770.188 L83.0984 770.188 L83.0984 764.308 Z" fill="#000000" fill-rule="nonzero" fill-opacity="1" /><path clip-path="url(#clip150)" d="M108.746 751.045 Q105.598 751.045 103.746 753.197 Q101.918 755.35 101.918 759.1 Q101.918 762.827 103.746 765.003 Q105.598 767.156 108.746 767.156 Q111.895 767.156 113.723 765.003 Q115.575 762.827 115.575 759.1 Q115.575 755.35 113.723 753.197 Q111.895 751.045 108.746 751.045 M118.029 736.392 L118.029 740.651 Q116.27 739.818 114.464 739.378 Q112.682 738.938 110.922 738.938 Q106.293 738.938 103.839 742.063 Q101.409 745.188 101.061 751.508 Q102.427 749.494 104.487 748.429 Q106.547 747.341 109.024 747.341 Q114.233 747.341 117.242 750.512 Q120.274 753.66 120.274 759.1 Q120.274 764.424 117.126 767.642 Q113.978 770.859 108.746 770.859 Q102.751 770.859 99.5798 766.276 Q96.4085 761.67 96.4085 752.943 Q96.4085 744.748 100.297 739.887 Q104.186 735.003 110.737 735.003 Q112.496 735.003 114.279 735.35 Q116.084 735.698 118.029 736.392 Z" fill="#000000" fill-rule="nonzero" fill-opacity="1" /><path clip-path="url(#clip150)" d="M63.2837 479.36 Q59.6726 479.36 57.8439 482.925 Q56.0384 486.467 56.0384 493.596 Q56.0384 500.703 57.8439 504.268 Q59.6726 507.809 63.2837 507.809 Q66.918 507.809 68.7235 504.268 Q70.5522 500.703 70.5522 493.596 Q70.5522 486.467 68.7235 482.925 Q66.918 479.36 63.2837 479.36 M63.2837 475.657 Q69.0939 475.657 72.1494 480.263 Q75.2281 484.846 75.2281 493.596 Q75.2281 502.323 72.1494 506.93 Q69.0939 511.513 63.2837 511.513 Q57.4736 511.513 54.3949 506.93 Q51.3393 502.323 51.3393 493.596 Q51.3393 484.846 54.3949 480.263 Q57.4736 475.657 63.2837 475.657 Z" fill="#000000" fill-rule="nonzero" fill-opacity="1" /><path clip-path="url(#clip150)" d="M83.4457 504.962 L88.3299 504.962 L88.3299 510.842 L83.4457 510.842 L83.4457 504.962 Z" fill="#000000" fill-rule="nonzero" fill-opacity="1" /><path clip-path="url(#clip150)" d="M98.6539 510.124 L98.6539 505.865 Q100.413 506.698 102.219 507.138 Q104.024 507.578 105.76 507.578 Q110.39 507.578 112.82 504.476 Q115.274 501.351 115.621 495.008 Q114.279 496.999 112.219 498.064 Q110.158 499.129 107.658 499.129 Q102.473 499.129 99.4409 496.004 Q96.4317 492.856 96.4317 487.416 Q96.4317 482.092 99.5798 478.874 Q102.728 475.657 107.959 475.657 Q113.955 475.657 117.103 480.263 Q120.274 484.846 120.274 493.596 Q120.274 501.768 116.385 506.652 Q112.52 511.513 105.969 511.513 Q104.209 511.513 102.404 511.166 Q100.598 510.819 98.6539 510.124 M107.959 495.471 Q111.108 495.471 112.936 493.319 Q114.788 491.166 114.788 487.416 Q114.788 483.689 112.936 481.536 Q111.108 479.36 107.959 479.36 Q104.811 479.36 102.959 481.536 Q101.131 483.689 101.131 487.416 Q101.131 491.166 102.959 493.319 Q104.811 495.471 107.959 495.471 Z" fill="#000000" fill-rule="nonzero" fill-opacity="1" /><path clip-path="url(#clip150)" d="M55.506 247.56 L63.1448 247.56 L63.1448 221.195 L54.8347 222.861 L54.8347 218.602 L63.0985 216.935 L67.7744 216.935 L67.7744 247.56 L75.4133 247.56 L75.4133 251.495 L55.506 251.495 L55.506 247.56 Z" fill="#000000" fill-rule="nonzero" fill-opacity="1" /><path clip-path="url(#clip150)" d="M84.8577 245.616 L89.7419 245.616 L89.7419 251.495 L84.8577 251.495 L84.8577 245.616 Z" fill="#000000" fill-rule="nonzero" fill-opacity="1" /><path clip-path="url(#clip150)" d="M103.955 247.56 L120.274 247.56 L120.274 251.495 L98.3298 251.495 L98.3298 247.56 Q100.992 244.806 105.575 240.176 Q110.182 235.523 111.362 234.181 Q113.608 231.658 114.487 229.921 Q115.39 228.162 115.39 226.472 Q115.39 223.718 113.445 221.982 Q111.524 220.246 108.422 220.246 Q106.223 220.246 103.77 221.009 Q101.339 221.773 98.5613 223.324 L98.5613 218.602 Q101.385 217.468 103.839 216.889 Q106.293 216.31 108.33 216.31 Q113.7 216.31 116.895 218.996 Q120.089 221.681 120.089 226.171 Q120.089 228.301 119.279 230.222 Q118.492 232.12 116.385 234.713 Q115.807 235.384 112.705 238.602 Q109.603 241.796 103.955 247.56 Z" fill="#000000" fill-rule="nonzero" fill-opacity="1" /><polyline clip-path="url(#clip152)" style="stroke:#009af9; stroke-linecap:round; stroke-linejoin:round; stroke-width:16; stroke-opacity:1; fill:none" stroke-dasharray="8, 16" points="218.439,1141.77 228.852,1062.2 239.264,1039.42 249.677,1060.87 260.09,1096.67 270.503,1121.76 280.916,1130.48 291.329,1133.57 301.741,1143.07 312.154,1162.85 322.567,1190.06 332.98,1220.26 343.393,1250.64 353.805,1280.49 364.218,1310.26 374.631,1340.14 385.044,1369.32 395.457,1395.92 405.87,1417.6 416.282,1432.55 426.695,1440.17 437.108,1441.34 447.521,1437.94 457.934,1431.79 468.347,1423.41 478.759,1411.51 489.172,1393.66 499.585,1368.17 509.998,1336.02 520.411,1300.98 530.824,1267.38 541.236,1237.38 551.649,1210.23 562.062,1184.29 572.475,1159.17 582.888,1136.45 593.301,1118.68 603.713,1107.57 614.126,1102.82 624.539,1102.58 634.952,1105.47 645.365,1112 655.777,1124.09 666.19,1143.26 676.603,1169.21 687.016,1199.8 697.429,1232.02 707.842,1263.33 718.254,1292.64 728.667,1320.3 739.08,1347.32 749.493,1373.9 759.906,1398.51 770.319,1418.12 780.731,1430.36 791.144,1436.04 801.557,1439.32 811.97,1443.5 822.383,1445.72 832.796,1437.87 843.208,1414.58 853.621,1379.45 864.034,1342.14 874.447,1310.49 884.86,1285.8 895.273,1264.22 905.685,1241.06 916.098,1213.97 926.511,1183.73 936.924,1153.36 947.337,1126.73 957.749,1107.31 968.162,1097.07 978.575,1095.84 988.988,1101.66 999.401,1111.88 1009.81,1124.51 1020.23,1138.93 1030.64,1155.67 1041.05,1175.78 1051.46,1200.09 1061.88,1228.77 1072.29,1261.18 1082.7,1295.85 1093.12,1330.68 1103.53,1363.24 1113.94,1391.19 1124.35,1412.73 1134.77,1426.96 1145.18,1433.93 1155.59,1434.74 1166.01,1431.46 1176.42,1427.18 1186.83,1425.8 1197.24,1430.55 1207.66,1439.67 1218.07,1437.76 1228.48,1387.8 1238.9,1241.69 1249.31,986.7 1259.72,692.096 1270.13,470.319 1280.55,374.862 1290.96,371.833 1301.37,399.793 1311.79,420.343 1322.2,423.655 1332.61,414.543 1343.02,400.89 1353.44,388.81 1363.85,381.859 1374.26,381.554 1384.68,387.906 1395.09,399.678 1405.5,414.509 1415.91,429.154 1426.33,439.985 1436.74,443.72 1447.15,438.245 1457.57,423.38 1467.98,401.455 1478.39,377.441 1488.8,358.274 1499.22,351.06 1509.63,360.352 1520.04,385.553 1530.45,420.122 1540.87,453.572 1551.28,475.39 1561.69,478.691 1572.11,461.943 1582.52,428.731 1592.93,386.591 1603.34,345.682 1613.76,317.387 1624.17,312.27 1634.58,336.577 1645,387.726 1655.41,451.993 1665.82,507.982 1676.23,534.574 1686.65,518.942 1697.06,462.686 1707.47,384.285 1717.89,313.214 1728.3,275.728 1738.71,282.058 1749.12,324.629 1759.54,385.97 1769.95,447.945 1780.36,496.682 1790.78,523.233 1801.19,522.671 1811.6,493.948 1822.01,441.038 1832.43,374.329 1842.84,310.406 1853.25,268.723 1863.67,265.208 1874.08,304.963 1884.49,378.277 1894.9,463.525 1905.32,535.866 1915.73,575.489 1926.14,570.568 1936.56,517.302 1946.97,422.872 1957.38,311.051 1967.79,221.003 1978.21,190.954 1988.62,235.246 1999.03,335.593 2009.45,453.576 2019.86,550.459 2030.27,600.249 2040.68,593.823 2051.1,537.651 2061.51,449.728 2071.92,354.035 2082.33,274.572 2092.75,230.004 2103.16,229.913 2113.57,273.352 2123.99,349.932 2134.4,442.873 2144.81,532.73 2155.22,600.302 2165.64,628.11 2176.05,601.414 2186.46,511.689 2196.88,366.194 2207.29,202.021 2217.7,87.9763 2228.11,90.3571 2238.53,217.755 2248.94,408.998 2259.35,580.671 2269.77,676.049 2280.18,682.244 2290.59,622.194 "/>
<polyline clip-path="url(#clip152)" style="stroke:#e26f46; stroke-linecap:round; stroke-linejoin:round; stroke-width:4; stroke-opacity:1; fill:none" points="218.439,1141.76 228.852,1123.33 239.264,1109.75 249.677,1101.45 260.09,1098.7 270.503,1101.6 280.916,1110.04 291.329,1123.76 301.741,1142.3 312.154,1165.06 322.567,1191.3 332.98,1220.16 343.393,1250.7 353.805,1281.92 364.218,1312.8 374.631,1342.34 385.044,1369.57 395.457,1393.61 405.87,1413.66 416.282,1429.07 426.695,1439.35 437.108,1444.15 447.521,1443.31 457.934,1436.88 468.347,1425.05 478.759,1408.21 489.172,1386.92 499.585,1361.86 509.998,1333.85 520.411,1303.81 530.824,1272.72 541.236,1241.6 551.649,1211.45 562.062,1183.27 572.475,1157.97 582.888,1136.38 593.301,1119.2 603.713,1107 614.126,1100.16 624.539,1098.93 634.952,1103.33 645.365,1113.22 655.777,1128.28 666.19,1148.01 676.603,1171.79 687.016,1198.82 697.429,1228.22 707.842,1259.04 718.254,1290.27 728.667,1320.89 739.08,1349.9 749.493,1376.36 759.906,1399.4 770.319,1418.27 780.731,1432.35 791.144,1441.18 801.557,1444.48 811.97,1442.13 822.383,1434.23 832.796,1421.01 843.208,1402.92 853.621,1380.54 864.034,1354.6 874.447,1325.96 884.86,1295.54 895.273,1264.34 905.685,1233.38 916.098,1203.67 926.511,1176.17 936.924,1151.79 947.337,1131.32 957.749,1115.42 968.162,1104.63 978.575,1099.28 988.988,1099.56 999.401,1105.45 1009.81,1116.76 1020.23,1133.13 1030.64,1154.02 1041.05,1178.74 1051.46,1206.5 1061.88,1236.38 1072.29,1267.41 1082.7,1298.58 1093.12,1328.86 1103.53,1357.28 1113.94,1382.9 1124.35,1404.89 1134.77,1422.53 1145.18,1435.24 1155.59,1442.61 1166.01,1444.4 1176.42,1440.55 1186.83,1431.19 1197.24,1416.62 1207.66,1397.31 1218.07,1373.9 1228.48,1347.16 1238.9,1317.94 1249.31,1287.22 1259.72,405.857 1270.13,404.429 1280.55,405.729 1290.96,410.058 1301.37,416.089 1311.79,421.273 1322.2,422.808 1332.61,418.819 1343.02,409.31 1353.44,396.49 1363.85,384.291 1374.26,377.165 1384.68,378.532 1395.09,389.405 1405.5,407.694 1415.91,428.507 1426.33,445.457 1436.74,452.606 1447.15,446.486 1457.57,427.497 1467.98,400.183 1478.39,372.192 1488.8,352.13 1499.22,346.933 1509.63,359.531 1520.04,387.6 1530.45,423.85 1540.87,457.902 1551.28,479.258 1561.69,480.523 1572.11,459.89 1582.52,422.077 1592.93,377.316 1603.34,338.598 1613.76,317.901 1624.17,322.503 1634.58,352.51 1645,400.414 1655.41,452.928 1665.82,494.672 1676.23,512.669 1686.65,500.362 1697.06,459.893 1707.47,401.888 1717.89,342.696 1728.3,299.777 1738.71,286.559 1749.12,308.263 1759.54,359.997 1769.95,427.768 1780.36,492.262 1790.78,534.338 1801.19,540.711 1811.6,508.109 1822.01,444.625 1832.43,367.765 1842.84,299.622 1853.25,260.529 1863.67,263 1874.08,307.766 1884.49,383.15 1894.9,468.081 1905.32,537.981 1915.73,571.876 1926.14,558.677 1936.56,500.757 1946.97,413.675 1957.38,322.016 1967.79,252.456 1978.21,225.996 1988.62,251.638 1999.03,323.395 2009.45,421.616 2019.86,518.354 2030.27,585.316 2040.68,602.135 2051.1,562.548 2061.51,476.607 2071.92,368.166 2082.33,268.275 2092.75,206.284 2103.16,201.228 2113.57,256.001 2123.99,356.117 2134.4,473.505 2144.81,574.381 2155.22,628.966 2165.64,620.275 2176.05,549.369 2186.46,435.461 2196.88,310.735 2207.29,211.249 2217.7,166.513 2228.11,190.748 2238.53,278.4 2248.94,405.338 2259.35,535.477 2269.77,631.043 2280.18,663.529 2290.59,622.191 "/>
<path clip-path="url(#clip150)" d="M229.49 250.738 L675.966 250.738 L675.966 95.2176 L229.49 95.2176  Z" fill="#ffffff" fill-rule="evenodd" fill-opacity="1"/>
<polyline clip-path="url(#clip150)" style="stroke:#000000; stroke-linecap:round; stroke-linejoin:round; stroke-width:4; stroke-opacity:1; fill:none" points="229.49,250.738 675.966,250.738 675.966,95.2176 229.49,95.2176 229.49,250.738 "/>
<polyline clip-path="url(#clip150)" style="stroke:#009af9; stroke-linecap:round; stroke-linejoin:round; stroke-width:16; stroke-opacity:1; fill:none" stroke-dasharray="8, 16" points="253.896,147.058 400.328,147.058 "/>
<path clip-path="url(#clip150)" d="M429.409 133.62 L429.409 146.606 L435.289 146.606 Q438.552 146.606 440.335 144.916 Q442.117 143.227 442.117 140.102 Q442.117 137 440.335 135.31 Q438.552 133.62 435.289 133.62 L429.409 133.62 M424.733 129.778 L435.289 129.778 Q441.099 129.778 444.062 132.416 Q447.048 135.032 447.048 140.102 Q447.048 145.217 444.062 147.833 Q441.099 150.449 435.289 150.449 L429.409 150.449 L429.409 164.338 L424.733 164.338 L424.733 129.778 Z" fill="#000000" fill-rule="nonzero" fill-opacity="1" /><path clip-path="url(#clip150)" d="M467.325 142.393 Q466.608 141.977 465.751 141.791 Q464.918 141.583 463.899 141.583 Q460.288 141.583 458.344 143.944 Q456.423 146.282 456.423 150.68 L456.423 164.338 L452.14 164.338 L452.14 138.412 L456.423 138.412 L456.423 142.44 Q457.765 140.078 459.918 138.944 Q462.071 137.787 465.149 137.787 Q465.589 137.787 466.122 137.856 Q466.654 137.903 467.302 138.018 L467.325 142.393 Z" fill="#000000" fill-rule="nonzero" fill-opacity="1" /><path clip-path="url(#clip150)" d="M492.927 150.31 L492.927 152.393 L473.344 152.393 Q473.622 156.791 475.983 159.106 Q478.367 161.398 482.603 161.398 Q485.057 161.398 487.348 160.796 Q489.663 160.194 491.932 158.99 L491.932 163.018 Q489.64 163.99 487.233 164.5 Q484.825 165.009 482.348 165.009 Q476.145 165.009 472.511 161.398 Q468.899 157.787 468.899 151.629 Q468.899 145.264 472.325 141.537 Q475.774 137.787 481.608 137.787 Q486.839 137.787 489.872 141.166 Q492.927 144.523 492.927 150.31 M488.668 149.06 Q488.622 145.565 486.7 143.481 Q484.802 141.398 481.654 141.398 Q478.089 141.398 475.936 143.412 Q473.807 145.426 473.483 149.083 L488.668 149.06 Z" fill="#000000" fill-rule="nonzero" fill-opacity="1" /><path clip-path="url(#clip150)" d="M516.978 142.347 L516.978 128.319 L521.237 128.319 L521.237 164.338 L516.978 164.338 L516.978 160.449 Q515.635 162.763 513.575 163.898 Q511.538 165.009 508.668 165.009 Q503.969 165.009 501.006 161.259 Q498.066 157.509 498.066 151.398 Q498.066 145.287 501.006 141.537 Q503.969 137.787 508.668 137.787 Q511.538 137.787 513.575 138.921 Q515.635 140.032 516.978 142.347 M502.464 151.398 Q502.464 156.097 504.385 158.782 Q506.33 161.444 509.709 161.444 Q513.089 161.444 515.033 158.782 Q516.978 156.097 516.978 151.398 Q516.978 146.699 515.033 144.037 Q513.089 141.352 509.709 141.352 Q506.33 141.352 504.385 144.037 Q502.464 146.699 502.464 151.398 Z" fill="#000000" fill-rule="nonzero" fill-opacity="1" /><path clip-path="url(#clip150)" d="M530.01 138.412 L534.269 138.412 L534.269 164.338 L530.01 164.338 L530.01 138.412 M530.01 128.319 L534.269 128.319 L534.269 133.713 L530.01 133.713 L530.01 128.319 Z" fill="#000000" fill-rule="nonzero" fill-opacity="1" /><path clip-path="url(#clip150)" d="M561.839 139.407 L561.839 143.389 Q560.033 142.393 558.205 141.907 Q556.399 141.398 554.547 141.398 Q550.404 141.398 548.112 144.037 Q545.82 146.652 545.82 151.398 Q545.82 156.143 548.112 158.782 Q550.404 161.398 554.547 161.398 Q556.399 161.398 558.205 160.912 Q560.033 160.402 561.839 159.407 L561.839 163.342 Q560.056 164.176 558.135 164.592 Q556.237 165.009 554.084 165.009 Q548.228 165.009 544.779 161.328 Q541.33 157.648 541.33 151.398 Q541.33 145.055 544.802 141.421 Q548.297 137.787 554.362 137.787 Q556.33 137.787 558.205 138.203 Q560.08 138.597 561.839 139.407 Z" fill="#000000" fill-rule="nonzero" fill-opacity="1" /><path clip-path="url(#clip150)" d="M573.459 131.051 L573.459 138.412 L582.232 138.412 L582.232 141.722 L573.459 141.722 L573.459 155.796 Q573.459 158.967 574.316 159.87 Q575.195 160.773 577.857 160.773 L582.232 160.773 L582.232 164.338 L577.857 164.338 Q572.927 164.338 571.052 162.509 Q569.177 160.657 569.177 155.796 L569.177 141.722 L566.052 141.722 L566.052 138.412 L569.177 138.412 L569.177 131.051 L573.459 131.051 Z" fill="#000000" fill-rule="nonzero" fill-opacity="1" /><path clip-path="url(#clip150)" d="M587.834 138.412 L592.093 138.412 L592.093 164.338 L587.834 164.338 L587.834 138.412 M587.834 128.319 L592.093 128.319 L592.093 133.713 L587.834 133.713 L587.834 128.319 Z" fill="#000000" fill-rule="nonzero" fill-opacity="1" /><path clip-path="url(#clip150)" d="M611.051 141.398 Q607.626 141.398 605.635 144.083 Q603.644 146.745 603.644 151.398 Q603.644 156.051 605.612 158.736 Q607.602 161.398 611.051 161.398 Q614.454 161.398 616.445 158.713 Q618.436 156.027 618.436 151.398 Q618.436 146.791 616.445 144.106 Q614.454 141.398 611.051 141.398 M611.051 137.787 Q616.607 137.787 619.778 141.398 Q622.95 145.009 622.95 151.398 Q622.95 157.764 619.778 161.398 Q616.607 165.009 611.051 165.009 Q605.473 165.009 602.302 161.398 Q599.153 157.764 599.153 151.398 Q599.153 145.009 602.302 141.398 Q605.473 137.787 611.051 137.787 Z" fill="#000000" fill-rule="nonzero" fill-opacity="1" /><path clip-path="url(#clip150)" d="M651.561 148.689 L651.561 164.338 L647.301 164.338 L647.301 148.828 Q647.301 145.148 645.866 143.319 Q644.431 141.49 641.561 141.49 Q638.112 141.49 636.121 143.69 Q634.13 145.889 634.13 149.685 L634.13 164.338 L629.848 164.338 L629.848 138.412 L634.13 138.412 L634.13 142.44 Q635.658 140.102 637.718 138.944 Q639.801 137.787 642.51 137.787 Q646.977 137.787 649.269 140.565 Q651.561 143.319 651.561 148.689 Z" fill="#000000" fill-rule="nonzero" fill-opacity="1" /><polyline clip-path="url(#clip150)" style="stroke:#e26f46; stroke-linecap:round; stroke-linejoin:round; stroke-width:4; stroke-opacity:1; fill:none" points="253.896,198.898 400.328,198.898 "/>
<path clip-path="url(#clip150)" d="M424.733 181.618 L446.585 181.618 L446.585 185.553 L429.409 185.553 L429.409 195.784 L445.867 195.784 L445.867 199.719 L429.409 199.719 L429.409 212.242 L447.001 212.242 L447.001 216.178 L424.733 216.178 L424.733 181.618 Z" fill="#000000" fill-rule="nonzero" fill-opacity="1" /><path clip-path="url(#clip150)" d="M476.052 190.252 L466.677 202.867 L476.538 216.178 L471.515 216.178 L463.969 205.992 L456.423 216.178 L451.4 216.178 L461.469 202.613 L452.256 190.252 L457.279 190.252 L464.154 199.488 L471.029 190.252 L476.052 190.252 Z" fill="#000000" fill-rule="nonzero" fill-opacity="1" /><path clip-path="url(#clip150)" d="M494.339 203.145 Q489.177 203.145 487.186 204.326 Q485.196 205.506 485.196 208.354 Q485.196 210.622 486.677 211.965 Q488.182 213.284 490.751 213.284 Q494.293 213.284 496.422 210.784 Q498.575 208.261 498.575 204.094 L498.575 203.145 L494.339 203.145 M502.834 201.386 L502.834 216.178 L498.575 216.178 L498.575 212.242 Q497.117 214.603 494.941 215.738 Q492.765 216.849 489.617 216.849 Q485.635 216.849 483.274 214.627 Q480.936 212.381 480.936 208.631 Q480.936 204.256 483.853 202.034 Q486.793 199.812 492.603 199.812 L498.575 199.812 L498.575 199.395 Q498.575 196.455 496.631 194.858 Q494.71 193.238 491.214 193.238 Q488.992 193.238 486.885 193.77 Q484.779 194.303 482.835 195.367 L482.835 191.432 Q485.173 190.53 487.372 190.09 Q489.571 189.627 491.654 189.627 Q497.279 189.627 500.057 192.543 Q502.834 195.46 502.834 201.386 Z" fill="#000000" fill-rule="nonzero" fill-opacity="1" /><path clip-path="url(#clip150)" d="M530.265 191.247 L530.265 195.229 Q528.459 194.233 526.631 193.747 Q524.825 193.238 522.973 193.238 Q518.83 193.238 516.538 195.877 Q514.246 198.492 514.246 203.238 Q514.246 207.983 516.538 210.622 Q518.83 213.238 522.973 213.238 Q524.825 213.238 526.631 212.752 Q528.459 212.242 530.265 211.247 L530.265 215.182 Q528.482 216.016 526.561 216.432 Q524.663 216.849 522.51 216.849 Q516.654 216.849 513.205 213.168 Q509.756 209.488 509.756 203.238 Q509.756 196.895 513.228 193.261 Q516.723 189.627 522.788 189.627 Q524.756 189.627 526.631 190.043 Q528.506 190.437 530.265 191.247 Z" fill="#000000" fill-rule="nonzero" fill-opacity="1" /><path clip-path="url(#clip150)" d="M541.885 182.891 L541.885 190.252 L550.658 190.252 L550.658 193.562 L541.885 193.562 L541.885 207.636 Q541.885 210.807 542.742 211.71 Q543.621 212.613 546.283 212.613 L550.658 212.613 L550.658 216.178 L546.283 216.178 Q541.353 216.178 539.478 214.349 Q537.603 212.497 537.603 207.636 L537.603 193.562 L534.478 193.562 L534.478 190.252 L537.603 190.252 L537.603 182.891 L541.885 182.891 Z" fill="#000000" fill-rule="nonzero" fill-opacity="1" /></svg>
