<?xml version="1.0" encoding="utf-8"?>
<svg xmlns="http://www.w3.org/2000/svg" xmlns:xlink="http://www.w3.org/1999/xlink" width="600" height="400" viewBox="0 0 2400 1600">
<defs>
  <clipPath id="clip120">
    <rect x="0" y="0" width="2400" height="1600"/>
  </clipPath>
</defs>
<path clip-path="url(#clip120)" d="M0 1600 L2400 1600 L2400 0 L0 0  Z" fill="#ffffff" fill-rule="evenodd" fill-opacity="1"/>
<defs>
  <clipPath id="clip121">
    <rect x="480" y="0" width="1681" height="1600"/>
  </clipPath>
</defs>
<path clip-path="url(#clip120)" d="M223.103 1486.45 L2352.76 1486.45 L2352.76 47.2441 L223.103 47.2441  Z" fill="#ffffff" fill-rule="evenodd" fill-opacity="1"/>
<defs>
  <clipPath id="clip122">
    <rect x="223" y="47" width="2131" height="1440"/>
  </clipPath>
</defs>
<polyline clip-path="url(#clip122)" style="stroke:#000000; stroke-linecap:round; stroke-linejoin:round; stroke-width:2; stroke-opacity:0.1; fill:none" points="283.376,1486.45 283.376,47.2441 "/>
<polyline clip-path="url(#clip122)" style="stroke:#000000; stroke-linecap:round; stroke-linejoin:round; stroke-width:2; stroke-opacity:0.1; fill:none" points="785.652,1486.45 785.652,47.2441 "/>
<polyline clip-path="url(#clip122)" style="stroke:#000000; stroke-linecap:round; stroke-linejoin:round; stroke-width:2; stroke-opacity:0.1; fill:none" points="1287.93,1486.45 1287.93,47.2441 "/>
<polyline clip-path="url(#clip122)" style="stroke:#000000; stroke-linecap:round; stroke-linejoin:round; stroke-width:2; stroke-opacity:0.1; fill:none" points="1790.21,1486.45 1790.21,47.2441 "/>
<polyline clip-path="url(#clip122)" style="stroke:#000000; stroke-linecap:round; stroke-linejoin:round; stroke-width:2; stroke-opacity:0.1; fill:none" points="2292.48,1486.45 2292.48,47.2441 "/>
<polyline clip-path="url(#clip120)" style="stroke:#000000; stroke-linecap:round; stroke-linejoin:round; stroke-width:4; stroke-opacity:1; fill:none" points="223.103,1486.45 2352.76,1486.45 "/>
<polyline clip-path="url(#clip120)" style="stroke:#000000; stroke-linecap:round; stroke-linejoin:round; stroke-width:4; stroke-opacity:1; fill:none" points="283.376,1486.45 283.376,1467.55 "/>
<polyline clip-path="url(#clip120)" style="stroke:#000000; stroke-linecap:round; stroke-linejoin:round; stroke-width:4; stroke-opacity:1; fill:none" points="785.652,1486.45 785.652,1467.55 "/>
<polyline clip-path="url(#clip120)" style="stroke:#000000; stroke-linecap:round; stroke-linejoin:round; stroke-width:4; stroke-opacity:1; fill:none" points="1287.93,1486.45 1287.93,1467.55 "/>
<polyline clip-path="url(#clip120)" style="stroke:#000000; stroke-linecap:round; stroke-linejoin:round; stroke-width:4; stroke-opacity:1; fill:none" points="1790.21,1486.45 1790.21,1467.55 "/>
<polyline clip-path="url(#clip120)" style="stroke:#000000; stroke-linecap:round; stroke-linejoin:round; stroke-width:4; stroke-opacity:1; fill:none" points="2292.48,1486.45 2292.48,1467.55 "/>
<path clip-path="url(#clip120)" d="M229.904 1532.02 L259.58 1532.02 L259.58 1535.95 L229.904 1535.95 L229.904 1532.02 Z" fill="#000000" fill-rule="nonzero" fill-opacity="1" /><path clip-path="url(#clip120)" d="M270.482 1544.91 L278.121 1544.91 L278.121 1518.55 L269.811 1520.21 L269.811 1515.95 L278.075 1514.29 L282.751 1514.29 L282.751 1544.91 L290.39 1544.91 L290.39 1548.85 L270.482 1548.85 L270.482 1544.91 Z" fill="#000000" fill-rule="nonzero" fill-opacity="1" /><path clip-path="url(#clip120)" d="M299.834 1542.97 L304.718 1542.97 L304.718 1548.85 L299.834 1548.85 L299.834 1542.97 Z" fill="#000000" fill-rule="nonzero" fill-opacity="1" /><path clip-path="url(#clip120)" d="M324.903 1517.37 Q321.292 1517.37 319.463 1520.93 Q317.658 1524.47 317.658 1531.6 Q317.658 1538.71 319.463 1542.27 Q321.292 1545.82 324.903 1545.82 Q328.538 1545.82 330.343 1542.27 Q332.172 1538.71 332.172 1531.6 Q332.172 1524.47 330.343 1520.93 Q328.538 1517.37 324.903 1517.37 M324.903 1513.66 Q330.713 1513.66 333.769 1518.27 Q336.848 1522.85 336.848 1531.6 Q336.848 1540.33 333.769 1544.94 Q330.713 1549.52 324.903 1549.52 Q319.093 1549.52 316.014 1544.94 Q312.959 1540.33 312.959 1531.6 Q312.959 1522.85 316.014 1518.27 Q319.093 1513.66 324.903 1513.66 Z" fill="#000000" fill-rule="nonzero" fill-opacity="1" /><path clip-path="url(#clip120)" d="M732.678 1532.02 L762.354 1532.02 L762.354 1535.95 L732.678 1535.95 L732.678 1532.02 Z" fill="#000000" fill-rule="nonzero" fill-opacity="1" /><path clip-path="url(#clip120)" d="M782.446 1517.37 Q778.835 1517.37 777.007 1520.93 Q775.201 1524.47 775.201 1531.6 Q775.201 1538.71 777.007 1542.27 Q778.835 1545.82 782.446 1545.82 Q786.081 1545.82 787.886 1542.27 Q789.715 1538.71 789.715 1531.6 Q789.715 1524.47 787.886 1520.93 Q786.081 1517.37 782.446 1517.37 M782.446 1513.66 Q788.257 1513.66 791.312 1518.27 Q794.391 1522.85 794.391 1531.6 Q794.391 1540.33 791.312 1544.94 Q788.257 1549.52 782.446 1549.52 Q776.636 1549.52 773.558 1544.94 Q770.502 1540.33 770.502 1531.6 Q770.502 1522.85 773.558 1518.27 Q776.636 1513.66 782.446 1513.66 Z" fill="#000000" fill-rule="nonzero" fill-opacity="1" /><path clip-path="url(#clip120)" d="M802.608 1542.97 L807.493 1542.97 L807.493 1548.85 L802.608 1548.85 L802.608 1542.97 Z" fill="#000000" fill-rule="nonzero" fill-opacity="1" /><path clip-path="url(#clip120)" d="M817.724 1514.29 L836.08 1514.29 L836.08 1518.22 L822.006 1518.22 L822.006 1526.7 Q823.025 1526.35 824.043 1526.19 Q825.062 1526 826.08 1526 Q831.867 1526 835.247 1529.17 Q838.627 1532.34 838.627 1537.76 Q838.627 1543.34 835.155 1546.44 Q831.682 1549.52 825.363 1549.52 Q823.187 1549.52 820.918 1549.15 Q818.673 1548.78 816.266 1548.04 L816.266 1543.34 Q818.349 1544.47 820.571 1545.03 Q822.793 1545.58 825.27 1545.58 Q829.275 1545.58 831.613 1543.48 Q833.951 1541.37 833.951 1537.76 Q833.951 1534.15 831.613 1532.04 Q829.275 1529.94 825.27 1529.94 Q823.395 1529.94 821.52 1530.35 Q819.668 1530.77 817.724 1531.65 L817.724 1514.29 Z" fill="#000000" fill-rule="nonzero" fill-opacity="1" /><path clip-path="url(#clip120)" d="M1265.31 1517.37 Q1261.7 1517.37 1259.87 1520.93 Q1258.07 1524.47 1258.07 1531.6 Q1258.07 1538.71 1259.87 1542.27 Q1261.7 1545.82 1265.31 1545.82 Q1268.95 1545.82 1270.75 1542.27 Q1272.58 1538.71 1272.58 1531.6 Q1272.58 1524.47 1270.75 1520.93 Q1268.95 1517.37 1265.31 1517.37 M1265.31 1513.66 Q1271.12 1513.66 1274.18 1518.27 Q1277.26 1522.85 1277.26 1531.6 Q1277.26 1540.33 1274.18 1544.94 Q1271.12 1549.52 1265.31 1549.52 Q1259.5 1549.52 1256.42 1544.94 Q1253.37 1540.33 1253.37 1531.6 Q1253.37 1522.85 1256.42 1518.27 Q1259.5 1513.66 1265.31 1513.66 Z" fill="#000000" fill-rule="nonzero" fill-opacity="1" /><path clip-path="url(#clip120)" d="M1285.48 1542.97 L1290.36 1542.97 L1290.36 1548.85 L1285.48 1548.85 L1285.48 1542.97 Z" fill="#000000" fill-rule="nonzero" fill-opacity="1" /><path clip-path="url(#clip120)" d="M1310.54 1517.37 Q1306.93 1517.37 1305.11 1520.93 Q1303.3 1524.47 1303.3 1531.6 Q1303.3 1538.71 1305.11 1542.27 Q1306.93 1545.82 1310.54 1545.82 Q1314.18 1545.82 1315.98 1542.27 Q1317.81 1538.71 1317.81 1531.6 Q1317.81 1524.47 1315.98 1520.93 Q1314.18 1517.37 1310.54 1517.37 M1310.54 1513.66 Q1316.35 1513.66 1319.41 1518.27 Q1322.49 1522.85 1322.49 1531.6 Q1322.49 1540.33 1319.41 1544.94 Q1316.35 1549.52 1310.54 1549.52 Q1304.73 1549.52 1301.66 1544.94 Q1298.6 1540.33 1298.6 1531.6 Q1298.6 1522.85 1301.66 1518.27 Q1304.73 1513.66 1310.54 1513.66 Z" fill="#000000" fill-rule="nonzero" fill-opacity="1" /><path clip-path="url(#clip120)" d="M1768.09 1517.37 Q1764.48 1517.37 1762.65 1520.93 Q1760.84 1524.47 1760.84 1531.6 Q1760.84 1538.71 1762.65 1542.27 Q1764.48 1545.82 1768.09 1545.82 Q1771.72 1545.82 1773.53 1542.27 Q1775.36 1538.71 1775.36 1531.6 Q1775.36 1524.47 1773.53 1520.93 Q1771.72 1517.37 1768.09 1517.37 M1768.09 1513.66 Q1773.9 1513.66 1776.95 1518.27 Q1780.03 1522.85 1780.03 1531.6 Q1780.03 1540.33 1776.95 1544.94 Q1773.9 1549.52 1768.09 1549.52 Q1762.28 1549.52 1759.2 1544.94 Q1756.14 1540.33 1756.14 1531.6 Q1756.14 1522.85 1759.2 1518.27 Q1762.28 1513.66 1768.09 1513.66 Z" fill="#000000" fill-rule="nonzero" fill-opacity="1" /><path clip-path="url(#clip120)" d="M1788.25 1542.97 L1793.13 1542.97 L1793.13 1548.85 L1788.25 1548.85 L1788.25 1542.97 Z" fill="#000000" fill-rule="nonzero" fill-opacity="1" /><path clip-path="url(#clip120)" d="M1803.37 1514.29 L1821.72 1514.29 L1821.72 1518.22 L1807.65 1518.22 L1807.65 1526.7 Q1808.67 1526.35 1809.69 1526.19 Q1810.7 1526 1811.72 1526 Q1817.51 1526 1820.89 1529.17 Q1824.27 1532.34 1824.27 1537.76 Q1824.27 1543.34 1820.8 1546.44 Q1817.32 1549.52 1811 1549.52 Q1808.83 1549.52 1806.56 1549.15 Q1804.31 1548.78 1801.91 1548.04 L1801.91 1543.34 Q1803.99 1544.47 1806.21 1545.03 Q1808.44 1545.58 1810.91 1545.58 Q1814.92 1545.58 1817.25 1543.48 Q1819.59 1541.37 1819.59 1537.76 Q1819.59 1534.15 1817.25 1532.04 Q1814.92 1529.94 1810.91 1529.94 Q1809.04 1529.94 1807.16 1530.35 Q1805.31 1530.77 1803.37 1531.65 L1803.37 1514.29 Z" fill="#000000" fill-rule="nonzero" fill-opacity="1" /><path clip-path="url(#clip120)" d="M2259.64 1544.91 L2267.27 1544.91 L2267.27 1518.55 L2258.96 1520.21 L2258.96 1515.95 L2267.23 1514.29 L2271.9 1514.29 L2271.9 1544.91 L2279.54 1544.91 L2279.54 1548.85 L2259.64 1548.85 L2259.64 1544.91 Z" fill="#000000" fill-rule="nonzero" fill-opacity="1" /><path clip-path="url(#clip120)" d="M2288.99 1542.97 L2293.87 1542.97 L2293.87 1548.85 L2288.99 1548.85 L2288.99 1542.97 Z" fill="#000000" fill-rule="nonzero" fill-opacity="1" /><path clip-path="url(#clip120)" d="M2314.06 1517.37 Q2310.45 1517.37 2308.62 1520.93 Q2306.81 1524.47 2306.81 1531.6 Q2306.81 1538.71 2308.62 1542.27 Q2310.45 1545.82 2314.06 1545.82 Q2317.69 1545.82 2319.5 1542.27 Q2321.33 1538.71 2321.33 1531.6 Q2321.33 1524.47 2319.5 1520.93 Q2317.69 1517.37 2314.06 1517.37 M2314.06 1513.66 Q2319.87 1513.66 2322.92 1518.27 Q2326 1522.85 2326 1531.6 Q2326 1540.33 2322.92 1544.94 Q2319.87 1549.52 2314.06 1549.52 Q2308.25 1549.52 2305.17 1544.94 Q2302.11 1540.33 2302.11 1531.6 Q2302.11 1522.85 2305.17 1518.27 Q2308.25 1513.66 2314.06 1513.66 Z" fill="#000000" fill-rule="nonzero" fill-opacity="1" /><polyline clip-path="url(#clip122)" style="stroke:#000000; stroke-linecap:round; stroke-linejoin:round; stroke-width:2; stroke-opacity:0.1; fill:none" points="223.103,1430.52 2352.76,1430.52 "/>
<polyline clip-path="url(#clip122)" style="stroke:#000000; stroke-linecap:round; stroke-linejoin:round; stroke-width:2; stroke-opacity:0.1; fill:none" points="223.103,1223.35 2352.76,1223.35 "/>
<polyline clip-path="url(#clip122)" style="stroke:#000000; stroke-linecap:round; stroke-linejoin:round; stroke-width:2; stroke-opacity:0.1; fill:none" points="223.103,1016.18 2352.76,1016.18 "/>
<polyline clip-path="url(#clip122)" style="stroke:#000000; stroke-linecap:round; stroke-linejoin:round; stroke-width:2; stroke-opacity:0.1; fill:none" points="223.103,809.006 2352.76,809.006 "/>
<polyline clip-path="url(#clip122)" style="stroke:#000000; stroke-linecap:round; stroke-linejoin:round; stroke-width:2; stroke-opacity:0.1; fill:none" points="223.103,601.835 2352.76,601.835 "/>
<polyline clip-path="url(#clip122)" style="stroke:#000000; stroke-linecap:round; stroke-linejoin:round; stroke-width:2; stroke-opacity:0.1; fill:none" points="223.103,394.663 2352.76,394.663 "/>
<polyline clip-path="url(#clip122)" style="stroke:#000000; stroke-linecap:round; stroke-linejoin:round; stroke-width:2; stroke-opacity:0.1; fill:none" points="223.103,187.492 2352.76,187.492 "/>
<polyline clip-path="url(#clip120)" style="stroke:#000000; stroke-linecap:round; stroke-linejoin:round; stroke-width:4; stroke-opacity:1; fill:none" points="223.103,1486.45 223.103,47.2441 "/>
<polyline clip-path="url(#clip120)" style="stroke:#000000; stroke-linecap:round; stroke-linejoin:round; stroke-width:4; stroke-opacity:1; fill:none" points="223.103,1430.52 242,1430.52 "/>
<polyline clip-path="url(#clip120)" style="stroke:#000000; stroke-linecap:round; stroke-linejoin:round; stroke-width:4; stroke-opacity:1; fill:none" points="223.103,1223.35 242,1223.35 "/>
<polyline clip-path="url(#clip120)" style="stroke:#000000; stroke-linecap:round; stroke-linejoin:round; stroke-width:4; stroke-opacity:1; fill:none" points="223.103,1016.18 242,1016.18 "/>
<polyline clip-path="url(#clip120)" style="stroke:#000000; stroke-linecap:round; stroke-linejoin:round; stroke-width:4; stroke-opacity:1; fill:none" points="223.103,809.006 242,809.006 "/>
<polyline clip-path="url(#clip120)" style="stroke:#000000; stroke-linecap:round; stroke-linejoin:round; stroke-width:4; stroke-opacity:1; fill:none" points="223.103,601.835 242,601.835 "/>
<polyline clip-path="url(#clip120)" style="stroke:#000000; stroke-linecap:round; stroke-linejoin:round; stroke-width:4; stroke-opacity:1; fill:none" points="223.103,394.663 242,394.663 "/>
<polyline clip-path="url(#clip120)" style="stroke:#000000; stroke-linecap:round; stroke-linejoin:round; stroke-width:4; stroke-opacity:1; fill:none" points="223.103,187.492 242,187.492 "/>
<path clip-path="url(#clip120)" d="M50.9921 1430.97 L80.6679 1430.97 L80.6679 1434.91 L50.9921 1434.91 L50.9921 1430.97 Z" fill="#000000" fill-rule="nonzero" fill-opacity="1" /><path clip-path="url(#clip120)" d="M100.76 1416.32 Q97.1493 1416.32 95.3206 1419.88 Q93.515 1423.43 93.515 1430.56 Q93.515 1437.66 95.3206 1441.23 Q97.1493 1444.77 100.76 1444.77 Q104.395 1444.77 106.2 1441.23 Q108.029 1437.66 108.029 1430.56 Q108.029 1423.43 106.2 1419.88 Q104.395 1416.32 100.76 1416.32 M100.76 1412.62 Q106.571 1412.62 109.626 1417.22 Q112.705 1421.81 112.705 1430.56 Q112.705 1439.28 109.626 1443.89 Q106.571 1448.47 100.76 1448.47 Q94.9502 1448.47 91.8715 1443.89 Q88.816 1439.28 88.816 1430.56 Q88.816 1421.81 91.8715 1417.22 Q94.9502 1412.62 100.76 1412.62 Z" fill="#000000" fill-rule="nonzero" fill-opacity="1" /><path clip-path="url(#clip120)" d="M120.922 1441.92 L125.807 1441.92 L125.807 1447.8 L120.922 1447.8 L120.922 1441.92 Z" fill="#000000" fill-rule="nonzero" fill-opacity="1" /><path clip-path="url(#clip120)" d="M140.019 1443.87 L156.339 1443.87 L156.339 1447.8 L134.394 1447.8 L134.394 1443.87 Q137.056 1441.11 141.64 1436.48 Q146.246 1431.83 147.427 1430.49 Q149.672 1427.96 150.552 1426.23 Q151.455 1424.47 151.455 1422.78 Q151.455 1420.02 149.51 1418.29 Q147.589 1416.55 144.487 1416.55 Q142.288 1416.55 139.834 1417.31 Q137.404 1418.08 134.626 1419.63 L134.626 1414.91 Q137.45 1413.77 139.904 1413.19 Q142.357 1412.62 144.394 1412.62 Q149.765 1412.62 152.959 1415.3 Q156.154 1417.99 156.154 1422.48 Q156.154 1424.61 155.343 1426.53 Q154.556 1428.43 152.45 1431.02 Q151.871 1431.69 148.769 1434.91 Q145.668 1438.1 140.019 1443.87 Z" fill="#000000" fill-rule="nonzero" fill-opacity="1" /><path clip-path="url(#clip120)" d="M166.2 1413.24 L184.556 1413.24 L184.556 1417.18 L170.482 1417.18 L170.482 1425.65 Q171.501 1425.3 172.519 1425.14 Q173.538 1424.95 174.556 1424.95 Q180.343 1424.95 183.723 1428.13 Q187.103 1431.3 187.103 1436.71 Q187.103 1442.29 183.63 1445.39 Q180.158 1448.47 173.839 1448.47 Q171.663 1448.47 169.394 1448.1 Q167.149 1447.73 164.742 1446.99 L164.742 1442.29 Q166.825 1443.43 169.047 1443.98 Q171.269 1444.54 173.746 1444.54 Q177.751 1444.54 180.089 1442.43 Q182.427 1440.32 182.427 1436.71 Q182.427 1433.1 180.089 1431 Q177.751 1428.89 173.746 1428.89 Q171.871 1428.89 169.996 1429.31 Q168.144 1429.72 166.2 1430.6 L166.2 1413.24 Z" fill="#000000" fill-rule="nonzero" fill-opacity="1" /><path clip-path="url(#clip120)" d="M99.765 1209.15 Q96.1539 1209.15 94.3252 1212.71 Q92.5197 1216.25 92.5197 1223.38 Q92.5197 1230.49 94.3252 1234.06 Q96.1539 1237.6 99.765 1237.6 Q103.399 1237.6 105.205 1234.06 Q107.033 1230.49 107.033 1223.38 Q107.033 1216.25 105.205 1212.71 Q103.399 1209.15 99.765 1209.15 M99.765 1205.44 Q105.575 1205.44 108.631 1210.05 Q111.709 1214.63 111.709 1223.38 Q111.709 1232.11 108.631 1236.72 Q105.575 1241.3 99.765 1241.3 Q93.9549 1241.3 90.8762 1236.72 Q87.8206 1232.11 87.8206 1223.38 Q87.8206 1214.63 90.8762 1210.05 Q93.9549 1205.44 99.765 1205.44 Z" fill="#000000" fill-rule="nonzero" fill-opacity="1" /><path clip-path="url(#clip120)" d="M119.927 1234.75 L124.811 1234.75 L124.811 1240.63 L119.927 1240.63 L119.927 1234.75 Z" fill="#000000" fill-rule="nonzero" fill-opacity="1" /><path clip-path="url(#clip120)" d="M144.996 1209.15 Q141.385 1209.15 139.556 1212.71 Q137.751 1216.25 137.751 1223.38 Q137.751 1230.49 139.556 1234.06 Q141.385 1237.6 144.996 1237.6 Q148.63 1237.6 150.436 1234.06 Q152.265 1230.49 152.265 1223.38 Q152.265 1216.25 150.436 1212.71 Q148.63 1209.15 144.996 1209.15 M144.996 1205.44 Q150.806 1205.44 153.862 1210.05 Q156.941 1214.63 156.941 1223.38 Q156.941 1232.11 153.862 1236.72 Q150.806 1241.3 144.996 1241.3 Q139.186 1241.3 136.107 1236.72 Q133.052 1232.11 133.052 1223.38 Q133.052 1214.63 136.107 1210.05 Q139.186 1205.44 144.996 1205.44 Z" fill="#000000" fill-rule="nonzero" fill-opacity="1" /><path clip-path="url(#clip120)" d="M175.158 1209.15 Q171.547 1209.15 169.718 1212.71 Q167.913 1216.25 167.913 1223.38 Q167.913 1230.49 169.718 1234.06 Q171.547 1237.6 175.158 1237.6 Q178.792 1237.6 180.598 1234.06 Q182.427 1230.49 182.427 1223.38 Q182.427 1216.25 180.598 1212.71 Q178.792 1209.15 175.158 1209.15 M175.158 1205.44 Q180.968 1205.44 184.024 1210.05 Q187.103 1214.63 187.103 1223.38 Q187.103 1232.11 184.024 1236.72 Q180.968 1241.3 175.158 1241.3 Q169.348 1241.3 166.269 1236.72 Q163.214 1232.11 163.214 1223.38 Q163.214 1214.63 166.269 1210.05 Q169.348 1205.44 175.158 1205.44 Z" fill="#000000" fill-rule="nonzero" fill-opacity="1" /><path clip-path="url(#clip120)" d="M100.76 1001.98 Q97.1493 1001.98 95.3206 1005.54 Q93.515 1009.08 93.515 1016.21 Q93.515 1023.32 95.3206 1026.88 Q97.1493 1030.43 100.76 1030.43 Q104.395 1030.43 106.2 1026.88 Q108.029 1023.32 108.029 1016.21 Q108.029 1009.08 106.2 1005.54 Q104.395 1001.98 100.76 1001.98 M100.76 998.273 Q106.571 998.273 109.626 1002.88 Q112.705 1007.46 112.705 1016.21 Q112.705 1024.94 109.626 1029.55 Q106.571 1034.13 100.76 1034.13 Q94.9502 1034.13 91.8715 1029.55 Q88.816 1024.94 88.816 1016.21 Q88.816 1007.46 91.8715 1002.88 Q94.9502 998.273 100.76 998.273 Z" fill="#000000" fill-rule="nonzero" fill-opacity="1" /><path clip-path="url(#clip120)" d="M120.922 1027.58 L125.807 1027.58 L125.807 1033.46 L120.922 1033.46 L120.922 1027.58 Z" fill="#000000" fill-rule="nonzero" fill-opacity="1" /><path clip-path="url(#clip120)" d="M140.019 1029.52 L156.339 1029.52 L156.339 1033.46 L134.394 1033.46 L134.394 1029.52 Q137.056 1026.77 141.64 1022.14 Q146.246 1017.49 147.427 1016.14 Q149.672 1013.62 150.552 1011.88 Q151.455 1010.12 151.455 1008.43 Q151.455 1005.68 149.51 1003.94 Q147.589 1002.21 144.487 1002.21 Q142.288 1002.21 139.834 1002.97 Q137.404 1003.74 134.626 1005.29 L134.626 1000.56 Q137.45 999.43 139.904 998.852 Q142.357 998.273 144.394 998.273 Q149.765 998.273 152.959 1000.96 Q156.154 1003.64 156.154 1008.13 Q156.154 1010.26 155.343 1012.18 Q154.556 1014.08 152.45 1016.68 Q151.871 1017.35 148.769 1020.56 Q145.668 1023.76 140.019 1029.52 Z" fill="#000000" fill-rule="nonzero" fill-opacity="1" /><path clip-path="url(#clip120)" d="M166.2 998.898 L184.556 998.898 L184.556 1002.83 L170.482 1002.83 L170.482 1011.31 Q171.501 1010.96 172.519 1010.8 Q173.538 1010.61 174.556 1010.61 Q180.343 1010.61 183.723 1013.78 Q187.103 1016.95 187.103 1022.37 Q187.103 1027.95 183.63 1031.05 Q180.158 1034.13 173.839 1034.13 Q171.663 1034.13 169.394 1033.76 Q167.149 1033.39 164.742 1032.65 L164.742 1027.95 Q166.825 1029.08 169.047 1029.64 Q171.269 1030.19 173.746 1030.19 Q177.751 1030.19 180.089 1028.09 Q182.427 1025.98 182.427 1022.37 Q182.427 1018.76 180.089 1016.65 Q177.751 1014.55 173.746 1014.55 Q171.871 1014.55 169.996 1014.96 Q168.144 1015.38 166.2 1016.26 L166.2 998.898 Z" fill="#000000" fill-rule="nonzero" fill-opacity="1" /><path clip-path="url(#clip120)" d="M99.765 794.805 Q96.1539 794.805 94.3252 798.37 Q92.5197 801.912 92.5197 809.041 Q92.5197 816.148 94.3252 819.712 Q96.1539 823.254 99.765 823.254 Q103.399 823.254 105.205 819.712 Q107.033 816.148 107.033 809.041 Q107.033 801.912 105.205 798.37 Q103.399 794.805 99.765 794.805 M99.765 791.101 Q105.575 791.101 108.631 795.708 Q111.709 800.291 111.709 809.041 Q111.709 817.768 108.631 822.374 Q105.575 826.958 99.765 826.958 Q93.9549 826.958 90.8762 822.374 Q87.8206 817.768 87.8206 809.041 Q87.8206 800.291 90.8762 795.708 Q93.9549 791.101 99.765 791.101 Z" fill="#000000" fill-rule="nonzero" fill-opacity="1" /><path clip-path="url(#clip120)" d="M119.927 820.407 L124.811 820.407 L124.811 826.286 L119.927 826.286 L119.927 820.407 Z" fill="#000000" fill-rule="nonzero" fill-opacity="1" /><path clip-path="url(#clip120)" d="M135.043 791.726 L153.399 791.726 L153.399 795.662 L139.325 795.662 L139.325 804.134 Q140.343 803.787 141.362 803.625 Q142.381 803.439 143.399 803.439 Q149.186 803.439 152.566 806.611 Q155.945 809.782 155.945 815.199 Q155.945 820.777 152.473 823.879 Q149.001 826.958 142.681 826.958 Q140.506 826.958 138.237 826.587 Q135.992 826.217 133.584 825.476 L133.584 820.777 Q135.668 821.911 137.89 822.467 Q140.112 823.023 142.589 823.023 Q146.593 823.023 148.931 820.916 Q151.269 818.81 151.269 815.199 Q151.269 811.587 148.931 809.481 Q146.593 807.374 142.589 807.374 Q140.714 807.374 138.839 807.791 Q136.987 808.208 135.043 809.087 L135.043 791.726 Z" fill="#000000" fill-rule="nonzero" fill-opacity="1" /><path clip-path="url(#clip120)" d="M175.158 794.805 Q171.547 794.805 169.718 798.37 Q167.913 801.912 167.913 809.041 Q167.913 816.148 169.718 819.712 Q171.547 823.254 175.158 823.254 Q178.792 823.254 180.598 819.712 Q182.427 816.148 182.427 809.041 Q182.427 801.912 180.598 798.37 Q178.792 794.805 175.158 794.805 M175.158 791.101 Q180.968 791.101 184.024 795.708 Q187.103 800.291 187.103 809.041 Q187.103 817.768 184.024 822.374 Q180.968 826.958 175.158 826.958 Q169.348 826.958 166.269 822.374 Q163.214 817.768 163.214 809.041 Q163.214 800.291 166.269 795.708 Q169.348 791.101 175.158 791.101 Z" fill="#000000" fill-rule="nonzero" fill-opacity="1" /><path clip-path="url(#clip120)" d="M100.76 587.634 Q97.1493 587.634 95.3206 591.198 Q93.515 594.74 93.515 601.87 Q93.515 608.976 95.3206 612.541 Q97.1493 616.083 100.76 616.083 Q104.395 616.083 106.2 612.541 Q108.029 608.976 108.029 601.87 Q108.029 594.74 106.2 591.198 Q104.395 587.634 100.76 587.634 M100.76 583.93 Q106.571 583.93 109.626 588.536 Q112.705 593.12 112.705 601.87 Q112.705 610.596 109.626 615.203 Q106.571 619.786 100.76 619.786 Q94.9502 619.786 91.8715 615.203 Q88.816 610.596 88.816 601.87 Q88.816 593.12 91.8715 588.536 Q94.9502 583.93 100.76 583.93 Z" fill="#000000" fill-rule="nonzero" fill-opacity="1" /><path clip-path="url(#clip120)" d="M120.922 613.235 L125.807 613.235 L125.807 619.115 L120.922 619.115 L120.922 613.235 Z" fill="#000000" fill-rule="nonzero" fill-opacity="1" /><path clip-path="url(#clip120)" d="M134.811 584.555 L157.033 584.555 L157.033 586.546 L144.487 619.115 L139.603 619.115 L151.408 588.49 L134.811 588.49 L134.811 584.555 Z" fill="#000000" fill-rule="nonzero" fill-opacity="1" /><path clip-path="url(#clip120)" d="M166.2 584.555 L184.556 584.555 L184.556 588.49 L170.482 588.49 L170.482 596.962 Q171.501 596.615 172.519 596.453 Q173.538 596.268 174.556 596.268 Q180.343 596.268 183.723 599.439 Q187.103 602.61 187.103 608.027 Q187.103 613.606 183.63 616.708 Q180.158 619.786 173.839 619.786 Q171.663 619.786 169.394 619.416 Q167.149 619.045 164.742 618.305 L164.742 613.606 Q166.825 614.74 169.047 615.295 Q171.269 615.851 173.746 615.851 Q177.751 615.851 180.089 613.745 Q182.427 611.638 182.427 608.027 Q182.427 604.416 180.089 602.309 Q177.751 600.203 173.746 600.203 Q171.871 600.203 169.996 600.62 Q168.144 601.036 166.2 601.916 L166.2 584.555 Z" fill="#000000" fill-rule="nonzero" fill-opacity="1" /><path clip-path="url(#clip120)" d="M90.5752 408.008 L98.2141 408.008 L98.2141 381.643 L89.904 383.309 L89.904 379.05 L98.1678 377.383 L102.844 377.383 L102.844 408.008 L110.483 408.008 L110.483 411.943 L90.5752 411.943 L90.5752 408.008 Z" fill="#000000" fill-rule="nonzero" fill-opacity="1" /><path clip-path="url(#clip120)" d="M119.927 406.064 L124.811 406.064 L124.811 411.943 L119.927 411.943 L119.927 406.064 Z" fill="#000000" fill-rule="nonzero" fill-opacity="1" /><path clip-path="url(#clip120)" d="M144.996 380.462 Q141.385 380.462 139.556 384.027 Q137.751 387.569 137.751 394.698 Q137.751 401.805 139.556 405.369 Q141.385 408.911 144.996 408.911 Q148.63 408.911 150.436 405.369 Q152.265 401.805 152.265 394.698 Q152.265 387.569 150.436 384.027 Q148.63 380.462 144.996 380.462 M144.996 376.758 Q150.806 376.758 153.862 381.365 Q156.941 385.948 156.941 394.698 Q156.941 403.425 153.862 408.031 Q150.806 412.615 144.996 412.615 Q139.186 412.615 136.107 408.031 Q133.052 403.425 133.052 394.698 Q133.052 385.948 136.107 381.365 Q139.186 376.758 144.996 376.758 Z" fill="#000000" fill-rule="nonzero" fill-opacity="1" /><path clip-path="url(#clip120)" d="M175.158 380.462 Q171.547 380.462 169.718 384.027 Q167.913 387.569 167.913 394.698 Q167.913 401.805 169.718 405.369 Q171.547 408.911 175.158 408.911 Q178.792 408.911 180.598 405.369 Q182.427 401.805 182.427 394.698 Q182.427 387.569 180.598 384.027 Q178.792 380.462 175.158 380.462 M175.158 376.758 Q180.968 376.758 184.024 381.365 Q187.103 385.948 187.103 394.698 Q187.103 403.425 184.024 408.031 Q180.968 412.615 175.158 412.615 Q169.348 412.615 166.269 408.031 Q163.214 403.425 163.214 394.698 Q163.214 385.948 166.269 381.365 Q169.348 376.758 175.158 376.758 Z" fill="#000000" fill-rule="nonzero" fill-opacity="1" /><path clip-path="url(#clip120)" d="M91.5706 200.837 L99.2095 200.837 L99.2095 174.471 L90.8993 176.138 L90.8993 171.879 L99.1632 170.212 L103.839 170.212 L103.839 200.837 L111.478 200.837 L111.478 204.772 L91.5706 204.772 L91.5706 200.837 Z" fill="#000000" fill-rule="nonzero" fill-opacity="1" /><path clip-path="url(#clip120)" d="M120.922 198.892 L125.807 198.892 L125.807 204.772 L120.922 204.772 L120.922 198.892 Z" fill="#000000" fill-rule="nonzero" fill-opacity="1" /><path clip-path="url(#clip120)" d="M140.019 200.837 L156.339 200.837 L156.339 204.772 L134.394 204.772 L134.394 200.837 Q137.056 198.082 141.64 193.453 Q146.246 188.8 147.427 187.457 Q149.672 184.934 150.552 183.198 Q151.455 181.439 151.455 179.749 Q151.455 176.994 149.51 175.258 Q147.589 173.522 144.487 173.522 Q142.288 173.522 139.834 174.286 Q137.404 175.05 134.626 176.601 L134.626 171.879 Q137.45 170.744 139.904 170.166 Q142.357 169.587 144.394 169.587 Q149.765 169.587 152.959 172.272 Q156.154 174.957 156.154 179.448 Q156.154 181.578 155.343 183.499 Q154.556 185.397 152.45 187.99 Q151.871 188.661 148.769 191.878 Q145.668 195.073 140.019 200.837 Z" fill="#000000" fill-rule="nonzero" fill-opacity="1" /><path clip-path="url(#clip120)" d="M166.2 170.212 L184.556 170.212 L184.556 174.147 L170.482 174.147 L170.482 182.619 Q171.501 182.272 172.519 182.11 Q173.538 181.925 174.556 181.925 Q180.343 181.925 183.723 185.096 Q187.103 188.267 187.103 193.684 Q187.103 199.263 183.63 202.365 Q180.158 205.443 173.839 205.443 Q171.663 205.443 169.394 205.073 Q167.149 204.702 164.742 203.962 L164.742 199.263 Q166.825 200.397 169.047 200.952 Q171.269 201.508 173.746 201.508 Q177.751 201.508 180.089 199.402 Q182.427 197.295 182.427 193.684 Q182.427 190.073 180.089 187.966 Q177.751 185.86 173.746 185.86 Q171.871 185.86 169.996 186.277 Q168.144 186.693 166.2 187.573 L166.2 170.212 Z" fill="#000000" fill-rule="nonzero" fill-opacity="1" /><polyline clip-path="url(#clip122)" style="stroke:#009af9; stroke-linecap:round; stroke-linejoin:round; stroke-width:16; stroke-opacity:1; fill:none" stroke-dasharray="8, 16" points="283.376,1098.88 293.472,1117.92 303.568,1118.51 313.664,1093.09 323.76,1059.58 333.856,1026.68 343.952,984.651 354.048,978.114 364.144,1084.47 374.24,1189.16 384.336,1180.83 394.432,1171.82 404.528,1202.71 414.624,1230.31 424.72,1254.7 434.816,1287.71 444.912,1317.01 455.008,1346.1 465.104,1392.81 475.2,1423.5 485.296,1399.88 495.392,1358.24 505.488,1346.7 515.584,1361.35 525.68,1368.58 535.776,1350.6 545.872,1312.32 555.968,1277.49 566.064,1270.28 576.16,1261.28 586.256,1188.61 596.352,1105.48 606.448,1124.98 616.544,1166.07 626.64,1137.83 636.736,1088.97 646.832,1067.91 656.928,1075.46 667.024,1081.91 677.12,1072.4 687.216,1063.61 697.312,1073.3 707.408,1093.01 717.504,1108.79 727.6,1131.86 737.696,1145.26 747.792,1120.75 757.888,1110.86 767.984,1177.32 778.08,1295.26 788.176,1394.5 798.272,1429.15 808.369,1400.69 818.465,1352 828.561,1339.35 838.657,1370.66 848.753,1388.79 858.849,1388.97 868.945,1421.67 879.041,1445.72 889.137,1403 899.233,1323.56 909.329,1270.25 919.425,1245 929.521,1220.96 939.617,1217.17 949.713,1215.64 959.809,1168.65 969.905,1118.56 980.001,1107.51 990.097,1110.67 1000.19,1105.89 1010.29,1094.95 1020.38,1063.51 1030.48,988.639 1040.58,913.659 1050.67,941.173 1060.77,1070.6 1070.86,1182.67 1080.96,1188.23 1091.06,1148.08 1101.15,1178.65 1111.25,1267.8 1121.34,1343.79 1131.44,1365.29 1141.54,1328.73 1151.63,1281.55 1161.73,1295.8 1171.83,1357.4 1181.92,1386.2 1192.02,1367.88 1202.11,1347.96 1212.21,1351.44 1222.31,1365.95 1232.4,1376.54 1242.5,1377.3 1252.59,1363.91 1262.69,1323.3 1272.79,1203.92 1282.88,907.007 1292.98,530.146 1303.07,385.76 1313.17,411.758 1323.27,440.975 1333.36,437.361 1343.46,418.567 1353.55,406.629 1363.65,410.422 1373.75,416.07 1383.84,398.481 1393.94,366.354 1404.03,363.942 1414.13,399.921 1424.23,412.951 1434.32,377.451 1444.42,351.644 1454.51,370.474 1464.61,412.829 1474.71,435.507 1484.8,387.222 1494.9,279.082 1504.99,252.045 1515.09,369.087 1525.19,502.473 1535.28,519.61 1545.38,445.93 1555.47,406.804 1565.57,437.349 1575.67,476.148 1585.76,476.595 1595.86,444.669 1605.95,388.668 1616.05,318.572 1626.15,284.495 1636.24,308.253 1646.34,338.103 1656.43,370.064 1666.53,420.991 1676.63,442.976 1686.72,424.5 1696.82,424.921 1706.91,457.658 1717.01,446.833 1727.11,362.78 1737.2,299.183 1747.3,288.984 1757.39,283.204 1767.49,271.646 1777.59,284.332 1787.68,349.625 1797.78,459.486 1807.87,558.176 1817.97,582.864 1828.07,522.961 1838.16,433.29 1848.26,358.083 1858.35,287.256 1868.45,234.259 1878.55,246.184 1888.64,314.785 1898.74,394.316 1908.83,465.458 1918.93,523.563 1929.03,545.134 1939.12,502.96 1949.22,412.628 1959.31,348.937 1969.41,381.997 1979.51,411.301 1989.6,329.405 1999.7,264.119 2009.79,314.561 2019.89,420.183 2029.99,506.523 2040.08,560.221 2050.18,590.66 2060.27,594.094 2070.37,545.484 2080.47,416.15 2090.56,230.121 2100.66,87.9763 2110.75,89.8323 2120.85,212.121 2130.95,351.448 2141.04,461.335 2151.14,538.288 2161.23,584.234 2171.33,607.547 2181.43,581.261 2191.52,444.453 2201.62,262.255 2211.71,220.467 2221.81,284.427 2231.91,314.443 2242,337.606 2252.1,388.688 2262.19,449.261 2272.29,506.852 2282.39,561.463 2292.48,600.835 "/>
<polyline clip-path="url(#clip122)" style="stroke:#e26f46; stroke-linecap:round; stroke-linejoin:round; stroke-width:4; stroke-opacity:1; fill:none" points="283.376,1098.88 293.472,1081.22 303.568,1068.2 313.664,1060.25 323.76,1057.61 333.856,1060.39 343.952,1068.48 354.048,1081.63 364.144,1099.4 374.24,1121.22 384.336,1146.38 394.432,1174.04 404.528,1203.31 414.624,1233.24 424.72,1262.85 434.816,1291.16 444.912,1317.26 455.008,1340.3 465.104,1359.52 475.2,1374.3 485.296,1384.15 495.392,1388.75 505.488,1387.95 515.584,1381.78 525.68,1370.44 535.776,1354.3 545.872,1333.89 555.968,1309.87 566.064,1283.02 576.16,1254.23 586.256,1224.43 596.352,1194.59 606.448,1165.69 616.544,1138.68 626.64,1114.42 636.736,1093.73 646.832,1077.26 656.928,1065.56 667.024,1059.01 677.12,1057.83 687.216,1062.04 697.312,1071.52 707.408,1085.96 717.504,1104.88 727.6,1127.67 737.696,1153.58 747.792,1181.77 757.888,1211.31 767.984,1241.25 778.08,1270.6 788.176,1298.41 798.272,1323.77 808.369,1345.85 818.465,1363.94 828.561,1377.44 838.657,1385.9 848.753,1389.07 858.849,1386.82 868.945,1379.24 879.041,1366.57 889.137,1349.23 899.233,1327.77 909.329,1302.91 919.425,1275.46 929.521,1246.3 939.617,1216.39 949.713,1186.71 959.809,1158.23 969.905,1131.87 980.001,1108.5 990.097,1088.87 1000.19,1073.64 1010.29,1063.29 1020.38,1058.16 1030.48,1058.43 1040.58,1064.08 1050.67,1074.92 1060.77,1090.61 1070.86,1110.64 1080.96,1134.34 1091.06,1160.94 1101.15,1189.59 1111.25,1219.33 1121.34,1249.21 1131.44,1278.24 1141.54,1305.48 1151.63,1330.04 1161.73,1351.12 1171.83,1368.03 1181.92,1380.21 1192.02,1387.28 1202.11,1389 1212.21,1385.31 1222.31,1376.33 1232.4,1362.36 1242.5,1343.85 1252.59,1321.42 1262.69,1295.78 1272.79,1267.77 1282.88,1238.32 1292.98,393.46 1303.07,392.09 1313.17,393.337 1323.27,397.486 1333.36,403.267 1343.46,408.237 1353.55,409.709 1363.65,405.885 1373.75,396.769 1383.84,384.48 1393.94,372.787 1404.03,365.955 1414.13,367.266 1424.23,377.689 1434.32,395.22 1444.42,415.172 1454.51,431.419 1464.61,438.273 1474.71,432.406 1484.8,414.203 1494.9,388.021 1504.99,361.188 1515.09,341.958 1525.19,336.975 1535.28,349.052 1545.38,375.958 1555.47,410.707 1565.57,443.349 1575.67,463.82 1585.76,465.033 1595.86,445.255 1605.95,409.008 1616.05,366.101 1626.15,328.986 1636.24,309.146 1646.34,313.558 1656.43,342.322 1666.53,388.242 1676.63,438.581 1686.72,478.596 1696.82,495.848 1706.91,484.051 1717.01,445.257 1727.11,389.655 1737.2,332.914 1747.3,291.772 1757.39,279.102 1767.49,299.908 1777.59,349.498 1787.68,414.463 1797.78,476.286 1807.87,516.62 1817.97,522.729 1828.07,491.476 1838.16,430.622 1848.26,356.945 1858.35,291.624 1868.45,254.15 1878.55,256.519 1888.64,299.431 1898.74,371.693 1908.83,453.106 1918.93,520.112 1929.03,552.603 1939.12,539.951 1949.22,484.429 1959.31,400.953 1969.41,313.091 1979.51,246.411 1989.6,221.047 1999.7,245.627 2009.79,314.412 2019.89,408.566 2029.99,501.298 2040.08,565.486 2050.18,581.609 2060.27,543.662 2070.37,461.279 2080.47,357.33 2090.56,261.575 2100.66,202.152 2110.75,197.305 2120.85,249.81 2130.95,345.779 2141.04,458.305 2151.14,555.004 2161.23,607.329 2171.33,598.998 2181.43,531.028 2191.52,421.838 2201.62,302.277 2211.71,206.911 2221.81,164.028 2231.91,187.259 2242,271.281 2252.1,392.962 2262.19,517.711 2272.29,609.32 2282.39,640.46 2292.48,600.835 "/>
<path clip-path="url(#clip120)" d="M294.091 250.738 L733.884 250.738 L733.884 95.2176 L294.091 95.2176  Z" fill="#ffffff" fill-rule="evenodd" fill-opacity="1"/>
<polyline clip-path="url(#clip120)" style="stroke:#000000; stroke-linecap:round; stroke-linejoin:round; stroke-width:4; stroke-opacity:1; fill:none" points="294.091,250.738 733.884,250.738 733.884,95.2176 294.091,95.2176 294.091,250.738 "/>
<polyline clip-path="url(#clip120)" style="stroke:#009af9; stroke-linecap:round; stroke-linejoin:round; stroke-width:16; stroke-opacity:1; fill:none" stroke-dasharray="8, 16" points="317.754,147.058 459.731,147.058 "/>
<path clip-path="url(#clip120)" d="M488.069 133.62 L488.069 146.606 L493.949 146.606 Q497.213 146.606 498.995 144.916 Q500.778 143.227 500.778 140.102 Q500.778 137 498.995 135.31 Q497.213 133.62 493.949 133.62 L488.069 133.62 M483.393 129.778 L493.949 129.778 Q499.759 129.778 502.722 132.416 Q505.708 135.032 505.708 140.102 Q505.708 145.217 502.722 147.833 Q499.759 150.449 493.949 150.449 L488.069 150.449 L488.069 164.338 L483.393 164.338 L483.393 129.778 Z" fill="#000000" fill-rule="nonzero" fill-opacity="1" /><path clip-path="url(#clip120)" d="M525.986 142.393 Q525.268 141.977 524.412 141.791 Q523.578 141.583 522.56 141.583 Q518.949 141.583 517.004 143.944 Q515.083 146.282 515.083 150.68 L515.083 164.338 L510.801 164.338 L510.801 138.412 L515.083 138.412 L515.083 142.44 Q516.426 140.078 518.578 138.944 Q520.731 137.787 523.81 137.787 Q524.25 137.787 524.782 137.856 Q525.315 137.903 525.963 138.018 L525.986 142.393 Z" fill="#000000" fill-rule="nonzero" fill-opacity="1" /><path clip-path="url(#clip120)" d="M551.588 150.31 L551.588 152.393 L532.004 152.393 Q532.282 156.791 534.643 159.106 Q537.027 161.398 541.264 161.398 Q543.717 161.398 546.009 160.796 Q548.324 160.194 550.592 158.99 L550.592 163.018 Q548.301 163.99 545.893 164.5 Q543.486 165.009 541.009 165.009 Q534.805 165.009 531.171 161.398 Q527.56 157.787 527.56 151.629 Q527.56 145.264 530.986 141.537 Q534.435 137.787 540.268 137.787 Q545.5 137.787 548.532 141.166 Q551.588 144.523 551.588 150.31 M547.328 149.06 Q547.282 145.565 545.361 143.481 Q543.463 141.398 540.314 141.398 Q536.75 141.398 534.597 143.412 Q532.467 145.426 532.143 149.083 L547.328 149.06 Z" fill="#000000" fill-rule="nonzero" fill-opacity="1" /><path clip-path="url(#clip120)" d="M575.638 142.347 L575.638 128.319 L579.898 128.319 L579.898 164.338 L575.638 164.338 L575.638 160.449 Q574.296 162.763 572.236 163.898 Q570.199 165.009 567.328 165.009 Q562.629 165.009 559.666 161.259 Q556.726 157.509 556.726 151.398 Q556.726 145.287 559.666 141.537 Q562.629 137.787 567.328 137.787 Q570.199 137.787 572.236 138.921 Q574.296 140.032 575.638 142.347 M561.125 151.398 Q561.125 156.097 563.046 158.782 Q564.99 161.444 568.37 161.444 Q571.749 161.444 573.694 158.782 Q575.638 156.097 575.638 151.398 Q575.638 146.699 573.694 144.037 Q571.749 141.352 568.37 141.352 Q564.99 141.352 563.046 144.037 Q561.125 146.699 561.125 151.398 Z" fill="#000000" fill-rule="nonzero" fill-opacity="1" /><path clip-path="url(#clip120)" d="M588.671 138.412 L592.93 138.412 L592.93 164.338 L588.671 164.338 L588.671 138.412 M588.671 128.319 L592.93 128.319 L592.93 133.713 L588.671 133.713 L588.671 128.319 Z" fill="#000000" fill-rule="nonzero" fill-opacity="1" /><path clip-path="url(#clip120)" d="M620.499 139.407 L620.499 143.389 Q618.694 142.393 616.865 141.907 Q615.059 141.398 613.208 141.398 Q609.064 141.398 606.772 144.037 Q604.481 146.652 604.481 151.398 Q604.481 156.143 606.772 158.782 Q609.064 161.398 613.208 161.398 Q615.059 161.398 616.865 160.912 Q618.694 160.402 620.499 159.407 L620.499 163.342 Q618.717 164.176 616.796 164.592 Q614.897 165.009 612.745 165.009 Q606.888 165.009 603.439 161.328 Q599.99 157.648 599.99 151.398 Q599.99 145.055 603.462 141.421 Q606.958 137.787 613.022 137.787 Q614.99 137.787 616.865 138.203 Q618.74 138.597 620.499 139.407 Z" fill="#000000" fill-rule="nonzero" fill-opacity="1" /><path clip-path="url(#clip120)" d="M632.12 131.051 L632.12 138.412 L640.893 138.412 L640.893 141.722 L632.12 141.722 L632.12 155.796 Q632.12 158.967 632.976 159.87 Q633.856 160.773 636.518 160.773 L640.893 160.773 L640.893 164.338 L636.518 164.338 Q631.587 164.338 629.712 162.509 Q627.837 160.657 627.837 155.796 L627.837 141.722 L624.712 141.722 L624.712 138.412 L627.837 138.412 L627.837 131.051 L632.12 131.051 Z" fill="#000000" fill-rule="nonzero" fill-opacity="1" /><path clip-path="url(#clip120)" d="M646.494 138.412 L650.754 138.412 L650.754 164.338 L646.494 164.338 L646.494 138.412 M646.494 128.319 L650.754 128.319 L650.754 133.713 L646.494 133.713 L646.494 128.319 Z" fill="#000000" fill-rule="nonzero" fill-opacity="1" /><path clip-path="url(#clip120)" d="M669.712 141.398 Q666.286 141.398 664.295 144.083 Q662.305 146.745 662.305 151.398 Q662.305 156.051 664.272 158.736 Q666.263 161.398 669.712 161.398 Q673.115 161.398 675.105 158.713 Q677.096 156.027 677.096 151.398 Q677.096 146.791 675.105 144.106 Q673.115 141.398 669.712 141.398 M669.712 137.787 Q675.267 137.787 678.439 141.398 Q681.61 145.009 681.61 151.398 Q681.61 157.764 678.439 161.398 Q675.267 165.009 669.712 165.009 Q664.133 165.009 660.962 161.398 Q657.814 157.764 657.814 151.398 Q657.814 145.009 660.962 141.398 Q664.133 137.787 669.712 137.787 Z" fill="#000000" fill-rule="nonzero" fill-opacity="1" /><path clip-path="url(#clip120)" d="M710.221 148.689 L710.221 164.338 L705.962 164.338 L705.962 148.828 Q705.962 145.148 704.527 143.319 Q703.091 141.49 700.221 141.49 Q696.772 141.49 694.781 143.69 Q692.791 145.889 692.791 149.685 L692.791 164.338 L688.508 164.338 L688.508 138.412 L692.791 138.412 L692.791 142.44 Q694.318 140.102 696.378 138.944 Q698.462 137.787 701.17 137.787 Q705.638 137.787 707.929 140.565 Q710.221 143.319 710.221 148.689 Z" fill="#000000" fill-rule="nonzero" fill-opacity="1" /><polyline clip-path="url(#clip120)" style="stroke:#e26f46; stroke-linecap:round; stroke-linejoin:round; stroke-width:4; stroke-opacity:1; fill:none" points="317.754,198.898 459.731,198.898 "/>
<path clip-path="url(#clip120)" d="M483.393 181.618 L505.245 181.618 L505.245 185.553 L488.069 185.553 L488.069 195.784 L504.528 195.784 L504.528 199.719 L488.069 199.719 L488.069 212.242 L505.662 212.242 L505.662 216.178 L483.393 216.178 L483.393 181.618 Z" fill="#000000" fill-rule="nonzero" fill-opacity="1" /><path clip-path="url(#clip120)" d="M534.713 190.252 L525.338 202.867 L535.199 216.178 L530.176 216.178 L522.629 205.992 L515.083 216.178 L510.06 216.178 L520.129 202.613 L510.916 190.252 L515.94 190.252 L522.815 199.488 L529.69 190.252 L534.713 190.252 Z" fill="#000000" fill-rule="nonzero" fill-opacity="1" /><path clip-path="url(#clip120)" d="M553 203.145 Q547.838 203.145 545.847 204.326 Q543.856 205.506 543.856 208.354 Q543.856 210.622 545.338 211.965 Q546.842 213.284 549.412 213.284 Q552.953 213.284 555.083 210.784 Q557.236 208.261 557.236 204.094 L557.236 203.145 L553 203.145 M561.495 201.386 L561.495 216.178 L557.236 216.178 L557.236 212.242 Q555.777 214.603 553.601 215.738 Q551.426 216.849 548.277 216.849 Q544.296 216.849 541.935 214.627 Q539.597 212.381 539.597 208.631 Q539.597 204.256 542.514 202.034 Q545.453 199.812 551.263 199.812 L557.236 199.812 L557.236 199.395 Q557.236 196.455 555.291 194.858 Q553.37 193.238 549.875 193.238 Q547.652 193.238 545.546 193.77 Q543.439 194.303 541.495 195.367 L541.495 191.432 Q543.833 190.53 546.032 190.09 Q548.231 189.627 550.314 189.627 Q555.939 189.627 558.717 192.543 Q561.495 195.46 561.495 201.386 Z" fill="#000000" fill-rule="nonzero" fill-opacity="1" /><path clip-path="url(#clip120)" d="M588.925 191.247 L588.925 195.229 Q587.12 194.233 585.291 193.747 Q583.486 193.238 581.634 193.238 Q577.49 193.238 575.199 195.877 Q572.907 198.492 572.907 203.238 Q572.907 207.983 575.199 210.622 Q577.49 213.238 581.634 213.238 Q583.486 213.238 585.291 212.752 Q587.12 212.242 588.925 211.247 L588.925 215.182 Q587.143 216.016 585.222 216.432 Q583.323 216.849 581.171 216.849 Q575.314 216.849 571.865 213.168 Q568.416 209.488 568.416 203.238 Q568.416 196.895 571.888 193.261 Q575.384 189.627 581.449 189.627 Q583.416 189.627 585.291 190.043 Q587.166 190.437 588.925 191.247 Z" fill="#000000" fill-rule="nonzero" fill-opacity="1" /><path clip-path="url(#clip120)" d="M600.546 182.891 L600.546 190.252 L609.319 190.252 L609.319 193.562 L600.546 193.562 L600.546 207.636 Q600.546 210.807 601.402 211.71 Q602.282 212.613 604.944 212.613 L609.319 212.613 L609.319 216.178 L604.944 216.178 Q600.013 216.178 598.138 214.349 Q596.263 212.497 596.263 207.636 L596.263 193.562 L593.138 193.562 L593.138 190.252 L596.263 190.252 L596.263 182.891 L600.546 182.891 Z" fill="#000000" fill-rule="nonzero" fill-opacity="1" /></svg>
