<?xml version="1.0" encoding="utf-8"?>
<svg xmlns="http://www.w3.org/2000/svg" xmlns:xlink="http://www.w3.org/1999/xlink" width="600" height="400" viewBox="0 0 2400 1600">
<defs>
  <clipPath id="clip180">
    <rect x="0" y="0" width="2400" height="1600"/>
  </clipPath>
</defs>
<path clip-path="url(#clip180)" d="M0 1600 L2400 1600 L2400 0 L0 0  Z" fill="#ffffff" fill-rule="evenodd" fill-opacity="1"/>
<defs>
  <clipPath id="clip181">
    <rect x="480" y="0" width="1681" height="1600"/>
  </clipPath>
</defs>
<path clip-path="url(#clip180)" d="M156.274 1486.45 L2352.76 1486.45 L2352.76 47.2441 L156.274 47.2441  Z" fill="#ffffff" fill-rule="evenodd" fill-opacity="1"/>
<defs>
  <clipPath id="clip182">
    <rect x="156" y="47" width="2197" height="1440"/>
  </clipPath>
</defs>
<polyline clip-path="url(#clip182)" style="stroke:#000000; stroke-linecap:round; stroke-linejoin:round; stroke-width:2; stroke-opacity:0.1; fill:none" points="218.439,1486.45 218.439,47.2441 "/>
<polyline clip-path="url(#clip182)" style="stroke:#000000; stroke-linecap:round; stroke-linejoin:round; stroke-width:2; stroke-opacity:0.1; fill:none" points="736.477,1486.45 736.477,47.2441 "/>
<polyline clip-path="url(#clip182)" style="stroke:#000000; stroke-linecap:round; stroke-linejoin:round; stroke-width:2; stroke-opacity:0.1; fill:none" points="1254.52,1486.45 1254.52,47.2441 "/>
<polyline clip-path="url(#clip182)" style="stroke:#000000; stroke-linecap:round; stroke-linejoin:round; stroke-width:2; stroke-opacity:0.1; fill:none" points="1772.55,1486.45 1772.55,47.2441 "/>
<polyline clip-path="url(#clip182)" style="stroke:#000000; stroke-linecap:round; stroke-linejoin:round; stroke-width:2; stroke-opacity:0.1; fill:none" points="2290.59,1486.45 2290.59,47.2441 "/>
<polyline clip-path="url(#clip180)" style="stroke:#000000; stroke-linecap:round; stroke-linejoin:round; stroke-width:4; stroke-opacity:1; fill:none" points="156.274,1486.45 2352.76,1486.45 "/>
<polyline clip-path="url(#clip180)" style="stroke:#000000; stroke-linecap:round; stroke-linejoin:round; stroke-width:4; stroke-opacity:1; fill:none" points="218.439,1486.45 218.439,1467.55 "/>
<polyline clip-path="url(#clip180)" style="stroke:#000000; stroke-linecap:round; stroke-linejoin:round; stroke-width:4; stroke-opacity:1; fill:none" points="736.477,1486.45 736.477,1467.55 "/>
<polyline clip-path="url(#clip180)" style="stroke:#000000; stroke-linecap:round; stroke-linejoin:round; stroke-width:4; stroke-opacity:1; fill:none" points="1254.52,1486.45 1254.52,1467.55 "/>
<polyline clip-path="url(#clip180)" style="stroke:#000000; stroke-linecap:round; stroke-linejoin:round; stroke-width:4; stroke-opacity:1; fill:none" points="1772.55,1486.45 1772.55,1467.55 "/>
<polyline clip-path="url(#clip180)" style="stroke:#000000; stroke-linecap:round; stroke-linejoin:round; stroke-width:4; stroke-opacity:1; fill:none" points="2290.59,1486.45 2290.59,1467.55 "/>
<path clip-path="url(#clip180)" d="M164.967 1532.02 L194.643 1532.02 L194.643 1535.95 L164.967 1535.95 L164.967 1532.02 Z" fill="#000000" fill-rule="nonzero" fill-opacity="1" /><path clip-path="url(#clip180)" d="M205.545 1544.91 L213.184 1544.91 L213.184 1518.55 L204.874 1520.21 L204.874 1515.95 L213.138 1514.29 L217.814 1514.29 L217.814 1544.91 L225.453 1544.91 L225.453 1548.85 L205.545 1548.85 L205.545 1544.91 Z" fill="#000000" fill-rule="nonzero" fill-opacity="1" /><path clip-path="url(#clip180)" d="M234.897 1542.97 L239.781 1542.97 L239.781 1548.85 L234.897 1548.85 L234.897 1542.97 Z" fill="#000000" fill-rule="nonzero" fill-opacity="1" /><path clip-path="url(#clip180)" d="M259.966 1517.37 Q256.355 1517.37 254.527 1520.93 Q252.721 1524.47 252.721 1531.6 Q252.721 1538.71 254.527 1542.27 Q256.355 1545.82 259.966 1545.82 Q263.601 1545.82 265.406 1542.27 Q267.235 1538.71 267.235 1531.6 Q267.235 1524.47 265.406 1520.93 Q263.601 1517.37 259.966 1517.37 M259.966 1513.66 Q265.776 1513.66 268.832 1518.27 Q271.911 1522.85 271.911 1531.6 Q271.911 1540.33 268.832 1544.94 Q265.776 1549.52 259.966 1549.52 Q254.156 1549.52 251.077 1544.94 Q248.022 1540.33 248.022 1531.6 Q248.022 1522.85 251.077 1518.27 Q254.156 1513.66 259.966 1513.66 Z" fill="#000000" fill-rule="nonzero" fill-opacity="1" /><path clip-path="url(#clip180)" d="M683.503 1532.02 L713.178 1532.02 L713.178 1535.95 L683.503 1535.95 L683.503 1532.02 Z" fill="#000000" fill-rule="nonzero" fill-opacity="1" /><path clip-path="url(#clip180)" d="M733.271 1517.37 Q729.66 1517.37 727.831 1520.93 Q726.026 1524.47 726.026 1531.6 Q726.026 1538.71 727.831 1542.27 Q729.66 1545.82 733.271 1545.82 Q736.905 1545.82 738.711 1542.27 Q740.539 1538.71 740.539 1531.6 Q740.539 1524.47 738.711 1520.93 Q736.905 1517.37 733.271 1517.37 M733.271 1513.66 Q739.081 1513.66 742.137 1518.27 Q745.215 1522.85 745.215 1531.6 Q745.215 1540.33 742.137 1544.94 Q739.081 1549.52 733.271 1549.52 Q727.461 1549.52 724.382 1544.94 Q721.327 1540.33 721.327 1531.6 Q721.327 1522.85 724.382 1518.27 Q727.461 1513.66 733.271 1513.66 Z" fill="#000000" fill-rule="nonzero" fill-opacity="1" /><path clip-path="url(#clip180)" d="M753.433 1542.97 L758.317 1542.97 L758.317 1548.85 L753.433 1548.85 L753.433 1542.97 Z" fill="#000000" fill-rule="nonzero" fill-opacity="1" /><path clip-path="url(#clip180)" d="M768.548 1514.29 L786.905 1514.29 L786.905 1518.22 L772.831 1518.22 L772.831 1526.7 Q773.849 1526.35 774.868 1526.19 Q775.886 1526 776.905 1526 Q782.692 1526 786.072 1529.17 Q789.451 1532.34 789.451 1537.76 Q789.451 1543.34 785.979 1546.44 Q782.507 1549.52 776.187 1549.52 Q774.011 1549.52 771.743 1549.15 Q769.498 1548.78 767.09 1548.04 L767.09 1543.34 Q769.173 1544.47 771.396 1545.03 Q773.618 1545.58 776.095 1545.58 Q780.099 1545.58 782.437 1543.48 Q784.775 1541.37 784.775 1537.76 Q784.775 1534.15 782.437 1532.04 Q780.099 1529.94 776.095 1529.94 Q774.22 1529.94 772.345 1530.35 Q770.493 1530.77 768.548 1531.65 L768.548 1514.29 Z" fill="#000000" fill-rule="nonzero" fill-opacity="1" /><path clip-path="url(#clip180)" d="M1231.9 1517.37 Q1228.29 1517.37 1226.46 1520.93 Q1224.65 1524.47 1224.65 1531.6 Q1224.65 1538.71 1226.46 1542.27 Q1228.29 1545.82 1231.9 1545.82 Q1235.53 1545.82 1237.34 1542.27 Q1239.17 1538.71 1239.17 1531.6 Q1239.17 1524.47 1237.34 1520.93 Q1235.53 1517.37 1231.9 1517.37 M1231.9 1513.66 Q1237.71 1513.66 1240.77 1518.27 Q1243.84 1522.85 1243.84 1531.6 Q1243.84 1540.33 1240.77 1544.94 Q1237.71 1549.52 1231.9 1549.52 Q1226.09 1549.52 1223.01 1544.94 Q1219.96 1540.33 1219.96 1531.6 Q1219.96 1522.85 1223.01 1518.27 Q1226.09 1513.66 1231.9 1513.66 Z" fill="#000000" fill-rule="nonzero" fill-opacity="1" /><path clip-path="url(#clip180)" d="M1252.06 1542.97 L1256.95 1542.97 L1256.95 1548.85 L1252.06 1548.85 L1252.06 1542.97 Z" fill="#000000" fill-rule="nonzero" fill-opacity="1" /><path clip-path="url(#clip180)" d="M1277.13 1517.37 Q1273.52 1517.37 1271.69 1520.93 Q1269.89 1524.47 1269.89 1531.6 Q1269.89 1538.71 1271.69 1542.27 Q1273.52 1545.82 1277.13 1545.82 Q1280.76 1545.82 1282.57 1542.27 Q1284.4 1538.71 1284.4 1531.6 Q1284.4 1524.47 1282.57 1520.93 Q1280.76 1517.37 1277.13 1517.37 M1277.13 1513.66 Q1282.94 1513.66 1286 1518.27 Q1289.08 1522.85 1289.08 1531.6 Q1289.08 1540.33 1286 1544.94 Q1282.94 1549.52 1277.13 1549.52 Q1271.32 1549.52 1268.24 1544.94 Q1265.19 1540.33 1265.19 1531.6 Q1265.19 1522.85 1268.24 1518.27 Q1271.32 1513.66 1277.13 1513.66 Z" fill="#000000" fill-rule="nonzero" fill-opacity="1" /><path clip-path="url(#clip180)" d="M1750.44 1517.37 Q1746.82 1517.37 1745 1520.93 Q1743.19 1524.47 1743.19 1531.6 Q1743.19 1538.71 1745 1542.27 Q1746.82 1545.82 1750.44 1545.82 Q1754.07 1545.82 1755.88 1542.27 Q1757.7 1538.71 1757.7 1531.6 Q1757.7 1524.47 1755.88 1520.93 Q1754.07 1517.37 1750.44 1517.37 M1750.44 1513.66 Q1756.25 1513.66 1759.3 1518.27 Q1762.38 1522.85 1762.38 1531.6 Q1762.38 1540.33 1759.3 1544.94 Q1756.25 1549.52 1750.44 1549.52 Q1744.63 1549.52 1741.55 1544.94 Q1738.49 1540.33 1738.49 1531.6 Q1738.49 1522.85 1741.55 1518.27 Q1744.63 1513.66 1750.44 1513.66 Z" fill="#000000" fill-rule="nonzero" fill-opacity="1" /><path clip-path="url(#clip180)" d="M1770.6 1542.97 L1775.48 1542.97 L1775.48 1548.85 L1770.6 1548.85 L1770.6 1542.97 Z" fill="#000000" fill-rule="nonzero" fill-opacity="1" /><path clip-path="url(#clip180)" d="M1785.71 1514.29 L1804.07 1514.29 L1804.07 1518.22 L1790 1518.22 L1790 1526.7 Q1791.01 1526.35 1792.03 1526.19 Q1793.05 1526 1794.07 1526 Q1799.86 1526 1803.24 1529.17 Q1806.62 1532.34 1806.62 1537.76 Q1806.62 1543.34 1803.14 1546.44 Q1799.67 1549.52 1793.35 1549.52 Q1791.18 1549.52 1788.91 1549.15 Q1786.66 1548.78 1784.25 1548.04 L1784.25 1543.34 Q1786.34 1544.47 1788.56 1545.03 Q1790.78 1545.58 1793.26 1545.58 Q1797.26 1545.58 1799.6 1543.48 Q1801.94 1541.37 1801.94 1537.76 Q1801.94 1534.15 1799.6 1532.04 Q1797.26 1529.94 1793.26 1529.94 Q1791.38 1529.94 1789.51 1530.35 Q1787.66 1530.77 1785.71 1531.65 L1785.71 1514.29 Z" fill="#000000" fill-rule="nonzero" fill-opacity="1" /><path clip-path="url(#clip180)" d="M2257.74 1544.91 L2265.38 1544.91 L2265.38 1518.55 L2257.07 1520.21 L2257.07 1515.95 L2265.34 1514.29 L2270.01 1514.29 L2270.01 1544.91 L2277.65 1544.91 L2277.65 1548.85 L2257.74 1548.85 L2257.74 1544.91 Z" fill="#000000" fill-rule="nonzero" fill-opacity="1" /><path clip-path="url(#clip180)" d="M2287.1 1542.97 L2291.98 1542.97 L2291.98 1548.85 L2287.1 1548.85 L2287.1 1542.97 Z" fill="#000000" fill-rule="nonzero" fill-opacity="1" /><path clip-path="url(#clip180)" d="M2312.17 1517.37 Q2308.55 1517.37 2306.73 1520.93 Q2304.92 1524.47 2304.92 1531.6 Q2304.92 1538.71 2306.73 1542.27 Q2308.55 1545.82 2312.17 1545.82 Q2315.8 1545.82 2317.61 1542.27 Q2319.43 1538.71 2319.43 1531.6 Q2319.43 1524.47 2317.61 1520.93 Q2315.8 1517.37 2312.17 1517.37 M2312.17 1513.66 Q2317.98 1513.66 2321.03 1518.27 Q2324.11 1522.85 2324.11 1531.6 Q2324.11 1540.33 2321.03 1544.94 Q2317.98 1549.52 2312.17 1549.52 Q2306.36 1549.52 2303.28 1544.94 Q2300.22 1540.33 2300.22 1531.6 Q2300.22 1522.85 2303.28 1518.27 Q2306.36 1513.66 2312.17 1513.66 Z" fill="#000000" fill-rule="nonzero" fill-opacity="1" /><polyline clip-path="url(#clip182)" style="stroke:#000000; stroke-linecap:round; stroke-linejoin:round; stroke-width:2; stroke-opacity:0.1; fill:none" points="156.274,1255.67 2352.76,1255.67 "/>
<polyline clip-path="url(#clip182)" style="stroke:#000000; stroke-linecap:round; stroke-linejoin:round; stroke-width:2; stroke-opacity:0.1; fill:none" points="156.274,986.872 2352.76,986.872 "/>
<polyline clip-path="url(#clip182)" style="stroke:#000000; stroke-linecap:round; stroke-linejoin:round; stroke-width:2; stroke-opacity:0.1; fill:none" points="156.274,718.076 2352.76,718.076 "/>
<polyline clip-path="url(#clip182)" style="stroke:#000000; stroke-linecap:round; stroke-linejoin:round; stroke-width:2; stroke-opacity:0.1; fill:none" points="156.274,449.281 2352.76,449.281 "/>
<polyline clip-path="url(#clip182)" style="stroke:#000000; stroke-linecap:round; stroke-linejoin:round; stroke-width:2; stroke-opacity:0.1; fill:none" points="156.274,180.486 2352.76,180.486 "/>
<polyline clip-path="url(#clip180)" style="stroke:#000000; stroke-linecap:round; stroke-linejoin:round; stroke-width:4; stroke-opacity:1; fill:none" points="156.274,1486.45 156.274,47.2441 "/>
<polyline clip-path="url(#clip180)" style="stroke:#000000; stroke-linecap:round; stroke-linejoin:round; stroke-width:4; stroke-opacity:1; fill:none" points="156.274,1255.67 175.172,1255.67 "/>
<polyline clip-path="url(#clip180)" style="stroke:#000000; stroke-linecap:round; stroke-linejoin:round; stroke-width:4; stroke-opacity:1; fill:none" points="156.274,986.872 175.172,986.872 "/>
<polyline clip-path="url(#clip180)" style="stroke:#000000; stroke-linecap:round; stroke-linejoin:round; stroke-width:4; stroke-opacity:1; fill:none" points="156.274,718.076 175.172,718.076 "/>
<polyline clip-path="url(#clip180)" style="stroke:#000000; stroke-linecap:round; stroke-linejoin:round; stroke-width:4; stroke-opacity:1; fill:none" points="156.274,449.281 175.172,449.281 "/>
<polyline clip-path="url(#clip180)" style="stroke:#000000; stroke-linecap:round; stroke-linejoin:round; stroke-width:4; stroke-opacity:1; fill:none" points="156.274,180.486 175.172,180.486 "/>
<path clip-path="url(#clip180)" d="M63.0985 1241.47 Q59.4875 1241.47 57.6588 1245.03 Q55.8532 1248.57 55.8532 1255.7 Q55.8532 1262.81 57.6588 1266.37 Q59.4875 1269.91 63.0985 1269.91 Q66.7328 1269.91 68.5383 1266.37 Q70.367 1262.81 70.367 1255.7 Q70.367 1248.57 68.5383 1245.03 Q66.7328 1241.47 63.0985 1241.47 M63.0985 1237.76 Q68.9087 1237.76 71.9642 1242.37 Q75.0429 1246.95 75.0429 1255.7 Q75.0429 1264.43 71.9642 1269.03 Q68.9087 1273.62 63.0985 1273.62 Q57.2884 1273.62 54.2097 1269.03 Q51.1542 1264.43 51.1542 1255.7 Q51.1542 1246.95 54.2097 1242.37 Q57.2884 1237.76 63.0985 1237.76 Z" fill="#000000" fill-rule="nonzero" fill-opacity="1" /><path clip-path="url(#clip180)" d="M83.2605 1267.07 L88.1447 1267.07 L88.1447 1272.95 L83.2605 1272.95 L83.2605 1267.07 Z" fill="#000000" fill-rule="nonzero" fill-opacity="1" /><path clip-path="url(#clip180)" d="M108.33 1241.47 Q104.719 1241.47 102.89 1245.03 Q101.084 1248.57 101.084 1255.7 Q101.084 1262.81 102.89 1266.37 Q104.719 1269.91 108.33 1269.91 Q111.964 1269.91 113.77 1266.37 Q115.598 1262.81 115.598 1255.7 Q115.598 1248.57 113.77 1245.03 Q111.964 1241.47 108.33 1241.47 M108.33 1237.76 Q114.14 1237.76 117.195 1242.37 Q120.274 1246.95 120.274 1255.7 Q120.274 1264.43 117.195 1269.03 Q114.14 1273.62 108.33 1273.62 Q102.52 1273.62 99.4409 1269.03 Q96.3854 1264.43 96.3854 1255.7 Q96.3854 1246.95 99.4409 1242.37 Q102.52 1237.76 108.33 1237.76 Z" fill="#000000" fill-rule="nonzero" fill-opacity="1" /><path clip-path="url(#clip180)" d="M63.7467 972.67 Q60.1356 972.67 58.3069 976.235 Q56.5014 979.777 56.5014 986.906 Q56.5014 994.013 58.3069 997.578 Q60.1356 1001.12 63.7467 1001.12 Q67.3809 1001.12 69.1865 997.578 Q71.0152 994.013 71.0152 986.906 Q71.0152 979.777 69.1865 976.235 Q67.3809 972.67 63.7467 972.67 M63.7467 968.967 Q69.5568 968.967 72.6124 973.573 Q75.6911 978.156 75.6911 986.906 Q75.6911 995.633 72.6124 1000.24 Q69.5568 1004.82 63.7467 1004.82 Q57.9365 1004.82 54.8578 1000.24 Q51.8023 995.633 51.8023 986.906 Q51.8023 978.156 54.8578 973.573 Q57.9365 968.967 63.7467 968.967 Z" fill="#000000" fill-rule="nonzero" fill-opacity="1" /><path clip-path="url(#clip180)" d="M83.9086 998.272 L88.7928 998.272 L88.7928 1004.15 L83.9086 1004.15 L83.9086 998.272 Z" fill="#000000" fill-rule="nonzero" fill-opacity="1" /><path clip-path="url(#clip180)" d="M113.145 985.517 Q116.501 986.235 118.376 988.504 Q120.274 990.772 120.274 994.105 Q120.274 999.221 116.756 1002.02 Q113.237 1004.82 106.756 1004.82 Q104.58 1004.82 102.265 1004.38 Q99.9733 1003.97 97.5197 1003.11 L97.5197 998.596 Q99.4641 999.73 101.779 1000.31 Q104.094 1000.89 106.617 1000.89 Q111.015 1000.89 113.307 999.152 Q115.621 997.416 115.621 994.105 Q115.621 991.05 113.469 989.337 Q111.339 987.601 107.52 987.601 L103.492 987.601 L103.492 983.758 L107.705 983.758 Q111.154 983.758 112.983 982.393 Q114.811 981.004 114.811 978.411 Q114.811 975.749 112.913 974.337 Q111.038 972.902 107.52 972.902 Q105.598 972.902 103.399 973.318 Q101.2 973.735 98.5613 974.615 L98.5613 970.448 Q101.223 969.707 103.538 969.337 Q105.876 968.967 107.936 968.967 Q113.26 968.967 116.362 971.397 Q119.464 973.805 119.464 977.925 Q119.464 980.795 117.82 982.786 Q116.177 984.754 113.145 985.517 Z" fill="#000000" fill-rule="nonzero" fill-opacity="1" /><path clip-path="url(#clip180)" d="M62.9365 703.875 Q59.3254 703.875 57.4967 707.44 Q55.6912 710.982 55.6912 718.111 Q55.6912 725.218 57.4967 728.782 Q59.3254 732.324 62.9365 732.324 Q66.5707 732.324 68.3763 728.782 Q70.205 725.218 70.205 718.111 Q70.205 710.982 68.3763 707.44 Q66.5707 703.875 62.9365 703.875 M62.9365 700.171 Q68.7467 700.171 71.8022 704.778 Q74.8809 709.361 74.8809 718.111 Q74.8809 726.838 71.8022 731.444 Q68.7467 736.028 62.9365 736.028 Q57.1264 736.028 54.0477 731.444 Q50.9921 726.838 50.9921 718.111 Q50.9921 709.361 54.0477 704.778 Q57.1264 700.171 62.9365 700.171 Z" fill="#000000" fill-rule="nonzero" fill-opacity="1" /><path clip-path="url(#clip180)" d="M83.0984 729.477 L87.9827 729.477 L87.9827 735.356 L83.0984 735.356 L83.0984 729.477 Z" fill="#000000" fill-rule="nonzero" fill-opacity="1" /><path clip-path="url(#clip180)" d="M108.746 716.213 Q105.598 716.213 103.746 718.366 Q101.918 720.519 101.918 724.268 Q101.918 727.995 103.746 730.171 Q105.598 732.324 108.746 732.324 Q111.895 732.324 113.723 730.171 Q115.575 727.995 115.575 724.268 Q115.575 720.519 113.723 718.366 Q111.895 716.213 108.746 716.213 M118.029 701.56 L118.029 705.82 Q116.27 704.986 114.464 704.546 Q112.682 704.107 110.922 704.107 Q106.293 704.107 103.839 707.232 Q101.409 710.357 101.061 716.676 Q102.427 714.662 104.487 713.597 Q106.547 712.509 109.024 712.509 Q114.233 712.509 117.242 715.681 Q120.274 718.829 120.274 724.268 Q120.274 729.593 117.126 732.81 Q113.978 736.028 108.746 736.028 Q102.751 736.028 99.5798 731.444 Q96.4085 726.838 96.4085 718.111 Q96.4085 709.917 100.297 705.056 Q104.186 700.171 110.737 700.171 Q112.496 700.171 114.279 700.519 Q116.084 700.866 118.029 701.56 Z" fill="#000000" fill-rule="nonzero" fill-opacity="1" /><path clip-path="url(#clip180)" d="M63.2837 435.08 Q59.6726 435.08 57.8439 438.645 Q56.0384 442.186 56.0384 449.316 Q56.0384 456.422 57.8439 459.987 Q59.6726 463.529 63.2837 463.529 Q66.918 463.529 68.7235 459.987 Q70.5522 456.422 70.5522 449.316 Q70.5522 442.186 68.7235 438.645 Q66.918 435.08 63.2837 435.08 M63.2837 431.376 Q69.0939 431.376 72.1494 435.983 Q75.2281 440.566 75.2281 449.316 Q75.2281 458.043 72.1494 462.649 Q69.0939 467.232 63.2837 467.232 Q57.4736 467.232 54.3949 462.649 Q51.3393 458.043 51.3393 449.316 Q51.3393 440.566 54.3949 435.983 Q57.4736 431.376 63.2837 431.376 Z" fill="#000000" fill-rule="nonzero" fill-opacity="1" /><path clip-path="url(#clip180)" d="M83.4457 460.682 L88.3299 460.682 L88.3299 466.561 L83.4457 466.561 L83.4457 460.682 Z" fill="#000000" fill-rule="nonzero" fill-opacity="1" /><path clip-path="url(#clip180)" d="M98.6539 465.844 L98.6539 461.584 Q100.413 462.418 102.219 462.857 Q104.024 463.297 105.76 463.297 Q110.39 463.297 112.82 460.195 Q115.274 457.07 115.621 450.728 Q114.279 452.719 112.219 453.783 Q110.158 454.848 107.658 454.848 Q102.473 454.848 99.4409 451.723 Q96.4317 448.575 96.4317 443.135 Q96.4317 437.811 99.5798 434.594 Q102.728 431.376 107.959 431.376 Q113.955 431.376 117.103 435.983 Q120.274 440.566 120.274 449.316 Q120.274 457.487 116.385 462.371 Q112.52 467.232 105.969 467.232 Q104.209 467.232 102.404 466.885 Q100.598 466.538 98.6539 465.844 M107.959 451.191 Q111.108 451.191 112.936 449.038 Q114.788 446.885 114.788 443.135 Q114.788 439.408 112.936 437.256 Q111.108 435.08 107.959 435.08 Q104.811 435.08 102.959 437.256 Q101.131 439.408 101.131 443.135 Q101.131 446.885 102.959 449.038 Q104.811 451.191 107.959 451.191 Z" fill="#000000" fill-rule="nonzero" fill-opacity="1" /><path clip-path="url(#clip180)" d="M55.506 193.831 L63.1448 193.831 L63.1448 167.465 L54.8347 169.132 L54.8347 164.873 L63.0985 163.206 L67.7744 163.206 L67.7744 193.831 L75.4133 193.831 L75.4133 197.766 L55.506 197.766 L55.506 193.831 Z" fill="#000000" fill-rule="nonzero" fill-opacity="1" /><path clip-path="url(#clip180)" d="M84.8577 191.886 L89.7419 191.886 L89.7419 197.766 L84.8577 197.766 L84.8577 191.886 Z" fill="#000000" fill-rule="nonzero" fill-opacity="1" /><path clip-path="url(#clip180)" d="M103.955 193.831 L120.274 193.831 L120.274 197.766 L98.3298 197.766 L98.3298 193.831 Q100.992 191.076 105.575 186.446 Q110.182 181.794 111.362 180.451 Q113.608 177.928 114.487 176.192 Q115.39 174.433 115.39 172.743 Q115.39 169.988 113.445 168.252 Q111.524 166.516 108.422 166.516 Q106.223 166.516 103.77 167.28 Q101.339 168.044 98.5613 169.595 L98.5613 164.873 Q101.385 163.738 103.839 163.16 Q106.293 162.581 108.33 162.581 Q113.7 162.581 116.895 165.266 Q120.089 167.951 120.089 172.442 Q120.089 174.572 119.279 176.493 Q118.492 178.391 116.385 180.984 Q115.807 181.655 112.705 184.872 Q109.603 188.067 103.955 193.831 Z" fill="#000000" fill-rule="nonzero" fill-opacity="1" /><polyline clip-path="url(#clip182)" style="stroke:#009af9; stroke-linecap:round; stroke-linejoin:round; stroke-width:16; stroke-opacity:1; fill:none" stroke-dasharray="8, 16" points="218.439,1121.12 228.852,1116.45 239.264,1103.18 249.677,1088.23 260.09,1077.9 270.503,1076.09 280.916,1083.73 291.329,1099.58 301.741,1121.51 312.154,1147.44 322.567,1175.8 332.98,1205.54 343.393,1235.99 353.805,1266.64 364.218,1297.15 374.631,1327.07 385.044,1355.7 395.457,1381.88 405.87,1404.17 416.282,1421.14 426.695,1431.82 437.108,1435.89 447.521,1433.82 457.934,1426.53 468.347,1414.83 478.759,1398.79 489.172,1377.86 499.585,1351.76 509.998,1321.3 520.411,1288.34 530.824,1255.07 541.236,1223.21 551.649,1193.46 562.062,1165.87 572.475,1140.52 582.888,1117.98 593.301,1099.25 603.713,1085.53 614.126,1077.78 624.539,1076.49 634.952,1081.65 645.365,1092.81 655.777,1109.3 666.19,1130.22 676.603,1154.62 687.016,1181.6 697.429,1210.66 707.842,1241.75 718.254,1274.92 728.667,1309.33 739.08,1342.61 749.493,1371.32 759.906,1392.64 770.319,1406.02 780.731,1413.74 791.144,1419.68 801.557,1426.84 811.97,1434.34 822.383,1436.45 832.796,1425.98 843.208,1401.07 853.621,1367.63 864.034,1333.25 874.447,1300.9 884.86,1271.67 895.273,1249.16 905.685,1233.8 916.098,1215.63 926.511,1183.35 936.924,1133.42 947.337,1073.06 957.749,1049.83 968.162,1072.17 978.575,1076.65 988.988,1096.28 999.401,1117.61 1009.81,1121.39 1020.23,1115.63 1030.64,1109.2 1041.05,1121.86 1051.46,1168.67 1061.88,1219.38 1072.29,1236.31 1082.7,1241.77 1093.12,1274.37 1103.53,1334.21 1113.94,1395.76 1124.35,1435.2 1134.77,1445.72 1145.18,1435.35 1155.59,1417.17 1166.01,1404.38 1176.42,1404.77 1186.83,1413.27 1197.24,1419.16 1207.66,1422.29 1218.07,1422.56 1228.48,1380.23 1238.9,1191.84 1249.31,812.625 1259.72,467.703 1270.13,351.339 1280.55,371.75 1290.96,400.771 1301.37,403.249 1311.79,387.623 1322.2,366.079 1332.61,346.538 1343.02,334.421 1353.44,333.621 1363.85,344.234 1374.26,359.283 1384.68,366.53 1395.09,360.481 1405.5,353.147 1415.91,361.188 1426.33,382.161 1436.74,399.472 1447.15,403.535 1457.57,399.767 1467.98,392.505 1478.39,364.594 1488.8,289.422 1499.22,170.628 1509.63,113.612 1520.04,216.5 1530.45,388.258 1540.87,508.972 1551.28,547.472 1561.69,517.62 1572.11,408.524 1582.52,213.036 1592.93,87.9763 1603.34,151.229 1613.76,266.182 1624.17,343.037 1634.58,379.408 1645,396.616 1655.41,411.538 1665.82,428.543 1676.23,441.158 1686.65,438.321 1697.06,413.252 1707.47,368.668 1717.89,315.028 1728.3,266.514 1738.71,238.321 1749.12,243.11 1759.54,285.864 1769.95,359.292 1780.36,441.943 1790.78,503.03 1801.19,516.015 1811.6,474.944 1822.01,399.233 1832.43,319.003 1842.84,256.532 1853.25,221.392 1863.67,216.182 1874.08,242.662 1884.49,302.99 1894.9,393.195 1905.32,487.588 1915.73,530.198 1926.14,483.898 1936.56,395.439 1946.97,333.205 1957.38,303.27 1967.79,277.931 1978.21,246.682 1988.62,228.285 1999.03,255.833 2009.45,343.74 2019.86,459.671 2030.27,543.732 2040.68,558.664 2051.1,507.18 2061.51,413.721 2071.92,308.257 2082.33,219.932 2092.75,170.788 2103.16,170.268 2113.57,216.597 2123.99,302.854 2134.4,417.299 2144.81,531.728 2155.22,597.639 2165.64,577.528 2176.05,479.889 2186.46,349.338 2196.88,232.639 2207.29,160.1 2217.7,144.042 2228.11,181.638 2238.53,258.131 2248.94,351.976 2259.35,441.89 2269.77,512.9 2280.18,558.702 2290.59,580.303 "/>
<polyline clip-path="url(#clip182)" style="stroke:#e26f46; stroke-linecap:round; stroke-linejoin:round; stroke-width:4; stroke-opacity:1; fill:none" points="218.439,1121.09 228.852,1102 239.264,1087.92 249.677,1079.32 260.09,1076.47 270.503,1079.47 280.916,1088.22 291.329,1102.44 301.741,1121.66 312.154,1145.25 322.567,1172.44 332.98,1202.35 343.393,1234 353.805,1266.36 364.218,1298.37 374.631,1328.99 385.044,1357.21 395.457,1382.12 405.87,1402.9 416.282,1418.87 426.695,1429.52 437.108,1434.5 447.521,1433.64 457.934,1426.97 468.347,1414.71 478.759,1397.26 489.172,1375.18 499.585,1349.21 509.998,1320.18 520.411,1289.05 530.824,1256.83 541.236,1224.57 551.649,1193.33 562.062,1164.12 572.475,1137.9 582.888,1115.52 593.301,1097.71 603.713,1085.06 614.126,1077.98 624.539,1076.7 634.952,1081.26 645.365,1091.51 655.777,1107.12 666.19,1127.58 676.603,1152.22 687.016,1180.23 697.429,1210.71 707.842,1242.65 718.254,1275.02 728.667,1306.75 739.08,1336.82 749.493,1364.24 759.906,1388.12 770.319,1407.67 780.731,1422.27 791.144,1431.42 801.557,1434.84 811.97,1432.41 822.383,1424.22 832.796,1410.52 843.208,1391.77 853.621,1368.57 864.034,1341.69 874.447,1312.01 884.86,1280.48 895.273,1248.15 905.685,1216.06 916.098,1185.26 926.511,1156.76 936.924,1131.49 947.337,1110.27 957.749,1093.8 968.162,1082.61 978.575,1077.07 988.988,1077.35 999.401,1083.46 1009.81,1095.19 1020.23,1112.15 1030.64,1133.8 1041.05,1159.43 1051.46,1188.19 1061.88,1219.16 1072.29,1251.32 1082.7,1283.63 1093.12,1315.02 1103.53,1344.47 1113.94,1371.02 1124.35,1393.81 1134.77,1412.09 1145.18,1425.27 1155.59,1432.91 1166.01,1434.77 1176.42,1430.78 1186.83,1421.07 1197.24,1405.97 1207.66,1385.96 1218.07,1361.7 1228.48,1333.98 1238.9,1303.7 1249.31,1271.85 1259.72,358.381 1270.13,356.901 1280.55,358.248 1290.96,362.735 1301.37,368.985 1311.79,374.359 1322.2,375.95 1332.61,371.816 1343.02,361.96 1353.44,348.673 1363.85,336.029 1374.26,328.643 1384.68,330.06 1395.09,341.33 1405.5,360.285 1415.91,381.857 1426.33,399.423 1436.74,406.833 1447.15,400.49 1457.57,380.809 1467.98,352.501 1478.39,323.489 1488.8,302.697 1499.22,297.31 1509.63,310.368 1520.04,339.459 1530.45,377.029 1540.87,412.322 1551.28,434.456 1561.69,435.767 1572.11,414.383 1582.52,375.192 1592.93,328.801 1603.34,288.672 1613.76,267.22 1624.17,271.99 1634.58,303.09 1645,352.739 1655.41,407.167 1665.82,450.432 1676.23,469.085 1686.65,456.329 1697.06,414.385 1707.47,354.268 1717.89,292.919 1728.3,248.436 1738.71,234.736 1749.12,257.232 1759.54,310.85 1769.95,381.09 1780.36,447.934 1790.78,491.543 1801.19,498.149 1811.6,464.358 1822.01,398.562 1832.43,318.901 1842.84,248.275 1853.25,207.758 1863.67,210.319 1874.08,256.716 1884.49,334.847 1894.9,422.872 1905.32,495.319 1915.73,530.449 1926.14,516.769 1936.56,456.739 1946.97,366.483 1957.38,271.485 1967.79,199.391 1978.21,171.967 1988.62,198.543 1999.03,272.915 2009.45,374.715 2019.86,474.977 2030.27,544.378 2040.68,561.81 2051.1,520.781 2061.51,431.708 2071.92,319.317 2082.33,215.786 2092.75,151.537 2103.16,146.296 2113.57,203.065 2123.99,306.828 2134.4,428.493 2144.81,533.045 2155.22,589.619 2165.64,580.611 2176.05,507.121 2186.46,389.064 2196.88,259.794 2207.29,156.682 2217.7,110.317 2228.11,135.435 2238.53,226.281 2248.94,357.843 2259.35,492.723 2269.77,591.772 2280.18,625.441 2290.59,582.597 "/>
<path clip-path="url(#clip180)" d="M229.49 250.738 L675.966 250.738 L675.966 95.2176 L229.49 95.2176  Z" fill="#ffffff" fill-rule="evenodd" fill-opacity="1"/>
<polyline clip-path="url(#clip180)" style="stroke:#000000; stroke-linecap:round; stroke-linejoin:round; stroke-width:4; stroke-opacity:1; fill:none" points="229.49,250.738 675.966,250.738 675.966,95.2176 229.49,95.2176 229.49,250.738 "/>
<polyline clip-path="url(#clip180)" style="stroke:#009af9; stroke-linecap:round; stroke-linejoin:round; stroke-width:16; stroke-opacity:1; fill:none" stroke-dasharray="8, 16" points="253.896,147.058 400.328,147.058 "/>
<path clip-path="url(#clip180)" d="M429.409 133.62 L429.409 146.606 L435.289 146.606 Q438.552 146.606 440.335 144.916 Q442.117 143.227 442.117 140.102 Q442.117 137 440.335 135.31 Q438.552 133.62 435.289 133.62 L429.409 133.62 M424.733 129.778 L435.289 129.778 Q441.099 129.778 444.062 132.416 Q447.048 135.032 447.048 140.102 Q447.048 145.217 444.062 147.833 Q441.099 150.449 435.289 150.449 L429.409 150.449 L429.409 164.338 L424.733 164.338 L424.733 129.778 Z" fill="#000000" fill-rule="nonzero" fill-opacity="1" /><path clip-path="url(#clip180)" d="M467.325 142.393 Q466.608 141.977 465.751 141.791 Q464.918 141.583 463.899 141.583 Q460.288 141.583 458.344 143.944 Q456.423 146.282 456.423 150.68 L456.423 164.338 L452.14 164.338 L452.14 138.412 L456.423 138.412 L456.423 142.44 Q457.765 140.078 459.918 138.944 Q462.071 137.787 465.149 137.787 Q465.589 137.787 466.122 137.856 Q466.654 137.903 467.302 138.018 L467.325 142.393 Z" fill="#000000" fill-rule="nonzero" fill-opacity="1" /><path clip-path="url(#clip180)" d="M492.927 150.31 L492.927 152.393 L473.344 152.393 Q473.622 156.791 475.983 159.106 Q478.367 161.398 482.603 161.398 Q485.057 161.398 487.348 160.796 Q489.663 160.194 491.932 158.99 L491.932 163.018 Q489.64 163.99 487.233 164.5 Q484.825 165.009 482.348 165.009 Q476.145 165.009 472.511 161.398 Q468.899 157.787 468.899 151.629 Q468.899 145.264 472.325 141.537 Q475.774 137.787 481.608 137.787 Q486.839 137.787 489.872 141.166 Q492.927 144.523 492.927 150.31 M488.668 149.06 Q488.622 145.565 486.7 143.481 Q484.802 141.398 481.654 141.398 Q478.089 141.398 475.936 143.412 Q473.807 145.426 473.483 149.083 L488.668 149.06 Z" fill="#000000" fill-rule="nonzero" fill-opacity="1" /><path clip-path="url(#clip180)" d="M516.978 142.347 L516.978 128.319 L521.237 128.319 L521.237 164.338 L516.978 164.338 L516.978 160.449 Q515.635 162.763 513.575 163.898 Q511.538 165.009 508.668 165.009 Q503.969 165.009 501.006 161.259 Q498.066 157.509 498.066 151.398 Q498.066 145.287 501.006 141.537 Q503.969 137.787 508.668 137.787 Q511.538 137.787 513.575 138.921 Q515.635 140.032 516.978 142.347 M502.464 151.398 Q502.464 156.097 504.385 158.782 Q506.33 161.444 509.709 161.444 Q513.089 161.444 515.033 158.782 Q516.978 156.097 516.978 151.398 Q516.978 146.699 515.033 144.037 Q513.089 141.352 509.709 141.352 Q506.33 141.352 504.385 144.037 Q502.464 146.699 502.464 151.398 Z" fill="#000000" fill-rule="nonzero" fill-opacity="1" /><path clip-path="url(#clip180)" d="M530.01 138.412 L534.269 138.412 L534.269 164.338 L530.01 164.338 L530.01 138.412 M530.01 128.319 L534.269 128.319 L534.269 133.713 L530.01 133.713 L530.01 128.319 Z" fill="#000000" fill-rule="nonzero" fill-opacity="1" /><path clip-path="url(#clip180)" d="M561.839 139.407 L561.839 143.389 Q560.033 142.393 558.205 141.907 Q556.399 141.398 554.547 141.398 Q550.404 141.398 548.112 144.037 Q545.82 146.652 545.82 151.398 Q545.82 156.143 548.112 158.782 Q550.404 161.398 554.547 161.398 Q556.399 161.398 558.205 160.912 Q560.033 160.402 561.839 159.407 L561.839 163.342 Q560.056 164.176 558.135 164.592 Q556.237 165.009 554.084 165.009 Q548.228 165.009 544.779 161.328 Q541.33 157.648 541.33 151.398 Q541.33 145.055 544.802 141.421 Q548.297 137.787 554.362 137.787 Q556.33 137.787 558.205 138.203 Q560.08 138.597 561.839 139.407 Z" fill="#000000" fill-rule="nonzero" fill-opacity="1" /><path clip-path="url(#clip180)" d="M573.459 131.051 L573.459 138.412 L582.232 138.412 L582.232 141.722 L573.459 141.722 L573.459 155.796 Q573.459 158.967 574.316 159.87 Q575.195 160.773 577.857 160.773 L582.232 160.773 L582.232 164.338 L577.857 164.338 Q572.927 164.338 571.052 162.509 Q569.177 160.657 569.177 155.796 L569.177 141.722 L566.052 141.722 L566.052 138.412 L569.177 138.412 L569.177 131.051 L573.459 131.051 Z" fill="#000000" fill-rule="nonzero" fill-opacity="1" /><path clip-path="url(#clip180)" d="M587.834 138.412 L592.093 138.412 L592.093 164.338 L587.834 164.338 L587.834 138.412 M587.834 128.319 L592.093 128.319 L592.093 133.713 L587.834 133.713 L587.834 128.319 Z" fill="#000000" fill-rule="nonzero" fill-opacity="1" /><path clip-path="url(#clip180)" d="M611.051 141.398 Q607.626 141.398 605.635 144.083 Q603.644 146.745 603.644 151.398 Q603.644 156.051 605.612 158.736 Q607.602 161.398 611.051 161.398 Q614.454 161.398 616.445 158.713 Q618.436 156.027 618.436 151.398 Q618.436 146.791 616.445 144.106 Q614.454 141.398 611.051 141.398 M611.051 137.787 Q616.607 137.787 619.778 141.398 Q622.95 145.009 622.95 151.398 Q622.95 157.764 619.778 161.398 Q616.607 165.009 611.051 165.009 Q605.473 165.009 602.302 161.398 Q599.153 157.764 599.153 151.398 Q599.153 145.009 602.302 141.398 Q605.473 137.787 611.051 137.787 Z" fill="#000000" fill-rule="nonzero" fill-opacity="1" /><path clip-path="url(#clip180)" d="M651.561 148.689 L651.561 164.338 L647.301 164.338 L647.301 148.828 Q647.301 145.148 645.866 143.319 Q644.431 141.49 641.561 141.49 Q638.112 141.49 636.121 143.69 Q634.13 145.889 634.13 149.685 L634.13 164.338 L629.848 164.338 L629.848 138.412 L634.13 138.412 L634.13 142.44 Q635.658 140.102 637.718 138.944 Q639.801 137.787 642.51 137.787 Q646.977 137.787 649.269 140.565 Q651.561 143.319 651.561 148.689 Z" fill="#000000" fill-rule="nonzero" fill-opacity="1" /><polyline clip-path="url(#clip180)" style="stroke:#e26f46; stroke-linecap:round; stroke-linejoin:round; stroke-width:4; stroke-opacity:1; fill:none" points="253.896,198.898 400.328,198.898 "/>
<path clip-path="url(#clip180)" d="M424.733 181.618 L446.585 181.618 L446.585 185.553 L429.409 185.553 L429.409 195.784 L445.867 195.784 L445.867 199.719 L429.409 199.719 L429.409 212.242 L447.001 212.242 L447.001 216.178 L424.733 216.178 L424.733 181.618 Z" fill="#000000" fill-rule="nonzero" fill-opacity="1" /><path clip-path="url(#clip180)" d="M476.052 190.252 L466.677 202.867 L476.538 216.178 L471.515 216.178 L463.969 205.992 L456.423 216.178 L451.4 216.178 L461.469 202.613 L452.256 190.252 L457.279 190.252 L464.154 199.488 L471.029 190.252 L476.052 190.252 Z" fill="#000000" fill-rule="nonzero" fill-opacity="1" /><path clip-path="url(#clip180)" d="M494.339 203.145 Q489.177 203.145 487.186 204.326 Q485.196 205.506 485.196 208.354 Q485.196 210.622 486.677 211.965 Q488.182 213.284 490.751 213.284 Q494.293 213.284 496.422 210.784 Q498.575 208.261 498.575 204.094 L498.575 203.145 L494.339 203.145 M502.834 201.386 L502.834 216.178 L498.575 216.178 L498.575 212.242 Q497.117 214.603 494.941 215.738 Q492.765 216.849 489.617 216.849 Q485.635 216.849 483.274 214.627 Q480.936 212.381 480.936 208.631 Q480.936 204.256 483.853 202.034 Q486.793 199.812 492.603 199.812 L498.575 199.812 L498.575 199.395 Q498.575 196.455 496.631 194.858 Q494.71 193.238 491.214 193.238 Q488.992 193.238 486.885 193.77 Q484.779 194.303 482.835 195.367 L482.835 191.432 Q485.173 190.53 487.372 190.09 Q489.571 189.627 491.654 189.627 Q497.279 189.627 500.057 192.543 Q502.834 195.46 502.834 201.386 Z" fill="#000000" fill-rule="nonzero" fill-opacity="1" /><path clip-path="url(#clip180)" d="M530.265 191.247 L530.265 195.229 Q528.459 194.233 526.631 193.747 Q524.825 193.238 522.973 193.238 Q518.83 193.238 516.538 195.877 Q514.246 198.492 514.246 203.238 Q514.246 207.983 516.538 210.622 Q518.83 213.238 522.973 213.238 Q524.825 213.238 526.631 212.752 Q528.459 212.242 530.265 211.247 L530.265 215.182 Q528.482 216.016 526.561 216.432 Q524.663 216.849 522.51 216.849 Q516.654 216.849 513.205 213.168 Q509.756 209.488 509.756 203.238 Q509.756 196.895 513.228 193.261 Q516.723 189.627 522.788 189.627 Q524.756 189.627 526.631 190.043 Q528.506 190.437 530.265 191.247 Z" fill="#000000" fill-rule="nonzero" fill-opacity="1" /><path clip-path="url(#clip180)" d="M541.885 182.891 L541.885 190.252 L550.658 190.252 L550.658 193.562 L541.885 193.562 L541.885 207.636 Q541.885 210.807 542.742 211.71 Q543.621 212.613 546.283 212.613 L550.658 212.613 L550.658 216.178 L546.283 216.178 Q541.353 216.178 539.478 214.349 Q537.603 212.497 537.603 207.636 L537.603 193.562 L534.478 193.562 L534.478 190.252 L537.603 190.252 L537.603 182.891 L541.885 182.891 Z" fill="#000000" fill-rule="nonzero" fill-opacity="1" /></svg>
