<?xml version="1.0" encoding="utf-8"?>
<svg xmlns="http://www.w3.org/2000/svg" xmlns:xlink="http://www.w3.org/1999/xlink" width="600" height="400" viewBox="0 0 2400 1600">
<defs>
  <clipPath id="clip610">
    <rect x="0" y="0" width="2400" height="1600"/>
  </clipPath>
</defs>
<path clip-path="url(#clip610)" d="
M0 1600 L2400 1600 L2400 0 L0 0  Z
  " fill="#ffffff" fill-rule="evenodd" fill-opacity="1"/>
<defs>
  <clipPath id="clip611">
    <rect x="480" y="0" width="1681" height="1600"/>
  </clipPath>
</defs>
<path clip-path="url(#clip610)" d="
M156.274 1486.45 L2352.76 1486.45 L2352.76 47.2441 L156.274 47.2441  Z
  " fill="#ffffff" fill-rule="evenodd" fill-opacity="1"/>
<defs>
  <clipPath id="clip612">
    <rect x="156" y="47" width="2197" height="1440"/>
  </clipPath>
</defs>
<polyline clip-path="url(#clip612)" style="stroke:#000000; stroke-linecap:round; stroke-linejoin:round; stroke-width:2; stroke-opacity:0.1; fill:none" points="
  218.439,1486.45 218.439,47.2441 
  "/>
<polyline clip-path="url(#clip612)" style="stroke:#000000; stroke-linecap:round; stroke-linejoin:round; stroke-width:2; stroke-opacity:0.1; fill:none" points="
  736.477,1486.45 736.477,47.2441 
  "/>
<polyline clip-path="url(#clip612)" style="stroke:#000000; stroke-linecap:round; stroke-linejoin:round; stroke-width:2; stroke-opacity:0.1; fill:none" points="
  1254.52,1486.45 1254.52,47.2441 
  "/>
<polyline clip-path="url(#clip612)" style="stroke:#000000; stroke-linecap:round; stroke-linejoin:round; stroke-width:2; stroke-opacity:0.1; fill:none" points="
  1772.55,1486.45 1772.55,47.2441 
  "/>
<polyline clip-path="url(#clip612)" style="stroke:#000000; stroke-linecap:round; stroke-linejoin:round; stroke-width:2; stroke-opacity:0.1; fill:none" points="
  2290.59,1486.45 2290.59,47.2441 
  "/>
<polyline clip-path="url(#clip610)" style="stroke:#000000; stroke-linecap:round; stroke-linejoin:round; stroke-width:4; stroke-opacity:1; fill:none" points="
  156.274,1486.45 2352.76,1486.45 
  "/>
<polyline clip-path="url(#clip610)" style="stroke:#000000; stroke-linecap:round; stroke-linejoin:round; stroke-width:4; stroke-opacity:1; fill:none" points="
  218.439,1486.45 218.439,1467.55 
  "/>
<polyline clip-path="url(#clip610)" style="stroke:#000000; stroke-linecap:round; stroke-linejoin:round; stroke-width:4; stroke-opacity:1; fill:none" points="
  736.477,1486.45 736.477,1467.55 
  "/>
<polyline clip-path="url(#clip610)" style="stroke:#000000; stroke-linecap:round; stroke-linejoin:round; stroke-width:4; stroke-opacity:1; fill:none" points="
  1254.52,1486.45 1254.52,1467.55 
  "/>
<polyline clip-path="url(#clip610)" style="stroke:#000000; stroke-linecap:round; stroke-linejoin:round; stroke-width:4; stroke-opacity:1; fill:none" points="
  1772.55,1486.45 1772.55,1467.55 
  "/>
<polyline clip-path="url(#clip610)" style="stroke:#000000; stroke-linecap:round; stroke-linejoin:round; stroke-width:4; stroke-opacity:1; fill:none" points="
  2290.59,1486.45 2290.59,1467.55 
  "/>
<path clip-path="url(#clip610)" d="M164.967 1532.02 L194.643 1532.02 L194.643 1535.95 L164.967 1535.95 L164.967 1532.02 Z" fill="#000000" fill-rule="evenodd" fill-opacity="1" /><path clip-path="url(#clip610)" d="M205.545 1544.91 L213.184 1544.91 L213.184 1518.55 L204.874 1520.21 L204.874 1515.95 L213.138 1514.29 L217.814 1514.29 L217.814 1544.91 L225.453 1544.91 L225.453 1548.85 L205.545 1548.85 L205.545 1544.91 Z" fill="#000000" fill-rule="evenodd" fill-opacity="1" /><path clip-path="url(#clip610)" d="M234.897 1542.97 L239.781 1542.97 L239.781 1548.85 L234.897 1548.85 L234.897 1542.97 Z" fill="#000000" fill-rule="evenodd" fill-opacity="1" /><path clip-path="url(#clip610)" d="M259.966 1517.37 Q256.355 1517.37 254.527 1520.93 Q252.721 1524.47 252.721 1531.6 Q252.721 1538.71 254.527 1542.27 Q256.355 1545.82 259.966 1545.82 Q263.601 1545.82 265.406 1542.27 Q267.235 1538.71 267.235 1531.6 Q267.235 1524.47 265.406 1520.93 Q263.601 1517.37 259.966 1517.37 M259.966 1513.66 Q265.776 1513.66 268.832 1518.27 Q271.911 1522.85 271.911 1531.6 Q271.911 1540.33 268.832 1544.94 Q265.776 1549.52 259.966 1549.52 Q254.156 1549.52 251.077 1544.94 Q248.022 1540.33 248.022 1531.6 Q248.022 1522.85 251.077 1518.27 Q254.156 1513.66 259.966 1513.66 Z" fill="#000000" fill-rule="evenodd" fill-opacity="1" /><path clip-path="url(#clip610)" d="M683.503 1532.02 L713.178 1532.02 L713.178 1535.95 L683.503 1535.95 L683.503 1532.02 Z" fill="#000000" fill-rule="evenodd" fill-opacity="1" /><path clip-path="url(#clip610)" d="M733.271 1517.37 Q729.66 1517.37 727.831 1520.93 Q726.026 1524.47 726.026 1531.6 Q726.026 1538.71 727.831 1542.27 Q729.66 1545.82 733.271 1545.82 Q736.905 1545.82 738.711 1542.27 Q740.539 1538.71 740.539 1531.6 Q740.539 1524.47 738.711 1520.93 Q736.905 1517.37 733.271 1517.37 M733.271 1513.66 Q739.081 1513.66 742.137 1518.27 Q745.215 1522.85 745.215 1531.6 Q745.215 1540.33 742.137 1544.94 Q739.081 1549.52 733.271 1549.52 Q727.461 1549.52 724.382 1544.94 Q721.327 1540.33 721.327 1531.6 Q721.327 1522.85 724.382 1518.27 Q727.461 1513.66 733.271 1513.66 Z" fill="#000000" fill-rule="evenodd" fill-opacity="1" /><path clip-path="url(#clip610)" d="M753.433 1542.97 L758.317 1542.97 L758.317 1548.85 L753.433 1548.85 L753.433 1542.97 Z" fill="#000000" fill-rule="evenodd" fill-opacity="1" /><path clip-path="url(#clip610)" d="M768.548 1514.29 L786.905 1514.29 L786.905 1518.22 L772.831 1518.22 L772.831 1526.7 Q773.849 1526.35 774.868 1526.19 Q775.886 1526 776.905 1526 Q782.692 1526 786.072 1529.17 Q789.451 1532.34 789.451 1537.76 Q789.451 1543.34 785.979 1546.44 Q782.507 1549.52 776.187 1549.52 Q774.011 1549.52 771.743 1549.15 Q769.498 1548.78 767.09 1548.04 L767.09 1543.34 Q769.173 1544.47 771.396 1545.03 Q773.618 1545.58 776.095 1545.58 Q780.099 1545.58 782.437 1543.48 Q784.775 1541.37 784.775 1537.76 Q784.775 1534.15 782.437 1532.04 Q780.099 1529.94 776.095 1529.94 Q774.22 1529.94 772.345 1530.35 Q770.493 1530.77 768.548 1531.65 L768.548 1514.29 Z" fill="#000000" fill-rule="evenodd" fill-opacity="1" /><path clip-path="url(#clip610)" d="M1231.9 1517.37 Q1228.29 1517.37 1226.46 1520.93 Q1224.65 1524.47 1224.65 1531.6 Q1224.65 1538.71 1226.46 1542.27 Q1228.29 1545.82 1231.9 1545.82 Q1235.53 1545.82 1237.34 1542.27 Q1239.17 1538.71 1239.17 1531.6 Q1239.17 1524.47 1237.34 1520.93 Q1235.53 1517.37 1231.9 1517.37 M1231.9 1513.66 Q1237.71 1513.66 1240.77 1518.27 Q1243.84 1522.85 1243.84 1531.6 Q1243.84 1540.33 1240.77 1544.94 Q1237.71 1549.52 1231.9 1549.52 Q1226.09 1549.52 1223.01 1544.94 Q1219.96 1540.33 1219.96 1531.6 Q1219.96 1522.85 1223.01 1518.27 Q1226.09 1513.66 1231.9 1513.66 Z" fill="#000000" fill-rule="evenodd" fill-opacity="1" /><path clip-path="url(#clip610)" d="M1252.06 1542.97 L1256.95 1542.97 L1256.95 1548.85 L1252.06 1548.85 L1252.06 1542.97 Z" fill="#000000" fill-rule="evenodd" fill-opacity="1" /><path clip-path="url(#clip610)" d="M1277.13 1517.37 Q1273.52 1517.37 1271.69 1520.93 Q1269.89 1524.47 1269.89 1531.6 Q1269.89 1538.71 1271.69 1542.27 Q1273.52 1545.82 1277.13 1545.82 Q1280.76 1545.82 1282.57 1542.27 Q1284.4 1538.71 1284.4 1531.6 Q1284.4 1524.47 1282.57 1520.93 Q1280.76 1517.37 1277.13 1517.37 M1277.13 1513.66 Q1282.94 1513.66 1286 1518.27 Q1289.08 1522.85 1289.08 1531.6 Q1289.08 1540.33 1286 1544.94 Q1282.94 1549.52 1277.13 1549.52 Q1271.32 1549.52 1268.24 1544.94 Q1265.19 1540.33 1265.19 1531.6 Q1265.19 1522.85 1268.24 1518.27 Q1271.32 1513.66 1277.13 1513.66 Z" fill="#000000" fill-rule="evenodd" fill-opacity="1" /><path clip-path="url(#clip610)" d="M1750.44 1517.37 Q1746.82 1517.37 1745 1520.93 Q1743.19 1524.47 1743.19 1531.6 Q1743.19 1538.71 1745 1542.27 Q1746.82 1545.82 1750.44 1545.82 Q1754.07 1545.82 1755.88 1542.27 Q1757.7 1538.71 1757.7 1531.6 Q1757.7 1524.47 1755.88 1520.93 Q1754.07 1517.37 1750.44 1517.37 M1750.44 1513.66 Q1756.25 1513.66 1759.3 1518.27 Q1762.38 1522.85 1762.38 1531.6 Q1762.38 1540.33 1759.3 1544.94 Q1756.25 1549.52 1750.44 1549.52 Q1744.63 1549.52 1741.55 1544.94 Q1738.49 1540.33 1738.49 1531.6 Q1738.49 1522.85 1741.55 1518.27 Q1744.63 1513.66 1750.44 1513.66 Z" fill="#000000" fill-rule="evenodd" fill-opacity="1" /><path clip-path="url(#clip610)" d="M1770.6 1542.97 L1775.48 1542.97 L1775.48 1548.85 L1770.6 1548.85 L1770.6 1542.97 Z" fill="#000000" fill-rule="evenodd" fill-opacity="1" /><path clip-path="url(#clip610)" d="M1785.71 1514.29 L1804.07 1514.29 L1804.07 1518.22 L1790 1518.22 L1790 1526.7 Q1791.01 1526.35 1792.03 1526.19 Q1793.05 1526 1794.07 1526 Q1799.86 1526 1803.24 1529.17 Q1806.62 1532.34 1806.62 1537.76 Q1806.62 1543.34 1803.14 1546.44 Q1799.67 1549.52 1793.35 1549.52 Q1791.18 1549.52 1788.91 1549.15 Q1786.66 1548.78 1784.25 1548.04 L1784.25 1543.34 Q1786.34 1544.47 1788.56 1545.03 Q1790.78 1545.58 1793.26 1545.58 Q1797.26 1545.58 1799.6 1543.48 Q1801.94 1541.37 1801.94 1537.76 Q1801.94 1534.15 1799.6 1532.04 Q1797.26 1529.94 1793.26 1529.94 Q1791.38 1529.94 1789.51 1530.35 Q1787.66 1530.77 1785.71 1531.65 L1785.71 1514.29 Z" fill="#000000" fill-rule="evenodd" fill-opacity="1" /><path clip-path="url(#clip610)" d="M2257.74 1544.91 L2265.38 1544.91 L2265.38 1518.55 L2257.07 1520.21 L2257.07 1515.95 L2265.34 1514.29 L2270.01 1514.29 L2270.01 1544.91 L2277.65 1544.91 L2277.65 1548.85 L2257.74 1548.85 L2257.74 1544.91 Z" fill="#000000" fill-rule="evenodd" fill-opacity="1" /><path clip-path="url(#clip610)" d="M2287.1 1542.97 L2291.98 1542.97 L2291.98 1548.85 L2287.1 1548.85 L2287.1 1542.97 Z" fill="#000000" fill-rule="evenodd" fill-opacity="1" /><path clip-path="url(#clip610)" d="M2312.17 1517.37 Q2308.55 1517.37 2306.73 1520.93 Q2304.92 1524.47 2304.92 1531.6 Q2304.92 1538.71 2306.73 1542.27 Q2308.55 1545.82 2312.17 1545.82 Q2315.8 1545.82 2317.61 1542.27 Q2319.43 1538.71 2319.43 1531.6 Q2319.43 1524.47 2317.61 1520.93 Q2315.8 1517.37 2312.17 1517.37 M2312.17 1513.66 Q2317.98 1513.66 2321.03 1518.27 Q2324.11 1522.85 2324.11 1531.6 Q2324.11 1540.33 2321.03 1544.94 Q2317.98 1549.52 2312.17 1549.52 Q2306.36 1549.52 2303.28 1544.94 Q2300.22 1540.33 2300.22 1531.6 Q2300.22 1522.85 2303.28 1518.27 Q2306.36 1513.66 2312.17 1513.66 Z" fill="#000000" fill-rule="evenodd" fill-opacity="1" /><polyline clip-path="url(#clip612)" style="stroke:#000000; stroke-linecap:round; stroke-linejoin:round; stroke-width:2; stroke-opacity:0.1; fill:none" points="
  156.274,1242.7 2352.76,1242.7 
  "/>
<polyline clip-path="url(#clip612)" style="stroke:#000000; stroke-linecap:round; stroke-linejoin:round; stroke-width:2; stroke-opacity:0.1; fill:none" points="
  156.274,971.701 2352.76,971.701 
  "/>
<polyline clip-path="url(#clip612)" style="stroke:#000000; stroke-linecap:round; stroke-linejoin:round; stroke-width:2; stroke-opacity:0.1; fill:none" points="
  156.274,700.707 2352.76,700.707 
  "/>
<polyline clip-path="url(#clip612)" style="stroke:#000000; stroke-linecap:round; stroke-linejoin:round; stroke-width:2; stroke-opacity:0.1; fill:none" points="
  156.274,429.713 2352.76,429.713 
  "/>
<polyline clip-path="url(#clip612)" style="stroke:#000000; stroke-linecap:round; stroke-linejoin:round; stroke-width:2; stroke-opacity:0.1; fill:none" points="
  156.274,158.719 2352.76,158.719 
  "/>
<polyline clip-path="url(#clip610)" style="stroke:#000000; stroke-linecap:round; stroke-linejoin:round; stroke-width:4; stroke-opacity:1; fill:none" points="
  156.274,1486.45 156.274,47.2441 
  "/>
<polyline clip-path="url(#clip610)" style="stroke:#000000; stroke-linecap:round; stroke-linejoin:round; stroke-width:4; stroke-opacity:1; fill:none" points="
  156.274,1242.7 175.172,1242.7 
  "/>
<polyline clip-path="url(#clip610)" style="stroke:#000000; stroke-linecap:round; stroke-linejoin:round; stroke-width:4; stroke-opacity:1; fill:none" points="
  156.274,971.701 175.172,971.701 
  "/>
<polyline clip-path="url(#clip610)" style="stroke:#000000; stroke-linecap:round; stroke-linejoin:round; stroke-width:4; stroke-opacity:1; fill:none" points="
  156.274,700.707 175.172,700.707 
  "/>
<polyline clip-path="url(#clip610)" style="stroke:#000000; stroke-linecap:round; stroke-linejoin:round; stroke-width:4; stroke-opacity:1; fill:none" points="
  156.274,429.713 175.172,429.713 
  "/>
<polyline clip-path="url(#clip610)" style="stroke:#000000; stroke-linecap:round; stroke-linejoin:round; stroke-width:4; stroke-opacity:1; fill:none" points="
  156.274,158.719 175.172,158.719 
  "/>
<path clip-path="url(#clip610)" d="M63.0985 1228.49 Q59.4875 1228.49 57.6588 1232.06 Q55.8532 1235.6 55.8532 1242.73 Q55.8532 1249.84 57.6588 1253.4 Q59.4875 1256.94 63.0985 1256.94 Q66.7328 1256.94 68.5383 1253.4 Q70.367 1249.84 70.367 1242.73 Q70.367 1235.6 68.5383 1232.06 Q66.7328 1228.49 63.0985 1228.49 M63.0985 1224.79 Q68.9087 1224.79 71.9642 1229.4 Q75.0429 1233.98 75.0429 1242.73 Q75.0429 1251.46 71.9642 1256.06 Q68.9087 1260.65 63.0985 1260.65 Q57.2884 1260.65 54.2097 1256.06 Q51.1542 1251.46 51.1542 1242.73 Q51.1542 1233.98 54.2097 1229.4 Q57.2884 1224.79 63.0985 1224.79 Z" fill="#000000" fill-rule="evenodd" fill-opacity="1" /><path clip-path="url(#clip610)" d="M83.2605 1254.1 L88.1447 1254.1 L88.1447 1259.98 L83.2605 1259.98 L83.2605 1254.1 Z" fill="#000000" fill-rule="evenodd" fill-opacity="1" /><path clip-path="url(#clip610)" d="M108.33 1228.49 Q104.719 1228.49 102.89 1232.06 Q101.084 1235.6 101.084 1242.73 Q101.084 1249.84 102.89 1253.4 Q104.719 1256.94 108.33 1256.94 Q111.964 1256.94 113.77 1253.4 Q115.598 1249.84 115.598 1242.73 Q115.598 1235.6 113.77 1232.06 Q111.964 1228.49 108.33 1228.49 M108.33 1224.79 Q114.14 1224.79 117.195 1229.4 Q120.274 1233.98 120.274 1242.73 Q120.274 1251.46 117.195 1256.06 Q114.14 1260.65 108.33 1260.65 Q102.52 1260.65 99.4409 1256.06 Q96.3854 1251.46 96.3854 1242.73 Q96.3854 1233.98 99.4409 1229.4 Q102.52 1224.79 108.33 1224.79 Z" fill="#000000" fill-rule="evenodd" fill-opacity="1" /><path clip-path="url(#clip610)" d="M63.7467 957.5 Q60.1356 957.5 58.3069 961.065 Q56.5014 964.606 56.5014 971.736 Q56.5014 978.842 58.3069 982.407 Q60.1356 985.949 63.7467 985.949 Q67.3809 985.949 69.1865 982.407 Q71.0152 978.842 71.0152 971.736 Q71.0152 964.606 69.1865 961.065 Q67.3809 957.5 63.7467 957.5 M63.7467 953.796 Q69.5568 953.796 72.6124 958.403 Q75.6911 962.986 75.6911 971.736 Q75.6911 980.463 72.6124 985.069 Q69.5568 989.652 63.7467 989.652 Q57.9365 989.652 54.8578 985.069 Q51.8023 980.463 51.8023 971.736 Q51.8023 962.986 54.8578 958.403 Q57.9365 953.796 63.7467 953.796 Z" fill="#000000" fill-rule="evenodd" fill-opacity="1" /><path clip-path="url(#clip610)" d="M83.9086 983.102 L88.7928 983.102 L88.7928 988.981 L83.9086 988.981 L83.9086 983.102 Z" fill="#000000" fill-rule="evenodd" fill-opacity="1" /><path clip-path="url(#clip610)" d="M113.145 970.347 Q116.501 971.065 118.376 973.333 Q120.274 975.602 120.274 978.935 Q120.274 984.051 116.756 986.852 Q113.237 989.652 106.756 989.652 Q104.58 989.652 102.265 989.213 Q99.9733 988.796 97.5197 987.939 L97.5197 983.426 Q99.4641 984.56 101.779 985.139 Q104.094 985.717 106.617 985.717 Q111.015 985.717 113.307 983.981 Q115.621 982.245 115.621 978.935 Q115.621 975.879 113.469 974.166 Q111.339 972.43 107.52 972.43 L103.492 972.43 L103.492 968.588 L107.705 968.588 Q111.154 968.588 112.983 967.222 Q114.811 965.833 114.811 963.241 Q114.811 960.578 112.913 959.166 Q111.038 957.731 107.52 957.731 Q105.598 957.731 103.399 958.148 Q101.2 958.565 98.5613 959.444 L98.5613 955.278 Q101.223 954.537 103.538 954.166 Q105.876 953.796 107.936 953.796 Q113.26 953.796 116.362 956.227 Q119.464 958.634 119.464 962.754 Q119.464 965.625 117.82 967.615 Q116.177 969.583 113.145 970.347 Z" fill="#000000" fill-rule="evenodd" fill-opacity="1" /><path clip-path="url(#clip610)" d="M62.9365 686.506 Q59.3254 686.506 57.4967 690.071 Q55.6912 693.612 55.6912 700.742 Q55.6912 707.848 57.4967 711.413 Q59.3254 714.955 62.9365 714.955 Q66.5707 714.955 68.3763 711.413 Q70.205 707.848 70.205 700.742 Q70.205 693.612 68.3763 690.071 Q66.5707 686.506 62.9365 686.506 M62.9365 682.802 Q68.7467 682.802 71.8022 687.409 Q74.8809 691.992 74.8809 700.742 Q74.8809 709.469 71.8022 714.075 Q68.7467 718.658 62.9365 718.658 Q57.1264 718.658 54.0477 714.075 Q50.9921 709.469 50.9921 700.742 Q50.9921 691.992 54.0477 687.409 Q57.1264 682.802 62.9365 682.802 Z" fill="#000000" fill-rule="evenodd" fill-opacity="1" /><path clip-path="url(#clip610)" d="M83.0984 712.108 L87.9827 712.108 L87.9827 717.987 L83.0984 717.987 L83.0984 712.108 Z" fill="#000000" fill-rule="evenodd" fill-opacity="1" /><path clip-path="url(#clip610)" d="M108.746 698.844 Q105.598 698.844 103.746 700.996 Q101.918 703.149 101.918 706.899 Q101.918 710.626 103.746 712.802 Q105.598 714.955 108.746 714.955 Q111.895 714.955 113.723 712.802 Q115.575 710.626 115.575 706.899 Q115.575 703.149 113.723 700.996 Q111.895 698.844 108.746 698.844 M118.029 684.191 L118.029 688.45 Q116.27 687.617 114.464 687.177 Q112.682 686.737 110.922 686.737 Q106.293 686.737 103.839 689.862 Q101.409 692.987 101.061 699.307 Q102.427 697.293 104.487 696.228 Q106.547 695.14 109.024 695.14 Q114.233 695.14 117.242 698.311 Q120.274 701.459 120.274 706.899 Q120.274 712.223 117.126 715.441 Q113.978 718.658 108.746 718.658 Q102.751 718.658 99.5798 714.075 Q96.4085 709.469 96.4085 700.742 Q96.4085 692.547 100.297 687.686 Q104.186 682.802 110.737 682.802 Q112.496 682.802 114.279 683.149 Q116.084 683.497 118.029 684.191 Z" fill="#000000" fill-rule="evenodd" fill-opacity="1" /><path clip-path="url(#clip610)" d="M63.2837 415.512 Q59.6726 415.512 57.8439 419.077 Q56.0384 422.618 56.0384 429.748 Q56.0384 436.854 57.8439 440.419 Q59.6726 443.961 63.2837 443.961 Q66.918 443.961 68.7235 440.419 Q70.5522 436.854 70.5522 429.748 Q70.5522 422.618 68.7235 419.077 Q66.918 415.512 63.2837 415.512 M63.2837 411.808 Q69.0939 411.808 72.1494 416.415 Q75.2281 420.998 75.2281 429.748 Q75.2281 438.475 72.1494 443.081 Q69.0939 447.664 63.2837 447.664 Q57.4736 447.664 54.3949 443.081 Q51.3393 438.475 51.3393 429.748 Q51.3393 420.998 54.3949 416.415 Q57.4736 411.808 63.2837 411.808 Z" fill="#000000" fill-rule="evenodd" fill-opacity="1" /><path clip-path="url(#clip610)" d="M83.4457 441.114 L88.3299 441.114 L88.3299 446.993 L83.4457 446.993 L83.4457 441.114 Z" fill="#000000" fill-rule="evenodd" fill-opacity="1" /><path clip-path="url(#clip610)" d="M98.6539 446.276 L98.6539 442.016 Q100.413 442.85 102.219 443.289 Q104.024 443.729 105.76 443.729 Q110.39 443.729 112.82 440.627 Q115.274 437.502 115.621 431.16 Q114.279 433.151 112.219 434.215 Q110.158 435.28 107.658 435.28 Q102.473 435.28 99.4409 432.155 Q96.4317 429.007 96.4317 423.567 Q96.4317 418.243 99.5798 415.026 Q102.728 411.808 107.959 411.808 Q113.955 411.808 117.103 416.415 Q120.274 420.998 120.274 429.748 Q120.274 437.919 116.385 442.803 Q112.52 447.664 105.969 447.664 Q104.209 447.664 102.404 447.317 Q100.598 446.97 98.6539 446.276 M107.959 431.623 Q111.108 431.623 112.936 429.47 Q114.788 427.317 114.788 423.567 Q114.788 419.841 112.936 417.688 Q111.108 415.512 107.959 415.512 Q104.811 415.512 102.959 417.688 Q101.131 419.841 101.131 423.567 Q101.131 427.317 102.959 429.47 Q104.811 431.623 107.959 431.623 Z" fill="#000000" fill-rule="evenodd" fill-opacity="1" /><path clip-path="url(#clip610)" d="M55.506 172.064 L63.1448 172.064 L63.1448 145.698 L54.8347 147.365 L54.8347 143.106 L63.0985 141.439 L67.7744 141.439 L67.7744 172.064 L75.4133 172.064 L75.4133 175.999 L55.506 175.999 L55.506 172.064 Z" fill="#000000" fill-rule="evenodd" fill-opacity="1" /><path clip-path="url(#clip610)" d="M84.8577 170.12 L89.7419 170.12 L89.7419 175.999 L84.8577 175.999 L84.8577 170.12 Z" fill="#000000" fill-rule="evenodd" fill-opacity="1" /><path clip-path="url(#clip610)" d="M103.955 172.064 L120.274 172.064 L120.274 175.999 L98.3298 175.999 L98.3298 172.064 Q100.992 169.309 105.575 164.68 Q110.182 160.027 111.362 158.684 Q113.608 156.161 114.487 154.425 Q115.39 152.666 115.39 150.976 Q115.39 148.222 113.445 146.485 Q111.524 144.749 108.422 144.749 Q106.223 144.749 103.77 145.513 Q101.339 146.277 98.5613 147.828 L98.5613 143.106 Q101.385 141.972 103.839 141.393 Q106.293 140.814 108.33 140.814 Q113.7 140.814 116.895 143.499 Q120.089 146.185 120.089 150.675 Q120.089 152.805 119.279 154.726 Q118.492 156.624 116.385 159.217 Q115.807 159.888 112.705 163.106 Q109.603 166.3 103.955 172.064 Z" fill="#000000" fill-rule="evenodd" fill-opacity="1" /><polyline clip-path="url(#clip612)" style="stroke:#009af9; stroke-linecap:round; stroke-linejoin:round; stroke-width:16; stroke-opacity:1; fill:none" stroke-dasharray="8, 16" points="
  218.439,1045.51 228.852,1060.41 239.264,1075.31 249.677,1090.21 260.09,1105.11 270.503,1120.02 280.916,1134.92 291.329,1149.82 301.741,1164.72 312.154,1183.57 
  322.567,1203.37 332.98,1223.18 343.393,1242.99 353.805,1262.79 364.218,1282.6 374.631,1302.41 385.044,1322.21 395.457,1342.02 405.87,1361.82 416.282,1381.63 
  426.695,1401.43 437.108,1415.4 447.521,1427.12 457.934,1424.18 468.347,1408.63 478.759,1381.8 489.172,1354.98 499.585,1328.16 509.998,1301.34 520.411,1274.51 
  530.824,1247.69 541.236,1220.87 551.649,1194.04 562.062,1167.22 572.475,1140.4 582.888,1113.58 593.301,1086.75 603.713,1060.63 614.126,1038.78 624.539,1019.77 
  634.952,1046.86 645.365,1073.94 655.777,1101.02 666.19,1128.11 676.603,1155.19 687.016,1182.27 697.429,1209.36 707.842,1236.44 718.254,1263.53 728.667,1290.61 
  739.08,1317.69 749.493,1344.78 759.906,1371.86 770.319,1396.73 780.731,1421.22 791.144,1445.72 801.557,1438.41 811.97,1420.33 822.383,1402.24 832.796,1384.33 
  843.208,1369.82 853.621,1353.9 864.034,1325.58 874.447,1296.37 884.86,1267.17 895.273,1233.37 905.685,1192 916.098,1151.19 926.511,1133.97 936.924,1117.51 
  947.337,1103.8 957.749,1090.09 968.162,1076.7 978.575,1063.85 988.988,1059.06 999.401,1072.18 1009.81,1084.93 1020.23,1099.05 1030.64,1126.9 1041.05,1154.75 
  1051.46,1182.53 1061.88,1209.59 1072.29,1234.35 1082.7,1260.67 1093.12,1296.62 1103.53,1332.27 1113.94,1365.25 1124.35,1385.16 1134.77,1403.41 1145.18,1416.4 
  1155.59,1419.76 1166.01,1419.91 1176.42,1420.84 1186.83,1412.41 1197.24,1395.59 1207.66,1387.96 1218.07,1378.17 1228.48,1347.71 1238.9,1233.07 1249.31,1046.98 
  1259.72,779.51 1270.13,463.668 1280.55,285.084 1290.96,302.184 1301.37,338.787 1311.79,369.422 1322.2,351.532 1332.61,351.989 1343.02,334.754 1353.44,324.706 
  1363.85,316.651 1374.26,321.783 1384.68,322.265 1395.09,325.138 1405.5,335.005 1415.91,346.352 1426.33,357.653 1436.74,368.955 1447.15,377.147 1457.57,358.853 
  1467.98,340.559 1478.39,322.265 1488.8,309.269 1499.22,313.897 1509.63,318.525 1520.04,323.153 1530.45,327.781 1540.87,332.409 1551.28,337.036 1561.69,341.664 
  1572.11,345.298 1582.52,345.017 1592.93,344.738 1603.34,344.458 1613.76,344.178 1624.17,343.898 1634.58,343.618 1645,343.338 1655.41,343.058 1665.82,342.778 
  1676.23,342.498 1686.65,342.218 1697.06,341.282 1707.47,339.842 1717.89,338.401 1728.3,336.961 1738.71,335.521 1749.12,334.3 1759.54,333.12 1769.95,331.94 
  1780.36,330.76 1790.78,329.58 1801.19,328.4 1811.6,327.22 1822.01,326.039 1832.43,324.859 1842.84,323.679 1853.25,322.499 1863.67,321.319 1874.08,321.653 
  1884.49,322.731 1894.9,323.809 1905.32,324.887 1915.73,325.965 1926.14,327.043 1936.56,328.122 1946.97,329.2 1957.38,330.278 1967.79,331.356 1978.21,332.434 
  1988.62,333.513 1999.03,334.59 2009.45,335.669 2019.86,336.747 2030.27,337.825 2040.68,338.904 2051.1,339.981 2061.51,341.059 2071.92,342.138 2082.33,343.216 
  2092.75,344.294 2103.16,345.372 2113.57,346.45 2123.99,349.077 2134.4,352.169 2144.81,355.26 2155.22,358.351 2165.64,361.443 2176.05,364.535 2186.46,367.627 
  2196.88,370.719 2207.29,373.81 2217.7,376.902 2228.11,379.993 2238.53,383.085 2248.94,386.177 2259.35,389.269 2269.77,392.36 2280.18,395.452 2290.59,398.544 
  
  "/>
<polyline clip-path="url(#clip612)" style="stroke:#e26f46; stroke-linecap:round; stroke-linejoin:round; stroke-width:4; stroke-opacity:1; fill:none" points="
  218.439,1107.02 228.852,1087.77 239.264,1073.58 249.677,1064.9 260.09,1062.03 270.503,1065.06 280.916,1073.88 291.329,1088.21 301.741,1107.59 312.154,1131.37 
  322.567,1158.79 332.98,1188.95 343.393,1220.86 353.805,1253.48 364.218,1285.75 374.631,1316.61 385.044,1345.07 395.457,1370.18 405.87,1391.13 416.282,1407.24 
  426.695,1417.97 437.108,1422.99 447.521,1422.12 457.934,1415.4 468.347,1403.04 478.759,1385.44 489.172,1363.19 499.585,1337 509.998,1307.74 520.411,1276.35 
  530.824,1243.87 541.236,1211.35 551.649,1179.85 562.062,1150.4 572.475,1123.96 582.888,1101.4 593.301,1083.45 603.713,1070.7 614.126,1063.56 624.539,1062.27 
  634.952,1066.86 645.365,1077.2 655.777,1092.93 666.19,1113.56 676.603,1138.4 687.016,1166.64 697.429,1197.37 707.842,1229.57 718.254,1262.2 728.667,1294.2 
  739.08,1324.52 749.493,1352.16 759.906,1376.23 770.319,1395.95 780.731,1410.66 791.144,1419.89 801.557,1423.34 811.97,1420.89 822.383,1412.62 832.796,1398.81 
  843.208,1379.91 853.621,1356.52 864.034,1329.43 874.447,1299.5 884.86,1267.71 895.273,1235.11 905.685,1202.76 916.098,1171.71 926.511,1142.98 936.924,1117.5 
  947.337,1096.11 957.749,1079.5 968.162,1068.22 978.575,1062.63 988.988,1062.92 999.401,1069.08 1009.81,1080.9 1020.23,1098.01 1030.64,1119.83 1041.05,1145.67 
  1051.46,1174.67 1061.88,1205.89 1072.29,1238.32 1082.7,1270.88 1093.12,1302.53 1103.53,1332.22 1113.94,1359 1124.35,1381.97 1134.77,1400.4 1145.18,1413.69 
  1155.59,1421.39 1166.01,1423.26 1176.42,1419.24 1186.83,1409.45 1197.24,1394.23 1207.66,1374.05 1218.07,1349.59 1228.48,1321.64 1238.9,1291.12 1249.31,1259.01 
  1259.72,338.07 1270.13,336.577 1280.55,337.936 1290.96,342.459 1301.37,348.761 1311.79,354.178 1322.2,355.782 1332.61,351.614 1343.02,341.677 1353.44,328.282 
  1363.85,315.535 1374.26,308.089 1384.68,309.517 1395.09,320.879 1405.5,339.989 1415.91,361.737 1426.33,379.448 1436.74,386.918 1447.15,380.523 1457.57,360.681 
  1467.98,332.141 1478.39,302.892 1488.8,281.93 1499.22,276.499 1509.63,289.663 1520.04,318.992 1530.45,356.87 1540.87,392.452 1551.28,414.767 1561.69,416.089 
  1572.11,394.529 1582.52,355.018 1592.93,308.247 1603.34,267.79 1613.76,246.163 1624.17,250.972 1634.58,282.327 1645,332.382 1655.41,387.255 1665.82,430.873 
  1676.23,449.679 1686.65,436.819 1697.06,394.532 1707.47,333.922 1717.89,272.072 1728.3,227.225 1738.71,213.413 1749.12,236.093 1759.54,290.149 1769.95,360.965 
  1780.36,428.355 1790.78,472.321 1801.19,478.98 1811.6,444.913 1822.01,378.579 1832.43,298.267 1842.84,227.063 1853.25,186.214 1863.67,188.797 1874.08,235.573 
  1884.49,314.342 1894.9,403.088 1905.32,476.127 1915.73,511.544 1926.14,497.753 1936.56,437.232 1946.97,346.238 1957.38,250.463 1967.79,177.779 1978.21,150.131 
  1988.62,176.924 1999.03,251.904 2009.45,354.537 2019.86,455.619 2030.27,525.588 2040.68,543.162 2051.1,501.798 2061.51,411.997 2071.92,298.686 2082.33,194.308 
  2092.75,129.534 2103.16,124.25 2113.57,181.483 2123.99,286.095 2134.4,408.755 2144.81,514.162 2155.22,571.198 2165.64,562.117 2176.05,488.026 2186.46,369.003 
  2196.88,238.676 2207.29,134.721 2217.7,87.9763 2228.11,113.299 2238.53,204.889 2248.94,337.527 2259.35,473.511 2269.77,573.369 2280.18,607.314 2290.59,564.12 
  
  "/>
<path clip-path="url(#clip610)" d="
M229.49 250.738 L700.371 250.738 L700.371 95.2176 L229.49 95.2176  Z
  " fill="#ffffff" fill-rule="evenodd" fill-opacity="1"/>
<polyline clip-path="url(#clip610)" style="stroke:#000000; stroke-linecap:round; stroke-linejoin:round; stroke-width:4; stroke-opacity:1; fill:none" points="
  229.49,250.738 700.371,250.738 700.371,95.2176 229.49,95.2176 229.49,250.738 
  "/>
<polyline clip-path="url(#clip610)" style="stroke:#009af9; stroke-linecap:round; stroke-linejoin:round; stroke-width:4; stroke-opacity:1; fill:none" stroke-dasharray="2, 4" points="
  253.896,147.058 400.328,147.058 
  "/>
<path clip-path="url(#clip610)" d="M429.409 133.62 L429.409 146.606 L435.289 146.606 Q438.552 146.606 440.335 144.916 Q442.117 143.227 442.117 140.102 Q442.117 137 440.335 135.31 Q438.552 133.62 435.289 133.62 L429.409 133.62 M424.733 129.778 L435.289 129.778 Q441.099 129.778 444.062 132.416 Q447.048 135.032 447.048 140.102 Q447.048 145.217 444.062 147.833 Q441.099 150.449 435.289 150.449 L429.409 150.449 L429.409 164.338 L424.733 164.338 L424.733 129.778 Z" fill="#000000" fill-rule="evenodd" fill-opacity="1" /><path clip-path="url(#clip610)" d="M467.325 142.393 Q466.608 141.977 465.751 141.791 Q464.918 141.583 463.899 141.583 Q460.288 141.583 458.344 143.944 Q456.423 146.282 456.423 150.68 L456.423 164.338 L452.14 164.338 L452.14 138.412 L456.423 138.412 L456.423 142.44 Q457.765 140.078 459.918 138.944 Q462.071 137.787 465.149 137.787 Q465.589 137.787 466.122 137.856 Q466.654 137.903 467.302 138.018 L467.325 142.393 Z" fill="#000000" fill-rule="evenodd" fill-opacity="1" /><path clip-path="url(#clip610)" d="M492.927 150.31 L492.927 152.393 L473.344 152.393 Q473.622 156.791 475.983 159.106 Q478.367 161.398 482.603 161.398 Q485.057 161.398 487.348 160.796 Q489.663 160.194 491.932 158.99 L491.932 163.018 Q489.64 163.99 487.233 164.5 Q484.825 165.009 482.348 165.009 Q476.145 165.009 472.511 161.398 Q468.899 157.787 468.899 151.629 Q468.899 145.264 472.325 141.537 Q475.774 137.787 481.608 137.787 Q486.839 137.787 489.872 141.166 Q492.927 144.523 492.927 150.31 M488.668 149.06 Q488.622 145.565 486.7 143.481 Q484.802 141.398 481.654 141.398 Q478.089 141.398 475.936 143.412 Q473.807 145.426 473.483 149.083 L488.668 149.06 Z" fill="#000000" fill-rule="evenodd" fill-opacity="1" /><path clip-path="url(#clip610)" d="M516.978 142.347 L516.978 128.319 L521.237 128.319 L521.237 164.338 L516.978 164.338 L516.978 160.449 Q515.635 162.763 513.575 163.898 Q511.538 165.009 508.668 165.009 Q503.969 165.009 501.006 161.259 Q498.066 157.509 498.066 151.398 Q498.066 145.287 501.006 141.537 Q503.969 137.787 508.668 137.787 Q511.538 137.787 513.575 138.921 Q515.635 140.032 516.978 142.347 M502.464 151.398 Q502.464 156.097 504.385 158.782 Q506.33 161.444 509.709 161.444 Q513.089 161.444 515.033 158.782 Q516.978 156.097 516.978 151.398 Q516.978 146.699 515.033 144.037 Q513.089 141.352 509.709 141.352 Q506.33 141.352 504.385 144.037 Q502.464 146.699 502.464 151.398 Z" fill="#000000" fill-rule="evenodd" fill-opacity="1" /><path clip-path="url(#clip610)" d="M530.01 138.412 L534.269 138.412 L534.269 164.338 L530.01 164.338 L530.01 138.412 M530.01 128.319 L534.269 128.319 L534.269 133.713 L530.01 133.713 L530.01 128.319 Z" fill="#000000" fill-rule="evenodd" fill-opacity="1" /><path clip-path="url(#clip610)" d="M561.839 139.407 L561.839 143.389 Q560.033 142.393 558.205 141.907 Q556.399 141.398 554.547 141.398 Q550.404 141.398 548.112 144.037 Q545.82 146.652 545.82 151.398 Q545.82 156.143 548.112 158.782 Q550.404 161.398 554.547 161.398 Q556.399 161.398 558.205 160.912 Q560.033 160.402 561.839 159.407 L561.839 163.342 Q560.056 164.176 558.135 164.592 Q556.237 165.009 554.084 165.009 Q548.228 165.009 544.779 161.328 Q541.33 157.648 541.33 151.398 Q541.33 145.055 544.802 141.421 Q548.297 137.787 554.362 137.787 Q556.33 137.787 558.205 138.203 Q560.08 138.597 561.839 139.407 Z" fill="#000000" fill-rule="evenodd" fill-opacity="1" /><path clip-path="url(#clip610)" d="M573.459 131.051 L573.459 138.412 L582.232 138.412 L582.232 141.722 L573.459 141.722 L573.459 155.796 Q573.459 158.967 574.316 159.87 Q575.195 160.773 577.857 160.773 L582.232 160.773 L582.232 164.338 L577.857 164.338 Q572.927 164.338 571.052 162.509 Q569.177 160.657 569.177 155.796 L569.177 141.722 L566.052 141.722 L566.052 138.412 L569.177 138.412 L569.177 131.051 L573.459 131.051 Z" fill="#000000" fill-rule="evenodd" fill-opacity="1" /><path clip-path="url(#clip610)" d="M587.834 138.412 L592.093 138.412 L592.093 164.338 L587.834 164.338 L587.834 138.412 M587.834 128.319 L592.093 128.319 L592.093 133.713 L587.834 133.713 L587.834 128.319 Z" fill="#000000" fill-rule="evenodd" fill-opacity="1" /><path clip-path="url(#clip610)" d="M611.051 141.398 Q607.626 141.398 605.635 144.083 Q603.644 146.745 603.644 151.398 Q603.644 156.051 605.612 158.736 Q607.602 161.398 611.051 161.398 Q614.454 161.398 616.445 158.713 Q618.436 156.027 618.436 151.398 Q618.436 146.791 616.445 144.106 Q614.454 141.398 611.051 141.398 M611.051 137.787 Q616.607 137.787 619.778 141.398 Q622.95 145.009 622.95 151.398 Q622.95 157.764 619.778 161.398 Q616.607 165.009 611.051 165.009 Q605.473 165.009 602.302 161.398 Q599.153 157.764 599.153 151.398 Q599.153 145.009 602.302 141.398 Q605.473 137.787 611.051 137.787 Z" fill="#000000" fill-rule="evenodd" fill-opacity="1" /><path clip-path="url(#clip610)" d="M651.561 148.689 L651.561 164.338 L647.301 164.338 L647.301 148.828 Q647.301 145.148 645.866 143.319 Q644.431 141.49 641.561 141.49 Q638.112 141.49 636.121 143.69 Q634.13 145.889 634.13 149.685 L634.13 164.338 L629.848 164.338 L629.848 138.412 L634.13 138.412 L634.13 142.44 Q635.658 140.102 637.718 138.944 Q639.801 137.787 642.51 137.787 Q646.977 137.787 649.269 140.565 Q651.561 143.319 651.561 148.689 Z" fill="#000000" fill-rule="evenodd" fill-opacity="1" /><polyline clip-path="url(#clip610)" style="stroke:#e26f46; stroke-linecap:round; stroke-linejoin:round; stroke-width:4; stroke-opacity:1; fill:none" points="
  253.896,198.898 400.328,198.898 
  "/>
<path clip-path="url(#clip610)" d="M424.733 181.618 L446.585 181.618 L446.585 185.553 L429.409 185.553 L429.409 195.784 L445.867 195.784 L445.867 199.719 L429.409 199.719 L429.409 212.242 L447.001 212.242 L447.001 216.178 L424.733 216.178 L424.733 181.618 Z" fill="#000000" fill-rule="evenodd" fill-opacity="1" /><path clip-path="url(#clip610)" d="M476.052 190.252 L466.677 202.867 L476.538 216.178 L471.515 216.178 L463.969 205.992 L456.423 216.178 L451.4 216.178 L461.469 202.613 L452.256 190.252 L457.279 190.252 L464.154 199.488 L471.029 190.252 L476.052 190.252 Z" fill="#000000" fill-rule="evenodd" fill-opacity="1" /><path clip-path="url(#clip610)" d="M494.339 203.145 Q489.177 203.145 487.186 204.326 Q485.196 205.506 485.196 208.354 Q485.196 210.622 486.677 211.965 Q488.182 213.284 490.751 213.284 Q494.293 213.284 496.422 210.784 Q498.575 208.261 498.575 204.094 L498.575 203.145 L494.339 203.145 M502.834 201.386 L502.834 216.178 L498.575 216.178 L498.575 212.242 Q497.117 214.603 494.941 215.738 Q492.765 216.849 489.617 216.849 Q485.635 216.849 483.274 214.627 Q480.936 212.381 480.936 208.631 Q480.936 204.256 483.853 202.034 Q486.793 199.812 492.603 199.812 L498.575 199.812 L498.575 199.395 Q498.575 196.455 496.631 194.858 Q494.71 193.238 491.214 193.238 Q488.992 193.238 486.885 193.77 Q484.779 194.303 482.835 195.367 L482.835 191.432 Q485.173 190.53 487.372 190.09 Q489.571 189.627 491.654 189.627 Q497.279 189.627 500.057 192.543 Q502.834 195.46 502.834 201.386 Z" fill="#000000" fill-rule="evenodd" fill-opacity="1" /><path clip-path="url(#clip610)" d="M530.265 191.247 L530.265 195.229 Q528.459 194.233 526.631 193.747 Q524.825 193.238 522.973 193.238 Q518.83 193.238 516.538 195.877 Q514.246 198.492 514.246 203.238 Q514.246 207.983 516.538 210.622 Q518.83 213.238 522.973 213.238 Q524.825 213.238 526.631 212.752 Q528.459 212.242 530.265 211.247 L530.265 215.182 Q528.482 216.016 526.561 216.432 Q524.663 216.849 522.51 216.849 Q516.654 216.849 513.205 213.168 Q509.756 209.488 509.756 203.238 Q509.756 196.895 513.228 193.261 Q516.723 189.627 522.788 189.627 Q524.756 189.627 526.631 190.043 Q528.506 190.437 530.265 191.247 Z" fill="#000000" fill-rule="evenodd" fill-opacity="1" /><path clip-path="url(#clip610)" d="M541.885 182.891 L541.885 190.252 L550.658 190.252 L550.658 193.562 L541.885 193.562 L541.885 207.636 Q541.885 210.807 542.742 211.71 Q543.621 212.613 546.283 212.613 L550.658 212.613 L550.658 216.178 L546.283 216.178 Q541.353 216.178 539.478 214.349 Q537.603 212.497 537.603 207.636 L537.603 193.562 L534.478 193.562 L534.478 190.252 L537.603 190.252 L537.603 182.891 L541.885 182.891 Z" fill="#000000" fill-rule="evenodd" fill-opacity="1" /></svg>
