<?xml version="1.0" encoding="utf-8"?>
<svg xmlns="http://www.w3.org/2000/svg" xmlns:xlink="http://www.w3.org/1999/xlink" width="600" height="400" viewBox="0 0 2400 1600">
<defs>
  <clipPath id="clip730">
    <rect x="0" y="0" width="2400" height="1600"/>
  </clipPath>
</defs>
<path clip-path="url(#clip730)" d="
M0 1600 L2400 1600 L2400 0 L0 0  Z
  " fill="#ffffff" fill-rule="evenodd" fill-opacity="1"/>
<defs>
  <clipPath id="clip731">
    <rect x="480" y="0" width="1681" height="1600"/>
  </clipPath>
</defs>
<path clip-path="url(#clip730)" d="
M156.274 1486.45 L2352.76 1486.45 L2352.76 47.2441 L156.274 47.2441  Z
  " fill="#ffffff" fill-rule="evenodd" fill-opacity="1"/>
<defs>
  <clipPath id="clip732">
    <rect x="156" y="47" width="2197" height="1440"/>
  </clipPath>
</defs>
<polyline clip-path="url(#clip732)" style="stroke:#000000; stroke-linecap:round; stroke-linejoin:round; stroke-width:2; stroke-opacity:0.1; fill:none" points="
  218.439,1486.45 218.439,47.2441 
  "/>
<polyline clip-path="url(#clip732)" style="stroke:#000000; stroke-linecap:round; stroke-linejoin:round; stroke-width:2; stroke-opacity:0.1; fill:none" points="
  736.477,1486.45 736.477,47.2441 
  "/>
<polyline clip-path="url(#clip732)" style="stroke:#000000; stroke-linecap:round; stroke-linejoin:round; stroke-width:2; stroke-opacity:0.1; fill:none" points="
  1254.52,1486.45 1254.52,47.2441 
  "/>
<polyline clip-path="url(#clip732)" style="stroke:#000000; stroke-linecap:round; stroke-linejoin:round; stroke-width:2; stroke-opacity:0.1; fill:none" points="
  1772.55,1486.45 1772.55,47.2441 
  "/>
<polyline clip-path="url(#clip732)" style="stroke:#000000; stroke-linecap:round; stroke-linejoin:round; stroke-width:2; stroke-opacity:0.1; fill:none" points="
  2290.59,1486.45 2290.59,47.2441 
  "/>
<polyline clip-path="url(#clip730)" style="stroke:#000000; stroke-linecap:round; stroke-linejoin:round; stroke-width:4; stroke-opacity:1; fill:none" points="
  156.274,1486.45 2352.76,1486.45 
  "/>
<polyline clip-path="url(#clip730)" style="stroke:#000000; stroke-linecap:round; stroke-linejoin:round; stroke-width:4; stroke-opacity:1; fill:none" points="
  218.439,1486.45 218.439,1467.55 
  "/>
<polyline clip-path="url(#clip730)" style="stroke:#000000; stroke-linecap:round; stroke-linejoin:round; stroke-width:4; stroke-opacity:1; fill:none" points="
  736.477,1486.45 736.477,1467.55 
  "/>
<polyline clip-path="url(#clip730)" style="stroke:#000000; stroke-linecap:round; stroke-linejoin:round; stroke-width:4; stroke-opacity:1; fill:none" points="
  1254.52,1486.45 1254.52,1467.55 
  "/>
<polyline clip-path="url(#clip730)" style="stroke:#000000; stroke-linecap:round; stroke-linejoin:round; stroke-width:4; stroke-opacity:1; fill:none" points="
  1772.55,1486.45 1772.55,1467.55 
  "/>
<polyline clip-path="url(#clip730)" style="stroke:#000000; stroke-linecap:round; stroke-linejoin:round; stroke-width:4; stroke-opacity:1; fill:none" points="
  2290.59,1486.45 2290.59,1467.55 
  "/>
<path clip-path="url(#clip730)" d="M164.967 1532.02 L194.643 1532.02 L194.643 1535.95 L164.967 1535.95 L164.967 1532.02 Z" fill="#000000" fill-rule="evenodd" fill-opacity="1" /><path clip-path="url(#clip730)" d="M205.545 1544.91 L213.184 1544.91 L213.184 1518.55 L204.874 1520.21 L204.874 1515.95 L213.138 1514.29 L217.814 1514.29 L217.814 1544.91 L225.453 1544.91 L225.453 1548.85 L205.545 1548.85 L205.545 1544.91 Z" fill="#000000" fill-rule="evenodd" fill-opacity="1" /><path clip-path="url(#clip730)" d="M234.897 1542.97 L239.781 1542.97 L239.781 1548.85 L234.897 1548.85 L234.897 1542.97 Z" fill="#000000" fill-rule="evenodd" fill-opacity="1" /><path clip-path="url(#clip730)" d="M259.966 1517.37 Q256.355 1517.37 254.527 1520.93 Q252.721 1524.47 252.721 1531.6 Q252.721 1538.71 254.527 1542.27 Q256.355 1545.82 259.966 1545.82 Q263.601 1545.82 265.406 1542.27 Q267.235 1538.71 267.235 1531.6 Q267.235 1524.47 265.406 1520.93 Q263.601 1517.37 259.966 1517.37 M259.966 1513.66 Q265.776 1513.66 268.832 1518.27 Q271.911 1522.85 271.911 1531.6 Q271.911 1540.33 268.832 1544.94 Q265.776 1549.52 259.966 1549.52 Q254.156 1549.52 251.077 1544.94 Q248.022 1540.33 248.022 1531.6 Q248.022 1522.85 251.077 1518.27 Q254.156 1513.66 259.966 1513.66 Z" fill="#000000" fill-rule="evenodd" fill-opacity="1" /><path clip-path="url(#clip730)" d="M683.503 1532.02 L713.178 1532.02 L713.178 1535.95 L683.503 1535.95 L683.503 1532.02 Z" fill="#000000" fill-rule="evenodd" fill-opacity="1" /><path clip-path="url(#clip730)" d="M733.271 1517.37 Q729.66 1517.37 727.831 1520.93 Q726.026 1524.47 726.026 1531.6 Q726.026 1538.71 727.831 1542.27 Q729.66 1545.82 733.271 1545.82 Q736.905 1545.82 738.711 1542.27 Q740.539 1538.71 740.539 1531.6 Q740.539 1524.47 738.711 1520.93 Q736.905 1517.37 733.271 1517.37 M733.271 1513.66 Q739.081 1513.66 742.137 1518.27 Q745.215 1522.85 745.215 1531.6 Q745.215 1540.33 742.137 1544.94 Q739.081 1549.52 733.271 1549.52 Q727.461 1549.52 724.382 1544.94 Q721.327 1540.33 721.327 1531.6 Q721.327 1522.85 724.382 1518.27 Q727.461 1513.66 733.271 1513.66 Z" fill="#000000" fill-rule="evenodd" fill-opacity="1" /><path clip-path="url(#clip730)" d="M753.433 1542.97 L758.317 1542.97 L758.317 1548.85 L753.433 1548.85 L753.433 1542.97 Z" fill="#000000" fill-rule="evenodd" fill-opacity="1" /><path clip-path="url(#clip730)" d="M768.548 1514.29 L786.905 1514.29 L786.905 1518.22 L772.831 1518.22 L772.831 1526.7 Q773.849 1526.35 774.868 1526.19 Q775.886 1526 776.905 1526 Q782.692 1526 786.072 1529.17 Q789.451 1532.34 789.451 1537.76 Q789.451 1543.34 785.979 1546.44 Q782.507 1549.52 776.187 1549.52 Q774.011 1549.52 771.743 1549.15 Q769.498 1548.78 767.09 1548.04 L767.09 1543.34 Q769.173 1544.47 771.396 1545.03 Q773.618 1545.58 776.095 1545.58 Q780.099 1545.58 782.437 1543.48 Q784.775 1541.37 784.775 1537.76 Q784.775 1534.15 782.437 1532.04 Q780.099 1529.94 776.095 1529.94 Q774.22 1529.94 772.345 1530.35 Q770.493 1530.77 768.548 1531.65 L768.548 1514.29 Z" fill="#000000" fill-rule="evenodd" fill-opacity="1" /><path clip-path="url(#clip730)" d="M1231.9 1517.37 Q1228.29 1517.37 1226.46 1520.93 Q1224.65 1524.47 1224.65 1531.6 Q1224.65 1538.71 1226.46 1542.27 Q1228.29 1545.82 1231.9 1545.82 Q1235.53 1545.82 1237.34 1542.27 Q1239.17 1538.71 1239.17 1531.6 Q1239.17 1524.47 1237.34 1520.93 Q1235.53 1517.37 1231.9 1517.37 M1231.9 1513.66 Q1237.71 1513.66 1240.77 1518.27 Q1243.84 1522.85 1243.84 1531.6 Q1243.84 1540.33 1240.77 1544.94 Q1237.71 1549.52 1231.9 1549.52 Q1226.09 1549.52 1223.01 1544.94 Q1219.96 1540.33 1219.96 1531.6 Q1219.96 1522.85 1223.01 1518.27 Q1226.09 1513.66 1231.9 1513.66 Z" fill="#000000" fill-rule="evenodd" fill-opacity="1" /><path clip-path="url(#clip730)" d="M1252.06 1542.97 L1256.95 1542.97 L1256.95 1548.85 L1252.06 1548.85 L1252.06 1542.97 Z" fill="#000000" fill-rule="evenodd" fill-opacity="1" /><path clip-path="url(#clip730)" d="M1277.13 1517.37 Q1273.52 1517.37 1271.69 1520.93 Q1269.89 1524.47 1269.89 1531.6 Q1269.89 1538.71 1271.69 1542.27 Q1273.52 1545.82 1277.13 1545.82 Q1280.76 1545.82 1282.57 1542.27 Q1284.4 1538.71 1284.4 1531.6 Q1284.4 1524.47 1282.57 1520.93 Q1280.76 1517.37 1277.13 1517.37 M1277.13 1513.66 Q1282.94 1513.66 1286 1518.27 Q1289.08 1522.85 1289.08 1531.6 Q1289.08 1540.33 1286 1544.94 Q1282.94 1549.52 1277.13 1549.52 Q1271.32 1549.52 1268.24 1544.94 Q1265.19 1540.33 1265.19 1531.6 Q1265.19 1522.85 1268.24 1518.27 Q1271.32 1513.66 1277.13 1513.66 Z" fill="#000000" fill-rule="evenodd" fill-opacity="1" /><path clip-path="url(#clip730)" d="M1750.44 1517.37 Q1746.82 1517.37 1745 1520.93 Q1743.19 1524.47 1743.19 1531.6 Q1743.19 1538.71 1745 1542.27 Q1746.82 1545.82 1750.44 1545.82 Q1754.07 1545.82 1755.88 1542.27 Q1757.7 1538.71 1757.7 1531.6 Q1757.7 1524.47 1755.88 1520.93 Q1754.07 1517.37 1750.44 1517.37 M1750.44 1513.66 Q1756.25 1513.66 1759.3 1518.27 Q1762.38 1522.85 1762.38 1531.6 Q1762.38 1540.33 1759.3 1544.94 Q1756.25 1549.52 1750.44 1549.52 Q1744.63 1549.52 1741.55 1544.94 Q1738.49 1540.33 1738.49 1531.6 Q1738.49 1522.85 1741.55 1518.27 Q1744.63 1513.66 1750.44 1513.66 Z" fill="#000000" fill-rule="evenodd" fill-opacity="1" /><path clip-path="url(#clip730)" d="M1770.6 1542.97 L1775.48 1542.97 L1775.48 1548.85 L1770.6 1548.85 L1770.6 1542.97 Z" fill="#000000" fill-rule="evenodd" fill-opacity="1" /><path clip-path="url(#clip730)" d="M1785.71 1514.29 L1804.07 1514.29 L1804.07 1518.22 L1790 1518.22 L1790 1526.7 Q1791.01 1526.35 1792.03 1526.19 Q1793.05 1526 1794.07 1526 Q1799.86 1526 1803.24 1529.17 Q1806.62 1532.34 1806.62 1537.76 Q1806.62 1543.34 1803.14 1546.44 Q1799.67 1549.52 1793.35 1549.52 Q1791.18 1549.52 1788.91 1549.15 Q1786.66 1548.78 1784.25 1548.04 L1784.25 1543.34 Q1786.34 1544.47 1788.56 1545.03 Q1790.78 1545.58 1793.26 1545.58 Q1797.26 1545.58 1799.6 1543.48 Q1801.94 1541.37 1801.94 1537.76 Q1801.94 1534.15 1799.6 1532.04 Q1797.26 1529.94 1793.26 1529.94 Q1791.38 1529.94 1789.51 1530.35 Q1787.66 1530.77 1785.71 1531.65 L1785.71 1514.29 Z" fill="#000000" fill-rule="evenodd" fill-opacity="1" /><path clip-path="url(#clip730)" d="M2257.74 1544.91 L2265.38 1544.91 L2265.38 1518.55 L2257.07 1520.21 L2257.07 1515.95 L2265.34 1514.29 L2270.01 1514.29 L2270.01 1544.91 L2277.65 1544.91 L2277.65 1548.85 L2257.74 1548.85 L2257.74 1544.91 Z" fill="#000000" fill-rule="evenodd" fill-opacity="1" /><path clip-path="url(#clip730)" d="M2287.1 1542.97 L2291.98 1542.97 L2291.98 1548.85 L2287.1 1548.85 L2287.1 1542.97 Z" fill="#000000" fill-rule="evenodd" fill-opacity="1" /><path clip-path="url(#clip730)" d="M2312.17 1517.37 Q2308.55 1517.37 2306.73 1520.93 Q2304.92 1524.47 2304.92 1531.6 Q2304.92 1538.71 2306.73 1542.27 Q2308.55 1545.82 2312.17 1545.82 Q2315.8 1545.82 2317.61 1542.27 Q2319.43 1538.71 2319.43 1531.6 Q2319.43 1524.47 2317.61 1520.93 Q2315.8 1517.37 2312.17 1517.37 M2312.17 1513.66 Q2317.98 1513.66 2321.03 1518.27 Q2324.11 1522.85 2324.11 1531.6 Q2324.11 1540.33 2321.03 1544.94 Q2317.98 1549.52 2312.17 1549.52 Q2306.36 1549.52 2303.28 1544.94 Q2300.22 1540.33 2300.22 1531.6 Q2300.22 1522.85 2303.28 1518.27 Q2306.36 1513.66 2312.17 1513.66 Z" fill="#000000" fill-rule="evenodd" fill-opacity="1" /><polyline clip-path="url(#clip732)" style="stroke:#000000; stroke-linecap:round; stroke-linejoin:round; stroke-width:2; stroke-opacity:0.1; fill:none" points="
  156.274,1252.55 2352.76,1252.55 
  "/>
<polyline clip-path="url(#clip732)" style="stroke:#000000; stroke-linecap:round; stroke-linejoin:round; stroke-width:2; stroke-opacity:0.1; fill:none" points="
  156.274,979.244 2352.76,979.244 
  "/>
<polyline clip-path="url(#clip732)" style="stroke:#000000; stroke-linecap:round; stroke-linejoin:round; stroke-width:2; stroke-opacity:0.1; fill:none" points="
  156.274,705.937 2352.76,705.937 
  "/>
<polyline clip-path="url(#clip732)" style="stroke:#000000; stroke-linecap:round; stroke-linejoin:round; stroke-width:2; stroke-opacity:0.1; fill:none" points="
  156.274,432.63 2352.76,432.63 
  "/>
<polyline clip-path="url(#clip732)" style="stroke:#000000; stroke-linecap:round; stroke-linejoin:round; stroke-width:2; stroke-opacity:0.1; fill:none" points="
  156.274,159.323 2352.76,159.323 
  "/>
<polyline clip-path="url(#clip730)" style="stroke:#000000; stroke-linecap:round; stroke-linejoin:round; stroke-width:4; stroke-opacity:1; fill:none" points="
  156.274,1486.45 156.274,47.2441 
  "/>
<polyline clip-path="url(#clip730)" style="stroke:#000000; stroke-linecap:round; stroke-linejoin:round; stroke-width:4; stroke-opacity:1; fill:none" points="
  156.274,1252.55 175.172,1252.55 
  "/>
<polyline clip-path="url(#clip730)" style="stroke:#000000; stroke-linecap:round; stroke-linejoin:round; stroke-width:4; stroke-opacity:1; fill:none" points="
  156.274,979.244 175.172,979.244 
  "/>
<polyline clip-path="url(#clip730)" style="stroke:#000000; stroke-linecap:round; stroke-linejoin:round; stroke-width:4; stroke-opacity:1; fill:none" points="
  156.274,705.937 175.172,705.937 
  "/>
<polyline clip-path="url(#clip730)" style="stroke:#000000; stroke-linecap:round; stroke-linejoin:round; stroke-width:4; stroke-opacity:1; fill:none" points="
  156.274,432.63 175.172,432.63 
  "/>
<polyline clip-path="url(#clip730)" style="stroke:#000000; stroke-linecap:round; stroke-linejoin:round; stroke-width:4; stroke-opacity:1; fill:none" points="
  156.274,159.323 175.172,159.323 
  "/>
<path clip-path="url(#clip730)" d="M63.0985 1238.35 Q59.4875 1238.35 57.6588 1241.91 Q55.8532 1245.46 55.8532 1252.59 Q55.8532 1259.69 57.6588 1263.26 Q59.4875 1266.8 63.0985 1266.8 Q66.7328 1266.8 68.5383 1263.26 Q70.367 1259.69 70.367 1252.59 Q70.367 1245.46 68.5383 1241.91 Q66.7328 1238.35 63.0985 1238.35 M63.0985 1234.65 Q68.9087 1234.65 71.9642 1239.25 Q75.0429 1243.84 75.0429 1252.59 Q75.0429 1261.31 71.9642 1265.92 Q68.9087 1270.5 63.0985 1270.5 Q57.2884 1270.5 54.2097 1265.92 Q51.1542 1261.31 51.1542 1252.59 Q51.1542 1243.84 54.2097 1239.25 Q57.2884 1234.65 63.0985 1234.65 Z" fill="#000000" fill-rule="evenodd" fill-opacity="1" /><path clip-path="url(#clip730)" d="M83.2605 1263.95 L88.1447 1263.95 L88.1447 1269.83 L83.2605 1269.83 L83.2605 1263.95 Z" fill="#000000" fill-rule="evenodd" fill-opacity="1" /><path clip-path="url(#clip730)" d="M108.33 1238.35 Q104.719 1238.35 102.89 1241.91 Q101.084 1245.46 101.084 1252.59 Q101.084 1259.69 102.89 1263.26 Q104.719 1266.8 108.33 1266.8 Q111.964 1266.8 113.77 1263.26 Q115.598 1259.69 115.598 1252.59 Q115.598 1245.46 113.77 1241.91 Q111.964 1238.35 108.33 1238.35 M108.33 1234.65 Q114.14 1234.65 117.195 1239.25 Q120.274 1243.84 120.274 1252.59 Q120.274 1261.31 117.195 1265.92 Q114.14 1270.5 108.33 1270.5 Q102.52 1270.5 99.4409 1265.92 Q96.3854 1261.31 96.3854 1252.59 Q96.3854 1243.84 99.4409 1239.25 Q102.52 1234.65 108.33 1234.65 Z" fill="#000000" fill-rule="evenodd" fill-opacity="1" /><path clip-path="url(#clip730)" d="M63.7467 965.043 Q60.1356 965.043 58.3069 968.608 Q56.5014 972.149 56.5014 979.279 Q56.5014 986.385 58.3069 989.95 Q60.1356 993.492 63.7467 993.492 Q67.3809 993.492 69.1865 989.95 Q71.0152 986.385 71.0152 979.279 Q71.0152 972.149 69.1865 968.608 Q67.3809 965.043 63.7467 965.043 M63.7467 961.339 Q69.5568 961.339 72.6124 965.946 Q75.6911 970.529 75.6911 979.279 Q75.6911 988.006 72.6124 992.612 Q69.5568 997.196 63.7467 997.196 Q57.9365 997.196 54.8578 992.612 Q51.8023 988.006 51.8023 979.279 Q51.8023 970.529 54.8578 965.946 Q57.9365 961.339 63.7467 961.339 Z" fill="#000000" fill-rule="evenodd" fill-opacity="1" /><path clip-path="url(#clip730)" d="M83.9086 990.645 L88.7928 990.645 L88.7928 996.524 L83.9086 996.524 L83.9086 990.645 Z" fill="#000000" fill-rule="evenodd" fill-opacity="1" /><path clip-path="url(#clip730)" d="M113.145 977.89 Q116.501 978.608 118.376 980.876 Q120.274 983.145 120.274 986.478 Q120.274 991.594 116.756 994.395 Q113.237 997.196 106.756 997.196 Q104.58 997.196 102.265 996.756 Q99.9733 996.339 97.5197 995.483 L97.5197 990.969 Q99.4641 992.103 101.779 992.682 Q104.094 993.26 106.617 993.26 Q111.015 993.26 113.307 991.524 Q115.621 989.788 115.621 986.478 Q115.621 983.422 113.469 981.71 Q111.339 979.973 107.52 979.973 L103.492 979.973 L103.492 976.131 L107.705 976.131 Q111.154 976.131 112.983 974.765 Q114.811 973.376 114.811 970.784 Q114.811 968.122 112.913 966.71 Q111.038 965.274 107.52 965.274 Q105.598 965.274 103.399 965.691 Q101.2 966.108 98.5613 966.987 L98.5613 962.821 Q101.223 962.08 103.538 961.71 Q105.876 961.339 107.936 961.339 Q113.26 961.339 116.362 963.77 Q119.464 966.177 119.464 970.298 Q119.464 973.168 117.82 975.159 Q116.177 977.126 113.145 977.89 Z" fill="#000000" fill-rule="evenodd" fill-opacity="1" /><path clip-path="url(#clip730)" d="M62.9365 691.736 Q59.3254 691.736 57.4967 695.301 Q55.6912 698.842 55.6912 705.972 Q55.6912 713.078 57.4967 716.643 Q59.3254 720.185 62.9365 720.185 Q66.5707 720.185 68.3763 716.643 Q70.205 713.078 70.205 705.972 Q70.205 698.842 68.3763 695.301 Q66.5707 691.736 62.9365 691.736 M62.9365 688.032 Q68.7467 688.032 71.8022 692.639 Q74.8809 697.222 74.8809 705.972 Q74.8809 714.699 71.8022 719.305 Q68.7467 723.888 62.9365 723.888 Q57.1264 723.888 54.0477 719.305 Q50.9921 714.699 50.9921 705.972 Q50.9921 697.222 54.0477 692.639 Q57.1264 688.032 62.9365 688.032 Z" fill="#000000" fill-rule="evenodd" fill-opacity="1" /><path clip-path="url(#clip730)" d="M83.0984 717.338 L87.9827 717.338 L87.9827 723.217 L83.0984 723.217 L83.0984 717.338 Z" fill="#000000" fill-rule="evenodd" fill-opacity="1" /><path clip-path="url(#clip730)" d="M108.746 704.074 Q105.598 704.074 103.746 706.227 Q101.918 708.379 101.918 712.129 Q101.918 715.856 103.746 718.032 Q105.598 720.185 108.746 720.185 Q111.895 720.185 113.723 718.032 Q115.575 715.856 115.575 712.129 Q115.575 708.379 113.723 706.227 Q111.895 704.074 108.746 704.074 M118.029 689.421 L118.029 693.68 Q116.27 692.847 114.464 692.407 Q112.682 691.967 110.922 691.967 Q106.293 691.967 103.839 695.092 Q101.409 698.217 101.061 704.537 Q102.427 702.523 104.487 701.458 Q106.547 700.37 109.024 700.37 Q114.233 700.37 117.242 703.541 Q120.274 706.69 120.274 712.129 Q120.274 717.453 117.126 720.671 Q113.978 723.888 108.746 723.888 Q102.751 723.888 99.5798 719.305 Q96.4085 714.699 96.4085 705.972 Q96.4085 697.778 100.297 692.916 Q104.186 688.032 110.737 688.032 Q112.496 688.032 114.279 688.379 Q116.084 688.727 118.029 689.421 Z" fill="#000000" fill-rule="evenodd" fill-opacity="1" /><path clip-path="url(#clip730)" d="M63.2837 418.429 Q59.6726 418.429 57.8439 421.994 Q56.0384 425.535 56.0384 432.665 Q56.0384 439.771 57.8439 443.336 Q59.6726 446.878 63.2837 446.878 Q66.918 446.878 68.7235 443.336 Q70.5522 439.771 70.5522 432.665 Q70.5522 425.535 68.7235 421.994 Q66.918 418.429 63.2837 418.429 M63.2837 414.725 Q69.0939 414.725 72.1494 419.332 Q75.2281 423.915 75.2281 432.665 Q75.2281 441.392 72.1494 445.998 Q69.0939 450.581 63.2837 450.581 Q57.4736 450.581 54.3949 445.998 Q51.3393 441.392 51.3393 432.665 Q51.3393 423.915 54.3949 419.332 Q57.4736 414.725 63.2837 414.725 Z" fill="#000000" fill-rule="evenodd" fill-opacity="1" /><path clip-path="url(#clip730)" d="M83.4457 444.031 L88.3299 444.031 L88.3299 449.91 L83.4457 449.91 L83.4457 444.031 Z" fill="#000000" fill-rule="evenodd" fill-opacity="1" /><path clip-path="url(#clip730)" d="M98.6539 449.193 L98.6539 444.933 Q100.413 445.767 102.219 446.206 Q104.024 446.646 105.76 446.646 Q110.39 446.646 112.82 443.544 Q115.274 440.419 115.621 434.077 Q114.279 436.068 112.219 437.132 Q110.158 438.197 107.658 438.197 Q102.473 438.197 99.4409 435.072 Q96.4317 431.924 96.4317 426.484 Q96.4317 421.16 99.5798 417.943 Q102.728 414.725 107.959 414.725 Q113.955 414.725 117.103 419.332 Q120.274 423.915 120.274 432.665 Q120.274 440.836 116.385 445.72 Q112.52 450.581 105.969 450.581 Q104.209 450.581 102.404 450.234 Q100.598 449.887 98.6539 449.193 M107.959 434.54 Q111.108 434.54 112.936 432.387 Q114.788 430.234 114.788 426.484 Q114.788 422.757 112.936 420.605 Q111.108 418.429 107.959 418.429 Q104.811 418.429 102.959 420.605 Q101.131 422.757 101.131 426.484 Q101.131 430.234 102.959 432.387 Q104.811 434.54 107.959 434.54 Z" fill="#000000" fill-rule="evenodd" fill-opacity="1" /><path clip-path="url(#clip730)" d="M55.506 172.668 L63.1448 172.668 L63.1448 146.302 L54.8347 147.969 L54.8347 143.71 L63.0985 142.043 L67.7744 142.043 L67.7744 172.668 L75.4133 172.668 L75.4133 176.603 L55.506 176.603 L55.506 172.668 Z" fill="#000000" fill-rule="evenodd" fill-opacity="1" /><path clip-path="url(#clip730)" d="M84.8577 170.723 L89.7419 170.723 L89.7419 176.603 L84.8577 176.603 L84.8577 170.723 Z" fill="#000000" fill-rule="evenodd" fill-opacity="1" /><path clip-path="url(#clip730)" d="M103.955 172.668 L120.274 172.668 L120.274 176.603 L98.3298 176.603 L98.3298 172.668 Q100.992 169.913 105.575 165.284 Q110.182 160.631 111.362 159.288 Q113.608 156.765 114.487 155.029 Q115.39 153.27 115.39 151.58 Q115.39 148.825 113.445 147.089 Q111.524 145.353 108.422 145.353 Q106.223 145.353 103.77 146.117 Q101.339 146.881 98.5613 148.432 L98.5613 143.71 Q101.385 142.575 103.839 141.997 Q106.293 141.418 108.33 141.418 Q113.7 141.418 116.895 144.103 Q120.089 146.788 120.089 151.279 Q120.089 153.409 119.279 155.33 Q118.492 157.228 116.385 159.821 Q115.807 160.492 112.705 163.71 Q109.603 166.904 103.955 172.668 Z" fill="#000000" fill-rule="evenodd" fill-opacity="1" /><polyline clip-path="url(#clip732)" style="stroke:#009af9; stroke-linecap:round; stroke-linejoin:round; stroke-width:16; stroke-opacity:1; fill:none" stroke-dasharray="8, 16" points="
  218.439,1115.59 228.852,1105.8 239.264,1094.38 249.677,1083.09 260.09,1074.32 270.503,1071.06 280.916,1076.33 291.329,1092 301.741,1117.55 312.154,1149.53 
  322.567,1181.94 332.98,1209.47 343.393,1232.92 353.805,1258.76 364.218,1289.65 374.631,1321.7 385.044,1350.94 395.457,1375.76 405.87,1396.21 416.282,1412.82 
  426.695,1425.46 437.108,1433.01 447.521,1434.04 457.934,1427.77 468.347,1414.55 478.759,1395.59 489.172,1372.38 499.585,1346.14 509.998,1317.55 520.411,1286.91 
  530.824,1254.62 541.236,1221.68 551.649,1189.71 562.062,1160.39 572.475,1134.53 582.888,1111.85 593.301,1092.01 603.713,1075.93 614.126,1066.15 624.539,1065.25 
  634.952,1073.53 645.365,1088.41 655.777,1106.35 666.19,1126.3 676.603,1151.14 687.016,1182.95 697.429,1217.53 707.842,1249.4 718.254,1278.51 728.667,1308.07 
  739.08,1338.78 749.493,1367.42 759.906,1390.76 770.319,1408.08 780.731,1420.32 791.144,1428.81 801.557,1434.24 811.97,1435.95 822.383,1432.15 832.796,1420.53 
  843.208,1399.07 853.621,1367.56 864.034,1329.59 874.447,1292.62 884.86,1265.02 895.273,1250.61 905.685,1241.9 916.098,1222.66 926.511,1182.64 936.924,1129.22 
  947.337,1090.74 957.749,1082.07 968.162,1081.37 978.575,1075.26 988.988,1054.95 999.401,1033.43 1009.81,1048.81 1020.23,1101.75 1030.64,1138.78 1041.05,1134.56 
  1051.46,1153.29 1061.88,1212.2 1072.29,1256.75 1082.7,1290.14 1093.12,1321.86 1103.53,1344.24 1113.94,1390.22 1124.35,1436.48 1134.77,1445.72 1145.18,1436.87 
  1155.59,1422.08 1166.01,1387.16 1176.42,1344.8 1186.83,1390.79 1197.24,1437.46 1207.66,1441.11 1218.07,1423.44 1228.48,1359.43 1238.9,1242.53 1249.31,985.621 
  1259.72,669.497 1270.13,423.943 1280.55,305.637 1290.96,277.462 1301.37,307.912 1311.79,345.91 1322.2,383.647 1332.61,414.651 1343.02,414.737 1353.44,372.677 
  1363.85,300.853 1374.26,226.474 1384.68,148.106 1395.09,247.919 1405.5,362.967 1415.91,417.193 1426.33,417.116 1436.74,400.53 1447.15,388.567 1457.57,367.498 
  1467.98,327.982 1478.39,290.419 1488.8,300.566 1499.22,329.868 1509.63,347.696 1520.04,362.362 1530.45,358.173 1540.87,341.367 1551.28,349.301 1561.69,380.592 
  1572.11,398.716 1582.52,386.769 1592.93,347.64 1603.34,294.885 1613.76,253.681 1624.17,245.907 1634.58,271.269 1645,323.247 1655.41,391.892 1665.82,450.525 
  1676.23,475.312 1686.65,457.858 1697.06,402.89 1707.47,327.503 1717.89,256.927 1728.3,213.193 1738.71,210.71 1749.12,251.598 1759.54,317.659 1769.95,384.954 
  1780.36,436.414 1790.78,462.426 1801.19,459.627 1811.6,429.681 1822.01,378.136 1832.43,313.666 1842.84,248.463 1853.25,200.572 1863.67,193.423 1874.08,243.863 
  1884.49,337.89 1894.9,430.03 1905.32,488.927 1915.73,507.535 1926.14,487.945 1936.56,434.471 1946.97,354.573 1957.38,263.595 1967.79,186.624 1978.21,150.317 
  1988.62,171.831 1999.03,249.693 2009.45,358.81 2019.86,461.151 2030.27,525.538 2040.68,536.923 2051.1,494.649 2061.51,409.694 2071.92,302.428 2082.33,200.367 
  2092.75,134.715 2103.16,128.693 2113.57,183.824 2123.99,281.751 2134.4,395.69 2144.81,496.86 2155.22,558.73 2165.64,563.128 2176.05,504.632 2186.46,390.98 
  2196.88,246.623 2207.29,133.621 2217.7,120.57 2228.11,176.674 2238.53,254.351 2248.94,334.5 2259.35,409.398 2269.77,475.427 2280.18,530.92 2290.59,575.527 
  
  "/>
<polyline clip-path="url(#clip732)" style="stroke:#e26f46; stroke-linecap:round; stroke-linejoin:round; stroke-width:4; stroke-opacity:1; fill:none" points="
  218.439,1115.72 228.852,1096.3 239.264,1081.99 249.677,1073.24 260.09,1070.35 270.503,1073.4 280.916,1082.3 291.329,1096.75 301.741,1116.29 312.154,1140.28 
  322.567,1167.93 332.98,1198.34 343.393,1230.53 353.805,1263.43 364.218,1295.97 374.631,1327.1 385.044,1355.8 395.457,1381.12 405.87,1402.25 416.282,1418.5 
  426.695,1429.33 437.108,1434.38 447.521,1433.51 457.934,1426.73 468.347,1414.26 478.759,1396.52 489.172,1374.07 499.585,1347.66 509.998,1318.15 520.411,1286.5 
  530.824,1253.73 541.236,1220.93 551.649,1189.16 562.062,1159.46 572.475,1132.8 582.888,1110.05 593.301,1091.95 603.713,1079.08 614.126,1071.89 624.539,1070.58 
  634.952,1075.22 645.365,1085.64 655.777,1101.51 666.19,1122.31 676.603,1147.36 687.016,1175.85 697.429,1206.84 707.842,1239.31 718.254,1272.23 728.667,1304.5 
  739.08,1335.07 749.493,1362.95 759.906,1387.23 770.319,1407.11 780.731,1421.95 791.144,1431.26 801.557,1434.73 811.97,1432.27 822.383,1423.93 832.796,1410 
  843.208,1390.94 853.621,1367.35 864.034,1340.02 874.447,1309.84 884.86,1277.78 895.273,1244.9 905.685,1212.28 916.098,1180.96 926.511,1151.98 936.924,1126.29 
  947.337,1104.71 957.749,1087.97 968.162,1076.59 978.575,1070.95 988.988,1071.24 999.401,1077.45 1009.81,1089.38 1020.23,1106.63 1030.64,1128.64 1041.05,1154.7 
  1051.46,1183.95 1061.88,1215.44 1072.29,1248.14 1082.7,1280.98 1093.12,1312.9 1103.53,1342.84 1113.94,1369.84 1124.35,1393.02 1134.77,1411.6 1145.18,1425 
  1155.59,1432.77 1166.01,1434.66 1176.42,1430.6 1186.83,1420.73 1197.24,1405.37 1207.66,1385.03 1218.07,1360.36 1228.48,1332.17 1238.9,1301.39 1249.31,1269.01 
  1259.72,340.205 1270.13,338.699 1280.55,340.069 1290.96,344.631 1301.37,350.987 1311.79,356.45 1322.2,358.068 1332.61,353.864 1343.02,343.843 1353.44,330.333 
  1363.85,317.477 1374.26,309.967 1384.68,311.408 1395.09,322.867 1405.5,342.14 1415.91,364.074 1426.33,381.936 1436.74,389.47 1447.15,383.02 1457.57,363.009 
  1467.98,334.225 1478.39,304.727 1488.8,283.585 1499.22,278.108 1509.63,291.385 1520.04,320.964 1530.45,359.165 1540.87,395.05 1551.28,417.556 1561.69,418.889 
  1572.11,397.146 1582.52,357.297 1592.93,310.127 1603.34,269.325 1613.76,247.513 1624.17,252.363 1634.58,283.986 1645,334.468 1655.41,389.809 1665.82,433.8 
  1676.23,452.766 1686.65,439.797 1697.06,397.149 1707.47,336.022 1717.89,273.643 1728.3,228.414 1738.71,214.484 1749.12,237.357 1759.54,291.875 1769.95,363.295 
  1780.36,431.26 1790.78,475.602 1801.19,482.318 1811.6,447.96 1822.01,381.06 1832.43,300.062 1842.84,228.25 1853.25,187.053 1863.67,189.657 1874.08,236.833 
  1884.49,316.275 1894.9,405.778 1905.32,479.441 1915.73,515.16 1926.14,501.25 1936.56,440.213 1946.97,348.443 1957.38,251.85 1967.79,178.545 1978.21,150.661 
  1988.62,177.683 1999.03,253.303 2009.45,356.812 2019.86,458.757 2030.27,529.323 2040.68,547.048 2051.1,505.33 2061.51,414.762 2071.92,300.484 2082.33,195.216 
  2092.75,129.888 2103.16,124.559 2113.57,182.282 2123.99,287.786 2134.4,411.493 2144.81,517.8 2155.22,575.323 2165.64,566.164 2176.05,491.441 2186.46,371.402 
  2196.88,239.962 2207.29,135.12 2217.7,87.9763 2228.11,113.516 2238.53,205.887 2248.94,339.657 2259.35,476.801 2269.77,577.512 2280.18,611.747 2290.59,568.184 
  
  "/>
<path clip-path="url(#clip730)" d="
M229.49 250.738 L700.371 250.738 L700.371 95.2176 L229.49 95.2176  Z
  " fill="#ffffff" fill-rule="evenodd" fill-opacity="1"/>
<polyline clip-path="url(#clip730)" style="stroke:#000000; stroke-linecap:round; stroke-linejoin:round; stroke-width:4; stroke-opacity:1; fill:none" points="
  229.49,250.738 700.371,250.738 700.371,95.2176 229.49,95.2176 229.49,250.738 
  "/>
<polyline clip-path="url(#clip730)" style="stroke:#009af9; stroke-linecap:round; stroke-linejoin:round; stroke-width:4; stroke-opacity:1; fill:none" stroke-dasharray="2, 4" points="
  253.896,147.058 400.328,147.058 
  "/>
<path clip-path="url(#clip730)" d="M429.409 133.62 L429.409 146.606 L435.289 146.606 Q438.552 146.606 440.335 144.916 Q442.117 143.227 442.117 140.102 Q442.117 137 440.335 135.31 Q438.552 133.62 435.289 133.62 L429.409 133.62 M424.733 129.778 L435.289 129.778 Q441.099 129.778 444.062 132.416 Q447.048 135.032 447.048 140.102 Q447.048 145.217 444.062 147.833 Q441.099 150.449 435.289 150.449 L429.409 150.449 L429.409 164.338 L424.733 164.338 L424.733 129.778 Z" fill="#000000" fill-rule="evenodd" fill-opacity="1" /><path clip-path="url(#clip730)" d="M467.325 142.393 Q466.608 141.977 465.751 141.791 Q464.918 141.583 463.899 141.583 Q460.288 141.583 458.344 143.944 Q456.423 146.282 456.423 150.68 L456.423 164.338 L452.14 164.338 L452.14 138.412 L456.423 138.412 L456.423 142.44 Q457.765 140.078 459.918 138.944 Q462.071 137.787 465.149 137.787 Q465.589 137.787 466.122 137.856 Q466.654 137.903 467.302 138.018 L467.325 142.393 Z" fill="#000000" fill-rule="evenodd" fill-opacity="1" /><path clip-path="url(#clip730)" d="M492.927 150.31 L492.927 152.393 L473.344 152.393 Q473.622 156.791 475.983 159.106 Q478.367 161.398 482.603 161.398 Q485.057 161.398 487.348 160.796 Q489.663 160.194 491.932 158.99 L491.932 163.018 Q489.64 163.99 487.233 164.5 Q484.825 165.009 482.348 165.009 Q476.145 165.009 472.511 161.398 Q468.899 157.787 468.899 151.629 Q468.899 145.264 472.325 141.537 Q475.774 137.787 481.608 137.787 Q486.839 137.787 489.872 141.166 Q492.927 144.523 492.927 150.31 M488.668 149.06 Q488.622 145.565 486.7 143.481 Q484.802 141.398 481.654 141.398 Q478.089 141.398 475.936 143.412 Q473.807 145.426 473.483 149.083 L488.668 149.06 Z" fill="#000000" fill-rule="evenodd" fill-opacity="1" /><path clip-path="url(#clip730)" d="M516.978 142.347 L516.978 128.319 L521.237 128.319 L521.237 164.338 L516.978 164.338 L516.978 160.449 Q515.635 162.763 513.575 163.898 Q511.538 165.009 508.668 165.009 Q503.969 165.009 501.006 161.259 Q498.066 157.509 498.066 151.398 Q498.066 145.287 501.006 141.537 Q503.969 137.787 508.668 137.787 Q511.538 137.787 513.575 138.921 Q515.635 140.032 516.978 142.347 M502.464 151.398 Q502.464 156.097 504.385 158.782 Q506.33 161.444 509.709 161.444 Q513.089 161.444 515.033 158.782 Q516.978 156.097 516.978 151.398 Q516.978 146.699 515.033 144.037 Q513.089 141.352 509.709 141.352 Q506.33 141.352 504.385 144.037 Q502.464 146.699 502.464 151.398 Z" fill="#000000" fill-rule="evenodd" fill-opacity="1" /><path clip-path="url(#clip730)" d="M530.01 138.412 L534.269 138.412 L534.269 164.338 L530.01 164.338 L530.01 138.412 M530.01 128.319 L534.269 128.319 L534.269 133.713 L530.01 133.713 L530.01 128.319 Z" fill="#000000" fill-rule="evenodd" fill-opacity="1" /><path clip-path="url(#clip730)" d="M561.839 139.407 L561.839 143.389 Q560.033 142.393 558.205 141.907 Q556.399 141.398 554.547 141.398 Q550.404 141.398 548.112 144.037 Q545.82 146.652 545.82 151.398 Q545.82 156.143 548.112 158.782 Q550.404 161.398 554.547 161.398 Q556.399 161.398 558.205 160.912 Q560.033 160.402 561.839 159.407 L561.839 163.342 Q560.056 164.176 558.135 164.592 Q556.237 165.009 554.084 165.009 Q548.228 165.009 544.779 161.328 Q541.33 157.648 541.33 151.398 Q541.33 145.055 544.802 141.421 Q548.297 137.787 554.362 137.787 Q556.33 137.787 558.205 138.203 Q560.08 138.597 561.839 139.407 Z" fill="#000000" fill-rule="evenodd" fill-opacity="1" /><path clip-path="url(#clip730)" d="M573.459 131.051 L573.459 138.412 L582.232 138.412 L582.232 141.722 L573.459 141.722 L573.459 155.796 Q573.459 158.967 574.316 159.87 Q575.195 160.773 577.857 160.773 L582.232 160.773 L582.232 164.338 L577.857 164.338 Q572.927 164.338 571.052 162.509 Q569.177 160.657 569.177 155.796 L569.177 141.722 L566.052 141.722 L566.052 138.412 L569.177 138.412 L569.177 131.051 L573.459 131.051 Z" fill="#000000" fill-rule="evenodd" fill-opacity="1" /><path clip-path="url(#clip730)" d="M587.834 138.412 L592.093 138.412 L592.093 164.338 L587.834 164.338 L587.834 138.412 M587.834 128.319 L592.093 128.319 L592.093 133.713 L587.834 133.713 L587.834 128.319 Z" fill="#000000" fill-rule="evenodd" fill-opacity="1" /><path clip-path="url(#clip730)" d="M611.051 141.398 Q607.626 141.398 605.635 144.083 Q603.644 146.745 603.644 151.398 Q603.644 156.051 605.612 158.736 Q607.602 161.398 611.051 161.398 Q614.454 161.398 616.445 158.713 Q618.436 156.027 618.436 151.398 Q618.436 146.791 616.445 144.106 Q614.454 141.398 611.051 141.398 M611.051 137.787 Q616.607 137.787 619.778 141.398 Q622.95 145.009 622.95 151.398 Q622.95 157.764 619.778 161.398 Q616.607 165.009 611.051 165.009 Q605.473 165.009 602.302 161.398 Q599.153 157.764 599.153 151.398 Q599.153 145.009 602.302 141.398 Q605.473 137.787 611.051 137.787 Z" fill="#000000" fill-rule="evenodd" fill-opacity="1" /><path clip-path="url(#clip730)" d="M651.561 148.689 L651.561 164.338 L647.301 164.338 L647.301 148.828 Q647.301 145.148 645.866 143.319 Q644.431 141.49 641.561 141.49 Q638.112 141.49 636.121 143.69 Q634.13 145.889 634.13 149.685 L634.13 164.338 L629.848 164.338 L629.848 138.412 L634.13 138.412 L634.13 142.44 Q635.658 140.102 637.718 138.944 Q639.801 137.787 642.51 137.787 Q646.977 137.787 649.269 140.565 Q651.561 143.319 651.561 148.689 Z" fill="#000000" fill-rule="evenodd" fill-opacity="1" /><polyline clip-path="url(#clip730)" style="stroke:#e26f46; stroke-linecap:round; stroke-linejoin:round; stroke-width:4; stroke-opacity:1; fill:none" points="
  253.896,198.898 400.328,198.898 
  "/>
<path clip-path="url(#clip730)" d="M424.733 181.618 L446.585 181.618 L446.585 185.553 L429.409 185.553 L429.409 195.784 L445.867 195.784 L445.867 199.719 L429.409 199.719 L429.409 212.242 L447.001 212.242 L447.001 216.178 L424.733 216.178 L424.733 181.618 Z" fill="#000000" fill-rule="evenodd" fill-opacity="1" /><path clip-path="url(#clip730)" d="M476.052 190.252 L466.677 202.867 L476.538 216.178 L471.515 216.178 L463.969 205.992 L456.423 216.178 L451.4 216.178 L461.469 202.613 L452.256 190.252 L457.279 190.252 L464.154 199.488 L471.029 190.252 L476.052 190.252 Z" fill="#000000" fill-rule="evenodd" fill-opacity="1" /><path clip-path="url(#clip730)" d="M494.339 203.145 Q489.177 203.145 487.186 204.326 Q485.196 205.506 485.196 208.354 Q485.196 210.622 486.677 211.965 Q488.182 213.284 490.751 213.284 Q494.293 213.284 496.422 210.784 Q498.575 208.261 498.575 204.094 L498.575 203.145 L494.339 203.145 M502.834 201.386 L502.834 216.178 L498.575 216.178 L498.575 212.242 Q497.117 214.603 494.941 215.738 Q492.765 216.849 489.617 216.849 Q485.635 216.849 483.274 214.627 Q480.936 212.381 480.936 208.631 Q480.936 204.256 483.853 202.034 Q486.793 199.812 492.603 199.812 L498.575 199.812 L498.575 199.395 Q498.575 196.455 496.631 194.858 Q494.71 193.238 491.214 193.238 Q488.992 193.238 486.885 193.77 Q484.779 194.303 482.835 195.367 L482.835 191.432 Q485.173 190.53 487.372 190.09 Q489.571 189.627 491.654 189.627 Q497.279 189.627 500.057 192.543 Q502.834 195.46 502.834 201.386 Z" fill="#000000" fill-rule="evenodd" fill-opacity="1" /><path clip-path="url(#clip730)" d="M530.265 191.247 L530.265 195.229 Q528.459 194.233 526.631 193.747 Q524.825 193.238 522.973 193.238 Q518.83 193.238 516.538 195.877 Q514.246 198.492 514.246 203.238 Q514.246 207.983 516.538 210.622 Q518.83 213.238 522.973 213.238 Q524.825 213.238 526.631 212.752 Q528.459 212.242 530.265 211.247 L530.265 215.182 Q528.482 216.016 526.561 216.432 Q524.663 216.849 522.51 216.849 Q516.654 216.849 513.205 213.168 Q509.756 209.488 509.756 203.238 Q509.756 196.895 513.228 193.261 Q516.723 189.627 522.788 189.627 Q524.756 189.627 526.631 190.043 Q528.506 190.437 530.265 191.247 Z" fill="#000000" fill-rule="evenodd" fill-opacity="1" /><path clip-path="url(#clip730)" d="M541.885 182.891 L541.885 190.252 L550.658 190.252 L550.658 193.562 L541.885 193.562 L541.885 207.636 Q541.885 210.807 542.742 211.71 Q543.621 212.613 546.283 212.613 L550.658 212.613 L550.658 216.178 L546.283 216.178 Q541.353 216.178 539.478 214.349 Q537.603 212.497 537.603 207.636 L537.603 193.562 L534.478 193.562 L534.478 190.252 L537.603 190.252 L537.603 182.891 L541.885 182.891 Z" fill="#000000" fill-rule="evenodd" fill-opacity="1" /></svg>
