<?xml version="1.0" encoding="utf-8"?>
<svg xmlns="http://www.w3.org/2000/svg" xmlns:xlink="http://www.w3.org/1999/xlink" width="600" height="400" viewBox="0 0 2400 1600">
<defs>
  <clipPath id="clip640">
    <rect x="0" y="0" width="2400" height="1600"/>
  </clipPath>
</defs>
<path clip-path="url(#clip640)" d="
M0 1600 L2400 1600 L2400 0 L0 0  Z
  " fill="#ffffff" fill-rule="evenodd" fill-opacity="1"/>
<defs>
  <clipPath id="clip641">
    <rect x="480" y="0" width="1681" height="1600"/>
  </clipPath>
</defs>
<path clip-path="url(#clip640)" d="
M223.103 1486.45 L2352.76 1486.45 L2352.76 47.2441 L223.103 47.2441  Z
  " fill="#ffffff" fill-rule="evenodd" fill-opacity="1"/>
<defs>
  <clipPath id="clip642">
    <rect x="223" y="47" width="2131" height="1440"/>
  </clipPath>
</defs>
<polyline clip-path="url(#clip642)" style="stroke:#000000; stroke-linecap:round; stroke-linejoin:round; stroke-width:2; stroke-opacity:0.1; fill:none" points="
  283.376,1486.45 283.376,47.2441 
  "/>
<polyline clip-path="url(#clip642)" style="stroke:#000000; stroke-linecap:round; stroke-linejoin:round; stroke-width:2; stroke-opacity:0.1; fill:none" points="
  785.652,1486.45 785.652,47.2441 
  "/>
<polyline clip-path="url(#clip642)" style="stroke:#000000; stroke-linecap:round; stroke-linejoin:round; stroke-width:2; stroke-opacity:0.1; fill:none" points="
  1287.93,1486.45 1287.93,47.2441 
  "/>
<polyline clip-path="url(#clip642)" style="stroke:#000000; stroke-linecap:round; stroke-linejoin:round; stroke-width:2; stroke-opacity:0.1; fill:none" points="
  1790.21,1486.45 1790.21,47.2441 
  "/>
<polyline clip-path="url(#clip642)" style="stroke:#000000; stroke-linecap:round; stroke-linejoin:round; stroke-width:2; stroke-opacity:0.1; fill:none" points="
  2292.48,1486.45 2292.48,47.2441 
  "/>
<polyline clip-path="url(#clip640)" style="stroke:#000000; stroke-linecap:round; stroke-linejoin:round; stroke-width:4; stroke-opacity:1; fill:none" points="
  223.103,1486.45 2352.76,1486.45 
  "/>
<polyline clip-path="url(#clip640)" style="stroke:#000000; stroke-linecap:round; stroke-linejoin:round; stroke-width:4; stroke-opacity:1; fill:none" points="
  283.376,1486.45 283.376,1467.55 
  "/>
<polyline clip-path="url(#clip640)" style="stroke:#000000; stroke-linecap:round; stroke-linejoin:round; stroke-width:4; stroke-opacity:1; fill:none" points="
  785.652,1486.45 785.652,1467.55 
  "/>
<polyline clip-path="url(#clip640)" style="stroke:#000000; stroke-linecap:round; stroke-linejoin:round; stroke-width:4; stroke-opacity:1; fill:none" points="
  1287.93,1486.45 1287.93,1467.55 
  "/>
<polyline clip-path="url(#clip640)" style="stroke:#000000; stroke-linecap:round; stroke-linejoin:round; stroke-width:4; stroke-opacity:1; fill:none" points="
  1790.21,1486.45 1790.21,1467.55 
  "/>
<polyline clip-path="url(#clip640)" style="stroke:#000000; stroke-linecap:round; stroke-linejoin:round; stroke-width:4; stroke-opacity:1; fill:none" points="
  2292.48,1486.45 2292.48,1467.55 
  "/>
<path clip-path="url(#clip640)" d="M229.904 1532.02 L259.58 1532.02 L259.58 1535.95 L229.904 1535.95 L229.904 1532.02 Z" fill="#000000" fill-rule="evenodd" fill-opacity="1" /><path clip-path="url(#clip640)" d="M270.482 1544.91 L278.121 1544.91 L278.121 1518.55 L269.811 1520.21 L269.811 1515.95 L278.075 1514.29 L282.751 1514.29 L282.751 1544.91 L290.39 1544.91 L290.39 1548.85 L270.482 1548.85 L270.482 1544.91 Z" fill="#000000" fill-rule="evenodd" fill-opacity="1" /><path clip-path="url(#clip640)" d="M299.834 1542.97 L304.718 1542.97 L304.718 1548.85 L299.834 1548.85 L299.834 1542.97 Z" fill="#000000" fill-rule="evenodd" fill-opacity="1" /><path clip-path="url(#clip640)" d="M324.903 1517.37 Q321.292 1517.37 319.463 1520.93 Q317.658 1524.47 317.658 1531.6 Q317.658 1538.71 319.463 1542.27 Q321.292 1545.82 324.903 1545.82 Q328.538 1545.82 330.343 1542.27 Q332.172 1538.71 332.172 1531.6 Q332.172 1524.47 330.343 1520.93 Q328.538 1517.37 324.903 1517.37 M324.903 1513.66 Q330.713 1513.66 333.769 1518.27 Q336.848 1522.85 336.848 1531.6 Q336.848 1540.33 333.769 1544.94 Q330.713 1549.52 324.903 1549.52 Q319.093 1549.52 316.014 1544.94 Q312.959 1540.33 312.959 1531.6 Q312.959 1522.85 316.014 1518.27 Q319.093 1513.66 324.903 1513.66 Z" fill="#000000" fill-rule="evenodd" fill-opacity="1" /><path clip-path="url(#clip640)" d="M732.678 1532.02 L762.354 1532.02 L762.354 1535.95 L732.678 1535.95 L732.678 1532.02 Z" fill="#000000" fill-rule="evenodd" fill-opacity="1" /><path clip-path="url(#clip640)" d="M782.446 1517.37 Q778.835 1517.37 777.007 1520.93 Q775.201 1524.47 775.201 1531.6 Q775.201 1538.71 777.007 1542.27 Q778.835 1545.82 782.446 1545.82 Q786.081 1545.82 787.886 1542.27 Q789.715 1538.71 789.715 1531.6 Q789.715 1524.47 787.886 1520.93 Q786.081 1517.37 782.446 1517.37 M782.446 1513.66 Q788.257 1513.66 791.312 1518.27 Q794.391 1522.85 794.391 1531.6 Q794.391 1540.33 791.312 1544.94 Q788.257 1549.52 782.446 1549.52 Q776.636 1549.52 773.558 1544.94 Q770.502 1540.33 770.502 1531.6 Q770.502 1522.85 773.558 1518.27 Q776.636 1513.66 782.446 1513.66 Z" fill="#000000" fill-rule="evenodd" fill-opacity="1" /><path clip-path="url(#clip640)" d="M802.608 1542.97 L807.493 1542.97 L807.493 1548.85 L802.608 1548.85 L802.608 1542.97 Z" fill="#000000" fill-rule="evenodd" fill-opacity="1" /><path clip-path="url(#clip640)" d="M817.724 1514.29 L836.08 1514.29 L836.08 1518.22 L822.006 1518.22 L822.006 1526.7 Q823.025 1526.35 824.043 1526.19 Q825.062 1526 826.08 1526 Q831.867 1526 835.247 1529.17 Q838.627 1532.34 838.627 1537.76 Q838.627 1543.34 835.155 1546.44 Q831.682 1549.52 825.363 1549.52 Q823.187 1549.52 820.918 1549.15 Q818.673 1548.78 816.266 1548.04 L816.266 1543.34 Q818.349 1544.47 820.571 1545.03 Q822.793 1545.58 825.27 1545.58 Q829.275 1545.58 831.613 1543.48 Q833.951 1541.37 833.951 1537.76 Q833.951 1534.15 831.613 1532.04 Q829.275 1529.94 825.27 1529.94 Q823.395 1529.94 821.52 1530.35 Q819.668 1530.77 817.724 1531.65 L817.724 1514.29 Z" fill="#000000" fill-rule="evenodd" fill-opacity="1" /><path clip-path="url(#clip640)" d="M1265.31 1517.37 Q1261.7 1517.37 1259.87 1520.93 Q1258.07 1524.47 1258.07 1531.6 Q1258.07 1538.71 1259.87 1542.27 Q1261.7 1545.82 1265.31 1545.82 Q1268.95 1545.82 1270.75 1542.27 Q1272.58 1538.71 1272.58 1531.6 Q1272.58 1524.47 1270.75 1520.93 Q1268.95 1517.37 1265.31 1517.37 M1265.31 1513.66 Q1271.12 1513.66 1274.18 1518.27 Q1277.26 1522.85 1277.26 1531.6 Q1277.26 1540.33 1274.18 1544.94 Q1271.12 1549.52 1265.31 1549.52 Q1259.5 1549.52 1256.42 1544.94 Q1253.37 1540.33 1253.37 1531.6 Q1253.37 1522.85 1256.42 1518.27 Q1259.5 1513.66 1265.31 1513.66 Z" fill="#000000" fill-rule="evenodd" fill-opacity="1" /><path clip-path="url(#clip640)" d="M1285.48 1542.97 L1290.36 1542.97 L1290.36 1548.85 L1285.48 1548.85 L1285.48 1542.97 Z" fill="#000000" fill-rule="evenodd" fill-opacity="1" /><path clip-path="url(#clip640)" d="M1310.54 1517.37 Q1306.93 1517.37 1305.11 1520.93 Q1303.3 1524.47 1303.3 1531.6 Q1303.3 1538.71 1305.11 1542.27 Q1306.93 1545.82 1310.54 1545.82 Q1314.18 1545.82 1315.98 1542.27 Q1317.81 1538.71 1317.81 1531.6 Q1317.81 1524.47 1315.98 1520.93 Q1314.18 1517.37 1310.54 1517.37 M1310.54 1513.66 Q1316.35 1513.66 1319.41 1518.27 Q1322.49 1522.85 1322.49 1531.6 Q1322.49 1540.33 1319.41 1544.94 Q1316.35 1549.52 1310.54 1549.52 Q1304.73 1549.52 1301.66 1544.94 Q1298.6 1540.33 1298.6 1531.6 Q1298.6 1522.85 1301.66 1518.27 Q1304.73 1513.66 1310.54 1513.66 Z" fill="#000000" fill-rule="evenodd" fill-opacity="1" /><path clip-path="url(#clip640)" d="M1768.09 1517.37 Q1764.48 1517.37 1762.65 1520.93 Q1760.84 1524.47 1760.84 1531.6 Q1760.84 1538.71 1762.65 1542.27 Q1764.48 1545.82 1768.09 1545.82 Q1771.72 1545.82 1773.53 1542.27 Q1775.36 1538.71 1775.36 1531.6 Q1775.36 1524.47 1773.53 1520.93 Q1771.72 1517.37 1768.09 1517.37 M1768.09 1513.66 Q1773.9 1513.66 1776.95 1518.27 Q1780.03 1522.85 1780.03 1531.6 Q1780.03 1540.33 1776.95 1544.94 Q1773.9 1549.52 1768.09 1549.52 Q1762.28 1549.52 1759.2 1544.94 Q1756.14 1540.33 1756.14 1531.6 Q1756.14 1522.85 1759.2 1518.27 Q1762.28 1513.66 1768.09 1513.66 Z" fill="#000000" fill-rule="evenodd" fill-opacity="1" /><path clip-path="url(#clip640)" d="M1788.25 1542.97 L1793.13 1542.97 L1793.13 1548.85 L1788.25 1548.85 L1788.25 1542.97 Z" fill="#000000" fill-rule="evenodd" fill-opacity="1" /><path clip-path="url(#clip640)" d="M1803.37 1514.29 L1821.72 1514.29 L1821.72 1518.22 L1807.65 1518.22 L1807.65 1526.7 Q1808.67 1526.35 1809.69 1526.19 Q1810.7 1526 1811.72 1526 Q1817.51 1526 1820.89 1529.17 Q1824.27 1532.34 1824.27 1537.76 Q1824.27 1543.34 1820.8 1546.44 Q1817.32 1549.52 1811 1549.52 Q1808.83 1549.52 1806.56 1549.15 Q1804.31 1548.78 1801.91 1548.04 L1801.91 1543.34 Q1803.99 1544.47 1806.21 1545.03 Q1808.44 1545.58 1810.91 1545.58 Q1814.92 1545.58 1817.25 1543.48 Q1819.59 1541.37 1819.59 1537.76 Q1819.59 1534.15 1817.25 1532.04 Q1814.92 1529.94 1810.91 1529.94 Q1809.04 1529.94 1807.16 1530.35 Q1805.31 1530.77 1803.37 1531.65 L1803.37 1514.29 Z" fill="#000000" fill-rule="evenodd" fill-opacity="1" /><path clip-path="url(#clip640)" d="M2259.64 1544.91 L2267.27 1544.91 L2267.27 1518.55 L2258.96 1520.21 L2258.96 1515.95 L2267.23 1514.29 L2271.9 1514.29 L2271.9 1544.91 L2279.54 1544.91 L2279.54 1548.85 L2259.64 1548.85 L2259.64 1544.91 Z" fill="#000000" fill-rule="evenodd" fill-opacity="1" /><path clip-path="url(#clip640)" d="M2288.99 1542.97 L2293.87 1542.97 L2293.87 1548.85 L2288.99 1548.85 L2288.99 1542.97 Z" fill="#000000" fill-rule="evenodd" fill-opacity="1" /><path clip-path="url(#clip640)" d="M2314.06 1517.37 Q2310.45 1517.37 2308.62 1520.93 Q2306.81 1524.47 2306.81 1531.6 Q2306.81 1538.71 2308.62 1542.27 Q2310.45 1545.82 2314.06 1545.82 Q2317.69 1545.82 2319.5 1542.27 Q2321.33 1538.71 2321.33 1531.6 Q2321.33 1524.47 2319.5 1520.93 Q2317.69 1517.37 2314.06 1517.37 M2314.06 1513.66 Q2319.87 1513.66 2322.92 1518.27 Q2326 1522.85 2326 1531.6 Q2326 1540.33 2322.92 1544.94 Q2319.87 1549.52 2314.06 1549.52 Q2308.25 1549.52 2305.17 1544.94 Q2302.11 1540.33 2302.11 1531.6 Q2302.11 1522.85 2305.17 1518.27 Q2308.25 1513.66 2314.06 1513.66 Z" fill="#000000" fill-rule="evenodd" fill-opacity="1" /><polyline clip-path="url(#clip642)" style="stroke:#000000; stroke-linecap:round; stroke-linejoin:round; stroke-width:2; stroke-opacity:0.1; fill:none" points="
  223.103,1324.8 2352.76,1324.8 
  "/>
<polyline clip-path="url(#clip642)" style="stroke:#000000; stroke-linecap:round; stroke-linejoin:round; stroke-width:2; stroke-opacity:0.1; fill:none" points="
  223.103,1138.7 2352.76,1138.7 
  "/>
<polyline clip-path="url(#clip642)" style="stroke:#000000; stroke-linecap:round; stroke-linejoin:round; stroke-width:2; stroke-opacity:0.1; fill:none" points="
  223.103,952.607 2352.76,952.607 
  "/>
<polyline clip-path="url(#clip642)" style="stroke:#000000; stroke-linecap:round; stroke-linejoin:round; stroke-width:2; stroke-opacity:0.1; fill:none" points="
  223.103,766.51 2352.76,766.51 
  "/>
<polyline clip-path="url(#clip642)" style="stroke:#000000; stroke-linecap:round; stroke-linejoin:round; stroke-width:2; stroke-opacity:0.1; fill:none" points="
  223.103,580.413 2352.76,580.413 
  "/>
<polyline clip-path="url(#clip642)" style="stroke:#000000; stroke-linecap:round; stroke-linejoin:round; stroke-width:2; stroke-opacity:0.1; fill:none" points="
  223.103,394.315 2352.76,394.315 
  "/>
<polyline clip-path="url(#clip642)" style="stroke:#000000; stroke-linecap:round; stroke-linejoin:round; stroke-width:2; stroke-opacity:0.1; fill:none" points="
  223.103,208.218 2352.76,208.218 
  "/>
<polyline clip-path="url(#clip640)" style="stroke:#000000; stroke-linecap:round; stroke-linejoin:round; stroke-width:4; stroke-opacity:1; fill:none" points="
  223.103,1486.45 223.103,47.2441 
  "/>
<polyline clip-path="url(#clip640)" style="stroke:#000000; stroke-linecap:round; stroke-linejoin:round; stroke-width:4; stroke-opacity:1; fill:none" points="
  223.103,1324.8 242,1324.8 
  "/>
<polyline clip-path="url(#clip640)" style="stroke:#000000; stroke-linecap:round; stroke-linejoin:round; stroke-width:4; stroke-opacity:1; fill:none" points="
  223.103,1138.7 242,1138.7 
  "/>
<polyline clip-path="url(#clip640)" style="stroke:#000000; stroke-linecap:round; stroke-linejoin:round; stroke-width:4; stroke-opacity:1; fill:none" points="
  223.103,952.607 242,952.607 
  "/>
<polyline clip-path="url(#clip640)" style="stroke:#000000; stroke-linecap:round; stroke-linejoin:round; stroke-width:4; stroke-opacity:1; fill:none" points="
  223.103,766.51 242,766.51 
  "/>
<polyline clip-path="url(#clip640)" style="stroke:#000000; stroke-linecap:round; stroke-linejoin:round; stroke-width:4; stroke-opacity:1; fill:none" points="
  223.103,580.413 242,580.413 
  "/>
<polyline clip-path="url(#clip640)" style="stroke:#000000; stroke-linecap:round; stroke-linejoin:round; stroke-width:4; stroke-opacity:1; fill:none" points="
  223.103,394.315 242,394.315 
  "/>
<polyline clip-path="url(#clip640)" style="stroke:#000000; stroke-linecap:round; stroke-linejoin:round; stroke-width:4; stroke-opacity:1; fill:none" points="
  223.103,208.218 242,208.218 
  "/>
<path clip-path="url(#clip640)" d="M50.9921 1325.25 L80.6679 1325.25 L80.6679 1329.19 L50.9921 1329.19 L50.9921 1325.25 Z" fill="#000000" fill-rule="evenodd" fill-opacity="1" /><path clip-path="url(#clip640)" d="M100.76 1310.6 Q97.1493 1310.6 95.3206 1314.16 Q93.515 1317.71 93.515 1324.84 Q93.515 1331.94 95.3206 1335.51 Q97.1493 1339.05 100.76 1339.05 Q104.395 1339.05 106.2 1335.51 Q108.029 1331.94 108.029 1324.84 Q108.029 1317.71 106.2 1314.16 Q104.395 1310.6 100.76 1310.6 M100.76 1306.9 Q106.571 1306.9 109.626 1311.5 Q112.705 1316.09 112.705 1324.84 Q112.705 1333.56 109.626 1338.17 Q106.571 1342.75 100.76 1342.75 Q94.9502 1342.75 91.8715 1338.17 Q88.816 1333.56 88.816 1324.84 Q88.816 1316.09 91.8715 1311.5 Q94.9502 1306.9 100.76 1306.9 Z" fill="#000000" fill-rule="evenodd" fill-opacity="1" /><path clip-path="url(#clip640)" d="M120.922 1336.2 L125.807 1336.2 L125.807 1342.08 L120.922 1342.08 L120.922 1336.2 Z" fill="#000000" fill-rule="evenodd" fill-opacity="1" /><path clip-path="url(#clip640)" d="M140.019 1338.15 L156.339 1338.15 L156.339 1342.08 L134.394 1342.08 L134.394 1338.15 Q137.056 1335.39 141.64 1330.76 Q146.246 1326.11 147.427 1324.77 Q149.672 1322.24 150.552 1320.51 Q151.455 1318.75 151.455 1317.06 Q151.455 1314.3 149.51 1312.57 Q147.589 1310.83 144.487 1310.83 Q142.288 1310.83 139.834 1311.6 Q137.404 1312.36 134.626 1313.91 L134.626 1309.19 Q137.45 1308.05 139.904 1307.48 Q142.357 1306.9 144.394 1306.9 Q149.765 1306.9 152.959 1309.58 Q156.154 1312.27 156.154 1316.76 Q156.154 1318.89 155.343 1320.81 Q154.556 1322.71 152.45 1325.3 Q151.871 1325.97 148.769 1329.19 Q145.668 1332.38 140.019 1338.15 Z" fill="#000000" fill-rule="evenodd" fill-opacity="1" /><path clip-path="url(#clip640)" d="M166.2 1307.52 L184.556 1307.52 L184.556 1311.46 L170.482 1311.46 L170.482 1319.93 Q171.501 1319.58 172.519 1319.42 Q173.538 1319.23 174.556 1319.23 Q180.343 1319.23 183.723 1322.41 Q187.103 1325.58 187.103 1330.99 Q187.103 1336.57 183.63 1339.67 Q180.158 1342.75 173.839 1342.75 Q171.663 1342.75 169.394 1342.38 Q167.149 1342.01 164.742 1341.27 L164.742 1336.57 Q166.825 1337.71 169.047 1338.26 Q171.269 1338.82 173.746 1338.82 Q177.751 1338.82 180.089 1336.71 Q182.427 1334.6 182.427 1330.99 Q182.427 1327.38 180.089 1325.28 Q177.751 1323.17 173.746 1323.17 Q171.871 1323.17 169.996 1323.59 Q168.144 1324 166.2 1324.88 L166.2 1307.52 Z" fill="#000000" fill-rule="evenodd" fill-opacity="1" /><path clip-path="url(#clip640)" d="M99.765 1124.5 Q96.1539 1124.5 94.3252 1128.07 Q92.5197 1131.61 92.5197 1138.74 Q92.5197 1145.85 94.3252 1149.41 Q96.1539 1152.95 99.765 1152.95 Q103.399 1152.95 105.205 1149.41 Q107.033 1145.85 107.033 1138.74 Q107.033 1131.61 105.205 1128.07 Q103.399 1124.5 99.765 1124.5 M99.765 1120.8 Q105.575 1120.8 108.631 1125.41 Q111.709 1129.99 111.709 1138.74 Q111.709 1147.47 108.631 1152.07 Q105.575 1156.66 99.765 1156.66 Q93.9549 1156.66 90.8762 1152.07 Q87.8206 1147.47 87.8206 1138.74 Q87.8206 1129.99 90.8762 1125.41 Q93.9549 1120.8 99.765 1120.8 Z" fill="#000000" fill-rule="evenodd" fill-opacity="1" /><path clip-path="url(#clip640)" d="M119.927 1150.1 L124.811 1150.1 L124.811 1155.98 L119.927 1155.98 L119.927 1150.1 Z" fill="#000000" fill-rule="evenodd" fill-opacity="1" /><path clip-path="url(#clip640)" d="M144.996 1124.5 Q141.385 1124.5 139.556 1128.07 Q137.751 1131.61 137.751 1138.74 Q137.751 1145.85 139.556 1149.41 Q141.385 1152.95 144.996 1152.95 Q148.63 1152.95 150.436 1149.41 Q152.265 1145.85 152.265 1138.74 Q152.265 1131.61 150.436 1128.07 Q148.63 1124.5 144.996 1124.5 M144.996 1120.8 Q150.806 1120.8 153.862 1125.41 Q156.941 1129.99 156.941 1138.74 Q156.941 1147.47 153.862 1152.07 Q150.806 1156.66 144.996 1156.66 Q139.186 1156.66 136.107 1152.07 Q133.052 1147.47 133.052 1138.74 Q133.052 1129.99 136.107 1125.41 Q139.186 1120.8 144.996 1120.8 Z" fill="#000000" fill-rule="evenodd" fill-opacity="1" /><path clip-path="url(#clip640)" d="M175.158 1124.5 Q171.547 1124.5 169.718 1128.07 Q167.913 1131.61 167.913 1138.74 Q167.913 1145.85 169.718 1149.41 Q171.547 1152.95 175.158 1152.95 Q178.792 1152.95 180.598 1149.41 Q182.427 1145.85 182.427 1138.74 Q182.427 1131.61 180.598 1128.07 Q178.792 1124.5 175.158 1124.5 M175.158 1120.8 Q180.968 1120.8 184.024 1125.41 Q187.103 1129.99 187.103 1138.74 Q187.103 1147.47 184.024 1152.07 Q180.968 1156.66 175.158 1156.66 Q169.348 1156.66 166.269 1152.07 Q163.214 1147.47 163.214 1138.74 Q163.214 1129.99 166.269 1125.41 Q169.348 1120.8 175.158 1120.8 Z" fill="#000000" fill-rule="evenodd" fill-opacity="1" /><path clip-path="url(#clip640)" d="M100.76 938.406 Q97.1493 938.406 95.3206 941.97 Q93.515 945.512 93.515 952.642 Q93.515 959.748 95.3206 963.313 Q97.1493 966.855 100.76 966.855 Q104.395 966.855 106.2 963.313 Q108.029 959.748 108.029 952.642 Q108.029 945.512 106.2 941.97 Q104.395 938.406 100.76 938.406 M100.76 934.702 Q106.571 934.702 109.626 939.308 Q112.705 943.892 112.705 952.642 Q112.705 961.369 109.626 965.975 Q106.571 970.558 100.76 970.558 Q94.9502 970.558 91.8715 965.975 Q88.816 961.369 88.816 952.642 Q88.816 943.892 91.8715 939.308 Q94.9502 934.702 100.76 934.702 Z" fill="#000000" fill-rule="evenodd" fill-opacity="1" /><path clip-path="url(#clip640)" d="M120.922 964.007 L125.807 964.007 L125.807 969.887 L120.922 969.887 L120.922 964.007 Z" fill="#000000" fill-rule="evenodd" fill-opacity="1" /><path clip-path="url(#clip640)" d="M140.019 965.952 L156.339 965.952 L156.339 969.887 L134.394 969.887 L134.394 965.952 Q137.056 963.197 141.64 958.568 Q146.246 953.915 147.427 952.572 Q149.672 950.049 150.552 948.313 Q151.455 946.554 151.455 944.864 Q151.455 942.109 149.51 940.373 Q147.589 938.637 144.487 938.637 Q142.288 938.637 139.834 939.401 Q137.404 940.165 134.626 941.716 L134.626 936.994 Q137.45 935.859 139.904 935.281 Q142.357 934.702 144.394 934.702 Q149.765 934.702 152.959 937.387 Q156.154 940.072 156.154 944.563 Q156.154 946.693 155.343 948.614 Q154.556 950.512 152.45 953.105 Q151.871 953.776 148.769 956.994 Q145.668 960.188 140.019 965.952 Z" fill="#000000" fill-rule="evenodd" fill-opacity="1" /><path clip-path="url(#clip640)" d="M166.2 935.327 L184.556 935.327 L184.556 939.262 L170.482 939.262 L170.482 947.734 Q171.501 947.387 172.519 947.225 Q173.538 947.04 174.556 947.04 Q180.343 947.04 183.723 950.211 Q187.103 953.382 187.103 958.799 Q187.103 964.378 183.63 967.48 Q180.158 970.558 173.839 970.558 Q171.663 970.558 169.394 970.188 Q167.149 969.818 164.742 969.077 L164.742 964.378 Q166.825 965.512 169.047 966.068 Q171.269 966.623 173.746 966.623 Q177.751 966.623 180.089 964.517 Q182.427 962.41 182.427 958.799 Q182.427 955.188 180.089 953.082 Q177.751 950.975 173.746 950.975 Q171.871 950.975 169.996 951.392 Q168.144 951.808 166.2 952.688 L166.2 935.327 Z" fill="#000000" fill-rule="evenodd" fill-opacity="1" /><path clip-path="url(#clip640)" d="M99.765 752.308 Q96.1539 752.308 94.3252 755.873 Q92.5197 759.415 92.5197 766.544 Q92.5197 773.651 94.3252 777.216 Q96.1539 780.757 99.765 780.757 Q103.399 780.757 105.205 777.216 Q107.033 773.651 107.033 766.544 Q107.033 759.415 105.205 755.873 Q103.399 752.308 99.765 752.308 M99.765 748.605 Q105.575 748.605 108.631 753.211 Q111.709 757.795 111.709 766.544 Q111.709 775.271 108.631 779.878 Q105.575 784.461 99.765 784.461 Q93.9549 784.461 90.8762 779.878 Q87.8206 775.271 87.8206 766.544 Q87.8206 757.795 90.8762 753.211 Q93.9549 748.605 99.765 748.605 Z" fill="#000000" fill-rule="evenodd" fill-opacity="1" /><path clip-path="url(#clip640)" d="M119.927 777.91 L124.811 777.91 L124.811 783.79 L119.927 783.79 L119.927 777.91 Z" fill="#000000" fill-rule="evenodd" fill-opacity="1" /><path clip-path="url(#clip640)" d="M135.043 749.23 L153.399 749.23 L153.399 753.165 L139.325 753.165 L139.325 761.637 Q140.343 761.29 141.362 761.128 Q142.381 760.943 143.399 760.943 Q149.186 760.943 152.566 764.114 Q155.945 767.285 155.945 772.702 Q155.945 778.281 152.473 781.382 Q149.001 784.461 142.681 784.461 Q140.506 784.461 138.237 784.091 Q135.992 783.72 133.584 782.98 L133.584 778.281 Q135.668 779.415 137.89 779.97 Q140.112 780.526 142.589 780.526 Q146.593 780.526 148.931 778.419 Q151.269 776.313 151.269 772.702 Q151.269 769.091 148.931 766.984 Q146.593 764.878 142.589 764.878 Q140.714 764.878 138.839 765.294 Q136.987 765.711 135.043 766.591 L135.043 749.23 Z" fill="#000000" fill-rule="evenodd" fill-opacity="1" /><path clip-path="url(#clip640)" d="M175.158 752.308 Q171.547 752.308 169.718 755.873 Q167.913 759.415 167.913 766.544 Q167.913 773.651 169.718 777.216 Q171.547 780.757 175.158 780.757 Q178.792 780.757 180.598 777.216 Q182.427 773.651 182.427 766.544 Q182.427 759.415 180.598 755.873 Q178.792 752.308 175.158 752.308 M175.158 748.605 Q180.968 748.605 184.024 753.211 Q187.103 757.795 187.103 766.544 Q187.103 775.271 184.024 779.878 Q180.968 784.461 175.158 784.461 Q169.348 784.461 166.269 779.878 Q163.214 775.271 163.214 766.544 Q163.214 757.795 166.269 753.211 Q169.348 748.605 175.158 748.605 Z" fill="#000000" fill-rule="evenodd" fill-opacity="1" /><path clip-path="url(#clip640)" d="M100.76 566.211 Q97.1493 566.211 95.3206 569.776 Q93.515 573.318 93.515 580.447 Q93.515 587.554 95.3206 591.118 Q97.1493 594.66 100.76 594.66 Q104.395 594.66 106.2 591.118 Q108.029 587.554 108.029 580.447 Q108.029 573.318 106.2 569.776 Q104.395 566.211 100.76 566.211 M100.76 562.508 Q106.571 562.508 109.626 567.114 Q112.705 571.697 112.705 580.447 Q112.705 589.174 109.626 593.781 Q106.571 598.364 100.76 598.364 Q94.9502 598.364 91.8715 593.781 Q88.816 589.174 88.816 580.447 Q88.816 571.697 91.8715 567.114 Q94.9502 562.508 100.76 562.508 Z" fill="#000000" fill-rule="evenodd" fill-opacity="1" /><path clip-path="url(#clip640)" d="M120.922 591.813 L125.807 591.813 L125.807 597.693 L120.922 597.693 L120.922 591.813 Z" fill="#000000" fill-rule="evenodd" fill-opacity="1" /><path clip-path="url(#clip640)" d="M134.811 563.133 L157.033 563.133 L157.033 565.123 L144.487 597.693 L139.603 597.693 L151.408 567.068 L134.811 567.068 L134.811 563.133 Z" fill="#000000" fill-rule="evenodd" fill-opacity="1" /><path clip-path="url(#clip640)" d="M166.2 563.133 L184.556 563.133 L184.556 567.068 L170.482 567.068 L170.482 575.54 Q171.501 575.193 172.519 575.031 Q173.538 574.845 174.556 574.845 Q180.343 574.845 183.723 578.017 Q187.103 581.188 187.103 586.605 Q187.103 592.183 183.63 595.285 Q180.158 598.364 173.839 598.364 Q171.663 598.364 169.394 597.993 Q167.149 597.623 164.742 596.882 L164.742 592.183 Q166.825 593.318 169.047 593.873 Q171.269 594.429 173.746 594.429 Q177.751 594.429 180.089 592.322 Q182.427 590.216 182.427 586.605 Q182.427 582.994 180.089 580.887 Q177.751 578.781 173.746 578.781 Q171.871 578.781 169.996 579.197 Q168.144 579.614 166.2 580.494 L166.2 563.133 Z" fill="#000000" fill-rule="evenodd" fill-opacity="1" /><path clip-path="url(#clip640)" d="M90.5752 407.66 L98.2141 407.66 L98.2141 381.295 L89.904 382.961 L89.904 378.702 L98.1678 377.035 L102.844 377.035 L102.844 407.66 L110.483 407.66 L110.483 411.595 L90.5752 411.595 L90.5752 407.66 Z" fill="#000000" fill-rule="evenodd" fill-opacity="1" /><path clip-path="url(#clip640)" d="M119.927 405.716 L124.811 405.716 L124.811 411.595 L119.927 411.595 L119.927 405.716 Z" fill="#000000" fill-rule="evenodd" fill-opacity="1" /><path clip-path="url(#clip640)" d="M144.996 380.114 Q141.385 380.114 139.556 383.679 Q137.751 387.22 137.751 394.35 Q137.751 401.456 139.556 405.021 Q141.385 408.563 144.996 408.563 Q148.63 408.563 150.436 405.021 Q152.265 401.456 152.265 394.35 Q152.265 387.22 150.436 383.679 Q148.63 380.114 144.996 380.114 M144.996 376.41 Q150.806 376.41 153.862 381.017 Q156.941 385.6 156.941 394.35 Q156.941 403.077 153.862 407.683 Q150.806 412.267 144.996 412.267 Q139.186 412.267 136.107 407.683 Q133.052 403.077 133.052 394.35 Q133.052 385.6 136.107 381.017 Q139.186 376.41 144.996 376.41 Z" fill="#000000" fill-rule="evenodd" fill-opacity="1" /><path clip-path="url(#clip640)" d="M175.158 380.114 Q171.547 380.114 169.718 383.679 Q167.913 387.22 167.913 394.35 Q167.913 401.456 169.718 405.021 Q171.547 408.563 175.158 408.563 Q178.792 408.563 180.598 405.021 Q182.427 401.456 182.427 394.35 Q182.427 387.22 180.598 383.679 Q178.792 380.114 175.158 380.114 M175.158 376.41 Q180.968 376.41 184.024 381.017 Q187.103 385.6 187.103 394.35 Q187.103 403.077 184.024 407.683 Q180.968 412.267 175.158 412.267 Q169.348 412.267 166.269 407.683 Q163.214 403.077 163.214 394.35 Q163.214 385.6 166.269 381.017 Q169.348 376.41 175.158 376.41 Z" fill="#000000" fill-rule="evenodd" fill-opacity="1" /><path clip-path="url(#clip640)" d="M91.5706 221.563 L99.2095 221.563 L99.2095 195.197 L90.8993 196.864 L90.8993 192.605 L99.1632 190.938 L103.839 190.938 L103.839 221.563 L111.478 221.563 L111.478 225.498 L91.5706 225.498 L91.5706 221.563 Z" fill="#000000" fill-rule="evenodd" fill-opacity="1" /><path clip-path="url(#clip640)" d="M120.922 219.618 L125.807 219.618 L125.807 225.498 L120.922 225.498 L120.922 219.618 Z" fill="#000000" fill-rule="evenodd" fill-opacity="1" /><path clip-path="url(#clip640)" d="M140.019 221.563 L156.339 221.563 L156.339 225.498 L134.394 225.498 L134.394 221.563 Q137.056 218.808 141.64 214.179 Q146.246 209.526 147.427 208.183 Q149.672 205.66 150.552 203.924 Q151.455 202.165 151.455 200.475 Q151.455 197.72 149.51 195.984 Q147.589 194.248 144.487 194.248 Q142.288 194.248 139.834 195.012 Q137.404 195.776 134.626 197.327 L134.626 192.605 Q137.45 191.47 139.904 190.892 Q142.357 190.313 144.394 190.313 Q149.765 190.313 152.959 192.998 Q156.154 195.683 156.154 200.174 Q156.154 202.304 155.343 204.225 Q154.556 206.123 152.45 208.716 Q151.871 209.387 148.769 212.605 Q145.668 215.799 140.019 221.563 Z" fill="#000000" fill-rule="evenodd" fill-opacity="1" /><path clip-path="url(#clip640)" d="M166.2 190.938 L184.556 190.938 L184.556 194.873 L170.482 194.873 L170.482 203.345 Q171.501 202.998 172.519 202.836 Q173.538 202.651 174.556 202.651 Q180.343 202.651 183.723 205.822 Q187.103 208.994 187.103 214.41 Q187.103 219.989 183.63 223.091 Q180.158 226.169 173.839 226.169 Q171.663 226.169 169.394 225.799 Q167.149 225.429 164.742 224.688 L164.742 219.989 Q166.825 221.123 169.047 221.679 Q171.269 222.234 173.746 222.234 Q177.751 222.234 180.089 220.128 Q182.427 218.021 182.427 214.41 Q182.427 210.799 180.089 208.693 Q177.751 206.586 173.746 206.586 Q171.871 206.586 169.996 207.003 Q168.144 207.419 166.2 208.299 L166.2 190.938 Z" fill="#000000" fill-rule="evenodd" fill-opacity="1" /><polyline clip-path="url(#clip642)" style="stroke:#009af9; stroke-linecap:round; stroke-linejoin:round; stroke-width:16; stroke-opacity:1; fill:none" stroke-dasharray="8, 16" points="
  283.376,1026.9 293.472,954.884 303.568,952.907 313.664,977.366 323.76,989.582 333.856,991.28 343.952,994.429 354.048,1005.66 364.144,1026.59 374.24,1051.38 
  384.336,1072.82 394.432,1089.64 404.528,1117.96 414.624,1162.83 424.72,1188.19 434.816,1188.06 444.912,1213.18 455.008,1298.93 465.104,1412.18 475.2,1445.72 
  485.296,1335.51 495.392,1181.34 505.488,1131.99 515.584,1192.28 525.68,1255.17 535.776,1270.23 545.872,1253.98 555.968,1225.39 566.064,1193.8 576.16,1166.78 
  586.256,1142.19 596.352,1114.23 606.448,1091.61 616.544,1051.02 626.64,1030.31 636.736,1071.18 646.832,1061.05 656.928,931.695 667.024,792.922 677.12,784.801 
  687.216,901.056 697.312,1058.47 707.408,1164.35 717.504,1159.83 727.6,1092.99 737.696,1068.52 747.792,1105.53 757.888,1145.6 767.984,1161.9 778.08,1181.19 
  788.176,1217.91 798.272,1257.67 808.369,1273.79 818.465,1257.93 828.561,1253.75 838.657,1281.65 848.753,1300.26 858.849,1282.06 868.945,1256.33 879.041,1248.52 
  889.137,1246.27 899.233,1232.73 909.329,1214.65 919.425,1197.53 929.521,1170.42 939.617,1132.17 949.713,1092.28 959.809,1061.54 969.905,1045.19 980.001,1035.22 
  990.097,1020.54 1000.19,1007.82 1010.29,1004.39 1020.38,992.242 1030.48,971.23 1040.58,964.844 1050.67,981.454 1060.77,1015.75 1070.86,1053.9 1080.96,1081.57 
  1091.06,1095.62 1101.15,1109.14 1111.25,1142.57 1121.34,1198.49 1131.44,1241.76 1141.54,1231.43 1151.63,1183.19 1161.73,1158.36 1171.83,1190.14 1181.92,1258.46 
  1192.02,1318.75 1202.11,1341.97 1212.21,1325.95 1222.31,1287.73 1232.4,1252.33 1242.5,1240.53 1252.59,1251.11 1262.69,1235.95 1272.79,1095.52 1282.88,781.423 
  1292.98,488.91 1303.07,398.435 1313.17,396.313 1323.27,420.783 1333.36,438.867 1343.46,427.774 1353.55,390.32 1363.65,346.035 1373.75,321.932 1383.84,340.753 
  1393.94,403.027 1404.03,471.862 1414.13,491.476 1424.23,440.349 1434.32,375.915 1444.42,377.535 1454.51,426.58 1464.61,449.994 1474.71,419.892 1484.8,364.009 
  1494.9,324.879 1504.99,324.597 1515.09,355.078 1525.19,388.898 1535.28,401.63 1545.38,396.584 1555.47,408.636 1565.57,460.965 1575.67,504.578 1585.76,488.911 
  1595.86,438.668 1605.95,391.059 1616.05,355.449 1626.15,330.364 1636.24,317.457 1646.34,319.99 1656.43,338.929 1666.53,377.258 1676.63,432.402 1686.72,487.474 
  1696.82,518.91 1706.91,505.895 1717.01,444.136 1727.11,375.681 1737.2,346.35 1747.3,333.588 1757.39,300.008 1767.49,272.955 1777.59,306.67 1787.68,390.263 
  1797.78,466.893 1807.87,494.175 1817.97,481.561 1828.07,468.845 1838.16,433.772 1848.26,315.56 1858.35,159.216 1868.45,104.51 1878.55,209.311 1888.64,409.502 
  1898.74,601.355 1908.83,679.153 1918.93,592.962 1929.03,447.079 1939.12,372.523 1949.22,360.548 1959.31,355.386 1969.41,363.78 1979.51,339.631 1989.6,277.403 
  1999.7,267.443 2009.79,318.323 2019.89,391.088 2029.99,463.695 2040.08,527.081 2050.18,582.618 2060.27,630.051 2070.37,611.849 2080.47,457.747 2090.56,230.674 
  2100.66,87.9763 2110.75,116.032 2120.85,240.912 2130.95,348.254 2141.04,407.989 2151.14,462.109 2161.23,541.684 2171.33,583.733 2181.43,512.398 2191.52,368.669 
  2201.62,259.203 2211.71,235.202 2221.81,269.728 2231.91,319.552 2242,360.527 2252.1,387.142 2262.19,421.201 2272.29,490.556 2282.39,565.759 2292.48,579.515 
  
  "/>
<polyline clip-path="url(#clip642)" style="stroke:#e26f46; stroke-linecap:round; stroke-linejoin:round; stroke-width:4; stroke-opacity:1; fill:none" points="
  283.376,1026.9 293.472,1011.04 303.568,999.34 313.664,992.193 323.76,989.827 333.856,992.32 343.952,999.591 354.048,1011.4 364.144,1027.37 374.24,1046.97 
  384.336,1069.56 394.432,1094.41 404.528,1120.71 414.624,1147.59 424.72,1174.18 434.816,1199.62 444.912,1223.07 455.008,1243.76 465.104,1261.02 475.2,1274.3 
  485.296,1283.15 495.392,1287.28 505.488,1286.56 515.584,1281.02 525.68,1270.84 535.776,1256.34 545.872,1238 555.968,1216.42 566.064,1192.31 576.16,1166.44 
  586.256,1139.67 596.352,1112.87 606.448,1086.91 616.544,1062.64 626.64,1040.86 636.736,1022.27 646.832,1007.48 656.928,996.966 667.024,991.084 677.12,990.019 
  687.216,993.807 697.312,1002.32 707.408,1015.29 717.504,1032.29 727.6,1052.76 737.696,1076.03 747.792,1101.35 757.888,1127.89 767.984,1154.78 778.08,1181.15 
  788.176,1206.13 798.272,1228.91 808.369,1248.75 818.465,1264.99 828.561,1277.12 838.657,1284.72 848.753,1287.56 858.849,1285.55 868.945,1278.74 879.041,1267.36 
  889.137,1251.78 899.233,1232.51 909.329,1210.18 919.425,1185.51 929.521,1159.32 939.617,1132.46 949.713,1105.8 959.809,1080.21 969.905,1056.53 980.001,1035.54 
  990.097,1017.91 1000.19,1004.22 1010.29,994.926 1020.38,990.322 1030.48,990.56 1040.58,995.634 1050.67,1005.38 1060.77,1019.47 1070.86,1037.46 1080.96,1058.75 
  1091.06,1082.65 1101.15,1108.38 1111.25,1135.1 1121.34,1161.93 1131.44,1188.01 1141.54,1212.48 1151.63,1234.54 1161.73,1253.48 1171.83,1268.67 1181.92,1279.61 
  1192.02,1285.96 1202.11,1287.5 1212.21,1284.19 1222.31,1276.12 1232.4,1263.57 1242.5,1246.95 1252.59,1226.8 1262.69,1203.76 1272.79,1178.61 1282.88,1152.15 
  1292.98,393.234 1303.07,392.004 1313.17,393.124 1323.27,396.851 1333.36,402.044 1343.46,406.508 1353.55,407.83 1363.65,404.395 1373.75,396.207 1383.84,385.168 
  1393.94,374.664 1404.03,368.528 1414.13,369.705 1424.23,379.067 1434.32,394.815 1444.42,412.738 1454.51,427.332 1464.61,433.488 1474.71,428.219 1484.8,411.867 
  1494.9,388.348 1504.99,364.245 1515.09,346.971 1525.19,342.496 1535.28,353.344 1545.38,377.513 1555.47,408.727 1565.57,438.048 1575.67,456.437 1585.76,457.527 
  1595.86,439.761 1605.95,407.201 1616.05,368.658 1626.15,335.319 1636.24,317.497 1646.34,321.46 1656.43,347.298 1666.53,388.547 1676.63,433.766 1686.72,469.71 
  1696.82,485.207 1706.91,474.61 1717.01,439.763 1727.11,389.816 1737.2,338.848 1747.3,301.891 1757.39,290.509 1767.49,309.198 1777.59,353.745 1787.68,412.101 
  1797.78,467.635 1807.87,503.866 1817.97,509.354 1828.07,481.28 1838.16,426.616 1848.26,360.434 1858.35,301.757 1868.45,268.095 1878.55,270.223 1888.64,308.77 
  1898.74,373.681 1908.83,446.813 1918.93,507.003 1929.03,536.189 1939.12,524.823 1949.22,474.95 1959.31,399.965 1969.41,321.04 1979.51,261.144 1989.6,238.36 
  1999.7,260.439 2009.79,322.228 2019.89,406.804 2029.99,490.102 2040.08,547.761 2050.18,562.244 2060.27,528.157 2070.37,454.155 2080.47,360.779 2090.56,274.765 
  2100.66,221.387 2110.75,217.033 2120.85,264.197 2130.95,350.404 2141.04,451.483 2151.14,538.345 2161.23,585.347 2171.33,577.864 2181.43,516.808 2191.52,418.725 
  2201.62,311.327 2211.71,225.661 2221.81,187.141 2231.91,208.009 2242,283.484 2252.1,392.787 2262.19,504.846 2272.29,587.136 2282.39,615.109 2292.48,579.514 
  
  "/>
<path clip-path="url(#clip640)" d="
M294.091 250.738 L757.547 250.738 L757.547 95.2176 L294.091 95.2176  Z
  " fill="#ffffff" fill-rule="evenodd" fill-opacity="1"/>
<polyline clip-path="url(#clip640)" style="stroke:#000000; stroke-linecap:round; stroke-linejoin:round; stroke-width:4; stroke-opacity:1; fill:none" points="
  294.091,250.738 757.547,250.738 757.547,95.2176 294.091,95.2176 294.091,250.738 
  "/>
<polyline clip-path="url(#clip640)" style="stroke:#009af9; stroke-linecap:round; stroke-linejoin:round; stroke-width:4; stroke-opacity:1; fill:none" stroke-dasharray="2, 4" points="
  317.754,147.058 459.731,147.058 
  "/>
<path clip-path="url(#clip640)" d="M488.069 133.62 L488.069 146.606 L493.949 146.606 Q497.213 146.606 498.995 144.916 Q500.778 143.227 500.778 140.102 Q500.778 137 498.995 135.31 Q497.213 133.62 493.949 133.62 L488.069 133.62 M483.393 129.778 L493.949 129.778 Q499.759 129.778 502.722 132.416 Q505.708 135.032 505.708 140.102 Q505.708 145.217 502.722 147.833 Q499.759 150.449 493.949 150.449 L488.069 150.449 L488.069 164.338 L483.393 164.338 L483.393 129.778 Z" fill="#000000" fill-rule="evenodd" fill-opacity="1" /><path clip-path="url(#clip640)" d="M525.986 142.393 Q525.268 141.977 524.412 141.791 Q523.578 141.583 522.56 141.583 Q518.949 141.583 517.004 143.944 Q515.083 146.282 515.083 150.68 L515.083 164.338 L510.801 164.338 L510.801 138.412 L515.083 138.412 L515.083 142.44 Q516.426 140.078 518.578 138.944 Q520.731 137.787 523.81 137.787 Q524.25 137.787 524.782 137.856 Q525.315 137.903 525.963 138.018 L525.986 142.393 Z" fill="#000000" fill-rule="evenodd" fill-opacity="1" /><path clip-path="url(#clip640)" d="M551.588 150.31 L551.588 152.393 L532.004 152.393 Q532.282 156.791 534.643 159.106 Q537.027 161.398 541.264 161.398 Q543.717 161.398 546.009 160.796 Q548.324 160.194 550.592 158.99 L550.592 163.018 Q548.301 163.99 545.893 164.5 Q543.486 165.009 541.009 165.009 Q534.805 165.009 531.171 161.398 Q527.56 157.787 527.56 151.629 Q527.56 145.264 530.986 141.537 Q534.435 137.787 540.268 137.787 Q545.5 137.787 548.532 141.166 Q551.588 144.523 551.588 150.31 M547.328 149.06 Q547.282 145.565 545.361 143.481 Q543.463 141.398 540.314 141.398 Q536.75 141.398 534.597 143.412 Q532.467 145.426 532.143 149.083 L547.328 149.06 Z" fill="#000000" fill-rule="evenodd" fill-opacity="1" /><path clip-path="url(#clip640)" d="M575.638 142.347 L575.638 128.319 L579.898 128.319 L579.898 164.338 L575.638 164.338 L575.638 160.449 Q574.296 162.763 572.236 163.898 Q570.199 165.009 567.328 165.009 Q562.629 165.009 559.666 161.259 Q556.726 157.509 556.726 151.398 Q556.726 145.287 559.666 141.537 Q562.629 137.787 567.328 137.787 Q570.199 137.787 572.236 138.921 Q574.296 140.032 575.638 142.347 M561.125 151.398 Q561.125 156.097 563.046 158.782 Q564.99 161.444 568.37 161.444 Q571.749 161.444 573.694 158.782 Q575.638 156.097 575.638 151.398 Q575.638 146.699 573.694 144.037 Q571.749 141.352 568.37 141.352 Q564.99 141.352 563.046 144.037 Q561.125 146.699 561.125 151.398 Z" fill="#000000" fill-rule="evenodd" fill-opacity="1" /><path clip-path="url(#clip640)" d="M588.671 138.412 L592.93 138.412 L592.93 164.338 L588.671 164.338 L588.671 138.412 M588.671 128.319 L592.93 128.319 L592.93 133.713 L588.671 133.713 L588.671 128.319 Z" fill="#000000" fill-rule="evenodd" fill-opacity="1" /><path clip-path="url(#clip640)" d="M620.499 139.407 L620.499 143.389 Q618.694 142.393 616.865 141.907 Q615.059 141.398 613.208 141.398 Q609.064 141.398 606.772 144.037 Q604.481 146.652 604.481 151.398 Q604.481 156.143 606.772 158.782 Q609.064 161.398 613.208 161.398 Q615.059 161.398 616.865 160.912 Q618.694 160.402 620.499 159.407 L620.499 163.342 Q618.717 164.176 616.796 164.592 Q614.897 165.009 612.745 165.009 Q606.888 165.009 603.439 161.328 Q599.99 157.648 599.99 151.398 Q599.99 145.055 603.462 141.421 Q606.958 137.787 613.022 137.787 Q614.99 137.787 616.865 138.203 Q618.74 138.597 620.499 139.407 Z" fill="#000000" fill-rule="evenodd" fill-opacity="1" /><path clip-path="url(#clip640)" d="M632.12 131.051 L632.12 138.412 L640.893 138.412 L640.893 141.722 L632.12 141.722 L632.12 155.796 Q632.12 158.967 632.976 159.87 Q633.856 160.773 636.518 160.773 L640.893 160.773 L640.893 164.338 L636.518 164.338 Q631.587 164.338 629.712 162.509 Q627.837 160.657 627.837 155.796 L627.837 141.722 L624.712 141.722 L624.712 138.412 L627.837 138.412 L627.837 131.051 L632.12 131.051 Z" fill="#000000" fill-rule="evenodd" fill-opacity="1" /><path clip-path="url(#clip640)" d="M646.494 138.412 L650.754 138.412 L650.754 164.338 L646.494 164.338 L646.494 138.412 M646.494 128.319 L650.754 128.319 L650.754 133.713 L646.494 133.713 L646.494 128.319 Z" fill="#000000" fill-rule="evenodd" fill-opacity="1" /><path clip-path="url(#clip640)" d="M669.712 141.398 Q666.286 141.398 664.295 144.083 Q662.305 146.745 662.305 151.398 Q662.305 156.051 664.272 158.736 Q666.263 161.398 669.712 161.398 Q673.115 161.398 675.105 158.713 Q677.096 156.027 677.096 151.398 Q677.096 146.791 675.105 144.106 Q673.115 141.398 669.712 141.398 M669.712 137.787 Q675.267 137.787 678.439 141.398 Q681.61 145.009 681.61 151.398 Q681.61 157.764 678.439 161.398 Q675.267 165.009 669.712 165.009 Q664.133 165.009 660.962 161.398 Q657.814 157.764 657.814 151.398 Q657.814 145.009 660.962 141.398 Q664.133 137.787 669.712 137.787 Z" fill="#000000" fill-rule="evenodd" fill-opacity="1" /><path clip-path="url(#clip640)" d="M710.221 148.689 L710.221 164.338 L705.962 164.338 L705.962 148.828 Q705.962 145.148 704.527 143.319 Q703.091 141.49 700.221 141.49 Q696.772 141.49 694.781 143.69 Q692.791 145.889 692.791 149.685 L692.791 164.338 L688.508 164.338 L688.508 138.412 L692.791 138.412 L692.791 142.44 Q694.318 140.102 696.378 138.944 Q698.462 137.787 701.17 137.787 Q705.638 137.787 707.929 140.565 Q710.221 143.319 710.221 148.689 Z" fill="#000000" fill-rule="evenodd" fill-opacity="1" /><polyline clip-path="url(#clip640)" style="stroke:#e26f46; stroke-linecap:round; stroke-linejoin:round; stroke-width:4; stroke-opacity:1; fill:none" points="
  317.754,198.898 459.731,198.898 
  "/>
<path clip-path="url(#clip640)" d="M483.393 181.618 L505.245 181.618 L505.245 185.553 L488.069 185.553 L488.069 195.784 L504.528 195.784 L504.528 199.719 L488.069 199.719 L488.069 212.242 L505.662 212.242 L505.662 216.178 L483.393 216.178 L483.393 181.618 Z" fill="#000000" fill-rule="evenodd" fill-opacity="1" /><path clip-path="url(#clip640)" d="M534.713 190.252 L525.338 202.867 L535.199 216.178 L530.176 216.178 L522.629 205.992 L515.083 216.178 L510.06 216.178 L520.129 202.613 L510.916 190.252 L515.94 190.252 L522.815 199.488 L529.69 190.252 L534.713 190.252 Z" fill="#000000" fill-rule="evenodd" fill-opacity="1" /><path clip-path="url(#clip640)" d="M553 203.145 Q547.838 203.145 545.847 204.326 Q543.856 205.506 543.856 208.354 Q543.856 210.622 545.338 211.965 Q546.842 213.284 549.412 213.284 Q552.953 213.284 555.083 210.784 Q557.236 208.261 557.236 204.094 L557.236 203.145 L553 203.145 M561.495 201.386 L561.495 216.178 L557.236 216.178 L557.236 212.242 Q555.777 214.603 553.601 215.738 Q551.426 216.849 548.277 216.849 Q544.296 216.849 541.935 214.627 Q539.597 212.381 539.597 208.631 Q539.597 204.256 542.514 202.034 Q545.453 199.812 551.263 199.812 L557.236 199.812 L557.236 199.395 Q557.236 196.455 555.291 194.858 Q553.37 193.238 549.875 193.238 Q547.652 193.238 545.546 193.77 Q543.439 194.303 541.495 195.367 L541.495 191.432 Q543.833 190.53 546.032 190.09 Q548.231 189.627 550.314 189.627 Q555.939 189.627 558.717 192.543 Q561.495 195.46 561.495 201.386 Z" fill="#000000" fill-rule="evenodd" fill-opacity="1" /><path clip-path="url(#clip640)" d="M588.925 191.247 L588.925 195.229 Q587.12 194.233 585.291 193.747 Q583.486 193.238 581.634 193.238 Q577.49 193.238 575.199 195.877 Q572.907 198.492 572.907 203.238 Q572.907 207.983 575.199 210.622 Q577.49 213.238 581.634 213.238 Q583.486 213.238 585.291 212.752 Q587.12 212.242 588.925 211.247 L588.925 215.182 Q587.143 216.016 585.222 216.432 Q583.323 216.849 581.171 216.849 Q575.314 216.849 571.865 213.168 Q568.416 209.488 568.416 203.238 Q568.416 196.895 571.888 193.261 Q575.384 189.627 581.449 189.627 Q583.416 189.627 585.291 190.043 Q587.166 190.437 588.925 191.247 Z" fill="#000000" fill-rule="evenodd" fill-opacity="1" /><path clip-path="url(#clip640)" d="M600.546 182.891 L600.546 190.252 L609.319 190.252 L609.319 193.562 L600.546 193.562 L600.546 207.636 Q600.546 210.807 601.402 211.71 Q602.282 212.613 604.944 212.613 L609.319 212.613 L609.319 216.178 L604.944 216.178 Q600.013 216.178 598.138 214.349 Q596.263 212.497 596.263 207.636 L596.263 193.562 L593.138 193.562 L593.138 190.252 L596.263 190.252 L596.263 182.891 L600.546 182.891 Z" fill="#000000" fill-rule="evenodd" fill-opacity="1" /></svg>
