<?xml version="1.0" encoding="utf-8"?>
<svg xmlns="http://www.w3.org/2000/svg" xmlns:xlink="http://www.w3.org/1999/xlink" width="600" height="400" viewBox="0 0 2400 1600">
<defs>
  <clipPath id="clip700">
    <rect x="0" y="0" width="2400" height="1600"/>
  </clipPath>
</defs>
<path clip-path="url(#clip700)" d="
M0 1600 L2400 1600 L2400 0 L0 0  Z
  " fill="#ffffff" fill-rule="evenodd" fill-opacity="1"/>
<defs>
  <clipPath id="clip701">
    <rect x="480" y="0" width="1681" height="1600"/>
  </clipPath>
</defs>
<path clip-path="url(#clip700)" d="
M156.274 1486.45 L2352.76 1486.45 L2352.76 47.2441 L156.274 47.2441  Z
  " fill="#ffffff" fill-rule="evenodd" fill-opacity="1"/>
<defs>
  <clipPath id="clip702">
    <rect x="156" y="47" width="2197" height="1440"/>
  </clipPath>
</defs>
<polyline clip-path="url(#clip702)" style="stroke:#000000; stroke-linecap:round; stroke-linejoin:round; stroke-width:2; stroke-opacity:0.1; fill:none" points="
  218.439,1486.45 218.439,47.2441 
  "/>
<polyline clip-path="url(#clip702)" style="stroke:#000000; stroke-linecap:round; stroke-linejoin:round; stroke-width:2; stroke-opacity:0.1; fill:none" points="
  736.477,1486.45 736.477,47.2441 
  "/>
<polyline clip-path="url(#clip702)" style="stroke:#000000; stroke-linecap:round; stroke-linejoin:round; stroke-width:2; stroke-opacity:0.1; fill:none" points="
  1254.52,1486.45 1254.52,47.2441 
  "/>
<polyline clip-path="url(#clip702)" style="stroke:#000000; stroke-linecap:round; stroke-linejoin:round; stroke-width:2; stroke-opacity:0.1; fill:none" points="
  1772.55,1486.45 1772.55,47.2441 
  "/>
<polyline clip-path="url(#clip702)" style="stroke:#000000; stroke-linecap:round; stroke-linejoin:round; stroke-width:2; stroke-opacity:0.1; fill:none" points="
  2290.59,1486.45 2290.59,47.2441 
  "/>
<polyline clip-path="url(#clip700)" style="stroke:#000000; stroke-linecap:round; stroke-linejoin:round; stroke-width:4; stroke-opacity:1; fill:none" points="
  156.274,1486.45 2352.76,1486.45 
  "/>
<polyline clip-path="url(#clip700)" style="stroke:#000000; stroke-linecap:round; stroke-linejoin:round; stroke-width:4; stroke-opacity:1; fill:none" points="
  218.439,1486.45 218.439,1467.55 
  "/>
<polyline clip-path="url(#clip700)" style="stroke:#000000; stroke-linecap:round; stroke-linejoin:round; stroke-width:4; stroke-opacity:1; fill:none" points="
  736.477,1486.45 736.477,1467.55 
  "/>
<polyline clip-path="url(#clip700)" style="stroke:#000000; stroke-linecap:round; stroke-linejoin:round; stroke-width:4; stroke-opacity:1; fill:none" points="
  1254.52,1486.45 1254.52,1467.55 
  "/>
<polyline clip-path="url(#clip700)" style="stroke:#000000; stroke-linecap:round; stroke-linejoin:round; stroke-width:4; stroke-opacity:1; fill:none" points="
  1772.55,1486.45 1772.55,1467.55 
  "/>
<polyline clip-path="url(#clip700)" style="stroke:#000000; stroke-linecap:round; stroke-linejoin:round; stroke-width:4; stroke-opacity:1; fill:none" points="
  2290.59,1486.45 2290.59,1467.55 
  "/>
<path clip-path="url(#clip700)" d="M164.967 1532.02 L194.643 1532.02 L194.643 1535.95 L164.967 1535.95 L164.967 1532.02 Z" fill="#000000" fill-rule="evenodd" fill-opacity="1" /><path clip-path="url(#clip700)" d="M205.545 1544.91 L213.184 1544.91 L213.184 1518.55 L204.874 1520.21 L204.874 1515.95 L213.138 1514.29 L217.814 1514.29 L217.814 1544.91 L225.453 1544.91 L225.453 1548.85 L205.545 1548.85 L205.545 1544.91 Z" fill="#000000" fill-rule="evenodd" fill-opacity="1" /><path clip-path="url(#clip700)" d="M234.897 1542.97 L239.781 1542.97 L239.781 1548.85 L234.897 1548.85 L234.897 1542.97 Z" fill="#000000" fill-rule="evenodd" fill-opacity="1" /><path clip-path="url(#clip700)" d="M259.966 1517.37 Q256.355 1517.37 254.527 1520.93 Q252.721 1524.47 252.721 1531.6 Q252.721 1538.71 254.527 1542.27 Q256.355 1545.82 259.966 1545.82 Q263.601 1545.82 265.406 1542.27 Q267.235 1538.71 267.235 1531.6 Q267.235 1524.47 265.406 1520.93 Q263.601 1517.37 259.966 1517.37 M259.966 1513.66 Q265.776 1513.66 268.832 1518.27 Q271.911 1522.85 271.911 1531.6 Q271.911 1540.33 268.832 1544.94 Q265.776 1549.52 259.966 1549.52 Q254.156 1549.52 251.077 1544.94 Q248.022 1540.33 248.022 1531.6 Q248.022 1522.85 251.077 1518.27 Q254.156 1513.66 259.966 1513.66 Z" fill="#000000" fill-rule="evenodd" fill-opacity="1" /><path clip-path="url(#clip700)" d="M683.503 1532.02 L713.178 1532.02 L713.178 1535.95 L683.503 1535.95 L683.503 1532.02 Z" fill="#000000" fill-rule="evenodd" fill-opacity="1" /><path clip-path="url(#clip700)" d="M733.271 1517.37 Q729.66 1517.37 727.831 1520.93 Q726.026 1524.47 726.026 1531.6 Q726.026 1538.71 727.831 1542.27 Q729.66 1545.82 733.271 1545.82 Q736.905 1545.82 738.711 1542.27 Q740.539 1538.71 740.539 1531.6 Q740.539 1524.47 738.711 1520.93 Q736.905 1517.37 733.271 1517.37 M733.271 1513.66 Q739.081 1513.66 742.137 1518.27 Q745.215 1522.85 745.215 1531.6 Q745.215 1540.33 742.137 1544.94 Q739.081 1549.52 733.271 1549.52 Q727.461 1549.52 724.382 1544.94 Q721.327 1540.33 721.327 1531.6 Q721.327 1522.85 724.382 1518.27 Q727.461 1513.66 733.271 1513.66 Z" fill="#000000" fill-rule="evenodd" fill-opacity="1" /><path clip-path="url(#clip700)" d="M753.433 1542.97 L758.317 1542.97 L758.317 1548.85 L753.433 1548.85 L753.433 1542.97 Z" fill="#000000" fill-rule="evenodd" fill-opacity="1" /><path clip-path="url(#clip700)" d="M768.548 1514.29 L786.905 1514.29 L786.905 1518.22 L772.831 1518.22 L772.831 1526.7 Q773.849 1526.35 774.868 1526.19 Q775.886 1526 776.905 1526 Q782.692 1526 786.072 1529.17 Q789.451 1532.34 789.451 1537.76 Q789.451 1543.34 785.979 1546.44 Q782.507 1549.52 776.187 1549.52 Q774.011 1549.52 771.743 1549.15 Q769.498 1548.78 767.09 1548.04 L767.09 1543.34 Q769.173 1544.47 771.396 1545.03 Q773.618 1545.58 776.095 1545.58 Q780.099 1545.58 782.437 1543.48 Q784.775 1541.37 784.775 1537.76 Q784.775 1534.15 782.437 1532.04 Q780.099 1529.94 776.095 1529.94 Q774.22 1529.94 772.345 1530.35 Q770.493 1530.77 768.548 1531.65 L768.548 1514.29 Z" fill="#000000" fill-rule="evenodd" fill-opacity="1" /><path clip-path="url(#clip700)" d="M1231.9 1517.37 Q1228.29 1517.37 1226.46 1520.93 Q1224.65 1524.47 1224.65 1531.6 Q1224.65 1538.71 1226.46 1542.27 Q1228.29 1545.82 1231.9 1545.82 Q1235.53 1545.82 1237.34 1542.27 Q1239.17 1538.71 1239.17 1531.6 Q1239.17 1524.47 1237.34 1520.93 Q1235.53 1517.37 1231.9 1517.37 M1231.9 1513.66 Q1237.71 1513.66 1240.77 1518.27 Q1243.84 1522.85 1243.84 1531.6 Q1243.84 1540.33 1240.77 1544.94 Q1237.71 1549.52 1231.9 1549.52 Q1226.09 1549.52 1223.01 1544.94 Q1219.96 1540.33 1219.96 1531.6 Q1219.96 1522.85 1223.01 1518.27 Q1226.09 1513.66 1231.9 1513.66 Z" fill="#000000" fill-rule="evenodd" fill-opacity="1" /><path clip-path="url(#clip700)" d="M1252.06 1542.97 L1256.95 1542.97 L1256.95 1548.85 L1252.06 1548.85 L1252.06 1542.97 Z" fill="#000000" fill-rule="evenodd" fill-opacity="1" /><path clip-path="url(#clip700)" d="M1277.13 1517.37 Q1273.52 1517.37 1271.69 1520.93 Q1269.89 1524.47 1269.89 1531.6 Q1269.89 1538.71 1271.69 1542.27 Q1273.52 1545.82 1277.13 1545.82 Q1280.76 1545.82 1282.57 1542.27 Q1284.4 1538.71 1284.4 1531.6 Q1284.4 1524.47 1282.57 1520.93 Q1280.76 1517.37 1277.13 1517.37 M1277.13 1513.66 Q1282.94 1513.66 1286 1518.27 Q1289.08 1522.85 1289.08 1531.6 Q1289.08 1540.33 1286 1544.94 Q1282.94 1549.52 1277.13 1549.52 Q1271.32 1549.52 1268.24 1544.94 Q1265.19 1540.33 1265.19 1531.6 Q1265.19 1522.85 1268.24 1518.27 Q1271.32 1513.66 1277.13 1513.66 Z" fill="#000000" fill-rule="evenodd" fill-opacity="1" /><path clip-path="url(#clip700)" d="M1750.44 1517.37 Q1746.82 1517.37 1745 1520.93 Q1743.19 1524.47 1743.19 1531.6 Q1743.19 1538.71 1745 1542.27 Q1746.82 1545.82 1750.44 1545.82 Q1754.07 1545.82 1755.88 1542.27 Q1757.7 1538.71 1757.7 1531.6 Q1757.7 1524.47 1755.88 1520.93 Q1754.07 1517.37 1750.44 1517.37 M1750.44 1513.66 Q1756.25 1513.66 1759.3 1518.27 Q1762.38 1522.85 1762.38 1531.6 Q1762.38 1540.33 1759.3 1544.94 Q1756.25 1549.52 1750.44 1549.52 Q1744.63 1549.52 1741.55 1544.94 Q1738.49 1540.33 1738.49 1531.6 Q1738.49 1522.85 1741.55 1518.27 Q1744.63 1513.66 1750.44 1513.66 Z" fill="#000000" fill-rule="evenodd" fill-opacity="1" /><path clip-path="url(#clip700)" d="M1770.6 1542.97 L1775.48 1542.97 L1775.48 1548.85 L1770.6 1548.85 L1770.6 1542.97 Z" fill="#000000" fill-rule="evenodd" fill-opacity="1" /><path clip-path="url(#clip700)" d="M1785.71 1514.29 L1804.07 1514.29 L1804.07 1518.22 L1790 1518.22 L1790 1526.7 Q1791.01 1526.35 1792.03 1526.19 Q1793.05 1526 1794.07 1526 Q1799.86 1526 1803.24 1529.17 Q1806.62 1532.34 1806.62 1537.76 Q1806.62 1543.34 1803.14 1546.44 Q1799.67 1549.52 1793.35 1549.52 Q1791.18 1549.52 1788.91 1549.15 Q1786.66 1548.78 1784.25 1548.04 L1784.25 1543.34 Q1786.34 1544.47 1788.56 1545.03 Q1790.78 1545.58 1793.26 1545.58 Q1797.26 1545.58 1799.6 1543.48 Q1801.94 1541.37 1801.94 1537.76 Q1801.94 1534.15 1799.6 1532.04 Q1797.26 1529.94 1793.26 1529.94 Q1791.38 1529.94 1789.51 1530.35 Q1787.66 1530.77 1785.71 1531.65 L1785.71 1514.29 Z" fill="#000000" fill-rule="evenodd" fill-opacity="1" /><path clip-path="url(#clip700)" d="M2257.74 1544.91 L2265.38 1544.91 L2265.38 1518.55 L2257.07 1520.21 L2257.07 1515.95 L2265.34 1514.29 L2270.01 1514.29 L2270.01 1544.91 L2277.65 1544.91 L2277.65 1548.85 L2257.74 1548.85 L2257.74 1544.91 Z" fill="#000000" fill-rule="evenodd" fill-opacity="1" /><path clip-path="url(#clip700)" d="M2287.1 1542.97 L2291.98 1542.97 L2291.98 1548.85 L2287.1 1548.85 L2287.1 1542.97 Z" fill="#000000" fill-rule="evenodd" fill-opacity="1" /><path clip-path="url(#clip700)" d="M2312.17 1517.37 Q2308.55 1517.37 2306.73 1520.93 Q2304.92 1524.47 2304.92 1531.6 Q2304.92 1538.71 2306.73 1542.27 Q2308.55 1545.82 2312.17 1545.82 Q2315.8 1545.82 2317.61 1542.27 Q2319.43 1538.71 2319.43 1531.6 Q2319.43 1524.47 2317.61 1520.93 Q2315.8 1517.37 2312.17 1517.37 M2312.17 1513.66 Q2317.98 1513.66 2321.03 1518.27 Q2324.11 1522.85 2324.11 1531.6 Q2324.11 1540.33 2321.03 1544.94 Q2317.98 1549.52 2312.17 1549.52 Q2306.36 1549.52 2303.28 1544.94 Q2300.22 1540.33 2300.22 1531.6 Q2300.22 1522.85 2303.28 1518.27 Q2306.36 1513.66 2312.17 1513.66 Z" fill="#000000" fill-rule="evenodd" fill-opacity="1" /><polyline clip-path="url(#clip702)" style="stroke:#000000; stroke-linecap:round; stroke-linejoin:round; stroke-width:2; stroke-opacity:0.1; fill:none" points="
  156.274,1237.13 2352.76,1237.13 
  "/>
<polyline clip-path="url(#clip702)" style="stroke:#000000; stroke-linecap:round; stroke-linejoin:round; stroke-width:2; stroke-opacity:0.1; fill:none" points="
  156.274,967.441 2352.76,967.441 
  "/>
<polyline clip-path="url(#clip702)" style="stroke:#000000; stroke-linecap:round; stroke-linejoin:round; stroke-width:2; stroke-opacity:0.1; fill:none" points="
  156.274,697.754 2352.76,697.754 
  "/>
<polyline clip-path="url(#clip702)" style="stroke:#000000; stroke-linecap:round; stroke-linejoin:round; stroke-width:2; stroke-opacity:0.1; fill:none" points="
  156.274,428.066 2352.76,428.066 
  "/>
<polyline clip-path="url(#clip702)" style="stroke:#000000; stroke-linecap:round; stroke-linejoin:round; stroke-width:2; stroke-opacity:0.1; fill:none" points="
  156.274,158.378 2352.76,158.378 
  "/>
<polyline clip-path="url(#clip700)" style="stroke:#000000; stroke-linecap:round; stroke-linejoin:round; stroke-width:4; stroke-opacity:1; fill:none" points="
  156.274,1486.45 156.274,47.2441 
  "/>
<polyline clip-path="url(#clip700)" style="stroke:#000000; stroke-linecap:round; stroke-linejoin:round; stroke-width:4; stroke-opacity:1; fill:none" points="
  156.274,1237.13 175.172,1237.13 
  "/>
<polyline clip-path="url(#clip700)" style="stroke:#000000; stroke-linecap:round; stroke-linejoin:round; stroke-width:4; stroke-opacity:1; fill:none" points="
  156.274,967.441 175.172,967.441 
  "/>
<polyline clip-path="url(#clip700)" style="stroke:#000000; stroke-linecap:round; stroke-linejoin:round; stroke-width:4; stroke-opacity:1; fill:none" points="
  156.274,697.754 175.172,697.754 
  "/>
<polyline clip-path="url(#clip700)" style="stroke:#000000; stroke-linecap:round; stroke-linejoin:round; stroke-width:4; stroke-opacity:1; fill:none" points="
  156.274,428.066 175.172,428.066 
  "/>
<polyline clip-path="url(#clip700)" style="stroke:#000000; stroke-linecap:round; stroke-linejoin:round; stroke-width:4; stroke-opacity:1; fill:none" points="
  156.274,158.378 175.172,158.378 
  "/>
<path clip-path="url(#clip700)" d="M63.0985 1222.93 Q59.4875 1222.93 57.6588 1226.49 Q55.8532 1230.03 55.8532 1237.16 Q55.8532 1244.27 57.6588 1247.84 Q59.4875 1251.38 63.0985 1251.38 Q66.7328 1251.38 68.5383 1247.84 Q70.367 1244.27 70.367 1237.16 Q70.367 1230.03 68.5383 1226.49 Q66.7328 1222.93 63.0985 1222.93 M63.0985 1219.22 Q68.9087 1219.22 71.9642 1223.83 Q75.0429 1228.41 75.0429 1237.16 Q75.0429 1245.89 71.9642 1250.5 Q68.9087 1255.08 63.0985 1255.08 Q57.2884 1255.08 54.2097 1250.5 Q51.1542 1245.89 51.1542 1237.16 Q51.1542 1228.41 54.2097 1223.83 Q57.2884 1219.22 63.0985 1219.22 Z" fill="#000000" fill-rule="evenodd" fill-opacity="1" /><path clip-path="url(#clip700)" d="M83.2605 1248.53 L88.1447 1248.53 L88.1447 1254.41 L83.2605 1254.41 L83.2605 1248.53 Z" fill="#000000" fill-rule="evenodd" fill-opacity="1" /><path clip-path="url(#clip700)" d="M108.33 1222.93 Q104.719 1222.93 102.89 1226.49 Q101.084 1230.03 101.084 1237.16 Q101.084 1244.27 102.89 1247.84 Q104.719 1251.38 108.33 1251.38 Q111.964 1251.38 113.77 1247.84 Q115.598 1244.27 115.598 1237.16 Q115.598 1230.03 113.77 1226.49 Q111.964 1222.93 108.33 1222.93 M108.33 1219.22 Q114.14 1219.22 117.195 1223.83 Q120.274 1228.41 120.274 1237.16 Q120.274 1245.89 117.195 1250.5 Q114.14 1255.08 108.33 1255.08 Q102.52 1255.08 99.4409 1250.5 Q96.3854 1245.89 96.3854 1237.16 Q96.3854 1228.41 99.4409 1223.83 Q102.52 1219.22 108.33 1219.22 Z" fill="#000000" fill-rule="evenodd" fill-opacity="1" /><path clip-path="url(#clip700)" d="M63.7467 953.24 Q60.1356 953.24 58.3069 956.805 Q56.5014 960.347 56.5014 967.476 Q56.5014 974.583 58.3069 978.147 Q60.1356 981.689 63.7467 981.689 Q67.3809 981.689 69.1865 978.147 Q71.0152 974.583 71.0152 967.476 Q71.0152 960.347 69.1865 956.805 Q67.3809 953.24 63.7467 953.24 M63.7467 949.536 Q69.5568 949.536 72.6124 954.143 Q75.6911 958.726 75.6911 967.476 Q75.6911 976.203 72.6124 980.809 Q69.5568 985.393 63.7467 985.393 Q57.9365 985.393 54.8578 980.809 Q51.8023 976.203 51.8023 967.476 Q51.8023 958.726 54.8578 954.143 Q57.9365 949.536 63.7467 949.536 Z" fill="#000000" fill-rule="evenodd" fill-opacity="1" /><path clip-path="url(#clip700)" d="M83.9086 978.842 L88.7928 978.842 L88.7928 984.721 L83.9086 984.721 L83.9086 978.842 Z" fill="#000000" fill-rule="evenodd" fill-opacity="1" /><path clip-path="url(#clip700)" d="M113.145 966.087 Q116.501 966.805 118.376 969.073 Q120.274 971.342 120.274 974.675 Q120.274 979.791 116.756 982.592 Q113.237 985.393 106.756 985.393 Q104.58 985.393 102.265 984.953 Q99.9733 984.536 97.5197 983.68 L97.5197 979.166 Q99.4641 980.3 101.779 980.879 Q104.094 981.458 106.617 981.458 Q111.015 981.458 113.307 979.721 Q115.621 977.985 115.621 974.675 Q115.621 971.62 113.469 969.907 Q111.339 968.171 107.52 968.171 L103.492 968.171 L103.492 964.328 L107.705 964.328 Q111.154 964.328 112.983 962.962 Q114.811 961.573 114.811 958.981 Q114.811 956.319 112.913 954.907 Q111.038 953.472 107.52 953.472 Q105.598 953.472 103.399 953.888 Q101.2 954.305 98.5613 955.185 L98.5613 951.018 Q101.223 950.277 103.538 949.907 Q105.876 949.536 107.936 949.536 Q113.26 949.536 116.362 951.967 Q119.464 954.374 119.464 958.495 Q119.464 961.365 117.82 963.356 Q116.177 965.323 113.145 966.087 Z" fill="#000000" fill-rule="evenodd" fill-opacity="1" /><path clip-path="url(#clip700)" d="M62.9365 683.552 Q59.3254 683.552 57.4967 687.117 Q55.6912 690.659 55.6912 697.788 Q55.6912 704.895 57.4967 708.46 Q59.3254 712.001 62.9365 712.001 Q66.5707 712.001 68.3763 708.46 Q70.205 704.895 70.205 697.788 Q70.205 690.659 68.3763 687.117 Q66.5707 683.552 62.9365 683.552 M62.9365 679.849 Q68.7467 679.849 71.8022 684.455 Q74.8809 689.038 74.8809 697.788 Q74.8809 706.515 71.8022 711.122 Q68.7467 715.705 62.9365 715.705 Q57.1264 715.705 54.0477 711.122 Q50.9921 706.515 50.9921 697.788 Q50.9921 689.038 54.0477 684.455 Q57.1264 679.849 62.9365 679.849 Z" fill="#000000" fill-rule="evenodd" fill-opacity="1" /><path clip-path="url(#clip700)" d="M83.0984 709.154 L87.9827 709.154 L87.9827 715.034 L83.0984 715.034 L83.0984 709.154 Z" fill="#000000" fill-rule="evenodd" fill-opacity="1" /><path clip-path="url(#clip700)" d="M108.746 695.89 Q105.598 695.89 103.746 698.043 Q101.918 700.196 101.918 703.946 Q101.918 707.673 103.746 709.849 Q105.598 712.001 108.746 712.001 Q111.895 712.001 113.723 709.849 Q115.575 707.673 115.575 703.946 Q115.575 700.196 113.723 698.043 Q111.895 695.89 108.746 695.89 M118.029 681.238 L118.029 685.497 Q116.27 684.663 114.464 684.224 Q112.682 683.784 110.922 683.784 Q106.293 683.784 103.839 686.909 Q101.409 690.034 101.061 696.353 Q102.427 694.339 104.487 693.275 Q106.547 692.187 109.024 692.187 Q114.233 692.187 117.242 695.358 Q120.274 698.506 120.274 703.946 Q120.274 709.27 117.126 712.487 Q113.978 715.705 108.746 715.705 Q102.751 715.705 99.5798 711.122 Q96.4085 706.515 96.4085 697.788 Q96.4085 689.594 100.297 684.733 Q104.186 679.849 110.737 679.849 Q112.496 679.849 114.279 680.196 Q116.084 680.543 118.029 681.238 Z" fill="#000000" fill-rule="evenodd" fill-opacity="1" /><path clip-path="url(#clip700)" d="M63.2837 413.865 Q59.6726 413.865 57.8439 417.429 Q56.0384 420.971 56.0384 428.101 Q56.0384 435.207 57.8439 438.772 Q59.6726 442.314 63.2837 442.314 Q66.918 442.314 68.7235 438.772 Q70.5522 435.207 70.5522 428.101 Q70.5522 420.971 68.7235 417.429 Q66.918 413.865 63.2837 413.865 M63.2837 410.161 Q69.0939 410.161 72.1494 414.767 Q75.2281 419.351 75.2281 428.101 Q75.2281 436.827 72.1494 441.434 Q69.0939 446.017 63.2837 446.017 Q57.4736 446.017 54.3949 441.434 Q51.3393 436.827 51.3393 428.101 Q51.3393 419.351 54.3949 414.767 Q57.4736 410.161 63.2837 410.161 Z" fill="#000000" fill-rule="evenodd" fill-opacity="1" /><path clip-path="url(#clip700)" d="M83.4457 439.466 L88.3299 439.466 L88.3299 445.346 L83.4457 445.346 L83.4457 439.466 Z" fill="#000000" fill-rule="evenodd" fill-opacity="1" /><path clip-path="url(#clip700)" d="M98.6539 444.628 L98.6539 440.369 Q100.413 441.202 102.219 441.642 Q104.024 442.082 105.76 442.082 Q110.39 442.082 112.82 438.98 Q115.274 435.855 115.621 429.513 Q114.279 431.503 112.219 432.568 Q110.158 433.633 107.658 433.633 Q102.473 433.633 99.4409 430.508 Q96.4317 427.36 96.4317 421.92 Q96.4317 416.596 99.5798 413.379 Q102.728 410.161 107.959 410.161 Q113.955 410.161 117.103 414.767 Q120.274 419.351 120.274 428.101 Q120.274 436.272 116.385 441.156 Q112.52 446.017 105.969 446.017 Q104.209 446.017 102.404 445.67 Q100.598 445.323 98.6539 444.628 M107.959 429.976 Q111.108 429.976 112.936 427.823 Q114.788 425.67 114.788 421.92 Q114.788 418.193 112.936 416.041 Q111.108 413.865 107.959 413.865 Q104.811 413.865 102.959 416.041 Q101.131 418.193 101.131 421.92 Q101.131 425.67 102.959 427.823 Q104.811 429.976 107.959 429.976 Z" fill="#000000" fill-rule="evenodd" fill-opacity="1" /><path clip-path="url(#clip700)" d="M55.506 171.723 L63.1448 171.723 L63.1448 145.357 L54.8347 147.024 L54.8347 142.765 L63.0985 141.098 L67.7744 141.098 L67.7744 171.723 L75.4133 171.723 L75.4133 175.658 L55.506 175.658 L55.506 171.723 Z" fill="#000000" fill-rule="evenodd" fill-opacity="1" /><path clip-path="url(#clip700)" d="M84.8577 169.779 L89.7419 169.779 L89.7419 175.658 L84.8577 175.658 L84.8577 169.779 Z" fill="#000000" fill-rule="evenodd" fill-opacity="1" /><path clip-path="url(#clip700)" d="M103.955 171.723 L120.274 171.723 L120.274 175.658 L98.3298 175.658 L98.3298 171.723 Q100.992 168.968 105.575 164.339 Q110.182 159.686 111.362 158.343 Q113.608 155.82 114.487 154.084 Q115.39 152.325 115.39 150.635 Q115.39 147.881 113.445 146.144 Q111.524 144.408 108.422 144.408 Q106.223 144.408 103.77 145.172 Q101.339 145.936 98.5613 147.487 L98.5613 142.765 Q101.385 141.631 103.839 141.052 Q106.293 140.473 108.33 140.473 Q113.7 140.473 116.895 143.158 Q120.089 145.844 120.089 150.334 Q120.089 152.464 119.279 154.385 Q118.492 156.283 116.385 158.876 Q115.807 159.547 112.705 162.765 Q109.603 165.959 103.955 171.723 Z" fill="#000000" fill-rule="evenodd" fill-opacity="1" /><polyline clip-path="url(#clip702)" style="stroke:#009af9; stroke-linecap:round; stroke-linejoin:round; stroke-width:16; stroke-opacity:1; fill:none" stroke-dasharray="8, 16" points="
  218.439,1102.11 228.852,1099.6 239.264,1089.61 249.677,1073.98 260.09,1058.16 270.503,1049.56 280.916,1054.01 291.329,1072.64 301.741,1101.44 312.154,1133.93 
  322.567,1164.77 332.98,1191.95 343.393,1216.79 353.805,1242.37 364.218,1271.33 374.631,1303.95 385.044,1337.58 395.457,1367.82 405.87,1390.91 416.282,1405.51 
  426.695,1412.68 437.108,1414.46 447.521,1412.29 457.934,1406.36 468.347,1395.95 478.759,1380.3 489.172,1359.15 499.585,1332.92 509.998,1302.59 520.411,1269.59 
  530.824,1235.75 541.236,1203.15 551.649,1173.35 562.062,1146.6 572.475,1121.96 582.888,1099.05 593.301,1079.44 603.713,1065.62 614.126,1058.79 624.539,1058.3 
  634.952,1062.84 645.365,1071.79 655.777,1085.78 666.19,1105.86 676.603,1131.92 687.016,1162.1 697.429,1194.04 707.842,1226.03 718.254,1257.43 728.667,1288.14 
  739.08,1318.05 749.493,1346.32 759.906,1370.97 770.319,1389.03 780.731,1398.31 791.144,1400.91 801.557,1404.9 811.97,1417.48 822.383,1433.53 832.796,1434.7 
  843.208,1404.81 853.621,1347.24 864.034,1287.47 874.447,1250.42 884.86,1236.41 895.273,1230.1 905.685,1218.04 916.098,1193.35 926.511,1156.09 936.924,1113.27 
  947.337,1078.15 957.749,1061.56 968.162,1059.43 978.575,1057.91 988.988,1057.62 999.401,1064.16 1009.81,1076.88 1020.23,1093.39 1030.64,1113.17 1041.05,1136.95 
  1051.46,1165.55 1061.88,1199.38 1072.29,1237.97 1082.7,1278.25 1093.12,1312.78 1103.53,1332.22 1113.94,1332.85 1124.35,1328.24 1134.77,1347.9 1145.18,1394.37 
  1155.59,1433.81 1166.01,1445.72 1176.42,1435.5 1186.83,1410.51 1197.24,1379.86 1207.66,1374.04 1218.07,1403.67 1228.48,1370.71 1238.9,1180.08 1249.31,871.982 
  1259.72,574.958 1270.13,385.785 1280.55,314.737 1290.96,314.907 1301.37,335.692 1311.79,350.9 1322.2,354.723 1332.61,349.505 1343.02,338.871 1353.44,326.183 
  1363.85,314.997 1374.26,308.961 1384.68,310.657 1395.09,320.798 1405.5,338.551 1415.91,361.161 1426.33,381.446 1436.74,388.688 1447.15,377.994 1457.57,354.63 
  1467.98,326.631 1478.39,300.504 1488.8,280.864 1499.22,270.844 1509.63,275.377 1520.04,302.915 1530.45,358.39 1540.87,427.548 1551.28,471.836 1561.69,457.544 
  1572.11,391.04 1582.52,310.499 1592.93,254.012 1603.34,234.789 1613.76,244.798 1624.17,272.707 1634.58,310.192 1645,350.581 1655.41,387.347 1665.82,414.082 
  1676.23,425.466 1686.65,418.056 1697.06,390.68 1707.47,345.332 1717.89,289.455 1728.3,238.742 1738.71,214.547 1749.12,231.362 1759.54,285.371 1769.95,357.715 
  1780.36,426.231 1790.78,472.463 1801.19,482.928 1811.6,450.771 1822.01,380.173 1832.43,289.792 1842.84,209.646 1853.25,169.449 1863.67,183.074 1874.08,241.591 
  1884.49,322.667 1894.9,404.94 1905.32,473.116 1915.73,513.973 1926.14,512.394 1936.56,457.158 1946.97,355.458 1957.38,238.976 1967.79,151.016 1978.21,124.375 
  1988.62,166.002 1999.03,258.19 2009.45,370.682 2019.86,471.24 2030.27,531.966 2040.68,535.724 2051.1,482.625 2061.51,390.658 2071.92,287.237 2082.33,198.351 
  2092.75,144.548 2103.16,140.429 2113.57,189.863 2123.99,282.233 2134.4,395.588 2144.81,501.263 2155.22,566.189 2165.64,558.957 2176.05,469.791 2186.46,331.649 
  2196.88,206.26 2207.29,140.319 2217.7,141 2228.11,188.233 2238.53,257.642 2248.94,332.252 2259.35,403.024 2269.77,465.807 2280.18,518.901 2290.59,561.825 
  
  "/>
<polyline clip-path="url(#clip702)" style="stroke:#e26f46; stroke-linecap:round; stroke-linejoin:round; stroke-width:4; stroke-opacity:1; fill:none" points="
  218.439,1102.11 228.852,1082.95 239.264,1068.83 249.677,1060.19 260.09,1057.34 270.503,1060.35 280.916,1069.13 291.329,1083.39 301.741,1102.67 312.154,1126.34 
  322.567,1153.63 332.98,1183.64 343.393,1215.39 353.805,1247.86 364.218,1279.98 374.631,1310.69 385.044,1339.01 395.457,1364 405.87,1384.85 416.282,1400.88 
  426.695,1411.56 437.108,1416.55 447.521,1415.69 457.934,1409 468.347,1396.7 478.759,1379.19 489.172,1357.04 499.585,1330.98 509.998,1301.86 520.411,1270.62 
  530.824,1238.3 541.236,1205.93 551.649,1174.58 562.062,1145.28 572.475,1118.97 582.888,1096.51 593.301,1078.65 603.713,1065.96 614.126,1058.86 624.539,1057.57 
  634.952,1062.14 645.365,1072.43 655.777,1088.09 666.19,1108.62 676.603,1133.33 687.016,1161.44 697.429,1192.02 707.842,1224.07 718.254,1256.54 728.667,1288.39 
  739.08,1318.56 749.493,1346.07 759.906,1370.02 770.319,1389.64 780.731,1404.28 791.144,1413.47 801.557,1416.9 811.97,1414.46 822.383,1406.24 832.796,1392.5 
  843.208,1373.68 853.621,1350.41 864.034,1323.44 874.447,1293.66 884.86,1262.03 895.273,1229.58 905.685,1197.39 916.098,1166.49 926.511,1137.89 936.924,1112.54 
  947.337,1091.25 957.749,1074.72 968.162,1063.5 978.575,1057.94 988.988,1058.22 999.401,1064.35 1009.81,1076.12 1020.23,1093.14 1030.64,1114.86 1041.05,1140.57 
  1051.46,1169.43 1061.88,1200.5 1072.29,1232.77 1082.7,1265.18 1093.12,1296.68 1103.53,1326.23 1113.94,1352.87 1124.35,1375.73 1134.77,1394.08 1145.18,1407.3 
  1155.59,1414.96 1166.01,1416.82 1176.42,1412.82 1186.83,1403.08 1197.24,1387.93 1207.66,1367.85 1218.07,1343.51 1228.48,1315.7 1238.9,1285.32 1249.31,1253.37 
  1259.72,336.864 1270.13,335.379 1280.55,336.731 1290.96,341.232 1301.37,347.504 1311.79,352.895 1322.2,354.491 1332.61,350.343 1343.02,340.455 1353.44,327.124 
  1363.85,314.438 1374.26,307.028 1384.68,308.449 1395.09,319.756 1405.5,338.774 1415.91,360.418 1426.33,378.043 1436.74,385.477 1447.15,379.113 1457.57,359.367 
  1467.98,330.964 1478.39,301.856 1488.8,280.995 1499.22,275.59 1509.63,288.691 1520.04,317.879 1530.45,355.574 1540.87,390.984 1551.28,413.192 1561.69,414.507 
  1572.11,393.052 1582.52,353.731 1592.93,307.185 1603.34,266.924 1613.76,245.401 1624.17,250.186 1634.58,281.39 1645,331.204 1655.41,385.812 1665.82,429.221 
  1676.23,447.935 1686.65,435.138 1697.06,393.054 1707.47,332.737 1717.89,271.185 1728.3,226.554 1738.71,212.809 1749.12,235.379 1759.54,289.175 1769.95,359.649 
  1780.36,426.714 1790.78,470.468 1801.19,477.096 1811.6,443.193 1822.01,377.178 1832.43,297.253 1842.84,226.393 1853.25,185.741 1863.67,188.311 1874.08,234.862 
  1884.49,313.251 1894.9,401.569 1905.32,474.256 1915.73,509.503 1926.14,495.778 1936.56,435.548 1946.97,344.993 1957.38,249.68 1967.79,177.346 1978.21,149.831 
  1988.62,176.495 1999.03,251.114 2009.45,353.252 2019.86,453.847 2030.27,523.478 2040.68,540.968 2051.1,499.803 2061.51,410.435 2071.92,297.67 2082.33,193.796 
  2092.75,129.333 2103.16,124.075 2113.57,181.033 2123.99,285.14 2134.4,407.209 2144.81,512.108 2155.22,568.869 2165.64,559.832 2176.05,486.098 2186.46,367.649 
  2196.88,237.949 2207.29,134.496 2217.7,87.9763 2228.11,113.177 2238.53,204.325 2248.94,336.324 2259.35,471.652 2269.77,571.03 2280.18,604.811 2290.59,561.825 
  
  "/>
<path clip-path="url(#clip700)" d="
M229.49 250.738 L700.371 250.738 L700.371 95.2176 L229.49 95.2176  Z
  " fill="#ffffff" fill-rule="evenodd" fill-opacity="1"/>
<polyline clip-path="url(#clip700)" style="stroke:#000000; stroke-linecap:round; stroke-linejoin:round; stroke-width:4; stroke-opacity:1; fill:none" points="
  229.49,250.738 700.371,250.738 700.371,95.2176 229.49,95.2176 229.49,250.738 
  "/>
<polyline clip-path="url(#clip700)" style="stroke:#009af9; stroke-linecap:round; stroke-linejoin:round; stroke-width:4; stroke-opacity:1; fill:none" stroke-dasharray="2, 4" points="
  253.896,147.058 400.328,147.058 
  "/>
<path clip-path="url(#clip700)" d="M429.409 133.62 L429.409 146.606 L435.289 146.606 Q438.552 146.606 440.335 144.916 Q442.117 143.227 442.117 140.102 Q442.117 137 440.335 135.31 Q438.552 133.62 435.289 133.62 L429.409 133.62 M424.733 129.778 L435.289 129.778 Q441.099 129.778 444.062 132.416 Q447.048 135.032 447.048 140.102 Q447.048 145.217 444.062 147.833 Q441.099 150.449 435.289 150.449 L429.409 150.449 L429.409 164.338 L424.733 164.338 L424.733 129.778 Z" fill="#000000" fill-rule="evenodd" fill-opacity="1" /><path clip-path="url(#clip700)" d="M467.325 142.393 Q466.608 141.977 465.751 141.791 Q464.918 141.583 463.899 141.583 Q460.288 141.583 458.344 143.944 Q456.423 146.282 456.423 150.68 L456.423 164.338 L452.14 164.338 L452.14 138.412 L456.423 138.412 L456.423 142.44 Q457.765 140.078 459.918 138.944 Q462.071 137.787 465.149 137.787 Q465.589 137.787 466.122 137.856 Q466.654 137.903 467.302 138.018 L467.325 142.393 Z" fill="#000000" fill-rule="evenodd" fill-opacity="1" /><path clip-path="url(#clip700)" d="M492.927 150.31 L492.927 152.393 L473.344 152.393 Q473.622 156.791 475.983 159.106 Q478.367 161.398 482.603 161.398 Q485.057 161.398 487.348 160.796 Q489.663 160.194 491.932 158.99 L491.932 163.018 Q489.64 163.99 487.233 164.5 Q484.825 165.009 482.348 165.009 Q476.145 165.009 472.511 161.398 Q468.899 157.787 468.899 151.629 Q468.899 145.264 472.325 141.537 Q475.774 137.787 481.608 137.787 Q486.839 137.787 489.872 141.166 Q492.927 144.523 492.927 150.31 M488.668 149.06 Q488.622 145.565 486.7 143.481 Q484.802 141.398 481.654 141.398 Q478.089 141.398 475.936 143.412 Q473.807 145.426 473.483 149.083 L488.668 149.06 Z" fill="#000000" fill-rule="evenodd" fill-opacity="1" /><path clip-path="url(#clip700)" d="M516.978 142.347 L516.978 128.319 L521.237 128.319 L521.237 164.338 L516.978 164.338 L516.978 160.449 Q515.635 162.763 513.575 163.898 Q511.538 165.009 508.668 165.009 Q503.969 165.009 501.006 161.259 Q498.066 157.509 498.066 151.398 Q498.066 145.287 501.006 141.537 Q503.969 137.787 508.668 137.787 Q511.538 137.787 513.575 138.921 Q515.635 140.032 516.978 142.347 M502.464 151.398 Q502.464 156.097 504.385 158.782 Q506.33 161.444 509.709 161.444 Q513.089 161.444 515.033 158.782 Q516.978 156.097 516.978 151.398 Q516.978 146.699 515.033 144.037 Q513.089 141.352 509.709 141.352 Q506.33 141.352 504.385 144.037 Q502.464 146.699 502.464 151.398 Z" fill="#000000" fill-rule="evenodd" fill-opacity="1" /><path clip-path="url(#clip700)" d="M530.01 138.412 L534.269 138.412 L534.269 164.338 L530.01 164.338 L530.01 138.412 M530.01 128.319 L534.269 128.319 L534.269 133.713 L530.01 133.713 L530.01 128.319 Z" fill="#000000" fill-rule="evenodd" fill-opacity="1" /><path clip-path="url(#clip700)" d="M561.839 139.407 L561.839 143.389 Q560.033 142.393 558.205 141.907 Q556.399 141.398 554.547 141.398 Q550.404 141.398 548.112 144.037 Q545.82 146.652 545.82 151.398 Q545.82 156.143 548.112 158.782 Q550.404 161.398 554.547 161.398 Q556.399 161.398 558.205 160.912 Q560.033 160.402 561.839 159.407 L561.839 163.342 Q560.056 164.176 558.135 164.592 Q556.237 165.009 554.084 165.009 Q548.228 165.009 544.779 161.328 Q541.33 157.648 541.33 151.398 Q541.33 145.055 544.802 141.421 Q548.297 137.787 554.362 137.787 Q556.33 137.787 558.205 138.203 Q560.08 138.597 561.839 139.407 Z" fill="#000000" fill-rule="evenodd" fill-opacity="1" /><path clip-path="url(#clip700)" d="M573.459 131.051 L573.459 138.412 L582.232 138.412 L582.232 141.722 L573.459 141.722 L573.459 155.796 Q573.459 158.967 574.316 159.87 Q575.195 160.773 577.857 160.773 L582.232 160.773 L582.232 164.338 L577.857 164.338 Q572.927 164.338 571.052 162.509 Q569.177 160.657 569.177 155.796 L569.177 141.722 L566.052 141.722 L566.052 138.412 L569.177 138.412 L569.177 131.051 L573.459 131.051 Z" fill="#000000" fill-rule="evenodd" fill-opacity="1" /><path clip-path="url(#clip700)" d="M587.834 138.412 L592.093 138.412 L592.093 164.338 L587.834 164.338 L587.834 138.412 M587.834 128.319 L592.093 128.319 L592.093 133.713 L587.834 133.713 L587.834 128.319 Z" fill="#000000" fill-rule="evenodd" fill-opacity="1" /><path clip-path="url(#clip700)" d="M611.051 141.398 Q607.626 141.398 605.635 144.083 Q603.644 146.745 603.644 151.398 Q603.644 156.051 605.612 158.736 Q607.602 161.398 611.051 161.398 Q614.454 161.398 616.445 158.713 Q618.436 156.027 618.436 151.398 Q618.436 146.791 616.445 144.106 Q614.454 141.398 611.051 141.398 M611.051 137.787 Q616.607 137.787 619.778 141.398 Q622.95 145.009 622.95 151.398 Q622.95 157.764 619.778 161.398 Q616.607 165.009 611.051 165.009 Q605.473 165.009 602.302 161.398 Q599.153 157.764 599.153 151.398 Q599.153 145.009 602.302 141.398 Q605.473 137.787 611.051 137.787 Z" fill="#000000" fill-rule="evenodd" fill-opacity="1" /><path clip-path="url(#clip700)" d="M651.561 148.689 L651.561 164.338 L647.301 164.338 L647.301 148.828 Q647.301 145.148 645.866 143.319 Q644.431 141.49 641.561 141.49 Q638.112 141.49 636.121 143.69 Q634.13 145.889 634.13 149.685 L634.13 164.338 L629.848 164.338 L629.848 138.412 L634.13 138.412 L634.13 142.44 Q635.658 140.102 637.718 138.944 Q639.801 137.787 642.51 137.787 Q646.977 137.787 649.269 140.565 Q651.561 143.319 651.561 148.689 Z" fill="#000000" fill-rule="evenodd" fill-opacity="1" /><polyline clip-path="url(#clip700)" style="stroke:#e26f46; stroke-linecap:round; stroke-linejoin:round; stroke-width:4; stroke-opacity:1; fill:none" points="
  253.896,198.898 400.328,198.898 
  "/>
<path clip-path="url(#clip700)" d="M424.733 181.618 L446.585 181.618 L446.585 185.553 L429.409 185.553 L429.409 195.784 L445.867 195.784 L445.867 199.719 L429.409 199.719 L429.409 212.242 L447.001 212.242 L447.001 216.178 L424.733 216.178 L424.733 181.618 Z" fill="#000000" fill-rule="evenodd" fill-opacity="1" /><path clip-path="url(#clip700)" d="M476.052 190.252 L466.677 202.867 L476.538 216.178 L471.515 216.178 L463.969 205.992 L456.423 216.178 L451.4 216.178 L461.469 202.613 L452.256 190.252 L457.279 190.252 L464.154 199.488 L471.029 190.252 L476.052 190.252 Z" fill="#000000" fill-rule="evenodd" fill-opacity="1" /><path clip-path="url(#clip700)" d="M494.339 203.145 Q489.177 203.145 487.186 204.326 Q485.196 205.506 485.196 208.354 Q485.196 210.622 486.677 211.965 Q488.182 213.284 490.751 213.284 Q494.293 213.284 496.422 210.784 Q498.575 208.261 498.575 204.094 L498.575 203.145 L494.339 203.145 M502.834 201.386 L502.834 216.178 L498.575 216.178 L498.575 212.242 Q497.117 214.603 494.941 215.738 Q492.765 216.849 489.617 216.849 Q485.635 216.849 483.274 214.627 Q480.936 212.381 480.936 208.631 Q480.936 204.256 483.853 202.034 Q486.793 199.812 492.603 199.812 L498.575 199.812 L498.575 199.395 Q498.575 196.455 496.631 194.858 Q494.71 193.238 491.214 193.238 Q488.992 193.238 486.885 193.77 Q484.779 194.303 482.835 195.367 L482.835 191.432 Q485.173 190.53 487.372 190.09 Q489.571 189.627 491.654 189.627 Q497.279 189.627 500.057 192.543 Q502.834 195.46 502.834 201.386 Z" fill="#000000" fill-rule="evenodd" fill-opacity="1" /><path clip-path="url(#clip700)" d="M530.265 191.247 L530.265 195.229 Q528.459 194.233 526.631 193.747 Q524.825 193.238 522.973 193.238 Q518.83 193.238 516.538 195.877 Q514.246 198.492 514.246 203.238 Q514.246 207.983 516.538 210.622 Q518.83 213.238 522.973 213.238 Q524.825 213.238 526.631 212.752 Q528.459 212.242 530.265 211.247 L530.265 215.182 Q528.482 216.016 526.561 216.432 Q524.663 216.849 522.51 216.849 Q516.654 216.849 513.205 213.168 Q509.756 209.488 509.756 203.238 Q509.756 196.895 513.228 193.261 Q516.723 189.627 522.788 189.627 Q524.756 189.627 526.631 190.043 Q528.506 190.437 530.265 191.247 Z" fill="#000000" fill-rule="evenodd" fill-opacity="1" /><path clip-path="url(#clip700)" d="M541.885 182.891 L541.885 190.252 L550.658 190.252 L550.658 193.562 L541.885 193.562 L541.885 207.636 Q541.885 210.807 542.742 211.71 Q543.621 212.613 546.283 212.613 L550.658 212.613 L550.658 216.178 L546.283 216.178 Q541.353 216.178 539.478 214.349 Q537.603 212.497 537.603 207.636 L537.603 193.562 L534.478 193.562 L534.478 190.252 L537.603 190.252 L537.603 182.891 L541.885 182.891 Z" fill="#000000" fill-rule="evenodd" fill-opacity="1" /></svg>
