<?xml version="1.0" encoding="utf-8"?>
<svg xmlns="http://www.w3.org/2000/svg" xmlns:xlink="http://www.w3.org/1999/xlink" width="600" height="400" viewBox="0 0 2400 1600">
<defs>
  <clipPath id="clip670">
    <rect x="0" y="0" width="2400" height="1600"/>
  </clipPath>
</defs>
<path clip-path="url(#clip670)" d="
M0 1600 L2400 1600 L2400 0 L0 0  Z
  " fill="#ffffff" fill-rule="evenodd" fill-opacity="1"/>
<defs>
  <clipPath id="clip671">
    <rect x="480" y="0" width="1681" height="1600"/>
  </clipPath>
</defs>
<path clip-path="url(#clip670)" d="
M156.274 1486.45 L2352.76 1486.45 L2352.76 47.2441 L156.274 47.2441  Z
  " fill="#ffffff" fill-rule="evenodd" fill-opacity="1"/>
<defs>
  <clipPath id="clip672">
    <rect x="156" y="47" width="2197" height="1440"/>
  </clipPath>
</defs>
<polyline clip-path="url(#clip672)" style="stroke:#000000; stroke-linecap:round; stroke-linejoin:round; stroke-width:2; stroke-opacity:0.1; fill:none" points="
  218.439,1486.45 218.439,47.2441 
  "/>
<polyline clip-path="url(#clip672)" style="stroke:#000000; stroke-linecap:round; stroke-linejoin:round; stroke-width:2; stroke-opacity:0.1; fill:none" points="
  736.477,1486.45 736.477,47.2441 
  "/>
<polyline clip-path="url(#clip672)" style="stroke:#000000; stroke-linecap:round; stroke-linejoin:round; stroke-width:2; stroke-opacity:0.1; fill:none" points="
  1254.52,1486.45 1254.52,47.2441 
  "/>
<polyline clip-path="url(#clip672)" style="stroke:#000000; stroke-linecap:round; stroke-linejoin:round; stroke-width:2; stroke-opacity:0.1; fill:none" points="
  1772.55,1486.45 1772.55,47.2441 
  "/>
<polyline clip-path="url(#clip672)" style="stroke:#000000; stroke-linecap:round; stroke-linejoin:round; stroke-width:2; stroke-opacity:0.1; fill:none" points="
  2290.59,1486.45 2290.59,47.2441 
  "/>
<polyline clip-path="url(#clip670)" style="stroke:#000000; stroke-linecap:round; stroke-linejoin:round; stroke-width:4; stroke-opacity:1; fill:none" points="
  156.274,1486.45 2352.76,1486.45 
  "/>
<polyline clip-path="url(#clip670)" style="stroke:#000000; stroke-linecap:round; stroke-linejoin:round; stroke-width:4; stroke-opacity:1; fill:none" points="
  218.439,1486.45 218.439,1467.55 
  "/>
<polyline clip-path="url(#clip670)" style="stroke:#000000; stroke-linecap:round; stroke-linejoin:round; stroke-width:4; stroke-opacity:1; fill:none" points="
  736.477,1486.45 736.477,1467.55 
  "/>
<polyline clip-path="url(#clip670)" style="stroke:#000000; stroke-linecap:round; stroke-linejoin:round; stroke-width:4; stroke-opacity:1; fill:none" points="
  1254.52,1486.45 1254.52,1467.55 
  "/>
<polyline clip-path="url(#clip670)" style="stroke:#000000; stroke-linecap:round; stroke-linejoin:round; stroke-width:4; stroke-opacity:1; fill:none" points="
  1772.55,1486.45 1772.55,1467.55 
  "/>
<polyline clip-path="url(#clip670)" style="stroke:#000000; stroke-linecap:round; stroke-linejoin:round; stroke-width:4; stroke-opacity:1; fill:none" points="
  2290.59,1486.45 2290.59,1467.55 
  "/>
<path clip-path="url(#clip670)" d="M164.967 1532.02 L194.643 1532.02 L194.643 1535.95 L164.967 1535.95 L164.967 1532.02 Z" fill="#000000" fill-rule="evenodd" fill-opacity="1" /><path clip-path="url(#clip670)" d="M205.545 1544.91 L213.184 1544.91 L213.184 1518.55 L204.874 1520.21 L204.874 1515.95 L213.138 1514.29 L217.814 1514.29 L217.814 1544.91 L225.453 1544.91 L225.453 1548.85 L205.545 1548.85 L205.545 1544.91 Z" fill="#000000" fill-rule="evenodd" fill-opacity="1" /><path clip-path="url(#clip670)" d="M234.897 1542.97 L239.781 1542.97 L239.781 1548.85 L234.897 1548.85 L234.897 1542.97 Z" fill="#000000" fill-rule="evenodd" fill-opacity="1" /><path clip-path="url(#clip670)" d="M259.966 1517.37 Q256.355 1517.37 254.527 1520.93 Q252.721 1524.47 252.721 1531.6 Q252.721 1538.71 254.527 1542.27 Q256.355 1545.82 259.966 1545.82 Q263.601 1545.82 265.406 1542.27 Q267.235 1538.71 267.235 1531.6 Q267.235 1524.47 265.406 1520.93 Q263.601 1517.37 259.966 1517.37 M259.966 1513.66 Q265.776 1513.66 268.832 1518.27 Q271.911 1522.85 271.911 1531.6 Q271.911 1540.33 268.832 1544.94 Q265.776 1549.52 259.966 1549.52 Q254.156 1549.52 251.077 1544.94 Q248.022 1540.33 248.022 1531.6 Q248.022 1522.85 251.077 1518.27 Q254.156 1513.66 259.966 1513.66 Z" fill="#000000" fill-rule="evenodd" fill-opacity="1" /><path clip-path="url(#clip670)" d="M683.503 1532.02 L713.178 1532.02 L713.178 1535.95 L683.503 1535.95 L683.503 1532.02 Z" fill="#000000" fill-rule="evenodd" fill-opacity="1" /><path clip-path="url(#clip670)" d="M733.271 1517.37 Q729.66 1517.37 727.831 1520.93 Q726.026 1524.47 726.026 1531.6 Q726.026 1538.71 727.831 1542.27 Q729.66 1545.82 733.271 1545.82 Q736.905 1545.82 738.711 1542.27 Q740.539 1538.71 740.539 1531.6 Q740.539 1524.47 738.711 1520.93 Q736.905 1517.37 733.271 1517.37 M733.271 1513.66 Q739.081 1513.66 742.137 1518.27 Q745.215 1522.85 745.215 1531.6 Q745.215 1540.33 742.137 1544.94 Q739.081 1549.52 733.271 1549.52 Q727.461 1549.52 724.382 1544.94 Q721.327 1540.33 721.327 1531.6 Q721.327 1522.85 724.382 1518.27 Q727.461 1513.66 733.271 1513.66 Z" fill="#000000" fill-rule="evenodd" fill-opacity="1" /><path clip-path="url(#clip670)" d="M753.433 1542.97 L758.317 1542.97 L758.317 1548.85 L753.433 1548.85 L753.433 1542.97 Z" fill="#000000" fill-rule="evenodd" fill-opacity="1" /><path clip-path="url(#clip670)" d="M768.548 1514.29 L786.905 1514.29 L786.905 1518.22 L772.831 1518.22 L772.831 1526.7 Q773.849 1526.35 774.868 1526.19 Q775.886 1526 776.905 1526 Q782.692 1526 786.072 1529.17 Q789.451 1532.34 789.451 1537.76 Q789.451 1543.34 785.979 1546.44 Q782.507 1549.52 776.187 1549.52 Q774.011 1549.52 771.743 1549.15 Q769.498 1548.78 767.09 1548.04 L767.09 1543.34 Q769.173 1544.47 771.396 1545.03 Q773.618 1545.58 776.095 1545.58 Q780.099 1545.58 782.437 1543.48 Q784.775 1541.37 784.775 1537.76 Q784.775 1534.15 782.437 1532.04 Q780.099 1529.94 776.095 1529.94 Q774.22 1529.94 772.345 1530.35 Q770.493 1530.77 768.548 1531.65 L768.548 1514.29 Z" fill="#000000" fill-rule="evenodd" fill-opacity="1" /><path clip-path="url(#clip670)" d="M1231.9 1517.37 Q1228.29 1517.37 1226.46 1520.93 Q1224.65 1524.47 1224.65 1531.6 Q1224.65 1538.71 1226.46 1542.27 Q1228.29 1545.82 1231.9 1545.82 Q1235.53 1545.82 1237.34 1542.27 Q1239.17 1538.71 1239.17 1531.6 Q1239.17 1524.47 1237.34 1520.93 Q1235.53 1517.37 1231.9 1517.37 M1231.9 1513.66 Q1237.71 1513.66 1240.77 1518.27 Q1243.84 1522.85 1243.84 1531.6 Q1243.84 1540.33 1240.77 1544.94 Q1237.71 1549.52 1231.9 1549.52 Q1226.09 1549.52 1223.01 1544.94 Q1219.96 1540.33 1219.96 1531.6 Q1219.96 1522.85 1223.01 1518.27 Q1226.09 1513.66 1231.9 1513.66 Z" fill="#000000" fill-rule="evenodd" fill-opacity="1" /><path clip-path="url(#clip670)" d="M1252.06 1542.97 L1256.95 1542.97 L1256.95 1548.85 L1252.06 1548.85 L1252.06 1542.97 Z" fill="#000000" fill-rule="evenodd" fill-opacity="1" /><path clip-path="url(#clip670)" d="M1277.13 1517.37 Q1273.52 1517.37 1271.69 1520.93 Q1269.89 1524.47 1269.89 1531.6 Q1269.89 1538.71 1271.69 1542.27 Q1273.52 1545.82 1277.13 1545.82 Q1280.76 1545.82 1282.57 1542.27 Q1284.4 1538.71 1284.4 1531.6 Q1284.4 1524.47 1282.57 1520.93 Q1280.76 1517.37 1277.13 1517.37 M1277.13 1513.66 Q1282.94 1513.66 1286 1518.27 Q1289.08 1522.85 1289.08 1531.6 Q1289.08 1540.33 1286 1544.94 Q1282.94 1549.52 1277.13 1549.52 Q1271.32 1549.52 1268.24 1544.94 Q1265.19 1540.33 1265.19 1531.6 Q1265.19 1522.85 1268.24 1518.27 Q1271.32 1513.66 1277.13 1513.66 Z" fill="#000000" fill-rule="evenodd" fill-opacity="1" /><path clip-path="url(#clip670)" d="M1750.44 1517.37 Q1746.82 1517.37 1745 1520.93 Q1743.19 1524.47 1743.19 1531.6 Q1743.19 1538.71 1745 1542.27 Q1746.82 1545.82 1750.44 1545.82 Q1754.07 1545.82 1755.88 1542.27 Q1757.7 1538.71 1757.7 1531.6 Q1757.7 1524.47 1755.88 1520.93 Q1754.07 1517.37 1750.44 1517.37 M1750.44 1513.66 Q1756.25 1513.66 1759.3 1518.27 Q1762.38 1522.85 1762.38 1531.6 Q1762.38 1540.33 1759.3 1544.94 Q1756.25 1549.52 1750.44 1549.52 Q1744.63 1549.52 1741.55 1544.94 Q1738.49 1540.33 1738.49 1531.6 Q1738.49 1522.85 1741.55 1518.27 Q1744.63 1513.66 1750.44 1513.66 Z" fill="#000000" fill-rule="evenodd" fill-opacity="1" /><path clip-path="url(#clip670)" d="M1770.6 1542.97 L1775.48 1542.97 L1775.48 1548.85 L1770.6 1548.85 L1770.6 1542.97 Z" fill="#000000" fill-rule="evenodd" fill-opacity="1" /><path clip-path="url(#clip670)" d="M1785.71 1514.29 L1804.07 1514.29 L1804.07 1518.22 L1790 1518.22 L1790 1526.7 Q1791.01 1526.35 1792.03 1526.19 Q1793.05 1526 1794.07 1526 Q1799.86 1526 1803.24 1529.17 Q1806.62 1532.34 1806.62 1537.76 Q1806.62 1543.34 1803.14 1546.44 Q1799.67 1549.52 1793.35 1549.52 Q1791.18 1549.52 1788.91 1549.15 Q1786.66 1548.78 1784.25 1548.04 L1784.25 1543.34 Q1786.34 1544.47 1788.56 1545.03 Q1790.78 1545.58 1793.26 1545.58 Q1797.26 1545.58 1799.6 1543.48 Q1801.94 1541.37 1801.94 1537.76 Q1801.94 1534.15 1799.6 1532.04 Q1797.26 1529.94 1793.26 1529.94 Q1791.38 1529.94 1789.51 1530.35 Q1787.66 1530.77 1785.71 1531.65 L1785.71 1514.29 Z" fill="#000000" fill-rule="evenodd" fill-opacity="1" /><path clip-path="url(#clip670)" d="M2257.74 1544.91 L2265.38 1544.91 L2265.38 1518.55 L2257.07 1520.21 L2257.07 1515.95 L2265.34 1514.29 L2270.01 1514.29 L2270.01 1544.91 L2277.65 1544.91 L2277.65 1548.85 L2257.74 1548.85 L2257.74 1544.91 Z" fill="#000000" fill-rule="evenodd" fill-opacity="1" /><path clip-path="url(#clip670)" d="M2287.1 1542.97 L2291.98 1542.97 L2291.98 1548.85 L2287.1 1548.85 L2287.1 1542.97 Z" fill="#000000" fill-rule="evenodd" fill-opacity="1" /><path clip-path="url(#clip670)" d="M2312.17 1517.37 Q2308.55 1517.37 2306.73 1520.93 Q2304.92 1524.47 2304.92 1531.6 Q2304.92 1538.71 2306.73 1542.27 Q2308.55 1545.82 2312.17 1545.82 Q2315.8 1545.82 2317.61 1542.27 Q2319.43 1538.71 2319.43 1531.6 Q2319.43 1524.47 2317.61 1520.93 Q2315.8 1517.37 2312.17 1517.37 M2312.17 1513.66 Q2317.98 1513.66 2321.03 1518.27 Q2324.11 1522.85 2324.11 1531.6 Q2324.11 1540.33 2321.03 1544.94 Q2317.98 1549.52 2312.17 1549.52 Q2306.36 1549.52 2303.28 1544.94 Q2300.22 1540.33 2300.22 1531.6 Q2300.22 1522.85 2303.28 1518.27 Q2306.36 1513.66 2312.17 1513.66 Z" fill="#000000" fill-rule="evenodd" fill-opacity="1" /><polyline clip-path="url(#clip672)" style="stroke:#000000; stroke-linecap:round; stroke-linejoin:round; stroke-width:2; stroke-opacity:0.1; fill:none" points="
  156.274,1248.71 2352.76,1248.71 
  "/>
<polyline clip-path="url(#clip672)" style="stroke:#000000; stroke-linecap:round; stroke-linejoin:round; stroke-width:2; stroke-opacity:0.1; fill:none" points="
  156.274,976.307 2352.76,976.307 
  "/>
<polyline clip-path="url(#clip672)" style="stroke:#000000; stroke-linecap:round; stroke-linejoin:round; stroke-width:2; stroke-opacity:0.1; fill:none" points="
  156.274,703.9 2352.76,703.9 
  "/>
<polyline clip-path="url(#clip672)" style="stroke:#000000; stroke-linecap:round; stroke-linejoin:round; stroke-width:2; stroke-opacity:0.1; fill:none" points="
  156.274,431.494 2352.76,431.494 
  "/>
<polyline clip-path="url(#clip672)" style="stroke:#000000; stroke-linecap:round; stroke-linejoin:round; stroke-width:2; stroke-opacity:0.1; fill:none" points="
  156.274,159.088 2352.76,159.088 
  "/>
<polyline clip-path="url(#clip670)" style="stroke:#000000; stroke-linecap:round; stroke-linejoin:round; stroke-width:4; stroke-opacity:1; fill:none" points="
  156.274,1486.45 156.274,47.2441 
  "/>
<polyline clip-path="url(#clip670)" style="stroke:#000000; stroke-linecap:round; stroke-linejoin:round; stroke-width:4; stroke-opacity:1; fill:none" points="
  156.274,1248.71 175.172,1248.71 
  "/>
<polyline clip-path="url(#clip670)" style="stroke:#000000; stroke-linecap:round; stroke-linejoin:round; stroke-width:4; stroke-opacity:1; fill:none" points="
  156.274,976.307 175.172,976.307 
  "/>
<polyline clip-path="url(#clip670)" style="stroke:#000000; stroke-linecap:round; stroke-linejoin:round; stroke-width:4; stroke-opacity:1; fill:none" points="
  156.274,703.9 175.172,703.9 
  "/>
<polyline clip-path="url(#clip670)" style="stroke:#000000; stroke-linecap:round; stroke-linejoin:round; stroke-width:4; stroke-opacity:1; fill:none" points="
  156.274,431.494 175.172,431.494 
  "/>
<polyline clip-path="url(#clip670)" style="stroke:#000000; stroke-linecap:round; stroke-linejoin:round; stroke-width:4; stroke-opacity:1; fill:none" points="
  156.274,159.088 175.172,159.088 
  "/>
<path clip-path="url(#clip670)" d="M63.0985 1234.51 Q59.4875 1234.51 57.6588 1238.08 Q55.8532 1241.62 55.8532 1248.75 Q55.8532 1255.85 57.6588 1259.42 Q59.4875 1262.96 63.0985 1262.96 Q66.7328 1262.96 68.5383 1259.42 Q70.367 1255.85 70.367 1248.75 Q70.367 1241.62 68.5383 1238.08 Q66.7328 1234.51 63.0985 1234.51 M63.0985 1230.81 Q68.9087 1230.81 71.9642 1235.41 Q75.0429 1240 75.0429 1248.75 Q75.0429 1257.47 71.9642 1262.08 Q68.9087 1266.66 63.0985 1266.66 Q57.2884 1266.66 54.2097 1262.08 Q51.1542 1257.47 51.1542 1248.75 Q51.1542 1240 54.2097 1235.41 Q57.2884 1230.81 63.0985 1230.81 Z" fill="#000000" fill-rule="evenodd" fill-opacity="1" /><path clip-path="url(#clip670)" d="M83.2605 1260.11 L88.1447 1260.11 L88.1447 1265.99 L83.2605 1265.99 L83.2605 1260.11 Z" fill="#000000" fill-rule="evenodd" fill-opacity="1" /><path clip-path="url(#clip670)" d="M108.33 1234.51 Q104.719 1234.51 102.89 1238.08 Q101.084 1241.62 101.084 1248.75 Q101.084 1255.85 102.89 1259.42 Q104.719 1262.96 108.33 1262.96 Q111.964 1262.96 113.77 1259.42 Q115.598 1255.85 115.598 1248.75 Q115.598 1241.62 113.77 1238.08 Q111.964 1234.51 108.33 1234.51 M108.33 1230.81 Q114.14 1230.81 117.195 1235.41 Q120.274 1240 120.274 1248.75 Q120.274 1257.47 117.195 1262.08 Q114.14 1266.66 108.33 1266.66 Q102.52 1266.66 99.4409 1262.08 Q96.3854 1257.47 96.3854 1248.75 Q96.3854 1240 99.4409 1235.41 Q102.52 1230.81 108.33 1230.81 Z" fill="#000000" fill-rule="evenodd" fill-opacity="1" /><path clip-path="url(#clip670)" d="M63.7467 962.105 Q60.1356 962.105 58.3069 965.67 Q56.5014 969.212 56.5014 976.342 Q56.5014 983.448 58.3069 987.013 Q60.1356 990.554 63.7467 990.554 Q67.3809 990.554 69.1865 987.013 Q71.0152 983.448 71.0152 976.342 Q71.0152 969.212 69.1865 965.67 Q67.3809 962.105 63.7467 962.105 M63.7467 958.402 Q69.5568 958.402 72.6124 963.008 Q75.6911 967.592 75.6911 976.342 Q75.6911 985.068 72.6124 989.675 Q69.5568 994.258 63.7467 994.258 Q57.9365 994.258 54.8578 989.675 Q51.8023 985.068 51.8023 976.342 Q51.8023 967.592 54.8578 963.008 Q57.9365 958.402 63.7467 958.402 Z" fill="#000000" fill-rule="evenodd" fill-opacity="1" /><path clip-path="url(#clip670)" d="M83.9086 987.707 L88.7928 987.707 L88.7928 993.587 L83.9086 993.587 L83.9086 987.707 Z" fill="#000000" fill-rule="evenodd" fill-opacity="1" /><path clip-path="url(#clip670)" d="M113.145 974.953 Q116.501 975.67 118.376 977.939 Q120.274 980.207 120.274 983.541 Q120.274 988.656 116.756 991.457 Q113.237 994.258 106.756 994.258 Q104.58 994.258 102.265 993.818 Q99.9733 993.402 97.5197 992.545 L97.5197 988.031 Q99.4641 989.166 101.779 989.744 Q104.094 990.323 106.617 990.323 Q111.015 990.323 113.307 988.587 Q115.621 986.851 115.621 983.541 Q115.621 980.485 113.469 978.772 Q111.339 977.036 107.52 977.036 L103.492 977.036 L103.492 973.193 L107.705 973.193 Q111.154 973.193 112.983 971.828 Q114.811 970.439 114.811 967.846 Q114.811 965.184 112.913 963.772 Q111.038 962.337 107.52 962.337 Q105.598 962.337 103.399 962.754 Q101.2 963.17 98.5613 964.05 L98.5613 959.883 Q101.223 959.143 103.538 958.772 Q105.876 958.402 107.936 958.402 Q113.26 958.402 116.362 960.832 Q119.464 963.24 119.464 967.36 Q119.464 970.23 117.82 972.221 Q116.177 974.189 113.145 974.953 Z" fill="#000000" fill-rule="evenodd" fill-opacity="1" /><path clip-path="url(#clip670)" d="M62.9365 689.699 Q59.3254 689.699 57.4967 693.264 Q55.6912 696.806 55.6912 703.935 Q55.6912 711.042 57.4967 714.606 Q59.3254 718.148 62.9365 718.148 Q66.5707 718.148 68.3763 714.606 Q70.205 711.042 70.205 703.935 Q70.205 696.806 68.3763 693.264 Q66.5707 689.699 62.9365 689.699 M62.9365 685.995 Q68.7467 685.995 71.8022 690.602 Q74.8809 695.185 74.8809 703.935 Q74.8809 712.662 71.8022 717.268 Q68.7467 721.852 62.9365 721.852 Q57.1264 721.852 54.0477 717.268 Q50.9921 712.662 50.9921 703.935 Q50.9921 695.185 54.0477 690.602 Q57.1264 685.995 62.9365 685.995 Z" fill="#000000" fill-rule="evenodd" fill-opacity="1" /><path clip-path="url(#clip670)" d="M83.0984 715.301 L87.9827 715.301 L87.9827 721.18 L83.0984 721.18 L83.0984 715.301 Z" fill="#000000" fill-rule="evenodd" fill-opacity="1" /><path clip-path="url(#clip670)" d="M108.746 702.037 Q105.598 702.037 103.746 704.19 Q101.918 706.343 101.918 710.093 Q101.918 713.819 103.746 715.995 Q105.598 718.148 108.746 718.148 Q111.895 718.148 113.723 715.995 Q115.575 713.819 115.575 710.093 Q115.575 706.343 113.723 704.19 Q111.895 702.037 108.746 702.037 M118.029 687.384 L118.029 691.644 Q116.27 690.81 114.464 690.37 Q112.682 689.931 110.922 689.931 Q106.293 689.931 103.839 693.056 Q101.409 696.181 101.061 702.5 Q102.427 700.486 104.487 699.421 Q106.547 698.333 109.024 698.333 Q114.233 698.333 117.242 701.505 Q120.274 704.653 120.274 710.093 Q120.274 715.417 117.126 718.634 Q113.978 721.852 108.746 721.852 Q102.751 721.852 99.5798 717.268 Q96.4085 712.662 96.4085 703.935 Q96.4085 695.741 100.297 690.88 Q104.186 685.995 110.737 685.995 Q112.496 685.995 114.279 686.343 Q116.084 686.69 118.029 687.384 Z" fill="#000000" fill-rule="evenodd" fill-opacity="1" /><path clip-path="url(#clip670)" d="M63.2837 417.293 Q59.6726 417.293 57.8439 420.858 Q56.0384 424.399 56.0384 431.529 Q56.0384 438.635 57.8439 442.2 Q59.6726 445.742 63.2837 445.742 Q66.918 445.742 68.7235 442.2 Q70.5522 438.635 70.5522 431.529 Q70.5522 424.399 68.7235 420.858 Q66.918 417.293 63.2837 417.293 M63.2837 413.589 Q69.0939 413.589 72.1494 418.196 Q75.2281 422.779 75.2281 431.529 Q75.2281 440.256 72.1494 444.862 Q69.0939 449.445 63.2837 449.445 Q57.4736 449.445 54.3949 444.862 Q51.3393 440.256 51.3393 431.529 Q51.3393 422.779 54.3949 418.196 Q57.4736 413.589 63.2837 413.589 Z" fill="#000000" fill-rule="evenodd" fill-opacity="1" /><path clip-path="url(#clip670)" d="M83.4457 442.895 L88.3299 442.895 L88.3299 448.774 L83.4457 448.774 L83.4457 442.895 Z" fill="#000000" fill-rule="evenodd" fill-opacity="1" /><path clip-path="url(#clip670)" d="M98.6539 448.057 L98.6539 443.797 Q100.413 444.631 102.219 445.07 Q104.024 445.51 105.76 445.51 Q110.39 445.51 112.82 442.408 Q115.274 439.283 115.621 432.941 Q114.279 434.932 112.219 435.996 Q110.158 437.061 107.658 437.061 Q102.473 437.061 99.4409 433.936 Q96.4317 430.788 96.4317 425.348 Q96.4317 420.024 99.5798 416.807 Q102.728 413.589 107.959 413.589 Q113.955 413.589 117.103 418.196 Q120.274 422.779 120.274 431.529 Q120.274 439.7 116.385 444.584 Q112.52 449.445 105.969 449.445 Q104.209 449.445 102.404 449.098 Q100.598 448.751 98.6539 448.057 M107.959 433.404 Q111.108 433.404 112.936 431.251 Q114.788 429.098 114.788 425.348 Q114.788 421.622 112.936 419.469 Q111.108 417.293 107.959 417.293 Q104.811 417.293 102.959 419.469 Q101.131 421.622 101.131 425.348 Q101.131 429.098 102.959 431.251 Q104.811 433.404 107.959 433.404 Z" fill="#000000" fill-rule="evenodd" fill-opacity="1" /><path clip-path="url(#clip670)" d="M55.506 172.433 L63.1448 172.433 L63.1448 146.067 L54.8347 147.734 L54.8347 143.475 L63.0985 141.808 L67.7744 141.808 L67.7744 172.433 L75.4133 172.433 L75.4133 176.368 L55.506 176.368 L55.506 172.433 Z" fill="#000000" fill-rule="evenodd" fill-opacity="1" /><path clip-path="url(#clip670)" d="M84.8577 170.488 L89.7419 170.488 L89.7419 176.368 L84.8577 176.368 L84.8577 170.488 Z" fill="#000000" fill-rule="evenodd" fill-opacity="1" /><path clip-path="url(#clip670)" d="M103.955 172.433 L120.274 172.433 L120.274 176.368 L98.3298 176.368 L98.3298 172.433 Q100.992 169.678 105.575 165.048 Q110.182 160.396 111.362 159.053 Q113.608 156.53 114.487 154.794 Q115.39 153.035 115.39 151.345 Q115.39 148.59 113.445 146.854 Q111.524 145.118 108.422 145.118 Q106.223 145.118 103.77 145.882 Q101.339 146.646 98.5613 148.197 L98.5613 143.475 Q101.385 142.34 103.839 141.762 Q106.293 141.183 108.33 141.183 Q113.7 141.183 116.895 143.868 Q120.089 146.553 120.089 151.044 Q120.089 153.174 119.279 155.095 Q118.492 156.993 116.385 159.586 Q115.807 160.257 112.705 163.474 Q109.603 166.669 103.955 172.433 Z" fill="#000000" fill-rule="evenodd" fill-opacity="1" /><polyline clip-path="url(#clip672)" style="stroke:#009af9; stroke-linecap:round; stroke-linejoin:round; stroke-width:16; stroke-opacity:1; fill:none" stroke-dasharray="8, 16" points="
  218.439,1112.3 228.852,1106.76 239.264,1094.69 249.677,1080.03 260.09,1067.75 270.503,1062.52 280.916,1067.64 291.329,1084.44 301.741,1111.67 312.154,1145 
  322.567,1178.12 332.98,1206.13 343.393,1228.88 353.805,1251.05 364.218,1278.25 374.631,1312.25 385.044,1349.38 395.457,1382.99 405.87,1407.6 416.282,1421.53 
  426.695,1426.66 437.108,1426.46 447.521,1423.69 457.934,1418.72 468.347,1409.24 478.759,1391.83 489.172,1365.62 499.585,1335.51 509.998,1309.66 520.411,1290.16 
  530.824,1268.32 541.236,1234.84 551.649,1191.92 562.062,1150.4 572.475,1118.69 582.888,1098.07 593.301,1085.59 603.713,1078.07 614.126,1073.74 624.539,1072.11 
  634.952,1073.9 645.365,1080.77 655.777,1094.48 666.19,1115.56 676.603,1142.74 687.016,1173.63 697.429,1205.86 707.842,1237.88 718.254,1269.03 728.667,1299.19 
  739.08,1328.34 749.493,1356.18 759.906,1381.89 770.319,1403.99 780.731,1420.64 791.144,1430.16 801.557,1431.86 811.97,1426.6 822.383,1416.37 832.796,1402.89 
  843.208,1386.07 853.621,1364.27 864.034,1336.41 874.447,1304.02 884.86,1270.75 895.273,1239.78 905.685,1211.55 916.098,1184.07 926.511,1155.34 936.924,1125.69 
  947.337,1098.12 957.749,1076.7 968.162,1064.42 978.575,1061.96 988.988,1067.84 999.401,1079.52 1009.81,1094.64 1020.23,1111.76 1030.64,1130.56 1041.05,1151.55 
  1051.46,1175.6 1061.88,1203.45 1072.29,1235.26 1082.7,1270.38 1093.12,1307.15 1103.53,1343.05 1113.94,1375.01 1124.35,1399.98 1134.77,1415.72 1145.18,1421.55 
  1155.59,1418.89 1166.01,1411.51 1176.42,1405.25 1186.83,1406.93 1197.24,1421.07 1207.66,1442.47 1218.07,1445.72 1228.48,1381.88 1238.9,1203.9 1249.31,920.683 
  1259.72,619.543 1270.13,402.913 1280.55,307.05 1290.96,298.481 1301.37,324.785 1311.79,350.185 1322.2,360.508 1332.61,355.454 1343.02,341.012 1353.44,324.774 
  1363.85,313.297 1374.26,310.604 1384.68,317.529 1395.09,331.925 1405.5,349.613 1415.91,365.72 1426.33,375.941 1436.74,377.46 1447.15,369.438 1457.57,353.152 
  1467.98,331.841 1478.39,310.291 1488.8,294.088 1499.22,288.505 1509.63,297.031 1520.04,319.794 1530.45,352.439 1540.87,386.298 1551.28,410.498 1561.69,415.743 
  1572.11,398.197 1582.52,361.379 1592.93,315.125 1603.34,272.508 1613.76,246.309 1624.17,245.875 1634.58,274.381 1645,326.636 1655.41,388.639 1665.82,440.55 
  1676.23,463.518 1686.65,447.741 1697.06,397.135 1707.47,327.819 1717.89,261.773 1728.3,219.226 1738.71,212.559 1749.12,243.132 1759.54,301.533 1769.95,370.899 
  1780.36,432.036 1790.78,468.61 1801.19,471.01 1811.6,438.231 1822.01,377.829 1832.43,304.373 1842.84,236.779 1853.25,194.397 1863.67,191.649 1874.08,232.407 
  1884.49,307.227 1894.9,395.935 1905.32,474.211 1915.73,520.168 1926.14,518.411 1936.56,462.789 1946.97,360.302 1957.38,235.882 1967.79,132.174 1978.21,95.6797 
  1988.62,149.827 1999.03,274.854 2009.45,417.01 2019.86,521.132 2030.27,557.845 2040.68,528.637 2051.1,454.631 2061.51,362.259 2071.92,274.084 2082.33,206.033 
  2092.75,168.3 2103.16,167.006 2113.57,204.818 2123.99,279.721 2134.4,381.475 2144.81,487.034 2155.22,560.601 2165.64,566.615 2176.05,493.019 2186.46,364.246 
  2196.88,229.482 2207.29,137.272 2217.7,114.327 2228.11,157.45 2238.53,241.328 2248.94,335.822 2259.35,419.843 2269.77,485.054 2280.18,532.347 2290.59,566.578 
  
  "/>
<polyline clip-path="url(#clip672)" style="stroke:#e26f46; stroke-linecap:round; stroke-linejoin:round; stroke-width:4; stroke-opacity:1; fill:none" points="
  218.439,1112.33 228.852,1092.98 239.264,1078.71 249.677,1070 260.09,1067.11 270.503,1070.15 280.916,1079.02 291.329,1093.43 301.741,1112.9 312.154,1136.81 
  322.567,1164.37 332.98,1194.68 343.393,1226.76 353.805,1259.55 364.218,1291.99 374.631,1323.02 385.044,1351.62 395.457,1376.86 405.87,1397.92 416.282,1414.11 
  426.695,1424.91 437.108,1429.95 447.521,1429.07 457.934,1422.31 468.347,1409.89 478.759,1392.2 489.172,1369.83 499.585,1343.51 509.998,1314.1 520.411,1282.55 
  530.824,1249.89 541.236,1217.2 551.649,1185.54 562.062,1155.93 572.475,1129.36 582.888,1106.68 593.301,1088.64 603.713,1075.82 614.126,1068.64 624.539,1067.34 
  634.952,1071.96 645.365,1082.35 655.777,1098.17 666.19,1118.9 676.603,1143.87 687.016,1172.26 697.429,1203.15 707.842,1235.52 718.254,1268.32 728.667,1300.49 
  739.08,1330.96 749.493,1358.75 759.906,1382.95 770.319,1402.76 780.731,1417.55 791.144,1426.83 801.557,1430.3 811.97,1427.83 822.383,1419.53 832.796,1405.65 
  843.208,1386.64 853.621,1363.14 864.034,1335.9 874.447,1305.81 884.86,1273.86 895.273,1241.09 905.685,1208.57 916.098,1177.36 926.511,1148.48 936.924,1122.87 
  947.337,1101.36 957.749,1084.67 968.162,1073.33 978.575,1067.71 988.988,1068 999.401,1074.19 1009.81,1086.08 1020.23,1103.27 1030.64,1125.21 1041.05,1151.18 
  1051.46,1180.33 1061.88,1211.72 1072.29,1244.31 1082.7,1277.05 1093.12,1308.86 1103.53,1338.71 1113.94,1365.62 1124.35,1388.72 1134.77,1407.24 1145.18,1420.59 
  1155.59,1428.34 1166.01,1430.22 1176.42,1426.17 1186.83,1416.34 1197.24,1401.03 1207.66,1380.76 1218.07,1356.17 1228.48,1328.07 1238.9,1297.39 1249.31,1265.12 
  1259.72,339.373 1270.13,337.873 1280.55,339.238 1290.96,343.785 1301.37,350.12 1311.79,355.565 1322.2,357.178 1332.61,352.988 1343.02,343 1353.44,329.534 
  1363.85,316.721 1374.26,309.236 1384.68,310.672 1395.09,322.092 1405.5,341.302 1415.91,363.164 1426.33,380.967 1436.74,388.476 1447.15,382.048 1457.57,362.102 
  1467.98,333.414 1478.39,304.012 1488.8,282.94 1499.22,277.481 1509.63,290.715 1520.04,320.196 1530.45,358.272 1540.87,394.038 1551.28,416.47 1561.69,417.799 
  1572.11,396.127 1582.52,356.41 1592.93,309.395 1603.34,268.727 1613.76,246.988 1624.17,251.822 1634.58,283.339 1645,333.655 1655.41,388.815 1665.82,432.66 
  1676.23,451.564 1686.65,438.637 1697.06,396.13 1707.47,335.204 1717.89,273.031 1728.3,227.951 1738.71,214.067 1749.12,236.865 1759.54,291.203 1769.95,362.387 
  1780.36,430.129 1790.78,474.324 1801.19,481.018 1811.6,446.774 1822.01,380.094 1832.43,299.363 1842.84,227.788 1853.25,186.726 1863.67,189.322 1874.08,236.343 
  1884.49,315.522 1894.9,404.73 1905.32,478.15 1915.73,513.752 1926.14,499.888 1936.56,439.052 1946.97,347.584 1957.38,251.31 1967.79,178.247 1978.21,150.454 
  1988.62,177.388 1999.03,252.758 2009.45,355.926 2019.86,457.535 2030.27,527.868 2040.68,545.535 2051.1,503.955 2061.51,413.685 2071.92,299.784 2082.33,194.863 
  2092.75,129.75 2103.16,124.439 2113.57,181.971 2123.99,287.128 2134.4,410.427 2144.81,516.383 2155.22,573.717 2165.64,564.588 2176.05,490.111 2186.46,370.468 
  2196.88,239.461 2207.29,134.965 2217.7,87.9763 2228.11,113.431 2238.53,205.498 2248.94,338.828 2259.35,475.52 2269.77,575.899 2280.18,610.021 2290.59,566.601 
  
  "/>
<path clip-path="url(#clip670)" d="
M229.49 250.738 L700.371 250.738 L700.371 95.2176 L229.49 95.2176  Z
  " fill="#ffffff" fill-rule="evenodd" fill-opacity="1"/>
<polyline clip-path="url(#clip670)" style="stroke:#000000; stroke-linecap:round; stroke-linejoin:round; stroke-width:4; stroke-opacity:1; fill:none" points="
  229.49,250.738 700.371,250.738 700.371,95.2176 229.49,95.2176 229.49,250.738 
  "/>
<polyline clip-path="url(#clip670)" style="stroke:#009af9; stroke-linecap:round; stroke-linejoin:round; stroke-width:4; stroke-opacity:1; fill:none" stroke-dasharray="2, 4" points="
  253.896,147.058 400.328,147.058 
  "/>
<path clip-path="url(#clip670)" d="M429.409 133.62 L429.409 146.606 L435.289 146.606 Q438.552 146.606 440.335 144.916 Q442.117 143.227 442.117 140.102 Q442.117 137 440.335 135.31 Q438.552 133.62 435.289 133.62 L429.409 133.62 M424.733 129.778 L435.289 129.778 Q441.099 129.778 444.062 132.416 Q447.048 135.032 447.048 140.102 Q447.048 145.217 444.062 147.833 Q441.099 150.449 435.289 150.449 L429.409 150.449 L429.409 164.338 L424.733 164.338 L424.733 129.778 Z" fill="#000000" fill-rule="evenodd" fill-opacity="1" /><path clip-path="url(#clip670)" d="M467.325 142.393 Q466.608 141.977 465.751 141.791 Q464.918 141.583 463.899 141.583 Q460.288 141.583 458.344 143.944 Q456.423 146.282 456.423 150.68 L456.423 164.338 L452.14 164.338 L452.14 138.412 L456.423 138.412 L456.423 142.44 Q457.765 140.078 459.918 138.944 Q462.071 137.787 465.149 137.787 Q465.589 137.787 466.122 137.856 Q466.654 137.903 467.302 138.018 L467.325 142.393 Z" fill="#000000" fill-rule="evenodd" fill-opacity="1" /><path clip-path="url(#clip670)" d="M492.927 150.31 L492.927 152.393 L473.344 152.393 Q473.622 156.791 475.983 159.106 Q478.367 161.398 482.603 161.398 Q485.057 161.398 487.348 160.796 Q489.663 160.194 491.932 158.99 L491.932 163.018 Q489.64 163.99 487.233 164.5 Q484.825 165.009 482.348 165.009 Q476.145 165.009 472.511 161.398 Q468.899 157.787 468.899 151.629 Q468.899 145.264 472.325 141.537 Q475.774 137.787 481.608 137.787 Q486.839 137.787 489.872 141.166 Q492.927 144.523 492.927 150.31 M488.668 149.06 Q488.622 145.565 486.7 143.481 Q484.802 141.398 481.654 141.398 Q478.089 141.398 475.936 143.412 Q473.807 145.426 473.483 149.083 L488.668 149.06 Z" fill="#000000" fill-rule="evenodd" fill-opacity="1" /><path clip-path="url(#clip670)" d="M516.978 142.347 L516.978 128.319 L521.237 128.319 L521.237 164.338 L516.978 164.338 L516.978 160.449 Q515.635 162.763 513.575 163.898 Q511.538 165.009 508.668 165.009 Q503.969 165.009 501.006 161.259 Q498.066 157.509 498.066 151.398 Q498.066 145.287 501.006 141.537 Q503.969 137.787 508.668 137.787 Q511.538 137.787 513.575 138.921 Q515.635 140.032 516.978 142.347 M502.464 151.398 Q502.464 156.097 504.385 158.782 Q506.33 161.444 509.709 161.444 Q513.089 161.444 515.033 158.782 Q516.978 156.097 516.978 151.398 Q516.978 146.699 515.033 144.037 Q513.089 141.352 509.709 141.352 Q506.33 141.352 504.385 144.037 Q502.464 146.699 502.464 151.398 Z" fill="#000000" fill-rule="evenodd" fill-opacity="1" /><path clip-path="url(#clip670)" d="M530.01 138.412 L534.269 138.412 L534.269 164.338 L530.01 164.338 L530.01 138.412 M530.01 128.319 L534.269 128.319 L534.269 133.713 L530.01 133.713 L530.01 128.319 Z" fill="#000000" fill-rule="evenodd" fill-opacity="1" /><path clip-path="url(#clip670)" d="M561.839 139.407 L561.839 143.389 Q560.033 142.393 558.205 141.907 Q556.399 141.398 554.547 141.398 Q550.404 141.398 548.112 144.037 Q545.82 146.652 545.82 151.398 Q545.82 156.143 548.112 158.782 Q550.404 161.398 554.547 161.398 Q556.399 161.398 558.205 160.912 Q560.033 160.402 561.839 159.407 L561.839 163.342 Q560.056 164.176 558.135 164.592 Q556.237 165.009 554.084 165.009 Q548.228 165.009 544.779 161.328 Q541.33 157.648 541.33 151.398 Q541.33 145.055 544.802 141.421 Q548.297 137.787 554.362 137.787 Q556.33 137.787 558.205 138.203 Q560.08 138.597 561.839 139.407 Z" fill="#000000" fill-rule="evenodd" fill-opacity="1" /><path clip-path="url(#clip670)" d="M573.459 131.051 L573.459 138.412 L582.232 138.412 L582.232 141.722 L573.459 141.722 L573.459 155.796 Q573.459 158.967 574.316 159.87 Q575.195 160.773 577.857 160.773 L582.232 160.773 L582.232 164.338 L577.857 164.338 Q572.927 164.338 571.052 162.509 Q569.177 160.657 569.177 155.796 L569.177 141.722 L566.052 141.722 L566.052 138.412 L569.177 138.412 L569.177 131.051 L573.459 131.051 Z" fill="#000000" fill-rule="evenodd" fill-opacity="1" /><path clip-path="url(#clip670)" d="M587.834 138.412 L592.093 138.412 L592.093 164.338 L587.834 164.338 L587.834 138.412 M587.834 128.319 L592.093 128.319 L592.093 133.713 L587.834 133.713 L587.834 128.319 Z" fill="#000000" fill-rule="evenodd" fill-opacity="1" /><path clip-path="url(#clip670)" d="M611.051 141.398 Q607.626 141.398 605.635 144.083 Q603.644 146.745 603.644 151.398 Q603.644 156.051 605.612 158.736 Q607.602 161.398 611.051 161.398 Q614.454 161.398 616.445 158.713 Q618.436 156.027 618.436 151.398 Q618.436 146.791 616.445 144.106 Q614.454 141.398 611.051 141.398 M611.051 137.787 Q616.607 137.787 619.778 141.398 Q622.95 145.009 622.95 151.398 Q622.95 157.764 619.778 161.398 Q616.607 165.009 611.051 165.009 Q605.473 165.009 602.302 161.398 Q599.153 157.764 599.153 151.398 Q599.153 145.009 602.302 141.398 Q605.473 137.787 611.051 137.787 Z" fill="#000000" fill-rule="evenodd" fill-opacity="1" /><path clip-path="url(#clip670)" d="M651.561 148.689 L651.561 164.338 L647.301 164.338 L647.301 148.828 Q647.301 145.148 645.866 143.319 Q644.431 141.49 641.561 141.49 Q638.112 141.49 636.121 143.69 Q634.13 145.889 634.13 149.685 L634.13 164.338 L629.848 164.338 L629.848 138.412 L634.13 138.412 L634.13 142.44 Q635.658 140.102 637.718 138.944 Q639.801 137.787 642.51 137.787 Q646.977 137.787 649.269 140.565 Q651.561 143.319 651.561 148.689 Z" fill="#000000" fill-rule="evenodd" fill-opacity="1" /><polyline clip-path="url(#clip670)" style="stroke:#e26f46; stroke-linecap:round; stroke-linejoin:round; stroke-width:4; stroke-opacity:1; fill:none" points="
  253.896,198.898 400.328,198.898 
  "/>
<path clip-path="url(#clip670)" d="M424.733 181.618 L446.585 181.618 L446.585 185.553 L429.409 185.553 L429.409 195.784 L445.867 195.784 L445.867 199.719 L429.409 199.719 L429.409 212.242 L447.001 212.242 L447.001 216.178 L424.733 216.178 L424.733 181.618 Z" fill="#000000" fill-rule="evenodd" fill-opacity="1" /><path clip-path="url(#clip670)" d="M476.052 190.252 L466.677 202.867 L476.538 216.178 L471.515 216.178 L463.969 205.992 L456.423 216.178 L451.4 216.178 L461.469 202.613 L452.256 190.252 L457.279 190.252 L464.154 199.488 L471.029 190.252 L476.052 190.252 Z" fill="#000000" fill-rule="evenodd" fill-opacity="1" /><path clip-path="url(#clip670)" d="M494.339 203.145 Q489.177 203.145 487.186 204.326 Q485.196 205.506 485.196 208.354 Q485.196 210.622 486.677 211.965 Q488.182 213.284 490.751 213.284 Q494.293 213.284 496.422 210.784 Q498.575 208.261 498.575 204.094 L498.575 203.145 L494.339 203.145 M502.834 201.386 L502.834 216.178 L498.575 216.178 L498.575 212.242 Q497.117 214.603 494.941 215.738 Q492.765 216.849 489.617 216.849 Q485.635 216.849 483.274 214.627 Q480.936 212.381 480.936 208.631 Q480.936 204.256 483.853 202.034 Q486.793 199.812 492.603 199.812 L498.575 199.812 L498.575 199.395 Q498.575 196.455 496.631 194.858 Q494.71 193.238 491.214 193.238 Q488.992 193.238 486.885 193.77 Q484.779 194.303 482.835 195.367 L482.835 191.432 Q485.173 190.53 487.372 190.09 Q489.571 189.627 491.654 189.627 Q497.279 189.627 500.057 192.543 Q502.834 195.46 502.834 201.386 Z" fill="#000000" fill-rule="evenodd" fill-opacity="1" /><path clip-path="url(#clip670)" d="M530.265 191.247 L530.265 195.229 Q528.459 194.233 526.631 193.747 Q524.825 193.238 522.973 193.238 Q518.83 193.238 516.538 195.877 Q514.246 198.492 514.246 203.238 Q514.246 207.983 516.538 210.622 Q518.83 213.238 522.973 213.238 Q524.825 213.238 526.631 212.752 Q528.459 212.242 530.265 211.247 L530.265 215.182 Q528.482 216.016 526.561 216.432 Q524.663 216.849 522.51 216.849 Q516.654 216.849 513.205 213.168 Q509.756 209.488 509.756 203.238 Q509.756 196.895 513.228 193.261 Q516.723 189.627 522.788 189.627 Q524.756 189.627 526.631 190.043 Q528.506 190.437 530.265 191.247 Z" fill="#000000" fill-rule="evenodd" fill-opacity="1" /><path clip-path="url(#clip670)" d="M541.885 182.891 L541.885 190.252 L550.658 190.252 L550.658 193.562 L541.885 193.562 L541.885 207.636 Q541.885 210.807 542.742 211.71 Q543.621 212.613 546.283 212.613 L550.658 212.613 L550.658 216.178 L546.283 216.178 Q541.353 216.178 539.478 214.349 Q537.603 212.497 537.603 207.636 L537.603 193.562 L534.478 193.562 L534.478 190.252 L537.603 190.252 L537.603 182.891 L541.885 182.891 Z" fill="#000000" fill-rule="evenodd" fill-opacity="1" /></svg>
