<?xml version="1.0" encoding="utf-8"?>
<svg xmlns="http://www.w3.org/2000/svg" xmlns:xlink="http://www.w3.org/1999/xlink" width="600" height="400" viewBox="0 0 2400 1600">
<defs>
  <clipPath id="clip930">
    <rect x="0" y="0" width="2400" height="1600"/>
  </clipPath>
</defs>
<path clip-path="url(#clip930)" d="M0 1600 L2400 1600 L2400 0 L0 0  Z" fill="#ffffff" fill-rule="evenodd" fill-opacity="1"/>
<defs>
  <clipPath id="clip931">
    <rect x="480" y="0" width="1681" height="1600"/>
  </clipPath>
</defs>
<path clip-path="url(#clip930)" d="M192.339 1486.45 L2352.76 1486.45 L2352.76 47.2441 L192.339 47.2441  Z" fill="#ffffff" fill-rule="evenodd" fill-opacity="1"/>
<defs>
  <clipPath id="clip932">
    <rect x="192" y="47" width="2161" height="1440"/>
  </clipPath>
</defs>
<polyline clip-path="url(#clip932)" style="stroke:#000000; stroke-linecap:round; stroke-linejoin:round; stroke-width:2; stroke-opacity:0.1; fill:none" points="253.483,1486.45 253.483,47.2441 "/>
<polyline clip-path="url(#clip932)" style="stroke:#000000; stroke-linecap:round; stroke-linejoin:round; stroke-width:2; stroke-opacity:0.1; fill:none" points="763.015,1486.45 763.015,47.2441 "/>
<polyline clip-path="url(#clip932)" style="stroke:#000000; stroke-linecap:round; stroke-linejoin:round; stroke-width:2; stroke-opacity:0.1; fill:none" points="1272.55,1486.45 1272.55,47.2441 "/>
<polyline clip-path="url(#clip932)" style="stroke:#000000; stroke-linecap:round; stroke-linejoin:round; stroke-width:2; stroke-opacity:0.1; fill:none" points="1782.08,1486.45 1782.08,47.2441 "/>
<polyline clip-path="url(#clip932)" style="stroke:#000000; stroke-linecap:round; stroke-linejoin:round; stroke-width:2; stroke-opacity:0.1; fill:none" points="2291.61,1486.45 2291.61,47.2441 "/>
<polyline clip-path="url(#clip930)" style="stroke:#000000; stroke-linecap:round; stroke-linejoin:round; stroke-width:4; stroke-opacity:1; fill:none" points="192.339,1486.45 2352.76,1486.45 "/>
<polyline clip-path="url(#clip930)" style="stroke:#000000; stroke-linecap:round; stroke-linejoin:round; stroke-width:4; stroke-opacity:1; fill:none" points="253.483,1486.45 253.483,1467.55 "/>
<polyline clip-path="url(#clip930)" style="stroke:#000000; stroke-linecap:round; stroke-linejoin:round; stroke-width:4; stroke-opacity:1; fill:none" points="763.015,1486.45 763.015,1467.55 "/>
<polyline clip-path="url(#clip930)" style="stroke:#000000; stroke-linecap:round; stroke-linejoin:round; stroke-width:4; stroke-opacity:1; fill:none" points="1272.55,1486.45 1272.55,1467.55 "/>
<polyline clip-path="url(#clip930)" style="stroke:#000000; stroke-linecap:round; stroke-linejoin:round; stroke-width:4; stroke-opacity:1; fill:none" points="1782.08,1486.45 1782.08,1467.55 "/>
<polyline clip-path="url(#clip930)" style="stroke:#000000; stroke-linecap:round; stroke-linejoin:round; stroke-width:4; stroke-opacity:1; fill:none" points="2291.61,1486.45 2291.61,1467.55 "/>
<path clip-path="url(#clip930)" d="M200.011 1532.02 L229.686 1532.02 L229.686 1535.95 L200.011 1535.95 L200.011 1532.02 Z" fill="#000000" fill-rule="nonzero" fill-opacity="1" /><path clip-path="url(#clip930)" d="M240.589 1544.91 L248.228 1544.91 L248.228 1518.55 L239.918 1520.21 L239.918 1515.95 L248.182 1514.29 L252.858 1514.29 L252.858 1544.91 L260.497 1544.91 L260.497 1548.85 L240.589 1548.85 L240.589 1544.91 Z" fill="#000000" fill-rule="nonzero" fill-opacity="1" /><path clip-path="url(#clip930)" d="M269.941 1542.97 L274.825 1542.97 L274.825 1548.85 L269.941 1548.85 L269.941 1542.97 Z" fill="#000000" fill-rule="nonzero" fill-opacity="1" /><path clip-path="url(#clip930)" d="M295.01 1517.37 Q291.399 1517.37 289.57 1520.93 Q287.765 1524.47 287.765 1531.6 Q287.765 1538.71 289.57 1542.27 Q291.399 1545.82 295.01 1545.82 Q298.644 1545.82 300.45 1542.27 Q302.279 1538.71 302.279 1531.6 Q302.279 1524.47 300.45 1520.93 Q298.644 1517.37 295.01 1517.37 M295.01 1513.66 Q300.82 1513.66 303.876 1518.27 Q306.955 1522.85 306.955 1531.6 Q306.955 1540.33 303.876 1544.94 Q300.82 1549.52 295.01 1549.52 Q289.2 1549.52 286.121 1544.94 Q283.066 1540.33 283.066 1531.6 Q283.066 1522.85 286.121 1518.27 Q289.2 1513.66 295.01 1513.66 Z" fill="#000000" fill-rule="nonzero" fill-opacity="1" /><path clip-path="url(#clip930)" d="M710.041 1532.02 L739.717 1532.02 L739.717 1535.95 L710.041 1535.95 L710.041 1532.02 Z" fill="#000000" fill-rule="nonzero" fill-opacity="1" /><path clip-path="url(#clip930)" d="M759.809 1517.37 Q756.198 1517.37 754.369 1520.93 Q752.564 1524.47 752.564 1531.6 Q752.564 1538.71 754.369 1542.27 Q756.198 1545.82 759.809 1545.82 Q763.443 1545.82 765.249 1542.27 Q767.077 1538.71 767.077 1531.6 Q767.077 1524.47 765.249 1520.93 Q763.443 1517.37 759.809 1517.37 M759.809 1513.66 Q765.619 1513.66 768.675 1518.27 Q771.753 1522.85 771.753 1531.6 Q771.753 1540.33 768.675 1544.94 Q765.619 1549.52 759.809 1549.52 Q753.999 1549.52 750.92 1544.94 Q747.865 1540.33 747.865 1531.6 Q747.865 1522.85 750.92 1518.27 Q753.999 1513.66 759.809 1513.66 Z" fill="#000000" fill-rule="nonzero" fill-opacity="1" /><path clip-path="url(#clip930)" d="M779.971 1542.97 L784.855 1542.97 L784.855 1548.85 L779.971 1548.85 L779.971 1542.97 Z" fill="#000000" fill-rule="nonzero" fill-opacity="1" /><path clip-path="url(#clip930)" d="M795.087 1514.29 L813.443 1514.29 L813.443 1518.22 L799.369 1518.22 L799.369 1526.7 Q800.387 1526.35 801.406 1526.19 Q802.425 1526 803.443 1526 Q809.23 1526 812.61 1529.17 Q815.989 1532.34 815.989 1537.76 Q815.989 1543.34 812.517 1546.44 Q809.045 1549.52 802.725 1549.52 Q800.55 1549.52 798.281 1549.15 Q796.036 1548.78 793.628 1548.04 L793.628 1543.34 Q795.712 1544.47 797.934 1545.03 Q800.156 1545.58 802.633 1545.58 Q806.637 1545.58 808.975 1543.48 Q811.313 1541.37 811.313 1537.76 Q811.313 1534.15 808.975 1532.04 Q806.637 1529.94 802.633 1529.94 Q800.758 1529.94 798.883 1530.35 Q797.031 1530.77 795.087 1531.65 L795.087 1514.29 Z" fill="#000000" fill-rule="nonzero" fill-opacity="1" /><path clip-path="url(#clip930)" d="M1249.93 1517.37 Q1246.32 1517.37 1244.49 1520.93 Q1242.69 1524.47 1242.69 1531.6 Q1242.69 1538.71 1244.49 1542.27 Q1246.32 1545.82 1249.93 1545.82 Q1253.57 1545.82 1255.37 1542.27 Q1257.2 1538.71 1257.2 1531.6 Q1257.2 1524.47 1255.37 1520.93 Q1253.57 1517.37 1249.93 1517.37 M1249.93 1513.66 Q1255.74 1513.66 1258.8 1518.27 Q1261.88 1522.85 1261.88 1531.6 Q1261.88 1540.33 1258.8 1544.94 Q1255.74 1549.52 1249.93 1549.52 Q1244.12 1549.52 1241.04 1544.94 Q1237.99 1540.33 1237.99 1531.6 Q1237.99 1522.85 1241.04 1518.27 Q1244.12 1513.66 1249.93 1513.66 Z" fill="#000000" fill-rule="nonzero" fill-opacity="1" /><path clip-path="url(#clip930)" d="M1270.09 1542.97 L1274.98 1542.97 L1274.98 1548.85 L1270.09 1548.85 L1270.09 1542.97 Z" fill="#000000" fill-rule="nonzero" fill-opacity="1" /><path clip-path="url(#clip930)" d="M1295.16 1517.37 Q1291.55 1517.37 1289.72 1520.93 Q1287.92 1524.47 1287.92 1531.6 Q1287.92 1538.71 1289.72 1542.27 Q1291.55 1545.82 1295.16 1545.82 Q1298.8 1545.82 1300.6 1542.27 Q1302.43 1538.71 1302.43 1531.6 Q1302.43 1524.47 1300.6 1520.93 Q1298.8 1517.37 1295.16 1517.37 M1295.16 1513.66 Q1300.97 1513.66 1304.03 1518.27 Q1307.11 1522.85 1307.11 1531.6 Q1307.11 1540.33 1304.03 1544.94 Q1300.97 1549.52 1295.16 1549.52 Q1289.35 1549.52 1286.27 1544.94 Q1283.22 1540.33 1283.22 1531.6 Q1283.22 1522.85 1286.27 1518.27 Q1289.35 1513.66 1295.16 1513.66 Z" fill="#000000" fill-rule="nonzero" fill-opacity="1" /><path clip-path="url(#clip930)" d="M1759.96 1517.37 Q1756.35 1517.37 1754.52 1520.93 Q1752.72 1524.47 1752.72 1531.6 Q1752.72 1538.71 1754.52 1542.27 Q1756.35 1545.82 1759.96 1545.82 Q1763.6 1545.82 1765.4 1542.27 Q1767.23 1538.71 1767.23 1531.6 Q1767.23 1524.47 1765.4 1520.93 Q1763.6 1517.37 1759.96 1517.37 M1759.96 1513.66 Q1765.77 1513.66 1768.83 1518.27 Q1771.91 1522.85 1771.91 1531.6 Q1771.91 1540.33 1768.83 1544.94 Q1765.77 1549.52 1759.96 1549.52 Q1754.15 1549.52 1751.07 1544.94 Q1748.02 1540.33 1748.02 1531.6 Q1748.02 1522.85 1751.07 1518.27 Q1754.15 1513.66 1759.96 1513.66 Z" fill="#000000" fill-rule="nonzero" fill-opacity="1" /><path clip-path="url(#clip930)" d="M1780.12 1542.97 L1785.01 1542.97 L1785.01 1548.85 L1780.12 1548.85 L1780.12 1542.97 Z" fill="#000000" fill-rule="nonzero" fill-opacity="1" /><path clip-path="url(#clip930)" d="M1795.24 1514.29 L1813.6 1514.29 L1813.6 1518.22 L1799.52 1518.22 L1799.52 1526.7 Q1800.54 1526.35 1801.56 1526.19 Q1802.58 1526 1803.6 1526 Q1809.38 1526 1812.76 1529.17 Q1816.14 1532.34 1816.14 1537.76 Q1816.14 1543.34 1812.67 1546.44 Q1809.2 1549.52 1802.88 1549.52 Q1800.7 1549.52 1798.43 1549.15 Q1796.19 1548.78 1793.78 1548.04 L1793.78 1543.34 Q1795.86 1544.47 1798.09 1545.03 Q1800.31 1545.58 1802.79 1545.58 Q1806.79 1545.58 1809.13 1543.48 Q1811.47 1541.37 1811.47 1537.76 Q1811.47 1534.15 1809.13 1532.04 Q1806.79 1529.94 1802.79 1529.94 Q1800.91 1529.94 1799.04 1530.35 Q1797.18 1530.77 1795.24 1531.65 L1795.24 1514.29 Z" fill="#000000" fill-rule="nonzero" fill-opacity="1" /><path clip-path="url(#clip930)" d="M2258.76 1544.91 L2266.4 1544.91 L2266.4 1518.55 L2258.09 1520.21 L2258.09 1515.95 L2266.36 1514.29 L2271.03 1514.29 L2271.03 1544.91 L2278.67 1544.91 L2278.67 1548.85 L2258.76 1548.85 L2258.76 1544.91 Z" fill="#000000" fill-rule="nonzero" fill-opacity="1" /><path clip-path="url(#clip930)" d="M2288.12 1542.97 L2293 1542.97 L2293 1548.85 L2288.12 1548.85 L2288.12 1542.97 Z" fill="#000000" fill-rule="nonzero" fill-opacity="1" /><path clip-path="url(#clip930)" d="M2313.19 1517.37 Q2309.57 1517.37 2307.75 1520.93 Q2305.94 1524.47 2305.94 1531.6 Q2305.94 1538.71 2307.75 1542.27 Q2309.57 1545.82 2313.19 1545.82 Q2316.82 1545.82 2318.63 1542.27 Q2320.45 1538.71 2320.45 1531.6 Q2320.45 1524.47 2318.63 1520.93 Q2316.82 1517.37 2313.19 1517.37 M2313.19 1513.66 Q2319 1513.66 2322.05 1518.27 Q2325.13 1522.85 2325.13 1531.6 Q2325.13 1540.33 2322.05 1544.94 Q2319 1549.52 2313.19 1549.52 Q2307.38 1549.52 2304.3 1544.94 Q2301.24 1540.33 2301.24 1531.6 Q2301.24 1522.85 2304.3 1518.27 Q2307.38 1513.66 2313.19 1513.66 Z" fill="#000000" fill-rule="nonzero" fill-opacity="1" /><polyline clip-path="url(#clip932)" style="stroke:#000000; stroke-linecap:round; stroke-linejoin:round; stroke-width:2; stroke-opacity:0.1; fill:none" points="192.339,1397.82 2352.76,1397.82 "/>
<polyline clip-path="url(#clip932)" style="stroke:#000000; stroke-linecap:round; stroke-linejoin:round; stroke-width:2; stroke-opacity:0.1; fill:none" points="192.339,1220.61 2352.76,1220.61 "/>
<polyline clip-path="url(#clip932)" style="stroke:#000000; stroke-linecap:round; stroke-linejoin:round; stroke-width:2; stroke-opacity:0.1; fill:none" points="192.339,1043.41 2352.76,1043.41 "/>
<polyline clip-path="url(#clip932)" style="stroke:#000000; stroke-linecap:round; stroke-linejoin:round; stroke-width:2; stroke-opacity:0.1; fill:none" points="192.339,866.199 2352.76,866.199 "/>
<polyline clip-path="url(#clip932)" style="stroke:#000000; stroke-linecap:round; stroke-linejoin:round; stroke-width:2; stroke-opacity:0.1; fill:none" points="192.339,688.991 2352.76,688.991 "/>
<polyline clip-path="url(#clip932)" style="stroke:#000000; stroke-linecap:round; stroke-linejoin:round; stroke-width:2; stroke-opacity:0.1; fill:none" points="192.339,511.783 2352.76,511.783 "/>
<polyline clip-path="url(#clip932)" style="stroke:#000000; stroke-linecap:round; stroke-linejoin:round; stroke-width:2; stroke-opacity:0.1; fill:none" points="192.339,334.575 2352.76,334.575 "/>
<polyline clip-path="url(#clip932)" style="stroke:#000000; stroke-linecap:round; stroke-linejoin:round; stroke-width:2; stroke-opacity:0.1; fill:none" points="192.339,157.366 2352.76,157.366 "/>
<polyline clip-path="url(#clip930)" style="stroke:#000000; stroke-linecap:round; stroke-linejoin:round; stroke-width:4; stroke-opacity:1; fill:none" points="192.339,1486.45 192.339,47.2441 "/>
<polyline clip-path="url(#clip930)" style="stroke:#000000; stroke-linecap:round; stroke-linejoin:round; stroke-width:4; stroke-opacity:1; fill:none" points="192.339,1397.82 211.236,1397.82 "/>
<polyline clip-path="url(#clip930)" style="stroke:#000000; stroke-linecap:round; stroke-linejoin:round; stroke-width:4; stroke-opacity:1; fill:none" points="192.339,1220.61 211.236,1220.61 "/>
<polyline clip-path="url(#clip930)" style="stroke:#000000; stroke-linecap:round; stroke-linejoin:round; stroke-width:4; stroke-opacity:1; fill:none" points="192.339,1043.41 211.236,1043.41 "/>
<polyline clip-path="url(#clip930)" style="stroke:#000000; stroke-linecap:round; stroke-linejoin:round; stroke-width:4; stroke-opacity:1; fill:none" points="192.339,866.199 211.236,866.199 "/>
<polyline clip-path="url(#clip930)" style="stroke:#000000; stroke-linecap:round; stroke-linejoin:round; stroke-width:4; stroke-opacity:1; fill:none" points="192.339,688.991 211.236,688.991 "/>
<polyline clip-path="url(#clip930)" style="stroke:#000000; stroke-linecap:round; stroke-linejoin:round; stroke-width:4; stroke-opacity:1; fill:none" points="192.339,511.783 211.236,511.783 "/>
<polyline clip-path="url(#clip930)" style="stroke:#000000; stroke-linecap:round; stroke-linejoin:round; stroke-width:4; stroke-opacity:1; fill:none" points="192.339,334.575 211.236,334.575 "/>
<polyline clip-path="url(#clip930)" style="stroke:#000000; stroke-linecap:round; stroke-linejoin:round; stroke-width:4; stroke-opacity:1; fill:none" points="192.339,157.366 211.236,157.366 "/>
<path clip-path="url(#clip930)" d="M50.9921 1398.27 L80.6679 1398.27 L80.6679 1402.21 L50.9921 1402.21 L50.9921 1398.27 Z" fill="#000000" fill-rule="nonzero" fill-opacity="1" /><path clip-path="url(#clip930)" d="M100.76 1383.62 Q97.1493 1383.62 95.3206 1387.19 Q93.515 1390.73 93.515 1397.86 Q93.515 1404.96 95.3206 1408.53 Q97.1493 1412.07 100.76 1412.07 Q104.395 1412.07 106.2 1408.53 Q108.029 1404.96 108.029 1397.86 Q108.029 1390.73 106.2 1387.19 Q104.395 1383.62 100.76 1383.62 M100.76 1379.92 Q106.571 1379.92 109.626 1384.52 Q112.705 1389.11 112.705 1397.86 Q112.705 1406.58 109.626 1411.19 Q106.571 1415.77 100.76 1415.77 Q94.9502 1415.77 91.8715 1411.19 Q88.816 1406.58 88.816 1397.86 Q88.816 1389.11 91.8715 1384.52 Q94.9502 1379.92 100.76 1379.92 Z" fill="#000000" fill-rule="nonzero" fill-opacity="1" /><path clip-path="url(#clip930)" d="M120.922 1409.22 L125.807 1409.22 L125.807 1415.1 L120.922 1415.1 L120.922 1409.22 Z" fill="#000000" fill-rule="nonzero" fill-opacity="1" /><path clip-path="url(#clip930)" d="M140.019 1411.17 L156.339 1411.17 L156.339 1415.1 L134.394 1415.1 L134.394 1411.17 Q137.056 1408.41 141.64 1403.78 Q146.246 1399.13 147.427 1397.79 Q149.672 1395.27 150.552 1393.53 Q151.455 1391.77 151.455 1390.08 Q151.455 1387.33 149.51 1385.59 Q147.589 1383.85 144.487 1383.85 Q142.288 1383.85 139.834 1384.62 Q137.404 1385.38 134.626 1386.93 L134.626 1382.21 Q137.45 1381.08 139.904 1380.5 Q142.357 1379.92 144.394 1379.92 Q149.765 1379.92 152.959 1382.6 Q156.154 1385.29 156.154 1389.78 Q156.154 1391.91 155.343 1393.83 Q154.556 1395.73 152.45 1398.32 Q151.871 1398.99 148.769 1402.21 Q145.668 1405.4 140.019 1411.17 Z" fill="#000000" fill-rule="nonzero" fill-opacity="1" /><path clip-path="url(#clip930)" d="M99.1632 1206.41 Q95.5521 1206.41 93.7234 1209.98 Q91.9178 1213.52 91.9178 1220.65 Q91.9178 1227.76 93.7234 1231.32 Q95.5521 1234.86 99.1632 1234.86 Q102.797 1234.86 104.603 1231.32 Q106.432 1227.76 106.432 1220.65 Q106.432 1213.52 104.603 1209.98 Q102.797 1206.41 99.1632 1206.41 M99.1632 1202.71 Q104.973 1202.71 108.029 1207.32 Q111.108 1211.9 111.108 1220.65 Q111.108 1229.38 108.029 1233.98 Q104.973 1238.57 99.1632 1238.57 Q93.353 1238.57 90.2743 1233.98 Q87.2188 1229.38 87.2188 1220.65 Q87.2188 1211.9 90.2743 1207.32 Q93.353 1202.71 99.1632 1202.71 Z" fill="#000000" fill-rule="nonzero" fill-opacity="1" /><path clip-path="url(#clip930)" d="M119.325 1232.02 L124.209 1232.02 L124.209 1237.89 L119.325 1237.89 L119.325 1232.02 Z" fill="#000000" fill-rule="nonzero" fill-opacity="1" /><path clip-path="url(#clip930)" d="M144.394 1206.41 Q140.783 1206.41 138.955 1209.98 Q137.149 1213.52 137.149 1220.65 Q137.149 1227.76 138.955 1231.32 Q140.783 1234.86 144.394 1234.86 Q148.029 1234.86 149.834 1231.32 Q151.663 1227.76 151.663 1220.65 Q151.663 1213.52 149.834 1209.98 Q148.029 1206.41 144.394 1206.41 M144.394 1202.71 Q150.205 1202.71 153.26 1207.32 Q156.339 1211.9 156.339 1220.65 Q156.339 1229.38 153.26 1233.98 Q150.205 1238.57 144.394 1238.57 Q138.584 1238.57 135.506 1233.98 Q132.45 1229.38 132.45 1220.65 Q132.45 1211.9 135.506 1207.32 Q138.584 1202.71 144.394 1202.71 Z" fill="#000000" fill-rule="nonzero" fill-opacity="1" /><path clip-path="url(#clip930)" d="M100.76 1029.21 Q97.1493 1029.21 95.3206 1032.77 Q93.515 1036.31 93.515 1043.44 Q93.515 1050.55 95.3206 1054.11 Q97.1493 1057.65 100.76 1057.65 Q104.395 1057.65 106.2 1054.11 Q108.029 1050.55 108.029 1043.44 Q108.029 1036.31 106.2 1032.77 Q104.395 1029.21 100.76 1029.21 M100.76 1025.5 Q106.571 1025.5 109.626 1030.11 Q112.705 1034.69 112.705 1043.44 Q112.705 1052.17 109.626 1056.77 Q106.571 1061.36 100.76 1061.36 Q94.9502 1061.36 91.8715 1056.77 Q88.816 1052.17 88.816 1043.44 Q88.816 1034.69 91.8715 1030.11 Q94.9502 1025.5 100.76 1025.5 Z" fill="#000000" fill-rule="nonzero" fill-opacity="1" /><path clip-path="url(#clip930)" d="M120.922 1054.81 L125.807 1054.81 L125.807 1060.69 L120.922 1060.69 L120.922 1054.81 Z" fill="#000000" fill-rule="nonzero" fill-opacity="1" /><path clip-path="url(#clip930)" d="M140.019 1056.75 L156.339 1056.75 L156.339 1060.69 L134.394 1060.69 L134.394 1056.75 Q137.056 1054 141.64 1049.37 Q146.246 1044.71 147.427 1043.37 Q149.672 1040.85 150.552 1039.11 Q151.455 1037.35 151.455 1035.66 Q151.455 1032.91 149.51 1031.17 Q147.589 1029.44 144.487 1029.44 Q142.288 1029.44 139.834 1030.2 Q137.404 1030.96 134.626 1032.52 L134.626 1027.79 Q137.45 1026.66 139.904 1026.08 Q142.357 1025.5 144.394 1025.5 Q149.765 1025.5 152.959 1028.19 Q156.154 1030.87 156.154 1035.36 Q156.154 1037.49 155.343 1039.41 Q154.556 1041.31 152.45 1043.9 Q151.871 1044.58 148.769 1047.79 Q145.668 1050.99 140.019 1056.75 Z" fill="#000000" fill-rule="nonzero" fill-opacity="1" /><path clip-path="url(#clip930)" d="M98.6771 851.997 Q95.066 851.997 93.2373 855.562 Q91.4317 859.104 91.4317 866.233 Q91.4317 873.34 93.2373 876.905 Q95.066 880.446 98.6771 880.446 Q102.311 880.446 104.117 876.905 Q105.946 873.34 105.946 866.233 Q105.946 859.104 104.117 855.562 Q102.311 851.997 98.6771 851.997 M98.6771 848.294 Q104.487 848.294 107.543 852.9 Q110.621 857.484 110.621 866.233 Q110.621 874.96 107.543 879.567 Q104.487 884.15 98.6771 884.15 Q92.8669 884.15 89.7882 879.567 Q86.7327 874.96 86.7327 866.233 Q86.7327 857.484 89.7882 852.9 Q92.8669 848.294 98.6771 848.294 Z" fill="#000000" fill-rule="nonzero" fill-opacity="1" /><path clip-path="url(#clip930)" d="M118.839 877.599 L123.723 877.599 L123.723 883.479 L118.839 883.479 L118.839 877.599 Z" fill="#000000" fill-rule="nonzero" fill-opacity="1" /><path clip-path="url(#clip930)" d="M146.756 852.993 L134.95 871.442 L146.756 871.442 L146.756 852.993 M145.529 848.919 L151.408 848.919 L151.408 871.442 L156.339 871.442 L156.339 875.331 L151.408 875.331 L151.408 883.479 L146.756 883.479 L146.756 875.331 L131.154 875.331 L131.154 870.817 L145.529 848.919 Z" fill="#000000" fill-rule="nonzero" fill-opacity="1" /><path clip-path="url(#clip930)" d="M99.0011 674.789 Q95.39 674.789 93.5613 678.354 Q91.7558 681.896 91.7558 689.025 Q91.7558 696.132 93.5613 699.697 Q95.39 703.238 99.0011 703.238 Q102.635 703.238 104.441 699.697 Q106.27 696.132 106.27 689.025 Q106.27 681.896 104.441 678.354 Q102.635 674.789 99.0011 674.789 M99.0011 671.086 Q104.811 671.086 107.867 675.692 Q110.946 680.275 110.946 689.025 Q110.946 697.752 107.867 702.359 Q104.811 706.942 99.0011 706.942 Q93.191 706.942 90.1123 702.359 Q87.0567 697.752 87.0567 689.025 Q87.0567 680.275 90.1123 675.692 Q93.191 671.086 99.0011 671.086 Z" fill="#000000" fill-rule="nonzero" fill-opacity="1" /><path clip-path="url(#clip930)" d="M119.163 700.391 L124.047 700.391 L124.047 706.271 L119.163 706.271 L119.163 700.391 Z" fill="#000000" fill-rule="nonzero" fill-opacity="1" /><path clip-path="url(#clip930)" d="M144.811 687.127 Q141.663 687.127 139.811 689.28 Q137.982 691.433 137.982 695.183 Q137.982 698.91 139.811 701.086 Q141.663 703.238 144.811 703.238 Q147.959 703.238 149.788 701.086 Q151.64 698.91 151.64 695.183 Q151.64 691.433 149.788 689.28 Q147.959 687.127 144.811 687.127 M154.093 672.475 L154.093 676.734 Q152.334 675.9 150.529 675.461 Q148.746 675.021 146.987 675.021 Q142.357 675.021 139.904 678.146 Q137.473 681.271 137.126 687.59 Q138.492 685.576 140.552 684.512 Q142.612 683.424 145.089 683.424 Q150.297 683.424 153.306 686.595 Q156.339 689.743 156.339 695.183 Q156.339 700.507 153.191 703.724 Q150.043 706.942 144.811 706.942 Q138.816 706.942 135.644 702.359 Q132.473 697.752 132.473 689.025 Q132.473 680.831 136.362 675.97 Q140.251 671.086 146.802 671.086 Q148.561 671.086 150.343 671.433 Q152.149 671.78 154.093 672.475 Z" fill="#000000" fill-rule="nonzero" fill-opacity="1" /><path clip-path="url(#clip930)" d="M99.2558 497.581 Q95.6447 497.581 93.816 501.146 Q92.0104 504.688 92.0104 511.817 Q92.0104 518.924 93.816 522.489 Q95.6447 526.03 99.2558 526.03 Q102.89 526.03 104.696 522.489 Q106.524 518.924 106.524 511.817 Q106.524 504.688 104.696 501.146 Q102.89 497.581 99.2558 497.581 M99.2558 493.878 Q105.066 493.878 108.121 498.484 Q111.2 503.067 111.2 511.817 Q111.2 520.544 108.121 525.151 Q105.066 529.734 99.2558 529.734 Q93.4456 529.734 90.3669 525.151 Q87.3114 520.544 87.3114 511.817 Q87.3114 503.067 90.3669 498.484 Q93.4456 493.878 99.2558 493.878 Z" fill="#000000" fill-rule="nonzero" fill-opacity="1" /><path clip-path="url(#clip930)" d="M119.418 523.183 L124.302 523.183 L124.302 529.063 L119.418 529.063 L119.418 523.183 Z" fill="#000000" fill-rule="nonzero" fill-opacity="1" /><path clip-path="url(#clip930)" d="M144.487 512.651 Q141.154 512.651 139.232 514.433 Q137.334 516.215 137.334 519.34 Q137.334 522.465 139.232 524.248 Q141.154 526.03 144.487 526.03 Q147.82 526.03 149.742 524.248 Q151.663 522.442 151.663 519.34 Q151.663 516.215 149.742 514.433 Q147.843 512.651 144.487 512.651 M139.811 510.66 Q136.802 509.919 135.112 507.859 Q133.445 505.799 133.445 502.836 Q133.445 498.692 136.385 496.285 Q139.348 493.878 144.487 493.878 Q149.649 493.878 152.589 496.285 Q155.529 498.692 155.529 502.836 Q155.529 505.799 153.839 507.859 Q152.172 509.919 149.186 510.66 Q152.566 511.447 154.441 513.739 Q156.339 516.03 156.339 519.34 Q156.339 524.364 153.26 527.049 Q150.205 529.734 144.487 529.734 Q138.769 529.734 135.691 527.049 Q132.635 524.364 132.635 519.34 Q132.635 516.03 134.533 513.739 Q136.431 511.447 139.811 510.66 M138.098 503.276 Q138.098 505.961 139.765 507.466 Q141.455 508.97 144.487 508.97 Q147.496 508.97 149.186 507.466 Q150.899 505.961 150.899 503.276 Q150.899 500.591 149.186 499.086 Q147.496 497.581 144.487 497.581 Q141.455 497.581 139.765 499.086 Q138.098 500.591 138.098 503.276 Z" fill="#000000" fill-rule="nonzero" fill-opacity="1" /><path clip-path="url(#clip930)" d="M89.9734 347.919 L97.6122 347.919 L97.6122 321.554 L89.3021 323.22 L89.3021 318.961 L97.566 317.295 L102.242 317.295 L102.242 347.919 L109.881 347.919 L109.881 351.855 L89.9734 351.855 L89.9734 347.919 Z" fill="#000000" fill-rule="nonzero" fill-opacity="1" /><path clip-path="url(#clip930)" d="M119.325 345.975 L124.209 345.975 L124.209 351.855 L119.325 351.855 L119.325 345.975 Z" fill="#000000" fill-rule="nonzero" fill-opacity="1" /><path clip-path="url(#clip930)" d="M144.394 320.373 Q140.783 320.373 138.955 323.938 Q137.149 327.48 137.149 334.609 Q137.149 341.716 138.955 345.281 Q140.783 348.822 144.394 348.822 Q148.029 348.822 149.834 345.281 Q151.663 341.716 151.663 334.609 Q151.663 327.48 149.834 323.938 Q148.029 320.373 144.394 320.373 M144.394 316.67 Q150.205 316.67 153.26 321.276 Q156.339 325.859 156.339 334.609 Q156.339 343.336 153.26 347.943 Q150.205 352.526 144.394 352.526 Q138.584 352.526 135.506 347.943 Q132.45 343.336 132.45 334.609 Q132.45 325.859 135.506 321.276 Q138.584 316.67 144.394 316.67 Z" fill="#000000" fill-rule="nonzero" fill-opacity="1" /><path clip-path="url(#clip930)" d="M91.5706 170.711 L99.2095 170.711 L99.2095 144.346 L90.8993 146.012 L90.8993 141.753 L99.1632 140.086 L103.839 140.086 L103.839 170.711 L111.478 170.711 L111.478 174.646 L91.5706 174.646 L91.5706 170.711 Z" fill="#000000" fill-rule="nonzero" fill-opacity="1" /><path clip-path="url(#clip930)" d="M120.922 168.767 L125.807 168.767 L125.807 174.646 L120.922 174.646 L120.922 168.767 Z" fill="#000000" fill-rule="nonzero" fill-opacity="1" /><path clip-path="url(#clip930)" d="M140.019 170.711 L156.339 170.711 L156.339 174.646 L134.394 174.646 L134.394 170.711 Q137.056 167.957 141.64 163.327 Q146.246 158.674 147.427 157.332 Q149.672 154.809 150.552 153.073 Q151.455 151.313 151.455 149.623 Q151.455 146.869 149.51 145.133 Q147.589 143.397 144.487 143.397 Q142.288 143.397 139.834 144.161 Q137.404 144.924 134.626 146.475 L134.626 141.753 Q137.45 140.619 139.904 140.04 Q142.357 139.461 144.394 139.461 Q149.765 139.461 152.959 142.147 Q156.154 144.832 156.154 149.323 Q156.154 151.452 155.343 153.373 Q154.556 155.272 152.45 157.864 Q151.871 158.535 148.769 161.753 Q145.668 164.947 140.019 170.711 Z" fill="#000000" fill-rule="nonzero" fill-opacity="1" /><polyline clip-path="url(#clip932)" style="stroke:#009af9; stroke-linecap:round; stroke-linejoin:round; stroke-width:16; stroke-opacity:1; fill:none" stroke-dasharray="8, 16" points="253.483,1085.98 263.725,1069.58 273.966,1055.52 284.208,1045.94 294.45,1042.13 304.692,1044.31 314.934,1052.22 325.176,1066 335.418,1086.44 345.659,1113.8 355.901,1145.61 366.143,1176.15 376.385,1200.3 386.627,1219.58 396.869,1242.64 407.111,1276.48 417.352,1317.58 427.594,1354.3 437.836,1378.11 448.078,1389.43 458.32,1393.47 468.562,1394.08 478.803,1392.04 489.045,1386.41 499.287,1376.05 509.529,1360.33 519.771,1339.23 530.013,1313.34 540.255,1283.79 550.497,1252.04 560.738,1219.59 570.98,1187.72 581.222,1157.38 591.464,1129.25 601.706,1103.92 611.948,1081.99 622.19,1064.12 632.431,1050.97 642.673,1043.23 652.915,1041.6 663.157,1046.58 673.399,1058.11 683.641,1075.22 693.882,1096.23 704.124,1119.49 714.366,1144.51 724.608,1172.31 734.85,1204 745.092,1238.29 755.334,1270.64 765.575,1296.72 775.817,1317.88 786.059,1341.59 796.301,1374.52 806.543,1414.16 816.785,1444.89 827.027,1440.94 837.268,1385.21 847.51,1308.55 857.752,1282.2 867.994,1313.42 878.236,1334.54 888.478,1312.07 898.72,1265.95 908.961,1227.68 919.203,1213.44 929.445,1216.32 939.687,1214.29 949.929,1183.32 960.171,1101.49 970.413,960.015 980.654,840.657 990.896,904.113 1001.14,1037.74 1011.38,1010.35 1021.62,922.848 1031.86,968.213 1042.11,1073.29 1052.35,1114.8 1062.59,1202.31 1072.83,1268.18 1083.07,1190.11 1093.31,1269.53 1103.56,1398.4 1113.8,1445.72 1124.04,1363.61 1134.28,1179.85 1144.52,1093.13 1154.77,1235.31 1165.01,1374.3 1175.25,1390.7 1185.49,1357.65 1195.73,1344.94 1205.98,1366.9 1216.22,1391.76 1226.46,1400.5 1236.7,1391.83 1246.94,1337.7 1257.18,1192.32 1267.43,951.35 1277.67,672.374 1287.91,427.879 1298.15,268.68 1308.39,212.364 1318.64,241.901 1328.88,313.798 1339.12,367.88 1349.36,387.412 1359.6,386.882 1369.84,356.904 1380.09,288.882 1390.33,244.422 1400.57,273.393 1410.81,320.19 1421.05,325.357 1431.3,299.779 1441.54,295.478 1451.78,341.498 1462.02,381.57 1472.26,361.91 1482.51,320.395 1492.75,302.182 1502.99,275.432 1513.23,283.305 1523.47,369.276 1533.71,364.115 1543.96,348.149 1554.2,415.591 1564.44,494.742 1574.68,468.668 1584.92,386.024 1595.17,303.25 1605.41,251.956 1615.65,236.211 1625.89,241.832 1636.13,261.901 1646.38,296.829 1656.62,340.356 1666.86,382.021 1677.1,412.146 1687.34,423.924 1697.58,414.838 1707.83,386.028 1718.07,341.52 1728.31,288.896 1738.55,240.631 1748.79,213.447 1759.04,222.601 1769.28,271.747 1779.52,346.439 1789.76,419.768 1800,466.49 1810.24,473.149 1820.49,438.95 1830.73,372.632 1840.97,290.69 1851.21,216.353 1861.45,174.987 1871.7,183.752 1881.94,241.226 1892.18,327.014 1902.42,412.82 1912.66,474.991 1922.91,499.956 1933.15,483.28 1943.39,427.398 1953.63,341.704 1963.87,245.579 1974.11,168.712 1984.36,140.524 1994.6,172.718 2004.84,252.024 2015.08,350.509 2025.32,441.905 2035.57,509.875 2045.81,543.751 2056.05,528.036 2066.29,447.043 2076.53,315.12 2086.77,188.013 2097.02,121.402 2107.26,129.107 2117.5,189.646 2127.74,275.938 2137.98,370.59 2148.23,461.996 2158.47,533.727 2168.71,560.036 2178.95,515.973 2189.19,400.101 2199.44,251.696 2209.68,133.315 2219.92,89.857 2230.16,132.499 2240.4,230.463 2250.64,326.5 2260.89,391.885 2271.13,439.102 2281.37,489.72 2291.61,553.079 "/>
<polyline clip-path="url(#clip932)" style="stroke:#e26f46; stroke-linecap:round; stroke-linejoin:round; stroke-width:4; stroke-opacity:1; fill:none" points="253.483,1087.53 263.725,1068.65 273.966,1054.73 284.208,1046.22 294.45,1043.41 304.692,1046.37 314.934,1055.03 325.176,1069.09 335.418,1088.09 345.659,1111.42 355.901,1138.31 366.143,1167.89 376.385,1199.19 386.627,1231.19 396.869,1262.85 407.111,1293.12 417.352,1321.03 427.594,1345.66 437.836,1366.21 448.078,1382.01 458.32,1392.54 468.562,1397.46 478.803,1396.61 489.045,1390.01 499.287,1377.89 509.529,1360.63 519.771,1338.8 530.013,1313.12 540.255,1284.42 550.497,1253.63 560.738,1221.77 570.98,1189.86 581.222,1158.97 591.464,1130.08 601.706,1104.15 611.948,1082.02 622.19,1064.41 632.431,1051.91 642.673,1044.9 652.915,1043.64 663.157,1048.14 673.399,1058.28 683.641,1073.72 693.882,1093.95 704.124,1118.31 714.366,1146.02 724.608,1176.15 734.85,1207.74 745.092,1239.75 755.334,1271.14 765.575,1300.87 775.817,1327.99 786.059,1351.6 796.301,1370.94 806.543,1385.37 816.785,1394.42 827.027,1397.8 837.268,1395.4 847.51,1387.29 857.752,1373.75 867.994,1355.2 878.236,1332.27 888.478,1305.69 898.72,1276.33 908.961,1245.15 919.203,1213.18 929.445,1181.44 939.687,1150.99 949.929,1122.81 960.171,1097.82 970.413,1076.83 980.654,1060.54 990.896,1049.48 1001.14,1044 1011.38,1044.28 1021.62,1050.32 1031.86,1061.92 1042.11,1078.69 1052.35,1100.1 1062.59,1125.44 1072.83,1153.89 1083.07,1184.52 1093.31,1216.32 1103.56,1248.26 1113.8,1279.31 1124.04,1308.43 1134.28,1334.69 1144.52,1357.23 1154.77,1375.31 1165.01,1388.34 1175.25,1395.89 1185.49,1397.73 1195.73,1393.78 1205.98,1384.18 1216.22,1369.25 1226.46,1349.46 1236.7,1325.47 1246.94,1298.05 1257.18,1268.11 1267.43,1236.62 1277.67,333.288 1287.91,331.823 1298.15,333.156 1308.39,337.593 1318.64,343.774 1328.88,349.088 1339.12,350.661 1349.36,346.573 1359.6,336.826 1369.84,323.687 1380.09,311.184 1390.33,303.88 1400.57,305.281 1410.81,316.425 1421.05,335.17 1431.3,356.502 1441.54,373.874 1451.78,381.202 1462.02,374.929 1472.26,355.467 1482.51,327.472 1492.75,298.783 1502.99,278.221 1513.23,272.894 1523.47,285.807 1533.71,314.575 1543.96,351.728 1554.2,386.629 1564.44,408.518 1574.68,409.815 1584.92,388.668 1595.17,349.912 1605.41,304.035 1615.65,264.352 1625.89,243.138 1636.13,247.855 1646.38,278.61 1656.62,327.708 1666.86,381.532 1677.1,424.317 1687.34,442.763 1697.58,430.149 1707.83,388.67 1718.07,329.22 1728.31,268.552 1738.55,224.562 1748.79,211.015 1759.04,233.261 1769.28,286.283 1779.52,355.745 1789.76,421.846 1800,464.972 1810.24,471.504 1820.49,438.088 1830.73,373.022 1840.97,294.246 1851.21,224.403 1861.45,184.336 1871.7,186.869 1881.94,232.751 1892.18,310.014 1902.42,397.063 1912.66,468.705 1922.91,503.445 1933.15,489.917 1943.39,430.553 1953.63,341.3 1963.87,247.356 1974.11,176.062 1984.36,148.942 1994.6,175.223 2004.84,248.769 2015.08,349.44 2025.32,448.589 2035.57,517.22 2045.81,534.459 2056.05,493.885 2066.29,405.801 2076.53,294.657 2086.77,192.275 2097.02,128.739 2107.26,123.556 2117.5,179.695 2127.74,282.307 2137.98,402.621 2148.23,506.012 2158.47,561.958 2168.71,553.051 2178.95,480.377 2189.19,363.63 2199.44,235.794 2209.68,133.827 2219.92,87.9763 2230.16,112.815 2240.4,202.653 2250.64,332.755 2260.89,466.139 2271.13,564.088 2281.37,597.384 2291.61,555.015 "/>
<path clip-path="url(#clip930)" d="M264.353 250.738 L707.222 250.738 L707.222 95.2176 L264.353 95.2176  Z" fill="#ffffff" fill-rule="evenodd" fill-opacity="1"/>
<polyline clip-path="url(#clip930)" style="stroke:#000000; stroke-linecap:round; stroke-linejoin:round; stroke-width:4; stroke-opacity:1; fill:none" points="264.353,250.738 707.222,250.738 707.222,95.2176 264.353,95.2176 264.353,250.738 "/>
<polyline clip-path="url(#clip930)" style="stroke:#009af9; stroke-linecap:round; stroke-linejoin:round; stroke-width:16; stroke-opacity:1; fill:none" stroke-dasharray="8, 16" points="288.357,147.058 432.385,147.058 "/>
<path clip-path="url(#clip930)" d="M461.066 133.62 L461.066 146.606 L466.945 146.606 Q470.209 146.606 471.992 144.916 Q473.774 143.227 473.774 140.102 Q473.774 137 471.992 135.31 Q470.209 133.62 466.945 133.62 L461.066 133.62 M456.39 129.778 L466.945 129.778 Q472.755 129.778 475.718 132.416 Q478.704 135.032 478.704 140.102 Q478.704 145.217 475.718 147.833 Q472.755 150.449 466.945 150.449 L461.066 150.449 L461.066 164.338 L456.39 164.338 L456.39 129.778 Z" fill="#000000" fill-rule="nonzero" fill-opacity="1" /><path clip-path="url(#clip930)" d="M498.982 142.393 Q498.265 141.977 497.408 141.791 Q496.575 141.583 495.556 141.583 Q491.945 141.583 490.001 143.944 Q488.079 146.282 488.079 150.68 L488.079 164.338 L483.797 164.338 L483.797 138.412 L488.079 138.412 L488.079 142.44 Q489.422 140.078 491.575 138.944 Q493.728 137.787 496.806 137.787 Q497.246 137.787 497.778 137.856 Q498.311 137.903 498.959 138.018 L498.982 142.393 Z" fill="#000000" fill-rule="nonzero" fill-opacity="1" /><path clip-path="url(#clip930)" d="M524.584 150.31 L524.584 152.393 L505.001 152.393 Q505.278 156.791 507.639 159.106 Q510.024 161.398 514.26 161.398 Q516.714 161.398 519.005 160.796 Q521.32 160.194 523.588 158.99 L523.588 163.018 Q521.297 163.99 518.889 164.5 Q516.482 165.009 514.005 165.009 Q507.802 165.009 504.167 161.398 Q500.556 157.787 500.556 151.629 Q500.556 145.264 503.982 141.537 Q507.431 137.787 513.264 137.787 Q518.496 137.787 521.528 141.166 Q524.584 144.523 524.584 150.31 M520.325 149.06 Q520.278 145.565 518.357 143.481 Q516.459 141.398 513.311 141.398 Q509.746 141.398 507.593 143.412 Q505.464 145.426 505.14 149.083 L520.325 149.06 Z" fill="#000000" fill-rule="nonzero" fill-opacity="1" /><path clip-path="url(#clip930)" d="M548.635 142.347 L548.635 128.319 L552.894 128.319 L552.894 164.338 L548.635 164.338 L548.635 160.449 Q547.292 162.763 545.232 163.898 Q543.195 165.009 540.325 165.009 Q535.625 165.009 532.663 161.259 Q529.723 157.509 529.723 151.398 Q529.723 145.287 532.663 141.537 Q535.625 137.787 540.325 137.787 Q543.195 137.787 545.232 138.921 Q547.292 140.032 548.635 142.347 M534.121 151.398 Q534.121 156.097 536.042 158.782 Q537.987 161.444 541.366 161.444 Q544.746 161.444 546.69 158.782 Q548.635 156.097 548.635 151.398 Q548.635 146.699 546.69 144.037 Q544.746 141.352 541.366 141.352 Q537.987 141.352 536.042 144.037 Q534.121 146.699 534.121 151.398 Z" fill="#000000" fill-rule="nonzero" fill-opacity="1" /><path clip-path="url(#clip930)" d="M561.667 138.412 L565.926 138.412 L565.926 164.338 L561.667 164.338 L561.667 138.412 M561.667 128.319 L565.926 128.319 L565.926 133.713 L561.667 133.713 L561.667 128.319 Z" fill="#000000" fill-rule="nonzero" fill-opacity="1" /><path clip-path="url(#clip930)" d="M593.496 139.407 L593.496 143.389 Q591.69 142.393 589.861 141.907 Q588.056 141.398 586.204 141.398 Q582.06 141.398 579.769 144.037 Q577.477 146.652 577.477 151.398 Q577.477 156.143 579.769 158.782 Q582.06 161.398 586.204 161.398 Q588.056 161.398 589.861 160.912 Q591.69 160.402 593.496 159.407 L593.496 163.342 Q591.713 164.176 589.792 164.592 Q587.894 165.009 585.741 165.009 Q579.884 165.009 576.435 161.328 Q572.986 157.648 572.986 151.398 Q572.986 145.055 576.459 141.421 Q579.954 137.787 586.019 137.787 Q587.986 137.787 589.861 138.203 Q591.736 138.597 593.496 139.407 Z" fill="#000000" fill-rule="nonzero" fill-opacity="1" /><path clip-path="url(#clip930)" d="M605.116 131.051 L605.116 138.412 L613.889 138.412 L613.889 141.722 L605.116 141.722 L605.116 155.796 Q605.116 158.967 605.972 159.87 Q606.852 160.773 609.514 160.773 L613.889 160.773 L613.889 164.338 L609.514 164.338 Q604.583 164.338 602.708 162.509 Q600.833 160.657 600.833 155.796 L600.833 141.722 L597.708 141.722 L597.708 138.412 L600.833 138.412 L600.833 131.051 L605.116 131.051 Z" fill="#000000" fill-rule="nonzero" fill-opacity="1" /><path clip-path="url(#clip930)" d="M619.491 138.412 L623.75 138.412 L623.75 164.338 L619.491 164.338 L619.491 138.412 M619.491 128.319 L623.75 128.319 L623.75 133.713 L619.491 133.713 L619.491 128.319 Z" fill="#000000" fill-rule="nonzero" fill-opacity="1" /><path clip-path="url(#clip930)" d="M642.708 141.398 Q639.282 141.398 637.292 144.083 Q635.301 146.745 635.301 151.398 Q635.301 156.051 637.268 158.736 Q639.259 161.398 642.708 161.398 Q646.111 161.398 648.102 158.713 Q650.092 156.027 650.092 151.398 Q650.092 146.791 648.102 144.106 Q646.111 141.398 642.708 141.398 M642.708 137.787 Q648.264 137.787 651.435 141.398 Q654.606 145.009 654.606 151.398 Q654.606 157.764 651.435 161.398 Q648.264 165.009 642.708 165.009 Q637.13 165.009 633.958 161.398 Q630.81 157.764 630.81 151.398 Q630.81 145.009 633.958 141.398 Q637.13 137.787 642.708 137.787 Z" fill="#000000" fill-rule="nonzero" fill-opacity="1" /><path clip-path="url(#clip930)" d="M683.217 148.689 L683.217 164.338 L678.958 164.338 L678.958 148.828 Q678.958 145.148 677.523 143.319 Q676.088 141.49 673.217 141.49 Q669.768 141.49 667.778 143.69 Q665.787 145.889 665.787 149.685 L665.787 164.338 L661.504 164.338 L661.504 138.412 L665.787 138.412 L665.787 142.44 Q667.315 140.102 669.375 138.944 Q671.458 137.787 674.166 137.787 Q678.634 137.787 680.926 140.565 Q683.217 143.319 683.217 148.689 Z" fill="#000000" fill-rule="nonzero" fill-opacity="1" /><polyline clip-path="url(#clip930)" style="stroke:#e26f46; stroke-linecap:round; stroke-linejoin:round; stroke-width:4; stroke-opacity:1; fill:none" points="288.357,198.898 432.385,198.898 "/>
<path clip-path="url(#clip930)" d="M456.39 181.618 L478.242 181.618 L478.242 185.553 L461.066 185.553 L461.066 195.784 L477.524 195.784 L477.524 199.719 L461.066 199.719 L461.066 212.242 L478.658 212.242 L478.658 216.178 L456.39 216.178 L456.39 181.618 Z" fill="#000000" fill-rule="nonzero" fill-opacity="1" /><path clip-path="url(#clip930)" d="M507.709 190.252 L498.334 202.867 L508.195 216.178 L503.172 216.178 L495.626 205.992 L488.079 216.178 L483.056 216.178 L493.126 202.613 L483.913 190.252 L488.936 190.252 L495.811 199.488 L502.686 190.252 L507.709 190.252 Z" fill="#000000" fill-rule="nonzero" fill-opacity="1" /><path clip-path="url(#clip930)" d="M525.996 203.145 Q520.834 203.145 518.843 204.326 Q516.852 205.506 516.852 208.354 Q516.852 210.622 518.334 211.965 Q519.838 213.284 522.408 213.284 Q525.95 213.284 528.079 210.784 Q530.232 208.261 530.232 204.094 L530.232 203.145 L525.996 203.145 M534.491 201.386 L534.491 216.178 L530.232 216.178 L530.232 212.242 Q528.774 214.603 526.598 215.738 Q524.422 216.849 521.274 216.849 Q517.292 216.849 514.931 214.627 Q512.593 212.381 512.593 208.631 Q512.593 204.256 515.51 202.034 Q518.45 199.812 524.26 199.812 L530.232 199.812 L530.232 199.395 Q530.232 196.455 528.288 194.858 Q526.366 193.238 522.871 193.238 Q520.649 193.238 518.542 193.77 Q516.436 194.303 514.491 195.367 L514.491 191.432 Q516.829 190.53 519.028 190.09 Q521.227 189.627 523.311 189.627 Q528.936 189.627 531.713 192.543 Q534.491 195.46 534.491 201.386 Z" fill="#000000" fill-rule="nonzero" fill-opacity="1" /><path clip-path="url(#clip930)" d="M561.922 191.247 L561.922 195.229 Q560.116 194.233 558.287 193.747 Q556.482 193.238 554.63 193.238 Q550.486 193.238 548.195 195.877 Q545.903 198.492 545.903 203.238 Q545.903 207.983 548.195 210.622 Q550.486 213.238 554.63 213.238 Q556.482 213.238 558.287 212.752 Q560.116 212.242 561.922 211.247 L561.922 215.182 Q560.139 216.016 558.218 216.432 Q556.32 216.849 554.167 216.849 Q548.311 216.849 544.862 213.168 Q541.412 209.488 541.412 203.238 Q541.412 196.895 544.885 193.261 Q548.38 189.627 554.445 189.627 Q556.412 189.627 558.287 190.043 Q560.162 190.437 561.922 191.247 Z" fill="#000000" fill-rule="nonzero" fill-opacity="1" /><path clip-path="url(#clip930)" d="M573.542 182.891 L573.542 190.252 L582.315 190.252 L582.315 193.562 L573.542 193.562 L573.542 207.636 Q573.542 210.807 574.398 211.71 Q575.278 212.613 577.94 212.613 L582.315 212.613 L582.315 216.178 L577.94 216.178 Q573.01 216.178 571.135 214.349 Q569.26 212.497 569.26 207.636 L569.26 193.562 L566.135 193.562 L566.135 190.252 L569.26 190.252 L569.26 182.891 L573.542 182.891 Z" fill="#000000" fill-rule="nonzero" fill-opacity="1" /></svg>
