<?xml version="1.0" encoding="utf-8"?>
<svg xmlns="http://www.w3.org/2000/svg" xmlns:xlink="http://www.w3.org/1999/xlink" width="600" height="400" viewBox="0 0 2400 1600">
<defs>
  <clipPath id="clip900">
    <rect x="0" y="0" width="2400" height="1600"/>
  </clipPath>
</defs>
<path clip-path="url(#clip900)" d="M0 1600 L2400 1600 L2400 0 L0 0  Z" fill="#ffffff" fill-rule="evenodd" fill-opacity="1"/>
<defs>
  <clipPath id="clip901">
    <rect x="480" y="0" width="1681" height="1600"/>
  </clipPath>
</defs>
<path clip-path="url(#clip900)" d="M156.274 1486.45 L2352.76 1486.45 L2352.76 47.2441 L156.274 47.2441  Z" fill="#ffffff" fill-rule="evenodd" fill-opacity="1"/>
<defs>
  <clipPath id="clip902">
    <rect x="156" y="47" width="2197" height="1440"/>
  </clipPath>
</defs>
<polyline clip-path="url(#clip902)" style="stroke:#000000; stroke-linecap:round; stroke-linejoin:round; stroke-width:2; stroke-opacity:0.1; fill:none" points="218.439,1486.45 218.439,47.2441 "/>
<polyline clip-path="url(#clip902)" style="stroke:#000000; stroke-linecap:round; stroke-linejoin:round; stroke-width:2; stroke-opacity:0.1; fill:none" points="736.477,1486.45 736.477,47.2441 "/>
<polyline clip-path="url(#clip902)" style="stroke:#000000; stroke-linecap:round; stroke-linejoin:round; stroke-width:2; stroke-opacity:0.1; fill:none" points="1254.52,1486.45 1254.52,47.2441 "/>
<polyline clip-path="url(#clip902)" style="stroke:#000000; stroke-linecap:round; stroke-linejoin:round; stroke-width:2; stroke-opacity:0.1; fill:none" points="1772.55,1486.45 1772.55,47.2441 "/>
<polyline clip-path="url(#clip902)" style="stroke:#000000; stroke-linecap:round; stroke-linejoin:round; stroke-width:2; stroke-opacity:0.1; fill:none" points="2290.59,1486.45 2290.59,47.2441 "/>
<polyline clip-path="url(#clip900)" style="stroke:#000000; stroke-linecap:round; stroke-linejoin:round; stroke-width:4; stroke-opacity:1; fill:none" points="156.274,1486.45 2352.76,1486.45 "/>
<polyline clip-path="url(#clip900)" style="stroke:#000000; stroke-linecap:round; stroke-linejoin:round; stroke-width:4; stroke-opacity:1; fill:none" points="218.439,1486.45 218.439,1467.55 "/>
<polyline clip-path="url(#clip900)" style="stroke:#000000; stroke-linecap:round; stroke-linejoin:round; stroke-width:4; stroke-opacity:1; fill:none" points="736.477,1486.45 736.477,1467.55 "/>
<polyline clip-path="url(#clip900)" style="stroke:#000000; stroke-linecap:round; stroke-linejoin:round; stroke-width:4; stroke-opacity:1; fill:none" points="1254.52,1486.45 1254.52,1467.55 "/>
<polyline clip-path="url(#clip900)" style="stroke:#000000; stroke-linecap:round; stroke-linejoin:round; stroke-width:4; stroke-opacity:1; fill:none" points="1772.55,1486.45 1772.55,1467.55 "/>
<polyline clip-path="url(#clip900)" style="stroke:#000000; stroke-linecap:round; stroke-linejoin:round; stroke-width:4; stroke-opacity:1; fill:none" points="2290.59,1486.45 2290.59,1467.55 "/>
<path clip-path="url(#clip900)" d="M164.967 1532.02 L194.643 1532.02 L194.643 1535.95 L164.967 1535.95 L164.967 1532.02 Z" fill="#000000" fill-rule="nonzero" fill-opacity="1" /><path clip-path="url(#clip900)" d="M205.545 1544.91 L213.184 1544.91 L213.184 1518.55 L204.874 1520.21 L204.874 1515.95 L213.138 1514.29 L217.814 1514.29 L217.814 1544.91 L225.453 1544.91 L225.453 1548.85 L205.545 1548.85 L205.545 1544.91 Z" fill="#000000" fill-rule="nonzero" fill-opacity="1" /><path clip-path="url(#clip900)" d="M234.897 1542.97 L239.781 1542.97 L239.781 1548.85 L234.897 1548.85 L234.897 1542.97 Z" fill="#000000" fill-rule="nonzero" fill-opacity="1" /><path clip-path="url(#clip900)" d="M259.966 1517.37 Q256.355 1517.37 254.527 1520.93 Q252.721 1524.47 252.721 1531.6 Q252.721 1538.71 254.527 1542.27 Q256.355 1545.82 259.966 1545.82 Q263.601 1545.82 265.406 1542.27 Q267.235 1538.71 267.235 1531.6 Q267.235 1524.47 265.406 1520.93 Q263.601 1517.37 259.966 1517.37 M259.966 1513.66 Q265.776 1513.66 268.832 1518.27 Q271.911 1522.85 271.911 1531.6 Q271.911 1540.33 268.832 1544.94 Q265.776 1549.52 259.966 1549.52 Q254.156 1549.52 251.077 1544.94 Q248.022 1540.33 248.022 1531.6 Q248.022 1522.85 251.077 1518.27 Q254.156 1513.66 259.966 1513.66 Z" fill="#000000" fill-rule="nonzero" fill-opacity="1" /><path clip-path="url(#clip900)" d="M683.503 1532.02 L713.178 1532.02 L713.178 1535.95 L683.503 1535.95 L683.503 1532.02 Z" fill="#000000" fill-rule="nonzero" fill-opacity="1" /><path clip-path="url(#clip900)" d="M733.271 1517.37 Q729.66 1517.37 727.831 1520.93 Q726.026 1524.47 726.026 1531.6 Q726.026 1538.71 727.831 1542.27 Q729.66 1545.82 733.271 1545.82 Q736.905 1545.82 738.711 1542.27 Q740.539 1538.71 740.539 1531.6 Q740.539 1524.47 738.711 1520.93 Q736.905 1517.37 733.271 1517.37 M733.271 1513.66 Q739.081 1513.66 742.137 1518.27 Q745.215 1522.85 745.215 1531.6 Q745.215 1540.33 742.137 1544.94 Q739.081 1549.52 733.271 1549.52 Q727.461 1549.52 724.382 1544.94 Q721.327 1540.33 721.327 1531.6 Q721.327 1522.85 724.382 1518.27 Q727.461 1513.66 733.271 1513.66 Z" fill="#000000" fill-rule="nonzero" fill-opacity="1" /><path clip-path="url(#clip900)" d="M753.433 1542.97 L758.317 1542.97 L758.317 1548.85 L753.433 1548.85 L753.433 1542.97 Z" fill="#000000" fill-rule="nonzero" fill-opacity="1" /><path clip-path="url(#clip900)" d="M768.548 1514.29 L786.905 1514.29 L786.905 1518.22 L772.831 1518.22 L772.831 1526.7 Q773.849 1526.35 774.868 1526.19 Q775.886 1526 776.905 1526 Q782.692 1526 786.072 1529.17 Q789.451 1532.34 789.451 1537.76 Q789.451 1543.34 785.979 1546.44 Q782.507 1549.52 776.187 1549.52 Q774.011 1549.52 771.743 1549.15 Q769.498 1548.78 767.09 1548.04 L767.09 1543.34 Q769.173 1544.47 771.396 1545.03 Q773.618 1545.58 776.095 1545.58 Q780.099 1545.58 782.437 1543.48 Q784.775 1541.37 784.775 1537.76 Q784.775 1534.15 782.437 1532.04 Q780.099 1529.94 776.095 1529.94 Q774.22 1529.94 772.345 1530.35 Q770.493 1530.77 768.548 1531.65 L768.548 1514.29 Z" fill="#000000" fill-rule="nonzero" fill-opacity="1" /><path clip-path="url(#clip900)" d="M1231.9 1517.37 Q1228.29 1517.37 1226.46 1520.93 Q1224.65 1524.47 1224.65 1531.6 Q1224.65 1538.71 1226.46 1542.27 Q1228.29 1545.82 1231.9 1545.82 Q1235.53 1545.82 1237.34 1542.27 Q1239.17 1538.71 1239.17 1531.6 Q1239.17 1524.47 1237.34 1520.93 Q1235.53 1517.37 1231.9 1517.37 M1231.9 1513.66 Q1237.71 1513.66 1240.77 1518.27 Q1243.84 1522.85 1243.84 1531.6 Q1243.84 1540.33 1240.77 1544.94 Q1237.71 1549.52 1231.9 1549.52 Q1226.09 1549.52 1223.01 1544.94 Q1219.96 1540.33 1219.96 1531.6 Q1219.96 1522.85 1223.01 1518.27 Q1226.09 1513.66 1231.9 1513.66 Z" fill="#000000" fill-rule="nonzero" fill-opacity="1" /><path clip-path="url(#clip900)" d="M1252.06 1542.97 L1256.95 1542.97 L1256.95 1548.85 L1252.06 1548.85 L1252.06 1542.97 Z" fill="#000000" fill-rule="nonzero" fill-opacity="1" /><path clip-path="url(#clip900)" d="M1277.13 1517.37 Q1273.52 1517.37 1271.69 1520.93 Q1269.89 1524.47 1269.89 1531.6 Q1269.89 1538.71 1271.69 1542.27 Q1273.52 1545.82 1277.13 1545.82 Q1280.76 1545.82 1282.57 1542.27 Q1284.4 1538.71 1284.4 1531.6 Q1284.4 1524.47 1282.57 1520.93 Q1280.76 1517.37 1277.13 1517.37 M1277.13 1513.66 Q1282.94 1513.66 1286 1518.27 Q1289.08 1522.85 1289.08 1531.6 Q1289.08 1540.33 1286 1544.94 Q1282.94 1549.52 1277.13 1549.52 Q1271.32 1549.52 1268.24 1544.94 Q1265.19 1540.33 1265.19 1531.6 Q1265.19 1522.85 1268.24 1518.27 Q1271.32 1513.66 1277.13 1513.66 Z" fill="#000000" fill-rule="nonzero" fill-opacity="1" /><path clip-path="url(#clip900)" d="M1750.44 1517.37 Q1746.82 1517.37 1745 1520.93 Q1743.19 1524.47 1743.19 1531.6 Q1743.19 1538.71 1745 1542.27 Q1746.82 1545.82 1750.44 1545.82 Q1754.07 1545.82 1755.88 1542.27 Q1757.7 1538.71 1757.7 1531.6 Q1757.7 1524.47 1755.88 1520.93 Q1754.07 1517.37 1750.44 1517.37 M1750.44 1513.66 Q1756.25 1513.66 1759.3 1518.27 Q1762.38 1522.85 1762.38 1531.6 Q1762.38 1540.33 1759.3 1544.94 Q1756.25 1549.52 1750.44 1549.52 Q1744.63 1549.52 1741.55 1544.94 Q1738.49 1540.33 1738.49 1531.6 Q1738.49 1522.85 1741.55 1518.27 Q1744.63 1513.66 1750.44 1513.66 Z" fill="#000000" fill-rule="nonzero" fill-opacity="1" /><path clip-path="url(#clip900)" d="M1770.6 1542.97 L1775.48 1542.97 L1775.48 1548.85 L1770.6 1548.85 L1770.6 1542.97 Z" fill="#000000" fill-rule="nonzero" fill-opacity="1" /><path clip-path="url(#clip900)" d="M1785.71 1514.29 L1804.07 1514.29 L1804.07 1518.22 L1790 1518.22 L1790 1526.7 Q1791.01 1526.35 1792.03 1526.19 Q1793.05 1526 1794.07 1526 Q1799.86 1526 1803.24 1529.17 Q1806.62 1532.34 1806.62 1537.76 Q1806.62 1543.34 1803.14 1546.44 Q1799.67 1549.52 1793.35 1549.52 Q1791.18 1549.52 1788.91 1549.15 Q1786.66 1548.78 1784.25 1548.04 L1784.25 1543.34 Q1786.34 1544.47 1788.56 1545.03 Q1790.78 1545.58 1793.26 1545.58 Q1797.26 1545.58 1799.6 1543.48 Q1801.94 1541.37 1801.94 1537.76 Q1801.94 1534.15 1799.6 1532.04 Q1797.26 1529.94 1793.26 1529.94 Q1791.38 1529.94 1789.51 1530.35 Q1787.66 1530.77 1785.71 1531.65 L1785.71 1514.29 Z" fill="#000000" fill-rule="nonzero" fill-opacity="1" /><path clip-path="url(#clip900)" d="M2257.74 1544.91 L2265.38 1544.91 L2265.38 1518.55 L2257.07 1520.21 L2257.07 1515.95 L2265.34 1514.29 L2270.01 1514.29 L2270.01 1544.91 L2277.65 1544.91 L2277.65 1548.85 L2257.74 1548.85 L2257.74 1544.91 Z" fill="#000000" fill-rule="nonzero" fill-opacity="1" /><path clip-path="url(#clip900)" d="M2287.1 1542.97 L2291.98 1542.97 L2291.98 1548.85 L2287.1 1548.85 L2287.1 1542.97 Z" fill="#000000" fill-rule="nonzero" fill-opacity="1" /><path clip-path="url(#clip900)" d="M2312.17 1517.37 Q2308.55 1517.37 2306.73 1520.93 Q2304.92 1524.47 2304.92 1531.6 Q2304.92 1538.71 2306.73 1542.27 Q2308.55 1545.82 2312.17 1545.82 Q2315.8 1545.82 2317.61 1542.27 Q2319.43 1538.71 2319.43 1531.6 Q2319.43 1524.47 2317.61 1520.93 Q2315.8 1517.37 2312.17 1517.37 M2312.17 1513.66 Q2317.98 1513.66 2321.03 1518.27 Q2324.11 1522.85 2324.11 1531.6 Q2324.11 1540.33 2321.03 1544.94 Q2317.98 1549.52 2312.17 1549.52 Q2306.36 1549.52 2303.28 1544.94 Q2300.22 1540.33 2300.22 1531.6 Q2300.22 1522.85 2303.28 1518.27 Q2306.36 1513.66 2312.17 1513.66 Z" fill="#000000" fill-rule="nonzero" fill-opacity="1" /><polyline clip-path="url(#clip902)" style="stroke:#000000; stroke-linecap:round; stroke-linejoin:round; stroke-width:2; stroke-opacity:0.1; fill:none" points="156.274,1233.32 2352.76,1233.32 "/>
<polyline clip-path="url(#clip902)" style="stroke:#000000; stroke-linecap:round; stroke-linejoin:round; stroke-width:2; stroke-opacity:0.1; fill:none" points="156.274,964.523 2352.76,964.523 "/>
<polyline clip-path="url(#clip902)" style="stroke:#000000; stroke-linecap:round; stroke-linejoin:round; stroke-width:2; stroke-opacity:0.1; fill:none" points="156.274,695.73 2352.76,695.73 "/>
<polyline clip-path="url(#clip902)" style="stroke:#000000; stroke-linecap:round; stroke-linejoin:round; stroke-width:2; stroke-opacity:0.1; fill:none" points="156.274,426.937 2352.76,426.937 "/>
<polyline clip-path="url(#clip902)" style="stroke:#000000; stroke-linecap:round; stroke-linejoin:round; stroke-width:2; stroke-opacity:0.1; fill:none" points="156.274,158.145 2352.76,158.145 "/>
<polyline clip-path="url(#clip900)" style="stroke:#000000; stroke-linecap:round; stroke-linejoin:round; stroke-width:4; stroke-opacity:1; fill:none" points="156.274,1486.45 156.274,47.2441 "/>
<polyline clip-path="url(#clip900)" style="stroke:#000000; stroke-linecap:round; stroke-linejoin:round; stroke-width:4; stroke-opacity:1; fill:none" points="156.274,1233.32 175.172,1233.32 "/>
<polyline clip-path="url(#clip900)" style="stroke:#000000; stroke-linecap:round; stroke-linejoin:round; stroke-width:4; stroke-opacity:1; fill:none" points="156.274,964.523 175.172,964.523 "/>
<polyline clip-path="url(#clip900)" style="stroke:#000000; stroke-linecap:round; stroke-linejoin:round; stroke-width:4; stroke-opacity:1; fill:none" points="156.274,695.73 175.172,695.73 "/>
<polyline clip-path="url(#clip900)" style="stroke:#000000; stroke-linecap:round; stroke-linejoin:round; stroke-width:4; stroke-opacity:1; fill:none" points="156.274,426.937 175.172,426.937 "/>
<polyline clip-path="url(#clip900)" style="stroke:#000000; stroke-linecap:round; stroke-linejoin:round; stroke-width:4; stroke-opacity:1; fill:none" points="156.274,158.145 175.172,158.145 "/>
<path clip-path="url(#clip900)" d="M63.0985 1219.11 Q59.4875 1219.11 57.6588 1222.68 Q55.8532 1226.22 55.8532 1233.35 Q55.8532 1240.46 57.6588 1244.02 Q59.4875 1247.56 63.0985 1247.56 Q66.7328 1247.56 68.5383 1244.02 Q70.367 1240.46 70.367 1233.35 Q70.367 1226.22 68.5383 1222.68 Q66.7328 1219.11 63.0985 1219.11 M63.0985 1215.41 Q68.9087 1215.41 71.9642 1220.02 Q75.0429 1224.6 75.0429 1233.35 Q75.0429 1242.08 71.9642 1246.68 Q68.9087 1251.27 63.0985 1251.27 Q57.2884 1251.27 54.2097 1246.68 Q51.1542 1242.08 51.1542 1233.35 Q51.1542 1224.6 54.2097 1220.02 Q57.2884 1215.41 63.0985 1215.41 Z" fill="#000000" fill-rule="nonzero" fill-opacity="1" /><path clip-path="url(#clip900)" d="M83.2605 1244.72 L88.1447 1244.72 L88.1447 1250.6 L83.2605 1250.6 L83.2605 1244.72 Z" fill="#000000" fill-rule="nonzero" fill-opacity="1" /><path clip-path="url(#clip900)" d="M108.33 1219.11 Q104.719 1219.11 102.89 1222.68 Q101.084 1226.22 101.084 1233.35 Q101.084 1240.46 102.89 1244.02 Q104.719 1247.56 108.33 1247.56 Q111.964 1247.56 113.77 1244.02 Q115.598 1240.46 115.598 1233.35 Q115.598 1226.22 113.77 1222.68 Q111.964 1219.11 108.33 1219.11 M108.33 1215.41 Q114.14 1215.41 117.195 1220.02 Q120.274 1224.6 120.274 1233.35 Q120.274 1242.08 117.195 1246.68 Q114.14 1251.27 108.33 1251.27 Q102.52 1251.27 99.4409 1246.68 Q96.3854 1242.08 96.3854 1233.35 Q96.3854 1224.6 99.4409 1220.02 Q102.52 1215.41 108.33 1215.41 Z" fill="#000000" fill-rule="nonzero" fill-opacity="1" /><path clip-path="url(#clip900)" d="M63.7467 950.322 Q60.1356 950.322 58.3069 953.887 Q56.5014 957.428 56.5014 964.558 Q56.5014 971.664 58.3069 975.229 Q60.1356 978.771 63.7467 978.771 Q67.3809 978.771 69.1865 975.229 Q71.0152 971.664 71.0152 964.558 Q71.0152 957.428 69.1865 953.887 Q67.3809 950.322 63.7467 950.322 M63.7467 946.618 Q69.5568 946.618 72.6124 951.225 Q75.6911 955.808 75.6911 964.558 Q75.6911 973.285 72.6124 977.891 Q69.5568 982.475 63.7467 982.475 Q57.9365 982.475 54.8578 977.891 Q51.8023 973.285 51.8023 964.558 Q51.8023 955.808 54.8578 951.225 Q57.9365 946.618 63.7467 946.618 Z" fill="#000000" fill-rule="nonzero" fill-opacity="1" /><path clip-path="url(#clip900)" d="M83.9086 975.924 L88.7928 975.924 L88.7928 981.803 L83.9086 981.803 L83.9086 975.924 Z" fill="#000000" fill-rule="nonzero" fill-opacity="1" /><path clip-path="url(#clip900)" d="M113.145 963.169 Q116.501 963.887 118.376 966.155 Q120.274 968.424 120.274 971.757 Q120.274 976.873 116.756 979.674 Q113.237 982.475 106.756 982.475 Q104.58 982.475 102.265 982.035 Q99.9733 981.618 97.5197 980.762 L97.5197 976.248 Q99.4641 977.382 101.779 977.961 Q104.094 978.539 106.617 978.539 Q111.015 978.539 113.307 976.803 Q115.621 975.067 115.621 971.757 Q115.621 968.701 113.469 966.989 Q111.339 965.252 107.52 965.252 L103.492 965.252 L103.492 961.41 L107.705 961.41 Q111.154 961.41 112.983 960.044 Q114.811 958.655 114.811 956.063 Q114.811 953.401 112.913 951.989 Q111.038 950.553 107.52 950.553 Q105.598 950.553 103.399 950.97 Q101.2 951.387 98.5613 952.266 L98.5613 948.1 Q101.223 947.359 103.538 946.989 Q105.876 946.618 107.936 946.618 Q113.26 946.618 116.362 949.049 Q119.464 951.456 119.464 955.577 Q119.464 958.447 117.82 960.438 Q116.177 962.405 113.145 963.169 Z" fill="#000000" fill-rule="nonzero" fill-opacity="1" /><path clip-path="url(#clip900)" d="M62.9365 681.529 Q59.3254 681.529 57.4967 685.094 Q55.6912 688.636 55.6912 695.765 Q55.6912 702.872 57.4967 706.436 Q59.3254 709.978 62.9365 709.978 Q66.5707 709.978 68.3763 706.436 Q70.205 702.872 70.205 695.765 Q70.205 688.636 68.3763 685.094 Q66.5707 681.529 62.9365 681.529 M62.9365 677.825 Q68.7467 677.825 71.8022 682.432 Q74.8809 687.015 74.8809 695.765 Q74.8809 704.492 71.8022 709.098 Q68.7467 713.682 62.9365 713.682 Q57.1264 713.682 54.0477 709.098 Q50.9921 704.492 50.9921 695.765 Q50.9921 687.015 54.0477 682.432 Q57.1264 677.825 62.9365 677.825 Z" fill="#000000" fill-rule="nonzero" fill-opacity="1" /><path clip-path="url(#clip900)" d="M83.0984 707.131 L87.9827 707.131 L87.9827 713.01 L83.0984 713.01 L83.0984 707.131 Z" fill="#000000" fill-rule="nonzero" fill-opacity="1" /><path clip-path="url(#clip900)" d="M108.746 693.867 Q105.598 693.867 103.746 696.02 Q101.918 698.173 101.918 701.922 Q101.918 705.649 103.746 707.825 Q105.598 709.978 108.746 709.978 Q111.895 709.978 113.723 707.825 Q115.575 705.649 115.575 701.922 Q115.575 698.173 113.723 696.02 Q111.895 693.867 108.746 693.867 M118.029 679.214 L118.029 683.474 Q116.27 682.64 114.464 682.2 Q112.682 681.761 110.922 681.761 Q106.293 681.761 103.839 684.886 Q101.409 688.011 101.061 694.33 Q102.427 692.316 104.487 691.251 Q106.547 690.163 109.024 690.163 Q114.233 690.163 117.242 693.335 Q120.274 696.483 120.274 701.922 Q120.274 707.247 117.126 710.464 Q113.978 713.682 108.746 713.682 Q102.751 713.682 99.5798 709.098 Q96.4085 704.492 96.4085 695.765 Q96.4085 687.571 100.297 682.71 Q104.186 677.825 110.737 677.825 Q112.496 677.825 114.279 678.173 Q116.084 678.52 118.029 679.214 Z" fill="#000000" fill-rule="nonzero" fill-opacity="1" /><path clip-path="url(#clip900)" d="M63.2837 412.736 Q59.6726 412.736 57.8439 416.301 Q56.0384 419.843 56.0384 426.972 Q56.0384 434.079 57.8439 437.643 Q59.6726 441.185 63.2837 441.185 Q66.918 441.185 68.7235 437.643 Q70.5522 434.079 70.5522 426.972 Q70.5522 419.843 68.7235 416.301 Q66.918 412.736 63.2837 412.736 M63.2837 409.032 Q69.0939 409.032 72.1494 413.639 Q75.2281 418.222 75.2281 426.972 Q75.2281 435.699 72.1494 440.305 Q69.0939 444.889 63.2837 444.889 Q57.4736 444.889 54.3949 440.305 Q51.3393 435.699 51.3393 426.972 Q51.3393 418.222 54.3949 413.639 Q57.4736 409.032 63.2837 409.032 Z" fill="#000000" fill-rule="nonzero" fill-opacity="1" /><path clip-path="url(#clip900)" d="M83.4457 438.338 L88.3299 438.338 L88.3299 444.217 L83.4457 444.217 L83.4457 438.338 Z" fill="#000000" fill-rule="nonzero" fill-opacity="1" /><path clip-path="url(#clip900)" d="M98.6539 443.5 L98.6539 439.241 Q100.413 440.074 102.219 440.514 Q104.024 440.954 105.76 440.954 Q110.39 440.954 112.82 437.852 Q115.274 434.727 115.621 428.384 Q114.279 430.375 112.219 431.44 Q110.158 432.505 107.658 432.505 Q102.473 432.505 99.4409 429.38 Q96.4317 426.231 96.4317 420.792 Q96.4317 415.468 99.5798 412.25 Q102.728 409.032 107.959 409.032 Q113.955 409.032 117.103 413.639 Q120.274 418.222 120.274 426.972 Q120.274 435.143 116.385 440.028 Q112.52 444.889 105.969 444.889 Q104.209 444.889 102.404 444.542 Q100.598 444.194 98.6539 443.5 M107.959 428.847 Q111.108 428.847 112.936 426.694 Q114.788 424.542 114.788 420.792 Q114.788 417.065 112.936 414.912 Q111.108 412.736 107.959 412.736 Q104.811 412.736 102.959 414.912 Q101.131 417.065 101.131 420.792 Q101.131 424.542 102.959 426.694 Q104.811 428.847 107.959 428.847 Z" fill="#000000" fill-rule="nonzero" fill-opacity="1" /><path clip-path="url(#clip900)" d="M55.506 171.489 L63.1448 171.489 L63.1448 145.124 L54.8347 146.79 L54.8347 142.531 L63.0985 140.865 L67.7744 140.865 L67.7744 171.489 L75.4133 171.489 L75.4133 175.425 L55.506 175.425 L55.506 171.489 Z" fill="#000000" fill-rule="nonzero" fill-opacity="1" /><path clip-path="url(#clip900)" d="M84.8577 169.545 L89.7419 169.545 L89.7419 175.425 L84.8577 175.425 L84.8577 169.545 Z" fill="#000000" fill-rule="nonzero" fill-opacity="1" /><path clip-path="url(#clip900)" d="M103.955 171.489 L120.274 171.489 L120.274 175.425 L98.3298 175.425 L98.3298 171.489 Q100.992 168.735 105.575 164.105 Q110.182 159.452 111.362 158.11 Q113.608 155.587 114.487 153.851 Q115.39 152.091 115.39 150.402 Q115.39 147.647 113.445 145.911 Q111.524 144.175 108.422 144.175 Q106.223 144.175 103.77 144.939 Q101.339 145.703 98.5613 147.253 L98.5613 142.531 Q101.385 141.397 103.839 140.818 Q106.293 140.24 108.33 140.24 Q113.7 140.24 116.895 142.925 Q120.089 145.61 120.089 150.101 Q120.089 152.23 119.279 154.152 Q118.492 156.05 116.385 158.642 Q115.807 159.314 112.705 162.531 Q109.603 165.726 103.955 171.489 Z" fill="#000000" fill-rule="nonzero" fill-opacity="1" /><polyline clip-path="url(#clip902)" style="stroke:#009af9; stroke-linecap:round; stroke-linejoin:round; stroke-width:16; stroke-opacity:1; fill:none" stroke-dasharray="8, 16" points="218.439,1098.76 228.852,1092.98 239.264,1083.06 249.677,1069.5 260.09,1055.04 270.503,1045.04 280.916,1046.29 291.329,1063.83 301.741,1096.94 312.154,1137.65 322.567,1174.38 332.98,1199.67 343.393,1215.47 353.805,1230.97 364.218,1255.08 374.631,1290.04 385.044,1330.6 395.457,1367.94 405.87,1394.78 416.282,1408.56 426.695,1411.47 437.108,1408.04 447.521,1402.3 457.934,1395.89 468.347,1387.9 478.759,1376 489.172,1358.03 499.585,1333.21 509.998,1302.39 520.411,1267.7 530.824,1231.87 541.236,1197.48 551.649,1166.33 562.062,1139.18 572.475,1115.89 582.888,1095.99 593.301,1079.28 603.713,1066.09 614.126,1057.26 624.539,1053.74 634.952,1056.4 645.365,1065.86 655.777,1082.16 666.19,1104.56 676.603,1131.37 687.016,1160.56 697.429,1190.55 707.842,1220.77 718.254,1251.38 728.667,1282.49 739.08,1313.38 749.493,1342.35 759.906,1367.25 770.319,1386.44 780.731,1399.43 791.144,1406.93 801.557,1410.19 811.97,1409.88 822.383,1405.23 832.796,1394.13 843.208,1374.39 853.621,1345.86 864.034,1311.99 874.447,1278.68 884.86,1250.22 895.273,1226.03 905.685,1201.71 916.098,1173.55 926.511,1141.65 936.924,1109.62 947.337,1082.12 957.749,1062.7 968.162,1052.76 978.575,1051.71 988.988,1057.68 999.401,1068.42 1009.81,1082.09 1020.23,1097.71 1030.64,1115.21 1041.05,1135.22 1051.46,1158.67 1061.88,1186.31 1072.29,1218.33 1082.7,1254.06 1093.12,1291.75 1103.53,1328.64 1113.94,1361.26 1124.35,1386.04 1134.77,1400.31 1145.18,1403.4 1155.59,1397.45 1166.01,1387.68 1176.42,1381.65 1186.83,1387.43 1197.24,1409.39 1207.66,1439.5 1218.07,1445.72 1228.48,1372.92 1238.9,1178.8 1249.31,888.629 1259.72,597.199 1270.13,394.861 1280.55,305.506 1290.96,296.523 1301.37,321.29 1311.79,346.456 1322.2,357.18 1332.61,352.167 1343.02,337.383 1353.44,321.108 1363.85,310.395 1374.26,309.021 1384.68,317.017 1395.09,331.467 1405.5,347.951 1415.91,361.975 1426.33,369.999 1436.74,370.018 1447.15,361.745 1457.57,346.6 1467.98,327.527 1478.39,308.67 1488.8,294.788 1499.22,290.325 1509.63,298.161 1520.04,318.301 1530.45,347.065 1540.87,377.364 1551.28,400.285 1561.69,407.644 1572.11,394.72 1582.52,362.356 1592.93,317.771 1603.34,273.54 1613.76,244.422 1624.17,242.338 1634.58,271.14 1645,323.87 1655.41,384.462 1665.82,433.347 1676.23,454.261 1686.65,439.588 1697.06,392.835 1707.47,327.71 1717.89,263.931 1728.3,220.883 1738.71,211.411 1749.12,238.162 1759.54,293.518 1769.95,362.392 1780.36,426.334 1790.78,467.828 1801.19,474.295 1811.6,441.614 1822.01,376.414 1832.43,295.832 1842.84,223.562 1853.25,182.522 1863.67,186.712 1874.08,235.967 1884.49,316.061 1894.9,403.752 1905.32,474.155 1915.73,507.54 1926.14,493.905 1936.56,435.102 1946.97,344.963 1957.38,247.368 1967.79,171.295 1978.21,142.28 1988.62,172.419 1999.03,254.089 2009.45,361.962 2019.86,462.653 2030.27,526.544 2040.68,536.329 2051.1,490.293 2061.51,401.344 2071.92,293.345 2082.33,195.499 2092.75,135.179 2103.16,130.392 2113.57,184.159 2123.99,283.069 2134.4,400.685 2144.81,504.459 2155.22,563.944 2165.64,558.854 2176.05,486.204 2186.46,364.802 2196.88,232.969 2207.29,135.743 2217.7,104.86 2228.11,144.028 2238.53,230.876 2248.94,332.993 2259.35,424.378 2269.77,492.413 2280.18,535.983 2290.59,560.306 "/>
<polyline clip-path="url(#clip902)" style="stroke:#e26f46; stroke-linecap:round; stroke-linejoin:round; stroke-width:4; stroke-opacity:1; fill:none" points="218.439,1098.74 228.852,1079.65 239.264,1065.57 249.677,1056.97 260.09,1054.12 270.503,1057.12 280.916,1065.87 291.329,1080.09 301.741,1099.31 312.154,1122.9 322.567,1150.09 332.98,1180 343.393,1211.65 353.805,1244.01 364.218,1276.02 374.631,1306.64 385.044,1334.86 395.457,1359.77 405.87,1380.55 416.282,1396.52 426.695,1407.17 437.108,1412.15 447.521,1411.28 457.934,1404.62 468.347,1392.35 478.759,1374.9 489.172,1352.83 499.585,1326.86 509.998,1297.83 520.411,1266.7 530.824,1234.48 541.236,1202.22 551.649,1170.98 562.062,1141.77 572.475,1115.55 582.888,1093.17 593.301,1075.36 603.713,1062.71 614.126,1055.63 624.539,1054.35 634.952,1058.91 645.365,1069.16 655.777,1084.77 666.19,1105.23 676.603,1129.87 687.016,1157.88 697.429,1188.36 707.842,1220.3 718.254,1252.67 728.667,1284.4 739.08,1314.47 749.493,1341.89 759.906,1365.77 770.319,1385.32 780.731,1399.92 791.144,1409.07 801.557,1412.49 811.97,1410.06 822.383,1401.86 832.796,1388.17 843.208,1369.41 853.621,1346.22 864.034,1319.34 874.447,1289.66 884.86,1258.13 895.273,1225.8 905.685,1193.71 916.098,1162.91 926.511,1134.41 936.924,1109.14 947.337,1087.92 957.749,1071.45 968.162,1060.26 978.575,1054.72 988.988,1055 999.401,1061.11 1009.81,1072.84 1020.23,1089.8 1030.64,1111.45 1041.05,1137.08 1051.46,1165.84 1061.88,1196.81 1072.29,1228.97 1082.7,1261.28 1093.12,1292.67 1103.53,1322.12 1113.94,1348.67 1124.35,1371.46 1134.77,1389.74 1145.18,1402.92 1155.59,1410.56 1166.01,1412.41 1176.42,1408.42 1186.83,1398.72 1197.24,1383.62 1207.66,1363.61 1218.07,1339.35 1228.48,1311.62 1238.9,1281.35 1249.31,1249.5 1259.72,336.039 1270.13,334.558 1280.55,335.906 1290.96,340.392 1301.37,346.642 1311.79,352.016 1322.2,353.607 1332.61,349.473 1343.02,339.617 1353.44,326.33 1363.85,313.687 1374.26,306.301 1384.68,307.718 1395.09,318.987 1405.5,337.942 1415.91,359.514 1426.33,377.08 1436.74,384.49 1447.15,378.147 1457.57,358.466 1467.98,330.158 1478.39,301.147 1488.8,280.354 1499.22,274.968 1509.63,288.025 1520.04,317.116 1530.45,354.686 1540.87,389.978 1551.28,412.113 1561.69,413.424 1572.11,392.04 1582.52,352.849 1592.93,306.458 1603.34,266.33 1613.76,244.878 1624.17,249.648 1634.58,280.748 1645,330.397 1655.41,384.824 1665.82,428.088 1676.23,446.741 1686.65,433.986 1697.06,392.042 1707.47,331.925 1717.89,270.577 1728.3,226.094 1738.71,212.395 1749.12,234.89 1759.54,288.507 1769.95,358.747 1780.36,425.59 1790.78,469.199 1801.19,475.805 1811.6,442.014 1822.01,376.219 1832.43,296.559 1842.84,225.933 1853.25,185.416 1863.67,187.978 1874.08,234.375 1884.49,312.504 1894.9,400.529 1905.32,472.975 1915.73,508.104 1926.14,494.424 1936.56,434.395 1946.97,344.141 1957.38,249.143 1967.79,177.049 1978.21,149.626 1988.62,176.202 1999.03,250.572 2009.45,352.372 2019.86,452.633 2030.27,522.033 2040.68,539.465 2051.1,498.437 2061.51,409.365 2071.92,296.974 2082.33,193.445 2092.75,129.196 2103.16,123.955 2113.57,180.724 2123.99,284.486 2134.4,406.15 2144.81,510.7 2155.22,567.274 2165.64,558.266 2176.05,484.777 2186.46,366.721 2196.88,237.452 2207.29,134.341 2217.7,87.9763 2228.11,113.094 2238.53,203.939 2248.94,335.5 2259.35,470.379 2269.77,569.427 2280.18,603.096 2290.59,560.252 "/>
<path clip-path="url(#clip900)" d="M229.49 250.738 L675.966 250.738 L675.966 95.2176 L229.49 95.2176  Z" fill="#ffffff" fill-rule="evenodd" fill-opacity="1"/>
<polyline clip-path="url(#clip900)" style="stroke:#000000; stroke-linecap:round; stroke-linejoin:round; stroke-width:4; stroke-opacity:1; fill:none" points="229.49,250.738 675.966,250.738 675.966,95.2176 229.49,95.2176 229.49,250.738 "/>
<polyline clip-path="url(#clip900)" style="stroke:#009af9; stroke-linecap:round; stroke-linejoin:round; stroke-width:16; stroke-opacity:1; fill:none" stroke-dasharray="8, 16" points="253.896,147.058 400.328,147.058 "/>
<path clip-path="url(#clip900)" d="M429.409 133.62 L429.409 146.606 L435.289 146.606 Q438.552 146.606 440.335 144.916 Q442.117 143.227 442.117 140.102 Q442.117 137 440.335 135.31 Q438.552 133.62 435.289 133.62 L429.409 133.62 M424.733 129.778 L435.289 129.778 Q441.099 129.778 444.062 132.416 Q447.048 135.032 447.048 140.102 Q447.048 145.217 444.062 147.833 Q441.099 150.449 435.289 150.449 L429.409 150.449 L429.409 164.338 L424.733 164.338 L424.733 129.778 Z" fill="#000000" fill-rule="nonzero" fill-opacity="1" /><path clip-path="url(#clip900)" d="M467.325 142.393 Q466.608 141.977 465.751 141.791 Q464.918 141.583 463.899 141.583 Q460.288 141.583 458.344 143.944 Q456.423 146.282 456.423 150.68 L456.423 164.338 L452.14 164.338 L452.14 138.412 L456.423 138.412 L456.423 142.44 Q457.765 140.078 459.918 138.944 Q462.071 137.787 465.149 137.787 Q465.589 137.787 466.122 137.856 Q466.654 137.903 467.302 138.018 L467.325 142.393 Z" fill="#000000" fill-rule="nonzero" fill-opacity="1" /><path clip-path="url(#clip900)" d="M492.927 150.31 L492.927 152.393 L473.344 152.393 Q473.622 156.791 475.983 159.106 Q478.367 161.398 482.603 161.398 Q485.057 161.398 487.348 160.796 Q489.663 160.194 491.932 158.99 L491.932 163.018 Q489.64 163.99 487.233 164.5 Q484.825 165.009 482.348 165.009 Q476.145 165.009 472.511 161.398 Q468.899 157.787 468.899 151.629 Q468.899 145.264 472.325 141.537 Q475.774 137.787 481.608 137.787 Q486.839 137.787 489.872 141.166 Q492.927 144.523 492.927 150.31 M488.668 149.06 Q488.622 145.565 486.7 143.481 Q484.802 141.398 481.654 141.398 Q478.089 141.398 475.936 143.412 Q473.807 145.426 473.483 149.083 L488.668 149.06 Z" fill="#000000" fill-rule="nonzero" fill-opacity="1" /><path clip-path="url(#clip900)" d="M516.978 142.347 L516.978 128.319 L521.237 128.319 L521.237 164.338 L516.978 164.338 L516.978 160.449 Q515.635 162.763 513.575 163.898 Q511.538 165.009 508.668 165.009 Q503.969 165.009 501.006 161.259 Q498.066 157.509 498.066 151.398 Q498.066 145.287 501.006 141.537 Q503.969 137.787 508.668 137.787 Q511.538 137.787 513.575 138.921 Q515.635 140.032 516.978 142.347 M502.464 151.398 Q502.464 156.097 504.385 158.782 Q506.33 161.444 509.709 161.444 Q513.089 161.444 515.033 158.782 Q516.978 156.097 516.978 151.398 Q516.978 146.699 515.033 144.037 Q513.089 141.352 509.709 141.352 Q506.33 141.352 504.385 144.037 Q502.464 146.699 502.464 151.398 Z" fill="#000000" fill-rule="nonzero" fill-opacity="1" /><path clip-path="url(#clip900)" d="M530.01 138.412 L534.269 138.412 L534.269 164.338 L530.01 164.338 L530.01 138.412 M530.01 128.319 L534.269 128.319 L534.269 133.713 L530.01 133.713 L530.01 128.319 Z" fill="#000000" fill-rule="nonzero" fill-opacity="1" /><path clip-path="url(#clip900)" d="M561.839 139.407 L561.839 143.389 Q560.033 142.393 558.205 141.907 Q556.399 141.398 554.547 141.398 Q550.404 141.398 548.112 144.037 Q545.82 146.652 545.82 151.398 Q545.82 156.143 548.112 158.782 Q550.404 161.398 554.547 161.398 Q556.399 161.398 558.205 160.912 Q560.033 160.402 561.839 159.407 L561.839 163.342 Q560.056 164.176 558.135 164.592 Q556.237 165.009 554.084 165.009 Q548.228 165.009 544.779 161.328 Q541.33 157.648 541.33 151.398 Q541.33 145.055 544.802 141.421 Q548.297 137.787 554.362 137.787 Q556.33 137.787 558.205 138.203 Q560.08 138.597 561.839 139.407 Z" fill="#000000" fill-rule="nonzero" fill-opacity="1" /><path clip-path="url(#clip900)" d="M573.459 131.051 L573.459 138.412 L582.232 138.412 L582.232 141.722 L573.459 141.722 L573.459 155.796 Q573.459 158.967 574.316 159.87 Q575.195 160.773 577.857 160.773 L582.232 160.773 L582.232 164.338 L577.857 164.338 Q572.927 164.338 571.052 162.509 Q569.177 160.657 569.177 155.796 L569.177 141.722 L566.052 141.722 L566.052 138.412 L569.177 138.412 L569.177 131.051 L573.459 131.051 Z" fill="#000000" fill-rule="nonzero" fill-opacity="1" /><path clip-path="url(#clip900)" d="M587.834 138.412 L592.093 138.412 L592.093 164.338 L587.834 164.338 L587.834 138.412 M587.834 128.319 L592.093 128.319 L592.093 133.713 L587.834 133.713 L587.834 128.319 Z" fill="#000000" fill-rule="nonzero" fill-opacity="1" /><path clip-path="url(#clip900)" d="M611.051 141.398 Q607.626 141.398 605.635 144.083 Q603.644 146.745 603.644 151.398 Q603.644 156.051 605.612 158.736 Q607.602 161.398 611.051 161.398 Q614.454 161.398 616.445 158.713 Q618.436 156.027 618.436 151.398 Q618.436 146.791 616.445 144.106 Q614.454 141.398 611.051 141.398 M611.051 137.787 Q616.607 137.787 619.778 141.398 Q622.95 145.009 622.95 151.398 Q622.95 157.764 619.778 161.398 Q616.607 165.009 611.051 165.009 Q605.473 165.009 602.302 161.398 Q599.153 157.764 599.153 151.398 Q599.153 145.009 602.302 141.398 Q605.473 137.787 611.051 137.787 Z" fill="#000000" fill-rule="nonzero" fill-opacity="1" /><path clip-path="url(#clip900)" d="M651.561 148.689 L651.561 164.338 L647.301 164.338 L647.301 148.828 Q647.301 145.148 645.866 143.319 Q644.431 141.49 641.561 141.49 Q638.112 141.49 636.121 143.69 Q634.13 145.889 634.13 149.685 L634.13 164.338 L629.848 164.338 L629.848 138.412 L634.13 138.412 L634.13 142.44 Q635.658 140.102 637.718 138.944 Q639.801 137.787 642.51 137.787 Q646.977 137.787 649.269 140.565 Q651.561 143.319 651.561 148.689 Z" fill="#000000" fill-rule="nonzero" fill-opacity="1" /><polyline clip-path="url(#clip900)" style="stroke:#e26f46; stroke-linecap:round; stroke-linejoin:round; stroke-width:4; stroke-opacity:1; fill:none" points="253.896,198.898 400.328,198.898 "/>
<path clip-path="url(#clip900)" d="M424.733 181.618 L446.585 181.618 L446.585 185.553 L429.409 185.553 L429.409 195.784 L445.867 195.784 L445.867 199.719 L429.409 199.719 L429.409 212.242 L447.001 212.242 L447.001 216.178 L424.733 216.178 L424.733 181.618 Z" fill="#000000" fill-rule="nonzero" fill-opacity="1" /><path clip-path="url(#clip900)" d="M476.052 190.252 L466.677 202.867 L476.538 216.178 L471.515 216.178 L463.969 205.992 L456.423 216.178 L451.4 216.178 L461.469 202.613 L452.256 190.252 L457.279 190.252 L464.154 199.488 L471.029 190.252 L476.052 190.252 Z" fill="#000000" fill-rule="nonzero" fill-opacity="1" /><path clip-path="url(#clip900)" d="M494.339 203.145 Q489.177 203.145 487.186 204.326 Q485.196 205.506 485.196 208.354 Q485.196 210.622 486.677 211.965 Q488.182 213.284 490.751 213.284 Q494.293 213.284 496.422 210.784 Q498.575 208.261 498.575 204.094 L498.575 203.145 L494.339 203.145 M502.834 201.386 L502.834 216.178 L498.575 216.178 L498.575 212.242 Q497.117 214.603 494.941 215.738 Q492.765 216.849 489.617 216.849 Q485.635 216.849 483.274 214.627 Q480.936 212.381 480.936 208.631 Q480.936 204.256 483.853 202.034 Q486.793 199.812 492.603 199.812 L498.575 199.812 L498.575 199.395 Q498.575 196.455 496.631 194.858 Q494.71 193.238 491.214 193.238 Q488.992 193.238 486.885 193.77 Q484.779 194.303 482.835 195.367 L482.835 191.432 Q485.173 190.53 487.372 190.09 Q489.571 189.627 491.654 189.627 Q497.279 189.627 500.057 192.543 Q502.834 195.46 502.834 201.386 Z" fill="#000000" fill-rule="nonzero" fill-opacity="1" /><path clip-path="url(#clip900)" d="M530.265 191.247 L530.265 195.229 Q528.459 194.233 526.631 193.747 Q524.825 193.238 522.973 193.238 Q518.83 193.238 516.538 195.877 Q514.246 198.492 514.246 203.238 Q514.246 207.983 516.538 210.622 Q518.83 213.238 522.973 213.238 Q524.825 213.238 526.631 212.752 Q528.459 212.242 530.265 211.247 L530.265 215.182 Q528.482 216.016 526.561 216.432 Q524.663 216.849 522.51 216.849 Q516.654 216.849 513.205 213.168 Q509.756 209.488 509.756 203.238 Q509.756 196.895 513.228 193.261 Q516.723 189.627 522.788 189.627 Q524.756 189.627 526.631 190.043 Q528.506 190.437 530.265 191.247 Z" fill="#000000" fill-rule="nonzero" fill-opacity="1" /><path clip-path="url(#clip900)" d="M541.885 182.891 L541.885 190.252 L550.658 190.252 L550.658 193.562 L541.885 193.562 L541.885 207.636 Q541.885 210.807 542.742 211.71 Q543.621 212.613 546.283 212.613 L550.658 212.613 L550.658 216.178 L546.283 216.178 Q541.353 216.178 539.478 214.349 Q537.603 212.497 537.603 207.636 L537.603 193.562 L534.478 193.562 L534.478 190.252 L537.603 190.252 L537.603 182.891 L541.885 182.891 Z" fill="#000000" fill-rule="nonzero" fill-opacity="1" /></svg>
