<?xml version="1.0" encoding="utf-8"?>
<svg xmlns="http://www.w3.org/2000/svg" xmlns:xlink="http://www.w3.org/1999/xlink" width="600" height="400" viewBox="0 0 2400 1600">
<defs>
  <clipPath id="clip960">
    <rect x="0" y="0" width="2400" height="1600"/>
  </clipPath>
</defs>
<path clip-path="url(#clip960)" d="M0 1600 L2400 1600 L2400 0 L0 0  Z" fill="#ffffff" fill-rule="evenodd" fill-opacity="1"/>
<defs>
  <clipPath id="clip961">
    <rect x="480" y="0" width="1681" height="1600"/>
  </clipPath>
</defs>
<path clip-path="url(#clip960)" d="M156.274 1486.45 L2352.76 1486.45 L2352.76 47.2441 L156.274 47.2441  Z" fill="#ffffff" fill-rule="evenodd" fill-opacity="1"/>
<defs>
  <clipPath id="clip962">
    <rect x="156" y="47" width="2197" height="1440"/>
  </clipPath>
</defs>
<polyline clip-path="url(#clip962)" style="stroke:#000000; stroke-linecap:round; stroke-linejoin:round; stroke-width:2; stroke-opacity:0.1; fill:none" points="218.439,1486.45 218.439,47.2441 "/>
<polyline clip-path="url(#clip962)" style="stroke:#000000; stroke-linecap:round; stroke-linejoin:round; stroke-width:2; stroke-opacity:0.1; fill:none" points="736.477,1486.45 736.477,47.2441 "/>
<polyline clip-path="url(#clip962)" style="stroke:#000000; stroke-linecap:round; stroke-linejoin:round; stroke-width:2; stroke-opacity:0.1; fill:none" points="1254.52,1486.45 1254.52,47.2441 "/>
<polyline clip-path="url(#clip962)" style="stroke:#000000; stroke-linecap:round; stroke-linejoin:round; stroke-width:2; stroke-opacity:0.1; fill:none" points="1772.55,1486.45 1772.55,47.2441 "/>
<polyline clip-path="url(#clip962)" style="stroke:#000000; stroke-linecap:round; stroke-linejoin:round; stroke-width:2; stroke-opacity:0.1; fill:none" points="2290.59,1486.45 2290.59,47.2441 "/>
<polyline clip-path="url(#clip960)" style="stroke:#000000; stroke-linecap:round; stroke-linejoin:round; stroke-width:4; stroke-opacity:1; fill:none" points="156.274,1486.45 2352.76,1486.45 "/>
<polyline clip-path="url(#clip960)" style="stroke:#000000; stroke-linecap:round; stroke-linejoin:round; stroke-width:4; stroke-opacity:1; fill:none" points="218.439,1486.45 218.439,1467.55 "/>
<polyline clip-path="url(#clip960)" style="stroke:#000000; stroke-linecap:round; stroke-linejoin:round; stroke-width:4; stroke-opacity:1; fill:none" points="736.477,1486.45 736.477,1467.55 "/>
<polyline clip-path="url(#clip960)" style="stroke:#000000; stroke-linecap:round; stroke-linejoin:round; stroke-width:4; stroke-opacity:1; fill:none" points="1254.52,1486.45 1254.52,1467.55 "/>
<polyline clip-path="url(#clip960)" style="stroke:#000000; stroke-linecap:round; stroke-linejoin:round; stroke-width:4; stroke-opacity:1; fill:none" points="1772.55,1486.45 1772.55,1467.55 "/>
<polyline clip-path="url(#clip960)" style="stroke:#000000; stroke-linecap:round; stroke-linejoin:round; stroke-width:4; stroke-opacity:1; fill:none" points="2290.59,1486.45 2290.59,1467.55 "/>
<path clip-path="url(#clip960)" d="M164.967 1532.02 L194.643 1532.02 L194.643 1535.95 L164.967 1535.95 L164.967 1532.02 Z" fill="#000000" fill-rule="nonzero" fill-opacity="1" /><path clip-path="url(#clip960)" d="M205.545 1544.91 L213.184 1544.91 L213.184 1518.55 L204.874 1520.21 L204.874 1515.95 L213.138 1514.29 L217.814 1514.29 L217.814 1544.91 L225.453 1544.91 L225.453 1548.85 L205.545 1548.85 L205.545 1544.91 Z" fill="#000000" fill-rule="nonzero" fill-opacity="1" /><path clip-path="url(#clip960)" d="M234.897 1542.97 L239.781 1542.97 L239.781 1548.85 L234.897 1548.85 L234.897 1542.97 Z" fill="#000000" fill-rule="nonzero" fill-opacity="1" /><path clip-path="url(#clip960)" d="M259.966 1517.37 Q256.355 1517.37 254.527 1520.93 Q252.721 1524.47 252.721 1531.6 Q252.721 1538.71 254.527 1542.27 Q256.355 1545.82 259.966 1545.82 Q263.601 1545.82 265.406 1542.27 Q267.235 1538.71 267.235 1531.6 Q267.235 1524.47 265.406 1520.93 Q263.601 1517.37 259.966 1517.37 M259.966 1513.66 Q265.776 1513.66 268.832 1518.27 Q271.911 1522.85 271.911 1531.6 Q271.911 1540.33 268.832 1544.94 Q265.776 1549.52 259.966 1549.52 Q254.156 1549.52 251.077 1544.94 Q248.022 1540.33 248.022 1531.6 Q248.022 1522.85 251.077 1518.27 Q254.156 1513.66 259.966 1513.66 Z" fill="#000000" fill-rule="nonzero" fill-opacity="1" /><path clip-path="url(#clip960)" d="M683.503 1532.02 L713.178 1532.02 L713.178 1535.95 L683.503 1535.95 L683.503 1532.02 Z" fill="#000000" fill-rule="nonzero" fill-opacity="1" /><path clip-path="url(#clip960)" d="M733.271 1517.37 Q729.66 1517.37 727.831 1520.93 Q726.026 1524.47 726.026 1531.6 Q726.026 1538.71 727.831 1542.27 Q729.66 1545.82 733.271 1545.82 Q736.905 1545.82 738.711 1542.27 Q740.539 1538.71 740.539 1531.6 Q740.539 1524.47 738.711 1520.93 Q736.905 1517.37 733.271 1517.37 M733.271 1513.66 Q739.081 1513.66 742.137 1518.27 Q745.215 1522.85 745.215 1531.6 Q745.215 1540.33 742.137 1544.94 Q739.081 1549.52 733.271 1549.52 Q727.461 1549.52 724.382 1544.94 Q721.327 1540.33 721.327 1531.6 Q721.327 1522.85 724.382 1518.27 Q727.461 1513.66 733.271 1513.66 Z" fill="#000000" fill-rule="nonzero" fill-opacity="1" /><path clip-path="url(#clip960)" d="M753.433 1542.97 L758.317 1542.97 L758.317 1548.85 L753.433 1548.85 L753.433 1542.97 Z" fill="#000000" fill-rule="nonzero" fill-opacity="1" /><path clip-path="url(#clip960)" d="M768.548 1514.29 L786.905 1514.29 L786.905 1518.22 L772.831 1518.22 L772.831 1526.7 Q773.849 1526.35 774.868 1526.19 Q775.886 1526 776.905 1526 Q782.692 1526 786.072 1529.17 Q789.451 1532.34 789.451 1537.76 Q789.451 1543.34 785.979 1546.44 Q782.507 1549.52 776.187 1549.52 Q774.011 1549.52 771.743 1549.15 Q769.498 1548.78 767.09 1548.04 L767.09 1543.34 Q769.173 1544.47 771.396 1545.03 Q773.618 1545.58 776.095 1545.58 Q780.099 1545.58 782.437 1543.48 Q784.775 1541.37 784.775 1537.76 Q784.775 1534.15 782.437 1532.04 Q780.099 1529.94 776.095 1529.94 Q774.22 1529.94 772.345 1530.35 Q770.493 1530.77 768.548 1531.65 L768.548 1514.29 Z" fill="#000000" fill-rule="nonzero" fill-opacity="1" /><path clip-path="url(#clip960)" d="M1231.9 1517.37 Q1228.29 1517.37 1226.46 1520.93 Q1224.65 1524.47 1224.65 1531.6 Q1224.65 1538.71 1226.46 1542.27 Q1228.29 1545.82 1231.9 1545.82 Q1235.53 1545.82 1237.34 1542.27 Q1239.17 1538.71 1239.17 1531.6 Q1239.17 1524.47 1237.34 1520.93 Q1235.53 1517.37 1231.9 1517.37 M1231.9 1513.66 Q1237.71 1513.66 1240.77 1518.27 Q1243.84 1522.85 1243.84 1531.6 Q1243.84 1540.33 1240.77 1544.94 Q1237.71 1549.52 1231.9 1549.52 Q1226.09 1549.52 1223.01 1544.94 Q1219.96 1540.33 1219.96 1531.6 Q1219.96 1522.85 1223.01 1518.27 Q1226.09 1513.66 1231.9 1513.66 Z" fill="#000000" fill-rule="nonzero" fill-opacity="1" /><path clip-path="url(#clip960)" d="M1252.06 1542.97 L1256.95 1542.97 L1256.95 1548.85 L1252.06 1548.85 L1252.06 1542.97 Z" fill="#000000" fill-rule="nonzero" fill-opacity="1" /><path clip-path="url(#clip960)" d="M1277.13 1517.37 Q1273.52 1517.37 1271.69 1520.93 Q1269.89 1524.47 1269.89 1531.6 Q1269.89 1538.71 1271.69 1542.27 Q1273.52 1545.82 1277.13 1545.82 Q1280.76 1545.82 1282.57 1542.27 Q1284.4 1538.71 1284.4 1531.6 Q1284.4 1524.47 1282.57 1520.93 Q1280.76 1517.37 1277.13 1517.37 M1277.13 1513.66 Q1282.94 1513.66 1286 1518.27 Q1289.08 1522.85 1289.08 1531.6 Q1289.08 1540.33 1286 1544.94 Q1282.94 1549.52 1277.13 1549.52 Q1271.32 1549.52 1268.24 1544.94 Q1265.19 1540.33 1265.19 1531.6 Q1265.19 1522.85 1268.24 1518.27 Q1271.32 1513.66 1277.13 1513.66 Z" fill="#000000" fill-rule="nonzero" fill-opacity="1" /><path clip-path="url(#clip960)" d="M1750.44 1517.37 Q1746.82 1517.37 1745 1520.93 Q1743.19 1524.47 1743.19 1531.6 Q1743.19 1538.71 1745 1542.27 Q1746.82 1545.82 1750.44 1545.82 Q1754.07 1545.82 1755.88 1542.27 Q1757.7 1538.71 1757.7 1531.6 Q1757.7 1524.47 1755.88 1520.93 Q1754.07 1517.37 1750.44 1517.37 M1750.44 1513.66 Q1756.25 1513.66 1759.3 1518.27 Q1762.38 1522.85 1762.38 1531.6 Q1762.38 1540.33 1759.3 1544.94 Q1756.25 1549.52 1750.44 1549.52 Q1744.63 1549.52 1741.55 1544.94 Q1738.49 1540.33 1738.49 1531.6 Q1738.49 1522.85 1741.55 1518.27 Q1744.63 1513.66 1750.44 1513.66 Z" fill="#000000" fill-rule="nonzero" fill-opacity="1" /><path clip-path="url(#clip960)" d="M1770.6 1542.97 L1775.48 1542.97 L1775.48 1548.85 L1770.6 1548.85 L1770.6 1542.97 Z" fill="#000000" fill-rule="nonzero" fill-opacity="1" /><path clip-path="url(#clip960)" d="M1785.71 1514.29 L1804.07 1514.29 L1804.07 1518.22 L1790 1518.22 L1790 1526.7 Q1791.01 1526.35 1792.03 1526.19 Q1793.05 1526 1794.07 1526 Q1799.86 1526 1803.24 1529.17 Q1806.62 1532.34 1806.62 1537.76 Q1806.62 1543.34 1803.14 1546.44 Q1799.67 1549.52 1793.35 1549.52 Q1791.18 1549.52 1788.91 1549.15 Q1786.66 1548.78 1784.25 1548.04 L1784.25 1543.34 Q1786.34 1544.47 1788.56 1545.03 Q1790.78 1545.58 1793.26 1545.58 Q1797.26 1545.58 1799.6 1543.48 Q1801.94 1541.37 1801.94 1537.76 Q1801.94 1534.15 1799.6 1532.04 Q1797.26 1529.94 1793.26 1529.94 Q1791.38 1529.94 1789.51 1530.35 Q1787.66 1530.77 1785.71 1531.65 L1785.71 1514.29 Z" fill="#000000" fill-rule="nonzero" fill-opacity="1" /><path clip-path="url(#clip960)" d="M2257.74 1544.91 L2265.38 1544.91 L2265.38 1518.55 L2257.07 1520.21 L2257.07 1515.95 L2265.34 1514.29 L2270.01 1514.29 L2270.01 1544.91 L2277.65 1544.91 L2277.65 1548.85 L2257.74 1548.85 L2257.74 1544.91 Z" fill="#000000" fill-rule="nonzero" fill-opacity="1" /><path clip-path="url(#clip960)" d="M2287.1 1542.97 L2291.98 1542.97 L2291.98 1548.85 L2287.1 1548.85 L2287.1 1542.97 Z" fill="#000000" fill-rule="nonzero" fill-opacity="1" /><path clip-path="url(#clip960)" d="M2312.17 1517.37 Q2308.55 1517.37 2306.73 1520.93 Q2304.92 1524.47 2304.92 1531.6 Q2304.92 1538.71 2306.73 1542.27 Q2308.55 1545.82 2312.17 1545.82 Q2315.8 1545.82 2317.61 1542.27 Q2319.43 1538.71 2319.43 1531.6 Q2319.43 1524.47 2317.61 1520.93 Q2315.8 1517.37 2312.17 1517.37 M2312.17 1513.66 Q2317.98 1513.66 2321.03 1518.27 Q2324.11 1522.85 2324.11 1531.6 Q2324.11 1540.33 2321.03 1544.94 Q2317.98 1549.52 2312.17 1549.52 Q2306.36 1549.52 2303.28 1544.94 Q2300.22 1540.33 2300.22 1531.6 Q2300.22 1522.85 2303.28 1518.27 Q2306.36 1513.66 2312.17 1513.66 Z" fill="#000000" fill-rule="nonzero" fill-opacity="1" /><polyline clip-path="url(#clip962)" style="stroke:#000000; stroke-linecap:round; stroke-linejoin:round; stroke-width:2; stroke-opacity:0.1; fill:none" points="156.274,1261.07 2352.76,1261.07 "/>
<polyline clip-path="url(#clip962)" style="stroke:#000000; stroke-linecap:round; stroke-linejoin:round; stroke-width:2; stroke-opacity:0.1; fill:none" points="156.274,985.767 2352.76,985.767 "/>
<polyline clip-path="url(#clip962)" style="stroke:#000000; stroke-linecap:round; stroke-linejoin:round; stroke-width:2; stroke-opacity:0.1; fill:none" points="156.274,710.46 2352.76,710.46 "/>
<polyline clip-path="url(#clip962)" style="stroke:#000000; stroke-linecap:round; stroke-linejoin:round; stroke-width:2; stroke-opacity:0.1; fill:none" points="156.274,435.152 2352.76,435.152 "/>
<polyline clip-path="url(#clip962)" style="stroke:#000000; stroke-linecap:round; stroke-linejoin:round; stroke-width:2; stroke-opacity:0.1; fill:none" points="156.274,159.845 2352.76,159.845 "/>
<polyline clip-path="url(#clip960)" style="stroke:#000000; stroke-linecap:round; stroke-linejoin:round; stroke-width:4; stroke-opacity:1; fill:none" points="156.274,1486.45 156.274,47.2441 "/>
<polyline clip-path="url(#clip960)" style="stroke:#000000; stroke-linecap:round; stroke-linejoin:round; stroke-width:4; stroke-opacity:1; fill:none" points="156.274,1261.07 175.172,1261.07 "/>
<polyline clip-path="url(#clip960)" style="stroke:#000000; stroke-linecap:round; stroke-linejoin:round; stroke-width:4; stroke-opacity:1; fill:none" points="156.274,985.767 175.172,985.767 "/>
<polyline clip-path="url(#clip960)" style="stroke:#000000; stroke-linecap:round; stroke-linejoin:round; stroke-width:4; stroke-opacity:1; fill:none" points="156.274,710.46 175.172,710.46 "/>
<polyline clip-path="url(#clip960)" style="stroke:#000000; stroke-linecap:round; stroke-linejoin:round; stroke-width:4; stroke-opacity:1; fill:none" points="156.274,435.152 175.172,435.152 "/>
<polyline clip-path="url(#clip960)" style="stroke:#000000; stroke-linecap:round; stroke-linejoin:round; stroke-width:4; stroke-opacity:1; fill:none" points="156.274,159.845 175.172,159.845 "/>
<path clip-path="url(#clip960)" d="M63.0985 1246.87 Q59.4875 1246.87 57.6588 1250.44 Q55.8532 1253.98 55.8532 1261.11 Q55.8532 1268.22 57.6588 1271.78 Q59.4875 1275.32 63.0985 1275.32 Q66.7328 1275.32 68.5383 1271.78 Q70.367 1268.22 70.367 1261.11 Q70.367 1253.98 68.5383 1250.44 Q66.7328 1246.87 63.0985 1246.87 M63.0985 1243.17 Q68.9087 1243.17 71.9642 1247.78 Q75.0429 1252.36 75.0429 1261.11 Q75.0429 1269.84 71.9642 1274.44 Q68.9087 1279.03 63.0985 1279.03 Q57.2884 1279.03 54.2097 1274.44 Q51.1542 1269.84 51.1542 1261.11 Q51.1542 1252.36 54.2097 1247.78 Q57.2884 1243.17 63.0985 1243.17 Z" fill="#000000" fill-rule="nonzero" fill-opacity="1" /><path clip-path="url(#clip960)" d="M83.2605 1272.47 L88.1447 1272.47 L88.1447 1278.35 L83.2605 1278.35 L83.2605 1272.47 Z" fill="#000000" fill-rule="nonzero" fill-opacity="1" /><path clip-path="url(#clip960)" d="M108.33 1246.87 Q104.719 1246.87 102.89 1250.44 Q101.084 1253.98 101.084 1261.11 Q101.084 1268.22 102.89 1271.78 Q104.719 1275.32 108.33 1275.32 Q111.964 1275.32 113.77 1271.78 Q115.598 1268.22 115.598 1261.11 Q115.598 1253.98 113.77 1250.44 Q111.964 1246.87 108.33 1246.87 M108.33 1243.17 Q114.14 1243.17 117.195 1247.78 Q120.274 1252.36 120.274 1261.11 Q120.274 1269.84 117.195 1274.44 Q114.14 1279.03 108.33 1279.03 Q102.52 1279.03 99.4409 1274.44 Q96.3854 1269.84 96.3854 1261.11 Q96.3854 1252.36 99.4409 1247.78 Q102.52 1243.17 108.33 1243.17 Z" fill="#000000" fill-rule="nonzero" fill-opacity="1" /><path clip-path="url(#clip960)" d="M63.7467 971.566 Q60.1356 971.566 58.3069 975.13 Q56.5014 978.672 56.5014 985.802 Q56.5014 992.908 58.3069 996.473 Q60.1356 1000.01 63.7467 1000.01 Q67.3809 1000.01 69.1865 996.473 Q71.0152 992.908 71.0152 985.802 Q71.0152 978.672 69.1865 975.13 Q67.3809 971.566 63.7467 971.566 M63.7467 967.862 Q69.5568 967.862 72.6124 972.468 Q75.6911 977.052 75.6911 985.802 Q75.6911 994.529 72.6124 999.135 Q69.5568 1003.72 63.7467 1003.72 Q57.9365 1003.72 54.8578 999.135 Q51.8023 994.529 51.8023 985.802 Q51.8023 977.052 54.8578 972.468 Q57.9365 967.862 63.7467 967.862 Z" fill="#000000" fill-rule="nonzero" fill-opacity="1" /><path clip-path="url(#clip960)" d="M83.9086 997.167 L88.7928 997.167 L88.7928 1003.05 L83.9086 1003.05 L83.9086 997.167 Z" fill="#000000" fill-rule="nonzero" fill-opacity="1" /><path clip-path="url(#clip960)" d="M113.145 984.413 Q116.501 985.13 118.376 987.399 Q120.274 989.667 120.274 993.001 Q120.274 998.116 116.756 1000.92 Q113.237 1003.72 106.756 1003.72 Q104.58 1003.72 102.265 1003.28 Q99.9733 1002.86 97.5197 1002.01 L97.5197 997.491 Q99.4641 998.626 101.779 999.204 Q104.094 999.783 106.617 999.783 Q111.015 999.783 113.307 998.047 Q115.621 996.311 115.621 993.001 Q115.621 989.945 113.469 988.232 Q111.339 986.496 107.52 986.496 L103.492 986.496 L103.492 982.654 L107.705 982.654 Q111.154 982.654 112.983 981.288 Q114.811 979.899 114.811 977.306 Q114.811 974.644 112.913 973.232 Q111.038 971.797 107.52 971.797 Q105.598 971.797 103.399 972.214 Q101.2 972.631 98.5613 973.51 L98.5613 969.343 Q101.223 968.603 103.538 968.232 Q105.876 967.862 107.936 967.862 Q113.26 967.862 116.362 970.293 Q119.464 972.7 119.464 976.82 Q119.464 979.691 117.82 981.681 Q116.177 983.649 113.145 984.413 Z" fill="#000000" fill-rule="nonzero" fill-opacity="1" /><path clip-path="url(#clip960)" d="M62.9365 696.258 Q59.3254 696.258 57.4967 699.823 Q55.6912 703.365 55.6912 710.494 Q55.6912 717.601 57.4967 721.166 Q59.3254 724.707 62.9365 724.707 Q66.5707 724.707 68.3763 721.166 Q70.205 717.601 70.205 710.494 Q70.205 703.365 68.3763 699.823 Q66.5707 696.258 62.9365 696.258 M62.9365 692.555 Q68.7467 692.555 71.8022 697.161 Q74.8809 701.745 74.8809 710.494 Q74.8809 719.221 71.8022 723.828 Q68.7467 728.411 62.9365 728.411 Q57.1264 728.411 54.0477 723.828 Q50.9921 719.221 50.9921 710.494 Q50.9921 701.745 54.0477 697.161 Q57.1264 692.555 62.9365 692.555 Z" fill="#000000" fill-rule="nonzero" fill-opacity="1" /><path clip-path="url(#clip960)" d="M83.0984 721.86 L87.9827 721.86 L87.9827 727.74 L83.0984 727.74 L83.0984 721.86 Z" fill="#000000" fill-rule="nonzero" fill-opacity="1" /><path clip-path="url(#clip960)" d="M108.746 708.596 Q105.598 708.596 103.746 710.749 Q101.918 712.902 101.918 716.652 Q101.918 720.379 103.746 722.555 Q105.598 724.707 108.746 724.707 Q111.895 724.707 113.723 722.555 Q115.575 720.379 115.575 716.652 Q115.575 712.902 113.723 710.749 Q111.895 708.596 108.746 708.596 M118.029 693.944 L118.029 698.203 Q116.27 697.37 114.464 696.93 Q112.682 696.49 110.922 696.49 Q106.293 696.49 103.839 699.615 Q101.409 702.74 101.061 709.059 Q102.427 707.045 104.487 705.981 Q106.547 704.893 109.024 704.893 Q114.233 704.893 117.242 708.064 Q120.274 711.212 120.274 716.652 Q120.274 721.976 117.126 725.193 Q113.978 728.411 108.746 728.411 Q102.751 728.411 99.5798 723.828 Q96.4085 719.221 96.4085 710.494 Q96.4085 702.3 100.297 697.439 Q104.186 692.555 110.737 692.555 Q112.496 692.555 114.279 692.902 Q116.084 693.249 118.029 693.944 Z" fill="#000000" fill-rule="nonzero" fill-opacity="1" /><path clip-path="url(#clip960)" d="M63.2837 420.951 Q59.6726 420.951 57.8439 424.516 Q56.0384 428.058 56.0384 435.187 Q56.0384 442.294 57.8439 445.858 Q59.6726 449.4 63.2837 449.4 Q66.918 449.4 68.7235 445.858 Q70.5522 442.294 70.5522 435.187 Q70.5522 428.058 68.7235 424.516 Q66.918 420.951 63.2837 420.951 M63.2837 417.247 Q69.0939 417.247 72.1494 421.854 Q75.2281 426.437 75.2281 435.187 Q75.2281 443.914 72.1494 448.52 Q69.0939 453.104 63.2837 453.104 Q57.4736 453.104 54.3949 448.52 Q51.3393 443.914 51.3393 435.187 Q51.3393 426.437 54.3949 421.854 Q57.4736 417.247 63.2837 417.247 Z" fill="#000000" fill-rule="nonzero" fill-opacity="1" /><path clip-path="url(#clip960)" d="M83.4457 446.553 L88.3299 446.553 L88.3299 452.432 L83.4457 452.432 L83.4457 446.553 Z" fill="#000000" fill-rule="nonzero" fill-opacity="1" /><path clip-path="url(#clip960)" d="M98.6539 451.715 L98.6539 447.456 Q100.413 448.289 102.219 448.729 Q104.024 449.169 105.76 449.169 Q110.39 449.169 112.82 446.067 Q115.274 442.942 115.621 436.599 Q114.279 438.59 112.219 439.655 Q110.158 440.72 107.658 440.72 Q102.473 440.72 99.4409 437.595 Q96.4317 434.446 96.4317 429.007 Q96.4317 423.683 99.5798 420.465 Q102.728 417.247 107.959 417.247 Q113.955 417.247 117.103 421.854 Q120.274 426.437 120.274 435.187 Q120.274 443.358 116.385 448.243 Q112.52 453.104 105.969 453.104 Q104.209 453.104 102.404 452.757 Q100.598 452.409 98.6539 451.715 M107.959 437.062 Q111.108 437.062 112.936 434.909 Q114.788 432.757 114.788 429.007 Q114.788 425.28 112.936 423.127 Q111.108 420.951 107.959 420.951 Q104.811 420.951 102.959 423.127 Q101.131 425.28 101.131 429.007 Q101.131 432.757 102.959 434.909 Q104.811 437.062 107.959 437.062 Z" fill="#000000" fill-rule="nonzero" fill-opacity="1" /><path clip-path="url(#clip960)" d="M55.506 173.19 L63.1448 173.19 L63.1448 146.824 L54.8347 148.491 L54.8347 144.232 L63.0985 142.565 L67.7744 142.565 L67.7744 173.19 L75.4133 173.19 L75.4133 177.125 L55.506 177.125 L55.506 173.19 Z" fill="#000000" fill-rule="nonzero" fill-opacity="1" /><path clip-path="url(#clip960)" d="M84.8577 171.246 L89.7419 171.246 L89.7419 177.125 L84.8577 177.125 L84.8577 171.246 Z" fill="#000000" fill-rule="nonzero" fill-opacity="1" /><path clip-path="url(#clip960)" d="M103.955 173.19 L120.274 173.19 L120.274 177.125 L98.3298 177.125 L98.3298 173.19 Q100.992 170.435 105.575 165.806 Q110.182 161.153 111.362 159.81 Q113.608 157.287 114.487 155.551 Q115.39 153.792 115.39 152.102 Q115.39 149.348 113.445 147.611 Q111.524 145.875 108.422 145.875 Q106.223 145.875 103.77 146.639 Q101.339 147.403 98.5613 148.954 L98.5613 144.232 Q101.385 143.098 103.839 142.519 Q106.293 141.94 108.33 141.94 Q113.7 141.94 116.895 144.625 Q120.089 147.311 120.089 151.801 Q120.089 153.931 119.279 155.852 Q118.492 157.75 116.385 160.343 Q115.807 161.014 112.705 164.232 Q109.603 167.426 103.955 173.19 Z" fill="#000000" fill-rule="nonzero" fill-opacity="1" /><polyline clip-path="url(#clip962)" style="stroke:#009af9; stroke-linecap:round; stroke-linejoin:round; stroke-width:16; stroke-opacity:1; fill:none" stroke-dasharray="8, 16" points="218.439,1123.38 228.852,1107.93 239.264,1093.86 249.677,1083.16 260.09,1077.67 270.503,1078.78 280.916,1087.12 291.329,1102.39 301.741,1123.4 312.154,1148.56 322.567,1176.51 332.98,1206.55 343.393,1238.47 353.805,1271.77 364.218,1305.17 374.631,1336.79 385.044,1365.02 395.457,1389.21 405.87,1409.49 416.282,1426.03 426.695,1438.41 437.108,1445.43 447.521,1445.72 457.934,1438.65 468.347,1424.84 478.759,1405.66 489.172,1382.45 499.585,1356.06 509.998,1327.01 520.411,1295.83 530.824,1263.25 541.236,1230.24 551.649,1197.95 562.062,1167.59 572.475,1140.35 582.888,1117.28 593.301,1099.25 603.713,1086.83 614.126,1080.25 624.539,1079.35 634.952,1083.61 645.365,1092.52 655.777,1106.09 666.19,1125.46 676.603,1152.24 687.016,1186.06 697.429,1222.58 707.842,1255.96 718.254,1284.43 728.667,1313.28 739.08,1347.74 749.493,1381 759.906,1402.46 770.319,1415.64 780.731,1427.85 791.144,1437.72 801.557,1442.36 811.97,1442.66 822.383,1440.12 832.796,1432.16 843.208,1411.82 853.621,1375.65 864.034,1334.15 874.447,1304.38 884.86,1283.52 895.273,1254.13 905.685,1216.21 916.098,1181.78 926.511,1155.26 936.924,1134.45 947.337,1116.59 957.749,1100.86 968.162,1088.19 978.575,1079.23 988.988,1073.87 999.401,1073.94 1009.81,1084.7 1020.23,1111.89 1030.64,1153.72 1041.05,1196.98 1051.46,1224.87 1061.88,1231.56 1072.29,1232.82 1082.7,1253.81 1093.12,1297.55 1103.53,1347.78 1113.94,1383.92 1124.35,1394.14 1134.77,1404 1145.18,1434.43 1155.59,1420.61 1166.01,1333.37 1176.42,1331.18 1186.83,1412.67 1197.24,1428.86 1207.66,1442.31 1218.07,1438.61 1228.48,1376.05 1238.9,1250.91 1249.31,997.033 1259.72,665.091 1270.13,420.676 1280.55,292.882 1290.96,283.345 1301.37,318.986 1311.79,333.428 1322.2,374.578 1332.61,326.815 1343.02,261.526 1353.44,305.166 1363.85,325.293 1374.26,310.428 1384.68,300.264 1395.09,317.47 1405.5,346.475 1415.91,374.817 1426.33,393.054 1436.74,397.098 1447.15,382.847 1457.57,345.249 1467.98,295.633 1478.39,274.815 1488.8,291.874 1499.22,318.36 1509.63,336.955 1520.04,347.255 1530.45,358.781 1540.87,377.789 1551.28,399.216 1561.69,410.817 1572.11,400.101 1582.52,362.883 1592.93,311.15 1603.34,267.357 1613.76,249.095 1624.17,260.522 1634.58,295.654 1645,344.158 1655.41,393.177 1665.82,429.015 1676.23,442.438 1686.65,431.371 1697.06,397.923 1707.47,348.051 1717.89,293.375 1728.3,247.289 1738.71,219.868 1749.12,219.036 1759.54,253.591 1769.95,328.9 1780.36,427.052 1790.78,482.642 1801.19,466.492 1811.6,423.585 1822.01,374.46 1832.43,320.853 1842.84,266.707 1853.25,219.747 1863.67,198.194 1874.08,235.96 1884.49,329.615 1894.9,427.253 1905.32,490.998 1915.73,509.384 1926.14,484.092 1936.56,423.634 1946.97,342.767 1957.38,261.131 1967.79,197.988 1978.21,169.438 1988.62,186.608 1999.03,248.272 2009.45,340.084 2019.86,443.242 2030.27,528.574 2040.68,546.761 2051.1,487.413 2061.51,393.807 2071.92,292.336 2082.33,197.458 2092.75,135.257 2103.16,132.048 2113.57,189.79 2123.99,287.652 2134.4,398.851 2144.81,501.448 2155.22,570.158 2165.64,570.712 2176.05,492.033 2186.46,365.859 2196.88,233.459 2207.29,137.367 2217.7,114.83 2228.11,164.061 2238.53,249.462 2248.94,339.181 2259.35,418.135 2269.77,482.471 2280.18,533.108 2290.59,572.335 "/>
<polyline clip-path="url(#clip962)" style="stroke:#e26f46; stroke-linecap:round; stroke-linejoin:round; stroke-width:4; stroke-opacity:1; fill:none" points="218.439,1123.24 228.852,1103.68 239.264,1089.26 249.677,1080.45 260.09,1077.54 270.503,1080.61 280.916,1089.57 291.329,1104.13 301.741,1123.82 312.154,1147.98 322.567,1175.83 332.98,1206.47 343.393,1238.89 353.805,1272.03 364.218,1304.81 374.631,1336.17 385.044,1365.08 395.457,1390.59 405.87,1411.87 416.282,1428.24 426.695,1439.14 437.108,1444.24 447.521,1443.36 457.934,1436.52 468.347,1423.97 478.759,1406.09 489.172,1383.49 499.585,1356.88 509.998,1327.15 520.411,1295.27 530.824,1262.27 541.236,1229.23 551.649,1197.22 562.062,1167.31 572.475,1140.45 582.888,1117.53 593.301,1099.29 603.713,1086.34 614.126,1079.09 624.539,1077.77 634.952,1082.44 645.365,1092.94 655.777,1108.93 666.19,1129.88 676.603,1155.12 687.016,1183.81 697.429,1215.02 707.842,1247.74 718.254,1280.89 728.667,1313.4 739.08,1344.2 749.493,1372.28 759.906,1396.74 770.319,1416.76 780.731,1431.71 791.144,1441.09 801.557,1444.59 811.97,1442.1 822.383,1433.71 832.796,1419.68 843.208,1400.47 853.621,1376.72 864.034,1349.19 874.447,1318.78 884.86,1286.49 895.273,1253.37 905.685,1220.5 916.098,1188.96 926.511,1159.77 936.924,1133.89 947.337,1112.16 957.749,1095.28 968.162,1083.82 978.575,1078.15 988.988,1078.44 999.401,1084.7 1009.81,1096.71 1020.23,1114.08 1030.64,1136.26 1041.05,1162.5 1051.46,1191.97 1061.88,1223.69 1072.29,1256.63 1082.7,1289.71 1093.12,1321.86 1103.53,1352.03 1113.94,1379.23 1124.35,1402.57 1134.77,1421.29 1145.18,1434.79 1155.59,1442.61 1166.01,1444.51 1176.42,1440.43 1186.83,1430.49 1197.24,1415.02 1207.66,1394.52 1218.07,1369.67 1228.48,1341.28 1238.9,1310.27 1249.31,1277.65 1259.72,342.051 1270.13,340.534 1280.55,341.914 1290.96,346.51 1301.37,352.911 1311.79,358.415 1322.2,360.045 1332.61,355.81 1343.02,345.715 1353.44,332.107 1363.85,319.157 1374.26,311.592 1384.68,313.043 1395.09,324.586 1405.5,344 1415.91,366.095 1426.33,384.087 1436.74,391.676 1447.15,385.18 1457.57,365.022 1467.98,336.027 1478.39,306.313 1488.8,285.017 1499.22,279.499 1509.63,292.874 1520.04,322.669 1530.45,361.15 1540.87,397.298 1551.28,419.968 1561.69,421.311 1572.11,399.409 1582.52,359.268 1592.93,311.753 1603.34,270.652 1613.76,248.681 1624.17,253.566 1634.58,285.42 1645,336.272 1655.41,392.018 1665.82,436.331 1676.23,455.436 1686.65,442.371 1697.06,399.411 1707.47,337.837 1717.89,275.002 1728.3,229.441 1738.71,215.41 1749.12,238.45 1759.54,293.367 1769.95,365.31 1780.36,433.772 1790.78,478.438 1801.19,485.204 1811.6,450.595 1822.01,383.204 1832.43,301.614 1842.84,229.277 1853.25,187.778 1863.67,190.401 1874.08,237.923 1884.49,317.945 1894.9,408.103 1905.32,482.305 1915.73,518.286 1926.14,504.275 1936.56,442.791 1946.97,350.349 1957.38,253.049 1967.79,179.208 1978.21,151.12 1988.62,178.34 1999.03,254.513 2009.45,358.779 2019.86,461.471 2030.27,532.553 2040.68,550.407 2051.1,508.385 2061.51,417.154 2071.92,302.04 2082.33,196.001 2092.75,130.195 2103.16,124.827 2113.57,182.972 2123.99,289.248 2134.4,413.861 2144.81,520.945 2155.22,578.89 2165.64,569.664 2176.05,494.394 2186.46,373.476 2196.88,241.074 2207.29,135.465 2217.7,87.9763 2228.11,113.703 2238.53,206.75 2248.94,341.499 2259.35,479.647 2269.77,581.095 2280.18,615.58 2290.59,571.698 "/>
<path clip-path="url(#clip960)" d="M229.49 250.738 L675.966 250.738 L675.966 95.2176 L229.49 95.2176  Z" fill="#ffffff" fill-rule="evenodd" fill-opacity="1"/>
<polyline clip-path="url(#clip960)" style="stroke:#000000; stroke-linecap:round; stroke-linejoin:round; stroke-width:4; stroke-opacity:1; fill:none" points="229.49,250.738 675.966,250.738 675.966,95.2176 229.49,95.2176 229.49,250.738 "/>
<polyline clip-path="url(#clip960)" style="stroke:#009af9; stroke-linecap:round; stroke-linejoin:round; stroke-width:16; stroke-opacity:1; fill:none" stroke-dasharray="8, 16" points="253.896,147.058 400.328,147.058 "/>
<path clip-path="url(#clip960)" d="M429.409 133.62 L429.409 146.606 L435.289 146.606 Q438.552 146.606 440.335 144.916 Q442.117 143.227 442.117 140.102 Q442.117 137 440.335 135.31 Q438.552 133.62 435.289 133.62 L429.409 133.62 M424.733 129.778 L435.289 129.778 Q441.099 129.778 444.062 132.416 Q447.048 135.032 447.048 140.102 Q447.048 145.217 444.062 147.833 Q441.099 150.449 435.289 150.449 L429.409 150.449 L429.409 164.338 L424.733 164.338 L424.733 129.778 Z" fill="#000000" fill-rule="nonzero" fill-opacity="1" /><path clip-path="url(#clip960)" d="M467.325 142.393 Q466.608 141.977 465.751 141.791 Q464.918 141.583 463.899 141.583 Q460.288 141.583 458.344 143.944 Q456.423 146.282 456.423 150.68 L456.423 164.338 L452.14 164.338 L452.14 138.412 L456.423 138.412 L456.423 142.44 Q457.765 140.078 459.918 138.944 Q462.071 137.787 465.149 137.787 Q465.589 137.787 466.122 137.856 Q466.654 137.903 467.302 138.018 L467.325 142.393 Z" fill="#000000" fill-rule="nonzero" fill-opacity="1" /><path clip-path="url(#clip960)" d="M492.927 150.31 L492.927 152.393 L473.344 152.393 Q473.622 156.791 475.983 159.106 Q478.367 161.398 482.603 161.398 Q485.057 161.398 487.348 160.796 Q489.663 160.194 491.932 158.99 L491.932 163.018 Q489.64 163.99 487.233 164.5 Q484.825 165.009 482.348 165.009 Q476.145 165.009 472.511 161.398 Q468.899 157.787 468.899 151.629 Q468.899 145.264 472.325 141.537 Q475.774 137.787 481.608 137.787 Q486.839 137.787 489.872 141.166 Q492.927 144.523 492.927 150.31 M488.668 149.06 Q488.622 145.565 486.7 143.481 Q484.802 141.398 481.654 141.398 Q478.089 141.398 475.936 143.412 Q473.807 145.426 473.483 149.083 L488.668 149.06 Z" fill="#000000" fill-rule="nonzero" fill-opacity="1" /><path clip-path="url(#clip960)" d="M516.978 142.347 L516.978 128.319 L521.237 128.319 L521.237 164.338 L516.978 164.338 L516.978 160.449 Q515.635 162.763 513.575 163.898 Q511.538 165.009 508.668 165.009 Q503.969 165.009 501.006 161.259 Q498.066 157.509 498.066 151.398 Q498.066 145.287 501.006 141.537 Q503.969 137.787 508.668 137.787 Q511.538 137.787 513.575 138.921 Q515.635 140.032 516.978 142.347 M502.464 151.398 Q502.464 156.097 504.385 158.782 Q506.33 161.444 509.709 161.444 Q513.089 161.444 515.033 158.782 Q516.978 156.097 516.978 151.398 Q516.978 146.699 515.033 144.037 Q513.089 141.352 509.709 141.352 Q506.33 141.352 504.385 144.037 Q502.464 146.699 502.464 151.398 Z" fill="#000000" fill-rule="nonzero" fill-opacity="1" /><path clip-path="url(#clip960)" d="M530.01 138.412 L534.269 138.412 L534.269 164.338 L530.01 164.338 L530.01 138.412 M530.01 128.319 L534.269 128.319 L534.269 133.713 L530.01 133.713 L530.01 128.319 Z" fill="#000000" fill-rule="nonzero" fill-opacity="1" /><path clip-path="url(#clip960)" d="M561.839 139.407 L561.839 143.389 Q560.033 142.393 558.205 141.907 Q556.399 141.398 554.547 141.398 Q550.404 141.398 548.112 144.037 Q545.82 146.652 545.82 151.398 Q545.82 156.143 548.112 158.782 Q550.404 161.398 554.547 161.398 Q556.399 161.398 558.205 160.912 Q560.033 160.402 561.839 159.407 L561.839 163.342 Q560.056 164.176 558.135 164.592 Q556.237 165.009 554.084 165.009 Q548.228 165.009 544.779 161.328 Q541.33 157.648 541.33 151.398 Q541.33 145.055 544.802 141.421 Q548.297 137.787 554.362 137.787 Q556.33 137.787 558.205 138.203 Q560.08 138.597 561.839 139.407 Z" fill="#000000" fill-rule="nonzero" fill-opacity="1" /><path clip-path="url(#clip960)" d="M573.459 131.051 L573.459 138.412 L582.232 138.412 L582.232 141.722 L573.459 141.722 L573.459 155.796 Q573.459 158.967 574.316 159.87 Q575.195 160.773 577.857 160.773 L582.232 160.773 L582.232 164.338 L577.857 164.338 Q572.927 164.338 571.052 162.509 Q569.177 160.657 569.177 155.796 L569.177 141.722 L566.052 141.722 L566.052 138.412 L569.177 138.412 L569.177 131.051 L573.459 131.051 Z" fill="#000000" fill-rule="nonzero" fill-opacity="1" /><path clip-path="url(#clip960)" d="M587.834 138.412 L592.093 138.412 L592.093 164.338 L587.834 164.338 L587.834 138.412 M587.834 128.319 L592.093 128.319 L592.093 133.713 L587.834 133.713 L587.834 128.319 Z" fill="#000000" fill-rule="nonzero" fill-opacity="1" /><path clip-path="url(#clip960)" d="M611.051 141.398 Q607.626 141.398 605.635 144.083 Q603.644 146.745 603.644 151.398 Q603.644 156.051 605.612 158.736 Q607.602 161.398 611.051 161.398 Q614.454 161.398 616.445 158.713 Q618.436 156.027 618.436 151.398 Q618.436 146.791 616.445 144.106 Q614.454 141.398 611.051 141.398 M611.051 137.787 Q616.607 137.787 619.778 141.398 Q622.95 145.009 622.95 151.398 Q622.95 157.764 619.778 161.398 Q616.607 165.009 611.051 165.009 Q605.473 165.009 602.302 161.398 Q599.153 157.764 599.153 151.398 Q599.153 145.009 602.302 141.398 Q605.473 137.787 611.051 137.787 Z" fill="#000000" fill-rule="nonzero" fill-opacity="1" /><path clip-path="url(#clip960)" d="M651.561 148.689 L651.561 164.338 L647.301 164.338 L647.301 148.828 Q647.301 145.148 645.866 143.319 Q644.431 141.49 641.561 141.49 Q638.112 141.49 636.121 143.69 Q634.13 145.889 634.13 149.685 L634.13 164.338 L629.848 164.338 L629.848 138.412 L634.13 138.412 L634.13 142.44 Q635.658 140.102 637.718 138.944 Q639.801 137.787 642.51 137.787 Q646.977 137.787 649.269 140.565 Q651.561 143.319 651.561 148.689 Z" fill="#000000" fill-rule="nonzero" fill-opacity="1" /><polyline clip-path="url(#clip960)" style="stroke:#e26f46; stroke-linecap:round; stroke-linejoin:round; stroke-width:4; stroke-opacity:1; fill:none" points="253.896,198.898 400.328,198.898 "/>
<path clip-path="url(#clip960)" d="M424.733 181.618 L446.585 181.618 L446.585 185.553 L429.409 185.553 L429.409 195.784 L445.867 195.784 L445.867 199.719 L429.409 199.719 L429.409 212.242 L447.001 212.242 L447.001 216.178 L424.733 216.178 L424.733 181.618 Z" fill="#000000" fill-rule="nonzero" fill-opacity="1" /><path clip-path="url(#clip960)" d="M476.052 190.252 L466.677 202.867 L476.538 216.178 L471.515 216.178 L463.969 205.992 L456.423 216.178 L451.4 216.178 L461.469 202.613 L452.256 190.252 L457.279 190.252 L464.154 199.488 L471.029 190.252 L476.052 190.252 Z" fill="#000000" fill-rule="nonzero" fill-opacity="1" /><path clip-path="url(#clip960)" d="M494.339 203.145 Q489.177 203.145 487.186 204.326 Q485.196 205.506 485.196 208.354 Q485.196 210.622 486.677 211.965 Q488.182 213.284 490.751 213.284 Q494.293 213.284 496.422 210.784 Q498.575 208.261 498.575 204.094 L498.575 203.145 L494.339 203.145 M502.834 201.386 L502.834 216.178 L498.575 216.178 L498.575 212.242 Q497.117 214.603 494.941 215.738 Q492.765 216.849 489.617 216.849 Q485.635 216.849 483.274 214.627 Q480.936 212.381 480.936 208.631 Q480.936 204.256 483.853 202.034 Q486.793 199.812 492.603 199.812 L498.575 199.812 L498.575 199.395 Q498.575 196.455 496.631 194.858 Q494.71 193.238 491.214 193.238 Q488.992 193.238 486.885 193.77 Q484.779 194.303 482.835 195.367 L482.835 191.432 Q485.173 190.53 487.372 190.09 Q489.571 189.627 491.654 189.627 Q497.279 189.627 500.057 192.543 Q502.834 195.46 502.834 201.386 Z" fill="#000000" fill-rule="nonzero" fill-opacity="1" /><path clip-path="url(#clip960)" d="M530.265 191.247 L530.265 195.229 Q528.459 194.233 526.631 193.747 Q524.825 193.238 522.973 193.238 Q518.83 193.238 516.538 195.877 Q514.246 198.492 514.246 203.238 Q514.246 207.983 516.538 210.622 Q518.83 213.238 522.973 213.238 Q524.825 213.238 526.631 212.752 Q528.459 212.242 530.265 211.247 L530.265 215.182 Q528.482 216.016 526.561 216.432 Q524.663 216.849 522.51 216.849 Q516.654 216.849 513.205 213.168 Q509.756 209.488 509.756 203.238 Q509.756 196.895 513.228 193.261 Q516.723 189.627 522.788 189.627 Q524.756 189.627 526.631 190.043 Q528.506 190.437 530.265 191.247 Z" fill="#000000" fill-rule="nonzero" fill-opacity="1" /><path clip-path="url(#clip960)" d="M541.885 182.891 L541.885 190.252 L550.658 190.252 L550.658 193.562 L541.885 193.562 L541.885 207.636 Q541.885 210.807 542.742 211.71 Q543.621 212.613 546.283 212.613 L550.658 212.613 L550.658 216.178 L546.283 216.178 Q541.353 216.178 539.478 214.349 Q537.603 212.497 537.603 207.636 L537.603 193.562 L534.478 193.562 L534.478 190.252 L537.603 190.252 L537.603 182.891 L541.885 182.891 Z" fill="#000000" fill-rule="nonzero" fill-opacity="1" /></svg>
