<?xml version="1.0" encoding="utf-8"?>
<svg xmlns="http://www.w3.org/2000/svg" xmlns:xlink="http://www.w3.org/1999/xlink" width="600" height="400" viewBox="0 0 2400 1600">
<defs>
  <clipPath id="clip870">
    <rect x="0" y="0" width="2400" height="1600"/>
  </clipPath>
</defs>
<path clip-path="url(#clip870)" d="M0 1600 L2400 1600 L2400 0 L0 0  Z" fill="#ffffff" fill-rule="evenodd" fill-opacity="1"/>
<defs>
  <clipPath id="clip871">
    <rect x="480" y="0" width="1681" height="1600"/>
  </clipPath>
</defs>
<path clip-path="url(#clip870)" d="M112.177 1423.18 L2352.76 1423.18 L2352.76 47.2441 L112.177 47.2441  Z" fill="#ffffff" fill-rule="evenodd" fill-opacity="1"/>
<defs>
  <clipPath id="clip872">
    <rect x="112" y="47" width="2242" height="1377"/>
  </clipPath>
</defs>
<polyline clip-path="url(#clip872)" style="stroke:#000000; stroke-linecap:round; stroke-linejoin:round; stroke-width:2; stroke-opacity:0.1; fill:none" points="112.177,1423.18 112.177,47.2441 "/>
<polyline clip-path="url(#clip872)" style="stroke:#000000; stroke-linecap:round; stroke-linejoin:round; stroke-width:2; stroke-opacity:0.1; fill:none" points="859.037,1423.18 859.037,47.2441 "/>
<polyline clip-path="url(#clip872)" style="stroke:#000000; stroke-linecap:round; stroke-linejoin:round; stroke-width:2; stroke-opacity:0.1; fill:none" points="1605.9,1423.18 1605.9,47.2441 "/>
<polyline clip-path="url(#clip872)" style="stroke:#000000; stroke-linecap:round; stroke-linejoin:round; stroke-width:2; stroke-opacity:0.1; fill:none" points="2352.76,1423.18 2352.76,47.2441 "/>
<polyline clip-path="url(#clip870)" style="stroke:#000000; stroke-linecap:round; stroke-linejoin:round; stroke-width:4; stroke-opacity:1; fill:none" points="112.177,1423.18 2352.76,1423.18 "/>
<polyline clip-path="url(#clip870)" style="stroke:#000000; stroke-linecap:round; stroke-linejoin:round; stroke-width:4; stroke-opacity:1; fill:none" points="112.177,1423.18 112.177,1404.28 "/>
<polyline clip-path="url(#clip870)" style="stroke:#000000; stroke-linecap:round; stroke-linejoin:round; stroke-width:4; stroke-opacity:1; fill:none" points="859.037,1423.18 859.037,1404.28 "/>
<polyline clip-path="url(#clip870)" style="stroke:#000000; stroke-linecap:round; stroke-linejoin:round; stroke-width:4; stroke-opacity:1; fill:none" points="1605.9,1423.18 1605.9,1404.28 "/>
<polyline clip-path="url(#clip870)" style="stroke:#000000; stroke-linecap:round; stroke-linejoin:round; stroke-width:4; stroke-opacity:1; fill:none" points="2352.76,1423.18 2352.76,1404.28 "/>
<path clip-path="url(#clip870)" d="M112.177 1454.1 Q108.566 1454.1 106.737 1457.66 Q104.932 1461.2 104.932 1468.33 Q104.932 1475.44 106.737 1479.01 Q108.566 1482.55 112.177 1482.55 Q115.811 1482.55 117.617 1479.01 Q119.446 1475.44 119.446 1468.33 Q119.446 1461.2 117.617 1457.66 Q115.811 1454.1 112.177 1454.1 M112.177 1450.39 Q117.987 1450.39 121.043 1455 Q124.122 1459.58 124.122 1468.33 Q124.122 1477.06 121.043 1481.67 Q117.987 1486.25 112.177 1486.25 Q106.367 1486.25 103.288 1481.67 Q100.233 1477.06 100.233 1468.33 Q100.233 1459.58 103.288 1455 Q106.367 1450.39 112.177 1450.39 Z" fill="#000000" fill-rule="nonzero" fill-opacity="1" /><path clip-path="url(#clip870)" d="M849.419 1481.64 L857.058 1481.64 L857.058 1455.28 L848.747 1456.95 L848.747 1452.69 L857.011 1451.02 L861.687 1451.02 L861.687 1481.64 L869.326 1481.64 L869.326 1485.58 L849.419 1485.58 L849.419 1481.64 Z" fill="#000000" fill-rule="nonzero" fill-opacity="1" /><path clip-path="url(#clip870)" d="M1600.55 1481.64 L1616.87 1481.64 L1616.87 1485.58 L1594.92 1485.58 L1594.92 1481.64 Q1597.59 1478.89 1602.17 1474.26 Q1606.78 1469.61 1607.96 1468.27 Q1610.2 1465.74 1611.08 1464.01 Q1611.98 1462.25 1611.98 1460.56 Q1611.98 1457.8 1610.04 1456.07 Q1608.12 1454.33 1605.02 1454.33 Q1602.82 1454.33 1600.36 1455.09 Q1597.93 1455.86 1595.16 1457.41 L1595.16 1452.69 Q1597.98 1451.55 1600.43 1450.97 Q1602.89 1450.39 1604.92 1450.39 Q1610.29 1450.39 1613.49 1453.08 Q1616.68 1455.77 1616.68 1460.26 Q1616.68 1462.39 1615.87 1464.31 Q1615.09 1466.2 1612.98 1468.8 Q1612.4 1469.47 1609.3 1472.69 Q1606.2 1475.88 1600.55 1481.64 Z" fill="#000000" fill-rule="nonzero" fill-opacity="1" /><path clip-path="url(#clip870)" d="M2357 1466.95 Q2360.36 1467.66 2362.24 1469.93 Q2364.13 1472.2 2364.13 1475.53 Q2364.13 1480.65 2360.61 1483.45 Q2357.1 1486.25 2350.61 1486.25 Q2348.44 1486.25 2346.12 1485.81 Q2343.83 1485.39 2341.38 1484.54 L2341.38 1480.02 Q2343.32 1481.16 2345.64 1481.74 Q2347.95 1482.32 2350.48 1482.32 Q2354.87 1482.32 2357.17 1480.58 Q2359.48 1478.84 2359.48 1475.53 Q2359.48 1472.48 2357.33 1470.77 Q2355.2 1469.03 2351.38 1469.03 L2347.35 1469.03 L2347.35 1465.19 L2351.56 1465.19 Q2355.01 1465.19 2356.84 1463.82 Q2358.67 1462.43 2358.67 1459.84 Q2358.67 1457.18 2356.77 1455.77 Q2354.9 1454.33 2351.38 1454.33 Q2349.46 1454.33 2347.26 1454.75 Q2345.06 1455.16 2342.42 1456.04 L2342.42 1451.88 Q2345.08 1451.14 2347.4 1450.77 Q2349.74 1450.39 2351.8 1450.39 Q2357.12 1450.39 2360.22 1452.83 Q2363.32 1455.23 2363.32 1459.35 Q2363.32 1462.22 2361.68 1464.21 Q2360.04 1466.18 2357 1466.95 Z" fill="#000000" fill-rule="nonzero" fill-opacity="1" /><path clip-path="url(#clip870)" d="M1231.53 1522.27 L1231.53 1532.4 L1243.59 1532.4 L1243.59 1536.95 L1231.53 1536.95 L1231.53 1556.3 Q1231.53 1560.66 1232.71 1561.9 Q1233.91 1563.14 1237.58 1563.14 L1243.59 1563.14 L1243.59 1568.04 L1237.58 1568.04 Q1230.8 1568.04 1228.22 1565.53 Q1225.64 1562.98 1225.64 1556.3 L1225.64 1536.95 L1221.34 1536.95 L1221.34 1532.4 L1225.64 1532.4 L1225.64 1522.27 L1231.53 1522.27 Z" fill="#000000" fill-rule="nonzero" fill-opacity="1" /><polyline clip-path="url(#clip872)" style="stroke:#000000; stroke-linecap:round; stroke-linejoin:round; stroke-width:2; stroke-opacity:0.1; fill:none" points="112.177,1239.12 2352.76,1239.12 "/>
<polyline clip-path="url(#clip872)" style="stroke:#000000; stroke-linecap:round; stroke-linejoin:round; stroke-width:2; stroke-opacity:0.1; fill:none" points="112.177,1043.84 2352.76,1043.84 "/>
<polyline clip-path="url(#clip872)" style="stroke:#000000; stroke-linecap:round; stroke-linejoin:round; stroke-width:2; stroke-opacity:0.1; fill:none" points="112.177,848.556 2352.76,848.556 "/>
<polyline clip-path="url(#clip872)" style="stroke:#000000; stroke-linecap:round; stroke-linejoin:round; stroke-width:2; stroke-opacity:0.1; fill:none" points="112.177,653.276 2352.76,653.276 "/>
<polyline clip-path="url(#clip872)" style="stroke:#000000; stroke-linecap:round; stroke-linejoin:round; stroke-width:2; stroke-opacity:0.1; fill:none" points="112.177,457.996 2352.76,457.996 "/>
<polyline clip-path="url(#clip872)" style="stroke:#000000; stroke-linecap:round; stroke-linejoin:round; stroke-width:2; stroke-opacity:0.1; fill:none" points="112.177,262.715 2352.76,262.715 "/>
<polyline clip-path="url(#clip872)" style="stroke:#000000; stroke-linecap:round; stroke-linejoin:round; stroke-width:2; stroke-opacity:0.1; fill:none" points="112.177,67.4348 2352.76,67.4348 "/>
<polyline clip-path="url(#clip870)" style="stroke:#000000; stroke-linecap:round; stroke-linejoin:round; stroke-width:4; stroke-opacity:1; fill:none" points="112.177,1423.18 112.177,47.2441 "/>
<polyline clip-path="url(#clip870)" style="stroke:#000000; stroke-linecap:round; stroke-linejoin:round; stroke-width:4; stroke-opacity:1; fill:none" points="112.177,1239.12 131.075,1239.12 "/>
<polyline clip-path="url(#clip870)" style="stroke:#000000; stroke-linecap:round; stroke-linejoin:round; stroke-width:4; stroke-opacity:1; fill:none" points="112.177,1043.84 131.075,1043.84 "/>
<polyline clip-path="url(#clip870)" style="stroke:#000000; stroke-linecap:round; stroke-linejoin:round; stroke-width:4; stroke-opacity:1; fill:none" points="112.177,848.556 131.075,848.556 "/>
<polyline clip-path="url(#clip870)" style="stroke:#000000; stroke-linecap:round; stroke-linejoin:round; stroke-width:4; stroke-opacity:1; fill:none" points="112.177,653.276 131.075,653.276 "/>
<polyline clip-path="url(#clip870)" style="stroke:#000000; stroke-linecap:round; stroke-linejoin:round; stroke-width:4; stroke-opacity:1; fill:none" points="112.177,457.996 131.075,457.996 "/>
<polyline clip-path="url(#clip870)" style="stroke:#000000; stroke-linecap:round; stroke-linejoin:round; stroke-width:4; stroke-opacity:1; fill:none" points="112.177,262.715 131.075,262.715 "/>
<polyline clip-path="url(#clip870)" style="stroke:#000000; stroke-linecap:round; stroke-linejoin:round; stroke-width:4; stroke-opacity:1; fill:none" points="112.177,67.4348 131.075,67.4348 "/>
<path clip-path="url(#clip870)" d="M56.2699 1252.46 L63.9087 1252.46 L63.9087 1226.1 L55.5986 1227.76 L55.5986 1223.5 L63.8624 1221.84 L68.5383 1221.84 L68.5383 1252.46 L76.1772 1252.46 L76.1772 1256.4 L56.2699 1256.4 L56.2699 1252.46 Z" fill="#000000" fill-rule="nonzero" fill-opacity="1" /><path clip-path="url(#clip870)" d="M59.8578 1057.18 L76.1772 1057.18 L76.1772 1061.12 L54.2328 1061.12 L54.2328 1057.18 Q56.8949 1054.43 61.4782 1049.8 Q66.0846 1045.14 67.2652 1043.8 Q69.5105 1041.28 70.3902 1039.54 Q71.2929 1037.78 71.2929 1036.09 Q71.2929 1033.34 69.3485 1031.6 Q67.4272 1029.87 64.3254 1029.87 Q62.1263 1029.87 59.6726 1030.63 Q57.2421 1031.39 54.4643 1032.95 L54.4643 1028.22 Q57.2884 1027.09 59.7421 1026.51 Q62.1958 1025.93 64.2328 1025.93 Q69.6031 1025.93 72.7976 1028.62 Q75.992 1031.3 75.992 1035.79 Q75.992 1037.92 75.1818 1039.84 Q74.3948 1041.74 72.2883 1044.33 Q71.7096 1045.01 68.6078 1048.22 Q65.5059 1051.42 59.8578 1057.18 Z" fill="#000000" fill-rule="nonzero" fill-opacity="1" /><path clip-path="url(#clip870)" d="M69.0476 847.202 Q72.404 847.92 74.279 850.188 Q76.1772 852.457 76.1772 855.79 Q76.1772 860.906 72.6587 863.707 Q69.1402 866.508 62.6587 866.508 Q60.4828 866.508 58.168 866.068 Q55.8764 865.651 53.4227 864.795 L53.4227 860.281 Q55.3671 861.415 57.6819 861.994 Q59.9967 862.572 62.5198 862.572 Q66.918 862.572 69.2096 860.836 Q71.5244 859.1 71.5244 855.79 Q71.5244 852.735 69.3717 851.022 Q67.242 849.286 63.4226 849.286 L59.3949 849.286 L59.3949 845.443 L63.6078 845.443 Q67.0569 845.443 68.8855 844.077 Q70.7142 842.688 70.7142 840.096 Q70.7142 837.434 68.8161 836.022 Q66.9411 834.587 63.4226 834.587 Q61.5013 834.587 59.3023 835.003 Q57.1032 835.42 54.4643 836.299 L54.4643 832.133 Q57.1264 831.392 59.4412 831.022 Q61.7791 830.651 63.8393 830.651 Q69.1633 830.651 72.2652 833.082 Q75.367 835.489 75.367 839.61 Q75.367 842.48 73.7235 844.471 Q72.08 846.438 69.0476 847.202 Z" fill="#000000" fill-rule="nonzero" fill-opacity="1" /><path clip-path="url(#clip870)" d="M66.5939 640.07 L54.7884 658.519 L66.5939 658.519 L66.5939 640.07 M65.367 635.996 L71.2466 635.996 L71.2466 658.519 L76.1772 658.519 L76.1772 662.408 L71.2466 662.408 L71.2466 670.556 L66.5939 670.556 L66.5939 662.408 L50.9921 662.408 L50.9921 657.894 L65.367 635.996 Z" fill="#000000" fill-rule="nonzero" fill-opacity="1" /><path clip-path="url(#clip870)" d="M55.2745 440.716 L73.6309 440.716 L73.6309 444.651 L59.5569 444.651 L59.5569 453.123 Q60.5754 452.776 61.5939 452.614 Q62.6124 452.428 63.6309 452.428 Q69.418 452.428 72.7976 455.6 Q76.1772 458.771 76.1772 464.188 Q76.1772 469.766 72.705 472.868 Q69.2328 475.947 62.9134 475.947 Q60.7374 475.947 58.4689 475.576 Q56.2236 475.206 53.8162 474.465 L53.8162 469.766 Q55.8995 470.901 58.1217 471.456 Q60.3439 472.012 62.8208 472.012 Q66.8254 472.012 69.1633 469.905 Q71.5013 467.799 71.5013 464.188 Q71.5013 460.577 69.1633 458.47 Q66.8254 456.364 62.8208 456.364 Q60.9458 456.364 59.0708 456.78 Q57.2189 457.197 55.2745 458.077 L55.2745 440.716 Z" fill="#000000" fill-rule="nonzero" fill-opacity="1" /><path clip-path="url(#clip870)" d="M64.6495 260.852 Q61.5013 260.852 59.6495 263.005 Q57.8208 265.157 57.8208 268.907 Q57.8208 272.634 59.6495 274.81 Q61.5013 276.963 64.6495 276.963 Q67.7976 276.963 69.6263 274.81 Q71.4781 272.634 71.4781 268.907 Q71.4781 265.157 69.6263 263.005 Q67.7976 260.852 64.6495 260.852 M73.9318 246.199 L73.9318 250.458 Q72.1726 249.625 70.367 249.185 Q68.5846 248.745 66.8254 248.745 Q62.1958 248.745 59.7421 251.87 Q57.3115 254.995 56.9643 261.315 Q58.33 259.301 60.3902 258.236 Q62.4504 257.148 64.9272 257.148 Q70.1355 257.148 73.1448 260.319 Q76.1772 263.467 76.1772 268.907 Q76.1772 274.231 73.029 277.449 Q69.8809 280.666 64.6495 280.666 Q58.6541 280.666 55.4828 276.083 Q52.3116 271.477 52.3116 262.75 Q52.3116 254.556 56.2004 249.694 Q60.0893 244.81 66.6402 244.81 Q68.3994 244.81 70.1818 245.157 Q71.9874 245.505 73.9318 246.199 Z" fill="#000000" fill-rule="nonzero" fill-opacity="1" /><path clip-path="url(#clip870)" d="M53.9551 50.1548 L76.1772 50.1548 L76.1772 52.1455 L63.6309 84.7148 L58.7467 84.7148 L70.5522 54.0899 L53.9551 54.0899 L53.9551 50.1548 Z" fill="#000000" fill-rule="nonzero" fill-opacity="1" /><polyline clip-path="url(#clip872)" style="stroke:#009af9; stroke-linecap:round; stroke-linejoin:round; stroke-width:4; stroke-opacity:1; fill:none" points="112.177,1239.12 119.646,1238.12 127.114,1237.08 134.583,1235.99 142.052,1234.86 149.52,1233.69 156.989,1232.48 164.457,1231.22 171.926,1229.92 179.395,1228.57 186.863,1227.19 194.332,1225.76 201.8,1224.29 209.269,1222.78 216.738,1221.22 224.206,1219.63 231.675,1217.99 239.143,1216.3 246.612,1214.58 254.08,1212.81 261.549,1210.99 269.018,1209.14 276.486,1207.24 283.955,1205.3 291.423,1203.31 298.892,1201.28 306.361,1199.2 313.829,1197.08 321.298,1194.92 328.766,1192.71 336.235,1190.46 343.704,1188.16 351.172,1185.81 358.641,1183.42 366.109,1180.99 373.578,1178.5 381.047,1175.97 388.515,1173.39 395.984,1170.77 403.452,1168.09 410.921,1165.37 418.39,1162.6 425.858,1159.78 433.327,1156.91 440.795,1153.99 448.264,1151.02 455.733,1148 463.201,1144.92 470.67,1141.79 478.138,1138.62 485.607,1135.38 493.076,1132.1 500.544,1128.76 508.013,1125.36 515.481,1121.91 522.95,1118.41 530.419,1114.85 537.887,1111.23 545.356,1107.55 552.824,1103.82 560.293,1100.03 567.762,1096.18 575.23,1092.26 582.699,1088.29 590.167,1084.26 597.636,1080.17 605.104,1076.01 612.573,1071.8 620.042,1067.52 627.51,1063.17 634.979,1058.76 642.447,1054.29 649.916,1049.75 657.385,1045.14 664.853,1040.46 672.322,1035.72 679.79,1030.91 687.259,1026.03 694.728,1021.08 702.196,1016.05 709.665,1010.96 717.133,1005.79 724.602,1000.55 732.071,995.24 739.539,989.852 747.008,984.389 754.476,978.85 761.945,973.234 769.414,967.54 776.882,961.768 784.351,955.918 791.819,949.988 799.288,943.977 806.757,937.886 814.225,931.712 821.694,925.456 829.162,919.118 836.631,912.695 844.1,906.187 851.568,899.595 859.037,892.917 866.505,886.152 873.974,879.3 881.443,872.36 888.911,865.331 896.38,858.214 903.848,851.007 911.317,843.709 918.786,836.321 926.254,828.842 933.723,821.27 941.191,813.606 948.66,805.85 956.128,798 963.597,790.056 971.066,782.018 978.534,773.886 986.003,765.659 993.471,757.337 1000.94,748.92 1008.41,740.408 1015.88,731.801 1023.35,723.097 1030.81,714.299 1038.28,705.405 1045.75,696.416 1053.22,687.332 1060.69,678.154 1068.16,668.882 1075.63,659.516 1083.09,650.057 1090.56,640.506 1098.03,630.863 1105.5,621.13 1112.97,611.308 1120.44,601.398 1127.91,591.401 1135.37,581.319 1142.84,571.153 1150.31,560.906 1157.78,550.579 1165.25,540.174 1172.72,529.695 1180.19,519.144 1187.65,508.523 1195.12,497.836 1202.59,487.086 1210.06,476.277 1217.53,465.413 1225,454.498 1232.47,443.537 1239.94,432.534 1247.4,421.496 1254.87,410.427 1262.34,399.335 1269.81,388.225 1277.28,377.104 1284.75,365.981 1292.22,354.863 1299.68,343.759 1307.15,332.678 1314.62,321.631 1322.09,310.626 1329.56,299.677 1337.03,288.794 1344.5,277.99 1351.96,267.278 1359.43,256.673 1366.9,246.189 1374.37,235.843 1381.84,225.651 1389.31,215.63 1396.78,205.799 1404.24,196.178 1411.71,186.788 1419.18,177.648 1426.65,168.783 1434.12,160.215 1441.59,151.969 1449.06,144.071 1456.52,136.546 1463.99,129.423 1471.46,122.729 1478.93,116.494 1486.4,110.749 1493.87,105.523 1501.34,100.848 1508.8,96.7563 1516.27,93.2804 1523.74,90.4527 1531.21,88.3061 1538.68,86.873 1546.15,86.1857 1553.62,86.2758 1561.08,87.1741 1568.55,88.9101 1576.02,91.5118 1583.49,95.0056 1590.96,99.4154 1598.43,104.763 1605.9,111.066 1613.36,118.34 1620.83,126.597 1628.3,135.844 1635.77,146.085 1643.24,157.317 1650.71,169.534 1658.18,182.725 1665.65,196.872 1673.11,211.953 1680.58,227.941 1688.05,244.801 1695.52,262.495 1702.99,280.98 1710.46,300.207 1717.93,320.123 1725.39,340.671 1732.86,361.79 1740.33,383.416 1747.8,405.483 1755.27,427.925 1762.74,450.67 1770.21,473.651 1777.67,496.797 1785.14,520.041 1792.61,543.315 1800.08,566.554 1807.55,589.697 1815.02,612.684 1822.49,635.458 1829.95,657.969 1837.42,680.168 1844.89,702.011 1852.36,723.459 1859.83,744.477 1867.3,765.035 1874.77,785.106 1882.23,804.668 1889.7,823.703 1897.17,842.197 1904.64,860.14 1912.11,877.524 1919.58,894.345 1927.05,910.603 1934.51,926.298 1941.98,941.433 1949.45,956.016 1956.92,970.053 1964.39,983.552 1971.86,996.526 1979.33,1008.98 1986.79,1020.94 1994.26,1032.4 2001.73,1043.39 2009.2,1053.92 2016.67,1064 2024.14,1073.65 2031.61,1082.88 2039.07,1091.71 2046.54,1100.14 2054.01,1108.21 2061.48,1115.91 2068.95,1123.26 2076.42,1130.29 2083.89,1136.99 2091.36,1143.39 2098.82,1149.49 2106.29,1155.31 2113.76,1160.86 2121.23,1166.15 2128.7,1171.19 2136.17,1175.99 2143.64,1180.57 2151.1,1184.92 2158.57,1189.07 2166.04,1193.01 2173.51,1196.76 2180.98,1200.33 2188.45,1203.72 2195.92,1206.94 2203.38,1209.99 2210.85,1212.89 2218.32,1215.63 2225.79,1218.24 2233.26,1220.7 2240.73,1223.03 2248.2,1225.23 2255.66,1227.31 2263.13,1229.27 2270.6,1231.11 2278.07,1232.84 2285.54,1234.47 2293.01,1236 2300.48,1237.42 2307.94,1238.75 2315.41,1239.99 2322.88,1241.13 2330.35,1242.19 2337.82,1243.17 2345.29,1244.06 2352.76,1244.88 "/>
<polyline clip-path="url(#clip872)" style="stroke:#e26f46; stroke-linecap:round; stroke-linejoin:round; stroke-width:4; stroke-opacity:1; fill:none" points="112.177,1239.12 119.646,1242.98 127.114,1246.76 134.583,1250.45 142.052,1254.06 149.52,1257.58 156.989,1261.03 164.457,1264.4 171.926,1267.69 179.395,1270.91 186.863,1274.05 194.332,1277.13 201.8,1280.13 209.269,1283.06 216.738,1285.93 224.206,1288.73 231.675,1291.47 239.143,1294.14 246.612,1296.75 254.08,1299.3 261.549,1301.79 269.018,1304.22 276.486,1306.6 283.955,1308.92 291.423,1311.18 298.892,1313.4 306.361,1315.56 313.829,1317.66 321.298,1319.72 328.766,1321.73 336.235,1323.69 343.704,1325.61 351.172,1327.48 358.641,1329.3 366.109,1331.08 373.578,1332.82 381.047,1334.51 388.515,1336.17 395.984,1337.78 403.452,1339.35 410.921,1340.89 418.39,1342.39 425.858,1343.85 433.327,1345.27 440.795,1346.66 448.264,1348.02 455.733,1349.34 463.201,1350.63 470.67,1351.88 478.138,1353.11 485.607,1354.3 493.076,1355.46 500.544,1356.6 508.013,1357.7 515.481,1358.77 522.95,1359.82 530.419,1360.83 537.887,1361.82 545.356,1362.79 552.824,1363.72 560.293,1364.63 567.762,1365.52 575.23,1366.38 582.699,1367.22 590.167,1368.03 597.636,1368.82 605.104,1369.58 612.573,1370.33 620.042,1371.05 627.51,1371.75 634.979,1372.42 642.447,1373.08 649.916,1373.71 657.385,1374.33 664.853,1374.92 672.322,1375.5 679.79,1376.05 687.259,1376.59 694.728,1377.11 702.196,1377.6 709.665,1378.08 717.133,1378.54 724.602,1378.98 732.071,1379.4 739.539,1379.81 747.008,1380.2 754.476,1380.56 761.945,1380.92 769.414,1381.25 776.882,1381.56 784.351,1381.86 791.819,1382.14 799.288,1382.4 806.757,1382.65 814.225,1382.88 821.694,1383.09 829.162,1383.28 836.631,1383.46 844.1,1383.61 851.568,1383.75 859.037,1383.88 866.505,1383.98 873.974,1384.07 881.443,1384.14 888.911,1384.19 896.38,1384.22 903.848,1384.23 911.317,1384.23 918.786,1384.21 926.254,1384.17 933.723,1384.1 941.191,1384.02 948.66,1383.92 956.128,1383.8 963.597,1383.66 971.066,1383.5 978.534,1383.31 986.003,1383.11 993.471,1382.88 1000.94,1382.62 1008.41,1382.35 1015.88,1382.05 1023.35,1381.72 1030.81,1381.37 1038.28,1380.99 1045.75,1380.59 1053.22,1380.16 1060.69,1379.69 1068.16,1379.2 1075.63,1378.68 1083.09,1378.12 1090.56,1377.53 1098.03,1376.91 1105.5,1376.25 1112.97,1375.56 1120.44,1374.82 1127.91,1374.05 1135.37,1373.23 1142.84,1372.37 1150.31,1371.47 1157.78,1370.52 1165.25,1369.52 1172.72,1368.47 1180.19,1367.36 1187.65,1366.2 1195.12,1364.99 1202.59,1363.71 1210.06,1362.37 1217.53,1360.96 1225,1359.48 1232.47,1357.93 1239.94,1356.31 1247.4,1354.61 1254.87,1352.82 1262.34,1350.94 1269.81,1348.98 1277.28,1346.92 1284.75,1344.75 1292.22,1342.49 1299.68,1340.11 1307.15,1337.61 1314.62,1334.99 1322.09,1332.24 1329.56,1329.36 1337.03,1326.34 1344.5,1323.17 1351.96,1319.84 1359.43,1316.34 1366.9,1312.68 1374.37,1308.83 1381.84,1304.8 1389.31,1300.56 1396.78,1296.12 1404.24,1291.45 1411.71,1286.56 1419.18,1281.43 1426.65,1276.05 1434.12,1270.4 1441.59,1264.48 1449.06,1258.27 1456.52,1251.76 1463.99,1244.95 1471.46,1237.8 1478.93,1230.33 1486.4,1222.5 1493.87,1214.31 1501.34,1205.75 1508.8,1196.8 1516.27,1187.45 1523.74,1177.69 1531.21,1167.51 1538.68,1156.91 1546.15,1145.87 1553.62,1134.38 1561.08,1122.44 1568.55,1110.06 1576.02,1097.21 1583.49,1083.91 1590.96,1070.16 1598.43,1055.97 1605.9,1041.34 1613.36,1026.28 1620.83,1010.82 1628.3,994.969 1635.77,978.75 1643.24,962.193 1650.71,945.328 1658.18,928.19 1665.65,910.818 1673.11,893.256 1680.58,875.55 1688.05,857.75 1695.52,839.91 1702.99,822.087 1710.46,804.338 1717.93,786.725 1725.39,769.309 1732.86,752.153 1740.33,735.321 1747.8,718.874 1755.27,702.875 1762.74,687.383 1770.21,672.455 1777.67,658.146 1785.14,644.507 1792.61,631.585 1800.08,619.422 1807.55,608.057 1815.02,597.523 1822.49,587.847 1829.95,579.052 1837.42,571.154 1844.89,564.165 1852.36,558.093 1859.83,552.937 1867.3,548.695 1874.77,545.358 1882.23,542.914 1889.7,541.346 1897.17,540.635 1904.64,540.758 1912.11,541.689 1919.58,543.4 1927.05,545.859 1934.51,549.037 1941.98,552.899 1949.45,557.411 1956.92,562.539 1964.39,568.248 1971.86,574.502 1979.33,581.266 1986.79,588.506 1994.26,596.187 2001.73,604.275 2009.2,612.738 2016.67,621.544 2024.14,630.662 2031.61,640.062 2039.07,649.715 2046.54,659.593 2054.01,669.67 2061.48,679.921 2068.95,690.322 2076.42,700.849 2083.89,711.481 2091.36,722.199 2098.82,732.982 2106.29,743.812 2113.76,754.673 2121.23,765.549 2128.7,776.424 2136.17,787.286 2143.64,798.121 2151.1,808.917 2158.57,819.664 2166.04,830.351 2173.51,840.97 2180.98,851.511 2188.45,861.966 2195.92,872.33 2203.38,882.594 2210.85,892.754 2218.32,902.804 2225.79,912.739 2233.26,922.554 2240.73,932.247 2248.2,941.813 2255.66,951.25 2263.13,960.555 2270.6,969.726 2278.07,978.76 2285.54,987.658 2293.01,996.416 2300.48,1005.03 2307.94,1013.51 2315.41,1021.85 2322.88,1030.05 2330.35,1038.11 2337.82,1046.02 2345.29,1053.8 2352.76,1061.44 "/>
<polyline clip-path="url(#clip872)" style="stroke:#3da44d; stroke-linecap:round; stroke-linejoin:round; stroke-width:4; stroke-opacity:1; fill:none" points="112.177,1239.12 119.646,1238.12 127.114,1237.08 134.583,1235.99 142.052,1234.86 149.52,1233.69 156.989,1232.48 164.457,1231.22 171.926,1229.92 179.395,1228.58 186.863,1227.19 194.332,1225.76 201.8,1224.29 209.269,1222.78 216.738,1221.22 224.206,1219.62 231.675,1217.98 239.143,1216.3 246.612,1214.57 254.08,1212.8 261.549,1210.99 269.018,1209.14 276.486,1207.24 283.955,1205.29 291.423,1203.31 298.892,1201.28 306.361,1199.2 313.829,1197.08 321.298,1194.92 328.766,1192.71 336.235,1190.46 343.704,1188.16 351.172,1185.82 358.641,1183.42 366.109,1180.99 373.578,1178.5 381.047,1175.97 388.515,1173.39 395.984,1170.77 403.452,1168.09 410.921,1165.37 418.39,1162.6 425.858,1159.78 433.327,1156.91 440.795,1153.99 448.264,1151.01 455.733,1147.99 463.201,1144.92 470.67,1141.79 478.138,1138.61 485.607,1135.38 493.076,1132.09 500.544,1128.75 508.013,1125.36 515.481,1121.91 522.95,1118.4 530.419,1114.84 537.887,1111.22 545.356,1107.55 552.824,1103.82 560.293,1100.02 567.762,1096.17 575.23,1092.26 582.699,1088.29 590.167,1084.26 597.636,1080.17 605.104,1076.01 612.573,1071.8 620.042,1067.52 627.51,1063.17 634.979,1058.76 642.447,1054.29 649.916,1049.74 657.385,1045.14 664.853,1040.46 672.322,1035.72 679.79,1030.9 687.259,1026.02 694.728,1021.07 702.196,1016.05 709.665,1010.95 717.133,1005.79 724.602,1000.55 732.071,995.233 739.539,989.845 747.008,984.381 754.476,978.842 761.945,973.226 769.414,967.533 776.882,961.762 784.351,955.912 791.819,949.982 799.288,943.972 806.757,937.881 814.225,931.708 821.694,925.453 829.162,919.115 836.631,912.693 844.1,906.188 851.568,899.597 859.037,892.92 866.505,886.156 873.974,879.305 881.443,872.365 888.911,865.337 896.38,858.219 903.848,851.012 911.317,843.713 918.786,836.324 926.254,828.843 933.723,821.269 941.191,813.603 948.66,805.845 956.128,797.992 963.597,790.047 971.066,782.007 978.534,773.873 986.003,765.644 993.471,757.321 1000.94,748.903 1008.41,740.39 1015.88,731.782 1023.35,723.079 1030.81,714.281 1038.28,705.387 1045.75,696.399 1053.22,687.315 1060.69,678.137 1068.16,668.868 1075.63,659.509 1083.09,650.059 1090.56,640.518 1098.03,630.887 1105.5,621.164 1112.97,611.35 1120.44,601.447 1127.91,591.454 1135.37,581.374 1142.84,571.207 1150.31,560.957 1157.78,550.624 1165.25,540.212 1172.72,529.723 1180.19,519.16 1187.65,508.526 1195.12,497.826 1202.59,487.062 1210.06,476.24 1217.53,465.364 1225,454.438 1232.47,443.467 1239.94,432.458 1247.4,421.415 1254.87,410.344 1262.34,399.252 1269.81,388.146 1277.28,377.032 1284.75,365.916 1292.22,354.808 1299.68,343.714 1307.15,332.642 1314.62,321.601 1322.09,310.598 1329.56,299.633 1337.03,288.711 1344.5,277.85 1351.96,267.069 1359.43,256.387 1366.9,245.823 1374.37,235.397 1381.84,225.129 1389.31,215.041 1396.78,205.153 1404.24,195.488 1411.71,186.067 1419.18,176.914 1426.65,168.052 1434.12,159.505 1441.59,151.296 1449.06,143.451 1456.52,135.995 1463.99,128.953 1471.46,122.352 1478.93,116.219 1486.4,110.58 1493.87,105.463 1501.34,100.897 1508.8,96.9094 1516.27,93.53 1523.74,90.7882 1531.21,88.7141 1538.68,87.3382 1546.15,86.6916 1553.62,86.8057 1561.08,87.7127 1568.55,89.4448 1576.02,92.0352 1583.49,95.5173 1590.96,99.9249 1598.43,105.294 1605.9,111.667 1613.36,119.053 1620.83,127.45 1628.3,136.852 1635.77,147.25 1643.24,158.63 1650.71,170.977 1658.18,184.272 1665.65,198.492 1673.11,213.611 1680.58,229.6 1688.05,246.427 1695.52,264.055 1702.99,282.446 1710.46,301.557 1717.93,321.342 1725.39,341.752 1732.86,362.735 1740.33,384.235 1747.8,406.193 1755.27,428.546 1762.74,451.23 1770.21,474.174 1777.67,497.306 1785.14,520.552 1792.61,543.831 1800.08,567.062 1807.55,590.173 1815.02,613.143 1822.49,635.922 1829.95,658.454 1837.42,680.69 1844.89,702.584 1852.36,724.094 1859.83,745.182 1867.3,765.813 1874.77,785.957 1882.23,805.588 1889.7,824.684 1897.17,843.225 1904.64,861.199 1912.11,878.593 1919.58,895.401 1927.05,911.622 1934.51,927.255 1941.98,942.306 1949.45,956.785 1956.92,970.704 1964.39,984.08 1971.86,996.935 1979.33,1009.29 1986.79,1021.18 1994.26,1032.62 2001.73,1043.58 2009.2,1054.07 2016.67,1064.12 2024.14,1073.74 2031.61,1082.94 2039.07,1091.75 2046.54,1100.17 2054.01,1108.22 2061.48,1115.91 2068.95,1123.26 2076.42,1130.28 2083.89,1136.99 2091.36,1143.39 2098.82,1149.49 2106.29,1155.32 2113.76,1160.88 2121.23,1166.17 2128.7,1171.22 2136.17,1176.02 2143.64,1180.6 2151.1,1184.95 2158.57,1189.1 2166.04,1193.03 2173.51,1196.78 2180.98,1200.34 2188.45,1203.72 2195.92,1206.93 2203.38,1209.98 2210.85,1212.88 2218.32,1215.62 2225.79,1218.21 2233.26,1220.67 2240.73,1223 2248.2,1225.19 2255.66,1227.26 2263.13,1229.22 2270.6,1231.06 2278.07,1232.79 2285.54,1234.41 2293.01,1235.93 2300.48,1237.35 2307.94,1238.68 2315.41,1239.92 2322.88,1241.06 2330.35,1242.12 2337.82,1243.1 2345.29,1243.99 2352.76,1244.81 "/>
<polyline clip-path="url(#clip872)" style="stroke:#c271d2; stroke-linecap:round; stroke-linejoin:round; stroke-width:4; stroke-opacity:1; fill:none" points="112.177,1239.12 119.646,1242.98 127.114,1246.75 134.583,1250.45 142.052,1254.05 149.52,1257.58 156.989,1261.03 164.457,1264.4 171.926,1267.69 179.395,1270.91 186.863,1274.06 194.332,1277.13 201.8,1280.13 209.269,1283.07 216.738,1285.93 224.206,1288.73 231.675,1291.47 239.143,1294.14 246.612,1296.75 254.08,1299.3 261.549,1301.79 269.018,1304.22 276.486,1306.6 283.955,1308.92 291.423,1311.18 298.892,1313.4 306.361,1315.56 313.829,1317.66 321.298,1319.72 328.766,1321.73 336.235,1323.69 343.704,1325.61 351.172,1327.48 358.641,1329.3 366.109,1331.08 373.578,1332.82 381.047,1334.52 388.515,1336.17 395.984,1337.78 403.452,1339.36 410.921,1340.89 418.39,1342.39 425.858,1343.85 433.327,1345.28 440.795,1346.67 448.264,1348.02 455.733,1349.34 463.201,1350.63 470.67,1351.89 478.138,1353.11 485.607,1354.3 493.076,1355.46 500.544,1356.59 508.013,1357.7 515.481,1358.77 522.95,1359.81 530.419,1360.83 537.887,1361.82 545.356,1362.78 552.824,1363.72 560.293,1364.63 567.762,1365.52 575.23,1366.38 582.699,1367.21 590.167,1368.03 597.636,1368.82 605.104,1369.58 612.573,1370.33 620.042,1371.05 627.51,1371.75 634.979,1372.43 642.447,1373.08 649.916,1373.72 657.385,1374.33 664.853,1374.93 672.322,1375.5 679.79,1376.06 687.259,1376.59 694.728,1377.11 702.196,1377.6 709.665,1378.08 717.133,1378.54 724.602,1378.98 732.071,1379.4 739.539,1379.81 747.008,1380.19 754.476,1380.56 761.945,1380.91 769.414,1381.24 776.882,1381.56 784.351,1381.86 791.819,1382.14 799.288,1382.4 806.757,1382.64 814.225,1382.87 821.694,1383.08 829.162,1383.28 836.631,1383.45 844.1,1383.61 851.568,1383.75 859.037,1383.87 866.505,1383.98 873.974,1384.07 881.443,1384.14 888.911,1384.19 896.38,1384.22 903.848,1384.24 911.317,1384.24 918.786,1384.21 926.254,1384.17 933.723,1384.11 941.191,1384.03 948.66,1383.93 956.128,1383.81 963.597,1383.67 971.066,1383.51 978.534,1383.33 986.003,1383.12 993.471,1382.89 1000.94,1382.64 1008.41,1382.37 1015.88,1382.06 1023.35,1381.74 1030.81,1381.39 1038.28,1381.01 1045.75,1380.6 1053.22,1380.17 1060.69,1379.71 1068.16,1379.21 1075.63,1378.68 1083.09,1378.12 1090.56,1377.53 1098.03,1376.9 1105.5,1376.23 1112.97,1375.53 1120.44,1374.79 1127.91,1374.01 1135.37,1373.2 1142.84,1372.34 1150.31,1371.43 1157.78,1370.48 1165.25,1369.49 1172.72,1368.44 1180.19,1367.34 1187.65,1366.19 1195.12,1364.98 1202.59,1363.71 1210.06,1362.37 1217.53,1360.97 1225,1359.5 1232.47,1357.96 1239.94,1356.34 1247.4,1354.64 1254.87,1352.85 1262.34,1350.98 1269.81,1349.01 1277.28,1346.95 1284.75,1344.78 1292.22,1342.51 1299.68,1340.13 1307.15,1337.63 1314.62,1335.01 1322.09,1332.26 1329.56,1329.39 1337.03,1326.39 1344.5,1323.26 1351.96,1319.97 1359.43,1316.53 1366.9,1312.91 1374.37,1309.1 1381.84,1305.1 1389.31,1300.88 1396.78,1296.45 1404.24,1291.79 1411.71,1286.88 1419.18,1281.72 1426.65,1276.29 1434.12,1270.59 1441.59,1264.6 1449.06,1258.32 1456.52,1251.73 1463.99,1244.82 1471.46,1237.58 1478.93,1230.01 1486.4,1222.1 1493.87,1213.82 1501.34,1205.19 1508.8,1196.17 1516.27,1186.77 1523.74,1176.98 1531.21,1166.79 1538.68,1156.19 1546.15,1145.16 1553.62,1133.71 1561.08,1121.82 1568.55,1109.49 1576.02,1096.7 1583.49,1083.46 1590.96,1069.74 1598.43,1055.55 1605.9,1040.84 1613.36,1025.64 1620.83,1009.99 1628.3,993.939 1635.77,977.522 1643.24,960.784 1650.71,943.771 1658.18,926.527 1665.65,909.098 1673.11,891.53 1680.58,873.871 1688.05,856.167 1695.52,838.468 1702.99,820.823 1710.46,803.281 1717.93,785.894 1725.39,768.712 1732.86,751.788 1740.33,735.174 1747.8,718.924 1755.27,703.092 1762.74,687.733 1770.21,672.902 1777.67,658.656 1785.14,645.051 1792.61,632.145 1800.08,619.997 1807.55,608.656 1815.02,598.126 1822.49,588.429 1829.95,579.589 1837.42,571.623 1844.89,564.547 1852.36,558.371 1859.83,553.103 1867.3,548.743 1874.77,545.293 1882.23,542.745 1889.7,541.091 1897.17,540.318 1904.64,540.408 1912.11,541.34 1919.58,543.089 1927.05,545.626 1934.51,548.918 1941.98,552.927 1949.45,557.612 1956.92,562.928 1964.39,568.827 1971.86,575.254 1979.33,582.153 1986.79,589.463 1994.26,597.149 2001.73,605.237 2009.2,613.697 2016.67,622.496 2024.14,631.605 2031.61,640.994 2039.07,650.634 2046.54,660.497 2054.01,670.559 2061.48,680.793 2068.95,691.176 2076.42,701.685 2083.89,712.299 2091.36,722.997 2098.82,733.761 2106.29,744.572 2113.76,755.413 2121.23,766.268 2128.7,777.124 2136.17,787.966 2143.64,798.782 2151.1,809.561 2158.57,820.294 2166.04,830.97 2173.51,841.576 2180.98,852.102 2188.45,862.542 2195.92,872.89 2203.38,883.139 2210.85,893.285 2218.32,903.322 2225.79,913.245 2233.26,923.051 2240.73,932.735 2248.2,942.293 2255.66,951.722 2263.13,961.02 2270.6,970.184 2278.07,979.211 2285.54,988.101 2293.01,996.851 2300.48,1005.46 2307.94,1013.93 2315.41,1022.26 2322.88,1030.44 2330.35,1038.49 2337.82,1046.39 2345.29,1054.16 2352.76,1061.79 "/>
<path clip-path="url(#clip870)" d="M1900.12 352.309 L2278.07 352.309 L2278.07 93.1086 L1900.12 93.1086  Z" fill="#ffffff" fill-rule="evenodd" fill-opacity="1"/>
<polyline clip-path="url(#clip870)" style="stroke:#000000; stroke-linecap:round; stroke-linejoin:round; stroke-width:4; stroke-opacity:1; fill:none" points="1900.12,352.309 2278.07,352.309 2278.07,93.1086 1900.12,93.1086 1900.12,352.309 "/>
<polyline clip-path="url(#clip870)" style="stroke:#009af9; stroke-linecap:round; stroke-linejoin:round; stroke-width:4; stroke-opacity:1; fill:none" points="1925.02,144.949 2074.39,144.949 "/>
<path clip-path="url(#clip870)" d="M2123.94 136.303 L2114.56 148.919 L2124.43 162.229 L2119.4 162.229 L2111.86 152.043 L2104.31 162.229 L2099.29 162.229 L2109.36 148.664 L2100.14 136.303 L2105.17 136.303 L2112.04 145.539 L2118.92 136.303 L2123.94 136.303 Z" fill="#000000" fill-rule="nonzero" fill-opacity="1" /><path clip-path="url(#clip870)" d="M2150.14 170.099 L2150.14 173.409 L2125.51 173.409 L2125.51 170.099 L2150.14 170.099 Z" fill="#000000" fill-rule="nonzero" fill-opacity="1" /><path clip-path="url(#clip870)" d="M2158.27 158.34 L2158.27 172.09 L2153.99 172.09 L2153.99 136.303 L2158.27 136.303 L2158.27 140.238 Q2159.61 137.923 2161.65 136.812 Q2163.71 135.678 2166.55 135.678 Q2171.28 135.678 2174.22 139.428 Q2177.18 143.178 2177.18 149.289 Q2177.18 155.4 2174.22 159.15 Q2171.28 162.9 2166.55 162.9 Q2163.71 162.9 2161.65 161.789 Q2159.61 160.655 2158.27 158.34 M2172.76 149.289 Q2172.76 144.59 2170.81 141.928 Q2168.89 139.243 2165.51 139.243 Q2162.13 139.243 2160.19 141.928 Q2158.27 144.59 2158.27 149.289 Q2158.27 153.988 2160.19 156.673 Q2162.13 159.335 2165.51 159.335 Q2168.89 159.335 2170.81 156.673 Q2172.76 153.988 2172.76 149.289 Z" fill="#000000" fill-rule="nonzero" fill-opacity="1" /><path clip-path="url(#clip870)" d="M2199.26 140.284 Q2198.55 139.868 2197.69 139.682 Q2196.86 139.474 2195.84 139.474 Q2192.23 139.474 2190.28 141.835 Q2188.36 144.173 2188.36 148.571 L2188.36 162.229 L2184.08 162.229 L2184.08 136.303 L2188.36 136.303 L2188.36 140.331 Q2189.7 137.969 2191.86 136.835 Q2194.01 135.678 2197.09 135.678 Q2197.53 135.678 2198.06 135.747 Q2198.59 135.794 2199.24 135.909 L2199.26 140.284 Z" fill="#000000" fill-rule="nonzero" fill-opacity="1" /><path clip-path="url(#clip870)" d="M2224.86 148.201 L2224.86 150.284 L2205.28 150.284 Q2205.56 154.682 2207.92 156.997 Q2210.3 159.289 2214.54 159.289 Q2216.99 159.289 2219.29 158.687 Q2221.6 158.085 2223.87 156.881 L2223.87 160.909 Q2221.58 161.881 2219.17 162.391 Q2216.76 162.9 2214.29 162.9 Q2208.08 162.9 2204.45 159.289 Q2200.84 155.678 2200.84 149.52 Q2200.84 143.155 2204.26 139.428 Q2207.71 135.678 2213.55 135.678 Q2218.78 135.678 2221.81 139.057 Q2224.86 142.414 2224.86 148.201 M2220.61 146.951 Q2220.56 143.456 2218.64 141.372 Q2216.74 139.289 2213.59 139.289 Q2210.03 139.289 2207.87 141.303 Q2205.74 143.317 2205.42 146.974 L2220.61 146.951 Z" fill="#000000" fill-rule="nonzero" fill-opacity="1" /><path clip-path="url(#clip870)" d="M2248.92 140.238 L2248.92 126.21 L2253.17 126.21 L2253.17 162.229 L2248.92 162.229 L2248.92 158.34 Q2247.57 160.655 2245.51 161.789 Q2243.48 162.9 2240.61 162.9 Q2235.91 162.9 2232.94 159.15 Q2230 155.4 2230 149.289 Q2230 143.178 2232.94 139.428 Q2235.91 135.678 2240.61 135.678 Q2243.48 135.678 2245.51 136.812 Q2247.57 137.923 2248.92 140.238 M2234.4 149.289 Q2234.4 153.988 2236.32 156.673 Q2238.27 159.335 2241.65 159.335 Q2245.03 159.335 2246.97 156.673 Q2248.92 153.988 2248.92 149.289 Q2248.92 144.59 2246.97 141.928 Q2245.03 139.243 2241.65 139.243 Q2238.27 139.243 2236.32 141.928 Q2234.4 144.59 2234.4 149.289 Z" fill="#000000" fill-rule="nonzero" fill-opacity="1" /><polyline clip-path="url(#clip870)" style="stroke:#e26f46; stroke-linecap:round; stroke-linejoin:round; stroke-width:4; stroke-opacity:1; fill:none" points="1925.02,196.789 2074.39,196.789 "/>
<path clip-path="url(#clip870)" d="M2113.13 216.476 Q2111.32 221.106 2109.61 222.518 Q2107.9 223.93 2105.03 223.93 L2101.62 223.93 L2101.62 220.365 L2104.12 220.365 Q2105.88 220.365 2106.86 219.532 Q2107.83 218.698 2109.01 215.596 L2109.77 213.652 L2099.29 188.143 L2103.8 188.143 L2111.9 208.421 L2120 188.143 L2124.52 188.143 L2113.13 216.476 Z" fill="#000000" fill-rule="nonzero" fill-opacity="1" /><path clip-path="url(#clip870)" d="M2150.1 221.939 L2150.1 225.249 L2125.47 225.249 L2125.47 221.939 L2150.1 221.939 Z" fill="#000000" fill-rule="nonzero" fill-opacity="1" /><path clip-path="url(#clip870)" d="M2158.22 210.18 L2158.22 223.93 L2153.94 223.93 L2153.94 188.143 L2158.22 188.143 L2158.22 192.078 Q2159.56 189.763 2161.6 188.652 Q2163.66 187.518 2166.51 187.518 Q2171.23 187.518 2174.17 191.268 Q2177.13 195.018 2177.13 201.129 Q2177.13 207.24 2174.17 210.99 Q2171.23 214.74 2166.51 214.74 Q2163.66 214.74 2161.6 213.629 Q2159.56 212.495 2158.22 210.18 M2172.71 201.129 Q2172.71 196.43 2170.77 193.768 Q2168.85 191.083 2165.47 191.083 Q2162.09 191.083 2160.14 193.768 Q2158.22 196.43 2158.22 201.129 Q2158.22 205.828 2160.14 208.513 Q2162.09 211.175 2165.47 211.175 Q2168.85 211.175 2170.77 208.513 Q2172.71 205.828 2172.71 201.129 Z" fill="#000000" fill-rule="nonzero" fill-opacity="1" /><path clip-path="url(#clip870)" d="M2199.22 192.124 Q2198.5 191.708 2197.64 191.522 Q2196.81 191.314 2195.79 191.314 Q2192.18 191.314 2190.24 193.675 Q2188.31 196.013 2188.31 200.411 L2188.31 214.069 L2184.03 214.069 L2184.03 188.143 L2188.31 188.143 L2188.31 192.171 Q2189.66 189.809 2191.81 188.675 Q2193.96 187.518 2197.04 187.518 Q2197.48 187.518 2198.01 187.587 Q2198.55 187.634 2199.19 187.749 L2199.22 192.124 Z" fill="#000000" fill-rule="nonzero" fill-opacity="1" /><path clip-path="url(#clip870)" d="M2224.82 200.041 L2224.82 202.124 L2205.24 202.124 Q2205.51 206.522 2207.87 208.837 Q2210.26 211.129 2214.49 211.129 Q2216.95 211.129 2219.24 210.527 Q2221.55 209.925 2223.82 208.721 L2223.82 212.749 Q2221.53 213.721 2219.12 214.231 Q2216.72 214.74 2214.24 214.74 Q2208.04 214.74 2204.4 211.129 Q2200.79 207.518 2200.79 201.36 Q2200.79 194.995 2204.22 191.268 Q2207.67 187.518 2213.5 187.518 Q2218.73 187.518 2221.76 190.897 Q2224.82 194.254 2224.82 200.041 M2220.56 198.791 Q2220.51 195.296 2218.59 193.212 Q2216.69 191.129 2213.55 191.129 Q2209.98 191.129 2207.83 193.143 Q2205.7 195.157 2205.37 198.814 L2220.56 198.791 Z" fill="#000000" fill-rule="nonzero" fill-opacity="1" /><path clip-path="url(#clip870)" d="M2248.87 192.078 L2248.87 178.05 L2253.13 178.05 L2253.13 214.069 L2248.87 214.069 L2248.87 210.18 Q2247.53 212.495 2245.47 213.629 Q2243.43 214.74 2240.56 214.74 Q2235.86 214.74 2232.9 210.99 Q2229.96 207.24 2229.96 201.129 Q2229.96 195.018 2232.9 191.268 Q2235.86 187.518 2240.56 187.518 Q2243.43 187.518 2245.47 188.652 Q2247.53 189.763 2248.87 192.078 M2234.36 201.129 Q2234.36 205.828 2236.28 208.513 Q2238.22 211.175 2241.6 211.175 Q2244.98 211.175 2246.92 208.513 Q2248.87 205.828 2248.87 201.129 Q2248.87 196.43 2246.92 193.768 Q2244.98 191.083 2241.6 191.083 Q2238.22 191.083 2236.28 193.768 Q2234.36 196.43 2234.36 201.129 Z" fill="#000000" fill-rule="nonzero" fill-opacity="1" /><polyline clip-path="url(#clip870)" style="stroke:#3da44d; stroke-linecap:round; stroke-linejoin:round; stroke-width:4; stroke-opacity:1; fill:none" points="1925.02,248.629 2074.39,248.629 "/>
<path clip-path="url(#clip870)" d="M2099.29 255.677 L2099.29 239.983 L2103.55 239.983 L2103.55 255.515 Q2103.55 259.196 2104.98 261.048 Q2106.42 262.876 2109.29 262.876 Q2112.74 262.876 2114.73 260.677 Q2116.74 258.478 2116.74 254.682 L2116.74 239.983 L2121 239.983 L2121 265.909 L2116.74 265.909 L2116.74 261.927 Q2115.19 264.288 2113.13 265.446 Q2111.09 266.58 2108.38 266.58 Q2103.92 266.58 2101.6 263.802 Q2099.29 261.024 2099.29 255.677 M2110 239.358 L2110 239.358 Z" fill="#000000" fill-rule="nonzero" fill-opacity="1" /><path clip-path="url(#clip870)" d="M2131.18 261.973 L2138.82 261.973 L2138.82 235.608 L2130.51 237.275 L2130.51 233.015 L2138.78 231.349 L2143.45 231.349 L2143.45 261.973 L2151.09 261.973 L2151.09 265.909 L2131.18 265.909 L2131.18 261.973 Z" fill="#000000" fill-rule="nonzero" fill-opacity="1" /><path clip-path="url(#clip870)" d="M2170.17 229.937 Q2167.06 235.261 2165.56 240.469 Q2164.05 245.677 2164.05 251.024 Q2164.05 256.372 2165.56 261.626 Q2167.09 266.858 2170.17 272.159 L2166.46 272.159 Q2162.99 266.719 2161.25 261.464 Q2159.54 256.21 2159.54 251.024 Q2159.54 245.862 2161.25 240.631 Q2162.97 235.4 2166.46 229.937 L2170.17 229.937 Z" fill="#000000" fill-rule="nonzero" fill-opacity="1" /><path clip-path="url(#clip870)" d="M2182.64 232.622 L2182.64 239.983 L2191.42 239.983 L2191.42 243.293 L2182.64 243.293 L2182.64 257.367 Q2182.64 260.538 2183.5 261.441 Q2184.38 262.344 2187.04 262.344 L2191.42 262.344 L2191.42 265.909 L2187.04 265.909 Q2182.11 265.909 2180.24 264.08 Q2178.36 262.228 2178.36 257.367 L2178.36 243.293 L2175.24 243.293 L2175.24 239.983 L2178.36 239.983 L2178.36 232.622 L2182.64 232.622 Z" fill="#000000" fill-rule="nonzero" fill-opacity="1" /><path clip-path="url(#clip870)" d="M2196.35 229.937 L2200.05 229.937 Q2203.52 235.4 2205.24 240.631 Q2206.97 245.862 2206.97 251.024 Q2206.97 256.21 2205.24 261.464 Q2203.52 266.719 2200.05 272.159 L2196.35 272.159 Q2199.42 266.858 2200.93 261.626 Q2202.46 256.372 2202.46 251.024 Q2202.46 245.677 2200.93 240.469 Q2199.42 235.261 2196.35 229.937 Z" fill="#000000" fill-rule="nonzero" fill-opacity="1" /><polyline clip-path="url(#clip870)" style="stroke:#c271d2; stroke-linecap:round; stroke-linejoin:round; stroke-width:4; stroke-opacity:1; fill:none" points="1925.02,300.469 2074.39,300.469 "/>
<path clip-path="url(#clip870)" d="M2099.29 307.517 L2099.29 291.823 L2103.55 291.823 L2103.55 307.355 Q2103.55 311.036 2104.98 312.888 Q2106.42 314.716 2109.29 314.716 Q2112.74 314.716 2114.73 312.517 Q2116.74 310.318 2116.74 306.522 L2116.74 291.823 L2121 291.823 L2121 317.749 L2116.74 317.749 L2116.74 313.767 Q2115.19 316.128 2113.13 317.286 Q2111.09 318.42 2108.38 318.42 Q2103.92 318.42 2101.6 315.642 Q2099.29 312.864 2099.29 307.517 M2110 291.198 L2110 291.198 Z" fill="#000000" fill-rule="nonzero" fill-opacity="1" /><path clip-path="url(#clip870)" d="M2134.4 313.813 L2150.72 313.813 L2150.72 317.749 L2128.78 317.749 L2128.78 313.813 Q2131.44 311.059 2136.02 306.429 Q2140.63 301.776 2141.81 300.434 Q2144.05 297.911 2144.93 296.175 Q2145.84 294.415 2145.84 292.726 Q2145.84 289.971 2143.89 288.235 Q2141.97 286.499 2138.87 286.499 Q2136.67 286.499 2134.22 287.263 Q2131.79 288.027 2129.01 289.577 L2129.01 284.855 Q2131.83 283.721 2134.29 283.142 Q2136.74 282.564 2138.78 282.564 Q2144.15 282.564 2147.34 285.249 Q2150.54 287.934 2150.54 292.425 Q2150.54 294.554 2149.73 296.476 Q2148.94 298.374 2146.83 300.966 Q2146.25 301.638 2143.15 304.855 Q2140.05 308.05 2134.4 313.813 Z" fill="#000000" fill-rule="nonzero" fill-opacity="1" /><path clip-path="url(#clip870)" d="M2170.17 281.777 Q2167.06 287.101 2165.56 292.309 Q2164.05 297.517 2164.05 302.864 Q2164.05 308.212 2165.56 313.466 Q2167.09 318.698 2170.17 323.999 L2166.46 323.999 Q2162.99 318.559 2161.25 313.304 Q2159.54 308.05 2159.54 302.864 Q2159.54 297.702 2161.25 292.471 Q2162.97 287.24 2166.46 281.777 L2170.17 281.777 Z" fill="#000000" fill-rule="nonzero" fill-opacity="1" /><path clip-path="url(#clip870)" d="M2182.64 284.462 L2182.64 291.823 L2191.42 291.823 L2191.42 295.133 L2182.64 295.133 L2182.64 309.207 Q2182.64 312.378 2183.5 313.281 Q2184.38 314.184 2187.04 314.184 L2191.42 314.184 L2191.42 317.749 L2187.04 317.749 Q2182.11 317.749 2180.24 315.92 Q2178.36 314.068 2178.36 309.207 L2178.36 295.133 L2175.24 295.133 L2175.24 291.823 L2178.36 291.823 L2178.36 284.462 L2182.64 284.462 Z" fill="#000000" fill-rule="nonzero" fill-opacity="1" /><path clip-path="url(#clip870)" d="M2196.35 281.777 L2200.05 281.777 Q2203.52 287.24 2205.24 292.471 Q2206.97 297.702 2206.97 302.864 Q2206.97 308.05 2205.24 313.304 Q2203.52 318.559 2200.05 323.999 L2196.35 323.999 Q2199.42 318.698 2200.93 313.466 Q2202.46 308.212 2202.46 302.864 Q2202.46 297.517 2200.93 292.309 Q2199.42 287.101 2196.35 281.777 Z" fill="#000000" fill-rule="nonzero" fill-opacity="1" /></svg>
