<?xml version="1.0" encoding="utf-8"?>
<svg xmlns="http://www.w3.org/2000/svg" xmlns:xlink="http://www.w3.org/1999/xlink" width="600" height="400" viewBox="0 0 2400 1600">
<defs>
  <clipPath id="clip360">
    <rect x="0" y="0" width="2400" height="1600"/>
  </clipPath>
</defs>
<path clip-path="url(#clip360)" d="
M0 1600 L2400 1600 L2400 0 L0 0  Z
  " fill="#ffffff" fill-rule="evenodd" fill-opacity="1"/>
<defs>
  <clipPath id="clip361">
    <rect x="480" y="0" width="1681" height="1600"/>
  </clipPath>
</defs>
<path clip-path="url(#clip360)" d="
M156.274 1486.45 L2352.76 1486.45 L2352.76 47.2441 L156.274 47.2441  Z
  " fill="#ffffff" fill-rule="evenodd" fill-opacity="1"/>
<defs>
  <clipPath id="clip362">
    <rect x="156" y="47" width="2197" height="1440"/>
  </clipPath>
</defs>
<polyline clip-path="url(#clip362)" style="stroke:#000000; stroke-linecap:butt; stroke-linejoin:round; stroke-width:2; stroke-opacity:0.1; fill:none" points="
  218.439,1486.45 218.439,47.2441 
  "/>
<polyline clip-path="url(#clip362)" style="stroke:#000000; stroke-linecap:butt; stroke-linejoin:round; stroke-width:2; stroke-opacity:0.1; fill:none" points="
  736.477,1486.45 736.477,47.2441 
  "/>
<polyline clip-path="url(#clip362)" style="stroke:#000000; stroke-linecap:butt; stroke-linejoin:round; stroke-width:2; stroke-opacity:0.1; fill:none" points="
  1254.52,1486.45 1254.52,47.2441 
  "/>
<polyline clip-path="url(#clip362)" style="stroke:#000000; stroke-linecap:butt; stroke-linejoin:round; stroke-width:2; stroke-opacity:0.1; fill:none" points="
  1772.55,1486.45 1772.55,47.2441 
  "/>
<polyline clip-path="url(#clip362)" style="stroke:#000000; stroke-linecap:butt; stroke-linejoin:round; stroke-width:2; stroke-opacity:0.1; fill:none" points="
  2290.59,1486.45 2290.59,47.2441 
  "/>
<polyline clip-path="url(#clip360)" style="stroke:#000000; stroke-linecap:butt; stroke-linejoin:round; stroke-width:4; stroke-opacity:1; fill:none" points="
  156.274,1486.45 2352.76,1486.45 
  "/>
<polyline clip-path="url(#clip360)" style="stroke:#000000; stroke-linecap:butt; stroke-linejoin:round; stroke-width:4; stroke-opacity:1; fill:none" points="
  218.439,1486.45 218.439,1467.55 
  "/>
<polyline clip-path="url(#clip360)" style="stroke:#000000; stroke-linecap:butt; stroke-linejoin:round; stroke-width:4; stroke-opacity:1; fill:none" points="
  736.477,1486.45 736.477,1467.55 
  "/>
<polyline clip-path="url(#clip360)" style="stroke:#000000; stroke-linecap:butt; stroke-linejoin:round; stroke-width:4; stroke-opacity:1; fill:none" points="
  1254.52,1486.45 1254.52,1467.55 
  "/>
<polyline clip-path="url(#clip360)" style="stroke:#000000; stroke-linecap:butt; stroke-linejoin:round; stroke-width:4; stroke-opacity:1; fill:none" points="
  1772.55,1486.45 1772.55,1467.55 
  "/>
<polyline clip-path="url(#clip360)" style="stroke:#000000; stroke-linecap:butt; stroke-linejoin:round; stroke-width:4; stroke-opacity:1; fill:none" points="
  2290.59,1486.45 2290.59,1467.55 
  "/>
<path clip-path="url(#clip360)" d="M164.967 1532.02 L194.643 1532.02 L194.643 1535.95 L164.967 1535.95 L164.967 1532.02 Z" fill="#000000" fill-rule="evenodd" fill-opacity="1" /><path clip-path="url(#clip360)" d="M205.545 1544.91 L213.184 1544.91 L213.184 1518.55 L204.874 1520.21 L204.874 1515.95 L213.138 1514.29 L217.814 1514.29 L217.814 1544.91 L225.453 1544.91 L225.453 1548.85 L205.545 1548.85 L205.545 1544.91 Z" fill="#000000" fill-rule="evenodd" fill-opacity="1" /><path clip-path="url(#clip360)" d="M234.897 1542.97 L239.781 1542.97 L239.781 1548.85 L234.897 1548.85 L234.897 1542.97 Z" fill="#000000" fill-rule="evenodd" fill-opacity="1" /><path clip-path="url(#clip360)" d="M259.966 1517.37 Q256.355 1517.37 254.527 1520.93 Q252.721 1524.47 252.721 1531.6 Q252.721 1538.71 254.527 1542.27 Q256.355 1545.82 259.966 1545.82 Q263.601 1545.82 265.406 1542.27 Q267.235 1538.71 267.235 1531.6 Q267.235 1524.47 265.406 1520.93 Q263.601 1517.37 259.966 1517.37 M259.966 1513.66 Q265.776 1513.66 268.832 1518.27 Q271.911 1522.85 271.911 1531.6 Q271.911 1540.33 268.832 1544.94 Q265.776 1549.52 259.966 1549.52 Q254.156 1549.52 251.077 1544.94 Q248.022 1540.33 248.022 1531.6 Q248.022 1522.85 251.077 1518.27 Q254.156 1513.66 259.966 1513.66 Z" fill="#000000" fill-rule="evenodd" fill-opacity="1" /><path clip-path="url(#clip360)" d="M683.503 1532.02 L713.178 1532.02 L713.178 1535.95 L683.503 1535.95 L683.503 1532.02 Z" fill="#000000" fill-rule="evenodd" fill-opacity="1" /><path clip-path="url(#clip360)" d="M733.271 1517.37 Q729.66 1517.37 727.831 1520.93 Q726.026 1524.47 726.026 1531.6 Q726.026 1538.71 727.831 1542.27 Q729.66 1545.82 733.271 1545.82 Q736.905 1545.82 738.711 1542.27 Q740.539 1538.71 740.539 1531.6 Q740.539 1524.47 738.711 1520.93 Q736.905 1517.37 733.271 1517.37 M733.271 1513.66 Q739.081 1513.66 742.137 1518.27 Q745.215 1522.85 745.215 1531.6 Q745.215 1540.33 742.137 1544.94 Q739.081 1549.52 733.271 1549.52 Q727.461 1549.52 724.382 1544.94 Q721.327 1540.33 721.327 1531.6 Q721.327 1522.85 724.382 1518.27 Q727.461 1513.66 733.271 1513.66 Z" fill="#000000" fill-rule="evenodd" fill-opacity="1" /><path clip-path="url(#clip360)" d="M753.433 1542.97 L758.317 1542.97 L758.317 1548.85 L753.433 1548.85 L753.433 1542.97 Z" fill="#000000" fill-rule="evenodd" fill-opacity="1" /><path clip-path="url(#clip360)" d="M768.548 1514.29 L786.905 1514.29 L786.905 1518.22 L772.831 1518.22 L772.831 1526.7 Q773.849 1526.35 774.868 1526.19 Q775.886 1526 776.905 1526 Q782.692 1526 786.072 1529.17 Q789.451 1532.34 789.451 1537.76 Q789.451 1543.34 785.979 1546.44 Q782.507 1549.52 776.187 1549.52 Q774.011 1549.52 771.743 1549.15 Q769.498 1548.78 767.09 1548.04 L767.09 1543.34 Q769.173 1544.47 771.396 1545.03 Q773.618 1545.58 776.095 1545.58 Q780.099 1545.58 782.437 1543.48 Q784.775 1541.37 784.775 1537.76 Q784.775 1534.15 782.437 1532.04 Q780.099 1529.94 776.095 1529.94 Q774.22 1529.94 772.345 1530.35 Q770.493 1530.77 768.548 1531.65 L768.548 1514.29 Z" fill="#000000" fill-rule="evenodd" fill-opacity="1" /><path clip-path="url(#clip360)" d="M1231.9 1517.37 Q1228.29 1517.37 1226.46 1520.93 Q1224.65 1524.47 1224.65 1531.6 Q1224.65 1538.71 1226.46 1542.27 Q1228.29 1545.82 1231.9 1545.82 Q1235.53 1545.82 1237.34 1542.27 Q1239.17 1538.71 1239.17 1531.6 Q1239.17 1524.47 1237.34 1520.93 Q1235.53 1517.37 1231.9 1517.37 M1231.9 1513.66 Q1237.71 1513.66 1240.77 1518.27 Q1243.84 1522.85 1243.84 1531.6 Q1243.84 1540.33 1240.77 1544.94 Q1237.71 1549.52 1231.9 1549.52 Q1226.09 1549.52 1223.01 1544.94 Q1219.96 1540.33 1219.96 1531.6 Q1219.96 1522.85 1223.01 1518.27 Q1226.09 1513.66 1231.9 1513.66 Z" fill="#000000" fill-rule="evenodd" fill-opacity="1" /><path clip-path="url(#clip360)" d="M1252.06 1542.97 L1256.95 1542.97 L1256.95 1548.85 L1252.06 1548.85 L1252.06 1542.97 Z" fill="#000000" fill-rule="evenodd" fill-opacity="1" /><path clip-path="url(#clip360)" d="M1277.13 1517.37 Q1273.52 1517.37 1271.69 1520.93 Q1269.89 1524.47 1269.89 1531.6 Q1269.89 1538.71 1271.69 1542.27 Q1273.52 1545.82 1277.13 1545.82 Q1280.76 1545.82 1282.57 1542.27 Q1284.4 1538.71 1284.4 1531.6 Q1284.4 1524.47 1282.57 1520.93 Q1280.76 1517.37 1277.13 1517.37 M1277.13 1513.66 Q1282.94 1513.66 1286 1518.27 Q1289.08 1522.85 1289.08 1531.6 Q1289.08 1540.33 1286 1544.94 Q1282.94 1549.52 1277.13 1549.52 Q1271.32 1549.52 1268.24 1544.94 Q1265.19 1540.33 1265.19 1531.6 Q1265.19 1522.85 1268.24 1518.27 Q1271.32 1513.66 1277.13 1513.66 Z" fill="#000000" fill-rule="evenodd" fill-opacity="1" /><path clip-path="url(#clip360)" d="M1750.44 1517.37 Q1746.82 1517.37 1745 1520.93 Q1743.19 1524.47 1743.19 1531.6 Q1743.19 1538.71 1745 1542.27 Q1746.82 1545.82 1750.44 1545.82 Q1754.07 1545.82 1755.88 1542.27 Q1757.7 1538.71 1757.7 1531.6 Q1757.7 1524.47 1755.88 1520.93 Q1754.07 1517.37 1750.44 1517.37 M1750.44 1513.66 Q1756.25 1513.66 1759.3 1518.27 Q1762.38 1522.85 1762.38 1531.6 Q1762.38 1540.33 1759.3 1544.94 Q1756.25 1549.52 1750.44 1549.52 Q1744.63 1549.52 1741.55 1544.94 Q1738.49 1540.33 1738.49 1531.6 Q1738.49 1522.85 1741.55 1518.27 Q1744.63 1513.66 1750.44 1513.66 Z" fill="#000000" fill-rule="evenodd" fill-opacity="1" /><path clip-path="url(#clip360)" d="M1770.6 1542.97 L1775.48 1542.97 L1775.48 1548.85 L1770.6 1548.85 L1770.6 1542.97 Z" fill="#000000" fill-rule="evenodd" fill-opacity="1" /><path clip-path="url(#clip360)" d="M1785.71 1514.29 L1804.07 1514.29 L1804.07 1518.22 L1790 1518.22 L1790 1526.7 Q1791.01 1526.35 1792.03 1526.19 Q1793.05 1526 1794.07 1526 Q1799.86 1526 1803.24 1529.17 Q1806.62 1532.34 1806.62 1537.76 Q1806.62 1543.34 1803.14 1546.44 Q1799.67 1549.52 1793.35 1549.52 Q1791.18 1549.52 1788.91 1549.15 Q1786.66 1548.78 1784.25 1548.04 L1784.25 1543.34 Q1786.34 1544.47 1788.56 1545.03 Q1790.78 1545.58 1793.26 1545.58 Q1797.26 1545.58 1799.6 1543.48 Q1801.94 1541.37 1801.94 1537.76 Q1801.94 1534.15 1799.6 1532.04 Q1797.26 1529.94 1793.26 1529.94 Q1791.38 1529.94 1789.51 1530.35 Q1787.66 1530.77 1785.71 1531.65 L1785.71 1514.29 Z" fill="#000000" fill-rule="evenodd" fill-opacity="1" /><path clip-path="url(#clip360)" d="M2257.74 1544.91 L2265.38 1544.91 L2265.38 1518.55 L2257.07 1520.21 L2257.07 1515.95 L2265.34 1514.29 L2270.01 1514.29 L2270.01 1544.91 L2277.65 1544.91 L2277.65 1548.85 L2257.74 1548.85 L2257.74 1544.91 Z" fill="#000000" fill-rule="evenodd" fill-opacity="1" /><path clip-path="url(#clip360)" d="M2287.1 1542.97 L2291.98 1542.97 L2291.98 1548.85 L2287.1 1548.85 L2287.1 1542.97 Z" fill="#000000" fill-rule="evenodd" fill-opacity="1" /><path clip-path="url(#clip360)" d="M2312.17 1517.37 Q2308.55 1517.37 2306.73 1520.93 Q2304.92 1524.47 2304.92 1531.6 Q2304.92 1538.71 2306.73 1542.27 Q2308.55 1545.82 2312.17 1545.82 Q2315.8 1545.82 2317.61 1542.27 Q2319.43 1538.71 2319.43 1531.6 Q2319.43 1524.47 2317.61 1520.93 Q2315.8 1517.37 2312.17 1517.37 M2312.17 1513.66 Q2317.98 1513.66 2321.03 1518.27 Q2324.11 1522.85 2324.11 1531.6 Q2324.11 1540.33 2321.03 1544.94 Q2317.98 1549.52 2312.17 1549.52 Q2306.36 1549.52 2303.28 1544.94 Q2300.22 1540.33 2300.22 1531.6 Q2300.22 1522.85 2303.28 1518.27 Q2306.36 1513.66 2312.17 1513.66 Z" fill="#000000" fill-rule="evenodd" fill-opacity="1" /><polyline clip-path="url(#clip362)" style="stroke:#000000; stroke-linecap:butt; stroke-linejoin:round; stroke-width:2; stroke-opacity:0.1; fill:none" points="
  156.274,1260.42 2352.76,1260.42 
  "/>
<polyline clip-path="url(#clip362)" style="stroke:#000000; stroke-linecap:butt; stroke-linejoin:round; stroke-width:2; stroke-opacity:0.1; fill:none" points="
  156.274,985.357 2352.76,985.357 
  "/>
<polyline clip-path="url(#clip362)" style="stroke:#000000; stroke-linecap:butt; stroke-linejoin:round; stroke-width:2; stroke-opacity:0.1; fill:none" points="
  156.274,710.292 2352.76,710.292 
  "/>
<polyline clip-path="url(#clip362)" style="stroke:#000000; stroke-linecap:butt; stroke-linejoin:round; stroke-width:2; stroke-opacity:0.1; fill:none" points="
  156.274,435.227 2352.76,435.227 
  "/>
<polyline clip-path="url(#clip362)" style="stroke:#000000; stroke-linecap:butt; stroke-linejoin:round; stroke-width:2; stroke-opacity:0.1; fill:none" points="
  156.274,160.163 2352.76,160.163 
  "/>
<polyline clip-path="url(#clip360)" style="stroke:#000000; stroke-linecap:butt; stroke-linejoin:round; stroke-width:4; stroke-opacity:1; fill:none" points="
  156.274,1486.45 156.274,47.2441 
  "/>
<polyline clip-path="url(#clip360)" style="stroke:#000000; stroke-linecap:butt; stroke-linejoin:round; stroke-width:4; stroke-opacity:1; fill:none" points="
  156.274,1260.42 175.172,1260.42 
  "/>
<polyline clip-path="url(#clip360)" style="stroke:#000000; stroke-linecap:butt; stroke-linejoin:round; stroke-width:4; stroke-opacity:1; fill:none" points="
  156.274,985.357 175.172,985.357 
  "/>
<polyline clip-path="url(#clip360)" style="stroke:#000000; stroke-linecap:butt; stroke-linejoin:round; stroke-width:4; stroke-opacity:1; fill:none" points="
  156.274,710.292 175.172,710.292 
  "/>
<polyline clip-path="url(#clip360)" style="stroke:#000000; stroke-linecap:butt; stroke-linejoin:round; stroke-width:4; stroke-opacity:1; fill:none" points="
  156.274,435.227 175.172,435.227 
  "/>
<polyline clip-path="url(#clip360)" style="stroke:#000000; stroke-linecap:butt; stroke-linejoin:round; stroke-width:4; stroke-opacity:1; fill:none" points="
  156.274,160.163 175.172,160.163 
  "/>
<path clip-path="url(#clip360)" d="M63.0985 1246.22 Q59.4875 1246.22 57.6588 1249.79 Q55.8532 1253.33 55.8532 1260.46 Q55.8532 1267.56 57.6588 1271.13 Q59.4875 1274.67 63.0985 1274.67 Q66.7328 1274.67 68.5383 1271.13 Q70.367 1267.56 70.367 1260.46 Q70.367 1253.33 68.5383 1249.79 Q66.7328 1246.22 63.0985 1246.22 M63.0985 1242.52 Q68.9087 1242.52 71.9642 1247.12 Q75.0429 1251.71 75.0429 1260.46 Q75.0429 1269.18 71.9642 1273.79 Q68.9087 1278.37 63.0985 1278.37 Q57.2884 1278.37 54.2097 1273.79 Q51.1542 1269.18 51.1542 1260.46 Q51.1542 1251.71 54.2097 1247.12 Q57.2884 1242.52 63.0985 1242.52 Z" fill="#000000" fill-rule="evenodd" fill-opacity="1" /><path clip-path="url(#clip360)" d="M83.2605 1271.82 L88.1447 1271.82 L88.1447 1277.7 L83.2605 1277.7 L83.2605 1271.82 Z" fill="#000000" fill-rule="evenodd" fill-opacity="1" /><path clip-path="url(#clip360)" d="M108.33 1246.22 Q104.719 1246.22 102.89 1249.79 Q101.084 1253.33 101.084 1260.46 Q101.084 1267.56 102.89 1271.13 Q104.719 1274.67 108.33 1274.67 Q111.964 1274.67 113.77 1271.13 Q115.598 1267.56 115.598 1260.46 Q115.598 1253.33 113.77 1249.79 Q111.964 1246.22 108.33 1246.22 M108.33 1242.52 Q114.14 1242.52 117.195 1247.12 Q120.274 1251.71 120.274 1260.46 Q120.274 1269.18 117.195 1273.79 Q114.14 1278.37 108.33 1278.37 Q102.52 1278.37 99.4409 1273.79 Q96.3854 1269.18 96.3854 1260.46 Q96.3854 1251.71 99.4409 1247.12 Q102.52 1242.52 108.33 1242.52 Z" fill="#000000" fill-rule="evenodd" fill-opacity="1" /><path clip-path="url(#clip360)" d="M63.7467 971.156 Q60.1356 971.156 58.3069 974.72 Q56.5014 978.262 56.5014 985.392 Q56.5014 992.498 58.3069 996.063 Q60.1356 999.604 63.7467 999.604 Q67.3809 999.604 69.1865 996.063 Q71.0152 992.498 71.0152 985.392 Q71.0152 978.262 69.1865 974.72 Q67.3809 971.156 63.7467 971.156 M63.7467 967.452 Q69.5568 967.452 72.6124 972.058 Q75.6911 976.642 75.6911 985.392 Q75.6911 994.118 72.6124 998.725 Q69.5568 1003.31 63.7467 1003.31 Q57.9365 1003.31 54.8578 998.725 Q51.8023 994.118 51.8023 985.392 Q51.8023 976.642 54.8578 972.058 Q57.9365 967.452 63.7467 967.452 Z" fill="#000000" fill-rule="evenodd" fill-opacity="1" /><path clip-path="url(#clip360)" d="M83.9086 996.757 L88.7928 996.757 L88.7928 1002.64 L83.9086 1002.64 L83.9086 996.757 Z" fill="#000000" fill-rule="evenodd" fill-opacity="1" /><path clip-path="url(#clip360)" d="M113.145 984.003 Q116.501 984.72 118.376 986.989 Q120.274 989.257 120.274 992.591 Q120.274 997.706 116.756 1000.51 Q113.237 1003.31 106.756 1003.31 Q104.58 1003.31 102.265 1002.87 Q99.9733 1002.45 97.5197 1001.6 L97.5197 997.081 Q99.4641 998.216 101.779 998.794 Q104.094 999.373 106.617 999.373 Q111.015 999.373 113.307 997.637 Q115.621 995.901 115.621 992.591 Q115.621 989.535 113.469 987.822 Q111.339 986.086 107.52 986.086 L103.492 986.086 L103.492 982.243 L107.705 982.243 Q111.154 982.243 112.983 980.878 Q114.811 979.489 114.811 976.896 Q114.811 974.234 112.913 972.822 Q111.038 971.387 107.52 971.387 Q105.598 971.387 103.399 971.804 Q101.2 972.22 98.5613 973.1 L98.5613 968.933 Q101.223 968.193 103.538 967.822 Q105.876 967.452 107.936 967.452 Q113.26 967.452 116.362 969.882 Q119.464 972.29 119.464 976.41 Q119.464 979.28 117.82 981.271 Q116.177 983.239 113.145 984.003 Z" fill="#000000" fill-rule="evenodd" fill-opacity="1" /><path clip-path="url(#clip360)" d="M62.9365 696.091 Q59.3254 696.091 57.4967 699.656 Q55.6912 703.197 55.6912 710.327 Q55.6912 717.433 57.4967 720.998 Q59.3254 724.54 62.9365 724.54 Q66.5707 724.54 68.3763 720.998 Q70.205 717.433 70.205 710.327 Q70.205 703.197 68.3763 699.656 Q66.5707 696.091 62.9365 696.091 M62.9365 692.387 Q68.7467 692.387 71.8022 696.994 Q74.8809 701.577 74.8809 710.327 Q74.8809 719.054 71.8022 723.66 Q68.7467 728.243 62.9365 728.243 Q57.1264 728.243 54.0477 723.66 Q50.9921 719.054 50.9921 710.327 Q50.9921 701.577 54.0477 696.994 Q57.1264 692.387 62.9365 692.387 Z" fill="#000000" fill-rule="evenodd" fill-opacity="1" /><path clip-path="url(#clip360)" d="M83.0984 721.693 L87.9827 721.693 L87.9827 727.572 L83.0984 727.572 L83.0984 721.693 Z" fill="#000000" fill-rule="evenodd" fill-opacity="1" /><path clip-path="url(#clip360)" d="M108.746 708.429 Q105.598 708.429 103.746 710.582 Q101.918 712.734 101.918 716.484 Q101.918 720.211 103.746 722.387 Q105.598 724.54 108.746 724.54 Q111.895 724.54 113.723 722.387 Q115.575 720.211 115.575 716.484 Q115.575 712.734 113.723 710.582 Q111.895 708.429 108.746 708.429 M118.029 693.776 L118.029 698.035 Q116.27 697.202 114.464 696.762 Q112.682 696.322 110.922 696.322 Q106.293 696.322 103.839 699.447 Q101.409 702.572 101.061 708.892 Q102.427 706.878 104.487 705.813 Q106.547 704.725 109.024 704.725 Q114.233 704.725 117.242 707.896 Q120.274 711.044 120.274 716.484 Q120.274 721.808 117.126 725.026 Q113.978 728.243 108.746 728.243 Q102.751 728.243 99.5798 723.66 Q96.4085 719.054 96.4085 710.327 Q96.4085 702.132 100.297 697.271 Q104.186 692.387 110.737 692.387 Q112.496 692.387 114.279 692.734 Q116.084 693.082 118.029 693.776 Z" fill="#000000" fill-rule="evenodd" fill-opacity="1" /><path clip-path="url(#clip360)" d="M63.2837 421.026 Q59.6726 421.026 57.8439 424.591 Q56.0384 428.133 56.0384 435.262 Q56.0384 442.369 57.8439 445.933 Q59.6726 449.475 63.2837 449.475 Q66.918 449.475 68.7235 445.933 Q70.5522 442.369 70.5522 435.262 Q70.5522 428.133 68.7235 424.591 Q66.918 421.026 63.2837 421.026 M63.2837 417.322 Q69.0939 417.322 72.1494 421.929 Q75.2281 426.512 75.2281 435.262 Q75.2281 443.989 72.1494 448.595 Q69.0939 453.179 63.2837 453.179 Q57.4736 453.179 54.3949 448.595 Q51.3393 443.989 51.3393 435.262 Q51.3393 426.512 54.3949 421.929 Q57.4736 417.322 63.2837 417.322 Z" fill="#000000" fill-rule="evenodd" fill-opacity="1" /><path clip-path="url(#clip360)" d="M83.4457 446.628 L88.3299 446.628 L88.3299 452.507 L83.4457 452.507 L83.4457 446.628 Z" fill="#000000" fill-rule="evenodd" fill-opacity="1" /><path clip-path="url(#clip360)" d="M98.6539 451.79 L98.6539 447.531 Q100.413 448.364 102.219 448.804 Q104.024 449.244 105.76 449.244 Q110.39 449.244 112.82 446.142 Q115.274 443.017 115.621 436.674 Q114.279 438.665 112.219 439.73 Q110.158 440.795 107.658 440.795 Q102.473 440.795 99.4409 437.67 Q96.4317 434.521 96.4317 429.082 Q96.4317 423.758 99.5798 420.54 Q102.728 417.322 107.959 417.322 Q113.955 417.322 117.103 421.929 Q120.274 426.512 120.274 435.262 Q120.274 443.433 116.385 448.318 Q112.52 453.179 105.969 453.179 Q104.209 453.179 102.404 452.832 Q100.598 452.484 98.6539 451.79 M107.959 437.137 Q111.108 437.137 112.936 434.984 Q114.788 432.832 114.788 429.082 Q114.788 425.355 112.936 423.202 Q111.108 421.026 107.959 421.026 Q104.811 421.026 102.959 423.202 Q101.131 425.355 101.131 429.082 Q101.131 432.832 102.959 434.984 Q104.811 437.137 107.959 437.137 Z" fill="#000000" fill-rule="evenodd" fill-opacity="1" /><path clip-path="url(#clip360)" d="M55.506 173.508 L63.1448 173.508 L63.1448 147.142 L54.8347 148.809 L54.8347 144.549 L63.0985 142.883 L67.7744 142.883 L67.7744 173.508 L75.4133 173.508 L75.4133 177.443 L55.506 177.443 L55.506 173.508 Z" fill="#000000" fill-rule="evenodd" fill-opacity="1" /><path clip-path="url(#clip360)" d="M84.8577 171.563 L89.7419 171.563 L89.7419 177.443 L84.8577 177.443 L84.8577 171.563 Z" fill="#000000" fill-rule="evenodd" fill-opacity="1" /><path clip-path="url(#clip360)" d="M103.955 173.508 L120.274 173.508 L120.274 177.443 L98.3298 177.443 L98.3298 173.508 Q100.992 170.753 105.575 166.123 Q110.182 161.471 111.362 160.128 Q113.608 157.605 114.487 155.869 Q115.39 154.11 115.39 152.42 Q115.39 149.665 113.445 147.929 Q111.524 146.193 108.422 146.193 Q106.223 146.193 103.77 146.957 Q101.339 147.721 98.5613 149.272 L98.5613 144.549 Q101.385 143.415 103.839 142.836 Q106.293 142.258 108.33 142.258 Q113.7 142.258 116.895 144.943 Q120.089 147.628 120.089 152.119 Q120.089 154.248 119.279 156.17 Q118.492 158.068 116.385 160.66 Q115.807 161.332 112.705 164.549 Q109.603 167.744 103.955 173.508 Z" fill="#000000" fill-rule="evenodd" fill-opacity="1" /><polyline clip-path="url(#clip362)" style="stroke:#009af9; stroke-linecap:butt; stroke-linejoin:round; stroke-width:16; stroke-opacity:1; fill:none" stroke-dasharray="8, 16" points="
  218.439,1123.66 225.369,1107.99 232.299,1098.59 239.23,1088.11 246.16,1081.13 253.09,1078.99 260.02,1078.65 266.951,1078.86 273.881,1081.34 280.811,1087.68 
  287.742,1097.63 294.672,1109.99 301.602,1123.98 308.532,1139.35 315.463,1155.87 322.393,1173.73 329.323,1193.56 336.253,1215.53 343.184,1238.58 350.114,1260.97 
  357.044,1281.92 363.975,1302.37 370.905,1323.41 377.835,1344.62 384.765,1364.51 391.696,1381.76 398.626,1396.21 405.556,1409.15 412.486,1421.68 419.417,1432.61 
  426.347,1439.49 433.277,1441.81 440.208,1441.93 447.138,1441.94 454.068,1440.46 460.998,1434.25 467.929,1423.01 474.859,1410.2 481.789,1398.32 488.72,1385.61 
  495.65,1368.7 502.58,1347.51 509.51,1325.84 516.441,1306.08 523.371,1286.23 530.301,1264.26 537.231,1241.51 544.162,1219.55 551.092,1197.85 558.022,1176.78 
  564.953,1158.43 571.883,1142.7 578.813,1127.13 585.743,1111.3 592.674,1097.81 599.604,1089.07 606.534,1084.4 613.464,1080.79 620.395,1077.22 627.325,1076.16 
  634.255,1080.24 641.186,1088.74 648.116,1098.18 655.046,1107.12 661.976,1118.31 668.907,1134.34 675.837,1153.54 682.767,1172.64 689.698,1191.12 696.628,1211.05 
  703.558,1233.45 710.488,1256.54 717.419,1278.03 724.349,1298.21 731.279,1319.14 738.209,1340.96 745.14,1361.26 752.07,1378.7 759,1394.33 765.931,1408.5 
  772.861,1419.85 779.791,1428.37 786.721,1435.91 793.652,1442.56 800.582,1445.72 807.512,1443.72 814.442,1438.61 821.373,1432.97 828.303,1425.87 835.233,1415.12 
  842.164,1401.34 849.094,1386.61 856.024,1371.08 862.954,1352.92 869.885,1331.25 876.815,1308.56 883.745,1288.25 890.676,1269.23 897.606,1247.22 904.536,1222.65 
  911.466,1200.41 918.397,1181.6 925.327,1163.23 932.257,1144.67 939.187,1128.19 946.118,1114.3 953.048,1101.69 959.978,1090.88 966.909,1083.7 973.839,1080.12 
  980.769,1078.4 987.699,1077.7 994.63,1079.24 1001.56,1084.94 1008.49,1094.89 1015.42,1106.79 1022.35,1118.85 1029.28,1131.67 1036.21,1147.13 1043.14,1166.22 
  1050.07,1187.87 1057,1209.83 1063.93,1230.6 1070.86,1250.8 1077.79,1272.14 1084.72,1294.94 1091.65,1317.3 1098.58,1337.77 1105.51,1356.9 1112.44,1374.62 
  1119.37,1390.57 1126.3,1405.31 1133.24,1418.5 1140.17,1428.99 1147.1,1435.43 1154.03,1439.88 1160.96,1444.08 1167.89,1444.93 1174.82,1440.18 1181.75,1432.45 
  1188.68,1425.67 1195.61,1419.4 1202.54,1408.23 1209.47,1389.49 1216.4,1368.47 1223.33,1352.76 1230.26,1344.35 1237.19,1309.14 1244.12,1294.75 1251.05,1270.77 
  1257.98,343.746 1264.91,337.489 1271.84,346.283 1278.77,338.225 1285.7,344.144 1292.63,348.521 1299.56,353.058 1306.49,355.44 1313.42,357.94 1320.35,360.797 
  1327.28,360.282 1334.21,354.83 1341.14,346.818 1348.07,339.053 1355,331.015 1361.93,321.353 1368.86,313.852 1375.79,312.368 1382.73,313.814 1389.66,316.243 
  1396.59,324.677 1403.52,341.539 1410.45,357.915 1417.38,368.341 1424.31,378.222 1431.24,388.811 1438.17,394.074 1445.1,389.835 1452.03,377.302 1458.96,360.072 
  1465.89,341.097 1472.82,321.989 1479.75,303.86 1486.68,288.685 1493.61,279.99 1500.54,280.77 1507.47,290.061 1514.4,304.919 1521.33,325.514 1528.26,352.332 
  1535.19,380.58 1542.12,402.834 1549.05,415.679 1555.98,420.915 1562.91,419.787 1569.84,408.827 1576.77,385.021 1583.7,352.579 1590.63,320.003 1597.56,292.178 
  1604.49,269.079 1611.42,252.097 1618.35,246.691 1625.28,256.018 1632.22,277.125 1639.15,305.92 1646.08,340.664 1653.01,378.985 1659.94,415.155 1666.87,441.821 
  1673.8,454.026 1680.73,451.779 1687.66,437.7 1694.59,412.429 1701.52,375.898 1708.45,332.302 1715.38,289.28 1722.31,253.02 1729.24,227.036 1736.17,214.648 
  1743.1,219.595 1750.03,242.578 1756.96,279.421 1763.89,324.166 1770.82,371.745 1777.75,417.121 1784.68,454.635 1791.61,479.346 1798.54,487.706 1805.47,477.308 
  1812.4,447.882 1819.33,402.918 1826.26,349.351 1833.19,295.065 1840.12,246.51 1847.05,208.689 1853.98,186.706 1860.91,185.131 1867.84,204.887 1874.77,242.785 
  1881.71,294.286 1888.64,354.013 1895.57,414.241 1902.5,466.019 1909.43,501.947 1916.36,517.729 1923.29,512.076 1930.22,485.631 1937.15,440.169 1944.08,379.037 
  1951.01,310.026 1957.94,245.871 1964.87,196.882 1971.8,165.565 1978.73,152.549 1985.66,162.881 1992.59,200.675 1999.52,260.503 2006.45,330.009 2013.38,399.496 
  2020.31,463.652 2027.24,516.043 2034.17,547.473 2041.1,550.834 2048.03,525.878 2054.96,477.849 2061.89,413.017 2068.82,337.884 2075.75,261.158 2082.68,193.433 
  2089.61,144.379 2096.54,120.602 2103.47,125.564 2110.4,159.543 2117.33,218.34 2124.26,293.438 2131.19,375.19 2138.13,454.788 2145.06,522.665 2151.99,568.471 
  2158.92,584.776 2165.85,569.263 2172.78,523.941 2179.71,454.59 2186.64,370.384 2193.57,282.26 2200.5,200.872 2207.43,135.856 2214.36,95.9674 2221.29,87.9763 
  2228.22,114.141 2235.15,170.885 2242.08,250.206 2249.01,342.399 2255.94,436.947 2262.87,520.983 2269.8,581.182 2276.73,610.741 2283.66,609.427 2290.59,572.694 
  
  "/>
<polyline clip-path="url(#clip362)" style="stroke:#e26f46; stroke-linecap:butt; stroke-linejoin:round; stroke-width:4; stroke-opacity:1; fill:none" points="
  218.439,1122.71 225.369,1109.16 232.299,1097.8 239.23,1088.8 246.16,1082.29 253.09,1078.35 260.02,1077.05 266.951,1078.4 273.881,1082.39 280.811,1088.95 
  287.742,1098 294.672,1109.4 301.602,1122.99 308.532,1138.57 315.463,1155.91 322.393,1174.77 329.323,1194.86 336.253,1215.9 343.184,1237.59 350.114,1259.61 
  357.044,1281.64 363.975,1303.37 370.905,1324.47 377.835,1344.64 384.765,1363.6 391.696,1381.06 398.626,1396.78 405.556,1410.52 412.486,1422.08 419.417,1431.31 
  426.347,1438.06 433.277,1442.24 440.208,1443.79 447.138,1442.68 454.068,1438.94 460.998,1432.6 467.929,1423.78 474.859,1412.59 481.789,1399.2 488.72,1383.8 
  495.65,1366.61 502.58,1347.88 509.51,1327.89 516.441,1306.92 523.371,1285.28 530.301,1263.28 537.231,1241.23 544.162,1219.47 551.092,1198.29 558.022,1178.02 
  564.953,1158.94 571.883,1141.33 578.813,1125.44 585.743,1111.51 592.674,1099.74 599.604,1090.29 606.534,1083.3 613.464,1078.88 620.395,1077.09 627.325,1077.95 
  634.255,1081.45 641.186,1087.55 648.116,1096.14 655.046,1107.12 661.976,1120.32 668.907,1135.54 675.837,1152.57 682.767,1171.17 689.698,1191.05 696.628,1211.95 
  703.558,1233.54 710.488,1255.52 717.419,1277.57 724.349,1299.38 731.279,1320.62 738.209,1340.99 745.14,1360.19 752.07,1377.95 759,1394.01 765.931,1408.13 
  772.861,1420.11 779.791,1429.78 786.721,1437 793.652,1441.66 800.582,1443.7 807.512,1443.09 814.442,1439.83 821.373,1433.97 828.303,1425.6 835.233,1414.84 
  842.164,1401.84 849.094,1386.79 856.024,1369.92 862.954,1351.46 869.885,1331.68 876.815,1310.87 883.745,1289.33 890.676,1267.37 897.606,1245.31 904.536,1223.47 
  911.466,1202.16 918.397,1181.7 925.327,1162.37 932.257,1144.47 939.187,1128.25 946.118,1113.94 953.048,1101.75 959.978,1091.86 966.909,1084.4 973.839,1079.5 
  980.769,1077.22 987.699,1077.59 994.63,1080.6 1001.56,1086.22 1008.49,1094.37 1015.42,1104.91 1022.35,1117.71 1029.28,1132.58 1036.21,1149.29 1043.14,1167.62 
  1050.07,1187.28 1057,1208.01 1063.93,1229.5 1070.86,1251.43 1077.79,1273.5 1084.72,1295.37 1091.65,1316.74 1098.58,1337.29 1105.51,1356.73 1112.44,1374.78 
  1119.37,1391.17 1126.3,1405.67 1133.24,1418.06 1140.17,1428.17 1147.1,1435.85 1154.03,1441 1160.96,1443.52 1167.89,1443.4 1174.82,1440.63 1181.75,1435.25 
  1188.68,1427.33 1195.61,1417 1202.54,1404.41 1209.47,1389.73 1216.4,1373.17 1223.33,1354.99 1230.26,1335.43 1237.19,1314.79 1244.12,1293.36 1251.05,1271.45 
  1257.98,342.634 1264.91,341.175 1271.84,340.691 1278.77,341.596 1285.7,343.991 1292.63,347.627 1299.56,351.925 1306.49,356.067 1313.42,359.139 1320.35,360.289 
  1327.28,358.906 1334.21,354.752 1341.14,348.048 1348.07,339.487 1355,330.166 1361.93,321.445 1368.86,314.754 1375.79,311.364 1382.73,312.176 1389.66,317.541 
  1396.59,327.157 1403.52,340.059 1410.45,354.705 1417.38,369.163 1424.31,381.361 1431.24,389.386 1438.17,391.77 1445.1,387.739 1452.03,377.371 1458.96,361.643 
  1465.89,342.353 1472.82,321.915 1479.75,303.062 1486.68,288.476 1493.61,280.411 1500.54,280.358 1507.47,288.788 1514.4,305.037 1521.33,327.334 1528.26,352.989 
  1535.19,378.713 1542.12,401.045 1549.05,416.81 1555.98,423.574 1562.91,420.003 1569.84,406.099 1576.77,383.257 1583.7,354.138 1590.63,322.359 1597.56,292.051 
  1604.49,267.315 1611.42,251.673 1618.35,247.568 1625.28,255.996 1632.22,276.316 1639.15,306.277 1646.08,342.258 1653.01,379.704 1659.94,413.705 1666.87,439.637 
  1673.8,453.79 1680.73,453.894 1687.66,439.468 1694.59,411.945 1701.52,374.539 1708.45,331.878 1715.38,289.427 1722.31,252.793 1729.24,226.983 1736.17,215.72 
  1743.1,220.916 1750.03,242.361 1756.96,277.694 1763.89,322.657 1770.82,371.598 1777.75,418.193 1784.68,456.248 1791.61,480.538 1798.54,487.507 1805.47,475.793 
  1812.4,446.454 1819.33,402.899 1826.26,350.489 1833.19,295.883 1840.12,246.191 1847.05,208.048 1853.98,186.73 1860.91,185.428 1867.84,204.775 1874.77,242.712 
  1881.71,294.688 1888.64,354.213 1895.57,413.658 1902.5,465.238 1909.43,502.032 1916.36,518.906 1923.29,513.229 1930.22,485.27 1937.15,438.223 1944.08,377.847 
  1951.01,311.766 1957.94,248.505 1964.87,196.388 1971.8,162.45 1978.73,151.48 1985.66,165.357 1992.59,202.745 1999.52,259.207 2006.45,327.731 2013.38,399.591 
  2020.31,465.465 2027.24,516.645 2034.17,546.183 2041.1,549.833 2048.03,526.658 2054.96,479.208 2061.89,413.247 2068.82,337.061 2075.75,260.411 2082.68,193.287 
  2089.61,144.604 2096.54,121.021 2103.47,126.031 2110.4,159.452 2117.33,217.393 2124.26,292.7 2131.19,375.836 2138.13,456.092 2145.06,522.963 2151.99,567.526 
  2158.92,583.625 2165.85,568.722 2172.78,524.283 2179.71,455.645 2186.64,371.381 2193.57,282.233 2200.5,199.735 2207.43,134.731 2214.36,95.9403 2221.29,88.7962 
  2228.22,114.687 2235.15,170.718 2242.08,250.024 2249.01,342.614 2255.94,436.625 2262.87,519.839 2269.8,581.28 2276.73,612.652 2283.66,609.461 2290.59,571.653 
  
  "/>
<path clip-path="url(#clip360)" d="
M229.49 250.738 L700.371 250.738 L700.371 95.2176 L229.49 95.2176  Z
  " fill="#ffffff" fill-rule="evenodd" fill-opacity="1"/>
<polyline clip-path="url(#clip360)" style="stroke:#000000; stroke-linecap:butt; stroke-linejoin:round; stroke-width:4; stroke-opacity:1; fill:none" points="
  229.49,250.738 700.371,250.738 700.371,95.2176 229.49,95.2176 229.49,250.738 
  "/>
<polyline clip-path="url(#clip360)" style="stroke:#009af9; stroke-linecap:butt; stroke-linejoin:round; stroke-width:4; stroke-opacity:1; fill:none" stroke-dasharray="2, 4" points="
  253.896,147.058 400.328,147.058 
  "/>
<path clip-path="url(#clip360)" d="M429.409 133.62 L429.409 146.606 L435.289 146.606 Q438.552 146.606 440.335 144.916 Q442.117 143.227 442.117 140.102 Q442.117 137 440.335 135.31 Q438.552 133.62 435.289 133.62 L429.409 133.62 M424.733 129.778 L435.289 129.778 Q441.099 129.778 444.062 132.416 Q447.048 135.032 447.048 140.102 Q447.048 145.217 444.062 147.833 Q441.099 150.449 435.289 150.449 L429.409 150.449 L429.409 164.338 L424.733 164.338 L424.733 129.778 Z" fill="#000000" fill-rule="evenodd" fill-opacity="1" /><path clip-path="url(#clip360)" d="M467.325 142.393 Q466.608 141.977 465.751 141.791 Q464.918 141.583 463.899 141.583 Q460.288 141.583 458.344 143.944 Q456.423 146.282 456.423 150.68 L456.423 164.338 L452.14 164.338 L452.14 138.412 L456.423 138.412 L456.423 142.44 Q457.765 140.078 459.918 138.944 Q462.071 137.787 465.149 137.787 Q465.589 137.787 466.122 137.856 Q466.654 137.903 467.302 138.018 L467.325 142.393 Z" fill="#000000" fill-rule="evenodd" fill-opacity="1" /><path clip-path="url(#clip360)" d="M492.927 150.31 L492.927 152.393 L473.344 152.393 Q473.622 156.791 475.983 159.106 Q478.367 161.398 482.603 161.398 Q485.057 161.398 487.348 160.796 Q489.663 160.194 491.932 158.99 L491.932 163.018 Q489.64 163.99 487.233 164.5 Q484.825 165.009 482.348 165.009 Q476.145 165.009 472.511 161.398 Q468.899 157.787 468.899 151.629 Q468.899 145.264 472.325 141.537 Q475.774 137.787 481.608 137.787 Q486.839 137.787 489.872 141.166 Q492.927 144.523 492.927 150.31 M488.668 149.06 Q488.622 145.565 486.7 143.481 Q484.802 141.398 481.654 141.398 Q478.089 141.398 475.936 143.412 Q473.807 145.426 473.483 149.083 L488.668 149.06 Z" fill="#000000" fill-rule="evenodd" fill-opacity="1" /><path clip-path="url(#clip360)" d="M516.978 142.347 L516.978 128.319 L521.237 128.319 L521.237 164.338 L516.978 164.338 L516.978 160.449 Q515.635 162.763 513.575 163.898 Q511.538 165.009 508.668 165.009 Q503.969 165.009 501.006 161.259 Q498.066 157.509 498.066 151.398 Q498.066 145.287 501.006 141.537 Q503.969 137.787 508.668 137.787 Q511.538 137.787 513.575 138.921 Q515.635 140.032 516.978 142.347 M502.464 151.398 Q502.464 156.097 504.385 158.782 Q506.33 161.444 509.709 161.444 Q513.089 161.444 515.033 158.782 Q516.978 156.097 516.978 151.398 Q516.978 146.699 515.033 144.037 Q513.089 141.352 509.709 141.352 Q506.33 141.352 504.385 144.037 Q502.464 146.699 502.464 151.398 Z" fill="#000000" fill-rule="evenodd" fill-opacity="1" /><path clip-path="url(#clip360)" d="M530.01 138.412 L534.269 138.412 L534.269 164.338 L530.01 164.338 L530.01 138.412 M530.01 128.319 L534.269 128.319 L534.269 133.713 L530.01 133.713 L530.01 128.319 Z" fill="#000000" fill-rule="evenodd" fill-opacity="1" /><path clip-path="url(#clip360)" d="M561.839 139.407 L561.839 143.389 Q560.033 142.393 558.205 141.907 Q556.399 141.398 554.547 141.398 Q550.404 141.398 548.112 144.037 Q545.82 146.652 545.82 151.398 Q545.82 156.143 548.112 158.782 Q550.404 161.398 554.547 161.398 Q556.399 161.398 558.205 160.912 Q560.033 160.402 561.839 159.407 L561.839 163.342 Q560.056 164.176 558.135 164.592 Q556.237 165.009 554.084 165.009 Q548.228 165.009 544.779 161.328 Q541.33 157.648 541.33 151.398 Q541.33 145.055 544.802 141.421 Q548.297 137.787 554.362 137.787 Q556.33 137.787 558.205 138.203 Q560.08 138.597 561.839 139.407 Z" fill="#000000" fill-rule="evenodd" fill-opacity="1" /><path clip-path="url(#clip360)" d="M573.459 131.051 L573.459 138.412 L582.232 138.412 L582.232 141.722 L573.459 141.722 L573.459 155.796 Q573.459 158.967 574.316 159.87 Q575.195 160.773 577.857 160.773 L582.232 160.773 L582.232 164.338 L577.857 164.338 Q572.927 164.338 571.052 162.509 Q569.177 160.657 569.177 155.796 L569.177 141.722 L566.052 141.722 L566.052 138.412 L569.177 138.412 L569.177 131.051 L573.459 131.051 Z" fill="#000000" fill-rule="evenodd" fill-opacity="1" /><path clip-path="url(#clip360)" d="M587.834 138.412 L592.093 138.412 L592.093 164.338 L587.834 164.338 L587.834 138.412 M587.834 128.319 L592.093 128.319 L592.093 133.713 L587.834 133.713 L587.834 128.319 Z" fill="#000000" fill-rule="evenodd" fill-opacity="1" /><path clip-path="url(#clip360)" d="M611.051 141.398 Q607.626 141.398 605.635 144.083 Q603.644 146.745 603.644 151.398 Q603.644 156.051 605.612 158.736 Q607.602 161.398 611.051 161.398 Q614.454 161.398 616.445 158.713 Q618.436 156.027 618.436 151.398 Q618.436 146.791 616.445 144.106 Q614.454 141.398 611.051 141.398 M611.051 137.787 Q616.607 137.787 619.778 141.398 Q622.95 145.009 622.95 151.398 Q622.95 157.764 619.778 161.398 Q616.607 165.009 611.051 165.009 Q605.473 165.009 602.302 161.398 Q599.153 157.764 599.153 151.398 Q599.153 145.009 602.302 141.398 Q605.473 137.787 611.051 137.787 Z" fill="#000000" fill-rule="evenodd" fill-opacity="1" /><path clip-path="url(#clip360)" d="M651.561 148.689 L651.561 164.338 L647.301 164.338 L647.301 148.828 Q647.301 145.148 645.866 143.319 Q644.431 141.49 641.561 141.49 Q638.112 141.49 636.121 143.69 Q634.13 145.889 634.13 149.685 L634.13 164.338 L629.848 164.338 L629.848 138.412 L634.13 138.412 L634.13 142.44 Q635.658 140.102 637.718 138.944 Q639.801 137.787 642.51 137.787 Q646.977 137.787 649.269 140.565 Q651.561 143.319 651.561 148.689 Z" fill="#000000" fill-rule="evenodd" fill-opacity="1" /><polyline clip-path="url(#clip360)" style="stroke:#e26f46; stroke-linecap:butt; stroke-linejoin:round; stroke-width:4; stroke-opacity:1; fill:none" points="
  253.896,198.898 400.328,198.898 
  "/>
<path clip-path="url(#clip360)" d="M424.733 181.618 L446.585 181.618 L446.585 185.553 L429.409 185.553 L429.409 195.784 L445.867 195.784 L445.867 199.719 L429.409 199.719 L429.409 212.242 L447.001 212.242 L447.001 216.178 L424.733 216.178 L424.733 181.618 Z" fill="#000000" fill-rule="evenodd" fill-opacity="1" /><path clip-path="url(#clip360)" d="M476.052 190.252 L466.677 202.867 L476.538 216.178 L471.515 216.178 L463.969 205.992 L456.423 216.178 L451.4 216.178 L461.469 202.613 L452.256 190.252 L457.279 190.252 L464.154 199.488 L471.029 190.252 L476.052 190.252 Z" fill="#000000" fill-rule="evenodd" fill-opacity="1" /><path clip-path="url(#clip360)" d="M494.339 203.145 Q489.177 203.145 487.186 204.326 Q485.196 205.506 485.196 208.354 Q485.196 210.622 486.677 211.965 Q488.182 213.284 490.751 213.284 Q494.293 213.284 496.422 210.784 Q498.575 208.261 498.575 204.094 L498.575 203.145 L494.339 203.145 M502.834 201.386 L502.834 216.178 L498.575 216.178 L498.575 212.242 Q497.117 214.603 494.941 215.738 Q492.765 216.849 489.617 216.849 Q485.635 216.849 483.274 214.627 Q480.936 212.381 480.936 208.631 Q480.936 204.256 483.853 202.034 Q486.793 199.812 492.603 199.812 L498.575 199.812 L498.575 199.395 Q498.575 196.455 496.631 194.858 Q494.71 193.238 491.214 193.238 Q488.992 193.238 486.885 193.77 Q484.779 194.303 482.835 195.367 L482.835 191.432 Q485.173 190.53 487.372 190.09 Q489.571 189.627 491.654 189.627 Q497.279 189.627 500.057 192.543 Q502.834 195.46 502.834 201.386 Z" fill="#000000" fill-rule="evenodd" fill-opacity="1" /><path clip-path="url(#clip360)" d="M530.265 191.247 L530.265 195.229 Q528.459 194.233 526.631 193.747 Q524.825 193.238 522.973 193.238 Q518.83 193.238 516.538 195.877 Q514.246 198.492 514.246 203.238 Q514.246 207.983 516.538 210.622 Q518.83 213.238 522.973 213.238 Q524.825 213.238 526.631 212.752 Q528.459 212.242 530.265 211.247 L530.265 215.182 Q528.482 216.016 526.561 216.432 Q524.663 216.849 522.51 216.849 Q516.654 216.849 513.205 213.168 Q509.756 209.488 509.756 203.238 Q509.756 196.895 513.228 193.261 Q516.723 189.627 522.788 189.627 Q524.756 189.627 526.631 190.043 Q528.506 190.437 530.265 191.247 Z" fill="#000000" fill-rule="evenodd" fill-opacity="1" /><path clip-path="url(#clip360)" d="M541.885 182.891 L541.885 190.252 L550.658 190.252 L550.658 193.562 L541.885 193.562 L541.885 207.636 Q541.885 210.807 542.742 211.71 Q543.621 212.613 546.283 212.613 L550.658 212.613 L550.658 216.178 L546.283 216.178 Q541.353 216.178 539.478 214.349 Q537.603 212.497 537.603 207.636 L537.603 193.562 L534.478 193.562 L534.478 190.252 L537.603 190.252 L537.603 182.891 L541.885 182.891 Z" fill="#000000" fill-rule="evenodd" fill-opacity="1" /></svg>
