<?xml version="1.0" encoding="utf-8"?>
<svg xmlns="http://www.w3.org/2000/svg" xmlns:xlink="http://www.w3.org/1999/xlink" width="600" height="400" viewBox="0 0 2400 1600">
<defs>
  <clipPath id="clip390">
    <rect x="0" y="0" width="2400" height="1600"/>
  </clipPath>
</defs>
<path clip-path="url(#clip390)" d="
M0 1600 L2400 1600 L2400 0 L0 0  Z
  " fill="#ffffff" fill-rule="evenodd" fill-opacity="1"/>
<defs>
  <clipPath id="clip391">
    <rect x="480" y="0" width="1681" height="1600"/>
  </clipPath>
</defs>
<path clip-path="url(#clip390)" d="
M156.274 1486.45 L2352.76 1486.45 L2352.76 47.2441 L156.274 47.2441  Z
  " fill="#ffffff" fill-rule="evenodd" fill-opacity="1"/>
<defs>
  <clipPath id="clip392">
    <rect x="156" y="47" width="2197" height="1440"/>
  </clipPath>
</defs>
<polyline clip-path="url(#clip392)" style="stroke:#000000; stroke-linecap:butt; stroke-linejoin:round; stroke-width:2; stroke-opacity:0.1; fill:none" points="
  218.439,1486.45 218.439,47.2441 
  "/>
<polyline clip-path="url(#clip392)" style="stroke:#000000; stroke-linecap:butt; stroke-linejoin:round; stroke-width:2; stroke-opacity:0.1; fill:none" points="
  736.477,1486.45 736.477,47.2441 
  "/>
<polyline clip-path="url(#clip392)" style="stroke:#000000; stroke-linecap:butt; stroke-linejoin:round; stroke-width:2; stroke-opacity:0.1; fill:none" points="
  1254.52,1486.45 1254.52,47.2441 
  "/>
<polyline clip-path="url(#clip392)" style="stroke:#000000; stroke-linecap:butt; stroke-linejoin:round; stroke-width:2; stroke-opacity:0.1; fill:none" points="
  1772.55,1486.45 1772.55,47.2441 
  "/>
<polyline clip-path="url(#clip392)" style="stroke:#000000; stroke-linecap:butt; stroke-linejoin:round; stroke-width:2; stroke-opacity:0.1; fill:none" points="
  2290.59,1486.45 2290.59,47.2441 
  "/>
<polyline clip-path="url(#clip390)" style="stroke:#000000; stroke-linecap:butt; stroke-linejoin:round; stroke-width:4; stroke-opacity:1; fill:none" points="
  156.274,1486.45 2352.76,1486.45 
  "/>
<polyline clip-path="url(#clip390)" style="stroke:#000000; stroke-linecap:butt; stroke-linejoin:round; stroke-width:4; stroke-opacity:1; fill:none" points="
  218.439,1486.45 218.439,1467.55 
  "/>
<polyline clip-path="url(#clip390)" style="stroke:#000000; stroke-linecap:butt; stroke-linejoin:round; stroke-width:4; stroke-opacity:1; fill:none" points="
  736.477,1486.45 736.477,1467.55 
  "/>
<polyline clip-path="url(#clip390)" style="stroke:#000000; stroke-linecap:butt; stroke-linejoin:round; stroke-width:4; stroke-opacity:1; fill:none" points="
  1254.52,1486.45 1254.52,1467.55 
  "/>
<polyline clip-path="url(#clip390)" style="stroke:#000000; stroke-linecap:butt; stroke-linejoin:round; stroke-width:4; stroke-opacity:1; fill:none" points="
  1772.55,1486.45 1772.55,1467.55 
  "/>
<polyline clip-path="url(#clip390)" style="stroke:#000000; stroke-linecap:butt; stroke-linejoin:round; stroke-width:4; stroke-opacity:1; fill:none" points="
  2290.59,1486.45 2290.59,1467.55 
  "/>
<path clip-path="url(#clip390)" d="M164.967 1532.02 L194.643 1532.02 L194.643 1535.95 L164.967 1535.95 L164.967 1532.02 Z" fill="#000000" fill-rule="evenodd" fill-opacity="1" /><path clip-path="url(#clip390)" d="M205.545 1544.91 L213.184 1544.91 L213.184 1518.55 L204.874 1520.21 L204.874 1515.95 L213.138 1514.29 L217.814 1514.29 L217.814 1544.91 L225.453 1544.91 L225.453 1548.85 L205.545 1548.85 L205.545 1544.91 Z" fill="#000000" fill-rule="evenodd" fill-opacity="1" /><path clip-path="url(#clip390)" d="M234.897 1542.97 L239.781 1542.97 L239.781 1548.85 L234.897 1548.85 L234.897 1542.97 Z" fill="#000000" fill-rule="evenodd" fill-opacity="1" /><path clip-path="url(#clip390)" d="M259.966 1517.37 Q256.355 1517.37 254.527 1520.93 Q252.721 1524.47 252.721 1531.6 Q252.721 1538.71 254.527 1542.27 Q256.355 1545.82 259.966 1545.82 Q263.601 1545.82 265.406 1542.27 Q267.235 1538.71 267.235 1531.6 Q267.235 1524.47 265.406 1520.93 Q263.601 1517.37 259.966 1517.37 M259.966 1513.66 Q265.776 1513.66 268.832 1518.27 Q271.911 1522.85 271.911 1531.6 Q271.911 1540.33 268.832 1544.94 Q265.776 1549.52 259.966 1549.52 Q254.156 1549.52 251.077 1544.94 Q248.022 1540.33 248.022 1531.6 Q248.022 1522.85 251.077 1518.27 Q254.156 1513.66 259.966 1513.66 Z" fill="#000000" fill-rule="evenodd" fill-opacity="1" /><path clip-path="url(#clip390)" d="M683.503 1532.02 L713.178 1532.02 L713.178 1535.95 L683.503 1535.95 L683.503 1532.02 Z" fill="#000000" fill-rule="evenodd" fill-opacity="1" /><path clip-path="url(#clip390)" d="M733.271 1517.37 Q729.66 1517.37 727.831 1520.93 Q726.026 1524.47 726.026 1531.6 Q726.026 1538.71 727.831 1542.27 Q729.66 1545.82 733.271 1545.82 Q736.905 1545.82 738.711 1542.27 Q740.539 1538.71 740.539 1531.6 Q740.539 1524.47 738.711 1520.93 Q736.905 1517.37 733.271 1517.37 M733.271 1513.66 Q739.081 1513.66 742.137 1518.27 Q745.215 1522.85 745.215 1531.6 Q745.215 1540.33 742.137 1544.94 Q739.081 1549.52 733.271 1549.52 Q727.461 1549.52 724.382 1544.94 Q721.327 1540.33 721.327 1531.6 Q721.327 1522.85 724.382 1518.27 Q727.461 1513.66 733.271 1513.66 Z" fill="#000000" fill-rule="evenodd" fill-opacity="1" /><path clip-path="url(#clip390)" d="M753.433 1542.97 L758.317 1542.97 L758.317 1548.85 L753.433 1548.85 L753.433 1542.97 Z" fill="#000000" fill-rule="evenodd" fill-opacity="1" /><path clip-path="url(#clip390)" d="M768.548 1514.29 L786.905 1514.29 L786.905 1518.22 L772.831 1518.22 L772.831 1526.7 Q773.849 1526.35 774.868 1526.19 Q775.886 1526 776.905 1526 Q782.692 1526 786.072 1529.17 Q789.451 1532.34 789.451 1537.76 Q789.451 1543.34 785.979 1546.44 Q782.507 1549.52 776.187 1549.52 Q774.011 1549.52 771.743 1549.15 Q769.498 1548.78 767.09 1548.04 L767.09 1543.34 Q769.173 1544.47 771.396 1545.03 Q773.618 1545.58 776.095 1545.58 Q780.099 1545.58 782.437 1543.48 Q784.775 1541.37 784.775 1537.76 Q784.775 1534.15 782.437 1532.04 Q780.099 1529.94 776.095 1529.94 Q774.22 1529.94 772.345 1530.35 Q770.493 1530.77 768.548 1531.65 L768.548 1514.29 Z" fill="#000000" fill-rule="evenodd" fill-opacity="1" /><path clip-path="url(#clip390)" d="M1231.9 1517.37 Q1228.29 1517.37 1226.46 1520.93 Q1224.65 1524.47 1224.65 1531.6 Q1224.65 1538.71 1226.46 1542.27 Q1228.29 1545.82 1231.9 1545.82 Q1235.53 1545.82 1237.34 1542.27 Q1239.17 1538.71 1239.17 1531.6 Q1239.17 1524.47 1237.34 1520.93 Q1235.53 1517.37 1231.9 1517.37 M1231.9 1513.66 Q1237.71 1513.66 1240.77 1518.27 Q1243.84 1522.85 1243.84 1531.6 Q1243.84 1540.33 1240.77 1544.94 Q1237.71 1549.52 1231.9 1549.52 Q1226.09 1549.52 1223.01 1544.94 Q1219.96 1540.33 1219.96 1531.6 Q1219.96 1522.85 1223.01 1518.27 Q1226.09 1513.66 1231.9 1513.66 Z" fill="#000000" fill-rule="evenodd" fill-opacity="1" /><path clip-path="url(#clip390)" d="M1252.06 1542.97 L1256.95 1542.97 L1256.95 1548.85 L1252.06 1548.85 L1252.06 1542.97 Z" fill="#000000" fill-rule="evenodd" fill-opacity="1" /><path clip-path="url(#clip390)" d="M1277.13 1517.37 Q1273.52 1517.37 1271.69 1520.93 Q1269.89 1524.47 1269.89 1531.6 Q1269.89 1538.71 1271.69 1542.27 Q1273.52 1545.82 1277.13 1545.82 Q1280.76 1545.82 1282.57 1542.27 Q1284.4 1538.71 1284.4 1531.6 Q1284.4 1524.47 1282.57 1520.93 Q1280.76 1517.37 1277.13 1517.37 M1277.13 1513.66 Q1282.94 1513.66 1286 1518.27 Q1289.08 1522.85 1289.08 1531.6 Q1289.08 1540.33 1286 1544.94 Q1282.94 1549.52 1277.13 1549.52 Q1271.32 1549.52 1268.24 1544.94 Q1265.19 1540.33 1265.19 1531.6 Q1265.19 1522.85 1268.24 1518.27 Q1271.32 1513.66 1277.13 1513.66 Z" fill="#000000" fill-rule="evenodd" fill-opacity="1" /><path clip-path="url(#clip390)" d="M1750.44 1517.37 Q1746.82 1517.37 1745 1520.93 Q1743.19 1524.47 1743.19 1531.6 Q1743.19 1538.71 1745 1542.27 Q1746.82 1545.82 1750.44 1545.82 Q1754.07 1545.82 1755.88 1542.27 Q1757.7 1538.71 1757.7 1531.6 Q1757.7 1524.47 1755.88 1520.93 Q1754.07 1517.37 1750.44 1517.37 M1750.44 1513.66 Q1756.25 1513.66 1759.3 1518.27 Q1762.38 1522.85 1762.38 1531.6 Q1762.38 1540.33 1759.3 1544.94 Q1756.25 1549.52 1750.44 1549.52 Q1744.63 1549.52 1741.55 1544.94 Q1738.49 1540.33 1738.49 1531.6 Q1738.49 1522.85 1741.55 1518.27 Q1744.63 1513.66 1750.44 1513.66 Z" fill="#000000" fill-rule="evenodd" fill-opacity="1" /><path clip-path="url(#clip390)" d="M1770.6 1542.97 L1775.48 1542.97 L1775.48 1548.85 L1770.6 1548.85 L1770.6 1542.97 Z" fill="#000000" fill-rule="evenodd" fill-opacity="1" /><path clip-path="url(#clip390)" d="M1785.71 1514.29 L1804.07 1514.29 L1804.07 1518.22 L1790 1518.22 L1790 1526.7 Q1791.01 1526.35 1792.03 1526.19 Q1793.05 1526 1794.07 1526 Q1799.86 1526 1803.24 1529.17 Q1806.62 1532.34 1806.62 1537.76 Q1806.62 1543.34 1803.14 1546.44 Q1799.67 1549.52 1793.35 1549.52 Q1791.18 1549.52 1788.91 1549.15 Q1786.66 1548.78 1784.25 1548.04 L1784.25 1543.34 Q1786.34 1544.47 1788.56 1545.03 Q1790.78 1545.58 1793.26 1545.58 Q1797.26 1545.58 1799.6 1543.48 Q1801.94 1541.37 1801.94 1537.76 Q1801.94 1534.15 1799.6 1532.04 Q1797.26 1529.94 1793.26 1529.94 Q1791.38 1529.94 1789.51 1530.35 Q1787.66 1530.77 1785.71 1531.65 L1785.71 1514.29 Z" fill="#000000" fill-rule="evenodd" fill-opacity="1" /><path clip-path="url(#clip390)" d="M2257.74 1544.91 L2265.38 1544.91 L2265.38 1518.55 L2257.07 1520.21 L2257.07 1515.95 L2265.34 1514.29 L2270.01 1514.29 L2270.01 1544.91 L2277.65 1544.91 L2277.65 1548.85 L2257.74 1548.85 L2257.74 1544.91 Z" fill="#000000" fill-rule="evenodd" fill-opacity="1" /><path clip-path="url(#clip390)" d="M2287.1 1542.97 L2291.98 1542.97 L2291.98 1548.85 L2287.1 1548.85 L2287.1 1542.97 Z" fill="#000000" fill-rule="evenodd" fill-opacity="1" /><path clip-path="url(#clip390)" d="M2312.17 1517.37 Q2308.55 1517.37 2306.73 1520.93 Q2304.92 1524.47 2304.92 1531.6 Q2304.92 1538.71 2306.73 1542.27 Q2308.55 1545.82 2312.17 1545.82 Q2315.8 1545.82 2317.61 1542.27 Q2319.43 1538.71 2319.43 1531.6 Q2319.43 1524.47 2317.61 1520.93 Q2315.8 1517.37 2312.17 1517.37 M2312.17 1513.66 Q2317.98 1513.66 2321.03 1518.27 Q2324.11 1522.85 2324.11 1531.6 Q2324.11 1540.33 2321.03 1544.94 Q2317.98 1549.52 2312.17 1549.52 Q2306.36 1549.52 2303.28 1544.94 Q2300.22 1540.33 2300.22 1531.6 Q2300.22 1522.85 2303.28 1518.27 Q2306.36 1513.66 2312.17 1513.66 Z" fill="#000000" fill-rule="evenodd" fill-opacity="1" /><polyline clip-path="url(#clip392)" style="stroke:#000000; stroke-linecap:butt; stroke-linejoin:round; stroke-width:2; stroke-opacity:0.1; fill:none" points="
  156.274,1261.86 2352.76,1261.86 
  "/>
<polyline clip-path="url(#clip392)" style="stroke:#000000; stroke-linecap:butt; stroke-linejoin:round; stroke-width:2; stroke-opacity:0.1; fill:none" points="
  156.274,987.273 2352.76,987.273 
  "/>
<polyline clip-path="url(#clip392)" style="stroke:#000000; stroke-linecap:butt; stroke-linejoin:round; stroke-width:2; stroke-opacity:0.1; fill:none" points="
  156.274,712.683 2352.76,712.683 
  "/>
<polyline clip-path="url(#clip392)" style="stroke:#000000; stroke-linecap:butt; stroke-linejoin:round; stroke-width:2; stroke-opacity:0.1; fill:none" points="
  156.274,438.093 2352.76,438.093 
  "/>
<polyline clip-path="url(#clip392)" style="stroke:#000000; stroke-linecap:butt; stroke-linejoin:round; stroke-width:2; stroke-opacity:0.1; fill:none" points="
  156.274,163.502 2352.76,163.502 
  "/>
<polyline clip-path="url(#clip390)" style="stroke:#000000; stroke-linecap:butt; stroke-linejoin:round; stroke-width:4; stroke-opacity:1; fill:none" points="
  156.274,1486.45 156.274,47.2441 
  "/>
<polyline clip-path="url(#clip390)" style="stroke:#000000; stroke-linecap:butt; stroke-linejoin:round; stroke-width:4; stroke-opacity:1; fill:none" points="
  156.274,1261.86 175.172,1261.86 
  "/>
<polyline clip-path="url(#clip390)" style="stroke:#000000; stroke-linecap:butt; stroke-linejoin:round; stroke-width:4; stroke-opacity:1; fill:none" points="
  156.274,987.273 175.172,987.273 
  "/>
<polyline clip-path="url(#clip390)" style="stroke:#000000; stroke-linecap:butt; stroke-linejoin:round; stroke-width:4; stroke-opacity:1; fill:none" points="
  156.274,712.683 175.172,712.683 
  "/>
<polyline clip-path="url(#clip390)" style="stroke:#000000; stroke-linecap:butt; stroke-linejoin:round; stroke-width:4; stroke-opacity:1; fill:none" points="
  156.274,438.093 175.172,438.093 
  "/>
<polyline clip-path="url(#clip390)" style="stroke:#000000; stroke-linecap:butt; stroke-linejoin:round; stroke-width:4; stroke-opacity:1; fill:none" points="
  156.274,163.502 175.172,163.502 
  "/>
<path clip-path="url(#clip390)" d="M63.0985 1247.66 Q59.4875 1247.66 57.6588 1251.23 Q55.8532 1254.77 55.8532 1261.9 Q55.8532 1269 57.6588 1272.57 Q59.4875 1276.11 63.0985 1276.11 Q66.7328 1276.11 68.5383 1272.57 Q70.367 1269 70.367 1261.9 Q70.367 1254.77 68.5383 1251.23 Q66.7328 1247.66 63.0985 1247.66 M63.0985 1243.96 Q68.9087 1243.96 71.9642 1248.57 Q75.0429 1253.15 75.0429 1261.9 Q75.0429 1270.63 71.9642 1275.23 Q68.9087 1279.81 63.0985 1279.81 Q57.2884 1279.81 54.2097 1275.23 Q51.1542 1270.63 51.1542 1261.9 Q51.1542 1253.15 54.2097 1248.57 Q57.2884 1243.96 63.0985 1243.96 Z" fill="#000000" fill-rule="evenodd" fill-opacity="1" /><path clip-path="url(#clip390)" d="M83.2605 1273.26 L88.1447 1273.26 L88.1447 1279.14 L83.2605 1279.14 L83.2605 1273.26 Z" fill="#000000" fill-rule="evenodd" fill-opacity="1" /><path clip-path="url(#clip390)" d="M108.33 1247.66 Q104.719 1247.66 102.89 1251.23 Q101.084 1254.77 101.084 1261.9 Q101.084 1269 102.89 1272.57 Q104.719 1276.11 108.33 1276.11 Q111.964 1276.11 113.77 1272.57 Q115.598 1269 115.598 1261.9 Q115.598 1254.77 113.77 1251.23 Q111.964 1247.66 108.33 1247.66 M108.33 1243.96 Q114.14 1243.96 117.195 1248.57 Q120.274 1253.15 120.274 1261.9 Q120.274 1270.63 117.195 1275.23 Q114.14 1279.81 108.33 1279.81 Q102.52 1279.81 99.4409 1275.23 Q96.3854 1270.63 96.3854 1261.9 Q96.3854 1253.15 99.4409 1248.57 Q102.52 1243.96 108.33 1243.96 Z" fill="#000000" fill-rule="evenodd" fill-opacity="1" /><path clip-path="url(#clip390)" d="M63.7467 973.072 Q60.1356 973.072 58.3069 976.637 Q56.5014 980.178 56.5014 987.308 Q56.5014 994.414 58.3069 997.979 Q60.1356 1001.52 63.7467 1001.52 Q67.3809 1001.52 69.1865 997.979 Q71.0152 994.414 71.0152 987.308 Q71.0152 980.178 69.1865 976.637 Q67.3809 973.072 63.7467 973.072 M63.7467 969.368 Q69.5568 969.368 72.6124 973.975 Q75.6911 978.558 75.6911 987.308 Q75.6911 996.035 72.6124 1000.64 Q69.5568 1005.22 63.7467 1005.22 Q57.9365 1005.22 54.8578 1000.64 Q51.8023 996.035 51.8023 987.308 Q51.8023 978.558 54.8578 973.975 Q57.9365 969.368 63.7467 969.368 Z" fill="#000000" fill-rule="evenodd" fill-opacity="1" /><path clip-path="url(#clip390)" d="M83.9086 998.674 L88.7928 998.674 L88.7928 1004.55 L83.9086 1004.55 L83.9086 998.674 Z" fill="#000000" fill-rule="evenodd" fill-opacity="1" /><path clip-path="url(#clip390)" d="M113.145 985.919 Q116.501 986.637 118.376 988.905 Q120.274 991.174 120.274 994.507 Q120.274 999.623 116.756 1002.42 Q113.237 1005.22 106.756 1005.22 Q104.58 1005.22 102.265 1004.78 Q99.9733 1004.37 97.5197 1003.51 L97.5197 998.998 Q99.4641 1000.13 101.779 1000.71 Q104.094 1001.29 106.617 1001.29 Q111.015 1001.29 113.307 999.553 Q115.621 997.817 115.621 994.507 Q115.621 991.452 113.469 989.739 Q111.339 988.002 107.52 988.002 L103.492 988.002 L103.492 984.16 L107.705 984.16 Q111.154 984.16 112.983 982.794 Q114.811 981.405 114.811 978.813 Q114.811 976.151 112.913 974.739 Q111.038 973.303 107.52 973.303 Q105.598 973.303 103.399 973.72 Q101.2 974.137 98.5613 975.016 L98.5613 970.85 Q101.223 970.109 103.538 969.739 Q105.876 969.368 107.936 969.368 Q113.26 969.368 116.362 971.799 Q119.464 974.206 119.464 978.327 Q119.464 981.197 117.82 983.188 Q116.177 985.155 113.145 985.919 Z" fill="#000000" fill-rule="evenodd" fill-opacity="1" /><path clip-path="url(#clip390)" d="M62.9365 698.482 Q59.3254 698.482 57.4967 702.047 Q55.6912 705.588 55.6912 712.718 Q55.6912 719.824 57.4967 723.389 Q59.3254 726.931 62.9365 726.931 Q66.5707 726.931 68.3763 723.389 Q70.205 719.824 70.205 712.718 Q70.205 705.588 68.3763 702.047 Q66.5707 698.482 62.9365 698.482 M62.9365 694.778 Q68.7467 694.778 71.8022 699.384 Q74.8809 703.968 74.8809 712.718 Q74.8809 721.445 71.8022 726.051 Q68.7467 730.634 62.9365 730.634 Q57.1264 730.634 54.0477 726.051 Q50.9921 721.445 50.9921 712.718 Q50.9921 703.968 54.0477 699.384 Q57.1264 694.778 62.9365 694.778 Z" fill="#000000" fill-rule="evenodd" fill-opacity="1" /><path clip-path="url(#clip390)" d="M83.0984 724.083 L87.9827 724.083 L87.9827 729.963 L83.0984 729.963 L83.0984 724.083 Z" fill="#000000" fill-rule="evenodd" fill-opacity="1" /><path clip-path="url(#clip390)" d="M108.746 710.82 Q105.598 710.82 103.746 712.972 Q101.918 715.125 101.918 718.875 Q101.918 722.602 103.746 724.778 Q105.598 726.931 108.746 726.931 Q111.895 726.931 113.723 724.778 Q115.575 722.602 115.575 718.875 Q115.575 715.125 113.723 712.972 Q111.895 710.82 108.746 710.82 M118.029 696.167 L118.029 700.426 Q116.27 699.593 114.464 699.153 Q112.682 698.713 110.922 698.713 Q106.293 698.713 103.839 701.838 Q101.409 704.963 101.061 711.283 Q102.427 709.269 104.487 708.204 Q106.547 707.116 109.024 707.116 Q114.233 707.116 117.242 710.287 Q120.274 713.435 120.274 718.875 Q120.274 724.199 117.126 727.417 Q113.978 730.634 108.746 730.634 Q102.751 730.634 99.5798 726.051 Q96.4085 721.445 96.4085 712.718 Q96.4085 704.523 100.297 699.662 Q104.186 694.778 110.737 694.778 Q112.496 694.778 114.279 695.125 Q116.084 695.472 118.029 696.167 Z" fill="#000000" fill-rule="evenodd" fill-opacity="1" /><path clip-path="url(#clip390)" d="M63.2837 423.891 Q59.6726 423.891 57.8439 427.456 Q56.0384 430.998 56.0384 438.127 Q56.0384 445.234 57.8439 448.799 Q59.6726 452.34 63.2837 452.34 Q66.918 452.34 68.7235 448.799 Q70.5522 445.234 70.5522 438.127 Q70.5522 430.998 68.7235 427.456 Q66.918 423.891 63.2837 423.891 M63.2837 420.188 Q69.0939 420.188 72.1494 424.794 Q75.2281 429.378 75.2281 438.127 Q75.2281 446.854 72.1494 451.461 Q69.0939 456.044 63.2837 456.044 Q57.4736 456.044 54.3949 451.461 Q51.3393 446.854 51.3393 438.127 Q51.3393 429.378 54.3949 424.794 Q57.4736 420.188 63.2837 420.188 Z" fill="#000000" fill-rule="evenodd" fill-opacity="1" /><path clip-path="url(#clip390)" d="M83.4457 449.493 L88.3299 449.493 L88.3299 455.373 L83.4457 455.373 L83.4457 449.493 Z" fill="#000000" fill-rule="evenodd" fill-opacity="1" /><path clip-path="url(#clip390)" d="M98.6539 454.655 L98.6539 450.396 Q100.413 451.229 102.219 451.669 Q104.024 452.109 105.76 452.109 Q110.39 452.109 112.82 449.007 Q115.274 445.882 115.621 439.54 Q114.279 441.53 112.219 442.595 Q110.158 443.66 107.658 443.66 Q102.473 443.66 99.4409 440.535 Q96.4317 437.387 96.4317 431.947 Q96.4317 426.623 99.5798 423.405 Q102.728 420.188 107.959 420.188 Q113.955 420.188 117.103 424.794 Q120.274 429.378 120.274 438.127 Q120.274 446.299 116.385 451.183 Q112.52 456.044 105.969 456.044 Q104.209 456.044 102.404 455.697 Q100.598 455.35 98.6539 454.655 M107.959 440.002 Q111.108 440.002 112.936 437.85 Q114.788 435.697 114.788 431.947 Q114.788 428.22 112.936 426.067 Q111.108 423.891 107.959 423.891 Q104.811 423.891 102.959 426.067 Q101.131 428.22 101.131 431.947 Q101.131 435.697 102.959 437.85 Q104.811 440.002 107.959 440.002 Z" fill="#000000" fill-rule="evenodd" fill-opacity="1" /><path clip-path="url(#clip390)" d="M55.506 176.847 L63.1448 176.847 L63.1448 150.482 L54.8347 152.148 L54.8347 147.889 L63.0985 146.222 L67.7744 146.222 L67.7744 176.847 L75.4133 176.847 L75.4133 180.782 L55.506 180.782 L55.506 176.847 Z" fill="#000000" fill-rule="evenodd" fill-opacity="1" /><path clip-path="url(#clip390)" d="M84.8577 174.903 L89.7419 174.903 L89.7419 180.782 L84.8577 180.782 L84.8577 174.903 Z" fill="#000000" fill-rule="evenodd" fill-opacity="1" /><path clip-path="url(#clip390)" d="M103.955 176.847 L120.274 176.847 L120.274 180.782 L98.3298 180.782 L98.3298 176.847 Q100.992 174.093 105.575 169.463 Q110.182 164.81 111.362 163.468 Q113.608 160.945 114.487 159.209 Q115.39 157.449 115.39 155.759 Q115.39 153.005 113.445 151.269 Q111.524 149.533 108.422 149.533 Q106.223 149.533 103.77 150.297 Q101.339 151.06 98.5613 152.611 L98.5613 147.889 Q101.385 146.755 103.839 146.176 Q106.293 145.597 108.33 145.597 Q113.7 145.597 116.895 148.283 Q120.089 150.968 120.089 155.459 Q120.089 157.588 119.279 159.509 Q118.492 161.408 116.385 164 Q115.807 164.671 112.705 167.889 Q109.603 171.083 103.955 176.847 Z" fill="#000000" fill-rule="evenodd" fill-opacity="1" /><polyline clip-path="url(#clip392)" style="stroke:#009af9; stroke-linecap:butt; stroke-linejoin:round; stroke-width:16; stroke-opacity:1; fill:none" stroke-dasharray="8, 16" points="
  218.439,1121.97 225.369,1109.24 232.299,1098.11 239.23,1089.21 246.16,1082.8 253.09,1078.91 260.02,1077.55 266.951,1078.79 273.881,1082.69 280.811,1089.31 
  287.742,1098.58 294.672,1110.24 301.602,1123.96 308.532,1139.34 315.463,1156.14 322.393,1174.23 329.323,1193.64 336.253,1214.33 343.184,1236.07 350.114,1258.44 
  357.044,1280.85 363.975,1302.77 370.905,1323.78 377.835,1343.65 384.765,1362.22 391.696,1379.37 398.626,1394.95 405.556,1408.73 412.486,1420.48 419.417,1429.98 
  426.347,1437.07 433.277,1441.59 440.208,1443.45 447.138,1442.6 454.068,1439.01 460.998,1432.69 467.929,1423.72 474.859,1412.25 481.789,1398.49 488.72,1382.73 
  495.65,1365.28 502.58,1346.48 509.51,1326.62 516.441,1306.01 523.371,1284.88 530.301,1263.44 537.231,1241.91 544.162,1220.5 551.092,1199.45 558.022,1179.05 
  564.953,1159.64 571.883,1141.58 578.813,1125.24 585.743,1110.98 592.674,1099.12 599.604,1089.85 606.534,1083.3 613.464,1079.46 620.395,1078.24 627.325,1079.54 
  634.255,1083.21 641.186,1089.2 648.116,1097.49 655.046,1108.07 661.976,1120.93 668.907,1135.99 675.837,1153.07 682.767,1171.89 689.698,1192.12 696.628,1213.4 
  703.558,1235.32 710.488,1257.5 717.419,1279.58 724.349,1301.26 731.279,1322.33 738.209,1342.64 745.14,1361.99 752.07,1380.12 759,1396.65 765.931,1411.16 
  772.861,1423.29 779.791,1432.81 786.721,1439.67 793.652,1443.94 800.582,1445.72 807.512,1445.06 814.442,1441.97 821.373,1436.4 828.303,1428.31 835.233,1417.72 
  842.164,1404.74 849.094,1389.66 856.024,1372.82 862.954,1354.54 869.885,1335.01 876.815,1314.28 883.745,1292.48 890.676,1270.08 897.606,1247.89 904.536,1226.5 
  911.466,1205.85 918.397,1185.51 925.327,1165.77 932.257,1147.66 939.187,1131.88 946.118,1118.24 953.048,1106.33 959.978,1096.21 966.909,1088.27 973.839,1082.89 
  980.769,1080.26 987.699,1080.39 994.63,1083.11 1001.56,1088.32 1008.49,1096.49 1015.42,1108.16 1022.35,1122.23 1029.28,1136.68 1036.21,1151.99 1043.14,1169.96 
  1050.07,1190.13 1057,1210.78 1063.93,1231.38 1070.86,1252.48 1077.79,1274.44 1084.72,1296.89 1091.65,1318.97 1098.58,1339.83 1105.51,1359.01 1112.44,1376.5 
  1119.37,1392.29 1126.3,1405.91 1133.24,1417.2 1140.17,1427.08 1147.1,1436.13 1154.03,1442.63 1160.96,1444.32 1167.89,1442.1 1174.82,1439.15 1181.75,1436.03 
  1188.68,1429.94 1195.61,1418.75 1202.54,1404.22 1209.47,1389.91 1216.4,1375.14 1223.33,1355.56 1230.26,1336.63 1237.19,1316.09 1244.12,1297.56 1251.05,1252.98 
  1257.98,344.381 1264.91,331.543 1271.84,351.367 1278.77,343.677 1285.7,342.878 1292.63,348.545 1299.56,355.045 1306.49,359.389 1313.42,361.212 1320.35,361.155 
  1327.28,359.544 1334.21,356.043 1341.14,350.102 1348.07,341.771 1355,332.191 1361.93,323.319 1368.86,317.001 1375.79,314.25 1382.73,315.387 1389.66,320.576 
  1396.59,329.86 1403.52,342.835 1410.45,358.26 1417.38,373.089 1424.31,383.632 1431.24,390.228 1438.17,394.576 1445.1,391.834 1452.03,378.647 1458.96,364.202 
  1465.89,347.345 1472.82,323.191 1479.75,304.139 1486.68,292.81 1493.61,283.746 1500.54,280.395 1507.47,290.011 1514.4,309.742 1521.33,330.464 1528.26,353.184 
  1535.19,380.279 1542.12,405.197 1549.05,420.732 1555.98,425.451 1562.91,421.087 1569.84,408.585 1576.77,387.742 1583.7,359.367 1590.63,326.769 1597.56,295.143 
  1604.49,269.787 1611.42,254.59 1618.35,251.488 1625.28,260.641 1632.22,280.871 1639.15,309.991 1646.08,344.951 1653.01,381.881 1659.94,416.241 1666.87,443.226 
  1673.8,458.501 1680.73,459.115 1687.66,444.278 1694.59,415.686 1701.52,377.229 1708.45,334.222 1715.38,292.425 1722.31,257.177 1729.24,232.813 1736.17,222.347 
  1743.1,227.318 1750.03,247.668 1756.96,281.613 1763.89,325.589 1770.82,374.396 1777.75,421.693 1784.68,460.836 1791.61,485.939 1798.54,492.92 1805.47,480.285 
  1812.4,449.448 1819.33,404.499 1826.26,351.469 1833.19,297.316 1840.12,248.91 1847.05,212.221 1853.98,191.787 1860.91,190.374 1867.84,208.737 1874.77,245.423 
  1881.71,296.65 1888.64,356.394 1895.57,416.841 1902.5,469.399 1909.43,506.22 1916.36,521.834 1923.29,514.198 1930.22,484.723 1937.15,437.436 1944.08,378.024 
  1951.01,313.263 1957.94,250.793 1964.87,198.661 1971.8,164.317 1978.73,153.191 1985.66,167.486 1992.59,205.695 1999.52,262.967 2006.45,331.991 2013.38,404.032 
  2020.31,469.908 2027.24,520.995 2034.17,550.343 2041.1,553.761 2048.03,530.505 2054.96,483.32 2061.89,417.955 2068.82,342.43 2075.75,266.181 2082.68,199.013 
  2089.61,149.833 2096.54,125.386 2103.47,129.294 2110.4,161.577 2117.33,218.631 2124.26,293.566 2131.19,376.893 2138.13,457.633 2145.06,524.812 2151.99,569.137 
  2158.92,584.479 2165.85,568.767 2172.78,524.13 2179.71,456.33 2186.64,373.761 2193.57,286.359 2200.5,204.625 2207.43,138.757 2214.36,97.6954 2221.29,87.9763 
  2228.22,112.472 2235.15,169.242 2242.08,250.954 2249.01,345.685 2255.94,439.474 2262.87,519.624 2269.8,576.99 2276.73,606.535 2283.66,606.706 2290.59,578.501 
  
  "/>
<polyline clip-path="url(#clip392)" style="stroke:#e26f46; stroke-linecap:butt; stroke-linejoin:round; stroke-width:4; stroke-opacity:1; fill:none" points="
  218.439,1124.39 225.369,1110.86 232.299,1099.53 239.23,1090.54 246.16,1084.03 253.09,1080.1 260.02,1078.8 266.951,1080.15 273.881,1084.14 280.811,1090.69 
  287.742,1099.73 294.672,1111.11 301.602,1124.67 308.532,1140.22 315.463,1157.53 322.393,1176.35 329.323,1196.42 336.253,1217.42 343.184,1239.07 350.114,1261.06 
  357.044,1283.05 363.975,1304.74 370.905,1325.8 377.835,1345.94 384.765,1364.86 391.696,1382.29 398.626,1397.98 405.556,1411.7 412.486,1423.25 419.417,1432.46 
  426.347,1439.2 433.277,1443.37 440.208,1444.91 447.138,1443.81 454.068,1440.07 460.998,1433.75 467.929,1424.94 474.859,1413.77 481.789,1400.4 488.72,1385.03 
  495.65,1367.87 502.58,1349.17 509.51,1329.22 516.441,1308.28 523.371,1286.68 530.301,1264.71 537.231,1242.71 544.162,1220.98 551.092,1199.84 558.022,1179.61 
  564.953,1160.56 571.883,1142.98 578.813,1127.12 585.743,1113.21 592.674,1101.46 599.604,1092.02 606.534,1085.05 613.464,1080.63 620.395,1078.84 627.325,1079.7 
  634.255,1083.2 641.186,1089.29 648.116,1097.87 655.046,1108.83 661.976,1122 668.907,1137.2 675.837,1154.2 682.767,1172.76 689.698,1192.62 696.628,1213.47 
  703.558,1235.03 710.488,1256.97 717.419,1278.99 724.349,1300.75 731.279,1321.96 738.209,1342.29 745.14,1361.46 752.07,1379.19 759,1395.22 765.931,1409.31 
  772.861,1421.28 779.791,1430.93 786.721,1438.14 793.652,1442.79 800.582,1444.83 807.512,1444.21 814.442,1440.96 821.373,1435.11 828.303,1426.76 835.233,1416.01 
  842.164,1403.04 849.094,1388.02 856.024,1371.17 862.954,1352.74 869.885,1333 876.815,1312.22 883.745,1290.72 890.676,1268.8 897.606,1246.78 904.536,1224.97 
  911.466,1203.7 918.397,1183.28 925.327,1163.99 932.257,1146.11 939.187,1129.92 946.118,1115.63 953.048,1103.46 959.978,1093.59 966.909,1086.15 973.839,1081.26 
  980.769,1078.98 987.699,1079.34 994.63,1082.36 1001.56,1087.97 1008.49,1096.09 1015.42,1106.62 1022.35,1119.4 1029.28,1134.24 1036.21,1150.93 1043.14,1169.22 
  1050.07,1188.85 1057,1209.54 1063.93,1230.99 1070.86,1252.89 1077.79,1274.92 1084.72,1296.75 1091.65,1318.08 1098.58,1338.6 1105.51,1358.01 1112.44,1376.02 
  1119.37,1392.39 1126.3,1406.86 1133.24,1419.23 1140.17,1429.32 1147.1,1436.99 1154.03,1442.13 1160.96,1444.65 1167.89,1444.53 1174.82,1441.76 1181.75,1436.39 
  1188.68,1428.49 1195.61,1418.18 1202.54,1405.6 1209.47,1390.95 1216.4,1374.42 1223.33,1356.26 1230.26,1336.74 1237.19,1316.14 1244.12,1294.75 1251.05,1272.88 
  1257.98,345.659 1264.91,344.202 1271.84,343.719 1278.77,344.623 1285.7,347.014 1292.63,350.643 1299.56,354.934 1306.49,359.069 1313.42,362.135 1320.35,363.284 
  1327.28,361.903 1334.21,357.756 1341.14,351.064 1348.07,342.518 1355,333.213 1361.93,324.507 1368.86,317.827 1375.79,314.443 1382.73,315.254 1389.66,320.609 
  1396.59,330.209 1403.52,343.088 1410.45,357.709 1417.38,372.142 1424.31,384.319 1431.24,392.33 1438.17,394.71 1445.1,390.686 1452.03,380.336 1458.96,364.635 
  1465.89,345.378 1472.82,324.976 1479.75,306.156 1486.68,291.594 1493.61,283.544 1500.54,283.49 1507.47,291.906 1514.4,308.127 1521.33,330.386 1528.26,355.996 
  1535.19,381.676 1542.12,403.969 1549.05,419.707 1555.98,426.459 1562.91,422.895 1569.84,409.015 1576.77,386.212 1583.7,357.143 1590.63,325.419 1597.56,295.164 
  1604.49,270.47 1611.42,254.855 1618.35,250.757 1625.28,259.17 1632.22,279.456 1639.15,309.365 1646.08,345.284 1653.01,382.665 1659.94,416.608 1666.87,442.495 
  1673.8,456.623 1680.73,456.727 1687.66,442.326 1694.59,414.85 1701.52,377.509 1708.45,334.921 1715.38,292.543 1722.31,255.973 1729.24,230.207 1736.17,218.964 
  1743.1,224.151 1750.03,245.559 1756.96,280.831 1763.89,325.716 1770.82,374.573 1777.75,421.087 1784.68,459.077 1791.61,483.325 1798.54,490.282 1805.47,478.588 
  1812.4,449.3 1819.33,405.82 1826.26,353.5 1833.19,298.988 1840.12,249.382 1847.05,211.305 1853.98,190.024 1860.91,188.724 1867.84,208.038 1874.77,245.909 
  1881.71,297.796 1888.64,357.218 1895.57,416.561 1902.5,468.052 1909.43,504.782 1916.36,521.627 1923.29,515.96 1930.22,488.049 1937.15,441.083 1944.08,380.811 
  1951.01,314.844 1957.94,251.692 1964.87,199.666 1971.8,165.786 1978.73,154.834 1985.66,168.687 1992.59,206.011 1999.52,262.376 2006.45,330.781 2013.38,402.517 
  2020.31,468.278 2027.24,519.37 2034.17,548.857 2041.1,552.501 2048.03,529.366 2054.96,481.997 2061.89,416.15 2068.82,340.096 2075.75,263.578 2082.68,196.569 
  2089.61,147.97 2096.54,124.428 2103.47,129.429 2110.4,162.793 2117.33,220.634 2124.26,295.811 2131.19,378.804 2138.13,458.922 2145.06,525.677 2151.99,570.163 
  2158.92,586.234 2165.85,571.357 2172.78,526.994 2179.71,458.475 2186.64,374.357 2193.57,285.362 2200.5,203.007 2207.43,138.114 2214.36,99.3908 2221.29,92.259 
  2228.22,118.105 2235.15,174.04 2242.08,253.209 2249.01,345.639 2255.94,439.488 2262.87,522.559 2269.8,583.894 2276.73,615.212 2283.66,612.026 2290.59,574.283 
  
  "/>
<path clip-path="url(#clip390)" d="
M229.49 250.738 L700.371 250.738 L700.371 95.2176 L229.49 95.2176  Z
  " fill="#ffffff" fill-rule="evenodd" fill-opacity="1"/>
<polyline clip-path="url(#clip390)" style="stroke:#000000; stroke-linecap:butt; stroke-linejoin:round; stroke-width:4; stroke-opacity:1; fill:none" points="
  229.49,250.738 700.371,250.738 700.371,95.2176 229.49,95.2176 229.49,250.738 
  "/>
<polyline clip-path="url(#clip390)" style="stroke:#009af9; stroke-linecap:butt; stroke-linejoin:round; stroke-width:4; stroke-opacity:1; fill:none" stroke-dasharray="2, 4" points="
  253.896,147.058 400.328,147.058 
  "/>
<path clip-path="url(#clip390)" d="M429.409 133.62 L429.409 146.606 L435.289 146.606 Q438.552 146.606 440.335 144.916 Q442.117 143.227 442.117 140.102 Q442.117 137 440.335 135.31 Q438.552 133.62 435.289 133.62 L429.409 133.62 M424.733 129.778 L435.289 129.778 Q441.099 129.778 444.062 132.416 Q447.048 135.032 447.048 140.102 Q447.048 145.217 444.062 147.833 Q441.099 150.449 435.289 150.449 L429.409 150.449 L429.409 164.338 L424.733 164.338 L424.733 129.778 Z" fill="#000000" fill-rule="evenodd" fill-opacity="1" /><path clip-path="url(#clip390)" d="M467.325 142.393 Q466.608 141.977 465.751 141.791 Q464.918 141.583 463.899 141.583 Q460.288 141.583 458.344 143.944 Q456.423 146.282 456.423 150.68 L456.423 164.338 L452.14 164.338 L452.14 138.412 L456.423 138.412 L456.423 142.44 Q457.765 140.078 459.918 138.944 Q462.071 137.787 465.149 137.787 Q465.589 137.787 466.122 137.856 Q466.654 137.903 467.302 138.018 L467.325 142.393 Z" fill="#000000" fill-rule="evenodd" fill-opacity="1" /><path clip-path="url(#clip390)" d="M492.927 150.31 L492.927 152.393 L473.344 152.393 Q473.622 156.791 475.983 159.106 Q478.367 161.398 482.603 161.398 Q485.057 161.398 487.348 160.796 Q489.663 160.194 491.932 158.99 L491.932 163.018 Q489.64 163.99 487.233 164.5 Q484.825 165.009 482.348 165.009 Q476.145 165.009 472.511 161.398 Q468.899 157.787 468.899 151.629 Q468.899 145.264 472.325 141.537 Q475.774 137.787 481.608 137.787 Q486.839 137.787 489.872 141.166 Q492.927 144.523 492.927 150.31 M488.668 149.06 Q488.622 145.565 486.7 143.481 Q484.802 141.398 481.654 141.398 Q478.089 141.398 475.936 143.412 Q473.807 145.426 473.483 149.083 L488.668 149.06 Z" fill="#000000" fill-rule="evenodd" fill-opacity="1" /><path clip-path="url(#clip390)" d="M516.978 142.347 L516.978 128.319 L521.237 128.319 L521.237 164.338 L516.978 164.338 L516.978 160.449 Q515.635 162.763 513.575 163.898 Q511.538 165.009 508.668 165.009 Q503.969 165.009 501.006 161.259 Q498.066 157.509 498.066 151.398 Q498.066 145.287 501.006 141.537 Q503.969 137.787 508.668 137.787 Q511.538 137.787 513.575 138.921 Q515.635 140.032 516.978 142.347 M502.464 151.398 Q502.464 156.097 504.385 158.782 Q506.33 161.444 509.709 161.444 Q513.089 161.444 515.033 158.782 Q516.978 156.097 516.978 151.398 Q516.978 146.699 515.033 144.037 Q513.089 141.352 509.709 141.352 Q506.33 141.352 504.385 144.037 Q502.464 146.699 502.464 151.398 Z" fill="#000000" fill-rule="evenodd" fill-opacity="1" /><path clip-path="url(#clip390)" d="M530.01 138.412 L534.269 138.412 L534.269 164.338 L530.01 164.338 L530.01 138.412 M530.01 128.319 L534.269 128.319 L534.269 133.713 L530.01 133.713 L530.01 128.319 Z" fill="#000000" fill-rule="evenodd" fill-opacity="1" /><path clip-path="url(#clip390)" d="M561.839 139.407 L561.839 143.389 Q560.033 142.393 558.205 141.907 Q556.399 141.398 554.547 141.398 Q550.404 141.398 548.112 144.037 Q545.82 146.652 545.82 151.398 Q545.82 156.143 548.112 158.782 Q550.404 161.398 554.547 161.398 Q556.399 161.398 558.205 160.912 Q560.033 160.402 561.839 159.407 L561.839 163.342 Q560.056 164.176 558.135 164.592 Q556.237 165.009 554.084 165.009 Q548.228 165.009 544.779 161.328 Q541.33 157.648 541.33 151.398 Q541.33 145.055 544.802 141.421 Q548.297 137.787 554.362 137.787 Q556.33 137.787 558.205 138.203 Q560.08 138.597 561.839 139.407 Z" fill="#000000" fill-rule="evenodd" fill-opacity="1" /><path clip-path="url(#clip390)" d="M573.459 131.051 L573.459 138.412 L582.232 138.412 L582.232 141.722 L573.459 141.722 L573.459 155.796 Q573.459 158.967 574.316 159.87 Q575.195 160.773 577.857 160.773 L582.232 160.773 L582.232 164.338 L577.857 164.338 Q572.927 164.338 571.052 162.509 Q569.177 160.657 569.177 155.796 L569.177 141.722 L566.052 141.722 L566.052 138.412 L569.177 138.412 L569.177 131.051 L573.459 131.051 Z" fill="#000000" fill-rule="evenodd" fill-opacity="1" /><path clip-path="url(#clip390)" d="M587.834 138.412 L592.093 138.412 L592.093 164.338 L587.834 164.338 L587.834 138.412 M587.834 128.319 L592.093 128.319 L592.093 133.713 L587.834 133.713 L587.834 128.319 Z" fill="#000000" fill-rule="evenodd" fill-opacity="1" /><path clip-path="url(#clip390)" d="M611.051 141.398 Q607.626 141.398 605.635 144.083 Q603.644 146.745 603.644 151.398 Q603.644 156.051 605.612 158.736 Q607.602 161.398 611.051 161.398 Q614.454 161.398 616.445 158.713 Q618.436 156.027 618.436 151.398 Q618.436 146.791 616.445 144.106 Q614.454 141.398 611.051 141.398 M611.051 137.787 Q616.607 137.787 619.778 141.398 Q622.95 145.009 622.95 151.398 Q622.95 157.764 619.778 161.398 Q616.607 165.009 611.051 165.009 Q605.473 165.009 602.302 161.398 Q599.153 157.764 599.153 151.398 Q599.153 145.009 602.302 141.398 Q605.473 137.787 611.051 137.787 Z" fill="#000000" fill-rule="evenodd" fill-opacity="1" /><path clip-path="url(#clip390)" d="M651.561 148.689 L651.561 164.338 L647.301 164.338 L647.301 148.828 Q647.301 145.148 645.866 143.319 Q644.431 141.49 641.561 141.49 Q638.112 141.49 636.121 143.69 Q634.13 145.889 634.13 149.685 L634.13 164.338 L629.848 164.338 L629.848 138.412 L634.13 138.412 L634.13 142.44 Q635.658 140.102 637.718 138.944 Q639.801 137.787 642.51 137.787 Q646.977 137.787 649.269 140.565 Q651.561 143.319 651.561 148.689 Z" fill="#000000" fill-rule="evenodd" fill-opacity="1" /><polyline clip-path="url(#clip390)" style="stroke:#e26f46; stroke-linecap:butt; stroke-linejoin:round; stroke-width:4; stroke-opacity:1; fill:none" points="
  253.896,198.898 400.328,198.898 
  "/>
<path clip-path="url(#clip390)" d="M424.733 181.618 L446.585 181.618 L446.585 185.553 L429.409 185.553 L429.409 195.784 L445.867 195.784 L445.867 199.719 L429.409 199.719 L429.409 212.242 L447.001 212.242 L447.001 216.178 L424.733 216.178 L424.733 181.618 Z" fill="#000000" fill-rule="evenodd" fill-opacity="1" /><path clip-path="url(#clip390)" d="M476.052 190.252 L466.677 202.867 L476.538 216.178 L471.515 216.178 L463.969 205.992 L456.423 216.178 L451.4 216.178 L461.469 202.613 L452.256 190.252 L457.279 190.252 L464.154 199.488 L471.029 190.252 L476.052 190.252 Z" fill="#000000" fill-rule="evenodd" fill-opacity="1" /><path clip-path="url(#clip390)" d="M494.339 203.145 Q489.177 203.145 487.186 204.326 Q485.196 205.506 485.196 208.354 Q485.196 210.622 486.677 211.965 Q488.182 213.284 490.751 213.284 Q494.293 213.284 496.422 210.784 Q498.575 208.261 498.575 204.094 L498.575 203.145 L494.339 203.145 M502.834 201.386 L502.834 216.178 L498.575 216.178 L498.575 212.242 Q497.117 214.603 494.941 215.738 Q492.765 216.849 489.617 216.849 Q485.635 216.849 483.274 214.627 Q480.936 212.381 480.936 208.631 Q480.936 204.256 483.853 202.034 Q486.793 199.812 492.603 199.812 L498.575 199.812 L498.575 199.395 Q498.575 196.455 496.631 194.858 Q494.71 193.238 491.214 193.238 Q488.992 193.238 486.885 193.77 Q484.779 194.303 482.835 195.367 L482.835 191.432 Q485.173 190.53 487.372 190.09 Q489.571 189.627 491.654 189.627 Q497.279 189.627 500.057 192.543 Q502.834 195.46 502.834 201.386 Z" fill="#000000" fill-rule="evenodd" fill-opacity="1" /><path clip-path="url(#clip390)" d="M530.265 191.247 L530.265 195.229 Q528.459 194.233 526.631 193.747 Q524.825 193.238 522.973 193.238 Q518.83 193.238 516.538 195.877 Q514.246 198.492 514.246 203.238 Q514.246 207.983 516.538 210.622 Q518.83 213.238 522.973 213.238 Q524.825 213.238 526.631 212.752 Q528.459 212.242 530.265 211.247 L530.265 215.182 Q528.482 216.016 526.561 216.432 Q524.663 216.849 522.51 216.849 Q516.654 216.849 513.205 213.168 Q509.756 209.488 509.756 203.238 Q509.756 196.895 513.228 193.261 Q516.723 189.627 522.788 189.627 Q524.756 189.627 526.631 190.043 Q528.506 190.437 530.265 191.247 Z" fill="#000000" fill-rule="evenodd" fill-opacity="1" /><path clip-path="url(#clip390)" d="M541.885 182.891 L541.885 190.252 L550.658 190.252 L550.658 193.562 L541.885 193.562 L541.885 207.636 Q541.885 210.807 542.742 211.71 Q543.621 212.613 546.283 212.613 L550.658 212.613 L550.658 216.178 L546.283 216.178 Q541.353 216.178 539.478 214.349 Q537.603 212.497 537.603 207.636 L537.603 193.562 L534.478 193.562 L534.478 190.252 L537.603 190.252 L537.603 182.891 L541.885 182.891 Z" fill="#000000" fill-rule="evenodd" fill-opacity="1" /></svg>
