<?xml version="1.0" encoding="utf-8"?>
<svg xmlns="http://www.w3.org/2000/svg" xmlns:xlink="http://www.w3.org/1999/xlink" width="600" height="400" viewBox="0 0 2400 1600">
<defs>
  <clipPath id="clip940">
    <rect x="0" y="0" width="2400" height="1600"/>
  </clipPath>
</defs>
<path clip-path="url(#clip940)" d="M0 1600 L2400 1600 L2400 0 L0 0  Z" fill="#ffffff" fill-rule="evenodd" fill-opacity="1"/>
<defs>
  <clipPath id="clip941">
    <rect x="480" y="0" width="1681" height="1600"/>
  </clipPath>
</defs>
<path clip-path="url(#clip940)" d="M156.274 1486.45 L2352.76 1486.45 L2352.76 47.2441 L156.274 47.2441  Z" fill="#ffffff" fill-rule="evenodd" fill-opacity="1"/>
<defs>
  <clipPath id="clip942">
    <rect x="156" y="47" width="2197" height="1440"/>
  </clipPath>
</defs>
<polyline clip-path="url(#clip942)" style="stroke:#000000; stroke-linecap:round; stroke-linejoin:round; stroke-width:2; stroke-opacity:0.1; fill:none" points="218.439,1486.45 218.439,47.2441 "/>
<polyline clip-path="url(#clip942)" style="stroke:#000000; stroke-linecap:round; stroke-linejoin:round; stroke-width:2; stroke-opacity:0.1; fill:none" points="736.477,1486.45 736.477,47.2441 "/>
<polyline clip-path="url(#clip942)" style="stroke:#000000; stroke-linecap:round; stroke-linejoin:round; stroke-width:2; stroke-opacity:0.1; fill:none" points="1254.52,1486.45 1254.52,47.2441 "/>
<polyline clip-path="url(#clip942)" style="stroke:#000000; stroke-linecap:round; stroke-linejoin:round; stroke-width:2; stroke-opacity:0.1; fill:none" points="1772.55,1486.45 1772.55,47.2441 "/>
<polyline clip-path="url(#clip942)" style="stroke:#000000; stroke-linecap:round; stroke-linejoin:round; stroke-width:2; stroke-opacity:0.1; fill:none" points="2290.59,1486.45 2290.59,47.2441 "/>
<polyline clip-path="url(#clip940)" style="stroke:#000000; stroke-linecap:round; stroke-linejoin:round; stroke-width:4; stroke-opacity:1; fill:none" points="156.274,1486.45 2352.76,1486.45 "/>
<polyline clip-path="url(#clip940)" style="stroke:#000000; stroke-linecap:round; stroke-linejoin:round; stroke-width:4; stroke-opacity:1; fill:none" points="218.439,1486.45 218.439,1467.55 "/>
<polyline clip-path="url(#clip940)" style="stroke:#000000; stroke-linecap:round; stroke-linejoin:round; stroke-width:4; stroke-opacity:1; fill:none" points="736.477,1486.45 736.477,1467.55 "/>
<polyline clip-path="url(#clip940)" style="stroke:#000000; stroke-linecap:round; stroke-linejoin:round; stroke-width:4; stroke-opacity:1; fill:none" points="1254.52,1486.45 1254.52,1467.55 "/>
<polyline clip-path="url(#clip940)" style="stroke:#000000; stroke-linecap:round; stroke-linejoin:round; stroke-width:4; stroke-opacity:1; fill:none" points="1772.55,1486.45 1772.55,1467.55 "/>
<polyline clip-path="url(#clip940)" style="stroke:#000000; stroke-linecap:round; stroke-linejoin:round; stroke-width:4; stroke-opacity:1; fill:none" points="2290.59,1486.45 2290.59,1467.55 "/>
<path clip-path="url(#clip940)" d="M164.967 1532.02 L194.643 1532.02 L194.643 1535.95 L164.967 1535.95 L164.967 1532.02 Z" fill="#000000" fill-rule="evenodd" fill-opacity="1" /><path clip-path="url(#clip940)" d="M205.545 1544.91 L213.184 1544.91 L213.184 1518.55 L204.874 1520.21 L204.874 1515.95 L213.138 1514.29 L217.814 1514.29 L217.814 1544.91 L225.453 1544.91 L225.453 1548.85 L205.545 1548.85 L205.545 1544.91 Z" fill="#000000" fill-rule="evenodd" fill-opacity="1" /><path clip-path="url(#clip940)" d="M234.897 1542.97 L239.781 1542.97 L239.781 1548.85 L234.897 1548.85 L234.897 1542.97 Z" fill="#000000" fill-rule="evenodd" fill-opacity="1" /><path clip-path="url(#clip940)" d="M259.966 1517.37 Q256.355 1517.37 254.527 1520.93 Q252.721 1524.47 252.721 1531.6 Q252.721 1538.71 254.527 1542.27 Q256.355 1545.82 259.966 1545.82 Q263.601 1545.82 265.406 1542.27 Q267.235 1538.71 267.235 1531.6 Q267.235 1524.47 265.406 1520.93 Q263.601 1517.37 259.966 1517.37 M259.966 1513.66 Q265.776 1513.66 268.832 1518.27 Q271.911 1522.85 271.911 1531.6 Q271.911 1540.33 268.832 1544.94 Q265.776 1549.52 259.966 1549.52 Q254.156 1549.52 251.077 1544.94 Q248.022 1540.33 248.022 1531.6 Q248.022 1522.85 251.077 1518.27 Q254.156 1513.66 259.966 1513.66 Z" fill="#000000" fill-rule="evenodd" fill-opacity="1" /><path clip-path="url(#clip940)" d="M683.503 1532.02 L713.178 1532.02 L713.178 1535.95 L683.503 1535.95 L683.503 1532.02 Z" fill="#000000" fill-rule="evenodd" fill-opacity="1" /><path clip-path="url(#clip940)" d="M733.271 1517.37 Q729.66 1517.37 727.831 1520.93 Q726.026 1524.47 726.026 1531.6 Q726.026 1538.71 727.831 1542.27 Q729.66 1545.82 733.271 1545.82 Q736.905 1545.82 738.711 1542.27 Q740.539 1538.71 740.539 1531.6 Q740.539 1524.47 738.711 1520.93 Q736.905 1517.37 733.271 1517.37 M733.271 1513.66 Q739.081 1513.66 742.137 1518.27 Q745.215 1522.85 745.215 1531.6 Q745.215 1540.33 742.137 1544.94 Q739.081 1549.52 733.271 1549.52 Q727.461 1549.52 724.382 1544.94 Q721.327 1540.33 721.327 1531.6 Q721.327 1522.85 724.382 1518.27 Q727.461 1513.66 733.271 1513.66 Z" fill="#000000" fill-rule="evenodd" fill-opacity="1" /><path clip-path="url(#clip940)" d="M753.433 1542.97 L758.317 1542.97 L758.317 1548.85 L753.433 1548.85 L753.433 1542.97 Z" fill="#000000" fill-rule="evenodd" fill-opacity="1" /><path clip-path="url(#clip940)" d="M768.548 1514.29 L786.905 1514.29 L786.905 1518.22 L772.831 1518.22 L772.831 1526.7 Q773.849 1526.35 774.868 1526.19 Q775.886 1526 776.905 1526 Q782.692 1526 786.072 1529.17 Q789.451 1532.34 789.451 1537.76 Q789.451 1543.34 785.979 1546.44 Q782.507 1549.52 776.187 1549.52 Q774.011 1549.52 771.743 1549.15 Q769.498 1548.78 767.09 1548.04 L767.09 1543.34 Q769.173 1544.47 771.396 1545.03 Q773.618 1545.58 776.095 1545.58 Q780.099 1545.58 782.437 1543.48 Q784.775 1541.37 784.775 1537.76 Q784.775 1534.15 782.437 1532.04 Q780.099 1529.94 776.095 1529.94 Q774.22 1529.94 772.345 1530.35 Q770.493 1530.77 768.548 1531.65 L768.548 1514.29 Z" fill="#000000" fill-rule="evenodd" fill-opacity="1" /><path clip-path="url(#clip940)" d="M1231.9 1517.37 Q1228.29 1517.37 1226.46 1520.93 Q1224.65 1524.47 1224.65 1531.6 Q1224.65 1538.71 1226.46 1542.27 Q1228.29 1545.82 1231.9 1545.82 Q1235.53 1545.82 1237.34 1542.27 Q1239.17 1538.71 1239.17 1531.6 Q1239.17 1524.47 1237.34 1520.93 Q1235.53 1517.37 1231.9 1517.37 M1231.9 1513.66 Q1237.71 1513.66 1240.77 1518.27 Q1243.84 1522.85 1243.84 1531.6 Q1243.84 1540.33 1240.77 1544.94 Q1237.71 1549.52 1231.9 1549.52 Q1226.09 1549.52 1223.01 1544.94 Q1219.96 1540.33 1219.96 1531.6 Q1219.96 1522.85 1223.01 1518.27 Q1226.09 1513.66 1231.9 1513.66 Z" fill="#000000" fill-rule="evenodd" fill-opacity="1" /><path clip-path="url(#clip940)" d="M1252.06 1542.97 L1256.95 1542.97 L1256.95 1548.85 L1252.06 1548.85 L1252.06 1542.97 Z" fill="#000000" fill-rule="evenodd" fill-opacity="1" /><path clip-path="url(#clip940)" d="M1277.13 1517.37 Q1273.52 1517.37 1271.69 1520.93 Q1269.89 1524.47 1269.89 1531.6 Q1269.89 1538.71 1271.69 1542.27 Q1273.52 1545.82 1277.13 1545.82 Q1280.76 1545.82 1282.57 1542.27 Q1284.4 1538.71 1284.4 1531.6 Q1284.4 1524.47 1282.57 1520.93 Q1280.76 1517.37 1277.13 1517.37 M1277.13 1513.66 Q1282.94 1513.66 1286 1518.27 Q1289.08 1522.85 1289.08 1531.6 Q1289.08 1540.33 1286 1544.94 Q1282.94 1549.52 1277.13 1549.52 Q1271.32 1549.52 1268.24 1544.94 Q1265.19 1540.33 1265.19 1531.6 Q1265.19 1522.85 1268.24 1518.27 Q1271.32 1513.66 1277.13 1513.66 Z" fill="#000000" fill-rule="evenodd" fill-opacity="1" /><path clip-path="url(#clip940)" d="M1750.44 1517.37 Q1746.82 1517.37 1745 1520.93 Q1743.19 1524.47 1743.19 1531.6 Q1743.19 1538.71 1745 1542.27 Q1746.82 1545.82 1750.44 1545.82 Q1754.07 1545.82 1755.88 1542.27 Q1757.7 1538.71 1757.7 1531.6 Q1757.7 1524.47 1755.88 1520.93 Q1754.07 1517.37 1750.44 1517.37 M1750.44 1513.66 Q1756.25 1513.66 1759.3 1518.27 Q1762.38 1522.85 1762.38 1531.6 Q1762.38 1540.33 1759.3 1544.94 Q1756.25 1549.52 1750.44 1549.52 Q1744.63 1549.52 1741.55 1544.94 Q1738.49 1540.33 1738.49 1531.6 Q1738.49 1522.85 1741.55 1518.27 Q1744.63 1513.66 1750.44 1513.66 Z" fill="#000000" fill-rule="evenodd" fill-opacity="1" /><path clip-path="url(#clip940)" d="M1770.6 1542.97 L1775.48 1542.97 L1775.48 1548.85 L1770.6 1548.85 L1770.6 1542.97 Z" fill="#000000" fill-rule="evenodd" fill-opacity="1" /><path clip-path="url(#clip940)" d="M1785.71 1514.29 L1804.07 1514.29 L1804.07 1518.22 L1790 1518.22 L1790 1526.7 Q1791.01 1526.35 1792.03 1526.19 Q1793.05 1526 1794.07 1526 Q1799.86 1526 1803.24 1529.17 Q1806.62 1532.34 1806.62 1537.76 Q1806.62 1543.34 1803.14 1546.44 Q1799.67 1549.52 1793.35 1549.52 Q1791.18 1549.52 1788.91 1549.15 Q1786.66 1548.78 1784.25 1548.04 L1784.25 1543.34 Q1786.34 1544.47 1788.56 1545.03 Q1790.78 1545.58 1793.26 1545.58 Q1797.26 1545.58 1799.6 1543.48 Q1801.94 1541.37 1801.94 1537.76 Q1801.94 1534.15 1799.6 1532.04 Q1797.26 1529.94 1793.26 1529.94 Q1791.38 1529.94 1789.51 1530.35 Q1787.66 1530.77 1785.71 1531.65 L1785.71 1514.29 Z" fill="#000000" fill-rule="evenodd" fill-opacity="1" /><path clip-path="url(#clip940)" d="M2257.74 1544.91 L2265.38 1544.91 L2265.38 1518.55 L2257.07 1520.21 L2257.07 1515.95 L2265.34 1514.29 L2270.01 1514.29 L2270.01 1544.91 L2277.65 1544.91 L2277.65 1548.85 L2257.74 1548.85 L2257.74 1544.91 Z" fill="#000000" fill-rule="evenodd" fill-opacity="1" /><path clip-path="url(#clip940)" d="M2287.1 1542.97 L2291.98 1542.97 L2291.98 1548.85 L2287.1 1548.85 L2287.1 1542.97 Z" fill="#000000" fill-rule="evenodd" fill-opacity="1" /><path clip-path="url(#clip940)" d="M2312.17 1517.37 Q2308.55 1517.37 2306.73 1520.93 Q2304.92 1524.47 2304.92 1531.6 Q2304.92 1538.71 2306.73 1542.27 Q2308.55 1545.82 2312.17 1545.82 Q2315.8 1545.82 2317.61 1542.27 Q2319.43 1538.71 2319.43 1531.6 Q2319.43 1524.47 2317.61 1520.93 Q2315.8 1517.37 2312.17 1517.37 M2312.17 1513.66 Q2317.98 1513.66 2321.03 1518.27 Q2324.11 1522.85 2324.11 1531.6 Q2324.11 1540.33 2321.03 1544.94 Q2317.98 1549.52 2312.17 1549.52 Q2306.36 1549.52 2303.28 1544.94 Q2300.22 1540.33 2300.22 1531.6 Q2300.22 1522.85 2303.28 1518.27 Q2306.36 1513.66 2312.17 1513.66 Z" fill="#000000" fill-rule="evenodd" fill-opacity="1" /><polyline clip-path="url(#clip942)" style="stroke:#000000; stroke-linecap:round; stroke-linejoin:round; stroke-width:2; stroke-opacity:0.1; fill:none" points="156.274,1249.95 2352.76,1249.95 "/>
<polyline clip-path="url(#clip942)" style="stroke:#000000; stroke-linecap:round; stroke-linejoin:round; stroke-width:2; stroke-opacity:0.1; fill:none" points="156.274,977.252 2352.76,977.252 "/>
<polyline clip-path="url(#clip942)" style="stroke:#000000; stroke-linecap:round; stroke-linejoin:round; stroke-width:2; stroke-opacity:0.1; fill:none" points="156.274,704.556 2352.76,704.556 "/>
<polyline clip-path="url(#clip942)" style="stroke:#000000; stroke-linecap:round; stroke-linejoin:round; stroke-width:2; stroke-opacity:0.1; fill:none" points="156.274,431.86 2352.76,431.86 "/>
<polyline clip-path="url(#clip942)" style="stroke:#000000; stroke-linecap:round; stroke-linejoin:round; stroke-width:2; stroke-opacity:0.1; fill:none" points="156.274,159.164 2352.76,159.164 "/>
<polyline clip-path="url(#clip940)" style="stroke:#000000; stroke-linecap:round; stroke-linejoin:round; stroke-width:4; stroke-opacity:1; fill:none" points="156.274,1486.45 156.274,47.2441 "/>
<polyline clip-path="url(#clip940)" style="stroke:#000000; stroke-linecap:round; stroke-linejoin:round; stroke-width:4; stroke-opacity:1; fill:none" points="156.274,1249.95 175.172,1249.95 "/>
<polyline clip-path="url(#clip940)" style="stroke:#000000; stroke-linecap:round; stroke-linejoin:round; stroke-width:4; stroke-opacity:1; fill:none" points="156.274,977.252 175.172,977.252 "/>
<polyline clip-path="url(#clip940)" style="stroke:#000000; stroke-linecap:round; stroke-linejoin:round; stroke-width:4; stroke-opacity:1; fill:none" points="156.274,704.556 175.172,704.556 "/>
<polyline clip-path="url(#clip940)" style="stroke:#000000; stroke-linecap:round; stroke-linejoin:round; stroke-width:4; stroke-opacity:1; fill:none" points="156.274,431.86 175.172,431.86 "/>
<polyline clip-path="url(#clip940)" style="stroke:#000000; stroke-linecap:round; stroke-linejoin:round; stroke-width:4; stroke-opacity:1; fill:none" points="156.274,159.164 175.172,159.164 "/>
<path clip-path="url(#clip940)" d="M63.0985 1235.75 Q59.4875 1235.75 57.6588 1239.31 Q55.8532 1242.85 55.8532 1249.98 Q55.8532 1257.09 57.6588 1260.65 Q59.4875 1264.2 63.0985 1264.2 Q66.7328 1264.2 68.5383 1260.65 Q70.367 1257.09 70.367 1249.98 Q70.367 1242.85 68.5383 1239.31 Q66.7328 1235.75 63.0985 1235.75 M63.0985 1232.04 Q68.9087 1232.04 71.9642 1236.65 Q75.0429 1241.23 75.0429 1249.98 Q75.0429 1258.71 71.9642 1263.32 Q68.9087 1267.9 63.0985 1267.9 Q57.2884 1267.9 54.2097 1263.32 Q51.1542 1258.71 51.1542 1249.98 Q51.1542 1241.23 54.2097 1236.65 Q57.2884 1232.04 63.0985 1232.04 Z" fill="#000000" fill-rule="evenodd" fill-opacity="1" /><path clip-path="url(#clip940)" d="M83.2605 1261.35 L88.1447 1261.35 L88.1447 1267.23 L83.2605 1267.23 L83.2605 1261.35 Z" fill="#000000" fill-rule="evenodd" fill-opacity="1" /><path clip-path="url(#clip940)" d="M108.33 1235.75 Q104.719 1235.75 102.89 1239.31 Q101.084 1242.85 101.084 1249.98 Q101.084 1257.09 102.89 1260.65 Q104.719 1264.2 108.33 1264.2 Q111.964 1264.2 113.77 1260.65 Q115.598 1257.09 115.598 1249.98 Q115.598 1242.85 113.77 1239.31 Q111.964 1235.75 108.33 1235.75 M108.33 1232.04 Q114.14 1232.04 117.195 1236.65 Q120.274 1241.23 120.274 1249.98 Q120.274 1258.71 117.195 1263.32 Q114.14 1267.9 108.33 1267.9 Q102.52 1267.9 99.4409 1263.32 Q96.3854 1258.71 96.3854 1249.98 Q96.3854 1241.23 99.4409 1236.65 Q102.52 1232.04 108.33 1232.04 Z" fill="#000000" fill-rule="evenodd" fill-opacity="1" /><path clip-path="url(#clip940)" d="M63.7467 963.051 Q60.1356 963.051 58.3069 966.616 Q56.5014 970.157 56.5014 977.287 Q56.5014 984.393 58.3069 987.958 Q60.1356 991.5 63.7467 991.5 Q67.3809 991.5 69.1865 987.958 Q71.0152 984.393 71.0152 977.287 Q71.0152 970.157 69.1865 966.616 Q67.3809 963.051 63.7467 963.051 M63.7467 959.347 Q69.5568 959.347 72.6124 963.954 Q75.6911 968.537 75.6911 977.287 Q75.6911 986.014 72.6124 990.62 Q69.5568 995.204 63.7467 995.204 Q57.9365 995.204 54.8578 990.62 Q51.8023 986.014 51.8023 977.287 Q51.8023 968.537 54.8578 963.954 Q57.9365 959.347 63.7467 959.347 Z" fill="#000000" fill-rule="evenodd" fill-opacity="1" /><path clip-path="url(#clip940)" d="M83.9086 988.653 L88.7928 988.653 L88.7928 994.532 L83.9086 994.532 L83.9086 988.653 Z" fill="#000000" fill-rule="evenodd" fill-opacity="1" /><path clip-path="url(#clip940)" d="M113.145 975.898 Q116.501 976.616 118.376 978.884 Q120.274 981.153 120.274 984.486 Q120.274 989.602 116.756 992.403 Q113.237 995.204 106.756 995.204 Q104.58 995.204 102.265 994.764 Q99.9733 994.347 97.5197 993.491 L97.5197 988.977 Q99.4641 990.111 101.779 990.69 Q104.094 991.268 106.617 991.268 Q111.015 991.268 113.307 989.532 Q115.621 987.796 115.621 984.486 Q115.621 981.43 113.469 979.717 Q111.339 977.981 107.52 977.981 L103.492 977.981 L103.492 974.139 L107.705 974.139 Q111.154 974.139 112.983 972.773 Q114.811 971.384 114.811 968.792 Q114.811 966.13 112.913 964.718 Q111.038 963.282 107.52 963.282 Q105.598 963.282 103.399 963.699 Q101.2 964.116 98.5613 964.995 L98.5613 960.829 Q101.223 960.088 103.538 959.718 Q105.876 959.347 107.936 959.347 Q113.26 959.347 116.362 961.778 Q119.464 964.185 119.464 968.306 Q119.464 971.176 117.82 973.167 Q116.177 975.134 113.145 975.898 Z" fill="#000000" fill-rule="evenodd" fill-opacity="1" /><path clip-path="url(#clip940)" d="M62.9365 690.355 Q59.3254 690.355 57.4967 693.919 Q55.6912 697.461 55.6912 704.591 Q55.6912 711.697 57.4967 715.262 Q59.3254 718.804 62.9365 718.804 Q66.5707 718.804 68.3763 715.262 Q70.205 711.697 70.205 704.591 Q70.205 697.461 68.3763 693.919 Q66.5707 690.355 62.9365 690.355 M62.9365 686.651 Q68.7467 686.651 71.8022 691.257 Q74.8809 695.841 74.8809 704.591 Q74.8809 713.318 71.8022 717.924 Q68.7467 722.507 62.9365 722.507 Q57.1264 722.507 54.0477 717.924 Q50.9921 713.318 50.9921 704.591 Q50.9921 695.841 54.0477 691.257 Q57.1264 686.651 62.9365 686.651 Z" fill="#000000" fill-rule="evenodd" fill-opacity="1" /><path clip-path="url(#clip940)" d="M83.0984 715.956 L87.9827 715.956 L87.9827 721.836 L83.0984 721.836 L83.0984 715.956 Z" fill="#000000" fill-rule="evenodd" fill-opacity="1" /><path clip-path="url(#clip940)" d="M108.746 702.693 Q105.598 702.693 103.746 704.845 Q101.918 706.998 101.918 710.748 Q101.918 714.475 103.746 716.651 Q105.598 718.804 108.746 718.804 Q111.895 718.804 113.723 716.651 Q115.575 714.475 115.575 710.748 Q115.575 706.998 113.723 704.845 Q111.895 702.693 108.746 702.693 M118.029 688.04 L118.029 692.299 Q116.27 691.466 114.464 691.026 Q112.682 690.586 110.922 690.586 Q106.293 690.586 103.839 693.711 Q101.409 696.836 101.061 703.156 Q102.427 701.142 104.487 700.077 Q106.547 698.989 109.024 698.989 Q114.233 698.989 117.242 702.16 Q120.274 705.308 120.274 710.748 Q120.274 716.072 117.126 719.29 Q113.978 722.507 108.746 722.507 Q102.751 722.507 99.5798 717.924 Q96.4085 713.318 96.4085 704.591 Q96.4085 696.396 100.297 691.535 Q104.186 686.651 110.737 686.651 Q112.496 686.651 114.279 686.998 Q116.084 687.345 118.029 688.04 Z" fill="#000000" fill-rule="evenodd" fill-opacity="1" /><path clip-path="url(#clip940)" d="M63.2837 417.658 Q59.6726 417.658 57.8439 421.223 Q56.0384 424.765 56.0384 431.895 Q56.0384 439.001 57.8439 442.566 Q59.6726 446.107 63.2837 446.107 Q66.918 446.107 68.7235 442.566 Q70.5522 439.001 70.5522 431.895 Q70.5522 424.765 68.7235 421.223 Q66.918 417.658 63.2837 417.658 M63.2837 413.955 Q69.0939 413.955 72.1494 418.561 Q75.2281 423.145 75.2281 431.895 Q75.2281 440.621 72.1494 445.228 Q69.0939 449.811 63.2837 449.811 Q57.4736 449.811 54.3949 445.228 Q51.3393 440.621 51.3393 431.895 Q51.3393 423.145 54.3949 418.561 Q57.4736 413.955 63.2837 413.955 Z" fill="#000000" fill-rule="evenodd" fill-opacity="1" /><path clip-path="url(#clip940)" d="M83.4457 443.26 L88.3299 443.26 L88.3299 449.14 L83.4457 449.14 L83.4457 443.26 Z" fill="#000000" fill-rule="evenodd" fill-opacity="1" /><path clip-path="url(#clip940)" d="M98.6539 448.422 L98.6539 444.163 Q100.413 444.996 102.219 445.436 Q104.024 445.876 105.76 445.876 Q110.39 445.876 112.82 442.774 Q115.274 439.649 115.621 433.307 Q114.279 435.297 112.219 436.362 Q110.158 437.427 107.658 437.427 Q102.473 437.427 99.4409 434.302 Q96.4317 431.154 96.4317 425.714 Q96.4317 420.39 99.5798 417.172 Q102.728 413.955 107.959 413.955 Q113.955 413.955 117.103 418.561 Q120.274 423.145 120.274 431.895 Q120.274 440.066 116.385 444.95 Q112.52 449.811 105.969 449.811 Q104.209 449.811 102.404 449.464 Q100.598 449.117 98.6539 448.422 M107.959 433.769 Q111.108 433.769 112.936 431.617 Q114.788 429.464 114.788 425.714 Q114.788 421.987 112.936 419.834 Q111.108 417.658 107.959 417.658 Q104.811 417.658 102.959 419.834 Q101.131 421.987 101.131 425.714 Q101.131 429.464 102.959 431.617 Q104.811 433.769 107.959 433.769 Z" fill="#000000" fill-rule="evenodd" fill-opacity="1" /><path clip-path="url(#clip940)" d="M55.506 172.508 L63.1448 172.508 L63.1448 146.143 L54.8347 147.809 L54.8347 143.55 L63.0985 141.884 L67.7744 141.884 L67.7744 172.508 L75.4133 172.508 L75.4133 176.444 L55.506 176.444 L55.506 172.508 Z" fill="#000000" fill-rule="evenodd" fill-opacity="1" /><path clip-path="url(#clip940)" d="M84.8577 170.564 L89.7419 170.564 L89.7419 176.444 L84.8577 176.444 L84.8577 170.564 Z" fill="#000000" fill-rule="evenodd" fill-opacity="1" /><path clip-path="url(#clip940)" d="M103.955 172.508 L120.274 172.508 L120.274 176.444 L98.3298 176.444 L98.3298 172.508 Q100.992 169.754 105.575 165.124 Q110.182 160.471 111.362 159.129 Q113.608 156.606 114.487 154.87 Q115.39 153.11 115.39 151.421 Q115.39 148.666 113.445 146.93 Q111.524 145.194 108.422 145.194 Q106.223 145.194 103.77 145.958 Q101.339 146.721 98.5613 148.272 L98.5613 143.55 Q101.385 142.416 103.839 141.837 Q106.293 141.259 108.33 141.259 Q113.7 141.259 116.895 143.944 Q120.089 146.629 120.089 151.12 Q120.089 153.249 119.279 155.171 Q118.492 157.069 116.385 159.661 Q115.807 160.333 112.705 163.55 Q109.603 166.745 103.955 172.508 Z" fill="#000000" fill-rule="evenodd" fill-opacity="1" /><polyline clip-path="url(#clip942)" style="stroke:#009af9; stroke-linecap:round; stroke-linejoin:round; stroke-width:16; stroke-opacity:1; fill:none" stroke-dasharray="8, 16" points="218.439,1113.45 228.852,1116.03 239.264,1106.15 249.677,1088.1 260.09,1069.22 270.503,1057.87 280.916,1060.74 291.329,1080.05 301.741,1112.07 312.154,1148.51 322.567,1181.34 332.98,1207.62 343.393,1230.24 353.805,1254.38 364.218,1283.24 374.631,1316.43 385.044,1350.73 395.457,1381.93 405.87,1406.41 416.282,1422.05 426.695,1428.76 437.108,1428.28 447.521,1423.38 457.934,1416.51 468.347,1408.35 478.759,1397.15 489.172,1379.65 499.585,1353.27 509.998,1318.67 520.411,1280.37 530.824,1243.97 541.236,1212.26 551.649,1184.5 562.062,1158.99 572.475,1134.89 582.888,1112.21 593.301,1091.74 603.713,1075.31 614.126,1065.48 624.539,1064.07 634.952,1070.97 645.365,1084.42 655.777,1102.25 666.19,1123.07 676.603,1146.54 687.016,1172.97 697.429,1202.59 707.842,1234.93 718.254,1268.66 728.667,1301.81 739.08,1332.63 749.493,1360.1 759.906,1384.09 770.319,1404.65 780.731,1421.15 791.144,1431.92 801.557,1434.65 811.97,1428.06 822.383,1413.72 832.796,1396.12 843.208,1379.93 853.621,1365.95 864.034,1349.57 874.447,1323.97 884.86,1286.25 895.273,1241.46 905.685,1199.51 916.098,1167.32 926.511,1144.46 936.924,1126.03 947.337,1107.92 957.749,1089.68 968.162,1074.07 978.575,1064.9 988.988,1064.66 999.401,1073.32 1009.81,1088.84 1020.23,1108.65 1030.64,1130.9 1041.05,1154.86 1051.46,1180.67 1061.88,1208.84 1072.29,1239.73 1082.7,1273.12 1093.12,1308.01 1103.53,1342.53 1113.94,1374.05 1124.35,1399.56 1134.77,1416.39 1145.18,1423.09 1155.59,1420.52 1166.01,1412.57 1176.42,1405.97 1186.83,1408.19 1197.24,1423.06 1207.66,1443.92 1218.07,1445.72 1228.48,1382.15 1238.9,1206.48 1249.31,924.719 1259.72,623.322 1270.13,404.828 1280.55,305.326 1290.96,294.397 1301.37,322.12 1311.79,350.246 1322.2,360.674 1332.61,352.958 1343.02,336.436 1353.44,321.431 1363.85,314.19 1374.26,316.243 1384.68,325.835 1395.09,339.567 1405.5,353.62 1415.91,364.61 1426.33,370.114 1436.74,368.916 1447.15,361.054 1457.57,347.755 1467.98,331.314 1478.39,314.932 1488.8,302.434 1499.22,297.709 1509.63,303.784 1520.04,321.505 1530.45,348.229 1540.87,377.457 1551.28,400.409 1561.69,409.325 1572.11,400.384 1582.52,374.253 1592.93,334.822 1603.34,288.617 1613.76,246.707 1624.17,226.577 1634.58,245.937 1645,306.926 1655.41,387.736 1665.82,454.495 1676.23,480.791 1686.65,458.566 1697.06,398.263 1707.47,322.267 1717.89,255.299 1728.3,215.928 1738.71,212.574 1749.12,243.874 1759.54,300.881 1769.95,369.259 1780.36,431.662 1790.78,471.17 1801.19,475.785 1811.6,442.544 1822.01,379.238 1832.43,302.647 1842.84,233.874 1853.25,192.506 1863.67,191.323 1874.08,232.659 1884.49,307.214 1894.9,395.894 1905.32,474.582 1915.73,520.381 1926.14,517.268 1936.56,460.193 1946.97,358.534 1957.38,239.107 1967.79,143.58 1978.21,112.449 1988.62,160.314 1999.03,265.632 2009.45,386.905 2019.86,486.23 2030.27,540.158 2040.68,539.376 2051.1,486.584 2061.51,395.844 2071.92,290.849 2082.33,199.469 2092.75,145.752 2103.16,143.353 2113.57,192.971 2123.99,283.253 2134.4,393.327 2144.81,496.032 2155.22,562.274 2165.64,567.77 2176.05,502.638 2186.46,380.881 2196.88,241.729 2207.29,135.534 2217.7,99.0511 2228.11,137.828 2238.53,228.682 2248.94,336.828 2259.35,433.071 2269.77,502.482 2280.18,544.463 2290.59,567.196 "/>
<polyline clip-path="url(#clip942)" style="stroke:#e26f46; stroke-linecap:round; stroke-linejoin:round; stroke-width:4; stroke-opacity:1; fill:none" points="218.439,1113.42 228.852,1094.05 239.264,1079.77 249.677,1071.04 260.09,1068.15 270.503,1071.2 280.916,1080.07 291.329,1094.5 301.741,1113.99 312.154,1137.93 322.567,1165.52 332.98,1195.86 343.393,1227.97 353.805,1260.8 364.218,1293.27 374.631,1324.33 385.044,1352.96 395.457,1378.23 405.87,1399.32 416.282,1415.52 426.695,1426.33 437.108,1431.38 447.521,1430.5 457.934,1423.73 468.347,1411.3 478.759,1393.59 489.172,1371.2 499.585,1344.85 509.998,1315.4 520.411,1283.82 530.824,1251.13 541.236,1218.4 551.649,1186.7 562.062,1157.07 572.475,1130.47 582.888,1107.76 593.301,1089.7 603.713,1076.87 614.126,1069.69 624.539,1068.39 634.952,1073.01 645.365,1083.41 655.777,1099.25 666.19,1120 676.603,1145 687.016,1173.42 697.429,1204.33 707.842,1236.74 718.254,1269.58 728.667,1301.78 739.08,1332.28 749.493,1360.1 759.906,1384.32 770.319,1404.16 780.731,1418.97 791.144,1428.26 801.557,1431.72 811.97,1429.26 822.383,1420.94 832.796,1407.05 843.208,1388.02 853.621,1364.49 864.034,1337.22 874.447,1307.11 884.86,1275.12 895.273,1242.32 905.685,1209.76 916.098,1178.52 926.511,1149.61 936.924,1123.97 947.337,1102.44 957.749,1085.73 968.162,1074.38 978.575,1068.76 988.988,1069.05 999.401,1075.24 1009.81,1087.14 1020.23,1104.35 1030.64,1126.31 1041.05,1152.31 1051.46,1181.5 1061.88,1212.92 1072.29,1245.54 1082.7,1278.31 1093.12,1310.16 1103.53,1340.04 1113.94,1366.98 1124.35,1390.1 1134.77,1408.65 1145.18,1422.01 1155.59,1429.76 1166.01,1431.65 1176.42,1427.6 1186.83,1417.75 1197.24,1402.43 1207.66,1382.13 1218.07,1357.52 1228.48,1329.39 1238.9,1298.68 1249.31,1266.37 1259.72,339.641 1270.13,338.139 1280.55,339.506 1290.96,344.058 1301.37,350.399 1311.79,355.85 1322.2,357.464 1332.61,353.27 1343.02,343.271 1353.44,329.791 1363.85,316.964 1374.26,309.471 1384.68,310.909 1395.09,322.342 1405.5,341.572 1415.91,363.457 1426.33,381.279 1436.74,388.796 1447.15,382.361 1457.57,362.394 1467.98,333.675 1478.39,304.242 1488.8,283.148 1499.22,277.683 1509.63,290.93 1520.04,320.444 1530.45,358.559 1540.87,394.364 1551.28,416.82 1561.69,418.15 1572.11,396.455 1582.52,356.695 1592.93,309.631 1603.34,268.92 1613.76,247.157 1624.17,251.996 1634.58,283.547 1645,333.917 1655.41,389.135 1665.82,433.027 1676.23,451.951 1686.65,439.01 1697.06,396.458 1707.47,335.467 1717.89,273.228 1728.3,228.1 1738.71,214.201 1749.12,237.023 1759.54,291.419 1769.95,362.68 1780.36,430.493 1790.78,474.735 1801.19,481.437 1811.6,447.156 1822.01,380.405 1832.43,299.588 1842.84,227.937 1853.25,186.831 1863.67,189.43 1874.08,236.5 1884.49,315.764 1894.9,405.067 1905.32,478.566 1915.73,514.205 1926.14,500.327 1936.56,439.426 1946.97,347.86 1957.38,251.484 1967.79,178.343 1978.21,150.521 1988.62,177.483 1999.03,252.934 2009.45,356.211 2019.86,457.928 2030.27,528.337 2040.68,546.022 2051.1,504.398 2061.51,414.032 2071.92,300.009 2082.33,194.976 2092.75,129.795 2103.16,124.478 2113.57,182.071 2123.99,287.34 2134.4,410.77 2144.81,516.839 2155.22,574.234 2165.64,565.096 2176.05,490.539 2186.46,370.769 2196.88,239.622 2207.29,135.015 2217.7,87.9763 2228.11,113.459 2238.53,205.623 2248.94,339.095 2259.35,475.932 2269.77,576.418 2280.18,610.576 2290.59,567.111 "/>
<path clip-path="url(#clip940)" d="M229.49 250.738 L675.966 250.738 L675.966 95.2176 L229.49 95.2176  Z" fill="#ffffff" fill-rule="evenodd" fill-opacity="1"/>
<polyline clip-path="url(#clip940)" style="stroke:#000000; stroke-linecap:round; stroke-linejoin:round; stroke-width:4; stroke-opacity:1; fill:none" points="229.49,250.738 675.966,250.738 675.966,95.2176 229.49,95.2176 229.49,250.738 "/>
<polyline clip-path="url(#clip940)" style="stroke:#009af9; stroke-linecap:round; stroke-linejoin:round; stroke-width:16; stroke-opacity:1; fill:none" stroke-dasharray="8, 16" points="253.896,147.058 400.328,147.058 "/>
<path clip-path="url(#clip940)" d="M429.409 133.62 L429.409 146.606 L435.289 146.606 Q438.552 146.606 440.335 144.916 Q442.117 143.227 442.117 140.102 Q442.117 137 440.335 135.31 Q438.552 133.62 435.289 133.62 L429.409 133.62 M424.733 129.778 L435.289 129.778 Q441.099 129.778 444.062 132.416 Q447.048 135.032 447.048 140.102 Q447.048 145.217 444.062 147.833 Q441.099 150.449 435.289 150.449 L429.409 150.449 L429.409 164.338 L424.733 164.338 L424.733 129.778 Z" fill="#000000" fill-rule="evenodd" fill-opacity="1" /><path clip-path="url(#clip940)" d="M467.325 142.393 Q466.608 141.977 465.751 141.791 Q464.918 141.583 463.899 141.583 Q460.288 141.583 458.344 143.944 Q456.423 146.282 456.423 150.68 L456.423 164.338 L452.14 164.338 L452.14 138.412 L456.423 138.412 L456.423 142.44 Q457.765 140.078 459.918 138.944 Q462.071 137.787 465.149 137.787 Q465.589 137.787 466.122 137.856 Q466.654 137.903 467.302 138.018 L467.325 142.393 Z" fill="#000000" fill-rule="evenodd" fill-opacity="1" /><path clip-path="url(#clip940)" d="M492.927 150.31 L492.927 152.393 L473.344 152.393 Q473.622 156.791 475.983 159.106 Q478.367 161.398 482.603 161.398 Q485.057 161.398 487.348 160.796 Q489.663 160.194 491.932 158.99 L491.932 163.018 Q489.64 163.99 487.233 164.5 Q484.825 165.009 482.348 165.009 Q476.145 165.009 472.511 161.398 Q468.899 157.787 468.899 151.629 Q468.899 145.264 472.325 141.537 Q475.774 137.787 481.608 137.787 Q486.839 137.787 489.872 141.166 Q492.927 144.523 492.927 150.31 M488.668 149.06 Q488.622 145.565 486.7 143.481 Q484.802 141.398 481.654 141.398 Q478.089 141.398 475.936 143.412 Q473.807 145.426 473.483 149.083 L488.668 149.06 Z" fill="#000000" fill-rule="evenodd" fill-opacity="1" /><path clip-path="url(#clip940)" d="M516.978 142.347 L516.978 128.319 L521.237 128.319 L521.237 164.338 L516.978 164.338 L516.978 160.449 Q515.635 162.763 513.575 163.898 Q511.538 165.009 508.668 165.009 Q503.969 165.009 501.006 161.259 Q498.066 157.509 498.066 151.398 Q498.066 145.287 501.006 141.537 Q503.969 137.787 508.668 137.787 Q511.538 137.787 513.575 138.921 Q515.635 140.032 516.978 142.347 M502.464 151.398 Q502.464 156.097 504.385 158.782 Q506.33 161.444 509.709 161.444 Q513.089 161.444 515.033 158.782 Q516.978 156.097 516.978 151.398 Q516.978 146.699 515.033 144.037 Q513.089 141.352 509.709 141.352 Q506.33 141.352 504.385 144.037 Q502.464 146.699 502.464 151.398 Z" fill="#000000" fill-rule="evenodd" fill-opacity="1" /><path clip-path="url(#clip940)" d="M530.01 138.412 L534.269 138.412 L534.269 164.338 L530.01 164.338 L530.01 138.412 M530.01 128.319 L534.269 128.319 L534.269 133.713 L530.01 133.713 L530.01 128.319 Z" fill="#000000" fill-rule="evenodd" fill-opacity="1" /><path clip-path="url(#clip940)" d="M561.839 139.407 L561.839 143.389 Q560.033 142.393 558.205 141.907 Q556.399 141.398 554.547 141.398 Q550.404 141.398 548.112 144.037 Q545.82 146.652 545.82 151.398 Q545.82 156.143 548.112 158.782 Q550.404 161.398 554.547 161.398 Q556.399 161.398 558.205 160.912 Q560.033 160.402 561.839 159.407 L561.839 163.342 Q560.056 164.176 558.135 164.592 Q556.237 165.009 554.084 165.009 Q548.228 165.009 544.779 161.328 Q541.33 157.648 541.33 151.398 Q541.33 145.055 544.802 141.421 Q548.297 137.787 554.362 137.787 Q556.33 137.787 558.205 138.203 Q560.08 138.597 561.839 139.407 Z" fill="#000000" fill-rule="evenodd" fill-opacity="1" /><path clip-path="url(#clip940)" d="M573.459 131.051 L573.459 138.412 L582.232 138.412 L582.232 141.722 L573.459 141.722 L573.459 155.796 Q573.459 158.967 574.316 159.87 Q575.195 160.773 577.857 160.773 L582.232 160.773 L582.232 164.338 L577.857 164.338 Q572.927 164.338 571.052 162.509 Q569.177 160.657 569.177 155.796 L569.177 141.722 L566.052 141.722 L566.052 138.412 L569.177 138.412 L569.177 131.051 L573.459 131.051 Z" fill="#000000" fill-rule="evenodd" fill-opacity="1" /><path clip-path="url(#clip940)" d="M587.834 138.412 L592.093 138.412 L592.093 164.338 L587.834 164.338 L587.834 138.412 M587.834 128.319 L592.093 128.319 L592.093 133.713 L587.834 133.713 L587.834 128.319 Z" fill="#000000" fill-rule="evenodd" fill-opacity="1" /><path clip-path="url(#clip940)" d="M611.051 141.398 Q607.626 141.398 605.635 144.083 Q603.644 146.745 603.644 151.398 Q603.644 156.051 605.612 158.736 Q607.602 161.398 611.051 161.398 Q614.454 161.398 616.445 158.713 Q618.436 156.027 618.436 151.398 Q618.436 146.791 616.445 144.106 Q614.454 141.398 611.051 141.398 M611.051 137.787 Q616.607 137.787 619.778 141.398 Q622.95 145.009 622.95 151.398 Q622.95 157.764 619.778 161.398 Q616.607 165.009 611.051 165.009 Q605.473 165.009 602.302 161.398 Q599.153 157.764 599.153 151.398 Q599.153 145.009 602.302 141.398 Q605.473 137.787 611.051 137.787 Z" fill="#000000" fill-rule="evenodd" fill-opacity="1" /><path clip-path="url(#clip940)" d="M651.561 148.689 L651.561 164.338 L647.301 164.338 L647.301 148.828 Q647.301 145.148 645.866 143.319 Q644.431 141.49 641.561 141.49 Q638.112 141.49 636.121 143.69 Q634.13 145.889 634.13 149.685 L634.13 164.338 L629.848 164.338 L629.848 138.412 L634.13 138.412 L634.13 142.44 Q635.658 140.102 637.718 138.944 Q639.801 137.787 642.51 137.787 Q646.977 137.787 649.269 140.565 Q651.561 143.319 651.561 148.689 Z" fill="#000000" fill-rule="evenodd" fill-opacity="1" /><polyline clip-path="url(#clip940)" style="stroke:#e26f46; stroke-linecap:round; stroke-linejoin:round; stroke-width:4; stroke-opacity:1; fill:none" points="253.896,198.898 400.328,198.898 "/>
<path clip-path="url(#clip940)" d="M424.733 181.618 L446.585 181.618 L446.585 185.553 L429.409 185.553 L429.409 195.784 L445.867 195.784 L445.867 199.719 L429.409 199.719 L429.409 212.242 L447.001 212.242 L447.001 216.178 L424.733 216.178 L424.733 181.618 Z" fill="#000000" fill-rule="evenodd" fill-opacity="1" /><path clip-path="url(#clip940)" d="M476.052 190.252 L466.677 202.867 L476.538 216.178 L471.515 216.178 L463.969 205.992 L456.423 216.178 L451.4 216.178 L461.469 202.613 L452.256 190.252 L457.279 190.252 L464.154 199.488 L471.029 190.252 L476.052 190.252 Z" fill="#000000" fill-rule="evenodd" fill-opacity="1" /><path clip-path="url(#clip940)" d="M494.339 203.145 Q489.177 203.145 487.186 204.326 Q485.196 205.506 485.196 208.354 Q485.196 210.622 486.677 211.965 Q488.182 213.284 490.751 213.284 Q494.293 213.284 496.422 210.784 Q498.575 208.261 498.575 204.094 L498.575 203.145 L494.339 203.145 M502.834 201.386 L502.834 216.178 L498.575 216.178 L498.575 212.242 Q497.117 214.603 494.941 215.738 Q492.765 216.849 489.617 216.849 Q485.635 216.849 483.274 214.627 Q480.936 212.381 480.936 208.631 Q480.936 204.256 483.853 202.034 Q486.793 199.812 492.603 199.812 L498.575 199.812 L498.575 199.395 Q498.575 196.455 496.631 194.858 Q494.71 193.238 491.214 193.238 Q488.992 193.238 486.885 193.77 Q484.779 194.303 482.835 195.367 L482.835 191.432 Q485.173 190.53 487.372 190.09 Q489.571 189.627 491.654 189.627 Q497.279 189.627 500.057 192.543 Q502.834 195.46 502.834 201.386 Z" fill="#000000" fill-rule="evenodd" fill-opacity="1" /><path clip-path="url(#clip940)" d="M530.265 191.247 L530.265 195.229 Q528.459 194.233 526.631 193.747 Q524.825 193.238 522.973 193.238 Q518.83 193.238 516.538 195.877 Q514.246 198.492 514.246 203.238 Q514.246 207.983 516.538 210.622 Q518.83 213.238 522.973 213.238 Q524.825 213.238 526.631 212.752 Q528.459 212.242 530.265 211.247 L530.265 215.182 Q528.482 216.016 526.561 216.432 Q524.663 216.849 522.51 216.849 Q516.654 216.849 513.205 213.168 Q509.756 209.488 509.756 203.238 Q509.756 196.895 513.228 193.261 Q516.723 189.627 522.788 189.627 Q524.756 189.627 526.631 190.043 Q528.506 190.437 530.265 191.247 Z" fill="#000000" fill-rule="evenodd" fill-opacity="1" /><path clip-path="url(#clip940)" d="M541.885 182.891 L541.885 190.252 L550.658 190.252 L550.658 193.562 L541.885 193.562 L541.885 207.636 Q541.885 210.807 542.742 211.71 Q543.621 212.613 546.283 212.613 L550.658 212.613 L550.658 216.178 L546.283 216.178 Q541.353 216.178 539.478 214.349 Q537.603 212.497 537.603 207.636 L537.603 193.562 L534.478 193.562 L534.478 190.252 L537.603 190.252 L537.603 182.891 L541.885 182.891 Z" fill="#000000" fill-rule="evenodd" fill-opacity="1" /></svg>
