<?xml version="1.0" encoding="utf-8"?>
<svg xmlns="http://www.w3.org/2000/svg" xmlns:xlink="http://www.w3.org/1999/xlink" width="600" height="400" viewBox="0 0 2400 1600">
<defs>
  <clipPath id="clip970">
    <rect x="0" y="0" width="2400" height="1600"/>
  </clipPath>
</defs>
<path clip-path="url(#clip970)" d="M0 1600 L2400 1600 L2400 0 L0 0  Z" fill="#ffffff" fill-rule="evenodd" fill-opacity="1"/>
<defs>
  <clipPath id="clip971">
    <rect x="480" y="0" width="1681" height="1600"/>
  </clipPath>
</defs>
<path clip-path="url(#clip970)" d="M156.274 1486.45 L2352.76 1486.45 L2352.76 47.2441 L156.274 47.2441  Z" fill="#ffffff" fill-rule="evenodd" fill-opacity="1"/>
<defs>
  <clipPath id="clip972">
    <rect x="156" y="47" width="2197" height="1440"/>
  </clipPath>
</defs>
<polyline clip-path="url(#clip972)" style="stroke:#000000; stroke-linecap:round; stroke-linejoin:round; stroke-width:2; stroke-opacity:0.1; fill:none" points="218.439,1486.45 218.439,47.2441 "/>
<polyline clip-path="url(#clip972)" style="stroke:#000000; stroke-linecap:round; stroke-linejoin:round; stroke-width:2; stroke-opacity:0.1; fill:none" points="736.477,1486.45 736.477,47.2441 "/>
<polyline clip-path="url(#clip972)" style="stroke:#000000; stroke-linecap:round; stroke-linejoin:round; stroke-width:2; stroke-opacity:0.1; fill:none" points="1254.52,1486.45 1254.52,47.2441 "/>
<polyline clip-path="url(#clip972)" style="stroke:#000000; stroke-linecap:round; stroke-linejoin:round; stroke-width:2; stroke-opacity:0.1; fill:none" points="1772.55,1486.45 1772.55,47.2441 "/>
<polyline clip-path="url(#clip972)" style="stroke:#000000; stroke-linecap:round; stroke-linejoin:round; stroke-width:2; stroke-opacity:0.1; fill:none" points="2290.59,1486.45 2290.59,47.2441 "/>
<polyline clip-path="url(#clip970)" style="stroke:#000000; stroke-linecap:round; stroke-linejoin:round; stroke-width:4; stroke-opacity:1; fill:none" points="156.274,1486.45 2352.76,1486.45 "/>
<polyline clip-path="url(#clip970)" style="stroke:#000000; stroke-linecap:round; stroke-linejoin:round; stroke-width:4; stroke-opacity:1; fill:none" points="218.439,1486.45 218.439,1467.55 "/>
<polyline clip-path="url(#clip970)" style="stroke:#000000; stroke-linecap:round; stroke-linejoin:round; stroke-width:4; stroke-opacity:1; fill:none" points="736.477,1486.45 736.477,1467.55 "/>
<polyline clip-path="url(#clip970)" style="stroke:#000000; stroke-linecap:round; stroke-linejoin:round; stroke-width:4; stroke-opacity:1; fill:none" points="1254.52,1486.45 1254.52,1467.55 "/>
<polyline clip-path="url(#clip970)" style="stroke:#000000; stroke-linecap:round; stroke-linejoin:round; stroke-width:4; stroke-opacity:1; fill:none" points="1772.55,1486.45 1772.55,1467.55 "/>
<polyline clip-path="url(#clip970)" style="stroke:#000000; stroke-linecap:round; stroke-linejoin:round; stroke-width:4; stroke-opacity:1; fill:none" points="2290.59,1486.45 2290.59,1467.55 "/>
<path clip-path="url(#clip970)" d="M164.967 1532.02 L194.643 1532.02 L194.643 1535.95 L164.967 1535.95 L164.967 1532.02 Z" fill="#000000" fill-rule="evenodd" fill-opacity="1" /><path clip-path="url(#clip970)" d="M205.545 1544.91 L213.184 1544.91 L213.184 1518.55 L204.874 1520.21 L204.874 1515.95 L213.138 1514.29 L217.814 1514.29 L217.814 1544.91 L225.453 1544.91 L225.453 1548.85 L205.545 1548.85 L205.545 1544.91 Z" fill="#000000" fill-rule="evenodd" fill-opacity="1" /><path clip-path="url(#clip970)" d="M234.897 1542.97 L239.781 1542.97 L239.781 1548.85 L234.897 1548.85 L234.897 1542.97 Z" fill="#000000" fill-rule="evenodd" fill-opacity="1" /><path clip-path="url(#clip970)" d="M259.966 1517.37 Q256.355 1517.37 254.527 1520.93 Q252.721 1524.47 252.721 1531.6 Q252.721 1538.71 254.527 1542.27 Q256.355 1545.82 259.966 1545.82 Q263.601 1545.82 265.406 1542.27 Q267.235 1538.71 267.235 1531.6 Q267.235 1524.47 265.406 1520.93 Q263.601 1517.37 259.966 1517.37 M259.966 1513.66 Q265.776 1513.66 268.832 1518.27 Q271.911 1522.85 271.911 1531.6 Q271.911 1540.33 268.832 1544.94 Q265.776 1549.52 259.966 1549.52 Q254.156 1549.52 251.077 1544.94 Q248.022 1540.33 248.022 1531.6 Q248.022 1522.85 251.077 1518.27 Q254.156 1513.66 259.966 1513.66 Z" fill="#000000" fill-rule="evenodd" fill-opacity="1" /><path clip-path="url(#clip970)" d="M683.503 1532.02 L713.178 1532.02 L713.178 1535.95 L683.503 1535.95 L683.503 1532.02 Z" fill="#000000" fill-rule="evenodd" fill-opacity="1" /><path clip-path="url(#clip970)" d="M733.271 1517.37 Q729.66 1517.37 727.831 1520.93 Q726.026 1524.47 726.026 1531.6 Q726.026 1538.71 727.831 1542.27 Q729.66 1545.82 733.271 1545.82 Q736.905 1545.82 738.711 1542.27 Q740.539 1538.71 740.539 1531.6 Q740.539 1524.47 738.711 1520.93 Q736.905 1517.37 733.271 1517.37 M733.271 1513.66 Q739.081 1513.66 742.137 1518.27 Q745.215 1522.85 745.215 1531.6 Q745.215 1540.33 742.137 1544.94 Q739.081 1549.52 733.271 1549.52 Q727.461 1549.52 724.382 1544.94 Q721.327 1540.33 721.327 1531.6 Q721.327 1522.85 724.382 1518.27 Q727.461 1513.66 733.271 1513.66 Z" fill="#000000" fill-rule="evenodd" fill-opacity="1" /><path clip-path="url(#clip970)" d="M753.433 1542.97 L758.317 1542.97 L758.317 1548.85 L753.433 1548.85 L753.433 1542.97 Z" fill="#000000" fill-rule="evenodd" fill-opacity="1" /><path clip-path="url(#clip970)" d="M768.548 1514.29 L786.905 1514.29 L786.905 1518.22 L772.831 1518.22 L772.831 1526.7 Q773.849 1526.35 774.868 1526.19 Q775.886 1526 776.905 1526 Q782.692 1526 786.072 1529.17 Q789.451 1532.34 789.451 1537.76 Q789.451 1543.34 785.979 1546.44 Q782.507 1549.52 776.187 1549.52 Q774.011 1549.52 771.743 1549.15 Q769.498 1548.78 767.09 1548.04 L767.09 1543.34 Q769.173 1544.47 771.396 1545.03 Q773.618 1545.58 776.095 1545.58 Q780.099 1545.58 782.437 1543.48 Q784.775 1541.37 784.775 1537.76 Q784.775 1534.15 782.437 1532.04 Q780.099 1529.94 776.095 1529.94 Q774.22 1529.94 772.345 1530.35 Q770.493 1530.77 768.548 1531.65 L768.548 1514.29 Z" fill="#000000" fill-rule="evenodd" fill-opacity="1" /><path clip-path="url(#clip970)" d="M1231.9 1517.37 Q1228.29 1517.37 1226.46 1520.93 Q1224.65 1524.47 1224.65 1531.6 Q1224.65 1538.71 1226.46 1542.27 Q1228.29 1545.82 1231.9 1545.82 Q1235.53 1545.82 1237.34 1542.27 Q1239.17 1538.71 1239.17 1531.6 Q1239.17 1524.47 1237.34 1520.93 Q1235.53 1517.37 1231.9 1517.37 M1231.9 1513.66 Q1237.71 1513.66 1240.77 1518.27 Q1243.84 1522.85 1243.84 1531.6 Q1243.84 1540.33 1240.77 1544.94 Q1237.71 1549.52 1231.9 1549.52 Q1226.09 1549.52 1223.01 1544.94 Q1219.96 1540.33 1219.96 1531.6 Q1219.96 1522.85 1223.01 1518.27 Q1226.09 1513.66 1231.9 1513.66 Z" fill="#000000" fill-rule="evenodd" fill-opacity="1" /><path clip-path="url(#clip970)" d="M1252.06 1542.97 L1256.95 1542.97 L1256.95 1548.85 L1252.06 1548.85 L1252.06 1542.97 Z" fill="#000000" fill-rule="evenodd" fill-opacity="1" /><path clip-path="url(#clip970)" d="M1277.13 1517.37 Q1273.52 1517.37 1271.69 1520.93 Q1269.89 1524.47 1269.89 1531.6 Q1269.89 1538.71 1271.69 1542.27 Q1273.52 1545.82 1277.13 1545.82 Q1280.76 1545.82 1282.57 1542.27 Q1284.4 1538.71 1284.4 1531.6 Q1284.4 1524.47 1282.57 1520.93 Q1280.76 1517.37 1277.13 1517.37 M1277.13 1513.66 Q1282.94 1513.66 1286 1518.27 Q1289.08 1522.85 1289.08 1531.6 Q1289.08 1540.33 1286 1544.94 Q1282.94 1549.52 1277.13 1549.52 Q1271.32 1549.52 1268.24 1544.94 Q1265.19 1540.33 1265.19 1531.6 Q1265.19 1522.85 1268.24 1518.27 Q1271.32 1513.66 1277.13 1513.66 Z" fill="#000000" fill-rule="evenodd" fill-opacity="1" /><path clip-path="url(#clip970)" d="M1750.44 1517.37 Q1746.82 1517.37 1745 1520.93 Q1743.19 1524.47 1743.19 1531.6 Q1743.19 1538.71 1745 1542.27 Q1746.82 1545.82 1750.44 1545.82 Q1754.07 1545.82 1755.88 1542.27 Q1757.7 1538.71 1757.7 1531.6 Q1757.7 1524.47 1755.88 1520.93 Q1754.07 1517.37 1750.44 1517.37 M1750.44 1513.66 Q1756.25 1513.66 1759.3 1518.27 Q1762.38 1522.85 1762.38 1531.6 Q1762.38 1540.33 1759.3 1544.94 Q1756.25 1549.52 1750.44 1549.52 Q1744.63 1549.52 1741.55 1544.94 Q1738.49 1540.33 1738.49 1531.6 Q1738.49 1522.85 1741.55 1518.27 Q1744.63 1513.66 1750.44 1513.66 Z" fill="#000000" fill-rule="evenodd" fill-opacity="1" /><path clip-path="url(#clip970)" d="M1770.6 1542.97 L1775.48 1542.97 L1775.48 1548.85 L1770.6 1548.85 L1770.6 1542.97 Z" fill="#000000" fill-rule="evenodd" fill-opacity="1" /><path clip-path="url(#clip970)" d="M1785.71 1514.29 L1804.07 1514.29 L1804.07 1518.22 L1790 1518.22 L1790 1526.7 Q1791.01 1526.35 1792.03 1526.19 Q1793.05 1526 1794.07 1526 Q1799.86 1526 1803.24 1529.17 Q1806.62 1532.34 1806.62 1537.76 Q1806.62 1543.34 1803.14 1546.44 Q1799.67 1549.52 1793.35 1549.52 Q1791.18 1549.52 1788.91 1549.15 Q1786.66 1548.78 1784.25 1548.04 L1784.25 1543.34 Q1786.34 1544.47 1788.56 1545.03 Q1790.78 1545.58 1793.26 1545.58 Q1797.26 1545.58 1799.6 1543.48 Q1801.94 1541.37 1801.94 1537.76 Q1801.94 1534.15 1799.6 1532.04 Q1797.26 1529.94 1793.26 1529.94 Q1791.38 1529.94 1789.51 1530.35 Q1787.66 1530.77 1785.71 1531.65 L1785.71 1514.29 Z" fill="#000000" fill-rule="evenodd" fill-opacity="1" /><path clip-path="url(#clip970)" d="M2257.74 1544.91 L2265.38 1544.91 L2265.38 1518.55 L2257.07 1520.21 L2257.07 1515.95 L2265.34 1514.29 L2270.01 1514.29 L2270.01 1544.91 L2277.65 1544.91 L2277.65 1548.85 L2257.74 1548.85 L2257.74 1544.91 Z" fill="#000000" fill-rule="evenodd" fill-opacity="1" /><path clip-path="url(#clip970)" d="M2287.1 1542.97 L2291.98 1542.97 L2291.98 1548.85 L2287.1 1548.85 L2287.1 1542.97 Z" fill="#000000" fill-rule="evenodd" fill-opacity="1" /><path clip-path="url(#clip970)" d="M2312.17 1517.37 Q2308.55 1517.37 2306.73 1520.93 Q2304.92 1524.47 2304.92 1531.6 Q2304.92 1538.71 2306.73 1542.27 Q2308.55 1545.82 2312.17 1545.82 Q2315.8 1545.82 2317.61 1542.27 Q2319.43 1538.71 2319.43 1531.6 Q2319.43 1524.47 2317.61 1520.93 Q2315.8 1517.37 2312.17 1517.37 M2312.17 1513.66 Q2317.98 1513.66 2321.03 1518.27 Q2324.11 1522.85 2324.11 1531.6 Q2324.11 1540.33 2321.03 1544.94 Q2317.98 1549.52 2312.17 1549.52 Q2306.36 1549.52 2303.28 1544.94 Q2300.22 1540.33 2300.22 1531.6 Q2300.22 1522.85 2303.28 1518.27 Q2306.36 1513.66 2312.17 1513.66 Z" fill="#000000" fill-rule="evenodd" fill-opacity="1" /><polyline clip-path="url(#clip972)" style="stroke:#000000; stroke-linecap:round; stroke-linejoin:round; stroke-width:2; stroke-opacity:0.1; fill:none" points="156.274,1267.19 2352.76,1267.19 "/>
<polyline clip-path="url(#clip972)" style="stroke:#000000; stroke-linecap:round; stroke-linejoin:round; stroke-width:2; stroke-opacity:0.1; fill:none" points="156.274,1001.42 2352.76,1001.42 "/>
<polyline clip-path="url(#clip972)" style="stroke:#000000; stroke-linecap:round; stroke-linejoin:round; stroke-width:2; stroke-opacity:0.1; fill:none" points="156.274,735.642 2352.76,735.642 "/>
<polyline clip-path="url(#clip972)" style="stroke:#000000; stroke-linecap:round; stroke-linejoin:round; stroke-width:2; stroke-opacity:0.1; fill:none" points="156.274,469.868 2352.76,469.868 "/>
<polyline clip-path="url(#clip972)" style="stroke:#000000; stroke-linecap:round; stroke-linejoin:round; stroke-width:2; stroke-opacity:0.1; fill:none" points="156.274,204.094 2352.76,204.094 "/>
<polyline clip-path="url(#clip970)" style="stroke:#000000; stroke-linecap:round; stroke-linejoin:round; stroke-width:4; stroke-opacity:1; fill:none" points="156.274,1486.45 156.274,47.2441 "/>
<polyline clip-path="url(#clip970)" style="stroke:#000000; stroke-linecap:round; stroke-linejoin:round; stroke-width:4; stroke-opacity:1; fill:none" points="156.274,1267.19 175.172,1267.19 "/>
<polyline clip-path="url(#clip970)" style="stroke:#000000; stroke-linecap:round; stroke-linejoin:round; stroke-width:4; stroke-opacity:1; fill:none" points="156.274,1001.42 175.172,1001.42 "/>
<polyline clip-path="url(#clip970)" style="stroke:#000000; stroke-linecap:round; stroke-linejoin:round; stroke-width:4; stroke-opacity:1; fill:none" points="156.274,735.642 175.172,735.642 "/>
<polyline clip-path="url(#clip970)" style="stroke:#000000; stroke-linecap:round; stroke-linejoin:round; stroke-width:4; stroke-opacity:1; fill:none" points="156.274,469.868 175.172,469.868 "/>
<polyline clip-path="url(#clip970)" style="stroke:#000000; stroke-linecap:round; stroke-linejoin:round; stroke-width:4; stroke-opacity:1; fill:none" points="156.274,204.094 175.172,204.094 "/>
<path clip-path="url(#clip970)" d="M63.0985 1252.99 Q59.4875 1252.99 57.6588 1256.55 Q55.8532 1260.1 55.8532 1267.23 Q55.8532 1274.33 57.6588 1277.9 Q59.4875 1281.44 63.0985 1281.44 Q66.7328 1281.44 68.5383 1277.9 Q70.367 1274.33 70.367 1267.23 Q70.367 1260.1 68.5383 1256.55 Q66.7328 1252.99 63.0985 1252.99 M63.0985 1249.29 Q68.9087 1249.29 71.9642 1253.89 Q75.0429 1258.48 75.0429 1267.23 Q75.0429 1275.95 71.9642 1280.56 Q68.9087 1285.14 63.0985 1285.14 Q57.2884 1285.14 54.2097 1280.56 Q51.1542 1275.95 51.1542 1267.23 Q51.1542 1258.48 54.2097 1253.89 Q57.2884 1249.29 63.0985 1249.29 Z" fill="#000000" fill-rule="evenodd" fill-opacity="1" /><path clip-path="url(#clip970)" d="M83.2605 1278.59 L88.1447 1278.59 L88.1447 1284.47 L83.2605 1284.47 L83.2605 1278.59 Z" fill="#000000" fill-rule="evenodd" fill-opacity="1" /><path clip-path="url(#clip970)" d="M108.33 1252.99 Q104.719 1252.99 102.89 1256.55 Q101.084 1260.1 101.084 1267.23 Q101.084 1274.33 102.89 1277.9 Q104.719 1281.44 108.33 1281.44 Q111.964 1281.44 113.77 1277.9 Q115.598 1274.33 115.598 1267.23 Q115.598 1260.1 113.77 1256.55 Q111.964 1252.99 108.33 1252.99 M108.33 1249.29 Q114.14 1249.29 117.195 1253.89 Q120.274 1258.48 120.274 1267.23 Q120.274 1275.95 117.195 1280.56 Q114.14 1285.14 108.33 1285.14 Q102.52 1285.14 99.4409 1280.56 Q96.3854 1275.95 96.3854 1267.23 Q96.3854 1258.48 99.4409 1253.89 Q102.52 1249.29 108.33 1249.29 Z" fill="#000000" fill-rule="evenodd" fill-opacity="1" /><path clip-path="url(#clip970)" d="M63.7467 987.215 Q60.1356 987.215 58.3069 990.78 Q56.5014 994.322 56.5014 1001.45 Q56.5014 1008.56 58.3069 1012.12 Q60.1356 1015.66 63.7467 1015.66 Q67.3809 1015.66 69.1865 1012.12 Q71.0152 1008.56 71.0152 1001.45 Q71.0152 994.322 69.1865 990.78 Q67.3809 987.215 63.7467 987.215 M63.7467 983.512 Q69.5568 983.512 72.6124 988.118 Q75.6911 992.701 75.6911 1001.45 Q75.6911 1010.18 72.6124 1014.78 Q69.5568 1019.37 63.7467 1019.37 Q57.9365 1019.37 54.8578 1014.78 Q51.8023 1010.18 51.8023 1001.45 Q51.8023 992.701 54.8578 988.118 Q57.9365 983.512 63.7467 983.512 Z" fill="#000000" fill-rule="evenodd" fill-opacity="1" /><path clip-path="url(#clip970)" d="M83.9086 1012.82 L88.7928 1012.82 L88.7928 1018.7 L83.9086 1018.7 L83.9086 1012.82 Z" fill="#000000" fill-rule="evenodd" fill-opacity="1" /><path clip-path="url(#clip970)" d="M113.145 1000.06 Q116.501 1000.78 118.376 1003.05 Q120.274 1005.32 120.274 1008.65 Q120.274 1013.77 116.756 1016.57 Q113.237 1019.37 106.756 1019.37 Q104.58 1019.37 102.265 1018.93 Q99.9733 1018.51 97.5197 1017.65 L97.5197 1013.14 Q99.4641 1014.28 101.779 1014.85 Q104.094 1015.43 106.617 1015.43 Q111.015 1015.43 113.307 1013.7 Q115.621 1011.96 115.621 1008.65 Q115.621 1005.59 113.469 1003.88 Q111.339 1002.15 107.52 1002.15 L103.492 1002.15 L103.492 998.303 L107.705 998.303 Q111.154 998.303 112.983 996.937 Q114.811 995.549 114.811 992.956 Q114.811 990.294 112.913 988.882 Q111.038 987.447 107.52 987.447 Q105.598 987.447 103.399 987.863 Q101.2 988.28 98.5613 989.16 L98.5613 984.993 Q101.223 984.252 103.538 983.882 Q105.876 983.512 107.936 983.512 Q113.26 983.512 116.362 985.942 Q119.464 988.349 119.464 992.47 Q119.464 995.34 117.82 997.331 Q116.177 999.299 113.145 1000.06 Z" fill="#000000" fill-rule="evenodd" fill-opacity="1" /><path clip-path="url(#clip970)" d="M62.9365 721.441 Q59.3254 721.441 57.4967 725.006 Q55.6912 728.548 55.6912 735.677 Q55.6912 742.784 57.4967 746.348 Q59.3254 749.89 62.9365 749.89 Q66.5707 749.89 68.3763 746.348 Q70.205 742.784 70.205 735.677 Q70.205 728.548 68.3763 725.006 Q66.5707 721.441 62.9365 721.441 M62.9365 717.737 Q68.7467 717.737 71.8022 722.344 Q74.8809 726.927 74.8809 735.677 Q74.8809 744.404 71.8022 749.01 Q68.7467 753.594 62.9365 753.594 Q57.1264 753.594 54.0477 749.01 Q50.9921 744.404 50.9921 735.677 Q50.9921 726.927 54.0477 722.344 Q57.1264 717.737 62.9365 717.737 Z" fill="#000000" fill-rule="evenodd" fill-opacity="1" /><path clip-path="url(#clip970)" d="M83.0984 747.043 L87.9827 747.043 L87.9827 752.922 L83.0984 752.922 L83.0984 747.043 Z" fill="#000000" fill-rule="evenodd" fill-opacity="1" /><path clip-path="url(#clip970)" d="M108.746 733.779 Q105.598 733.779 103.746 735.932 Q101.918 738.085 101.918 741.835 Q101.918 745.561 103.746 747.737 Q105.598 749.89 108.746 749.89 Q111.895 749.89 113.723 747.737 Q115.575 745.561 115.575 741.835 Q115.575 738.085 113.723 735.932 Q111.895 733.779 108.746 733.779 M118.029 719.126 L118.029 723.386 Q116.27 722.552 114.464 722.112 Q112.682 721.673 110.922 721.673 Q106.293 721.673 103.839 724.798 Q101.409 727.923 101.061 734.242 Q102.427 732.228 104.487 731.163 Q106.547 730.075 109.024 730.075 Q114.233 730.075 117.242 733.247 Q120.274 736.395 120.274 741.835 Q120.274 747.159 117.126 750.376 Q113.978 753.594 108.746 753.594 Q102.751 753.594 99.5798 749.01 Q96.4085 744.404 96.4085 735.677 Q96.4085 727.483 100.297 722.622 Q104.186 717.737 110.737 717.737 Q112.496 717.737 114.279 718.085 Q116.084 718.432 118.029 719.126 Z" fill="#000000" fill-rule="evenodd" fill-opacity="1" /><path clip-path="url(#clip970)" d="M63.2837 455.667 Q59.6726 455.667 57.8439 459.232 Q56.0384 462.773 56.0384 469.903 Q56.0384 477.009 57.8439 480.574 Q59.6726 484.116 63.2837 484.116 Q66.918 484.116 68.7235 480.574 Q70.5522 477.009 70.5522 469.903 Q70.5522 462.773 68.7235 459.232 Q66.918 455.667 63.2837 455.667 M63.2837 451.963 Q69.0939 451.963 72.1494 456.57 Q75.2281 461.153 75.2281 469.903 Q75.2281 478.63 72.1494 483.236 Q69.0939 487.82 63.2837 487.82 Q57.4736 487.82 54.3949 483.236 Q51.3393 478.63 51.3393 469.903 Q51.3393 461.153 54.3949 456.57 Q57.4736 451.963 63.2837 451.963 Z" fill="#000000" fill-rule="evenodd" fill-opacity="1" /><path clip-path="url(#clip970)" d="M83.4457 481.269 L88.3299 481.269 L88.3299 487.148 L83.4457 487.148 L83.4457 481.269 Z" fill="#000000" fill-rule="evenodd" fill-opacity="1" /><path clip-path="url(#clip970)" d="M98.6539 486.431 L98.6539 482.171 Q100.413 483.005 102.219 483.445 Q104.024 483.884 105.76 483.884 Q110.39 483.884 112.82 480.783 Q115.274 477.658 115.621 471.315 Q114.279 473.306 112.219 474.371 Q110.158 475.435 107.658 475.435 Q102.473 475.435 99.4409 472.31 Q96.4317 469.162 96.4317 463.722 Q96.4317 458.398 99.5798 455.181 Q102.728 451.963 107.959 451.963 Q113.955 451.963 117.103 456.57 Q120.274 461.153 120.274 469.903 Q120.274 478.074 116.385 482.958 Q112.52 487.82 105.969 487.82 Q104.209 487.82 102.404 487.472 Q100.598 487.125 98.6539 486.431 M107.959 471.778 Q111.108 471.778 112.936 469.625 Q114.788 467.472 114.788 463.722 Q114.788 459.996 112.936 457.843 Q111.108 455.667 107.959 455.667 Q104.811 455.667 102.959 457.843 Q101.131 459.996 101.131 463.722 Q101.131 467.472 102.959 469.625 Q104.811 471.778 107.959 471.778 Z" fill="#000000" fill-rule="evenodd" fill-opacity="1" /><path clip-path="url(#clip970)" d="M55.506 217.439 L63.1448 217.439 L63.1448 191.073 L54.8347 192.74 L54.8347 188.481 L63.0985 186.814 L67.7744 186.814 L67.7744 217.439 L75.4133 217.439 L75.4133 221.374 L55.506 221.374 L55.506 217.439 Z" fill="#000000" fill-rule="evenodd" fill-opacity="1" /><path clip-path="url(#clip970)" d="M84.8577 215.495 L89.7419 215.495 L89.7419 221.374 L84.8577 221.374 L84.8577 215.495 Z" fill="#000000" fill-rule="evenodd" fill-opacity="1" /><path clip-path="url(#clip970)" d="M103.955 217.439 L120.274 217.439 L120.274 221.374 L98.3298 221.374 L98.3298 217.439 Q100.992 214.684 105.575 210.055 Q110.182 205.402 111.362 204.059 Q113.608 201.536 114.487 199.8 Q115.39 198.041 115.39 196.351 Q115.39 193.596 113.445 191.86 Q111.524 190.124 108.422 190.124 Q106.223 190.124 103.77 190.888 Q101.339 191.652 98.5613 193.203 L98.5613 188.481 Q101.385 187.347 103.839 186.768 Q106.293 186.189 108.33 186.189 Q113.7 186.189 116.895 188.874 Q120.089 191.559 120.089 196.05 Q120.089 198.18 119.279 200.101 Q118.492 201.999 116.385 204.592 Q115.807 205.263 112.705 208.481 Q109.603 211.675 103.955 217.439 Z" fill="#000000" fill-rule="evenodd" fill-opacity="1" /><polyline clip-path="url(#clip972)" style="stroke:#009af9; stroke-linecap:round; stroke-linejoin:round; stroke-width:16; stroke-opacity:1; fill:none" stroke-dasharray="8, 16" points="218.439,1135.94 228.852,1129.16 239.264,1119.17 249.677,1106.17 260.09,1091.84 270.503,1080.33 280.916,1079.01 291.329,1096.61 301.741,1136.37 312.154,1187.87 322.567,1229.83 332.98,1248.73 343.393,1253.27 353.805,1264.15 364.218,1291.94 374.631,1330.54 385.044,1368.35 395.457,1398.36 405.87,1419.15 416.282,1431.88 426.695,1438.31 437.108,1440.05 447.521,1438.19 457.934,1433.02 468.347,1424 478.759,1410.09 489.172,1390.3 499.585,1364.39 509.998,1333.3 520.411,1299.14 530.824,1264.56 541.236,1231.85 551.649,1202.24 562.062,1175.84 572.475,1152.18 582.888,1130.99 593.301,1112.69 603.713,1098.43 614.126,1089.64 624.539,1087.47 634.952,1092.3 645.365,1103.69 655.777,1120.53 666.19,1141.37 676.603,1164.87 687.016,1190.27 697.429,1217.6 707.842,1247.53 718.254,1280.65 728.667,1316.36 739.08,1351.92 749.493,1382.46 759.906,1403.33 770.319,1414.1 780.731,1420.04 791.144,1427.45 801.557,1436.7 811.97,1441.44 822.383,1435.82 832.796,1420.71 843.208,1400.74 853.621,1378.63 864.034,1354.67 874.447,1328.46 884.86,1298.56 895.273,1260.81 905.685,1211.47 916.098,1161.27 926.511,1136.93 936.924,1144.75 947.337,1155.77 957.749,1145.86 968.162,1118.76 978.575,1093.1 988.988,1087.84 999.401,1110.37 1009.81,1138.97 1020.23,1132.64 1030.64,1158.97 1041.05,1237.13 1051.46,1252.91 1061.88,1241.29 1072.29,1226.31 1082.7,1220.24 1093.12,1247.5 1103.53,1340.32 1113.94,1377.57 1124.35,1365.2 1134.77,1388.95 1145.18,1430.77 1155.59,1445.72 1166.01,1443.52 1176.42,1436.39 1186.83,1428.51 1197.24,1421.75 1207.66,1417.34 1218.07,1410.65 1228.48,1375.41 1238.9,1246.5 1249.31,972.045 1259.72,640.582 1270.13,424.353 1280.55,367.601 1290.96,389.551 1301.37,412.22 1311.79,408.003 1322.2,388.433 1332.61,378.075 1343.02,381.264 1353.44,376.355 1363.85,351.618 1374.26,317.451 1384.68,292.918 1395.09,314.511 1405.5,420.716 1415.91,523.142 1426.33,409.602 1436.74,390.894 1447.15,431.664 1457.57,461.354 1467.98,476.123 1478.39,411.127 1488.8,321.016 1499.22,316.794 1509.63,354.071 1520.04,380.979 1530.45,396.356 1540.87,406.198 1551.28,417.985 1561.69,433.85 1572.11,437.434 1582.52,408.732 1592.93,356.025 1603.34,309.509 1613.76,292.057 1624.17,307.701 1634.58,345.924 1645,391.844 1655.41,433.072 1665.82,461.486 1676.23,472.492 1686.65,463.89 1697.06,435.673 1707.47,391.176 1717.89,338.762 1728.3,291.703 1738.71,264.647 1749.12,268.645 1759.54,308.12 1769.95,379.017 1780.36,464.624 1790.78,532.818 1801.19,548.832 1811.6,503.849 1822.01,422.726 1832.43,337.008 1842.84,267.16 1853.25,228.415 1863.67,234.766 1874.08,289.969 1884.49,377.364 1894.9,466.01 1905.32,528.82 1915.73,552.16 1926.14,533.149 1936.56,475.794 1946.97,391.678 1957.38,301.78 1967.79,232.982 1978.21,207.85 1988.62,234.616 1999.03,304.884 2009.45,398.941 2019.86,493.347 2030.27,566.691 2040.68,602.202 2051.1,587.877 2061.51,516.68 2071.92,391.561 2082.33,238.353 2092.75,115.001 2103.16,87.9763 2113.57,177.38 2123.99,335.206 2134.4,489.425 2144.81,593.253 2155.22,630.373 2165.64,599.03 2176.05,506.974 2186.46,379.653 2196.88,260.838 2207.29,190.876 2217.7,183.356 2228.11,225.54 2238.53,294.791 2248.94,371.746 2259.35,444.439 2269.77,507.201 2280.18,558.35 2290.59,598.363 "/>
<polyline clip-path="url(#clip972)" style="stroke:#e26f46; stroke-linecap:round; stroke-linejoin:round; stroke-width:4; stroke-opacity:1; fill:none" points="218.439,1134.13 228.852,1115.25 239.264,1101.33 249.677,1092.82 260.09,1090.01 270.503,1092.98 280.916,1101.63 291.329,1115.69 301.741,1134.69 312.154,1158.01 322.567,1184.9 332.98,1214.48 343.393,1245.77 353.805,1277.77 364.218,1309.42 374.631,1339.69 385.044,1367.59 395.457,1392.22 405.87,1412.77 416.282,1428.56 426.695,1439.09 437.108,1444.01 447.521,1443.16 457.934,1436.57 468.347,1424.44 478.759,1407.19 489.172,1385.36 499.585,1359.68 509.998,1330.98 520.411,1300.2 530.824,1268.34 541.236,1236.44 551.649,1205.55 562.062,1176.67 572.475,1150.74 582.888,1128.62 593.301,1111.01 603.713,1098.51 614.126,1091.5 624.539,1090.24 634.952,1094.74 645.365,1104.88 655.777,1120.31 666.19,1140.54 676.603,1164.9 687.016,1192.6 697.429,1222.73 707.842,1254.32 718.254,1286.32 728.667,1317.7 739.08,1347.43 749.493,1374.55 759.906,1398.16 770.319,1417.49 780.731,1431.92 791.144,1440.97 801.557,1444.35 811.97,1441.95 822.383,1433.85 832.796,1420.3 843.208,1401.76 853.621,1378.83 864.034,1352.25 874.447,1322.9 884.86,1291.73 895.273,1259.75 905.685,1228.03 916.098,1197.57 926.511,1169.4 936.924,1144.41 947.337,1123.43 957.749,1107.14 968.162,1096.08 978.575,1090.6 988.988,1090.88 999.401,1096.92 1009.81,1108.51 1020.23,1125.29 1030.64,1146.69 1041.05,1172.03 1051.46,1200.48 1061.88,1231.1 1072.29,1262.9 1082.7,1294.84 1093.12,1325.87 1103.53,1355 1113.94,1381.25 1124.35,1403.78 1134.77,1421.86 1145.18,1434.89 1155.59,1442.44 1166.01,1444.28 1176.42,1440.33 1186.83,1430.74 1197.24,1415.8 1207.66,1396.02 1218.07,1372.03 1228.48,1344.62 1238.9,1314.68 1249.31,1283.2 1259.72,379.99 1270.13,378.526 1280.55,379.859 1290.96,384.295 1301.37,390.475 1311.79,395.788 1322.2,397.361 1332.61,393.273 1343.02,383.528 1353.44,370.391 1363.85,357.889 1374.26,350.586 1384.68,351.987 1395.09,363.13 1405.5,381.872 1415.91,403.202 1426.33,420.571 1436.74,427.898 1447.15,421.626 1457.57,402.166 1467.98,374.176 1478.39,345.49 1488.8,324.931 1499.22,319.605 1509.63,332.516 1520.04,361.28 1530.45,398.428 1540.87,433.324 1551.28,455.21 1561.69,456.506 1572.11,435.362 1582.52,396.612 1592.93,350.742 1603.34,311.064 1613.76,289.854 1624.17,294.57 1634.58,325.321 1645,374.412 1655.41,428.228 1665.82,471.006 1676.23,489.449 1686.65,476.837 1697.06,435.365 1707.47,375.923 1717.89,315.263 1728.3,271.28 1738.71,257.735 1749.12,279.977 1759.54,332.993 1769.95,402.444 1780.36,468.536 1790.78,511.655 1801.19,518.187 1811.6,484.776 1822.01,419.719 1832.43,340.954 1842.84,271.121 1853.25,231.06 1863.67,233.592 1874.08,279.468 1884.49,356.72 1894.9,443.756 1905.32,515.389 1915.73,550.123 1926.14,536.597 1936.56,477.242 1946.97,388.001 1957.38,294.071 1967.79,222.786 1978.21,195.671 1988.62,221.948 1999.03,295.484 2009.45,396.14 2019.86,495.275 2030.27,563.896 2040.68,581.132 2051.1,540.565 2061.51,452.493 2071.92,341.365 2082.33,238.998 2092.75,175.471 2103.16,170.289 2113.57,226.42 2123.99,329.017 2134.4,449.314 2144.81,552.69 2155.22,608.628 2165.64,599.722 2176.05,527.058 2186.46,410.328 2196.88,282.51 2207.29,180.558 2217.7,134.714 2228.11,159.549 2238.53,249.374 2248.94,379.458 2259.35,512.822 2269.77,610.757 2280.18,644.048 2290.59,601.686 "/>
<path clip-path="url(#clip970)" d="M229.49 250.738 L675.966 250.738 L675.966 95.2176 L229.49 95.2176  Z" fill="#ffffff" fill-rule="evenodd" fill-opacity="1"/>
<polyline clip-path="url(#clip970)" style="stroke:#000000; stroke-linecap:round; stroke-linejoin:round; stroke-width:4; stroke-opacity:1; fill:none" points="229.49,250.738 675.966,250.738 675.966,95.2176 229.49,95.2176 229.49,250.738 "/>
<polyline clip-path="url(#clip970)" style="stroke:#009af9; stroke-linecap:round; stroke-linejoin:round; stroke-width:16; stroke-opacity:1; fill:none" stroke-dasharray="8, 16" points="253.896,147.058 400.328,147.058 "/>
<path clip-path="url(#clip970)" d="M429.409 133.62 L429.409 146.606 L435.289 146.606 Q438.552 146.606 440.335 144.916 Q442.117 143.227 442.117 140.102 Q442.117 137 440.335 135.31 Q438.552 133.62 435.289 133.62 L429.409 133.62 M424.733 129.778 L435.289 129.778 Q441.099 129.778 444.062 132.416 Q447.048 135.032 447.048 140.102 Q447.048 145.217 444.062 147.833 Q441.099 150.449 435.289 150.449 L429.409 150.449 L429.409 164.338 L424.733 164.338 L424.733 129.778 Z" fill="#000000" fill-rule="evenodd" fill-opacity="1" /><path clip-path="url(#clip970)" d="M467.325 142.393 Q466.608 141.977 465.751 141.791 Q464.918 141.583 463.899 141.583 Q460.288 141.583 458.344 143.944 Q456.423 146.282 456.423 150.68 L456.423 164.338 L452.14 164.338 L452.14 138.412 L456.423 138.412 L456.423 142.44 Q457.765 140.078 459.918 138.944 Q462.071 137.787 465.149 137.787 Q465.589 137.787 466.122 137.856 Q466.654 137.903 467.302 138.018 L467.325 142.393 Z" fill="#000000" fill-rule="evenodd" fill-opacity="1" /><path clip-path="url(#clip970)" d="M492.927 150.31 L492.927 152.393 L473.344 152.393 Q473.622 156.791 475.983 159.106 Q478.367 161.398 482.603 161.398 Q485.057 161.398 487.348 160.796 Q489.663 160.194 491.932 158.99 L491.932 163.018 Q489.64 163.99 487.233 164.5 Q484.825 165.009 482.348 165.009 Q476.145 165.009 472.511 161.398 Q468.899 157.787 468.899 151.629 Q468.899 145.264 472.325 141.537 Q475.774 137.787 481.608 137.787 Q486.839 137.787 489.872 141.166 Q492.927 144.523 492.927 150.31 M488.668 149.06 Q488.622 145.565 486.7 143.481 Q484.802 141.398 481.654 141.398 Q478.089 141.398 475.936 143.412 Q473.807 145.426 473.483 149.083 L488.668 149.06 Z" fill="#000000" fill-rule="evenodd" fill-opacity="1" /><path clip-path="url(#clip970)" d="M516.978 142.347 L516.978 128.319 L521.237 128.319 L521.237 164.338 L516.978 164.338 L516.978 160.449 Q515.635 162.763 513.575 163.898 Q511.538 165.009 508.668 165.009 Q503.969 165.009 501.006 161.259 Q498.066 157.509 498.066 151.398 Q498.066 145.287 501.006 141.537 Q503.969 137.787 508.668 137.787 Q511.538 137.787 513.575 138.921 Q515.635 140.032 516.978 142.347 M502.464 151.398 Q502.464 156.097 504.385 158.782 Q506.33 161.444 509.709 161.444 Q513.089 161.444 515.033 158.782 Q516.978 156.097 516.978 151.398 Q516.978 146.699 515.033 144.037 Q513.089 141.352 509.709 141.352 Q506.33 141.352 504.385 144.037 Q502.464 146.699 502.464 151.398 Z" fill="#000000" fill-rule="evenodd" fill-opacity="1" /><path clip-path="url(#clip970)" d="M530.01 138.412 L534.269 138.412 L534.269 164.338 L530.01 164.338 L530.01 138.412 M530.01 128.319 L534.269 128.319 L534.269 133.713 L530.01 133.713 L530.01 128.319 Z" fill="#000000" fill-rule="evenodd" fill-opacity="1" /><path clip-path="url(#clip970)" d="M561.839 139.407 L561.839 143.389 Q560.033 142.393 558.205 141.907 Q556.399 141.398 554.547 141.398 Q550.404 141.398 548.112 144.037 Q545.82 146.652 545.82 151.398 Q545.82 156.143 548.112 158.782 Q550.404 161.398 554.547 161.398 Q556.399 161.398 558.205 160.912 Q560.033 160.402 561.839 159.407 L561.839 163.342 Q560.056 164.176 558.135 164.592 Q556.237 165.009 554.084 165.009 Q548.228 165.009 544.779 161.328 Q541.33 157.648 541.33 151.398 Q541.33 145.055 544.802 141.421 Q548.297 137.787 554.362 137.787 Q556.33 137.787 558.205 138.203 Q560.08 138.597 561.839 139.407 Z" fill="#000000" fill-rule="evenodd" fill-opacity="1" /><path clip-path="url(#clip970)" d="M573.459 131.051 L573.459 138.412 L582.232 138.412 L582.232 141.722 L573.459 141.722 L573.459 155.796 Q573.459 158.967 574.316 159.87 Q575.195 160.773 577.857 160.773 L582.232 160.773 L582.232 164.338 L577.857 164.338 Q572.927 164.338 571.052 162.509 Q569.177 160.657 569.177 155.796 L569.177 141.722 L566.052 141.722 L566.052 138.412 L569.177 138.412 L569.177 131.051 L573.459 131.051 Z" fill="#000000" fill-rule="evenodd" fill-opacity="1" /><path clip-path="url(#clip970)" d="M587.834 138.412 L592.093 138.412 L592.093 164.338 L587.834 164.338 L587.834 138.412 M587.834 128.319 L592.093 128.319 L592.093 133.713 L587.834 133.713 L587.834 128.319 Z" fill="#000000" fill-rule="evenodd" fill-opacity="1" /><path clip-path="url(#clip970)" d="M611.051 141.398 Q607.626 141.398 605.635 144.083 Q603.644 146.745 603.644 151.398 Q603.644 156.051 605.612 158.736 Q607.602 161.398 611.051 161.398 Q614.454 161.398 616.445 158.713 Q618.436 156.027 618.436 151.398 Q618.436 146.791 616.445 144.106 Q614.454 141.398 611.051 141.398 M611.051 137.787 Q616.607 137.787 619.778 141.398 Q622.95 145.009 622.95 151.398 Q622.95 157.764 619.778 161.398 Q616.607 165.009 611.051 165.009 Q605.473 165.009 602.302 161.398 Q599.153 157.764 599.153 151.398 Q599.153 145.009 602.302 141.398 Q605.473 137.787 611.051 137.787 Z" fill="#000000" fill-rule="evenodd" fill-opacity="1" /><path clip-path="url(#clip970)" d="M651.561 148.689 L651.561 164.338 L647.301 164.338 L647.301 148.828 Q647.301 145.148 645.866 143.319 Q644.431 141.49 641.561 141.49 Q638.112 141.49 636.121 143.69 Q634.13 145.889 634.13 149.685 L634.13 164.338 L629.848 164.338 L629.848 138.412 L634.13 138.412 L634.13 142.44 Q635.658 140.102 637.718 138.944 Q639.801 137.787 642.51 137.787 Q646.977 137.787 649.269 140.565 Q651.561 143.319 651.561 148.689 Z" fill="#000000" fill-rule="evenodd" fill-opacity="1" /><polyline clip-path="url(#clip970)" style="stroke:#e26f46; stroke-linecap:round; stroke-linejoin:round; stroke-width:4; stroke-opacity:1; fill:none" points="253.896,198.898 400.328,198.898 "/>
<path clip-path="url(#clip970)" d="M424.733 181.618 L446.585 181.618 L446.585 185.553 L429.409 185.553 L429.409 195.784 L445.867 195.784 L445.867 199.719 L429.409 199.719 L429.409 212.242 L447.001 212.242 L447.001 216.178 L424.733 216.178 L424.733 181.618 Z" fill="#000000" fill-rule="evenodd" fill-opacity="1" /><path clip-path="url(#clip970)" d="M476.052 190.252 L466.677 202.867 L476.538 216.178 L471.515 216.178 L463.969 205.992 L456.423 216.178 L451.4 216.178 L461.469 202.613 L452.256 190.252 L457.279 190.252 L464.154 199.488 L471.029 190.252 L476.052 190.252 Z" fill="#000000" fill-rule="evenodd" fill-opacity="1" /><path clip-path="url(#clip970)" d="M494.339 203.145 Q489.177 203.145 487.186 204.326 Q485.196 205.506 485.196 208.354 Q485.196 210.622 486.677 211.965 Q488.182 213.284 490.751 213.284 Q494.293 213.284 496.422 210.784 Q498.575 208.261 498.575 204.094 L498.575 203.145 L494.339 203.145 M502.834 201.386 L502.834 216.178 L498.575 216.178 L498.575 212.242 Q497.117 214.603 494.941 215.738 Q492.765 216.849 489.617 216.849 Q485.635 216.849 483.274 214.627 Q480.936 212.381 480.936 208.631 Q480.936 204.256 483.853 202.034 Q486.793 199.812 492.603 199.812 L498.575 199.812 L498.575 199.395 Q498.575 196.455 496.631 194.858 Q494.71 193.238 491.214 193.238 Q488.992 193.238 486.885 193.77 Q484.779 194.303 482.835 195.367 L482.835 191.432 Q485.173 190.53 487.372 190.09 Q489.571 189.627 491.654 189.627 Q497.279 189.627 500.057 192.543 Q502.834 195.46 502.834 201.386 Z" fill="#000000" fill-rule="evenodd" fill-opacity="1" /><path clip-path="url(#clip970)" d="M530.265 191.247 L530.265 195.229 Q528.459 194.233 526.631 193.747 Q524.825 193.238 522.973 193.238 Q518.83 193.238 516.538 195.877 Q514.246 198.492 514.246 203.238 Q514.246 207.983 516.538 210.622 Q518.83 213.238 522.973 213.238 Q524.825 213.238 526.631 212.752 Q528.459 212.242 530.265 211.247 L530.265 215.182 Q528.482 216.016 526.561 216.432 Q524.663 216.849 522.51 216.849 Q516.654 216.849 513.205 213.168 Q509.756 209.488 509.756 203.238 Q509.756 196.895 513.228 193.261 Q516.723 189.627 522.788 189.627 Q524.756 189.627 526.631 190.043 Q528.506 190.437 530.265 191.247 Z" fill="#000000" fill-rule="evenodd" fill-opacity="1" /><path clip-path="url(#clip970)" d="M541.885 182.891 L541.885 190.252 L550.658 190.252 L550.658 193.562 L541.885 193.562 L541.885 207.636 Q541.885 210.807 542.742 211.71 Q543.621 212.613 546.283 212.613 L550.658 212.613 L550.658 216.178 L546.283 216.178 Q541.353 216.178 539.478 214.349 Q537.603 212.497 537.603 207.636 L537.603 193.562 L534.478 193.562 L534.478 190.252 L537.603 190.252 L537.603 182.891 L541.885 182.891 Z" fill="#000000" fill-rule="evenodd" fill-opacity="1" /></svg>
