<?xml version="1.0" encoding="utf-8"?>
<svg xmlns="http://www.w3.org/2000/svg" xmlns:xlink="http://www.w3.org/1999/xlink" width="600" height="400" viewBox="0 0 2400 1600">
<defs>
  <clipPath id="clip130">
    <rect x="0" y="0" width="2400" height="1600"/>
  </clipPath>
</defs>
<path clip-path="url(#clip130)" d="M0 1600 L2400 1600 L2400 0 L0 0  Z" fill="#ffffff" fill-rule="evenodd" fill-opacity="1"/>
<defs>
  <clipPath id="clip131">
    <rect x="480" y="0" width="1681" height="1600"/>
  </clipPath>
</defs>
<path clip-path="url(#clip130)" d="M192.339 1486.45 L2352.76 1486.45 L2352.76 47.2441 L192.339 47.2441  Z" fill="#ffffff" fill-rule="evenodd" fill-opacity="1"/>
<defs>
  <clipPath id="clip132">
    <rect x="192" y="47" width="2161" height="1440"/>
  </clipPath>
</defs>
<polyline clip-path="url(#clip132)" style="stroke:#000000; stroke-linecap:round; stroke-linejoin:round; stroke-width:2; stroke-opacity:0.1; fill:none" points="253.483,1486.45 253.483,47.2441 "/>
<polyline clip-path="url(#clip132)" style="stroke:#000000; stroke-linecap:round; stroke-linejoin:round; stroke-width:2; stroke-opacity:0.1; fill:none" points="763.015,1486.45 763.015,47.2441 "/>
<polyline clip-path="url(#clip132)" style="stroke:#000000; stroke-linecap:round; stroke-linejoin:round; stroke-width:2; stroke-opacity:0.1; fill:none" points="1272.55,1486.45 1272.55,47.2441 "/>
<polyline clip-path="url(#clip132)" style="stroke:#000000; stroke-linecap:round; stroke-linejoin:round; stroke-width:2; stroke-opacity:0.1; fill:none" points="1782.08,1486.45 1782.08,47.2441 "/>
<polyline clip-path="url(#clip132)" style="stroke:#000000; stroke-linecap:round; stroke-linejoin:round; stroke-width:2; stroke-opacity:0.1; fill:none" points="2291.61,1486.45 2291.61,47.2441 "/>
<polyline clip-path="url(#clip130)" style="stroke:#000000; stroke-linecap:round; stroke-linejoin:round; stroke-width:4; stroke-opacity:1; fill:none" points="192.339,1486.45 2352.76,1486.45 "/>
<polyline clip-path="url(#clip130)" style="stroke:#000000; stroke-linecap:round; stroke-linejoin:round; stroke-width:4; stroke-opacity:1; fill:none" points="253.483,1486.45 253.483,1467.55 "/>
<polyline clip-path="url(#clip130)" style="stroke:#000000; stroke-linecap:round; stroke-linejoin:round; stroke-width:4; stroke-opacity:1; fill:none" points="763.015,1486.45 763.015,1467.55 "/>
<polyline clip-path="url(#clip130)" style="stroke:#000000; stroke-linecap:round; stroke-linejoin:round; stroke-width:4; stroke-opacity:1; fill:none" points="1272.55,1486.45 1272.55,1467.55 "/>
<polyline clip-path="url(#clip130)" style="stroke:#000000; stroke-linecap:round; stroke-linejoin:round; stroke-width:4; stroke-opacity:1; fill:none" points="1782.08,1486.45 1782.08,1467.55 "/>
<polyline clip-path="url(#clip130)" style="stroke:#000000; stroke-linecap:round; stroke-linejoin:round; stroke-width:4; stroke-opacity:1; fill:none" points="2291.61,1486.45 2291.61,1467.55 "/>
<path clip-path="url(#clip130)" d="M200.011 1532.02 L229.686 1532.02 L229.686 1535.95 L200.011 1535.95 L200.011 1532.02 Z" fill="#000000" fill-rule="nonzero" fill-opacity="1" /><path clip-path="url(#clip130)" d="M240.589 1544.91 L248.228 1544.91 L248.228 1518.55 L239.918 1520.21 L239.918 1515.95 L248.182 1514.29 L252.858 1514.29 L252.858 1544.91 L260.497 1544.91 L260.497 1548.85 L240.589 1548.85 L240.589 1544.91 Z" fill="#000000" fill-rule="nonzero" fill-opacity="1" /><path clip-path="url(#clip130)" d="M269.941 1542.97 L274.825 1542.97 L274.825 1548.85 L269.941 1548.85 L269.941 1542.97 Z" fill="#000000" fill-rule="nonzero" fill-opacity="1" /><path clip-path="url(#clip130)" d="M295.01 1517.37 Q291.399 1517.37 289.57 1520.93 Q287.765 1524.47 287.765 1531.6 Q287.765 1538.71 289.57 1542.27 Q291.399 1545.82 295.01 1545.82 Q298.644 1545.82 300.45 1542.27 Q302.279 1538.71 302.279 1531.6 Q302.279 1524.47 300.45 1520.93 Q298.644 1517.37 295.01 1517.37 M295.01 1513.66 Q300.82 1513.66 303.876 1518.27 Q306.955 1522.85 306.955 1531.6 Q306.955 1540.33 303.876 1544.94 Q300.82 1549.52 295.01 1549.52 Q289.2 1549.52 286.121 1544.94 Q283.066 1540.33 283.066 1531.6 Q283.066 1522.85 286.121 1518.27 Q289.2 1513.66 295.01 1513.66 Z" fill="#000000" fill-rule="nonzero" fill-opacity="1" /><path clip-path="url(#clip130)" d="M710.041 1532.02 L739.717 1532.02 L739.717 1535.95 L710.041 1535.95 L710.041 1532.02 Z" fill="#000000" fill-rule="nonzero" fill-opacity="1" /><path clip-path="url(#clip130)" d="M759.809 1517.37 Q756.198 1517.37 754.369 1520.93 Q752.564 1524.47 752.564 1531.6 Q752.564 1538.71 754.369 1542.27 Q756.198 1545.82 759.809 1545.82 Q763.443 1545.82 765.249 1542.27 Q767.077 1538.71 767.077 1531.6 Q767.077 1524.47 765.249 1520.93 Q763.443 1517.37 759.809 1517.37 M759.809 1513.66 Q765.619 1513.66 768.675 1518.27 Q771.753 1522.85 771.753 1531.6 Q771.753 1540.33 768.675 1544.94 Q765.619 1549.52 759.809 1549.52 Q753.999 1549.52 750.92 1544.94 Q747.865 1540.33 747.865 1531.6 Q747.865 1522.85 750.92 1518.27 Q753.999 1513.66 759.809 1513.66 Z" fill="#000000" fill-rule="nonzero" fill-opacity="1" /><path clip-path="url(#clip130)" d="M779.971 1542.97 L784.855 1542.97 L784.855 1548.85 L779.971 1548.85 L779.971 1542.97 Z" fill="#000000" fill-rule="nonzero" fill-opacity="1" /><path clip-path="url(#clip130)" d="M795.087 1514.29 L813.443 1514.29 L813.443 1518.22 L799.369 1518.22 L799.369 1526.7 Q800.387 1526.35 801.406 1526.19 Q802.425 1526 803.443 1526 Q809.23 1526 812.61 1529.17 Q815.989 1532.34 815.989 1537.76 Q815.989 1543.34 812.517 1546.44 Q809.045 1549.52 802.725 1549.52 Q800.55 1549.52 798.281 1549.15 Q796.036 1548.78 793.628 1548.04 L793.628 1543.34 Q795.712 1544.47 797.934 1545.03 Q800.156 1545.58 802.633 1545.58 Q806.637 1545.58 808.975 1543.48 Q811.313 1541.37 811.313 1537.76 Q811.313 1534.15 808.975 1532.04 Q806.637 1529.94 802.633 1529.94 Q800.758 1529.94 798.883 1530.35 Q797.031 1530.77 795.087 1531.65 L795.087 1514.29 Z" fill="#000000" fill-rule="nonzero" fill-opacity="1" /><path clip-path="url(#clip130)" d="M1249.93 1517.37 Q1246.32 1517.37 1244.49 1520.93 Q1242.69 1524.47 1242.69 1531.6 Q1242.69 1538.71 1244.49 1542.27 Q1246.32 1545.82 1249.93 1545.82 Q1253.57 1545.82 1255.37 1542.27 Q1257.2 1538.71 1257.2 1531.6 Q1257.2 1524.47 1255.37 1520.93 Q1253.57 1517.37 1249.93 1517.37 M1249.93 1513.66 Q1255.74 1513.66 1258.8 1518.27 Q1261.88 1522.85 1261.88 1531.6 Q1261.88 1540.33 1258.8 1544.94 Q1255.74 1549.52 1249.93 1549.52 Q1244.12 1549.52 1241.04 1544.94 Q1237.99 1540.33 1237.99 1531.6 Q1237.99 1522.85 1241.04 1518.27 Q1244.12 1513.66 1249.93 1513.66 Z" fill="#000000" fill-rule="nonzero" fill-opacity="1" /><path clip-path="url(#clip130)" d="M1270.09 1542.97 L1274.98 1542.97 L1274.98 1548.85 L1270.09 1548.85 L1270.09 1542.97 Z" fill="#000000" fill-rule="nonzero" fill-opacity="1" /><path clip-path="url(#clip130)" d="M1295.16 1517.37 Q1291.55 1517.37 1289.72 1520.93 Q1287.92 1524.47 1287.92 1531.6 Q1287.92 1538.71 1289.72 1542.27 Q1291.55 1545.82 1295.16 1545.82 Q1298.8 1545.82 1300.6 1542.27 Q1302.43 1538.71 1302.43 1531.6 Q1302.43 1524.47 1300.6 1520.93 Q1298.8 1517.37 1295.16 1517.37 M1295.16 1513.66 Q1300.97 1513.66 1304.03 1518.27 Q1307.11 1522.85 1307.11 1531.6 Q1307.11 1540.33 1304.03 1544.94 Q1300.97 1549.52 1295.16 1549.52 Q1289.35 1549.52 1286.27 1544.94 Q1283.22 1540.33 1283.22 1531.6 Q1283.22 1522.85 1286.27 1518.27 Q1289.35 1513.66 1295.16 1513.66 Z" fill="#000000" fill-rule="nonzero" fill-opacity="1" /><path clip-path="url(#clip130)" d="M1759.96 1517.37 Q1756.35 1517.37 1754.52 1520.93 Q1752.72 1524.47 1752.72 1531.6 Q1752.72 1538.71 1754.52 1542.27 Q1756.35 1545.82 1759.96 1545.82 Q1763.6 1545.82 1765.4 1542.27 Q1767.23 1538.71 1767.23 1531.6 Q1767.23 1524.47 1765.4 1520.93 Q1763.6 1517.37 1759.96 1517.37 M1759.96 1513.66 Q1765.77 1513.66 1768.83 1518.27 Q1771.91 1522.85 1771.91 1531.6 Q1771.91 1540.33 1768.83 1544.94 Q1765.77 1549.52 1759.96 1549.52 Q1754.15 1549.52 1751.07 1544.94 Q1748.02 1540.33 1748.02 1531.6 Q1748.02 1522.85 1751.07 1518.27 Q1754.15 1513.66 1759.96 1513.66 Z" fill="#000000" fill-rule="nonzero" fill-opacity="1" /><path clip-path="url(#clip130)" d="M1780.12 1542.97 L1785.01 1542.97 L1785.01 1548.85 L1780.12 1548.85 L1780.12 1542.97 Z" fill="#000000" fill-rule="nonzero" fill-opacity="1" /><path clip-path="url(#clip130)" d="M1795.24 1514.29 L1813.6 1514.29 L1813.6 1518.22 L1799.52 1518.22 L1799.52 1526.7 Q1800.54 1526.35 1801.56 1526.19 Q1802.58 1526 1803.6 1526 Q1809.38 1526 1812.76 1529.17 Q1816.14 1532.34 1816.14 1537.76 Q1816.14 1543.34 1812.67 1546.44 Q1809.2 1549.52 1802.88 1549.52 Q1800.7 1549.52 1798.43 1549.15 Q1796.19 1548.78 1793.78 1548.04 L1793.78 1543.34 Q1795.86 1544.47 1798.09 1545.03 Q1800.31 1545.58 1802.79 1545.58 Q1806.79 1545.58 1809.13 1543.48 Q1811.47 1541.37 1811.47 1537.76 Q1811.47 1534.15 1809.13 1532.04 Q1806.79 1529.94 1802.79 1529.94 Q1800.91 1529.94 1799.04 1530.35 Q1797.18 1530.77 1795.24 1531.65 L1795.24 1514.29 Z" fill="#000000" fill-rule="nonzero" fill-opacity="1" /><path clip-path="url(#clip130)" d="M2258.76 1544.91 L2266.4 1544.91 L2266.4 1518.55 L2258.09 1520.21 L2258.09 1515.95 L2266.36 1514.29 L2271.03 1514.29 L2271.03 1544.91 L2278.67 1544.91 L2278.67 1548.85 L2258.76 1548.85 L2258.76 1544.91 Z" fill="#000000" fill-rule="nonzero" fill-opacity="1" /><path clip-path="url(#clip130)" d="M2288.12 1542.97 L2293 1542.97 L2293 1548.85 L2288.12 1548.85 L2288.12 1542.97 Z" fill="#000000" fill-rule="nonzero" fill-opacity="1" /><path clip-path="url(#clip130)" d="M2313.19 1517.37 Q2309.57 1517.37 2307.75 1520.93 Q2305.94 1524.47 2305.94 1531.6 Q2305.94 1538.71 2307.75 1542.27 Q2309.57 1545.82 2313.19 1545.82 Q2316.82 1545.82 2318.63 1542.27 Q2320.45 1538.71 2320.45 1531.6 Q2320.45 1524.47 2318.63 1520.93 Q2316.82 1517.37 2313.19 1517.37 M2313.19 1513.66 Q2319 1513.66 2322.05 1518.27 Q2325.13 1522.85 2325.13 1531.6 Q2325.13 1540.33 2322.05 1544.94 Q2319 1549.52 2313.19 1549.52 Q2307.38 1549.52 2304.3 1544.94 Q2301.24 1540.33 2301.24 1531.6 Q2301.24 1522.85 2304.3 1518.27 Q2307.38 1513.66 2313.19 1513.66 Z" fill="#000000" fill-rule="nonzero" fill-opacity="1" /><polyline clip-path="url(#clip132)" style="stroke:#000000; stroke-linecap:round; stroke-linejoin:round; stroke-width:2; stroke-opacity:0.1; fill:none" points="192.339,1340.4 2352.76,1340.4 "/>
<polyline clip-path="url(#clip132)" style="stroke:#000000; stroke-linecap:round; stroke-linejoin:round; stroke-width:2; stroke-opacity:0.1; fill:none" points="192.339,1178.05 2352.76,1178.05 "/>
<polyline clip-path="url(#clip132)" style="stroke:#000000; stroke-linecap:round; stroke-linejoin:round; stroke-width:2; stroke-opacity:0.1; fill:none" points="192.339,1015.69 2352.76,1015.69 "/>
<polyline clip-path="url(#clip132)" style="stroke:#000000; stroke-linecap:round; stroke-linejoin:round; stroke-width:2; stroke-opacity:0.1; fill:none" points="192.339,853.334 2352.76,853.334 "/>
<polyline clip-path="url(#clip132)" style="stroke:#000000; stroke-linecap:round; stroke-linejoin:round; stroke-width:2; stroke-opacity:0.1; fill:none" points="192.339,690.977 2352.76,690.977 "/>
<polyline clip-path="url(#clip132)" style="stroke:#000000; stroke-linecap:round; stroke-linejoin:round; stroke-width:2; stroke-opacity:0.1; fill:none" points="192.339,528.621 2352.76,528.621 "/>
<polyline clip-path="url(#clip132)" style="stroke:#000000; stroke-linecap:round; stroke-linejoin:round; stroke-width:2; stroke-opacity:0.1; fill:none" points="192.339,366.265 2352.76,366.265 "/>
<polyline clip-path="url(#clip132)" style="stroke:#000000; stroke-linecap:round; stroke-linejoin:round; stroke-width:2; stroke-opacity:0.1; fill:none" points="192.339,203.909 2352.76,203.909 "/>
<polyline clip-path="url(#clip130)" style="stroke:#000000; stroke-linecap:round; stroke-linejoin:round; stroke-width:4; stroke-opacity:1; fill:none" points="192.339,1486.45 192.339,47.2441 "/>
<polyline clip-path="url(#clip130)" style="stroke:#000000; stroke-linecap:round; stroke-linejoin:round; stroke-width:4; stroke-opacity:1; fill:none" points="192.339,1340.4 211.236,1340.4 "/>
<polyline clip-path="url(#clip130)" style="stroke:#000000; stroke-linecap:round; stroke-linejoin:round; stroke-width:4; stroke-opacity:1; fill:none" points="192.339,1178.05 211.236,1178.05 "/>
<polyline clip-path="url(#clip130)" style="stroke:#000000; stroke-linecap:round; stroke-linejoin:round; stroke-width:4; stroke-opacity:1; fill:none" points="192.339,1015.69 211.236,1015.69 "/>
<polyline clip-path="url(#clip130)" style="stroke:#000000; stroke-linecap:round; stroke-linejoin:round; stroke-width:4; stroke-opacity:1; fill:none" points="192.339,853.334 211.236,853.334 "/>
<polyline clip-path="url(#clip130)" style="stroke:#000000; stroke-linecap:round; stroke-linejoin:round; stroke-width:4; stroke-opacity:1; fill:none" points="192.339,690.977 211.236,690.977 "/>
<polyline clip-path="url(#clip130)" style="stroke:#000000; stroke-linecap:round; stroke-linejoin:round; stroke-width:4; stroke-opacity:1; fill:none" points="192.339,528.621 211.236,528.621 "/>
<polyline clip-path="url(#clip130)" style="stroke:#000000; stroke-linecap:round; stroke-linejoin:round; stroke-width:4; stroke-opacity:1; fill:none" points="192.339,366.265 211.236,366.265 "/>
<polyline clip-path="url(#clip130)" style="stroke:#000000; stroke-linecap:round; stroke-linejoin:round; stroke-width:4; stroke-opacity:1; fill:none" points="192.339,203.909 211.236,203.909 "/>
<path clip-path="url(#clip130)" d="M50.9921 1340.85 L80.6679 1340.85 L80.6679 1344.79 L50.9921 1344.79 L50.9921 1340.85 Z" fill="#000000" fill-rule="nonzero" fill-opacity="1" /><path clip-path="url(#clip130)" d="M100.76 1326.2 Q97.1493 1326.2 95.3206 1329.77 Q93.515 1333.31 93.515 1340.44 Q93.515 1347.54 95.3206 1351.11 Q97.1493 1354.65 100.76 1354.65 Q104.395 1354.65 106.2 1351.11 Q108.029 1347.54 108.029 1340.44 Q108.029 1333.31 106.2 1329.77 Q104.395 1326.2 100.76 1326.2 M100.76 1322.5 Q106.571 1322.5 109.626 1327.1 Q112.705 1331.69 112.705 1340.44 Q112.705 1349.16 109.626 1353.77 Q106.571 1358.35 100.76 1358.35 Q94.9502 1358.35 91.8715 1353.77 Q88.816 1349.16 88.816 1340.44 Q88.816 1331.69 91.8715 1327.1 Q94.9502 1322.5 100.76 1322.5 Z" fill="#000000" fill-rule="nonzero" fill-opacity="1" /><path clip-path="url(#clip130)" d="M120.922 1351.8 L125.807 1351.8 L125.807 1357.68 L120.922 1357.68 L120.922 1351.8 Z" fill="#000000" fill-rule="nonzero" fill-opacity="1" /><path clip-path="url(#clip130)" d="M140.019 1353.75 L156.339 1353.75 L156.339 1357.68 L134.394 1357.68 L134.394 1353.75 Q137.056 1350.99 141.64 1346.36 Q146.246 1341.71 147.427 1340.37 Q149.672 1337.84 150.552 1336.11 Q151.455 1334.35 151.455 1332.66 Q151.455 1329.9 149.51 1328.17 Q147.589 1326.43 144.487 1326.43 Q142.288 1326.43 139.834 1327.2 Q137.404 1327.96 134.626 1329.51 L134.626 1324.79 Q137.45 1323.65 139.904 1323.08 Q142.357 1322.5 144.394 1322.5 Q149.765 1322.5 152.959 1325.18 Q156.154 1327.87 156.154 1332.36 Q156.154 1334.49 155.343 1336.41 Q154.556 1338.31 152.45 1340.9 Q151.871 1341.57 148.769 1344.79 Q145.668 1347.98 140.019 1353.75 Z" fill="#000000" fill-rule="nonzero" fill-opacity="1" /><path clip-path="url(#clip130)" d="M99.1632 1163.84 Q95.5521 1163.84 93.7234 1167.41 Q91.9178 1170.95 91.9178 1178.08 Q91.9178 1185.19 93.7234 1188.75 Q95.5521 1192.29 99.1632 1192.29 Q102.797 1192.29 104.603 1188.75 Q106.432 1185.19 106.432 1178.08 Q106.432 1170.95 104.603 1167.41 Q102.797 1163.84 99.1632 1163.84 M99.1632 1160.14 Q104.973 1160.14 108.029 1164.75 Q111.108 1169.33 111.108 1178.08 Q111.108 1186.81 108.029 1191.41 Q104.973 1196 99.1632 1196 Q93.353 1196 90.2743 1191.41 Q87.2188 1186.81 87.2188 1178.08 Q87.2188 1169.33 90.2743 1164.75 Q93.353 1160.14 99.1632 1160.14 Z" fill="#000000" fill-rule="nonzero" fill-opacity="1" /><path clip-path="url(#clip130)" d="M119.325 1189.45 L124.209 1189.45 L124.209 1195.33 L119.325 1195.33 L119.325 1189.45 Z" fill="#000000" fill-rule="nonzero" fill-opacity="1" /><path clip-path="url(#clip130)" d="M144.394 1163.84 Q140.783 1163.84 138.955 1167.41 Q137.149 1170.95 137.149 1178.08 Q137.149 1185.19 138.955 1188.75 Q140.783 1192.29 144.394 1192.29 Q148.029 1192.29 149.834 1188.75 Q151.663 1185.19 151.663 1178.08 Q151.663 1170.95 149.834 1167.41 Q148.029 1163.84 144.394 1163.84 M144.394 1160.14 Q150.205 1160.14 153.26 1164.75 Q156.339 1169.33 156.339 1178.08 Q156.339 1186.81 153.26 1191.41 Q150.205 1196 144.394 1196 Q138.584 1196 135.506 1191.41 Q132.45 1186.81 132.45 1178.08 Q132.45 1169.33 135.506 1164.75 Q138.584 1160.14 144.394 1160.14 Z" fill="#000000" fill-rule="nonzero" fill-opacity="1" /><path clip-path="url(#clip130)" d="M100.76 1001.49 Q97.1493 1001.49 95.3206 1005.05 Q93.515 1008.6 93.515 1015.72 Q93.515 1022.83 95.3206 1026.4 Q97.1493 1029.94 100.76 1029.94 Q104.395 1029.94 106.2 1026.4 Q108.029 1022.83 108.029 1015.72 Q108.029 1008.6 106.2 1005.05 Q104.395 1001.49 100.76 1001.49 M100.76 997.785 Q106.571 997.785 109.626 1002.39 Q112.705 1006.97 112.705 1015.72 Q112.705 1024.45 109.626 1029.06 Q106.571 1033.64 100.76 1033.64 Q94.9502 1033.64 91.8715 1029.06 Q88.816 1024.45 88.816 1015.72 Q88.816 1006.97 91.8715 1002.39 Q94.9502 997.785 100.76 997.785 Z" fill="#000000" fill-rule="nonzero" fill-opacity="1" /><path clip-path="url(#clip130)" d="M120.922 1027.09 L125.807 1027.09 L125.807 1032.97 L120.922 1032.97 L120.922 1027.09 Z" fill="#000000" fill-rule="nonzero" fill-opacity="1" /><path clip-path="url(#clip130)" d="M140.019 1029.03 L156.339 1029.03 L156.339 1032.97 L134.394 1032.97 L134.394 1029.03 Q137.056 1026.28 141.64 1021.65 Q146.246 1017 147.427 1015.66 Q149.672 1013.13 150.552 1011.4 Q151.455 1009.64 151.455 1007.95 Q151.455 1005.19 149.51 1003.46 Q147.589 1001.72 144.487 1001.72 Q142.288 1001.72 139.834 1002.48 Q137.404 1003.25 134.626 1004.8 L134.626 1000.08 Q137.45 998.942 139.904 998.364 Q142.357 997.785 144.394 997.785 Q149.765 997.785 152.959 1000.47 Q156.154 1003.16 156.154 1007.65 Q156.154 1009.78 155.343 1011.7 Q154.556 1013.6 152.45 1016.19 Q151.871 1016.86 148.769 1020.08 Q145.668 1023.27 140.019 1029.03 Z" fill="#000000" fill-rule="nonzero" fill-opacity="1" /><path clip-path="url(#clip130)" d="M98.6771 839.132 Q95.066 839.132 93.2373 842.697 Q91.4317 846.239 91.4317 853.368 Q91.4317 860.475 93.2373 864.04 Q95.066 867.581 98.6771 867.581 Q102.311 867.581 104.117 864.04 Q105.946 860.475 105.946 853.368 Q105.946 846.239 104.117 842.697 Q102.311 839.132 98.6771 839.132 M98.6771 835.429 Q104.487 835.429 107.543 840.035 Q110.621 844.618 110.621 853.368 Q110.621 862.095 107.543 866.702 Q104.487 871.285 98.6771 871.285 Q92.8669 871.285 89.7882 866.702 Q86.7327 862.095 86.7327 853.368 Q86.7327 844.618 89.7882 840.035 Q92.8669 835.429 98.6771 835.429 Z" fill="#000000" fill-rule="nonzero" fill-opacity="1" /><path clip-path="url(#clip130)" d="M118.839 864.734 L123.723 864.734 L123.723 870.614 L118.839 870.614 L118.839 864.734 Z" fill="#000000" fill-rule="nonzero" fill-opacity="1" /><path clip-path="url(#clip130)" d="M146.756 840.128 L134.95 858.577 L146.756 858.577 L146.756 840.128 M145.529 836.054 L151.408 836.054 L151.408 858.577 L156.339 858.577 L156.339 862.466 L151.408 862.466 L151.408 870.614 L146.756 870.614 L146.756 862.466 L131.154 862.466 L131.154 857.952 L145.529 836.054 Z" fill="#000000" fill-rule="nonzero" fill-opacity="1" /><path clip-path="url(#clip130)" d="M99.0011 676.776 Q95.39 676.776 93.5613 680.341 Q91.7558 683.883 91.7558 691.012 Q91.7558 698.119 93.5613 701.683 Q95.39 705.225 99.0011 705.225 Q102.635 705.225 104.441 701.683 Q106.27 698.119 106.27 691.012 Q106.27 683.883 104.441 680.341 Q102.635 676.776 99.0011 676.776 M99.0011 673.072 Q104.811 673.072 107.867 677.679 Q110.946 682.262 110.946 691.012 Q110.946 699.739 107.867 704.345 Q104.811 708.929 99.0011 708.929 Q93.191 708.929 90.1123 704.345 Q87.0567 699.739 87.0567 691.012 Q87.0567 682.262 90.1123 677.679 Q93.191 673.072 99.0011 673.072 Z" fill="#000000" fill-rule="nonzero" fill-opacity="1" /><path clip-path="url(#clip130)" d="M119.163 702.378 L124.047 702.378 L124.047 708.257 L119.163 708.257 L119.163 702.378 Z" fill="#000000" fill-rule="nonzero" fill-opacity="1" /><path clip-path="url(#clip130)" d="M144.811 689.114 Q141.663 689.114 139.811 691.267 Q137.982 693.42 137.982 697.169 Q137.982 700.896 139.811 703.072 Q141.663 705.225 144.811 705.225 Q147.959 705.225 149.788 703.072 Q151.64 700.896 151.64 697.169 Q151.64 693.42 149.788 691.267 Q147.959 689.114 144.811 689.114 M154.093 674.461 L154.093 678.721 Q152.334 677.887 150.529 677.447 Q148.746 677.008 146.987 677.008 Q142.357 677.008 139.904 680.133 Q137.473 683.258 137.126 689.577 Q138.492 687.563 140.552 686.498 Q142.612 685.41 145.089 685.41 Q150.297 685.41 153.306 688.582 Q156.339 691.73 156.339 697.169 Q156.339 702.494 153.191 705.711 Q150.043 708.929 144.811 708.929 Q138.816 708.929 135.644 704.345 Q132.473 699.739 132.473 691.012 Q132.473 682.818 136.362 677.957 Q140.251 673.072 146.802 673.072 Q148.561 673.072 150.343 673.42 Q152.149 673.767 154.093 674.461 Z" fill="#000000" fill-rule="nonzero" fill-opacity="1" /><path clip-path="url(#clip130)" d="M99.2558 514.42 Q95.6447 514.42 93.816 517.985 Q92.0104 521.526 92.0104 528.656 Q92.0104 535.762 93.816 539.327 Q95.6447 542.869 99.2558 542.869 Q102.89 542.869 104.696 539.327 Q106.524 535.762 106.524 528.656 Q106.524 521.526 104.696 517.985 Q102.89 514.42 99.2558 514.42 M99.2558 510.716 Q105.066 510.716 108.121 515.323 Q111.2 519.906 111.2 528.656 Q111.2 537.383 108.121 541.989 Q105.066 546.572 99.2558 546.572 Q93.4456 546.572 90.3669 541.989 Q87.3114 537.383 87.3114 528.656 Q87.3114 519.906 90.3669 515.323 Q93.4456 510.716 99.2558 510.716 Z" fill="#000000" fill-rule="nonzero" fill-opacity="1" /><path clip-path="url(#clip130)" d="M119.418 540.022 L124.302 540.022 L124.302 545.901 L119.418 545.901 L119.418 540.022 Z" fill="#000000" fill-rule="nonzero" fill-opacity="1" /><path clip-path="url(#clip130)" d="M144.487 529.489 Q141.154 529.489 139.232 531.272 Q137.334 533.054 137.334 536.179 Q137.334 539.304 139.232 541.086 Q141.154 542.869 144.487 542.869 Q147.82 542.869 149.742 541.086 Q151.663 539.281 151.663 536.179 Q151.663 533.054 149.742 531.272 Q147.843 529.489 144.487 529.489 M139.811 527.498 Q136.802 526.758 135.112 524.698 Q133.445 522.637 133.445 519.674 Q133.445 515.531 136.385 513.124 Q139.348 510.716 144.487 510.716 Q149.649 510.716 152.589 513.124 Q155.529 515.531 155.529 519.674 Q155.529 522.637 153.839 524.698 Q152.172 526.758 149.186 527.498 Q152.566 528.285 154.441 530.577 Q156.339 532.869 156.339 536.179 Q156.339 541.202 153.26 543.887 Q150.205 546.572 144.487 546.572 Q138.769 546.572 135.691 543.887 Q132.635 541.202 132.635 536.179 Q132.635 532.869 134.533 530.577 Q136.431 528.285 139.811 527.498 M138.098 520.114 Q138.098 522.799 139.765 524.304 Q141.455 525.809 144.487 525.809 Q147.496 525.809 149.186 524.304 Q150.899 522.799 150.899 520.114 Q150.899 517.429 149.186 515.924 Q147.496 514.42 144.487 514.42 Q141.455 514.42 139.765 515.924 Q138.098 517.429 138.098 520.114 Z" fill="#000000" fill-rule="nonzero" fill-opacity="1" /><path clip-path="url(#clip130)" d="M89.9734 379.61 L97.6122 379.61 L97.6122 353.244 L89.3021 354.911 L89.3021 350.652 L97.566 348.985 L102.242 348.985 L102.242 379.61 L109.881 379.61 L109.881 383.545 L89.9734 383.545 L89.9734 379.61 Z" fill="#000000" fill-rule="nonzero" fill-opacity="1" /><path clip-path="url(#clip130)" d="M119.325 377.665 L124.209 377.665 L124.209 383.545 L119.325 383.545 L119.325 377.665 Z" fill="#000000" fill-rule="nonzero" fill-opacity="1" /><path clip-path="url(#clip130)" d="M144.394 352.064 Q140.783 352.064 138.955 355.628 Q137.149 359.17 137.149 366.3 Q137.149 373.406 138.955 376.971 Q140.783 380.512 144.394 380.512 Q148.029 380.512 149.834 376.971 Q151.663 373.406 151.663 366.3 Q151.663 359.17 149.834 355.628 Q148.029 352.064 144.394 352.064 M144.394 348.36 Q150.205 348.36 153.26 352.966 Q156.339 357.55 156.339 366.3 Q156.339 375.026 153.26 379.633 Q150.205 384.216 144.394 384.216 Q138.584 384.216 135.506 379.633 Q132.45 375.026 132.45 366.3 Q132.45 357.55 135.506 352.966 Q138.584 348.36 144.394 348.36 Z" fill="#000000" fill-rule="nonzero" fill-opacity="1" /><path clip-path="url(#clip130)" d="M91.5706 217.253 L99.2095 217.253 L99.2095 190.888 L90.8993 192.555 L90.8993 188.295 L99.1632 186.629 L103.839 186.629 L103.839 217.253 L111.478 217.253 L111.478 221.189 L91.5706 221.189 L91.5706 217.253 Z" fill="#000000" fill-rule="nonzero" fill-opacity="1" /><path clip-path="url(#clip130)" d="M120.922 215.309 L125.807 215.309 L125.807 221.189 L120.922 221.189 L120.922 215.309 Z" fill="#000000" fill-rule="nonzero" fill-opacity="1" /><path clip-path="url(#clip130)" d="M140.019 217.253 L156.339 217.253 L156.339 221.189 L134.394 221.189 L134.394 217.253 Q137.056 214.499 141.64 209.869 Q146.246 205.216 147.427 203.874 Q149.672 201.351 150.552 199.615 Q151.455 197.855 151.455 196.166 Q151.455 193.411 149.51 191.675 Q147.589 189.939 144.487 189.939 Q142.288 189.939 139.834 190.703 Q137.404 191.467 134.626 193.017 L134.626 188.295 Q137.45 187.161 139.904 186.582 Q142.357 186.004 144.394 186.004 Q149.765 186.004 152.959 188.689 Q156.154 191.374 156.154 195.865 Q156.154 197.994 155.343 199.916 Q154.556 201.814 152.45 204.406 Q151.871 205.078 148.769 208.295 Q145.668 211.49 140.019 217.253 Z" fill="#000000" fill-rule="nonzero" fill-opacity="1" /><polyline clip-path="url(#clip132)" style="stroke:#009af9; stroke-linecap:round; stroke-linejoin:round; stroke-width:16; stroke-opacity:1; fill:none" stroke-dasharray="8, 16" points="253.483,1056.12 263.725,1046.69 273.966,1045.97 284.208,1038.55 294.45,1017.28 304.692,994.296 314.934,992.396 325.176,1018.79 335.418,1054.95 345.659,1086.17 355.901,1118.94 366.143,1151.79 376.385,1164.7 386.627,1151.05 396.869,1140.68 407.111,1173.06 417.352,1252.58 427.594,1345.71 437.836,1407.36 448.078,1409.73 458.32,1358.91 468.562,1289.12 478.803,1244.35 489.045,1251.17 499.287,1297.78 509.529,1342.21 519.771,1346.35 530.013,1305.69 540.255,1247.57 550.497,1197.63 560.738,1157.14 570.98,1124.39 581.222,1109.19 591.464,1109.12 601.706,1105.08 611.948,1084.44 622.19,1049.79 632.431,1010.09 642.673,974.004 652.915,959.261 663.157,989.737 673.399,1046.2 683.641,1073.38 693.882,1073.57 704.124,1084.14 714.366,1111.2 724.608,1145.42 734.85,1178.04 745.092,1202.51 755.334,1222.25 765.575,1249.43 775.817,1287.93 786.059,1317.27 796.301,1306.56 806.543,1266.22 816.785,1252.86 827.027,1289.64 837.268,1346.53 847.51,1383.72 857.752,1382.07 867.994,1343.53 878.236,1275.87 888.478,1196.41 898.72,1134.62 908.961,1119.32 919.203,1173.5 929.445,1249.35 939.687,1248.52 949.929,1164.92 960.171,1068.11 970.413,1002.28 980.654,977.825 990.896,989.481 1001.14,1014.08 1011.38,1020.89 1021.62,998.394 1031.86,977.357 1042.11,1031.87 1052.35,1169.15 1062.59,1261.26 1072.83,1248.6 1083.07,1172.6 1093.31,1079.91 1103.56,1029.55 1113.8,1076.47 1124.04,1218.18 1134.28,1371.84 1144.52,1445.72 1154.77,1421.61 1165.01,1355.21 1175.25,1305.22 1185.49,1278.1 1195.73,1274.08 1205.98,1303.31 1216.22,1353.73 1226.46,1394.52 1236.7,1393.71 1246.94,1314.79 1257.18,1110.73 1267.43,815.66 1277.67,577.661 1287.91,420.278 1298.15,331.059 1308.39,303.695 1318.64,317.085 1328.88,355.569 1339.12,395.701 1349.36,412.198 1359.6,400.502 1369.84,374.258 1380.09,330.2 1390.33,265.945 1400.57,227.16 1410.81,271.505 1421.05,405.822 1431.3,546.988 1441.54,584.634 1451.78,504.042 1462.02,377.667 1472.26,274.86 1482.51,220.775 1492.75,242.337 1502.99,332.366 1513.23,392.41 1523.47,387.649 1533.71,369.586 1543.96,381.489 1554.2,427.812 1564.44,473.95 1574.68,476.137 1584.92,413.131 1595.17,295.143 1605.41,184.98 1615.65,180.012 1625.89,279.943 1636.13,381.199 1646.38,433.586 1656.62,438.84 1666.86,415.234 1677.1,393.339 1687.34,384.147 1697.58,388.315 1707.83,405.908 1718.07,418.104 1728.31,390.725 1738.55,317.561 1748.79,257.99 1759.04,274.356 1769.28,344.039 1779.52,411.273 1789.76,452.734 1800,469.722 1810.24,466.137 1820.49,441.868 1830.73,396.916 1840.97,334.708 1851.21,260.039 1861.45,199.858 1871.7,212.542 1881.94,309.656 1892.18,421.805 1902.42,490.542 1912.66,511.295 1922.91,497.026 1933.15,459.002 1943.39,408.41 1953.63,354.442 1963.87,302.531 1974.11,258.111 1984.36,232.439 1994.6,237.856 2004.84,271.29 2015.08,322.094 2025.32,394.583 2035.57,490.421 2045.81,577.078 2056.05,599.688 2066.29,525.893 2076.53,376.986 2086.77,215.342 2097.02,105.166 2107.26,87.9763 2117.5,175.387 2127.74,335.109 2137.98,500.293 2148.23,607.291 2158.47,623.104 2168.71,555.381 2178.95,442.366 2189.19,326.313 2199.44,234.606 2209.68,189.103 2219.92,204.411 2230.16,260.136 2240.4,315.007 2250.64,359.714 2260.89,418.062 2271.13,494.101 2281.37,553.788 2291.61,568.23 "/>
<polyline clip-path="url(#clip132)" style="stroke:#e26f46; stroke-linecap:round; stroke-linejoin:round; stroke-width:4; stroke-opacity:1; fill:none" points="253.483,1056.12 263.725,1038.82 273.966,1026.06 284.208,1018.27 294.45,1015.69 304.692,1018.41 314.934,1026.34 325.176,1039.22 335.418,1056.63 345.659,1078 355.901,1102.64 366.143,1129.74 376.385,1158.42 386.627,1187.74 396.869,1216.74 407.111,1244.48 417.352,1270.05 427.594,1292.61 437.836,1311.44 448.078,1325.92 458.32,1335.56 468.562,1340.07 478.803,1339.29 489.045,1333.25 499.287,1322.14 509.529,1306.33 519.771,1286.33 530.013,1262.8 540.255,1236.5 550.497,1208.29 560.738,1179.1 570.98,1149.87 581.222,1121.56 591.464,1095.1 601.706,1071.34 611.948,1051.07 622.19,1034.94 632.431,1023.48 642.673,1017.06 652.915,1015.9 663.157,1020.03 673.399,1029.32 683.641,1043.46 693.882,1062 704.124,1084.32 714.366,1109.7 724.608,1137.31 734.85,1166.25 745.092,1195.58 755.334,1224.33 765.575,1251.58 775.817,1276.42 786.059,1298.05 796.301,1315.77 806.543,1328.99 816.785,1337.29 827.027,1340.38 837.268,1338.18 847.51,1330.76 857.752,1318.35 867.994,1301.36 878.236,1280.34 888.478,1255.99 898.72,1229.09 908.961,1200.53 919.203,1171.23 929.445,1142.16 939.687,1114.26 949.929,1088.43 960.171,1065.54 970.413,1046.31 980.654,1031.39 990.896,1021.25 1001.14,1016.23 1011.38,1016.49 1021.62,1022.02 1031.86,1032.65 1042.11,1048.02 1052.35,1067.63 1062.59,1090.85 1072.83,1116.91 1083.07,1144.97 1093.31,1174.11 1103.56,1203.38 1113.8,1231.82 1124.04,1258.5 1134.28,1282.56 1144.52,1303.21 1154.77,1319.77 1165.01,1331.71 1175.25,1338.63 1185.49,1340.31 1195.73,1336.7 1205.98,1327.91 1216.22,1314.22 1226.46,1296.09 1236.7,1274.11 1246.94,1249 1257.18,1221.56 1267.43,1192.71 1277.67,365.086 1287.91,363.744 1298.15,364.965 1308.39,369.03 1318.64,374.693 1328.88,379.562 1339.12,381.003 1349.36,377.257 1359.6,368.328 1369.84,356.29 1380.09,344.834 1390.33,338.142 1400.57,339.426 1410.81,349.637 1421.05,366.81 1431.3,386.355 1441.54,402.271 1451.78,408.984 1462.02,403.238 1472.26,385.406 1482.51,359.758 1492.75,333.473 1502.99,314.634 1513.23,309.754 1523.47,321.584 1533.71,347.942 1543.96,381.981 1554.2,413.957 1564.44,434.011 1574.68,435.199 1584.92,415.824 1595.17,380.317 1605.41,338.285 1615.65,301.928 1625.89,282.492 1636.13,286.814 1646.38,314.991 1656.62,359.974 1666.86,409.287 1677.1,448.486 1687.34,465.386 1697.58,453.829 1707.83,415.827 1718.07,361.359 1728.31,305.775 1738.55,265.473 1748.79,253.061 1759.04,273.442 1769.28,322.021 1779.52,385.661 1789.76,446.222 1800,485.733 1810.24,491.718 1820.49,461.103 1830.73,401.49 1840.97,329.316 1851.21,265.327 1861.45,228.618 1871.7,230.938 1881.94,272.975 1892.18,343.763 1902.42,423.516 1912.66,489.154 1922.91,520.982 1933.15,508.588 1943.39,454.2 1953.63,372.427 1963.87,286.356 1974.11,221.037 1984.36,196.19 1994.6,220.269 2004.84,287.651 2015.08,379.884 2025.32,470.724 2035.57,533.603 2045.81,549.397 2056.05,512.224 2066.29,431.522 2076.53,329.693 2086.77,235.892 2097.02,177.68 2107.26,172.932 2117.5,224.366 2127.74,318.378 2137.98,428.609 2148.23,523.335 2158.47,574.592 2168.71,566.431 2178.95,499.847 2189.19,392.885 2199.44,275.763 2209.68,182.342 2219.92,140.334 2230.16,163.091 2240.4,245.4 2250.64,364.598 2260.89,486.802 2271.13,576.543 2281.37,607.048 2291.61,568.23 "/>
<path clip-path="url(#clip130)" d="M264.353 250.738 L707.222 250.738 L707.222 95.2176 L264.353 95.2176  Z" fill="#ffffff" fill-rule="evenodd" fill-opacity="1"/>
<polyline clip-path="url(#clip130)" style="stroke:#000000; stroke-linecap:round; stroke-linejoin:round; stroke-width:4; stroke-opacity:1; fill:none" points="264.353,250.738 707.222,250.738 707.222,95.2176 264.353,95.2176 264.353,250.738 "/>
<polyline clip-path="url(#clip130)" style="stroke:#009af9; stroke-linecap:round; stroke-linejoin:round; stroke-width:16; stroke-opacity:1; fill:none" stroke-dasharray="8, 16" points="288.357,147.058 432.385,147.058 "/>
<path clip-path="url(#clip130)" d="M461.066 133.62 L461.066 146.606 L466.945 146.606 Q470.209 146.606 471.992 144.916 Q473.774 143.227 473.774 140.102 Q473.774 137 471.992 135.31 Q470.209 133.62 466.945 133.62 L461.066 133.62 M456.39 129.778 L466.945 129.778 Q472.755 129.778 475.718 132.416 Q478.704 135.032 478.704 140.102 Q478.704 145.217 475.718 147.833 Q472.755 150.449 466.945 150.449 L461.066 150.449 L461.066 164.338 L456.39 164.338 L456.39 129.778 Z" fill="#000000" fill-rule="nonzero" fill-opacity="1" /><path clip-path="url(#clip130)" d="M498.982 142.393 Q498.265 141.977 497.408 141.791 Q496.575 141.583 495.556 141.583 Q491.945 141.583 490.001 143.944 Q488.079 146.282 488.079 150.68 L488.079 164.338 L483.797 164.338 L483.797 138.412 L488.079 138.412 L488.079 142.44 Q489.422 140.078 491.575 138.944 Q493.728 137.787 496.806 137.787 Q497.246 137.787 497.778 137.856 Q498.311 137.903 498.959 138.018 L498.982 142.393 Z" fill="#000000" fill-rule="nonzero" fill-opacity="1" /><path clip-path="url(#clip130)" d="M524.584 150.31 L524.584 152.393 L505.001 152.393 Q505.278 156.791 507.639 159.106 Q510.024 161.398 514.26 161.398 Q516.714 161.398 519.005 160.796 Q521.32 160.194 523.588 158.99 L523.588 163.018 Q521.297 163.99 518.889 164.5 Q516.482 165.009 514.005 165.009 Q507.802 165.009 504.167 161.398 Q500.556 157.787 500.556 151.629 Q500.556 145.264 503.982 141.537 Q507.431 137.787 513.264 137.787 Q518.496 137.787 521.528 141.166 Q524.584 144.523 524.584 150.31 M520.325 149.06 Q520.278 145.565 518.357 143.481 Q516.459 141.398 513.311 141.398 Q509.746 141.398 507.593 143.412 Q505.464 145.426 505.14 149.083 L520.325 149.06 Z" fill="#000000" fill-rule="nonzero" fill-opacity="1" /><path clip-path="url(#clip130)" d="M548.635 142.347 L548.635 128.319 L552.894 128.319 L552.894 164.338 L548.635 164.338 L548.635 160.449 Q547.292 162.763 545.232 163.898 Q543.195 165.009 540.325 165.009 Q535.625 165.009 532.663 161.259 Q529.723 157.509 529.723 151.398 Q529.723 145.287 532.663 141.537 Q535.625 137.787 540.325 137.787 Q543.195 137.787 545.232 138.921 Q547.292 140.032 548.635 142.347 M534.121 151.398 Q534.121 156.097 536.042 158.782 Q537.987 161.444 541.366 161.444 Q544.746 161.444 546.69 158.782 Q548.635 156.097 548.635 151.398 Q548.635 146.699 546.69 144.037 Q544.746 141.352 541.366 141.352 Q537.987 141.352 536.042 144.037 Q534.121 146.699 534.121 151.398 Z" fill="#000000" fill-rule="nonzero" fill-opacity="1" /><path clip-path="url(#clip130)" d="M561.667 138.412 L565.926 138.412 L565.926 164.338 L561.667 164.338 L561.667 138.412 M561.667 128.319 L565.926 128.319 L565.926 133.713 L561.667 133.713 L561.667 128.319 Z" fill="#000000" fill-rule="nonzero" fill-opacity="1" /><path clip-path="url(#clip130)" d="M593.496 139.407 L593.496 143.389 Q591.69 142.393 589.861 141.907 Q588.056 141.398 586.204 141.398 Q582.06 141.398 579.769 144.037 Q577.477 146.652 577.477 151.398 Q577.477 156.143 579.769 158.782 Q582.06 161.398 586.204 161.398 Q588.056 161.398 589.861 160.912 Q591.69 160.402 593.496 159.407 L593.496 163.342 Q591.713 164.176 589.792 164.592 Q587.894 165.009 585.741 165.009 Q579.884 165.009 576.435 161.328 Q572.986 157.648 572.986 151.398 Q572.986 145.055 576.459 141.421 Q579.954 137.787 586.019 137.787 Q587.986 137.787 589.861 138.203 Q591.736 138.597 593.496 139.407 Z" fill="#000000" fill-rule="nonzero" fill-opacity="1" /><path clip-path="url(#clip130)" d="M605.116 131.051 L605.116 138.412 L613.889 138.412 L613.889 141.722 L605.116 141.722 L605.116 155.796 Q605.116 158.967 605.972 159.87 Q606.852 160.773 609.514 160.773 L613.889 160.773 L613.889 164.338 L609.514 164.338 Q604.583 164.338 602.708 162.509 Q600.833 160.657 600.833 155.796 L600.833 141.722 L597.708 141.722 L597.708 138.412 L600.833 138.412 L600.833 131.051 L605.116 131.051 Z" fill="#000000" fill-rule="nonzero" fill-opacity="1" /><path clip-path="url(#clip130)" d="M619.491 138.412 L623.75 138.412 L623.75 164.338 L619.491 164.338 L619.491 138.412 M619.491 128.319 L623.75 128.319 L623.75 133.713 L619.491 133.713 L619.491 128.319 Z" fill="#000000" fill-rule="nonzero" fill-opacity="1" /><path clip-path="url(#clip130)" d="M642.708 141.398 Q639.282 141.398 637.292 144.083 Q635.301 146.745 635.301 151.398 Q635.301 156.051 637.268 158.736 Q639.259 161.398 642.708 161.398 Q646.111 161.398 648.102 158.713 Q650.092 156.027 650.092 151.398 Q650.092 146.791 648.102 144.106 Q646.111 141.398 642.708 141.398 M642.708 137.787 Q648.264 137.787 651.435 141.398 Q654.606 145.009 654.606 151.398 Q654.606 157.764 651.435 161.398 Q648.264 165.009 642.708 165.009 Q637.13 165.009 633.958 161.398 Q630.81 157.764 630.81 151.398 Q630.81 145.009 633.958 141.398 Q637.13 137.787 642.708 137.787 Z" fill="#000000" fill-rule="nonzero" fill-opacity="1" /><path clip-path="url(#clip130)" d="M683.217 148.689 L683.217 164.338 L678.958 164.338 L678.958 148.828 Q678.958 145.148 677.523 143.319 Q676.088 141.49 673.217 141.49 Q669.768 141.49 667.778 143.69 Q665.787 145.889 665.787 149.685 L665.787 164.338 L661.504 164.338 L661.504 138.412 L665.787 138.412 L665.787 142.44 Q667.315 140.102 669.375 138.944 Q671.458 137.787 674.166 137.787 Q678.634 137.787 680.926 140.565 Q683.217 143.319 683.217 148.689 Z" fill="#000000" fill-rule="nonzero" fill-opacity="1" /><polyline clip-path="url(#clip130)" style="stroke:#e26f46; stroke-linecap:round; stroke-linejoin:round; stroke-width:4; stroke-opacity:1; fill:none" points="288.357,198.898 432.385,198.898 "/>
<path clip-path="url(#clip130)" d="M456.39 181.618 L478.242 181.618 L478.242 185.553 L461.066 185.553 L461.066 195.784 L477.524 195.784 L477.524 199.719 L461.066 199.719 L461.066 212.242 L478.658 212.242 L478.658 216.178 L456.39 216.178 L456.39 181.618 Z" fill="#000000" fill-rule="nonzero" fill-opacity="1" /><path clip-path="url(#clip130)" d="M507.709 190.252 L498.334 202.867 L508.195 216.178 L503.172 216.178 L495.626 205.992 L488.079 216.178 L483.056 216.178 L493.126 202.613 L483.913 190.252 L488.936 190.252 L495.811 199.488 L502.686 190.252 L507.709 190.252 Z" fill="#000000" fill-rule="nonzero" fill-opacity="1" /><path clip-path="url(#clip130)" d="M525.996 203.145 Q520.834 203.145 518.843 204.326 Q516.852 205.506 516.852 208.354 Q516.852 210.622 518.334 211.965 Q519.838 213.284 522.408 213.284 Q525.95 213.284 528.079 210.784 Q530.232 208.261 530.232 204.094 L530.232 203.145 L525.996 203.145 M534.491 201.386 L534.491 216.178 L530.232 216.178 L530.232 212.242 Q528.774 214.603 526.598 215.738 Q524.422 216.849 521.274 216.849 Q517.292 216.849 514.931 214.627 Q512.593 212.381 512.593 208.631 Q512.593 204.256 515.51 202.034 Q518.45 199.812 524.26 199.812 L530.232 199.812 L530.232 199.395 Q530.232 196.455 528.288 194.858 Q526.366 193.238 522.871 193.238 Q520.649 193.238 518.542 193.77 Q516.436 194.303 514.491 195.367 L514.491 191.432 Q516.829 190.53 519.028 190.09 Q521.227 189.627 523.311 189.627 Q528.936 189.627 531.713 192.543 Q534.491 195.46 534.491 201.386 Z" fill="#000000" fill-rule="nonzero" fill-opacity="1" /><path clip-path="url(#clip130)" d="M561.922 191.247 L561.922 195.229 Q560.116 194.233 558.287 193.747 Q556.482 193.238 554.63 193.238 Q550.486 193.238 548.195 195.877 Q545.903 198.492 545.903 203.238 Q545.903 207.983 548.195 210.622 Q550.486 213.238 554.63 213.238 Q556.482 213.238 558.287 212.752 Q560.116 212.242 561.922 211.247 L561.922 215.182 Q560.139 216.016 558.218 216.432 Q556.32 216.849 554.167 216.849 Q548.311 216.849 544.862 213.168 Q541.412 209.488 541.412 203.238 Q541.412 196.895 544.885 193.261 Q548.38 189.627 554.445 189.627 Q556.412 189.627 558.287 190.043 Q560.162 190.437 561.922 191.247 Z" fill="#000000" fill-rule="nonzero" fill-opacity="1" /><path clip-path="url(#clip130)" d="M573.542 182.891 L573.542 190.252 L582.315 190.252 L582.315 193.562 L573.542 193.562 L573.542 207.636 Q573.542 210.807 574.398 211.71 Q575.278 212.613 577.94 212.613 L582.315 212.613 L582.315 216.178 L577.94 216.178 Q573.01 216.178 571.135 214.349 Q569.26 212.497 569.26 207.636 L569.26 193.562 L566.135 193.562 L566.135 190.252 L569.26 190.252 L569.26 182.891 L573.542 182.891 Z" fill="#000000" fill-rule="nonzero" fill-opacity="1" /></svg>
