<?xml version="1.0" encoding="utf-8"?>
<svg xmlns="http://www.w3.org/2000/svg" xmlns:xlink="http://www.w3.org/1999/xlink" width="600" height="400" viewBox="0 0 2400 1600">
<defs>
  <clipPath id="clip920">
    <rect x="0" y="0" width="2400" height="1600"/>
  </clipPath>
</defs>
<path clip-path="url(#clip920)" d="M0 1600 L2400 1600 L2400 0 L0 0  Z" fill="#ffffff" fill-rule="evenodd" fill-opacity="1"/>
<defs>
  <clipPath id="clip921">
    <rect x="480" y="0" width="1681" height="1600"/>
  </clipPath>
</defs>
<path clip-path="url(#clip920)" d="M156.274 1486.45 L2352.76 1486.45 L2352.76 47.2441 L156.274 47.2441  Z" fill="#ffffff" fill-rule="evenodd" fill-opacity="1"/>
<defs>
  <clipPath id="clip922">
    <rect x="156" y="47" width="2197" height="1440"/>
  </clipPath>
</defs>
<polyline clip-path="url(#clip922)" style="stroke:#000000; stroke-linecap:round; stroke-linejoin:round; stroke-width:2; stroke-opacity:0.1; fill:none" points="218.439,1486.45 218.439,47.2441 "/>
<polyline clip-path="url(#clip922)" style="stroke:#000000; stroke-linecap:round; stroke-linejoin:round; stroke-width:2; stroke-opacity:0.1; fill:none" points="736.477,1486.45 736.477,47.2441 "/>
<polyline clip-path="url(#clip922)" style="stroke:#000000; stroke-linecap:round; stroke-linejoin:round; stroke-width:2; stroke-opacity:0.1; fill:none" points="1254.52,1486.45 1254.52,47.2441 "/>
<polyline clip-path="url(#clip922)" style="stroke:#000000; stroke-linecap:round; stroke-linejoin:round; stroke-width:2; stroke-opacity:0.1; fill:none" points="1772.55,1486.45 1772.55,47.2441 "/>
<polyline clip-path="url(#clip922)" style="stroke:#000000; stroke-linecap:round; stroke-linejoin:round; stroke-width:2; stroke-opacity:0.1; fill:none" points="2290.59,1486.45 2290.59,47.2441 "/>
<polyline clip-path="url(#clip920)" style="stroke:#000000; stroke-linecap:round; stroke-linejoin:round; stroke-width:4; stroke-opacity:1; fill:none" points="156.274,1486.45 2352.76,1486.45 "/>
<polyline clip-path="url(#clip920)" style="stroke:#000000; stroke-linecap:round; stroke-linejoin:round; stroke-width:4; stroke-opacity:1; fill:none" points="218.439,1486.45 218.439,1467.55 "/>
<polyline clip-path="url(#clip920)" style="stroke:#000000; stroke-linecap:round; stroke-linejoin:round; stroke-width:4; stroke-opacity:1; fill:none" points="736.477,1486.45 736.477,1467.55 "/>
<polyline clip-path="url(#clip920)" style="stroke:#000000; stroke-linecap:round; stroke-linejoin:round; stroke-width:4; stroke-opacity:1; fill:none" points="1254.52,1486.45 1254.52,1467.55 "/>
<polyline clip-path="url(#clip920)" style="stroke:#000000; stroke-linecap:round; stroke-linejoin:round; stroke-width:4; stroke-opacity:1; fill:none" points="1772.55,1486.45 1772.55,1467.55 "/>
<polyline clip-path="url(#clip920)" style="stroke:#000000; stroke-linecap:round; stroke-linejoin:round; stroke-width:4; stroke-opacity:1; fill:none" points="2290.59,1486.45 2290.59,1467.55 "/>
<path clip-path="url(#clip920)" d="M164.967 1532.02 L194.643 1532.02 L194.643 1535.95 L164.967 1535.95 L164.967 1532.02 Z" fill="#000000" fill-rule="nonzero" fill-opacity="1" /><path clip-path="url(#clip920)" d="M205.545 1544.91 L213.184 1544.91 L213.184 1518.55 L204.874 1520.21 L204.874 1515.95 L213.138 1514.29 L217.814 1514.29 L217.814 1544.91 L225.453 1544.91 L225.453 1548.85 L205.545 1548.85 L205.545 1544.91 Z" fill="#000000" fill-rule="nonzero" fill-opacity="1" /><path clip-path="url(#clip920)" d="M234.897 1542.97 L239.781 1542.97 L239.781 1548.85 L234.897 1548.85 L234.897 1542.97 Z" fill="#000000" fill-rule="nonzero" fill-opacity="1" /><path clip-path="url(#clip920)" d="M259.966 1517.37 Q256.355 1517.37 254.527 1520.93 Q252.721 1524.47 252.721 1531.6 Q252.721 1538.71 254.527 1542.27 Q256.355 1545.82 259.966 1545.82 Q263.601 1545.82 265.406 1542.27 Q267.235 1538.71 267.235 1531.6 Q267.235 1524.47 265.406 1520.93 Q263.601 1517.37 259.966 1517.37 M259.966 1513.66 Q265.776 1513.66 268.832 1518.27 Q271.911 1522.85 271.911 1531.6 Q271.911 1540.33 268.832 1544.94 Q265.776 1549.52 259.966 1549.52 Q254.156 1549.52 251.077 1544.94 Q248.022 1540.33 248.022 1531.6 Q248.022 1522.85 251.077 1518.27 Q254.156 1513.66 259.966 1513.66 Z" fill="#000000" fill-rule="nonzero" fill-opacity="1" /><path clip-path="url(#clip920)" d="M683.503 1532.02 L713.178 1532.02 L713.178 1535.95 L683.503 1535.95 L683.503 1532.02 Z" fill="#000000" fill-rule="nonzero" fill-opacity="1" /><path clip-path="url(#clip920)" d="M733.271 1517.37 Q729.66 1517.37 727.831 1520.93 Q726.026 1524.47 726.026 1531.6 Q726.026 1538.71 727.831 1542.27 Q729.66 1545.82 733.271 1545.82 Q736.905 1545.82 738.711 1542.27 Q740.539 1538.71 740.539 1531.6 Q740.539 1524.47 738.711 1520.93 Q736.905 1517.37 733.271 1517.37 M733.271 1513.66 Q739.081 1513.66 742.137 1518.27 Q745.215 1522.85 745.215 1531.6 Q745.215 1540.33 742.137 1544.94 Q739.081 1549.52 733.271 1549.52 Q727.461 1549.52 724.382 1544.94 Q721.327 1540.33 721.327 1531.6 Q721.327 1522.85 724.382 1518.27 Q727.461 1513.66 733.271 1513.66 Z" fill="#000000" fill-rule="nonzero" fill-opacity="1" /><path clip-path="url(#clip920)" d="M753.433 1542.97 L758.317 1542.97 L758.317 1548.85 L753.433 1548.85 L753.433 1542.97 Z" fill="#000000" fill-rule="nonzero" fill-opacity="1" /><path clip-path="url(#clip920)" d="M768.548 1514.29 L786.905 1514.29 L786.905 1518.22 L772.831 1518.22 L772.831 1526.7 Q773.849 1526.35 774.868 1526.19 Q775.886 1526 776.905 1526 Q782.692 1526 786.072 1529.17 Q789.451 1532.34 789.451 1537.76 Q789.451 1543.34 785.979 1546.44 Q782.507 1549.52 776.187 1549.52 Q774.011 1549.52 771.743 1549.15 Q769.498 1548.78 767.09 1548.04 L767.09 1543.34 Q769.173 1544.47 771.396 1545.03 Q773.618 1545.58 776.095 1545.58 Q780.099 1545.58 782.437 1543.48 Q784.775 1541.37 784.775 1537.76 Q784.775 1534.15 782.437 1532.04 Q780.099 1529.94 776.095 1529.94 Q774.22 1529.94 772.345 1530.35 Q770.493 1530.77 768.548 1531.65 L768.548 1514.29 Z" fill="#000000" fill-rule="nonzero" fill-opacity="1" /><path clip-path="url(#clip920)" d="M1231.9 1517.37 Q1228.29 1517.37 1226.46 1520.93 Q1224.65 1524.47 1224.65 1531.6 Q1224.65 1538.71 1226.46 1542.27 Q1228.29 1545.82 1231.9 1545.82 Q1235.53 1545.82 1237.34 1542.27 Q1239.17 1538.71 1239.17 1531.6 Q1239.17 1524.47 1237.34 1520.93 Q1235.53 1517.37 1231.9 1517.37 M1231.9 1513.66 Q1237.71 1513.66 1240.77 1518.27 Q1243.84 1522.85 1243.84 1531.6 Q1243.84 1540.33 1240.77 1544.94 Q1237.71 1549.52 1231.9 1549.52 Q1226.09 1549.52 1223.01 1544.94 Q1219.96 1540.33 1219.96 1531.6 Q1219.96 1522.85 1223.01 1518.27 Q1226.09 1513.66 1231.9 1513.66 Z" fill="#000000" fill-rule="nonzero" fill-opacity="1" /><path clip-path="url(#clip920)" d="M1252.06 1542.97 L1256.95 1542.97 L1256.95 1548.85 L1252.06 1548.85 L1252.06 1542.97 Z" fill="#000000" fill-rule="nonzero" fill-opacity="1" /><path clip-path="url(#clip920)" d="M1277.13 1517.37 Q1273.52 1517.37 1271.69 1520.93 Q1269.89 1524.47 1269.89 1531.6 Q1269.89 1538.71 1271.69 1542.27 Q1273.52 1545.82 1277.13 1545.82 Q1280.76 1545.82 1282.57 1542.27 Q1284.4 1538.71 1284.4 1531.6 Q1284.4 1524.47 1282.57 1520.93 Q1280.76 1517.37 1277.13 1517.37 M1277.13 1513.66 Q1282.94 1513.66 1286 1518.27 Q1289.08 1522.85 1289.08 1531.6 Q1289.08 1540.33 1286 1544.94 Q1282.94 1549.52 1277.13 1549.52 Q1271.32 1549.52 1268.24 1544.94 Q1265.19 1540.33 1265.19 1531.6 Q1265.19 1522.85 1268.24 1518.27 Q1271.32 1513.66 1277.13 1513.66 Z" fill="#000000" fill-rule="nonzero" fill-opacity="1" /><path clip-path="url(#clip920)" d="M1750.44 1517.37 Q1746.82 1517.37 1745 1520.93 Q1743.19 1524.47 1743.19 1531.6 Q1743.19 1538.71 1745 1542.27 Q1746.82 1545.82 1750.44 1545.82 Q1754.07 1545.82 1755.88 1542.27 Q1757.7 1538.71 1757.7 1531.6 Q1757.7 1524.47 1755.88 1520.93 Q1754.07 1517.37 1750.44 1517.37 M1750.44 1513.66 Q1756.25 1513.66 1759.3 1518.27 Q1762.38 1522.85 1762.38 1531.6 Q1762.38 1540.33 1759.3 1544.94 Q1756.25 1549.52 1750.44 1549.52 Q1744.63 1549.52 1741.55 1544.94 Q1738.49 1540.33 1738.49 1531.6 Q1738.49 1522.85 1741.55 1518.27 Q1744.63 1513.66 1750.44 1513.66 Z" fill="#000000" fill-rule="nonzero" fill-opacity="1" /><path clip-path="url(#clip920)" d="M1770.6 1542.97 L1775.48 1542.97 L1775.48 1548.85 L1770.6 1548.85 L1770.6 1542.97 Z" fill="#000000" fill-rule="nonzero" fill-opacity="1" /><path clip-path="url(#clip920)" d="M1785.71 1514.29 L1804.07 1514.29 L1804.07 1518.22 L1790 1518.22 L1790 1526.7 Q1791.01 1526.35 1792.03 1526.19 Q1793.05 1526 1794.07 1526 Q1799.86 1526 1803.24 1529.17 Q1806.62 1532.34 1806.62 1537.76 Q1806.62 1543.34 1803.14 1546.44 Q1799.67 1549.52 1793.35 1549.52 Q1791.18 1549.52 1788.91 1549.15 Q1786.66 1548.78 1784.25 1548.04 L1784.25 1543.34 Q1786.34 1544.47 1788.56 1545.03 Q1790.78 1545.58 1793.26 1545.58 Q1797.26 1545.58 1799.6 1543.48 Q1801.94 1541.37 1801.94 1537.76 Q1801.94 1534.15 1799.6 1532.04 Q1797.26 1529.94 1793.26 1529.94 Q1791.38 1529.94 1789.51 1530.35 Q1787.66 1530.77 1785.71 1531.65 L1785.71 1514.29 Z" fill="#000000" fill-rule="nonzero" fill-opacity="1" /><path clip-path="url(#clip920)" d="M2257.74 1544.91 L2265.38 1544.91 L2265.38 1518.55 L2257.07 1520.21 L2257.07 1515.95 L2265.34 1514.29 L2270.01 1514.29 L2270.01 1544.91 L2277.65 1544.91 L2277.65 1548.85 L2257.74 1548.85 L2257.74 1544.91 Z" fill="#000000" fill-rule="nonzero" fill-opacity="1" /><path clip-path="url(#clip920)" d="M2287.1 1542.97 L2291.98 1542.97 L2291.98 1548.85 L2287.1 1548.85 L2287.1 1542.97 Z" fill="#000000" fill-rule="nonzero" fill-opacity="1" /><path clip-path="url(#clip920)" d="M2312.17 1517.37 Q2308.55 1517.37 2306.73 1520.93 Q2304.92 1524.47 2304.92 1531.6 Q2304.92 1538.71 2306.73 1542.27 Q2308.55 1545.82 2312.17 1545.82 Q2315.8 1545.82 2317.61 1542.27 Q2319.43 1538.71 2319.43 1531.6 Q2319.43 1524.47 2317.61 1520.93 Q2315.8 1517.37 2312.17 1517.37 M2312.17 1513.66 Q2317.98 1513.66 2321.03 1518.27 Q2324.11 1522.85 2324.11 1531.6 Q2324.11 1540.33 2321.03 1544.94 Q2317.98 1549.52 2312.17 1549.52 Q2306.36 1549.52 2303.28 1544.94 Q2300.22 1540.33 2300.22 1531.6 Q2300.22 1522.85 2303.28 1518.27 Q2306.36 1513.66 2312.17 1513.66 Z" fill="#000000" fill-rule="nonzero" fill-opacity="1" /><polyline clip-path="url(#clip922)" style="stroke:#000000; stroke-linecap:round; stroke-linejoin:round; stroke-width:2; stroke-opacity:0.1; fill:none" points="156.274,1242.98 2352.76,1242.98 "/>
<polyline clip-path="url(#clip922)" style="stroke:#000000; stroke-linecap:round; stroke-linejoin:round; stroke-width:2; stroke-opacity:0.1; fill:none" points="156.274,971.921 2352.76,971.921 "/>
<polyline clip-path="url(#clip922)" style="stroke:#000000; stroke-linecap:round; stroke-linejoin:round; stroke-width:2; stroke-opacity:0.1; fill:none" points="156.274,700.86 2352.76,700.86 "/>
<polyline clip-path="url(#clip922)" style="stroke:#000000; stroke-linecap:round; stroke-linejoin:round; stroke-width:2; stroke-opacity:0.1; fill:none" points="156.274,429.798 2352.76,429.798 "/>
<polyline clip-path="url(#clip922)" style="stroke:#000000; stroke-linecap:round; stroke-linejoin:round; stroke-width:2; stroke-opacity:0.1; fill:none" points="156.274,158.737 2352.76,158.737 "/>
<polyline clip-path="url(#clip920)" style="stroke:#000000; stroke-linecap:round; stroke-linejoin:round; stroke-width:4; stroke-opacity:1; fill:none" points="156.274,1486.45 156.274,47.2441 "/>
<polyline clip-path="url(#clip920)" style="stroke:#000000; stroke-linecap:round; stroke-linejoin:round; stroke-width:4; stroke-opacity:1; fill:none" points="156.274,1242.98 175.172,1242.98 "/>
<polyline clip-path="url(#clip920)" style="stroke:#000000; stroke-linecap:round; stroke-linejoin:round; stroke-width:4; stroke-opacity:1; fill:none" points="156.274,971.921 175.172,971.921 "/>
<polyline clip-path="url(#clip920)" style="stroke:#000000; stroke-linecap:round; stroke-linejoin:round; stroke-width:4; stroke-opacity:1; fill:none" points="156.274,700.86 175.172,700.86 "/>
<polyline clip-path="url(#clip920)" style="stroke:#000000; stroke-linecap:round; stroke-linejoin:round; stroke-width:4; stroke-opacity:1; fill:none" points="156.274,429.798 175.172,429.798 "/>
<polyline clip-path="url(#clip920)" style="stroke:#000000; stroke-linecap:round; stroke-linejoin:round; stroke-width:4; stroke-opacity:1; fill:none" points="156.274,158.737 175.172,158.737 "/>
<path clip-path="url(#clip920)" d="M63.0985 1228.78 Q59.4875 1228.78 57.6588 1232.35 Q55.8532 1235.89 55.8532 1243.02 Q55.8532 1250.12 57.6588 1253.69 Q59.4875 1257.23 63.0985 1257.23 Q66.7328 1257.23 68.5383 1253.69 Q70.367 1250.12 70.367 1243.02 Q70.367 1235.89 68.5383 1232.35 Q66.7328 1228.78 63.0985 1228.78 M63.0985 1225.08 Q68.9087 1225.08 71.9642 1229.68 Q75.0429 1234.27 75.0429 1243.02 Q75.0429 1251.74 71.9642 1256.35 Q68.9087 1260.93 63.0985 1260.93 Q57.2884 1260.93 54.2097 1256.35 Q51.1542 1251.74 51.1542 1243.02 Q51.1542 1234.27 54.2097 1229.68 Q57.2884 1225.08 63.0985 1225.08 Z" fill="#000000" fill-rule="nonzero" fill-opacity="1" /><path clip-path="url(#clip920)" d="M83.2605 1254.38 L88.1447 1254.38 L88.1447 1260.26 L83.2605 1260.26 L83.2605 1254.38 Z" fill="#000000" fill-rule="nonzero" fill-opacity="1" /><path clip-path="url(#clip920)" d="M108.33 1228.78 Q104.719 1228.78 102.89 1232.35 Q101.084 1235.89 101.084 1243.02 Q101.084 1250.12 102.89 1253.69 Q104.719 1257.23 108.33 1257.23 Q111.964 1257.23 113.77 1253.69 Q115.598 1250.12 115.598 1243.02 Q115.598 1235.89 113.77 1232.35 Q111.964 1228.78 108.33 1228.78 M108.33 1225.08 Q114.14 1225.08 117.195 1229.68 Q120.274 1234.27 120.274 1243.02 Q120.274 1251.74 117.195 1256.35 Q114.14 1260.93 108.33 1260.93 Q102.52 1260.93 99.4409 1256.35 Q96.3854 1251.74 96.3854 1243.02 Q96.3854 1234.27 99.4409 1229.68 Q102.52 1225.08 108.33 1225.08 Z" fill="#000000" fill-rule="nonzero" fill-opacity="1" /><path clip-path="url(#clip920)" d="M63.7467 957.72 Q60.1356 957.72 58.3069 961.285 Q56.5014 964.826 56.5014 971.956 Q56.5014 979.062 58.3069 982.627 Q60.1356 986.169 63.7467 986.169 Q67.3809 986.169 69.1865 982.627 Q71.0152 979.062 71.0152 971.956 Q71.0152 964.826 69.1865 961.285 Q67.3809 957.72 63.7467 957.72 M63.7467 954.016 Q69.5568 954.016 72.6124 958.623 Q75.6911 963.206 75.6911 971.956 Q75.6911 980.683 72.6124 985.289 Q69.5568 989.873 63.7467 989.873 Q57.9365 989.873 54.8578 985.289 Q51.8023 980.683 51.8023 971.956 Q51.8023 963.206 54.8578 958.623 Q57.9365 954.016 63.7467 954.016 Z" fill="#000000" fill-rule="nonzero" fill-opacity="1" /><path clip-path="url(#clip920)" d="M83.9086 983.322 L88.7928 983.322 L88.7928 989.201 L83.9086 989.201 L83.9086 983.322 Z" fill="#000000" fill-rule="nonzero" fill-opacity="1" /><path clip-path="url(#clip920)" d="M113.145 970.567 Q116.501 971.285 118.376 973.553 Q120.274 975.822 120.274 979.155 Q120.274 984.271 116.756 987.072 Q113.237 989.873 106.756 989.873 Q104.58 989.873 102.265 989.433 Q99.9733 989.016 97.5197 988.16 L97.5197 983.646 Q99.4641 984.78 101.779 985.359 Q104.094 985.937 106.617 985.937 Q111.015 985.937 113.307 984.201 Q115.621 982.465 115.621 979.155 Q115.621 976.099 113.469 974.386 Q111.339 972.65 107.52 972.65 L103.492 972.65 L103.492 968.808 L107.705 968.808 Q111.154 968.808 112.983 967.442 Q114.811 966.053 114.811 963.461 Q114.811 960.799 112.913 959.387 Q111.038 957.951 107.52 957.951 Q105.598 957.951 103.399 958.368 Q101.2 958.785 98.5613 959.664 L98.5613 955.498 Q101.223 954.757 103.538 954.387 Q105.876 954.016 107.936 954.016 Q113.26 954.016 116.362 956.447 Q119.464 958.854 119.464 962.974 Q119.464 965.845 117.82 967.836 Q116.177 969.803 113.145 970.567 Z" fill="#000000" fill-rule="nonzero" fill-opacity="1" /><path clip-path="url(#clip920)" d="M62.9365 686.658 Q59.3254 686.658 57.4967 690.223 Q55.6912 693.765 55.6912 700.894 Q55.6912 708.001 57.4967 711.566 Q59.3254 715.107 62.9365 715.107 Q66.5707 715.107 68.3763 711.566 Q70.205 708.001 70.205 700.894 Q70.205 693.765 68.3763 690.223 Q66.5707 686.658 62.9365 686.658 M62.9365 682.955 Q68.7467 682.955 71.8022 687.561 Q74.8809 692.145 74.8809 700.894 Q74.8809 709.621 71.8022 714.228 Q68.7467 718.811 62.9365 718.811 Q57.1264 718.811 54.0477 714.228 Q50.9921 709.621 50.9921 700.894 Q50.9921 692.145 54.0477 687.561 Q57.1264 682.955 62.9365 682.955 Z" fill="#000000" fill-rule="nonzero" fill-opacity="1" /><path clip-path="url(#clip920)" d="M83.0984 712.26 L87.9827 712.26 L87.9827 718.14 L83.0984 718.14 L83.0984 712.26 Z" fill="#000000" fill-rule="nonzero" fill-opacity="1" /><path clip-path="url(#clip920)" d="M108.746 698.996 Q105.598 698.996 103.746 701.149 Q101.918 703.302 101.918 707.052 Q101.918 710.779 103.746 712.955 Q105.598 715.107 108.746 715.107 Q111.895 715.107 113.723 712.955 Q115.575 710.779 115.575 707.052 Q115.575 703.302 113.723 701.149 Q111.895 698.996 108.746 698.996 M118.029 684.344 L118.029 688.603 Q116.27 687.77 114.464 687.33 Q112.682 686.89 110.922 686.89 Q106.293 686.89 103.839 690.015 Q101.409 693.14 101.061 699.459 Q102.427 697.445 104.487 696.381 Q106.547 695.293 109.024 695.293 Q114.233 695.293 117.242 698.464 Q120.274 701.612 120.274 707.052 Q120.274 712.376 117.126 715.593 Q113.978 718.811 108.746 718.811 Q102.751 718.811 99.5798 714.228 Q96.4085 709.621 96.4085 700.894 Q96.4085 692.7 100.297 687.839 Q104.186 682.955 110.737 682.955 Q112.496 682.955 114.279 683.302 Q116.084 683.649 118.029 684.344 Z" fill="#000000" fill-rule="nonzero" fill-opacity="1" /><path clip-path="url(#clip920)" d="M63.2837 415.597 Q59.6726 415.597 57.8439 419.162 Q56.0384 422.703 56.0384 429.833 Q56.0384 436.939 57.8439 440.504 Q59.6726 444.046 63.2837 444.046 Q66.918 444.046 68.7235 440.504 Q70.5522 436.939 70.5522 429.833 Q70.5522 422.703 68.7235 419.162 Q66.918 415.597 63.2837 415.597 M63.2837 411.893 Q69.0939 411.893 72.1494 416.5 Q75.2281 421.083 75.2281 429.833 Q75.2281 438.56 72.1494 443.166 Q69.0939 447.75 63.2837 447.75 Q57.4736 447.75 54.3949 443.166 Q51.3393 438.56 51.3393 429.833 Q51.3393 421.083 54.3949 416.5 Q57.4736 411.893 63.2837 411.893 Z" fill="#000000" fill-rule="nonzero" fill-opacity="1" /><path clip-path="url(#clip920)" d="M83.4457 441.199 L88.3299 441.199 L88.3299 447.078 L83.4457 447.078 L83.4457 441.199 Z" fill="#000000" fill-rule="nonzero" fill-opacity="1" /><path clip-path="url(#clip920)" d="M98.6539 446.361 L98.6539 442.101 Q100.413 442.935 102.219 443.375 Q104.024 443.814 105.76 443.814 Q110.39 443.814 112.82 440.713 Q115.274 437.588 115.621 431.245 Q114.279 433.236 112.219 434.301 Q110.158 435.365 107.658 435.365 Q102.473 435.365 99.4409 432.24 Q96.4317 429.092 96.4317 423.652 Q96.4317 418.328 99.5798 415.111 Q102.728 411.893 107.959 411.893 Q113.955 411.893 117.103 416.5 Q120.274 421.083 120.274 429.833 Q120.274 438.004 116.385 442.888 Q112.52 447.75 105.969 447.75 Q104.209 447.75 102.404 447.402 Q100.598 447.055 98.6539 446.361 M107.959 431.708 Q111.108 431.708 112.936 429.555 Q114.788 427.402 114.788 423.652 Q114.788 419.926 112.936 417.773 Q111.108 415.597 107.959 415.597 Q104.811 415.597 102.959 417.773 Q101.131 419.926 101.131 423.652 Q101.131 427.402 102.959 429.555 Q104.811 431.708 107.959 431.708 Z" fill="#000000" fill-rule="nonzero" fill-opacity="1" /><path clip-path="url(#clip920)" d="M55.506 172.082 L63.1448 172.082 L63.1448 145.716 L54.8347 147.383 L54.8347 143.123 L63.0985 141.457 L67.7744 141.457 L67.7744 172.082 L75.4133 172.082 L75.4133 176.017 L55.506 176.017 L55.506 172.082 Z" fill="#000000" fill-rule="nonzero" fill-opacity="1" /><path clip-path="url(#clip920)" d="M84.8577 170.137 L89.7419 170.137 L89.7419 176.017 L84.8577 176.017 L84.8577 170.137 Z" fill="#000000" fill-rule="nonzero" fill-opacity="1" /><path clip-path="url(#clip920)" d="M103.955 172.082 L120.274 172.082 L120.274 176.017 L98.3298 176.017 L98.3298 172.082 Q100.992 169.327 105.575 164.697 Q110.182 160.045 111.362 158.702 Q113.608 156.179 114.487 154.443 Q115.39 152.684 115.39 150.994 Q115.39 148.239 113.445 146.503 Q111.524 144.767 108.422 144.767 Q106.223 144.767 103.77 145.531 Q101.339 146.295 98.5613 147.846 L98.5613 143.123 Q101.385 141.989 103.839 141.411 Q106.293 140.832 108.33 140.832 Q113.7 140.832 116.895 143.517 Q120.089 146.202 120.089 150.693 Q120.089 152.822 119.279 154.744 Q118.492 156.642 116.385 159.234 Q115.807 159.906 112.705 163.123 Q109.603 166.318 103.955 172.082 Z" fill="#000000" fill-rule="nonzero" fill-opacity="1" /><polyline clip-path="url(#clip922)" style="stroke:#009af9; stroke-linecap:round; stroke-linejoin:round; stroke-width:16; stroke-opacity:1; fill:none" stroke-dasharray="8, 16" points="218.439,1107.11 228.852,1090.48 239.264,1076.58 249.677,1066.84 260.09,1062.48 270.503,1064.34 280.916,1072.73 291.329,1087.41 301.741,1107.67 312.154,1132.39 322.567,1160.34 332.98,1190.29 343.393,1221.29 353.805,1252.69 364.218,1284.09 374.631,1315.11 385.044,1344.96 395.457,1372.08 405.87,1394.3 416.282,1409.83 426.695,1418.71 437.108,1422.94 447.521,1423.48 457.934,1418.02 468.347,1404.31 478.759,1384.55 489.172,1362.72 499.585,1337.79 509.998,1307.67 520.411,1279.66 530.824,1257.03 541.236,1228.1 551.649,1187.2 562.062,1143.46 572.475,1107.86 582.888,1085.67 593.301,1076.72 603.713,1076.64 614.126,1078.79 624.539,1078.1 634.952,1074.48 645.365,1072.99 655.777,1080.62 666.19,1101.35 676.603,1133.09 687.016,1169.51 697.429,1204.84 707.842,1236.86 718.254,1265.97 728.667,1293.44 739.08,1320.53 749.493,1347.76 759.906,1374.12 770.319,1396.9 780.731,1413.02 791.144,1421.31 801.557,1423.32 811.97,1421.58 822.383,1416.71 832.796,1406.17 843.208,1386.13 853.621,1356.28 864.034,1324.03 874.447,1293.98 884.86,1262.34 895.273,1235.7 905.685,1217.14 916.098,1195.63 926.511,1162.42 936.924,1118.72 947.337,1073.51 957.749,1046.32 968.162,1052.15 978.575,1062.02 988.988,1075.43 999.401,1122.22 1009.81,1159.39 1020.23,1117.13 1030.64,1000.83 1041.05,940.463 1051.46,1039.11 1061.88,1186.01 1072.29,1284.85 1082.7,1332.04 1093.12,1343.65 1103.53,1341.23 1113.94,1340.97 1124.35,1348.99 1134.77,1370.43 1145.18,1404.88 1155.59,1436.4 1166.01,1445.72 1176.42,1432.25 1186.83,1411.19 1197.24,1397.75 1207.66,1396.59 1218.07,1395.13 1228.48,1355.94 1238.9,1220.55 1249.31,960.208 1259.72,646.518 1270.13,408.228 1280.55,303.119 1290.96,294.246 1301.37,320.308 1311.79,345.593 1322.2,360.208 1332.61,362.217 1343.02,351.035 1353.44,331.838 1363.85,314.191 1374.26,304.363 1384.68,305.114 1395.09,317.869 1405.5,341.784 1415.91,372.06 1426.33,396.795 1436.74,399.983 1447.15,375.585 1457.57,332.908 1467.98,293.209 1478.39,276.529 1488.8,288.455 1499.22,334.481 1509.63,389.64 1520.04,399.8 1530.45,345.856 1540.87,314.366 1551.28,368.762 1561.69,403.044 1572.11,395.226 1582.52,387.349 1592.93,372.146 1603.34,320.615 1613.76,247.358 1624.17,205.888 1634.58,231.307 1645,304.748 1655.41,385.431 1665.82,442.448 1676.23,461.773 1686.65,443.276 1697.06,395.069 1707.47,330.518 1717.89,266.861 1728.3,222.652 1738.71,212.356 1749.12,239.954 1759.54,296.756 1769.95,365.91 1780.36,429.306 1790.78,471.176 1801.19,478.629 1811.6,445.047 1822.01,378.28 1832.43,301.11 1842.84,235.259 1853.25,193.123 1863.67,189.58 1874.08,238.074 1884.49,326.629 1894.9,419.073 1905.32,482.83 1915.73,504.024 1926.14,482.744 1936.56,425.569 1946.97,343.156 1957.38,251.448 1967.79,173.835 1978.21,139.264 1988.62,169.246 1999.03,259.294 2009.45,376.184 2019.86,477.857 2030.27,535.237 2040.68,538.656 2051.1,492.426 2061.51,407.932 2071.92,300.559 2082.33,191.225 2092.75,110.009 2103.16,92.7903 2113.57,160.41 2123.99,293.63 2134.4,439.419 2144.81,546.51 2155.22,588.004 2165.64,558.71 2176.05,467.983 2186.46,340.487 2196.88,216.668 2207.29,138.862 2217.7,127.895 2228.11,174.115 2238.53,250.972 2248.94,333.786 2259.35,408.509 2269.77,470.772 2280.18,521.646 2290.59,564.163 "/>
<polyline clip-path="url(#clip922)" style="stroke:#e26f46; stroke-linecap:round; stroke-linejoin:round; stroke-width:4; stroke-opacity:1; fill:none" points="218.439,1107.27 228.852,1088.02 239.264,1073.82 249.677,1065.15 260.09,1062.28 270.503,1065.3 280.916,1074.13 291.329,1088.46 301.741,1107.84 312.154,1131.63 322.567,1159.06 332.98,1189.22 343.393,1221.14 353.805,1253.77 364.218,1286.05 374.631,1316.92 385.044,1345.38 395.457,1370.5 405.87,1391.46 416.282,1407.57 426.695,1418.31 437.108,1423.32 447.521,1422.45 457.934,1415.73 468.347,1403.36 478.759,1385.76 489.172,1363.51 499.585,1337.31 509.998,1308.04 520.411,1276.65 530.824,1244.16 541.236,1211.62 551.649,1180.12 562.062,1150.66 572.475,1124.22 582.888,1101.65 593.301,1083.7 603.713,1070.94 614.126,1063.8 624.539,1062.51 634.952,1067.11 645.365,1077.44 655.777,1093.18 666.19,1113.81 676.603,1138.66 687.016,1166.91 697.429,1197.64 707.842,1229.85 718.254,1262.5 728.667,1294.5 739.08,1324.82 749.493,1352.48 759.906,1376.55 770.319,1396.27 780.731,1410.99 791.144,1420.22 801.557,1423.67 811.97,1421.22 822.383,1412.95 832.796,1399.14 843.208,1380.23 853.621,1356.84 864.034,1329.73 874.447,1299.8 884.86,1268.01 895.273,1235.4 905.685,1203.04 916.098,1171.98 926.511,1143.24 936.924,1117.76 947.337,1096.36 957.749,1079.75 968.162,1068.46 978.575,1062.88 988.988,1063.17 999.401,1069.32 1009.81,1081.15 1020.23,1098.26 1030.64,1120.09 1041.05,1145.93 1051.46,1174.94 1061.88,1206.17 1072.29,1238.6 1082.7,1271.18 1093.12,1302.83 1103.53,1332.53 1113.94,1359.31 1124.35,1382.29 1134.77,1400.73 1145.18,1414.02 1155.59,1421.72 1166.01,1423.59 1176.42,1419.57 1186.83,1409.78 1197.24,1394.55 1207.66,1374.37 1218.07,1349.91 1228.48,1321.95 1238.9,1291.42 1249.31,1259.31 1259.72,338.132 1270.13,336.639 1280.55,337.998 1290.96,342.522 1301.37,348.826 1311.79,354.244 1322.2,355.849 1332.61,351.68 1343.02,341.741 1353.44,328.342 1363.85,315.592 1374.26,308.143 1384.68,309.572 1395.09,320.937 1405.5,340.051 1415.91,361.805 1426.33,379.52 1436.74,386.993 1447.15,380.596 1457.57,360.749 1467.98,332.202 1478.39,302.946 1488.8,281.978 1499.22,276.546 1509.63,289.714 1520.04,319.05 1530.45,356.937 1540.87,392.527 1551.28,414.848 1561.69,416.17 1572.11,394.606 1582.52,355.085 1592.93,308.302 1603.34,267.835 1613.76,246.203 1624.17,251.013 1634.58,282.375 1645,332.443 1655.41,387.329 1665.82,430.959 1676.23,449.769 1686.65,436.906 1697.06,394.608 1707.47,333.984 1717.89,272.118 1728.3,227.26 1738.71,213.445 1749.12,236.13 1759.54,290.2 1769.95,361.033 1780.36,428.439 1790.78,472.417 1801.19,479.078 1811.6,445.002 1822.01,378.651 1832.43,298.319 1842.84,227.098 1853.25,186.239 1863.67,188.822 1874.08,235.61 1884.49,314.399 1894.9,403.166 1905.32,476.224 1915.73,511.65 1926.14,497.855 1936.56,437.319 1946.97,346.303 1957.38,250.504 1967.79,177.801 1978.21,150.146 1988.62,176.946 1999.03,251.945 2009.45,354.603 2019.86,455.711 2030.27,525.697 2040.68,543.276 2051.1,501.901 2061.51,412.077 2071.92,298.738 2082.33,194.335 2092.75,129.544 2103.16,124.259 2113.57,181.507 2123.99,286.144 2134.4,408.835 2144.81,514.268 2155.22,571.319 2165.64,562.235 2176.05,488.126 2186.46,369.073 2196.88,238.713 2207.29,134.733 2217.7,87.9763 2228.11,113.306 2238.53,204.918 2248.94,337.589 2259.35,473.607 2269.77,573.49 2280.18,607.443 2290.59,564.238 "/>
<path clip-path="url(#clip920)" d="M229.49 250.738 L675.966 250.738 L675.966 95.2176 L229.49 95.2176  Z" fill="#ffffff" fill-rule="evenodd" fill-opacity="1"/>
<polyline clip-path="url(#clip920)" style="stroke:#000000; stroke-linecap:round; stroke-linejoin:round; stroke-width:4; stroke-opacity:1; fill:none" points="229.49,250.738 675.966,250.738 675.966,95.2176 229.49,95.2176 229.49,250.738 "/>
<polyline clip-path="url(#clip920)" style="stroke:#009af9; stroke-linecap:round; stroke-linejoin:round; stroke-width:16; stroke-opacity:1; fill:none" stroke-dasharray="8, 16" points="253.896,147.058 400.328,147.058 "/>
<path clip-path="url(#clip920)" d="M429.409 133.62 L429.409 146.606 L435.289 146.606 Q438.552 146.606 440.335 144.916 Q442.117 143.227 442.117 140.102 Q442.117 137 440.335 135.31 Q438.552 133.62 435.289 133.62 L429.409 133.62 M424.733 129.778 L435.289 129.778 Q441.099 129.778 444.062 132.416 Q447.048 135.032 447.048 140.102 Q447.048 145.217 444.062 147.833 Q441.099 150.449 435.289 150.449 L429.409 150.449 L429.409 164.338 L424.733 164.338 L424.733 129.778 Z" fill="#000000" fill-rule="nonzero" fill-opacity="1" /><path clip-path="url(#clip920)" d="M467.325 142.393 Q466.608 141.977 465.751 141.791 Q464.918 141.583 463.899 141.583 Q460.288 141.583 458.344 143.944 Q456.423 146.282 456.423 150.68 L456.423 164.338 L452.14 164.338 L452.14 138.412 L456.423 138.412 L456.423 142.44 Q457.765 140.078 459.918 138.944 Q462.071 137.787 465.149 137.787 Q465.589 137.787 466.122 137.856 Q466.654 137.903 467.302 138.018 L467.325 142.393 Z" fill="#000000" fill-rule="nonzero" fill-opacity="1" /><path clip-path="url(#clip920)" d="M492.927 150.31 L492.927 152.393 L473.344 152.393 Q473.622 156.791 475.983 159.106 Q478.367 161.398 482.603 161.398 Q485.057 161.398 487.348 160.796 Q489.663 160.194 491.932 158.99 L491.932 163.018 Q489.64 163.99 487.233 164.5 Q484.825 165.009 482.348 165.009 Q476.145 165.009 472.511 161.398 Q468.899 157.787 468.899 151.629 Q468.899 145.264 472.325 141.537 Q475.774 137.787 481.608 137.787 Q486.839 137.787 489.872 141.166 Q492.927 144.523 492.927 150.31 M488.668 149.06 Q488.622 145.565 486.7 143.481 Q484.802 141.398 481.654 141.398 Q478.089 141.398 475.936 143.412 Q473.807 145.426 473.483 149.083 L488.668 149.06 Z" fill="#000000" fill-rule="nonzero" fill-opacity="1" /><path clip-path="url(#clip920)" d="M516.978 142.347 L516.978 128.319 L521.237 128.319 L521.237 164.338 L516.978 164.338 L516.978 160.449 Q515.635 162.763 513.575 163.898 Q511.538 165.009 508.668 165.009 Q503.969 165.009 501.006 161.259 Q498.066 157.509 498.066 151.398 Q498.066 145.287 501.006 141.537 Q503.969 137.787 508.668 137.787 Q511.538 137.787 513.575 138.921 Q515.635 140.032 516.978 142.347 M502.464 151.398 Q502.464 156.097 504.385 158.782 Q506.33 161.444 509.709 161.444 Q513.089 161.444 515.033 158.782 Q516.978 156.097 516.978 151.398 Q516.978 146.699 515.033 144.037 Q513.089 141.352 509.709 141.352 Q506.33 141.352 504.385 144.037 Q502.464 146.699 502.464 151.398 Z" fill="#000000" fill-rule="nonzero" fill-opacity="1" /><path clip-path="url(#clip920)" d="M530.01 138.412 L534.269 138.412 L534.269 164.338 L530.01 164.338 L530.01 138.412 M530.01 128.319 L534.269 128.319 L534.269 133.713 L530.01 133.713 L530.01 128.319 Z" fill="#000000" fill-rule="nonzero" fill-opacity="1" /><path clip-path="url(#clip920)" d="M561.839 139.407 L561.839 143.389 Q560.033 142.393 558.205 141.907 Q556.399 141.398 554.547 141.398 Q550.404 141.398 548.112 144.037 Q545.82 146.652 545.82 151.398 Q545.82 156.143 548.112 158.782 Q550.404 161.398 554.547 161.398 Q556.399 161.398 558.205 160.912 Q560.033 160.402 561.839 159.407 L561.839 163.342 Q560.056 164.176 558.135 164.592 Q556.237 165.009 554.084 165.009 Q548.228 165.009 544.779 161.328 Q541.33 157.648 541.33 151.398 Q541.33 145.055 544.802 141.421 Q548.297 137.787 554.362 137.787 Q556.33 137.787 558.205 138.203 Q560.08 138.597 561.839 139.407 Z" fill="#000000" fill-rule="nonzero" fill-opacity="1" /><path clip-path="url(#clip920)" d="M573.459 131.051 L573.459 138.412 L582.232 138.412 L582.232 141.722 L573.459 141.722 L573.459 155.796 Q573.459 158.967 574.316 159.87 Q575.195 160.773 577.857 160.773 L582.232 160.773 L582.232 164.338 L577.857 164.338 Q572.927 164.338 571.052 162.509 Q569.177 160.657 569.177 155.796 L569.177 141.722 L566.052 141.722 L566.052 138.412 L569.177 138.412 L569.177 131.051 L573.459 131.051 Z" fill="#000000" fill-rule="nonzero" fill-opacity="1" /><path clip-path="url(#clip920)" d="M587.834 138.412 L592.093 138.412 L592.093 164.338 L587.834 164.338 L587.834 138.412 M587.834 128.319 L592.093 128.319 L592.093 133.713 L587.834 133.713 L587.834 128.319 Z" fill="#000000" fill-rule="nonzero" fill-opacity="1" /><path clip-path="url(#clip920)" d="M611.051 141.398 Q607.626 141.398 605.635 144.083 Q603.644 146.745 603.644 151.398 Q603.644 156.051 605.612 158.736 Q607.602 161.398 611.051 161.398 Q614.454 161.398 616.445 158.713 Q618.436 156.027 618.436 151.398 Q618.436 146.791 616.445 144.106 Q614.454 141.398 611.051 141.398 M611.051 137.787 Q616.607 137.787 619.778 141.398 Q622.95 145.009 622.95 151.398 Q622.95 157.764 619.778 161.398 Q616.607 165.009 611.051 165.009 Q605.473 165.009 602.302 161.398 Q599.153 157.764 599.153 151.398 Q599.153 145.009 602.302 141.398 Q605.473 137.787 611.051 137.787 Z" fill="#000000" fill-rule="nonzero" fill-opacity="1" /><path clip-path="url(#clip920)" d="M651.561 148.689 L651.561 164.338 L647.301 164.338 L647.301 148.828 Q647.301 145.148 645.866 143.319 Q644.431 141.49 641.561 141.49 Q638.112 141.49 636.121 143.69 Q634.13 145.889 634.13 149.685 L634.13 164.338 L629.848 164.338 L629.848 138.412 L634.13 138.412 L634.13 142.44 Q635.658 140.102 637.718 138.944 Q639.801 137.787 642.51 137.787 Q646.977 137.787 649.269 140.565 Q651.561 143.319 651.561 148.689 Z" fill="#000000" fill-rule="nonzero" fill-opacity="1" /><polyline clip-path="url(#clip920)" style="stroke:#e26f46; stroke-linecap:round; stroke-linejoin:round; stroke-width:4; stroke-opacity:1; fill:none" points="253.896,198.898 400.328,198.898 "/>
<path clip-path="url(#clip920)" d="M424.733 181.618 L446.585 181.618 L446.585 185.553 L429.409 185.553 L429.409 195.784 L445.867 195.784 L445.867 199.719 L429.409 199.719 L429.409 212.242 L447.001 212.242 L447.001 216.178 L424.733 216.178 L424.733 181.618 Z" fill="#000000" fill-rule="nonzero" fill-opacity="1" /><path clip-path="url(#clip920)" d="M476.052 190.252 L466.677 202.867 L476.538 216.178 L471.515 216.178 L463.969 205.992 L456.423 216.178 L451.4 216.178 L461.469 202.613 L452.256 190.252 L457.279 190.252 L464.154 199.488 L471.029 190.252 L476.052 190.252 Z" fill="#000000" fill-rule="nonzero" fill-opacity="1" /><path clip-path="url(#clip920)" d="M494.339 203.145 Q489.177 203.145 487.186 204.326 Q485.196 205.506 485.196 208.354 Q485.196 210.622 486.677 211.965 Q488.182 213.284 490.751 213.284 Q494.293 213.284 496.422 210.784 Q498.575 208.261 498.575 204.094 L498.575 203.145 L494.339 203.145 M502.834 201.386 L502.834 216.178 L498.575 216.178 L498.575 212.242 Q497.117 214.603 494.941 215.738 Q492.765 216.849 489.617 216.849 Q485.635 216.849 483.274 214.627 Q480.936 212.381 480.936 208.631 Q480.936 204.256 483.853 202.034 Q486.793 199.812 492.603 199.812 L498.575 199.812 L498.575 199.395 Q498.575 196.455 496.631 194.858 Q494.71 193.238 491.214 193.238 Q488.992 193.238 486.885 193.77 Q484.779 194.303 482.835 195.367 L482.835 191.432 Q485.173 190.53 487.372 190.09 Q489.571 189.627 491.654 189.627 Q497.279 189.627 500.057 192.543 Q502.834 195.46 502.834 201.386 Z" fill="#000000" fill-rule="nonzero" fill-opacity="1" /><path clip-path="url(#clip920)" d="M530.265 191.247 L530.265 195.229 Q528.459 194.233 526.631 193.747 Q524.825 193.238 522.973 193.238 Q518.83 193.238 516.538 195.877 Q514.246 198.492 514.246 203.238 Q514.246 207.983 516.538 210.622 Q518.83 213.238 522.973 213.238 Q524.825 213.238 526.631 212.752 Q528.459 212.242 530.265 211.247 L530.265 215.182 Q528.482 216.016 526.561 216.432 Q524.663 216.849 522.51 216.849 Q516.654 216.849 513.205 213.168 Q509.756 209.488 509.756 203.238 Q509.756 196.895 513.228 193.261 Q516.723 189.627 522.788 189.627 Q524.756 189.627 526.631 190.043 Q528.506 190.437 530.265 191.247 Z" fill="#000000" fill-rule="nonzero" fill-opacity="1" /><path clip-path="url(#clip920)" d="M541.885 182.891 L541.885 190.252 L550.658 190.252 L550.658 193.562 L541.885 193.562 L541.885 207.636 Q541.885 210.807 542.742 211.71 Q543.621 212.613 546.283 212.613 L550.658 212.613 L550.658 216.178 L546.283 216.178 Q541.353 216.178 539.478 214.349 Q537.603 212.497 537.603 207.636 L537.603 193.562 L534.478 193.562 L534.478 190.252 L537.603 190.252 L537.603 182.891 L541.885 182.891 Z" fill="#000000" fill-rule="nonzero" fill-opacity="1" /></svg>
