<?xml version="1.0" encoding="utf-8"?>
<svg xmlns="http://www.w3.org/2000/svg" xmlns:xlink="http://www.w3.org/1999/xlink" width="600" height="400" viewBox="0 0 2400 1600">
<defs>
  <clipPath id="clip950">
    <rect x="0" y="0" width="2400" height="1600"/>
  </clipPath>
</defs>
<path clip-path="url(#clip950)" d="M0 1600 L2400 1600 L2400 0 L0 0  Z" fill="#ffffff" fill-rule="evenodd" fill-opacity="1"/>
<defs>
  <clipPath id="clip951">
    <rect x="480" y="0" width="1681" height="1600"/>
  </clipPath>
</defs>
<path clip-path="url(#clip950)" d="M156.274 1486.45 L2352.76 1486.45 L2352.76 47.2441 L156.274 47.2441  Z" fill="#ffffff" fill-rule="evenodd" fill-opacity="1"/>
<defs>
  <clipPath id="clip952">
    <rect x="156" y="47" width="2197" height="1440"/>
  </clipPath>
</defs>
<polyline clip-path="url(#clip952)" style="stroke:#000000; stroke-linecap:round; stroke-linejoin:round; stroke-width:2; stroke-opacity:0.1; fill:none" points="218.439,1486.45 218.439,47.2441 "/>
<polyline clip-path="url(#clip952)" style="stroke:#000000; stroke-linecap:round; stroke-linejoin:round; stroke-width:2; stroke-opacity:0.1; fill:none" points="736.477,1486.45 736.477,47.2441 "/>
<polyline clip-path="url(#clip952)" style="stroke:#000000; stroke-linecap:round; stroke-linejoin:round; stroke-width:2; stroke-opacity:0.1; fill:none" points="1254.52,1486.45 1254.52,47.2441 "/>
<polyline clip-path="url(#clip952)" style="stroke:#000000; stroke-linecap:round; stroke-linejoin:round; stroke-width:2; stroke-opacity:0.1; fill:none" points="1772.55,1486.45 1772.55,47.2441 "/>
<polyline clip-path="url(#clip952)" style="stroke:#000000; stroke-linecap:round; stroke-linejoin:round; stroke-width:2; stroke-opacity:0.1; fill:none" points="2290.59,1486.45 2290.59,47.2441 "/>
<polyline clip-path="url(#clip950)" style="stroke:#000000; stroke-linecap:round; stroke-linejoin:round; stroke-width:4; stroke-opacity:1; fill:none" points="156.274,1486.45 2352.76,1486.45 "/>
<polyline clip-path="url(#clip950)" style="stroke:#000000; stroke-linecap:round; stroke-linejoin:round; stroke-width:4; stroke-opacity:1; fill:none" points="218.439,1486.45 218.439,1467.55 "/>
<polyline clip-path="url(#clip950)" style="stroke:#000000; stroke-linecap:round; stroke-linejoin:round; stroke-width:4; stroke-opacity:1; fill:none" points="736.477,1486.45 736.477,1467.55 "/>
<polyline clip-path="url(#clip950)" style="stroke:#000000; stroke-linecap:round; stroke-linejoin:round; stroke-width:4; stroke-opacity:1; fill:none" points="1254.52,1486.45 1254.52,1467.55 "/>
<polyline clip-path="url(#clip950)" style="stroke:#000000; stroke-linecap:round; stroke-linejoin:round; stroke-width:4; stroke-opacity:1; fill:none" points="1772.55,1486.45 1772.55,1467.55 "/>
<polyline clip-path="url(#clip950)" style="stroke:#000000; stroke-linecap:round; stroke-linejoin:round; stroke-width:4; stroke-opacity:1; fill:none" points="2290.59,1486.45 2290.59,1467.55 "/>
<path clip-path="url(#clip950)" d="M164.967 1532.02 L194.643 1532.02 L194.643 1535.95 L164.967 1535.95 L164.967 1532.02 Z" fill="#000000" fill-rule="nonzero" fill-opacity="1" /><path clip-path="url(#clip950)" d="M205.545 1544.91 L213.184 1544.91 L213.184 1518.55 L204.874 1520.21 L204.874 1515.95 L213.138 1514.29 L217.814 1514.29 L217.814 1544.91 L225.453 1544.91 L225.453 1548.85 L205.545 1548.85 L205.545 1544.91 Z" fill="#000000" fill-rule="nonzero" fill-opacity="1" /><path clip-path="url(#clip950)" d="M234.897 1542.97 L239.781 1542.97 L239.781 1548.85 L234.897 1548.85 L234.897 1542.97 Z" fill="#000000" fill-rule="nonzero" fill-opacity="1" /><path clip-path="url(#clip950)" d="M259.966 1517.37 Q256.355 1517.37 254.527 1520.93 Q252.721 1524.47 252.721 1531.6 Q252.721 1538.71 254.527 1542.27 Q256.355 1545.82 259.966 1545.82 Q263.601 1545.82 265.406 1542.27 Q267.235 1538.71 267.235 1531.6 Q267.235 1524.47 265.406 1520.93 Q263.601 1517.37 259.966 1517.37 M259.966 1513.66 Q265.776 1513.66 268.832 1518.27 Q271.911 1522.85 271.911 1531.6 Q271.911 1540.33 268.832 1544.94 Q265.776 1549.52 259.966 1549.52 Q254.156 1549.52 251.077 1544.94 Q248.022 1540.33 248.022 1531.6 Q248.022 1522.85 251.077 1518.27 Q254.156 1513.66 259.966 1513.66 Z" fill="#000000" fill-rule="nonzero" fill-opacity="1" /><path clip-path="url(#clip950)" d="M683.503 1532.02 L713.178 1532.02 L713.178 1535.95 L683.503 1535.95 L683.503 1532.02 Z" fill="#000000" fill-rule="nonzero" fill-opacity="1" /><path clip-path="url(#clip950)" d="M733.271 1517.37 Q729.66 1517.37 727.831 1520.93 Q726.026 1524.47 726.026 1531.6 Q726.026 1538.71 727.831 1542.27 Q729.66 1545.82 733.271 1545.82 Q736.905 1545.82 738.711 1542.27 Q740.539 1538.71 740.539 1531.6 Q740.539 1524.47 738.711 1520.93 Q736.905 1517.37 733.271 1517.37 M733.271 1513.66 Q739.081 1513.66 742.137 1518.27 Q745.215 1522.85 745.215 1531.6 Q745.215 1540.33 742.137 1544.94 Q739.081 1549.52 733.271 1549.52 Q727.461 1549.52 724.382 1544.94 Q721.327 1540.33 721.327 1531.6 Q721.327 1522.85 724.382 1518.27 Q727.461 1513.66 733.271 1513.66 Z" fill="#000000" fill-rule="nonzero" fill-opacity="1" /><path clip-path="url(#clip950)" d="M753.433 1542.97 L758.317 1542.97 L758.317 1548.85 L753.433 1548.85 L753.433 1542.97 Z" fill="#000000" fill-rule="nonzero" fill-opacity="1" /><path clip-path="url(#clip950)" d="M768.548 1514.29 L786.905 1514.29 L786.905 1518.22 L772.831 1518.22 L772.831 1526.7 Q773.849 1526.35 774.868 1526.19 Q775.886 1526 776.905 1526 Q782.692 1526 786.072 1529.17 Q789.451 1532.34 789.451 1537.76 Q789.451 1543.34 785.979 1546.44 Q782.507 1549.52 776.187 1549.52 Q774.011 1549.52 771.743 1549.15 Q769.498 1548.78 767.09 1548.04 L767.09 1543.34 Q769.173 1544.47 771.396 1545.03 Q773.618 1545.58 776.095 1545.58 Q780.099 1545.58 782.437 1543.48 Q784.775 1541.37 784.775 1537.76 Q784.775 1534.15 782.437 1532.04 Q780.099 1529.94 776.095 1529.94 Q774.22 1529.94 772.345 1530.35 Q770.493 1530.77 768.548 1531.65 L768.548 1514.29 Z" fill="#000000" fill-rule="nonzero" fill-opacity="1" /><path clip-path="url(#clip950)" d="M1231.9 1517.37 Q1228.29 1517.37 1226.46 1520.93 Q1224.65 1524.47 1224.65 1531.6 Q1224.65 1538.71 1226.46 1542.27 Q1228.29 1545.82 1231.9 1545.82 Q1235.53 1545.82 1237.34 1542.27 Q1239.17 1538.71 1239.17 1531.6 Q1239.17 1524.47 1237.34 1520.93 Q1235.53 1517.37 1231.9 1517.37 M1231.9 1513.66 Q1237.71 1513.66 1240.77 1518.27 Q1243.84 1522.85 1243.84 1531.6 Q1243.84 1540.33 1240.77 1544.94 Q1237.71 1549.52 1231.9 1549.52 Q1226.09 1549.52 1223.01 1544.94 Q1219.96 1540.33 1219.96 1531.6 Q1219.96 1522.85 1223.01 1518.27 Q1226.09 1513.66 1231.9 1513.66 Z" fill="#000000" fill-rule="nonzero" fill-opacity="1" /><path clip-path="url(#clip950)" d="M1252.06 1542.97 L1256.95 1542.97 L1256.95 1548.85 L1252.06 1548.85 L1252.06 1542.97 Z" fill="#000000" fill-rule="nonzero" fill-opacity="1" /><path clip-path="url(#clip950)" d="M1277.13 1517.37 Q1273.52 1517.37 1271.69 1520.93 Q1269.89 1524.47 1269.89 1531.6 Q1269.89 1538.71 1271.69 1542.27 Q1273.52 1545.82 1277.13 1545.82 Q1280.76 1545.82 1282.57 1542.27 Q1284.4 1538.71 1284.4 1531.6 Q1284.4 1524.47 1282.57 1520.93 Q1280.76 1517.37 1277.13 1517.37 M1277.13 1513.66 Q1282.94 1513.66 1286 1518.27 Q1289.08 1522.85 1289.08 1531.6 Q1289.08 1540.33 1286 1544.94 Q1282.94 1549.52 1277.13 1549.52 Q1271.32 1549.52 1268.24 1544.94 Q1265.19 1540.33 1265.19 1531.6 Q1265.19 1522.85 1268.24 1518.27 Q1271.32 1513.66 1277.13 1513.66 Z" fill="#000000" fill-rule="nonzero" fill-opacity="1" /><path clip-path="url(#clip950)" d="M1750.44 1517.37 Q1746.82 1517.37 1745 1520.93 Q1743.19 1524.47 1743.19 1531.6 Q1743.19 1538.71 1745 1542.27 Q1746.82 1545.82 1750.44 1545.82 Q1754.07 1545.82 1755.88 1542.27 Q1757.7 1538.71 1757.7 1531.6 Q1757.7 1524.47 1755.88 1520.93 Q1754.07 1517.37 1750.44 1517.37 M1750.44 1513.66 Q1756.25 1513.66 1759.3 1518.27 Q1762.38 1522.85 1762.38 1531.6 Q1762.38 1540.33 1759.3 1544.94 Q1756.25 1549.52 1750.44 1549.52 Q1744.63 1549.52 1741.55 1544.94 Q1738.49 1540.33 1738.49 1531.6 Q1738.49 1522.85 1741.55 1518.27 Q1744.63 1513.66 1750.44 1513.66 Z" fill="#000000" fill-rule="nonzero" fill-opacity="1" /><path clip-path="url(#clip950)" d="M1770.6 1542.97 L1775.48 1542.97 L1775.48 1548.85 L1770.6 1548.85 L1770.6 1542.97 Z" fill="#000000" fill-rule="nonzero" fill-opacity="1" /><path clip-path="url(#clip950)" d="M1785.71 1514.29 L1804.07 1514.29 L1804.07 1518.22 L1790 1518.22 L1790 1526.7 Q1791.01 1526.35 1792.03 1526.19 Q1793.05 1526 1794.07 1526 Q1799.86 1526 1803.24 1529.17 Q1806.62 1532.34 1806.62 1537.76 Q1806.62 1543.34 1803.14 1546.44 Q1799.67 1549.52 1793.35 1549.52 Q1791.18 1549.52 1788.91 1549.15 Q1786.66 1548.78 1784.25 1548.04 L1784.25 1543.34 Q1786.34 1544.47 1788.56 1545.03 Q1790.78 1545.58 1793.26 1545.58 Q1797.26 1545.58 1799.6 1543.48 Q1801.94 1541.37 1801.94 1537.76 Q1801.94 1534.15 1799.6 1532.04 Q1797.26 1529.94 1793.26 1529.94 Q1791.38 1529.94 1789.51 1530.35 Q1787.66 1530.77 1785.71 1531.65 L1785.71 1514.29 Z" fill="#000000" fill-rule="nonzero" fill-opacity="1" /><path clip-path="url(#clip950)" d="M2257.74 1544.91 L2265.38 1544.91 L2265.38 1518.55 L2257.07 1520.21 L2257.07 1515.95 L2265.34 1514.29 L2270.01 1514.29 L2270.01 1544.91 L2277.65 1544.91 L2277.65 1548.85 L2257.74 1548.85 L2257.74 1544.91 Z" fill="#000000" fill-rule="nonzero" fill-opacity="1" /><path clip-path="url(#clip950)" d="M2287.1 1542.97 L2291.98 1542.97 L2291.98 1548.85 L2287.1 1548.85 L2287.1 1542.97 Z" fill="#000000" fill-rule="nonzero" fill-opacity="1" /><path clip-path="url(#clip950)" d="M2312.17 1517.37 Q2308.55 1517.37 2306.73 1520.93 Q2304.92 1524.47 2304.92 1531.6 Q2304.92 1538.71 2306.73 1542.27 Q2308.55 1545.82 2312.17 1545.82 Q2315.8 1545.82 2317.61 1542.27 Q2319.43 1538.71 2319.43 1531.6 Q2319.43 1524.47 2317.61 1520.93 Q2315.8 1517.37 2312.17 1517.37 M2312.17 1513.66 Q2317.98 1513.66 2321.03 1518.27 Q2324.11 1522.85 2324.11 1531.6 Q2324.11 1540.33 2321.03 1544.94 Q2317.98 1549.52 2312.17 1549.52 Q2306.36 1549.52 2303.28 1544.94 Q2300.22 1540.33 2300.22 1531.6 Q2300.22 1522.85 2303.28 1518.27 Q2306.36 1513.66 2312.17 1513.66 Z" fill="#000000" fill-rule="nonzero" fill-opacity="1" /><polyline clip-path="url(#clip952)" style="stroke:#000000; stroke-linecap:round; stroke-linejoin:round; stroke-width:2; stroke-opacity:0.1; fill:none" points="156.274,1240.08 2352.76,1240.08 "/>
<polyline clip-path="url(#clip952)" style="stroke:#000000; stroke-linecap:round; stroke-linejoin:round; stroke-width:2; stroke-opacity:0.1; fill:none" points="156.274,969.699 2352.76,969.699 "/>
<polyline clip-path="url(#clip952)" style="stroke:#000000; stroke-linecap:round; stroke-linejoin:round; stroke-width:2; stroke-opacity:0.1; fill:none" points="156.274,699.319 2352.76,699.319 "/>
<polyline clip-path="url(#clip952)" style="stroke:#000000; stroke-linecap:round; stroke-linejoin:round; stroke-width:2; stroke-opacity:0.1; fill:none" points="156.274,428.939 2352.76,428.939 "/>
<polyline clip-path="url(#clip952)" style="stroke:#000000; stroke-linecap:round; stroke-linejoin:round; stroke-width:2; stroke-opacity:0.1; fill:none" points="156.274,158.559 2352.76,158.559 "/>
<polyline clip-path="url(#clip950)" style="stroke:#000000; stroke-linecap:round; stroke-linejoin:round; stroke-width:4; stroke-opacity:1; fill:none" points="156.274,1486.45 156.274,47.2441 "/>
<polyline clip-path="url(#clip950)" style="stroke:#000000; stroke-linecap:round; stroke-linejoin:round; stroke-width:4; stroke-opacity:1; fill:none" points="156.274,1240.08 175.172,1240.08 "/>
<polyline clip-path="url(#clip950)" style="stroke:#000000; stroke-linecap:round; stroke-linejoin:round; stroke-width:4; stroke-opacity:1; fill:none" points="156.274,969.699 175.172,969.699 "/>
<polyline clip-path="url(#clip950)" style="stroke:#000000; stroke-linecap:round; stroke-linejoin:round; stroke-width:4; stroke-opacity:1; fill:none" points="156.274,699.319 175.172,699.319 "/>
<polyline clip-path="url(#clip950)" style="stroke:#000000; stroke-linecap:round; stroke-linejoin:round; stroke-width:4; stroke-opacity:1; fill:none" points="156.274,428.939 175.172,428.939 "/>
<polyline clip-path="url(#clip950)" style="stroke:#000000; stroke-linecap:round; stroke-linejoin:round; stroke-width:4; stroke-opacity:1; fill:none" points="156.274,158.559 175.172,158.559 "/>
<path clip-path="url(#clip950)" d="M63.0985 1225.88 Q59.4875 1225.88 57.6588 1229.44 Q55.8532 1232.98 55.8532 1240.11 Q55.8532 1247.22 57.6588 1250.79 Q59.4875 1254.33 63.0985 1254.33 Q66.7328 1254.33 68.5383 1250.79 Q70.367 1247.22 70.367 1240.11 Q70.367 1232.98 68.5383 1229.44 Q66.7328 1225.88 63.0985 1225.88 M63.0985 1222.17 Q68.9087 1222.17 71.9642 1226.78 Q75.0429 1231.36 75.0429 1240.11 Q75.0429 1248.84 71.9642 1253.45 Q68.9087 1258.03 63.0985 1258.03 Q57.2884 1258.03 54.2097 1253.45 Q51.1542 1248.84 51.1542 1240.11 Q51.1542 1231.36 54.2097 1226.78 Q57.2884 1222.17 63.0985 1222.17 Z" fill="#000000" fill-rule="nonzero" fill-opacity="1" /><path clip-path="url(#clip950)" d="M83.2605 1251.48 L88.1447 1251.48 L88.1447 1257.36 L83.2605 1257.36 L83.2605 1251.48 Z" fill="#000000" fill-rule="nonzero" fill-opacity="1" /><path clip-path="url(#clip950)" d="M108.33 1225.88 Q104.719 1225.88 102.89 1229.44 Q101.084 1232.98 101.084 1240.11 Q101.084 1247.22 102.89 1250.79 Q104.719 1254.33 108.33 1254.33 Q111.964 1254.33 113.77 1250.79 Q115.598 1247.22 115.598 1240.11 Q115.598 1232.98 113.77 1229.44 Q111.964 1225.88 108.33 1225.88 M108.33 1222.17 Q114.14 1222.17 117.195 1226.78 Q120.274 1231.36 120.274 1240.11 Q120.274 1248.84 117.195 1253.45 Q114.14 1258.03 108.33 1258.03 Q102.52 1258.03 99.4409 1253.45 Q96.3854 1248.84 96.3854 1240.11 Q96.3854 1231.36 99.4409 1226.78 Q102.52 1222.17 108.33 1222.17 Z" fill="#000000" fill-rule="nonzero" fill-opacity="1" /><path clip-path="url(#clip950)" d="M63.7467 955.498 Q60.1356 955.498 58.3069 959.063 Q56.5014 962.604 56.5014 969.734 Q56.5014 976.84 58.3069 980.405 Q60.1356 983.947 63.7467 983.947 Q67.3809 983.947 69.1865 980.405 Q71.0152 976.84 71.0152 969.734 Q71.0152 962.604 69.1865 959.063 Q67.3809 955.498 63.7467 955.498 M63.7467 951.794 Q69.5568 951.794 72.6124 956.401 Q75.6911 960.984 75.6911 969.734 Q75.6911 978.461 72.6124 983.067 Q69.5568 987.65 63.7467 987.65 Q57.9365 987.65 54.8578 983.067 Q51.8023 978.461 51.8023 969.734 Q51.8023 960.984 54.8578 956.401 Q57.9365 951.794 63.7467 951.794 Z" fill="#000000" fill-rule="nonzero" fill-opacity="1" /><path clip-path="url(#clip950)" d="M83.9086 981.1 L88.7928 981.1 L88.7928 986.979 L83.9086 986.979 L83.9086 981.1 Z" fill="#000000" fill-rule="nonzero" fill-opacity="1" /><path clip-path="url(#clip950)" d="M113.145 968.345 Q116.501 969.063 118.376 971.331 Q120.274 973.6 120.274 976.933 Q120.274 982.049 116.756 984.85 Q113.237 987.65 106.756 987.65 Q104.58 987.65 102.265 987.211 Q99.9733 986.794 97.5197 985.938 L97.5197 981.424 Q99.4641 982.558 101.779 983.137 Q104.094 983.715 106.617 983.715 Q111.015 983.715 113.307 981.979 Q115.621 980.243 115.621 976.933 Q115.621 973.877 113.469 972.164 Q111.339 970.428 107.52 970.428 L103.492 970.428 L103.492 966.586 L107.705 966.586 Q111.154 966.586 112.983 965.22 Q114.811 963.831 114.811 961.239 Q114.811 958.577 112.913 957.165 Q111.038 955.729 107.52 955.729 Q105.598 955.729 103.399 956.146 Q101.2 956.563 98.5613 957.442 L98.5613 953.276 Q101.223 952.535 103.538 952.165 Q105.876 951.794 107.936 951.794 Q113.26 951.794 116.362 954.225 Q119.464 956.632 119.464 960.752 Q119.464 963.623 117.82 965.614 Q116.177 967.581 113.145 968.345 Z" fill="#000000" fill-rule="nonzero" fill-opacity="1" /><path clip-path="url(#clip950)" d="M62.9365 685.118 Q59.3254 685.118 57.4967 688.683 Q55.6912 692.224 55.6912 699.354 Q55.6912 706.46 57.4967 710.025 Q59.3254 713.567 62.9365 713.567 Q66.5707 713.567 68.3763 710.025 Q70.205 706.46 70.205 699.354 Q70.205 692.224 68.3763 688.683 Q66.5707 685.118 62.9365 685.118 M62.9365 681.414 Q68.7467 681.414 71.8022 686.021 Q74.8809 690.604 74.8809 699.354 Q74.8809 708.081 71.8022 712.687 Q68.7467 717.27 62.9365 717.27 Q57.1264 717.27 54.0477 712.687 Q50.9921 708.081 50.9921 699.354 Q50.9921 690.604 54.0477 686.021 Q57.1264 681.414 62.9365 681.414 Z" fill="#000000" fill-rule="nonzero" fill-opacity="1" /><path clip-path="url(#clip950)" d="M83.0984 710.72 L87.9827 710.72 L87.9827 716.599 L83.0984 716.599 L83.0984 710.72 Z" fill="#000000" fill-rule="nonzero" fill-opacity="1" /><path clip-path="url(#clip950)" d="M108.746 697.456 Q105.598 697.456 103.746 699.608 Q101.918 701.761 101.918 705.511 Q101.918 709.238 103.746 711.414 Q105.598 713.567 108.746 713.567 Q111.895 713.567 113.723 711.414 Q115.575 709.238 115.575 705.511 Q115.575 701.761 113.723 699.608 Q111.895 697.456 108.746 697.456 M118.029 682.803 L118.029 687.062 Q116.27 686.229 114.464 685.789 Q112.682 685.349 110.922 685.349 Q106.293 685.349 103.839 688.474 Q101.409 691.599 101.061 697.919 Q102.427 695.905 104.487 694.84 Q106.547 693.752 109.024 693.752 Q114.233 693.752 117.242 696.923 Q120.274 700.071 120.274 705.511 Q120.274 710.835 117.126 714.053 Q113.978 717.27 108.746 717.27 Q102.751 717.27 99.5798 712.687 Q96.4085 708.081 96.4085 699.354 Q96.4085 691.159 100.297 686.298 Q104.186 681.414 110.737 681.414 Q112.496 681.414 114.279 681.761 Q116.084 682.109 118.029 682.803 Z" fill="#000000" fill-rule="nonzero" fill-opacity="1" /><path clip-path="url(#clip950)" d="M63.2837 414.738 Q59.6726 414.738 57.8439 418.303 Q56.0384 421.844 56.0384 428.974 Q56.0384 436.08 57.8439 439.645 Q59.6726 443.187 63.2837 443.187 Q66.918 443.187 68.7235 439.645 Q70.5522 436.08 70.5522 428.974 Q70.5522 421.844 68.7235 418.303 Q66.918 414.738 63.2837 414.738 M63.2837 411.034 Q69.0939 411.034 72.1494 415.64 Q75.2281 420.224 75.2281 428.974 Q75.2281 437.701 72.1494 442.307 Q69.0939 446.89 63.2837 446.89 Q57.4736 446.89 54.3949 442.307 Q51.3393 437.701 51.3393 428.974 Q51.3393 420.224 54.3949 415.64 Q57.4736 411.034 63.2837 411.034 Z" fill="#000000" fill-rule="nonzero" fill-opacity="1" /><path clip-path="url(#clip950)" d="M83.4457 440.339 L88.3299 440.339 L88.3299 446.219 L83.4457 446.219 L83.4457 440.339 Z" fill="#000000" fill-rule="nonzero" fill-opacity="1" /><path clip-path="url(#clip950)" d="M98.6539 445.501 L98.6539 441.242 Q100.413 442.076 102.219 442.515 Q104.024 442.955 105.76 442.955 Q110.39 442.955 112.82 439.853 Q115.274 436.728 115.621 430.386 Q114.279 432.377 112.219 433.441 Q110.158 434.506 107.658 434.506 Q102.473 434.506 99.4409 431.381 Q96.4317 428.233 96.4317 422.793 Q96.4317 417.469 99.5798 414.252 Q102.728 411.034 107.959 411.034 Q113.955 411.034 117.103 415.64 Q120.274 420.224 120.274 428.974 Q120.274 437.145 116.385 442.029 Q112.52 446.89 105.969 446.89 Q104.209 446.89 102.404 446.543 Q100.598 446.196 98.6539 445.501 M107.959 430.849 Q111.108 430.849 112.936 428.696 Q114.788 426.543 114.788 422.793 Q114.788 419.066 112.936 416.914 Q111.108 414.738 107.959 414.738 Q104.811 414.738 102.959 416.914 Q101.131 419.066 101.131 422.793 Q101.131 426.543 102.959 428.696 Q104.811 430.849 107.959 430.849 Z" fill="#000000" fill-rule="nonzero" fill-opacity="1" /><path clip-path="url(#clip950)" d="M55.506 171.904 L63.1448 171.904 L63.1448 145.538 L54.8347 147.205 L54.8347 142.946 L63.0985 141.279 L67.7744 141.279 L67.7744 171.904 L75.4133 171.904 L75.4133 175.839 L55.506 175.839 L55.506 171.904 Z" fill="#000000" fill-rule="nonzero" fill-opacity="1" /><path clip-path="url(#clip950)" d="M84.8577 169.959 L89.7419 169.959 L89.7419 175.839 L84.8577 175.839 L84.8577 169.959 Z" fill="#000000" fill-rule="nonzero" fill-opacity="1" /><path clip-path="url(#clip950)" d="M103.955 171.904 L120.274 171.904 L120.274 175.839 L98.3298 175.839 L98.3298 171.904 Q100.992 169.149 105.575 164.52 Q110.182 159.867 111.362 158.524 Q113.608 156.001 114.487 154.265 Q115.39 152.506 115.39 150.816 Q115.39 148.061 113.445 146.325 Q111.524 144.589 108.422 144.589 Q106.223 144.589 103.77 145.353 Q101.339 146.117 98.5613 147.668 L98.5613 142.946 Q101.385 141.811 103.839 141.233 Q106.293 140.654 108.33 140.654 Q113.7 140.654 116.895 143.339 Q120.089 146.024 120.089 150.515 Q120.089 152.645 119.279 154.566 Q118.492 156.464 116.385 159.057 Q115.807 159.728 112.705 162.945 Q109.603 166.14 103.955 171.904 Z" fill="#000000" fill-rule="nonzero" fill-opacity="1" /><polyline clip-path="url(#clip952)" style="stroke:#009af9; stroke-linecap:round; stroke-linejoin:round; stroke-width:16; stroke-opacity:1; fill:none" stroke-dasharray="8, 16" points="218.439,1104.67 228.852,1089.88 239.264,1076.39 249.677,1065.86 260.09,1060.02 270.503,1060.41 280.916,1068.03 291.329,1083.12 301.741,1104.84 312.154,1131.38 322.567,1160.41 332.98,1189.9 343.393,1218.92 353.805,1247.94 364.218,1278.17 374.631,1309.92 385.044,1341.37 395.457,1369.23 405.87,1390.97 416.282,1406.05 426.695,1415.26 437.108,1419.38 447.521,1418.51 457.934,1412.22 468.347,1400.09 478.759,1382.2 489.172,1359.42 499.585,1333.08 509.998,1304.4 520.411,1274.09 530.824,1242.53 541.236,1210.22 551.649,1178.07 562.062,1147.5 572.475,1120.13 582.888,1097.41 593.301,1080.18 603.713,1068.61 614.126,1062.45 624.539,1061.41 634.952,1065.46 645.365,1074.83 655.777,1089.74 666.19,1110.1 676.603,1135.28 687.016,1164.17 697.429,1195.44 707.842,1227.82 718.254,1260.21 728.667,1291.67 739.08,1321.4 749.493,1348.63 759.906,1372.63 770.319,1392.64 780.731,1407.89 791.144,1417.62 801.557,1421.12 811.97,1417.97 822.383,1408.35 832.796,1393.34 843.208,1374.67 853.621,1353.78 864.034,1330.47 874.447,1302.74 884.86,1269.17 895.273,1232.44 905.685,1198.37 916.098,1169.21 926.511,1142.1 936.924,1115.25 947.337,1091.71 957.749,1075.47 968.162,1064.48 978.575,1059.62 988.988,1077.7 999.401,1103.52 1009.81,1111.24 1020.23,1102.89 1030.64,1066.49 1041.05,1036.87 1051.46,1089.39 1061.88,1189.17 1072.29,1273.84 1082.7,1326.85 1093.12,1348.5 1103.53,1342.99 1113.94,1321.4 1124.35,1312.71 1134.77,1343.07 1145.18,1398.23 1155.59,1433.61 1166.01,1445.72 1176.42,1441.16 1186.83,1415.91 1197.24,1377.74 1207.66,1346.79 1218.07,1331.33 1228.48,1320.44 1238.9,1250.87 1249.31,1006.98 1259.72,716.956 1270.13,450.069 1280.55,279.24 1290.96,275.28 1301.37,328.882 1311.79,362.476 1322.2,338.758 1332.61,290.907 1343.02,295.628 1353.44,319.649 1363.85,316.259 1374.26,313.023 1384.68,314.72 1395.09,321.415 1405.5,340.064 1415.91,367.441 1426.33,388.981 1436.74,392.877 1447.15,377.658 1457.57,349.438 1467.98,317.26 1478.39,291.795 1488.8,284.257 1499.22,297.452 1509.63,321.097 1520.04,342.214 1530.45,352.768 1540.87,352.05 1551.28,353.415 1561.69,374.134 1572.11,395.544 1582.52,392.693 1592.93,363.422 1603.34,313.204 1613.76,247.04 1624.17,173.388 1634.58,158.174 1645,270.459 1655.41,383.915 1665.82,441.366 1676.23,449.947 1686.65,426.245 1697.06,391.268 1707.47,350.302 1717.89,295.292 1728.3,236.164 1738.71,212.225 1749.12,246.732 1759.54,312.659 1769.95,378.538 1780.36,431.243 1790.78,464.123 1801.19,469.697 1811.6,441.294 1822.01,378.561 1832.43,293.01 1842.84,208.141 1853.25,154.853 1863.67,172.607 1874.08,262.778 1884.49,366.094 1894.9,445.21 1905.32,489.339 1915.73,495.411 1926.14,466.26 1936.56,410.511 1946.97,337.322 1957.38,254.539 1967.79,175.09 1978.21,129.67 1988.62,160.622 1999.03,265.344 2009.45,388.61 2019.86,485.394 2030.27,536.361 2040.68,536.842 2051.1,490.004 2061.51,404.515 2071.92,296.709 2082.33,194.325 2092.75,132.321 2103.16,132.368 2113.57,187.848 2123.99,283.876 2134.4,403.122 2144.81,506.317 2155.22,563.736 2165.64,563.019 2176.05,497.909 2186.46,373.978 2196.88,229.907 2207.29,138.17 2217.7,130.501 2228.11,179.206 2238.53,253.84 2248.94,333.029 2259.35,405.021 2269.77,466.599 2280.18,518.64 2290.59,563.035 "/>
<polyline clip-path="url(#clip952)" style="stroke:#e26f46; stroke-linecap:round; stroke-linejoin:round; stroke-width:4; stroke-opacity:1; fill:none" points="218.439,1104.71 228.852,1085.51 239.264,1071.34 249.677,1062.69 260.09,1059.83 270.503,1062.84 280.916,1071.65 291.329,1085.95 301.741,1105.28 312.154,1129.01 322.567,1156.36 332.98,1186.45 343.393,1218.29 353.805,1250.84 364.218,1283.04 374.631,1313.83 385.044,1342.22 395.457,1367.28 405.87,1388.18 416.282,1404.25 426.695,1414.96 437.108,1419.97 447.521,1419.1 457.934,1412.39 468.347,1400.06 478.759,1382.5 489.172,1360.3 499.585,1334.17 509.998,1304.98 520.411,1273.66 530.824,1241.25 541.236,1208.8 551.649,1177.37 562.062,1147.99 572.475,1121.61 582.888,1099.1 593.301,1081.19 603.713,1068.47 614.126,1061.35 624.539,1060.06 634.952,1064.64 645.365,1074.96 655.777,1090.66 666.19,1111.24 676.603,1136.02 687.016,1164.2 697.429,1194.85 707.842,1226.98 718.254,1259.54 728.667,1291.47 739.08,1321.71 749.493,1349.3 759.906,1373.31 770.319,1392.98 780.731,1407.66 791.144,1416.87 801.557,1420.31 811.97,1417.87 822.383,1409.62 832.796,1395.84 843.208,1376.98 853.621,1353.65 864.034,1326.61 874.447,1296.75 884.86,1265.04 895.273,1232.51 905.685,1200.24 916.098,1169.26 926.511,1140.59 936.924,1115.17 947.337,1093.83 957.749,1077.26 968.162,1066 978.575,1060.43 988.988,1060.71 999.401,1066.86 1009.81,1078.65 1020.23,1095.72 1030.64,1117.49 1041.05,1143.27 1051.46,1172.21 1061.88,1203.36 1072.29,1235.71 1082.7,1268.2 1093.12,1299.78 1103.53,1329.41 1113.94,1356.12 1124.35,1379.04 1134.77,1397.43 1145.18,1410.68 1155.59,1418.37 1166.01,1420.23 1176.42,1416.22 1186.83,1406.46 1197.24,1391.27 1207.66,1371.14 1218.07,1346.74 1228.48,1318.85 1238.9,1288.39 1249.31,1256.36 1259.72,337.503 1270.13,336.014 1280.55,337.37 1290.96,341.883 1301.37,348.17 1311.79,353.575 1322.2,355.175 1332.61,351.017 1343.02,341.103 1353.44,327.738 1363.85,315.02 1374.26,307.59 1384.68,309.015 1395.09,320.351 1405.5,339.418 1415.91,361.117 1426.33,378.787 1436.74,386.241 1447.15,379.861 1457.57,360.063 1467.98,331.588 1478.39,302.405 1488.8,281.49 1499.22,276.072 1509.63,289.207 1520.04,318.469 1530.45,356.261 1540.87,391.762 1551.28,414.027 1561.69,415.345 1572.11,393.835 1582.52,354.413 1592.93,307.748 1603.34,267.383 1613.76,245.805 1624.17,250.603 1634.58,281.886 1645,331.828 1655.41,386.577 1665.82,430.097 1676.23,448.86 1686.65,436.029 1697.06,393.838 1707.47,333.365 1717.89,271.655 1728.3,226.91 1738.71,213.129 1749.12,235.757 1759.54,289.691 1769.95,360.346 1780.36,427.584 1790.78,471.45 1801.19,478.095 1811.6,444.105 1822.01,377.921 1832.43,297.79 1842.84,226.748 1853.25,185.992 1863.67,188.568 1874.08,235.239 1884.49,313.83 1894.9,402.374 1905.32,475.248 1915.73,510.585 1926.14,496.825 1936.56,436.441 1946.97,345.653 1957.38,250.095 1967.79,177.575 1978.21,149.99 1988.62,176.722 1999.03,251.533 2009.45,353.933 2019.86,454.786 2030.27,524.596 2040.68,542.131 2051.1,500.861 2061.51,411.263 2071.92,298.209 2082.33,194.068 2092.75,129.439 2103.16,124.168 2113.57,181.272 2123.99,285.646 2134.4,408.029 2144.81,513.196 2155.22,570.104 2165.64,561.043 2176.05,487.12 2186.46,368.367 2196.88,238.334 2207.29,134.615 2217.7,87.9763 2228.11,113.242 2238.53,204.624 2248.94,336.962 2259.35,472.637 2269.77,572.27 2280.18,606.138 2290.59,563.041 "/>
<path clip-path="url(#clip950)" d="M229.49 250.738 L675.966 250.738 L675.966 95.2176 L229.49 95.2176  Z" fill="#ffffff" fill-rule="evenodd" fill-opacity="1"/>
<polyline clip-path="url(#clip950)" style="stroke:#000000; stroke-linecap:round; stroke-linejoin:round; stroke-width:4; stroke-opacity:1; fill:none" points="229.49,250.738 675.966,250.738 675.966,95.2176 229.49,95.2176 229.49,250.738 "/>
<polyline clip-path="url(#clip950)" style="stroke:#009af9; stroke-linecap:round; stroke-linejoin:round; stroke-width:16; stroke-opacity:1; fill:none" stroke-dasharray="8, 16" points="253.896,147.058 400.328,147.058 "/>
<path clip-path="url(#clip950)" d="M429.409 133.62 L429.409 146.606 L435.289 146.606 Q438.552 146.606 440.335 144.916 Q442.117 143.227 442.117 140.102 Q442.117 137 440.335 135.31 Q438.552 133.62 435.289 133.62 L429.409 133.62 M424.733 129.778 L435.289 129.778 Q441.099 129.778 444.062 132.416 Q447.048 135.032 447.048 140.102 Q447.048 145.217 444.062 147.833 Q441.099 150.449 435.289 150.449 L429.409 150.449 L429.409 164.338 L424.733 164.338 L424.733 129.778 Z" fill="#000000" fill-rule="nonzero" fill-opacity="1" /><path clip-path="url(#clip950)" d="M467.325 142.393 Q466.608 141.977 465.751 141.791 Q464.918 141.583 463.899 141.583 Q460.288 141.583 458.344 143.944 Q456.423 146.282 456.423 150.68 L456.423 164.338 L452.14 164.338 L452.14 138.412 L456.423 138.412 L456.423 142.44 Q457.765 140.078 459.918 138.944 Q462.071 137.787 465.149 137.787 Q465.589 137.787 466.122 137.856 Q466.654 137.903 467.302 138.018 L467.325 142.393 Z" fill="#000000" fill-rule="nonzero" fill-opacity="1" /><path clip-path="url(#clip950)" d="M492.927 150.31 L492.927 152.393 L473.344 152.393 Q473.622 156.791 475.983 159.106 Q478.367 161.398 482.603 161.398 Q485.057 161.398 487.348 160.796 Q489.663 160.194 491.932 158.99 L491.932 163.018 Q489.64 163.99 487.233 164.5 Q484.825 165.009 482.348 165.009 Q476.145 165.009 472.511 161.398 Q468.899 157.787 468.899 151.629 Q468.899 145.264 472.325 141.537 Q475.774 137.787 481.608 137.787 Q486.839 137.787 489.872 141.166 Q492.927 144.523 492.927 150.31 M488.668 149.06 Q488.622 145.565 486.7 143.481 Q484.802 141.398 481.654 141.398 Q478.089 141.398 475.936 143.412 Q473.807 145.426 473.483 149.083 L488.668 149.06 Z" fill="#000000" fill-rule="nonzero" fill-opacity="1" /><path clip-path="url(#clip950)" d="M516.978 142.347 L516.978 128.319 L521.237 128.319 L521.237 164.338 L516.978 164.338 L516.978 160.449 Q515.635 162.763 513.575 163.898 Q511.538 165.009 508.668 165.009 Q503.969 165.009 501.006 161.259 Q498.066 157.509 498.066 151.398 Q498.066 145.287 501.006 141.537 Q503.969 137.787 508.668 137.787 Q511.538 137.787 513.575 138.921 Q515.635 140.032 516.978 142.347 M502.464 151.398 Q502.464 156.097 504.385 158.782 Q506.33 161.444 509.709 161.444 Q513.089 161.444 515.033 158.782 Q516.978 156.097 516.978 151.398 Q516.978 146.699 515.033 144.037 Q513.089 141.352 509.709 141.352 Q506.33 141.352 504.385 144.037 Q502.464 146.699 502.464 151.398 Z" fill="#000000" fill-rule="nonzero" fill-opacity="1" /><path clip-path="url(#clip950)" d="M530.01 138.412 L534.269 138.412 L534.269 164.338 L530.01 164.338 L530.01 138.412 M530.01 128.319 L534.269 128.319 L534.269 133.713 L530.01 133.713 L530.01 128.319 Z" fill="#000000" fill-rule="nonzero" fill-opacity="1" /><path clip-path="url(#clip950)" d="M561.839 139.407 L561.839 143.389 Q560.033 142.393 558.205 141.907 Q556.399 141.398 554.547 141.398 Q550.404 141.398 548.112 144.037 Q545.82 146.652 545.82 151.398 Q545.82 156.143 548.112 158.782 Q550.404 161.398 554.547 161.398 Q556.399 161.398 558.205 160.912 Q560.033 160.402 561.839 159.407 L561.839 163.342 Q560.056 164.176 558.135 164.592 Q556.237 165.009 554.084 165.009 Q548.228 165.009 544.779 161.328 Q541.33 157.648 541.33 151.398 Q541.33 145.055 544.802 141.421 Q548.297 137.787 554.362 137.787 Q556.33 137.787 558.205 138.203 Q560.08 138.597 561.839 139.407 Z" fill="#000000" fill-rule="nonzero" fill-opacity="1" /><path clip-path="url(#clip950)" d="M573.459 131.051 L573.459 138.412 L582.232 138.412 L582.232 141.722 L573.459 141.722 L573.459 155.796 Q573.459 158.967 574.316 159.87 Q575.195 160.773 577.857 160.773 L582.232 160.773 L582.232 164.338 L577.857 164.338 Q572.927 164.338 571.052 162.509 Q569.177 160.657 569.177 155.796 L569.177 141.722 L566.052 141.722 L566.052 138.412 L569.177 138.412 L569.177 131.051 L573.459 131.051 Z" fill="#000000" fill-rule="nonzero" fill-opacity="1" /><path clip-path="url(#clip950)" d="M587.834 138.412 L592.093 138.412 L592.093 164.338 L587.834 164.338 L587.834 138.412 M587.834 128.319 L592.093 128.319 L592.093 133.713 L587.834 133.713 L587.834 128.319 Z" fill="#000000" fill-rule="nonzero" fill-opacity="1" /><path clip-path="url(#clip950)" d="M611.051 141.398 Q607.626 141.398 605.635 144.083 Q603.644 146.745 603.644 151.398 Q603.644 156.051 605.612 158.736 Q607.602 161.398 611.051 161.398 Q614.454 161.398 616.445 158.713 Q618.436 156.027 618.436 151.398 Q618.436 146.791 616.445 144.106 Q614.454 141.398 611.051 141.398 M611.051 137.787 Q616.607 137.787 619.778 141.398 Q622.95 145.009 622.95 151.398 Q622.95 157.764 619.778 161.398 Q616.607 165.009 611.051 165.009 Q605.473 165.009 602.302 161.398 Q599.153 157.764 599.153 151.398 Q599.153 145.009 602.302 141.398 Q605.473 137.787 611.051 137.787 Z" fill="#000000" fill-rule="nonzero" fill-opacity="1" /><path clip-path="url(#clip950)" d="M651.561 148.689 L651.561 164.338 L647.301 164.338 L647.301 148.828 Q647.301 145.148 645.866 143.319 Q644.431 141.49 641.561 141.49 Q638.112 141.49 636.121 143.69 Q634.13 145.889 634.13 149.685 L634.13 164.338 L629.848 164.338 L629.848 138.412 L634.13 138.412 L634.13 142.44 Q635.658 140.102 637.718 138.944 Q639.801 137.787 642.51 137.787 Q646.977 137.787 649.269 140.565 Q651.561 143.319 651.561 148.689 Z" fill="#000000" fill-rule="nonzero" fill-opacity="1" /><polyline clip-path="url(#clip950)" style="stroke:#e26f46; stroke-linecap:round; stroke-linejoin:round; stroke-width:4; stroke-opacity:1; fill:none" points="253.896,198.898 400.328,198.898 "/>
<path clip-path="url(#clip950)" d="M424.733 181.618 L446.585 181.618 L446.585 185.553 L429.409 185.553 L429.409 195.784 L445.867 195.784 L445.867 199.719 L429.409 199.719 L429.409 212.242 L447.001 212.242 L447.001 216.178 L424.733 216.178 L424.733 181.618 Z" fill="#000000" fill-rule="nonzero" fill-opacity="1" /><path clip-path="url(#clip950)" d="M476.052 190.252 L466.677 202.867 L476.538 216.178 L471.515 216.178 L463.969 205.992 L456.423 216.178 L451.4 216.178 L461.469 202.613 L452.256 190.252 L457.279 190.252 L464.154 199.488 L471.029 190.252 L476.052 190.252 Z" fill="#000000" fill-rule="nonzero" fill-opacity="1" /><path clip-path="url(#clip950)" d="M494.339 203.145 Q489.177 203.145 487.186 204.326 Q485.196 205.506 485.196 208.354 Q485.196 210.622 486.677 211.965 Q488.182 213.284 490.751 213.284 Q494.293 213.284 496.422 210.784 Q498.575 208.261 498.575 204.094 L498.575 203.145 L494.339 203.145 M502.834 201.386 L502.834 216.178 L498.575 216.178 L498.575 212.242 Q497.117 214.603 494.941 215.738 Q492.765 216.849 489.617 216.849 Q485.635 216.849 483.274 214.627 Q480.936 212.381 480.936 208.631 Q480.936 204.256 483.853 202.034 Q486.793 199.812 492.603 199.812 L498.575 199.812 L498.575 199.395 Q498.575 196.455 496.631 194.858 Q494.71 193.238 491.214 193.238 Q488.992 193.238 486.885 193.77 Q484.779 194.303 482.835 195.367 L482.835 191.432 Q485.173 190.53 487.372 190.09 Q489.571 189.627 491.654 189.627 Q497.279 189.627 500.057 192.543 Q502.834 195.46 502.834 201.386 Z" fill="#000000" fill-rule="nonzero" fill-opacity="1" /><path clip-path="url(#clip950)" d="M530.265 191.247 L530.265 195.229 Q528.459 194.233 526.631 193.747 Q524.825 193.238 522.973 193.238 Q518.83 193.238 516.538 195.877 Q514.246 198.492 514.246 203.238 Q514.246 207.983 516.538 210.622 Q518.83 213.238 522.973 213.238 Q524.825 213.238 526.631 212.752 Q528.459 212.242 530.265 211.247 L530.265 215.182 Q528.482 216.016 526.561 216.432 Q524.663 216.849 522.51 216.849 Q516.654 216.849 513.205 213.168 Q509.756 209.488 509.756 203.238 Q509.756 196.895 513.228 193.261 Q516.723 189.627 522.788 189.627 Q524.756 189.627 526.631 190.043 Q528.506 190.437 530.265 191.247 Z" fill="#000000" fill-rule="nonzero" fill-opacity="1" /><path clip-path="url(#clip950)" d="M541.885 182.891 L541.885 190.252 L550.658 190.252 L550.658 193.562 L541.885 193.562 L541.885 207.636 Q541.885 210.807 542.742 211.71 Q543.621 212.613 546.283 212.613 L550.658 212.613 L550.658 216.178 L546.283 216.178 Q541.353 216.178 539.478 214.349 Q537.603 212.497 537.603 207.636 L537.603 193.562 L534.478 193.562 L534.478 190.252 L537.603 190.252 L537.603 182.891 L541.885 182.891 Z" fill="#000000" fill-rule="nonzero" fill-opacity="1" /></svg>
