<?xml version="1.0" encoding="utf-8"?>
<svg xmlns="http://www.w3.org/2000/svg" xmlns:xlink="http://www.w3.org/1999/xlink" width="600" height="400" viewBox="0 0 2400 1600">
<defs>
  <clipPath id="clip360">
    <rect x="0" y="0" width="2400" height="1600"/>
  </clipPath>
</defs>
<path clip-path="url(#clip360)" d="M0 1600 L2400 1600 L2400 0 L0 0  Z" fill="#ffffff" fill-rule="evenodd" fill-opacity="1"/>
<defs>
  <clipPath id="clip361">
    <rect x="480" y="0" width="1681" height="1600"/>
  </clipPath>
</defs>
<path clip-path="url(#clip360)" d="M156.274 1486.45 L2352.76 1486.45 L2352.76 47.2441 L156.274 47.2441  Z" fill="#ffffff" fill-rule="evenodd" fill-opacity="1"/>
<defs>
  <clipPath id="clip362">
    <rect x="156" y="47" width="2197" height="1440"/>
  </clipPath>
</defs>
<polyline clip-path="url(#clip362)" style="stroke:#000000; stroke-linecap:round; stroke-linejoin:round; stroke-width:2; stroke-opacity:0.1; fill:none" points="218.439,1486.45 218.439,47.2441 "/>
<polyline clip-path="url(#clip362)" style="stroke:#000000; stroke-linecap:round; stroke-linejoin:round; stroke-width:2; stroke-opacity:0.1; fill:none" points="736.477,1486.45 736.477,47.2441 "/>
<polyline clip-path="url(#clip362)" style="stroke:#000000; stroke-linecap:round; stroke-linejoin:round; stroke-width:2; stroke-opacity:0.1; fill:none" points="1254.52,1486.45 1254.52,47.2441 "/>
<polyline clip-path="url(#clip362)" style="stroke:#000000; stroke-linecap:round; stroke-linejoin:round; stroke-width:2; stroke-opacity:0.1; fill:none" points="1772.55,1486.45 1772.55,47.2441 "/>
<polyline clip-path="url(#clip362)" style="stroke:#000000; stroke-linecap:round; stroke-linejoin:round; stroke-width:2; stroke-opacity:0.1; fill:none" points="2290.59,1486.45 2290.59,47.2441 "/>
<polyline clip-path="url(#clip360)" style="stroke:#000000; stroke-linecap:round; stroke-linejoin:round; stroke-width:4; stroke-opacity:1; fill:none" points="156.274,1486.45 2352.76,1486.45 "/>
<polyline clip-path="url(#clip360)" style="stroke:#000000; stroke-linecap:round; stroke-linejoin:round; stroke-width:4; stroke-opacity:1; fill:none" points="218.439,1486.45 218.439,1467.55 "/>
<polyline clip-path="url(#clip360)" style="stroke:#000000; stroke-linecap:round; stroke-linejoin:round; stroke-width:4; stroke-opacity:1; fill:none" points="736.477,1486.45 736.477,1467.55 "/>
<polyline clip-path="url(#clip360)" style="stroke:#000000; stroke-linecap:round; stroke-linejoin:round; stroke-width:4; stroke-opacity:1; fill:none" points="1254.52,1486.45 1254.52,1467.55 "/>
<polyline clip-path="url(#clip360)" style="stroke:#000000; stroke-linecap:round; stroke-linejoin:round; stroke-width:4; stroke-opacity:1; fill:none" points="1772.55,1486.45 1772.55,1467.55 "/>
<polyline clip-path="url(#clip360)" style="stroke:#000000; stroke-linecap:round; stroke-linejoin:round; stroke-width:4; stroke-opacity:1; fill:none" points="2290.59,1486.45 2290.59,1467.55 "/>
<path clip-path="url(#clip360)" d="M164.967 1532.02 L194.643 1532.02 L194.643 1535.95 L164.967 1535.95 L164.967 1532.02 Z" fill="#000000" fill-rule="nonzero" fill-opacity="1" /><path clip-path="url(#clip360)" d="M205.545 1544.91 L213.184 1544.91 L213.184 1518.55 L204.874 1520.21 L204.874 1515.95 L213.138 1514.29 L217.814 1514.29 L217.814 1544.91 L225.453 1544.91 L225.453 1548.85 L205.545 1548.85 L205.545 1544.91 Z" fill="#000000" fill-rule="nonzero" fill-opacity="1" /><path clip-path="url(#clip360)" d="M234.897 1542.97 L239.781 1542.97 L239.781 1548.85 L234.897 1548.85 L234.897 1542.97 Z" fill="#000000" fill-rule="nonzero" fill-opacity="1" /><path clip-path="url(#clip360)" d="M259.966 1517.37 Q256.355 1517.37 254.527 1520.93 Q252.721 1524.47 252.721 1531.6 Q252.721 1538.71 254.527 1542.27 Q256.355 1545.82 259.966 1545.82 Q263.601 1545.82 265.406 1542.27 Q267.235 1538.71 267.235 1531.6 Q267.235 1524.47 265.406 1520.93 Q263.601 1517.37 259.966 1517.37 M259.966 1513.66 Q265.776 1513.66 268.832 1518.27 Q271.911 1522.85 271.911 1531.6 Q271.911 1540.33 268.832 1544.94 Q265.776 1549.52 259.966 1549.52 Q254.156 1549.52 251.077 1544.94 Q248.022 1540.33 248.022 1531.6 Q248.022 1522.85 251.077 1518.27 Q254.156 1513.66 259.966 1513.66 Z" fill="#000000" fill-rule="nonzero" fill-opacity="1" /><path clip-path="url(#clip360)" d="M683.503 1532.02 L713.178 1532.02 L713.178 1535.95 L683.503 1535.95 L683.503 1532.02 Z" fill="#000000" fill-rule="nonzero" fill-opacity="1" /><path clip-path="url(#clip360)" d="M733.271 1517.37 Q729.66 1517.37 727.831 1520.93 Q726.026 1524.47 726.026 1531.6 Q726.026 1538.71 727.831 1542.27 Q729.66 1545.82 733.271 1545.82 Q736.905 1545.82 738.711 1542.27 Q740.539 1538.71 740.539 1531.6 Q740.539 1524.47 738.711 1520.93 Q736.905 1517.37 733.271 1517.37 M733.271 1513.66 Q739.081 1513.66 742.137 1518.27 Q745.215 1522.85 745.215 1531.6 Q745.215 1540.33 742.137 1544.94 Q739.081 1549.52 733.271 1549.52 Q727.461 1549.52 724.382 1544.94 Q721.327 1540.33 721.327 1531.6 Q721.327 1522.85 724.382 1518.27 Q727.461 1513.66 733.271 1513.66 Z" fill="#000000" fill-rule="nonzero" fill-opacity="1" /><path clip-path="url(#clip360)" d="M753.433 1542.97 L758.317 1542.97 L758.317 1548.85 L753.433 1548.85 L753.433 1542.97 Z" fill="#000000" fill-rule="nonzero" fill-opacity="1" /><path clip-path="url(#clip360)" d="M768.548 1514.29 L786.905 1514.29 L786.905 1518.22 L772.831 1518.22 L772.831 1526.7 Q773.849 1526.35 774.868 1526.19 Q775.886 1526 776.905 1526 Q782.692 1526 786.072 1529.17 Q789.451 1532.34 789.451 1537.76 Q789.451 1543.34 785.979 1546.44 Q782.507 1549.52 776.187 1549.52 Q774.011 1549.52 771.743 1549.15 Q769.498 1548.78 767.09 1548.04 L767.09 1543.34 Q769.173 1544.47 771.396 1545.03 Q773.618 1545.58 776.095 1545.58 Q780.099 1545.58 782.437 1543.48 Q784.775 1541.37 784.775 1537.76 Q784.775 1534.15 782.437 1532.04 Q780.099 1529.94 776.095 1529.94 Q774.22 1529.94 772.345 1530.35 Q770.493 1530.77 768.548 1531.65 L768.548 1514.29 Z" fill="#000000" fill-rule="nonzero" fill-opacity="1" /><path clip-path="url(#clip360)" d="M1231.9 1517.37 Q1228.29 1517.37 1226.46 1520.93 Q1224.65 1524.47 1224.65 1531.6 Q1224.65 1538.71 1226.46 1542.27 Q1228.29 1545.82 1231.9 1545.82 Q1235.53 1545.82 1237.34 1542.27 Q1239.17 1538.71 1239.17 1531.6 Q1239.17 1524.47 1237.34 1520.93 Q1235.53 1517.37 1231.9 1517.37 M1231.9 1513.66 Q1237.71 1513.66 1240.77 1518.27 Q1243.84 1522.85 1243.84 1531.6 Q1243.84 1540.33 1240.77 1544.94 Q1237.71 1549.52 1231.9 1549.52 Q1226.09 1549.52 1223.01 1544.94 Q1219.96 1540.33 1219.96 1531.6 Q1219.96 1522.85 1223.01 1518.27 Q1226.09 1513.66 1231.9 1513.66 Z" fill="#000000" fill-rule="nonzero" fill-opacity="1" /><path clip-path="url(#clip360)" d="M1252.06 1542.97 L1256.95 1542.97 L1256.95 1548.85 L1252.06 1548.85 L1252.06 1542.97 Z" fill="#000000" fill-rule="nonzero" fill-opacity="1" /><path clip-path="url(#clip360)" d="M1277.13 1517.37 Q1273.52 1517.37 1271.69 1520.93 Q1269.89 1524.47 1269.89 1531.6 Q1269.89 1538.71 1271.69 1542.27 Q1273.52 1545.82 1277.13 1545.82 Q1280.76 1545.82 1282.57 1542.27 Q1284.4 1538.71 1284.4 1531.6 Q1284.4 1524.47 1282.57 1520.93 Q1280.76 1517.37 1277.13 1517.37 M1277.13 1513.66 Q1282.94 1513.66 1286 1518.27 Q1289.08 1522.85 1289.08 1531.6 Q1289.08 1540.33 1286 1544.94 Q1282.94 1549.52 1277.13 1549.52 Q1271.32 1549.52 1268.24 1544.94 Q1265.19 1540.33 1265.19 1531.6 Q1265.19 1522.85 1268.24 1518.27 Q1271.32 1513.66 1277.13 1513.66 Z" fill="#000000" fill-rule="nonzero" fill-opacity="1" /><path clip-path="url(#clip360)" d="M1750.44 1517.37 Q1746.82 1517.37 1745 1520.93 Q1743.19 1524.47 1743.19 1531.6 Q1743.19 1538.71 1745 1542.27 Q1746.82 1545.82 1750.44 1545.82 Q1754.07 1545.82 1755.88 1542.27 Q1757.7 1538.71 1757.7 1531.6 Q1757.7 1524.47 1755.88 1520.93 Q1754.07 1517.37 1750.44 1517.37 M1750.44 1513.66 Q1756.25 1513.66 1759.3 1518.27 Q1762.38 1522.85 1762.38 1531.6 Q1762.38 1540.33 1759.3 1544.94 Q1756.25 1549.52 1750.44 1549.52 Q1744.63 1549.52 1741.55 1544.94 Q1738.49 1540.33 1738.49 1531.6 Q1738.49 1522.85 1741.55 1518.27 Q1744.63 1513.66 1750.44 1513.66 Z" fill="#000000" fill-rule="nonzero" fill-opacity="1" /><path clip-path="url(#clip360)" d="M1770.6 1542.97 L1775.48 1542.97 L1775.48 1548.85 L1770.6 1548.85 L1770.6 1542.97 Z" fill="#000000" fill-rule="nonzero" fill-opacity="1" /><path clip-path="url(#clip360)" d="M1785.71 1514.29 L1804.07 1514.29 L1804.07 1518.22 L1790 1518.22 L1790 1526.7 Q1791.01 1526.35 1792.03 1526.19 Q1793.05 1526 1794.07 1526 Q1799.86 1526 1803.24 1529.17 Q1806.62 1532.34 1806.62 1537.76 Q1806.62 1543.34 1803.14 1546.44 Q1799.67 1549.52 1793.35 1549.52 Q1791.18 1549.52 1788.91 1549.15 Q1786.66 1548.78 1784.25 1548.04 L1784.25 1543.34 Q1786.34 1544.47 1788.56 1545.03 Q1790.78 1545.58 1793.26 1545.58 Q1797.26 1545.58 1799.6 1543.48 Q1801.94 1541.37 1801.94 1537.76 Q1801.94 1534.15 1799.6 1532.04 Q1797.26 1529.94 1793.26 1529.94 Q1791.38 1529.94 1789.51 1530.35 Q1787.66 1530.77 1785.71 1531.65 L1785.71 1514.29 Z" fill="#000000" fill-rule="nonzero" fill-opacity="1" /><path clip-path="url(#clip360)" d="M2257.74 1544.91 L2265.38 1544.91 L2265.38 1518.55 L2257.07 1520.21 L2257.07 1515.95 L2265.34 1514.29 L2270.01 1514.29 L2270.01 1544.91 L2277.65 1544.91 L2277.65 1548.85 L2257.74 1548.85 L2257.74 1544.91 Z" fill="#000000" fill-rule="nonzero" fill-opacity="1" /><path clip-path="url(#clip360)" d="M2287.1 1542.97 L2291.98 1542.97 L2291.98 1548.85 L2287.1 1548.85 L2287.1 1542.97 Z" fill="#000000" fill-rule="nonzero" fill-opacity="1" /><path clip-path="url(#clip360)" d="M2312.17 1517.37 Q2308.55 1517.37 2306.73 1520.93 Q2304.92 1524.47 2304.92 1531.6 Q2304.92 1538.71 2306.73 1542.27 Q2308.55 1545.82 2312.17 1545.82 Q2315.8 1545.82 2317.61 1542.27 Q2319.43 1538.71 2319.43 1531.6 Q2319.43 1524.47 2317.61 1520.93 Q2315.8 1517.37 2312.17 1517.37 M2312.17 1513.66 Q2317.98 1513.66 2321.03 1518.27 Q2324.11 1522.85 2324.11 1531.6 Q2324.11 1540.33 2321.03 1544.94 Q2317.98 1549.52 2312.17 1549.52 Q2306.36 1549.52 2303.28 1544.94 Q2300.22 1540.33 2300.22 1531.6 Q2300.22 1522.85 2303.28 1518.27 Q2306.36 1513.66 2312.17 1513.66 Z" fill="#000000" fill-rule="nonzero" fill-opacity="1" /><polyline clip-path="url(#clip362)" style="stroke:#000000; stroke-linecap:round; stroke-linejoin:round; stroke-width:2; stroke-opacity:0.1; fill:none" points="156.274,1259.14 2352.76,1259.14 "/>
<polyline clip-path="url(#clip362)" style="stroke:#000000; stroke-linecap:round; stroke-linejoin:round; stroke-width:2; stroke-opacity:0.1; fill:none" points="156.274,984.289 2352.76,984.289 "/>
<polyline clip-path="url(#clip362)" style="stroke:#000000; stroke-linecap:round; stroke-linejoin:round; stroke-width:2; stroke-opacity:0.1; fill:none" points="156.274,709.435 2352.76,709.435 "/>
<polyline clip-path="url(#clip362)" style="stroke:#000000; stroke-linecap:round; stroke-linejoin:round; stroke-width:2; stroke-opacity:0.1; fill:none" points="156.274,434.581 2352.76,434.581 "/>
<polyline clip-path="url(#clip362)" style="stroke:#000000; stroke-linecap:round; stroke-linejoin:round; stroke-width:2; stroke-opacity:0.1; fill:none" points="156.274,159.727 2352.76,159.727 "/>
<polyline clip-path="url(#clip360)" style="stroke:#000000; stroke-linecap:round; stroke-linejoin:round; stroke-width:4; stroke-opacity:1; fill:none" points="156.274,1486.45 156.274,47.2441 "/>
<polyline clip-path="url(#clip360)" style="stroke:#000000; stroke-linecap:round; stroke-linejoin:round; stroke-width:4; stroke-opacity:1; fill:none" points="156.274,1259.14 175.172,1259.14 "/>
<polyline clip-path="url(#clip360)" style="stroke:#000000; stroke-linecap:round; stroke-linejoin:round; stroke-width:4; stroke-opacity:1; fill:none" points="156.274,984.289 175.172,984.289 "/>
<polyline clip-path="url(#clip360)" style="stroke:#000000; stroke-linecap:round; stroke-linejoin:round; stroke-width:4; stroke-opacity:1; fill:none" points="156.274,709.435 175.172,709.435 "/>
<polyline clip-path="url(#clip360)" style="stroke:#000000; stroke-linecap:round; stroke-linejoin:round; stroke-width:4; stroke-opacity:1; fill:none" points="156.274,434.581 175.172,434.581 "/>
<polyline clip-path="url(#clip360)" style="stroke:#000000; stroke-linecap:round; stroke-linejoin:round; stroke-width:4; stroke-opacity:1; fill:none" points="156.274,159.727 175.172,159.727 "/>
<path clip-path="url(#clip360)" d="M63.0985 1244.94 Q59.4875 1244.94 57.6588 1248.51 Q55.8532 1252.05 55.8532 1259.18 Q55.8532 1266.28 57.6588 1269.85 Q59.4875 1273.39 63.0985 1273.39 Q66.7328 1273.39 68.5383 1269.85 Q70.367 1266.28 70.367 1259.18 Q70.367 1252.05 68.5383 1248.51 Q66.7328 1244.94 63.0985 1244.94 M63.0985 1241.24 Q68.9087 1241.24 71.9642 1245.84 Q75.0429 1250.43 75.0429 1259.18 Q75.0429 1267.9 71.9642 1272.51 Q68.9087 1277.09 63.0985 1277.09 Q57.2884 1277.09 54.2097 1272.51 Q51.1542 1267.9 51.1542 1259.18 Q51.1542 1250.43 54.2097 1245.84 Q57.2884 1241.24 63.0985 1241.24 Z" fill="#000000" fill-rule="nonzero" fill-opacity="1" /><path clip-path="url(#clip360)" d="M83.2605 1270.54 L88.1447 1270.54 L88.1447 1276.42 L83.2605 1276.42 L83.2605 1270.54 Z" fill="#000000" fill-rule="nonzero" fill-opacity="1" /><path clip-path="url(#clip360)" d="M108.33 1244.94 Q104.719 1244.94 102.89 1248.51 Q101.084 1252.05 101.084 1259.18 Q101.084 1266.28 102.89 1269.85 Q104.719 1273.39 108.33 1273.39 Q111.964 1273.39 113.77 1269.85 Q115.598 1266.28 115.598 1259.18 Q115.598 1252.05 113.77 1248.51 Q111.964 1244.94 108.33 1244.94 M108.33 1241.24 Q114.14 1241.24 117.195 1245.84 Q120.274 1250.43 120.274 1259.18 Q120.274 1267.9 117.195 1272.51 Q114.14 1277.09 108.33 1277.09 Q102.52 1277.09 99.4409 1272.51 Q96.3854 1267.9 96.3854 1259.18 Q96.3854 1250.43 99.4409 1245.84 Q102.52 1241.24 108.33 1241.24 Z" fill="#000000" fill-rule="nonzero" fill-opacity="1" /><path clip-path="url(#clip360)" d="M63.7467 970.087 Q60.1356 970.087 58.3069 973.652 Q56.5014 977.194 56.5014 984.323 Q56.5014 991.43 58.3069 994.994 Q60.1356 998.536 63.7467 998.536 Q67.3809 998.536 69.1865 994.994 Q71.0152 991.43 71.0152 984.323 Q71.0152 977.194 69.1865 973.652 Q67.3809 970.087 63.7467 970.087 M63.7467 966.384 Q69.5568 966.384 72.6124 970.99 Q75.6911 975.573 75.6911 984.323 Q75.6911 993.05 72.6124 997.657 Q69.5568 1002.24 63.7467 1002.24 Q57.9365 1002.24 54.8578 997.657 Q51.8023 993.05 51.8023 984.323 Q51.8023 975.573 54.8578 970.99 Q57.9365 966.384 63.7467 966.384 Z" fill="#000000" fill-rule="nonzero" fill-opacity="1" /><path clip-path="url(#clip360)" d="M83.9086 995.689 L88.7928 995.689 L88.7928 1001.57 L83.9086 1001.57 L83.9086 995.689 Z" fill="#000000" fill-rule="nonzero" fill-opacity="1" /><path clip-path="url(#clip360)" d="M113.145 982.934 Q116.501 983.652 118.376 985.92 Q120.274 988.189 120.274 991.522 Q120.274 996.638 116.756 999.439 Q113.237 1002.24 106.756 1002.24 Q104.58 1002.24 102.265 1001.8 Q99.9733 1001.38 97.5197 1000.53 L97.5197 996.013 Q99.4641 997.147 101.779 997.726 Q104.094 998.305 106.617 998.305 Q111.015 998.305 113.307 996.569 Q115.621 994.832 115.621 991.522 Q115.621 988.467 113.469 986.754 Q111.339 985.018 107.52 985.018 L103.492 985.018 L103.492 981.175 L107.705 981.175 Q111.154 981.175 112.983 979.809 Q114.811 978.42 114.811 975.828 Q114.811 973.166 112.913 971.754 Q111.038 970.319 107.52 970.319 Q105.598 970.319 103.399 970.735 Q101.2 971.152 98.5613 972.032 L98.5613 967.865 Q101.223 967.124 103.538 966.754 Q105.876 966.384 107.936 966.384 Q113.26 966.384 116.362 968.814 Q119.464 971.221 119.464 975.342 Q119.464 978.212 117.82 980.203 Q116.177 982.17 113.145 982.934 Z" fill="#000000" fill-rule="nonzero" fill-opacity="1" /><path clip-path="url(#clip360)" d="M62.9365 695.233 Q59.3254 695.233 57.4967 698.798 Q55.6912 702.34 55.6912 709.469 Q55.6912 716.576 57.4967 720.141 Q59.3254 723.682 62.9365 723.682 Q66.5707 723.682 68.3763 720.141 Q70.205 716.576 70.205 709.469 Q70.205 702.34 68.3763 698.798 Q66.5707 695.233 62.9365 695.233 M62.9365 691.53 Q68.7467 691.53 71.8022 696.136 Q74.8809 700.719 74.8809 709.469 Q74.8809 718.196 71.8022 722.803 Q68.7467 727.386 62.9365 727.386 Q57.1264 727.386 54.0477 722.803 Q50.9921 718.196 50.9921 709.469 Q50.9921 700.719 54.0477 696.136 Q57.1264 691.53 62.9365 691.53 Z" fill="#000000" fill-rule="nonzero" fill-opacity="1" /><path clip-path="url(#clip360)" d="M83.0984 720.835 L87.9827 720.835 L87.9827 726.715 L83.0984 726.715 L83.0984 720.835 Z" fill="#000000" fill-rule="nonzero" fill-opacity="1" /><path clip-path="url(#clip360)" d="M108.746 707.571 Q105.598 707.571 103.746 709.724 Q101.918 711.877 101.918 715.627 Q101.918 719.354 103.746 721.529 Q105.598 723.682 108.746 723.682 Q111.895 723.682 113.723 721.529 Q115.575 719.354 115.575 715.627 Q115.575 711.877 113.723 709.724 Q111.895 707.571 108.746 707.571 M118.029 692.919 L118.029 697.178 Q116.27 696.344 114.464 695.905 Q112.682 695.465 110.922 695.465 Q106.293 695.465 103.839 698.59 Q101.409 701.715 101.061 708.034 Q102.427 706.02 104.487 704.955 Q106.547 703.868 109.024 703.868 Q114.233 703.868 117.242 707.039 Q120.274 710.187 120.274 715.627 Q120.274 720.951 117.126 724.168 Q113.978 727.386 108.746 727.386 Q102.751 727.386 99.5798 722.803 Q96.4085 718.196 96.4085 709.469 Q96.4085 701.275 100.297 696.414 Q104.186 691.53 110.737 691.53 Q112.496 691.53 114.279 691.877 Q116.084 692.224 118.029 692.919 Z" fill="#000000" fill-rule="nonzero" fill-opacity="1" /><path clip-path="url(#clip360)" d="M63.2837 420.379 Q59.6726 420.379 57.8439 423.944 Q56.0384 427.486 56.0384 434.615 Q56.0384 441.722 57.8439 445.287 Q59.6726 448.828 63.2837 448.828 Q66.918 448.828 68.7235 445.287 Q70.5522 441.722 70.5522 434.615 Q70.5522 427.486 68.7235 423.944 Q66.918 420.379 63.2837 420.379 M63.2837 416.676 Q69.0939 416.676 72.1494 421.282 Q75.2281 425.865 75.2281 434.615 Q75.2281 443.342 72.1494 447.949 Q69.0939 452.532 63.2837 452.532 Q57.4736 452.532 54.3949 447.949 Q51.3393 443.342 51.3393 434.615 Q51.3393 425.865 54.3949 421.282 Q57.4736 416.676 63.2837 416.676 Z" fill="#000000" fill-rule="nonzero" fill-opacity="1" /><path clip-path="url(#clip360)" d="M83.4457 445.981 L88.3299 445.981 L88.3299 451.861 L83.4457 451.861 L83.4457 445.981 Z" fill="#000000" fill-rule="nonzero" fill-opacity="1" /><path clip-path="url(#clip360)" d="M98.6539 451.143 L98.6539 446.884 Q100.413 447.717 102.219 448.157 Q104.024 448.597 105.76 448.597 Q110.39 448.597 112.82 445.495 Q115.274 442.37 115.621 436.027 Q114.279 438.018 112.219 439.083 Q110.158 440.148 107.658 440.148 Q102.473 440.148 99.4409 437.023 Q96.4317 433.875 96.4317 428.435 Q96.4317 423.111 99.5798 419.893 Q102.728 416.676 107.959 416.676 Q113.955 416.676 117.103 421.282 Q120.274 425.865 120.274 434.615 Q120.274 442.787 116.385 447.671 Q112.52 452.532 105.969 452.532 Q104.209 452.532 102.404 452.185 Q100.598 451.838 98.6539 451.143 M107.959 436.49 Q111.108 436.49 112.936 434.338 Q114.788 432.185 114.788 428.435 Q114.788 424.708 112.936 422.555 Q111.108 420.379 107.959 420.379 Q104.811 420.379 102.959 422.555 Q101.131 424.708 101.131 428.435 Q101.131 432.185 102.959 434.338 Q104.811 436.49 107.959 436.49 Z" fill="#000000" fill-rule="nonzero" fill-opacity="1" /><path clip-path="url(#clip360)" d="M55.506 173.072 L63.1448 173.072 L63.1448 146.706 L54.8347 148.373 L54.8347 144.113 L63.0985 142.447 L67.7744 142.447 L67.7744 173.072 L75.4133 173.072 L75.4133 177.007 L55.506 177.007 L55.506 173.072 Z" fill="#000000" fill-rule="nonzero" fill-opacity="1" /><path clip-path="url(#clip360)" d="M84.8577 171.127 L89.7419 171.127 L89.7419 177.007 L84.8577 177.007 L84.8577 171.127 Z" fill="#000000" fill-rule="nonzero" fill-opacity="1" /><path clip-path="url(#clip360)" d="M103.955 173.072 L120.274 173.072 L120.274 177.007 L98.3298 177.007 L98.3298 173.072 Q100.992 170.317 105.575 165.687 Q110.182 161.035 111.362 159.692 Q113.608 157.169 114.487 155.433 Q115.39 153.674 115.39 151.984 Q115.39 149.229 113.445 147.493 Q111.524 145.757 108.422 145.757 Q106.223 145.757 103.77 146.521 Q101.339 147.285 98.5613 148.836 L98.5613 144.113 Q101.385 142.979 103.839 142.401 Q106.293 141.822 108.33 141.822 Q113.7 141.822 116.895 144.507 Q120.089 147.192 120.089 151.683 Q120.089 153.812 119.279 155.734 Q118.492 157.632 116.385 160.225 Q115.807 160.896 112.705 164.113 Q109.603 167.308 103.955 173.072 Z" fill="#000000" fill-rule="nonzero" fill-opacity="1" /><polyline clip-path="url(#clip362)" style="stroke:#009af9; stroke-linecap:round; stroke-linejoin:round; stroke-width:16; stroke-opacity:1; fill:none" stroke-dasharray="8, 16" points="218.439,1121.53 228.852,1105.9 239.264,1092.29 249.677,1081.6 260.09,1076.01 270.503,1077.82 280.916,1087.29 291.329,1102.6 301.741,1122.19 312.154,1146.05 322.567,1174.19 332.98,1205.24 343.393,1237.14 353.805,1268.74 364.218,1300.12 374.631,1331.58 385.044,1362.43 395.457,1390.59 405.87,1413.46 416.282,1429.24 426.695,1437.69 437.108,1439.91 447.521,1437.4 457.934,1431.01 468.347,1420.74 478.759,1406.06 489.172,1386.13 499.585,1359.94 509.998,1327.25 520.411,1290.27 530.824,1253.64 541.236,1221.2 551.649,1193.19 562.062,1167.22 572.475,1141.66 582.888,1117.58 593.301,1097.91 603.713,1085.2 614.126,1079.73 624.539,1079.64 634.952,1082.9 645.365,1089.53 655.777,1101.73 666.19,1121.89 676.603,1150.1 687.016,1183.61 697.429,1218.42 707.842,1251.48 718.254,1281.86 728.667,1310.34 739.08,1338.09 749.493,1365.55 759.906,1391.94 770.319,1415.42 780.731,1433.57 791.144,1444.09 801.557,1445.72 811.97,1438.99 822.383,1426.39 832.796,1411.03 843.208,1394.44 853.621,1375.31 864.034,1350.99 874.447,1320.48 884.86,1285.91 895.273,1250.89 905.685,1217.92 916.098,1187.55 926.511,1159.33 936.924,1133.2 947.337,1110.06 957.749,1091.55 968.162,1079.36 978.575,1074.46 988.988,1076.82 999.401,1085.44 1009.81,1098.99 1020.23,1116.29 1030.64,1136.65 1041.05,1159.95 1051.46,1186.38 1061.88,1216.11 1072.29,1248.99 1082.7,1284.2 1093.12,1320.16 1103.53,1354.62 1113.94,1384.98 1124.35,1408.87 1134.77,1424.67 1145.18,1432.03 1155.59,1432.09 1166.01,1427.47 1176.42,1422.25 1186.83,1421.51 1197.24,1429.32 1207.66,1443.05 1218.07,1443.21 1228.48,1386.4 1238.9,1222.6 1249.31,947.574 1259.72,639.713 1270.13,409.686 1280.55,307.187 1290.96,300.502 1301.37,330.115 1311.79,355.175 1322.2,361.923 1332.61,353.185 1343.02,337.506 1353.44,323.003 1363.85,315.014 1374.26,315.707 1384.68,324.509 1395.09,338.806 1405.5,354.811 1415.91,368.489 1426.33,376.426 1436.74,376.481 1447.15,368.165 1457.57,352.748 1467.98,333.148 1478.39,313.598 1488.8,299.021 1499.22,294.07 1509.63,301.846 1520.04,322.532 1530.45,352.47 1540.87,384.304 1551.28,408.561 1561.69,416.395 1572.11,402.649 1582.52,368.263 1592.93,321.234 1603.34,275.433 1613.76,246.769 1624.17,247.238 1634.58,279.239 1645,333.559 1655.41,392.669 1665.82,437.617 1676.23,454.822 1686.65,439.853 1697.06,397.497 1707.47,339.286 1717.89,280.173 1728.3,235.348 1738.71,217.324 1749.12,233.124 1759.54,281.841 1769.95,353.402 1780.36,429.503 1790.78,487.258 1801.19,505.335 1811.6,471.587 1822.01,390.217 1832.43,285.053 1842.84,194.097 1853.25,153.457 1863.67,178.324 1874.08,255.544 1884.49,353.642 1894.9,440.177 1905.32,493.334 1915.73,504.479 1926.14,475.734 1936.56,416.398 1946.97,339.854 1957.38,261.592 1967.79,198.489 1978.21,168.026 1988.62,184.451 1999.03,250.685 2009.45,351.315 2019.86,455.464 2030.27,529.699 2040.68,550.865 2051.1,511.803 2061.51,421.817 2071.92,304.801 2082.33,194.228 2092.75,123.94 2103.16,117.167 2113.57,178.259 2123.99,290.444 2134.4,420.578 2144.81,529.483 2155.22,584.147 2165.64,567.357 2176.05,482.74 2186.46,355.388 2196.88,226.343 2207.29,138.12 2217.7,116.007 2228.11,158.183 2238.53,241.795 2248.94,338.152 2259.35,425.517 2269.77,493.58 2280.18,540.981 2290.59,570.88 "/>
<polyline clip-path="url(#clip362)" style="stroke:#e26f46; stroke-linecap:round; stroke-linejoin:round; stroke-width:4; stroke-opacity:1; fill:none" points="218.439,1121.53 228.852,1102.01 239.264,1087.62 249.677,1078.82 260.09,1075.91 270.503,1078.98 280.916,1087.92 291.329,1102.46 301.741,1122.11 312.154,1146.23 322.567,1174.04 332.98,1204.63 343.393,1236.99 353.805,1270.08 364.218,1302.81 374.631,1334.12 385.044,1362.97 395.457,1388.44 405.87,1409.69 416.282,1426.03 426.695,1436.92 437.108,1442.01 447.521,1441.12 457.934,1434.3 468.347,1421.77 478.759,1403.92 489.172,1381.35 499.585,1354.79 509.998,1325.11 520.411,1293.28 530.824,1260.33 541.236,1227.35 551.649,1195.4 562.062,1165.53 572.475,1138.72 582.888,1115.83 593.301,1097.63 603.713,1084.69 614.126,1077.45 624.539,1076.14 634.952,1080.81 645.365,1091.29 655.777,1107.25 666.19,1128.17 676.603,1153.36 687.016,1182.01 697.429,1213.17 707.842,1245.83 718.254,1278.93 728.667,1311.38 739.08,1342.13 749.493,1370.17 759.906,1394.58 770.319,1414.58 780.731,1429.5 791.144,1438.86 801.557,1442.36 811.97,1439.87 822.383,1431.49 832.796,1417.48 843.208,1398.31 853.621,1374.59 864.034,1347.11 874.447,1316.75 884.86,1284.52 895.273,1251.45 905.685,1218.64 916.098,1187.15 926.511,1158.01 936.924,1132.17 947.337,1110.47 957.749,1093.62 968.162,1082.18 978.575,1076.52 988.988,1076.81 999.401,1083.05 1009.81,1095.05 1020.23,1112.39 1030.64,1134.53 1041.05,1160.73 1051.46,1190.15 1061.88,1221.82 1072.29,1254.7 1082.7,1287.73 1093.12,1319.83 1103.53,1349.95 1113.94,1377.1 1124.35,1400.4 1134.77,1419.1 1145.18,1432.57 1155.59,1440.38 1166.01,1442.28 1176.42,1438.2 1186.83,1428.27 1197.24,1412.83 1207.66,1392.37 1218.07,1367.56 1228.48,1339.22 1238.9,1308.26 1249.31,1275.69 1259.72,341.632 1270.13,340.118 1280.55,341.496 1290.96,346.084 1301.37,352.475 1311.79,357.97 1322.2,359.597 1332.61,355.369 1343.02,345.291 1353.44,331.705 1363.85,318.776 1374.26,311.224 1384.68,312.673 1395.09,324.196 1405.5,343.578 1415.91,365.637 1426.33,383.599 1436.74,391.176 1447.15,384.69 1457.57,364.566 1467.98,335.619 1478.39,305.953 1488.8,284.692 1499.22,279.184 1509.63,292.536 1520.04,322.283 1530.45,360.7 1540.87,396.788 1551.28,419.422 1561.69,420.762 1572.11,398.896 1582.52,358.822 1592.93,311.385 1603.34,270.351 1613.76,248.416 1624.17,253.294 1634.58,285.095 1645,335.863 1655.41,391.518 1665.82,435.757 1676.23,454.831 1686.65,441.788 1697.06,398.899 1707.47,337.426 1717.89,274.694 1728.3,229.208 1738.71,215.2 1749.12,238.203 1759.54,293.029 1769.95,364.853 1780.36,433.203 1790.78,477.795 1801.19,484.55 1811.6,449.997 1822.01,382.718 1832.43,301.262 1842.84,229.044 1853.25,187.614 1863.67,190.233 1874.08,237.676 1884.49,317.567 1894.9,407.576 1905.32,481.656 1915.73,517.578 1926.14,503.589 1936.56,442.206 1946.97,349.917 1957.38,252.777 1967.79,179.058 1978.21,151.016 1988.62,178.191 1999.03,254.239 2009.45,358.333 2019.86,460.856 2030.27,531.821 2040.68,549.646 2051.1,507.692 2061.51,416.612 2071.92,301.687 2082.33,195.823 2092.75,130.125 2103.16,124.766 2113.57,182.815 2123.99,288.917 2134.4,413.324 2144.81,520.232 2155.22,578.081 2165.64,568.871 2176.05,493.724 2186.46,373.006 2196.88,240.822 2207.29,135.387 2217.7,87.9763 2228.11,113.66 2238.53,206.554 2248.94,341.081 2259.35,479.002 2269.77,580.283 2280.18,614.711 2290.59,570.902 "/>
<path clip-path="url(#clip360)" d="M229.49 250.738 L675.966 250.738 L675.966 95.2176 L229.49 95.2176  Z" fill="#ffffff" fill-rule="evenodd" fill-opacity="1"/>
<polyline clip-path="url(#clip360)" style="stroke:#000000; stroke-linecap:round; stroke-linejoin:round; stroke-width:4; stroke-opacity:1; fill:none" points="229.49,250.738 675.966,250.738 675.966,95.2176 229.49,95.2176 229.49,250.738 "/>
<polyline clip-path="url(#clip360)" style="stroke:#009af9; stroke-linecap:round; stroke-linejoin:round; stroke-width:16; stroke-opacity:1; fill:none" stroke-dasharray="8, 16" points="253.896,147.058 400.328,147.058 "/>
<path clip-path="url(#clip360)" d="M429.409 133.62 L429.409 146.606 L435.289 146.606 Q438.552 146.606 440.335 144.916 Q442.117 143.227 442.117 140.102 Q442.117 137 440.335 135.31 Q438.552 133.62 435.289 133.62 L429.409 133.62 M424.733 129.778 L435.289 129.778 Q441.099 129.778 444.062 132.416 Q447.048 135.032 447.048 140.102 Q447.048 145.217 444.062 147.833 Q441.099 150.449 435.289 150.449 L429.409 150.449 L429.409 164.338 L424.733 164.338 L424.733 129.778 Z" fill="#000000" fill-rule="nonzero" fill-opacity="1" /><path clip-path="url(#clip360)" d="M467.325 142.393 Q466.608 141.977 465.751 141.791 Q464.918 141.583 463.899 141.583 Q460.288 141.583 458.344 143.944 Q456.423 146.282 456.423 150.68 L456.423 164.338 L452.14 164.338 L452.14 138.412 L456.423 138.412 L456.423 142.44 Q457.765 140.078 459.918 138.944 Q462.071 137.787 465.149 137.787 Q465.589 137.787 466.122 137.856 Q466.654 137.903 467.302 138.018 L467.325 142.393 Z" fill="#000000" fill-rule="nonzero" fill-opacity="1" /><path clip-path="url(#clip360)" d="M492.927 150.31 L492.927 152.393 L473.344 152.393 Q473.622 156.791 475.983 159.106 Q478.367 161.398 482.603 161.398 Q485.057 161.398 487.348 160.796 Q489.663 160.194 491.932 158.99 L491.932 163.018 Q489.64 163.99 487.233 164.5 Q484.825 165.009 482.348 165.009 Q476.145 165.009 472.511 161.398 Q468.899 157.787 468.899 151.629 Q468.899 145.264 472.325 141.537 Q475.774 137.787 481.608 137.787 Q486.839 137.787 489.872 141.166 Q492.927 144.523 492.927 150.31 M488.668 149.06 Q488.622 145.565 486.7 143.481 Q484.802 141.398 481.654 141.398 Q478.089 141.398 475.936 143.412 Q473.807 145.426 473.483 149.083 L488.668 149.06 Z" fill="#000000" fill-rule="nonzero" fill-opacity="1" /><path clip-path="url(#clip360)" d="M516.978 142.347 L516.978 128.319 L521.237 128.319 L521.237 164.338 L516.978 164.338 L516.978 160.449 Q515.635 162.763 513.575 163.898 Q511.538 165.009 508.668 165.009 Q503.969 165.009 501.006 161.259 Q498.066 157.509 498.066 151.398 Q498.066 145.287 501.006 141.537 Q503.969 137.787 508.668 137.787 Q511.538 137.787 513.575 138.921 Q515.635 140.032 516.978 142.347 M502.464 151.398 Q502.464 156.097 504.385 158.782 Q506.33 161.444 509.709 161.444 Q513.089 161.444 515.033 158.782 Q516.978 156.097 516.978 151.398 Q516.978 146.699 515.033 144.037 Q513.089 141.352 509.709 141.352 Q506.33 141.352 504.385 144.037 Q502.464 146.699 502.464 151.398 Z" fill="#000000" fill-rule="nonzero" fill-opacity="1" /><path clip-path="url(#clip360)" d="M530.01 138.412 L534.269 138.412 L534.269 164.338 L530.01 164.338 L530.01 138.412 M530.01 128.319 L534.269 128.319 L534.269 133.713 L530.01 133.713 L530.01 128.319 Z" fill="#000000" fill-rule="nonzero" fill-opacity="1" /><path clip-path="url(#clip360)" d="M561.839 139.407 L561.839 143.389 Q560.033 142.393 558.205 141.907 Q556.399 141.398 554.547 141.398 Q550.404 141.398 548.112 144.037 Q545.82 146.652 545.82 151.398 Q545.82 156.143 548.112 158.782 Q550.404 161.398 554.547 161.398 Q556.399 161.398 558.205 160.912 Q560.033 160.402 561.839 159.407 L561.839 163.342 Q560.056 164.176 558.135 164.592 Q556.237 165.009 554.084 165.009 Q548.228 165.009 544.779 161.328 Q541.33 157.648 541.33 151.398 Q541.33 145.055 544.802 141.421 Q548.297 137.787 554.362 137.787 Q556.33 137.787 558.205 138.203 Q560.08 138.597 561.839 139.407 Z" fill="#000000" fill-rule="nonzero" fill-opacity="1" /><path clip-path="url(#clip360)" d="M573.459 131.051 L573.459 138.412 L582.232 138.412 L582.232 141.722 L573.459 141.722 L573.459 155.796 Q573.459 158.967 574.316 159.87 Q575.195 160.773 577.857 160.773 L582.232 160.773 L582.232 164.338 L577.857 164.338 Q572.927 164.338 571.052 162.509 Q569.177 160.657 569.177 155.796 L569.177 141.722 L566.052 141.722 L566.052 138.412 L569.177 138.412 L569.177 131.051 L573.459 131.051 Z" fill="#000000" fill-rule="nonzero" fill-opacity="1" /><path clip-path="url(#clip360)" d="M587.834 138.412 L592.093 138.412 L592.093 164.338 L587.834 164.338 L587.834 138.412 M587.834 128.319 L592.093 128.319 L592.093 133.713 L587.834 133.713 L587.834 128.319 Z" fill="#000000" fill-rule="nonzero" fill-opacity="1" /><path clip-path="url(#clip360)" d="M611.051 141.398 Q607.626 141.398 605.635 144.083 Q603.644 146.745 603.644 151.398 Q603.644 156.051 605.612 158.736 Q607.602 161.398 611.051 161.398 Q614.454 161.398 616.445 158.713 Q618.436 156.027 618.436 151.398 Q618.436 146.791 616.445 144.106 Q614.454 141.398 611.051 141.398 M611.051 137.787 Q616.607 137.787 619.778 141.398 Q622.95 145.009 622.95 151.398 Q622.95 157.764 619.778 161.398 Q616.607 165.009 611.051 165.009 Q605.473 165.009 602.302 161.398 Q599.153 157.764 599.153 151.398 Q599.153 145.009 602.302 141.398 Q605.473 137.787 611.051 137.787 Z" fill="#000000" fill-rule="nonzero" fill-opacity="1" /><path clip-path="url(#clip360)" d="M651.561 148.689 L651.561 164.338 L647.301 164.338 L647.301 148.828 Q647.301 145.148 645.866 143.319 Q644.431 141.49 641.561 141.49 Q638.112 141.49 636.121 143.69 Q634.13 145.889 634.13 149.685 L634.13 164.338 L629.848 164.338 L629.848 138.412 L634.13 138.412 L634.13 142.44 Q635.658 140.102 637.718 138.944 Q639.801 137.787 642.51 137.787 Q646.977 137.787 649.269 140.565 Q651.561 143.319 651.561 148.689 Z" fill="#000000" fill-rule="nonzero" fill-opacity="1" /><polyline clip-path="url(#clip360)" style="stroke:#e26f46; stroke-linecap:round; stroke-linejoin:round; stroke-width:4; stroke-opacity:1; fill:none" points="253.896,198.898 400.328,198.898 "/>
<path clip-path="url(#clip360)" d="M424.733 181.618 L446.585 181.618 L446.585 185.553 L429.409 185.553 L429.409 195.784 L445.867 195.784 L445.867 199.719 L429.409 199.719 L429.409 212.242 L447.001 212.242 L447.001 216.178 L424.733 216.178 L424.733 181.618 Z" fill="#000000" fill-rule="nonzero" fill-opacity="1" /><path clip-path="url(#clip360)" d="M476.052 190.252 L466.677 202.867 L476.538 216.178 L471.515 216.178 L463.969 205.992 L456.423 216.178 L451.4 216.178 L461.469 202.613 L452.256 190.252 L457.279 190.252 L464.154 199.488 L471.029 190.252 L476.052 190.252 Z" fill="#000000" fill-rule="nonzero" fill-opacity="1" /><path clip-path="url(#clip360)" d="M494.339 203.145 Q489.177 203.145 487.186 204.326 Q485.196 205.506 485.196 208.354 Q485.196 210.622 486.677 211.965 Q488.182 213.284 490.751 213.284 Q494.293 213.284 496.422 210.784 Q498.575 208.261 498.575 204.094 L498.575 203.145 L494.339 203.145 M502.834 201.386 L502.834 216.178 L498.575 216.178 L498.575 212.242 Q497.117 214.603 494.941 215.738 Q492.765 216.849 489.617 216.849 Q485.635 216.849 483.274 214.627 Q480.936 212.381 480.936 208.631 Q480.936 204.256 483.853 202.034 Q486.793 199.812 492.603 199.812 L498.575 199.812 L498.575 199.395 Q498.575 196.455 496.631 194.858 Q494.71 193.238 491.214 193.238 Q488.992 193.238 486.885 193.77 Q484.779 194.303 482.835 195.367 L482.835 191.432 Q485.173 190.53 487.372 190.09 Q489.571 189.627 491.654 189.627 Q497.279 189.627 500.057 192.543 Q502.834 195.46 502.834 201.386 Z" fill="#000000" fill-rule="nonzero" fill-opacity="1" /><path clip-path="url(#clip360)" d="M530.265 191.247 L530.265 195.229 Q528.459 194.233 526.631 193.747 Q524.825 193.238 522.973 193.238 Q518.83 193.238 516.538 195.877 Q514.246 198.492 514.246 203.238 Q514.246 207.983 516.538 210.622 Q518.83 213.238 522.973 213.238 Q524.825 213.238 526.631 212.752 Q528.459 212.242 530.265 211.247 L530.265 215.182 Q528.482 216.016 526.561 216.432 Q524.663 216.849 522.51 216.849 Q516.654 216.849 513.205 213.168 Q509.756 209.488 509.756 203.238 Q509.756 196.895 513.228 193.261 Q516.723 189.627 522.788 189.627 Q524.756 189.627 526.631 190.043 Q528.506 190.437 530.265 191.247 Z" fill="#000000" fill-rule="nonzero" fill-opacity="1" /><path clip-path="url(#clip360)" d="M541.885 182.891 L541.885 190.252 L550.658 190.252 L550.658 193.562 L541.885 193.562 L541.885 207.636 Q541.885 210.807 542.742 211.71 Q543.621 212.613 546.283 212.613 L550.658 212.613 L550.658 216.178 L546.283 216.178 Q541.353 216.178 539.478 214.349 Q537.603 212.497 537.603 207.636 L537.603 193.562 L534.478 193.562 L534.478 190.252 L537.603 190.252 L537.603 182.891 L541.885 182.891 Z" fill="#000000" fill-rule="nonzero" fill-opacity="1" /></svg>
