<?xml version="1.0" encoding="utf-8"?>
<svg xmlns="http://www.w3.org/2000/svg" xmlns:xlink="http://www.w3.org/1999/xlink" width="600" height="400" viewBox="0 0 2400 1600">
<defs>
  <clipPath id="clip420">
    <rect x="0" y="0" width="2400" height="1600"/>
  </clipPath>
</defs>
<path clip-path="url(#clip420)" d="M0 1600 L2400 1600 L2400 0 L0 0  Z" fill="#ffffff" fill-rule="evenodd" fill-opacity="1"/>
<defs>
  <clipPath id="clip421">
    <rect x="480" y="0" width="1681" height="1600"/>
  </clipPath>
</defs>
<path clip-path="url(#clip420)" d="M156.274 1486.45 L2352.76 1486.45 L2352.76 47.2441 L156.274 47.2441  Z" fill="#ffffff" fill-rule="evenodd" fill-opacity="1"/>
<defs>
  <clipPath id="clip422">
    <rect x="156" y="47" width="2197" height="1440"/>
  </clipPath>
</defs>
<polyline clip-path="url(#clip422)" style="stroke:#000000; stroke-linecap:round; stroke-linejoin:round; stroke-width:2; stroke-opacity:0.1; fill:none" points="218.439,1486.45 218.439,47.2441 "/>
<polyline clip-path="url(#clip422)" style="stroke:#000000; stroke-linecap:round; stroke-linejoin:round; stroke-width:2; stroke-opacity:0.1; fill:none" points="736.477,1486.45 736.477,47.2441 "/>
<polyline clip-path="url(#clip422)" style="stroke:#000000; stroke-linecap:round; stroke-linejoin:round; stroke-width:2; stroke-opacity:0.1; fill:none" points="1254.52,1486.45 1254.52,47.2441 "/>
<polyline clip-path="url(#clip422)" style="stroke:#000000; stroke-linecap:round; stroke-linejoin:round; stroke-width:2; stroke-opacity:0.1; fill:none" points="1772.55,1486.45 1772.55,47.2441 "/>
<polyline clip-path="url(#clip422)" style="stroke:#000000; stroke-linecap:round; stroke-linejoin:round; stroke-width:2; stroke-opacity:0.1; fill:none" points="2290.59,1486.45 2290.59,47.2441 "/>
<polyline clip-path="url(#clip420)" style="stroke:#000000; stroke-linecap:round; stroke-linejoin:round; stroke-width:4; stroke-opacity:1; fill:none" points="156.274,1486.45 2352.76,1486.45 "/>
<polyline clip-path="url(#clip420)" style="stroke:#000000; stroke-linecap:round; stroke-linejoin:round; stroke-width:4; stroke-opacity:1; fill:none" points="218.439,1486.45 218.439,1467.55 "/>
<polyline clip-path="url(#clip420)" style="stroke:#000000; stroke-linecap:round; stroke-linejoin:round; stroke-width:4; stroke-opacity:1; fill:none" points="736.477,1486.45 736.477,1467.55 "/>
<polyline clip-path="url(#clip420)" style="stroke:#000000; stroke-linecap:round; stroke-linejoin:round; stroke-width:4; stroke-opacity:1; fill:none" points="1254.52,1486.45 1254.52,1467.55 "/>
<polyline clip-path="url(#clip420)" style="stroke:#000000; stroke-linecap:round; stroke-linejoin:round; stroke-width:4; stroke-opacity:1; fill:none" points="1772.55,1486.45 1772.55,1467.55 "/>
<polyline clip-path="url(#clip420)" style="stroke:#000000; stroke-linecap:round; stroke-linejoin:round; stroke-width:4; stroke-opacity:1; fill:none" points="2290.59,1486.45 2290.59,1467.55 "/>
<path clip-path="url(#clip420)" d="M164.967 1532.02 L194.643 1532.02 L194.643 1535.95 L164.967 1535.95 L164.967 1532.02 Z" fill="#000000" fill-rule="nonzero" fill-opacity="1" /><path clip-path="url(#clip420)" d="M205.545 1544.91 L213.184 1544.91 L213.184 1518.55 L204.874 1520.21 L204.874 1515.95 L213.138 1514.29 L217.814 1514.29 L217.814 1544.91 L225.453 1544.91 L225.453 1548.85 L205.545 1548.85 L205.545 1544.91 Z" fill="#000000" fill-rule="nonzero" fill-opacity="1" /><path clip-path="url(#clip420)" d="M234.897 1542.97 L239.781 1542.97 L239.781 1548.85 L234.897 1548.85 L234.897 1542.97 Z" fill="#000000" fill-rule="nonzero" fill-opacity="1" /><path clip-path="url(#clip420)" d="M259.966 1517.37 Q256.355 1517.37 254.527 1520.93 Q252.721 1524.47 252.721 1531.6 Q252.721 1538.71 254.527 1542.27 Q256.355 1545.82 259.966 1545.82 Q263.601 1545.82 265.406 1542.27 Q267.235 1538.71 267.235 1531.6 Q267.235 1524.47 265.406 1520.93 Q263.601 1517.37 259.966 1517.37 M259.966 1513.66 Q265.776 1513.66 268.832 1518.27 Q271.911 1522.85 271.911 1531.6 Q271.911 1540.33 268.832 1544.94 Q265.776 1549.52 259.966 1549.52 Q254.156 1549.52 251.077 1544.94 Q248.022 1540.33 248.022 1531.6 Q248.022 1522.85 251.077 1518.27 Q254.156 1513.66 259.966 1513.66 Z" fill="#000000" fill-rule="nonzero" fill-opacity="1" /><path clip-path="url(#clip420)" d="M683.503 1532.02 L713.178 1532.02 L713.178 1535.95 L683.503 1535.95 L683.503 1532.02 Z" fill="#000000" fill-rule="nonzero" fill-opacity="1" /><path clip-path="url(#clip420)" d="M733.271 1517.37 Q729.66 1517.37 727.831 1520.93 Q726.026 1524.47 726.026 1531.6 Q726.026 1538.71 727.831 1542.27 Q729.66 1545.82 733.271 1545.82 Q736.905 1545.82 738.711 1542.27 Q740.539 1538.71 740.539 1531.6 Q740.539 1524.47 738.711 1520.93 Q736.905 1517.37 733.271 1517.37 M733.271 1513.66 Q739.081 1513.66 742.137 1518.27 Q745.215 1522.85 745.215 1531.6 Q745.215 1540.33 742.137 1544.94 Q739.081 1549.52 733.271 1549.52 Q727.461 1549.52 724.382 1544.94 Q721.327 1540.33 721.327 1531.6 Q721.327 1522.85 724.382 1518.27 Q727.461 1513.66 733.271 1513.66 Z" fill="#000000" fill-rule="nonzero" fill-opacity="1" /><path clip-path="url(#clip420)" d="M753.433 1542.97 L758.317 1542.97 L758.317 1548.85 L753.433 1548.85 L753.433 1542.97 Z" fill="#000000" fill-rule="nonzero" fill-opacity="1" /><path clip-path="url(#clip420)" d="M768.548 1514.29 L786.905 1514.29 L786.905 1518.22 L772.831 1518.22 L772.831 1526.7 Q773.849 1526.35 774.868 1526.19 Q775.886 1526 776.905 1526 Q782.692 1526 786.072 1529.17 Q789.451 1532.34 789.451 1537.76 Q789.451 1543.34 785.979 1546.44 Q782.507 1549.52 776.187 1549.52 Q774.011 1549.52 771.743 1549.15 Q769.498 1548.78 767.09 1548.04 L767.09 1543.34 Q769.173 1544.47 771.396 1545.03 Q773.618 1545.58 776.095 1545.58 Q780.099 1545.58 782.437 1543.48 Q784.775 1541.37 784.775 1537.76 Q784.775 1534.15 782.437 1532.04 Q780.099 1529.94 776.095 1529.94 Q774.22 1529.94 772.345 1530.35 Q770.493 1530.77 768.548 1531.65 L768.548 1514.29 Z" fill="#000000" fill-rule="nonzero" fill-opacity="1" /><path clip-path="url(#clip420)" d="M1231.9 1517.37 Q1228.29 1517.37 1226.46 1520.93 Q1224.65 1524.47 1224.65 1531.6 Q1224.65 1538.71 1226.46 1542.27 Q1228.29 1545.82 1231.9 1545.82 Q1235.53 1545.82 1237.34 1542.27 Q1239.17 1538.71 1239.17 1531.6 Q1239.17 1524.47 1237.34 1520.93 Q1235.53 1517.37 1231.9 1517.37 M1231.9 1513.66 Q1237.71 1513.66 1240.77 1518.27 Q1243.84 1522.85 1243.84 1531.6 Q1243.84 1540.33 1240.77 1544.94 Q1237.71 1549.52 1231.9 1549.52 Q1226.09 1549.52 1223.01 1544.94 Q1219.96 1540.33 1219.96 1531.6 Q1219.96 1522.85 1223.01 1518.27 Q1226.09 1513.66 1231.9 1513.66 Z" fill="#000000" fill-rule="nonzero" fill-opacity="1" /><path clip-path="url(#clip420)" d="M1252.06 1542.97 L1256.95 1542.97 L1256.95 1548.85 L1252.06 1548.85 L1252.06 1542.97 Z" fill="#000000" fill-rule="nonzero" fill-opacity="1" /><path clip-path="url(#clip420)" d="M1277.13 1517.37 Q1273.52 1517.37 1271.69 1520.93 Q1269.89 1524.47 1269.89 1531.6 Q1269.89 1538.71 1271.69 1542.27 Q1273.52 1545.82 1277.13 1545.82 Q1280.76 1545.82 1282.57 1542.27 Q1284.4 1538.71 1284.4 1531.6 Q1284.4 1524.47 1282.57 1520.93 Q1280.76 1517.37 1277.13 1517.37 M1277.13 1513.66 Q1282.94 1513.66 1286 1518.27 Q1289.08 1522.85 1289.08 1531.6 Q1289.08 1540.33 1286 1544.94 Q1282.94 1549.52 1277.13 1549.52 Q1271.32 1549.52 1268.24 1544.94 Q1265.19 1540.33 1265.19 1531.6 Q1265.19 1522.85 1268.24 1518.27 Q1271.32 1513.66 1277.13 1513.66 Z" fill="#000000" fill-rule="nonzero" fill-opacity="1" /><path clip-path="url(#clip420)" d="M1750.44 1517.37 Q1746.82 1517.37 1745 1520.93 Q1743.19 1524.47 1743.19 1531.6 Q1743.19 1538.71 1745 1542.27 Q1746.82 1545.82 1750.44 1545.82 Q1754.07 1545.82 1755.88 1542.27 Q1757.7 1538.71 1757.7 1531.6 Q1757.7 1524.47 1755.88 1520.93 Q1754.07 1517.37 1750.44 1517.37 M1750.44 1513.66 Q1756.25 1513.66 1759.3 1518.27 Q1762.38 1522.85 1762.38 1531.6 Q1762.38 1540.33 1759.3 1544.94 Q1756.25 1549.52 1750.44 1549.52 Q1744.63 1549.52 1741.55 1544.94 Q1738.49 1540.33 1738.49 1531.6 Q1738.49 1522.85 1741.55 1518.27 Q1744.63 1513.66 1750.44 1513.66 Z" fill="#000000" fill-rule="nonzero" fill-opacity="1" /><path clip-path="url(#clip420)" d="M1770.6 1542.97 L1775.48 1542.97 L1775.48 1548.85 L1770.6 1548.85 L1770.6 1542.97 Z" fill="#000000" fill-rule="nonzero" fill-opacity="1" /><path clip-path="url(#clip420)" d="M1785.71 1514.29 L1804.07 1514.29 L1804.07 1518.22 L1790 1518.22 L1790 1526.7 Q1791.01 1526.35 1792.03 1526.19 Q1793.05 1526 1794.07 1526 Q1799.86 1526 1803.24 1529.17 Q1806.62 1532.34 1806.62 1537.76 Q1806.62 1543.34 1803.14 1546.44 Q1799.67 1549.52 1793.35 1549.52 Q1791.18 1549.52 1788.91 1549.15 Q1786.66 1548.78 1784.25 1548.04 L1784.25 1543.34 Q1786.34 1544.47 1788.56 1545.03 Q1790.78 1545.58 1793.26 1545.58 Q1797.26 1545.58 1799.6 1543.48 Q1801.94 1541.37 1801.94 1537.76 Q1801.94 1534.15 1799.6 1532.04 Q1797.26 1529.94 1793.26 1529.94 Q1791.38 1529.94 1789.51 1530.35 Q1787.66 1530.77 1785.71 1531.65 L1785.71 1514.29 Z" fill="#000000" fill-rule="nonzero" fill-opacity="1" /><path clip-path="url(#clip420)" d="M2257.74 1544.91 L2265.38 1544.91 L2265.38 1518.55 L2257.07 1520.21 L2257.07 1515.95 L2265.34 1514.29 L2270.01 1514.29 L2270.01 1544.91 L2277.65 1544.91 L2277.65 1548.85 L2257.74 1548.85 L2257.74 1544.91 Z" fill="#000000" fill-rule="nonzero" fill-opacity="1" /><path clip-path="url(#clip420)" d="M2287.1 1542.97 L2291.98 1542.97 L2291.98 1548.85 L2287.1 1548.85 L2287.1 1542.97 Z" fill="#000000" fill-rule="nonzero" fill-opacity="1" /><path clip-path="url(#clip420)" d="M2312.17 1517.37 Q2308.55 1517.37 2306.73 1520.93 Q2304.92 1524.47 2304.92 1531.6 Q2304.92 1538.71 2306.73 1542.27 Q2308.55 1545.82 2312.17 1545.82 Q2315.8 1545.82 2317.61 1542.27 Q2319.43 1538.71 2319.43 1531.6 Q2319.43 1524.47 2317.61 1520.93 Q2315.8 1517.37 2312.17 1517.37 M2312.17 1513.66 Q2317.98 1513.66 2321.03 1518.27 Q2324.11 1522.85 2324.11 1531.6 Q2324.11 1540.33 2321.03 1544.94 Q2317.98 1549.52 2312.17 1549.52 Q2306.36 1549.52 2303.28 1544.94 Q2300.22 1540.33 2300.22 1531.6 Q2300.22 1522.85 2303.28 1518.27 Q2306.36 1513.66 2312.17 1513.66 Z" fill="#000000" fill-rule="nonzero" fill-opacity="1" /><polyline clip-path="url(#clip422)" style="stroke:#000000; stroke-linecap:round; stroke-linejoin:round; stroke-width:2; stroke-opacity:0.1; fill:none" points="156.274,1257.96 2352.76,1257.96 "/>
<polyline clip-path="url(#clip422)" style="stroke:#000000; stroke-linecap:round; stroke-linejoin:round; stroke-width:2; stroke-opacity:0.1; fill:none" points="156.274,983.387 2352.76,983.387 "/>
<polyline clip-path="url(#clip422)" style="stroke:#000000; stroke-linecap:round; stroke-linejoin:round; stroke-width:2; stroke-opacity:0.1; fill:none" points="156.274,708.809 2352.76,708.809 "/>
<polyline clip-path="url(#clip422)" style="stroke:#000000; stroke-linecap:round; stroke-linejoin:round; stroke-width:2; stroke-opacity:0.1; fill:none" points="156.274,434.232 2352.76,434.232 "/>
<polyline clip-path="url(#clip422)" style="stroke:#000000; stroke-linecap:round; stroke-linejoin:round; stroke-width:2; stroke-opacity:0.1; fill:none" points="156.274,159.655 2352.76,159.655 "/>
<polyline clip-path="url(#clip420)" style="stroke:#000000; stroke-linecap:round; stroke-linejoin:round; stroke-width:4; stroke-opacity:1; fill:none" points="156.274,1486.45 156.274,47.2441 "/>
<polyline clip-path="url(#clip420)" style="stroke:#000000; stroke-linecap:round; stroke-linejoin:round; stroke-width:4; stroke-opacity:1; fill:none" points="156.274,1257.96 175.172,1257.96 "/>
<polyline clip-path="url(#clip420)" style="stroke:#000000; stroke-linecap:round; stroke-linejoin:round; stroke-width:4; stroke-opacity:1; fill:none" points="156.274,983.387 175.172,983.387 "/>
<polyline clip-path="url(#clip420)" style="stroke:#000000; stroke-linecap:round; stroke-linejoin:round; stroke-width:4; stroke-opacity:1; fill:none" points="156.274,708.809 175.172,708.809 "/>
<polyline clip-path="url(#clip420)" style="stroke:#000000; stroke-linecap:round; stroke-linejoin:round; stroke-width:4; stroke-opacity:1; fill:none" points="156.274,434.232 175.172,434.232 "/>
<polyline clip-path="url(#clip420)" style="stroke:#000000; stroke-linecap:round; stroke-linejoin:round; stroke-width:4; stroke-opacity:1; fill:none" points="156.274,159.655 175.172,159.655 "/>
<path clip-path="url(#clip420)" d="M63.0985 1243.76 Q59.4875 1243.76 57.6588 1247.33 Q55.8532 1250.87 55.8532 1258 Q55.8532 1265.11 57.6588 1268.67 Q59.4875 1272.21 63.0985 1272.21 Q66.7328 1272.21 68.5383 1268.67 Q70.367 1265.11 70.367 1258 Q70.367 1250.87 68.5383 1247.33 Q66.7328 1243.76 63.0985 1243.76 M63.0985 1240.06 Q68.9087 1240.06 71.9642 1244.67 Q75.0429 1249.25 75.0429 1258 Q75.0429 1266.73 71.9642 1271.33 Q68.9087 1275.92 63.0985 1275.92 Q57.2884 1275.92 54.2097 1271.33 Q51.1542 1266.73 51.1542 1258 Q51.1542 1249.25 54.2097 1244.67 Q57.2884 1240.06 63.0985 1240.06 Z" fill="#000000" fill-rule="nonzero" fill-opacity="1" /><path clip-path="url(#clip420)" d="M83.2605 1269.36 L88.1447 1269.36 L88.1447 1275.24 L83.2605 1275.24 L83.2605 1269.36 Z" fill="#000000" fill-rule="nonzero" fill-opacity="1" /><path clip-path="url(#clip420)" d="M108.33 1243.76 Q104.719 1243.76 102.89 1247.33 Q101.084 1250.87 101.084 1258 Q101.084 1265.11 102.89 1268.67 Q104.719 1272.21 108.33 1272.21 Q111.964 1272.21 113.77 1268.67 Q115.598 1265.11 115.598 1258 Q115.598 1250.87 113.77 1247.33 Q111.964 1243.76 108.33 1243.76 M108.33 1240.06 Q114.14 1240.06 117.195 1244.67 Q120.274 1249.25 120.274 1258 Q120.274 1266.73 117.195 1271.33 Q114.14 1275.92 108.33 1275.92 Q102.52 1275.92 99.4409 1271.33 Q96.3854 1266.73 96.3854 1258 Q96.3854 1249.25 99.4409 1244.67 Q102.52 1240.06 108.33 1240.06 Z" fill="#000000" fill-rule="nonzero" fill-opacity="1" /><path clip-path="url(#clip420)" d="M63.7467 969.185 Q60.1356 969.185 58.3069 972.75 Q56.5014 976.292 56.5014 983.421 Q56.5014 990.528 58.3069 994.093 Q60.1356 997.634 63.7467 997.634 Q67.3809 997.634 69.1865 994.093 Q71.0152 990.528 71.0152 983.421 Q71.0152 976.292 69.1865 972.75 Q67.3809 969.185 63.7467 969.185 M63.7467 965.482 Q69.5568 965.482 72.6124 970.088 Q75.6911 974.672 75.6911 983.421 Q75.6911 992.148 72.6124 996.755 Q69.5568 1001.34 63.7467 1001.34 Q57.9365 1001.34 54.8578 996.755 Q51.8023 992.148 51.8023 983.421 Q51.8023 974.672 54.8578 970.088 Q57.9365 965.482 63.7467 965.482 Z" fill="#000000" fill-rule="nonzero" fill-opacity="1" /><path clip-path="url(#clip420)" d="M83.9086 994.787 L88.7928 994.787 L88.7928 1000.67 L83.9086 1000.67 L83.9086 994.787 Z" fill="#000000" fill-rule="nonzero" fill-opacity="1" /><path clip-path="url(#clip420)" d="M113.145 982.033 Q116.501 982.75 118.376 985.019 Q120.274 987.287 120.274 990.621 Q120.274 995.736 116.756 998.537 Q113.237 1001.34 106.756 1001.34 Q104.58 1001.34 102.265 1000.9 Q99.9733 1000.48 97.5197 999.625 L97.5197 995.111 Q99.4641 996.245 101.779 996.824 Q104.094 997.403 106.617 997.403 Q111.015 997.403 113.307 995.667 Q115.621 993.931 115.621 990.621 Q115.621 987.565 113.469 985.852 Q111.339 984.116 107.52 984.116 L103.492 984.116 L103.492 980.273 L107.705 980.273 Q111.154 980.273 112.983 978.908 Q114.811 977.519 114.811 974.926 Q114.811 972.264 112.913 970.852 Q111.038 969.417 107.52 969.417 Q105.598 969.417 103.399 969.834 Q101.2 970.25 98.5613 971.13 L98.5613 966.963 Q101.223 966.222 103.538 965.852 Q105.876 965.482 107.936 965.482 Q113.26 965.482 116.362 967.912 Q119.464 970.32 119.464 974.44 Q119.464 977.31 117.82 979.301 Q116.177 981.269 113.145 982.033 Z" fill="#000000" fill-rule="nonzero" fill-opacity="1" /><path clip-path="url(#clip420)" d="M62.9365 694.608 Q59.3254 694.608 57.4967 698.173 Q55.6912 701.715 55.6912 708.844 Q55.6912 715.951 57.4967 719.515 Q59.3254 723.057 62.9365 723.057 Q66.5707 723.057 68.3763 719.515 Q70.205 715.951 70.205 708.844 Q70.205 701.715 68.3763 698.173 Q66.5707 694.608 62.9365 694.608 M62.9365 690.904 Q68.7467 690.904 71.8022 695.511 Q74.8809 700.094 74.8809 708.844 Q74.8809 717.571 71.8022 722.177 Q68.7467 726.761 62.9365 726.761 Q57.1264 726.761 54.0477 722.177 Q50.9921 717.571 50.9921 708.844 Q50.9921 700.094 54.0477 695.511 Q57.1264 690.904 62.9365 690.904 Z" fill="#000000" fill-rule="nonzero" fill-opacity="1" /><path clip-path="url(#clip420)" d="M83.0984 720.21 L87.9827 720.21 L87.9827 726.089 L83.0984 726.089 L83.0984 720.21 Z" fill="#000000" fill-rule="nonzero" fill-opacity="1" /><path clip-path="url(#clip420)" d="M108.746 706.946 Q105.598 706.946 103.746 709.099 Q101.918 711.251 101.918 715.001 Q101.918 718.728 103.746 720.904 Q105.598 723.057 108.746 723.057 Q111.895 723.057 113.723 720.904 Q115.575 718.728 115.575 715.001 Q115.575 711.251 113.723 709.099 Q111.895 706.946 108.746 706.946 M118.029 692.293 L118.029 696.553 Q116.27 695.719 114.464 695.279 Q112.682 694.84 110.922 694.84 Q106.293 694.84 103.839 697.965 Q101.409 701.09 101.061 707.409 Q102.427 705.395 104.487 704.33 Q106.547 703.242 109.024 703.242 Q114.233 703.242 117.242 706.414 Q120.274 709.562 120.274 715.001 Q120.274 720.326 117.126 723.543 Q113.978 726.761 108.746 726.761 Q102.751 726.761 99.5798 722.177 Q96.4085 717.571 96.4085 708.844 Q96.4085 700.65 100.297 695.789 Q104.186 690.904 110.737 690.904 Q112.496 690.904 114.279 691.252 Q116.084 691.599 118.029 692.293 Z" fill="#000000" fill-rule="nonzero" fill-opacity="1" /><path clip-path="url(#clip420)" d="M63.2837 420.031 Q59.6726 420.031 57.8439 423.595 Q56.0384 427.137 56.0384 434.267 Q56.0384 441.373 57.8439 444.938 Q59.6726 448.48 63.2837 448.48 Q66.918 448.48 68.7235 444.938 Q70.5522 441.373 70.5522 434.267 Q70.5522 427.137 68.7235 423.595 Q66.918 420.031 63.2837 420.031 M63.2837 416.327 Q69.0939 416.327 72.1494 420.933 Q75.2281 425.517 75.2281 434.267 Q75.2281 442.994 72.1494 447.6 Q69.0939 452.183 63.2837 452.183 Q57.4736 452.183 54.3949 447.6 Q51.3393 442.994 51.3393 434.267 Q51.3393 425.517 54.3949 420.933 Q57.4736 416.327 63.2837 416.327 Z" fill="#000000" fill-rule="nonzero" fill-opacity="1" /><path clip-path="url(#clip420)" d="M83.4457 445.632 L88.3299 445.632 L88.3299 451.512 L83.4457 451.512 L83.4457 445.632 Z" fill="#000000" fill-rule="nonzero" fill-opacity="1" /><path clip-path="url(#clip420)" d="M98.6539 450.794 L98.6539 446.535 Q100.413 447.369 102.219 447.808 Q104.024 448.248 105.76 448.248 Q110.39 448.248 112.82 445.146 Q115.274 442.021 115.621 435.679 Q114.279 437.669 112.219 438.734 Q110.158 439.799 107.658 439.799 Q102.473 439.799 99.4409 436.674 Q96.4317 433.526 96.4317 428.086 Q96.4317 422.762 99.5798 419.545 Q102.728 416.327 107.959 416.327 Q113.955 416.327 117.103 420.933 Q120.274 425.517 120.274 434.267 Q120.274 442.438 116.385 447.322 Q112.52 452.183 105.969 452.183 Q104.209 452.183 102.404 451.836 Q100.598 451.489 98.6539 450.794 M107.959 436.142 Q111.108 436.142 112.936 433.989 Q114.788 431.836 114.788 428.086 Q114.788 424.359 112.936 422.207 Q111.108 420.031 107.959 420.031 Q104.811 420.031 102.959 422.207 Q101.131 424.359 101.131 428.086 Q101.131 431.836 102.959 433.989 Q104.811 436.142 107.959 436.142 Z" fill="#000000" fill-rule="nonzero" fill-opacity="1" /><path clip-path="url(#clip420)" d="M55.506 172.999 L63.1448 172.999 L63.1448 146.634 L54.8347 148.301 L54.8347 144.041 L63.0985 142.375 L67.7744 142.375 L67.7744 172.999 L75.4133 172.999 L75.4133 176.935 L55.506 176.935 L55.506 172.999 Z" fill="#000000" fill-rule="nonzero" fill-opacity="1" /><path clip-path="url(#clip420)" d="M84.8577 171.055 L89.7419 171.055 L89.7419 176.935 L84.8577 176.935 L84.8577 171.055 Z" fill="#000000" fill-rule="nonzero" fill-opacity="1" /><path clip-path="url(#clip420)" d="M103.955 172.999 L120.274 172.999 L120.274 176.935 L98.3298 176.935 L98.3298 172.999 Q100.992 170.245 105.575 165.615 Q110.182 160.962 111.362 159.62 Q113.608 157.097 114.487 155.361 Q115.39 153.601 115.39 151.912 Q115.39 149.157 113.445 147.421 Q111.524 145.685 108.422 145.685 Q106.223 145.685 103.77 146.449 Q101.339 147.213 98.5613 148.763 L98.5613 144.041 Q101.385 142.907 103.839 142.328 Q106.293 141.75 108.33 141.75 Q113.7 141.75 116.895 144.435 Q120.089 147.12 120.089 151.611 Q120.089 153.74 119.279 155.662 Q118.492 157.56 116.385 160.152 Q115.807 160.824 112.705 164.041 Q109.603 167.236 103.955 172.999 Z" fill="#000000" fill-rule="nonzero" fill-opacity="1" /><polyline clip-path="url(#clip422)" style="stroke:#009af9; stroke-linecap:round; stroke-linejoin:round; stroke-width:16; stroke-opacity:1; fill:none" stroke-dasharray="8, 16" points="218.439,1117.14 228.852,1110.28 239.264,1099.1 249.677,1084.78 260.09,1071.08 270.503,1064.83 280.916,1072.33 291.329,1093.27 301.741,1121.13 312.154,1149.8 322.567,1177.64 332.98,1206.48 343.393,1238.2 353.805,1272.05 364.218,1305.37 374.631,1336.18 385.044,1363.85 395.457,1388.2 405.87,1408.84 416.282,1425.11 426.695,1436.25 437.108,1441.54 447.521,1440.57 457.934,1433.36 468.347,1420.33 478.759,1402.12 489.172,1379.46 499.585,1353.09 509.998,1323.82 520.411,1292.5 530.824,1260.07 541.236,1227.55 551.649,1195.98 562.062,1166.42 572.475,1139.89 582.888,1117.34 593.301,1099.58 603.713,1087.18 614.126,1080.33 624.539,1078.91 634.952,1082.81 645.365,1092.21 655.777,1107.33 666.19,1127.98 676.603,1153.41 687.016,1182.43 697.429,1213.75 707.842,1246.27 718.254,1279.1 728.667,1311.27 739.08,1341.76 749.493,1369.7 759.906,1394.4 770.319,1414.87 780.731,1430.06 791.144,1439.31 801.557,1442.6 811.97,1440.57 822.383,1434.09 832.796,1422.75 843.208,1403.66 853.621,1375.15 864.034,1342.13 874.447,1310.87 884.86,1281.46 895.273,1251.02 905.685,1218.53 916.098,1185.53 926.511,1154.63 936.924,1130.27 947.337,1117.55 957.749,1108.4 968.162,1089.1 978.575,1073.23 988.988,1080.88 999.401,1106.7 1009.81,1124.11 1020.23,1117.28 1030.64,1086.77 1041.05,1057.09 1051.46,1095.56 1061.88,1195.16 1072.29,1310.9 1082.7,1366.54 1093.12,1375.38 1103.53,1346.44 1113.94,1373.77 1124.35,1388.89 1134.77,1439.65 1145.18,1445.72 1155.59,1411.86 1166.01,1397.17 1176.42,1410.22 1186.83,1423.18 1197.24,1407.54 1207.66,1371.8 1218.07,1376.13 1228.48,1365.52 1238.9,1223.51 1249.31,914.83 1259.72,584.833 1270.13,391.846 1280.55,303.822 1290.96,279.062 1301.37,294.668 1311.79,332.716 1322.2,378.057 1332.61,410.388 1343.02,407.512 1353.44,365.819 1363.85,297.58 1374.26,228.088 1384.68,227.85 1395.09,286.855 1405.5,359.068 1415.91,433.657 1426.33,473.502 1436.74,443.73 1447.15,370.038 1457.57,335.667 1467.98,324.422 1478.39,300.368 1488.8,285.246 1499.22,311.305 1509.63,324.598 1520.04,329.429 1530.45,360.359 1540.87,411.725 1551.28,461.288 1561.69,454.688 1572.11,393.986 1582.52,328.361 1592.93,284.642 1603.34,256.594 1613.76,243.738 1624.17,263.703 1634.58,311.424 1645,358.492 1655.41,388.154 1665.82,400.863 1676.23,405.883 1686.65,405.575 1697.06,386.248 1707.47,338.577 1717.89,272.558 1728.3,217.751 1738.71,207.628 1749.12,248.703 1759.54,316.567 1769.95,383.538 1780.36,433.641 1790.78,460.497 1801.19,461.382 1811.6,433.361 1822.01,374.155 1832.43,288.283 1842.84,195.718 1853.25,140.523 1863.67,172.511 1874.08,273.699 1884.49,380.261 1894.9,457.443 1905.32,497.71 1915.73,502.174 1926.14,473.869 1936.56,417.619 1946.97,341.665 1957.38,259.121 1967.79,188.83 1978.21,155.371 1988.62,180.602 1999.03,261.348 2009.45,366.487 2019.86,464.893 2030.27,536.258 2040.68,558.104 2051.1,512.236 2061.51,416.697 2071.92,307.179 2082.33,211.134 2092.75,150.552 2103.16,141.13 2113.57,187.869 2123.99,281.001 2134.4,395.858 2144.81,500.288 2155.22,565.23 2165.64,571.313 2176.05,510.905 2186.46,394.202 2196.88,252.734 2207.29,137.248 2217.7,95.5099 2228.11,133.905 2238.53,220.624 2248.94,320.916 2259.35,413.27 2269.77,486.978 2280.18,537.582 2290.59,564.459 "/>
<polyline clip-path="url(#clip422)" style="stroke:#e26f46; stroke-linecap:round; stroke-linejoin:round; stroke-width:4; stroke-opacity:1; fill:none" points="218.439,1120.49 228.852,1100.99 239.264,1086.61 249.677,1077.82 260.09,1074.91 270.503,1077.98 280.916,1086.92 291.329,1101.44 301.741,1121.07 312.154,1145.17 322.567,1172.95 332.98,1203.5 343.393,1235.84 353.805,1268.89 364.218,1301.59 374.631,1332.86 385.044,1361.69 395.457,1387.13 405.87,1408.36 416.282,1424.68 426.695,1435.56 437.108,1440.64 447.521,1439.76 457.934,1432.95 468.347,1420.42 478.759,1402.6 489.172,1380.05 499.585,1353.52 509.998,1323.87 520.411,1292.07 530.824,1259.15 541.236,1226.2 551.649,1194.28 562.062,1164.44 572.475,1137.66 582.888,1114.8 593.301,1096.61 603.713,1083.69 614.126,1076.46 624.539,1075.15 634.952,1079.81 645.365,1090.28 655.777,1106.22 666.19,1127.12 676.603,1152.29 687.016,1180.9 697.429,1212.04 707.842,1244.67 718.254,1277.73 728.667,1310.15 739.08,1340.87 749.493,1368.88 759.906,1393.27 770.319,1413.24 780.731,1428.15 791.144,1437.5 801.557,1440.99 811.97,1438.51 822.383,1430.14 832.796,1416.15 843.208,1396.99 853.621,1373.3 864.034,1345.84 874.447,1315.52 884.86,1283.31 895.273,1250.28 905.685,1217.5 916.098,1186.04 926.511,1156.93 936.924,1131.12 947.337,1109.44 957.749,1092.61 968.162,1081.18 978.575,1075.52 988.988,1075.81 999.401,1082.05 1009.81,1094.03 1020.23,1111.36 1030.64,1133.48 1041.05,1159.65 1051.46,1189.04 1061.88,1220.68 1072.29,1253.53 1082.7,1286.53 1093.12,1318.59 1103.53,1348.68 1113.94,1375.8 1124.35,1399.08 1134.77,1417.76 1145.18,1431.22 1155.59,1439.02 1166.01,1440.92 1176.42,1436.84 1186.83,1426.93 1197.24,1411.5 1207.66,1391.06 1218.07,1366.28 1228.48,1337.96 1238.9,1307.03 1249.31,1274.5 1259.72,341.377 1270.13,339.864 1280.55,341.241 1290.96,345.824 1301.37,352.209 1311.79,357.698 1322.2,359.323 1332.61,355.1 1343.02,345.032 1353.44,331.459 1363.85,318.544 1374.26,310.999 1384.68,312.446 1395.09,323.958 1405.5,343.321 1415.91,365.357 1426.33,383.302 1436.74,390.871 1447.15,384.392 1457.57,364.287 1467.98,335.37 1478.39,305.734 1488.8,284.494 1499.22,278.992 1509.63,292.33 1520.04,322.047 1530.45,360.426 1540.87,396.478 1551.28,419.088 1561.69,420.427 1572.11,398.583 1582.52,358.549 1592.93,311.16 1603.34,270.168 1613.76,248.255 1624.17,253.127 1634.58,284.897 1645,335.613 1655.41,391.212 1665.82,435.408 1676.23,454.462 1686.65,441.432 1697.06,398.586 1707.47,337.175 1717.89,274.506 1728.3,229.066 1738.71,215.072 1749.12,238.051 1759.54,292.823 1769.95,364.575 1780.36,432.855 1790.78,477.403 1801.19,484.151 1811.6,449.633 1822.01,382.422 1832.43,301.047 1842.84,228.902 1853.25,187.513 1863.67,190.13 1874.08,237.525 1884.49,317.336 1894.9,407.255 1905.32,481.26 1915.73,517.145 1926.14,503.171 1936.56,441.85 1946.97,349.653 1957.38,252.612 1967.79,178.966 1978.21,150.952 1988.62,178.1 1999.03,254.072 2009.45,358.061 2019.86,460.48 2030.27,531.374 2040.68,549.181 2051.1,507.27 2061.51,416.281 2071.92,301.472 2082.33,195.714 2092.75,130.083 2103.16,124.729 2113.57,182.72 2123.99,288.715 2134.4,412.997 2144.81,519.797 2155.22,577.588 2165.64,568.387 2176.05,493.316 2186.46,372.72 2196.88,240.668 2207.29,135.339 2217.7,87.9763 2228.11,113.634 2238.53,206.435 2248.94,340.827 2259.35,478.609 2269.77,579.788 2280.18,614.181 2290.59,570.416 "/>
<path clip-path="url(#clip420)" d="M229.49 250.738 L675.966 250.738 L675.966 95.2176 L229.49 95.2176  Z" fill="#ffffff" fill-rule="evenodd" fill-opacity="1"/>
<polyline clip-path="url(#clip420)" style="stroke:#000000; stroke-linecap:round; stroke-linejoin:round; stroke-width:4; stroke-opacity:1; fill:none" points="229.49,250.738 675.966,250.738 675.966,95.2176 229.49,95.2176 229.49,250.738 "/>
<polyline clip-path="url(#clip420)" style="stroke:#009af9; stroke-linecap:round; stroke-linejoin:round; stroke-width:16; stroke-opacity:1; fill:none" stroke-dasharray="8, 16" points="253.896,147.058 400.328,147.058 "/>
<path clip-path="url(#clip420)" d="M429.409 133.62 L429.409 146.606 L435.289 146.606 Q438.552 146.606 440.335 144.916 Q442.117 143.227 442.117 140.102 Q442.117 137 440.335 135.31 Q438.552 133.62 435.289 133.62 L429.409 133.62 M424.733 129.778 L435.289 129.778 Q441.099 129.778 444.062 132.416 Q447.048 135.032 447.048 140.102 Q447.048 145.217 444.062 147.833 Q441.099 150.449 435.289 150.449 L429.409 150.449 L429.409 164.338 L424.733 164.338 L424.733 129.778 Z" fill="#000000" fill-rule="nonzero" fill-opacity="1" /><path clip-path="url(#clip420)" d="M467.325 142.393 Q466.608 141.977 465.751 141.791 Q464.918 141.583 463.899 141.583 Q460.288 141.583 458.344 143.944 Q456.423 146.282 456.423 150.68 L456.423 164.338 L452.14 164.338 L452.14 138.412 L456.423 138.412 L456.423 142.44 Q457.765 140.078 459.918 138.944 Q462.071 137.787 465.149 137.787 Q465.589 137.787 466.122 137.856 Q466.654 137.903 467.302 138.018 L467.325 142.393 Z" fill="#000000" fill-rule="nonzero" fill-opacity="1" /><path clip-path="url(#clip420)" d="M492.927 150.31 L492.927 152.393 L473.344 152.393 Q473.622 156.791 475.983 159.106 Q478.367 161.398 482.603 161.398 Q485.057 161.398 487.348 160.796 Q489.663 160.194 491.932 158.99 L491.932 163.018 Q489.64 163.99 487.233 164.5 Q484.825 165.009 482.348 165.009 Q476.145 165.009 472.511 161.398 Q468.899 157.787 468.899 151.629 Q468.899 145.264 472.325 141.537 Q475.774 137.787 481.608 137.787 Q486.839 137.787 489.872 141.166 Q492.927 144.523 492.927 150.31 M488.668 149.06 Q488.622 145.565 486.7 143.481 Q484.802 141.398 481.654 141.398 Q478.089 141.398 475.936 143.412 Q473.807 145.426 473.483 149.083 L488.668 149.06 Z" fill="#000000" fill-rule="nonzero" fill-opacity="1" /><path clip-path="url(#clip420)" d="M516.978 142.347 L516.978 128.319 L521.237 128.319 L521.237 164.338 L516.978 164.338 L516.978 160.449 Q515.635 162.763 513.575 163.898 Q511.538 165.009 508.668 165.009 Q503.969 165.009 501.006 161.259 Q498.066 157.509 498.066 151.398 Q498.066 145.287 501.006 141.537 Q503.969 137.787 508.668 137.787 Q511.538 137.787 513.575 138.921 Q515.635 140.032 516.978 142.347 M502.464 151.398 Q502.464 156.097 504.385 158.782 Q506.33 161.444 509.709 161.444 Q513.089 161.444 515.033 158.782 Q516.978 156.097 516.978 151.398 Q516.978 146.699 515.033 144.037 Q513.089 141.352 509.709 141.352 Q506.33 141.352 504.385 144.037 Q502.464 146.699 502.464 151.398 Z" fill="#000000" fill-rule="nonzero" fill-opacity="1" /><path clip-path="url(#clip420)" d="M530.01 138.412 L534.269 138.412 L534.269 164.338 L530.01 164.338 L530.01 138.412 M530.01 128.319 L534.269 128.319 L534.269 133.713 L530.01 133.713 L530.01 128.319 Z" fill="#000000" fill-rule="nonzero" fill-opacity="1" /><path clip-path="url(#clip420)" d="M561.839 139.407 L561.839 143.389 Q560.033 142.393 558.205 141.907 Q556.399 141.398 554.547 141.398 Q550.404 141.398 548.112 144.037 Q545.82 146.652 545.82 151.398 Q545.82 156.143 548.112 158.782 Q550.404 161.398 554.547 161.398 Q556.399 161.398 558.205 160.912 Q560.033 160.402 561.839 159.407 L561.839 163.342 Q560.056 164.176 558.135 164.592 Q556.237 165.009 554.084 165.009 Q548.228 165.009 544.779 161.328 Q541.33 157.648 541.33 151.398 Q541.33 145.055 544.802 141.421 Q548.297 137.787 554.362 137.787 Q556.33 137.787 558.205 138.203 Q560.08 138.597 561.839 139.407 Z" fill="#000000" fill-rule="nonzero" fill-opacity="1" /><path clip-path="url(#clip420)" d="M573.459 131.051 L573.459 138.412 L582.232 138.412 L582.232 141.722 L573.459 141.722 L573.459 155.796 Q573.459 158.967 574.316 159.87 Q575.195 160.773 577.857 160.773 L582.232 160.773 L582.232 164.338 L577.857 164.338 Q572.927 164.338 571.052 162.509 Q569.177 160.657 569.177 155.796 L569.177 141.722 L566.052 141.722 L566.052 138.412 L569.177 138.412 L569.177 131.051 L573.459 131.051 Z" fill="#000000" fill-rule="nonzero" fill-opacity="1" /><path clip-path="url(#clip420)" d="M587.834 138.412 L592.093 138.412 L592.093 164.338 L587.834 164.338 L587.834 138.412 M587.834 128.319 L592.093 128.319 L592.093 133.713 L587.834 133.713 L587.834 128.319 Z" fill="#000000" fill-rule="nonzero" fill-opacity="1" /><path clip-path="url(#clip420)" d="M611.051 141.398 Q607.626 141.398 605.635 144.083 Q603.644 146.745 603.644 151.398 Q603.644 156.051 605.612 158.736 Q607.602 161.398 611.051 161.398 Q614.454 161.398 616.445 158.713 Q618.436 156.027 618.436 151.398 Q618.436 146.791 616.445 144.106 Q614.454 141.398 611.051 141.398 M611.051 137.787 Q616.607 137.787 619.778 141.398 Q622.95 145.009 622.95 151.398 Q622.95 157.764 619.778 161.398 Q616.607 165.009 611.051 165.009 Q605.473 165.009 602.302 161.398 Q599.153 157.764 599.153 151.398 Q599.153 145.009 602.302 141.398 Q605.473 137.787 611.051 137.787 Z" fill="#000000" fill-rule="nonzero" fill-opacity="1" /><path clip-path="url(#clip420)" d="M651.561 148.689 L651.561 164.338 L647.301 164.338 L647.301 148.828 Q647.301 145.148 645.866 143.319 Q644.431 141.49 641.561 141.49 Q638.112 141.49 636.121 143.69 Q634.13 145.889 634.13 149.685 L634.13 164.338 L629.848 164.338 L629.848 138.412 L634.13 138.412 L634.13 142.44 Q635.658 140.102 637.718 138.944 Q639.801 137.787 642.51 137.787 Q646.977 137.787 649.269 140.565 Q651.561 143.319 651.561 148.689 Z" fill="#000000" fill-rule="nonzero" fill-opacity="1" /><polyline clip-path="url(#clip420)" style="stroke:#e26f46; stroke-linecap:round; stroke-linejoin:round; stroke-width:4; stroke-opacity:1; fill:none" points="253.896,198.898 400.328,198.898 "/>
<path clip-path="url(#clip420)" d="M424.733 181.618 L446.585 181.618 L446.585 185.553 L429.409 185.553 L429.409 195.784 L445.867 195.784 L445.867 199.719 L429.409 199.719 L429.409 212.242 L447.001 212.242 L447.001 216.178 L424.733 216.178 L424.733 181.618 Z" fill="#000000" fill-rule="nonzero" fill-opacity="1" /><path clip-path="url(#clip420)" d="M476.052 190.252 L466.677 202.867 L476.538 216.178 L471.515 216.178 L463.969 205.992 L456.423 216.178 L451.4 216.178 L461.469 202.613 L452.256 190.252 L457.279 190.252 L464.154 199.488 L471.029 190.252 L476.052 190.252 Z" fill="#000000" fill-rule="nonzero" fill-opacity="1" /><path clip-path="url(#clip420)" d="M494.339 203.145 Q489.177 203.145 487.186 204.326 Q485.196 205.506 485.196 208.354 Q485.196 210.622 486.677 211.965 Q488.182 213.284 490.751 213.284 Q494.293 213.284 496.422 210.784 Q498.575 208.261 498.575 204.094 L498.575 203.145 L494.339 203.145 M502.834 201.386 L502.834 216.178 L498.575 216.178 L498.575 212.242 Q497.117 214.603 494.941 215.738 Q492.765 216.849 489.617 216.849 Q485.635 216.849 483.274 214.627 Q480.936 212.381 480.936 208.631 Q480.936 204.256 483.853 202.034 Q486.793 199.812 492.603 199.812 L498.575 199.812 L498.575 199.395 Q498.575 196.455 496.631 194.858 Q494.71 193.238 491.214 193.238 Q488.992 193.238 486.885 193.77 Q484.779 194.303 482.835 195.367 L482.835 191.432 Q485.173 190.53 487.372 190.09 Q489.571 189.627 491.654 189.627 Q497.279 189.627 500.057 192.543 Q502.834 195.46 502.834 201.386 Z" fill="#000000" fill-rule="nonzero" fill-opacity="1" /><path clip-path="url(#clip420)" d="M530.265 191.247 L530.265 195.229 Q528.459 194.233 526.631 193.747 Q524.825 193.238 522.973 193.238 Q518.83 193.238 516.538 195.877 Q514.246 198.492 514.246 203.238 Q514.246 207.983 516.538 210.622 Q518.83 213.238 522.973 213.238 Q524.825 213.238 526.631 212.752 Q528.459 212.242 530.265 211.247 L530.265 215.182 Q528.482 216.016 526.561 216.432 Q524.663 216.849 522.51 216.849 Q516.654 216.849 513.205 213.168 Q509.756 209.488 509.756 203.238 Q509.756 196.895 513.228 193.261 Q516.723 189.627 522.788 189.627 Q524.756 189.627 526.631 190.043 Q528.506 190.437 530.265 191.247 Z" fill="#000000" fill-rule="nonzero" fill-opacity="1" /><path clip-path="url(#clip420)" d="M541.885 182.891 L541.885 190.252 L550.658 190.252 L550.658 193.562 L541.885 193.562 L541.885 207.636 Q541.885 210.807 542.742 211.71 Q543.621 212.613 546.283 212.613 L550.658 212.613 L550.658 216.178 L546.283 216.178 Q541.353 216.178 539.478 214.349 Q537.603 212.497 537.603 207.636 L537.603 193.562 L534.478 193.562 L534.478 190.252 L537.603 190.252 L537.603 182.891 L541.885 182.891 Z" fill="#000000" fill-rule="nonzero" fill-opacity="1" /></svg>
