<?xml version="1.0" encoding="utf-8"?>
<svg xmlns="http://www.w3.org/2000/svg" xmlns:xlink="http://www.w3.org/1999/xlink" width="600" height="400" viewBox="0 0 2400 1600">
<defs>
  <clipPath id="clip390">
    <rect x="0" y="0" width="2400" height="1600"/>
  </clipPath>
</defs>
<path clip-path="url(#clip390)" d="M0 1600 L2400 1600 L2400 0 L0 0  Z" fill="#ffffff" fill-rule="evenodd" fill-opacity="1"/>
<defs>
  <clipPath id="clip391">
    <rect x="480" y="0" width="1681" height="1600"/>
  </clipPath>
</defs>
<path clip-path="url(#clip390)" d="M156.274 1486.45 L2352.76 1486.45 L2352.76 47.2441 L156.274 47.2441  Z" fill="#ffffff" fill-rule="evenodd" fill-opacity="1"/>
<defs>
  <clipPath id="clip392">
    <rect x="156" y="47" width="2197" height="1440"/>
  </clipPath>
</defs>
<polyline clip-path="url(#clip392)" style="stroke:#000000; stroke-linecap:round; stroke-linejoin:round; stroke-width:2; stroke-opacity:0.1; fill:none" points="218.439,1486.45 218.439,47.2441 "/>
<polyline clip-path="url(#clip392)" style="stroke:#000000; stroke-linecap:round; stroke-linejoin:round; stroke-width:2; stroke-opacity:0.1; fill:none" points="736.477,1486.45 736.477,47.2441 "/>
<polyline clip-path="url(#clip392)" style="stroke:#000000; stroke-linecap:round; stroke-linejoin:round; stroke-width:2; stroke-opacity:0.1; fill:none" points="1254.52,1486.45 1254.52,47.2441 "/>
<polyline clip-path="url(#clip392)" style="stroke:#000000; stroke-linecap:round; stroke-linejoin:round; stroke-width:2; stroke-opacity:0.1; fill:none" points="1772.55,1486.45 1772.55,47.2441 "/>
<polyline clip-path="url(#clip392)" style="stroke:#000000; stroke-linecap:round; stroke-linejoin:round; stroke-width:2; stroke-opacity:0.1; fill:none" points="2290.59,1486.45 2290.59,47.2441 "/>
<polyline clip-path="url(#clip390)" style="stroke:#000000; stroke-linecap:round; stroke-linejoin:round; stroke-width:4; stroke-opacity:1; fill:none" points="156.274,1486.45 2352.76,1486.45 "/>
<polyline clip-path="url(#clip390)" style="stroke:#000000; stroke-linecap:round; stroke-linejoin:round; stroke-width:4; stroke-opacity:1; fill:none" points="218.439,1486.45 218.439,1467.55 "/>
<polyline clip-path="url(#clip390)" style="stroke:#000000; stroke-linecap:round; stroke-linejoin:round; stroke-width:4; stroke-opacity:1; fill:none" points="736.477,1486.45 736.477,1467.55 "/>
<polyline clip-path="url(#clip390)" style="stroke:#000000; stroke-linecap:round; stroke-linejoin:round; stroke-width:4; stroke-opacity:1; fill:none" points="1254.52,1486.45 1254.52,1467.55 "/>
<polyline clip-path="url(#clip390)" style="stroke:#000000; stroke-linecap:round; stroke-linejoin:round; stroke-width:4; stroke-opacity:1; fill:none" points="1772.55,1486.45 1772.55,1467.55 "/>
<polyline clip-path="url(#clip390)" style="stroke:#000000; stroke-linecap:round; stroke-linejoin:round; stroke-width:4; stroke-opacity:1; fill:none" points="2290.59,1486.45 2290.59,1467.55 "/>
<path clip-path="url(#clip390)" d="M164.967 1532.02 L194.643 1532.02 L194.643 1535.95 L164.967 1535.95 L164.967 1532.02 Z" fill="#000000" fill-rule="nonzero" fill-opacity="1" /><path clip-path="url(#clip390)" d="M205.545 1544.91 L213.184 1544.91 L213.184 1518.55 L204.874 1520.21 L204.874 1515.95 L213.138 1514.29 L217.814 1514.29 L217.814 1544.91 L225.453 1544.91 L225.453 1548.85 L205.545 1548.85 L205.545 1544.91 Z" fill="#000000" fill-rule="nonzero" fill-opacity="1" /><path clip-path="url(#clip390)" d="M234.897 1542.97 L239.781 1542.97 L239.781 1548.85 L234.897 1548.85 L234.897 1542.97 Z" fill="#000000" fill-rule="nonzero" fill-opacity="1" /><path clip-path="url(#clip390)" d="M259.966 1517.37 Q256.355 1517.37 254.527 1520.93 Q252.721 1524.47 252.721 1531.6 Q252.721 1538.71 254.527 1542.27 Q256.355 1545.82 259.966 1545.82 Q263.601 1545.82 265.406 1542.27 Q267.235 1538.71 267.235 1531.6 Q267.235 1524.47 265.406 1520.93 Q263.601 1517.37 259.966 1517.37 M259.966 1513.66 Q265.776 1513.66 268.832 1518.27 Q271.911 1522.85 271.911 1531.6 Q271.911 1540.33 268.832 1544.94 Q265.776 1549.52 259.966 1549.52 Q254.156 1549.52 251.077 1544.94 Q248.022 1540.33 248.022 1531.6 Q248.022 1522.85 251.077 1518.27 Q254.156 1513.66 259.966 1513.66 Z" fill="#000000" fill-rule="nonzero" fill-opacity="1" /><path clip-path="url(#clip390)" d="M683.503 1532.02 L713.178 1532.02 L713.178 1535.95 L683.503 1535.95 L683.503 1532.02 Z" fill="#000000" fill-rule="nonzero" fill-opacity="1" /><path clip-path="url(#clip390)" d="M733.271 1517.37 Q729.66 1517.37 727.831 1520.93 Q726.026 1524.47 726.026 1531.6 Q726.026 1538.71 727.831 1542.27 Q729.66 1545.82 733.271 1545.82 Q736.905 1545.82 738.711 1542.27 Q740.539 1538.71 740.539 1531.6 Q740.539 1524.47 738.711 1520.93 Q736.905 1517.37 733.271 1517.37 M733.271 1513.66 Q739.081 1513.66 742.137 1518.27 Q745.215 1522.85 745.215 1531.6 Q745.215 1540.33 742.137 1544.94 Q739.081 1549.52 733.271 1549.52 Q727.461 1549.52 724.382 1544.94 Q721.327 1540.33 721.327 1531.6 Q721.327 1522.85 724.382 1518.27 Q727.461 1513.66 733.271 1513.66 Z" fill="#000000" fill-rule="nonzero" fill-opacity="1" /><path clip-path="url(#clip390)" d="M753.433 1542.97 L758.317 1542.97 L758.317 1548.85 L753.433 1548.85 L753.433 1542.97 Z" fill="#000000" fill-rule="nonzero" fill-opacity="1" /><path clip-path="url(#clip390)" d="M768.548 1514.29 L786.905 1514.29 L786.905 1518.22 L772.831 1518.22 L772.831 1526.7 Q773.849 1526.35 774.868 1526.19 Q775.886 1526 776.905 1526 Q782.692 1526 786.072 1529.17 Q789.451 1532.34 789.451 1537.76 Q789.451 1543.34 785.979 1546.44 Q782.507 1549.52 776.187 1549.52 Q774.011 1549.52 771.743 1549.15 Q769.498 1548.78 767.09 1548.04 L767.09 1543.34 Q769.173 1544.47 771.396 1545.03 Q773.618 1545.58 776.095 1545.58 Q780.099 1545.58 782.437 1543.48 Q784.775 1541.37 784.775 1537.76 Q784.775 1534.15 782.437 1532.04 Q780.099 1529.94 776.095 1529.94 Q774.22 1529.94 772.345 1530.35 Q770.493 1530.77 768.548 1531.65 L768.548 1514.29 Z" fill="#000000" fill-rule="nonzero" fill-opacity="1" /><path clip-path="url(#clip390)" d="M1231.9 1517.37 Q1228.29 1517.37 1226.46 1520.93 Q1224.65 1524.47 1224.65 1531.6 Q1224.65 1538.71 1226.46 1542.27 Q1228.29 1545.82 1231.9 1545.82 Q1235.53 1545.82 1237.34 1542.27 Q1239.17 1538.71 1239.17 1531.6 Q1239.17 1524.47 1237.34 1520.93 Q1235.53 1517.37 1231.9 1517.37 M1231.9 1513.66 Q1237.71 1513.66 1240.77 1518.27 Q1243.84 1522.85 1243.84 1531.6 Q1243.84 1540.33 1240.77 1544.94 Q1237.71 1549.52 1231.9 1549.52 Q1226.09 1549.52 1223.01 1544.94 Q1219.96 1540.33 1219.96 1531.6 Q1219.96 1522.85 1223.01 1518.27 Q1226.09 1513.66 1231.9 1513.66 Z" fill="#000000" fill-rule="nonzero" fill-opacity="1" /><path clip-path="url(#clip390)" d="M1252.06 1542.97 L1256.95 1542.97 L1256.95 1548.85 L1252.06 1548.85 L1252.06 1542.97 Z" fill="#000000" fill-rule="nonzero" fill-opacity="1" /><path clip-path="url(#clip390)" d="M1277.13 1517.37 Q1273.52 1517.37 1271.69 1520.93 Q1269.89 1524.47 1269.89 1531.6 Q1269.89 1538.71 1271.69 1542.27 Q1273.52 1545.82 1277.13 1545.82 Q1280.76 1545.82 1282.57 1542.27 Q1284.4 1538.71 1284.4 1531.6 Q1284.4 1524.47 1282.57 1520.93 Q1280.76 1517.37 1277.13 1517.37 M1277.13 1513.66 Q1282.94 1513.66 1286 1518.27 Q1289.08 1522.85 1289.08 1531.6 Q1289.08 1540.33 1286 1544.94 Q1282.94 1549.52 1277.13 1549.52 Q1271.32 1549.52 1268.24 1544.94 Q1265.19 1540.33 1265.19 1531.6 Q1265.19 1522.85 1268.24 1518.27 Q1271.32 1513.66 1277.13 1513.66 Z" fill="#000000" fill-rule="nonzero" fill-opacity="1" /><path clip-path="url(#clip390)" d="M1750.44 1517.37 Q1746.82 1517.37 1745 1520.93 Q1743.19 1524.47 1743.19 1531.6 Q1743.19 1538.71 1745 1542.27 Q1746.82 1545.82 1750.44 1545.82 Q1754.07 1545.82 1755.88 1542.27 Q1757.7 1538.71 1757.7 1531.6 Q1757.7 1524.47 1755.88 1520.93 Q1754.07 1517.37 1750.44 1517.37 M1750.44 1513.66 Q1756.25 1513.66 1759.3 1518.27 Q1762.38 1522.85 1762.38 1531.6 Q1762.38 1540.33 1759.3 1544.94 Q1756.25 1549.52 1750.44 1549.52 Q1744.63 1549.52 1741.55 1544.94 Q1738.49 1540.33 1738.49 1531.6 Q1738.49 1522.85 1741.55 1518.27 Q1744.63 1513.66 1750.44 1513.66 Z" fill="#000000" fill-rule="nonzero" fill-opacity="1" /><path clip-path="url(#clip390)" d="M1770.6 1542.97 L1775.48 1542.97 L1775.48 1548.85 L1770.6 1548.85 L1770.6 1542.97 Z" fill="#000000" fill-rule="nonzero" fill-opacity="1" /><path clip-path="url(#clip390)" d="M1785.71 1514.29 L1804.07 1514.29 L1804.07 1518.22 L1790 1518.22 L1790 1526.7 Q1791.01 1526.35 1792.03 1526.19 Q1793.05 1526 1794.07 1526 Q1799.86 1526 1803.24 1529.17 Q1806.62 1532.34 1806.62 1537.76 Q1806.62 1543.34 1803.14 1546.44 Q1799.67 1549.52 1793.35 1549.52 Q1791.18 1549.52 1788.91 1549.15 Q1786.66 1548.78 1784.25 1548.04 L1784.25 1543.34 Q1786.34 1544.47 1788.56 1545.03 Q1790.78 1545.58 1793.26 1545.58 Q1797.26 1545.58 1799.6 1543.48 Q1801.94 1541.37 1801.94 1537.76 Q1801.94 1534.15 1799.6 1532.04 Q1797.26 1529.94 1793.26 1529.94 Q1791.38 1529.94 1789.51 1530.35 Q1787.66 1530.77 1785.71 1531.65 L1785.71 1514.29 Z" fill="#000000" fill-rule="nonzero" fill-opacity="1" /><path clip-path="url(#clip390)" d="M2257.74 1544.91 L2265.38 1544.91 L2265.38 1518.55 L2257.07 1520.21 L2257.07 1515.95 L2265.34 1514.29 L2270.01 1514.29 L2270.01 1544.91 L2277.65 1544.91 L2277.65 1548.85 L2257.74 1548.85 L2257.74 1544.91 Z" fill="#000000" fill-rule="nonzero" fill-opacity="1" /><path clip-path="url(#clip390)" d="M2287.1 1542.97 L2291.98 1542.97 L2291.98 1548.85 L2287.1 1548.85 L2287.1 1542.97 Z" fill="#000000" fill-rule="nonzero" fill-opacity="1" /><path clip-path="url(#clip390)" d="M2312.17 1517.37 Q2308.55 1517.37 2306.73 1520.93 Q2304.92 1524.47 2304.92 1531.6 Q2304.92 1538.71 2306.73 1542.27 Q2308.55 1545.82 2312.17 1545.82 Q2315.8 1545.82 2317.61 1542.27 Q2319.43 1538.71 2319.43 1531.6 Q2319.43 1524.47 2317.61 1520.93 Q2315.8 1517.37 2312.17 1517.37 M2312.17 1513.66 Q2317.98 1513.66 2321.03 1518.27 Q2324.11 1522.85 2324.11 1531.6 Q2324.11 1540.33 2321.03 1544.94 Q2317.98 1549.52 2312.17 1549.52 Q2306.36 1549.52 2303.28 1544.94 Q2300.22 1540.33 2300.22 1531.6 Q2300.22 1522.85 2303.28 1518.27 Q2306.36 1513.66 2312.17 1513.66 Z" fill="#000000" fill-rule="nonzero" fill-opacity="1" /><polyline clip-path="url(#clip392)" style="stroke:#000000; stroke-linecap:round; stroke-linejoin:round; stroke-width:2; stroke-opacity:0.1; fill:none" points="156.274,1251.36 2352.76,1251.36 "/>
<polyline clip-path="url(#clip392)" style="stroke:#000000; stroke-linecap:round; stroke-linejoin:round; stroke-width:2; stroke-opacity:0.1; fill:none" points="156.274,978.331 2352.76,978.331 "/>
<polyline clip-path="url(#clip392)" style="stroke:#000000; stroke-linecap:round; stroke-linejoin:round; stroke-width:2; stroke-opacity:0.1; fill:none" points="156.274,705.304 2352.76,705.304 "/>
<polyline clip-path="url(#clip392)" style="stroke:#000000; stroke-linecap:round; stroke-linejoin:round; stroke-width:2; stroke-opacity:0.1; fill:none" points="156.274,432.277 2352.76,432.277 "/>
<polyline clip-path="url(#clip392)" style="stroke:#000000; stroke-linecap:round; stroke-linejoin:round; stroke-width:2; stroke-opacity:0.1; fill:none" points="156.274,159.25 2352.76,159.25 "/>
<polyline clip-path="url(#clip390)" style="stroke:#000000; stroke-linecap:round; stroke-linejoin:round; stroke-width:4; stroke-opacity:1; fill:none" points="156.274,1486.45 156.274,47.2441 "/>
<polyline clip-path="url(#clip390)" style="stroke:#000000; stroke-linecap:round; stroke-linejoin:round; stroke-width:4; stroke-opacity:1; fill:none" points="156.274,1251.36 175.172,1251.36 "/>
<polyline clip-path="url(#clip390)" style="stroke:#000000; stroke-linecap:round; stroke-linejoin:round; stroke-width:4; stroke-opacity:1; fill:none" points="156.274,978.331 175.172,978.331 "/>
<polyline clip-path="url(#clip390)" style="stroke:#000000; stroke-linecap:round; stroke-linejoin:round; stroke-width:4; stroke-opacity:1; fill:none" points="156.274,705.304 175.172,705.304 "/>
<polyline clip-path="url(#clip390)" style="stroke:#000000; stroke-linecap:round; stroke-linejoin:round; stroke-width:4; stroke-opacity:1; fill:none" points="156.274,432.277 175.172,432.277 "/>
<polyline clip-path="url(#clip390)" style="stroke:#000000; stroke-linecap:round; stroke-linejoin:round; stroke-width:4; stroke-opacity:1; fill:none" points="156.274,159.25 175.172,159.25 "/>
<path clip-path="url(#clip390)" d="M63.0985 1237.16 Q59.4875 1237.16 57.6588 1240.72 Q55.8532 1244.26 55.8532 1251.39 Q55.8532 1258.5 57.6588 1262.06 Q59.4875 1265.61 63.0985 1265.61 Q66.7328 1265.61 68.5383 1262.06 Q70.367 1258.5 70.367 1251.39 Q70.367 1244.26 68.5383 1240.72 Q66.7328 1237.16 63.0985 1237.16 M63.0985 1233.45 Q68.9087 1233.45 71.9642 1238.06 Q75.0429 1242.64 75.0429 1251.39 Q75.0429 1260.12 71.9642 1264.73 Q68.9087 1269.31 63.0985 1269.31 Q57.2884 1269.31 54.2097 1264.73 Q51.1542 1260.12 51.1542 1251.39 Q51.1542 1242.64 54.2097 1238.06 Q57.2884 1233.45 63.0985 1233.45 Z" fill="#000000" fill-rule="nonzero" fill-opacity="1" /><path clip-path="url(#clip390)" d="M83.2605 1262.76 L88.1447 1262.76 L88.1447 1268.64 L83.2605 1268.64 L83.2605 1262.76 Z" fill="#000000" fill-rule="nonzero" fill-opacity="1" /><path clip-path="url(#clip390)" d="M108.33 1237.16 Q104.719 1237.16 102.89 1240.72 Q101.084 1244.26 101.084 1251.39 Q101.084 1258.5 102.89 1262.06 Q104.719 1265.61 108.33 1265.61 Q111.964 1265.61 113.77 1262.06 Q115.598 1258.5 115.598 1251.39 Q115.598 1244.26 113.77 1240.72 Q111.964 1237.16 108.33 1237.16 M108.33 1233.45 Q114.14 1233.45 117.195 1238.06 Q120.274 1242.64 120.274 1251.39 Q120.274 1260.12 117.195 1264.73 Q114.14 1269.31 108.33 1269.31 Q102.52 1269.31 99.4409 1264.73 Q96.3854 1260.12 96.3854 1251.39 Q96.3854 1242.64 99.4409 1238.06 Q102.52 1233.45 108.33 1233.45 Z" fill="#000000" fill-rule="nonzero" fill-opacity="1" /><path clip-path="url(#clip390)" d="M63.7467 964.129 Q60.1356 964.129 58.3069 967.694 Q56.5014 971.236 56.5014 978.365 Q56.5014 985.472 58.3069 989.037 Q60.1356 992.578 63.7467 992.578 Q67.3809 992.578 69.1865 989.037 Q71.0152 985.472 71.0152 978.365 Q71.0152 971.236 69.1865 967.694 Q67.3809 964.129 63.7467 964.129 M63.7467 960.426 Q69.5568 960.426 72.6124 965.032 Q75.6911 969.615 75.6911 978.365 Q75.6911 987.092 72.6124 991.699 Q69.5568 996.282 63.7467 996.282 Q57.9365 996.282 54.8578 991.699 Q51.8023 987.092 51.8023 978.365 Q51.8023 969.615 54.8578 965.032 Q57.9365 960.426 63.7467 960.426 Z" fill="#000000" fill-rule="nonzero" fill-opacity="1" /><path clip-path="url(#clip390)" d="M83.9086 989.731 L88.7928 989.731 L88.7928 995.611 L83.9086 995.611 L83.9086 989.731 Z" fill="#000000" fill-rule="nonzero" fill-opacity="1" /><path clip-path="url(#clip390)" d="M113.145 976.976 Q116.501 977.694 118.376 979.963 Q120.274 982.231 120.274 985.564 Q120.274 990.68 116.756 993.481 Q113.237 996.282 106.756 996.282 Q104.58 996.282 102.265 995.842 Q99.9733 995.425 97.5197 994.569 L97.5197 990.055 Q99.4641 991.189 101.779 991.768 Q104.094 992.347 106.617 992.347 Q111.015 992.347 113.307 990.611 Q115.621 988.875 115.621 985.564 Q115.621 982.509 113.469 980.796 Q111.339 979.06 107.52 979.06 L103.492 979.06 L103.492 975.217 L107.705 975.217 Q111.154 975.217 112.983 973.851 Q114.811 972.463 114.811 969.87 Q114.811 967.208 112.913 965.796 Q111.038 964.361 107.52 964.361 Q105.598 964.361 103.399 964.777 Q101.2 965.194 98.5613 966.074 L98.5613 961.907 Q101.223 961.166 103.538 960.796 Q105.876 960.426 107.936 960.426 Q113.26 960.426 116.362 962.856 Q119.464 965.264 119.464 969.384 Q119.464 972.254 117.82 974.245 Q116.177 976.213 113.145 976.976 Z" fill="#000000" fill-rule="nonzero" fill-opacity="1" /><path clip-path="url(#clip390)" d="M62.9365 691.102 Q59.3254 691.102 57.4967 694.667 Q55.6912 698.209 55.6912 705.338 Q55.6912 712.445 57.4967 716.01 Q59.3254 719.551 62.9365 719.551 Q66.5707 719.551 68.3763 716.01 Q70.205 712.445 70.205 705.338 Q70.205 698.209 68.3763 694.667 Q66.5707 691.102 62.9365 691.102 M62.9365 687.399 Q68.7467 687.399 71.8022 692.005 Q74.8809 696.588 74.8809 705.338 Q74.8809 714.065 71.8022 718.672 Q68.7467 723.255 62.9365 723.255 Q57.1264 723.255 54.0477 718.672 Q50.9921 714.065 50.9921 705.338 Q50.9921 696.588 54.0477 692.005 Q57.1264 687.399 62.9365 687.399 Z" fill="#000000" fill-rule="nonzero" fill-opacity="1" /><path clip-path="url(#clip390)" d="M83.0984 716.704 L87.9827 716.704 L87.9827 722.584 L83.0984 722.584 L83.0984 716.704 Z" fill="#000000" fill-rule="nonzero" fill-opacity="1" /><path clip-path="url(#clip390)" d="M108.746 703.44 Q105.598 703.44 103.746 705.593 Q101.918 707.746 101.918 711.496 Q101.918 715.223 103.746 717.399 Q105.598 719.551 108.746 719.551 Q111.895 719.551 113.723 717.399 Q115.575 715.223 115.575 711.496 Q115.575 707.746 113.723 705.593 Q111.895 703.44 108.746 703.44 M118.029 688.788 L118.029 693.047 Q116.27 692.213 114.464 691.774 Q112.682 691.334 110.922 691.334 Q106.293 691.334 103.839 694.459 Q101.409 697.584 101.061 703.903 Q102.427 701.889 104.487 700.825 Q106.547 699.737 109.024 699.737 Q114.233 699.737 117.242 702.908 Q120.274 706.056 120.274 711.496 Q120.274 716.82 117.126 720.037 Q113.978 723.255 108.746 723.255 Q102.751 723.255 99.5798 718.672 Q96.4085 714.065 96.4085 705.338 Q96.4085 697.144 100.297 692.283 Q104.186 687.399 110.737 687.399 Q112.496 687.399 114.279 687.746 Q116.084 688.093 118.029 688.788 Z" fill="#000000" fill-rule="nonzero" fill-opacity="1" /><path clip-path="url(#clip390)" d="M63.2837 418.075 Q59.6726 418.075 57.8439 421.64 Q56.0384 425.182 56.0384 432.312 Q56.0384 439.418 57.8439 442.983 Q59.6726 446.524 63.2837 446.524 Q66.918 446.524 68.7235 442.983 Q70.5522 439.418 70.5522 432.312 Q70.5522 425.182 68.7235 421.64 Q66.918 418.075 63.2837 418.075 M63.2837 414.372 Q69.0939 414.372 72.1494 418.978 Q75.2281 423.562 75.2281 432.312 Q75.2281 441.038 72.1494 445.645 Q69.0939 450.228 63.2837 450.228 Q57.4736 450.228 54.3949 445.645 Q51.3393 441.038 51.3393 432.312 Q51.3393 423.562 54.3949 418.978 Q57.4736 414.372 63.2837 414.372 Z" fill="#000000" fill-rule="nonzero" fill-opacity="1" /><path clip-path="url(#clip390)" d="M83.4457 443.677 L88.3299 443.677 L88.3299 449.557 L83.4457 449.557 L83.4457 443.677 Z" fill="#000000" fill-rule="nonzero" fill-opacity="1" /><path clip-path="url(#clip390)" d="M98.6539 448.839 L98.6539 444.58 Q100.413 445.413 102.219 445.853 Q104.024 446.293 105.76 446.293 Q110.39 446.293 112.82 443.191 Q115.274 440.066 115.621 433.724 Q114.279 435.714 112.219 436.779 Q110.158 437.844 107.658 437.844 Q102.473 437.844 99.4409 434.719 Q96.4317 431.571 96.4317 426.131 Q96.4317 420.807 99.5798 417.589 Q102.728 414.372 107.959 414.372 Q113.955 414.372 117.103 418.978 Q120.274 423.562 120.274 432.312 Q120.274 440.483 116.385 445.367 Q112.52 450.228 105.969 450.228 Q104.209 450.228 102.404 449.881 Q100.598 449.534 98.6539 448.839 M107.959 434.187 Q111.108 434.187 112.936 432.034 Q114.788 429.881 114.788 426.131 Q114.788 422.404 112.936 420.251 Q111.108 418.075 107.959 418.075 Q104.811 418.075 102.959 420.251 Q101.131 422.404 101.131 426.131 Q101.131 429.881 102.959 432.034 Q104.811 434.187 107.959 434.187 Z" fill="#000000" fill-rule="nonzero" fill-opacity="1" /><path clip-path="url(#clip390)" d="M55.506 172.595 L63.1448 172.595 L63.1448 146.229 L54.8347 147.896 L54.8347 143.637 L63.0985 141.97 L67.7744 141.97 L67.7744 172.595 L75.4133 172.595 L75.4133 176.53 L55.506 176.53 L55.506 172.595 Z" fill="#000000" fill-rule="nonzero" fill-opacity="1" /><path clip-path="url(#clip390)" d="M84.8577 170.65 L89.7419 170.65 L89.7419 176.53 L84.8577 176.53 L84.8577 170.65 Z" fill="#000000" fill-rule="nonzero" fill-opacity="1" /><path clip-path="url(#clip390)" d="M103.955 172.595 L120.274 172.595 L120.274 176.53 L98.3298 176.53 L98.3298 172.595 Q100.992 169.84 105.575 165.21 Q110.182 160.558 111.362 159.215 Q113.608 156.692 114.487 154.956 Q115.39 153.197 115.39 151.507 Q115.39 148.752 113.445 147.016 Q111.524 145.28 108.422 145.28 Q106.223 145.28 103.77 146.044 Q101.339 146.808 98.5613 148.359 L98.5613 143.637 Q101.385 142.502 103.839 141.924 Q106.293 141.345 108.33 141.345 Q113.7 141.345 116.895 144.03 Q120.089 146.715 120.089 151.206 Q120.089 153.336 119.279 155.257 Q118.492 157.155 116.385 159.748 Q115.807 160.419 112.705 163.636 Q109.603 166.831 103.955 172.595 Z" fill="#000000" fill-rule="nonzero" fill-opacity="1" /><polyline clip-path="url(#clip392)" style="stroke:#009af9; stroke-linecap:round; stroke-linejoin:round; stroke-width:16; stroke-opacity:1; fill:none" stroke-dasharray="8, 16" points="218.439,1113.43 228.852,1102.78 239.264,1090.27 249.677,1077.27 260.09,1066.91 270.503,1063.29 280.916,1069.54 291.329,1085.78 301.741,1108.79 312.154,1134.02 322.567,1159.03 332.98,1186.02 343.393,1220.16 353.805,1262.87 364.218,1306.26 374.631,1338.27 385.044,1355.4 395.457,1366.35 405.87,1381.37 416.282,1402.26 426.695,1422.98 437.108,1436.3 447.521,1438.36 457.934,1429.37 468.347,1412.07 478.759,1389.77 489.172,1365.11 499.585,1339.47 509.998,1313.08 520.411,1285.38 530.824,1255.53 541.236,1223.11 551.649,1188.82 562.062,1154.85 572.475,1124.55 582.888,1101.2 593.301,1086.48 603.713,1079.47 614.126,1077.23 624.539,1076.9 634.952,1077.9 645.365,1082.45 655.777,1094.03 666.19,1114.85 676.603,1144.16 687.016,1178.27 697.429,1212.71 707.842,1244.97 718.254,1275.3 728.667,1304.91 739.08,1334.02 749.493,1361.68 759.906,1386.6 770.319,1407.74 780.731,1424.1 791.144,1434.33 801.557,1436.95 811.97,1431.4 822.383,1419.02 832.796,1402.94 843.208,1385.85 853.621,1366.5 864.034,1339.94 874.447,1306.53 884.86,1273.91 895.273,1243.5 905.685,1212.05 916.098,1181.96 926.511,1154.42 936.924,1124.9 947.337,1092.4 957.749,1065.67 968.162,1057.2 978.575,1068.6 988.988,1085.07 999.401,1094.38 1009.81,1096.06 1020.23,1104.02 1030.64,1138.67 1041.05,1179.69 1051.46,1200.43 1061.88,1213.21 1072.29,1229.04 1082.7,1246.03 1093.12,1275.24 1103.53,1328.65 1113.94,1392 1124.35,1425.68 1134.77,1413.2 1145.18,1419.11 1155.59,1441.15 1166.01,1445.72 1176.42,1437.97 1186.83,1420.31 1197.24,1407.85 1207.66,1407.14 1218.07,1405.44 1228.48,1365.49 1238.9,1235.83 1249.31,994.88 1259.72,694.82 1270.13,437.364 1280.55,293.486 1290.96,262.414 1301.37,297.143 1311.79,345.078 1322.2,371.45 1332.61,369.475 1343.02,360.166 1353.44,344.182 1363.85,309.009 1374.26,310.979 1384.68,346.52 1395.09,347.186 1405.5,318.54 1415.91,329.306 1426.33,387.259 1436.74,409.809 1447.15,348.628 1457.57,247.334 1467.98,190.18 1478.39,211.799 1488.8,281.431 1499.22,339.795 1509.63,354.639 1520.04,344.165 1530.45,348.954 1540.87,394.662 1551.28,445.735 1561.69,442.734 1572.11,395.12 1582.52,340.82 1592.93,297.956 1603.34,267.173 1613.76,246.79 1624.17,243.369 1634.58,266.898 1645,319.347 1655.41,388.235 1665.82,449.612 1676.23,478.677 1686.65,461.232 1697.06,400.46 1707.47,317.948 1717.89,245.492 1728.3,207.822 1738.71,210.927 1749.12,246.99 1759.54,304.751 1769.95,371.875 1780.36,433.467 1790.78,474.093 1801.19,481.714 1811.6,450.754 1822.01,385.207 1832.43,301.353 1842.84,225.449 1853.25,183.168 1863.67,187.825 1874.08,238.486 1884.49,323.232 1894.9,416.286 1905.32,482.763 1915.73,500.268 1926.14,470.812 1936.56,410.28 1946.97,334.528 1957.38,255.925 1967.79,188.271 1978.21,152.373 1988.62,172.359 1999.03,256.693 2009.45,379.152 2019.86,488.93 2030.27,545.116 2040.68,536.72 2051.1,475.819 2061.51,384.017 2071.92,285.176 2082.33,202.236 2092.75,154.069 2103.16,151.846 2113.57,197.203 2123.99,283.411 2134.4,395.64 2144.81,506.093 2155.22,573.411 2165.64,562.288 2176.05,471.736 2186.46,338.853 2196.88,214.606 2207.29,138.413 2217.7,126.255 2228.11,170.636 2238.53,249.474 2248.94,338.542 2259.35,420.246 2269.77,486.053 2280.18,534.61 2290.59,568.603 "/>
<polyline clip-path="url(#clip392)" style="stroke:#e26f46; stroke-linecap:round; stroke-linejoin:round; stroke-width:4; stroke-opacity:1; fill:none" points="218.439,1114.66 228.852,1095.27 239.264,1080.97 249.677,1072.23 260.09,1069.34 270.503,1072.39 280.916,1081.28 291.329,1095.72 301.741,1115.24 312.154,1139.2 322.567,1166.82 332.98,1197.2 343.393,1229.35 353.805,1262.22 364.218,1294.73 374.631,1325.83 385.044,1354.5 395.457,1379.8 405.87,1400.91 416.282,1417.13 426.695,1427.95 437.108,1433 447.521,1432.13 457.934,1425.35 468.347,1412.9 478.759,1395.17 489.172,1372.75 499.585,1346.37 509.998,1316.89 520.411,1285.27 530.824,1252.54 541.236,1219.77 551.649,1188.04 562.062,1158.37 572.475,1131.73 582.888,1109 593.301,1090.92 603.713,1078.07 614.126,1070.88 624.539,1069.57 634.952,1074.21 645.365,1084.62 655.777,1100.47 666.19,1121.25 676.603,1146.28 687.016,1174.73 697.429,1205.69 707.842,1238.13 718.254,1271.01 728.667,1303.25 739.08,1333.79 749.493,1361.64 759.906,1385.9 770.319,1405.76 780.731,1420.58 791.144,1429.88 801.557,1433.35 811.97,1430.89 822.383,1422.56 832.796,1408.65 843.208,1389.6 853.621,1366.04 864.034,1338.74 874.447,1308.58 884.86,1276.56 895.273,1243.72 905.685,1211.12 916.098,1179.84 926.511,1150.89 936.924,1125.22 947.337,1103.67 957.749,1086.94 968.162,1075.57 978.575,1069.94 988.988,1070.24 999.401,1076.44 1009.81,1088.35 1020.23,1105.58 1030.64,1127.57 1041.05,1153.6 1051.46,1182.82 1061.88,1214.28 1072.29,1246.95 1082.7,1279.76 1093.12,1311.64 1103.53,1341.56 1113.94,1368.53 1124.35,1391.68 1134.77,1410.25 1145.18,1423.63 1155.59,1431.39 1166.01,1433.28 1176.42,1429.22 1186.83,1419.37 1197.24,1404.02 1207.66,1383.7 1218.07,1359.06 1228.48,1330.9 1238.9,1300.15 1249.31,1267.8 1259.72,339.946 1270.13,338.442 1280.55,339.811 1290.96,344.368 1301.37,350.717 1311.79,356.175 1322.2,357.791 1332.61,353.592 1343.02,343.581 1353.44,330.085 1363.85,317.242 1374.26,309.74 1384.68,311.179 1395.09,322.626 1405.5,341.879 1415.91,363.791 1426.33,381.634 1436.74,389.161 1447.15,382.718 1457.57,362.727 1467.98,333.973 1478.39,304.504 1488.8,283.385 1499.22,277.913 1509.63,291.176 1520.04,320.725 1530.45,358.887 1540.87,394.736 1551.28,417.218 1561.69,418.55 1572.11,396.829 1582.52,357.021 1592.93,309.9 1603.34,269.139 1613.76,247.35 1624.17,252.195 1634.58,283.785 1645,334.215 1655.41,389.5 1665.82,433.446 1676.23,452.392 1686.65,439.436 1697.06,396.832 1707.47,335.767 1717.89,273.453 1728.3,228.27 1738.71,214.354 1749.12,237.204 1759.54,291.666 1769.95,363.013 1780.36,430.908 1790.78,475.204 1801.19,481.914 1811.6,447.591 1822.01,380.759 1832.43,299.844 1842.84,228.106 1853.25,186.951 1863.67,189.553 1874.08,236.681 1884.49,316.041 1894.9,405.452 1905.32,479.039 1915.73,514.722 1926.14,500.827 1936.56,439.852 1946.97,348.176 1957.38,251.682 1967.79,178.452 1978.21,150.597 1988.62,177.591 1999.03,253.134 2009.45,356.536 2019.86,458.377 2030.27,528.871 2040.68,546.577 2051.1,504.902 2061.51,414.427 2071.92,300.267 2082.33,195.106 2092.75,129.845 2103.16,124.522 2113.57,182.185 2123.99,287.581 2134.4,411.162 2144.81,517.359 2155.22,574.824 2165.64,565.674 2176.05,491.027 2186.46,371.112 2196.88,239.806 2207.29,135.072 2217.7,87.9763 2228.11,113.489 2238.53,205.766 2248.94,339.399 2259.35,476.403 2269.77,577.011 2280.18,611.21 2290.59,567.692 "/>
<path clip-path="url(#clip390)" d="M229.49 250.738 L675.966 250.738 L675.966 95.2176 L229.49 95.2176  Z" fill="#ffffff" fill-rule="evenodd" fill-opacity="1"/>
<polyline clip-path="url(#clip390)" style="stroke:#000000; stroke-linecap:round; stroke-linejoin:round; stroke-width:4; stroke-opacity:1; fill:none" points="229.49,250.738 675.966,250.738 675.966,95.2176 229.49,95.2176 229.49,250.738 "/>
<polyline clip-path="url(#clip390)" style="stroke:#009af9; stroke-linecap:round; stroke-linejoin:round; stroke-width:16; stroke-opacity:1; fill:none" stroke-dasharray="8, 16" points="253.896,147.058 400.328,147.058 "/>
<path clip-path="url(#clip390)" d="M429.409 133.62 L429.409 146.606 L435.289 146.606 Q438.552 146.606 440.335 144.916 Q442.117 143.227 442.117 140.102 Q442.117 137 440.335 135.31 Q438.552 133.62 435.289 133.62 L429.409 133.62 M424.733 129.778 L435.289 129.778 Q441.099 129.778 444.062 132.416 Q447.048 135.032 447.048 140.102 Q447.048 145.217 444.062 147.833 Q441.099 150.449 435.289 150.449 L429.409 150.449 L429.409 164.338 L424.733 164.338 L424.733 129.778 Z" fill="#000000" fill-rule="nonzero" fill-opacity="1" /><path clip-path="url(#clip390)" d="M467.325 142.393 Q466.608 141.977 465.751 141.791 Q464.918 141.583 463.899 141.583 Q460.288 141.583 458.344 143.944 Q456.423 146.282 456.423 150.68 L456.423 164.338 L452.14 164.338 L452.14 138.412 L456.423 138.412 L456.423 142.44 Q457.765 140.078 459.918 138.944 Q462.071 137.787 465.149 137.787 Q465.589 137.787 466.122 137.856 Q466.654 137.903 467.302 138.018 L467.325 142.393 Z" fill="#000000" fill-rule="nonzero" fill-opacity="1" /><path clip-path="url(#clip390)" d="M492.927 150.31 L492.927 152.393 L473.344 152.393 Q473.622 156.791 475.983 159.106 Q478.367 161.398 482.603 161.398 Q485.057 161.398 487.348 160.796 Q489.663 160.194 491.932 158.99 L491.932 163.018 Q489.64 163.99 487.233 164.5 Q484.825 165.009 482.348 165.009 Q476.145 165.009 472.511 161.398 Q468.899 157.787 468.899 151.629 Q468.899 145.264 472.325 141.537 Q475.774 137.787 481.608 137.787 Q486.839 137.787 489.872 141.166 Q492.927 144.523 492.927 150.31 M488.668 149.06 Q488.622 145.565 486.7 143.481 Q484.802 141.398 481.654 141.398 Q478.089 141.398 475.936 143.412 Q473.807 145.426 473.483 149.083 L488.668 149.06 Z" fill="#000000" fill-rule="nonzero" fill-opacity="1" /><path clip-path="url(#clip390)" d="M516.978 142.347 L516.978 128.319 L521.237 128.319 L521.237 164.338 L516.978 164.338 L516.978 160.449 Q515.635 162.763 513.575 163.898 Q511.538 165.009 508.668 165.009 Q503.969 165.009 501.006 161.259 Q498.066 157.509 498.066 151.398 Q498.066 145.287 501.006 141.537 Q503.969 137.787 508.668 137.787 Q511.538 137.787 513.575 138.921 Q515.635 140.032 516.978 142.347 M502.464 151.398 Q502.464 156.097 504.385 158.782 Q506.33 161.444 509.709 161.444 Q513.089 161.444 515.033 158.782 Q516.978 156.097 516.978 151.398 Q516.978 146.699 515.033 144.037 Q513.089 141.352 509.709 141.352 Q506.33 141.352 504.385 144.037 Q502.464 146.699 502.464 151.398 Z" fill="#000000" fill-rule="nonzero" fill-opacity="1" /><path clip-path="url(#clip390)" d="M530.01 138.412 L534.269 138.412 L534.269 164.338 L530.01 164.338 L530.01 138.412 M530.01 128.319 L534.269 128.319 L534.269 133.713 L530.01 133.713 L530.01 128.319 Z" fill="#000000" fill-rule="nonzero" fill-opacity="1" /><path clip-path="url(#clip390)" d="M561.839 139.407 L561.839 143.389 Q560.033 142.393 558.205 141.907 Q556.399 141.398 554.547 141.398 Q550.404 141.398 548.112 144.037 Q545.82 146.652 545.82 151.398 Q545.82 156.143 548.112 158.782 Q550.404 161.398 554.547 161.398 Q556.399 161.398 558.205 160.912 Q560.033 160.402 561.839 159.407 L561.839 163.342 Q560.056 164.176 558.135 164.592 Q556.237 165.009 554.084 165.009 Q548.228 165.009 544.779 161.328 Q541.33 157.648 541.33 151.398 Q541.33 145.055 544.802 141.421 Q548.297 137.787 554.362 137.787 Q556.33 137.787 558.205 138.203 Q560.08 138.597 561.839 139.407 Z" fill="#000000" fill-rule="nonzero" fill-opacity="1" /><path clip-path="url(#clip390)" d="M573.459 131.051 L573.459 138.412 L582.232 138.412 L582.232 141.722 L573.459 141.722 L573.459 155.796 Q573.459 158.967 574.316 159.87 Q575.195 160.773 577.857 160.773 L582.232 160.773 L582.232 164.338 L577.857 164.338 Q572.927 164.338 571.052 162.509 Q569.177 160.657 569.177 155.796 L569.177 141.722 L566.052 141.722 L566.052 138.412 L569.177 138.412 L569.177 131.051 L573.459 131.051 Z" fill="#000000" fill-rule="nonzero" fill-opacity="1" /><path clip-path="url(#clip390)" d="M587.834 138.412 L592.093 138.412 L592.093 164.338 L587.834 164.338 L587.834 138.412 M587.834 128.319 L592.093 128.319 L592.093 133.713 L587.834 133.713 L587.834 128.319 Z" fill="#000000" fill-rule="nonzero" fill-opacity="1" /><path clip-path="url(#clip390)" d="M611.051 141.398 Q607.626 141.398 605.635 144.083 Q603.644 146.745 603.644 151.398 Q603.644 156.051 605.612 158.736 Q607.602 161.398 611.051 161.398 Q614.454 161.398 616.445 158.713 Q618.436 156.027 618.436 151.398 Q618.436 146.791 616.445 144.106 Q614.454 141.398 611.051 141.398 M611.051 137.787 Q616.607 137.787 619.778 141.398 Q622.95 145.009 622.95 151.398 Q622.95 157.764 619.778 161.398 Q616.607 165.009 611.051 165.009 Q605.473 165.009 602.302 161.398 Q599.153 157.764 599.153 151.398 Q599.153 145.009 602.302 141.398 Q605.473 137.787 611.051 137.787 Z" fill="#000000" fill-rule="nonzero" fill-opacity="1" /><path clip-path="url(#clip390)" d="M651.561 148.689 L651.561 164.338 L647.301 164.338 L647.301 148.828 Q647.301 145.148 645.866 143.319 Q644.431 141.49 641.561 141.49 Q638.112 141.49 636.121 143.69 Q634.13 145.889 634.13 149.685 L634.13 164.338 L629.848 164.338 L629.848 138.412 L634.13 138.412 L634.13 142.44 Q635.658 140.102 637.718 138.944 Q639.801 137.787 642.51 137.787 Q646.977 137.787 649.269 140.565 Q651.561 143.319 651.561 148.689 Z" fill="#000000" fill-rule="nonzero" fill-opacity="1" /><polyline clip-path="url(#clip390)" style="stroke:#e26f46; stroke-linecap:round; stroke-linejoin:round; stroke-width:4; stroke-opacity:1; fill:none" points="253.896,198.898 400.328,198.898 "/>
<path clip-path="url(#clip390)" d="M424.733 181.618 L446.585 181.618 L446.585 185.553 L429.409 185.553 L429.409 195.784 L445.867 195.784 L445.867 199.719 L429.409 199.719 L429.409 212.242 L447.001 212.242 L447.001 216.178 L424.733 216.178 L424.733 181.618 Z" fill="#000000" fill-rule="nonzero" fill-opacity="1" /><path clip-path="url(#clip390)" d="M476.052 190.252 L466.677 202.867 L476.538 216.178 L471.515 216.178 L463.969 205.992 L456.423 216.178 L451.4 216.178 L461.469 202.613 L452.256 190.252 L457.279 190.252 L464.154 199.488 L471.029 190.252 L476.052 190.252 Z" fill="#000000" fill-rule="nonzero" fill-opacity="1" /><path clip-path="url(#clip390)" d="M494.339 203.145 Q489.177 203.145 487.186 204.326 Q485.196 205.506 485.196 208.354 Q485.196 210.622 486.677 211.965 Q488.182 213.284 490.751 213.284 Q494.293 213.284 496.422 210.784 Q498.575 208.261 498.575 204.094 L498.575 203.145 L494.339 203.145 M502.834 201.386 L502.834 216.178 L498.575 216.178 L498.575 212.242 Q497.117 214.603 494.941 215.738 Q492.765 216.849 489.617 216.849 Q485.635 216.849 483.274 214.627 Q480.936 212.381 480.936 208.631 Q480.936 204.256 483.853 202.034 Q486.793 199.812 492.603 199.812 L498.575 199.812 L498.575 199.395 Q498.575 196.455 496.631 194.858 Q494.71 193.238 491.214 193.238 Q488.992 193.238 486.885 193.77 Q484.779 194.303 482.835 195.367 L482.835 191.432 Q485.173 190.53 487.372 190.09 Q489.571 189.627 491.654 189.627 Q497.279 189.627 500.057 192.543 Q502.834 195.46 502.834 201.386 Z" fill="#000000" fill-rule="nonzero" fill-opacity="1" /><path clip-path="url(#clip390)" d="M530.265 191.247 L530.265 195.229 Q528.459 194.233 526.631 193.747 Q524.825 193.238 522.973 193.238 Q518.83 193.238 516.538 195.877 Q514.246 198.492 514.246 203.238 Q514.246 207.983 516.538 210.622 Q518.83 213.238 522.973 213.238 Q524.825 213.238 526.631 212.752 Q528.459 212.242 530.265 211.247 L530.265 215.182 Q528.482 216.016 526.561 216.432 Q524.663 216.849 522.51 216.849 Q516.654 216.849 513.205 213.168 Q509.756 209.488 509.756 203.238 Q509.756 196.895 513.228 193.261 Q516.723 189.627 522.788 189.627 Q524.756 189.627 526.631 190.043 Q528.506 190.437 530.265 191.247 Z" fill="#000000" fill-rule="nonzero" fill-opacity="1" /><path clip-path="url(#clip390)" d="M541.885 182.891 L541.885 190.252 L550.658 190.252 L550.658 193.562 L541.885 193.562 L541.885 207.636 Q541.885 210.807 542.742 211.71 Q543.621 212.613 546.283 212.613 L550.658 212.613 L550.658 216.178 L546.283 216.178 Q541.353 216.178 539.478 214.349 Q537.603 212.497 537.603 207.636 L537.603 193.562 L534.478 193.562 L534.478 190.252 L537.603 190.252 L537.603 182.891 L541.885 182.891 Z" fill="#000000" fill-rule="nonzero" fill-opacity="1" /></svg>
