<?xml version="1.0" encoding="utf-8"?>
<svg xmlns="http://www.w3.org/2000/svg" xmlns:xlink="http://www.w3.org/1999/xlink" width="600" height="400" viewBox="0 0 2400 1600">
<defs>
  <clipPath id="clip330">
    <rect x="0" y="0" width="2400" height="1600"/>
  </clipPath>
</defs>
<path clip-path="url(#clip330)" d="M0 1600 L2400 1600 L2400 0 L0 0  Z" fill="#ffffff" fill-rule="evenodd" fill-opacity="1"/>
<defs>
  <clipPath id="clip331">
    <rect x="480" y="0" width="1681" height="1600"/>
  </clipPath>
</defs>
<path clip-path="url(#clip330)" d="M223.103 1486.45 L2352.76 1486.45 L2352.76 47.2441 L223.103 47.2441  Z" fill="#ffffff" fill-rule="evenodd" fill-opacity="1"/>
<defs>
  <clipPath id="clip332">
    <rect x="223" y="47" width="2131" height="1440"/>
  </clipPath>
</defs>
<polyline clip-path="url(#clip332)" style="stroke:#000000; stroke-linecap:round; stroke-linejoin:round; stroke-width:2; stroke-opacity:0.1; fill:none" points="283.376,1486.45 283.376,47.2441 "/>
<polyline clip-path="url(#clip332)" style="stroke:#000000; stroke-linecap:round; stroke-linejoin:round; stroke-width:2; stroke-opacity:0.1; fill:none" points="785.652,1486.45 785.652,47.2441 "/>
<polyline clip-path="url(#clip332)" style="stroke:#000000; stroke-linecap:round; stroke-linejoin:round; stroke-width:2; stroke-opacity:0.1; fill:none" points="1287.93,1486.45 1287.93,47.2441 "/>
<polyline clip-path="url(#clip332)" style="stroke:#000000; stroke-linecap:round; stroke-linejoin:round; stroke-width:2; stroke-opacity:0.1; fill:none" points="1790.21,1486.45 1790.21,47.2441 "/>
<polyline clip-path="url(#clip332)" style="stroke:#000000; stroke-linecap:round; stroke-linejoin:round; stroke-width:2; stroke-opacity:0.1; fill:none" points="2292.48,1486.45 2292.48,47.2441 "/>
<polyline clip-path="url(#clip330)" style="stroke:#000000; stroke-linecap:round; stroke-linejoin:round; stroke-width:4; stroke-opacity:1; fill:none" points="223.103,1486.45 2352.76,1486.45 "/>
<polyline clip-path="url(#clip330)" style="stroke:#000000; stroke-linecap:round; stroke-linejoin:round; stroke-width:4; stroke-opacity:1; fill:none" points="283.376,1486.45 283.376,1467.55 "/>
<polyline clip-path="url(#clip330)" style="stroke:#000000; stroke-linecap:round; stroke-linejoin:round; stroke-width:4; stroke-opacity:1; fill:none" points="785.652,1486.45 785.652,1467.55 "/>
<polyline clip-path="url(#clip330)" style="stroke:#000000; stroke-linecap:round; stroke-linejoin:round; stroke-width:4; stroke-opacity:1; fill:none" points="1287.93,1486.45 1287.93,1467.55 "/>
<polyline clip-path="url(#clip330)" style="stroke:#000000; stroke-linecap:round; stroke-linejoin:round; stroke-width:4; stroke-opacity:1; fill:none" points="1790.21,1486.45 1790.21,1467.55 "/>
<polyline clip-path="url(#clip330)" style="stroke:#000000; stroke-linecap:round; stroke-linejoin:round; stroke-width:4; stroke-opacity:1; fill:none" points="2292.48,1486.45 2292.48,1467.55 "/>
<path clip-path="url(#clip330)" d="M229.904 1532.02 L259.58 1532.02 L259.58 1535.95 L229.904 1535.95 L229.904 1532.02 Z" fill="#000000" fill-rule="nonzero" fill-opacity="1" /><path clip-path="url(#clip330)" d="M270.482 1544.91 L278.121 1544.91 L278.121 1518.55 L269.811 1520.21 L269.811 1515.95 L278.075 1514.29 L282.751 1514.29 L282.751 1544.91 L290.39 1544.91 L290.39 1548.85 L270.482 1548.85 L270.482 1544.91 Z" fill="#000000" fill-rule="nonzero" fill-opacity="1" /><path clip-path="url(#clip330)" d="M299.834 1542.97 L304.718 1542.97 L304.718 1548.85 L299.834 1548.85 L299.834 1542.97 Z" fill="#000000" fill-rule="nonzero" fill-opacity="1" /><path clip-path="url(#clip330)" d="M324.903 1517.37 Q321.292 1517.37 319.463 1520.93 Q317.658 1524.47 317.658 1531.6 Q317.658 1538.71 319.463 1542.27 Q321.292 1545.82 324.903 1545.82 Q328.538 1545.82 330.343 1542.27 Q332.172 1538.71 332.172 1531.6 Q332.172 1524.47 330.343 1520.93 Q328.538 1517.37 324.903 1517.37 M324.903 1513.66 Q330.713 1513.66 333.769 1518.27 Q336.848 1522.85 336.848 1531.6 Q336.848 1540.33 333.769 1544.94 Q330.713 1549.52 324.903 1549.52 Q319.093 1549.52 316.014 1544.94 Q312.959 1540.33 312.959 1531.6 Q312.959 1522.85 316.014 1518.27 Q319.093 1513.66 324.903 1513.66 Z" fill="#000000" fill-rule="nonzero" fill-opacity="1" /><path clip-path="url(#clip330)" d="M732.678 1532.02 L762.354 1532.02 L762.354 1535.95 L732.678 1535.95 L732.678 1532.02 Z" fill="#000000" fill-rule="nonzero" fill-opacity="1" /><path clip-path="url(#clip330)" d="M782.446 1517.37 Q778.835 1517.37 777.007 1520.93 Q775.201 1524.47 775.201 1531.6 Q775.201 1538.71 777.007 1542.27 Q778.835 1545.82 782.446 1545.82 Q786.081 1545.82 787.886 1542.27 Q789.715 1538.71 789.715 1531.6 Q789.715 1524.47 787.886 1520.93 Q786.081 1517.37 782.446 1517.37 M782.446 1513.66 Q788.257 1513.66 791.312 1518.27 Q794.391 1522.85 794.391 1531.6 Q794.391 1540.33 791.312 1544.94 Q788.257 1549.52 782.446 1549.52 Q776.636 1549.52 773.558 1544.94 Q770.502 1540.33 770.502 1531.6 Q770.502 1522.85 773.558 1518.27 Q776.636 1513.66 782.446 1513.66 Z" fill="#000000" fill-rule="nonzero" fill-opacity="1" /><path clip-path="url(#clip330)" d="M802.608 1542.97 L807.493 1542.97 L807.493 1548.85 L802.608 1548.85 L802.608 1542.97 Z" fill="#000000" fill-rule="nonzero" fill-opacity="1" /><path clip-path="url(#clip330)" d="M817.724 1514.29 L836.08 1514.29 L836.08 1518.22 L822.006 1518.22 L822.006 1526.7 Q823.025 1526.35 824.043 1526.19 Q825.062 1526 826.08 1526 Q831.867 1526 835.247 1529.17 Q838.627 1532.34 838.627 1537.76 Q838.627 1543.34 835.155 1546.44 Q831.682 1549.52 825.363 1549.52 Q823.187 1549.52 820.918 1549.15 Q818.673 1548.78 816.266 1548.04 L816.266 1543.34 Q818.349 1544.47 820.571 1545.03 Q822.793 1545.58 825.27 1545.58 Q829.275 1545.58 831.613 1543.48 Q833.951 1541.37 833.951 1537.76 Q833.951 1534.15 831.613 1532.04 Q829.275 1529.94 825.27 1529.94 Q823.395 1529.94 821.52 1530.35 Q819.668 1530.77 817.724 1531.65 L817.724 1514.29 Z" fill="#000000" fill-rule="nonzero" fill-opacity="1" /><path clip-path="url(#clip330)" d="M1265.31 1517.37 Q1261.7 1517.37 1259.87 1520.93 Q1258.07 1524.47 1258.07 1531.6 Q1258.07 1538.71 1259.87 1542.27 Q1261.7 1545.82 1265.31 1545.82 Q1268.95 1545.82 1270.75 1542.27 Q1272.58 1538.71 1272.58 1531.6 Q1272.58 1524.47 1270.75 1520.93 Q1268.95 1517.37 1265.31 1517.37 M1265.31 1513.66 Q1271.12 1513.66 1274.18 1518.27 Q1277.26 1522.85 1277.26 1531.6 Q1277.26 1540.33 1274.18 1544.94 Q1271.12 1549.52 1265.31 1549.52 Q1259.5 1549.52 1256.42 1544.94 Q1253.37 1540.33 1253.37 1531.6 Q1253.37 1522.85 1256.42 1518.27 Q1259.5 1513.66 1265.31 1513.66 Z" fill="#000000" fill-rule="nonzero" fill-opacity="1" /><path clip-path="url(#clip330)" d="M1285.48 1542.97 L1290.36 1542.97 L1290.36 1548.85 L1285.48 1548.85 L1285.48 1542.97 Z" fill="#000000" fill-rule="nonzero" fill-opacity="1" /><path clip-path="url(#clip330)" d="M1310.54 1517.37 Q1306.93 1517.37 1305.11 1520.93 Q1303.3 1524.47 1303.3 1531.6 Q1303.3 1538.71 1305.11 1542.27 Q1306.93 1545.82 1310.54 1545.82 Q1314.18 1545.82 1315.98 1542.27 Q1317.81 1538.71 1317.81 1531.6 Q1317.81 1524.47 1315.98 1520.93 Q1314.18 1517.37 1310.54 1517.37 M1310.54 1513.66 Q1316.35 1513.66 1319.41 1518.27 Q1322.49 1522.85 1322.49 1531.6 Q1322.49 1540.33 1319.41 1544.94 Q1316.35 1549.52 1310.54 1549.52 Q1304.73 1549.52 1301.66 1544.94 Q1298.6 1540.33 1298.6 1531.6 Q1298.6 1522.85 1301.66 1518.27 Q1304.73 1513.66 1310.54 1513.66 Z" fill="#000000" fill-rule="nonzero" fill-opacity="1" /><path clip-path="url(#clip330)" d="M1768.09 1517.37 Q1764.48 1517.37 1762.65 1520.93 Q1760.84 1524.47 1760.84 1531.6 Q1760.84 1538.71 1762.65 1542.27 Q1764.48 1545.82 1768.09 1545.82 Q1771.72 1545.82 1773.53 1542.27 Q1775.36 1538.71 1775.36 1531.6 Q1775.36 1524.47 1773.53 1520.93 Q1771.72 1517.37 1768.09 1517.37 M1768.09 1513.66 Q1773.9 1513.66 1776.95 1518.27 Q1780.03 1522.85 1780.03 1531.6 Q1780.03 1540.33 1776.95 1544.94 Q1773.9 1549.52 1768.09 1549.52 Q1762.28 1549.52 1759.2 1544.94 Q1756.14 1540.33 1756.14 1531.6 Q1756.14 1522.85 1759.2 1518.27 Q1762.28 1513.66 1768.09 1513.66 Z" fill="#000000" fill-rule="nonzero" fill-opacity="1" /><path clip-path="url(#clip330)" d="M1788.25 1542.97 L1793.13 1542.97 L1793.13 1548.85 L1788.25 1548.85 L1788.25 1542.97 Z" fill="#000000" fill-rule="nonzero" fill-opacity="1" /><path clip-path="url(#clip330)" d="M1803.37 1514.29 L1821.72 1514.29 L1821.72 1518.22 L1807.65 1518.22 L1807.65 1526.7 Q1808.67 1526.35 1809.69 1526.19 Q1810.7 1526 1811.72 1526 Q1817.51 1526 1820.89 1529.17 Q1824.27 1532.34 1824.27 1537.76 Q1824.27 1543.34 1820.8 1546.44 Q1817.32 1549.52 1811 1549.52 Q1808.83 1549.52 1806.56 1549.15 Q1804.31 1548.78 1801.91 1548.04 L1801.91 1543.34 Q1803.99 1544.47 1806.21 1545.03 Q1808.44 1545.58 1810.91 1545.58 Q1814.92 1545.58 1817.25 1543.48 Q1819.59 1541.37 1819.59 1537.76 Q1819.59 1534.15 1817.25 1532.04 Q1814.92 1529.94 1810.91 1529.94 Q1809.04 1529.94 1807.16 1530.35 Q1805.31 1530.77 1803.37 1531.65 L1803.37 1514.29 Z" fill="#000000" fill-rule="nonzero" fill-opacity="1" /><path clip-path="url(#clip330)" d="M2259.64 1544.91 L2267.27 1544.91 L2267.27 1518.55 L2258.96 1520.21 L2258.96 1515.95 L2267.23 1514.29 L2271.9 1514.29 L2271.9 1544.91 L2279.54 1544.91 L2279.54 1548.85 L2259.64 1548.85 L2259.64 1544.91 Z" fill="#000000" fill-rule="nonzero" fill-opacity="1" /><path clip-path="url(#clip330)" d="M2288.99 1542.97 L2293.87 1542.97 L2293.87 1548.85 L2288.99 1548.85 L2288.99 1542.97 Z" fill="#000000" fill-rule="nonzero" fill-opacity="1" /><path clip-path="url(#clip330)" d="M2314.06 1517.37 Q2310.45 1517.37 2308.62 1520.93 Q2306.81 1524.47 2306.81 1531.6 Q2306.81 1538.71 2308.62 1542.27 Q2310.45 1545.82 2314.06 1545.82 Q2317.69 1545.82 2319.5 1542.27 Q2321.33 1538.71 2321.33 1531.6 Q2321.33 1524.47 2319.5 1520.93 Q2317.69 1517.37 2314.06 1517.37 M2314.06 1513.66 Q2319.87 1513.66 2322.92 1518.27 Q2326 1522.85 2326 1531.6 Q2326 1540.33 2322.92 1544.94 Q2319.87 1549.52 2314.06 1549.52 Q2308.25 1549.52 2305.17 1544.94 Q2302.11 1540.33 2302.11 1531.6 Q2302.11 1522.85 2305.17 1518.27 Q2308.25 1513.66 2314.06 1513.66 Z" fill="#000000" fill-rule="nonzero" fill-opacity="1" /><polyline clip-path="url(#clip332)" style="stroke:#000000; stroke-linecap:round; stroke-linejoin:round; stroke-width:2; stroke-opacity:0.1; fill:none" points="223.103,1363.53 2352.76,1363.53 "/>
<polyline clip-path="url(#clip332)" style="stroke:#000000; stroke-linecap:round; stroke-linejoin:round; stroke-width:2; stroke-opacity:0.1; fill:none" points="223.103,1169.11 2352.76,1169.11 "/>
<polyline clip-path="url(#clip332)" style="stroke:#000000; stroke-linecap:round; stroke-linejoin:round; stroke-width:2; stroke-opacity:0.1; fill:none" points="223.103,974.692 2352.76,974.692 "/>
<polyline clip-path="url(#clip332)" style="stroke:#000000; stroke-linecap:round; stroke-linejoin:round; stroke-width:2; stroke-opacity:0.1; fill:none" points="223.103,780.272 2352.76,780.272 "/>
<polyline clip-path="url(#clip332)" style="stroke:#000000; stroke-linecap:round; stroke-linejoin:round; stroke-width:2; stroke-opacity:0.1; fill:none" points="223.103,585.852 2352.76,585.852 "/>
<polyline clip-path="url(#clip332)" style="stroke:#000000; stroke-linecap:round; stroke-linejoin:round; stroke-width:2; stroke-opacity:0.1; fill:none" points="223.103,391.432 2352.76,391.432 "/>
<polyline clip-path="url(#clip332)" style="stroke:#000000; stroke-linecap:round; stroke-linejoin:round; stroke-width:2; stroke-opacity:0.1; fill:none" points="223.103,197.012 2352.76,197.012 "/>
<polyline clip-path="url(#clip330)" style="stroke:#000000; stroke-linecap:round; stroke-linejoin:round; stroke-width:4; stroke-opacity:1; fill:none" points="223.103,1486.45 223.103,47.2441 "/>
<polyline clip-path="url(#clip330)" style="stroke:#000000; stroke-linecap:round; stroke-linejoin:round; stroke-width:4; stroke-opacity:1; fill:none" points="223.103,1363.53 242,1363.53 "/>
<polyline clip-path="url(#clip330)" style="stroke:#000000; stroke-linecap:round; stroke-linejoin:round; stroke-width:4; stroke-opacity:1; fill:none" points="223.103,1169.11 242,1169.11 "/>
<polyline clip-path="url(#clip330)" style="stroke:#000000; stroke-linecap:round; stroke-linejoin:round; stroke-width:4; stroke-opacity:1; fill:none" points="223.103,974.692 242,974.692 "/>
<polyline clip-path="url(#clip330)" style="stroke:#000000; stroke-linecap:round; stroke-linejoin:round; stroke-width:4; stroke-opacity:1; fill:none" points="223.103,780.272 242,780.272 "/>
<polyline clip-path="url(#clip330)" style="stroke:#000000; stroke-linecap:round; stroke-linejoin:round; stroke-width:4; stroke-opacity:1; fill:none" points="223.103,585.852 242,585.852 "/>
<polyline clip-path="url(#clip330)" style="stroke:#000000; stroke-linecap:round; stroke-linejoin:round; stroke-width:4; stroke-opacity:1; fill:none" points="223.103,391.432 242,391.432 "/>
<polyline clip-path="url(#clip330)" style="stroke:#000000; stroke-linecap:round; stroke-linejoin:round; stroke-width:4; stroke-opacity:1; fill:none" points="223.103,197.012 242,197.012 "/>
<path clip-path="url(#clip330)" d="M50.9921 1363.98 L80.6679 1363.98 L80.6679 1367.92 L50.9921 1367.92 L50.9921 1363.98 Z" fill="#000000" fill-rule="nonzero" fill-opacity="1" /><path clip-path="url(#clip330)" d="M100.76 1349.33 Q97.1493 1349.33 95.3206 1352.9 Q93.515 1356.44 93.515 1363.57 Q93.515 1370.67 95.3206 1374.24 Q97.1493 1377.78 100.76 1377.78 Q104.395 1377.78 106.2 1374.24 Q108.029 1370.67 108.029 1363.57 Q108.029 1356.44 106.2 1352.9 Q104.395 1349.33 100.76 1349.33 M100.76 1345.63 Q106.571 1345.63 109.626 1350.23 Q112.705 1354.82 112.705 1363.57 Q112.705 1372.29 109.626 1376.9 Q106.571 1381.48 100.76 1381.48 Q94.9502 1381.48 91.8715 1376.9 Q88.816 1372.29 88.816 1363.57 Q88.816 1354.82 91.8715 1350.23 Q94.9502 1345.63 100.76 1345.63 Z" fill="#000000" fill-rule="nonzero" fill-opacity="1" /><path clip-path="url(#clip330)" d="M120.922 1374.93 L125.807 1374.93 L125.807 1380.81 L120.922 1380.81 L120.922 1374.93 Z" fill="#000000" fill-rule="nonzero" fill-opacity="1" /><path clip-path="url(#clip330)" d="M140.019 1376.88 L156.339 1376.88 L156.339 1380.81 L134.394 1380.81 L134.394 1376.88 Q137.056 1374.12 141.64 1369.49 Q146.246 1364.84 147.427 1363.5 Q149.672 1360.97 150.552 1359.24 Q151.455 1357.48 151.455 1355.79 Q151.455 1353.03 149.51 1351.3 Q147.589 1349.56 144.487 1349.56 Q142.288 1349.56 139.834 1350.33 Q137.404 1351.09 134.626 1352.64 L134.626 1347.92 Q137.45 1346.78 139.904 1346.21 Q142.357 1345.63 144.394 1345.63 Q149.765 1345.63 152.959 1348.31 Q156.154 1351 156.154 1355.49 Q156.154 1357.62 155.343 1359.54 Q154.556 1361.44 152.45 1364.03 Q151.871 1364.7 148.769 1367.92 Q145.668 1371.11 140.019 1376.88 Z" fill="#000000" fill-rule="nonzero" fill-opacity="1" /><path clip-path="url(#clip330)" d="M166.2 1346.25 L184.556 1346.25 L184.556 1350.19 L170.482 1350.19 L170.482 1358.66 Q171.501 1358.31 172.519 1358.15 Q173.538 1357.96 174.556 1357.96 Q180.343 1357.96 183.723 1361.14 Q187.103 1364.31 187.103 1369.72 Q187.103 1375.3 183.63 1378.4 Q180.158 1381.48 173.839 1381.48 Q171.663 1381.48 169.394 1381.11 Q167.149 1380.74 164.742 1380 L164.742 1375.3 Q166.825 1376.44 169.047 1376.99 Q171.269 1377.55 173.746 1377.55 Q177.751 1377.55 180.089 1375.44 Q182.427 1373.33 182.427 1369.72 Q182.427 1366.11 180.089 1364.01 Q177.751 1361.9 173.746 1361.9 Q171.871 1361.9 169.996 1362.32 Q168.144 1362.73 166.2 1363.61 L166.2 1346.25 Z" fill="#000000" fill-rule="nonzero" fill-opacity="1" /><path clip-path="url(#clip330)" d="M99.765 1154.91 Q96.1539 1154.91 94.3252 1158.48 Q92.5197 1162.02 92.5197 1169.15 Q92.5197 1176.25 94.3252 1179.82 Q96.1539 1183.36 99.765 1183.36 Q103.399 1183.36 105.205 1179.82 Q107.033 1176.25 107.033 1169.15 Q107.033 1162.02 105.205 1158.48 Q103.399 1154.91 99.765 1154.91 M99.765 1151.21 Q105.575 1151.21 108.631 1155.81 Q111.709 1160.4 111.709 1169.15 Q111.709 1177.87 108.631 1182.48 Q105.575 1187.06 99.765 1187.06 Q93.9549 1187.06 90.8762 1182.48 Q87.8206 1177.87 87.8206 1169.15 Q87.8206 1160.4 90.8762 1155.81 Q93.9549 1151.21 99.765 1151.21 Z" fill="#000000" fill-rule="nonzero" fill-opacity="1" /><path clip-path="url(#clip330)" d="M119.927 1180.51 L124.811 1180.51 L124.811 1186.39 L119.927 1186.39 L119.927 1180.51 Z" fill="#000000" fill-rule="nonzero" fill-opacity="1" /><path clip-path="url(#clip330)" d="M144.996 1154.91 Q141.385 1154.91 139.556 1158.48 Q137.751 1162.02 137.751 1169.15 Q137.751 1176.25 139.556 1179.82 Q141.385 1183.36 144.996 1183.36 Q148.63 1183.36 150.436 1179.82 Q152.265 1176.25 152.265 1169.15 Q152.265 1162.02 150.436 1158.48 Q148.63 1154.91 144.996 1154.91 M144.996 1151.21 Q150.806 1151.21 153.862 1155.81 Q156.941 1160.4 156.941 1169.15 Q156.941 1177.87 153.862 1182.48 Q150.806 1187.06 144.996 1187.06 Q139.186 1187.06 136.107 1182.48 Q133.052 1177.87 133.052 1169.15 Q133.052 1160.4 136.107 1155.81 Q139.186 1151.21 144.996 1151.21 Z" fill="#000000" fill-rule="nonzero" fill-opacity="1" /><path clip-path="url(#clip330)" d="M175.158 1154.91 Q171.547 1154.91 169.718 1158.48 Q167.913 1162.02 167.913 1169.15 Q167.913 1176.25 169.718 1179.82 Q171.547 1183.36 175.158 1183.36 Q178.792 1183.36 180.598 1179.82 Q182.427 1176.25 182.427 1169.15 Q182.427 1162.02 180.598 1158.48 Q178.792 1154.91 175.158 1154.91 M175.158 1151.21 Q180.968 1151.21 184.024 1155.81 Q187.103 1160.4 187.103 1169.15 Q187.103 1177.87 184.024 1182.48 Q180.968 1187.06 175.158 1187.06 Q169.348 1187.06 166.269 1182.48 Q163.214 1177.87 163.214 1169.15 Q163.214 1160.4 166.269 1155.81 Q169.348 1151.21 175.158 1151.21 Z" fill="#000000" fill-rule="nonzero" fill-opacity="1" /><path clip-path="url(#clip330)" d="M100.76 960.49 Q97.1493 960.49 95.3206 964.055 Q93.515 967.597 93.515 974.727 Q93.515 981.833 95.3206 985.398 Q97.1493 988.939 100.76 988.939 Q104.395 988.939 106.2 985.398 Q108.029 981.833 108.029 974.727 Q108.029 967.597 106.2 964.055 Q104.395 960.49 100.76 960.49 M100.76 956.787 Q106.571 956.787 109.626 961.393 Q112.705 965.977 112.705 974.727 Q112.705 983.453 109.626 988.06 Q106.571 992.643 100.76 992.643 Q94.9502 992.643 91.8715 988.06 Q88.816 983.453 88.816 974.727 Q88.816 965.977 91.8715 961.393 Q94.9502 956.787 100.76 956.787 Z" fill="#000000" fill-rule="nonzero" fill-opacity="1" /><path clip-path="url(#clip330)" d="M120.922 986.092 L125.807 986.092 L125.807 991.972 L120.922 991.972 L120.922 986.092 Z" fill="#000000" fill-rule="nonzero" fill-opacity="1" /><path clip-path="url(#clip330)" d="M140.019 988.037 L156.339 988.037 L156.339 991.972 L134.394 991.972 L134.394 988.037 Q137.056 985.282 141.64 980.652 Q146.246 976 147.427 974.657 Q149.672 972.134 150.552 970.398 Q151.455 968.639 151.455 966.949 Q151.455 964.194 149.51 962.458 Q147.589 960.722 144.487 960.722 Q142.288 960.722 139.834 961.486 Q137.404 962.25 134.626 963.801 L134.626 959.078 Q137.45 957.944 139.904 957.366 Q142.357 956.787 144.394 956.787 Q149.765 956.787 152.959 959.472 Q156.154 962.157 156.154 966.648 Q156.154 968.777 155.343 970.699 Q154.556 972.597 152.45 975.189 Q151.871 975.861 148.769 979.078 Q145.668 982.273 140.019 988.037 Z" fill="#000000" fill-rule="nonzero" fill-opacity="1" /><path clip-path="url(#clip330)" d="M166.2 957.412 L184.556 957.412 L184.556 961.347 L170.482 961.347 L170.482 969.819 Q171.501 969.472 172.519 969.31 Q173.538 969.125 174.556 969.125 Q180.343 969.125 183.723 972.296 Q187.103 975.467 187.103 980.884 Q187.103 986.463 183.63 989.564 Q180.158 992.643 173.839 992.643 Q171.663 992.643 169.394 992.273 Q167.149 991.902 164.742 991.162 L164.742 986.463 Q166.825 987.597 169.047 988.152 Q171.269 988.708 173.746 988.708 Q177.751 988.708 180.089 986.601 Q182.427 984.495 182.427 980.884 Q182.427 977.273 180.089 975.166 Q177.751 973.06 173.746 973.06 Q171.871 973.06 169.996 973.477 Q168.144 973.893 166.2 974.773 L166.2 957.412 Z" fill="#000000" fill-rule="nonzero" fill-opacity="1" /><path clip-path="url(#clip330)" d="M99.765 766.071 Q96.1539 766.071 94.3252 769.635 Q92.5197 773.177 92.5197 780.307 Q92.5197 787.413 94.3252 790.978 Q96.1539 794.52 99.765 794.52 Q103.399 794.52 105.205 790.978 Q107.033 787.413 107.033 780.307 Q107.033 773.177 105.205 769.635 Q103.399 766.071 99.765 766.071 M99.765 762.367 Q105.575 762.367 108.631 766.973 Q111.709 771.557 111.709 780.307 Q111.709 789.033 108.631 793.64 Q105.575 798.223 99.765 798.223 Q93.9549 798.223 90.8762 793.64 Q87.8206 789.033 87.8206 780.307 Q87.8206 771.557 90.8762 766.973 Q93.9549 762.367 99.765 762.367 Z" fill="#000000" fill-rule="nonzero" fill-opacity="1" /><path clip-path="url(#clip330)" d="M119.927 791.672 L124.811 791.672 L124.811 797.552 L119.927 797.552 L119.927 791.672 Z" fill="#000000" fill-rule="nonzero" fill-opacity="1" /><path clip-path="url(#clip330)" d="M135.043 762.992 L153.399 762.992 L153.399 766.927 L139.325 766.927 L139.325 775.399 Q140.343 775.052 141.362 774.89 Q142.381 774.705 143.399 774.705 Q149.186 774.705 152.566 777.876 Q155.945 781.047 155.945 786.464 Q155.945 792.043 152.473 795.145 Q149.001 798.223 142.681 798.223 Q140.506 798.223 138.237 797.853 Q135.992 797.482 133.584 796.742 L133.584 792.043 Q135.668 793.177 137.89 793.733 Q140.112 794.288 142.589 794.288 Q146.593 794.288 148.931 792.182 Q151.269 790.075 151.269 786.464 Q151.269 782.853 148.931 780.746 Q146.593 778.64 142.589 778.64 Q140.714 778.64 138.839 779.057 Q136.987 779.473 135.043 780.353 L135.043 762.992 Z" fill="#000000" fill-rule="nonzero" fill-opacity="1" /><path clip-path="url(#clip330)" d="M175.158 766.071 Q171.547 766.071 169.718 769.635 Q167.913 773.177 167.913 780.307 Q167.913 787.413 169.718 790.978 Q171.547 794.52 175.158 794.52 Q178.792 794.52 180.598 790.978 Q182.427 787.413 182.427 780.307 Q182.427 773.177 180.598 769.635 Q178.792 766.071 175.158 766.071 M175.158 762.367 Q180.968 762.367 184.024 766.973 Q187.103 771.557 187.103 780.307 Q187.103 789.033 184.024 793.64 Q180.968 798.223 175.158 798.223 Q169.348 798.223 166.269 793.64 Q163.214 789.033 163.214 780.307 Q163.214 771.557 166.269 766.973 Q169.348 762.367 175.158 762.367 Z" fill="#000000" fill-rule="nonzero" fill-opacity="1" /><path clip-path="url(#clip330)" d="M100.76 571.651 Q97.1493 571.651 95.3206 575.216 Q93.515 578.757 93.515 585.887 Q93.515 592.993 95.3206 596.558 Q97.1493 600.1 100.76 600.1 Q104.395 600.1 106.2 596.558 Q108.029 592.993 108.029 585.887 Q108.029 578.757 106.2 575.216 Q104.395 571.651 100.76 571.651 M100.76 567.947 Q106.571 567.947 109.626 572.554 Q112.705 577.137 112.705 585.887 Q112.705 594.614 109.626 599.22 Q106.571 603.803 100.76 603.803 Q94.9502 603.803 91.8715 599.22 Q88.816 594.614 88.816 585.887 Q88.816 577.137 91.8715 572.554 Q94.9502 567.947 100.76 567.947 Z" fill="#000000" fill-rule="nonzero" fill-opacity="1" /><path clip-path="url(#clip330)" d="M120.922 597.252 L125.807 597.252 L125.807 603.132 L120.922 603.132 L120.922 597.252 Z" fill="#000000" fill-rule="nonzero" fill-opacity="1" /><path clip-path="url(#clip330)" d="M134.811 568.572 L157.033 568.572 L157.033 570.563 L144.487 603.132 L139.603 603.132 L151.408 572.507 L134.811 572.507 L134.811 568.572 Z" fill="#000000" fill-rule="nonzero" fill-opacity="1" /><path clip-path="url(#clip330)" d="M166.2 568.572 L184.556 568.572 L184.556 572.507 L170.482 572.507 L170.482 580.979 Q171.501 580.632 172.519 580.47 Q173.538 580.285 174.556 580.285 Q180.343 580.285 183.723 583.456 Q187.103 586.628 187.103 592.044 Q187.103 597.623 183.63 600.725 Q180.158 603.803 173.839 603.803 Q171.663 603.803 169.394 603.433 Q167.149 603.063 164.742 602.322 L164.742 597.623 Q166.825 598.757 169.047 599.313 Q171.269 599.868 173.746 599.868 Q177.751 599.868 180.089 597.762 Q182.427 595.655 182.427 592.044 Q182.427 588.433 180.089 586.327 Q177.751 584.22 173.746 584.22 Q171.871 584.22 169.996 584.637 Q168.144 585.053 166.2 585.933 L166.2 568.572 Z" fill="#000000" fill-rule="nonzero" fill-opacity="1" /><path clip-path="url(#clip330)" d="M90.5752 404.777 L98.2141 404.777 L98.2141 378.411 L89.904 380.078 L89.904 375.819 L98.1678 374.152 L102.844 374.152 L102.844 404.777 L110.483 404.777 L110.483 408.712 L90.5752 408.712 L90.5752 404.777 Z" fill="#000000" fill-rule="nonzero" fill-opacity="1" /><path clip-path="url(#clip330)" d="M119.927 402.833 L124.811 402.833 L124.811 408.712 L119.927 408.712 L119.927 402.833 Z" fill="#000000" fill-rule="nonzero" fill-opacity="1" /><path clip-path="url(#clip330)" d="M144.996 377.231 Q141.385 377.231 139.556 380.796 Q137.751 384.337 137.751 391.467 Q137.751 398.573 139.556 402.138 Q141.385 405.68 144.996 405.68 Q148.63 405.68 150.436 402.138 Q152.265 398.573 152.265 391.467 Q152.265 384.337 150.436 380.796 Q148.63 377.231 144.996 377.231 M144.996 373.527 Q150.806 373.527 153.862 378.134 Q156.941 382.717 156.941 391.467 Q156.941 400.194 153.862 404.8 Q150.806 409.383 144.996 409.383 Q139.186 409.383 136.107 404.8 Q133.052 400.194 133.052 391.467 Q133.052 382.717 136.107 378.134 Q139.186 373.527 144.996 373.527 Z" fill="#000000" fill-rule="nonzero" fill-opacity="1" /><path clip-path="url(#clip330)" d="M175.158 377.231 Q171.547 377.231 169.718 380.796 Q167.913 384.337 167.913 391.467 Q167.913 398.573 169.718 402.138 Q171.547 405.68 175.158 405.68 Q178.792 405.68 180.598 402.138 Q182.427 398.573 182.427 391.467 Q182.427 384.337 180.598 380.796 Q178.792 377.231 175.158 377.231 M175.158 373.527 Q180.968 373.527 184.024 378.134 Q187.103 382.717 187.103 391.467 Q187.103 400.194 184.024 404.8 Q180.968 409.383 175.158 409.383 Q169.348 409.383 166.269 404.8 Q163.214 400.194 163.214 391.467 Q163.214 382.717 166.269 378.134 Q169.348 373.527 175.158 373.527 Z" fill="#000000" fill-rule="nonzero" fill-opacity="1" /><path clip-path="url(#clip330)" d="M91.5706 210.357 L99.2095 210.357 L99.2095 183.992 L90.8993 185.658 L90.8993 181.399 L99.1632 179.732 L103.839 179.732 L103.839 210.357 L111.478 210.357 L111.478 214.292 L91.5706 214.292 L91.5706 210.357 Z" fill="#000000" fill-rule="nonzero" fill-opacity="1" /><path clip-path="url(#clip330)" d="M120.922 208.413 L125.807 208.413 L125.807 214.292 L120.922 214.292 L120.922 208.413 Z" fill="#000000" fill-rule="nonzero" fill-opacity="1" /><path clip-path="url(#clip330)" d="M140.019 210.357 L156.339 210.357 L156.339 214.292 L134.394 214.292 L134.394 210.357 Q137.056 207.603 141.64 202.973 Q146.246 198.32 147.427 196.978 Q149.672 194.454 150.552 192.718 Q151.455 190.959 151.455 189.269 Q151.455 186.515 149.51 184.779 Q147.589 183.042 144.487 183.042 Q142.288 183.042 139.834 183.806 Q137.404 184.57 134.626 186.121 L134.626 181.399 Q137.45 180.265 139.904 179.686 Q142.357 179.107 144.394 179.107 Q149.765 179.107 152.959 181.793 Q156.154 184.478 156.154 188.968 Q156.154 191.098 155.343 193.019 Q154.556 194.917 152.45 197.51 Q151.871 198.181 148.769 201.399 Q145.668 204.593 140.019 210.357 Z" fill="#000000" fill-rule="nonzero" fill-opacity="1" /><path clip-path="url(#clip330)" d="M166.2 179.732 L184.556 179.732 L184.556 183.667 L170.482 183.667 L170.482 192.14 Q171.501 191.792 172.519 191.63 Q173.538 191.445 174.556 191.445 Q180.343 191.445 183.723 194.617 Q187.103 197.788 187.103 203.204 Q187.103 208.783 183.63 211.885 Q180.158 214.964 173.839 214.964 Q171.663 214.964 169.394 214.593 Q167.149 214.223 164.742 213.482 L164.742 208.783 Q166.825 209.917 169.047 210.473 Q171.269 211.028 173.746 211.028 Q177.751 211.028 180.089 208.922 Q182.427 206.816 182.427 203.204 Q182.427 199.593 180.089 197.487 Q177.751 195.38 173.746 195.38 Q171.871 195.38 169.996 195.797 Q168.144 196.214 166.2 197.093 L166.2 179.732 Z" fill="#000000" fill-rule="nonzero" fill-opacity="1" /><polyline clip-path="url(#clip332)" style="stroke:#009af9; stroke-linecap:round; stroke-linejoin:round; stroke-width:16; stroke-opacity:1; fill:none" stroke-dasharray="8, 16" points="283.376,1052.31 293.472,1045.32 303.568,1024.63 313.664,1009.5 323.76,1012.66 333.856,1031.83 343.952,1036.56 354.048,1024.6 364.144,1047.45 374.24,1136.75 384.336,1227.66 394.432,1232.74 404.528,1168.8 414.624,1105.16 424.72,1081.82 434.816,1122.04 444.912,1229.82 455.008,1363.32 465.104,1445.72 475.2,1429.88 485.296,1348.52 495.392,1273.2 505.488,1252.48 515.584,1284.19 525.68,1304.85 535.776,1293.54 545.872,1291.51 555.968,1283.19 566.064,1240.1 576.16,1176.94 586.256,1122.33 596.352,1093.61 606.448,1093.93 616.544,1114.03 626.64,1133.89 636.736,1125.24 646.832,1068.82 656.928,992.203 667.024,948.891 677.12,954.356 687.216,991.012 697.312,1044.4 707.408,1095.39 717.504,1119.16 727.6,1110.19 737.696,1089.1 747.792,1086.11 757.888,1117.23 767.984,1169.02 778.08,1218.76 788.176,1264.8 798.272,1307.39 808.369,1321.52 818.465,1288.19 828.561,1244.64 838.657,1245.76 848.753,1288.26 858.849,1326.55 868.945,1323.97 879.041,1293.27 889.137,1274.51 899.233,1268.14 909.329,1250.47 919.425,1226.01 929.521,1201.87 939.617,1162.11 949.713,1101.88 959.809,1042.73 969.905,1024.94 980.001,1058.65 990.097,1092.86 1000.19,1080.2 1010.29,1040.59 1020.38,1015.79 1030.48,985.906 1040.58,930.836 1050.67,936.854 1060.77,1029.98 1070.86,1118.94 1080.96,1151.99 1091.06,1151.04 1101.15,1144.24 1111.25,1147.49 1121.34,1175.02 1131.44,1229.56 1141.54,1258.85 1151.63,1221.97 1161.73,1219.12 1171.83,1281.77 1181.92,1315.67 1192.02,1331.61 1202.11,1364.44 1212.21,1363.32 1222.31,1324.79 1232.4,1289.54 1242.5,1284.62 1252.59,1303.92 1262.69,1283.23 1272.79,1104.2 1282.88,776.217 1292.98,537.811 1303.07,420.986 1313.17,381.373 1323.27,408.029 1333.36,437.959 1343.46,430.303 1353.55,381.767 1363.65,318.897 1373.75,295.116 1383.84,336.646 1393.94,391.885 1404.03,438.7 1414.13,466.461 1424.23,426.665 1434.32,379.334 1444.42,397.184 1454.51,433.818 1464.61,443.38 1474.71,422.142 1484.8,379.003 1494.9,330.717 1504.99,315.406 1515.09,351.576 1525.19,375.304 1535.28,354.567 1545.38,363.328 1555.47,407.045 1565.57,421.895 1575.67,409.791 1585.76,415.328 1595.86,440.973 1605.95,445.207 1616.05,402.47 1626.15,343.964 1636.24,311.321 1646.34,311.982 1656.43,333.908 1666.53,370.058 1676.63,430.506 1686.72,492.785 1696.82,500.337 1706.91,456.659 1717.01,431.682 1727.11,447.649 1737.2,454.652 1747.3,401.371 1757.39,302.347 1767.49,246.558 1777.59,280.982 1787.68,367.857 1797.78,459.23 1807.87,529.112 1817.97,556.122 1828.07,523.321 1838.16,437.918 1848.26,327.902 1858.35,232.307 1868.45,193.95 1878.55,236.973 1888.64,344.283 1898.74,466.634 1908.83,548.243 1918.93,551.103 1929.03,487.206 1939.12,415.073 1949.22,375.916 1959.31,360.783 1969.41,345.649 1979.51,318.964 1989.6,289 1999.7,276.234 2009.79,299.881 2019.89,373.098 2029.99,484.949 2040.08,564.724 2050.18,555.539 2060.27,515.238 2070.37,470.551 2080.47,381.208 2090.56,248.735 2100.66,124.952 2110.75,87.9763 2120.85,183.763 2130.95,369.644 2141.04,548.543 2151.14,649.586 2161.23,654.454 2171.33,566.521 2181.43,414.007 2191.52,282.079 2201.62,231.634 2211.71,223.162 2221.81,217.232 2231.91,237.692 2242,303.372 2252.1,387.238 2262.19,452.648 2272.29,497.99 2282.39,538.26 2292.48,584.913 "/>
<polyline clip-path="url(#clip332)" style="stroke:#e26f46; stroke-linecap:round; stroke-linejoin:round; stroke-width:4; stroke-opacity:1; fill:none" points="283.376,1052.31 293.472,1035.73 303.568,1023.52 313.664,1016.05 323.76,1013.58 333.856,1016.18 343.952,1023.78 354.048,1036.12 364.144,1052.8 374.24,1073.27 384.336,1096.88 394.432,1122.84 404.528,1150.31 414.624,1178.4 424.72,1206.18 434.816,1232.75 444.912,1257.25 455.008,1278.87 465.104,1296.9 475.2,1310.77 485.296,1320.01 495.392,1324.33 505.488,1323.58 515.584,1317.79 525.68,1307.15 535.776,1292 545.872,1272.85 555.968,1250.3 566.064,1225.11 576.16,1198.09 586.256,1170.12 596.352,1142.12 606.448,1115 616.544,1089.65 626.64,1066.89 636.736,1047.47 646.832,1032.01 656.928,1021.04 667.024,1014.89 677.12,1013.78 687.216,1017.73 697.312,1026.63 707.408,1040.18 717.504,1057.94 727.6,1079.32 737.696,1103.64 747.792,1130.09 757.888,1157.81 767.984,1185.91 778.08,1213.45 788.176,1239.55 798.272,1263.35 808.369,1284.08 818.465,1301.05 828.561,1313.71 838.657,1321.66 848.753,1324.63 858.849,1322.52 868.945,1315.41 879.041,1303.52 889.137,1287.24 899.233,1267.11 909.329,1243.78 919.425,1218.01 929.521,1190.65 939.617,1162.58 949.713,1134.73 959.809,1108 969.905,1083.26 980.001,1061.33 990.097,1042.91 1000.19,1028.62 1010.29,1018.9 1020.38,1014.09 1030.48,1014.34 1040.58,1019.64 1050.67,1029.82 1060.77,1044.55 1070.86,1063.34 1080.96,1085.58 1091.06,1110.55 1101.15,1137.43 1111.25,1165.34 1121.34,1193.38 1131.44,1220.62 1141.54,1246.19 1151.63,1269.24 1161.73,1289.02 1171.83,1304.88 1181.92,1316.32 1192.02,1322.95 1202.11,1324.56 1212.21,1321.1 1222.31,1312.68 1232.4,1299.57 1242.5,1282.2 1252.59,1261.14 1262.69,1237.08 1272.79,1210.8 1282.88,1183.16 1292.98,390.303 1303.07,389.018 1313.17,390.187 1323.27,394.081 1333.36,399.507 1343.46,404.17 1353.55,405.552 1363.65,401.963 1373.75,393.409 1383.84,381.876 1393.94,370.902 1404.03,364.491 1414.13,365.721 1424.23,375.502 1434.32,391.955 1444.42,410.678 1454.51,425.926 1464.61,432.357 1474.71,426.852 1484.8,409.769 1494.9,385.198 1504.99,360.018 1515.09,341.97 1525.19,337.295 1535.28,348.629 1545.38,373.879 1555.47,406.488 1565.57,437.121 1575.67,456.333 1585.76,457.47 1595.86,438.91 1605.95,404.894 1616.05,364.628 1626.15,329.798 1636.24,311.179 1646.34,315.319 1656.43,342.312 1666.53,385.406 1676.63,432.647 1686.72,470.199 1696.82,486.389 1706.91,475.318 1717.01,438.912 1727.11,386.732 1737.2,333.484 1747.3,294.874 1757.39,282.984 1767.49,302.509 1777.59,349.047 1787.68,410.013 1797.78,468.031 1807.87,505.882 1817.97,511.615 1828.07,482.286 1838.16,425.178 1848.26,356.035 1858.35,294.735 1868.45,259.567 1878.55,261.791 1888.64,302.062 1898.74,369.875 1908.83,446.278 1918.93,509.159 1929.03,539.65 1939.12,527.777 1949.22,475.673 1959.31,397.335 1969.41,314.88 1979.51,252.305 1989.6,228.502 1999.7,251.569 2009.79,316.121 2019.89,404.479 2029.99,491.503 2040.08,551.74 2050.18,566.871 2060.27,531.259 2070.37,453.948 2080.47,356.396 2090.56,266.536 2100.66,210.77 2110.75,206.221 2120.85,255.494 2130.95,345.557 2141.04,451.157 2151.14,541.904 2161.23,591.008 2171.33,583.189 2181.43,519.403 2191.52,416.934 2201.62,304.732 2211.71,215.236 2221.81,174.992 2231.91,196.794 2242,275.645 2252.1,389.835 2262.19,506.906 2272.29,592.876 2282.39,622.1 2292.48,584.913 "/>
<path clip-path="url(#clip330)" d="M294.091 250.738 L733.884 250.738 L733.884 95.2176 L294.091 95.2176  Z" fill="#ffffff" fill-rule="evenodd" fill-opacity="1"/>
<polyline clip-path="url(#clip330)" style="stroke:#000000; stroke-linecap:round; stroke-linejoin:round; stroke-width:4; stroke-opacity:1; fill:none" points="294.091,250.738 733.884,250.738 733.884,95.2176 294.091,95.2176 294.091,250.738 "/>
<polyline clip-path="url(#clip330)" style="stroke:#009af9; stroke-linecap:round; stroke-linejoin:round; stroke-width:16; stroke-opacity:1; fill:none" stroke-dasharray="8, 16" points="317.754,147.058 459.731,147.058 "/>
<path clip-path="url(#clip330)" d="M488.069 133.62 L488.069 146.606 L493.949 146.606 Q497.213 146.606 498.995 144.916 Q500.778 143.227 500.778 140.102 Q500.778 137 498.995 135.31 Q497.213 133.62 493.949 133.62 L488.069 133.62 M483.393 129.778 L493.949 129.778 Q499.759 129.778 502.722 132.416 Q505.708 135.032 505.708 140.102 Q505.708 145.217 502.722 147.833 Q499.759 150.449 493.949 150.449 L488.069 150.449 L488.069 164.338 L483.393 164.338 L483.393 129.778 Z" fill="#000000" fill-rule="nonzero" fill-opacity="1" /><path clip-path="url(#clip330)" d="M525.986 142.393 Q525.268 141.977 524.412 141.791 Q523.578 141.583 522.56 141.583 Q518.949 141.583 517.004 143.944 Q515.083 146.282 515.083 150.68 L515.083 164.338 L510.801 164.338 L510.801 138.412 L515.083 138.412 L515.083 142.44 Q516.426 140.078 518.578 138.944 Q520.731 137.787 523.81 137.787 Q524.25 137.787 524.782 137.856 Q525.315 137.903 525.963 138.018 L525.986 142.393 Z" fill="#000000" fill-rule="nonzero" fill-opacity="1" /><path clip-path="url(#clip330)" d="M551.588 150.31 L551.588 152.393 L532.004 152.393 Q532.282 156.791 534.643 159.106 Q537.027 161.398 541.264 161.398 Q543.717 161.398 546.009 160.796 Q548.324 160.194 550.592 158.99 L550.592 163.018 Q548.301 163.99 545.893 164.5 Q543.486 165.009 541.009 165.009 Q534.805 165.009 531.171 161.398 Q527.56 157.787 527.56 151.629 Q527.56 145.264 530.986 141.537 Q534.435 137.787 540.268 137.787 Q545.5 137.787 548.532 141.166 Q551.588 144.523 551.588 150.31 M547.328 149.06 Q547.282 145.565 545.361 143.481 Q543.463 141.398 540.314 141.398 Q536.75 141.398 534.597 143.412 Q532.467 145.426 532.143 149.083 L547.328 149.06 Z" fill="#000000" fill-rule="nonzero" fill-opacity="1" /><path clip-path="url(#clip330)" d="M575.638 142.347 L575.638 128.319 L579.898 128.319 L579.898 164.338 L575.638 164.338 L575.638 160.449 Q574.296 162.763 572.236 163.898 Q570.199 165.009 567.328 165.009 Q562.629 165.009 559.666 161.259 Q556.726 157.509 556.726 151.398 Q556.726 145.287 559.666 141.537 Q562.629 137.787 567.328 137.787 Q570.199 137.787 572.236 138.921 Q574.296 140.032 575.638 142.347 M561.125 151.398 Q561.125 156.097 563.046 158.782 Q564.99 161.444 568.37 161.444 Q571.749 161.444 573.694 158.782 Q575.638 156.097 575.638 151.398 Q575.638 146.699 573.694 144.037 Q571.749 141.352 568.37 141.352 Q564.99 141.352 563.046 144.037 Q561.125 146.699 561.125 151.398 Z" fill="#000000" fill-rule="nonzero" fill-opacity="1" /><path clip-path="url(#clip330)" d="M588.671 138.412 L592.93 138.412 L592.93 164.338 L588.671 164.338 L588.671 138.412 M588.671 128.319 L592.93 128.319 L592.93 133.713 L588.671 133.713 L588.671 128.319 Z" fill="#000000" fill-rule="nonzero" fill-opacity="1" /><path clip-path="url(#clip330)" d="M620.499 139.407 L620.499 143.389 Q618.694 142.393 616.865 141.907 Q615.059 141.398 613.208 141.398 Q609.064 141.398 606.772 144.037 Q604.481 146.652 604.481 151.398 Q604.481 156.143 606.772 158.782 Q609.064 161.398 613.208 161.398 Q615.059 161.398 616.865 160.912 Q618.694 160.402 620.499 159.407 L620.499 163.342 Q618.717 164.176 616.796 164.592 Q614.897 165.009 612.745 165.009 Q606.888 165.009 603.439 161.328 Q599.99 157.648 599.99 151.398 Q599.99 145.055 603.462 141.421 Q606.958 137.787 613.022 137.787 Q614.99 137.787 616.865 138.203 Q618.74 138.597 620.499 139.407 Z" fill="#000000" fill-rule="nonzero" fill-opacity="1" /><path clip-path="url(#clip330)" d="M632.12 131.051 L632.12 138.412 L640.893 138.412 L640.893 141.722 L632.12 141.722 L632.12 155.796 Q632.12 158.967 632.976 159.87 Q633.856 160.773 636.518 160.773 L640.893 160.773 L640.893 164.338 L636.518 164.338 Q631.587 164.338 629.712 162.509 Q627.837 160.657 627.837 155.796 L627.837 141.722 L624.712 141.722 L624.712 138.412 L627.837 138.412 L627.837 131.051 L632.12 131.051 Z" fill="#000000" fill-rule="nonzero" fill-opacity="1" /><path clip-path="url(#clip330)" d="M646.494 138.412 L650.754 138.412 L650.754 164.338 L646.494 164.338 L646.494 138.412 M646.494 128.319 L650.754 128.319 L650.754 133.713 L646.494 133.713 L646.494 128.319 Z" fill="#000000" fill-rule="nonzero" fill-opacity="1" /><path clip-path="url(#clip330)" d="M669.712 141.398 Q666.286 141.398 664.295 144.083 Q662.305 146.745 662.305 151.398 Q662.305 156.051 664.272 158.736 Q666.263 161.398 669.712 161.398 Q673.115 161.398 675.105 158.713 Q677.096 156.027 677.096 151.398 Q677.096 146.791 675.105 144.106 Q673.115 141.398 669.712 141.398 M669.712 137.787 Q675.267 137.787 678.439 141.398 Q681.61 145.009 681.61 151.398 Q681.61 157.764 678.439 161.398 Q675.267 165.009 669.712 165.009 Q664.133 165.009 660.962 161.398 Q657.814 157.764 657.814 151.398 Q657.814 145.009 660.962 141.398 Q664.133 137.787 669.712 137.787 Z" fill="#000000" fill-rule="nonzero" fill-opacity="1" /><path clip-path="url(#clip330)" d="M710.221 148.689 L710.221 164.338 L705.962 164.338 L705.962 148.828 Q705.962 145.148 704.527 143.319 Q703.091 141.49 700.221 141.49 Q696.772 141.49 694.781 143.69 Q692.791 145.889 692.791 149.685 L692.791 164.338 L688.508 164.338 L688.508 138.412 L692.791 138.412 L692.791 142.44 Q694.318 140.102 696.378 138.944 Q698.462 137.787 701.17 137.787 Q705.638 137.787 707.929 140.565 Q710.221 143.319 710.221 148.689 Z" fill="#000000" fill-rule="nonzero" fill-opacity="1" /><polyline clip-path="url(#clip330)" style="stroke:#e26f46; stroke-linecap:round; stroke-linejoin:round; stroke-width:4; stroke-opacity:1; fill:none" points="317.754,198.898 459.731,198.898 "/>
<path clip-path="url(#clip330)" d="M483.393 181.618 L505.245 181.618 L505.245 185.553 L488.069 185.553 L488.069 195.784 L504.528 195.784 L504.528 199.719 L488.069 199.719 L488.069 212.242 L505.662 212.242 L505.662 216.178 L483.393 216.178 L483.393 181.618 Z" fill="#000000" fill-rule="nonzero" fill-opacity="1" /><path clip-path="url(#clip330)" d="M534.713 190.252 L525.338 202.867 L535.199 216.178 L530.176 216.178 L522.629 205.992 L515.083 216.178 L510.06 216.178 L520.129 202.613 L510.916 190.252 L515.94 190.252 L522.815 199.488 L529.69 190.252 L534.713 190.252 Z" fill="#000000" fill-rule="nonzero" fill-opacity="1" /><path clip-path="url(#clip330)" d="M553 203.145 Q547.838 203.145 545.847 204.326 Q543.856 205.506 543.856 208.354 Q543.856 210.622 545.338 211.965 Q546.842 213.284 549.412 213.284 Q552.953 213.284 555.083 210.784 Q557.236 208.261 557.236 204.094 L557.236 203.145 L553 203.145 M561.495 201.386 L561.495 216.178 L557.236 216.178 L557.236 212.242 Q555.777 214.603 553.601 215.738 Q551.426 216.849 548.277 216.849 Q544.296 216.849 541.935 214.627 Q539.597 212.381 539.597 208.631 Q539.597 204.256 542.514 202.034 Q545.453 199.812 551.263 199.812 L557.236 199.812 L557.236 199.395 Q557.236 196.455 555.291 194.858 Q553.37 193.238 549.875 193.238 Q547.652 193.238 545.546 193.77 Q543.439 194.303 541.495 195.367 L541.495 191.432 Q543.833 190.53 546.032 190.09 Q548.231 189.627 550.314 189.627 Q555.939 189.627 558.717 192.543 Q561.495 195.46 561.495 201.386 Z" fill="#000000" fill-rule="nonzero" fill-opacity="1" /><path clip-path="url(#clip330)" d="M588.925 191.247 L588.925 195.229 Q587.12 194.233 585.291 193.747 Q583.486 193.238 581.634 193.238 Q577.49 193.238 575.199 195.877 Q572.907 198.492 572.907 203.238 Q572.907 207.983 575.199 210.622 Q577.49 213.238 581.634 213.238 Q583.486 213.238 585.291 212.752 Q587.12 212.242 588.925 211.247 L588.925 215.182 Q587.143 216.016 585.222 216.432 Q583.323 216.849 581.171 216.849 Q575.314 216.849 571.865 213.168 Q568.416 209.488 568.416 203.238 Q568.416 196.895 571.888 193.261 Q575.384 189.627 581.449 189.627 Q583.416 189.627 585.291 190.043 Q587.166 190.437 588.925 191.247 Z" fill="#000000" fill-rule="nonzero" fill-opacity="1" /><path clip-path="url(#clip330)" d="M600.546 182.891 L600.546 190.252 L609.319 190.252 L609.319 193.562 L600.546 193.562 L600.546 207.636 Q600.546 210.807 601.402 211.71 Q602.282 212.613 604.944 212.613 L609.319 212.613 L609.319 216.178 L604.944 216.178 Q600.013 216.178 598.138 214.349 Q596.263 212.497 596.263 207.636 L596.263 193.562 L593.138 193.562 L593.138 190.252 L596.263 190.252 L596.263 182.891 L600.546 182.891 Z" fill="#000000" fill-rule="nonzero" fill-opacity="1" /></svg>
